<svg xmlns="http://www.w3.org/2000/svg" width="122.557" height="122.558" viewBox="0 0 122.557 122.558">
  <g id="Grupo_19831" data-name="Grupo 19831" transform="translate(-333.079 141.809)">
    <g id="Grupo_19829" data-name="Grupo 19829" transform="translate(333.079 -141.809)">
      <g id="Grupo_19822" data-name="Grupo 19822">
        <g id="Grupo_19821" data-name="Grupo 19821">
          <path id="Trazado_19522" data-name="Trazado 19522" d="M394.352-80.537l-47.617,38.56a61.271,61.271,0,0,1,9.057-86.176,59.625,59.625,0,0,1,38.56-13.655Z" transform="translate(-333.079 141.809)" fill="#c9d2d7"/>
        </g>
      </g>
      <g id="Grupo_19824" data-name="Grupo 19824" transform="translate(13.657 61.272)">
        <g id="Grupo_19823" data-name="Grupo 19823">
          <path id="Trazado_19523" data-name="Trazado 19523" d="M390.3-98.715l55.53,25.894a61.27,61.27,0,0,1-81.425,29.636,59.59,59.59,0,0,1-21.723-16.971Z" transform="translate(-342.684 98.715)" fill="#ffd800"/>
        </g>
      </g>
      <g id="Grupo_19826" data-name="Grupo 19826" transform="translate(61.273 1.339)">
        <g id="Grupo_19825" data-name="Grupo 19825">
          <path id="Trazado_19524" data-name="Trazado 19524" d="M376.174-80.935l12.739-59.932A61.271,61.271,0,0,1,436.106-68.2a58.721,58.721,0,0,1-4.4,13.155Z" transform="translate(-376.174 140.867)" fill="#2b5cda"/>
        </g>
      </g>
      <g id="Grupo_19828" data-name="Grupo 19828" transform="translate(61.273)">
        <g id="Grupo_19827" data-name="Grupo 19827">
          <path id="Trazado_19525" data-name="Trazado 19525" d="M376.174-80.537v-61.272a54.23,54.23,0,0,1,12.739,1.339Z" transform="translate(-376.174 141.809)" fill="#00af00"/>
        </g>
      </g>
    </g>
  </g>
</svg>
