<svg xmlns="http://www.w3.org/2000/svg" width="169.899" height="49" viewBox="0 0 169.899 49">
  <g id="Grupo_19876" data-name="Grupo 19876" transform="translate(118.091)">
    <g id="Grupo_19879" data-name="Grupo 19879">
      <circle id="Elipse_1636" data-name="Elipse 1636" cx="23.5" cy="23.5" r="23.5" transform="translate(-117.291 1)" fill="none" stroke="#fff" stroke-linecap="round" stroke-linejoin="round" stroke-width="1.6"/>
      <g id="Grupo_19878" data-name="Grupo 19878">
        <ellipse id="Elipse_3064" data-name="Elipse 3064" cx="11.805" cy="6.88" rx="11.805" ry="6.88" transform="translate(-105.596 25.057)" fill="none" stroke="#fff" stroke-linecap="round" stroke-linejoin="round" stroke-width="1.6"/>
        <path id="Trazado_19582" data-name="Trazado 19582" d="M-104.024,28.466v-9.28a5.184,5.184,0,0,1,5.14-5.23h10.19a5.184,5.184,0,0,1,5.14,5.23v9.36" fill="none" stroke="#fff" stroke-linecap="round" stroke-linejoin="round" stroke-width="1.6"/>
        <path id="Trazado_19583" data-name="Trazado 19583" d="M-88.518,13.941s2.274-2.755,2.487-4.84c0,0,4,2.479,2,7.968" fill="none" stroke="#fff" stroke-linecap="round" stroke-linejoin="round" stroke-width="1.6"/>
        <path id="Trazado_19584" data-name="Trazado 19584" d="M-99.238,13.941s-2.274-2.755-2.487-4.84c0,0-3.958,2.6-1.958,8.085" fill="none" stroke="#fff" stroke-linecap="round" stroke-linejoin="round" stroke-width="1.6"/>
        <path id="Trazado_19585" data-name="Trazado 19585" d="M-83.577,18.59h7.32s-1.022,6-7.277,6.468" fill="none" stroke="#fff" stroke-linecap="round" stroke-linejoin="round" stroke-width="1.6"/>
        <path id="Trazado_19586" data-name="Trazado 19586" d="M-104,18.643h-7.32s1.022,6,7.277,6.468" fill="none" stroke="#fff" stroke-linecap="round" stroke-linejoin="round" stroke-width="1.6"/>
        <g id="Grupo_19876-2" data-name="Grupo 19876">
          <circle id="Elipse_3065" data-name="Elipse 3065" cx="1.465" cy="1.465" r="1.465" transform="translate(-100.684 19.246)" fill="#fff"/>
          <circle id="Elipse_3066" data-name="Elipse 3066" cx="1.465" cy="1.465" r="1.465" transform="translate(-89.828 19.246)" fill="#fff"/>
        </g>
        <g id="Grupo_19877" data-name="Grupo 19877">
          <circle id="Elipse_3067" data-name="Elipse 3067" cx="1.128" cy="1.128" r="1.128" transform="translate(-98.046 29.937)" fill="#fff"/>
          <circle id="Elipse_3068" data-name="Elipse 3068" cx="1.128" cy="1.128" r="1.128" transform="translate(-91.791 29.937)" fill="#fff"/>
        </g>
      </g>
    </g>
    <g id="Grupo_19882" data-name="Grupo 19882">
      <circle id="Elipse_1636-2" data-name="Elipse 1636" cx="23.5" cy="23.5" r="23.5" transform="translate(-57.241 1)" fill="none" stroke="#fff" stroke-linecap="round" stroke-linejoin="round" stroke-width="1.566"/>
      <g id="Grupo_19881" data-name="Grupo 19881">
        <g id="Grupo_19880" data-name="Grupo 19880">
          <path id="Trazado_19587" data-name="Trazado 19587" d="M-51.761,27.226a9.38,9.38,0,0,1,9.373-9.013,9.381,9.381,0,0,1,9.373,9.013" fill="none" stroke="#fff" stroke-linecap="round" stroke-linejoin="round" stroke-width="1.6"/>
          <line id="Línea_4382" data-name="Línea 4382" x1="18.747" transform="translate(-51.761 27.226)" fill="none" stroke="#fff" stroke-linecap="round" stroke-linejoin="round" stroke-width="1.6"/>
        </g>
        <path id="Trazado_19588" data-name="Trazado 19588" d="M-47.843,27.226a13.114,13.114,0,0,1,2.974-8.681" fill="none" stroke="#fff" stroke-linecap="round" stroke-linejoin="round" stroke-width="1.6"/>
        <path id="Trazado_19589" data-name="Trazado 19589" d="M-40.268,18.454c.763.93,3.369,4.444,3.048,8.772" fill="none" stroke="#fff" stroke-linecap="round" stroke-linejoin="round" stroke-width="1.6"/>
      </g>
      <line id="Línea_4383" data-name="Línea 4383" y1="8.793" transform="translate(-42.39 27.229)" fill="none" stroke="#fff" stroke-linecap="round" stroke-linejoin="round" stroke-width="1.6"/>
      <circle id="Elipse_3069" data-name="Elipse 3069" cx="3.899" cy="3.899" r="3.899" transform="translate(-28.754 11.812)" fill="none" stroke="#fff" stroke-linecap="round" stroke-linejoin="round" stroke-width="1.6"/>
      <line id="Línea_4384" data-name="Línea 4384" y1="2.169" transform="translate(-24.762 7.5)" fill="none" stroke="#fff" stroke-linecap="round" stroke-linejoin="round" stroke-width="1.6"/>
      <line id="Línea_4385" data-name="Línea 4385" y1="2.169" transform="translate(-24.744 21.644)" fill="none" stroke="#fff" stroke-linecap="round" stroke-linejoin="round" stroke-width="1.6"/>
      <line id="Línea_4386" data-name="Línea 4386" x1="2.169" y1="0.018" transform="translate(-32.957 15.516)" fill="none" stroke="#fff" stroke-linecap="round" stroke-linejoin="round" stroke-width="1.6"/>
      <line id="Línea_4387" data-name="Línea 4387" x1="1.533" y2="1.534" transform="translate(-30.857 19.573)" fill="none" stroke="#fff" stroke-linecap="round" stroke-linejoin="round" stroke-width="1.6"/>
      <line id="Línea_4388" data-name="Línea 4388" x1="1.533" y2="1.534" transform="translate(-20.705 9.97)" fill="none" stroke="#fff" stroke-linecap="round" stroke-linejoin="round" stroke-width="1.6"/>
      <line id="Línea_4389" data-name="Línea 4389" x1="1.592" y1="1.473" transform="translate(-30.589 10.055)" fill="none" stroke="#fff" stroke-linecap="round" stroke-linejoin="round" stroke-width="1.6"/>
      <line id="Línea_4390" data-name="Línea 4390" x1="1.592" y1="1.473" transform="translate(-20.346 19.634)" fill="none" stroke="#fff" stroke-linecap="round" stroke-linejoin="round" stroke-width="1.6"/>
      <line id="Línea_4391" data-name="Línea 4391" x2="31.66" transform="translate(-51.137 36.681)" fill="none" stroke="#fff" stroke-linecap="round" stroke-linejoin="round" stroke-width="1.6"/>
      <line id="Línea_4392" data-name="Línea 4392" x2="1.979" transform="translate(-18.889 15.534)" fill="none" stroke="#fff" stroke-linecap="round" stroke-linejoin="round" stroke-width="1.6"/>
      <rect id="Rectángulo_5710" data-name="Rectángulo 5710" width="49" height="49" transform="translate(-58.241)" fill="none"/>
    </g>
    <g id="Grupo_19885" data-name="Grupo 19885" transform="translate(2.809)">
      <g id="Grupo_19884" data-name="Grupo 19884">
        <circle id="Elipse_1636-3" data-name="Elipse 1636" cx="23.5" cy="23.5" r="23.5" transform="translate(1 1)" fill="none" stroke="#fff" stroke-linecap="round" stroke-linejoin="round" stroke-width="1.566"/>
        <g id="Grupo_19883" data-name="Grupo 19883">
          <path id="Trazado_19590" data-name="Trazado 19590" d="M24.5,10.789l-8.63,11.3H33.13Z" fill="none" stroke="#fff" stroke-linecap="round" stroke-linejoin="round" stroke-width="1.6"/>
          <rect id="Rectángulo_5711" data-name="Rectángulo 5711" width="17.277" height="16.295" transform="translate(15.862 22.091)" fill="none" stroke="#fff" stroke-linecap="round" stroke-linejoin="round" stroke-width="1.6"/>
          <line id="Línea_4393" data-name="Línea 4393" y1="5.907" transform="translate(24.5 4.882)" fill="none" stroke="#fff" stroke-linecap="round" stroke-linejoin="round" stroke-width="1.6"/>
          <line id="Línea_4394" data-name="Línea 4394" x1="5.907" transform="translate(21.547 7.836)" fill="none" stroke="#fff" stroke-linecap="round" stroke-linejoin="round" stroke-width="1.6"/>
          <path id="Trazado_19591" data-name="Trazado 19591" d="M15.863,26.184H9.739v12.2H39.261v-12.2H33.137" fill="none" stroke="#fff" stroke-linecap="round" stroke-linejoin="round" stroke-width="1.6"/>
          <rect id="Rectángulo_5712" data-name="Rectángulo 5712" width="5.042" height="9.429" transform="translate(21.907 28.956)" fill="none" stroke="#fff" stroke-linecap="round" stroke-linejoin="round" stroke-width="1.6"/>
        </g>
      </g>
      <rect id="Rectángulo_5713" data-name="Rectángulo 5713" width="49" height="49" transform="translate(0)" fill="none"/>
    </g>
  </g>
</svg>
