<svg xmlns="http://www.w3.org/2000/svg" width="72.032" height="113.913" viewBox="0 0 72.032 113.913">
  <g id="Grupo_19893" data-name="Grupo 19893" transform="translate(-28.984 -3.043)">
    <g id="Grupo_19892" data-name="Grupo 19892">
      <circle id="Elipse_2313" data-name="Elipse 2313" cx="1.9" cy="1.9" r="1.9" transform="translate(83.77 96.387)" fill="#fff"/>
      <circle id="Elipse_2314" data-name="Elipse 2314" cx="1.9" cy="1.9" r="1.9" transform="translate(76.82 92.678)" fill="#fff"/>
      <circle id="Elipse_2315" data-name="Elipse 2315" cx="1.9" cy="1.9" r="1.9" transform="translate(67.534 92.16)" fill="#fff"/>
    </g>
    <path id="Trazado_19603" data-name="Trazado 19603" d="M30.484,30.6l3.9-3.409,1.339-5.235-.852-1.7,2.191-2.313.609-9.983L42.05,4.543l-1.948,5.6.974,1.339L42.9,10.266l1.339.243-.609,7.061v1.217L50.086,21.1l1.1-1.461,2.07,1.339-1.826,3.652-2.07,8.4.243,2.191h2.435l3.652-3.531,2.557,2.557h3.9L60.8,35.711l.243,1.339h1.583L67.252,40.7h2.435l1.7.852-1.217,1.217-.365,2.191L73.1,46.547l2.191-1.826L78.453,47.4l-1.948,1.583L74.8,51.9l.852,1.1.122,4.518,1.7,1.736v3.73L80.4,64.566l2.07,5.235,8.279,2.313,4.383,5.357,3.774,6.7-3.652,2.678.852,9.5,1.217,1.217.243,4.018h1.339l.609,2.678-1.7,4.626H95.5l-1.1.73.243,2.07-2.07,1.826-.122,1.948-1.461-1.1-3.044.122-1.339-.852-1.217,1.826h-1.7l-.365-1.7.852-1.339V110.1l-2.191-1.583-2.435-.243L77.6,104.743l-3.044-1.7-.974,1.583-3.165-2.07V104.5l-6.329,3.774-3.046.365-2.313-1.217v-1.339l1.217-1.461-5.844-2.07-1.7-3.165L52.155,93.3l-1.1-.974,1.7-5.113-2.8-1.583-1.826-3.044,1.583-1.217,3.9.974-.122-1.583,2.313-1.826,3.531-1.217.609-2.678-1.461-3.531.974-1.217L57.025,68.34l-2.313.122-3.044-3.287L49.477,64.2l-2.678.73-2.435-3.287.365-4.126H39.615L37.789,55.8l-2.435-3.044-4.87-1.948V48.129l2.07.365,3.044-2.8,2.435-6.94-.852-4.992-2.313-2.678Z" fill="none" stroke="#fff" stroke-linecap="round" stroke-linejoin="round" stroke-width="3"/>
  </g>
</svg>
