<svg xmlns="http://www.w3.org/2000/svg" width="47.173" height="137.862" viewBox="0 0 47.173 137.862">
  <g id="Grupo_20498" data-name="Grupo 20498" transform="translate(-708.827 -2047.602)">
    <g id="Grupo_13818" data-name="Grupo 13818" transform="translate(719 2105.875)">
      <line id="Línea_2119" data-name="Línea 2119" y2="77.089" transform="translate(4.5)" fill="none" stroke="#505d6c" stroke-width="1" opacity="0.29"/>
      <g id="Trazado_11273" data-name="Trazado 11273" transform="translate(0 70.589)" fill="#fff">
        <path d="M 4.5 8 C 2.570090055465698 8 1 6.429910182952881 1 4.5 C 1 2.570090055465698 2.570090055465698 1 4.5 1 C 6.429910182952881 1 8 2.570090055465698 8 4.5 C 8 5.237659931182861 7.764450073242188 5.91195011138916 7.236249923706055 6.68632984161377 L 7.231080055236816 6.693910121917725 L 7.226049900054932 6.701580047607422 C 6.816100120544434 7.326940059661865 5.788169860839844 8 4.5 8 Z" stroke="none"/>
        <path d="M 4.5 2 C 3.121500015258789 2 2 3.121500015258789 2 4.5 C 2 5.878499984741211 3.121500015258789 7 4.5 7 C 5.472350120544434 7 6.175139904022217 6.480679988861084 6.389729976654053 6.153340339660645 L 6.410130023956299 6.122829914093018 C 6.929920196533203 5.360790252685547 7 4.874849796295166 7 4.5 C 7 3.121500015258789 5.878499984741211 2 4.5 2 M 4.5 0 C 6.98528003692627 0 9 2.01471996307373 9 4.5 C 9 5.424520015716553 8.721199989318848 6.283929824829102 8.062370300292969 7.249819755554199 C 7.435930252075195 8.205430030822754 6.060760021209717 9 4.5 9 C 2.01471996307373 9 0 6.98528003692627 0 4.5 C 0 2.01471996307373 2.01471996307373 0 4.5 0 Z" stroke="none" fill="#00af00"/>
      </g>
    </g>
    <g id="Grupo_19860" data-name="Grupo 19860" transform="translate(618.913 2047.689)">
      <g id="Grupo_19862" data-name="Grupo 19862">
        <rect id="Rectángulo_3799-2" data-name="Rectángulo 3799-2" width="47.173" height="47.173" transform="translate(89.913 -0.087)" fill="none"/>
        <g id="Grupo_19861" data-name="Grupo 19861">
          <g id="Grupo_19860-2" data-name="Grupo 19860">
            <circle id="Elipse_3063" data-name="Elipse 3063" cx="6.118" cy="6.118" r="6.118" transform="translate(100.655 24.248)" fill="none" stroke="#95a6b1" stroke-linecap="round" stroke-linejoin="round" stroke-width="1.5"/>
            <path id="Trazado_19563" data-name="Trazado 19563" d="M109.32,11.151a3.369,3.369,0,0,0,2.8,1.511h4.182a3.376,3.376,0,0,0,0-6.753h-4.182A3.366,3.366,0,0,0,109.3,7.45" fill="none" stroke="#95a6b1" stroke-linecap="round" stroke-linejoin="round" stroke-width="1.5"/>
            <path id="Trazado_19564" data-name="Trazado 19564" d="M119.743,24.108h-4.85V19.786a1.44,1.44,0,0,0-1.44-1.44h-6.666V11.119h2.529" fill="none" stroke="#95a6b1" stroke-linecap="round" stroke-linejoin="round" stroke-width="1.5"/>
            <path id="Trazado_19565" data-name="Trazado 19565" d="M109.283,7.482h-4.046a2,2,0,0,0-2,2v8.929h-1.375a1.44,1.44,0,0,0-1.44,1.44v4.031l-2.489-2.287V12.861a1.44,1.44,0,0,0-1.44-1.44h0a1.44,1.44,0,0,0-1.44,1.44v28.23h36.9v-25.2a1.44,1.44,0,0,0-1.44-1.44H127.59a1.44,1.44,0,0,0-1.44,1.44v2.454" fill="none" stroke="#95a6b1" stroke-linecap="round" stroke-linejoin="round" stroke-width="1.5"/>
          </g>
          <line id="Línea_4362" data-name="Línea 4362" x2="4.611" transform="translate(112.059 9.286)" fill="none" stroke="#95a6b1" stroke-linecap="round" stroke-linejoin="round" stroke-width="1.5"/>
          <path id="Trazado_19566" data-name="Trazado 19566" d="M106.773,31.167h-2.959l3.382-6.659V29.1h3.088l-3.5,6.954Z" fill="none" stroke="#95a6b1" stroke-linecap="round" stroke-linejoin="round" stroke-width="1.5"/>
        </g>
        <line id="Línea_4363" data-name="Línea 4363" x2="42.044" transform="translate(92.434 41.091)" fill="none" stroke="#95a6b1" stroke-linecap="round" stroke-linejoin="round" stroke-width="1.5"/>
      </g>
      <path id="Trazado_11848" data-name="Trazado 11848" d="M128.221,23.467a3.041,3.041,0,1,1-3.041-3.041h0a3.028,3.028,0,0,1,3.041,3.018Z" fill="none" stroke="#19a500" stroke-linecap="round" stroke-linejoin="round" stroke-width="1.5"/>
    </g>
  </g>
</svg>
