<svg xmlns="http://www.w3.org/2000/svg" width="47" height="47" viewBox="0 0 47 47">
  <g id="Grupo_20181" data-name="Grupo 20181" transform="translate(-154.954)">
    <path id="Trazado_11848" data-name="Trazado 11848" d="M170.478,12.186A2.876,2.876,0,1,1,167.6,9.309h0a2.866,2.866,0,0,1,2.876,2.855A.08.08,0,0,1,170.478,12.186Z" fill="none" stroke="#fff" stroke-linecap="round" stroke-linejoin="round" stroke-width="1.5"/>
    <rect id="Rectángulo_5375" data-name="Rectángulo 5375" width="47" height="47" transform="translate(154.954)" fill="none"/>
    <path id="Trazado_11859" data-name="Trazado 11859" d="M190.247,38.362c.66-.715,5.319-5.894,5.321-10.059a5.519,5.519,0,0,0-5.034-5.936c-.086,0-.175-.027-.256-.03h-.15c-.09,0-.175.023-.258.03a5.519,5.519,0,0,0-5.032,5.931c0,4.165,4.661,9.344,5.321,10.059v.089l.041-.042.038.042Z" fill="none" stroke="#fff" stroke-linecap="round" stroke-linejoin="round" stroke-width="1.5"/>
    <path id="Trazado_11860" data-name="Trazado 11860" d="M191.639,27.695a1.459,1.459,0,0,1-1.459,1.459h0a1.459,1.459,0,1,1,1.459-1.459Z" fill="none" stroke="#fff" stroke-linecap="round" stroke-linejoin="round" stroke-width="1.5"/>
    <path id="Trazado_17865" data-name="Trazado 17865" d="M173.314,12.223h5.439a4,4,0,0,1,3.994,4v3.609a4,4,0,0,1-3.994,4H171.6a3.994,3.994,0,0,0-3.994,3.994v6.491A4,4,0,0,0,171.6,38.3h13.2" fill="none" stroke="#fff" stroke-linecap="round" stroke-linejoin="round" stroke-width="1.5" stroke-dasharray="4.043"/>
  </g>
</svg>
