<svg xmlns="http://www.w3.org/2000/svg" width="12.06" height="6.642" viewBox="0 0 12.06 6.642">
  <g id="Trazado_12543" data-name="Trazado 12543" transform="translate(-807.018 -403.156)" fill="none" stroke-linecap="round" stroke-linejoin="round">
    <path d="M817.878,404.356h-9.66l4.7,4.242Z" stroke="none"/>
    <path d="M 808.2177124023438 404.355712890625 L 812.919189453125 408.5972900390625 L 817.8778686523438 404.355712890625 L 808.2177124023438 404.355712890625 M 808.2177124023438 403.1557006835938 L 817.8778686523438 403.1557006835938 C 818.3802490234375 403.1557006835938 818.8294677734375 403.4686584472656 819.0035400390625 403.93994140625 C 819.1776123046875 404.4112243652344 819.0396728515625 404.9410400390625 818.6578979492188 405.2676086425781 L 813.69921875 409.5091857910156 C 813.4744262695313 409.7014770507813 813.1967163085938 409.7973022460938 812.9192504882813 409.7973022460938 C 812.6311645507813 409.7973022460938 812.3434448242188 409.6940307617188 812.1153564453125 409.48828125 L 807.4138793945313 405.2467041015625 C 807.045166015625 404.9140625 806.91943359375 404.3886413574219 807.0975952148438 403.9251098632813 C 807.2758178710938 403.4615783691406 807.7211303710938 403.1557006835938 808.2177124023438 403.1557006835938 Z" stroke="none" fill="#97a5af"/>
  </g>
</svg>
