<svg xmlns="http://www.w3.org/2000/svg" width="75.83" height="76.298" viewBox="0 0 75.83 76.298">
  <g id="Grupo_18073" data-name="Grupo 18073" transform="translate(-1039.618 -381.512)">
    <g id="Grupo_18059" data-name="Grupo 18059">
      <g id="Grupo_18058" data-name="Grupo 18058">
        <rect id="Rectángulo_5317" data-name="Rectángulo 5317" width="65" height="16.741" transform="translate(1047.793 441.068)" fill="none"/>
        <g id="Grupo_18057" data-name="Grupo 18057">
          <line id="Línea_2843" data-name="Línea 2843" x2="7.167" transform="translate(1086.006 452.928)" fill="none" stroke="#4e9e2e" stroke-linecap="round" stroke-linejoin="round" stroke-width="2.4"/>
          <line id="Línea_2844" data-name="Línea 2844" x2="0.581" transform="translate(1100.321 452.928)" fill="none" stroke="#4e9e2e" stroke-linecap="round" stroke-linejoin="round" stroke-width="2.4"/>
          <line id="Línea_2845" data-name="Línea 2845" x2="7.101" transform="translate(1059.683 452.928)" fill="none" stroke="#4e9e2e" stroke-linecap="round" stroke-linejoin="round" stroke-width="2.4"/>
          <line id="Línea_2846" data-name="Línea 2846" x2="12.517" transform="translate(1066.322 452.928)" fill="none" stroke="#94cf01" stroke-linecap="round" stroke-linejoin="round" stroke-width="2.4"/>
          <line id="Línea_2847" data-name="Línea 2847" x2="23.582" transform="translate(1059.683 446.821)" fill="none" stroke="#94cf01" stroke-linecap="round" stroke-linejoin="round" stroke-width="2.4"/>
          <line id="Línea_2848" data-name="Línea 2848" x2="18.363" transform="translate(1082.538 446.821)" fill="none" stroke="#4e9e2e" stroke-linecap="round" stroke-linejoin="round" stroke-width="2.4"/>
          <line id="Línea_2849" data-name="Línea 2849" x2="0.429" transform="translate(1059.683 446.821)" fill="none" stroke="#4e9e2e" stroke-linecap="round" stroke-linejoin="round" stroke-width="2.4"/>
        </g>
      </g>
    </g>
    <g id="Grupo_18072" data-name="Grupo 18072">
      <g id="Grupo_18062" data-name="Grupo 18062">
        <g id="Grupo_18060" data-name="Grupo 18060">
          <line id="Línea_1013" data-name="Línea 1013" y2="3.263" transform="translate(1054.79 406.819)" fill="none" stroke="#95a6b1" stroke-linecap="round" stroke-linejoin="round" stroke-width="2.3"/>
          <line id="Línea_1014" data-name="Línea 1014" y2="3.091" transform="translate(1059.569 406.99)" fill="none" stroke="#95a6b1" stroke-linecap="round" stroke-linejoin="round" stroke-width="2.3"/>
        </g>
        <path id="Trazado_11414" data-name="Trazado 11414" d="M1059.565,410.223l6.1,2.746a4.848,4.848,0,0,1,2.4,3.354v4.543" fill="none" stroke="#95a6b1" stroke-linecap="round" stroke-linejoin="round" stroke-width="2.3"/>
        <path id="Trazado_11415" data-name="Trazado 11415" d="M1051.7,420.867h16.37" fill="none" stroke="#95a6b1" stroke-linecap="round" stroke-linejoin="round" stroke-width="2.3"/>
        <g id="Grupo_18061" data-name="Grupo 18061">
          <line id="Línea_1016" data-name="Línea 1016" x1="2.39" y1="2.709" transform="translate(1054.789 410.082)" fill="none" stroke="#95a6b1" stroke-linecap="round" stroke-linejoin="round" stroke-width="2.3"/>
          <line id="Línea_1017" data-name="Línea 1017" y1="2.567" x2="2.265" transform="translate(1057.179 410.223)" fill="none" stroke="#95a6b1" stroke-linecap="round" stroke-linejoin="round" stroke-width="2.3"/>
        </g>
        <path id="Trazado_5701" data-name="Trazado 5701" d="M1061.679,403.006a4.5,4.5,0,0,1-9,0h0" fill="none" stroke="#95a6b1" stroke-linecap="round" stroke-linejoin="round" stroke-width="2.3"/>
        <path id="Trazado_5702" data-name="Trazado 5702" d="M1052.68,403.006v-2.913a4.63,4.63,0,0,1,4.058-4.672,4.5,4.5,0,0,1,4.92,4.036c.014.147.022.3.022.443v3.106" fill="none" stroke="#95a6b1" stroke-linecap="round" stroke-linejoin="round" stroke-width="2.3"/>
        <path id="Trazado_11414-2" data-name="Trazado 11414" d="M1054.789,410.223l-6.1,2.746a4.844,4.844,0,0,0-2.153,2.478" fill="none" stroke="#95a6b1" stroke-linecap="round" stroke-linejoin="round" stroke-width="2.3"/>
      </g>
      <g id="Grupo_18065" data-name="Grupo 18065">
        <g id="Grupo_18063" data-name="Grupo 18063">
          <line id="Línea_1013-2" data-name="Línea 1013" y2="3.263" transform="translate(1101.016 406.819)" fill="none" stroke="#95a6b1" stroke-linecap="round" stroke-linejoin="round" stroke-width="2.3"/>
          <line id="Línea_1014-2" data-name="Línea 1014" y2="3.091" transform="translate(1105.795 406.99)" fill="none" stroke="#95a6b1" stroke-linecap="round" stroke-linejoin="round" stroke-width="2.3"/>
        </g>
        <path id="Trazado_11414-3" data-name="Trazado 11414" d="M1105.792,410.223l6.1,2.746a4.842,4.842,0,0,1,2.4,3.354v4.543" fill="none" stroke="#95a6b1" stroke-linecap="round" stroke-linejoin="round" stroke-width="2.3"/>
        <path id="Trazado_11415-2" data-name="Trazado 11415" d="M1092.513,420.867H1114.3" fill="none" stroke="#95a6b1" stroke-linecap="round" stroke-linejoin="round" stroke-width="2.3"/>
        <g id="Grupo_18064" data-name="Grupo 18064">
          <line id="Línea_1016-2" data-name="Línea 1016" x1="2.39" y1="2.709" transform="translate(1101.016 410.082)" fill="none" stroke="#95a6b1" stroke-linecap="round" stroke-linejoin="round" stroke-width="2.3"/>
          <line id="Línea_1017-2" data-name="Línea 1017" y1="2.567" x2="2.265" transform="translate(1103.406 410.223)" fill="none" stroke="#95a6b1" stroke-linecap="round" stroke-linejoin="round" stroke-width="2.3"/>
        </g>
        <path id="Trazado_5701-2" data-name="Trazado 5701" d="M1107.906,403.006a4.5,4.5,0,0,1-9,0h0" fill="none" stroke="#95a6b1" stroke-linecap="round" stroke-linejoin="round" stroke-width="2.3"/>
        <path id="Trazado_5702-2" data-name="Trazado 5702" d="M1098.906,403.006v-2.913a4.632,4.632,0,0,1,4.058-4.672,4.5,4.5,0,0,1,4.92,4.036,4.362,4.362,0,0,1,.022.443v3.106" fill="none" stroke="#95a6b1" stroke-linecap="round" stroke-linejoin="round" stroke-width="2.3"/>
        <path id="Trazado_11414-4" data-name="Trazado 11414" d="M1101.016,410.223l-6.1,2.746a4.849,4.849,0,0,0-2.4,3.354v4.543" fill="none" stroke="#95a6b1" stroke-linecap="round" stroke-linejoin="round" stroke-width="2.3"/>
      </g>
      <g id="Grupo_18068" data-name="Grupo 18068">
        <g id="Grupo_18066" data-name="Grupo 18066">
          <line id="Línea_1013-3" data-name="Línea 1013" y2="3.263" transform="translate(1077.903 394.085)" fill="none" stroke="#95a6b1" stroke-linecap="round" stroke-linejoin="round" stroke-width="2.3"/>
          <line id="Línea_1014-3" data-name="Línea 1014" y2="3.091" transform="translate(1082.682 394.256)" fill="none" stroke="#95a6b1" stroke-linecap="round" stroke-linejoin="round" stroke-width="2.3"/>
        </g>
        <path id="Trazado_11414-5" data-name="Trazado 11414" d="M1082.679,397.489l6.1,2.746a4.843,4.843,0,0,1,2.4,3.354v4.543" fill="none" stroke="#95a6b1" stroke-linecap="round" stroke-linejoin="round" stroke-width="2.3"/>
        <path id="Trazado_11415-3" data-name="Trazado 11415" d="M1069.4,408.133h21.785" fill="none" stroke="#95a6b1" stroke-linecap="round" stroke-linejoin="round" stroke-width="2.3"/>
        <g id="Grupo_18067" data-name="Grupo 18067">
          <line id="Línea_1016-3" data-name="Línea 1016" x1="2.39" y1="2.709" transform="translate(1077.903 397.348)" fill="none" stroke="#95a6b1" stroke-linecap="round" stroke-linejoin="round" stroke-width="2.3"/>
          <line id="Línea_1017-3" data-name="Línea 1017" y1="2.567" x2="2.265" transform="translate(1080.293 397.489)" fill="none" stroke="#95a6b1" stroke-linecap="round" stroke-linejoin="round" stroke-width="2.3"/>
        </g>
        <path id="Trazado_5701-3" data-name="Trazado 5701" d="M1084.793,390.272a4.5,4.5,0,0,1-9,0h0" fill="none" stroke="#95a6b1" stroke-linecap="round" stroke-linejoin="round" stroke-width="2.3"/>
        <path id="Trazado_5702-3" data-name="Trazado 5702" d="M1075.793,390.272v-2.913a4.631,4.631,0,0,1,4.058-4.672,4.5,4.5,0,0,1,4.92,4.036,4.362,4.362,0,0,1,.022.443v3.106" fill="none" stroke="#95a6b1" stroke-linecap="round" stroke-linejoin="round" stroke-width="2.3"/>
        <path id="Trazado_11414-6" data-name="Trazado 11414" d="M1077.9,397.489l-6.1,2.746a4.846,4.846,0,0,0-2.4,3.354v4.543" fill="none" stroke="#95a6b1" stroke-linecap="round" stroke-linejoin="round" stroke-width="2.3"/>
      </g>
      <g id="Grupo_18071" data-name="Grupo 18071">
        <g id="Grupo_18069" data-name="Grupo 18069">
          <line id="Línea_1013-4" data-name="Línea 1013" y2="3.263" transform="translate(1077.903 424.211)" fill="none" stroke="#95a6b1" stroke-linecap="round" stroke-linejoin="round" stroke-width="2.3"/>
          <line id="Línea_1014-4" data-name="Línea 1014" y2="3.091" transform="translate(1082.682 424.382)" fill="none" stroke="#95a6b1" stroke-linecap="round" stroke-linejoin="round" stroke-width="2.3"/>
        </g>
        <path id="Trazado_11414-7" data-name="Trazado 11414" d="M1082.679,427.616l6.1,2.745a4.846,4.846,0,0,1,2.4,3.354v4.543" fill="none" stroke="#95a6b1" stroke-linecap="round" stroke-linejoin="round" stroke-width="2.3"/>
        <path id="Trazado_11415-4" data-name="Trazado 11415" d="M1069.4,438.259h21.785" fill="none" stroke="#95a6b1" stroke-linecap="round" stroke-linejoin="round" stroke-width="2.3"/>
        <g id="Grupo_18070" data-name="Grupo 18070">
          <line id="Línea_1016-4" data-name="Línea 1016" x1="2.39" y1="2.709" transform="translate(1077.903 427.474)" fill="none" stroke="#95a6b1" stroke-linecap="round" stroke-linejoin="round" stroke-width="2.3"/>
          <line id="Línea_1017-4" data-name="Línea 1017" y1="2.567" x2="2.265" transform="translate(1080.293 427.616)" fill="none" stroke="#95a6b1" stroke-linecap="round" stroke-linejoin="round" stroke-width="2.3"/>
        </g>
        <path id="Trazado_5701-4" data-name="Trazado 5701" d="M1084.793,420.4a4.5,4.5,0,0,1-9,0h0" fill="none" stroke="#95a6b1" stroke-linecap="round" stroke-linejoin="round" stroke-width="2.3"/>
        <path id="Trazado_5702-4" data-name="Trazado 5702" d="M1075.793,420.4v-2.913a4.632,4.632,0,0,1,4.058-4.672,4.5,4.5,0,0,1,4.92,4.036,4.362,4.362,0,0,1,.022.443V420.4" fill="none" stroke="#95a6b1" stroke-linecap="round" stroke-linejoin="round" stroke-width="2.3"/>
        <path id="Trazado_11414-8" data-name="Trazado 11414" d="M1077.9,427.616l-6.1,2.745a4.848,4.848,0,0,0-2.4,3.354v4.543" fill="none" stroke="#95a6b1" stroke-linecap="round" stroke-linejoin="round" stroke-width="2.3"/>
      </g>
    </g>
    <path id="Path_9382" data-name="Path 9382" d="M1051.706,420.867a5.419,5.419,0,1,0-5.419,5.419h0a5.4,5.4,0,0,0,5.419-5.381Z" fill="none" stroke="#19a500" stroke-linecap="round" stroke-linejoin="round" stroke-width="2.5"/>
  </g>
</svg>
