<svg id="Grupo_12866" data-name="Grupo 12866" xmlns="http://www.w3.org/2000/svg" xmlns:xlink="http://www.w3.org/1999/xlink" width="47" height="47" viewBox="0 0 47 47">
  <defs>
    <clipPath id="clip-path">
      <rect id="Rectángulo_4517" data-name="Rectángulo 4517" width="47" height="47" fill="none"/>
    </clipPath>
  </defs>
  <path id="Trazado_11509" data-name="Trazado 11509" d="M715.827,440.622a5.785,5.785,0,1,1-5.782-5.782A5.782,5.782,0,0,1,715.827,440.622Z" transform="translate(-687.355 -428.494)" fill="none" stroke="#fff" stroke-linecap="round" stroke-linejoin="round" stroke-width="1.57"/>
  <rect id="Rectángulo_4518" data-name="Rectángulo 4518" width="8.281" height="8.281" transform="translate(4.65 30.913)" fill="none" stroke="#fff" stroke-linecap="round" stroke-linejoin="round" stroke-width="1.57"/>
  <rect id="Rectángulo_4519" data-name="Rectángulo 4519" width="8.281" height="8.281" transform="translate(18.549 30.913)" fill="none" stroke="#fff" stroke-linecap="round" stroke-linejoin="round" stroke-width="1.57"/>
  <rect id="Rectángulo_4520" data-name="Rectángulo 4520" width="8.281" height="8.281" transform="translate(32.449 30.913)" fill="none" stroke="#fff" stroke-linecap="round" stroke-linejoin="round" stroke-width="1.57"/>
  <line id="Línea_2121" data-name="Línea 2121" x2="5.099" transform="translate(17.591 21.701)" fill="none" stroke="#fff" stroke-linecap="round" stroke-linejoin="round" stroke-width="1.57"/>
  <line id="Línea_2122" data-name="Línea 2122" y1="4.088" transform="translate(8.791 26.825)" fill="none" stroke="#fff" stroke-linecap="round" stroke-linejoin="round" stroke-width="1.57"/>
  <path id="Trazado_11510" data-name="Trazado 11510" d="M723.945,459.407v-4.088a5.125,5.125,0,0,0-5.125-5.124h-8.775" transform="translate(-687.355 -428.494)" fill="none" stroke="#fff" stroke-linecap="round" stroke-linejoin="round" stroke-width="1.57"/>
  <line id="Línea_2123" data-name="Línea 2123" y2="13.003" transform="translate(22.69 17.91)" fill="none" stroke="#fff" stroke-linecap="round" stroke-linejoin="round" stroke-width="1.57"/>
  <circle id="Elipse_2115" data-name="Elipse 2115" cx="3.056" cy="3.056" r="3.056" transform="translate(8.933 19.15)" fill="none" stroke="#fff" stroke-linecap="round" stroke-linejoin="round" stroke-width="1.57"/>
</svg>
