<svg xmlns="http://www.w3.org/2000/svg" width="34.114" height="36.224" viewBox="0 0 34.114 36.224">
  <g id="Grupo_17845" data-name="Grupo 17845" transform="translate(-9.034 -5.388)">
    <g id="Grupo_14696" data-name="Grupo 14696">
      <path id="Trazado_11669" data-name="Trazado 11669" d="M37.216,35.292v5.57H12.587V14.193" fill="none" stroke="#fff" stroke-linecap="round" stroke-linejoin="round" stroke-width="1.5"/>
      <path id="Trazado_11669-2" data-name="Trazado 11669" d="M17.331,7.945H31.588L37.216,14v5.587" fill="none" stroke="#fff" stroke-linecap="round" stroke-linejoin="round" stroke-width="1.5"/>
      <g id="Grupo_14695" data-name="Grupo 14695">
        <line id="Línea_2308" data-name="Línea 2308" x2="2.593" transform="translate(11.175 17.886)" fill="none" stroke="#fff" stroke-linecap="round" stroke-linejoin="round" stroke-width="1.5"/>
        <line id="Línea_2309" data-name="Línea 2309" x2="2.593" transform="translate(11.175 23.614)" fill="none" stroke="#fff" stroke-linecap="round" stroke-linejoin="round" stroke-width="1.5"/>
        <line id="Línea_2310" data-name="Línea 2310" x2="2.593" transform="translate(11.175 28.856)" fill="none" stroke="#fff" stroke-linecap="round" stroke-linejoin="round" stroke-width="1.5"/>
        <line id="Línea_2310-2" data-name="Línea 2310" x2="2.593" transform="translate(11.175 34.375)" fill="none" stroke="#fff" stroke-linecap="round" stroke-linejoin="round" stroke-width="1.5"/>
      </g>
      <path id="Trazado_11671" data-name="Trazado 11671" d="M24.382,36.4" fill="none" stroke="#fff" stroke-linecap="round" stroke-linejoin="round" stroke-width="1.5"/>
      <path id="Trazado_11671-2" data-name="Trazado 11671" d="M36.217,18.846" fill="none" stroke="#fff" stroke-linecap="round" stroke-linejoin="round" stroke-width="1.5"/>
      <circle id="Elipse_2132" data-name="Elipse 2132" cx="2.827" cy="2.827" r="2.827" transform="translate(9.784 6.138)" fill="none" stroke="#fff" stroke-linecap="round" stroke-linejoin="round" stroke-width="1.5"/>
    </g>
    <g id="Grupo_14697" data-name="Grupo 14697">
      <path id="Trazado_12370" data-name="Trazado 12370" d="M42.4,29.46V25.7H42.1a1.817,1.817,0,0,1-1.671-1.167l-.029-.071a1.91,1.91,0,0,1,.372-2.1l.168-.168-2.658-2.658-.168.168a1.905,1.905,0,0,1-2.1.372l-.072-.029a1.814,1.814,0,0,1-1.166-1.671v-.292h-3.76v.25a1.8,1.8,0,0,1-1.11,1.676c-.071.029-.141.059-.211.09a1.808,1.808,0,0,1-2.006-.385l-.179-.179-2.658,2.658.168.168a1.908,1.908,0,0,1,.372,2.1l-.029.071A1.816,1.816,0,0,1,23.7,25.7H23.4V29.46H23.7a1.815,1.815,0,0,1,1.671,1.166l.029.072a1.907,1.907,0,0,1-.372,2.1l-.168.168,2.658,2.659.168-.168a1.907,1.907,0,0,1,2.1-.373l.072.03a1.814,1.814,0,0,1,1.166,1.671v.292h3.76v-.292a1.814,1.814,0,0,1,1.166-1.671l.072-.03a1.907,1.907,0,0,1,2.1.373l.168.168,2.658-2.659-.168-.168a1.909,1.909,0,0,1-.372-2.1l.029-.072A1.816,1.816,0,0,1,42.1,29.46Z" fill="none" stroke="#fff" stroke-linecap="round" stroke-linejoin="round" stroke-width="1.5"/>
      <circle id="Elipse_2409" data-name="Elipse 2409" cx="4.725" cy="4.725" r="4.725" transform="translate(28.176 22.855)" fill="none" stroke="#fff" stroke-linecap="round" stroke-linejoin="round" stroke-width="1.5"/>
    </g>
  </g>
</svg>
