<?xml version="1.0" encoding="utf-8"?>
<!-- Generator: Adobe Illustrator 24.0.2, SVG Export Plug-In . SVG Version: 6.00 Build 0)  -->
<svg version="1.1" id="Capa_1" xmlns="http://www.w3.org/2000/svg" xmlns:xlink="http://www.w3.org/1999/xlink" x="0px" y="0px"
	 viewBox="0 0 65 65" style="enable-background:new 0 0 65 65;" xml:space="preserve">
<style type="text/css">
	.st0{display:none;}
	.st1{fill:none;}
	.st2{clip-path:url(#SVGID_2_);}
	.st3{fill:#4DA12E;}
	.st4{fill:#96D200;}
	.st5{fill:none;stroke:#95A6B1;stroke-width:1.6;stroke-linecap:round;stroke-linejoin:round;}
	.st6{fill:none;stroke:#19A500;stroke-width:1.6;stroke-linecap:round;stroke-linejoin:round;stroke-miterlimit:10;}
</style>
<g id="Capa_2_1_" class="st0">
</g>
<g id="Capa_1_1_">
	<g>
		<rect class="st1" width="65" height="65"/>
		<g>
			<defs>
				<rect id="SVGID_1_" y="48.26" width="65" height="16.74"/>
			</defs>
			<clipPath id="SVGID_2_">
				<use xlink:href="#SVGID_1_"  style="overflow:visible;"/>
			</clipPath>
			<g class="st2">
				<g>
					<rect y="48.26" class="st1" width="65" height="16.74"/>
				</g>
				<g>
					<g>
						<path class="st3" d="M45.38,61.32h-7.17c-0.66,0-1.2-0.54-1.2-1.2s0.54-1.2,1.2-1.2h7.17c0.66,0,1.2,0.54,1.2,1.2
							S46.04,61.32,45.38,61.32z"/>
					</g>
					<g>
						<path class="st3" d="M53.11,61.32h-0.58c-0.66,0-1.2-0.54-1.2-1.2s0.54-1.2,1.2-1.2h0.58c0.66,0,1.2,0.54,1.2,1.2
							S53.77,61.32,53.11,61.32z"/>
					</g>
					<g>
						<path class="st3" d="M18.99,61.32h-7.1c-0.66,0-1.2-0.54-1.2-1.2s0.54-1.2,1.2-1.2h7.1c0.66,0,1.2,0.54,1.2,1.2
							S19.65,61.32,18.99,61.32z"/>
					</g>
					<g>
						<path class="st4" d="M31.05,61.32H18.53c-0.66,0-1.2-0.54-1.2-1.2s0.54-1.2,1.2-1.2h12.52c0.66,0,1.2,0.54,1.2,1.2
							S31.71,61.32,31.05,61.32z"/>
					</g>
					<g>
						<path class="st4" d="M35.47,55.21H11.89c-0.66,0-1.2-0.54-1.2-1.2s0.54-1.2,1.2-1.2h23.58c0.66,0,1.2,0.54,1.2,1.2
							S36.13,55.21,35.47,55.21z"/>
					</g>
					<g>
						<path class="st3" d="M53.11,55.21H34.75c-0.66,0-1.2-0.54-1.2-1.2s0.54-1.2,1.2-1.2h18.36c0.66,0,1.2,0.54,1.2,1.2
							S53.77,55.21,53.11,55.21z"/>
					</g>
					<g>
						<path class="st3" d="M12.32,55.21h-0.43c-0.66,0-1.2-0.54-1.2-1.2s0.54-1.2,1.2-1.2h0.43c0.66,0,1.2,0.54,1.2,1.2
							S12.98,55.21,12.32,55.21z"/>
					</g>
				</g>
			</g>
		</g>
		<g>
			<path class="st5" d="M45.26,20.51H9.56c-2.9,0-5.25,5.85-5.25,13.07s2.35,13.07,5.25,13.07h45.88c2.9,0,5.25-5.85,5.25-13.07
				c0-3.86-0.67-7.33-1.74-9.72"/>
			<g>
				<path class="st5" d="M5.4,29.5c2.74,0,2.74,1.99,5.49,1.99s2.75-1.99,5.49-1.99c2.75,0,2.75,1.99,5.49,1.99
					c2.75,0,2.75-1.99,5.49-1.99c2.75,0,2.75,1.99,5.49,1.99c2.75,0,2.75-1.99,5.49-1.99c2.75,0,2.75,1.99,5.49,1.99
					c2.75,0,2.75-1.99,5.5-1.99s2.75,1.99,5.5,1.99s2.75-1.99,5.5-1.99"/>
			</g>
			<line class="st5" x1="4.31" y1="8.81" x2="60.34" y2="8.81"/>
			<polyline class="st5" points="11.6,20.51 11.6,17.41 24.13,17.41 24.13,20.51 			"/>
			<line class="st5" x1="16.1" y1="16.97" x2="16.1" y2="8.81"/>
			<line class="st5" x1="19.63" y1="16.97" x2="19.63" y2="8.81"/>
			<path class="st5" d="M30.16,20.51v-3.77c0-1.15,0.93-2.08,2.07-2.08h9.61c1.14,0,2.07-0.93,2.07-2.08V9.02"/>
		</g>
		<path id="Trazado_11848_3_" class="st6" d="M56.45,21.54c0,2.31-1.87,4.18-4.18,4.18s-4.18-1.87-4.18-4.18s1.87-4.18,4.18-4.18
			l0,0l0,0c2.3-0.01,4.17,1.85,4.18,4.15l0,0V21.54z"/>
	</g>
</g>
</svg>
