<?xml version="1.0" encoding="utf-8"?>
<!-- Generator: Adobe Illustrator 24.0.2, SVG Export Plug-In . SVG Version: 6.00 Build 0)  -->
<svg version="1.1" id="Capa_1" xmlns="http://www.w3.org/2000/svg" xmlns:xlink="http://www.w3.org/1999/xlink" x="0px" y="0px"
	 viewBox="0 0 65 65" style="enable-background:new 0 0 65 65;" xml:space="preserve">
<style type="text/css">
	.st0{display:none;}
	.st1{fill:none;stroke:#19A500;stroke-width:1.6;stroke-linecap:round;stroke-linejoin:round;stroke-miterlimit:10;}
	.st2{fill:none;stroke:#95A6B1;stroke-width:1.6;stroke-linecap:round;stroke-linejoin:round;}
	.st3{fill:none;stroke:#95A6B1;stroke-width:1.5;stroke-linecap:round;stroke-linejoin:round;}
	.st4{fill:none;}
	.st5{clip-path:url(#SVGID_2_);}
	.st6{fill:#4DA12E;}
	.st7{fill:#96D200;}
</style>
<g id="Capa_2_1_" class="st0">
</g>
<g id="Capa_1_1_">
	<g>
		<path id="Trazado_11848_1_" class="st1" d="M17.42,9.17c0,2.15-1.75,3.9-3.9,3.9s-3.9-1.75-3.9-3.9s1.75-3.9,3.9-3.9l0,0
			c2.14-0.01,3.89,1.72,3.9,3.87C17.42,9.15,17.42,9.16,17.42,9.17z"/>
		<g>
			<path id="Trazado_11852_1_" class="st2" d="M13.31,16.77v29.78h38.37V8.77H20.96"/>
			<line id="Línea_2421_1_" class="st2" x1="51.69" y1="8.77" x2="51.69" y2="12.85"/>
			<line id="Línea_2422_1_" class="st2" x1="23.82" y1="8.77" x2="23.82" y2="12.85"/>
			<line id="Línea_2423_1_" class="st2" x1="31.53" y1="8.77" x2="31.53" y2="12.85"/>
			<line id="Línea_2424_1_" class="st2" x1="43.09" y1="8.77" x2="43.09" y2="12.85"/>
			<line id="Línea_2425_1_" class="st2" x1="55" y1="12.94" x2="20.96" y2="12.94"/>
			<g>
				<line class="st2" x1="34.69" y1="30.44" x2="34.69" y2="46.49"/>
				<line class="st2" x1="43.16" y1="30.44" x2="43.16" y2="46.49"/>
				<g>
					<line class="st2" x1="13.31" y1="28.96" x2="34.66" y2="38.31"/>
				</g>
				<g>
					<line class="st2" x1="13.31" y1="21.08" x2="34.66" y2="30.44"/>
				</g>
				<g>
					<line class="st2" x1="34.69" y1="37.61" x2="43.1" y2="37.61"/>
					<line class="st2" x1="34.69" y1="42.16" x2="43.1" y2="42.16"/>
					<line class="st2" x1="34.69" y1="46.54" x2="43.1" y2="46.54"/>
				</g>
				<line class="st2" x1="17.3" y1="22.97" x2="17.3" y2="30.72"/>
				<line class="st2" x1="21.76" y1="24.83" x2="21.76" y2="32.58"/>
				<line class="st2" x1="26.22" y1="26.91" x2="26.22" y2="34.66"/>
				<line class="st2" x1="30.68" y1="28.69" x2="30.68" y2="36.43"/>
			</g>
		</g>
		<g>
			<line class="st2" x1="50.88" y1="18.67" x2="42.22" y2="18.67"/>
			<line class="st2" x1="39.46" y1="18.67" x2="38.3" y2="18.67"/>
		</g>
		<line class="st3" x1="10.32" y1="46.54" x2="55" y2="46.54"/>
		<rect class="st4" width="65" height="65"/>
		<g>
			<defs>
				<rect id="SVGID_1_" y="48.26" width="65" height="16.74"/>
			</defs>
			<clipPath id="SVGID_2_">
				<use xlink:href="#SVGID_1_"  style="overflow:visible;"/>
			</clipPath>
			<g class="st5">
				<g>
					<rect y="48.26" class="st4" width="65" height="16.74"/>
				</g>
				<g>
					<g>
						<path class="st6" d="M45.38,61.32h-7.17c-0.66,0-1.2-0.54-1.2-1.2s0.54-1.2,1.2-1.2h7.17c0.66,0,1.2,0.54,1.2,1.2
							S46.04,61.32,45.38,61.32z"/>
					</g>
					<g>
						<path class="st6" d="M53.11,61.32h-0.58c-0.66,0-1.2-0.54-1.2-1.2s0.54-1.2,1.2-1.2h0.58c0.66,0,1.2,0.54,1.2,1.2
							S53.77,61.32,53.11,61.32z"/>
					</g>
					<g>
						<path class="st6" d="M18.99,61.32h-7.1c-0.66,0-1.2-0.54-1.2-1.2s0.54-1.2,1.2-1.2h7.1c0.66,0,1.2,0.54,1.2,1.2
							S19.65,61.32,18.99,61.32z"/>
					</g>
					<g>
						<path class="st7" d="M31.05,61.32H18.53c-0.66,0-1.2-0.54-1.2-1.2s0.54-1.2,1.2-1.2h12.52c0.66,0,1.2,0.54,1.2,1.2
							S31.71,61.32,31.05,61.32z"/>
					</g>
					<g>
						<path class="st7" d="M35.47,55.21H11.89c-0.66,0-1.2-0.54-1.2-1.2s0.54-1.2,1.2-1.2h23.58c0.66,0,1.2,0.54,1.2,1.2
							S36.13,55.21,35.47,55.21z"/>
					</g>
					<g>
						<path class="st6" d="M53.11,55.21H34.75c-0.66,0-1.2-0.54-1.2-1.2s0.54-1.2,1.2-1.2h18.36c0.66,0,1.2,0.54,1.2,1.2
							S53.77,55.21,53.11,55.21z"/>
					</g>
					<g>
						<path class="st6" d="M12.32,55.21h-0.43c-0.66,0-1.2-0.54-1.2-1.2s0.54-1.2,1.2-1.2h0.43c0.66,0,1.2,0.54,1.2,1.2
							S12.98,55.21,12.32,55.21z"/>
					</g>
				</g>
			</g>
		</g>
	</g>
</g>
</svg>
