<?xml version="1.0" encoding="utf-8"?>
<!-- Generator: Adobe Illustrator 24.0.2, SVG Export Plug-In . SVG Version: 6.00 Build 0)  -->
<svg version="1.1" id="Capa_1" xmlns="http://www.w3.org/2000/svg" xmlns:xlink="http://www.w3.org/1999/xlink" x="0px" y="0px"
	 viewBox="0 0 121 65" style="enable-background:new 0 0 121 65;" xml:space="preserve">
<style type="text/css">
	.st0{display:none;}
	.st1{fill:none;}
	.st2{clip-path:url(#SVGID_2_);}
	.st3{fill:#4DA12E;}
	.st4{fill:#96D200;}
	.st5{fill:none;stroke:#93A4AF;stroke-width:1.8;stroke-linecap:round;stroke-linejoin:round;}
	.st6{fill:none;stroke:#95A3AD;stroke-width:1.8;stroke-linecap:round;stroke-linejoin:round;}
	.st7{fill:none;stroke:#19A500;stroke-width:1.8;stroke-linecap:round;stroke-linejoin:round;stroke-miterlimit:10;}
</style>
<g id="Capa_2_1_" class="st0">
</g>
<g id="Capa_1_1_">
	<g>
		<rect class="st1" width="121" height="65"/>
		<g>
			<defs>
				<rect id="SVGID_1_" x="28" y="48.26" width="65" height="16.74"/>
			</defs>
			<clipPath id="SVGID_2_">
				<use xlink:href="#SVGID_1_"  style="overflow:visible;"/>
			</clipPath>
			<g class="st2">
				<g>
					<rect x="28" y="48.26" class="st1" width="65" height="16.74"/>
				</g>
				<g>
					<g>
						<path class="st3" d="M73.38,61.32h-7.17c-0.66,0-1.2-0.54-1.2-1.2s0.54-1.2,1.2-1.2h7.17c0.66,0,1.2,0.54,1.2,1.2
							S74.04,61.32,73.38,61.32z"/>
					</g>
					<g>
						<path class="st3" d="M81.11,61.32h-0.58c-0.66,0-1.2-0.54-1.2-1.2s0.54-1.2,1.2-1.2h0.58c0.66,0,1.2,0.54,1.2,1.2
							S81.77,61.32,81.11,61.32z"/>
					</g>
					<g>
						<path class="st3" d="M46.99,61.32h-7.1c-0.66,0-1.2-0.54-1.2-1.2s0.54-1.2,1.2-1.2h7.1c0.66,0,1.2,0.54,1.2,1.2
							S47.65,61.32,46.99,61.32z"/>
					</g>
					<g>
						<path class="st4" d="M59.05,61.32H46.53c-0.66,0-1.2-0.54-1.2-1.2s0.54-1.2,1.2-1.2h12.52c0.66,0,1.2,0.54,1.2,1.2
							S59.71,61.32,59.05,61.32z"/>
					</g>
					<g>
						<path class="st4" d="M63.47,55.21H39.89c-0.66,0-1.2-0.54-1.2-1.2s0.54-1.2,1.2-1.2h23.58c0.66,0,1.2,0.54,1.2,1.2
							S64.13,55.21,63.47,55.21z"/>
					</g>
					<g>
						<path class="st3" d="M81.11,55.21H62.75c-0.66,0-1.2-0.54-1.2-1.2s0.54-1.2,1.2-1.2h18.36c0.66,0,1.2,0.54,1.2,1.2
							S81.77,55.21,81.11,55.21z"/>
					</g>
					<g>
						<path class="st3" d="M40.32,55.21h-0.43c-0.66,0-1.2-0.54-1.2-1.2s0.54-1.2,1.2-1.2h0.43c0.66,0,1.2,0.54,1.2,1.2
							S40.98,55.21,40.32,55.21z"/>
					</g>
				</g>
			</g>
		</g>
		<g>
			<g id="Grupo_13591_3_">
				<g id="Grupo_13590_3_">
					<rect id="Rectángulo_4762_3_" x="15.26" y="38.23" class="st5" width="5.67" height="10.02"/>
					<rect id="Rectángulo_4763_3_" x="9.13" y="41.58" class="st5" width="6.12" height="3.31"/>
					<path id="Trazado_11867_3_" class="st5" d="M107.64,17.98l4.22-4.96"/>
					<path id="Trazado_11867_4_" class="st5" d="M111.87,23.36L94.69,42.45l-0.54,0.54c-2.07,2.07-4.5,3.33-7.42,3.33h-65.8v-6.15
						h60.03l3.82-0.05c2.01-0.02,3.93-0.83,5.35-2.24l7.41-8.04l2.05-2.41"/>
				</g>
			</g>
			<g>
				<path id="Trazado_11837_2_" class="st5" d="M73.99,23.52V30h10.05v-6.48H73.99"/>
				<line id="Línea_2401_2_" class="st5" x1="79.01" y1="23.52" x2="79.01" y2="19.56"/>
				<line id="Línea_2402_2_" class="st5" x1="76.45" y1="19.56" x2="81.78" y2="19.56"/>
				<line id="Línea_2403_2_" class="st5" x1="77.41" y1="26.75" x2="84.04" y2="26.75"/>
			</g>
			<line class="st5" x1="9.13" y1="29.99" x2="97.15" y2="29.99"/>
			<line class="st5" x1="77.4" y1="29.99" x2="77.4" y2="40.16"/>
			<line class="st5" x1="81.18" y1="29.99" x2="81.18" y2="40.16"/>
			<path id="Trazado_12652_1_" class="st6" d="M59.69,15.29c2,0,3.62,2.62,3.62,4.62v1.31c0,2-1.62,4.62-3.62,4.62H44.6
				c-2,0-3.62-1.62-3.62-3.62l0,0v-3.31c0-2,1.62-3.62,3.62-3.62l0,0C44.6,15.29,59.69,15.29,59.69,15.29z"/>
			<line id="Línea_3013_1_" class="st6" x1="48.94" y1="25.78" x2="48.94" y2="15.38"/>
			<line id="Línea_3014_1_" class="st6" x1="55.01" y1="25.78" x2="55.01" y2="15.38"/>
			<polyline class="st5" points="18.03,29.99 18.03,3.88 34.96,3.88 34.96,29.99 			"/>
			<line class="st5" x1="18.03" y1="3.88" x2="18.03" y2="8.67"/>
			<line class="st5" x1="23.67" y1="3.88" x2="23.67" y2="8.67"/>
			<line class="st5" x1="29.32" y1="3.88" x2="29.32" y2="8.67"/>
			<line class="st5" x1="34.96" y1="8.71" x2="34.96" y2="3.88"/>
			<line class="st5" x1="15.9" y1="8.73" x2="37.08" y2="8.73"/>
			<line class="st5" x1="35.17" y1="20.16" x2="40.85" y2="20.16"/>
			<polyline class="st5" points="18.03,29.99 18.03,3.88 34.96,3.88 34.96,29.99 			"/>
			<line class="st5" x1="18.03" y1="3.88" x2="18.03" y2="8.67"/>
			<line class="st5" x1="23.67" y1="3.88" x2="23.67" y2="8.67"/>
			<line class="st5" x1="29.32" y1="3.88" x2="29.32" y2="8.67"/>
			<line class="st5" x1="34.96" y1="8.71" x2="34.96" y2="3.88"/>
			<line class="st5" x1="15.9" y1="8.73" x2="37.08" y2="8.73"/>
			<path class="st5" d="M18.06,13.33c1.41-1.02,4.35-1.55,6.71-0.55s7.56,1.87,10.2-0.53"/>
			<line class="st5" x1="18.14" y1="19.64" x2="28.3" y2="19.64"/>
			<line id="Línea_3013_2_" class="st6" x1="43.94" y1="29.78" x2="43.94" y2="26.38"/>
			<line id="Línea_3014_2_" class="st6" x1="60.01" y1="29.78" x2="60.01" y2="26.38"/>
			<path id="Trazado_11847_2_" class="st7" d="M106.4,21.1c0.82,1.79,0.03,3.9-1.76,4.72s-3.9,0.03-4.72-1.76
				c-0.82-1.79-0.03-3.9,1.76-4.72c1.78-0.82,3.89-0.04,4.71,1.74C106.4,21.09,106.4,21.09,106.4,21.1z"/>
		</g>
	</g>
</g>
</svg>
