<?xml version="1.0" encoding="utf-8"?>
<!-- Generator: Adobe Illustrator 24.0.2, SVG Export Plug-In . SVG Version: 6.00 Build 0)  -->
<svg version="1.1" id="Capa_1" xmlns="http://www.w3.org/2000/svg" xmlns:xlink="http://www.w3.org/1999/xlink" x="0px" y="0px"
	 viewBox="0 0 65 65" style="enable-background:new 0 0 65 65;" xml:space="preserve">
<style type="text/css">
	.st0{display:none;}
	.st1{fill:none;}
	.st2{clip-path:url(#SVGID_2_);}
	.st3{fill:#4DA12E;}
	.st4{fill:#96D200;}
	.st5{fill:none;stroke:#19A500;stroke-width:1.6;stroke-linecap:round;stroke-linejoin:round;stroke-miterlimit:10;}
	.st6{fill:none;stroke:#95A6B1;stroke-width:1.6;stroke-linecap:round;stroke-linejoin:round;}
</style>
<g id="Capa_2_1_" class="st0">
</g>
<g id="Capa_1_1_">
	<g>
		<rect class="st1" width="65" height="65"/>
		<g>
			<g>
				<defs>
					<rect id="SVGID_1_" y="48.26" width="65" height="16.74"/>
				</defs>
				<clipPath id="SVGID_2_">
					<use xlink:href="#SVGID_1_"  style="overflow:visible;"/>
				</clipPath>
				<g class="st2">
					<g>
						<rect y="48.26" class="st1" width="65" height="16.74"/>
					</g>
					<g>
						<g>
							<path class="st3" d="M45.38,61.32h-7.17c-0.66,0-1.2-0.54-1.2-1.2s0.54-1.2,1.2-1.2h7.17c0.66,0,1.2,0.54,1.2,1.2
								S46.04,61.32,45.38,61.32z"/>
						</g>
						<g>
							<path class="st3" d="M53.11,61.32h-0.58c-0.66,0-1.2-0.54-1.2-1.2s0.54-1.2,1.2-1.2h0.58c0.66,0,1.2,0.54,1.2,1.2
								S53.77,61.32,53.11,61.32z"/>
						</g>
						<g>
							<path class="st3" d="M18.99,61.32h-7.1c-0.66,0-1.2-0.54-1.2-1.2s0.54-1.2,1.2-1.2h7.1c0.66,0,1.2,0.54,1.2,1.2
								S19.65,61.32,18.99,61.32z"/>
						</g>
						<g>
							<path class="st4" d="M31.05,61.32H18.53c-0.66,0-1.2-0.54-1.2-1.2s0.54-1.2,1.2-1.2h12.52c0.66,0,1.2,0.54,1.2,1.2
								S31.71,61.32,31.05,61.32z"/>
						</g>
						<g>
							<path class="st4" d="M35.47,55.21H11.89c-0.66,0-1.2-0.54-1.2-1.2s0.54-1.2,1.2-1.2h23.58c0.66,0,1.2,0.54,1.2,1.2
								S36.13,55.21,35.47,55.21z"/>
						</g>
						<g>
							<path class="st3" d="M53.11,55.21H34.75c-0.66,0-1.2-0.54-1.2-1.2s0.54-1.2,1.2-1.2h18.36c0.66,0,1.2,0.54,1.2,1.2
								S53.77,55.21,53.11,55.21z"/>
						</g>
						<g>
							<path class="st3" d="M12.32,55.21h-0.43c-0.66,0-1.2-0.54-1.2-1.2s0.54-1.2,1.2-1.2h0.43c0.66,0,1.2,0.54,1.2,1.2
								S12.98,55.21,12.32,55.21z"/>
						</g>
					</g>
				</g>
			</g>
		</g>
		<g id="Grupo_14731_1_">
			<path id="Trazado_11848_2_" class="st5" d="M16.31,13.54c0,2.31-1.87,4.18-4.18,4.18s-4.18-1.87-4.18-4.18s1.87-4.18,4.18-4.18
				l0,0l0,0c2.3-0.01,4.17,1.85,4.18,4.15l0,0V13.54z"/>
			<path id="Trazado_11852_3_" class="st6" d="M11.91,21.69v25.95h41.18V13.1H20.12"/>
			<line id="Línea_2421_3_" class="st6" x1="53.09" y1="13.1" x2="53.09" y2="17.49"/>
			<line id="Línea_2422_3_" class="st6" x1="23.19" y1="13.1" x2="23.19" y2="17.49"/>
			<line id="Línea_2423_3_" class="st6" x1="31.46" y1="13.1" x2="31.46" y2="17.49"/>
			<line id="Línea_2424_3_" class="st6" x1="43.86" y1="13.1" x2="43.86" y2="17.49"/>
			<line id="Línea_2425_3_" class="st6" x1="56.64" y1="17.58" x2="20.12" y2="17.58"/>
			<line id="Línea_2751_1_" class="st6" x1="52.22" y1="27.78" x2="42.93" y2="27.78"/>
			<line id="Línea_2752_1_" class="st6" x1="21.2" y1="36.03" x2="11.91" y2="36.03"/>
			<line id="Línea_2753_1_" class="st6" x1="39.97" y1="27.78" x2="38.72" y2="27.78"/>
			<line id="Línea_2754_1_" class="st6" x1="7.57" y1="47.65" x2="57.43" y2="47.65"/>
		</g>
	</g>
</g>
</svg>
