<?xml version="1.0" encoding="utf-8"?>
<!-- Generator: Adobe Illustrator 24.0.2, SVG Export Plug-In . SVG Version: 6.00 Build 0)  -->
<svg version="1.1" id="Capa_1" xmlns="http://www.w3.org/2000/svg" xmlns:xlink="http://www.w3.org/1999/xlink" x="0px" y="0px"
	 viewBox="0 0 65 65" style="enable-background:new 0 0 65 65;" xml:space="preserve">
<style type="text/css">
	.st0{fill:#FFFFFF;}
	.st1{fill:none;}
	.st2{fill:#95A6B1;}
	.st3{fill:#4DA12E;}
	.st4{fill:#96D200;}
	.st5{fill:#4C9F2E;}
	.st6{fill:#94D040;}
	.st7{fill:#00A800;}
	.st8{fill:#19A500;}
	.st9{fill:none;stroke:#95A6B1;stroke-width:1.6;stroke-linecap:round;stroke-linejoin:round;}
</style>
<g>
	<g id="Grupo_13216_2_" transform="translate(0.246 0.246)">
		<g id="Rectángulo_3799_2_">
			<rect x="-0.25" y="-0.25" class="st1" width="65" height="65"/>
		</g>
	</g>
	<g id="Rectángulo_3799-2_2_">
		<rect class="st1" width="65" height="65"/>
	</g>
	<g id="Grupo_13713" transform="translate(52.108 -34.359)">
		<g id="Grupo_13383" transform="translate(300.476 38.105)">
			<g id="Trazado_11778">
				<path class="st2" d="M-316.75,45.03h-11.28c-4.36,0-7.9-3.54-7.9-7.9V10.44c0-0.44,0.36-0.8,0.8-0.8s0.8,0.36,0.8,0.8v26.69
					c0,3.47,2.83,6.3,6.3,6.3l24.1-0.03V4h-24.15c-0.44,0-0.8-0.36-0.8-0.8s0.36-0.8,0.8-0.8h24.95c0.44,0,0.8,0.36,0.8,0.8v41
					c0,0.44-0.36,0.8-0.8,0.8L-316.75,45.03z"/>
			</g>
		</g>
		<g id="Grupo_13384" transform="translate(321.843 45.57)">
			<g id="Trazado_6132_1_">
				<path class="st2" d="M-336.63,13.91c-0.32,0-0.62-0.19-0.74-0.5c-0.07-0.17-1.69-4.24,0-7.48c1.69-3.24,5.95-4.24,6.13-4.28
					c0.38-0.08,0.77,0.12,0.92,0.48c0.07,0.17,1.69,4.24,0,7.48l0,0c-1.69,3.24-5.95,4.24-6.13,4.28
					C-336.52,13.9-336.58,13.91-336.63,13.91z M-331.58,3.41c-1.14,0.39-3.39,1.36-4.38,3.25s-0.5,4.29-0.16,5.45
					c1.14-0.39,3.39-1.36,4.38-3.25v0C-330.75,6.98-331.25,4.57-331.58,3.41z"/>
			</g>
			<g id="Línea_1426_1_">
				<path class="st2" d="M-336.64,13.91c-0.12,0-0.25-0.03-0.37-0.09c-0.39-0.2-0.54-0.69-0.34-1.08l2.78-5.34
					c0.2-0.39,0.69-0.54,1.08-0.34c0.39,0.2,0.54,0.69,0.34,1.08l-2.78,5.34C-336.07,13.75-336.35,13.91-336.64,13.91z"/>
			</g>
		</g>
		<g id="Grupo_13385" transform="translate(307.753 53.258)">
			<g id="Elipse_2272">
				<path class="st2" d="M-326.41,16.34c-2.5,0-4.54-2.04-4.54-4.54s2.04-4.54,4.54-4.54c2.5,0,4.54,2.04,4.54,4.54
					S-323.91,16.34-326.41,16.34z M-326.41,8.86c-1.62,0-2.94,1.32-2.94,2.94s1.32,2.94,2.94,2.94s2.94-1.32,2.94-2.94
					S-324.79,8.86-326.41,8.86z"/>
			</g>
			<g id="Trazado_11779">
				<path class="st2" d="M-326.41,22.76c-0.57,0-1.14-0.05-1.7-0.15c-0.26-0.05-0.49-0.22-0.6-0.47l-1.04-2.35
					c-0.33-0.75-1.12-1.2-1.92-1.11l-2.57,0.28c-0.27,0.03-0.54-0.08-0.71-0.29c-0.71-0.89-1.28-1.87-1.69-2.93
					c-0.1-0.25-0.06-0.54,0.1-0.76l1.52-2.08c0.49-0.66,0.49-1.55,0-2.22l-1.52-2.08c-0.16-0.22-0.2-0.51-0.1-0.76
					c0.41-1.06,0.97-2.04,1.69-2.93c0.17-0.21,0.43-0.32,0.71-0.29l2.57,0.28c0.81,0.09,1.59-0.36,1.92-1.11l1.04-2.35
					c0.11-0.25,0.34-0.43,0.61-0.47c0.55-0.08,1.11-0.13,1.67-0.14c0.59,0,1.16,0.05,1.71,0.14c0.27,0.04,0.49,0.22,0.6,0.47
					l1.04,2.35c0.33,0.75,1.09,1.2,1.92,1.11l2.57-0.28c0.28-0.02,0.54,0.08,0.71,0.29c0.71,0.88,1.28,1.87,1.69,2.93
					c0.1,0.25,0.06,0.54-0.1,0.76l-1.52,2.08c-0.49,0.66-0.49,1.55,0,2.22l1.52,2.08c0.16,0.22,0.2,0.51,0.1,0.76
					c-0.41,1.06-0.98,2.05-1.69,2.93c-0.17,0.21-0.44,0.32-0.71,0.29l-2.57-0.28c-0.83-0.1-1.59,0.36-1.92,1.11l-1.04,2.35
					c-0.11,0.25-0.33,0.42-0.6,0.47C-325.27,22.72-325.84,22.76-326.41,22.76z M-327.42,21.1c0.68,0.08,1.35,0.08,2.03,0l0.86-1.95
					c0.61-1.39,2.03-2.22,3.56-2.05l2.12,0.23c0.4-0.55,0.74-1.14,1.01-1.76l-1.26-1.72c-0.9-1.23-0.9-2.88,0-4.11l1.26-1.72
					c-0.27-0.62-0.61-1.21-1.02-1.76l-2.12,0.23c-1.51,0.16-2.94-0.66-3.56-2.06l-0.86-1.95c-0.34-0.04-0.68-0.06-1.02-0.06
					c-0.33,0.01-0.67,0.03-1.01,0.07l-0.85,1.94c-0.61,1.39-2.03,2.22-3.56,2.06l-2.12-0.23c-0.4,0.55-0.74,1.14-1.01,1.76
					l1.26,1.72c0.9,1.23,0.9,2.88,0,4.11l-1.26,1.72c0.27,0.62,0.61,1.21,1.01,1.76l2.12-0.23c1.5-0.16,2.94,0.66,3.56,2.05
					L-327.42,21.1z"/>
			</g>
		</g>
	</g>
	<g>
		<g>
			<g>
				<rect y="48.26" class="st1" width="65" height="16.74"/>
			</g>
			<g>
				<g>
					<path class="st3" d="M45.38,61.32h-7.17c-0.66,0-1.2-0.54-1.2-1.2s0.54-1.2,1.2-1.2h7.17c0.66,0,1.2,0.54,1.2,1.2
						S46.04,61.32,45.38,61.32z"/>
				</g>
				<g>
					<path class="st3" d="M53.11,61.32h-0.58c-0.66,0-1.2-0.54-1.2-1.2s0.54-1.2,1.2-1.2h0.58c0.66,0,1.2,0.54,1.2,1.2
						S53.77,61.32,53.11,61.32z"/>
				</g>
				<g>
					<path class="st3" d="M18.99,61.32h-7.1c-0.66,0-1.2-0.54-1.2-1.2s0.54-1.2,1.2-1.2h7.1c0.66,0,1.2,0.54,1.2,1.2
						S19.66,61.32,18.99,61.32z"/>
				</g>
				<g>
					<path class="st4" d="M31.05,61.32H18.53c-0.66,0-1.2-0.54-1.2-1.2s0.54-1.2,1.2-1.2h12.52c0.66,0,1.2,0.54,1.2,1.2
						S31.71,61.32,31.05,61.32z"/>
				</g>
				<g>
					<path class="st4" d="M35.47,55.21H11.89c-0.66,0-1.2-0.54-1.2-1.2s0.54-1.2,1.2-1.2h23.58c0.66,0,1.2,0.54,1.2,1.2
						S36.14,55.21,35.47,55.21z"/>
				</g>
				<g>
					<path class="st3" d="M53.11,55.21H34.75c-0.66,0-1.2-0.54-1.2-1.2s0.54-1.2,1.2-1.2h18.36c0.66,0,1.2,0.54,1.2,1.2
						S53.77,55.21,53.11,55.21z"/>
				</g>
				<g>
					<path class="st3" d="M12.32,55.21h-0.43c-0.66,0-1.2-0.54-1.2-1.2s0.54-1.2,1.2-1.2h0.43c0.66,0,1.2,0.54,1.2,1.2
						S12.98,55.21,12.32,55.21z"/>
				</g>
			</g>
		</g>
	</g>
</g>
<g id="Trazado_11848_2_">
	<path class="st7" d="M17.45,11.87c-2.75,0-4.98-2.24-4.98-4.98s2.24-4.98,4.98-4.98c0.01,0,0.01,0,0.02,0
		c2.73,0,4.95,2.22,4.96,4.95c0,0,0,0.03,0,0.04C22.43,9.64,20.2,11.87,17.45,11.87z M17.46,3.51c0,0-0.01,0-0.01,0
		c-1.87,0-3.39,1.52-3.39,3.38s1.52,3.38,3.38,3.38s3.38-1.52,3.38-3.38V6.86C20.82,5.01,19.31,3.51,17.46,3.51z"/>
</g>
</svg>
