<?xml version="1.0" encoding="utf-8"?>
<!-- Generator: Adobe Illustrator 24.0.2, SVG Export Plug-In . SVG Version: 6.00 Build 0)  -->
<svg version="1.1" id="Capa_1" xmlns="http://www.w3.org/2000/svg" xmlns:xlink="http://www.w3.org/1999/xlink" x="0px" y="0px"
	 viewBox="0 0 65 65" style="enable-background:new 0 0 65 65;" xml:space="preserve">
<style type="text/css">
	.st0{fill:#FFFFFF;}
	.st1{fill:none;}
	.st2{fill:#95A6B1;}
	.st3{fill:#4DA12E;}
	.st4{fill:#96D200;}
	.st5{fill:#4C9F2E;}
	.st6{fill:#94D040;}
	.st7{fill:#00A800;}
	.st8{fill:#19A500;}
	.st9{fill:none;stroke:#95A6B1;stroke-width:1.6;stroke-linecap:round;stroke-linejoin:round;}
</style>
<g>
	<g id="Trazado_11999_2_">
		<path class="st2" d="M45.54,49.25c-2.06,0-4.13-0.57-5.52-1.71c-2.18-1.79-6.8-1.79-8.99,0c-2.78,2.28-8.24,2.28-11.02,0
			c-2.23-1.83-6.76-1.83-8.99,0c-0.34,0.28-0.84,0.23-1.13-0.11c-0.28-0.34-0.23-0.85,0.11-1.13c2.78-2.28,8.24-2.28,11.02,0
			c2.22,1.82,6.76,1.82,8.99,0c2.78-2.28,8.24-2.28,11.02,0c2.22,1.82,6.76,1.82,8.99,0c1.62-1.18,3.58-1.78,5.53-1.72
			c0.44,0.01,0.79,0.38,0.77,0.83c-0.02,0.44-0.39,0.77-0.83,0.77c-1.6-0.06-3.21,0.44-4.5,1.38
			C49.63,48.69,47.59,49.25,45.54,49.25z"/>
	</g>
	<g>
		<path class="st2" d="M45.54,42.8c-2.06,0-4.13-0.57-5.52-1.71c-0.75-0.62-1.84-1.06-3.09-1.25c-0.44-0.07-0.74-0.47-0.67-0.91
			c0.07-0.44,0.48-0.73,0.91-0.67c1.54,0.23,2.88,0.79,3.86,1.59c2.22,1.82,6.76,1.82,8.99,0c1.62-1.19,3.58-1.79,5.54-1.72
			c0.44,0.01,0.79,0.38,0.77,0.83c-0.02,0.44-0.34,0.79-0.83,0.77c-1.59-0.05-3.2,0.44-4.5,1.39C49.63,42.23,47.59,42.8,45.54,42.8z
			"/>
	</g>
	<g>
		<path class="st2" d="M25.52,42.8c-2.06,0-4.12-0.57-5.5-1.71c-2.23-1.83-6.77-1.83-8.99,0c-0.34,0.28-0.85,0.23-1.13-0.11
			c-0.28-0.34-0.23-0.85,0.11-1.13c2.78-2.28,8.24-2.28,11.02,0c2.18,1.79,6.79,1.79,8.98,0c0.01-0.01,0.01-0.01,0.02-0.02
			c0.05-0.04,0.12-0.09,0.17-0.12c0.39-0.2,0.87-0.05,1.08,0.35c0.18,0.35,0.08,0.77-0.23,1c-0.01,0.01-0.02,0.01-0.03,0.02l0,0
			C29.63,42.23,27.57,42.8,25.52,42.8z"/>
	</g>
	<g id="Línea_2518_2_">
		<path class="st2" d="M33.81,46.34c-0.44,0-0.8-0.36-0.8-0.8v-1.81c0-0.44,0.36-0.8,0.8-0.8s0.8,0.36,0.8,0.8v1.81
			C34.61,45.98,34.25,46.34,33.81,46.34z M33.81,41.82c-0.44,0-0.8-0.36-0.8-0.8v-1.81c0-0.44,0.36-0.8,0.8-0.8s0.8,0.36,0.8,0.8
			v1.81C34.61,41.46,34.25,41.82,33.81,41.82z M33.81,37.31c-0.44,0-0.8-0.36-0.8-0.8V34.7c0-0.44,0.36-0.8,0.8-0.8
			s0.8,0.36,0.8,0.8v1.81C34.61,36.95,34.25,37.31,33.81,37.31z M33.81,32.79c-0.44,0-0.8-0.36-0.8-0.8v-1.81
			c0-0.44,0.36-0.8,0.8-0.8s0.8,0.36,0.8,0.8V32C34.61,32.44,34.25,32.79,33.81,32.79z M33.81,28.28c-0.44,0-0.8-0.36-0.8-0.8v-1.81
			c0-0.44,0.36-0.8,0.8-0.8s0.8,0.36,0.8,0.8v1.81C34.61,27.92,34.25,28.28,33.81,28.28z M33.81,23.77c-0.44,0-0.8-0.36-0.8-0.8
			v-1.81c0-0.44,0.36-0.8,0.8-0.8s0.8,0.36,0.8,0.8v1.81C34.61,23.41,34.25,23.77,33.81,23.77z M33.81,19.25
			c-0.44,0-0.8-0.36-0.8-0.8v-1.81c0-0.44,0.36-0.8,0.8-0.8s0.8,0.36,0.8,0.8v1.81C34.61,18.9,34.25,19.25,33.81,19.25z
			 M33.81,14.74c-0.44,0-0.8-0.36-0.8-0.8v-1.81c0-0.44,0.36-0.8,0.8-0.8s0.8,0.36,0.8,0.8v1.81
			C34.61,14.38,34.25,14.74,33.81,14.74z M33.81,10.23c-0.44,0-0.8-0.36-0.8-0.8V7.62c0-0.44,0.36-0.8,0.8-0.8s0.8,0.36,0.8,0.8
			v1.81C34.61,9.87,34.25,10.23,33.81,10.23z M33.81,5.71c-0.44,0-0.8-0.36-0.8-0.8V3.11c0-0.44,0.36-0.8,0.8-0.8s0.8,0.36,0.8,0.8
			v1.81C34.61,5.35,34.25,5.71,33.81,5.71z"/>
	</g>
	<g id="Trazado_12004_3_">
		<path class="st2" d="M50.61,33.2H17c-2.9,0-5.25-2.36-5.25-5.25v-2.09c0-0.44,0.36-0.8,0.8-0.8s0.8,0.36,0.8,0.8v2.09
			c0,2.01,1.64,3.65,3.65,3.65h33.61c2.01,0,3.65-1.64,3.65-3.65v-8.85H19.28c-0.44,0-0.8-0.36-0.8-0.8s0.36-0.8,0.8-0.8h35.78
			c0.44,0,0.8,0.36,0.8,0.8v9.65C55.87,30.85,53.51,33.2,50.61,33.2z"/>
	</g>
	<g>
		<g id="Línea_2519_5_">
			<path class="st2" d="M30.57,47.26c-0.44,0-0.8-0.36-0.8-0.8V32.73c0-0.44,0.36-0.8,0.8-0.8s0.8,0.36,0.8,0.8v13.73
				C31.37,46.9,31.01,47.26,30.57,47.26z"/>
		</g>
		<g id="Línea_2519_4_">
			<path class="st2" d="M37.05,46.11c-0.44,0-0.8-0.36-0.8-0.8V32.73c0-0.44,0.36-0.8,0.8-0.8s0.8,0.36,0.8,0.8v12.58
				C37.85,45.75,37.49,46.11,37.05,46.11z"/>
		</g>
	</g>
	<g id="Trazado_11848_7_">
		<path class="st7" d="M13.01,23.59c-2.4,0-4.35-1.95-4.35-4.35c0-2.4,1.95-4.35,4.35-4.35c0.01,0,0.01,0,0.02,0
			c1.15,0,2.23,0.45,3.05,1.26c0.82,0.82,1.28,1.9,1.28,3.06c0,0,0,0.03,0,0.03C17.36,21.64,15.41,23.59,13.01,23.59z M13.03,16.5
			c0,0-0.01,0-0.01,0c-1.52,0-2.75,1.23-2.75,2.75c0,1.52,1.23,2.75,2.75,2.75c1.51,0,2.75-1.23,2.75-2.75v-0.02
			c0-0.73-0.29-1.41-0.81-1.93C14.44,16.78,13.75,16.5,13.03,16.5z"/>
	</g>
	<g>
		<path class="st2" d="M33.81,23.66c-0.44,0-0.8-0.36-0.8-0.8c0-0.63,0.04-1.27,0.11-1.89c0.05-0.44,0.46-0.75,0.88-0.71
			c0.44,0.05,0.75,0.45,0.71,0.88c-0.06,0.57-0.1,1.14-0.1,1.71C34.61,23.3,34.25,23.66,33.81,23.66z M34.44,19.21
			c-0.07,0-0.15-0.01-0.23-0.03c-0.42-0.12-0.67-0.57-0.54-0.99c0.18-0.6,0.39-1.21,0.64-1.79c0.17-0.41,0.64-0.6,1.05-0.42
			c0.41,0.17,0.6,0.64,0.42,1.05c-0.22,0.52-0.42,1.07-0.58,1.61C35.11,18.98,34.79,19.21,34.44,19.21z M36.32,15.12
			c-0.15,0-0.3-0.04-0.43-0.13c-0.37-0.24-0.48-0.73-0.24-1.11c0.34-0.53,0.72-1.04,1.12-1.53c0.28-0.34,0.78-0.39,1.13-0.11
			c0.34,0.28,0.39,0.79,0.11,1.13c-0.36,0.44-0.7,0.9-1.01,1.38C36.84,14.99,36.58,15.12,36.32,15.12z M39.27,11.73
			c-0.22,0-0.45-0.09-0.61-0.28c-0.29-0.33-0.25-0.84,0.08-1.13c0.48-0.41,0.98-0.8,1.5-1.15c0.36-0.25,0.86-0.16,1.11,0.21
			c0.25,0.37,0.15,0.86-0.21,1.11c-0.47,0.32-0.93,0.67-1.36,1.04C39.65,11.66,39.46,11.73,39.27,11.73z M43.06,9.3
			c-0.3,0-0.6-0.17-0.73-0.47c-0.18-0.4,0-0.88,0.4-1.06c0.57-0.26,1.17-0.49,1.77-0.68c0.42-0.13,0.87,0.1,1.01,0.52
			c0.14,0.42-0.1,0.87-0.52,1.01c-0.54,0.17-1.08,0.38-1.6,0.62C43.28,9.28,43.17,9.3,43.06,9.3z M47.38,8.05
			c-0.39,0-0.74-0.29-0.79-0.69c-0.06-0.44,0.25-0.84,0.68-0.9c0.62-0.09,1.26-0.14,1.89-0.15c0.41-0.01,0.81,0.34,0.82,0.78
			c0.01,0.44-0.34,0.81-0.78,0.82c-0.57,0.01-1.15,0.06-1.71,0.14C47.45,8.05,47.42,8.05,47.38,8.05z"/>
	</g>
	<g>
		<path class="st2" d="M33.81,23.66c-0.44,0-0.8-0.36-0.8-0.8c0-0.57-0.03-1.15-0.1-1.71c-0.05-0.44,0.27-0.83,0.71-0.88
			c0.44-0.04,0.84,0.27,0.88,0.71c0.07,0.62,0.11,1.26,0.11,1.89C34.61,23.3,34.25,23.66,33.81,23.66z M33.17,19.21
			c-0.35,0-0.66-0.23-0.77-0.57c-0.16-0.55-0.35-1.09-0.58-1.61c-0.17-0.41,0.02-0.88,0.42-1.05c0.41-0.17,0.88,0.02,1.05,0.42
			c0.25,0.58,0.46,1.18,0.64,1.79c0.12,0.42-0.12,0.87-0.54,0.99C33.32,19.2,33.24,19.21,33.17,19.21z M31.29,15.12
			c-0.26,0-0.52-0.13-0.67-0.37c-0.31-0.48-0.65-0.94-1.01-1.38c-0.28-0.34-0.23-0.85,0.11-1.13c0.34-0.28,0.85-0.23,1.13,0.11
			c0.4,0.49,0.78,1,1.12,1.53c0.24,0.37,0.13,0.87-0.24,1.11C31.59,15.08,31.44,15.12,31.29,15.12z M28.34,11.73
			c-0.19,0-0.37-0.06-0.52-0.19c-0.43-0.37-0.89-0.72-1.36-1.04c-0.37-0.25-0.46-0.75-0.21-1.11c0.25-0.37,0.75-0.46,1.11-0.21
			c0.52,0.35,1.02,0.74,1.5,1.15c0.33,0.29,0.37,0.79,0.08,1.13C28.79,11.63,28.56,11.73,28.34,11.73z M24.55,9.3
			c-0.11,0-0.22-0.02-0.33-0.07C23.7,9,23.16,8.79,22.62,8.62c-0.42-0.14-0.65-0.59-0.52-1.01c0.13-0.42,0.58-0.65,1.01-0.52
			c0.6,0.19,1.19,0.42,1.77,0.68c0.4,0.18,0.58,0.66,0.4,1.06C25.15,9.13,24.86,9.3,24.55,9.3z M20.23,8.05
			c-0.04,0-0.07,0-0.11-0.01c-0.56-0.08-1.13-0.12-1.71-0.14c-0.44-0.01-0.79-0.38-0.78-0.82c0.01-0.44,0.42-0.78,0.82-0.78
			c0.63,0.02,1.27,0.07,1.89,0.15c0.44,0.06,0.74,0.46,0.68,0.9C20.97,7.76,20.63,8.05,20.23,8.05z"/>
	</g>
	<g>
		<path class="st2" d="M55.07,26.15H43.88c-0.44,0-0.8-0.36-0.8-0.8s0.36-0.8,0.8-0.8h11.19c0.44,0,0.8,0.36,0.8,0.8
			S55.51,26.15,55.07,26.15z"/>
	</g>
</g>
<g>
	<g>
		<g>
			<rect y="48.26" class="st1" width="65" height="16.74"/>
		</g>
		<g>
			<g>
				<path class="st3" d="M45.38,61.32h-7.17c-0.66,0-1.2-0.54-1.2-1.2s0.54-1.2,1.2-1.2h7.17c0.66,0,1.2,0.54,1.2,1.2
					S46.04,61.32,45.38,61.32z"/>
			</g>
			<g>
				<path class="st3" d="M53.11,61.32h-0.58c-0.66,0-1.2-0.54-1.2-1.2s0.54-1.2,1.2-1.2h0.58c0.66,0,1.2,0.54,1.2,1.2
					S53.77,61.32,53.11,61.32z"/>
			</g>
			<g>
				<path class="st3" d="M18.99,61.32h-7.1c-0.66,0-1.2-0.54-1.2-1.2s0.54-1.2,1.2-1.2h7.1c0.66,0,1.2,0.54,1.2,1.2
					S19.65,61.32,18.99,61.32z"/>
			</g>
			<g>
				<path class="st4" d="M31.05,61.32H18.53c-0.66,0-1.2-0.54-1.2-1.2s0.54-1.2,1.2-1.2h12.52c0.66,0,1.2,0.54,1.2,1.2
					S31.71,61.32,31.05,61.32z"/>
			</g>
			<g>
				<path class="st4" d="M35.47,55.21H11.89c-0.66,0-1.2-0.54-1.2-1.2s0.54-1.2,1.2-1.2h23.58c0.66,0,1.2,0.54,1.2,1.2
					S36.14,55.21,35.47,55.21z"/>
			</g>
			<g>
				<path class="st3" d="M53.11,55.21H34.75c-0.66,0-1.2-0.54-1.2-1.2s0.54-1.2,1.2-1.2h18.36c0.66,0,1.2,0.54,1.2,1.2
					S53.77,55.21,53.11,55.21z"/>
			</g>
			<g>
				<path class="st3" d="M12.32,55.21h-0.43c-0.66,0-1.2-0.54-1.2-1.2s0.54-1.2,1.2-1.2h0.43c0.66,0,1.2,0.54,1.2,1.2
					S12.98,55.21,12.32,55.21z"/>
			</g>
		</g>
	</g>
</g>
<g id="Rectángulo_3799-2_4_">
	<rect x="0" class="st1" width="65" height="65"/>
</g>
</svg>
