<?xml version="1.0" encoding="utf-8"?>
<!-- Generator: Adobe Illustrator 24.0.2, SVG Export Plug-In . SVG Version: 6.00 Build 0)  -->
<svg version="1.1" id="Capa_1" xmlns="http://www.w3.org/2000/svg" xmlns:xlink="http://www.w3.org/1999/xlink" x="0px" y="0px"
	 viewBox="0 0 65 65" style="enable-background:new 0 0 65 65;" xml:space="preserve">
<style type="text/css">
	.st0{fill:#FFFFFF;}
	.st1{fill:none;}
	.st2{fill:#95A6B1;}
	.st3{fill:#4DA12E;}
	.st4{fill:#96D200;}
	.st5{fill:#4C9F2E;}
	.st6{fill:#94D040;}
	.st7{fill:#00A800;}
	.st8{fill:#19A500;}
	.st9{fill:none;stroke:#95A6B1;stroke-width:1.6;stroke-linecap:round;stroke-linejoin:round;}
</style>
<g>
	<g>
		<g>
			<g>
				<rect x="0" y="48.26" class="st1" width="65" height="16.74"/>
			</g>
			<g>
				<g>
					<path class="st5" d="M45.38,61.32h-7.17c-0.66,0-1.2-0.54-1.2-1.2s0.54-1.2,1.2-1.2h7.17c0.66,0,1.2,0.54,1.2,1.2
						S46.04,61.32,45.38,61.32z"/>
				</g>
				<g>
					<path class="st5" d="M53.11,61.32h-0.58c-0.66,0-1.2-0.54-1.2-1.2s0.54-1.2,1.2-1.2h0.58c0.66,0,1.2,0.54,1.2,1.2
						S53.77,61.32,53.11,61.32z"/>
				</g>
				<g>
					<path class="st5" d="M18.99,61.32h-7.1c-0.66,0-1.2-0.54-1.2-1.2s0.54-1.2,1.2-1.2h7.1c0.66,0,1.2,0.54,1.2,1.2
						S19.65,61.32,18.99,61.32z"/>
				</g>
				<g>
					<path class="st6" d="M31.05,61.32H18.53c-0.66,0-1.2-0.54-1.2-1.2s0.54-1.2,1.2-1.2h12.52c0.66,0,1.2,0.54,1.2,1.2
						S31.71,61.32,31.05,61.32z"/>
				</g>
				<g>
					<path class="st6" d="M35.47,55.21H11.89c-0.66,0-1.2-0.54-1.2-1.2s0.54-1.2,1.2-1.2h23.58c0.66,0,1.2,0.54,1.2,1.2
						S36.14,55.21,35.47,55.21z"/>
				</g>
				<g>
					<path class="st5" d="M53.11,55.21H34.75c-0.66,0-1.2-0.54-1.2-1.2s0.54-1.2,1.2-1.2h18.36c0.66,0,1.2,0.54,1.2,1.2
						S53.77,55.21,53.11,55.21z"/>
				</g>
				<g>
					<path class="st5" d="M12.32,55.21h-0.43c-0.66,0-1.2-0.54-1.2-1.2s0.54-1.2,1.2-1.2h0.43c0.66,0,1.2,0.54,1.2,1.2
						S12.98,55.21,12.32,55.21z"/>
				</g>
			</g>
		</g>
	</g>
	<g id="Grupo_13216_3_" transform="translate(0.246 0.246)">
		<g id="Rectángulo_3799_3_">
			<rect x="-0.25" y="-0.25" class="st1" width="65" height="65"/>
		</g>
	</g>
	<g id="Rectángulo_3799-2_3_">
		<rect x="0" class="st1" width="65" height="65"/>
	</g>
	<g id="Grupo_13714" transform="translate(413.835 -58.91)">
		<g id="Grupo_13387" transform="translate(277.697 61.532)">
			<g id="Trazado_11781_1_">
				<path class="st2" d="M-666.43,46.54c-4.4,0-7.98-3.58-7.98-7.98V13.63c0-0.44,0.36-0.8,0.8-0.8s0.8,0.36,0.8,0.8v24.93
					c0,3.52,2.86,6.38,6.38,6.38l24.37-0.03V5.07h-24.91c-0.44,0-0.8-0.36-0.8-0.8s0.36-0.8,0.8-0.8h25.71c0.44,0,0.8,0.36,0.8,0.8
					v41.44c0,0.44-0.36,0.8-0.8,0.8L-666.43,46.54z"/>
			</g>
		</g>
		<g id="Grupo_13390" transform="translate(284.316 67.688)">
			<g id="Grupo_13389">
				<g id="Línea_2376_1_">
					<path class="st2" d="M-664.25,25.58c-0.44,0-0.8-0.36-0.8-0.8V11.63c0-0.44,0.36-0.8,0.8-0.8s0.8,0.36,0.8,0.8v13.15
						C-663.45,25.23-663.8,25.58-664.25,25.58z"/>
				</g>
				<g id="Línea_2377_1_">
					<path class="st2" d="M-664.16,14.73c-0.21,0-0.41-0.08-0.57-0.23c-0.31-0.31-0.31-0.82,0-1.13l6.54-6.54
						c0.31-0.31,0.82-0.31,1.13,0c0.31,0.31,0.31,0.82,0,1.13l-6.54,6.54C-663.75,14.65-663.95,14.73-664.16,14.73z"/>
				</g>
				<g id="Línea_2378_1_">
					<path class="st2" d="M-664.35,18.9c-0.15,0-0.31-0.04-0.45-0.14l-5.64-3.83c-0.37-0.25-0.46-0.75-0.21-1.11
						s0.74-0.46,1.11-0.21l5.64,3.83c0.37,0.25,0.46,0.75,0.21,1.11C-663.84,18.78-664.09,18.9-664.35,18.9z"/>
				</g>
				<g id="Trazado_11782_1_">
					<path class="st2" d="M-658.56,12.57c-1.13,0-2.26-0.44-3.11-1.3c-1.64-1.68-1.64-4.41,0-6.09c1.5-1.5,6.81-2.46,7.86-2.63
						c0.25-0.04,0.51,0.04,0.7,0.22c0.18,0.18,0.27,0.44,0.22,0.7c-0.18,1.05-1.14,6.37-2.63,7.86c0,0,0,0-0.01,0.01
						C-656.36,12.16-657.46,12.57-658.56,12.57z M-654.67,4.33c-2.23,0.45-5.12,1.23-5.86,1.97c-1.03,1.05-1.03,2.78,0.01,3.84
						c1.06,1.08,2.8,1.1,3.89,0.04C-655.89,9.44-655.12,6.56-654.67,4.33z M-656.07,10.76L-656.07,10.76L-656.07,10.76z"/>
				</g>
				<g id="Grupo_13388" transform="translate(0 9.185)">
					<g id="Línea_2379_1_">
						<path class="st2" d="M-667.55,7.59c-0.15,0-0.31-0.04-0.45-0.14l-3.46-2.35c-0.37-0.25-0.46-0.75-0.21-1.11
							c0.25-0.36,0.74-0.46,1.11-0.21l3.46,2.35c0.37,0.25,0.46,0.75,0.21,1.11C-667.04,7.47-667.29,7.59-667.55,7.59z"/>
					</g>
					<g id="Trazado_11783_1_">
						<path class="st2" d="M-670.06,9.1c-0.67,0-1.35-0.17-1.97-0.52c-1.56-1.05-3.06-5.48-3.35-6.35c-0.08-0.24-0.04-0.49,0.1-0.7
							c0.14-0.21,0.37-0.33,0.61-0.35c0.92-0.06,5.59-0.29,7.09,0.73c0.02,0.01,0.04,0.03,0.05,0.04c0.83,0.68,1.35,1.64,1.46,2.71
							c0.11,1.07-0.2,2.12-0.88,2.95C-667.73,8.59-668.89,9.1-670.06,9.1z M-673.51,2.74c0.68,1.85,1.67,4.05,2.32,4.49
							c0.97,0.54,2.26,0.3,3-0.62c0.41-0.5,0.6-1.13,0.53-1.78c-0.06-0.63-0.37-1.2-0.85-1.61C-669.2,2.8-671.57,2.69-673.51,2.74z"
							/>
					</g>
				</g>
			</g>
			<g id="Línea_2380_1_">
				<path class="st2" d="M-658.24,25.62h-11.54c-0.44,0-0.8-0.36-0.8-0.8s0.36-0.8,0.8-0.8h11.54c0.44,0,0.8,0.36,0.8,0.8
					S-657.8,25.62-658.24,25.62z"/>
			</g>
		</g>
		<g id="Línea_2381_1_">
			<path class="st2" d="M-370.05,98.82h-19.37c-0.44,0-0.8-0.36-0.8-0.8s0.36-0.8,0.8-0.8h19.37c0.44,0,0.8,0.36,0.8,0.8
				S-369.61,98.82-370.05,98.82z"/>
		</g>
		<g id="Línea_2382_1_">
			<path class="st2" d="M-370.05,103.72h-19.37c-0.44,0-0.8-0.36-0.8-0.8s0.36-0.8,0.8-0.8h19.37c0.44,0,0.8,0.36,0.8,0.8
				S-369.61,103.72-370.05,103.72z"/>
		</g>
		<g id="Trazado_11848_6_">
			<path class="st7" d="M-396.29,72.79c-2.75,0-4.98-2.24-4.98-4.98s2.24-4.98,4.98-4.98c0.01,0,0.01,0,0.02,0
				c2.73,0,4.95,2.22,4.96,4.95c0,0,0,0.03,0,0.04C-391.3,70.55-393.54,72.79-396.29,72.79z M-396.27,64.42
				c-1.86-0.04-3.4,1.51-3.4,3.38c0,1.87,1.52,3.38,3.38,3.38s3.38-1.52,3.38-3.38v-0.03C-392.91,65.92-394.42,64.42-396.27,64.42z"
				/>
		</g>
	</g>
</g>
</svg>
