<?xml version="1.0" encoding="utf-8"?>
<!-- Generator: Adobe Illustrator 24.0.2, SVG Export Plug-In . SVG Version: 6.00 Build 0)  -->
<svg version="1.1" id="Capa_1" xmlns="http://www.w3.org/2000/svg" xmlns:xlink="http://www.w3.org/1999/xlink" x="0px" y="0px"
	 viewBox="0 0 65 65" style="enable-background:new 0 0 65 65;" xml:space="preserve">
<style type="text/css">
	.st0{fill:#FFFFFF;}
	.st1{fill:none;}
	.st2{fill:#95A6B1;}
	.st3{fill:#4DA12E;}
	.st4{fill:#96D200;}
	.st5{fill:#4C9F2E;}
	.st6{fill:#94D040;}
	.st7{fill:#00A800;}
	.st8{fill:#19A500;}
	.st9{fill:none;stroke:#95A6B1;stroke-width:1.6;stroke-linecap:round;stroke-linejoin:round;}
</style>
<g>
	<g>
		<g>
			<g>
				<rect y="48.26" class="st1" width="65" height="16.74"/>
			</g>
			<g>
				<g>
					<path class="st3" d="M45.38,61.32h-7.17c-0.66,0-1.2-0.54-1.2-1.2s0.54-1.2,1.2-1.2h7.17c0.66,0,1.2,0.54,1.2,1.2
						S46.04,61.32,45.38,61.32z"/>
				</g>
				<g>
					<path class="st3" d="M53.11,61.32h-0.58c-0.66,0-1.2-0.54-1.2-1.2s0.54-1.2,1.2-1.2h0.58c0.66,0,1.2,0.54,1.2,1.2
						S53.77,61.32,53.11,61.32z"/>
				</g>
				<g>
					<path class="st3" d="M18.99,61.32h-7.1c-0.66,0-1.2-0.54-1.2-1.2s0.54-1.2,1.2-1.2h7.1c0.66,0,1.2,0.54,1.2,1.2
						S19.66,61.32,18.99,61.32z"/>
				</g>
				<g>
					<path class="st4" d="M31.05,61.32H18.53c-0.66,0-1.2-0.54-1.2-1.2s0.54-1.2,1.2-1.2h12.52c0.66,0,1.2,0.54,1.2,1.2
						S31.71,61.32,31.05,61.32z"/>
				</g>
				<g>
					<path class="st4" d="M35.47,55.21H11.89c-0.66,0-1.2-0.54-1.2-1.2s0.54-1.2,1.2-1.2h23.58c0.66,0,1.2,0.54,1.2,1.2
						S36.14,55.21,35.47,55.21z"/>
				</g>
				<g>
					<path class="st3" d="M53.11,55.21H34.75c-0.66,0-1.2-0.54-1.2-1.2s0.54-1.2,1.2-1.2h18.36c0.66,0,1.2,0.54,1.2,1.2
						S53.77,55.21,53.11,55.21z"/>
				</g>
				<g>
					<path class="st3" d="M12.32,55.21h-0.43c-0.66,0-1.2-0.54-1.2-1.2s0.54-1.2,1.2-1.2h0.43c0.66,0,1.2,0.54,1.2,1.2
						S12.98,55.21,12.32,55.21z"/>
				</g>
			</g>
		</g>
	</g>
	<g id="Rectángulo_3799-2_6_">
		<rect x="0" class="st1" width="65" height="65"/>
	</g>
	<g>
		<g id="Trazado_11799_1_">
			<path class="st8" d="M16.81,12.27c-0.51,0-1.03-0.09-1.52-0.28c-1.09-0.41-1.96-1.21-2.44-2.27c-0.48-1.06-0.53-2.24-0.12-3.33
				c0.4-1.08,1.2-1.94,2.25-2.43l0,0c2.2-1.01,4.79-0.06,5.79,2.12l0.01,0.02c0.48,1.06,0.53,2.24,0.12,3.33s-1.21,1.96-2.27,2.44
				C18.04,12.13,17.42,12.27,16.81,12.27z M15.72,5.37L15.66,5.4c-0.67,0.31-1.18,0.85-1.44,1.54c-0.26,0.69-0.23,1.44,0.08,2.11
				c0.31,0.67,0.85,1.18,1.54,1.44c0.69,0.26,1.44,0.23,2.11-0.08c0.67-0.31,1.18-0.85,1.44-1.54c0.26-0.69,0.23-1.44-0.08-2.11
				L19.3,6.73C18.67,5.38,17.08,4.78,15.72,5.37z"/>
		</g>
		<g id="Trazado_11800_1_">
			<path class="st2" d="M42.61,35.53c-0.44,0-0.8-0.36-0.8-0.8V6.26H22.51c-0.44,0-0.8-0.36-0.8-0.8s0.36-0.8,0.8-0.8h20.09
				c0.44,0,0.8,0.36,0.8,0.8v29.26C43.41,35.17,43.05,35.53,42.61,35.53z"/>
		</g>
		<g id="Trazado_11801_1_">
			<path class="st2" d="M30.76,41.96h-9.82c-1.87,0-3.62-0.73-4.94-2.05c-1.32-1.32-2.04-3.07-2.04-4.94V14.24
				c0-0.44,0.36-0.8,0.8-0.8s0.8,0.36,0.8,0.8v20.74c0,1.44,0.56,2.79,1.57,3.8c1.02,1.02,2.37,1.58,3.8,1.58l13.62-0.01
				c0,0,0,0,0,0c0.44,0,0.8,0.36,0.8,0.8c0,0.44-0.36,0.8-0.8,0.8L30.76,41.96z"/>
		</g>
		<g id="Línea_2384_1_">
			<path class="st2" d="M37.18,29.56H20.2c-0.44,0-0.8-0.36-0.8-0.8s0.36-0.8,0.8-0.8h16.99c0.44,0,0.8,0.36,0.8,0.8
				S37.63,29.56,37.18,29.56z"/>
		</g>
		<g id="Línea_2385_1_">
			<path class="st2" d="M37.18,34.08H20.2c-0.44,0-0.8-0.36-0.8-0.8s0.36-0.8,0.8-0.8h16.99c0.44,0,0.8,0.36,0.8,0.8
				S37.63,34.08,37.18,34.08z"/>
		</g>
		<g id="Trazado_11813_1_">
			<path class="st2" d="M44.84,49.15c-0.28,0-0.56-0.08-0.8-0.24l-5.25-3.52c-0.22-0.15-0.35-0.4-0.35-0.67l0-7.6
				c0-0.26,0.12-0.5,0.34-0.65l5.23-3.72c0.25-0.17,0.53-0.27,0.83-0.27c0,0,0,0,0,0c0.8,0,1.45,0.65,1.45,1.45V47.7
				c0,0.29-0.08,0.57-0.24,0.81C45.77,48.92,45.31,49.15,44.84,49.15z M40.04,44.29l4.68,3.14l-0.03-13.24l-4.66,3.34L40.04,44.29z"
				/>
		</g>
		<g id="Rectángulo_4666_1_">
			<path class="st2" d="M39.24,45.52h-3.85c-0.89,0-1.62-0.73-1.62-1.62v-5.96c0-0.89,0.73-1.62,1.62-1.62h3.85
				c0.44,0,0.8,0.36,0.8,0.8v7.6C40.04,45.16,39.68,45.52,39.24,45.52z M35.39,37.92c-0.01,0-0.02,0.01-0.02,0.02v5.96l3.07,0.02
				v-5.99H35.39z"/>
		</g>
		<g id="Trazado_11814_1_">
			<path class="st2" d="M49.1,45.36c-0.34,0-0.65-0.22-0.76-0.56c-0.13-0.42,0.1-0.87,0.52-1.01c0.77-0.25,1.39-0.78,1.76-1.5
				c0.37-0.72,0.44-1.54,0.19-2.3c-0.3-0.92-1.03-1.65-1.95-1.95c-0.42-0.14-0.65-0.59-0.52-1.01c0.14-0.42,0.58-0.65,1.01-0.52
				c1.41,0.45,2.53,1.57,2.98,2.98c0.38,1.17,0.27,2.43-0.29,3.52c-0.56,1.1-1.52,1.91-2.7,2.29C49.26,45.34,49.18,45.36,49.1,45.36
				z"/>
		</g>
		<g>
			<g>
				<path class="st2" d="M20.48,16.51c-0.19-0.09-0.39-0.13-0.6-0.12H18.7v3.03h0.63v-1.07l0.54,0c0.3,0.02,0.6-0.07,0.85-0.26
					c0.21-0.17,0.32-0.43,0.31-0.7c0-0.18-0.04-0.37-0.14-0.52C20.79,16.72,20.65,16.59,20.48,16.51z M20.26,17.73
					c-0.11,0.08-0.24,0.13-0.38,0.12h-0.56v-0.95h0.57c0.14-0.01,0.27,0.05,0.36,0.14c0.09,0.1,0.14,0.23,0.13,0.36
					C20.4,17.52,20.35,17.64,20.26,17.73z"/>
			</g>
			<g>
				<path class="st2" d="M23.33,16.53c-0.42-0.24-0.93-0.24-1.35,0c-0.2,0.13-0.36,0.31-0.46,0.52c-0.11,0.25-0.17,0.52-0.16,0.79
					v0.15c0,0.27,0.05,0.53,0.17,0.77c0.1,0.21,0.26,0.39,0.46,0.52c0.42,0.24,0.93,0.24,1.35,0c0.2-0.13,0.36-0.31,0.45-0.52
					c0.11-0.25,0.16-0.52,0.16-0.79l0-0.14c0.01-0.27-0.05-0.54-0.16-0.79C23.68,16.84,23.53,16.66,23.33,16.53z M23.31,17.99
					c0.01,0.25-0.04,0.5-0.17,0.72c-0.11,0.16-0.29,0.26-0.48,0.25c-0.2,0.01-0.39-0.09-0.49-0.26c-0.13-0.22-0.19-0.47-0.17-0.72
					v-0.15c-0.02-0.25,0.04-0.5,0.17-0.72c0.04-0.05,0.08-0.09,0.13-0.13c0.27-0.2,0.65-0.14,0.84,0.13
					c0.13,0.22,0.19,0.47,0.17,0.73V17.99z"/>
			</g>
			<g>
				<polygon class="st2" points="25.58,19.43 25.58,16.9 26.51,16.9 26.51,16.39 24.03,16.39 24.03,16.9 24.95,16.9 24.95,19.43 
									"/>
			</g>
			<g>
				<polygon class="st2" points="28.9,18.92 27.49,18.92 27.49,18.11 28.69,18.11 28.69,17.62 27.49,17.62 27.49,16.9 28.89,16.9 
					28.89,16.39 26.86,16.39 26.86,19.43 28.9,19.43 				"/>
			</g>
			<g>
				<polygon class="st2" points="31.73,19.43 31.73,16.39 31.11,16.39 31.11,18.39 29.89,16.39 29.26,16.39 29.26,19.43 
					29.89,19.43 29.89,17.43 31.11,19.43 				"/>
			</g>
			<g>
				<path class="st2" d="M32.98,17.08c0.11-0.15,0.28-0.24,0.47-0.22c0.15-0.01,0.31,0.03,0.43,0.13c0.11,0.12,0.16,0.27,0.16,0.43
					h0.63c-0.02-0.3-0.15-0.59-0.37-0.79c-0.44-0.33-1.03-0.37-1.51-0.1c-0.19,0.12-0.35,0.3-0.44,0.51
					c-0.11,0.24-0.16,0.51-0.15,0.77V18c-0.02,0.39,0.1,0.77,0.33,1.08c0.23,0.27,0.57,0.41,0.92,0.39
					c0.31,0.02,0.62-0.09,0.86-0.28c0.22-0.2,0.35-0.47,0.36-0.77l-0.63,0c0,0.15-0.06,0.3-0.16,0.41c-0.12,0.1-0.28,0.14-0.43,0.13
					c-0.19,0.01-0.37-0.07-0.47-0.23c-0.12-0.22-0.17-0.47-0.15-0.72v-0.23C32.81,17.54,32.86,17.3,32.98,17.08z"/>
			</g>
			<g>
				<rect x="35.11" y="16.39" class="st2" width="0.63" height="3.04"/>
			</g>
			<g>
				<path class="st2" d="M37.81,16.39h-0.58l-1.13,3.04h0.66l0.21-0.63h1.1l0.21,0.63h0.66L37.81,16.39z M37.14,18.29l0.38-1.14
					l0.38,1.14H37.14z"/>
			</g>
			<g>
				<polygon class="st2" points="25.36,21.94 25.36,22.43 26.08,22.2 26.08,24.53 26.69,24.53 26.69,21.49 26.62,21.49 				"/>
			</g>
			<g>
				<path class="st2" d="M29.2,22.97c0.13-0.06,0.25-0.15,0.33-0.27c0.08-0.11,0.13-0.25,0.13-0.38c0.01-0.24-0.09-0.48-0.27-0.64
					c-0.22-0.16-0.48-0.25-0.75-0.23c-0.17,0-0.35,0.03-0.51,0.11c-0.14,0.06-0.27,0.16-0.36,0.29c-0.09,0.13-0.13,0.27-0.13,0.43
					h0.6c0-0.1,0.04-0.19,0.12-0.25c0.08-0.06,0.19-0.1,0.29-0.09c0.11-0.01,0.22,0.03,0.3,0.1c0.08,0.08,0.12,0.18,0.11,0.29
					c0.01,0.11-0.03,0.22-0.11,0.3c-0.09,0.08-0.22,0.13-0.34,0.11h-0.32v0.47h0.32c0.33,0,0.5,0.15,0.5,0.45
					c0,0.11-0.04,0.22-0.12,0.3c-0.19,0.15-0.46,0.15-0.65,0.01c-0.08-0.07-0.13-0.17-0.13-0.28h-0.6c-0.01,0.24,0.1,0.48,0.29,0.63
					c0.21,0.17,0.47,0.25,0.74,0.24c0.28,0.01,0.56-0.07,0.78-0.24c0.19-0.16,0.3-0.4,0.3-0.65c0-0.15-0.04-0.31-0.13-0.43
					C29.49,23.11,29.35,23.01,29.2,22.97z"/>
			</g>
			<g>
				<path class="st2" d="M31.26,22.53c-0.16,0-0.32,0.04-0.46,0.11l0.08-0.65h1.21v-0.5h-1.7l-0.17,1.54l0.48,0.12l0.06-0.05
					c0.1-0.08,0.22-0.12,0.35-0.11c0.13-0.01,0.27,0.04,0.36,0.14c0.09,0.11,0.14,0.25,0.13,0.4c0.01,0.15-0.03,0.29-0.11,0.42
					c-0.07,0.1-0.19,0.15-0.31,0.15c-0.11,0.01-0.22-0.03-0.3-0.11c-0.08-0.08-0.13-0.18-0.13-0.29h-0.6c0,0.16,0.05,0.32,0.15,0.46
					c0.09,0.14,0.22,0.25,0.37,0.31c0.16,0.07,0.33,0.11,0.51,0.11c0.19,0,0.38-0.04,0.55-0.13c0.15-0.08,0.27-0.21,0.36-0.36
					c0.08-0.16,0.13-0.34,0.12-0.53c0.02-0.27-0.07-0.54-0.25-0.75C31.76,22.61,31.51,22.52,31.26,22.53z"/>
			</g>
		</g>
	</g>
</g>
</svg>
