<?xml version="1.0" encoding="utf-8"?>
<!-- Generator: Adobe Illustrator 24.0.2, SVG Export Plug-In . SVG Version: 6.00 Build 0)  -->
<svg version="1.1" id="Capa_1" xmlns="http://www.w3.org/2000/svg" xmlns:xlink="http://www.w3.org/1999/xlink" x="0px" y="0px"
	 viewBox="0 0 65 65" style="enable-background:new 0 0 65 65;" xml:space="preserve">
<style type="text/css">
	.st0{fill:#FFFFFF;}
	.st1{fill:none;}
	.st2{fill:#95A6B1;}
	.st3{fill:#4DA12E;}
	.st4{fill:#96D200;}
	.st5{fill:#4C9F2E;}
	.st6{fill:#94D040;}
	.st7{fill:#00A800;}
	.st8{fill:#19A500;}
	.st9{fill:none;stroke:#95A6B1;stroke-width:1.6;stroke-linecap:round;stroke-linejoin:round;}
</style>
<g>
	<g>
		<g>
			<rect y="48.26" class="st1" width="65" height="16.74"/>
		</g>
		<g>
			<g>
				<path class="st3" d="M45.38,61.32h-7.17c-0.66,0-1.2-0.54-1.2-1.2s0.54-1.2,1.2-1.2h7.17c0.66,0,1.2,0.54,1.2,1.2
					S46.04,61.32,45.38,61.32z"/>
			</g>
			<g>
				<path class="st3" d="M53.11,61.32h-0.58c-0.66,0-1.2-0.54-1.2-1.2s0.54-1.2,1.2-1.2h0.58c0.66,0,1.2,0.54,1.2,1.2
					S53.77,61.32,53.11,61.32z"/>
			</g>
			<g>
				<path class="st3" d="M18.99,61.32h-7.1c-0.66,0-1.2-0.54-1.2-1.2s0.54-1.2,1.2-1.2h7.1c0.66,0,1.2,0.54,1.2,1.2
					S19.65,61.32,18.99,61.32z"/>
			</g>
			<g>
				<path class="st4" d="M31.05,61.32H18.53c-0.66,0-1.2-0.54-1.2-1.2s0.54-1.2,1.2-1.2h12.52c0.66,0,1.2,0.54,1.2,1.2
					S31.71,61.32,31.05,61.32z"/>
			</g>
			<g>
				<path class="st4" d="M35.47,55.21H11.89c-0.66,0-1.2-0.54-1.2-1.2s0.54-1.2,1.2-1.2h23.58c0.66,0,1.2,0.54,1.2,1.2
					S36.14,55.21,35.47,55.21z"/>
			</g>
			<g>
				<path class="st3" d="M53.11,55.21H34.75c-0.66,0-1.2-0.54-1.2-1.2s0.54-1.2,1.2-1.2h18.36c0.66,0,1.2,0.54,1.2,1.2
					S53.77,55.21,53.11,55.21z"/>
			</g>
			<g>
				<path class="st3" d="M12.32,55.21h-0.43c-0.66,0-1.2-0.54-1.2-1.2s0.54-1.2,1.2-1.2h0.43c0.66,0,1.2,0.54,1.2,1.2
					S12.98,55.21,12.32,55.21z"/>
			</g>
		</g>
	</g>
</g>
<g id="Grupo_12949_1_" transform="translate(-0.246 -0.246)">
	<g id="Grupo_11514_1_" transform="translate(10.072 11.149)">
		<g id="Grupo_15064_2_">
			<g id="Trazado_12510_2_">
				<path class="st2" d="M21.92,12.53c-0.4,0-0.75-0.3-0.79-0.71c-0.05-0.44,0.26-0.84,0.7-0.89c3.38-0.4,4.23-1.99,4.85-3.16
					c0.21-0.39,0.69-0.54,1.08-0.33c0.39,0.21,0.54,0.69,0.33,1.08c-0.69,1.31-1.86,3.5-6.07,3.99
					C21.98,12.53,21.95,12.53,21.92,12.53z"/>
			</g>
			<g id="Trazado_12511_3_">
				<path class="st8" d="M13.6,13.31c-0.52,0-1.05-0.09-1.55-0.28c-1.11-0.41-2-1.24-2.49-2.32c-1.02-2.23-0.03-4.87,2.19-5.89
					c2.23-1.02,4.87-0.03,5.89,2.19c0.47,1.02,0.53,2.18,0.18,3.24c-0.38,1.17-1.25,2.13-2.37,2.65
					C14.86,13.17,14.23,13.31,13.6,13.31z M13.59,6.02c-0.39,0-0.79,0.08-1.18,0.26c-1.43,0.65-2.06,2.34-1.4,3.77
					c0.32,0.69,0.88,1.22,1.59,1.48c0.71,0.27,1.48,0.24,2.18-0.08c0.72-0.33,1.27-0.94,1.52-1.69c0.23-0.69,0.19-1.42-0.11-2.08
					l0,0C15.7,6.63,14.67,6.02,13.59,6.02z"/>
			</g>
			<g id="Trazado_12512_2_">
				<path class="st2" d="M20,15.16c-0.08,0-0.16-0.01-0.24-0.04c-0.72-0.23-1.41-0.55-2.05-0.96c-0.37-0.24-0.48-0.73-0.25-1.1
					c0.24-0.37,0.73-0.48,1.1-0.25c0.52,0.33,1.09,0.59,1.67,0.78c0.42,0.13,0.66,0.58,0.52,1C20.66,14.94,20.34,15.16,20,15.16z"/>
			</g>
			<g id="Trazado_12513_4_">
				<path class="st2" d="M22.37,15.53c-0.88,0-1.76-0.13-2.61-0.4c-0.42-0.13-0.66-0.58-0.52-1c0.13-0.42,0.58-0.66,1-0.52
					c0.69,0.22,1.43,0.29,2.14,0.33c3.93,0,7.12-3.19,7.12-7.12c0-2.02-2.14-6.05-5.87-11.05c-0.09-0.12-0.2-0.23-0.32-0.32
					c-0.33-0.25-0.75-0.35-1.16-0.29c-0.41,0.06-0.77,0.28-1.02,0.61C19.42-2,17.88,0.39,16.55,2.87c-0.21,0.39-0.69,0.54-1.08,0.33
					c-0.39-0.21-0.54-0.69-0.33-1.08c1.37-2.56,2.96-5.02,4.71-7.32c0.5-0.67,1.23-1.11,2.07-1.23c0.83-0.12,1.67,0.09,2.34,0.59
					c0.25,0.18,0.47,0.4,0.65,0.65c2.82,3.78,6.18,8.93,6.18,12c0,4.81-3.91,8.72-8.72,8.72C22.38,15.53,22.38,15.53,22.37,15.53z"
					/>
			</g>
			<g id="Trazado_12514_2_">
				<path class="st2" d="M31.92,37.03H13.43c-0.38,0-0.71-0.27-0.79-0.65L9.16,17.89c-0.08-0.43,0.2-0.85,0.64-0.93
					c0.43-0.08,0.85,0.2,0.93,0.64l0.77,4.1c0.91,0.12,1.45,0.53,1.9,0.87c0.44,0.33,0.76,0.58,1.46,0.58s1.02-0.24,1.46-0.58
					c0.53-0.4,1.19-0.9,2.43-0.9c1.24,0,1.9,0.5,2.43,0.9c0.44,0.33,0.76,0.58,1.47,0.58c0.71,0,1.02-0.24,1.47-0.58
					c0.53-0.4,1.19-0.9,2.43-0.9c1.24,0,1.9,0.5,2.43,0.9c0.44,0.33,0.76,0.58,1.47,0.58c0.71,0,1.03-0.24,1.47-0.58
					c0.45-0.34,0.99-0.75,1.9-0.87l0.77-4.1c0.08-0.43,0.5-0.72,0.93-0.64c0.43,0.08,0.72,0.5,0.64,0.93L32.7,36.38
					C32.63,36.76,32.3,37.03,31.92,37.03z M14.09,35.43h17.16l2.26-12c-0.21,0.1-0.4,0.24-0.61,0.4c-0.53,0.4-1.19,0.9-2.43,0.9
					c-1.24,0-1.9-0.5-2.44-0.9c-0.44-0.33-0.76-0.58-1.47-0.58s-1.03,0.24-1.47,0.58c-0.53,0.4-1.19,0.9-2.43,0.9
					c-1.24,0-1.9-0.5-2.43-0.9c-0.44-0.33-0.76-0.58-1.47-0.58c-0.7,0-1.02,0.24-1.46,0.58c-0.53,0.4-1.19,0.9-2.43,0.9
					s-1.9-0.5-2.43-0.9c-0.21-0.16-0.4-0.3-0.61-0.4L14.09,35.43z"/>
			</g>
		</g>
	</g>
</g>
<g id="Rectángulo_3799-2_1_">
	<rect x="0" class="st1" width="65" height="65"/>
</g>
</svg>
