<?xml version="1.0" encoding="utf-8"?>
<!-- Generator: Adobe Illustrator 24.0.2, SVG Export Plug-In . SVG Version: 6.00 Build 0)  -->
<svg version="1.1" id="Capa_1" xmlns="http://www.w3.org/2000/svg" xmlns:xlink="http://www.w3.org/1999/xlink" x="0px" y="0px"
	 viewBox="0 0 65 65" style="enable-background:new 0 0 65 65;" xml:space="preserve">
<style type="text/css">
	.st0{fill:#FFFFFF;}
	.st1{fill:none;}
	.st2{fill:#95A6B1;}
	.st3{fill:#4DA12E;}
	.st4{fill:#96D200;}
	.st5{fill:#4C9F2E;}
	.st6{fill:#94D040;}
	.st7{fill:#00A800;}
	.st8{fill:#19A500;}
	.st9{fill:none;stroke:#95A6B1;stroke-width:1.6;stroke-linecap:round;stroke-linejoin:round;}
</style>
<g>
	<g>
		<g id="Trazado_12108_1_">
			<path class="st8" d="M11.57,21.41c-0.47,0-0.93-0.08-1.38-0.25c-0.99-0.37-1.77-1.1-2.21-2.06s-0.48-2.03-0.11-3.02
				s1.1-1.77,2.06-2.21c1.98-0.9,4.33-0.03,5.23,1.95c0.42,0.91,0.47,1.93,0.16,2.88c-0.34,1.04-1.11,1.9-2.11,2.35
				C12.69,21.29,12.13,21.41,11.57,21.41z M11.56,15.11c-0.33,0-0.66,0.07-0.97,0.21c-0.57,0.26-1,0.73-1.22,1.32
				c-0.22,0.59-0.2,1.23,0.07,1.8c0.26,0.57,0.73,1.01,1.32,1.23c0.59,0.22,1.23,0.2,1.8-0.06c0.59-0.27,1.05-0.78,1.25-1.4
				c0.19-0.57,0.15-1.17-0.09-1.71l0,0C13.31,15.62,12.45,15.11,11.56,15.11z"/>
		</g>
		<g id="Trazado_12109_1_">
			<path class="st2" d="M17.1,23.02c-0.08,0-0.16-0.01-0.24-0.04c-0.64-0.2-1.24-0.48-1.8-0.84c-0.37-0.24-0.48-0.73-0.25-1.1
				c0.24-0.37,0.73-0.48,1.1-0.24c0.44,0.28,0.92,0.5,1.42,0.66c0.42,0.13,0.66,0.58,0.52,1C17.76,22.8,17.44,23.02,17.1,23.02z"/>
		</g>
		<g id="Trazado_12110_1_">
			<path class="st2" d="M19.15,23.33c-0.78,0-1.55-0.12-2.29-0.35c-0.42-0.13-0.66-0.58-0.52-1s0.58-0.66,1-0.52
				c0.59,0.18,1.2,0.28,1.81,0.28c0,0,0,0,0,0c3.33,0,6.04-2.71,6.04-6.04c0-1.72-1.84-5.18-5.05-9.48
				c-0.07-0.1-0.16-0.19-0.26-0.26c-0.26-0.2-0.59-0.28-0.92-0.23c-0.33,0.05-0.62,0.22-0.81,0.49c-1.48,1.93-2.8,3.99-3.95,6.13
				c-0.21,0.39-0.69,0.54-1.08,0.33c-0.39-0.21-0.54-0.69-0.33-1.08c1.19-2.21,2.56-4.35,4.08-6.34c0.44-0.6,1.11-1,1.86-1.11
				c0.75-0.11,1.5,0.08,2.11,0.53c0.22,0.17,0.42,0.36,0.58,0.58c2.45,3.28,5.37,7.76,5.37,10.44C26.8,19.9,23.37,23.33,19.15,23.33
				C19.16,23.33,19.16,23.33,19.15,23.33z"/>
		</g>
		<g id="Trazado_12111_1_">
			<path class="st2" d="M27.4,40.22H11.42c-0.38,0-0.71-0.27-0.79-0.65L7.63,23.59c-0.08-0.43,0.2-0.85,0.64-0.93
				c0.44-0.08,0.85,0.2,0.93,0.64l0.65,3.46c0.77,0.12,1.23,0.47,1.62,0.76c0.38,0.29,0.63,0.48,1.2,0.48s0.82-0.19,1.2-0.48
				c0.47-0.36,1.06-0.8,2.17-0.8s1.7,0.44,2.17,0.8c0.38,0.29,0.63,0.48,1.2,0.48s0.82-0.19,1.2-0.48c0.47-0.36,1.06-0.8,2.17-0.8
				s1.7,0.44,2.17,0.8c0.38,0.29,0.63,0.48,1.2,0.48s0.83-0.19,1.2-0.48c0.39-0.29,0.85-0.64,1.62-0.76l0.65-3.46
				c0.08-0.43,0.49-0.72,0.93-0.64c0.43,0.08,0.72,0.5,0.64,0.93l-3.01,15.98C28.12,39.95,27.79,40.22,27.4,40.22z M12.09,38.62
				h14.65l1.89-10.05c-0.1,0.06-0.2,0.14-0.31,0.22c-0.47,0.36-1.06,0.8-2.17,0.8s-1.7-0.44-2.17-0.8c-0.38-0.29-0.63-0.48-1.2-0.48
				s-0.82,0.19-1.2,0.48c-0.47,0.36-1.06,0.8-2.17,0.8s-1.7-0.44-2.17-0.8c-0.38-0.29-0.63-0.48-1.2-0.48
				c-0.57,0-0.82,0.19-1.2,0.48c-0.47,0.36-1.06,0.8-2.17,0.8s-1.7-0.44-2.17-0.8c-0.11-0.08-0.21-0.16-0.31-0.22L12.09,38.62z"/>
		</g>
		<g>
			<path class="st2" d="M20.06,20.1c-0.35,0-0.67-0.23-0.77-0.58c-0.12-0.42,0.12-0.87,0.54-0.99c1.03-0.3,1.87-1.03,2.32-2
				c0.19-0.4,0.66-0.58,1.06-0.39c0.4,0.19,0.58,0.66,0.39,1.06c-0.64,1.39-1.85,2.44-3.32,2.87C20.21,20.08,20.14,20.1,20.06,20.1z
				"/>
		</g>
		<g id="Trazado_12111_2_">
			<path class="st2" d="M53.58,40.22H37.6c-0.38,0-0.71-0.27-0.79-0.65l-3.01-15.98c-0.08-0.43,0.2-0.85,0.64-0.93
				c0.45-0.08,0.85,0.2,0.93,0.64l0.65,3.46c0.77,0.12,1.23,0.47,1.62,0.76c0.38,0.29,0.63,0.48,1.2,0.48s0.82-0.19,1.2-0.48
				c0.47-0.36,1.06-0.8,2.17-0.8s1.7,0.44,2.17,0.8c0.38,0.29,0.63,0.48,1.2,0.48s0.82-0.19,1.2-0.48c0.47-0.36,1.06-0.8,2.17-0.8
				s1.7,0.44,2.17,0.8c0.38,0.29,0.63,0.48,1.2,0.48c0.57,0,0.82-0.19,1.2-0.48c0.39-0.29,0.85-0.64,1.62-0.76l0.65-3.46
				c0.08-0.43,0.49-0.72,0.93-0.64c0.43,0.08,0.72,0.5,0.64,0.93l-3.01,15.98C54.29,39.95,53.96,40.22,53.58,40.22z M38.26,38.62
				h14.65l1.89-10.05c-0.1,0.06-0.2,0.14-0.31,0.23c-0.47,0.36-1.06,0.8-2.17,0.8c-1.11,0-1.7-0.44-2.17-0.8
				c-0.38-0.29-0.63-0.48-1.2-0.48s-0.82,0.19-1.2,0.48c-0.47,0.36-1.06,0.8-2.17,0.8s-1.7-0.44-2.17-0.8
				c-0.38-0.29-0.63-0.48-1.2-0.48c-0.57,0-0.82,0.19-1.2,0.48c-0.47,0.36-1.06,0.8-2.17,0.8s-1.7-0.44-2.17-0.8
				c-0.11-0.08-0.21-0.16-0.31-0.22L38.26,38.62z"/>
		</g>
		<g id="Rectángulo_4972">
			<path class="st2" d="M55.82,49.15h-2.95c-0.44,0-0.8-0.36-0.8-0.8v-5.61c0-0.44,0.36-0.8,0.8-0.8h2.95c0.44,0,0.8,0.36,0.8,0.8
				v5.61C56.62,48.79,56.26,49.15,55.82,49.15z M53.67,47.55h1.35v-4.01h-1.35V47.55z"/>
		</g>
		<g id="Trazado_12120">
			<path class="st2" d="M52.87,48.34h-3.55c-3.31,0-6.01-2.7-6.01-6.01v-2.91c0-0.44,0.36-0.8,0.8-0.8h4.28c0.44,0,0.8,0.36,0.8,0.8
				v2.54c0,0.42,0.34,0.76,0.76,0.76l2.93,0.01c0.44,0,0.8,0.36,0.8,0.8l0,4C53.67,47.98,53.31,48.34,52.87,48.34z M44.91,40.22
				v2.11c0,2.43,1.98,4.41,4.41,4.41h2.75l0-2.4l-2.12-0.01c-1.3,0-2.36-1.06-2.36-2.36v-1.74H44.91z"/>
		</g>
	</g>
	<g>
		<g>
			<g>
				<rect y="48.26" class="st1" width="65" height="16.74"/>
			</g>
			<g>
				<g>
					<path class="st3" d="M45.38,61.32h-7.17c-0.66,0-1.2-0.54-1.2-1.2s0.54-1.2,1.2-1.2h7.17c0.66,0,1.2,0.54,1.2,1.2
						S46.04,61.32,45.38,61.32z"/>
				</g>
				<g>
					<path class="st3" d="M53.11,61.32h-0.58c-0.66,0-1.2-0.54-1.2-1.2s0.54-1.2,1.2-1.2h0.58c0.66,0,1.2,0.54,1.2,1.2
						S53.77,61.32,53.11,61.32z"/>
				</g>
				<g>
					<path class="st3" d="M18.99,61.32h-7.1c-0.66,0-1.2-0.54-1.2-1.2s0.54-1.2,1.2-1.2h7.1c0.66,0,1.2,0.54,1.2,1.2
						S19.65,61.32,18.99,61.32z"/>
				</g>
				<g>
					<path class="st4" d="M31.05,61.32H18.53c-0.66,0-1.2-0.54-1.2-1.2s0.54-1.2,1.2-1.2h12.52c0.66,0,1.2,0.54,1.2,1.2
						S31.71,61.32,31.05,61.32z"/>
				</g>
				<g>
					<path class="st4" d="M35.47,55.21H11.89c-0.66,0-1.2-0.54-1.2-1.2s0.54-1.2,1.2-1.2h23.58c0.66,0,1.2,0.54,1.2,1.2
						S36.14,55.21,35.47,55.21z"/>
				</g>
				<g>
					<path class="st3" d="M53.11,55.21H34.75c-0.66,0-1.2-0.54-1.2-1.2s0.54-1.2,1.2-1.2h18.36c0.66,0,1.2,0.54,1.2,1.2
						S53.77,55.21,53.11,55.21z"/>
				</g>
				<g>
					<path class="st3" d="M12.32,55.21h-0.43c-0.66,0-1.2-0.54-1.2-1.2s0.54-1.2,1.2-1.2h0.43c0.66,0,1.2,0.54,1.2,1.2
						S12.98,55.21,12.32,55.21z"/>
				</g>
			</g>
		</g>
	</g>
	<g id="Rectángulo_3799-2_5_">
		<rect x="0" class="st1" width="65" height="65"/>
	</g>
</g>
</svg>
