<?xml version="1.0" encoding="utf-8"?>
<!-- Generator: Adobe Illustrator 24.0.2, SVG Export Plug-In . SVG Version: 6.00 Build 0)  -->
<svg version="1.1" id="Capa_1" xmlns="http://www.w3.org/2000/svg" xmlns:xlink="http://www.w3.org/1999/xlink" x="0px" y="0px"
	 viewBox="0 0 47 47" style="enable-background:new 0 0 47 47;" xml:space="preserve">
<style type="text/css">
	.st0{fill:#FFFFFF;}
	.st1{fill:none;}
	.st2{fill:#95A6B1;}
	.st3{fill:#4DA12E;}
	.st4{fill:#96D200;}
	.st5{fill:#4C9F2E;}
	.st6{fill:#94D040;}
	.st7{fill:#00A800;}
	.st8{fill:#19A500;}
	.st9{fill:none;stroke:#95A6B1;stroke-width:1.6;stroke-linecap:round;stroke-linejoin:round;}
</style>
<g id="Grupo_13373">
	<g id="Trazado_11772">
		<path class="st0" d="M13.04,13.39c-1.53,0-2.99-0.87-3.66-2.35c-0.92-2.02-0.03-4.41,1.98-5.33c2.01-0.92,4.39-0.04,5.32,1.96
			c0,0,0.01,0.02,0.01,0.02c0.92,2.02,0.03,4.41-1.98,5.33C14.17,13.27,13.6,13.39,13.04,13.39z M13.04,6.85
			c-0.36,0-0.71,0.08-1.05,0.23c-1.27,0.58-1.82,2.08-1.25,3.34c0.58,1.26,2.08,1.82,3.34,1.24c1.26-0.58,1.82-2.07,1.25-3.34
			c0,0,0-0.01-0.01-0.01C15.04,7.7,14.54,7.24,13.91,7C13.63,6.9,13.33,6.85,13.04,6.85z"/>
	</g>
	<g id="Grupo_13370">
		<g id="Trazado_11773">
			<path class="st0" d="M25.98,40.85h-9.02c-3.54,0-6.43-2.88-6.43-6.43V16.28c0-0.41,0.34-0.75,0.75-0.75s0.75,0.34,0.75,0.75
				v18.14c0,2.72,2.21,4.93,4.93,4.93l19.16-0.02V8.04h-16.8c-0.41,0-0.75-0.34-0.75-0.75s0.34-0.75,0.75-0.75h17.55
				c0.41,0,0.75,0.34,0.75,0.75v32.78c0,0.41-0.33,0.75-0.75,0.75L25.98,40.85z"/>
		</g>
	</g>
	<g id="Grupo_13371">
		<g id="Trazado_6132">
			<path class="st0" d="M27.17,21.93c-0.3,0-0.58-0.18-0.69-0.47c-0.06-0.14-1.37-3.44,0-6.07c1.38-2.63,4.83-3.45,4.98-3.48
				c0.36-0.08,0.72,0.11,0.86,0.45c0.06,0.14,1.37,3.44,0,6.07v0c-1.38,2.63-4.83,3.44-4.98,3.48
				C27.28,21.92,27.22,21.93,27.17,21.93z M31.14,13.57c-0.93,0.33-2.59,1.09-3.33,2.51c-0.74,1.42-0.41,3.22-0.15,4.17
				c0.93-0.33,2.59-1.09,3.33-2.51v0C31.73,16.31,31.4,14.51,31.14,13.57z M31.65,18.09L31.65,18.09L31.65,18.09z"/>
		</g>
		<g id="Línea_1426">
			<path class="st0" d="M27.17,21.93c-0.12,0-0.24-0.03-0.35-0.08c-0.37-0.19-0.51-0.64-0.32-1.01l2.23-4.27
				c0.19-0.37,0.64-0.51,1.01-0.32c0.37,0.19,0.51,0.64,0.32,1.01l-2.23,4.27C27.7,21.78,27.44,21.93,27.17,21.93z"/>
		</g>
	</g>
	<g id="Grupo_13372">
		<g id="Elipse_2271">
			<path class="st0" d="M24.08,30.02c-2.06,0-3.74-1.68-3.74-3.74s1.68-3.74,3.74-3.74c2.06,0,3.74,1.68,3.74,3.74
				S26.14,30.02,24.08,30.02z M24.08,24.04c-1.24,0-2.24,1-2.24,2.24s1,2.24,2.24,2.24c1.23,0,2.24-1,2.24-2.24
				S25.31,24.04,24.08,24.04z"/>
		</g>
		<g id="Trazado_11774_1_">
			<path class="st0" d="M24.08,35.16c-0.46,0-0.92-0.04-1.38-0.12c-0.25-0.04-0.46-0.21-0.56-0.44l-0.83-1.88
				c-0.25-0.56-0.81-0.89-1.42-0.82l-2.05,0.22c-0.25,0.02-0.5-0.08-0.67-0.27c-0.58-0.72-1.04-1.51-1.37-2.37
				c-0.09-0.24-0.06-0.51,0.1-0.71l1.22-1.66c0.36-0.49,0.36-1.15,0-1.64L15.9,23.8c-0.15-0.21-0.19-0.47-0.1-0.71
				c0.33-0.86,0.79-1.66,1.36-2.37c0.16-0.2,0.41-0.3,0.67-0.28l2.05,0.22c0.6,0.06,1.18-0.26,1.42-0.82l0.83-1.88
				c0.1-0.23,0.32-0.4,0.57-0.44c0.45-0.07,0.9-0.11,1.35-0.12c0.46,0,1.86,0.09,2.72,0.29c0.4,0.09,0.65,0.5,0.56,0.9
				c-0.1,0.4-0.5,0.65-0.9,0.56c-0.72-0.17-2-0.25-2.36-0.25c-0.24,0-0.49,0.02-0.73,0.05l-0.66,1.49
				c-0.51,1.16-1.69,1.85-2.96,1.71l-1.63-0.18c-0.29,0.4-0.53,0.83-0.73,1.28l0.97,1.32c0.75,1.02,0.75,2.39,0,3.41l-0.97,1.32
				c0.2,0.45,0.45,0.88,0.74,1.28l1.63-0.18c1.25-0.14,2.45,0.55,2.96,1.71l0.66,1.5c0.49,0.05,0.98,0.05,1.47,0l0.66-1.5
				c0.51-1.16,1.69-1.85,2.96-1.71l1.63,0.18c0.29-0.4,0.53-0.83,0.74-1.28l-0.97-1.32c-0.75-1.02-0.75-2.39,0-3.41l0.98-1.34
				c-0.32-0.7-1.1-1.89-1.75-2.55c-0.29-0.3-0.29-0.77,0.01-1.06c0.3-0.29,0.77-0.29,1.06,0.01c0.9,0.91,2.01,2.66,2.25,3.52
				c0.06,0.22,0.02,0.46-0.12,0.64l-1.22,1.66c-0.36,0.49-0.36,1.15,0,1.64l1.22,1.66c0.15,0.21,0.19,0.47,0.1,0.71
				c-0.33,0.86-0.79,1.66-1.37,2.37c-0.16,0.2-0.41,0.3-0.67,0.28l-2.05-0.22c-0.61-0.07-1.18,0.26-1.42,0.82l-0.83,1.88
				c-0.1,0.23-0.31,0.39-0.56,0.44C25,35.12,24.54,35.16,24.08,35.16z"/>
		</g>
	</g>
</g>
<g id="Rectángulo_4657">
	<rect class="st1" width="47" height="47"/>
</g>
</svg>
