<svg xmlns="http://www.w3.org/2000/svg" width="47" height="134.742" viewBox="0 0 47 134.742">
  <g id="Grupo_18915" data-name="Grupo 18915" transform="translate(-1039.209 -1943.815)">
    <g id="Grupo_18735" data-name="Grupo 18735">
      <line id="Línea_2119" data-name="Línea 2119" y2="82.202" transform="translate(1062.778 1992.27)" fill="none" stroke="#505d6c" stroke-width="1" opacity="0.29"/>
      <g id="Trazado_12540" data-name="Trazado 12540" transform="translate(1058.278 2069.557)" fill="#fff">
        <path d="M 4.5 8 C 2.570090055465698 8 1 6.429910182952881 1 4.5 C 1 2.570090055465698 2.570090055465698 1 4.5 1 C 6.429910182952881 1 8 2.570090055465698 8 4.5 C 8 5.237659931182861 7.764450073242188 5.91195011138916 7.236249923706055 6.68632984161377 L 7.231080055236816 6.693910121917725 L 7.226049900054932 6.701580047607422 C 6.816100120544434 7.326940059661865 5.788169860839844 8 4.5 8 Z" stroke="none"/>
        <path d="M 4.5 2 C 3.121500015258789 2 2 3.121500015258789 2 4.5 C 2 5.878499984741211 3.121500015258789 7 4.5 7 C 5.472350120544434 7 6.175139904022217 6.480679988861084 6.389729976654053 6.153340339660645 L 6.410130023956299 6.122829914093018 C 6.929920196533203 5.360790252685547 7 4.874849796295166 7 4.5 C 7 3.121500015258789 5.878499984741211 2 4.5 2 M 4.5 0 C 6.98528003692627 0 9 2.01471996307373 9 4.5 C 9 5.424520015716553 8.721199989318848 6.283929824829102 8.062370300292969 7.249819755554199 C 7.435930252075195 8.205430030822754 6.060760021209717 9 4.5 9 C 2.01471996307373 9 0 6.98528003692627 0 4.5 C 0 2.01471996307373 2.01471996307373 0 4.5 0 Z" stroke="none" fill="#00af00"/>
      </g>
    </g>
    <g id="Capa_1" data-name="Capa 1" transform="translate(1039.209 1943.815)">
      <g id="Grupo_19027" data-name="Grupo 19027">
        <g id="Grupo_19026" data-name="Grupo 19026">
          <path id="Trazado_19218" data-name="Trazado 19218" d="M33.76,29.27H13.24V27.51a1.677,1.677,0,0,1,1.68-1.68H32.08a1.677,1.677,0,0,1,1.68,1.68Z" fill="none" stroke="#97a5af" stroke-linecap="round" stroke-linejoin="round" stroke-width="1.5"/>
          <path id="Trazado_19219" data-name="Trazado 19219" d="M23.3,19.91H19.44v5.92h8.12V23.19" fill="none" stroke="#97a5af" stroke-linecap="round" stroke-linejoin="round" stroke-width="1.5"/>
          <path id="Trazado_19220" data-name="Trazado 19220" d="M22.27,19.91h-4.3a1.139,1.139,0,0,1-1.14-1.14v-1.3a1.139,1.139,0,0,1,1.14-1.14h5.16" fill="none" stroke="#97a5af" stroke-linecap="round" stroke-linejoin="round" stroke-width="1.5"/>
          <path id="Trazado_19221" data-name="Trazado 19221" d="M26.05,13.53V9.45h-5.1v6.88h2.37" fill="none" stroke="#97a5af" stroke-linecap="round" stroke-linejoin="round" stroke-width="1.5"/>
          <rect id="Rectángulo_5642" data-name="Rectángulo 5642" width="5.09" height="3.16" transform="translate(20.95 29.27)" fill="none" stroke="#97a5af" stroke-linecap="round" stroke-linejoin="round" stroke-width="1.5"/>
          <path id="Trazado_19222" data-name="Trazado 19222" d="M38.57,7.65a1.805,1.805,0,0,1-1.8,1.8H10.22a1.805,1.805,0,0,1-1.8-1.8V6.43a1.805,1.805,0,0,1,1.8-1.8H36.77a1.805,1.805,0,0,1,1.8,1.8Z" fill="none" stroke="#97a5af" stroke-linecap="round" stroke-linejoin="round" stroke-width="1.5"/>
          <line id="Línea_4171" data-name="Línea 4171" x1="6.72" y1="6.72" transform="translate(14.23 9.61)" fill="none" stroke="#97a5af" stroke-linecap="round" stroke-linejoin="round" stroke-width="1.5"/>
          <line id="Línea_4172" data-name="Línea 4172" y1="3.5" x2="3.49" transform="translate(29.3 9.61)" fill="none" stroke="#97a5af" stroke-linecap="round" stroke-linejoin="round" stroke-width="1.5"/>
          <rect id="Rectángulo_5643" data-name="Rectángulo 5643" width="26.49" height="8.52" transform="translate(10.25 32.43)" fill="none" stroke="#97a5af" stroke-linecap="round" stroke-linejoin="round" stroke-width="1.5"/>
          <rect id="Rectángulo_5644" data-name="Rectángulo 5644" width="4.59" height="11.39" transform="translate(36.75 30.98)" fill="none" stroke="#97a5af" stroke-linecap="round" stroke-linejoin="round" stroke-width="1.5"/>
          <rect id="Rectángulo_5645" data-name="Rectángulo 5645" width="4.59" height="11.39" transform="translate(5.66 30.98)" fill="none" stroke="#97a5af" stroke-linecap="round" stroke-linejoin="round" stroke-width="1.5"/>
        </g>
        <path id="Trazado_5703" data-name="Trazado 5703" d="M31.37,18.12a3.27,3.27,0,1,1,0-.04Z" fill="none" stroke="#00a800" stroke-linecap="round" stroke-linejoin="round" stroke-width="1.5"/>
        <rect id="Rectángulo_3799-2" data-name="Rectángulo 3799-2" width="47" height="47" fill="none"/>
      </g>
    </g>
  </g>
</svg>
