<svg id="Capa_1" data-name="Capa 1" xmlns="http://www.w3.org/2000/svg" viewBox="0 0 47 47"><defs><style>.cls-1{fill:none;}.cls-2{fill:#fff;}</style></defs><title>icono_menu-seguridad_hse</title><rect class="cls-1" width="47" height="47"/><g id="Línea_2165" data-name="Línea 2165"><path class="cls-2" d="M37.9,40.2H5.6a.7.7,0,1,1,0-1.4H37.9a.7.7,0,1,1,0,1.4Z"/></g><g id="Trazado_11531" data-name="Trazado 11531"><path class="cls-2" d="M9.3,40.2a.7.7,0,0,1-.7-.7V12.2a4,4,0,0,1,4-4.1h14a4,4,0,0,1,4,4.1V26.1a.8.8,0,0,1-.7.8.9.9,0,0,1-.8-.8V12.2a2.5,2.5,0,0,0-2.5-2.6h-14a2.5,2.5,0,0,0-2.5,2.6V39.5A.8.8,0,0,1,9.3,40.2Z"/></g><g id="Línea_2166" data-name="Línea 2166"><path class="cls-2" d="M29.9,14.8H9.3a.7.7,0,0,1-.7-.8.7.7,0,0,1,.7-.7H29.9a.7.7,0,0,1,.7.7A.7.7,0,0,1,29.9,14.8Z"/></g><g id="Línea_2167" data-name="Línea 2167"><path class="cls-2" d="M14.9,40.2a.7.7,0,0,1-.8-.7V14a.7.7,0,0,1,.8-.7.7.7,0,0,1,.7.7V39.5A.7.7,0,0,1,14.9,40.2Z"/></g><g id="Línea_2168" data-name="Línea 2168"><path class="cls-2" d="M14.9,18.7H9.3a.7.7,0,0,1-.7-.7.8.8,0,0,1,.7-.8h5.6a.8.8,0,0,1,.7.8A.7.7,0,0,1,14.9,18.7Z"/></g><g id="Línea_2169" data-name="Línea 2169"><path class="cls-2" d="M14.9,22.7H9.3a.8.8,0,0,1-.7-.8.7.7,0,0,1,.7-.7h5.6a.7.7,0,0,1,.7.7A.8.8,0,0,1,14.9,22.7Z"/></g><g id="Línea_2170" data-name="Línea 2170"><path class="cls-2" d="M14.9,26.6H9.3a.7.7,0,0,1-.7-.7.8.8,0,0,1,.7-.8h5.6a.8.8,0,0,1,.7.8A.7.7,0,0,1,14.9,26.6Z"/></g><g id="Línea_2171" data-name="Línea 2171"><path class="cls-2" d="M14.9,30.6H9.3a.8.8,0,0,1-.7-.8.7.7,0,0,1,.7-.7h5.6a.7.7,0,0,1,.7.7A.8.8,0,0,1,14.9,30.6Z"/></g><g id="Línea_2172" data-name="Línea 2172"><path class="cls-2" d="M14.9,34.5H9.3a.7.7,0,0,1-.7-.7.8.8,0,0,1,.7-.8h5.6a.8.8,0,0,1,.7.8A.7.7,0,0,1,14.9,34.5Z"/></g><g id="Trazado_11533" data-name="Trazado 11533"><path class="cls-2" d="M30.5,21.4a.8.8,0,0,1-.7-.5c-.1-.3-1.3-5.6,1.3-9.5s8-4.6,8.3-4.6a.6.6,0,0,1,.8.5c.1.2,1.4,5.6-1.3,9.5h0c-2.6,3.8-8,4.6-8.3,4.6Zm8.4-13c-1.5.3-4.8,1.3-6.6,3.9s-1.4,6-1.2,7.5c1.5-.3,4.8-1.3,6.6-3.9S39.1,9.8,38.9,8.4Zm-.6,7.9Z"/></g><g id="Línea_2173" data-name="Línea 2173"><path class="cls-2" d="M30.5,21.4h-.4a.8.8,0,0,1-.2-1l5.3-7.9a.9.9,0,0,1,1.1-.2.9.9,0,0,1,.2,1.1l-5.3,7.8A.9.9,0,0,1,30.5,21.4Z"/></g><g id="Línea_2174" data-name="Línea 2174"><path class="cls-2" d="M33.5,17.1a.9.9,0,0,1-.8-.6l-.4-2.2a.9.9,0,0,1,.7-.9.7.7,0,0,1,.8.7l.4,2.1a.8.8,0,0,1-.6.9Z"/></g><g id="Línea_2175" data-name="Línea 2175"><path class="cls-2" d="M33.5,17.1a.8.8,0,0,1-.8-.6.9.9,0,0,1,.6-.9l2.3-.4a.8.8,0,0,1,.3,1.5l-2.3.4Z"/></g><g id="Trazado_11534" data-name="Trazado 11534"><path class="cls-2" d="M37.4,24.9h0c-4.1,0-7.3-3.6-7.4-3.7a.8.8,0,0,1,0-1.1.9.9,0,0,1,1.1.1s2.9,3.2,6.3,3.2h0c2.5,0,4.8-1.7,5.8-2.6-1-.9-3.2-2.7-5.7-2.7a.7.7,0,0,1-.7-.8.8.8,0,0,1,.7-.7c4,.1,7.2,3.5,7.3,3.7a.8.8,0,0,1,0,1C44.7,21.4,41.4,24.9,37.4,24.9Z"/></g><g id="Línea_2176" data-name="Línea 2176"><path class="cls-2" d="M39.5,21.5h-9a.7.7,0,0,1-.7-.7.8.8,0,0,1,.7-.8h9a.7.7,0,0,1,.7.8A.7.7,0,0,1,39.5,21.5Z"/></g><g id="Línea_2177" data-name="Línea 2177"><path class="cls-2" d="M37.1,21.5l-.5-.2a.8.8,0,0,1,0-1.1L38,18.8a.8.8,0,0,1,1.1,0,.9.9,0,0,1,0,1.1l-1.5,1.4Z"/></g><g id="Línea_2178" data-name="Línea 2178"><path class="cls-2" d="M36.4,22.9l-.5-.2-1.4-1.5a.7.7,0,0,1,0-1,.8.8,0,0,1,1.1,0L37,21.6a.8.8,0,0,1,0,1.1Z"/></g><g id="Elipse_2130" data-name="Elipse 2130"><path class="cls-2" d="M29.9,34.7a3.5,3.5,0,0,1-3.5-3.5,3.5,3.5,0,1,1,7,0A3.5,3.5,0,0,1,29.9,34.7Zm0-5.5a2,2,0,1,0,2,2A2,2,0,0,0,29.9,29.2Z"/></g><path class="cls-2" d="M29.9,40.2a.8.8,0,0,1-.8-.7V36.3a.8.8,0,0,1,.8-.8.7.7,0,0,1,.7.8v3.2A.7.7,0,0,1,29.9,40.2Z"/></svg>