<?xml version="1.0" encoding="utf-8"?>
<!-- Generator: Adobe Illustrator 24.0.2, SVG Export Plug-In . SVG Version: 6.00 Build 0)  -->
<svg version="1.1" xmlns="http://www.w3.org/2000/svg" xmlns:xlink="http://www.w3.org/1999/xlink" x="0px" y="0px"
	 viewBox="0 0 47 47" style="enable-background:new 0 0 47 47;" xml:space="preserve">
<style type="text/css">
	.st0{display:none;}
	.st1{display:inline;fill:#98A6B0;}
	.st2{fill:none;}
	.st3{fill:none;stroke:#95A6B1;stroke-width:1.5;stroke-linecap:round;stroke-linejoin:round;}
	.st4{fill:none;stroke:#00A800;stroke-width:1.5;stroke-linecap:round;stroke-linejoin:round;stroke-miterlimit:10;}
	.st5{fill:none;stroke:#FFFFFF;stroke-width:1.5;stroke-linecap:round;stroke-linejoin:round;stroke-miterlimit:10;}
	.st6{fill:none;stroke:#FFFFFF;stroke-width:1.5;stroke-linecap:round;stroke-linejoin:round;}
</style>
<g id="BASE" class="st0">
</g>
<g id="Capa_1">
	<g>
		<rect x="0.07" class="st2" width="46.93" height="47"/>
		<g>
			<g>
				<polyline class="st3" points="24.99,18.72 22.53,22.07 24.99,22.07 22.63,25.51 				"/>
				<circle class="st3" cx="23.76" cy="22.12" r="5.61"/>
			</g>
			<g>
				<g>
					<g>
						<line class="st3" x1="38.16" y1="6.23" x2="38.16" y2="4.18"/>
						<line class="st3" x1="38.16" y1="17.02" x2="38.16" y2="19.07"/>
						<line class="st3" x1="38.16" y1="6.23" x2="38.16" y2="4.18"/>
						<line class="st3" x1="38.16" y1="17.02" x2="38.16" y2="19.07"/>
						<line class="st3" x1="43.55" y1="11.63" x2="45.61" y2="11.63"/>
						<line class="st3" x1="30.71" y1="11.63" x2="32.76" y2="11.63"/>
						<line class="st3" x1="41.97" y1="7.81" x2="43.42" y2="6.36"/>
						<line class="st3" x1="34.34" y1="15.44" x2="32.89" y2="16.89"/>
						<line class="st3" x1="41.97" y1="15.44" x2="43.42" y2="16.89"/>
						<line class="st3" x1="34.34" y1="7.81" x2="32.89" y2="6.36"/>
						<path id="Trazado_12511_2_" class="st4" d="M41.12,10.27c0.34,0.75,0.39,1.59,0.13,2.37c-0.28,0.86-0.91,1.56-1.73,1.94
							c-1.63,0.75-3.56,0.03-4.31-1.61c0,0,0,0,0,0c-0.75-1.63-0.03-3.56,1.61-4.31C38.44,7.92,40.37,8.64,41.12,10.27z"/>
					</g>
					<g>
						<polyline class="st3" points="27.84,11.63 8.21,11.63 1.39,32.34 45.07,32.34 41.17,20.49 						"/>
						<line class="st3" x1="23.76" y1="16.5" x2="23.76" y2="11.63"/>
						<line class="st3" x1="23.76" y1="32.34" x2="23.76" y2="27.73"/>
						<line class="st3" x1="12.35" y1="32.34" x2="15.76" y2="11.63"/>
						<line class="st3" x1="34.82" y1="32.34" x2="32.75" y2="19.77"/>
						<line class="st3" x1="28.07" y1="18.29" x2="29.86" y2="18.29"/>
						<line class="st3" x1="6" y1="18.29" x2="19.65" y2="18.29"/>
						<line class="st3" x1="29.37" y1="24.76" x2="42.33" y2="24.76"/>
						<line class="st3" x1="4.18" y1="24.76" x2="18.15" y2="24.76"/>
						<line class="st3" x1="20.67" y1="32.34" x2="20.67" y2="42.82"/>
						<line class="st3" x1="26.68" y1="32.47" x2="26.68" y2="42.64"/>
						<line class="st3" x1="11.31" y1="42.82" x2="36.21" y2="42.82"/>
					</g>
				</g>
			</g>
		</g>
	</g>
</g>
</svg>
