<svg xmlns="http://www.w3.org/2000/svg" width="47" height="120.336" viewBox="0 0 47 120.336">
  <g id="Grupo_16722" data-name="Grupo 16722" transform="translate(-713 -1906)">
    <line id="Línea_2119" data-name="Línea 2119" y2="67" transform="translate(736.277 1956.77)" fill="none" stroke="#505d6c" stroke-width="1" opacity="0.29"/>
    <g id="Trazado_11273" data-name="Trazado 11273" transform="translate(731.777 2017.336)" fill="#fff">
      <path d="M 4.5 8 C 2.570090055465698 8 1 6.429910182952881 1 4.5 C 1 2.570090055465698 2.570090055465698 1 4.5 1 C 6.429910182952881 1 8 2.570090055465698 8 4.5 C 8 5.237659931182861 7.764450073242188 5.91195011138916 7.236249923706055 6.68632984161377 L 7.231080055236816 6.693910121917725 L 7.226049900054932 6.701580047607422 C 6.816100120544434 7.326940059661865 5.788169860839844 8 4.5 8 Z" stroke="none"/>
      <path d="M 4.5 2 C 3.121500015258789 2 2 3.121500015258789 2 4.5 C 2 5.878499984741211 3.121500015258789 7 4.5 7 C 5.472350120544434 7 6.175139904022217 6.480679988861084 6.389729976654053 6.153340339660645 L 6.399789810180664 6.13798999786377 L 6.410130023956299 6.122829914093018 C 6.929920196533203 5.360790252685547 7 4.874849796295166 7 4.5 C 7 3.121500015258789 5.878499984741211 2 4.5 2 M 4.5 0 C 6.98528003692627 0 9 2.01471996307373 9 4.5 C 9 5.424520015716553 8.721199989318848 6.283929824829102 8.062370300292969 7.249819755554199 C 7.435930252075195 8.205430030822754 6.060760021209717 9 4.5 9 C 2.01471996307373 9 0 6.98528003692627 0 4.5 C 0 2.01471996307373 2.01471996307373 0 4.5 0 Z" stroke="none" fill="#00af00"/>
    </g>
    <g id="Grupo_16057" data-name="Grupo 16057" transform="translate(713 1906)">
      <rect id="Rectángulo_5125" data-name="Rectángulo 5125" width="47" height="47" fill="none"/>
      <path id="Trazado_11848" data-name="Trazado 11848" d="M13.806,9.141a3.9,3.9,0,1,1-3.9-3.9h0a3.883,3.883,0,0,1,3.9,3.868Z" fill="none" stroke="#19a500" stroke-linecap="round" stroke-linejoin="round" stroke-width="1.5"/>
      <g id="Grupo_16057-2" data-name="Grupo 16057">
        <path id="Trazado_17737" data-name="Trazado 17737" d="M36.662,23.416V23.5a13.206,13.206,0,0,1-1.9,6.806,13.22,13.22,0,0,1-2.925,3.37,13.107,13.107,0,0,1-6.471,2.845,12.15,12.15,0,0,1-1.867.139,1.977,1.977,0,0,1-.2-.007,12.9,12.9,0,0,1-5.114-1.116,9.644,9.644,0,0,1-1.058-.526,13.1,13.1,0,0,1-4.063-3.5h-.007a12.654,12.654,0,0,1-.89-1.313,12.97,12.97,0,0,1-1.751-5.267,12.149,12.149,0,0,1-.08-1.371V23.5a13.1,13.1,0,0,1,5.157-10.446,12.434,12.434,0,0,1,1.518-1.006,12.861,12.861,0,0,1,4.508-1.561,12.709,12.709,0,0,1,1.984-.154,2.268,2.268,0,0,1,.233.008A12.958,12.958,0,0,1,29,11.54a10.758,10.758,0,0,1,1.109.584,12.919,12.919,0,0,1,4.019,3.625,12.085,12.085,0,0,1,.854,1.32,13.1,13.1,0,0,1,1.59,4.91A13.343,13.343,0,0,1,36.662,23.416Z" fill="none" stroke="#95a6b1" stroke-linecap="round" stroke-linejoin="round" stroke-width="1.5"/>
        <path id="Trazado_17738" data-name="Trazado 17738" d="M15.71,5.941A19.2,19.2,0,1,1,6.477,14.6" fill="none" stroke="#95a6b1" stroke-linecap="round" stroke-linejoin="round" stroke-width="1.5"/>
        <path id="Trazado_17739" data-name="Trazado 17739" d="M23.386,19.513a10.888,10.888,0,0,0,.35-9.169,2.268,2.268,0,0,0-.233-.008,12.709,12.709,0,0,0-1.984.154,12.873,12.873,0,0,0-4.509,1.561,12.5,12.5,0,0,0-1.517,1.006A13.162,13.162,0,0,0,10.336,23.5v.059a12.149,12.149,0,0,0,.08,1.371" fill="none" stroke="#95a6b1" stroke-linecap="round" stroke-linejoin="round" stroke-width="1.5"/>
        <line id="Línea_3546" data-name="Línea 3546" x1="0.007" transform="translate(13.057 31.513)" fill="none" stroke="#95a6b1" stroke-linecap="round" stroke-linejoin="round" stroke-width="1.5"/>
        <path id="Trazado_17740" data-name="Trazado 17740" d="M17.01,12.051a10.832,10.832,0,0,1,4.5,7.987" fill="none" stroke="#95a6b1" stroke-linecap="round" stroke-linejoin="round" stroke-width="1.5"/>
        <path id="Trazado_17741" data-name="Trazado 17741" d="M19.994,21.578A10.837,10.837,0,0,0,12.225,16.7,13.315,13.315,0,0,0,10.336,23.5v.059a12.149,12.149,0,0,0,.08,1.371A12.97,12.97,0,0,0,12.167,30.2a12.654,12.654,0,0,0,.89,1.313h.007a13.1,13.1,0,0,0,4.063,3.5,9.644,9.644,0,0,0,1.058.526" fill="none" stroke="#95a6b1" stroke-linecap="round" stroke-linejoin="round" stroke-width="1.5"/>
        <path id="Trazado_17742" data-name="Trazado 17742" d="M19.5,23.547a10.866,10.866,0,0,0-9.169.015,12.149,12.149,0,0,0,.08,1.371A12.97,12.97,0,0,0,12.167,30.2a12.654,12.654,0,0,0,.89,1.313h.007a13.1,13.1,0,0,0,4.063,3.5,9.644,9.644,0,0,0,1.058.526A12.9,12.9,0,0,0,23.3,36.656a1.977,1.977,0,0,0,.2.007,12.15,12.15,0,0,0,1.867-.139" fill="none" stroke="#95a6b1" stroke-linecap="round" stroke-linejoin="round" stroke-width="1.5"/>
        <path id="Trazado_17743" data-name="Trazado 17743" d="M19.979,25.393A10.855,10.855,0,0,0,12.167,30.2a12.654,12.654,0,0,0,.89,1.313h.007a13.1,13.1,0,0,0,4.063,3.5,9.644,9.644,0,0,0,1.058.526A12.9,12.9,0,0,0,23.3,36.656a1.977,1.977,0,0,0,.2.007,12.15,12.15,0,0,0,1.867-.139,13.107,13.107,0,0,0,6.471-2.845" fill="none" stroke="#95a6b1" stroke-linecap="round" stroke-linejoin="round" stroke-width="1.5"/>
        <path id="Trazado_17744" data-name="Trazado 17744" d="M21.373,26.881a10.854,10.854,0,0,0-4.246,8.133,9.644,9.644,0,0,0,1.058.526A12.9,12.9,0,0,0,23.3,36.656a1.977,1.977,0,0,0,.2.007,12.15,12.15,0,0,0,1.867-.139,13.107,13.107,0,0,0,6.471-2.845,13.22,13.22,0,0,0,2.925-3.37A12.919,12.919,0,0,0,35.867,28" fill="none" stroke="#95a6b1" stroke-linecap="round" stroke-linejoin="round" stroke-width="1.5"/>
        <path id="Trazado_17745" data-name="Trazado 17745" d="M23.576,27.486a10.922,10.922,0,0,0-.277,9.17,1.977,1.977,0,0,0,.2.007,12.15,12.15,0,0,0,1.867-.139,13.107,13.107,0,0,0,6.471-2.845,13.22,13.22,0,0,0,2.925-3.37,13.206,13.206,0,0,0,1.9-6.806v-.087a13.343,13.343,0,0,0-.087-1.437" fill="none" stroke="#95a6b1" stroke-linecap="round" stroke-linejoin="round" stroke-width="1.5"/>
        <path id="Trazado_17746" data-name="Trazado 17746" d="M34.131,15.749a12.085,12.085,0,0,1,.854,1.32,13.1,13.1,0,0,1,1.59,4.91,13.343,13.343,0,0,1,.087,1.437V23.5a13.206,13.206,0,0,1-1.9,6.806,13.22,13.22,0,0,1-2.925,3.37,12.687,12.687,0,0,1-1.875,1.284,10.847,10.847,0,0,1-4.216-8.155V26.8" fill="none" stroke="#95a6b1" stroke-linecap="round" stroke-linejoin="round" stroke-width="1.5"/>
        <path id="Trazado_17747" data-name="Trazado 17747" d="M29,11.54a10.758,10.758,0,0,1,1.109.584,12.932,12.932,0,0,1,4.019,3.625,12.085,12.085,0,0,1,.854,1.32,13.1,13.1,0,0,1,1.59,4.91,13.343,13.343,0,0,1,.087,1.437V23.5a13.206,13.206,0,0,1-1.9,6.806A10.9,10.9,0,0,1,27.1,25.232" fill="none" stroke="#95a6b1" stroke-linecap="round" stroke-linejoin="round" stroke-width="1.5"/>
        <path id="Trazado_17748" data-name="Trazado 17748" d="M27.493,23.525a10.8,10.8,0,0,0,4.457.956,10.97,10.97,0,0,0,4.712-1.065,13.343,13.343,0,0,0-.087-1.437,13.1,13.1,0,0,0-1.59-4.91,12.085,12.085,0,0,0-.854-1.32,12.932,12.932,0,0,0-4.019-3.625A10.758,10.758,0,0,0,29,11.54a12.958,12.958,0,0,0-5.267-1.2,2.268,2.268,0,0,0-.233-.008,12.709,12.709,0,0,0-1.984.154" fill="none" stroke="#95a6b1" stroke-linecap="round" stroke-linejoin="round" stroke-width="1.5"/>
        <path id="Trazado_17749" data-name="Trazado 17749" d="M27,21.585a10.9,10.9,0,0,0,7.981-4.516" fill="none" stroke="#95a6b1" stroke-linecap="round" stroke-linejoin="round" stroke-width="1.5"/>
        <path id="Trazado_17750" data-name="Trazado 17750" d="M25.713,20.17a10.822,10.822,0,0,0,4.4-8.046A10.758,10.758,0,0,0,29,11.54a12.958,12.958,0,0,0-5.267-1.2,2.268,2.268,0,0,0-.233-.008,12.709,12.709,0,0,0-1.984.154,12.873,12.873,0,0,0-4.509,1.561,12.5,12.5,0,0,0-1.517,1.006,12.951,12.951,0,0,0-4.267,5.69" fill="none" stroke="#95a6b1" stroke-linecap="round" stroke-linejoin="round" stroke-width="1.5"/>
        <circle id="Elipse_2590" data-name="Elipse 2590" cx="3.991" cy="3.991" r="3.991" transform="translate(19.509 19.509)" fill="none" stroke="#95a6b1" stroke-linecap="round" stroke-linejoin="round" stroke-width="1.5"/>
      </g>
    </g>
  </g>
</svg>
