<svg id="Capa_1" data-name="Capa 1" xmlns="http://www.w3.org/2000/svg" viewBox="0 0 47 47"><defs><style>.cls-1{fill:none;}.cls-2{fill:#19a500;}.cls-3{fill:#95a6b1;}</style></defs><title>unidad_de_transferencia</title><rect class="cls-1" y="-6.5" width="60" height="60"/><rect class="cls-1" y="-6.5" width="60" height="60"/><g id="Rectángulo_5125" data-name="Rectángulo 5125"><rect class="cls-1" width="47" height="47"/></g><g id="Trazado_11848" data-name="Trazado 11848"><path class="cls-2" d="M9.9,13.8A4.6,4.6,0,0,1,5.3,9.1,4.6,4.6,0,0,1,9.9,4.5h0a4.7,4.7,0,0,1,4.7,4.6h0A4.7,4.7,0,0,1,9.9,13.8ZM9.9,6h0a3.2,3.2,0,0,0,0,6.3,3.2,3.2,0,0,0,3.2-3.2h0a3.2,3.2,0,0,0-1-2.2A2.9,2.9,0,0,0,9.9,6Z"/></g><path class="cls-3" d="M23.5,37.4h-.3a12.4,12.4,0,0,1-5.3-1.2l-1.1-.5A13.9,13.9,0,0,1,12.5,32h0l-1-1.4A13.7,13.7,0,0,1,9.7,25a7.1,7.1,0,0,1-.1-1.4,14.4,14.4,0,0,1,.9-5.1,11.3,11.3,0,0,1,1.1-2.2A13.8,13.8,0,0,1,15,12.5l1.6-1.1a16.2,16.2,0,0,1,4.8-1.7,9.7,9.7,0,0,1,2.4-.1,13.1,13.1,0,0,1,5.5,1.3l1.2.6a13.8,13.8,0,0,1,4.2,3.8,5.5,5.5,0,0,1,.9,1.4,13.8,13.8,0,0,1,1.7,5.2,8.6,8.6,0,0,1,.1,1.5h0a15.1,15.1,0,0,1-.8,4.8,13.4,13.4,0,0,1-1.2,2.4,13.4,13.4,0,0,1-3.1,3.6,13.7,13.7,0,0,1-2,1.3,13.8,13.8,0,0,1-4.8,1.7ZM13.6,31h.1a13.5,13.5,0,0,0,3.8,3.3l1,.4a11.3,11.3,0,0,0,4.8,1.1h2a11.1,11.1,0,0,0,4.3-1.5,9.4,9.4,0,0,0,1.8-1.2,11.8,11.8,0,0,0,2.7-3.2,21.2,21.2,0,0,0,1.1-2.1,12.5,12.5,0,0,0,.7-4.3h0a6.2,6.2,0,0,0-.1-1.3,12.9,12.9,0,0,0-1.5-4.7,8.3,8.3,0,0,0-.8-1.2,11.2,11.2,0,0,0-3.8-3.4l-1-.6a12.2,12.2,0,0,0-5-1.1H21.6a12.4,12.4,0,0,0-4.2,1.5,7.1,7.1,0,0,0-1.4,1,10.1,10.1,0,0,0-3.1,3.4,17.4,17.4,0,0,0-1,1.9,13.8,13.8,0,0,0-.8,4.5,5.3,5.3,0,0,0,.1,1.3,12.3,12.3,0,0,0,1.6,5Z"/><path class="cls-3" d="M23.5,43.5a20.1,20.1,0,0,1-20-20,19.6,19.6,0,0,1,2.3-9.2.8.8,0,0,1,1-.4.7.7,0,0,1,.3,1A19.8,19.8,0,0,0,5,23.5,18.5,18.5,0,1,0,23.5,5,19.4,19.4,0,0,0,16,6.6a.7.7,0,0,1-1-.4.7.7,0,0,1,.4-.9,19.1,19.1,0,0,1,8.1-1.8,20,20,0,0,1,0,40Z"/><path class="cls-3" d="M10.4,25.7a.7.7,0,0,1-.7-.7,7.1,7.1,0,0,1-.1-1.4,14.4,14.4,0,0,1,.9-5.1,11.3,11.3,0,0,1,1.1-2.2A13.8,13.8,0,0,1,15,12.5l1.6-1.1a16.2,16.2,0,0,1,4.8-1.7,9.7,9.7,0,0,1,2.4-.1.6.6,0,0,1,.6.5,11.3,11.3,0,0,1,.9,4.5,12.4,12.4,0,0,1-1.2,5.3.9.9,0,0,1-1.1.3.8.8,0,0,1-.3-1,9.5,9.5,0,0,0,1.1-4.6,10.3,10.3,0,0,0-.6-3.5H21.6a12.4,12.4,0,0,0-4.2,1.5,7.1,7.1,0,0,0-1.4,1,10.1,10.1,0,0,0-3.1,3.4,17.4,17.4,0,0,0-1,1.9,13.8,13.8,0,0,0-.8,4.5,5.3,5.3,0,0,0,.1,1.3.9.9,0,0,1-.7.9Z"/><path class="cls-3" d="M13.1,32.3h0a.8.8,0,0,1-.8-.8.7.7,0,0,1,.8-.7.7.7,0,0,1,.7.7A.8.8,0,0,1,13.1,32.3Z"/><path class="cls-3" d="M21.5,20.8a.7.7,0,0,1-.7-.7,10.2,10.2,0,0,0-4.2-7.4.8.8,0,0,1-.2-1.1.8.8,0,0,1,1-.2A12.1,12.1,0,0,1,22.3,20a.8.8,0,0,1-.7.8Z"/><path class="cls-3" d="M18.2,36.3h-.3l-1.1-.5A13.9,13.9,0,0,1,12.5,32h0l-1-1.4A13.7,13.7,0,0,1,9.7,25a7.1,7.1,0,0,1-.1-1.4,14.4,14.4,0,0,1,.9-5.1,11.3,11.3,0,0,1,1.1-2.2.6.6,0,0,1,.7-.3,11.3,11.3,0,0,1,8.3,5.2.7.7,0,1,1-1.2.8,10.3,10.3,0,0,0-6.8-4.5,10.1,10.1,0,0,0-.7,1.5,13.8,13.8,0,0,0-.8,4.5,5.3,5.3,0,0,0,.1,1.3,12.3,12.3,0,0,0,1.6,5l.8,1.2h.1a13.5,13.5,0,0,0,3.8,3.3l1,.4a.8.8,0,0,1,.4,1A.8.8,0,0,1,18.2,36.3Z"/><path class="cls-3" d="M23.5,37.4h-.3a12.4,12.4,0,0,1-5.3-1.2l-1.1-.5A13.9,13.9,0,0,1,12.5,32h0l-1-1.4A13.7,13.7,0,0,1,9.7,25a7.1,7.1,0,0,1-.1-1.4.8.8,0,0,1,.4-.7,11.2,11.2,0,0,1,9.8,0,.7.7,0,0,1,.4,1,.8.8,0,0,1-1,.3,10.4,10.4,0,0,0-8.1-.2,1.9,1.9,0,0,0,.1.8,12.3,12.3,0,0,0,1.6,5l.8,1.2h.1a13.5,13.5,0,0,0,3.8,3.3l1,.4a11.3,11.3,0,0,0,4.8,1.1h2c.4-.1.7.2.8.6a.8.8,0,0,1-.6.9Z"/><path class="cls-3" d="M23.5,37.4h-.3a12.4,12.4,0,0,1-5.3-1.2l-1.1-.5A13.9,13.9,0,0,1,12.5,32h0l-1-1.4a1.1,1.1,0,0,1,0-.8,11.7,11.7,0,0,1,8.4-5.2.8.8,0,0,1,.8.7.6.6,0,0,1-.6.8,10.2,10.2,0,0,0-7,4.1,3.5,3.5,0,0,0,.5.8h.1a13.5,13.5,0,0,0,3.8,3.3l1,.4a11.3,11.3,0,0,0,4.8,1.1h2a11.1,11.1,0,0,0,4.3-1.5,9.4,9.4,0,0,0,1.8-1.2.7.7,0,0,1,1,.1.8.8,0,0,1-.1,1.1,13.7,13.7,0,0,1-2,1.3,13.8,13.8,0,0,1-4.8,1.7Z"/><path class="cls-3" d="M23.5,37.4h-.3a12.4,12.4,0,0,1-5.3-1.2l-1.1-.5a.8.8,0,0,1-.4-.7,11.5,11.5,0,0,1,4.5-8.7.8.8,0,1,1,.9,1.2,10.4,10.4,0,0,0-3.9,7.1l.6.2a11.3,11.3,0,0,0,4.8,1.1h2a11.1,11.1,0,0,0,4.3-1.5,9.4,9.4,0,0,0,1.8-1.2,11.8,11.8,0,0,0,2.7-3.2,21.2,21.2,0,0,0,1.1-2.1.7.7,0,0,1,.9-.5.8.8,0,0,1,.5,1,13.4,13.4,0,0,1-1.2,2.4,13.4,13.4,0,0,1-3.1,3.6,13.7,13.7,0,0,1-2,1.3,13.8,13.8,0,0,1-4.8,1.7Z"/><path class="cls-3" d="M23.5,37.4h-.3a.6.6,0,0,1-.6-.5,11.7,11.7,0,0,1-.9-4.5,12.1,12.1,0,0,1,1.2-5.3.8.8,0,0,1,1-.3.7.7,0,0,1,.3,1,10.8,10.8,0,0,0-.4,8.1h1.5a11.1,11.1,0,0,0,4.3-1.5,9.4,9.4,0,0,0,1.8-1.2,11.8,11.8,0,0,0,2.7-3.2,21.2,21.2,0,0,0,1.1-2.1,12.5,12.5,0,0,0,.7-4.3,6.6,6.6,0,0,0-.1-1.4.9.9,0,0,1,.7-.9.8.8,0,0,1,.8.7,8.6,8.6,0,0,1,.1,1.5,15.3,15.3,0,0,1-.8,4.9,13.4,13.4,0,0,1-1.2,2.4,13.4,13.4,0,0,1-3.1,3.6,13.7,13.7,0,0,1-2,1.3,13.8,13.8,0,0,1-4.8,1.7Z"/><path class="cls-3" d="M30,35.7h-.5A11.7,11.7,0,0,1,25,26.8h1.5A10.4,10.4,0,0,0,30,34.1l1.4-1a11.8,11.8,0,0,0,2.7-3.2,21.2,21.2,0,0,0,1.1-2.1,12.5,12.5,0,0,0,.7-4.3,6.6,6.6,0,0,0-.1-1.4,12.9,12.9,0,0,0-1.5-4.7,8.3,8.3,0,0,0-.8-1.2.9.9,0,0,1,.2-1.1.8.8,0,0,1,1,.2,5.5,5.5,0,0,1,.9,1.4,13.8,13.8,0,0,1,1.7,5.2,8.6,8.6,0,0,1,.1,1.5,15.3,15.3,0,0,1-.8,4.9,13.4,13.4,0,0,1-1.2,2.4,13.4,13.4,0,0,1-3.1,3.6,13.7,13.7,0,0,1-2,1.3Z"/><path class="cls-3" d="M34.8,31.1h-.1a11.8,11.8,0,0,1-8.2-5.5.7.7,0,0,1,.2-1,.8.8,0,0,1,1,.2,10.1,10.1,0,0,0,6.7,4.7c.3-.6.5-1.2.8-1.7a12.5,12.5,0,0,0,.7-4.3,6.6,6.6,0,0,0-.1-1.4,12.9,12.9,0,0,0-1.5-4.7,8.3,8.3,0,0,0-.8-1.2,11.2,11.2,0,0,0-3.8-3.4l-1-.6a.7.7,0,0,1-.4-1,.7.7,0,0,1,1-.3l1.2.6a13.8,13.8,0,0,1,4.2,3.8,5.5,5.5,0,0,1,.9,1.4,13.8,13.8,0,0,1,1.7,5.2,8.6,8.6,0,0,1,.1,1.5,15.3,15.3,0,0,1-.8,4.9,13.4,13.4,0,0,1-1.2,2.4A.8.8,0,0,1,34.8,31.1Z"/><path class="cls-3" d="M32,25.2a11.2,11.2,0,0,1-4.8-1,.7.7,0,0,1-.4-1,.8.8,0,0,1,1-.4,9.9,9.9,0,0,0,8.1.1,2.5,2.5,0,0,0-.1-.8,12.9,12.9,0,0,0-1.5-4.7,8.3,8.3,0,0,0-.8-1.2,11.2,11.2,0,0,0-3.8-3.4l-1-.6a12.2,12.2,0,0,0-5-1.1H21.6a.6.6,0,0,1-.8-.6.8.8,0,0,1,.6-.9,9.7,9.7,0,0,1,2.4-.1,13.1,13.1,0,0,1,5.5,1.3l1.2.6a13.8,13.8,0,0,1,4.2,3.8,5.5,5.5,0,0,1,.9,1.4,13.8,13.8,0,0,1,1.7,5.2,8.6,8.6,0,0,1,.1,1.5.8.8,0,0,1-.4.7A12.5,12.5,0,0,1,32,25.2Z"/><path class="cls-3" d="M27,22.3a.7.7,0,0,1-.7-.7c-.1-.4.2-.7.6-.8a10,10,0,0,0,7.5-4.2.7.7,0,0,1,1-.1.7.7,0,0,1,.2,1,11.3,11.3,0,0,1-8.5,4.8Z"/><path class="cls-3" d="M25.7,20.9a.9.9,0,0,1-.6-.3.7.7,0,0,1,.2-1,10.1,10.1,0,0,0,4-7.1l-.6-.3a12.2,12.2,0,0,0-5-1.1H21.6a12.4,12.4,0,0,0-4.2,1.5,7.1,7.1,0,0,0-1.4,1,10.1,10.1,0,0,0-3.1,3.4,17.4,17.4,0,0,0-1,1.9.6.6,0,0,1-.9.4.7.7,0,0,1-.5-.9,11.3,11.3,0,0,1,1.1-2.2A13.8,13.8,0,0,1,15,12.5l1.6-1.1a16.2,16.2,0,0,1,4.8-1.7,9.7,9.7,0,0,1,2.4-.1,13.1,13.1,0,0,1,5.5,1.3l1.2.6a.8.8,0,0,1,.4.7,12.2,12.2,0,0,1-4.7,8.6Z"/><path class="cls-3" d="M23.5,28.2a4.7,4.7,0,1,1,4.7-4.7A4.7,4.7,0,0,1,23.5,28.2Zm0-7.9a3.2,3.2,0,1,0,3.2,3.2A3.2,3.2,0,0,0,23.5,20.3Z"/></svg>