<svg id="Capa_1" data-name="Capa 1" xmlns="http://www.w3.org/2000/svg" viewBox="0 0 47 47"><defs><style>.cls-1{fill:none;}.cls-2{fill:#95a6b1;}.cls-3{fill:#19a500;}</style></defs><title>unidad_Booster_electrica</title><rect class="cls-1" y="-6.5" width="60" height="60"/><rect class="cls-1" y="-6.5" width="60" height="60"/><path class="cls-2" d="M16.3,21.5a.8.8,0,0,1-.8-.8V9.4a1.2,1.2,0,0,0-1.1-1.2H9.8A1.2,1.2,0,0,0,8.6,9.4v2.8a.7.7,0,0,1-.7.7.7.7,0,0,1-.8-.7V9.4A2.7,2.7,0,0,1,9.8,6.7h4.6A2.7,2.7,0,0,1,17,9.4V20.7A.7.7,0,0,1,16.3,21.5Z"/><path class="cls-2" d="M16.3,43.2H7.9a.8.8,0,0,1-.8-.8v-18a.8.8,0,0,1,.8-.8.8.8,0,0,1,.7.8V41.7h6.9V32.3a.9.9,0,0,1,.8-.8.8.8,0,0,1,.7.8V42.4A.8.8,0,0,1,16.3,43.2Z"/><path class="cls-2" d="M24.2,43.2a.9.9,0,0,1-.8-.8V30.9a.9.9,0,0,1,.8-.8.8.8,0,0,1,.7.8V42.4A.8.8,0,0,1,24.2,43.2Z"/><path class="cls-2" d="M24.2,22.9a.8.8,0,0,1-.8-.7V16.1a1.8,1.8,0,0,0-.6-1.7,2.2,2.2,0,0,0-1.6-.7H16.3a.9.9,0,0,1-.8-.8.8.8,0,0,1,.8-.7h5a3.4,3.4,0,0,1,2.6,1.2,3.4,3.4,0,0,1,1,2.7v6.1A.7.7,0,0,1,24.2,22.9Z"/><g id="Línea_2122" data-name="Línea 2122"><path class="cls-2" d="M44.2,43.2H5.1a.8.8,0,0,1-.7-.8.7.7,0,0,1,.7-.7H44.2a.7.7,0,0,1,.8.7A.8.8,0,0,1,44.2,43.2Z"/></g><path class="cls-2" d="M19.3,33.8a7.3,7.3,0,1,1,7.3-7.3A7.3,7.3,0,0,1,19.3,33.8Zm0-13.1a5.8,5.8,0,1,0,5.8,5.8A5.8,5.8,0,0,0,19.3,20.7Z"/><path class="cls-2" d="M19.3,30.8a4.2,4.2,0,0,1-4.2-4.3,4.3,4.3,0,1,1,8.5,0A4.3,4.3,0,0,1,19.3,30.8Zm0-7.1a2.8,2.8,0,0,0-2.7,2.8,2.8,2.8,0,1,0,5.5,0A2.8,2.8,0,0,0,19.3,23.7Z"/><path class="cls-2" d="M34.6,30.3a3.8,3.8,0,0,1,0-7.6,3.8,3.8,0,0,1,0,7.6Zm0-6.1a2.3,2.3,0,1,0,2.3,2.3A2.3,2.3,0,0,0,34.6,24.2Z"/><path class="cls-2" d="M34.9,24.2h-.2L20.8,20.9a.7.7,0,0,1-.6-.9.8.8,0,0,1,.9-.6l14,3.4a.9.9,0,0,1,.6.9A.8.8,0,0,1,34.9,24.2Z"/><path class="cls-2" d="M20.9,33.6a.8.8,0,0,1-.8-.5.7.7,0,0,1,.6-.9l13.7-3.4a.8.8,0,1,1,.3,1.5L21,33.6Z"/><path class="cls-2" d="M41.8,43.2H28.5a.8.8,0,0,1-.7-.8V19.8A4.2,4.2,0,0,1,32,15.6h6.4a4.2,4.2,0,0,1,4.2,4.2V42.4A.9.9,0,0,1,41.8,43.2ZM29.3,41.7H41.1V19.8a2.8,2.8,0,0,0-2.7-2.7H32a2.7,2.7,0,0,0-2.7,2.7Z"/><path class="cls-2" d="M35,39.6h-.3a.8.8,0,0,1-.4-1l1-2.2h-.7a.9.9,0,0,1-.7-.3.9.9,0,0,1,0-.7l1.2-2.6a.8.8,0,0,1,1-.3.8.8,0,0,1,.4,1l-.8,1.4h.8a.8.8,0,0,1,.6.4.9.9,0,0,1,.1.7l-1.5,3.2A.8.8,0,0,1,35,39.6Z"/><path class="cls-2" d="M32,17.1a.9.9,0,0,1-.8-.8V12.7A.8.8,0,0,1,32,12a.7.7,0,0,1,.7.7v3.6A.8.8,0,0,1,32,17.1Z"/><path class="cls-2" d="M38.4,17.1a.8.8,0,0,1-.8-.8V12.7a.7.7,0,0,1,.8-.7.7.7,0,0,1,.7.7v3.6A.8.8,0,0,1,38.4,17.1Z"/><path class="cls-2" d="M39.7,14.4H30.6a.8.8,0,0,1-.8-.7.9.9,0,0,1,.8-.8h9.1a.8.8,0,0,1,.8.8A.7.7,0,0,1,39.7,14.4Z"/><path class="cls-2" d="M10,8.1a.8.8,0,0,1-.7-.8V4a.7.7,0,0,1,.7-.7.8.8,0,0,1,.8.7V7.3A.9.9,0,0,1,10,8.1Z"/><path class="cls-2" d="M14.6,8.1a.9.9,0,0,1-.8-.8V4a.8.8,0,0,1,.8-.7.7.7,0,0,1,.7.7V7.3A.8.8,0,0,1,14.6,8.1Z"/><path class="cls-2" d="M16,5.7H8.9a.8.8,0,0,1-.7-.8.7.7,0,0,1,.7-.7H16a.7.7,0,0,1,.7.7A.8.8,0,0,1,16,5.7Z"/><g id="Rectángulo_5125" data-name="Rectángulo 5125"><rect class="cls-1" width="47" height="47"/></g><g id="Trazado_11848" data-name="Trazado 11848"><path class="cls-3" d="M7.9,22.9a4.7,4.7,0,0,1,0-9.3A4.5,4.5,0,0,1,11.2,15a4.3,4.3,0,0,1,1.4,3.2h0A4.7,4.7,0,0,1,7.9,22.9Zm0-7.8h0a3.2,3.2,0,1,0,3.2,3.2h0a3.2,3.2,0,0,0-1-2.2A2.8,2.8,0,0,0,7.9,15.1Z"/></g></svg>