<svg xmlns="http://www.w3.org/2000/svg" width="16.444" height="17.287" viewBox="0 0 16.444 17.287">
  <g id="Grupo_17844" data-name="Grupo 17844" transform="translate(-442.46 -1095.713)">
    <path id="Trazado_28023" data-name="Trazado 28023" d="M456.893,1112.5v-6a2.02,2.02,0,0,0-2.02-2.02h-8.381a2.02,2.02,0,0,0-2.02,2.02v6Z" fill="none" stroke="#19a500" stroke-linecap="round" stroke-linejoin="round" stroke-width="1"/>
    <line id="Línea_2868" data-name="Línea 2868" y1="2.793" transform="translate(450.682 1101.686)" fill="none" stroke="#19a500" stroke-linecap="round" stroke-linejoin="round" stroke-width="1"/>
    <path id="Trazado_28024" data-name="Trazado 28024" d="M450.682,1096.213a3.091,3.091,0,1,0,1.654,2.737A3.1,3.1,0,0,0,450.682,1096.213Z" fill="none" stroke="#19a500" stroke-linecap="round" stroke-linejoin="round" stroke-width="1"/>
    <line id="Línea_2869" data-name="Línea 2869" x2="15.444" transform="translate(442.96 1112.5)" fill="none" stroke="#19a500" stroke-linecap="round" stroke-linejoin="round" stroke-width="1"/>
    <path id="Trazado_28025" data-name="Trazado 28025" d="M456.893,1109.086c-1.551,0-1.551-1.194-3.1-1.194s-1.552,1.194-3.1,1.194-1.554-1.194-3.108-1.194-1.554,1.194-3.108,1.194" fill="none" stroke="#19a500" stroke-linecap="round" stroke-linejoin="round" stroke-width="1"/>
  </g>
</svg>
