<svg xmlns="http://www.w3.org/2000/svg" width="51.921" height="35.756" viewBox="0 0 51.921 35.756">
  <g id="Grupo_16077" data-name="Grupo 16077" transform="translate(-895.477 -405.676)">
    <g id="Grupo_14378" data-name="Grupo 14378" transform="translate(896.773 406.776)">
      <path id="Trazado_12231" data-name="Trazado 12231" d="M35.374,25.055a13.574,13.574,0,0,0,3.152,6.321c.238.3.669.8,1.167,1.373,1.183,1.352.1,3.333-1.823,3.333H13.13c-2.233-.051-3.433-2.354-2.045-3.909l.575-.641A14.206,14.206,0,0,0,15.422,21.28c-.116-6.642,4-10.3,9.759-10.3a11.171,11.171,0,0,1,3.028.4" transform="translate(-1.332 -7.346)" fill="none" stroke="#fff" stroke-linecap="round" stroke-linejoin="round" stroke-width="2.2"/>
      <path id="Trazado_12232" data-name="Trazado 12232" d="M23.768,25.787a3.88,3.88,0,1,1-7.761,0" transform="translate(3.949 3.889)" fill="none" stroke="#fff" stroke-linecap="round" stroke-linejoin="round" stroke-width="2.2"/>
      <line id="Línea_2655" data-name="Línea 2655" y1="3.63" transform="translate(23.778)" fill="none" stroke="#fff" stroke-linecap="round" stroke-linejoin="round" stroke-width="2.2"/>
      <path id="Trazado_12233" data-name="Trazado 12233" d="M9.339,25.7a9.369,9.369,0,0,1,.063-9.95" transform="translate(-1.669 -4.242)" fill="none" stroke="#fff" stroke-linecap="round" stroke-linejoin="round" stroke-width="2.2"/>
      <path id="Trazado_12234" data-name="Trazado 12234" d="M6.746,29.018a13.314,13.314,0,0,1,.091-14.151" transform="translate(-4.755 -5.138)" fill="none" stroke="#fff" stroke-linecap="round" stroke-linejoin="round" stroke-width="2.2"/>
      <path id="Trazado_300" data-name="Trazado 300" d="M30.274,16.59a4.79,4.79,0,1,1-4.79-4.79h0a4.768,4.768,0,0,1,4.79,4.751A.132.132,0,0,1,30.274,16.59Z" transform="translate(7.446 -6.548)" fill="none" stroke="#fff" stroke-linecap="round" stroke-linejoin="round" stroke-width="2.2"/>
      <path id="Trazado_12235" data-name="Trazado 12235" d="M28.27,15.463a9.369,9.369,0,0,1-.063,9.95" transform="translate(13.387 -4.452)" fill="none" stroke="#fff" stroke-linecap="round" stroke-linejoin="round" stroke-width="2.2"/>
      <path id="Trazado_12236" data-name="Trazado 12236" d="M31.169,14.209a13.314,13.314,0,0,1-.091,14.151" transform="translate(16.169 -5.596)" fill="none" stroke="#fff" stroke-linecap="round" stroke-linejoin="round" stroke-width="2.2"/>
    </g>
  </g>
</svg>
