<svg id="Layer_1" data-name="Layer 1" xmlns="http://www.w3.org/2000/svg" viewBox="0 0 20 20"><defs><style>.cls-1{fill:#19a500;}</style></defs><title>Artboard 1 copy 3</title><path class="cls-1" d="M17.9,17.6h-1V12.1a2.6,2.6,0,0,0-2.5-2.6H10.7v-2a3.5,3.5,0,0,0,1.6-3,3.7,3.7,0,0,0-1.9-3.2.4.4,0,0,0-.5,0A3.7,3.7,0,0,0,8,4.5a3.4,3.4,0,0,0,1.7,3v2H6a2.6,2.6,0,0,0-2.5,2.6v5.5H2.4a.5.5,0,0,0-.5.5.6.6,0,0,0,.5.5H17.9a.5.5,0,0,0,.5-.5A.5.5,0,0,0,17.9,17.6ZM9,4.5a2.2,2.2,0,0,1,1.2-2.1,2.4,2.4,0,0,1,1.1,2.1,2.7,2.7,0,0,1-1.1,2.2A2.5,2.5,0,0,1,9,4.5Zm-3,6h8.4a1.6,1.6,0,0,1,1.5,1.6v2l-.8-.4a2.3,2.3,0,0,0-1.8-.7,2.4,2.4,0,0,0-1.9.7,1.9,1.9,0,0,1-1.2.4,2.5,2.5,0,0,1-1.3-.4A2.3,2.3,0,0,0,7.1,13a2.4,2.4,0,0,0-1.9.7l-.7.4v-2A1.5,1.5,0,0,1,6,10.5ZM4.5,17.6V15.1a2.3,2.3,0,0,0,1.3-.7A2.5,2.5,0,0,1,7.1,14a1.9,1.9,0,0,1,1.2.4,2.4,2.4,0,0,0,1.9.7,2.3,2.3,0,0,0,1.8-.7,2.5,2.5,0,0,1,1.3-.4,1.9,1.9,0,0,1,1.2.4,2.3,2.3,0,0,0,1.4.7v2.5Z"/></svg>