<svg xmlns="http://www.w3.org/2000/svg" width="35.475" height="37.846" viewBox="0 0 35.475 37.846">
  <g id="Grupo_15402" data-name="Grupo 15402" transform="translate(1.1 1.1)">
    <g id="Grupo_14393" data-name="Grupo 14393" transform="translate(0 5.194)">
      <line id="Línea_2663" data-name="Línea 2663" x2="11.494" transform="translate(10.89 30.451)" fill="none" stroke="#fff" stroke-linecap="round" stroke-linejoin="round" stroke-width="2.2"/>
      <line id="Línea_2664" data-name="Línea 2664" y2="3.829" transform="translate(16.637 25.08)" fill="none" stroke="#fff" stroke-linecap="round" stroke-linejoin="round" stroke-width="2.2"/>
      <path id="Trazado_12249" data-name="Trazado 12249" d="M21.009,8.369H34.764a3.135,3.135,0,0,1,3.1,3.172V28.889a3.135,3.135,0,0,1-3.1,3.172H7.681a3.135,3.135,0,0,1-3.1-3.172V11.541a3.135,3.135,0,0,1,3.1-3.172H8.4" transform="translate(-4.585 -8.369)" fill="none" stroke="#fff" stroke-linecap="round" stroke-linejoin="round" stroke-width="2.2"/>
    </g>
    <g id="Grupo_13720" data-name="Grupo 13720" transform="translate(4.189 10.902)">
      <g id="Rectángulo_4789" data-name="Rectángulo 4789">
        <path id="Trazado_12250" data-name="Trazado 12250" d="M12.738,12.919H25.692a3.051,3.051,0,0,1,3.3,2.725v8.4a3.052,3.052,0,0,1-3.3,2.725H12.738a3.052,3.052,0,0,1-3.3-2.725v-8.4A3.051,3.051,0,0,1,12.738,12.919Z" transform="translate(-9.441 -12.919)" fill="none" stroke="#fff" stroke-linecap="round" stroke-linejoin="round" stroke-width="2.2"/>
      </g>
      <path id="Trazado_11898" data-name="Trazado 11898" d="M23.565,16.878l3.911-1.887a1.063,1.063,0,0,1,1.512.863v6.406a1.062,1.062,0,0,1-1.511.863L23.565,21.2" transform="translate(-3.844 -12.133)" fill="none" stroke="#fff" stroke-linecap="round" stroke-linejoin="round" stroke-width="2.2"/>
    </g>
    <path id="Trazado_300" data-name="Trazado 300" d="M16.214,8.7a3.4,3.4,0,1,1-3.4-3.4h0a3.384,3.384,0,0,1,3.4,3.369Z" transform="translate(-2.473 -5.299)" fill="none" stroke="#fff" stroke-linecap="round" stroke-linejoin="round" stroke-width="2.2"/>
  </g>
</svg>
