<?xml version="1.0" encoding="utf-8"?>
<!-- Generator: Adobe Illustrator 24.0.2, SVG Export Plug-In . SVG Version: 6.00 Build 0)  -->
<svg version="1.1" id="Capa_1" xmlns="http://www.w3.org/2000/svg" xmlns:xlink="http://www.w3.org/1999/xlink" x="0px" y="0px"
	 viewBox="0 0 65 65" style="enable-background:new 0 0 65 65;" xml:space="preserve">
<style type="text/css">
	.st0{fill:none;}
	.st1{fill:#4DA12E;}
	.st2{fill:#96D200;}
	.st3{fill:none;stroke:#95A3AD;stroke-width:1.6;stroke-linecap:round;stroke-linejoin:round;}
	.st4{fill:none;stroke:#19A500;stroke-width:1.6;stroke-miterlimit:10;}
	.st5{fill:none;stroke:#97A5AF;stroke-width:1.6;stroke-linecap:round;stroke-linejoin:round;}
</style>
<g>
	<g>
		<g>
			<g>
				<rect x="0" y="48.26" class="st0" width="65" height="16.74"/>
			</g>
			<g>
				<g>
					<path class="st1" d="M45.38,61.32h-7.17c-0.66,0-1.2-0.54-1.2-1.2s0.54-1.2,1.2-1.2h7.17c0.66,0,1.2,0.54,1.2,1.2
						S46.04,61.32,45.38,61.32z"/>
				</g>
				<g>
					<path class="st1" d="M53.11,61.32h-0.58c-0.66,0-1.2-0.54-1.2-1.2s0.54-1.2,1.2-1.2h0.58c0.66,0,1.2,0.54,1.2,1.2
						S53.77,61.32,53.11,61.32z"/>
				</g>
				<g>
					<path class="st1" d="M18.99,61.32h-7.1c-0.66,0-1.2-0.54-1.2-1.2s0.54-1.2,1.2-1.2h7.1c0.66,0,1.2,0.54,1.2,1.2
						S19.65,61.32,18.99,61.32z"/>
				</g>
				<g>
					<path class="st2" d="M31.05,61.32H18.53c-0.66,0-1.2-0.54-1.2-1.2s0.54-1.2,1.2-1.2h12.52c0.66,0,1.2,0.54,1.2,1.2
						S31.71,61.32,31.05,61.32z"/>
				</g>
				<g>
					<path class="st2" d="M35.47,55.21H11.89c-0.66,0-1.2-0.54-1.2-1.2s0.54-1.2,1.2-1.2h23.58c0.66,0,1.2,0.54,1.2,1.2
						S36.14,55.21,35.47,55.21z"/>
				</g>
				<g>
					<path class="st1" d="M53.11,55.21H34.75c-0.66,0-1.2-0.54-1.2-1.2s0.54-1.2,1.2-1.2h18.36c0.66,0,1.2,0.54,1.2,1.2
						S53.77,55.21,53.11,55.21z"/>
				</g>
				<g>
					<path class="st1" d="M12.32,55.21h-0.43c-0.66,0-1.2-0.54-1.2-1.2s0.54-1.2,1.2-1.2h0.43c0.66,0,1.2,0.54,1.2,1.2
						S12.98,55.21,12.32,55.21z"/>
				</g>
			</g>
		</g>
	</g>
	<rect id="Rectángulo_3799-2_2_" x="0" class="st0" width="65" height="65"/>
</g>
<g>
	<polyline class="st3" points="16.61,28.66 14.85,26.82 25.3,16.37 39.75,16.37 50.13,26.75 47.62,29.26 47.62,30.77 44.29,34.1 	
		"/>
	<path class="st3" d="M35.08,43.25c0,0,0.93,1.64-0.33,2.9c-1.26,1.26-2.9,0-2.9,0l-7.62-7.47"/>
	<path class="st3" d="M28.75,36.76l7.83,7.83c0,0,1.37,1.05,2.82-0.4c1.45-1.45,0-2.9,0-2.9l-7.61-7.61l8.74,8.74
		c0,0,1.32,0.84,2.63-0.46c1.31-1.31,0-2.95,0-2.95l-8.3-8.3l7.12,7.12c0,0,1.41,1.03,2.79-0.35c1.38-1.38,0-2.9,0-2.9l-9.91-9.91
		v-4.4h-2.69l-3.42,3.42c0,0-1.5,1.97-2.95,0.52c0,0-1.62-1.71-0.38-2.95c1.24-1.24,4.71-4.71,4.71-4.71"/>
	<polyline class="st3" points="46.11,5.89 39.47,12.53 39.47,16.37 	"/>
	<polyline class="st3" points="50.13,26.75 52.63,26.75 56.12,23.25 	"/>
	<path class="st3" d="M36.94,26.75c0,0,3.52,1.05,4.09-2.61"/>
	<polyline class="st3" points="18.93,5.89 25.3,12.71 25.3,16.37 	"/>
	<polyline class="st3" points="14.85,26.82 12.3,26.82 8.88,23.4 	"/>
	<line class="st3" x1="13.8" y1="21.73" x2="11.81" y2="19.74"/>
	<line class="st3" x1="51.13" y1="21.73" x2="53.27" y2="19.59"/>
	<path class="st3" d="M20.99,40.56c0.39,0.6,1.06,0.99,1.83,0.99c0.66,0,1.25-0.29,1.65-0.75l0.95-0.95"/>
	<path class="st3" d="M27.47,43.96c-0.4,0.46-0.99,0.75-1.65,0.75c-1.21,0-2.18-0.98-2.18-2.18c0-0.6,0.24-1.15,0.64-1.54"/>
	<path class="st3" d="M28.54,42.91L27.45,44c-0.4,0.4-0.64,0.94-0.64,1.54c0,1.21,0.98,2.18,2.18,2.18c0.66,0,1.25-0.29,1.65-0.75
		l0.79-0.79"/>
</g>
<g>
	<path id="Trazado_11848_1_" class="st4" d="M23.08,34.57c0,2.12-1.72,3.84-3.84,3.84s-3.84-1.72-3.84-3.84
		c0-2.12,1.72-3.84,3.84-3.84l0,0c2.11-0.01,3.83,1.7,3.84,3.81c0,0,0,0,0,0V34.57z"/>
</g>
</svg>
