<?xml version="1.0" encoding="utf-8"?>
<!-- Generator: Adobe Illustrator 24.0.2, SVG Export Plug-In . SVG Version: 6.00 Build 0)  -->
<svg version="1.1" id="Capa_1" xmlns="http://www.w3.org/2000/svg" xmlns:xlink="http://www.w3.org/1999/xlink" x="0px" y="0px"
	 viewBox="0 0 65 65" style="enable-background:new 0 0 65 65;" xml:space="preserve">
<style type="text/css">
	.st0{fill:none;}
	.st1{fill:#4DA12E;}
	.st2{fill:#96D200;}
	.st3{fill:none;stroke:#95A3AD;stroke-width:1.6;stroke-linecap:round;stroke-linejoin:round;}
	.st4{fill:none;stroke:#19A500;stroke-width:1.6;stroke-miterlimit:10;}
	.st5{fill:none;stroke:#97A5AF;stroke-width:1.6;stroke-linecap:round;stroke-linejoin:round;}
</style>
<g>
	<g>
		<g>
			<g>
				<rect y="48.26" class="st0" width="65" height="16.74"/>
			</g>
			<g>
				<g>
					<path class="st1" d="M45.38,61.32h-7.17c-0.66,0-1.2-0.54-1.2-1.2s0.54-1.2,1.2-1.2h7.17c0.66,0,1.2,0.54,1.2,1.2
						S46.04,61.32,45.38,61.32z"/>
				</g>
				<g>
					<path class="st1" d="M53.11,61.32h-0.58c-0.66,0-1.2-0.54-1.2-1.2s0.54-1.2,1.2-1.2h0.58c0.66,0,1.2,0.54,1.2,1.2
						S53.77,61.32,53.11,61.32z"/>
				</g>
				<g>
					<path class="st1" d="M18.99,61.32h-7.1c-0.66,0-1.2-0.54-1.2-1.2s0.54-1.2,1.2-1.2h7.1c0.66,0,1.2,0.54,1.2,1.2
						S19.65,61.32,18.99,61.32z"/>
				</g>
				<g>
					<path class="st2" d="M31.05,61.32H18.53c-0.66,0-1.2-0.54-1.2-1.2s0.54-1.2,1.2-1.2h12.52c0.66,0,1.2,0.54,1.2,1.2
						S31.71,61.32,31.05,61.32z"/>
				</g>
				<g>
					<path class="st2" d="M35.47,55.21H11.89c-0.66,0-1.2-0.54-1.2-1.2s0.54-1.2,1.2-1.2h23.58c0.66,0,1.2,0.54,1.2,1.2
						S36.14,55.21,35.47,55.21z"/>
				</g>
				<g>
					<path class="st1" d="M53.11,55.21H34.75c-0.66,0-1.2-0.54-1.2-1.2s0.54-1.2,1.2-1.2h18.36c0.66,0,1.2,0.54,1.2,1.2
						S53.77,55.21,53.11,55.21z"/>
				</g>
				<g>
					<path class="st1" d="M12.32,55.21h-0.43c-0.66,0-1.2-0.54-1.2-1.2s0.54-1.2,1.2-1.2h0.43c0.66,0,1.2,0.54,1.2,1.2
						S12.98,55.21,12.32,55.21z"/>
				</g>
			</g>
		</g>
	</g>
	<rect id="Rectángulo_3799-2_1_" class="st0" width="65" height="65"/>
</g>
<g id="Grupo_17011">
	<path id="Trazado_17828_1_" class="st5" d="M18.53,30.32H42.7"/>
	<path id="Trazado_17828_2_" class="st5" d="M14.29,42.33H6.37V30.32h7.93"/>
	<path id="Trazado_17828_5_" class="st5" d="M46.63,42.33H18.37"/>
	<path id="Trazado_17828_6_" class="st5" d="M56.56,30.32h2.06v12.01h-7.92"/>
	<path id="Trazado_17828" class="st5" d="M42.25,30.32h1.82"/>
	<polyline id="Rectángulo_5344" class="st5" points="18.37,42.33 18.37,43.16 14.29,43.16 14.29,29.48 18.37,29.48 18.37,42.33 	
		"/>
	<polyline id="Rectángulo_5345_1_" class="st5" points="50.71,37.1 50.71,43.16 46.63,43.16 46.63,35.25 	"/>
	<g id="Grupo_17007">
		<line id="Línea_3390" class="st5" x1="26.31" y1="36.35" x2="38.55" y2="36.35"/>
		<path id="Trazado_17831" class="st5" d="M35.57,33.23l3.12,3.12l-3.12,3.12"/>
	</g>
</g>
<g id="Grupo_17016_1_">
	<line id="Rectángulo_5166_2_" class="st5" x1="36.77" y1="25.8" x2="28.23" y2="25.8"/>
	<polyline id="Rectángulo_5166_1_" class="st5" points="28.23,25.8 28.23,19.21 36.77,19.21 36.77,25.8 	"/>
	<rect id="Rectángulo_5167_1_" x="30.39" y="16.43" class="st5" width="4.21" height="2.78"/>
	<path id="Rectángulo_5168_1_" class="st5" d="M26.98,11.62h11.05c0.52,0,0.94,0.42,0.94,0.94v0.22c0,0.52-0.42,0.94-0.94,0.94
		H26.98c-0.52,0-0.94-0.42-0.94-0.94v-0.22C26.03,12.04,26.46,11.62,26.98,11.62z"/>
	<line id="Línea_2909_1_" class="st5" x1="30.39" y1="16.43" x2="26.98" y2="13.73"/>
	<line id="Línea_2910_1_" class="st5" x1="34.61" y1="16.43" x2="38.02" y2="13.73"/>
</g>
<path class="st5" d="M36.81,25.72c2.37,1.03,3.75,2.31,5.44,4.6"/>
<path class="st5" d="M22.74,30.33c1.7-2.31,3.07-3.59,5.45-4.62"/>
<path id="Trazado_11848_2_" class="st4" d="M54.31,30.22c0,2.12-1.72,3.84-3.84,3.84s-3.84-1.72-3.84-3.84
	c0-2.12,1.72-3.84,3.84-3.84l0,0c2.11-0.01,3.83,1.7,3.84,3.81c0,0,0,0,0,0V30.22z"/>
</svg>
