<?xml version="1.0" encoding="utf-8"?>
<!-- Generator: Adobe Illustrator 24.0.2, SVG Export Plug-In . SVG Version: 6.00 Build 0)  -->
<svg version="1.1" id="Capa_1" xmlns="http://www.w3.org/2000/svg" xmlns:xlink="http://www.w3.org/1999/xlink" x="0px" y="0px"
	 viewBox="0 0 65 65" style="enable-background:new 0 0 65 65;" xml:space="preserve">
<style type="text/css">
	.st0{fill:none;}
	.st1{fill:#4DA12E;}
	.st2{fill:#96D200;}
	.st3{fill:none;stroke:#95A3AD;stroke-width:1.6;stroke-linecap:round;stroke-linejoin:round;}
	.st4{fill:none;stroke:#19A500;stroke-width:1.6;stroke-miterlimit:10;}
	.st5{fill:none;stroke:#97A5AF;stroke-width:1.6;stroke-linecap:round;stroke-linejoin:round;}
</style>
<g>
	<g>
		<g>
			<g>
				<rect x="0" y="48.26" class="st0" width="65" height="16.74"/>
			</g>
			<g>
				<g>
					<path class="st1" d="M45.38,61.32h-7.17c-0.66,0-1.2-0.54-1.2-1.2s0.54-1.2,1.2-1.2h7.17c0.66,0,1.2,0.54,1.2,1.2
						S46.04,61.32,45.38,61.32z"/>
				</g>
				<g>
					<path class="st1" d="M53.11,61.32h-0.58c-0.66,0-1.2-0.54-1.2-1.2s0.54-1.2,1.2-1.2h0.58c0.66,0,1.2,0.54,1.2,1.2
						S53.77,61.32,53.11,61.32z"/>
				</g>
				<g>
					<path class="st1" d="M18.99,61.32h-7.1c-0.66,0-1.2-0.54-1.2-1.2s0.54-1.2,1.2-1.2h7.1c0.66,0,1.2,0.54,1.2,1.2
						S19.66,61.32,18.99,61.32z"/>
				</g>
				<g>
					<path class="st2" d="M31.05,61.32H18.53c-0.66,0-1.2-0.54-1.2-1.2s0.54-1.2,1.2-1.2h12.52c0.66,0,1.2,0.54,1.2,1.2
						S31.71,61.32,31.05,61.32z"/>
				</g>
				<g>
					<path class="st2" d="M35.47,55.21H11.89c-0.66,0-1.2-0.54-1.2-1.2s0.54-1.2,1.2-1.2h23.58c0.66,0,1.2,0.54,1.2,1.2
						S36.14,55.21,35.47,55.21z"/>
				</g>
				<g>
					<path class="st1" d="M53.11,55.21H34.75c-0.66,0-1.2-0.54-1.2-1.2s0.54-1.2,1.2-1.2h18.36c0.66,0,1.2,0.54,1.2,1.2
						S53.77,55.21,53.11,55.21z"/>
				</g>
				<g>
					<path class="st1" d="M12.32,55.21h-0.43c-0.66,0-1.2-0.54-1.2-1.2s0.54-1.2,1.2-1.2h0.43c0.66,0,1.2,0.54,1.2,1.2
						S12.98,55.21,12.32,55.21z"/>
				</g>
			</g>
		</g>
	</g>
	<rect id="Rectángulo_3799-2_4_" x="0" class="st0" width="65" height="65"/>
	<g>
		<path id="Trazado_11848_4_" class="st4" d="M24.79,18.81c0,2.12-1.72,3.84-3.84,3.84s-3.84-1.72-3.84-3.84
			c0-2.12,1.72-3.84,3.84-3.84l0,0c2.11-0.01,3.83,1.7,3.84,3.81c0,0,0,0,0,0V18.81z"/>
	</g>
</g>
<path class="st3" d="M20.95,12.68l-0.48-0.82c-0.33-0.55,0.2-1.22,0.82-1.03l4.24,1.3c0.11,0.03,0.23,0.04,0.34,0.02l4.06-0.8
	c0.33-0.07,0.57-0.35,0.57-0.69V8.45c0-0.18,0.07-0.35,0.19-0.48l1.88-2c0.22-0.23,0.56-0.29,0.85-0.14l3.04,1.62
	c0.12,0.06,0.26,0.09,0.39,0.08l3.86-0.34c0.26-0.02,0.51,0.1,0.65,0.31l0.12,0.19c0.16,0.25,0.16,0.57-0.02,0.81l-1.68,2.28
	c-0.14,0.2-0.18,0.45-0.09,0.68l1.58,3.98c0.06,0.15,0.07,0.31,0.02,0.46l-0.57,1.97c-0.04,0.15-0.04,0.32,0.03,0.47"/>
<path class="st3" d="M37.02,36.66h-3.44c-0.17,0-0.33,0.06-0.46,0.17l-0.94,0.81c-0.32,0.27-0.33,0.76-0.02,1.05l2.69,2.51
	c0.13,0.12,0.21,0.28,0.22,0.45l0.11,1.22c0.01,0.16,0.08,0.31,0.2,0.43l1.76,1.82c0.17,0.18,0.24,0.43,0.17,0.67l-0.34,1.3
	c-0.13,0.48-0.69,0.68-1.09,0.39l-2.19-1.57c-0.03-0.02-0.07-0.05-0.11-0.06l-4.2-1.99c-0.05-0.02-0.09-0.05-0.13-0.08l-2.47-1.92
	c-0.19-0.15-0.44-0.19-0.66-0.11l-1.06,0.37c-0.24,0.08-0.51,0.03-0.7-0.14l-3.32-2.98c-0.14-0.13-0.23-0.31-0.23-0.51l-0.07-3
	c0-0.1-0.03-0.21-0.07-0.3l-1.7-3.4c-0.12-0.24-0.09-0.54,0.08-0.75l0.99-1.27c0.22-0.28,0.2-0.68-0.05-0.93l-1.7-1.71
	c-0.19-0.19-0.25-0.47-0.17-0.72l0.63-1.9"/>
<g>
	<polyline class="st3" points="41.9,22.39 37.93,27.79 41.9,27.79 38.1,33.34 	"/>
	<path class="st3" d="M32.39,22.84c1.62-2.43,4.39-4.03,7.53-4.03c5,0,9.05,4.05,9.05,9.05"/>
	<path class="st3" d="M47.12,33.35c-1.65,2.17-4.27,3.57-7.21,3.57c-5,0-9.05-4.05-9.05-9.05"/>
</g>
<polyline class="st3" points="28.75,28.81 30.86,26.69 32.98,28.81 "/>
<polyline class="st3" points="51.1,26.81 48.98,28.92 46.86,26.81 "/>
</svg>
