<?xml version="1.0" encoding="utf-8"?>
<!-- Generator: Adobe Illustrator 24.0.2, SVG Export Plug-In . SVG Version: 6.00 Build 0)  -->
<svg version="1.1" id="Capa_1" xmlns="http://www.w3.org/2000/svg" xmlns:xlink="http://www.w3.org/1999/xlink" x="0px" y="0px"
	 viewBox="0 0 65 65" style="enable-background:new 0 0 65 65;" xml:space="preserve">
<style type="text/css">
	.st0{fill:none;}
	.st1{fill:#4DA12E;}
	.st2{fill:#96D200;}
	.st3{fill:none;stroke:#95A3AD;stroke-width:1.6;stroke-linecap:round;stroke-linejoin:round;}
	.st4{fill:none;stroke:#19A500;stroke-width:1.6;stroke-miterlimit:10;}
	.st5{fill:none;stroke:#97A5AF;stroke-width:1.6;stroke-linecap:round;stroke-linejoin:round;}
</style>
<g>
	<g>
		<g>
			<g>
				<rect x="0" y="48.26" class="st0" width="65" height="16.74"/>
			</g>
			<g>
				<g>
					<path class="st1" d="M45.38,61.32h-7.17c-0.66,0-1.2-0.54-1.2-1.2s0.54-1.2,1.2-1.2h7.17c0.66,0,1.2,0.54,1.2,1.2
						S46.04,61.32,45.38,61.32z"/>
				</g>
				<g>
					<path class="st1" d="M53.11,61.32h-0.58c-0.66,0-1.2-0.54-1.2-1.2s0.54-1.2,1.2-1.2h0.58c0.66,0,1.2,0.54,1.2,1.2
						S53.77,61.32,53.11,61.32z"/>
				</g>
				<g>
					<path class="st1" d="M18.99,61.32h-7.1c-0.66,0-1.2-0.54-1.2-1.2s0.54-1.2,1.2-1.2h7.1c0.66,0,1.2,0.54,1.2,1.2
						S19.65,61.32,18.99,61.32z"/>
				</g>
				<g>
					<path class="st2" d="M31.05,61.32H18.53c-0.66,0-1.2-0.54-1.2-1.2s0.54-1.2,1.2-1.2h12.52c0.66,0,1.2,0.54,1.2,1.2
						S31.71,61.32,31.05,61.32z"/>
				</g>
				<g>
					<path class="st2" d="M35.47,55.21H11.89c-0.66,0-1.2-0.54-1.2-1.2s0.54-1.2,1.2-1.2h23.58c0.66,0,1.2,0.54,1.2,1.2
						S36.14,55.21,35.47,55.21z"/>
				</g>
				<g>
					<path class="st1" d="M53.11,55.21H34.75c-0.66,0-1.2-0.54-1.2-1.2s0.54-1.2,1.2-1.2h18.36c0.66,0,1.2,0.54,1.2,1.2
						S53.77,55.21,53.11,55.21z"/>
				</g>
				<g>
					<path class="st1" d="M12.32,55.21h-0.43c-0.66,0-1.2-0.54-1.2-1.2s0.54-1.2,1.2-1.2h0.43c0.66,0,1.2,0.54,1.2,1.2
						S12.98,55.21,12.32,55.21z"/>
				</g>
			</g>
		</g>
	</g>
	<rect id="Rectángulo_3799-2_3_" x="0" class="st0" width="65" height="65"/>
	<g>
		<g id="Grupo_15307_2_">
			<rect id="Rectángulo_5190_2_" x="42.23" y="14.51" class="st3" width="13.5" height="21.42"/>
			<g id="Grupo_15301-2_2_">
				<line id="Línea_2965_2_" class="st3" x1="55.73" y1="18.34" x2="55.73" y2="14.51"/>
				<line id="Línea_2966_2_" class="st3" x1="51.22" y1="18.34" x2="51.22" y2="14.51"/>
				<line id="Línea_2967_2_" class="st3" x1="46.72" y1="18.34" x2="46.72" y2="14.51"/>
				<line id="Línea_2968_2_" class="st3" x1="42.22" y1="14.51" x2="42.22" y2="18.37"/>
			</g>
			<line id="Línea_2969_2_" class="st3" x1="40.53" y1="18.38" x2="57.43" y2="18.38"/>
			<path id="Trazado_12633_2_" class="st3" d="M42.12,33.06h-5.33v-4.25h5.33"/>
			<rect id="Rectángulo_5191_2_" x="42.23" y="14.51" class="st3" width="13.5" height="21.42"/>
			<g id="Grupo_15302_2_">
				<line id="Línea_2970_2_" class="st3" x1="55.73" y1="18.34" x2="55.73" y2="14.51"/>
				<line id="Línea_2971_2_" class="st3" x1="51.22" y1="18.34" x2="51.22" y2="14.51"/>
				<line id="Línea_2972_2_" class="st3" x1="46.72" y1="18.34" x2="46.72" y2="14.51"/>
				<line id="Línea_2973_2_" class="st3" x1="42.22" y1="14.51" x2="42.22" y2="18.37"/>
			</g>
			<line id="Línea_2974_2_" class="st3" x1="40.53" y1="18.38" x2="57.43" y2="18.38"/>
			<path id="Trazado_12634_2_" class="st3" d="M42.22,21.19c2.11,1.92,6.26,1.22,8.13,0.43c1.75-0.7,3.73-0.54,5.35,0.44"/>
			<g id="Grupo_15303_2_">
				<line id="Línea_2975_2_" class="st3" x1="47.6" y1="30.22" x2="55.7" y2="30.22"/>
			</g>
			<path id="Trazado_12635_2_" class="st3" d="M19.1,15.7V5.74h17.49v30.2H19.1v-7.27"/>
			<g id="Grupo_15304_2_">
				<line id="Línea_2976_2_" class="st3" x1="36.58" y1="9.57" x2="36.58" y2="5.74"/>
				<line id="Línea_2977_2_" class="st3" x1="24.39" y1="9.57" x2="24.39" y2="5.74"/>
				<line id="Línea_2978_2_" class="st3" x1="19.09" y1="5.74" x2="19.09" y2="9.6"/>
			</g>
			<line id="Línea_2979_2_" class="st3" x1="17.4" y1="9.61" x2="38.28" y2="9.61"/>
			<path id="Trazado_12638_2_" class="st3" d="M19.1,15.16V5.74h17.49v30.2H19.1v-7.27"/>
			<g id="Grupo_15305_2_">
				<line id="Línea_2980_2_" class="st3" x1="36.58" y1="9.57" x2="36.58" y2="5.74"/>
				<line id="Línea_2981_2_" class="st3" x1="31.28" y1="9.57" x2="31.28" y2="5.74"/>
				<line id="Línea_2982_2_" class="st3" x1="19.09" y1="5.74" x2="19.09" y2="9.6"/>
			</g>
			<line id="Línea_2983_2_" class="st3" x1="17.4" y1="9.61" x2="38.28" y2="9.61"/>
			<path id="Trazado_12641_2_" class="st3" d="M25.07,22.23c0.74-0.13,1.46-0.34,2.15-0.62c1.88-0.8,8.21-0.37,9.34,0.44"/>
			<g id="Grupo_15306_2_">
				<line id="Línea_2984_2_" class="st3" x1="19.09" y1="30.22" x2="27.19" y2="30.22"/>
			</g>
			<line id="Línea_2985_2_" class="st3" x1="5.45" y1="35.94" x2="59.55" y2="35.94"/>
		</g>
		<path id="Trazado_11848_3_" class="st4" d="M22.93,21.77c0,2.12-1.72,3.84-3.84,3.84s-3.84-1.72-3.84-3.84
			c0-2.12,1.72-3.84,3.84-3.84l0,0c2.11-0.01,3.83,1.7,3.84,3.81c0,0,0,0,0,0V21.77z"/>
	</g>
	<g id="Grupo_15385_1_" transform="translate(-8.932 -2.977)">
		<g id="Grupo_13591_1_">
			<g id="Grupo_13590_1_">
				<rect id="Rectángulo_4762_1_" x="17.45" y="43.09" class="st3" width="2.88" height="7.84"/>
				<rect id="Rectángulo_4763_1_" x="14.22" y="45.71" class="st3" width="3.23" height="2.6"/>
				<path id="Trazado_11867-2_4_" class="st3" d="M38.74,44.6h29.91"/>
				<path id="Trazado_11867-2_1_" class="st3" d="M68.64,49.42H20.32V44.6h14.4"/>
			</g>
		</g>
	</g>
	<g>
		<line class="st3" x1="25.79" y1="35.94" x2="25.79" y2="41.63"/>
		<line class="st3" x1="29.8" y1="35.94" x2="29.8" y2="41.63"/>
	</g>
</g>
</svg>
