<?xml version="1.0" encoding="utf-8"?>
<!-- Generator: Adobe Illustrator 24.0.2, SVG Export Plug-In . SVG Version: 6.00 Build 0)  -->
<svg version="1.1" xmlns="http://www.w3.org/2000/svg" xmlns:xlink="http://www.w3.org/1999/xlink" x="0px" y="0px"
	 viewBox="0 0 65 65" style="enable-background:new 0 0 65 65;" xml:space="preserve">
<style type="text/css">
	.st0{display:none;}
	.st1{display:inline;fill:#98A6B0;}
	.st2{fill:none;}
	.st3{fill:none;stroke:#FFFFFF;stroke-width:1.5;stroke-linecap:round;stroke-linejoin:round;}
	.st4{fill:#4C9F2E;}
	.st5{fill:#94D040;}
	.st6{fill:none;stroke:#00A800;stroke-width:1.5;stroke-linecap:round;stroke-linejoin:round;stroke-miterlimit:10;}
	.st7{fill:none;stroke:#95A6B1;stroke-width:1.6;stroke-linecap:round;stroke-linejoin:round;}
	.st8{fill:none;stroke:#00A800;stroke-width:1.6;stroke-linecap:round;stroke-linejoin:round;stroke-miterlimit:10;}
</style>
<g id="BASE" class="st0">
</g>
<g id="Capa_1">
	<g>
		<g>
			<g>
				<g>
					<rect y="48.32" class="st2" width="65" height="16.74"/>
				</g>
				<g>
					<g>
						<path class="st4" d="M45.38,61.38h-7.17c-0.66,0-1.2-0.54-1.2-1.2s0.54-1.2,1.2-1.2h7.17c0.66,0,1.2,0.54,1.2,1.2
							S46.04,61.38,45.38,61.38z"/>
					</g>
					<g>
						<path class="st4" d="M53.11,61.38h-0.58c-0.66,0-1.2-0.54-1.2-1.2s0.54-1.2,1.2-1.2h0.58c0.66,0,1.2,0.54,1.2,1.2
							S53.77,61.38,53.11,61.38z"/>
					</g>
					<g>
						<path class="st4" d="M18.99,61.38h-7.1c-0.66,0-1.2-0.54-1.2-1.2s0.54-1.2,1.2-1.2h7.1c0.66,0,1.2,0.54,1.2,1.2
							S19.66,61.38,18.99,61.38z"/>
					</g>
					<g>
						<path class="st5" d="M31.05,61.38H18.53c-0.66,0-1.2-0.54-1.2-1.2s0.54-1.2,1.2-1.2h12.52c0.66,0,1.2,0.54,1.2,1.2
							S31.71,61.38,31.05,61.38z"/>
					</g>
					<g>
						<path class="st5" d="M35.47,55.27H11.89c-0.66,0-1.2-0.54-1.2-1.2s0.54-1.2,1.2-1.2h23.58c0.66,0,1.2,0.54,1.2,1.2
							S36.14,55.27,35.47,55.27z"/>
					</g>
					<g>
						<path class="st4" d="M53.11,55.27H34.75c-0.66,0-1.2-0.54-1.2-1.2s0.54-1.2,1.2-1.2h18.36c0.66,0,1.2,0.54,1.2,1.2
							S53.77,55.27,53.11,55.27z"/>
					</g>
					<g>
						<path class="st4" d="M12.32,55.27h-0.43c-0.66,0-1.2-0.54-1.2-1.2s0.54-1.2,1.2-1.2h0.43c0.66,0,1.2,0.54,1.2,1.2
							S12.98,55.27,12.32,55.27z"/>
					</g>
				</g>
			</g>
		</g>
		<rect y="0.06" class="st2" width="65" height="65"/>
	</g>
	<g>
		<g>
			<g id="Grupo_20781">
				<g id="Grupo_20780">
					<path id="Trazado_19961" class="st8" d="M16.14,16.26c0.94,2.06,0.03,4.49-2.03,5.44c-2.06,0.94-4.49,0.03-5.44-2.03
						c-0.94-2.06-0.03-4.49,2.02-5.43c2.05-0.95,4.48-0.05,5.43,2C16.13,16.24,16.14,16.25,16.14,16.26z"/>
					<path id="Trazado_19963" class="st7" d="M18.76,20.57h14.07c0.89,0,1.61,0.72,1.61,1.61v0v7.8"/>
					<line id="Línea_4680" class="st7" x1="12.61" y1="30.14" x2="12.61" y2="24.7"/>
					<path id="Trazado_19964" class="st7" d="M18.76,14.18h9.78c0.59,0,1.07,0.48,1.07,1.07v5.33"/>
					<g id="Grupo_20778">
						<path id="Trazado_19965_1_" class="st7" d="M23.52,24.82c-0.38-0.21-0.84-0.21-1.21,0l-13.47,7.4
							c-0.54,0.3-0.78,0.94-0.58,1.52l3.86,11.75"/>
						<line id="Línea_4682" class="st7" x1="22.91" y1="24.65" x2="22.91" y2="45.84"/>
						<path id="Trazado_19965_3_" class="st7" d="M34.27,43.81l3.3-10.07c0.21-0.58-0.04-1.23-0.58-1.52l-13.47-7.4
							c-0.38-0.21-0.84-0.21-1.21,0"/>
						<path id="Trazado_19965_2_" class="st7" d="M33.72,45.49l0.55-1.68"/>
					</g>
					<circle id="Elipse_3107" class="st7" cx="16.38" cy="33.64" r="1.63"/>
					<circle id="Elipse_3107_1_" class="st7" cx="29.98" cy="33.64" r="1.63"/>
					<path id="Rectángulo_5841" class="st7" d="M21.53,7.53h3.58c0.53,0,0.96,0.43,0.96,0.96l0,0v5.68l0,0h-5.44l0,0V8.43
						C20.63,7.93,21.03,7.53,21.53,7.53z"/>
					<g id="Grupo_20779">
						<path id="Trazado_19966" class="st7" d="M41.98,46.38c-2.32,0-2.32-2.27-4.64-2.27s-2.32,2.27-4.64,2.27s-2.32-2.27-4.64-2.27
							s-2.32,2.27-4.64,2.27s-2.32-2.27-4.64-2.27s-2.32,2.27-4.64,2.27s-2.32-2.27-4.65-2.27s-2.32,2.27-4.65,2.27"/>
					</g>
				</g>
			</g>
		</g>
		<path class="st7" d="M35.57,39.85h13.17c1.56,0,2.83,1.27,2.83,2.83v3.64"/>
		<path class="st7" d="M37.38,35.25h13.13c3.25,0,5.88,2.63,5.88,5.88v5.19"/>
		<line class="st7" x1="39.37" y1="39.85" x2="43.86" y2="35.36"/>
		<line class="st7" x1="45.64" y1="39.85" x2="50.12" y2="35.36"/>
		<g>
			<line class="st7" x1="50.53" y1="40.46" x2="55.21" y2="38.61"/>
			<line class="st7" x1="56.38" y1="45.32" x2="51.57" y2="43.08"/>
		</g>
	</g>
</g>
</svg>
