<?xml version="1.0" encoding="utf-8"?>
<!-- Generator: Adobe Illustrator 24.0.2, SVG Export Plug-In . SVG Version: 6.00 Build 0)  -->
<svg version="1.1" xmlns="http://www.w3.org/2000/svg" xmlns:xlink="http://www.w3.org/1999/xlink" x="0px" y="0px"
	 viewBox="0 0 65 65" style="enable-background:new 0 0 65 65;" xml:space="preserve">
<style type="text/css">
	.st0{display:none;}
	.st1{display:inline;fill:#98A6B0;}
	.st2{fill:none;}
	.st3{fill:none;stroke:#FFFFFF;stroke-width:1.5;stroke-linecap:round;stroke-linejoin:round;}
	.st4{fill:#4C9F2E;}
	.st5{fill:#94D040;}
	.st6{fill:none;stroke:#00A800;stroke-width:1.5;stroke-linecap:round;stroke-linejoin:round;stroke-miterlimit:10;}
	.st7{fill:none;stroke:#95A6B1;stroke-width:1.6;stroke-linecap:round;stroke-linejoin:round;}
	.st8{fill:none;stroke:#00A800;stroke-width:1.6;stroke-linecap:round;stroke-linejoin:round;stroke-miterlimit:10;}
</style>
<g id="BASE" class="st0">
</g>
<g id="Capa_1">
	<g>
		<g>
			<g>
				<g>
					<rect y="48.26" class="st2" width="65" height="16.74"/>
				</g>
				<g>
					<g>
						<path class="st4" d="M45.38,61.32h-7.17c-0.66,0-1.2-0.54-1.2-1.2s0.54-1.2,1.2-1.2h7.17c0.66,0,1.2,0.54,1.2,1.2
							S46.04,61.32,45.38,61.32z"/>
					</g>
					<g>
						<path class="st4" d="M53.11,61.32h-0.58c-0.66,0-1.2-0.54-1.2-1.2s0.54-1.2,1.2-1.2h0.58c0.66,0,1.2,0.54,1.2,1.2
							S53.77,61.32,53.11,61.32z"/>
					</g>
					<g>
						<path class="st4" d="M18.99,61.32h-7.1c-0.66,0-1.2-0.54-1.2-1.2s0.54-1.2,1.2-1.2h7.1c0.66,0,1.2,0.54,1.2,1.2
							S19.65,61.32,18.99,61.32z"/>
					</g>
					<g>
						<path class="st5" d="M31.05,61.32H18.53c-0.66,0-1.2-0.54-1.2-1.2s0.54-1.2,1.2-1.2h12.52c0.66,0,1.2,0.54,1.2,1.2
							S31.71,61.32,31.05,61.32z"/>
					</g>
					<g>
						<path class="st5" d="M35.47,55.21H11.89c-0.66,0-1.2-0.54-1.2-1.2s0.54-1.2,1.2-1.2h23.58c0.66,0,1.2,0.54,1.2,1.2
							S36.14,55.21,35.47,55.21z"/>
					</g>
					<g>
						<path class="st4" d="M53.11,55.21H34.75c-0.66,0-1.2-0.54-1.2-1.2s0.54-1.2,1.2-1.2h18.36c0.66,0,1.2,0.54,1.2,1.2
							S53.77,55.21,53.11,55.21z"/>
					</g>
					<g>
						<path class="st4" d="M12.32,55.21h-0.43c-0.66,0-1.2-0.54-1.2-1.2s0.54-1.2,1.2-1.2h0.43c0.66,0,1.2,0.54,1.2,1.2
							S12.98,55.21,12.32,55.21z"/>
					</g>
				</g>
			</g>
		</g>
		<rect class="st2" width="65" height="65"/>
	</g>
	<rect class="st2" width="65" height="65"/>
	<g>
		<g>
			<g>
				<path class="st8" d="M13.8,29.1c0.37,0.82,0.4,1.71,0.14,2.5c-0.29,0.87-0.93,1.63-1.83,2.04c-1.72,0.79-3.75,0.03-4.54-1.69
					s-0.03-3.75,1.69-4.54C10.98,26.62,13.02,27.38,13.8,29.1z"/>
				<g>
					<path class="st7" d="M10.69,36.75v9.51h22.56V32.41c0-3.97-3.21-7.18-7.18-7.18h-8.2c-1.12,0-2.19,0.17-3.14,0.5"/>
					<path class="st7" d="M21.97,6.83L21.97,6.83c-2.77,0-5.02,2.25-5.02,5.02v5.37c0,2.77,2.25,5.02,5.02,5.02h0
						c2.77,0,5.02-2.25,5.02-5.02v-5.37C26.98,9.07,24.74,6.83,21.97,6.83z"/>
				</g>
				<line class="st7" x1="14.63" y1="13.15" x2="29.31" y2="13.15"/>
				<line class="st7" x1="21.97" y1="9.4" x2="21.97" y2="4.52"/>
			</g>
			<g>
				<path class="st7" d="M48.6,46.26h-8.37c-1.12,0-2.03-0.91-2.03-2.03V27.75c0-1.12,0.91-2.03,2.03-2.03h8.37
					c1.12,0,2.03,0.91,2.03,2.03v16.48C50.63,45.35,49.72,46.26,48.6,46.26z"/>
				<line class="st7" x1="41.45" y1="20.48" x2="41.45" y2="25.72"/>
				<rect x="41.45" y="29.54" class="st7" width="6.04" height="6.04"/>
				<line class="st7" x1="41.45" y1="39.04" x2="47.49" y2="39.04"/>
				<line class="st7" x1="41.45" y1="42.49" x2="47.49" y2="42.49"/>
			</g>
		</g>
		<g>
			<path class="st7" d="M49.83,20.72c2.41,0,4.36,1.95,4.36,4.36"/>
			<path class="st7" d="M49.83,17.17c4.37,0,7.9,3.54,7.9,7.9"/>
		</g>
	</g>
</g>
</svg>
