<svg id="Capa_1" data-name="Capa 1" xmlns="http://www.w3.org/2000/svg" viewBox="0 0 65 65"><defs><style>.cls-1{fill:#90a6b1;}.cls-2{fill:#00ab00;}.cls-3{fill:none;}.cls-4{fill:#19a301;}.cls-5{fill:#82d400;}</style></defs><title>barriles</title><g id="Grupo_14996" data-name="Grupo 14996"><g id="Grupo_14995" data-name="Grupo 14995"><g id="Trazado_11678" data-name="Trazado 11678"><path class="cls-1" d="M21.4,47.7H9.1a.8.8,0,0,1-.8-.8V43.2a1.2,1.2,0,0,1-.9-.4A2.1,2.1,0,0,1,7,41.7v-.3a1.5,1.5,0,0,1,1.3-1.5V36.5A1.5,1.5,0,0,1,7,35v-.3a1.5,1.5,0,0,1,1.3-1.5V29.9a.8.8,0,0,1,1.6,0V34a.9.9,0,0,1-.8.8H8.6V35h.5a.8.8,0,0,1,.8.8v4.9a.9.9,0,0,1-.8.8H8.6v.2h.5a.8.8,0,0,1,.8.8v3.6H20.6V42.5a.7.7,0,0,1,.8-.8h.5v-.2h-.5a.8.8,0,0,1-.8-.8V35.8a.7.7,0,0,1,.8-.8h.5v-.2h-.5a.8.8,0,0,1-.8-.8V29.9a.7.7,0,0,1,.8-.8.8.8,0,0,1,.8.8v3.3a1.5,1.5,0,0,1,1.3,1.5V35a1.5,1.5,0,0,1-1.3,1.5v3.4a1.5,1.5,0,0,1,1.3,1.5v.3a1.5,1.5,0,0,1-1.3,1.5v3.7A.8.8,0,0,1,21.4,47.7ZM8.5,35Z"/></g><g id="Línea_2316" data-name="Línea 2316"><path class="cls-1" d="M19,35.5H11.5a.8.8,0,0,1-.8-.8.7.7,0,0,1,.8-.8H19a.8.8,0,0,1,.8.8A.9.9,0,0,1,19,35.5Z"/></g><g id="Línea_2317" data-name="Línea 2317"><path class="cls-1" d="M19,42.2H11.5a.8.8,0,0,1-.8-.8.7.7,0,0,1,.8-.8H19a.8.8,0,0,1,.8.8A.9.9,0,0,1,19,42.2Z"/></g><g id="Rectángulo_4586" data-name="Rectángulo 4586"><path class="cls-1" d="M22.1,49.8H8.3A1.3,1.3,0,0,1,7,48.5V47.4a1.3,1.3,0,0,1,1.3-1.3H22.1a1.3,1.3,0,0,1,1.4,1.3v1.1A1.3,1.3,0,0,1,22.1,49.8ZM8.6,48.2H21.9v-.5H8.6Zm13.5-.5Z"/></g><g id="Trazado_11678-2" data-name="Trazado 11678-2"><path class="cls-1" d="M39,47.7H26.8a.7.7,0,0,1-.8-.8V43.2a1.4,1.4,0,0,1-1.3-1.5v-.3A1.4,1.4,0,0,1,26,39.9V36.5A1.4,1.4,0,0,1,24.7,35v-.3A1.4,1.4,0,0,1,26,33.2V29.9a.7.7,0,0,1,.8-.8.8.8,0,0,1,.8.8V34a.9.9,0,0,1-.8.8h-.5V35h.5a.8.8,0,0,1,.8.8v4.9a.9.9,0,0,1-.8.8h-.5v.2h.5a.8.8,0,0,1,.8.8v3.6H38.2V42.5a.8.8,0,0,1,.8-.8h.5v-.2H39a.9.9,0,0,1-.8-.8V35.8A.8.8,0,0,1,39,35h.5v-.2H39a.9.9,0,0,1-.8-.8V29.9a.8.8,0,0,1,.8-.8.7.7,0,0,1,.8.8v3.3a1.8,1.8,0,0,1,.9.4,1.5,1.5,0,0,1,.4,1.1V35a1.4,1.4,0,0,1-1.3,1.5v3.4a1.4,1.4,0,0,1,1.3,1.5v.3a1.4,1.4,0,0,1-1.3,1.5v3.7A.7.7,0,0,1,39,47.7Z"/></g><g id="Línea_2316-2" data-name="Línea 2316-2"><path class="cls-1" d="M36.6,35.5H29.1a.9.9,0,0,1-.8-.8.8.8,0,0,1,.8-.8h7.5a.7.7,0,0,1,.8.8A.8.8,0,0,1,36.6,35.5Z"/></g><g id="Línea_2317-2" data-name="Línea 2317-2"><path class="cls-1" d="M36.6,42.2H29.1a.9.9,0,0,1-.8-.8.8.8,0,0,1,.8-.8h7.5a.7.7,0,0,1,.8.8A.8.8,0,0,1,36.6,42.2Z"/></g><g id="Rectángulo_4586-2" data-name="Rectángulo 4586-2"><path class="cls-1" d="M39.8,49.8H26a1.3,1.3,0,0,1-1.3-1.3V47.4A1.3,1.3,0,0,1,26,46.1H39.8a1.3,1.3,0,0,1,1.3,1.3v1.1A1.3,1.3,0,0,1,39.8,49.8ZM26.3,48.2H39.5v-.5H26.3Zm13.5-.5Z"/></g><g id="Rectángulo_4587" data-name="Rectángulo 4587"><path class="cls-1" d="M39.7,30.7H25.9a1.3,1.3,0,0,1-1.3-1.4v-1a1.3,1.3,0,0,1,1.3-1.4H39.7a1.4,1.4,0,0,1,1.4,1.4v1A1.4,1.4,0,0,1,39.7,30.7ZM26.2,29.1H39.5v-.6H26.2Zm13.5-.6h0Z"/></g><g id="Rectángulo_4587-2" data-name="Rectángulo 4587-2"><path class="cls-1" d="M22.1,30.7H8.3a1.4,1.4,0,0,1-1.4-1.4v-1a1.4,1.4,0,0,1,1.4-1.4H22.1a1.3,1.3,0,0,1,1.3,1.4v1A1.3,1.3,0,0,1,22.1,30.7ZM8.5,29.1H21.8v-.6H8.5Zm13.6-.6Z"/></g><g id="Grupo_14992" data-name="Grupo 14992"><g id="Trazado_12456" data-name="Trazado 12456"><path class="cls-2" d="M17,10.4l-1.1-.2a3.3,3.3,0,0,1-1.8-1.7,3.1,3.1,0,0,1,1.6-4.1,3,3,0,0,1,4.1,1.5h0A3.1,3.1,0,0,1,20,8.2a3.5,3.5,0,0,1-1.7,1.9A3.1,3.1,0,0,1,17,10.4Zm0-4.7h-.7a2.4,2.4,0,0,0-.8.9,1.7,1.7,0,0,0,.1,1.2,2,2,0,0,0,.8.8,1.7,1.7,0,0,0,1.2-.1,1.6,1.6,0,0,0,.9-.9,1.4,1.4,0,0,0-.1-1.1h0A1.5,1.5,0,0,0,17,5.7Z"/></g><g id="Rectángulo_4585-2" data-name="Rectángulo 4585-2"><path class="cls-1" d="M26.3,7.3H22.6a1.2,1.2,0,0,1-1.1-1.2V4.6a1.1,1.1,0,0,1,1.1-1.2h3.7a1.1,1.1,0,0,1,1.1,1.2V6.1A1.2,1.2,0,0,1,26.3,7.3ZM23.1,5.7h2.7V5H23.1ZM26.3,5Z"/></g><g id="Trazado_11678-3" data-name="Trazado 11678-3"><path class="cls-1" d="M30,26.4H17.7a.8.8,0,0,1-.8-.8V22a1.6,1.6,0,0,1-1.3-1.5v-.4a1.6,1.6,0,0,1,1.3-1.5V15.3a1.6,1.6,0,0,1-1.3-1.5v-.4a1.5,1.5,0,0,1,1.3-1.5v-.6a.8.8,0,0,1,.8-.8.7.7,0,0,1,.8.8v1.4a.8.8,0,0,1-.8.8h-.5v.2h.5a.7.7,0,0,1,.8.8v4.9a.8.8,0,0,1-.8.8h-.5v.2h.5a.7.7,0,0,1,.8.8v3.6H29.2V21.2a.8.8,0,0,1,.8-.8h.5v-.2H30a.9.9,0,0,1-.8-.8V14.5a.8.8,0,0,1,.8-.8h.5v-.2H30a.9.9,0,0,1-.8-.8V8.6a.8.8,0,1,1,1.6,0v3.3l.9.4a2.1,2.1,0,0,1,.4,1.1v.4a1.6,1.6,0,0,1-1.3,1.5v3.3a1.5,1.5,0,0,1,1.3,1.5v.4A1.6,1.6,0,0,1,30.8,22v3.6A.8.8,0,0,1,30,26.4Z"/></g><g id="Línea_2316-3" data-name="Línea 2316-3"><path class="cls-1" d="M27.6,14.2H20.1a.9.9,0,0,1-.8-.8.8.8,0,0,1,.8-.8h7.5a.7.7,0,0,1,.8.8A.8.8,0,0,1,27.6,14.2Z"/></g><g id="Línea_2317-3" data-name="Línea 2317-3"><path class="cls-1" d="M27.6,20.9H20.1a.9.9,0,0,1-.8-.8.8.8,0,0,1,.8-.8h7.5a.7.7,0,0,1,.8.8A.8.8,0,0,1,27.6,20.9Z"/></g><g id="Rectángulo_4586-3" data-name="Rectángulo 4586-3"><path class="cls-1" d="M30.8,28.5H17a1.3,1.3,0,0,1-1.4-1.3V26.1A1.3,1.3,0,0,1,17,24.8H30.8a1.3,1.3,0,0,1,1.3,1.3v1.1A1.3,1.3,0,0,1,30.8,28.5ZM17.2,26.9H30.5v-.5H17.2Zm13.6-.5Z"/></g><g id="Rectángulo_4587-3" data-name="Rectángulo 4587-3"><path class="cls-1" d="M30.7,9.4H21a.8.8,0,0,1-.8-.8.7.7,0,0,1,.8-.8h9.4V7.3H20.9a.9.9,0,0,1-.8-.8.8.8,0,0,1,.8-.8h9.8A1.3,1.3,0,0,1,32,7V8.1A1.3,1.3,0,0,1,30.7,9.4Zm0-2.1Z"/></g></g><g id="Grupo_14993" data-name="Grupo 14993"><g id="Rectángulo_4585-3" data-name="Rectángulo 4585-3"><path class="cls-1" d="M43,7.3H39.3a1.2,1.2,0,0,1-1.1-1.2V4.6a1.1,1.1,0,0,1,1.1-1.2H43a1.1,1.1,0,0,1,1.1,1.2V6.1A1.2,1.2,0,0,1,43,7.3ZM39.8,5.7h2.7V5H39.8ZM43,5Z"/></g><g id="Trazado_11678-4" data-name="Trazado 11678-4"><path class="cls-1" d="M47.7,26.4H35.4a.8.8,0,0,1-.8-.8V22a1.6,1.6,0,0,1-1.3-1.5v-.4a1.6,1.6,0,0,1,1.3-1.5V15.3a1.6,1.6,0,0,1-1.3-1.5v-.4a1.5,1.5,0,0,1,1.3-1.5V8.6a.8.8,0,1,1,1.6,0v4.1a.9.9,0,0,1-.8.8h-.5v.2h.5a.8.8,0,0,1,.8.8v4.9a.9.9,0,0,1-.8.8h-.5v.2h.5a.8.8,0,0,1,.8.8v3.6H46.9V21.2a.7.7,0,0,1,.8-.8h.5v-.2h-.5a.8.8,0,0,1-.8-.8V14.5a.7.7,0,0,1,.8-.8h.5v-.2h-.5a.8.8,0,0,1-.8-.8V8.6a.7.7,0,0,1,.8-.8.8.8,0,0,1,.8.8v3.3a2,2,0,0,1,.8.4,1.6,1.6,0,0,1,.5,1.1v.4a1.6,1.6,0,0,1-1.3,1.5v3.3a1.5,1.5,0,0,1,1.3,1.5v.4A1.6,1.6,0,0,1,48.5,22v3.6A.8.8,0,0,1,47.7,26.4Z"/></g><g id="Línea_2316-4" data-name="Línea 2316-4"><path class="cls-1" d="M45.3,14.2H37.8a.8.8,0,0,1-.8-.8.7.7,0,0,1,.8-.8h7.5a.8.8,0,0,1,.8.8A.9.9,0,0,1,45.3,14.2Z"/></g><g id="Línea_2317-4" data-name="Línea 2317-4"><path class="cls-1" d="M45.3,20.9H37.8a.8.8,0,0,1-.8-.8.7.7,0,0,1,.8-.8h7.5a.8.8,0,0,1,.8.8A.9.9,0,0,1,45.3,20.9Z"/></g><g id="Rectángulo_4586-4" data-name="Rectángulo 4586-4"><path class="cls-1" d="M48.4,28.5H34.6a1.3,1.3,0,0,1-1.3-1.3V26.1a1.3,1.3,0,0,1,1.3-1.3H48.4a1.3,1.3,0,0,1,1.4,1.3v1.1A1.3,1.3,0,0,1,48.4,28.5ZM34.9,26.9H48.2v-.5H34.9Zm13.5-.5Z"/></g><g id="Rectángulo_4587-4" data-name="Rectángulo 4587-4"><path class="cls-1" d="M48.4,9.4H34.6a1.3,1.3,0,0,1-1.4-1.3V7a1.3,1.3,0,0,1,1.4-1.3H48.4A1.3,1.3,0,0,1,49.7,7V8.1A1.3,1.3,0,0,1,48.4,9.4ZM34.8,7.8H48.1V7.3H34.8Zm13.6-.5Z"/></g></g><g id="Grupo_14994" data-name="Grupo 14994"><g id="Trazado_11678-5" data-name="Trazado 11678-5"><path class="cls-1" d="M56.5,47.7H44.3a.7.7,0,0,1-.8-.8V43.2a1.4,1.4,0,0,1-1.3-1.5v-.3a1.4,1.4,0,0,1,1.3-1.5V36.5A1.4,1.4,0,0,1,42.2,35v-.3a1.4,1.4,0,0,1,1.3-1.5V29.9a.7.7,0,0,1,.8-.8.8.8,0,0,1,.8.8V34a.9.9,0,0,1-.8.8h-.5V35h.5a.8.8,0,0,1,.8.8v4.9a.9.9,0,0,1-.8.8h-.5v.2h.5a.8.8,0,0,1,.8.8v3.6H55.7V42.5a.8.8,0,0,1,.8-.8H57v-.2h-.5a.9.9,0,0,1-.8-.8V35.8a.8.8,0,0,1,.8-.8H57v-.2h-.5a.9.9,0,0,1-.8-.8V29.9a.8.8,0,0,1,.8-.8.7.7,0,0,1,.8.8v3.3a1.3,1.3,0,0,1,.9.4,1.5,1.5,0,0,1,.4,1.1V35a1.4,1.4,0,0,1-1.3,1.5v3.4a1.4,1.4,0,0,1,1.3,1.5v.3a1.4,1.4,0,0,1-1.3,1.5v3.7A.7.7,0,0,1,56.5,47.7Z"/></g><g id="Línea_2316-5" data-name="Línea 2316-5"><path class="cls-1" d="M54.2,35.5H46.6a.9.9,0,0,1-.8-.8.8.8,0,0,1,.8-.8h7.6a.8.8,0,0,1,.8.8A.9.9,0,0,1,54.2,35.5Z"/></g><g id="Línea_2317-5" data-name="Línea 2317-5"><path class="cls-1" d="M54.2,42.2H46.6a.9.9,0,0,1-.8-.8.8.8,0,0,1,.8-.8h7.6a.8.8,0,0,1,.8.8A.9.9,0,0,1,54.2,42.2Z"/></g><g id="Rectángulo_4586-5" data-name="Rectángulo 4586-5"><path class="cls-1" d="M57.3,49.8H43.5a1.3,1.3,0,0,1-1.3-1.3V47.4a1.3,1.3,0,0,1,1.3-1.3H57.3a1.3,1.3,0,0,1,1.3,1.3v1.1A1.3,1.3,0,0,1,57.3,49.8ZM43.8,48.2H57v-.5H43.8Zm13.5-.5Z"/></g><g id="Rectángulo_4587-5" data-name="Rectángulo 4587-5"><path class="cls-1" d="M57.2,30.7H43.4a1.3,1.3,0,0,1-1.3-1.4v-1a1.3,1.3,0,0,1,1.3-1.4H57.2a1.4,1.4,0,0,1,1.4,1.4v1A1.4,1.4,0,0,1,57.2,30.7ZM43.7,29.1H57v-.6H43.7Zm13.5-.6h0Z"/></g></g></g></g><g id="Grupo_14998" data-name="Grupo 14998"><g id="Rectángulo_3799-2" data-name="Rectángulo 3799-2"><rect class="cls-3" width="65" height="65"/></g></g><rect class="cls-3" y="48.3" width="65" height="16.74"/><path class="cls-4" d="M45.4,61.3H38.2A1.2,1.2,0,0,1,37,60.1a1.3,1.3,0,0,1,1.2-1.2h7.2a1.3,1.3,0,0,1,1.2,1.2A1.2,1.2,0,0,1,45.4,61.3Z"/><path class="cls-4" d="M53.1,61.3h-.6a1.2,1.2,0,0,1-1.2-1.2,1.3,1.3,0,0,1,1.2-1.2h.6a1.2,1.2,0,0,1,1.2,1.2A1.2,1.2,0,0,1,53.1,61.3Z"/><path class="cls-4" d="M19,61.3H11.9a1.2,1.2,0,0,1-1.2-1.2,1.2,1.2,0,0,1,1.2-1.2H19a1.2,1.2,0,0,1,1.2,1.2A1.2,1.2,0,0,1,19,61.3Z"/><path class="cls-5" d="M31,61.3H18.5a1.2,1.2,0,0,1-1.2-1.2,1.3,1.3,0,0,1,1.2-1.2H31a1.2,1.2,0,0,1,1.2,1.2A1.2,1.2,0,0,1,31,61.3Z"/><path class="cls-5" d="M35.5,55.2H11.9a1.2,1.2,0,1,1,0-2.4H35.5a1.2,1.2,0,0,1,0,2.4Z"/><path class="cls-4" d="M53.1,55.2H34.7a1.2,1.2,0,0,1,0-2.4H53.1a1.2,1.2,0,0,1,0,2.4Z"/><path class="cls-4" d="M12.3,55.2h-.4a1.2,1.2,0,1,1,0-2.4h.4a1.2,1.2,0,0,1,0,2.4Z"/></svg>