<svg id="Capa_1" data-name="Capa 1" xmlns="http://www.w3.org/2000/svg" viewBox="0 0 65 65"><defs><style>.cls-1{fill:#00ab00;}.cls-2{fill:#90a6b1;}.cls-3{fill:none;}.cls-4{fill:#19a301;}.cls-5{fill:#82d400;}</style></defs><title>rebombeo</title><g id="Trazado_11848" data-name="Trazado 11848"><path class="cls-1" d="M16.9,15.7a4.5,4.5,0,0,1,0-8.9h0a4.4,4.4,0,0,1,4.4,4.4h0A4.4,4.4,0,0,1,16.9,15.7Zm0-7.3h0a2.9,2.9,0,1,0,2.8,2.9h0A2.8,2.8,0,0,0,16.9,8.4Z"/></g><g id="Trazado_11859" data-name="Trazado 11859"><path class="cls-2" d="M45.5,45.2h-.4a1,1,0,0,1-.5-.4c-1.4-1.7-6.7-7.9-6.7-13.1a7.7,7.7,0,0,1,7-8.3h1A7.8,7.8,0,0,1,53,31.7c0,5.2-5.3,11.4-6.8,13a.8.8,0,0,1-.5.5Zm-.1-20.3h-.3a6.1,6.1,0,0,0-5.6,6.6c0,4.4,4.3,9.8,5.9,11.7,1.6-1.9,6-7.3,6-11.6a6.2,6.2,0,0,0-5.6-6.7h-.4Z"/></g><g id="Trazado_11860" data-name="Trazado 11860"><path class="cls-2" d="M45.4,33.5A2.7,2.7,0,1,1,48,30.8,2.6,2.6,0,0,1,45.4,33.5Zm0-3.7a1,1,0,0,0-1,1,1,1,0,1,0,2,0A1,1,0,0,0,45.4,29.8Z"/></g><path class="cls-2" d="M26.7,12.1H24.1a.8.8,0,0,1-.8-.8.9.9,0,0,1,.8-.8h2.6a.9.9,0,0,1,.8.8A.8.8,0,0,1,26.7,12.1Z"/><path class="cls-2" d="M30.7,45H25.4a.8.8,0,0,1-.7-.8.8.8,0,0,1,.8-.8h5.2a.8.8,0,0,1,.8.8A.7.7,0,0,1,30.7,45ZM20.6,43.3l-.5-.2a10.2,10.2,0,0,1-3.4-4.5.8.8,0,0,1,.5-1,.7.7,0,0,1,1,.4,9,9,0,0,0,2.9,3.8.9.9,0,0,1,.2,1.1A1,1,0,0,1,20.6,43.3Zm-3.5-9.4h-.2a.8.8,0,0,1-.6-.9A10.6,10.6,0,0,1,19,28a.8.8,0,0,1,1.2,1.2,7.3,7.3,0,0,0-2.3,4.1A.8.8,0,0,1,17.1,33.9Zm7.1-7a.8.8,0,0,1-.8-.6.8.8,0,0,1,.6-.9,6.8,6.8,0,0,1,2-.2h3.4a.8.8,0,0,1,.8.8.9.9,0,0,1-.8.8H24.2Zm10.1-1.4a.9.9,0,0,1-.6-.3.8.8,0,0,1,.1-1.1,4.3,4.3,0,0,0,1.4-3.2v-1a.8.8,0,0,1,.8-.8.7.7,0,0,1,.8.8v1a6,6,0,0,1-1.9,4.4Zm1.4-10a.7.7,0,0,1-.7-.6,4.4,4.4,0,0,0-3.2-2.7.8.8,0,1,1,.3-1.6,5.9,5.9,0,0,1,4.4,3.8.8.8,0,0,1-.5,1Z"/><path class="cls-2" d="M38.6,45H36.1a.7.7,0,0,1-.8-.8.8.8,0,0,1,.8-.8h2.5a.9.9,0,0,1,.8.8A.8.8,0,0,1,38.6,45Z"/><g id="Grupo_14998" data-name="Grupo 14998"><g id="Rectángulo_3799-2" data-name="Rectángulo 3799-2"><rect class="cls-3" width="65" height="65"/></g></g><rect class="cls-3" y="48.3" width="65" height="16.74"/><path class="cls-4" d="M45.4,61.3H38.2A1.2,1.2,0,0,1,37,60.1a1.3,1.3,0,0,1,1.2-1.2h7.2a1.3,1.3,0,0,1,1.2,1.2A1.2,1.2,0,0,1,45.4,61.3Z"/><path class="cls-4" d="M53.1,61.3h-.6a1.2,1.2,0,0,1-1.2-1.2,1.3,1.3,0,0,1,1.2-1.2h.6a1.2,1.2,0,0,1,1.2,1.2A1.2,1.2,0,0,1,53.1,61.3Z"/><path class="cls-4" d="M19,61.3H11.9a1.2,1.2,0,0,1-1.2-1.2,1.2,1.2,0,0,1,1.2-1.2H19a1.2,1.2,0,0,1,1.2,1.2A1.2,1.2,0,0,1,19,61.3Z"/><path class="cls-5" d="M31,61.3H18.5a1.2,1.2,0,0,1-1.2-1.2,1.3,1.3,0,0,1,1.2-1.2H31a1.2,1.2,0,0,1,1.2,1.2A1.2,1.2,0,0,1,31,61.3Z"/><path class="cls-5" d="M35.5,55.2H11.9a1.2,1.2,0,1,1,0-2.4H35.5a1.2,1.2,0,0,1,0,2.4Z"/><path class="cls-4" d="M53.1,55.2H34.7a1.2,1.2,0,0,1,0-2.4H53.1a1.2,1.2,0,0,1,0,2.4Z"/><path class="cls-4" d="M12.3,55.2h-.4a1.2,1.2,0,1,1,0-2.4h.4a1.2,1.2,0,0,1,0,2.4Z"/></svg>