<?xml version="1.0" encoding="utf-8"?>
<!-- Generator: Adobe Illustrator 24.0.2, SVG Export Plug-In . SVG Version: 6.00 Build 0)  -->
<svg version="1.1" id="Capa_1" xmlns="http://www.w3.org/2000/svg" xmlns:xlink="http://www.w3.org/1999/xlink" x="0px" y="0px"
	 viewBox="0 0 65 65" style="enable-background:new 0 0 65 65;" xml:space="preserve">
<style type="text/css">
	.st0{fill:none;}
	.st1{fill:none;stroke:#95A6B1;stroke-width:1.6;stroke-linecap:round;stroke-linejoin:round;}
	.st2{fill:none;stroke:#19A500;stroke-width:1.6;stroke-linecap:round;stroke-linejoin:round;stroke-miterlimit:10;}
	.st3{fill:#95A6B1;stroke:#95A6B1;stroke-width:1.6;stroke-linecap:round;stroke-linejoin:round;stroke-miterlimit:10;}
	.st4{fill:none;stroke:#95A6B1;stroke-width:1.6;stroke-linecap:round;stroke-linejoin:round;stroke-miterlimit:10;}
	.st5{fill:#4DA12E;}
	.st6{fill:#96D200;}
	.st7{fill:#95A6B1;}
	.st8{fill:none;stroke:#00A800;stroke-width:1.6;stroke-linecap:round;stroke-linejoin:round;stroke-miterlimit:10;}
	.st9{fill:none;stroke:#95A6B1;stroke-width:1.5902;stroke-linecap:round;stroke-linejoin:round;}
	.st10{fill:none;stroke:#19A500;stroke-width:1.6;stroke-miterlimit:10;}
	.st11{fill:none;stroke:#93A4AF;stroke-width:1.6;stroke-linecap:round;stroke-linejoin:round;}
</style>
<g>
	<g>
		<g id="Grupo_14998_2_" transform="translate(-83.703)">
			<rect id="Rectángulo_3799-2_1_" x="83.7" class="st0" width="65" height="65"/>
			<g id="Grupo_15257_1_" transform="translate(-5.723 -1.554)">
				<g id="Grupo_15256_1_">
					<line id="Línea_2918_1_" class="st1" x1="96.48" y1="50.82" x2="147.88" y2="50.82"/>
					<path id="Trazado_12587_1_" class="st1" d="M100.18,18.16V16c0-1.72,1.39-3.11,3.12-3.11c0,0,0,0,0,0h8.62
						c1.72,0,3.12,1.39,3.12,3.11v16.95"/>
					<line id="Línea_2919_1_" class="st1" x1="100.18" y1="50.82" x2="100.18" y2="31.81"/>
					<path id="Trazado_12588_1_" class="st1" d="M129.04,50.74V33.26c0-1.66,1.34-3,3-3h9.12c1.66,0,3,1.34,3,3v17.56"/>
					<path id="Trazado_12589_1_" class="st1" d="M123.3,50.74V27.77c0-1.66,1.34-3,3-3h7.22c1.66,0,3,1.34,3,3v2.34"/>
					<path id="Trazado_11848_1_" class="st8" d="M104.34,24.87c0,2.31-1.88,4.18-4.19,4.18c-2.31,0-4.18-1.88-4.18-4.19
						c0-2.31,1.87-4.18,4.18-4.18l0,0c2.3-0.01,4.17,1.85,4.18,4.15V24.87z"/>
				</g>
			</g>
			<line class="st4" x1="125.61" y1="18.91" x2="125.61" y2="22.9"/>
			<path class="st4" d="M138.28,2.45h-20.18c-2.85,0-5.15,2.31-5.15,5.15v11.28h20.18c2.85,0,5.15-2.31,5.15-5.15V2.45z"/>
			<g>
				<g>
					<path class="st4" d="M123.57,12.62v1.25c0,1.16,0.95,2.09,2.12,2.09h0.16c1.16,0,2.12-0.92,2.12-2.09v-1.25"/>
					<line class="st4" x1="127.96" y1="12.62" x2="127.96" y2="5.38"/>
					<line class="st4" x1="127.96" y1="13.7" x2="127.96" y2="12.62"/>
					<line class="st4" x1="123.56" y1="12.62" x2="123.56" y2="5.38"/>
					<line class="st4" x1="123.56" y1="13.7" x2="123.56" y2="12.62"/>
				</g>
				<g>
					<line class="st4" x1="116.76" y1="15.96" x2="116.76" y2="8.42"/>
					<path class="st4" d="M119.04,5.38h-0.16c-1.16,0-2.12,0.92-2.12,2.09v1.25c0,1.16,0.95,2.12,2.12,2.12h0.16
						c1.16,0,2.12-0.95,2.12-2.12V7.47C121.16,6.3,120.21,5.38,119.04,5.38z"/>
				</g>
				<polyline class="st4" points="134.4,5.49 130.89,5.49 130.89,16.07 134.46,16.07 				"/>
				<line class="st4" x1="134.11" y1="10.75" x2="131.06" y2="10.75"/>
			</g>
		</g>
		<g>
			<g>
				<g>
					<rect y="48.26" class="st0" width="65" height="16.74"/>
				</g>
				<g>
					<g>
						<path class="st5" d="M45.38,61.32h-7.17c-0.66,0-1.2-0.54-1.2-1.2s0.54-1.2,1.2-1.2h7.17c0.66,0,1.2,0.54,1.2,1.2
							S46.04,61.32,45.38,61.32z"/>
					</g>
					<g>
						<path class="st5" d="M53.11,61.32h-0.58c-0.66,0-1.2-0.54-1.2-1.2s0.54-1.2,1.2-1.2h0.58c0.66,0,1.2,0.54,1.2,1.2
							S53.77,61.32,53.11,61.32z"/>
					</g>
					<g>
						<path class="st5" d="M18.99,61.32h-7.1c-0.66,0-1.2-0.54-1.2-1.2s0.54-1.2,1.2-1.2h7.1c0.66,0,1.2,0.54,1.2,1.2
							S19.65,61.32,18.99,61.32z"/>
					</g>
					<g>
						<path class="st6" d="M31.05,61.32H18.53c-0.66,0-1.2-0.54-1.2-1.2s0.54-1.2,1.2-1.2h12.52c0.66,0,1.2,0.54,1.2,1.2
							S31.71,61.32,31.05,61.32z"/>
					</g>
					<g>
						<path class="st6" d="M35.47,55.21H11.89c-0.66,0-1.2-0.54-1.2-1.2s0.54-1.2,1.2-1.2h23.58c0.66,0,1.2,0.54,1.2,1.2
							S36.14,55.21,35.47,55.21z"/>
					</g>
					<g>
						<path class="st5" d="M53.11,55.21H34.75c-0.66,0-1.2-0.54-1.2-1.2s0.54-1.2,1.2-1.2h18.36c0.66,0,1.2,0.54,1.2,1.2
							S53.77,55.21,53.11,55.21z"/>
					</g>
					<g>
						<path class="st5" d="M12.32,55.21h-0.43c-0.66,0-1.2-0.54-1.2-1.2s0.54-1.2,1.2-1.2h0.43c0.66,0,1.2,0.54,1.2,1.2
							S12.98,55.21,12.32,55.21z"/>
					</g>
				</g>
			</g>
		</g>
	</g>
	<polyline class="st9" points="33.87,43.5 33.87,31.4 27.66,33.94 27.66,31.4 22.01,33.7 22.01,31.4 10.76,35.52 10.76,43.5 	"/>
	<rect x="13.96" y="38.56" class="st9" width="16.3" height="4.28"/>
	<line class="st9" x1="39.62" y1="34.66" x2="54.73" y2="34.66"/>
	<line class="st9" x1="25.6" y1="19.78" x2="19.98" y2="19.78"/>
	<line class="st9" x1="25.6" y1="23.76" x2="21.98" y2="23.76"/>
	<line class="st9" x1="40.49" y1="38.99" x2="43.93" y2="38.99"/>
</g>
</svg>
