<?xml version="1.0" encoding="utf-8"?>
<!-- Generator: Adobe Illustrator 24.0.2, SVG Export Plug-In . SVG Version: 6.00 Build 0)  -->
<svg version="1.1" id="Capa_1" xmlns="http://www.w3.org/2000/svg" xmlns:xlink="http://www.w3.org/1999/xlink" x="0px" y="0px"
	 viewBox="0 0 65 65" style="enable-background:new 0 0 65 65;" xml:space="preserve">
<style type="text/css">
	.st0{display:none;}
	.st1{fill:none;stroke:#19A500;stroke-width:1.6;stroke-linecap:round;stroke-linejoin:round;stroke-miterlimit:10;}
	.st2{fill:none;stroke:#95A6B1;stroke-width:1.6;stroke-linecap:round;stroke-linejoin:round;stroke-miterlimit:10;}
	.st3{clip-path:url(#SVGID_2_);}
	.st4{clip-path:url(#SVGID_4_);}
	.st5{fill:none;}
	.st6{fill:#4DA12E;}
	.st7{fill:#96D200;}
</style>
<g id="Capa_2_1_" class="st0">
</g>
<g>
	<g id="Capa_1_1_">
		<g>
			<g>
				<g>
					<path id="Trazado_5703_12_" class="st1" d="M24.65,6.8c0,2.05-1.66,3.7-3.7,3.7s-3.7-1.66-3.7-3.7s1.66-3.7,3.7-3.7
						c2.03-0.01,3.69,1.62,3.7,3.65C24.65,6.77,24.65,6.79,24.65,6.8z"/>
					<g>
						<path class="st2" d="M43.57,19.19v0.07c0,1.33-0.23,2.6-0.67,3.78c-0.24,0.68-0.56,1.33-0.92,1.93
							c-0.65,1.08-1.48,2.03-2.45,2.83c-0.49,0.4-1.02,0.76-1.57,1.08c-1.17,0.67-2.47,1.12-3.86,1.31
							c-0.51,0.08-1.03,0.12-1.57,0.12c-0.06,0-0.12,0-0.17-0.01c-1.52-0.02-2.97-0.35-4.29-0.94c-0.31-0.13-0.6-0.28-0.89-0.44
							c-1.33-0.73-2.49-1.74-3.41-2.94h-0.01c-0.27-0.35-0.52-0.72-0.75-1.1c-0.78-1.32-1.3-2.82-1.47-4.42
							c-0.04-0.38-0.07-0.76-0.07-1.15v-0.05c0-1.41,0.26-2.75,0.75-3.99c0.23-0.6,0.51-1.18,0.84-1.72
							c0.72-1.18,1.65-2.22,2.74-3.05c0.4-0.31,0.83-0.59,1.27-0.84C28.23,9,29.5,8.55,30.86,8.35c0.54-0.09,1.1-0.13,1.66-0.13
							c0.07,0,0.13,0,0.2,0.01c1.58,0.02,3.07,0.38,4.42,1c0.32,0.15,0.63,0.31,0.93,0.49c1.33,0.76,2.48,1.81,3.37,3.04
							c0.26,0.35,0.5,0.72,0.72,1.11c0.7,1.24,1.16,2.64,1.33,4.12C43.54,18.39,43.57,18.78,43.57,19.19z"/>
						<path class="st2" d="M26.84,4.18c1.77-0.67,3.68-1.03,5.68-1.03c8.9,0,16.11,7.21,16.11,16.11s-7.21,16.11-16.11,16.11
							s-16.11-7.21-16.11-16.11c0-2.31,0.49-4.51,1.37-6.5"/>
						<path class="st2" d="M32.43,15.92c0.64-1.25,1-2.66,1-4.16c0-1.25-0.25-2.44-0.71-3.53c-0.07-0.01-0.13-0.01-0.2-0.01
							c-0.57,0-1.12,0.04-1.66,0.13C29.5,8.55,28.23,9,27.08,9.66c-0.45,0.25-0.87,0.53-1.27,0.84c-1.1,0.83-2.03,1.87-2.74,3.05
							c-0.32,0.54-0.61,1.12-0.84,1.72c-0.48,1.24-0.75,2.58-0.75,3.99v0.05c0,0.39,0.02,0.77,0.07,1.15"/>
						<line class="st2" x1="23.77" y1="25.99" x2="23.76" y2="25.99"/>
						<path class="st2" d="M27.08,9.66c2.12,1.52,3.57,3.94,3.78,6.7"/>
						<path class="st2" d="M29.58,17.65c-1.43-2.21-3.79-3.76-6.52-4.09c-0.32,0.54-0.61,1.12-0.84,1.72
							c-0.48,1.24-0.75,2.58-0.75,3.99v0.05c0,0.39,0.02,0.77,0.07,1.15c0.17,1.6,0.69,3.1,1.47,4.42c0.23,0.39,0.48,0.75,0.75,1.1
							h0.01c0.92,1.2,2.08,2.2,3.41,2.94c0.29,0.17,0.58,0.31,0.89,0.44"/>
						<path class="st2" d="M29.17,19.3c-1.16-0.54-2.46-0.84-3.83-0.84c-1.38,0-2.69,0.31-3.86,0.86c0,0.39,0.02,0.77,0.07,1.15
							c0.17,1.6,0.69,3.1,1.47,4.42c0.23,0.39,0.48,0.75,0.75,1.1h0.01c0.92,1.2,2.08,2.2,3.41,2.94c0.29,0.17,0.58,0.31,0.89,0.44
							c1.32,0.59,2.77,0.92,4.29,0.94c0.06,0.01,0.12,0.01,0.17,0.01c0.53,0,1.05-0.04,1.57-0.12"/>
						<path class="st2" d="M29.57,20.85c-2.74,0.31-5.1,1.84-6.55,4.03c0.23,0.39,0.48,0.75,0.75,1.1h0.01
							c0.92,1.2,2.08,2.2,3.41,2.94c0.29,0.17,0.58,0.31,0.89,0.44c1.32,0.59,2.77,0.92,4.29,0.94c0.06,0.01,0.12,0.01,0.17,0.01
							c0.53,0,1.05-0.04,1.57-0.12c1.38-0.19,2.69-0.64,3.86-1.31c0.56-0.31,1.08-0.67,1.57-1.08"/>
						<path class="st2" d="M30.74,22.1c-2.07,1.59-3.44,4.05-3.56,6.82c0.29,0.17,0.58,0.31,0.89,0.44
							c1.32,0.59,2.77,0.92,4.29,0.94c0.06,0.01,0.12,0.01,0.17,0.01c0.53,0,1.05-0.04,1.57-0.12c1.38-0.19,2.69-0.64,3.86-1.31
							c0.56-0.31,1.08-0.67,1.57-1.08c0.97-0.8,1.8-1.75,2.45-2.83c0.37-0.61,0.68-1.25,0.92-1.93"/>
						<path class="st2" d="M32.59,22.61c-0.62,1.23-0.97,2.62-0.97,4.09c0,1.28,0.26,2.49,0.73,3.6c0.06,0.01,0.12,0.01,0.17,0.01
							c0.53,0,1.05-0.04,1.57-0.12c1.38-0.19,2.69-0.64,3.86-1.31c0.56-0.31,1.08-0.67,1.57-1.08c0.97-0.8,1.8-1.75,2.45-2.83
							c0.37-0.61,0.68-1.25,0.92-1.93c0.43-1.18,0.67-2.45,0.67-3.78v-0.07c0-0.41-0.03-0.81-0.07-1.21"/>
						<path class="st2" d="M41.44,12.76c0.26,0.35,0.5,0.72,0.72,1.11c0.7,1.24,1.16,2.64,1.33,4.12c0.04,0.4,0.07,0.8,0.07,1.21
							v0.07c0,1.33-0.23,2.6-0.67,3.78c-0.24,0.68-0.56,1.33-0.92,1.93c-0.65,1.08-1.48,2.03-2.45,2.83
							c-0.49,0.4-1.02,0.76-1.57,1.08c-2.06-1.6-3.43-4.06-3.54-6.84v-0.01"/>
						<path class="st2" d="M37.14,9.23c0.32,0.15,0.63,0.31,0.93,0.49c1.33,0.76,2.48,1.81,3.37,3.04c0.26,0.35,0.5,0.72,0.72,1.11
							c0.7,1.24,1.16,2.64,1.33,4.12c0.04,0.4,0.07,0.8,0.07,1.21v0.07c0,1.33-0.23,2.6-0.67,3.78c-0.24,0.68-0.56,1.33-0.92,1.93
							c-2.72-0.4-5.05-2.01-6.43-4.26"/>
						<path class="st2" d="M35.88,19.29c1.14,0.51,2.41,0.8,3.74,0.8c1.41,0,2.75-0.32,3.95-0.89c0-0.41-0.03-0.81-0.07-1.21
							c-0.17-1.48-0.64-2.88-1.33-4.12c-0.21-0.39-0.45-0.75-0.72-1.11c-0.89-1.24-2.04-2.28-3.37-3.04
							c-0.3-0.18-0.61-0.34-0.93-0.49c-1.35-0.62-2.84-0.98-4.42-1c-0.07-0.01-0.13-0.01-0.2-0.01c-0.57,0-1.12,0.04-1.66,0.13"/>
						<path class="st2" d="M35.47,17.66c2.75-0.22,5.17-1.66,6.7-3.79"/>
						<path class="st2" d="M34.38,16.47c2.11-1.55,3.52-3.98,3.69-6.75c-0.3-0.18-0.61-0.34-0.93-0.49c-1.35-0.62-2.84-0.98-4.42-1
							c-0.07-0.01-0.13-0.01-0.2-0.01c-0.57,0-1.12,0.04-1.66,0.13C29.5,8.55,28.23,9,27.08,9.66c-0.45,0.25-0.87,0.53-1.27,0.84
							c-1.1,0.83-2.03,1.87-2.74,3.05c-0.32,0.54-0.61,1.12-0.84,1.72"/>
						<circle class="st2" cx="32.53" cy="19.27" r="3.35"/>
						<line id="Línea_2122_4_" class="st2" x1="51.86" y1="48.72" x2="13.14" y2="48.72"/>
						<line class="st2" x1="26.73" y1="34.55" x2="26.73" y2="48.72"/>
						<line class="st2" x1="38.71" y1="34.55" x2="38.71" y2="48.72"/>
						<line class="st2" x1="38.71" y1="42.05" x2="47.09" y2="48.72"/>
						<line class="st2" x1="26.73" y1="42.05" x2="18.97" y2="48.72"/>
					</g>
				</g>
			</g>
		</g>
		<g>
			<g>
				<defs>
					<rect id="SVGID_1_" y="48.26" width="65" height="16.74"/>
				</defs>
				<clipPath id="SVGID_2_">
					<use xlink:href="#SVGID_1_"  style="overflow:visible;"/>
				</clipPath>
				<g class="st3">
					<g>
						<defs>
							<rect id="SVGID_3_" y="48.26" width="65" height="16.74"/>
						</defs>
						<clipPath id="SVGID_4_">
							<use xlink:href="#SVGID_3_"  style="overflow:visible;"/>
						</clipPath>
						<g class="st4">
							<g>
								<rect y="48.26" class="st5" width="65" height="16.74"/>
							</g>
							<g>
								<g>
									<path class="st6" d="M45.38,61.32h-7.17c-0.66,0-1.2-0.54-1.2-1.2s0.54-1.2,1.2-1.2h7.17c0.66,0,1.2,0.54,1.2,1.2
										S46.04,61.32,45.38,61.32z"/>
								</g>
								<g>
									<path class="st6" d="M53.11,61.32h-0.58c-0.66,0-1.2-0.54-1.2-1.2s0.54-1.2,1.2-1.2h0.58c0.66,0,1.2,0.54,1.2,1.2
										S53.77,61.32,53.11,61.32z"/>
								</g>
								<g>
									<path class="st6" d="M18.99,61.32h-7.1c-0.66,0-1.2-0.54-1.2-1.2s0.54-1.2,1.2-1.2h7.1c0.66,0,1.2,0.54,1.2,1.2
										S19.65,61.32,18.99,61.32z"/>
								</g>
								<g>
									<path class="st7" d="M31.05,61.32H18.53c-0.66,0-1.2-0.54-1.2-1.2s0.54-1.2,1.2-1.2h12.52c0.66,0,1.2,0.54,1.2,1.2
										S31.71,61.32,31.05,61.32z"/>
								</g>
								<g>
									<path class="st7" d="M35.47,55.21H11.89c-0.66,0-1.2-0.54-1.2-1.2s0.54-1.2,1.2-1.2h23.58c0.66,0,1.2,0.54,1.2,1.2
										S36.13,55.21,35.47,55.21z"/>
								</g>
								<g>
									<path class="st6" d="M53.11,55.21H34.75c-0.66,0-1.2-0.54-1.2-1.2s0.54-1.2,1.2-1.2h18.36c0.66,0,1.2,0.54,1.2,1.2
										S53.77,55.21,53.11,55.21z"/>
								</g>
								<g>
									<path class="st6" d="M12.32,55.21h-0.43c-0.66,0-1.2-0.54-1.2-1.2s0.54-1.2,1.2-1.2h0.43c0.66,0,1.2,0.54,1.2,1.2
										S12.98,55.21,12.32,55.21z"/>
								</g>
							</g>
						</g>
					</g>
				</g>
			</g>
		</g>
	</g>
	<rect id="Rectángulo_3799-2_17_" class="st5" width="65" height="65"/>
</g>
</svg>
