<?xml version="1.0" encoding="utf-8"?>
<!-- Generator: Adobe Illustrator 24.0.2, SVG Export Plug-In . SVG Version: 6.00 Build 0)  -->
<svg version="1.1" xmlns="http://www.w3.org/2000/svg" xmlns:xlink="http://www.w3.org/1999/xlink" x="0px" y="0px"
	 viewBox="0 0 47 47" style="enable-background:new 0 0 47 47;" xml:space="preserve">
<style type="text/css">
	.st0{display:none;}
	.st1{display:inline;fill:#9AA5AF;}
	.st2{fill:none;stroke:#FFFFFF;stroke-width:1.5;stroke-linecap:round;stroke-linejoin:round;}
	.st3{fill:none;}
	.st4{fill:none;stroke:#19A500;stroke-width:1.6;stroke-linecap:round;stroke-linejoin:round;stroke-miterlimit:10;}
	.st5{fill:none;stroke:#95A6B1;stroke-width:1.6;stroke-linecap:round;stroke-linejoin:round;stroke-miterlimit:10;}
	.st6{fill:none;stroke:#4DA12E;stroke-width:2.4;stroke-linecap:round;stroke-linejoin:round;stroke-miterlimit:10;}
	.st7{fill:none;stroke:#96D200;stroke-width:2.4;stroke-linecap:round;stroke-linejoin:round;stroke-miterlimit:10;}
</style>
<g id="Capa_2" class="st0">
	<rect x="-4.43" y="-4.19" class="st1" width="55.38" height="55.38"/>
</g>
<g id="Capa_1">
	<g id="Grupo_13373">
		<path id="Trazado_11772" class="st2" d="M16.01,8.01c0.75,1.64,0.03,3.58-1.61,4.33c-1.64,0.75-3.58,0.03-4.33-1.61
			s-0.03-3.58,1.61-4.33c0,0,0,0,0,0c1.64-0.75,3.57-0.04,4.33,1.6C16.01,8,16.01,8.01,16.01,8.01z"/>
		<g id="Grupo_13370">
			<path id="Trazado_11773" class="st2" d="M11.28,16.28v18.14c0,3.14,2.54,5.68,5.68,5.68l0,0h9.02l10.89-0.02V7.29H19.32"/>
		</g>
		<g id="Grupo_13371">
			<path id="Trazado_6132" class="st2" d="M31.65,18.09c-1.23,2.36-4.48,3.09-4.48,3.09s-1.26-3.09-0.03-5.44s4.48-3.09,4.48-3.09
				S32.88,15.73,31.65,18.09z"/>
			<line id="Línea_1426" class="st2" x1="27.17" y1="21.18" x2="29.4" y2="16.91"/>
		</g>
		<g id="Grupo_13372">
			<circle id="Elipse_2271" class="st2" cx="24.08" cy="26.28" r="2.99"/>
			<path id="Trazado_11774_1_" class="st2" d="M26.61,18.43c-0.78-0.18-2.11-0.27-2.53-0.27c-0.42,0.01-0.84,0.04-1.26,0.11
				l-0.83,1.88c-0.38,0.85-1.26,1.37-2.19,1.26l-2.05-0.22c-0.53,0.65-0.95,1.39-1.25,2.17l1.22,1.66c0.55,0.75,0.55,1.78,0,2.53
				l-1.22,1.66c0.3,0.78,0.72,1.52,1.25,2.17l2.05-0.22c0.93-0.1,1.81,0.41,2.19,1.26l0.83,1.88c0.83,0.14,1.68,0.14,2.51,0
				l0.83-1.88c0.38-0.85,1.26-1.36,2.19-1.26l2.05,0.22c0.53-0.65,0.95-1.39,1.25-2.17l-1.22-1.66c-0.55-0.75-0.55-1.78,0-2.53
				l1.22-1.66c-0.2-0.72-1.23-2.35-2.06-3.19"/>
		</g>
	</g>
	<rect id="Rectángulo_4657" class="st3" width="47" height="47"/>
</g>
</svg>
