<svg id="Capa_1" data-name="Capa 1" xmlns="http://www.w3.org/2000/svg" viewBox="0 0 84 84"><defs><style>.cls-1{fill:#6859a3;}.cls-2{fill:none;}</style></defs><title>escuchar_hablar</title><path class="cls-1" d="M69.9,53.3l-6.8-1.1V49.7a9.1,9.1,0,0,0,4.1-5.5h.3A4.5,4.5,0,0,0,72,39.8a4.4,4.4,0,0,0-3.3-4.3A6.5,6.5,0,0,0,72,29.8a6.7,6.7,0,0,0-6.7-6.7,4.3,4.3,0,0,0-3.2,1.4,8.3,8.3,0,0,0-4.6-1.4H56a8.5,8.5,0,0,0-7,3.7l-.9.6a6.1,6.1,0,0,0-2.8,5.1,7.7,7.7,0,0,0,.2,1.5l.8,3.1a4.3,4.3,0,0,0-1,2.7,4.5,4.5,0,0,0,4.5,4.4h.3a9.1,9.1,0,0,0,4.1,5.5v2.5l-6.8,1.1A7.7,7.7,0,0,0,40.9,61V76.4H76.4V61a7.7,7.7,0,0,0-6.5-7.7m-15.1,1,2.5,3.2L55,60.3l-.5-5.9Zm3.7,11h.4l1.7,8.9H56.7Zm.5-2.2h-.7l-.9-2.2,1.3-1.6,1.2,1.6Zm1.1-5.6,2.4-3.2h.4l-.6,5.9Zm9.7-17.7A2.2,2.2,0,0,1,67.5,42V37.6a2.2,2.2,0,0,1,2.3,2.2M63.1,27.6a2.2,2.2,0,0,1,2.2-2.3,4.5,4.5,0,1,1,0,8.9H53.1A1.1,1.1,0,0,1,52,33.1H49.8v2.2a7.6,7.6,0,0,0-1.6.3l-.5-2.1a3.8,3.8,0,0,1-.1-1,3.9,3.9,0,0,1,1.7-3.3l1.3-.8v-.2A6.4,6.4,0,0,1,56,25.3h1.5A6.1,6.1,0,0,1,61,26.4h0a4.9,4.9,0,0,0-.1,1.2M47.6,39.8a2.2,2.2,0,0,1,2.2-2.2V42a2.2,2.2,0,0,1-2.2-2.2M52,42V36.2a2,2,0,0,0,1.1.2H65.3V42A6.7,6.7,0,1,1,52,42m6.7,8.9a8.3,8.3,0,0,0,2.2-.3v2.1l-2.2,3-2.3-3V50.6a8.5,8.5,0,0,0,2.3.3M43.1,61a5.5,5.5,0,0,1,4.6-5.5l4.6-.8,1.1,11.2,2.4-3,.6,1.4-2,9.9H49.8V62H47.6V74.2H43.1ZM74.2,74.2H69.8V62H67.5V74.2H62.9l-2-9.9.6-1.4,2.4,3L65,54.7l4.6.8A5.4,5.4,0,0,1,74.2,61ZM9.8,63.6V76.4H34.2V73.6a23.6,23.6,0,0,0-6.6-16.5V54.2h1.5a3.9,3.9,0,0,0,1.8-.4,4,4,0,0,0,2.2-3.6v-3l3.3-1.1v-.8c0-3.2-1.9-9.2-2.2-10.2a10,10,0,0,0-10-9.8H22a10,10,0,0,0-10,10v4a20.1,20.1,0,0,1-2.1,8.9,22.2,22.2,0,0,0-2.3,9.9v.6a6.4,6.4,0,0,0,2.2,4.9M12,72h6.7v2.2H12Zm20,2.2H20.9V65.3H18.7v4.5H12V64.9a5.7,5.7,0,0,0,2.2.4,6.7,6.7,0,0,0,6.7-6.6H26a21.2,21.2,0,0,1,6,14.9ZM30.9,45.6v4.6a1.8,1.8,0,0,1-1,1.6l-.8.2h-6v2.2h2.2v2.2H20.9V48l-1.3-.7a1.5,1.5,0,0,1-.9-1.4,1.7,1.7,0,0,1,1.6-1.7h1.6l.9-6.3a1.7,1.7,0,0,1,1.6-1.5h7.9a48.5,48.5,0,0,1,1.9,8.1ZM9.8,58.1a19.4,19.4,0,0,1,2.1-8.9,22.8,22.8,0,0,0,2.3-9.9v-4A7.8,7.8,0,0,1,22,27.6h2.2a7.8,7.8,0,0,1,7.7,6.6H24.4a3.9,3.9,0,0,0-3.8,3.3L19.9,42a3.9,3.9,0,0,0-1.3,7.3h.1v9.4a4.5,4.5,0,0,1-8.9,0Zm20-17.2a1.1,1.1,0,1,1-1.1-1.1,1.1,1.1,0,0,1,1.1,1.1M45.3,14.2H29.8V12H45.3Zm-4.4,4.5H29.8V16.5H40.9Zm-3.8,4.4,3.7,3.7a2.6,2.6,0,0,0,1.9.8,2.7,2.7,0,0,0,2.6-2.7V23.1h.2a4.2,4.2,0,0,0,4.3-4.2V12a4.5,4.5,0,0,0-4.5-4.4H29.8A4.5,4.5,0,0,0,25.3,12v6.9a4.3,4.3,0,0,0,4.3,4.2Zm-9.5-4.2V12a2.2,2.2,0,0,1,2.2-2.2H45.3A2.2,2.2,0,0,1,47.6,12v6.9a2.1,2.1,0,0,1-2.1,2H43.1v4a.5.5,0,0,1-.8.3L38,20.9H29.6a2,2,0,0,1-2-2"/><rect class="cls-2" width="84" height="84"/></svg>