<svg id="Capa_1" data-name="Capa 1" xmlns="http://www.w3.org/2000/svg" viewBox="0 0 84 84"><defs><style>.cls-1{fill:#52ae32;}.cls-2{fill:none;}</style></defs><title>eticos_siempre</title><path class="cls-1" d="M53.9,46.4a1.3,1.3,0,0,1-1.4,1.3,1.3,1.3,0,0,1-1.3-1.3A1.3,1.3,0,0,1,52.5,45a1.4,1.4,0,0,1,1.4,1.4"/><path class="cls-1" d="M14.5,46.8a5,5,0,0,1-3.6-1.6,1.2,1.2,0,0,0-1-.5H8.3A1.4,1.4,0,0,0,7,46.1V58.4a1.3,1.3,0,0,0,1.3,1.4H19.4a7.5,7.5,0,0,0-1.8,4.8,7.6,7.6,0,0,0,15.1,0,7,7,0,0,0-1.8-4.8H53.1a7,7,0,0,0-1.8,4.8,7.6,7.6,0,1,0,13.3-4.8H75.7A1.3,1.3,0,0,0,77,58.4V46.1a1.4,1.4,0,0,0-1.3-1.4H74.1a1.2,1.2,0,0,0-1,.5,5,5,0,0,1-3.6,1.6,4.8,4.8,0,0,1,0-9.6,5,5,0,0,1,3.6,1.6,1.2,1.2,0,0,0,1,.5h1.6A1.3,1.3,0,0,0,77,37.9V25.6a1.3,1.3,0,0,0-1.3-1.4H64.6a7.5,7.5,0,0,0,1.8-4.8,7.6,7.6,0,0,0-15.1,0,7,7,0,0,0,1.8,4.8H30.9a7,7,0,0,0,1.8-4.8,7.6,7.6,0,1,0-13.3,4.8H8.3A1.3,1.3,0,0,0,7,25.6V37.9a1.3,1.3,0,0,0,1.3,1.4H9.9a1.2,1.2,0,0,0,1-.5,5,5,0,0,1,3.6-1.6,4.8,4.8,0,1,1,0,9.6m0-12.3a7.4,7.4,0,0,0-4.8,1.7V26.9H21.1a1.3,1.3,0,0,0,1.3-1.3V24a1.2,1.2,0,0,0-.4-1,4.6,4.6,0,0,1-1.6-3.6,4.8,4.8,0,0,1,4.8-4.8A4.9,4.9,0,0,1,30,19.4,5,5,0,0,1,28.4,23a1.2,1.2,0,0,0-.5,1v1.6a1.3,1.3,0,0,0,1.4,1.3H40.6v11A1.4,1.4,0,0,0,42,39.3h1.6a1.2,1.2,0,0,0,1-.5,4.8,4.8,0,0,1,3.6-1.6,4.9,4.9,0,0,1,4.6,3.6,1.3,1.3,0,0,0,1.7.9,1.2,1.2,0,0,0,.9-1.6,7.5,7.5,0,0,0-12-3.9V26.9H54.7a1.3,1.3,0,0,0,1.4-1.3V24a1.2,1.2,0,0,0-.5-1A5,5,0,0,1,54,19.4a4.9,4.9,0,0,1,4.8-4.8,4.8,4.8,0,0,1,4.8,4.8A4.6,4.6,0,0,1,62,23a1.2,1.2,0,0,0-.4,1v1.6a1.3,1.3,0,0,0,1.3,1.3H74.3v9.3a7.4,7.4,0,0,0-4.8-1.7,7.5,7.5,0,0,0,0,15,7.4,7.4,0,0,0,4.8-1.7v9.3H62.9a1.3,1.3,0,0,0-1.3,1.3V60a1.2,1.2,0,0,0,.4,1,4.6,4.6,0,0,1,1.6,3.6,4.8,4.8,0,0,1-4.8,4.8A4.9,4.9,0,0,1,54,64.6,5,5,0,0,1,55.6,61a1.2,1.2,0,0,0,.5-1V58.4a1.3,1.3,0,0,0-1.4-1.3H43.4V47.8a7.6,7.6,0,0,0,2.8,1.5,1.4,1.4,0,0,0,1.7-1,1.4,1.4,0,0,0-1-1.7,4.6,4.6,0,0,1-2.3-1.4,1.2,1.2,0,0,0-1-.5H42a1.4,1.4,0,0,0-1.4,1.4v11H29.3a1.3,1.3,0,0,0-1.4,1.3V60a1.2,1.2,0,0,0,.5,1A5,5,0,0,1,30,64.6a4.9,4.9,0,0,1-4.8,4.8,4.8,4.8,0,0,1-4.8-4.8A4.6,4.6,0,0,1,22,61a1.2,1.2,0,0,0,.4-1V58.4a1.3,1.3,0,0,0-1.3-1.3H9.7V47.8a7.4,7.4,0,0,0,4.8,1.7,7.5,7.5,0,0,0,0-15"/><rect class="cls-2" width="84" height="84"/></svg>