<svg id="Capa_1" data-name="Capa 1" xmlns="http://www.w3.org/2000/svg" viewBox="0 0 84 84"><defs><style>.cls-1{fill:#e8336e;}.cls-2{fill:none;}</style></defs><title>hacemos_lo_imposible</title><path class="cls-1" d="M35.7,69.5l-.3,1,.3-1a1.1,1.1,0,0,0-1.3.8,1,1,0,0,0,.8,1.2h.3a1,1,0,0,0,1-.8,1,1,0,0,0-.8-1.2"/><path class="cls-1" d="M43.6,69.8v0a1,1,0,0,0-.9,1.2,1,1,0,0,0,1,.9h.2a1.1,1.1,0,1,0-.3-2.1"/><path class="cls-1" d="M39.6,69.9h0a1.2,1.2,0,0,0-1.1,1,1.1,1.1,0,0,0,1,1.1h.1a1,1,0,0,0,1-1c.1-.5-.4-1-1-1.1"/><path class="cls-1" d="M31.8,68.4h0a1,1,0,0,0-1.3.6,1.1,1.1,0,0,0,.6,1.4h.4a.9.9,0,0,0,.9-.6,1,1,0,0,0-.6-1.4"/><path class="cls-1" d="M47.6,69.1l.2,1-.2-1a1.1,1.1,0,0,0-.8,1.3,1.1,1.1,0,0,0,1,.7h.3a1,1,0,0,0,.7-1.3.9.9,0,0,0-1.2-.7"/><path class="cls-1" d="M51.3,67.8l.4.9-.4-.9a1,1,0,0,0-.5,1.3,1.1,1.1,0,0,0,.9.7h.5a1.1,1.1,0,0,0,.5-1.4,1,1,0,0,0-1.4-.5"/><path class="cls-1" d="M27.8,20.3l.5-.2a1.1,1.1,0,0,0,.5-1.4,1.1,1.1,0,0,0-1.5-.4h0a1,1,0,0,0-.4,1.4,1.1,1.1,0,0,0,.9.6"/><path class="cls-1" d="M15.8,31.9h.5a1.2,1.2,0,0,0,.9-.5h0a1.1,1.1,0,0,0-.5-1.4,1.1,1.1,0,0,0-.9,1.9"/><path class="cls-1" d="M14.3,35.8h.3a1,1,0,0,0,1-.7h0a1,1,0,0,0-.6-1.3,1.1,1.1,0,0,0-1.3.7,1,1,0,0,0,.6,1.3"/><path class="cls-1" d="M17.8,28.3l.6.2a1.1,1.1,0,0,0,.9-.5h0a1.1,1.1,0,0,0-.2-1.4,1,1,0,0,0-1.5.2l.8.6-.8-.6a1.2,1.2,0,0,0,.2,1.5"/><path class="cls-1" d="M24.3,22.5l.6-.2a1,1,0,0,0,.2-1.5,1.1,1.1,0,0,0-1.4-.2h0a1,1,0,0,0-.2,1.5.9.9,0,0,0,.8.4"/><path class="cls-1" d="M13.4,51.6a1,1,0,0,0,1,.8h.3a1.1,1.1,0,0,0,.7-1.3,1.2,1.2,0,0,0-1.3-.7,1,1,0,0,0-.7,1.3h0"/><path class="cls-1" d="M21.1,25.3a.9.9,0,0,0,.8-.4,1,1,0,0,0,0-1.4,1.1,1.1,0,0,0-1.5,0h0a1.1,1.1,0,0,0,.7,1.8"/><path class="cls-1" d="M14.5,47.1a.9.9,0,0,0-1.1-.9,1,1,0,0,0-.9,1.1h0a1,1,0,0,0,1,.9h.1a1,1,0,0,0,.9-1.2"/><path class="cls-1" d="M13.2,44.1h.1a1,1,0,0,0,1-1h0a1.1,1.1,0,0,0-1-1,1.1,1.1,0,0,0-1.1,1,1,1,0,0,0,1,1.1"/><path class="cls-1" d="M13.4,39.9h.2a1.1,1.1,0,0,0,1.1-.8h0a1,1,0,0,0-.9-1.1,1,1,0,1,0-.4,2"/><path class="cls-1" d="M62.6,28.6a1,1,0,0,0,.9.4h.6a1.2,1.2,0,0,0,.2-1.5l-.8.6.8-.6a1,1,0,0,0-1.4-.3,1.1,1.1,0,0,0-.3,1.5Z"/><path class="cls-1" d="M67.9,39.1a1,1,0,0,0-.9,1.1h0a1.1,1.1,0,0,0,1,.9h.2a1.1,1.1,0,1,0-.3-2.1"/><path class="cls-1" d="M66.2,36.1h0a1,1,0,0,0,1,.8h.3a1.2,1.2,0,0,0,.7-1.3h0a1.2,1.2,0,0,0-1.3-.7,1,1,0,0,0-.7,1.3"/><path class="cls-1" d="M64.7,32.2a1.1,1.1,0,0,0,.9.6h.5a1.1,1.1,0,0,0,.5-1.4l-1,.5,1-.5a1.1,1.1,0,0,0-1.4-.5,1.1,1.1,0,0,0-.5,1.4Z"/><path class="cls-1" d="M60,25.3a1.1,1.1,0,0,0,.7.3,1.1,1.1,0,0,0,.8-.3,1,1,0,0,0,0-1.4,1.1,1.1,0,0,0-1.5-.1,1.2,1.2,0,0,0-.1,1.5Z"/><path class="cls-1" d="M68.3,43.4a1.1,1.1,0,0,0-1.1,1,1,1,0,0,0,1,1.1h0a1.1,1.1,0,0,0,1.1-1h0a1.1,1.1,0,0,0-1-1.1"/><path class="cls-1" d="M53.3,20.2h0l.5.2a.9.9,0,0,0,.9-.6,1,1,0,0,0-.4-1.4l-.5.9.5-.9a1,1,0,0,0-1,1.8"/><path class="cls-1" d="M56.8,22.5h.1c.1.2.4.2.6.2a1,1,0,0,0,.6-1.8h0a1.2,1.2,0,0,0-1.5.2,1.2,1.2,0,0,0,.2,1.5"/><path class="cls-1" d="M76.9,59.2,72,54.3a2,2,0,0,0-1.5-.6,2.3,2.3,0,0,0-1.6.6h-.1l-.3-.3a4.2,4.2,0,0,1-.9-1.4.3.3,0,0,1-.1-.2,3.2,3.2,0,0,1-.2-1.4V49.7h.4a1.2,1.2,0,0,0,1.1-.9,1,1,0,0,0-.9-1.2c-.2-.1-.4,0-.7.1A5.2,5.2,0,0,0,65.5,44l-4.7-4.8a5.5,5.5,0,0,0-4-1.6,5.1,5.1,0,0,0-3.2,1l-.5-.5v-12a5.8,5.8,0,0,0-1.5-3.9,3.8,3.8,0,0,1-1-2.7v-.9h0a2.2,2.2,0,0,0,2.2-2.2v-7a2.2,2.2,0,0,0-2.2-2.2H31.2A2.2,2.2,0,0,0,29,9.4v7a2.2,2.2,0,0,0,2.2,2.2h.1V19a4.1,4.1,0,0,1-1.2,3L28,24.1a5.9,5.9,0,0,0-1.7,4.2V35a5.8,5.8,0,0,0,.6,2.6,5.2,5.2,0,0,0-3.7,1.6L18.5,44a5.9,5.9,0,0,0-1.8,4.1v3a4.2,4.2,0,0,1-1.2,3l-.3.3h-.1a2.3,2.3,0,0,0-1.6-.6,2,2,0,0,0-1.5.6L7.1,59.2a2.1,2.1,0,0,0,0,3.1L8.7,64a1.1,1.1,0,0,0,1.5-1.5L8.5,60.8h0l4.9-4.9h.2l.9.8h0L26.1,68.3l1.3,1.3h0l-4.9,4.9c-.1.1-.1.1-.2,0l-9.1-9.1A1.1,1.1,0,0,0,11.7,67l9.1,9.1a2.6,2.6,0,0,0,1.6.7,2.6,2.6,0,0,0,1.6-.7l4.8-4.9a2.1,2.1,0,0,0,0-3.1h0l.6-.6a4.5,4.5,0,0,1,2.7-1.2,6,6,0,0,0,3.8-1.7L40.4,60A3.7,3.7,0,0,0,43,57.3a3.7,3.7,0,0,0,1.5.3A3.6,3.6,0,0,0,48.1,54V51.6a3.2,3.2,0,0,0,1.4.3,3.6,3.6,0,0,0,3.6-3.6V41l3.2,3.2a1.1,1.1,0,0,0,.7.3,1.1,1.1,0,0,0,.8-.3,1,1,0,0,0,0-1.4l-2.7-2.7a3.4,3.4,0,0,1,1.7-.5,3.6,3.6,0,0,1,2.5,1.1l4.8,4.7a4,4,0,0,1,1.1,2.7v3A6.3,6.3,0,0,0,67,55.6l.3.3-1.5,1.5-9.1,9.2-.5-.5h-.1A6.7,6.7,0,0,0,52,64.1,3.2,3.2,0,0,1,49.6,63l-3.5-3.4a1,1,0,0,0-1.4,0,1.1,1.1,0,0,0,0,1.5l3.4,3.4a6,6,0,0,0,3.8,1.7,4.5,4.5,0,0,1,2.7,1.2h.1l.5.4h0a2.1,2.1,0,0,0,0,3.1L60,76.1a2.2,2.2,0,0,0,3.2,0L76.9,62.3a2.1,2.1,0,0,0,0-3.1M68,48.8h0ZM34.4,63A3.2,3.2,0,0,1,32,64.1a6.7,6.7,0,0,0-4.1,1.8l-.6.7-.5-.6h-.1l-10-10.1.3-.3a6.3,6.3,0,0,0,1.8-4.5v-3a4,4,0,0,1,1.1-2.7l4.8-4.7a3.6,3.6,0,0,1,2.5-1.1,3.4,3.4,0,0,1,1.7.5l-2.7,2.7a1,1,0,0,0,0,1.4,1.1,1.1,0,0,0,.8.3,1.1,1.1,0,0,0,.7-.3L30.9,41V54a3.6,3.6,0,0,0,3.6,3.6,2.8,2.8,0,0,0,1.5-.4,3.4,3.4,0,0,0,1.8,2.4ZM51,48.3a1.5,1.5,0,0,1-1.5,1.5,1.5,1.5,0,0,1-1.4-1.5V36.7a1,1,0,0,0-1.1-1,.9.9,0,0,0-1,1V54a1.5,1.5,0,0,1-1.5,1.5A1.6,1.6,0,0,1,43,54.3V36.7a1,1,0,0,0-1-1.1l-.5.2a1.1,1.1,0,0,0-.6.9V54c0,.2.1.3.1.4v2.1a1.5,1.5,0,0,1-3,0V36.7a1,1,0,0,0-1-1.1,1.1,1.1,0,0,0-1.1,1.1V54a1.4,1.4,0,0,1-1.4,1.5A1.5,1.5,0,0,1,33,54V34.7a1.1,1.1,0,0,0-1-1.1,1.1,1.1,0,0,0-1.1,1.1v3.5c-.1.1-.2.1-.2.2A3.5,3.5,0,0,1,28.4,35V28.3a3.9,3.9,0,0,1,1.1-2.7l2.1-2.1A6.3,6.3,0,0,0,33.4,19v-.4h2.1a1.1,1.1,0,0,0,1.1-1.1,1.1,1.1,0,0,0-1.1-1H31.2a.1.1,0,0,1-.1-.1v-7H50.8v7H40.4a1,1,0,0,0-1,1,1,1,0,0,0,1,1.1h8.1v.9A6.1,6.1,0,0,0,50,23.6a3.5,3.5,0,0,1,1,2.5ZM75.5,60.8,61.7,74.6a.1.1,0,1,1-.2,0l-4.9-4.9h0l.8-.8h0l8-8,5-5h.2l4.9,4.9h0"/><path class="cls-1" d="M34.5,11.8a1.1,1.1,0,1,0,1.1,1.1,1.1,1.1,0,0,0-1.1-1.1"/><path class="cls-1" d="M70.8,59.3a1.1,1.1,0,1,0,1.1,1.1,1.1,1.1,0,0,0-1.1-1.1"/><path class="cls-1" d="M23.8,69.9a1.1,1.1,0,1,0-2.2,0,1.1,1.1,0,1,0,2.2,0"/><rect class="cls-2" width="84" height="84"/></svg>