<svg id="Capa_1" data-name="Capa 1" xmlns="http://www.w3.org/2000/svg" viewBox="0 0 84 84"><defs><style>.cls-1{fill:#2dafe6;}.cls-2{fill:none;}</style></defs><title>primero_la_vida</title><path class="cls-1" d="M68.8,62a30.2,30.2,0,1,0-51-21.8,29.2,29.2,0,0,0,2.1,11.1l-.3.4c-1.1,1.3-2.1,2.4-4.2,2.4s-3-1.1-4.1-2.4-2.6-3-5.3-3H5.9v1.5H6c2.1,0,3.1,1.1,4.2,2.4h0c1.2,1.4,2.6,2.9,5.2,2.9a6.3,6.3,0,0,0,5.1-2.7,35,35,0,0,0,3.1,5.3,7,7,0,0,0-4,2.8c-1.1,1.3-2.1,2.4-4.2,2.4s-3-1.1-4.1-2.4-2.6-3-5.3-3H5.9v1.5H6c2.1,0,3.1,1.1,4.2,2.4s2.6,3,5.2,3,4.1-1.6,5.3-3,2.1-2.4,4-2.4a30,30,0,0,0,14.6,9.7l-.9,1c-1.1,1.3-2.1,2.4-4.1,2.4s-3.1-1.1-4.2-2.4-2.6-2.9-5.2-2.9-4.1,1.5-5.3,2.9-2.1,2.4-4.2,2.4-3-1.1-4.1-2.4S8.7,67.2,6,67.2H5.9v1.4H6c2.1,0,3.1,1.1,4.2,2.4h0c1.2,1.4,2.6,3,5.2,3s4.1-1.6,5.3-3,2.1-2.4,4.2-2.4,3,1.1,4.1,2.4,2.6,3,5.3,3,4-1.6,5.2-3l1.4-1.4a34,34,0,0,0,6.4.8l.5.6c1.2,1.4,2.6,3,5.3,3s4-1.6,5.2-3,2.2-2.4,4.2-2.4,3,1.1,4.1,2.4,2.6,3,5.3,3h.2V72.5h-.2c-2,0-3-1.1-4.2-2.4s-2.5-2.9-5.2-2.9H61.3A28.7,28.7,0,0,0,67.7,63a5.7,5.7,0,0,0,4.2,1.8h.2V63.3h-.2A4.1,4.1,0,0,1,68.8,62M64.2,21.6h.4a.5.5,0,0,0,.2-.6l-.4-.9h.1c.6,1.2.9,1.7,1,2h-.4l-.2.3-.6-.6a.1.1,0,0,0-.1-.1h0M31.5,36h.2l.8-.5a2,2,0,0,0,.8-.4l1.1.2.4-.2a10.7,10.7,0,0,1,1.5-1.7c1.9-.9,2-.9,7.2-2.3.1-.1.3-.2.3-.4a.4.4,0,0,0-.4-.4L43,30l.4-.4a.6.6,0,0,0,.1-.4h.7c0,.1,0,.1.1.2l.8.8.3.2h.4l.6-.7a.6.6,0,0,0,.1-.4l-.3-.3H46l1.7-1.4a.4.4,0,0,0,.1-.5c-.1-.1-.2-.3-.4-.2h-.7v-.4l-.4-.6.3-.6c.1-.1.1-.2.1-.4l-.3-.2a2.4,2.4,0,0,0-1.7-.2c-.7-1.3-.8-1.4-1.4-1.5h-.4a.4.4,0,0,0-.1.3v.4h-.5l-.3.2-1.8,1.8L38.8,27a9.2,9.2,0,0,1-.6-2.5l1.8-.9c1.7-1.1,2.4-1.5,2.8-1.5l.5.2a.3.3,0,0,0-.1.2c.1.2.2.4.4.4h1l.4.7c0,.1.2.2.3.2a.5.5,0,0,0,.4-.2c.5-1,.8-1.1.8-1.1s.5.3.6.4.2.1.3.1h.3a3.6,3.6,0,0,0,.6-1.1v-.2l-.2-.3h-.2v-.5c0-.1,0-.2-.2-.3s-.3-.3-.2-.4a.4.4,0,0,0-.4-.4l-.5-.2-.5-.2-.2-.2a.2.2,0,0,0-.2-.2h-.4c-.1-.1-.3-.2-.4-.1l-.5.2v-.4a.3.3,0,0,0-.1-.2h.1a.4.4,0,0,0,.1-.3.9.9,0,0,1,.1-.5c0-.1-.1-.2-.2-.3h-.1l.3-.2a.9.9,0,0,0,.3-.8c.1-.2,0-.3-.2-.4a.3.3,0,0,0-.4,0l-1.2.6a.4.4,0,0,0-.2.5c0,.2.2.4.4.3h.5l-.3.2a.2.2,0,0,0-.2.2c-.1.1-.1.1-.1.2s-.2-.2-.3-.1v-.4a.5.5,0,0,0-.4-.2h-.8l-.9.4c-.2.1-.2.3-.2.5h0q.1.3.3.3c0,.1.1.1.1.2h-.3c0-.3-.1-.4-.4-.7a.4.4,0,0,0-.5,0l-.2.3h0c-.1.2-.3.3-.3.6v.3h-.4l-.3.2c0,.2,0,.3.1.4l.4.5h-.5v-.3l-.2-.3h-.4V19l-.3-.2-.6-.2h-.8l.2-.2c0-.1.1-.3,0-.4s-.1-.2-.3-.3a2.6,2.6,0,0,0-.9,0c0-.1,0-.1-.1-.1a.6.6,0,0,0,.1-.4c-.1-.1-.1-.2-.2-.2s0-.3-.1-.4a.4.4,0,0,0-.5-.1l-.9.5h-.1a27.4,27.4,0,0,1,28.5-.4h-.1l-1.2-.4h-.4l-.5.4c-.1,0-.2.1-.2.3a.4.4,0,0,0,.1.3,8.8,8.8,0,0,1,1.7,2.3c-.2.8.1,1,1.4,2.1a.5.5,0,0,0,.5,0h.4V22c-.1.4,0,.5.6,1.2a.1.1,0,0,0-.1.1c-.1,0-.1.2-.1.3v.3l-.8-.4H63l-.6-1a.7.7,0,0,0-.6-.1l-.5.4a.6.6,0,0,0-.1.4.9.9,0,0,0,.3.6,2.6,2.6,0,0,0-.7,1c-.1.1,0,.3,0,.4h.4l-.3.3h.5l-.3.2s0,.2.1.2h.2l.4.2h.1c.2,0,.3-.2.3-.4s.1-.4.2-.4.1-.2.2-.2h0a.4.4,0,0,0,.1.3l.2.2a.4.4,0,0,0,.1.3c0,.1.1.2.3.2s.2,0,1,1.3l-1.7.2c-.2,0-.3,0-.4.2v.4l.6,1.1a2,2,0,0,1,.4.8.3.3,0,0,0,0,.4l.2.6s0,.2.1.2l.2.2H64l2.8-1a.5.5,0,0,0,.2-.6l-.4-1a7.6,7.6,0,0,0,.4-1.1,1.1,1.1,0,0,1,.2-.8h.2c1,1,1.3,1.3,1.8,1.3h.3l.4.6c.2.1.4.2.6,0a.4.4,0,0,0,.1-.5l-.2-.4,1,.8h.4a.5.5,0,0,0,.2-.4v-.3h.1a.2.2,0,0,0,.4.1h.1l.6,1.4-1.3.6c-.1,0-.2.2-.2.4a1.5,1.5,0,0,1-.1.6,10.9,10.9,0,0,1-1.8-1.5c-.1-.2-.3-.2-.5-.1a17.1,17.1,0,0,1-3.9,1.7.3.3,0,0,0-.3.3v.2H65v.5l-.2-.4c-.2,0-.3.1-.3.2a28.2,28.2,0,0,1-3.8,7.2c-.1.2-.1.4.1.5l.6.5c.3,2.7.3,2.8,0,3.6a.4.4,0,0,0,0,.5c3.8,3.4,3.8,3.4,4.7,3.6a.4.4,0,0,0,.5-.1l.4-.7,3.1-.9L72,46h.3c.3.4.2,2.6,0,5.2l-.6,1.8A19.6,19.6,0,0,0,70,56.3v.2A27.4,27.4,0,0,1,48,67.6a21.9,21.9,0,0,1-3.6-.3v-.2H44l-.4-.3c-.3-.4-.3-.4-.3-.8h.4c.1,0,.3,0,.3-.2a.3.3,0,0,0,0-.4h0a.1.1,0,0,1,.1-.1,2.2,2.2,0,0,0,1.1-.5h.7l.4-.3.2-.3a7.7,7.7,0,0,0-.1-1.8c3-1.9,3.4-2.1,2.8-3.5,1.8-1.9,1.9-2,2-3.4v-.6a.4.4,0,0,0-.4-.4c-.2,0-4.4-.2-6.9-2.6h-.3a3.4,3.4,0,0,0-1.9.7h-.1l.3-.3a.4.4,0,0,0,0-.5c-1-2.1-1.3-2.3-2.4-2.4s-1.3-.2-1.6-1.4a.3.3,0,0,1-.1-.2l-.4-.4a10.2,10.2,0,0,0-3.7-2c0-.1-.1-.1-.2-.1h-.7l-1.7-1a.4.4,0,0,0-.5,0c-.4.5-.6.5-.8.5a5.7,5.7,0,0,1-2-1.1A5.2,5.2,0,0,0,26,41.5v-.3c.1-.4.1-.8.2-1.1a2.2,2.2,0,0,0,.6-1.4c.1-.1,0-.2,0-.3l-.3-.2a2.5,2.5,0,0,0-1.7.8h-.2a7.9,7.9,0,0,1-.2-2.5c.4-.2.5-.4,1.2-1.8,1.3.1,1.4.1,2.2.7a.5.5,0,0,0,.5,0l.3-.2v.4a.5.5,0,0,0,.4.2h.5a7.5,7.5,0,0,0,0,1.5,6.2,6.2,0,0,1,.1,1.3c0,.2,0,.3.2.4h0a1.1,1.1,0,0,0-1-.7h-1l-.4.2a.5.5,0,0,0,0,.5A3.6,3.6,0,0,0,29.2,40h0c.5.7.6.8,1.7,1a.1.1,0,0,0,.1.1l.3-.2.3-.2c.1-.1.1-.2.1-.4l-.2-.3c-.1,0-.1-.1-.4-.4s-.5-.7-.9-.7h0l1.4-1.1a.7.7,0,0,0,.1-.5l-.4-.8.2-.5m3.8-6.9c0-.1-.2-.2-.4-.2h-.5c0-.2,0-.3-.2-.4l-.2-.2h-.2c.4-.4.6-.3,1.3,0a3.8,3.8,0,0,0,.8,1.7c-.1.1-.3.2-.4.4l-1,.5a1.4,1.4,0,0,0,.2-.6l.5-.4c.2-.1.2-.3.1-.5m5.1-8.7a4,4,0,0,0,1.6-.8l.2-.2h.1c-.8,1.4-.8,1.4-1.3,1.4h-.1c-.1-.1-.2-.3-.4-.3h-.1m2-1.3h0m1,.8h0a.8.8,0,0,0,.4.4H44l-.6.3v-.7m0-.4v-.4c-.1-.1-.2-.3-.4-.4h.5a1.7,1.7,0,0,0-.1.8m1.4,1.6-.2-.5h.2l.6.2a7.4,7.4,0,0,0-.9,1.2h-.3l.5-.5c.1-.1.2-.2.1-.4m17.7,3.7v-.3h.1ZM29.7,19.9h.4V20h.1a.6.6,0,0,0-.1.4c.1.1.2.3.3.3h0l-6.3,5.9a26.2,26.2,0,0,1,5.5-6.9M21.2,34.6h.6a10.5,10.5,0,0,0-.4,1.7v.2c.1.7.2,1.8.3,2.6l.2.3c3.8,2.3,5.7,6.6,6.1,7.6s-1.5,3.4-1.2,4.6a4.8,4.8,0,0,0,2.5,2.7l.3,1.1a.1.1,0,0,0,.1.1,12,12,0,0,0,4.5,3.2,10.8,10.8,0,0,0,5.7,7.5h0A27.1,27.1,0,0,1,20.6,40.2a26.7,26.7,0,0,1,.6-5.6m36,35.5c-1.1,1.3-2.1,2.4-4.1,2.4a4.7,4.7,0,0,1-3.9-2.1,33,33,0,0,0,9.9-2.1,16.2,16.2,0,0,0-1.9,1.8"/><rect class="cls-2" width="84" height="84"/></svg>