<svg id="Capa_1" data-name="Capa 1" xmlns="http://www.w3.org/2000/svg" viewBox="0 0 84 84"><defs><style>.cls-1{fill:#9c9a88;}.cls-2{fill:none;}</style></defs><title>somos_equipo</title><path class="cls-1" d="M77.9,40.6H60.5V38.3h4.7a1.1,1.1,0,0,0,1.1-1.1,1,1,0,0,0-1.1-1H60.4V33.6h3.3a4.5,4.5,0,0,0,3.2-1.4l7-7.2a2.8,2.8,0,0,0,1.5.4,3.3,3.3,0,0,0,2.4-1,3.5,3.5,0,0,0,1-2.5,3.7,3.7,0,0,0-1-2.4,3.6,3.6,0,0,0-2.4-.9A3.4,3.4,0,0,0,72,22a2.6,2.6,0,0,0,.4,1.5l-7.1,7.2a2.1,2.1,0,0,1-1.7.7H60.4V29.1a5.7,5.7,0,0,0-5.7-5.7H52.2V13.8a3.4,3.4,0,0,0,2.3-3.2,3.5,3.5,0,0,0-3.5-3.4,3.4,3.4,0,0,0-3.3,3.5,3.5,3.5,0,0,0,2.3,3.2v9.6H47.5V18.8a1.1,1.1,0,0,0-2.2,0v4.7H42.9L42.7,6.1A1.1,1.1,0,0,0,41.6,5a1,1,0,0,0-1,1.1V23.5H38.3V18.9a1.1,1.1,0,0,0-1.1-1.1,1,1,0,0,0-1,1.1v4.7H33.6V20.3a4.5,4.5,0,0,0-1.4-3.2l-7.2-7a3.5,3.5,0,0,0-.6-3.9,3.6,3.6,0,0,0-4.9,0,3.4,3.4,0,0,0,.1,4.8A3.3,3.3,0,0,0,22,12a2.8,2.8,0,0,0,1.5-.4l7.2,7.1a2.1,2.1,0,0,1,.7,1.7v3.2H29.1a3.9,3.9,0,0,0-1.5.2,1,1,0,0,0-.7,1.3,1.1,1.1,0,0,0,1.3.8l.9-.2,25.5-.2a3.6,3.6,0,0,1,3.6,3.5l.2,25.5a2.8,2.8,0,0,1-.1.9,1.1,1.1,0,0,0,.8,1.3h.3a1,1,0,0,0,1-.8,7.8,7.8,0,0,0,.2-1.4V52.2h9.6a3.4,3.4,0,0,0,3.2,2.3,3.5,3.5,0,0,0,3.4-3.5,3.4,3.4,0,0,0-3.5-3.3,3.5,3.5,0,0,0-3.2,2.3H60.5V47.5h4.7a1.1,1.1,0,0,0,0-2.2H60.5V42.9l17.4-.2A1.1,1.1,0,0,0,79,41.6a1,1,0,0,0-1.1-1M74.5,21.1a1.2,1.2,0,0,1,1.8,0,1.2,1.2,0,0,1,.3.9,1.1,1.1,0,0,1-.3.8,1.1,1.1,0,0,1-.9.4,1.6,1.6,0,0,1-.9-.3,1.6,1.6,0,0,1-.3-.9,1.4,1.4,0,0,1,.3-.9M50.9,9.4a1.2,1.2,0,0,1,1.3,1.2A1.3,1.3,0,0,1,51,11.9a1.3,1.3,0,0,1-1.3-1.3,1.3,1.3,0,0,1,1.2-1.2m-29.8.1a1.3,1.3,0,0,1,0-1.8,1.2,1.2,0,0,1,.9-.3,1.1,1.1,0,0,1,.8.3,1.3,1.3,0,0,1,0,1.8,1.4,1.4,0,0,1-1.7,0M73.4,49.7a1.3,1.3,0,0,1,1.2,1.2,1.2,1.2,0,0,1-1.2,1.3A1.3,1.3,0,0,1,72.1,51a1.3,1.3,0,0,1,1.3-1.3"/><path class="cls-1" d="M60.5,72.4l-7.2-7.1a2.1,2.1,0,0,1-.7-1.7V60.4h2.4a3.9,3.9,0,0,0,1.5-.2,1,1,0,0,0,.7-1.3,1.1,1.1,0,0,0-1.3-.8l-.9.2-25.5.2a3.6,3.6,0,0,1-3.6-3.5l-.2-25.5a2.8,2.8,0,0,1,.1-.9,1.1,1.1,0,0,0-.8-1.3,1.1,1.1,0,0,0-1.3.8,7.8,7.8,0,0,0-.2,1.4v2.4H13.8a3.4,3.4,0,0,0-3.2-2.3,3.5,3.5,0,0,0-3.4,3.5,3.4,3.4,0,0,0,3.5,3.3,3.5,3.5,0,0,0,3.2-2.3h9.6v2.5H18.8a1.1,1.1,0,0,0,0,2.2h4.7v2.5l-17.4.2A1.1,1.1,0,0,0,5,42.4a1,1,0,0,0,1.1,1H23.5v2.4H18.9a1.1,1.1,0,0,0-1.1,1.1,1,1,0,0,0,1.1,1h4.7v2.5H20.3a4.5,4.5,0,0,0-3.2,1.4l-7,7.2a2.8,2.8,0,0,0-1.5-.4,3.4,3.4,0,0,0-3.4,3.5,3.7,3.7,0,0,0,1,2.4,3.6,3.6,0,0,0,2.4.9,3.1,3.1,0,0,0,2.4-1A3.1,3.1,0,0,0,12,62a2.6,2.6,0,0,0-.4-1.5l7.1-7.2a2.1,2.1,0,0,1,1.7-.7h3.2v2.4a5.7,5.7,0,0,0,5.7,5.7h2.4v9.6a3.4,3.4,0,0,0-2.3,3.2,3.5,3.5,0,0,0,3.5,3.4,3.4,3.4,0,0,0,3.3-3.5,3.5,3.5,0,0,0-2.3-3.2V60.5h2.5v4.7a1.1,1.1,0,1,0,2.2,0V60.5h2.5l.2,17.4A1.1,1.1,0,0,0,42.4,79a1,1,0,0,0,1-1.1V60.5h2.4v4.7a1.1,1.1,0,0,0,1.1,1.1,1,1,0,0,0,1-1.1V60.4h2.5v3.3a4.5,4.5,0,0,0,1.4,3.2l7.2,7a3.4,3.4,0,0,0,3.1,4.9,3.4,3.4,0,0,0,2.4-1,3.4,3.4,0,0,0-.1-4.8,3.2,3.2,0,0,0-3.9-.6M10.6,34.3a1.3,1.3,0,0,1-1.2-1.2,1.2,1.2,0,0,1,1.2-1.3A1.3,1.3,0,0,1,11.9,33a1.3,1.3,0,0,1-1.3,1.3M9.5,62.9a1.8,1.8,0,0,1-.9.4,1.8,1.8,0,0,1-.9-.4,1.2,1.2,0,0,1-.3-.9,1.1,1.1,0,0,1,.3-.8,1.1,1.1,0,0,1,.9-.4,1.6,1.6,0,0,1,.9.3,1.6,1.6,0,0,1,.3.9,1.4,1.4,0,0,1-.3.9M33.1,74.6a1.2,1.2,0,0,1-1.3-1.2A1.3,1.3,0,0,1,33,72.1a1.3,1.3,0,0,1,1.3,1.3,1.3,1.3,0,0,1-1.2,1.2m29.8,1.7a1.2,1.2,0,0,1-1.7,0,1.4,1.4,0,0,1-.1-1.8,1.6,1.6,0,0,1,.9-.3,1.4,1.4,0,0,1,.9.3,1.3,1.3,0,0,1,0,1.8"/><path class="cls-1" d="M33.2,50.2h0a4.8,4.8,0,0,0,5,4.5,5,5,0,0,0,3.9-1.8A5.1,5.1,0,0,0,46,54.6a4.8,4.8,0,0,0,5-4.3,5.1,5.1,0,0,0,2.6-4.4A5,5,0,0,0,52,42.5,4.9,4.9,0,0,0,53.5,39a5.3,5.3,0,0,0-4.1-4.9,2.8,2.8,0,0,0,.1-.9,4.4,4.4,0,0,0-7.6-2.5,4.3,4.3,0,0,0-3.3-1.3,4.1,4.1,0,0,0-4.3,4c0,.3.1.6.1.9a5,5,0,0,0-3.9,4.9,4.9,4.9,0,0,0,1.1,3.1,5.5,5.5,0,0,0-1.1,3.3,5.5,5.5,0,0,0,2.7,4.6m2.8-14h.1a1.1,1.1,0,0,0,.7-.3,1.1,1.1,0,0,0,.2-1.4h-.1a1.5,1.5,0,0,1-.4-1,2,2,0,0,1,2.1-1.9,2,2,0,0,1,2.2,1.8,1.1,1.1,0,0,0,2.2,0,2,2,0,0,1,2.2-1.8,1.9,1.9,0,0,1,2.1,1.8c0,.2,0,.5-.1.6l-1.8.5a1,1,0,0,0-.5,1.4,1,1,0,0,0,1.4.6,3.3,3.3,0,0,1,1.5-.3h0c1.9,0,3.5,1.3,3.5,2.9a2.8,2.8,0,0,1-1.6,2.5,1.1,1.1,0,0,0,0,2A2.8,2.8,0,0,1,51.4,46a2.8,2.8,0,0,1-1,2,4.7,4.7,0,0,0-2.8-2.3,1.2,1.2,0,0,0-1.4.8,1.2,1.2,0,0,0,.7,1.3A2.4,2.4,0,0,1,48.8,50a2.8,2.8,0,0,1-5.6.1v-7a2.6,2.6,0,0,1,2.8-2.4A1.1,1.1,0,0,0,47,39.6a1,1,0,0,0-1.1-1,5.1,5.1,0,0,0-2.8.8V38a1.1,1.1,0,0,0-1.1-1.1,1.1,1.1,0,0,0-1,1.1v6a3.3,3.3,0,0,0-1.2-.5,1.1,1.1,0,0,0-1.3.7,1.1,1.1,0,0,0,.7,1.4A2.4,2.4,0,0,1,41,47.8v2.3a2.6,2.6,0,0,1-2.8,2.4,2.6,2.6,0,0,1-2.9-2.3,2.6,2.6,0,0,1,.7-1.6,1.1,1.1,0,0,0-1.5-1.5l-.7.8a3,3,0,0,1-1.1-2.3,3.7,3.7,0,0,1,3-3.5,1,1,0,0,0,.8-1.3,1.1,1.1,0,0,0-1.3-.8l-2,.8a2.5,2.5,0,0,1-.6-1.6,3.2,3.2,0,0,1,3.4-3"/><rect class="cls-2" width="84" height="84"/></svg>