<svg xmlns="http://www.w3.org/2000/svg" width="27.177" height="27.5" viewBox="0 0 27.177 27.5">
  <g id="Grupo_14524" data-name="Grupo 14524" transform="translate(0.626 0.626)">
    <path id="Trazado_11857" data-name="Trazado 11857" d="M21.893,12.364a4.329,4.329,0,1,1-4.329-4.329A4.313,4.313,0,0,1,21.893,12.364Z" transform="translate(-13.234 -8.035)" fill="none" stroke="#19a500" stroke-linecap="round" stroke-linejoin="round" stroke-width="1.252"/>
    <path id="Trazado_11858" data-name="Trazado 11858" d="M30.557,34.25H22.5a3.443,3.443,0,0,1-3.443-3.443h0a3.444,3.444,0,0,1,3.446-3.444l2,0a3.443,3.443,0,0,0,3.446-3.456l-.02-5.36a3.443,3.443,0,0,0-3.443-3.43h-.265" transform="translate(-13.234 -8.035)" fill="none" stroke="#95a6b1" stroke-linecap="round" stroke-linejoin="round" stroke-width="1.252"/>
    <g id="Grupo_13548" data-name="Grupo 13548" transform="translate(19.799 17.051)">
      <path id="Trazado_11859" data-name="Trazado 11859" d="M36.121,34.232c.377-.408,3.037-3.365,3.038-5.743A3.151,3.151,0,0,0,36.285,25.1c-.049,0-.1-.015-.146-.017-.015,0-.028,0-.043,0s-.028,0-.043,0c-.051,0-.1.013-.147.017a3.151,3.151,0,0,0-2.873,3.386c0,2.378,2.661,5.335,3.038,5.743l0,.051.023-.024.022.024Z" transform="translate(-33.033 -25.086)" fill="none" stroke="#95a6b1" stroke-linecap="round" stroke-linejoin="round" stroke-width="1.252"/>
      <path id="Trazado_11860" data-name="Trazado 11860" d="M36.562,28.142a.479.479,0,0,1-.479.479.479.479,0,1,1,.479-.479Z" transform="translate(-33.033 -25.086)" fill="none" stroke="#95a6b1" stroke-linecap="round" stroke-linejoin="round" stroke-width="1.252"/>
    </g>
  </g>
</svg>
