<svg id="Grupo_15102" data-name="Grupo 15102" xmlns="http://www.w3.org/2000/svg" width="65" height="65" viewBox="0 0 65 65">
  <g id="Grupo_14928" data-name="Grupo 14928">
    <g id="Grupo_14927" data-name="Grupo 14927">
      <line id="Línea_2719" data-name="Línea 2719" x2="51.399" transform="translate(7.13 49.247)" fill="#95a6b1" stroke="#95a6b1" stroke-linecap="round" stroke-linejoin="round" stroke-width="1.8"/>
      <path id="Trazado_12405" data-name="Trazado 12405" d="M10.831,14.58V12.427a3.115,3.115,0,0,1,3.116-3.115h3.618a3.115,3.115,0,0,1,3.115,3.115V49.013" fill="none" stroke="#95a6b1" stroke-linecap="round" stroke-linejoin="round" stroke-width="1.8"/>
      <line id="Línea_2720" data-name="Línea 2720" y1="19.011" transform="translate(10.831 30.231)" fill="none" stroke="#95a6b1" stroke-linecap="round" stroke-linejoin="round" stroke-width="1.8"/>
      <path id="Trazado_12406" data-name="Trazado 12406" d="M39.691,49.166V34.682a3,3,0,0,1,3-3h9.117a3,3,0,0,1,3,3v14.56" fill="none" stroke="#95a6b1" stroke-linecap="round" stroke-linejoin="round" stroke-width="1.8"/>
      <path id="Trazado_12407" data-name="Trazado 12407" d="M35.95,49.166V28.192a3,3,0,0,1,3-3h5.223a3,3,0,0,1,3,3v3.337" fill="none" stroke="#95a6b1" stroke-linecap="round" stroke-linejoin="round" stroke-width="1.8"/>
      <path id="Trazado_12408" data-name="Trazado 12408" d="M20.68,15.42h1.371a2.6,2.6,0,0,1,2.6,2.6v31" fill="none" stroke="#95a6b1" stroke-linecap="round" stroke-linejoin="round" stroke-width="1.8"/>
      <path id="Trazado_12409" data-name="Trazado 12409" d="M20.908,31.071h7.023a2.293,2.293,0,0,1,2.293,2.293V41.07a2.292,2.292,0,0,0,2.293,2.293h6.922" fill="none" stroke="#95a6b1" stroke-linecap="round" stroke-linejoin="round" stroke-width="1.8"/>
      <path id="Trazado_12410" data-name="Trazado 12410" d="M49.775,40.65l-2.1-4.343L45.729,40.65a4.58,4.58,0,0,0-.409,1.407,2.422,2.422,0,0,0,4.844,0A4.754,4.754,0,0,0,49.775,40.65Z" fill="none" stroke="#95a6b1" stroke-linecap="round" stroke-linejoin="round" stroke-width="1.8"/>
      <line id="Línea_2721" data-name="Línea 2721" y2="5.998" transform="translate(41.907 18.907)" fill="none" stroke="#95a6b1" stroke-linecap="round" stroke-linejoin="round" stroke-width="1.8"/>
      <path id="Rectángulo_5098" data-name="Rectángulo 5098" d="M5.153,0H25.337a0,0,0,0,1,0,0V11.275a5.153,5.153,0,0,1-5.153,5.153H0a0,0,0,0,1,0,0V5.153A5.153,5.153,0,0,1,5.153,0Z" transform="translate(29.238 2.454)" fill="none" stroke="#95a6b1" stroke-linecap="round" stroke-linejoin="round" stroke-width="1.8"/>
      <g id="Grupo_14926" data-name="Grupo 14926">
        <line id="Línea_2722" data-name="Línea 2722" y1="7.538" transform="translate(32.83 8.528)" fill="none" stroke="#95a6b1" stroke-linecap="round" stroke-linejoin="round" stroke-width="1.8"/>
        <path id="Rectángulo_5099" data-name="Rectángulo 5099" d="M2.088,0h.219A2.088,2.088,0,0,1,4.4,2.088V3.337A2.118,2.118,0,0,1,2.278,5.455h-.16A2.118,2.118,0,0,1,0,3.337V2.088A2.088,2.088,0,0,1,2.088,0Z" transform="translate(32.831 5.491)" fill="none" stroke="#95a6b1" stroke-linecap="round" stroke-linejoin="round" stroke-width="1.8"/>
        <g id="Grupo_14925" data-name="Grupo 14925">
          <path id="Trazado_12411" data-name="Trazado 12411" d="M44.021,8.828V7.579A2.1,2.1,0,0,0,41.9,5.491h-.16a2.1,2.1,0,0,0-2.118,2.088V8.828" fill="none" stroke="#95a6b1" stroke-linecap="round" stroke-linejoin="round" stroke-width="1.8"/>
          <line id="Línea_2723" data-name="Línea 2723" y2="7.238" transform="translate(39.625 8.828)" fill="none" stroke="#95a6b1" stroke-linecap="round" stroke-linejoin="round" stroke-width="1.8"/>
          <line id="Línea_2724" data-name="Línea 2724" y2="1.08" transform="translate(39.625 7.748)" fill="none" stroke="#95a6b1" stroke-linecap="round" stroke-linejoin="round" stroke-width="1.8"/>
          <line id="Línea_2725" data-name="Línea 2725" y2="7.238" transform="translate(44.029 8.828)" fill="none" stroke="#95a6b1" stroke-linecap="round" stroke-linejoin="round" stroke-width="1.8"/>
          <line id="Línea_2726" data-name="Línea 2726" y2="1.08" transform="translate(44.029 7.748)" fill="none" stroke="#95a6b1" stroke-linecap="round" stroke-linejoin="round" stroke-width="1.8"/>
          <line id="Línea_2727" data-name="Línea 2727" x2="4.412" transform="translate(39.616 10.735)" fill="none" stroke="#95a6b1" stroke-linecap="round" stroke-linejoin="round" stroke-width="1.8"/>
        </g>
        <path id="Trazado_12412" data-name="Trazado 12412" d="M50.1,5.491H46.6V16.066h3.565" fill="none" stroke="#95a6b1" stroke-linecap="round" stroke-linejoin="round" stroke-width="1.8"/>
        <line id="Línea_2728" data-name="Línea 2728" x1="3.053" transform="translate(46.762 10.748)" fill="none" stroke="#95a6b1" stroke-linecap="round" stroke-linejoin="round" stroke-width="1.8"/>
      </g>
      <path id="Trazado_11848" data-name="Trazado 11848" d="M14.989,22.288A4.183,4.183,0,1,1,10.806,18.1h0a4.168,4.168,0,0,1,4.183,4.151Z" fill="none" stroke="#00a800" stroke-linecap="round" stroke-linejoin="round" stroke-width="1.8"/>
    </g>
  </g>
  <rect id="Rectángulo_3799-2" data-name="Rectángulo 3799-2" width="65" height="65" fill="none"/>
  <g id="Grupo_14931" data-name="Grupo 14931">
    <g id="Grupo_14930" data-name="Grupo 14930">
      <rect id="Rectángulo_5100" data-name="Rectángulo 5100" width="65" height="16.741" transform="translate(0 48.259)" fill="none"/>
      <g id="Grupo_14929" data-name="Grupo 14929">
        <line id="Línea_2729" data-name="Línea 2729" x2="7.167" transform="translate(38.214 60.119)" fill="none" stroke="#19a301" stroke-linecap="round" stroke-linejoin="round" stroke-width="2.4"/>
        <line id="Línea_2730" data-name="Línea 2730" x2="0.581" transform="translate(52.528 60.119)" fill="none" stroke="#19a301" stroke-linecap="round" stroke-linejoin="round" stroke-width="2.4"/>
        <line id="Línea_2731" data-name="Línea 2731" x2="7.101" transform="translate(11.891 60.119)" fill="none" stroke="#19a301" stroke-linecap="round" stroke-linejoin="round" stroke-width="2.4"/>
        <line id="Línea_2732" data-name="Línea 2732" x2="12.517" transform="translate(18.529 60.119)" fill="none" stroke="#82d400" stroke-linecap="round" stroke-linejoin="round" stroke-width="2.4"/>
        <line id="Línea_2733" data-name="Línea 2733" x2="23.582" transform="translate(11.891 54.012)" fill="none" stroke="#82d400" stroke-linecap="round" stroke-linejoin="round" stroke-width="2.4"/>
        <line id="Línea_2734" data-name="Línea 2734" x2="18.363" transform="translate(34.746 54.012)" fill="none" stroke="#19a301" stroke-linecap="round" stroke-linejoin="round" stroke-width="2.4"/>
        <line id="Línea_2735" data-name="Línea 2735" x2="0.429" transform="translate(11.891 54.012)" fill="none" stroke="#19a301" stroke-linecap="round" stroke-linejoin="round" stroke-width="2.4"/>
      </g>
    </g>
  </g>
</svg>
