<?xml version="1.0" encoding="utf-8"?>
<!-- Generator: Adobe Illustrator 24.0.2, SVG Export Plug-In . SVG Version: 6.00 Build 0)  -->
<svg version="1.1" id="Capa_1" xmlns="http://www.w3.org/2000/svg" xmlns:xlink="http://www.w3.org/1999/xlink" x="0px" y="0px"
	 viewBox="0 0 65 65" style="enable-background:new 0 0 65 65;" xml:space="preserve">
<style type="text/css">
	.st0{display:none;}
	.st1{fill:none;stroke:#95A6B1;stroke-width:1.6;stroke-linecap:round;stroke-linejoin:round;}
	.st2{fill:none;stroke:#19A500;stroke-width:1.6;stroke-linecap:round;stroke-linejoin:round;stroke-miterlimit:10;}
	.st3{fill:none;}
	.st4{clip-path:url(#SVGID_2_);}
	.st5{fill:#4DA12E;}
	.st6{fill:#96D200;}
</style>
<g id="Capa_2_1_" class="st0">
</g>
<g id="Capa_1_1_">
	<g>
		<g>
			<path id="Trazado_5703_4_" class="st1" d="M55.49,13.8c0,4.43-3.59,8.03-8.03,8.03s-8.03-3.59-8.03-8.03s3.59-8.03,8.03-8.03
				c4.4-0.03,8,3.51,8.03,7.91C55.49,13.73,55.49,13.77,55.49,13.8z"/>
			<rect x="13.61" y="34.26" class="st1" width="35.34" height="12.65"/>
			<rect x="9.51" y="33.22" class="st1" width="4.09" height="14.74"/>
			<rect x="48.95" y="33.22" class="st1" width="3.84" height="14.74"/>
			<line class="st1" x1="33.51" y1="46.91" x2="33.51" y2="41.92"/>
			<polyline class="st1" points="24.13,32.32 24.13,34.26 39.26,34.26 39.26,26.13 28.48,26.13 			"/>
			<line class="st1" x1="31.7" y1="26.13" x2="31.7" y2="21.16"/>
			<line class="st1" x1="28.48" y1="21.16" x2="35.17" y2="21.16"/>
			<line class="st1" x1="28.42" y1="30.19" x2="39.26" y2="30.19"/>
			<path id="Trazado_5703_3_" class="st2" d="M25.83,25.76c0,2.49-2.02,4.51-4.51,4.51s-4.51-2.02-4.51-4.51s2.02-4.51,4.51-4.51
				c2.48-0.02,4.5,1.98,4.51,4.45C25.83,25.72,25.83,25.74,25.83,25.76z"/>
			<line class="st1" x1="41.81" y1="13.8" x2="53.2" y2="13.8"/>
			<polyline class="st1" points="43.46,15.69 41.58,13.8 43.46,11.92 			"/>
			<polyline class="st1" points="51.35,11.92 53.23,13.8 51.35,15.69 			"/>
			<line class="st1" x1="46.28" y1="21.83" x2="43.46" y2="30.72"/>
		</g>
		<g>
			<g id="Grupo_14998_1_" transform="translate(-83.703)">
				<rect id="Rectángulo_3799-2_4_" x="83.7" class="st3" width="65" height="65"/>
			</g>
			<g>
				<defs>
					<rect id="SVGID_1_" y="48.26" width="65" height="16.74"/>
				</defs>
				<clipPath id="SVGID_2_">
					<use xlink:href="#SVGID_1_"  style="overflow:visible;"/>
				</clipPath>
				<g class="st4">
					<g>
						<rect y="48.26" class="st3" width="65" height="16.74"/>
					</g>
					<g>
						<g>
							<path class="st5" d="M45.38,61.32h-7.17c-0.66,0-1.2-0.54-1.2-1.2s0.54-1.2,1.2-1.2h7.17c0.66,0,1.2,0.54,1.2,1.2
								S46.04,61.32,45.38,61.32z"/>
						</g>
						<g>
							<path class="st5" d="M53.11,61.32h-0.58c-0.66,0-1.2-0.54-1.2-1.2s0.54-1.2,1.2-1.2h0.58c0.66,0,1.2,0.54,1.2,1.2
								S53.77,61.32,53.11,61.32z"/>
						</g>
						<g>
							<path class="st5" d="M18.99,61.32h-7.1c-0.66,0-1.2-0.54-1.2-1.2s0.54-1.2,1.2-1.2h7.1c0.66,0,1.2,0.54,1.2,1.2
								S19.65,61.32,18.99,61.32z"/>
						</g>
						<g>
							<path class="st6" d="M31.05,61.32H18.53c-0.66,0-1.2-0.54-1.2-1.2s0.54-1.2,1.2-1.2h12.52c0.66,0,1.2,0.54,1.2,1.2
								S31.71,61.32,31.05,61.32z"/>
						</g>
						<g>
							<path class="st6" d="M35.47,55.21H11.89c-0.66,0-1.2-0.54-1.2-1.2s0.54-1.2,1.2-1.2h23.58c0.66,0,1.2,0.54,1.2,1.2
								S36.13,55.21,35.47,55.21z"/>
						</g>
						<g>
							<path class="st5" d="M53.11,55.21H34.75c-0.66,0-1.2-0.54-1.2-1.2s0.54-1.2,1.2-1.2h18.36c0.66,0,1.2,0.54,1.2,1.2
								S53.77,55.21,53.11,55.21z"/>
						</g>
						<g>
							<path class="st5" d="M12.32,55.21h-0.43c-0.66,0-1.2-0.54-1.2-1.2s0.54-1.2,1.2-1.2h0.43c0.66,0,1.2,0.54,1.2,1.2
								S12.98,55.21,12.32,55.21z"/>
						</g>
					</g>
				</g>
			</g>
		</g>
	</g>
</g>
</svg>
