<svg id="Grupo_13833" data-name="Grupo 13833" xmlns="http://www.w3.org/2000/svg" width="60" height="60" viewBox="0 0 60 60">
  <path id="Trazado_5703" data-name="Trazado 5703" d="M57.156,102.6a8.838,8.838,0,1,1,0-.123Z" transform="translate(0 -90)" fill="none" stroke="#95a6b1" stroke-linecap="round" stroke-linejoin="round" stroke-width="1.6"/>
  <rect id="Rectángulo_4828" data-name="Rectángulo 4828" width="60" height="60" transform="translate(0 0)" fill="none"/>
  <g id="Grupo_13833-2" data-name="Grupo 13833" transform="translate(6.175 20.761)">
    <rect id="Rectángulo_4829" data-name="Rectángulo 4829" width="39.191" height="14.023" transform="translate(43.727 28.547) rotate(-180)" fill="none" stroke="#95a6b1" stroke-linecap="round" stroke-linejoin="round" stroke-width="1.6"/>
    <rect id="Rectángulo_4830" data-name="Rectángulo 4830" width="4.536" height="16.341" transform="translate(4.536 29.706) rotate(-180)" fill="none" stroke="#95a6b1" stroke-linecap="round" stroke-linejoin="round" stroke-width="1.6"/>
    <rect id="Rectángulo_4831" data-name="Rectángulo 4831" width="4.253" height="16.341" transform="translate(47.989 29.706) rotate(-180)" fill="none" stroke="#95a6b1" stroke-linecap="round" stroke-linejoin="round" stroke-width="1.6"/>
    <line id="Línea_2477" data-name="Línea 2477" y1="5.532" transform="translate(26.609 23.015)" fill="none" stroke="#95a6b1" stroke-linecap="round" stroke-linejoin="round" stroke-width="1.6"/>
    <path id="Trazado_11956" data-name="Trazado 11956" d="M22.388,123.137v2.148H39.163v-9.018H27.205" transform="translate(-6.175 -110.761)" fill="none" stroke="#95a6b1" stroke-linecap="round" stroke-linejoin="round" stroke-width="1.6"/>
    <line id="Línea_2478" data-name="Línea 2478" y1="5.506" transform="translate(24.601)" fill="none" stroke="#95a6b1" stroke-linecap="round" stroke-linejoin="round" stroke-width="1.6"/>
    <line id="Línea_2479" data-name="Línea 2479" x2="7.423" transform="translate(21.03)" fill="none" stroke="#95a6b1" stroke-linecap="round" stroke-linejoin="round" stroke-width="1.6"/>
    <line id="Línea_2480" data-name="Línea 2480" x2="12.019" transform="translate(20.969 10.015)" fill="none" stroke="#95a6b1" stroke-linecap="round" stroke-linejoin="round" stroke-width="1.6"/>
  </g>
  <path id="Trazado_5703-2" data-name="Trazado 5703" d="M24.27,115.86a4.971,4.971,0,1,1,0-.07Z" transform="translate(0 -90)" fill="none" stroke="#19a500" stroke-linecap="round" stroke-linejoin="round" stroke-width="1.6" style="mix-blend-mode: multiply;isolation: isolate"/>
  <g id="Grupo_13834" data-name="Grupo 13834" transform="translate(41.732 10.513)">
    <line id="Línea_2481" data-name="Línea 2481" x2="12.628" transform="translate(0.257 2.091)" fill="none" stroke="#95a6b1" stroke-linecap="round" stroke-linejoin="round" stroke-width="1.6"/>
    <path id="Trazado_11957" data-name="Trazado 11957" d="M43.823,104.695,41.732,102.6l2.091-2.091" transform="translate(-41.732 -100.513)" fill="none" stroke="#95a6b1" stroke-linecap="round" stroke-linejoin="round" stroke-width="1.6"/>
    <path id="Trazado_11958" data-name="Trazado 11958" d="M52.563,100.513l2.091,2.091-2.091,2.091" transform="translate(-41.732 -100.513)" fill="none" stroke="#95a6b1" stroke-linecap="round" stroke-linejoin="round" stroke-width="1.6"/>
  </g>
  <line id="Línea_2482" data-name="Línea 2482" x1="3.127" y2="9.858" transform="translate(43.823 21.503)" fill="none" stroke="#95a6b1" stroke-linecap="round" stroke-linejoin="round" stroke-width="1.6"/>
</svg>
