<svg id="Grupo_13835" data-name="Grupo 13835" xmlns="http://www.w3.org/2000/svg" width="60" height="60" viewBox="0 0 60 60">
  <rect id="Rectángulo_4832" data-name="Rectángulo 4832" width="60" height="60" transform="translate(0 0)" fill="none"/>
  <path id="Trazado_5703" data-name="Trazado 5703" d="M289.615,13.034a4.733,4.733,0,1,1,0-.066Z" transform="translate(-270 0)" fill="none" stroke="#19a500" stroke-linecap="round" stroke-linejoin="round" stroke-width="1.6" style="mix-blend-mode: multiply;isolation: isolate"/>
  <path id="Trazado_11959" data-name="Trazado 11959" d="M282.6,21.53V44.755a7.27,7.27,0,0,0,7.271,7.27h11.552l13.941-.03V10.021H292.89" transform="translate(-270 0)" fill="none" stroke="#95a6b1" stroke-linecap="round" stroke-linejoin="round" stroke-width="1.389"/>
  <line id="Línea_2483" data-name="Línea 2483" x2="20.271" transform="translate(18.82 34.456)" fill="none" stroke="#95a6b1" stroke-linecap="round" stroke-linejoin="round" stroke-width="1.389"/>
  <line id="Línea_2484" data-name="Línea 2484" x2="20.271" transform="translate(18.82 39.222)" fill="none" stroke="#95a6b1" stroke-linecap="round" stroke-linejoin="round" stroke-width="1.389"/>
  <line id="Línea_2485" data-name="Línea 2485" x2="12.703" transform="translate(18.612 44.52)" fill="none" stroke="#95a6b1" stroke-linecap="round" stroke-linejoin="round" stroke-width="1.389"/>
  <path id="Trazado_11960" data-name="Trazado 11960" d="M294.275,27.165" transform="translate(-270 0)" fill="none" stroke="#95a6b1" stroke-linecap="round" stroke-linejoin="round" stroke-width="1.389"/>
  <path id="Trazado_11961" data-name="Trazado 11961" d="M300.578,15.018h-2.7a.268.268,0,0,0-.254.279v1.576a.268.268,0,0,0,.254.279h2.7a.268.268,0,0,0,.254-.279V15.3A.268.268,0,0,0,300.578,15.018Z" transform="translate(-270 0)" fill="none" stroke="#95a6b1" stroke-linecap="round" stroke-linejoin="round" stroke-width="1.389"/>
  <path id="Trazado_11962" data-name="Trazado 11962" d="M295,19.593V31.016h8.982V19.593" transform="translate(-270 0)" fill="none" stroke="#95a6b1" stroke-linecap="round" stroke-linejoin="round" stroke-width="1.389"/>
  <line id="Línea_2486" data-name="Línea 2486" x2="10.889" transform="translate(24.05 23.114)" fill="none" stroke="#95a6b1" stroke-linecap="round" stroke-linejoin="round" stroke-width="1.389"/>
  <line id="Línea_2487" data-name="Línea 2487" x2="10.889" transform="translate(24.05 26.939)" fill="none" stroke="#95a6b1" stroke-linecap="round" stroke-linejoin="round" stroke-width="1.389"/>
  <line id="Línea_2488" data-name="Línea 2488" x2="10.889" transform="translate(24.05 31.016)" fill="none" stroke="#95a6b1" stroke-linecap="round" stroke-linejoin="round" stroke-width="1.389"/>
  <rect id="Rectángulo_4833" data-name="Rectángulo 4833" width="10.889" height="2.441" rx="0.448" transform="translate(24.01 17.152)" fill="none" stroke="#95a6b1" stroke-linecap="round" stroke-linejoin="round" stroke-width="1.389"/>
</svg>
