<?xml version="1.0" encoding="utf-8"?>
<!-- Generator: Adobe Illustrator 24.0.2, SVG Export Plug-In . SVG Version: 6.00 Build 0)  -->
<svg version="1.1" id="Capa_1" xmlns="http://www.w3.org/2000/svg" xmlns:xlink="http://www.w3.org/1999/xlink" x="0px" y="0px"
	 viewBox="0 0 65 65" style="enable-background:new 0 0 65 65;" xml:space="preserve">
<style type="text/css">
	.st0{display:none;}
	.st1{fill:none;}
	.st2{clip-path:url(#SVGID_2_);}
	.st3{fill:#4DA12E;}
	.st4{fill:#96D200;}
	.st5{fill:none;stroke:#19A500;stroke-width:1.6;stroke-linecap:round;stroke-linejoin:round;stroke-miterlimit:10;}
	.st6{fill:none;stroke:#95A6B1;stroke-width:1.6;stroke-linecap:round;stroke-linejoin:round;}
</style>
<g id="Capa_2_1_" class="st0">
</g>
<g id="Capa_1_1_">
	<g>
		<g id="Grupo_14998_4_" transform="translate(-83.703)">
			<rect id="Rectángulo_3799-2_3_" x="83.7" class="st1" width="65" height="65"/>
		</g>
		<g>
			<defs>
				<rect id="SVGID_1_" y="48.26" width="65" height="16.74"/>
			</defs>
			<clipPath id="SVGID_2_">
				<use xlink:href="#SVGID_1_"  style="overflow:visible;"/>
			</clipPath>
			<g class="st2">
				<g>
					<rect y="48.26" class="st1" width="65" height="16.74"/>
				</g>
				<g>
					<g>
						<path class="st3" d="M45.38,61.32h-7.17c-0.66,0-1.2-0.54-1.2-1.2s0.54-1.2,1.2-1.2h7.17c0.66,0,1.2,0.54,1.2,1.2
							S46.04,61.32,45.38,61.32z"/>
					</g>
					<g>
						<path class="st3" d="M53.11,61.32h-0.58c-0.66,0-1.2-0.54-1.2-1.2s0.54-1.2,1.2-1.2h0.58c0.66,0,1.2,0.54,1.2,1.2
							S53.77,61.32,53.11,61.32z"/>
					</g>
					<g>
						<path class="st3" d="M18.99,61.32h-7.1c-0.66,0-1.2-0.54-1.2-1.2s0.54-1.2,1.2-1.2h7.1c0.66,0,1.2,0.54,1.2,1.2
							S19.65,61.32,18.99,61.32z"/>
					</g>
					<g>
						<path class="st4" d="M31.05,61.32H18.53c-0.66,0-1.2-0.54-1.2-1.2s0.54-1.2,1.2-1.2h12.52c0.66,0,1.2,0.54,1.2,1.2
							S31.71,61.32,31.05,61.32z"/>
					</g>
					<g>
						<path class="st4" d="M35.47,55.21H11.89c-0.66,0-1.2-0.54-1.2-1.2s0.54-1.2,1.2-1.2h23.58c0.66,0,1.2,0.54,1.2,1.2
							S36.13,55.21,35.47,55.21z"/>
					</g>
					<g>
						<path class="st3" d="M53.11,55.21H34.75c-0.66,0-1.2-0.54-1.2-1.2s0.54-1.2,1.2-1.2h18.36c0.66,0,1.2,0.54,1.2,1.2
							S53.77,55.21,53.11,55.21z"/>
					</g>
					<g>
						<path class="st3" d="M12.32,55.21h-0.43c-0.66,0-1.2-0.54-1.2-1.2s0.54-1.2,1.2-1.2h0.43c0.66,0,1.2,0.54,1.2,1.2
							S12.98,55.21,12.32,55.21z"/>
					</g>
				</g>
			</g>
		</g>
	</g>
	<g>
		<path id="Trazado_5703_9_" class="st5" d="M24.64,9.9c0,2.55-2.07,4.62-4.62,4.62S15.4,12.45,15.4,9.9s2.07-4.62,4.62-4.62
			c2.53-0.02,4.6,2.02,4.62,4.55C24.64,9.86,24.64,9.88,24.64,9.9z"/>
		<path class="st6" d="M17.85,18.14v22.51c0,3.89,3.15,7.05,7.05,7.05h11.19l13.51-0.03V6.98H27.82"/>
		<line class="st6" x1="23.87" y1="33.25" x2="43.52" y2="33.25"/>
		<line class="st6" x1="23.87" y1="37.5" x2="43.52" y2="37.5"/>
		<line class="st6" x1="23.67" y1="41.76" x2="35.98" y2="41.76"/>
		<path class="st6" d="M35.77,14.84v-2.09c0-0.15-0.11-0.27-0.25-0.27H32.9c-0.14,0-0.25,0.12-0.25,0.27v2.09"/>
		<polyline class="st6" points="29.86,14.84 29.86,27.33 38.57,27.33 38.57,14.84 		"/>
		<line class="st6" x1="28.94" y1="18.54" x2="39.49" y2="18.54"/>
		<line class="st6" x1="28.94" y1="23.38" x2="39.49" y2="23.38"/>
		<line class="st6" x1="28.94" y1="27.33" x2="39.49" y2="27.33"/>
		<line class="st6" x1="28.94" y1="14.84" x2="39.49" y2="14.84"/>
	</g>
</g>
</svg>
