<svg xmlns="http://www.w3.org/2000/svg" width="47.173" height="212.438" viewBox="0 0 47.173 212.438">
  <g id="Grupo_18435" data-name="Grupo 18435" transform="translate(-990 -1835)">
    <line id="Línea_2119" data-name="Línea 2119" y2="155.656" transform="translate(1012.152 1886.844)" fill="none" stroke="#505d6c" stroke-width="1" opacity="0.29"/>
    <g id="Trazado_11273" data-name="Trazado 11273" transform="translate(1007.652 1900.259)" fill="#fff">
      <path d="M 4.5 8 C 2.570090055465698 8 1 6.429910182952881 1 4.5 C 1 2.570090055465698 2.570090055465698 1 4.5 1 C 6.429910182952881 1 8 2.570090055465698 8 4.5 C 8 5.237659931182861 7.764450073242188 5.91195011138916 7.236249923706055 6.68632984161377 L 7.231080055236816 6.693910121917725 L 7.226049900054932 6.701580047607422 C 6.816100120544434 7.326940059661865 5.788169860839844 8 4.5 8 Z" stroke="none"/>
      <path d="M 4.5 2 C 3.121500015258789 2 2 3.121500015258789 2 4.5 C 2 5.878499984741211 3.121500015258789 7 4.5 7 C 5.472350120544434 7 6.175139904022217 6.480679988861084 6.389729976654053 6.153340339660645 L 6.410130023956299 6.122829914093018 C 6.929920196533203 5.360790252685547 7 4.874849796295166 7 4.5 C 7 3.121500015258789 5.878499984741211 2 4.5 2 M 4.5 0 C 6.98528003692627 0 9 2.01471996307373 9 4.5 C 9 5.424520015716553 8.721199989318848 6.283929824829102 8.062370300292969 7.249819755554199 C 7.435930252075195 8.205430030822754 6.060760021209717 9 4.5 9 C 2.01471996307373 9 0 6.98528003692627 0 4.5 C 0 2.01471996307373 2.01471996307373 0 4.5 0 Z" stroke="none" fill="#00af00"/>
    </g>
    <g id="Trazado_11274" data-name="Trazado 11274" transform="translate(1007.652 2038.438)" fill="#fff">
      <path d="M 4.5 8 C 2.570090055465698 8 1 6.429910182952881 1 4.5 C 1 2.570090055465698 2.570090055465698 1 4.5 1 C 6.429910182952881 1 8 2.570090055465698 8 4.5 C 8 5.237659931182861 7.764450073242188 5.91195011138916 7.236249923706055 6.68632984161377 L 7.231080055236816 6.693910121917725 L 7.226049900054932 6.701580047607422 C 6.816100120544434 7.326940059661865 5.788169860839844 8 4.5 8 Z" stroke="none"/>
      <path d="M 4.5 2 C 3.121500015258789 2 2 3.121500015258789 2 4.5 C 2 5.878499984741211 3.121500015258789 7 4.5 7 C 5.472350120544434 7 6.175139904022217 6.480679988861084 6.389729976654053 6.153340339660645 L 6.410130023956299 6.122829914093018 C 6.929920196533203 5.360790252685547 7 4.874849796295166 7 4.5 C 7 3.121500015258789 5.878499984741211 2 4.5 2 M 4.5 0 C 6.98528003692627 0 9 2.01471996307373 9 4.5 C 9 5.424520015716553 8.721199989318848 6.283929824829102 8.062370300292969 7.249819755554199 C 7.435930252075195 8.205430030822754 6.060760021209717 9 4.5 9 C 2.01471996307373 9 0 6.98528003692627 0 4.5 C 0 2.01471996307373 2.01471996307373 0 4.5 0 Z" stroke="none" fill="#00af00"/>
    </g>
    <g id="Grupo_15276" data-name="Grupo 15276" transform="translate(990.086 1835.087)">
      <g id="Grupo_15282" data-name="Grupo 15282">
        <rect id="Rectángulo_3799-2" data-name="Rectángulo 3799-2" width="47.173" height="47.173" transform="translate(-0.087 -0.087)" fill="none"/>
        <g id="Grupo_15281" data-name="Grupo 15281">
          <g id="Grupo_15280" data-name="Grupo 15280">
            <circle id="Elipse_2467" data-name="Elipse 2467" cx="6.118" cy="6.118" r="6.118" transform="translate(10.655 24.248)" fill="none" stroke="#97a5af" stroke-linecap="round" stroke-linejoin="round" stroke-width="1.5"/>
            <path id="Trazado_12618" data-name="Trazado 12618" d="M19.32,11.151a3.369,3.369,0,0,0,2.8,1.511h4.182a3.376,3.376,0,0,0,0-6.753H22.123A3.366,3.366,0,0,0,19.3,7.45" fill="none" stroke="#97a5af" stroke-linecap="round" stroke-linejoin="round" stroke-width="1.5"/>
            <path id="Trazado_12619" data-name="Trazado 12619" d="M29.743,24.108h-4.85V19.786a1.44,1.44,0,0,0-1.44-1.44H16.787V11.119h2.529" fill="none" stroke="#97a5af" stroke-linecap="round" stroke-linejoin="round" stroke-width="1.5"/>
            <path id="Trazado_12620" data-name="Trazado 12620" d="M19.283,7.482H15.237a2,2,0,0,0-2,2v8.929H11.862a1.44,1.44,0,0,0-1.44,1.44v4.031L7.933,21.595V12.861a1.44,1.44,0,0,0-1.44-1.44h0a1.44,1.44,0,0,0-1.44,1.44v28.23h36.9v-25.2a1.44,1.44,0,0,0-1.44-1.44H37.59a1.44,1.44,0,0,0-1.44,1.44v2.454" fill="none" stroke="#97a5af" stroke-linecap="round" stroke-linejoin="round" stroke-width="1.5"/>
          </g>
          <line id="Línea_2940" data-name="Línea 2940" x2="4.611" transform="translate(22.059 9.286)" fill="none" stroke="#97a5af" stroke-linecap="round" stroke-linejoin="round" stroke-width="1.5"/>
          <path id="Trazado_12621" data-name="Trazado 12621" d="M16.773,31.167H13.814L17.2,24.508V29.1h3.088l-3.5,6.954Z" fill="none" stroke="#97a5af" stroke-linecap="round" stroke-linejoin="round" stroke-width="1.5"/>
        </g>
        <line id="Línea_2941" data-name="Línea 2941" x2="42.044" transform="translate(2.434 41.091)" fill="none" stroke="#97a5af" stroke-linecap="round" stroke-linejoin="round" stroke-width="1.5"/>
      </g>
      <path id="Trazado_11848" data-name="Trazado 11848" d="M38.221,23.467a3.041,3.041,0,1,1-3.041-3.041h0a3.028,3.028,0,0,1,3.041,3.018Z" fill="none" stroke="#19a500" stroke-linecap="round" stroke-linejoin="round" stroke-width="1.5"/>
    </g>
  </g>
</svg>
