<svg id="Grupo_15255" data-name="Grupo 15255" xmlns="http://www.w3.org/2000/svg" width="65" height="65" viewBox="0 0 65 65">
  <g id="Grupo_15257" data-name="Grupo 15257">
    <g id="Grupo_15256" data-name="Grupo 15256">
      <line id="Línea_2918" data-name="Línea 2918" x2="51.399" transform="translate(7.13 49.247)" fill="#90a6b1" stroke="#90a6b1" stroke-linecap="round" stroke-linejoin="round" stroke-width="1.8"/>
      <path id="Trazado_12587" data-name="Trazado 12587" d="M10.831,14.58V12.427a3.115,3.115,0,0,1,3.116-3.115h3.618a3.115,3.115,0,0,1,3.115,3.115V49.013" fill="none" stroke="#90a6b1" stroke-linecap="round" stroke-linejoin="round" stroke-width="1.8"/>
      <line id="Línea_2919" data-name="Línea 2919" y1="19.011" transform="translate(10.831 30.231)" fill="none" stroke="#90a6b1" stroke-linecap="round" stroke-linejoin="round" stroke-width="1.8"/>
      <path id="Trazado_12588" data-name="Trazado 12588" d="M39.691,49.166V34.682a3,3,0,0,1,3-3h9.117a3,3,0,0,1,3,3v14.56" fill="none" stroke="#90a6b1" stroke-linecap="round" stroke-linejoin="round" stroke-width="1.8"/>
      <path id="Trazado_12589" data-name="Trazado 12589" d="M35.95,49.166V28.192a3,3,0,0,1,3-3h5.223a3,3,0,0,1,3,3v3.337" fill="none" stroke="#90a6b1" stroke-linecap="round" stroke-linejoin="round" stroke-width="1.8"/>
      <path id="Trazado_12590" data-name="Trazado 12590" d="M20.68,15.42h1.371a2.6,2.6,0,0,1,2.6,2.6v31" fill="none" stroke="#90a6b1" stroke-linecap="round" stroke-linejoin="round" stroke-width="1.8"/>
      <path id="Trazado_12591" data-name="Trazado 12591" d="M20.908,31.071h7.023a2.293,2.293,0,0,1,2.293,2.293V41.07a2.292,2.292,0,0,0,2.293,2.293h6.922" fill="none" stroke="#90a6b1" stroke-linecap="round" stroke-linejoin="round" stroke-width="1.8"/>
      <path id="Trazado_12592" data-name="Trazado 12592" d="M49.775,40.65l-2.1-4.343L45.729,40.65a4.58,4.58,0,0,0-.409,1.407,2.422,2.422,0,0,0,4.844,0A4.754,4.754,0,0,0,49.775,40.65Z" fill="none" stroke="#90a6b1" stroke-linecap="round" stroke-linejoin="round" stroke-width="1.8"/>
      <line id="Línea_2920" data-name="Línea 2920" y2="5.998" transform="translate(41.907 18.907)" fill="none" stroke="#90a6b1" stroke-linecap="round" stroke-linejoin="round" stroke-width="1.8"/>
      <path id="Rectángulo_5173" data-name="Rectángulo 5173" d="M5.153,0H25.337a0,0,0,0,1,0,0V11.275a5.153,5.153,0,0,1-5.153,5.153H0a0,0,0,0,1,0,0V5.153A5.153,5.153,0,0,1,5.153,0Z" transform="translate(29.238 2.454)" fill="none" stroke="#90a6b1" stroke-linecap="round" stroke-linejoin="round" stroke-width="1.8"/>
      <g id="Grupo_15255-2" data-name="Grupo 15255">
        <line id="Línea_2921" data-name="Línea 2921" y1="5.421" transform="translate(33.313 8.528)" fill="none" stroke="#90a6b1" stroke-linecap="round" stroke-linejoin="round" stroke-width="1.8"/>
        <path id="Rectángulo_5174" data-name="Rectángulo 5174" d="M2.118,0h.16A2.118,2.118,0,0,1,4.4,2.118V3.152A2.118,2.118,0,0,1,2.278,5.27H0a0,0,0,0,1,0,0V2.118A2.118,2.118,0,0,1,2.118,0Z" transform="translate(33.313 5.491)" fill="none" stroke="#90a6b1" stroke-linecap="round" stroke-linejoin="round" stroke-width="1.8"/>
        <path id="Rectángulo_5175" data-name="Rectángulo 5175" d="M0,0H2.307A2.088,2.088,0,0,1,4.4,2.088v1.1A2.118,2.118,0,0,1,2.278,5.305H0a0,0,0,0,1,0,0V0A0,0,0,0,1,0,0Z" transform="translate(33.313 10.761)" fill="none" stroke="#90a6b1" stroke-linecap="round" stroke-linejoin="round" stroke-width="1.8"/>
        <path id="Trazado_12593" data-name="Trazado 12593" d="M46.935,5.491V16.066H50.5" fill="none" stroke="#90a6b1" stroke-linecap="round" stroke-linejoin="round" stroke-width="1.8"/>
        <path id="Trazado_12594" data-name="Trazado 12594" d="M44.114,5.491H40.606V16.066h3.565" fill="none" stroke="#90a6b1" stroke-linecap="round" stroke-linejoin="round" stroke-width="1.8"/>
        <line id="Línea_2922" data-name="Línea 2922" x1="3.053" transform="translate(40.772 10.748)" fill="none" stroke="#90a6b1" stroke-linecap="round" stroke-linejoin="round" stroke-width="1.8"/>
      </g>
      <path id="Trazado_11848" data-name="Trazado 11848" d="M14.989,22.288A4.183,4.183,0,1,1,10.806,18.1h0a4.168,4.168,0,0,1,4.183,4.151Z" fill="none" stroke="#00ab00" stroke-linecap="round" stroke-linejoin="round" stroke-width="1.8"/>
    </g>
  </g>
  <rect id="Rectángulo_3799-2" data-name="Rectángulo 3799-2" width="65" height="65" fill="none"/>
  <g id="Grupo_15260" data-name="Grupo 15260">
    <g id="Grupo_15259" data-name="Grupo 15259">
      <rect id="Rectángulo_5176" data-name="Rectángulo 5176" width="65" height="16.741" transform="translate(0 48.259)" fill="none"/>
      <g id="Grupo_15258" data-name="Grupo 15258">
        <line id="Línea_2923" data-name="Línea 2923" x2="7.167" transform="translate(38.214 60.119)" fill="none" stroke="#00a600" stroke-linecap="round" stroke-linejoin="round" stroke-width="2.4"/>
        <line id="Línea_2924" data-name="Línea 2924" x2="0.581" transform="translate(52.528 60.119)" fill="none" stroke="#00a600" stroke-linecap="round" stroke-linejoin="round" stroke-width="2.4"/>
        <line id="Línea_2925" data-name="Línea 2925" x2="7.101" transform="translate(11.891 60.119)" fill="none" stroke="#00a600" stroke-linecap="round" stroke-linejoin="round" stroke-width="2.4"/>
        <line id="Línea_2926" data-name="Línea 2926" x2="12.517" transform="translate(18.529 60.119)" fill="none" stroke="#62d700" stroke-linecap="round" stroke-linejoin="round" stroke-width="2.4"/>
        <line id="Línea_2927" data-name="Línea 2927" x2="23.582" transform="translate(11.891 54.012)" fill="none" stroke="#62d700" stroke-linecap="round" stroke-linejoin="round" stroke-width="2.4"/>
        <line id="Línea_2928" data-name="Línea 2928" x2="18.363" transform="translate(34.746 54.012)" fill="none" stroke="#00a600" stroke-linecap="round" stroke-linejoin="round" stroke-width="2.4"/>
        <line id="Línea_2929" data-name="Línea 2929" x2="0.429" transform="translate(11.891 54.012)" fill="none" stroke="#00a600" stroke-linecap="round" stroke-linejoin="round" stroke-width="2.4"/>
      </g>
    </g>
  </g>
</svg>
