<svg xmlns="http://www.w3.org/2000/svg" width="65" height="65" viewBox="0 0 65 65">
  <g id="Grupo_18279" data-name="Grupo 18279" transform="translate(-88.121)">
    <g id="Grupo_18276" data-name="Grupo 18276">
      <g id="Grupo_12949" data-name="Grupo 12949">
        <g id="Grupo_11514" data-name="Grupo 11514">
          <g id="Grupo_15064" data-name="Grupo 15064">
            <path id="Trazado_12510" data-name="Trazado 12510" d="M125.326,19.057c-.7,1.317-1.716,3.133-5.459,3.575" fill="none" stroke="#95a6b1" stroke-linecap="round" stroke-linejoin="round" stroke-width="1.8"/>
            <path id="Trazado_12511" data-name="Trazado 12511" d="M114.856,18.247a3.644,3.644,0,1,1-6.627,3.031h0a3.644,3.644,0,1,1,6.627-3.031Z" fill="none" stroke="#19a500" stroke-miterlimit="10" stroke-width="1.8"/>
            <path id="Trazado_12512" data-name="Trazado 12512" d="M117.95,25.266a7.863,7.863,0,0,1-1.863-.868" fill="none" stroke="#95a6b1" stroke-linecap="round" stroke-linejoin="round" stroke-width="1.8"/>
            <path id="Trazado_12513" data-name="Trazado 12513" d="M113.793,13.4a53.436,53.436,0,0,1,4.644-7.211,2.357,2.357,0,0,1,3.3-.486,2.332,2.332,0,0,1,.486.486c2.342,3.139,6.026,8.542,6.026,11.524a7.918,7.918,0,0,1-7.917,7.918h0a7.9,7.9,0,0,1-2.379-.364" fill="none" stroke="#95a6b1" stroke-linecap="round" stroke-linejoin="round" stroke-width="1.8"/>
            <path id="Trazado_12514" data-name="Trazado 12514" d="M133.346,28.649l-3.481,18.489H111.376L107.9,28.649m1.027,4.715c1.949,0,1.949,1.477,3.9,1.477s1.949-1.477,3.9-1.477,1.949,1.477,3.9,1.477,1.95-1.477,3.9-1.477,1.952,1.477,3.9,1.477,1.952-1.477,3.9-1.477" fill="none" stroke="#95a6b1" stroke-linecap="round" stroke-linejoin="round" stroke-width="1.8"/>
          </g>
        </g>
      </g>
      <rect id="Rectángulo_3799-2" data-name="Rectángulo 3799-2" width="65" height="65" transform="translate(88.121)" fill="none"/>
    </g>
    <g id="Grupo_18278" data-name="Grupo 18278">
      <rect id="Rectángulo_5521" data-name="Rectángulo 5521" width="65" height="16.741" transform="translate(88.121 48.259)" fill="none"/>
      <g id="Grupo_18277" data-name="Grupo 18277">
        <line id="Línea_3646" data-name="Línea 3646" x2="7.167" transform="translate(126.335 60.119)" fill="none" stroke="#4da12e" stroke-linecap="round" stroke-linejoin="round" stroke-width="2.4"/>
        <line id="Línea_3647" data-name="Línea 3647" x2="0.581" transform="translate(140.649 60.119)" fill="none" stroke="#4da12e" stroke-linecap="round" stroke-linejoin="round" stroke-width="2.4"/>
        <line id="Línea_3648" data-name="Línea 3648" x2="7.101" transform="translate(100.012 60.119)" fill="none" stroke="#4da12e" stroke-linecap="round" stroke-linejoin="round" stroke-width="2.4"/>
        <line id="Línea_3649" data-name="Línea 3649" x2="12.517" transform="translate(106.65 60.119)" fill="none" stroke="#96d200" stroke-linecap="round" stroke-linejoin="round" stroke-width="2.4"/>
        <line id="Línea_3650" data-name="Línea 3650" x2="23.582" transform="translate(100.012 54.012)" fill="none" stroke="#96d200" stroke-linecap="round" stroke-linejoin="round" stroke-width="2.4"/>
        <line id="Línea_3651" data-name="Línea 3651" x2="18.363" transform="translate(122.867 54.012)" fill="none" stroke="#4da12e" stroke-linecap="round" stroke-linejoin="round" stroke-width="2.4"/>
        <line id="Línea_3652" data-name="Línea 3652" x2="0.429" transform="translate(100.012 54.012)" fill="none" stroke="#4da12e" stroke-linecap="round" stroke-linejoin="round" stroke-width="2.4"/>
      </g>
    </g>
  </g>
</svg>
