<svg id="Grupo_15249" data-name="Grupo 15249" xmlns="http://www.w3.org/2000/svg" width="65" height="65" viewBox="0 0 65 65">
  <g id="Grupo_15249-2" data-name="Grupo 15249">
    <rect id="Rectángulo_5166" data-name="Rectángulo 5166" width="12.736" height="5.358" transform="translate(29.87 16.889)" fill="none" stroke="#93a4af" stroke-linecap="round" stroke-linejoin="round" stroke-width="1.8"/>
    <rect id="Rectángulo_5167" data-name="Rectángulo 5167" width="6.28" height="4.14" transform="translate(33.098 12.749)" fill="none" stroke="#93a4af" stroke-linecap="round" stroke-linejoin="round" stroke-width="1.8"/>
    <rect id="Rectángulo_5168" data-name="Rectángulo 5168" width="19.28" height="3.14" rx="1.405" transform="translate(26.598 5.578)" fill="none" stroke="#93a4af" stroke-linecap="round" stroke-linejoin="round" stroke-width="1.8"/>
    <path id="Trazado_12579" data-name="Trazado 12579" d="M42.606,28.561H29.87a5.094,5.094,0,0,0,5.094,5.095h2.547A5.1,5.1,0,0,0,42.606,28.561Z" fill="none" stroke="#93a4af" stroke-linecap="round" stroke-linejoin="round" stroke-width="1.8"/>
    <line id="Línea_2909" data-name="Línea 2909" x1="5.095" y1="4.03" transform="translate(28.003 8.718)" fill="none" stroke="#93a4af" stroke-linecap="round" stroke-linejoin="round" stroke-width="1.8"/>
    <line id="Línea_2910" data-name="Línea 2910" y1="4.03" x2="5.095" transform="translate(39.378 8.718)" fill="none" stroke="#93a4af" stroke-linecap="round" stroke-linejoin="round" stroke-width="1.8"/>
    <path id="Trazado_12580" data-name="Trazado 12580" d="M23.994,28.517H48.855v-6.27H24.994" fill="none" stroke="#93a4af" stroke-linecap="round" stroke-linejoin="round" stroke-width="1.8"/>
    <rect id="Rectángulo_5169" data-name="Rectángulo 5169" width="10.726" height="6.27" transform="translate(48.855 22.248)" fill="none" stroke="#93a4af" stroke-linecap="round" stroke-linejoin="round" stroke-width="1.8"/>
    <rect id="Rectángulo_5170" data-name="Rectángulo 5170" width="3.25" height="9.187" transform="translate(48.888 20.801)" fill="none" stroke="#93a4af" stroke-linecap="round" stroke-linejoin="round" stroke-width="1.8"/>
    <rect id="Rectángulo_5171" data-name="Rectángulo 5171" width="3.25" height="9.187" transform="translate(34.845 38.5)" fill="none" stroke="#93a4af" stroke-linecap="round" stroke-linejoin="round" stroke-width="1.8"/>
    <path id="Trazado_12581" data-name="Trazado 12581" d="M13.214,32.745v-1.34A2.888,2.888,0,0,1,16.1,28.517H26.744" fill="none" stroke="#93a4af" stroke-linecap="round" stroke-linejoin="round" stroke-width="1.8"/>
    <path id="Trazado_12582" data-name="Trazado 12582" d="M10.751,23.308a7.712,7.712,0,0,0-3.807,6.653v2.784" fill="none" stroke="#93a4af" stroke-linecap="round" stroke-linejoin="round" stroke-width="1.8"/>
    <path id="Trazado_12583" data-name="Trazado 12583" d="M6.944,32v6.52a7.714,7.714,0,0,0,7.714,7.714H24.744" fill="none" stroke="#93a4af" stroke-linecap="round" stroke-linejoin="round" stroke-width="1.8"/>
    <path id="Trazado_12584" data-name="Trazado 12584" d="M24.744,39.959H16.1a2.888,2.888,0,0,1-2.888-2.888V32.995" fill="none" stroke="#93a4af" stroke-linecap="round" stroke-linejoin="round" stroke-width="1.8"/>
    <path id="Trazado_12585" data-name="Trazado 12585" d="M23.994,46.229H34.812v-6.27H23.994" fill="none" stroke="#93a4af" stroke-linecap="round" stroke-linejoin="round" stroke-width="1.8"/>
    <path id="Trazado_12586" data-name="Trazado 12586" d="M38.095,39.959,44.109,38.5v9.187l-6.014-1.459" fill="none" stroke="#93a4af" stroke-linecap="round" stroke-linejoin="round" stroke-width="1.8"/>
    <path id="Trazado_11848" data-name="Trazado 11848" d="M21.844,21.211a4.183,4.183,0,1,1-4.183-4.183h0a4.168,4.168,0,0,1,4.183,4.151Z" fill="none" stroke="#00a800" stroke-linecap="round" stroke-linejoin="round" stroke-width="1.8" style="mix-blend-mode: multiply;isolation: isolate"/>
  </g>
  <g id="Grupo_15252" data-name="Grupo 15252">
    <g id="Grupo_15251" data-name="Grupo 15251">
      <rect id="Rectángulo_5172" data-name="Rectángulo 5172" width="65" height="16.741" transform="translate(0 48.259)" fill="none"/>
      <g id="Grupo_15250" data-name="Grupo 15250">
        <line id="Línea_2911" data-name="Línea 2911" x2="7.167" transform="translate(38.214 60.119)" fill="none" stroke="#19a301" stroke-linecap="round" stroke-linejoin="round" stroke-width="2.4"/>
        <line id="Línea_2912" data-name="Línea 2912" x2="0.581" transform="translate(52.528 60.119)" fill="none" stroke="#19a301" stroke-linecap="round" stroke-linejoin="round" stroke-width="2.4"/>
        <line id="Línea_2913" data-name="Línea 2913" x2="7.101" transform="translate(11.891 60.119)" fill="none" stroke="#19a301" stroke-linecap="round" stroke-linejoin="round" stroke-width="2.4"/>
        <line id="Línea_2914" data-name="Línea 2914" x2="12.517" transform="translate(18.529 60.119)" fill="none" stroke="#82d400" stroke-linecap="round" stroke-linejoin="round" stroke-width="2.4"/>
        <line id="Línea_2915" data-name="Línea 2915" x2="23.582" transform="translate(11.891 54.012)" fill="none" stroke="#82d400" stroke-linecap="round" stroke-linejoin="round" stroke-width="2.4"/>
        <line id="Línea_2916" data-name="Línea 2916" x2="18.363" transform="translate(34.746 54.012)" fill="none" stroke="#19a301" stroke-linecap="round" stroke-linejoin="round" stroke-width="2.4"/>
        <line id="Línea_2917" data-name="Línea 2917" x2="0.429" transform="translate(11.891 54.012)" fill="none" stroke="#19a301" stroke-linecap="round" stroke-linejoin="round" stroke-width="2.4"/>
      </g>
    </g>
  </g>
  <g id="Grupo_13216" data-name="Grupo 13216">
    <rect id="Rectángulo_3799" data-name="Rectángulo 3799" width="65" height="65" fill="none"/>
  </g>
  <rect id="Rectángulo_3799-2" data-name="Rectángulo 3799-2" width="65" height="65" fill="none"/>
</svg>
