<svg id="Grupo_18272" data-name="Grupo 18272" xmlns="http://www.w3.org/2000/svg" width="65" height="65" viewBox="0 0 65 65">
  <g id="Grupo_18267" data-name="Grupo 18267">
    <g id="Grupo_18266" data-name="Grupo 18266">
      <rect id="Rectángulo_5518" data-name="Rectángulo 5518" width="65" height="16.741" transform="translate(0 48.259)" fill="none"/>
      <g id="Grupo_18265" data-name="Grupo 18265">
        <line id="Línea_3632" data-name="Línea 3632" x2="7.167" transform="translate(38.214 60.119)" fill="none" stroke="#4da12e" stroke-linecap="round" stroke-linejoin="round" stroke-width="2.4"/>
        <line id="Línea_3633" data-name="Línea 3633" x2="0.581" transform="translate(52.528 60.119)" fill="none" stroke="#4da12e" stroke-linecap="round" stroke-linejoin="round" stroke-width="2.4"/>
        <line id="Línea_3634" data-name="Línea 3634" x2="7.101" transform="translate(11.891 60.119)" fill="none" stroke="#4da12e" stroke-linecap="round" stroke-linejoin="round" stroke-width="2.4"/>
        <line id="Línea_3635" data-name="Línea 3635" x2="12.517" transform="translate(18.529 60.119)" fill="none" stroke="#96d200" stroke-linecap="round" stroke-linejoin="round" stroke-width="2.4"/>
        <line id="Línea_3636" data-name="Línea 3636" x2="23.582" transform="translate(11.891 54.012)" fill="none" stroke="#96d200" stroke-linecap="round" stroke-linejoin="round" stroke-width="2.4"/>
        <line id="Línea_3637" data-name="Línea 3637" x2="18.363" transform="translate(34.746 54.012)" fill="none" stroke="#4da12e" stroke-linecap="round" stroke-linejoin="round" stroke-width="2.4"/>
        <line id="Línea_3638" data-name="Línea 3638" x2="0.429" transform="translate(11.891 54.012)" fill="none" stroke="#4da12e" stroke-linecap="round" stroke-linejoin="round" stroke-width="2.4"/>
      </g>
    </g>
  </g>
  <g id="Grupo_18271" data-name="Grupo 18271">
    <g id="Grupo_18270" data-name="Grupo 18270">
      <g id="Grupo_18269" data-name="Grupo 18269">
        <rect id="Rectángulo_5519" data-name="Rectángulo 5519" width="65" height="16.741" transform="translate(0 48.259)" fill="none"/>
        <g id="Grupo_18268" data-name="Grupo 18268">
          <line id="Línea_3639" data-name="Línea 3639" x2="7.167" transform="translate(38.214 60.119)" fill="none" stroke="#4c9f2e" stroke-linecap="round" stroke-linejoin="round" stroke-width="2.4"/>
          <line id="Línea_3640" data-name="Línea 3640" x2="0.581" transform="translate(52.528 60.119)" fill="none" stroke="#4c9f2e" stroke-linecap="round" stroke-linejoin="round" stroke-width="2.4"/>
          <line id="Línea_3641" data-name="Línea 3641" x2="7.101" transform="translate(11.891 60.119)" fill="none" stroke="#4c9f2e" stroke-linecap="round" stroke-linejoin="round" stroke-width="2.4"/>
          <line id="Línea_3642" data-name="Línea 3642" x2="12.517" transform="translate(18.529 60.119)" fill="none" stroke="#94d040" stroke-linecap="round" stroke-linejoin="round" stroke-width="2.4"/>
          <line id="Línea_3643" data-name="Línea 3643" x2="23.582" transform="translate(11.891 54.012)" fill="none" stroke="#94d040" stroke-linecap="round" stroke-linejoin="round" stroke-width="2.4"/>
          <line id="Línea_3644" data-name="Línea 3644" x2="18.363" transform="translate(34.746 54.012)" fill="none" stroke="#4c9f2e" stroke-linecap="round" stroke-linejoin="round" stroke-width="2.4"/>
          <line id="Línea_3645" data-name="Línea 3645" x2="0.429" transform="translate(11.891 54.012)" fill="none" stroke="#4c9f2e" stroke-linecap="round" stroke-linejoin="round" stroke-width="2.4"/>
        </g>
      </g>
    </g>
    <g id="Grupo_13216" data-name="Grupo 13216">
      <rect id="Rectángulo_3799" data-name="Rectángulo 3799" width="65" height="65" transform="translate(0)" fill="none"/>
    </g>
    <rect id="Rectángulo_3799-2" data-name="Rectángulo 3799-2" width="65" height="65" transform="translate(0)" fill="none"/>
    <g id="Grupo_13714" data-name="Grupo 13714">
      <path id="Trazado_11848" data-name="Trazado 11848" d="M24,20.626a4.183,4.183,0,1,1-4.183-4.183h0A4.166,4.166,0,0,1,24,20.594Z" fill="none" stroke="#00a800" stroke-linecap="round" stroke-linejoin="round" stroke-width="1.6"/>
      <path id="Trazado_18838" data-name="Trazado 18838" d="M43.787,17.3,39.025,9.05a7.534,7.534,0,0,0-13.05,0l-2.782,4.818" fill="none" stroke="#95a6b1" stroke-linecap="round" stroke-linejoin="round" stroke-width="1.6"/>
      <path id="Trazado_18839" data-name="Trazado 18839" d="M39.842,45.987H47.3a7.534,7.534,0,0,0,6.525-11.3l-4.452-7.711" fill="none" stroke="#95a6b1" stroke-linecap="round" stroke-linejoin="round" stroke-width="1.6"/>
      <path id="Trazado_18840" data-name="Trazado 18840" d="M15.626,26.975l-4.452,7.711a7.534,7.534,0,0,0,6.525,11.3H35.842" fill="none" stroke="#95a6b1" stroke-linecap="round" stroke-linejoin="round" stroke-width="1.6"/>
      <path id="Trazado_18841" data-name="Trazado 18841" d="M42.8,42.465l-2.956,3.522L42.8,49.373" fill="none" stroke="#95a6b1" stroke-linecap="round" stroke-linejoin="round" stroke-width="1.6"/>
      <path id="Trazado_18842" data-name="Trazado 18842" d="M17.112,31.327l-1.483-4.352-4.427.776" fill="none" stroke="#95a6b1" stroke-linecap="round" stroke-linejoin="round" stroke-width="1.6"/>
      <path id="Trazado_18843" data-name="Trazado 18843" d="M39.271,16.434l4.516.865L45.3,13.068" fill="none" stroke="#95a6b1" stroke-linecap="round" stroke-linejoin="round" stroke-width="1.6"/>
      <g id="Grupo_13390" data-name="Grupo 13390">
        <g id="Grupo_13389" data-name="Grupo 13389">
          <line id="Línea_2376" data-name="Línea 2376" y2="18.665" transform="translate(32.5 27.23)" fill="none" stroke="#95a6b1" stroke-linecap="round" stroke-linejoin="round" stroke-width="1.6"/>
          <line id="Línea_2377" data-name="Línea 2377" x1="9.01" y2="9.01" transform="translate(32.482 26.383)" fill="none" stroke="#95a6b1" stroke-linecap="round" stroke-linejoin="round" stroke-width="1.6"/>
          <line id="Línea_2378" data-name="Línea 2378" x2="6.121" y2="4.157" transform="translate(26.1 34.988)" fill="none" stroke="#95a6b1" stroke-linecap="round" stroke-linejoin="round" stroke-width="1.6"/>
          <path id="Trazado_11782" data-name="Trazado 11782" d="M43.623,31.019A4.891,4.891,0,0,1,36.706,24.1c1.91-1.91,10.232-3.315,10.232-3.315S45.533,29.11,43.623,31.019Z" fill="none" stroke="#95a6b1" stroke-linecap="round" stroke-linejoin="round" stroke-width="1.6"/>
          <g id="Grupo_13388" data-name="Grupo 13388">
            <line id="Línea_2379" data-name="Línea 2379" x2="3.755" y2="2.549" transform="translate(24.989 34.284)" fill="none" stroke="#95a6b1" stroke-linecap="round" stroke-linejoin="round" stroke-width="1.6"/>
            <path id="Trazado_11783" data-name="Trazado 11783" d="M28.218,32.265A3.5,3.5,0,0,1,24.3,38.029c-1.465-.993-3.237-6.409-3.237-6.409S26.753,31.268,28.218,32.265Z" fill="none" stroke="#95a6b1" stroke-linecap="round" stroke-linejoin="round" stroke-width="1.6"/>
          </g>
        </g>
      </g>
    </g>
  </g>
</svg>
