<svg id="Grupo_15223" data-name="Grupo 15223" xmlns="http://www.w3.org/2000/svg" width="65" height="65" viewBox="0 0 65 65">
  <g id="Grupo_15224" data-name="Grupo 15224">
    <g id="Grupo_15223-2" data-name="Grupo 15223">
      <path id="Trazado_11848" data-name="Trazado 11848" d="M53.932,34.164a4.183,4.183,0,1,1-4.183-4.183h0a4.168,4.168,0,0,1,4.183,4.151Z" fill="none" stroke="#00a800" stroke-linecap="round" stroke-linejoin="round" stroke-width="1.8" style="mix-blend-mode: multiply;isolation: isolate"/>
      <g id="Grupo_13591" data-name="Grupo 13591">
        <path id="Trazado_11866" data-name="Trazado 11866" d="M38.644,34.164V30.332H22.854v3.825" fill="none" stroke="#93a4af" stroke-linecap="round" stroke-linejoin="round" stroke-width="1.8"/>
        <g id="Grupo_13590" data-name="Grupo 13590">
          <rect id="Rectángulo_4762" data-name="Rectángulo 4762" width="5.673" height="15.016" transform="translate(11.542 32.23)" fill="none" stroke="#93a4af" stroke-linecap="round" stroke-linejoin="round" stroke-width="1.8"/>
          <rect id="Rectángulo_4763" data-name="Rectángulo 4763" width="6.122" height="8.315" transform="translate(5.42 35.58)" fill="none" stroke="#93a4af" stroke-linecap="round" stroke-linejoin="round" stroke-width="1.8"/>
          <path id="Trazado_11867" data-name="Trazado 11867" d="M42.246,34.164H17.213V45.313H59.58V34.164H56.759" fill="none" stroke="#93a4af" stroke-linecap="round" stroke-linejoin="round" stroke-width="1.8"/>
        </g>
        <path id="Trazado_11868" data-name="Trazado 11868" d="M28.573,24.943a2.819,2.819,0,0,0-2.819,2.819v2.561h9.989V27.762a2.819,2.819,0,0,0-2.819-2.819Z" fill="none" stroke="#93a4af" stroke-linecap="round" stroke-linejoin="round" stroke-width="1.8"/>
        <path id="Trazado_11869" data-name="Trazado 11869" d="M30.749,18.753a6.883,6.883,0,0,1-1.707-.237v6.426h3.413V18.516A6.876,6.876,0,0,1,30.749,18.753Z" fill="none" stroke="#93a4af" stroke-linecap="round" stroke-linejoin="round" stroke-width="1.8"/>
        <circle id="Elipse_2295" data-name="Elipse 2295" cx="6.913" cy="6.913" r="6.913" transform="translate(23.836 4.928)" fill="none" stroke="#93a4af" stroke-linecap="round" stroke-linejoin="round" stroke-width="1.8"/>
        <line id="Línea_2439" data-name="Línea 2439" x1="2.207" transform="translate(30.793 11.486)" fill="none" stroke="#93a4af" stroke-linecap="round" stroke-linejoin="round" stroke-width="1.8"/>
        <line id="Línea_2440" data-name="Línea 2440" y2="2.449" transform="translate(30.793 10.261)" fill="none" stroke="#93a4af" stroke-linecap="round" stroke-linejoin="round" stroke-width="1.8"/>
      </g>
    </g>
  </g>
  <g id="Grupo_15227" data-name="Grupo 15227">
    <g id="Grupo_15226" data-name="Grupo 15226">
      <rect id="Rectángulo_5162" data-name="Rectángulo 5162" width="65" height="16.741" transform="translate(0 48.259)" fill="none"/>
      <g id="Grupo_15225" data-name="Grupo 15225">
        <line id="Línea_2869" data-name="Línea 2869" x2="7.167" transform="translate(38.214 60.119)" fill="none" stroke="#19a301" stroke-linecap="round" stroke-linejoin="round" stroke-width="2.4"/>
        <line id="Línea_2870" data-name="Línea 2870" x2="0.581" transform="translate(52.528 60.119)" fill="none" stroke="#19a301" stroke-linecap="round" stroke-linejoin="round" stroke-width="2.4"/>
        <line id="Línea_2871" data-name="Línea 2871" x2="7.101" transform="translate(11.891 60.119)" fill="none" stroke="#19a301" stroke-linecap="round" stroke-linejoin="round" stroke-width="2.4"/>
        <line id="Línea_2872" data-name="Línea 2872" x2="12.517" transform="translate(18.529 60.119)" fill="none" stroke="#82d400" stroke-linecap="round" stroke-linejoin="round" stroke-width="2.4"/>
        <line id="Línea_2873" data-name="Línea 2873" x2="23.582" transform="translate(11.891 54.012)" fill="none" stroke="#82d400" stroke-linecap="round" stroke-linejoin="round" stroke-width="2.4"/>
        <line id="Línea_2874" data-name="Línea 2874" x2="18.363" transform="translate(34.746 54.012)" fill="none" stroke="#19a301" stroke-linecap="round" stroke-linejoin="round" stroke-width="2.4"/>
        <line id="Línea_2875" data-name="Línea 2875" x2="0.429" transform="translate(11.891 54.012)" fill="none" stroke="#19a301" stroke-linecap="round" stroke-linejoin="round" stroke-width="2.4"/>
      </g>
    </g>
  </g>
  <g id="Grupo_13216" data-name="Grupo 13216">
    <rect id="Rectángulo_3799" data-name="Rectángulo 3799" width="65" height="65" fill="none"/>
  </g>
  <rect id="Rectángulo_3799-2" data-name="Rectángulo 3799-2" width="65" height="65" fill="none"/>
</svg>
