<svg id="Grupo_15228" data-name="Grupo 15228" xmlns="http://www.w3.org/2000/svg" width="65" height="65" viewBox="0 0 65 65">
  <g id="Grupo_14936" data-name="Grupo 14936">
    <g id="Grupo_14935" data-name="Grupo 14935">
      <line id="Línea_2736" data-name="Línea 2736" x2="51.399" transform="translate(7.13 49.247)" fill="#95a6b1" stroke="#95a6b1" stroke-linecap="round" stroke-linejoin="round" stroke-width="1.8"/>
      <path id="Trazado_12413" data-name="Trazado 12413" d="M10.831,14.58V12.427a3.115,3.115,0,0,1,3.116-3.115h3.618a3.115,3.115,0,0,1,3.115,3.115V49.013" fill="none" stroke="#95a6b1" stroke-linecap="round" stroke-linejoin="round" stroke-width="1.8"/>
      <line id="Línea_2737" data-name="Línea 2737" y1="19.011" transform="translate(10.831 30.231)" fill="none" stroke="#95a6b1" stroke-linecap="round" stroke-linejoin="round" stroke-width="1.8"/>
      <path id="Trazado_12414" data-name="Trazado 12414" d="M39.691,49.166V34.682a3,3,0,0,1,3-3h9.117a3,3,0,0,1,3,3v14.56" fill="none" stroke="#95a6b1" stroke-linecap="round" stroke-linejoin="round" stroke-width="1.8"/>
      <path id="Trazado_12415" data-name="Trazado 12415" d="M35.95,49.166V28.192a3,3,0,0,1,3-3h5.223a3,3,0,0,1,3,3v3.337" fill="none" stroke="#95a6b1" stroke-linecap="round" stroke-linejoin="round" stroke-width="1.8"/>
      <path id="Trazado_12416" data-name="Trazado 12416" d="M20.68,15.42h1.371a2.6,2.6,0,0,1,2.6,2.6v31" fill="none" stroke="#95a6b1" stroke-linecap="round" stroke-linejoin="round" stroke-width="1.8"/>
      <path id="Trazado_12417" data-name="Trazado 12417" d="M20.908,31.071h7.023a2.293,2.293,0,0,1,2.293,2.293V41.07a2.292,2.292,0,0,0,2.293,2.293h6.922" fill="none" stroke="#95a6b1" stroke-linecap="round" stroke-linejoin="round" stroke-width="1.8"/>
      <path id="Trazado_12418" data-name="Trazado 12418" d="M49.775,40.65l-2.1-4.343L45.729,40.65a4.58,4.58,0,0,0-.409,1.407,2.422,2.422,0,0,0,4.844,0A4.754,4.754,0,0,0,49.775,40.65Z" fill="none" stroke="#95a6b1" stroke-linecap="round" stroke-linejoin="round" stroke-width="1.8"/>
      <line id="Línea_2738" data-name="Línea 2738" y2="5.998" transform="translate(41.907 18.907)" fill="none" stroke="#95a6b1" stroke-linecap="round" stroke-linejoin="round" stroke-width="1.8"/>
      <path id="Rectángulo_5101" data-name="Rectángulo 5101" d="M5.153,0H25.337a0,0,0,0,1,0,0V11.275a5.153,5.153,0,0,1-5.153,5.153H0a0,0,0,0,1,0,0V5.153A5.153,5.153,0,0,1,5.153,0Z" transform="translate(29.238 2.454)" fill="none" stroke="#95a6b1" stroke-linecap="round" stroke-linejoin="round" stroke-width="1.8"/>
      <path id="Trazado_11848" data-name="Trazado 11848" d="M14.989,22.288A4.183,4.183,0,1,1,10.806,18.1h0a4.168,4.168,0,0,1,4.183,4.151Z" fill="none" stroke="#00a800" stroke-linecap="round" stroke-linejoin="round" stroke-width="1.8"/>
      <g id="Grupo_14934" data-name="Grupo 14934">
        <line id="Línea_2739" data-name="Línea 2739" y1="7.538" transform="translate(32.382 8.528)" fill="none" stroke="#95a6b1" stroke-linecap="round" stroke-linejoin="round" stroke-width="1.8"/>
        <path id="Trazado_12419" data-name="Trazado 12419" d="M36.778,8.828V7.579A2.1,2.1,0,0,0,34.66,5.491H34.5a2.1,2.1,0,0,0-2.117,2.088V8.828" fill="none" stroke="#95a6b1" stroke-linecap="round" stroke-linejoin="round" stroke-width="1.8"/>
        <line id="Línea_2740" data-name="Línea 2740" y1="7.538" transform="translate(36.783 8.528)" fill="none" stroke="#95a6b1" stroke-linecap="round" stroke-linejoin="round" stroke-width="1.8"/>
        <line id="Línea_2741" data-name="Línea 2741" y1="7.538" transform="translate(41.179 8.529)" fill="none" stroke="#95a6b1" stroke-linecap="round" stroke-linejoin="round" stroke-width="1.8"/>
        <path id="Trazado_12420" data-name="Trazado 12420" d="M41.179,8.828V7.579a2.1,2.1,0,0,0-2.118-2.088H38.9a2.1,2.1,0,0,0-2.117,2.088V8.828" fill="none" stroke="#95a6b1" stroke-linecap="round" stroke-linejoin="round" stroke-width="1.8"/>
        <line id="Línea_2742" data-name="Línea 2742" y2="10.575" transform="translate(43.73 5.491)" fill="none" stroke="#95a6b1" stroke-linecap="round" stroke-linejoin="round" stroke-width="1.8"/>
        <g id="Grupo_14933" data-name="Grupo 14933">
          <line id="Línea_2743" data-name="Línea 2743" y1="7.538" transform="translate(46.262 8.528)" fill="none" stroke="#95a6b1" stroke-linecap="round" stroke-linejoin="round" stroke-width="1.8"/>
          <g id="Grupo_14932" data-name="Grupo 14932">
            <path id="Rectángulo_5102" data-name="Rectángulo 5102" d="M2.118,0h.16A2.118,2.118,0,0,1,4.4,2.118V3.177A2.278,2.278,0,0,1,2.118,5.455H0a0,0,0,0,1,0,0V2.118A2.118,2.118,0,0,1,2.118,0Z" transform="translate(46.263 5.491)" fill="none" stroke="#95a6b1" stroke-linecap="round" stroke-linejoin="round" stroke-width="1.8"/>
            <line id="Línea_2744" data-name="Línea 2744" x1="4.383" y1="5.122" transform="translate(46.263 10.946)" fill="none" stroke="#95a6b1" stroke-linecap="round" stroke-linejoin="round" stroke-width="1.8"/>
          </g>
        </g>
      </g>
    </g>
  </g>
  <rect id="Rectángulo_3799-2" data-name="Rectángulo 3799-2" width="65" height="65" fill="none"/>
  <g id="Grupo_14939" data-name="Grupo 14939">
    <g id="Grupo_14938" data-name="Grupo 14938">
      <rect id="Rectángulo_5103" data-name="Rectángulo 5103" width="65" height="16.741" transform="translate(0 48.259)" fill="none"/>
      <g id="Grupo_14937" data-name="Grupo 14937">
        <line id="Línea_2745" data-name="Línea 2745" x2="7.167" transform="translate(38.214 60.119)" fill="none" stroke="#19a301" stroke-linecap="round" stroke-linejoin="round" stroke-width="2.4"/>
        <line id="Línea_2746" data-name="Línea 2746" x2="0.581" transform="translate(52.528 60.119)" fill="none" stroke="#19a301" stroke-linecap="round" stroke-linejoin="round" stroke-width="2.4"/>
        <line id="Línea_2747" data-name="Línea 2747" x2="7.101" transform="translate(11.891 60.119)" fill="none" stroke="#19a301" stroke-linecap="round" stroke-linejoin="round" stroke-width="2.4"/>
        <line id="Línea_2748" data-name="Línea 2748" x2="12.517" transform="translate(18.529 60.119)" fill="none" stroke="#82d400" stroke-linecap="round" stroke-linejoin="round" stroke-width="2.4"/>
        <line id="Línea_2749" data-name="Línea 2749" x2="23.582" transform="translate(11.891 54.012)" fill="none" stroke="#82d400" stroke-linecap="round" stroke-linejoin="round" stroke-width="2.4"/>
        <line id="Línea_2750" data-name="Línea 2750" x2="18.363" transform="translate(34.746 54.012)" fill="none" stroke="#19a301" stroke-linecap="round" stroke-linejoin="round" stroke-width="2.4"/>
        <line id="Línea_2751" data-name="Línea 2751" x2="0.429" transform="translate(11.891 54.012)" fill="none" stroke="#19a301" stroke-linecap="round" stroke-linejoin="round" stroke-width="2.4"/>
      </g>
    </g>
  </g>
</svg>
