<?xml version="1.0" encoding="utf-8"?>
<!-- Generator: Adobe Illustrator 24.0.2, SVG Export Plug-In . SVG Version: 6.00 Build 0)  -->
<svg version="1.1" id="Capa_1" xmlns="http://www.w3.org/2000/svg" xmlns:xlink="http://www.w3.org/1999/xlink" x="0px" y="0px"
	 viewBox="0 0 49 49" style="enable-background:new 0 0 49 49;" xml:space="preserve">
<style type="text/css">
	.st0{fill:none;}
	.st1{fill:none;stroke:#FFFFFF;stroke-width:1.7301;stroke-linecap:round;stroke-linejoin:round;}
	.st2{fill:#FFFFFF;}
</style>
<title>ICONOS HEMEROTECA</title>
<rect class="st0" width="49" height="49"/>
<g>
	<polygon class="st1" points="42.7,37 34.2,28.9 31.5,40.3 35.6,39.1 37.1,44.3 40.2,43.4 38.7,38.2 	"/>
	<polyline class="st1" points="31.9,38.7 5.5,38.7 5.5,23.1 5.5,17.7 11.3,17.7 35.4,17.7 35.4,23.1 35.4,30 	"/>
	<line class="st1" x1="5.5" y1="23.1" x2="35.4" y2="23.1"/>
	<polyline class="st1" points="11.3,17.7 11.3,11.9 11.3,6.6 41.2,6.6 41.2,11.9 41.2,29.7 35.1,29.7 	"/>
	<line class="st1" x1="11.3" y1="11.9" x2="41.2" y2="11.9"/>
	<circle class="st2" cx="9" cy="20.2" r="0.9"/>
	<circle class="st2" cx="12.4" cy="20.2" r="0.9"/>
	<circle class="st2" cx="15.9" cy="20.2" r="0.9"/>
	<circle class="st2" cx="14.8" cy="9.2" r="0.9"/>
	<circle class="st2" cx="18.2" cy="9.2" r="0.9"/>
	<circle class="st2" cx="21.7" cy="9.2" r="0.9"/>
</g>
</svg>
