<?xml version="1.0" encoding="utf-8"?>
<!-- Generator: Adobe Illustrator 24.0.2, SVG Export Plug-In . SVG Version: 6.00 Build 0)  -->
<svg version="1.1" xmlns="http://www.w3.org/2000/svg" xmlns:xlink="http://www.w3.org/1999/xlink" x="0px" y="0px"
	 viewBox="0 0 60 60" style="enable-background:new 0 0 60 60;" xml:space="preserve">
<style type="text/css">
	.st0{fill:#19A500;}
	.st1{fill:none;}
	.st2{fill:none;stroke:#EFEF00;stroke-width:1.2;stroke-miterlimit:10;}
	.st3{fill:none;stroke:#FFFFFF;stroke-width:1.2;stroke-linecap:round;stroke-linejoin:round;stroke-miterlimit:10;}
	.st4{fill:none;stroke:#FFFFFF;stroke-width:1.0518;stroke-linecap:round;stroke-linejoin:round;stroke-miterlimit:10;}
	.st5{fill:none;stroke:#FFFFFF;stroke-width:1.3932;stroke-linecap:round;stroke-linejoin:round;stroke-miterlimit:10;}
</style>
<g id="Capa_2">
</g>
<g id="Capa_1">
	<g>
		<path class="st4" d="M10.05,38.52h7.03c1.92,0,3.48,1.56,3.48,3.48v0.81H6.57V42C6.57,40.08,8.13,38.52,10.05,38.52z"/>
		<g>
			<g>
				<g>
					<path id="Rectángulo_3799_71_" class="st0" d="M30,0L30,0c16.57,0,30,13.43,30,30v0c0,16.57-13.43,30-30,30h0
						C13.43,60,0,46.57,0,30v0C0,13.43,13.43,0,30,0z"/>
				</g>
			</g>
			<g>
				<g>
					<rect id="Rectángulo_3799_70_" class="st1" width="60" height="60"/>
				</g>
			</g>
			<g>
				<g>
					<g>
						<circle class="st2" cx="51.84" cy="27" r="2.99"/>
					</g>
				</g>
				<g>
					<line class="st3" x1="5.17" y1="34.62" x2="44.79" y2="34.62"/>
					<g>
						<line class="st3" x1="28.49" y1="12.69" x2="28.49" y2="34.62"/>
						<path class="st3" d="M36.03,8.37c0,0-7.55-2.91-7.55,5.14"/>
						<path class="st3" d="M20.3,8.45c0,0,6.7-3.44,8.18,5.83"/>
						<path class="st3" d="M19.64,13.79c0,0,3.89-6.39,8.85-1.1c0,0,3.82-4.11,7.84,0.51"/>
						<path class="st3" d="M22.26,18.3c0,0,0.24-7.53,6.23-5.61c0,0,5.28-1.67,5.61,5.61"/>
					</g>
					<g>
						<line class="st3" x1="13.66" y1="25.06" x2="13.66" y2="34.62"/>
						<path class="st3" d="M20.02,21.42c0,0-6.36-2.45-6.36,4.33"/>
						<path class="st3" d="M6.76,21.49c0,0,5.65-2.9,6.9,4.92"/>
						<path class="st3" d="M6.2,25.98c0,0,3.28-5.38,7.46-0.93c0,0,3.22-3.46,6.61,0.43"/>
						<path class="st3" d="M8.41,29.79c0,0,0.2-6.35,5.25-4.73c0,0,4.45-1.4,4.73,4.73"/>
					</g>
					<line class="st3" x1="10.5" y1="45.17" x2="13.05" y2="45.17"/>
					<line class="st3" x1="19.99" y1="49.17" x2="22.53" y2="49.17"/>
					<line class="st3" x1="16.33" y1="45.17" x2="22.53" y2="45.17"/>
					<line class="st3" x1="42.53" y1="40.82" x2="48.98" y2="40.82"/>
					<line class="st3" x1="22.22" y1="38.52" x2="33.7" y2="38.52"/>
					<g>
						<line class="st3" x1="45.71" y1="21.2" x2="45.71" y2="40.65"/>
						<path class="st3" d="M48.29,30.9c-0.8,0.29-1.67,0.44-2.57,0.44c-4.23,0-7.66-3.43-7.66-7.66s3.43-7.66,7.66-7.66
							c3.59,0,6.61,2.47,7.44,5.81"/>
						<line class="st3" x1="45.94" y1="24.26" x2="48.8" y2="21.4"/>
						<line class="st3" x1="42.1" y1="26.22" x2="45.63" y2="28.64"/>
					</g>
					<path class="st3" d="M31.09,45.88h7.03c1.92,0,3.48,1.56,3.48,3.48v0.81H27.6v-0.81C27.6,47.44,29.16,45.88,31.09,45.88z"/>
				</g>
			</g>
		</g>
	</g>
</g>
</svg>
