<?xml version="1.0" encoding="utf-8"?>
<!-- Generator: Adobe Illustrator 24.0.2, SVG Export Plug-In . SVG Version: 6.00 Build 0)  -->
<svg version="1.1" xmlns="http://www.w3.org/2000/svg" xmlns:xlink="http://www.w3.org/1999/xlink" x="0px" y="0px"
	 viewBox="0 0 60 60" style="enable-background:new 0 0 60 60;" xml:space="preserve">
<style type="text/css">
	.st0{fill:#19A500;}
	.st1{fill:none;}
	.st2{fill:none;stroke:#EFEF00;stroke-width:1.2;stroke-miterlimit:10;}
	.st3{fill:none;stroke:#FFFFFF;stroke-width:1.2;stroke-linecap:round;stroke-linejoin:round;stroke-miterlimit:10;}
	.st4{fill:none;stroke:#FFFFFF;stroke-width:1.0518;stroke-linecap:round;stroke-linejoin:round;stroke-miterlimit:10;}
	.st5{fill:none;stroke:#FFFFFF;stroke-width:1.3932;stroke-linecap:round;stroke-linejoin:round;stroke-miterlimit:10;}
</style>
<g id="Capa_2">
</g>
<g id="Capa_1">
	<g>
		<g>
			<g>
				<path id="Rectángulo_3799_17_" class="st0" d="M30,0L30,0c16.57,0,30,13.43,30,30v0c0,16.57-13.43,30-30,30h0
					C13.43,60,0,46.57,0,30v0C0,13.43,13.43,0,30,0z"/>
			</g>
		</g>
		<g>
			<g>
				<rect id="Rectángulo_3799_72_" class="st1" width="60" height="60"/>
			</g>
		</g>
		<g>
			<g>
				<g>
					<g>
						<polyline class="st3" points="23.96,24.42 32.13,7.32 48.9,42.23 						"/>
						<line class="st3" x1="53.28" y1="30.89" x2="55.39" y2="35.12"/>
						<g>
							<polyline class="st3" points="39.28,22.42 36.94,20.42 34.61,22.42 32.27,20.42 29.93,22.42 27.59,20.42 25.25,22.42 							
								"/>
						</g>
						<polyline class="st3" points="48.02,20.33 44.91,14.11 37.16,17.79 						"/>
						<polyline class="st3" points="32.12,34.61 20.76,21.81 12.88,26.14 6.61,41.51 						"/>
					</g>
				</g>
				<polyline class="st3" points="42.14,47.22 36.89,36.03 22.64,31.66 15.93,48.68 				"/>
			</g>
			<g>
				<g>
					<circle class="st2" cx="50.23" cy="26" r="3.86"/>
				</g>
			</g>
		</g>
	</g>
</g>
</svg>
