<?xml version="1.0" encoding="utf-8"?>
<!-- Generator: Adobe Illustrator 24.0.2, SVG Export Plug-In . SVG Version: 6.00 Build 0)  -->
<svg version="1.1" id="Capa_1" xmlns="http://www.w3.org/2000/svg" xmlns:xlink="http://www.w3.org/1999/xlink" x="0px" y="0px"
	 viewBox="0 0 65 65" style="enable-background:new 0 0 65 65;" xml:space="preserve">
<style type="text/css">
	.st0{fill:none;}
	.st1{fill:#4DA12E;}
	.st2{fill:#96D200;}
	.st3{fill:none;stroke:#95A6B1;stroke-width:1.6;stroke-linecap:round;stroke-linejoin:round;stroke-miterlimit:10;}
	.st4{fill:none;stroke:#19A500;stroke-width:1.6;stroke-linecap:round;stroke-linejoin:round;stroke-miterlimit:10;}
	
		.st5{fill:none;stroke:#95A6B1;stroke-width:1.6;stroke-linecap:round;stroke-linejoin:round;stroke-miterlimit:10;stroke-dasharray:2,3;}
</style>
<g>
	<rect id="Rectángulo_3799-2_3_" class="st0" width="65" height="65"/>
	<g>
		<g>
			<g>
				<rect y="48.26" class="st0" width="65" height="16.74"/>
			</g>
			<g>
				<g>
					<path class="st1" d="M45.38,61.32h-7.17c-0.66,0-1.2-0.54-1.2-1.2s0.54-1.2,1.2-1.2h7.17c0.66,0,1.2,0.54,1.2,1.2
						S46.04,61.32,45.38,61.32z"/>
				</g>
				<g>
					<path class="st1" d="M53.11,61.32h-0.58c-0.66,0-1.2-0.54-1.2-1.2s0.54-1.2,1.2-1.2h0.58c0.66,0,1.2,0.54,1.2,1.2
						S53.77,61.32,53.11,61.32z"/>
				</g>
				<g>
					<path class="st1" d="M18.99,61.32h-7.1c-0.66,0-1.2-0.54-1.2-1.2s0.54-1.2,1.2-1.2h7.1c0.66,0,1.2,0.54,1.2,1.2
						S19.65,61.32,18.99,61.32z"/>
				</g>
				<g>
					<path class="st2" d="M31.05,61.32H18.53c-0.66,0-1.2-0.54-1.2-1.2s0.54-1.2,1.2-1.2h12.52c0.66,0,1.2,0.54,1.2,1.2
						S31.71,61.32,31.05,61.32z"/>
				</g>
				<g>
					<path class="st2" d="M35.47,55.21H11.89c-0.66,0-1.2-0.54-1.2-1.2s0.54-1.2,1.2-1.2h23.58c0.66,0,1.2,0.54,1.2,1.2
						S36.14,55.21,35.47,55.21z"/>
				</g>
				<g>
					<path class="st1" d="M53.11,55.21H34.75c-0.66,0-1.2-0.54-1.2-1.2s0.54-1.2,1.2-1.2h18.36c0.66,0,1.2,0.54,1.2,1.2
						S53.77,55.21,53.11,55.21z"/>
				</g>
				<g>
					<path class="st1" d="M12.32,55.21h-0.43c-0.66,0-1.2-0.54-1.2-1.2s0.54-1.2,1.2-1.2h0.43c0.66,0,1.2,0.54,1.2,1.2
						S12.98,55.21,12.32,55.21z"/>
				</g>
			</g>
		</g>
	</g>
</g>
<g>
	<g>
		<g>
			<path class="st3" d="M47.1,11.33l7.69,8.42c1.41,1.54,1.3,3.93-0.24,5.34l-3.82,3.23c-1.54,1.41-3.93,1.3-5.34-0.24l-5.45-5.97"
				/>
			<polyline class="st3" points="37.66,19.62 32.88,14.38 38.03,9.68 			"/>
			<line class="st3" x1="44.94" y1="27.6" x2="54.39" y2="19.31"/>
			<path class="st3" d="M53.28,15.62l-1.19,1.17l-4.99-5.46l1.37-1.25c0.77-0.7,1.96-0.65,2.67,0.12l2.51,2.68
				C54.34,13.65,54.05,14.92,53.28,15.62z"/>
			<path class="st3" d="M37.66,19.62l-5.63,0.98c0,0-1.64-2.33-4.16-1.5l1.12,7.01c0,0,3.09-0.25,3.58-2.75l7.36-1.25"/>
			<line class="st3" x1="34.95" y1="16.65" x2="39.98" y2="11.92"/>
		</g>
		<g id="Group_297_2_" transform="translate(2471.883 192.836)">
			<path id="Path_356_2_" class="st4" d="M-2425.22-185.95c0,1.95-1.58,3.53-3.53,3.53c-1.95,0-3.53-1.58-3.53-3.53
				c0-1.95,1.58-3.53,3.53-3.53c1.94-0.01,3.52,1.56,3.53,3.5C-2425.22-185.97-2425.22-185.96-2425.22-185.95z"/>
		</g>
	</g>
	<path class="st5" d="M25.91,24.29c0,0-4.59,2.94-3.81,9.8"/>
	<path class="st5" d="M25.91,21.24c0,0-6.94-1.72-9.91,6.02"/>
	<g>
		<g>
			<line id="Línea_2376_5_" class="st3" x1="19.62" y1="36.68" x2="19.62" y2="48.46"/>
			<line id="Línea_2377_8_" class="st3" x1="13.11" y1="32.52" x2="19.53" y2="38.94"/>
			<line id="Línea_2378_8_" class="st3" x1="25.26" y1="39.28" x2="19.72" y2="43.04"/>
			<path id="Trazado_11782_2_" class="st3" d="M11.59,35.82c1.38,1.34,3.59,1.31,4.93-0.07c1.31-1.35,1.31-3.51,0-4.86
				c-1.36-1.36-7.29-2.36-7.29-2.36S10.23,34.46,11.59,35.82z"/>
			<path id="Trazado_11783_10_" class="st3" d="M23.25,36.69c-1.35,1.11-1.55,3.1-0.45,4.45c0.97,1.19,2.65,1.51,3.99,0.76
				c1.33-0.9,2.93-5.8,2.93-5.8S24.58,35.79,23.25,36.69z"/>
			<line id="Línea_2380_5_" class="st3" x1="25.05" y1="48.49" x2="13.72" y2="48.49"/>
		</g>
	</g>
	<g>
		<g>
			<line id="Línea_2376_4_" class="st3" x1="43.27" y1="36.68" x2="43.27" y2="48.46"/>
			<line id="Línea_2378_7_" class="st3" x1="48.9" y1="39.28" x2="43.37" y2="43.04"/>
			<path id="Trazado_11783_9_" class="st3" d="M46.9,36.69c-1.35,1.11-1.55,3.1-0.45,4.45c0.97,1.19,2.65,1.51,3.99,0.76
				c1.33-0.9,2.93-5.8,2.93-5.8S48.23,35.79,46.9,36.69z"/>
			<line id="Línea_2380_4_" class="st3" x1="48.7" y1="48.49" x2="37.36" y2="48.49"/>
		</g>
	</g>
	<g>
		<line id="Línea_2378_6_" class="st3" x1="37.73" y1="39.28" x2="43.27" y2="43.04"/>
		<path id="Trazado_11783_8_" class="st3" d="M39.73,36.69c1.35,1.11,1.55,3.1,0.45,4.45c-0.97,1.19-2.65,1.51-3.99,0.76
			c-1.33-0.9-2.93-5.8-2.93-5.8S38.41,35.79,39.73,36.69z"/>
	</g>
</g>
</svg>
