<svg id="Capa_1" data-name="Capa 1" xmlns="http://www.w3.org/2000/svg" xmlns:xlink="http://www.w3.org/1999/xlink" width="65" height="65" viewBox="0 0 65 65">
  <defs>
    <clipPath id="clip-path">
      <rect id="Rectángulo_5767" data-name="Rectángulo 5767" width="65" height="16.74" transform="translate(0 48.26)" fill="none"/>
    </clipPath>
  </defs>
  <g id="Grupo_20308" data-name="Grupo 20308">
    <g id="Grupo_20307" data-name="Grupo 20307">
      <g id="Grupo_20306" data-name="Grupo 20306">
        <g id="Grupo_20305" data-name="Grupo 20305" clip-path="url(#clip-path)">
          <g id="Grupo_20304" data-name="Grupo 20304">
            <g id="Grupo_20295" data-name="Grupo 20295">
              <rect id="Rectángulo_5766" data-name="Rectángulo 5766" width="65" height="16.74" transform="translate(0 48.26)" fill="none"/>
            </g>
            <g id="Grupo_20303" data-name="Grupo 20303">
              <g id="Grupo_20296" data-name="Grupo 20296">
                <path id="Trazado_19788" data-name="Trazado 19788" d="M45.38,61.32H38.21a1.2,1.2,0,1,1,0-2.4h7.17a1.2,1.2,0,0,1,0,2.4Z" fill="#4da12e"/>
              </g>
              <g id="Grupo_20297" data-name="Grupo 20297">
                <path id="Trazado_19789" data-name="Trazado 19789" d="M53.11,61.32h-.58a1.2,1.2,0,0,1,0-2.4h.58a1.2,1.2,0,0,1,0,2.4Z" fill="#4da12e"/>
              </g>
              <g id="Grupo_20298" data-name="Grupo 20298">
                <path id="Trazado_19790" data-name="Trazado 19790" d="M18.99,61.32h-7.1a1.2,1.2,0,0,1,0-2.4h7.1a1.2,1.2,0,0,1,0,2.4Z" fill="#4da12e"/>
              </g>
              <g id="Grupo_20299" data-name="Grupo 20299">
                <path id="Trazado_19791" data-name="Trazado 19791" d="M31.05,61.32H18.53a1.2,1.2,0,1,1,0-2.4H31.05a1.2,1.2,0,1,1,0,2.4Z" fill="#96d200"/>
              </g>
              <g id="Grupo_20300" data-name="Grupo 20300">
                <path id="Trazado_19792" data-name="Trazado 19792" d="M35.47,55.21H11.89a1.2,1.2,0,1,1,0-2.4H35.47a1.2,1.2,0,0,1,0,2.4Z" fill="#96d200"/>
              </g>
              <g id="Grupo_20301" data-name="Grupo 20301">
                <path id="Trazado_19793" data-name="Trazado 19793" d="M53.11,55.21H34.75a1.2,1.2,0,1,1,0-2.4H53.11a1.2,1.2,0,1,1,0,2.4Z" fill="#4da12e"/>
              </g>
              <g id="Grupo_20302" data-name="Grupo 20302">
                <path id="Trazado_19794" data-name="Trazado 19794" d="M12.32,55.21h-.43a1.2,1.2,0,1,1,0-2.4h.43a1.2,1.2,0,1,1,0,2.4Z" fill="#4da12e"/>
              </g>
            </g>
          </g>
        </g>
      </g>
    </g>
    <g id="Grupo_12949" data-name="Grupo 12949">
      <g id="Grupo_11514" data-name="Grupo 11514">
        <g id="Grupo_15064" data-name="Grupo 15064">
          <path id="Trazado_12510" data-name="Trazado 12510" d="M37.206,19.053c-.7,1.32-1.72,3.13-5.46,3.57" fill="none" stroke="#95a6b1" stroke-linecap="round" stroke-linejoin="round" stroke-width="1.6"/>
          <path id="Trazado_12511" data-name="Trazado 12511" d="M26.736,18.243a3.64,3.64,0,1,1-6.62,3.03h0a3.64,3.64,0,1,1,6.62-3.03Z" fill="none" stroke="#19a500" stroke-miterlimit="10" stroke-width="1.6"/>
          <path id="Trazado_12512" data-name="Trazado 12512" d="M29.826,25.263a7.893,7.893,0,0,1-1.86-.87" fill="none" stroke="#95a6b1" stroke-linecap="round" stroke-linejoin="round" stroke-width="1.6"/>
          <path id="Trazado_12513" data-name="Trazado 12513" d="M25.676,13.4a53.96,53.96,0,0,1,4.64-7.21,2.37,2.37,0,0,1,3.3-.49,2.277,2.277,0,0,1,.49.49c2.34,3.14,6.03,8.54,6.03,11.52a7.919,7.919,0,0,1-7.92,7.92h0a7.984,7.984,0,0,1-2.38-.36" fill="none" stroke="#95a6b1" stroke-linecap="round" stroke-linejoin="round" stroke-width="1.6"/>
          <path id="Trazado_12514" data-name="Trazado 12514" d="M45.226,28.653l-3.48,18.49H23.256l-3.48-18.49m1.03,4.71c1.95,0,1.95,1.48,3.9,1.48s1.95-1.48,3.9-1.48,1.95,1.48,3.9,1.48,1.95-1.48,3.9-1.48,1.95,1.48,3.9,1.48,1.95-1.48,3.9-1.48" fill="none" stroke="#95a6b1" stroke-linecap="round" stroke-linejoin="round" stroke-width="1.6"/>
        </g>
      </g>
    </g>
    <rect id="Rectángulo_3799-2" data-name="Rectángulo 3799-2" width="65" height="65" fill="none"/>
  </g>
</svg>
