<svg xmlns="http://www.w3.org/2000/svg" width="150" height="84" viewBox="0 0 150 84">
  <g id="Grupo_13608" data-name="Grupo 13608" transform="translate(0 -0.006)">
    <rect id="Rectángulo_4603" data-name="Rectángulo 4603" width="150" height="84" transform="translate(0 0.006)" fill="none"/>
    <rect id="Rectángulo_4604" data-name="Rectángulo 4604" width="150" height="84" transform="translate(0 0.006)" fill="none"/>
    <g id="Grupo_13635" data-name="Grupo 13635">
      <path id="Trazado_11934" data-name="Trazado 11934" d="M106.968,37.638" fill="none" stroke="#fff" stroke-linecap="round" stroke-linejoin="round" stroke-width="2"/>
      <g id="Grupo_13629" data-name="Grupo 13629">
        <g id="Grupo_13628" data-name="Grupo 13628">
          <g id="Grupo_13627" data-name="Grupo 13627">
            <g id="Grupo_13626" data-name="Grupo 13626">
              <path id="Trazado_11935" data-name="Trazado 11935" d="M78.472,43.813v7.332H73.13a8.99,8.99,0,0,0-3.569-7.179l.016-.028a15.462,15.462,0,0,1-6.34-9.85H78.472v5.554H78.45a3.455,3.455,0,0,0-1.155-.195,2.609,2.609,0,0,0-2.846,2.277A2.61,2.61,0,0,0,77.295,44a3.455,3.455,0,0,0,1.155-.19Z" fill="none" stroke="#fff" stroke-linecap="round" stroke-linejoin="round" stroke-width="2"/>
              <path id="Trazado_11936" data-name="Trazado 11936" d="M78.472,51.145V43.813H78.45a3.455,3.455,0,0,1-1.155.19,2.61,2.61,0,0,1-2.846-2.279,2.609,2.609,0,0,1,2.846-2.277,3.455,3.455,0,0,1,1.155.195h.022V34.088h6.243a3.415,3.415,0,0,1-.19-1.149,2.334,2.334,0,1,1,4.555,0,3.417,3.417,0,0,1-.195,1.149h4.826a15.49,15.49,0,0,1-6.372,9.878,8.981,8.981,0,0,0-3.568,7.179v4.97a5.213,5.213,0,0,1-5.217,5.21h-.212a5.209,5.209,0,0,1-5.212-5.21v-4.97Z" fill="none" stroke="#fff" stroke-linecap="round" stroke-linejoin="round" stroke-width="2"/>
              <path id="Trazado_11937" data-name="Trazado 11937" d="M66.8,11.9a15.464,15.464,0,0,1,4.725-.734v7.485a3.46,3.46,0,0,1,1.155-.2,2.611,2.611,0,0,1,2.848,2.277,2.611,2.611,0,0,1-2.848,2.278,3.408,3.408,0,0,1-1.15-.194h0V29.5H56.289a15.1,15.1,0,0,1-.261-2.832,15.586,15.586,0,0,1,.087-1.654" fill="none" stroke="#fff" stroke-linecap="round" stroke-linejoin="round" stroke-width="2"/>
              <path id="Trazado_11938" data-name="Trazado 11938" d="M93.972,31.258a15.1,15.1,0,0,1-.261,2.83H88.885a3.417,3.417,0,0,0,.195-1.149,2.334,2.334,0,1,0-4.555,0,3.415,3.415,0,0,0,.19,1.149H78.472V27.407h.006a3.448,3.448,0,0,0,1.149.195,2.611,2.611,0,0,0,2.848-2.279,2.612,2.612,0,0,0-2.848-2.278,3.46,3.46,0,0,0-1.155.2V15.757A15.5,15.5,0,0,1,93.972,31.258Z" fill="none" stroke="#fff" stroke-linecap="round" stroke-linejoin="round" stroke-width="2"/>
            </g>
          </g>
          <line id="Línea_1934" data-name="Línea 1934" x2="10.641" transform="translate(73.13 51.145)" fill="none" stroke="#fff" stroke-linecap="round" stroke-linejoin="round" stroke-width="2"/>
          <line id="Línea_1935" data-name="Línea 1935" x2="8.863" transform="translate(74.04 55.289)" fill="none" stroke="#fff" stroke-linecap="round" stroke-linejoin="round" stroke-width="2"/>
        </g>
        <circle id="Elipse_2167" data-name="Elipse 2167" cx="5.056" cy="5.056" r="5.056" transform="translate(55.268 12.56)" fill="none" stroke="#ffda25" stroke-miterlimit="10" stroke-width="2"/>
      </g>
      <g id="Grupo_13632" data-name="Grupo 13632">
        <g id="Grupo_13630" data-name="Grupo 13630">
          <path id="Trazado_11939" data-name="Trazado 11939" d="M118.676,48.382l-10.051-5.711s-2.583-1.8-3.712.057c-1.33,2.184,1.485,3.484,1.485,3.484l11.707,6.682s1.313.6,1.219,1.8a1.591,1.591,0,0,1-1.16,1.418c-.172.086-3.094.817-3.094.817a2.084,2.084,0,0,0-1.513,2.716,2.139,2.139,0,0,0,2.759,1.367L127.79,58" fill="none" stroke="#fff" stroke-linecap="round" stroke-linejoin="round" stroke-width="2"/>
          <path id="Trazado_11940" data-name="Trazado 11940" d="M121.246,44.956,110.559,38.8s-1.645-1.318-.621-2.855,2.874-.682,3.187-.483,10.681,6.161,10.681,6.161" fill="none" stroke="#fff" stroke-linecap="round" stroke-linejoin="round" stroke-width="2"/>
          <path id="Trazado_11941" data-name="Trazado 11941" d="M108.279,42.456a16.465,16.465,0,0,1-2.027-1.413,2.014,2.014,0,0,1-.43-2.922c1.191-1.564,3.294-.359,3.294-.359l1.443,1.041" fill="none" stroke="#fff" stroke-linecap="round" stroke-linejoin="round" stroke-width="2"/>
          <path id="Trazado_11942" data-name="Trazado 11942" d="M114.434,36.171a2.352,2.352,0,0,1-.028-2.845c1.081-1.508,3.471,0,3.471,0l19.38,10.746" fill="none" stroke="#fff" stroke-linecap="round" stroke-linejoin="round" stroke-width="2"/>
          <rect id="Rectángulo_4605" data-name="Rectángulo 4605" width="16.58" height="4.105" transform="translate(127.277 57.463) rotate(-60)" fill="none" stroke="#fff" stroke-linecap="round" stroke-linejoin="round" stroke-width="2"/>
        </g>
        <g id="Grupo_13631" data-name="Grupo 13631">
          <path id="Trazado_11943" data-name="Trazado 11943" d="M31.324,28l10.051,5.71s2.583,1.8,3.712-.057c1.33-2.183-1.485-3.483-1.485-3.483L31.9,23.491s-1.313-.6-1.219-1.8a1.591,1.591,0,0,1,1.16-1.418c.172-.086,3.094-.816,3.094-.816a2.085,2.085,0,0,0,1.513-2.717,2.139,2.139,0,0,0-2.759-1.366L22.21,18.385" fill="none" stroke="#fff" stroke-linecap="round" stroke-linejoin="round" stroke-width="2"/>
          <path id="Trazado_11944" data-name="Trazado 11944" d="M28.754,31.429l10.687,6.153s1.645,1.318.621,2.854-2.874.683-3.187.484-10.681-6.161-10.681-6.161" fill="none" stroke="#fff" stroke-linecap="round" stroke-linejoin="round" stroke-width="2"/>
          <path id="Trazado_11945" data-name="Trazado 11945" d="M41.721,33.928a16.574,16.574,0,0,1,2.027,1.413,2.015,2.015,0,0,1,.43,2.923c-1.191,1.564-3.294.358-3.294.358l-1.443-1.04" fill="none" stroke="#fff" stroke-linecap="round" stroke-linejoin="round" stroke-width="2"/>
          <path id="Trazado_11946" data-name="Trazado 11946" d="M35.566,40.213a2.352,2.352,0,0,1,.028,2.845c-1.081,1.508-3.471,0-3.471,0L12.743,32.313" fill="none" stroke="#fff" stroke-linecap="round" stroke-linejoin="round" stroke-width="2"/>
          <rect id="Rectángulo_4606" data-name="Rectángulo 4606" width="16.58" height="4.105" transform="translate(22.723 18.921) rotate(120)" fill="none" stroke="#fff" stroke-linecap="round" stroke-linejoin="round" stroke-width="2"/>
        </g>
      </g>
      <g id="Grupo_13633" data-name="Grupo 13633">
        <line id="Línea_1936" data-name="Línea 1936" x1="4.638" y2="23.037" transform="translate(51.651 29.502)" fill="none" stroke="#fff" stroke-linecap="round" stroke-linejoin="round" stroke-width="2"/>
        <circle id="Elipse_2168" data-name="Elipse 2168" cx="3.004" cy="3.004" r="3.004" transform="translate(23.655 49.275)" fill="none" stroke="#fff" stroke-linecap="round" stroke-linejoin="round" stroke-width="2"/>
        <circle id="Elipse_2169" data-name="Elipse 2169" cx="3.958" cy="3.958" r="3.958" transform="translate(45.995 52.524)" fill="none" stroke="#fff" stroke-linecap="round" stroke-linejoin="round" stroke-width="2"/>
        <line id="Línea_1937" data-name="Línea 1937" x1="7.023" y1="14.28" transform="translate(40.415 39.146)" fill="none" stroke="#fff" stroke-linecap="round" stroke-linejoin="round" stroke-width="2"/>
        <line id="Línea_1938" data-name="Línea 1938" x2="16.528" y2="4.172" transform="translate(29.655 53.262)" fill="none" stroke="#fff" stroke-linecap="round" stroke-linejoin="round" stroke-width="2"/>
      </g>
      <g id="Grupo_13634" data-name="Grupo 13634">
        <line id="Línea_1939" data-name="Línea 1939" y1="5.677" x2="10.389" transform="translate(91.875 17.301)" fill="none" stroke="#fff" stroke-linecap="round" stroke-linejoin="round" stroke-width="2"/>
        <circle id="Elipse_2170" data-name="Elipse 2170" cx="3.004" cy="3.004" r="3.004" transform="translate(124.572 21.802)" fill="none" stroke="#fff" stroke-linecap="round" stroke-linejoin="round" stroke-width="2"/>
        <circle id="Elipse_2171" data-name="Elipse 2171" cx="3.958" cy="3.958" r="3.958" transform="translate(101.844 11.57)" fill="none" stroke="#fff" stroke-linecap="round" stroke-linejoin="round" stroke-width="2"/>
        <line id="Línea_1940" data-name="Línea 1940" x2="3.671" y2="15.484" transform="translate(107.574 19.067)" fill="none" stroke="#fff" stroke-linecap="round" stroke-linejoin="round" stroke-width="2"/>
        <line id="Línea_1941" data-name="Línea 1941" x1="15.186" y1="7.743" transform="translate(109.689 15.438)" fill="none" stroke="#fff" stroke-linecap="round" stroke-linejoin="round" stroke-width="2"/>
      </g>
    </g>
    <g id="Grupo_13637" data-name="Grupo 13637">
      <rect id="Rectángulo_4607" data-name="Rectángulo 4607" width="84" height="20.926" transform="translate(33 63.074)" fill="none"/>
      <line id="Línea_1942" data-name="Línea 1942" x2="29.477" transform="translate(49.239 70.264)" fill="none" stroke="#fff000" stroke-linecap="round" stroke-linejoin="round" stroke-width="3.135"/>
      <line id="Línea_1943" data-name="Línea 1943" x2="8.959" transform="translate(82.142 77.898)" fill="none" stroke="#ffe600" stroke-linecap="round" stroke-linejoin="round" stroke-width="3.135"/>
      <line id="Línea_1944" data-name="Línea 1944" x2="0.726" transform="translate(100.035 77.898)" fill="none" stroke="#ffe600" stroke-linecap="round" stroke-linejoin="round" stroke-width="3.135"/>
      <g id="Grupo_13636" data-name="Grupo 13636">
        <line id="Línea_1945" data-name="Línea 1945" x2="8.876" transform="translate(49.239 77.898)" fill="none" stroke="#ffda25" stroke-linecap="round" stroke-linejoin="round" stroke-width="3.135"/>
        <line id="Línea_1946" data-name="Línea 1946" x2="14.581" transform="translate(58.602 77.898)" fill="none" stroke="#ffe600" stroke-linecap="round" stroke-linejoin="round" stroke-width="3.135"/>
      </g>
      <line id="Línea_1947" data-name="Línea 1947" x2="5.217" transform="translate(58.602 77.898)" fill="none" stroke="#ffda25" stroke-linecap="round" stroke-linejoin="round" stroke-width="3.135" style="mix-blend-mode: multiply;isolation: isolate"/>
      <line id="Línea_1948" data-name="Línea 1948" x2="22.954" transform="translate(77.807 70.264)" fill="none" stroke="#ffda25" stroke-linecap="round" stroke-linejoin="round" stroke-width="3.135"/>
      <line id="Línea_1949" data-name="Línea 1949" x2="0.537" transform="translate(49.239 70.264)" fill="none" stroke="#ffda25" stroke-linecap="round" stroke-linejoin="round" stroke-width="3.135" style="mix-blend-mode: multiply;isolation: isolate"/>
      <line id="Línea_1950" data-name="Línea 1950" x1="6.115" transform="translate(77.807 70.264)" fill="none" stroke="#ffda25" stroke-linecap="round" stroke-linejoin="round" stroke-width="3.135" style="mix-blend-mode: multiply;isolation: isolate"/>
    </g>
  </g>
</svg>
