<svg id="Capa_1" data-name="Capa 1" xmlns="http://www.w3.org/2000/svg" viewBox="0 0 65 65"><defs><style>.cls-1{fill:none;}.cls-2{fill:#4da12e;}.cls-3{fill:#96d200;}.cls-4{fill:#00a800;}.cls-5{fill:#95a6b1;}</style></defs><title>dato</title><g id="Grupo_14998" data-name="Grupo 14998"><g id="Rectángulo_3799-2" data-name="Rectángulo 3799-2"><rect class="cls-1" width="65" height="65"/></g></g><rect class="cls-1" y="48.3" width="65" height="16.74"/><path class="cls-2" d="M45.4,61.3H38.2A1.2,1.2,0,0,1,37,60.1a1.3,1.3,0,0,1,1.2-1.2h7.2a1.3,1.3,0,0,1,1.2,1.2A1.2,1.2,0,0,1,45.4,61.3Z"/><path class="cls-2" d="M53.1,61.3h-.6a1.2,1.2,0,0,1-1.2-1.2,1.3,1.3,0,0,1,1.2-1.2h.6a1.2,1.2,0,0,1,1.2,1.2A1.2,1.2,0,0,1,53.1,61.3Z"/><path class="cls-2" d="M19,61.3H11.9a1.2,1.2,0,0,1-1.2-1.2,1.2,1.2,0,0,1,1.2-1.2H19a1.2,1.2,0,0,1,1.2,1.2A1.2,1.2,0,0,1,19,61.3Z"/><path class="cls-3" d="M31,61.3H18.5a1.2,1.2,0,0,1-1.2-1.2,1.3,1.3,0,0,1,1.2-1.2H31a1.2,1.2,0,0,1,1.2,1.2A1.2,1.2,0,0,1,31,61.3Z"/><path class="cls-3" d="M35.5,55.2H11.9a1.2,1.2,0,1,1,0-2.4H35.5a1.2,1.2,0,0,1,0,2.4Z"/><path class="cls-2" d="M53.1,55.2H34.7a1.2,1.2,0,0,1,0-2.4H53.1a1.2,1.2,0,0,1,0,2.4Z"/><path class="cls-2" d="M12.3,55.2h-.4a1.2,1.2,0,1,1,0-2.4h.4a1.2,1.2,0,0,1,0,2.4Z"/><g id="Trazado_5703" data-name="Trazado 5703"><path class="cls-4" d="M20,15.3A5.4,5.4,0,0,1,20,4.5h.1a5.3,5.3,0,0,1,5.3,5.3h0A5.4,5.4,0,0,1,20,15.3Zm.1-9.2a3.8,3.8,0,1,0,3.7,3.8h0A3.8,3.8,0,0,0,20.1,6.1Z"/></g><path class="cls-5" d="M36.1,48.5H24.9A7.9,7.9,0,0,1,17,40.6V18.1a.9.9,0,0,1,.8-.8.8.8,0,0,1,.8.8V40.6a6.3,6.3,0,0,0,6.3,6.3H48.8V7.8h-21A.9.9,0,0,1,27,7a.8.8,0,0,1,.8-.8H49.6a.8.8,0,0,1,.8.8V47.7a.9.9,0,0,1-.8.8Z"/><path class="cls-5" d="M43.5,34H23.9a.7.7,0,0,1-.8-.8.8.8,0,0,1,.8-.8H43.5a.8.8,0,0,1,.8.8A.7.7,0,0,1,43.5,34Z"/><path class="cls-5" d="M43.5,38.3H23.9a.8.8,0,0,1,0-1.6H43.5a.8.8,0,0,1,0,1.6Z"/><path class="cls-5" d="M36,42.6H23.7a.8.8,0,0,1-.8-.8.7.7,0,0,1,.8-.8H36a.8.8,0,0,1,.8.8A.9.9,0,0,1,36,42.6Z"/><path class="cls-5" d="M35.8,15.6a.7.7,0,0,1-.8-.8V13.3H33.5v1.5a.8.8,0,0,1-.8.8.7.7,0,0,1-.8-.8V12.7a1,1,0,0,1,1-1h2.6a1.1,1.1,0,0,1,1.1,1v2.1A.8.8,0,0,1,35.8,15.6Z"/><path class="cls-5" d="M38.6,28.1H29.9a.7.7,0,0,1-.8-.8V14.8a.8.8,0,0,1,.8-.8.9.9,0,0,1,.8.8V26.5h7.1V14.8a.8.8,0,0,1,.8-.8.9.9,0,0,1,.8.8V27.3A.8.8,0,0,1,38.6,28.1Z"/><path class="cls-5" d="M39.5,19.3H28.9a.8.8,0,0,1-.8-.8.9.9,0,0,1,.8-.8H39.5a.9.9,0,0,1,.8.8A.8.8,0,0,1,39.5,19.3Z"/><path class="cls-5" d="M39.5,24.2H28.9a.9.9,0,0,1-.8-.8.8.8,0,0,1,.8-.8H39.5a.8.8,0,0,1,.8.8A.9.9,0,0,1,39.5,24.2Z"/><path class="cls-5" d="M39.5,28.1H28.9a.8.8,0,0,1-.8-.8.9.9,0,0,1,.8-.8H39.5a.9.9,0,0,1,.8.8A.8.8,0,0,1,39.5,28.1Z"/><path class="cls-5" d="M39.5,15.6H28.9a.8.8,0,0,1-.8-.8.9.9,0,0,1,.8-.8H39.5a.9.9,0,0,1,.8.8A.8.8,0,0,1,39.5,15.6Z"/></svg>