<svg id="Capa_1" data-name="Capa 1" xmlns="http://www.w3.org/2000/svg" viewBox="0 0 65 65"><defs><style>.cls-1{fill:#95a6b1;}.cls-2{fill:#00a800;}.cls-3{fill:none;}.cls-4{fill:#4da12e;}.cls-5{fill:#96d200;}</style></defs><title>estacion_cupiagua</title><g id="Grupo_14998" data-name="Grupo 14998"><g id="Grupo_15005" data-name="Grupo 15005"><g id="Grupo_15004" data-name="Grupo 15004"><g id="Línea_2848" data-name="Línea 2848"><path class="cls-1" d="M58.5,50H7.1a.8.8,0,0,1-.8-.8.9.9,0,0,1,.8-.8H58.5a.8.8,0,0,1,.8.8A.7.7,0,0,1,58.5,50Z"/></g><g id="Trazado_12467" data-name="Trazado 12467"><path class="cls-1" d="M20.7,49.8a.7.7,0,0,1-.8-.8V12.4a2.4,2.4,0,0,0-2.3-2.3H13.9a2.4,2.4,0,0,0-2.3,2.3v2.2a.8.8,0,0,1-.8.8.9.9,0,0,1-.8-.8V12.4a4,4,0,0,1,3.9-3.9h3.7a3.6,3.6,0,0,1,2.7,1.2,3.6,3.6,0,0,1,1.2,2.7V49A.8.8,0,0,1,20.7,49.8Z"/></g><g id="Línea_2849" data-name="Línea 2849"><path class="cls-1" d="M10.8,50a.8.8,0,0,1-.8-.8v-19a.9.9,0,0,1,.8-.8.8.8,0,0,1,.8.8v19A.7.7,0,0,1,10.8,50Z"/></g><g id="Trazado_12468" data-name="Trazado 12468"><path class="cls-1" d="M54.8,50a.8.8,0,0,1-.8-.8V34.7a2.2,2.2,0,0,0-2.2-2.2H42.7a2.2,2.2,0,0,0-2.2,2.2V49.2a.9.9,0,0,1-.8.8.8.8,0,0,1-.8-.8V34.7a3.8,3.8,0,0,1,3.8-3.8h9.1a3.8,3.8,0,0,1,3.8,3.8V49.2A.8.8,0,0,1,54.8,50Z"/></g><g id="Trazado_12469" data-name="Trazado 12469"><path class="cls-1" d="M36,50a.8.8,0,0,1-.8-.8v-21A3.8,3.8,0,0,1,39,24.4h5.2A3.8,3.8,0,0,1,48,28.2v3.3a.8.8,0,0,1-.8.8.7.7,0,0,1-.8-.8V28.2A2.2,2.2,0,0,0,44.2,26H39a2.2,2.2,0,0,0-2.2,2.2v21A.9.9,0,0,1,36,50Z"/></g><g id="Trazado_12470" data-name="Trazado 12470"><path class="cls-1" d="M24.7,49.8a.7.7,0,0,1-.8-.8V18a1.9,1.9,0,0,0-1.8-1.8H20.7a.7.7,0,0,1-.8-.8.8.8,0,0,1,.8-.8h1.4A3.4,3.4,0,0,1,25.5,18V49A.8.8,0,0,1,24.7,49.8Z"/></g><g id="Trazado_12471" data-name="Trazado 12471"><path class="cls-1" d="M39.4,44.2H32.5a3.1,3.1,0,0,1-3.1-3.1V33.4a1.4,1.4,0,0,0-1.5-1.5h-7a.9.9,0,0,1-.8-.8.8.8,0,0,1,.8-.8h7A3.1,3.1,0,0,1,31,33.4v7.7a1.5,1.5,0,0,0,1.5,1.5h6.9a.7.7,0,0,1,.8.8A.8.8,0,0,1,39.4,44.2Z"/></g><g id="Trazado_12472" data-name="Trazado 12472"><path class="cls-1" d="M47.7,45.3a3.4,3.4,0,0,1-3.2-3.2,7.8,7.8,0,0,1,.5-1.8L46.9,36a1,1,0,0,1,.8-.5.8.8,0,0,1,.7.5l2.1,4.3h0A8.4,8.4,0,0,1,51,42a3.3,3.3,0,0,1-3.3,3.3Zm0-7.1L46.5,41a5.6,5.6,0,0,0-.4,1.2,1.7,1.7,0,0,0,1.6,1.5h0a1.7,1.7,0,0,0,1.7-1.6L49.1,41Z"/></g><g id="Línea_2850" data-name="Línea 2850"><path class="cls-1" d="M41.9,25.7a.9.9,0,0,1-.8-.8v-6a.8.8,0,0,1,1.6,0v6A.9.9,0,0,1,41.9,25.7Z"/></g><g id="Rectángulo_5120" data-name="Rectángulo 5120"><path class="cls-1" d="M49.4,19.7H29.2a.9.9,0,0,1-.8-.8V7.6a5.9,5.9,0,0,1,6-5.9H54.6a.8.8,0,0,1,.8.8V13.7A6,6,0,0,1,49.4,19.7ZM30,18.1H49.4a4.4,4.4,0,0,0,4.4-4.4V3.3H34.4A4.4,4.4,0,0,0,30,7.6Z"/></g><g id="Trazado_11848" data-name="Trazado 11848"><path class="cls-2" d="M10.8,27.3h0a5.1,5.1,0,0,1-3.5-1.5,4.7,4.7,0,0,1-1.5-3.5,5,5,0,0,1,5-5,4.9,4.9,0,0,1,5,4.9h0a4.7,4.7,0,0,1-1.5,3.5A5.1,5.1,0,0,1,10.8,27.3Zm0-8.4h0a3.4,3.4,0,0,0-3.4,3.4,3.7,3.7,0,0,0,1,2.4,3.5,3.5,0,0,0,2.4,1h0a3.5,3.5,0,0,0,2.4-1,3.7,3.7,0,0,0,1-2.4h0A3.4,3.4,0,0,0,10.8,18.9Z"/></g><path class="cls-1" d="M41.5,16.8h-.1a2.9,2.9,0,0,1-2.9-2.9V12.6a.8.8,0,0,1,.8-.8.9.9,0,0,1,.8.8v1.3a1.3,1.3,0,0,0,1.3,1.3h.1a1.3,1.3,0,0,0,1.4-1.3V12.6a.8.8,0,0,1,.8-.8.9.9,0,0,1,.8.8v1.3A2.9,2.9,0,0,1,41.5,16.8Z"/><path class="cls-1" d="M43.7,13.4a.7.7,0,0,1-.8-.8V5.4a.7.7,0,0,1,.8-.8.8.8,0,0,1,.8.8v7.2A.8.8,0,0,1,43.7,13.4Z"/><path class="cls-1" d="M43.7,14.5a.8.8,0,0,1-.8-.8V12.6a.8.8,0,0,1,.8-.8.9.9,0,0,1,.8.8v1.1A.9.9,0,0,1,43.7,14.5Z"/><path class="cls-1" d="M39.3,13.4a.7.7,0,0,1-.8-.8V5.4a.7.7,0,0,1,.8-.8.8.8,0,0,1,.8.8v7.2A.8.8,0,0,1,39.3,13.4Z"/><path class="cls-1" d="M39.3,14.5a.8.8,0,0,1-.8-.8V12.6a.8.8,0,0,1,.8-.8.9.9,0,0,1,.8.8v1.1A.9.9,0,0,1,39.3,14.5Z"/><path class="cls-1" d="M46.2,16.8a.9.9,0,0,1-.8-.8V8.4a.9.9,0,0,1,.8-.8.8.8,0,0,1,.8.8V16A.8.8,0,0,1,46.2,16.8Z"/><path class="cls-1" d="M48.5,11.6h-.1a2.9,2.9,0,0,1-3-2.9V7.5a2.9,2.9,0,0,1,3-2.9h.1a2.9,2.9,0,0,1,2.9,2.9V8.7A2.9,2.9,0,0,1,48.5,11.6Zm-.1-5.4A1.3,1.3,0,0,0,47,7.5V8.7A1.3,1.3,0,0,0,48.4,10h.1a1.3,1.3,0,0,0,1.3-1.3V7.5a1.3,1.3,0,0,0-1.3-1.3Z"/><g id="Trazado_12473" data-name="Trazado 12473"><path class="cls-1" d="M34.7,16.9h-.1a3,3,0,0,1-2.9-3V7.6a3,3,0,0,1,2.9-3h.1a2.9,2.9,0,0,1,3,2.9.8.8,0,0,1-.8.8h0a.7.7,0,0,1-.8-.8,1.3,1.3,0,0,0-1.4-1.3h-.1a1.4,1.4,0,0,0-1.3,1.4v6.3a1.3,1.3,0,0,0,1.3,1.4h.1a1.4,1.4,0,0,0,1.4-1.4.8.8,0,0,1,.8-.8h0a.9.9,0,0,1,.8.8A3,3,0,0,1,34.7,16.9Z"/></g></g></g><g id="Rectángulo_3799-2" data-name="Rectángulo 3799-2"><rect class="cls-3" width="65" height="65"/></g></g><rect class="cls-3" y="48.3" width="65" height="16.74"/><path class="cls-4" d="M45.4,61.3H38.2A1.2,1.2,0,0,1,37,60.1a1.3,1.3,0,0,1,1.2-1.2h7.2a1.3,1.3,0,0,1,1.2,1.2A1.2,1.2,0,0,1,45.4,61.3Z"/><path class="cls-4" d="M53.1,61.3h-.6a1.2,1.2,0,0,1-1.2-1.2,1.3,1.3,0,0,1,1.2-1.2h.6a1.2,1.2,0,0,1,1.2,1.2A1.2,1.2,0,0,1,53.1,61.3Z"/><path class="cls-4" d="M19,61.3H11.9a1.2,1.2,0,0,1-1.2-1.2,1.2,1.2,0,0,1,1.2-1.2H19a1.2,1.2,0,0,1,1.2,1.2A1.2,1.2,0,0,1,19,61.3Z"/><path class="cls-5" d="M31,61.3H18.5a1.2,1.2,0,0,1-1.2-1.2,1.3,1.3,0,0,1,1.2-1.2H31a1.2,1.2,0,0,1,1.2,1.2A1.2,1.2,0,0,1,31,61.3Z"/><path class="cls-5" d="M35.5,55.2H11.9a1.2,1.2,0,1,1,0-2.4H35.5a1.2,1.2,0,0,1,0,2.4Z"/><path class="cls-4" d="M53.1,55.2H34.7a1.2,1.2,0,0,1,0-2.4H53.1a1.2,1.2,0,0,1,0,2.4Z"/><path class="cls-4" d="M12.3,55.2h-.4a1.2,1.2,0,1,1,0-2.4h.4a1.2,1.2,0,0,1,0,2.4Z"/></svg>