<svg id="Capa_1" data-name="Capa 1" xmlns="http://www.w3.org/2000/svg" viewBox="0 0 47 47"><defs><style>.cls-1{fill:none;}.cls-2{fill:#fff;}</style></defs><title>icono_menu-distancia_linea</title><rect class="cls-1" width="47" height="47"/><g id="Grupo_12874" data-name="Grupo 12874"><g id="Grupo_12785" data-name="Grupo 12785"><g id="Línea_2124" data-name="Línea 2124"><path class="cls-2" d="M7.2,31.4H3a.8.8,0,0,1-.7-.8.7.7,0,0,1,.7-.7H7.2a.8.8,0,0,1,.8.7A.9.9,0,0,1,7.2,31.4Z"/></g><g id="Línea_2125" data-name="Línea 2125"><path class="cls-2" d="M43.9,31.4H39.5a.8.8,0,0,1-.8-.8.7.7,0,0,1,.8-.7h4.4a.7.7,0,0,1,.8.7A.8.8,0,0,1,43.9,31.4Z"/></g><g id="Línea_2126" data-name="Línea 2126"><path class="cls-2" d="M34.1,31.4H12.5a.8.8,0,0,1-.7-.8.7.7,0,0,1,.7-.7H34.1a.7.7,0,0,1,.8.7A.8.8,0,0,1,34.1,31.4Z"/></g><g id="Línea_2127" data-name="Línea 2127"><path class="cls-2" d="M7.2,17.5H3a.7.7,0,0,1-.7-.7A.8.8,0,0,1,3,16H7.2a.9.9,0,0,1,.8.8A.8.8,0,0,1,7.2,17.5Z"/></g><g id="Línea_2128" data-name="Línea 2128"><path class="cls-2" d="M43.9,17.5H39.5a.7.7,0,0,1-.8-.7.8.8,0,0,1,.8-.8h4.4a.8.8,0,0,1,.8.8A.7.7,0,0,1,43.9,17.5Z"/></g><g id="Línea_2129" data-name="Línea 2129"><path class="cls-2" d="M34.1,17.5H24.8a.7.7,0,0,1-.7-.7.8.8,0,0,1,.7-.8h9.3a.8.8,0,0,1,.8.8A.7.7,0,0,1,34.1,17.5Z"/></g></g><g id="Rectángulo_4522" data-name="Rectángulo 4522"><path class="cls-2" d="M12.5,34.5H7.2a.7.7,0,0,1-.7-.7V13.6a.7.7,0,0,1,.7-.7h5.3a.8.8,0,0,1,.8.7V33.8A.8.8,0,0,1,12.5,34.5ZM8,33h3.8V14.4H8Z"/></g><g id="Rectángulo_4523" data-name="Rectángulo 4523"><path class="cls-2" d="M39.5,34.5H34.1a.7.7,0,0,1-.7-.7V13.6a.7.7,0,0,1,.7-.7h5.4a.7.7,0,0,1,.7.7V33.8A.7.7,0,0,1,39.5,34.5ZM34.9,33h3.8V14.4H34.9Z"/></g><g id="Grupo_12788" data-name="Grupo 12788"><g id="Línea_2130" data-name="Línea 2130"><path class="cls-2" d="M28.8,24.4H19.5a.7.7,0,0,1-.7-.7.8.8,0,0,1,.7-.8h9.3a.9.9,0,0,1,.8.8A.8.8,0,0,1,28.8,24.4Z"/></g><g id="Trazado_11511" data-name="Trazado 11511"><path class="cls-2" d="M25.4,27.9l-.5-.2a.8.8,0,0,1,0-1.1l2.9-2.9-2.9-2.9a.8.8,0,0,1,0-1.1.7.7,0,0,1,1,0l3.5,3.5a.7.7,0,0,1,0,1l-3.5,3.5Z"/></g></g><g id="Elipse_2116" data-name="Elipse 2116"><path class="cls-2" d="M18.7,20.3a3.8,3.8,0,0,1-3.9-3.9,3.9,3.9,0,0,1,7.8,0A3.8,3.8,0,0,1,18.7,20.3Zm0-6.3a2.4,2.4,0,1,0,2.4,2.4A2.4,2.4,0,0,0,18.7,14Z"/></g></g></svg>