<?xml version="1.0" encoding="utf-8"?>
<!-- Generator: Adobe Illustrator 24.0.2, SVG Export Plug-In . SVG Version: 6.00 Build 0)  -->
<svg version="1.1" xmlns="http://www.w3.org/2000/svg" xmlns:xlink="http://www.w3.org/1999/xlink" x="0px" y="0px"
	 viewBox="0 0 121.3 65" style="enable-background:new 0 0 121.3 65;" xml:space="preserve">
<style type="text/css">
	.st0{display:none;}
	.st1{display:inline;fill:#98A6B0;}
	.st2{fill:none;}
	.st3{fill:#4C9F2E;}
	.st4{fill:#94D040;}
	.st5{fill:none;stroke:#00A800;stroke-width:1.5;stroke-linecap:round;stroke-linejoin:round;stroke-miterlimit:10;}
	.st6{fill:none;stroke:#95A6B1;stroke-width:1.5;stroke-linecap:round;stroke-linejoin:round;}
	.st7{fill:none;stroke:#00A800;stroke-width:1.8;stroke-linecap:round;stroke-linejoin:round;stroke-miterlimit:10;}
	.st8{fill:none;stroke:#95A6B1;stroke-width:1.8;stroke-linecap:round;stroke-linejoin:round;}
	.st9{fill:none;stroke:#FFFFFF;stroke-width:1.5;stroke-linecap:round;stroke-linejoin:round;}
</style>
<g id="BASE" class="st0">
</g>
<g id="Capa_1">
	<g>
		<g>
			<g>
				<g>
					<rect x="28.15" y="48.26" class="st2" width="65" height="16.74"/>
				</g>
				<g>
					<g>
						<path class="st3" d="M73.53,61.32h-7.17c-0.66,0-1.2-0.54-1.2-1.2s0.54-1.2,1.2-1.2h7.17c0.66,0,1.2,0.54,1.2,1.2
							S74.19,61.32,73.53,61.32z"/>
					</g>
					<g>
						<path class="st3" d="M81.26,61.32h-0.58c-0.66,0-1.2-0.54-1.2-1.2s0.54-1.2,1.2-1.2h0.58c0.66,0,1.2,0.54,1.2,1.2
							S81.92,61.32,81.26,61.32z"/>
					</g>
					<g>
						<path class="st3" d="M47.14,61.32h-7.1c-0.66,0-1.2-0.54-1.2-1.2s0.54-1.2,1.2-1.2h7.1c0.66,0,1.2,0.54,1.2,1.2
							S47.8,61.32,47.14,61.32z"/>
					</g>
					<g>
						<path class="st4" d="M59.2,61.32H46.68c-0.66,0-1.2-0.54-1.2-1.2s0.54-1.2,1.2-1.2H59.2c0.66,0,1.2,0.54,1.2,1.2
							S59.86,61.32,59.2,61.32z"/>
					</g>
					<g>
						<path class="st4" d="M63.62,55.21H40.04c-0.66,0-1.2-0.54-1.2-1.2s0.54-1.2,1.2-1.2h23.58c0.66,0,1.2,0.54,1.2,1.2
							S64.29,55.21,63.62,55.21z"/>
					</g>
					<g>
						<path class="st3" d="M81.26,55.21H62.9c-0.66,0-1.2-0.54-1.2-1.2s0.54-1.2,1.2-1.2h18.36c0.66,0,1.2,0.54,1.2,1.2
							S81.92,55.21,81.26,55.21z"/>
					</g>
					<g>
						<path class="st3" d="M40.47,55.21h-0.43c-0.66,0-1.2-0.54-1.2-1.2s0.54-1.2,1.2-1.2h0.43c0.66,0,1.2,0.54,1.2,1.2
							S41.13,55.21,40.47,55.21z"/>
					</g>
				</g>
			</g>
		</g>
		<rect class="st2" width="121.3" height="65"/>
	</g>
	<g>
		<path class="st7" d="M52.66,17.49c0,1.27-0.49,2.43-1.29,3.29c-0.88,0.95-2.15,1.55-3.55,1.55c-2.67,0-4.84-2.17-4.84-4.84
			s2.17-4.84,4.84-4.84S52.66,14.82,52.66,17.49z"/>
		<path class="st8" d="M94.1,44.89c2.77-1.18,5.68-4.58,6.51-6.45l4.93-9.28c0.57-1.07-0.31-2.34-1.51-2.19l-10.09,1.27l-10.91,1.37
			l-4.52,5.75c-0.28,0.36-0.72,0.57-1.18,0.57H57.3c-0.47,0-0.92-0.22-1.2-0.6l-4.28-5.72H18.51c-0.83,0-1.5,0.67-1.5,1.5v5.18
			c0,0.83,0.67,1.5,1.5,1.5h5.43l0.17,0.33c0.95,1.82,1.16,3.68-0.12,5.29"/>
		<polyline class="st8" points="39.94,16.08 37.17,16.08 37.17,21.9 26.3,21.9 26.3,29.61 37.17,29.61 39.54,29.61 48.67,29.61 
			48.67,25.58 		"/>
		<path class="st8" d="M32.61,8.01h-3.77c-0.56,0-1.01,0.46-1,1.02l0.19,12.88h5.67L33.61,9C33.6,8.45,33.16,8.01,32.61,8.01z"/>
		<line class="st8" x1="83.03" y1="29.61" x2="48.67" y2="29.61"/>
		<line class="st8" x1="42.87" y1="22.66" x2="42.87" y2="24.94"/>
		<path class="st8" d="M108.56,46.31c-4.79,0-4.79-2.84-9.58-2.84c-4.79,0-4.79,2.84-9.58,2.84c-4.79,0-4.79-2.84-9.58-2.84
			c-4.79,0-4.79,2.84-9.58,2.84c-4.79,0-4.79-2.84-9.58-2.84c-4.79,0-4.79,2.84-9.58,2.84c-4.79,0-4.79-2.84-9.58-2.84
			c-4.79,0-4.79,2.84-9.58,2.84c-4.79,0-4.79-2.84-9.59-2.84s-4.79,2.84-9.59,2.84"/>
	</g>
	<g>
		<polyline class="st8" points="58.74,29.03 58.74,24.86 77.1,24.86 77.1,29.02 		"/>
		<line class="st8" x1="64.89" y1="24.86" x2="64.89" y2="29.03"/>
		<line class="st8" x1="71.04" y1="24.86" x2="71.04" y2="29.03"/>
		<polyline class="st8" points="77.1,29.03 77.1,24.86 95.45,24.86 95.45,28.02 		"/>
		<line class="st8" x1="83.25" y1="24.86" x2="83.25" y2="29.03"/>
		<line class="st8" x1="89.4" y1="24.86" x2="89.4" y2="28.03"/>
	</g>
</g>
</svg>
