<?xml version="1.0" encoding="utf-8"?>
<!-- Generator: Adobe Illustrator 24.0.2, SVG Export Plug-In . SVG Version: 6.00 Build 0)  -->
<svg version="1.1" xmlns="http://www.w3.org/2000/svg" xmlns:xlink="http://www.w3.org/1999/xlink" x="0px" y="0px"
	 viewBox="0 0 60 60" style="enable-background:new 0 0 60 60;" xml:space="preserve">
<style type="text/css">
	.st0{fill:#19A500;}
	.st1{fill:none;}
	.st2{fill:#FFFFFF;}
	.st3{fill:#EFEF00;}
</style>
<g id="Capa_2">
</g>
<g id="Capa_1">
	<g>
		<g>
			<g>
				<g id="Rectángulo_3799_53_">
					<path class="st0" d="M30,0L30,0c16.57,0,30,13.43,30,30v0c0,16.57-13.43,30-30,30h0C13.43,60,0,46.57,0,30v0
						C0,13.43,13.43,0,30,0z"/>
				</g>
			</g>
		</g>
		<g>
			<g>
				<g>
					<g>
						<g id="Rectángulo_3799_9_">
							<rect class="st1" width="60" height="60"/>
						</g>
					</g>
				</g>
			</g>
		</g>
		<g>
			<g>
				<g>
					<path class="st2" d="M48.96,43.11c-0.31,0-0.56-0.25-0.56-0.56v-6.79c0-0.31,0.25-0.56,0.56-0.56s0.56,0.25,0.56,0.56v6.79
						C49.52,42.86,49.27,43.11,48.96,43.11z"/>
				</g>
				<g>
					<g>
						<g>
							<path class="st2" d="M25.36,29.96h-10.5c-2.18,0-3.95-1.77-3.95-3.95c0-1.88,1.31-3.45,3.07-3.85
								c-0.46-0.59-0.73-1.33-0.73-2.11v-0.99c0-1.59,1.07-2.93,2.56-3.32c0-0.04,0-0.09,0-0.13c0-2.37,1.93-4.3,4.3-4.3
								s4.3,1.93,4.3,4.3c0,0.04,0,0.09,0,0.13c1.5,0.39,2.56,1.74,2.56,3.32v0.99c0,0.78-0.26,1.51-0.73,2.11
								c1.75,0.4,3.07,1.98,3.07,3.85C29.31,28.18,27.54,29.96,25.36,29.96z M14.86,23.17c-1.56,0-2.83,1.27-2.83,2.83
								s1.27,2.83,2.83,2.83h10.5c1.56,0,2.83-1.27,2.83-2.83s-1.27-2.83-2.83-2.83h-0.54c-0.26,0-0.48-0.18-0.54-0.43
								c-0.06-0.25,0.06-0.51,0.29-0.63c0.79-0.41,1.28-1.2,1.28-2.07v-0.99c0-1.2-0.91-2.19-2.11-2.31
								c-0.15-0.02-0.29-0.09-0.39-0.22s-0.13-0.28-0.11-0.43c0.03-0.16,0.04-0.33,0.04-0.5c0-1.75-1.43-3.18-3.18-3.18
								s-3.18,1.43-3.18,3.18c0,0.17,0.02,0.34,0.04,0.5c0.02,0.15-0.02,0.31-0.11,0.43s-0.23,0.2-0.39,0.22
								c-1.2,0.12-2.11,1.11-2.11,2.31v0.99c0,0.87,0.49,1.66,1.28,2.07c0.23,0.12,0.35,0.38,0.29,0.63
								c-0.06,0.25-0.29,0.43-0.54,0.43H14.86z"/>
						</g>
						<g>
							<path class="st2" d="M20.1,42.91c-0.31,0-0.56-0.25-0.56-0.56V29.41c0-0.31,0.25-0.56,0.56-0.56s0.56,0.25,0.56,0.56v12.94
								C20.66,42.66,20.41,42.91,20.1,42.91z"/>
						</g>
						<g>
							<path class="st2" d="M14.88,42.91c-0.31,0-0.56-0.25-0.56-0.56V29.41c0-0.31,0.25-0.56,0.56-0.56s0.56,0.25,0.56,0.56v12.94
								C15.44,42.66,15.19,42.91,14.88,42.91z"/>
						</g>
						<g>
							<path class="st2" d="M11.65,27.75h-1.2c-2.18,0-3.95-1.77-3.95-3.95c0-1.88,1.31-3.45,3.07-3.85
								c-0.46-0.59-0.73-1.33-0.73-2.11v-0.99c0-1.59,1.07-2.93,2.56-3.32c0-0.04,0-0.09,0-0.13c0-2.37,1.93-4.3,4.3-4.3
								c1.73,0,3.28,1.03,3.96,2.62c0.12,0.28-0.01,0.61-0.3,0.73c-0.28,0.12-0.61-0.01-0.73-0.3c-0.5-1.18-1.65-1.94-2.93-1.94
								c-1.75,0-3.18,1.43-3.18,3.18c0,0.17,0.02,0.34,0.04,0.5c0.02,0.15-0.02,0.31-0.11,0.43s-0.23,0.2-0.39,0.22
								c-1.2,0.12-2.11,1.11-2.11,2.31v0.99c0,0.87,0.49,1.66,1.28,2.07c0.23,0.12,0.35,0.38,0.29,0.63
								c-0.06,0.25-0.29,0.43-0.54,0.43h-0.54c-1.56,0-2.83,1.27-2.83,2.83s1.27,2.83,2.83,2.83h1.2c0.31,0,0.56,0.25,0.56,0.56
								S11.96,27.75,11.65,27.75z"/>
						</g>
						<g>
							<g>
								<path class="st2" d="M42.61,43.17c-0.31,0-0.56-0.25-0.56-0.56V15.77c0-0.31,0.25-0.56,0.56-0.56s0.56,0.25,0.56,0.56v26.84
									C43.17,42.92,42.92,43.17,42.61,43.17z"/>
							</g>
							<g>
								<path class="st2" d="M42.62,25.96c-4.32,0-7.84-3.52-7.84-7.84s3.52-7.84,7.84-7.84s7.84,3.52,7.84,7.84
									S46.95,25.96,42.62,25.96z M42.62,11.41c-3.71,0-6.72,3.01-6.72,6.72s3.01,6.72,6.72,6.72c3.7,0,6.72-3.01,6.72-6.72
									S46.33,11.41,42.62,11.41z"/>
							</g>
							<g>
								<path class="st2" d="M42.84,19.32c-0.14,0-0.29-0.05-0.4-0.16c-0.22-0.22-0.22-0.57,0-0.79l2.72-2.72
									c0.22-0.22,0.57-0.22,0.79,0c0.22,0.22,0.22,0.57,0,0.79l-2.72,2.72C43.12,19.27,42.98,19.32,42.84,19.32z"/>
							</g>
							<g>
								<path class="st2" d="M42.54,23.4c-0.11,0-0.22-0.03-0.32-0.1L38.87,21c-0.25-0.18-0.32-0.52-0.14-0.78
									c0.17-0.25,0.52-0.32,0.78-0.14l3.35,2.3c0.25,0.18,0.32,0.52,0.14,0.78C42.89,23.32,42.72,23.4,42.54,23.4z"/>
							</g>
						</g>
						<g>
							<path class="st2" d="M52.81,43.33H7.34c-0.32,0-0.58-0.26-0.58-0.58s0.26-0.58,0.58-0.58h45.47c0.32,0,0.58,0.26,0.58,0.58
								S53.13,43.33,52.81,43.33z"/>
						</g>
						<g>
							<path class="st2" d="M31.21,29.96h-6.5c-0.31,0-0.56-0.25-0.56-0.56s0.25-0.56,0.56-0.56h6.5c1.56,0,2.83-1.27,2.83-2.83
								s-1.27-2.83-2.83-2.83h-0.54c-0.26,0-0.48-0.18-0.54-0.43c-0.06-0.25,0.06-0.51,0.29-0.63c0.79-0.41,1.28-1.2,1.28-2.07
								v-0.99c0-1.2-0.91-2.19-2.11-2.31c-0.15-0.02-0.29-0.09-0.39-0.22s-0.13-0.28-0.11-0.43c0.03-0.16,0.04-0.33,0.04-0.5
								c0-1.75-1.43-3.18-3.18-3.18c-0.85,0-1.65,0.33-2.25,0.93c-0.22,0.22-0.57,0.22-0.79,0s-0.22-0.57,0-0.79
								c0.81-0.81,1.89-1.26,3.04-1.26c2.37,0,4.3,1.93,4.3,4.3c0,0.04,0,0.09,0,0.13c1.5,0.39,2.56,1.74,2.56,3.32v0.99
								c0,0.78-0.26,1.51-0.73,2.11c1.75,0.4,3.07,1.98,3.07,3.85C35.16,28.18,33.39,29.96,31.21,29.96z"/>
						</g>
						<g>
							<path class="st2" d="M47.81,48.93H12.34c-0.32,0-0.58-0.26-0.58-0.58s0.26-0.58,0.58-0.58h35.47c0.32,0,0.58,0.26,0.58,0.58
								S48.13,48.93,47.81,48.93z"/>
						</g>
					</g>
					<g>
						<g>
							<g>
								<path class="st3" d="M48.78,35.99c-0.62,0-1.24-0.13-1.83-0.39c-1.09-0.49-1.92-1.37-2.34-2.48
									c-0.42-1.11-0.39-2.32,0.1-3.41c1.01-2.24,3.65-3.25,5.89-2.24c1.09,0.49,1.92,1.37,2.34,2.48c0.42,1.11,0.39,2.32-0.1,3.41
									l0,0c-0.49,1.09-1.37,1.92-2.48,2.34C49.85,35.89,49.31,35.99,48.78,35.99z M48.79,28.27c-1.24,0-2.43,0.72-2.98,1.92
									c-0.36,0.79-0.38,1.68-0.07,2.49c0.31,0.81,0.92,1.46,1.71,1.81c0.79,0.36,1.68,0.38,2.49,0.07
									c0.81-0.31,1.46-0.92,1.81-1.71l0,0c0.36-0.79,0.38-1.68,0.07-2.49c-0.31-0.81-0.92-1.46-1.71-1.81
									C49.68,28.36,49.23,28.27,48.79,28.27z"/>
							</g>
						</g>
					</g>
				</g>
			</g>
			<g>
				<path class="st2" d="M40.46,36.75c-0.1,0-0.19-0.03-0.28-0.08l-6.51-3.82l-6.55,3.71c-0.27,0.15-0.61,0.06-0.76-0.21
					c-0.15-0.27-0.06-0.61,0.21-0.76l6.83-3.86c0.17-0.1,0.39-0.1,0.56,0l6.79,3.99c0.27,0.16,0.36,0.5,0.2,0.77
					C40.84,36.65,40.66,36.75,40.46,36.75z"/>
			</g>
			<g>
				<path class="st2" d="M28.6,42.96c-0.31,0-0.56-0.25-0.56-0.56v-7c0-0.31,0.25-0.56,0.56-0.56s0.56,0.25,0.56,0.56v7
					C29.15,42.71,28.9,42.96,28.6,42.96z"/>
			</g>
			<g>
				<path class="st2" d="M38.59,43.1c-0.31,0-0.56-0.25-0.56-0.56v-7.26c0-0.31,0.25-0.56,0.56-0.56s0.56,0.25,0.56,0.56v7.26
					C39.15,42.85,38.9,43.1,38.59,43.1z"/>
			</g>
			<g>
				<path class="st2" d="M24.85,42.81c-0.31,0-0.56-0.25-0.56-0.56V29.82c0-0.31,0.25-0.56,0.56-0.56s0.56,0.25,0.56,0.56v12.43
					C25.41,42.56,25.16,42.81,24.85,42.81z"/>
			</g>
		</g>
	</g>
</g>
</svg>
