<?xml version="1.0" encoding="utf-8"?>
<!-- Generator: Adobe Illustrator 24.0.2, SVG Export Plug-In . SVG Version: 6.00 Build 0)  -->
<svg version="1.1" xmlns="http://www.w3.org/2000/svg" xmlns:xlink="http://www.w3.org/1999/xlink" x="0px" y="0px"
	 viewBox="0 0 60 60" style="enable-background:new 0 0 60 60;" xml:space="preserve">
<style type="text/css">
	.st0{fill:#19A500;}
	.st1{fill:none;}
	.st2{fill:#FFFFFF;}
	.st3{fill:#EFEF00;}
</style>
<g id="Capa_2">
	<g>
		<g>
			<g id="Rectángulo_3799_17_">
				<path class="st0" d="M30,0L30,0c16.57,0,30,13.43,30,30v0c0,16.57-13.43,30-30,30h0C13.43,60,0,46.57,0,30v0
					C0,13.43,13.43,0,30,0z"/>
			</g>
		</g>
	</g>
</g>
<g id="Capa_1">
	<g>
		<g>
			<g id="Rectángulo_3799_25_">
				<rect class="st1" width="60" height="60"/>
			</g>
		</g>
	</g>
	<g>
		<g>
			<path class="st2" d="M19.37,44.9c-0.04,0-0.08,0-0.11-0.01l-10.3-2.12c-0.26-0.05-0.45-0.28-0.45-0.55V15.21
				c0-0.17,0.08-0.33,0.21-0.44c0.13-0.11,0.31-0.15,0.47-0.11L19.45,17l1.38-0.45c0.3-0.1,0.61,0.07,0.71,0.36
				c0.09,0.29-0.07,0.61-0.36,0.71l-1.52,0.49c-0.1,0.03-0.2,0.04-0.3,0.01l-9.72-2.22v25.86l9.74,2l9.78-2.1
				c0.08-0.01,0.15-0.02,0.23,0l9.38,1.89l3.11-0.67c0.3-0.06,0.6,0.13,0.66,0.43c0.06,0.3-0.13,0.6-0.43,0.66l-3.22,0.69
				c-0.07,0.02-0.15,0.02-0.23,0l-9.38-1.89l-9.78,2.1C19.45,44.89,19.41,44.9,19.37,44.9z"/>
		</g>
		<g>
			<path class="st2" d="M49.35,35.74C49.34,35.74,49.34,35.74,49.35,35.74c-0.31,0-0.56-0.26-0.56-0.56l0.21-19.22l-9.91,2.27
				c-0.14,0.03-0.28,0.01-0.4-0.06l-1.23-0.71c-0.27-0.15-0.36-0.5-0.21-0.76c0.15-0.27,0.5-0.36,0.76-0.21l1.04,0.6l10.39-2.38
				c0.17-0.04,0.34,0,0.48,0.11c0.13,0.11,0.21,0.27,0.21,0.44L49.9,35.19C49.9,35.5,49.65,35.74,49.35,35.74z"/>
		</g>
		<g>
			<g>
				<path class="st2" d="M29.12,31.45c0,0-0.01,0-0.01,0c-0.18,0-0.35-0.1-0.45-0.25c-1.34-2.04-2.6-4.1-3.55-5.68
					c-0.93-1.54-1.96-3.4-2.51-5.47c-0.48-1.82-0.49-4.46,0.92-6.41c1.27-1.75,3.58-2.79,6.2-2.79c2.51,0,4.91,1.48,5.97,3.68
					c0.81,1.68,0.86,3.81,0.14,6c-0.2,0.62-0.47,1.26-0.81,1.95c-0.49,1-1.07,1.96-1.64,2.89l-0.21,0.35
					c-1.06,1.75-2.23,3.64-3.6,5.51C29.47,31.36,29.3,31.45,29.12,31.45z M29.72,11.96c-2.22,0-4.25,0.89-5.29,2.33
					c-1.18,1.64-1.16,3.9-0.75,5.47c0.51,1.94,1.49,3.71,2.38,5.18c0.84,1.39,1.92,3.16,3.08,4.96c1.14-1.62,2.15-3.24,3.07-4.77
					l0.21-0.35c0.55-0.91,1.12-1.85,1.59-2.8c0,0,0,0,0,0c0.32-0.64,0.56-1.23,0.75-1.8c0.63-1.91,0.59-3.74-0.09-5.16
					C33.82,13.21,31.78,11.96,29.72,11.96z"/>
			</g>
			<g>
				<g>
					<path class="st2" d="M29.35,20.7c-0.46,0-0.91-0.1-1.34-0.29c-0.8-0.36-1.41-1.01-1.72-1.83c-0.31-0.82-0.29-1.71,0.07-2.51
						c0.74-1.65,2.69-2.39,4.34-1.65c1.65,0.74,2.39,2.68,1.65,4.33l0,0c-0.36,0.8-1.01,1.41-1.83,1.72
						C30.14,20.63,29.74,20.7,29.35,20.7z M29.35,15.26c-0.83,0-1.62,0.47-1.98,1.28c-0.24,0.53-0.25,1.11-0.05,1.65
						c0.21,0.54,0.61,0.97,1.13,1.2c0.53,0.24,1.11,0.25,1.65,0.05c0.54-0.21,0.97-0.61,1.2-1.13l0,0c0.49-1.09,0-2.37-1.09-2.86
						C29.95,15.32,29.65,15.26,29.35,15.26z M31.83,18.53L31.83,18.53L31.83,18.53z"/>
				</g>
			</g>
		</g>
		<g>
			<path class="st2" d="M38.99,27.2c-0.04,0-0.08,0-0.12-0.01l-4.3-0.97c-0.3-0.07-0.49-0.37-0.42-0.67s0.37-0.49,0.67-0.42
				l4.14,0.93l7.59-2.57c0.29-0.1,0.61,0.06,0.71,0.35c0.1,0.29-0.06,0.61-0.35,0.71l-7.74,2.62C39.11,27.19,39.05,27.2,38.99,27.2z
				"/>
		</g>
		<g>
			<path class="st2" d="M19.52,28.31c-0.08,0-0.16-0.02-0.23-0.05l-7.46-3.31c-0.28-0.12-0.41-0.46-0.28-0.74
				c0.13-0.28,0.46-0.41,0.74-0.28l7.26,3.23l4.86-1.67c0.29-0.1,0.61,0.06,0.71,0.35c0.1,0.29-0.06,0.61-0.35,0.71l-5.07,1.74
				C19.64,28.3,19.58,28.31,19.52,28.31z"/>
		</g>
		<g>
			<path class="st2" d="M19.52,37.56c-0.08,0-0.16-0.02-0.23-0.05l-7.46-3.32c-0.28-0.12-0.41-0.46-0.28-0.74s0.46-0.41,0.74-0.28
				l7.26,3.23L29,33.16c0.1-0.03,0.2-0.04,0.3-0.02l9.65,2.17l7.59-2.57c0.29-0.1,0.61,0.06,0.71,0.35c0.1,0.29-0.06,0.61-0.35,0.71
				l-7.74,2.62c-0.1,0.03-0.2,0.04-0.3,0.02l-9.65-2.17l-9.52,3.26C19.64,37.55,19.58,37.56,19.52,37.56z"/>
		</g>
		<g>
			<path class="st2" d="M19.47,44.9c-0.31,0-0.56-0.25-0.56-0.56V17.58c0-0.31,0.25-0.56,0.56-0.56s0.56,0.25,0.56,0.56v26.75
				C20.03,44.65,19.78,44.9,19.47,44.9z"/>
		</g>
		<g>
			<path class="st2" d="M38.96,44.69c-0.31,0-0.56-0.25-0.56-0.56V17.68c0-0.31,0.25-0.56,0.56-0.56s0.56,0.25,0.56,0.56v26.45
				C39.52,44.44,39.27,44.69,38.96,44.69z"/>
		</g>
		<g>
			<g>
				<g>
					<path class="st3" d="M48.06,45.48c-0.61,0-1.23-0.13-1.82-0.39c-1.09-0.49-1.92-1.37-2.34-2.48c-0.42-1.11-0.39-2.32,0.1-3.41
						c0.49-1.09,1.37-1.92,2.48-2.34s2.32-0.39,3.41,0.1c1.09,0.49,1.92,1.37,2.34,2.48c0.42,1.11,0.39,2.32-0.1,3.41l0,0
						C51.39,44.5,49.76,45.48,48.06,45.48z M48.07,37.77c-0.39,0-0.78,0.07-1.16,0.21c-0.81,0.31-1.46,0.92-1.81,1.71
						c-0.36,0.79-0.38,1.68-0.07,2.49c0.31,0.81,0.92,1.46,1.71,1.81c1.64,0.73,3.57,0,4.31-1.64c0.36-0.79,0.38-1.68,0.07-2.49
						c-0.31-0.81-0.92-1.46-1.71-1.81C48.98,37.87,48.52,37.77,48.07,37.77z"/>
				</g>
			</g>
		</g>
	</g>
</g>
</svg>
