<?xml version="1.0" encoding="utf-8"?>
<!-- Generator: Adobe Illustrator 24.0.2, SVG Export Plug-In . SVG Version: 6.00 Build 0)  -->
<svg version="1.1" xmlns="http://www.w3.org/2000/svg" xmlns:xlink="http://www.w3.org/1999/xlink" x="0px" y="0px"
	 viewBox="0 0 60 60" style="enable-background:new 0 0 60 60;" xml:space="preserve">
<style type="text/css">
	.st0{fill:#19A500;}
	.st1{fill:none;}
	.st2{fill:#FFFFFF;}
	.st3{fill:#EFEF00;}
</style>
<g id="Capa_2">
	<g>
		<g>
			<g id="Rectángulo_3799_56_">
				<path class="st0" d="M30,0L30,0c16.57,0,30,13.43,30,30v0c0,16.57-13.43,30-30,30h0C13.43,60,0,46.57,0,30v0
					C0,13.43,13.43,0,30,0z"/>
			</g>
		</g>
	</g>
</g>
<g id="Capa_1">
	<g>
		<g>
			<g>
				<g id="Rectángulo_3799_2_">
					<rect class="st1" width="60" height="60"/>
				</g>
			</g>
		</g>
	</g>
	<g>
		<g>
			<g>
				<path class="st2" d="M36.71,47.99c-0.3,0-0.55-0.25-0.55-0.55V18.42l-11.9-3.27v20.9c0,0.3-0.25,0.55-0.55,0.55
					s-0.55-0.25-0.55-0.55V14.43c0-0.17,0.08-0.33,0.22-0.44s0.31-0.14,0.48-0.09l13,3.57c0.24,0.07,0.41,0.28,0.41,0.53v29.44
					C37.26,47.75,37.02,47.99,36.71,47.99z"/>
			</g>
			<g>
				<path class="st2" d="M47.14,27.4c-0.3,0-0.55-0.25-0.55-0.55v-2.48l-6.38-2.72c-0.2-0.09-0.34-0.29-0.34-0.51V7.16l-8.9,2.54
					v6.33c0,0.3-0.25,0.55-0.55,0.55s-0.55-0.25-0.55-0.55V9.29c0-0.25,0.16-0.46,0.4-0.53l10-2.86c0.17-0.04,0.35-0.01,0.48,0.09
					c0.14,0.1,0.22,0.27,0.22,0.44v14.35l6.38,2.72c0.2,0.09,0.34,0.29,0.34,0.51v2.85C47.69,27.16,47.45,27.4,47.14,27.4z"/>
			</g>
			<g>
				<path class="st2" d="M47.21,33.44c-1.93,0-3.49-1.57-3.49-3.49c0-1.93,1.57-3.49,3.49-3.49c1.92,0,3.49,1.57,3.49,3.49
					C50.7,31.87,49.13,33.44,47.21,33.44z M47.21,27.56c-1.32,0-2.39,1.07-2.39,2.39c0,1.32,1.07,2.39,2.39,2.39
					c1.32,0,2.39-1.07,2.39-2.39C49.59,28.63,48.52,27.56,47.21,27.56z"/>
			</g>
			<g>
				<path class="st2" d="M47.18,47.84c-0.3,0-0.55-0.25-0.55-0.55V33.29c0-0.3,0.25-0.55,0.55-0.55s0.55,0.25,0.55,0.55v13.99
					C47.73,47.59,47.48,47.84,47.18,47.84z"/>
			</g>
			<g>
				<path class="st2" d="M23.69,42.64c-1.92,0-3.49-1.57-3.49-3.49c0-1.92,1.57-3.49,3.49-3.49c1.93,0,3.49,1.57,3.49,3.49
					C27.18,41.08,25.62,42.64,23.69,42.64z M23.69,36.77c-1.32,0-2.39,1.07-2.39,2.39c0,1.32,1.07,2.39,2.39,2.39
					c1.32,0,2.39-1.07,2.39-2.39C26.08,37.84,25.01,36.77,23.69,36.77z"/>
			</g>
			<g>
				<path class="st2" d="M23.86,47.84c-0.3,0-0.55-0.25-0.55-0.55V42.5c0-0.3,0.25-0.55,0.55-0.55s0.55,0.25,0.55,0.55v4.79
					C24.41,47.59,24.16,47.84,23.86,47.84z"/>
			</g>
			<g>
				<path class="st2" d="M50.44,48.12H9.56c-0.3,0-0.55-0.25-0.55-0.55s0.25-0.55,0.55-0.55h40.88c0.3,0,0.55,0.25,0.55,0.55
					S50.74,48.12,50.44,48.12z"/>
			</g>
			<g>
				<path class="st2" d="M28.06,21.05h-4.04c-0.3,0-0.55-0.25-0.55-0.55s0.25-0.55,0.55-0.55h4.04c0.3,0,0.55,0.25,0.55,0.55
					S28.36,21.05,28.06,21.05z"/>
			</g>
			<g>
				<path class="st2" d="M29.9,24.76h-5.88c-0.3,0-0.55-0.25-0.55-0.55s0.25-0.55,0.55-0.55h5.88c0.3,0,0.55,0.25,0.55,0.55
					S30.2,24.76,29.9,24.76z"/>
			</g>
			<g>
				<path class="st2" d="M27.14,28.5h-3.12c-0.3,0-0.55-0.25-0.55-0.55s0.25-0.55,0.55-0.55h3.12c0.3,0,0.55,0.25,0.55,0.55
					S27.44,28.5,27.14,28.5z"/>
			</g>
			<g>
				<g>
					<path class="st2" d="M47.09,37.04h-4.56c-0.3,0-0.55-0.25-0.55-0.55s0.25-0.55,0.55-0.55h4.56c0.3,0,0.55,0.25,0.55,0.55
						S47.39,37.04,47.09,37.04z"/>
				</g>
				<g>
					<path class="st2" d="M47.09,44.21h-2.72c-0.3,0-0.55-0.25-0.55-0.55s0.25-0.55,0.55-0.55h2.72c0.3,0,0.55,0.25,0.55,0.55
						S47.39,44.21,47.09,44.21z"/>
				</g>
				<g>
					<path class="st2" d="M47.09,40.56h-6.4c-0.3,0-0.55-0.25-0.55-0.55s0.25-0.55,0.55-0.55h6.4c0.3,0,0.55,0.25,0.55,0.55
						S47.39,40.56,47.09,40.56z"/>
				</g>
			</g>
			<g>
				<path class="st2" d="M40.49,13.35h-5.36c-0.3,0-0.55-0.25-0.55-0.55s0.25-0.55,0.55-0.55h5.36c0.3,0,0.55,0.25,0.55,0.55
					S40.79,13.35,40.49,13.35z"/>
			</g>
			<g>
				<path class="st2" d="M32.9,48.04H29.8c-0.3,0-0.55-0.25-0.55-0.55V30.43c0-0.3,0.25-0.55,0.55-0.55h3.09
					c0.3,0,0.55,0.25,0.55,0.55v17.06C33.45,47.79,33.2,48.04,32.9,48.04z M30.36,46.94h1.99V30.98h-1.99V46.94z"/>
			</g>
		</g>
		<g>
			<path class="st2" d="M17.83,48.01h-6.07c-0.3,0-0.55-0.25-0.55-0.55V28.54c0-0.3,0.25-0.55,0.55-0.55s0.55,0.25,0.55,0.55V46.9
				h4.97V28.54c0-0.3,0.25-0.55,0.55-0.55s0.55,0.25,0.55,0.55v18.92C18.38,47.76,18.13,48.01,17.83,48.01z"/>
		</g>
		<g>
			<path class="st2" d="M17.45,36.76h-5.34c-1.65,0-3-1.34-3-3v-7.25c0-1.65,1.34-3,3-3h5.34c1.65,0,3,1.34,3,3v7.25
				C20.45,35.42,19.11,36.76,17.45,36.76z M12.11,24.62c-1.04,0-1.89,0.85-1.89,1.89v7.25c0,1.04,0.85,1.89,1.89,1.89h5.34
				c1.04,0,1.89-0.85,1.89-1.89v-7.25c0-1.04-0.85-1.89-1.89-1.89H12.11z"/>
		</g>
		<g>
			<path class="st2" d="M14.81,47.89c-0.3,0-0.55-0.25-0.55-0.55V36.28c0-0.3,0.25-0.55,0.55-0.55s0.55,0.25,0.55,0.55v11.06
				C15.36,47.64,15.12,47.89,14.81,47.89z"/>
		</g>
		<g>
			<path class="st3" d="M14.67,22.8c-1.81,0-3.28-1.47-3.28-3.28s1.47-3.28,3.28-3.28c1.81,0,3.28,1.47,3.28,3.28
				S16.48,22.8,14.67,22.8z M14.67,17.34c-1.2,0-2.18,0.98-2.18,2.18s0.98,2.18,2.18,2.18c1.2,0,2.18-0.98,2.18-2.18
				S15.87,17.34,14.67,17.34z"/>
		</g>
	</g>
</g>
</svg>
