<?xml version="1.0" encoding="utf-8"?>
<!-- Generator: Adobe Illustrator 24.0.2, SVG Export Plug-In . SVG Version: 6.00 Build 0)  -->
<svg version="1.1" xmlns="http://www.w3.org/2000/svg" xmlns:xlink="http://www.w3.org/1999/xlink" x="0px" y="0px"
	 viewBox="0 0 60 60" style="enable-background:new 0 0 60 60;" xml:space="preserve">
<style type="text/css">
	.st0{fill:#19A500;}
	.st1{fill:none;}
	.st2{fill:#FFFFFF;}
	.st3{fill:#EFEF00;}
</style>
<g id="Capa_2">
	<g>
		<g>
			<g id="Rectángulo_3799_57_">
				<path class="st0" d="M30,0L30,0c16.57,0,30,13.43,30,30v0c0,16.57-13.43,30-30,30h0C13.43,60,0,46.57,0,30v0
					C0,13.43,13.43,0,30,0z"/>
			</g>
		</g>
	</g>
</g>
<g id="Capa_1">
	<g>
		<g>
			<g>
				<g id="Rectángulo_3799_3_">
					<rect class="st1" width="60" height="60"/>
				</g>
			</g>
		</g>
	</g>
	<g>
		<g>
			<g>
				<path class="st2" d="M36.68,45.75H9.02c-0.31,0-0.56-0.25-0.56-0.56s0.25-0.56,0.56-0.56h27.66c0.31,0,0.56,0.25,0.56,0.56
					S37,45.75,36.68,45.75z"/>
			</g>
			<g>
				<path class="st2" d="M49.5,23.26c-0.28,0-0.52-0.21-0.56-0.5c-0.04-0.31,0.18-0.59,0.49-0.63c1.45-0.18,2.81-0.25,4.53-0.25
					c0.31,0,0.56,0.25,0.56,0.56s-0.25,0.56-0.56,0.56c-1.7,0-2.97,0.07-4.4,0.24C49.55,23.25,49.53,23.26,49.5,23.26z"/>
			</g>
			<g>
				<path class="st2" d="M20.8,45.49c-0.07,0-0.14-0.01-0.21-0.04c-0.29-0.12-0.43-0.44-0.31-0.73c0.05-0.13,5.38-13.13,18.28-19.48
					c0.28-0.13,0.62-0.02,0.75,0.26s0.02,0.62-0.26,0.75c-12.5,6.15-17.68,18.76-17.73,18.89C21.23,45.35,21.02,45.49,20.8,45.49z"
					/>
			</g>
			<g>
				<path class="st2" d="M16.15,45.67c-0.31,0-0.56-0.25-0.56-0.56V31.2c0-0.31,0.25-0.56,0.56-0.56s0.56,0.25,0.56,0.56v13.9
					C16.71,45.42,16.46,45.67,16.15,45.67z"/>
			</g>
			<g>
				<path class="st2" d="M16.1,38.86c-0.11,0-0.23-0.03-0.33-0.11l-3.03-2.17c-0.25-0.18-0.31-0.53-0.13-0.79
					c0.18-0.25,0.53-0.31,0.79-0.13l3.03,2.17c0.25,0.18,0.31,0.53,0.13,0.79C16.45,38.78,16.28,38.86,16.1,38.86z"/>
			</g>
			<g>
				<path class="st2" d="M16.15,35.47c-0.19,0-0.38-0.1-0.48-0.27c-0.16-0.27-0.08-0.61,0.19-0.77l3.04-1.86
					c0.27-0.16,0.61-0.08,0.77,0.19c0.16,0.27,0.08,0.61-0.19,0.77l-3.04,1.86C16.35,35.44,16.25,35.47,16.15,35.47z"/>
			</g>
			<g>
				<path class="st2" d="M15.91,41.59c-4.66,0-8.45-3.79-8.45-8.45s3.79-8.45,8.45-8.45s8.45,3.79,8.45,8.45
					S20.57,41.59,15.91,41.59z M15.91,25.83c-4.04,0-7.32,3.28-7.32,7.32c0,4.04,3.28,7.32,7.32,7.32c4.04,0,7.32-3.28,7.32-7.32
					C23.23,29.11,19.95,25.83,15.91,25.83z"/>
			</g>
			<g>
				<g>
					<path class="st2" d="M28.46,34c-0.31,0-0.56-0.25-0.56-0.56V15.55c0-0.31,0.25-0.56,0.56-0.56s0.56,0.25,0.56,0.56v17.88
						C29.03,33.75,28.78,34,28.46,34z"/>
				</g>
				<g>
					<path class="st2" d="M28.42,23.21c-0.11,0-0.23-0.03-0.33-0.11l-3.03-2.17c-0.25-0.18-0.31-0.53-0.13-0.79
						c0.18-0.25,0.53-0.31,0.79-0.13l3.03,2.17c0.25,0.18,0.31,0.53,0.13,0.79C28.77,23.13,28.59,23.21,28.42,23.21z"/>
				</g>
				<g>
					<path class="st2" d="M28.46,19.82c-0.19,0-0.38-0.1-0.48-0.27c-0.16-0.27-0.08-0.61,0.19-0.77l3.04-1.86
						c0.27-0.17,0.61-0.08,0.77,0.19c0.16,0.27,0.08,0.61-0.19,0.77l-3.04,1.86C28.67,19.79,28.56,19.82,28.46,19.82z"/>
				</g>
				<g>
					<path class="st2" d="M28.26,27.12c-4.66,0-8.45-3.79-8.45-8.45s3.79-8.45,8.45-8.45s8.45,3.79,8.45,8.45
						S32.92,27.12,28.26,27.12z M28.26,11.36c-4.04,0-7.32,3.28-7.32,7.32c0,4.04,3.28,7.32,7.32,7.32c4.04,0,7.32-3.28,7.32-7.32
						C35.58,14.64,32.3,11.36,28.26,11.36z"/>
				</g>
			</g>
		</g>
		<g>
			<path class="st2" d="M47.19,45.77h-6.19c-0.31,0-0.56-0.25-0.56-0.56V25.9c0-0.31,0.25-0.56,0.56-0.56s0.56,0.25,0.56,0.56v18.74
				h5.07V25.9c0-0.31,0.25-0.56,0.56-0.56s0.56,0.25,0.56,0.56v19.31C47.75,45.52,47.5,45.77,47.19,45.77z"/>
		</g>
		<g>
			<path class="st2" d="M46.81,34.29h-5.45c-1.69,0-3.06-1.37-3.06-3.06v-7.4c0-1.69,1.37-3.06,3.06-3.06h5.45
				c1.69,0,3.06,1.37,3.06,3.06v7.4C49.86,32.92,48.49,34.29,46.81,34.29z M41.35,21.91c-1.06,0-1.93,0.87-1.93,1.93v7.4
				c0,1.06,0.87,1.93,1.93,1.93h5.45c1.06,0,1.93-0.87,1.93-1.93v-7.4c0-1.06-0.87-1.93-1.93-1.93H41.35z"/>
		</g>
		<g>
			<path class="st2" d="M44.11,45.65c-0.31,0-0.56-0.25-0.56-0.56V33.8c0-0.31,0.25-0.56,0.56-0.56s0.56,0.25,0.56,0.56v11.29
				C44.67,45.4,44.42,45.65,44.11,45.65z"/>
		</g>
		<g>
			<path class="st3" d="M43.97,20.05c-1.85,0-3.35-1.5-3.35-3.35s1.5-3.35,3.35-3.35s3.35,1.5,3.35,3.35S45.81,20.05,43.97,20.05z
				 M43.97,14.47c-1.23,0-2.22,1-2.22,2.22s1,2.22,2.22,2.22c1.23,0,2.22-1,2.22-2.22S45.19,14.47,43.97,14.47z"/>
		</g>
	</g>
</g>
</svg>
