<?xml version="1.0" encoding="utf-8"?>
<!-- Generator: Adobe Illustrator 24.0.2, SVG Export Plug-In . SVG Version: 6.00 Build 0)  -->
<svg version="1.1" xmlns="http://www.w3.org/2000/svg" xmlns:xlink="http://www.w3.org/1999/xlink" x="0px" y="0px"
	 viewBox="0 0 60 60" style="enable-background:new 0 0 60 60;" xml:space="preserve">
<style type="text/css">
	.st0{fill:#19A500;}
	.st1{fill:none;}
	.st2{fill:#FFFFFF;}
	.st3{fill:#EFEF00;}
</style>
<g id="Capa_2">
	<g>
		<g>
			<g id="Rectángulo_3799_10_">
				<path class="st0" d="M30,0L30,0c16.57,0,30,13.43,30,30v0c0,16.57-13.43,30-30,30h0C13.43,60,0,46.57,0,30v0
					C0,13.43,13.43,0,30,0z"/>
			</g>
		</g>
	</g>
</g>
<g id="Capa_1">
	<g>
		<g id="Rectángulo_3799_8_">
			<rect class="st1" width="60" height="60"/>
		</g>
	</g>
	<g>
		<g>
			<g>
				<path class="st2" d="M36.08,45.18c-0.3,0-0.54-0.24-0.54-0.54V25.65h-5.18v18.98c0,0.3-0.24,0.54-0.54,0.54
					s-0.54-0.24-0.54-0.54V25.1c0-0.3,0.24-0.54,0.54-0.54h6.27c0.3,0,0.54,0.24,0.54,0.54v19.53
					C36.63,44.93,36.38,45.18,36.08,45.18z"/>
			</g>
			<g>
				<path class="st2" d="M29.17,29.88h-3.56c-0.3,0-0.54-0.24-0.54-0.54v-4.56h-3.65c-0.3,0-0.54-0.24-0.54-0.54
					s0.24-0.54,0.54-0.54h4.19c0.3,0,0.54,0.24,0.54,0.54v4.56h3.02c0.3,0,0.54,0.24,0.54,0.54S29.47,29.88,29.17,29.88z"/>
			</g>
			<g>
				<path class="st2" d="M10.05,45.2c-0.3,0-0.54-0.24-0.54-0.54V34.08c0-0.3,0.24-0.54,0.54-0.54h4.68v-3.23
					c0-0.3,0.24-0.54,0.54-0.54s0.54,0.24,0.54,0.54v3.77c0,0.3-0.24,0.54-0.54,0.54h-4.68v10.03C10.59,44.95,10.35,45.2,10.05,45.2
					z"/>
			</g>
			<g>
				<path class="st2" d="M41.88,45.43c-0.3,0-0.54-0.24-0.54-0.54V17.88h-8.17v7.17c0,0.3-0.24,0.54-0.54,0.54s-0.54-0.24-0.54-0.54
					v-7.72c0-0.3,0.24-0.54,0.54-0.54h9.26c0.3,0,0.54,0.24,0.54,0.54v27.55C42.42,45.19,42.18,45.43,41.88,45.43z"/>
			</g>
			<g>
				<path class="st2" d="M49.71,44.96c-0.3,0-0.54-0.24-0.54-0.54V28.33l-3.42-4.32v11.02c0,0.3-0.24,0.54-0.54,0.54h-2.85
					c-0.3,0-0.54-0.24-0.54-0.54s0.24-0.54,0.54-0.54h2.31V22.44c0-0.23,0.15-0.44,0.37-0.51c0.22-0.08,0.46,0,0.61,0.18l4.51,5.7
					c0.08,0.1,0.12,0.21,0.12,0.34v16.27C50.26,44.71,50.02,44.96,49.71,44.96z"/>
			</g>
			<g>
				<path class="st2" d="M52.11,45.85H7.89c-0.3,0-0.54-0.24-0.54-0.54s0.24-0.54,0.54-0.54h44.22c0.3,0,0.54,0.24,0.54,0.54
					S52.41,45.85,52.11,45.85z"/>
			</g>
			<g>
				<path class="st2" d="M38.79,12.14c-1.73,0-3.14-1.41-3.14-3.14c0-1.73,1.41-3.14,3.14-3.14c1.73,0,3.14,1.41,3.14,3.14
					C41.93,10.73,40.52,12.14,38.79,12.14z M38.79,6.95c-1.13,0-2.05,0.92-2.05,2.05c0,1.13,0.92,2.05,2.05,2.05
					c1.13,0,2.05-0.92,2.05-2.05C40.84,7.87,39.92,6.95,38.79,6.95z"/>
			</g>
			<g>
				<path class="st2" d="M49.75,39.62h-4.25c-0.3,0-0.54-0.24-0.54-0.54s0.24-0.54,0.54-0.54h4.25c0.3,0,0.54,0.24,0.54,0.54
					S50.06,39.62,49.75,39.62z"/>
			</g>
			<g>
				<path class="st2" d="M49.75,42.47h-4.25c-0.3,0-0.54-0.24-0.54-0.54s0.24-0.54,0.54-0.54h4.25c0.3,0,0.54,0.24,0.54,0.54
					S50.06,42.47,49.75,42.47z"/>
			</g>
			<g>
				<path class="st2" d="M14.86,37.81h-4.25c-0.3,0-0.54-0.24-0.54-0.54s0.24-0.54,0.54-0.54h4.25c0.3,0,0.54,0.24,0.54,0.54
					S15.16,37.81,14.86,37.81z"/>
			</g>
			<g>
				<path class="st2" d="M14.86,40.66h-4.25c-0.3,0-0.54-0.24-0.54-0.54s0.24-0.54,0.54-0.54h4.25c0.3,0,0.54,0.24,0.54,0.54
					S15.16,40.66,14.86,40.66z"/>
			</g>
			<g>
				<path class="st2" d="M41.65,20.83h-3.18c-0.3,0-0.54-0.24-0.54-0.54s0.24-0.54,0.54-0.54h3.18c0.3,0,0.54,0.24,0.54,0.54
					S41.95,20.83,41.65,20.83z"/>
			</g>
			<g>
				<path class="st2" d="M41.65,23.42h-3.18c-0.3,0-0.54-0.24-0.54-0.54s0.24-0.54,0.54-0.54h3.18c0.3,0,0.54,0.24,0.54,0.54
					S41.95,23.42,41.65,23.42z"/>
			</g>
		</g>
		<g>
			<g>
				<g>
					<path class="st3" d="M15.54,28.87c-0.62,0-1.24-0.13-1.83-0.39c-2.24-1.01-3.25-3.65-2.24-5.89c0.49-1.08,1.37-1.92,2.48-2.34
						c1.11-0.42,2.32-0.39,3.41,0.1c1.09,0.49,1.92,1.37,2.34,2.48c0.42,1.11,0.39,2.32-0.1,3.41c-0.49,1.09-1.37,1.92-2.48,2.34
						C16.61,28.77,16.07,28.87,15.54,28.87z M15.54,21.15c-0.39,0-0.78,0.07-1.16,0.21c-0.81,0.31-1.46,0.92-1.81,1.71
						c-0.74,1.64,0,3.57,1.63,4.31c0.79,0.36,1.68,0.38,2.49,0.07c0.81-0.31,1.46-0.92,1.81-1.71h0c0.36-0.79,0.38-1.68,0.07-2.49
						c-0.31-0.81-0.92-1.46-1.71-1.81C16.45,21.24,16,21.15,15.54,21.15z"/>
				</g>
			</g>
		</g>
	</g>
</g>
</svg>
