<svg xmlns="http://www.w3.org/2000/svg" width="29.57" height="21.788" viewBox="0 0 29.57 21.788">
  <g id="Grupo_10767" data-name="Grupo 10767" transform="translate(6126.785 4131.95)">
    <path id="Trazado_131" data-name="Trazado 131" d="M1307.781,1968.044a3.212,3.212,0,1,1,3.212-3.212A3.2,3.2,0,0,1,1307.781,1968.044Z" transform="translate(-7430.57 -6089.633)" fill="none" stroke="#fff" stroke-linecap="round" stroke-linejoin="round" stroke-width="1.57"/>
    <g id="Grupo_181" data-name="Grupo 181" transform="translate(-6122.788 -4131.165)">
      <path id="Trazado_132" data-name="Trazado 132" d="M1315.191,1964.985h3.011l4.333-6.549a1.59,1.59,0,0,1,2.6-.07h0a3.006,3.006,0,0,1,.26,3.158l-.973,1.9a.747.747,0,0,0,.665,1.087h7.894a1.613,1.613,0,0,1,1.614,1.613h0a1.613,1.613,0,0,1-1.614,1.613h-3.169" transform="translate(-1309.811 -1957.724)" fill="none" stroke="#fff" stroke-linecap="round" stroke-linejoin="round" stroke-width="1.57"/>
      <path id="Trazado_133" data-name="Trazado 133" d="M1332.343,1970.108h2.436a1.613,1.613,0,0,1,1.613,1.614h0a1.613,1.613,0,0,1-1.613,1.613h-4.384" transform="translate(-1312.717 -1960.09)" fill="none" stroke="#fff" stroke-linecap="round" stroke-linejoin="round" stroke-width="1.57"/>
      <path id="Trazado_134" data-name="Trazado 134" d="M1330.1,1974.1h3.169a1.613,1.613,0,0,1,1.614,1.613h0a1.613,1.613,0,0,1-1.614,1.613h-4.408" transform="translate(-1312.424 -1960.853)" fill="none" stroke="#fff" stroke-linecap="round" stroke-linejoin="round" stroke-width="1.57"/>
      <path id="Trazado_135" data-name="Trazado 135" d="M1326.25,1978.085h3.549a1.613,1.613,0,0,1,1.613,1.614h0a1.613,1.613,0,0,1-1.613,1.613h-7.952l-3.643-.845h-3.011" transform="translate(-1309.811 -1961.615)" fill="none" stroke="#fff" stroke-linecap="round" stroke-linejoin="round" stroke-width="1.57"/>
      <path id="Trazado_136" data-name="Trazado 136" d="M1313.92,1965.137v14.221h-5.38v-8.587" transform="translate(-1308.54 -1959.141)" fill="none" stroke="#fff" stroke-linecap="round" stroke-linejoin="round" stroke-width="1.57"/>
    </g>
  </g>
</svg>
