<svg xmlns="http://www.w3.org/2000/svg" width="29.084" height="20.478" viewBox="0 0 29.084 20.478">
  <g id="Grupo_10766" data-name="Grupo 10766" transform="translate(-420.657 -2997.339)">
    <path id="Trazado_190" data-name="Trazado 190" d="M425.4,3006.524v5.757a4.751,4.751,0,0,0,4.751,4.751H445.4a4.751,4.751,0,0,0,4.751-4.751v-10.628h-7.977v-1.841a1.688,1.688,0,0,0-1.688-1.688H435.07a1.688,1.688,0,0,0-1.689,1.688v1.841H430.4" transform="translate(-1.199)" fill="none" stroke="#fff" stroke-linecap="round" stroke-linejoin="round" stroke-width="1.57"/>
    <path id="Trazado_191" data-name="Trazado 191" d="M426.969,3001.986a2.763,2.763,0,1,1-2.763-2.763A2.753,2.753,0,0,1,426.969,3001.986Z" transform="translate(0 -0.332)" fill="none" stroke="#fff" stroke-linecap="round" stroke-linejoin="round" stroke-width="1.57"/>
    <line id="Línea_182" data-name="Línea 182" x2="3.568" transform="translate(442.913 3004.417)" fill="none" stroke="#fff" stroke-linecap="round" stroke-linejoin="round" stroke-width="1.57"/>
    <line id="Línea_183" data-name="Línea 183" x2="3.568" transform="translate(434.797 3000.737)" fill="none" stroke="#fff" stroke-linecap="round" stroke-linejoin="round" stroke-width="1.57"/>
    <line id="Línea_184" data-name="Línea 184" x2="3.568" transform="translate(442.913 3006.524)" fill="none" stroke="#fff" stroke-linecap="round" stroke-linejoin="round" stroke-width="1.57"/>
    <circle id="Elipse_90" data-name="Elipse 90" cx="4.7" cy="4.7" r="4.7" transform="translate(431.88 3004.643)" fill="none" stroke="#fff" stroke-linecap="round" stroke-linejoin="round" stroke-width="1.57"/>
  </g>
</svg>
