<?xml version="1.0" encoding="utf-8"?>
<!-- Generator: Adobe Illustrator 24.0.2, SVG Export Plug-In . SVG Version: 6.00 Build 0)  -->
<svg version="1.1" id="Layer_1" xmlns="http://www.w3.org/2000/svg" xmlns:xlink="http://www.w3.org/1999/xlink" x="0px" y="0px"
	 viewBox="0 0 25 25" style="enable-background:new 0 0 25 25;" xml:space="preserve">
<style type="text/css">
	.st0{fill:#19A500;}
	.st1{fill:#95A6B1;}
</style>
<g id="Group_3209" transform="translate(4026.818 51.785)">
	<g id="Path_276">
		<path class="st0" d="M-4021.3-43.8c-1.9,0-3.5-1.6-3.5-3.5c0-1.9,1.6-3.5,3.5-3.5s3.5,1.6,3.5,3.5
			C-4017.8-45.4-4019.4-43.8-4021.3-43.8z M-4021.3-49.2c-1.1,0-1.9,0.8-1.9,1.9s0.8,1.9,1.9,1.9s1.9-0.8,1.9-1.9
			S-4020.2-49.2-4021.3-49.2z"/>
	</g>
	<g id="Group_536" transform="translate(-5255 -120.858)">
		<g id="Path_4969">
			<path class="st1" d="M1250.3,83.8h-11.8c-0.4,0-0.8-0.4-0.8-0.8s0.4-0.8,0.8-0.8h11.8c0.4,0,0.8,0.4,0.8,0.8
				S1250.7,83.8,1250.3,83.8z"/>
		</g>
		<g id="Path_4970">
			<path class="st1" d="M1246.4,87.7c-0.2,0-0.4-0.1-0.6-0.2c-0.3-0.3-0.3-0.8,0-1.1l3.4-3.4l-3.4-3.4c-0.3-0.3-0.3-0.8,0-1.1
				s0.8-0.3,1.1,0l4,4c0.3,0.3,0.3,0.8,0,1.1l-4,4C1246.8,87.6,1246.6,87.7,1246.4,87.7z"/>
		</g>
	</g>
	<g id="Line_443">
		<path class="st1" d="M-4009-46.5h-7c-0.4,0-0.8-0.4-0.8-0.8s0.4-0.8,0.8-0.8h7c0.4,0,0.8,0.4,0.8,0.8S-4008.6-46.5-4009-46.5z"/>
	</g>
	<g id="Path_277">
		<path class="st1" d="M-4009-27.8h-7.8c-2.9,0-5.3-2.4-5.3-5.3v-8.8c0-0.4,0.4-0.8,0.8-0.8s0.8,0.4,0.8,0.8v8.8
			c0,2.1,1.6,3.7,3.7,3.7h7.8c0.4,0,0.8,0.4,0.8,0.8S-4008.6-27.8-4009-27.8z"/>
	</g>
</g>
</svg>
