<?xml version="1.0" encoding="utf-8"?>
<!-- Generator: Adobe Illustrator 24.0.2, SVG Export Plug-In . SVG Version: 6.00 Build 0)  -->
<svg version="1.1" id="Layer_1" xmlns="http://www.w3.org/2000/svg" xmlns:xlink="http://www.w3.org/1999/xlink" x="0px" y="0px"
	 width="43px" height="43px" viewBox="0 0 43 43" style="enable-background:new 0 0 43 43;" xml:space="preserve">
<style type="text/css">
	.st0{fill:#FFFFFF;}
	.st1{fill:none;}
</style>
<g id="Group_3211" transform="translate(5246 -98)">
	<g>
		<path class="st0" d="M-5232,120.2h11.3c0.6,0,1-0.4,1-1c0-0.6-0.5-1-1-1h-11.3c-0.6,0-1,0.4-1,1
			C-5233,119.8-5232.5,120.2-5232,120.2z"/>
		<path class="st0" d="M-5232,114.5h11.3c0.6,0,1-0.4,1-1s-0.5-1-1-1h-11.3c-0.6,0-1,0.4-1,1S-5232.5,114.5-5232,114.5z"/>
		<path class="st0" d="M-5204.6,136.9l-10-10c5.7-6.3,5.5-16.1-0.6-22.2c0,0,0,0,0,0c-4.8-4.8-12.2-6.1-18.3-3.2
			c-0.5,0.2-0.7,0.8-0.5,1.3s0.8,0.7,1.3,0.5c5.4-2.5,11.8-1.4,16,2.8c0.1,0.1,0.2,0.2,0.3,0.2c5.3,5.6,5.3,14.5-0.2,19.9
			c-5.6,5.5-14.6,5.5-20.1,0c0,0,0,0,0,0c-3.2-3.2-4.7-7.7-4-12.1c0.1-0.5-0.3-1-0.8-1.1c-0.5-0.1-1,0.3-1.1,0.8
			c-0.7,5,0.9,10.2,4.5,13.8c0,0,0,0,0,0c0,0,0,0,0,0c0,0,0,0,0,0c0,0,0,0,0,0c3.1,3,7.2,4.6,11.3,4.6c3.8,0,7.5-1.3,10.7-4l10,10
			c0.2,0.2,0.4,0.3,0.7,0.3c0.3,0,0.5-0.1,0.7-0.3C-5204.2,137.9-5204.2,137.3-5204.6,136.9z"/>
		<path class="st0" d="M-5238.6,112c2.7,0,4.9-2.2,4.8-5c0-1.3-0.5-2.5-1.4-3.4c-0.9-0.9-2.1-1.4-3.4-1.4c-2.7,0-4.9,2.2-4.9,4.9
			S-5241.3,112-5238.6,112z M-5238.7,104.2c1.6,0,2.9,1.3,2.9,2.9s-1.3,2.9-2.9,2.9s-2.9-1.3-2.9-2.9S-5240.3,104.2-5238.7,104.2z"
			/>
	</g>
	<g id="Rectangle_1200">
		<rect x="-5246" y="98" class="st1" width="43" height="43"/>
	</g>
</g>
</svg>
