<svg xmlns="http://www.w3.org/2000/svg" width="174.555" height="41.95" viewBox="0 0 174.555 41.95">
  <g id="Grupo_13555" data-name="Grupo 13555" transform="translate(-4.519 -2.99)">
    <g id="Grupo_585" data-name="Grupo 585" transform="translate(45.778 2.997)">
      <g id="Grupo_584" data-name="Grupo 584" transform="translate(0 0)">
        <path id="Trazado_1589" data-name="Trazado 1589" d="M160.956,8.895h5.062V44.946L144.489,17.8V39.055h-5.061V3l21.527,27.1ZM117.448,39.055h17.789V34.3H122.509V25.033h11.869V20.384H122.509V13.655h12.727V8.895H117.448Zm101.305,0H213.23l-3.584-8.013H197.922l-3.585,8.013h-5.523L203.7,6.369ZM207.5,26.245l-3.718-8.314-3.719,8.314Zm-20.75-2.284a14.121,14.121,0,0,0-5.356-3.353l-2.057-.816c-2.4-.933-3.515-2.033-3.515-3.466,0-2.02,2.093-3.376,4.049-3.376a4.188,4.188,0,0,1,3.963,2.371l.377.643,3.748-3.161a8.859,8.859,0,0,0-8.012-4.76,9.919,9.919,0,0,0-6.317,2.176,7.79,7.79,0,0,0-2.87,6.117c0,4.533,3.38,6.621,6.69,8.065l1.983.851c2.769,1.167,4.486,2.382,4.486,4.822a4.689,4.689,0,0,1-4.452,4.916l-.091,0a4.858,4.858,0,0,1-3.521-1.438,4.551,4.551,0,0,1-1.232-2.512h-5.157l.007.056a10.394,10.394,0,0,0,3.153,6.28A9.419,9.419,0,0,0,179.07,39.9a9.652,9.652,0,0,0,9.907-9.388c0-.146,0-.292,0-.437A8.6,8.6,0,0,0,186.75,23.961ZM101.455,34.995A10.953,10.953,0,0,1,90.592,23.978a10.865,10.865,0,0,1,18.658-7.8l.03.03a10.449,10.449,0,0,1,.775.909l3.8-3.152a16.515,16.515,0,0,0-1.121-1.237,15.943,15.943,0,0,0-22.547-.014l-.014.014a15.976,15.976,0,1,0,23.735,21.346l-3.959-3.248A10.79,10.79,0,0,1,101.455,34.995Z" transform="translate(-85.457 -3.003)" fill="#fff"/>
      </g>
    </g>
    <path id="Trazado_11861" data-name="Trazado 11861" d="M18.2,3.963a.178.178,0,0,1,.137-.035A.152.152,0,0,0,18.4,3.92a.871.871,0,0,1,.284-.046c.027,0,.065.023.077.012.039-.033.057.015.081.013.061-.007.128.029.183-.023a1.6,1.6,0,0,0,.236-.03.114.114,0,0,0,.072-.027.8.8,0,0,1,.22-.133,1.3,1.3,0,0,1,.251-.06c.179-.017.36-.02.54-.031a.5.5,0,0,0,.117-.015,1,1,0,0,1,.222-.062c.084,0,.127-.074.2-.089a.022.022,0,0,0,.009-.009c0-.006-.01-.016-.015-.016l-.192,0c-.074.072-.167.048-.257.053a.905.905,0,0,0-.374.056.8.8,0,0,1-.336.056.345.345,0,0,0-.074.019c-.064.013-.128.024-.193.035a1.728,1.728,0,0,0-.206.035,2.94,2.94,0,0,1-.553.131c-.048.044-.114.012-.165.034a1.73,1.73,0,0,1-.285.081.58.58,0,0,0-.136.035.142.142,0,0,0-.03.029c.011.005.022.014.033.014A.143.143,0,0,0,18.2,3.963Zm-8.83,6.75a.638.638,0,0,0,.215-.2c.036-.044.064-.093.1-.139a.055.055,0,0,1,.02-.019c.06-.025.107-.055.111-.134,0-.024.042-.065.09-.072s-.011-.07.056-.088a.227.227,0,0,0,.124-.15c0-.01-.005-.024-.009-.039a1,1,0,0,0-.108.081c-.031.031-.049.073-.08.1-.051.053-.077.129-.154.155,0,.057-.074.047-.084.087s-.059.078-.09.115c-.068.079-.138.155-.2.234a.111.111,0,0,0-.016.048.093.093,0,0,0,0,.025Zm3.518-3.162c-.068.016-.108.079-.163.106a1.77,1.77,0,0,0-.411.3.648.648,0,0,1-.076.049c-.029.019-.059.037-.086.059s-.044.053-.071.061a.473.473,0,0,0-.18.134c-.025.023-.057.04-.083.063-.011.009-.012.028-.018.042.012,0,.026.013.036.011a.145.145,0,0,0,.058-.027,1.014,1.014,0,0,1,.186-.151c.088-.041.151-.115.239-.154.028-.012.063-.031.071-.055.016-.048.059-.059.09-.084.071-.059.146-.112.22-.167a.39.39,0,0,1,.119-.077.464.464,0,0,0,.176-.108.13.13,0,0,0,.02-.033h-.068A.252.252,0,0,1,12.885,7.551ZM26.224,36.645a.272.272,0,0,1-.142.008.627.627,0,0,0-.167.022.187.187,0,0,0-.087.025c-.02.013-.061-.012-.092-.011s-.1,0-.127.021c-.047.045-.085,0-.127.008a.717.717,0,0,1-.133.013.287.287,0,0,0-.079.01.273.273,0,0,1-.205,0,.2.2,0,0,0-.106-.008.542.542,0,0,1-.327,0,.092.092,0,0,0-.041,0c-.007,0-.017.012-.016.017s.005.033.012.035a1.071,1.071,0,0,0,.153.029c.055,0,.111,0,.166,0,.024,0,.06.03.068.022.045-.042.1-.019.143-.022s.1,0,.151,0a1,1,0,0,0,.127,0,.7.7,0,0,1,.225-.022c.014,0,.033.006.04,0,.056-.049.122-.018.182-.027a1.717,1.717,0,0,1,.2-.026.4.4,0,0,0,.194-.032.271.271,0,0,1,.141-.025c.037,0,.074,0,.111,0,.01,0,.018-.013.04-.03-.023-.012-.037-.024-.049-.024A.732.732,0,0,0,26.224,36.645Zm17.019-13.62a.658.658,0,0,1,0-.138.692.692,0,0,0-.074-.344.936.936,0,0,1-.066-.3q0-.325,0-.65c0-.047.021-.1-.026-.142a.042.042,0,0,1,0-.04c.052-.08.018-.168.027-.252a.86.86,0,0,1,.027-.307.094.094,0,0,0,0-.081c-.039-.05-.02-.1-.025-.156a.221.221,0,0,0-.007-.053.966.966,0,0,1-.046-.257.731.731,0,0,0-.084-.326.219.219,0,0,1-.028-.112,2.425,2.425,0,0,0-.058-.489c-.006-.034-.028-.067-.025-.1a.8.8,0,0,0-.034-.181c0-.02-.023-.04-.022-.059a.535.535,0,0,0-.085-.311.216.216,0,0,1-.013-.191.112.112,0,0,0-.008-.124.231.231,0,0,1-.035-.152c0-.069,0-.138,0-.207-.068-.068-.06-.168-.1-.25s-.112-.16-.094-.265a.149.149,0,0,0-.057-.157.09.09,0,0,1-.025-.058,2.444,2.444,0,0,0-.088-.241c-.019-.081-.019-.179-.106-.233,0,0,0-.019,0-.027-.031-.071-.038-.151-.068-.221A2.337,2.337,0,0,1,42,16.239c-.01-.045-.049-.086-.05-.129a.275.275,0,0,0-.034-.139c-.042-.068.007-.166-.078-.218-.009-.005,0-.035,0-.053-.009-.07-.017-.14-.028-.21a.062.062,0,0,0-.02-.033.122.122,0,0,1-.037-.082.732.732,0,0,0-.054-.157c-.023-.055-.046-.11-.067-.166a.245.245,0,0,0-.065-.127c-.047-.039-.031-.112-.057-.168a.871.871,0,0,1-.063-.2.563.563,0,0,0-.089-.252.815.815,0,0,1-.1-.18.284.284,0,0,0-.044-.077c-.03-.033-.061-.059-.011-.1,0,0,0-.025,0-.025-.066,0-.037-.073-.068-.094-.059-.038-.07-.1-.094-.156a.408.408,0,0,0-.081-.133.157.157,0,0,1-.032-.055.943.943,0,0,0-.13-.279.451.451,0,0,1-.068-.151c-.012-.042,0-.109-.054-.127s-.059-.058-.079-.092-.037-.086-.057-.128a.3.3,0,0,0-.06-.112c-.044-.036-.038-.091-.068-.125-.054-.06-.066-.142-.116-.2s-.033-.152-.088-.213a.094.094,0,0,0-.069-.106c-.068-.02-.083-.075-.114-.12-.01-.014-.012-.044-.02-.045-.088-.012-.081-.112-.142-.151a.113.113,0,0,1-.041-.105.123.123,0,0,0-.082-.138.156.156,0,0,1-.053-.039c-.06-.076-.167-.116-.177-.231-.107-.1-.144-.239-.236-.344a.094.094,0,0,1-.033-.084.119.119,0,0,0-.054-.117c-.022-.021-.035-.052-.058-.072-.069-.059-.086-.151-.144-.219a1.792,1.792,0,0,0-.136-.136,2.73,2.73,0,0,1-.18-.227.1.1,0,0,1-.017-.143c.021-.033.007-.051-.031-.048s-.083,0-.093-.039-.03-.048-.064-.045c-.013,0-.034,0-.04,0a.51.51,0,0,1-.119-.157.161.161,0,0,0-.1-.122.139.139,0,0,1-.059-.058,2.884,2.884,0,0,1-.2-.331c-.024-.054-.044-.056-.108-.036-.015,0-.041.015-.046.01a.968.968,0,0,0-.212-.158,1.1,1.1,0,0,1-.158-.154,1,1,0,0,1-.149-.142c-.03-.046-.049-.108-.119-.133s-.041-.123-.109-.16c-.019-.011-.023-.058-.041-.062-.082-.02-.094-.1-.134-.152s-.058-.089-.123-.085a.079.079,0,0,1-.047-.017.978.978,0,0,1-.276-.27.725.725,0,0,0-.155-.184c-.1-.085-.212-.163-.309-.255a.164.164,0,0,0-.132-.049.837.837,0,0,1-.124,0,.084.084,0,0,1-.05-.012c-.076-.064-.15-.129-.223-.2,0,0,0-.018,0-.027a.091.091,0,0,1,.029,0c.019.008.038.019.057.029s.017,0,.019,0,.008-.019,0-.025-.023-.028-.033-.042a1.28,1.28,0,0,0-.293-.231.954.954,0,0,0-.324-.219c-.055-.067-.151-.073-.207-.13a1.623,1.623,0,0,0-.244-.183.773.773,0,0,1-.086-.059c-.044-.04-.086-.084-.128-.125-.08.024-.094-.08-.159-.083-.066-.074-.166-.093-.243-.15a3.074,3.074,0,0,0-.362-.225,2.194,2.194,0,0,1-.21-.128.736.736,0,0,1-.14-.091c-.044-.052-.127-.028-.156-.1a.324.324,0,0,1-.2-.1c-.1-.077-.217-.134-.312-.22a.06.06,0,0,0-.037-.01.374.374,0,0,1-.249-.08.908.908,0,0,0-.29-.163,1.081,1.081,0,0,1-.351-.156c-.06-.038-.125-.058-.184-.093-.035-.021-.084.015-.112-.03-.123-.009-.208-.128-.338-.117-.032-.048-.079-.049-.129-.057s-.087-.05-.144-.055c-.035,0-.067-.047-.1-.05a1.245,1.245,0,0,1-.4-.112.083.083,0,0,0-.028,0,.106.106,0,0,0,0,.029c.01.044.063.078.031.132l-.127-.05A.1.1,0,0,1,29.946,4a.381.381,0,0,0-.16-.051.579.579,0,0,1-.294-.094.169.169,0,0,0-.12-.038.619.619,0,0,1-.324-.09.439.439,0,0,0-.214-.053.133.133,0,0,1-.111-.035.365.365,0,0,0-.232-.1,1.325,1.325,0,0,1-.281-.064c-.036-.007-.067-.04-.1-.051s-.095-.016-.14-.03a.953.953,0,0,1-.116-.054c-.039.048-.093.021-.14.025a.089.089,0,0,1-.046-.019,2.03,2.03,0,0,0-.4-.145.39.39,0,0,0-.1-.027.385.385,0,0,1-.109-.038c-.054-.016-.112-.091-.179-.02a.042.042,0,0,1-.04,0c-.079-.051-.175-.041-.258-.077a.453.453,0,0,0-.276-.028c-.054.013-.1.04-.144-.005A.286.286,0,0,1,26,3.043a.069.069,0,0,1-.036-.012.15.15,0,0,0-.131-.011.643.643,0,0,1-.326,0,.247.247,0,0,0-.185.012c-.025.016-.037,0-.058-.006-.047-.018-.11-.049-.147-.033-.093.041-.2.027-.288.075a.07.07,0,0,1-.051-.007.251.251,0,0,0-.205,0,.058.058,0,0,1-.046,0,.111.111,0,0,0-.113-.005.192.192,0,0,1-.063.016,3.243,3.243,0,0,1-.373,0c-.123-.013-.243.062-.366,0-.013-.006-.034,0-.051.007a.371.371,0,0,1-.074.019c-.166,0-.332.009-.5,0s-.332.037-.5.032a.676.676,0,0,0-.154.027c-.007,0-.011.014-.016.021.041.027.056.087.116.088h.387c.022-.071.079.021.107-.022h.4c.017.04.045-.01.058,0,.033.038.051.006.079-.007a.089.089,0,0,1,.079,0c.041.039.087.017.129.024s.084.021.127.027a.191.191,0,0,0,.063-.014c.012,0,.031-.016.035-.012.044.045.087.029.13,0a.153.153,0,0,0,.14.025c.034-.008.058.05.09.008a1.723,1.723,0,0,1,.341.006.793.793,0,0,0,.213.012.2.2,0,0,1,.09,0c.06.019.131.006.186.055,0,0,.018-.014.029-.015a.125.125,0,0,1,.066,0,.733.733,0,0,0,.28.027c.03,0,.06.014.09.015.1.005.2.088.307.04a.053.053,0,0,1,.039,0,.649.649,0,0,0,.31.051c.033,0,.075-.013.095,0a.169.169,0,0,0,.143.022c.058-.009.1.034.154.031a2.229,2.229,0,0,1,.349.064c.06.005.121.037.186.049a.806.806,0,0,0,.2.024.079.079,0,0,1,.038.009.612.612,0,0,0,.329.074c.017,0,.042,0,.052.005a.278.278,0,0,0,.2.063c.073,0,.143.035.217.016a.146.146,0,0,1,.081,0,1.226,1.226,0,0,0,.465.079.125.125,0,0,1,.1.036.578.578,0,0,0,.182.125,1.93,1.93,0,0,0,.379.085.705.705,0,0,1,.247.075.286.286,0,0,0,.15.041.97.97,0,0,1,.268.053c.067.016.119.083.2.058a.055.055,0,0,1,.016.031.569.569,0,0,1-.012.077.342.342,0,0,0-.058-.025c-.017,0-.037,0-.055,0-.06-.013-.038.05-.064.071s.016.06.033.061c.106.009.181.113.3.092.017,0,.038.016.057.026a.885.885,0,0,0,.286.113c.021,0,.036.043.067.014l-.059-.044c-.039-.028-.077-.076-.118-.078-.072,0-.105-.061-.161-.084a1.541,1.541,0,0,1-.171-.088.039.039,0,0,1-.013-.035c0-.008.018-.018.029-.019a.7.7,0,0,1,.315.108.336.336,0,0,0,.114.056.5.5,0,0,1,.19.079.2.2,0,0,0,.181.062c.029-.009.049.011.072.026a.221.221,0,0,0,.085.028.382.382,0,0,1,.216.113.048.048,0,0,1,.012.035c0,.009-.019.017-.03.018a.575.575,0,0,1-.272-.044c-.035-.013-.051-.008-.067.015-.032.046-.058.1-.089.142s-.054.049-.1.025a1.1,1.1,0,0,0-.468-.139.176.176,0,0,1-.071-.027c-.068-.035-.146-.05-.213-.085a1.206,1.206,0,0,0-.229-.082,1.429,1.429,0,0,1-.275-.1,1.614,1.614,0,0,0-.269-.087.728.728,0,0,0-.126-.028.155.155,0,0,1-.117-.055c0-.005-.017,0-.025,0a.341.341,0,0,1-.164-.048c-.014-.011-.035-.036-.04-.033-.056.035-.083-.007-.116-.038a.077.077,0,0,0-.047-.018,1.262,1.262,0,0,1-.3-.055.766.766,0,0,0-.182-.027.323.323,0,0,1-.126-.031.822.822,0,0,0-.326-.082.22.22,0,0,1-.082,0,.658.658,0,0,0-.2-.052.629.629,0,0,1-.224-.029.061.061,0,0,0-.054,0c-.042.045-.095.018-.142.027a1.8,1.8,0,0,1-.334-.03.658.658,0,0,1-.266-.022c-.049-.021-.116.006-.167-.031-.043.039-.084.01-.129.006-.063-.005-.119-.033-.181-.035-.112-.005-.223-.016-.334-.028a.2.2,0,0,1-.071-.027.415.415,0,0,0-.27-.084c-.01,0-.022-.014-.034-.017a.758.758,0,0,0-.15-.036c-.1-.006-.194,0-.291,0s-.182-.04-.279-.031-.2,0-.336,0a2.889,2.889,0,0,0-.48.021c-.061.016-.063.009-.063.055s.045.03.07.034.072-.052.111-.022.068.036.107,0a.052.052,0,0,1,.051,0c.043.04.094.025.142.025a.186.186,0,0,0,.116-.021c.025-.017.081.019.123.021.1,0,.2,0,.3,0a.5.5,0,0,1,.2.024.63.63,0,0,0,.278.031c.032,0,.065,0,.1,0a.336.336,0,0,1,.226.055c.02.014.059.034.069.025.05-.039.074.01.108.026.008,0,.012.012.018.019a.065.065,0,0,1-.022.013.776.776,0,0,1-.182.03c-.119-.007-.24,0-.359,0s-.232-.017-.348-.027c-.02,0-.04-.014-.061-.018s-.065-.018-.077-.007c-.053.052-.1.006-.144-.008a.293.293,0,0,0-.115-.021.561.561,0,0,1-.291-.066c-.009,0-.025-.009-.029-.006-.075.085-.173.025-.259.043-.081-.068-.161-.013-.234.013a.158.158,0,0,1-.1.012.344.344,0,0,0-.228,0c-.08.016-.168.077-.253.007a.042.042,0,0,0-.04,0c-.046.047-.1.024-.155.025-.143,0-.285,0-.429,0-.022,0-.057,0-.063.009-.04.071-.1.037-.136.015-.058-.031-.1-.007-.159,0a1.408,1.408,0,0,1-.306.035c-.027,0-.072.032-.083.022-.083-.08-.2.057-.276-.049a.024.024,0,0,0-.009.005c-.067.064-.15.043-.229.049a.113.113,0,0,0-.068.031c-.013.013-.01.041-.013.063-.006.049-.01.052-.056.029-.019-.01-.048-.015-.055-.031-.03-.061-.068-.012-.1-.008s-.05.043-.076.044-.046-.037-.072-.045-.063,0-.058.045a.055.055,0,0,1-.057.062c-.037,0-.02-.032-.026-.051s-.012-.03-.018-.03c-.048,0-.1-.017-.14.031a.381.381,0,0,1-.1.068c-.012.007-.041.006-.045,0-.035-.064-.083-.01-.124-.015s-.04,0-.048.058c0,.009-.023.023-.024.022-.044-.043-.087-.007-.13,0a.426.426,0,0,0-.266.129.1.1,0,0,1-.066.036c-.119-.012-.216.084-.334.063-.056.042-.129.01-.189.047-.017.011-.043.005-.041.038a.166.166,0,0,1,0,.055.069.069,0,0,1-.108.035c-.021-.017-.038-.04-.06-.058a.059.059,0,0,0-.035-.011c-.031.05-.09.007-.123.037a.356.356,0,0,0-.086.1c-.014.032-.033.023-.053.025-.035,0-.033-.021-.033-.044,0-.039-.015-.047-.05-.031s-.057.018-.084.031c-.012.006-.02.019-.03.029a.248.248,0,0,0,.031.016c.035.015.072.028.107.043s.044.037.066.037.045-.021.067-.035.058-.046.062-.042c.048.045.076.013.112-.017a.085.085,0,0,1,.072,0c.016.007.036.042.031.052a.142.142,0,0,1-.059.047c-.038.02-.077.036-.116.054-.006,0-.009.013-.013.019a.086.086,0,0,0,.023.01.621.621,0,0,0,.229-.047,1.264,1.264,0,0,1,.138-.035,1.042,1.042,0,0,0,.167-.031.689.689,0,0,1,.282-.054c.037,0,.086.015.108,0,.047-.04.1-.016.143-.025A.686.686,0,0,1,20,4.927a.4.4,0,0,0,.168-.031,1.331,1.331,0,0,1,.282-.051.365.365,0,0,0,.175-.048.247.247,0,0,1,.15-.04c.13,0,.259-.017.389-.026,0,0,.012,0,.013,0,.044-.06.117-.01.175-.048s.14-.006.188-.04.063.022.1,0a.37.37,0,0,1,.229-.047c.087.005.175,0,.263,0a.347.347,0,0,0,.08-.007.515.515,0,0,1,.292,0c.012,0,.031.008.037,0,.042-.045.1-.016.143-.022.032,0,.071.011.1,0,.087-.051.178-.013.267-.025.043.044.107.023.159.05s.117,0,.177.006c.008,0,.015.007.023.01-.008.01-.013.024-.023.029a.178.178,0,0,1-.062.016c-.041,0-.084,0-.124,0a1,1,0,0,0-.127.027.5.5,0,0,1-.1.027c-.115,0-.23,0-.346,0s-.223.023-.334.025a1.609,1.609,0,0,1-.32.03s-.011,0-.013,0c-.044.051-.1.016-.155.027s-.1.022-.154.027c-.144.011-.288.019-.431.028-.009,0-.02,0-.028,0-.126.077-.274.041-.409.08-.109.031-.227.03-.335.063a.575.575,0,0,1-.142.023.377.377,0,0,0-.087.022,1.374,1.374,0,0,1-.448.089.11.11,0,0,0-.054,0,1.559,1.559,0,0,1-.495.107c-.016,0-.031.016-.047.018a1.91,1.91,0,0,1-.335.092c-.058.049-.134.03-.2.05a.791.791,0,0,1-.155.058.457.457,0,0,0-.173.051.957.957,0,0,1-.268.087.694.694,0,0,0-.219.074c-.072.039-.167.015-.227.086a.052.052,0,0,1-.038.008A.229.229,0,0,0,17.4,5.8a.151.151,0,0,1-.083.031.609.609,0,0,0-.236.067c-.048.018-.1.05-.146.04a.6.6,0,0,0-.172,0,.275.275,0,0,0-.19.046A.087.087,0,0,1,16.5,6a.5.5,0,0,0-.349.007c-.013,0-.017.014-.04.009-.1-.025-.2-.042-.283.06-.018.023-.062.026-.095.035-.017.005-.047,0-.051.007-.029.063-.1.044-.147.084s-.113.043-.16.078a.31.31,0,0,1-.257.082c-.007,0-.016.006-.023.01a4.254,4.254,0,0,0-.392.187.522.522,0,0,1-.2.074.684.684,0,0,0-.153.035.89.89,0,0,0-.361.163c-.011.011-.018.024-.029.035-.037.04-.069.1-.114.114-.1.025-.159.1-.238.155a.635.635,0,0,0-.084.064.036.036,0,0,0,0,.036.038.038,0,0,0,.036.009.249.249,0,0,0,.067-.038c.02-.017.043-.027.056,0a.082.082,0,0,1-.008.064c-.034.06-.108.018-.156.058-.023.019-.019-.031-.033-.041a.055.055,0,0,0-.046,0,1.835,1.835,0,0,1-.236.1.377.377,0,0,0-.173.118.065.065,0,0,0-.01.023h.024c.027,0,.066.006.078-.009.051-.063.138-.052.2-.1.02-.016.067-.031.079-.02.037.034-.034.055-.021.092-.013,0-.034.013-.036.009-.023-.034-.039-.018-.061,0s-.049.051-.074.051c-.107,0-.129.077-.156.151a.431.431,0,0,1-.241.208.116.116,0,0,0-.093.045.155.155,0,0,1-.152.069.118.118,0,0,0-.095.081c0,.046.043.016.061.029a.737.737,0,0,1,.09.084.028.028,0,0,1,0,.028.105.105,0,0,1-.119.03.25.25,0,0,1-.126-.061c-.027-.034-.042-.011-.062,0s-.055.024-.063.044c-.03.07-.1.093-.147.145a.082.082,0,0,1-.084.032.113.113,0,0,0-.115.056c-.03.038-.051.091-.09.113a.547.547,0,0,0-.182.187.1.1,0,0,0-.008.029c.012,0,.028,0,.037,0a.969.969,0,0,0,.1-.068c.062-.051.119-.109.186-.154a.393.393,0,0,1,.161-.066c.106-.015.116-.005.14-.075.014-.043.033-.045.065-.044s.044,0,.056-.038.118-.063.154-.039,0,.065-.043.114a.23.23,0,0,0-.019.02.051.051,0,0,0-.006.019c.012,0,.03.009.037,0a.781.781,0,0,1,.157-.123,1.079,1.079,0,0,0,.25-.167,1.037,1.037,0,0,1,.21-.124,2.462,2.462,0,0,0,.533-.318.442.442,0,0,1,.143-.086.478.478,0,0,0,.182-.129.373.373,0,0,1,.126-.095c.123-.035.214-.125.331-.171a1.341,1.341,0,0,0,.277-.2c.048-.035.116-.031.15-.069a1.208,1.208,0,0,1,.2-.132.387.387,0,0,1,.176-.07.318.318,0,0,0,.163-.077.31.31,0,0,1,.224-.092.129.129,0,0,0,.1-.034.914.914,0,0,1,.159-.081.765.765,0,0,1,.17-.09.629.629,0,0,1,.2-.044.111.111,0,0,0,.05-.012c.1-.041.215-.049.285-.146a.015.015,0,0,1,.011-.006l.064.013c-.006.016-.012.032-.018.047-.023.056-.085.04-.123.069l-.116.087a.039.039,0,0,1-.025,0c-.078-.013-.115.057-.172.085a.038.038,0,0,0-.012.034.036.036,0,0,0,.03.018.3.3,0,0,0,.089-.017,1.039,1.039,0,0,1,.262-.1.186.186,0,0,0,.094-.039c.084-.065.195,0,.279-.061.071.064.128-.006.191-.02a1.236,1.236,0,0,1,.123-.034.332.332,0,0,0,.218-.111A.665.665,0,0,1,17.883,6a.5.5,0,0,0,.078-.012.785.785,0,0,1,.3-.072c.014,0,.029-.022.045-.024a3.271,3.271,0,0,0,.31-.12.33.33,0,0,0,.1-.067c.024-.018.047-.039.07-.059a.431.431,0,0,0-.108,0,.6.6,0,0,0-.18.064.273.273,0,0,1-.175.045c-.109-.009-.2.054-.309.059-.028,0-.053.046-.081.069-.01.007-.026.005-.037.011-.1.055-.207.02-.311.048a1.286,1.286,0,0,0-.259.077c-.013.007-.04.011-.045,0-.033-.039-.054-.011-.08.008-.006,0-.029,0-.035-.011a.039.039,0,0,1,0-.036.188.188,0,0,1,.153-.063c.02,0,.054-.006.058-.017a.129.129,0,0,1,.157-.093.059.059,0,0,0,.036-.011c.113-.081.262-.051.377-.126a.029.029,0,0,1,.027,0c.046.042.079.05.109-.021.008-.018.07-.006.1-.023a.659.659,0,0,1,.228-.084.94.94,0,0,1,.261-.039.713.713,0,0,0,.206-.014.452.452,0,0,0,.173-.085.242.242,0,0,1,.28-.043c.015.009.043,0,.064,0a.311.311,0,0,1,.074-.018.218.218,0,0,0,.17-.059.074.074,0,0,1,.044-.024.391.391,0,0,0,.161-.047.079.079,0,0,1,.1.017c.045.042.1.076.143.119.027.027.035-.005.05-.006.067,0,.126-.048.2-.031a.085.085,0,0,0,.054,0,1.061,1.061,0,0,1,.227-.053.647.647,0,0,1,.238-.028c.04-.043.093-.021.141-.028s.1-.022.154-.027c.135-.012.268,0,.4-.022s.289-.042.433-.056.268-.031.4-.033a.158.158,0,0,1,.1.021c.022.015.072-.015.11-.021a.049.049,0,0,1,.036.01c.019.017.033.017.059.007a.437.437,0,0,1,.284-.04.615.615,0,0,0,.156.021c.035,0,.074.014.1-.026.025.037.064.027.1.027.175,0,.35,0,.526,0,.03,0,.063.011.09-.018A.051.051,0,0,1,24,5.036c.067.046.141.018.211.027a1.35,1.35,0,0,0,.21.025c.187-.007.369.05.556.031.015,0,.032.013.048.016a.706.706,0,0,0,.205.037.225.225,0,0,1,.16.027.117.117,0,0,0,.139.026c.089-.044.179-.011.267-.022.017,0,.044.02.051.014a.04.04,0,0,1,.068.008.129.129,0,0,0,.154.058c.065-.022.123.061.185,0,.093.052.205.028.3.076.018.009.05,0,.074-.012.039-.012.084-.028.111.009a.188.188,0,0,0,.168.066.593.593,0,0,1,.135.04c.021.006.051.02.062.011.072-.058.049.016.045.035a.263.263,0,0,1-.042.079c-.014.022-.028.01-.049.006a.75.75,0,0,0-.236-.036.109.109,0,0,1-.052-.007.7.7,0,0,0-.271-.049.307.307,0,0,1-.132-.015.546.546,0,0,0-.232-.035.555.555,0,0,1-.13,0c-.081-.011-.166,0-.248,0s-.158-.018-.238-.027A.914.914,0,0,1,25.18,5.4c-.011-.005-.034-.006-.04,0-.037.044-.085.024-.128.025-.138,0-.277-.007-.414,0s-.278-.03-.417-.03c-.189,0-.378.008-.567,0s-.379.036-.569.031c-.1,0-.194,0-.291,0-.023,0-.054-.01-.068,0-.053.044-.113.018-.17.026s-.121.021-.182.027a2.091,2.091,0,0,0-.377.024c-.106.029-.224.013-.333.035-.08.015-.161.011-.237.03a1.147,1.147,0,0,1-.142.023.811.811,0,0,1-.14.025c-.1-.005-.193.051-.293.03-.06.045-.137.007-.194.032a.577.577,0,0,1-.2.023c-.009,0-.019,0-.028,0a.146.146,0,0,0-.134.155c0,.009,0,.018,0,.028-.013.088-.048.118-.141.121a.154.154,0,0,0-.1.025.16.16,0,0,1-.1.029,1.364,1.364,0,0,0-.407.089c-.081.024-.176.012-.244.078-.007.007-.028,0-.041,0-.038.008-.076.017-.113.028-.02.006-.04.028-.058.025-.1-.011-.178.085-.281.059a.188.188,0,0,1-.158.053c-.064,0-.107.048-.17.061-.086.016-.167.062-.254.088A1,1,0,0,1,18,6.607a1.028,1.028,0,0,0-.2.068c-.089.023-.175.065-.265.093a1.223,1.223,0,0,0-.18.066.326.326,0,0,1-.186.057c-.024,0-.052.027-.077.043a.337.337,0,0,1-.054.037c-.17.068-.341.135-.506.216-.088.042-.179.081-.27.114a1.29,1.29,0,0,0-.173.083c-.057.03-.115.057-.171.088a2.621,2.621,0,0,1-.235.134,1.244,1.244,0,0,0-.244.112A1.1,1.1,0,0,1,15.3,7.8a1.584,1.584,0,0,0-.284.144c-.089.073-.207.1-.284.188-.007.009-.024.008-.035.014l-.384.208a.191.191,0,0,0-.044.027.311.311,0,0,1-.145.087.536.536,0,0,0-.142.089c-.008.005-.015.019-.02.017-.057-.013-.081.031-.114.061a.537.537,0,0,1-.062.051,2.354,2.354,0,0,0-.205.137,1.43,1.43,0,0,1-.265.165.672.672,0,0,0-.14.1,1.227,1.227,0,0,1-.186.153,1.818,1.818,0,0,0-.385.306.967.967,0,0,1-.1.083c-.1.08-.2.159-.3.242a1.387,1.387,0,0,1-.223.2c-.021.011-.032.041-.049.062a.275.275,0,0,1-.06.071c-.167.1-.259.278-.427.373-.01.054-.07.058-.1.1a.924.924,0,0,1-.088.116c-.142.153-.288.3-.429.459a1.023,1.023,0,0,0-.168.207.93.93,0,0,1-.145.189,2.776,2.776,0,0,0-.227.279c-.06.088-.135.164-.193.253s-.126.16-.181.244a1.636,1.636,0,0,0-.145.215.578.578,0,0,1-.164.222c-.095.189-.222.359-.323.544-.014.027-.032.051-.048.077a.364.364,0,0,0-.057.087.685.685,0,0,1-.144.26,1.812,1.812,0,0,0-.18.311,1.109,1.109,0,0,1-.186.324s0,.008,0,.013c-.013.12-.116.2-.14.316-.007.036-.044.058-.058.1a3.684,3.684,0,0,1-.163.388.864.864,0,0,0-.069.137,1.709,1.709,0,0,1-.067.166,1.173,1.173,0,0,0-.078.174,1.177,1.177,0,0,1-.088.242.386.386,0,0,0-.028.085.807.807,0,0,1-.11.259.163.163,0,0,0-.029.043,2.183,2.183,0,0,1-.114.285c-.012.029-.033.054-.025.086s-.018.067-.027.1,0,.073-.012.106a1.079,1.079,0,0,0-.075.177c-.011.061-.069.114-.075.174s-.072.11-.075.178a.072.072,0,0,1-.029.055c-.056.025-.054.074-.073.121a1.573,1.573,0,0,1-.073.232,1.04,1.04,0,0,0-.076.231.7.7,0,0,1-.031.112c-.042.084-.09.166-.136.248-.006.011-.013.034-.01.036.059.036,0,.069,0,.1a1.536,1.536,0,0,0-.032.224.27.27,0,0,1-.042.133c-.024.046-.074.023-.113.025s-.03.018-.038.041a.46.46,0,0,0-.054.241c-.042.05-.013.115-.03.168a1.013,1.013,0,0,0-.054.323c0,.021-.015.041-.017.062,0,.065-.05.124-.014.2a.109.109,0,0,1-.017.115.213.213,0,0,0-.033.109.557.557,0,0,1-.025.156c-.02.05-.007.11-.027.168a.773.773,0,0,0-.006.192c0,.066-.02.131-.026.2-.011.134-.019.269-.029.4a.28.28,0,0,1-.013.036c0,.015-.014.04-.008.045.039.035.015.078.021.117a2.694,2.694,0,0,1-.028.389c0,.226,0,.452,0,.677a.46.46,0,0,0,.025.239.07.07,0,0,1,0,.066c-.042.039-.024.086-.024.129,0,.176,0,.352.022.528.021.215.005.433,0,.649a.2.2,0,0,1-.005.081.243.243,0,0,0,0,.229c.012.024.027.061.017.08a.326.326,0,0,0-.014.173c0,.061-.023.126.024.184a.052.052,0,0,1,0,.051c-.039.034-.021.077-.023.116a.936.936,0,0,0,.053.364,1.067,1.067,0,0,1,.029.168c.007.043-.019.092.027.128,0,0,0,.032-.01.034a.241.241,0,0,1-.111.029c-.033-.007-.044-.046-.046-.088a1.384,1.384,0,0,0-.072-.356c-.005-.016-.014-.041-.007-.05.038-.046-.011-.086-.008-.128,0-.019-.018-.039-.021-.06-.011-.1-.018-.2-.029-.293,0-.017-.014-.032-.016-.048-.014-.087-.064-.174-.035-.259s-.028-.179,0-.269c-.077-.1-.034-.221-.08-.326-.017-.039,0-.092,0-.137A1.315,1.315,0,0,0,6.1,23.73a1.022,1.022,0,0,1-.027-.127.9.9,0,0,0-.029-.307c-.016-.038.033-.069,0-.118s0-.1-.006-.149.028-.119-.025-.169a.026.026,0,0,1,0-.026c.051-.045.024-.1.024-.155a.438.438,0,0,0-.014-.173c-.018-.045.013-.108.016-.164,0-.088,0-.175,0-.263A.208.208,0,0,1,6.049,22c.038-.092.034-.195.073-.288a.116.116,0,0,0-.035-.136.529.529,0,0,1-.071-.245c.008-.033.033-.059.029-.1s-.018-.072.016-.1-.041-.057-.018-.1c.006-.011.005-.028.013-.036.023-.021,0-.03-.01-.039s-.028-.028-.007-.061A.387.387,0,0,0,6.1,20.63c-.013-.107.029-.218-.027-.321,0-.007.005-.028.014-.034.059-.044.048-.1.03-.16a.072.072,0,0,1,0-.04A.51.51,0,0,0,6.1,19.8a.089.089,0,0,1,.013-.086.35.35,0,0,0,.064-.223c0-.015.013-.031.016-.047a.5.5,0,0,0,.038-.206.251.251,0,0,1,.029-.167.292.292,0,0,0,.025-.155.69.69,0,0,1,.049-.256.438.438,0,0,0,.064-.265.275.275,0,0,1,.052-.213.343.343,0,0,0,.029-.112,1.6,1.6,0,0,0,.067-.277.074.074,0,0,1,.017-.034.146.146,0,0,0,.029-.1.132.132,0,0,1,.013-.063,1.184,1.184,0,0,0,.106-.3c.012-.091.081-.165.073-.26.054-.051.012-.127.054-.186.069-.1.075-.225.136-.331a.69.69,0,0,0,.039-.15,1.513,1.513,0,0,0,.051-.158.636.636,0,0,1,.07-.191c.034-.065.085-.121.118-.187a.332.332,0,0,0,.06-.184.2.2,0,0,1,.037-.121,1.383,1.383,0,0,0,.1-.234c.021-.045.017-.1.068-.141A.2.2,0,0,0,7.586,15a.3.3,0,0,1,.065-.181c.046-.069.08-.143.122-.214.015-.026.033-.051.048-.076a.774.774,0,0,0,.1-.167,1.128,1.128,0,0,1,.093-.21c.04-.075.087-.149.132-.223.022-.038.069-.069.073-.107.009-.072.064-.113.092-.17s.055-.116.088-.171c.049-.081.1-.16.156-.24a.712.712,0,0,0,.144-.245c0-.019.028-.034.042-.051a.705.705,0,0,0,.143-.176c.047-.128.182-.193.219-.324.083-.07.1-.189.2-.251,0,0,.008-.008.008-.01-.015-.064.04-.086.071-.123a.6.6,0,0,1,.144-.147.262.262,0,0,0,.114-.117.516.516,0,0,1,.163-.208.537.537,0,0,0,.116-.188c.036-.079.032-.079.136-.151a1.511,1.511,0,0,0,.165-.137,2.62,2.62,0,0,0,.2-.2c.057-.066.158-.087.186-.182.076,0,.066-.087.115-.118.12-.078.174-.218.282-.309.028-.089.106-.135.168-.192.108-.1.26-.153.308-.311a.018.018,0,0,1,.01-.01.778.778,0,0,0,.263-.262c.019-.026.042-.059.069-.067a.218.218,0,0,0,.131-.112c.063-.124.185-.181.279-.267.074-.067.16-.125.238-.19s.162-.143.243-.215c.017-.015.03-.04.049-.047a.691.691,0,0,0,.231-.177c.074-.07.179-.1.242-.185.019-.027.058-.039.084-.061.008-.007.008-.024.011-.037s-.021,0-.029,0c-.027.015-.051.032-.077.048-.076.051-.143.114-.224.159a1.493,1.493,0,0,0-.373.271.452.452,0,0,1-.083.063c-.119.075-.23.162-.342.248-.072.055-.13.124-.2.177a3,3,0,0,0-.357.3.4.4,0,0,1-.059.058,5.047,5.047,0,0,0-.464.382c-.07.059-.131.137-.238.127-.039.043-.114.028-.144.088-.019.039-.069.044-.093.084s-.083.012-.124.022c-.012,0-.029,0-.037.011-.054.054-.142.054-.188.109s-.091.033-.127.065a.916.916,0,0,1-.169.012c-.088-.037-.089-.038-.153.035a.906.906,0,0,1-.08.1c-.038.033-.031.11-.1.108a.864.864,0,0,1-.086.145.283.283,0,0,0-.087.154.2.2,0,0,1-.092.157c-.064.059-.1.147-.183.186-.015.007-.024.025-.035.04a.632.632,0,0,1-.284.252.373.373,0,0,0-.1.067c-.038.032-.068.082-.111.1-.1.04-.1.138-.14.21a.708.708,0,0,1-.05.1,2.451,2.451,0,0,0-.251.421.76.76,0,0,1-.213.255c-.033.029-.07.048-.082.091-.024.086-.1.125-.156.181a.405.405,0,0,1-.076.049.185.185,0,0,1-.03.011c0-.013,0-.029,0-.037.032-.042.022-.106.076-.136.015-.008.019-.037.028-.056a.721.721,0,0,1,.052-.1A2.14,2.14,0,0,1,8,12.522a2.917,2.917,0,0,1,.321-.407.066.066,0,0,0,.013-.022,1.36,1.36,0,0,1,.27-.372c.013-.012.03-.026.033-.041a.656.656,0,0,1,.191-.3,1.207,1.207,0,0,0,.216-.3A.175.175,0,0,1,9.121,11a.253.253,0,0,0,.141-.187c0-.01,0-.019,0-.029s-.029,0-.037.009a1.06,1.06,0,0,1-.184.157c-.02.012-.029.042-.043.064a1.616,1.616,0,0,1-.115.173c-.1.117-.206.23-.313.341a.12.12,0,0,0-.042.108.087.087,0,0,1-.035.083c-.041.037-.072.093-.119.112-.066.027-.05.094-.093.129a.45.45,0,0,0-.122.2.351.351,0,0,1-.094.155,1.788,1.788,0,0,0-.226.294,1.765,1.765,0,0,0-.127.223.734.734,0,0,0-.126.238c-.052.025-.039.09-.07.122a2.985,2.985,0,0,0-.284.437.664.664,0,0,0-.063.153.533.533,0,0,1-.1.2,1.138,1.138,0,0,0-.121.224.69.69,0,0,1-.089.142.618.618,0,0,0-.074.122c-.019.034-.042.065-.061.1-.045.083-.091.165-.132.25-.013.026,0,.065-.017.089-.048.082-.1.16-.154.241a.6.6,0,0,0-.024.059,1.49,1.49,0,0,1-.211.369,1.806,1.806,0,0,0-.093.211.416.416,0,0,1-.149.283.047.047,0,0,0-.016.032c.014.067-.038.1-.072.137s-.066.045-.069.1a1.26,1.26,0,0,1-.137.329c-.034.047-.072.11-.048.154a.081.081,0,0,1-.009.089c-.029.053-.03.123-.092.157-.011.006-.013.031-.015.048a.272.272,0,0,1-.006.08.72.72,0,0,0-.054.2.519.519,0,0,1-.034.137c-.025.049-.065.093-.085.144a.7.7,0,0,0-.031.167,1.344,1.344,0,0,1-.015.188,1.044,1.044,0,0,1-.08.174s0,.009,0,.014c.008.1-.077.178-.062.278-.068.076-.049.169-.048.256a.26.26,0,0,1-.043.195.181.181,0,0,0-.013.05.615.615,0,0,0-.016.09A1.1,1.1,0,0,0,5,19.3c0,.027.012.04,0,.069a1,1,0,0,0-.09.211.985.985,0,0,0,0,.165.919.919,0,0,0-.024.154c.01.11-.039.213-.031.321,0,.008-.007.016-.01.023a2.291,2.291,0,0,0-.1.554.2.2,0,0,0,.01.132c.045.057-.03.086-.015.136s-.019.083-.023.126,0,.1,0,.152c0,0,0,.011,0,.014-.04.046-.012.108-.031.153a.435.435,0,0,0-.024.155.079.079,0,0,1-.007.039.2.2,0,0,0-.048.146c.009.048-.024.09-.014.138.007.031.024.073.011.091-.038.051-.02.1-.024.156a.573.573,0,0,1-.012.161.464.464,0,0,0-.015.16c0,.055,0,.111,0,.166a.124.124,0,0,1,0,.028.7.7,0,0,0,0,.393c0,.017.006.044,0,.052-.062.053.025.095.006.147s-.043.114-.024.151a.277.277,0,0,1,.021.143c0,.189,0,.378,0,.567,0,.026,0,.061.012.077a.273.273,0,0,1,.045.176.474.474,0,0,1,0,.172,1.455,1.455,0,0,0-.006.317c0,.042-.016.094,0,.122.036.053.006.11.027.155a.489.489,0,0,1,.026.169c.009.073.023.147.039.219a2.1,2.1,0,0,1,.067.289,1.1,1.1,0,0,0,.057.351c.019.047-.011.1.027.155a.415.415,0,0,1,.053.157c.017.085.073.157.086.241.036.231.128.447.173.676.012.061.04.121.054.185s.043.119.055.185.065.114.054.185c.073.164.112.341.177.507s.116.321.178.48.122.327.2.486c.038.082.078.163.108.246a4.493,4.493,0,0,0,.222.517,1.459,1.459,0,0,0,.142.287,3.7,3.7,0,0,0,.252.532c.059.137.141.264.213.4.018.034.03.071.049.1.084.141.177.276.252.422.086.165.192.317.286.476.069.115.158.22.218.339a5.453,5.453,0,0,0,.3.455c.1.159.233.3.334.457.111.175.245.332.371.495.089.116.18.232.276.345.12.142.248.279.358.43.063.087.148.156.216.242a3.929,3.929,0,0,0,.35.381c.309.3.6.621.924.9.161.138.314.283.476.42.119.1.244.2.357.3.151.141.317.261.478.386.043.033.081.082.144.086.012,0,.023.017.034.029a.4.4,0,0,0,.051.061c.095.07.192.138.288.206l.385.274c.2.14.4.271.608.4.081.05.16.109.24.159.174.109.357.2.535.308.163.1.327.189.494.277.215.114.433.223.65.332.08.04.163.074.244.112s.169.081.256.116c.142.058.28.124.42.188.062-.026.08.045.128.059.218.06.416.176.633.239.12.035.225.1.347.133.177.045.347.118.52.177a2.506,2.506,0,0,0,.342.109c.225.042.436.133.659.18.125.027.248.075.374.095.061.009.118.03.177.042s.126.027.189.046a.9.9,0,0,0,.268.056.559.559,0,0,1,.1.025.471.471,0,0,1,.106.01,1.776,1.776,0,0,0,.3.071c.114.029.235.028.349.06a.613.613,0,0,0,.21.026c.014,0,.034-.006.041,0,.045.05.1.017.155.027s.112.019.168.028a2,2,0,0,1,.236.033,1.145,1.145,0,0,0,.311.046c.083,0,.156.039.238.032.048.054.112.022.168.027a.394.394,0,0,0,.191,0c.082-.041.161-.008.24-.022.109.066.241-.008.351.055a.031.031,0,0,0,.027,0,.2.2,0,0,1,.186,0,.843.843,0,0,0,.165,0,.44.44,0,0,1,.16.014.488.488,0,0,0,.161.012c.046,0,.093,0,.139,0a.193.193,0,0,0,.113-.028c.039.046.076,0,.116,0a.339.339,0,0,1,.164,0,.3.3,0,0,0,.143.021c.047,0,.1.022.143-.024,0,0,.03.012.045.016a.1.1,0,0,0,.051.008,1.329,1.329,0,0,1,.434-.055.248.248,0,0,0,.17-.025.069.069,0,0,1,.066,0c.049.04.1.023.156.025s.129,0,.193,0c.024,0,.063.031.069.024.048-.049.106-.015.157-.025.03-.006.059,0,.09-.018s.07-.007.106-.01.045-.055.08-.013.064-.037.093-.013.071.029.118,0a.344.344,0,0,1,.152-.03,2.3,2.3,0,0,0,.252-.024,2.088,2.088,0,0,0,.241-.053.411.411,0,0,0,.2-.113.162.162,0,0,1,.237-.023.115.115,0,0,0,.061.017,1.278,1.278,0,0,0,.28-.022,1.814,1.814,0,0,1,.347-.032c.022,0,.051.008.068,0a1.958,1.958,0,0,1,.357-.105c.136-.049.283-.072.423-.115a1.7,1.7,0,0,0,.35-.123,1.45,1.45,0,0,1,.21-.092c.041-.015.092-.022.137-.038a1.135,1.135,0,0,1,.145-.049c.081-.017.151-.065.229-.081a1.178,1.178,0,0,0,.327-.114.757.757,0,0,1,.085-.029,1.514,1.514,0,0,0,.248-.1,1.472,1.472,0,0,1,.371-.174,2.209,2.209,0,0,0,.377-.158c.084-.041.166-.092.25-.131.109-.05.215-.1.324-.153a.7.7,0,0,1,.2-.055.861.861,0,0,0,.4-.171,1.635,1.635,0,0,1,.281-.16.311.311,0,0,0,.094-.041c.024-.021.064-.024.092-.042a.852.852,0,0,1,.144-.088,1.311,1.311,0,0,0,.16-.082.325.325,0,0,0,.087-.055,1.849,1.849,0,0,0,.206-.247c.046-.072.119-.078.18-.113a.745.745,0,0,0,.346-.1,1.72,1.72,0,0,0,.175-.113,1.565,1.565,0,0,1,.208-.063.761.761,0,0,0,.321-.255.263.263,0,0,1,.086-.058.68.68,0,0,0,.219-.166.427.427,0,0,1,.168-.131c.067-.033.08-.122.161-.141.036-.009.067-.046.1-.051a.1.1,0,0,0,.084-.054.436.436,0,0,1,.149-.114c.119,0,.178-.084.23-.174a.581.581,0,0,1,.07-.122,1.344,1.344,0,0,1,.234-.2,1.612,1.612,0,0,0,.354-.28.213.213,0,0,1,.16-.083.094.094,0,0,0,.058-.025c.115-.1.227-.208.342-.311.025-.023.061-.036.085-.06a.443.443,0,0,0,.06-.086.879.879,0,0,1,.136-.165,2.306,2.306,0,0,0,.258-.279c.036-.05.058-.108.1-.154.081-.1.167-.19.254-.282.072-.077.148-.152.225-.225a1.873,1.873,0,0,1,.161-.142.453.453,0,0,0,.139-.188.427.427,0,0,1,.089-.143,1.136,1.136,0,0,0,.224-.253.821.821,0,0,1,.187-.241c.013-.011.031-.03.029-.042-.008-.053.034-.071.06-.1a.937.937,0,0,0,.077-.079,3.137,3.137,0,0,1,.285-.365.5.5,0,0,0,.077-.12,1.087,1.087,0,0,1,.128-.251,1.8,1.8,0,0,0,.151-.2c.047-.068.083-.143.131-.211a3.252,3.252,0,0,0,.2-.384.869.869,0,0,1,.041-.094,1.022,1.022,0,0,1,.077-.079.429.429,0,0,0,.12-.2.871.871,0,0,1,.088-.2c.028-.067.081-.123.108-.19s.065-.129.092-.2a.7.7,0,0,1,.1-.207.315.315,0,0,0,.072-.136.468.468,0,0,1,.085-.144c.07-.1.2-.169.185-.323,0,0,.008-.006.009-.01a1.433,1.433,0,0,1,.149-.325.349.349,0,0,0,.029-.085A1.184,1.184,0,0,1,41.827,30c.048-.083.057-.179.1-.264s.069-.147.108-.218a1.759,1.759,0,0,1,.154-.3.149.149,0,0,0,.031-.1,1.233,1.233,0,0,1,.061-.405c.025-.1.05-.2.07-.3.016-.082.061-.152.073-.233.01-.064.072-.131.039-.185a.149.149,0,0,1,.027-.179,1.225,1.225,0,0,0,.176-.523,1.668,1.668,0,0,1,.031-.208,1.152,1.152,0,0,1,.05-.186c.031-.063.033-.134.057-.2a.834.834,0,0,0,.055-.213,1.021,1.021,0,0,1,.026-.1c.008-.034.008-.067.018-.1a4.15,4.15,0,0,0,.092-.432c.01-.059,0-.12,0-.179a.321.321,0,0,1,.04-.148c.038-.054.019-.1.014-.152,0,0,0-.008.005-.012a1.365,1.365,0,0,0,.05-.283.514.514,0,0,1,.024-.225c.018-.035-.009-.089.028-.124-.05-.065-.022-.141-.023-.211s-.024-.145.025-.211a.027.027,0,0,0-.006-.024c-.036-.029,0-.049,0-.078a.523.523,0,0,0,.034-.2.122.122,0,0,1,.016-.1.127.127,0,0,0,.008-.092c-.01-.049-.051-.1,0-.143-.047-.053,0-.106,0-.156C43.2,23.357,43.252,23.193,43.243,23.025ZM20.982,4.592a.79.79,0,0,1-.24.056.236.236,0,0,0-.164.043.265.265,0,0,1-.206.039.429.429,0,0,0-.24.049.371.371,0,0,1-.22.036c-.042,0-.088-.018-.131.017-.064.053-.144.035-.219.035-.008,0-.018-.015-.022-.025a.024.024,0,0,1,.009-.022.328.328,0,0,1,.1-.032.513.513,0,0,0,.215-.051.842.842,0,0,1,.292-.059.407.407,0,0,0,.19-.043c.052-.034.124,0,.176-.042.1.018.194-.035.293-.027a.16.16,0,0,0,.107-.042c.042-.03.058,0,.077.019S21.014,4.583,20.982,4.592ZM22.4,4.4a.418.418,0,0,1-.1.053.217.217,0,0,1-.122,0c-.04-.016-.068.052-.1.006-.081.034-.172,0-.247.031s-.128,0-.182.024a.5.5,0,0,1-.169.025c-.084.008-.167.021-.249.032V4.565a.442.442,0,0,1-.069,0,.15.15,0,0,1-.041-.021c.01-.011.018-.027.031-.032a.47.47,0,0,1,.1-.028.546.546,0,0,1,.1,0c.094,0,.182-.046.278-.029.007,0,.015-.008.022-.012l.152-.042c.191.019.377-.033.567-.028H22.4s.01.007.009.009A.03.03,0,0,1,22.4,4.4ZM15.511,6.5a1.575,1.575,0,0,1-.2.144c-.053.027-.087.093-.16.081a3.345,3.345,0,0,0-.358.2c-.076.054-.165.073-.239.125a.513.513,0,0,1-.244.113c-.015,0-.029.019-.041.032a.523.523,0,0,1-.249.168.3.3,0,0,0-.106.076c-.038.033-.067.088-.11.1s-.076.046-.114.059a.619.619,0,0,0-.257.179c-.03.034-.078.028-.117.054a1.43,1.43,0,0,0-.19.139.159.159,0,0,1-.142.045c-.05,0-.055,0-.028-.045a.168.168,0,0,1,.069-.068,1.02,1.02,0,0,0,.215-.151A.619.619,0,0,1,13.46,7.6c.1-.03.166-.11.253-.156.038-.02.061-.064.116-.057a.072.072,0,0,0,.056-.028c.056-.082.166-.085.224-.164.021-.028.066-.038.1-.054.011-.006.032,0,.038-.007.038-.043.065-.11.111-.126s.115-.006.163-.039c.029-.019.068-.027.083-.073.007-.02.07-.021.107-.033.008,0,.013-.011.02-.017a.827.827,0,0,1,.311-.176.412.412,0,0,0,.14-.059c.058-.05.143-.055.189-.11s.1.025.135-.024l.021.012A.124.124,0,0,1,15.511,6.5Zm11.536-1.5h-.041c-.034-.007-.081-.02-.127-.027s-.1.013-.142-.027c-.01-.009-.036,0-.054,0a.321.321,0,0,1-.192-.038.221.221,0,0,0-.1-.017.6.6,0,0,1-.3-.049.115.115,0,0,0-.09,0,.08.08,0,0,1-.108,0c-.042-.025-.108-.016-.146-.045s-.1.012-.136-.043c0-.006-.027,0-.04,0a.405.405,0,0,1-.28-.032c-.043-.035-.071.032-.1-.006s-.069-.015-.1-.017a.288.288,0,0,0-.119.011.168.168,0,0,1-.124,0,.667.667,0,0,0-.277-.067c-.018,0-.038-.021-.058-.024s-.067-.017-.062-.049.094-.085.119-.057c.048.055.085.028.128,0a.043.043,0,0,1,.036-.006c.028.02.041.064.094.028.018-.012.064.015.1.024a.158.158,0,0,1,.047.018c.024.018.046.041.069.061.029-.044.082-.006.111-.031s.053-.027.078,0c0,0,.008,0,.013,0,.054,0,.1-.057.152-.025a.11.11,0,0,0,.134,0c.093.038.21.01.282.1a.088.088,0,0,0,.071.029c.061.006.127-.024.182.027.044-.019.1-.015.137-.036a.175.175,0,0,1,.207.027.414.414,0,0,0,.18.069.311.311,0,0,0,.187,0,.15.15,0,0,1,.152.023c.093-.02.129.036.158.111C27.1,5,27.094,5.006,27.047,5.007Zm1.606,5.056a1.515,1.515,0,0,1,.283.072,3.95,3.95,0,0,1,.393.154c.064-.023.076.068.143.06a.3.3,0,0,1,.142.051.7.7,0,0,0,.285.114.128.128,0,0,1,.057.028c.04.025.079.07.12.074s.073.049.11.072a.749.749,0,0,0,.114.059.726.726,0,0,1,.163.075.961.961,0,0,1,.144.089c.027.027.08.027.119.043.015.007.027.025.039.038l-.044.016s-.01,0-.014,0c-.029.009-.063.033-.084.024s-.052-.047-.076-.072-.021-.035-.029-.033c-.077.012-.115-.069-.175-.077-.08-.01-.112-.07-.163-.111-.035-.027-.069-.054-.107-.077a.066.066,0,0,0-.046,0c-.091.022-.093.024-.116-.06-.008-.031-.028-.043-.044-.028-.057.057-.111.018-.159-.006a3.855,3.855,0,0,0-.626-.259c-.082-.023-.165-.046-.247-.072a.489.489,0,0,1-.128-.057.271.271,0,0,1-.059-.085C28.647,10.087,28.652,10.076,28.653,10.063Zm-1.329-.049a.378.378,0,0,1,.166.031,1.336,1.336,0,0,0,.332.1,1.462,1.462,0,0,0,.183.059,1.416,1.416,0,0,1,.2.032,1.585,1.585,0,0,1,.319.1,2.373,2.373,0,0,0,.286.112.655.655,0,0,0,.193.064c.057,0,.071.05.115.062.073.02.142.058.216.08a.442.442,0,0,1,.2.107c.073-.006.122.069.2.061.012,0,.032,0,.037.009.05.075.15.063.214.123s.142.06.2.1c.145.1.33.131.461.26a.25.25,0,0,0,.127.056.113.113,0,0,1,.069.034.3.3,0,0,0,.133.081.69.69,0,0,1,.269.185.517.517,0,0,0,.174.114.837.837,0,0,1,.239.158.165.165,0,0,0,.065.043.547.547,0,0,1,.117.084c.032.023.063.047.1.068s.079.02.081.076c0,.015.028.038.046.043a.455.455,0,0,1,.18.133c.043.038.089.072.135.108s.066.086.125.1a.081.081,0,0,1,.048.047c.024.074.091.1.146.145s.1.083.154.127c.1.087.2.172.291.265.062.062.116.128.184.185a2.021,2.021,0,0,1,.2.195c.037.04.087.064.118.113s.083.075.114.12a3.086,3.086,0,0,1,.309.41c.029.059.1.1.141.149s.07.09.1.137c.018.024.033.052.053.074a.814.814,0,0,1,.2.3.838.838,0,0,0,.151.214c.058.077.119.153.174.232a.688.688,0,0,1,.057.115c.012.027.013.065.033.082.09.077.114.2.2.279.033.033.012.085.055.118s.039.073.053.114a1.437,1.437,0,0,0,.116.215c.072.131.134.268.211.4a.954.954,0,0,1,.109.231c.021.08.066.149.084.228s.069.137.09.213a.818.818,0,0,1,.051.158.143.143,0,0,0,.014.05,1.707,1.707,0,0,1,.155.448c.009.053.054.1.055.158s.041.1.059.155c.03.094.042.193.077.285.01.028.016.058.028.085a.546.546,0,0,1,.059.212c0,.067.047.128,0,.2-.014.021.015.073.031.108a.486.486,0,0,1,.051.2.245.245,0,0,0,.038.135.265.265,0,0,1,.041.191.316.316,0,0,0,.034.166.2.2,0,0,1,.021.06c.006.036-.007.081.011.106.03.041-.019.058-.013.093.022.143.034.289.067.43a.262.262,0,0,1,.018.088,1.876,1.876,0,0,0,.033.431.472.472,0,0,1,0,.2.126.126,0,0,0,.015.13c.012.013.01.043.008.065a.412.412,0,0,0,0,.171.7.7,0,0,1,0,.179V22c0,.06,0,.12,0,.179a.269.269,0,0,1-.035.166.293.293,0,0,0-.021.073.323.323,0,0,1-.018.038c-.012-.013-.034-.026-.035-.04a.36.36,0,0,1,.006-.163.209.209,0,0,0,.019-.116,1.465,1.465,0,0,0-.022-.432c.069-.09-.025-.174-.008-.267a1.216,1.216,0,0,0,0-.276c0-.066-.017-.13-.027-.2s.021-.126-.025-.184c-.011-.014,0-.045,0-.068a.777.777,0,0,0-.051-.283.09.09,0,0,1,0-.026c-.009-.116-.019-.232-.027-.348a.252.252,0,0,0-.026-.114c-.018-.033.015-.081-.021-.116a.034.034,0,0,1-.009-.023c.03-.178-.091-.331-.084-.5-.061-.091-.04-.2-.06-.294a1.2,1.2,0,0,0-.087-.294c-.027-.053-.008-.1-.031-.154-.053-.121-.086-.25-.135-.373-.016-.04-.011-.077-.024-.114-.083-.233-.153-.471-.248-.7a1.711,1.711,0,0,1-.134-.345c-.069-.041-.058-.124-.1-.182a.7.7,0,0,1-.082-.187.63.63,0,0,0-.076-.134.239.239,0,0,1-.051-.132.131.131,0,0,0-.028-.084,1.949,1.949,0,0,1-.275-.454,1.365,1.365,0,0,0-.14-.231c-.084-.1-.11-.225-.192-.323s-.153-.244-.251-.352a.754.754,0,0,1-.126-.182c-.069-.148-.191-.259-.266-.4a.346.346,0,0,1-.144-.145,5.177,5.177,0,0,0-.419-.478c-.073-.08-.14-.165-.219-.24-.055-.052-.138-.088-.168-.15-.038-.077-.113-.1-.161-.151a1.215,1.215,0,0,0-.167-.165c-.065-.051-.12-.112-.179-.167s-.121-.122-.188-.175a1.933,1.933,0,0,0-.383-.3.772.772,0,0,1-.154-.126,3.927,3.927,0,0,0-.421-.288c-.087-.056-.165-.131-.254-.19-.048-.032-.088-.075-.137-.106-.069-.042-.145-.074-.214-.116-.256-.156-.532-.273-.8-.415-.049-.027-.1-.051-.148-.075-.008,0-.017,0-.025-.007-.037-.019-.028-.092-.087-.082s-.083-.024-.123-.038-.074-.044-.115-.056a4.241,4.241,0,0,1-.509-.206c-.136,0-.232-.115-.358-.134s-.213-.118-.338-.12c-.037-.061-.1-.048-.156-.058s-.086-.056-.144-.054c-.023,0-.048-.025-.071-.024-.073,0-.119-.069-.2-.06a.665.665,0,0,1-.2-.025,1.309,1.309,0,0,1-.234-.068c-.062-.024-.122.006-.182-.029a.3.3,0,0,0-.176-.043c-.032,0-.065-.021-.1-.024a.891.891,0,0,0-.224-.031.2.2,0,0,1-.085-.027s-.008-.02,0-.026c.039-.069.106-.058.17-.057a1.522,1.522,0,0,1,.281.054A1.468,1.468,0,0,0,27.324,10.015Zm-2.069-.686c.037.063.085.045.135.021.119.066.258-.011.378.056a.759.759,0,0,1,.292.031,1.526,1.526,0,0,1,.408.08c.145-.019.274.071.42.057A.356.356,0,0,1,27,9.6c.012,0,.042-.006.023.024-.007.011-.032.025-.037.021-.05-.034-.106-.015-.159-.017a.288.288,0,0,1-.177-.04.057.057,0,0,0-.034-.016c-.11.02-.212-.035-.32-.029a.734.734,0,0,1-.324-.052.077.077,0,0,0-.04,0,1.835,1.835,0,0,1-.458-.034c-.154-.02-.306-.016-.459-.023A.422.422,0,0,1,24.9,9.4c-.035-.012-.068.048-.1,0,0,0-.01,0-.013,0-.075.041-.15-.008-.226,0s-.166,0-.248,0-.166,0-.249,0a.546.546,0,0,0-.239.024.227.227,0,0,1-.123,0,.224.224,0,0,1-.067-.037.275.275,0,0,1,.06-.043A.928.928,0,0,1,23.8,9.32c.054.006.092-.01.121.027a.053.053,0,0,0,.051,0c.038-.042.086-.019.128-.027a.543.543,0,0,1,.086-.025c.023,0,.047.019.071.025a.083.083,0,0,0,.055,0c.109-.069.216.012.323,0,.024.036.05,0,.073,0,.061.007.128-.026.182.026,0,0,.009,0,.013,0,.053.007.1-.021.158,0a.155.155,0,0,0,.155-.018A.037.037,0,0,1,25.256,9.328ZM22.695,7.822c.04-.039,0-.105.036-.121a.359.359,0,0,1,.147-.01c.055,0,.111,0,.166,0,.074,0,.147,0,.221,0,.034,0,.071.013.1-.021a.067.067,0,0,1,.064,0c.069.051.133.008.2,0,.037,0,.07-.029.117-.006a.116.116,0,0,0,.136-.034c.018-.02.066-.015.1-.016a.061.061,0,0,1,.069.038.107.107,0,0,0,.16.018c.016-.012.066-.057.055.022,0,0,0,.012,0,.014s.028.019.031.017a.073.073,0,0,0,.023-.039c0-.01-.021-.018-.024-.03a.051.051,0,0,1,.01-.036c0-.005.018-.007.024,0a.237.237,0,0,1,.067.036c.007.006,0,.043-.006.043-.082.007-.019.038-.006.049a.075.075,0,0,0,.051.008c.035,0,.07-.008.105-.012a.086.086,0,0,0-.09-.044c-.005,0-.012-.009-.017-.015s.012-.015.019-.019c.087-.042.167-.124.276-.049a.08.08,0,0,0,.055,0,.326.326,0,0,1,.18.032.228.228,0,0,0,.1.023c.05-.007.065.012.061.061a.086.086,0,0,0,.022.059.184.184,0,0,0,.056.03l-.05.03a.188.188,0,0,0,.016.019c.021.023.011.042-.01.057s-.039.025-.044.021c-.057-.048-.123-.016-.184-.026a.291.291,0,0,0-.081-.015c-.024,0-.044.032-.067.035a.349.349,0,0,1-.1-.006c-.073-.012-.142-.079-.22-.014-.139.009-.278.023-.416.025-.06,0-.118-.036-.182-.026s-.149.021-.223.028a.313.313,0,0,1-.115-.021c-.04-.012-.088-.057-.144-.009-.019.016-.074.007-.115-.01s-.111-.053-.139.033c-.043,0-.087,0-.13,0-.012,0-.022-.012-.035-.016-.111-.034-.111-.034-.211.035a.184.184,0,0,1-.033.02c-.037.013-.064-.01-.056-.048S22.673,7.842,22.695,7.822ZM20.809,40.1c-.051,0-.1-.045-.155-.058s-.1-.018-.155-.023A.2.2,0,0,1,20.427,40a.454.454,0,0,0-.2-.051,2.858,2.858,0,0,1-.59-.114c-.022-.07-.071.014-.108-.019a.165.165,0,0,0-.109-.034.286.286,0,0,1-.134-.047c-.044-.019-.086-.051-.136-.037s-.071-.065-.129-.059a.192.192,0,0,1-.13-.018,1.743,1.743,0,0,0-.234-.1c-.008,0-.015-.016-.021-.015-.123.019-.211-.071-.318-.1a.92.92,0,0,1-.259-.112c-.038-.026-.106-.009-.139-.063-.019.017-.037.045-.067.016s-.113.009-.163-.046a.354.354,0,0,0-.149-.07,1.012,1.012,0,0,1-.32-.159c-.043-.034-.1.006-.137-.043-.02-.024-.073-.018-.109-.035a1.667,1.667,0,0,0-.254-.121c-.1-.027-.179-.1-.276-.133a1.565,1.565,0,0,1-.2-.088,2.941,2.941,0,0,1-.323-.188.468.468,0,0,0-.173-.084,1.154,1.154,0,0,1-.273-.14c-.114-.059-.218-.136-.338-.186-.048-.02-.074-.09-.11-.138,0,0,.006-.017.012-.021s.022-.006.026,0c.087.09.215.119.3.212a.428.428,0,0,0,.112.06.331.331,0,0,0,.211.063c.029,0,.06.036.1.025.055.072.167.028.218.108a.3.3,0,0,1,.182.059.982.982,0,0,0,.177.105,1.1,1.1,0,0,1,.182.061,2.755,2.755,0,0,0,.33.138.8.8,0,0,1,.088.054,2.278,2.278,0,0,0,.329.14.492.492,0,0,1,.081.04c.022.013.046.039.066.037a.328.328,0,0,1,.217.08.05.05,0,0,0,.038.008c.046-.014.091-.036.1.043a.113.113,0,0,0,.086.011c.051-.036.089-.036.127.013,0,0,.007.01.01.01.1,0,.166.074.253.088.063.01.056.055.039.073-.047.051-.01.075.023.095a.386.386,0,0,0,.1.029c.009,0,.022,0,.027,0a.5.5,0,0,0,.21.1,1.076,1.076,0,0,0,.246.074c.041.057.119-.011.16.049a.958.958,0,0,1,.167.034c.136.019.269.061.4.093a.188.188,0,0,0,.063.012.278.278,0,0,1,.151.037c.016.007.032.019.047.019a2.589,2.589,0,0,1,.338.085.069.069,0,0,1,.045.023.329.329,0,0,0,.244.114c.081.015.155.05.236.067a.169.169,0,0,0,.079-.007.2.2,0,0,1,.158.015.047.047,0,0,0,.024.009l.334.028c.035,0,.08,0,.1.015s.055-.015.079-.008.062.031.1.037a1.161,1.161,0,0,0,.134.011.508.508,0,0,1,.079.011c.011,0,.02.018.03.029-.01.005-.02.012-.03.016l-.094.036c-.075-.056-.157-.019-.228-.038-.116-.032-.238,0-.347-.031A1.684,1.684,0,0,0,20.809,40.1Zm-3.067-2.011c0-.006,0-.017.006-.024s.013,0,.019,0c.063.035.125.074.191.106a.527.527,0,0,0,.121.039c.151.032.283.117.432.156a.212.212,0,0,0,.061.017.361.361,0,0,1,.154.029c.012.005.024.008.036.012a.093.093,0,0,1-.031.015c-.027,0-.055,0-.112,0-.1-.022-.223-.026-.348-.05-.082-.015-.16-.04-.238-.061A.48.48,0,0,1,17.742,38.092ZM28.3,39.913a.888.888,0,0,1-.344.138c-.009,0-.022,0-.024.006-.037.075-.12.044-.178.073a.85.85,0,0,1-.193.033c-.084.019-.165.045-.248.069a.2.2,0,0,1-.036.012c-.111.01-.223.014-.334.03s-.213.04-.318.066c-.07.017-.138.046-.207.066-.014,0-.032-.008-.047-.012s-.032-.014-.036-.011c-.041.046-.094.025-.142.025a.323.323,0,0,0-.168.03.317.317,0,0,1-.169.027.743.743,0,0,1-.165,0c-.05-.011-.1.046-.144,0-.108.054-.223.012-.333.03a.308.308,0,0,1-.171,0,4.049,4.049,0,0,1-.707.029c-.074.006-.146.029-.222.034a.161.161,0,0,1-.049,0,1.041,1.041,0,0,0-.165-.005c-.073,0-.147,0-.221,0s-.126-.046-.2-.029c-.046.011-.1-.02-.142.028a.043.043,0,0,1-.04,0,.486.486,0,0,0-.265-.025c-.1,0-.2-.019-.293-.028a2.049,2.049,0,0,1-.3-.007,1.368,1.368,0,0,1-.4-.074c-.022-.013-.061,0-.092.005a.656.656,0,0,0-.081.025c-.06-.013-.111-.025-.163-.034a.711.711,0,0,1-.142-.023.691.691,0,0,0-.249-.029c-.035,0-.067-.05-.1-.005-.01-.009-.018-.021-.03-.025a.439.439,0,0,1-.151-.1c.063-.045.115.043.176.015.03.042.074.028.113.027a.533.533,0,0,1,.127.025c.049.011.1.069.156,0,0,0,.019,0,.025,0,.079.062.152,0,.224-.017.037-.01.062-.023.1,0A.079.079,0,0,0,22,40.3c.033-.005.083-.033.095-.021.04.041.062.006.093,0a.088.088,0,0,1,.067,0c.033.021.053.036.092,0,.017-.014.072.014.109.025.02.006.048.03.057.023.049-.035.1.024.153-.011a.128.128,0,0,1,.115-.01c.048.035.1.02.143.023s.12,0,.179,0a.473.473,0,0,1,.155.026c.049.015.1-.034.159,0a.344.344,0,0,0,.164,0,.389.389,0,0,0,.184-.023.156.156,0,0,1,.132.006.078.078,0,0,0,.116-.019c.024-.028.051-.027.066,0,.028.06.075.014.083,0,.047-.061.111-.053.173-.053s.138,0,.207,0a.208.208,0,0,1,.1.013c.016.01.008.059.007.091s.018.035.043.035c.161,0,.323,0,.484,0a.878.878,0,0,0,.127-.026.8.8,0,0,1,.223-.029.417.417,0,0,0,.213-.051c.008,0,.023-.006.026,0,.039.065.084.008.114,0a.487.487,0,0,1,.17-.024.253.253,0,0,0,.115-.023.124.124,0,0,1,.127,0c.085-.026.177-.016.26-.039a.284.284,0,0,1,.229.013c.057.033.106-.024.158,0a.515.515,0,0,1,.237-.029.188.188,0,0,0,.076-.017.323.323,0,0,1,.222-.067c.012,0,.028-.02.042-.029s.031-.024.045-.023a1.041,1.041,0,0,0,.376-.094c.012,0,.024-.018.034-.016.114.015.208-.082.323-.056a.178.178,0,0,1,.034.015A.169.169,0,0,0,28.3,39.913Zm6.574-4.707c-.057-.013-.059.039-.087.059s-.058.038-.087.056a.136.136,0,0,0-.03.02.565.565,0,0,1-.114.129c-.04.023-.05.09-.12.076-.02,0-.047.055-.079.07-.048.023-.071.075-.125.093a1.28,1.28,0,0,0-.16.083c-.049.024-.1.044-.15.07-.023.012-.044.021-.053-.008s.014-.03.038-.039a.235.235,0,0,0,.1-.066.689.689,0,0,1,.214-.153c.018-.01.051-.019.054-.032.011-.064.067-.077.109-.105a2.775,2.775,0,0,0,.336-.255c.043-.038.119-.033.137-.1,0,0,.044.007.077.012C34.905,35.153,34.882,35.209,34.872,35.206Zm3.387-4.323a.411.411,0,0,1-.114.175c-.015.012-.021.037-.03.056a5.282,5.282,0,0,1-.343.563c-.057.087-.117.172-.172.261a1.216,1.216,0,0,0-.14.232.162.162,0,0,1-.054.058c-.111.088-.136.237-.238.33,0,.058-.038.086-.089.109a.655.655,0,0,0-.118.082c-.032.024-.076.047-.089.081a1.6,1.6,0,0,1-.171.247,1.953,1.953,0,0,1-.153.186c-.14.176-.315.319-.457.489-.194.233-.423.431-.63.65-.027.028-.068.042-.094.07-.055.059-.11.118-.162.179a2.2,2.2,0,0,1-.311.28.43.43,0,0,0-.062.06c-.057.066-.095.159-.2.165-.007,0-.014.01-.02.016-.074.065-.149.129-.223.2a1.034,1.034,0,0,1-.133.111c-.036.022-.089.036-.1.092a.074.074,0,0,1-.047.047c-.118.015-.189.106-.276.169a1.152,1.152,0,0,0-.252.195.083.083,0,0,1-.042.03.491.491,0,0,0-.234.137.155.155,0,0,1-.043.03.542.542,0,0,0-.254.183c-.008.008-.025.006-.037.011-.05.022-.1.043-.151.068s-.095.061-.144.087a.742.742,0,0,1-.153.064c-.051.014-.075.07-.14.068-.035,0-.068.059-.108.07a4.562,4.562,0,0,0-.425.209c-.016.006-.033.009-.049.014a.231.231,0,0,0-.084.029c-.128.121-.308.127-.454.209a.774.774,0,0,1-.149.039.439.439,0,0,0-.18.1.2.2,0,0,1-.076.048c-.037.011-.079.011-.117.018s-.051.055-.1.058a.462.462,0,0,0-.21.056,1.042,1.042,0,0,1-.231.079,1.2,1.2,0,0,1-.224.094,1.418,1.418,0,0,1-.2.045.381.381,0,0,0-.28.1.287.287,0,0,1-.2.059.257.257,0,0,0-.149.042c-.037.032-.041-.025-.066-.011a.2.2,0,0,1-.058.027c-.06.011-.122.016-.182.029s-.1.063-.157.055c-.073.066-.178.031-.256.083-.074-.042-.136,0-.2.026a.177.177,0,0,1-.079-.008c-.008,0-.013-.011-.02-.017-.055.066-.139.042-.206.068a1,1,0,0,0-.211.063c-.057.036-.148.014-.219.036a3.014,3.014,0,0,0-.368.08.17.17,0,0,1-.068,0,.434.434,0,0,0-.245.045.14.14,0,0,1-.064.01c-.056,0-.111,0-.166,0s-.125-.019-.186.017-.124-.015-.18.035c-.016.014-.054,0-.081,0a.744.744,0,0,0-.294.026c-.019.009-.048-.006-.068,0-.037.015-.062-.039-.105-.006-.023.018-.071,0-.108,0s-.083,0-.124,0-.071.024-.117.006-.091.017-.139.022-.093,0-.138,0-.075.023-.113.025-.082-.029-.093-.016c-.042.046-.063-.011-.094-.01s-.071-.007-.1.025c-.06-.052-.132-.018-.2-.024s-.129,0-.193,0c-.047,0-.046,0-.141.055a.372.372,0,0,1-.275.017c-.046-.011-.08-.025-.124,0a.128.128,0,0,1-.065.01c-.12,0-.24,0-.359,0a.341.341,0,0,1-.14-.029.6.6,0,0,0-.155-.029c-.03-.007-.044-.014-.073.009-.058.046-.128.024-.194.012a1.216,1.216,0,0,0-.2-.046.243.243,0,0,1-.085-.027.7.7,0,0,0-.212-.055c-.058-.007-.118.018-.172-.018s-.1,0-.154-.032-.117-.007-.176,0a.328.328,0,0,1-.181-.03c-.05-.029-.1-.016-.155-.028a1.54,1.54,0,0,1-.256-.049.415.415,0,0,0-.136,0c-.058,0-.121.017-.161-.047-.083-.006-.158-.061-.236-.059a1.418,1.418,0,0,1-.306-.069c-.007,0-.014-.018-.019-.017-.126.02-.219-.083-.337-.09a.56.56,0,0,1-.06-.021c-.026-.005-.07,0-.077-.009-.029-.055-.1-.029-.125-.068-.05-.074-.133-.073-.2-.085-.086-.015-.161-.075-.252-.061a.444.444,0,0,0-.236-.1,1.878,1.878,0,0,1-.193-.066,1.324,1.324,0,0,1-.334-.128c-.154-.011-.269-.128-.422-.152-.076-.012-.142-.079-.219-.1-.045-.014-.05-.015-.02-.049a.113.113,0,0,0,.013-.036c.018-.047.046-.1.09-.107a.266.266,0,0,1,.156.05.283.283,0,0,0,.171.057c.037,0,.076.027.113.023.051-.005.07.034.1.052a1.935,1.935,0,0,0,.212.088c.088.034.189.034.259.109a.146.146,0,0,1,.142.058c.051-.013.094.017.141.028.106.022.205.064.311.083.055.069.166.034.216.115a.06.06,0,0,0,.045.022c.133,0,.256.068.392.058.061,0,.11.044.167.062a.738.738,0,0,0,.229.048.4.4,0,0,1,.085.025,1.144,1.144,0,0,0,.154.027.3.3,0,0,1,.155.028.04.04,0,0,0,.039,0c.032-.042.076-.02.115-.024s.084.011.13.005.1.027.154.023a.384.384,0,0,1,.151,0,.632.632,0,0,0,.266.022c.05,0,.094.075.146.009.049.022.089-.013.134-.021.016,0,.036.016.053.014.07-.008.144.027.211-.024.015-.011.045,0,.068,0,.107,0,.213,0,.318,0a.829.829,0,0,1,.3.051.17.17,0,0,0,.04,0,2.77,2.77,0,0,1,.32.031.43.43,0,0,1,.173.05.081.081,0,0,0,.1,0c.026-.021.057-.052.089,0,0,0,.017,0,.026,0,.037,0,.088.016.108,0,.043-.039.069.016.105.005s.067,0,.1-.027.056.01.084.024a.139.139,0,0,0,.117.007c.06-.02.13-.073.2-.014a1.083,1.083,0,0,1,.3-.02c.009,0,.016-.016.023-.025.035-.046.033-.045.057,0a.049.049,0,0,0,.038.023.652.652,0,0,0,.2-.02.184.184,0,0,1,.073-.015.691.691,0,0,1,.076-.134.18.18,0,0,0-.06.011c-.05.021-.079-.031-.119-.008,0,0-.025-.024-.038-.037a.3.3,0,0,0,.041-.02.284.284,0,0,1,.2-.05c.033.005.054-.027.086-.015.017-.015.035-.028.054-.041a.243.243,0,0,1-.088-.023c-.015-.007-.044-.012-.051,0-.056.057-.134,0-.191.042a.028.028,0,0,1-.019,0c-.036-.007-.055-.058-.11-.023-.033.021-.09,0-.136,0s-.091-.019-.131.02c-.006.006-.036-.016-.055-.017a1.233,1.233,0,0,1-.151-.006c-.045-.009-.094-.059-.127-.047-.071.023-.15-.026-.215.039-.04.04-.04-.015-.057-.036s-.015-.025.013-.039a.214.214,0,0,1,.1-.026c.035,0,.071.011.1-.022.009-.01.047.01.073.012a.243.243,0,0,0,.074,0,.985.985,0,0,1,.285-.045c.017,0,.033.009.05.012.035.006.076.025.1.013a.887.887,0,0,1,.28-.026,2.076,2.076,0,0,1,.389-.027c.075-.048.159-.019.238-.029.057-.006.112-.021.168-.026a.806.806,0,0,0,.165,0c.139-.043.286-.029.424-.077.064-.022.138-.008.21-.028a2.325,2.325,0,0,0,.366-.086.111.111,0,0,1,.055,0,.8.8,0,0,0,.251-.029c.029-.006.057-.019.086-.027s.061-.009.089-.018.045.023.073-.008.064.006.093,0a1.556,1.556,0,0,0,.186-.051.4.4,0,0,1,.225-.058c.054.006.1-.047.154-.028a2.163,2.163,0,0,1,.369-.112c.123-.034.243-.082.364-.122a.442.442,0,0,1,.112-.029c.1-.007.175-.085.276-.069.007,0,.016-.006.023-.011a.509.509,0,0,1,.344-.072.239.239,0,0,0,.19-.043.082.082,0,0,1,.064-.01.512.512,0,0,0,.309,0,.251.251,0,0,1,.1.016c.07.017.144.011.189.083a.063.063,0,0,0,.029-.009l.076-.048a.371.371,0,0,1,.077-.048,1.077,1.077,0,0,0,.327-.214.733.733,0,0,1,.247-.135,1.723,1.723,0,0,0,.188-.082.6.6,0,0,1,.237-.064c.049,0,.1-.038.147-.042a.475.475,0,0,0,.268-.157c.08-.068.17-.123.254-.186.046-.035.089-.074.134-.11a1.025,1.025,0,0,1,.258-.111c.012-.005.029,0,.039-.006.054-.037.077-.113.165-.107a.329.329,0,0,0,.171-.053c.006,0,.017,0,.024.006s0,.015,0,.018c-.057.044-.089.114-.162.143a.241.241,0,0,0-.07.063.234.234,0,0,0-.026.039.227.227,0,0,0,.057-.016,2.655,2.655,0,0,1,.345-.235.142.142,0,0,0,.049-.048c.022-.029-.007-.021-.019-.026a.159.159,0,0,1-.022-.013c.007-.005.014-.015.02-.014a.306.306,0,0,0,.246-.111.466.466,0,0,1,.183-.119.646.646,0,0,0,.224-.158c.089-.08.172-.167.255-.253a.93.93,0,0,1,.209-.164.16.16,0,0,0,.061-.052.623.623,0,0,1,.236-.2c.014-.009.037-.014.043-.027.065-.131.2-.177.31-.25.014-.009.037-.011.045-.022.06-.084.164-.1.234-.171a.089.089,0,0,1,.036-.014c.048-.016.039-.082.094-.1a.416.416,0,0,0,.126-.094c.038-.033.072-.071.108-.107a1.293,1.293,0,0,1,.144-.119,2.235,2.235,0,0,0,.453-.443,3.015,3.015,0,0,0,.484-.445,8.494,8.494,0,0,0,.647-1l.074-.119.013,0a.321.321,0,0,0,.062-.031.553.553,0,0,0,.079-.063.843.843,0,0,0,.065-.083c.046-.064.09-.131.134-.2l.116-.1a.226.226,0,0,0,.052-.067h0l.024-.005.043-.006.048,0A1.71,1.71,0,0,0,38.259,30.883ZM21.216,37.231c.137.059.308.025.459.1a.205.205,0,0,0,.106.009.534.534,0,0,1,.219.04c.024.008.056.022.075.014a.167.167,0,0,1,.163.024c.045.025.106.031.157.053.011,0,.031.011.036.006.055-.057.105-.012.159,0a1.114,1.114,0,0,0,.308.055.218.218,0,0,0,.075-.018.079.079,0,0,1,.086.009.285.285,0,0,0,.15.04,1.592,1.592,0,0,1,.344.069.279.279,0,0,0,.05.012.272.272,0,0,0,.114-.023c.022-.009.059.036.1.023a.414.414,0,0,1,.047-.019c.015,0,.041,0,.045.006a.067.067,0,0,1,0,.053c-.015.031-.032-.009-.035-.006-.054.046-.133,0-.184.05-.048-.052-.1,0-.143,0-.072,0-.145.012-.218.012a1.694,1.694,0,0,1-.215-.014.313.313,0,0,1-.136-.036c-.038-.026-.055-.017-.079.009a.554.554,0,0,0-.061-.054c-.006,0-.022.009-.035.012s-.051.021-.062.013c-.048-.041-.107-.011-.155-.028a2,2,0,0,1-.255-.051c-.022-.011-.051-.007-.07-.031a.064.064,0,0,0-.043-.025.37.37,0,0,1-.141-.027.178.178,0,0,0-.094,0c-.135.034-.135.035-.262-.05,0,0-.008-.01-.01-.01-.091.024-.177-.07-.272-.01-.016.011-.056-.021-.081-.016-.119.025-.167-.043-.2-.139C21.139,37.235,21.144,37.226,21.216,37.231ZM38.889,24.773c-.031.087.022.182-.043.258a1.359,1.359,0,0,1-.109.453c-.014.032.051.06,0,.087.012.039-.017.067-.027.1s0,.059-.019.09-.005.07-.01.106c0,.02-.018.039-.021.06a.566.566,0,0,0-.035.194.234.234,0,0,1-.02.087c-.012.059-.051.114-.035.18a.145.145,0,0,1-.027.113c-.011.018-.03.041-.026.057.022.1-.054.174-.065.265,0,.02-.02.041-.019.06a.2.2,0,0,1-.058.156c-.011.012-.026.03-.024.044.007.087-.061.151-.068.237a.92.92,0,0,1-.084.227c-.006.016-.017.034-.014.048.009.044-.017.068-.044.093s-.04.054-.041.11c0,.038-.023.075-.025.113a.211.211,0,0,1-.04.109.7.7,0,0,0-.07.191.376.376,0,0,1-.027.072.353.353,0,0,0-.067.168c0,.05-.045.1-.063.151s-.065.1-.068.166-.063.1-.086.158c-.038.1-.081.205-.111.314-.015.059-.085.1-.079.174-.053.038-.059.109-.1.151s-.028.073-.048.106a1.219,1.219,0,0,1-.114.2.294.294,0,0,0-.041.107c0,.007.006.016.009.024s.015-.005.019-.01a.809.809,0,0,0,.049-.076c.011-.022.005-.059.047-.044,0,0-.01.032-.013.05a.654.654,0,0,1-.154.281.155.155,0,0,1-.029.022c0-.017-.015-.039-.009-.05a.546.546,0,0,1,.067-.083c.019-.02.016-.035,0-.058s-.041,0-.061,0c-.056,0-.056.057-.059.074a.574.574,0,0,1-.14.248.67.67,0,0,0-.141.3.162.162,0,0,1-.068.122.674.674,0,0,0-.15.159,1.144,1.144,0,0,0-.1.178.432.432,0,0,1-.059.086.188.188,0,0,0-.07.125.132.132,0,0,1-.038.066c-.054.066-.11.129-.166.194-.012.014-.037.026-.037.039,0,.11-.087.161-.148.23a.126.126,0,0,0-.019.033.769.769,0,0,1-.227.319c-.053.031-.085.087-.135.107s-.045.06-.075.081-.033.108-.106.106c-.012.052-.056.079-.087.116-.006.008,0,.024,0,.037a.086.086,0,0,0,.029-.011c.063-.061.124-.124.187-.185.006-.005.019,0,.029,0s0,.021,0,.027a.554.554,0,0,1-.048.049c-.081.077-.138.174-.209.257a1.949,1.949,0,0,1-.4.371c-.105.069-.213.135-.313.211a.241.241,0,0,0-.111.133c0,.008-.011.014-.017.02-.055.046-.111.09-.164.138s-.065.123-.145.148a.2.2,0,0,0-.087.086.312.312,0,0,1-.1.1,3.055,3.055,0,0,1-.336.255c-.051.024-.07.1-.136.106-.086.114-.221.166-.32.264a1,1,0,0,1-.127.093c-.007,0-.021,0-.025.006-.149.175-.379.241-.541.4-.02.019-.055.023-.08.038-.041.025-.079.054-.119.08a.608.608,0,0,1-.057.031.494.494,0,0,0-.175.115c-.021.027-.068.033-.1.051a.585.585,0,0,0-.087.058,2.078,2.078,0,0,1-.422.218c-.092.045-.177.1-.273.142a.505.505,0,0,0-.143.12.121.121,0,0,1-.107.043.307.307,0,0,0-.226.055.454.454,0,0,1-.215.077,3.7,3.7,0,0,0-.42.127.693.693,0,0,1-.244.043.34.34,0,0,0-.219.039c-.055.033-.118-.013-.164.043a.817.817,0,0,1-.134.109.392.392,0,0,1-.241.088.829.829,0,0,0-.2.047.423.423,0,0,1-.18.036.133.133,0,0,0-.062.015,1.218,1.218,0,0,0-.327.148.238.238,0,0,1-.142.054,1.117,1.117,0,0,0-.293.068.89.89,0,0,0-.331.1c-.023.015-.064,0-.1,0a1.616,1.616,0,0,0-.4.064.826.826,0,0,1-.088.019.354.354,0,0,0-.156.025c-.041.02-.1-.018-.14.029,0,.005-.018,0-.027,0-.123-.021-.24.039-.362.028a.153.153,0,0,0-.086.022c-.015.009-.047-.021-.071-.021-.075,0-.145.034-.224.029a.3.3,0,0,0-.21.024c-.006,0-.018,0-.028,0a1.675,1.675,0,0,0-.363.023.2.2,0,0,1-.183-.021c-.01-.008-.05.03-.069.023-.1-.036-.2.021-.3,0a.639.639,0,0,0-.182-.031c-.028,0-.051.045-.091.006-.018-.018-.07,0-.108,0h-.456a.417.417,0,0,0-.11,0c-.042.012-.061-.052-.111-.02-.023.015-.069-.007-.1-.009s-.08,0-.114-.027c-.007-.007-.027,0-.04,0-.13-.009-.261-.011-.389-.031a1.014,1.014,0,0,1-.154-.029.208.208,0,0,0-.089,0,.279.279,0,0,1-.085-.025c-.016-.006-.039-.006-.047-.017-.038-.048-.068-.044-.108,0s-.086.017-.129.013c-.025,0-.049-.022-.073-.022a.173.173,0,0,1-.147-.053.066.066,0,0,0-.1,0,.168.168,0,0,0-.1-.029c-.057,0-.117.019-.169-.025a.054.054,0,0,0-.051.006c-.047.044-.029-.011-.041-.023s-.024-.008-.036-.012,0,.019,0,.029c0,.042-.032.068-.06.05a.594.594,0,0,1-.115-.089.14.14,0,0,0-.171-.033.349.349,0,0,1-.258-.012c-.034-.014-.008-.027,0-.035a.091.091,0,0,1,.046-.019c.027,0,.037-.006.044-.036a.345.345,0,0,1,.052-.089.65.65,0,0,0-.105-.041c-.065-.013-.131-.02-.2-.029-.009,0-.022,0-.028,0-.073-.059-.166-.045-.249-.067s-.155-.046-.232-.072c-.009,0-.017-.029-.015-.042a.146.146,0,0,1,.023-.045c.015-.026.023-.061.046-.074s.059.02.084.022a3.363,3.363,0,0,0,.364.06.333.333,0,0,1,.153.028,1.228,1.228,0,0,0,.34.082c.084.015.167.04.251.061.025.007.049.015.074.02.052.01.108-.017.159.019s.1,0,.153.032.117-.008.156.056c0,.007.026.006.039,0s.066-.027.08-.016a.139.139,0,0,0,.091.016c.032,0,.065,0,.1,0a.485.485,0,0,1,.271.047.149.149,0,0,0,.079.008c.051,0,.107.016.153-.023.041.046.095.018.143.022a.6.6,0,0,0,.165,0,1.008,1.008,0,0,0,.269-.052c.007,0,.018,0,.027,0,.039-.008.068.056.119,0,.022-.023.088,0,.135,0h.4a.114.114,0,0,0,.1-.031c.018-.019.063-.013.081-.033.047-.048.114.007.164-.045s.111-.019.165-.032a2.863,2.863,0,0,1,.556-.025.061.061,0,0,0,.014,0,.167.167,0,0,0,.022-.013c-.007,0-.013-.013-.02-.014-.074-.01-.148-.023-.223-.027a.252.252,0,0,0-.13.019.161.161,0,0,1-.156-.011.053.053,0,0,0-.037-.009c-.029.006-.07.032-.082.022a.1.1,0,0,0-.089-.022c-.043,0-.087-.014-.131.019a.165.165,0,0,1-.107.006c-.037-.006-.058-.053-.109-.037a.443.443,0,0,1-.12.011c-.209,0-.415-.047-.625-.028a.913.913,0,0,0-.306-.029c-.052,0-.1-.035-.155-.028a.189.189,0,0,1-.141-.024c-.015-.011-.045,0-.068,0-.056-.009-.112.017-.171-.022s-.108,0-.169-.026a.88.88,0,0,0-.194-.031,2.579,2.579,0,0,1-.354-.082.635.635,0,0,0-.109,0c-.034,0-.065-.021-.1-.026-.074-.012-.149-.018-.224-.029a.09.09,0,0,1-.033-.02.143.143,0,0,1-.02-.019c.006,0,.012-.013.019-.014.123-.021.241-.071.367-.084a.077.077,0,0,0,.024-.009c-.007-.01-.012-.022-.021-.029a1.547,1.547,0,0,0-.274-.073c-.037,0-.079-.028-.109-.016s-.058-.018-.087-.023c-.008,0-.016-.016-.021-.015-.129.029-.24-.063-.364-.057a.082.082,0,0,1-.052-.007.247.247,0,0,0-.188-.048s-.01,0-.014,0a.385.385,0,0,0-.239-.059c-.026-.039-.066-.024-.1-.023a.187.187,0,0,1-.1-.028.479.479,0,0,0-.231-.036s-.009.006-.009.005a.2.2,0,0,0-.186-.051c-.073.011-.116-.059-.185-.059-.017,0-.034-.026-.054-.036a.266.266,0,0,0-.106-.043,1.008,1.008,0,0,1-.281-.06.372.372,0,0,0-.127-.027.34.34,0,0,1-.17-.056.644.644,0,0,0-.144-.053.841.841,0,0,1-.178-.071c-.1-.05-.194-.139-.322-.124a.036.036,0,0,1-.024-.008c-.067-.061-.162-.06-.233-.105a1.426,1.426,0,0,0-.318-.136,2.5,2.5,0,0,1-.289-.138A3.065,3.065,0,0,1,17,34.43c-.087-.063-.185-.111-.275-.168s-.175-.115-.259-.176c-.146-.106-.282-.226-.436-.32-.189-.115-.335-.284-.526-.4a1.763,1.763,0,0,1-.2-.176c-.159-.132-.322-.26-.47-.406-.042-.042-.067-.1-.122-.13a1.015,1.015,0,0,1-.14-.13c-.046-.042-.1-.08-.143-.122s-.091-.092-.137-.137a1.754,1.754,0,0,0-.2-.206c-.041-.029-.063-.085-.1-.122s-.081-.056-.114-.09-.069-.093-.11-.134-.095-.058-.122-.1a2.266,2.266,0,0,0-.232-.274,3.365,3.365,0,0,0-.306-.375.609.609,0,0,1-.143-.2.543.543,0,0,0-.1-.122.53.53,0,0,1-.129-.182.477.477,0,0,0-.133-.195.7.7,0,0,1-.107-.149c-.061-.1-.134-.194-.194-.294s-.137-.208-.195-.319a1.432,1.432,0,0,1-.139-.275A1.067,1.067,0,0,0,11.814,29a2.447,2.447,0,0,0-.157-.309c-.012-.127-.108-.214-.163-.32-.023-.047-.043-.092-.062-.141-.04-.1-.1-.2-.129-.306a3.479,3.479,0,0,1-.173-.44.267.267,0,0,0-.043-.079c-.013-.022-.04-.048-.036-.067.018-.087-.034-.153-.061-.225s-.016-.158-.08-.216c.008-.106-.065-.186-.091-.281-.007-.024-.011-.032.005-.051s-.007-.034-.017-.041a.12.12,0,0,1-.062-.114.263.263,0,0,0-.05-.2.033.033,0,0,1,0-.025.39.39,0,0,1,.014-.047c.01.01.025.018.029.03a1.488,1.488,0,0,0,.095.224,1.7,1.7,0,0,0,.177.383.974.974,0,0,1,.072.177c.056.124.116.247.174.37.006.012.016.022.018.034s-.007.063.037.051c.011,0,.02-.038.017-.057a.58.58,0,0,1-.027-.182.048.048,0,0,0-.014-.035c-.069-.066-.076-.163-.125-.24a.464.464,0,0,1-.053-.144c-.014-.059-.018-.121-.03-.181a.289.289,0,0,0-.027-.071.2.2,0,0,1,0-.214c.013-.022.041-.055,0-.089-.008-.007,0-.048.016-.059.04-.03.037-.069.038-.11a.4.4,0,0,1,.039-.247.032.032,0,0,0,0-.029c-.063-.088-.049-.2-.092-.294a.6.6,0,0,1-.005-.205.169.169,0,0,0-.017-.09c-.024-.044-.067-.095-.013-.155.013-.014-.007-.058-.013-.088a.793.793,0,0,1-.067-.29c-.044-.055-.019-.126-.046-.189a.129.129,0,0,1,.079-.184c.075-.03.108-.068.073-.123s-.009-.116-.023-.171a1.642,1.642,0,0,1-.053-.171,1.108,1.108,0,0,1,0-.179.872.872,0,0,0,0-.193.776.776,0,0,1-.025-.211.331.331,0,0,0-.053-.186c-.012-.02,0-.054,0-.082,0-.134-.005-.268,0-.4.013-.3-.023-.6-.029-.9a.7.7,0,0,1,.023-.211c.019-.066,0-.141.057-.2.01-.01,0-.042-.006-.063s-.012-.013-.019-.019c.055-.05.038-.109.032-.174s.034-.127.023-.2c.063-.07-.01-.171.056-.24,0-.083,0-.166,0-.249a.236.236,0,0,1,.03-.1,2.652,2.652,0,0,1,.108-.371.237.237,0,0,0,0-.1.991.991,0,0,1,0-.11.281.281,0,0,1,.028-.086c.068-.135.054-.3.137-.427-.03-.1.054-.173.061-.267a1.168,1.168,0,0,1,.079-.256c.009-.029.01-.07.03-.083.041-.027.018-.067.035-.1a.243.243,0,0,0,.018-.1.1.1,0,0,1,.032-.085.1.1,0,0,0,.023-.059.539.539,0,0,1,.054-.158,2.54,2.54,0,0,0,.085-.269c0-.012,0-.034.006-.038.06-.032.036-.1.06-.142s.013-.1.064-.128c.018-.011.023-.055.016-.1s.042-.1.068-.147c.067-.125.139-.247.2-.375A.619.619,0,0,1,12.2,16.7a1.424,1.424,0,0,0,.082-.187c.051-.108.113-.212.174-.315a1.4,1.4,0,0,0,.092-.184,1.409,1.409,0,0,1,.159-.295c.068-.094.135-.192.2-.291.009-.014.029-.032.026-.043-.019-.085.042-.126.092-.17a2.237,2.237,0,0,0,.308-.372.459.459,0,0,0,.1-.2.32.32,0,0,1,.1-.165,1.31,1.31,0,0,0,.182-.2,1.163,1.163,0,0,1,.12-.129.376.376,0,0,0,.084-.117.145.145,0,0,1,.093-.08c.051-.023.051-.079.093-.1a.08.08,0,0,0,.036-.053.079.079,0,0,1,.07-.082.144.144,0,0,0,.1-.094.127.127,0,0,1,.11-.1.2.2,0,0,0,.1-.056,2.4,2.4,0,0,0,.258-.267.393.393,0,0,1,.142-.131.4.4,0,0,0,.121-.112c.043-.049.079-.1.124-.15a.772.772,0,0,1,.161-.112,2,2,0,0,0,.326-.248.459.459,0,0,1,.117-.083.368.368,0,0,0,.141-.093c.012-.014.025-.036.039-.038.1-.014.123-.143.227-.148A.2.2,0,0,1,16.291,12a.308.308,0,0,0,.124-.1c.032-.042.1-.044.111-.1a.023.023,0,0,1,.019-.015c.127,0,.214-.086.316-.14.08-.043.155-.093.234-.137.052-.03.107-.055.161-.08.01,0,.025,0,.037,0,0,.01-.007.023-.015.029a2.308,2.308,0,0,0-.21.159c-.038.037-.095.016-.128.065a.488.488,0,0,1-.113.09c-.038.029-.073.073-.116.085-.075.02-.119.082-.187.111a1.152,1.152,0,0,0-.357.242,1.494,1.494,0,0,1-.125.1.551.551,0,0,1-.114.091c-.056.026-.085.092-.134.135a2.087,2.087,0,0,1-.225.161c-.014.009-.036.011-.045.022-.068.086-.178.13-.232.23a.078.078,0,0,1-.039.038c-.093.023-.135.1-.192.166-.076.082-.177.14-.226.249-.014.031-.062.046-.093.07a3.014,3.014,0,0,1-.356.3c-.06.129-.192.2-.27.315a2.222,2.222,0,0,1-.194.214,1.15,1.15,0,0,0-.244.351c0,.012-.008.028-.017.033-.105.058-.138.172-.2.264a1.381,1.381,0,0,1-.116.2.691.691,0,0,0-.11.286.464.464,0,0,1-.1.221c-.015.105-.122.17-.122.281-.075.065-.069.177-.148.246a.278.278,0,0,0-.076.174.45.45,0,0,1-.065.152.952.952,0,0,0-.126.349.064.064,0,0,1-.011.037.673.673,0,0,0-.141.288,2.44,2.44,0,0,0-.09.253.854.854,0,0,0-.007.2.18.18,0,0,1-.025.114c-.019.027-.059.064,0,.1.007.005-.009.048-.019.071a.521.521,0,0,0-.037.184,2.594,2.594,0,0,1-.083.462,3.205,3.205,0,0,1-.134.415.184.184,0,0,0,0,.082.171.171,0,0,1-.038.124.365.365,0,0,0-.044.146c-.01.043.017.091-.017.131s0,.084-.035.125.029.1.016.135-.055.066-.049.119a.1.1,0,0,1-.024.071c-.04.041-.035.1-.054.144s0,.079-.028.114c-.009.01,0,.046.012.061.024.03.014.05-.01.067a.087.087,0,0,0-.032.085c0,.055.021.126,0,.162s.006.114-.05.147c-.009.088-.017.177-.028.265-.008.065-.022.131-.026.2s0,.139,0,.207a.055.055,0,0,1-.014.035c-.028.03-.008.048.013.067a.057.057,0,0,0,.084,0c.041-.037.08-.077.117-.117a.078.078,0,0,0,.021-.046.317.317,0,0,1,.029-.168,2.633,2.633,0,0,1,.03-.39,1.027,1.027,0,0,1,.025-.154c.007-.052-.017-.11.028-.154a1.156,1.156,0,0,1,.054-.309.281.281,0,0,1,.026-.073.471.471,0,0,0,.029-.153.359.359,0,0,1,.05-.229c.016-.02,0-.072.014-.089.049-.047-.008-.115.044-.164s.016-.106.035-.15c.035-.082.032-.172.068-.248s.054-.162.091-.24a.421.421,0,0,0,.06-.211.123.123,0,0,1,.023-.059c.007-.012.029-.022.027-.029-.024-.1.07-.172.059-.267a.076.076,0,0,1,.031-.071c.01-.008.026-.022.024-.03-.025-.112.089-.18.085-.284a.065.065,0,0,1,.019-.033c.033-.037.072-.069.038-.129-.008-.014.01-.053.026-.069a.718.718,0,0,0,.123-.213.7.7,0,0,0,.1-.222A.042.042,0,0,1,13,17.152c.062-.06.068-.149.11-.217.148-.242.246-.51.406-.745a1.95,1.95,0,0,0,.108-.231.842.842,0,0,1,.147-.217.367.367,0,0,0,.069-.1c.063-.126.174-.217.236-.344a.356.356,0,0,1,.113-.147.51.51,0,0,0,.137-.163,1.469,1.469,0,0,1,.188-.213c.041-.05.115-.079.11-.163,0-.015.031-.032.046-.048.069-.069.138-.136.2-.206.03-.032.072-.054.081-.105A.083.083,0,0,1,15,14.209c.115-.048.175-.155.26-.234s.189-.162.288-.237a.725.725,0,0,0,.192-.2.339.339,0,0,1,.1-.092c.009-.008.03,0,.036-.011a1.482,1.482,0,0,1,.321-.262,2.508,2.508,0,0,1,.334-.26.536.536,0,0,0,.135-.109c.086-.085.21-.118.283-.218.005-.008.012-.018.019-.019.135-.016.216-.124.324-.188.082-.048.157-.109.241-.154s.168-.085.249-.135c.16-.1.335-.17.5-.26.072-.039.162-.033.223-.1.016-.018.079,0,.116.009a.2.2,0,0,0,.172-.021,1.824,1.824,0,0,1,.423-.215.325.325,0,0,0,.147-.112.316.316,0,0,1,.231-.109,1.222,1.222,0,0,0,.23-.078.451.451,0,0,1,.153-.032,2.458,2.458,0,0,0,.251-.027.086.086,0,0,0,.043-.029.358.358,0,0,1,.288-.11c.061,0,.125.019.176-.044.025-.031.083,0,.124-.034s.11.008.106.03a.158.158,0,0,1-.049.068c-.031.031-.055.069-.111.068-.029,0-.065.029-.023.072.009.01,0,.037,0,.054.01.035.016.081.073.039.015-.011.045-.006.068,0,.12.025.221-.058.336-.056.034-.054.1-.059.147-.08a1.261,1.261,0,0,1,.252-.058c.074-.013.151-.012.223-.031a1.088,1.088,0,0,0,.14-.029c.115-.048.25.007.355-.079.009-.007.027,0,.041,0a.448.448,0,0,0,.185-.023c.046-.024.111,0,.168-.028.037-.019.091,0,.137,0s.092.019.128-.024c0-.005.018,0,.026,0,.045.017.1.051.138.024s.1-.017.143-.024c.07-.01.14-.017.21-.03.01,0,.023-.026.022-.039-.005-.057.035-.041.064-.041,0,0,.012.019.009.023-.042.056-.006.054.037.06.123.016.241-.035.362-.028.051,0,.11-.023.155.025a.04.04,0,0,0,.04,0c.047-.037.1-.02.155-.028s.129-.034.19.024c.015.015.064.006.1-.011a.471.471,0,0,1,.2-.042c.208,0,.415.047.625.031a.461.461,0,0,1,.113.026c.038.008.083-.017.115.025,0,0,.017,0,.026,0,.148.009.3.021.445.026.047,0,.1.022.143-.024.008-.009.041.005.063.009s.06.013.09.015c.007,0,.022-.015.022-.024s-.012-.028-.018-.028a.488.488,0,0,1-.233-.074c-.007,0-.02-.012-.022-.01-.054.052-.105-.006-.158,0a.711.711,0,0,1-.269-.049.388.388,0,0,0-.095,0c-.162-.009-.325-.015-.486-.03a.545.545,0,0,1-.143-.055c-.019-.008-.047-.03-.057-.024-.069.046-.133.009-.2,0s-.117.028-.182.026c-.17-.006-.342.006-.511,0s-.342.038-.514.03c-.04,0-.074.056-.11.024s-.067.019-.105.007a.313.313,0,0,0-.123,0c-.047.006-.094.018-.141.027s-.091-.018-.128.025c0,0-.029,0-.035-.007-.05-.057-.086.038-.133.012l-.01.009c.006.006.012.015.017.015.041,0,.083,0,.124,0a.175.175,0,0,1,.059.022c.007,0,.012.013.017.019s-.015.012-.022.012c-.065,0-.129,0-.194,0-.008,0-.02,0-.024-.007s-.006-.064-.047-.045c-.02.009-.031.04-.043.062s-.024,0-.036,0c-.04-.017-.083-.007-.127-.029a.132.132,0,0,0-.153.05c-.025.032-.042,0-.061,0-.1.007-.208-.03-.307.023a.1.1,0,0,1-.055,0,.341.341,0,0,0-.227.055.11.11,0,0,1-.1.029c-.039-.012-.067.013-.1.028-.011.006-.022.019-.033.02-.164,0-.317.094-.486.062a.112.112,0,0,1-.03-.015.2.2,0,0,0,.036-.012,1.177,1.177,0,0,1,.3-.106c.1-.023.188-.061.282-.091a.734.734,0,0,1,.072-.026c.079-.017.155-.038.166-.141a.06.06,0,0,1,.068-.051c.085,0,.153-.056.24-.06.044,0,.084-.059.129-.086a.225.225,0,0,1,.133-.048,1.011,1.011,0,0,0,.364-.054.281.281,0,0,1,.055,0,1.663,1.663,0,0,0,.332-.032c.091-.027.188.006.265-.028s.171,0,.253-.02a12.317,12.317,0,0,1,1.372-.029c.144,0,.285.041.431.026.071.041.15.018.223.03a1.383,1.383,0,0,0,.224.028.868.868,0,0,1,.223.028c.111.031.222.065.333.1a.185.185,0,0,0,.05.013,1.532,1.532,0,0,1,.535.11c.087.027.178.041.266.061s.2.061.308.087.153.094.245.112.162.087.26.072a.669.669,0,0,0,.242.083,1.445,1.445,0,0,0,.241.088c.042.076.131.037.189.078a.417.417,0,0,0,.186.086c.036,0,.067.037.1.053.148.065.3.127.445.2.066.03.123.081.191.108a1.189,1.189,0,0,1,.283.152,1.081,1.081,0,0,0,.187.082c.2.1.381.231.586.322a.789.789,0,0,1,.118.082c.171.122.35.232.512.367a3.805,3.805,0,0,1,.332.259,3.685,3.685,0,0,0,.3.256c.125.106.235.228.36.332.076.064.149.129.221.2.03.029.06.058.088.088s.038.063.064.073c.046.017.044.064.072.089.054.047.091.11.163.141.031.013.044.064.07.093.1.108.2.21.292.323a3.268,3.268,0,0,1,.345.451.81.81,0,0,0,.112.131c.084.093.121.216.209.3.011.011.009.037.021.045a.389.389,0,0,1,.133.195.946.946,0,0,0,.164.263c.062.085.1.181.159.268.081.121.143.254.222.378a1.441,1.441,0,0,1,.095.223c.044.107.106.2.156.309a3.862,3.862,0,0,1,.22.559,1.2,1.2,0,0,1,.113.313c.05.041.013.11.053.159s.034.118.062.167.017.11.047.162.006.121.035.164c.042.06.007.128.047.19a.243.243,0,0,1,.032.179c.089.175.082.378.163.555a.239.239,0,0,1,0,.082.412.412,0,0,0,.013.174c.031.055-.019.122.041.164.007,0,0,.027,0,.04a.305.305,0,0,0,0,.158c.014.049-.006.107.03.154s-.044.07,0,.118a.234.234,0,0,1,.029.124.723.723,0,0,0,0,.138,3.286,3.286,0,0,1,.029.4,3.814,3.814,0,0,1,.024.57c0,.031-.009.064.024.088.007.006.008.028,0,.039A1.5,1.5,0,0,0,36,22.14c-.007.07-.021.14-.026.21s0,.139,0,.207a.87.87,0,0,0-.028.141c0,.042.024.092-.019.129.049.089-.029.174-.009.266a.3.3,0,0,1-.01.187c-.03.055.017.121-.041.165-.011.009,0,.044,0,.067-.01.066.021.134-.019.2s0,.118-.03.181-.008.147-.031.222a2.29,2.29,0,0,0-.052.24c-.014.072-.021.148-.034.222-.008.043-.018.085-.028.127s.012.095-.019.145c-.021.034.006.095-.011.133a2.278,2.278,0,0,0-.1.4c-.035.133-.06.272-.1.4a4.365,4.365,0,0,0-.106.454,1.376,1.376,0,0,1-.05.131.694.694,0,0,0-.06.2.1.1,0,0,1-.019.047c-.007.011-.029.022-.028.029.025.116-.084.187-.1.295a.882.882,0,0,1-.112.27c-.012.024-.023.023.011.039.059.027.051.032.025.1a1.794,1.794,0,0,1-.179.313.591.591,0,0,0-.043.079,1.063,1.063,0,0,1-.143.245c-.057.071-.068.172-.147.229a1.651,1.651,0,0,1-.207.329c-.038.057-.069.119-.106.177a.17.17,0,0,0-.034.144c0,.009,0,.024,0,.027-.06.035-.042.1-.068.152a.857.857,0,0,1-.108.163c-.133.148-.235.32-.374.464-.1.106-.189.226-.283.339a.845.845,0,0,0-.131.248.328.328,0,0,1-.057.129c-.005.005,0,.029.008.035a.037.037,0,0,0,.036,0,1.126,1.126,0,0,0,.119-.1c.038-.038.089-.077.1-.123.018-.08.1-.09.134-.15a1.652,1.652,0,0,1,.221-.254,1.7,1.7,0,0,0,.217-.27,1.993,1.993,0,0,1,.173-.2,6.415,6.415,0,0,0,.553-.754c.118-.19.237-.379.349-.573a.9.9,0,0,1,.142-.248,1.028,1.028,0,0,0,.149-.227.878.878,0,0,0,.064-.125.338.338,0,0,1,.083-.132c.012-.011.029-.03.027-.043-.009-.068.049-.113.054-.171s.077-.084.064-.158c-.008-.041.04-.091.061-.138a1.109,1.109,0,0,0,.127-.334,1.749,1.749,0,0,0,.147-.354.332.332,0,0,0,.05-.118.177.177,0,0,1,.06-.1c.023-.02.075-.042.09-.031.032.025.006.058-.011.092a1.3,1.3,0,0,0-.059.183c-.012.037-.03.071-.043.107a2.315,2.315,0,0,0-.15.408c-.058.06-.049.146-.086.213a.423.423,0,0,0-.089.2.114.114,0,0,1-.048.075c-.045.033-.05.081-.067.125a3.077,3.077,0,0,1-.272.551c-.032.05-.046.111-.075.162-.019.033-.005.094-.071.095,0,0-.012.023-.01.035a.371.371,0,0,1-.035.224.54.54,0,0,0-.1.184,2.018,2.018,0,0,1-.187.323.758.758,0,0,0-.138.248.287.287,0,0,1-.057.087c-.029.039-.061.075-.087.116-.08.125-.171.242-.255.364a.823.823,0,0,1-.059.086c-.084.1-.17.188-.253.283a.414.414,0,0,0-.051.089c0,.005,0,.016.008.024l.019-.008c.025-.016.065-.027.074-.05.032-.081.108-.121.16-.183s.111-.129.166-.194c.029-.033.008-.095.06-.112s.043-.074.069-.093a.28.28,0,0,0,.1-.123c.019-.054.069-.078.089-.127a.1.1,0,0,1,.036-.04.349.349,0,0,0,.154-.238.182.182,0,0,1,.048-.106.956.956,0,0,0,.108-.163,1.6,1.6,0,0,1,.127-.21c.048-.066.091-.137.134-.207a2.423,2.423,0,0,1,.169-.275c.084-.1.118-.232.207-.33.036-.147.138-.265.178-.41.008-.029.017-.065.038-.08.1-.066.087-.189.155-.269-.026-.062.039-.085.057-.128.06-.15.133-.3.19-.447s.106-.288.154-.433a.3.3,0,0,0,.081-.01c-.02.086-.081.16-.068.254,0,.011-.01.023-.016.034-.08.138-.1.3-.176.439.014.051-.039.067-.055.1a.866.866,0,0,0-.055.143c-.012.047-.082.067-.057.129a1.383,1.383,0,0,1-.129.208c-.058.065-.051.16-.12.215a2.917,2.917,0,0,1-.223.475,1.725,1.725,0,0,1-.1.15c-.041.066-.087.133-.042.217a.057.057,0,0,1,0,.046,3.766,3.766,0,0,0-.215.409,5.96,5.96,0,0,0-.383.588c-.015.02-.031.05-.05.055s-.042.028-.031.046c.029.048-.074.086-.007.133a.058.058,0,0,1-.01.019c-.065.072-.111.159-.172.234-.074.092-.162.171-.237.26a1.006,1.006,0,0,0-.13.18c-.033.063-.116.088-.137.165,0,.012-.017.02-.027.03a1.045,1.045,0,0,0-.167.193c-.033.056-.094.085-.137.134-.166.188-.342.367-.516.547-.027.028-.07.041-.094.07-.074.095-.172.165-.253.252a.139.139,0,0,0-.021.06c0,.007.005.016.008.024a.113.113,0,0,0,.019-.009l.165-.137c.023-.02.04-.051.08-.043.007,0,.022,0,.024-.006.038-.1.179-.116.2-.231.113-.056.147-.2.269-.246.035-.014.049-.072.081-.1.068-.065.145-.121.212-.188a.6.6,0,0,0,.168-.193s.017,0,.025,0,.014.013.012.017a.474.474,0,0,1-.125.24.726.726,0,0,0-.17.19c-.023.039-.078.057-.113.09q-.174.169-.342.343c-.03.031-.049.073-.08.1s-.071.051-.1.08a.168.168,0,0,0-.061.1c-.013.066-.068.085-.171.087-.007,0-.02.032-.017.035.044.046.045.07-.028.071a.072.072,0,0,0-.043.027,1.36,1.36,0,0,1-.255.189c-.031.024-.063.049-.092.075a.165.165,0,0,0-.024.056l.051.011c.037.009.057-.016.082-.038.053-.047.089-.115.164-.138.008,0,.013-.017.02-.017a.049.049,0,0,1,.036.011c.006.008,0,.033,0,.035-.093.038-.135.136-.215.185a2.272,2.272,0,0,0-.2.178c-.1.075-.2.144-.3.216-.074.055-.147.111-.222.166-.119.089-.241.176-.359.265-.1.074-.212.12-.308.2a2.008,2.008,0,0,1-.3.18,2.376,2.376,0,0,0-.265.164,2.135,2.135,0,0,1-.258.142c-.025.014-.087.01-.035.066-.03.024-.056.063-.089.068a.289.289,0,0,0-.107.046.921.921,0,0,1-.179.068c-.02.007-.048,0-.063.014-.074.061-.174.073-.25.134a.353.353,0,0,1-.163.071.486.486,0,0,0-.142.06c-.051.024-.092.072-.158.055-.008,0-.023,0-.025,0-.042.078-.128.045-.191.076a.319.319,0,0,1-.2.061,1.373,1.373,0,0,1-.322.125c-.09.039-.188.057-.278.1a3.631,3.631,0,0,1-.358.1,2.4,2.4,0,0,1-.245.079c-.16.033-.318.077-.475.121s-.291.055-.435.087a2.83,2.83,0,0,0-.439.106c-.073-.019-.139.021-.21.029a.832.832,0,0,0-.154.028c-.045.013-.079-.062-.134-.005-.022.023-.088,0-.133.009a.969.969,0,0,0-.132.047.052.052,0,0,1-.027,0,3.207,3.207,0,0,0-.376.03,1.631,1.631,0,0,0-.182.024.621.621,0,0,0-.178.005.581.581,0,0,1-.239.022c-.056,0-.119.022-.168-.026a.23.23,0,0,1-.154.028h-.346c-.06,0-.12,0-.18,0-.1-.007-.2-.021-.307-.026a1.812,1.812,0,0,1-.3-.006,2.06,2.06,0,0,0-.294-.024,1.244,1.244,0,0,1-.141-.027c-.051-.01-.1.013-.157-.024-.035-.024-.1.01-.139-.03-.01-.009-.037,0-.054,0a.306.306,0,0,1-.18-.033.329.329,0,0,0-.115-.023.327.327,0,0,1-.156-.025c-.044-.023-.1,0-.156-.024s-.131,0-.193-.033c-.008,0-.02,0-.026,0-.043-.035-.085-.072-.144-.032a2.812,2.812,0,0,1-.459-.127,2.929,2.929,0,0,1-.477-.119,2.374,2.374,0,0,1-.376-.126.775.775,0,0,0-.208-.065c-.055,0-.1-.044-.156-.058a1.446,1.446,0,0,1-.22-.1,5.79,5.79,0,0,1-.55-.242c-.054-.03-.123-.026-.179-.069a1.675,1.675,0,0,0-.172-.082c-.118-.071-.245-.126-.359-.2-.039-.027-.085-.039-.126-.064-.1-.057-.195-.108-.29-.17s-.185-.11-.274-.17c-.169-.114-.355-.2-.514-.329-.088-.071-.185-.13-.277-.2-.071-.051-.142-.1-.212-.156s-.15-.108-.221-.167c-.132-.109-.254-.227-.39-.33-.21-.159-.387-.354-.584-.527-.37-.324-.7-.69-1.051-1.03a.731.731,0,0,1-.182-.215c-.059-.139-.2-.21-.253-.351a.375.375,0,0,0-.095-.126,1.317,1.317,0,0,1-.265-.374c-.026-.055-.085-.088-.118-.145-.085-.145-.176-.288-.271-.426a4.207,4.207,0,0,1-.3-.527.31.31,0,0,0-.055-.074,1.47,1.47,0,0,1-.121-.227,2.005,2.005,0,0,1-.1-.22.468.468,0,0,0-.117-.187c-.007-.006-.018-.013-.019-.02a.978.978,0,0,0-.112-.3,1.235,1.235,0,0,0-.123-.268.162.162,0,0,1-.015-.049,2.7,2.7,0,0,1-.142-.439c-.067-.087-.053-.209-.126-.294-.008-.009-.005-.025-.009-.038s-.008-.024-.012-.037a.141.141,0,0,0-.015.045c0,.053-.018.111.041.149.009.006.016.03.012.035-.072.084.015.145.031.215s.054.108.066.165a1.161,1.161,0,0,0,.068.138c.02.057.018.125.038.178s0,.133.072.163a.226.226,0,0,0,.067.152c.013.014.012.04.018.061.014.054.012.123.046.159s.032.1.071.141a.511.511,0,0,1,.076.16,1.883,1.883,0,0,0,.177.37c.066.095.126.2.188.295a1.246,1.246,0,0,1,.042.121c.017.035.057.05.067.1a.9.9,0,0,0,.079.161.232.232,0,0,0,.094.127.118.118,0,0,1,.044.075.67.67,0,0,0,.164.292c.011.014.032.031.03.042-.019.091.053.145.083.216a.1.1,0,0,0,.058.065.048.048,0,0,1,.025.036.22.22,0,0,0,.086.172c.06.057.088.145.174.175.009,0,.013.022.018.034a.7.7,0,0,0,.177.245.49.49,0,0,1,.088.115.461.461,0,0,0,.194.195.076.076,0,0,1,.037.052.283.283,0,0,0,.1.167c.05.051.1.106.141.161a.947.947,0,0,0,.217.2c.092.058.145.164.234.229.016.076.107.067.142.13a.389.389,0,0,0,.151.155c.071.034.1.117.18.132.04.1.133.131.209.188a.952.952,0,0,1,.147.186c.038.048.066.1.142.112.042.006.079.052.119.077s-.037.047.012.071.072.111.153.1c.06.073.159.1.218.168a1.977,1.977,0,0,0,.373.274.618.618,0,0,1,.074.055.336.336,0,0,0,.158.089c.045.011.058.082.117.11a.806.806,0,0,1,.245.148c.034.035.1.041.15.069a2.562,2.562,0,0,0,.263.167.733.733,0,0,1,.218.109c.016.013.041.031.057.027a.206.206,0,0,1,.19.075c.064.056.158.023.211.09.044-.067.086.029.13,0a.451.451,0,0,0,.155.094s.006.009.01.009c.049.012-.015.093.055.09a.149.149,0,0,1,.1.027c.024.017.062.018.081.038.076.081.181.077.276.1a.614.614,0,0,1,.11.035c.112.053.225.1.341.145a.134.134,0,0,0,.049.013.474.474,0,0,1,.346.079,1.07,1.07,0,0,0,.268.088c.038.008.075.022.113.027s.074,0,.111,0a.085.085,0,0,1,.049.012.564.564,0,0,0,.291.1,1.084,1.084,0,0,0,.2.025.147.147,0,0,1,.083.03.22.22,0,0,0,.187.051.97.97,0,0,1,.337.056c.028.054.087.008.122.038s.088.017.132.015a.239.239,0,0,1,.126.03c.031.015.055.047.092,0,.008-.009.061.007.08.024a.259.259,0,0,0,.2.054c.009,0,.018,0,.028,0a5.853,5.853,0,0,1,.6.03c.055,0,.115.051.166.022a.2.2,0,0,1,.155-.021,1.708,1.708,0,0,0,.432.024c.143,0,.286,0,.429,0a.318.318,0,0,0,.083,0,1.2,1.2,0,0,0,.128-.051c.036.044.086.024.128.023a.807.807,0,0,0,.127-.025.04.04,0,0,1,.024.007.026.026,0,0,1,0,.018c-.047.048-.088.106-.173.087a.2.2,0,0,0-.09.012c-.011,0-.018.019-.028.029.012,0,.027.015.036.012a1.329,1.329,0,0,1,.2-.031c.066-.016.136-.007.2-.027.139-.043.287-.028.424-.079.028-.01.064,0,.1,0,.047-.007.1.023.142-.024.048.059.094,0,.142,0a.42.42,0,0,0,.15,0c.058-.027.12-.007.168-.028a.644.644,0,0,1,.17-.024c.135-.023.269-.047.406-.058.08-.006.155-.054.24-.053.05-.058.135,0,.185-.055a1.055,1.055,0,0,0,.341-.081c.041-.02.1.019.139-.03.1.022.184-.051.281-.058.044,0,.087-.05.129-.048.058,0,.1-.03.155-.033a.291.291,0,0,0,.139-.029c.11-.072.243-.053.357-.107s.223-.086.334-.127a.218.218,0,0,1,.05-.013,1.14,1.14,0,0,0,.352-.118c.092-.047.194-.065.285-.113a2.3,2.3,0,0,1,.277-.132,2.668,2.668,0,0,0,.273-.142c.091-.046.188-.083.277-.133.17-.093.343-.179.5-.288.074-.05.16-.083.237-.129.108-.065.213-.134.316-.205a1.928,1.928,0,0,0,.309-.223.19.19,0,0,1,.067-.038.043.043,0,0,1,.035.01c.015.1.079.022.091.013a1.745,1.745,0,0,0,.316-.276c.017-.019-.031-.051.013-.069a.341.341,0,0,0,.066-.04c.025-.017.049-.036.074-.055a.577.577,0,0,0,.052-.041,1.7,1.7,0,0,1,.3-.245.141.141,0,0,0,.02-.019c.149-.14.3-.281.448-.42.059-.055.127-.1.183-.158a4.912,4.912,0,0,0,.456-.49c.125-.169.282-.3.412-.465a3.609,3.609,0,0,1,.316-.366c.036-.143.179-.2.247-.326a2.823,2.823,0,0,1,.22-.324,1.677,1.677,0,0,0,.159-.225,6.108,6.108,0,0,0,.422-.724c.137-.174.19-.4.323-.571a.815.815,0,0,1,.093-.224,2.353,2.353,0,0,0,.119-.268,4.927,4.927,0,0,0,.239-.62,1.016,1.016,0,0,0,.145-.341c.016-.068.083-.129.029-.207a.022.022,0,0,1,0-.019c.1-.111.09-.266.149-.395a1.28,1.28,0,0,0,.044-.134.524.524,0,0,0,.045-.162.246.246,0,0,1,.028-.112.243.243,0,0,0,.027-.127.111.111,0,0,1,.011-.064,1.481,1.481,0,0,0,.116-.312.1.1,0,0,0,.01-.05.956.956,0,0,1,.064-.376,1.5,1.5,0,0,1,.121-.35c.028-.049.01-.11.032-.167a1.394,1.394,0,0,0,.035-.249.506.506,0,0,1,.053-.143A.821.821,0,0,0,37.418,24a2.7,2.7,0,0,0,.018-.277.092.092,0,0,1,.028-.056.088.088,0,0,1,.058-.018c.009,0,.023.024.023.037a.589.589,0,0,1-.023.239c-.018.038,0,.091,0,.137a.488.488,0,0,1-.024.2c-.024.054.021.126-.031.18a.963.963,0,0,1-.056.364.042.042,0,0,0,0,.014c.02.182-.042.36-.029.542,0,.02-.013.041-.017.062-.01.06-.032.116-.042.177a1.467,1.467,0,0,1-.064.318,2.591,2.591,0,0,0-.07.275,1.636,1.636,0,0,1-.227.569.1.1,0,0,0-.007.123.23.23,0,0,1,.013.124.172.172,0,0,1-.038.124.356.356,0,0,0-.045.132c-.018.062-.032.125-.056.184-.031.075-.073.145-.105.22-.007.017.014.044.013.066a.246.246,0,0,1-.018.061c-.007.02-.008.047-.021.06a.408.408,0,0,0-.113.311c0,.067-.043.1-.067.14a.92.92,0,0,0-.16.349c0,.012-.014.022-.021.033a.439.439,0,0,0-.033.056c-.026.063-.045.129-.076.19s-.093.111-.112.174a2.438,2.438,0,0,1-.178.342,2.589,2.589,0,0,0-.187.324c-.108.073-.111.222-.215.3a1.553,1.553,0,0,1-.212.328c-.071.1-.139.21-.2.317a1.452,1.452,0,0,1-.142.161.7.7,0,0,0-.113.147.7.7,0,0,1-.092.142c-.059.073-.124.142-.185.214-.025.03-.046.064-.069.1a.688.688,0,0,1-.059.086q-.385.4-.773.8c-.069.07-.15.129-.222.2a1.976,1.976,0,0,1-.218.211c-.092.062-.152.164-.263.2-.008,0-.021.006-.022.011-.014.065-.068.086-.116.116s-.066.086-.125.1c-.022,0,0,.06-.045.051-.082.1-.222.125-.309.22-.005.006,0,.019,0,.029a.083.083,0,0,0,.028,0c.008,0,.012-.014.02-.019.14-.085.28-.17.421-.254.009-.005.024,0,.037,0-.005.01-.008.024-.016.029a1.15,1.15,0,0,0-.271.215.544.544,0,0,1-.1.055.616.616,0,0,0-.2.144c-.038.056-.106.039-.147.085a.519.519,0,0,1-.137.1,1.493,1.493,0,0,1-.136.071c-.141.061-.265.158-.411.211a.241.241,0,0,1-.17.091c-.062.01-.1.067-.142.116,0,0,.013.036.022.037a.125.125,0,0,0,.112-.033.947.947,0,0,1,.181-.127.286.286,0,0,1,.1-.021c.085-.012.142-.078.218-.109s.167-.088.254-.121c.061-.022.086-.113.17-.086,0,0,.011-.021.018-.03s.034-.045.056-.05a.394.394,0,0,0,.176-.11c.023-.021.043-.053.077-.013,0,0,.018,0,.018,0,.008-.077.063-.074.12-.074.014,0,.026-.025.042-.031.05-.016.059-.074.1-.095a.142.142,0,0,0,.087-.088c0-.014.024-.027.04-.033a1.088,1.088,0,0,0,.267-.191,3.951,3.951,0,0,1,.4-.28c.055-.036.108-.075.162-.112a.145.145,0,0,1,.039-.013c0,.012,0,.029-.009.037a.225.225,0,0,0-.08.149c0,.043-.065.085-.107.119a2.188,2.188,0,0,0-.189.14,1.421,1.421,0,0,1-.259.179c-.071.046-.121.117-.195.164a2.3,2.3,0,0,0-.251.194.085.085,0,0,1-.072.028c-.038-.006-.062,0-.056.05,0,.011-.009.024-.015.035a.4.4,0,0,0-.038.067c0,.012.035,0,.084-.03a1.194,1.194,0,0,1,.221-.134c.08-.03.158-.071.237-.093s.121-.087.174-.139c.022-.021.031-.059.056-.072a.727.727,0,0,0,.194-.2.57.57,0,0,1,.255-.183.225.225,0,0,0,.1-.063.764.764,0,0,1,.231-.145c.005,0,.017,0,.018,0a.034.034,0,0,1,.006.024.1.1,0,0,1-.023.032,1.341,1.341,0,0,1-.348.3c-.02.009-.034.031-.05.047-.077.081-.179.135-.256.21a4.252,4.252,0,0,0-.383.318.351.351,0,0,1-.083.064,3.639,3.639,0,0,1-.426.309.025.025,0,0,0-.006.024.048.048,0,0,0,.026.022.134.134,0,0,0,.117-.049,4.007,4.007,0,0,1,.373-.308c.057-.055.122-.1.181-.159a.172.172,0,0,1,.076-.047c.083-.014.129-.086.2-.121.021-.011.032-.042.05-.061a1.2,1.2,0,0,1,.112-.111.9.9,0,0,0,.234-.2c.147-.075.22-.24.369-.312.058-.029.052-.108.122-.134a.222.222,0,0,0,.113-.126.22.22,0,0,1,.086-.088.814.814,0,0,0,.307-.281c.057-.079.113-.158.177-.231.1-.12.215-.234.321-.352.051-.056.094-.12.148-.173s.142-.124.212-.187a3.012,3.012,0,0,0,.428-.541,1.583,1.583,0,0,1,.208-.315,1.294,1.294,0,0,1,.2-.358c.022-.042.064-.076.076-.12a.825.825,0,0,1,.146-.271c.092-.122.136-.268.216-.4.017-.028,0-.055-.035-.017-.006-.009-.017-.019-.016-.028a.064.064,0,0,1,.02-.032,1.449,1.449,0,0,0,.251-.436c.014-.025.025-.054.04-.08.03-.051.048-.109.074-.163a.986.986,0,0,1,.081-.189.314.314,0,0,0,.03-.1.277.277,0,0,1,.034-.1,1.451,1.451,0,0,0,.165-.305c.006-.012.02-.021.021-.033a2.486,2.486,0,0,1,.27-.7.635.635,0,0,0,.092-.267.146.146,0,0,1,.028-.071.392.392,0,0,0,.056-.157.284.284,0,0,1,.09-.185.241.241,0,0,0,.077-.176,1.127,1.127,0,0,1,.055-.294c.014-.037.014-.1.089-.09.012,0,.045-.038.044-.057a.218.218,0,0,1,.072-.194c.033-.029.028-.091.036-.135a1.146,1.146,0,0,1,.073-.22.133.133,0,0,0,.014-.063A.209.209,0,0,1,38.726,25c.016-.019.04-.053.034-.067-.042-.087.019-.169.005-.255a.271.271,0,0,1,.027-.126.508.508,0,0,1,.051-.087c-.049-.031-.011-.058,0-.089s-.008-.041-.014-.062c-.013-.051-.032-.1.014-.15a.13.13,0,0,0,.02-.037c.01.01.029.02.028.029,0,.052.074.1.009.154,0,.06,0,.12,0,.18A.966.966,0,0,1,38.889,24.773Zm3.471-5.149a.532.532,0,0,0-.092-.306.279.279,0,0,1-.044-.214,1.36,1.36,0,0,0,.025-.32c0-.009.011-.018.016-.028l.01.023a.2.2,0,0,1,.027.071,3.166,3.166,0,0,0,.117.585c.048.051.006.115.022.153,0,.049,0,.081,0,.113a.03.03,0,1,1-.053.006A.178.178,0,0,1,42.36,19.625Zm.192,2.848a.465.465,0,0,1-.02.043c-.018-.011-.043-.018-.054-.035a.117.117,0,0,1-.009-.064.3.3,0,0,0-.04-.177.122.122,0,0,1-.014-.089.584.584,0,0,0,0-.351,1.24,1.24,0,0,1,0-.247c0-.043.013-.087-.021-.13-.015-.019.006-.066.011-.1a.2.2,0,0,0,.01-.05.3.3,0,0,1,.11-.318.154.154,0,0,1,.019-.012.062.062,0,0,1,.01.023c0,.046,0,.092,0,.138h0a.669.669,0,0,1-.016.188.631.631,0,0,0-.014.187.879.879,0,0,1,0,.191.825.825,0,0,0-.023.266.213.213,0,0,0,.022.128c.028.045.012.115.035.164s-.025.1.021.149C42.588,22.389,42.562,22.439,42.552,22.472ZM31.014,34.37a.2.2,0,0,0-.125.066c-.128,0-.221.09-.337.122a.846.846,0,0,0-.189.078.416.416,0,0,1-.2.087.066.066,0,0,0-.034.017.471.471,0,0,1-.2.086c-.043.01-.079.053-.117.083,0,0,0,.023.007.023.023,0,.046,0,.069,0s.062.01.081,0,.085-.011.081-.068c.043-.007.1,0,.127-.023.045-.051.1-.042.149-.046a.1.1,0,0,0,.06-.02.1.1,0,0,1,.084-.035.067.067,0,0,0,.048-.014,1.037,1.037,0,0,1,.3-.178c.081-.047.168-.083.252-.125.01-.006.021-.03.017-.037a.079.079,0,0,0-.041-.031C31.039,34.352,31.026,34.368,31.014,34.37Z" transform="translate(0 0)" fill="#fff"/>
  </g>
</svg>
