<?xml version="1.0" encoding="utf-8"?>
<!-- Generator: Adobe Illustrator 24.0.2, SVG Export Plug-In . SVG Version: 6.00 Build 0)  -->
<svg version="1.1" id="Group_602" xmlns="http://www.w3.org/2000/svg" xmlns:xlink="http://www.w3.org/1999/xlink" x="0px" y="0px"
	 viewBox="0 0 36.9 36.9" style="enable-background:new 0 0 36.9 36.9;" xml:space="preserve">
<style type="text/css">
	.st0{clip-path:url(#SVGID_2_);}
	.st1{clip-path:url(#SVGID_4_);}
	.st2{fill:#FFFFFF;}
</style>
<g id="Group_601">
	<g>
		<defs>
			<rect id="SVGID_1_" width="36.9" height="36.9"/>
		</defs>
		<clipPath id="SVGID_2_">
			<use xlink:href="#SVGID_1_"  style="overflow:visible;"/>
		</clipPath>
		<g id="Group_600" class="st0">
			<g id="Group_599">
				<g>
					<defs>
						<rect id="SVGID_3_" width="36.9" height="36.9"/>
					</defs>
					<clipPath id="SVGID_4_">
						<use xlink:href="#SVGID_3_"  style="overflow:visible;"/>
					</clipPath>
					<g id="Group_598" class="st1">
						<g id="Path_315">
							<path class="st2" d="M10.2,13.6L10.2,13.6c-1.8,0-3.2-1.5-3.2-3.2c0-1.8,1.5-3.2,3.2-3.2c1.8,0,3.2,1.4,3.2,3.2
								C13.5,12.1,12,13.6,10.2,13.6z M10.2,8.7c-0.9,0-1.7,0.7-1.7,1.7c0,0.9,0.7,1.7,1.6,1.7h0c0.9,0,1.7-0.7,1.7-1.7
								C11.9,9.4,11.1,8.7,10.2,8.7z"/>
						</g>
						<g id="Path_316">
							<path class="st2" d="M27,30.4L27,30.4c-1.8,0-3.2-1.5-3.2-3.2c0-1.8,1.4-3.2,3.2-3.2s3.2,1.4,3.2,3.2
								C30.3,28.9,28.8,30.4,27,30.4z M27,25.5c-0.9,0-1.7,0.7-1.7,1.7c0,0.9,0.7,1.7,1.6,1.7h0c0.9,0,1.7-0.7,1.7-1.7
								C28.7,26.2,28,25.5,27,25.5z"/>
						</g>
						<g id="Path_317">
							<path class="st2" d="M10.2,30.4L10.2,30.4c-1.8,0-3.2-1.5-3.2-3.2c0-1.8,1.4-3.2,3.2-3.2c1.8,0,3.2,1.4,3.2,3.2
								S12,30.4,10.2,30.4z M10.2,25.5c-0.9,0-1.7,0.7-1.7,1.7c0,0.9,0.7,1.7,1.6,1.7h0c0.9,0,1.7-0.7,1.7-1.7S11.1,25.5,10.2,25.5z
								"/>
						</g>
						<g id="Path_318">
							<path class="st2" d="M27,13.6L27,13.6c-0.9,0-1.7-0.3-2.3-1c-0.6-0.6-0.9-1.4-0.9-2.3c0-1.8,1.4-3.2,3.2-3.2
								c1.8,0,3.2,1.4,3.2,3.2C30.2,12.2,28.8,13.6,27,13.6z M27,8.7c-0.9,0-1.7,0.7-1.7,1.7c0,0.4,0.2,0.9,0.5,1.2S26.6,12,27,12h0
								c0.9,0,1.7-0.7,1.7-1.7S27.9,8.7,27,8.7z"/>
						</g>
						<g id="Path_319">
							<path class="st2" d="M8.7,26.1c-0.2,0-0.5-0.1-0.6-0.3c-2.4-3.5-3-7.9-1.4-11.9c0.2-0.4,0.6-0.6,1-0.4c0.4,0.2,0.6,0.6,0.4,1
								c-1.3,3.5-0.9,7.4,1.3,10.4c0.2,0.4,0.2,0.8-0.2,1.1C9,26,8.8,26.1,8.7,26.1z"/>
						</g>
						<g id="Path_320">
							<path class="st2" d="M28.3,25.9c-0.2,0-0.3,0-0.4-0.1c-0.4-0.2-0.5-0.7-0.2-1.1c2.4-3.6,2.5-8.3,0.2-12
								c-0.2-0.4-0.1-0.9,0.3-1.1s0.9-0.1,1.1,0.3c2.6,4.2,2.5,9.6-0.3,13.7C28.9,25.7,28.6,25.9,28.3,25.9z"/>
						</g>
						<g id="Path_321">
							<path class="st2" d="M25.3,9.5c-0.2,0-0.3,0-0.5-0.1c-1.9-1.3-4-2-6.4-2c0,0,0,0,0,0c-1.4,0-2.9,0.3-4.2,0.8
								c-0.4,0.2-0.9,0-1-0.4c-0.2-0.4,0-0.9,0.4-1c1.5-0.6,3.1-0.9,4.8-0.9c0,0,0,0,0,0c2.6,0,5.1,0.8,7.2,2.3
								c0.4,0.2,0.4,0.7,0.2,1.1C25.8,9.3,25.5,9.5,25.3,9.5z"/>
						</g>
						<g id="Path_322">
							<path class="st2" d="M18.4,31.1c-2.3,0-4.6-0.6-6.7-1.9c-0.4-0.2-0.5-0.7-0.3-1.1s0.7-0.5,1.1-0.3c3.6,2.2,8.3,2.2,11.9-0.2
								c0.4-0.2,0.8-0.1,1.1,0.2c0.2,0.4,0.1,0.8-0.2,1.1C23.3,30.5,20.9,31.1,18.4,31.1z"/>
						</g>
					</g>
				</g>
			</g>
		</g>
	</g>
</g>
</svg>
