<?xml version="1.0" encoding="utf-8"?>
<!-- Generator: Adobe Illustrator 24.0.2, SVG Export Plug-In . SVG Version: 6.00 Build 0)  -->
<svg version="1.1" id="Group_609" xmlns="http://www.w3.org/2000/svg" xmlns:xlink="http://www.w3.org/1999/xlink" x="0px" y="0px"
	 viewBox="0 0 36.9 36.9" style="enable-background:new 0 0 36.9 36.9;" xml:space="preserve">
<style type="text/css">
	.st0{clip-path:url(#SVGID_2_);}
	.st1{fill:#FFFFFF;}
	.st2{clip-path:url(#SVGID_4_);}
</style>
<g id="Group_608">
	<g>
		<g>
			<defs>
				<rect id="SVGID_1_" width="36.9" height="36.9"/>
			</defs>
			<clipPath id="SVGID_2_">
				<use xlink:href="#SVGID_1_"  style="overflow:visible;"/>
			</clipPath>
			<g id="Group_607" class="st0">
				<g id="Line_464">
					<path class="st1" d="M22.7,30.9h-17c-0.4,0-0.8-0.4-0.8-0.8s0.4-0.8,0.8-0.8h17c0.4,0,0.8,0.4,0.8,0.8S23.1,30.9,22.7,30.9z"/>
				</g>
				<g id="Line_465">
					<path class="st1" d="M5.7,30.9C5.7,30.9,5.7,30.9,5.7,30.9c-0.5,0-0.8-0.4-0.8-0.8l0.2-3.2c0-0.4,0.4-0.8,0.8-0.7
						c0.4,0,0.8,0.4,0.7,0.8l-0.2,3.2C6.5,30.6,6.1,30.9,5.7,30.9z"/>
				</g>
				<g id="Group_606">
					<g>
						<g>
							<defs>
								<rect id="SVGID_3_" width="36.9" height="36.9"/>
							</defs>
							<clipPath id="SVGID_4_">
								<use xlink:href="#SVGID_3_"  style="overflow:visible;"/>
							</clipPath>
							<g id="Group_605" class="st2">
								<g id="Path_323">
									<path class="st1" d="M22.7,30.9c-0.4,0-0.7-0.3-0.8-0.7l-0.3-3.8c0-0.4-0.1-0.9-0.1-1.4c-0.1-1.3-0.1-2.5-0.8-3.5
										C20,20.7,19,20.1,18.1,20c-1.2-0.2-6.2-0.2-7.1,0.1c-0.4,0.1-0.9-0.1-1-0.5c-0.1-0.4,0.1-0.9,0.5-1
										c1.4-0.5,6.6-0.3,7.9-0.1c1.3,0.2,2.6,0.9,3.6,2.1c1.1,1.4,1.2,3,1.2,4.4c0,0.4,0,0.9,0.1,1.3l0.3,3.8
										C23.5,30.5,23.2,30.8,22.7,30.9C22.7,30.9,22.7,30.9,22.7,30.9z"/>
								</g>
								<g id="Path_324">
									<path class="st1" d="M14.2,17c-2.3,0-4.1-1.8-4.1-4.1c0-0.4,0.4-0.8,0.8-0.8s0.8,0.4,0.8,0.8c0,1.4,1.2,2.5,2.5,2.5
										s2.5-1.2,2.5-2.5c0-0.4,0.4-0.8,0.8-0.8s0.8,0.4,0.8,0.8C18.3,15.2,16.5,17,14.2,17z"/>
								</g>
								<g id="Path_325">
									<path class="st1" d="M17.5,13.7c-0.4,0-0.8-0.4-0.8-0.8v-2.3c0-1.4-1.2-2.5-2.5-2.5s-2.5,1.2-2.5,2.5v2.3
										c0,0.4-0.4,0.8-0.8,0.8s-0.8-0.4-0.8-0.8v-2.3c0-2.3,1.8-4.1,4.1-4.1s4.1,1.8,4.1,4.1v2.3C18.3,13.3,17.9,13.7,17.5,13.7z"
										/>
								</g>
								<g id="Path_326">
									<path class="st1" d="M6.1,25.2c-1.8,0-3.3-1.4-3.3-3.3s1.4-3.3,3.3-3.3s3.3,1.4,3.3,3.3S7.9,25.2,6.1,25.2z M6.1,20.2
										c-1,0-1.7,0.8-1.7,1.7s0.8,1.7,1.7,1.7s1.7-0.8,1.7-1.7S7.1,20.2,6.1,20.2z"/>
								</g>
								<g id="Line_466">
									<path class="st1" d="M33.3,28.4H22.5c-0.4,0-0.8-0.4-0.8-0.8s0.4-0.8,0.8-0.8h10.8c0.4,0,0.8,0.4,0.8,0.8
										S33.7,28.4,33.3,28.4z"/>
								</g>
								<g id="Path_327">
									<path class="st1" d="M33.2,28.3c-0.4,0-0.7-0.3-0.8-0.7l-0.3-3.8c0-0.3,0-0.7,0-1c0-1.5-0.1-2.8-0.9-3.9
										c-0.7-0.8-1.6-1.3-2.6-1.5c-1.2-0.2-2.3-0.3-3.6-0.3h-0.5c-1.2,0-2.5,0.1-3.6,0.3c-0.9,0.2-1.9,0.7-2.6,1.5
										c-0.1,0.1-0.2,0.2-0.3,0.4c-0.2,0.4-0.7,0.5-1.1,0.4c-0.4-0.2-0.5-0.7-0.4-1.1c0.1-0.2,0.3-0.5,0.5-0.8
										c1-1.1,2.2-1.8,3.5-2c1.2-0.2,2.5-0.3,3.8-0.3H25c1.3,0,2.6,0.1,3.8,0.3c1.4,0.2,2.7,1,3.6,2.1c1.2,1.4,1.2,3.2,1.2,4.8
										c0,0.3,0,0.6,0,1l0.3,3.8C34,27.9,33.7,28.2,33.2,28.3C33.2,28.3,33.2,28.3,33.2,28.3z"/>
								</g>
								<g id="Path_328">
									<path class="st1" d="M24.8,14.5c-2.3,0-4.1-1.8-4.1-4.1c0-0.4,0.4-0.8,0.8-0.8s0.8,0.4,0.8,0.8c0,1.4,1.2,2.5,2.5,2.5
										s2.5-1.2,2.5-2.5c0-0.4,0.4-0.8,0.8-0.8s0.8,0.4,0.8,0.8C28.9,12.7,27.1,14.5,24.8,14.5z"/>
								</g>
								<g id="Path_329">
									<path class="st1" d="M28.1,11.2c-0.4,0-0.8-0.4-0.8-0.8V8.1c0-1.4-1.2-2.5-2.5-2.5s-2.5,1.2-2.5,2.5v2.3
										c0,0.4-0.4,0.8-0.8,0.8s-0.8-0.4-0.8-0.8V8.1c0-2.3,1.8-4.1,4.1-4.1s4.1,1.8,4.1,4.1v2.3C28.9,10.8,28.5,11.2,28.1,11.2z"
										/>
								</g>
							</g>
						</g>
					</g>
				</g>
			</g>
		</g>
	</g>
</g>
</svg>
