<?xml version="1.0" encoding="utf-8"?>
<!-- Generator: Adobe Illustrator 24.0.2, SVG Export Plug-In . SVG Version: 6.00 Build 0)  -->
<svg version="1.1" id="Group_587" xmlns="http://www.w3.org/2000/svg" xmlns:xlink="http://www.w3.org/1999/xlink" x="0px" y="0px"
	 viewBox="0 0 36.9 36.9" style="enable-background:new 0 0 36.9 36.9;" xml:space="preserve">
<style type="text/css">
	.st0{clip-path:url(#SVGID_2_);}
	.st1{clip-path:url(#SVGID_4_);}
	.st2{fill:#FFFFFF;}
</style>
<g>
	<defs>
		<rect id="SVGID_1_" width="36.9" height="36.9"/>
	</defs>
	<clipPath id="SVGID_2_">
		<use xlink:href="#SVGID_1_"  style="overflow:visible;"/>
	</clipPath>
	<g id="Group_586" class="st0">
		<g id="Group_585">
			<g>
				<defs>
					<rect id="SVGID_3_" width="36.9" height="36.9"/>
				</defs>
				<clipPath id="SVGID_4_">
					<use xlink:href="#SVGID_3_"  style="overflow:visible;"/>
				</clipPath>
				<g id="Group_584" class="st1">
					<g id="Path_304">
						<path class="st2" d="M10.2,13.6C10.2,13.6,10.2,13.6,10.2,13.6c-0.9,0-1.7-0.3-2.3-1C7.3,12,7,11.2,7,10.3
							c0-1.8,1.5-3.2,3.2-3.2c1.8,0,3.2,1.4,3.2,3.2S12,13.6,10.2,13.6L10.2,13.6C10.2,13.6,10.2,13.6,10.2,13.6z M10.2,8.7
							c-0.9,0-1.7,0.7-1.7,1.7c0,0.9,0.7,1.7,1.6,1.7l0,0.8V12c0.9,0,1.7-0.7,1.7-1.7S11.1,8.7,10.2,8.7z"/>
					</g>
					<g id="Path_305">
						<path class="st2" d="M29.1,19.7c-0.4,0-0.8-0.4-0.8-0.8V10H15.7c-0.4,0-0.8-0.4-0.8-0.8s0.4-0.8,0.8-0.8h13.4
							c0.4,0,0.8,0.4,0.8,0.8v9.7C29.9,19.3,29.5,19.7,29.1,19.7z"/>
					</g>
					<g id="Path_306">
						<path class="st2" d="M8.9,30c-0.1,0-0.2,0-0.3-0.1c-0.3-0.1-0.5-0.4-0.5-0.7V15.6c0-0.4,0.4-0.8,0.8-0.8s0.8,0.4,0.8,0.8v11.6
							l2.2-2.3c0.1-0.2,0.4-0.2,0.6-0.2h10.4c0.4,0,0.8,0.4,0.8,0.8s-0.4,0.8-0.8,0.8H12.8l-3.3,3.4C9.3,29.9,9.1,30,8.9,30z"/>
					</g>
					<g id="Path_307">
						<path class="st2" d="M25.4,26.3h-9.7c-0.4,0-0.8-0.4-0.8-0.8s0.4-0.8,0.8-0.8h9.7c1.6,0,3-1.3,3-3v-6c0-0.4,0.4-0.8,0.8-0.8
							s0.8,0.4,0.8,0.8v6C29.9,24.2,27.9,26.3,25.4,26.3z"/>
					</g>
					<g id="Line_455">
						<path class="st2" d="M18.2,26.3c-0.2,0-0.4-0.1-0.5-0.2c-0.1-0.1-0.1-0.2-0.2-0.2c0-0.1-0.1-0.2-0.1-0.3
							c0-0.2,0.1-0.4,0.2-0.6c0.3-0.3,0.8-0.3,1.1,0c0.1,0.2,0.2,0.4,0.2,0.6c0,0.1,0,0.2-0.1,0.3c0,0.1-0.1,0.2-0.2,0.2
							c-0.1,0.1-0.2,0.1-0.3,0.2C18.4,26.2,18.3,26.3,18.2,26.3z"/>
					</g>
					<g id="Line_456">
						<path class="st2" d="M24.8,17.1h-11c-0.4,0-0.8-0.4-0.8-0.8s0.4-0.8,0.8-0.8h11c0.4,0,0.8,0.4,0.8,0.8S25.3,17.1,24.8,17.1z"
							/>
					</g>
					<g id="Line_457">
						<path class="st2" d="M24.8,20.6h-11c-0.4,0-0.8-0.4-0.8-0.8s0.4-0.8,0.8-0.8h11c0.4,0,0.8,0.4,0.8,0.8S25.3,20.6,24.8,20.6z"
							/>
					</g>
				</g>
			</g>
		</g>
	</g>
</g>
</svg>
