<?xml version="1.0" encoding="utf-8"?>
<!-- Generator: Adobe Illustrator 24.0.2, SVG Export Plug-In . SVG Version: 6.00 Build 0)  -->
<svg version="1.1" id="Group_602" xmlns="http://www.w3.org/2000/svg" xmlns:xlink="http://www.w3.org/1999/xlink" x="0px" y="0px"
	 viewBox="0 0 36.9 36.9" style="enable-background:new 0 0 36.9 36.9;" xml:space="preserve">
<style type="text/css">
	.st0{clip-path:url(#SVGID_2_);}
	.st1{clip-path:url(#SVGID_4_);}
	.st2{fill:#FFFFFF;}
</style>
<g>
	<defs>
		<rect id="SVGID_1_" x="0" y="0" width="36.9" height="36.9"/>
	</defs>
	<clipPath id="SVGID_2_">
		<use xlink:href="#SVGID_1_"  style="overflow:visible;"/>
	</clipPath>
	<g id="Group_2994" class="st0">
		<g id="Group_2993">
			<g>
				<defs>
					<rect id="SVGID_3_" x="0" y="0" width="36.9" height="36.9"/>
				</defs>
				<clipPath id="SVGID_4_">
					<use xlink:href="#SVGID_3_"  style="overflow:visible;"/>
				</clipPath>
				<g id="Group_2992" class="st1">
					<g id="Path_1332">
						<path class="st2" d="M14.2,16.6c-1.7,0-3-1.4-3-3s1.4-3,3-3c0,0,0,0,0,0c0.8,0,1.5,0.3,2.1,0.9c0.6,0.6,0.9,1.3,0.9,2.1
							c0,0,0,0,0,0C17.2,15.3,15.9,16.6,14.2,16.6z M14.2,12c-0.9,0-1.6,0.7-1.6,1.6c0,0.9,0.7,1.6,1.6,1.6s1.6-0.7,1.6-1.6v0
							c0-0.4-0.2-0.8-0.5-1.1C15,12.2,14.6,12,14.2,12z"/>
					</g>
					<g id="Path_1333">
						<path class="st2" d="M24,28.3H12.9c-1.2,0-2.3-1-2.3-2.3v-9.5c0-0.4,0.3-0.7,0.7-0.7s0.7,0.3,0.7,0.7V26
							c0,0.5,0.4,0.9,0.9,0.9H24c0.5,0,0.9-0.4,0.9-0.9v-9.6c0-0.4,0.3-0.7,0.7-0.7s0.7,0.3,0.7,0.7V26C26.2,27.3,25.2,28.3,24,28.3
							z"/>
					</g>
					<g id="Path_1334">
						<path class="st2" d="M27.6,19.1c-0.2,0-0.4-0.1-0.5-0.2l-8.6-8.6L17.8,11c-0.3,0.3-0.7,0.3-1,0c-0.3-0.3-0.3-0.7,0-1L18,8.8
							c0.3-0.3,0.7-0.3,1,0l9.1,9.1c0.3,0.3,0.3,0.7,0,1C27.9,19.1,27.7,19.1,27.6,19.1z"/>
					</g>
					<g id="Line_1484">
						<path class="st2" d="M9.3,19.1c-0.2,0-0.4-0.1-0.5-0.2c-0.3-0.3-0.3-0.7,0-1l2-2c0.3-0.3,0.7-0.3,1,0c0.3,0.3,0.3,0.7,0,1
							l-2,2C9.7,19.1,9.5,19.1,9.3,19.1z"/>
					</g>
					<g id="Path_1335">
						<path class="st2" d="M21,28.3c-0.4,0-0.7-0.3-0.7-0.7v-7.2h-3.6v7.2c0,0.4-0.3,0.7-0.7,0.7s-0.7-0.3-0.7-0.7v-7.9
							c0-0.4,0.3-0.7,0.7-0.7h5c0.4,0,0.7,0.3,0.7,0.7v7.9C21.7,28,21.3,28.3,21,28.3z"/>
					</g>
				</g>
			</g>
		</g>
	</g>
</g>
</svg>
