<?xml version="1.0" encoding="utf-8"?>
<!-- Generator: Adobe Illustrator 24.0.2, SVG Export Plug-In . SVG Version: 6.00 Build 0)  -->
<svg version="1.1" id="Group_581" xmlns="http://www.w3.org/2000/svg" xmlns:xlink="http://www.w3.org/1999/xlink" x="0px" y="0px"
	 viewBox="0 0 36.9 36.9" style="enable-background:new 0 0 36.9 36.9;" xml:space="preserve">
<style type="text/css">
	.st0{clip-path:url(#SVGID_2_);}
	.st1{clip-path:url(#SVGID_4_);}
	.st2{fill:#FFFFFF;}
</style>
<g id="Group_580">
	<g>
		<defs>
			<rect id="SVGID_1_" width="36.9" height="36.9"/>
		</defs>
		<clipPath id="SVGID_2_">
			<use xlink:href="#SVGID_1_"  style="overflow:visible;"/>
		</clipPath>
		<g id="Group_579" class="st0">
			<g id="Group_578">
				<g>
					<defs>
						<rect id="SVGID_3_" width="36.9" height="36.9"/>
					</defs>
					<clipPath id="SVGID_4_">
						<use xlink:href="#SVGID_3_"  style="overflow:visible;"/>
					</clipPath>
					<g id="Group_577" class="st1">
						<g id="Path_300">
							<path class="st2" d="M8.2,15.8c-1.8,0-3.2-1.4-3.2-3.2s1.4-3.2,3.2-3.2c0,0,0,0,0,0c0.8,0,1.6,0.3,2.3,0.9
								c0.6,0.6,0.9,1.4,0.9,2.3c0,0,0,0,0,0C11.4,14.4,10,15.8,8.2,15.8z M8.2,10.9c-0.9,0-1.7,0.7-1.7,1.6c0,0.9,0.7,1.6,1.6,1.6
								s1.6-0.7,1.6-1.6v0c0-0.4-0.2-0.8-0.5-1.2C9,11.1,8.6,10.9,8.2,10.9z"/>
						</g>
						<g id="Path_301">
							<path class="st2" d="M27.2,27.5H9.7c-1.3,0-2.4-1.1-2.4-2.4v-7.9c0-0.4,0.4-0.8,0.8-0.8s0.8,0.4,0.8,0.8v7.9
								c0,0.5,0.4,0.9,0.9,0.9h17.4c0.5,0,0.9-0.4,0.9-0.9v-5.9c0-0.4,0.4-0.8,0.8-0.8s0.8,0.4,0.8,0.8v5.9
								C29.6,26.4,28.5,27.5,27.2,27.5z"/>
						</g>
						<g id="Path_302">
							<path class="st2" d="M18.5,21.7c-0.5,0-1.1-0.2-1.5-0.5l-5.8-4.8c-0.3-0.3-0.4-0.8-0.1-1.1c0.3-0.3,0.8-0.4,1.1-0.1l5.8,4.8
								c0.3,0.3,0.8,0.3,1.1,0l8.9-7.4c0.3-0.3,0.8-0.2,1.1,0.1s0.2,0.8-0.1,1.1L20,21.2C19.6,21.5,19,21.7,18.5,21.7z"/>
						</g>
						<g id="Line_453">
							<path class="st2" d="M8.7,27.1c-0.2,0-0.5-0.1-0.6-0.3c-0.3-0.3-0.2-0.8,0.1-1.1l7.9-6.4c0.3-0.3,0.8-0.2,1.1,0.1
								c0.3,0.3,0.2,0.8-0.1,1.1l-7.9,6.4C9,27.1,8.8,27.1,8.7,27.1z"/>
						</g>
						<g id="Line_454">
							<path class="st2" d="M28.2,27.1c-0.2,0-0.4-0.1-0.5-0.2l-7.8-6.4c-0.3-0.3-0.4-0.8-0.1-1.1c0.3-0.3,0.8-0.4,1.1-0.1l7.8,6.4
								c0.3,0.3,0.4,0.8,0.1,1.1C28.7,27,28.5,27.1,28.2,27.1z"/>
						</g>
						<g id="Path_303">
							<path class="st2" d="M28.8,20.6c-0.4,0-0.8-0.4-0.8-0.8v-5.9c0-0.5-0.4-0.9-0.9-0.9h-14c-0.4,0-0.8-0.4-0.8-0.8
								s0.4-0.8,0.8-0.8h14c1.3,0,2.4,1.1,2.4,2.4v5.9C29.6,20.2,29.2,20.6,28.8,20.6z"/>
						</g>
					</g>
				</g>
			</g>
		</g>
	</g>
</g>
</svg>
