<?xml version="1.0" encoding="utf-8"?>
<!-- Generator: Adobe Illustrator 24.0.2, SVG Export Plug-In . SVG Version: 6.00 Build 0)  -->
<svg version="1.1" id="Capa_2" xmlns="http://www.w3.org/2000/svg" xmlns:xlink="http://www.w3.org/1999/xlink" x="0px" y="0px"
	 viewBox="0 0 380 345" style="enable-background:new 0 0 380 345;" xml:space="preserve">
<style type="text/css">
	.st0{fill:none;stroke:#C7D1D8;stroke-width:1.172;stroke-linecap:round;stroke-linejoin:round;}
	.st1{fill:#B1C0C8;}
	.st2{font-family:'Roboto-BoldCondensed';}
	.st3{font-size:10.3114px;}
	.st4{fill:#2C5D6D;}
	.st5{font-size:12.0831px;}
	.st6{fill:none;stroke:#90A6B1;stroke-width:0.8789;stroke-linecap:round;stroke-linejoin:round;}
	.st7{fill:#8EA4AF;}
	.st8{fill:none;stroke:#FFE500;stroke-width:1.758;stroke-linecap:round;stroke-linejoin:round;}
	.st9{fill:#00A61D;}
	.st10{fill:#949494;}
	.st11{fill:none;stroke:#AAB8C1;stroke-width:1.758;stroke-linecap:round;stroke-linejoin:round;stroke-dasharray:0,3.515;}
</style>
<path id="Trazado_12550_2_" class="st0" d="M279.27,140.73l-1.06,1.06c-0.39,0.39-1.02,0.39-1.41,0l0,0
	c-0.19-0.19-0.29-0.44-0.29-0.71v-7.17c0-0.27-0.11-0.52-0.29-0.71l-1.41-1.41c-0.19-0.19-0.44-0.29-0.71-0.29h-3.35
	c-0.16,0-0.31,0.04-0.45,0.11l-1.34,0.67c-0.28,0.14-0.61,0.14-0.89,0l-0.91-0.45c-0.38-0.19-0.85-0.12-1.15,0.19l-0.35,0.35
	c-0.53,0.53-1.42,0.31-1.66-0.39l-0.26-0.78c-0.14-0.41-0.52-0.68-0.95-0.68h-2.87c-0.27,0-0.52,0.11-0.71,0.29l-1.09,1.09
	c-0.35,0.35-0.91,0.39-1.31,0.09l-3.31-2.48l-4.81-3.85c-0.12-0.1-0.27-0.17-0.43-0.2l-3.96-0.79c-0.47-0.09-0.8-0.5-0.8-0.98v-0.77
	c0-0.27,0.11-0.52,0.29-0.71l1.41-1.41c0.19-0.19,0.29-0.44,0.29-0.71v-5.39c0-0.13,0.02-0.25,0.07-0.37l1.38-3.45
	c0.26-0.66-0.22-1.37-0.93-1.37h-0.52c-0.55,0-1-0.45-1-1v-1.38c0-0.38-0.21-0.73-0.55-0.89l-0.34-0.17
	c-0.57-0.28-0.73-1.02-0.33-1.52l3.01-3.76c0.14-0.18,0.22-0.4,0.22-0.62v-5.18c0-0.3-0.13-0.58-0.36-0.77l-5.12-4.26
	c-0.32-0.26-0.44-0.69-0.31-1.08l0.73-2.2c0.03-0.1,0.05-0.21,0.05-0.32v-2.3c0-0.33-0.17-0.65-0.45-0.83l-5.53-3.69
	c-0.02-0.01-0.03-0.02-0.05-0.03l-3.58-2.68c-0.25-0.19-0.4-0.49-0.4-0.8v-4.2c0-0.2,0.06-0.39,0.17-0.55l1.51-2.27
	c0.2-0.3,0.22-0.68,0.06-1l-0.46-0.93c-0.17-0.34-0.52-0.55-0.89-0.55h-3.08c-0.2,0-0.39,0.06-0.55,0.17l-2.5,1.66
	c-0.16,0.11-0.36,0.17-0.55,0.17h-12.46c-0.16,0-0.31-0.04-0.45-0.11l-3.22-1.61c-0.35-0.17-0.77-0.13-1.07,0.11l-3.63,2.9
	c-0.47,0.37-0.5,1.07-0.08,1.49l0.92,0.92c0.19,0.19,0.29,0.44,0.29,0.71v2.2c0,0.68-0.67,1.16-1.32,0.95l-1.53-0.51
	c-0.1-0.03-0.21-0.05-0.32-0.05h-7.12c-0.43,0-0.81-0.28-0.95-0.68l-0.54-1.63c-0.14-0.41-0.52-0.68-0.95-0.68h-1.04
	c-0.16,0-0.31,0.04-0.45,0.11l-1.58,0.79c-0.14,0.07-0.29,0.11-0.45,0.11h-3.35c-0.27,0-0.52-0.11-0.71-0.29l-1.41-1.41
	c-0.19-0.19-0.44-0.29-0.71-0.29h-1.59c-0.55,0-1-0.45-1-1v-1.38c0-0.38-0.21-0.73-0.55-0.89l-0.89-0.45
	c-0.34-0.17-0.55-0.52-0.55-0.89v-0.76c0-0.38-0.21-0.73-0.55-0.89l-3.15-1.57c-0.19-0.1-0.35-0.25-0.45-0.45l-0.57-1.15
	c-0.17-0.34-0.52-0.55-0.89-0.55h-1.91c-0.3,0-0.58-0.13-0.77-0.36l-4.4-5.28c-0.19-0.23-0.47-0.36-0.77-0.36h-9.12
	c-0.89,0-1.34-1.08-0.71-1.71v0c0.19-0.19,0.29-0.44,0.29-0.71v-2.42c0-0.11-0.02-0.21-0.05-0.32l-0.77-2.32
	c-0.11-0.33-0.04-0.69,0.18-0.96l4.34-5.21c0.19-0.23,0.47-0.36,0.77-0.36h1.53c0.55,0,1-0.45,1-1v-2.52c0-0.3-0.14-0.59-0.38-0.78
	l-4.25-3.4c-0.24-0.19-0.38-0.48-0.38-0.78v-4.16c0-0.23-0.08-0.46-0.23-0.64l-4.62-5.55c-0.1-0.12-0.17-0.25-0.2-0.4l-0.76-3.02
	c-0.11-0.45-0.51-0.76-0.97-0.76h-3.66c-0.34,0-0.67,0.18-0.85,0.47l-4.55,7.29c-0.1,0.16-0.15,0.34-0.15,0.53v2.71h1v3.46
	c0,0.33,0.17,0.65,0.45,0.83l2.11,1.41c0.28,0.19,0.45,0.5,0.45,0.83v5.23c0,0.16,0.04,0.31,0.11,0.45l0.79,1.58
	c0.07,0.14,0.11,0.29,0.11,0.45v3.35c0,0.27,0.11,0.52,0.29,0.71l2.41,2.41c0.19,0.19,0.29,0.44,0.29,0.71v6.31
	c0,0.18-0.05,0.36-0.14,0.51l-2.71,4.52c-0.09,0.16-0.14,0.33-0.14,0.51v5.51c0,0.14-0.03,0.28-0.09,0.41l-3.8,8.54
	c-0.08,0.17-0.2,0.32-0.36,0.43l-5.31,3.54c-0.28,0.19-0.45,0.5-0.45,0.83v1.85c0,0.38,0.21,0.73,0.55,0.89l0.89,0.45
	c0.34,0.17,0.55,0.52,0.55,0.89v8.97c0,0.27-0.11,0.52-0.29,0.71l-2.41,2.41c-0.19,0.19-0.29,0.44-0.29,0.71v11.17
	c0,0.27,0.11,0.52,0.29,0.71l1.41,1.41c0.19,0.19,0.29,0.44,0.29,0.71v8.39c0,0.13,0.02,0.25,0.07,0.37l1.85,4.63
	c0.05,0.13,0.13,0.24,0.22,0.34l2.56,2.56c0.19,0.19,0.29,0.44,0.29,0.71v2.12c0,0.3-0.13,0.58-0.36,0.77l-5.45,4.54
	c-0.13,0.11-0.28,0.18-0.44,0.21l-4.53,0.91c-0.15,0.03-0.28,0.09-0.4,0.18l-7.66,5.74c-0.11,0.08-0.2,0.18-0.26,0.3L116.79,156
	c-0.18,0.31-0.51,0.5-0.86,0.5h-1.01c-0.27,0-0.52,0.11-0.71,0.29l-3.41,3.41c-0.19,0.19-0.44,0.29-0.71,0.29h-3.12
	c-0.3,0-0.58,0.13-0.77,0.36l-4.4,5.28c-0.19,0.23-0.47,0.36-0.77,0.36H99c-0.31,0-0.61,0.15-0.8,0.4l-2.4,3.2
	c-0.19,0.25-0.49,0.4-0.8,0.4h-2.05c-0.29,0-0.56,0.12-0.75,0.34l-5.99,6.85c-0.38,0.44-0.31,1.11,0.15,1.46l2.74,2.05
	c0.25,0.19,0.4,0.49,0.4,0.8v1.09c0,0.27-0.11,0.52-0.29,0.71l-1.71,1.71v1l2.8,3.73c0.13,0.17,0.2,0.38,0.2,0.6v1.67
	c0,0.55-0.45,1-1,1h-3.59c-0.27,0-0.52,0.11-0.71,0.29l-1.41,1.41c-0.19,0.19-0.29,0.44-0.29,0.71v4.17c0,0.27-0.11,0.52-0.29,0.71
	l-5.66,5.66c-0.03,0.03-0.07,0.07-0.11,0.1l-1.29,0.96c-0.25,0.19-0.4,0.49-0.4,0.8v3.92c0,0.55,0.45,1,1,1h2.1
	c0.45,0,0.85,0.31,0.97,0.74l3.22,12.21c0.12,0.44,0.51,0.74,0.97,0.74h3.28c0.43,0,0.82,0.28,0.95,0.69l0.97,3.01
	c0.13,0.41,0.52,0.69,0.95,0.69h3.62c0.28,0,0.54-0.11,0.73-0.31l3.3-3.5c0.32-0.34,0.83-0.41,1.23-0.18l2.45,1.42
	c0.48,0.28,0.64,0.89,0.36,1.37l-1.03,1.76c-0.17,0.29-0.18,0.65-0.03,0.96l4.43,8.73c0.07,0.14,0.11,0.3,0.11,0.45v5.22
	c0,0.55,0.45,1,1,1h1.53c0.35,0,0.68-0.18,0.86-0.49l1.72-2.87c0.35-0.58,1.16-0.65,1.61-0.15l1.89,2.12
	c0.2,0.22,0.48,0.34,0.77,0.34l3.54-0.1c0.45-0.01,0.86,0.28,0.99,0.72l1.38,4.74c0.12,0.43,0.52,0.72,0.96,0.72h3.23
	c0.41,0,0.78,0.25,0.93,0.63l3.5,8.7c0.15,0.38,0.52,0.63,0.93,0.63h0.86c0.46,0,0.87-0.32,0.97-0.77l0.28-1.18
	c0.11-0.45,0.51-0.77,0.97-0.77h14.87c0.15,0,0.3-0.03,0.43-0.1l6.78-3.27c0.32-0.15,0.69-0.13,0.99,0.07l7.64,5.06
	c0.54,0.36,1.27,0.12,1.49-0.49l4.91-13.58c0.13-0.36,0.04-0.77-0.23-1.05l-2.51-2.51c-0.37-0.37-0.39-0.96-0.05-1.36l2.28-2.66
	c0.14-0.17,0.23-0.38,0.24-0.6l0.35-6.26c0.01-0.24,0.11-0.47,0.28-0.64l9.92-10.15c0.42-0.43,1.13-0.39,1.5,0.08l2.6,3.34
	c0.2,0.25,0.5,0.4,0.82,0.39l2.43-0.08c0.47-0.02,0.89,0.3,1,0.76l0.98,3.9c0.08,0.3,0.29,0.55,0.58,0.68l2.34,1
	c0.47,0.2,0.71,0.72,0.56,1.2l-3.41,11.48c-0.13,0.42-0.52,0.72-0.96,0.72h-2.21c-0.4,0-0.76,0.24-0.92,0.61l-2.75,6.45
	c-0.2,0.47-0.01,1.01,0.43,1.26l6.03,3.39c0.34,0.19,0.75,0.17,1.07-0.06l2.98-2.11c0.31-0.22,0.47-0.61,0.41-0.99l-0.4-2.34
	c-0.08-0.46,0.17-0.91,0.6-1.09l12.25-5.18c0.29-0.12,0.51-0.38,0.58-0.68l2.66-10.77c0.11-0.45,0.51-0.76,0.97-0.76h1.94
	c0.32,0,0.62,0.15,0.81,0.41l2.63,3.58c0.19,0.26,0.49,0.41,0.81,0.41h5.63c0.29,0,0.56-0.12,0.75-0.34l7.92-8.97
	c0.32-0.37,0.33-0.92,0.02-1.3l-2.48-3.02c-0.29-0.36-0.24-0.88,0.12-1.17c0.15-0.12,0.33-0.19,0.53-0.19h10.22
	c0.19,0,0.38-0.06,0.55-0.16l10.8-7.04c0.28-0.18,0.45-0.5,0.45-0.84v-2.08c0-0.5,0.37-0.92,0.86-0.99l2.25-0.32
	c0.32-0.05,0.6-0.25,0.75-0.54l3.28-6.44c0.15-0.29,0.14-0.63-0.01-0.92l-2.79-5.27c-0.19-0.36-0.14-0.81,0.13-1.12l2.64-3.04
	c0.17-0.2,0.26-0.47,0.24-0.73l-0.58-7.54c-0.02-0.28-0.16-0.55-0.39-0.72l-8.52-6.47c-0.37-0.28-0.44-0.8-0.16-1.17
	c0.03-0.04,0.07-0.09,0.11-0.12l3.61-3.14c0.38-0.33,0.95-0.33,1.32,0.01l8.77,7.84c0.17,0.15,0.28,0.35,0.32,0.57l0.75,4.27
	c0.06,0.34,0.29,0.63,0.62,0.76l2.68,1.05c0.26,0.1,0.56,0.09,0.81-0.04l7.88-3.94c0.31-0.16,0.52-0.47,0.55-0.82l0.83-10.92
	c0.02-0.26,0.14-0.5,0.33-0.67l5.38-4.81c0.24-0.22,0.36-0.54,0.33-0.86l-1.86-16.43c0-0.06,0-0.11,0-0.17l0.48-8.97l0.03-0.47
	c0.03-0.63-0.52-1.14-1.15-1.04l-1.11,0.17C279.61,140.48,279.42,140.58,279.27,140.73z"/>
<text transform="matrix(1 0 0 1 28.9427 161.6435)" class="st1 st2 st3">ANTIOQUIA</text>
<text transform="matrix(1 0 0 1 223.6537 267.6435)" class="st1 st2 st3">BOYACÁ</text>
<text transform="matrix(1 0 0 1 83.4701 69.6435)" class="st1 st2 st3">BOLÍVAR</text>
<text transform="matrix(1 0 0 1 259.5814 75.6435)"><tspan x="0" y="0" class="st1 st2 st3">NORTE DE </tspan><tspan x="-3.81" y="12.37" class="st1 st2 st3">SANTANDER</tspan></text>
<text transform="matrix(1 0 0 1 169.4418 38.6435)" class="st1 st2 st3">CESAR</text>
<text transform="matrix(1 0 0 1 156.1134 173.2036)" class="st4 st2 st5">SANTANDER</text>
<g>
	<circle class="st6" cx="293.37" cy="219.99" r="17.84"/>
	<g>
		<path class="st7" d="M293.72,195.46l-1.19-2.17v2.14c0,0.2-0.25,0.3-0.49,0.3s-0.49-0.1-0.49-0.3v-3.99c0-0.21,0.25-0.3,0.49-0.3
			c0.35,0,0.48,0.03,0.72,0.49l1.02,1.94v-2.14c0-0.21,0.25-0.3,0.49-0.3s0.49,0.09,0.49,0.3v4c0,0.2-0.25,0.3-0.49,0.3
			C294.04,195.72,293.84,195.68,293.72,195.46z"/>
	</g>
	<g>
		<path class="st7" d="M318.87,218.7h0.94c0.19,0,0.3,0.18,0.3,0.38c0,0.17-0.09,0.37-0.3,0.37h-0.94v1.07h1.68
			c0.19,0,0.3,0.2,0.3,0.43c0,0.2-0.09,0.42-0.3,0.42h-2.24c-0.21,0-0.43-0.1-0.43-0.3v-3.99c0-0.2,0.21-0.3,0.43-0.3h2.24
			c0.21,0,0.3,0.22,0.3,0.42c0,0.23-0.11,0.43-0.3,0.43h-1.68V218.7z"/>
	</g>
	<g>
		<path class="st7" d="M294.05,247.63c0-0.76-1.99-0.63-1.99-2.1c0-0.94,0.82-1.3,1.61-1.3c0.33,0,1.25,0.06,1.25,0.55
			c0,0.17-0.11,0.52-0.39,0.52c-0.23,0-0.35-0.24-0.86-0.24c-0.45,0-0.63,0.18-0.63,0.38c0,0.63,1.99,0.51,1.99,2.09
			c0,0.91-0.66,1.4-1.57,1.4c-0.82,0-1.52-0.4-1.52-0.82c0-0.21,0.19-0.53,0.43-0.53c0.3,0,0.48,0.47,1.07,0.47
			C293.73,248.04,294.05,247.93,294.05,247.63z"/>
	</g>
	<g>
		<path class="st7" d="M267.98,221.41c-0.08,0.22-0.36,0.33-0.65,0.33c-0.28,0-0.59-0.11-0.64-0.33l-0.33-1.49l-0.33,1.49
			c-0.05,0.22-0.35,0.33-0.64,0.33c-0.29,0-0.58-0.11-0.65-0.33l-1.25-3.83c-0.01-0.02-0.01-0.05-0.01-0.08
			c0-0.21,0.35-0.39,0.64-0.39c0.15,0,0.28,0.05,0.31,0.18l0.96,3.22l0.5-2.12c0.04-0.17,0.26-0.26,0.47-0.26s0.43,0.09,0.47,0.26
			l0.5,2.12l0.96-3.22c0.04-0.13,0.16-0.18,0.31-0.18c0.28,0,0.63,0.18,0.63,0.39c0,0.03-0.01,0.06-0.01,0.08L267.98,221.41z"/>
	</g>
	<polygon class="st6" points="288.81,215.55 293.1,198.75 297.82,215.43 314.62,219.72 297.94,224.44 293.65,241.24 288.93,224.56 
		272.13,220.27 	"/>
	<polyline class="st6" points="289.43,226.34 283.93,229.55 287.03,224.08 	"/>
	<polyline class="st6" points="297.32,213.65 302.82,210.44 299.72,215.91 	"/>
	<polyline class="st6" points="299.72,223.94 302.92,229.44 297.45,226.33 	"/>
	<polyline class="st6" points="287.03,216.05 283.83,210.54 289.3,213.66 	"/>
</g>
<g transform="matrix(1, 0, 0, 1, 947.33, 23.81)">
	<path id="Trazado_12551-2_3_" class="st8" d="M-762.89,263.93l-5.61-7.14l-17.51-3.73l-5.61-8.82l-14.2-16.18l-20.48,4.62
		l-13.54-2.64l-10.57-9.58l-7.93-1.98c0,0-6.28-11.23-7.27-11.56s-23.74-8.36-23.74-8.36"/>
</g>
<circle id="Elipse_2474_2_" class="st9" cx="141.32" cy="252.07" r="2.42"/>
<circle id="Elipse_2475_2_" class="st10" cx="69.54" cy="226.28" r="2.42"/>
<g>
	<line id="Línea_3585" class="st11" x1="133.55" y1="287.62" x2="122.99" y2="335.57"/>
</g>
</svg>
