<svg xmlns="http://www.w3.org/2000/svg" viewBox="0 0 52 52"><defs><style>.cls-1{fill:#37abf4;}.cls-2,.cls-3{fill:none;stroke:#fff;stroke-width:1.6px;}.cls-2{stroke-linecap:round;stroke-linejoin:round;}</style></defs><title>icon-opinionRecurso 1</title><g id="Capa_2" data-name="Capa 2"><g id="Capa_1-2" data-name="Capa 1"><g id="Grupo_18732" data-name="Grupo 18732"><g id="Grupo_18731" data-name="Grupo 18731"><circle id="Elipse_2641-2" data-name="Elipse 2641-2" class="cls-1" cx="26" cy="26" r="26"/><g id="icon_opinion" data-name="icon opinion"><path id="Trazado_12428" data-name="Trazado 12428" class="cls-2" d="M14.81,20.47V17.54a4.65,4.65,0,0,1,4.08-4.68,4.52,4.52,0,0,1,4.95,4h0v3.6m0,0a4.53,4.53,0,1,1-9.06,0h0m4.55,9.84,2.4-2.72m-2.4,2.72-2.4-2.72m7.32,1.14L21.74,27.6m-4.81,0L10.4,30.5A4.86,4.86,0,0,0,8,33.86v6.36a.71.71,0,0,0,.69.7h21.9V38.25M21.76,24.3v3.28M17,24.3v3.28"/><circle id="Elipse_2609-2" data-name="Elipse 2609-2" class="cls-3" cx="29.54" cy="32.16" r="3.71"/><path id="Trazado_18025" data-name="Trazado 18025" class="cls-2" d="M41.26,21.68H32.15l-2.86,2.53V12.79A1.79,1.79,0,0,1,31.08,11H41.26a1.79,1.79,0,0,1,1.79,1.79h0v7.07a1.79,1.79,0,0,1-1.76,1.82Z"/><line id="Línea_2330" data-name="Línea 2330" class="cls-2" x1="33.25" y1="15.96" x2="39.09" y2="15.96"/></g></g></g></g></g></svg>