<svg xmlns="http://www.w3.org/2000/svg" viewBox="0 0 52 52"><defs><style>.cls-1{fill:#184bf7;}.cls-2,.cls-3{fill:none;stroke:#fff;stroke-linecap:round;stroke-linejoin:round;stroke-width:1.6px;}.cls-2{opacity:0.55;isolation:isolate;}</style></defs><title>icon-operacionesRecurso 3</title><g id="Capa_2" data-name="Capa 2"><g id="Capa_1-2" data-name="Capa 1"><g id="Grupo_18730" data-name="Grupo 18730"><g id="Capa_1-3" data-name="Capa 1"><circle id="Elipse_2641" data-name="Elipse 2641" class="cls-1" cx="26" cy="26" r="26"/><circle id="Elipse_2609" data-name="Elipse 2609" class="cls-2" cx="11.5" cy="17.9" r="3.1"/><path id="Trazado_18047" data-name="Trazado 18047" class="cls-3" d="M22.9,24.6A3.91,3.91,0,0,1,19,28.5a3.84,3.84,0,0,1-3.9-3.78V24.6a1.23,1.23,0,0,1,.1-.6,4.52,4.52,0,0,1,.8-1.9,3.58,3.58,0,0,1,1.8-1.2,4.86,4.86,0,0,1,1.2-.2A4,4,0,0,1,22.9,24.6Z"/><path id="Trazado_18048" data-name="Trazado 18048" class="cls-3" d="M16,15a10.48,10.48,0,0,1,3-.4,10.05,10.05,0,1,1-10.1,10A8.78,8.78,0,0,1,9,22.9"/><line id="Línea_2336" data-name="Línea 2336" class="cls-3" x1="19" y1="14.5" x2="19" y2="12.1"/><line id="Línea_2337" data-name="Línea 2337" class="cls-3" x1="19" y1="37.1" x2="19" y2="34.7"/><line id="Línea_2338" data-name="Línea 2338" class="cls-3" x1="29.1" y1="24.6" x2="31.5" y2="24.6"/><line id="Línea_2339" data-name="Línea 2339" class="cls-3" x1="6.5" y1="24.6" x2="8.9" y2="24.6"/><line id="Línea_2340" data-name="Línea 2340" class="cls-3" x1="26.2" y1="17.5" x2="27.9" y2="15.8"/><line id="Línea_2341" data-name="Línea 2341" class="cls-3" x1="10.2" y1="33.5" x2="11.9" y2="31.8"/><line id="Línea_2342" data-name="Línea 2342" class="cls-3" x1="26.2" y1="31.8" x2="27.9" y2="33.5"/><path id="Trazado_18049" data-name="Trazado 18049" class="cls-3" d="M39.2,30.4a2.42,2.42,0,0,1-1.92,4.44l-.08,0c-.1-.1-.3-.1-.4-.2a2.39,2.39,0,0,1-1.1-2.3,1.94,1.94,0,0,1,.2-.7A2.61,2.61,0,0,1,39.2,30.4Z"/><path id="Trazado_18050" data-name="Trazado 18050" class="cls-3" d="M40.8,26.8a6.32,6.32,0,1,1-5.17.15A6.32,6.32,0,0,1,40.8,26.8Z"/><line id="Línea_2343" data-name="Línea 2343" class="cls-3" x1="32.4" y1="30.1" x2="31" y2="29.5"/><line id="Línea_2344" data-name="Línea 2344" class="cls-3" x1="45.4" y1="35.8" x2="44" y2="35.1"/><line id="Línea_2345" data-name="Línea 2345" class="cls-3" x1="40.8" y1="26.8" x2="41.4" y2="25.4"/><line id="Línea_2346" data-name="Línea 2346" class="cls-3" x1="35.1" y1="39.8" x2="35.7" y2="38.4"/><line id="Línea_2347" data-name="Línea 2347" class="cls-3" x1="35.9" y1="26.7" x2="35.4" y2="25.3"/><line id="Línea_2348" data-name="Línea 2348" class="cls-3" x1="41.1" y1="39.9" x2="40.5" y2="38.5"/><line id="Línea_2349" data-name="Línea 2349" class="cls-3" x1="44.1" y1="30.3" x2="45.5" y2="29.8"/><line id="Línea_2350" data-name="Línea 2350" class="cls-3" x1="30.9" y1="35.5" x2="32.3" y2="34.9"/></g></g></g></g></svg>