<?xml version="1.0" encoding="utf-8"?>
<!-- Generator: Adobe Illustrator 24.0.2, SVG Export Plug-In . SVG Version: 6.00 Build 0)  -->
<svg version="1.1" id="Capa_1" xmlns="http://www.w3.org/2000/svg" xmlns:xlink="http://www.w3.org/1999/xlink" x="0px" y="0px"
	 viewBox="0 0 65 65" style="enable-background:new 0 0 65 65;" xml:space="preserve">
<style type="text/css">
	.st0{fill:none;}
	.st1{fill:none;stroke:#95A6B1;stroke-width:1.6;stroke-linecap:round;stroke-linejoin:round;}
	.st2{fill:none;stroke:#19A500;stroke-width:1.6;stroke-linecap:round;stroke-linejoin:round;stroke-miterlimit:10;}
	.st3{clip-path:url(#SVGID_2_);}
	.st4{fill:#4DA12E;}
	.st5{fill:#96D200;}
</style>
<g>
	<g id="Grupo_13213_2_" transform="translate(-0.246 -0.246)">
		<rect id="Rectángulo_3799-2_2_" x="0.25" y="0.25" class="st0" width="65" height="65"/>
		<line class="st1" x1="24.83" y1="17" x2="25.01" y2="15.79"/>
		<path class="st1" d="M25.01,15.79c0.01-0.06,0.03-0.12,0.05-0.17l1.93-4.25c0.06-0.13,0.07-0.29,0.04-0.43l-1.2-4.78
			C25.8,6,25.81,5.85,25.88,5.71c0.15-0.31,0.47-0.92,0.89-1.48c0.28-0.37,0.87-0.31,1.09,0.1l1.44,2.72
			c0.04,0.07,0.06,0.15,0.07,0.23l0.36,3.13c0.02,0.21,0.14,0.39,0.32,0.49l1.5,0.86c0.09,0.05,0.17,0.12,0.22,0.21l1.15,1.78
			c0.09,0.14,0.24,0.24,0.4,0.28l3.34,0.77c0.34,0.08,0.67-0.12,0.77-0.45l0.23-0.77c0.09-0.29,0.36-0.48,0.67-0.47l3.58,0.22
			c0.27,0.02,0.5,0.2,0.58,0.45l0.45,1.41c0.02,0.06,0.05,0.12,0.08,0.17l2.05,2.98c0.1,0.15,0.14,0.34,0.1,0.52l-0.38,1.65
			c-0.02,0.09-0.02,0.18-0.01,0.27l0.4,2.08c0.03,0.17,0.13,0.31,0.26,0.41l2.62,1.85c0.12,0.09,0.27,0.13,0.41,0.12l1.42-0.08
			c0.37-0.02,0.69,0.28,0.69,0.65v0.79c0,0.36,0.29,0.65,0.65,0.65l0,0c0.36,0,0.65,0.29,0.65,0.65v3.82c0,0.08-0.02,0.17-0.05,0.25
			l-0.98,2.39c-0.05,0.12-0.13,0.22-0.23,0.29L49.4,35.5c-0.35,0.24-0.84,0.09-0.99-0.31L48.01,34c-0.05-0.14-0.15-0.26-0.28-0.33
			l-1.66-0.98l-0.22,0.43c-0.12,0.24-0.08,0.52,0.09,0.72l1.06,1.2c0.1,0.12,0.16,0.27,0.16,0.43v2.41c0,0.15-0.05,0.3-0.15,0.41
			l-4.92,6.01c-0.14,0.17-0.35,0.26-0.57,0.24l-3.19-0.34c-0.23-0.02-0.46,0.08-0.6,0.27l-2.66,3.72c-0.22,0.31-0.67,0.36-0.96,0.11
			l-0.63-0.55c-0.24-0.2-0.29-0.55-0.14-0.82l1.52-2.63c0.16-0.28,0.1-0.63-0.15-0.83l-1.57-1.28c-0.32-0.26-0.79-0.17-0.99,0.19
			l-1.63,2.99c-0.04,0.07-0.06,0.15-0.07,0.23l-0.33,2.55c-0.06,0.48-0.61,0.73-1.01,0.46l-0.29-0.19c-0.18-0.12-0.4-0.14-0.59-0.07
			l-2.12,0.8c-0.07,0.03-0.15,0.04-0.23,0.04h-2.16c-0.21,0-0.41-0.1-0.53-0.27l-1.61-2.24c-0.08-0.11-0.19-0.19-0.32-0.24
			l-0.21-0.07c-0.37-0.12-0.76,0.1-0.85,0.47l-0.05,0.23c-0.03,0.13-0.1,0.25-0.2,0.34l-0.22,0.2c-0.25,0.22-0.62,0.23-0.87,0.01
			l-0.47-0.41c-0.27-0.23-0.3-0.63-0.07-0.91l0.19-0.23c0.08-0.1,0.14-0.23,0.15-0.36l0.12-1.34c0.01-0.12-0.01-0.24-0.06-0.34
			l-0.55-1.11c-0.16-0.33-0.56-0.46-0.88-0.29l-0.67,0.34c-0.3,0.15-0.67,0.05-0.85-0.24l-2.08-3.38c-0.16-0.27-0.12-0.61,0.12-0.82
			l2.09-1.92c0.16-0.15,0.24-0.37,0.2-0.59l-0.47-2.73c-0.05-0.27,0.08-0.53,0.31-0.67l4.96-2.95c0.06-0.03,0.11-0.08,0.15-0.13
			l0.44-0.49"/>
	</g>
	<path id="Trazado_11848_7_" class="st2" d="M28.77,23.25c0,2.31-1.87,4.18-4.18,4.18s-4.18-1.87-4.18-4.18s1.87-4.18,4.18-4.18l0,0
		c2.3-0.01,4.17,1.85,4.18,4.15C28.77,23.22,28.77,23.24,28.77,23.25z"/>
</g>
<g>
	<defs>
		<rect id="SVGID_1_" y="48.26" width="65" height="16.74"/>
	</defs>
	<clipPath id="SVGID_2_">
		<use xlink:href="#SVGID_1_"  style="overflow:visible;"/>
	</clipPath>
	<g class="st3">
		<g>
			<rect y="48.26" class="st0" width="65" height="16.74"/>
		</g>
		<g>
			<g>
				<path class="st4" d="M45.38,61.32h-7.17c-0.66,0-1.2-0.54-1.2-1.2s0.54-1.2,1.2-1.2h7.17c0.66,0,1.2,0.54,1.2,1.2
					S46.04,61.32,45.38,61.32z"/>
			</g>
			<g>
				<path class="st4" d="M53.11,61.32h-0.58c-0.66,0-1.2-0.54-1.2-1.2s0.54-1.2,1.2-1.2h0.58c0.66,0,1.2,0.54,1.2,1.2
					S53.77,61.32,53.11,61.32z"/>
			</g>
			<g>
				<path class="st4" d="M18.99,61.32h-7.1c-0.66,0-1.2-0.54-1.2-1.2s0.54-1.2,1.2-1.2h7.1c0.66,0,1.2,0.54,1.2,1.2
					S19.65,61.32,18.99,61.32z"/>
			</g>
			<g>
				<path class="st5" d="M31.05,61.32H18.53c-0.66,0-1.2-0.54-1.2-1.2s0.54-1.2,1.2-1.2h12.52c0.66,0,1.2,0.54,1.2,1.2
					S31.71,61.32,31.05,61.32z"/>
			</g>
			<g>
				<path class="st5" d="M35.47,55.21H11.89c-0.66,0-1.2-0.54-1.2-1.2s0.54-1.2,1.2-1.2h23.58c0.66,0,1.2,0.54,1.2,1.2
					S36.13,55.21,35.47,55.21z"/>
			</g>
			<g>
				<path class="st4" d="M53.11,55.21H34.75c-0.66,0-1.2-0.54-1.2-1.2s0.54-1.2,1.2-1.2h18.36c0.66,0,1.2,0.54,1.2,1.2
					S53.77,55.21,53.11,55.21z"/>
			</g>
			<g>
				<path class="st4" d="M12.32,55.21h-0.43c-0.66,0-1.2-0.54-1.2-1.2s0.54-1.2,1.2-1.2h0.43c0.66,0,1.2,0.54,1.2,1.2
					S12.98,55.21,12.32,55.21z"/>
			</g>
		</g>
	</g>
</g>
</svg>
