<?xml version="1.0" encoding="utf-8"?>
<!-- Generator: Adobe Illustrator 24.0.2, SVG Export Plug-In . SVG Version: 6.00 Build 0)  -->
<svg version="1.1" id="Capa_1" xmlns="http://www.w3.org/2000/svg" xmlns:xlink="http://www.w3.org/1999/xlink" x="0px" y="0px"
	 viewBox="0 0 65 65" style="enable-background:new 0 0 65 65;" xml:space="preserve">
<style type="text/css">
	.st0{fill:none;}
	.st1{fill:none;stroke:#95A6B1;stroke-width:1.6;stroke-linecap:round;stroke-linejoin:round;}
	.st2{fill:none;stroke:#00A800;stroke-width:1.6;stroke-linecap:round;stroke-linejoin:round;stroke-miterlimit:10;}
	.st3{clip-path:url(#SVGID_2_);}
	.st4{fill:#4DA12E;}
	.st5{fill:#96D200;}
</style>
<g>
	<g id="Grupo_14998_1_" transform="translate(-83.703)">
		<rect id="Rectángulo_3799-2_15_" x="83.7" class="st0" width="65" height="65"/>
		<g id="Grupo_15257" transform="translate(-5.723 -1.554)">
			<g id="Grupo_15256">
				<line id="Línea_2918" class="st1" x1="96.48" y1="50.82" x2="147.88" y2="50.82"/>
				<path id="Trazado_12587" class="st1" d="M100.18,16.16V14c0-1.72,1.39-3.11,3.12-3.11l0,0h3.62c1.72,0,3.12,1.39,3.12,3.11
					v36.59"/>
				<line id="Línea_2919" class="st1" x1="100.18" y1="50.82" x2="100.18" y2="31.81"/>
				<path id="Trazado_12588" class="st1" d="M129.04,50.74V36.26c0-1.66,1.34-3,3-3h9.12c1.66,0,3,1.34,3,3v14.56"/>
				<path id="Trazado_12589" class="st1" d="M125.3,50.74V29.77c0-1.66,1.34-3,3-3h5.22c1.66,0,3,1.34,3,3v3.34"/>
				<path id="Trazado_12590" class="st1" d="M110.03,17h1.37c1.44,0,2.6,1.16,2.6,2.6l0,0v31"/>
				<path id="Trazado_12591" class="st1" d="M110.26,32.65h7.02c1.27,0,2.29,1.03,2.29,2.29v7.71c0,1.27,1.03,2.29,2.29,2.29l0,0
					h6.92"/>
				<path id="Trazado_12592" class="st1" d="M139.12,42.23l-2.1-4.34l-1.95,4.34c-0.21,0.44-0.35,0.92-0.41,1.41
					c0,1.34,1.08,2.42,2.42,2.42s2.42-1.08,2.42-2.42C139.46,43.15,139.33,42.67,139.12,42.23z"/>
				<line id="Línea_2920" class="st1" x1="131.26" y1="20.48" x2="131.26" y2="26.48"/>
				<path id="Rectángulo_5173" class="st1" d="M123.74,4.03h20.18l0,0V15.3c0,2.85-2.31,5.15-5.15,5.15l0,0h-20.18l0,0V9.18
					C118.59,6.34,120.9,4.03,123.74,4.03L123.74,4.03z"/>
				<g id="Grupo_15255">
					<line id="Línea_2921" class="st1" x1="122.66" y1="15.53" x2="122.66" y2="10.11"/>
					<path id="Rectángulo_5174" class="st1" d="M124.78,7.07h0.16c1.17,0,2.12,0.94,2.12,2.11l0,0v1.03c0,1.17-0.95,2.12-2.12,2.12
						l0,0h-2.28l0,0V9.19C122.66,8.02,123.61,7.07,124.78,7.07z"/>
					<path id="Rectángulo_5175" class="st1" d="M122.66,12.34h2.31c1.15,0,2.09,0.93,2.09,2.08c0,0,0,0,0,0.01v1.1
						c0,1.17-0.95,2.12-2.12,2.12l0,0h-2.28l0,0L122.66,12.34L122.66,12.34z"/>
					<path id="Trazado_12593" class="st1" d="M136.29,7.07v10.58h3.57"/>
					<path id="Trazado_12594" class="st1" d="M133.46,7.07h-3.51v10.58h3.56"/>
					<line id="Línea_2922" class="st1" x1="133.18" y1="12.33" x2="130.12" y2="12.33"/>
				</g>
				<path id="Trazado_11848" class="st2" d="M104.34,23.87c0,2.31-1.88,4.18-4.19,4.18c-2.31,0-4.18-1.88-4.18-4.19
					s1.87-4.18,4.18-4.18l0,0c2.3-0.01,4.17,1.85,4.18,4.15v0.04H104.34z"/>
			</g>
		</g>
	</g>
	<g>
		<defs>
			<rect id="SVGID_1_" y="48.26" width="65" height="16.74"/>
		</defs>
		<clipPath id="SVGID_2_">
			<use xlink:href="#SVGID_1_"  style="overflow:visible;"/>
		</clipPath>
		<g class="st3">
			<g>
				<rect y="48.26" class="st0" width="65" height="16.74"/>
			</g>
			<g>
				<g>
					<path class="st4" d="M45.38,61.32h-7.17c-0.66,0-1.2-0.54-1.2-1.2s0.54-1.2,1.2-1.2h7.17c0.66,0,1.2,0.54,1.2,1.2
						S46.04,61.32,45.38,61.32z"/>
				</g>
				<g>
					<path class="st4" d="M53.11,61.32h-0.58c-0.66,0-1.2-0.54-1.2-1.2s0.54-1.2,1.2-1.2h0.58c0.66,0,1.2,0.54,1.2,1.2
						S53.77,61.32,53.11,61.32z"/>
				</g>
				<g>
					<path class="st4" d="M18.99,61.32h-7.1c-0.66,0-1.2-0.54-1.2-1.2s0.54-1.2,1.2-1.2h7.1c0.66,0,1.2,0.54,1.2,1.2
						S19.65,61.32,18.99,61.32z"/>
				</g>
				<g>
					<path class="st5" d="M31.05,61.32H18.53c-0.66,0-1.2-0.54-1.2-1.2s0.54-1.2,1.2-1.2h12.52c0.66,0,1.2,0.54,1.2,1.2
						S31.71,61.32,31.05,61.32z"/>
				</g>
				<g>
					<path class="st5" d="M35.47,55.21H11.89c-0.66,0-1.2-0.54-1.2-1.2s0.54-1.2,1.2-1.2h23.58c0.66,0,1.2,0.54,1.2,1.2
						S36.13,55.21,35.47,55.21z"/>
				</g>
				<g>
					<path class="st4" d="M53.11,55.21H34.75c-0.66,0-1.2-0.54-1.2-1.2s0.54-1.2,1.2-1.2h18.36c0.66,0,1.2,0.54,1.2,1.2
						S53.77,55.21,53.11,55.21z"/>
				</g>
				<g>
					<path class="st4" d="M12.32,55.21h-0.43c-0.66,0-1.2-0.54-1.2-1.2s0.54-1.2,1.2-1.2h0.43c0.66,0,1.2,0.54,1.2,1.2
						S12.98,55.21,12.32,55.21z"/>
				</g>
			</g>
		</g>
	</g>
</g>
</svg>
