<?xml version="1.0" encoding="utf-8"?>
<!-- Generator: Adobe Illustrator 24.0.2, SVG Export Plug-In . SVG Version: 6.00 Build 0)  -->
<svg version="1.1" id="Capa_1" xmlns="http://www.w3.org/2000/svg" xmlns:xlink="http://www.w3.org/1999/xlink" x="0px" y="0px"
	 viewBox="0 0 65 65" style="enable-background:new 0 0 65 65;" xml:space="preserve">
<style type="text/css">
	.st0{fill:none;}
	.st1{fill:none;stroke:#95A6B1;stroke-width:1.6;stroke-linecap:round;stroke-linejoin:round;}
	.st2{fill:none;stroke:#00A800;stroke-width:1.6;stroke-linecap:round;stroke-linejoin:round;stroke-miterlimit:10;}
	.st3{clip-path:url(#SVGID_2_);}
	.st4{fill:#4DA12E;}
	.st5{fill:#96D200;}
</style>
<g>
	<g id="Grupo_13213_1_" transform="translate(-0.246 -0.246)">
		<rect id="Rectángulo_3799-2_8_" x="0.25" y="0.25" class="st0" width="65" height="65"/>
		<g>
			<path class="st1" d="M20.03,25.03v-9.68c0,0,0.92-9.02,9.61-9.02s9.86,5.85,9.86,6.26s0.75,1.98-1.25,5.96s-0.84,6.4,2.09,7.32
				v4.93c0,0-0.25,6.78-6.68,10.2c-6.43,3.42-12.19,0.74-12.78,0.41c-0.58-0.33-2.34-1.59-2.34-1.59"/>
			<path class="st1" d="M40.32,25.87c7.7-1.11,15.03,1.06,15.03,1.06s0.6-4.7-4.4-9.94s-11.47-4.4-11.47-4.4S36,9.72,31.93,11.23
				c-3.41,1.27-5.21,4.96-4.58,8.61c0.42,2.45,2.03,4.3,3.97,5.69c2.95,2.12,8.38,5.17,7.33,10.61"/>
			<path class="st1" d="M37.43,20.65c0,0,11.24-0.86,17.93,6.28"/>
			<path class="st1" d="M45.95,21.58c0,0,0.65-4.49,4.46-5.14"/>
			<line class="st1" x1="34.27" y1="15.24" x2="34.27" y2="17.17"/>
			<line class="st1" x1="31.57" y1="20.55" x2="32.65" y2="20.55"/>
			<path class="st1" d="M18.13,27.43c2.38-3.01,5.31-5.16,8.62-2.5c4.07,3.26,2.26,7.26,1.27,8.65c-1,1.39-7.33,8.62-17.91,5.73
				c0.61-0.88,1.21-1.75,1.82-2.63"/>
			<path class="st1" d="M18.52,39.82l-6.59,8.44c0,0,4.81,2.52,7.77-1.52c2.2-3.01,1.85-5.01,1.85-5.01"/>
			<path class="st1" d="M26.27,42.7v2.8c-0.17-0.06-0.4-0.03-0.57-0.03c-0.95,0.01-1.74,0.3-2.4,1c-0.6,0.63-0.98,1.51-0.84,2.39
				c0.11,0.67,0.72,1.07,1.39,1.07c1.05,0,1.52-0.86,1.61-1.56c0,0,6.81,0,6.82,0c-0.06,0,0.3,0.95,0.35,1.01
				c1,1.47,3.11,0.1,2.57-1.47c-0.93-2.68-3.59-2.3-5.9-2.3V42.5"/>
			<path id="Trazado_11848_1_" class="st2" d="M11.09,31.81c0,1.94,1.58,3.52,3.52,3.52s3.52-1.58,3.52-3.52s-1.58-3.52-3.52-3.52
				l0,0c-1.94-0.01-3.51,1.56-3.52,3.49C11.09,31.79,11.09,31.8,11.09,31.81z"/>
		</g>
	</g>
	<rect id="Rectángulo_3799-2_6_" class="st0" width="65" height="65"/>
</g>
<g>
	<defs>
		<rect id="SVGID_1_" y="48.26" width="65" height="16.74"/>
	</defs>
	<clipPath id="SVGID_2_">
		<use xlink:href="#SVGID_1_"  style="overflow:visible;"/>
	</clipPath>
	<g class="st3">
		<g>
			<rect y="48.26" class="st0" width="65" height="16.74"/>
		</g>
		<g>
			<g>
				<path class="st4" d="M45.38,61.32h-7.17c-0.66,0-1.2-0.54-1.2-1.2s0.54-1.2,1.2-1.2h7.17c0.66,0,1.2,0.54,1.2,1.2
					S46.04,61.32,45.38,61.32z"/>
			</g>
			<g>
				<path class="st4" d="M53.11,61.32h-0.58c-0.66,0-1.2-0.54-1.2-1.2s0.54-1.2,1.2-1.2h0.58c0.66,0,1.2,0.54,1.2,1.2
					S53.77,61.32,53.11,61.32z"/>
			</g>
			<g>
				<path class="st4" d="M18.99,61.32h-7.1c-0.66,0-1.2-0.54-1.2-1.2s0.54-1.2,1.2-1.2h7.1c0.66,0,1.2,0.54,1.2,1.2
					S19.65,61.32,18.99,61.32z"/>
			</g>
			<g>
				<path class="st5" d="M31.05,61.32H18.53c-0.66,0-1.2-0.54-1.2-1.2s0.54-1.2,1.2-1.2h12.52c0.66,0,1.2,0.54,1.2,1.2
					S31.71,61.32,31.05,61.32z"/>
			</g>
			<g>
				<path class="st5" d="M35.47,55.21H11.89c-0.66,0-1.2-0.54-1.2-1.2s0.54-1.2,1.2-1.2h23.58c0.66,0,1.2,0.54,1.2,1.2
					S36.13,55.21,35.47,55.21z"/>
			</g>
			<g>
				<path class="st4" d="M53.11,55.21H34.75c-0.66,0-1.2-0.54-1.2-1.2s0.54-1.2,1.2-1.2h18.36c0.66,0,1.2,0.54,1.2,1.2
					S53.77,55.21,53.11,55.21z"/>
			</g>
			<g>
				<path class="st4" d="M12.32,55.21h-0.43c-0.66,0-1.2-0.54-1.2-1.2s0.54-1.2,1.2-1.2h0.43c0.66,0,1.2,0.54,1.2,1.2
					S12.98,55.21,12.32,55.21z"/>
			</g>
		</g>
	</g>
</g>
</svg>
