<svg id="Grupo_17056" data-name="Grupo 17056" xmlns="http://www.w3.org/2000/svg" width="47" height="47" viewBox="0 0 47 47">
  <rect id="Rectángulo_5304" data-name="Rectángulo 5304" width="47" height="47" transform="translate(0 0)" fill="none"/>
  <g id="Grupo_17057" data-name="Grupo 17057">
    <g id="Grupo_17056-2" data-name="Grupo 17056">
      <path id="Trazado_18120" data-name="Trazado 18120" d="M3.913,20.622a12.6,12.6,0,0,0,.465,1.3c.223.522.8,3.314,3.339,3.314,2.188,0,2.217-3.538,2.217-3.538s7.99,1.074,9.7,1.536,1.7,3.388,1.7,3.388a8.55,8.55,0,0,0,8.55,8.55h8.521a5.423,5.423,0,0,0,5.423-5.423v-.393A12.185,12.185,0,0,0,31.645,17.17H9.267L6.7,13.284S5.729,11.174,3.74,11.3c-.56.034-2.447,0-2.447,0S2.926,17.584,3.913,20.622Z" fill="none" stroke="#95a6b1" stroke-linecap="round" stroke-linejoin="round" stroke-width="1.5"/>
      <path id="Trazado_18121" data-name="Trazado 18121" d="M19.4,39.86H41.435s4.272-.461,4.272-3.463" fill="none" stroke="#95a6b1" stroke-linecap="round" stroke-linejoin="round" stroke-width="1.5"/>
      <line id="Línea_3407" data-name="Línea 3407" y2="4.689" transform="translate(29.017 35.171)" fill="none" stroke="#95a6b1" stroke-linecap="round" stroke-linejoin="round" stroke-width="1.5"/>
      <line id="Línea_3408" data-name="Línea 3408" y2="4.689" transform="translate(36.535 35.171)" fill="none" stroke="#95a6b1" stroke-linecap="round" stroke-linejoin="round" stroke-width="1.5"/>
      <path id="Trazado_18122" data-name="Trazado 18122" d="M39.648,20.173H32.091A1.586,1.586,0,0,0,30.5,21.759v4.8a1.586,1.586,0,0,0,1.586,1.586H43.77" fill="none" stroke="#95a6b1" stroke-linecap="round" stroke-linejoin="round" stroke-width="1.5"/>
      <line id="Línea_3409" data-name="Línea 3409" x2="10.359" transform="translate(29.17 10.541)" fill="none" stroke="#95a6b1" stroke-linecap="round" stroke-linejoin="round" stroke-width="1.5"/>
      <line id="Línea_3410" data-name="Línea 3410" x2="10.186" transform="translate(12.824 10.541)" fill="none" stroke="#95a6b1" stroke-linecap="round" stroke-linejoin="round" stroke-width="1.5"/>
      <path id="Trazado_18123" data-name="Trazado 18123" d="M26.09,17.17v0Z" fill="none" stroke="#95a6b1" stroke-linecap="round" stroke-linejoin="round" stroke-width="1.5"/>
    </g>
    <path id="Trazado_11848" data-name="Trazado 11848" d="M29.163,10.212A3.073,3.073,0,1,1,26.09,7.14h0a3.061,3.061,0,0,1,3.073,3.049Z" fill="none" stroke="#19a500" stroke-linecap="round" stroke-linejoin="round" stroke-width="1.5"/>
  </g>
</svg>
