<?xml version="1.0" encoding="utf-8"?>
<!-- Generator: Adobe Illustrator 24.0.2, SVG Export Plug-In . SVG Version: 6.00 Build 0)  -->
<svg version="1.1" xmlns="http://www.w3.org/2000/svg" xmlns:xlink="http://www.w3.org/1999/xlink" x="0px" y="0px"
	 viewBox="0 0 47 47" style="enable-background:new 0 0 47 47;" xml:space="preserve">
<style type="text/css">
	.st0{display:none;}
	.st1{display:inline;fill:#95A6B1;}
	.st2{fill:none;}
	.st3{fill:none;stroke:#FFFFFF;stroke-width:1.5;stroke-linecap:round;stroke-linejoin:round;}
	.st4{fill:none;stroke:#95A6B1;stroke-width:1.5;stroke-linecap:round;stroke-linejoin:round;}
	.st5{fill:none;stroke:#19A500;stroke-width:1.5;stroke-linecap:round;stroke-linejoin:round;stroke-miterlimit:10;}
	.st6{fill:none;stroke:#95A6B1;stroke-width:1.5;stroke-linecap:round;stroke-linejoin:round;stroke-dasharray:4.4639,4.4639;}
	.st7{fill:none;stroke:#19A500;stroke-width:1.5;stroke-linecap:round;stroke-linejoin:round;}
</style>
<g id="Capa_2" class="st0">
</g>
<g id="Capa_1">
	<g>
		<path id="Trazado_11848_3_" class="st5" d="M13.82,10.12c0,1.87-1.52,3.38-3.38,3.38c-1.87,0-3.38-1.52-3.38-3.38
			c0-1.87,1.52-3.38,3.38-3.38h0c1.86-0.01,3.38,1.5,3.38,3.36C13.82,10.1,13.82,10.11,13.82,10.12z"/>
		<rect y="0" class="st2" width="47" height="47"/>
		<path id="Trazado_11859_2_" class="st4" d="M37.07,40.92c0.78-0.84,6.26-6.93,6.26-11.83c0.28-3.56-2.36-6.68-5.92-6.98
			c-0.1,0-0.21-0.03-0.3-0.04c-0.03,0-0.06,0-0.09,0c-0.03,0-0.06,0-0.09,0c-0.11,0-0.21,0.03-0.3,0.04
			c-3.56,0.3-6.2,3.42-5.92,6.98c0,4.9,5.48,10.99,6.26,11.83v0.11l0.05-0.05l0.05,0.05L37.07,40.92z"/>
		<path id="Trazado_11860_2_" class="st4" d="M38.71,28.37c0,0.95-0.77,1.72-1.72,1.72l0,0c-0.95,0-1.72-0.77-1.72-1.72
			s0.77-1.72,1.72-1.72S38.71,27.42,38.71,28.37z"/>
		<g>
			<g>
				<line class="st4" x1="17.15" y1="10.17" x2="19.53" y2="10.17"/>
				<path class="st6" d="M23.99,10.19c2.39,0.22,4.26,2.23,4.26,4.68v4.25c0,2.6-2.1,4.7-4.7,4.7h-8.42c-2.6,0-4.7,2.1-4.7,4.7v7.64
					c0,2.6,2.1,4.7,4.7,4.7h10.92"/>
				<line class="st4" x1="28.28" y1="40.85" x2="30.66" y2="40.85"/>
			</g>
		</g>
	</g>
</g>
</svg>
