<?xml version="1.0" encoding="utf-8"?>
<!-- Generator: Adobe Illustrator 24.0.2, SVG Export Plug-In . SVG Version: 6.00 Build 0)  -->
<svg version="1.1" xmlns="http://www.w3.org/2000/svg" xmlns:xlink="http://www.w3.org/1999/xlink" x="0px" y="0px"
	 viewBox="0 0 47 47" style="enable-background:new 0 0 47 47;" xml:space="preserve">
<style type="text/css">
	.st0{display:none;}
	.st1{display:inline;fill:#95A6B1;}
	.st2{fill:none;}
	.st3{fill:none;stroke:#FFFFFF;stroke-width:1.5;stroke-linecap:round;stroke-linejoin:round;}
	.st4{fill:none;stroke:#95A6B1;stroke-width:1.5;stroke-linecap:round;stroke-linejoin:round;}
	.st5{fill:none;stroke:#19A500;stroke-width:1.5;stroke-linecap:round;stroke-linejoin:round;stroke-miterlimit:10;}
	.st6{fill:none;stroke:#95A6B1;stroke-width:1.5;stroke-linecap:round;stroke-linejoin:round;stroke-dasharray:4.4639,4.4639;}
	.st7{fill:none;stroke:#19A500;stroke-width:1.5;stroke-linecap:round;stroke-linejoin:round;}
</style>
<g id="Capa_2" class="st0">
</g>
<g id="Capa_1">
	<g>
		<rect x="0" class="st2" width="47" height="47"/>
		<g>
			<g>
				<path class="st4" d="M3.91,20.62c0.31,0.95,0.41,1.17,0.47,1.3c0.22,0.52,0.8,3.31,3.34,3.31c2.19,0,2.22-3.54,2.22-3.54
					s7.99,1.07,9.7,1.54s1.7,3.39,1.7,3.39c0,4.72,3.83,8.55,8.55,8.55h8.52c3,0,5.42-2.43,5.42-5.42v-0.39
					c0-6.73-5.46-12.18-12.18-12.18H9.27L6.7,13.28c0,0-0.97-2.11-2.96-1.99c-0.56,0.03-2.45-0.01-2.45-0.01S2.93,17.58,3.91,20.62z
					"/>
				<path class="st4" d="M19.4,39.86h22.03c0,0,4.27-0.46,4.27-3.46"/>
				<line class="st4" x1="29.02" y1="35.17" x2="29.02" y2="39.86"/>
				<line class="st4" x1="36.54" y1="35.17" x2="36.54" y2="39.86"/>
				<path class="st4" d="M39.65,20.17h-7.56c-0.88,0-1.59,0.71-1.59,1.59v4.8c0,0.88,0.71,1.59,1.59,1.59h11.68"/>
				<line class="st4" x1="29.17" y1="10.54" x2="39.53" y2="10.54"/>
				<line class="st4" x1="12.82" y1="10.54" x2="23.01" y2="10.54"/>
				<path class="st4" d="M26.09,17.17v-3.55V17.17z"/>
			</g>
			<path id="Trazado_11848_1_" class="st5" d="M29.16,10.21c0,1.7-1.38,3.07-3.07,3.07c-1.7,0-3.07-1.38-3.07-3.07
				c0-1.7,1.38-3.07,3.07-3.07h0c1.69-0.01,3.07,1.36,3.07,3.05C29.16,10.2,29.16,10.2,29.16,10.21z"/>
		</g>
	</g>
</g>
</svg>
