<?xml version="1.0" encoding="utf-8"?>
<!-- Generator: Adobe Illustrator 24.0.2, SVG Export Plug-In . SVG Version: 6.00 Build 0)  -->
<svg version="1.1" xmlns="http://www.w3.org/2000/svg" xmlns:xlink="http://www.w3.org/1999/xlink" x="0px" y="0px"
	 viewBox="0 0 47 47" style="enable-background:new 0 0 47 47;" xml:space="preserve">
<style type="text/css">
	.st0{display:none;}
	.st1{display:inline;fill:#95A6B1;}
	.st2{fill:none;}
	.st3{fill:none;stroke:#FFFFFF;stroke-width:1.5;stroke-linecap:round;stroke-linejoin:round;}
	.st4{fill:none;stroke:#95A6B1;stroke-width:1.5;stroke-linecap:round;stroke-linejoin:round;}
	.st5{fill:none;stroke:#19A500;stroke-width:1.5;stroke-linecap:round;stroke-linejoin:round;stroke-miterlimit:10;}
	.st6{fill:none;stroke:#95A6B1;stroke-width:1.5;stroke-linecap:round;stroke-linejoin:round;stroke-dasharray:4.4639,4.4639;}
	.st7{fill:none;stroke:#19A500;stroke-width:1.5;stroke-linecap:round;stroke-linejoin:round;}
</style>
<g id="Capa_2" class="st0">
</g>
<g id="Capa_1">
	<g>
		<rect y="0" class="st2" width="47" height="47"/>
		<path id="Trazado_11854" class="st4" d="M39.6,23.5c0,8.89-7.21,16.1-16.1,16.1S7.4,32.39,7.4,23.5S14.61,7.4,23.5,7.4l0,0"/>
		<line id="Línea_2434" class="st4" x1="25.15" y1="23.5" x2="32.19" y2="23.5"/>
		<path id="Trazado_11855" class="st4" d="M25.15,23.5c0,0.91-0.74,1.66-1.65,1.66c-0.91,0-1.66-0.74-1.66-1.65
			c0-0.91,0.74-1.66,1.65-1.66c0,0,0,0,0,0C24.41,21.85,25.15,22.59,25.15,23.5L25.15,23.5z"/>
		<line id="Línea_2435" class="st4" x1="23.49" y1="21.81" x2="23.49" y2="17.03"/>
		<path id="Trazado_11856" class="st7" d="M26.68,7.72c6.37,1.29,11.35,6.29,12.61,12.68"/>
	</g>
</g>
</svg>
