<?xml version="1.0" encoding="utf-8"?>
<!-- Generator: Adobe Illustrator 24.0.2, SVG Export Plug-In . SVG Version: 6.00 Build 0)  -->
<svg version="1.1" xmlns="http://www.w3.org/2000/svg" xmlns:xlink="http://www.w3.org/1999/xlink" x="0px" y="0px"
	 viewBox="0 0 47 47" style="enable-background:new 0 0 47 47;" xml:space="preserve">
<style type="text/css">
	.st0{display:none;}
	.st1{display:inline;fill:#95A6B1;}
	.st2{fill:none;}
	.st3{fill:none;stroke:#FFFFFF;stroke-width:1.5;stroke-linecap:round;stroke-linejoin:round;}
	.st4{fill:none;stroke:#95A6B1;stroke-width:1.5;stroke-linecap:round;stroke-linejoin:round;}
	.st5{fill:none;stroke:#19A500;stroke-width:1.5;stroke-linecap:round;stroke-linejoin:round;stroke-miterlimit:10;}
	.st6{fill:none;stroke:#95A6B1;stroke-width:1.5;stroke-linecap:round;stroke-linejoin:round;stroke-dasharray:4.4639,4.4639;}
	.st7{fill:none;stroke:#19A500;stroke-width:1.5;stroke-linecap:round;stroke-linejoin:round;}
</style>
<g id="Capa_2" class="st0">
</g>
<g id="Capa_1">
	<g>
		<g>
			<circle class="st4" cx="11.21" cy="32.52" r="3.67"/>
			<circle class="st4" cx="38.29" cy="32.52" r="3.67"/>
			<line class="st4" x1="34.65" y1="32.18" x2="14.88" y2="32.18"/>
			<path class="st4" d="M10.92,17.86l16.73-0.83c0,0,4.68,0.36,10.64,6.24c1.27,0.14,7.71,0.12,7.47,8.66c-1.21,0-3.82,0-3.82,0"/>
			<polyline class="st4" points="7.6,31.93 2.97,31.93 2.97,25.6 			"/>
			<polyline class="st4" points="13.47,17.73 11.3,23.3 38.29,23.27 			"/>
			<line class="st4" x1="22.55" y1="23.3" x2="22.55" y2="17.28"/>
			<line class="st4" x1="5.84" y1="37.44" x2="44.89" y2="37.44"/>
		</g>
		<path id="Trazado_11848_2_" class="st5" d="M8.4,19.47c0,1.99-1.61,3.6-3.6,3.6c-1.99,0-3.6-1.61-3.6-3.6c0-1.99,1.61-3.6,3.6-3.6
			h0c1.98-0.01,3.59,1.59,3.6,3.57C8.4,19.45,8.4,19.46,8.4,19.47z"/>
		<rect y="0" class="st2" width="47" height="47"/>
	</g>
</g>
</svg>
