<svg id="Capa_1" data-name="Capa 1" xmlns="http://www.w3.org/2000/svg" viewBox="0 0 47 47"><defs><style>.cls-1{fill:#19a500;}.cls-2{fill:none;}.cls-3{fill:#95a6b1;}</style></defs><title>distancia</title><g id="Trazado_11848" data-name="Trazado 11848"><path class="cls-1" d="M10.4,14.3a4.2,4.2,0,0,1-4.1-4.2A4.1,4.1,0,0,1,10.4,6h0a4.1,4.1,0,0,1,4.2,4.1h0A4.2,4.2,0,0,1,10.4,14.3Zm0-6.8h0a2.7,2.7,0,0,0,0,5.3,2.7,2.7,0,0,0,2.7-2.7h0A2.7,2.7,0,0,0,10.4,7.5Z"/></g><rect class="cls-2" width="47" height="47"/><g id="Trazado_11859" data-name="Trazado 11859"><path class="cls-3" d="M37.1,41.8h-.4a.7.7,0,0,1-.4-.5C34.9,39.7,30,34,30,29.1a7.2,7.2,0,0,1,6.6-7.7h.9a7.2,7.2,0,0,1,6.6,7.7c0,4.9-5,10.7-6.3,12.2a.7.7,0,0,1-.5.4Zm-.1-19h-.3A5.8,5.8,0,0,0,31.5,29c0,4.1,4,9.1,5.5,10.8,1.5-1.7,5.6-6.7,5.6-10.7a5.9,5.9,0,0,0-5.3-6.3H37Z"/></g><g id="Trazado_11860" data-name="Trazado 11860"><path class="cls-3" d="M37,30.8a2.5,2.5,0,1,1,2.5-2.4A2.5,2.5,0,0,1,37,30.8Zm0-3.4a1,1,0,0,0-1,1,1,1,0,0,0,2,0A1,1,0,0,0,37,27.4Z"/></g><path class="cls-3" d="M19.5,10.9H17.2a.7.7,0,0,1-.8-.7.8.8,0,0,1,.8-.8h2.3a.9.9,0,0,1,.8.8A.8.8,0,0,1,19.5,10.9Z"/><path class="cls-3" d="M23.8,41.6H19.3a.7.7,0,0,1-.7-.8.7.7,0,0,1,.7-.7h4.5a.7.7,0,0,1,.7.7A.7.7,0,0,1,23.8,41.6Zm-9,0h0A5.4,5.4,0,0,1,10.5,39a.8.8,0,0,1,.2-1,.9.9,0,0,1,1.1.2,4,4,0,0,0,3.1,1.9.8.8,0,1,1-.1,1.5Zm-4.4-6.5a.8.8,0,0,1-.7-.8V29.8a.7.7,0,0,1,.7-.7.8.8,0,0,1,.8.7v4.5A.9.9,0,0,1,10.4,35.1Zm1-8.7-.4-.2a.8.8,0,0,1-.2-1.1,5.5,5.5,0,0,1,4.3-2h.2a.7.7,0,0,1,.8.7.8.8,0,0,1-.8.8h-.2A3.9,3.9,0,0,0,12,26.1.6.6,0,0,1,11.4,26.4Zm12.2-1.8H19.8a.8.8,0,0,1-.7-.8.7.7,0,0,1,.7-.7h4.4a.8.8,0,0,1,.8.6.7.7,0,0,1-.6.9ZM27.7,22h-.3a.7.7,0,0,1-.3-1,3.9,3.9,0,0,0,.4-1.8V16.9a.7.7,0,0,1,.7-.8.7.7,0,0,1,.8.8v2.2a5.4,5.4,0,0,1-.6,2.5A.8.8,0,0,1,27.7,22Zm-.1-8.7a.8.8,0,0,1-.6-.4,4.4,4.4,0,0,0-3.1-2,.8.8,0,0,1-.7-.8,1,1,0,0,1,.9-.7,5.7,5.7,0,0,1,4.2,2.7.9.9,0,0,1-.3,1.1Z"/><path class="cls-3" d="M30.7,41.6H28.3a.8.8,0,0,1-.8-.8.8.8,0,0,1,.8-.7h2.4a.7.7,0,0,1,.7.7A.7.7,0,0,1,30.7,41.6Z"/></svg>