<svg id="Capa_1" data-name="Capa 1" xmlns="http://www.w3.org/2000/svg" viewBox="0 0 47 47"><defs><style>.cls-1{fill:none;}.cls-2{fill:#95a6b1;}.cls-3{fill:#19a500;}</style></defs><title>tiempo_aproximado</title><rect class="cls-1" width="47" height="47"/><g id="Trazado_11854" data-name="Trazado 11854"><path class="cls-2" d="M23.5,40.3a16.8,16.8,0,0,1,0-33.6.8.8,0,0,1,.8.7.9.9,0,0,1-.8.8A15.3,15.3,0,1,0,38.8,23.5a.8.8,0,0,1,.8-.7.7.7,0,0,1,.7.7A16.8,16.8,0,0,1,23.5,40.3Z"/></g><g id="Línea_2434" data-name="Línea 2434"><path class="cls-2" d="M32.2,24.2H25.1a.7.7,0,0,1-.7-.7.8.8,0,0,1,.7-.8h7.1a.8.8,0,0,1,.7.8A.7.7,0,0,1,32.2,24.2Z"/></g><g id="Trazado_11855" data-name="Trazado 11855"><path class="cls-2" d="M23.5,25.9a2.4,2.4,0,0,1-2.4-2.4,2.3,2.3,0,0,1,.7-1.7,2.1,2.1,0,0,1,1.7-.7,2.4,2.4,0,0,1,2.4,2.4h0a2.4,2.4,0,0,1-2.4,2.4Zm0-3.3a.6.6,0,0,0-.6.3.7.7,0,0,0-.3.6.9.9,0,0,0,.9.9h0a.9.9,0,0,0,.9-.9h0A.9.9,0,0,0,23.5,22.6Zm2.4.9Z"/></g><g id="Línea_2435" data-name="Línea 2435"><path class="cls-2" d="M23.5,22.6a.9.9,0,0,1-.8-.8V17a.8.8,0,0,1,.8-.7.7.7,0,0,1,.7.7v4.8A.8.8,0,0,1,23.5,22.6Z"/></g><g id="Trazado_11856" data-name="Trazado 11856"><path class="cls-3" d="M39.3,21.1c-.4,0-.7-.2-.7-.6a15.4,15.4,0,0,0-12.1-12,.9.9,0,0,1-.6-.9.8.8,0,0,1,.9-.6A16.6,16.6,0,0,1,40,20.2a.7.7,0,0,1-.6.9Z"/></g></svg>