<svg id="Capa_1" data-name="Capa 1" xmlns="http://www.w3.org/2000/svg" viewBox="0 0 47 47"><defs><style>.cls-1{fill:#fff;}.cls-2{fill:none;}</style></defs><title>icono_menu-gestion_ambiental</title><g id="Grupo_13373" data-name="Grupo 13373"><g id="Trazado_11772" data-name="Trazado 11772"><path class="cls-1" d="M13,13.4A4,4,0,0,1,9.4,11a3.9,3.9,0,0,1,2-5.3,4,4,0,0,1,5.3,2h0a4,4,0,0,1-2,5.3A3.3,3.3,0,0,1,13,13.4Zm0-6.6a1.9,1.9,0,0,0-1,.3,2.6,2.6,0,0,0-1.3,3.3,2.6,2.6,0,0,0,3.4,1.3,2.6,2.6,0,0,0,1.2-3.4h0A2.5,2.5,0,0,0,13.9,7Z"/></g><g id="Grupo_13370" data-name="Grupo 13370"><g id="Trazado_11773" data-name="Trazado 11773"><path class="cls-1" d="M26,40.8H17a6.4,6.4,0,0,1-6.5-6.4V16.3a.9.9,0,0,1,.8-.8.8.8,0,0,1,.7.8V34.4a4.9,4.9,0,0,0,5,4.9H36.1V8H19.3a.7.7,0,0,1-.7-.7.8.8,0,0,1,.7-.8H36.9a.8.8,0,0,1,.7.8V40.1a.7.7,0,0,1-.7.7Z"/></g></g><g id="Grupo_13371" data-name="Grupo 13371"><g id="Trazado_6132" data-name="Trazado 6132"><path class="cls-1" d="M27.2,21.9a.8.8,0,0,1-.7-.4c-.1-.2-1.4-3.5,0-6.1s4.8-3.5,5-3.5a.7.7,0,0,1,.8.5c.1.1,1.4,3.4,0,6h0a7.7,7.7,0,0,1-5,3.5Zm3.9-8.3a5.9,5.9,0,0,0-3.3,2.5,5.8,5.8,0,0,0-.1,4.1A5.7,5.7,0,0,0,31,17.7h0A5.8,5.8,0,0,0,31.1,13.6Zm.5,4.5h0Z"/></g><g id="Línea_1426" data-name="Línea 1426"><path class="cls-1" d="M27.2,21.9h-.4a.7.7,0,0,1-.3-1l2.2-4.2a.9.9,0,0,1,1-.4.8.8,0,0,1,.4,1.1l-2.3,4.2A.6.6,0,0,1,27.2,21.9Z"/></g></g><g id="Grupo_13372" data-name="Grupo 13372"><g id="Elipse_2271" data-name="Elipse 2271"><path class="cls-1" d="M24.1,30a3.8,3.8,0,1,1,3.7-3.7A3.8,3.8,0,0,1,24.1,30Zm0-6a2.3,2.3,0,1,0,0,4.5,2.2,2.2,0,0,0,2.2-2.2A2.2,2.2,0,0,0,24.1,24Z"/></g><g id="Trazado_11774" data-name="Trazado 11774"><path class="cls-1" d="M24.1,35.2,22.7,35a.7.7,0,0,1-.6-.4l-.8-1.9a1.3,1.3,0,0,0-1.4-.8l-2.1.2c-.2.1-.5-.1-.6-.2a10,10,0,0,1-1.4-2.4.6.6,0,0,1,.1-.7l1.2-1.7a1.2,1.2,0,0,0,0-1.6l-1.2-1.7a.6.6,0,0,1-.1-.7,7.2,7.2,0,0,1,1.4-2.4.7.7,0,0,1,.6-.3l2.1.3a1.4,1.4,0,0,0,1.4-.9l.8-1.8c.1-.3.4-.4.6-.5h1.4l2.7.3a.7.7,0,0,1,.5.9.8.8,0,0,1-.9.6,12,12,0,0,0-2.3-.3h-.8l-.6,1.4a3,3,0,0,1-3,1.8L18.1,22a5.4,5.4,0,0,0-.7,1.3l.9,1.3a2.7,2.7,0,0,1,0,3.4l-.9,1.3a5.4,5.4,0,0,0,.7,1.3l1.6-.2a3,3,0,0,1,3,1.7l.6,1.5a3.8,3.8,0,0,0,1.5,0l.7-1.5a3,3,0,0,1,2.9-1.7l1.7.2a5.4,5.4,0,0,0,.7-1.3l-1-1.3a3,3,0,0,1,0-3.4l1-1.4a10.1,10.1,0,0,0-1.7-2.5.8.8,0,0,1,0-1.1.7.7,0,0,1,1,0,12.1,12.1,0,0,1,2.3,3.6,1.3,1.3,0,0,1-.1.6L31,25.5a1.5,1.5,0,0,0,0,1.6l1.3,1.7a1.5,1.5,0,0,1,.1.7A14.9,14.9,0,0,1,31,31.9c-.2.1-.4.3-.7.2l-2-.2a1.6,1.6,0,0,0-1.5.8L26,34.6a.7.7,0,0,1-.5.4Z"/></g></g></g><g id="Rectángulo_4657" data-name="Rectángulo 4657"><rect class="cls-2" width="47" height="47"/></g></svg>