<svg id="Capa_1" data-name="Capa 1" xmlns="http://www.w3.org/2000/svg" viewBox="0 0 65 65"><defs><style>.cls-1{fill:none;}.cls-2{fill:#95a6b1;}.cls-3{fill:#4da12e;}.cls-4{fill:#96d200;}.cls-5{fill:#00a800;}</style></defs><title>licencia_ambiental </title><g id="Grupo_13216" data-name="Grupo 13216"><g id="Rectángulo_3799" data-name="Rectángulo 3799"><rect class="cls-1" width="65" height="65"/></g></g><g id="Rectángulo_3799-2" data-name="Rectángulo 3799-2"><rect class="cls-1" width="65" height="65"/></g><g id="Grupo_13713" data-name="Grupo 13713"><g id="Grupo_13383" data-name="Grupo 13383"><g id="Trazado_11778" data-name="Trazado 11778"><path class="cls-2" d="M35.8,48.8H24.5a8,8,0,0,1-7.9-7.9V14.2a.8.8,0,0,1,.8-.8.7.7,0,0,1,.8.8V40.9a6.4,6.4,0,0,0,6.3,6.3H48.6V7.7H24.5a.8.8,0,0,1-.8-.8.9.9,0,0,1,.8-.8H49.4a.8.8,0,0,1,.8.8v41a.7.7,0,0,1-.8.8Z"/></g></g><g id="Grupo_13384" data-name="Grupo 13384"><g id="Trazado_6132" data-name="Trazado 6132"><path class="cls-2" d="M37.3,25.1a.8.8,0,0,1-.7-.5c-.1-.2-1.7-4.2,0-7.5s5.9-4.2,6.1-4.2a.8.8,0,0,1,.9.4c.1.2,1.7,4.3,0,7.5h0c-1.7,3.3-5.9,4.3-6.1,4.3Zm5.1-10.5A7.8,7.8,0,0,0,38,17.9c-1,1.9-.5,4.3-.2,5.4,1.2-.4,3.4-1.3,4.4-3.2h0C43.2,18.2,42.7,15.8,42.4,14.6Z"/></g><g id="Línea_1426" data-name="Línea 1426"><path class="cls-2" d="M37.3,25.1h-.4a.9.9,0,0,1-.3-1.1l2.8-5.3a.8.8,0,0,1,1.1-.3.7.7,0,0,1,.3,1L38,24.7A.7.7,0,0,1,37.3,25.1Z"/></g></g><g id="Grupo_13385" data-name="Grupo 13385"><g id="Elipse_2272" data-name="Elipse 2272"><path class="cls-2" d="M33.4,35.2A4.5,4.5,0,1,1,38,30.7,4.5,4.5,0,0,1,33.4,35.2Zm0-7.4a2.9,2.9,0,1,0,3,2.9A2.9,2.9,0,0,0,33.4,27.8Z"/></g><g id="Trazado_11779" data-name="Trazado 11779"><path class="cls-2" d="M33.5,41.7l-1.8-.2a.7.7,0,0,1-.5-.4l-1.1-2.4a1.8,1.8,0,0,0-1.9-1.1l-2.6.3a1.1,1.1,0,0,1-.7-.3,11.1,11.1,0,0,1-1.7-3,.9.9,0,0,1,.1-.7l1.6-2.1a2.2,2.2,0,0,0,0-2.2l-1.6-2.1a1.1,1.1,0,0,1-.1-.8,12.2,12.2,0,0,1,1.7-2.9,1.1,1.1,0,0,1,.7-.3l2.6.3a1.9,1.9,0,0,0,1.9-1.1l1-2.4a1,1,0,0,1,.7-.4l1.6-.2,1.7.2a.7.7,0,0,1,.6.4l1.1,2.4a1.9,1.9,0,0,0,1.9,1.1l2.6-.3a1.1,1.1,0,0,1,.7.3,12.2,12.2,0,0,1,1.7,2.9,1.1,1.1,0,0,1-.1.8L42,29.6a2.2,2.2,0,0,0,0,2.2l1.6,2.1a.9.9,0,0,1,.1.7,11.1,11.1,0,0,1-1.7,3,1.1,1.1,0,0,1-.7.3l-2.6-.3a1.8,1.8,0,0,0-1.9,1.1l-1,2.4c-.2.2-.4.4-.6.4ZM32.4,40a7.4,7.4,0,0,0,2.1,0l.8-1.9A3.5,3.5,0,0,1,38.9,36l2.1.2a9.5,9.5,0,0,0,1-1.7l-1.2-1.7a3.6,3.6,0,0,1,0-4.2L42,26.9a9.5,9.5,0,0,0-1-1.7l-2.1.2a3.5,3.5,0,0,1-3.6-2.1l-.8-1.9H32.4l-.8,1.9A3.5,3.5,0,0,1,28,25.4l-2.1-.2a9.5,9.5,0,0,0-1,1.7l1.2,1.7a3.6,3.6,0,0,1,0,4.2l-1.2,1.7a9.5,9.5,0,0,0,1,1.7L28,36a3.5,3.5,0,0,1,3.6,2.1Z"/></g></g></g><rect class="cls-1" y="48.3" width="65" height="16.74"/><path class="cls-3" d="M45.4,61.3H38.2A1.2,1.2,0,0,1,37,60.1a1.3,1.3,0,0,1,1.2-1.2h7.2a1.3,1.3,0,0,1,1.2,1.2A1.2,1.2,0,0,1,45.4,61.3Z"/><path class="cls-3" d="M53.1,61.3h-.6a1.2,1.2,0,0,1-1.2-1.2,1.3,1.3,0,0,1,1.2-1.2h.6a1.2,1.2,0,0,1,1.2,1.2A1.2,1.2,0,0,1,53.1,61.3Z"/><path class="cls-3" d="M19,61.3H11.9a1.2,1.2,0,0,1-1.2-1.2,1.2,1.2,0,0,1,1.2-1.2H19a1.2,1.2,0,0,1,1.2,1.2A1.2,1.2,0,0,1,19,61.3Z"/><path class="cls-4" d="M31,61.3H18.5a1.2,1.2,0,0,1-1.2-1.2,1.3,1.3,0,0,1,1.2-1.2H31a1.2,1.2,0,0,1,1.2,1.2A1.2,1.2,0,0,1,31,61.3Z"/><path class="cls-4" d="M35.5,55.2H11.9a1.2,1.2,0,1,1,0-2.4H35.5a1.2,1.2,0,0,1,0,2.4Z"/><path class="cls-3" d="M53.1,55.2H34.7a1.2,1.2,0,0,1,0-2.4H53.1a1.2,1.2,0,0,1,0,2.4Z"/><path class="cls-3" d="M12.3,55.2h-.4a1.2,1.2,0,1,1,0-2.4h.4a1.2,1.2,0,0,1,0,2.4Z"/><g id="Trazado_11848" data-name="Trazado 11848"><path class="cls-5" d="M17.4,11.9a5,5,0,0,1-4.9-5,4.9,4.9,0,0,1,4.9-5h.1a4.9,4.9,0,0,1,4.9,5h0A5,5,0,0,1,17.4,11.9Zm.1-8.4h0a3.4,3.4,0,0,0-3.4,3.4,3.4,3.4,0,1,0,6.7,0h0A3.4,3.4,0,0,0,17.5,3.5Z"/></g></svg>