<svg id="Capa_1" data-name="Capa 1" xmlns="http://www.w3.org/2000/svg" viewBox="0 0 65 65"><defs><style>.cls-1{fill:none;}.cls-2{fill:#4c9f2e;}.cls-3{fill:#94d040;}.cls-4{fill:#95a6b1;}.cls-5{fill:#00a800;}</style></defs><title>plan_manejo_ambiental</title><rect class="cls-1" y="48.3" width="65" height="16.74"/><path class="cls-2" d="M45.4,61.3H38.2A1.2,1.2,0,0,1,37,60.1a1.3,1.3,0,0,1,1.2-1.2h7.2a1.3,1.3,0,0,1,1.2,1.2A1.2,1.2,0,0,1,45.4,61.3Z"/><path class="cls-2" d="M53.1,61.3h-.6a1.2,1.2,0,0,1-1.2-1.2,1.3,1.3,0,0,1,1.2-1.2h.6a1.2,1.2,0,0,1,1.2,1.2A1.2,1.2,0,0,1,53.1,61.3Z"/><path class="cls-2" d="M19,61.3H11.9a1.2,1.2,0,0,1-1.2-1.2,1.2,1.2,0,0,1,1.2-1.2H19a1.2,1.2,0,0,1,1.2,1.2A1.2,1.2,0,0,1,19,61.3Z"/><path class="cls-3" d="M31,61.3H18.5a1.2,1.2,0,0,1-1.2-1.2,1.3,1.3,0,0,1,1.2-1.2H31a1.2,1.2,0,0,1,1.2,1.2A1.2,1.2,0,0,1,31,61.3Z"/><path class="cls-3" d="M35.5,55.2H11.9a1.2,1.2,0,1,1,0-2.4H35.5a1.2,1.2,0,0,1,0,2.4Z"/><path class="cls-2" d="M53.1,55.2H34.7a1.2,1.2,0,0,1,0-2.4H53.1a1.2,1.2,0,0,1,0,2.4Z"/><path class="cls-2" d="M12.3,55.2h-.4a1.2,1.2,0,1,1,0-2.4h.4a1.2,1.2,0,0,1,0,2.4Z"/><g id="Grupo_13216" data-name="Grupo 13216"><g id="Rectángulo_3799" data-name="Rectángulo 3799"><rect class="cls-1" width="65" height="65"/></g></g><g id="Rectángulo_3799-2" data-name="Rectángulo 3799-2"><rect class="cls-1" width="65" height="65"/></g><g id="Grupo_13714" data-name="Grupo 13714"><g id="Grupo_13387" data-name="Grupo 13387"><g id="Trazado_11781" data-name="Trazado 11781"><path class="cls-4" d="M25.1,49.2a8,8,0,0,1-8-8V16.3a.8.8,0,0,1,.8-.8.7.7,0,0,1,.8.8V41.2a6.4,6.4,0,0,0,6.4,6.4H49.5V7.7H24.6a.8.8,0,0,1-.8-.8.7.7,0,0,1,.8-.8H50.3a.8.8,0,0,1,.8.8V48.3a.8.8,0,0,1-.8.8Z"/></g></g><g id="Grupo_13390" data-name="Grupo 13390"><g id="Grupo_13389" data-name="Grupo 13389"><g id="Línea_2376" data-name="Línea 2376"><path class="cls-4" d="M33.9,34.4a.9.9,0,0,1-.8-.8V20.4a.8.8,0,0,1,1.6,0V33.6A.9.9,0,0,1,33.9,34.4Z"/></g><g id="Línea_2377" data-name="Línea 2377"><path class="cls-4" d="M34,23.5l-.6-.2a.9.9,0,0,1,0-1.2L40,15.6a.8.8,0,0,1,1.1,1.1l-6.5,6.6Z"/></g><g id="Línea_2378" data-name="Línea 2378"><path class="cls-4" d="M33.8,27.7l-.4-.2-5.7-3.8a.9.9,0,0,1-.2-1.1.7.7,0,0,1,1.1-.2l5.7,3.8a.9.9,0,0,1,.2,1.1A.8.8,0,0,1,33.8,27.7Z"/></g><g id="Trazado_11782" data-name="Trazado 11782"><path class="cls-4" d="M39.6,21.3A4.3,4.3,0,0,1,36.5,14c1.5-1.5,6.8-2.5,7.9-2.7l.6.2a1.1,1.1,0,0,1,.3.7c-.2,1.1-1.2,6.4-2.7,7.9h0A4.2,4.2,0,0,1,39.6,21.3Zm3.9-8.2c-2.2.5-5.1,1.2-5.9,2a2.8,2.8,0,0,0,0,3.8,2.8,2.8,0,0,0,3.9.1C42.3,18.2,43,15.3,43.5,13.1Zm-1.4,6.4Z"/></g><g id="Grupo_13388" data-name="Grupo 13388"><g id="Línea_2379" data-name="Línea 2379"><path class="cls-4" d="M30.6,25.6a.5.5,0,0,1-.4-.2l-3.5-2.3a.7.7,0,0,1-.2-1.1.8.8,0,0,1,1.1-.3l3.5,2.4a.9.9,0,0,1,.2,1.1A1,1,0,0,1,30.6,25.6Z"/></g><g id="Trazado_11783" data-name="Trazado 11783"><path class="cls-4" d="M28.1,27.1a4.6,4.6,0,0,1-2-.5c-1.5-1.1-3-5.5-3.3-6.4a.6.6,0,0,1,.1-.7.6.6,0,0,1,.6-.3c.9-.1,5.6-.3,7.1.7h0a4.1,4.1,0,0,1,.6,5.7A4.2,4.2,0,0,1,28.1,27.1Zm-3.5-6.4c.7,1.9,1.7,4.1,2.4,4.5a2.5,2.5,0,0,0,3-.6,2.4,2.4,0,0,0-.4-3.4C29,20.8,26.6,20.7,24.6,20.7Z"/></g></g></g><g id="Línea_2380" data-name="Línea 2380"><path class="cls-4" d="M39.9,34.4H28.4a.8.8,0,0,1,0-1.6H39.9a.8.8,0,0,1,0,1.6Z"/></g></g><g id="Línea_2381" data-name="Línea 2381"><path class="cls-4" d="M43.8,39.9H24.4a.8.8,0,0,1-.8-.8.9.9,0,0,1,.8-.8H43.8a.9.9,0,0,1,.8.8A.8.8,0,0,1,43.8,39.9Z"/></g><g id="Línea_2382" data-name="Línea 2382"><path class="cls-4" d="M43.8,44.8H24.4a.8.8,0,0,1,0-1.6H43.8a.8.8,0,0,1,0,1.6Z"/></g><g id="Trazado_11848" data-name="Trazado 11848"><path class="cls-5" d="M17.5,13.9a5,5,0,0,1-4.9-5,4.9,4.9,0,0,1,4.9-5h.1a4.9,4.9,0,0,1,4.9,5h0A5,5,0,0,1,17.5,13.9Zm.1-8.4a3.4,3.4,0,1,0,3.3,3.4h0A3.4,3.4,0,0,0,17.6,5.5Z"/></g></g></svg>