<svg id="Capa_1" data-name="Capa 1" xmlns="http://www.w3.org/2000/svg" viewBox="0 0 65 65"><defs><style>.cls-1{fill:#95a6b1;}.cls-2{fill:#00a800;}.cls-3{fill:none;}.cls-4{fill:#4da12e;}.cls-5{fill:#96d200;}</style></defs><title>sistema_aireacion_piscinas</title><g id="Trazado_11999" data-name="Trazado 11999"><path class="cls-1" d="M45.5,49.3A8.7,8.7,0,0,1,40,47.5c-2.2-1.7-6.8-1.7-9,0s-8.2,2.3-11,0-6.7-1.8-9,0a.7.7,0,0,1-1.1-.1.8.8,0,0,1,.1-1.1c2.8-2.3,8.2-2.3,11,0s6.8,1.8,9,0,8.3-2.3,11,0,6.8,1.8,9,0a8.6,8.6,0,0,1,5.6-1.7.8.8,0,0,1,.7.8.8.8,0,0,1-.8.8A6.7,6.7,0,0,0,51,47.6,9,9,0,0,1,45.5,49.3Z"/></g><path class="cls-1" d="M45.5,42.8A9.2,9.2,0,0,1,40,41.1a6.3,6.3,0,0,0-3.1-1.3.8.8,0,1,1,.3-1.5A7.6,7.6,0,0,1,41,39.8c2.3,1.9,6.8,1.9,9,0a10,10,0,0,1,5.6-1.7.8.8,0,0,1,.7.9.8.8,0,0,1-.8.7A8,8,0,0,0,51,41.1,9,9,0,0,1,45.5,42.8Z"/><path class="cls-1" d="M25.5,42.8A9.2,9.2,0,0,1,20,41.1c-2.2-1.8-6.8-1.8-9,0A.8.8,0,0,1,9.9,41a.9.9,0,0,1,.1-1.2c2.8-2.2,8.2-2.2,11,0s6.8,1.8,9,0h.2a.8.8,0,0,1,1.1.4.7.7,0,0,1-.3,1h0A9,9,0,0,1,25.5,42.8Z"/><g id="Línea_2518" data-name="Línea 2518"><path class="cls-1" d="M33.8,46.3a.8.8,0,0,1-.8-.8V43.7a.8.8,0,1,1,1.6,0v1.8A.8.8,0,0,1,33.8,46.3Zm0-4.5A.8.8,0,0,1,33,41V39.2a.8.8,0,1,1,1.6,0V41A.8.8,0,0,1,33.8,41.8Zm0-4.5a.8.8,0,0,1-.8-.8V34.7a.8.8,0,0,1,1.6,0v1.8A.8.8,0,0,1,33.8,37.3Zm0-4.5A.9.9,0,0,1,33,32V30.2a.8.8,0,1,1,1.6,0V32A.9.9,0,0,1,33.8,32.8Zm0-4.5a.9.9,0,0,1-.8-.8V25.7a.8.8,0,1,1,1.6,0v1.8A.9.9,0,0,1,33.8,28.3Zm0-4.5A.9.9,0,0,1,33,23V21.2a.8.8,0,1,1,1.6,0V23A.9.9,0,0,1,33.8,23.8Zm0-4.5a.9.9,0,0,1-.8-.8V16.6a.8.8,0,1,1,1.6,0v1.9A.9.9,0,0,1,33.8,19.3Zm0-4.6a.8.8,0,0,1-.8-.8V12.1a.8.8,0,1,1,1.6,0v1.8A.8.8,0,0,1,33.8,14.7Zm0-4.5a.8.8,0,0,1-.8-.8V7.6a.8.8,0,1,1,1.6,0V9.4A.8.8,0,0,1,33.8,10.2Zm0-4.5a.8.8,0,0,1-.8-.8V3.1a.8.8,0,1,1,1.6,0V4.9A.8.8,0,0,1,33.8,5.7Z"/></g><g id="Trazado_12004" data-name="Trazado 12004"><path class="cls-1" d="M50.6,33.2H17a5.3,5.3,0,0,1-5.3-5.3v-2a.8.8,0,0,1,.8-.8.7.7,0,0,1,.8.8v2A3.7,3.7,0,0,0,17,31.6H50.6a3.7,3.7,0,0,0,3.7-3.7V19.1h-35a.8.8,0,0,1,0-1.6H55.1a.9.9,0,0,1,.8.8v9.6A5.3,5.3,0,0,1,50.6,33.2Z"/></g><g id="Línea_2519" data-name="Línea 2519"><path class="cls-1" d="M30.6,47.3a.8.8,0,0,1-.8-.8V32.7a.8.8,0,0,1,.8-.8.9.9,0,0,1,.8.8V46.5A.9.9,0,0,1,30.6,47.3Z"/></g><g id="Línea_2519-2" data-name="Línea 2519"><path class="cls-1" d="M37,46.1a.8.8,0,0,1-.8-.8V32.7a.9.9,0,0,1,.8-.8.8.8,0,0,1,.8.8V45.3A.7.7,0,0,1,37,46.1Z"/></g><g id="Trazado_11848" data-name="Trazado 11848"><path class="cls-2" d="M13,23.6a4.4,4.4,0,0,1,0-8.7,4,4,0,0,1,3.1,1.3,4.3,4.3,0,0,1,1.3,3h0A4.4,4.4,0,0,1,13,23.6Zm0-7.1h0A2.8,2.8,0,0,0,13,22a2.8,2.8,0,0,0,2.8-2.8h0a2.7,2.7,0,0,0-.8-1.9A3,3,0,0,0,13,16.5Z"/></g><path class="cls-1" d="M33.8,23.7a.9.9,0,0,1-.8-.8,11.5,11.5,0,0,1,.1-1.9.8.8,0,0,1,.9-.7.7.7,0,0,1,.7.8,10.9,10.9,0,0,0-.1,1.8A.9.9,0,0,1,33.8,23.7Zm.6-4.5h-.2a.8.8,0,0,1-.5-1l.6-1.8a.8.8,0,0,1,1.1-.4.7.7,0,0,1,.4,1l-.6,1.6A.8.8,0,0,1,34.4,19.2Zm1.9-4.1h-.4a.8.8,0,0,1-.3-1.1l1.2-1.5a.8.8,0,0,1,1.1-.2.9.9,0,0,1,.1,1.2,7.1,7.1,0,0,0-1,1.4A.9.9,0,0,1,36.3,15.1Zm3-3.4a.6.6,0,0,1-.6-.3.7.7,0,0,1,.1-1.1,5.8,5.8,0,0,1,1.5-1.1.7.7,0,0,1,1.1.2.9.9,0,0,1-.2,1.1l-1.4,1A.6.6,0,0,1,39.3,11.7Zm3.8-2.4a1,1,0,0,1-.8-.5.8.8,0,0,1,.4-1l1.8-.7A.8.8,0,1,1,45,8.6l-1.6.6Zm4.3-1.2a.8.8,0,0,1-.8-.7.7.7,0,0,1,.7-.9l1.9-.2a.8.8,0,0,1,.8.8.9.9,0,0,1-.8.8H47.4Z"/><path class="cls-1" d="M33.8,23.7a.9.9,0,0,1-.8-.8,10.9,10.9,0,0,0-.1-1.8.8.8,0,0,1,.7-.8.7.7,0,0,1,.9.7,11.5,11.5,0,0,1,.1,1.9A.9.9,0,0,1,33.8,23.7Zm-.6-4.5a.8.8,0,0,1-.8-.6L31.8,17c-.1-.4,0-.9.4-1a.8.8,0,0,1,1.1.4,12.7,12.7,0,0,1,.6,1.8.7.7,0,0,1-.5,1Zm-1.9-4.1a.9.9,0,0,1-.7-.3,7.1,7.1,0,0,0-1-1.4.9.9,0,0,1,.1-1.2c.4-.2.9-.2,1.1.2L32,13.9a.8.8,0,0,1-.3,1.1Zm-3-3.4a.6.6,0,0,1-.5-.2l-1.3-1a.9.9,0,0,1-.3-1.1.8.8,0,0,1,1.2-.2l1.5,1.1a.8.8,0,0,1,0,1.1A.6.6,0,0,1,28.3,11.7ZM24.6,9.3h-.4l-1.6-.6a.8.8,0,0,1,.5-1.5l1.8.7a.7.7,0,0,1,.4,1C25.1,9.1,24.9,9.3,24.6,9.3ZM20.2,8.1H18.4a.9.9,0,0,1-.8-.8.8.8,0,0,1,.9-.8l1.8.2a.7.7,0,0,1,.7.9A.8.8,0,0,1,20.2,8.1Z"/><path class="cls-1" d="M55.1,26.1H43.9a.7.7,0,0,1-.8-.8.8.8,0,0,1,.8-.8H55.1a.9.9,0,0,1,.8.8A.8.8,0,0,1,55.1,26.1Z"/><rect class="cls-3" y="48.3" width="65" height="16.74"/><path class="cls-4" d="M45.4,61.3H38.2A1.2,1.2,0,0,1,37,60.1a1.3,1.3,0,0,1,1.2-1.2h7.2a1.3,1.3,0,0,1,1.2,1.2A1.2,1.2,0,0,1,45.4,61.3Z"/><path class="cls-4" d="M53.1,61.3h-.6a1.2,1.2,0,0,1-1.2-1.2,1.3,1.3,0,0,1,1.2-1.2h.6a1.2,1.2,0,0,1,1.2,1.2A1.2,1.2,0,0,1,53.1,61.3Z"/><path class="cls-4" d="M19,61.3H11.9a1.2,1.2,0,0,1-1.2-1.2,1.2,1.2,0,0,1,1.2-1.2H19a1.2,1.2,0,0,1,1.2,1.2A1.2,1.2,0,0,1,19,61.3Z"/><path class="cls-5" d="M31,61.3H18.5a1.2,1.2,0,0,1-1.2-1.2,1.3,1.3,0,0,1,1.2-1.2H31a1.2,1.2,0,0,1,1.2,1.2A1.2,1.2,0,0,1,31,61.3Z"/><path class="cls-5" d="M35.5,55.2H11.9a1.2,1.2,0,1,1,0-2.4H35.5a1.2,1.2,0,0,1,0,2.4Z"/><path class="cls-4" d="M53.1,55.2H34.7a1.2,1.2,0,0,1,0-2.4H53.1a1.2,1.2,0,0,1,0,2.4Z"/><path class="cls-4" d="M12.3,55.2h-.4a1.2,1.2,0,1,1,0-2.4h.4a1.2,1.2,0,0,1,0,2.4Z"/></svg>