<?xml version="1.0" encoding="utf-8"?>
<!-- Generator: Adobe Illustrator 24.0.2, SVG Export Plug-In . SVG Version: 6.00 Build 0)  -->
<svg version="1.1" id="Capa_1" xmlns="http://www.w3.org/2000/svg" xmlns:xlink="http://www.w3.org/1999/xlink" x="0px" y="0px"
	 viewBox="0 0 47 47" style="enable-background:new 0 0 47 47;" xml:space="preserve">
<style type="text/css">
	.st0{fill:none;}
	.st1{fill:#19A500;}
	.st2{fill:#A1D005;}
	.st3{fill:#149352;}
	.st4{fill:none;stroke:#19A500;stroke-width:1.6;stroke-miterlimit:10;}
	.st5{fill:none;stroke:#95A6B1;stroke-width:1.6;stroke-linecap:round;stroke-linejoin:round;stroke-miterlimit:10;}
	.st6{fill:none;stroke:#95A6B1;stroke-width:1.65;stroke-linecap:round;stroke-linejoin:round;stroke-miterlimit:10;}
	.st7{fill:none;stroke:#95A6B1;stroke-width:4;stroke-linecap:round;stroke-linejoin:round;stroke-miterlimit:10;}
	.st8{fill:none;stroke:#EFEF00;stroke-width:1.2;stroke-miterlimit:10;}
	.st9{fill:none;stroke:#FFFFFF;stroke-width:1.1037;stroke-linecap:round;stroke-linejoin:round;stroke-miterlimit:10;}
	.st10{fill:none;stroke:#95A6B1;stroke-width:1.2;stroke-linecap:round;stroke-linejoin:round;stroke-miterlimit:10;}
	.st11{fill:none;stroke:#19A500;stroke-width:1.2;stroke-miterlimit:10;}
	.st12{fill:none;stroke:#EFEF00;stroke-width:1.6;stroke-miterlimit:10;}
	.st13{fill:none;stroke:#FFFFFF;stroke-width:1.6;stroke-linecap:round;stroke-linejoin:round;stroke-miterlimit:10;}
	.st14{fill:none;stroke:#95A6B1;stroke-width:1.2589;stroke-linecap:round;stroke-linejoin:round;stroke-miterlimit:10;}
	.st15{fill:none;stroke:#95A6B1;stroke-width:1.0718;stroke-linecap:round;stroke-linejoin:round;stroke-miterlimit:10;}
	.st16{fill:none;stroke:#95A6B1;stroke-width:1.2212;stroke-linecap:round;stroke-linejoin:round;stroke-miterlimit:10;}
	.st17{fill:none;stroke:#95A6B1;stroke-width:1.2408;stroke-linecap:round;stroke-linejoin:round;stroke-miterlimit:10;}
	.st18{fill:none;stroke:#95A6B1;stroke-width:1.2;stroke-linecap:round;stroke-linejoin:round;}
	.st19{fill:none;stroke:#95A6B1;stroke-width:1.2;stroke-linecap:round;stroke-linejoin:round;stroke-dasharray:1.6013,3.2026;}
	.st20{fill:none;stroke:#95A6B1;stroke-width:1.2;stroke-linecap:round;stroke-linejoin:round;stroke-dasharray:1.7413,3.4827;}
	.st21{fill:none;stroke:#95A6B1;stroke-width:1.2;stroke-linecap:round;stroke-linejoin:round;stroke-dasharray:2.056,4.112;}
	.st22{fill:none;stroke:#95A6B1;stroke-width:1.2275;stroke-linecap:round;stroke-linejoin:round;stroke-miterlimit:10;}
	.st23{fill:none;stroke:#95A6B1;stroke-width:1.2565;stroke-linecap:round;stroke-linejoin:round;stroke-miterlimit:10;}
	.st24{fill:none;stroke:#95A6B1;stroke-width:1.2892;stroke-linecap:round;stroke-linejoin:round;stroke-miterlimit:10;}
	.st25{fill:none;stroke:#95A6B1;stroke-width:1.3462;stroke-linecap:round;stroke-linejoin:round;stroke-miterlimit:10;}
	.st26{fill:none;stroke:#95A6B1;stroke-width:2;stroke-linecap:round;stroke-linejoin:round;stroke-miterlimit:10;}
	.st27{fill:none;stroke:#19A500;stroke-width:1.6;stroke-linecap:round;stroke-linejoin:round;stroke-miterlimit:10;}
	.st28{fill:none;stroke:#FBE957;stroke-width:1.6;stroke-miterlimit:10;}
	.st29{fill:none;stroke:#FBE957;stroke-width:3.1353;stroke-linecap:round;stroke-linejoin:round;stroke-miterlimit:10;}
	.st30{fill:none;stroke:#EED24A;stroke-width:3.1353;stroke-linecap:round;stroke-linejoin:round;stroke-miterlimit:10;}
	.st31{fill:#FFFFFF;stroke:#639E41;stroke-width:1.2;stroke-linecap:round;stroke-linejoin:round;}
	.st32{fill:#FFFFFF;}
	.st33{fill:none;stroke:#1D1D1B;stroke-width:0.5;stroke-linecap:round;stroke-linejoin:round;stroke-miterlimit:10;}
</style>
<g>
	<rect class="st0" width="47" height="47"/>
</g>
<g id="Grupo_12884" transform="translate(-686.543 -905.232)">
	<g id="Grupo_12816">
		<g id="Line_1370">
			<path class="st32" d="M722.53,946.48h-22.98c-0.41,0-0.75-0.34-0.75-0.75s0.34-0.75,0.75-0.75h22.98c0.41,0,0.75,0.34,0.75,0.75
				S722.95,946.48,722.53,946.48z"/>
		</g>
		<g id="Grupo_12814">
			<g id="Group_2600">
				<g id="Path_1227">
					<path class="st32" d="M711.05,927.81c-1.39,0-2.69-0.54-3.68-1.52c-0.98-0.98-1.53-2.29-1.53-3.68l0-5.48
						c0-1.22,0.47-2.37,1.34-3.23c0.86-0.86,2.01-1.34,3.23-1.34h0h1.28c2.52,0,4.56,2.05,4.56,4.56v5.29
						c0.05,2.72-1.96,5.03-4.67,5.37C711.39,927.8,711.22,927.81,711.05,927.81C711.05,927.81,711.05,927.81,711.05,927.81z
						 M710.4,914.06c-0.82,0-1.59,0.32-2.17,0.9c-0.58,0.58-0.9,1.35-0.9,2.16l0,5.48l0,0c0,0.99,0.39,1.92,1.09,2.62
						c0.7,0.7,1.63,1.08,2.62,1.08c0.09-0.04,0.24-0.01,0.36-0.02c1.93-0.24,3.37-1.9,3.34-3.86v-5.3c0-1.69-1.37-3.06-3.06-3.06
						H710.4L710.4,914.06z"/>
				</g>
			</g>
		</g>
		<g id="Grupo_12815">
			<g id="Group_2600-2">
				<g id="Path_1226">
					<path class="st32" d="M722.53,946.48c-0.38,0-0.71-0.29-0.75-0.69l-0.44-5.09c-0.05-0.55-0.07-1.11-0.09-1.67
						c-0.07-1.9-0.13-3.7-1.26-5.11c-0.96-1.09-2.31-1.85-3.77-2.11c-1.6-0.24-3.24-0.35-4.9-0.33h-0.56
						c-1.64-0.02-3.3,0.09-4.92,0.34c-1.11,0.2-2.18,0.69-3.06,1.43c-0.32,0.27-0.79,0.23-1.06-0.09s-0.23-0.79,0.09-1.06
						c1.08-0.91,2.39-1.52,3.79-1.77c1.72-0.26,3.46-0.37,5.17-0.36h0.54c1.72-0.02,3.45,0.1,5.14,0.35
						c1.82,0.32,3.48,1.25,4.68,2.63c1.47,1.83,1.54,3.96,1.62,6.02c0.02,0.54,0.04,1.07,0.08,1.6l0.44,5.09
						c0.04,0.41-0.27,0.78-0.68,0.81C722.57,946.48,722.55,946.48,722.53,946.48z"/>
				</g>
				<g id="Path_1226-2">
					<path class="st32" d="M699.55,946.48c-0.02,0-0.04,0-0.07,0c-0.41-0.04-0.72-0.4-0.68-0.81l0.29-3.41
						c0.04-0.41,0.39-0.71,0.81-0.68c0.41,0.04,0.72,0.4,0.68,0.81l-0.29,3.41C700.26,946.19,699.94,946.48,699.55,946.48z"/>
				</g>
			</g>
		</g>
	</g>
	<g id="Línea_2157">
		<path class="st32" d="M717.77,919.59H704.3c-0.41,0-0.75-0.34-0.75-0.75s0.34-0.75,0.75-0.75h13.47c0.41,0,0.75,0.34,0.75,0.75
			S718.19,919.59,717.77,919.59z"/>
	</g>
	<g id="Línea_2158">
		<path class="st32" d="M711.04,915.68c-0.41,0-0.75-0.34-0.75-0.75v-3.2c0-0.41,0.34-0.75,0.75-0.75s0.75,0.34,0.75,0.75v3.2
			C711.79,915.34,711.46,915.68,711.04,915.68z"/>
	</g>
	<g id="Elipse_2123">
		<path class="st32" d="M700.31,940.96c-1.93,0-3.51-1.57-3.51-3.51s1.57-3.51,3.51-3.51c1.94,0,3.51,1.57,3.51,3.51
			S702.25,940.96,700.31,940.96z M700.31,935.44c-1.11,0-2.01,0.9-2.01,2.01s0.9,2.01,2.01,2.01c1.11,0,2.01-0.9,2.01-2.01
			S701.42,935.44,700.31,935.44z"/>
	</g>
</g>
</svg>
