<?xml version="1.0" encoding="utf-8"?>
<!-- Generator: Adobe Illustrator 24.0.2, SVG Export Plug-In . SVG Version: 6.00 Build 0)  -->
<svg version="1.1" xmlns="http://www.w3.org/2000/svg" xmlns:xlink="http://www.w3.org/1999/xlink" x="0px" y="0px"
	 viewBox="0 0 60 60" style="enable-background:new 0 0 60 60;" xml:space="preserve">
<style type="text/css">
	.st0{fill:#19A500;}
	.st1{fill:none;}
	.st2{fill:none;stroke:#FFFFFF;stroke-width:1.2;stroke-linecap:round;stroke-linejoin:round;stroke-miterlimit:10;}
	.st3{fill:none;stroke:#EFEF00;stroke-width:1.2;stroke-miterlimit:10;}
	.st4{fill:none;stroke:#FFFFFF;stroke-width:1.1181;stroke-linecap:round;stroke-linejoin:round;stroke-miterlimit:10;}
	.st5{fill:none;stroke:#FFFFFF;stroke-width:1.1048;stroke-linecap:round;stroke-linejoin:round;stroke-miterlimit:10;}
	.st6{fill:none;stroke:#FFFFFF;stroke-width:1.1272;stroke-linecap:round;stroke-linejoin:round;stroke-miterlimit:10;}
	.st7{fill:none;stroke:#EFEF00;stroke-width:1.1272;stroke-miterlimit:10;}
	.st8{fill:none;stroke:#FFFFFF;stroke-width:1.1044;stroke-linecap:round;stroke-linejoin:round;stroke-miterlimit:10;}
	.st9{fill:none;stroke:#EFEF00;stroke-width:1.1044;stroke-miterlimit:10;}
</style>
<g id="Capa_2">
	<g>
		<g>
			<path id="Rectángulo_3799_17_" class="st0" d="M30,0L30,0c16.57,0,30,13.43,30,30v0c0,16.57-13.43,30-30,30h0
				C13.43,60,0,46.57,0,30v0C0,13.43,13.43,0,30,0z"/>
		</g>
	</g>
</g>
<g id="Capa_1">
	<g>
		<g>
			<rect id="Rectángulo_3799_7_" class="st1" width="60" height="60"/>
		</g>
	</g>
	<g>
		<polyline class="st4" points="41.98,43.44 38.76,44.14 29.27,42.22 19.37,44.34 9.07,42.22 9.07,15.21 19.47,17.58 21,17.09 		"/>
		<polyline class="st4" points="37.73,16.97 38.96,17.68 49.56,15.26 49.35,35.19 		"/>
		<g>
			<path class="st4" d="M34.52,22.22c-0.54,1.1-1.2,2.15-1.83,3.2c-1.13,1.86-2.26,3.67-3.57,5.47c-1.22-1.86-2.4-3.77-3.54-5.66
				c-1.02-1.69-1.94-3.42-2.44-5.33c-0.51-1.92-0.38-4.26,0.83-5.94c1.26-1.74,3.56-2.56,5.74-2.56c2.25,0,4.49,1.33,5.47,3.36
				c0.83,1.72,0.71,3.77,0.12,5.58C35.09,20.99,34.82,21.61,34.52,22.22z"/>
			<g>
				<circle class="st4" cx="29.35" cy="17.42" r="2.72"/>
			</g>
		</g>
		<polyline class="st4" points="34.7,25.68 38.99,26.64 46.73,24.02 		"/>
		<polyline class="st4" points="12.06,24.43 19.52,27.75 24.59,26.01 		"/>
		<polyline class="st4" points="12.06,33.69 19.52,37 29.19,33.69 38.99,35.9 46.73,33.27 		"/>
		<line class="st4" x1="19.47" y1="17.58" x2="19.47" y2="44.34"/>
		<line class="st4" x1="38.96" y1="17.68" x2="38.96" y2="44.14"/>
		<g>
			<g>
				<circle class="st3" cx="48.07" cy="41.03" r="3.86"/>
			</g>
		</g>
	</g>
</g>
</svg>
