<?xml version="1.0" encoding="utf-8"?>
<!-- Generator: Adobe Illustrator 24.0.2, SVG Export Plug-In . SVG Version: 6.00 Build 0)  -->
<svg version="1.1" xmlns="http://www.w3.org/2000/svg" xmlns:xlink="http://www.w3.org/1999/xlink" x="0px" y="0px"
	 viewBox="0 0 60 60" style="enable-background:new 0 0 60 60;" xml:space="preserve">
<style type="text/css">
	.st0{fill:#19A500;}
	.st1{fill:none;}
	.st2{fill:none;stroke:#FFFFFF;stroke-width:1.2;stroke-linecap:round;stroke-linejoin:round;stroke-miterlimit:10;}
	.st3{fill:none;stroke:#EFEF00;stroke-width:1.2;stroke-miterlimit:10;}
	.st4{fill:none;stroke:#FFFFFF;stroke-width:1.1181;stroke-linecap:round;stroke-linejoin:round;stroke-miterlimit:10;}
	.st5{fill:none;stroke:#FFFFFF;stroke-width:1.1048;stroke-linecap:round;stroke-linejoin:round;stroke-miterlimit:10;}
	.st6{fill:none;stroke:#FFFFFF;stroke-width:1.1272;stroke-linecap:round;stroke-linejoin:round;stroke-miterlimit:10;}
	.st7{fill:none;stroke:#EFEF00;stroke-width:1.1272;stroke-miterlimit:10;}
	.st8{fill:none;stroke:#FFFFFF;stroke-width:1.1044;stroke-linecap:round;stroke-linejoin:round;stroke-miterlimit:10;}
	.st9{fill:none;stroke:#EFEF00;stroke-width:1.1044;stroke-miterlimit:10;}
</style>
<g id="Capa_2">
	<g>
		<g>
			<path id="Rectángulo_3799_18_" class="st0" d="M30,0L30,0c16.57,0,30,13.43,30,30v0c0,16.57-13.43,30-30,30h0
				C13.43,60,0,46.57,0,30v0C0,13.43,13.43,0,30,0z"/>
		</g>
	</g>
</g>
<g id="Capa_1">
	<g>
		<g>
			<rect id="Rectángulo_3799_1_" class="st1" width="60" height="60"/>
		</g>
	</g>
	<g>
		<g>
			<polyline class="st2" points="11.45,45.47 11.45,20.2 47.77,20.2 47.77,27.14 			"/>
			<line class="st2" x1="47.77" y1="38.47" x2="47.77" y2="45.47"/>
			<polyline class="st2" points="20.83,20.12 29.61,15.39 38.74,20.2 			"/>
			<rect x="22.4" y="25.52" class="st2" width="14.17" height="4.47"/>
			<polyline class="st2" points="25.24,45.57 25.24,35.65 34.16,35.65 34.16,45.57 			"/>
			<line class="st2" x1="15.74" y1="20.38" x2="15.74" y2="45.2"/>
			<line class="st2" x1="41.23" y1="20.38" x2="41.23" y2="45.2"/>
			<line class="st2" x1="8.05" y1="45.91" x2="51.23" y2="45.91"/>
			<line class="st2" x1="29.61" y1="15.15" x2="29.61" y2="6.52"/>
			<polyline class="st2" points="29.66,8.54 33.44,8.54 33.44,13.13 29.78,13.13 			"/>
			<polyline class="st2" points="33.5,10.11 37.04,10.11 35.74,12.21 37.04,14.42 33.44,14.47 33.44,12.57 			"/>
		</g>
		<g>
			<g>
				<circle class="st3" cx="47.63" cy="32.81" r="3.86"/>
			</g>
		</g>
	</g>
</g>
</svg>
