<?xml version="1.0" encoding="utf-8"?>
<!-- Generator: Adobe Illustrator 24.0.2, SVG Export Plug-In . SVG Version: 6.00 Build 0)  -->
<svg version="1.1" xmlns="http://www.w3.org/2000/svg" xmlns:xlink="http://www.w3.org/1999/xlink" x="0px" y="0px"
	 viewBox="0 0 60 60" style="enable-background:new 0 0 60 60;" xml:space="preserve">
<style type="text/css">
	.st0{fill:#19A500;}
	.st1{fill:none;}
	.st2{fill:none;stroke:#FFFFFF;stroke-width:1.2;stroke-linecap:round;stroke-linejoin:round;stroke-miterlimit:10;}
	.st3{fill:none;stroke:#EFEF00;stroke-width:1.2;stroke-miterlimit:10;}
	.st4{fill:none;stroke:#FFFFFF;stroke-width:1.1181;stroke-linecap:round;stroke-linejoin:round;stroke-miterlimit:10;}
	.st5{fill:none;stroke:#FFFFFF;stroke-width:1.1048;stroke-linecap:round;stroke-linejoin:round;stroke-miterlimit:10;}
	.st6{fill:none;stroke:#FFFFFF;stroke-width:1.1272;stroke-linecap:round;stroke-linejoin:round;stroke-miterlimit:10;}
	.st7{fill:none;stroke:#EFEF00;stroke-width:1.1272;stroke-miterlimit:10;}
	.st8{fill:none;stroke:#FFFFFF;stroke-width:1.1044;stroke-linecap:round;stroke-linejoin:round;stroke-miterlimit:10;}
	.st9{fill:none;stroke:#EFEF00;stroke-width:1.1044;stroke-miterlimit:10;}
</style>
<g id="Capa_2">
	<g>
		<g>
			<path id="Rectángulo_3799_19_" class="st0" d="M30,0L30,0c16.57,0,30,13.43,30,30v0c0,16.57-13.43,30-30,30h0
				C13.43,60,0,46.57,0,30v0C0,13.43,13.43,0,30,0z"/>
		</g>
	</g>
</g>
<g id="Capa_1">
	<g>
		<g>
			<rect id="Rectángulo_3799_15_" x="0" y="0" class="st1" width="60" height="60"/>
		</g>
	</g>
	<g>
		<g>
			<line class="st2" x1="12.41" y1="35.71" x2="12.41" y2="44.9"/>
			<line class="st2" x1="8.87" y1="44.9" x2="51.8" y2="44.9"/>
			<line class="st2" x1="32.95" y1="30.99" x2="32.95" y2="44.85"/>
			<polyline class="st2" points="24.2,44.97 24.2,34.25 18.8,34.25 18.8,44.97 			"/>
			<line class="st2" x1="41.36" y1="44.81" x2="41.36" y2="16.62"/>
			<line class="st2" x1="37.13" y1="22.46" x2="41.3" y2="25.45"/>
			<line class="st2" x1="45.52" y1="18.24" x2="41.36" y2="20.79"/>
			<line class="st2" x1="45.52" y1="26.37" x2="41.36" y2="28.92"/>
			<polyline class="st2" points="37.21,32.87 22.39,24.64 18.16,26.67 			"/>
			<path class="st2" d="M20.26,25.49C19.5,24.89,19,23.97,19,22.93v-1.12c0-1.6,1.15-2.93,2.67-3.23c-0.11-0.41-0.19-0.83-0.19-1.27
				c0-2.7,2.19-4.9,4.9-4.9c2.7,0,4.9,2.19,4.9,4.9c0,0.44-0.08,0.85-0.18,1.26c1.6,0.22,2.85,1.59,2.85,3.25v1.12
				c0,1.04-0.5,1.96-1.26,2.56h0.17c2.12,0,3.85,1.73,3.85,3.85v0c0,0-0.01,1.9-1.06,2.65"/>
			<line class="st2" x1="26.59" y1="26.6" x2="26.59" y2="19.77"/>
			<path class="st2" d="M31.02,18.64c0.98-4.8,5.23-8.42,10.33-8.42c5.82,0,10.54,4.72,10.54,10.54S47.17,31.3,41.35,31.3
				c-1.61,0-3.13-0.36-4.49-1"/>
		</g>
		<g>
			<g>
				<circle class="st3" cx="12.49" cy="29.44" r="3.86"/>
			</g>
		</g>
	</g>
</g>
</svg>
