<?xml version="1.0" encoding="utf-8"?>
<!-- Generator: Adobe Illustrator 24.0.2, SVG Export Plug-In . SVG Version: 6.00 Build 0)  -->
<svg version="1.1" xmlns="http://www.w3.org/2000/svg" xmlns:xlink="http://www.w3.org/1999/xlink" x="0px" y="0px"
	 viewBox="0 0 60 60" style="enable-background:new 0 0 60 60;" xml:space="preserve">
<style type="text/css">
	.st0{fill:#19A500;}
	.st1{fill:none;}
	.st2{fill:none;stroke:#FFFFFF;stroke-width:1.2;stroke-linecap:round;stroke-linejoin:round;stroke-miterlimit:10;}
	.st3{fill:none;stroke:#EFEF00;stroke-width:1.2;stroke-miterlimit:10;}
	.st4{fill:none;stroke:#FFFFFF;stroke-width:1.1181;stroke-linecap:round;stroke-linejoin:round;stroke-miterlimit:10;}
	.st5{fill:none;stroke:#FFFFFF;stroke-width:1.1048;stroke-linecap:round;stroke-linejoin:round;stroke-miterlimit:10;}
	.st6{fill:none;stroke:#FFFFFF;stroke-width:1.1272;stroke-linecap:round;stroke-linejoin:round;stroke-miterlimit:10;}
	.st7{fill:none;stroke:#EFEF00;stroke-width:1.1272;stroke-miterlimit:10;}
	.st8{fill:none;stroke:#FFFFFF;stroke-width:1.1044;stroke-linecap:round;stroke-linejoin:round;stroke-miterlimit:10;}
	.st9{fill:none;stroke:#EFEF00;stroke-width:1.1044;stroke-miterlimit:10;}
</style>
<g id="Capa_2">
	<g>
		<g>
			<path id="Rectángulo_3799_56_" class="st0" d="M30,0L30,0c16.57,0,30,13.43,30,30v0c0,16.57-13.43,30-30,30h0
				C13.43,60,0,46.57,0,30v0C0,13.43,13.43,0,30,0z"/>
		</g>
	</g>
</g>
<g id="Capa_1">
	<g>
		<g>
			<g>
				<rect id="Rectángulo_3799_26_" class="st1" width="60" height="60"/>
			</g>
		</g>
	</g>
	<g>
		<g>
			<polyline class="st8" points="23.71,36.05 23.71,14.43 36.71,18 36.71,47.44 			"/>
			<polyline class="st8" points="30.42,16.03 30.42,9.29 40.43,6.43 40.43,21.15 47.14,24 47.14,26.85 			"/>
			<circle class="st8" cx="47.21" cy="29.95" r="2.94"/>
			<line class="st8" x1="47.18" y1="33.29" x2="47.18" y2="47.28"/>
			<circle class="st8" cx="23.69" cy="39.15" r="2.94"/>
			<line class="st8" x1="23.86" y1="42.5" x2="23.86" y2="47.28"/>
			<line class="st8" x1="9.56" y1="47.57" x2="50.44" y2="47.57"/>
			<line class="st8" x1="24.01" y1="20.5" x2="28.06" y2="20.5"/>
			<line class="st8" x1="24.01" y1="24.21" x2="29.9" y2="24.21"/>
			<line class="st8" x1="24.01" y1="27.94" x2="27.14" y2="27.94"/>
			<g>
				<line class="st8" x1="47.09" y1="36.49" x2="42.53" y2="36.49"/>
				<line class="st8" x1="47.09" y1="43.65" x2="44.37" y2="43.65"/>
				<line class="st8" x1="47.09" y1="40.01" x2="40.69" y2="40.01"/>
			</g>
			<line class="st8" x1="40.49" y1="12.79" x2="35.13" y2="12.79"/>
			<rect x="29.8" y="30.43" class="st8" width="3.09" height="17.06"/>
		</g>
		<polyline class="st8" points="11.76,28.54 11.76,47.45 17.83,47.45 17.83,28.54 		"/>
		<path class="st8" d="M17.45,36.21h-5.34c-1.34,0-2.44-1.1-2.44-2.44v-7.25c0-1.34,1.1-2.44,2.44-2.44h5.34
			c1.34,0,2.44,1.1,2.44,2.44v7.25C19.9,35.11,18.8,36.21,17.45,36.21z"/>
		<line class="st8" x1="14.81" y1="36.28" x2="14.81" y2="47.34"/>
		<circle class="st9" cx="14.67" cy="19.52" r="2.73"/>
	</g>
</g>
</svg>
