<?xml version="1.0" encoding="utf-8"?>
<!-- Generator: Adobe Illustrator 24.0.2, SVG Export Plug-In . SVG Version: 6.00 Build 0)  -->
<svg version="1.1" xmlns="http://www.w3.org/2000/svg" xmlns:xlink="http://www.w3.org/1999/xlink" x="0px" y="0px"
	 viewBox="0 0 60 60" style="enable-background:new 0 0 60 60;" xml:space="preserve">
<style type="text/css">
	.st0{fill:#19A500;}
	.st1{fill:none;}
	.st2{fill:none;stroke:#FFFFFF;stroke-width:1.2;stroke-linecap:round;stroke-linejoin:round;stroke-miterlimit:10;}
	.st3{fill:none;stroke:#EFEF00;stroke-width:1.2;stroke-miterlimit:10;}
	.st4{fill:none;stroke:#FFFFFF;stroke-width:1.1181;stroke-linecap:round;stroke-linejoin:round;stroke-miterlimit:10;}
	.st5{fill:none;stroke:#FFFFFF;stroke-width:1.1048;stroke-linecap:round;stroke-linejoin:round;stroke-miterlimit:10;}
	.st6{fill:none;stroke:#FFFFFF;stroke-width:1.1272;stroke-linecap:round;stroke-linejoin:round;stroke-miterlimit:10;}
	.st7{fill:none;stroke:#EFEF00;stroke-width:1.1272;stroke-miterlimit:10;}
	.st8{fill:none;stroke:#FFFFFF;stroke-width:1.1044;stroke-linecap:round;stroke-linejoin:round;stroke-miterlimit:10;}
	.st9{fill:none;stroke:#EFEF00;stroke-width:1.1044;stroke-miterlimit:10;}
</style>
<g id="Capa_2">
	<g>
		<g>
			<path id="Rectángulo_3799_57_" class="st0" d="M30,0L30,0c16.57,0,30,13.43,30,30v0c0,16.57-13.43,30-30,30h0
				C13.43,60,0,46.57,0,30v0C0,13.43,13.43,0,30,0z"/>
		</g>
	</g>
</g>
<g id="Capa_1">
	<g>
		<g>
			<g>
				<rect id="Rectángulo_3799_27_" class="st1" width="60" height="60"/>
			</g>
		</g>
	</g>
	<g>
		<g>
			<line class="st6" x1="36.68" y1="45.19" x2="9.02" y2="45.19"/>
			<path class="st6" d="M49.5,22.69c1.5-0.18,2.83-0.25,4.47-0.25"/>
			<path class="st6" d="M20.8,44.93c0,0,5.15-12.86,18.01-19.18"/>
			<line class="st6" x1="16.15" y1="45.1" x2="16.15" y2="31.2"/>
			<line class="st6" x1="13.07" y1="36.12" x2="16.1" y2="38.3"/>
			<line class="st6" x1="19.18" y1="33.05" x2="16.15" y2="34.9"/>
			<circle class="st6" cx="15.91" cy="33.15" r="7.88"/>
			<g>
				<line class="st6" x1="28.46" y1="33.43" x2="28.46" y2="15.55"/>
				<line class="st6" x1="25.38" y1="20.47" x2="28.42" y2="22.65"/>
				<line class="st6" x1="31.5" y1="17.4" x2="28.46" y2="19.25"/>
				<circle class="st6" cx="28.26" cy="18.68" r="7.88"/>
			</g>
		</g>
		<polyline class="st6" points="40.99,25.9 40.99,45.21 47.19,45.21 47.19,25.9 		"/>
		<path class="st6" d="M46.81,33.73h-5.45c-1.37,0-2.49-1.12-2.49-2.49v-7.4c0-1.37,1.12-2.49,2.49-2.49h5.45
			c1.37,0,2.49,1.12,2.49,2.49v7.4C49.3,32.6,48.18,33.73,46.81,33.73z"/>
		<line class="st6" x1="44.11" y1="33.8" x2="44.11" y2="45.09"/>
		<circle class="st7" cx="43.97" cy="16.69" r="2.79"/>
	</g>
</g>
</svg>
