<svg xmlns="http://www.w3.org/2000/svg" width="46.932" height="172.723" viewBox="0 0 46.932 172.723">
  <g id="Grupo_21492" data-name="Grupo 21492" transform="translate(-437.929 -1536.5)">
    <g id="Grupo_21395" data-name="Grupo 21395" transform="translate(1452.808 5517.891) rotate(180)">
      <path id="Trazado_11287" data-name="Trazado 11287" d="M0,0H118.9" transform="translate(991.669 3813.167) rotate(90)" fill="none" stroke="#505d6c" stroke-width="1" stroke-dasharray="4"/>
      <g id="Trazado_11288" data-name="Trazado 11288" transform="translate(996.169 3808.668) rotate(90)" fill="#fff">
        <path d="M 4.5 8 C 2.570090055465698 8 1 6.429910182952881 1 4.5 C 1 2.570090055465698 2.570090055465698 1 4.5 1 C 6.429910182952881 1 8 2.570090055465698 8 4.5 C 8 5.237659931182861 7.764450073242188 5.91195011138916 7.236249923706055 6.68632984161377 L 7.231080055236816 6.693910121917725 L 7.226049900054932 6.701580047607422 C 6.816100120544434 7.326940059661865 5.788169860839844 8 4.5 8 Z" stroke="none"/>
        <path d="M 4.5 2 C 3.121500015258789 2 2 3.121500015258789 2 4.5 C 2 5.878499984741211 3.121500015258789 7 4.5 7 C 5.472350120544434 7 6.175139904022217 6.480679988861084 6.389729976654053 6.153340339660645 L 6.410130023956299 6.122829914093018 C 6.929920196533203 5.360790252685547 7 4.874849796295166 7 4.5 C 7 3.121500015258789 5.878499984741211 2 4.5 2 M 4.5 0 C 6.98528003692627 0 9 2.01471996307373 9 4.5 C 9 5.424520015716553 8.721199989318848 6.283929824829102 8.062370300292969 7.249819755554199 C 7.435930252075195 8.205430030822754 6.060760021209717 9 4.5 9 C 2.01471996307373 9 0 6.98528003692627 0 4.5 C 0 2.01471996307373 2.01471996307373 0 4.5 0 Z" stroke="none" fill="#00af00"/>
      </g>
      <g id="Trazado_19920" data-name="Trazado 19920" transform="translate(996.169 3904.82) rotate(90)" fill="#fff">
        <path d="M 4.5 8 C 2.570090055465698 8 1 6.429910182952881 1 4.5 C 1 2.570090055465698 2.570090055465698 1 4.5 1 C 6.429910182952881 1 8 2.570090055465698 8 4.5 C 8 5.237659931182861 7.764450073242188 5.91195011138916 7.236249923706055 6.68632984161377 L 7.231080055236816 6.693910121917725 L 7.226049900054932 6.701580047607422 C 6.816100120544434 7.326940059661865 5.788169860839844 8 4.5 8 Z" stroke="none"/>
        <path d="M 4.5 2 C 3.121500015258789 2 2 3.121500015258789 2 4.5 C 2 5.878499984741211 3.121500015258789 7 4.5 7 C 5.472350120544434 7 6.175139904022217 6.480679988861084 6.389729976654053 6.153340339660645 L 6.410130023956299 6.122829914093018 C 6.929920196533203 5.360790252685547 7 4.874849796295166 7 4.5 C 7 3.121500015258789 5.878499984741211 2 4.5 2 M 4.5 0 C 6.98528003692627 0 9 2.01471996307373 9 4.5 C 9 5.424520015716553 8.721199989318848 6.283929824829102 8.062370300292969 7.249819755554199 C 7.435930252075195 8.205430030822754 6.060760021209717 9 4.5 9 C 2.01471996307373 9 0 6.98528003692627 0 4.5 C 0 2.01471996307373 2.01471996307373 0 4.5 0 Z" stroke="none" fill="#00af00"/>
      </g>
    </g>
    <g id="Grupo_21403" data-name="Grupo 21403" transform="translate(437.861 1536.5)">
      <g id="Grupo_20781" data-name="Grupo 20781">
        <g id="Grupo_20780" data-name="Grupo 20780">
          <path id="Trazado_19961" data-name="Trazado 19961" d="M16.561,12.946a3.912,3.912,0,1,1-5.185-1.932A3.9,3.9,0,0,1,16.561,12.946Z" fill="none" stroke="#00a800" stroke-linecap="round" stroke-linejoin="round" stroke-width="1.5"/>
          <path id="Trazado_19962" data-name="Trazado 19962" d="M34.018,26.889" fill="none" stroke="#95a6b1" stroke-linecap="round" stroke-linejoin="round" stroke-width="1.5"/>
          <path id="Trazado_19963" data-name="Trazado 19963" d="M20.064,17.06H32.486a1.532,1.532,0,0,1,1.532,1.532v4.582" fill="none" stroke="#95a6b1" stroke-linecap="round" stroke-linejoin="round" stroke-width="1.5"/>
          <line id="Línea_4680" data-name="Línea 4680" y1="4.19" transform="translate(13.193 21.996)" fill="none" stroke="#95a6b1" stroke-linecap="round" stroke-linejoin="round" stroke-width="1.5"/>
          <path id="Trazado_19964" data-name="Trazado 19964" d="M20.064,10.961H28.39a1.022,1.022,0,0,1,1.021,1.022v5.084" fill="none" stroke="#95a6b1" stroke-linecap="round" stroke-linejoin="round" stroke-width="1.5"/>
          <g id="Grupo_20778" data-name="Grupo 20778">
            <path id="Trazado_19965" data-name="Trazado 19965" d="M29.842,24.722l-6.247-3.616a1.2,1.2,0,0,0-1.157,0L9.594,28.164a1.2,1.2,0,0,0-.55,1.454l3.679,11.208" fill="none" stroke="#95a6b1" stroke-linecap="round" stroke-linejoin="round" stroke-width="1.5"/>
            <line id="Línea_4681" data-name="Línea 4681" y1="6.607" x2="1.924" transform="translate(33.516 34.554)" fill="none" stroke="#95a6b1" stroke-linecap="round" stroke-linejoin="round" stroke-width="1.5"/>
            <line id="Línea_4682" data-name="Línea 4682" y2="20.212" transform="translate(23.017 20.949)" fill="none" stroke="#95a6b1" stroke-linecap="round" stroke-linejoin="round" stroke-width="1.5"/>
          </g>
          <circle id="Elipse_3107" data-name="Elipse 3107" cx="1.554" cy="1.554" r="1.554" transform="translate(15.236 27.968)" fill="none" stroke="#95a6b1" stroke-linecap="round" stroke-linejoin="round" stroke-width="1.5"/>
          <path id="Rectángulo_5841" data-name="Rectángulo 5841" d="M.855,0H4.269a.919.919,0,0,1,.919.919V7.438a0,0,0,0,1,0,0H0a0,0,0,0,1,0,0V.855A.855.855,0,0,1,.855,0Z" transform="translate(20.845 3.524)" fill="none" stroke="#95a6b1" stroke-linecap="round" stroke-linejoin="round" stroke-width="1.5"/>
          <g id="Grupo_20779" data-name="Grupo 20779">
            <path id="Trazado_19966" data-name="Trazado 19966" d="M41.208,41.676c-2.213,0-2.213-2.162-4.425-2.162s-2.213,2.162-4.425,2.162-2.213-2.162-4.426-2.162-2.212,2.162-4.424,2.162-2.212-2.162-4.424-2.162-2.215,2.162-4.429,2.162-2.216-2.162-4.431-2.162-2.216,2.162-4.432,2.162" fill="none" stroke="#95a6b1" stroke-linecap="round" stroke-linejoin="round" stroke-width="1.5"/>
          </g>
        </g>
      </g>
      <rect id="Rectángulo_5842" data-name="Rectángulo 5842" width="46.932" height="47" transform="translate(0.068)" fill="none"/>
      <g id="Grupo_20782" data-name="Grupo 20782">
        <circle id="Elipse_3108" data-name="Elipse 3108" cx="5.69" cy="5.69" r="5.69" transform="translate(28.294 23.174)" fill="none" stroke="#95a6b1" stroke-linecap="round" stroke-linejoin="round" stroke-width="1.5"/>
        <path id="Trazado_19967" data-name="Trazado 19967" d="M33.984,26.754v2.11h1.832" fill="none" stroke="#95a6b1" stroke-linecap="round" stroke-linejoin="round" stroke-width="1.5"/>
      </g>
    </g>
  </g>
</svg>
