<?xml version="1.0" encoding="utf-8"?>
<!-- Generator: Adobe Illustrator 24.0.2, SVG Export Plug-In . SVG Version: 6.00 Build 0)  -->
<svg version="1.1" xmlns="http://www.w3.org/2000/svg" xmlns:xlink="http://www.w3.org/1999/xlink" x="0px" y="0px"
	 viewBox="0 0 47 47" style="enable-background:new 0 0 47 47;" xml:space="preserve">
<style type="text/css">
	.st0{display:none;}
	.st1{display:inline;fill:#98A6B0;}
	.st2{fill:none;}
	.st3{fill:#4C9F2E;}
	.st4{fill:#94D040;}
	.st5{fill:none;stroke:#00A800;stroke-width:1.5;stroke-linecap:round;stroke-linejoin:round;stroke-miterlimit:10;}
	.st6{fill:none;stroke:#95A6B1;stroke-width:1.5;stroke-linecap:round;stroke-linejoin:round;}
	.st7{fill:none;stroke:#00A800;stroke-width:1.8;stroke-linecap:round;stroke-linejoin:round;stroke-miterlimit:10;}
	.st8{fill:none;stroke:#95A6B1;stroke-width:1.8;stroke-linecap:round;stroke-linejoin:round;}
	.st9{fill:none;stroke:#FFFFFF;stroke-width:1.5;stroke-linecap:round;stroke-linejoin:round;}
</style>
<g id="BASE" class="st0">
</g>
<g id="Capa_1">
	<g>
		<g>
			<path class="st5" d="M16.56,12.95c0.43,0.93,0.46,1.95,0.16,2.85c-0.33,1-1.06,1.86-2.09,2.33c-1.97,0.9-4.29,0.03-5.18-1.93
				c-0.9-1.97-0.03-4.29,1.93-5.18C13.34,10.12,15.66,10.98,16.56,12.95z"/>
			<path class="st6" d="M20.06,17.06h12.42c0.85,0,1.53,0.69,1.53,1.53v4.58"/>
			<line class="st6" x1="13.19" y1="26.19" x2="13.19" y2="22"/>
			<path class="st6" d="M20.06,10.96h8.33c0.56,0,1.02,0.46,1.02,1.02v5.08"/>
			<g>
				<path class="st6" d="M29.84,24.72l-6.25-3.62c-0.36-0.2-0.8-0.2-1.16,0L9.59,28.16c-0.52,0.28-0.75,0.9-0.55,1.45l3.68,11.21"/>
				<line class="st6" x1="33.52" y1="41.16" x2="35.44" y2="34.55"/>
				<line class="st6" x1="23.02" y1="20.95" x2="23.02" y2="41.16"/>
			</g>
			<circle class="st6" cx="16.79" cy="29.52" r="1.55"/>
			<path class="st6" d="M25.11,3.52H21.7c-0.47,0-0.86,0.38-0.86,0.86v6.58h5.19V4.44C26.03,3.94,25.62,3.52,25.11,3.52z"/>
			<g>
				<path class="st6" d="M41.21,41.68c-2.21,0-2.21-2.16-4.43-2.16s-2.21,2.16-4.43,2.16c-2.21,0-2.21-2.16-4.43-2.16
					c-2.21,0-2.21,2.16-4.42,2.16c-2.21,0-2.21-2.16-4.42-2.16c-2.21,0-2.21,2.16-4.43,2.16c-2.22,0-2.22-2.16-4.43-2.16
					s-2.22,2.16-4.43,2.16"/>
			</g>
		</g>
	</g>
	<rect x="0.07" class="st2" width="46.93" height="47"/>
	<g>
		<circle class="st6" cx="33.98" cy="28.86" r="5.69"/>
		<polyline class="st6" points="33.98,26.75 33.98,28.86 35.82,28.86 		"/>
	</g>
</g>
</svg>
