<?xml version="1.0" encoding="utf-8"?>
<!-- Generator: Adobe Illustrator 24.0.2, SVG Export Plug-In . SVG Version: 6.00 Build 0)  -->
<svg version="1.1" xmlns="http://www.w3.org/2000/svg" xmlns:xlink="http://www.w3.org/1999/xlink" x="0px" y="0px"
	 viewBox="0 0 60 60" style="enable-background:new 0 0 60 60;" xml:space="preserve">
<style type="text/css">
	.st0{fill:#19A500;}
	.st1{fill:none;}
	.st2{fill:none;stroke:#FFFFFF;stroke-width:1.0892;stroke-linecap:round;stroke-linejoin:round;stroke-miterlimit:10;}
	.st3{fill:none;stroke:#EFEF00;stroke-width:1.2;stroke-miterlimit:10;}
	.st4{fill:none;stroke:#FFFFFF;stroke-width:1.1181;stroke-linecap:round;stroke-linejoin:round;stroke-miterlimit:10;}
	.st5{fill:none;stroke:#FFFFFF;stroke-width:1.0849;stroke-linecap:round;stroke-linejoin:round;stroke-miterlimit:10;}
	.st6{fill:none;stroke:#FFFFFF;stroke-width:1.2;stroke-linecap:round;stroke-linejoin:round;stroke-miterlimit:10;}
</style>
<g id="Capa_2">
	<g>
		<g>
			<path id="Rectángulo_3799_10_" class="st0" d="M30,0L30,0c16.57,0,30,13.43,30,30v0c0,16.57-13.43,30-30,30h0
				C13.43,60,0,46.57,0,30v0C0,13.43,13.43,0,30,0z"/>
		</g>
	</g>
</g>
<g id="Capa_1">
	<g>
		<rect id="Rectángulo_3799_8_" class="st1" width="60" height="60"/>
	</g>
	<g>
		<g>
			<polyline class="st2" points="36.08,44.63 36.08,25.1 29.82,25.1 29.82,44.63 			"/>
			<polyline class="st2" points="21.42,24.22 25.61,24.22 25.61,29.33 29.17,29.33 			"/>
			<polyline class="st2" points="10.05,44.65 10.05,34.08 15.27,34.08 15.27,30.31 			"/>
			<polyline class="st2" points="32.61,25.06 32.61,17.34 41.88,17.34 41.88,44.89 			"/>
			<polyline class="st2" points="42.35,35.03 45.2,35.03 45.2,22.44 49.71,28.14 49.71,44.41 			"/>
			<line class="st2" x1="7.89" y1="45.31" x2="52.11" y2="45.31"/>
			<circle class="st2" cx="38.79" cy="9" r="2.59"/>
			<line class="st2" x1="45.51" y1="39.07" x2="49.75" y2="39.07"/>
			<line class="st2" x1="45.51" y1="41.93" x2="49.75" y2="41.93"/>
			<line class="st2" x1="10.62" y1="37.27" x2="14.86" y2="37.27"/>
			<line class="st2" x1="10.62" y1="40.12" x2="14.86" y2="40.12"/>
			<line class="st2" x1="38.47" y1="20.29" x2="41.65" y2="20.29"/>
			<line class="st2" x1="38.47" y1="22.87" x2="41.65" y2="22.87"/>
		</g>
		<g>
			<g>
				<circle class="st3" cx="15.54" cy="24.41" r="3.86"/>
			</g>
		</g>
	</g>
</g>
</svg>
