<?xml version="1.0" encoding="utf-8"?>
<!-- Generator: Adobe Illustrator 24.0.2, SVG Export Plug-In . SVG Version: 6.00 Build 0)  -->
<svg version="1.1" xmlns="http://www.w3.org/2000/svg" xmlns:xlink="http://www.w3.org/1999/xlink" x="0px" y="0px"
	 viewBox="0 0 60 60" style="enable-background:new 0 0 60 60;" xml:space="preserve">
<style type="text/css">
	.st0{fill:#19A500;}
	.st1{fill:none;}
	.st2{fill:none;stroke:#FFFFFF;stroke-width:1.2;stroke-linecap:round;stroke-linejoin:round;stroke-miterlimit:10;}
	.st3{fill:none;stroke:#EFEF00;stroke-width:1.2;stroke-miterlimit:10;}
	.st4{fill:none;stroke:#FFFFFF;stroke-width:1.1181;stroke-linecap:round;stroke-linejoin:round;stroke-miterlimit:10;}
	.st5{fill:none;stroke:#FFFFFF;stroke-width:1.1048;stroke-linecap:round;stroke-linejoin:round;stroke-miterlimit:10;}
</style>
<g id="Capa_2">
	<g>
		<g>
			<path id="Rectángulo_3799_20_" class="st0" d="M30,0L30,0c16.57,0,30,13.43,30,30v0c0,16.57-13.43,30-30,30h0
				C13.43,60,0,46.57,0,30v0C0,13.43,13.43,0,30,0z"/>
		</g>
	</g>
</g>
<g id="Capa_1">
	<g>
		<g>
			<rect id="Rectángulo_3799_16_" class="st1" width="60" height="60"/>
		</g>
	</g>
	<g>
		<g>
			<line class="st2" x1="52.09" y1="43.97" x2="7.91" y2="43.97"/>
			<line class="st2" x1="12.77" y1="43.84" x2="14.83" y2="39.19"/>
			<polyline class="st2" points="47.37,43.73 37.21,18.17 33.9,20.8 28.27,7.55 20.26,26.39 			"/>
		</g>
		<line class="st2" x1="33.15" y1="30" x2="44.45" y2="30"/>
		<line class="st2" x1="40.07" y1="34.66" x2="46.18" y2="34.66"/>
		<g>
			<g>
				<circle class="st3" cx="17.71" cy="32.74" r="3.86"/>
			</g>
		</g>
	</g>
</g>
</svg>
