<?xml version="1.0" encoding="utf-8"?>
<!-- Generator: Adobe Illustrator 24.0.2, SVG Export Plug-In . SVG Version: 6.00 Build 0)  -->
<svg version="1.1" xmlns="http://www.w3.org/2000/svg" xmlns:xlink="http://www.w3.org/1999/xlink" x="0px" y="0px"
	 viewBox="0 0 60 60" style="enable-background:new 0 0 60 60;" xml:space="preserve">
<style type="text/css">
	.st0{fill:#19A500;}
	.st1{fill:none;}
	.st2{fill:none;stroke:#FFFFFF;stroke-width:1.2;stroke-linecap:round;stroke-linejoin:round;stroke-miterlimit:10;}
	.st3{fill:#FFFFFF;}
	.st4{fill:#EFEF00;}
</style>
<g id="Capa_2">
	<g>
		<g>
			<g id="Rectángulo_3799_20_">
				<path class="st0" d="M30,0L30,0c16.57,0,30,13.43,30,30v0c0,16.57-13.43,30-30,30h0C13.43,60,0,46.57,0,30v0
					C0,13.43,13.43,0,30,0z"/>
			</g>
		</g>
	</g>
</g>
<g id="Capa_1">
	<g>
		<g>
			<g id="Rectángulo_3799_16_">
				<rect class="st1" width="60" height="60"/>
			</g>
		</g>
	</g>
	<g>
		<g>
			<g>
				<path class="st3" d="M52.09,44.57H7.91c-0.33,0-0.6-0.27-0.6-0.6s0.27-0.6,0.6-0.6h44.19c0.33,0,0.6,0.27,0.6,0.6
					S52.43,44.57,52.09,44.57z"/>
			</g>
			<g>
				<path class="st3" d="M12.77,44.44c-0.08,0-0.16-0.02-0.24-0.05c-0.3-0.13-0.44-0.49-0.31-0.79l2.06-4.65
					c0.13-0.3,0.49-0.44,0.79-0.31c0.3,0.13,0.44,0.49,0.31,0.79l-2.06,4.65C13.22,44.31,13,44.44,12.77,44.44z"/>
			</g>
			<g>
				<path class="st3" d="M47.37,44.33c-0.24,0-0.46-0.14-0.56-0.38l-9.86-24.8l-2.68,2.13c-0.15,0.12-0.34,0.16-0.52,0.11
					c-0.18-0.05-0.33-0.17-0.4-0.35L28.27,9.08l-7.46,17.54c-0.13,0.3-0.48,0.45-0.79,0.32c-0.31-0.13-0.45-0.48-0.32-0.79
					l8.01-18.84c0.19-0.44,0.92-0.44,1.1,0l5.32,12.52l2.69-2.14c0.15-0.12,0.34-0.16,0.53-0.11c0.18,0.05,0.33,0.18,0.4,0.36
					L47.93,43.5c0.12,0.31-0.03,0.66-0.34,0.78C47.52,44.31,47.44,44.33,47.37,44.33z"/>
			</g>
		</g>
		<g>
			<path class="st3" d="M44.45,30.6H33.15c-0.33,0-0.6-0.27-0.6-0.6s0.27-0.6,0.6-0.6h11.29c0.33,0,0.6,0.27,0.6,0.6
				S44.78,30.6,44.45,30.6z"/>
		</g>
		<g>
			<path class="st3" d="M46.18,35.26h-6.11c-0.33,0-0.6-0.27-0.6-0.6s0.27-0.6,0.6-0.6h6.11c0.33,0,0.6,0.27,0.6,0.6
				S46.51,35.26,46.18,35.26z"/>
		</g>
		<g>
			<g>
				<g>
					<path class="st4" d="M17.71,37.2c-0.61,0-1.23-0.13-1.82-0.39c-2.24-1.01-3.25-3.65-2.24-5.89c1.01-2.24,3.65-3.25,5.89-2.24
						c1.09,0.49,1.92,1.37,2.34,2.48c0.42,1.11,0.39,2.32-0.1,3.41C21.04,36.22,19.41,37.2,17.71,37.2z M17.72,29.48
						c-1.24,0-2.43,0.72-2.98,1.92c-0.73,1.64,0,3.57,1.64,4.31c1.64,0.74,3.57,0,4.31-1.64c0.36-0.79,0.38-1.68,0.07-2.49
						c-0.31-0.81-0.92-1.46-1.71-1.81C18.62,29.58,18.16,29.48,17.72,29.48z"/>
				</g>
			</g>
		</g>
	</g>
</g>
</svg>
