<?xml version="1.0" encoding="utf-8"?>
<!-- Generator: Adobe Illustrator 24.0.2, SVG Export Plug-In . SVG Version: 6.00 Build 0)  -->
<svg version="1.1" xmlns="http://www.w3.org/2000/svg" xmlns:xlink="http://www.w3.org/1999/xlink" x="0px" y="0px"
	 viewBox="0 0 60 60" style="enable-background:new 0 0 60 60;" xml:space="preserve">
<style type="text/css">
	.st0{fill:#19A500;}
	.st1{fill:none;}
	.st2{fill:none;stroke:#FFFFFF;stroke-width:1.2;stroke-linecap:round;stroke-linejoin:round;stroke-miterlimit:10;}
	.st3{fill:#FFFFFF;}
	.st4{fill:#EFEF00;}
</style>
<g id="Capa_2">
	<g>
		<g>
			<g id="Rectángulo_3799_55_">
				<path class="st0" d="M30,0L30,0c16.57,0,30,13.43,30,30v0c0,16.57-13.43,30-30,30h0C13.43,60,0,46.57,0,30v0
					C0,13.43,13.43,0,30,0z"/>
			</g>
		</g>
	</g>
</g>
<g id="Capa_1">
	<g>
		<g>
			<g>
				<g id="Rectángulo_3799_22_">
					<rect class="st1" width="60" height="60"/>
				</g>
			</g>
		</g>
	</g>
	<g>
		<g>
			<g>
				<path class="st3" d="M51.71,46.79c-0.18,0-0.36-0.08-0.47-0.23c-0.94-1.21-1.99-2.35-3.12-3.37c-0.25-0.22-0.26-0.6-0.04-0.85
					c0.23-0.24,0.6-0.26,0.85-0.04c1.18,1.07,2.28,2.26,3.26,3.52c0.2,0.26,0.16,0.64-0.11,0.84
					C51.97,46.74,51.84,46.79,51.71,46.79z"/>
			</g>
			<g>
				<path class="st3" d="M41.91,38.89c-0.09,0-0.18-0.02-0.26-0.06c-0.22-0.1-0.43-0.21-0.65-0.3c-2.11-0.95-4.32-1.62-6.57-2
					c-0.33-0.06-0.55-0.37-0.49-0.69c0.06-0.33,0.36-0.55,0.69-0.49c2.35,0.4,4.66,1.1,6.86,2.09c0.23,0.1,0.46,0.21,0.68,0.32
					c0.3,0.14,0.42,0.5,0.28,0.8C42.35,38.76,42.13,38.89,41.91,38.89z"/>
			</g>
			<g>
				<path class="st3" d="M18.09,38.8c-0.22,0-0.44-0.13-0.54-0.34c-0.14-0.3-0.01-0.66,0.29-0.8c2.21-1.04,4.54-1.8,6.94-2.24
					c0.32-0.06,0.64,0.15,0.7,0.48c0.06,0.33-0.15,0.64-0.48,0.7c-2.3,0.43-4.53,1.15-6.65,2.15C18.27,38.79,18.18,38.8,18.09,38.8z
					"/>
			</g>
			<g>
				<path class="st3" d="M8.29,46.57c-0.13,0-0.26-0.04-0.37-0.13c-0.26-0.21-0.3-0.58-0.1-0.84c0.85-1.07,1.79-2.09,2.79-3.03
					c0.24-0.23,0.62-0.21,0.85,0.03c0.23,0.24,0.21,0.62-0.03,0.85c-0.96,0.9-1.86,1.88-2.67,2.9C8.64,46.49,8.47,46.57,8.29,46.57z
					"/>
			</g>
		</g>
		<g>
			<g>
				<path class="st3" d="M17.91,45.44h-6.59c-0.33,0-0.6-0.27-0.6-0.6V24.28c0-0.33,0.27-0.6,0.6-0.6s0.6,0.27,0.6,0.6v19.95h5.39
					V24.28c0-0.33,0.27-0.6,0.6-0.6s0.6,0.27,0.6,0.6v20.55C18.51,45.17,18.25,45.44,17.91,45.44z"/>
			</g>
			<g>
				<path class="st3" d="M48.13,33.22h-5.8c-1.79,0-3.25-1.46-3.25-3.25v-7.88c0-1.79,1.46-3.25,3.25-3.25h5.8
					c1.79,0,3.25,1.46,3.25,3.25v7.88C51.38,31.76,49.92,33.22,48.13,33.22z M42.32,20.03c-1.13,0-2.05,0.92-2.05,2.05v7.88
					c0,1.13,0.92,2.05,2.05,2.05h5.8c1.13,0,2.06-0.92,2.06-2.05v-7.88c0-1.13-0.92-2.05-2.06-2.05H42.32z"/>
			</g>
			<g>
				<path class="st3" d="M17.51,33.22h-5.8c-1.79,0-3.25-1.46-3.25-3.25v-7.88c0-1.79,1.46-3.25,3.25-3.25h5.8
					c1.79,0,3.25,1.46,3.25,3.25v7.88C20.76,31.76,19.3,33.22,17.51,33.22z M11.71,20.03c-1.13,0-2.05,0.92-2.05,2.05v7.88
					c0,1.13,0.92,2.05,2.05,2.05h5.8c1.13,0,2.05-0.92,2.05-2.05v-7.88c0-1.13-0.92-2.05-2.05-2.05H11.71z"/>
			</g>
			<g>
				<path class="st3" d="M45.15,28.21c-0.33,0-0.6-0.27-0.6-0.6v-4.92l-1.5-2.72c-0.16-0.29-0.05-0.66,0.24-0.82
					c0.29-0.16,0.66-0.05,0.82,0.24l1.58,2.86c0.05,0.09,0.07,0.19,0.07,0.29v5.08C45.75,27.94,45.48,28.21,45.15,28.21z"/>
			</g>
			<g>
				<path class="st3" d="M45.15,23.13c-0.1,0-0.21-0.03-0.3-0.08c-0.29-0.17-0.38-0.53-0.22-0.82l1.79-3.06
					c0.17-0.29,0.53-0.38,0.82-0.22c0.29,0.17,0.38,0.53,0.22,0.82l-1.79,3.06C45.55,23.03,45.35,23.13,45.15,23.13z"/>
			</g>
			<g>
				<path class="st3" d="M48.33,45.56h-6.32c-0.33,0-0.6-0.27-0.6-0.6V22.9c0-0.33,0.27-0.6,0.6-0.6s0.6,0.27,0.6,0.6v21.46h5.12
					V22.9c0-0.33,0.27-0.6,0.6-0.6s0.6,0.27,0.6,0.6v22.06C48.93,45.29,48.66,45.56,48.33,45.56z"/>
			</g>
			<g>
				<path class="st3" d="M14.64,45.31c-0.33,0-0.6-0.27-0.6-0.6V32.69c0-0.33,0.27-0.6,0.6-0.6s0.6,0.27,0.6,0.6v12.02
					C15.24,45.04,14.97,45.31,14.64,45.31z"/>
			</g>
			<g>
				<path class="st3" d="M45.3,45.46c-0.33,0-0.6-0.27-0.6-0.6V32.65c0-0.33,0.27-0.6,0.6-0.6s0.6,0.27,0.6,0.6v12.21
					C45.89,45.19,45.63,45.46,45.3,45.46z"/>
			</g>
			<g>
				<path class="st3" d="M14.49,18.05c-1.97,0-3.57-1.6-3.57-3.57c0-1.97,1.6-3.57,3.57-3.57s3.57,1.6,3.57,3.57
					C18.05,16.45,16.45,18.05,14.49,18.05z M14.49,12.12c-1.31,0-2.37,1.06-2.37,2.37s1.06,2.37,2.37,2.37s2.37-1.06,2.37-2.37
					S15.79,12.12,14.49,12.12z"/>
			</g>
			<g>
				<path class="st3" d="M17.07,14.24h-5.16c-0.33,0-0.6-0.27-0.6-0.6s0.27-0.6,0.6-0.6h5.16c0.33,0,0.6,0.27,0.6,0.6
					S17.4,14.24,17.07,14.24z"/>
			</g>
			<g>
				<path class="st3" d="M14.55,14.24c-0.33,0-0.6-0.27-0.6-0.6V9.81c0-0.33,0.27-0.6,0.6-0.6s0.6,0.27,0.6,0.6v3.82
					C15.15,13.97,14.88,14.24,14.55,14.24z"/>
			</g>
			<g>
				<g>
					<path class="st3" d="M34.56,38.45h-9.15c-0.17,0-0.34-0.07-0.45-0.2c-0.11-0.13-0.17-0.3-0.15-0.47l1.45-11.54l0-6.52
						c0-0.33,0.27-0.6,0.6-0.6s0.6,0.27,0.6,0.6v6.59l-1.37,10.94h7.79l-1.38-10.77l0-6.61c0-0.33,0.27-0.6,0.6-0.6
						s0.6,0.27,0.6,0.6v6.54l1.46,11.37c0.02,0.17-0.03,0.34-0.14,0.47C34.89,38.37,34.73,38.45,34.56,38.45z"/>
				</g>
				<g>
					<path class="st3" d="M32.82,33.22h-5.8c-1.79,0-3.25-1.46-3.25-3.25v-7.88c0-1.79,1.46-3.25,3.25-3.25h5.8
						c1.79,0,3.25,1.46,3.25,3.25v7.88C36.07,31.76,34.61,33.22,32.82,33.22z M27.01,20.03c-1.13,0-2.06,0.92-2.06,2.05v7.88
						c0,1.13,0.92,2.05,2.06,2.05h5.8c1.13,0,2.05-0.92,2.05-2.05v-7.88c0-1.13-0.92-2.05-2.05-2.05H27.01z"/>
				</g>
				<g>
					<path class="st3" d="M33.15,45.41h-6.43c-0.33,0-0.6-0.27-0.6-0.6v-6.97c0-0.33,0.27-0.6,0.6-0.6s0.6,0.27,0.6,0.6v6.37h5.23
						v-6.32c0-0.33,0.27-0.6,0.6-0.6s0.6,0.27,0.6,0.6v6.92C33.75,45.14,33.48,45.41,33.15,45.41z"/>
				</g>
				<g>
					<path class="st3" d="M30.01,45.2c-0.33,0-0.6-0.27-0.6-0.6v-6.58c0-0.33,0.27-0.6,0.6-0.6s0.6,0.27,0.6,0.6v6.58
						C30.61,44.93,30.35,45.2,30.01,45.2z"/>
				</g>
				<g>
					<path class="st3" d="M33.09,26.91h-6.23c-0.33,0-0.6-0.27-0.6-0.6s0.27-0.6,0.6-0.6h6.23c0.33,0,0.6,0.27,0.6,0.6
						S33.42,26.91,33.09,26.91z"/>
				</g>
				<g>
					<path class="st4" d="M29.8,18.05c-1.97,0-3.57-1.6-3.57-3.57c0-1.97,1.6-3.57,3.57-3.57s3.57,1.6,3.57,3.57
						C33.37,16.45,31.77,18.05,29.8,18.05z M29.8,12.12c-1.31,0-2.37,1.06-2.37,2.37s1.06,2.37,2.37,2.37s2.37-1.06,2.37-2.37
						S31.11,12.12,29.8,12.12z"/>
				</g>
			</g>
			<g>
				<path class="st3" d="M45.17,18.05c-1.97,0-3.57-1.6-3.57-3.57c0-1.97,1.6-3.57,3.57-3.57s3.57,1.6,3.57,3.57
					C48.73,16.45,47.13,18.05,45.17,18.05z M45.17,12.12c-1.31,0-2.37,1.06-2.37,2.37s1.06,2.37,2.37,2.37s2.37-1.06,2.37-2.37
					S46.47,12.12,45.17,12.12z"/>
			</g>
		</g>
	</g>
</g>
</svg>
