<?xml version="1.0" encoding="utf-8"?>
<!-- Generator: Adobe Illustrator 24.0.2, SVG Export Plug-In . SVG Version: 6.00 Build 0)  -->
<svg version="1.1" xmlns="http://www.w3.org/2000/svg" xmlns:xlink="http://www.w3.org/1999/xlink" x="0px" y="0px"
	 viewBox="0 0 60 60" style="enable-background:new 0 0 60 60;" xml:space="preserve">
<style type="text/css">
	.st0{fill:#19A500;}
	.st1{fill:none;}
	.st2{fill:none;stroke:#FFFFFF;stroke-width:1.2;stroke-linecap:round;stroke-linejoin:round;stroke-miterlimit:10;}
	.st3{fill:#FFFFFF;}
	.st4{fill:#EFEF00;}
</style>
<g id="Capa_2">
	<g>
		<g>
			<g id="Rectángulo_3799_19_">
				<path class="st0" d="M30,0L30,0c16.57,0,30,13.43,30,30v0c0,16.57-13.43,30-30,30h0C13.43,60,0,46.57,0,30v0
					C0,13.43,13.43,0,30,0z"/>
			</g>
		</g>
	</g>
</g>
<g id="Capa_1">
	<g>
		<g>
			<g id="Rectángulo_3799_15_">
				<rect x="0" y="0" class="st1" width="60" height="60"/>
			</g>
		</g>
	</g>
	<g>
		<g>
			<g>
				<path class="st3" d="M12.41,45.5c-0.33,0-0.6-0.27-0.6-0.6v-9.19c0-0.33,0.27-0.6,0.6-0.6s0.6,0.27,0.6,0.6v9.19
					C13.01,45.23,12.74,45.5,12.41,45.5z"/>
			</g>
			<g>
				<path class="st3" d="M51.8,45.5H8.87c-0.33,0-0.6-0.27-0.6-0.6s0.27-0.6,0.6-0.6H51.8c0.33,0,0.6,0.27,0.6,0.6
					S52.13,45.5,51.8,45.5z"/>
			</g>
			<g>
				<path class="st3" d="M32.95,45.45c-0.33,0-0.6-0.27-0.6-0.6V31c0-0.33,0.27-0.6,0.6-0.6s0.6,0.27,0.6,0.6v13.86
					C33.55,45.18,33.28,45.45,32.95,45.45z"/>
			</g>
			<g>
				<path class="st3" d="M24.2,45.57c-0.33,0-0.6-0.27-0.6-0.6V34.85h-4.2v10.11c0,0.33-0.27,0.6-0.6,0.6s-0.6-0.27-0.6-0.6V34.25
					c0-0.33,0.27-0.6,0.6-0.6h5.4c0.33,0,0.6,0.27,0.6,0.6v10.71C24.8,45.3,24.53,45.57,24.2,45.57z"/>
			</g>
			<g>
				<path class="st3" d="M41.36,45.41c-0.33,0-0.6-0.27-0.6-0.6v-28.2c0-0.33,0.27-0.6,0.6-0.6s0.6,0.27,0.6,0.6v28.2
					C41.96,45.14,41.69,45.41,41.36,45.41z"/>
			</g>
			<g>
				<path class="st3" d="M41.29,26.05c-0.12,0-0.24-0.04-0.35-0.11l-4.17-2.99c-0.27-0.19-0.33-0.57-0.14-0.84
					c0.19-0.27,0.56-0.33,0.84-0.14l4.17,2.99c0.27,0.19,0.33,0.57,0.14,0.84C41.67,25.96,41.48,26.05,41.29,26.05z"/>
			</g>
			<g>
				<path class="st3" d="M41.36,21.39c-0.2,0-0.4-0.1-0.51-0.29c-0.17-0.28-0.08-0.65,0.2-0.82l4.17-2.55
					c0.28-0.17,0.65-0.08,0.83,0.2c0.17,0.28,0.08,0.65-0.2,0.82l-4.17,2.55C41.57,21.36,41.46,21.39,41.36,21.39z"/>
			</g>
			<g>
				<path class="st3" d="M41.36,29.52c-0.2,0-0.4-0.1-0.51-0.29c-0.17-0.28-0.08-0.65,0.2-0.82l4.17-2.55
					c0.28-0.17,0.65-0.08,0.83,0.2c0.17,0.28,0.08,0.65-0.2,0.82l-4.17,2.55C41.57,29.49,41.46,29.52,41.36,29.52z"/>
			</g>
			<g>
				<path class="st3" d="M37.21,33.47c-0.1,0-0.2-0.02-0.29-0.08l-14.55-8.08l-3.95,1.89c-0.3,0.14-0.66,0.02-0.8-0.28
					c-0.14-0.3-0.02-0.66,0.28-0.8l4.23-2.03c0.17-0.08,0.38-0.08,0.55,0.02l14.82,8.23c0.29,0.16,0.39,0.53,0.23,0.82
					C37.63,33.36,37.42,33.47,37.21,33.47z"/>
			</g>
			<g>
				<path class="st3" d="M35.65,32.59c-0.19,0-0.37-0.09-0.49-0.25c-0.19-0.27-0.13-0.64,0.14-0.84c0.65-0.46,0.8-1.72,0.81-2.16
					c0-1.79-1.46-3.25-3.25-3.25h-0.17c-0.25,0-0.48-0.16-0.57-0.4s-0.01-0.51,0.19-0.67c0.65-0.52,1.03-1.29,1.03-2.09v-1.12
					c0-1.33-1-2.47-2.33-2.65c-0.17-0.02-0.32-0.12-0.42-0.26c-0.1-0.14-0.12-0.32-0.08-0.49c0.11-0.42,0.16-0.77,0.16-1.1
					c0-2.37-1.93-4.3-4.3-4.3s-4.3,1.93-4.3,4.3c0,0.34,0.05,0.69,0.17,1.12c0.04,0.16,0.02,0.33-0.07,0.47
					c-0.09,0.14-0.23,0.24-0.39,0.27c-1.27,0.24-2.18,1.35-2.18,2.64v1.12c0,0.81,0.38,1.57,1.03,2.09c0.26,0.21,0.3,0.58,0.09,0.84
					c-0.21,0.26-0.58,0.3-0.84,0.1c-0.94-0.75-1.48-1.86-1.48-3.03v-1.12c0-1.65,1.04-3.1,2.56-3.65c-0.05-0.3-0.08-0.57-0.08-0.85
					c0-3.03,2.46-5.5,5.5-5.5s5.5,2.47,5.5,5.5c0,0.26-0.02,0.52-0.07,0.8c1.6,0.5,2.74,1.99,2.74,3.7v1.12
					c0,0.75-0.22,1.47-0.62,2.09c1.94,0.48,3.39,2.23,3.39,4.32c0,0.23-0.04,2.23-1.31,3.13C35.9,32.55,35.77,32.59,35.65,32.59z"/>
			</g>
			<g>
				<path class="st3" d="M26.59,27.2c-0.33,0-0.6-0.27-0.6-0.6v-6.83c0-0.33,0.27-0.6,0.6-0.6s0.6,0.27,0.6,0.6v6.83
					C27.19,26.93,26.92,27.2,26.59,27.2z"/>
			</g>
			<g>
				<path class="st3" d="M41.35,31.9c-1.66,0-3.26-0.36-4.75-1.06c-0.3-0.14-0.43-0.5-0.29-0.8c0.14-0.3,0.5-0.43,0.8-0.29
					c1.33,0.63,2.76,0.95,4.24,0.95c5.48,0,9.94-4.46,9.94-9.94s-4.46-9.94-9.94-9.94c-4.7,0-8.8,3.34-9.74,7.94
					c-0.07,0.32-0.39,0.53-0.71,0.47c-0.33-0.07-0.53-0.38-0.47-0.71c1.05-5.15,5.64-8.9,10.91-8.9c6.14,0,11.14,5,11.14,11.14
					S47.49,31.9,41.35,31.9z"/>
			</g>
		</g>
		<g>
			<g>
				<g>
					<path class="st4" d="M12.48,33.9c-0.61,0-1.23-0.13-1.82-0.39c-1.09-0.49-1.92-1.37-2.34-2.48c-0.42-1.11-0.39-2.32,0.1-3.41
						c0.49-1.09,1.37-1.92,2.48-2.34s2.32-0.39,3.41,0.1c2.24,1.01,3.25,3.65,2.24,5.89C15.81,32.92,14.19,33.9,12.48,33.9z
						 M12.49,26.18c-0.39,0-0.78,0.07-1.16,0.21c-0.81,0.31-1.46,0.92-1.81,1.71c-0.36,0.79-0.38,1.68-0.07,2.49
						c0.31,0.81,0.92,1.46,1.71,1.81c1.64,0.74,3.57,0,4.31-1.64c0.74-1.64,0-3.57-1.64-4.31C13.4,26.28,12.95,26.18,12.49,26.18z"
						/>
				</g>
			</g>
		</g>
	</g>
</g>
</svg>
