<svg id="Capa_1" data-name="Capa 1" xmlns="http://www.w3.org/2000/svg" viewBox="0 0 47 47"><defs><style>.cls-1{fill:none;}.cls-2{fill:#fff;}</style></defs><title>icono_menu-ubicacion</title><rect class="cls-1" width="47" height="47"/><g id="Grupo_12866" data-name="Grupo 12866"><g id="Trazado_11509" data-name="Trazado 11509"><path class="cls-2" d="M23.5,19.5A6.4,6.4,0,0,1,19,8.6a6.3,6.3,0,0,1,4.5-1.8,6.4,6.4,0,0,1,6.4,6.3h0a6.4,6.4,0,0,1-6.4,6.4Zm0-11.3A5.8,5.8,0,0,0,20,9.7a4.8,4.8,0,0,0-1.4,3.4A4.9,4.9,0,0,0,23.5,18h0a4.9,4.9,0,0,0,4.9-4.9h0A4.9,4.9,0,0,0,23.5,8.2Zm6.4,4.9Z"/></g><g id="Rectángulo_4518" data-name="Rectángulo 4518"><path class="cls-2" d="M14,40.2H5.9a.7.7,0,0,1-.7-.7V31.4a.7.7,0,0,1,.7-.7H14a.7.7,0,0,1,.7.7v8.1A.7.7,0,0,1,14,40.2ZM6.7,38.8h6.5V32.2H6.7Z"/></g><g id="Rectángulo_4519" data-name="Rectángulo 4519"><path class="cls-2" d="M27.5,40.2h-8a.8.8,0,0,1-.8-.7V31.4a.8.8,0,0,1,.8-.7h8a.8.8,0,0,1,.8.7v8.1A.8.8,0,0,1,27.5,40.2Zm-7.3-1.4h6.6V32.2H20.2Z"/></g><g id="Rectángulo_4520" data-name="Rectángulo 4520"><path class="cls-2" d="M41.1,40.2H33a.7.7,0,0,1-.7-.7V31.4a.7.7,0,0,1,.7-.7h8.1a.7.7,0,0,1,.7.7v8.1A.7.7,0,0,1,41.1,40.2Zm-7.3-1.4h6.5V32.2H33.8Z"/></g><g id="Línea_2121" data-name="Línea 2121"><path class="cls-2" d="M23.5,23.2h-5a.7.7,0,0,1-.7-.7.7.7,0,0,1,.7-.8h5a.7.7,0,0,1,.7.8A.7.7,0,0,1,23.5,23.2Z"/></g><g id="Línea_2122" data-name="Línea 2122"><path class="cls-2" d="M10,32.2a.8.8,0,0,1-.8-.8V27.5a.7.7,0,0,1,.8-.8.7.7,0,0,1,.7.8v3.9A.8.8,0,0,1,10,32.2Z"/></g><g id="Trazado_11510" data-name="Trazado 11510"><path class="cls-2" d="M37,32.2a.8.8,0,0,1-.7-.8V27.5A4.3,4.3,0,0,0,32,23.2H23.5a.7.7,0,0,1-.7-.7.7.7,0,0,1,.7-.8H32a5.8,5.8,0,0,1,5.8,5.8v3.9A.8.8,0,0,1,37,32.2Z"/></g><g id="Línea_2123" data-name="Línea 2123"><path class="cls-2" d="M23.5,32.2a.8.8,0,0,1-.7-.8V18.8a.7.7,0,1,1,1.4,0V31.4A.8.8,0,0,1,23.5,32.2Z"/></g><g id="Elipse_2115" data-name="Elipse 2115"><path class="cls-2" d="M13.1,26.7A3.8,3.8,0,1,1,16.8,23,3.8,3.8,0,0,1,13.1,26.7Zm0-6a2.3,2.3,0,1,0,0,4.5A2.2,2.2,0,0,0,15.3,23,2.2,2.2,0,0,0,13.1,20.7Z"/></g></g></svg>