<?xml version="1.0" encoding="utf-8"?>
<!-- Generator: Adobe Illustrator 24.0.2, SVG Export Plug-In . SVG Version: 6.00 Build 0)  -->
<svg version="1.1" id="Layer_1" xmlns="http://www.w3.org/2000/svg" xmlns:xlink="http://www.w3.org/1999/xlink" x="0px" y="0px"
	 width="15px" height="18px" viewBox="0 0 15 18" style="enable-background:new 0 0 15 18;" xml:space="preserve">
<style type="text/css">
	.st0{fill:none;}
	.st1{fill:#7E8E98;}
</style>
<rect y="0" class="st0" width="15" height="18"/>
<path class="st1" d="M11,11.6c-0.6,0-1.2,0.2-1.6,0.6L6.3,10c0.1-0.2,0.1-0.4,0.1-0.7c0-0.4-0.1-0.7-0.2-1l3.2-2.5
	c0.4,0.4,1,0.6,1.6,0.6c1.4,0,2.5-1.1,2.5-2.5S12.4,1.4,11,1.4c-1.4,0-2.5,1.1-2.5,2.5c0,0.3,0.1,0.6,0.2,0.9L5.4,7.3
	C5,7,4.4,6.8,3.9,6.8C2.5,6.8,1.4,8,1.4,9.4s1.1,2.5,2.5,2.5c0.7,0,1.3-0.3,1.8-0.8l3,2.1c-0.1,0.3-0.2,0.6-0.2,0.9
	c0,1.4,1.1,2.5,2.5,2.5c1.4,0,2.5-1.1,2.5-2.5C13.6,12.7,12.4,11.6,11,11.6z M11,2.7c0.7,0,1.2,0.6,1.2,1.2S11.7,5.1,11,5.1
	c-0.7,0-1.2-0.6-1.2-1.2S10.3,2.7,11,2.7z M3.9,10.6c-0.7,0-1.2-0.6-1.2-1.2s0.6-1.2,1.2-1.2s1.2,0.6,1.2,1.2S4.6,10.6,3.9,10.6z
	 M11,15.4c-0.7,0-1.2-0.6-1.2-1.2c0-0.7,0.6-1.2,1.2-1.2c0.7,0,1.2,0.6,1.2,1.2C12.3,14.8,11.7,15.4,11,15.4z"/>
</svg>
