<?xml version="1.0" encoding="utf-8"?>
<!-- Generator: Adobe Illustrator 24.0.2, SVG Export Plug-In . SVG Version: 6.00 Build 0)  -->
<svg version="1.1" id="Layer_1" xmlns="http://www.w3.org/2000/svg" xmlns:xlink="http://www.w3.org/1999/xlink" x="0px" y="0px"
	 width="59px" height="47px" viewBox="0 0 59 47" style="enable-background:new 0 0 59 47;" xml:space="preserve">
<style type="text/css">
	.st0{fill:none;}
	.st1{fill:#FFFFFF;}
</style>
<g id="Group_9439" transform="translate(6302 -2808)">
	<g id="Rectangle_3086">
		<rect x="-6302" y="2808" class="st0" width="59" height="47"/>
	</g>
	<g id="Group_9438">
		<g id="Line_1837">
			<path class="st1" d="M-6253.2,2843.6c-0.4,0-0.8-0.4-0.8-0.8v-22.6c0-0.4,0.4-0.8,0.8-0.8s0.8,0.4,0.8,0.8v22.6
				C-6252.4,2843.2-6252.8,2843.6-6253.2,2843.6z"/>
		</g>
		<g id="Line_1838">
			<path class="st1" d="M-6258,2843.6c-0.4,0-0.8-0.4-0.8-0.8v-22.6c0-0.4,0.4-0.8,0.8-0.8s0.8,0.4,0.8,0.8v22.6
				C-6257.2,2843.2-6257.6,2843.6-6258,2843.6z"/>
		</g>
		<g id="Line_1839">
			<path class="st1" d="M-6262.8,2843.6c-0.4,0-0.8-0.4-0.8-0.8v-22.6c0-0.4,0.4-0.8,0.8-0.8s0.8,0.4,0.8,0.8v22.6
				C-6262,2843.2-6262.3,2843.6-6262.8,2843.6z"/>
		</g>
		<g id="Rectangle_3085">
			<path class="st1" d="M-6277.6,2838.6h-12.7c-0.4,0-0.8-0.4-0.8-0.8v-12.7c0-0.4,0.4-0.8,0.8-0.8h12.7c0.4,0,0.8,0.4,0.8,0.8v12.7
				C-6276.9,2838.3-6277.2,2838.6-6277.6,2838.6z M-6289.6,2837.1h11.1v-11.1h-11.1V2837.1z"/>
		</g>
		<g id="Line_1840">
			<path class="st1" d="M-6280.8,2835.5c-0.2,0-0.4-0.1-0.6-0.2l-6.4-6.4c-0.3-0.3-0.3-0.8,0-1.1s0.8-0.3,1.1,0l6.4,6.4
				c0.3,0.3,0.3,0.8,0,1.1C-6280.4,2835.4-6280.6,2835.5-6280.8,2835.5z"/>
		</g>
		<g id="Line_1841">
			<path class="st1" d="M-6287.2,2835.5c-0.2,0-0.4-0.1-0.6-0.2c-0.3-0.3-0.3-0.8,0-1.1l6.4-6.4c0.3-0.3,0.8-0.3,1.1,0
				s0.3,0.8,0,1.1l-6.4,6.4C-6286.8,2835.4-6287,2835.5-6287.2,2835.5z"/>
		</g>
	</g>
</g>
</svg>
