<?xml version="1.0" encoding="utf-8"?>
<!-- Generator: Adobe Illustrator 24.0.2, SVG Export Plug-In . SVG Version: 6.00 Build 0)  -->
<svg version="1.1" id="Layer_1" xmlns="http://www.w3.org/2000/svg" xmlns:xlink="http://www.w3.org/1999/xlink" x="0px" y="0px"
	 width="16px" height="18px" viewBox="0 0 16 18" style="enable-background:new 0 0 16 18;" xml:space="preserve">
<style type="text/css">
	.st0{fill:none;}
	.st1{fill:#7E8E98;}
</style>
<rect y="0" class="st0" width="16" height="18"/>
<g>
	<path class="st1" d="M7,7h3.8c0.4,0,0.7-0.3,0.7-0.6s-0.3-0.6-0.7-0.6H7C6.7,5.7,6.4,6,6.4,6.4S6.7,7,7,7z"/>
	<path class="st1" d="M14.2,12.7c0,0,0-0.1,0-0.1V3c0-0.4-0.3-0.6-0.7-0.6H4.3C3.9,2.4,3.7,2.6,3.7,3c0,0,0,0,0,0v1.7H2
		C1.6,4.7,1.3,5,1.3,5.4v7c0,0,0,0,0,0v2.5c0,0,0,0.1,0,0.1c0,0,0,0.1,0,0.1c0,0,0,0.1,0.1,0.1c0,0,0,0.1,0,0.1c0,0,0,0,0,0
		c0.1,0.1,0.1,0.1,0.2,0.1c0,0,0,0,0,0c0.1,0,0.2,0.1,0.3,0.1c0.1,0,0.2,0,0.2,0c0,0,0.1,0,0.1-0.1c0,0,0.1,0,0.1-0.1l2.9-2.6h3.4
		c1,0,2-0.5,2.6-1.3l1.8,1.7c0,0,0.1,0,0.1,0.1c0,0,0,0,0.1,0c0.1,0,0.2,0,0.2,0c0,0,0,0,0,0c0,0,0,0,0,0c0.1,0,0.2,0,0.3-0.1
		c0,0,0,0,0,0c0.1,0,0.2-0.1,0.2-0.2c0,0,0,0,0,0c0,0,0,0,0-0.1C14.1,12.9,14.1,12.9,14.2,12.7C14.2,12.8,14.2,12.8,14.2,12.7z
		 M12.9,11.1l-2-1.8c0,0-0.1,0-0.1,0c0,0-0.1-0.1-0.1-0.1c0,0-0.1,0-0.1,0c0,0-0.1,0-0.1,0H6.9C5.8,9.2,5,8.3,5,7.3V3.7h7.9V11.1z
		 M8.7,11.4H5.1c0,0-0.1,0-0.1,0c0,0-0.1,0-0.1,0c-0.1,0-0.1,0.1-0.1,0.1c0,0,0,0-0.1,0l0,0c0,0,0,0,0,0l-2,1.8v-1.1c0,0,0,0,0,0V6
		h1v1.2c0,1.8,1.4,3.2,3.2,3.2h3.4l0.1,0.1C9.9,11.1,9.4,11.4,8.7,11.4z"/>
</g>
</svg>
