<?xml version="1.0" encoding="utf-8"?>
<!-- Generator: Adobe Illustrator 24.0.2, SVG Export Plug-In . SVG Version: 6.00 Build 0)  -->
<svg version="1.1" id="Layer_1" xmlns="http://www.w3.org/2000/svg" xmlns:xlink="http://www.w3.org/1999/xlink" x="0px" y="0px"
	 width="47px" height="47px" viewBox="0 0 47 47" style="enable-background:new 0 0 47 47;" xml:space="preserve">
<style type="text/css">
	.st0{fill:none;}
	.st1{fill:#FFFFFF;}
</style>
<g id="Group_10602" transform="translate(-5848 906)">
	<g id="Rectangle_3916">
		<rect x="5848" y="-906" class="st0" width="47" height="47"/>
	</g>
	<g id="Group_10601" transform="translate(5431.558 -3893.124)">
		<g id="Path_190">
			<path class="st1" d="M452,3024.5h-20.5c-4.1,0-7.4-3.3-7.4-7.4v-6.7c0-0.6,0.4-1,1-1s1,0.4,1,1v6.7c0,3,2.4,5.4,5.4,5.4H452
				c3,0,5.4-2.4,5.4-5.4v-13.2h-9.7c-0.6,0-1-0.4-1-1v-2.5c0-0.7-0.6-1.3-1.3-1.3h-7.3h0c-0.7,0-1.3,0.6-1.3,1.3v2.5
				c0,0.6-0.4,1-1,1h-3.6c-0.6,0-1-0.4-1-1s0.4-1,1-1h2.6v-1.5c0-1.8,1.5-3.3,3.3-3.3c0,0,0,0,0,0h7.3c1.8,0,3.3,1.5,3.3,3.3v1.5
				h9.7c0.6,0,1,0.4,1,1v14.2C459.3,3021.2,456,3024.5,452,3024.5z"/>
		</g>
		<g id="Path_191">
			<path class="st1" d="M425.1,3007.6c-1.3,0-2.4-0.5-3.3-1.4c-0.9-0.9-1.4-2.1-1.4-3.3s0.5-2.4,1.4-3.3c0.9-0.9,2.1-1.4,3.3-1.4
				c0,0,0,0,0,0c2.6,0,4.7,2.1,4.7,4.7c0,0,0,0,0,0c0,1.3-0.5,2.4-1.4,3.3C427.6,3007.1,426.4,3007.6,425.1,3007.6
				C425.2,3007.6,425.1,3007.6,425.1,3007.6z M425.2,3000.2C425.2,3000.2,425.2,3000.2,425.2,3000.2c-0.7,0-1.4,0.3-1.9,0.8
				s-0.8,1.2-0.8,1.9c0,0.7,0.3,1.4,0.8,1.9c0.5,0.5,1.2,0.8,1.9,0.8c0,0,0,0,0,0c0.7,0,1.4-0.3,1.9-0.8s0.8-1.2,0.8-1.9
				c0,0,0,0,0,0v0C427.8,3001.4,426.6,3000.2,425.2,3000.2z"/>
		</g>
		<g id="Line_182">
			<path class="st1" d="M455,3007.6h-4.8c-0.6,0-1-0.4-1-1s0.4-1,1-1h4.8c0.6,0,1,0.4,1,1S455.6,3007.6,455,3007.6z"/>
		</g>
		<g id="Line_183">
			<path class="st1" d="M444.1,3002.6h-4.8c-0.6,0-1-0.4-1-1s0.4-1,1-1h4.8c0.6,0,1,0.4,1,1S444.7,3002.6,444.1,3002.6z"/>
		</g>
		<g id="Line_184">
			<path class="st1" d="M455,3010.4h-4.8c-0.6,0-1-0.4-1-1s0.4-1,1-1h4.8c0.6,0,1,0.4,1,1S455.6,3010.4,455,3010.4z"/>
		</g>
		<g id="Ellipse_90">
			<path class="st1" d="M441.7,3020.5c-4,0-7.3-3.3-7.3-7.3s3.3-7.3,7.3-7.3s7.3,3.3,7.3,7.3S445.8,3020.5,441.7,3020.5z
				 M441.7,3007.9c-2.9,0-5.3,2.4-5.3,5.3s2.4,5.3,5.3,5.3c2.9,0,5.3-2.4,5.3-5.3S444.7,3007.9,441.7,3007.9z"/>
		</g>
	</g>
</g>
</svg>
