<?xml version="1.0" encoding="utf-8"?>
<!-- Generator: Adobe Illustrator 24.0.2, SVG Export Plug-In . SVG Version: 6.00 Build 0)  -->
<svg version="1.1" id="Layer_1" xmlns="http://www.w3.org/2000/svg" xmlns:xlink="http://www.w3.org/1999/xlink" x="0px" y="0px"
	 width="18px" height="18px" viewBox="0 0 18 18" style="enable-background:new 0 0 18 18;" xml:space="preserve">
<style type="text/css">
	.st0{fill:none;}
	.st1{fill:#7E8E98;}
</style>
<rect y="0" class="st0" width="18" height="18"/>
<path class="st1" d="M17.2,7.9c0-0.9-0.7-1.6-1.6-1.6h-4.3l0.4-0.8c0.4-0.8,0.3-1.8-0.2-2.5c-0.1-0.1-0.2-0.3-0.4-0.4
	c-0.7-0.5-1.7-0.3-2.2,0.4L6.6,6.6H5.8V6.5c0-0.4-0.3-0.6-0.6-0.6H2c-0.4,0-0.6,0.3-0.6,0.6v8.3c0,0.4,0.3,0.7,0.6,0.7h3.2
	c0.4,0,0.6-0.3,0.6-0.7v-0.2h1l2.1,0.5c0,0,0.1,0,0.1,0h4.7c0.9,0,1.6-0.7,1.6-1.6c0-0.2,0-0.4-0.1-0.6c0.4-0.3,0.6-0.7,0.6-1.3
	c0-0.2,0-0.4-0.1-0.5c0.5-0.3,0.8-0.8,0.8-1.4c0-0.2,0-0.4-0.1-0.5C16.9,9,17.2,8.5,17.2,7.9z M4.5,14.2H2.6v-7h1.9V14.2z
	 M13.7,13.9H9.1l-2.1-0.5c0,0-0.1,0-0.1,0H5.8V7.9h1.1c0.2,0,0.4-0.1,0.5-0.3L10,3.8c0.1-0.1,0.3-0.2,0.5,0c0.3,0.3,0.3,0.8,0.1,1.2
	L10,6C9.9,6.3,9.8,6.6,9.9,6.9c0.1,0.3,0.3,0.5,0.5,0.6c0.2,0.1,0.3,0.1,0.5,0.1h4.6c0.2,0,0.3,0.1,0.3,0.3c0,0.2-0.1,0.3-0.3,0.3
	h-0.7h-1.2h-0.2c-0.4,0-0.7,0.3-0.7,0.6s0.3,0.6,0.7,0.6h0.2h1.2c0.2,0,0.3,0.1,0.3,0.3c0,0.2-0.1,0.3-0.3,0.3h-0.7h-1.1h-0.3
	c-0.4,0-0.7,0.3-0.7,0.7s0.3,0.7,0.7,0.7h0.3h1.1c0.2,0,0.3,0.1,0.3,0.3S14.4,12,14.2,12h-2.1c-0.4,0-0.7,0.3-0.7,0.7
	s0.3,0.7,0.7,0.7h1.6c0.2,0,0.3,0.1,0.3,0.3S13.9,13.9,13.7,13.9z"/>
</svg>
