<svg xmlns="http://www.w3.org/2000/svg" width="15.836" height="13.156" viewBox="0 0 15.836 13.156">
  <g id="Grupo_9347" data-name="Grupo 9347" transform="translate(0.65 0.65)">
    <path id="Trazado_7709" data-name="Trazado 7709" d="M338.281,1994.531h1.766l2.541-3.84a.933.933,0,0,1,1.528-.041h0a1.764,1.764,0,0,1,.152,1.852l-.571,1.116a.438.438,0,0,0,.39.637h4.629a.946.946,0,0,1,.946.946h0a.946.946,0,0,1-.946.946h-1.859" transform="translate(-335.126 -1990.272)" fill="none" stroke="#7e8e98" stroke-linecap="round" stroke-linejoin="round" stroke-width="1.3"/>
    <path id="Trazado_7710" data-name="Trazado 7710" d="M351.16,1999.833h1.428a.946.946,0,0,1,.946.946h0a.946.946,0,0,1-.946.946h-2.164" transform="translate(-339.651 -1993.958)" fill="none" stroke="#7e8e98" stroke-linecap="round" stroke-linejoin="round" stroke-width="1.3"/>
    <path id="Trazado_7711" data-name="Trazado 7711" d="M350.271,2002.912h1.149a.946.946,0,0,1,.946.946h0a.946.946,0,0,1-.946.946h-2.073" transform="translate(-339.195 -1995.145)" fill="none" stroke="#7e8e98" stroke-linecap="round" stroke-linejoin="round" stroke-width="1.3"/>
    <path id="Trazado_7712" data-name="Trazado 7712" d="M346.847,2005.991a.946.946,0,0,1,.946.946h0a.946.946,0,0,1-.946.946h-4.663l-2.137-.5h-1.766" transform="translate(-335.126 -1996.332)" fill="none" stroke="#7e8e98" stroke-linecap="round" stroke-linejoin="round" stroke-width="1.3"/>
    <rect id="Rectángulo_3057" data-name="Rectángulo 3057" width="3.155" height="8.339" transform="translate(0 3.517)" fill="none" stroke="#7e8e98" stroke-linecap="round" stroke-linejoin="round" stroke-width="1.3"/>
  </g>
</svg>
