<svg id="Capa_1" data-name="Capa 1" xmlns="http://www.w3.org/2000/svg" viewBox="0 0 47 47"><defs><style>.cls-1{fill:none;}.cls-2{fill:#fff;}</style></defs><title>icono_menu-ubicacion</title><rect class="cls-1" width="47" height="47"/><g id="Grupo_13388" data-name="Grupo 13388"><g id="Grupo_13062" data-name="Grupo 13062"><g id="Trazado_11668" data-name="Trazado 11668"><path class="cls-2" d="M9.9,40.2c-.2,0-.4,0-.5-.2a.8.8,0,0,1-.2-.5V25.9a.7.7,0,0,1,.7-.7.8.8,0,0,1,.8.7V38.7H37.5V25.8a.9.9,0,0,1,.8-.8.8.8,0,0,1,.7.8V39.4a.8.8,0,0,1-.7.8Z"/></g><g id="Trazado_11669" data-name="Trazado 11669"><path class="cls-2" d="M35.9,26.8a.7.7,0,0,1-.7-.7V12.9L30.9,8.2H13v2.2a.8.8,0,0,1-.7.8.8.8,0,0,1-.8-.8V7.5a.7.7,0,0,1,.8-.7H31.2c.2,0,.4,0,.5.2l4.8,5.1a.8.8,0,0,1,.2.5V26.1A.8.8,0,0,1,35.9,26.8Z"/></g><g id="Línea_2307" data-name="Línea 2307"><path class="cls-2" d="M12.3,27.1a.8.8,0,0,1-.8-.8V21.7a.8.8,0,0,1,.8-.8.8.8,0,0,1,.7.8v4.6A.8.8,0,0,1,12.3,27.1Z"/></g><g id="Línea_2308" data-name="Línea 2308"><path class="cls-2" d="M32.3,17H18.7a.7.7,0,0,1-.8-.7.8.8,0,0,1,.8-.8H32.3a.8.8,0,0,1,.8.8A.7.7,0,0,1,32.3,17Z"/></g><g id="Línea_2309" data-name="Línea 2309"><path class="cls-2" d="M32.3,20.8H18.7a.7.7,0,0,1-.8-.7.7.7,0,0,1,.8-.8H32.3a.7.7,0,0,1,.8.8A.7.7,0,0,1,32.3,20.8Z"/></g><g id="Línea_2310" data-name="Línea 2310"><path class="cls-2" d="M32.3,24.2H18.7a.7.7,0,0,1-.8-.7.7.7,0,0,1,.8-.8H32.3a.7.7,0,0,1,.8.8A.7.7,0,0,1,32.3,24.2Z"/></g><g id="Trazado_11670" data-name="Trazado 11670"><path class="cls-2" d="M24.1,30.1h-.2L9.8,26.6a.9.9,0,0,1-.6-.6.7.7,0,0,1,.2-.7l2.2-2.2a.8.8,0,1,1,1.1,1.1l-1.3,1.2,12.9,3.2a.8.8,0,0,1-.2,1.5Z"/></g><g id="Trazado_11671" data-name="Trazado 11671"><path class="cls-2" d="M24.2,30.1a.9.9,0,0,1-.8-.6.8.8,0,0,1,.6-.9l12.8-3.2-1.3-1.2a.8.8,0,1,1,1.1-1.1l2.2,2.2a.7.7,0,0,1,.2.7,1,1,0,0,1-.5.6L24.3,30.1Z"/></g></g><g id="Grupo_13063" data-name="Grupo 13063"><g id="Elipse_2196" data-name="Elipse 2196"><path class="cls-2" d="M12.2,20.4a4.2,4.2,0,1,1,4.2-4.2A4.2,4.2,0,0,1,12.2,20.4Zm0-6.9a2.7,2.7,0,1,0,2.7,2.7A2.7,2.7,0,0,0,12.2,13.5Z"/></g></g><g id="Trazado_11672" data-name="Trazado 11672"><path class="cls-2" d="M35.3,13.3H31a.8.8,0,0,1-.8-.7V7.5a.8.8,0,0,1,.8-.7.7.7,0,0,1,.7.7v4.3h3.6a.8.8,0,0,1,.8.8A.7.7,0,0,1,35.3,13.3Z"/></g></g></svg>