<?xml version="1.0" encoding="utf-8"?>
<!-- Generator: Adobe Illustrator 24.0.2, SVG Export Plug-In . SVG Version: 6.00 Build 0)  -->
<svg version="1.1" id="Capa_1" xmlns="http://www.w3.org/2000/svg" xmlns:xlink="http://www.w3.org/1999/xlink" x="0px" y="0px"
	 viewBox="0 0 47 47" style="enable-background:new 0 0 47 47;" xml:space="preserve">
<style type="text/css">
	.st0{fill:none;}
	.st1{fill:#FFFFFF;}
</style>
<title>icono_menu-como_llegar</title>
<rect y="0" class="st0" width="47" height="47"/>
<path class="st1" d="M32.1,15.4c-0.2,0-0.4,0-0.5-0.2c-0.3-0.3-0.3-0.7-0.1-1l1.6-1.7c0.1-0.2,0.3-0.3,0.5-0.3h8.8
	c0.4-0.1,0.7,0.2,0.8,0.6c0,0.1,0,0.1,0,0.2c0,0.4-0.3,0.7-0.7,0.7c0,0-0.1,0-0.1,0H34l-1.3,1.5L32.1,15.4z"/>
<path class="st1" d="M4.6,41.5H4.2c-0.4-0.2-0.5-0.6-0.3-0.9c0,0,0,0,0-0.1l7.7-14.3c0-0.3,0.3-0.5,0.6-0.4c0,0,0,0,0,0h9l2.7-3
	c0.3-0.3,0.7-0.3,1.1-0.1c0.3,0.3,0.3,0.7,0,1.1L22.1,27c-0.1,0.2-0.4,0.3-0.6,0.3h-8.8L5.2,41.1C5.1,41.3,4.9,41.5,4.6,41.5z"/>
<path class="st1" d="M12.2,26.5c-0.2,0-0.4-0.1-0.6-0.3c-0.7-0.9-6.9-9.4-6.9-13.2c0-4.1,3.4-7.5,7.5-7.5c4.1,0,7.5,3.4,7.5,7.5l0,0
	c0,3.8-6.2,12.3-6.9,13.2C12.7,26.4,12.4,26.5,12.2,26.5z M12.2,7c-3.3,0-6,2.7-6,6c0,2.6,3.9,8.6,6,11.5c2.1-2.9,6-8.9,6-11.5l0,0
	c0-1.6-0.6-3.1-1.8-4.2C15.3,7.6,13.8,7,12.2,7z"/>
<path class="st1" d="M12.2,16c-1.7,0-3-1.3-3-3s1.3-3,3-3s3,1.3,3,3c0.1,1.6-1.2,2.9-2.8,3C12.3,16,12.3,16,12.2,16z M12.2,11.6
	c-0.8,0-1.4,0.6-1.4,1.4c0,0.8,0.6,1.4,1.4,1.5c0.8,0,1.5-0.7,1.5-1.5C13.6,12.2,13,11.6,12.2,11.6z"/>
<path class="st1" d="M28,22.3c-1.8,0-3.3-1.5-3.3-3.3s1.5-3.3,3.3-3.3c1.8,0,3.3,1.5,3.3,3.3c0.1,1.8-1.3,3.3-3.1,3.3
	C28.2,22.3,28.1,22.3,28,22.3z M28,17.3c-0.9,0-1.6,0.7-1.6,1.6c0,0.9,0.7,1.6,1.6,1.7c0.9,0,1.7-0.7,1.7-1.7
	C29.6,18,28.9,17.3,28,17.3z"/>
</svg>
