<?xml version="1.0" encoding="utf-8"?>
<!-- Generator: Adobe Illustrator 24.0.2, SVG Export Plug-In . SVG Version: 6.00 Build 0)  -->
<svg version="1.1" id="Capa_1" xmlns="http://www.w3.org/2000/svg" xmlns:xlink="http://www.w3.org/1999/xlink" x="0px" y="0px"
	 viewBox="0 0 47 47" style="enable-background:new 0 0 47 47;" xml:space="preserve">
<style type="text/css">
	.st0{fill:none;}
	.st1{fill:#FFFFFF;}
</style>
<title>icono_menu-ubicacion</title>
<rect y="0" class="st0" width="47" height="47"/>
<path class="st1" d="M23.6,40.3c-0.3,0-0.5-0.2-0.6-0.4c-0.5-0.6-11.1-15-11.1-21.2c0-1.1,0.2-2.2,0.5-3.3c0.1-0.4,0.5-0.6,0.9-0.5
	s0.6,0.5,0.5,0.9l0,0c-0.2,1-0.4,1.9-0.4,2.9c0,4.9,7.9,16.3,10.2,19.5c2.3-3.2,10.2-14.6,10.2-19.5c0-0.9-0.2-1.9-0.4-2.8
	c-1.6-5.4-7.2-8.5-12.6-7C20.4,9,20,8.8,19.9,8.5c0,0,0,0,0-0.1C19.8,8,20,7.6,20.3,7.5c0,0,0,0,0.1,0c2.9-0.9,6.1-0.5,8.8,1
	c2.7,1.5,4.8,4,5.6,7c0.3,1,0.4,2.1,0.5,3.2c0,6.2-10.7,20.6-11.1,21.2S23.8,40.3,23.6,40.3z"/>
<path class="st1" d="M15.6,13.6c-1.7,0-3-1.3-3-3s1.3-3,3-3s3,1.3,3,3c0.1,1.6-1.2,2.9-2.8,3C15.7,13.6,15.7,13.6,15.6,13.6z
	 M15.6,9.2c-0.8,0-1.4,0.6-1.4,1.4c0,0.8,0.6,1.4,1.4,1.5c0.8,0,1.5-0.7,1.5-1.5C17,9.8,16.4,9.2,15.6,9.2z"/>
<path class="st1" d="M23.2,23.2c-2.5,0-4.5-1.9-4.5-4.5s1.9-4.5,4.5-4.5s4.5,1.9,4.5,4.5c0.1,2.4-1.8,4.3-4.2,4.5
	C23.4,23.2,23.4,23.2,23.2,23.2z M23.2,16.6c-1.2,0-2.1,0.9-2.1,2.1c0,1.2,0.9,2.1,2.1,2.2c1.2,0,2.2-1,2.2-2.2
	C25.3,17.5,24.4,16.6,23.2,16.6z"/>
<path class="st1" d="M23.3,23.2c-2.5,0-4.5-1.9-4.5-4.5s1.9-4.5,4.5-4.5s4.5,1.9,4.5,4.5c0.1,2.4-1.8,4.3-4.2,4.5
	C23.5,23.2,23.5,23.2,23.3,23.2z M23.3,16.6c-1.2,0-2.1,0.9-2.1,2.1c0,1.2,0.9,2.1,2.1,2.2c1.2,0,2.2-1,2.2-2.2
	C25.4,17.5,24.5,16.6,23.3,16.6z"/>
</svg>
