<svg id="Capa_3" data-name="Capa 3" xmlns="http://www.w3.org/2000/svg" width="90" height="90" viewBox="0 0 90 90">
  <rect id="Rectángulo_4797" data-name="Rectángulo 4797" width="90" height="90" fill="none"/>
  <path id="Trazado_11968" data-name="Trazado 11968" d="M19,36.14a7.55,7.55,0,1,1,5.53-2.41A7.55,7.55,0,0,1,19,36.14ZM19,23a5.55,5.55,0,1,0,5.55,5.55A5.55,5.55,0,0,0,19,23Z" fill="#19a500"/>
  <g id="Grupo_13770" data-name="Grupo 13770" style="mix-blend-mode: multiply;isolation: isolate">
    <path id="Trazado_11969" data-name="Trazado 11969" d="M33.43,86.78H18a1.7,1.7,0,1,1,0-3.4H33.43a1.7,1.7,0,1,1,0,3.4Z" fill="#19a500"/>
  </g>
  <g id="Grupo_13771" data-name="Grupo 13771" style="mix-blend-mode: multiply;isolation: isolate">
    <path id="Trazado_11970" data-name="Trazado 11970" d="M42.53,86.78H27.05a1.7,1.7,0,1,1,0-3.4H42.53a1.7,1.7,0,1,1,0,3.4Z" fill="#a1d005"/>
  </g>
  <g id="Grupo_13772" data-name="Grupo 13772" style="mix-blend-mode: multiply;isolation: isolate">
    <path id="Trazado_11971" data-name="Trazado 11971" d="M61.17,86.78H53.43a1.7,1.7,0,1,1,0-3.4h7.74a1.7,1.7,0,1,1,0,3.4Z" fill="#a1d005"/>
  </g>
  <g id="Grupo_13773" data-name="Grupo 13773" style="mix-blend-mode: multiply;isolation: isolate">
    <path id="Trazado_11972" data-name="Trazado 11972" d="M72.05,86.78h-.34a1.24,1.24,0,0,1-.31-.1,1.68,1.68,0,0,1-.3-.15,1.71,1.71,0,0,1-.26-.21,1.73,1.73,0,0,1,0-2.41,1.709,1.709,0,0,1,.26-.21l.3-.16a1.809,1.809,0,0,1,.31-.09,1.51,1.51,0,0,1,.67,0,1.68,1.68,0,0,1,.32.09,2.69,2.69,0,0,1,.29.16,1.33,1.33,0,0,1,.26.21,1.7,1.7,0,0,1,0,2.41,1.33,1.33,0,0,1-.26.21,1.59,1.59,0,0,1-.29.15,1.19,1.19,0,0,1-.32.1,1.839,1.839,0,0,1-.33,0Z" fill="#a1d005"/>
  </g>
  <g id="Grupo_13774" data-name="Grupo 13774" style="mix-blend-mode: multiply;isolation: isolate">
    <path id="Trazado_11973" data-name="Trazado 11973" d="M56.53,76.39H18A1.7,1.7,0,1,1,18,73H56.53a1.7,1.7,0,1,1,0,3.4Z" fill="#a1d005"/>
  </g>
  <g id="Grupo_13775" data-name="Grupo 13775" style="mix-blend-mode: multiply;isolation: isolate">
    <path id="Trazado_11974" data-name="Trazado 11974" d="M18,76.39a1.841,1.841,0,0,1-.33,0,1.7,1.7,0,0,1-.32-.1,1.59,1.59,0,0,1-.29-.15,3,3,0,0,1-.26-.21,1.72,1.72,0,0,1-.5-1.21,1.84,1.84,0,0,1,0-.33,3,3,0,0,1,.1-.32,1.64,1.64,0,0,1,.16-.29,1.71,1.71,0,0,1,.21-.26,1.33,1.33,0,0,1,.26-.21,1.64,1.64,0,0,1,.29-.16,1.68,1.68,0,0,1,.32-.09,1.47,1.47,0,0,1,.66,0,1.681,1.681,0,0,1,.32.09,2.191,2.191,0,0,1,.3.16,1.27,1.27,0,0,1,.25.21,2.752,2.752,0,0,1,.22.26,1.59,1.59,0,0,1,.15.29,1.7,1.7,0,0,1,.1.32,1.84,1.84,0,0,1,0,.33,1.72,1.72,0,0,1-.5,1.21,2.759,2.759,0,0,1-.25.21,2.1,2.1,0,0,1-.3.15,1.7,1.7,0,0,1-.32.1A1.839,1.839,0,0,1,18,76.39Z" fill="#149352"/>
  </g>
  <g id="Grupo_13776" data-name="Grupo 13776" style="mix-blend-mode: multiply;isolation: isolate">
    <path id="Trazado_11975" data-name="Trazado 11975" d="M72.05,76.39H50.15a1.7,1.7,0,1,1,0-3.4h21.9a1.7,1.7,0,0,1,0,3.4Z" fill="#19a500"/>
  </g>
  <path id="Trazado_11976" data-name="Trazado 11976" d="M69.08,65.68H21.26a1,1,0,0,1-1-1V39.07a1,1,0,0,1,2,0V63.68H68.08V7.34H22.25V18a1,1,0,0,1-2,0V6.34a.99.99,0,0,1,1-1H69.08a1,1,0,0,1,1,1V64.68a.99.99,0,0,1-1,1Z" fill="#95a6b1"/>
  <path id="Trazado_11977" data-name="Trazado 11977" d="M62.8,58.71H28.29a1,1,0,1,1,0-2H62.8a1,1,0,0,1,0,2Z" fill="#95a6b1"/>
  <path id="Trazado_11978" data-name="Trazado 11978" d="M62.8,51.19H50.86a1,1,0,0,1-1-1V35.39a1,1,0,0,1,1-1H62.8a1,1,0,0,1,1,1v14.8A1,1,0,0,1,62.8,51.19Zm-10.94-2H61.8V36.39H51.86Z" fill="#95a6b1"/>
  <path id="Trazado_11979" data-name="Trazado 11979" d="M43.71,39.41H28.29a1,1,0,0,1,0-2H43.71a1,1,0,0,1,0,2Z" fill="#95a6b1"/>
  <path id="Trazado_11980" data-name="Trazado 11980" d="M43.71,49.52H28.29a1,1,0,0,1,0-2H43.71a1,1,0,0,1,0,2Z" fill="#95a6b1"/>
  <path id="Trazado_11981" data-name="Trazado 11981" d="M34.55,15.7v7.33h0L30.73,15.7H28.1v9.85H30v-5.5a5.5,5.5,0,0,0-.05-.92c-.05-.29,0-.69-.07-1h.07l3.87,7.45h2.65V15.7Z" fill="#95a6b1"/>
  <path id="Trazado_11982" data-name="Trazado 11982" d="M43.99,17.41V15.7H38.31v9.85h5.68V23.83H40.4V21.29h3.34V19.57H40.4V17.41Z" fill="#95a6b1"/>
  <path id="Trazado_11983" data-name="Trazado 11983" d="M55.54,15.7l-1.12,5.38a.711.711,0,0,1-.06.31c-.06.14,0,.29-.08.46a1.913,1.913,0,0,0-.1.54c-.03.19-.06.38-.1.55a4.881,4.881,0,0,0-.08.51,1.008,1.008,0,0,1-.06.38.956.956,0,0,0-.06-.38,2.508,2.508,0,0,1-.08-.49c-.03-.17-.06-.35-.09-.53s-.06-.36-.09-.52,0-.3-.08-.42a1.41,1.41,0,0,0-.06-.27L52.12,15.7H50.28l-1.37,5.52v.27a.844.844,0,0,1-.08.42,1.716,1.716,0,0,0-.09.52,5.34,5.34,0,0,0-.09.53,3.58,3.58,0,0,1-.08.49,1.044,1.044,0,0,1-.06.38.956.956,0,0,0-.06-.38c-.06-.15,0-.33-.09-.51a1.713,1.713,0,0,1-.09-.55c-.03-.19-.07-.37-.1-.54s-.06-.32-.09-.46,0-.24-.05-.31L46.86,15.7H44.8l2.37,9.85h2.38l1.2-4.84a.572.572,0,0,1,.07-.3,1.361,1.361,0,0,0,.09-.42c.03-.16.05-.31.08-.48l.09-.48a2.758,2.758,0,0,1,.07-.43,1.687,1.687,0,0,0,0-.32.832.832,0,0,0,.05.32c.05.13,0,.28.07.43s0,.32.08.49a1.791,1.791,0,0,1,.1.48c.03.15.06.29.08.41s0,.22.07.28l1.21,4.86h2.37L57.6,15.7Z" fill="#95a6b1"/>
  <path id="Trazado_11984" data-name="Trazado 11984" d="M64.07,21.81a2.61,2.61,0,0,0-.48-.78,4.11,4.11,0,0,0-.73-.62c-.28-.18-.59-.37-.93-.55s-.52-.28-.71-.39a2.49,2.49,0,0,1-.48-.35,1.14,1.14,0,0,1-.27-.36,1.161,1.161,0,0,1,.2-1.18,1.05,1.05,0,0,1,.8-.28,3.87,3.87,0,0,1,.48,0,4.31,4.31,0,0,1,.49.11,3.52,3.52,0,0,1,.51.19c.18.07.37.15.57.25l.67-1.63c-.23-.11-.47-.21-.69-.3a5.745,5.745,0,0,0-.67-.21c-.22-.06-.45-.1-.67-.14a5.37,5.37,0,0,0-.7,0,4,4,0,0,0-1.29.19,2.48,2.48,0,0,0-1,.55,2.45,2.45,0,0,0-.63.88,3.14,3.14,0,0,0-.22,1.18,2.73,2.73,0,0,0,.23,1.16,3.32,3.32,0,0,0,.57.82,3.52,3.52,0,0,0,.73.57l.69.39.67.37a3.749,3.749,0,0,1,.51.36,1.22,1.22,0,0,1,.33.4,1,1,0,0,1,.12.49,1.16,1.16,0,0,1-.07.42.83.83,0,0,1-.22.33,1.16,1.16,0,0,1-.4.22,2,2,0,0,1-.59.07,4,4,0,0,1-.68-.06,6.34,6.34,0,0,1-.68-.19,6.16,6.16,0,0,1-.67-.26c-.22-.09-.44-.19-.65-.3V25.1a5,5,0,0,0,1.23.45,6.21,6.21,0,0,0,1.38.15,4.86,4.86,0,0,0,1.44-.2,3.14,3.14,0,0,0,1.07-.58A2.45,2.45,0,0,0,64,24a3,3,0,0,0,.22-1.19A2.78,2.78,0,0,0,64.07,21.81Z" fill="#95a6b1"/>
</svg>
