<svg id="Capa_1" data-name="Capa 1" xmlns="http://www.w3.org/2000/svg" width="90" height="90" viewBox="0 0 90 90">
  <rect id="Rectángulo_4799" data-name="Rectángulo 4799" width="90" height="90" fill="none"/>
  <path id="Trazado_12001" data-name="Trazado 12001" d="M22,23.8a7.55,7.55,0,1,1,5.53-2.41A7.55,7.55,0,0,1,22,23.8Zm0-13.1a5.55,5.55,0,1,0,5.55,5.55A5.55,5.55,0,0,0,22,10.7Z" fill="#19a500"/>
  <path id="Trazado_12002" data-name="Trazado 12002" d="M42.59,68.91a1,1,0,0,1-1-1V21.12a1,1,0,0,1,2,0V67.91A1,1,0,0,1,42.59,68.91Z" fill="#95a6b1"/>
  <path id="Trazado_12003" data-name="Trazado 12003" d="M42.59,28.67a1,1,0,0,1-.7-.29l-6.61-6.61a1,1,0,1,1,1.41-1.41L43.3,27a.966.966,0,0,1-.71,1.67Z" fill="#95a6b1"/>
  <path id="Trazado_12004" data-name="Trazado 12004" d="M42.59,40.39a1,1,0,0,1-.7-.29l-6.61-6.61a1,1,0,0,1,1.41-1.42l6.61,6.61a1,1,0,0,1-.71,1.71Z" fill="#95a6b1"/>
  <path id="Trazado_12005" data-name="Trazado 12005" d="M42.59,34a1,1,0,0,1-.7-1.7l6.61-6.61a1,1,0,1,1,1.41,1.41L43.3,33.73a1,1,0,0,1-.71.27Z" fill="#95a6b1"/>
  <path id="Trazado_12006" data-name="Trazado 12006" d="M42.59,45.08a1,1,0,0,1-.7-1.71l6.61-6.61a1,1,0,1,1,1.41,1.42L43.3,44.79A1,1,0,0,1,42.59,45.08Z" fill="#95a6b1"/>
  <path id="Trazado_12007" data-name="Trazado 12007" d="M58.35,68.91H26.84a1,1,0,0,1,0-2H58.35a1,1,0,1,1,0,2Z" fill="#95a6b1"/>
  <path id="Trazado_12008" data-name="Trazado 12008" d="M42.59,50.32A23.9,23.9,0,0,1,18.72,26.44a1,1,0,0,1,2,0A21.88,21.88,0,1,0,42.593,4.57a21.65,21.65,0,0,0-13.4,4.58A.99.99,0,1,1,28,7.57,23.88,23.88,0,1,1,42.59,50.32Z" fill="#95a6b1"/>
  <g id="Grupo_13788" data-name="Grupo 13788" style="mix-blend-mode: multiply;isolation: isolate">
    <path id="Trazado_12009" data-name="Trazado 12009" d="M33.43,86.78H18a1.7,1.7,0,1,1,0-3.4H33.43a1.7,1.7,0,1,1,0,3.4Z" fill="#19a500"/>
  </g>
  <g id="Grupo_13789" data-name="Grupo 13789" style="mix-blend-mode: multiply;isolation: isolate">
    <path id="Trazado_12010" data-name="Trazado 12010" d="M42.53,86.78H27.05a1.7,1.7,0,1,1,0-3.4H42.53a1.7,1.7,0,1,1,0,3.4Z" fill="#a1d005"/>
  </g>
  <g id="Grupo_13790" data-name="Grupo 13790" style="mix-blend-mode: multiply;isolation: isolate">
    <path id="Trazado_12011" data-name="Trazado 12011" d="M61.17,86.78H53.43a1.7,1.7,0,1,1,0-3.4h7.74a1.7,1.7,0,1,1,0,3.4Z" fill="#a1d005"/>
  </g>
  <g id="Grupo_13791" data-name="Grupo 13791" style="mix-blend-mode: multiply;isolation: isolate">
    <path id="Trazado_12012" data-name="Trazado 12012" d="M72.05,86.78A1.65,1.65,0,0,1,70.64,86a1.08,1.08,0,0,1-.16-.3,1.861,1.861,0,0,1-.1-.31,2,2,0,0,1,0-.34,1.71,1.71,0,0,1,.5-1.2,1.76,1.76,0,0,1,2.4,0,1.71,1.71,0,0,1,.21.26,1.64,1.64,0,0,1,.16.29,1.313,1.313,0,0,0,.1.32,1.841,1.841,0,0,1,0,.33,2,2,0,0,1,0,.34.935.935,0,0,1-.1.31,1.43,1.43,0,0,1-.16.3,1.711,1.711,0,0,1-.21.26A1.75,1.75,0,0,1,72.05,86.78Z" fill="#a1d005"/>
  </g>
  <g id="Grupo_13792" data-name="Grupo 13792" style="mix-blend-mode: multiply;isolation: isolate">
    <path id="Trazado_12013" data-name="Trazado 12013" d="M56.53,76.39H18A1.7,1.7,0,1,1,18,73H56.53a1.7,1.7,0,1,1,0,3.4Z" fill="#a1d005"/>
  </g>
  <g id="Grupo_13793" data-name="Grupo 13793" style="mix-blend-mode: multiply;isolation: isolate">
    <path id="Trazado_12014" data-name="Trazado 12014" d="M18,76.39a1.68,1.68,0,0,1-1.2-.5,1.27,1.27,0,0,1-.21-.25,2.19,2.19,0,0,1-.16-.3,3,3,0,0,1-.1-.32,1.83,1.83,0,0,1,0-.66,3,3,0,0,1,.1-.32,1.64,1.64,0,0,1,.16-.29,1.33,1.33,0,0,1,.21-.26,1.76,1.76,0,0,1,2.4,0,1.33,1.33,0,0,1,.21.26,1.18,1.18,0,0,1,.16.29,1.7,1.7,0,0,1,.1.32,1.83,1.83,0,0,1,0,.66,1.7,1.7,0,0,1-.1.32,1.46,1.46,0,0,1-.16.3,1.27,1.27,0,0,1-.21.25,1.68,1.68,0,0,1-1.2.5Z" fill="#149352"/>
  </g>
  <g id="Grupo_13794" data-name="Grupo 13794" style="mix-blend-mode: multiply;isolation: isolate">
    <path id="Trazado_12015" data-name="Trazado 12015" d="M72.05,76.39H50.15a1.7,1.7,0,1,1,0-3.4h21.9a1.7,1.7,0,0,1,0,3.4Z" fill="#19a500"/>
  </g>
</svg>
