<svg id="Capa_2" data-name="Capa 2" xmlns="http://www.w3.org/2000/svg" width="90" height="90" viewBox="0 0 90 90">
  <rect id="Rectángulo_4790" data-name="Rectángulo 4790" width="90" height="90" fill="none"/>
  <path id="Trazado_11935" data-name="Trazado 11935" d="M76.39,67.14H55.2a1,1,0,0,1-1-1V48.44a8.52,8.52,0,0,1,8.5-8.51h6.19a8.51,8.51,0,0,1,8.5,8.51v17.7A1,1,0,0,1,76.39,67.14Zm-20.19-2H75.39V48.44a6.51,6.51,0,0,0-6.5-6.51H62.7a6.51,6.51,0,0,0-6.5,6.51Z" fill="#95a6b1"/>
  <path id="Trazado_11936" data-name="Trazado 11936" d="M15.79,19a1,1,0,0,1-1-1V14.43a4.76,4.76,0,0,1,4.75-4.76h5.87a1,1,0,1,1,0,2H19.54a2.76,2.76,0,0,0-2.75,2.76V18A1,1,0,0,1,15.79,19Z" fill="#95a6b1"/>
  <path id="Trazado_11937" data-name="Trazado 11937" d="M29.17,67.14H15.79a1,1,0,0,1-1-1V40.66a1,1,0,0,1,2,0V65.14H28.17V14.43a2.77,2.77,0,0,0-2.76-2.76,1,1,0,0,1,0-2,4.77,4.77,0,0,1,4.76,4.76V66.14A1,1,0,0,1,29.17,67.14Z" fill="#95a6b1"/>
  <path id="Trazado_11938" data-name="Trazado 11938" d="M49.86,67.14a1,1,0,0,1-1-1V37.75a5.83,5.83,0,0,1,5.64-6H61a5.83,5.83,0,0,1,5.64,6v3.19a1,1,0,1,1-2,0V37.75a3.83,3.83,0,0,0-3.64-4H54.5a3.83,3.83,0,0,0-3.64,4V66.14A1,1,0,0,1,49.86,67.14Z" fill="#95a6b1"/>
  <path id="Trazado_11939" data-name="Trazado 11939" d="M55.2,59.16H46.89a5.83,5.83,0,0,1-5.64-6V45.94a3.83,3.83,0,0,0-3.64-4H29.15a1,1,0,1,1,0-2h8.46a5.83,5.83,0,0,1,5.64,6v7.22a3.84,3.84,0,0,0,3.64,4H55.2a1,1,0,0,1,0,2Z" fill="#95a6b1"/>
  <path id="Trazado_11940" data-name="Trazado 11940" d="M34.79,67.14a1,1,0,0,1-1-1V24.31a3.83,3.83,0,0,0-3.63-4h-1a1,1,0,0,1,0-2h1a5.83,5.83,0,0,1,5.63,6V66.14A1,1,0,0,1,34.79,67.14Z" fill="#95a6b1"/>
  <path id="Trazado_11941" data-name="Trazado 11941" d="M81.6,67.14H10a1,1,0,0,1,0-2H81.6a1,1,0,0,1,0,2Z" fill="#95a6b1"/>
  <path id="Trazado_11942" data-name="Trazado 11942" d="M66.19,60.77a4.46,4.46,0,0,1-3.54-1.84c-1.45-2-.59-4,.09-5.7l.43-1c.7-1.71,1.4-3.41,2.08-5.13h0a1,1,0,0,1,1.92.23c.19.59,1.63,3.87,2.38,5.41.54,1.13,1.55,3.22.77,5.17A4.55,4.55,0,0,1,66.19,60.77Zm0-10.65c-.38.94-.76,1.88-1.15,2.82L64.59,54c-.69,1.68-1.06,2.77-.33,3.75a2.44,2.44,0,0,0,1.93,1,2.54,2.54,0,0,0,2.28-1.67c.42-1-.15-2.38-.71-3.56-.7-1.42-1.21-2.52-1.59-3.4Z" fill="#95a6b1"/>
  <path id="Trazado_11943" data-name="Trazado 11943" d="M16.13,36.77a7.26,7.26,0,1,1,5.31-2.32A7.26,7.26,0,0,1,16.13,36.77Zm0-12.5a5.25,5.25,0,1,0,5.25,5.25,5.25,5.25,0,0,0-5.25-5.25Z" fill="#19a500"/>
  <g id="Grupo_13753" data-name="Grupo 13753" style="mix-blend-mode: multiply;isolation: isolate">
    <path id="Trazado_11944" data-name="Trazado 11944" d="M33.43,86.78H18a1.7,1.7,0,1,1,0-3.4H33.43a1.7,1.7,0,1,1,0,3.4Z" fill="#19a500"/>
  </g>
  <g id="Grupo_13754" data-name="Grupo 13754" style="mix-blend-mode: multiply;isolation: isolate">
    <path id="Trazado_11945" data-name="Trazado 11945" d="M42.53,86.78H27.05a1.7,1.7,0,1,1,0-3.4H42.53a1.7,1.7,0,1,1,0,3.4Z" fill="#a1d005"/>
  </g>
  <g id="Grupo_13755" data-name="Grupo 13755" style="mix-blend-mode: multiply;isolation: isolate">
    <path id="Trazado_11946" data-name="Trazado 11946" d="M61.17,86.78H53.43a1.7,1.7,0,1,1,0-3.4h7.74a1.7,1.7,0,1,1,0,3.4Z" fill="#a1d005"/>
  </g>
  <g id="Grupo_13756" data-name="Grupo 13756" style="mix-blend-mode: multiply;isolation: isolate">
    <path id="Trazado_11947" data-name="Trazado 11947" d="M72.05,86.78a1.71,1.71,0,0,1-1.7-1.7,1.84,1.84,0,0,1,0-.33,1.7,1.7,0,0,1,.1-.32,1.59,1.59,0,0,1,.15-.29,2.751,2.751,0,0,1,.22-.26,1.75,1.75,0,0,1,2.4,0,1.71,1.71,0,0,1,.21.26,2.69,2.69,0,0,1,.16.29,1.68,1.68,0,0,1,.09.32,1.24,1.24,0,0,1,0,.33,1.68,1.68,0,0,1-.5,1.2,1.33,1.33,0,0,1-.26.21,1.18,1.18,0,0,1-.29.16,1.7,1.7,0,0,1-.32.1A1.84,1.84,0,0,1,72.05,86.78Z" fill="#a1d005"/>
  </g>
  <g id="Grupo_13757" data-name="Grupo 13757" style="mix-blend-mode: multiply;isolation: isolate">
    <path id="Trazado_11948" data-name="Trazado 11948" d="M56.53,76.39H18A1.7,1.7,0,1,1,18,73H56.53a1.7,1.7,0,1,1,0,3.4Z" fill="#a1d005"/>
  </g>
  <g id="Grupo_13758" data-name="Grupo 13758" style="mix-blend-mode: multiply;isolation: isolate">
    <path id="Trazado_11949" data-name="Trazado 11949" d="M18,76.39a1.71,1.71,0,0,1-1.2-.5,1.69,1.69,0,0,1,0-2.4,1.74,1.74,0,0,1,2.4,0,1.33,1.33,0,0,1,.21.26,1.18,1.18,0,0,1,.16.29,1.7,1.7,0,0,1,.1.32,1.84,1.84,0,0,1,0,.33,1.7,1.7,0,0,1-.5,1.2A1.68,1.68,0,0,1,18,76.39Z" fill="#149352"/>
  </g>
  <g id="Grupo_13759" data-name="Grupo 13759" style="mix-blend-mode: multiply;isolation: isolate">
    <path id="Trazado_11950" data-name="Trazado 11950" d="M72.05,76.39H50.15a1.7,1.7,0,1,1,0-3.4h21.9a1.7,1.7,0,0,1,0,3.4Z" fill="#19a500"/>
  </g>
  <path id="Trazado_11951" data-name="Trazado 11951" d="M60.42,28.32a1,1,0,0,1-.66-.25L49.2,18.73a1,1,0,0,1,0-1.49L59.76,7.9a.994.994,0,0,1,1.66.75v3.21H80.75a1,1,0,0,1,1,1V23.11a1,1,0,0,1-1,1H61.42v3.21a1,1,0,0,1-.59.92,1.15,1.15,0,0,1-.41.08ZM51.37,18l8.05,7.12v-2a1,1,0,0,1,1-1H79.75V13.86H60.42a1,1,0,0,1-1-1v-2Z" fill="#95a6b1"/>
</svg>
