<svg xmlns="http://www.w3.org/2000/svg" width="129.1" height="85.9" viewBox="0 0 129.1 85.9">
  <g id="Capa_9" transform="translate(-4.2 -2.9)">
    <path id="Trazado_11985" data-name="Trazado 11985" d="M16.6,40.7,10.7,48v3.3l2.2,2.2L7.4,59.1,5.7,64.5l1,8.8,12.8,14,20.4-6.2h9.5l5.4-6.3h6.8L85.5,61l11-13.1h2.3l9.8-10.4h5.2L125.9,23h3.7l2.2-9-5-3.2h-6.9l-4.4-4.4H101L99.3,8.1H89.5l-2.1-2h-16L68.9,8.6H49.3l-5.2,5.2H40.9L36.1,4.4,32.8,8v7.1l3.6,3.5-3.3,5.8L38,26.9l-2.9,9H30.6l-6.8,7.3H19.9Z" fill="none" stroke="#fff" stroke-linecap="round" stroke-linejoin="round" stroke-width="3"/>
    <circle id="Elipse_2313" data-name="Elipse 2313" cx="1.9" cy="1.9" r="1.9" transform="translate(11.4 59.2)" fill="#fff"/>
    <circle id="Elipse_2314" data-name="Elipse 2314" cx="1.9" cy="1.9" r="1.9" transform="translate(18.3 55.4)" fill="#fff"/>
    <circle id="Elipse_2315" data-name="Elipse 2315" cx="1.9" cy="1.9" r="1.9" transform="translate(23.8 47.9)" fill="#fff"/>
  </g>
</svg>
