<svg xmlns="http://www.w3.org/2000/svg" width="168.4" height="48.4" viewBox="0 0 168.4 48.4">
  <g id="Grupo_14507" data-name="Grupo 14507" transform="translate(-301.3 -468.3)">
    <g id="Grupo_10332" data-name="Grupo 10332" transform="translate(301 468)">
      <circle id="Elipse_1636" data-name="Elipse 1636" cx="23.5" cy="23.5" r="23.5" transform="translate(1 1)" fill="none" stroke="#fff" stroke-linecap="round" stroke-linejoin="round" stroke-width="1.4"/>
      <g id="Grupo_14503" data-name="Grupo 14503">
        <circle id="Elipse_2353" data-name="Elipse 2353" cx="6.721" cy="6.721" r="6.721" transform="translate(8.916 27.39)" fill="none" stroke="#fff" stroke-linecap="round" stroke-linejoin="round" stroke-width="1.4"/>
        <circle id="Elipse_2354" data-name="Elipse 2354" cx="2.968" cy="2.968" r="2.968" transform="translate(12.668 31.142)" fill="none" stroke="#fff" stroke-linecap="round" stroke-linejoin="round" stroke-width="1.4"/>
        <path id="Trazado_12363" data-name="Trazado 12363" d="M17.233,27.753s7.14-4.909,14.169,0" fill="none" stroke="#fff" stroke-linejoin="round" stroke-width="1.4"/>
        <path id="Trazado_12364" data-name="Trazado 12364" d="M20.915,38.017a5.7,5.7,0,0,0,7.14,0" fill="none" stroke="#fff" stroke-linejoin="round" stroke-width="1.4"/>
        <circle id="Elipse_2355" data-name="Elipse 2355" cx="6.721" cy="6.721" r="6.721" transform="translate(26.643 27.39)" fill="none" stroke="#fff" stroke-linecap="round" stroke-linejoin="round" stroke-width="1.4"/>
        <circle id="Elipse_2356" data-name="Elipse 2356" cx="2.968" cy="2.968" r="2.968" transform="translate(30.396 31.142)" fill="none" stroke="#fff" stroke-linecap="round" stroke-linejoin="round" stroke-width="1.4"/>
        <line id="Línea_2695" data-name="Línea 2695" x2="2.759" transform="translate(23.139 28.873)" fill="none" stroke="#fff" stroke-linecap="round" stroke-linejoin="round" stroke-width="1.4"/>
        <path id="Trazado_12365" data-name="Trazado 12365" d="M29.227,13.514l1.69-5.3,6.213-.046S36.444,9.722,33.2,12.1a8.72,8.72,0,0,1-8.679,1.1,9.516,9.516,0,0,0-10.493,2.285,9.3,9.3,0,0,0-2.344,6.486,9.849,9.849,0,0,1,8.177-3.381,8.566,8.566,0,0,1,6.989,4.294,7.136,7.136,0,0,0,6.989-5.39,10.174,10.174,0,0,0-.446-4.94" fill="none" stroke="#fff" stroke-linecap="round" stroke-linejoin="round" stroke-width="1.4"/>
        <path id="Trazado_12366" data-name="Trazado 12366" d="M11.685,21.965s1.241-5.008,7.549-6.226" fill="none" stroke="#fff" stroke-linecap="round" stroke-linejoin="round" stroke-width="1.4"/>
        <line id="Línea_2696" data-name="Línea 2696" transform="translate(21.582 14.981)" fill="none" stroke="#fff" stroke-linecap="round" stroke-linejoin="round" stroke-width="1.4"/>
        <path id="Trazado_12367" data-name="Trazado 12367" d="M25.109,13.4s3.922,2.863,4.128,4.925a4.4,4.4,0,0,1-4.082,2.309" fill="none" stroke="#fff" stroke-linecap="round" stroke-linejoin="round" stroke-width="1.4"/>
        <line id="Línea_2697" data-name="Línea 2697" x1="0.811" y2="2.552" transform="translate(26.234 23.111)" fill="none" stroke="#fff" stroke-linecap="round" stroke-linejoin="round" stroke-width="1.4"/>
        <line id="Línea_2698" data-name="Línea 2698" x2="1.898" y2="4.908" transform="translate(29.973 22.535)" fill="none" stroke="#fff" stroke-linecap="round" stroke-linejoin="round" stroke-width="1.4"/>
      </g>
    </g>
    <g id="Grupo_14505" data-name="Grupo 14505" transform="translate(60)">
      <g id="Grupo_10332-2" data-name="Grupo 10332" transform="translate(301 468)">
        <circle id="Elipse_1636-2" data-name="Elipse 1636" cx="23.5" cy="23.5" r="23.5" transform="translate(1 1)" fill="none" stroke="#fff" stroke-linecap="round" stroke-linejoin="round" stroke-width="1.4"/>
        <g id="Grupo_14504" data-name="Grupo 14504">
          <path id="Trazado_12368" data-name="Trazado 12368" d="M15.361,10.9c-4.109-.93-5.307,1.862-5.906,2.87a12.533,12.533,0,0,1-2.44,2.219,1.766,1.766,0,0,0,.848,3.168l.056,0c1.858.1,2.951-1.089,5.136,0s3.5-1.485,3.5-1.485" fill="none" stroke="#fff" stroke-linecap="round" stroke-linejoin="round" stroke-width="1.4"/>
          <path id="Trazado_12369" data-name="Trazado 12369" d="M13.055,19.163A11.622,11.622,0,0,1,16.443,25.6c.656,4.059,3.606,4.455,3.606,4.455" fill="none" stroke="#fff" stroke-linecap="round" stroke-linejoin="round" stroke-width="1.4"/>
          <path id="Trazado_12370" data-name="Trazado 12370" d="M19.94,26.193a44.562,44.562,0,0,1,1.093,5.346c0,1.089-.874,7.723-.874,7.723h2.732l1.311-7.03.984-6.435" fill="none" stroke="#fff" stroke-linecap="round" stroke-linejoin="round" stroke-width="1.4"/>
          <path id="Trazado_12371" data-name="Trazado 12371" d="M17.268,13.081c2.514-2.252.557-4.4,0-3.464a12.148,12.148,0,0,1-2.151,2.237" fill="none" stroke="#fff" stroke-linecap="round" stroke-linejoin="round" stroke-width="1.4"/>
          <path id="Trazado_12372" data-name="Trazado 12372" d="M24.827,29s2.751-2.1,7.709-.057" fill="none" stroke="#fff" stroke-linecap="round" stroke-linejoin="round" stroke-width="1.4"/>
          <path id="Trazado_12373" data-name="Trazado 12373" d="M31.1,23.939s-.627,2.5,2.385,6.311c0,0,1.569,2.615.125,9.323H36.5l.627-10.233s5.416-6.288,2.592-11.8S30.5,14.582,29.374,14.484c-5.85-.505-3.819-5.127-12.106-1.4" fill="none" stroke="#fff" stroke-linecap="round" stroke-linejoin="round" stroke-width="1.4"/>
          <path id="Trazado_12374" data-name="Trazado 12374" d="M42.344,27.822c.154-3.5-2.626-10.285-2.626-10.285" fill="none" stroke="#fff" stroke-linecap="round" stroke-linejoin="round" stroke-width="1.4"/>
          <path id="Trazado_12375" data-name="Trazado 12375" d="M42.189,33.21c-1.175-1.046-2.347-2.582-1.978-4.158A2.055,2.055,0,0,1,42.22,27.59a1.674,1.674,0,0,1,1.363.91C44.508,30.138,42.513,33.171,42.189,33.21Z" fill="none" stroke="#fff" stroke-linecap="round" stroke-linejoin="round" stroke-width="1.4"/>
          <line id="Línea_2699" data-name="Línea 2699" transform="translate(12.71 14.088)" fill="none" stroke="#fff" stroke-linecap="round" stroke-linejoin="round" stroke-width="1.4"/>
        </g>
        <path id="Trazado_12376" data-name="Trazado 12376" d="M13.1,10.7a1.606,1.606,0,0,0-.453-2.375" fill="none" stroke="#fff" stroke-linecap="round" stroke-linejoin="round" stroke-width="1.4"/>
        <line id="Línea_2700" data-name="Línea 2700" x2="23.305" transform="translate(13.194 39.792)" fill="none" stroke="#fff" stroke-linecap="round" stroke-linejoin="round" stroke-width="1.4"/>
      </g>
    </g>
    <g id="Grupo_10332-3" data-name="Grupo 10332" transform="translate(421 468)">
      <circle id="Elipse_1636-3" data-name="Elipse 1636" cx="23.5" cy="23.5" r="23.5" transform="translate(1 1)" fill="none" stroke="#fff" stroke-linecap="round" stroke-linejoin="round" stroke-width="1.4"/>
      <g id="Grupo_14506" data-name="Grupo 14506">
        <path id="Trazado_12377" data-name="Trazado 12377" d="M21.18,27.072A10.266,10.266,0,0,1,15.7,24.314a4.916,4.916,0,0,1-1.535-3.4c-.025-1.386.681-2.568.822-3.914a12.533,12.533,0,0,0-1.024-5.8,11.956,11.956,0,0,1,10.493,6.3s2.623-5.771,10.493-6.3a10.421,10.421,0,0,0-.263,7.476c1.443,3.935-1.836,7.477-6.3,8.4" fill="none" stroke="#fff" stroke-linecap="round" stroke-linejoin="round" stroke-width="1.4"/>
        <path id="Trazado_12378" data-name="Trazado 12378" d="M20.368,13.169A16.823,16.823,0,0,1,24.3,5.037s3.8,3.672,4.329,8.132" fill="none" stroke="#fff" stroke-linecap="round" stroke-linejoin="round" stroke-width="1.4"/>
        <path id="Trazado_12379" data-name="Trazado 12379" d="M20.133,30.914a3.693,3.693,0,0,1,.73-2.67,4.271,4.271,0,0,1,3.694-1.86,4.368,4.368,0,0,1,3.8,1.792c.659,1,1.163,2.68.321,3.69-.86,1.031-2.418,1.16-3.664,1.172-1.422.015-3.074.023-4.2-.984A2.114,2.114,0,0,1,20.133,30.914Z" fill="none" stroke="#fff" stroke-linecap="round" stroke-linejoin="round" stroke-width="1.4"/>
        <line id="Línea_2701" data-name="Línea 2701" y2="12.881" transform="translate(24.658 30.093)" fill="none" stroke="#fff" stroke-linecap="round" stroke-linejoin="round" stroke-width="1.4"/>
        <path id="Trazado_12380" data-name="Trazado 12380" d="M38.7,30.3S23.594,33.877,24.8,43.963C24.8,43.963,38.9,41.924,38.7,30.3Z" fill="none" stroke="#fff" stroke-linecap="round" stroke-linejoin="round" stroke-width="1.4"/>
        <path id="Trazado_12381" data-name="Trazado 12381" d="M11.709,31.345s14.062,2.532,12.86,12.618C24.569,43.963,11.508,42.968,11.709,31.345Z" fill="none" stroke="#fff" stroke-linecap="round" stroke-linejoin="round" stroke-width="1.4"/>
        <path id="Trazado_12382" data-name="Trazado 12382" d="M17.448,37.38l7.121,6.583,7.7-6.882" fill="none" stroke="#fff" stroke-linecap="round" stroke-linejoin="round" stroke-width="1.4"/>
      </g>
      <circle id="Elipse_2357" data-name="Elipse 2357" cx="1.94" cy="1.94" r="1.94" transform="translate(40.185 17.312)" fill="none" stroke="#fff" stroke-linecap="round" stroke-linejoin="round" stroke-width="1.4"/>
      <circle id="Elipse_2358" data-name="Elipse 2358" cx="1.94" cy="1.94" r="1.94" transform="translate(4.896 25.646)" fill="none" stroke="#fff" stroke-linecap="round" stroke-linejoin="round" stroke-width="1.4"/>
      <line id="Línea_2702" data-name="Línea 2702" transform="translate(7.76 18.828)" fill="none" stroke="#fff" stroke-linecap="round" stroke-linejoin="round" stroke-width="1.4"/>
      <line id="Línea_2703" data-name="Línea 2703" transform="translate(43.263 28.226)" fill="none" stroke="#fff" stroke-linecap="round" stroke-linejoin="round" stroke-width="1.4"/>
    </g>
  </g>
</svg>
