<svg xmlns="http://www.w3.org/2000/svg" width="16.198" height="17.155" viewBox="0 0 16.198 17.155">
  <g id="Grupo_13804" data-name="Grupo 13804" transform="translate(1107.556 -738.212)">
    <path id="Path_348" data-name="Path 348" d="M-1092.058,754.667l-.513-3.842a2.87,2.87,0,0,0-2.247-2.427l-4.6-.976-4.609.923a2.866,2.866,0,0,0-2.275,2.4l-.558,3.835Z" fill="none" stroke="#00009e" stroke-linecap="round" stroke-linejoin="round" stroke-width="1.4"/>
    <path id="Path_349" data-name="Path 349" d="M-1102.264,743.744a2.869,2.869,0,0,0,2.852,2.886,2.87,2.87,0,0,0,2.886-2.852h0l.012-1.98a2.869,2.869,0,0,0-2.852-2.886,2.868,2.868,0,0,0-2.886,2.852h0Z" fill="none" stroke="#00009e" stroke-linecap="round" stroke-linejoin="round" stroke-width="1.4"/>
  </g>
</svg>
