<?xml version="1.0" encoding="utf-8"?>
<!-- Generator: Adobe Illustrator 24.0.2, SVG Export Plug-In . SVG Version: 6.00 Build 0)  -->
<svg version="1.1" id="Capa_1" xmlns="http://www.w3.org/2000/svg" xmlns:xlink="http://www.w3.org/1999/xlink" x="0px" y="0px"
	 viewBox="0 0 150 84" style="enable-background:new 0 0 150 84;" xml:space="preserve">
<style type="text/css">
	.st0{display:none;}
	.st1{fill:none;stroke:#97A5AF;stroke-width:2;stroke-linecap:round;stroke-linejoin:round;}
	.st2{fill:none;stroke:#19A500;stroke-width:2;stroke-linecap:round;stroke-linejoin:round;stroke-miterlimit:10;}
	.st3{fill:none;stroke:#97A5AF;stroke-width:2;stroke-linecap:round;stroke-linejoin:round;stroke-miterlimit:4;}
	.st4{clip-path:url(#SVGID_2_);}
	.st5{fill:none;}
	.st6{fill:#4DA12E;}
	.st7{fill:#96D200;}
</style>
<g id="Capa_2_1_" class="st0">
</g>
<g id="Capa_1_1_">
	<g>
		<path id="Trazado_12358" class="st1" d="M114.27,5.38c-10.78,0-19.51,8.73-19.51,19.51c0,4.01,1.24,7.93,3.54,11.21l-2.41,7.23
			l7.62-2.16c8.99,5.95,21.1,3.48,27.04-5.51c5.94-8.99,3.48-21.1-5.51-27.04C121.84,6.51,118.1,5.38,114.27,5.38z"/>
		<path id="Rectángulo_5112" class="st1" d="M113.33,32.07h2.58c0.98,0,1.78,0.79,1.78,1.78v1.5c0,0.98-0.79,1.78-1.78,1.78h-2.58
			c-0.98,0-1.78-0.79-1.78-1.78v-1.5C111.55,32.86,112.35,32.07,113.33,32.07z"/>
		<rect id="Rectángulo_5113" x="111.35" y="11.14" class="st1" width="6.07" height="17.69"/>
		<path class="st1" d="M85.72,56.48c-2.7-3.36-9.13-7.42-14.1-7.42s-15.2,0-15.2,0V37.79c0,0,4.87,0,14.82,0s14.49-6.83,14.49-6.83
			v25.52H85.72z"/>
		<path class="st1" d="M89.53,31.37c0-0.55-0.45-1-1-1h-1.82c-0.55,0-1,0.45-1,1v24.7c0,0.55,0.45,1,1,1h1.82c0.55,0,1-0.45,1-1
			V31.37z"/>
		<path class="st1" d="M56.12,40.81h-2.08c-0.55,0-1,0.45-1,1v3.82c0,0.26,0.11,0.52,0.29,0.7c0.19,0.19,0.44,0.29,0.7,0.29h2.08"/>
		<line class="st1" x1="69.01" y1="38.09" x2="69.01" y2="49.05"/>
		<path class="st1" d="M89.58,40.26c1.91,0,3.46,1.55,3.46,3.46s-1.55,3.46-3.46,3.46"/>
		<path class="st1" d="M57.92,49.05v0.63c0,0.54,0.44,0.98,0.98,0.98c0.86,0,1.56,0.7,1.56,1.56v9.72c0,0.86,0.7,1.56,1.56,1.56
			h3.31c0.86,0,1.56-0.7,1.56-1.56V49.05"/>
		<path id="Trazado_11781_2_" class="st1" d="M60.45,37.79V9.4H29.63"/>
		<path id="Trazado_11781_1_" class="st1" d="M21.67,20.63v29.89c0,4.75,3.85,8.61,8.61,8.61h13.67l16.51-0.04"/>
		<line id="Línea_2380" class="st1" x1="34.2" y1="30.96" x2="48.04" y2="30.96"/>
		<line id="Línea_2381" class="st1" x1="29.46" y1="40.48" x2="49.28" y2="40.48"/>
		<line id="Línea_2382" class="st1" x1="29.46" y1="48.19" x2="49.28" y2="48.19"/>
		<path id="Trazado_11848_1_" class="st2" d="M26.24,11.8c0,2.77-2.25,5.02-5.02,5.02s-5.02-2.25-5.02-5.02s2.25-5.02,5.02-5.02l0,0
			c2.76-0.01,5,2.22,5.02,4.98V11.8z"/>
		
			<rect x="36.51" y="19.72" transform="matrix(0.7071 -0.7071 0.7071 0.7071 -5.1392 36.1487)" class="st3" width="9.11" height="9.11"/>
	</g>
	<g>
		<defs>
			<rect id="SVGID_1_" x="33" y="63.07" width="84" height="20.93"/>
		</defs>
		<clipPath id="SVGID_2_">
			<use xlink:href="#SVGID_1_"  style="overflow:visible;"/>
		</clipPath>
		<g class="st4">
			<g>
				<g>
					<rect x="33" y="63.07" class="st5" width="84" height="20.93"/>
				</g>
				<g>
					<g>
						<path class="st6" d="M91.1,79.4h-8.96c-0.83,0-1.5-0.67-1.5-1.5s0.67-1.5,1.5-1.5h8.96c0.83,0,1.5,0.67,1.5,1.5
							S91.93,79.4,91.1,79.4z"/>
					</g>
					<g>
						<path class="st6" d="M100.76,79.4h-0.72c-0.83,0-1.5-0.67-1.5-1.5s0.67-1.5,1.5-1.5h0.72c0.83,0,1.5,0.67,1.5,1.5
							S101.59,79.4,100.76,79.4z"/>
					</g>
					<g>
						<path class="st6" d="M58.11,79.4h-8.87c-0.83,0-1.5-0.67-1.5-1.5s0.67-1.5,1.5-1.5h8.87c0.83,0,1.5,0.67,1.5,1.5
							S58.94,79.4,58.11,79.4z"/>
					</g>
					<g>
						<path class="st7" d="M73.18,79.4H57.54c-0.83,0-1.5-0.67-1.5-1.5s0.67-1.5,1.5-1.5h15.64c0.83,0,1.5,0.67,1.5,1.5
							S74.01,79.4,73.18,79.4z"/>
					</g>
					<g>
						<path class="st7" d="M78.72,71.77H49.24c-0.83,0-1.5-0.67-1.5-1.5s0.67-1.5,1.5-1.5h29.48c0.83,0,1.5,0.67,1.5,1.5
							S79.55,71.77,78.72,71.77z"/>
					</g>
					<g>
						<path class="st6" d="M100.76,71.77H77.81c-0.83,0-1.5-0.67-1.5-1.5s0.67-1.5,1.5-1.5h22.95c0.83,0,1.5,0.67,1.5,1.5
							S101.59,71.77,100.76,71.77z"/>
					</g>
					<g>
						<path class="st6" d="M49.78,71.77h-0.54c-0.83,0-1.5-0.67-1.5-1.5s0.67-1.5,1.5-1.5h0.54c0.83,0,1.5,0.67,1.5,1.5
							S50.61,71.77,49.78,71.77z"/>
					</g>
				</g>
			</g>
		</g>
	</g>
	<rect class="st5" width="150" height="84"/>
</g>
</svg>
