<?xml version="1.0" encoding="utf-8"?>
<!-- Generator: Adobe Illustrator 24.0.2, SVG Export Plug-In . SVG Version: 6.00 Build 0)  -->
<svg version="1.1" xmlns="http://www.w3.org/2000/svg" xmlns:xlink="http://www.w3.org/1999/xlink" x="0px" y="0px"
	 viewBox="0 0 47 47" style="enable-background:new 0 0 47 47;" xml:space="preserve">
<style type="text/css">
	.st0{display:none;}
	.st1{display:inline;fill:#9AA5AF;}
	.st2{fill:none;}
	.st3{fill:none;stroke:#FFFFFF;stroke-width:1.5;stroke-linecap:round;stroke-linejoin:round;}
	.st4{fill:none;stroke:#97A5AF;stroke-width:2;stroke-linecap:round;stroke-linejoin:round;}
	.st5{fill:none;stroke:#19A500;stroke-width:2;stroke-linecap:round;stroke-linejoin:round;stroke-miterlimit:10;}
	.st6{fill:none;stroke:#4DA12E;stroke-width:3;stroke-linecap:round;stroke-linejoin:round;stroke-miterlimit:10;}
	.st7{fill:none;stroke:#96D200;stroke-width:3;stroke-linecap:round;stroke-linejoin:round;stroke-miterlimit:10;}
</style>
<g id="Capa_2" class="st0">
	<rect x="-3.47" y="-4.1" class="st1" width="55.38" height="55.38"/>
</g>
<g id="Capa_1">
	<rect class="st2" width="47" height="47"/>
	<g id="Grupo_13388_1_" transform="translate(0.082 0.186)">
		<g id="Grupo_13062_1_" transform="translate(5.951 5.012)">
			<path id="Trazado_11668_1_" class="st3" d="M32.25,20.59V34.2L3.89,34.3V20.74"/>
			<path id="Trazado_11669_1_" class="st3" d="M6.22,5.24V2.3h18.94l4.71,5.07v13.49"/>
			<line id="Línea_2307_1_" class="st3" x1="6.22" y1="21.11" x2="6.22" y2="16.48"/>
			<line id="Línea_2308_1_" class="st3" x1="12.62" y1="11.07" x2="26.31" y2="11.07"/>
			<line id="Línea_2309_1_" class="st3" x1="12.62" y1="14.86" x2="26.31" y2="14.86"/>
			<line id="Línea_2310_1_" class="st3" x1="12.62" y1="18.25" x2="26.31" y2="18.25"/>
			<path id="Trazado_11670_1_" class="st3" d="M6.13,18.43l-2.22,2.22l14.18,3.48"/>
			<path id="Trazado_11671_1_" class="st3" d="M30.03,18.43l2.22,2.22l-14.13,3.48"/>
		</g>
		<g id="Grupo_13063_1_" transform="translate(4.821 9.867)">
			<circle id="Elipse_2196_1_" class="st3" cx="7.28" cy="6.13" r="3.47"/>
		</g>
		<path id="Trazado_11672_1_" class="st3" d="M30.9,7.32v5.08h4.37"/>
	</g>
</g>
</svg>
