<?xml version="1.0" encoding="utf-8"?>
<!-- Generator: Adobe Illustrator 24.0.2, SVG Export Plug-In . SVG Version: 6.00 Build 0)  -->
<svg version="1.1" id="Layer_1" xmlns="http://www.w3.org/2000/svg" xmlns:xlink="http://www.w3.org/1999/xlink" x="0px" y="0px"
	 width="47px" height="47px" viewBox="0 0 47 47" style="enable-background:new 0 0 47 47;" xml:space="preserve">
<style type="text/css">
	.st0{fill:none;}
	.st1{fill:#FFFFFF;}
</style>
<g id="Group_11143" transform="translate(-69.358)">
	<g id="Rectangle_4056">
		<rect x="69.4" class="st0" width="47" height="47"/>
	</g>
	<g id="Group_11139">
		<g id="Ellipse_1802">
			<path class="st1" d="M80.3,20.9c-3.1,0-5.6-2.5-5.6-5.6s2.5-5.6,5.6-5.6s5.6,2.5,5.6,5.6S83.4,20.9,80.3,20.9z M80.3,11.2
				c-2.2,0-4.1,1.8-4.1,4.1s1.8,4.1,4.1,4.1s4.1-1.8,4.1-4.1S82.5,11.2,80.3,11.2z"/>
		</g>
		<g id="Ellipse_1803">
			<path class="st1" d="M83.1,39.3c-2.8,0-5.2-2.3-5.2-5.2s2.3-5.2,5.2-5.2s5.2,2.3,5.2,5.2S85.9,39.3,83.1,39.3z M83.1,30.6
				c-2,0-3.6,1.6-3.6,3.6s1.6,3.6,3.6,3.6s3.6-1.6,3.6-3.6S85.1,30.6,83.1,30.6z"/>
		</g>
		<g id="Ellipse_1804">
			<path class="st1" d="M106.8,23.1c-2.4,0-4.3-1.9-4.3-4.3s1.9-4.3,4.3-4.3s4.3,1.9,4.3,4.3S109.1,23.1,106.8,23.1z M106.8,16.1
				c-1.5,0-2.7,1.2-2.7,2.7s1.2,2.7,2.7,2.7s2.7-1.2,2.7-2.7S108.3,16.1,106.8,16.1z"/>
		</g>
		<g id="Ellipse_1805">
			<path class="st1" d="M101.7,41.6c-2.2,0-4-1.8-4-4c0-2.2,1.8-4,4-4c2.2,0,4,1.8,4,4C105.7,39.8,103.9,41.6,101.7,41.6z
				 M101.7,35.1c-1.3,0-2.4,1.1-2.4,2.4s1.1,2.4,2.4,2.4s2.4-1.1,2.4-2.4S103,35.1,101.7,35.1z"/>
		</g>
		<g id="Ellipse_1806">
			<path class="st1" d="M95.6,12.7c-2,0-3.6-1.6-3.6-3.6s1.6-3.6,3.6-3.6s3.6,1.6,3.6,3.6S97.6,12.7,95.6,12.7z M95.6,7
				c-1.1,0-2,0.9-2,2s0.9,2,2,2s2-0.9,2-2S96.8,7,95.6,7z"/>
		</g>
		<g id="Ellipse_1807">
			<path class="st1" d="M93.8,27.4c-2.7,0-5-2.2-5-5c0-2.7,2.2-5,5-5c2.7,0,5,2.2,5,5C98.8,25.1,96.6,27.4,93.8,27.4z M93.8,19
				c-1.9,0-3.4,1.5-3.4,3.4s1.5,3.4,3.4,3.4s3.4-1.5,3.4-3.4S95.7,19,93.8,19z"/>
		</g>
		<g id="Line_1948">
			<path class="st1" d="M94.5,19C94.4,19,94.4,19,94.5,19c-0.5-0.1-0.8-0.4-0.8-0.9l0.7-6.4c0-0.4,0.4-0.7,0.9-0.7
				c0.4,0,0.7,0.4,0.7,0.9l-0.7,6.4C95.2,18.7,94.9,19,94.5,19z"/>
		</g>
		<g id="Line_1949">
			<path class="st1" d="M97.9,22c-0.3,0-0.7-0.2-0.8-0.6c-0.1-0.4,0.1-0.9,0.5-1l5.5-1.6c0.4-0.1,0.9,0.1,1,0.5
				c0.1,0.4-0.1,0.9-0.5,1L98.1,22C98,22,97.9,22,97.9,22z"/>
		</g>
		<g id="Line_1950">
			<path class="st1" d="M100.2,35.5c-0.3,0-0.6-0.2-0.7-0.4L95,26.5c-0.2-0.4-0.1-0.9,0.3-1.1c0.4-0.2,0.9-0.1,1.1,0.3l4.6,8.5
				c0.2,0.4,0.1,0.9-0.3,1.1C100.5,35.5,100.3,35.5,100.2,35.5z"/>
		</g>
		<g id="Line_1951">
			<path class="st1" d="M86.1,31.8c-0.2,0-0.4-0.1-0.5-0.2c-0.3-0.3-0.3-0.8-0.1-1.1l4.9-5.5c0.3-0.3,0.8-0.3,1.1-0.1
				c0.3,0.3,0.3,0.8,0.1,1.1l-4.9,5.5C86.5,31.7,86.3,31.8,86.1,31.8z"/>
		</g>
		<g id="Line_1952">
			<path class="st1" d="M90.3,20.9c-0.1,0-0.2,0-0.3-0.1l-5.6-2.7c-0.4-0.2-0.6-0.7-0.4-1c0.2-0.4,0.7-0.6,1-0.4l5.6,2.7
				c0.4,0.2,0.6,0.7,0.4,1C90.9,20.8,90.6,20.9,90.3,20.9z"/>
		</g>
	</g>
</g>
</svg>
