<?xml version="1.0" encoding="utf-8"?>
<!-- Generator: Adobe Illustrator 24.0.2, SVG Export Plug-In . SVG Version: 6.00 Build 0)  -->
<svg version="1.1" id="Layer_1" xmlns="http://www.w3.org/2000/svg" xmlns:xlink="http://www.w3.org/1999/xlink" x="0px" y="0px"
	 viewBox="0 0 46 46" style="enable-background:new 0 0 46 46;" xml:space="preserve">
<style type="text/css">
	.st0{fill:none;}
	.st1{fill:#FFFFFF;}
	.st2{fill:#EFEF00;}
</style>
<g id="Group_3195" transform="translate(5042 -1660)">
	<g id="Rectangle_1199">
		<rect x="-5042" y="1660" class="st0" width="46" height="46"/>
	</g>
	<g id="icon_ocenza_desktop_redes_sociales_facebook" transform="translate(-5098.253 -1534.527)">
		<g id="Grupo_6815">
			<g id="Grupo_6814">
				<g id="Trazado_5853">
					<path class="st1" d="M78.8,3238.7c-2.3,0-4.6-0.4-6.9-1.2c-5.2-1.8-9.4-5.6-11.8-10.6c-1.3-2.8-2.1-5.9-2.1-9
						c0-0.7,0-1.4,0.1-2.1c0.1-0.7,0.7-1.2,1.4-1.1c0.7,0.1,1.2,0.7,1.1,1.4c-0.1,0.6-0.1,1.2-0.1,1.8c0,2.7,0.6,5.5,1.8,7.9
						c4.4,9.1,15.3,12.9,24.3,8.5c4.4-2.1,7.7-5.8,9.3-10.4s1.3-9.5-0.8-13.9s-5.8-7.7-10.4-9.3c-4.6-1.6-9.5-1.3-13.9,0.8
						c-0.6,0.3-1.4,0-1.7-0.6c-0.3-0.6,0-1.4,0.6-1.7c5-2.4,10.6-2.7,15.8-0.9c5.2,1.8,9.4,5.6,11.8,10.6c2.4,5,2.7,10.6,0.9,15.8
						s-5.6,9.4-10.6,11.8C85,3238.1,81.9,3238.7,78.8,3238.7z"/>
				</g>
			</g>
		</g>
		<g id="Trazado_5854">
			<path class="st2" d="M63.5,3212.6C63.5,3212.6,63.5,3212.6,63.5,3212.6c-1.5,0-2.9-0.6-3.9-1.6s-1.6-2.4-1.6-3.9s0.6-2.8,1.6-3.8
				c1-1,2.4-1.6,3.9-1.6c2.9,0,5.4,2.4,5.4,5.4c0,0,0,0.1,0,0.1c0,1.5-0.6,2.8-1.6,3.8C66.3,3212,65,3212.6,63.5,3212.6z
				 M63.5,3204.2c-0.8,0-1.5,0.3-2.1,0.8c-0.6,0.5-0.9,1.3-0.9,2.1c0,0.8,0.3,1.5,0.8,2.1s1.3,0.9,2.1,0.9c0.8,0,1.5-0.3,2.1-0.8
				c0.6-0.5,0.9-1.3,0.9-2.1v-0.1C66.4,3205.5,65.1,3204.2,63.5,3204.2C63.5,3204.2,63.5,3204.2,63.5,3204.2z M67.7,3207.2
				L67.7,3207.2L67.7,3207.2z"/>
		</g>
		<g id="Grupo_6016">
			<g id="Trazado_4951">
				<path class="st1" d="M78.2,3228.8c-0.7,0-1.2-0.6-1.2-1.2v-13.9c0-2.6,2.1-4.8,4.8-4.8h1.5c0.7,0,1.2,0.6,1.2,1.2
					s-0.6,1.2-1.2,1.2h-1.5c-1.2,0-2.3,1-2.3,2.3v13.9C79.4,3228.2,78.9,3228.8,78.2,3228.8z"/>
			</g>
			<g id="Línea_636">
				<path class="st1" d="M83.2,3218.6h-9.3c-0.7,0-1.2-0.6-1.2-1.2s0.6-1.2,1.2-1.2h9.3c0.7,0,1.2,0.6,1.2,1.2
					S83.9,3218.6,83.2,3218.6z"/>
			</g>
		</g>
	</g>
</g>
</svg>
