<svg xmlns="http://www.w3.org/2000/svg" width="29.058" height="29.048" viewBox="0 0 29.058 29.048">
  <g id="icon_ocenza_desktop_redes_sociales_instagram" data-name="icon ocenza desktop redes sociales instagram" transform="translate(1 1.041)">
    <g id="Grupo_6813" data-name="Grupo 6813" transform="translate(0.053 0)">
      <g id="Grupo_6812" data-name="Grupo 6812">
        <path id="Trazado_5851" data-name="Trazado 5851" d="M122.9,3199.869a13.481,13.481,0,1,1-7.624,12.146,12.948,12.948,0,0,1,.066-1.331" transform="translate(-115.273 -3198.527)" fill="none" stroke="#fff" stroke-linecap="round" stroke-linejoin="round" stroke-width="2"/>
      </g>
    </g>
    <path id="Trazado_5852" data-name="Trazado 5852" d="M121.048,3205.872a2.9,2.9,0,1,1,0-.053C121.049,3205.836,121.049,3205.854,121.048,3205.872Z" transform="translate(-115.196 -3199.888)" fill="none" stroke="#efef00" stroke-linecap="round" stroke-linejoin="round" stroke-width="2"/>
    <path id="Rectángulo_1820" data-name="Rectángulo 1820" d="M129.485,3210.2H135.2a2.553,2.553,0,0,1,2.554,2.554h0v5.713a2.554,2.554,0,0,1-2.554,2.554h-5.713a2.554,2.554,0,0,1-2.553-2.554h0v-5.709a2.553,2.553,0,0,1,2.55-2.558Z" transform="translate(-118.81 -3202.121)" fill="none" stroke="#fff" stroke-linecap="round" stroke-linejoin="round" stroke-width="2"/>
    <ellipse id="Elipse_670" data-name="Elipse 670" cx="1.66" cy="1.66" rx="1.66" ry="1.66" transform="translate(11.869 11.828)" fill="none" stroke="#fff" stroke-linecap="round" stroke-linejoin="round" stroke-width="2"/>
  </g>
</svg>
