<svg xmlns="http://www.w3.org/2000/svg" width="29.058" height="29.048" viewBox="0 0 29.058 29.048">
  <g id="icon_ocenza_desktop_redes_sociales_twitter" data-name="icon ocenza desktop redes sociales twitter" transform="translate(1 1.04)">
    <g id="Grupo_6810" data-name="Grupo 6810" transform="translate(0.053 0)">
      <g id="Grupo_6809" data-name="Grupo 6809">
        <path id="Trazado_5849" data-name="Trazado 5849" d="M234.782,3199.869a13.48,13.48,0,1,1-7.624,12.146,12.942,12.942,0,0,1,.066-1.331" transform="translate(-227.158 -3198.527)" fill="none" stroke="#fff" stroke-linecap="round" stroke-linejoin="round" stroke-width="2"/>
      </g>
    </g>
    <path id="Trazado_5850" data-name="Trazado 5850" d="M232.934,3205.872a2.9,2.9,0,1,1,0-.053Z" transform="translate(-227.081 -3199.888)" fill="none" stroke="#efef00" stroke-linecap="round" stroke-linejoin="round" stroke-width="2"/>
    <g id="Grupo_6811" data-name="Grupo 6811" transform="translate(7.191 8.677)">
      <path id="Trazado_4961" data-name="Trazado 4961" d="M241.5,3218.825a4.789,4.789,0,0,1-4.032,1.153c2.067,2.068,11.174,2.982,11.561-5.914a2.3,2.3,0,0,0,.017-.293c0-.02,0-.045,0-.066s0-.049,0-.078h-.008a.492.492,0,0,0,0-.078l2-2.484-2.635,1.03a2.5,2.5,0,0,0-4.362,1.672,2.325,2.325,0,0,0,.042.449" transform="translate(-237.472 -3211.065)" fill="none" stroke="#fff" stroke-linecap="round" stroke-linejoin="round" stroke-width="2"/>
      <path id="Trazado_4962" data-name="Trazado 4962" d="M244.546,3214.469a7.141,7.141,0,0,1-5.177-2.582c-.873,2.479-.548,5.531,2.59,7.187" transform="translate(-237.927 -3211.318)" fill="none" stroke="#fff" stroke-linecap="round" stroke-linejoin="round" stroke-width="2"/>
    </g>
  </g>
</svg>
