<?xml version="1.0" encoding="utf-8"?>
<!-- Generator: Adobe Illustrator 24.0.2, SVG Export Plug-In . SVG Version: 6.00 Build 0)  -->
<svg version="1.1" id="Layer_1" xmlns="http://www.w3.org/2000/svg" xmlns:xlink="http://www.w3.org/1999/xlink" x="0px" y="0px"
	 viewBox="0 0 46 46" style="enable-background:new 0 0 46 46;" xml:space="preserve">
<style type="text/css">
	.st0{fill:none;}
	.st1{fill:#FFFFFF;}
	.st2{fill:#EFEF00;}
</style>
<g id="Group_3197" transform="translate(4933 -1660)">
	<g id="Rectangle_1201">
		<rect x="-4933" y="1660" class="st0" width="46" height="46"/>
	</g>
	<g id="icon_ocenza_desktop_redes_sociales_youtube" transform="translate(-5101.138 -1534.527)">
		<g id="Grupo_6807">
			<g id="Grupo_6806">
				<g id="Trazado_5847">
					<path class="st1" d="M190.7,3238.7c-7.7,0-15.1-4.3-18.7-11.7c-1.3-2.8-2.1-5.9-2.1-9c0-0.7,0-1.4,0.1-2.1
						c0.1-0.7,0.7-1.2,1.4-1.1c0.7,0.1,1.2,0.7,1.1,1.4c-0.1,0.6-0.1,1.2-0.1,1.8c0,2.7,0.6,5.5,1.8,7.9c4.4,9.1,15.3,12.9,24.3,8.5
						c4.4-2.1,7.7-5.8,9.3-10.4c1.6-4.6,1.3-9.5-0.8-13.9c-4.4-9.1-15.3-12.9-24.3-8.5c-0.6,0.3-1.4,0-1.7-0.6
						c-0.3-0.6,0-1.4,0.6-1.7c5-2.4,10.6-2.7,15.8-0.9c5.2,1.8,9.4,5.6,11.8,10.6c2.4,5,2.7,10.6,0.9,15.8
						c-1.8,5.2-5.6,9.4-10.6,11.8C196.8,3238.1,193.7,3238.7,190.7,3238.7z"/>
				</g>
			</g>
		</g>
		<g id="Trazado_5848">
			<path class="st2" d="M175.4,3212.6C175.4,3212.6,175.4,3212.6,175.4,3212.6c-3,0-5.5-2.5-5.4-5.5c0-1.5,0.6-2.8,1.6-3.8
				c1-1,2.5-1.6,3.9-1.6c2.9,0,5.4,2.4,5.4,5.4c0,0,0,0.1,0,0.1c0,1.5-0.6,2.8-1.6,3.8C178.2,3212,176.8,3212.6,175.4,3212.6z
				 M175.4,3204.2c-1.6,0-2.9,1.3-2.9,2.9c0,1.6,1.3,2.9,2.9,3c0.8,0,1.5-0.3,2.1-0.8c0.6-0.5,0.9-1.3,0.9-2.1v-0.1
				C178.3,3205.5,177,3204.2,175.4,3204.2C175.4,3204.2,175.4,3204.2,175.4,3204.2z M179.6,3207.2L179.6,3207.2L179.6,3207.2z"/>
		</g>
		<g id="Grupo_6808">
			<g id="Rectángulo_1821">
				<path class="st1" d="M195.9,3227.2h-10.4c-3.3,0-6-2.7-6-6v-5.2c0-3.3,2.7-6,6-6l0,0h10.4c3.3,0,6,2.7,6,6v5.2
					C201.9,3224.5,199.2,3227.2,195.9,3227.2z M185.5,3212.5c-1.9,0-3.5,1.6-3.5,3.5v5.2c0,1.9,1.6,3.5,3.5,3.5h10.4
					c1.9,0,3.5-1.6,3.5-3.5v-5.2c0-1.9-1.6-3.5-3.5-3.5H185.5z"/>
			</g>
			<g id="Trazado_4958">
				<path class="st1" d="M189.4,3222.5c-0.3,0-0.6-0.1-0.9-0.4c-0.5-0.5-0.5-1.3,0-1.8l1.8-1.8l-1.8-1.8c-0.5-0.5-0.5-1.3,0-1.8
					c0.5-0.5,1.3-0.5,1.8,0l2.7,2.7c0.5,0.5,0.5,1.3,0,1.8l-2.7,2.7C190,3222.4,189.7,3222.5,189.4,3222.5z"/>
			</g>
		</g>
	</g>
</g>
</svg>
