<svg xmlns="http://www.w3.org/2000/svg" width="14.706" height="20.574" viewBox="0 0 14.706 20.574">
  <g id="Grupo_6636" data-name="Grupo 6636" transform="translate(0.75 0.752)">
    <line id="Línea_1013" data-name="Línea 1013" y2="1.917" transform="translate(5.229 6.708)" fill="none" stroke="#19a500" stroke-linecap="round" stroke-linejoin="round" stroke-width="1.5"/>
    <line id="Línea_1014" data-name="Línea 1014" y2="1.917" transform="translate(8.036 6.708)" fill="none" stroke="#19a500" stroke-linecap="round" stroke-linejoin="round" stroke-width="1.5"/>
    <path id="Trazado_11414" data-name="Trazado 11414" d="M25.32,20.53l3.76,1.691a2.847,2.847,0,0,1,1.412,1.97v6.781" transform="translate(-17.286 -11.9)" fill="none" stroke="#19a500" stroke-linecap="round" stroke-linejoin="round" stroke-width="1.5"/>
    <path id="Trazado_11415" data-name="Trazado 11415" d="M15.867,20.52l-3.815,1.7a2.847,2.847,0,0,0-1.412,1.97v2.145l.005,1.144v3.081a.406.406,0,0,0,.41.41h12.79" transform="translate(-10.64 -11.896)" fill="none" stroke="#19a500" stroke-linecap="round" stroke-linejoin="round" stroke-width="1.5"/>
    <line id="Línea_1016" data-name="Línea 1016" x1="1.404" y1="1.591" transform="translate(5.229 8.625)" fill="none" stroke="#19a500" stroke-linecap="round" stroke-linejoin="round" stroke-width="1.5"/>
    <line id="Línea_1017" data-name="Línea 1017" y1="1.591" x2="1.404" transform="translate(6.632 8.625)" fill="none" stroke="#19a500" stroke-linecap="round" stroke-linejoin="round" stroke-width="1.5"/>
    <path id="Trazado_5701" data-name="Trazado 5701" d="M23.2,12.926a2.644,2.644,0,1,1-5.287,0" transform="translate(-13.93 -8.458)" fill="none" stroke="#19a500" stroke-linecap="round" stroke-linejoin="round" stroke-width="1.5"/>
    <path id="Trazado_5702" data-name="Trazado 5702" d="M17.9,9.23V7.518a2.721,2.721,0,0,1,2.384-2.745,2.644,2.644,0,0,1,2.9,2.631V9.23" transform="translate(-13.929 -4.761)" fill="none" stroke="#19a500" stroke-linecap="round" stroke-linejoin="round" stroke-width="1.5"/>
  </g>
</svg>
