<svg xmlns="http://www.w3.org/2000/svg" width="25.3" height="34.029" viewBox="0 0 25.3 34.029">
  <g id="icon_territorio_casanare_buscador_perfiles" transform="translate(-10.2 -6.471)">
    <g id="Grupo_6636">
      <g id="Línea_1013">
        <path id="Trazado_11949" data-name="Trazado 11949" d="M21.2,22.7a.86.86,0,0,1-.8-.8V18.6a.8.8,0,1,1,1.6,0h0V22C21.9,22.4,21.6,22.8,21.2,22.7Z" fill="#99a4ad"/>
      </g>
      <g id="Línea_1014">
        <path id="Trazado_11950" data-name="Trazado 11950" d="M25.9,22.7a.86.86,0,0,1-.8-.8V18.6a.8.8,0,0,1,1.6,0h0V22A.666.666,0,0,1,25.9,22.7Z" fill="#99a4ad"/>
      </g>
      <g id="Trazado_11414">
        <path id="Trazado_11951" data-name="Trazado 11951" d="M34.7,40.5a.86.86,0,0,1-.8-.8V28.3a3.749,3.749,0,0,0-2-2.7l-6.3-2.8a.841.841,0,0,1-.4-1.1.819.819,0,0,1,1-.4l6.4,2.9a5.736,5.736,0,0,1,2.9,3.9V39.7A.736.736,0,0,1,34.7,40.5Z" fill="#99a4ad"/>
      </g>
      <g id="Trazado_11415">
        <path id="Trazado_11952" data-name="Trazado 11952" d="M34.7,40.5H13A1.538,1.538,0,0,1,11.5,39h0V30.7a.86.86,0,0,1,.8-.8h0a.789.789,0,0,1,.8.8h0v8.2H34.7a.86.86,0,0,1,.8.8A.736.736,0,0,1,34.7,40.5Z" fill="#99a4ad"/>
      </g>
      <g id="Trazado_11415-2">
        <path id="Trazado_11953" data-name="Trazado 11953" d="M17.9,24.2a.86.86,0,0,1-.8-.8.752.752,0,0,1,.5-.7l3.3-1.5a.828.828,0,1,1,.7,1.5h-.1l-3.3,1.5Z" fill="#99a4ad"/>
      </g>
      <g id="Línea_1016">
        <path id="Trazado_11954" data-name="Trazado 11954" d="M23.5,25.5a.864.864,0,0,1-.6-.3l-2.4-2.7a.781.781,0,1,1,1.2-1h0l2.4,2.7a.713.713,0,0,1-.1,1.1h0A.764.764,0,0,1,23.5,25.5Z" fill="#99a4ad"/>
      </g>
      <g id="Línea_1017">
        <path id="Trazado_11955" data-name="Trazado 11955" d="M23.5,25.5a.764.764,0,0,1-.5-.2.785.785,0,0,1,0-1.1l2.4-2.7a.781.781,0,0,1,1.2,1l-2.4,2.7A.908.908,0,0,1,23.5,25.5Z" fill="#99a4ad"/>
      </g>
      <g id="Trazado_5701">
        <path id="Trazado_11956" data-name="Trazado 11956" d="M23.5,20.2a5.335,5.335,0,0,1-5.3-5.3h0a.8.8,0,1,1,1.6,0,3.7,3.7,0,0,0,7.4,0h0a.8.8,0,1,1,1.6,0A5.271,5.271,0,0,1,23.5,20.2Z" fill="#99a4ad"/>
      </g>
      <g id="Trazado_5702">
        <path id="Trazado_11957" data-name="Trazado 11957" d="M28,15.7a.86.86,0,0,1-.8-.8V11.4a3.686,3.686,0,0,0-4-3.3A3.821,3.821,0,0,0,19.8,12v2.9a.8.8,0,1,1-1.6,0V12A5.357,5.357,0,0,1,23,6.5a5.286,5.286,0,0,1,5.8,4.8v3.6a.789.789,0,0,1-.8.8Z" fill="#99a4ad"/>
      </g>
    </g>
    <g id="Elipse_2151">
      <path id="Trazado_11958" data-name="Trazado 11958" d="M13.5,29.3A3.3,3.3,0,1,1,16.8,26h0A3.329,3.329,0,0,1,13.5,29.3Zm0-5A1.7,1.7,0,1,0,15.2,26a1.752,1.752,0,0,0-1.7-1.7Z" fill="#19a500"/>
    </g>
  </g>
</svg>
