<svg xmlns="http://www.w3.org/2000/svg" width="28.7" height="24.6" viewBox="0 0 28.7 24.6">
  <g id="Grupo_12979" transform="translate(-9.2 -11.2)">
    <g id="Trazado_9055">
      <path id="Trazado_11943" data-name="Trazado 11943" d="M34.2,35.8H12.8a3.608,3.608,0,0,1-3.6-3.7V18.9a3.585,3.585,0,0,1,3.6-3.6h3.9l1.6-3.6a.792.792,0,0,1,.8-.5h9.4a.752.752,0,0,1,.7.5l1.6,3.6h3.5a3.585,3.585,0,0,1,3.6,3.6h0V32.1a3.63,3.63,0,0,1-3.7,3.7ZM12.8,16.9a2.006,2.006,0,0,0-2,2V32.2a1.923,1.923,0,0,0,1.9,2H34.3a2.006,2.006,0,0,0,2-2V18.9a1.923,1.923,0,0,0-1.9-2H30.3a.752.752,0,0,1-.7-.5L28,12.8H19.6L18,16.4a.752.752,0,0,1-.7.5Z" fill="#99a4ad"/>
    </g>
    <g id="Elipse_1335">
      <path id="Trazado_11944" data-name="Trazado 11944" d="M23.5,29.4a4.9,4.9,0,1,1,4.9-4.9h0A4.908,4.908,0,0,1,23.5,29.4Zm0-8.3a3.3,3.3,0,1,0,3.3,3.3h0A3.329,3.329,0,0,0,23.5,21.1Z" fill="#19a500"/>
    </g>
  </g>
</svg>
