<svg xmlns="http://www.w3.org/2000/svg" width="25.3" height="31.6" viewBox="0 0 25.3 31.6">
  <g id="Grupo_13560" data-name="Grupo 13560" transform="translate(-10.9 -7.7)">
    <g id="Trazado_11413">
      <path id="Trazado_11945" data-name="Trazado 11945" d="M35.3,39.3H13.7a.86.86,0,0,1-.8-.8V17.6a.8.8,0,0,1,1.6,0h0V37.7H34.6V10.5H19.8a.86.86,0,0,1-.8-.8.86.86,0,0,1,.8-.8H35.4a.86.86,0,0,1,.8.8V38.6a.876.876,0,0,1-.9.7Z" fill="#99a4ad"/>
    </g>
    <g id="Rectángulo_4557">
      <path id="Trazado_11946" data-name="Trazado 11946" d="M30,27.5H19.3a.86.86,0,0,1-.8-.8V15.9a.86.86,0,0,1,.8-.8H30a.86.86,0,0,1,.8.8V26.6A.882.882,0,0,1,30,27.5Zm-9.9-1.6h9.1V16.8H20.1Z" fill="#99a4ad"/>
    </g>
    <g id="Línea_1491">
      <path id="Trazado_11947" data-name="Trazado 11947" d="M27.8,32.6H19.3a.8.8,0,1,1,0-1.6h8.5a.8.8,0,1,1,0,1.6Z" fill="#99a4ad"/>
    </g>
    <g id="Elipse_2151">
      <path id="Trazado_11948" data-name="Trazado 11948" d="M14.2,14.3A3.3,3.3,0,1,1,17.5,11h0A3.329,3.329,0,0,1,14.2,14.3Zm0-5A1.7,1.7,0,1,0,15.9,11h0A1.685,1.685,0,0,0,14.2,9.3Z" fill="#19a500"/>
    </g>
  </g>
</svg>
