<svg xmlns="http://www.w3.org/2000/svg" width="33.1" height="23.8" viewBox="0 0 33.1 23.8">
  <g id="Grupo_13561" data-name="Grupo 13561" transform="translate(-7.4 -11.5)">
    <g id="Elipse_2152">
      <path id="Trazado_11959" data-name="Trazado 11959" d="M10.8,18.3a3.4,3.4,0,1,1,3.4-3.4h0A3.5,3.5,0,0,1,10.8,18.3Zm0-5.2a1.8,1.8,0,1,0,1.8,1.8h0a1.793,1.793,0,0,0-1.8-1.8Z" fill="#19a500"/>
    </g>
    <g id="Grupo_13128">
      <g id="Grupo_9821">
        <g id="Rectángulo_139">
          <path id="Trazado_11960" data-name="Trazado 11960" d="M30.6,35.3H10.5a.86.86,0,0,1-.8-.8V20.8a.86.86,0,0,1,.8-.8.86.86,0,0,1,.8.8h0v13H29.8V15.2H16.6a.8.8,0,1,1,0-1.6H30.7a.86.86,0,0,1,.8.8V34.5a.876.876,0,0,1-.9.8Z" fill="#95a6b1"/>
        </g>
        <g id="Trazado_236">
          <path id="Trazado_11961" data-name="Trazado 11961" d="M39.7,35.3c-.2,0-.3,0-.4-.1l-9.1-5.9a1.012,1.012,0,0,1-.4-.7V20.3a.755.755,0,0,1,.4-.7l9.1-5.9a1.1,1.1,0,0,1,.8,0,.67.67,0,0,1,.4.7V34.5a.842.842,0,0,1-.4.7C40,35.3,39.9,35.3,39.7,35.3Zm-8.3-7.1L38.9,33V15.9l-7.5,4.9Z" fill="#95a6b1"/>
        </g>
      </g>
    </g>
  </g>
</svg>
