<svg xmlns="http://www.w3.org/2000/svg" width="25.7" height="31.3" viewBox="0 0 25.7 31.3">
  <g id="Grupo_13126" transform="translate(-10.6 -7.8)">
    <g id="Trazado_11425">
      <path id="Trazado_11937" data-name="Trazado 11937" d="M35.5,39.1H13.8a.86.86,0,0,1-.8-.8h0V17.4a.961.961,0,0,1,.7-.9.961.961,0,0,1,.9.7V37.5H34.7V10.3H19.9a.86.86,0,0,1-.8-.8.86.86,0,0,1,.8-.8H35.5a.86.86,0,0,1,.8.8V38.4a.713.713,0,0,1-.8.7Z" fill="#99a4ad"/>
    </g>
    <g id="Grupo_13060">
      <g id="Línea_1489">
        <path id="Trazado_11938" data-name="Trazado 11938" d="M30.3,29.2H19.5a.8.8,0,1,1,0-1.6H30.3a.8.8,0,1,1,0,1.6Z" fill="#99a4ad"/>
      </g>
      <g id="Línea_1492">
        <path id="Trazado_11939" data-name="Trazado 11939" d="M30.3,23.8H19.5a.8.8,0,0,1,0-1.6H30.3a.86.86,0,0,1,.8.8A.789.789,0,0,1,30.3,23.8Z" fill="#99a4ad"/>
      </g>
      <g id="Línea_1493">
        <path id="Trazado_11940" data-name="Trazado 11940" d="M30.3,18.5H19.5a.8.8,0,1,1,0-1.6H30.3a.8.8,0,1,1,0,1.6Z" fill="#99a4ad"/>
      </g>
      <g id="Línea_1491">
        <path id="Trazado_11941" data-name="Trazado 11941" d="M28,34.2H19.5a.8.8,0,1,1,0-1.6H28a.8.8,0,1,1,0,1.6Z" fill="#99a4ad"/>
      </g>
    </g>
    <g id="Elipse_2152">
      <path id="Trazado_11942" data-name="Trazado 11942" d="M14,14.6a3.4,3.4,0,1,1,3.4-3.4A3.372,3.372,0,0,1,14,14.6Zm0-5.2a1.8,1.8,0,1,0,1.8,1.8A1.793,1.793,0,0,0,14,9.4Z" fill="#19a500"/>
    </g>
  </g>
</svg>
