<?xml version="1.0" encoding="utf-8"?>
<!-- Generator: Adobe Illustrator 24.0.2, SVG Export Plug-In . SVG Version: 6.00 Build 0)  -->
<svg version="1.1" id="Capa_1" xmlns="http://www.w3.org/2000/svg" xmlns:xlink="http://www.w3.org/1999/xlink" x="0px" y="0px"
	 viewBox="0 0 47 47" style="enable-background:new 0 0 47 47;" xml:space="preserve">
<style type="text/css">
	.st0{fill:#95A6B1;}
	.st1{fill:none;}
	.st2{fill:#19A500;}
</style>
<g id="Capa_2_1_">
</g>
<g id="Capa_1_1_">
	<g>
		<g>
			<g>
				<path class="st0" d="M16.28,21.5c-0.41,0-0.75-0.34-0.75-0.75V9.43c0-0.66-0.53-1.19-1.18-1.19H9.79
					c-0.66,0-1.18,0.52-1.18,1.19v2.74c0,0.41-0.34,0.75-0.75,0.75s-0.75-0.34-0.75-0.75V9.43c0-1.48,1.2-2.69,2.68-2.69h4.56
					c1.48,0,2.68,1.21,2.68,2.69v11.32C17.03,21.16,16.69,21.5,16.28,21.5z"/>
			</g>
			<g>
				<path class="st0" d="M16.28,43.17H7.86c-0.41,0-0.75-0.34-0.75-0.75V24.38c0-0.41,0.34-0.75,0.75-0.75s0.75,0.34,0.75,0.75
					v17.29h6.92V32.3c0-0.41,0.34-0.75,0.75-0.75s0.75,0.34,0.75,0.75v10.12C17.03,42.83,16.69,43.17,16.28,43.17z"/>
			</g>
			<g>
				<path class="st0" d="M24.19,43.17c-0.41,0-0.75-0.34-0.75-0.75V30.88c0-0.41,0.34-0.75,0.75-0.75s0.75,0.34,0.75,0.75v11.54
					C24.94,42.83,24.6,43.17,24.19,43.17z"/>
			</g>
			<g>
				<path class="st0" d="M24.19,22.91c-0.41,0-0.75-0.34-0.75-0.75v-6.09c0.05-1.29-0.94-2.35-2.2-2.39l-4.96,0
					c-0.41,0-0.75-0.34-0.75-0.75s0.34-0.75,0.75-0.75h4.99c2.11,0.07,3.74,1.83,3.67,3.92v6.06C24.94,22.57,24.6,22.91,24.19,22.91
					z"/>
			</g>
			<g id="Línea_2122_2_">
				<path class="st0" d="M44.24,43.17H5.11c-0.41,0-0.75-0.34-0.75-0.75s0.34-0.75,0.75-0.75h39.13c0.41,0,0.75,0.34,0.75,0.75
					S44.65,43.17,44.24,43.17z"/>
			</g>
			<g>
				<path class="st0" d="M19.33,33.81c-4.02,0-7.29-3.27-7.29-7.29s3.27-7.29,7.29-7.29s7.29,3.27,7.29,7.29
					S23.35,33.81,19.33,33.81z M19.33,20.73c-3.19,0-5.79,2.6-5.79,5.79s2.6,5.79,5.79,5.79s5.79-2.6,5.79-5.79
					S22.52,20.73,19.33,20.73z"/>
			</g>
			<g>
				<path class="st0" d="M19.33,30.8c-2.36,0-4.28-1.92-4.28-4.28c0-2.36,1.92-4.28,4.28-4.28c2.36,0,4.28,1.92,4.28,4.28
					C23.61,28.88,21.69,30.8,19.33,30.8z M19.33,23.74c-1.53,0-2.78,1.25-2.78,2.78c0,1.53,1.25,2.78,2.78,2.78
					c1.53,0,2.78-1.25,2.78-2.78C22.11,24.99,20.86,23.74,19.33,23.74z"/>
			</g>
			<g>
				<path class="st0" d="M34.55,30.32c-2.1,0-3.8-1.71-3.8-3.8c0-2.09,1.7-3.8,3.8-3.8s3.8,1.7,3.8,3.8
					C38.35,28.62,36.65,30.32,34.55,30.32z M34.55,24.22c-1.27,0-2.3,1.03-2.3,2.3c0,1.27,1.03,2.3,2.3,2.3s2.3-1.03,2.3-2.3
					C36.85,25.25,35.82,24.22,34.55,24.22z"/>
			</g>
			<g>
				<path class="st0" d="M34.92,24.24c-0.06,0-0.12-0.01-0.17-0.02l-14-3.31c-0.4-0.1-0.65-0.5-0.56-0.9c0.1-0.4,0.5-0.65,0.9-0.56
					l14,3.31c0.4,0.1,0.65,0.5,0.56,0.9C35.57,24.01,35.26,24.24,34.92,24.24z"/>
			</g>
			<g>
				<path class="st0" d="M20.85,33.63c-0.34,0-0.65-0.23-0.73-0.57c-0.1-0.4,0.15-0.81,0.55-0.91l13.7-3.31
					c0.4-0.09,0.81,0.15,0.91,0.55c0.1,0.4-0.15,0.81-0.55,0.91l-13.7,3.31C20.97,33.62,20.91,33.63,20.85,33.63z"/>
			</g>
			<g>
				<path class="st0" d="M41.81,43.17H28.52c-0.41,0-0.75-0.34-0.75-0.75V19.78c0-2.32,1.88-4.2,4.2-4.2h6.39
					c2.32,0,4.2,1.88,4.2,4.2v22.64C42.56,42.83,42.22,43.17,41.81,43.17z M29.27,41.67h11.79V19.78c0-1.49-1.21-2.7-2.7-2.7h-6.39
					c-1.49,0-2.7,1.21-2.7,2.7V41.67z"/>
			</g>
			<g>
				<path class="st0" d="M35.01,39.58c-0.1,0-0.21-0.02-0.31-0.07c-0.38-0.17-0.54-0.62-0.37-0.99l0.99-2.17h-0.77
					c-0.26,0-0.5-0.13-0.64-0.35c-0.14-0.22-0.15-0.49-0.04-0.73l1.23-2.54c0.18-0.37,0.63-0.53,1-0.35c0.37,0.18,0.53,0.63,0.35,1
					l-0.71,1.46h0.73c0.25,0,0.49,0.13,0.63,0.34c0.14,0.21,0.16,0.48,0.05,0.72l-1.47,3.23C35.57,39.42,35.29,39.58,35.01,39.58z"
					/>
			</g>
			<g>
				<path class="st0" d="M31.97,17.08c-0.41,0-0.75-0.34-0.75-0.75v-3.58c0-0.41,0.34-0.75,0.75-0.75s0.75,0.34,0.75,0.75v3.58
					C32.72,16.74,32.38,17.08,31.97,17.08z"/>
			</g>
			<g>
				<path class="st0" d="M38.36,17.08c-0.41,0-0.75-0.34-0.75-0.75v-3.58c0-0.41,0.34-0.75,0.75-0.75s0.75,0.34,0.75,0.75v3.58
					C39.11,16.74,38.77,17.08,38.36,17.08z"/>
			</g>
			<g>
				<path class="st0" d="M39.74,14.42h-9.16c-0.41,0-0.75-0.34-0.75-0.75s0.34-0.75,0.75-0.75h9.16c0.41,0,0.75,0.34,0.75,0.75
					S40.15,14.42,39.74,14.42z"/>
			</g>
			<g>
				<path class="st0" d="M10,8.06c-0.41,0-0.75-0.34-0.75-0.75v-3.3c0-0.41,0.34-0.75,0.75-0.75s0.75,0.34,0.75,0.75v3.3
					C10.75,7.72,10.41,8.06,10,8.06z"/>
			</g>
			<g>
				<path class="st0" d="M14.58,8.06c-0.41,0-0.75-0.34-0.75-0.75v-3.3c0-0.41,0.34-0.75,0.75-0.75s0.75,0.34,0.75,0.75v3.3
					C15.33,7.72,14.99,8.06,14.58,8.06z"/>
			</g>
			<g>
				<path class="st0" d="M15.96,5.69H8.91c-0.41,0-0.75-0.34-0.75-0.75S8.5,4.19,8.91,4.19h7.05c0.41,0,0.75,0.34,0.75,0.75
					S16.37,5.69,15.96,5.69z"/>
			</g>
		</g>
		<g id="Rectángulo_5125_2_">
			<rect class="st1" width="47" height="47"/>
		</g>
		<g id="Trazado_11848_2_">
			<path class="st2" d="M7.93,22.91c-2.56,0-4.65-2.09-4.65-4.65c0-2.56,2.09-4.65,4.65-4.65c2.56-0.02,4.64,2.06,4.65,4.62
				c0,0,0,0.03,0,0.03C12.58,20.82,10.49,22.91,7.93,22.91z M7.95,15.11c0,0-0.01,0-0.01,0c-1.74,0-3.15,1.41-3.15,3.15
				c0,1.74,1.41,3.15,3.15,3.15c1.74,0,3.15-1.41,3.15-3.15v-0.03C11.07,16.51,9.67,15.11,7.95,15.11z"/>
		</g>
	</g>
</g>
</svg>
