<svg xmlns="http://www.w3.org/2000/svg" width="47" height="136.25" viewBox="0 0 47 136.25">
  <g id="Grupo_16725" data-name="Grupo 16725" transform="translate(-709 -1770)">
    <line id="Línea_2119" data-name="Línea 2119" y2="75.75" transform="translate(723.5 1828)" fill="none" stroke="#505d6c" stroke-width="1" opacity="0.29"/>
    <g id="Trazado_11273" data-name="Trazado 11273" transform="translate(719 1897.25)" fill="#fff">
      <path d="M 4.5 8 C 2.570090055465698 8 1 6.429910182952881 1 4.5 C 1 2.570090055465698 2.570090055465698 1 4.5 1 C 6.429910182952881 1 8 2.570090055465698 8 4.5 C 8 5.237659931182861 7.764450073242188 5.91195011138916 7.236249923706055 6.68632984161377 L 7.231080055236816 6.693910121917725 L 7.226049900054932 6.701580047607422 C 6.816100120544434 7.326940059661865 5.788169860839844 8 4.5 8 Z" stroke="none"/>
      <path d="M 4.5 2 C 3.121500015258789 2 2 3.121500015258789 2 4.5 C 2 5.878499984741211 3.121500015258789 7 4.5 7 C 5.472350120544434 7 6.175139904022217 6.480679988861084 6.389729976654053 6.153340339660645 L 6.399789810180664 6.13798999786377 L 6.410130023956299 6.122829914093018 C 6.929920196533203 5.360790252685547 7 4.874849796295166 7 4.5 C 7 3.121500015258789 5.878499984741211 2 4.5 2 M 4.5 0 C 6.98528003692627 0 9 2.01471996307373 9 4.5 C 9 5.424520015716553 8.721199989318848 6.283929824829102 8.062370300292969 7.249819755554199 C 7.435930252075195 8.205430030822754 6.060760021209717 9 4.5 9 C 2.01471996307373 9 0 6.98528003692627 0 4.5 C 0 2.01471996307373 2.01471996307373 0 4.5 0 Z" stroke="none" fill="#00af00"/>
    </g>
    <g id="Grupo_16163" data-name="Grupo 16163" transform="translate(709 1770)">
      <rect id="Rectángulo_5125" data-name="Rectángulo 5125" width="47" height="47" fill="none"/>
      <g id="Grupo_16160" data-name="Grupo 16160">
        <path id="Trazado_5703" data-name="Trazado 5703" d="M17.08,8.155a2.65,2.65,0,1,1,0-.037Z" fill="none" stroke="#19a500" stroke-linecap="round" stroke-linejoin="round" stroke-width="1.5"/>
        <path id="Trazado_17816" data-name="Trazado 17816" d="M32.629,17.937V18a9.146,9.146,0,0,1-1.313,4.709,9.112,9.112,0,0,1-2.024,2.332,9.054,9.054,0,0,1-4.477,1.969,8.5,8.5,0,0,1-1.292.1,1.348,1.348,0,0,1-.142,0,8.928,8.928,0,0,1-3.538-.773,6.641,6.641,0,0,1-.732-.363A9.084,9.084,0,0,1,16.3,23.54h0a8.769,8.769,0,0,1-.616-.908,8.979,8.979,0,0,1-1.211-3.645,8.254,8.254,0,0,1-.056-.949V18a9.061,9.061,0,0,1,3.569-7.228,8.5,8.5,0,0,1,1.05-.7,8.918,8.918,0,0,1,3.119-1.08,8.743,8.743,0,0,1,1.373-.106c.055,0,.106,0,.161.005a8.963,8.963,0,0,1,3.645.828,7.285,7.285,0,0,1,.767.4,8.954,8.954,0,0,1,2.781,2.508,8.382,8.382,0,0,1,.591.914,9.062,9.062,0,0,1,1.1,3.4A9.306,9.306,0,0,1,32.629,17.937Z" fill="none" stroke="#95a6b1" stroke-linecap="round" stroke-linejoin="round" stroke-width="1.5"/>
        <path id="Trazado_17817" data-name="Trazado 17817" d="M18.836,5.557a13.275,13.275,0,1,1-7.477,7.075" fill="none" stroke="#95a6b1" stroke-linecap="round" stroke-linejoin="round" stroke-width="1.5"/>
        <path id="Trazado_17818" data-name="Trazado 17818" d="M23.442,15.237a7.53,7.53,0,0,0,.242-6.345c-.055-.005-.106-.005-.161-.005a8.743,8.743,0,0,0-1.373.106,8.93,8.93,0,0,0-3.12,1.08,8.56,8.56,0,0,0-1.049.7A9.106,9.106,0,0,0,14.412,18v.04a8.254,8.254,0,0,0,.056.949" fill="none" stroke="#95a6b1" stroke-linecap="round" stroke-linejoin="round" stroke-width="1.5"/>
        <line id="Línea_3778" data-name="Línea 3778" x1="0.005" transform="translate(16.295 23.54)" fill="none" stroke="#95a6b1" stroke-linecap="round" stroke-linejoin="round" stroke-width="1.5"/>
        <path id="Trazado_17819" data-name="Trazado 17819" d="M19.03,10.073A7.5,7.5,0,0,1,22.145,15.6" fill="none" stroke="#95a6b1" stroke-linecap="round" stroke-linejoin="round" stroke-width="1.5"/>
        <path id="Trazado_17820" data-name="Trazado 17820" d="M21.095,16.665a7.5,7.5,0,0,0-5.376-3.376A9.214,9.214,0,0,0,14.412,18v.04a8.254,8.254,0,0,0,.056.949,8.979,8.979,0,0,0,1.211,3.645,8.769,8.769,0,0,0,.616.908h0a9.084,9.084,0,0,0,2.811,2.423,6.641,6.641,0,0,0,.732.363" fill="none" stroke="#95a6b1" stroke-linecap="round" stroke-linejoin="round" stroke-width="1.5"/>
        <path id="Trazado_17821" data-name="Trazado 17821" d="M20.757,18.028a7.529,7.529,0,0,0-6.345.01,8.254,8.254,0,0,0,.056.949,8.979,8.979,0,0,0,1.211,3.645,8.769,8.769,0,0,0,.616.908h0a9.084,9.084,0,0,0,2.811,2.423,6.641,6.641,0,0,0,.732.363,8.928,8.928,0,0,0,3.538.773,1.348,1.348,0,0,0,.142,0,8.5,8.5,0,0,0,1.292-.1" fill="none" stroke="#95a6b1" stroke-linecap="round" stroke-linejoin="round" stroke-width="1.5"/>
        <path id="Trazado_17822" data-name="Trazado 17822" d="M21.085,19.305a7.515,7.515,0,0,0-5.406,3.327,8.769,8.769,0,0,0,.616.908h0a9.084,9.084,0,0,0,2.811,2.423,6.641,6.641,0,0,0,.732.363,8.928,8.928,0,0,0,3.538.773,1.348,1.348,0,0,0,.142,0,8.5,8.5,0,0,0,1.292-.1,9.054,9.054,0,0,0,4.477-1.969" fill="none" stroke="#95a6b1" stroke-linecap="round" stroke-linejoin="round" stroke-width="1.5"/>
        <path id="Trazado_17823" data-name="Trazado 17823" d="M22.049,20.335a7.511,7.511,0,0,0-2.938,5.628,6.641,6.641,0,0,0,.732.363,8.928,8.928,0,0,0,3.538.773,1.348,1.348,0,0,0,.142,0,8.5,8.5,0,0,0,1.292-.1,9.054,9.054,0,0,0,4.477-1.969,9.112,9.112,0,0,0,2.024-2.332,8.859,8.859,0,0,0,.762-1.6" fill="none" stroke="#95a6b1" stroke-linecap="round" stroke-linejoin="round" stroke-width="1.5"/>
        <path id="Trazado_17824" data-name="Trazado 17824" d="M23.573,20.754a7.567,7.567,0,0,0-.192,6.345,1.348,1.348,0,0,0,.142,0,8.5,8.5,0,0,0,1.292-.1,9.054,9.054,0,0,0,4.477-1.969,9.112,9.112,0,0,0,2.024-2.332A9.146,9.146,0,0,0,32.629,18v-.061a9.306,9.306,0,0,0-.061-.994" fill="none" stroke="#95a6b1" stroke-linecap="round" stroke-linejoin="round" stroke-width="1.5"/>
        <path id="Trazado_17825" data-name="Trazado 17825" d="M30.877,12.632a8.382,8.382,0,0,1,.591.914,9.062,9.062,0,0,1,1.1,3.4,9.306,9.306,0,0,1,.061.994V18a9.146,9.146,0,0,1-1.313,4.709,9.112,9.112,0,0,1-2.024,2.332,8.883,8.883,0,0,1-1.3.889,7.509,7.509,0,0,1-2.918-5.644v-.005" fill="none" stroke="#95a6b1" stroke-linecap="round" stroke-linejoin="round" stroke-width="1.5"/>
        <path id="Trazado_17826" data-name="Trazado 17826" d="M27.329,9.72a7.285,7.285,0,0,1,.767.4,8.954,8.954,0,0,1,2.781,2.508,8.382,8.382,0,0,1,.591.914,9.062,9.062,0,0,1,1.1,3.4,9.306,9.306,0,0,1,.061.994V18a9.146,9.146,0,0,1-1.313,4.709,7.539,7.539,0,0,1-5.305-3.513" fill="none" stroke="#95a6b1" stroke-linecap="round" stroke-linejoin="round" stroke-width="1.5"/>
        <path id="Trazado_17827" data-name="Trazado 17827" d="M26.284,18.013a7.475,7.475,0,0,0,3.084.661,7.584,7.584,0,0,0,3.261-.737,9.306,9.306,0,0,0-.061-.994,9.062,9.062,0,0,0-1.1-3.4,8.382,8.382,0,0,0-.591-.914A8.954,8.954,0,0,0,28.1,10.124a7.285,7.285,0,0,0-.767-.4,8.963,8.963,0,0,0-3.645-.828c-.055-.005-.106-.005-.161-.005a8.743,8.743,0,0,0-1.373.106" fill="none" stroke="#95a6b1" stroke-linecap="round" stroke-linejoin="round" stroke-width="1.5"/>
        <path id="Trazado_17828" data-name="Trazado 17828" d="M25.946,16.67a7.54,7.54,0,0,0,5.522-3.124" fill="none" stroke="#95a6b1" stroke-linecap="round" stroke-linejoin="round" stroke-width="1.5"/>
        <path id="Trazado_17829" data-name="Trazado 17829" d="M25.052,15.691A7.482,7.482,0,0,0,28.1,10.124a7.285,7.285,0,0,0-.767-.4,8.963,8.963,0,0,0-3.645-.828c-.055-.005-.106-.005-.161-.005a8.743,8.743,0,0,0-1.373.106,8.93,8.93,0,0,0-3.12,1.08,8.56,8.56,0,0,0-1.049.7,8.958,8.958,0,0,0-2.953,3.937" fill="none" stroke="#95a6b1" stroke-linecap="round" stroke-linejoin="round" stroke-width="1.5"/>
        <circle id="Elipse_2611" data-name="Elipse 2611" cx="2.762" cy="2.762" r="2.762" transform="translate(20.759 15.234)" fill="none" stroke="#95a6b1" stroke-linecap="round" stroke-linejoin="round" stroke-width="1.5"/>
        <line id="Línea_3779" data-name="Línea 3779" y1="5.41" transform="translate(39.286 12.687)" fill="none" stroke="#95a6b1" stroke-linecap="round" stroke-linejoin="round" stroke-width="1.5"/>
        <line id="Línea_3780" data-name="Línea 3780" x2="2.686" transform="translate(37.994 13.546)" fill="none" stroke="#95a6b1" stroke-linecap="round" stroke-linejoin="round" stroke-width="1.5"/>
        <line id="Línea_2122" data-name="Línea 2122" x1="43.931" transform="translate(1.535 42.293)" fill="none" stroke="#95a6b1" stroke-linecap="round" stroke-linejoin="round" stroke-width="1.5"/>
        <line id="Línea_2122-2" data-name="Línea 2122" x1="39.592" transform="translate(3.725 31.284)" fill="none" stroke="#95a6b1" stroke-linecap="round" stroke-linejoin="round" stroke-width="1.5"/>
        <line id="Línea_3781" data-name="Línea 3781" x1="15.018" transform="translate(3.725 37.679)" fill="none" stroke="#95a6b1" stroke-linecap="round" stroke-linejoin="round" stroke-width="1.5"/>
        <line id="Línea_3782" data-name="Línea 3782" x1="14.697" transform="translate(28.62 37.679)" fill="none" stroke="#95a6b1" stroke-linecap="round" stroke-linejoin="round" stroke-width="1.5"/>
        <path id="Trazado_17830" data-name="Trazado 17830" d="M36.811,18.026h1.661a4.846,4.846,0,0,1,4.845,4.846V42.289H3.725V22.872a4.841,4.841,0,0,1,4.846-4.846h1.66" fill="none" stroke="#95a6b1" stroke-linecap="round" stroke-linejoin="round" stroke-width="1.5"/>
        <path id="Trazado_17831" data-name="Trazado 17831" d="M24.093,34.541,22.948,36.9h1.789l-1.359,3" fill="none" stroke="#95a6b1" stroke-linecap="round" stroke-linejoin="round" stroke-width="1.5"/>
        <line id="Línea_3783" data-name="Línea 3783" y2="11.009" transform="translate(18.743 31.284)" fill="none" stroke="#95a6b1" stroke-linecap="round" stroke-linejoin="round" stroke-width="1.5"/>
        <line id="Línea_3784" data-name="Línea 3784" y2="11.009" transform="translate(28.62 31.284)" fill="none" stroke="#95a6b1" stroke-linecap="round" stroke-linejoin="round" stroke-width="1.5"/>
        <g id="Grupo_16158" data-name="Grupo 16158">
          <line id="Línea_3785" data-name="Línea 3785" y2="4.61" transform="translate(8.731 37.679)" fill="none" stroke="#95a6b1" stroke-linecap="round" stroke-linejoin="round" stroke-width="1.5"/>
          <line id="Línea_3786" data-name="Línea 3786" y2="4.61" transform="translate(13.737 37.679)" fill="none" stroke="#95a6b1" stroke-linecap="round" stroke-linejoin="round" stroke-width="1.5"/>
        </g>
        <g id="Grupo_16159" data-name="Grupo 16159">
          <line id="Línea_3787" data-name="Línea 3787" y2="4.61" transform="translate(33.466 37.679)" fill="none" stroke="#95a6b1" stroke-linecap="round" stroke-linejoin="round" stroke-width="1.5"/>
          <line id="Línea_3788" data-name="Línea 3788" y2="4.61" transform="translate(38.472 37.679)" fill="none" stroke="#95a6b1" stroke-linecap="round" stroke-linejoin="round" stroke-width="1.5"/>
        </g>
      </g>
    </g>
  </g>
</svg>
