<?xml version="1.0" encoding="utf-8"?>
<!-- Generator: Adobe Illustrator 24.0.2, SVG Export Plug-In . SVG Version: 6.00 Build 0)  -->
<svg version="1.1" id="Capa_1" xmlns="http://www.w3.org/2000/svg" xmlns:xlink="http://www.w3.org/1999/xlink" x="0px" y="0px"
	 viewBox="0 0 47 47" style="enable-background:new 0 0 47 47;" xml:space="preserve">
<style type="text/css">
	.st0{fill:none;}
	.st1{fill:#19A500;}
	.st2{fill:#95A6B1;}
</style>
<g id="Capa_2_1_">
</g>
<g id="Capa_1_1_">
	<g>
		<g id="Rectángulo_5125_1_">
			<rect class="st0" width="47" height="47"/>
		</g>
		<g>
			<g id="Trazado_5703_12_">
				<path class="st1" d="M14.41,11.58c-1.89,0-3.42-1.53-3.42-3.42s1.53-3.42,3.42-3.42c0.92,0,1.76,0.34,2.4,0.98
					c0.65,0.64,1.01,1.49,1.02,2.4c0,0,0,0.04,0,0.05C17.83,10.05,16.3,11.58,14.41,11.58z M14.43,6.24c0,0-0.01,0-0.01,0
					c-1.06,0-1.93,0.86-1.93,1.92s0.86,1.92,1.92,1.92s1.92-0.86,1.92-1.92V8.12c0-0.5-0.21-0.98-0.57-1.33
					C15.4,6.43,14.93,6.24,14.43,6.24z"/>
			</g>
			<g>
				<path class="st2" d="M23.53,27.86c-0.05,0-0.13,0-0.21-0.01c-1.31-0.03-2.58-0.31-3.77-0.83c-0.27-0.12-0.53-0.25-0.79-0.39
					c-1.17-0.65-2.17-1.5-2.98-2.54c-0.03-0.03-0.05-0.06-0.08-0.09c-0.24-0.31-0.46-0.64-0.67-0.98c-0.72-1.21-1.16-2.54-1.31-3.94
					c-0.04-0.32-0.06-0.68-0.06-1.03c0-1.28,0.23-2.48,0.67-3.61c0.21-0.54,0.46-1.06,0.75-1.53c0.65-1.06,1.47-1.98,2.45-2.73
					c0.34-0.27,0.71-0.52,1.14-0.76c1.03-0.59,2.17-0.99,3.38-1.17c0.51-0.08,1-0.12,1.48-0.12c0.08,0,0.15,0,0.22,0.01
					c1.37,0.03,2.68,0.33,3.9,0.9c0.28,0.13,0.56,0.27,0.84,0.44c1.17,0.67,2.18,1.58,3,2.71c0.25,0.33,0.46,0.68,0.63,0.97
					c0.63,1.12,1.05,2.39,1.2,3.69c0.04,0.35,0.08,0.71,0.08,1.09V18c0,1.18-0.2,2.32-0.6,3.37c-0.21,0.58-0.48,1.17-0.82,1.72
					c-0.59,0.98-1.33,1.83-2.19,2.53c-0.42,0.35-0.9,0.67-1.4,0.96c-1.05,0.6-2.21,1-3.44,1.17C24.5,27.82,24.04,27.86,23.53,27.86z
					 M16.84,23.02c0.02,0.02,0.05,0.05,0.07,0.08c0.7,0.91,1.57,1.66,2.58,2.22c0.22,0.12,0.44,0.23,0.67,0.33
					c1.02,0.45,2.12,0.69,3.25,0.71c0.06,0,0.12,0.01,0.18,0.03c0.37-0.01,0.75-0.04,1.11-0.1c1.06-0.15,2.04-0.48,2.93-0.99
					c0.43-0.25,0.83-0.52,1.2-0.82c0.73-0.6,1.36-1.31,1.86-2.14c0.28-0.47,0.52-0.96,0.7-1.46c0.34-0.9,0.51-1.86,0.51-2.86v-0.06
					c0-0.31-0.03-0.61-0.06-0.91c-0.13-1.11-0.48-2.18-1.01-3.12c-0.16-0.28-0.33-0.56-0.54-0.83c-0.7-0.97-1.56-1.74-2.55-2.31
					c-0.24-0.14-0.48-0.26-0.71-0.37c-1.04-0.49-2.16-0.74-3.34-0.76c-0.05,0-0.09-0.01-0.14-0.02c-0.42,0-0.83,0.04-1.26,0.11
					c-1.03,0.16-1.99,0.49-2.86,0.99c-0.36,0.2-0.67,0.41-0.96,0.64c-0.83,0.63-1.54,1.43-2.08,2.32c-0.24,0.4-0.45,0.83-0.63,1.3
					c-0.38,0.96-0.57,1.98-0.57,3.02c0,0.34,0.02,0.62,0.05,0.9c0.13,1.21,0.5,2.33,1.11,3.35C16.48,22.52,16.66,22.77,16.84,23.02z
					"/>
			</g>
			<g>
				<path class="st2" d="M23.53,32.04c-7.75,0-14.05-6.3-14.05-14.04c0-1.98,0.4-3.88,1.19-5.67c0.17-0.38,0.61-0.55,0.99-0.38
					c0.38,0.17,0.55,0.61,0.38,0.99c-0.71,1.59-1.06,3.29-1.06,5.05c0,6.92,5.63,12.54,12.55,12.54c6.91,0,12.54-5.62,12.54-12.54
					c0-6.91-5.63-12.54-12.54-12.54c-1.52,0-3.01,0.27-4.43,0.8c-0.39,0.15-0.82-0.05-0.97-0.44C17.99,5.44,18.19,5,18.58,4.86
					c1.58-0.6,3.25-0.9,4.95-0.9c7.74,0,14.04,6.3,14.04,14.04C37.57,25.74,31.27,32.04,23.53,32.04z"/>
			</g>
			<g>
				<path class="st2" d="M14.47,19.75c-0.37,0-0.69-0.28-0.74-0.65c-0.04-0.34-0.07-0.69-0.07-1.05c0-1.27,0.23-2.47,0.67-3.6
					c0.2-0.53,0.45-1.03,0.75-1.53c0.63-1.05,1.46-1.97,2.45-2.73c0.34-0.27,0.71-0.52,1.14-0.76c1.03-0.59,2.17-0.99,3.38-1.17
					c0.51-0.08,1-0.12,1.48-0.12c0.09,0,0.18,0,0.28,0.02c0.25,0.04,0.47,0.21,0.57,0.45c0.43,1.02,0.65,2.1,0.65,3.2
					c0,1.31-0.32,2.61-0.91,3.77c-0.19,0.37-0.64,0.51-1.01,0.32c-0.37-0.19-0.51-0.64-0.32-1.01c0.49-0.95,0.75-2.02,0.75-3.09
					c0-0.74-0.12-1.46-0.36-2.16c-0.3,0.01-0.59,0.04-0.9,0.09c-1.03,0.16-1.99,0.49-2.86,0.99c-0.36,0.2-0.67,0.41-0.96,0.64
					c-0.85,0.65-1.55,1.43-2.08,2.32c-0.25,0.42-0.46,0.85-0.63,1.3c-0.38,0.97-0.57,1.98-0.57,3.02c0,0.33,0.02,0.62,0.05,0.89
					c0.05,0.41-0.24,0.79-0.65,0.84C14.53,19.75,14.5,19.75,14.47,19.75z"/>
			</g>
			<g>
				<path class="st2" d="M16.3,24.29L16.3,24.29c-0.42,0-0.76-0.34-0.76-0.75s0.34-0.75,0.75-0.75s0.75,0.34,0.75,0.75
					S16.71,24.29,16.3,24.29z"/>
			</g>
			<g>
				<path class="st2" d="M22.14,16.35c-0.39,0-0.72-0.3-0.75-0.69c-0.15-1.99-1.17-3.8-2.8-4.98c-0.34-0.24-0.41-0.71-0.17-1.05
					c0.24-0.34,0.71-0.41,1.05-0.17c1.99,1.43,3.24,3.65,3.42,6.08c0.03,0.41-0.28,0.77-0.69,0.8
					C22.18,16.35,22.16,16.35,22.14,16.35z"/>
			</g>
			<g>
				<path class="st2" d="M19.84,27.07c-0.09,0-0.19-0.02-0.28-0.05c-0.28-0.11-0.56-0.25-0.83-0.41c-1.12-0.62-2.15-1.49-2.96-2.53
					c-0.02-0.02-0.05-0.05-0.07-0.07c-0.24-0.3-0.46-0.62-0.68-0.99c-0.71-1.2-1.16-2.56-1.31-3.94c-0.04-0.32-0.06-0.68-0.06-1.03
					c0-1.27,0.23-2.47,0.67-3.6c0.2-0.53,0.45-1.03,0.75-1.53c0.15-0.25,0.43-0.39,0.74-0.36c2.42,0.3,4.58,1.65,5.92,3.72
					c0.23,0.35,0.13,0.81-0.22,1.04c-0.35,0.23-0.81,0.13-1.04-0.22c-1-1.55-2.57-2.61-4.35-2.96c-0.15,0.28-0.27,0.57-0.39,0.86
					c-0.38,0.97-0.57,1.98-0.57,3.02c0,0.33,0.02,0.62,0.05,0.89c0.13,1.18,0.51,2.34,1.11,3.35c0.17,0.28,0.33,0.53,0.51,0.75
					c0.03,0.03,0.05,0.05,0.07,0.08c0.7,0.91,1.59,1.68,2.58,2.22c0.22,0.13,0.43,0.23,0.65,0.32c0.38,0.15,0.57,0.59,0.42,0.98
					C20.42,26.89,20.14,27.07,19.84,27.07z"/>
			</g>
			<g>
				<path class="st2" d="M23.54,27.85c-0.06,0-0.13,0-0.2-0.01c-1.29-0.02-2.57-0.3-3.78-0.83c-0.26-0.1-0.53-0.24-0.81-0.4
					c-1.12-0.62-2.15-1.49-2.96-2.53c-0.02-0.02-0.05-0.05-0.07-0.07c-0.24-0.3-0.46-0.62-0.68-0.99c-0.71-1.2-1.16-2.56-1.31-3.94
					c-0.04-0.32-0.06-0.68-0.06-1.03c0-0.29,0.17-0.55,0.43-0.68c2.15-1.03,4.78-1.05,6.98-0.01c0.38,0.18,0.54,0.62,0.36,1
					c-0.18,0.37-0.62,0.54-1,0.36c-1.65-0.77-3.61-0.83-5.25-0.18c0.01,0.12,0.02,0.25,0.04,0.37c0.13,1.18,0.51,2.34,1.11,3.35
					c0.17,0.28,0.33,0.53,0.51,0.75c0.03,0.03,0.05,0.05,0.07,0.08c0.7,0.91,1.59,1.68,2.58,2.22c0.22,0.13,0.43,0.23,0.65,0.32
					c1.07,0.47,2.16,0.71,3.27,0.71c0.05,0,0.09,0,0.14,0.01c0.42,0,0.8-0.03,1.16-0.09c0.41-0.08,0.8,0.21,0.86,0.62
					c0.07,0.41-0.21,0.79-0.62,0.86C24.51,27.81,24.05,27.85,23.54,27.85z"/>
			</g>
			<g>
				<path class="st2" d="M23.52,27.86c-0.04,0-0.12,0-0.2-0.01c-1.29-0.02-2.56-0.3-3.78-0.83c-0.25-0.1-0.52-0.23-0.81-0.4
					c-1.12-0.62-2.15-1.49-2.96-2.53c-0.02-0.02-0.05-0.05-0.07-0.07c-0.23-0.3-0.46-0.62-0.68-0.99c-0.15-0.25-0.14-0.56,0.02-0.8
					c1.36-2.05,3.53-3.38,5.95-3.66c0.41-0.05,0.78,0.25,0.83,0.66c0.05,0.41-0.25,0.78-0.66,0.83c-1.82,0.21-3.47,1.15-4.59,2.61
					c0.08,0.12,0.16,0.24,0.25,0.35c0.03,0.03,0.05,0.05,0.07,0.08c0.7,0.91,1.59,1.68,2.58,2.22c0.22,0.13,0.43,0.24,0.65,0.32
					c1.07,0.47,2.16,0.71,3.27,0.72c0.05,0,0.1,0.01,0.15,0.02c0.4-0.01,0.79-0.04,1.15-0.1c1.07-0.15,2.04-0.48,2.93-0.99
					c0.41-0.23,0.8-0.5,1.2-0.82c0.32-0.26,0.8-0.21,1.05,0.11c0.26,0.32,0.21,0.79-0.11,1.05c-0.47,0.38-0.93,0.69-1.4,0.96
					c-1.05,0.6-2.21,1-3.45,1.17C24.49,27.82,24.03,27.86,23.52,27.86z"/>
			</g>
			<g>
				<path class="st2" d="M23.52,27.85c-0.06,0-0.13,0-0.2-0.01c-1.29-0.02-2.57-0.3-3.78-0.83c-0.26-0.1-0.53-0.24-0.81-0.4
					c-0.24-0.14-0.38-0.4-0.37-0.68c0.11-2.44,1.29-4.7,3.23-6.19c0.33-0.25,0.8-0.19,1.05,0.14c0.25,0.33,0.19,0.8-0.14,1.05
					c-1.47,1.13-2.4,2.78-2.61,4.6c0.07,0.04,0.15,0.07,0.22,0.1c1.07,0.47,2.16,0.71,3.27,0.71c0.05,0,0.09,0,0.14,0.01
					c0.42,0,0.8-0.03,1.16-0.09c1.06-0.15,2.04-0.48,2.93-0.99c0.41-0.23,0.8-0.5,1.2-0.82c0.73-0.6,1.36-1.33,1.85-2.14
					c0.29-0.49,0.52-0.97,0.69-1.46c0.14-0.39,0.56-0.6,0.96-0.46c0.39,0.14,0.6,0.57,0.46,0.96c-0.21,0.59-0.48,1.16-0.83,1.74
					c-0.58,0.96-1.32,1.8-2.18,2.52c-0.48,0.38-0.93,0.7-1.41,0.96c-1.05,0.6-2.21,1-3.45,1.17C24.49,27.81,24.03,27.85,23.52,27.85
					z"/>
			</g>
			<g>
				<path class="st2" d="M23.52,27.86c-0.06,0-0.17,0-0.3-0.03c-0.24-0.05-0.44-0.22-0.53-0.44c-0.44-1.05-0.67-2.15-0.67-3.26
					c0-1.29,0.3-2.58,0.88-3.72c0.19-0.37,0.64-0.52,1.01-0.33c0.37,0.19,0.52,0.64,0.33,1.01c-0.47,0.93-0.72,1.98-0.72,3.04
					c0,0.75,0.13,1.5,0.38,2.22c0.27-0.01,0.54-0.04,0.79-0.08c1.07-0.15,2.04-0.48,2.93-0.99c0.41-0.23,0.8-0.5,1.2-0.82
					c0.73-0.61,1.36-1.33,1.85-2.14c0.29-0.49,0.52-0.97,0.69-1.46c0.34-0.91,0.51-1.87,0.51-2.86c0-0.38-0.03-0.68-0.06-0.98
					c-0.04-0.41,0.26-0.78,0.68-0.82c0.4-0.04,0.78,0.26,0.82,0.68c0.03,0.34,0.06,0.7,0.06,1.06c0,1.23-0.2,2.36-0.6,3.43
					c-0.2,0.58-0.47,1.15-0.82,1.73c-0.58,0.96-1.31,1.8-2.18,2.52c-0.48,0.38-0.93,0.7-1.41,0.96c-1.05,0.6-2.21,1-3.45,1.17
					C24.49,27.82,24.03,27.86,23.52,27.86z"/>
			</g>
			<g>
				<path class="st2" d="M28,26.68c-0.16,0-0.33-0.05-0.46-0.16c-1.94-1.51-3.11-3.77-3.21-6.2l1.5-0.04
					c0.07,1.8,0.88,3.51,2.24,4.73c0.27-0.17,0.52-0.36,0.75-0.55c0.73-0.6,1.36-1.31,1.86-2.14c0.28-0.47,0.52-0.96,0.7-1.46
					c0.34-0.9,0.51-1.86,0.51-2.86c0-0.37-0.02-0.67-0.05-0.97c-0.13-1.11-0.48-2.18-1.01-3.12c-0.16-0.28-0.33-0.56-0.54-0.83
					c-0.25-0.33-0.19-0.8,0.14-1.05c0.33-0.25,0.8-0.18,1.05,0.14c0.26,0.34,0.47,0.69,0.64,0.99c0.63,1.11,1.05,2.39,1.2,3.69
					c0.04,0.36,0.06,0.72,0.06,1.08c0,1.25-0.2,2.39-0.6,3.44c-0.21,0.58-0.48,1.17-0.82,1.72c-0.59,0.98-1.33,1.83-2.19,2.53
					c-0.42,0.35-0.9,0.67-1.4,0.96C28.25,26.65,28.13,26.68,28,26.68z"/>
			</g>
			<g>
				<path class="st2" d="M31.32,23.46c-0.04,0-0.07,0-0.11-0.01c-2.41-0.35-4.54-1.76-5.83-3.86c-0.22-0.35-0.11-0.81,0.25-1.03
					c0.35-0.22,0.82-0.11,1.03,0.24c0.97,1.57,2.51,2.67,4.27,3.07c0.17-0.33,0.32-0.67,0.45-1.02c0.34-0.9,0.51-1.86,0.51-2.86
					c0-0.37-0.02-0.67-0.05-0.97c-0.13-1.11-0.48-2.18-1.01-3.12c-0.16-0.28-0.33-0.56-0.54-0.83c-0.7-0.97-1.56-1.74-2.55-2.31
					c-0.24-0.14-0.48-0.26-0.71-0.37c-0.38-0.17-0.54-0.62-0.37-1c0.17-0.38,0.62-0.54,1-0.37c0.28,0.13,0.57,0.27,0.84,0.44
					c1.17,0.67,2.18,1.58,3,2.71c0.25,0.33,0.46,0.68,0.63,0.97c0.63,1.11,1.05,2.39,1.2,3.69c0.04,0.36,0.06,0.72,0.06,1.08
					c0,1.25-0.2,2.39-0.6,3.44c-0.21,0.58-0.48,1.17-0.82,1.72C31.83,23.32,31.58,23.46,31.32,23.46z"/>
			</g>
			<g>
				<path class="st2" d="M29.36,19.42c-1.17,0-2.31-0.24-3.39-0.73c-0.38-0.17-0.55-0.61-0.38-0.99c0.17-0.38,0.61-0.55,0.99-0.38
					c1.67,0.75,3.57,0.79,5.26,0.12c-0.01-0.15-0.02-0.29-0.04-0.44c-0.12-1.09-0.46-2.14-1.01-3.1c-0.18-0.31-0.35-0.58-0.53-0.83
					c-0.69-0.95-1.57-1.74-2.56-2.31c-0.23-0.14-0.46-0.26-0.7-0.36c-1.07-0.49-2.19-0.75-3.35-0.77c-0.04,0-0.08,0-0.11-0.01
					c-0.44,0-0.85,0.03-1.29,0.1c-0.41,0.06-0.79-0.22-0.86-0.63c-0.06-0.41,0.22-0.79,0.63-0.86c0.51-0.08,1-0.12,1.49-0.12
					c0.07,0,0.14,0,0.22,0.01c1.35,0.03,2.66,0.33,3.89,0.9c0.29,0.13,0.57,0.27,0.84,0.44c1.16,0.67,2.2,1.61,3,2.71
					c0.22,0.28,0.43,0.61,0.64,0.98c0.64,1.14,1.04,2.38,1.19,3.68c0.03,0.36,0.07,0.71,0.07,1.08c0,0.29-0.17,0.55-0.43,0.68
					C31.81,19.15,30.6,19.42,29.36,19.42z"/>
			</g>
			<g>
				<path class="st2" d="M25.95,17.42c-0.39,0-0.72-0.3-0.75-0.69c-0.03-0.41,0.28-0.77,0.69-0.81c2-0.16,3.81-1.18,4.97-2.81
					c0.24-0.34,0.71-0.42,1.05-0.17c0.34,0.24,0.42,0.71,0.17,1.05c-1.42,1.99-3.63,3.24-6.07,3.43
					C25.99,17.42,25.97,17.42,25.95,17.42z"/>
			</g>
			<g>
				<path class="st2" d="M25.05,16.44c-0.23,0-0.46-0.11-0.61-0.31c-0.25-0.33-0.17-0.8,0.16-1.05c1.49-1.1,2.45-2.73,2.69-4.55
					c-0.09-0.05-0.18-0.09-0.28-0.13c-1.07-0.49-2.19-0.75-3.35-0.77c-0.04,0-0.08,0-0.11-0.01c-0.44,0-0.85,0.03-1.29,0.1
					c-1.03,0.16-1.99,0.49-2.86,0.99c-0.36,0.2-0.67,0.41-0.96,0.64c-0.85,0.65-1.55,1.43-2.08,2.32c-0.25,0.42-0.46,0.85-0.63,1.3
					c-0.15,0.39-0.58,0.58-0.97,0.43c-0.39-0.15-0.58-0.58-0.43-0.97c0.2-0.54,0.45-1.04,0.75-1.54c0.63-1.05,1.46-1.97,2.45-2.73
					c0.34-0.27,0.71-0.52,1.14-0.76c1.03-0.59,2.17-0.99,3.38-1.17c0.51-0.08,1-0.12,1.48-0.12c0.07,0,0.14,0,0.22,0.01
					c1.35,0.03,2.66,0.33,3.89,0.9c0.29,0.13,0.57,0.27,0.84,0.44c0.24,0.14,0.38,0.41,0.36,0.69c-0.15,2.44-1.37,4.68-3.34,6.13
					C25.36,16.39,25.21,16.44,25.05,16.44z"/>
			</g>
			<g>
				<path class="st2" d="M23.52,21.51c-1.94,0-3.51-1.57-3.51-3.51s1.57-3.51,3.51-3.51c1.94,0,3.51,1.57,3.51,3.51
					S25.46,21.51,23.52,21.51z M23.52,15.99c-1.11,0-2.01,0.9-2.01,2.01s0.9,2.01,2.01,2.01c1.11,0,2.01-0.9,2.01-2.01
					S24.63,15.99,23.52,15.99z"/>
			</g>
			<g>
				<path class="st2" d="M39.29,18.85c-0.41,0-0.75-0.34-0.75-0.75v-5.41c0-0.41,0.34-0.75,0.75-0.75s0.75,0.34,0.75,0.75v5.41
					C40.04,18.51,39.7,18.85,39.29,18.85z"/>
			</g>
			<g>
				<path class="st2" d="M40.68,14.3h-2.69c-0.41,0-0.75-0.34-0.75-0.75s0.34-0.75,0.75-0.75h2.69c0.41,0,0.75,0.34,0.75,0.75
					S41.09,14.3,40.68,14.3z"/>
			</g>
			<g id="Línea_2122_4_">
				<path class="st2" d="M45.47,43.04H1.53c-0.41,0-0.75-0.34-0.75-0.75s0.34-0.75,0.75-0.75h43.94c0.41,0,0.75,0.34,0.75,0.75
					S45.88,43.04,45.47,43.04z"/>
			</g>
			<g id="Línea_2122_5_">
				<path class="st2" d="M43.32,32.03H3.73c-0.41,0-0.75-0.34-0.75-0.75s0.34-0.75,0.75-0.75h39.59c0.41,0,0.75,0.34,0.75,0.75
					S43.73,32.03,43.32,32.03z"/>
			</g>
			<g>
				<path class="st2" d="M18.74,38.43H3.73c-0.41,0-0.75-0.34-0.75-0.75s0.34-0.75,0.75-0.75h15.01c0.41,0,0.75,0.34,0.75,0.75
					S19.15,38.43,18.74,38.43z"/>
			</g>
			<g>
				<path class="st2" d="M43.32,38.43h-14.7c-0.41,0-0.75-0.34-0.75-0.75s0.34-0.75,0.75-0.75h14.7c0.41,0,0.75,0.34,0.75,0.75
					S43.73,38.43,43.32,38.43z"/>
			</g>
			<g>
				<path class="st2" d="M43.32,43.05H3.73c-0.41,0-0.75-0.34-0.75-0.75V22.87c0-3.09,2.51-5.6,5.6-5.6h1.66
					c0.41,0,0.75,0.34,0.75,0.75s-0.34,0.75-0.75,0.75H8.58c-2.26,0-4.1,1.84-4.1,4.1v18.68h38.09V22.88c0-2.26-1.84-4.1-4.1-4.1
					h-1.66c-0.41,0-0.75-0.34-0.75-0.75s0.34-0.75,0.75-0.75h1.66c3.09,0,5.6,2.51,5.6,5.6V42.3
					C44.07,42.71,43.73,43.05,43.32,43.05z"/>
			</g>
			<g>
				<path class="st2" d="M23.38,40.66c-0.1,0-0.21-0.02-0.31-0.07c-0.38-0.17-0.54-0.62-0.37-0.99l0.88-1.95h-0.63
					c-0.26,0-0.5-0.13-0.64-0.35s-0.15-0.49-0.04-0.72l1.14-2.36c0.18-0.37,0.63-0.53,1-0.35c0.37,0.18,0.53,0.63,0.35,1l-0.62,1.28
					h0.59c0.25,0,0.49,0.13,0.63,0.34c0.14,0.21,0.16,0.48,0.05,0.71l-1.36,3.01C23.94,40.5,23.67,40.66,23.38,40.66z"/>
			</g>
			<g>
				<path class="st2" d="M18.74,43.04c-0.41,0-0.75-0.34-0.75-0.75V31.28c0-0.41,0.34-0.75,0.75-0.75s0.75,0.34,0.75,0.75v11.01
					C19.49,42.7,19.15,43.04,18.74,43.04z"/>
			</g>
			<g>
				<path class="st2" d="M28.62,43.04c-0.41,0-0.75-0.34-0.75-0.75V31.28c0-0.41,0.34-0.75,0.75-0.75s0.75,0.34,0.75,0.75v11.01
					C29.37,42.7,29.03,43.04,28.62,43.04z"/>
			</g>
			<g>
				<g>
					<path class="st2" d="M8.73,43.04c-0.41,0-0.75-0.34-0.75-0.75v-4.61c0-0.41,0.34-0.75,0.75-0.75s0.75,0.34,0.75,0.75v4.61
						C9.48,42.7,9.14,43.04,8.73,43.04z"/>
				</g>
				<g>
					<path class="st2" d="M13.74,43.04c-0.41,0-0.75-0.34-0.75-0.75v-4.61c0-0.41,0.34-0.75,0.75-0.75s0.75,0.34,0.75,0.75v4.61
						C14.49,42.7,14.15,43.04,13.74,43.04z"/>
				</g>
			</g>
			<g>
				<g>
					<path class="st2" d="M33.47,43.04c-0.41,0-0.75-0.34-0.75-0.75v-4.61c0-0.41,0.34-0.75,0.75-0.75s0.75,0.34,0.75,0.75v4.61
						C34.22,42.7,33.88,43.04,33.47,43.04z"/>
				</g>
				<g>
					<path class="st2" d="M38.47,43.04c-0.41,0-0.75-0.34-0.75-0.75v-4.61c0-0.41,0.34-0.75,0.75-0.75s0.75,0.34,0.75,0.75v4.61
						C39.22,42.7,38.88,43.04,38.47,43.04z"/>
				</g>
			</g>
		</g>
	</g>
</g>
</svg>
