<?xml version="1.0" encoding="utf-8"?>
<!-- Generator: Adobe Illustrator 24.0.2, SVG Export Plug-In . SVG Version: 6.00 Build 0)  -->
<svg version="1.1" id="Capa_1" xmlns="http://www.w3.org/2000/svg" xmlns:xlink="http://www.w3.org/1999/xlink" x="0px" y="0px"
	 viewBox="0 0 47 47" style="enable-background:new 0 0 47 47;" xml:space="preserve">
<style type="text/css">
	.st0{fill:none;}
	.st1{fill:#FFFFFF;}
</style>
<g id="Capa_1_1_">
	<g>
		<rect class="st0" width="47" height="47"/>
	</g>
	<g id="Grupo_12873_2_" transform="translate(-687.354 -605.301)">
		<g id="Línea_2131_2_">
			<path class="st1" d="M719.34,648.35c-0.41,0-0.75-0.34-0.75-0.75v-4.07c0-0.41,0.34-0.75,0.75-0.75s0.75,0.34,0.75,0.75v4.07
				C720.09,648.01,719.75,648.35,719.34,648.35z"/>
		</g>
		<g id="Línea_2132_2_">
			<path class="st1" d="M719.34,639.15c-0.41,0-0.75-0.34-0.75-0.75V610c0-0.41,0.34-0.75,0.75-0.75s0.75,0.34,0.75,0.75v28.4
				C720.09,638.81,719.75,639.15,719.34,639.15z"/>
		</g>
		<g id="Línea_2133_2_">
			<path class="st1" d="M701.98,648.35c-0.41,0-0.75-0.34-0.75-0.75v-4.07c0-0.41,0.34-0.75,0.75-0.75s0.75,0.34,0.75,0.75v4.07
				C702.73,648.01,702.39,648.35,701.98,648.35z"/>
		</g>
		<g id="Línea_2134_2_">
			<path class="st1" d="M701.98,623.12c-0.41,0-0.75-0.34-0.75-0.75V610c0-0.41,0.34-0.75,0.75-0.75s0.75,0.34,0.75,0.75v12.37
				C702.73,622.78,702.39,623.12,701.98,623.12z"/>
		</g>
		<g id="Línea_2135_2_">
			<path class="st1" d="M701.98,639.15c-0.41,0-0.75-0.34-0.75-0.75v-4.88c0-0.41,0.34-0.75,0.75-0.75s0.75,0.34,0.75,0.75v4.88
				C702.73,638.81,702.39,639.15,701.98,639.15z"/>
		</g>
		<g id="Rectángulo_4525_2_">
			<path class="st1" d="M722.38,644.28h-23.43c-0.41,0-0.75-0.34-0.75-0.75v-5.13c0-0.41,0.34-0.75,0.75-0.75h23.43
				c0.41,0,0.75,0.34,0.75,0.75v5.13C723.13,643.94,722.79,644.28,722.38,644.28z M699.7,642.78h21.93v-3.63H699.7V642.78z"/>
		</g>
		<g id="Grupo_12792_2_">
			<g id="Rectángulo_4526_2_">
				<path class="st1" d="M716.37,621.83h-11.41c-0.41,0-0.75-0.34-0.75-0.75v-3.17c0-1.49,1.22-2.71,2.71-2.71h7.49
					c1.49,0,2.71,1.22,2.71,2.71v3.17C717.12,621.49,716.78,621.83,716.37,621.83z M705.71,620.33h9.91v-2.42
					c0-0.67-0.54-1.21-1.21-1.21h-7.49c-0.67,0-1.21,0.54-1.21,1.21V620.33z"/>
			</g>
			<g id="Línea_2136_2_">
				<path class="st1" d="M706.99,616.7c-0.41,0-0.75-0.34-0.75-0.75V610c0-0.41,0.34-0.75,0.75-0.75s0.75,0.34,0.75,0.75v5.95
					C707.74,616.36,707.4,616.7,706.99,616.7z"/>
			</g>
			<g id="Línea_2137_2_">
				<path class="st1" d="M714.48,616.7c-0.41,0-0.75-0.34-0.75-0.75V610c0-0.41,0.34-0.75,0.75-0.75s0.75,0.34,0.75,0.75v5.95
					C715.23,616.36,714.89,616.7,714.48,616.7z"/>
			</g>
		</g>
		<g id="Grupo_12793_2_">
			<g id="Línea_2138_2_">
				<path class="st1" d="M710.66,634.99c-0.41,0-0.75-0.34-0.75-0.75v-9c0-0.41,0.34-0.75,0.75-0.75s0.75,0.34,0.75,0.75v9
					C711.41,634.65,711.07,634.99,710.66,634.99z"/>
			</g>
			<g id="Trazado_11512_2_">
				<path class="st1" d="M710.66,634.98c-0.19,0-0.38-0.07-0.53-0.22l-3.32-3.32c-0.29-0.29-0.29-0.77,0-1.06s0.77-0.29,1.06,0
					l2.79,2.79l2.79-2.79c0.29-0.29,0.77-0.29,1.06,0s0.29,0.77,0,1.06l-3.32,3.32C711.04,634.91,710.85,634.98,710.66,634.98z"/>
			</g>
		</g>
		<g id="Elipse_2117_2_">
			<path class="st1" d="M701.91,631.76c-2.1,0-3.81-1.71-3.81-3.81s1.71-3.81,3.81-3.81s3.81,1.71,3.81,3.81
				S704.01,631.76,701.91,631.76z M701.91,625.64c-1.27,0-2.31,1.04-2.31,2.31s1.04,2.31,2.31,2.31s2.31-1.04,2.31-2.31
				S703.18,625.64,701.91,625.64z"/>
		</g>
	</g>
</g>
</svg>
