<?xml version="1.0" encoding="utf-8"?>
<!-- Generator: Adobe Illustrator 24.0.2, SVG Export Plug-In . SVG Version: 6.00 Build 0)  -->
<svg version="1.1" id="Capa_1" xmlns="http://www.w3.org/2000/svg" xmlns:xlink="http://www.w3.org/1999/xlink" x="0px" y="0px"
	 viewBox="0 0 65 65" style="enable-background:new 0 0 65 65;" xml:space="preserve">
<style type="text/css">
	.st0{fill:none;}
	.st1{fill:#4DA12E;}
	.st2{fill:#96D200;}
	.st3{fill:#95A6B1;stroke:#95A6B1;stroke-width:1.6;stroke-miterlimit:10;}
	.st4{fill:none;stroke:#95A6B1;stroke-width:1.6;stroke-linecap:round;stroke-linejoin:round;}
	.st5{fill:none;stroke:#00A800;stroke-width:1.6;stroke-linecap:round;stroke-linejoin:round;stroke-miterlimit:10;}
</style>
<g>
	<g>
		<g>
			<g>
				<rect y="48.26" class="st0" width="65" height="16.74"/>
			</g>
			<g>
				<g>
					<path class="st1" d="M45.38,61.32h-7.17c-0.66,0-1.2-0.54-1.2-1.2s0.54-1.2,1.2-1.2h7.17c0.66,0,1.2,0.54,1.2,1.2
						S46.04,61.32,45.38,61.32z"/>
				</g>
				<g>
					<path class="st1" d="M53.11,61.32h-0.58c-0.66,0-1.2-0.54-1.2-1.2s0.54-1.2,1.2-1.2h0.58c0.66,0,1.2,0.54,1.2,1.2
						S53.77,61.32,53.11,61.32z"/>
				</g>
				<g>
					<path class="st1" d="M18.99,61.32h-7.1c-0.66,0-1.2-0.54-1.2-1.2s0.54-1.2,1.2-1.2h7.1c0.66,0,1.2,0.54,1.2,1.2
						S19.66,61.32,18.99,61.32z"/>
				</g>
				<g>
					<path class="st2" d="M31.05,61.32H18.53c-0.66,0-1.2-0.54-1.2-1.2s0.54-1.2,1.2-1.2h12.52c0.66,0,1.2,0.54,1.2,1.2
						S31.71,61.32,31.05,61.32z"/>
				</g>
				<g>
					<path class="st2" d="M35.47,55.21H11.89c-0.66,0-1.2-0.54-1.2-1.2s0.54-1.2,1.2-1.2h23.58c0.66,0,1.2,0.54,1.2,1.2
						S36.14,55.21,35.47,55.21z"/>
				</g>
				<g>
					<path class="st1" d="M53.11,55.21H34.75c-0.66,0-1.2-0.54-1.2-1.2s0.54-1.2,1.2-1.2h18.36c0.66,0,1.2,0.54,1.2,1.2
						S53.77,55.21,53.11,55.21z"/>
				</g>
				<g>
					<path class="st1" d="M12.32,55.21h-0.43c-0.66,0-1.2-0.54-1.2-1.2s0.54-1.2,1.2-1.2h0.43c0.66,0,1.2,0.54,1.2,1.2
						S12.98,55.21,12.32,55.21z"/>
				</g>
			</g>
		</g>
	</g>
	<rect y="0" class="st0" width="65" height="65"/>
	<g>
		<polyline class="st4" points="33.06,32.7 40.21,32.7 40.21,37.39 33.06,37.39 		"/>
		<polyline class="st4" points="44.77,32.7 52.53,32.7 52.53,37.39 44.77,37.39 		"/>
		
			<rect x="40.22" y="30.44" transform="matrix(-1 -2.717039e-11 2.717039e-11 -1 84.9969 70.0631)" class="st4" width="4.55" height="9.18"/>
		
			<rect x="52.53" y="30.44" transform="matrix(-1 -2.717039e-11 2.717039e-11 -1 109.6204 70.0631)" class="st4" width="4.55" height="9.18"/>
		<g>
			<path class="st4" d="M13.35,29.41c1.65-1.19,5.08-1.81,7.83-0.64s8.83,2.19,11.91-0.62"/>
			<path class="st4" d="M13.29,15.92v10.73v7.8v6.58c0,0.56,0.45,1.01,1,1.01h17.76c0.56,0,1.01-0.45,1.01-1.01V28.17V14.12v-3.91
				c0-0.55-0.45-1-1.01-1H18.72"/>
			<line class="st4" x1="23.42" y1="14.13" x2="41.01" y2="14.11"/>
			<line class="st4" x1="7.91" y1="34.46" x2="20.95" y2="34.44"/>
			<rect x="19.76" y="5.67" class="st4" width="6.24" height="2.84"/>
		</g>
		<path class="st5" d="M16.59,9.38c0.34,0.74,0.36,1.55,0.12,2.27c-0.26,0.79-0.84,1.48-1.66,1.85c-1.56,0.71-3.41,0.03-4.12-1.54
			s-0.03-3.41,1.54-4.12S15.87,7.82,16.59,9.38z"/>
	</g>
</g>
</svg>
