<?xml version="1.0" encoding="utf-8"?>
<!-- Generator: Adobe Illustrator 24.0.2, SVG Export Plug-In . SVG Version: 6.00 Build 0)  -->
<svg version="1.1" id="Capa_1" xmlns="http://www.w3.org/2000/svg" xmlns:xlink="http://www.w3.org/1999/xlink" x="0px" y="0px"
	 viewBox="0 0 65 65" style="enable-background:new 0 0 65 65;" xml:space="preserve">
<style type="text/css">
	.st0{fill:none;}
	.st1{fill:#4DA12E;}
	.st2{fill:#96D200;}
	.st3{fill:#95A6B1;stroke:#95A6B1;stroke-width:1.6;stroke-miterlimit:10;}
	.st4{fill:none;stroke:#95A6B1;stroke-width:1.6;stroke-linecap:round;stroke-linejoin:round;}
	.st5{fill:none;stroke:#00A800;stroke-width:1.6;stroke-linecap:round;stroke-linejoin:round;stroke-miterlimit:10;}
</style>
<rect id="Rectángulo_3799-2_2_" class="st0" width="65" height="65"/>
<g>
	<g>
		<g>
			<g>
				<rect y="48.26" class="st0" width="65" height="16.74"/>
			</g>
			<g>
				<g>
					<path class="st1" d="M45.38,61.32h-7.17c-0.66,0-1.2-0.54-1.2-1.2s0.54-1.2,1.2-1.2h7.17c0.66,0,1.2,0.54,1.2,1.2
						S46.04,61.32,45.38,61.32z"/>
				</g>
				<g>
					<path class="st1" d="M53.11,61.32h-0.58c-0.66,0-1.2-0.54-1.2-1.2s0.54-1.2,1.2-1.2h0.58c0.66,0,1.2,0.54,1.2,1.2
						S53.77,61.32,53.11,61.32z"/>
				</g>
				<g>
					<path class="st1" d="M18.99,61.32h-7.1c-0.66,0-1.2-0.54-1.2-1.2s0.54-1.2,1.2-1.2h7.1c0.66,0,1.2,0.54,1.2,1.2
						S19.65,61.32,18.99,61.32z"/>
				</g>
				<g>
					<path class="st2" d="M31.05,61.32H18.53c-0.66,0-1.2-0.54-1.2-1.2s0.54-1.2,1.2-1.2h12.52c0.66,0,1.2,0.54,1.2,1.2
						S31.71,61.32,31.05,61.32z"/>
				</g>
				<g>
					<path class="st2" d="M35.47,55.21H11.89c-0.66,0-1.2-0.54-1.2-1.2s0.54-1.2,1.2-1.2h23.58c0.66,0,1.2,0.54,1.2,1.2
						S36.14,55.21,35.47,55.21z"/>
				</g>
				<g>
					<path class="st1" d="M53.11,55.21H34.75c-0.66,0-1.2-0.54-1.2-1.2s0.54-1.2,1.2-1.2h18.36c0.66,0,1.2,0.54,1.2,1.2
						S53.77,55.21,53.11,55.21z"/>
				</g>
				<g>
					<path class="st1" d="M12.32,55.21h-0.43c-0.66,0-1.2-0.54-1.2-1.2s0.54-1.2,1.2-1.2h0.43c0.66,0,1.2,0.54,1.2,1.2
						S12.98,55.21,12.32,55.21z"/>
				</g>
			</g>
		</g>
	</g>
	<polyline class="st4" points="48.46,33.31 48.46,32.12 48.46,28.68 48.46,22.94 10.24,22.94 10.24,41.2 44.16,41.2 	"/>
	<line class="st4" x1="48.46" y1="39.25" x2="48.46" y2="38.91"/>
	
		<rect x="4.71" y="21.22" transform="matrix(-1 -1.077224e-10 1.077224e-10 -1 14.947 64.1394)" class="st4" width="5.53" height="21.7"/>
	<g>
		<line class="st4" x1="14.85" y1="36.98" x2="10.32" y2="36.98"/>
		<line class="st4" x1="14.79" y1="32.04" x2="10.32" y2="32.04"/>
		<line class="st4" x1="14.85" y1="27.11" x2="10.32" y2="27.11"/>
	</g>
	<g>
		<line class="st4" x1="48.46" y1="27.11" x2="43.93" y2="27.11"/>
	</g>
	<line class="st4" x1="48.47" y1="39.42" x2="48.47" y2="38.74"/>
	<polyline class="st4" points="48.47,33.3 48.47,32.12 48.47,28.68 48.47,21.22 54,21.22 54,31.88 	"/>
	<line class="st4" x1="48.47" y1="32.12" x2="48.46" y2="32.12"/>
	<polyline class="st4" points="21.63,20.86 21.63,22.96 37.99,22.96 37.99,14.16 26.33,14.16 	"/>
	<line class="st4" x1="29.81" y1="14.16" x2="29.81" y2="8.79"/>
	<line class="st4" x1="26.33" y1="8.79" x2="33.57" y2="8.79"/>
	<line class="st4" x1="26.27" y1="18.56" x2="37.99" y2="18.56"/>
	<g>
		<circle class="st4" cx="51.8" cy="39.08" r="3.35"/>
		<path class="st4" d="M58.89,33.37l-2.3,0.25c-1.04,0.11-2.03-0.46-2.45-1.42l-0.93-2.11c-0.46-0.07-0.93-0.12-1.41-0.12
			s-1.03,0.07-1.41,0.12l-0.93,2.11c-0.42,0.96-1.41,1.53-2.45,1.42l-2.3-0.25c-0.59,0.73-1.06,1.55-1.4,2.43l1.36,1.86
			c0.62,0.84,0.62,1.99,0,2.83l-1.36,1.86c0.34,0.89,0.81,1.71,1.4,2.43l2.3-0.25c1.04-0.11,2.03,0.46,2.45,1.42l0.93,2.11
			c0.46,0.07,0.93,0.12,1.41,0.12s0.95-0.05,1.41-0.12l0.93-2.11c0.42-0.96,1.41-1.53,2.45-1.42l2.3,0.25
			c0.59-0.73,1.06-1.55,1.4-2.43l-1.36-1.86c-0.62-0.84-0.62-1.99,0-2.83l1.36-1.86C59.95,34.92,59.48,34.1,58.89,33.37z"/>
	</g>
	<rect y="0" class="st0" width="65" height="65"/>
	<path class="st5" d="M23.74,14.2c0.34,0.74,0.36,1.55,0.12,2.27c-0.26,0.79-0.84,1.48-1.66,1.85c-1.56,0.71-3.41,0.03-4.12-1.54
		c-0.71-1.56-0.03-3.41,1.54-4.12C21.18,11.95,23.03,12.63,23.74,14.2z"/>
</g>
</svg>
