<?xml version="1.0" encoding="utf-8"?>
<!-- Generator: Adobe Illustrator 24.0.2, SVG Export Plug-In . SVG Version: 6.00 Build 0)  -->
<svg version="1.1" id="Capa_1" xmlns="http://www.w3.org/2000/svg" xmlns:xlink="http://www.w3.org/1999/xlink" x="0px" y="0px"
	 viewBox="0 0 65 65" style="enable-background:new 0 0 65 65;" xml:space="preserve">
<style type="text/css">
	.st0{fill:none;}
	.st1{clip-path:url(#SVGID_2_);}
	.st2{fill:#4DA12E;}
	.st3{fill:#96D200;}
	.st4{fill:none;stroke:#00A800;stroke-width:1.6;stroke-linecap:round;stroke-linejoin:round;stroke-miterlimit:10;}
	.st5{fill:none;stroke:#95A3AD;stroke-width:1.6;stroke-linecap:round;stroke-linejoin:round;}
</style>
<g>
	<g>
		<g>
			<rect id="Rectángulo_3799-2_3_" class="st0" width="65" height="65"/>
		</g>
		<g>
			<defs>
				<rect id="SVGID_1_" y="48.26" width="65" height="16.74"/>
			</defs>
			<clipPath id="SVGID_2_">
				<use xlink:href="#SVGID_1_"  style="overflow:visible;"/>
			</clipPath>
			<g class="st1">
				<g>
					<rect y="48.26" class="st0" width="65" height="16.74"/>
				</g>
				<g>
					<g>
						<path class="st2" d="M45.38,61.32h-7.17c-0.66,0-1.2-0.54-1.2-1.2s0.54-1.2,1.2-1.2h7.17c0.66,0,1.2,0.54,1.2,1.2
							S46.04,61.32,45.38,61.32z"/>
					</g>
					<g>
						<path class="st2" d="M53.11,61.32h-0.58c-0.66,0-1.2-0.54-1.2-1.2s0.54-1.2,1.2-1.2h0.58c0.66,0,1.2,0.54,1.2,1.2
							S53.77,61.32,53.11,61.32z"/>
					</g>
					<g>
						<path class="st2" d="M18.99,61.32h-7.1c-0.66,0-1.2-0.54-1.2-1.2s0.54-1.2,1.2-1.2h7.1c0.66,0,1.2,0.54,1.2,1.2
							S19.65,61.32,18.99,61.32z"/>
					</g>
					<g>
						<path class="st3" d="M31.05,61.32H18.53c-0.66,0-1.2-0.54-1.2-1.2s0.54-1.2,1.2-1.2h12.52c0.66,0,1.2,0.54,1.2,1.2
							S31.71,61.32,31.05,61.32z"/>
					</g>
					<g>
						<path class="st3" d="M35.47,55.21H11.89c-0.66,0-1.2-0.54-1.2-1.2s0.54-1.2,1.2-1.2h23.58c0.66,0,1.2,0.54,1.2,1.2
							S36.13,55.21,35.47,55.21z"/>
					</g>
					<g>
						<path class="st2" d="M53.11,55.21H34.75c-0.66,0-1.2-0.54-1.2-1.2s0.54-1.2,1.2-1.2h18.36c0.66,0,1.2,0.54,1.2,1.2
							S53.77,55.21,53.11,55.21z"/>
					</g>
					<g>
						<path class="st2" d="M12.32,55.21h-0.43c-0.66,0-1.2-0.54-1.2-1.2s0.54-1.2,1.2-1.2h0.43c0.66,0,1.2,0.54,1.2,1.2
							S12.98,55.21,12.32,55.21z"/>
					</g>
				</g>
			</g>
		</g>
	</g>
	<rect id="Rectángulo_3799-2" class="st0" width="65" height="65"/>
	<g id="Grupo_17105">
		<path id="Trazado_11848_2_" class="st4" d="M19.96,21.15c0,2.31-1.87,4.18-4.18,4.18s-4.18-1.87-4.18-4.18s1.87-4.18,4.18-4.18
			l0,0c2.3-0.01,4.17,1.85,4.18,4.15V21.15z"/>
		<g id="Grupo_17104-2">
			<path id="Trazado_17868" class="st5" d="M17.15,33.65c0,0-4.04,6.31-2.69,11.74c0,0,9.74-0.19,12.97-2.83"/>
			<path id="Trazado_17869" class="st5" d="M47.14,33.65c0,0,4.04,6.31,2.69,11.74c0,0-10.17-0.16-13.24-3.34"/>
			<path id="Trazado_17870" class="st5" d="M30.94,31.46c-1.02,3.91-1.98,6.92-3.25,10.75c-0.6,1.82-1,4.47,0.67,5.75
				c2.01,1.54,4.69,1.27,6.7,0.53c2.5-0.92,1.96-3.82,1.52-5.91c-0.83-4.03-2.22-7.09-3.26-11.07"/>
			<circle id="Elipse_2601" class="st5" cx="32.36" cy="27.06" r="4.23"/>
			<path id="Trazado_17871" class="st5" d="M21.92,20.31c1.54,0.15,6.23,0.84,7.24,4"/>
			<path id="Trazado_17872" class="st5" d="M29.49,30.16c-4.82,6.76-15.97,3.88-19.06-3.1c0.25-0.54,0.54-1.05,0.88-1.54"/>
			<path id="Trazado_17873" class="st5" d="M35.51,30.16c4.82,6.76,15.97,3.88,19.06-3.1c-2.02-4.21-6.32-6.86-10.99-6.78
				c0,0-6.52,0.25-7.72,4.03"/>
			<path id="Trazado_17874" class="st5" d="M39.47,21.02c1.1-4.87-2-13.7-7.11-15.97c-0.75-0.33-2.1,1.18-2.56,1.63
				c-1.04,1.06-1.92,2.26-2.62,3.57c-1.71,3.26-2.49,6.92-2.27,10.59"/>
			<line id="Línea_3576" class="st5" x1="32.08" y1="42.13" x2="32.08" y2="48.73"/>
		</g>
	</g>
	<g id="Grupo_17108">
		<rect id="Rectángulo_5379" y="48.26" class="st0" width="65" height="16.74"/>
	</g>
</g>
</svg>
