<?xml version="1.0" encoding="utf-8"?>
<!-- Generator: Adobe Illustrator 24.0.2, SVG Export Plug-In . SVG Version: 6.00 Build 0)  -->
<svg version="1.1" id="Capa_1" xmlns="http://www.w3.org/2000/svg" xmlns:xlink="http://www.w3.org/1999/xlink" x="0px" y="0px"
	 viewBox="0 0 65 65" style="enable-background:new 0 0 65 65;" xml:space="preserve">
<style type="text/css">
	.st0{fill:none;}
	.st1{fill:none;stroke:#19A500;stroke-width:1.6;stroke-linecap:round;stroke-linejoin:round;stroke-miterlimit:10;}
	.st2{fill:none;stroke:#95A6B1;stroke-width:1.6;stroke-linecap:round;stroke-linejoin:round;}
	.st3{clip-path:url(#SVGID_2_);}
	.st4{fill:#4DA12E;}
	.st5{fill:#96D200;}
</style>
<g>
	<rect id="Rectángulo_3799-2_1_" class="st0" width="65" height="65"/>
	<g>
		<path id="Trazado_11848_8_" class="st1" d="M40.2,23.39c0,2.06-1.67,3.73-3.73,3.73s-3.73-1.67-3.73-3.73s1.67-3.73,3.73-3.73l0,0
			c2.05-0.01,3.72,1.65,3.73,3.7C40.2,23.37,40.2,23.38,40.2,23.39z"/>
		<path class="st2" d="M38.97,28.58c0.09,0.47,0.5,0.81,0.98,0.81h3.29c0.24,0,0.48-0.09,0.66-0.25l1.24-1.09
			c0.19-0.17,0.44-0.26,0.69-0.25l2.48,0.07c0.54,0.02,0.97,0.46,0.97,1v1.54c0,0.1-0.02,0.21-0.05,0.31l-1.29,3.98
			c-0.03,0.1-0.08,0.19-0.13,0.27l-0.65,0.92c-0.31,0.43-0.22,1.03,0.2,1.36l3.58,2.83c0.18,0.14,0.4,0.22,0.62,0.22h2.55
			c0.33,0,0.64-0.16,0.82-0.43l0.58-0.84c0.19-0.27,0.49-0.43,0.82-0.43h2.36c0.21,0,0.42,0.07,0.59,0.19L60.95,40
			c0.26,0.19,0.41,0.49,0.41,0.81v0.09c0,0.55-0.45,1-1,1h-1.41c-0.51,0-0.94,0.39-0.99,0.9l-0.14,1.31
			c-0.05,0.51-0.48,0.9-0.99,0.9h-1.45h-3.22c-0.27,0-0.52,0.11-0.71,0.29l-0.66,0.66c-0.32,0.32-0.81,0.38-1.2,0.16l-2.18-1.25
			c-0.1-0.06-0.18-0.13-0.26-0.21l-1.09-1.24c-0.19-0.22-0.46-0.34-0.75-0.34h-4.89c-0.33,0-0.65,0.17-0.83,0.45l-0.67,1
			c-0.07,0.1-0.15,0.19-0.25,0.26l-2.15,1.53c-0.17,0.12-0.37,0.18-0.58,0.18h-2.77c-0.22,0-0.43-0.07-0.6-0.2l-3.74-2.81
			c-0.17-0.13-0.38-0.2-0.6-0.2H25.4c-0.31,0-0.6,0.14-0.79,0.39l-1.73,2.26c-0.26,0.33-0.7,0.47-1.1,0.34l-0.99-0.31
			c-0.41-0.13-0.7-0.52-0.7-0.95v-7.03c0-0.55-0.45-1-1-1h-7.04"/>
		<path class="st2" d="M12.06,36.98c-0.26,0-0.51-0.1-0.69-0.28l-4.43-4.23c-0.2-0.19-0.31-0.45-0.31-0.72v-0.33
			c0-0.65-0.61-1.13-1.24-0.97l-0.51,0.13c-0.63,0.16-1.24-0.32-1.24-0.97v-2.4c0-0.31,0.14-0.6,0.39-0.79l1.15-0.9
			c0.24-0.19,0.39-0.48,0.39-0.79v-4.27c0-0.17,0.04-0.34,0.13-0.49l2.6-4.59c0.04-0.06,0.08-0.12,0.13-0.18l1.55-1.73
			c0.19-0.21,0.46-0.33,0.74-0.33h1.12c0.55,0,1-0.45,1-1v-0.58c0-0.29-0.12-0.56-0.34-0.75l-1.11-0.98
			c-0.23-0.2-0.35-0.5-0.34-0.81l0.01-0.21c0.04-0.6,0.58-1.03,1.17-0.93l1.73,0.3c0.17,0.03,0.34,0.11,0.47,0.22l2.11,1.77
			c0.23,0.19,0.36,0.47,0.36,0.77v3.19c0,0.53,0.41,0.97,0.94,1l0.19,0.01c0.36,0.02,0.68,0.24,0.84,0.57l0.82,1.71l0.18,0.35
			c0.29,0.58-0.04,1.28-0.68,1.42l-0.37,0.08c-0.2,0.04-0.38,0.15-0.52,0.3l-1.88,2.05c-0.17,0.18-0.26,0.43-0.26,0.68V24
			c0,0.17-0.04,0.34-0.13,0.49l-0.41,0.74L18.98,28c0.18,0.15,0.4,0.23,0.64,0.23h5.68c0.3,0,0.59-0.14,0.78-0.38l2.8-3.52
			c0.14-0.18,0.22-0.4,0.22-0.62v-2.43c0-0.21,0.07-0.41,0.19-0.58l1.65-2.31c0.19-0.26,0.49-0.42,0.81-0.42h0.41
			c0.35,0,0.68,0.19,0.86,0.49"/>
	</g>
</g>
<g>
	<defs>
		<rect id="SVGID_1_" y="48.26" width="65" height="16.74"/>
	</defs>
	<clipPath id="SVGID_2_">
		<use xlink:href="#SVGID_1_"  style="overflow:visible;"/>
	</clipPath>
	<g class="st3">
		<g>
			<rect y="48.26" class="st0" width="65" height="16.74"/>
		</g>
		<g>
			<g>
				<path class="st4" d="M45.38,61.32h-7.17c-0.66,0-1.2-0.54-1.2-1.2s0.54-1.2,1.2-1.2h7.17c0.66,0,1.2,0.54,1.2,1.2
					S46.04,61.32,45.38,61.32z"/>
			</g>
			<g>
				<path class="st4" d="M53.11,61.32h-0.58c-0.66,0-1.2-0.54-1.2-1.2s0.54-1.2,1.2-1.2h0.58c0.66,0,1.2,0.54,1.2,1.2
					S53.77,61.32,53.11,61.32z"/>
			</g>
			<g>
				<path class="st4" d="M18.99,61.32h-7.1c-0.66,0-1.2-0.54-1.2-1.2s0.54-1.2,1.2-1.2h7.1c0.66,0,1.2,0.54,1.2,1.2
					S19.65,61.32,18.99,61.32z"/>
			</g>
			<g>
				<path class="st5" d="M31.05,61.32H18.53c-0.66,0-1.2-0.54-1.2-1.2s0.54-1.2,1.2-1.2h12.52c0.66,0,1.2,0.54,1.2,1.2
					S31.71,61.32,31.05,61.32z"/>
			</g>
			<g>
				<path class="st5" d="M35.47,55.21H11.89c-0.66,0-1.2-0.54-1.2-1.2s0.54-1.2,1.2-1.2h23.58c0.66,0,1.2,0.54,1.2,1.2
					S36.13,55.21,35.47,55.21z"/>
			</g>
			<g>
				<path class="st4" d="M53.11,55.21H34.75c-0.66,0-1.2-0.54-1.2-1.2s0.54-1.2,1.2-1.2h18.36c0.66,0,1.2,0.54,1.2,1.2
					S53.77,55.21,53.11,55.21z"/>
			</g>
			<g>
				<path class="st4" d="M12.32,55.21h-0.43c-0.66,0-1.2-0.54-1.2-1.2s0.54-1.2,1.2-1.2h0.43c0.66,0,1.2,0.54,1.2,1.2
					S12.98,55.21,12.32,55.21z"/>
			</g>
		</g>
	</g>
</g>
</svg>
