<svg id="Grupo_20118" data-name="Grupo 20118" xmlns="http://www.w3.org/2000/svg" width="47.173" height="47.173" viewBox="0 0 47.173 47.173">
  <g id="Grupo_19859" data-name="Grupo 19859">
    <rect id="Rectángulo_3799-2" data-name="Rectángulo 3799-2" width="47.173" height="47.173" fill="none"/>
    <g id="Grupo_19858" data-name="Grupo 19858" transform="translate(3.65 6.519)">
      <g id="Grupo_19856" data-name="Grupo 19856" transform="translate(0 12.673)">
        <g id="Grupo_19855" data-name="Grupo 19855">
          <line id="Línea_4358" data-name="Línea 4358" x1="2.483" transform="translate(4.683 6.244)" fill="none" stroke="#95a6b1" stroke-linecap="round" stroke-linejoin="round" stroke-width="1.5"/>
          <line id="Línea_4359" data-name="Línea 4359" x1="2.462" transform="translate(10.695 6.244)" fill="none" stroke="#95a6b1" stroke-linecap="round" stroke-linejoin="round" stroke-width="1.5"/>
          <path id="Trazado_19556" data-name="Trazado 19556" d="M17.91,20.129a.93.93,0,0,0-.79-1.024H7.867a.93.93,0,0,0-.79,1.024v.24a.93.93,0,0,0,.79,1.024H17.12a.93.93,0,0,0,.79-1.024Z" transform="translate(-3.563 -19.105)" fill="none" stroke="#95a6b1" stroke-linecap="round" stroke-linejoin="round" stroke-width="1.5"/>
          <line id="Línea_4360" data-name="Línea 4360" x1="4.553" transform="translate(2.613 10.376)" fill="none" stroke="#95a6b1" stroke-linecap="round" stroke-linejoin="round" stroke-width="1.5"/>
          <path id="Trazado_19557" data-name="Trazado 19557" d="M14.258,35.372h5.325v-6.01H14.258" transform="translate(-3.563 -19.105)" fill="none" stroke="#95a6b1" stroke-linecap="round" stroke-linejoin="round" stroke-width="1.5"/>
          <line id="Línea_4361" data-name="Línea 4361" x2="4.965" transform="translate(2.201 16.147)" fill="none" stroke="#95a6b1" stroke-linecap="round" stroke-linejoin="round" stroke-width="1.5"/>
          <rect id="Rectángulo_5702" data-name="Rectángulo 5702" width="2.132" height="9.132" transform="translate(0 8.696)" fill="none" stroke="#95a6b1" stroke-linecap="round" stroke-linejoin="round" stroke-width="1.5"/>
          <rect id="Rectángulo_5703" data-name="Rectángulo 5703" width="3.529" height="15.741" transform="translate(7.166 2.306)" fill="none" stroke="#95a6b1" stroke-linecap="round" stroke-linejoin="round" stroke-width="1.5"/>
        </g>
      </g>
      <g id="Grupo_19857" data-name="Grupo 19857" transform="translate(16.019)">
        <path id="Trazado_19558" data-name="Trazado 19558" d="M19.582,30.98v9.588H40.546V30.98" transform="translate(-19.582 -6.432)" fill="none" stroke="#95a6b1" stroke-linecap="round" stroke-linejoin="round" stroke-width="1.5"/>
        <path id="Trazado_19559" data-name="Trazado 19559" d="M22.537,25.459H19.582V30.98" transform="translate(-19.582 -6.432)" fill="none" stroke="#95a6b1" stroke-linecap="round" stroke-linejoin="round" stroke-width="1.5"/>
        <path id="Trazado_19560" data-name="Trazado 19560" d="M40.546,30.98V25.459h-3.9" transform="translate(-19.582 -6.432)" fill="none" stroke="#95a6b1" stroke-linecap="round" stroke-linejoin="round" stroke-width="1.5"/>
        <path id="Trazado_19561" data-name="Trazado 19561" d="M36.649,10.138V8.3a1.869,1.869,0,0,1,1.869-1.87h3.049a1.87,1.87,0,0,1,1.87,1.87V37.545H40.546l-2.62-4.676a2.067,2.067,0,0,0-1.6-.765H19.582" transform="translate(-19.582 -6.432)" fill="none" stroke="#95a6b1" stroke-linecap="round" stroke-linejoin="round" stroke-width="1.5"/>
        <path id="Trazado_19562" data-name="Trazado 19562" d="M22.537,25.719V27.5a.722.722,0,0,0,.722.722h1.517A.722.722,0,0,0,25.5,27.5V23.441a.722.722,0,0,1,.722-.722h1.344a.722.722,0,0,1,.722.722V27.5a.722.722,0,0,0,.722.722h1.518a.723.723,0,0,0,.722-.722V23.441a.722.722,0,0,1,.722-.722h1a.722.722,0,0,1,.722.722V27.5a.722.722,0,0,0,.722.722h1.518a.723.723,0,0,0,.722-.722V21.244" transform="translate(-19.582 -6.432)" fill="none" stroke="#95a6b1" stroke-linecap="round" stroke-linejoin="round" stroke-width="1.5"/>
        <circle id="Elipse_3061" data-name="Elipse 3061" cx="1.213" cy="1.213" r="1.213" transform="translate(3.233 29.342)" fill="none" stroke="#95a6b1" stroke-linecap="round" stroke-linejoin="round" stroke-width="1.5"/>
        <circle id="Elipse_3062" data-name="Elipse 3062" cx="1.213" cy="1.213" r="1.213" transform="translate(8.721 29.342)" fill="none" stroke="#95a6b1" stroke-linecap="round" stroke-linejoin="round" stroke-width="1.5"/>
      </g>
    </g>
  </g>
  <path id="Trazado_11848" data-name="Trazado 11848" d="M39.69,15.467a3.042,3.042,0,1,1-3.041-3.041h0a3.029,3.029,0,0,1,3.041,3.018Z" transform="translate(0.087 0.087)" fill="none" stroke="#19a500" stroke-linecap="round" stroke-linejoin="round" stroke-width="1.5"/>
</svg>
