<?xml version="1.0" encoding="utf-8"?>
<!-- Generator: Adobe Illustrator 24.0.2, SVG Export Plug-In . SVG Version: 6.00 Build 0)  -->
<svg version="1.1" id="Layer_1" xmlns="http://www.w3.org/2000/svg" xmlns:xlink="http://www.w3.org/1999/xlink" x="0px" y="0px"
	 width="47px" height="47px" viewBox="0 0 47 47" style="enable-background:new 0 0 47 47;" xml:space="preserve">
<style type="text/css">
	.st0{clip-path:url(#SVGID_2_);}
	.st1{fill:#FFFFFF;}
	.st2{clip-path:url(#SVGID_4_);}
</style>
<g>
	<defs>
		<rect id="SVGID_1_" width="47" height="47"/>
	</defs>
	<clipPath id="SVGID_2_">
		<use xlink:href="#SVGID_1_"  style="overflow:visible;"/>
	</clipPath>
	<g id="Group_9433" class="st0">
		<g id="Path_7749">
			<path class="st1" d="M34,39.3H20.4c-0.4,0-0.8-0.4-0.8-0.8s0.4-0.8,0.8-0.8h12.8V18.8c0-0.4,0.4-0.8,0.8-0.8s0.8,0.4,0.8,0.8
				v19.7C34.8,38.9,34.5,39.3,34,39.3z"/>
		</g>
		<g id="Path_7750">
			<path class="st1" d="M11.1,30.5c-0.4,0-0.8-0.4-0.8-0.8V10.1c0-0.4,0.4-0.8,0.8-0.8h15.4c0.4,0,0.8,0.4,0.8,0.8s-0.4,0.8-0.8,0.8
				H11.9v18.8C11.9,30.1,11.6,30.5,11.1,30.5z"/>
		</g>
		<g id="Group_9432">
			<g>
				<defs>
					<rect id="SVGID_3_" width="47" height="47"/>
				</defs>
				<clipPath id="SVGID_4_">
					<use xlink:href="#SVGID_3_"  style="overflow:visible;"/>
				</clipPath>
				<g id="Group_9431" class="st2">
					<g id="Path_7751">
						<path class="st1" d="M32.4,16.2c-1.2,0-2.3-0.5-3.1-1.4C28.6,14,28.2,13,28.2,12c0-2.3,1.9-4.2,4.2-4.2c2.3,0,4.2,1.9,4.2,4.2
							S34.8,16.2,32.4,16.2C32.4,16.2,32.4,16.2,32.4,16.2z M32.4,9.3c-1.5,0-2.7,1.2-2.7,2.7c0,0,0,0,0,0c0,0.7,0.2,1.3,0.7,1.8
							c0.5,0.5,1.2,0.8,1.9,0.8c0,0,0,0,0,0c1.5,0,2.7-1.2,2.7-2.7S33.9,9.3,32.4,9.3z M29,12L29,12L29,12z"/>
					</g>
					<g id="Line_1835">
						<path class="st1" d="M29,31H17c-0.4,0-0.8-0.4-0.8-0.8s0.4-0.8,0.8-0.8h12c0.4,0,0.8,0.4,0.8,0.8S29.4,31,29,31z"/>
					</g>
					<g id="Path_7752">
						<path class="st1" d="M29,18.7c-0.2,0-0.3-0.1-0.5-0.2L27,17.3l-1.5,1.2c-0.3,0.2-0.7,0.2-1,0L23,17.3l-1.5,1.2
							c-0.3,0.2-0.7,0.2-1,0L19,17.3l-1.5,1.2c-0.3,0.3-0.8,0.2-1.1-0.1c-0.3-0.3-0.2-0.8,0.1-1.1l2-1.6c0.3-0.2,0.7-0.2,1,0
							l1.5,1.2l1.5-1.2c0.3-0.2,0.7-0.2,1,0l1.5,1.2l1.5-1.2c0.3-0.2,0.7-0.2,1,0l2,1.6c0.3,0.3,0.4,0.8,0.1,1.1
							C29.5,18.6,29.2,18.7,29,18.7z"/>
					</g>
					<g id="Line_1836">
						<path class="st1" d="M29,34.4H17c-0.4,0-0.8-0.4-0.8-0.8s0.4-0.8,0.8-0.8h12c0.4,0,0.8,0.4,0.8,0.8S29.4,34.4,29,34.4z"/>
					</g>
					<g id="Path_7753">
						<path class="st1" d="M24.8,39.3h-8.4c-3.3,0-6-2.7-6-6V19.6c0-0.4,0.4-0.8,0.8-0.8s0.8,0.4,0.8,0.8v13.6c0,2.5,2,4.5,4.5,4.5
							h8.4c0.4,0,0.8,0.4,0.8,0.8S25.2,39.3,24.8,39.3z"/>
					</g>
					<g id="Rectangle_3082">
						<path class="st1" d="M28.8,27.1H17c-0.4,0-0.8-0.4-0.8-0.8v-5.2c0-0.4,0.4-0.8,0.8-0.8h11.8c0.4,0,0.8,0.4,0.8,0.8v5.2
							C29.6,26.7,29.3,27.1,28.8,27.1z M17.8,25.5H28v-3.6H17.8V25.5z"/>
					</g>
				</g>
			</g>
		</g>
	</g>
</g>
</svg>
