<?xml version="1.0" encoding="utf-8"?>
<!-- Generator: Adobe Illustrator 24.0.2, SVG Export Plug-In . SVG Version: 6.00 Build 0)  -->
<svg version="1.1" id="Layer_1" xmlns="http://www.w3.org/2000/svg" xmlns:xlink="http://www.w3.org/1999/xlink" x="0px" y="0px"
	 width="21px" height="24px" viewBox="0 0 21 24" style="enable-background:new 0 0 21 24;" xml:space="preserve">
<style type="text/css">
	.st0{fill:none;}
	.st1{fill:#95A6B1;}
</style>
<rect id="Rectangle_3080" x="-3.5" y="-4.5" class="st0" width="28" height="33"/>
<g id="Group_9237" transform="translate(1.059 0.75)">
	<g id="Line_1748">
		<path class="st1" d="M13.7,6.9H8.2c-0.4,0-0.8-0.3-0.8-0.8s0.3-0.8,0.8-0.8h5.5c0.4,0,0.8,0.3,0.8,0.8S14.1,6.9,13.7,6.9z"/>
	</g>
	<g id="Line_1749">
		<path class="st1" d="M13.7,9.7H8.2C7.8,9.7,7.5,9.4,7.5,9s0.3-0.8,0.8-0.8h5.5c0.4,0,0.8,0.3,0.8,0.8S14.1,9.7,13.7,9.7z"/>
	</g>
	<g id="Group_9236">
		<g id="Group_9235">
			<g id="Line_1750">
				<path class="st1" d="M1.3,20.3c-0.4,0-0.8-0.3-0.8-0.8V16c0-0.4,0.3-0.8,0.8-0.8s0.8,0.3,0.8,0.8v3.5C2.1,20,1.8,20.3,1.3,20.3z
					"/>
			</g>
			<g id="Path_7657">
				<path class="st1" d="M1.3,16.8c-0.4,0-0.8-0.3-0.8-0.8V6.3c0-0.4,0.3-0.8,0.8-0.8h3.1c0.4,0,0.8,0.3,0.8,0.8S4.8,7,4.4,7H2.1v9
					C2.1,16.5,1.8,16.8,1.3,16.8z"/>
			</g>
			<g id="Line_1751">
				<path class="st1" d="M1.3,20.3c-0.2,0-0.4-0.1-0.6-0.2c-0.3-0.3-0.3-0.8,0.1-1.1l4.3-3.9c0.3-0.3,0.8-0.2,1.1,0.1
					c0.3,0.3,0.3,0.8-0.1,1.1l-4.3,3.9C1.7,20.2,1.5,20.3,1.3,20.3z"/>
			</g>
			<g id="Path_7658">
				<path class="st1" d="M10.7,16.4C10.7,16.4,10.7,16.4,10.7,16.4H5.7c-0.4,0-0.8-0.3-0.8-0.8s0.3-0.8,0.8-0.8h5.1c0,0,0,0,0,0
					c1.1,0,2.2-0.7,2.6-1.7c0.2-0.4,0.6-0.6,1-0.4c0.4,0.2,0.6,0.6,0.4,1C14,15.4,12.5,16.4,10.7,16.4z"/>
			</g>
			<g id="Path_7659">
				<path class="st1" d="M17.5,17.1c-0.4,0-0.8-0.3-0.8-0.8V3.7H4.6c-0.4,0-0.8-0.3-0.8-0.8s0.3-0.8,0.8-0.8h13
					c0.4,0,0.8,0.3,0.8,0.8v13.4C18.3,16.8,17.9,17.1,17.5,17.1z"/>
			</g>
			<g id="Line_1752">
				<path class="st1" d="M17.5,17.1c-0.2,0-0.4-0.1-0.5-0.2l-4.3-3.9c-0.3-0.3-0.3-0.8-0.1-1.1c0.3-0.3,0.8-0.3,1.1-0.1l4.3,3.9
					c0.3,0.3,0.3,0.8,0.1,1.1C17.9,17.1,17.7,17.1,17.5,17.1z"/>
			</g>
			<g id="Path_7660">
				<path class="st1" d="M13.2,13.3H8.2c-2.4,0-4.3-1.9-4.3-4.3v-6c0-0.4,0.3-0.8,0.8-0.8s0.8,0.3,0.8,0.8v6c0,1.6,1.3,2.8,2.8,2.8
					h5.1c0.4,0,0.8,0.3,0.8,0.8S13.6,13.3,13.2,13.3z"/>
			</g>
		</g>
	</g>
</g>
</svg>
