<?xml version="1.0" encoding="utf-8"?>
<!-- Generator: Adobe Illustrator 24.0.2, SVG Export Plug-In . SVG Version: 6.00 Build 0)  -->
<svg version="1.1" id="Layer_1" xmlns="http://www.w3.org/2000/svg" xmlns:xlink="http://www.w3.org/1999/xlink" x="0px" y="0px"
	 width="27px" height="24px" viewBox="0 0 27 24" style="enable-background:new 0 0 27 24;" xml:space="preserve">
<style type="text/css">
	.st0{fill:none;}
	.st1{fill:#95A6B1;}
</style>
<g id="Rectangle_3081">
	<g>
		<rect class="st0" width="27" height="24"/>
	</g>
</g>
<path class="st1" d="M24.3,10.6c0-1.1-0.9-2.1-2-2.1l-6.2,0l0.7-1.3c0.6-1.1,0.4-2.4-0.3-3.3c-0.1-0.2-0.3-0.4-0.5-0.5
	C15,2.8,13.8,3,13.1,4l-3.3,5H8.6V8.7c0-0.4-0.3-0.8-0.8-0.8H3.5c-0.4,0-0.8,0.3-0.8,0.8v11.5c0,0.4,0.3,0.8,0.8,0.8h4.4
	c0.4,0,0.8-0.3,0.8-0.8v-0.4h1.6l2.9,0.7c0.1,0,0.1,0,0.2,0h6.2c1.1,0,2-0.9,2-2c0-0.3-0.1-0.6-0.2-0.8c0.6-0.3,1.1-1,1.1-1.8
	c0-0.3-0.1-0.5-0.2-0.8c0.7-0.3,1.1-1,1.1-1.8c0-0.3-0.1-0.6-0.2-0.8C23.8,12.1,24.3,11.4,24.3,10.6z M7.1,19.4H4.2v-10h2.9V19.4z
	 M19.4,19h-6.1l-2.9-0.7c-0.1,0-0.1,0-0.2,0H8.6v-7.9h1.7c0.3,0,0.5-0.1,0.6-0.3l3.5-5.3c0.2-0.2,0.5-0.3,0.7-0.2
	c0.1,0,0.1,0.1,0.1,0.1c0.4,0.5,0.4,1.2,0.1,1.8l-0.8,1.5c-0.2,0.3-0.2,0.7-0.1,1c0.1,0.3,0.3,0.6,0.7,0.8c0.2,0.1,0.4,0.1,0.6,0.2
	h6.4c0.3,0,0.5,0.2,0.5,0.6s-0.2,0.5-0.5,0.5h-1.1c0,0,0,0-0.1,0h-0.2c-0.4,0-0.8,0.3-0.8,0.8s0.3,0.8,0.8,0.8h0.5
	c0.3,0,0.5,0.2,0.5,0.5c0,0.3-0.2,0.6-0.5,0.6h-2.1c-0.4,0-0.8,0.3-0.8,0.8c0,0,0,0,0,0s0,0,0,0c0,0.4,0.3,0.8,0.8,0.8h1.1
	c0.3,0,0.5,0.2,0.5,0.5s-0.2,0.5-0.5,0.5h-2.1c-0.4,0-0.8,0.3-0.8,0.8c0,0,0,0,0,0s0,0,0,0c0,0.4,0.3,0.8,0.8,0.8h1.2
	c0.3,0,0.5,0.2,0.5,0.5S19.7,19,19.4,19z"/>
</svg>
