<?xml version="1.0" encoding="utf-8"?>
<!-- Generator: Adobe Illustrator 24.0.2, SVG Export Plug-In . SVG Version: 6.00 Build 0)  -->
<svg version="1.1" id="Capa_1" xmlns="http://www.w3.org/2000/svg" xmlns:xlink="http://www.w3.org/1999/xlink" x="0px" y="0px"
	 viewBox="0 0 65 65" style="enable-background:new 0 0 65 65;" xml:space="preserve">
<style type="text/css">
	.st0{display:none;}
	.st1{fill:none;}
	.st2{fill:none;stroke:#95A6B1;stroke-width:1.6;stroke-linecap:round;stroke-linejoin:round;}
	.st3{fill:none;stroke:#00A800;stroke-width:1.6;stroke-linecap:round;stroke-linejoin:round;stroke-miterlimit:10;}
	.st4{clip-path:url(#SVGID_2_);}
	.st5{fill:#4DA12E;}
	.st6{fill:#96D200;}
</style>
<g id="Capa_2_1_" class="st0">
</g>
<g id="Capa_1_1_">
	<g>
		<g id="Grupo_14998_3_" transform="translate(-83.703)">
			<rect id="Rectángulo_3799-2_6_" x="83.7" class="st1" width="65" height="65"/>
			<g id="Grupo_16997">
				<g id="Grupo_16996">
					<line id="Línea_3299" class="st2" x1="90.76" y1="49.27" x2="142.16" y2="49.27"/>
					<path id="Trazado_18062" class="st2" d="M94.46,14.6v-2.15c0-1.72,1.4-3.11,3.12-3.11h3.62c1.72,0,3.11,1.39,3.11,3.11v36.59"
						/>
					<line id="Línea_3300" class="st2" x1="94.46" y1="49.27" x2="94.46" y2="30.25"/>
					<path id="Trazado_18063" class="st2" d="M123.32,49.19V34.71c0-1.66,1.34-3,3-3h9.12c1.66,0,3,1.34,3,3v14.56"/>
					<path id="Trazado_18064" class="st2" d="M119.58,49.19V28.22c0-1.66,1.34-3,3-3h5.22c1.66,0,3,1.34,3,3v3.34"/>
					<path id="Trazado_18065" class="st2" d="M104.31,15.44h1.37c1.44,0,2.6,1.16,2.6,2.6v31"/>
					<path id="Trazado_18066" class="st2" d="M104.54,31.09h7.02c1.27,0,2.29,1.03,2.29,2.29v7.71c0,1.27,1.03,2.29,2.29,2.29l0,0
						h6.92"/>
					<path id="Trazado_18067" class="st2" d="M133.4,40.67l-2.1-4.34l-1.94,4.34c-0.21,0.44-0.35,0.92-0.41,1.41
						c0,1.34,1.08,2.42,2.42,2.42s2.42-1.08,2.42-2.42l0,0C133.74,41.59,133.6,41.12,133.4,40.67z"/>
					<line id="Línea_3301" class="st2" x1="125.53" y1="18.93" x2="125.53" y2="24.93"/>
					<path id="Rectángulo_5292" class="st2" d="M118.02,2.48h20.18l0,0v11.27c0,2.85-2.31,5.15-5.15,5.15l0,0h-20.18l0,0V7.63
						C112.87,4.78,115.17,2.48,118.02,2.48L118.02,2.48z"/>
					<g id="Grupo_16995">
						<path id="Trazado_18068" class="st2" d="M134.64,7.59c0-1.15-0.93-2.07-2.08-2.08h-0.27c-1.13,0-2.05,0.92-2.05,2.05v1.13
							c0,1.15,0.93,2.08,2.08,2.08h0.24"/>
						<path id="Trazado_18069" class="st2" d="M130.24,14c0,1.15,0.94,2.09,2.09,2.09h0.21c1.15,0,2.09-0.94,2.09-2.09v-1.14
							c0-1.15-0.94-2.09-2.09-2.09h-0.24"/>
						<g id="Grupo_16994-2">
							<path id="Trazado_18070" class="st2" d="M127.65,8.85V7.6c-0.01-1.16-0.95-2.09-2.11-2.09h-0.01h-0.16
								c-1.16-0.01-2.11,0.92-2.12,2.08c0,0,0,0,0,0.01v1.25"/>
							<line id="Línea_3302" class="st2" x1="123.25" y1="8.85" x2="123.25" y2="16.09"/>
							<line id="Línea_3303" class="st2" x1="123.25" y1="7.77" x2="123.25" y2="8.85"/>
							<line id="Línea_3304" class="st2" x1="127.66" y1="8.85" x2="127.66" y2="16.09"/>
							<line id="Línea_3305" class="st2" x1="127.66" y1="7.77" x2="127.66" y2="8.85"/>
							<line id="Línea_3306" class="st2" x1="123.24" y1="10.76" x2="127.66" y2="10.76"/>
						</g>
						<path id="Trazado_18071" class="st2" d="M116.65,5.52l2.23,10.59l2.11-10.59"/>
					</g>
					<path id="Trazado_11848_6_" class="st3" d="M98.62,22.32c0,2.31-1.87,4.18-4.18,4.18s-4.18-1.87-4.18-4.18s1.87-4.18,4.18-4.18
						l0,0c2.3-0.01,4.17,1.85,4.18,4.15V22.32z"/>
				</g>
			</g>
		</g>
		<g>
			<defs>
				<rect id="SVGID_1_" y="48.26" width="65" height="16.74"/>
			</defs>
			<clipPath id="SVGID_2_">
				<use xlink:href="#SVGID_1_"  style="overflow:visible;"/>
			</clipPath>
			<g class="st4">
				<g>
					<rect y="48.26" class="st1" width="65" height="16.74"/>
				</g>
				<g>
					<g>
						<path class="st5" d="M45.38,61.32h-7.17c-0.66,0-1.2-0.54-1.2-1.2s0.54-1.2,1.2-1.2h7.17c0.66,0,1.2,0.54,1.2,1.2
							S46.04,61.32,45.38,61.32z"/>
					</g>
					<g>
						<path class="st5" d="M53.11,61.32h-0.58c-0.66,0-1.2-0.54-1.2-1.2s0.54-1.2,1.2-1.2h0.58c0.66,0,1.2,0.54,1.2,1.2
							S53.77,61.32,53.11,61.32z"/>
					</g>
					<g>
						<path class="st5" d="M18.99,61.32h-7.1c-0.66,0-1.2-0.54-1.2-1.2s0.54-1.2,1.2-1.2h7.1c0.66,0,1.2,0.54,1.2,1.2
							S19.65,61.32,18.99,61.32z"/>
					</g>
					<g>
						<path class="st6" d="M31.05,61.32H18.53c-0.66,0-1.2-0.54-1.2-1.2s0.54-1.2,1.2-1.2h12.52c0.66,0,1.2,0.54,1.2,1.2
							S31.71,61.32,31.05,61.32z"/>
					</g>
					<g>
						<path class="st6" d="M35.47,55.21H11.89c-0.66,0-1.2-0.54-1.2-1.2s0.54-1.2,1.2-1.2h23.58c0.66,0,1.2,0.54,1.2,1.2
							S36.13,55.21,35.47,55.21z"/>
					</g>
					<g>
						<path class="st5" d="M53.11,55.21H34.75c-0.66,0-1.2-0.54-1.2-1.2s0.54-1.2,1.2-1.2h18.36c0.66,0,1.2,0.54,1.2,1.2
							S53.77,55.21,53.11,55.21z"/>
					</g>
					<g>
						<path class="st5" d="M12.32,55.21h-0.43c-0.66,0-1.2-0.54-1.2-1.2s0.54-1.2,1.2-1.2h0.43c0.66,0,1.2,0.54,1.2,1.2
							S12.98,55.21,12.32,55.21z"/>
					</g>
				</g>
			</g>
		</g>
	</g>
</g>
</svg>
