<?xml version="1.0" encoding="utf-8"?>
<!-- Generator: Adobe Illustrator 24.0.2, SVG Export Plug-In . SVG Version: 6.00 Build 0)  -->
<svg version="1.1" id="Capa_1" xmlns="http://www.w3.org/2000/svg" xmlns:xlink="http://www.w3.org/1999/xlink" x="0px" y="0px"
	 viewBox="0 0 65 65" style="enable-background:new 0 0 65 65;" xml:space="preserve">
<style type="text/css">
	.st0{display:none;}
	.st1{fill:none;}
	.st2{clip-path:url(#SVGID_2_);}
	.st3{fill:#4DA12E;}
	.st4{fill:#96D200;}
	.st5{fill:none;stroke:#95A6B1;stroke-width:1.6;stroke-linecap:round;stroke-linejoin:round;}
	.st6{fill:none;stroke:#19A500;stroke-width:1.6;stroke-linecap:round;stroke-linejoin:round;stroke-miterlimit:10;}
</style>
<g id="Capa_2_1_" class="st0">
</g>
<g id="Capa_1_1_">
	<g>
		<g id="Grupo_14998_4_" transform="translate(-83.703)">
			<rect id="Rectángulo_3799-2_4_" x="83.7" class="st1" width="65" height="65"/>
		</g>
		<g>
			<defs>
				<rect id="SVGID_1_" y="48.26" width="65" height="16.74"/>
			</defs>
			<clipPath id="SVGID_2_">
				<use xlink:href="#SVGID_1_"  style="overflow:visible;"/>
			</clipPath>
			<g class="st2">
				<g>
					<rect y="48.26" class="st1" width="65" height="16.74"/>
				</g>
				<g>
					<g>
						<path class="st3" d="M45.38,61.32h-7.17c-0.66,0-1.2-0.54-1.2-1.2s0.54-1.2,1.2-1.2h7.17c0.66,0,1.2,0.54,1.2,1.2
							S46.04,61.32,45.38,61.32z"/>
					</g>
					<g>
						<path class="st3" d="M53.11,61.32h-0.58c-0.66,0-1.2-0.54-1.2-1.2s0.54-1.2,1.2-1.2h0.58c0.66,0,1.2,0.54,1.2,1.2
							S53.77,61.32,53.11,61.32z"/>
					</g>
					<g>
						<path class="st3" d="M18.99,61.32h-7.1c-0.66,0-1.2-0.54-1.2-1.2s0.54-1.2,1.2-1.2h7.1c0.66,0,1.2,0.54,1.2,1.2
							S19.65,61.32,18.99,61.32z"/>
					</g>
					<g>
						<path class="st4" d="M31.05,61.32H18.53c-0.66,0-1.2-0.54-1.2-1.2s0.54-1.2,1.2-1.2h12.52c0.66,0,1.2,0.54,1.2,1.2
							S31.71,61.32,31.05,61.32z"/>
					</g>
					<g>
						<path class="st4" d="M35.47,55.21H11.89c-0.66,0-1.2-0.54-1.2-1.2s0.54-1.2,1.2-1.2h23.58c0.66,0,1.2,0.54,1.2,1.2
							S36.13,55.21,35.47,55.21z"/>
					</g>
					<g>
						<path class="st3" d="M53.11,55.21H34.75c-0.66,0-1.2-0.54-1.2-1.2s0.54-1.2,1.2-1.2h18.36c0.66,0,1.2,0.54,1.2,1.2
							S53.77,55.21,53.11,55.21z"/>
					</g>
					<g>
						<path class="st3" d="M12.32,55.21h-0.43c-0.66,0-1.2-0.54-1.2-1.2s0.54-1.2,1.2-1.2h0.43c0.66,0,1.2,0.54,1.2,1.2
							S12.98,55.21,12.32,55.21z"/>
					</g>
				</g>
			</g>
		</g>
		<g>
			<g>
				<line class="st5" x1="7.13" y1="49.25" x2="58.53" y2="49.25"/>
				<path class="st5" d="M10.83,14.58v-2.15c0-1.72,1.39-3.12,3.12-3.12h3.62c1.72,0,3.12,1.39,3.12,3.12v36.59"/>
				<line class="st5" x1="10.83" y1="49.24" x2="10.83" y2="30.23"/>
				<path class="st5" d="M39.69,49.17V34.68c0-1.66,1.34-3,3-3h9.12c1.66,0,3,1.34,3,3v14.56"/>
				<path class="st5" d="M35.95,49.17V28.19c0-1.66,1.34-3,3-3h5.22c1.66,0,3,1.34,3,3v3.34"/>
				<path class="st5" d="M20.68,15.42h1.37c1.44,0,2.6,1.16,2.6,2.6v31"/>
				<path class="st5" d="M20.91,31.07h7.02c1.27,0,2.29,1.03,2.29,2.29v7.71c0,1.27,1.03,2.29,2.29,2.29h6.92"/>
				<path class="st5" d="M49.77,40.65l-2.1-4.34l-1.94,4.34c0,0-0.41,0.88-0.41,1.41c0,1.34,1.08,2.42,2.42,2.42
					s2.42-1.08,2.42-2.42C50.16,41.53,49.77,40.65,49.77,40.65z"/>
				<line class="st5" x1="41.91" y1="18.91" x2="41.91" y2="24.9"/>
				<path class="st5" d="M54.58,2.45H34.39c-2.85,0-5.15,2.31-5.15,5.15v11.28h20.18c2.85,0,5.15-2.31,5.15-5.15V2.45H54.58z"/>
				<g>
					<line class="st5" x1="33.31" y1="13.95" x2="33.31" y2="8.53"/>
					<path class="st5" d="M35.59,5.49h-0.16c-1.16,0-2.12,0.95-2.12,2.12v3.15h2.28c1.16,0,2.12-0.95,2.12-2.12V7.61
						C37.71,6.44,36.76,5.49,35.59,5.49z"/>
					<path class="st5" d="M35.62,10.76h-2.31v5.31h2.28c1.16,0,2.12-0.95,2.12-2.12v-1.1C37.71,11.7,36.77,10.76,35.62,10.76z"/>
					<polyline class="st5" points="46.94,5.49 46.94,16.07 50.5,16.07 					"/>
					<polyline class="st5" points="44.11,5.49 40.61,5.49 40.61,16.07 44.17,16.07 					"/>
					<line class="st5" x1="43.83" y1="10.75" x2="40.77" y2="10.75"/>
				</g>
				<path id="Trazado_11848_5_" class="st6" d="M14.99,22.29c0,2.31-1.87,4.18-4.18,4.18s-4.18-1.87-4.18-4.18s1.87-4.18,4.18-4.18
					l0,0c2.3-0.01,4.17,1.85,4.18,4.15C14.99,22.27,14.99,22.28,14.99,22.29z"/>
			</g>
		</g>
	</g>
</g>
</svg>
