<?xml version="1.0" encoding="utf-8"?>
<!-- Generator: Adobe Illustrator 24.0.2, SVG Export Plug-In . SVG Version: 6.00 Build 0)  -->
<svg version="1.1" id="Capa_1" xmlns="http://www.w3.org/2000/svg" xmlns:xlink="http://www.w3.org/1999/xlink" x="0px" y="0px"
	 width="150px" height="84px" viewBox="0 0 150 84" style="enable-background:new 0 0 150 84;" xml:space="preserve">
<style type="text/css">
	.st0{fill:none;}
	.st1{fill:none;stroke:#FFFFFF;stroke-width:2;stroke-linecap:round;stroke-linejoin:round;stroke-miterlimit:10;}
	.st2{fill:#FFFFFF;}
	.st3{fill:#FFDA25;}
	.st4{fill:#FFF000;}
	.st5{fill:#FFE600;}
</style>
<g>
	<rect y="0" class="st0" width="150" height="84"/>
</g>
<g>
	<rect y="0" class="st0" width="150" height="84"/>
</g>
<g>
	<g>
		<path class="st1" d="M107,37.6"/>
	</g>
	<g>
		<g id="XMLID_34_">
			<g id="XMLID_38_">
				<g id="XMLID_50_">
					<g id="XMLID_71_">
						<path class="st2" d="M78.5,52.1h-5.3c-0.6,0-1-0.4-1-1c0-2.5-1.2-4.9-3.2-6.4c-0.1,0-0.1-0.1-0.2-0.2
							c-3.5-2.5-5.8-6.2-6.5-10.3c-0.1-0.3,0-0.6,0.2-0.8c0.2-0.2,0.5-0.4,0.8-0.4h15.2c0.6,0,1,0.4,1,1v5.6c0,0.6-0.4,1-1,1
							c-0.1,0-0.2,0-0.4-0.1c-0.3-0.1-0.5-0.1-0.8-0.1c-1,0-1.8,0.6-1.8,1.3c0,0.7,0.8,1.3,1.8,1.3c0.3,0,0.6,0,0.8-0.1
							c0.6-0.2,1.4,0.3,1.4,0.9v7.3C79.5,51.7,79,52.1,78.5,52.1z M74.1,50.1h3.4V45c-2.2,0.1-4-1.4-4-3.3c0-1.9,1.9-3.3,4-3.3v-3.4
							h-13c0.9,3.2,2.9,6.1,5.7,8c0.1,0.1,0.2,0.1,0.2,0.2C72.5,45,73.8,47.5,74.1,50.1z"/>
					</g>
					<g id="XMLID_69_">
						<path class="st2" d="M78.6,62.3h-0.2c-3.4,0-6.2-2.8-6.2-6.2v-5c0-0.6,0.4-1,1-1h4.3V45c-2.2,0.1-4-1.4-4-3.3
							c0-1.9,1.9-3.3,4-3.3v-4.4c0-0.6,0.4-1,1-1h5.1c0,0,0-0.1,0-0.1c0-2.1,1.5-3.8,3.3-3.8c1.8,0,3.3,1.7,3.3,3.8c0,0,0,0.1,0,0.1
							h3.6c0.3,0,0.6,0.1,0.8,0.4s0.3,0.5,0.2,0.8c-0.8,4.3-3.2,8-6.8,10.5c-2,1.5-3.1,3.8-3.1,6.4v5C84.8,59.5,82,62.3,78.6,62.3z
							 M74.1,52.1v4c0,2.3,1.9,4.2,4.2,4.2h0.2c2.3,0,4.2-1.9,4.2-4.2v-5c0-3.2,1.4-6.1,4-8c2.8-2,4.8-4.8,5.7-8.1h-3.6
							c-0.3,0-0.6-0.2-0.8-0.4c-0.2-0.3-0.2-0.6-0.1-0.9c0.1-0.3,0.1-0.5,0.1-0.8c0-1-0.6-1.8-1.3-1.8c-0.7,0-1.3,0.8-1.3,1.8
							c0,0.3,0,0.6,0.1,0.8c0.1,0.3,0.1,0.6-0.1,0.9c-0.2,0.3-0.5,0.4-0.8,0.4h-5.2v4.6c0,0.6-0.4,1-1,1c-0.1,0-0.2,0-0.4-0.1
							c-0.3-0.1-0.5-0.1-0.8-0.1c-1,0-1.8,0.6-1.8,1.3c0,0.7,0.8,1.3,1.8,1.3c0.3,0,0.6,0,0.8-0.1c0.6-0.2,1.4,0.3,1.4,0.9v7.3
							c0,0.6-0.4,1-1,1H74.1z"/>
					</g>
					<g id="XMLID_1_">
						<path class="st2" d="M71.5,30.5H56.3c-0.5,0-0.9-0.3-1-0.8c-0.2-1-0.3-2-0.3-3c0-0.6,0-1.2,0.1-1.8c0.1-0.5,0.6-0.9,1.1-0.9
							c0.5,0.1,0.9,0.5,0.9,1.1c-0.1,0.5-0.1,1-0.1,1.5c0,0.6,0,1.2,0.1,1.8h13.4v-5.7c0-0.7,0.7-1.2,1.3-0.9
							c0.2,0.1,0.5,0.1,0.8,0.1c1,0,1.8-0.6,1.8-1.3c0-0.7-0.8-1.3-1.8-1.3c-0.3,0-0.6,0-0.8,0.1c-0.3,0.1-0.6,0.1-0.9-0.1
							c-0.3-0.2-0.4-0.5-0.4-0.8v-6.5c-1.2,0.1-2.3,0.3-3.4,0.7c-0.5,0.2-1.1-0.1-1.3-0.6c-0.2-0.5,0.1-1.1,0.6-1.3
							c1.6-0.5,3.3-0.8,5-0.8c0.6,0,1,0.4,1,1v6.3c2.1-0.1,4,1.4,4,3.3c0,1.9-1.8,3.4-4,3.3v5.5C72.5,30.1,72.1,30.5,71.5,30.5z"/>
					</g>
					<g id="XMLID_64_">
						<path class="st2" d="M93.7,35.1h-4.8c-0.3,0-0.6-0.2-0.8-0.4c-0.2-0.3-0.2-0.6-0.1-0.9c0.1-0.3,0.1-0.5,0.1-0.8
							c0-1-0.6-1.8-1.3-1.8c-0.7,0-1.3,0.8-1.3,1.8c0,0.3,0,0.6,0.1,0.8c0.1,0.3,0.1,0.6-0.1,0.9c-0.2,0.3-0.5,0.4-0.8,0.4h-6.2
							c-0.6,0-1-0.4-1-1v-6.7c0-0.7,0.7-1.2,1.3-0.9c0.3,0.1,0.5,0.1,0.8,0.1c1,0,1.8-0.6,1.8-1.3S80.6,24,79.6,24
							c-0.3,0-0.6,0-0.8,0.1c-0.3,0.1-0.6,0.1-0.9-0.1s-0.4-0.5-0.4-0.8v-7.5c0-0.6,0.4-1,1-1c9.1,0,16.5,7.4,16.5,16.5
							c0,1-0.1,2-0.3,3C94.6,34.7,94.2,35.1,93.7,35.1z M90.1,33.1h2.8c0.1-0.6,0.1-1.2,0.1-1.8c0-7.7-6-14-13.5-14.5V22
							c2.2-0.1,4,1.4,4,3.3c0,1.9-1.8,3.4-4,3.3v4.5h4.1c0,0,0-0.1,0-0.1c0-2.1,1.5-3.8,3.3-3.8c1.8,0,3.3,1.7,3.3,3.8
							C90.1,33,90.1,33,90.1,33.1z"/>
					</g>
				</g>
			</g>
			<g id="XMLID_37_">
				<path class="st2" d="M83.8,52.1H73.1c-0.6,0-1-0.4-1-1s0.4-1,1-1h10.6c0.6,0,1,0.4,1,1S84.3,52.1,83.8,52.1z"/>
			</g>
			<g id="XMLID_35_">
				<path class="st2" d="M82.9,56.3H74c-0.6,0-1-0.4-1-1s0.4-1,1-1h8.9c0.6,0,1,0.4,1,1S83.5,56.3,82.9,56.3z"/>
			</g>
		</g>
		<g>
			<path class="st3" d="M60.3,23.7c-3.3,0-6.1-2.7-6.1-6.1c0-3.3,2.7-6.1,6.1-6.1s6.1,2.7,6.1,6.1C66.4,21,63.7,23.7,60.3,23.7z
				 M60.3,13.6c-2.2,0-4.1,1.8-4.1,4.1c0,2.2,1.8,4.1,4.1,4.1s4.1-1.8,4.1-4.1C64.4,15.4,62.6,13.6,60.3,13.6z"/>
		</g>
	</g>
	<g>
		<g>
			<g>
				<path class="st2" d="M115.5,62.1c-0.4,0-1-0.1-1.5-0.3c-0.7-0.4-1.2-1-1.5-1.8c-0.4-1.1-0.1-2,0.2-2.4c0.6-1.1,1.9-1.5,2-1.5
					c1.3-0.3,2.7-0.7,3-0.8c0,0,0,0,0.1,0c0.3-0.1,0.4-0.2,0.5-0.5c0-0.5-0.6-0.8-0.6-0.8l-11.8-6.7c-0.1,0-1.8-0.8-2.2-2.4
					c-0.2-0.6-0.2-1.5,0.4-2.5c0.4-0.7,1-1.1,1.7-1.3c1.6-0.3,3.2,0.8,3.4,0.9l10,5.7c0.5,0.3,0.6,0.9,0.4,1.4
					c-0.3,0.5-0.9,0.6-1.4,0.4l-10.1-5.7c-0.4-0.3-1.4-0.8-1.9-0.6c-0.1,0-0.3,0.1-0.4,0.3c-0.3,0.4-0.2,0.7-0.2,0.9
					c0.2,0.6,1,1.1,1.2,1.2l11.8,6.7c0.6,0.3,1.8,1.2,1.7,2.7c-0.1,0.7-0.4,1.7-1.7,2.2c-0.1,0.1-0.3,0.1-3.3,0.9
					c-0.1,0-0.6,0.2-0.8,0.6c0,0.1-0.2,0.3,0,0.9c0.3,0.9,1.1,0.8,1.5,0.7l11.5-3c0.5-0.1,1.1,0.2,1.2,0.7c0.1,0.5-0.2,1.1-0.7,1.2
					l-11.5,3C116.5,62,116.1,62.1,115.5,62.1z"/>
			</g>
			<g>
				<path class="st2" d="M121.2,46c-0.2,0-0.3,0-0.5-0.1l-10.7-6.2c0,0-0.1-0.1-0.1-0.1c-0.8-0.7-2-2.4-0.8-4.2
					c1.3-1.9,3.6-1.4,4.6-0.8c0.3,0.2,6.5,3.8,10.6,6.1c0.5,0.3,0.6,0.9,0.4,1.4c-0.3,0.5-0.9,0.6-1.4,0.4c-1.7-1-10.4-6-10.7-6.2
					c0,0-1.2-0.7-1.8,0.2c-0.4,0.7,0.1,1.3,0.4,1.5l10.6,6.1c0.5,0.3,0.6,0.9,0.4,1.4C121.9,45.8,121.6,46,121.2,46z"/>
			</g>
			<g>
				<path class="st2" d="M108.3,43.5c-0.2,0-0.4,0-0.5-0.1c-0.7-0.4-1.5-0.9-2.2-1.5c-1.4-1.2-1.6-2.9-0.6-4.3
					c1.4-1.8,3.6-1.2,4.6-0.6c0,0,0.1,0,0.1,0.1l1.4,1c0.4,0.3,0.5,0.9,0.2,1.4c-0.3,0.4-0.9,0.5-1.4,0.2l-1.4-1
					c-0.2-0.1-1.4-0.7-2,0.1c-0.4,0.5-0.3,1.1,0.3,1.6c0.6,0.5,1.3,0.9,1.9,1.3c0.5,0.3,0.6,0.9,0.3,1.4
					C108.9,43.3,108.6,43.5,108.3,43.5z"/>
			</g>
			<g>
				<path class="st2" d="M137.3,45.1c-0.2,0-0.3,0-0.5-0.1l-19.4-10.7c-0.1,0-1.7-1-2.2-0.3c-0.6,0.8-0.1,1.5,0,1.6
					c0.3,0.4,0.3,1.1-0.2,1.4c-0.4,0.3-1,0.3-1.4-0.1c-0.6-0.7-1.3-2.4-0.1-4.1c1.3-1.8,3.6-1,4.8-0.3l19.3,10.7
					c0.5,0.3,0.7,0.9,0.4,1.4C137.9,44.9,137.6,45.1,137.3,45.1z"/>
			</g>
			<g>
				<path class="st2" d="M130.8,60.5c-0.2,0-0.3,0-0.5-0.1l-3.6-2.1c-0.5-0.3-0.6-0.9-0.4-1.4l8.3-14.4c0.3-0.5,0.9-0.6,1.4-0.4
					l3.6,2.1c0.2,0.1,0.4,0.4,0.5,0.6s0,0.5-0.1,0.8L131.7,60c-0.1,0.2-0.4,0.4-0.6,0.5C131,60.5,130.9,60.5,130.8,60.5z
					 M128.6,57.1l1.8,1.1l7.3-12.6l-1.8-1.1L128.6,57.1z"/>
			</g>
		</g>
		<g>
			<g>
				<path class="st2" d="M43.6,35.5c-1.4,0-2.6-0.8-2.8-1l-10-5.7c-0.5-0.3-0.6-0.9-0.4-1.4c0.3-0.5,0.9-0.6,1.4-0.4l10.1,5.7
					c0.4,0.3,1.4,0.8,1.9,0.6c0.1,0,0.3-0.1,0.4-0.3c0.3-0.4,0.2-0.7,0.2-0.9c-0.2-0.6-1-1.1-1.2-1.2l-11.8-6.7
					c-0.6-0.3-1.8-1.2-1.7-2.7c0.1-0.7,0.4-1.7,1.7-2.2c0.1-0.1,0.3-0.1,3.3-0.9c0.1,0,0.6-0.2,0.8-0.6c0-0.1,0.2-0.3,0-0.9
					c-0.2-0.5-0.4-0.6-0.5-0.7c-0.4-0.2-0.9-0.1-1-0.1l-11.5,3c-0.5,0.1-1.1-0.2-1.2-0.7s0.2-1.1,0.7-1.2l11.5-3
					c0.1,0,1.4-0.4,2.5,0.2c0.7,0.4,1.2,1,1.5,1.8c0.4,1.1,0.1,2-0.2,2.4c-0.6,1.1-1.9,1.5-2,1.5c-1.3,0.3-2.7,0.7-3,0.8
					c0,0,0,0-0.1,0c-0.3,0.1-0.4,0.2-0.5,0.5c0,0.5,0.6,0.8,0.6,0.8l11.8,6.7c0.1,0,1.8,0.8,2.2,2.4c0.2,0.6,0.2,1.5-0.4,2.5
					c-0.4,0.7-1,1.1-1.7,1.3C44,35.5,43.8,35.5,43.6,35.5z"/>
			</g>
			<g>
				<path class="st2" d="M38.4,42.3c-0.8,0-1.6-0.3-2-0.6c-0.3-0.2-6.5-3.8-10.6-6.1c-0.5-0.3-0.6-0.9-0.4-1.4
					c0.3-0.5,0.9-0.6,1.4-0.4c1.7,1,10.4,6,10.7,6.2c0,0,1.2,0.7,1.8-0.2c0.4-0.7-0.1-1.3-0.4-1.5l-10.6-6.1
					c-0.5-0.3-0.6-0.9-0.4-1.4c0.3-0.5,0.9-0.6,1.4-0.4l10.7,6.2c0,0,0.1,0.1,0.1,0.1c0.8,0.7,2,2.4,0.8,4.2
					C40.2,42,39.3,42.3,38.4,42.3z"/>
			</g>
			<g>
				<path class="st2" d="M42.5,40.1c-0.8,0-1.7-0.3-2.1-0.6c0,0-0.1,0-0.1-0.1l-1.4-1c-0.4-0.3-0.5-0.9-0.2-1.4
					c0.3-0.4,0.9-0.5,1.4-0.2l1.4,1c0.2,0.1,1.4,0.7,2-0.1c0.4-0.5,0.3-1.1-0.3-1.6c-0.6-0.5-1.3-0.9-1.9-1.3
					c-0.5-0.3-0.6-0.9-0.3-1.4c0.3-0.5,0.9-0.6,1.4-0.3c0.7,0.4,1.5,0.9,2.2,1.5c1.4,1.2,1.6,2.9,0.6,4.3
					C44.3,39.8,43.4,40.1,42.5,40.1z"/>
			</g>
			<g>
				<path class="st2" d="M34.2,44.7c-1,0-2-0.4-2.6-0.8L12.3,33.2c-0.5-0.3-0.7-0.9-0.4-1.4c0.3-0.5,0.9-0.7,1.4-0.4l19.4,10.7
					c0.1,0,1.7,1,2.2,0.3c0.6-0.8,0.1-1.5,0-1.6c-0.3-0.4-0.3-1.1,0.2-1.4c0.4-0.3,1-0.3,1.4,0.1c0.6,0.7,1.3,2.4,0.1,4.1
					C35.8,44.5,35,44.7,34.2,44.7z"/>
			</g>
			<g>
				<path class="st2" d="M14.4,34.3c-0.2,0-0.3,0-0.5-0.1l-3.6-2.1c-0.2-0.1-0.4-0.4-0.5-0.6c-0.1-0.3,0-0.5,0.1-0.8l8.3-14.4
					c0.1-0.2,0.4-0.4,0.6-0.5c0.3-0.1,0.5,0,0.8,0.1l3.6,2.1c0.5,0.3,0.6,0.9,0.4,1.4l-8.3,14.4C15.1,34.1,14.8,34.3,14.4,34.3z
					 M12.2,30.9l1.8,1.1l7.3-12.6l-1.8-1.1L12.2,30.9z"/>
			</g>
		</g>
	</g>
	<g>
		<g>
			<path class="st2" d="M51.7,53.5c-0.1,0-0.1,0-0.2,0c-0.5-0.1-0.9-0.6-0.8-1.2l4.6-23c0.1-0.5,0.6-0.9,1.2-0.8
				c0.5,0.1,0.9,0.6,0.8,1.2l-4.6,23C52.5,53.2,52.1,53.5,51.7,53.5z"/>
		</g>
		<g>
			<path class="st2" d="M26.7,56.3c-1.2,0-2.3-0.5-3.1-1.5l0,0c-1.4-1.7-1.2-4.2,0.5-5.6c1.7-1.4,4.2-1.2,5.6,0.5
				c1.4,1.7,1.2,4.2-0.5,5.6C28.5,56,27.6,56.3,26.7,56.3z M25.1,53.6c0.7,0.9,2,1,2.8,0.3c0.9-0.7,1-2,0.3-2.8
				c-0.7-0.9-2-1-2.8-0.3C24.5,51.4,24.4,52.7,25.1,53.6L25.1,53.6z"/>
		</g>
		<g>
			<path class="st2" d="M50,61.4c-1.4,0-2.9-0.6-3.8-1.8c-0.8-1-1.2-2.3-1.1-3.6s0.8-2.5,1.8-3.3c2.1-1.7,5.2-1.4,7,0.7
				c1.7,2.1,1.4,5.2-0.7,7C52.2,61.1,51.1,61.4,50,61.4z M49.9,53.5c-0.7,0-1.3,0.2-1.9,0.7c-0.6,0.5-1,1.2-1.1,2
				c-0.1,0.8,0.2,1.6,0.7,2.2c1,1.3,2.9,1.4,4.2,0.4c1.3-1,1.4-2.9,0.4-4.2C51.7,53.9,50.8,53.5,49.9,53.5z"/>
		</g>
		<g>
			<path class="st2" d="M47.4,54.4c-0.4,0-0.7-0.2-0.9-0.6l-7-14.3c-0.2-0.5,0-1.1,0.5-1.3c0.5-0.2,1.1,0,1.3,0.5l7,14.3
				c0.2,0.5,0,1.1-0.5,1.3C47.7,54.4,47.6,54.4,47.4,54.4z"/>
		</g>
		<g>
			<path class="st2" d="M46.2,58.4c-0.1,0-0.2,0-0.2,0l-16.5-4.2c-0.5-0.1-0.9-0.7-0.7-1.2c0.1-0.5,0.7-0.9,1.2-0.7l16.5,4.2
				c0.5,0.1,0.9,0.7,0.7,1.2C47,58.1,46.6,58.4,46.2,58.4z"/>
		</g>
	</g>
	<g>
		<g>
			<path class="st2" d="M91.9,24c-0.4,0-0.7-0.2-0.9-0.5c-0.3-0.5-0.1-1.1,0.4-1.4l10.4-5.7c0.5-0.3,1.1-0.1,1.4,0.4
				s0.1,1.1-0.4,1.4l-10.4,5.7C92.2,23.9,92,24,91.9,24z"/>
		</g>
		<g>
			<path class="st2" d="M127.6,28.8c-1.5,0-2.9-0.8-3.6-2.2c-0.5-1-0.6-2-0.2-3.1c0.3-1,1-1.8,2-2.3c1-0.5,2-0.6,3.1-0.2
				c1,0.3,1.8,1,2.3,2c0,0,0,0,0,0c0.5,1,0.6,2,0.2,3.1c-0.3,1-1.1,1.8-2,2.3C128.8,28.7,128.2,28.8,127.6,28.8z M127.6,22.8
				c-0.3,0-0.6,0.1-0.9,0.2c-0.5,0.2-0.8,0.7-1,1.2c-0.2,0.5-0.1,1.1,0.1,1.5c0.2,0.5,0.7,0.8,1.2,1c0.5,0.2,1,0.1,1.5-0.1
				c0.5-0.2,0.8-0.7,1-1.2s0.1-1.1-0.1-1.5C129,23.2,128.3,22.8,127.6,22.8z"/>
		</g>
		<g>
			<path class="st2" d="M105.8,20.5c-0.5,0-1.1-0.1-1.6-0.3c-1.3-0.4-2.3-1.3-2.9-2.5c-1.2-2.4-0.2-5.4,2.2-6.7
				c1.2-0.6,2.5-0.7,3.8-0.3c1.3,0.4,2.3,1.3,2.9,2.5c0,0,0,0,0,0c1.2,2.4,0.2,5.4-2.2,6.7C107.3,20.3,106.6,20.5,105.8,20.5z
				 M105.8,12.6c-0.5,0-0.9,0.1-1.3,0.3c-0.7,0.4-1.2,1-1.5,1.7c-0.2,0.7-0.2,1.6,0.2,2.3c0.4,0.7,1,1.2,1.7,1.5
				c0.7,0.2,1.6,0.2,2.3-0.2c1.5-0.7,2.1-2.5,1.3-4c-0.4-0.7-1-1.2-1.7-1.5C106.4,12.6,106.1,12.6,105.8,12.6z"/>
		</g>
		<g>
			<path class="st2" d="M111.2,35.6c-0.5,0-0.9-0.3-1-0.8l-3.7-15.5c-0.1-0.5,0.2-1.1,0.7-1.2c0.5-0.1,1.1,0.2,1.2,0.7l3.7,15.5
				c0.1,0.5-0.2,1.1-0.7,1.2C111.4,35.5,111.3,35.6,111.2,35.6z"/>
		</g>
		<g>
			<path class="st2" d="M124.9,24.2c-0.2,0-0.3,0-0.5-0.1l-15.2-7.7c-0.5-0.3-0.7-0.9-0.4-1.3c0.3-0.5,0.8-0.7,1.3-0.4l15.2,7.7
				c0.5,0.3,0.7,0.9,0.4,1.3C125.6,24,125.2,24.2,124.9,24.2z"/>
		</g>
	</g>
</g>
<g>
	<g>
		<rect x="33" y="63.1" class="st0" width="84" height="20.9"/>
	</g>
	<g>
		<path class="st4" d="M78.7,71.8H49.2c-0.9,0-1.6-0.7-1.6-1.6s0.7-1.6,1.6-1.6h29.5c0.9,0,1.6,0.7,1.6,1.6S79.6,71.8,78.7,71.8z"/>
	</g>
	<g>
		<path class="st5" d="M91.1,79.5h-9c-0.9,0-1.6-0.7-1.6-1.6s0.7-1.6,1.6-1.6h9c0.9,0,1.6,0.7,1.6,1.6S92,79.5,91.1,79.5z"/>
	</g>
	<g>
		<path class="st5" d="M100.8,79.5H100c-0.9,0-1.6-0.7-1.6-1.6s0.7-1.6,1.6-1.6h0.7c0.9,0,1.6,0.7,1.6,1.6S101.6,79.5,100.8,79.5z"
			/>
	</g>
	<g>
		<g>
			<path class="st3" d="M58.1,79.5h-8.9c-0.9,0-1.6-0.7-1.6-1.6s0.7-1.6,1.6-1.6h8.9c0.9,0,1.6,0.7,1.6,1.6S59,79.5,58.1,79.5z"/>
		</g>
		<g>
			<path class="st5" d="M73.2,79.5H58.6c-0.9,0-1.6-0.7-1.6-1.6s0.7-1.6,1.6-1.6h14.6c0.9,0,1.6,0.7,1.6,1.6S74,79.5,73.2,79.5z"/>
		</g>
	</g>
	<g>
		<path class="st3" d="M63.8,79.5h-5.2c-0.9,0-1.6-0.7-1.6-1.6s0.7-1.6,1.6-1.6h5.2c0.9,0,1.6,0.7,1.6,1.6S64.7,79.5,63.8,79.5z"/>
	</g>
	<g>
		<path class="st3" d="M100.8,71.8h-23c-0.9,0-1.6-0.7-1.6-1.6s0.7-1.6,1.6-1.6h23c0.9,0,1.6,0.7,1.6,1.6S101.6,71.8,100.8,71.8z"/>
	</g>
	<g>
		<path class="st3" d="M49.8,71.8h-0.5c-0.9,0-1.6-0.7-1.6-1.6s0.7-1.6,1.6-1.6h0.5c0.9,0,1.6,0.7,1.6,1.6S50.6,71.8,49.8,71.8z"/>
	</g>
	<g>
	</g>
	<g>
		<path class="st3" d="M83.9,71.8h-6.1c-0.9,0-1.6-0.7-1.6-1.6s0.7-1.6,1.6-1.6h6.1c0.9,0,1.6,0.7,1.6,1.6S84.8,71.8,83.9,71.8z"/>
	</g>
</g>
</svg>
