<?xml version="1.0" encoding="utf-8"?>
<!-- Generator: Adobe Illustrator 24.0.2, SVG Export Plug-In . SVG Version: 6.00 Build 0)  -->
<svg version="1.1" id="Capa_1" xmlns="http://www.w3.org/2000/svg" xmlns:xlink="http://www.w3.org/1999/xlink" x="0px" y="0px"
	 viewBox="0 0 118.5 123.8" style="enable-background:new 0 0 118.5 123.8;" xml:space="preserve">
<style type="text/css">
	.st0{fill:#95A6B1;}
	.st1{fill:#19A500;}
	.st2{fill:none;}
	.st3{clip-path:url(#SVGID_2_);}
	.st4{fill:#4DA12E;}
	.st5{fill:#96D200;}
</style>
<title>historia_record_bombeo_tlu</title>
<g>
	<g>
		<path class="st0" d="M108.4,77.6c-3.5,0-5.3-1.8-6.9-3.3c-1.5-1.4-2.8-2.7-5.4-2.7c-2.6,0-3.9,1.2-5.4,2.7
			c-1.6,1.5-3.4,3.3-6.9,3.3c-3.5,0-5.3-1.7-6.9-3.3c-1.5-1.5-2.8-2.7-5.4-2.7s-4,1.3-5.4,2.7c-1.6,1.5-3.3,3.3-6.9,3.3
			c-3.5,0-5.3-1.8-6.9-3.3c-1.5-1.4-2.7-2.7-5.3-2.7c-2.6,0-3.9,1.3-5.5,2.7c-1.6,1.5-3.4,3.3-6.8,3.3s-5.3-1.7-6.8-3.3
			c-1.5-1.5-2.8-2.7-5.5-2.7s-3.9,1.3-5.5,2.7c-1.6,1.5-3.4,3.3-6.8,3.3c-0.6,0-1-0.4-1-1s0.4-1,1-1c2.6,0,3.9-1.3,5.5-2.7
			c1.6-1.5,3.4-3.3,6.8-3.3s5.3,1.7,6.8,3.3c1.5,1.5,2.8,2.7,5.5,2.7c2.6,0,3.9-1.3,5.5-2.7c1.6-1.5,3.4-3.3,6.8-3.3
			c3.4,0,5.2,1.7,6.7,3.3c1.5,1.5,2.8,2.7,5.5,2.7c2.7,0,4-1.3,5.4-2.7c1.6-1.5,3.3-3.3,6.9-3.3s5.3,1.7,6.9,3.3
			c1.5,1.5,2.8,2.7,5.4,2.7c2.7,0,4-1.3,5.5-2.7c1.6-1.5,3.3-3.3,6.8-3.3c3.4,0,5.2,1.7,6.8,3.3c1.5,1.5,2.8,2.7,5.5,2.7
			c0.6,0,1,0.4,1,1S109,77.6,108.4,77.6z"/>
	</g>
</g>
<g>
	<g>
		<path class="st0" d="M108.4,89c-3.5,0-5.3-1.8-6.9-3.3c-1.5-1.4-2.8-2.7-5.4-2.7c-2.6,0-3.9,1.2-5.4,2.7c-1.6,1.5-3.4,3.3-6.9,3.3
			c-3.5,0-5.3-1.7-6.9-3.3c-1.5-1.5-2.8-2.7-5.4-2.7s-4,1.3-5.4,2.7c-1.6,1.5-3.3,3.3-6.9,3.3c-3.5,0-5.3-1.8-6.9-3.3
			C50.9,84.2,49.6,83,47,83c-2.6,0-3.9,1.3-5.5,2.7C40,87.3,38.2,89,34.7,89s-5.3-1.7-6.8-3.3C26.3,84.3,25,83,22.4,83
			s-3.9,1.3-5.5,2.7c-1.6,1.5-3.4,3.3-6.8,3.3c-0.6,0-1-0.4-1-1s0.4-1,1-1c2.6,0,3.9-1.3,5.5-2.7c1.6-1.5,3.4-3.3,6.8-3.3
			s5.3,1.7,6.8,3.3c1.5,1.5,2.8,2.7,5.5,2.7c2.6,0,3.9-1.3,5.5-2.7c1.6-1.5,3.4-3.3,6.8-3.3c3.4,0,5.2,1.7,6.7,3.3
			c1.5,1.5,2.8,2.7,5.5,2.7c2.7,0,4-1.3,5.4-2.7c1.6-1.5,3.3-3.3,6.9-3.3s5.3,1.7,6.9,3.3c1.5,1.5,2.8,2.7,5.4,2.7
			c2.7,0,4-1.3,5.5-2.7c1.6-1.5,3.3-3.3,6.8-3.3c3.4,0,5.2,1.7,6.8,3.3c1.5,1.5,2.8,2.7,5.5,2.7c0.6,0,1,0.4,1,1S109,89,108.4,89z"
			/>
	</g>
</g>
<g>
	<g>
		<path class="st0" d="M42.1,66.1H30.2c-0.6,0-1-0.4-1-1s0.4-1,1-1h11.9c0.6,0,1,0.4,1,1S42.7,66.1,42.1,66.1z"/>
	</g>
</g>
<g>
	<g>
		<path class="st0" d="M83.2,43.3c-0.3,0-0.5-0.1-0.7-0.3c-0.2-0.2-0.3-0.4-0.3-0.7c0-0.3,0.1-0.5,0.3-0.7c0.3-0.3,0.7-0.4,1.1-0.2
			c0.1,0,0.2,0.1,0.3,0.2c0.2,0.2,0.3,0.5,0.3,0.7c0,0.3-0.1,0.5-0.3,0.7c0,0-0.1,0.1-0.1,0.1c0,0-0.1,0.1-0.2,0.1
			C83.5,43.3,83.3,43.3,83.2,43.3z"/>
	</g>
</g>
<g>
	<g>
		<path class="st0" d="M67.8,43.3h-36c-0.6,0-1-0.4-1-1v-7.7c0-0.6,0.4-1,1-1s1,0.4,1,1v6.7h35c0.6,0,1,0.4,1,1S68.4,43.3,67.8,43.3
			z"/>
	</g>
</g>
<g>
	<g>
		<path class="st1" d="M31.5,31.2c-1,0-2-0.2-3-0.5c-2.1-0.8-3.8-2.4-4.8-4.4c-1-2.1-1-4.4-0.3-6.5c0.8-2.1,2.4-3.8,4.4-4.8
			c4.3-1.9,9.3,0,11.3,4.2c0,0,0,0,0,0c0.8,2,0.9,4.1,0.3,6.2c-0.8,2.3-2.4,4.1-4.5,5.1C34,30.9,32.8,31.2,31.5,31.2z M31.5,16.1
			c-0.9,0-1.8,0.2-2.7,0.6c-1.6,0.7-2.8,2-3.4,3.7c-0.6,1.6-0.5,3.4,0.2,5c0.7,1.6,2,2.8,3.7,3.4c1.6,0.6,3.4,0.5,5-0.2
			c1.6-0.8,2.9-2.2,3.5-3.9c0.5-1.5,0.4-3.2-0.3-4.8C36.4,17.5,34,16.1,31.5,16.1z"/>
	</g>
</g>
<g>
	<g>
		<path class="st0" d="M89.5,43.3h-6.3c-0.6,0-1-0.4-1-1s0.4-1,1-1h5.3v-18c0-0.4-0.1-0.7-0.3-1c-0.2-0.3-0.6-0.4-0.9-0.4l-43.8,0
			c-0.6,0-1-0.4-1-1s0.4-1,1-1l43.8,0c0.9,0,1.7,0.4,2.3,1.1c0.6,0.6,0.9,1.5,0.9,2.4l0,19C90.5,42.9,90.1,43.3,89.5,43.3z"/>
	</g>
</g>
<g>
	<g>
		<path class="st0" d="M79.7,21.9H51c-0.6,0-1-0.4-1-1V14c0-0.9,0.3-1.7,0.9-2.3s1.4-0.9,2.3-0.9l0.1,0h24.5c1.6,0,2.9,1.3,2.9,2.9
			v7.2C80.7,21.5,80.3,21.9,79.7,21.9z M52,19.9h26.7v-6.2c0-0.5-0.4-0.9-0.9-0.9H53.3c0,0,0,0,0,0l-0.1,0c-0.3,0-0.6,0.1-0.8,0.4
			C52.1,13.4,52,13.7,52,14V19.9z"/>
	</g>
</g>
<g>
	<g>
		<path class="st0" d="M89.6,29.9H43.3c-0.6,0-1-0.4-1-1s0.4-1,1-1h46.3c0.6,0,1,0.4,1,1S90.2,29.9,89.6,29.9z"/>
	</g>
</g>
<g>
	<g>
		<path class="st0" d="M22.4,70.9c-0.6,0-1-0.4-1-1V45c0-2,1.7-3.7,3.7-3.7h42.7c0.6,0,1,0.4,1,1s-0.4,1-1,1H25.1
			c-0.9,0-1.7,0.8-1.7,1.7v24.9C23.4,70.5,23,70.9,22.4,70.9z"/>
	</g>
</g>
<g>
	<g>
		<path class="st0" d="M99.5,72.5c-0.6,0-1-0.4-1-1V44.6c0-0.7-0.6-1.3-1.3-1.3h-14c-0.6,0-1-0.4-1-1s0.4-1,1-1h14
			c1.8,0,3.3,1.5,3.3,3.3v26.9C100.5,72.1,100.1,72.5,99.5,72.5z"/>
	</g>
</g>
<g>
	<g>
		<path class="st0" d="M49.8,50.6H22.4c-0.6,0-1-0.4-1-1s0.4-1,1-1h27.4c0.6,0,1,0.4,1,1S50.4,50.6,49.8,50.6z"/>
	</g>
</g>
<g>
	<g>
		<path class="st0" d="M42.1,73.2c-0.6,0-1-0.4-1-1V49.5c0-0.6,0.4-1,1-1s1,0.4,1,1v22.7C43.1,72.8,42.7,73.2,42.1,73.2z"/>
	</g>
</g>
<g>
	<g>
		<path class="st0" d="M42.1,57.6H30.2c-0.6,0-1-0.4-1-1s0.4-1,1-1h11.9c0.6,0,1,0.4,1,1S42.7,57.6,42.1,57.6z"/>
	</g>
</g>
<g>
	<g>
		<path class="st0" d="M30.2,75.6c-0.6,0-1-0.4-1-1V49.5c0-0.6,0.4-1,1-1s1,0.4,1,1v25.1C31.2,75.2,30.8,75.6,30.2,75.6z"/>
	</g>
</g>
<g>
	<g>
		<path class="st0" d="M49.8,71.4c-0.6,0-1-0.4-1-1V42.3c0-0.6,0.4-1,1-1s1,0.4,1,1v28.1C50.8,71,50.4,71.4,49.8,71.4z"/>
	</g>
</g>
<g>
	<g>
		<path class="st0" d="M83.2,55.1H67.8c-0.6,0-1-0.4-1-1V42.3c0-0.6,0.4-1,1-1s1,0.4,1,1v10.8h13.4V42.3c0-0.6,0.4-1,1-1s1,0.4,1,1
			v11.8C84.2,54.7,83.8,55.1,83.2,55.1z"/>
	</g>
</g>
<g>
	<g>
		<path class="st0" d="M58.3,21.9c-0.6,0-1-0.4-1-1v-9.1c0-0.6,0.4-1,1-1s1,0.4,1,1v9.1C59.3,21.5,58.9,21.9,58.3,21.9z"/>
	</g>
</g>
<g>
	<g>
		<path class="st0" d="M65.4,21.9c-0.6,0-1-0.4-1-1v-9.1c0-0.6,0.4-1,1-1s1,0.4,1,1v9.1C66.4,21.5,66,21.9,65.4,21.9z"/>
	</g>
</g>
<g>
	<g>
		<path class="st0" d="M72.7,21.9c-0.6,0-1-0.4-1-1v-9.1c0-0.6,0.4-1,1-1s1,0.4,1,1v9.1C73.7,21.5,73.3,21.9,72.7,21.9z"/>
	</g>
</g>
<g>
	<g>
		<path class="st0" d="M91.4,55.9c-0.6,0-1-0.4-1-1V42.3c0-0.6,0.4-1,1-1s1,0.4,1,1v12.6C92.4,55.5,92,55.9,91.4,55.9z"/>
	</g>
</g>
<g>
	<g>
		<path class="st0" d="M58.8,55.9c-0.6,0-1-0.4-1-1V42.3c0-0.6,0.4-1,1-1s1,0.4,1,1v12.6C59.8,55.5,59.4,55.9,58.8,55.9z"/>
	</g>
</g>
<g id="Rectángulo_3799">
	<g>
		<rect class="st2" width="118.5" height="123.8"/>
	</g>
</g>
<g>
	<defs>
		<rect id="SVGID_1_" x="0.2" y="93.6" width="118.4" height="29.5"/>
	</defs>
	<clipPath id="SVGID_2_">
		<use xlink:href="#SVGID_1_"  style="overflow:visible;"/>
	</clipPath>
	<g class="st3">
		<g>
			<rect x="0.2" y="93.6" class="st2" width="118.4" height="29.5"/>
		</g>
		<g>
			<path class="st4" d="M82.1,116.6H69.4c-1.2,0-2.1-0.9-2.1-2.1s0.9-2.1,2.1-2.1h12.7c1.2,0,2.1,0.9,2.1,2.1S83.3,116.6,82.1,116.6
				z"/>
		</g>
		<g>
			<path class="st4" d="M95.8,116.6h-1.1c-1.2,0-2.1-0.9-2.1-2.1s0.9-2.1,2.1-2.1h1.1c1.2,0,2.1,0.9,2.1,2.1S97,116.6,95.8,116.6z"
				/>
		</g>
		<g>
			<path class="st4" d="M35.6,116.6H23c-1.2,0-2.1-0.9-2.1-2.1s0.9-2.1,2.1-2.1h12.5c1.2,0,2.1,0.9,2.1,2.1S36.8,116.6,35.6,116.6z"
				/>
		</g>
		<g>
			<path class="st5" d="M56.9,116.6H34.7c-1.2,0-2.1-0.9-2.1-2.1s0.9-2.1,2.1-2.1h22.1c1.2,0,2.1,0.9,2.1,2.1S58,116.6,56.9,116.6z"
				/>
		</g>
		<g>
			<path class="st5" d="M64.6,105.9H23c-1.2,0-2.1-0.9-2.1-2.1s0.9-2.1,2.1-2.1h41.6c1.2,0,2.1,0.9,2.1,2.1S65.8,105.9,64.6,105.9z"
				/>
		</g>
		<g>
			<path class="st4" d="M95.8,105.9H63.4c-1.2,0-2.1-0.9-2.1-2.1s0.9-2.1,2.1-2.1h32.4c1.2,0,2.1,0.9,2.1,2.1S97,105.9,95.8,105.9z"
				/>
		</g>
		<g>
			<path class="st4" d="M23.9,105.9H23c-1.2,0-2.1-0.9-2.1-2.1s0.9-2.1,2.1-2.1h0.8c1.2,0,2.1,0.9,2.1,2.1S25.1,105.9,23.9,105.9z"
				/>
		</g>
	</g>
</g>
<g>
	<g>
		<rect x="0.2" y="0.2" class="st2" width="118.3" height="123.4"/>
	</g>
</g>
</svg>
