<?xml version="1.0" encoding="utf-8"?>
<!-- Generator: Adobe Illustrator 24.0.2, SVG Export Plug-In . SVG Version: 6.00 Build 0)  -->
<svg version="1.1" id="Capa_1" xmlns="http://www.w3.org/2000/svg" xmlns:xlink="http://www.w3.org/1999/xlink" x="0px" y="0px"
	 viewBox="0 0 202.4 140.4" style="enable-background:new 0 0 202.4 140.4;" xml:space="preserve">
<style type="text/css">
	.st0{fill:#19A500;}
	.st1{fill:#95A6B1;}
	.st2{fill:none;}
	.st3{clip-path:url(#SVGID_2_);}
	.st4{fill:#4DA12E;}
	.st5{fill:#96D200;}
</style>
<title>historia_record_bombeo_barriles</title>
<g>
	<path class="st0" d="M28.8,17c-1.9,0-3.7-1.1-4.6-2.9c-1-2.7,0.4-5.5,3-6.5c2.3-0.8,4.8,0.1,6,2.2c0,0,0,0.1,0,0.1
		c0.5,1.2,0.6,2.5,0.1,3.7c-0.4,1.3-1.4,2.4-2.6,3C30.2,16.9,29.5,17,28.8,17z M29,9c-0.4,0-0.8,0.1-1.1,0.2
		c-1.8,0.6-2.7,2.6-2.1,4.3c0.7,1.6,2.7,2.4,4.4,1.6c0.8-0.4,1.5-1.1,1.8-2c0.3-0.8,0.3-1.7-0.1-2.5C31.3,9.6,30.1,9,29,9z"/>
</g>
<g>
	<path class="st1" d="M45.2,10.7h-6.6c-0.8,0-1.4-0.6-1.4-1.4V6.5c0-0.8,0.6-1.4,1.4-1.4h6.6c0.8,0,1.4,0.6,1.4,1.4v2.8
		C46.6,10,46,10.7,45.2,10.7z M38.8,9.1H45V6.7h-6.2V9.1z M45.2,6.7L45.2,6.7L45.2,6.7z"/>
</g>
<g>
	<path class="st1" d="M53.4,42.2H31.6c-0.4,0-0.8-0.4-0.8-0.8v-7.1h-0.2c-1.2,0-2.1-0.9-2.1-2.1v-0.6c0-1.2,0.9-2.1,2.1-2.1h0.2V25
		h-0.2c-1.2,0-2.1-0.9-2.1-2.1v-0.6c0-1.2,0.9-2.1,2.1-2.1h0.2v-0.9c0-0.4,0.4-0.8,0.8-0.8s0.8,0.4,0.8,0.8V21
		c0,0.4-0.4,0.8-0.8,0.8h-1c-0.3,0-0.5,0.2-0.5,0.5v0.6c0,0.3,0.2,0.5,0.5,0.5h1c0.4,0,0.8,0.4,0.8,0.8v6.1c0,0.4-0.4,0.8-0.8,0.8
		h-1c-0.3,0-0.5,0.2-0.5,0.5v0.6c0,0.3,0.2,0.5,0.5,0.5h1c0.4,0,0.8,0.4,0.8,0.8v7.1h20.2v-7.1c0-0.4,0.4-0.8,0.8-0.8h1.1
		c0,0,0,0,0,0c0.2,0,0.4-0.2,0.4-0.4c0,0,0-0.1,0-0.1v-0.6c0-0.3-0.1-0.5-0.4-0.5l-1.1,0c-0.4,0-0.8-0.4-0.8-0.8v-6.1
		c0-0.4,0.4-0.8,0.8-0.8h1.1c0,0,0,0,0,0c0.2,0,0.4-0.2,0.4-0.4c0,0,0-0.1,0-0.1v-0.6c0-0.2-0.1-0.3-0.1-0.4c0,0-0.1-0.1-0.3-0.1
		l-1.1,0c-0.4,0-0.8-0.4-0.8-0.8v-6.5H37.4c-0.4,0-0.8-0.4-0.8-0.8s0.4-0.8,0.8-0.8h16c0.4,0,0.8,0.4,0.8,0.8v6.5h0.3
		c0.1,0,0.1,0,0.2,0c0.5,0,1,0.3,1.4,0.7c0.3,0.4,0.5,0.9,0.5,1.5l0,0.5c0,0,0,0,0,0c0,0,0,0.1,0,0.1c0,1.1-0.9,2-2,2c0,0,0,0,0,0
		h-0.3v4.5h0.3c0.1,0,0.1,0,0.2,0c0.5,0,1,0.3,1.4,0.7c0.3,0.4,0.5,0.9,0.5,1.5l0,0.5c0,0,0,0,0,0c0,0,0,0.1,0,0.1
		c0,0.5-0.2,1-0.6,1.4c-0.4,0.4-0.9,0.6-1.4,0.6h-0.3v7.1C54.2,41.8,53.8,42.2,53.4,42.2z"/>
</g>
<g>
	<path class="st1" d="M49.2,23H35.8c-0.4,0-0.8-0.4-0.8-0.8s0.4-0.8,0.8-0.8h13.4c0.4,0,0.8,0.4,0.8,0.8S49.6,23,49.2,23z"/>
</g>
<g>
	<path class="st1" d="M49.2,32.3H35.8c-0.4,0-0.8-0.4-0.8-0.8s0.4-0.8,0.8-0.8h13.4c0.4,0,0.8,0.4,0.8,0.8S49.6,32.3,49.2,32.3z"/>
</g>
<g>
	<path class="st1" d="M54.9,46H30.2c-0.9,0-1.7-0.8-1.7-1.7v-2c0-0.9,0.8-1.7,1.7-1.7h24.7c0.9,0,1.7,0.8,1.7,1.7v2
		C56.6,45.2,55.8,46,54.9,46z M30.2,42.2c-0.1,0-0.1,0-0.1,0.1v2c0,0.1,0,0.1,0.1,0.1h24.7c0.1,0,0.1,0,0.1-0.1v-2
		c0-0.1,0-0.1-0.1-0.1H30.2z"/>
</g>
<g>
	<path class="st1" d="M54.8,14.5H36.5c-0.4,0-0.8-0.4-0.8-0.8s0.4-0.8,0.8-0.8h18.3c0.1,0,0.1-0.1,0.1-0.1l0-2c0-0.1,0-0.1-0.1-0.1
		H36.2c-0.4,0-0.8-0.4-0.8-0.8s0.4-0.8,0.8-0.8h18.6c0.9,0,1.7,0.8,1.7,1.7v1.9c0.1,0.8-0.6,1.7-1.5,1.8
		C54.9,14.5,54.9,14.5,54.8,14.5z"/>
</g>
<g>
	<path class="st1" d="M98.7,10.7h-6.6c-0.8,0-1.4-0.6-1.4-1.4V6.5c0-0.8,0.6-1.4,1.4-1.4h6.6c0.8,0,1.4,0.6,1.4,1.4v2.8
		C100.1,10,99.5,10.7,98.7,10.7z M92.3,9.1h6.2V6.7h-6.2V9.1z M98.7,6.7L98.7,6.7L98.7,6.7z"/>
</g>
<g>
	<path class="st1" d="M107,42.2H85.2c-0.4,0-0.8-0.4-0.8-0.8v-7.1h-0.3c-1.2,0-2.1-0.9-2.1-2.1v-0.6c0-1.2,0.9-2.1,2.1-2.1h0.3V25
		h-0.3c-1.2,0-2.1-0.9-2.1-2.1v-0.6c0-1.2,0.9-2.1,2.1-2.1h0.3v-6.5c0-0.4,0.4-0.8,0.8-0.8s0.8,0.4,0.8,0.8V21
		c0,0.4-0.4,0.8-0.8,0.8h-1.1c-0.3,0-0.5,0.2-0.5,0.5v0.6c0,0.3,0.2,0.5,0.5,0.5h1.1c0.4,0,0.8,0.4,0.8,0.8v6.1
		c0,0.4-0.4,0.8-0.8,0.8h-1.1c-0.3,0-0.5,0.2-0.5,0.5v0.6c0,0.3,0.2,0.5,0.5,0.5h1.1c0.4,0,0.8,0.4,0.8,0.8v7.1h20.2v-7.1
		c0-0.4,0.4-0.8,0.8-0.8h1c0.3,0,0.5-0.2,0.5-0.5v-0.6c0-0.3-0.2-0.5-0.5-0.5h-1c-0.4,0-0.8-0.4-0.8-0.8v-6.1c0-0.4,0.4-0.8,0.8-0.8
		h1c0.3,0,0.5-0.2,0.5-0.5v-0.6c0-0.3-0.2-0.5-0.5-0.5h-1c-0.4,0-0.8-0.4-0.8-0.8v-6.5H90.9c-0.4,0-0.8-0.4-0.8-0.8s0.4-0.8,0.8-0.8
		H107c0.4,0,0.8,0.4,0.8,0.8v6.5h0.2c1.2,0,2.1,0.9,2.1,2.1v0.6c0,1.2-0.9,2.1-2.1,2.1h-0.2v4.5h0.2c1.2,0,2.1,0.9,2.1,2.1v0.6
		c0,1.2-0.9,2.1-2.1,2.1h-0.2v7.1C107.8,41.8,107.4,42.2,107,42.2z"/>
</g>
<g>
	<path class="st1" d="M102.8,23H89.4c-0.4,0-0.8-0.4-0.8-0.8s0.4-0.8,0.8-0.8h13.4c0.4,0,0.8,0.4,0.8,0.8S103.2,23,102.8,23z"/>
</g>
<g>
	<path class="st1" d="M102.8,32.3H89.4c-0.4,0-0.8-0.4-0.8-0.8s0.4-0.8,0.8-0.8h13.4c0.4,0,0.8,0.4,0.8,0.8S103.2,32.3,102.8,32.3z"
		/>
</g>
<g>
	<path class="st1" d="M108.4,46H83.7c-0.9,0-1.7-0.8-1.7-1.7v-2c0-0.9,0.8-1.7,1.7-1.7h24.7c0.9,0,1.7,0.8,1.7,1.7v2
		C110.1,45.2,109.3,46,108.4,46z M83.7,42.2c-0.1,0-0.1,0-0.1,0.1v2c0,0.1,0,0.1,0.1,0.1h24.7c0.1,0,0.1,0,0.1-0.1v-2
		c0-0.1,0-0.1-0.1-0.1H83.7z"/>
</g>
<g>
	<path class="st1" d="M108.4,14.5h-25c-1.1,0-2-0.9-2-2v-1.4c0-1.1,0.9-2,2-2h25c0.9,0,1.7,0.8,1.7,1.7v1.9c0,0.4-0.1,0.8-0.4,1.2
		s-0.7,0.6-1.1,0.6C108.5,14.5,108.5,14.5,108.4,14.5z M83.4,10.7c-0.2,0-0.4,0.2-0.4,0.4v1.4c0,0.2,0.2,0.4,0.4,0.4h25
		c0,0,0.1-0.2,0.1-0.2v-1.9c0-0.1,0-0.1-0.1-0.1H83.4z"/>
</g>
<g>
	<path class="st1" d="M152.3,10.7h-6.6c-0.8,0-1.4-0.6-1.4-1.4V6.5c0-0.8,0.6-1.4,1.4-1.4h6.6c0.8,0,1.4,0.6,1.4,1.4v2.8
		C153.7,10,153.1,10.7,152.3,10.7z M145.9,9.1h6.2V6.7h-6.2V9.1z M152.3,6.7L152.3,6.7L152.3,6.7z"/>
</g>
<g>
	<path class="st1" d="M160.5,42.2h-21.8c-0.4,0-0.8-0.4-0.8-0.8v-7.1h-0.2c-1.2,0-2.1-0.9-2.1-2.1v-0.6c0-1.2,0.9-2.1,2.1-2.1h0.2
		V25h-0.2c-1.2,0-2.1-0.9-2.1-2.1v-0.6c0-1.2,0.9-2.1,2.1-2.1h0.2v-6.5c0-0.4,0.4-0.8,0.8-0.8s0.8,0.4,0.8,0.8V21
		c0,0.4-0.4,0.8-0.8,0.8h-1c-0.3,0-0.5,0.2-0.5,0.5v0.6c0,0.3,0.2,0.5,0.5,0.5h1c0.4,0,0.8,0.4,0.8,0.8v6.1c0,0.4-0.4,0.8-0.8,0.8
		h-1c-0.3,0-0.5,0.2-0.5,0.5v0.6c0,0.3,0.2,0.5,0.5,0.5h1c0.4,0,0.8,0.4,0.8,0.8v7.1h20.2v-7.1c0-0.4,0.4-0.8,0.8-0.8h1.1
		c0.3,0,0.5-0.2,0.5-0.5v-0.6c0-0.3-0.2-0.5-0.5-0.5h-1.1c-0.4,0-0.8-0.4-0.8-0.8v-6.1c0-0.4,0.4-0.8,0.8-0.8h1.1
		c0.3,0,0.5-0.2,0.5-0.5v-0.6c0-0.3-0.2-0.5-0.5-0.5h-1.1c-0.4,0-0.8-0.4-0.8-0.8v-6.5h-15.2c-0.4,0-0.8-0.4-0.8-0.8
		s0.4-0.8,0.8-0.8h16c0.4,0,0.8,0.4,0.8,0.8v6.5h0.3c1.2,0,2.1,0.9,2.1,2.1v0.6c0,1.2-0.9,2.1-2.1,2.1h-0.3v4.5h0.3
		c1.2,0,2.1,0.9,2.1,2.1v0.6c0,1.2-0.9,2.1-2.1,2.1h-0.3v7.1C161.3,41.8,160.9,42.2,160.5,42.2z"/>
</g>
<g>
	<path class="st1" d="M156.3,23h-13.4c-0.4,0-0.8-0.4-0.8-0.8s0.4-0.8,0.8-0.8h13.4c0.4,0,0.8,0.4,0.8,0.8S156.7,23,156.3,23z"/>
</g>
<g>
	<path class="st1" d="M156.3,32.3h-13.4c-0.4,0-0.8-0.4-0.8-0.8s0.4-0.8,0.8-0.8h13.4c0.4,0,0.8,0.4,0.8,0.8S156.7,32.3,156.3,32.3z
		"/>
</g>
<g>
	<path class="st1" d="M162,46h-24.7c-0.9,0-1.7-0.8-1.7-1.7v-2c0-0.9,0.8-1.7,1.7-1.7H162c0.9,0,1.7,0.8,1.7,1.7v2
		C163.7,45.2,162.9,46,162,46z M137.3,42.2c-0.1,0-0.1,0-0.1,0.1v2c0,0.1,0,0.1,0.1,0.1H162c0.1,0,0.1,0,0.1-0.1v-2
		c0-0.1,0-0.1-0.1-0.1H137.3z"/>
</g>
<g>
	<path class="st1" d="M161.9,14.5h-25c-1.1-0.1-1.9-1-1.9-2v-1.4c-0.1-1,0.7-1.9,1.7-2c0.1,0,0.1,0,0.2,0h25c0,0,0,0,0,0
		c0.9,0,1.7,0.7,1.8,1.6l0,2C163.7,13.7,162.9,14.5,161.9,14.5z M136.9,10.7L136.9,10.7c-0.2,0-0.3,0.2-0.3,0.3l0,1.5
		c0,0.2,0.2,0.4,0.4,0.4l24.9,0c0.1,0,0.2-0.1,0.2-0.2v-1.9c0,0-0.1-0.1-0.2-0.1h0H136.9z"/>
</g>
<g>
	<path class="st1" d="M78,65.8h-6.6c-0.8,0-1.4-0.6-1.4-1.4v-2.8c0-0.8,0.6-1.4,1.4-1.4H78c0.8,0,1.4,0.6,1.4,1.4v2.8
		C79.4,65.1,78.8,65.8,78,65.8z M71.6,64.2h6.2v-2.4h-6.2V64.2z M78,61.8L78,61.8L78,61.8z"/>
</g>
<g>
	<path class="st1" d="M86.3,97.3H64.5c-0.4,0-0.8-0.4-0.8-0.8v-7.1h-0.3c-1.2,0-2.1-0.9-2.1-2.1v-0.6c0-1.2,0.9-2.1,2.1-2.1h0.3V80
		h-0.3c0,0,0,0-0.1,0c-0.5,0-1-0.2-1.4-0.6c-0.4-0.4-0.6-0.9-0.6-1.4v-0.6c0-1.2,0.9-2.1,2.1-2.1h0.3v-6.5c0-0.4,0.4-0.8,0.8-0.8
		s0.8,0.4,0.8,0.8v7.3c0,0.4-0.4,0.8-0.8,0.8h-1.1c-0.3,0-0.5,0.2-0.5,0.5V78c0,0.1,0.1,0.2,0.1,0.3s0.1,0.1,0.3,0.1
		c0,0,0.1,0,0.1,0h1.1c0.4,0,0.8,0.4,0.8,0.8v6.2c0,0.4-0.4,0.8-0.8,0.8h-1.1c-0.3,0-0.5,0.2-0.5,0.5v0.6c0,0.3,0.2,0.5,0.5,0.5h1.1
		c0.4,0,0.8,0.4,0.8,0.8v7.1h20.2v-7.1c0-0.4,0.4-0.8,0.8-0.8h1c0.3,0,0.5-0.2,0.5-0.5v-0.6c0-0.3-0.2-0.5-0.5-0.5h-1
		c-0.4,0-0.8-0.4-0.8-0.8v-6.2c0-0.4,0.4-0.8,0.8-0.8h1c0.3,0,0.5-0.1,0.5-0.4l0-0.6c0-0.3-0.2-0.5-0.5-0.5h-1
		c-0.4,0-0.8-0.4-0.8-0.8v-6.5H70.2c-0.4,0-0.8-0.4-0.8-0.8s0.4-0.8,0.8-0.8h16.1c0.4,0,0.8,0.4,0.8,0.8v6.5h0.2
		c1.2,0,2.1,0.9,2.1,2.1V78c0,0.1,0,0.1,0,0.2c-0.1,1.1-1.1,1.9-2.2,1.8l-0.1,0v4.6h0.2c1.2,0,2.1,0.9,2.1,2.1v0.6
		c0,1.2-0.9,2.1-2.1,2.1h-0.2v7.1C87.1,96.9,86.7,97.3,86.3,97.3z"/>
</g>
<g>
	<path class="st1" d="M82.1,78.1H68.7c-0.4,0-0.8-0.4-0.8-0.8s0.4-0.8,0.8-0.8h13.4c0.4,0,0.8,0.4,0.8,0.8S82.5,78.1,82.1,78.1z"/>
</g>
<g>
	<path class="st1" d="M82.1,87.4H68.7c-0.4,0-0.8-0.4-0.8-0.8s0.4-0.8,0.8-0.8h13.4c0.4,0,0.8,0.4,0.8,0.8S82.5,87.4,82.1,87.4z"/>
</g>
<g>
	<path class="st1" d="M87.7,101.1H63c-0.9,0-1.7-0.8-1.7-1.7v-2c0-0.9,0.8-1.7,1.7-1.7h24.7c0.9,0,1.7,0.8,1.7,1.7v2
		C89.4,100.3,88.6,101.1,87.7,101.1z M63,97.3c-0.1,0-0.1,0-0.1,0.1v2c0,0.1,0,0.1,0.1,0.1h24.7c0.1,0,0.1,0,0.1-0.1v-2
		c0-0.1,0-0.1-0.1-0.1H63z"/>
</g>
<g>
	<path class="st1" d="M62.7,69.6c-1.1,0-2-0.9-2-2v-1.4c0-1.1,0.9-2,2-2h25c0.9,0,1.7,0.8,1.7,1.7v1.9c0,0.9-0.7,1.7-1.6,1.8
		L62.7,69.6z M62.7,65.8c-0.2,0-0.4,0.2-0.4,0.4v1.4c0,0.2,0.2,0.4,0.4,0.4h25c0,0,0.1-0.1,0.1-0.2v-1.9c0-0.1,0-0.1-0.1-0.1H62.7z"
		/>
</g>
<g>
	<path class="st1" d="M25.5,65.8h-6.6c-0.8,0-1.4-0.6-1.4-1.4v-2.8c0-0.8,0.6-1.4,1.4-1.4h6.6c0.8,0,1.4,0.6,1.4,1.4v2.8
		C26.9,65.1,26.3,65.8,25.5,65.8z M19.1,64.2h6.2v-2.4h-6.2V64.2z M25.5,61.8L25.5,61.8L25.5,61.8z"/>
</g>
<g>
	<path class="st1" d="M33.8,97.3H12c-0.4,0-0.8-0.4-0.8-0.8v-7.1h-0.3c0,0-0.1,0-0.2,0c-0.5,0-1-0.3-1.4-0.7s-0.5-0.9-0.5-1.5l0-0.5
		c0,0,0,0,0,0c0,0,0-0.1,0-0.1c0-0.5,0.2-1,0.6-1.4c0.4-0.4,0.9-0.6,1.4-0.6h0.3V80h-0.3c-1.1,0-2-0.9-2-2v-0.6c0,0,0,0,0,0
		c0,0,0-0.1,0-0.1c0-1.1,0.9-2,2-2c0,0,0,0,0,0h0.3v-6.5c0-0.4,0.4-0.8,0.8-0.8s0.8,0.4,0.8,0.8v7.3c0,0.4-0.4,0.8-0.8,0.8h-1.1
		c0,0,0,0,0,0c-0.2,0-0.4,0.2-0.4,0.4c0,0,0,0.1,0,0.1V78c0,0.2,0.2,0.4,0.4,0.4H12c0.4,0,0.8,0.4,0.8,0.8v6.2
		c0,0.4-0.4,0.8-0.8,0.8h-1.1c0,0,0,0,0,0c-0.1,0-0.2,0.1-0.3,0.1c0,0-0.1,0.1-0.1,0.3c0,0,0,0.1,0,0.1v0.6c0,0.2,0.1,0.3,0.1,0.4
		c0,0,0.1,0.1,0.3,0.1l1.1,0c0.4,0,0.8,0.4,0.8,0.8v7.1H33v-7.1c0-0.4,0.4-0.8,0.8-0.8h1c0.3,0,0.5-0.2,0.5-0.5v-0.6
		c0-0.3-0.2-0.5-0.5-0.5h-1c-0.4,0-0.8-0.4-0.8-0.8v-6.2c0-0.4,0.4-0.8,0.8-0.8h1c0.3,0,0.5-0.1,0.5-0.4l0-0.6
		c0-0.3-0.2-0.5-0.5-0.5h-1c-0.4,0-0.8-0.4-0.8-0.8v-6.5H17.7c-0.4,0-0.8-0.4-0.8-0.8s0.4-0.8,0.8-0.8h16.1c0.4,0,0.8,0.4,0.8,0.8
		v6.5h0.2c1.2,0,2.1,0.9,2.1,2.1V78c0,0.1,0,0.1,0,0.2c-0.1,1.1-1.1,1.9-2.2,1.8l-0.1,0v4.6h0.2c1.2,0,2.1,0.9,2.1,2.1v0.6
		c0,1.2-0.9,2.1-2.1,2.1h-0.2v7.1C34.6,96.9,34.2,97.3,33.8,97.3z"/>
</g>
<g>
	<path class="st1" d="M29.6,78.1H16.2c-0.4,0-0.8-0.4-0.8-0.8s0.4-0.8,0.8-0.8h13.4c0.4,0,0.8,0.4,0.8,0.8S30,78.1,29.6,78.1z"/>
</g>
<g>
	<path class="st1" d="M29.6,87.4H16.2c-0.4,0-0.8-0.4-0.8-0.8s0.4-0.8,0.8-0.8h13.4c0.4,0,0.8,0.4,0.8,0.8S30,87.4,29.6,87.4z"/>
</g>
<g>
	<path class="st1" d="M35.3,101.1H10.6c-0.9,0-1.7-0.8-1.7-1.7v-2c0-0.9,0.8-1.7,1.7-1.7h24.7c0.9,0,1.7,0.8,1.7,1.7v2
		C37,100.3,36.2,101.1,35.3,101.1z M10.6,97.3c-0.1,0-0.1,0-0.1,0.1v2c0,0.1,0,0.1,0.1,0.1h24.7c0.1,0,0.1,0,0.1-0.1v-2
		c0-0.1,0-0.1-0.1-0.1H10.6z"/>
</g>
<g>
	<path class="st1" d="M10.2,69.6c-1.1-0.1-1.9-0.9-2-1.9l0-1.5c0-1.1,0.9-2,2-2h25c0.9,0,1.7,0.8,1.7,1.7v1.9c0,0.9-0.7,1.7-1.6,1.8
		L10.2,69.6z M10.2,65.8c-0.2,0-0.4,0.2-0.4,0.4v1.4c0,0.2,0.2,0.4,0.5,0.4l24.9,0c0,0,0.1-0.1,0.1-0.2v-1.9c0-0.1,0-0.1-0.1-0.1
		H10.2z"/>
</g>
<g>
	<path class="st1" d="M183,65.8h-6.6c-0.8,0-1.4-0.6-1.4-1.4v-2.8c0-0.8,0.6-1.4,1.4-1.4h6.6c0.8,0,1.4,0.6,1.4,1.4v2.8
		C184.4,65.1,183.8,65.8,183,65.8z M176.6,64.2h6.2v-2.4h-6.2V64.2z M183,61.8L183,61.8L183,61.8z"/>
</g>
<g>
	<path class="st1" d="M191.3,97.3h-21.9c-0.4,0-0.8-0.4-0.8-0.8v-7.1h-0.2c-1.2,0-2.1-0.9-2.1-2.1v-0.6c0-1.2,0.9-2.1,2.1-2.1h0.2
		V80h-0.2c0,0,0,0-0.1,0c-1.1,0-2-0.9-2-2v-0.6c0-1.2,0.9-2.1,2.1-2.1h0.2v-6.5c0-0.4,0.4-0.8,0.8-0.8s0.8,0.4,0.8,0.8v7.3
		c0,0.4-0.4,0.8-0.8,0.8h-1c-0.3,0-0.5,0.2-0.5,0.5V78c0,0.1,0.1,0.2,0.1,0.3c0,0,0.1,0.1,0.3,0.1c0,0,0.1,0,0.1,0h1
		c0.4,0,0.8,0.4,0.8,0.8v6.2c0,0.4-0.4,0.8-0.8,0.8h-1c-0.3,0-0.5,0.2-0.5,0.5v0.6c0,0.3,0.2,0.5,0.5,0.5h1c0.4,0,0.8,0.4,0.8,0.8
		v7.1h20.3v-7.1c0-0.4,0.4-0.8,0.8-0.8h1c0.3,0,0.5-0.2,0.5-0.5v-0.6c0-0.3-0.2-0.5-0.5-0.5h-1c-0.4,0-0.8-0.4-0.8-0.8v-6.2
		c0-0.4,0.4-0.8,0.8-0.8h1c0.2,0,0.3-0.1,0.4-0.1s0.1-0.1,0.1-0.3l0-0.6c0-0.3-0.2-0.5-0.5-0.5h-1c-0.4,0-0.8-0.4-0.8-0.8v-6.5
		h-15.3c-0.4,0-0.8-0.4-0.8-0.8s0.4-0.8,0.8-0.8h16.1c0.4,0,0.8,0.4,0.8,0.8v6.5h0.2c1.2,0,2.1,0.9,2.1,2.1V78c0,0,0,0.1,0,0.2
		c-0.1,1.1-1,1.9-2.2,1.8l-0.1,0v4.6h0.2c1.2,0,2.1,0.9,2.1,2.1v0.6c0,1.2-0.9,2.1-2.1,2.1h-0.2v7.1
		C192.1,96.9,191.7,97.3,191.3,97.3z"/>
</g>
<g>
	<path class="st1" d="M187,78.1h-13.3c-0.4,0-0.8-0.4-0.8-0.8s0.4-0.8,0.8-0.8H187c0.4,0,0.8,0.4,0.8,0.8S187.4,78.1,187,78.1z"/>
</g>
<g>
	<path class="st1" d="M187,87.4h-13.3c-0.4,0-0.8-0.4-0.8-0.8s0.4-0.8,0.8-0.8H187c0.4,0,0.8,0.4,0.8,0.8S187.4,87.4,187,87.4z"/>
</g>
<g>
	<path class="st1" d="M192.7,101.1H168c-0.9,0-1.7-0.8-1.7-1.7v-2c0-0.9,0.8-1.7,1.7-1.7h24.7c0.9,0,1.7,0.8,1.7,1.7v2
		C194.4,100.3,193.6,101.1,192.7,101.1z M168,97.3c-0.1,0-0.1,0-0.1,0.1v2c0,0.1,0,0.1,0.1,0.1h24.7c0.1,0,0.1,0,0.1-0.1v-2
		c0-0.1,0-0.1-0.1-0.1H168z"/>
</g>
<g>
	<path class="st1" d="M167.7,69.6c-1.1,0-2-0.9-2-2v-1.4c0-1.1,0.9-2,2-2h25c0.9,0,1.7,0.8,1.7,1.7v1.9c0,0.9-0.7,1.7-1.6,1.8
		L167.7,69.6z M167.7,65.8c-0.2,0-0.4,0.2-0.4,0.4v1.4c0,0.2,0.2,0.4,0.4,0.4h25c0,0,0.1-0.1,0.1-0.2v-1.9c0-0.1,0-0.1-0.1-0.1
		H167.7z"/>
</g>
<g>
	<path class="st1" d="M130.5,65.8h-6.6c-0.8,0-1.4-0.6-1.4-1.4v-2.8c0-0.8,0.6-1.4,1.4-1.4h6.6c0.8,0,1.4,0.6,1.4,1.4v2.8
		C131.9,65.1,131.3,65.8,130.5,65.8z M124.1,64.2h6.2v-2.4h-6.2V64.2z M130.5,61.8L130.5,61.8L130.5,61.8z"/>
</g>
<g>
	<path class="st1" d="M138.8,97.3H117c-0.4,0-0.8-0.4-0.8-0.8v-7.1h-0.3c-1.2,0-2.1-0.9-2.1-2.1v-0.6c0-1.2,0.9-2.1,2.1-2.1h0.3V80
		h-0.3c0,0,0,0-0.1,0c-1.1,0-2-0.9-2-2v-0.6c0-1.2,0.9-2.1,2.1-2.1h0.3v-6.5c0-0.4,0.4-0.8,0.8-0.8s0.8,0.4,0.8,0.8v7.3
		c0,0.4-0.4,0.8-0.8,0.8h-1.1c-0.3,0-0.5,0.2-0.5,0.5V78c0,0.1,0.1,0.2,0.1,0.3c0,0,0.1,0.1,0.3,0.1c0,0,0.1,0,0.1,0h1.1
		c0.4,0,0.8,0.4,0.8,0.8v6.2c0,0.4-0.4,0.8-0.8,0.8h-1.1c-0.3,0-0.5,0.2-0.5,0.5v0.6c0,0.3,0.2,0.5,0.5,0.5h1.1
		c0.4,0,0.8,0.4,0.8,0.8v7.1H138v-7.1c0-0.4,0.4-0.8,0.8-0.8h1c0.3,0,0.5-0.2,0.5-0.5v-0.6c0-0.3-0.2-0.5-0.5-0.5h-1
		c-0.4,0-0.8-0.4-0.8-0.8v-6.2c0-0.4,0.4-0.8,0.8-0.8h1c0.2,0,0.3-0.1,0.4-0.1s0.1-0.1,0.1-0.3l0-0.6c0-0.3-0.2-0.5-0.5-0.5h-1
		c-0.4,0-0.8-0.4-0.8-0.8v-6.5h-15.3c-0.4,0-0.8-0.4-0.8-0.8s0.4-0.8,0.8-0.8h16.1c0.4,0,0.8,0.4,0.8,0.8v6.5h0.2
		c1.2,0,2.1,0.9,2.1,2.1V78c0,0,0,0.1,0,0.2c-0.1,1.1-1,1.9-2.2,1.8l-0.1,0v4.6h0.2c1.2,0,2.1,0.9,2.1,2.1v0.6
		c0,1.2-0.9,2.1-2.1,2.1h-0.2v7.1C139.6,96.9,139.2,97.3,138.8,97.3z"/>
</g>
<g>
	<path class="st1" d="M134.6,78.1h-13.4c-0.4,0-0.8-0.4-0.8-0.8s0.4-0.8,0.8-0.8h13.4c0.4,0,0.8,0.4,0.8,0.8S135,78.1,134.6,78.1z"
		/>
</g>
<g>
	<path class="st1" d="M134.6,87.4h-13.4c-0.4,0-0.8-0.4-0.8-0.8s0.4-0.8,0.8-0.8h13.4c0.4,0,0.8,0.4,0.8,0.8S135,87.4,134.6,87.4z"
		/>
</g>
<g>
	<path class="st1" d="M140.2,101.1h-24.7c-0.9,0-1.7-0.8-1.7-1.7v-2c0-0.9,0.8-1.7,1.7-1.7h24.7c0.9,0,1.7,0.8,1.7,1.7v2
		C141.9,100.3,141.1,101.1,140.2,101.1z M115.5,97.3c-0.1,0-0.1,0-0.1,0.1v2c0,0.1,0,0.1,0.1,0.1h24.7c0.1,0,0.1,0,0.1-0.1v-2
		c0-0.1,0-0.1-0.1-0.1H115.5z"/>
</g>
<g>
	<path class="st1" d="M115.2,69.6c-1.1,0-2-0.9-2-2v-1.4c0-1.1,0.9-2,2-2h25c0.9,0,1.7,0.8,1.7,1.7v1.9c0,0.9-0.7,1.7-1.6,1.8
		L115.2,69.6z M115.2,65.8c-0.2,0-0.4,0.2-0.4,0.4v1.4c0,0.2,0.2,0.4,0.4,0.4h25c0,0,0.1-0.1,0.1-0.2v-1.9c0-0.1,0-0.1-0.1-0.1
		H115.2z"/>
</g>
<g id="Rectángulo_3799">
	<g>
		<rect class="st2" width="202.4" height="140.4"/>
	</g>
</g>
<g>
	<defs>
		<rect id="SVGID_1_" x="44.4" y="106.9" width="113.4" height="28.3"/>
	</defs>
	<clipPath id="SVGID_2_">
		<use xlink:href="#SVGID_1_"  style="overflow:visible;"/>
	</clipPath>
	<g class="st3">
		<g>
			<rect x="44.4" y="106.9" class="st2" width="113.4" height="28.3"/>
		</g>
		<g>
			<path class="st4" d="M122.8,128.9h-12.2c-1.1,0-2-0.9-2-2s0.9-2,2-2h12.2c1.1,0,2,0.9,2,2S124,128.9,122.8,128.9z"/>
		</g>
		<g>
			<path class="st4" d="M135.9,128.9h-1.1c-1.1,0-2-0.9-2-2s0.9-2,2-2h1.1c1.1,0,2,0.9,2,2S137,128.9,135.9,128.9z"/>
		</g>
		<g>
			<path class="st4" d="M78.3,128.9h-12c-1.1,0-2-0.9-2-2s0.9-2,2-2h12c1.1,0,2,0.9,2,2S79.4,128.9,78.3,128.9z"/>
		</g>
		<g>
			<path class="st5" d="M98.7,128.9H77.5c-1.1,0-2-0.9-2-2s0.9-2,2-2h21.2c1.1,0,2,0.9,2,2S99.8,128.9,98.7,128.9z"/>
		</g>
		<g>
			<path class="st5" d="M106.1,118.7H66.3c-1.1,0-2-0.9-2-2s0.9-2,2-2h39.8c1.1,0,2,0.9,2,2S107.2,118.7,106.1,118.7z"/>
		</g>
		<g>
			<path class="st4" d="M135.9,118.7h-31c-1.1,0-2-0.9-2-2s0.9-2,2-2h31c1.1,0,2,0.9,2,2S137,118.7,135.9,118.7z"/>
		</g>
		<g>
			<path class="st4" d="M67.1,118.7h-0.8c-1.1,0-2-0.9-2-2s0.9-2,2-2h0.8c1.1,0,2,0.9,2,2S68.2,118.7,67.1,118.7z"/>
		</g>
	</g>
</g>
</svg>
