<svg xmlns="http://www.w3.org/2000/svg" viewBox="0 0 84 84"><defs><style>.cls-1{isolation:isolate;}.cls-2{fill:#95a6b1;}.cls-3{mix-blend-mode:multiply;}.cls-4{fill:#19a500;}.cls-5,.cls-6,.cls-7{fill:none;}.cls-6{stroke:#4da12e;}.cls-6,.cls-7{stroke-linecap:round;stroke-linejoin:round;stroke-width:3px;}.cls-7{stroke:#96d200;}</style></defs><title>0-icon-NOSOTROS-editable-FINAL</title><g class="cls-1"><g id="Capa_1" data-name="Capa 1"><path class="cls-2" d="M45.6,62.7l-.7-.2-.7-.2a2,2,0,0,1-1-2.5L44.4,57c0-.1,0-.2-.1-.2l-.2-.2L42,56.3l-5,.4-.8-.2a1.2,1.2,0,0,1-.5-.5l-1.2-5.4-4.5-2-8.1-1.3-.8-.2-.6-.3-5.4-4.1a1.9,1.9,0,0,1-.7-1.4,2,2,0,0,1,.6-1.5l1-.8,3.1-3.1.7-5.4V26.9l-.7-2.1a.9.9,0,0,1,.5-1.1.8.8,0,0,1,1,.6l.7,2.1a.9.9,0,0,1,.1.5v3.8l-.8,5.7c0,.2-.1.3-.2.5L16.1,41a.3.3,0,0,0-.1.2c0,.1,0,.2.1.2l5.3,4.1.8.2L30.3,47h.2l5,2.2a.7.7,0,0,1,.4.6L37.2,55l4.6-.3h.5l2.1.4a1.6,1.6,0,0,1,1.3.9,1.5,1.5,0,0,1,.1,1.6l-1.1,2.8c-.1.2,0,.3.1.4l.7.3h.2c0-.1.1-.1.1-.2l2.1-9.2c0-.1,0-.1-.1-.2l-1.2-1.8a1.8,1.8,0,0,1-.3-1.6l2.1-6.2a.8.8,0,0,1,1.1-.5.8.8,0,0,1,.5,1l-2.2,6.2a.3.3,0,0,0,.1.2l1.2,1.8a1.6,1.6,0,0,1,.3,1.5l-2,9.1a1.9,1.9,0,0,1-1,1.3Z"/><path class="cls-2" d="M49.6,27.6l-.5-.2-4.6-3.7h-.1l-4.9-.6a1.9,1.9,0,0,1-1.6-1.5l-.5-2.3-1.9-4.8a1.6,1.6,0,0,1,.1-1.5l2.8-5.6a1.2,1.2,0,0,1,.6-.6l2.1-1.6h.1a.4.4,0,0,0-.1-.3h-.4L38.5,6.4h-.2L35.1,8.1l-.4.2L29.4,9.4h-.2l-2.1,2A.8.8,0,0,1,26,10.4l2.1-2.1a1.8,1.8,0,0,1,.9-.4l5.3-1.2,3.2-1.6,2.3-1.6a2,2,0,0,1,2.6.3,2.6,2.6,0,0,1,.4,1.5A2,2,0,0,1,42,6.5L39.9,8.1h-.1L37,13.7c0,.1-.1.2,0,.2l1.9,4.7c.1.1.1.2.1.4l.5,2.3a.2.2,0,0,0,.2.2l4.9.6a1.1,1.1,0,0,1,.8.3l4.7,3.8a.8.8,0,0,1-.5,1.4Z"/><g id="Trazado_5703" data-name="Trazado 5703" class="cls-3"><path class="cls-4" d="M22.2,22.4a5.6,5.6,0,1,1,0-11.1h0a5.5,5.5,0,0,1,5.5,5.5h0A5.6,5.6,0,0,1,22.2,22.4Zm0-9.5a3.9,3.9,0,0,0-4,3.9,4,4,0,0,0,4,4,3.9,3.9,0,0,0,3.9-4h0A3.8,3.8,0,0,0,22.2,12.9Z"/></g><g id="Rectángulo_3799" data-name="Rectángulo 3799"><rect class="cls-5" width="84" height="84"/></g><path class="cls-2" d="M44.4,40.1H42.7a.9.9,0,0,1-.8-.8.8.8,0,0,1,.8-.8h1.7a.7.7,0,0,1,.8.8A.8.8,0,0,1,44.4,40.1Z"/><path class="cls-2" d="M69,42.7H42.7a.8.8,0,0,1-.8-.8v-11a.7.7,0,0,1,.8-.8H69a.7.7,0,0,1,.8.8.8.8,0,0,1-.8.8H43.5v9.4H69a.8.8,0,0,1,0,1.6Z"/><path class="cls-2" d="M42.7,43.7H37.6a.7.7,0,0,1-.8-.8V29.8a.8.8,0,0,1,.8-.8h5.1a.9.9,0,0,1,.8.8V42.9A.8.8,0,0,1,42.7,43.7Zm-4.3-1.6h3.5V30.6H38.4Z"/><path class="cls-2" d="M44.4,37.2H42.7a.9.9,0,0,1-.8-.8.8.8,0,0,1,.8-.8h1.7a.8.8,0,0,1,.8.8A.9.9,0,0,1,44.4,37.2Z"/><path class="cls-2" d="M44.4,34.3H42.7a.9.9,0,0,1-.8-.8.8.8,0,0,1,.8-.8h1.7a.7.7,0,0,1,.8.8A.8.8,0,0,1,44.4,34.3Z"/><path class="cls-2" d="M58.9,42.7a.9.9,0,0,1-.8-.8v-5a.9.9,0,0,1,.8-.8.8.8,0,0,1,.8.8v5A.8.8,0,0,1,58.9,42.7Z"/><path class="cls-2" d="M58.9,34a.8.8,0,0,1-.8-.8V30.9a.8.8,0,0,1,.8-.8.7.7,0,0,1,.8.8v2.3A.7.7,0,0,1,58.9,34Z"/><path class="cls-2" d="M64.7,31.7H49.6a.9.9,0,0,1-.8-.8V22.8a.8.8,0,0,1,.8-.8H64.7a.8.8,0,0,1,.8.8v8.1A.9.9,0,0,1,64.7,31.7ZM50.4,30.1H63.9V23.6H50.4Z"/><path class="cls-2" d="M57.1,23.6a.9.9,0,0,1-.8-.8v-5a.9.9,0,0,1,.8-.8.8.8,0,0,1,.8.8v5A.8.8,0,0,1,57.1,23.6Z"/><path class="cls-2" d="M60.6,18.6H53.9a.8.8,0,0,1-.8-.8.9.9,0,0,1,.8-.8h6.7a.9.9,0,0,1,.8.8A.8.8,0,0,1,60.6,18.6Z"/><path class="cls-2" d="M64.7,27.6H49.6a.8.8,0,0,1,0-1.6H64.7a.8.8,0,0,1,0,1.6Z"/><rect class="cls-5" y="63.1" width="84" height="20.93"/><line class="cls-6" x1="49.1" y1="77.9" x2="58.1" y2="77.9"/><line class="cls-6" x1="67" y1="77.9" x2="67.8" y2="77.9"/><line class="cls-6" x1="16.2" y1="77.9" x2="25.1" y2="77.9"/><line class="cls-7" x1="24.5" y1="77.9" x2="40.2" y2="77.9"/><line class="cls-7" x1="16.2" y1="70.3" x2="45.7" y2="70.3"/><line class="cls-6" x1="44.8" y1="70.3" x2="67.8" y2="70.3"/><line class="cls-6" x1="16.2" y1="70.3" x2="16.8" y2="70.3"/><rect class="cls-5" width="84" height="84"/></g></g></svg>