<svg id="Capa_1" data-name="Capa 1" xmlns="http://www.w3.org/2000/svg" xmlns:xlink="http://www.w3.org/1999/xlink" viewBox="0 0 84 84"><defs><style>.cls-1,.cls-7,.cls-9{fill:none;}.cls-2{fill:#68c3c7;}.cls-3{clip-path:url(#clip-path);}.cls-4{clip-path:url(#clip-path-2);}.cls-5{font-size:13.34px;fill:#747173;font-family:Helvetica-Bold, Helvetica;font-weight:700;}.cls-6{fill:url(#Unnamed_Pattern_10);}.cls-7,.cls-9{stroke-miterlimit:10;}.cls-7{stroke-width:0.2px;stroke:url(#Unnamed_Pattern_10);}.cls-8{fill:#fff;}.cls-9{stroke:#fff;stroke-width:0.51px;}</style><clipPath id="clip-path"><rect class="cls-1" width="83.9" height="83.93"/></clipPath><clipPath id="clip-path-2"><rect class="cls-1" x="-22.8" y="-2.9" width="129.6" height="112.15"/></clipPath><pattern id="Unnamed_Pattern_10" data-name="Unnamed Pattern 10" width="119.6" height="119.64" patternTransform="matrix(0.24, 0, 0, -0.24, 1035.16, 4339.46)" patternUnits="userSpaceOnUse" viewBox="0 0 119.6 119.6"><rect class="cls-1" width="119.6" height="119.64"/><rect class="cls-2" width="119.6" height="119.64"/></pattern></defs><title>icon-cultura-6-insignias</title><g class="cls-3"><g class="cls-4"><text class="cls-5" transform="translate(14.9 94)">Primero </text><g class="cls-4"><path class="cls-6" d="M82.1,42.3c0,1.6-2.1,3.1-2.3,4.6s1.5,3.5,1.2,5-2.8,2.5-3.4,3.9.7,3.8-.1,5.2-3.3,1.7-4.1,2.9-.3,3.8-1.4,5-3.6.9-4.7,1.9-1.2,3.6-2.5,4.5-3.7,0-5.1.7-2,3.3-3.5,3.8-3.5-.9-5.1-.5-2.7,2.7-4.3,2.8-3.2-1.7-4.8-1.7-3.3,1.9-4.8,1.7-2.8-2.4-4.3-2.8-3.7,1.1-5.1.5-2.1-3-3.5-3.8-3.8.2-5.1-.7-1.3-3.4-2.5-4.5S13,70.1,12,68.9s-.5-3.7-1.4-5S7.2,62.4,6.5,61s.4-3.7-.1-5.2-3-2.4-3.4-3.9,1.4-3.4,1.2-5-2.3-3-2.3-4.6,2.1-3,2.3-4.6-1.5-3.5-1.2-5,2.8-2.4,3.4-3.9-.7-3.8.1-5.1,3.3-1.7,4.1-3,.3-3.8,1.4-5,3.6-.9,4.7-1.9,1.2-3.6,2.5-4.5,3.7,0,5.1-.7,2-3.3,3.5-3.8,3.5.9,5.1.5,2.7-2.6,4.3-2.8S40.4,4.2,42,4.2s3.3-1.9,4.8-1.7,2.8,2.4,4.3,2.8,3.7-1.1,5.1-.5,2.1,3,3.5,3.8,3.8-.2,5.1.7,1.3,3.4,2.5,4.5,3.7.7,4.7,1.9.5,3.7,1.4,5,3.4,1.6,4.1,3-.4,3.6.1,5.1,3,2.4,3.4,3.9-1.4,3.4-1.2,5,2.3,3,2.3,4.6"/><path class="cls-7" d="M82.1,42.3c0,1.6-2.1,3.1-2.3,4.6s1.5,3.5,1.2,5-2.8,2.5-3.4,3.9.7,3.8-.1,5.2-3.3,1.7-4.1,2.9-.3,3.8-1.4,5-3.6.9-4.7,1.9-1.2,3.6-2.5,4.5-3.7,0-5.1.7-2,3.3-3.5,3.8-3.5-.9-5.1-.5-2.7,2.7-4.3,2.8-3.2-1.7-4.8-1.7-3.3,1.9-4.8,1.7-2.8-2.4-4.3-2.8-3.7,1.1-5.1.5-2.1-3-3.5-3.8-3.8.2-5.1-.7-1.3-3.4-2.5-4.5S13,70.1,12,68.9s-.5-3.7-1.4-5S7.2,62.4,6.5,61s.4-3.7-.1-5.2-3-2.4-3.4-3.9,1.4-3.4,1.2-5-2.3-3-2.3-4.6,2.1-3,2.3-4.6-1.5-3.5-1.2-5,2.8-2.4,3.4-3.9-.7-3.8.1-5.1,3.3-1.7,4.1-3,.3-3.8,1.4-5,3.6-.9,4.7-1.9,1.2-3.6,2.5-4.5,3.7,0,5.1-.7,2-3.3,3.5-3.8,3.5.9,5.1.5,2.7-2.6,4.3-2.8S40.4,4.2,42,4.2s3.3-1.9,4.8-1.7,2.8,2.4,4.3,2.8,3.7-1.1,5.1-.5,2.1,3,3.5,3.8,3.8-.2,5.1.7,1.3,3.4,2.5,4.5,3.7.7,4.7,1.9.5,3.7,1.4,5,3.4,1.6,4.1,3-.4,3.6.1,5.1,3,2.4,3.4,3.9-1.4,3.4-1.2,5S82.1,40.7,82.1,42.3Z"/><path class="cls-8" d="M30.1,56.3a5.2,5.2,0,0,0-4-2.2c-2,0-3,1.2-3.9,2.2s-1.7,1.9-3.3,1.9-2.4-.9-3.4-1.9-1.9-2.2-3.9-2.2v.8c1.6,0,2.4.9,3.3,1.9a5,5,0,0,0,4,2.3c2,0,3-1.2,3.9-2.3s1.7-1.9,3.3-1.9,2.5.9,3.4,1.9"/><path class="cls-9" d="M30.1,56.3a5.2,5.2,0,0,0-4-2.2c-2,0-3,1.2-3.9,2.2s-1.7,1.9-3.3,1.9-2.4-.9-3.4-1.9-1.9-2.2-3.9-2.2v.8c1.6,0,2.4.9,3.3,1.9a5,5,0,0,0,4,2.3c2,0,3-1.2,3.9-2.3s1.7-1.9,3.3-1.9,2.5.9,3.4,1.9"/><path class="cls-8" d="M14.9,64a5.2,5.2,0,0,0,4,2.2c2,0,3-1.2,3.9-2.2s1.7-2,3.3-2,2.5.9,3.4,2,1.9,2.2,3.9,2.2a5.2,5.2,0,0,0,4-2.2c.9-1.1,1.7-2,3.3-2s2.4.9,3.3,2,1.9,2.2,4,2.2S51,65,51.9,64s1.7-2,3.3-2,2.4.9,3.3,2,2,2.2,4,2.2v-.9c-1.6,0-2.4-.9-3.3-1.9a5.2,5.2,0,0,0-4-2.2c-2,0-3,1.2-3.9,2.2s-1.7,1.9-3.3,1.9a4,4,0,0,1-3.4-1.9c-.9-1-1.9-2.2-3.9-2.2a5.2,5.2,0,0,0-4,2.2c-.9,1-1.7,1.9-3.3,1.9s-2.4-.9-3.3-1.9a5.2,5.2,0,0,0-4-2.2c-2,0-3,1.2-3.9,2.2s-1.7,1.9-3.3,1.9-2.4-.9-3.4-1.9-1.9-2.2-3.9-2.2V62c1.6,0,2.4.9,3.3,2"/><path class="cls-9" d="M14.9,64a5.2,5.2,0,0,0,4,2.2c2,0,3-1.2,3.9-2.2s1.7-2,3.3-2,2.5.9,3.4,2,1.9,2.2,3.9,2.2a5.2,5.2,0,0,0,4-2.2c.9-1.1,1.7-2,3.3-2s2.4.9,3.3,2,1.9,2.2,4,2.2S51,65,51.9,64s1.7-2,3.3-2,2.4.9,3.3,2,2,2.2,4,2.2v-.9c-1.6,0-2.4-.9-3.3-1.9a5.2,5.2,0,0,0-4-2.2c-2,0-3,1.2-3.9,2.2s-1.7,1.9-3.3,1.9a4,4,0,0,1-3.4-1.9c-.9-1-1.9-2.2-3.9-2.2a5.2,5.2,0,0,0-4,2.2c-.9,1-1.7,1.9-3.3,1.9s-2.4-.9-3.3-1.9a5.2,5.2,0,0,0-4-2.2c-2,0-3,1.2-3.9,2.2s-1.7,1.9-3.3,1.9-2.4-.9-3.4-1.9-1.9-2.2-3.9-2.2V62C13.2,62,14,62.9,14.9,64Z"/><path class="cls-8" d="M30.1,49.2a4.9,4.9,0,0,0-4-2.2,4.7,4.7,0,0,0-3.9,2.2c-.9,1-1.7,1.9-3.3,1.9s-2.4-.9-3.4-1.9A4.7,4.7,0,0,0,11.6,47v.8c1.6,0,2.4.9,3.3,1.9a5,5,0,0,0,4,2.3c2,0,3-1.2,3.9-2.3s1.7-1.9,3.3-1.9,2.5.9,3.4,1.9"/><path class="cls-9" d="M30.1,49.2a4.9,4.9,0,0,0-4-2.2,4.7,4.7,0,0,0-3.9,2.2c-.9,1-1.7,1.9-3.3,1.9s-2.4-.9-3.4-1.9A4.7,4.7,0,0,0,11.6,47v.8c1.6,0,2.4.9,3.3,1.9a5,5,0,0,0,4,2.3c2,0,3-1.2,3.9-2.3s1.7-1.9,3.3-1.9,2.5.9,3.4,1.9"/><path class="cls-8" d="M44,16.9A23.4,23.4,0,1,0,67.3,40.2,23.3,23.3,0,0,0,44,16.9m12.5,8.9h.4c.1-.1.2-.3.1-.4l-.3-.8h.1l.7,1.6h0c0-.1-.1-.1-.2,0a.2.2,0,0,0-.2.2l-.5-.5c0-.1,0-.1-.1-.1h0M29.9,24.5c.1.1.1,0,.2,0a.1.1,0,0,0,.1-.1c0,.1,0,.2.1.2h.2a.1.1,0,0,0-.1.1.4.4,0,0,0-.1.3.2.2,0,0,0,.2.2h0l-4.9,4.5a23.8,23.8,0,0,1,4.3-5.3m-7,15.7a20.9,20.9,0,0,1,.4-4.3h.5l-.3,1.3h0a16.5,16.5,0,0,0,.2,2.1l.2.2a13.4,13.4,0,0,1,4.7,5.8,5.2,5.2,0,0,0-1,3.6,3.5,3.5,0,0,0,2,2.1,2.4,2.4,0,0,0,.2.8c0,.1,0,.1.1.2a11.8,11.8,0,0,0,3.5,2.4,8.3,8.3,0,0,0,4.4,5.8h0A21,21,0,0,1,22.9,40.2m39.9,8.6c-.1.5-.3.9-.4,1.4A15.7,15.7,0,0,0,61,52.7h0a21.2,21.2,0,0,1-17,8.6l-2.7-.2h-.1v-.2a.1.1,0,0,1-.1-.1h-.4a1.1,1.1,0,0,1-.2-.7H41v-.4h0l.9-.4h.5l.3-.3a.2.2,0,0,0,.2-.2,4.5,4.5,0,0,0-.1-1.4c2.3-1.4,2.6-1.6,2.2-2.6,1.4-1.6,1.4-1.7,1.5-2.7v-.4c0-.2-.1-.4-.3-.4s-3.4-.1-5.3-2h-.3a3.5,3.5,0,0,0-1.4.6h-.1l.2-.2a.6.6,0,0,0,.1-.4c-.9-1.6-1.1-1.8-1.9-1.9s-1-.1-1.3-1.1a.1.1,0,0,0-.1-.1l-.3-.3A7.8,7.8,0,0,0,33,43.9h-.7L31,43.2a.3.3,0,0,0-.4,0l-.6.4a3.7,3.7,0,0,1-1.6-.9A3.1,3.1,0,0,0,27,41.2V41a2.8,2.8,0,0,1,.1-.9,1.9,1.9,0,0,0,.5-1v-.3h-.3a1.6,1.6,0,0,0-1.2.6h-.3a9.2,9.2,0,0,1-.1-1.9c.3-.1.4-.3,1-1.4a2.9,2.9,0,0,1,1.7.5h.3l.3-.2v.3c0,.1.1.2.3.2h.3v1.1a3.8,3.8,0,0,1,.1,1c0,.2,0,.3.2.3h-.1a.8.8,0,0,0-.7-.5H28.1v.4a2.9,2.9,0,0,0,1.4.9h0a1.7,1.7,0,0,0,1.3.8h.1c.1,0,.2,0,.2-.1l.2-.2c.1-.1.2-.2.1-.3s0-.2-.1-.2-.1-.1-.3-.3-.4-.6-.7-.6h0l1-.8c.1-.1.2-.3.1-.4l-.3-.6.2-.5h.1l.7-.4.6-.3h1.1c.9-1,.9-1.1,1.2-1.3s1.5-.7,5.5-1.8a.3.3,0,0,0,.3-.3.3.3,0,0,0-.3-.3l-.3-.2.3-.3a.4.4,0,0,0,.1-.3h.5c0,.1,0,.1.1.2s.6.5.6.6a.2.2,0,0,0,.2.2h.3l.5-.6a.4.4,0,0,0,.1-.3l-.3-.2h-.1l1.3-1.1c.1-.1.1-.2.1-.4l-.3-.2H43a.2.2,0,0,0,0-.3l-.3-.4a1.3,1.3,0,0,1,.3-.5v-.3h-.2a1.5,1.5,0,0,0-1.3-.2c-.6-1-.7-1.1-1.1-1.2h-.3v.5h-.4c-.1,0-.2,0-.2.1A18.5,18.5,0,0,1,38,29l-1.1,1.1a7.1,7.1,0,0,1-.4-2l1.4-.7c1.3-.8,1.8-1.2,2.1-1.2l.4.2v.2c0,.1.1.3.2.3h.8l.3.6c0,.1.1.1.3.1s.2,0,.2-.1.7-.9.7-.9l.4.3h.5a1.2,1.2,0,0,0,.4-.8h0c.1-.2,0-.3-.1-.3H44v-.3c0-.1-.1-.2-.2-.3s-.2-.2-.2-.3a.3.3,0,0,0-.3-.3l-.4-.2h-.4v-.2l-.2-.2h-1v-.3a.3.3,0,0,0-.1-.2h.1v-.2a.6.6,0,0,0,.1-.4l-.2-.3h.2a1.1,1.1,0,0,0,.3-.6c0-.1-.1-.3-.2-.3h-.4l-.8.5c-.2,0-.3.2-.2.3a.3.3,0,0,0,.3.3h.3c0,.1,0,.1.1.1h-.3a.3.3,0,0,0-.1.2h-.3v-.3l-.3-.2h-.3c-.1-.1-.2-.1-.4,0l-.6.3c-.2,0-.2.2-.2.3h0l.3.2h-.2c0-.2-.1-.3-.3-.5a.3.3,0,0,0-.4,0c-.1,0-.1.1-.1.2h-.1a.5.5,0,0,0-.2.4v.3s.1.1,0,.1H37a.2.2,0,0,0-.2.2v.2a.8.8,0,0,0,.4.4h-.5v-.2c0-.1-.1-.2-.2-.3h-.1c-.1,0-.1,0-.1-.1h-.1v-.2l-.2-.2-.5-.2h-.6v-.2c.1,0,.1-.2.1-.3l-.2-.2h-.8a.2.2,0,0,0,0-.3H34a.4.4,0,0,0-.1-.3c-.1-.1-.2-.2-.4-.1l-.7.4h0A20.1,20.1,0,0,1,44,19.1a20.7,20.7,0,0,1,10.8,3h-.1l-.9-.3h-.3l-.4.3-.2.2a.4.4,0,0,0,.1.3,7.8,7.8,0,0,1,1.3,1.8c-.1.6.1.8,1.1,1.6h.7c-.1.3,0,.4.4,1h0a.4.4,0,0,0-.1.3v.2l-.6-.3c-.1,0-.1,0-.1-.1l-.6-.7c-.1-.1-.3-.2-.4-.1l-.4.3a.4.4,0,0,0-.1.3,1.3,1.3,0,0,0,.3.5,1.1,1.1,0,0,0-.6.7.6.6,0,0,0,.1.4h.3l-.3.2h.4l-.3.2h.3l.3.2h.1l.2-.3c0-.4.1-.4.2-.4h.1c0,.1,0,.2.1.2s.1.1.2.2a.1.1,0,0,0,0,.2l.2.2c.2,0,.2,0,.9,1H55v.3l.5.9.3.7c-.1,0-.1.2,0,.3v.8h.3l2.2-.9c.1,0,.2-.2.1-.4l-.3-.8a4.1,4.1,0,0,0,.3-.8.8.8,0,0,1,.2-.6.1.1,0,0,1,.1-.1c.8.7,1,1,1.4,1h.3l.3.4a.2.2,0,0,0,.4.1c.1-.1.2-.3.1-.4s-.1-.2-.1-.3l.7.6a.2.2,0,0,0,.3,0,.2.2,0,0,0,.2-.2V31H63a4.7,4.7,0,0,1,.5,1l-1,.4a.5.5,0,0,0-.2.4c.1.1.1.2,0,.4a6.7,6.7,0,0,1-1.4-1.1c-.1-.1-.3-.2-.4-.1a11.2,11.2,0,0,1-3,1.3l-.3.2c0,.1,0,.2.1.2h-.1v.1l-.3.2a19.7,19.7,0,0,1-2.9,5.5.2.2,0,0,0,.1.4l.4.4c.3,2.1.3,2.1,0,2.8s0,.3.1.3c2.9,2.7,2.9,2.7,3.6,2.9s.3,0,.4-.2l.3-.5,2.4-.7,1.4-.3h.2c.3.3.1,2,0,4M34.3,31.7c-.1-.2-.2-.2-.4-.2h-.4v-.2a.4.4,0,0,0-.1-.3H33c.4-.3.5-.2,1.1,0a2.6,2.6,0,0,0,.6,1.3l-.4.3-.7.4c.1-.1.1-.3.2-.5l.4-.3c.1,0,.1-.2.1-.3m3.9-6.8a3.4,3.4,0,0,0,1.2-.6h.2c-.6,1-.6,1.1-.9,1.1h-.2c0-.2-.1-.2-.2-.3h-.1m1.5-.9h0m.8.5h0c0,.1.1.2.3.2H41l-.5.2c-.1-.2,0-.4,0-.6a1.3,1.3,0,0,0-.1-.6l-.2-.3h-.1a.1.1,0,0,0,.1-.1c0,.1.1.1.2.1h.1a2.6,2.6,0,0,0,0,.9m1.1,1-.2-.5H42l-.7,1h-.2l.4-.3a.4.4,0,0,0,.1-.3m13.7,2.8v-.2h.1ZM33.6,41.4c.1.1,0,.3-.1.4l-.5.5h-.5c-.3-.5-.4-.6-.5-.6h-.2q-.2,0-.3-.3c-.2-.7-.1-1,.5-1.2h.4l.6.4h.2ZM50.2,24.9a8.5,8.5,0,0,1-3,2.4.6.6,0,0,1-.1.4l-.4.2h-.1a1.5,1.5,0,0,1-.7-.3l-.2-.2a.2.2,0,0,1-.2-.2c-.1-.2-.1-.3-.2-.4a.8.8,0,0,1-.1-.7v-.2h.1l.3-.7c-.1-.1-.2-.1-.2-.2a.4.4,0,0,1-.1-.3c0-.2.1-.3.1-.4l-.3-.3-.3-.4H43.6l-.9.4h-.3l-.3-.2a.5.5,0,0,1-.3-.3c.1-.2.2-.3.4-.3h0c.3,0,.5-.1,1.1-.6a.8.8,0,0,1-.2-.5v-.2h1.5a.9.9,0,0,1,.5.3h0a.1.1,0,0,1,.1-.1h.1c0-.1,0-.2.1-.2h.3l.5.3h.5a.3.3,0,0,1,.1-.2h.5l.2-.2h.2c.1-.1.2-.1.2,0l.5.2v.2H49c.1.1.2.2.2.3a3,3,0,0,0,.9,1.4h.1c0,.1.1.2.1.3s0,.3-.1.4h0c.1,0,.1.1.1.2a.4.4,0,0,1,.1.3h-.2c.1,0,.1,0,.1.1a.4.4,0,0,1-.1.3m2,.7h0c0,.5-.3.7-1.3.8h-.3l-.4-.3a.2.2,0,0,1-.2-.2l.2-.3.7-.3a1.7,1.7,0,0,1,1,0,.3.3,0,0,1,.3.3"/></g></g></g></svg>