<svg id="Capa_1" data-name="Capa 1" xmlns="http://www.w3.org/2000/svg" xmlns:xlink="http://www.w3.org/1999/xlink" viewBox="0 0 84 84"><defs><style>.cls-1,.cls-5,.cls-8{fill:none;}.cls-2{clip-path:url(#clip-path);}.cls-3{clip-path:url(#clip-path-2);}.cls-4,.cls-9{fill:#83368c;}.cls-5{stroke:#83368c;}.cls-5,.cls-8{stroke-miterlimit:10;stroke-width:2px;}.cls-6{fill:#fff;}.cls-7,.cls-9{font-size:13.27px;font-family:Helvetica-Bold, Helvetica;font-weight:700;}.cls-7{fill:#747173;}.cls-8{stroke:#747173;}</style><clipPath id="clip-path"><rect class="cls-1" width="83.9" height="83.93"/></clipPath><clipPath id="clip-path-2"><rect class="cls-1" x="-22.5" y="-4.1" width="129" height="111.62"/></clipPath></defs><title>icon-cultura-6-insignias</title><g class="cls-2"><g class="cls-3"><g class="cls-3"><path class="cls-4" d="M82.3,42.2c0,1.6-2.1,3.1-2.3,4.6s1.5,3.5,1.2,5.1-2.8,2.4-3.4,3.9.7,3.8-.1,5.2-3.3,1.7-4.2,3-.3,3.8-1.3,5-3.6.8-4.8,1.9-1.2,3.6-2.5,4.5-3.7,0-5.1.7-2,3.3-3.5,3.8-3.6-.9-5.1-.5-2.8,2.7-4.3,2.9-3.3-1.8-4.9-1.8-3.3,1.9-4.9,1.8-2.7-2.5-4.3-2.9-3.6,1.1-5.1.5-2.1-3-3.5-3.8-3.8.2-5.1-.7-1.3-3.5-2.5-4.5-3.7-.8-4.8-1.9-.4-3.7-1.3-5S7,62.4,6.3,61s.4-3.7-.1-5.2-3-2.4-3.4-3.9S4.2,48.4,4,46.8s-2.3-3-2.3-4.6S3.8,39.1,4,37.6s-1.5-3.5-1.2-5,2.8-2.5,3.4-4-.7-3.7.1-5.1,3.3-1.8,4.2-3.1.3-3.8,1.3-4.9,3.6-.9,4.8-2S17.8,9.9,19.1,9s3.7,0,5.1-.7,2-3.2,3.5-3.8,3.6.9,5.1.5,2.8-2.6,4.3-2.8S40.4,3.9,42,3.9,45.3,2,46.9,2.2,49.6,4.6,51.2,5s3.6-1.1,5.1-.5,2.1,3,3.5,3.8,3.8-.2,5.1.7,1.3,3.5,2.5,4.5,3.7.8,4.8,2,.4,3.6,1.3,4.9,3.5,1.7,4.2,3.1-.4,3.6.1,5.1,3,2.4,3.4,4-1.4,3.4-1.2,5,2.3,3,2.3,4.6"/><path class="cls-5" d="M82.3,42.2c0,1.6-2.1,3.1-2.3,4.6s1.5,3.5,1.2,5.1-2.8,2.4-3.4,3.9.7,3.8-.1,5.2-3.3,1.7-4.2,3-.3,3.8-1.3,5-3.6.8-4.8,1.9-1.2,3.6-2.5,4.5-3.7,0-5.1.7-2,3.3-3.5,3.8-3.6-.9-5.1-.5-2.8,2.7-4.3,2.9-3.3-1.8-4.9-1.8-3.3,1.9-4.9,1.8-2.7-2.5-4.3-2.9-3.6,1.1-5.1.5-2.1-3-3.5-3.8-3.8.2-5.1-.7-1.3-3.5-2.5-4.5-3.7-.8-4.8-1.9-.4-3.7-1.3-5S7,62.4,6.3,61s.4-3.7-.1-5.2-3-2.4-3.4-3.9S4.2,48.4,4,46.8s-2.3-3-2.3-4.6S3.8,39.1,4,37.6s-1.5-3.5-1.2-5,2.8-2.5,3.4-4-.7-3.7.1-5.1,3.3-1.8,4.2-3.1.3-3.8,1.3-4.9,3.6-.9,4.8-2S17.8,9.9,19.1,9s3.7,0,5.1-.7,2-3.2,3.5-3.8,3.6.9,5.1.5,2.8-2.6,4.3-2.8S40.4,3.9,42,3.9,45.3,2,46.9,2.2,49.6,4.6,51.2,5s3.6-1.1,5.1-.5,2.1,3,3.5,3.8,3.8-.2,5.1.7,1.3,3.5,2.5,4.5,3.7.8,4.8,2,.4,3.6,1.3,4.9,3.5,1.7,4.2,3.1-.4,3.6.1,5.1,3,2.4,3.4,4-1.4,3.4-1.2,5S82.3,40.6,82.3,42.2Z"/><path class="cls-6" d="M65.4,40H54V38.4h3.1a.7.7,0,1,0,0-1.4H54V35.4h2.1a2.7,2.7,0,0,0,2.1-.9l4.7-4.6,1,.2a2.2,2.2,0,0,0,1.5-.6,2.6,2.6,0,0,0,.7-1.6,2.4,2.4,0,0,0-.7-1.6,2.2,2.2,0,0,0-1.5-.6,2.3,2.3,0,0,0-1.6.6,2.4,2.4,0,0,0-.7,1.6,1.9,1.9,0,0,0,.3,1l-4.7,4.6a1.6,1.6,0,0,1-1.1.5H54V32.4a3.8,3.8,0,0,0-3.7-3.7H48.7V22.5a2.2,2.2,0,1,0-1.4,0v6.2H45.7V25.6a.7.7,0,1,0-1.4,0v3.1H42.7V17.3a.7.7,0,1,0-1.4,0V28.7H39.7V25.6a.7.7,0,1,0-1.4,0v3.1H36.7V26.6a2.7,2.7,0,0,0-.9-2.1l-4.6-4.7a2.3,2.3,0,0,0-.4-2.5,2.2,2.2,0,0,0-3.2,0,2.3,2.3,0,0,0,0,3.1,2.6,2.6,0,0,0,1.6.7,1.9,1.9,0,0,0,1-.3l4.6,4.7a1.6,1.6,0,0,1,.5,1.1v2.1H32.8a.7.7,0,0,0-.5.9.7.7,0,0,0,.8.5H50.3a2.3,2.3,0,0,1,2.3,2.3V49a1.3,1.3,0,0,1-.1.6.7.7,0,0,0,.5.8h.2a.8.8,0,0,0,.7-.5A2.8,2.8,0,0,0,54,49V47.4h6.2a2.2,2.2,0,1,0,0-1.4H54V44.4h3.1a.7.7,0,1,0,0-1.4H54V41.4H65.4a.7.7,0,0,0,0-1.4M63.3,27.3l.6-.2.5.2a.8.8,0,0,1,0,1.2l-.5.2-.6-.2a.8.8,0,0,1,0-1.2M48,19.6a.7.7,0,0,1,.8.8.8.8,0,0,1-.8.8.9.9,0,0,1-.8-.8.8.8,0,0,1,.8-.8m-19.4-.2a.8.8,0,0,1,0-1.1.7.7,0,0,1,1.2,0,.8.8,0,0,1,0,1.1.9.9,0,0,1-1.2,0M62.3,45.9a.8.8,0,0,1,.8.8.7.7,0,0,1-.8.8.8.8,0,0,1-.8-.8.9.9,0,0,1,.8-.8"/><path class="cls-6" d="M53.8,60.6l-4.6-4.7a1.6,1.6,0,0,1-.5-1.1V52.7h2.5a.7.7,0,0,0,.5-.9.7.7,0,0,0-.8-.5H33.7A2.3,2.3,0,0,1,31.4,49V32.4a1.3,1.3,0,0,1,.1-.6A.7.7,0,0,0,31,31a.7.7,0,0,0-.9.5,2.8,2.8,0,0,0-.1.9V34H23.8a2.2,2.2,0,1,0,0,1.4H30V37H26.9a.7.7,0,1,0,0,1.4H30V40H18.6a.7.7,0,0,0,0,1.4H30V43H26.9a.7.7,0,0,0,0,1.4H30V46H27.9a2.7,2.7,0,0,0-2.1.9l-4.7,4.6-1-.2a2.2,2.2,0,0,0-1.5.6,2.6,2.6,0,0,0-.7,1.6,2.4,2.4,0,0,0,.7,1.6,2.2,2.2,0,0,0,1.5.6,2.3,2.3,0,0,0,1.6-.6,2.4,2.4,0,0,0,.7-1.6,1.9,1.9,0,0,0-.3-1l4.7-4.6a1.6,1.6,0,0,1,1.1-.5H30V49a3.8,3.8,0,0,0,3.7,3.7h1.6v6.2a2.2,2.2,0,1,0,1.4,0V52.7h1.6v3.1a.7.7,0,0,0,1.4,0V52.7h1.6V64.1a.7.7,0,0,0,1.4,0V52.7h1.6v3.1a.7.7,0,0,0,1.4,0V52.7h1.6v2.1a2.7,2.7,0,0,0,.9,2.1l4.6,4.7a2.3,2.3,0,0,0,.4,2.5,2.2,2.2,0,0,0,3.2,0,2.3,2.3,0,0,0,0-3.1,2.3,2.3,0,0,0-2.6-.4M21.7,35.5a.8.8,0,0,1-.8-.8.7.7,0,0,1,.8-.8.8.8,0,0,1,.8.8.9.9,0,0,1-.8.8m-1,18.6-.6.2-.5-.2a.7.7,0,0,1,0-1.2l.5-.2.6.2a.8.8,0,0,1,0,1.2M36,61.8a.7.7,0,0,1-.8-.8.8.8,0,0,1,.8-.8.9.9,0,0,1,.8.8.8.8,0,0,1-.8.8m19.4,1.3a.9.9,0,0,1-1.2,0,.8.8,0,0,1,0-1.1.7.7,0,0,1,1.2,0,.8.8,0,0,1,0,1.1"/><path class="cls-6" d="M36.2,46h0a3.1,3.1,0,0,0,3.3,2.9A3.3,3.3,0,0,0,42,47.8a3.3,3.3,0,0,0,2.5,1.1,3.1,3.1,0,0,0,3.3-2.7,3.6,3.6,0,0,0,1.7-2.9,3.2,3.2,0,0,0-1-2.2,3.3,3.3,0,0,0,1-2.3,3.4,3.4,0,0,0-2.6-3.2V35a2.6,2.6,0,0,0-2.8-2.5,3,3,0,0,0-2.1.8,3,3,0,0,0-2.1-.8A2.6,2.6,0,0,0,37.1,35v.6a3.4,3.4,0,0,0-2.6,3.2,3,3,0,0,0,.8,2,3.5,3.5,0,0,0-.8,2.2,3.8,3.8,0,0,0,1.7,3m2-9.1h0l.4-.2a.7.7,0,0,0,.2-.9h-.1a1,1,0,0,1-.2-.7,1.4,1.4,0,0,1,2.8,0,.7.7,0,1,0,1.4,0,1.4,1.4,0,0,1,2.8,0,.7.7,0,0,1-.1.5,2,2,0,0,0-1.1.3.6.6,0,0,0-.4.9.7.7,0,0,0,.9.4l1-.2h0a2.1,2.1,0,0,1,2.3,1.9A2,2,0,0,1,47,40.5a.7.7,0,0,0-.4.6.8.8,0,0,0,.4.6,1.9,1.9,0,0,1,1.1,1.6,2.5,2.5,0,0,1-.6,1.4,3.2,3.2,0,0,0-1.9-1.5.8.8,0,0,0-.9.4.7.7,0,0,0,.5.9A1.6,1.6,0,0,1,46.4,46a1.7,1.7,0,0,1-1.9,1.5A1.7,1.7,0,0,1,42.7,46V41.5a1.7,1.7,0,0,1,1.8-1.6.7.7,0,0,0,0-1.4,3.7,3.7,0,0,0-1.8.5v-.9a.7.7,0,1,0-1.4,0V42l-.8-.3a.7.7,0,0,0-.9.4.7.7,0,0,0,.5.9,1.6,1.6,0,0,1,1.2,1.5V46a1.7,1.7,0,0,1-1.8,1.5A1.7,1.7,0,0,1,37.6,46a1.2,1.2,0,0,1,.5-1,.9.9,0,0,0,0-1,.7.7,0,0,0-1,0,1.2,1.2,0,0,0-.5.5,2.3,2.3,0,0,1-.7-1.5,2.4,2.4,0,0,1,2-2.3.6.6,0,0,0,.5-.8c0-.4-.4-.6-.8-.5a2.9,2.9,0,0,0-1.3.5,2.1,2.1,0,0,1-.4-1.1,2.1,2.1,0,0,1,2.3-1.9"/></g><text class="cls-7" transform="translate(7.3 94.5)">Posible</text><g class="cls-3"><path class="cls-8" d="M15.6,87.9a2.5,2.5,0,0,0-.9-2.2,3.1,3.1,0,0,0-2.2-.8H8.4v9.6h2V91h2a3.2,3.2,0,0,0,2.3-.7A2.7,2.7,0,0,0,15.6,87.9Zm-2,.1a1.1,1.1,0,0,1-.4,1,1.2,1.2,0,0,1-1,.4H10.4V86.6h1.8a1.5,1.5,0,0,1,1,.3A1.2,1.2,0,0,1,13.6,88Z"/><path class="cls-8" d="M32.6,94.5h1.8V87.4H32.6Zm1.8-9.6H32.6v1.7h1.8Z"/><path class="cls-8" d="M39.6,93.1a1.2,1.2,0,0,1-1.2-.6,2.5,2.5,0,0,1-.5-1.5,3.7,3.7,0,0,1,.2-1.2,1.5,1.5,0,0,1,1.4-.9,1.3,1.3,0,0,1,1.4.9,3.7,3.7,0,0,1,.2,1.2,2.5,2.5,0,0,1-.4,1.6A1.4,1.4,0,0,1,39.6,93.1Zm.5-5.8a2.3,2.3,0,0,0-1.3.3,1.8,1.8,0,0,0-.8.7V84.9H36.1v9.6H38v-.9a1.6,1.6,0,0,0,.7.7,2.6,2.6,0,0,0,1.4.4,2.8,2.8,0,0,0,2.2-1.1,4.9,4.9,0,0,0,.7-2.8,3.4,3.4,0,0,0-.8-2.5A2.4,2.4,0,0,0,40.1,87.3Z"/><rect class="cls-8" x="44.4" y="84.9" width="1.8" height="9.55"/></g><text class="cls-9" transform="translate(54.5 94.5)"><tspan xml:space="preserve">  </tspan></text></g></g></svg>