<svg id="Capa_1" data-name="Capa 1" xmlns="http://www.w3.org/2000/svg" xmlns:xlink="http://www.w3.org/1999/xlink" viewBox="0 0 84 84"><defs><style>.cls-1,.cls-6{fill:none;}.cls-2{fill:#fdc200;}.cls-3{clip-path:url(#clip-path);}.cls-4{clip-path:url(#clip-path-2);}.cls-5{fill:url(#Unnamed_Pattern);}.cls-6{stroke-miterlimit:10;stroke-width:2px;stroke:url(#Unnamed_Pattern_2);}.cls-7{fill:#fff;}.cls-8{fill:#f7f8f8;}</style><clipPath id="clip-path"><rect class="cls-1" width="83.9" height="83.93"/></clipPath><clipPath id="clip-path-2"><rect class="cls-1" x="-22.5" y="-3" width="129" height="111.62"/></clipPath><pattern id="Unnamed_Pattern" data-name="Unnamed Pattern" width="129" height="128.99" patternTransform="matrix(0.15, 0, 0, -0.15, 9857.97, 10482.01)" patternUnits="userSpaceOnUse" viewBox="0 0 129 129"><rect class="cls-1" width="129" height="128.99"/><rect class="cls-2" width="129" height="128.99"/></pattern><pattern id="Unnamed_Pattern_2" data-name="Unnamed Pattern 2" width="129" height="128.99" patternTransform="matrix(0.15, 0, 0, -0.15, 9851.41, 10498.48)" patternUnits="userSpaceOnUse" viewBox="0 0 129 129"><rect class="cls-1" width="129" height="128.99"/><rect class="cls-2" width="129" height="128.99"/></pattern></defs><title>icon-cultura-6-insignias</title><g class="cls-3"><g class="cls-4"><g class="cls-4"><path class="cls-5" d="M82.3,43c0,1.7-2.1,3.1-2.3,4.7s1.5,3.5,1.1,5-2.8,2.4-3.3,3.9.6,3.8-.1,5.2-3.3,1.7-4.2,3-.3,3.8-1.4,5-3.6.8-4.7,1.9-1.2,3.6-2.5,4.5-3.7,0-5.1.7-2,3.3-3.5,3.8-3.6-.9-5.1-.5-2.8,2.6-4.3,2.8-3.3-1.7-4.9-1.7-3.3,1.9-4.9,1.7-2.7-2.4-4.3-2.8-3.6,1.1-5.1.5-2.1-3-3.5-3.8-3.8.2-5.1-.7-1.3-3.5-2.5-4.5-3.7-.8-4.7-1.9-.5-3.7-1.4-5-3.4-1.6-4.2-3,.5-3.7-.1-5.2-2.9-2.4-3.3-3.9,1.3-3.5,1.1-5-2.3-3-2.3-4.7S3.8,40,4,38.4s-1.5-3.5-1.1-5S5.7,31,6.2,29.5s-.6-3.8.1-5.2,3.3-1.7,4.2-3,.3-3.8,1.4-5,3.6-.8,4.7-1.9,1.2-3.6,2.5-4.5,3.7,0,5.1-.7,2-3.3,3.5-3.8,3.6.9,5.1.5,2.8-2.6,4.3-2.8S40.4,4.8,42,4.8s3.3-1.9,4.9-1.7,2.7,2.4,4.3,2.8,3.6-1.1,5.1-.5,2.1,3,3.5,3.8,3.8-.2,5.1.7,1.3,3.5,2.5,4.5,3.7.8,4.7,1.9.5,3.7,1.4,5,3.4,1.6,4.2,3-.5,3.7.1,5.2,2.9,2.4,3.3,3.9-1.3,3.5-1.1,5,2.3,3,2.3,4.6"/><path class="cls-6" d="M82.3,43c0,1.7-2.1,3.1-2.3,4.7s1.5,3.5,1.1,5-2.8,2.4-3.3,3.9.6,3.8-.1,5.2-3.3,1.7-4.2,3-.3,3.8-1.4,5-3.6.8-4.7,1.9-1.2,3.6-2.5,4.5-3.7,0-5.1.7-2,3.3-3.5,3.8-3.6-.9-5.1-.5-2.8,2.6-4.3,2.8-3.3-1.7-4.9-1.7-3.3,1.9-4.9,1.7-2.7-2.4-4.3-2.8-3.6,1.1-5.1.5-2.1-3-3.5-3.8-3.8.2-5.1-.7-1.3-3.5-2.5-4.5-3.7-.8-4.7-1.9-.5-3.7-1.4-5-3.4-1.6-4.2-3,.5-3.7-.1-5.2-2.9-2.4-3.3-3.9,1.3-3.5,1.1-5-2.3-3-2.3-4.7S3.8,40,4,38.4s-1.5-3.5-1.1-5S5.7,31,6.2,29.5s-.6-3.8.1-5.2,3.3-1.7,4.2-3,.3-3.8,1.4-5,3.6-.8,4.7-1.9,1.2-3.6,2.5-4.5,3.7,0,5.1-.7,2-3.3,3.5-3.8,3.6.9,5.1.5,2.8-2.6,4.3-2.8S40.4,4.8,42,4.8s3.3-1.9,4.9-1.7,2.7,2.4,4.3,2.8,3.6-1.1,5.1-.5,2.1,3,3.5,3.8,3.8-.2,5.1.7,1.3,3.5,2.5,4.5,3.7.8,4.7,1.9.5,3.7,1.4,5,3.4,1.6,4.2,3-.5,3.7.1,5.2,2.9,2.4,3.3,3.9-1.3,3.5-1.1,5S82.3,41.4,82.3,43Z"/></g><g class="cls-4"><path class="cls-7" d="M61.6,35.6l-2.8-3.8.6-4.7a1.3,1.3,0,0,0-.8-1.2L54.3,24l-1.8-4.3a1.6,1.6,0,0,0-1.3-.8l-4.7.7-3.8-2.9a1,1,0,0,0-1.4,0l-3.8,2.9-4.7-.7a1.6,1.6,0,0,0-1.3.8L29.7,24l-4.3,1.9a1.3,1.3,0,0,0-.8,1.2l.6,4.7-2.8,3.8a1,1,0,0,0,0,1.4l2.8,3.8-.6,4.7a1.6,1.6,0,0,0,.8,1.3l4.3,1.8,1.8,4.3a1.6,1.6,0,0,0,1,.8V69.6a1.1,1.1,0,0,0,.6,1,1.1,1.1,0,0,0,1.2,0L42,65.7l7.7,4.9.6.2.6-.2a1.1,1.1,0,0,0,.6-1V53.7a1.6,1.6,0,0,0,1-.8l1.8-4.3,4.3-1.8a1.6,1.6,0,0,0,.8-1.3l-.6-4.7L61.6,37a1,1,0,0,0,0-1.4m-19,27.7a.9.9,0,0,0-1.2,0l-6.5,4.1v-14l2.6-.3,3.8,2.8a1,1,0,0,0,1.4,0l3.8-2.8,2.6.3v14Zm14-23.6a1.6,1.6,0,0,0-.3.9l.6,4.3-4,1.6a2.3,2.3,0,0,0-.7.7l-1.6,4-4.3-.6a1.6,1.6,0,0,0-.9.3L42,53.5l-3.4-2.6a1.1,1.1,0,0,0-.8-.3h-.1l-4.3.6-1.6-4a2.3,2.3,0,0,0-.7-.7l-4-1.6.6-4.3a2.9,2.9,0,0,0-.2-.9l-2.7-3.4,2.7-3.4a2.9,2.9,0,0,0,.2-.9l-.6-4.3,4-1.6a2.3,2.3,0,0,0,.7-.7l1.6-4,4.3.6.9-.2L42,19.1l3.4,2.7.9.2,4.3-.6,1.6,4a2.3,2.3,0,0,0,.7.7l4,1.6L56.3,32a1.6,1.6,0,0,0,.3.9l2.6,3.4Z"/><path class="cls-1" d="M61.6,35.6l-2.8-3.8.6-4.7a1.3,1.3,0,0,0-.8-1.2L54.3,24l-1.8-4.3a1.6,1.6,0,0,0-1.3-.8l-4.7.7-3.8-2.9a1,1,0,0,0-1.4,0l-3.8,2.9-4.7-.7a1.6,1.6,0,0,0-1.3.8L29.7,24l-4.3,1.9a1.3,1.3,0,0,0-.8,1.2l.6,4.7-2.8,3.8a1,1,0,0,0,0,1.4l2.8,3.8-.6,4.7a1.6,1.6,0,0,0,.8,1.3l4.3,1.8,1.8,4.3a1.6,1.6,0,0,0,1,.8V69.6a1.1,1.1,0,0,0,.6,1,1.1,1.1,0,0,0,1.2,0L42,65.7l7.7,4.9.6.2.6-.2a1.1,1.1,0,0,0,.6-1V53.7a1.6,1.6,0,0,0,1-.8l1.8-4.3,4.3-1.8a1.6,1.6,0,0,0,.8-1.3l-.6-4.7L61.6,37A1,1,0,0,0,61.6,35.6Zm-19,27.7a.9.9,0,0,0-1.2,0l-6.5,4.1v-14l2.6-.3,3.8,2.8a1,1,0,0,0,1.4,0l3.8-2.8,2.6.3v14ZM56.3,40.6l.6,4.3-4,1.6a2.3,2.3,0,0,0-.7.7l-1.6,4-4.3-.6a1.6,1.6,0,0,0-.9.3L42,53.5l-3.4-2.6a1.1,1.1,0,0,0-.8-.3h-.1l-4.3.6-1.6-4a2.3,2.3,0,0,0-.7-.7l-4-1.6.6-4.3a2.9,2.9,0,0,0-.2-.9l-2.7-3.4,2.7-3.4a2.9,2.9,0,0,0,.2-.9l-.6-4.3,4-1.6a2.3,2.3,0,0,0,.7-.7l1.6-4,4.3.6.9-.2L42,19.1l3.4,2.7.9.2,4.3-.6,1.6,4a2.3,2.3,0,0,0,.7.7l4,1.6L56.3,32a1.6,1.6,0,0,0,.3.9l2.6,3.4"/><path class="cls-8" d="M34.7,28.6a1.1,1.1,0,0,0,.7-.3A10.6,10.6,0,0,1,42,26a1.2,1.2,0,0,0,1.2-1.2A1.2,1.2,0,0,0,42,23.6a13.3,13.3,0,0,0-8.1,2.8,1.2,1.2,0,0,0-.1,1.7,1.1,1.1,0,0,0,.9.5"/><path class="cls-1" d="M34.7,28.6a1.1,1.1,0,0,0,.7-.3A10.6,10.6,0,0,1,42,26a1.2,1.2,0,0,0,1.2-1.2A1.2,1.2,0,0,0,42,23.6a13.3,13.3,0,0,0-8.1,2.8,1.2,1.2,0,0,0-.1,1.7A1.1,1.1,0,0,0,34.7,28.6Z"/><path class="cls-7" d="M46.3,24.3a1.4,1.4,0,0,0-1.6.7,1.2,1.2,0,0,0,.8,1.5,10.4,10.4,0,1,1-12.2,4.1A1.1,1.1,0,0,0,33,29a1.3,1.3,0,0,0-1.7.3,13.2,13.2,0,0,0-2,7,12.7,12.7,0,1,0,17-12"/><path class="cls-1" d="M46.3,24.3a1.4,1.4,0,0,0-1.6.7,1.2,1.2,0,0,0,.8,1.5,10.4,10.4,0,1,1-12.2,4.1A1.1,1.1,0,0,0,33,29a1.3,1.3,0,0,0-1.7.3,13.2,13.2,0,0,0-2,7,12.7,12.7,0,1,0,17-12Z"/></g></g></g></svg>