<svg id="Capa_1" data-name="Capa 1" xmlns="http://www.w3.org/2000/svg" xmlns:xlink="http://www.w3.org/1999/xlink" viewBox="0 0 84 84"><defs><style>.cls-1,.cls-5,.cls-8{fill:none;}.cls-2{clip-path:url(#clip-path);}.cls-3{clip-path:url(#clip-path-2);}.cls-4,.cls-9{fill:#e5007e;}.cls-5{stroke:#e5007e;}.cls-5,.cls-8{stroke-miterlimit:10;stroke-width:2px;}.cls-6{fill:#fff;}.cls-7,.cls-9{font-size:13.24px;font-family:Helvetica-Bold, Helvetica;font-weight:700;}.cls-7{fill:#747173;}.cls-8{stroke:#747173;}</style><clipPath id="clip-path"><rect class="cls-1" width="83.9" height="83.93"/></clipPath><clipPath id="clip-path-2"><rect class="cls-1" x="-22.3" y="-2.8" width="128.7" height="111.33"/></clipPath></defs><title>icon-cultura-6-insignias</title><g class="cls-2"><g class="cls-3"><g class="cls-3"><path class="cls-4" d="M81.9,42.9c0,1.6-2.1,3-2.3,4.6s1.5,3.5,1.2,5-2.8,2.4-3.4,3.8.7,3.8-.1,5.2-3.2,1.6-4.1,2.9-.3,3.8-1.3,5-3.6.8-4.8,1.9-1.1,3.6-2.4,4.4-3.7,0-5.1.8-2,3.2-3.4,3.7-3.6-.9-5.1-.5-2.7,2.6-4.3,2.8-3.2-1.7-4.8-1.7-3.3,1.9-4.8,1.7-2.8-2.4-4.3-2.8-3.6,1.1-5.1.5-2-3-3.4-3.7-3.8.1-5.1-.8-1.3-3.4-2.4-4.4-3.7-.8-4.8-1.9-.4-3.7-1.3-5-3.4-1.6-4.1-2.9.4-3.7-.1-5.2-3-2.3-3.4-3.8,1.4-3.5,1.2-5-2.3-3-2.3-4.6,2.1-3,2.3-4.6-1.5-3.4-1.2-4.9S6,30.9,6.6,29.5s-.7-3.8.1-5.1,3.2-1.7,4.1-3,.3-3.8,1.3-5,3.6-.8,4.8-1.9S18,11,19.3,10.1s3.7,0,5.1-.7,2-3.3,3.4-3.8,3.6.9,5.1.5,2.7-2.6,4.3-2.8S40.4,5,42,5s3.3-1.9,4.8-1.7,2.8,2.4,4.3,2.8,3.6-1.1,5.1-.5,2,3,3.4,3.8,3.8-.2,5.1.7,1.3,3.4,2.4,4.4,3.7.8,4.8,1.9.4,3.7,1.3,5,3.4,1.6,4.1,3-.4,3.6.1,5.1,3,2.3,3.4,3.9-1.4,3.4-1.2,4.9,2.3,3,2.3,4.6"/><path class="cls-5" d="M81.9,42.9c0,1.6-2.1,3-2.3,4.6s1.5,3.5,1.2,5-2.8,2.4-3.4,3.8.7,3.8-.1,5.2-3.2,1.6-4.1,2.9-.3,3.8-1.3,5-3.6.8-4.8,1.9-1.1,3.6-2.4,4.4-3.7,0-5.1.8-2,3.2-3.4,3.7-3.6-.9-5.1-.5-2.7,2.6-4.3,2.8-3.2-1.7-4.8-1.7-3.3,1.9-4.8,1.7-2.8-2.4-4.3-2.8-3.6,1.1-5.1.5-2-3-3.4-3.7-3.8.1-5.1-.8-1.3-3.4-2.4-4.4-3.7-.8-4.8-1.9-.4-3.7-1.3-5-3.4-1.6-4.1-2.9.4-3.7-.1-5.2-3-2.3-3.4-3.8,1.4-3.5,1.2-5-2.3-3-2.3-4.6,2.1-3,2.3-4.6-1.5-3.4-1.2-4.9S6,30.9,6.6,29.5s-.7-3.8.1-5.1,3.2-1.7,4.1-3,.3-3.8,1.3-5,3.6-.8,4.8-1.9S18,11,19.3,10.1s3.7,0,5.1-.7,2-3.3,3.4-3.8,3.6.9,5.1.5,2.7-2.6,4.3-2.8S40.4,5,42,5s3.3-1.9,4.8-1.7,2.8,2.4,4.3,2.8,3.6-1.1,5.1-.5,2,3,3.4,3.8,3.8-.2,5.1.7,1.3,3.4,2.4,4.4,3.7.8,4.8,1.9.4,3.7,1.3,5,3.4,1.6,4.1,3-.4,3.6.1,5.1,3,2.3,3.4,3.9-1.4,3.4-1.2,4.9S81.9,41.3,81.9,42.9Z"/><path class="cls-6" d="M37.6,60.4v0c-.4-.1-.7.2-.8.6a.7.7,0,0,0,.5.8h.2a.7.7,0,0,0,.7-.6c.1-.3-.2-.7-.6-.8"/><path class="cls-6" d="M43.1,60.6v0c-.4.1-.7.4-.6.8a.7.7,0,0,0,.7.7h.1c.4-.1.7-.4.6-.8a.8.8,0,0,0-.8-.7"/><path class="cls-6" d="M40.4,60.7h0a.8.8,0,0,0-.8.7.8.8,0,0,0,.7.8h0a.8.8,0,0,0,.8-.7.8.8,0,0,0-.7-.8"/><path class="cls-6" d="M35,59.7h0a.7.7,0,0,0-.5,1.3h.2a.8.8,0,0,0,.7-.5c.1-.4,0-.8-.4-.9"/><path class="cls-6" d="M45.8,60.1l.2.7-.2-.7a.7.7,0,0,0-.5.9.8.8,0,0,0,.7.5h.2a.7.7,0,0,0,.5-.9.8.8,0,0,0-.9-.5"/><path class="cls-6" d="M48.4,59.2l.3.7-.3-.7a.8.8,0,0,0-.3,1,.7.7,0,0,0,.6.4H49c.4-.1.5-.5.4-.9a.8.8,0,0,0-1-.4"/><path class="cls-6" d="M32.2,26.5h.4a.8.8,0,0,0,.3-1,.9.9,0,0,0-1-.3h0a.7.7,0,0,0-.3,1,.6.6,0,0,0,.6.4"/><path class="cls-6" d="M23.9,34.5h.4a.6.6,0,0,0,.6-.4h0a.8.8,0,0,0-.3-1,.9.9,0,0,0-1,.3.8.8,0,0,0,.3,1"/><path class="cls-6" d="M22.9,37.2h.2a.8.8,0,0,0,.7-.5h0c.2-.3-.1-.7-.4-.9a.7.7,0,0,0-.9.5.6.6,0,0,0,.4.9"/><path class="cls-6" d="M25.3,32h.5a.5.5,0,0,0,.5-.3h.1a.8.8,0,0,0-.2-1,.8.8,0,0,0-1,.2l.6.4-.6-.4a.8.8,0,0,0,.1,1"/><path class="cls-6" d="M29.8,28h.4a.7.7,0,0,0,.2-1,.8.8,0,0,0-1-.2h0c-.4.2-.4.6-.2,1l.6.2"/><path class="cls-6" d="M22.3,48.1a.8.8,0,0,0,.7.5h.2a.7.7,0,0,0,.5-.9.8.8,0,0,0-.9-.5.7.7,0,0,0-.5.9h0"/><path class="cls-6" d="M27.6,29.9c.2,0,.4,0,.5-.2a.7.7,0,0,0-1-1h0a.7.7,0,0,0,0,1,.6.6,0,0,0,.5.2"/><path class="cls-6" d="M23.1,45c-.1-.4-.4-.7-.8-.6a.8.8,0,0,0-.7.8h.1a.7.7,0,0,0,.7.6h.1a.8.8,0,0,0,.6-.8"/><path class="cls-6" d="M22.2,42.9h0a.7.7,0,0,0,.7-.7h0a.7.7,0,1,0-.7.7"/><path class="cls-6" d="M22.3,40h.2a.9.9,0,0,0,.7-.6h0a.8.8,0,0,0-.6-.8.9.9,0,0,0-.9.6c0,.4.2.8.6.8"/><path class="cls-6" d="M56.2,32.2a.7.7,0,0,0,.6.3h.4a.8.8,0,0,0,.2-1l-.6.4.6-.4a.7.7,0,0,0-1.2.8Z"/><path class="cls-6" d="M59.9,39.5a.8.8,0,0,0-.7.8h0a.9.9,0,0,0,.7.6H60a.8.8,0,0,0,.7-.8c-.1-.4-.4-.7-.8-.6"/><path class="cls-6" d="M58.7,37.4h0a.6.6,0,0,0,.6.6h.2A.7.7,0,0,0,60,37h0a.7.7,0,0,0-.9-.5c-.3.2-.6.5-.4.9"/><path class="cls-6" d="M57.6,34.7a.8.8,0,0,0,.7.4h.3a.7.7,0,0,0,.3-1l-.6.3.6-.3a.7.7,0,0,0-.9-.3.7.7,0,0,0-.4.9Z"/><path class="cls-6" d="M54.4,30l.5.2.5-.2a.7.7,0,1,0-1,0Z"/><path class="cls-6" d="M60.1,42.5a.6.6,0,0,0-.7.6.6.6,0,0,0,.6.8h.1a.7.7,0,0,0,.7-.7h0a.7.7,0,0,0-.7-.7"/><path class="cls-6" d="M49.8,26.5h.3a.8.8,0,0,0,.7-.4.8.8,0,0,0-.3-1l-.4.6.4-.6a.7.7,0,0,0-1,.3.8.8,0,0,0,.3,1"/><path class="cls-6" d="M52.2,28h0l.5.2a.5.5,0,0,0,.5-.3.7.7,0,0,0-.1-1h0a.7.7,0,0,0-.9,1.1"/><path class="cls-6" d="M66.1,53.3l-3.4-3.4a1.7,1.7,0,0,0-2.2,0h0l-.3-.2-.6-.9v-.2a2.9,2.9,0,0,1-.2-.9v-1h.3a.7.7,0,0,0,.7-.6c.1-.4-.1-.8-.5-.8a.4.4,0,0,0-.5,0,4.2,4.2,0,0,0-1.2-2.7l-3.3-3.3a3.9,3.9,0,0,0-2.7-1.1,4.1,4.1,0,0,0-2.2.7l-.4-.3V30.5a3.7,3.7,0,0,0-1-2.6,3.7,3.7,0,0,1-.7-2v-.6H48a1.5,1.5,0,0,0,1.5-1.5V19A1.5,1.5,0,0,0,48,17.5H34.5A1.5,1.5,0,0,0,33,19v4.8a1.5,1.5,0,0,0,1.5,1.5h.1v.4a3,3,0,0,1-.8,2l-1.4,1.5A3.6,3.6,0,0,0,31.2,32v4.7a3.3,3.3,0,0,0,.4,1.7,4.1,4.1,0,0,0-2.5,1.1l-3.3,3.3a4,4,0,0,0-1.2,2.9v2.1a3,3,0,0,1-.8,2l-.3.2h0a2.1,2.1,0,0,0-1.1-.4,2.1,2.1,0,0,0-1.1.4l-3.4,3.4a1.6,1.6,0,0,0,0,2.2l1.2,1.1a.7.7,0,0,0,1-1L19,54.5c-.1-.1-.1-.1,0-.2L22.3,51c.1-.1.1-.1.1,0l.6.6h0l8,8,.9.9c.1,0,.1,0,0,.1L28.5,64h-.1l-6.3-6.4a.9.9,0,0,0-1,0,.8.8,0,0,0,0,1.1L27.4,65a1.7,1.7,0,0,0,2.2,0l3.3-3.4a1.6,1.6,0,0,0,0-2.2h0l.4-.4a3.4,3.4,0,0,1,1.9-.9A3.6,3.6,0,0,0,37.8,57l3.1-3.1A2.7,2.7,0,0,0,42.7,52l1,.2a2.5,2.5,0,0,0,2.5-2.4V48.1l1,.2a2.5,2.5,0,0,0,2.4-2.5v-5L51.8,43a.6.6,0,0,0,.5.2.7.7,0,0,0,.6-.2.9.9,0,0,0,0-1L51,40.1a5.3,5.3,0,0,1,1.2-.3,2.3,2.3,0,0,1,1.7.8l3.3,3.2a2.7,2.7,0,0,1,.8,1.9v2.1a4.2,4.2,0,0,0,1.2,3l.3.2-1.1,1.1-6.3,6.3-.3-.4h-.1a4.3,4.3,0,0,0-2.8-1.3,2.5,2.5,0,0,1-1.7-.8l-2.3-2.3a.8.8,0,0,0-1.1,0,.9.9,0,0,0,0,1L46.2,57a3.6,3.6,0,0,0,2.6,1.1,3.4,3.4,0,0,1,1.9.9h0a.1.1,0,0,0,.1.1l.3.3h0a1.6,1.6,0,0,0,0,2.2L54.4,65a1.7,1.7,0,0,0,2.2,0l9.5-9.5a1.6,1.6,0,0,0,0-2.2m-6.2-7.1ZM36.8,55.9a2.5,2.5,0,0,1-1.7.8A4.3,4.3,0,0,0,32.3,58l-.4.4-.4-.4h0l-7-7,.3-.2a4.2,4.2,0,0,0,1.2-3V45.7a2.7,2.7,0,0,1,.8-1.9l3.3-3.2a2.3,2.3,0,0,1,1.7-.8,5.3,5.3,0,0,1,1.2.3L31.1,42a.9.9,0,0,0,0,1,.7.7,0,0,0,.6.2.6.6,0,0,0,.5-.2l2.2-2.2v9a2.4,2.4,0,0,0,2.4,2.4l1.1-.2a2.2,2.2,0,0,0,1.2,1.6ZM48.2,45.8a1,1,0,0,1-1,1,.9.9,0,0,1-1-1v-8a.8.8,0,0,0-.7-.7.8.8,0,0,0-.8.7v12a1,1,0,0,1-1,1,1.1,1.1,0,0,1-1-.9V37.8a.7.7,0,0,0-.7-.7h-.3a.5.5,0,0,0-.4.6V51.5a1.1,1.1,0,0,1-1,1,1,1,0,0,1-1-1V37.8a.8.8,0,0,0-.8-.7.7.7,0,0,0-.7.7v12a1,1,0,0,1-1,1,1.1,1.1,0,0,1-1-1V36.4a.7.7,0,0,0-1.4,0v2.5c-.1,0-.2,0-.2.1a2.6,2.6,0,0,1-1.6-2.3V32a2.5,2.5,0,0,1,.8-1.8l1.4-1.5a4.3,4.3,0,0,0,1.3-3v-.4h1.4a.7.7,0,0,0,0-1.4h-3V19H48v4.8H40.9a.7.7,0,1,0,0,1.4h5.6v.6a4.3,4.3,0,0,0,1,2.9,2.3,2.3,0,0,1,.7,1.7ZM65,54.5,55.6,64h-.1l-3.4-3.4c-.1-.1-.1-.1,0-.1l.5-.6h0l5.5-5.5L61.6,51c0-.1,0-.1.1,0L65,54.3c.1.1.1.1,0,.2"/><path class="cls-6" d="M36.8,20.7a.8.8,0,0,0-.8.7.8.8,0,1,0,1.6,0,.8.8,0,0,0-.8-.7"/><path class="cls-6" d="M61.9,53.4a.7.7,0,0,0-.8.8.7.7,0,0,0,.8.7.7.7,0,0,0,.7-.7.7.7,0,0,0-.7-.8"/><path class="cls-6" d="M29.5,60.7a.8.8,0,0,0-1.6,0,.8.8,0,1,0,1.6,0"/></g><text class="cls-7" transform="translate(15.5 93.6)">Somos</text><g class="cls-3"><path class="cls-8" d="M16.1,90.6A2.8,2.8,0,0,0,17.2,93a5,5,0,0,0,2.9.8,4.2,4.2,0,0,0,2.9-.9,2.7,2.7,0,0,0,1-2.1,2.4,2.4,0,0,0-.9-2,4,4,0,0,0-1.6-.7l-1.7-.4-1.3-.3a.9.9,0,0,1-.4-.8.9.9,0,0,1,.5-.9,2.1,2.1,0,0,1,1.2-.3,2.1,2.1,0,0,1,1.2.3,1.4,1.4,0,0,1,.8,1.2h1.9a3,3,0,0,0-1.1-2.3,4,4,0,0,0-2.6-.8,3.8,3.8,0,0,0-2.8.8,3,3,0,0,0-1,2.1,2.4,2.4,0,0,0,1,2.1,5.6,5.6,0,0,0,2.1.7l1,.3a2.8,2.8,0,0,1,1.3.4c.3.2.5.4.5.7s-.3.9-.9,1.1l-1.2.2a2.2,2.2,0,0,1-1.7-.6,2,2,0,0,1-.3-1Z"/></g><text class="cls-9" transform="translate(59.7 93.6)"><tspan xml:space="preserve">  </tspan></text></g></g></svg>