<svg id="Capa_1" data-name="Capa 1" xmlns="http://www.w3.org/2000/svg" xmlns:xlink="http://www.w3.org/1999/xlink" viewBox="0 0 84 84"><defs><style>.cls-1,.cls-5{fill:none;}.cls-2{clip-path:url(#clip-path);}.cls-3{clip-path:url(#clip-path-2);}.cls-4,.cls-7{fill:#6e59a2;}.cls-5{stroke:#6e59a2;stroke-miterlimit:10;}.cls-6{fill:#fff;}.cls-7{font-size:13.37px;font-family:Helvetica-Bold, Helvetica;font-weight:700;}</style><clipPath id="clip-path"><rect class="cls-1" width="83.9" height="83.93"/></clipPath><clipPath id="clip-path-2"><rect class="cls-1" x="-22.5" y="-4.4" width="129" height="111.62"/></clipPath></defs><title>icon-cultura-6-insignias</title><g class="cls-2"><g class="cls-3"><g class="cls-3"><path class="cls-4" d="M82.2,42c0,1.6-2.2,3-2.3,4.6s1.5,3.5,1.1,5-2.8,2.4-3.3,3.9.6,3.8-.1,5.1-3.3,1.8-4.2,3-.3,3.8-1.3,5-3.6.9-4.8,1.9-1.2,3.6-2.5,4.5-3.7,0-5.1.8-2,3.2-3.5,3.7-3.5-.9-5.1-.5-2.7,2.7-4.3,2.9-3.2-1.8-4.8-1.8-3.3,1.9-4.8,1.8-2.8-2.5-4.3-2.9-3.7,1.1-5.1.5-2.1-3-3.5-3.7-3.8.1-5.1-.8-1.3-3.4-2.5-4.5-3.7-.7-4.8-1.9-.4-3.7-1.3-5-3.4-1.6-4.2-3,.5-3.6-.1-5.1S3.4,53.1,3,51.6s1.3-3.4,1.1-5-2.3-3-2.3-4.6S4,38.9,4.1,37.4s-1.5-3.5-1.1-5,2.8-2.5,3.3-3.9-.6-3.8.1-5.2,3.3-1.7,4.2-3,.3-3.8,1.3-5,3.6-.8,4.8-1.9,1.2-3.6,2.5-4.5,3.7,0,5.1-.7,2-3.2,3.5-3.8,3.5.9,5.1.5,2.7-2.6,4.3-2.8S40.4,3.8,42,3.8s3.3-1.9,4.8-1.7,2.8,2.5,4.3,2.8,3.7-1,5.1-.5,2.1,3.1,3.5,3.8,3.8-.2,5.1.7,1.3,3.5,2.5,4.5,3.7.8,4.8,1.9.4,3.7,1.3,5,3.4,1.6,4.2,3-.5,3.7.1,5.2,2.9,2.3,3.3,3.9-1.3,3.4-1.1,5,2.3,3,2.3,4.6"/><path class="cls-5" d="M82.2,42c0,1.6-2.2,3-2.3,4.6s1.5,3.5,1.1,5-2.8,2.4-3.3,3.9.6,3.8-.1,5.1-3.3,1.8-4.2,3-.3,3.8-1.3,5-3.6.9-4.8,1.9-1.2,3.6-2.5,4.5-3.7,0-5.1.8-2,3.2-3.5,3.7-3.5-.9-5.1-.5-2.7,2.7-4.3,2.9-3.2-1.8-4.8-1.8-3.3,1.9-4.8,1.8-2.8-2.5-4.3-2.9-3.7,1.1-5.1.5-2.1-3-3.5-3.7-3.8.1-5.1-.8-1.3-3.4-2.5-4.5-3.7-.7-4.8-1.9-.4-3.7-1.3-5-3.4-1.6-4.2-3,.5-3.6-.1-5.1S3.4,53.1,3,51.6s1.3-3.4,1.1-5-2.3-3-2.3-4.6S4,38.9,4.1,37.4s-1.5-3.5-1.1-5,2.8-2.5,3.3-3.9-.6-3.8.1-5.2,3.3-1.7,4.2-3,.3-3.8,1.3-5,3.6-.8,4.8-1.9,1.2-3.6,2.5-4.5,3.7,0,5.1-.7,2-3.2,3.5-3.8,3.5.9,5.1.5,2.7-2.6,4.3-2.8S40.4,3.8,42,3.8s3.3-1.9,4.8-1.7,2.8,2.5,4.3,2.8,3.7-1,5.1-.5,2.1,3.1,3.5,3.8,3.8-.2,5.1.7,1.3,3.5,2.5,4.5,3.7.8,4.8,1.9.4,3.7,1.3,5,3.4,1.6,4.2,3-.5,3.7.1,5.2,2.9,2.3,3.3,3.9-1.3,3.4-1.1,5S82.2,40.4,82.2,42Z"/><path class="cls-6" d="M60.5,46.4l-4.6-.8V44a5.9,5.9,0,0,0,2.8-3.6h.2a2.9,2.9,0,0,0,2.9-2.9,3,3,0,0,0-2.2-2.9,4.2,4.2,0,0,0,2.2-3.7,4.4,4.4,0,0,0-4.4-4.4,2.7,2.7,0,0,0-2.1.9,5.6,5.6,0,0,0-3.1-.9h-1a5.5,5.5,0,0,0-4.6,2.4l-.6.4a4,4,0,0,0-1.8,3.3,3.1,3.1,0,0,0,.1,1l.5,2.1a2.8,2.8,0,0,0-.6,1.8,2.9,2.9,0,0,0,2.9,2.9h.2A5.9,5.9,0,0,0,50.1,44v1.6l-4.5.8a5.1,5.1,0,0,0-4.3,5.1V61.7H64.7V51.5a5.1,5.1,0,0,0-4.2-5.1m-10,.7,1.6,2.1L50.6,51l-.4-3.9Zm2.4,7.2h.2l1.2,5.9H51.7Zm.3-1.4h-.4l-.6-1.5.8-1,.8,1Zm.7-3.7,1.6-2.1h.3L55.4,51Zm6.4-11.7a1.4,1.4,0,0,1-1.4,1.4V36a1.4,1.4,0,0,1,1.4,1.5m-4.4-8.1a1.5,1.5,0,0,1,1.5-1.5,3,3,0,0,1,0,5.9H49.3a.7.7,0,0,1-.7-.7H47.1v1.4l-1,.2-.4-1.4v-.7a2.6,2.6,0,0,1,1.1-2.1l.9-.6h0a4.2,4.2,0,0,1,3.5-1.9h1a4.8,4.8,0,0,1,2.4.7h0a2.2,2.2,0,0,0-.1.8m-8.8,8.1A1.4,1.4,0,0,1,47.1,36v2.9a1.4,1.4,0,0,1-1.4-1.4m2.9,1.4V35.1l.7.2h8.1v3.6a4.4,4.4,0,0,1-8.8,0M53,44.8l1.5-.2V46L53,48l-1.5-2V44.6l1.5.2M42.7,51.5a3.8,3.8,0,0,1,3.1-3.7l3-.5.7,7.4,1.6-2,.4,1-1.3,6.5H47.1V52.1H45.7v8.1h-3Zm20.6,8.7h-3V52.1H58.9v8.1H55.8l-1.3-6.5.4-1,1.6,2,.7-7.4,3,.5a3.8,3.8,0,0,1,3.1,3.7Zm-42.6-7v8.5H36.9V59.8a15.9,15.9,0,0,0-4.4-10.9V47h1a2.7,2.7,0,0,0,1.2-.3,2.5,2.5,0,0,0,1.4-2.4V42.4l2.2-.7v-.6a31.8,31.8,0,0,0-1.4-6.7,6.6,6.6,0,0,0-6.6-6.5H28.8a6.7,6.7,0,0,0-6.6,6.6v2.6A13.5,13.5,0,0,1,20.8,43a14.7,14.7,0,0,0-1.5,6.5v.4a4.4,4.4,0,0,0,1.4,3.3m1.5,5.5h4.4v1.5H22.2Zm13.2,1.5H28.1V54.3H26.6v3H22.2V54.1l1.5.2a4.4,4.4,0,0,0,4.4-4.4h3.3a14.2,14.2,0,0,1,4,9.9Zm-.7-18.9v3a1.2,1.2,0,0,1-.7,1.1H29.5V47H31v1.5H28.1V42.9l-.9-.5a.9.9,0,0,1-.6-.9,1.1,1.1,0,0,1,1.1-1.1h1l.6-4.2a1.1,1.1,0,0,1,1.1-.9h5.2a28,28,0,0,1,1.2,5.3Zm-14,8.2a13,13,0,0,1,1.4-5.8,15.3,15.3,0,0,0,1.6-6.6V34.5a5.1,5.1,0,0,1,5.1-5.1h1.5a5.1,5.1,0,0,1,5,4.4H30.4A2.6,2.6,0,0,0,27.8,36l-.4,2.9a2.7,2.7,0,0,0-2.3,2.6,2.9,2.9,0,0,0,1.4,2.3h.1v6.1a3,3,0,1,1-5.9,0ZM33.9,38.2a.7.7,0,1,1-.7-.7.7.7,0,0,1,.7.7M44.2,20.6H33.9V19.1H44.2Zm-2.9,2.9H33.9V22.1h7.4Zm-2.5,3,2.4,2.4a1.8,1.8,0,0,0,1.2.5,1.8,1.8,0,0,0,1.8-1.8V26.5h.1a2.8,2.8,0,0,0,2.8-2.9V19.1a2.9,2.9,0,0,0-2.9-2.9H33.9A2.9,2.9,0,0,0,31,19.1v4.5a2.9,2.9,0,0,0,2.8,2.9Zm-6.3-2.9V19.1a1.5,1.5,0,0,1,1.4-1.5H44.2a1.5,1.5,0,0,1,1.5,1.5v4.5A1.4,1.4,0,0,1,44.3,25H42.7v2.6a.3.3,0,0,1-.5.2L39.4,25H33.8a1.3,1.3,0,0,1-1.3-1.4"/></g><text class="cls-7" transform="translate(13.3 93.6)">Respeto</text><g class="cls-3"><path class="cls-5" d="M19,83.9H14.4v9.7h2V89.8h1.9a1.7,1.7,0,0,1,1.2.3,1.7,1.7,0,0,1,.3,1.2v.9a2.8,2.8,0,0,0,.1.9,1.1,1.1,0,0,0,.1.5h2.2v-.3a.5.5,0,0,1-.3-.5,2.2,2.2,0,0,1-.1-.9v-.7a3.3,3.3,0,0,0-.3-1.5,2.2,2.2,0,0,0-.9-.7,1.8,1.8,0,0,0,1.1-1,2.2,2.2,0,0,0,.4-1.3,3,3,0,0,0-.2-1,2.2,2.2,0,0,0-.5-.8,1.6,1.6,0,0,0-.9-.7A4.3,4.3,0,0,0,19,83.9Zm-.4,1.7.9.2a1.2,1.2,0,0,1,.6,1.2.9.9,0,0,1-.6,1,1.5,1.5,0,0,1-1,.2H16.4V85.6Z"/></g></g></g></svg>