<svg id="Capa_1" data-name="Capa 1" xmlns="http://www.w3.org/2000/svg" xmlns:xlink="http://www.w3.org/1999/xlink" viewBox="0 0 84 84"><defs><style>.cls-1,.cls-5,.cls-9{fill:none;}.cls-2{clip-path:url(#clip-path);}.cls-3{clip-path:url(#clip-path-2);}.cls-4,.cls-6{font-size:13.37px;font-family:Helvetica-Bold, Helvetica;font-weight:700;}.cls-4,.cls-7{fill:#2fac67;}.cls-5{stroke:#2fac67;}.cls-5,.cls-9{stroke-miterlimit:10;stroke-width:2px;}.cls-6{fill:#747173;}.cls-8{fill:#fff;}.cls-9{stroke:#fff;}</style><clipPath id="clip-path"><polygon class="cls-1" points="83.9 83.9 35.4 83.9 22.6 79.7 14.6 79.7 0 63.3 0 0 83.9 0 83.9 83.9"/></clipPath><clipPath id="clip-path-2"><rect class="cls-1" x="-22.5" y="-3" width="129" height="111.62"/></clipPath></defs><title>icon-cultura-6-insignias</title><g class="cls-2"><g class="cls-3"><text class="cls-4" transform="translate(16.4 93.4)">Éticos</text><path class="cls-5" d="M21.2,81l-1.3,2h1.4l1.9-2Zm3.3,2.7H17.4v9.7h7.3V91.6H19.4V89.1h4.7V87.5H19.4V85.4h5.1Z"/><g class="cls-3"><path class="cls-5" d="M26.4,87.6V92a1.3,1.3,0,0,0,.3,1,2.2,2.2,0,0,0,1.8.4h.9V92h-1c-.1,0-.2-.2-.2-.5V87.6h1.2V86.3H28.2v-2H26.4v2h-1v1.3Z"/><path class="cls-5" d="M30.6,93.4h1.9V86.2H30.6Zm1.9-9.7H30.6v1.7h1.9Z"/></g><text class="cls-6" transform="translate(56.5 93.4)"> </text><g class="cls-3"><path class="cls-7" d="M82.3,42.3c0,1.6-2.1,3.1-2.3,4.6s1.6,3.5,1.2,5.1-2.8,2.4-3.4,3.9.7,3.8-.1,5.2-3.3,1.7-4.2,3-.3,3.8-1.3,5-3.6.8-4.8,1.9-1.2,3.6-2.5,4.5-3.7,0-5.1.8-2,3.2-3.5,3.7-3.6-.9-5.1-.5-2.7,2.7-4.3,2.9-3.3-1.8-4.9-1.8-3.3,2-4.9,1.8-2.7-2.5-4.3-2.9-3.6,1.1-5.1.5-2.1-3-3.5-3.7-3.8.1-5.1-.8S17.8,72,16.6,71s-3.7-.7-4.8-1.9-.4-3.7-1.3-5-3.5-1.6-4.2-3,.4-3.7-.1-5.2-3-2.4-3.4-3.9S4.1,48.5,4,46.9s-2.3-3-2.3-4.6S3.8,39.2,4,37.7s-1.6-3.5-1.2-5,2.8-2.5,3.4-4-.7-3.7.1-5.1,3.3-1.8,4.2-3.1.3-3.8,1.3-4.9,3.6-.9,4.8-2,1.2-3.6,2.5-4.5,3.7,0,5.1-.7,2-3.3,3.5-3.8,3.6.9,5.1.5,2.7-2.6,4.3-2.8S40.4,4,42,4s3.3-1.9,4.9-1.7,2.7,2.4,4.3,2.8,3.6-1.1,5.1-.5,2.1,3,3.5,3.8,3.8-.2,5.1.7,1.3,3.5,2.5,4.5,3.7.8,4.8,2,.4,3.6,1.3,4.9,3.5,1.7,4.2,3.1-.4,3.6.1,5.1,3,2.4,3.4,4-1.3,3.4-1.2,5,2.3,3,2.3,4.6"/><path class="cls-5" d="M82.3,42.3c0,1.6-2.1,3.1-2.3,4.6s1.6,3.5,1.2,5.1-2.8,2.4-3.4,3.9.7,3.8-.1,5.2-3.3,1.7-4.2,3-.3,3.8-1.3,5-3.6.8-4.8,1.9-1.2,3.6-2.5,4.5-3.7,0-5.1.8-2,3.2-3.5,3.7-3.6-.9-5.1-.5-2.7,2.7-4.3,2.9-3.3-1.8-4.9-1.8-3.3,2-4.9,1.8-2.7-2.5-4.3-2.9-3.6,1.1-5.1.5-2.1-3-3.5-3.7-3.8.1-5.1-.8S17.8,72,16.6,71s-3.7-.7-4.8-1.9-.4-3.7-1.3-5-3.5-1.6-4.2-3,.4-3.7-.1-5.2-3-2.4-3.4-3.9S4.1,48.5,4,46.9s-2.3-3-2.3-4.6S3.8,39.2,4,37.7s-1.6-3.5-1.2-5,2.8-2.5,3.4-4-.7-3.7.1-5.1,3.3-1.8,4.2-3.1.3-3.8,1.3-4.9,3.6-.9,4.8-2,1.2-3.6,2.5-4.5,3.7,0,5.1-.7,2-3.3,3.5-3.8,3.6.9,5.1.5,2.7-2.6,4.3-2.8S40.4,4,42,4s3.3-1.9,4.9-1.7,2.7,2.4,4.3,2.8,3.6-1.1,5.1-.5,2.1,3,3.5,3.8,3.8-.2,5.1.7,1.3,3.5,2.5,4.5,3.7.8,4.8,2,.4,3.6,1.3,4.9,3.5,1.7,4.2,3.1-.4,3.6.1,5.1,3,2.4,3.4,4-1.3,3.4-1.2,5S82.3,40.7,82.3,42.3Z"/><path class="cls-8" d="M50.9,47.1a1.1,1.1,0,0,1-1.1,1,1.1,1.1,0,0,1-1-1,1,1,0,0,1,1-1,1,1,0,0,1,1.1,1"/><circle class="cls-9" cx="49.8" cy="47.1" r="1"/><path class="cls-8" d="M21.5,47.4a3.4,3.4,0,0,1-2.6-1.2,1.1,1.1,0,0,0-.7-.3H17a1,1,0,0,0-1.1,1V56A1.1,1.1,0,0,0,17,57.1h8.2a5.6,5.6,0,1,0,8.6,0H50.2a5.6,5.6,0,1,0,8.6,0H67A1.1,1.1,0,0,0,68.1,56V46.9a1,1,0,0,0-1.1-1H65.8a1.1,1.1,0,0,0-.7.3,3.4,3.4,0,0,1-2.6,1.2,3.6,3.6,0,1,1,0-7.1,3.4,3.4,0,0,1,2.6,1.2,1.1,1.1,0,0,0,.7.3H67a1.1,1.1,0,0,0,1.1-1V31.6a1.1,1.1,0,0,0-1.1-1H58.8A5.9,5.9,0,0,0,60.1,27a5.6,5.6,0,0,0-11.2,0,5.9,5.9,0,0,0,1.3,3.6H33.8A5.9,5.9,0,0,0,35.1,27a5.6,5.6,0,0,0-11.2,0,5.9,5.9,0,0,0,1.3,3.6H17a1.1,1.1,0,0,0-1.1,1v9.2a1.1,1.1,0,0,0,1.1,1h1.2a1.1,1.1,0,0,0,.7-.3,3.4,3.4,0,0,1,2.6-1.2,3.6,3.6,0,1,1,0,7.1m0-9.2A5.6,5.6,0,0,0,18,39.5V32.6h8.4a.9.9,0,0,0,1-1V30.4a.9.9,0,0,0-.3-.7A3.5,3.5,0,1,1,33,27a3.9,3.9,0,0,1-1.1,2.7.8.8,0,0,0-.4.7v1.2a1,1,0,0,0,1,1H41v8.2a1,1,0,0,0,1,1h1.2a.8.8,0,0,0,.7-.3A3.6,3.6,0,0,1,50,42.9a1,1,0,0,0,1.3.7,1,1,0,0,0,.7-1.2,5.6,5.6,0,0,0-5.4-4.2A5.9,5.9,0,0,0,43,39.5V32.6h8.5a1,1,0,0,0,1-1V30.4a.8.8,0,0,0-.4-.7A3.9,3.9,0,0,1,51,27a3.6,3.6,0,1,1,5.9,2.7.9.9,0,0,0-.3.7v1.2a.9.9,0,0,0,1,1H66v6.9a5.6,5.6,0,1,0-3.5,9.9A5.1,5.1,0,0,0,66,48.1V55H57.6a1,1,0,0,0-1,1v1.2a1.1,1.1,0,0,0,.3.8,3.4,3.4,0,0,1,1.2,2.6,3.6,3.6,0,1,1-7.1,0A3.6,3.6,0,0,1,52.1,58a.9.9,0,0,0,.4-.8V56a1.1,1.1,0,0,0-1-1H43V48.1a4.7,4.7,0,0,0,2.1,1.1,1,1,0,0,0,1.3-.7,1,1,0,0,0-.7-1.2,4.2,4.2,0,0,1-1.8-1.1.8.8,0,0,0-.7-.3H42a.9.9,0,0,0-1,1V55H32.5a1.1,1.1,0,0,0-1,1v1.2a.9.9,0,0,0,.4.8A3.6,3.6,0,0,1,33,60.6a3.6,3.6,0,1,1-7.1,0A3.4,3.4,0,0,1,27.1,58a1.1,1.1,0,0,0,.3-.8V56a1,1,0,0,0-1-1H18V48.1a5.1,5.1,0,0,0,3.5,1.3,5.6,5.6,0,1,0,0-11.2"/><path class="cls-1" d="M21.5,47.4a3.4,3.4,0,0,1-2.6-1.2,1.1,1.1,0,0,0-.7-.3H17a1,1,0,0,0-1.1,1V56A1.1,1.1,0,0,0,17,57.1h8.2a5.6,5.6,0,1,0,8.6,0H50.2a5.6,5.6,0,1,0,8.6,0H67A1.1,1.1,0,0,0,68.1,56V46.9a1,1,0,0,0-1.1-1H65.8a1.1,1.1,0,0,0-.7.3,3.4,3.4,0,0,1-2.6,1.2,3.6,3.6,0,1,1,0-7.1,3.4,3.4,0,0,1,2.6,1.2,1.1,1.1,0,0,0,.7.3H67a1.1,1.1,0,0,0,1.1-1V31.6a1.1,1.1,0,0,0-1.1-1H58.8A5.9,5.9,0,0,0,60.1,27a5.6,5.6,0,0,0-11.2,0,5.9,5.9,0,0,0,1.3,3.6H33.8A5.9,5.9,0,0,0,35.1,27a5.6,5.6,0,0,0-11.2,0,5.9,5.9,0,0,0,1.3,3.6H17a1.1,1.1,0,0,0-1.1,1v9.2a1.1,1.1,0,0,0,1.1,1h1.2a1.1,1.1,0,0,0,.7-.3,3.4,3.4,0,0,1,2.6-1.2,3.6,3.6,0,1,1,0,7.1Zm0-9.2A5.6,5.6,0,0,0,18,39.5V32.6h8.4a.9.9,0,0,0,1-1V30.4a.9.9,0,0,0-.3-.7A3.5,3.5,0,1,1,33,27a3.9,3.9,0,0,1-1.1,2.7.8.8,0,0,0-.4.7v1.2a1,1,0,0,0,1,1H41v8.2a1,1,0,0,0,1,1h1.2a.8.8,0,0,0,.7-.3A3.6,3.6,0,0,1,50,42.9a1,1,0,0,0,1.3.7,1,1,0,0,0,.7-1.2,5.6,5.6,0,0,0-5.4-4.2A5.9,5.9,0,0,0,43,39.5V32.6h8.5a1,1,0,0,0,1-1V30.4a.8.8,0,0,0-.4-.7A3.9,3.9,0,0,1,51,27a3.6,3.6,0,1,1,5.9,2.7.9.9,0,0,0-.3.7v1.2a.9.9,0,0,0,1,1H66v6.9a5.6,5.6,0,1,0-3.5,9.9A5.1,5.1,0,0,0,66,48.1V55H57.6a1,1,0,0,0-1,1v1.2a1.1,1.1,0,0,0,.3.8,3.4,3.4,0,0,1,1.2,2.6,3.6,3.6,0,1,1-7.1,0A3.6,3.6,0,0,1,52.1,58a.9.9,0,0,0,.4-.8V56a1.1,1.1,0,0,0-1-1H43V48.1a4.7,4.7,0,0,0,2.1,1.1,1,1,0,0,0,1.3-.7,1,1,0,0,0-.7-1.2,4.2,4.2,0,0,1-1.8-1.1.8.8,0,0,0-.7-.3H42a.9.9,0,0,0-1,1V55H32.5a1.1,1.1,0,0,0-1,1v1.2a.9.9,0,0,0,.4.8A3.6,3.6,0,0,1,33,60.6a3.6,3.6,0,1,1-7.1,0A3.4,3.4,0,0,1,27.1,58a1.1,1.1,0,0,0,.3-.8V56a1,1,0,0,0-1-1H18V48.1a5.1,5.1,0,0,0,3.5,1.3,5.6,5.6,0,1,0,0-11.2Z"/></g></g></g></svg>