<svg xmlns="http://www.w3.org/2000/svg" viewBox="0 0 84 84"><defs><style>.cls-1{isolation:isolate;}.cls-2{fill:#95a6b1;}.cls-3{mix-blend-mode:multiply;}.cls-4{fill:#19a500;}.cls-5,.cls-6,.cls-7{fill:none;}.cls-6{stroke:#4da12e;}.cls-6,.cls-7{stroke-linecap:round;stroke-linejoin:round;stroke-width:3px;}.cls-7{stroke:#96d200;}</style></defs><title>0-icon-NOSOTROS-editable-FINAL</title><g class="cls-1"><g id="Capa_1" data-name="Capa 1"><path class="cls-2" d="M64.6,51.1a.4.4,0,0,1-.4-.2.7.7,0,0,1-.2-1.1,27.1,27.1,0,0,0,5.9-17.1,28.6,28.6,0,0,0-2.6-11.9.8.8,0,0,1,1.4-.6,28.2,28.2,0,0,1,2.8,12.5,29.6,29.6,0,0,1-6.2,18.1A.9.9,0,0,1,64.6,51.1Z"/><path class="cls-2" d="M42,62.2a29.5,29.5,0,0,1,0-59A30,30,0,0,1,56.1,6.7a.8.8,0,0,1,.3,1.1.7.7,0,0,1-1.1.3A27.9,27.9,0,1,0,42,60.6a27.5,27.5,0,0,0,15.9-5c.4-.2.9-.2,1.1.2a.7.7,0,0,1-.2,1.1A28.9,28.9,0,0,1,42,62.2Z"/><path class="cls-2" d="M42,9.4a.8.8,0,0,1-.8-.8V4.4a.7.7,0,0,1,.8-.8.8.8,0,0,1,.8.8V8.6A.9.9,0,0,1,42,9.4Z"/><path class="cls-2" d="M42,62a.8.8,0,0,1-.8-.8V57a.7.7,0,0,1,.8-.8.8.8,0,0,1,.8.8v4.2A.9.9,0,0,1,42,62Z"/><path class="cls-2" d="M70.4,33.6H66.2a.8.8,0,0,1-.8-.8.7.7,0,0,1,.8-.8h4.2a.8.8,0,0,1,.8.8A.9.9,0,0,1,70.4,33.6Z"/><path class="cls-2" d="M17.8,33.8H13.6a1,1,0,0,1-1-1,.9.9,0,0,1,1-1h4.2a1,1,0,0,1,1,1A1.1,1.1,0,0,1,17.8,33.8Z"/><path class="cls-2" d="M21.9,53.7a.9.9,0,0,1-.6-.3.7.7,0,0,1,.1-1.1l3.1-3a.8.8,0,0,1,1.2.1.8.8,0,0,1-.1,1.1l-3.1,2.9A.9.9,0,0,1,21.9,53.7Z"/><path class="cls-2" d="M25.1,16.6l-.6-.2-3.2-3.1a.8.8,0,1,1,1.2-1.2l3.1,3.1a.7.7,0,0,1,0,1.2Z"/><path class="cls-2" d="M63.5,52.3a.8.8,0,0,1-.8-.7l-.6-6.7a1,1,0,0,1,.7-.9.8.8,0,0,1,.9.8l.6,5.9,5.8-.6a.8.8,0,0,1,.9.8.7.7,0,0,1-.7.8l-6.7.6Z"/><path class="cls-2" d="M58.3,47.6H26.5a.8.8,0,1,1,0-1.6H58.3a.8.8,0,0,1,0,1.6Z"/><path class="cls-2" d="M50,47.6a.8.8,0,0,1-.8-.8V28.7a.8.8,0,0,1,.8-.8.9.9,0,0,1,.8.8V46.8A.9.9,0,0,1,50,47.6Z"/><path class="cls-2" d="M50.1,32.8h-.5l-2.8-1.9a.8.8,0,1,1,.9-1.3L50,31l2.3-1.6a.7.7,0,0,1,1.1.2.8.8,0,0,1-.2,1.1l-2.7,1.9Z"/><path class="cls-2" d="M54.6,35.9H45.1a4.4,4.4,0,0,1-4.4-4.4v-.4a4.3,4.3,0,0,1,3.2-4.2,5.9,5.9,0,0,1,5.9-5.8,5.8,5.8,0,0,1,5.8,5.8A4.3,4.3,0,0,1,59,31.1v.4A4.4,4.4,0,0,1,54.6,35.9ZM49.8,22.7a4.2,4.2,0,0,0-4.3,4.2v.7a.8.8,0,0,1-.7.8,2.7,2.7,0,0,0-2.5,2.7v.4a2.8,2.8,0,0,0,2.8,2.8h9.5a2.8,2.8,0,0,0,2.8-2.8v-.4a2.8,2.8,0,0,0-2.6-2.8.8.8,0,0,1-.8-.8v-.6A4.2,4.2,0,0,0,49.8,22.7Z"/><path class="cls-2" d="M35.9,47.6a.9.9,0,0,1-.8-.8V25.5a.8.8,0,1,1,1.6,0V46.8A.9.9,0,0,1,35.9,47.6Z"/><path class="cls-2" d="M36,29.9h-.4l-3.2-2.1a.8.8,0,0,1-.3-1.1.8.8,0,0,1,1.2-.2L36,28.2l2.5-1.9a.8.8,0,0,1,1.2.2.9.9,0,0,1-.2,1.1l-3,2.2Z"/><path class="cls-2" d="M41.1,33.4H30.4a4.8,4.8,0,0,1-4.8-4.8v-.5a4.7,4.7,0,0,1,3.6-4.6h0a6.5,6.5,0,0,1,13,0h0a4.3,4.3,0,0,1,3.2,3.7.8.8,0,0,1-.6.9.7.7,0,0,1-.9-.6,3,3,0,0,0-2.6-2.6.7.7,0,0,1-.7-.8v-.7a4.9,4.9,0,0,0-9.8,0v.8a.8.8,0,0,1-.7.8,3.1,3.1,0,0,0-2.9,3.1v.5a3.2,3.2,0,0,0,3.2,3.2H41.1a.8.8,0,0,1,.8.8A.7.7,0,0,1,41.1,33.4Z"/><g id="Trazado_5703" data-name="Trazado 5703" class="cls-3"><path class="cls-4" d="M62.4,19.5a5.9,5.9,0,1,1,0-11.7,6,6,0,0,1,5.9,5.8h0A5.9,5.9,0,0,1,62.4,19.5Zm0-10.1h0a4.3,4.3,0,0,0-4.3,4.2,4.3,4.3,0,0,0,8.6,0h0A4.4,4.4,0,0,0,62.4,9.4Z"/></g><rect id="Rectángulo_3799" data-name="Rectángulo 3799" class="cls-5" width="84" height="84"/><rect class="cls-5" y="63.1" width="84" height="20.93"/><line class="cls-6" x1="49.1" y1="77.9" x2="58.1" y2="77.9"/><line class="cls-6" x1="67" y1="77.9" x2="67.8" y2="77.9"/><line class="cls-6" x1="16.2" y1="77.9" x2="25.1" y2="77.9"/><line class="cls-7" x1="24.5" y1="77.9" x2="40.2" y2="77.9"/><line class="cls-7" x1="16.2" y1="70.3" x2="45.7" y2="70.3"/><line class="cls-6" x1="44.8" y1="70.3" x2="67.8" y2="70.3"/><line class="cls-6" x1="16.2" y1="70.3" x2="16.8" y2="70.3"/></g></g></svg>