<svg xmlns="http://www.w3.org/2000/svg" viewBox="0 0 84 84"><defs><style>.cls-1{isolation:isolate;}.cls-2{mix-blend-mode:multiply;}.cls-3{fill:#19a500;}.cls-4{fill:#95a6b1;}.cls-5,.cls-6,.cls-7{fill:none;}.cls-6{stroke:#4da12e;}.cls-6,.cls-7{stroke-linecap:round;stroke-linejoin:round;stroke-width:3px;}.cls-7{stroke:#96d200;}</style></defs><title>0-icon-NOSOTROS-editable-FINAL</title><g class="cls-1"><g id="Capa_1" data-name="Capa 1"><g id="Trazado_5703" data-name="Trazado 5703" class="cls-2"><path class="cls-3" d="M21.1,22.6a5.6,5.6,0,1,1,0-11.1h.1A5.5,5.5,0,0,1,26.7,17h0A5.6,5.6,0,0,1,21.1,22.6Zm0-9.5h0a4,4,0,1,0,4,3.9h0A3.9,3.9,0,0,0,21.1,13.1Z"/></g><path class="cls-4" d="M42.6,49.1A5.1,5.1,0,0,1,37.5,44V36a5.1,5.1,0,0,1,10.2,0v8A5.1,5.1,0,0,1,42.6,49.1Zm0-16.6A3.5,3.5,0,0,0,39.1,36v8a3.5,3.5,0,0,0,3.5,3.5A3.5,3.5,0,0,0,46.1,44V36A3.5,3.5,0,0,0,42.6,32.5Z"/><path class="cls-4" d="M30.6,49.1A5.1,5.1,0,0,1,25.5,44V36a5.1,5.1,0,0,1,10.2,0,.8.8,0,0,1-1.6,0,3.5,3.5,0,0,0-7,0v8a3.5,3.5,0,0,0,7,0,.8.8,0,1,1,1.6,0A5.1,5.1,0,0,1,30.6,49.1Z"/><path class="cls-4" d="M57,48.5H50.6a.8.8,0,0,1-.8-.8c0-2.3.8-3.2,1.5-3.8h.1a7.4,7.4,0,0,1,2.2-1c1.7-.5,2.5-.9,2.5-2a2.2,2.2,0,0,0-.5-1.6,2.3,2.3,0,0,0-1.8-.6,2.2,2.2,0,0,0-1.7.6,3.2,3.2,0,0,0-.6,2.1.8.8,0,0,1-.7.9.8.8,0,0,1-.9-.7,4.9,4.9,0,0,1,1-3.4A4,4,0,0,1,53.8,37a3.8,3.8,0,0,1,3,1.2,3.9,3.9,0,0,1,.9,2.7c0,2.3-2.1,3-3.6,3.4a9.1,9.1,0,0,0-1.7.8h-.1c-.3.2-.7.5-.9,1.7H57a.8.8,0,0,1,.8.8A.7.7,0,0,1,57,48.5Z"/><path class="cls-4" d="M16.3,54.7A4.3,4.3,0,0,1,12,50.4,4.4,4.4,0,0,1,16.3,46a4.4,4.4,0,0,1,4.4,4.4A4.4,4.4,0,0,1,16.3,54.7Zm0-7.1a2.8,2.8,0,0,0-2.7,2.8,2.7,2.7,0,0,0,2.7,2.7,2.8,2.8,0,0,0,2.8-2.7A2.9,2.9,0,0,0,16.3,47.6Z"/><path class="cls-4" d="M65.7,56.2a4.5,4.5,0,1,1,4.4-4.4A4.5,4.5,0,0,1,65.7,56.2Zm0-7.3a2.9,2.9,0,0,0-2.9,2.9,2.9,2.9,0,0,0,5.7,0A2.9,2.9,0,0,0,65.7,48.9Z"/><path class="cls-4" d="M71.9,23.2a3.6,3.6,0,1,1,3.5-3.6A3.6,3.6,0,0,1,71.9,23.2Zm0-5.5A1.9,1.9,0,0,0,70,19.6a1.9,1.9,0,0,0,1.9,2,2,2,0,0,0,1.9-2A2,2,0,0,0,71.9,17.7Z"/><path class="cls-4" d="M28.9,60.9a3.2,3.2,0,0,1-3.2-3.2,3.2,3.2,0,0,1,3.2-3.2,3.2,3.2,0,0,1,3.2,3.2A3.3,3.3,0,0,1,28.9,60.9Zm0-4.8a1.6,1.6,0,0,0-1.6,1.6,1.6,1.6,0,0,0,1.6,1.6,1.7,1.7,0,0,0,1.6-1.6A1.6,1.6,0,0,0,28.9,56.1Z"/><path class="cls-4" d="M60.1,44.9a.9.9,0,0,1-.8-.8.8.8,0,0,1,.8-.8,9.6,9.6,0,0,0,9.5-9.5,9.4,9.4,0,0,0-6-8.8c-.5-.2-.7-.6-.5-1s.6-.7,1-.5a11.1,11.1,0,0,1-4,21.4Z"/><path class="cls-4" d="M63.8,25h-.1a.7.7,0,0,1-.6-.9,14.3,14.3,0,0,0,.3-2.9A13.3,13.3,0,0,0,39,13.8a.9.9,0,0,1-1.1.2.9.9,0,0,1-.2-1.1A14.9,14.9,0,0,1,65,21.2a11.2,11.2,0,0,1-.4,3.2A.8.8,0,0,1,63.8,25Z"/><path class="cls-4" d="M38.4,14.1l-.6-.2a7,7,0,0,0-9-1c-.4.2-.9.2-1.1-.2a.7.7,0,0,1,.2-1.1,8.3,8.3,0,0,1,4.8-1.5A8.7,8.7,0,0,1,39,12.8a.8.8,0,0,1-.1,1.1Z"/><path class="cls-4" d="M23.2,44.9a12.5,12.5,0,0,1-8.1-22,.8.8,0,0,1,1,1.2,10.9,10.9,0,0,0,7.1,19.2.8.8,0,0,1,.8.8A.9.9,0,0,1,23.2,44.9Z"/><rect id="Rectángulo_3799" data-name="Rectángulo 3799" class="cls-5" width="84" height="84"/><path class="cls-4" d="M42.6,61.2a.8.8,0,0,1-.8-.8V51.8a.8.8,0,0,1,.8-.8.7.7,0,0,1,.8.8v8.6A.7.7,0,0,1,42.6,61.2Z"/><path class="cls-4" d="M42.6,61.7a.5.5,0,0,1-.5-.3l-3.9-3.8a.9.9,0,0,1,0-1.2.8.8,0,0,1,1.1,0l3.3,3.3,3.3-3.3a.8.8,0,0,1,1.2,1.2l-3.9,3.8A.9.9,0,0,1,42.6,61.7Z"/><rect class="cls-5" y="63.1" width="84" height="20.93"/><line class="cls-6" x1="49.1" y1="77.9" x2="58.1" y2="77.9"/><line class="cls-6" x1="67" y1="77.9" x2="67.8" y2="77.9"/><line class="cls-6" x1="16.2" y1="77.9" x2="25.1" y2="77.9"/><line class="cls-7" x1="24.5" y1="77.9" x2="40.2" y2="77.9"/><line class="cls-7" x1="16.2" y1="70.3" x2="45.7" y2="70.3"/><line class="cls-6" x1="44.8" y1="70.3" x2="67.8" y2="70.3"/><line class="cls-6" x1="16.2" y1="70.3" x2="16.8" y2="70.3"/><rect class="cls-5" width="84" height="84"/></g></g></svg>