<svg xmlns="http://www.w3.org/2000/svg" viewBox="0 0 84 84"><defs><style>.cls-1{isolation:isolate;}.cls-2{mix-blend-mode:multiply;}.cls-3{fill:#19a500;}.cls-4,.cls-6,.cls-7{fill:none;}.cls-5{fill:#95a6b1;}.cls-6{stroke:#4da12e;}.cls-6,.cls-7{stroke-linecap:round;stroke-linejoin:round;stroke-width:3px;}.cls-7{stroke:#96d200;}</style></defs><title>0-icon-NOSOTROS-editable-FINAL</title><g class="cls-1"><g id="Capa_1" data-name="Capa 1"><g id="Trazado_5703" data-name="Trazado 5703" class="cls-2"><path class="cls-3" d="M70,19.1A5.6,5.6,0,0,1,70,8h.1A5.4,5.4,0,0,1,74,9.6a5.5,5.5,0,0,1,1.6,3.9h0A5.6,5.6,0,0,1,70,19.1Zm.1-9.5H70a3.8,3.8,0,0,0-3.9,3.9,3.9,3.9,0,0,0,3.9,4,4,4,0,0,0,4-4h0a3.6,3.6,0,0,0-1.2-2.8A3.9,3.9,0,0,0,70.1,9.6Z"/></g><rect id="Rectángulo_3799" data-name="Rectángulo 3799" class="cls-4" width="84" height="84"/><path class="cls-5" d="M39.4,28.1h-.1c-.4,0-8.4-1-12.2-6.6S25.6,8.1,25.7,7.8a.8.8,0,0,1,.9-.6c.3,0,8.4,1,12.1,6.6h0c3.7,5.6,1.5,13.4,1.4,13.7A.7.7,0,0,1,39.4,28.1ZM27.1,8.9c-.4,1.9-1.3,7.6,1.4,11.7s8.3,5.4,10.3,5.8c.4-1.9,1.3-7.6-1.4-11.7S29,9.2,27.1,8.9Z"/><path class="cls-5" d="M40.4,29.7a.8.8,0,0,1-.6-.4L32.3,18.1a.7.7,0,0,1,.2-1.1.7.7,0,0,1,1.1.2l7.5,11.2c.2.4.2.9-.2,1.1Z"/><path class="cls-5" d="M21.9,27a8.7,8.7,0,0,1-3.2-.6c-5.2-1.7-7.6-7.8-7.7-8.1a.8.8,0,0,1,.3-.9c.3-.2,5.9-3.5,11.1-1.7h0c5.1,1.7,7.5,7.8,7.6,8.1a.8.8,0,0,1-.3,1A17.5,17.5,0,0,1,21.9,27Zm-9.1-8.6c.7,1.5,2.9,5.3,6.4,6.5s7.5-.4,9-1.2c-.7-1.5-2.8-5.3-6.4-6.5h0C18.3,16,14.3,17.7,12.8,18.4Z"/><path class="cls-5" d="M30.4,25.2h-.2l-9.9-3.4a.7.7,0,0,1-.5-1,.8.8,0,0,1,1-.5l9.9,3.4a.8.8,0,0,1,.5,1A.8.8,0,0,1,30.4,25.2Z"/><path class="cls-5" d="M45.7,42.9a.7.7,0,0,1-.8-.8,16,16,0,0,0-32,0,.8.8,0,0,1-.8.8.7.7,0,0,1-.8-.8,17.6,17.6,0,0,1,35.2,0A.8.8,0,0,1,45.7,42.9Z"/><path class="cls-5" d="M28.9,59.7A17.6,17.6,0,0,1,11.3,42.1a.8.8,0,0,1,.8-.8.9.9,0,0,1,.8.8,16,16,0,0,0,32,0,.8.8,0,0,1,.8-.8.9.9,0,0,1,.8.8A17.6,17.6,0,0,1,28.9,59.7Z"/><path class="cls-5" d="M28.8,42.9A4.9,4.9,0,1,1,33.7,38a.8.8,0,0,1-.8.8.9.9,0,0,1-.8-.8,3.3,3.3,0,1,0-3.3,3.3.7.7,0,0,1,.8.8A.8.8,0,0,1,28.8,42.9Z"/><path class="cls-5" d="M28.8,51.1a4.9,4.9,0,0,1-4.9-4.9.8.8,0,1,1,1.6,0,3.3,3.3,0,1,0,3.3-3.3.9.9,0,0,1-.8-.8.8.8,0,0,1,.8-.8,4.9,4.9,0,0,1,0,9.8Z"/><path class="cls-5" d="M28.8,34.7a.9.9,0,0,1-.8-.8V31.6a.9.9,0,0,1,.8-.8.8.8,0,0,1,.8.8v2.3A.8.8,0,0,1,28.8,34.7Z"/><path class="cls-5" d="M28.8,53.4a.9.9,0,0,1-.8-.8V50.3a.9.9,0,0,1,.8-.8.8.8,0,0,1,.8.8v2.3A.8.8,0,0,1,28.8,53.4Z"/><path class="cls-5" d="M73.7,24.4a.9.9,0,0,1-.8-.8,15.3,15.3,0,0,0-.3-3,.8.8,0,0,1,1.6-.3,18.4,18.4,0,0,1,.3,3.3A.9.9,0,0,1,73.7,24.4Z"/><path class="cls-5" d="M40.1,24.4a.9.9,0,0,1-.8-.8A17.6,17.6,0,0,1,56.9,6a17.9,17.9,0,0,1,7.5,1.7.7.7,0,0,1,.4,1,.8.8,0,0,1-1.1.4,15.7,15.7,0,0,0-6.8-1.5,16,16,0,0,0-16,16A.9.9,0,0,1,40.1,24.4Z"/><path class="cls-5" d="M56.9,41.2A17.6,17.6,0,0,1,39.3,23.6a.8.8,0,0,1,1.6,0,16,16,0,0,0,32,0,.8.8,0,1,1,1.6,0A17.6,17.6,0,0,1,56.9,41.2Z"/><path class="cls-5" d="M56.8,24.4a4.9,4.9,0,1,1,5-4.9.9.9,0,0,1-.8.8.8.8,0,0,1-.8-.8,3.4,3.4,0,0,0-6.7,0,3.3,3.3,0,0,0,3.3,3.3.7.7,0,0,1,.8.8A.8.8,0,0,1,56.8,24.4Z"/><path class="cls-5" d="M56.8,32.6a4.9,4.9,0,0,1-4.9-4.9.8.8,0,0,1,.8-.8.7.7,0,0,1,.8.8,3.4,3.4,0,1,0,3.3-3.3.9.9,0,0,1-.8-.8.8.8,0,0,1,.8-.8,4.9,4.9,0,1,1,0,9.8Z"/><path class="cls-5" d="M56.8,16.2a.9.9,0,0,1-.8-.8V13.1a.8.8,0,0,1,.8-.8.7.7,0,0,1,.8.8v2.3A.8.8,0,0,1,56.8,16.2Z"/><path class="cls-5" d="M56.8,34.9a.9.9,0,0,1-.8-.8V31.8a.8.8,0,0,1,.8-.8.7.7,0,0,1,.8.8v2.3A.8.8,0,0,1,56.8,34.9Z"/><rect class="cls-4" y="63.1" width="84" height="20.93"/><line class="cls-6" x1="49.1" y1="77.9" x2="58.1" y2="77.9"/><line class="cls-6" x1="67" y1="77.9" x2="67.8" y2="77.9"/><line class="cls-6" x1="16.2" y1="77.9" x2="25.1" y2="77.9"/><line class="cls-7" x1="24.5" y1="77.9" x2="40.2" y2="77.9"/><line class="cls-7" x1="16.2" y1="70.3" x2="45.7" y2="70.3"/><line class="cls-6" x1="44.8" y1="70.3" x2="67.8" y2="70.3"/><line class="cls-6" x1="16.2" y1="70.3" x2="16.8" y2="70.3"/><rect class="cls-4" width="84" height="84"/></g></g></svg>