<svg xmlns="http://www.w3.org/2000/svg" viewBox="0 0 84 84"><defs><style>.cls-1{isolation:isolate;}.cls-2{fill:#fbe957;}.cls-3{fill:#fff;}.cls-4{fill:none;}.cls-5{fill:#fff000;}.cls-6{fill:#ffe600;}.cls-7{mix-blend-mode:multiply;}.cls-8{fill:#ffda25;}</style></defs><title>0-icon-NOSOTROS-editable-FINAL</title><g class="cls-1"><g id="Capa_1" data-name="Capa 1"><g id="Trazado_5703" data-name="Trazado 5703"><path class="cls-2" d="M25.9,44.6A5.6,5.6,0,1,1,31.5,39h0A5.6,5.6,0,0,1,25.9,44.6Zm.1-9.5a4,4,0,0,0-4,4,4,4,0,0,0,7.9,0h0A4,4,0,0,0,26,35.1Z"/></g><g id="Línea_1013" data-name="Línea 1013"><path class="cls-3" d="M40,31.2a.9.9,0,0,1-.8-.8V24.8a.8.8,0,0,1,1.6,0v5.6A.9.9,0,0,1,40,31.2Z"/></g><g id="Línea_1014" data-name="Línea 1014"><path class="cls-3" d="M48.1,31.2a.8.8,0,0,1-.8-.8V24.8a.8.8,0,0,1,.8-.8.9.9,0,0,1,.8.8v5.6A.9.9,0,0,1,48.1,31.2Z"/></g><g id="Trazado_5700" data-name="Trazado 5700"><path class="cls-3" d="M63,61.3H25a.8.8,0,0,1-.8-.8V48.8A.8.8,0,0,1,25,48a.9.9,0,0,1,.8.8V59.7H62.2V42.5a7.9,7.9,0,0,0-1.3-4.4A6.4,6.4,0,0,0,58.6,36L47.8,31.1a.8.8,0,0,1-.4-1.1c.1-.4.6-.5,1-.4l10.8,4.9a6.4,6.4,0,0,1,3,2.7,9.5,9.5,0,0,1,1.6,5.3v18A.9.9,0,0,1,63,61.3Z"/></g><g id="Línea_1015" data-name="Línea 1015"><path class="cls-3" d="M32.9,34.5a.8.8,0,0,1-.7-.5.8.8,0,0,1,.4-1.1l7.1-3.2a.7.7,0,0,1,1,.3.8.8,0,0,1-.4,1.1l-7,3.3Z"/></g><g id="Línea_1017" data-name="Línea 1017"><path class="cls-3" d="M44,37.4h0a8.7,8.7,0,0,1-6.4-2.9l-1.7-2a.8.8,0,0,1,0-1.1.9.9,0,0,1,1.2.1l1.7,1.9A6.9,6.9,0,0,0,44,35.8h0a7,7,0,0,0,5.3-2.4L51,31.5a.8.8,0,0,1,1.1-.1.7.7,0,0,1,.1,1.1l-1.7,2A8.8,8.8,0,0,1,44,37.4Z"/></g><g id="Trazado_5701" data-name="Trazado 5701"><path class="cls-3" d="M44,26.8a8.5,8.5,0,0,1-8.4-8.4.8.8,0,0,1,1.6,0,6.8,6.8,0,1,0,13.6,0,.9.9,0,0,1,.8-.8.8.8,0,0,1,.8.8A8.5,8.5,0,0,1,44,26.8Z"/></g><g id="Trazado_5702" data-name="Trazado 5702"><path class="cls-3" d="M51.6,32.8a.8.8,0,0,1-.8-.8V13.1a6.8,6.8,0,0,0-13.6,0V32a.8.8,0,0,1-.8.8.7.7,0,0,1-.8-.8V13.1a8.4,8.4,0,0,1,16.8,0V32A.7.7,0,0,1,51.6,32.8Z"/></g><rect id="Rectángulo_3799" data-name="Rectángulo 3799" class="cls-4" width="84" height="84"/><path class="cls-3" d="M52.1,53.5l-.5-.2c-.2-.2-4.6-3.9-4.6-8.6s4.3-8.5,4.5-8.7a.7.7,0,0,1,1,0c.2.1,4.6,3.9,4.6,8.6h0c0,4.8-4.3,8.5-4.5,8.7ZM52,37.7c-1.1,1.1-3.4,3.8-3.4,6.9s2.4,5.9,3.5,7c1-1.1,3.4-3.9,3.4-7h0C55.5,41.5,53.1,38.8,52,37.7Z"/><path class="cls-3" d="M52.1,61.3a.9.9,0,0,1-.8-.8V44.6a.9.9,0,0,1,.8-.8h0a.8.8,0,0,1,.8.8V60.5a.9.9,0,0,1-.8.8Z"/><path class="cls-3" d="M52.6,59.2H52a.8.8,0,0,1-.7-.8c-.1-.2-.4-4.5,2.2-7.1S60.4,49,60.6,49a.8.8,0,0,1,.7.8c0,.1.4,4.5-2.2,7.1h0C57.1,58.9,53.9,59.2,52.6,59.2Zm7.1-8.6c-1.2.1-3.6.3-5.1,1.8s-1.7,4-1.8,5.2,3.7-.3,5.2-1.8h0A7.8,7.8,0,0,0,59.7,50.6Zm-1.2,5.7Z"/><path class="cls-3" d="M52.1,59.2a.9.9,0,0,1-.6-.3.8.8,0,0,1,0-1.1l4.2-4.3a.8.8,0,0,1,1.1,0,.7.7,0,0,1,0,1.2l-4.2,4.2A.5.5,0,0,1,52.1,59.2Z"/><path class="cls-3" d="M51.5,59.2c-1.3,0-4.5-.3-6.5-2.3h0c-2.6-2.6-2.2-7-2.2-7.1a.8.8,0,0,1,.7-.8c.2,0,4.6-.3,7.1,2.3s2.2,6.9,2.2,7.1a.8.8,0,0,1-.7.8Zm-5.4-3.4c1.5,1.5,3.9,1.7,5.1,1.8s-.2-3.7-1.7-5.2a7.6,7.6,0,0,0-5.1-1.8,7.8,7.8,0,0,0,1.7,5.2Z"/><path class="cls-3" d="M52,59.2a.9.9,0,0,1-.6-.3l-4.2-4.2a.8.8,0,1,1,1.2-1.2l4.2,4.3a.8.8,0,0,1,0,1.1A.9.9,0,0,1,52,59.2Z"/><path class="cls-3" d="M48.1,14.8a6.8,6.8,0,0,1-6.5-4.4,7.5,7.5,0,0,1-.5-1.6,1,1,0,0,1,.7-.9.7.7,0,0,1,.9.7L43,9.8a5.4,5.4,0,0,0,5.1,3.4,5.9,5.9,0,0,0,3.1-.9.7.7,0,0,1,1.1.2.9.9,0,0,1-.2,1.1A7.2,7.2,0,0,1,48.1,14.8Z"/><path class="cls-3" d="M36.4,14.1a.8.8,0,0,1-.8-.7.8.8,0,0,1,.7-.9,7.3,7.3,0,0,0,5.4-2.9.8.8,0,0,1,1.2,1,8.7,8.7,0,0,1-6.5,3.5Z"/><rect class="cls-4" x="-0.1" y="63.1" width="84" height="20.93"/><path class="cls-5" d="M45.6,71.8H16.1a1.5,1.5,0,0,1-1.5-1.5,1.6,1.6,0,0,1,1.5-1.6H45.6a1.6,1.6,0,0,1,1.6,1.6A1.6,1.6,0,0,1,45.6,71.8Z"/><path class="cls-6" d="M58,79.5H49a1.6,1.6,0,0,1,0-3.2h9a1.6,1.6,0,0,1,0,3.2Z"/><path class="cls-6" d="M67.7,79.5h-.8a1.6,1.6,0,0,1,0-3.2h.8a1.6,1.6,0,0,1,0,3.2Z"/><g class="cls-7"><path class="cls-8" d="M25,79.5H16.1a1.6,1.6,0,0,1,0-3.2H25a1.6,1.6,0,0,1,0,3.2Z"/></g><path class="cls-6" d="M40.1,79.5H25.5a1.6,1.6,0,0,1,0-3.2H40.1a1.6,1.6,0,0,1,0,3.2Z"/><g class="cls-7"><path class="cls-8" d="M30.7,79.5H25.5a1.6,1.6,0,0,1,0-3.2h5.2a1.6,1.6,0,0,1,0,3.2Z"/></g><path class="cls-8" d="M67.7,71.8h-23a1.6,1.6,0,0,1-1.6-1.5,1.6,1.6,0,0,1,1.6-1.6h23a1.6,1.6,0,0,1,1.5,1.6A1.5,1.5,0,0,1,67.7,71.8Z"/><g class="cls-7"><path class="cls-8" d="M16.7,71.8h-.6a1.5,1.5,0,0,1-1.5-1.5,1.6,1.6,0,0,1,1.5-1.6h.6a1.6,1.6,0,0,1,1.5,1.6A1.5,1.5,0,0,1,16.7,71.8Z"/></g><g class="cls-7"><path class="cls-8" d="M50.8,71.8H44.7a1.6,1.6,0,0,1-1.6-1.5,1.6,1.6,0,0,1,1.6-1.6h6.1a1.6,1.6,0,0,1,1.6,1.6A1.6,1.6,0,0,1,50.8,71.8Z"/></g></g></g></svg>