<?xml version="1.0" encoding="utf-8"?>
<!-- Generator: Adobe Illustrator 24.0.2, SVG Export Plug-In . SVG Version: 6.00 Build 0)  -->
<svg version="1.1" xmlns="http://www.w3.org/2000/svg" xmlns:xlink="http://www.w3.org/1999/xlink" x="0px" y="0px"
	 viewBox="0 0 60 60" style="enable-background:new 0 0 60 60;" xml:space="preserve">
<style type="text/css">
	.st0{fill:#19A500;}
	.st1{fill:none;}
	.st2{fill:none;stroke:#FFFFFF;stroke-width:1.2;stroke-linecap:round;stroke-linejoin:round;stroke-miterlimit:10;}
	.st3{fill:#FFFFFF;}
	.st4{fill:#EFEF00;}
</style>
<g id="Capa_2">
	<g>
		<g>
			<g id="Rectángulo_3799_58_">
				<path class="st0" d="M30,0L30,0c16.57,0,30,13.43,30,30v0c0,16.57-13.43,30-30,30h0C13.43,60,0,46.57,0,30v0
					C0,13.43,13.43,0,30,0z"/>
			</g>
		</g>
	</g>
</g>
<g id="Capa_1">
	<g>
		<g>
			<g>
				<g id="Rectángulo_3799_28_">
					<rect class="st1" width="60" height="60"/>
				</g>
			</g>
		</g>
	</g>
	<g>
		<g>
			<g>
				<path class="st3" d="M35.63,29.93c-0.05,0-0.06,0-0.08,0c-0.23,0-2.65-0.07-3.98-2.44c-1.47-2.62,1.2-6.33,1.32-6.48l2.23-3.59
					c0.1-0.16,0.27-0.26,0.46-0.26c0.17-0.01,0.36,0.09,0.47,0.24c0,0,1.39,2.04,2.24,3.34c0.83,1.27,2.79,4.25,1.45,6.86
					C38.59,29.82,36.09,29.93,35.63,29.93z M35.57,28.82c0.12,0,2.26,0.05,3.17-1.73c1.04-2.04-0.66-4.64-1.39-5.75
					c-0.53-0.81-1.28-1.92-1.75-2.62l-1.81,2.91c-0.05,0.07-2.39,3.33-1.27,5.32C33.57,28.82,35.48,28.8,35.57,28.82z"/>
			</g>
			<g>
				<g>
					<path class="st3" d="M21.29,52.67c-5.1,0-9.24-4.15-9.24-9.24c0-2.79,1.35-5.59,3.45-7.2V13.12c0-3.19,2.6-5.79,5.79-5.79
						s5.79,2.6,5.79,5.79v23.12c2.2,1.77,3.45,4.37,3.45,7.19C30.53,48.53,26.39,52.67,21.29,52.67z M21.29,8.43
						c-2.58,0-4.69,2.1-4.69,4.69v23.39c0,0.18-0.09,0.35-0.23,0.45c-1.92,1.36-3.21,3.96-3.21,6.47c0,4.49,3.65,8.14,8.14,8.14
						s8.14-3.65,8.14-8.14c0-2.56-1.18-4.92-3.23-6.48c-0.14-0.1-0.22-0.27-0.22-0.44V13.12C25.98,10.54,23.87,8.43,21.29,8.43z"/>
				</g>
				<g>
					<g>
						<path class="st3" d="M20.8,18.37h-4.15c-0.3,0-0.55-0.25-0.55-0.55s0.25-0.55,0.55-0.55h4.15c0.3,0,0.55,0.25,0.55,0.55
							S21.1,18.37,20.8,18.37z"/>
					</g>
					<g>
						<path class="st3" d="M20.8,27.77h-4.22c-0.3,0-0.55-0.25-0.55-0.55s0.25-0.55,0.55-0.55h4.22c0.3,0,0.55,0.25,0.55,0.55
							S21.1,27.77,20.8,27.77z"/>
					</g>
					<g>
						<path class="st3" d="M23.17,23.25h-6.46c-0.3,0-0.55-0.25-0.55-0.55s0.25-0.55,0.55-0.55h6.46c0.3,0,0.55,0.25,0.55,0.55
							S23.47,23.25,23.17,23.25z"/>
					</g>
					<g>
						<path class="st3" d="M23.17,32.06h-6.46c-0.3,0-0.55-0.25-0.55-0.55s0.25-0.55,0.55-0.55h6.46c0.3,0,0.55,0.25,0.55,0.55
							S23.47,32.06,23.17,32.06z"/>
					</g>
				</g>
				<g>
					<path class="st3" d="M21.36,49.7c-3.38,0-6.13-2.75-6.13-6.13s2.75-6.13,6.13-6.13c3.38,0,6.13,2.75,6.13,6.13
						S24.74,49.7,21.36,49.7z M21.36,38.55c-2.77,0-5.02,2.25-5.02,5.02c0,2.77,2.25,5.02,5.02,5.02s5.02-2.25,5.02-5.02
						C26.38,40.8,24.13,38.55,21.36,38.55z"/>
				</g>
			</g>
			<g>
				<path class="st3" d="M31.49,50.88c-1.55,0-3.09-0.18-4.59-0.54c-0.3-0.07-0.48-0.37-0.41-0.67c0.07-0.3,0.37-0.48,0.67-0.41
					c1.41,0.34,2.87,0.51,4.33,0.51c3.81,0,7.47-1.14,10.58-3.3c0.25-0.17,0.59-0.11,0.77,0.14c0.17,0.25,0.11,0.59-0.14,0.77
					C39.4,49.67,35.52,50.88,31.49,50.88z"/>
			</g>
			<g>
				<path class="st3" d="M50.14,36.11c-0.04,0-0.08,0-0.13-0.02c-0.3-0.07-0.48-0.37-0.41-0.66c0.33-1.39,0.49-2.82,0.49-4.26
					c0-10.26-8.34-18.6-18.6-18.6c-1.68,0-3.07,0.19-4.67,0.63c-0.3,0.08-0.6-0.09-0.68-0.39c-0.08-0.29,0.09-0.6,0.39-0.68
					c1.7-0.47,3.19-0.67,4.97-0.67c10.87,0,19.71,8.84,19.71,19.7c0,1.52-0.17,3.04-0.52,4.51C50.62,35.94,50.39,36.11,50.14,36.11z
					"/>
			</g>
			<g>
				<g>
					<g>
						<path class="st3" d="M11.59,16.99c-0.3,0-0.55-0.25-0.55-0.55v-5.06c0-0.31,0.25-0.55,0.55-0.55s0.55,0.25,0.55,0.55v5.06
							C12.14,16.74,11.89,16.99,11.59,16.99z"/>
					</g>
					<g>
						<path class="st3" d="M14.12,14.46H9.06c-0.3,0-0.55-0.25-0.55-0.55s0.25-0.55,0.55-0.55h5.06c0.3,0,0.55,0.25,0.55,0.55
							S14.42,14.46,14.12,14.46z"/>
					</g>
				</g>
				<g>
					<g>
						<path class="st3" d="M35.49,37.12h-5.06c-0.3,0-0.55-0.25-0.55-0.55s0.25-0.55,0.55-0.55h5.06c0.3,0,0.55,0.25,0.55,0.55
							S35.79,37.12,35.49,37.12z"/>
					</g>
				</g>
			</g>
		</g>
		<g>
			<g>
				<g>
					<path class="st4" d="M46.34,45.97c-0.62,0-1.24-0.13-1.83-0.39c-2.24-1.01-3.25-3.65-2.24-5.89c0.49-1.09,1.37-1.92,2.48-2.34
						c1.11-0.42,2.32-0.39,3.41,0.1s1.92,1.37,2.34,2.48s0.39,2.32-0.1,3.41l0,0c-0.49,1.09-1.37,1.92-2.48,2.34
						C47.41,45.87,46.88,45.97,46.34,45.97z M46.35,38.25c-0.39,0-0.78,0.07-1.16,0.21c-0.81,0.31-1.46,0.92-1.81,1.71
						c-0.73,1.64,0,3.57,1.64,4.31c0.79,0.36,1.68,0.38,2.49,0.07c0.81-0.31,1.46-0.92,1.81-1.71l0,0c0.36-0.79,0.38-1.68,0.07-2.49
						c-0.31-0.81-0.92-1.46-1.71-1.81C47.25,38.35,46.8,38.25,46.35,38.25z"/>
				</g>
			</g>
		</g>
	</g>
</g>
</svg>
