<?xml version="1.0" encoding="utf-8"?>
<!-- Generator: Adobe Illustrator 24.0.2, SVG Export Plug-In . SVG Version: 6.00 Build 0)  -->
<svg version="1.1" xmlns="http://www.w3.org/2000/svg" xmlns:xlink="http://www.w3.org/1999/xlink" x="0px" y="0px"
	 viewBox="0 0 60 60" style="enable-background:new 0 0 60 60;" xml:space="preserve">
<style type="text/css">
	.st0{fill:#19A500;}
	.st1{fill:none;}
	.st2{fill:none;stroke:#FFFFFF;stroke-width:1.2;stroke-linecap:round;stroke-linejoin:round;stroke-miterlimit:10;}
	.st3{fill:#FFFFFF;}
	.st4{fill:#EFEF00;}
</style>
<g id="Capa_2">
	<g>
		<g>
			<g id="Rectángulo_3799_18_">
				<path class="st0" d="M30,0L30,0c16.57,0,30,13.43,30,30v0c0,16.57-13.43,30-30,30h0C13.43,60,0,46.57,0,30v0
					C0,13.43,13.43,0,30,0z"/>
			</g>
		</g>
	</g>
</g>
<g id="Capa_1">
	<g>
		<g>
			<g id="Rectángulo_3799_1_">
				<rect class="st1" width="60" height="60"/>
			</g>
		</g>
	</g>
	<g>
		<g>
			<g>
				<path class="st3" d="M11.45,46.07c-0.33,0-0.6-0.27-0.6-0.6V20.2c0-0.33,0.27-0.6,0.6-0.6h36.32c0.33,0,0.6,0.27,0.6,0.6v6.94
					c0,0.33-0.27,0.6-0.6,0.6s-0.6-0.27-0.6-0.6V20.8H12.05v24.67C12.05,45.8,11.78,46.07,11.45,46.07z"/>
			</g>
			<g>
				<path class="st3" d="M47.77,46.07c-0.33,0-0.6-0.27-0.6-0.6v-6.99c0-0.33,0.27-0.6,0.6-0.6s0.6,0.27,0.6,0.6v6.99
					C48.37,45.8,48.1,46.07,47.77,46.07z"/>
			</g>
			<g>
				<path class="st3" d="M38.74,20.8c-0.09,0-0.19-0.02-0.28-0.07l-8.85-4.66l-8.5,4.57c-0.29,0.16-0.66,0.05-0.81-0.24
					c-0.16-0.29-0.05-0.66,0.24-0.81l8.78-4.72c0.17-0.1,0.38-0.1,0.56,0l9.13,4.8c0.29,0.15,0.41,0.52,0.25,0.81
					C39.17,20.68,38.96,20.8,38.74,20.8z"/>
			</g>
			<g>
				<path class="st3" d="M36.57,30.59H22.4c-0.33,0-0.6-0.27-0.6-0.6v-4.47c0-0.33,0.27-0.6,0.6-0.6h14.17c0.33,0,0.6,0.27,0.6,0.6
					v4.47C37.17,30.32,36.9,30.59,36.57,30.59z M23,29.39h12.97v-3.27H23V29.39z"/>
			</g>
			<g>
				<path class="st3" d="M34.16,46.17c-0.33,0-0.6-0.27-0.6-0.6v-9.32h-7.72v9.32c0,0.33-0.27,0.6-0.6,0.6s-0.6-0.27-0.6-0.6v-9.92
					c0-0.33,0.27-0.6,0.6-0.6h8.92c0.33,0,0.6,0.27,0.6,0.6v9.92C34.76,45.9,34.5,46.17,34.16,46.17z"/>
			</g>
			<g>
				<path class="st3" d="M15.74,45.8c-0.33,0-0.6-0.27-0.6-0.6V20.38c0-0.33,0.27-0.6,0.6-0.6s0.6,0.27,0.6,0.6V45.2
					C16.34,45.53,16.07,45.8,15.74,45.8z"/>
			</g>
			<g>
				<path class="st3" d="M41.23,45.8c-0.33,0-0.6-0.27-0.6-0.6V20.38c0-0.33,0.27-0.6,0.6-0.6s0.6,0.27,0.6,0.6V45.2
					C41.83,45.53,41.57,45.8,41.23,45.8z"/>
			</g>
			<g>
				<path class="st3" d="M51.23,46.51H8.05c-0.33,0-0.6-0.27-0.6-0.6s0.27-0.6,0.6-0.6h43.18c0.33,0,0.6,0.27,0.6,0.6
					S51.56,46.51,51.23,46.51z"/>
			</g>
			<g>
				<path class="st3" d="M29.6,15.75c-0.33,0-0.6-0.27-0.6-0.6V6.52c0-0.33,0.27-0.6,0.6-0.6s0.6,0.27,0.6,0.6v8.63
					C30.2,15.48,29.94,15.75,29.6,15.75z"/>
			</g>
			<g>
				<path class="st3" d="M33.44,13.73h-3.66c-0.33,0-0.6-0.27-0.6-0.6s0.27-0.6,0.6-0.6h3.06V9.14h-3.18c-0.33,0-0.6-0.27-0.6-0.6
					s0.27-0.6,0.6-0.6h3.78c0.33,0,0.6,0.27,0.6,0.6v4.59C34.04,13.47,33.77,13.73,33.44,13.73z"/>
			</g>
			<g>
				<path class="st3" d="M33.44,15.07c-0.16,0-0.31-0.06-0.42-0.17c-0.11-0.11-0.18-0.27-0.18-0.43v-1.9c0-0.33,0.27-0.6,0.6-0.6
					s0.6,0.27,0.6,0.6v1.29L36,13.83l-0.78-1.32c-0.11-0.19-0.11-0.43,0.01-0.62l0.73-1.18H33.5c-0.33,0-0.6-0.27-0.6-0.6
					s0.27-0.6,0.6-0.6h3.54c0.22,0,0.42,0.12,0.52,0.31c0.11,0.19,0.1,0.42-0.01,0.61l-1.11,1.79l1.12,1.9
					c0.11,0.18,0.11,0.41,0.01,0.6c-0.11,0.19-0.3,0.3-0.51,0.31L33.44,15.07C33.45,15.07,33.45,15.07,33.44,15.07z"/>
			</g>
		</g>
		<g>
			<g>
				<g>
					<path class="st4" d="M47.62,37.27c-0.61,0-1.23-0.13-1.82-0.39c-1.09-0.49-1.92-1.37-2.34-2.48s-0.39-2.32,0.1-3.41
						c1.01-2.24,3.65-3.24,5.89-2.24c1.09,0.49,1.92,1.37,2.34,2.48c0.42,1.11,0.39,2.32-0.1,3.41
						C50.95,36.29,49.33,37.27,47.62,37.27z M47.64,29.55c-1.24,0-2.43,0.72-2.98,1.92c-0.36,0.79-0.38,1.68-0.07,2.49
						c0.31,0.81,0.92,1.46,1.71,1.81c1.64,0.74,3.57,0,4.31-1.64c0.36-0.79,0.38-1.68,0.07-2.49c-0.31-0.81-0.92-1.46-1.71-1.81
						C48.53,29.65,48.08,29.55,47.64,29.55z"/>
				</g>
			</g>
		</g>
	</g>
</g>
</svg>
