<?xml version="1.0" encoding="utf-8"?>
<!-- Generator: Adobe Illustrator 24.0.2, SVG Export Plug-In . SVG Version: 6.00 Build 0)  -->
<svg version="1.1" xmlns="http://www.w3.org/2000/svg" xmlns:xlink="http://www.w3.org/1999/xlink" x="0px" y="0px"
	 viewBox="0 0 65 65" style="enable-background:new 0 0 65 65;" xml:space="preserve">
<style type="text/css">
	.st0{fill:none;}
	.st1{fill:none;stroke:#4C9F2E;stroke-width:2.4;stroke-linecap:round;stroke-linejoin:round;stroke-miterlimit:10;}
	.st2{fill:none;stroke:#94D040;stroke-width:2.4;stroke-linecap:round;stroke-linejoin:round;stroke-miterlimit:10;}
	.st3{display:none;}
	.st4{display:inline;fill:#98A6B0;}
	.st5{display:none;fill:none;stroke:#00A800;stroke-width:1.6;stroke-linecap:round;stroke-linejoin:round;stroke-miterlimit:10;}
	.st6{fill:none;stroke:#95A6B1;stroke-width:1.6;stroke-linecap:round;stroke-linejoin:round;}
	.st7{fill:none;stroke:#95A6B1;stroke-width:1.6;stroke-linecap:round;stroke-linejoin:round;stroke-miterlimit:10;}
	.st8{fill:none;stroke:#00A800;stroke-width:1.6;stroke-linecap:round;stroke-linejoin:round;stroke-miterlimit:10;}
</style>
<symbol  id="Textura-65px_2" viewBox="-32.5 -8.37 65 16.74">
	<rect x="-32.5" y="-8.37" class="st0" width="65" height="16.74"/>
	<g>
		<line class="st1" x1="5.71" y1="-3.49" x2="12.88" y2="-3.49"/>
		<line class="st1" x1="20.03" y1="-3.49" x2="20.61" y2="-3.49"/>
		<line class="st1" x1="-20.61" y1="-3.49" x2="-13.51" y2="-3.49"/>
		<line class="st2" x1="-13.97" y1="-3.49" x2="-1.45" y2="-3.49"/>
		<line class="st2" x1="-20.61" y1="2.62" x2="2.97" y2="2.62"/>
		<line class="st1" x1="2.25" y1="2.62" x2="20.61" y2="2.62"/>
		<line class="st1" x1="-20.61" y1="2.62" x2="-20.18" y2="2.62"/>
	</g>
</symbol>
<g id="BASE" class="st3">
</g>
<g id="Capa_1">
	<circle class="st5" cx="33.74" cy="23.9" r="21"/>
	<g>
		<g>
			
				<use xlink:href="#Textura-65px_2"  width="65" height="16.74" x="-32.5" y="-8.37" transform="matrix(0.9974 0 0 -0.9976 32.5 56.65)" style="overflow:visible;"/>
			<g>
				<path class="st6" d="M48.16,12.5C44.39,9.1,39.4,7.04,33.92,7.04c-1.24,0-2.46,0.11-3.65,0.31L28.7,7.72"/>
				<path class="st6" d="M15.02,16.89l-1.06,2.19c-1.3,2.75-2.03,5.83-2.03,9.08c0,4.41,1.34,8.51,3.64,11.91"/>
				<polyline class="st6" points="16.31,34.52 15.54,40.07 10.72,37.14 				"/>
				<g>
					<path class="st6" d="M42.12,47.66c7.37-3.09,11.61-10.5,11.01-18.05"/>
					<polyline class="st6" points="50.38,33.46 53.14,29.61 55.6,33.7 					"/>
				</g>
				<polyline class="st6" points="33.77,9.96 28.63,7.75 32.73,3.88 				"/>
				<g>
					<path class="st7" d="M39.61,43.63H26.79V23.65c0-3.54,2.87-6.41,6.41-6.41h0c3.54,0,6.41,2.87,6.41,6.41V43.63z"/>
					<line class="st7" x1="39.61" y1="31.89" x2="26.78" y2="31.89"/>
					<line class="st7" x1="39.61" y1="38.89" x2="26.78" y2="38.89"/>
					<path class="st7" d="M31.14,17.54v-3c0-0.23,0.18-0.41,0.41-0.41h3.29c0.23,0,0.41,0.18,0.41,0.41v3.04"/>
				</g>
				<path class="st8" d="M23.95,9.31c0.37,0.8,0.39,1.67,0.13,2.44c-0.28,0.85-0.9,1.59-1.79,1.99c-1.68,0.77-3.67,0.03-4.43-1.65
					s-0.03-3.67,1.65-4.43C21.2,6.89,23.18,7.63,23.95,9.31z"/>
			</g>
		</g>
		<rect class="st0" width="65" height="65"/>
	</g>
</g>
</svg>
