<?xml version="1.0" encoding="utf-8"?>
<!-- Generator: Adobe Illustrator 24.0.2, SVG Export Plug-In . SVG Version: 6.00 Build 0)  -->
<svg version="1.1" id="Capa_1" xmlns="http://www.w3.org/2000/svg" xmlns:xlink="http://www.w3.org/1999/xlink" x="0px" y="0px"
	 viewBox="0 0 65 65" style="enable-background:new 0 0 65 65;" xml:space="preserve">
<style type="text/css">
	.st0{fill:none;}
	.st1{fill:#4DA12E;}
	.st2{fill:#96D200;}
	.st3{fill:none;stroke:#95A6B1;stroke-width:1.6;stroke-linecap:round;stroke-linejoin:round;}
	.st4{fill:none;stroke:#00A800;stroke-width:1.6;stroke-linecap:round;stroke-linejoin:round;stroke-miterlimit:10;}
	.st5{fill:none;stroke:#96A4AE;stroke-width:1.6;stroke-linecap:round;stroke-linejoin:round;stroke-miterlimit:10;}
</style>
<g>
	<g>
		<g>
			<rect y="48.26" class="st0" width="65" height="16.74"/>
		</g>
		<g>
			<g>
				<path class="st1" d="M45.38,61.32h-7.17c-0.66,0-1.2-0.54-1.2-1.2s0.54-1.2,1.2-1.2h7.17c0.66,0,1.2,0.54,1.2,1.2
					S46.04,61.32,45.38,61.32z"/>
			</g>
			<g>
				<path class="st1" d="M53.11,61.32h-0.58c-0.66,0-1.2-0.54-1.2-1.2s0.54-1.2,1.2-1.2h0.58c0.66,0,1.2,0.54,1.2,1.2
					S53.77,61.32,53.11,61.32z"/>
			</g>
			<g>
				<path class="st1" d="M18.99,61.32h-7.1c-0.66,0-1.2-0.54-1.2-1.2s0.54-1.2,1.2-1.2h7.1c0.66,0,1.2,0.54,1.2,1.2
					S19.65,61.32,18.99,61.32z"/>
			</g>
			<g>
				<path class="st2" d="M31.05,61.32H18.53c-0.66,0-1.2-0.54-1.2-1.2s0.54-1.2,1.2-1.2h12.52c0.66,0,1.2,0.54,1.2,1.2
					S31.71,61.32,31.05,61.32z"/>
			</g>
			<g>
				<path class="st2" d="M35.47,55.21H11.89c-0.66,0-1.2-0.54-1.2-1.2s0.54-1.2,1.2-1.2h23.58c0.66,0,1.2,0.54,1.2,1.2
					S36.14,55.21,35.47,55.21z"/>
			</g>
			<g>
				<path class="st1" d="M53.11,55.21H34.75c-0.66,0-1.2-0.54-1.2-1.2s0.54-1.2,1.2-1.2h18.36c0.66,0,1.2,0.54,1.2,1.2
					S53.77,55.21,53.11,55.21z"/>
			</g>
			<g>
				<path class="st1" d="M12.32,55.21h-0.43c-0.66,0-1.2-0.54-1.2-1.2s0.54-1.2,1.2-1.2h0.43c0.66,0,1.2,0.54,1.2,1.2
					S12.98,55.21,12.32,55.21z"/>
			</g>
		</g>
	</g>
</g>
<g>
	<g>
		<path id="Trazado_12109_1_" class="st3" d="M17.39,20.84c-0.51-0.16-1-0.39-1.46-0.68"/>
		<path id="Trazado_12110_1_" class="st3" d="M14.14,11.57c1.06-1.97,2.27-3.85,3.63-5.63c0.61-0.82,1.76-0.99,2.58-0.38
			c0.14,0.11,0.27,0.24,0.38,0.38c1.83,2.45,4.71,6.67,4.71,9c0,3.42-2.77,6.18-6.18,6.18c0,0,0,0,0,0c-0.63,0-1.26-0.1-1.86-0.28"
			/>
		<path id="Trazado_12111_1_" class="st3" d="M29.42,21.95L26.7,36.39H12.26L9.54,21.95 M10.34,25.64c1.52,0,1.52,1.15,3.04,1.15
			s1.52-1.15,3.04-1.15c1.52,0,1.52,1.15,3.04,1.15c1.52,0,1.52-1.15,3.05-1.15c1.52,0,1.52,1.15,3.05,1.15s1.52-1.15,3.05-1.15"/>
		<path class="st3" d="M22.61,16c-0.49,1.06-1.42,1.87-2.55,2.2"/>
		<path class="st3" d="M36.13,21.38c1.73,0,1.73,1.15,3.46,1.15s1.73-1.15,3.46-1.15s1.73,1.15,3.46,1.15
			c1.73,0,1.73-1.15,3.46-1.15c1.73,0,1.73,1.15,3.47,1.15c1.73,0,1.73-1.15,3.47-1.15"/>
		<g>
			<rect id="Rectángulo_4972" x="51.87" y="39.39" class="st3" width="2.66" height="5.07"/>
			<path id="Trazado_12120" class="st3" d="M51.87,43.73h-3.21c-2.6,0-4.71-2.11-4.71-4.71v-2.63h3.87v2.3
				c0,0.78,0.63,1.41,1.41,1.41h0l2.64,0.01L51.87,43.73z"/>
		</g>
		<path class="st4" d="M14.02,14.71c0.34,0.74,0.36,1.55,0.12,2.27c-0.26,0.79-0.84,1.48-1.66,1.85c-1.56,0.71-3.41,0.03-4.12-1.54
			c-0.71-1.56-0.03-3.41,1.54-4.12C11.46,12.46,13.31,13.15,14.02,14.71z"/>
		<line class="st5" x1="35.41" y1="32.76" x2="27.38" y2="32.76"/>
		<line class="st5" x1="35.41" y1="28.92" x2="28.1" y2="28.92"/>
		<rect x="35.41" y="6.1" class="st3" width="21.51" height="30.3"/>
	</g>
	<rect x="0" class="st0" width="65" height="65"/>
</g>
</svg>
