<svg id="Capa_1" data-name="Capa 1" xmlns="http://www.w3.org/2000/svg" viewBox="0 0 47 47"><defs><style>.cls-1{fill:none;}.cls-2{fill:#fff;}</style></defs><title>icono_menu-distancia_linea</title><rect class="cls-1" width="47" height="47"/><g id="Línea_2149" data-name="Línea 2149"><path class="cls-2" d="M43.4,41.7H3.6a.9.9,0,0,1-.8-.8.8.8,0,0,1,.8-.7H43.4a.8.8,0,0,1,.8.7A.9.9,0,0,1,43.4,41.7Z"/></g><g id="Rectángulo_4531" data-name="Rectángulo 4531"><path class="cls-2" d="M22.3,36.7H3.6a.7.7,0,0,1-.7-.7V32.3a.8.8,0,0,1,.7-.8H22.3a.9.9,0,0,1,.8.8V36A.8.8,0,0,1,22.3,36.7ZM4.4,35.2H21.6V33H4.4Z"/></g><g id="Rectángulo_4531-2" data-name="Rectángulo 4531"><path class="cls-2" d="M33.1,24.7H29.4a.8.8,0,0,1-.8-.7V5.3a.9.9,0,0,1,.8-.8h3.7a.9.9,0,0,1,.8.8V24A.8.8,0,0,1,33.1,24.7Zm-3-1.5h2.3V6H30.1Z"/></g><g id="Trazado_11518" data-name="Trazado 11518"><path class="cls-2" d="M13.3,28a.7.7,0,0,1-.8-.7V21.8a7.6,7.6,0,0,1,7.6-7.6H24a.8.8,0,0,1,.8.7.9.9,0,0,1-.8.8H20.1A6.1,6.1,0,0,0,14,21.8v5.5A.7.7,0,0,1,13.3,28Z"/></g><g id="Trazado_11519" data-name="Trazado 11519"><path class="cls-2" d="M13.3,28a.7.7,0,0,1-.6-.2l-2.4-2.5a.7.7,0,0,1,1-1l2,1.9,1.9-1.9a.8.8,0,0,1,1.1,0,.7.7,0,0,1,0,1l-2.5,2.5C13.7,28,13.5,28,13.3,28Z"/></g><g id="Elipse_2119" data-name="Elipse 2119"><path class="cls-2" d="M10.9,14.8A3.8,3.8,0,1,1,14.7,11,3.8,3.8,0,0,1,10.9,14.8Zm0-6.1A2.3,2.3,0,0,0,8.6,11a2.3,2.3,0,0,0,2.3,2.3A2.4,2.4,0,0,0,13.2,11,2.3,2.3,0,0,0,10.9,8.7Z"/></g><path class="cls-2" d="M6,33a.8.8,0,0,1-.8-.7V21.7a15.9,15.9,0,0,1,1.5-6.5.8.8,0,0,1,1.1-.4.8.8,0,0,1,.3,1,13.5,13.5,0,0,0-1.4,5.9V32.3A.7.7,0,0,1,6,33Z"/><path class="cls-2" d="M20,33a.8.8,0,0,1-.8-.7V25a4.1,4.1,0,0,1,4.2-4.1h6a.7.7,0,0,1,.7.7.8.8,0,0,1-.7.8h-6A2.7,2.7,0,0,0,20.7,25v7.3A.7.7,0,0,1,20,33Z"/><path class="cls-2" d="M16.2,8.9a.8.8,0,0,1-.8-.5.8.8,0,0,1,.6-.9,13.9,13.9,0,0,1,4-.6h9.4a.7.7,0,0,1,.7.7.8.8,0,0,1-.7.8H20a14.9,14.9,0,0,0-3.6.5Z"/><path class="cls-2" d="M40.1,22.4h-7a.8.8,0,0,1-.7-.8.7.7,0,0,1,.7-.7h7a.7.7,0,0,1,.7.7A.8.8,0,0,1,40.1,22.4Z"/><path class="cls-2" d="M40.1,8.4h-7a.8.8,0,0,1-.7-.8.7.7,0,0,1,.7-.7h7a.7.7,0,0,1,.7.7A.8.8,0,0,1,40.1,8.4Z"/><path class="cls-2" d="M6,41.7a.9.9,0,0,1-.8-.8V36a.9.9,0,0,1,.8-.8.8.8,0,0,1,.7.8v4.9A.8.8,0,0,1,6,41.7Z"/><path class="cls-2" d="M20,41.7a.9.9,0,0,1-.8-.8V36a.9.9,0,0,1,.8-.8.8.8,0,0,1,.7.8v4.9A.8.8,0,0,1,20,41.7Z"/></svg>