<svg id="Capa_1" data-name="Capa 1" xmlns="http://www.w3.org/2000/svg" viewBox="0 0 65 65"><defs><style>.cls-1{fill:none;}.cls-2{fill:#00a800;}.cls-3{fill:#95a6b1;}.cls-4{fill:#4da12e;}.cls-5{fill:#96d200;}</style></defs><title>capacidad_descarga</title><rect class="cls-1" width="65" height="65"/><g id="Trazado_11848" data-name="Trazado 11848"><path class="cls-2" d="M11.4,27.5a4.6,4.6,0,0,1,0-9.1h0A4.6,4.6,0,0,1,16,22.9h0A4.6,4.6,0,0,1,11.4,27.5Zm0-7.5h0a3,3,0,0,0,0,5.9,3,3,0,0,0,3-3h0A3,3,0,0,0,11.4,20Z"/></g><g id="Línea_2256" data-name="Línea 2256"><path class="cls-3" d="M35.5,39a.8.8,0,0,1-.8-.8V12.8a.8.8,0,0,1,1.6,0V38.2A.8.8,0,0,1,35.5,39Z"/></g><g id="Trazado_11606" data-name="Trazado 11606"><path class="cls-3" d="M38.7,39H11.4a.7.7,0,0,1-.8-.8V30a.8.8,0,0,1,.8-.8.9.9,0,0,1,.8.8v7.4H38.7a.9.9,0,0,1,.8.8A.8.8,0,0,1,38.7,39Z"/></g><g id="Trazado_11607" data-name="Trazado 11607"><path class="cls-3" d="M41.1,24.1a.8.8,0,0,1-.8-.8V11.4c0-1.7-.9-3.1-2-3.1H14c-1,0-1.8,1.3-1.8,2.9v4.7a.9.9,0,0,1-.8.8.8.8,0,0,1-.8-.8V11.2c0-2.5,1.5-4.5,3.4-4.5H38.3c2,0,3.6,2.1,3.6,4.7V23.3A.9.9,0,0,1,41.1,24.1Z"/></g><g id="Línea_2257" data-name="Línea 2257"><path class="cls-3" d="M11.4,13.6a.9.9,0,0,1-.8-.8.8.8,0,0,1,.8-.8H41.1a.8.8,0,0,1,.8.8.9.9,0,0,1-.8.8Z"/></g><g id="Línea_2258" data-name="Línea 2258"><path class="cls-3" d="M27.4,39a.8.8,0,0,1-.8-.8V12.8a.9.9,0,0,1,.8-.8.8.8,0,0,1,.8.8V38.2A.7.7,0,0,1,27.4,39Z"/></g><g id="Línea_2259" data-name="Línea 2259"><path class="cls-3" d="M35.5,17.5H27.4a.8.8,0,0,1,0-1.6h8.1a.8.8,0,0,1,0,1.6Z"/></g><g id="Línea_2260" data-name="Línea 2260"><path class="cls-3" d="M35.5,21.6H27.4a.9.9,0,0,1-.8-.8.8.8,0,0,1,.8-.8h8.1a.8.8,0,0,1,.8.8A.9.9,0,0,1,35.5,21.6Z"/></g><g id="Línea_2261" data-name="Línea 2261"><path class="cls-3" d="M35.5,25.8H27.4a.8.8,0,0,1-.8-.8.9.9,0,0,1,.8-.8h8.1a.9.9,0,0,1,.8.8A.8.8,0,0,1,35.5,25.8Z"/></g><g id="Línea_2262" data-name="Línea 2262"><path class="cls-3" d="M35.5,29.9H27.4a.8.8,0,0,1-.8-.8.9.9,0,0,1,.8-.8h8.1a.9.9,0,0,1,.8.8A.8.8,0,0,1,35.5,29.9Z"/></g><g id="Línea_2263" data-name="Línea 2263"><path class="cls-3" d="M35.5,34H27.4a.8.8,0,0,1-.8-.8.9.9,0,0,1,.8-.8h8.1a.9.9,0,0,1,.8.8A.8.8,0,0,1,35.5,34Z"/></g><g id="Rectángulo_4559" data-name="Rectángulo 4559"><path class="cls-3" d="M49.2,24.1H44.8a1.3,1.3,0,0,1-1.2-1.3V21a1.3,1.3,0,0,1,1.2-1.2h4.4A1.2,1.2,0,0,1,50.4,21v1.8A1.2,1.2,0,0,1,49.2,24.1Zm-4-1.6h3.6V21.4H45.2Zm4-1.1Z"/></g><g id="Trazado_11612" data-name="Trazado 11612"><path class="cls-3" d="M54.7,45H40.2a.7.7,0,0,1-.8-.8V39.8a1.7,1.7,0,0,1-1.6-1.7v-.4a1.6,1.6,0,0,1,1.6-1.6V33.6a1.7,1.7,0,0,1-1.6-1.7v-.4a1.7,1.7,0,0,1,1.6-1.7v-4a.7.7,0,0,1,.8-.8.8.8,0,0,1,.8.8v4.8a.8.8,0,0,1-.8.8h-.7v.5h.8a.8.8,0,0,1,.8.8v4.1a.9.9,0,0,1-.8.8h-.7v.4h.8a.8.8,0,0,1,.8.8v4.4H53.9V39a.8.8,0,0,1,.8-.8h.7v-.5h-.8a.9.9,0,0,1-.8-.8V32.8a.8.8,0,0,1,.8-.8h.7v-.5h-.8a.8.8,0,0,1-.8-.8V25.8a.8.8,0,0,1,.8-.8.7.7,0,0,1,.8.8v4a1.7,1.7,0,0,1,1.6,1.7v.4a1.7,1.7,0,0,1-1.6,1.7v2.5a1.6,1.6,0,0,1,1.6,1.6v.4a1.7,1.7,0,0,1-1.6,1.7v4.4A.7.7,0,0,1,54.7,45Z"/></g><g id="Línea_2265" data-name="Línea 2265"><path class="cls-3" d="M51.9,32.3H43a.9.9,0,0,1-.8-.8.8.8,0,0,1,.8-.8h8.9a.8.8,0,0,1,.8.8A.9.9,0,0,1,51.9,32.3Z"/></g><g id="Línea_2266" data-name="Línea 2266"><path class="cls-3" d="M51.9,38.5H43a.9.9,0,0,1-.8-.8.8.8,0,0,1,.8-.8h8.9a.8.8,0,0,1,.8.8A.9.9,0,0,1,51.9,38.5Z"/></g><g id="Rectángulo_4560" data-name="Rectángulo 4560"><path class="cls-3" d="M55.6,47.6H39.3a1.5,1.5,0,0,1-1.5-1.5V44.9a1.5,1.5,0,0,1,1.5-1.5H55.6a1.5,1.5,0,0,1,1.5,1.5v1.2A1.5,1.5,0,0,1,55.6,47.6ZM39.4,46H55.5V45H39.4Zm16.2-1Z"/></g><g id="Rectángulo_4561" data-name="Rectángulo 4561"><path class="cls-3" d="M55.6,26.6H39.2a1.4,1.4,0,0,1-1.4-1.4V23.9a1.4,1.4,0,0,1,1.4-1.4H55.6A1.4,1.4,0,0,1,57,23.9v1.3A1.4,1.4,0,0,1,55.6,26.6ZM39.4,25h16v-.9h-16Zm16.2-.9Z"/></g><rect class="cls-1" y="48.3" width="65" height="16.74"/><path class="cls-4" d="M45.4,61.3H38.2A1.2,1.2,0,0,1,37,60.1a1.3,1.3,0,0,1,1.2-1.2h7.2a1.3,1.3,0,0,1,1.2,1.2A1.2,1.2,0,0,1,45.4,61.3Z"/><path class="cls-4" d="M53.1,61.3h-.6a1.2,1.2,0,0,1-1.2-1.2,1.3,1.3,0,0,1,1.2-1.2h.6a1.2,1.2,0,0,1,1.2,1.2A1.2,1.2,0,0,1,53.1,61.3Z"/><path class="cls-4" d="M19,61.3H11.9a1.2,1.2,0,0,1-1.2-1.2,1.2,1.2,0,0,1,1.2-1.2H19a1.2,1.2,0,0,1,1.2,1.2A1.2,1.2,0,0,1,19,61.3Z"/><path class="cls-5" d="M31,61.3H18.5a1.2,1.2,0,0,1-1.2-1.2,1.3,1.3,0,0,1,1.2-1.2H31a1.2,1.2,0,0,1,1.2,1.2A1.2,1.2,0,0,1,31,61.3Z"/><path class="cls-5" d="M35.5,55.2H11.9a1.2,1.2,0,1,1,0-2.4H35.5a1.2,1.2,0,0,1,0,2.4Z"/><path class="cls-4" d="M53.1,55.2H34.7a1.2,1.2,0,0,1,0-2.4H53.1a1.2,1.2,0,0,1,0,2.4Z"/><path class="cls-4" d="M12.3,55.2h-.4a1.2,1.2,0,1,1,0-2.4h.4a1.2,1.2,0,0,1,0,2.4Z"/></svg>