<svg xmlns="http://www.w3.org/2000/svg" width="93.143" height="9" viewBox="0 0 93.143 9">
  <g id="Grupo_16722" data-name="Grupo 16722" transform="translate(-415.5 -2293)">
    <line id="Línea_2436" data-name="Línea 2436" x2="90.642" transform="translate(415.5 2297.5)" fill="none" stroke="#505d6c" stroke-width="1" opacity="0.29"/>
    <g id="Trazado_11899" data-name="Trazado 11899" transform="translate(499.643 2302) rotate(-90)" fill="#fff">
      <path d="M 4.5 8 C 2.570090055465698 8 1 6.429910182952881 1 4.5 C 1 2.570090055465698 2.570090055465698 1 4.5 1 C 6.429910182952881 1 8 2.570090055465698 8 4.5 C 8 5.237659931182861 7.764450073242188 5.91195011138916 7.236249923706055 6.68632984161377 L 7.231080055236816 6.693910121917725 L 7.226049900054932 6.701580047607422 C 6.816100120544434 7.326940059661865 5.788169860839844 8 4.5 8 Z" stroke="none"/>
      <path d="M 4.5 2 C 3.121500015258789 2 2 3.121500015258789 2 4.5 C 2 5.878499984741211 3.121500015258789 7 4.5 7 C 5.472350120544434 7 6.175139904022217 6.480679988861084 6.389729976654053 6.153340339660645 L 6.399789810180664 6.13798999786377 L 6.410130023956299 6.122829914093018 C 6.929920196533203 5.360790252685547 7 4.874849796295166 7 4.5 C 7 3.121500015258789 5.878499984741211 2 4.5 2 M 4.5 0 C 6.98528003692627 0 9 2.01471996307373 9 4.5 C 9 5.424520015716553 8.721199989318848 6.283929824829102 8.062370300292969 7.249819755554199 C 7.435930252075195 8.205430030822754 6.060760021209717 9 4.5 9 C 2.01471996307373 9 0 6.98528003692627 0 4.5 C 0 2.01471996307373 2.01471996307373 0 4.5 0 Z" stroke="none" fill="#00af00"/>
    </g>
  </g>
</svg>
