<svg id="Capa_1" data-name="Capa 1" xmlns="http://www.w3.org/2000/svg" viewBox="0 0 65 65"><defs><style>.cls-1{fill:none;}.cls-2{fill:#4da12e;}.cls-3{fill:#96d200;}.cls-4{fill:#00a800;}.cls-5{fill:#95a6b1;}</style></defs><title>numero_bahias</title><rect class="cls-1" width="65" height="65"/><rect class="cls-1" y="48.3" width="65" height="16.74"/><path class="cls-2" d="M45.4,61.3H38.2A1.2,1.2,0,0,1,37,60.1a1.3,1.3,0,0,1,1.2-1.2h7.2a1.3,1.3,0,0,1,1.2,1.2A1.2,1.2,0,0,1,45.4,61.3Z"/><path class="cls-2" d="M53.1,61.3h-.6a1.2,1.2,0,0,1-1.2-1.2,1.3,1.3,0,0,1,1.2-1.2h.6a1.2,1.2,0,0,1,1.2,1.2A1.2,1.2,0,0,1,53.1,61.3Z"/><path class="cls-2" d="M19,61.3H11.9a1.2,1.2,0,0,1-1.2-1.2,1.2,1.2,0,0,1,1.2-1.2H19a1.2,1.2,0,0,1,1.2,1.2A1.2,1.2,0,0,1,19,61.3Z"/><path class="cls-3" d="M31,61.3H18.5a1.2,1.2,0,0,1-1.2-1.2,1.3,1.3,0,0,1,1.2-1.2H31a1.2,1.2,0,0,1,1.2,1.2A1.2,1.2,0,0,1,31,61.3Z"/><path class="cls-3" d="M35.5,55.2H11.9a1.2,1.2,0,1,1,0-2.4H35.5a1.2,1.2,0,0,1,0,2.4Z"/><path class="cls-2" d="M53.1,55.2H34.7a1.2,1.2,0,0,1,0-2.4H53.1a1.2,1.2,0,0,1,0,2.4Z"/><path class="cls-2" d="M12.3,55.2h-.4a1.2,1.2,0,1,1,0-2.4h.4a1.2,1.2,0,0,1,0,2.4Z"/><g id="Trazado_11848" data-name="Trazado 11848"><path class="cls-4" d="M14.8,30.8a4.3,4.3,0,0,1-4.3-4.3,4.2,4.2,0,0,1,7.3-3,4.2,4.2,0,0,1,1.2,3h0A4.2,4.2,0,0,1,14.8,30.8Zm0-7h0a2.8,2.8,0,0,0-2.7,2.7,2.7,2.7,0,0,0,2.7,2.7,2.8,2.8,0,0,0,2.7-2.7h0a3.3,3.3,0,0,0-.8-1.9A2.7,2.7,0,0,0,14.8,23.8Z"/></g><path class="cls-5" d="M35.4,38.5H20.1A7.7,7.7,0,0,1,12.6,33a.7.7,0,0,1,.5-1c.4-.2.8.1,1,.5a6.2,6.2,0,0,0,6,4.4H35.4a6.3,6.3,0,0,0,6.3-6.3,6.3,6.3,0,0,0-6.3-6.3H20.1a.7.7,0,0,1-.8-.8.8.8,0,0,1,.8-.8H35.4a7.9,7.9,0,0,1,0,15.8Z"/><path class="cls-5" d="M58.7,43H54.3a.9.9,0,0,1-.8-.8.8.8,0,0,1,.8-.8h4.4a.8.8,0,0,1,.8.8A.9.9,0,0,1,58.7,43Z"/><path class="cls-5" d="M45.9,43H42.5a.9.9,0,0,1-.8-.8V28.9a4.2,4.2,0,0,1,4.2-4.2h5.5a3.4,3.4,0,0,1,3,1.8l1.5,3.6a2.9,2.9,0,0,0,1.3,1.4,4.3,4.3,0,0,1,2.3,3.8v4.3a.8.8,0,0,1-.8.8.7.7,0,0,1-.8-.8V35.3a2.8,2.8,0,0,0-1.5-2.4,4.8,4.8,0,0,1-1.9-2.1l-1.6-3.6a1.9,1.9,0,0,0-1.5-.9H45.9a2.6,2.6,0,0,0-2.6,2.6V41.4h2.6a.8.8,0,0,1,.8.8A.9.9,0,0,1,45.9,43Z"/><path class="cls-5" d="M42.5,43H25.8a.9.9,0,0,1-.8-.8.8.8,0,0,1,.8-.8H41.7V38.5H15.2a1.4,1.4,0,0,0-1.4,1.4,1.2,1.2,0,0,0,.4,1,1.4,1.4,0,0,0,1,.5h2.2a.8.8,0,0,1,.8.8.9.9,0,0,1-.8.8H15.2a3.1,3.1,0,0,1-2.2-.9,3.5,3.5,0,0,1-.8-2.2,2.9,2.9,0,0,1,3-3H42.5a.7.7,0,0,1,.8.8v4.5A.8.8,0,0,1,42.5,43Z"/><path class="cls-5" d="M21.6,47a5.1,5.1,0,0,1-5.1-5.1,5,5,0,0,1,5.1-5,5,5,0,0,1,5,5A5,5,0,0,1,21.6,47Zm0-8.5a3.5,3.5,0,0,0-3.5,3.4,3.5,3.5,0,0,0,3.5,3.5A3.5,3.5,0,0,0,25,41.9,3.4,3.4,0,0,0,21.6,38.5Z"/><path class="cls-5" d="M21.6,44.6a2.7,2.7,0,0,1,0-5.3,2.7,2.7,0,0,1,0,5.3Zm0-3.7a1,1,0,0,0-1,1,1,1,0,1,0,2,0A1,1,0,0,0,21.6,40.9Z"/><path class="cls-5" d="M50.1,47a5,5,0,0,1-5-5.1,5,5,0,0,1,10,0A5,5,0,0,1,50.1,47Zm0-8.5a3.4,3.4,0,0,0-3.4,3.4,3.4,3.4,0,1,0,6.8,0A3.4,3.4,0,0,0,50.1,38.5Z"/><path class="cls-5" d="M50.1,44.6a2.7,2.7,0,0,1,0-5.3,2.7,2.7,0,0,1,0,5.3Zm0-3.7a1,1,0,0,0-1,1,1,1,0,1,0,2,0A1,1,0,0,0,50.1,40.9Z"/><path class="cls-5" d="M58.7,43a.8.8,0,0,1-.8-.8.7.7,0,0,1,.8-.8.5.5,0,0,0,.5-.5V39a.5.5,0,0,0-.5-.5.8.8,0,0,1-.8-.8.7.7,0,0,1,.8-.8A2.1,2.1,0,0,1,60.8,39v1.9A2.2,2.2,0,0,1,58.7,43Z"/><path class="cls-5" d="M58.7,40.4a2.8,2.8,0,0,1-2.8-2.7,2.9,2.9,0,0,1,2.8-2.8.9.9,0,0,1,.8.8.8.8,0,0,1-.8.8,1.2,1.2,0,0,0-1.2,1.2,1.1,1.1,0,0,0,1.2,1.1.9.9,0,0,1,.8.8A.8.8,0,0,1,58.7,40.4Z"/><path class="cls-5" d="M51.9,33.2H46a.9.9,0,0,1-.8-.8V27.8A.8.8,0,0,1,46,27h4.9a.7.7,0,0,1,.7.6l1.1,4.6a.9.9,0,0,1-.1.7A.9.9,0,0,1,51.9,33.2Zm-5.1-1.6h4.1l-.7-3H46.8Z"/><path class="cls-5" d="M48.1,35.4h-2a.7.7,0,0,1-.8-.8.8.8,0,0,1,.8-.8h2a.9.9,0,0,1,.8.8A.8.8,0,0,1,48.1,35.4Z"/><path class="cls-5" d="M24.3,24.3H20.1a.7.7,0,0,1-.8-.8V21.4a.7.7,0,0,1,.8-.8h4.2a.8.8,0,0,1,.8.8v2.1A.8.8,0,0,1,24.3,24.3Zm-3.4-1.6h2.6v-.5H20.9Z"/><path class="cls-5" d="M32.6,24.3H28.3a.8.8,0,0,1-.8-.8V21.4a.8.8,0,0,1,.8-.8h4.3a.8.8,0,0,1,.8.8v2.1A.8.8,0,0,1,32.6,24.3Zm-3.5-1.6h2.7v-.5H29.1Z"/><path class="cls-5" d="M34.9,38.5a.8.8,0,0,1-.8-.8V22.4a.7.7,0,0,1,.8-.8.8.8,0,0,1,.8.8V37.7A.9.9,0,0,1,34.9,38.5Z"/><path class="cls-5" d="M38.1,38.5a.9.9,0,0,1-.8-.8V22.4a.8.8,0,0,1,1.6,0V37.7A.9.9,0,0,1,38.1,38.5Z"/><path class="cls-5" d="M38.1,26.9H35.2a.7.7,0,0,1-.8-.8.8.8,0,0,1,.8-.8h2.9a.9.9,0,0,1,.8.8A.8.8,0,0,1,38.1,26.9Z"/><path class="cls-5" d="M38.1,30.1H35.2a.8.8,0,0,1-.8-.8.7.7,0,0,1,.8-.8h2.9a.8.8,0,0,1,.8.8A.9.9,0,0,1,38.1,30.1Z"/><path class="cls-5" d="M38.1,33.2H35.2a.8.8,0,0,1-.8-.8.7.7,0,0,1,.8-.8h2.9a.8.8,0,0,1,.8.8A.9.9,0,0,1,38.1,33.2Z"/><path class="cls-5" d="M38.1,36.3H35.2a.8.8,0,0,1-.8-.8.7.7,0,0,1,.8-.8h2.9a.8.8,0,0,1,.8.8A.9.9,0,0,1,38.1,36.3Z"/><path class="cls-5" d="M6.3,47a.9.9,0,0,1-.8-.8V10.3a.8.8,0,0,1,1.6,0V46.2A.9.9,0,0,1,6.3,47Z"/><path class="cls-5" d="M6.3,16.2,5.7,16a1.4,1.4,0,0,1-.2-.6V8.1a.8.8,0,0,1,.8-.8H60.7a.8.8,0,0,1,.8.8,5.1,5.1,0,0,1-4.7,5L6.3,16.2Zm.8-7.3v5.7l49.6-3.1a3.5,3.5,0,0,0,3.1-2.6Z"/><path class="cls-5" d="M13.2,15.8l-.6-.3L5.7,8.6a.8.8,0,0,1,0-1.1.9.9,0,0,1,1.2,0l6.9,6.9a.8.8,0,0,1,0,1.1A.9.9,0,0,1,13.2,15.8Z"/><path class="cls-5" d="M13.2,15.8l-.5-.2a.8.8,0,0,1-.1-1.2l6.6-6.9a.8.8,0,0,1,1.1,0,.7.7,0,0,1,.1,1.1l-6.6,6.9A.9.9,0,0,1,13.2,15.8Z"/><path class="cls-5" d="M26.5,15l-.6-.2L19.3,8.7a.8.8,0,0,1-.1-1.2.8.8,0,0,1,1.1,0L27,13.6a.7.7,0,0,1,.1,1.1Z"/><path class="cls-5" d="M26.5,14.9a.7.7,0,0,1-.6-.2.8.8,0,0,1,0-1.1l6.6-6.1a.9.9,0,0,1,1.2,0,.9.9,0,0,1-.1,1.2l-6.6,6C26.9,14.9,26.7,14.9,26.5,14.9Z"/><path class="cls-5" d="M40,14.1h-.5L32.6,8.7a.8.8,0,0,1-.2-1.1.9.9,0,0,1,1.2-.2l6.9,5.3a.8.8,0,0,1,.1,1.1A.7.7,0,0,1,40,14.1Z"/><path class="cls-5" d="M40,14.1a.9.9,0,0,1-.7-.3.9.9,0,0,1,.2-1.1l7.2-5.3a.8.8,0,0,1,1.1.2.7.7,0,0,1-.2,1.1L40.5,14Z"/><path class="cls-5" d="M53.8,13.2h-.4L46.7,8.7a.7.7,0,0,1-.2-1.1.9.9,0,0,1,1.1-.2l6.6,4.4a.8.8,0,0,1,.3,1.1A.9.9,0,0,1,53.8,13.2Z"/><path class="cls-5" d="M53.8,13.2a.9.9,0,0,1-.7-.3,1,1,0,0,1,.3-1.2l6.8-4.3a.9.9,0,0,1,1.1.2.8.8,0,0,1-.2,1.2l-6.9,4.3Z"/><path class="cls-5" d="M60.2,47H4a.9.9,0,0,1-.8-.8.8.8,0,0,1,.8-.8H60.2a.8.8,0,0,1,.8.8A.9.9,0,0,1,60.2,47Z"/></svg>