<svg id="Capa_1" data-name="Capa 1" xmlns="http://www.w3.org/2000/svg" viewBox="0 0 65 65"><defs><style>.cls-1{fill:#95a6b1;}.cls-2{fill:#00a800;}.cls-3{fill:none;}.cls-4{fill:#4da12e;}.cls-5{fill:#96d200;}</style></defs><title>tiempo_descarga</title><g id="Trazado_11838" data-name="Trazado 11838"><path class="cls-1" d="M57.7,38.2H49a.9.9,0,0,1-.8-.8V27.9a.9.9,0,0,1,.8-.8h8.5a.8.8,0,0,1,0,1.6H49.8v7.9h7.9a.8.8,0,0,1,.8.8A.9.9,0,0,1,57.7,38.2Z"/></g><path class="cls-1" d="M49,38.8H45.9a.8.8,0,0,1,0-1.6h2.3V28.1H45.9a.9.9,0,0,1-.8-.8.8.8,0,0,1,.8-.8H49a.7.7,0,0,1,.8.8V38A.8.8,0,0,1,49,38.8Z"/><g id="Trazado_11848" data-name="Trazado 11848"><path class="cls-2" d="M15.6,16.7a4.6,4.6,0,1,1,0-9.1,4.8,4.8,0,0,1,3.2,1.3,4.4,4.4,0,0,1,1.3,3.2h0A4.5,4.5,0,0,1,15.6,16.7Zm0-7.5h0a3,3,0,1,0,0,5.9,2.9,2.9,0,0,0,2.9-3h0a3.2,3.2,0,0,0-.8-2.1A3.2,3.2,0,0,0,15.6,9.2Z"/></g><path class="cls-1" d="M45.9,29.1a.8.8,0,0,1-.8-.8V12.6H22.8a.8.8,0,0,1-.8-.8.7.7,0,0,1,.8-.8H45.9a.7.7,0,0,1,.8.8V28.3A.7.7,0,0,1,45.9,29.1Z"/><path class="cls-1" d="M45.9,45.7H15.4a.8.8,0,0,1-.8-.8V19.5a.7.7,0,0,1,.8-.8.8.8,0,0,1,.8.8V44.1H45.1V36.3a.8.8,0,0,1,.8-.8.7.7,0,0,1,.8.8v8.6A.8.8,0,0,1,45.9,45.7Z"/><g id="Línea_2421" data-name="Línea 2421"><path class="cls-1" d="M45.9,16.5a.9.9,0,0,1-.8-.8V11.8a.8.8,0,0,1,.8-.8.7.7,0,0,1,.8.8v3.9A.8.8,0,0,1,45.9,16.5Z"/></g><g id="Línea_2422" data-name="Línea 2422"><path class="cls-1" d="M25.5,16.5a.9.9,0,0,1-.8-.8V11.8a.8.8,0,0,1,.8-.8.7.7,0,0,1,.8.8v3.9A.8.8,0,0,1,25.5,16.5Z"/></g><g id="Línea_2423" data-name="Línea 2423"><path class="cls-1" d="M33,16.5a.8.8,0,0,1-.8-.8V11.8A.7.7,0,0,1,33,11a.8.8,0,0,1,.8.8v3.9A.9.9,0,0,1,33,16.5Z"/></g><g id="Línea_2424" data-name="Línea 2424"><path class="cls-1" d="M40.7,16.5a.9.9,0,0,1-.8-.8V11.8a.8.8,0,0,1,1.6,0v3.9A.9.9,0,0,1,40.7,16.5Z"/></g><g id="Línea_2425" data-name="Línea 2425"><path class="cls-1" d="M49.1,16.6H22.8a.8.8,0,0,1-.8-.8.7.7,0,0,1,.8-.8H49.1a.7.7,0,0,1,.8.8A.8.8,0,0,1,49.1,16.6Z"/></g><g id="Línea_2426" data-name="Línea 2426"><path class="cls-1" d="M45.9,27.2a6.6,6.6,0,0,1-3.4-.9,5.5,5.5,0,0,0-2.7-.7,6.2,6.2,0,0,0-2.7.7,6.9,6.9,0,0,1-6.8,0,5.5,5.5,0,0,0-2.7-.7,5.9,5.9,0,0,0-2.7.7,6.9,6.9,0,0,1-6.8,0,5.9,5.9,0,0,0-2.7-.7.7.7,0,0,1-.8-.8.8.8,0,0,1,.8-.8,6.6,6.6,0,0,1,3.4.9,5.6,5.6,0,0,0,5.4,0,6.9,6.9,0,0,1,6.8,0,6.2,6.2,0,0,0,2.7.7,5.5,5.5,0,0,0,2.7-.7,6.6,6.6,0,0,1,3.4-.9,6,6,0,0,1,3.4.9,6.2,6.2,0,0,0,2.7.7.7.7,0,0,1,.8.8A.8.8,0,0,1,45.9,27.2Z"/></g><path class="cls-1" d="M54.6,33.4H42.1a.8.8,0,0,1-.8-.8.9.9,0,0,1,.8-.8H54.6a.8.8,0,0,1,.8.8A.7.7,0,0,1,54.6,33.4Z"/><path class="cls-1" d="M52.3,36a.7.7,0,0,1-.6-.2.8.8,0,0,1,0-1.1l2.1-2.1-2.1-2a.8.8,0,0,1,0-1.1.9.9,0,0,1,1.2,0l2.6,2.6a.8.8,0,0,1,.2.5.8.8,0,0,1-.2.6l-2.6,2.6A.7.7,0,0,1,52.3,36Z"/><rect class="cls-3" width="65" height="65"/><rect class="cls-3" y="48.3" width="65" height="16.74"/><path class="cls-4" d="M45.4,61.3H38.2A1.2,1.2,0,0,1,37,60.1a1.3,1.3,0,0,1,1.2-1.2h7.2a1.3,1.3,0,0,1,1.2,1.2A1.2,1.2,0,0,1,45.4,61.3Z"/><path class="cls-4" d="M53.1,61.3h-.6a1.2,1.2,0,0,1-1.2-1.2,1.3,1.3,0,0,1,1.2-1.2h.6a1.2,1.2,0,0,1,1.2,1.2A1.2,1.2,0,0,1,53.1,61.3Z"/><path class="cls-4" d="M19,61.3H11.9a1.2,1.2,0,0,1-1.2-1.2,1.2,1.2,0,0,1,1.2-1.2H19a1.2,1.2,0,0,1,1.2,1.2A1.2,1.2,0,0,1,19,61.3Z"/><path class="cls-5" d="M31,61.3H18.5a1.2,1.2,0,0,1-1.2-1.2,1.3,1.3,0,0,1,1.2-1.2H31a1.2,1.2,0,0,1,1.2,1.2A1.2,1.2,0,0,1,31,61.3Z"/><path class="cls-5" d="M35.5,55.2H11.9a1.2,1.2,0,1,1,0-2.4H35.5a1.2,1.2,0,0,1,0,2.4Z"/><path class="cls-4" d="M53.1,55.2H34.7a1.2,1.2,0,0,1,0-2.4H53.1a1.2,1.2,0,0,1,0,2.4Z"/><path class="cls-4" d="M12.3,55.2h-.4a1.2,1.2,0,1,1,0-2.4h.4a1.2,1.2,0,0,1,0,2.4Z"/></svg>