<svg id="Capa_1" data-name="Capa 1" xmlns="http://www.w3.org/2000/svg" viewBox="0 0 121 65"><defs><style>.cls-1{fill:none;}.cls-2{fill:#95a6b1;}.cls-3{fill:#19a500;}.cls-4{fill:#4da12e;}.cls-5{fill:#96d200;}</style></defs><title>tipo_carro_tanques</title><rect class="cls-1" width="121" height="65"/><path class="cls-2" d="M76.7,34.4H24.6a9.7,9.7,0,0,1-9.3-6.8.8.8,0,0,1,.6-1.1.8.8,0,0,1,1.1.6,8,8,0,0,0,7.6,5.5H76.7a7.9,7.9,0,0,0,8-7.9,8,8,0,0,0-8-8H24.6a.9.9,0,1,1,0-1.8H76.7a9.8,9.8,0,1,1,0,19.5Z"/><path class="cls-2" d="M105.8,40h-5.5a.9.9,0,1,1,0-1.8h5.5a.9.9,0,1,1,0,1.8Z"/><path class="cls-2" d="M89.8,40H85.6a.9.9,0,0,1-.9-.9V22.5a5.1,5.1,0,0,1,5.1-5.1h6.9a4.2,4.2,0,0,1,3.6,2.2l2,4.5a2.7,2.7,0,0,0,1.6,1.7,5.6,5.6,0,0,1,2.8,4.8V36a.9.9,0,0,1-1.8,0V30.6a3.7,3.7,0,0,0-1.9-3.2,4.9,4.9,0,0,1-2.4-2.5l-1.9-4.5a2.4,2.4,0,0,0-2-1.2H89.8a3.3,3.3,0,0,0-3.3,3.3V38.2h3.3a.9.9,0,0,1,0,1.8Z"/><path class="cls-2" d="M35.6,40H31.8a.9.9,0,0,1,0-1.8h3.8a.9.9,0,0,1,0,1.8Z"/><path class="cls-2" d="M68,40H46.2a.9.9,0,1,1,0-1.8H68A.9.9,0,0,1,68,40Z"/><path class="cls-2" d="M85.6,40h-7a.9.9,0,0,1,0-1.8h6.1V34.4H18.5a1.9,1.9,0,0,0-1.3,3.3,1.9,1.9,0,0,0,1.3.5h2.7a.9.9,0,0,1,0,1.8H18.5a3.5,3.5,0,0,1-2.6-1,4,4,0,0,1-1.1-2.7,3.8,3.8,0,0,1,3.7-3.7H85.6a.9.9,0,0,1,.9.9v5.6A.9.9,0,0,1,85.6,40Z"/><path class="cls-2" d="M26.5,45a6.2,6.2,0,1,1,6.2-6.2A6.2,6.2,0,0,1,26.5,45Zm0-10.6a4.4,4.4,0,0,0-4.4,4.4,4.4,4.4,0,0,0,8.8,0A4.4,4.4,0,0,0,26.5,34.4Z"/><path class="cls-2" d="M26.5,42a3.2,3.2,0,0,1-3.2-3.2,3.2,3.2,0,0,1,6.4,0A3.2,3.2,0,0,1,26.5,42Zm0-4.6a1.4,1.4,0,0,0-1.4,1.4,1.4,1.4,0,0,0,2.8,0A1.4,1.4,0,0,0,26.5,37.4Z"/><path class="cls-2" d="M40.9,45a6.2,6.2,0,1,1,6.2-6.2A6.2,6.2,0,0,1,40.9,45Zm0-10.6a4.4,4.4,0,0,0-4.4,4.4,4.4,4.4,0,0,0,8.8,0A4.4,4.4,0,0,0,40.9,34.4Z"/><path class="cls-2" d="M40.9,42a3.2,3.2,0,0,1-3.2-3.2,3.2,3.2,0,0,1,3.2-3.2,3.3,3.3,0,0,1,3.2,3.2A3.2,3.2,0,0,1,40.9,42Zm0-4.6a1.4,1.4,0,0,0-1.4,1.4,1.4,1.4,0,0,0,2.8,0A1.4,1.4,0,0,0,40.9,37.4Z"/><path class="cls-2" d="M73.3,45a6.2,6.2,0,0,1,0-12.4,6.2,6.2,0,1,1,0,12.4Zm0-10.6a4.4,4.4,0,0,0-4.4,4.4,4.3,4.3,0,0,0,4.4,4.4,4.4,4.4,0,0,0,4.4-4.4A4.4,4.4,0,0,0,73.3,34.4Z"/><path class="cls-2" d="M73.3,42a3.2,3.2,0,0,1-3.2-3.2,3.2,3.2,0,0,1,3.2-3.2,3.3,3.3,0,0,1,3.2,3.2A3.2,3.2,0,0,1,73.3,42Zm0-4.6a1.4,1.4,0,0,0-1.4,1.4,1.4,1.4,0,0,0,1.4,1.4,1.4,1.4,0,0,0,1.4-1.4A1.5,1.5,0,0,0,73.3,37.4Z"/><path class="cls-2" d="M95,45a6.2,6.2,0,1,1,6.3-6.2A6.2,6.2,0,0,1,95,45Zm0-10.6a4.4,4.4,0,0,0-4.4,4.4,4.5,4.5,0,0,0,8.9,0A4.5,4.5,0,0,0,95,34.4Z"/><path class="cls-2" d="M95,42a3.1,3.1,0,0,1-3.1-3.2,3.2,3.2,0,1,1,6.3,0A3.2,3.2,0,0,1,95,42Zm0-4.6a1.4,1.4,0,0,0-1.3,1.4A1.3,1.3,0,0,0,95,40.2a1.4,1.4,0,0,0,1.4-1.4A1.4,1.4,0,0,0,95,37.4Z"/><path class="cls-2" d="M105.8,40a.9.9,0,1,1,0-1.8.7.7,0,0,0,.7-.7V35.2a.7.7,0,0,0-.7-.8.9.9,0,1,1,0-1.8,2.6,2.6,0,0,1,2.5,2.6v2.3A2.5,2.5,0,0,1,105.8,40Z"/><path class="cls-2" d="M105.8,36.9a3.4,3.4,0,1,1,0-6.7.9.9,0,0,1,0,1.8,1.6,1.6,0,0,0-1.6,1.5,1.6,1.6,0,0,0,1.6,1.6.9.9,0,1,1,0,1.8Z"/><path class="cls-2" d="M97.4,27.8H89.9a.9.9,0,0,1-.9-.9V21.1a.9.9,0,0,1,.9-.9H96a1,1,0,0,1,.9.7l1.3,5.8a1.1,1.1,0,0,1-.1.8A1.1,1.1,0,0,1,97.4,27.8ZM90.8,26h5.4l-.9-4H90.8Z"/><path class="cls-2" d="M92.5,30.6H90a.9.9,0,0,1,0-1.8h2.5a.9.9,0,0,1,0,1.8Z"/><path class="cls-2" d="M29.9,16.7H24.6a.9.9,0,0,1-.9-.9V13.1a.9.9,0,0,1,.9-.9h5.3a.9.9,0,0,1,.9.9v2.7A.9.9,0,0,1,29.9,16.7Zm-4.4-1.8H29V14H25.5Z"/><path class="cls-2" d="M39.9,16.7H34.6a.9.9,0,0,1-.9-.9V13.1a.9.9,0,0,1,.9-.9h5.3a.9.9,0,0,1,.9.9v2.7A.9.9,0,0,1,39.9,16.7Zm-4.4-1.8H39V14H35.5Z"/><path class="cls-2" d="M73.1,16.7H67.9a.9.9,0,0,1-.9-.9V13.1a.9.9,0,0,1,.9-.9h5.2a.9.9,0,0,1,.9.9v2.7A.9.9,0,0,1,73.1,16.7Zm-4.3-1.8h3.4V14H68.8Z"/><path class="cls-2" d="M76,34.4a.9.9,0,0,1-.9-.9V14.4a.9.9,0,0,1,1.8,0V33.5A.9.9,0,0,1,76,34.4Z"/><path class="cls-2" d="M80,34.4a.9.9,0,0,1-.9-.9V14.4a.9.9,0,0,1,1.8,0V33.5A.9.9,0,0,1,80,34.4Z"/><path class="cls-2" d="M80,20H76.4a.9.9,0,1,1,0-1.8H80A.9.9,0,1,1,80,20Z"/><path class="cls-2" d="M80,23.9H76.4a.9.9,0,1,1,0-1.8H80a.9.9,0,0,1,0,1.8Z"/><path class="cls-2" d="M80,27.8H76.4a.9.9,0,0,1,0-1.8H80a.9.9,0,0,1,0,1.8Z"/><path class="cls-2" d="M80,31.7H76.4a.9.9,0,1,1,0-1.8H80a.9.9,0,1,1,0,1.8Z"/><g id="Trazado_11848" data-name="Trazado 11848"><path class="cls-3" d="M18,24.8a5.2,5.2,0,0,1-5.3-5.2A5.3,5.3,0,0,1,18,14.3h0a5.2,5.2,0,0,1,5.2,5.2h0A5.2,5.2,0,0,1,18,24.8Zm0-8.7h0a3.5,3.5,0,0,0-3.5,3.5,3.5,3.5,0,0,0,6.9,0h0A3.4,3.4,0,0,0,18,16.1Z"/></g><path class="cls-2" d="M113.9,45H12.9a.9.9,0,0,1,0-1.8h101a.9.9,0,0,1,0,1.8Z"/><path class="cls-2" d="M38.6,34.4a.9.9,0,0,1-.9-.9V15.8a.9.9,0,1,1,1.8,0V33.5A.9.9,0,0,1,38.6,34.4Z"/><path class="cls-2" d="M59,34.4a.9.9,0,0,1-.9-.9V15.8a.9.9,0,0,1,1.8,0V33.5A.9.9,0,0,1,59,34.4Z"/><rect class="cls-1" x="28" y="48.3" width="65" height="16.74"/><path class="cls-4" d="M73.4,61.3H66.2A1.2,1.2,0,0,1,65,60.1a1.3,1.3,0,0,1,1.2-1.2h7.2a1.3,1.3,0,0,1,1.2,1.2A1.2,1.2,0,0,1,73.4,61.3Z"/><path class="cls-4" d="M81.1,61.3h-.6a1.2,1.2,0,0,1-1.2-1.2,1.3,1.3,0,0,1,1.2-1.2h.6a1.2,1.2,0,0,1,1.2,1.2A1.2,1.2,0,0,1,81.1,61.3Z"/><path class="cls-4" d="M47,61.3H39.9a1.2,1.2,0,0,1-1.2-1.2,1.2,1.2,0,0,1,1.2-1.2H47a1.2,1.2,0,0,1,1.2,1.2A1.2,1.2,0,0,1,47,61.3Z"/><path class="cls-5" d="M59,61.3H46.5a1.2,1.2,0,0,1-1.2-1.2,1.3,1.3,0,0,1,1.2-1.2H59a1.2,1.2,0,0,1,1.2,1.2A1.2,1.2,0,0,1,59,61.3Z"/><path class="cls-5" d="M63.5,55.2H39.9a1.2,1.2,0,1,1,0-2.4H63.5a1.2,1.2,0,0,1,0,2.4Z"/><path class="cls-4" d="M81.1,55.2H62.7a1.2,1.2,0,0,1,0-2.4H81.1a1.2,1.2,0,0,1,0,2.4Z"/><path class="cls-4" d="M40.3,55.2h-.4a1.2,1.2,0,1,1,0-2.4h.4a1.2,1.2,0,0,1,0,2.4Z"/></svg>