<svg id="Capa_1" data-name="Capa 1" xmlns="http://www.w3.org/2000/svg" viewBox="0 0 65 65"><defs><style>.cls-1{fill:none;}.cls-2{fill:#4da12e;}.cls-3{fill:#96d200;}.cls-4{fill:#95a6b1;}.cls-5{fill:#00a800;}</style></defs><title>zona_estacionamiento</title><rect class="cls-1" width="65" height="65"/><rect class="cls-1" y="48.3" width="65" height="16.74"/><path class="cls-2" d="M45.4,61.3H38.2A1.2,1.2,0,0,1,37,60.1a1.3,1.3,0,0,1,1.2-1.2h7.2a1.3,1.3,0,0,1,1.2,1.2A1.2,1.2,0,0,1,45.4,61.3Z"/><path class="cls-2" d="M53.1,61.3h-.6a1.2,1.2,0,0,1-1.2-1.2,1.3,1.3,0,0,1,1.2-1.2h.6a1.2,1.2,0,0,1,1.2,1.2A1.2,1.2,0,0,1,53.1,61.3Z"/><path class="cls-2" d="M19,61.3H11.9a1.2,1.2,0,0,1-1.2-1.2,1.2,1.2,0,0,1,1.2-1.2H19a1.2,1.2,0,0,1,1.2,1.2A1.2,1.2,0,0,1,19,61.3Z"/><path class="cls-3" d="M31,61.3H18.5a1.2,1.2,0,0,1-1.2-1.2,1.3,1.3,0,0,1,1.2-1.2H31a1.2,1.2,0,0,1,1.2,1.2A1.2,1.2,0,0,1,31,61.3Z"/><path class="cls-3" d="M35.5,55.2H11.9a1.2,1.2,0,1,1,0-2.4H35.5a1.2,1.2,0,0,1,0,2.4Z"/><path class="cls-2" d="M53.1,55.2H34.7a1.2,1.2,0,0,1,0-2.4H53.1a1.2,1.2,0,0,1,0,2.4Z"/><path class="cls-2" d="M12.3,55.2h-.4a1.2,1.2,0,1,1,0-2.4h.4a1.2,1.2,0,0,1,0,2.4Z"/><path class="cls-4" d="M36.4,36.9H19.8a8.3,8.3,0,0,1-8-5.8.8.8,0,0,1,.5-1,.7.7,0,0,1,1,.5,6.8,6.8,0,0,0,6.5,4.7H36.4a6.8,6.8,0,1,0,0-13.6H19.8a.8.8,0,0,1-.8-.8.9.9,0,0,1,.8-.8H36.4a8.4,8.4,0,0,1,0,16.8Z"/><path class="cls-4" d="M61.4,41.8H56.7a.9.9,0,0,1-.8-.8.8.8,0,0,1,.8-.8h4.7a.7.7,0,0,1,.8.8A.8.8,0,0,1,61.4,41.8Z"/><path class="cls-4" d="M47.6,41.8H44a.9.9,0,0,1-.8-.8V26.7a4.5,4.5,0,0,1,4.5-4.5h5.9a3.5,3.5,0,0,1,3.1,2L58.4,28a2.9,2.9,0,0,0,1.4,1.5,4.6,4.6,0,0,1,2.4,4.1v4.6a.7.7,0,0,1-.8.8.8.8,0,0,1-.8-.8V33.6A3,3,0,0,0,59,30.9a4.3,4.3,0,0,1-2-2.2l-1.7-3.8a1.8,1.8,0,0,0-1.7-1.1H47.7a2.9,2.9,0,0,0-2.9,2.9V40.2h2.8a.7.7,0,0,1,.8.8A.8.8,0,0,1,47.6,41.8Z"/><path class="cls-4" d="M44,41.8H26a.9.9,0,0,1-.8-.8.8.8,0,0,1,.8-.8H43.2V36.9H14.6A1.7,1.7,0,0,0,13,38.6a1.7,1.7,0,0,0,1.6,1.6h2.3a.7.7,0,0,1,.8.8.8.8,0,0,1-.8.8H14.6a3.3,3.3,0,0,1-2.3-1,3.1,3.1,0,0,1-.9-2.2,3.2,3.2,0,0,1,3.2-3.3H44a.8.8,0,0,1,.8.8V41A.8.8,0,0,1,44,41.8Z"/><path class="cls-4" d="M21.5,46.1a5.4,5.4,0,0,1-5.4-5.4,5.4,5.4,0,0,1,5.4-5.4,5.5,5.5,0,0,1,5.4,5.4A5.4,5.4,0,0,1,21.5,46.1Zm0-9.2a3.8,3.8,0,1,0,3.8,3.8A3.8,3.8,0,0,0,21.5,36.9Z"/><path class="cls-4" d="M21.5,43.5a2.8,2.8,0,1,1,2.8-2.8A2.9,2.9,0,0,1,21.5,43.5Zm0-4a1.2,1.2,0,0,0-1.2,1.2,1.2,1.2,0,0,0,1.2,1.2,1.2,1.2,0,0,0,1.2-1.2A1.3,1.3,0,0,0,21.5,39.5Z"/><path class="cls-4" d="M52.2,46.1a5.4,5.4,0,0,1-5.4-5.4,5.4,5.4,0,1,1,10.7,0A5.4,5.4,0,0,1,52.2,46.1Zm0-9.2a3.8,3.8,0,0,0,0,7.6,3.8,3.8,0,0,0,0-7.6Z"/><path class="cls-4" d="M52.2,43.5a2.8,2.8,0,0,1,0-5.6,2.8,2.8,0,0,1,0,5.6Zm0-4A1.2,1.2,0,0,0,51,40.7a1.2,1.2,0,0,0,1.2,1.2,1.2,1.2,0,0,0,1.2-1.2A1.3,1.3,0,0,0,52.2,39.5Z"/><path class="cls-4" d="M61.4,41.8a.9.9,0,0,1-.8-.8.8.8,0,0,1,.8-.8.6.6,0,0,0,.6-.6V37.5a.6.6,0,0,0-.6-.6.8.8,0,0,1-.8-.8.9.9,0,0,1,.8-.8,2.2,2.2,0,0,1,2.2,2.2v2.1A2.2,2.2,0,0,1,61.4,41.8Z"/><path class="cls-4" d="M61.4,39.1a3,3,0,0,1-2.9-3,2.9,2.9,0,0,1,2.9-2.9.8.8,0,0,1,.8.8.7.7,0,0,1-.8.8,1.3,1.3,0,0,0-1.3,1.3,1.3,1.3,0,0,0,1.3,1.4.7.7,0,0,1,.8.8A.8.8,0,0,1,61.4,39.1Z"/><path class="cls-4" d="M54.2,31.2H47.8a.7.7,0,0,1-.8-.8V25.5a.7.7,0,0,1,.8-.8H53a.8.8,0,0,1,.8.6l1.1,5a.7.7,0,0,1-.1.6A.9.9,0,0,1,54.2,31.2Zm-5.6-1.6h4.6l-.8-3.3H48.6Z"/><path class="cls-4" d="M50,33.6H47.8a.8.8,0,0,1-.8-.8.9.9,0,0,1,.8-.8H50a.9.9,0,0,1,.8.8A.8.8,0,0,1,50,33.6Z"/><path class="cls-4" d="M24.4,21.7H19.8a.8.8,0,0,1-.8-.8V18.6a.8.8,0,0,1,.8-.8h4.6a.8.8,0,0,1,.8.8v2.3A.8.8,0,0,1,24.4,21.7Zm-3.8-1.6h3v-.7h-3Z"/><path class="cls-4" d="M33.3,21.7H28.8a.7.7,0,0,1-.8-.8V18.6a.7.7,0,0,1,.8-.8h4.5a.7.7,0,0,1,.8.8v2.3A.7.7,0,0,1,33.3,21.7Zm-3.7-1.6h2.9v-.7H29.6Z"/><path class="cls-4" d="M35.8,36.9a.7.7,0,0,1-.8-.8V19.6a.8.8,0,0,1,.8-.8.9.9,0,0,1,.8.8V36.1A.8.8,0,0,1,35.8,36.9Z"/><path class="cls-4" d="M39.3,36.9a.7.7,0,0,1-.8-.8V19.6a.8.8,0,0,1,.8-.8.9.9,0,0,1,.8.8V36.1A.8.8,0,0,1,39.3,36.9Z"/><path class="cls-4" d="M39.3,24.5H36.1a.8.8,0,0,1-.8-.8.9.9,0,0,1,.8-.8h3.2a.9.9,0,0,1,.8.8A.8.8,0,0,1,39.3,24.5Z"/><path class="cls-4" d="M39.3,27.9H36.1a.9.9,0,0,1-.8-.8.8.8,0,0,1,.8-.8h3.2a.8.8,0,0,1,.8.8A.9.9,0,0,1,39.3,27.9Z"/><path class="cls-4" d="M39.3,31.2H36.1a.8.8,0,0,1-.8-.8.9.9,0,0,1,.8-.8h3.2a.9.9,0,0,1,.8.8A.8.8,0,0,1,39.3,31.2Z"/><path class="cls-4" d="M39.3,34.6H36.1a.9.9,0,0,1-.8-.8.8.8,0,0,1,.8-.8h3.2a.8.8,0,0,1,.8.8A.9.9,0,0,1,39.3,34.6Z"/><g id="Trazado_11848" data-name="Trazado 11848"><path class="cls-5" d="M14.1,28.7a4.6,4.6,0,0,1-4.5-4.6,4.5,4.5,0,0,1,4.5-4.5,4.1,4.1,0,0,1,3.2,1.3,4.5,4.5,0,0,1,1.4,3.2h0A4.7,4.7,0,0,1,14.1,28.7Zm0-7.5h0a3,3,0,0,0,0,5.9,2.9,2.9,0,0,0,3-3h0a2.9,2.9,0,0,0-.9-2.1A3,3,0,0,0,14.1,21.2Z"/></g><path class="cls-4" d="M61.4,46.1H2.9a.8.8,0,0,1-.8-.8.7.7,0,0,1,.8-.8H61.4a.7.7,0,0,1,.8.8A.8.8,0,0,1,61.4,46.1Z"/><path class="cls-4" d="M11.2,46.1a.8.8,0,0,1-.8-.6l-2.8-9H7.2l-2.3,9a.9.9,0,0,1-1,.6,1,1,0,0,1-.6-1l2.5-9.6a.9.9,0,0,1,.7-.6H8.2a.8.8,0,0,1,.8.6L12,45a.8.8,0,0,1-.6,1C11.4,46.1,11.3,46.1,11.2,46.1Z"/><path class="cls-4" d="M10.3,43.4H4.8a.9.9,0,0,1-.8-.8.8.8,0,0,1,.8-.8h5.5a.7.7,0,0,1,.8.8A.8.8,0,0,1,10.3,43.4Z"/><path class="cls-4" d="M9.4,40.4H5.6a.7.7,0,0,1-.8-.8.8.8,0,0,1,.8-.8H9.4a.8.8,0,0,1,.8.8A.7.7,0,0,1,9.4,40.4Z"/></svg>