<svg xmlns="http://www.w3.org/2000/svg" width="44.323" height="81.019" viewBox="0 0 44.323 81.019">
  <g id="Grupo_18263" data-name="Grupo 18263" transform="translate(-719.804 -1769.777)">
    <line id="Línea_2119" data-name="Línea 2119" x1="0.492" y2="30.524" transform="translate(741.695 1813.922)" fill="none" stroke="#505d6c" stroke-width="1" opacity="0.29"/>
    <g id="Trazado_11273" data-name="Trazado 11273" transform="translate(737.195 1842.03)" fill="#fff">
      <path d="M 4.5 7.767135143280029 C 2.570090055465698 7.767135143280029 1 6.249274730682373 1 4.383564949035645 C 1 2.517864942550659 2.570090055465698 1.000005006790161 4.5 1.000005006790161 C 6.429910182952881 1.000005006790161 8 2.517864942550659 8 4.383564949035645 C 8 5.091964721679688 7.766600131988525 5.741194725036621 7.24321985244751 6.488655090332031 L 7.23790979385376 6.49624490737915 L 7.232739925384521 6.50392484664917 C 6.823309898376465 7.112324714660645 5.793509960174561 7.767135143280029 4.5 7.767135143280029 Z" stroke="none"/>
      <path d="M 4.5 1.99999475479126 C 3.121500015258789 1.99999475479126 2 3.069264888763428 2 4.383564949035645 C 2 5.697865009307861 3.121500015258789 6.767125129699707 4.5 6.767125129699707 C 5.431340217590332 6.767125129699707 6.173549652099609 6.286735057830811 6.40310001373291 5.945625305175781 L 6.424069881439209 5.915075302124023 C 6.930230140686035 5.192214965820313 7 4.751804828643799 7 4.383564949035645 C 7 3.069264888763428 5.878499984741211 1.99999475479126 4.5 1.99999475479126 M 4.5 -4.76837158203125e-06 C 6.98528003692627 -4.76837158203125e-06 9 1.962584972381592 9 4.383564949035645 C 9 5.284164905548096 8.721199989318848 6.121335029602051 8.062370300292969 7.062234878540039 C 7.435930252075195 7.993114948272705 6.060760021209717 8.767125129699707 4.5 8.767125129699707 C 2.01471996307373 8.767125129699707 0 6.804544925689697 0 4.383564949035645 C 0 1.962584972381592 2.01471996307373 -4.76837158203125e-06 4.5 -4.76837158203125e-06 Z" stroke="none" fill="#00af00"/>
    </g>
    <g id="Grupo_15011" data-name="Grupo 15011" transform="translate(720.498 1770.472)">
      <path id="Trazado_5703" data-name="Trazado 5703" d="M19.595,14.164a4.172,4.172,0,1,1,0-.058Z" transform="translate(-8.533 -8.738)" fill="none" stroke="#19a500" stroke-linecap="round" stroke-linejoin="round" stroke-width="1.6" style="mix-blend-mode: multiply;isolation: isolate"/>
      <path id="Trazado_11975" data-name="Trazado 11975" d="M44.713,29.7v.1a14.094,14.094,0,0,1-2.12,7.411,14.477,14.477,0,0,1-3.27,3.67,14.083,14.083,0,0,1-2.1,1.4,14.534,14.534,0,0,1-5.137,1.7,13.959,13.959,0,0,1-2.088.15,2.229,2.229,0,0,1-.228-.008A14.735,14.735,0,0,1,24.059,42.9a10.873,10.873,0,0,1-1.183-.572,14.573,14.573,0,0,1-4.542-3.813h-.008a14.066,14.066,0,0,1-2.952-7.166,12.9,12.9,0,0,1-.089-1.493V29.8A14.21,14.21,0,0,1,17.4,22.384,14.39,14.39,0,0,1,21.05,18.42a13.883,13.883,0,0,1,1.7-1.1A15.12,15.12,0,0,1,30,15.458c.09,0,.171,0,.261.008a14.785,14.785,0,0,1,5.887,1.3,12.32,12.32,0,0,1,1.24.635,14.348,14.348,0,0,1,4.493,3.948,12.891,12.891,0,0,1,.954,1.438,14.01,14.01,0,0,1,1.778,5.346A14.166,14.166,0,0,1,44.713,29.7Z" transform="translate(-8.533 -8.88)" fill="none" stroke="#95a6b1" stroke-linecap="round" stroke-linejoin="round" stroke-width="1.389"/>
      <path id="Trazado_11976" data-name="Trazado 11976" d="M21.292,10.5A21.871,21.871,0,0,1,30,8.7c11.856,0,21.467,9.362,21.467,20.912S41.856,50.529,30,50.529,8.533,41.166,8.533,29.617a20.4,20.4,0,0,1,2.438-9.69" transform="translate(-8.533 -8.705)" fill="none" stroke="#95a6b1" stroke-linecap="round" stroke-linejoin="round" stroke-width="1.389"/>
      <path id="Trazado_11977" data-name="Trazado 11977" d="M29.873,25.451a11.578,11.578,0,0,0,.391-9.985c-.09-.008-.171-.008-.261-.008a15.12,15.12,0,0,0-7.257,1.866,13.883,13.883,0,0,0-1.7,1.1A14.39,14.39,0,0,0,17.4,22.384,14.2,14.2,0,0,0,15.285,29.8v.063a12.9,12.9,0,0,0,.089,1.493" transform="translate(-8.533 -8.88)" fill="none" stroke="#95a6b1" stroke-linecap="round" stroke-linejoin="round" stroke-width="1.389"/>
      <line id="Línea_2506" data-name="Línea 2506" x1="0.008" transform="translate(9.793 29.637)" fill="none" stroke="#95a6b1" stroke-linecap="round" stroke-linejoin="round" stroke-width="1.389"/>
      <path id="Trazado_11978" data-name="Trazado 11978" d="M22.746,17.374a11.735,11.735,0,0,1,5.031,8.7" transform="translate(-8.533 -8.929)" fill="none" stroke="#95a6b1" stroke-linecap="round" stroke-linejoin="round" stroke-width="1.389"/>
      <path id="Trazado_11979" data-name="Trazado 11979" d="M26.081,27.882A12.156,12.156,0,0,0,17.4,22.568a14.2,14.2,0,0,0-2.112,7.411v.063a12.9,12.9,0,0,0,.089,1.493A14.066,14.066,0,0,0,18.326,38.7h.008a14.573,14.573,0,0,0,4.542,3.813,10.873,10.873,0,0,0,1.183.572" transform="translate(-8.533 -9.064)" fill="none" stroke="#95a6b1" stroke-linecap="round" stroke-linejoin="round" stroke-width="1.389"/>
      <path id="Trazado_11980" data-name="Trazado 11980" d="M25.535,30.2a12.451,12.451,0,0,0-10.25.016,12.9,12.9,0,0,0,.089,1.493,14.066,14.066,0,0,0,2.952,7.166h.008a14.573,14.573,0,0,0,4.542,3.813,10.873,10.873,0,0,0,1.183.572,14.735,14.735,0,0,0,5.716,1.215,2.229,2.229,0,0,0,.228.008,13.959,13.959,0,0,0,2.088-.15" transform="translate(-8.533 -9.233)" fill="none" stroke="#95a6b1" stroke-linecap="round" stroke-linejoin="round" stroke-width="1.389"/>
      <path id="Trazado_11981" data-name="Trazado 11981" d="M26.065,32.288a12.186,12.186,0,0,0-8.734,5.235,13.779,13.779,0,0,0,1,1.43h.008a14.573,14.573,0,0,0,4.542,3.813,10.873,10.873,0,0,0,1.183.572,14.735,14.735,0,0,0,5.716,1.215A2.229,2.229,0,0,0,30,44.56a13.959,13.959,0,0,0,2.088-.15,14.534,14.534,0,0,0,5.137-1.7,14.083,14.083,0,0,0,2.1-1.4" transform="translate(-8.533 -9.315)" fill="none" stroke="#95a6b1" stroke-linecap="round" stroke-linejoin="round" stroke-width="1.389"/>
      <path id="Trazado_11982" data-name="Trazado 11982" d="M27.622,33.952a11.733,11.733,0,0,0-4.746,8.857,10.873,10.873,0,0,0,1.183.572A14.735,14.735,0,0,0,29.775,44.6,2.229,2.229,0,0,0,30,44.6a13.959,13.959,0,0,0,2.088-.15,14.534,14.534,0,0,0,5.137-1.7,14.083,14.083,0,0,0,2.1-1.4,14.477,14.477,0,0,0,3.27-3.67,13.871,13.871,0,0,0,1.232-2.51" transform="translate(-8.533 -9.358)" fill="none" stroke="#95a6b1" stroke-linecap="round" stroke-linejoin="round" stroke-width="1.389"/>
      <path id="Trazado_11983" data-name="Trazado 11983" d="M30.085,34.469a11.614,11.614,0,0,0-.31,9.985,2.229,2.229,0,0,0,.228.008,13.959,13.959,0,0,0,2.088-.15,14.534,14.534,0,0,0,5.137-1.7,14.083,14.083,0,0,0,2.1-1.4,14.477,14.477,0,0,0,3.27-3.67,14.094,14.094,0,0,0,2.12-7.411v-.1a14.166,14.166,0,0,0-.1-1.564" transform="translate(-8.533 -9.216)" fill="none" stroke="#95a6b1" stroke-linecap="round" stroke-linejoin="round" stroke-width="1.389"/>
      <path id="Trazado_11984" data-name="Trazado 11984" d="M41.884,21.508a12.891,12.891,0,0,1,.954,1.438,14.01,14.01,0,0,1,1.778,5.346,14.166,14.166,0,0,1,.1,1.564v.1a14.094,14.094,0,0,1-2.12,7.411,14.477,14.477,0,0,1-3.27,3.67,14.083,14.083,0,0,1-2.1,1.4,11.718,11.718,0,0,1-4.713-8.88v-.008" transform="translate(-8.533 -9.036)" fill="none" stroke="#95a6b1" stroke-linecap="round" stroke-linejoin="round" stroke-width="1.389"/>
      <path id="Trazado_11985" data-name="Trazado 11985" d="M36.151,16.8a12.32,12.32,0,0,1,1.24.635,14.348,14.348,0,0,1,4.493,3.948,12.891,12.891,0,0,1,.954,1.438,14.01,14.01,0,0,1,1.778,5.346,14.166,14.166,0,0,1,.1,1.564v.1a14.094,14.094,0,0,1-2.12,7.411,12.2,12.2,0,0,1-8.57-5.528" transform="translate(-8.533 -8.915)" fill="none" stroke="#95a6b1" stroke-linecap="round" stroke-linejoin="round" stroke-width="1.389"/>
      <path id="Trazado_11986" data-name="Trazado 11986" d="M34.463,29.82a12.354,12.354,0,0,0,4.983,1.04,12.521,12.521,0,0,0,5.267-1.16,14.166,14.166,0,0,0-.1-1.564,14.01,14.01,0,0,0-1.778-5.346,12.891,12.891,0,0,0-.954-1.438A14.348,14.348,0,0,0,37.391,17.4a12.32,12.32,0,0,0-1.24-.635,14.788,14.788,0,0,0-5.887-1.3c-.09-.008-.171-.008-.261-.008a14.6,14.6,0,0,0-2.218.167" transform="translate(-8.533 -8.88)" fill="none" stroke="#95a6b1" stroke-linecap="round" stroke-linejoin="round" stroke-width="1.389"/>
      <path id="Trazado_11987" data-name="Trazado 11987" d="M33.917,27.9a12.255,12.255,0,0,0,8.921-4.917" transform="translate(-8.533 -9.074)" fill="none" stroke="#95a6b1" stroke-linecap="round" stroke-linejoin="round" stroke-width="1.389"/>
      <path id="Trazado_11988" data-name="Trazado 11988" d="M32.474,26.166A11.7,11.7,0,0,0,37.391,17.4a12.32,12.32,0,0,0-1.24-.635,14.788,14.788,0,0,0-5.887-1.3c-.09-.008-.171-.008-.261-.008a15.12,15.12,0,0,0-7.257,1.866,13.883,13.883,0,0,0-1.7,1.1A14.39,14.39,0,0,0,17.4,22.384a13.969,13.969,0,0,0-1.118,2.232" transform="translate(-8.533 -8.88)" fill="none" stroke="#95a6b1" stroke-linecap="round" stroke-linejoin="round" stroke-width="1.389"/>
      <ellipse id="Elipse_2316" data-name="Elipse 2316" cx="4.461" cy="4.346" rx="4.461" ry="4.346" transform="translate(17.006 16.566)" fill="none" stroke="#95a6b1" stroke-linecap="round" stroke-linejoin="round" stroke-width="1.389"/>
    </g>
  </g>
</svg>
