<svg xmlns="http://www.w3.org/2000/svg" width="52.12" height="82.064" viewBox="0 0 52.12 82.064">
  <g id="Grupo_18264" data-name="Grupo 18264" transform="translate(-720.214 -1897.461)">
    <path id="Trazado_18853" data-name="Trazado 18853" d="M0,7.215V35.069" transform="translate(744.688 1935.759)" fill="none" stroke="#505d6c" stroke-width="1" opacity="0.29"/>
    <g id="Trazado_11273" data-name="Trazado 11273" transform="translate(740.188 1970.758)" fill="#fff">
      <path d="M 4.5 7.767135143280029 C 2.570090055465698 7.767135143280029 1 6.249274730682373 1 4.383564949035645 C 1 2.517864942550659 2.570090055465698 1.000005006790161 4.5 1.000005006790161 C 6.429910182952881 1.000005006790161 8 2.517864942550659 8 4.383564949035645 C 8 5.091964721679688 7.766600131988525 5.741194725036621 7.24321985244751 6.488655090332031 L 7.23790979385376 6.49624490737915 L 7.232739925384521 6.50392484664917 C 6.823309898376465 7.112324714660645 5.793509960174561 7.767135143280029 4.5 7.767135143280029 Z" stroke="none"/>
      <path d="M 4.5 1.99999475479126 C 3.121500015258789 1.99999475479126 2 3.069264888763428 2 4.383564949035645 C 2 5.697865009307861 3.121500015258789 6.767125129699707 4.5 6.767125129699707 C 5.431340217590332 6.767125129699707 6.173549652099609 6.286735057830811 6.40310001373291 5.945625305175781 L 6.424069881439209 5.915075302124023 C 6.930230140686035 5.192214965820313 7 4.751804828643799 7 4.383564949035645 C 7 3.069264888763428 5.878499984741211 1.99999475479126 4.5 1.99999475479126 M 4.5 -4.76837158203125e-06 C 6.98528003692627 -4.76837158203125e-06 9 1.962584972381592 9 4.383564949035645 C 9 5.284164905548096 8.721199989318848 6.121335029602051 8.062370300292969 7.062234878540039 C 7.435930252075195 7.993114948272705 6.060760021209717 8.767125129699707 4.5 8.767125129699707 C 2.01471996307373 8.767125129699707 0 6.804544925689697 0 4.383564949035645 C 0 1.962584972381592 2.01471996307373 -4.76837158203125e-06 4.5 -4.76837158203125e-06 Z" stroke="none" fill="#00af00"/>
    </g>
    <g id="Grupo_15012" data-name="Grupo 15012" transform="translate(721.014 1898.156)">
      <path id="Trazado_5703" data-name="Trazado 5703" d="M105.239,23.986a4.613,4.613,0,1,1,0-.064Z" transform="translate(-95.707 -7.988)" fill="none" stroke="#19a500" stroke-linecap="round" stroke-linejoin="round" stroke-width="1.6" style="mix-blend-mode: multiply;isolation: isolate"/>
      <path id="Trazado_11989" data-name="Trazado 11989" d="M100.594,15.933V12.982a2.1,2.1,0,0,1,2.13-2.085h5.03a2.107,2.107,0,0,1,2.13,2.085V25.148" transform="translate(-95.707 -7.769)" fill="none" stroke="#95a6b1" stroke-linecap="round" stroke-linejoin="round" stroke-width="1.389"/>
      <path id="Trazado_11990" data-name="Trazado 11990" d="M109.884,38.1V48.981h-9.29V31.457" transform="translate(-95.707 -8.301)" fill="none" stroke="#95a6b1" stroke-linecap="round" stroke-linejoin="round" stroke-width="1.389"/>
      <path id="Trazado_11991" data-name="Trazado 11991" d="M118.614,49.117v-12.4" transform="translate(-95.707 -8.437)" fill="none" stroke="#95a6b1" stroke-linecap="round" stroke-linejoin="round" stroke-width="1.389"/>
      <path id="Trazado_11992" data-name="Trazado 11992" d="M118.614,26.823V20.277a3.3,3.3,0,0,0-3.22-3.38h-5.51" transform="translate(-95.707 -7.925)" fill="none" stroke="#95a6b1" stroke-linecap="round" stroke-linejoin="round" stroke-width="1.389"/>
      <line id="Línea_2122" data-name="Línea 2122" x1="49.749" transform="translate(0.877 40.678)" fill="none" stroke="#95a6b1" stroke-linecap="round" stroke-linejoin="round" stroke-width="1.389"/>
      <ellipse id="Elipse_2317" data-name="Elipse 2317" cx="7.216" cy="7.03" rx="7.216" ry="7.03" transform="translate(10.329 16.557)" fill="none" stroke="#95a6b1" stroke-linecap="round" stroke-linejoin="round" stroke-width="1.342"/>
      <ellipse id="Elipse_2318" data-name="Elipse 2318" cx="3.899" cy="3.798" rx="3.899" ry="3.798" transform="translate(13.647 19.789)" fill="none" stroke="#95a6b1" stroke-linecap="round" stroke-linejoin="round" stroke-width="1.342"/>
      <ellipse id="Elipse_2319" data-name="Elipse 2319" cx="3.369" cy="3.281" rx="3.369" ry="3.281" transform="translate(30.971 20.306)" fill="none" stroke="#95a6b1" stroke-linecap="round" stroke-linejoin="round" stroke-width="1.389"/>
      <line id="Línea_2507" data-name="Línea 2507" x2="15.448" y2="3.563" transform="translate(19.299 16.767)" fill="none" stroke="#95a6b1" stroke-linecap="round" stroke-linejoin="round" stroke-width="1.389"/>
      <line id="Línea_2508" data-name="Línea 2508" x1="15.12" y2="3.557" transform="translate(19.219 26.868)" fill="none" stroke="#95a6b1" stroke-linecap="round" stroke-linejoin="round" stroke-width="1.389"/>
      <path id="Rectángulo_4849" data-name="Rectángulo 4849" d="M3.807,0h7.049a3.807,3.807,0,0,1,3.807,3.807V28.052a0,0,0,0,1,0,0H0a0,0,0,0,1,0,0V3.807A3.807,3.807,0,0,1,3.807,0Z" transform="translate(27.687 12.629)" fill="none" stroke="#95a6b1" stroke-linecap="round" stroke-linejoin="round" stroke-width="1.342"/>
      <path id="Trazado_11993" data-name="Trazado 11993" d="M131.4,39.116l-1.358,2.729h2.122l-1.613,3.473" transform="translate(-95.707 -8.5)" fill="none" stroke="#95a6b1" stroke-linecap="round" stroke-linejoin="round" stroke-width="1.389"/>
      <line id="Línea_2509" data-name="Línea 2509" y1="2.934" transform="translate(31.494 9.695)" fill="none" stroke="#95a6b1" stroke-linecap="round" stroke-linejoin="round" stroke-width="1.389"/>
      <line id="Línea_2510" data-name="Línea 2510" y1="2.934" transform="translate(38.543 9.695)" fill="none" stroke="#95a6b1" stroke-linecap="round" stroke-linejoin="round" stroke-width="1.389"/>
      <line id="Línea_2511" data-name="Línea 2511" x2="10.102" transform="translate(29.961 10.687)" fill="none" stroke="#95a6b1" stroke-linecap="round" stroke-linejoin="round" stroke-width="1.389"/>
      <line id="Línea_2512" data-name="Línea 2512" y1="2.934" transform="translate(7.247)" fill="none" stroke="#95a6b1" stroke-linecap="round" stroke-linejoin="round" stroke-width="1.389"/>
      <line id="Línea_2513" data-name="Línea 2513" y1="2.934" transform="translate(12.304)" fill="none" stroke="#95a6b1" stroke-linecap="round" stroke-linejoin="round" stroke-width="1.389"/>
      <line id="Línea_2514" data-name="Línea 2514" x2="7.779" transform="translate(6.045 0.992)" fill="none" stroke="#95a6b1" stroke-linecap="round" stroke-linejoin="round" stroke-width="1.389"/>
    </g>
  </g>
</svg>
