<?xml version="1.0" encoding="utf-8"?>
<!-- Generator: Adobe Illustrator 24.0.2, SVG Export Plug-In . SVG Version: 6.00 Build 0)  -->
<svg version="1.1" xmlns="http://www.w3.org/2000/svg" xmlns:xlink="http://www.w3.org/1999/xlink" x="0px" y="0px"
	 viewBox="0 0 47 47" style="enable-background:new 0 0 47 47;" xml:space="preserve">
<style type="text/css">
	.st0{display:none;}
	.st1{display:inline;fill:#9AA5AF;}
	.st2{fill:none;}
	.st3{fill:#19A500;}
	.st4{fill:#A1D005;}
	.st5{fill:#149352;}
	.st6{fill:none;stroke:#19A500;stroke-width:1.6;stroke-miterlimit:10;}
	.st7{fill:none;stroke:#95A6B1;stroke-width:1.6;stroke-linecap:round;stroke-linejoin:round;stroke-miterlimit:10;}
	.st8{fill:none;stroke:#95A6B1;stroke-width:1.65;stroke-linecap:round;stroke-linejoin:round;stroke-miterlimit:10;}
	.st9{fill:none;stroke:#95A6B1;stroke-width:4;stroke-linecap:round;stroke-linejoin:round;stroke-miterlimit:10;}
	.st10{fill:none;stroke:#EFEF00;stroke-width:1.2;stroke-miterlimit:10;}
	.st11{fill:none;stroke:#FFFFFF;stroke-width:1.1037;stroke-linecap:round;stroke-linejoin:round;stroke-miterlimit:10;}
	.st12{fill:none;stroke:#95A6B1;stroke-width:1.2;stroke-linecap:round;stroke-linejoin:round;stroke-miterlimit:10;}
	.st13{fill:none;stroke:#19A500;stroke-width:1.2;stroke-miterlimit:10;}
	.st14{fill:none;stroke:#EFEF00;stroke-width:1.6;stroke-miterlimit:10;}
	.st15{fill:none;stroke:#FFFFFF;stroke-width:1.6;stroke-linecap:round;stroke-linejoin:round;stroke-miterlimit:10;}
	.st16{fill:none;stroke:#95A6B1;stroke-width:1.2589;stroke-linecap:round;stroke-linejoin:round;stroke-miterlimit:10;}
	.st17{fill:none;stroke:#95A6B1;stroke-width:1.0718;stroke-linecap:round;stroke-linejoin:round;stroke-miterlimit:10;}
	.st18{fill:none;stroke:#95A6B1;stroke-width:1.2212;stroke-linecap:round;stroke-linejoin:round;stroke-miterlimit:10;}
	.st19{fill:none;stroke:#95A6B1;stroke-width:1.2408;stroke-linecap:round;stroke-linejoin:round;stroke-miterlimit:10;}
	.st20{fill:none;stroke:#95A6B1;stroke-width:1.2;stroke-linecap:round;stroke-linejoin:round;}
	.st21{fill:none;stroke:#95A6B1;stroke-width:1.2;stroke-linecap:round;stroke-linejoin:round;stroke-dasharray:1.6013,3.2026;}
	.st22{fill:none;stroke:#95A6B1;stroke-width:1.2;stroke-linecap:round;stroke-linejoin:round;stroke-dasharray:1.7413,3.4827;}
	.st23{fill:none;stroke:#95A6B1;stroke-width:1.2;stroke-linecap:round;stroke-linejoin:round;stroke-dasharray:2.056,4.112;}
	.st24{fill:none;stroke:#95A6B1;stroke-width:1.2275;stroke-linecap:round;stroke-linejoin:round;stroke-miterlimit:10;}
	.st25{fill:none;stroke:#95A6B1;stroke-width:1.2565;stroke-linecap:round;stroke-linejoin:round;stroke-miterlimit:10;}
	.st26{fill:none;stroke:#95A6B1;stroke-width:1.2892;stroke-linecap:round;stroke-linejoin:round;stroke-miterlimit:10;}
	.st27{fill:none;stroke:#95A6B1;stroke-width:1.3462;stroke-linecap:round;stroke-linejoin:round;stroke-miterlimit:10;}
	.st28{fill:none;stroke:#FFFFFF;stroke-width:1.5;stroke-linecap:round;stroke-linejoin:round;}
	.st29{fill:none;stroke:#95A6B1;stroke-width:1.5;stroke-linecap:round;stroke-linejoin:round;stroke-miterlimit:10;}
	.st30{fill:none;stroke:#19A500;stroke-width:1.5;stroke-linecap:round;stroke-linejoin:round;stroke-miterlimit:10;}
</style>
<g id="Capa_2" class="st0">
</g>
<g id="Capa_1">
	<rect y="-6.5" class="st2" width="60" height="60"/>
	<rect y="-6.5" class="st2" width="60" height="60"/>
	<g>
		<rect id="Rectángulo_5125_1_" class="st2" width="47" height="47"/>
		<path id="Trazado_11848_1_" class="st30" d="M13.81,9.14c0,2.15-1.75,3.9-3.9,3.9c-2.15,0-3.9-1.75-3.9-3.9
			c0-2.15,1.75-3.9,3.9-3.9h0c2.14-0.01,3.89,1.72,3.9,3.87C13.81,9.12,13.81,9.13,13.81,9.14z"/>
		<g>
			<path class="st29" d="M36.66,23.42v0.09c0,1.58-0.28,3.1-0.8,4.5c-0.29,0.81-0.66,1.58-1.1,2.31c-0.78,1.28-1.77,2.42-2.93,3.37
				c-0.58,0.48-1.21,0.91-1.87,1.28c-1.39,0.8-2.95,1.33-4.6,1.56c-0.61,0.09-1.23,0.14-1.87,0.14c-0.07,0-0.14,0-0.2-0.01
				c-1.82-0.02-3.55-0.42-5.11-1.12c-0.36-0.15-0.71-0.33-1.06-0.53c-1.58-0.88-2.97-2.07-4.06-3.5h-0.01
				c-0.32-0.42-0.62-0.85-0.89-1.31c-0.93-1.57-1.55-3.36-1.75-5.27c-0.05-0.45-0.08-0.9-0.08-1.37V23.5c0-1.68,0.31-3.28,0.89-4.76
				c0.27-0.71,0.61-1.4,1-2.05c0.85-1.41,1.96-2.65,3.27-3.64c0.48-0.37,0.98-0.71,1.52-1.01c1.36-0.78,2.89-1.32,4.51-1.56
				c0.65-0.1,1.31-0.15,1.98-0.15c0.08,0,0.15,0,0.23,0.01c1.88,0.03,3.66,0.45,5.27,1.2c0.38,0.18,0.75,0.36,1.11,0.58
				c1.58,0.91,2.95,2.15,4.02,3.63c0.31,0.42,0.6,0.86,0.85,1.32c0.83,1.48,1.39,3.14,1.59,4.91
				C36.63,22.45,36.66,22.93,36.66,23.42z"/>
			<path class="st29" d="M15.71,5.94c2.38-1.06,5.02-1.65,7.79-1.65c10.61,0,19.2,8.6,19.2,19.2s-8.6,19.2-19.2,19.2
				S4.3,34.11,4.3,23.5c0-3.21,0.79-6.24,2.18-8.9"/>
			<path class="st29" d="M23.39,19.51c0.77-1.49,1.2-3.17,1.2-4.96c0-1.49-0.3-2.91-0.85-4.21c-0.08-0.01-0.15-0.01-0.23-0.01
				c-0.68,0-1.33,0.05-1.98,0.15c-1.62,0.24-3.14,0.78-4.51,1.56c-0.53,0.3-1.04,0.63-1.52,1.01c-1.31,0.99-2.41,2.23-3.27,3.64
				c-0.39,0.65-0.73,1.33-1,2.05c-0.58,1.47-0.89,3.08-0.89,4.76v0.06c0,0.47,0.03,0.92,0.08,1.37"/>
			<line class="st29" x1="13.06" y1="31.51" x2="13.06" y2="31.51"/>
			<path class="st29" d="M17.01,12.05c2.53,1.82,4.25,4.7,4.5,7.99"/>
			<path class="st29" d="M19.99,21.58c-1.7-2.63-4.52-4.48-7.77-4.88c-0.39,0.65-0.73,1.33-1,2.05c-0.58,1.47-0.89,3.08-0.89,4.76
				v0.06c0,0.47,0.03,0.92,0.08,1.37c0.2,1.91,0.82,3.7,1.75,5.27c0.27,0.46,0.57,0.9,0.89,1.31h0.01c1.09,1.43,2.48,2.63,4.06,3.5
				c0.34,0.2,0.69,0.37,1.06,0.53"/>
			<path class="st29" d="M19.51,23.55c-1.39-0.65-2.93-1.01-4.57-1.01c-1.65,0-3.2,0.36-4.6,1.02c0,0.47,0.03,0.92,0.08,1.37
				c0.2,1.91,0.82,3.7,1.75,5.27c0.27,0.46,0.57,0.9,0.89,1.31h0.01c1.09,1.43,2.48,2.63,4.06,3.5c0.34,0.2,0.69,0.37,1.06,0.53
				c1.57,0.7,3.3,1.09,5.11,1.12c0.07,0.01,0.14,0.01,0.2,0.01c0.63,0,1.25-0.04,1.87-0.14"/>
			<path class="st29" d="M19.98,25.39c-3.26,0.37-6.08,2.2-7.81,4.81c0.27,0.46,0.57,0.9,0.89,1.31h0.01
				c1.09,1.43,2.48,2.63,4.06,3.5c0.34,0.2,0.69,0.37,1.06,0.53c1.57,0.7,3.3,1.09,5.11,1.12c0.07,0.01,0.14,0.01,0.2,0.01
				c0.63,0,1.25-0.04,1.87-0.14c1.65-0.23,3.2-0.77,4.6-1.56c0.66-0.37,1.29-0.8,1.87-1.28"/>
			<path class="st29" d="M21.37,26.88c-2.47,1.9-4.1,4.82-4.25,8.13c0.34,0.2,0.69,0.37,1.06,0.53c1.57,0.7,3.3,1.09,5.11,1.12
				c0.07,0.01,0.14,0.01,0.2,0.01c0.63,0,1.25-0.04,1.87-0.14c1.65-0.23,3.2-0.77,4.6-1.56c0.66-0.37,1.29-0.8,1.87-1.28
				c1.16-0.95,2.14-2.09,2.93-3.37c0.44-0.72,0.81-1.5,1.1-2.31"/>
			<path class="st29" d="M23.58,27.49c-0.74,1.47-1.15,3.12-1.15,4.88c0,1.52,0.31,2.97,0.88,4.29c0.07,0.01,0.14,0.01,0.2,0.01
				c0.63,0,1.25-0.04,1.87-0.14c1.65-0.23,3.2-0.77,4.6-1.56c0.66-0.37,1.29-0.8,1.87-1.28c1.16-0.95,2.14-2.09,2.93-3.37
				c0.44-0.72,0.81-1.5,1.1-2.31c0.52-1.4,0.8-2.92,0.8-4.5v-0.09c0-0.49-0.04-0.96-0.09-1.44"/>
			<path class="st29" d="M34.13,15.75c0.31,0.42,0.6,0.86,0.85,1.32c0.83,1.48,1.39,3.14,1.59,4.91c0.05,0.47,0.09,0.95,0.09,1.44
				v0.09c0,1.58-0.28,3.1-0.8,4.5c-0.29,0.81-0.66,1.58-1.1,2.31c-0.78,1.28-1.77,2.42-2.93,3.37c-0.58,0.48-1.21,0.91-1.87,1.28
				c-2.46-1.9-4.09-4.84-4.22-8.16V26.8"/>
			<path class="st29" d="M29,11.54c0.38,0.18,0.75,0.36,1.11,0.58c1.58,0.91,2.95,2.15,4.02,3.63c0.31,0.42,0.6,0.86,0.85,1.32
				c0.83,1.48,1.39,3.14,1.59,4.91c0.05,0.47,0.09,0.95,0.09,1.44v0.09c0,1.58-0.28,3.1-0.8,4.5c-0.29,0.81-0.66,1.58-1.1,2.31
				c-3.25-0.48-6.02-2.4-7.67-5.08"/>
			<path class="st29" d="M27.49,23.53c1.36,0.61,2.87,0.96,4.46,0.96c1.69,0,3.28-0.39,4.71-1.07c0-0.49-0.04-0.96-0.09-1.44
				c-0.2-1.77-0.76-3.43-1.59-4.91c-0.26-0.46-0.54-0.9-0.85-1.32c-1.07-1.47-2.44-2.71-4.02-3.63c-0.36-0.22-0.73-0.41-1.11-0.58
				c-1.6-0.74-3.38-1.17-5.27-1.2c-0.08-0.01-0.15-0.01-0.23-0.01c-0.68,0-1.33,0.05-1.98,0.15"/>
			<path class="st29" d="M27,21.58c3.28-0.26,6.16-1.98,7.98-4.52"/>
			<path class="st29" d="M25.71,20.17c2.51-1.85,4.19-4.75,4.4-8.05c-0.36-0.22-0.73-0.41-1.11-0.58c-1.6-0.74-3.38-1.17-5.27-1.2
				c-0.08-0.01-0.15-0.01-0.23-0.01c-0.68,0-1.33,0.05-1.98,0.15c-1.62,0.24-3.14,0.78-4.51,1.56c-0.53,0.3-1.04,0.63-1.52,1.01
				c-1.31,0.99-2.41,2.23-3.27,3.64c-0.39,0.65-0.73,1.33-1,2.05"/>
			<circle class="st29" cx="23.5" cy="23.5" r="3.99"/>
		</g>
	</g>
</g>
</svg>
