<?xml version="1.0" encoding="utf-8"?>
<!-- Generator: Adobe Illustrator 24.0.2, SVG Export Plug-In . SVG Version: 6.00 Build 0)  -->
<svg version="1.1" xmlns="http://www.w3.org/2000/svg" xmlns:xlink="http://www.w3.org/1999/xlink" x="0px" y="0px"
	 viewBox="0 0 47 47" style="enable-background:new 0 0 47 47;" xml:space="preserve">
<style type="text/css">
	.st0{display:none;}
	.st1{display:inline;fill:#9AA5AF;}
	.st2{fill:none;}
	.st3{fill:#19A500;}
	.st4{fill:#A1D005;}
	.st5{fill:#149352;}
	.st6{fill:none;stroke:#19A500;stroke-width:1.6;stroke-miterlimit:10;}
	.st7{fill:none;stroke:#95A6B1;stroke-width:1.6;stroke-linecap:round;stroke-linejoin:round;stroke-miterlimit:10;}
	.st8{fill:none;stroke:#95A6B1;stroke-width:1.65;stroke-linecap:round;stroke-linejoin:round;stroke-miterlimit:10;}
	.st9{fill:none;stroke:#95A6B1;stroke-width:4;stroke-linecap:round;stroke-linejoin:round;stroke-miterlimit:10;}
	.st10{fill:none;stroke:#EFEF00;stroke-width:1.2;stroke-miterlimit:10;}
	.st11{fill:none;stroke:#FFFFFF;stroke-width:1.1037;stroke-linecap:round;stroke-linejoin:round;stroke-miterlimit:10;}
	.st12{fill:none;stroke:#95A6B1;stroke-width:1.2;stroke-linecap:round;stroke-linejoin:round;stroke-miterlimit:10;}
	.st13{fill:none;stroke:#19A500;stroke-width:1.2;stroke-miterlimit:10;}
	.st14{fill:none;stroke:#EFEF00;stroke-width:1.6;stroke-miterlimit:10;}
	.st15{fill:none;stroke:#FFFFFF;stroke-width:1.6;stroke-linecap:round;stroke-linejoin:round;stroke-miterlimit:10;}
	.st16{fill:none;stroke:#95A6B1;stroke-width:1.2589;stroke-linecap:round;stroke-linejoin:round;stroke-miterlimit:10;}
	.st17{fill:none;stroke:#95A6B1;stroke-width:1.0718;stroke-linecap:round;stroke-linejoin:round;stroke-miterlimit:10;}
	.st18{fill:none;stroke:#95A6B1;stroke-width:1.2212;stroke-linecap:round;stroke-linejoin:round;stroke-miterlimit:10;}
	.st19{fill:none;stroke:#95A6B1;stroke-width:1.2408;stroke-linecap:round;stroke-linejoin:round;stroke-miterlimit:10;}
	.st20{fill:none;stroke:#95A6B1;stroke-width:1.2;stroke-linecap:round;stroke-linejoin:round;}
	.st21{fill:none;stroke:#95A6B1;stroke-width:1.2;stroke-linecap:round;stroke-linejoin:round;stroke-dasharray:1.6013,3.2026;}
	.st22{fill:none;stroke:#95A6B1;stroke-width:1.2;stroke-linecap:round;stroke-linejoin:round;stroke-dasharray:1.7413,3.4827;}
	.st23{fill:none;stroke:#95A6B1;stroke-width:1.2;stroke-linecap:round;stroke-linejoin:round;stroke-dasharray:2.056,4.112;}
	.st24{fill:none;stroke:#95A6B1;stroke-width:1.2275;stroke-linecap:round;stroke-linejoin:round;stroke-miterlimit:10;}
	.st25{fill:none;stroke:#95A6B1;stroke-width:1.2565;stroke-linecap:round;stroke-linejoin:round;stroke-miterlimit:10;}
	.st26{fill:none;stroke:#95A6B1;stroke-width:1.2892;stroke-linecap:round;stroke-linejoin:round;stroke-miterlimit:10;}
	.st27{fill:none;stroke:#95A6B1;stroke-width:1.3462;stroke-linecap:round;stroke-linejoin:round;stroke-miterlimit:10;}
	.st28{fill:none;stroke:#FFFFFF;stroke-width:1.5;stroke-linecap:round;stroke-linejoin:round;}
	.st29{fill:none;stroke:#95A6B1;stroke-width:1.5;stroke-linecap:round;stroke-linejoin:round;stroke-miterlimit:10;}
	.st30{fill:none;stroke:#19A500;stroke-width:1.5;stroke-linecap:round;stroke-linejoin:round;stroke-miterlimit:10;}
</style>
<g id="Capa_2" class="st0">
</g>
<g id="Capa_1">
	<rect y="-6.5" class="st2" width="60" height="60"/>
	<rect x="0" y="-6.5" class="st2" width="60" height="60"/>
	<g>
		<g>
			<path class="st29" d="M7.86,12.17V9.43c0-1.08,0.86-1.94,1.93-1.94h3.06h1.5c1.07,0,1.93,0.87,1.93,1.94v3.5v7.82"/>
			<polyline class="st29" points="16.28,32.3 16.28,42.42 7.86,42.42 7.86,24.38 			"/>
			<polyline class="st29" points="24.19,42.42 24.19,32.07 24.19,30.88 			"/>
			<path class="st29" d="M24.19,22.16v-1.21v-4.88c0.06-1.67-1.24-3.08-2.92-3.14h-4.99"/>
			<line id="Línea_2122_2_" class="st29" x1="44.24" y1="42.42" x2="5.11" y2="42.42"/>
			<circle class="st29" cx="19.33" cy="26.52" r="6.54"/>
			<circle class="st29" cx="19.33" cy="26.52" r="3.53"/>
			<circle class="st29" cx="34.55" cy="26.52" r="3.05"/>
			<line class="st29" x1="20.92" y1="20.18" x2="34.92" y2="23.49"/>
			<line class="st29" x1="34.55" y1="29.57" x2="20.85" y2="32.88"/>
			<path class="st29" d="M31.97,16.33h6.39c1.91,0,3.45,1.54,3.45,3.45v22.64H28.52V19.78C28.52,17.87,30.07,16.33,31.97,16.33z"/>
			<polyline class="st29" points="35.78,33.06 34.55,35.6 36.48,35.6 35.01,38.83 			"/>
			<line class="st29" x1="31.97" y1="16.33" x2="31.97" y2="12.75"/>
			<line class="st29" x1="38.36" y1="16.33" x2="38.36" y2="12.75"/>
			<line class="st29" x1="30.58" y1="13.67" x2="39.74" y2="13.67"/>
			<line class="st29" x1="10" y1="7.31" x2="10" y2="4.01"/>
			<line class="st29" x1="14.58" y1="7.31" x2="14.58" y2="4.01"/>
			<line class="st29" x1="8.91" y1="4.94" x2="15.96" y2="4.94"/>
		</g>
		<rect id="Rectángulo_5125_2_" class="st2" width="47" height="47"/>
		<path id="Trazado_11848_2_" class="st30" d="M11.83,18.26c0,2.15-1.75,3.9-3.9,3.9c-2.15,0-3.9-1.75-3.9-3.9
			c0-2.15,1.75-3.9,3.9-3.9h0c2.14-0.01,3.89,1.72,3.9,3.87C11.83,18.24,11.83,18.25,11.83,18.26z"/>
	</g>
</g>
</svg>
