<?xml version="1.0" encoding="utf-8"?>
<!-- Generator: Adobe Illustrator 24.0.2, SVG Export Plug-In . SVG Version: 6.00 Build 0)  -->
<svg version="1.1" id="Capa_1" xmlns="http://www.w3.org/2000/svg" xmlns:xlink="http://www.w3.org/1999/xlink" x="0px" y="0px"
	 viewBox="0 0 65 65" style="enable-background:new 0 0 65 65;" xml:space="preserve">
<style type="text/css">
	.st0{display:none;}
	.st1{fill:none;}
	.st2{fill:none;stroke:#97A5AF;stroke-width:1.6;stroke-linecap:round;stroke-linejoin:round;}
	.st3{fill:none;stroke:#00A800;stroke-width:1.6;stroke-linecap:round;stroke-linejoin:round;stroke-miterlimit:10;}
	.st4{fill:none;stroke:#95A6B1;stroke-width:1.6;stroke-linecap:round;stroke-linejoin:round;}
	.st5{clip-path:url(#SVGID_2_);}
	.st6{fill:#4DA12E;}
	.st7{fill:#96D200;}
</style>
<g id="Capa_2_1_" class="st0">
</g>
<g id="Capa_1_1_">
	<g>
		<g id="Grupo_13216_9_" transform="translate(0.246 0.246)">
			<rect id="Rectángulo_3799_11_" x="-0.25" y="-0.25" class="st1" width="65" height="65"/>
		</g>
		<rect id="Rectángulo_3799-2_9_" class="st1" width="65" height="65"/>
		<g>
			<g id="Grupo_12943_2_" transform="translate(823.843 208.991)">
				<g id="Grupo_12040_2_" transform="translate(-815.047 -200.226)">
					<path id="Rectángulo_4147_2_" class="st2" d="M41.37,10.59h4.9c2.12,0,3.84,1.72,3.84,3.84v7.25c0,2.12-1.72,3.84-3.84,3.84
						h-4.9c-2.12,0-3.84-1.72-3.84-3.84v-7.25C37.53,12.31,39.25,10.59,41.37,10.59z"/>
					<path id="Trazado_10739_2_" class="st2" d="M40.19,14.52V39.5h7.15V14.52"/>
					<line id="Línea_2151_2_" class="st2" x1="43.9" y1="25.56" x2="43.9" y2="39.38"/>
					<g id="Grupo_12039_2_" transform="translate(17.525 1.947)">
						<path id="Trazado_10740_4_" class="st2" d="M10.5,29.69h5.73l-1.66-12.96v-7.4"/>
						<path id="Trazado_10740_2_" class="st2" d="M7.51,9.16v7.47L7.35,17.9"/>
						<path id="Rectángulo_4149_2_" class="st2" d="M4.68,16.74v-4.06c0-2.12,1.72-3.84,3.84-3.84h4.9c2.12,0,3.84,1.72,3.84,3.84
							v7.25c0,2.12-1.72,3.84-3.84,3.84H10.5"/>
						<path id="Trazado_10741_3_" class="st2" d="M7.36,37.58h7.28v-7.84"/>
						<line id="Línea_2154_2_" class="st2" x1="11.08" y1="29.89" x2="11.08" y2="37.34"/>
						<circle id="Elipse_1975_2_" class="st2" cx="10.84" cy="3.24" r="3.36"/>
					</g>
					<circle id="Elipse_1976_2_" class="st2" cx="43.76" cy="4.99" r="3.36"/>
				</g>
			</g>
			<g>
				<g>
					<path id="Trazado_5703_1_" class="st3" d="M15.21,33.03c0,2.52-2.04,4.56-4.56,4.56s-4.56-2.04-4.56-4.56s2.04-4.56,4.56-4.56
						c2.5-0.02,4.54,2,4.56,4.5C15.21,32.98,15.21,33,15.21,33.03z"/>
					<line id="Línea_1013_1_" class="st4" x1="19.32" y1="21.16" x2="19.32" y2="25.37"/>
					<line id="Línea_1014_1_" class="st4" x1="25.47" y1="21.16" x2="25.47" y2="25.37"/>
					<path id="Trazado_5700_2_" class="st4" d="M7.86,39.32v8.96h28.96V34.63c0-1.32-0.34-2.65-1.08-3.74
						c-0.53-0.78-1.22-1.44-2.02-1.8l-8.25-3.71"/>
					<line id="Línea_1015_1_" class="st4" x1="19.32" y1="25.38" x2="14.82" y2="27.45"/>
					<line id="Línea_1016_1_" class="st4" x1="22.39" y1="28.86" x2="19.32" y2="25.37"/>
					<line id="Línea_1017_1_" class="st4" x1="22.39" y1="28.86" x2="25.47" y2="25.37"/>
					<path id="Trazado_5701_1_" class="st4" d="M28.17,16.25c0,3.2-2.6,5.8-5.8,5.8s-5.8-2.6-5.8-5.8"/>
					<path id="Trazado_5702_1_" class="st4" d="M16.57,16.25v-6c0-3.2,2.6-5.8,5.8-5.8s5.8,2.6,5.8,5.8v6"/>
				</g>
				<line class="st2" x1="13.85" y1="11.06" x2="30.82" y2="11.06"/>
				<line class="st4" x1="7.86" y1="48.28" x2="56.14" y2="48.26"/>
			</g>
		</g>
	</g>
	<g>
		<defs>
			<rect id="SVGID_1_" y="48.26" width="65" height="16.74"/>
		</defs>
		<clipPath id="SVGID_2_">
			<use xlink:href="#SVGID_1_"  style="overflow:visible;"/>
		</clipPath>
		<g class="st5">
			<g>
				<rect y="48.26" class="st1" width="65" height="16.74"/>
			</g>
			<g>
				<g>
					<path class="st6" d="M45.38,61.32h-7.17c-0.66,0-1.2-0.54-1.2-1.2s0.54-1.2,1.2-1.2h7.17c0.66,0,1.2,0.54,1.2,1.2
						S46.04,61.32,45.38,61.32z"/>
				</g>
				<g>
					<path class="st6" d="M53.11,61.32h-0.58c-0.66,0-1.2-0.54-1.2-1.2s0.54-1.2,1.2-1.2h0.58c0.66,0,1.2,0.54,1.2,1.2
						S53.77,61.32,53.11,61.32z"/>
				</g>
				<g>
					<path class="st6" d="M18.99,61.32h-7.1c-0.66,0-1.2-0.54-1.2-1.2s0.54-1.2,1.2-1.2h7.1c0.66,0,1.2,0.54,1.2,1.2
						S19.65,61.32,18.99,61.32z"/>
				</g>
				<g>
					<path class="st7" d="M31.05,61.32H18.53c-0.66,0-1.2-0.54-1.2-1.2s0.54-1.2,1.2-1.2h12.52c0.66,0,1.2,0.54,1.2,1.2
						S31.71,61.32,31.05,61.32z"/>
				</g>
				<g>
					<path class="st7" d="M35.47,55.21H11.89c-0.66,0-1.2-0.54-1.2-1.2s0.54-1.2,1.2-1.2h23.58c0.66,0,1.2,0.54,1.2,1.2
						S36.13,55.21,35.47,55.21z"/>
				</g>
				<g>
					<path class="st6" d="M53.11,55.21H34.75c-0.66,0-1.2-0.54-1.2-1.2s0.54-1.2,1.2-1.2h18.36c0.66,0,1.2,0.54,1.2,1.2
						S53.77,55.21,53.11,55.21z"/>
				</g>
				<g>
					<path class="st6" d="M12.32,55.21h-0.43c-0.66,0-1.2-0.54-1.2-1.2s0.54-1.2,1.2-1.2h0.43c0.66,0,1.2,0.54,1.2,1.2
						S12.98,55.21,12.32,55.21z"/>
				</g>
			</g>
		</g>
	</g>
	<line class="st4" x1="22.34" y1="6.98" x2="22.34" y2="3.02"/>
</g>
</svg>
