<?xml version="1.0" encoding="utf-8"?>
<!-- Generator: Adobe Illustrator 24.0.2, SVG Export Plug-In . SVG Version: 6.00 Build 0)  -->
<svg version="1.1" xmlns="http://www.w3.org/2000/svg" xmlns:xlink="http://www.w3.org/1999/xlink" x="0px" y="0px"
	 viewBox="0 0 47 47" style="enable-background:new 0 0 47 47;" xml:space="preserve">
<style type="text/css">
	.st0{display:none;}
	.st1{display:inline;fill:#9AA5AF;}
	.st2{fill:none;}
	.st3{fill:none;stroke:#FFFFFF;stroke-width:1.5;stroke-linecap:round;stroke-linejoin:round;}
	.st4{fill:none;stroke:#95A6B1;stroke-width:1.6;stroke-linecap:round;stroke-linejoin:round;}
	.st5{fill:none;stroke:#00A800;stroke-width:1.6;stroke-linecap:round;stroke-linejoin:round;stroke-miterlimit:10;}
	.st6{fill:none;stroke:#4DA12E;stroke-width:2.4;stroke-linecap:round;stroke-linejoin:round;stroke-miterlimit:10;}
	.st7{fill:none;stroke:#96D200;stroke-width:2.4;stroke-linecap:round;stroke-linejoin:round;stroke-miterlimit:10;}
	.st8{fill:none;stroke:#97A5AF;stroke-width:1.6;stroke-linecap:round;stroke-linejoin:round;}
</style>
<g id="Capa_2" class="st0">
	<rect x="-4.43" y="-4.19" class="st1" width="55.38" height="55.38"/>
</g>
<g id="Capa_1">
	<g>
		<g>
			<rect id="Rectángulo_4850" class="st2" width="47" height="47"/>
		</g>
		<g>
			<path id="Trazado_5703_17_" class="st3" d="M9.72,19.32c0,1.92-1.56,3.48-3.48,3.48s-3.48-1.56-3.48-3.48s1.56-3.48,3.48-3.48
				c1.91-0.01,3.46,1.52,3.48,3.43C9.72,19.29,9.72,19.3,9.72,19.32z"/>
			<path class="st3" d="M23.84,39.55l0.55,0.55c0.73,0.73,1.91,0.73,2.63,0l0.1-0.1c0.73-0.73,0.73-1.91,0-2.63l-0.55-0.55
				l0.79-0.79l1.16,1.16c0.67,0.67,1.75,0.67,2.42,0l0.31-0.31c0.67-0.67,0.67-1.75,0-2.42l-1.16-1.16l0.86-0.86l1.68,1.68
				c0.62,0.62,1.62,0.62,2.24,0l0.49-0.49c0.62-0.62,0.62-1.62,0-2.24l-1.68-1.68l0.79-0.79l1.52,1.52c0.6,0.6,1.57,0.6,2.17,0
				l0.56-0.56c0.6-0.6,0.6-1.57,0-2.17L37.2,26.2l-6.07-6.07"/>
			<line class="st3" x1="20.61" y1="36.32" x2="23.84" y2="39.55"/>
			<polyline class="st3" points="14.37,30.08 12.66,28.37 11.85,27.56 			"/>
			<line class="st3" x1="17.88" y1="33.59" x2="16.94" y2="32.66"/>
			<path class="st3" d="M10.08,23.3l0.43,0.46c0.24,0.24,0.83,0.84,0.95,2.13c0.05,0.53-0.05,1.23,0.39,1.67"/>
			<line class="st3" x1="21.13" y1="12.6" x2="13.11" y2="4.25"/>
			<path class="st3" d="M9.87,31.03l-0.91-0.91c-0.5-0.5-0.5-1.31,0-1.81l0.46-0.46c0.75-0.75,1.98-0.75,2.73,0l0,0
				c0.75,0.75,0.75,1.98,0,2.73l-0.46,0.46C11.18,31.53,10.37,31.53,9.87,31.03z"/>
			<path class="st3" d="M12.96,35.03l-0.96-0.96c-0.49-0.49-0.49-1.28,0-1.76l1.48-1.48c0.75-0.75,1.98-0.75,2.73,0l0,0
				c0.75,0.75,0.75,1.98,0,2.73l-1.48,1.48C14.24,35.51,13.45,35.51,12.96,35.03z"/>
			<path class="st3" d="M27,12.15l1.04,1.04l-5.64-0.78c-0.75-0.1-1.5,0.17-2.01,0.73l-4.99,5.52c-0.38,0.42-0.51,1.01-0.34,1.54
				l2.35,7.41l0.94-0.35c1.48-0.55,2.22-2.2,1.67-3.67l-0.75-1.99c-0.22-0.57-0.07-1.22,0.36-1.65l1.13-1.13
				c0.54-0.54,1.37-0.63,2.02-0.23l1.49,0.92c2.82,1.75,6.44,1.49,8.99-0.63l0.24-0.2l4.95,4.95l2.76-2.65L29.75,9.5L27,12.15z"/>
			<path class="st3" d="M16.09,39.03l-0.91-0.91c-0.5-0.5-0.5-1.31,0-1.81l2.81-2.81c0.75-0.75,1.98-0.75,2.73,0l0,0
				c0.75,0.75,0.75,1.97,0,2.73l-2.81,2.81C17.4,39.53,16.59,39.53,16.09,39.03z"/>
			<path class="st3" d="M19.78,42.37l-0.91-0.91c-0.5-0.5-0.5-1.31,0-1.81l1.17-1.17c0.75-0.75,1.98-0.75,2.73,0l0,0
				c0.75,0.75,0.75,1.97,0,2.73l-1.17,1.17C21.09,42.87,20.28,42.87,19.78,42.37z"/>
			<line class="st3" x1="37.74" y1="22.9" x2="35.8" y2="24.8"/>
			<g>
				<line class="st3" x1="30.7" y1="10.45" x2="34.92" y2="6.33"/>
				<line class="st3" x1="40.01" y1="19.76" x2="44.23" y2="15.63"/>
			</g>
		</g>
	</g>
</g>
</svg>
