<?xml version="1.0" encoding="utf-8"?>
<!-- Generator: Adobe Illustrator 24.0.2, SVG Export Plug-In . SVG Version: 6.00 Build 0)  -->
<svg version="1.1" id="Capa_1" xmlns="http://www.w3.org/2000/svg" xmlns:xlink="http://www.w3.org/1999/xlink" x="0px" y="0px"
	 viewBox="0 0 65 65" style="enable-background:new 0 0 65 65;" xml:space="preserve">
<style type="text/css">
	.st0{display:none;}
	.st1{fill:none;}
	.st2{fill:none;stroke:#95A6B1;stroke-width:1.6;stroke-linecap:round;stroke-linejoin:round;}
	.st3{fill:none;stroke:#00A800;stroke-width:1.6;stroke-linecap:round;stroke-linejoin:round;stroke-miterlimit:10;}
	.st4{clip-path:url(#SVGID_2_);}
	.st5{fill:#4DA12E;}
	.st6{fill:#96D200;}
</style>
<g id="Capa_2_1_" class="st0">
</g>
<g id="Capa_1_1_">
	<g>
		<g>
			<g id="Grupo_13216_1_" transform="translate(0.246 0.246)">
				<rect id="Rectángulo_3799_1_" x="-0.25" y="-0.25" class="st1" width="65" height="65"/>
			</g>
			<rect id="Rectángulo_3799-2_5_" class="st1" width="65" height="65"/>
			<g>
				<line class="st2" x1="4.04" y1="48.19" x2="60.96" y2="48.19"/>
				<g>
					<g>
						<line id="Línea_1013_3_" class="st2" x1="39.65" y1="21.07" x2="39.65" y2="25.27"/>
						<line id="Línea_1014_3_" class="st2" x1="45.81" y1="21.07" x2="45.81" y2="25.27"/>
						<path id="Trazado_5700_3_" class="st2" d="M32.93,28.37c0.79-0.36,1.56-0.67,2.23-1.01l4.49-2.08"/>
						<path id="Trazado_5700_8_" class="st2" d="M57.16,44.38v3.81H28.2v-8.96v-3.21"/>
						<path id="Trazado_5700_7_" class="st2" d="M57.16,35.9v4.39"/>
						<path id="Trazado_5700_4_" class="st2" d="M45.81,25.28l8.25,3.71c0.8,0.36,1.49,1.02,2.02,1.8c0.19,0.27,0.35,0.56,0.48,0.86
							"/>
						<line id="Línea_1016_2_" class="st2" x1="42.73" y1="28.76" x2="39.65" y2="25.27"/>
						<polyline id="Línea_1017_3_" class="st2" points="45.81,25.27 42.73,28.76 42.73,48.26 						"/>
						<path id="Trazado_5701_3_" class="st2" d="M48.51,16.16c0,3.2-2.6,5.8-5.8,5.8s-5.8-2.6-5.8-5.8"/>
						<path id="Trazado_5702_3_" class="st2" d="M36.91,16.16v-4c0-3.2,2.6-5.8,5.8-5.8s5.8,2.6,5.8,5.8v4"/>
					</g>
					<g>
						<path id="Trazado_5703_2_" class="st3" d="M17.82,19.31c0,2.12-1.72,3.84-3.84,3.84s-3.84-1.72-3.84-3.84s1.72-3.84,3.84-3.84
							c2.11-0.01,3.83,1.68,3.84,3.79C17.82,19.28,17.82,19.3,17.82,19.31z"/>
						<line class="st2" x1="20.32" y1="25.67" x2="20.32" y2="48.12"/>
						<g>
							<path class="st2" d="M18.63,13.63c0.93-1.1,1.7-1.76,1.7-1.76s4.92,4.18,4.92,9.33s-4.93,9.33-4.93,9.33s-1.77-1.5-3.19-3.82
								"/>
							<line class="st2" x1="20.32" y1="30.53" x2="20.32" y2="21.2"/>
						</g>
						<g>
							<path class="st2" d="M28.2,36.02c-2.49,0-4.68-1.02-4.68-1.02s1.26-4.52,4.66-6.09s7.65,0.42,7.65,0.42s-1.26,4.52-4.66,6.09
								C30.21,35.86,29.18,36.02,28.2,36.02"/>
							<line class="st2" x1="20.32" y1="36.47" x2="29.67" y2="32.17"/>
						</g>
						<g>
							<path class="st2" d="M9.48,35.42c3.4,1.57,7.65-0.42,7.65-0.42s-1.26-4.52-4.66-6.09s-7.65,0.42-7.65,0.42
								S6.08,33.86,9.48,35.42z"/>
							<line class="st2" x1="20.32" y1="36.47" x2="10.98" y2="32.17"/>
						</g>
					</g>
					<g>
						<circle class="st2" cx="55.89" cy="42.14" r="2.24"/>
						<circle class="st2" cx="57.94" cy="33.66" r="2.24"/>
						<polyline class="st2" points="53.65,42.14 51.15,42.14 48.02,37.51 42.73,37.51 						"/>
						<line class="st2" x1="55.7" y1="33.66" x2="42.9" y2="33.66"/>
					</g>
				</g>
			</g>
		</g>
		<g>
			<defs>
				<rect id="SVGID_1_" y="48.26" width="65" height="16.74"/>
			</defs>
			<clipPath id="SVGID_2_">
				<use xlink:href="#SVGID_1_"  style="overflow:visible;"/>
			</clipPath>
			<g class="st4">
				<g>
					<rect y="48.26" class="st1" width="65" height="16.74"/>
				</g>
				<g>
					<g>
						<path class="st5" d="M45.38,61.32h-7.17c-0.66,0-1.2-0.54-1.2-1.2s0.54-1.2,1.2-1.2h7.17c0.66,0,1.2,0.54,1.2,1.2
							S46.04,61.32,45.38,61.32z"/>
					</g>
					<g>
						<path class="st5" d="M53.11,61.32h-0.58c-0.66,0-1.2-0.54-1.2-1.2s0.54-1.2,1.2-1.2h0.58c0.66,0,1.2,0.54,1.2,1.2
							S53.77,61.32,53.11,61.32z"/>
					</g>
					<g>
						<path class="st5" d="M18.99,61.32h-7.1c-0.66,0-1.2-0.54-1.2-1.2s0.54-1.2,1.2-1.2h7.1c0.66,0,1.2,0.54,1.2,1.2
							S19.65,61.32,18.99,61.32z"/>
					</g>
					<g>
						<path class="st6" d="M31.05,61.32H18.53c-0.66,0-1.2-0.54-1.2-1.2s0.54-1.2,1.2-1.2h12.52c0.66,0,1.2,0.54,1.2,1.2
							S31.71,61.32,31.05,61.32z"/>
					</g>
					<g>
						<path class="st6" d="M35.47,55.21H11.89c-0.66,0-1.2-0.54-1.2-1.2s0.54-1.2,1.2-1.2h23.58c0.66,0,1.2,0.54,1.2,1.2
							S36.13,55.21,35.47,55.21z"/>
					</g>
					<g>
						<path class="st5" d="M53.11,55.21H34.75c-0.66,0-1.2-0.54-1.2-1.2s0.54-1.2,1.2-1.2h18.36c0.66,0,1.2,0.54,1.2,1.2
							S53.77,55.21,53.11,55.21z"/>
					</g>
					<g>
						<path class="st5" d="M12.32,55.21h-0.43c-0.66,0-1.2-0.54-1.2-1.2s0.54-1.2,1.2-1.2h0.43c0.66,0,1.2,0.54,1.2,1.2
							S12.98,55.21,12.32,55.21z"/>
					</g>
				</g>
			</g>
		</g>
	</g>
</g>
</svg>
