<?xml version="1.0" encoding="utf-8"?>
<!-- Generator: Adobe Illustrator 24.0.2, SVG Export Plug-In . SVG Version: 6.00 Build 0)  -->
<svg version="1.1" id="Capa_1" xmlns="http://www.w3.org/2000/svg" xmlns:xlink="http://www.w3.org/1999/xlink" x="0px" y="0px"
	 viewBox="0 0 65 65" style="enable-background:new 0 0 65 65;" xml:space="preserve">
<style type="text/css">
	.st0{fill:none;}
	.st1{fill:none;stroke:#95A6B1;stroke-width:1.6;stroke-linecap:round;stroke-linejoin:round;}
	.st2{fill:none;stroke:#19A500;stroke-width:1.6;stroke-linecap:round;stroke-linejoin:round;stroke-miterlimit:10;}
	.st3{fill:#95A6B1;stroke:#95A6B1;stroke-width:1.6;stroke-linecap:round;stroke-linejoin:round;stroke-miterlimit:10;}
	.st4{fill:none;stroke:#95A6B1;stroke-width:1.6;stroke-linecap:round;stroke-linejoin:round;stroke-miterlimit:10;}
	.st5{fill:#4DA12E;}
	.st6{fill:#96D200;}
	.st7{fill:#95A6B1;}
	.st8{fill:none;stroke:#00A800;stroke-width:1.6;stroke-linecap:round;stroke-linejoin:round;stroke-miterlimit:10;}
	.st9{fill:none;stroke:#95A6B1;stroke-width:1.5902;stroke-linecap:round;stroke-linejoin:round;}
	.st10{fill:none;stroke:#19A500;stroke-width:1.6;stroke-miterlimit:10;}
	.st11{fill:none;stroke:#93A4AF;stroke-width:1.6;stroke-linecap:round;stroke-linejoin:round;}
</style>
<g>
	<g id="Grupo_13213_2_" transform="translate(-0.246 -0.246)">
		<rect id="Rectángulo_3799-2_2_" x="0.25" y="0.25" class="st0" width="65" height="65"/>
		<path class="st1" d="M38.89,13.79c0.25,0,1.27-0.2,1.45-0.37l0.8-0.73c0.34-0.31,0.84-0.35,1.22-0.09l3.24,2.14
			c0.22,0.14,0.37,0.36,0.42,0.62l0.63,2.82c0.07,0.3-0.01,0.62-0.21,0.86l-0.59,0.71c-0.14,0.17-0.23,0.39-0.23,0.61l-0.06,2.13
			c-0.01,0.2,0.07,0.4,0.22,0.54l0.18,0.18c0.21,0.21,0.53,0.28,0.81,0.16l1.65-0.71v1.07c0,0.14-0.03,0.28-0.09,0.41l-0.52,1.17
			c-0.1,0.22-0.11,0.46-0.05,0.68l0.5,1.72c0.09,0.32,0.38,0.53,0.71,0.53h0.66c0.19,0,0.37-0.07,0.51-0.2l2.55-2.41
			c0.59-0.55,1.55-0.22,1.68,0.57l0.23,1.5c0.05,0.34-0.07,0.67-0.32,0.9l-5.03,4.48c-0.05,0.04-0.09,0.08-0.15,0.11l-1.02,0.62
			c-0.38,0.23-0.56,0.68-0.45,1.11l0.26,0.97c0.09,0.35-0.01,0.73-0.28,0.98l-2.29,2.18c-0.23,0.22-0.34,0.54-0.3,0.86l0.19,1.42
			c0.03,0.22-0.01,0.44-0.12,0.63l-1.95,3.38c-0.25,0.44-0.8,0.62-1.27,0.42l-0.64-0.28c-0.27-0.12-0.58-0.11-0.84,0.02l-2.14,1.04
			c-0.16,0.08-0.29,0.19-0.39,0.33l-1.38,2.01c-0.26,0.38-0.81,0.43-1.14,0.1l-0.4-0.42c-0.07-0.07-0.12-0.15-0.15-0.23l-0.75-1.82
			c-0.14-0.35-1.95-0.54-1.95-0.54c-0.65-0.1-1.17,0-1.17,0.6v0.99c0,0.51-0.39,0.94-0.89,0.99l-3.38,0.36
			c-0.42,0.04-0.83-0.18-1.01-0.57l-1.54-3.26c-0.07-0.16-0.11-0.33-0.09-0.51l0.18-2.27c0.02-0.21-0.04-0.43-0.15-0.61l-1.38-2.21
			c-0.2-0.32-0.57-0.5-0.94-0.47l-4.88,0.46c-0.49,0.05-0.93-0.27-1.06-0.74l-0.86-3.22c-0.03-0.12-0.09-0.24-0.17-0.34l-1.93-2.56
			c-0.18-0.24-0.24-0.55-0.17-0.84l0.21-0.86c0.08-0.33,0.38-0.57,0.72-0.57h0.47c0.39,0,0.71-0.3,0.74-0.68l0.04-0.57
			c0.03-0.42,0.41-0.73,0.83-0.68l2.12,0.29c0.56,0.08,1.07-0.33,1.13-0.89l0.15-1.55c0.03-0.31-0.09-0.62-0.32-0.83l-8.28-7.69
			c-0.29-0.27-0.32-0.72-0.06-1.02l0.5-0.59c0.2-0.24,0.28-0.55,0.22-0.86l-0.35-1.63l0.54,0.14c0.23,0.06,0.47,0,0.65-0.15
			l1.52-1.27l0.06,1.08c0.01,0.13-0.01,0.26-0.05,0.38l-0.24,0.69c-0.25,0.73,0.39,1.46,1.15,1.3l0.3-0.06
			c0.34-0.07,0.63-0.32,0.74-0.65l0.48-1.38c0.06-0.17,0.07-0.36,0.03-0.54l-1.06-4.83c-0.06-0.26-0.21-0.49-0.44-0.63l-0.39-0.25
			c-0.57-0.36-0.62-1.18-0.1-1.61l0.29-0.24c0.14-0.11,0.3-0.19,0.47-0.22l1.62-0.28c0.17-0.03,0.33-0.1,0.46-0.21l2.03-1.66
			c0.53-0.43,1.33-0.22,1.57,0.43l0.39,1.06c0.07,0.18,0.18,0.33,0.33,0.45l1.64,1.26c0.25,0.19,0.39,0.48,0.39,0.79v1.47
			c0,0.19-0.06,0.38-0.16,0.54l-2.53,3.89c-0.07,0.1-0.11,0.22-0.14,0.34l-1.23,5.89c-0.05,0.26,0,0.53,0.14,0.76l1.96,2.97
			c0.19,0.28,0.5,0.45,0.83,0.45h5.48c0.38,0,0.73-0.21,0.89-0.55l0.53-1.07"/>
	</g>
	<path id="Trazado_11848_7_" class="st2" d="M36.86,16.43c0,2.31-1.87,4.18-4.18,4.18c-2.31,0-4.18-1.87-4.18-4.18
		c0-2.31,1.87-4.18,4.18-4.18h0c2.3-0.01,4.17,1.85,4.18,4.15C36.86,16.4,36.86,16.41,36.86,16.43z"/>
</g>
<g>
	<g>
		<g>
			<rect y="48.26" class="st0" width="65" height="16.74"/>
		</g>
		<g>
			<g>
				<path class="st5" d="M45.38,61.32h-7.17c-0.66,0-1.2-0.54-1.2-1.2s0.54-1.2,1.2-1.2h7.17c0.66,0,1.2,0.54,1.2,1.2
					S46.04,61.32,45.38,61.32z"/>
			</g>
			<g>
				<path class="st5" d="M53.11,61.32h-0.58c-0.66,0-1.2-0.54-1.2-1.2s0.54-1.2,1.2-1.2h0.58c0.66,0,1.2,0.54,1.2,1.2
					S53.77,61.32,53.11,61.32z"/>
			</g>
			<g>
				<path class="st5" d="M18.99,61.32h-7.1c-0.66,0-1.2-0.54-1.2-1.2s0.54-1.2,1.2-1.2h7.1c0.66,0,1.2,0.54,1.2,1.2
					S19.65,61.32,18.99,61.32z"/>
			</g>
			<g>
				<path class="st6" d="M31.05,61.32H18.53c-0.66,0-1.2-0.54-1.2-1.2s0.54-1.2,1.2-1.2h12.52c0.66,0,1.2,0.54,1.2,1.2
					S31.71,61.32,31.05,61.32z"/>
			</g>
			<g>
				<path class="st6" d="M35.47,55.21H11.89c-0.66,0-1.2-0.54-1.2-1.2s0.54-1.2,1.2-1.2h23.58c0.66,0,1.2,0.54,1.2,1.2
					S36.14,55.21,35.47,55.21z"/>
			</g>
			<g>
				<path class="st5" d="M53.11,55.21H34.75c-0.66,0-1.2-0.54-1.2-1.2s0.54-1.2,1.2-1.2h18.36c0.66,0,1.2,0.54,1.2,1.2
					S53.77,55.21,53.11,55.21z"/>
			</g>
			<g>
				<path class="st5" d="M12.32,55.21h-0.43c-0.66,0-1.2-0.54-1.2-1.2s0.54-1.2,1.2-1.2h0.43c0.66,0,1.2,0.54,1.2,1.2
					S12.98,55.21,12.32,55.21z"/>
			</g>
		</g>
	</g>
</g>
</svg>
