<svg xmlns="http://www.w3.org/2000/svg" width="65" height="65" viewBox="0 0 65 65">
  <g id="Grupo_20124" data-name="Grupo 20124" transform="translate(85)">
    <rect id="Rectángulo_3799-2" data-name="Rectángulo 3799-2" width="65" height="65" transform="translate(-85)" fill="none"/>
    <g id="Grupo_20129" data-name="Grupo 20129">
      <g id="Grupo_20125" data-name="Grupo 20125">
        <rect id="Rectángulo_5752" data-name="Rectángulo 5752" width="65" height="16.741" transform="translate(-85 48.259)" fill="none"/>
        <g id="Grupo_20124-2" data-name="Grupo 20124">
          <line id="Línea_4567" data-name="Línea 4567" x2="7.167" transform="translate(-46.786 60.119)" fill="none" stroke="#4da12e" stroke-linecap="round" stroke-linejoin="round" stroke-width="2.4"/>
          <line id="Línea_4568" data-name="Línea 4568" x2="0.581" transform="translate(-32.472 60.119)" fill="none" stroke="#4da12e" stroke-linecap="round" stroke-linejoin="round" stroke-width="2.4"/>
          <line id="Línea_4569" data-name="Línea 4569" x2="7.101" transform="translate(-73.109 60.119)" fill="none" stroke="#4da12e" stroke-linecap="round" stroke-linejoin="round" stroke-width="2.4"/>
          <line id="Línea_4570" data-name="Línea 4570" x2="12.517" transform="translate(-66.471 60.119)" fill="none" stroke="#96d200" stroke-linecap="round" stroke-linejoin="round" stroke-width="2.4"/>
          <line id="Línea_4571" data-name="Línea 4571" x2="23.582" transform="translate(-73.109 54.012)" fill="none" stroke="#96d200" stroke-linecap="round" stroke-linejoin="round" stroke-width="2.4"/>
          <line id="Línea_4572" data-name="Línea 4572" x2="18.363" transform="translate(-50.254 54.012)" fill="none" stroke="#4da12e" stroke-linecap="round" stroke-linejoin="round" stroke-width="2.4"/>
          <line id="Línea_4573" data-name="Línea 4573" x2="0.429" transform="translate(-73.109 54.012)" fill="none" stroke="#4da12e" stroke-linecap="round" stroke-linejoin="round" stroke-width="2.4"/>
        </g>
      </g>
      <path id="Trazado_19755" data-name="Trazado 19755" d="M-73.45,40.829" fill="#95a6b1" stroke="#95a6b1" stroke-miterlimit="10" stroke-width="1.6"/>
      <path id="Trazado_19756" data-name="Trazado 19756" d="M-36.54,33.31V22.94H-74.76V41.2h33.92" fill="none" stroke="#95a6b1" stroke-linecap="round" stroke-linejoin="round" stroke-width="1.6"/>
      <line id="Línea_4574" data-name="Línea 4574" y1="0.34" transform="translate(-36.54 38.91)" fill="none" stroke="#95a6b1" stroke-linecap="round" stroke-linejoin="round" stroke-width="1.6"/>
      <rect id="Rectángulo_5753" data-name="Rectángulo 5753" width="5.53" height="21.699" transform="translate(-74.761 42.919) rotate(-180)" fill="none" stroke="#95a6b1" stroke-linecap="round" stroke-linejoin="round" stroke-width="1.6"/>
      <g id="Grupo_20126" data-name="Grupo 20126">
        <line id="Línea_4575" data-name="Línea 4575" x1="4.529" transform="translate(-74.678 36.979)" fill="none" stroke="#95a6b1" stroke-linecap="round" stroke-linejoin="round" stroke-width="1.6"/>
        <line id="Línea_4576" data-name="Línea 4576" x1="4.472" transform="translate(-74.678 32.044)" fill="none" stroke="#95a6b1" stroke-linecap="round" stroke-linejoin="round" stroke-width="1.6"/>
        <line id="Línea_4577" data-name="Línea 4577" x1="4.529" transform="translate(-74.678 27.109)" fill="none" stroke="#95a6b1" stroke-linecap="round" stroke-linejoin="round" stroke-width="1.6"/>
      </g>
      <g id="Grupo_20127" data-name="Grupo 20127">
        <line id="Línea_4578" data-name="Línea 4578" x1="4.529" transform="translate(-41.069 27.109)" fill="none" stroke="#95a6b1" stroke-linecap="round" stroke-linejoin="round" stroke-width="1.6"/>
      </g>
      <line id="Línea_4579" data-name="Línea 4579" y1="0.68" transform="translate(-36.53 38.74)" fill="none" stroke="#95a6b1" stroke-linecap="round" stroke-linejoin="round" stroke-width="1.6"/>
      <path id="Trazado_19757" data-name="Trazado 19757" d="M-36.53,33.3V21.22H-31V31.88" fill="none" stroke="#95a6b1" stroke-linecap="round" stroke-linejoin="round" stroke-width="1.6"/>
      <line id="Línea_4580" data-name="Línea 4580" x1="0.01" transform="translate(-36.54 32.12)" fill="none" stroke="#95a6b1" stroke-linecap="round" stroke-linejoin="round" stroke-width="1.6"/>
      <path id="Trazado_19758" data-name="Trazado 19758" d="M-63.373,20.86v2.1h16.361v-8.8H-58.674" fill="none" stroke="#95a6b1" stroke-linecap="round" stroke-linejoin="round" stroke-width="1.6"/>
      <line id="Línea_4581" data-name="Línea 4581" y1="5.37" transform="translate(-55.192 8.789)" fill="none" stroke="#95a6b1" stroke-linecap="round" stroke-linejoin="round" stroke-width="1.6"/>
      <line id="Línea_4582" data-name="Línea 4582" x2="7.24" transform="translate(-58.674 8.789)" fill="none" stroke="#95a6b1" stroke-linecap="round" stroke-linejoin="round" stroke-width="1.6"/>
      <line id="Línea_4583" data-name="Línea 4583" x2="11.723" transform="translate(-58.734 18.557)" fill="none" stroke="#95a6b1" stroke-linecap="round" stroke-linejoin="round" stroke-width="1.6"/>
      <g id="Grupo_20128" data-name="Grupo 20128">
        <circle id="Elipse_3083" data-name="Elipse 3083" cx="3.35" cy="3.35" r="3.35" transform="translate(-36.547 35.732)" fill="none" stroke="#95a6b1" stroke-linecap="round" stroke-linejoin="round" stroke-width="1.6"/>
        <path id="Trazado_19759" data-name="Trazado 19759" d="M-26.109,33.37l-2.3.25A2.4,2.4,0,0,1-30.861,32.2l-.93-2.109a9.062,9.062,0,0,0-1.406-.12,10.779,10.779,0,0,0-1.406.12l-.93,2.109a2.4,2.4,0,0,1-2.453,1.416l-2.3-.25a9.117,9.117,0,0,0-1.4,2.433l1.364,1.863a2.4,2.4,0,0,1,0,2.833l-1.364,1.863a9.111,9.111,0,0,0,1.4,2.432l2.3-.25a2.4,2.4,0,0,1,2.453,1.417l.93,2.109a9.186,9.186,0,0,0,1.406.12,9.186,9.186,0,0,0,1.406-.12l.93-2.109a2.4,2.4,0,0,1,2.453-1.417l2.3.25a9.111,9.111,0,0,0,1.4-2.432L-26.072,40.5a2.4,2.4,0,0,1,0-2.833l1.364-1.863A9.117,9.117,0,0,0-26.109,33.37Z" fill="none" stroke="#95a6b1" stroke-linecap="round" stroke-linejoin="round" stroke-width="1.6"/>
      </g>
      <rect id="Rectángulo_5754" data-name="Rectángulo 5754" width="65" height="65" transform="translate(-85 0)" fill="none"/>
      <path id="Trazado_19760" data-name="Trazado 19760" d="M-61.26,14.2a3.1,3.1,0,0,1,.124,2.269,3.1,3.1,0,0,1-1.66,1.853,3.111,3.111,0,0,1-4.122-1.536,3.11,3.11,0,0,1,1.536-4.122A3.11,3.11,0,0,1-61.26,14.2Z" fill="none" stroke="#00a800" stroke-linecap="round" stroke-linejoin="round" stroke-width="1.6"/>
    </g>
  </g>
</svg>
