<?xml version="1.0" encoding="utf-8"?>
<!-- Generator: Adobe Illustrator 24.0.2, SVG Export Plug-In . SVG Version: 6.00 Build 0)  -->
<svg version="1.1" id="Capa_1" xmlns="http://www.w3.org/2000/svg" xmlns:xlink="http://www.w3.org/1999/xlink" x="0px" y="0px"
	 viewBox="0 0 130 130" style="enable-background:new 0 0 130 130;" xml:space="preserve">
<style type="text/css">
	.st0{fill:#C9D2D7;}
	.st1{fill:#2B5CDA;}
	.st2{fill:#FFFFFF;}
	.st3{fill:#FFD800;}
</style>
<g id="Grupo_19591" transform="translate(-6549 -3818.017)">
	<g id="Grupo_19708" transform="translate(6265.748 3985.817)">
		<g id="Grupo_19712" transform="translate(283.252 -167.8)">
			<g id="Grupo_19709">
				<g id="Grupo_19708-2">
					<path id="Trazado_19180" class="st0" d="M65.01,65L8.26,89.09C-5.04,57.75,9.58,21.56,40.92,8.25c0,0,0,0,0,0
						c7.6-3.28,15.81-4.95,24.09-4.9L65.01,65z"/>
				</g>
			</g>
			<g id="Grupo_19711" transform="translate(4.916)">
				<g id="Grupo_19710">
					<path id="Trazado_19181" class="st1" d="M60.09,65V3.35c34.05,0,61.65,27.6,61.65,61.65c0,34.05-27.6,61.65-61.65,61.65
						c0,0,0,0,0,0c-25.54,0-46.77-14.05-56.75-37.56L60.09,65z"/>
				</g>
			</g>
		</g>
	</g>
	<g id="Grupo_19590" transform="translate(-466.001 676)">
		<circle id="Elipse_2851" class="st2" cx="7078.34" cy="3206.85" r="36"/>
	</g>
</g>
</svg>
