<?xml version="1.0" encoding="utf-8"?>
<!-- Generator: Adobe Illustrator 24.0.2, SVG Export Plug-In . SVG Version: 6.00 Build 0)  -->
<svg version="1.1" id="Capa_1" xmlns="http://www.w3.org/2000/svg" xmlns:xlink="http://www.w3.org/1999/xlink" x="0px" y="0px"
	 viewBox="0 0 65 65" style="enable-background:new 0 0 65 65;" xml:space="preserve">
<style type="text/css">
	.st0{fill:none;}
	.st1{clip-path:url(#SVGID_2_);}
	.st2{fill:#4DA12E;}
	.st3{fill:#96D200;}
	.st4{fill:#19A500;}
	.st5{fill:#95A6B1;}
</style>
<g id="Capa_2_1_">
</g>
<g id="Capa_1_1_">
	<g>
		<g id="Grupo_13216_9_" transform="translate(0.246 0.246)">
			<g id="Rectángulo_3799_9_">
				<rect x="-0.25" y="-0.25" class="st0" width="65" height="65"/>
			</g>
		</g>
		<g id="Rectángulo_3799-2_9_">
			<rect class="st0" width="65" height="65"/>
		</g>
		<g>
			<defs>
				<rect id="SVGID_1_" y="48.26" width="65" height="16.74"/>
			</defs>
			<clipPath id="SVGID_2_">
				<use xlink:href="#SVGID_1_"  style="overflow:visible;"/>
			</clipPath>
			<g class="st1">
				<g>
					<rect y="48.26" class="st0" width="65" height="16.74"/>
				</g>
				<g>
					<g>
						<path class="st2" d="M45.38,61.32h-7.17c-0.66,0-1.2-0.54-1.2-1.2s0.54-1.2,1.2-1.2h7.17c0.66,0,1.2,0.54,1.2,1.2
							S46.04,61.32,45.38,61.32z"/>
					</g>
					<g>
						<path class="st2" d="M53.11,61.32h-0.58c-0.66,0-1.2-0.54-1.2-1.2s0.54-1.2,1.2-1.2h0.58c0.66,0,1.2,0.54,1.2,1.2
							S53.77,61.32,53.11,61.32z"/>
					</g>
					<g>
						<path class="st2" d="M18.99,61.32h-7.1c-0.66,0-1.2-0.54-1.2-1.2s0.54-1.2,1.2-1.2h7.1c0.66,0,1.2,0.54,1.2,1.2
							S19.65,61.32,18.99,61.32z"/>
					</g>
					<g>
						<path class="st3" d="M31.05,61.32H18.53c-0.66,0-1.2-0.54-1.2-1.2s0.54-1.2,1.2-1.2h12.52c0.66,0,1.2,0.54,1.2,1.2
							S31.71,61.32,31.05,61.32z"/>
					</g>
					<g>
						<path class="st3" d="M35.47,55.21H11.89c-0.66,0-1.2-0.54-1.2-1.2s0.54-1.2,1.2-1.2h23.58c0.66,0,1.2,0.54,1.2,1.2
							S36.13,55.21,35.47,55.21z"/>
					</g>
					<g>
						<path class="st2" d="M53.11,55.21H34.75c-0.66,0-1.2-0.54-1.2-1.2s0.54-1.2,1.2-1.2h18.36c0.66,0,1.2,0.54,1.2,1.2
							S53.77,55.21,53.11,55.21z"/>
					</g>
					<g>
						<path class="st2" d="M12.32,55.21h-0.43c-0.66,0-1.2-0.54-1.2-1.2s0.54-1.2,1.2-1.2h0.43c0.66,0,1.2,0.54,1.2,1.2
							S12.98,55.21,12.32,55.21z"/>
					</g>
				</g>
			</g>
		</g>
		<g>
			<g id="Trazado_11848_3_">
				<path class="st4" d="M12.65,18.44c-2.75,0-4.98-2.23-4.98-4.98s2.23-4.98,4.98-4.98c0.01,0,0.01,0,0.02,0
					c2.72,0,4.95,2.21,4.96,4.95c0,0,0,0.03,0,0.03C17.63,16.21,15.4,18.44,12.65,18.44z M12.67,10.08c0,0-0.01,0-0.01,0
					c-1.87,0-3.38,1.52-3.38,3.38s1.52,3.38,3.38,3.38s3.38-1.52,3.38-3.38v-0.03C16.02,11.58,14.51,10.08,12.67,10.08z"/>
			</g>
			<g id="Trazado_11852_1_">
				<path class="st5" d="M53.61,48.7H12.43c-0.44,0-0.8-0.36-0.8-0.8V21.61c0-0.44,0.36-0.8,0.8-0.8s0.8,0.36,0.8,0.8V47.1h39.58
					V13.83H20.64c-0.44,0-0.8-0.36-0.8-0.8s0.36-0.8,0.8-0.8h32.97c0.44,0,0.8,0.36,0.8,0.8V47.9C54.41,48.34,54.05,48.7,53.61,48.7
					z"/>
			</g>
			<g id="Línea_2421_1_">
				<path class="st5" d="M53.61,18.21c-0.44,0-0.8-0.36-0.8-0.8v-4.38c0-0.44,0.36-0.8,0.8-0.8s0.8,0.36,0.8,0.8v4.38
					C54.41,17.85,54.05,18.21,53.61,18.21z"/>
			</g>
			<g id="Línea_2422_1_">
				<path class="st5" d="M23.71,18.21c-0.44,0-0.8-0.36-0.8-0.8v-4.38c0-0.44,0.36-0.8,0.8-0.8s0.8,0.36,0.8,0.8v4.38
					C24.51,17.85,24.15,18.21,23.71,18.21z"/>
			</g>
			<g id="Línea_2423_1_">
				<path class="st5" d="M31.98,18.21c-0.44,0-0.8-0.36-0.8-0.8v-4.38c0-0.44,0.36-0.8,0.8-0.8s0.8,0.36,0.8,0.8v4.38
					C32.78,17.85,32.42,18.21,31.98,18.21z"/>
			</g>
			<g id="Línea_2424_1_">
				<path class="st5" d="M44.38,18.21c-0.44,0-0.8-0.36-0.8-0.8v-4.38c0-0.44,0.36-0.8,0.8-0.8s0.8,0.36,0.8,0.8v4.38
					C45.18,17.85,44.82,18.21,44.38,18.21z"/>
			</g>
			<g id="Línea_2425_1_">
				<path class="st5" d="M57.16,18.3H20.64c-0.44,0-0.8-0.36-0.8-0.8s0.36-0.8,0.8-0.8h36.52c0.44,0,0.8,0.36,0.8,0.8
					S57.6,18.3,57.16,18.3z"/>
			</g>
			<g>
				<path class="st5" d="M44.39,48.7h-9.02c-0.44,0-0.8-0.36-0.8-0.8s0.36-0.8,0.8-0.8h9.02c0.44,0,0.8,0.36,0.8,0.8
					S44.83,48.7,44.39,48.7z"/>
			</g>
			<g>
				<g>
					<path class="st5" d="M52.74,24.45h-9.29c-0.44,0-0.8-0.36-0.8-0.8s0.36-0.8,0.8-0.8h9.29c0.44,0,0.8,0.36,0.8,0.8
						S53.18,24.45,52.74,24.45z"/>
				</g>
				<g>
					<path class="st5" d="M40.48,24.45h-1.24c-0.44,0-0.8-0.36-0.8-0.8s0.36-0.8,0.8-0.8h1.24c0.44,0,0.8,0.36,0.8,0.8
						S40.92,24.45,40.48,24.45z"/>
				</g>
			</g>
			<g>
				<g>
					<path class="st5" d="M28.55,39.11H12.4c-0.44,0-0.8-0.36-0.8-0.8s0.36-0.8,0.8-0.8h16.15c0.44,0,0.8,0.36,0.8,0.8
						S28.99,39.11,28.55,39.11z"/>
				</g>
			</g>
			<g>
				<path class="st5" d="M57.16,48.81H8.09c-0.44,0-0.8-0.36-0.8-0.8s0.36-0.8,0.8-0.8h49.07c0.44,0,0.8,0.36,0.8,0.8
					S57.6,48.81,57.16,48.81z"/>
			</g>
		</g>
	</g>
</g>
</svg>
