<?xml version="1.0" encoding="utf-8"?>
<!-- Generator: Adobe Illustrator 24.0.2, SVG Export Plug-In . SVG Version: 6.00 Build 0)  -->
<svg version="1.1" id="Capa_1" xmlns="http://www.w3.org/2000/svg" xmlns:xlink="http://www.w3.org/1999/xlink" x="0px" y="0px"
	 viewBox="0 0 65 65" style="enable-background:new 0 0 65 65;" xml:space="preserve">
<style type="text/css">
	.st0{fill:none;}
	.st1{fill:#19A500;}
	.st2{fill:#95A6B1;}
	.st3{fill:#97A5AF;}
	.st4{clip-path:url(#SVGID_2_);}
	.st5{fill:#4DA12E;}
	.st6{fill:#96D200;}
</style>
<g id="Capa_2_1_">
</g>
<g id="Capa_1_1_">
	<g>
		<g id="Grupo_13216_1_" transform="translate(0.246 0.246)">
			<g id="Rectángulo_3799_1_">
				<rect x="-0.25" y="-0.25" class="st0" width="65" height="65"/>
			</g>
		</g>
		<g id="Rectángulo_3799-2_2_">
			<rect class="st0" width="65" height="65"/>
		</g>
		<g id="Grupo_14726_2_">
			<g id="Grupo_14725_2_">
				<g id="Trazado_11848_5_">
					<path class="st1" d="M12.13,12.52c-2.75,0-4.98-2.23-4.98-4.98s2.23-4.98,4.98-4.98c0.01,0,0.01,0,0.02,0
						c2.72,0,4.95,2.21,4.96,4.95c0,0,0,0.03,0,0.03C17.11,10.29,14.88,12.52,12.13,12.52z M12.15,4.16c0,0-0.01,0-0.01,0
						c-1.87,0-3.38,1.52-3.38,3.38s1.52,3.38,3.38,3.38s3.38-1.52,3.38-3.38V7.51C15.5,5.66,13.99,4.16,12.15,4.16z"/>
				</g>
				<g id="Grupo_14723_2_">
					<g id="Trazado_11852_5_">
						<path class="st2" d="M53.09,48.45H11.91c-0.44,0-0.8-0.36-0.8-0.8V15.69c0-0.44,0.36-0.8,0.8-0.8s0.8,0.36,0.8,0.8v31.16
							h39.58V7.9H20.12c-0.44,0-0.8-0.36-0.8-0.8s0.36-0.8,0.8-0.8h32.97c0.44,0,0.8,0.36,0.8,0.8v40.55
							C53.89,48.09,53.53,48.45,53.09,48.45z"/>
					</g>
					<g id="Línea_2421_5_">
						<path class="st2" d="M53.09,12.29c-0.44,0-0.8-0.36-0.8-0.8V7.1c0-0.44,0.36-0.8,0.8-0.8s0.8,0.36,0.8,0.8v4.39
							C53.89,11.93,53.53,12.29,53.09,12.29z"/>
					</g>
					<g id="Línea_2422_5_">
						<path class="st2" d="M23.19,12.29c-0.44,0-0.8-0.36-0.8-0.8V7.1c0-0.44,0.36-0.8,0.8-0.8s0.8,0.36,0.8,0.8v4.39
							C23.99,11.93,23.63,12.29,23.19,12.29z"/>
					</g>
					<g id="Línea_2423_5_">
						<path class="st2" d="M31.46,12.29c-0.44,0-0.8-0.36-0.8-0.8V7.1c0-0.44,0.36-0.8,0.8-0.8s0.8,0.36,0.8,0.8v4.39
							C32.26,11.93,31.9,12.29,31.46,12.29z"/>
					</g>
					<g id="Línea_2424_5_">
						<path class="st2" d="M43.86,12.29c-0.44,0-0.8-0.36-0.8-0.8V7.1c0-0.44,0.36-0.8,0.8-0.8s0.8,0.36,0.8,0.8v4.39
							C44.66,11.93,44.3,12.29,43.86,12.29z"/>
					</g>
					<g id="Línea_2425_5_">
						<path class="st2" d="M56.65,12.38H20.12c-0.44,0-0.8-0.36-0.8-0.8s0.36-0.8,0.8-0.8h36.53c0.44,0,0.8,0.36,0.8,0.8
							S57.09,12.38,56.65,12.38z"/>
					</g>
					<g id="Grupo_14722_2_">
						<g id="Línea_2730_2_">
							<path class="st2" d="M34.85,48.38c-0.44,0-0.8-0.36-0.8-0.8V30.36c0-0.44,0.36-0.8,0.8-0.8s0.8,0.36,0.8,0.8v17.22
								C35.65,48.02,35.29,48.38,34.85,48.38z"/>
						</g>
						<g id="Línea_2731_2_">
							<path class="st2" d="M43.94,48.38c-0.44,0-0.8-0.36-0.8-0.8V30.36c0-0.44,0.36-0.8,0.8-0.8s0.8,0.36,0.8,0.8v17.22
								C44.74,48.02,44.38,48.38,43.94,48.38z"/>
						</g>
						<g id="Grupo_14719_2_">
							<g id="Línea_2732_2_">
								<path class="st2" d="M34.81,39.61c-0.11,0-0.22-0.02-0.32-0.07L11.59,29.5c-0.4-0.18-0.59-0.65-0.41-1.05
									c0.18-0.4,0.65-0.59,1.05-0.41l22.9,10.04c0.4,0.18,0.59,0.65,0.41,1.05C35.41,39.43,35.12,39.61,34.81,39.61z"/>
							</g>
						</g>
						<g id="Grupo_14720_2_">
							<g id="Línea_2733_2_">
								<path class="st2" d="M34.81,31.16c-0.11,0-0.22-0.02-0.32-0.07l-22.9-10.04C11.18,20.88,11,20.4,11.18,20
									c0.18-0.4,0.65-0.59,1.05-0.41l22.9,10.04c0.4,0.18,0.59,0.65,0.41,1.05C35.41,30.98,35.12,31.16,34.81,31.16z"/>
							</g>
						</g>
						<g id="Grupo_14721_2_">
							<g id="Línea_2734_2_">
								<path class="st2" d="M43.87,38.85h-9.02c-0.44,0-0.8-0.36-0.8-0.8s0.36-0.8,0.8-0.8h9.02c0.44,0,0.8,0.36,0.8,0.8
									S44.31,38.85,43.87,38.85z"/>
							</g>
							<g id="Línea_2735_2_">
								<path class="st2" d="M43.87,43.74h-9.02c-0.44,0-0.8-0.36-0.8-0.8s0.36-0.8,0.8-0.8h9.02c0.44,0,0.8,0.36,0.8,0.8
									S44.31,43.74,43.87,43.74z"/>
							</g>
							<g id="Línea_2736_2_">
								<path class="st2" d="M43.87,48.45h-9.02c-0.44,0-0.8-0.36-0.8-0.8s0.36-0.8,0.8-0.8h9.02c0.44,0,0.8,0.36,0.8,0.8
									S44.31,48.45,43.87,48.45z"/>
							</g>
						</g>
						<g id="Línea_2737_2_">
							<path class="st2" d="M16.19,31.46c-0.44,0-0.8-0.36-0.8-0.8v-8.31c0-0.44,0.36-0.8,0.8-0.8s0.8,0.36,0.8,0.8v8.31
								C16.99,31.1,16.63,31.46,16.19,31.46z"/>
						</g>
						<g id="Línea_2738_2_">
							<path class="st2" d="M20.98,33.46c-0.44,0-0.8-0.36-0.8-0.8v-8.31c0-0.44,0.36-0.8,0.8-0.8s0.8,0.36,0.8,0.8v8.31
								C21.78,33.1,21.42,33.46,20.98,33.46z"/>
						</g>
						<g id="Línea_2739_2_">
							<path class="st2" d="M25.76,35.69c-0.44,0-0.8-0.36-0.8-0.8v-8.32c0-0.44,0.36-0.8,0.8-0.8s0.8,0.36,0.8,0.8v8.32
								C26.56,35.33,26.2,35.69,25.76,35.69z"/>
						</g>
						<g id="Línea_2740_2_">
							<path class="st2" d="M30.55,37.6c-0.44,0-0.8-0.36-0.8-0.8v-8.32c0-0.44,0.36-0.8,0.8-0.8s0.8,0.36,0.8,0.8v8.32
								C31.35,37.24,30.99,37.6,30.55,37.6z"/>
						</g>
					</g>
				</g>
				<g id="Grupo_14724_2_">
					<g id="Línea_2741_2_">
						<path class="st3" d="M52.22,18.53h-9.29c-0.44,0-0.8-0.36-0.8-0.8s0.36-0.8,0.8-0.8h9.29c0.44,0,0.8,0.36,0.8,0.8
							S52.66,18.53,52.22,18.53z"/>
					</g>
					<g id="Línea_2742_2_">
						<path class="st3" d="M39.97,18.53h-1.25c-0.44,0-0.8-0.36-0.8-0.8s0.36-0.8,0.8-0.8h1.25c0.44,0,0.8,0.36,0.8,0.8
							S40.41,18.53,39.97,18.53z"/>
					</g>
				</g>
			</g>
			<g id="Línea_2743_2_">
				<path class="st3" d="M57.43,48.45H7.57c-0.44,0-0.8-0.36-0.8-0.8s0.36-0.8,0.8-0.8h49.86c0.44,0,0.8,0.36,0.8,0.8
					S57.87,48.45,57.43,48.45z"/>
			</g>
		</g>
		<g>
			<defs>
				<rect id="SVGID_1_" y="48.26" width="65" height="16.74"/>
			</defs>
			<clipPath id="SVGID_2_">
				<use xlink:href="#SVGID_1_"  style="overflow:visible;"/>
			</clipPath>
			<g class="st4">
				<rect y="48.26" class="st0" width="65" height="16.74"/>
				<g>
					<g>
						<path class="st5" d="M45.38,61.32h-7.17c-0.66,0-1.2-0.54-1.2-1.2s0.54-1.2,1.2-1.2h7.17c0.66,0,1.2,0.54,1.2,1.2
							S46.04,61.32,45.38,61.32z"/>
					</g>
					<g>
						<path class="st5" d="M53.11,61.32h-0.58c-0.66,0-1.2-0.54-1.2-1.2s0.54-1.2,1.2-1.2h0.58c0.66,0,1.2,0.54,1.2,1.2
							S53.77,61.32,53.11,61.32z"/>
					</g>
					<g>
						<path class="st5" d="M18.99,61.32h-7.1c-0.66,0-1.2-0.54-1.2-1.2s0.54-1.2,1.2-1.2h7.1c0.66,0,1.2,0.54,1.2,1.2
							S19.65,61.32,18.99,61.32z"/>
					</g>
					<g>
						<path class="st6" d="M31.05,61.32H18.53c-0.66,0-1.2-0.54-1.2-1.2s0.54-1.2,1.2-1.2h12.52c0.66,0,1.2,0.54,1.2,1.2
							S31.71,61.32,31.05,61.32z"/>
					</g>
					<g>
						<path class="st6" d="M35.47,55.21H11.89c-0.66,0-1.2-0.54-1.2-1.2s0.54-1.2,1.2-1.2h23.58c0.66,0,1.2,0.54,1.2,1.2
							S36.13,55.21,35.47,55.21z"/>
					</g>
					<g>
						<path class="st5" d="M53.11,55.21H34.75c-0.66,0-1.2-0.54-1.2-1.2s0.54-1.2,1.2-1.2h18.36c0.66,0,1.2,0.54,1.2,1.2
							S53.77,55.21,53.11,55.21z"/>
					</g>
					<g>
						<path class="st5" d="M12.32,55.21h-0.43c-0.66,0-1.2-0.54-1.2-1.2s0.54-1.2,1.2-1.2h0.43c0.66,0,1.2,0.54,1.2,1.2
							S12.98,55.21,12.32,55.21z"/>
					</g>
				</g>
			</g>
		</g>
	</g>
</g>
</svg>
