<?xml version="1.0" encoding="utf-8"?>
<!-- Generator: Adobe Illustrator 24.0.2, SVG Export Plug-In . SVG Version: 6.00 Build 0)  -->
<svg version="1.1" id="Capa_1" xmlns="http://www.w3.org/2000/svg" xmlns:xlink="http://www.w3.org/1999/xlink" x="0px" y="0px"
	 viewBox="0 0 121 65" style="enable-background:new 0 0 121 65;" xml:space="preserve">
<style type="text/css">
	.st0{clip-path:url(#SVGID_2_);}
	.st1{fill:none;}
	.st2{fill:#4DA12E;}
	.st3{fill:#96D200;}
	.st4{fill:#19A500;}
	.st5{fill:#9AA5AF;}
</style>
<g id="Capa_2_1_">
</g>
<g id="Capa_1_1_">
	<g>
		<defs>
			<rect id="SVGID_1_" x="28" y="48.26" width="65" height="16.74"/>
		</defs>
		<clipPath id="SVGID_2_">
			<use xlink:href="#SVGID_1_"  style="overflow:visible;"/>
		</clipPath>
		<g class="st0">
			<g>
				<rect x="28" y="48.26" class="st1" width="65" height="16.74"/>
			</g>
			<g>
				<g>
					<path class="st2" d="M73.38,61.32h-7.17c-0.66,0-1.2-0.54-1.2-1.2s0.54-1.2,1.2-1.2h7.17c0.66,0,1.2,0.54,1.2,1.2
						S74.04,61.32,73.38,61.32z"/>
				</g>
				<g>
					<path class="st2" d="M81.11,61.32h-0.58c-0.66,0-1.2-0.54-1.2-1.2s0.54-1.2,1.2-1.2h0.58c0.66,0,1.2,0.54,1.2,1.2
						S81.77,61.32,81.11,61.32z"/>
				</g>
				<g>
					<path class="st2" d="M46.99,61.32h-7.1c-0.66,0-1.2-0.54-1.2-1.2s0.54-1.2,1.2-1.2h7.1c0.66,0,1.2,0.54,1.2,1.2
						S47.65,61.32,46.99,61.32z"/>
				</g>
				<g>
					<path class="st3" d="M59.05,61.32H46.53c-0.66,0-1.2-0.54-1.2-1.2s0.54-1.2,1.2-1.2h12.52c0.66,0,1.2,0.54,1.2,1.2
						S59.71,61.32,59.05,61.32z"/>
				</g>
				<g>
					<path class="st3" d="M63.47,55.21H39.89c-0.66,0-1.2-0.54-1.2-1.2s0.54-1.2,1.2-1.2h23.58c0.66,0,1.2,0.54,1.2,1.2
						S64.13,55.21,63.47,55.21z"/>
				</g>
				<g>
					<path class="st2" d="M81.11,55.21H62.75c-0.66,0-1.2-0.54-1.2-1.2s0.54-1.2,1.2-1.2h18.36c0.66,0,1.2,0.54,1.2,1.2
						S81.77,55.21,81.11,55.21z"/>
				</g>
				<g>
					<path class="st2" d="M40.32,55.21h-0.43c-0.66,0-1.2-0.54-1.2-1.2s0.54-1.2,1.2-1.2h0.43c0.66,0,1.2,0.54,1.2,1.2
						S40.98,55.21,40.32,55.21z"/>
				</g>
			</g>
		</g>
	</g>
	<g id="Rectángulo_3799-2_1_">
		<g>
			<rect class="st1" width="121" height="65"/>
		</g>
	</g>
	<g>
		<g>
			<g id="Trazado_11848_4_">
				<g>
					<path class="st4" d="M15.39,24.3c-2.8,0-5.08-2.28-5.08-5.08c0-2.8,2.28-5.08,5.08-5.08c0.01,0,0.02,0,0.02,0
						c1.34,0,2.6,0.52,3.56,1.47c0.96,0.95,1.49,2.22,1.5,3.58c0,0,0,0.03,0,0.03C20.47,22.02,18.19,24.3,15.39,24.3z M15.41,15.94
						c-1.81,0.01-3.3,1.47-3.3,3.28c0,1.81,1.47,3.28,3.28,3.28s3.28-1.47,3.28-3.28v-0.03c0-0.87-0.35-1.69-0.97-2.3
						C17.09,16.28,16.27,15.94,15.41,15.94z"/>
				</g>
			</g>
			<g id="Trazado_11852_7_">
				<g>
					<path class="st5" d="M56.34,48.61H15.16c-0.5,0-0.9-0.4-0.9-0.9V27.38c0-0.5,0.4-0.9,0.9-0.9s0.9,0.4,0.9,0.9v19.43h39.38
						V19.69H23.37c-0.5,0-0.9-0.4-0.9-0.9s0.4-0.9,0.9-0.9h32.97c0.5,0,0.9,0.4,0.9,0.9v28.92C57.24,48.21,56.84,48.61,56.34,48.61z
						"/>
				</g>
			</g>
			<g id="Línea_2421_7_">
				<g>
					<path class="st5" d="M56.34,24.07c-0.5,0-0.9-0.4-0.9-0.9v-4.38c0-0.5,0.4-0.9,0.9-0.9s0.9,0.4,0.9,0.9v4.38
						C57.24,23.67,56.84,24.07,56.34,24.07z"/>
				</g>
			</g>
			<g id="Línea_2422_7_">
				<g>
					<path class="st5" d="M26.44,24.07c-0.5,0-0.9-0.4-0.9-0.9v-4.38c0-0.5,0.4-0.9,0.9-0.9s0.9,0.4,0.9,0.9v4.38
						C27.34,23.67,26.94,24.07,26.44,24.07z"/>
				</g>
			</g>
			<g id="Línea_2423_7_">
				<g>
					<path class="st5" d="M34.71,24.07c-0.5,0-0.9-0.4-0.9-0.9v-4.38c0-0.5,0.4-0.9,0.9-0.9s0.9,0.4,0.9,0.9v4.38
						C35.61,23.67,35.21,24.07,34.71,24.07z"/>
				</g>
			</g>
			<g id="Línea_2424_7_">
				<g>
					<path class="st5" d="M47.11,24.07c-0.5,0-0.9-0.4-0.9-0.9v-4.38c0-0.5,0.4-0.9,0.9-0.9s0.9,0.4,0.9,0.9v4.38
						C48.01,23.67,47.61,24.07,47.11,24.07z"/>
				</g>
			</g>
			<g id="Línea_2425_7_">
				<g>
					<path class="st5" d="M59.9,24.16H23.37c-0.5,0-0.9-0.4-0.9-0.9s0.4-0.9,0.9-0.9H59.9c0.5,0,0.9,0.4,0.9,0.9
						S60.4,24.16,59.9,24.16z"/>
				</g>
			</g>
			<g>
				<g>
					<path class="st5" d="M47.13,48.61H38.1c-0.5,0-0.9-0.4-0.9-0.9s0.4-0.9,0.9-0.9h9.03c0.5,0,0.9,0.4,0.9,0.9
						S47.63,48.61,47.13,48.61z"/>
				</g>
			</g>
			<g>
				<g>
					<g>
						<path class="st5" d="M55.47,30.31h-9.28c-0.5,0-0.9-0.4-0.9-0.9s0.4-0.9,0.9-0.9h9.28c0.5,0,0.9,0.4,0.9,0.9
							S55.97,30.31,55.47,30.31z"/>
					</g>
				</g>
				<g>
					<g>
						<path class="st5" d="M43.22,30.31h-1.25c-0.5,0-0.9-0.4-0.9-0.9s0.4-0.9,0.9-0.9h1.25c0.5,0,0.9,0.4,0.9,0.9
							S43.72,30.31,43.22,30.31z"/>
					</g>
				</g>
			</g>
		</g>
		<g>
			<g id="Trazado_11852_4_">
				<g>
					<path class="st5" d="M109.61,48.61H68.43c-0.5,0-0.9-0.4-0.9-0.9V18.79c0-0.5,0.4-0.9,0.9-0.9h41.18c0.5,0,0.9,0.4,0.9,0.9
						v28.92C110.51,48.21,110.11,48.61,109.61,48.61z M69.33,46.81h39.38V19.69H69.33V46.81z"/>
				</g>
			</g>
			<g id="Línea_2421_4_">
				<g>
					<path class="st5" d="M109.61,24.07c-0.5,0-0.9-0.4-0.9-0.9v-4.38c0-0.5,0.4-0.9,0.9-0.9s0.9,0.4,0.9,0.9v4.38
						C110.51,23.67,110.11,24.07,109.61,24.07z"/>
				</g>
			</g>
			<g id="Línea_2422_4_">
				<g>
					<path class="st5" d="M77.25,24.07c-0.5,0-0.9-0.4-0.9-0.9v-4.38c0-0.5,0.4-0.9,0.9-0.9s0.9,0.4,0.9,0.9v4.38
						C78.15,23.67,77.75,24.07,77.25,24.07z"/>
				</g>
			</g>
			<g id="Línea_2423_4_">
				<g>
					<path class="st5" d="M89.02,24.07c-0.5,0-0.9-0.4-0.9-0.9v-4.38c0-0.5,0.4-0.9,0.9-0.9s0.9,0.4,0.9,0.9v4.38
						C89.92,23.67,89.52,24.07,89.02,24.07z"/>
				</g>
			</g>
			<g id="Línea_2424_4_">
				<g>
					<path class="st5" d="M100.38,24.07c-0.5,0-0.9-0.4-0.9-0.9v-4.38c0-0.5,0.4-0.9,0.9-0.9s0.9,0.4,0.9,0.9v4.38
						C101.28,23.67,100.88,24.07,100.38,24.07z"/>
				</g>
			</g>
			<g id="Línea_2425_4_">
				<g>
					<path class="st5" d="M113.17,24.16h-48c-0.5,0-0.9-0.4-0.9-0.9s0.4-0.9,0.9-0.9h48c0.5,0,0.9,0.4,0.9,0.9
						S113.67,24.16,113.17,24.16z"/>
				</g>
			</g>
			<g>
				<g>
					<path class="st5" d="M100.4,48.61h-9.03c-0.5,0-0.9-0.4-0.9-0.9s0.4-0.9,0.9-0.9h9.03c0.5,0,0.9,0.4,0.9,0.9
						S100.9,48.61,100.4,48.61z"/>
				</g>
			</g>
			<g>
				<g>
					<g>
						<path class="st5" d="M108.74,30.31h-9.29c-0.5,0-0.9-0.4-0.9-0.9s0.4-0.9,0.9-0.9h9.29c0.5,0,0.9,0.4,0.9,0.9
							S109.24,30.31,108.74,30.31z"/>
					</g>
				</g>
				<g>
					<g>
						<path class="st5" d="M96.49,30.31h-1.25c-0.5,0-0.9-0.4-0.9-0.9s0.4-0.9,0.9-0.9h1.25c0.5,0,0.9,0.4,0.9,0.9
							S96.99,30.31,96.49,30.31z"/>
					</g>
				</g>
			</g>
		</g>
		<g>
			<g>
				<path class="st5" d="M113.17,48.8H7.83c-0.5,0-0.9-0.4-0.9-0.9s0.4-0.9,0.9-0.9h105.34c0.5,0,0.9,0.4,0.9,0.9
					S113.67,48.8,113.17,48.8z"/>
			</g>
		</g>
	</g>
</g>
</svg>
