<?xml version="1.0" encoding="utf-8"?>
<!-- Generator: Adobe Illustrator 24.0.2, SVG Export Plug-In . SVG Version: 6.00 Build 0)  -->
<svg version="1.1" id="Capa_1" xmlns="http://www.w3.org/2000/svg" xmlns:xlink="http://www.w3.org/1999/xlink" x="0px" y="0px"
	 viewBox="0 0 47 47" style="enable-background:new 0 0 47 47;" xml:space="preserve">
<style type="text/css">
	.st0{fill:none;}
	.st1{fill:#FFFFFF;}
</style>
<g id="Capa_1_1_">
	<g>
		<rect class="st0" width="47" height="47"/>
	</g>
	<g id="Grupo_12876_2_" transform="translate(-687.354 -663.684)">
		<g id="Línea_2139_2_">
			<path class="st1" d="M732.05,702.15h-41.6c-0.41,0-0.75-0.34-0.75-0.75s0.34-0.75,0.75-0.75h41.6c0.41,0,0.75,0.34,0.75,0.75
				S732.46,702.15,732.05,702.15z"/>
		</g>
		<g id="Grupo_12797_2_">
			<g id="Línea_2140_2_">
				<path class="st1" d="M724.08,696.2h-5.12c-0.41,0-0.75-0.34-0.75-0.75s0.34-0.75,0.75-0.75h5.12c0.41,0,0.75,0.34,0.75,0.75
					S724.49,696.2,724.08,696.2z"/>
			</g>
			<g id="Línea_2141_2_">
				<path class="st1" d="M732.05,696.2h-4.02c-0.41,0-0.75-0.34-0.75-0.75s0.34-0.75,0.75-0.75h4.02c0.41,0,0.75,0.34,0.75,0.75
					S732.46,696.2,732.05,696.2z"/>
			</g>
			<g id="Línea_2142_2_">
				<path class="st1" d="M724.08,690.05h-5.12c-0.41,0-0.75-0.34-0.75-0.75s0.34-0.75,0.75-0.75h5.12c0.41,0,0.75,0.34,0.75,0.75
					S724.49,690.05,724.08,690.05z"/>
			</g>
			<g id="Línea_2143_2_">
				<path class="st1" d="M732.05,690.05h-4.02c-0.41,0-0.75-0.34-0.75-0.75s0.34-0.75,0.75-0.75h4.02c0.41,0,0.75,0.34,0.75,0.75
					S732.46,690.05,732.05,690.05z"/>
			</g>
		</g>
		<g id="Rectángulo_4528_2_">
			<path class="st1" d="M728.03,698.22h-3.96c-0.41,0-0.75-0.34-0.75-0.75v-10.56c0-0.41,0.34-0.75,0.75-0.75h3.96
				c0.41,0,0.75,0.34,0.75,0.75v10.56C728.78,697.88,728.44,698.22,728.03,698.22z M724.82,696.72h2.46v-9.06h-2.46V696.72z"/>
		</g>
		<g id="Grupo_12798_2_">
			<g id="Línea_2144_2_">
				<path class="st1" d="M721.08,692.95h-9.25c-0.41,0-0.75-0.34-0.75-0.75s0.34-0.75,0.75-0.75h9.25c0.41,0,0.75,0.34,0.75,0.75
					S721.49,692.95,721.08,692.95z"/>
			</g>
			<g id="Trazado_11513_2_">
				<path class="st1" d="M715.25,696.37c-0.19,0-0.38-0.07-0.53-0.22l-3.42-3.42c-0.14-0.14-0.22-0.33-0.22-0.53
					s0.08-0.39,0.22-0.53l3.42-3.42c0.29-0.29,0.77-0.29,1.06,0s0.29,0.77,0,1.06l-2.89,2.89l2.89,2.89c0.29,0.29,0.29,0.77,0,1.06
					C715.63,696.3,715.44,696.37,715.25,696.37z"/>
			</g>
		</g>
		<g id="Trazado_11514_2_">
			<path class="st1" d="M718.96,702.15h-26.19c-0.41,0-0.75-0.34-0.75-0.75v-7.3c0-0.41,0.34-0.75,0.75-0.75s0.75,0.34,0.75,0.75
				v6.55h24.69v-26.93h-24.69v8.38c0,0.41-0.34,0.75-0.75,0.75s-0.75-0.34-0.75-0.75v-9.13c0-0.41,0.34-0.75,0.75-0.75h26.19
				c0.41,0,0.75,0.34,0.75,0.75v28.43C719.71,701.81,719.37,702.15,718.96,702.15z"/>
		</g>
		<g id="Línea_2145_2_">
			<path class="st1" d="M718.96,678.18h-26.19c-0.41,0-0.75-0.34-0.75-0.75s0.34-0.75,0.75-0.75h26.19c0.41,0,0.75,0.34,0.75,0.75
				S719.37,678.18,718.96,678.18z"/>
		</g>
		<g id="Línea_2146_2_">
			<path class="st1" d="M698.43,678.19c-0.41,0-0.75-0.34-0.75-0.75v-4.47c0-0.41,0.34-0.75,0.75-0.75s0.75,0.34,0.75,0.75v4.47
				C699.18,677.85,698.84,678.19,698.43,678.19z"/>
		</g>
		<g id="Línea_2147_2_">
			<path class="st1" d="M705.13,678.19c-0.41,0-0.75-0.34-0.75-0.75v-4.47c0-0.41,0.34-0.75,0.75-0.75s0.75,0.34,0.75,0.75v4.47
				C705.88,677.85,705.54,678.19,705.13,678.19z"/>
		</g>
		<g id="Línea_2148_2_">
			<path class="st1" d="M711.83,678.19c-0.41,0-0.75-0.34-0.75-0.75v-4.47c0-0.41,0.34-0.75,0.75-0.75s0.75,0.34,0.75,0.75v4.47
				C712.58,677.85,712.24,678.19,711.83,678.19z"/>
		</g>
		<g id="Elipse_2118_2_">
			<path class="st1" d="M692.8,691.96c-2.15,0-3.9-1.75-3.9-3.9s1.75-3.9,3.9-3.9c2.15,0,3.9,1.75,3.9,3.9
				S694.95,691.96,692.8,691.96z M692.8,685.66c-1.32,0-2.4,1.08-2.4,2.4s1.08,2.4,2.4,2.4c1.32,0,2.4-1.08,2.4-2.4
				S694.12,685.66,692.8,685.66z"/>
		</g>
	</g>
</g>
</svg>
