<?xml version="1.0" encoding="utf-8"?>
<!-- Generator: Adobe Illustrator 24.0.2, SVG Export Plug-In . SVG Version: 6.00 Build 0)  -->
<svg version="1.1" xmlns="http://www.w3.org/2000/svg" xmlns:xlink="http://www.w3.org/1999/xlink" x="0px" y="0px"
	 viewBox="0 0 65 65" style="enable-background:new 0 0 65 65;" xml:space="preserve">
<style type="text/css">
	.st0{display:none;}
	.st1{display:inline;fill:#98A6B0;}
	.st2{fill:none;}
	.st3{fill:#4C9F2E;}
	.st4{fill:#94D040;}
	.st5{fill:none;stroke:#00A800;stroke-width:1.6;stroke-linecap:round;stroke-linejoin:round;stroke-miterlimit:10;}
	.st6{fill:none;stroke:#95A6B1;stroke-width:1.6;stroke-linecap:round;stroke-linejoin:round;}
	.st7{fill:none;stroke:#FFFFFF;stroke-width:1.5;stroke-linecap:round;stroke-linejoin:round;}
</style>
<g id="BASE" class="st0">
</g>
<g id="Capa_1">
	<g>
		<g>
			<g>
				<g>
					<rect y="48.26" class="st2" width="65" height="16.74"/>
				</g>
				<g>
					<g>
						<path class="st3" d="M45.38,61.32h-7.17c-0.66,0-1.2-0.54-1.2-1.2s0.54-1.2,1.2-1.2h7.17c0.66,0,1.2,0.54,1.2,1.2
							S46.04,61.32,45.38,61.32z"/>
					</g>
					<g>
						<path class="st3" d="M53.11,61.32h-0.58c-0.66,0-1.2-0.54-1.2-1.2s0.54-1.2,1.2-1.2h0.58c0.66,0,1.2,0.54,1.2,1.2
							S53.77,61.32,53.11,61.32z"/>
					</g>
					<g>
						<path class="st3" d="M18.99,61.32h-7.1c-0.66,0-1.2-0.54-1.2-1.2s0.54-1.2,1.2-1.2h7.1c0.66,0,1.2,0.54,1.2,1.2
							S19.65,61.32,18.99,61.32z"/>
					</g>
					<g>
						<path class="st4" d="M31.05,61.32H18.53c-0.66,0-1.2-0.54-1.2-1.2s0.54-1.2,1.2-1.2h12.52c0.66,0,1.2,0.54,1.2,1.2
							S31.71,61.32,31.05,61.32z"/>
					</g>
					<g>
						<path class="st4" d="M35.47,55.21H11.89c-0.66,0-1.2-0.54-1.2-1.2s0.54-1.2,1.2-1.2h23.58c0.66,0,1.2,0.54,1.2,1.2
							S36.13,55.21,35.47,55.21z"/>
					</g>
					<g>
						<path class="st3" d="M53.11,55.21H34.75c-0.66,0-1.2-0.54-1.2-1.2s0.54-1.2,1.2-1.2h18.36c0.66,0,1.2,0.54,1.2,1.2
							S53.77,55.21,53.11,55.21z"/>
					</g>
					<g>
						<path class="st3" d="M12.32,55.21h-0.43c-0.66,0-1.2-0.54-1.2-1.2s0.54-1.2,1.2-1.2h0.43c0.66,0,1.2,0.54,1.2,1.2
							S12.98,55.21,12.32,55.21z"/>
					</g>
				</g>
			</g>
		</g>
		<rect class="st2" width="65" height="65"/>
		<rect y="0.12" class="st2" width="64.58" height="64.58"/>
		<g>
			<path class="st5" d="M13.67,13.03c0.43,0.94,0.46,1.96,0.16,2.87c-0.33,1-1.06,1.87-2.1,2.34c-1.98,0.9-4.31,0.03-5.22-1.94
				s-0.03-4.31,1.94-5.22C10.43,10.19,12.77,11.06,13.67,13.03z"/>
			<path class="st6" d="M52.2,34.81l3.11-11.91c0.1-0.41-0.28-0.77-0.68-0.66l-8.1,2.19c-0.12,0.03-0.25,0.05-0.37,0.05H23.62h-13.3
				c-0.36,0-0.65,0.29-0.65,0.65v3.91c0,0.45,0.36,0.81,0.81,0.81h1.97l0.07,0.27c0.38,1.5-0.06,3.52-0.57,4.85l0,0"/>
			<path class="st6" d="M16.81,11.81h4.8c0.3,0,0.54,0.29,0.54,0.66v2.35h3.33c0.64,0,1.15,0.52,1.15,1.15v2.83h-4.48h-0.97h-3.76"
				/>
			<line class="st6" x1="12.46" y1="29.85" x2="53.49" y2="29.85"/>
			<polyline class="st6" points="10.78,21.71 10.78,24.48 30.31,24.48 30.31,18.8 16.72,18.8 			"/>
			<polyline class="st6" points="34.86,24.48 34.86,20.31 46.32,20.31 46.32,24.47 			"/>
			<line class="st6" x1="38.7" y1="20.31" x2="38.7" y2="24.48"/>
			<line class="st6" x1="42.54" y1="20.31" x2="42.54" y2="24.48"/>
			<g>
				<path class="st6" d="M58.84,38.04c-3.22,0-3.22-3.15-6.45-3.15c-3.22,0-3.22,3.15-6.45,3.15c-3.22,0-3.22-3.15-6.45-3.15
					c-3.22,0-3.22,3.15-6.45,3.15c-3.22,0-3.22-3.15-6.44-3.15c-3.23,0-3.23,3.15-6.45,3.15c-3.23,0-3.23-3.15-6.45-3.15
					s-3.23,3.15-6.45,3.15"/>
			</g>
			<path class="st6" d="M58.84,44.72c-3.22,0-3.22-3.15-6.45-3.15c-3.22,0-3.22,3.15-6.45,3.15c-3.22,0-3.22-3.15-6.44-3.15"/>
			<path class="st6" d="M33.06,44.72c-3.22,0-3.22-3.15-6.44-3.15c-3.23,0-3.23,3.15-6.45,3.15c-3.23,0-3.23-3.15-6.45-3.15"/>
		</g>
	</g>
</g>
</svg>
