<?xml version="1.0" encoding="utf-8"?>
<!-- Generator: Adobe Illustrator 24.0.2, SVG Export Plug-In . SVG Version: 6.00 Build 0)  -->
<svg version="1.1" xmlns="http://www.w3.org/2000/svg" xmlns:xlink="http://www.w3.org/1999/xlink" x="0px" y="0px"
	 viewBox="0 0 47 47" style="enable-background:new 0 0 47 47;" xml:space="preserve">
<style type="text/css">
	.st0{display:none;}
	.st1{display:inline;fill:#98A6B0;}
	.st2{fill:none;}
	.st3{fill:#4C9F2E;}
	.st4{fill:#94D040;}
	.st5{fill:none;stroke:#00A800;stroke-width:1.6;stroke-linecap:round;stroke-linejoin:round;stroke-miterlimit:10;}
	.st6{fill:none;stroke:#95A6B1;stroke-width:1.6;stroke-linecap:round;stroke-linejoin:round;}
	.st7{fill:none;stroke:#FFFFFF;stroke-width:1.5;stroke-linecap:round;stroke-linejoin:round;}
</style>
<g id="BASE" class="st0">
	<rect x="-2.23" y="-1.25" class="st1" width="51.47" height="51.47"/>
</g>
<g id="Capa_1">
	<g>
		<rect y="0" class="st2" width="47" height="47"/>
		<g>
			<g>
				<g>
					<g>
						<path class="st7" d="M4.33,36.95c3.19,0,3.19,3.18,6.39,3.18c3.19,0,3.19-3.18,6.39-3.18c3.19,0,3.19,3.18,6.38,3.18
							c3.19,0,3.19-3.18,6.39-3.18c3.2,0,3.2,3.18,6.39,3.18s3.2-3.18,6.39-3.18"/>
						<line class="st7" x1="29.27" y1="33.91" x2="35.37" y2="33.91"/>
						<polyline class="st7" points="34.53,20.11 34.53,23.56 20.11,23.56 						"/>
						<path class="st7" d="M14.23,23.56h-3.25V13.18c0-0.71,0.54-1.29,1.21-1.29h15.37"/>
						<path class="st7" d="M15.03,6.87h8.5c0.65,0,1.18,0.53,1.18,1.18v3.83H14.01V7.89C14.01,7.33,14.47,6.87,15.03,6.87z"/>
						<path class="st7" d="M20.11,23.57h17.86c0.76,0,1.38,0.66,1.38,1.47v13.7"/>
						<path class="st7" d="M7.88,38.74v-13.9c0-0.7,0.53-1.27,1.19-1.27l5.16-0.01"/>
						<line class="st7" x1="29.27" y1="24.08" x2="29.27" y2="36.95"/>
						<line class="st7" x1="29.27" y1="28.52" x2="35.37" y2="28.52"/>
						<line class="st7" x1="35.39" y1="24.08" x2="35.39" y2="39.4"/>
						<line class="st7" x1="25.32" y1="23.56" x2="25.32" y2="39.4"/>
						<polyline class="st7" points="20.11,23.59 20.13,26.88 14.95,26.88 14.95,23.58 						"/>
						<line class="st7" x1="19.27" y1="6.87" x2="19.27" y2="11.89"/>
					</g>
				</g>
			</g>
			<path class="st7" d="M30.59,12.99c-0.34,0.74-0.36,1.54-0.12,2.25c0.26,0.79,0.83,1.46,1.65,1.84c1.55,0.71,3.38,0.03,4.09-1.52
				c0.71-1.55,0.03-3.38-1.52-4.09C33.12,10.75,31.29,11.44,30.59,12.99z"/>
		</g>
	</g>
</g>
</svg>
