<?xml version="1.0" encoding="utf-8"?>
<!-- Generator: Adobe Illustrator 24.0.2, SVG Export Plug-In . SVG Version: 6.00 Build 0)  -->
<svg version="1.1" xmlns="http://www.w3.org/2000/svg" xmlns:xlink="http://www.w3.org/1999/xlink" x="0px" y="0px"
	 viewBox="0 0 65 65" style="enable-background:new 0 0 65 65;" xml:space="preserve">
<style type="text/css">
	.st0{display:none;}
	.st1{display:inline;fill:#98A6B0;}
	.st2{fill:none;}
	.st3{fill:#4C9F2E;}
	.st4{fill:#94D040;}
	.st5{fill:none;stroke:#00A800;stroke-width:1.6;stroke-linecap:round;stroke-linejoin:round;stroke-miterlimit:10;}
	.st6{fill:none;stroke:#95A6B1;stroke-width:1.6;stroke-linecap:round;stroke-linejoin:round;}
	.st7{fill:none;stroke:#FFFFFF;stroke-width:1.5;stroke-linecap:round;stroke-linejoin:round;}
</style>
<g id="BASE" class="st0">
</g>
<g id="Capa_1">
	<g>
		<g>
			<g>
				<g>
					<rect y="48.26" class="st2" width="65" height="16.74"/>
				</g>
				<g>
					<g>
						<path class="st3" d="M45.38,61.32h-7.17c-0.66,0-1.2-0.54-1.2-1.2s0.54-1.2,1.2-1.2h7.17c0.66,0,1.2,0.54,1.2,1.2
							S46.04,61.32,45.38,61.32z"/>
					</g>
					<g>
						<path class="st3" d="M53.11,61.32h-0.58c-0.66,0-1.2-0.54-1.2-1.2s0.54-1.2,1.2-1.2h0.58c0.66,0,1.2,0.54,1.2,1.2
							S53.77,61.32,53.11,61.32z"/>
					</g>
					<g>
						<path class="st3" d="M18.99,61.32h-7.1c-0.66,0-1.2-0.54-1.2-1.2s0.54-1.2,1.2-1.2h7.1c0.66,0,1.2,0.54,1.2,1.2
							S19.65,61.32,18.99,61.32z"/>
					</g>
					<g>
						<path class="st4" d="M31.05,61.32H18.53c-0.66,0-1.2-0.54-1.2-1.2s0.54-1.2,1.2-1.2h12.52c0.66,0,1.2,0.54,1.2,1.2
							S31.71,61.32,31.05,61.32z"/>
					</g>
					<g>
						<path class="st4" d="M35.47,55.21H11.89c-0.66,0-1.2-0.54-1.2-1.2s0.54-1.2,1.2-1.2h23.58c0.66,0,1.2,0.54,1.2,1.2
							S36.14,55.21,35.47,55.21z"/>
					</g>
					<g>
						<path class="st3" d="M53.11,55.21H34.75c-0.66,0-1.2-0.54-1.2-1.2s0.54-1.2,1.2-1.2h18.36c0.66,0,1.2,0.54,1.2,1.2
							S53.77,55.21,53.11,55.21z"/>
					</g>
					<g>
						<path class="st3" d="M12.32,55.21h-0.43c-0.66,0-1.2-0.54-1.2-1.2s0.54-1.2,1.2-1.2h0.43c0.66,0,1.2,0.54,1.2,1.2
							S12.98,55.21,12.32,55.21z"/>
					</g>
				</g>
			</g>
		</g>
		<rect class="st2" width="65" height="65"/>
		<g>
			<g>
				<rect x="47.11" y="23.22" class="st6" width="6.04" height="12.25"/>
				<path class="st6" d="M56.56,37.89H54c-0.47,0-0.85-0.38-0.85-0.85v-15.4c0-0.47,0.38-0.85,0.85-0.85h2.56
					c0.47,0,0.85,0.38,0.85,0.85v15.4C57.4,37.51,57.02,37.89,56.56,37.89z"/>
				
					<rect x="11.85" y="23.22" transform="matrix(-1 -4.485979e-11 4.485979e-11 -1 29.7459 58.6865)" class="st6" width="6.04" height="12.25"/>
				<path class="st6" d="M8.44,37.89H11c0.47,0,0.85-0.38,0.85-0.85v-15.4c0-0.47-0.38-0.85-0.85-0.85H8.44
					c-0.47,0-0.85,0.38-0.85,0.85v15.4C7.6,37.51,7.98,37.89,8.44,37.89z"/>
				<rect x="17.89" y="23.86" class="st6" width="29.21" height="10.79"/>
				<line class="st6" x1="22.6" y1="23.86" x2="27.51" y2="34.65"/>
				<line class="st6" x1="30.09" y1="23.86" x2="35" y2="34.65"/>
				<line class="st6" x1="37.69" y1="23.86" x2="42.6" y2="34.65"/>
			</g>
			<path class="st5" d="M26.3,11.44c0.4,0.88,0.43,1.84,0.15,2.7c-0.31,0.94-1,1.76-1.97,2.2c-1.86,0.85-4.05,0.03-4.9-1.83
				s-0.03-4.05,1.83-4.9C23.26,8.77,25.45,9.59,26.3,11.44z"/>
			<g>
				<path class="st6" d="M55.28,44.59c-2.53,0-2.53-1.97-5.06-1.97c-2.53,0-2.53,1.97-5.06,1.97c-2.53,0-2.53-1.97-5.06-1.97
					c-2.53,0-2.53,1.97-5.06,1.97c-2.53,0-2.53-1.97-5.06-1.97c-2.53,0-2.53,1.97-5.06,1.97c-2.53,0-2.53-1.97-5.06-1.97
					c-2.53,0-2.53,1.97-5.07,1.97s-2.53-1.97-5.07-1.97"/>
			</g>
			<g>
				<path class="st6" d="M9.72,13.06c1.61,0,1.61,1.97,3.21,1.97s1.61-1.97,3.21-1.97"/>
			</g>
			<g>
				<path class="st6" d="M55.28,15.03c-2.52,0-2.52-1.97-5.04-1.97c-2.52,0-2.52,1.97-5.03,1.97c-2.52,0-2.52-1.97-5.04-1.97
					c-2.52,0-2.52,1.97-5.04,1.97s-2.52-1.97-5.04-1.97"/>
			</g>
		</g>
		<rect y="0.12" class="st2" width="64.58" height="64.58"/>
	</g>
</g>
</svg>
