<svg xmlns="http://www.w3.org/2000/svg" width="65" height="65" viewBox="0 0 65 65">
  <g id="Grupo_21402" data-name="Grupo 21402" transform="translate(-0.147)">
    <g id="Grupo_20763" data-name="Grupo 20763">
      <g id="Grupo_20762" data-name="Grupo 20762">
        <g id="Grupo_20761" data-name="Grupo 20761">
          <rect id="Rectángulo_5831" data-name="Rectángulo 5831" width="65" height="16.741" transform="translate(0.147 48.259)" fill="none"/>
          <g id="Grupo_20760" data-name="Grupo 20760">
            <line id="Línea_4652" data-name="Línea 4652" x2="7.167" transform="translate(38.36 60.119)" fill="none" stroke="#4c9f2e" stroke-linecap="round" stroke-linejoin="round" stroke-width="2.4"/>
            <line id="Línea_4653" data-name="Línea 4653" x2="0.581" transform="translate(52.675 60.119)" fill="none" stroke="#4c9f2e" stroke-linecap="round" stroke-linejoin="round" stroke-width="2.4"/>
            <line id="Línea_4654" data-name="Línea 4654" x2="7.101" transform="translate(12.038 60.119)" fill="none" stroke="#4c9f2e" stroke-linecap="round" stroke-linejoin="round" stroke-width="2.4"/>
            <line id="Línea_4655" data-name="Línea 4655" x2="12.517" transform="translate(18.676 60.119)" fill="none" stroke="#94d040" stroke-linecap="round" stroke-linejoin="round" stroke-width="2.4"/>
            <line id="Línea_4656" data-name="Línea 4656" x2="23.582" transform="translate(12.038 54.012)" fill="none" stroke="#94d040" stroke-linecap="round" stroke-linejoin="round" stroke-width="2.4"/>
            <line id="Línea_4657" data-name="Línea 4657" x2="18.363" transform="translate(34.893 54.012)" fill="none" stroke="#4c9f2e" stroke-linecap="round" stroke-linejoin="round" stroke-width="2.4"/>
            <line id="Línea_4658" data-name="Línea 4658" x2="0.429" transform="translate(12.038 54.012)" fill="none" stroke="#4c9f2e" stroke-linecap="round" stroke-linejoin="round" stroke-width="2.4"/>
          </g>
        </g>
      </g>
      <rect id="Rectángulo_5832" data-name="Rectángulo 5832" width="65" height="65" transform="translate(0.147)" fill="none"/>
      <rect id="Rectángulo_5833" data-name="Rectángulo 5833" width="64.579" height="64.579" transform="translate(0.147 0.119)" fill="none"/>
    </g>
    <g id="Grupo_20766" data-name="Grupo 20766">
      <rect id="Rectángulo_5834" data-name="Rectángulo 5834" width="28.817" height="5.709" rx="1.326" transform="translate(28.021 23.874)" fill="none" stroke="#95a6b1" stroke-linecap="round" stroke-linejoin="round" stroke-width="1.6"/>
      <path id="Trazado_19939" data-name="Trazado 19939" d="M30.931,12.119V8.738a2.082,2.082,0,0,1,2.082-2.082H52.339a2.19,2.19,0,0,1,2.19,2.189V23.852h-23.6" fill="none" stroke="#95a6b1" stroke-linecap="round" stroke-linejoin="round" stroke-width="1.6"/>
      <line id="Línea_4659" data-name="Línea 4659" y1="0.001" x2="23.555" transform="translate(30.974 10.847)" fill="none" stroke="#95a6b1" stroke-linecap="round" stroke-linejoin="round" stroke-width="1.6"/>
      <line id="Línea_4660" data-name="Línea 4660" y2="12.999" transform="translate(43.681 10.875)" fill="none" stroke="#95a6b1" stroke-linecap="round" stroke-linejoin="round" stroke-width="1.6"/>
      <line id="Línea_4661" data-name="Línea 4661" x2="6.412" transform="translate(43.681 13.963)" fill="none" stroke="#95a6b1" stroke-linecap="round" stroke-linejoin="round" stroke-width="1.6"/>
      <line id="Línea_4662" data-name="Línea 4662" x2="6.412" transform="translate(43.681 17.214)" fill="none" stroke="#95a6b1" stroke-linecap="round" stroke-linejoin="round" stroke-width="1.6"/>
      <line id="Línea_4663" data-name="Línea 4663" x2="6.412" transform="translate(43.681 20.585)" fill="none" stroke="#95a6b1" stroke-linecap="round" stroke-linejoin="round" stroke-width="1.6"/>
      <line id="Línea_4664" data-name="Línea 4664" y2="12.999" transform="translate(50.112 10.875)" fill="none" stroke="#95a6b1" stroke-linecap="round" stroke-linejoin="round" stroke-width="1.6"/>
      <path id="Trazado_19940" data-name="Trazado 19940" d="M33.963,18.084a3.032,3.032,0,1,1-3.032-3.032A3.021,3.021,0,0,1,33.963,18.084Z" fill="none" stroke="#00a800" stroke-linecap="round" stroke-linejoin="round" stroke-width="1.6"/>
      <path id="Trazado_19941" data-name="Trazado 19941" d="M18.968,16.773" fill="none" stroke="#95a6b1" stroke-linecap="round" stroke-linejoin="round" stroke-width="1.6"/>
      <path id="Trazado_19942" data-name="Trazado 19942" d="M31.286,12.574" fill="none" stroke="#95a6b1" stroke-linecap="round" stroke-linejoin="round" stroke-width="1.6"/>
      <path id="Trazado_19943" data-name="Trazado 19943" d="M17.455,22.423" fill="none" stroke="#95a6b1" stroke-linecap="round" stroke-linejoin="round" stroke-width="1.6"/>
      <path id="Trazado_19944" data-name="Trazado 19944" d="M27.07,28.073" fill="none" stroke="#95a6b1" stroke-linecap="round" stroke-linejoin="round" stroke-width="1.6"/>
      <g id="Grupo_20764" data-name="Grupo 20764">
        <path id="Trazado_19945" data-name="Trazado 19945" d="M32.771,38.581H9.968V34.575h22.8a2.486,2.486,0,0,0,2.483-2.483V29.583H39.26v2.509A6.5,6.5,0,0,1,32.771,38.581Z" fill="none" stroke="#95a6b1" stroke-linecap="round" stroke-linejoin="round" stroke-width="1.6"/>
      </g>
      <rect id="Rectángulo_5835" data-name="Rectángulo 5835" width="3.91" height="7.417" transform="translate(6.058 32.869)" fill="none" stroke="#95a6b1" stroke-linecap="round" stroke-linejoin="round" stroke-width="1.6"/>
      <path id="Trazado_19946" data-name="Trazado 19946" d="M24.618,27.73c-2.057,0-2.057-2-4.113-2s-2.057,2-4.113,2-2.057-2-4.115-2-2.057,2-4.115,2" fill="none" stroke="#95a6b1" stroke-linecap="round" stroke-linejoin="round" stroke-width="1.6"/>
      <path id="Trazado_19947" data-name="Trazado 19947" d="M56.838,46.254c-2.434,0-2.434-2-4.867-2s-2.433,2-4.867,2-2.433-2-4.867-2-2.433,2-4.865,2-2.433-2-4.866-2-2.434,2-4.867,2-2.435-2-4.869-2-2.433,2-4.867,2-2.435-2-4.871-2-2.435,2-4.87,2" fill="none" stroke="#95a6b1" stroke-linecap="round" stroke-linejoin="round" stroke-width="1.6"/>
      <g id="Grupo_20765" data-name="Grupo 20765">
        <path id="Trazado_19948" data-name="Trazado 19948" d="M51.547,38.581h3.8V34.575h-3.8a2.486,2.486,0,0,1-2.483-2.483V29.583H45.058v2.509A6.5,6.5,0,0,0,51.547,38.581Z" fill="none" stroke="#95a6b1" stroke-linecap="round" stroke-linejoin="round" stroke-width="1.6"/>
      </g>
      <rect id="Rectángulo_5836" data-name="Rectángulo 5836" width="3.91" height="7.417" transform="translate(59.26 40.286) rotate(-180)" fill="none" stroke="#95a6b1" stroke-linecap="round" stroke-linejoin="round" stroke-width="1.6"/>
    </g>
  </g>
</svg>
