<?xml version="1.0" encoding="utf-8"?>
<!-- Generator: Adobe Illustrator 24.0.2, SVG Export Plug-In . SVG Version: 6.00 Build 0)  -->
<svg version="1.1" xmlns="http://www.w3.org/2000/svg" xmlns:xlink="http://www.w3.org/1999/xlink" x="0px" y="0px"
	 viewBox="0 0 47 47" style="enable-background:new 0 0 47 47;" xml:space="preserve">
<style type="text/css">
	.st0{display:none;}
	.st1{display:inline;fill:#98A6B0;}
	.st2{fill:none;}
	.st3{fill:none;stroke:#FFFFFF;stroke-width:1.5;stroke-miterlimit:10;}
	.st4{fill:none;stroke:#FFFFFF;stroke-width:1.5;stroke-linecap:round;stroke-linejoin:round;stroke-miterlimit:10;}
	.st5{fill:none;stroke:#00A800;stroke-width:1.3134;stroke-linecap:round;stroke-linejoin:round;stroke-miterlimit:10;}
	.st6{fill:none;stroke:#95A6B1;stroke-width:1.5;stroke-linecap:round;stroke-linejoin:round;}
</style>
<g id="BASE" class="st0">
</g>
<g id="Capa_1">
	<g>
		<rect x="0.07" class="st2" width="46.93" height="47"/>
		<g>
			<g>
				<polyline class="st6" points="39.41,35.16 41.68,35.16 41.68,43.22 39.41,43.22 				"/>
				<g>
					<g>
						<g>
							<g>
								<g>
									<path class="st6" d="M18.78,15.58c-0.34-0.19-0.76-0.19-1.1,0L5.45,22.3c-0.49,0.27-0.71,0.86-0.52,1.39l3.5,10.67"/>
									<line class="st6" x1="18.23" y1="15.43" x2="18.23" y2="34.67"/>
								</g>
								<circle class="st6" cx="24.51" cy="23.59" r="1.48"/>
								<path class="st6" d="M20.22,3.6h-3.25c-0.45,0-0.81,0.36-0.81,0.81v3.41h4.94V4.47C21.1,3.99,20.71,3.6,20.22,3.6z"/>
								<path class="st6" d="M28.04,35c-0.26,0.1-0.56,0.16-0.92,0.16c-2.11,0-2.11-2.06-4.21-2.06c-2.11,0-2.11,2.06-4.21,2.06
									c-2.11,0-2.11-2.06-4.21-2.06c-2.11,0-2.11,2.06-4.22,2.06c-2.11,0-2.11-2.06-4.22-2.06s-2.11,2.06-4.22,2.06"/>
								<line class="st6" x1="8.77" y1="17.21" x2="8.77" y2="20.41"/>
								<path class="st6" d="M28.6,20.41v-5.83c0-1.57-1.28-2.85-2.85-2.85h-9.59"/>
								<path class="st6" d="M16.16,11.73h8.21V9.5c0-0.93-0.75-1.68-1.68-1.68h-8"/>
							</g>
						</g>
						<path class="st6" d="M17.76,15.58c0.34-0.19,0.76-0.19,1.1,0L31.1,22.3c0.49,0.27,0.71,0.86,0.52,1.39L28.04,35"/>
					</g>
					<polyline class="st6" points="8.43,34.35 11.44,43.4 25.36,43.4 28.03,35 					"/>
					<path class="st6" d="M27.12,35.16c-2.11,0-2.11-2.06-4.21-2.06"/>
					<path class="st6" d="M35.54,35.16c-2.11,0-2.11-2.06-4.21-2.06c-2.11,0-2.11,2.06-4.21,2.06"/>
				</g>
			</g>
		</g>
		<path class="st5" d="M13.15,9.94c0.37,0.82,0.4,1.71,0.14,2.5c-0.29,0.87-0.93,1.63-1.83,2.04c-1.72,0.79-3.75,0.03-4.54-1.69
			S6.89,9.04,8.61,8.25S12.37,8.22,13.15,9.94z"/>
	</g>
</g>
</svg>
