<?xml version="1.0" encoding="utf-8"?>
<!-- Generator: Adobe Illustrator 24.0.2, SVG Export Plug-In . SVG Version: 6.00 Build 0)  -->
<svg version="1.1" xmlns="http://www.w3.org/2000/svg" xmlns:xlink="http://www.w3.org/1999/xlink" x="0px" y="0px"
	 viewBox="0 0 47 47" style="enable-background:new 0 0 47 47;" xml:space="preserve">
<style type="text/css">
	.st0{display:none;}
	.st1{display:inline;fill:#98A6B0;}
	.st2{fill:none;}
	.st3{fill:none;stroke:#FFFFFF;stroke-width:1.5;stroke-miterlimit:10;}
	.st4{fill:none;stroke:#FFFFFF;stroke-width:1.5;stroke-linecap:round;stroke-linejoin:round;stroke-miterlimit:10;}
	.st5{fill:none;stroke:#00A800;stroke-width:1.3134;stroke-linecap:round;stroke-linejoin:round;stroke-miterlimit:10;}
	.st6{fill:none;stroke:#95A6B1;stroke-width:1.5;stroke-linecap:round;stroke-linejoin:round;}
</style>
<g id="BASE" class="st0">
</g>
<g id="Capa_1">
	<g>
		<rect x="0.07" class="st2" width="46.93" height="47"/>
		<path class="st5" d="M38.85,8.35c0.37,0.82,0.4,1.71,0.14,2.5c-0.29,0.87-0.93,1.63-1.83,2.04c-1.72,0.79-3.75,0.03-4.54-1.69
			c-0.79-1.72-0.03-3.75,1.69-4.54S38.06,6.63,38.85,8.35z"/>
		<g>
			<path class="st6" d="M41.68,29.54c-2.53,7.62-9.71,13.11-18.18,13.11c-10.58,0-19.15-8.57-19.15-19.15"/>
			<path class="st6" d="M39.94,13.67c1.72,2.87,2.71,6.24,2.71,9.83"/>
			<path class="st6" d="M5.32,17.46C7.85,9.84,15.04,4.35,23.5,4.35c2.82,0,5.5,0.61,7.91,1.7"/>
			<polyline class="st6" points="1.83,27.45 4.35,23.5 6.99,27.41 			"/>
			<polyline class="st6" points="45.17,19.57 42.65,23.52 40.01,19.6 			"/>
			<g>
				<g>
					<g>
						<g>
							<path class="st6" d="M7.45,32.72c2.67,0,2.67,2.45,5.35,2.45c2.67,0,2.67-2.45,5.35-2.45c2.67,0,2.67,2.45,5.35,2.45
								c2.68,0,2.68-2.45,5.35-2.45c2.68,0,2.68,2.45,5.35,2.45s2.68-2.45,5.35-2.45"/>
						</g>
						<line class="st6" x1="28.09" y1="30.49" x2="32.95" y2="30.49"/>
						<path class="st6" d="M16.12,22.79h-2.58v-7.73c0-0.53,0.43-0.96,0.96-0.96h12.23h4.58c0.53,0,0.96,0.43,0.96,0.96v5.16v2.57
							H20.8"/>
						<path class="st6" d="M16.73,10.36h6.82c0.5,0,0.91,0.41,0.91,0.91v2.83h-8.52v-2.95C15.94,10.71,16.3,10.36,16.73,10.36z"/>
						<path class="st6" d="M20.8,22.8h14.21c0.61,0,1.1,0.49,1.1,1.1v10.2"/>
						<path class="st6" d="M11.07,34.09V23.74c0-0.52,0.42-0.95,0.95-0.95l4.1-0.01"/>
						<line class="st6" x1="28.09" y1="23.17" x2="28.09" y2="32.75"/>
						<line class="st6" x1="28.09" y1="26.48" x2="32.95" y2="26.48"/>
						<line class="st6" x1="32.96" y1="23.17" x2="32.96" y2="34.58"/>
						<line class="st6" x1="24.95" y1="22.79" x2="24.95" y2="34.58"/>
						<polyline class="st6" points="20.8,22.81 20.82,26.01 16.7,26.01 16.7,22.8 						"/>
						<line class="st6" x1="20.13" y1="10.36" x2="20.13" y2="14.1"/>
					</g>
				</g>
			</g>
		</g>
	</g>
</g>
</svg>
