<svg id="Capa_1" data-name="Capa 1" xmlns="http://www.w3.org/2000/svg" viewBox="0 0 47 47"><defs><style>.cls-1{fill:none;}.cls-2{fill:#fff;}</style></defs><title>icono_menu-ingreso</title><rect class="cls-1" width="47" height="47"/><g id="Grupo_12893" data-name="Grupo 12893"><g id="Grupo_12863" data-name="Grupo 12863"><g id="Trazado_11535" data-name="Trazado 11535"><path class="cls-2" d="M35.7,40.2H13.2a.8.8,0,0,1-.8-.7V15.4a.9.9,0,0,1,.8-.8.8.8,0,0,1,.7.8V38.8H35V10.2H19.1a.7.7,0,0,1-.7-.7.8.8,0,0,1,.7-.8H35.7a.9.9,0,0,1,.8.8v30A.8.8,0,0,1,35.7,40.2Z"/></g><g id="Rectángulo_4544" data-name="Rectángulo 4544"><path class="cls-2" d="M29.8,21.7H19a.9.9,0,0,1-.8-.8V16.4a.8.8,0,0,1,.8-.7H29.8a.7.7,0,0,1,.8.7v4.5A.8.8,0,0,1,29.8,21.7ZM19.7,20.2h9.4v-3H19.7Z"/></g><g id="Línea_2180" data-name="Línea 2180"><path class="cls-2" d="M31.6,27.1H17.3a.7.7,0,0,1-.7-.7.8.8,0,0,1,.7-.8H31.6a.9.9,0,0,1,.8.8A.8.8,0,0,1,31.6,27.1Z"/></g><g id="Línea_2181" data-name="Línea 2181"><path class="cls-2" d="M31.6,31.1H17.3a.7.7,0,0,1-.7-.7.8.8,0,0,1,.7-.8H31.6a.9.9,0,0,1,.8.8A.8.8,0,0,1,31.6,31.1Z"/></g><g id="Línea_2182" data-name="Línea 2182"><path class="cls-2" d="M25.9,35.2H17.3a.8.8,0,0,1-.7-.8.7.7,0,0,1,.7-.7h8.6a.7.7,0,0,1,.8.7A.8.8,0,0,1,25.9,35.2Z"/></g><g id="Elipse_2132" data-name="Elipse 2132"><path class="cls-2" d="M13.7,13.1a3.2,3.2,0,0,1-3.2-3.2,3.2,3.2,0,0,1,6.3,0A3.2,3.2,0,0,1,13.7,13.1Zm0-4.9A1.8,1.8,0,0,0,12,9.9a1.8,1.8,0,0,0,1.7,1.7,1.7,1.7,0,0,0,0-3.4Z"/></g></g></g></svg>