<svg id="Grupo_15460" data-name="Grupo 15460" xmlns="http://www.w3.org/2000/svg" width="65" height="65" viewBox="0 0 65 65">
  <g id="Grupo_15462" data-name="Grupo 15462">
    <g id="Grupo_15461" data-name="Grupo 15461">
      <rect id="Rectángulo_5217" data-name="Rectángulo 5217" width="65" height="16.741" transform="translate(0 48.259)" fill="none"/>
      <g id="Grupo_15460-2" data-name="Grupo 15460">
        <line id="Línea_3220" data-name="Línea 3220" x2="7.167" transform="translate(38.214 60.119)" fill="none" stroke="#4da12e" stroke-linecap="round" stroke-linejoin="round" stroke-width="2.4"/>
        <line id="Línea_3221" data-name="Línea 3221" x2="0.581" transform="translate(52.528 60.119)" fill="none" stroke="#4da12e" stroke-linecap="round" stroke-linejoin="round" stroke-width="2.4"/>
        <line id="Línea_3222" data-name="Línea 3222" x2="7.101" transform="translate(11.891 60.119)" fill="none" stroke="#4da12e" stroke-linecap="round" stroke-linejoin="round" stroke-width="2.4"/>
        <line id="Línea_3223" data-name="Línea 3223" x2="12.517" transform="translate(18.529 60.119)" fill="none" stroke="#96d200" stroke-linecap="round" stroke-linejoin="round" stroke-width="2.4"/>
        <line id="Línea_3224" data-name="Línea 3224" x2="23.582" transform="translate(11.891 54.012)" fill="none" stroke="#96d200" stroke-linecap="round" stroke-linejoin="round" stroke-width="2.4"/>
        <line id="Línea_3225" data-name="Línea 3225" x2="18.363" transform="translate(34.746 54.012)" fill="none" stroke="#4da12e" stroke-linecap="round" stroke-linejoin="round" stroke-width="2.4"/>
        <line id="Línea_3226" data-name="Línea 3226" x2="0.429" transform="translate(11.891 54.012)" fill="none" stroke="#4da12e" stroke-linecap="round" stroke-linejoin="round" stroke-width="2.4"/>
      </g>
    </g>
  </g>
  <g id="Grupo_12949" data-name="Grupo 12949">
    <g id="Grupo_11514" data-name="Grupo 11514">
      <g id="Grupo_15064" data-name="Grupo 15064">
        <path id="Trazado_12510" data-name="Trazado 12510" d="M37.205,19.057c-.7,1.317-1.716,3.133-5.459,3.575" fill="none" stroke="#95a6b1" stroke-linecap="round" stroke-linejoin="round" stroke-width="1.6"/>
        <path id="Trazado_12511" data-name="Trazado 12511" d="M26.735,18.247a3.644,3.644,0,1,1-6.627,3.031h0a3.644,3.644,0,1,1,6.627-3.031Z" fill="none" stroke="#19a500" stroke-miterlimit="10" stroke-width="1.6"/>
        <path id="Trazado_12512" data-name="Trazado 12512" d="M29.829,25.266a7.863,7.863,0,0,1-1.863-.868" fill="none" stroke="#95a6b1" stroke-linecap="round" stroke-linejoin="round" stroke-width="1.6"/>
        <path id="Trazado_12513" data-name="Trazado 12513" d="M25.672,13.4a53.436,53.436,0,0,1,4.644-7.211,2.357,2.357,0,0,1,3.3-.486,2.332,2.332,0,0,1,.486.486c2.342,3.139,6.026,8.542,6.026,11.524a7.918,7.918,0,0,1-7.917,7.918h0a7.9,7.9,0,0,1-2.379-.364" fill="none" stroke="#95a6b1" stroke-linecap="round" stroke-linejoin="round" stroke-width="1.6"/>
        <path id="Trazado_12514" data-name="Trazado 12514" d="M45.225,28.649,41.744,47.138H23.255l-3.48-18.489M20.8,33.364c1.949,0,1.949,1.477,3.9,1.477s1.949-1.477,3.9-1.477,1.949,1.477,3.9,1.477,1.95-1.477,3.9-1.477,1.952,1.477,3.9,1.477,1.952-1.477,3.9-1.477" fill="none" stroke="#95a6b1" stroke-linecap="round" stroke-linejoin="round" stroke-width="1.6"/>
      </g>
    </g>
  </g>
  <rect id="Rectángulo_3799-2" data-name="Rectángulo 3799-2" width="65" height="65" transform="translate(0)" fill="none"/>
</svg>
