<svg xmlns="http://www.w3.org/2000/svg" width="42.013" height="38.75" viewBox="0 0 42.013 38.75">
  <g id="Grupo_18862" data-name="Grupo 18862" transform="translate(-2.493 -4.125)">
    <g id="Grupo_18862-2" data-name="Grupo 18862">
      <path id="Trazado_19165" data-name="Trazado 19165" d="M40.276,12.975a3.11,3.11,0,1,1-4.122-1.536A3.1,3.1,0,0,1,40.276,12.975Z" fill="none" stroke="#00a800" stroke-linecap="round" stroke-linejoin="round" stroke-width="1.6"/>
    </g>
    <g id="Grupo_18867" data-name="Grupo 18867">
      <g id="Grupo_18866" data-name="Grupo 18866">
        <g id="Grupo_18864" data-name="Grupo 18864">
          <rect id="Rectángulo_5600" data-name="Rectángulo 5600" width="33.879" height="9.631" transform="translate(40.437 33.111) rotate(-180)" fill="none" stroke="#95a6b1" stroke-linecap="round" stroke-linejoin="round" stroke-width="1.6"/>
          <rect id="Rectángulo_5601" data-name="Rectángulo 5601" width="3.264" height="10.965" transform="translate(6.558 33.778) rotate(-180)" fill="none" stroke="#95a6b1" stroke-linecap="round" stroke-linejoin="round" stroke-width="1.6"/>
          <rect id="Rectángulo_5602" data-name="Rectángulo 5602" width="3.264" height="10.965" transform="translate(43.707 33.778) rotate(-180)" fill="none" stroke="#95a6b1" stroke-linecap="round" stroke-linejoin="round" stroke-width="1.6"/>
          <line id="Línea_4069" data-name="Línea 4069" y1="3.185" transform="translate(13.91 29.926)" fill="none" stroke="#95a6b1" stroke-linecap="round" stroke-linejoin="round" stroke-width="1.6"/>
          <g id="Grupo_18863" data-name="Grupo 18863">
            <line id="Línea_4070" data-name="Línea 4070" x2="10.613" transform="translate(18.138 28.315)" fill="none" stroke="#95a6b1" stroke-linecap="round" stroke-linejoin="round" stroke-width="1.6"/>
            <path id="Trazado_19166" data-name="Trazado 19166" d="M26.365,25.817l2.5,2.5-2.5,2.5" fill="none" stroke="#95a6b1" stroke-linecap="round" stroke-linejoin="round" stroke-width="1.6"/>
          </g>
        </g>
        <g id="Grupo_18865" data-name="Grupo 18865">
          <rect id="Rectángulo_5166" data-name="Rectángulo 5166" width="7.211" height="5.566" transform="translate(13.895 17.918)" fill="none" stroke="#95a6b1" stroke-linecap="round" stroke-linejoin="round" stroke-width="1.6"/>
          <rect id="Rectángulo_5167" data-name="Rectángulo 5167" width="3.556" height="3.344" transform="translate(15.722 14.574)" fill="none" stroke="#95a6b1" stroke-linecap="round" stroke-linejoin="round" stroke-width="1.6"/>
          <path id="Rectángulo_5168" data-name="Rectángulo 5168" d="M12.838,8.889h9.324c.44,0,.8.481.8,1.075v.253c0,.594-.356,1.075-.8,1.075H12.838c-.44,0-.8-.481-.8-1.075V9.964C12.042,9.37,12.4,8.889,12.838,8.889Z" fill="none" stroke="#95a6b1" stroke-linecap="round" stroke-linejoin="round" stroke-width="1.6"/>
          <line id="Línea_2909" data-name="Línea 2909" x1="2.885" y1="3.282" transform="translate(12.838 11.292)" fill="none" stroke="#95a6b1" stroke-linecap="round" stroke-linejoin="round" stroke-width="1.6"/>
          <line id="Línea_2910" data-name="Línea 2910" y1="3.282" x2="2.885" transform="translate(19.278 11.292)" fill="none" stroke="#95a6b1" stroke-linecap="round" stroke-linejoin="round" stroke-width="1.6"/>
        </g>
      </g>
      <rect id="Rectángulo_5603" data-name="Rectángulo 5603" width="3.264" height="8.965" transform="translate(15.534 42.075) rotate(-180)" fill="none" stroke="#95a6b1" stroke-linecap="round" stroke-linejoin="round" stroke-width="1.6"/>
      <rect id="Rectángulo_5604" data-name="Rectángulo 5604" width="3.264" height="8.965" transform="translate(34.36 42.075) rotate(-180)" fill="none" stroke="#95a6b1" stroke-linecap="round" stroke-linejoin="round" stroke-width="1.6"/>
    </g>
    <line id="Línea_4071" data-name="Línea 4071" x2="38.836" transform="translate(4.082 42.075)" fill="none" stroke="#95a6b1" stroke-linecap="round" stroke-linejoin="round" stroke-width="1.6"/>
    <path id="Trazado_19167" data-name="Trazado 19167" d="M37.463,8.9V8.088A3.164,3.164,0,0,0,34.3,4.925H30.7a3.163,3.163,0,0,0-3.163,3.163V23.44" fill="none" stroke="#95a6b1" stroke-linecap="round" stroke-linejoin="round" stroke-width="1.6"/>
    <line id="Línea_4072" data-name="Línea 4072" y1="3.655" transform="translate(37.463 19.852)" fill="none" stroke="#95a6b1" stroke-linecap="round" stroke-linejoin="round" stroke-width="1.6"/>
  </g>
</svg>
