<?xml version="1.0" encoding="utf-8"?>
<!-- Generator: Adobe Illustrator 24.0.2, SVG Export Plug-In . SVG Version: 6.00 Build 0)  -->
<svg version="1.1" xmlns="http://www.w3.org/2000/svg" xmlns:xlink="http://www.w3.org/1999/xlink" x="0px" y="0px"
	 viewBox="0 0 47 47" style="enable-background:new 0 0 47 47;" xml:space="preserve">
<style type="text/css">
	.st0{display:none;}
	.st1{display:inline;fill:#9AA5AF;}
	.st2{fill:none;}
	.st3{fill:#19A500;}
	.st4{fill:#A1D005;}
	.st5{fill:#149352;}
	.st6{fill:none;stroke:#19A500;stroke-width:1.6;stroke-miterlimit:10;}
	.st7{fill:none;stroke:#95A6B1;stroke-width:1.6;stroke-linecap:round;stroke-linejoin:round;stroke-miterlimit:10;}
	.st8{fill:none;stroke:#95A6B1;stroke-width:1.65;stroke-linecap:round;stroke-linejoin:round;stroke-miterlimit:10;}
	.st9{fill:none;stroke:#95A6B1;stroke-width:4;stroke-linecap:round;stroke-linejoin:round;stroke-miterlimit:10;}
	.st10{fill:none;stroke:#EFEF00;stroke-width:1.2;stroke-miterlimit:10;}
	.st11{fill:none;stroke:#FFFFFF;stroke-width:1.1037;stroke-linecap:round;stroke-linejoin:round;stroke-miterlimit:10;}
	.st12{fill:none;stroke:#95A6B1;stroke-width:1.2;stroke-linecap:round;stroke-linejoin:round;stroke-miterlimit:10;}
	.st13{fill:none;stroke:#19A500;stroke-width:1.2;stroke-miterlimit:10;}
	.st14{fill:none;stroke:#EFEF00;stroke-width:1.6;stroke-miterlimit:10;}
	.st15{fill:none;stroke:#FFFFFF;stroke-width:1.6;stroke-linecap:round;stroke-linejoin:round;stroke-miterlimit:10;}
	.st16{fill:none;stroke:#95A6B1;stroke-width:1.2589;stroke-linecap:round;stroke-linejoin:round;stroke-miterlimit:10;}
	.st17{fill:none;stroke:#95A6B1;stroke-width:1.0718;stroke-linecap:round;stroke-linejoin:round;stroke-miterlimit:10;}
	.st18{fill:none;stroke:#95A6B1;stroke-width:1.2212;stroke-linecap:round;stroke-linejoin:round;stroke-miterlimit:10;}
	.st19{fill:none;stroke:#95A6B1;stroke-width:1.2408;stroke-linecap:round;stroke-linejoin:round;stroke-miterlimit:10;}
	.st20{fill:none;stroke:#95A6B1;stroke-width:1.2;stroke-linecap:round;stroke-linejoin:round;}
	.st21{fill:none;stroke:#95A6B1;stroke-width:1.2;stroke-linecap:round;stroke-linejoin:round;stroke-dasharray:1.6013,3.2026;}
	.st22{fill:none;stroke:#95A6B1;stroke-width:1.2;stroke-linecap:round;stroke-linejoin:round;stroke-dasharray:1.7413,3.4827;}
	.st23{fill:none;stroke:#95A6B1;stroke-width:1.2;stroke-linecap:round;stroke-linejoin:round;stroke-dasharray:2.056,4.112;}
	.st24{fill:none;stroke:#95A6B1;stroke-width:1.2275;stroke-linecap:round;stroke-linejoin:round;stroke-miterlimit:10;}
	.st25{fill:none;stroke:#95A6B1;stroke-width:1.2565;stroke-linecap:round;stroke-linejoin:round;stroke-miterlimit:10;}
	.st26{fill:none;stroke:#95A6B1;stroke-width:1.2892;stroke-linecap:round;stroke-linejoin:round;stroke-miterlimit:10;}
	.st27{fill:none;stroke:#95A6B1;stroke-width:1.3462;stroke-linecap:round;stroke-linejoin:round;stroke-miterlimit:10;}
	.st28{fill:none;stroke:#FFFFFF;stroke-width:1.5;stroke-linecap:round;stroke-linejoin:round;}
	.st29{fill:none;stroke:#95A6B1;stroke-width:1.5;stroke-linecap:round;stroke-linejoin:round;stroke-miterlimit:10;}
	.st30{fill:none;stroke:#19A500;stroke-width:1.5;stroke-linecap:round;stroke-linejoin:round;stroke-miterlimit:10;}
	.st31{fill:none;stroke:#00A800;stroke-width:1.6;stroke-linecap:round;stroke-linejoin:round;stroke-miterlimit:10;}
</style>
<g id="Capa_2" class="st0">
</g>
<g id="Capa_1">
	<rect y="-6.5" class="st2" width="60" height="60"/>
	<rect x="0" y="-6.5" class="st2" width="60" height="60"/>
	<g>
		<g>
			<path class="st31" d="M40.28,12.98c0.34,0.74,0.36,1.55,0.12,2.27c-0.26,0.79-0.84,1.48-1.66,1.85
				c-1.56,0.71-3.41,0.03-4.12-1.54c-0.71-1.56-0.03-3.41,1.54-4.12S39.56,11.41,40.28,12.98z"/>
		</g>
		<g>
			<g>
				<g>
					
						<rect x="6.56" y="23.48" transform="matrix(-1 -4.724810e-11 4.724810e-11 -1 46.9943 56.5906)" class="st7" width="33.88" height="9.63"/>
					
						<rect x="3.29" y="22.81" transform="matrix(-1 -7.076618e-11 7.076618e-11 -1 9.8511 56.5906)" class="st7" width="3.26" height="10.97"/>
					
						<rect x="40.44" y="22.81" transform="matrix(-1 -7.076618e-11 7.076618e-11 -1 84.1489 56.5906)" class="st7" width="3.26" height="10.97"/>
					<line class="st7" x1="13.91" y1="33.11" x2="13.91" y2="29.93"/>
					<g>
						<line class="st7" x1="18.14" y1="28.32" x2="28.75" y2="28.32"/>
						<polyline class="st7" points="26.36,25.82 28.86,28.32 26.36,30.81 						"/>
					</g>
				</g>
				<g>
					<rect id="Rectángulo_5166_1_" x="13.89" y="17.92" class="st7" width="7.21" height="5.57"/>
					<rect id="Rectángulo_5167_1_" x="15.72" y="14.57" class="st7" width="3.56" height="3.34"/>
					<path id="Rectángulo_5168_1_" class="st7" d="M12.84,8.89h9.32c0.44,0,0.8,0.48,0.8,1.08v0.25c0,0.59-0.36,1.08-0.8,1.08
						h-9.32c-0.44,0-0.8-0.48-0.8-1.08V9.96C12.04,9.37,12.4,8.89,12.84,8.89z"/>
					<line id="Línea_2909_1_" class="st7" x1="15.72" y1="14.57" x2="12.84" y2="11.29"/>
					<line id="Línea_2910_1_" class="st7" x1="19.28" y1="14.57" x2="22.16" y2="11.29"/>
				</g>
			</g>
			
				<rect x="12.27" y="33.11" transform="matrix(-1 -7.076618e-11 7.076618e-11 -1 27.804 75.1854)" class="st7" width="3.26" height="8.97"/>
			
				<rect x="31.1" y="33.11" transform="matrix(-1 -7.076618e-11 7.076618e-11 -1 65.4556 75.1854)" class="st7" width="3.26" height="8.97"/>
		</g>
		<line class="st7" x1="4.08" y1="42.08" x2="42.92" y2="42.08"/>
		<path class="st7" d="M37.46,8.9V8.09c0-1.75-1.42-3.16-3.16-3.16h-3.6c-1.75,0-3.16,1.42-3.16,3.16v15.35"/>
		<line class="st7" x1="37.46" y1="23.51" x2="37.46" y2="19.85"/>
	</g>
</g>
</svg>
