<svg id="Grupo_19562" data-name="Grupo 19562" xmlns="http://www.w3.org/2000/svg" width="65" height="65" viewBox="0 0 65 65">
  <g id="Grupo_14998" data-name="Grupo 14998">
    <rect id="Rectángulo_3799-2" data-name="Rectángulo 3799-2" width="65" height="65" transform="translate(0 0)" fill="none"/>
  </g>
  <g id="Grupo_18841" data-name="Grupo 18841">
    <g id="Grupo_18840" data-name="Grupo 18840">
      <rect id="Rectángulo_5590" data-name="Rectángulo 5590" width="65" height="16.741" transform="translate(0 48.259)" fill="none"/>
      <g id="Grupo_18839" data-name="Grupo 18839">
        <line id="Línea_4029" data-name="Línea 4029" x2="7.167" transform="translate(38.214 60.119)" fill="none" stroke="#4da12e" stroke-linecap="round" stroke-linejoin="round" stroke-width="2.4"/>
        <line id="Línea_4030" data-name="Línea 4030" x2="0.581" transform="translate(52.528 60.119)" fill="none" stroke="#4da12e" stroke-linecap="round" stroke-linejoin="round" stroke-width="2.4"/>
        <line id="Línea_4031" data-name="Línea 4031" x2="7.101" transform="translate(11.891 60.119)" fill="none" stroke="#4da12e" stroke-linecap="round" stroke-linejoin="round" stroke-width="2.4"/>
        <line id="Línea_4032" data-name="Línea 4032" x2="12.517" transform="translate(18.529 60.119)" fill="none" stroke="#96d200" stroke-linecap="round" stroke-linejoin="round" stroke-width="2.4"/>
        <line id="Línea_4033" data-name="Línea 4033" x2="23.582" transform="translate(11.891 54.012)" fill="none" stroke="#96d200" stroke-linecap="round" stroke-linejoin="round" stroke-width="2.4"/>
        <line id="Línea_4034" data-name="Línea 4034" x2="18.363" transform="translate(34.746 54.012)" fill="none" stroke="#4da12e" stroke-linecap="round" stroke-linejoin="round" stroke-width="2.4"/>
        <line id="Línea_4035" data-name="Línea 4035" x2="0.429" transform="translate(11.891 54.012)" fill="none" stroke="#4da12e" stroke-linecap="round" stroke-linejoin="round" stroke-width="2.4"/>
      </g>
    </g>
  </g>
  <g id="Grupo_18848" data-name="Grupo 18848">
    <g id="Grupo_18847" data-name="Grupo 18847">
      <line id="Línea_4036" data-name="Línea 4036" x2="51.399" transform="translate(7.13 49.247)" fill="none" stroke="#95a6b1" stroke-linecap="round" stroke-linejoin="round" stroke-width="1.6"/>
      <path id="Trazado_19145" data-name="Trazado 19145" d="M10.831,14.58V12.427a3.115,3.115,0,0,1,3.116-3.115h3.618a3.115,3.115,0,0,1,3.115,3.115V49.013" fill="none" stroke="#95a6b1" stroke-linecap="round" stroke-linejoin="round" stroke-width="1.6"/>
      <line id="Línea_4037" data-name="Línea 4037" y1="19.011" transform="translate(10.831 30.231)" fill="none" stroke="#95a6b1" stroke-linecap="round" stroke-linejoin="round" stroke-width="1.6"/>
      <path id="Trazado_19146" data-name="Trazado 19146" d="M39.691,49.166V34.682a3,3,0,0,1,3-3h9.117a3,3,0,0,1,3,3v14.56" fill="none" stroke="#95a6b1" stroke-linecap="round" stroke-linejoin="round" stroke-width="1.6"/>
      <path id="Trazado_19147" data-name="Trazado 19147" d="M35.95,49.166V28.192a3,3,0,0,1,3-3h5.223a3,3,0,0,1,3,3v3.337" fill="none" stroke="#95a6b1" stroke-linecap="round" stroke-linejoin="round" stroke-width="1.6"/>
      <path id="Trazado_19148" data-name="Trazado 19148" d="M20.68,15.42h1.371a2.6,2.6,0,0,1,2.6,2.6v31" fill="none" stroke="#95a6b1" stroke-linecap="round" stroke-linejoin="round" stroke-width="1.6"/>
      <path id="Trazado_19149" data-name="Trazado 19149" d="M20.908,31.071h7.023a2.293,2.293,0,0,1,2.293,2.293V41.07a2.292,2.292,0,0,0,2.293,2.293h6.922" fill="none" stroke="#95a6b1" stroke-linecap="round" stroke-linejoin="round" stroke-width="1.6"/>
      <path id="Trazado_19150" data-name="Trazado 19150" d="M49.775,40.65l-2.1-4.343L45.729,40.65a4.58,4.58,0,0,0-.409,1.407,2.422,2.422,0,0,0,4.844,0A4.754,4.754,0,0,0,49.775,40.65Z" fill="none" stroke="#95a6b1" stroke-linecap="round" stroke-linejoin="round" stroke-width="1.6"/>
      <line id="Línea_4038" data-name="Línea 4038" y2="5.998" transform="translate(41.907 18.907)" fill="none" stroke="#95a6b1" stroke-linecap="round" stroke-linejoin="round" stroke-width="1.6"/>
      <path id="Rectángulo_5591" data-name="Rectángulo 5591" d="M5.153,0H25.337a0,0,0,0,1,0,0V11.275a5.153,5.153,0,0,1-5.153,5.153H0a0,0,0,0,1,0,0V5.153A5.153,5.153,0,0,1,5.153,0Z" transform="translate(29.238 2.454)" fill="none" stroke="#95a6b1" stroke-linecap="round" stroke-linejoin="round" stroke-width="1.6"/>
      <path id="Trazado_11848" data-name="Trazado 11848" d="M14.989,22.288A4.183,4.183,0,1,1,10.806,18.1h0a4.168,4.168,0,0,1,4.183,4.151Z" fill="none" stroke="#19a500" stroke-linecap="round" stroke-linejoin="round" stroke-width="1.6"/>
      <g id="Grupo_18846" data-name="Grupo 18846">
        <g id="Grupo_18845" data-name="Grupo 18845">
          <path id="Trazado_12473" data-name="Trazado 12473" d="M36.864,7.513" fill="none" stroke="#95a6b1" stroke-linecap="round" stroke-linejoin="round" stroke-width="1.6"/>
          <path id="Trazado_12473-2" data-name="Trazado 12473" d="M37.156,7.513a2.123,2.123,0,0,0-2.118-2.118h-.16a2.209,2.209,0,0,0-2.117,2.214V13.94a2.124,2.124,0,0,0,2.117,2.117h.16a2.124,2.124,0,0,0,2.118-2.117V10.747H35.474" fill="none" stroke="#95a6b1" stroke-linecap="round" stroke-linejoin="round" stroke-width="1.6"/>
          <g id="Grupo_18842" data-name="Grupo 18842">
            <path id="Trazado_19151" data-name="Trazado 19151" d="M50.97,8.831V7.582a2.1,2.1,0,0,0-2.118-2.088h-.16a2.1,2.1,0,0,0-2.117,2.088V8.831" fill="none" stroke="#95a6b1" stroke-linecap="round" stroke-linejoin="round" stroke-width="1.6"/>
            <line id="Línea_4039" data-name="Línea 4039" y2="7.238" transform="translate(46.574 8.831)" fill="none" stroke="#95a6b1" stroke-linecap="round" stroke-linejoin="round" stroke-width="1.6"/>
            <line id="Línea_4040" data-name="Línea 4040" y2="1.08" transform="translate(46.574 7.751)" fill="none" stroke="#95a6b1" stroke-linecap="round" stroke-linejoin="round" stroke-width="1.6"/>
            <line id="Línea_4041" data-name="Línea 4041" y2="7.238" transform="translate(50.977 8.831)" fill="none" stroke="#95a6b1" stroke-linecap="round" stroke-linejoin="round" stroke-width="1.6"/>
            <line id="Línea_4042" data-name="Línea 4042" y2="1.08" transform="translate(50.977 7.751)" fill="none" stroke="#95a6b1" stroke-linecap="round" stroke-linejoin="round" stroke-width="1.6"/>
            <line id="Línea_4043" data-name="Línea 4043" x2="4.412" transform="translate(46.565 10.738)" fill="none" stroke="#95a6b1" stroke-linecap="round" stroke-linejoin="round" stroke-width="1.6"/>
          </g>
          <g id="Grupo_18844" data-name="Grupo 18844">
            <line id="Línea_4044" data-name="Línea 4044" y1="7.538" transform="translate(39.7 8.528)" fill="none" stroke="#95a6b1" stroke-linecap="round" stroke-linejoin="round" stroke-width="1.6"/>
            <g id="Grupo_18843" data-name="Grupo 18843">
              <path id="Rectángulo_5592" data-name="Rectángulo 5592" d="M2.118,0h.16A2.118,2.118,0,0,1,4.4,2.118V3.177A2.278,2.278,0,0,1,2.118,5.455H0a0,0,0,0,1,0,0V2.118A2.118,2.118,0,0,1,2.118,0Z" transform="translate(39.701 5.491)" fill="none" stroke="#95a6b1" stroke-linecap="round" stroke-linejoin="round" stroke-width="1.6"/>
              <line id="Línea_4045" data-name="Línea 4045" x1="4.383" y1="5.122" transform="translate(39.701 10.946)" fill="none" stroke="#95a6b1" stroke-linecap="round" stroke-linejoin="round" stroke-width="1.6"/>
            </g>
          </g>
        </g>
      </g>
    </g>
  </g>
</svg>
