<?xml version="1.0" encoding="utf-8"?>
<!-- Generator: Adobe Illustrator 24.0.2, SVG Export Plug-In . SVG Version: 6.00 Build 0)  -->
<svg version="1.1" xmlns="http://www.w3.org/2000/svg" xmlns:xlink="http://www.w3.org/1999/xlink" x="0px" y="0px"
	 viewBox="0 0 65 65" style="enable-background:new 0 0 65 65;" xml:space="preserve">
<style type="text/css">
	.st0{display:none;}
	.st1{display:inline;fill:#9AA5AF;}
	.st2{fill:none;}
	.st3{fill:#4DA12E;}
	.st4{fill:#96D200;}
	.st5{fill:#95A6B1;stroke:#95A6B1;stroke-width:1.6;stroke-linecap:round;stroke-linejoin:round;stroke-miterlimit:10;}
	.st6{fill:none;stroke:#95A6B1;stroke-width:1.6;stroke-linecap:round;stroke-linejoin:round;stroke-miterlimit:10;}
	.st7{fill:none;stroke:#19A500;stroke-width:1.6;stroke-linecap:round;stroke-linejoin:round;stroke-miterlimit:10;}
	.st8{fill:none;stroke:#95A6B1;stroke-width:1.6;stroke-linecap:round;stroke-linejoin:round;}
	.st9{fill:#4C9F2E;}
	.st10{fill:#94D040;}
	.st11{fill:none;stroke:#00A800;stroke-width:1.6;stroke-linecap:round;stroke-linejoin:round;stroke-miterlimit:10;}
	.st12{fill:#FFFFFF;stroke:#95A6B1;stroke-width:1.6;stroke-linecap:round;stroke-linejoin:round;stroke-miterlimit:10;}
</style>
<g id="Capa_2" class="st0">
</g>
<g id="Capa_1">
	<g>
		<g>
			<g>
				<g>
					<rect y="48.26" class="st2" width="65" height="16.74"/>
				</g>
				<g>
					<g>
						<path class="st9" d="M45.38,61.32h-7.17c-0.66,0-1.2-0.54-1.2-1.2s0.54-1.2,1.2-1.2h7.17c0.66,0,1.2,0.54,1.2,1.2
							S46.04,61.32,45.38,61.32z"/>
					</g>
					<g>
						<path class="st9" d="M53.11,61.32h-0.58c-0.66,0-1.2-0.54-1.2-1.2s0.54-1.2,1.2-1.2h0.58c0.66,0,1.2,0.54,1.2,1.2
							S53.77,61.32,53.11,61.32z"/>
					</g>
					<g>
						<path class="st9" d="M18.99,61.32h-7.1c-0.66,0-1.2-0.54-1.2-1.2s0.54-1.2,1.2-1.2h7.1c0.66,0,1.2,0.54,1.2,1.2
							S19.65,61.32,18.99,61.32z"/>
					</g>
					<g>
						<path class="st10" d="M31.05,61.32H18.53c-0.66,0-1.2-0.54-1.2-1.2s0.54-1.2,1.2-1.2h12.52c0.66,0,1.2,0.54,1.2,1.2
							S31.71,61.32,31.05,61.32z"/>
					</g>
					<g>
						<path class="st10" d="M35.47,55.21H11.89c-0.66,0-1.2-0.54-1.2-1.2s0.54-1.2,1.2-1.2h23.58c0.66,0,1.2,0.54,1.2,1.2
							S36.14,55.21,35.47,55.21z"/>
					</g>
					<g>
						<path class="st9" d="M53.11,55.21H34.75c-0.66,0-1.2-0.54-1.2-1.2s0.54-1.2,1.2-1.2h18.36c0.66,0,1.2,0.54,1.2,1.2
							S53.77,55.21,53.11,55.21z"/>
					</g>
					<g>
						<path class="st9" d="M12.32,55.21h-0.43c-0.66,0-1.2-0.54-1.2-1.2s0.54-1.2,1.2-1.2h0.43c0.66,0,1.2,0.54,1.2,1.2
							S12.98,55.21,12.32,55.21z"/>
					</g>
				</g>
			</g>
		</g>
		<g>
			<path class="st11" d="M15.94,19.98c0.34,0.74,0.36,1.55,0.12,2.27c-0.26,0.79-0.84,1.48-1.66,1.85
				c-1.56,0.71-3.41,0.03-4.12-1.54c-0.71-1.56-0.03-3.41,1.54-4.12C13.38,17.73,15.23,18.42,15.94,19.98z"/>
			<g>
				<path class="st8" d="M60.88,47.6c-3.1,0-3.1-3.1-6.19-3.1c-3.1,0-3.1,3.1-6.19,3.1s-3.1-3.1-6.19-3.1c-3.1,0-3.1,3.1-6.19,3.1
					c-3.1,0-3.1-3.1-6.19-3.1c-3.1,0-3.1,3.1-6.19,3.1c-3.1,0-3.1-3.1-6.2-3.1c-3.1,0-3.1,3.1-6.2,3.1s-3.1-3.1-6.2-3.1"/>
			</g>
			<line class="st6" x1="19.66" y1="41.68" x2="13.5" y2="41.68"/>
			<line class="st8" x1="40.87" y1="29.9" x2="40.87" y2="29.9"/>
			<polyline class="st8" points="13.36,26.65 13.36,29.9 32.93,29.9 			"/>
			<path class="st8" d="M40.87,29.9h3.28v-9.8c0-0.67-0.55-1.22-1.22-1.22H18.39"/>
			<path class="st8" d="M25.52,14.14h-6.11c-0.64,0-1.16,0.52-1.16,1.16v3.58h7.42"/>
			<line class="st6" x1="21.02" y1="22.99" x2="43.7" y2="22.99"/>
			<path class="st8" d="M32.93,29.91H10.89c-0.77,0-1.39,0.62-1.39,1.39v15.84"/>
			<path class="st8" d="M56.29,44.6V31.11c0-0.66-0.54-1.2-1.2-1.2L40.87,29.9"/>
			<line class="st8" x1="23.64" y1="33.65" x2="9.5" y2="33.66"/>
			<line class="st12" x1="19.66" y1="33.64" x2="19.66" y2="44.97"/>
			<line class="st6" x1="19.66" y1="37.31" x2="13.5" y2="37.31"/>
			<line class="st6" x1="13.48" y1="33.64" x2="13.48" y2="46.57"/>
			<line class="st8" x1="23.64" y1="29.9" x2="23.64" y2="46.42"/>
			<polyline class="st6" points="32.93,29.93 32.91,35.99 40.86,35.99 40.86,29.92 			"/>
			<line class="st6" x1="22.03" y1="14.14" x2="22.03" y2="18.88"/>
			<line class="st8" x1="46.3" y1="29.92" x2="46.3" y2="36.4"/>
			<line class="st8" x1="50.86" y1="29.92" x2="50.86" y2="36.4"/>
			<line class="st8" x1="28.28" y1="29.92" x2="28.28" y2="36.4"/>
		</g>
		<rect class="st2" width="65" height="65"/>
	</g>
	<g>
		<path class="st6" d="M56.86,2.45h-25.7c-2.85,0-5.15,2.31-5.15,5.15v11.28h25.7c2.85,0,5.15-2.31,5.15-5.15V2.45z"/>
		<g>
			<polyline class="st8" points="36.69,5.49 36.69,15.96 40.26,15.96 			"/>
			<line class="st8" x1="32.49" y1="5.94" x2="32.49" y2="15.96"/>
			<line class="st8" x1="30.06" y1="5.49" x2="34.69" y2="5.49"/>
			<g>
				<path class="st6" d="M41.69,12.62v1.25c0,1.16,0.95,2.09,2.12,2.09h0.16c1.16,0,2.12-0.92,2.12-2.09v-1.25"/>
				<line class="st6" x1="46.08" y1="12.62" x2="46.08" y2="5.38"/>
				<line class="st6" x1="46.08" y1="13.7" x2="46.08" y2="12.62"/>
				<line class="st6" x1="41.68" y1="12.62" x2="41.68" y2="5.38"/>
				<line class="st6" x1="41.68" y1="13.7" x2="41.68" y2="12.62"/>
			</g>
			<path class="st6" d="M48.23,7.44c0-1.13,0.93-2.06,2.06-2.06h0.25c1.15,0,2.08,0.94,2.08,2.08v0c0,1.3-0.55,2.29-1.18,3.26
				l-3.22,5.23h2.31h2.08"/>
		</g>
	</g>
</g>
</svg>
