<?xml version="1.0" encoding="utf-8"?>
<!-- Generator: Adobe Illustrator 24.0.2, SVG Export Plug-In . SVG Version: 6.00 Build 0)  -->
<svg version="1.1" xmlns="http://www.w3.org/2000/svg" xmlns:xlink="http://www.w3.org/1999/xlink" x="0px" y="0px"
	 viewBox="0 0 65 65" style="enable-background:new 0 0 65 65;" xml:space="preserve">
<style type="text/css">
	.st0{display:none;}
	.st1{display:inline;fill:#9AA5AF;}
	.st2{fill:none;}
	.st3{fill:#4DA12E;}
	.st4{fill:#96D200;}
	.st5{fill:#95A6B1;stroke:#95A6B1;stroke-width:1.6;stroke-linecap:round;stroke-linejoin:round;stroke-miterlimit:10;}
	.st6{fill:none;stroke:#95A6B1;stroke-width:1.6;stroke-linecap:round;stroke-linejoin:round;stroke-miterlimit:10;}
	.st7{fill:none;stroke:#19A500;stroke-width:1.6;stroke-linecap:round;stroke-linejoin:round;stroke-miterlimit:10;}
	.st8{fill:none;stroke:#95A6B1;stroke-width:1.6;stroke-linecap:round;stroke-linejoin:round;}
	.st9{fill:#4C9F2E;}
	.st10{fill:#94D040;}
	.st11{fill:none;stroke:#00A800;stroke-width:1.6;stroke-linecap:round;stroke-linejoin:round;stroke-miterlimit:10;}
	.st12{fill:#FFFFFF;stroke:#95A6B1;stroke-width:1.6;stroke-linecap:round;stroke-linejoin:round;stroke-miterlimit:10;}
</style>
<g id="Capa_2" class="st0">
</g>
<g id="Capa_1">
	<g>
		<g>
			<g>
				<g>
					<rect y="48.26" class="st2" width="65" height="16.74"/>
				</g>
				<g>
					<g>
						<path class="st3" d="M45.38,61.32h-7.17c-0.66,0-1.2-0.54-1.2-1.2s0.54-1.2,1.2-1.2h7.17c0.66,0,1.2,0.54,1.2,1.2
							S46.04,61.32,45.38,61.32z"/>
					</g>
					<g>
						<path class="st3" d="M53.11,61.32h-0.58c-0.66,0-1.2-0.54-1.2-1.2s0.54-1.2,1.2-1.2h0.58c0.66,0,1.2,0.54,1.2,1.2
							S53.77,61.32,53.11,61.32z"/>
					</g>
					<g>
						<path class="st3" d="M18.99,61.32h-7.1c-0.66,0-1.2-0.54-1.2-1.2s0.54-1.2,1.2-1.2h7.1c0.66,0,1.2,0.54,1.2,1.2
							S19.65,61.32,18.99,61.32z"/>
					</g>
					<g>
						<path class="st4" d="M31.05,61.32H18.53c-0.66,0-1.2-0.54-1.2-1.2s0.54-1.2,1.2-1.2h12.52c0.66,0,1.2,0.54,1.2,1.2
							S31.71,61.32,31.05,61.32z"/>
					</g>
					<g>
						<path class="st4" d="M35.47,55.21H11.89c-0.66,0-1.2-0.54-1.2-1.2s0.54-1.2,1.2-1.2h23.58c0.66,0,1.2,0.54,1.2,1.2
							S36.14,55.21,35.47,55.21z"/>
					</g>
					<g>
						<path class="st3" d="M53.11,55.21H34.75c-0.66,0-1.2-0.54-1.2-1.2s0.54-1.2,1.2-1.2h18.36c0.66,0,1.2,0.54,1.2,1.2
							S53.77,55.21,53.11,55.21z"/>
					</g>
					<g>
						<path class="st3" d="M12.32,55.21h-0.43c-0.66,0-1.2-0.54-1.2-1.2s0.54-1.2,1.2-1.2h0.43c0.66,0,1.2,0.54,1.2,1.2
							S12.98,55.21,12.32,55.21z"/>
					</g>
				</g>
			</g>
		</g>
		<g>
			<g>
				<g>
					<line class="st5" x1="7.13" y1="49.25" x2="58.53" y2="49.25"/>
					<path class="st6" d="M10.83,14.58v-2.15c0-1.72,1.39-3.12,3.12-3.12h3.62c1.72,0,3.12,1.39,3.12,3.12v36.59"/>
					<line class="st6" x1="10.83" y1="49.24" x2="10.83" y2="30.23"/>
					<path class="st6" d="M39.69,49.17V34.68c0-1.66,1.34-3,3-3h9.12c1.66,0,3,1.34,3,3v14.56"/>
					<path class="st6" d="M35.95,49.17V28.19c0-1.66,1.34-3,3-3h5.22c1.66,0,3,1.34,3,3v3.34"/>
					<path class="st6" d="M20.68,15.42h1.37c1.44,0,2.6,1.16,2.6,2.6v31"/>
					<path class="st6" d="M20.91,31.07h7.02c1.27,0,2.29,1.03,2.29,2.29v7.71c0,1.27,1.03,2.29,2.29,2.29h6.92"/>
					<path class="st6" d="M49.77,40.65l-2.1-4.34l-1.94,4.34c0,0-0.41,0.88-0.41,1.41c0,1.34,1.08,2.42,2.42,2.42
						c1.34,0,2.42-1.08,2.42-2.42C50.16,41.53,49.77,40.65,49.77,40.65z"/>
					<line class="st6" x1="41.91" y1="18.91" x2="41.91" y2="24.9"/>
					<path class="st6" d="M54.58,2.45H34.39c-2.85,0-5.15,2.31-5.15,5.15v11.28h20.18c2.85,0,5.15-2.31,5.15-5.15V2.45z"/>
					<path id="Trazado_11848_9_" class="st7" d="M14.99,22.29c0,2.31-1.87,4.18-4.18,4.18c-2.31,0-4.18-1.87-4.18-4.18
						s1.87-4.18,4.18-4.18h0c2.3-0.01,4.17,1.85,4.18,4.15C14.99,22.27,14.99,22.28,14.99,22.29z"/>
					<g>
						<path id="Trazado_12473" class="st8" d="M37.79,7.51c0-1.17-0.95-2.11-2.12-2.12h-0.16c-1.17,0-2.11,1.05-2.12,2.21v6.33
							c0,1.17,0.95,2.11,2.12,2.12h0.16c1.17,0,2.11-0.95,2.12-2.12"/>
						<path id="Trazado_12473_6_" class="st8" d="M44.5,13.94c0,1.17-0.95,2.11-2.12,2.12h-0.16c-1.17,0-2.11-0.95-2.12-2.12V7.61
							c0-1.17,0.95-2.21,2.12-2.21h0.16c1.17,0,2.11,0.95,2.12,2.12V13.94z"/>
						<path id="Trazado_18071_1_" class="st8" d="M46.55,5.52l2.23,10.59l2.11-10.59"/>
					</g>
				</g>
			</g>
			<rect id="Rectángulo_3799-2_7_" class="st2" width="65" height="65"/>
		</g>
	</g>
	<line class="st6" x1="41.91" y1="18.91" x2="41.91" y2="24.9"/>
	<path class="st6" d="M54.58,2.45H34.39c-2.85,0-5.15,2.31-5.15,5.15v11.28h20.18c2.85,0,5.15-2.31,5.15-5.15V2.45z"/>
	<g>
		<path id="Trazado_12473_4_" class="st8" d="M37.79,7.51c0-1.17-0.95-2.11-2.12-2.12h-0.16c-1.17,0-2.11,1.05-2.12,2.21v6.33
			c0,1.17,0.95,2.11,2.12,2.12h0.16c1.17,0,2.11-0.95,2.12-2.12"/>
		<path id="Trazado_12473_1_" class="st8" d="M44.5,13.94c0,1.17-0.95,2.11-2.12,2.12h-0.16c-1.17,0-2.11-0.95-2.12-2.12V7.61
			c0-1.17,0.95-2.21,2.12-2.21h0.16c1.17,0,2.11,0.95,2.12,2.12V13.94z"/>
		<path id="Trazado_18071_2_" class="st8" d="M46.55,5.52l2.23,10.59l2.11-10.59"/>
	</g>
</g>
</svg>
