<svg version="1.1" id="Capa_1" xmlns="http://www.w3.org/2000/svg" x="0" y="0" viewBox="0 0 47 47" xml:space="preserve"><style>.st1{fill:#fff}</style><path fill="none" d="M0 0h47v47H0z"/><path class="st1" d="M32.1 15.4c-.2 0-.4 0-.5-.2-.3-.3-.3-.7-.1-1l1.6-1.7c.1-.2.3-.3.5-.3h8.8c.4-.1.7.2.8.6v.2c0 .4-.3.7-.7.7H34l-1.3 1.5-.6.2zM4.6 41.5h-.4c-.4-.2-.5-.6-.3-.9v-.1l7.7-14.3c0-.3.3-.5.6-.4h9l2.7-3c.3-.3.7-.3 1.1-.1.3.3.3.7 0 1.1L22.1 27c-.1.2-.4.3-.6.3h-8.8L5.2 41.1c-.1.2-.3.4-.6.4z"/><path class="st1" d="M12.2 26.5c-.2 0-.4-.1-.6-.3-.7-.9-6.9-9.4-6.9-13.2 0-4.1 3.4-7.5 7.5-7.5s7.5 3.4 7.5 7.5c0 3.8-6.2 12.3-6.9 13.2-.1.2-.4.3-.6.3zm0-19.5c-3.3 0-6 2.7-6 6 0 2.6 3.9 8.6 6 11.5 2.1-2.9 6-8.9 6-11.5 0-1.6-.6-3.1-1.8-4.2C15.3 7.6 13.8 7 12.2 7z"/><path class="st1" d="M12.2 16c-1.7 0-3-1.3-3-3s1.3-3 3-3 3 1.3 3 3c.1 1.6-1.2 2.9-2.8 3h-.2zm0-4.4c-.8 0-1.4.6-1.4 1.4 0 .8.6 1.4 1.4 1.5.8 0 1.5-.7 1.5-1.5-.1-.8-.7-1.4-1.5-1.4zM28 22.3c-1.8 0-3.3-1.5-3.3-3.3s1.5-3.3 3.3-3.3c1.8 0 3.3 1.5 3.3 3.3.1 1.8-1.3 3.3-3.1 3.3H28zm0-5c-.9 0-1.6.7-1.6 1.6 0 .9.7 1.6 1.6 1.7.9 0 1.7-.7 1.7-1.7-.1-.9-.8-1.6-1.7-1.6z"/></svg>