<svg xmlns="http://www.w3.org/2000/svg" viewBox="0 0 64 64"><defs><style>.cls-1{fill:#fff}</style></defs><g id="Capa_1" data-name="Capa 1"><path class="cls-1" d="M52.8 46.1a2.2 2.2 0 01-1.1-.2 2.4 2.4 0 01-1.3-1.5 2.5 2.5 0 01.1-1.9 2.6 2.6 0 013.4-1.3 2.7 2.7 0 011.3 3.4 2.6 2.6 0 01-2.4 1.5zm-.7-2.9a.6.6 0 000 .6.7.7 0 00.4.5.6.6 0 00.6 0 .8.8 0 00.4-.4.7.7 0 00-.4-1 .8.8 0 00-1 .3zm3.3 11.9a.9.9 0 01-.9-.9v-5.7h-17v5.7a.9.9 0 11-1.8 0v-6.6a.9.9 0 01.9-.9h18.8a.9.9 0 01.9.9v6.6a.9.9 0 01-.9.9z"/><path class="cls-1" d="M40.3 51.5a.9.9 0 01-.9-.9v-2.9a.9.9 0 011.8 0v2.9a.9.9 0 01-.9.9zm-3.7-1.1a.9.9 0 01-.9-.9v-1.8a.9.9 0 011.8 0v1.8a.9.9 0 01-.9.9z"/><path class="cls-1" d="M56.8 51.8H35.2a.9.9 0 110-1.8h21.6a.9.9 0 010 1.8zm-3.9-11.4a.9.9 0 01-.9-.9v-1a.4.4 0 00-.4-.4h-2.1a.9.9 0 110-1.8h2.1a2.2 2.2 0 012.2 2.2v1a.9.9 0 01-.9.9z"/><path class="cls-1" d="M48.2 51.5a.9.9 0 01-.9-.9V38.5a2.2 2.2 0 012.2-2.2.9.9 0 110 1.8.4.4 0 00-.4.4v12.1a1 1 0 01-.9.9z"/><path class="cls-1" d="M44.8 51.5a.9.9 0 01-.9-.9v-7a2.7 2.7 0 012.5-2.7H48a.9.9 0 010 1.8h-1.6a.8.8 0 00-.7.9v7a.9.9 0 01-.9.9zm8.1 0a.9.9 0 01-.9-.9v-2.9a.9.9 0 011.8 0v2.9a.9.9 0 01-.9.9z"/><path class="cls-1" d="M29.2 55.3h-2.8a.9.9 0 010-1.8h2.8a.9.9 0 110 1.8zm-5.5 0h-2.8a.9.9 0 010-1.8h2.8a.9.9 0 110 1.8zm-5.5 0h-1.3a5.7 5.7 0 01-1.8-.3 1 1 0 01-.4-1.2.8.8 0 011.1-.5l1.1.2h1.3a.9.9 0 110 1.8zm-4.6-2.2a.8.8 0 01-.8-.6 4 4 0 01-.3-1.5v-1.5a.9.9 0 011.8 0V51a2.9 2.9 0 00.2.9.9.9 0 01-.5 1.1zm-.2-5.5a.9.9 0 01-.9-.9v-2.6a.9.9 0 011.8 0v2.6a.9.9 0 01-.9.9zm1.1-5.1a.7.7 0 01-.6-.3.9.9 0 010-1.3 4.7 4.7 0 013-1.2h.1a.9.9 0 110 1.8h-.1a2.9 2.9 0 00-1.8.7.7.7 0 01-.6.3zm24.5-1h-2.8a.9.9 0 110-1.8H39a.9.9 0 110 1.8zm-5.5 0h-2.8a.9.9 0 110-1.8h2.8a.9.9 0 110 1.8zm-5.5 0h-2.7a.9.9 0 010-1.8H28a.9.9 0 110 1.8zm-5.5 0h-2.7a.9.9 0 110-1.8h2.7a.9.9 0 110 1.8zm19.1-.5a.8.8 0 01-.8-.5 1 1 0 01.4-1.2 3.9 3.9 0 001.7-1.4.8.8 0 011.2-.3.8.8 0 01.3 1.2A6.4 6.4 0 0142 41zm2.8-4.4a.9.9 0 01-.9-.9V33a.9.9 0 111.8 0v2.7a.9.9 0 01-.9.9zm0-5.4a.9.9 0 01-.9-.9v-2.8a.9.9 0 111.8 0v2.8a.9.9 0 01-.9.9zm-.2-5.5a.8.8 0 01-.8-.7 5.7 5.7 0 00-1.2-1.8.9.9 0 011.2-1.4 6.5 6.5 0 011.7 2.7 1.1 1.1 0 01-.6 1.2zm-3.8-3.5h-2.8a.9.9 0 010-1.8h2.9a1.1 1.1 0 01.8 1.1 1 1 0 01-.9.7z" id="Trazado_11701" data-name="Trazado 11701"/><path class="cls-1" d="M57.6 55.3H35a.9.9 0 110-1.8h22.6a.9.9 0 010 1.8zM33.7 20.7H2.4a.9.9 0 010-1.8h31.3a.9.9 0 110 1.8z"/><path class="cls-1" d="M32.5 20a.9.9 0 01-.9-.9c0-6.5-5.8-11.7-13-11.7s-13 5.2-13 11.7a.9.9 0 01-.9.9 1 1 0 01-.9-.9c0-7.5 6.7-13.5 14.8-13.5s14.8 6 14.8 13.5a.9.9 0 01-.9.9zm1.2 4.5H2.4a.9.9 0 010-1.8h31.3a.9.9 0 110 1.8z"/><path class="cls-1" d="M18.6 20.7a.9.9 0 01-.9-.9V6.5a.9.9 0 011.8 0v13.3a.9.9 0 01-.9.9zm-5 0a.9.9 0 01-.9-.9V7.3a.9.9 0 011.8 0v12.5a.9.9 0 01-.9.9zm-5 0a.9.9 0 01-.9-.9v-9.4a.9.9 0 01.9-.9 1 1 0 01.9.9v9.4a1 1 0 01-.9.9zm0 8.8H5.5a.9.9 0 01-.9-.9v-5a.9.9 0 011.8 0v4.1h1.3v-4.1a.9.9 0 01.9-.9 1 1 0 01.9.9v5a1 1 0 01-.9.9zm23.2 0h-3.1a.9.9 0 01-.9-.9v-5a.9.9 0 011.8 0v4.1h1.3v-4.1a.9.9 0 111.8 0v5a.9.9 0 01-.9.9zm-3.1-8.8a.9.9 0 01-.9-.9v-9.4a.9.9 0 011.8 0v9.4a.9.9 0 01-.9.9zm-5 0a.9.9 0 01-.9-.9V7.3a.9.9 0 111.8 0v12.5a.9.9 0 01-.9.9z"/><path fill="none" d="M0 0h64v64H0z"/></g></svg>