<svg version="1.1" id="Capa_1" xmlns="http://www.w3.org/2000/svg" x="0" y="0" viewBox="0 0 47 47" xml:space="preserve"><style>.st1{fill:#fff}</style><path fill="none" d="M0 0h47v47H0z"/><path class="st1" d="M23.6 40.3c-.3 0-.5-.2-.6-.4-.5-.6-11.1-15-11.1-21.2 0-1.1.2-2.2.5-3.3.1-.4.5-.6.9-.5s.6.5.5.9c-.2 1-.4 1.9-.4 2.9 0 4.9 7.9 16.3 10.2 19.5 2.3-3.2 10.2-14.6 10.2-19.5 0-.9-.2-1.9-.4-2.8-1.6-5.4-7.2-8.5-12.6-7-.4.1-.8-.1-.9-.4v-.1c-.1-.4.1-.8.4-.9h.1c2.9-.9 6.1-.5 8.8 1 2.7 1.5 4.8 4 5.6 7 .3 1 .4 2.1.5 3.2 0 6.2-10.7 20.6-11.1 21.2s-.4.4-.6.4z"/><path class="st1" d="M15.6 13.6c-1.7 0-3-1.3-3-3s1.3-3 3-3 3 1.3 3 3c.1 1.6-1.2 2.9-2.8 3h-.2zm0-4.4c-.8 0-1.4.6-1.4 1.4 0 .8.6 1.4 1.4 1.5.8 0 1.5-.7 1.5-1.5-.1-.8-.7-1.4-1.5-1.4zm7.6 14c-2.5 0-4.5-1.9-4.5-4.5s1.9-4.5 4.5-4.5 4.5 1.9 4.5 4.5c.1 2.4-1.8 4.3-4.2 4.5h-.3zm0-6.6c-1.2 0-2.1.9-2.1 2.1 0 1.2.9 2.1 2.1 2.2 1.2 0 2.2-1 2.2-2.2-.1-1.2-1-2.1-2.2-2.1z"/><path class="st1" d="M23.3 23.2c-2.5 0-4.5-1.9-4.5-4.5s1.9-4.5 4.5-4.5 4.5 1.9 4.5 4.5c.1 2.4-1.8 4.3-4.2 4.5h-.3zm0-6.6c-1.2 0-2.1.9-2.1 2.1 0 1.2.9 2.1 2.1 2.2 1.2 0 2.2-1 2.2-2.2-.1-1.2-1-2.1-2.2-2.1z"/></svg>