<svg xmlns="http://www.w3.org/2000/svg" viewBox="0 0 64 64"><defs><style>.cls-2{fill:#fff}</style></defs><g id="Capa_1" data-name="Capa 1"><path fill="none" d="M0 0h64v64H0z"/><path class="cls-2" d="M35.5 52.3h-2.9a.9.9 0 010-1.8h2.9a.9.9 0 110 1.8zm-5.9 0h-3a.9.9 0 010-1.8h3a.9.9 0 010 1.8zm-6 0h-3a.9.9 0 010-1.8h3a.9.9 0 010 1.8zm-5.7-1.1l-.6-.2a4.9 4.9 0 01-1.5-3.4.9.9 0 01.9-.9.9.9 0 01.9.9 3.3 3.3 0 00.9 2.1.7.7 0 010 1.2.9.9 0 01-.6.3zm-1.2-5.7a1 1 0 01-.9-.9v-3a1 1 0 01.9-.9.9.9 0 01.9.9v3a.9.9 0 01-.9.9zm.3-5.9h-.3a.9.9 0 01-.5-1.2 4.6 4.6 0 012.6-2.5.8.8 0 011.1.5.8.8 0 01-.4 1.1 2.8 2.8 0 00-1.6 1.5 1.1 1.1 0 01-.9.6zm26.1-2.4h-3a.9.9 0 010-1.8h3a.9.9 0 010 1.8zm-6 0h-3a.9.9 0 010-1.8h3a.9.9 0 010 1.8zm-6 0h-3a.9.9 0 010-1.8h3a.9.9 0 010 1.8zm-6 0h-3a.9.9 0 010-1.8h3a.9.9 0 010 1.8zm21 0a1 1 0 01-.9-.8.8.8 0 01.7-1 4.9 4.9 0 002.3-1.1.9.9 0 011.2.1.9.9 0 01-.1 1.3 5.7 5.7 0 01-3.1 1.5zm4.3-3.7h-.3a.9.9 0 01-.6-1.1 3.5 3.5 0 00.3-1.4v-1.4a.9.9 0 111.8 0v1.3a5.8 5.8 0 01-.3 1.9 1.1 1.1 0 01-.9.7zm.3-6a.9.9 0 01-.9-.9v-3a.9.9 0 111.8 0v3a.9.9 0 01-.9.9zm-.3-6a1 1 0 01-.9-.6 3.5 3.5 0 00-1.4-2 .9.9 0 011.2-1.4 5.4 5.4 0 011.9 2.8 1 1 0 01-.5 1.2zM46 17.9h-3a.9.9 0 010-1.9h3.1a.8.8 0 01.8 1 1.1 1.1 0 01-.9.9zm-6-.1h-3a.9.9 0 010-1.8h3a.9.9 0 010 1.8z" id="Trazado_11701" data-name="Trazado 11701"/><path class="cls-2" d="M30.7 28.6H7.1a.9.9 0 01-.9-.9V6.2a.9.9 0 01.9-.9h23.6a.9.9 0 01.9.9v7.5a.9.9 0 01-1.8 0V7.1H8v19.7h21.8v-6.5a.9.9 0 011.8 0v7.4a.9.9 0 01-.9.9z"/><path class="cls-2" d="M30.7 21.2l-.6-.2a1 1 0 010-1.3l2.7-2.7-2.7-2.7a1 1 0 010-1.3 1.1 1.1 0 011.3 0l3.3 3.4a.7.7 0 010 1.2L31.4 21zM12.5 21l.6-.2a1.4 1.4 0 00.2-.6h1.3a1.4 1.4 0 01-.3.9 1.4 1.4 0 01-.8.7 1.6 1.6 0 01-1 .2 2.4 2.4 0 01-1.7-.6 2.9 2.9 0 01-.7-1.9 2.9 2.9 0 01.7-1.9 2.1 2.1 0 011.7-.7 2.5 2.5 0 011.5.5 2 2 0 01.6 1.5h-1.3a1.4 1.4 0 00-.2-.7l-.6-.2a1 1 0 00-.8.3 3.3 3.3 0 00-.2 1.2 2.7 2.7 0 00.2 1.1 1 1 0 00.8.4zm4.3 1h-1.4v-7.2h1.4zm2.5 0H18v-7.2h1.3zm6.2-4.4a2.9 2.9 0 01-1.9.8 2.8 2.8 0 01-2.3-1 3.6 3.6 0 01-.9-2.6 4.1 4.1 0 01.5-1.9A3.5 3.5 0 0124 11a3.1 3.1 0 011.9.6 2.8 2.8 0 011.3 1.5 7.1 7.1 0 01.5 2.3v.7a6.1 6.1 0 01-1.4 4.2 4.8 4.8 0 01-3.7 1.7H22v-1.8h.5c1.9-.1 2.8-.9 3-2.6zm-1.4-.8l.9-.3a1.5 1.5 0 00.5-.6V15a2.9 2.9 0 00-.4-1.7 1.2 1.2 0 00-1.1-.5 1 1 0 00-1 .5 2.4 2.4 0 00-.4 1.5 2 2 0 00.4 1.4 1.1 1.1 0 001.1.6zM45 58.7a7.3 7.3 0 110-14.6 7.3 7.3 0 010 14.6zm0-12.8a5.5 5.5 0 105.5 5.5 5.5 5.5 0 00-5.5-5.5z"/><path class="cls-2" d="M45 54.4a2.7 2.7 0 01-2.1-.9l-.4-.4-.3-.6c-.1-.1-.1-.3-.2-.5v-1.2c.1-.2.1-.4.2-.6l.3-.5c.1-.1.2-.3.4-.4a3.3 3.3 0 012.7-.9l.5.2.5.3a1 1 0 01.5.4l.4.4.3.5c0 .2.1.4.1.6a1.9 1.9 0 010 1.2 4.3 4.3 0 01-.1.5l-.3.6-.4.4-.5.4-.5.3H45z"/></g></svg>