<svg id="Capa_1" data-name="Capa 1" xmlns="http://www.w3.org/2000/svg" viewBox="0 0 47 47"><defs><style>.cls-2{fill:#fff}</style></defs><path fill="none" d="M0 0h47v47H0z"/><path class="cls-2" d="M43.4 41.7H3.6a.9.9 0 01-.8-.8.8.8 0 01.8-.7h39.8a.8.8 0 01.8.7.9.9 0 01-.8.8z" id="Línea_2149" data-name="Línea 2149"/><path class="cls-2" d="M22.3 36.7H3.6a.7.7 0 01-.7-.7v-3.7a.8.8 0 01.7-.8h18.7a.9.9 0 01.8.8V36a.8.8 0 01-.8.7zM4.4 35.2h17.2V33H4.4z" id="Rectángulo_4531" data-name="Rectángulo 4531"/><path class="cls-2" d="M33.1 24.7h-3.7a.8.8 0 01-.8-.7V5.3a.9.9 0 01.8-.8h3.7a.9.9 0 01.8.8V24a.8.8 0 01-.8.7zm-3-1.5h2.3V6h-2.3z" id="Rectángulo_4531-2" data-name="Rectángulo 4531"/><path class="cls-2" d="M13.3 28a.7.7 0 01-.8-.7v-5.5a7.6 7.6 0 017.6-7.6H24a.8.8 0 01.8.7.9.9 0 01-.8.8h-3.9a6.1 6.1 0 00-6.1 6.1v5.5a.7.7 0 01-.7.7z" id="Trazado_11518" data-name="Trazado 11518"/><path class="cls-2" d="M13.3 28a.7.7 0 01-.6-.2l-2.4-2.5a.7.7 0 011-1l2 1.9 1.9-1.9a.8.8 0 011.1 0 .7.7 0 010 1l-2.5 2.5c-.1.2-.3.2-.5.2z" id="Trazado_11519" data-name="Trazado 11519"/><path class="cls-2" d="M10.9 14.8a3.8 3.8 0 113.8-3.8 3.8 3.8 0 01-3.8 3.8zm0-6.1A2.3 2.3 0 008.6 11a2.3 2.3 0 002.3 2.3 2.4 2.4 0 002.3-2.3 2.3 2.3 0 00-2.3-2.3z" id="Elipse_2119" data-name="Elipse 2119"/><path class="cls-2" d="M6 33a.8.8 0 01-.8-.7V21.7a15.9 15.9 0 011.5-6.5.8.8 0 011.1-.4.8.8 0 01.3 1 13.5 13.5 0 00-1.4 5.9v10.6a.7.7 0 01-.7.7zm14 0a.8.8 0 01-.8-.7V25a4.1 4.1 0 014.2-4.1h6a.7.7 0 01.7.7.8.8 0 01-.7.8h-6a2.7 2.7 0 00-2.7 2.6v7.3a.7.7 0 01-.7.7zM16.2 8.9a.8.8 0 01-.8-.5.8.8 0 01.6-.9 13.9 13.9 0 014-.6h9.4a.7.7 0 01.7.7.8.8 0 01-.7.8H20a14.9 14.9 0 00-3.6.5zm23.9 13.5h-7a.8.8 0 01-.7-.8.7.7 0 01.7-.7h7a.7.7 0 01.7.7.8.8 0 01-.7.8zm0-14h-7a.8.8 0 01-.7-.8.7.7 0 01.7-.7h7a.7.7 0 01.7.7.8.8 0 01-.7.8zM6 41.7a.9.9 0 01-.8-.8V36a.9.9 0 01.8-.8.8.8 0 01.7.8v4.9a.8.8 0 01-.7.8zm14 0a.9.9 0 01-.8-.8V36a.9.9 0 01.8-.8.8.8 0 01.7.8v4.9a.8.8 0 01-.7.8z"/></svg>