<svg id="Capa_1" data-name="Capa 1" xmlns="http://www.w3.org/2000/svg" viewBox="0 0 64 64"><defs><style>.cls-1{fill:#fff}</style></defs><g id="Grupo_11726" data-name="Grupo 11726"><g id="Grupo_11723" data-name="Grupo 11723"><path class="cls-1" d="M57.5 53.9h-51a.9.9 0 010-1.8h51a.9.9 0 010 1.8z" id="Línea_2111" data-name="Línea 2111"/><path class="cls-1" d="M12.1 53.7h-.3a.9.9 0 01-.5-1.2l2.4-5.4a.9.9 0 011.2-.4.8.8 0 01.4 1.1L13 53.2a1.1 1.1 0 01-.9.5z" id="Línea_2112" data-name="Línea 2112"/><path class="cls-1" d="M52 53.6a.8.8 0 01-.8-.6L39.9 24.7 37.1 27a1.3 1.3 0 01-.8.2.9.9 0 01-.6-.6L30 13.3l-8.4 19.8a.9.9 0 11-1.6-.7l9.2-21.7a.8.8 0 01.8-.6.8.8 0 01.8.6l6.1 14.1 2.8-2.2a.9.9 0 01.8-.2 1 1 0 01.6.5l11.7 29.5a.8.8 0 01-.5 1.1z" id="Trazado_10653" data-name="Trazado 10653"/></g><path class="cls-1" d="M48.6 37.8h-13a.9.9 0 010-1.8h13a.9.9 0 010 1.8z" id="Línea_2113" data-name="Línea 2113"/><path class="cls-1" d="M50.6 43.2h-7a.9.9 0 010-1.8h7a.9.9 0 010 1.8z" id="Línea_2114" data-name="Línea 2114"/><path class="cls-1" d="M17.7 45.3a5.7 5.7 0 01-1.8-.3 5.2 5.2 0 01-3-2.8 5 5 0 01-.1-4 5.1 5.1 0 012.7-2.9 5.1 5.1 0 014-.2 5.7 5.7 0 013 2.7 5 5 0 01.1 4 4.8 4.8 0 01-2.7 2.9 4.4 4.4 0 01-2.2.6zm0-8.7a3.2 3.2 0 00-1.4.3 3.3 3.3 0 00-1.8 1.9 3.2 3.2 0 00.1 2.7 3.1 3.1 0 001.9 1.8 3.5 3.5 0 004.4-2 3.2 3.2 0 00-.1-2.7l.9-.4-.9.4a3.1 3.1 0 00-1.9-1.8z" id="Trazado_11700" data-name="Trazado 11700"/></g><path fill="none" d="M0 0h64v64H0z"/></svg>