<svg xmlns="http://www.w3.org/2000/svg" viewBox="0 0 47 47"><style>.st6{fill:none;stroke:#95a6b1;stroke-width:1.5;stroke-linecap:round;stroke-linejoin:round}</style><g id="Capa_1"><path fill="none" d="M.07 0H47v47H.07z"/><path class="st6" d="M39.41 35.16h2.27v8.06h-2.27M18.78 15.58c-.34-.19-.76-.19-1.1 0L5.45 22.3c-.49.27-.71.86-.52 1.39l3.5 10.67m9.8-18.93v19.24"/><circle class="st6" cx="24.51" cy="23.59" r="1.48"/><path class="st6" d="M20.22 3.6h-3.25c-.45 0-.81.36-.81.81v3.41h4.94V4.47c0-.48-.39-.87-.88-.87zM28.04 35c-.26.1-.56.16-.92.16-2.11 0-2.11-2.06-4.21-2.06-2.11 0-2.11 2.06-4.21 2.06-2.11 0-2.11-2.06-4.21-2.06-2.11 0-2.11 2.06-4.22 2.06S8.16 33.1 6.05 33.1s-2.11 2.06-4.22 2.06m6.94-17.95v3.2m19.83 0v-5.83c0-1.57-1.28-2.85-2.85-2.85h-9.59m0 0h8.21V9.5c0-.93-.75-1.68-1.68-1.68h-8m3.07 7.76c.34-.19.76-.19 1.1 0L31.1 22.3c.49.27.71.86.52 1.39L28.04 35"/><path class="st6" d="M8.43 34.35l3.01 9.05h13.92l2.67-8.4m-.91.16c-2.11 0-2.11-2.06-4.21-2.06"/><path class="st6" d="M35.54 35.16c-2.11 0-2.11-2.06-4.21-2.06-2.11 0-2.11 2.06-4.21 2.06"/><path d="M13.15 9.94c.37.82.4 1.71.14 2.5a3.43 3.43 0 01-1.83 2.04c-1.72.79-3.75.03-4.54-1.69s-.03-3.75 1.69-4.54 3.76-.03 4.54 1.69z" fill="none" stroke="#00a800" stroke-width="1.313" stroke-linecap="round" stroke-linejoin="round" stroke-miterlimit="10"/></g></svg>