<svg xmlns="http://www.w3.org/2000/svg" viewBox="0 0 47 47"><style>.st6{fill:none;stroke:#95a6b1;stroke-width:1.5;stroke-linecap:round;stroke-linejoin:round}</style><g id="Capa_1"><path fill="none" d="M.07 0H47v47H.07z"/><path d="M38.85 8.35c.37.82.4 1.71.14 2.5a3.43 3.43 0 01-1.83 2.04c-1.72.79-3.75.03-4.54-1.69s-.03-3.75 1.69-4.54 3.75-.03 4.54 1.69z" fill="none" stroke="#00a800" stroke-width="1.313" stroke-linecap="round" stroke-linejoin="round" stroke-miterlimit="10"/><path class="st6" d="M41.68 29.54c-2.53 7.62-9.71 13.11-18.18 13.11-10.58 0-19.15-8.57-19.15-19.15m35.59-9.83a19.08 19.08 0 012.71 9.83M5.32 17.46C7.85 9.84 15.04 4.35 23.5 4.35c2.82 0 5.5.61 7.91 1.7"/><path class="st6" d="M1.83 27.45l2.52-3.95 2.64 3.91m38.18-7.84l-2.52 3.95-2.64-3.92M7.45 32.72c2.67 0 2.67 2.45 5.35 2.45 2.67 0 2.67-2.45 5.35-2.45 2.67 0 2.67 2.45 5.35 2.45 2.68 0 2.68-2.45 5.35-2.45 2.68 0 2.68 2.45 5.35 2.45s2.68-2.45 5.35-2.45m-11.46-2.23h4.86m-16.83-7.7h-2.58v-7.73c0-.53.43-.96.96-.96h16.81c.53 0 .96.43.96.96v7.73H20.8"/><path class="st6" d="M16.73 10.36h6.82c.5 0 .91.41.91.91v2.83h-8.52v-2.95c0-.44.36-.79.79-.79zM20.8 22.8h14.21c.61 0 1.1.49 1.1 1.1v10.2m-25.04-.01V23.74c0-.52.42-.95.95-.95l4.1-.01m11.97.39v9.58m0-6.27h4.86m.01-3.31v11.41m-8.01-11.79v11.79M20.8 22.81l.02 3.2H16.7V22.8m3.43-12.44v3.74"/></g></svg>