<svg xmlns="http://www.w3.org/2000/svg" viewBox="0 0 47 47"><style/><g id="Capa_1" fill="none"><path d="M.07 0H47v47H.07z"/><g stroke="#fff" stroke-width="1.5" stroke-miterlimit="10"><circle cx="23.39" cy="8.27" r="4.46"/><path d="M25.16 12.36v4.1h5.7c.83 0 1.51.68 1.51 1.51v.53c0 .83-.68 1.51-1.51 1.51h-5.7v16.48c8.33-.92 10.73-8.23 11.14-9.74l-1.54-.34L39.73 22l1.57 6.86-1.33-.3c-.15.48-3.49 10.53-13.56 12.26h0c-.61.12-1.33 1.09-1.65 1.41-.32.32-.89.96-1.26.96s-.72-.26-1.29-.89c-.57-.64-2.16-1.55-2.16-1.55h0C10.32 38.76 7.03 28.53 7.03 28.53l-1.33.26L7.26 22l4.99 4.35-1.56.35c.33 1.37 2.51 8.87 10.93 9.8V20.01h-5.37c-.83 0-1.51-.68-1.51-1.51v-.52c0-.83.68-1.51 1.51-1.51h5.37v-4.1" stroke-linecap="round" stroke-linejoin="round"/></g></g></svg>