<svg id="Capa_1" data-name="Capa 1" xmlns="http://www.w3.org/2000/svg" viewBox="0 0 84 84"><defs><style>.cls-1{fill:#fbba00}</style></defs><path class="cls-1" d="M67 31.8L63.3 27l.8-6a1.5 1.5 0 00-.9-1.6l-5.6-2.3-2.3-5.6a1.5 1.5 0 00-1.6-.9l-6 .8-4.8-3.7a1.5 1.5 0 00-1.8 0l-4.8 3.7-6-.8a1.5 1.5 0 00-1.6.9l-2.3 5.6-5.6 2.3a1.5 1.5 0 00-.9 1.6l.8 6-3.7 4.8a1.5 1.5 0 000 1.8l3.7 4.8-.8 6a1.5 1.5 0 00.9 1.6l5.6 2.3 2.3 5.6a1.4 1.4 0 001.1.9v20.3a1.3 1.3 0 00.8 1.3 1.5 1.5 0 001.6 0l9.8-6.2 9.8 6.2a1.7 1.7 0 001.6 0 1.3 1.3 0 00.8-1.3V54.8a1.4 1.4 0 001.1-.9l2.3-5.6 5.6-2.3a1.5 1.5 0 00.9-1.6l-.8-6 3.7-4.8a1.5 1.5 0 000-1.8M51.1 72.3l-8.3-5.2a1.5 1.5 0 00-1.6 0l-8.3 5.2V54.5l3.4-.5 4.8 3.7a1.5 1.5 0 001.8 0l4.8-3.7 3.4.5zm9.4-35.2a2 2 0 00-.3 1.1l.7 5.4-5 2.1a2 2 0 00-.9.9l-2.1 5-5.4-.7a2 2 0 00-1.1.3L42 54.6l-4.4-3.4a1.4 1.4 0 00-.9-.3h-.2l-5.4.7-2.1-5a2 2 0 00-.9-.9l-5-2.1.7-5.4a2 2 0 00-.3-1.1l-3.4-4.4 3.4-4.4a2 2 0 00.3-1.1l-.7-5.4 5-2.1a2 2 0 00.9-.9l2.1-5.1 5.4.8a2 2 0 001.1-.3l4.4-3.4 4.4 3.4a2 2 0 001.1.3l5.4-.8 2.1 5.1a2 2 0 00.9.9l5 2.1-.7 5.4a2 2 0 00.3 1.1l3.4 4.4z"/><path class="cls-1" d="M32.7 22.8a1.4 1.4 0 00.9-.3 13.7 13.7 0 018.4-3 1.5 1.5 0 001.5-1.5 1.5 1.5 0 00-1.5-1.5 16.8 16.8 0 00-10.3 3.6 1.6 1.6 0 00-.2 2.2 1.3 1.3 0 001.2.5"/><path class="cls-1" d="M47.4 17.4a1.5 1.5 0 00-1.9.9 1.6 1.6 0 00.9 2 13 13 0 018.8 12.4 13.2 13.2 0 01-26.4 0 13 13 0 012.2-7.2 1.7 1.7 0 00-.5-2.2 1.6 1.6 0 00-2.1.5 16.2 16.2 0 1019-6.4"/><path fill="none" d="M0 0h84v84H0z"/></svg>