<svg id="Capa_1" data-name="Capa 1" xmlns="http://www.w3.org/2000/svg" viewBox="0 0 64 64"><defs><style>.cls-2{fill:#95a6b1}</style></defs><path d="M14.8 25.4a2.7 2.7 0 01-1.2-.3 3.5 3.5 0 01-2-1.8 3.6 3.6 0 011.7-4.7 3.6 3.6 0 014.7 1.8 3.1 3.1 0 01.1 2.5 3.5 3.5 0 01-1.8 2.1 4.2 4.2 0 01-1.5.4zm0-5.5a1.1 1.1 0 00-.8.2 1.9 1.9 0 00-1 2.5 2 2 0 002.6 1 1.9 1.9 0 001-1.2 1.4 1.4 0 00-.1-1.4 1.8 1.8 0 00-1.7-1.1z" fill="#19a500"/><path class="cls-2" d="M25.6 20.7h-4.3a1.2 1.2 0 01-1.2-1.2v-1.8a1.3 1.3 0 011.2-1.2h4.3a1.2 1.2 0 011.2 1.2v1.8a1.2 1.2 0 01-1.2 1.2zm-3.9-1.6h3.5v-1h-3.5zm3.9-1z" id="Rectángulo_4585" data-name="Rectángulo 4585"/><path class="cls-2" d="M29.9 44H15.7a.8.8 0 01-.8-.8v-4.4a1.6 1.6 0 01-1.5-1.6v-.4a1.5 1.5 0 011.5-1.6V31a1.5 1.5 0 01-1.5-1.6V29a1.5 1.5 0 011.5-1.6v-.9a.8.8 0 01.8-.8.9.9 0 01.8.8v1.7a.9.9 0 01-.8.8H15v.4h.7a.9.9 0 01.8.8V36a.9.9 0 01-.8.8H15v.4h.7a.9.9 0 01.8.8v4.4h12.6V38a.9.9 0 01.8-.8h.7v-.4h-.7a.9.9 0 01-.8-.8v-5.8a.9.9 0 01.8-.8h.7V29h-.7a.9.9 0 01-.8-.8v-4.8a.8.8 0 01.8-.8.7.7 0 01.8.8v4a1.2 1.2 0 011 .5 1.3 1.3 0 01.5 1.1v.4a1.5 1.5 0 01-1.5 1.6v4.2a1.5 1.5 0 011.5 1.6v.4a1.6 1.6 0 01-1.5 1.6v4.4a.8.8 0 01-.8.8z" id="Trazado_11678" data-name="Trazado 11678"/><path class="cls-2" d="M27.2 29.8h-8.8a.9.9 0 01-.8-.8.8.8 0 01.8-.8h8.8a.8.8 0 01.8.8.9.9 0 01-.8.8z" id="Línea_2316" data-name="Línea 2316"/><path class="cls-2" d="M27.2 37.5h-8.8a.8.8 0 01-.8-.8.9.9 0 01.8-.8h8.8a.9.9 0 01.8.8.8.8 0 01-.8.8z" id="Línea_2317" data-name="Línea 2317"/><path class="cls-2" d="M30.8 47.5h-16a1.5 1.5 0 01-1.4-1.5v-2.2a1.4 1.4 0 011.4-1.4h16a1.4 1.4 0 011.4 1.4V46a1.5 1.5 0 01-1.4 1.5zM15 45.9h15.6V44H15zM30.8 44z" id="Rectángulo_4586" data-name="Rectángulo 4586"/><path class="cls-2" d="M30.7 24.2H19.4a.8.8 0 010-1.6h11.2v-1.9H19.4a.7.7 0 01-.8-.8.8.8 0 01.8-.8h11.3a1.5 1.5 0 011.5 1.4v2.3a1.5 1.5 0 01-1.5 1.4zm0-3.5z" id="Rectángulo_4587" data-name="Rectángulo 4587"/><path class="cls-2" d="M45 20.7h-4.3a1.2 1.2 0 01-1.2-1.2v-1.8a1.3 1.3 0 011.2-1.2H45a1.2 1.2 0 011.2 1.2v1.8a1.2 1.2 0 01-1.2 1.2zm-3.9-1.6h3.5v-1h-3.5zm3.9-1z" id="Rectángulo_4585-2" data-name="Rectángulo 4585"/><path class="cls-2" d="M50.4 44H36.2a.8.8 0 01-.8-.8v-4.4a1.6 1.6 0 01-1.5-1.6v-.4a1.5 1.5 0 011.5-1.6V31a1.5 1.5 0 01-1.5-1.6V29a1.5 1.5 0 011.5-1.6v-4a.7.7 0 01.8-.8.8.8 0 01.8.8v4.8a.9.9 0 01-.8.8h-.7v.4h.7a.9.9 0 01.8.8V36a.9.9 0 01-.8.8h-.7v.4h.7a.9.9 0 01.8.8v4.4h12.6V38a.9.9 0 01.8-.8h.7v-.4h-.7a.9.9 0 01-.8-.8v-5.8a.9.9 0 01.8-.8h.7V29h-.7a.9.9 0 01-.8-.8v-4.8a.8.8 0 01.8-.8.7.7 0 01.8.8v4a1.6 1.6 0 011.1.5 1.5 1.5 0 01.4 1.1v.4a1.5 1.5 0 01-1.5 1.6v4.2a1.5 1.5 0 011.5 1.6v.4a1.6 1.6 0 01-1.5 1.6v4.4a.8.8 0 01-.8.8z" id="Trazado_11678-2" data-name="Trazado 11678"/><path class="cls-2" d="M47.7 29.8h-8.8a.9.9 0 01-.8-.8.8.8 0 01.8-.8h8.8a.8.8 0 01.8.8.9.9 0 01-.8.8z" id="Línea_2316-2" data-name="Línea 2316"/><path class="cls-2" d="M47.7 37.5h-8.8a.8.8 0 01-.8-.8.9.9 0 01.8-.8h8.8a.9.9 0 01.8.8.8.8 0 01-.8.8z" id="Línea_2317-2" data-name="Línea 2317"/><path class="cls-2" d="M51.3 47.5h-16a1.5 1.5 0 01-1.4-1.5v-2.2a1.4 1.4 0 011.4-1.4h16a1.4 1.4 0 011.4 1.4V46a1.5 1.5 0 01-1.4 1.5zm-15.8-1.6h15.6V44H35.5zM51.3 44z" id="Rectángulo_4586-2" data-name="Rectángulo 4586"/><path class="cls-2" d="M51.3 24.2H35.2a1.4 1.4 0 01-1.4-1.4v-2.3a1.4 1.4 0 011.4-1.4h16.1a1.5 1.5 0 011.4 1.4v2.3a1.4 1.4 0 01-1.4 1.4zm-15.9-1.6h15.7v-1.9H35.4zm15.9-1.9z" id="Rectángulo_4587-2" data-name="Rectángulo 4587"/><path fill="none" d="M0 0h64v64H0z"/></svg>