<svg xmlns="http://www.w3.org/2000/svg" viewBox="0 0 121 65"><defs><style>.cls-4{fill:#9aa5af}.cls-5{fill:none}.cls-6{fill:#19a301}.cls-8{fill:#4da12e}</style></defs><g style="isolation:isolate"><g id="Capa_1" data-name="Capa 1"><path d="M12.4 12.9a5.1 5.1 0 010-10.2A4.9 4.9 0 0116 4.2a5.1 5.1 0 011.5 3.6 5.1 5.1 0 01-5.1 5.1zm0-8.4a3.3 3.3 0 103.3 3.3 3.3 3.3 0 00-1-2.3 2.9 2.9 0 00-2.3-1z" fill="#19a500" id="Trazado_11848" data-name="Trazado 11848"/><path class="cls-4" d="M53.4 48.8H12.2a.9.9 0 01-.9-.9v-32a.9.9 0 111.8 0V47h39.4V8.3H20.4a.9.9 0 010-1.8h33a1 1 0 01.9.9v40.5a1 1 0 01-.9.9z" id="Trazado_11852" data-name="Trazado 11852"/><path class="cls-4" d="M53.4 12.6a.9.9 0 01-.9-.9V7.4a.9.9 0 01.9-.9 1 1 0 01.9.9v4.3a1 1 0 01-.9.9z" id="Línea_2421" data-name="Línea 2421"/><path class="cls-4" d="M23.5 12.6a.9.9 0 01-.9-.9V7.4a.9.9 0 01.9-.9 1 1 0 01.9.9v4.3a1 1 0 01-.9.9z" id="Línea_2422" data-name="Línea 2422"/><path class="cls-4" d="M31.7 12.6a.9.9 0 01-.9-.9V7.4a.9.9 0 011.8 0v4.3a.9.9 0 01-.9.9z" id="Línea_2423" data-name="Línea 2423"/><path class="cls-4" d="M44.1 12.6a.9.9 0 01-.9-.9V7.4a.9.9 0 111.8 0v4.3a.9.9 0 01-.9.9z" id="Línea_2424" data-name="Línea 2424"/><path class="cls-4" d="M56.9 12.7H20.4a.9.9 0 010-1.8h36.5a.9.9 0 010 1.8z" id="Línea_2425" data-name="Línea 2425"/><path class="cls-4" d="M35.1 48.7a.9.9 0 01-.9-.9V30.6a.9.9 0 111.8 0v17.2a.9.9 0 01-.9.9zm9.1 0a.9.9 0 01-.9-.9V30.6a.9.9 0 111.8 0v17.2a.9.9 0 01-.9.9z"/><path class="cls-4" d="M35.1 40h-.4L11.8 30a1 1 0 01-.5-1.2.9.9 0 011.2-.5l22.9 10a.9.9 0 01.5 1.2.8.8 0 01-.8.5zm0-8.5h-.4l-22.9-10a.9.9 0 11.7-1.6l22.9 10a.9.9 0 01-.3 1.7z"/><path class="cls-4" d="M44.1 39.2h-9a.9.9 0 010-1.8h9a.9.9 0 010 1.8zm0 4.9h-9a.9.9 0 010-1.8h9a.9.9 0 110 1.8zm0 4.7h-9a.9.9 0 010-1.8h9a.9.9 0 010 1.8zm-27.6-17a.9.9 0 01-.9-.9v-8.3a.9.9 0 01.9-.9 1 1 0 01.9.9v8.3a1 1 0 01-.9.9zm4.7 2a.9.9 0 01-.9-.9v-8.3a.9.9 0 011.8 0v8.3a.9.9 0 01-.9.9zM26 36a.9.9 0 01-.9-.9v-8.3a.9.9 0 011.8 0v8.3a.9.9 0 01-.9.9zm4.8 1.9a.9.9 0 01-.9-.9v-8.3a.9.9 0 011.8 0V37a.9.9 0 01-.9.9zm21.7-19h-9.3a.9.9 0 010-1.8h9.3a.9.9 0 010 1.8zm-12.3 0H39a.9.9 0 010-1.8h1.2a.9.9 0 010 1.8z"/><path class="cls-4" d="M113.2 48.9H7.8a1 1 0 110-2h105.4a1 1 0 010 2z"/><path class="cls-4" d="M108.8 48.8H67.6a1 1 0 01-.9-.9V7.4a1 1 0 01.9-.9h41.2a.9.9 0 01.9.9v40.5a.9.9 0 01-.9.9zM68.5 47h39.4V8.3H68.5z" id="Trazado_11852-2" data-name="Trazado 11852"/><path class="cls-4" d="M108.8 12.6a.9.9 0 01-.9-.9V7.4a.9.9 0 011.8 0v4.3a.9.9 0 01-.9.9z" id="Línea_2421-2" data-name="Línea 2421"/><path class="cls-4" d="M77.9 12.6a.9.9 0 01-.9-.9V7.4a.9.9 0 111.8 0v4.3a.9.9 0 01-.9.9z" id="Línea_2422-2" data-name="Línea 2422"/><path class="cls-4" d="M88.2 12.6a.9.9 0 01-.9-.9V7.4a.9.9 0 111.8 0v4.3a.9.9 0 01-.9.9z" id="Línea_2423-2" data-name="Línea 2423"/><path class="cls-4" d="M98.5 12.6a.9.9 0 01-.9-.9V7.4a.9.9 0 011.8 0v4.3a.9.9 0 01-.9.9z" id="Línea_2424-2" data-name="Línea 2424"/><path class="cls-4" d="M112.4 12.7H63.8a.9.9 0 110-1.8h48.6a.9.9 0 110 1.8z" id="Línea_2425-2" data-name="Línea 2425"/><path class="cls-4" d="M90.6 48.7a.9.9 0 01-.9-.9V30.6a.9.9 0 011.8 0v17.2a.9.9 0 01-.9.9zm9.1 0a.9.9 0 01-.9-.9V30.6a.9.9 0 111.8 0v17.2a.9.9 0 01-.9.9z"/><path class="cls-4" d="M90.6 40h-.4L67.3 30a.9.9 0 01.7-1.7l22.9 10a.9.9 0 01.5 1.2.9.9 0 01-.8.5zm0-8.5h-.4l-22.9-10a.9.9 0 01-.5-1.2 1 1 0 011.2-.4l22.9 10a.9.9 0 01.5 1.2 1 1 0 01-.8.4z"/><path class="cls-4" d="M99.6 39.2h-9a.9.9 0 110-1.8h9a.9.9 0 110 1.8zm0 4.9h-9a.9.9 0 110-1.8h9a.9.9 0 110 1.8zm0 4.7h-9a.9.9 0 110-1.8h9a.9.9 0 110 1.8zm-27.7-17a.9.9 0 01-.9-.9v-8.3a.9.9 0 011.8 0v8.3a.9.9 0 01-.9.9zm4.8 2a.9.9 0 01-.9-.9v-8.3a.9.9 0 011.8 0v8.3a.9.9 0 01-.9.9zm4.8 2.2a.9.9 0 01-.9-.9v-8.3a.9.9 0 011.8 0v8.3a.9.9 0 01-.9.9zm4.8 1.9a.9.9 0 01-.9-.9v-8.3a.9.9 0 111.8 0V37a.9.9 0 01-.9.9zm21.7-19h-9.3a.9.9 0 110-1.8h9.3a.9.9 0 010 1.8zm-12.3 0h-1.2a.9.9 0 110-1.8h1.2a.9.9 0 110 1.8z"/><path class="cls-5" d="M0 0h121v65H0z" id="Rectángulo_3799-2" data-name="Rectángulo 3799-2"/><path class="cls-5" d="M28 48.3h65v16.74H28z"/><path class="cls-6" d="M73.4 61.3h-7.2a1.2 1.2 0 01-1.2-1.2 1.3 1.3 0 011.2-1.2h7.2a1.3 1.3 0 011.2 1.2 1.2 1.2 0 01-1.2 1.2zm7.7 0h-.6a1.2 1.2 0 01-1.2-1.2 1.3 1.3 0 011.2-1.2h.6a1.2 1.2 0 011.2 1.2 1.2 1.2 0 01-1.2 1.2zm-34.1 0h-7.1a1.2 1.2 0 01-1.2-1.2 1.2 1.2 0 011.2-1.2H47a1.2 1.2 0 011.2 1.2 1.2 1.2 0 01-1.2 1.2z"/><path d="M59 61.3H46.5a1.2 1.2 0 01-1.2-1.2 1.3 1.3 0 011.2-1.2H59a1.2 1.2 0 011.2 1.2 1.2 1.2 0 01-1.2 1.2zm4.5-6.1H39.9a1.2 1.2 0 110-2.4h23.6a1.2 1.2 0 010 2.4z" fill="#82d400"/><path class="cls-6" d="M81.1 55.2H62.7a1.2 1.2 0 010-2.4h18.4a1.2 1.2 0 010 2.4zm-40.8 0h-.4a1.2 1.2 0 110-2.4h.4a1.2 1.2 0 010 2.4z"/><path class="cls-5" d="M28 48.3h65v16.74H28z"/><path class="cls-8" d="M73.4 61.3h-7.2a1.2 1.2 0 01-1.2-1.2 1.3 1.3 0 011.2-1.2h7.2a1.3 1.3 0 011.2 1.2 1.2 1.2 0 01-1.2 1.2zm7.7 0h-.6a1.2 1.2 0 01-1.2-1.2 1.3 1.3 0 011.2-1.2h.6a1.2 1.2 0 011.2 1.2 1.2 1.2 0 01-1.2 1.2zm-34.1 0h-7.1a1.2 1.2 0 01-1.2-1.2 1.2 1.2 0 011.2-1.2H47a1.2 1.2 0 011.2 1.2 1.2 1.2 0 01-1.2 1.2z"/><path d="M59 61.3H46.5a1.2 1.2 0 01-1.2-1.2 1.3 1.3 0 011.2-1.2H59a1.2 1.2 0 011.2 1.2 1.2 1.2 0 01-1.2 1.2zm4.5-6.1H39.9a1.2 1.2 0 110-2.4h23.6a1.2 1.2 0 010 2.4z" fill="#96d200"/><path class="cls-8" d="M81.1 55.2H62.7a1.2 1.2 0 010-2.4h18.4a1.2 1.2 0 010 2.4zm-40.8 0h-.4a1.2 1.2 0 110-2.4h.4a1.2 1.2 0 010 2.4z"/></g></g></svg>