<svg id="Capa_1" data-name="Capa 1" xmlns="http://www.w3.org/2000/svg" viewBox="0 0 65 65"><defs><style>.cls-1{fill:#90a6b1}.cls-3{fill:none}.cls-4{fill:#19a301}</style></defs><g id="Grupo_14996" data-name="Grupo 14996"><g id="Grupo_14995" data-name="Grupo 14995"><path class="cls-1" d="M21.4 47.7H9.1a.8.8 0 01-.8-.8v-3.7a1.2 1.2 0 01-.9-.4 2.1 2.1 0 01-.4-1.1v-.3a1.5 1.5 0 011.3-1.5v-3.4A1.5 1.5 0 017 35v-.3a1.5 1.5 0 011.3-1.5v-3.3a.8.8 0 011.6 0V34a.9.9 0 01-.8.8h-.5v.2h.5a.8.8 0 01.8.8v4.9a.9.9 0 01-.8.8h-.5v.2h.5a.8.8 0 01.8.8v3.6h10.7v-3.6a.7.7 0 01.8-.8h.5v-.2h-.5a.8.8 0 01-.8-.8v-4.9a.7.7 0 01.8-.8h.5v-.2h-.5a.8.8 0 01-.8-.8v-4.1a.7.7 0 01.8-.8.8.8 0 01.8.8v3.3a1.5 1.5 0 011.3 1.5v.3a1.5 1.5 0 01-1.3 1.5v3.4a1.5 1.5 0 011.3 1.5v.3a1.5 1.5 0 01-1.3 1.5v3.7a.8.8 0 01-.8.8zM8.5 35z" id="Trazado_11678" data-name="Trazado 11678"/><path class="cls-1" d="M19 35.5h-7.5a.8.8 0 01-.8-.8.7.7 0 01.8-.8H19a.8.8 0 01.8.8.9.9 0 01-.8.8z" id="Línea_2316" data-name="Línea 2316"/><path class="cls-1" d="M19 42.2h-7.5a.8.8 0 01-.8-.8.7.7 0 01.8-.8H19a.8.8 0 01.8.8.9.9 0 01-.8.8z" id="Línea_2317" data-name="Línea 2317"/><path class="cls-1" d="M22.1 49.8H8.3A1.3 1.3 0 017 48.5v-1.1a1.3 1.3 0 011.3-1.3h13.8a1.3 1.3 0 011.4 1.3v1.1a1.3 1.3 0 01-1.4 1.3zM8.6 48.2h13.3v-.5H8.6zm13.5-.5z" id="Rectángulo_4586" data-name="Rectángulo 4586"/><path class="cls-1" d="M39 47.7H26.8a.7.7 0 01-.8-.8v-3.7a1.4 1.4 0 01-1.3-1.5v-.3a1.4 1.4 0 011.3-1.5v-3.4a1.4 1.4 0 01-1.3-1.5v-.3a1.4 1.4 0 011.3-1.5v-3.3a.7.7 0 01.8-.8.8.8 0 01.8.8V34a.9.9 0 01-.8.8h-.5v.2h.5a.8.8 0 01.8.8v4.9a.9.9 0 01-.8.8h-.5v.2h.5a.8.8 0 01.8.8v3.6h10.6v-3.6a.8.8 0 01.8-.8h.5v-.2H39a.9.9 0 01-.8-.8v-4.9a.8.8 0 01.8-.8h.5v-.2H39a.9.9 0 01-.8-.8v-4.1a.8.8 0 01.8-.8.7.7 0 01.8.8v3.3a1.8 1.8 0 01.9.4 1.5 1.5 0 01.4 1.1v.3a1.4 1.4 0 01-1.3 1.5v3.4a1.4 1.4 0 011.3 1.5v.3a1.4 1.4 0 01-1.3 1.5v3.7a.7.7 0 01-.8.8z" id="Trazado_11678-2" data-name="Trazado 11678-2"/><path class="cls-1" d="M36.6 35.5h-7.5a.9.9 0 01-.8-.8.8.8 0 01.8-.8h7.5a.7.7 0 01.8.8.8.8 0 01-.8.8z" id="Línea_2316-2" data-name="Línea 2316-2"/><path class="cls-1" d="M36.6 42.2h-7.5a.9.9 0 01-.8-.8.8.8 0 01.8-.8h7.5a.7.7 0 01.8.8.8.8 0 01-.8.8z" id="Línea_2317-2" data-name="Línea 2317-2"/><path class="cls-1" d="M39.8 49.8H26a1.3 1.3 0 01-1.3-1.3v-1.1a1.3 1.3 0 011.3-1.3h13.8a1.3 1.3 0 011.3 1.3v1.1a1.3 1.3 0 01-1.3 1.3zm-13.5-1.6h13.2v-.5H26.3zm13.5-.5z" id="Rectángulo_4586-2" data-name="Rectángulo 4586-2"/><path class="cls-1" d="M39.7 30.7H25.9a1.3 1.3 0 01-1.3-1.4v-1a1.3 1.3 0 011.3-1.4h13.8a1.4 1.4 0 011.4 1.4v1a1.4 1.4 0 01-1.4 1.4zm-13.5-1.6h13.3v-.6H26.2zm13.5-.6z" id="Rectángulo_4587" data-name="Rectángulo 4587"/><path class="cls-1" d="M22.1 30.7H8.3a1.4 1.4 0 01-1.4-1.4v-1a1.4 1.4 0 011.4-1.4h13.8a1.3 1.3 0 011.3 1.4v1a1.3 1.3 0 01-1.3 1.4zM8.5 29.1h13.3v-.6H8.5zm13.6-.6z" id="Rectángulo_4587-2" data-name="Rectángulo 4587-2"/><g id="Grupo_14992" data-name="Grupo 14992"><path d="M17 10.4l-1.1-.2a3.3 3.3 0 01-1.8-1.7 3.1 3.1 0 011.6-4.1 3 3 0 014.1 1.5 3.1 3.1 0 01.2 2.3 3.5 3.5 0 01-1.7 1.9 3.1 3.1 0 01-1.3.3zm0-4.7h-.7a2.4 2.4 0 00-.8.9 1.7 1.7 0 00.1 1.2 2 2 0 00.8.8 1.7 1.7 0 001.2-.1 1.6 1.6 0 00.9-.9 1.4 1.4 0 00-.1-1.1 1.5 1.5 0 00-1.4-.8z" fill="#00ab00" id="Trazado_12456" data-name="Trazado 12456"/><path class="cls-1" d="M26.3 7.3h-3.7a1.2 1.2 0 01-1.1-1.2V4.6a1.1 1.1 0 011.1-1.2h3.7a1.1 1.1 0 011.1 1.2v1.5a1.2 1.2 0 01-1.1 1.2zm-3.2-1.6h2.7V5h-2.7zm3.2-.7z" id="Rectángulo_4585-2" data-name="Rectángulo 4585-2"/><path class="cls-1" d="M30 26.4H17.7a.8.8 0 01-.8-.8V22a1.6 1.6 0 01-1.3-1.5v-.4a1.6 1.6 0 011.3-1.5v-3.3a1.6 1.6 0 01-1.3-1.5v-.4a1.5 1.5 0 011.3-1.5v-.6a.8.8 0 01.8-.8.7.7 0 01.8.8v1.4a.8.8 0 01-.8.8h-.5v.2h.5a.7.7 0 01.8.8v4.9a.8.8 0 01-.8.8h-.5v.2h.5a.7.7 0 01.8.8v3.6h10.7v-3.6a.8.8 0 01.8-.8h.5v-.2H30a.9.9 0 01-.8-.8v-4.9a.8.8 0 01.8-.8h.5v-.2H30a.9.9 0 01-.8-.8V8.6a.8.8 0 111.6 0v3.3l.9.4a2.1 2.1 0 01.4 1.1v.4a1.6 1.6 0 01-1.3 1.5v3.3a1.5 1.5 0 011.3 1.5v.4a1.6 1.6 0 01-1.3 1.5v3.6a.8.8 0 01-.8.8z" id="Trazado_11678-3" data-name="Trazado 11678-3"/><path class="cls-1" d="M27.6 14.2h-7.5a.9.9 0 01-.8-.8.8.8 0 01.8-.8h7.5a.7.7 0 01.8.8.8.8 0 01-.8.8z" id="Línea_2316-3" data-name="Línea 2316-3"/><path class="cls-1" d="M27.6 20.9h-7.5a.9.9 0 01-.8-.8.8.8 0 01.8-.8h7.5a.7.7 0 01.8.8.8.8 0 01-.8.8z" id="Línea_2317-3" data-name="Línea 2317-3"/><path class="cls-1" d="M30.8 28.5H17a1.3 1.3 0 01-1.4-1.3v-1.1a1.3 1.3 0 011.4-1.3h13.8a1.3 1.3 0 011.3 1.3v1.1a1.3 1.3 0 01-1.3 1.3zm-13.6-1.6h13.3v-.5H17.2zm13.6-.5z" id="Rectángulo_4586-3" data-name="Rectángulo 4586-3"/><path class="cls-1" d="M30.7 9.4H21a.8.8 0 01-.8-.8.7.7 0 01.8-.8h9.4v-.5h-9.5a.9.9 0 01-.8-.8.8.8 0 01.8-.8h9.8A1.3 1.3 0 0132 7v1.1a1.3 1.3 0 01-1.3 1.3zm0-2.1z" id="Rectángulo_4587-3" data-name="Rectángulo 4587-3"/></g><g id="Grupo_14993" data-name="Grupo 14993"><path class="cls-1" d="M43 7.3h-3.7a1.2 1.2 0 01-1.1-1.2V4.6a1.1 1.1 0 011.1-1.2H43a1.1 1.1 0 011.1 1.2v1.5A1.2 1.2 0 0143 7.3zm-3.2-1.6h2.7V5h-2.7zM43 5z" id="Rectángulo_4585-3" data-name="Rectángulo 4585-3"/><path class="cls-1" d="M47.7 26.4H35.4a.8.8 0 01-.8-.8V22a1.6 1.6 0 01-1.3-1.5v-.4a1.6 1.6 0 011.3-1.5v-3.3a1.6 1.6 0 01-1.3-1.5v-.4a1.5 1.5 0 011.3-1.5V8.6a.8.8 0 111.6 0v4.1a.9.9 0 01-.8.8h-.5v.2h.5a.8.8 0 01.8.8v4.9a.9.9 0 01-.8.8h-.5v.2h.5a.8.8 0 01.8.8v3.6h10.7v-3.6a.7.7 0 01.8-.8h.5v-.2h-.5a.8.8 0 01-.8-.8v-4.9a.7.7 0 01.8-.8h.5v-.2h-.5a.8.8 0 01-.8-.8V8.6a.7.7 0 01.8-.8.8.8 0 01.8.8v3.3a2 2 0 01.8.4 1.6 1.6 0 01.5 1.1v.4a1.6 1.6 0 01-1.3 1.5v3.3a1.5 1.5 0 011.3 1.5v.4a1.6 1.6 0 01-1.3 1.5v3.6a.8.8 0 01-.8.8z" id="Trazado_11678-4" data-name="Trazado 11678-4"/><path class="cls-1" d="M45.3 14.2h-7.5a.8.8 0 01-.8-.8.7.7 0 01.8-.8h7.5a.8.8 0 01.8.8.9.9 0 01-.8.8z" id="Línea_2316-4" data-name="Línea 2316-4"/><path class="cls-1" d="M45.3 20.9h-7.5a.8.8 0 01-.8-.8.7.7 0 01.8-.8h7.5a.8.8 0 01.8.8.9.9 0 01-.8.8z" id="Línea_2317-4" data-name="Línea 2317-4"/><path class="cls-1" d="M48.4 28.5H34.6a1.3 1.3 0 01-1.3-1.3v-1.1a1.3 1.3 0 011.3-1.3h13.8a1.3 1.3 0 011.4 1.3v1.1a1.3 1.3 0 01-1.4 1.3zm-13.5-1.6h13.3v-.5H34.9zm13.5-.5z" id="Rectángulo_4586-4" data-name="Rectángulo 4586-4"/><path class="cls-1" d="M48.4 9.4H34.6a1.3 1.3 0 01-1.4-1.3V7a1.3 1.3 0 011.4-1.3h13.8A1.3 1.3 0 0149.7 7v1.1a1.3 1.3 0 01-1.3 1.3zM34.8 7.8h13.3v-.5H34.8zm13.6-.5z" id="Rectángulo_4587-4" data-name="Rectángulo 4587-4"/></g><g id="Grupo_14994" data-name="Grupo 14994"><path class="cls-1" d="M56.5 47.7H44.3a.7.7 0 01-.8-.8v-3.7a1.4 1.4 0 01-1.3-1.5v-.3a1.4 1.4 0 011.3-1.5v-3.4a1.4 1.4 0 01-1.3-1.5v-.3a1.4 1.4 0 011.3-1.5v-3.3a.7.7 0 01.8-.8.8.8 0 01.8.8V34a.9.9 0 01-.8.8h-.5v.2h.5a.8.8 0 01.8.8v4.9a.9.9 0 01-.8.8h-.5v.2h.5a.8.8 0 01.8.8v3.6h10.6v-3.6a.8.8 0 01.8-.8h.5v-.2h-.5a.9.9 0 01-.8-.8v-4.9a.8.8 0 01.8-.8h.5v-.2h-.5a.9.9 0 01-.8-.8v-4.1a.8.8 0 01.8-.8.7.7 0 01.8.8v3.3a1.3 1.3 0 01.9.4 1.5 1.5 0 01.4 1.1v.3a1.4 1.4 0 01-1.3 1.5v3.4a1.4 1.4 0 011.3 1.5v.3a1.4 1.4 0 01-1.3 1.5v3.7a.7.7 0 01-.8.8z" id="Trazado_11678-5" data-name="Trazado 11678-5"/><path class="cls-1" d="M54.2 35.5h-7.6a.9.9 0 01-.8-.8.8.8 0 01.8-.8h7.6a.8.8 0 01.8.8.9.9 0 01-.8.8z" id="Línea_2316-5" data-name="Línea 2316-5"/><path class="cls-1" d="M54.2 42.2h-7.6a.9.9 0 01-.8-.8.8.8 0 01.8-.8h7.6a.8.8 0 01.8.8.9.9 0 01-.8.8z" id="Línea_2317-5" data-name="Línea 2317-5"/><path class="cls-1" d="M57.3 49.8H43.5a1.3 1.3 0 01-1.3-1.3v-1.1a1.3 1.3 0 011.3-1.3h13.8a1.3 1.3 0 011.3 1.3v1.1a1.3 1.3 0 01-1.3 1.3zm-13.5-1.6H57v-.5H43.8zm13.5-.5z" id="Rectángulo_4586-5" data-name="Rectángulo 4586-5"/><path class="cls-1" d="M57.2 30.7H43.4a1.3 1.3 0 01-1.3-1.4v-1a1.3 1.3 0 011.3-1.4h13.8a1.4 1.4 0 011.4 1.4v1a1.4 1.4 0 01-1.4 1.4zm-13.5-1.6H57v-.6H43.7zm13.5-.6z" id="Rectángulo_4587-5" data-name="Rectángulo 4587-5"/></g></g></g><g id="Grupo_14998" data-name="Grupo 14998"><path class="cls-3" d="M0 0h65v65H0z" id="Rectángulo_3799-2" data-name="Rectángulo 3799-2"/></g><path class="cls-3" d="M0 48.3h65v16.74H0z"/><path class="cls-4" d="M45.4 61.3h-7.2a1.2 1.2 0 01-1.2-1.2 1.3 1.3 0 011.2-1.2h7.2a1.3 1.3 0 011.2 1.2 1.2 1.2 0 01-1.2 1.2zm7.7 0h-.6a1.2 1.2 0 01-1.2-1.2 1.3 1.3 0 011.2-1.2h.6a1.2 1.2 0 011.2 1.2 1.2 1.2 0 01-1.2 1.2zm-34.1 0h-7.1a1.2 1.2 0 01-1.2-1.2 1.2 1.2 0 011.2-1.2H19a1.2 1.2 0 011.2 1.2 1.2 1.2 0 01-1.2 1.2z"/><path d="M31 61.3H18.5a1.2 1.2 0 01-1.2-1.2 1.3 1.3 0 011.2-1.2H31a1.2 1.2 0 011.2 1.2 1.2 1.2 0 01-1.2 1.2zm4.5-6.1H11.9a1.2 1.2 0 110-2.4h23.6a1.2 1.2 0 010 2.4z" fill="#82d400"/><path class="cls-4" d="M53.1 55.2H34.7a1.2 1.2 0 010-2.4h18.4a1.2 1.2 0 010 2.4zm-40.8 0h-.4a1.2 1.2 0 110-2.4h.4a1.2 1.2 0 010 2.4z"/></svg>