<svg id="Capa_1" data-name="Capa 1" xmlns="http://www.w3.org/2000/svg" viewBox="0 0 65 65"><defs><style>.cls-1{fill:none}.cls-2{fill:#00a600}.cls-5{fill:#95a6b1}</style></defs><path class="cls-1" d="M0 48.3h65v16.74H0z"/><path class="cls-2" d="M45.4 61.3h-7.2a1.2 1.2 0 01-1.2-1.2 1.3 1.3 0 011.2-1.2h7.2a1.3 1.3 0 011.2 1.2 1.2 1.2 0 01-1.2 1.2zm7.7 0h-.6a1.2 1.2 0 01-1.2-1.2 1.3 1.3 0 011.2-1.2h.6a1.2 1.2 0 011.2 1.2 1.2 1.2 0 01-1.2 1.2zm-34.1 0h-7.1a1.2 1.2 0 01-1.2-1.2 1.2 1.2 0 011.2-1.2H19a1.2 1.2 0 011.2 1.2 1.2 1.2 0 01-1.2 1.2z"/><path d="M31 61.3H18.5a1.2 1.2 0 01-1.2-1.2 1.3 1.3 0 011.2-1.2H31a1.2 1.2 0 011.2 1.2 1.2 1.2 0 01-1.2 1.2zm4.5-6.1H11.9a1.2 1.2 0 110-2.4h23.6a1.2 1.2 0 010 2.4z" fill="#62d700"/><path class="cls-2" d="M53.1 55.2H34.7a1.2 1.2 0 010-2.4h18.4a1.2 1.2 0 010 2.4zm-40.8 0h-.4a1.2 1.2 0 110-2.4h.4a1.2 1.2 0 010 2.4z"/><g id="Grupo_13216" data-name="Grupo 13216"><path class="cls-1" d="M0 0h65v65H0z" id="Rectángulo_3799" data-name="Rectángulo 3799"/></g><path class="cls-1" d="M0 0h65v65H0z" id="Rectángulo_3799-2" data-name="Rectángulo 3799-2"/><path d="M10.7 21.2a4.5 4.5 0 01-4-2.5 4.4 4.4 0 012.2-5.8 4.4 4.4 0 015.8 2.1 4.2 4.2 0 01.1 3.3 3.9 3.9 0 01-2.3 2.4 3.9 3.9 0 01-1.8.5zm0-7.1a2 2 0 00-1.1.3A2.7 2.7 0 008.2 18a2.8 2.8 0 003.7 1.4 3.2 3.2 0 001.4-1.6 2.6 2.6 0 00-.1-2.1 2.8 2.8 0 00-2.5-1.6z" fill="#19a500" id="Trazado_11847" data-name="Trazado 11847"/><path class="cls-5" d="M24.8 16.5h-5.6a1.3 1.3 0 01-1.3-1.3v-2.3a1.3 1.3 0 011.3-1.4h5.6a1.3 1.3 0 011.3 1.4v2.3a1.3 1.3 0 01-1.3 1.3zm-5.3-1.6h5v-1.8h-5zm5.3-1.8z" id="Rectángulo_4585" data-name="Rectángulo 4585"/><path class="cls-5" d="M30.4 43.3H11.9a.7.7 0 01-.8-.8v-5.9H11a1.9 1.9 0 01-1.9-1.9v-.5a1.8 1.8 0 011.9-1.9h.1v-3.6H11a1.9 1.9 0 01-1.9-1.9v-.6a1.8 1.8 0 011.9-1.8h.1V23a.8.8 0 01.8-.8.9.9 0 01.8.8v2.2a.9.9 0 01-.8.8H11c-.2 0-.3.1-.3.2v.6a.3.3 0 00.3.3h.9a.8.8 0 01.8.8v5.2a.9.9 0 01-.8.8H11a.3.3 0 00-.3.3v.5a.3.3 0 00.3.3h.9a.8.8 0 01.8.8v5.9h16.9v-5.9a.8.8 0 01.8-.8h.9a.3.3 0 00.3-.3v-.5a.3.3 0 00-.3-.3h-.9a.9.9 0 01-.8-.8v-5.2a.8.8 0 01.8-.8h.9a.3.3 0 00.3-.3v-.6c0-.1-.1-.2-.3-.2h-.9a.9.9 0 01-.8-.8v-6.3a.9.9 0 01.8-.8.8.8 0 01.8.8v5.5h.1a1.8 1.8 0 011.9 1.8v.6a1.9 1.9 0 01-1.9 1.9h-.1v3.6h.1a1.8 1.8 0 011.9 1.9v.5a1.9 1.9 0 01-1.9 1.9h-.1v5.9a.7.7 0 01-.8.8z" id="Trazado_11678" data-name="Trazado 11678"/><path class="cls-5" d="M26.8 27H15.4a.8.8 0 010-1.6h11.4a.8.8 0 010 1.6z" id="Línea_2316" data-name="Línea 2316"/><path class="cls-5" d="M26.8 34.9H15.4a.8.8 0 110-1.6h11.4a.8.8 0 110 1.6z" id="Línea_2317" data-name="Línea 2317"/><path class="cls-5" d="M31.6 46.6H10.7A1.6 1.6 0 019.1 45v-1.7a1.6 1.6 0 011.6-1.6h20.9a1.6 1.6 0 011.6 1.6V45a1.6 1.6 0 01-1.6 1.6zm-20.9-3.3V45h20.9v-1.7zm0-.8v.8z" id="Rectángulo_4586" data-name="Rectángulo 4586"/><path class="cls-5" d="M31.5 19.7H16.8a.7.7 0 01-.8-.8.8.8 0 01.8-.8h14.7v-1.6H16.7a.8.8 0 010-1.6h14.8a1.6 1.6 0 011.6 1.6v1.6a1.6 1.6 0 01-1.6 1.6z" id="Rectángulo_4587" data-name="Rectángulo 4587"/><path class="cls-5" d="M48.8 16.5h-5.6a1.3 1.3 0 01-1.3-1.3v-2.3a1.3 1.3 0 011.3-1.4h5.6a1.4 1.4 0 011.4 1.4v2.3a1.3 1.3 0 01-1.4 1.3zm-5.3-1.6h5.1v-1.8h-5.1zm5.3-1.8z" id="Rectángulo_4585-2" data-name="Rectángulo 4585-2"/><path class="cls-5" d="M55.9 43.3H37.3a.8.8 0 01-.8-.8v-5.9h-.1a2 2 0 01-1.9-1.9v-.5a1.9 1.9 0 011.9-1.9h.1v-3.7h-.1a1.9 1.9 0 01-1.9-1.8v-.6a2 2 0 011.9-1.9h.1v-5.4a.8.8 0 011.6 0v6.2a.8.8 0 01-.8.8h-.9a.5.5 0 00-.3.3v.6l.3.2h.9a.9.9 0 01.8.8v5.3a.9.9 0 01-.8.8h-.9a.3.3 0 00-.3.3v.5a.3.3 0 00.3.3h.9a.8.8 0 01.8.8v5.9h17v-5.9a.7.7 0 01.8-.8h.9a.3.3 0 00.3-.3v-.5a.3.3 0 00-.3-.3h-.9a.8.8 0 01-.8-.8v-5.2a.7.7 0 01.8-.8h.9a.5.5 0 00.3-.3v-.6c0-.1-.1-.1-.1-.2h-1.1a.8.8 0 01-.8-.8v-6.3a.8.8 0 01.8-.8.9.9 0 01.8.8v5.5h.1a1.9 1.9 0 011.9 1.8v.6a2 2 0 01-1.9 1.9h-.1v3.6h.1a1.9 1.9 0 011.9 1.9v.5a2 2 0 01-1.9 1.9h-.1v5.9a.8.8 0 01-.8.8z" id="Trazado_11678-2" data-name="Trazado 11678-2"/><path class="cls-5" d="M52.3 27H40.9a.8.8 0 110-1.6h11.4a.8.8 0 110 1.6z" id="Línea_2316-2" data-name="Línea 2316-2"/><path class="cls-5" d="M52.3 34.9H40.9a.8.8 0 010-1.6h11.4a.8.8 0 110 1.6z" id="Línea_2317-2" data-name="Línea 2317-2"/><path class="cls-5" d="M57.1 46.6h-21a1.6 1.6 0 01-1.6-1.6v-1.7a1.6 1.6 0 011.6-1.6h21a1.6 1.6 0 011.6 1.6V45a1.7 1.7 0 01-1.6 1.6zm-21-3.3V45h21v-1.7zm0-.8v.8z" id="Rectángulo_4586-2" data-name="Rectángulo 4586-2"/><path class="cls-5" d="M57 19.7H36a1.6 1.6 0 01-1.5-1.6v-1.6a1.6 1.6 0 011.5-1.6h21a1.6 1.6 0 011.6 1.6v1.6a1.6 1.6 0 01-1.6 1.6zm-21-3.2v1.6h21v-1.6zm0-.8v.8z" id="Rectángulo_4587-2" data-name="Rectángulo 4587-2"/></svg>