<svg version="1.1" id="Capa_1" xmlns="http://www.w3.org/2000/svg" x="0" y="0" viewBox="0 0 65 65" xml:space="preserve"><style>.st0{fill:none}.st1,.st4{fill:none;stroke:#95a6b1;stroke-width:1.6;stroke-linecap:round;stroke-linejoin:round}.st4{stroke-miterlimit:10}.st5{fill:#4da12e}.st9{fill:none;stroke:#95a6b1;stroke-width:1.5902;stroke-linecap:round;stroke-linejoin:round}</style><g id="Grupo_14998_2_" transform="translate(-83.703)"><path id="Rectángulo_3799-2_1_" class="st0" d="M83.7 0h65v65h-65z"/><g id="Grupo_15257_1_" transform="translate(-5.723 -1.554)"><g id="Grupo_15256_1_"><path id="Línea_2918_1_" class="st1" d="M96.48 50.82h51.4"/><path id="Trazado_12587_1_" class="st1" d="M100.18 18.16V16a3.11 3.11 0 013.12-3.11h8.62c1.72 0 3.12 1.39 3.12 3.11v16.95"/><path id="Línea_2919_1_" class="st1" d="M100.18 50.82V31.81"/><path id="Trazado_12588_1_" class="st1" d="M129.04 50.74V33.26c0-1.66 1.34-3 3-3h9.12c1.66 0 3 1.34 3 3v17.56"/><path id="Trazado_12589_1_" class="st1" d="M123.3 50.74V27.77c0-1.66 1.34-3 3-3h7.22c1.66 0 3 1.34 3 3v2.34"/><path id="Trazado_11848_1_" d="M104.34 24.87c0 2.31-1.88 4.18-4.19 4.18-2.31 0-4.18-1.88-4.18-4.19 0-2.31 1.87-4.18 4.18-4.18h0c2.3-.01 4.17 1.85 4.18 4.15v.04z" fill="none" stroke="#00a800" stroke-width="1.6" stroke-linecap="round" stroke-linejoin="round" stroke-miterlimit="10"/></g></g><path class="st4" d="M125.61 18.91v3.99m12.67-20.45H118.1a5.15 5.15 0 00-5.15 5.15v11.28h20.18a5.15 5.15 0 005.15-5.15V2.45z"/><path class="st4" d="M123.57 12.62v1.25c0 1.16.95 2.09 2.12 2.09h.16c1.16 0 2.12-.92 2.12-2.09v-1.25m-.01 0V5.38m0 8.32v-1.08m-4.4 0V5.38m0 8.32v-1.08m-6.8 3.34V8.42m2.28-3.04h-.16c-1.16 0-2.12.92-2.12 2.09v1.25c0 1.16.95 2.12 2.12 2.12h.16c1.16 0 2.12-.95 2.12-2.12V7.47c0-1.17-.95-2.09-2.12-2.09zm15.36.11h-3.51v10.58h3.57m-.35-5.32h-3.05"/></g><path class="st0" d="M0 48.26h65V65H0z"/><path class="st5" d="M45.38 61.32h-7.17c-.66 0-1.2-.54-1.2-1.2s.54-1.2 1.2-1.2h7.17c.66 0 1.2.54 1.2 1.2s-.54 1.2-1.2 1.2zm7.73 0h-.58c-.66 0-1.2-.54-1.2-1.2s.54-1.2 1.2-1.2h.58c.66 0 1.2.54 1.2 1.2s-.54 1.2-1.2 1.2zm-34.12 0h-7.1c-.66 0-1.2-.54-1.2-1.2s.54-1.2 1.2-1.2h7.1c.66 0 1.2.54 1.2 1.2s-.54 1.2-1.2 1.2z"/><path d="M31.05 61.32H18.53c-.66 0-1.2-.54-1.2-1.2s.54-1.2 1.2-1.2h12.52c.66 0 1.2.54 1.2 1.2s-.54 1.2-1.2 1.2zm4.42-6.11H11.89c-.66 0-1.2-.54-1.2-1.2s.54-1.2 1.2-1.2h23.58c.66 0 1.2.54 1.2 1.2s-.53 1.2-1.2 1.2z" fill="#96d200"/><path class="st5" d="M53.11 55.21H34.75c-.66 0-1.2-.54-1.2-1.2s.54-1.2 1.2-1.2h18.36c.66 0 1.2.54 1.2 1.2s-.54 1.2-1.2 1.2zm-40.79 0h-.43c-.66 0-1.2-.54-1.2-1.2s.54-1.2 1.2-1.2h.43c.66 0 1.2.54 1.2 1.2s-.54 1.2-1.2 1.2z"/><path class="st9" d="M33.87 43.5V31.4l-6.21 2.54V31.4l-5.65 2.3v-2.3l-11.25 4.12v7.98"/><path class="st9" d="M13.96 38.56h16.3v4.28h-16.3zm25.66-3.9h15.11M25.6 19.78h-5.62m5.62 3.98h-3.62m18.51 15.23h3.44"/></svg>