<svg xmlns="http://www.w3.org/2000/svg" width="47" height="186.151"><g data-name="Grupo 20468"><g data-name="Trazado 11273" fill="#fff"><path d="M28 122.453c-1.93 0-3.5-1.57-3.5-3.5s1.57-3.5 3.5-3.5 3.5 1.57 3.5 3.5c0 .738-.236 1.412-.764 2.186l-.005.008-.005.008c-.41.625-1.438 1.298-2.726 1.298z"/><path d="M28 116.453a2.503 2.503 0 00-2.5 2.5c0 1.378 1.122 2.5 2.5 2.5.972 0 1.675-.52 1.89-.847l.02-.03c.52-.762.59-1.248.59-1.623 0-1.378-1.122-2.5-2.5-2.5m0-2a4.5 4.5 0 014.5 4.5c0 .925-.279 1.784-.938 2.75-.626.955-2.001 1.75-3.562 1.75a4.5 4.5 0 010-9z" fill="#00af00"/></g><g data-name="Trazado 11274" fill="#fff"><path d="M28 182.566c-1.93 0-3.5-1.57-3.5-3.5s1.57-3.5 3.5-3.5 3.5 1.57 3.5 3.5c0 .738-.236 1.412-.764 2.186l-.005.008-.005.008c-.41.625-1.438 1.298-2.726 1.298z"/><path d="M28 176.566a2.503 2.503 0 00-2.5 2.5c0 1.378 1.122 2.5 2.5 2.5.972 0 1.675-.52 1.89-.847l.02-.03c.52-.762.59-1.248.59-1.623 0-1.378-1.122-2.5-2.5-2.5m0-2a4.5 4.5 0 014.5 4.5c0 .925-.279 1.784-.938 2.75-.626.955-2.001 1.75-3.562 1.75a4.5 4.5 0 010-9z" fill="#00af00"/></g><g data-name="Grupo 20467" fill="none"><path data-name="Línea 2119" stroke="#505d6c" opacity=".29" d="M26.152 54.151v132"/><g data-name="Grupo 20324"><g data-name="Grupo 16058" stroke="#95a6b1" stroke-linecap="round" stroke-linejoin="round" stroke-width="1.5" transform="translate(-90)"><path data-name="Trazado 17751" d="M97.864 12.173V9.427a1.928 1.928 0 011.93-1.939h4.558a1.934 1.934 0 011.93 1.939v11.318"/><path data-name="Trazado 17752" d="M106.282 32.3v10.119h-8.418V24.383"/><path data-name="Trazado 17753" d="M114.192 42.419V30.884"/><path data-name="Trazado 17754" d="M114.192 22.158v-6.089a3.035 3.035 0 00-2.917-3.144h-4.993"/><path data-name="Línea 2122" d="M134.239 42.417H95.108"/><circle data-name="Elipse 2591" cx="6.539" cy="6.539" r="6.539" transform="translate(102.796 19.981)"/><circle data-name="Elipse 2592" cx="3.533" cy="3.533" r="3.533" transform="translate(105.802 22.987)"/><circle data-name="Elipse 2593" cx="3.052" cy="3.052" r="3.052" transform="translate(121.5 23.467)"/><path data-name="Línea 3547" d="M110.924 20.176l13.998 3.314"/><path data-name="Línea 3548" d="M124.552 29.572l-13.701 3.309"/><path data-name="Rectángulo 5301" d="M121.974 16.326h6.387a3.45 3.45 0 013.45 3.45V42.42h0-13.287 0V19.776a3.45 3.45 0 013.45-3.45z"/><path data-name="Trazado 17755" d="M125.783 33.059l-1.231 2.541h1.923l-1.462 3.231"/><path data-name="Línea 3549" d="M121.974 16.327v-3.58"/><path data-name="Línea 3550" d="M128.361 16.327v-3.58"/><path data-name="Línea 3551" d="M120.585 13.67h9.154"/><path data-name="Línea 3552" d="M100.003 7.308V4.012"/><path data-name="Línea 3553" d="M104.585 7.308V4.012"/><path data-name="Línea 3554" d="M98.914 4.935h7.049"/></g><path data-name="Rectángulo 5125" d="M0 0h47v47H0z"/><path data-name="Trazado 11848" d="M11.825 18.26a3.9 3.9 0 11-3.9-3.9h0a3.883 3.883 0 013.9 3.868z" stroke="#19a500" stroke-linecap="round" stroke-linejoin="round" stroke-width="1.5"/></g></g></g></svg>