<svg xmlns="http://www.w3.org/2000/svg" width="52.962" height="121.495"><g data-name="Grupo 20497"><g data-name="Grupo 18647"><g data-name="Grupo 20343" fill="none"><g data-name="Grupo 16165" transform="translate(5.108 4.013)" stroke="#95a6b1" stroke-linecap="round" stroke-linejoin="round" stroke-width="1.5"><path data-name="Trazado 17832" d="M2.756 8.161V5.415a1.928 1.928 0 011.93-1.939h4.558a1.934 1.934 0 011.93 1.939v11.318"/><path data-name="Trazado 17833" d="M11.174 28.288v10.119H2.756V20.371"/><path data-name="Trazado 17834" d="M19.084 38.407V26.872"/><path data-name="Trazado 17835" d="M19.084 18.146v-6.089a3.035 3.035 0 00-2.917-3.144h-4.993"/><path data-name="Línea 2122" d="M39.131 38.405H0"/><circle data-name="Elipse 2612" cx="6.539" cy="6.539" r="6.539" transform="translate(7.688 15.969)"/><circle data-name="Elipse 2613" cx="3.533" cy="3.533" r="3.533" transform="translate(10.694 18.974)"/><circle data-name="Elipse 2614" cx="3.052" cy="3.052" r="3.052" transform="translate(26.392 19.455)"/><path data-name="Línea 3789" d="M15.816 16.164l13.998 3.314"/><path data-name="Línea 3790" d="M29.444 25.56l-13.701 3.309"/><path data-name="Rectángulo 5343" d="M26.866 12.314h6.387a3.45 3.45 0 013.45 3.45v22.644h0-13.287 0V15.764a3.45 3.45 0 013.45-3.45z"/><path data-name="Trazado 17836" d="M30.675 29.047l-1.231 2.541h1.923l-1.462 3.231"/><path data-name="Línea 3791" d="M26.866 12.315v-3.58"/><path data-name="Línea 3792" d="M33.253 12.315v-3.58"/><path data-name="Línea 3793" d="M25.477 9.658h9.154"/><path data-name="Línea 3794" d="M4.895 3.296V0"/><path data-name="Línea 3795" d="M9.477 3.296V0"/><path data-name="Línea 3796" d="M3.806.923h7.049"/></g><path data-name="Rectángulo 5125" d="M0 .001h47v47H0z"/><path data-name="Trazado 11848" d="M11.825 18.261a3.9 3.9 0 11-3.9-3.9h0a3.883 3.883 0 013.9 3.868z" stroke="#19a500" stroke-linecap="round" stroke-linejoin="round" stroke-width="1.5"/></g></g><path data-name="Trazado 19751" d="M24.88 50.372v70.623h27.583" fill="none" stroke="#505d6c" stroke-linecap="round" stroke-linejoin="round" stroke-dasharray="4" opacity=".5"/></g></svg>