<svg xmlns="http://www.w3.org/2000/svg" width="28.729" height="9"><g data-name="Grupo 20498"><path data-name="Trazado 19820" d="M.5 4.5h27.729" fill="none" stroke="#505d6c" stroke-linecap="round" stroke-linejoin="round" stroke-dasharray="4" opacity=".5"/><g data-name="Trazado 19753" fill="#fff"><path d="M27.229 4.5c0 1.93-1.57 3.5-3.5 3.5s-3.5-1.57-3.5-3.5 1.57-3.5 3.5-3.5c.738 0 1.412.236 2.186.764l.008.005.008.005c.625.41 1.298 1.438 1.298 2.726z"/><path d="M21.229 4.5c0 1.378 1.122 2.5 2.5 2.5s2.5-1.122 2.5-2.5c0-.972-.52-1.675-.847-1.89l-.03-.02C24.59 2.07 24.104 2 23.729 2a2.503 2.503 0 00-2.5 2.5m-2 0a4.5 4.5 0 014.5-4.5c.925 0 1.784.279 2.75.938.955.626 1.75 2.001 1.75 3.562a4.5 4.5 0 01-9 0z" fill="#00af00"/></g></g></svg>