<svg xmlns="http://www.w3.org/2000/svg" width="20.001" height="174.113"><g data-name="Grupo 18267"><path data-name="Línea 3798" fill="none" stroke="#505d6c" opacity=".29" d="M15.501 4.645V173.52"/><g data-name="Trazado 18737" fill="#fff"><path d="M15.501 8c-1.93 0-3.5-1.57-3.5-3.5s1.57-3.5 3.5-3.5 3.5 1.57 3.5 3.5c0 .738-.236 1.412-.764 2.186l-.005.008-.005.008C17.817 7.327 16.789 8 15.501 8z"/><path d="M15.501 2a2.503 2.503 0 00-2.5 2.5c0 1.378 1.122 2.5 2.5 2.5.972 0 1.675-.52 1.89-.847l.02-.03c.52-.762.59-1.248.59-1.623 0-1.378-1.122-2.5-2.5-2.5m0-2a4.5 4.5 0 014.5 4.5c0 .925-.279 1.784-.938 2.75-.626.955-2.001 1.75-3.562 1.75a4.5 4.5 0 010-9z" fill="#00af00"/></g><g data-name="Trazado 18738" fill="#fff"><path d="M15.501 173.113c-1.93 0-3.5-1.57-3.5-3.5s1.57-3.5 3.5-3.5 3.5 1.57 3.5 3.5c0 .738-.236 1.412-.764 2.186l-.005.008-.005.008c-.41.625-1.438 1.298-2.726 1.298z"/><path d="M15.501 167.113a2.503 2.503 0 00-2.5 2.5c0 1.378 1.122 2.5 2.5 2.5.972 0 1.675-.52 1.89-.847l.02-.03c.52-.762.59-1.248.59-1.623 0-1.378-1.122-2.5-2.5-2.5m0-2a4.5 4.5 0 014.5 4.5c0 .925-.279 1.784-.938 2.75-.626.955-2.001 1.75-3.562 1.75a4.5 4.5 0 010-9z" fill="#00af00"/></g><text data-name="COMPUESTO POR" transform="rotate(-90 62.284 62.284)" fill="#505d6c" font-size="9" font-family="Roboto-Bold, Roboto" font-weight="700" style="isolation:isolate"><tspan x="1.314" y="9">COMPUESTO POR</tspan></text></g></svg>