<svg xmlns="http://www.w3.org/2000/svg" width="47" height="120.336"><g data-name="Grupo 16722"><path data-name="Línea 2119" fill="none" stroke="#505d6c" opacity=".29" d="M23.277 50.77v67"/><g data-name="Trazado 11273" fill="#fff"><path d="M23.277 119.336c-1.93 0-3.5-1.57-3.5-3.5s1.57-3.5 3.5-3.5 3.5 1.57 3.5 3.5c0 .738-.236 1.412-.764 2.186l-.005.008-.005.008c-.41.625-1.438 1.298-2.726 1.298z"/><path d="M23.277 113.336a2.503 2.503 0 00-2.5 2.5c0 1.378 1.122 2.5 2.5 2.5.972 0 1.675-.52 1.89-.847l.01-.015.01-.015c.52-.762.59-1.248.59-1.623 0-1.378-1.122-2.5-2.5-2.5m0-2a4.5 4.5 0 014.5 4.5c0 .925-.279 1.784-.938 2.75-.626.955-2.001 1.75-3.562 1.75a4.5 4.5 0 010-9z" fill="#00af00"/></g><g data-name="Grupo 16057" fill="none"><path data-name="Rectángulo 5125" d="M0 0h47v47H0z"/><path data-name="Trazado 11848" d="M13.806 9.141a3.9 3.9 0 11-3.9-3.9h0a3.883 3.883 0 013.9 3.868z" stroke="#19a500" stroke-linecap="round" stroke-linejoin="round" stroke-width="1.5"/><g data-name="Grupo 16057" stroke="#95a6b1" stroke-linecap="round" stroke-linejoin="round" stroke-width="1.5"><path data-name="Trazado 17737" d="M36.662 23.416v.084a13.206 13.206 0 01-1.9 6.806 13.22 13.22 0 01-2.925 3.37 13.107 13.107 0 01-6.471 2.845 12.15 12.15 0 01-1.867.139 1.977 1.977 0 01-.2-.007 12.9 12.9 0 01-5.114-1.116 9.644 9.644 0 01-1.058-.526 13.1 13.1 0 01-4.063-3.5h-.007a12.654 12.654 0 01-.89-1.313 12.97 12.97 0 01-1.751-5.267 12.149 12.149 0 01-.08-1.371v-.06a13.1 13.1 0 015.157-10.446 12.434 12.434 0 011.518-1.006 12.861 12.861 0 014.508-1.561 12.709 12.709 0 011.984-.154 2.268 2.268 0 01.233.008A12.958 12.958 0 0129 11.54a10.758 10.758 0 011.109.584 12.919 12.919 0 014.019 3.625 12.085 12.085 0 01.854 1.32 13.1 13.1 0 011.59 4.91 13.343 13.343 0 01.09 1.437z"/><path data-name="Trazado 17738" d="M15.71 5.941A19.2 19.2 0 116.477 14.6"/><path data-name="Trazado 17739" d="M23.386 19.513a10.888 10.888 0 00.35-9.169 2.268 2.268 0 00-.233-.008 12.709 12.709 0 00-1.984.154 12.873 12.873 0 00-4.509 1.561 12.5 12.5 0 00-1.517 1.006A13.162 13.162 0 0010.336 23.5v.059a12.149 12.149 0 00.08 1.371"/><path data-name="Línea 3546" d="M13.064 31.513h-.007"/><path data-name="Trazado 17740" d="M17.01 12.051a10.832 10.832 0 014.5 7.987"/><path data-name="Trazado 17741" d="M19.994 21.578a10.837 10.837 0 00-7.769-4.878 13.315 13.315 0 00-1.889 6.8v.059a12.149 12.149 0 00.08 1.371 12.97 12.97 0 001.751 5.27 12.654 12.654 0 00.89 1.313h.007a13.1 13.1 0 004.063 3.5 9.644 9.644 0 001.058.526"/><path data-name="Trazado 17742" d="M19.5 23.547a10.866 10.866 0 00-9.169.015 12.149 12.149 0 00.08 1.371 12.97 12.97 0 001.756 5.267 12.654 12.654 0 00.89 1.313h.007a13.1 13.1 0 004.063 3.5 9.644 9.644 0 001.058.526 12.9 12.9 0 005.115 1.117 1.977 1.977 0 00.2.007 12.15 12.15 0 001.867-.139"/><path data-name="Trazado 17743" d="M19.979 25.393a10.855 10.855 0 00-7.812 4.807 12.654 12.654 0 00.89 1.313h.007a13.1 13.1 0 004.063 3.5 9.644 9.644 0 001.058.526 12.9 12.9 0 005.115 1.117 1.977 1.977 0 00.2.007 12.15 12.15 0 001.867-.139 13.107 13.107 0 006.471-2.845"/><path data-name="Trazado 17744" d="M21.373 26.881a10.854 10.854 0 00-4.246 8.133 9.644 9.644 0 001.058.526 12.9 12.9 0 005.115 1.116 1.977 1.977 0 00.2.007 12.15 12.15 0 001.867-.139 13.107 13.107 0 006.471-2.845 13.22 13.22 0 002.925-3.37A12.919 12.919 0 0035.867 28"/><path data-name="Trazado 17745" d="M23.576 27.486a10.922 10.922 0 00-.277 9.17 1.977 1.977 0 00.2.007 12.15 12.15 0 001.867-.139 13.107 13.107 0 006.471-2.845 13.22 13.22 0 002.925-3.37 13.206 13.206 0 001.9-6.806v-.087a13.343 13.343 0 00-.087-1.437"/><path data-name="Trazado 17746" d="M34.131 15.749a12.085 12.085 0 01.854 1.32 13.1 13.1 0 011.59 4.91 13.343 13.343 0 01.087 1.437v.084a13.206 13.206 0 01-1.9 6.806 13.22 13.22 0 01-2.925 3.37 12.687 12.687 0 01-1.875 1.284 10.847 10.847 0 01-4.216-8.155V26.8"/><path data-name="Trazado 17747" d="M29 11.54a10.758 10.758 0 011.109.584 12.932 12.932 0 014.019 3.625 12.085 12.085 0 01.854 1.32 13.1 13.1 0 011.59 4.91 13.343 13.343 0 01.087 1.437v.084a13.206 13.206 0 01-1.9 6.806 10.9 10.9 0 01-7.659-5.074"/><path data-name="Trazado 17748" d="M27.493 23.525a10.8 10.8 0 004.457.956 10.97 10.97 0 004.712-1.065 13.343 13.343 0 00-.087-1.437 13.1 13.1 0 00-1.59-4.91 12.085 12.085 0 00-.854-1.32 12.932 12.932 0 00-4.019-3.625A10.758 10.758 0 0029 11.54a12.958 12.958 0 00-5.267-1.2 2.268 2.268 0 00-.233-.008 12.709 12.709 0 00-1.984.154"/><path data-name="Trazado 17749" d="M27 21.585a10.9 10.9 0 007.981-4.516"/><path data-name="Trazado 17750" d="M25.713 20.17a10.822 10.822 0 004.4-8.046A10.758 10.758 0 0029 11.54a12.958 12.958 0 00-5.267-1.2 2.268 2.268 0 00-.233-.008 12.709 12.709 0 00-1.984.154 12.873 12.873 0 00-4.509 1.561 12.5 12.5 0 00-1.517 1.006 12.951 12.951 0 00-4.267 5.69"/><circle data-name="Elipse 2590" cx="3.991" cy="3.991" r="3.991" transform="translate(19.509 19.509)"/></g></g></g></svg>