<svg data-name="Grupo 20118" xmlns="http://www.w3.org/2000/svg" width="47.173" height="47.173"><g data-name="Grupo 19859"><path data-name="Rectángulo 3799-2" fill="none" d="M0 0h47.173v47.173H0z"/><g data-name="Grupo 19858"><g data-name="Grupo 19856"><g data-name="Grupo 19855" fill="none" stroke="#95a6b1" stroke-linecap="round" stroke-linejoin="round" stroke-width="1.5"><path data-name="Línea 4358" d="M10.816 25.436H8.333"/><path data-name="Línea 4359" d="M16.807 25.436h-2.462"/><path data-name="Trazado 19556" d="M17.997 20.216a.93.93 0 00-.79-1.024H7.954a.93.93 0 00-.79 1.024v.24a.93.93 0 00.79 1.024h9.253a.93.93 0 00.79-1.024z"/><path data-name="Línea 4360" d="M10.816 29.568H6.263"/><path data-name="Trazado 19557" d="M14.345 35.459h5.325v-6.01h-5.325"/><path data-name="Línea 4361" d="M5.851 35.339h4.965"/><path data-name="Rectángulo 5702" d="M3.65 27.888h2.132v9.132H3.65z"/><path data-name="Rectángulo 5703" d="M10.816 21.498h3.529v15.741h-3.529z"/></g></g><g data-name="Grupo 19857" transform="translate(19.669 6.519)" fill="none" stroke="#95a6b1" stroke-linecap="round" stroke-linejoin="round" stroke-width="1.5"><path data-name="Trazado 19558" d="M0 24.548v9.588h20.964v-9.588"/><path data-name="Trazado 19559" d="M2.955 19.027H0v5.521"/><path data-name="Trazado 19560" d="M20.964 24.548v-5.521h-3.9"/><path data-name="Trazado 19561" d="M17.067 3.706V1.868a1.869 1.869 0 011.869-1.87h3.049a1.87 1.87 0 011.87 1.87v29.245h-2.891l-2.62-4.676a2.067 2.067 0 00-1.6-.765H0"/><path data-name="Trazado 19562" d="M2.955 19.287v1.781a.722.722 0 00.722.722h1.517a.722.722 0 00.724-.722v-4.059a.722.722 0 01.722-.722h1.344a.722.722 0 01.722.722v4.059a.722.722 0 00.722.722h1.518a.723.723 0 00.722-.722v-4.059a.722.722 0 01.722-.722h1a.722.722 0 01.722.722v4.059a.722.722 0 00.722.722h1.518a.723.723 0 00.722-.722v-6.256"/><circle data-name="Elipse 3061" cx="1.213" cy="1.213" r="1.213" transform="translate(3.233 29.342)"/><circle data-name="Elipse 3062" cx="1.213" cy="1.213" r="1.213" transform="translate(8.721 29.342)"/></g></g></g><path data-name="Trazado 11848" d="M39.777 15.554a3.042 3.042 0 11-3.041-3.041h0a3.029 3.029 0 013.041 3.018z" fill="none" stroke="#19a500" stroke-linecap="round" stroke-linejoin="round" stroke-width="1.5"/></svg>