<svg version="1.1" id="Layer_1" xmlns="http://www.w3.org/2000/svg" x="0" y="0" width="24" height="24" xml:space="preserve"><style>.st1{fill:#485361}</style><g id="Group_10606" transform="translate(-6014 -1079)"><path fill="#fff" d="M6014 1079h24v24h-24z" id="Rectangle_3919"/><g id="Group_10605" transform="translate(6016.375 1081)"><path class="st1" d="M19.6 20.8h-20c-.4 0-.8-.4-.8-.8V0c0-.4.4-.8.8-.8h20c.4 0 .8.4.8.8v20c0 .4-.3.8-.8.8zM.4 19.2h18.4V.8H.4v18.4z" id="Rectangle_3694"/><g id="Group_9842" transform="translate(5.032 5.031)"><path class="st1" d="M9.9 10.7c-.2 0-.4-.1-.6-.2L-.6.6C-.9.3-.9-.2-.6-.5S.2-.8.5-.5l9.9 9.9c.3.3.3.8 0 1.1-.1.1-.3.2-.5.2z" id="Line_1886"/><path class="st1" d="M0 10.7c-.2 0-.4-.1-.6-.2-.3-.3-.3-.8 0-1.1L9.3-.5c.3-.3.8-.3 1.1 0s.3.8 0 1.1L.5 10.5c-.1.1-.3.2-.5.2z" id="Line_1887"/></g></g></g></svg>