<svg version="1.1" id="Layer_1" xmlns="http://www.w3.org/2000/svg" x="0" y="0" width="20" height="20" xml:space="preserve"><style>.st0{fill:#505d6c}.st1{fill:#fff}</style><g id="Component_41_2" transform="translate(.392 .392)"><g id="Path_8642"><path class="st0" d="M9.6.6c5 0 9 4 9 9s-4 9-9 9-9-4-9-9 4-9 9-9z"/><path class="st0" d="M9.6 19C4.4 19 .2 14.8.2 9.6S4.4.2 9.6.2 19 4.4 19 9.6 14.8 19 9.6 19zm0-18C4.9 1 1 4.9 1 9.6c0 4.7 3.9 8.6 8.6 8.6 4.7 0 8.6-3.9 8.6-8.6 0-4.7-3.8-8.6-8.6-8.6z"/></g><path class="st1" d="M9.6 14c-.5 0-1-.4-1-1V5.6c0-.5.4-1 1-1s1 .4 1 1V13c0 .6-.5 1-1 1z" id="Line_1358"/><path class="st1" d="M13.6 10.6h-8c-.5 0-1-.4-1-1s.4-1 1-1h7.9c.5 0 1 .4 1 1s-.4 1-.9 1z" id="Line_1359"/></g></svg>