<svg xmlns="http://www.w3.org/2000/svg" width="9" height="113.792"><g data-name="Grupo 18265"><path data-name="Línea 2119" fill="none" stroke="#505d6c" opacity=".29" d="M4.5 0v109"/><g data-name="Trazado 11273" fill="#fff"><path d="M4.5 8C2.57 8 1 6.43 1 4.5S2.57 1 4.5 1 8 2.57 8 4.5c0 .738-.236 1.412-.764 2.186l-.005.008-.005.008C6.816 7.327 5.788 8 4.5 8z"/><path d="M4.5 2A2.503 2.503 0 002 4.5C2 5.878 3.122 7 4.5 7c.972 0 1.675-.52 1.89-.847l.02-.03C6.93 5.36 7 4.875 7 4.5 7 3.122 5.878 2 4.5 2m0-2A4.5 4.5 0 019 4.5c0 .925-.279 1.784-.938 2.75C7.436 8.205 6.061 9 4.5 9a4.5 4.5 0 010-9z" fill="#00af00"/></g><g data-name="Trazado 11274" fill="#fff"><path d="M4.5 112.792c-1.93 0-3.5-1.57-3.5-3.5s1.57-3.5 3.5-3.5 3.5 1.57 3.5 3.5c0 .738-.236 1.412-.764 2.186l-.005.008-.005.008c-.41.625-1.438 1.298-2.726 1.298z"/><path d="M4.5 106.792a2.503 2.503 0 00-2.5 2.5c0 1.378 1.122 2.5 2.5 2.5.972 0 1.675-.52 1.89-.847l.02-.03c.52-.762.59-1.248.59-1.623 0-1.378-1.122-2.5-2.5-2.5m0-2a4.5 4.5 0 014.5 4.5c0 .925-.279 1.784-.938 2.75-.626.955-2.001 1.75-3.562 1.75a4.5 4.5 0 010-9z" fill="#00af00"/></g></g></svg>