<svg xmlns="http://www.w3.org/2000/svg" width="52.12" height="82.064"><g data-name="Grupo 18264"><path data-name="Trazado 18853" d="M24.474 45.513v27.854" fill="none" stroke="#505d6c" opacity=".29"/><g data-name="Trazado 11273" fill="#fff"><path d="M24.474 81.064c-1.93 0-3.5-1.518-3.5-3.383 0-1.866 1.57-3.384 3.5-3.384s3.5 1.518 3.5 3.384c0 .708-.233 1.357-.757 2.105l-.005.007-.005.008c-.41.608-1.44 1.263-2.733 1.263z"/><path d="M24.474 75.297c-1.378 0-2.5 1.07-2.5 2.384 0 1.314 1.122 2.383 2.5 2.383.931 0 1.674-.48 1.903-.821l.021-.03c.506-.724.576-1.164.576-1.532 0-1.315-1.122-2.384-2.5-2.384m0-2c2.485 0 4.5 1.963 4.5 4.384 0 .9-.279 1.737-.938 2.678-.626.931-2.001 1.705-3.562 1.705-2.485 0-4.5-1.962-4.5-4.383 0-2.421 2.015-4.384 4.5-4.384z" fill="#00af00"/></g><g data-name="Grupo 15012" transform="translate(.8 .695)" fill="none" stroke-linecap="round" stroke-linejoin="round"><path data-name="Trazado 5703" d="M9.532 15.998a4.613 4.613 0 110-.064z" stroke="#19a500" stroke-width="1.6" style="mix-blend-mode:multiply;isolation:isolate"/><path data-name="Trazado 11989" d="M4.887 8.164V5.213a2.1 2.1 0 012.13-2.085h5.03a2.107 2.107 0 012.13 2.085v12.166" stroke="#95a6b1" stroke-width="1.389"/><path data-name="Trazado 11990" d="M14.177 29.799V40.68h-9.29V23.156" stroke="#95a6b1" stroke-width="1.389"/><path data-name="Trazado 11991" d="M22.907 40.68v-12.4" stroke="#95a6b1" stroke-width="1.389"/><path data-name="Trazado 11992" d="M22.907 18.898v-6.546a3.3 3.3 0 00-3.22-3.38h-5.51" stroke="#95a6b1" stroke-width="1.389"/><path data-name="Línea 2122" stroke="#95a6b1" stroke-width="1.389" d="M50.626 40.678H.877"/><ellipse data-name="Elipse 2317" cx="7.216" cy="7.03" rx="7.216" ry="7.03" transform="translate(10.329 16.557)" stroke="#95a6b1" stroke-width="1.342"/><ellipse data-name="Elipse 2318" cx="3.899" cy="3.798" rx="3.899" ry="3.798" transform="translate(13.647 19.789)" stroke="#95a6b1" stroke-width="1.342"/><ellipse data-name="Elipse 2319" cx="3.369" cy="3.281" rx="3.369" ry="3.281" transform="translate(30.971 20.306)" stroke="#95a6b1" stroke-width="1.389"/><path data-name="Línea 2507" stroke="#95a6b1" stroke-width="1.389" d="M19.299 16.767l15.448 3.563"/><path data-name="Línea 2508" stroke="#95a6b1" stroke-width="1.389" d="M34.339 26.868l-15.12 3.557"/><path data-name="Rectángulo 4849" d="M31.494 12.629h7.049a3.807 3.807 0 013.807 3.807v24.245h0-14.663 0V16.436a3.807 3.807 0 013.807-3.807z" stroke="#95a6b1" stroke-width="1.342"/><path data-name="Trazado 11993" d="M35.693 30.616l-1.358 2.729h2.122l-1.613 3.473" stroke="#95a6b1" stroke-width="1.389"/><path data-name="Línea 2509" stroke="#95a6b1" stroke-width="1.389" d="M31.494 12.629V9.695"/><path data-name="Línea 2510" stroke="#95a6b1" stroke-width="1.389" d="M38.543 12.629V9.695"/><path data-name="Línea 2511" stroke="#95a6b1" stroke-width="1.389" d="M29.961 10.687h10.102"/><path data-name="Línea 2512" stroke="#95a6b1" stroke-width="1.389" d="M7.247 2.934V0"/><path data-name="Línea 2513" stroke="#95a6b1" stroke-width="1.389" d="M12.304 2.934V0"/><path data-name="Línea 2514" stroke="#95a6b1" stroke-width="1.389" d="M6.045.992h7.779"/></g></g></svg>