<svg xmlns="http://www.w3.org/2000/svg" width="44.323" height="81.019"><g data-name="Grupo 18263"><path data-name="Línea 2119" fill="none" stroke="#505d6c" opacity=".29" d="M22.383 44.145l-.492 30.524"/><g data-name="Trazado 11273" fill="#fff"><path d="M21.891 80.02c-1.93 0-3.5-1.518-3.5-3.383 0-1.866 1.57-3.384 3.5-3.384s3.5 1.518 3.5 3.384c0 .708-.233 1.357-.757 2.105l-.005.007-.005.008c-.41.608-1.44 1.263-2.733 1.263z"/><path d="M21.891 74.253c-1.378 0-2.5 1.07-2.5 2.384 0 1.314 1.122 2.383 2.5 2.383.931 0 1.674-.48 1.903-.821l.021-.03c.506-.724.576-1.164.576-1.532 0-1.315-1.122-2.384-2.5-2.384m0-2c2.485 0 4.5 1.963 4.5 4.384 0 .9-.279 1.737-.938 2.678-.626.931-2.001 1.705-3.562 1.705-2.485 0-4.5-1.962-4.5-4.383 0-2.421 2.015-4.384 4.5-4.384z" fill="#00af00"/></g><g data-name="Grupo 15011" transform="translate(.694 .695)" fill="none" stroke-linecap="round" stroke-linejoin="round"><path data-name="Trazado 5703" d="M11.062 5.426a4.172 4.172 0 110-.058z" stroke="#19a500" stroke-width="1.6" style="mix-blend-mode:multiply;isolation:isolate"/><path data-name="Trazado 11975" d="M36.18 20.82v.1a14.094 14.094 0 01-2.12 7.411 14.477 14.477 0 01-3.27 3.67 14.083 14.083 0 01-2.1 1.4 14.534 14.534 0 01-5.137 1.7 13.959 13.959 0 01-2.088.15 2.229 2.229 0 01-.228-.008 14.735 14.735 0 01-5.711-1.223 10.873 10.873 0 01-1.183-.572 14.573 14.573 0 01-4.542-3.813h-.008a14.066 14.066 0 01-2.952-7.166 12.9 12.9 0 01-.089-1.493v-.056a14.21 14.21 0 012.115-7.416 14.39 14.39 0 013.65-3.964 13.883 13.883 0 011.7-1.1 15.12 15.12 0 017.25-1.862c.09 0 .171 0 .261.008a14.785 14.785 0 015.887 1.3 12.32 12.32 0 011.24.635 14.348 14.348 0 014.493 3.948 12.891 12.891 0 01.954 1.438 14.01 14.01 0 011.778 5.346 14.166 14.166 0 01.1 1.567z" stroke="#95a6b1" stroke-width="1.389"/><path data-name="Trazado 11976" d="M12.759 1.795a21.871 21.871 0 018.708-1.8c11.856 0 21.467 9.362 21.467 20.912s-9.611 20.917-21.467 20.917S0 32.461 0 20.912a20.4 20.4 0 012.438-9.69" stroke="#95a6b1" stroke-width="1.389"/><path data-name="Trazado 11977" d="M21.34 16.571a11.578 11.578 0 00.391-9.985c-.09-.008-.171-.008-.261-.008a15.12 15.12 0 00-7.257 1.866 13.883 13.883 0 00-1.7 1.1 14.39 14.39 0 00-3.646 3.96 14.2 14.2 0 00-2.115 7.416v.063a12.9 12.9 0 00.089 1.493" stroke="#95a6b1" stroke-width="1.389"/><path data-name="Línea 2506" stroke="#95a6b1" stroke-width="1.389" d="M9.801 29.637h-.008"/><path data-name="Trazado 11978" d="M14.213 8.445a11.735 11.735 0 015.031 8.7" stroke="#95a6b1" stroke-width="1.389"/><path data-name="Trazado 11979" d="M17.548 18.818a12.156 12.156 0 00-8.681-5.314 14.2 14.2 0 00-2.112 7.411v.063a12.9 12.9 0 00.089 1.493 14.066 14.066 0 002.949 7.165h.008a14.573 14.573 0 004.542 3.813 10.873 10.873 0 001.183.572" stroke="#95a6b1" stroke-width="1.389"/><path data-name="Trazado 11980" d="M17.002 20.967a12.451 12.451 0 00-10.25.016 12.9 12.9 0 00.089 1.493 14.066 14.066 0 002.952 7.166h.008a14.573 14.573 0 004.542 3.813 10.873 10.873 0 001.183.572 14.735 14.735 0 005.716 1.215 2.229 2.229 0 00.228.008 13.959 13.959 0 002.088-.15" stroke="#95a6b1" stroke-width="1.389"/><path data-name="Trazado 11981" d="M17.532 22.973a12.186 12.186 0 00-8.734 5.235 13.779 13.779 0 001 1.43h.008a14.573 14.573 0 004.542 3.813 10.873 10.873 0 001.183.572 14.735 14.735 0 005.716 1.215 2.229 2.229 0 00.22.007 13.959 13.959 0 002.088-.15 14.534 14.534 0 005.137-1.7 14.083 14.083 0 002.1-1.4" stroke="#95a6b1" stroke-width="1.389"/><path data-name="Trazado 11982" d="M19.089 24.594a11.733 11.733 0 00-4.746 8.857 10.873 10.873 0 001.183.572 14.735 14.735 0 005.716 1.219 2.229 2.229 0 00.225 0 13.959 13.959 0 002.088-.15 14.534 14.534 0 005.137-1.7 14.083 14.083 0 002.1-1.4 14.477 14.477 0 003.27-3.67 13.871 13.871 0 001.232-2.51" stroke="#95a6b1" stroke-width="1.389"/><path data-name="Trazado 11983" d="M21.552 25.253a11.614 11.614 0 00-.31 9.985 2.229 2.229 0 00.228.008 13.959 13.959 0 002.088-.15 14.534 14.534 0 005.137-1.7 14.083 14.083 0 002.1-1.4 14.477 14.477 0 003.27-3.67 14.094 14.094 0 002.12-7.411v-.1a14.166 14.166 0 00-.1-1.564" stroke="#95a6b1" stroke-width="1.389"/><path data-name="Trazado 11984" d="M33.351 12.472a12.891 12.891 0 01.954 1.438 14.01 14.01 0 011.778 5.346 14.166 14.166 0 01.1 1.564v.1a14.094 14.094 0 01-2.12 7.411 14.477 14.477 0 01-3.27 3.67 14.083 14.083 0 01-2.1 1.4 11.718 11.718 0 01-4.713-8.88v-.008" stroke="#95a6b1" stroke-width="1.389"/><path data-name="Trazado 11985" d="M27.618 7.885a12.32 12.32 0 011.24.635 14.348 14.348 0 014.493 3.948 12.891 12.891 0 01.954 1.438 14.01 14.01 0 011.778 5.346 14.166 14.166 0 01.1 1.564v.1a14.094 14.094 0 01-2.12 7.411 12.2 12.2 0 01-8.57-5.528" stroke="#95a6b1" stroke-width="1.389"/><path data-name="Trazado 11986" d="M25.93 20.94a12.354 12.354 0 004.983 1.04 12.521 12.521 0 005.267-1.16 14.166 14.166 0 00-.1-1.564 14.01 14.01 0 00-1.778-5.346 12.891 12.891 0 00-.954-1.438 14.348 14.348 0 00-4.49-3.952 12.32 12.32 0 00-1.24-.635 14.788 14.788 0 00-5.887-1.3c-.09-.008-.171-.008-.261-.008a14.6 14.6 0 00-2.218.167" stroke="#95a6b1" stroke-width="1.389"/><path data-name="Trazado 11987" d="M25.384 18.826a12.255 12.255 0 008.921-4.917" stroke="#95a6b1" stroke-width="1.389"/><path data-name="Trazado 11988" d="M23.941 17.286a11.7 11.7 0 004.917-8.766 12.32 12.32 0 00-1.24-.635 14.788 14.788 0 00-5.887-1.3c-.09-.008-.171-.008-.261-.008a15.12 15.12 0 00-7.257 1.866 13.883 13.883 0 00-1.7 1.1 14.39 14.39 0 00-3.646 3.961 13.969 13.969 0 00-1.118 2.232" stroke="#95a6b1" stroke-width="1.389"/><ellipse data-name="Elipse 2316" cx="4.461" cy="4.346" rx="4.461" ry="4.346" transform="translate(17.006 16.566)" stroke="#95a6b1" stroke-width="1.389"/></g></g></svg>