<svg id="Capa_1" data-name="Capa 1" xmlns="http://www.w3.org/2000/svg" viewBox="0 0 64 64"><defs><style>.cls-2{fill:#95a6b1}</style></defs><path d="M4.6 25.3a3.5 3.5 0 01-3.2-2 3.6 3.6 0 011.8-4.7 3.6 3.6 0 012.7-.1 3.5 3.5 0 011.9 1.9 3.1 3.1 0 01.2 2.5A3.3 3.3 0 016.1 25a4 4 0 01-1.5.3zm0-5.4a1.2 1.2 0 00-.8.2 1.9 1.9 0 00-.9 2.5 1.9 1.9 0 002.5 1 2.5 2.5 0 001.1-1.2 2.3 2.3 0 00-.1-1.4 1.8 1.8 0 00-1.1-1z" fill="#19a500"/><path class="cls-2" d="M15.4 20.7h-4.2a1.2 1.2 0 01-1.3-1.2v-1.8a1.3 1.3 0 011.3-1.2h4.2a1.2 1.2 0 011.2 1.2v1.8a1.2 1.2 0 01-1.2 1.2zm-3.9-1.6H15v-1h-3.5zm3.9-1z" id="Rectángulo_4585" data-name="Rectángulo 4585"/><path class="cls-2" d="M19.7 44H5.5a.9.9 0 01-.8-.8v-4.4a1.2 1.2 0 01-1-.5 1.6 1.6 0 01-.5-1.1v-.4a1.6 1.6 0 011.5-1.6V31a1.6 1.6 0 01-1.5-1.6V29a1.6 1.6 0 011.5-1.6v-.9a.9.9 0 01.8-.8.9.9 0 01.8.8v1.7a.9.9 0 01-.8.8h-.7v.4h.7a.9.9 0 01.8.8V36a.9.9 0 01-.8.8h-.7v.4h.7a.9.9 0 01.8.8v4.4h12.6V38a.9.9 0 01.8-.8h.7v-.4h-.7a.9.9 0 01-.8-.8v-5.8a.9.9 0 01.8-.8h.7V29h-.7a.9.9 0 01-.8-.8v-4.8a.8.8 0 01.8-.8.7.7 0 01.8.8v4A1.5 1.5 0 0122 29v.4a1.5 1.5 0 01-1.5 1.6v4.2a1.5 1.5 0 011.5 1.6v.4a1.6 1.6 0 01-1.5 1.6v4.4a.8.8 0 01-.8.8z" id="Trazado_11678" data-name="Trazado 11678"/><path class="cls-2" d="M17 29.8H8.3a.8.8 0 01-.8-.8.7.7 0 01.8-.8H17a.8.8 0 01.8.8.9.9 0 01-.8.8z" id="Línea_2316" data-name="Línea 2316"/><path class="cls-2" d="M17 37.5H8.3a.7.7 0 01-.8-.8.8.8 0 01.8-.8H17a.9.9 0 01.8.8.8.8 0 01-.8.8z" id="Línea_2317" data-name="Línea 2317"/><path class="cls-2" d="M20.6 47.5h-16A1.5 1.5 0 013.2 46v-2.2a1.4 1.4 0 011.4-1.4h16a1.5 1.5 0 011.5 1.4V46a1.5 1.5 0 01-1.5 1.5zM4.8 45.9h15.7V44H4.8zM20.6 44z" id="Rectángulo_4586" data-name="Rectángulo 4586"/><path class="cls-2" d="M20.6 24.2H9.3a.8.8 0 110-1.6h11.1v-1.9H9.2a.8.8 0 01-.8-.8.9.9 0 01.8-.8h11.4a1.4 1.4 0 011.4 1.4v2.3a1.4 1.4 0 01-1.4 1.4zm0-3.5z" id="Rectángulo_4587" data-name="Rectángulo 4587"/><path class="cls-2" d="M34.9 20.7h-4.3a1.2 1.2 0 01-1.2-1.2v-1.8a1.2 1.2 0 011.2-1.2h4.3a1.3 1.3 0 011.2 1.2v1.8a1.2 1.2 0 01-1.2 1.2zM31 19.1h3.5v-1H31zm3.9-1z" id="Rectángulo_4585-2" data-name="Rectángulo 4585"/><path class="cls-2" d="M40.3 44H26a.9.9 0 01-.8-.8v-4.4a1.4 1.4 0 01-1-.5 1.6 1.6 0 01-.5-1.1v-.4a1.6 1.6 0 011.5-1.6V31a1.6 1.6 0 01-1.5-1.6V29a1.6 1.6 0 011.5-1.6v-4a.8.8 0 01.8-.8.7.7 0 01.8.8v4.8a.8.8 0 01-.8.8h-.7v.4h.7a.8.8 0 01.8.8V36a.8.8 0 01-.8.8h-.7v.4h.7a.8.8 0 01.8.8v4.4h12.7V38a.8.8 0 01.8-.8h.6v-.4h-.7a.8.8 0 01-.8-.8v-5.8a.8.8 0 01.8-.8h.6V29h-.7a.8.8 0 01-.8-.8v-4.8a.7.7 0 01.8-.8.8.8 0 01.8.8v4a1.6 1.6 0 011.7 1.6v.4a1.6 1.6 0 01-1.5 1.6v4.2a1.6 1.6 0 011.5 1.6v.4a1.6 1.6 0 01-1.5 1.6v4.4a.9.9 0 01-.8.8z" id="Trazado_11678-2" data-name="Trazado 11678"/><path class="cls-2" d="M37.5 29.8h-8.7a.8.8 0 01-.8-.8.7.7 0 01.8-.8h8.7a.8.8 0 01.8.8.9.9 0 01-.8.8z" id="Línea_2316-2" data-name="Línea 2316"/><path class="cls-2" d="M37.5 37.5h-8.7a.7.7 0 01-.8-.8.8.8 0 01.8-.8h8.7a.9.9 0 01.8.8.8.8 0 01-.8.8z" id="Línea_2317-2" data-name="Línea 2317"/><path class="cls-2" d="M41.2 47.5H25.1a1.5 1.5 0 01-1.4-1.5v-2.2a1.4 1.4 0 011.4-1.4h16.1a1.4 1.4 0 011.4 1.4V46a1.5 1.5 0 01-1.4 1.5zm-15.9-1.6H41V44H25.3zM41.2 44z" id="Rectángulo_4586-2" data-name="Rectángulo 4586"/><path class="cls-2" d="M41.1 24.2h-16a1.5 1.5 0 01-1.5-1.4v-2.3a1.5 1.5 0 011.5-1.4h16a1.4 1.4 0 011.4 1.4v2.3a1.4 1.4 0 01-1.4 1.4zm-15.9-1.6h15.7v-1.9H25.2zm15.9-1.9z" id="Rectángulo_4587-2" data-name="Rectángulo 4587"/><path class="cls-2" d="M55.2 20.7h-4.3a1.2 1.2 0 01-1.2-1.2v-1.8a1.2 1.2 0 011.2-1.2h4.3a1.2 1.2 0 011.2 1.2v1.8a1.2 1.2 0 01-1.2 1.2zm-3.9-1.6h3.5v-1h-3.5zm3.9-1z" id="Rectángulo_4585-3" data-name="Rectángulo 4585"/><path class="cls-2" d="M60.6 44H46.4a.8.8 0 01-.8-.8v-4.4a1.6 1.6 0 01-1.6-1.6v-.4a1.6 1.6 0 011.6-1.6V31a1.6 1.6 0 01-1.6-1.6V29a1.6 1.6 0 011.6-1.6v-4a.7.7 0 01.8-.8.8.8 0 01.8.8v4.8a.9.9 0 01-.8.8h-.7v.4h.8a.9.9 0 01.8.8V36a.9.9 0 01-.8.8h-.7v.4h.8a.9.9 0 01.8.8v4.4h12.4V38a.9.9 0 01.8-.8h.7v-.4h-.7a.9.9 0 01-.8-.8v-5.8a.9.9 0 01.8-.8h.7V29h-.7a.9.9 0 01-.8-.8v-4.8a.8.8 0 111.6 0v4a1.2 1.2 0 011 .5 1.6 1.6 0 01.5 1.1v.4a1.6 1.6 0 01-1.5 1.6v4.2a1.6 1.6 0 011.5 1.6v.4a1.6 1.6 0 01-1.5 1.6v4.4a.9.9 0 01-.8.8z" id="Trazado_11678-3" data-name="Trazado 11678"/><path class="cls-2" d="M57.8 29.8h-8.7a.9.9 0 01-.8-.8.8.8 0 01.8-.8h8.7a.7.7 0 01.8.8.8.8 0 01-.8.8z" id="Línea_2316-3" data-name="Línea 2316"/><path class="cls-2" d="M57.8 37.5h-8.7a.8.8 0 01-.8-.8.9.9 0 01.8-.8h8.7a.8.8 0 01.8.8.7.7 0 01-.8.8z" id="Línea_2317-3" data-name="Línea 2317"/><path class="cls-2" d="M61.5 47.5h-16A1.5 1.5 0 0144 46v-2.2a1.5 1.5 0 011.5-1.4h16a1.4 1.4 0 011.4 1.4V46a1.5 1.5 0 01-1.4 1.5zm-15.9-1.6h15.7V44H45.6zM61.5 44z" id="Rectángulo_4586-3" data-name="Rectángulo 4586"/><path class="cls-2" d="M61.4 24.2h-16a1.4 1.4 0 01-1.4-1.4v-2.3a1.4 1.4 0 011.4-1.4h16a1.4 1.4 0 011.4 1.4v2.3a1.4 1.4 0 01-1.4 1.4zm-15.8-1.6h15.6v-1.9H45.6zm15.8-1.9z" id="Rectángulo_4587-3" data-name="Rectángulo 4587"/><path fill="none" d="M0 0h64v64H0z"/></svg>