<svg data-name="Capa 1" xmlns="http://www.w3.org/2000/svg" width="90" height="90"><path data-name="Rectángulo 4799" fill="none" d="M0 0h90v90H0z"/><path data-name="Trazado 12001" d="M22 23.8a7.55 7.55 0 115.53-2.41A7.55 7.55 0 0122 23.8zm0-13.1a5.55 5.55 0 105.55 5.55A5.55 5.55 0 0022 10.7z" fill="#19a500"/><path data-name="Trazado 12002" d="M42.59 68.91a1 1 0 01-1-1V21.12a1 1 0 012 0v46.79a1 1 0 01-1 1z" fill="#95a6b1"/><path data-name="Trazado 12003" d="M42.59 28.67a1 1 0 01-.7-.29l-6.61-6.61a1 1 0 111.41-1.41L43.3 27a.966.966 0 01-.71 1.67z" fill="#95a6b1"/><path data-name="Trazado 12004" d="M42.59 40.39a1 1 0 01-.7-.29l-6.61-6.61a1 1 0 011.41-1.42l6.61 6.61a1 1 0 01-.71 1.71z" fill="#95a6b1"/><path data-name="Trazado 12005" d="M42.59 34a1 1 0 01-.7-1.7l6.61-6.61a1 1 0 111.41 1.41l-6.61 6.63a1 1 0 01-.71.27z" fill="#95a6b1"/><path data-name="Trazado 12006" d="M42.59 45.08a1 1 0 01-.7-1.71l6.61-6.61a1 1 0 111.41 1.42l-6.61 6.61a1 1 0 01-.71.29z" fill="#95a6b1"/><path data-name="Trazado 12007" d="M58.35 68.91H26.84a1 1 0 010-2h31.51a1 1 0 110 2z" fill="#95a6b1"/><path data-name="Trazado 12008" d="M42.59 50.32a23.9 23.9 0 01-23.87-23.88 1 1 0 012 0A21.88 21.88 0 1042.593 4.57a21.65 21.65 0 00-13.4 4.58A.99.99 0 1128 7.57a23.88 23.88 0 1114.59 42.75z" fill="#95a6b1"/><g data-name="Grupo 13788"><path data-name="Trazado 12009" d="M33.43 86.78H18a1.7 1.7 0 110-3.4h15.43a1.7 1.7 0 110 3.4z" fill="#19a500"/></g><g data-name="Grupo 13789"><path data-name="Trazado 12010" d="M42.53 86.78H27.05a1.7 1.7 0 110-3.4h15.48a1.7 1.7 0 110 3.4z" fill="#a1d005"/></g><g data-name="Grupo 13790"><path data-name="Trazado 12011" d="M61.17 86.78h-7.74a1.7 1.7 0 110-3.4h7.74a1.7 1.7 0 110 3.4z" fill="#a1d005"/></g><g data-name="Grupo 13791"><path data-name="Trazado 12012" d="M72.05 86.78a1.65 1.65 0 01-1.41-.78 1.08 1.08 0 01-.16-.3 1.861 1.861 0 01-.1-.31 2 2 0 010-.34 1.71 1.71 0 01.5-1.2 1.76 1.76 0 012.4 0 1.71 1.71 0 01.21.26 1.64 1.64 0 01.16.29 1.313 1.313 0 00.1.32 1.841 1.841 0 010 .33 2 2 0 010 .34.935.935 0 01-.1.31 1.43 1.43 0 01-.16.3 1.711 1.711 0 01-.21.26 1.75 1.75 0 01-1.23.52z" fill="#a1d005"/></g><g data-name="Grupo 13792"><path data-name="Trazado 12013" d="M56.53 76.39H18A1.7 1.7 0 1118 73h38.53a1.7 1.7 0 110 3.4z" fill="#a1d005"/></g><g data-name="Grupo 13793"><path data-name="Trazado 12014" d="M18 76.39a1.68 1.68 0 01-1.2-.5 1.27 1.27 0 01-.21-.25 2.19 2.19 0 01-.16-.3 3 3 0 01-.1-.32 1.83 1.83 0 010-.66 3 3 0 01.1-.32 1.64 1.64 0 01.16-.29 1.33 1.33 0 01.21-.26 1.76 1.76 0 012.4 0 1.33 1.33 0 01.21.26 1.18 1.18 0 01.16.29 1.7 1.7 0 01.1.32 1.83 1.83 0 010 .66 1.7 1.7 0 01-.1.32 1.46 1.46 0 01-.16.3 1.27 1.27 0 01-.21.25 1.68 1.68 0 01-1.2.5z" fill="#149352"/></g><g data-name="Grupo 13794"><path data-name="Trazado 12015" d="M72.05 76.39h-21.9a1.7 1.7 0 110-3.4h21.9a1.7 1.7 0 010 3.4z" fill="#19a500"/></g></svg>