<svg id="Capa_1" data-name="Capa 1" xmlns="http://www.w3.org/2000/svg" viewBox="0 0 65 65"><defs><style>.cls-1{fill:none}.cls-3{fill:#95a6b1}.cls-4{fill:#4da12e}</style></defs><path class="cls-1" d="M0 0h65v65H0z"/><path d="M11.4 27.5a4.6 4.6 0 010-9.1 4.6 4.6 0 014.6 4.5 4.6 4.6 0 01-4.6 4.6zm0-7.5a3 3 0 000 5.9 3 3 0 003-3 3 3 0 00-3-2.9z" fill="#00a800" id="Trazado_11848" data-name="Trazado 11848"/><path class="cls-3" d="M35.5 39a.8.8 0 01-.8-.8V12.8a.8.8 0 011.6 0v25.4a.8.8 0 01-.8.8z" id="Línea_2256" data-name="Línea 2256"/><path class="cls-3" d="M38.7 39H11.4a.7.7 0 01-.8-.8V30a.8.8 0 01.8-.8.9.9 0 01.8.8v7.4h26.5a.9.9 0 01.8.8.8.8 0 01-.8.8z" id="Trazado_11606" data-name="Trazado 11606"/><path class="cls-3" d="M41.1 24.1a.8.8 0 01-.8-.8V11.4c0-1.7-.9-3.1-2-3.1H14c-1 0-1.8 1.3-1.8 2.9v4.7a.9.9 0 01-.8.8.8.8 0 01-.8-.8v-4.7c0-2.5 1.5-4.5 3.4-4.5h24.3c2 0 3.6 2.1 3.6 4.7v11.9a.9.9 0 01-.8.8z" id="Trazado_11607" data-name="Trazado 11607"/><path class="cls-3" d="M11.4 13.6a.9.9 0 01-.8-.8.8.8 0 01.8-.8h29.7a.8.8 0 01.8.8.9.9 0 01-.8.8z" id="Línea_2257" data-name="Línea 2257"/><path class="cls-3" d="M27.4 39a.8.8 0 01-.8-.8V12.8a.9.9 0 01.8-.8.8.8 0 01.8.8v25.4a.7.7 0 01-.8.8z" id="Línea_2258" data-name="Línea 2258"/><path class="cls-3" d="M35.5 17.5h-8.1a.8.8 0 010-1.6h8.1a.8.8 0 010 1.6z" id="Línea_2259" data-name="Línea 2259"/><path class="cls-3" d="M35.5 21.6h-8.1a.9.9 0 01-.8-.8.8.8 0 01.8-.8h8.1a.8.8 0 01.8.8.9.9 0 01-.8.8z" id="Línea_2260" data-name="Línea 2260"/><path class="cls-3" d="M35.5 25.8h-8.1a.8.8 0 01-.8-.8.9.9 0 01.8-.8h8.1a.9.9 0 01.8.8.8.8 0 01-.8.8z" id="Línea_2261" data-name="Línea 2261"/><path class="cls-3" d="M35.5 29.9h-8.1a.8.8 0 01-.8-.8.9.9 0 01.8-.8h8.1a.9.9 0 01.8.8.8.8 0 01-.8.8z" id="Línea_2262" data-name="Línea 2262"/><path class="cls-3" d="M35.5 34h-8.1a.8.8 0 01-.8-.8.9.9 0 01.8-.8h8.1a.9.9 0 01.8.8.8.8 0 01-.8.8z" id="Línea_2263" data-name="Línea 2263"/><path class="cls-3" d="M49.2 24.1h-4.4a1.3 1.3 0 01-1.2-1.3V21a1.3 1.3 0 011.2-1.2h4.4a1.2 1.2 0 011.2 1.2v1.8a1.2 1.2 0 01-1.2 1.3zm-4-1.6h3.6v-1.1h-3.6zm4-1.1z" id="Rectángulo_4559" data-name="Rectángulo 4559"/><path class="cls-3" d="M54.7 45H40.2a.7.7 0 01-.8-.8v-4.4a1.7 1.7 0 01-1.6-1.7v-.4a1.6 1.6 0 011.6-1.6v-2.5a1.7 1.7 0 01-1.6-1.7v-.4a1.7 1.7 0 011.6-1.7v-4a.7.7 0 01.8-.8.8.8 0 01.8.8v4.8a.8.8 0 01-.8.8h-.7v.5h.8a.8.8 0 01.8.8v4.1a.9.9 0 01-.8.8h-.7v.4h.8a.8.8 0 01.8.8v4.4h12.7V39a.8.8 0 01.8-.8h.7v-.5h-.8a.9.9 0 01-.8-.8v-4.1a.8.8 0 01.8-.8h.7v-.5h-.8a.8.8 0 01-.8-.8v-4.9a.8.8 0 01.8-.8.7.7 0 01.8.8v4a1.7 1.7 0 011.6 1.7v.4a1.7 1.7 0 01-1.6 1.7v2.5a1.6 1.6 0 011.6 1.6v.4a1.7 1.7 0 01-1.6 1.7v4.4a.7.7 0 01-.6.8z" id="Trazado_11612" data-name="Trazado 11612"/><path class="cls-3" d="M51.9 32.3H43a.9.9 0 01-.8-.8.8.8 0 01.8-.8h8.9a.8.8 0 01.8.8.9.9 0 01-.8.8z" id="Línea_2265" data-name="Línea 2265"/><path class="cls-3" d="M51.9 38.5H43a.9.9 0 01-.8-.8.8.8 0 01.8-.8h8.9a.8.8 0 01.8.8.9.9 0 01-.8.8z" id="Línea_2266" data-name="Línea 2266"/><path class="cls-3" d="M55.6 47.6H39.3a1.5 1.5 0 01-1.5-1.5v-1.2a1.5 1.5 0 011.5-1.5h16.3a1.5 1.5 0 011.5 1.5v1.2a1.5 1.5 0 01-1.5 1.5zM39.4 46h16.1v-1H39.4zm16.2-1z" id="Rectángulo_4560" data-name="Rectángulo 4560"/><path class="cls-3" d="M55.6 26.6H39.2a1.4 1.4 0 01-1.4-1.4v-1.3a1.4 1.4 0 011.4-1.4h16.4a1.4 1.4 0 011.4 1.4v1.3a1.4 1.4 0 01-1.4 1.4zM39.4 25h16v-.9h-16zm16.2-.9z" id="Rectángulo_4561" data-name="Rectángulo 4561"/><path class="cls-1" d="M0 48.3h65v16.74H0z"/><path class="cls-4" d="M45.4 61.3h-7.2a1.2 1.2 0 01-1.2-1.2 1.3 1.3 0 011.2-1.2h7.2a1.3 1.3 0 011.2 1.2 1.2 1.2 0 01-1.2 1.2zm7.7 0h-.6a1.2 1.2 0 01-1.2-1.2 1.3 1.3 0 011.2-1.2h.6a1.2 1.2 0 011.2 1.2 1.2 1.2 0 01-1.2 1.2zm-34.1 0h-7.1a1.2 1.2 0 01-1.2-1.2 1.2 1.2 0 011.2-1.2H19a1.2 1.2 0 011.2 1.2 1.2 1.2 0 01-1.2 1.2z"/><path d="M31 61.3H18.5a1.2 1.2 0 01-1.2-1.2 1.3 1.3 0 011.2-1.2H31a1.2 1.2 0 011.2 1.2 1.2 1.2 0 01-1.2 1.2zm4.5-6.1H11.9a1.2 1.2 0 110-2.4h23.6a1.2 1.2 0 010 2.4z" fill="#96d200"/><path class="cls-4" d="M53.1 55.2H34.7a1.2 1.2 0 010-2.4h18.4a1.2 1.2 0 010 2.4zm-40.8 0h-.4a1.2 1.2 0 110-2.4h.4a1.2 1.2 0 010 2.4z"/></svg>