<svg data-name="Capa 3" xmlns="http://www.w3.org/2000/svg" width="90" height="90"><path data-name="Rectángulo 4797" fill="none" d="M0 0h90v90H0z"/><path data-name="Trazado 11968" d="M19 36.14a7.55 7.55 0 115.53-2.41A7.55 7.55 0 0119 36.14zM19 23a5.55 5.55 0 105.55 5.55A5.55 5.55 0 0019 23z" fill="#19a500"/><g data-name="Grupo 13770"><path data-name="Trazado 11969" d="M33.43 86.78H18a1.7 1.7 0 110-3.4h15.43a1.7 1.7 0 110 3.4z" fill="#19a500"/></g><g data-name="Grupo 13771"><path data-name="Trazado 11970" d="M42.53 86.78H27.05a1.7 1.7 0 110-3.4h15.48a1.7 1.7 0 110 3.4z" fill="#a1d005"/></g><g data-name="Grupo 13772"><path data-name="Trazado 11971" d="M61.17 86.78h-7.74a1.7 1.7 0 110-3.4h7.74a1.7 1.7 0 110 3.4z" fill="#a1d005"/></g><g data-name="Grupo 13773"><path data-name="Trazado 11972" d="M72.05 86.78h-.34a1.24 1.24 0 01-.31-.1 1.68 1.68 0 01-.3-.15 1.71 1.71 0 01-.26-.21 1.73 1.73 0 010-2.41 1.709 1.709 0 01.26-.21l.3-.16a1.809 1.809 0 01.31-.09 1.51 1.51 0 01.67 0 1.68 1.68 0 01.32.09 2.69 2.69 0 01.29.16 1.33 1.33 0 01.26.21 1.7 1.7 0 010 2.41 1.33 1.33 0 01-.26.21 1.59 1.59 0 01-.29.15 1.19 1.19 0 01-.32.1 1.839 1.839 0 01-.33 0z" fill="#a1d005"/></g><g data-name="Grupo 13774"><path data-name="Trazado 11973" d="M56.53 76.39H18A1.7 1.7 0 1118 73h38.53a1.7 1.7 0 110 3.4z" fill="#a1d005"/></g><g data-name="Grupo 13775"><path data-name="Trazado 11974" d="M18 76.39a1.841 1.841 0 01-.33 0 1.7 1.7 0 01-.32-.1 1.59 1.59 0 01-.29-.15 3 3 0 01-.26-.21 1.72 1.72 0 01-.5-1.21 1.84 1.84 0 010-.33 3 3 0 01.1-.32 1.64 1.64 0 01.16-.29 1.71 1.71 0 01.21-.26 1.33 1.33 0 01.26-.21 1.64 1.64 0 01.29-.16 1.68 1.68 0 01.32-.09 1.47 1.47 0 01.66 0 1.681 1.681 0 01.32.09 2.191 2.191 0 01.3.16 1.27 1.27 0 01.25.21 2.752 2.752 0 01.22.26 1.59 1.59 0 01.15.29 1.7 1.7 0 01.1.32 1.84 1.84 0 010 .33 1.72 1.72 0 01-.5 1.21 2.759 2.759 0 01-.25.21 2.1 2.1 0 01-.3.15 1.7 1.7 0 01-.32.1 1.839 1.839 0 01-.27 0z" fill="#149352"/></g><g data-name="Grupo 13776"><path data-name="Trazado 11975" d="M72.05 76.39h-21.9a1.7 1.7 0 110-3.4h21.9a1.7 1.7 0 010 3.4z" fill="#19a500"/></g><path data-name="Trazado 11976" d="M69.08 65.68H21.26a1 1 0 01-1-1V39.07a1 1 0 012 0v24.61h45.82V7.34H22.25V18a1 1 0 01-2 0V6.34a.99.99 0 011-1h47.83a1 1 0 011 1v58.34a.99.99 0 01-1 1z" fill="#95a6b1"/><path data-name="Trazado 11977" d="M62.8 58.71H28.29a1 1 0 110-2H62.8a1 1 0 010 2z" fill="#95a6b1"/><path data-name="Trazado 11978" d="M62.8 51.19H50.86a1 1 0 01-1-1v-14.8a1 1 0 011-1H62.8a1 1 0 011 1v14.8a1 1 0 01-1 1zm-10.94-2h9.94v-12.8h-9.94z" fill="#95a6b1"/><path data-name="Trazado 11979" d="M43.71 39.41H28.29a1 1 0 010-2h15.42a1 1 0 010 2z" fill="#95a6b1"/><path data-name="Trazado 11980" d="M43.71 49.52H28.29a1 1 0 010-2h15.42a1 1 0 010 2z" fill="#95a6b1"/><path data-name="Trazado 11981" d="M34.55 15.7v7.33l-3.82-7.33H28.1v9.85H30v-5.5a5.5 5.5 0 00-.05-.92c-.05-.29 0-.69-.07-1h.07l3.87 7.45h2.65V15.7z" fill="#95a6b1"/><path data-name="Trazado 11982" d="M43.99 17.41V15.7h-5.68v9.85h5.68v-1.72H40.4v-2.54h3.34v-1.72H40.4v-2.16z" fill="#95a6b1"/><path data-name="Trazado 11983" d="M55.54 15.7l-1.12 5.38a.711.711 0 01-.06.31c-.06.14 0 .29-.08.46a1.913 1.913 0 00-.1.54c-.03.19-.06.38-.1.55a4.881 4.881 0 00-.08.51 1.008 1.008 0 01-.06.38.956.956 0 00-.06-.38 2.508 2.508 0 01-.08-.49c-.03-.17-.06-.35-.09-.53s-.06-.36-.09-.52 0-.3-.08-.42a1.41 1.41 0 00-.06-.27l-1.36-5.52h-1.84l-1.37 5.52v.27a.844.844 0 01-.08.42 1.716 1.716 0 00-.09.52 5.34 5.34 0 00-.09.53 3.58 3.58 0 01-.08.49 1.044 1.044 0 01-.06.38.956.956 0 00-.06-.38c-.06-.15 0-.33-.09-.51a1.713 1.713 0 01-.09-.55c-.03-.19-.07-.37-.1-.54s-.06-.32-.09-.46 0-.24-.05-.31l-1.17-5.38H44.8l2.37 9.85h2.38l1.2-4.84a.572.572 0 01.07-.3 1.361 1.361 0 00.09-.42c.03-.16.05-.31.08-.48l.09-.48a2.758 2.758 0 01.07-.43 1.687 1.687 0 000-.32.832.832 0 00.05.32c.05.13 0 .28.07.43s0 .32.08.49a1.791 1.791 0 01.1.48c.03.15.06.29.08.41s0 .22.07.28l1.21 4.86h2.37l2.42-9.85z" fill="#95a6b1"/><path data-name="Trazado 11984" d="M64.07 21.81a2.61 2.61 0 00-.48-.78 4.11 4.11 0 00-.73-.62c-.28-.18-.59-.37-.93-.55s-.52-.28-.71-.39a2.49 2.49 0 01-.48-.35 1.14 1.14 0 01-.27-.36 1.161 1.161 0 01.2-1.18 1.05 1.05 0 01.8-.28 3.87 3.87 0 01.48 0 4.31 4.31 0 01.49.11 3.52 3.52 0 01.51.19c.18.07.37.15.57.25l.67-1.63c-.23-.11-.47-.21-.69-.3a5.745 5.745 0 00-.67-.21c-.22-.06-.45-.1-.67-.14a5.37 5.37 0 00-.7 0 4 4 0 00-1.29.19 2.48 2.48 0 00-1 .55 2.45 2.45 0 00-.63.88 3.14 3.14 0 00-.22 1.18 2.73 2.73 0 00.23 1.16 3.32 3.32 0 00.57.82 3.52 3.52 0 00.73.57l.69.39.67.37a3.749 3.749 0 01.51.36 1.22 1.22 0 01.33.4 1 1 0 01.12.49 1.16 1.16 0 01-.07.42.83.83 0 01-.22.33 1.16 1.16 0 01-.4.22 2 2 0 01-.59.07 4 4 0 01-.68-.06 6.34 6.34 0 01-.68-.19 6.16 6.16 0 01-.67-.26c-.22-.09-.44-.19-.65-.3v1.94a5 5 0 001.23.45 6.21 6.21 0 001.38.15 4.86 4.86 0 001.44-.2 3.14 3.14 0 001.07-.58A2.45 2.45 0 0064 24a3 3 0 00.22-1.19 2.78 2.78 0 00-.15-1z" fill="#95a6b1"/></svg>