<svg data-name="Capa 2" xmlns="http://www.w3.org/2000/svg" width="90" height="90"><path data-name="Rectángulo 4790" fill="none" d="M0 0h90v90H0z"/><path data-name="Trazado 11935" d="M76.39 67.14H55.2a1 1 0 01-1-1v-17.7a8.52 8.52 0 018.5-8.51h6.19a8.51 8.51 0 018.5 8.51v17.7a1 1 0 01-1 1zm-20.19-2h19.19v-16.7a6.51 6.51 0 00-6.5-6.51H62.7a6.51 6.51 0 00-6.5 6.51z" fill="#95a6b1"/><path data-name="Trazado 11936" d="M15.79 19a1 1 0 01-1-1v-3.57a4.76 4.76 0 014.75-4.76h5.87a1 1 0 110 2h-5.87a2.76 2.76 0 00-2.75 2.76V18a1 1 0 01-1 1z" fill="#95a6b1"/><path data-name="Trazado 11937" d="M29.17 67.14H15.79a1 1 0 01-1-1V40.66a1 1 0 012 0v24.48h11.38V14.43a2.77 2.77 0 00-2.76-2.76 1 1 0 010-2 4.77 4.77 0 014.76 4.76v51.71a1 1 0 01-1 1z" fill="#95a6b1"/><path data-name="Trazado 11938" d="M49.86 67.14a1 1 0 01-1-1V37.75a5.83 5.83 0 015.64-6H61a5.83 5.83 0 015.64 6v3.19a1 1 0 11-2 0v-3.19a3.83 3.83 0 00-3.64-4h-6.5a3.83 3.83 0 00-3.64 4v28.39a1 1 0 01-1 1z" fill="#95a6b1"/><path data-name="Trazado 11939" d="M55.2 59.16h-8.31a5.83 5.83 0 01-5.64-6v-7.22a3.83 3.83 0 00-3.64-4h-8.46a1 1 0 110-2h8.46a5.83 5.83 0 015.64 6v7.22a3.84 3.84 0 003.64 4h8.31a1 1 0 010 2z" fill="#95a6b1"/><path data-name="Trazado 11940" d="M34.79 67.14a1 1 0 01-1-1V24.31a3.83 3.83 0 00-3.63-4h-1a1 1 0 010-2h1a5.83 5.83 0 015.63 6v41.83a1 1 0 01-1 1z" fill="#95a6b1"/><path data-name="Trazado 11941" d="M81.6 67.14H10a1 1 0 010-2h71.6a1 1 0 010 2z" fill="#95a6b1"/><path data-name="Trazado 11942" d="M66.19 60.77a4.46 4.46 0 01-3.54-1.84c-1.45-2-.59-4 .09-5.7l.43-1c.7-1.71 1.4-3.41 2.08-5.13a1 1 0 011.92.23c.19.59 1.63 3.87 2.38 5.41.54 1.13 1.55 3.22.77 5.17a4.55 4.55 0 01-4.13 2.86zm0-10.65c-.38.94-.76 1.88-1.15 2.82L64.59 54c-.69 1.68-1.06 2.77-.33 3.75a2.44 2.44 0 001.93 1 2.54 2.54 0 002.28-1.67c.42-1-.15-2.38-.71-3.56a75.65 75.65 0 01-1.59-3.4z" fill="#95a6b1"/><path data-name="Trazado 11943" d="M16.13 36.77a7.26 7.26 0 115.31-2.32 7.26 7.26 0 01-5.31 2.32zm0-12.5a5.25 5.25 0 105.25 5.25 5.25 5.25 0 00-5.25-5.25z" fill="#19a500"/><g data-name="Grupo 13753"><path data-name="Trazado 11944" d="M33.43 86.78H18a1.7 1.7 0 110-3.4h15.43a1.7 1.7 0 110 3.4z" fill="#19a500"/></g><g data-name="Grupo 13754"><path data-name="Trazado 11945" d="M42.53 86.78H27.05a1.7 1.7 0 110-3.4h15.48a1.7 1.7 0 110 3.4z" fill="#a1d005"/></g><g data-name="Grupo 13755"><path data-name="Trazado 11946" d="M61.17 86.78h-7.74a1.7 1.7 0 110-3.4h7.74a1.7 1.7 0 110 3.4z" fill="#a1d005"/></g><g data-name="Grupo 13756"><path data-name="Trazado 11947" d="M72.05 86.78a1.71 1.71 0 01-1.7-1.7 1.84 1.84 0 010-.33 1.7 1.7 0 01.1-.32 1.59 1.59 0 01.15-.29 2.751 2.751 0 01.22-.26 1.75 1.75 0 012.4 0 1.71 1.71 0 01.21.26 2.69 2.69 0 01.16.29 1.68 1.68 0 01.09.32 1.24 1.24 0 010 .33 1.68 1.68 0 01-.5 1.2 1.33 1.33 0 01-.26.21 1.18 1.18 0 01-.29.16 1.7 1.7 0 01-.32.1 1.84 1.84 0 01-.26.03z" fill="#a1d005"/></g><g data-name="Grupo 13757"><path data-name="Trazado 11948" d="M56.53 76.39H18A1.7 1.7 0 1118 73h38.53a1.7 1.7 0 110 3.4z" fill="#a1d005"/></g><g data-name="Grupo 13758"><path data-name="Trazado 11949" d="M18 76.39a1.71 1.71 0 01-1.2-.5 1.69 1.69 0 010-2.4 1.74 1.74 0 012.4 0 1.33 1.33 0 01.21.26 1.18 1.18 0 01.16.29 1.7 1.7 0 01.1.32 1.84 1.84 0 010 .33 1.7 1.7 0 01-.5 1.2 1.68 1.68 0 01-1.17.5z" fill="#149352"/></g><g data-name="Grupo 13759"><path data-name="Trazado 11950" d="M72.05 76.39h-21.9a1.7 1.7 0 110-3.4h21.9a1.7 1.7 0 010 3.4z" fill="#19a500"/></g><path data-name="Trazado 11951" d="M60.42 28.32a1 1 0 01-.66-.25L49.2 18.73a1 1 0 010-1.49L59.76 7.9a.994.994 0 011.66.75v3.21h19.33a1 1 0 011 1v10.25a1 1 0 01-1 1H61.42v3.21a1 1 0 01-.59.92 1.15 1.15 0 01-.41.08zM51.37 18l8.05 7.12v-2a1 1 0 011-1h19.33v-8.26H60.42a1 1 0 01-1-1v-2z" fill="#95a6b1"/></svg>