<svg id="Capa_1" data-name="Capa 1" xmlns="http://www.w3.org/2000/svg" viewBox="0 0 84 84"><defs><style>.cls-2{fill:#95a6b1}.cls-3{fill:none}.cls-4{fill:#4da12e}</style></defs><path d="M30.2 26.5a5.5 5.5 0 01-4.9-3.1 5.3 5.3 0 012.7-7.2 5.2 5.2 0 017.1 2.7 5.3 5.3 0 01.3 3.9 5.7 5.7 0 01-2.9 3.2 4.8 4.8 0 01-2.3.5zm0-8.8a3.2 3.2 0 00-1.4.3 3.4 3.4 0 102.8 6.2 3.7 3.7 0 001.9-2 3.6 3.6 0 00-.2-2.5 3.4 3.4 0 00-3.1-2z" fill="#19a500"/><path class="cls-2" d="M53.6 33.5a1 1 0 01-.1-2 8.6 8.6 0 005.2-2.6A9.1 9.1 0 0045.8 16a8.6 8.6 0 00-2.6 5.2 1 1 0 11-2-.2 10.9 10.9 0 013.2-6.4 11.1 11.1 0 0115.7 15.7 10.6 10.6 0 01-6.4 3.2z"/><g id="Grupo_13000-2" data-name="Grupo 13000-2"><path class="cls-2" d="M51.7 10.1a1.1 1.1 0 01-1-1V3.8a1.1 1.1 0 011-1 1 1 0 011 1v5.3a1 1 0 01-1 1z" id="Línea_2225" data-name="Línea 2225"/></g><g id="Grupo_13001" data-name="Grupo 13001"><path class="cls-2" d="M71 23.3h-5.2a.9.9 0 01-1-1 1 1 0 011-1H71a1 1 0 011 1 .9.9 0 01-1 1z" id="Línea_2227" data-name="Línea 2227"/></g><g id="Grupo_13002" data-name="Grupo 13002"><path class="cls-2" d="M61.3 13.8a1.1 1.1 0 01-.7-.3 1 1 0 010-1.4l3.7-3.7a1 1 0 011.4 1.4L62 13.5a.9.9 0 01-.7.3z" id="Línea_2229" data-name="Línea 2229"/></g><path class="cls-2" d="M65 36.6a1.1 1.1 0 01-.7-.3l-3.7-3.7a1 1 0 111.4-1.4l3.7 3.7a1 1 0 010 1.4.9.9 0 01-.7.3z" id="Línea_2230" data-name="Línea 2230"/><path class="cls-2" d="M42.8 14.3a.9.9 0 01-.7-.3l-3.7-3.7a1 1 0 111.4-1.4l3.7 3.7a1 1 0 010 1.4 1.1 1.1 0 01-.7.3z" id="Línea_2231" data-name="Línea 2231"/><path class="cls-2" d="M48.8 44.6H22.4a7.6 7.6 0 110-15.2l1.4.2a15 15 0 01.6-2.9 1 1 0 011.3-.5.9.9 0 01.6 1.2 10.3 10.3 0 00-.6 3.5 1.2 1.2 0 01-.4.8 1.4 1.4 0 01-.9.1 4.8 4.8 0 00-2-.4 5.6 5.6 0 100 11.2h26.4a5.6 5.6 0 000-11.2H48a1.1 1.1 0 01-.8-.2 1.2 1.2 0 01-.4-.8 10.5 10.5 0 00-8.8-9.8 1 1 0 01-.8-1.1 1 1 0 011.2-.9 12.7 12.7 0 0110.3 10.8 7.6 7.6 0 11.1 15.2zM23.6 58.5h-.4a1.1 1.1 0 01-.5-1.4l3.6-7.2a1 1 0 011.3-.5 1.1 1.1 0 01.5 1.4L24.5 58a1 1 0 01-.9.5zm11-2.9h-.4a1 1 0 01-.5-1.3l3.6-7.3a1.2 1.2 0 011.4-.4.9.9 0 01.4 1.3l-3.6 7.3a1.1 1.1 0 01-.9.4zm7.4 6.5h-.5a.9.9 0 01-.4-1.3l3.6-7.3A.9.9 0 0146 53a1 1 0 01.5 1.3l-3.6 7.3a1.1 1.1 0 01-.9.5z"/><path class="cls-3" d="M0 0h84v84H0z"/><path class="cls-3" d="M0 63.1h84v20.93H0z"/><path class="cls-4" d="M58.1 79.4h-9a1.5 1.5 0 110-3h9a1.5 1.5 0 010 3zm9.7 0H67a1.5 1.5 0 010-3h.8a1.5 1.5 0 010 3zm-42.7 0h-8.9a1.5 1.5 0 010-3h8.9a1.5 1.5 0 010 3z"/><path d="M40.2 79.4H24.5a1.5 1.5 0 010-3h15.7a1.5 1.5 0 010 3zm5.5-7.6H16.2a1.5 1.5 0 01-1.5-1.5 1.5 1.5 0 011.5-1.5h29.5a1.5 1.5 0 011.5 1.5 1.5 1.5 0 01-1.5 1.5z" fill="#96d200"/><path class="cls-4" d="M67.8 71.8h-23a1.5 1.5 0 01-1.5-1.5 1.5 1.5 0 011.5-1.5h23a1.5 1.5 0 011.5 1.5 1.5 1.5 0 01-1.5 1.5zm-51 0h-.6a1.5 1.5 0 01-1.5-1.5 1.5 1.5 0 011.5-1.5h.6a1.5 1.5 0 011.5 1.5 1.5 1.5 0 01-1.5 1.5z"/></svg>