<svg id="Capa_1" data-name="Capa 1" xmlns="http://www.w3.org/2000/svg" viewBox="0 0 65 65"><defs><style>.cls-1{fill:none}.cls-2{fill:#95a6b1}.cls-3{fill:#19a301}</style></defs><path class="cls-1" d="M0-.2h65v65.36H0z" id="Rect치ngulo_3799" data-name="Rect치ngulo 3799"/><path class="cls-2" d="M32.8 13a4.6 4.6 0 110-9.1 4.6 4.6 0 110 9.1zm0-7.5a2.9 2.9 0 00-3 3 3 3 0 003 3 3.1 3.1 0 003-3 3 3 0 00-3-3z" id="Elipse_1832" data-name="Elipse 1832"/><path class="cls-2" d="M39.6 22h-9.7a.7.7 0 01-.8-.8.8.8 0 01.8-.8h8.9v-2.8a2.6 2.6 0 00-2.6-2.6h-7.1a2.7 2.7 0 00-2.3 1.2.8.8 0 11-1.3-.9 4.2 4.2 0 013.6-1.9h7.1a4.2 4.2 0 014.2 4.2v3.6a.7.7 0 01-.8.8z" id="Trazado_10360" data-name="Trazado 10360"/><path class="cls-2" d="M48.4 21.6a4.6 4.6 0 01-4.6-4.6 4.6 4.6 0 019.2 0 4.6 4.6 0 01-4.6 4.6zm0-7.6a3 3 0 00-3 3 3 3 0 106 0 3 3 0 00-3-3z" id="Elipse_1833" data-name="Elipse 1833"/><path class="cls-2" d="M55.3 30.6H41.2a.8.8 0 01-.8-.8v-2.6a5.3 5.3 0 015.3-5.3h5.1a5.3 5.3 0 015.3 5.3v2.6a.8.8 0 01-.8.8zM42 29h12.5v-1.8a3.8 3.8 0 00-3.7-3.7h-5.1a3.8 3.8 0 00-3.7 3.7z" id="Rect치ngulo_4049" data-name="Rect치ngulo 4049"/><g id="Grupo_11285" data-name="Grupo 11285"><path class="cls-2" d="M19.8 34.5a10.6 10.6 0 01-7.7-3.2l-.6-.6a.8.8 0 011.2-1.1l.5.6a9.6 9.6 0 006.6 2.7 9.5 9.5 0 006.5-2.7 9.3 9.3 0 000-13.1 9.3 9.3 0 00-13.1 0 .8.8 0 11-1.1-1.1 10.8 10.8 0 0115.3 15.3 10.3 10.3 0 01-7.6 3.2z" id="Trazado_10361" data-name="Trazado 10361"/></g><path class="cls-2" d="M42.1 40h-.5L27 30.7a.7.7 0 01-.2-1.1.8.8 0 011.1-.3l13.9 8.8.9-1.5-13.9-8.8a.8.8 0 01-.3-1.1.9.9 0 011.1-.3l14.7 9.3a.8.8 0 01.2 1.1l-1.8 2.8a.8.8 0 01-.4.4z" id="Trazado_10363" data-name="Trazado 10363"/><path class="cls-2" d="M32.5 40.1a11.1 11.1 0 01-9-4.5 11.3 11.3 0 01-1.2-2.1c-.1-.4 0-.9.4-1a.8.8 0 011.1.4 9.5 9.5 0 001 1.7 9.3 9.3 0 006.2 3.8 9.2 9.2 0 007-1.7.9.9 0 011.1.2.8.8 0 01-.1 1.1 10.7 10.7 0 01-6.5 2.1z" id="Trazado_10364" data-name="Trazado 10364"/><path class="cls-2" d="M41.1 35.4l-.4-.2a.7.7 0 01-.2-1.1 11.7 11.7 0 001.4-4.1.7.7 0 01.8-.7.8.8 0 01.8.8 12.5 12.5 0 01-1.7 4.9.8.8 0 01-.7.4z" id="Trazado_10365" data-name="Trazado 10365"/><path class="cls-2" d="M41.6 25.2a.7.7 0 01-.7-.4 10.9 10.9 0 00-2.1-2.7.8.8 0 011.1-1.2 11.8 11.8 0 012.4 3.1.8.8 0 01-.4 1.1z" id="Trazado_10366" data-name="Trazado 10366"/><path class="cls-2" d="M37.2 48.7h-9.5a.8.8 0 01-.6-.2.6.6 0 01-.2-.7l.3-3.2-1.7-1-2.6 2.6a.8.8 0 01-1.1 0l-6.5-6.3a.7.7 0 010-1.2l2.4-2.5-.9-2.4a.8.8 0 01.5-1 .8.8 0 011.1.4l1 3a.8.8 0 01-.2.8L17 39.3l5.3 5.2 2.5-2.4a.7.7 0 01.9-.1l2.8 1.4c.3.1.4.5.4.8l-.3 2.9h7.7v-3c-.1-.3.1-.6.5-.7l3.1-1.2a.7.7 0 01.9.2l1.9 2.2 5.2-5.4-2.3-2.1a.8.8 0 01-.2-.9l1.4-3a.8.8 0 01.7-.5l3.2.2v-3a.9.9 0 01.8-.8.8.8 0 01.8.8v3.8c0 .3 0 .5-.2.6s-.4.3-.6.2l-3.5-.2-.9 2 2.5 2.3a.7.7 0 010 1.2l-6.3 6.5c-.2.2-.4.3-.6.2a.8.8 0 01-.6-.2L40 43.8l-2.1.8.2 3.3a1.4 1.4 0 01-.2.6z" id="Trazado_10367" data-name="Trazado 10367"/><path class="cls-3" d="M11.3 28.8a5.4 5.4 0 01-5.4-5.4 5.5 5.5 0 1110.9 0 5.4 5.4 0 01-5.5 5.4zm0-9.3a3.9 3.9 0 103.9 3.9 3.8 3.8 0 00-3.9-3.9z" id="Elipse_1834" data-name="Elipse 1834"/><path class="cls-1" d="M0 48.3h65v16.74H0z"/><path class="cls-3" d="M45.4 61.3h-7.2a1.2 1.2 0 01-1.2-1.2 1.3 1.3 0 011.2-1.2h7.2a1.3 1.3 0 011.2 1.2 1.2 1.2 0 01-1.2 1.2zm7.7 0h-.6a1.2 1.2 0 01-1.2-1.2 1.3 1.3 0 011.2-1.2h.6a1.2 1.2 0 011.2 1.2 1.2 1.2 0 01-1.2 1.2zm-34.1 0h-7.1a1.2 1.2 0 01-1.2-1.2 1.2 1.2 0 011.2-1.2H19a1.2 1.2 0 011.2 1.2 1.2 1.2 0 01-1.2 1.2z"/><path d="M31 61.3H18.5a1.2 1.2 0 01-1.2-1.2 1.3 1.3 0 011.2-1.2H31a1.2 1.2 0 011.2 1.2 1.2 1.2 0 01-1.2 1.2zm4.5-6.1H11.9a1.2 1.2 0 110-2.4h23.6a1.2 1.2 0 010 2.4z" fill="#82d400"/><path class="cls-3" d="M53.1 55.2H34.7a1.2 1.2 0 010-2.4h18.4a1.2 1.2 0 010 2.4zm-40.8 0h-.4a1.2 1.2 0 110-2.4h.4a1.2 1.2 0 010 2.4z"/></svg>