<svg xmlns="http://www.w3.org/2000/svg" width="17.914" height="18.2"><path data-name="Trazado 9106" d="M13.214 4.8h-5.5a.789.789 0 01-.8-.8.736.736 0 01.8-.8h5.5a.8.8 0 010 1.6z" fill="#95a6b1"/><path data-name="Trazado 9107" d="M13.214 7.6h-5.5a.684.684 0 01-.7-.7.789.789 0 01.8-.8h5.5a.789.789 0 01.8.8c0 .5-.5.7-.9.7z" fill="#95a6b1"/><path data-name="Trazado 9108" d="M.814 18.2a.789.789 0 01-.8-.8v-3.5a.789.789 0 01.8-.8.736.736 0 01.8.8v3.5a.736.736 0 01-.8.8z" fill="#95a6b1"/><path data-name="Trazado 9109" d="M.814 14.7a.789.789 0 01-.8-.8V4.2a.789.789 0 01.8-.8h3.1a.789.789 0 01.8.8.709.709 0 01-.8.7h-2.3v9a.736.736 0 01-.8.8z" fill="#95a6b1"/><path data-name="Trazado 9110" d="M.814 18.2a1.421 1.421 0 01-.6-.2.713.713 0 01.1-1.1l4.3-3.9a.792.792 0 011.1.1.713.713 0 01-.1 1.1l-4.3 3.9a4.331 4.331 0 01-.5.1z" fill="#95a6b1"/><path data-name="Trazado 9111" d="M10.214 14.3h-5a.789.789 0 01-.8-.8.736.736 0 01.8-.8h5.1a2.865 2.865 0 002.6-1.7.762.762 0 011.4.6 4.447 4.447 0 01-4.1 2.7z" fill="#95a6b1"/><path data-name="Trazado 9112" d="M17.014 15a.789.789 0 01-.8-.8V1.6h-12.1a.789.789 0 01-.8-.8.736.736 0 01.8-.8h13a.789.789 0 01.8.8v13.4a.948.948 0 01-.9.8z" fill="#95a6b1"/><path data-name="Trazado 9113" d="M17.014 15a.764.764 0 01-.5-.2l-4.3-3.9a.909.909 0 01-.1-1.1.909.909 0 011.1-.1l4.3 3.9a.909.909 0 01.1 1.1.6.6 0 01-.6.3z" fill="#95a6b1"/><path data-name="Trazado 9114" d="M12.714 11.2h-5a4.268 4.268 0 01-4.3-4.3v-6a.789.789 0 01.8-.8.736.736 0 01.8.8v6a2.8 2.8 0 002.8 2.8h5.1a.789.789 0 01.8.8c0 .5-.6.7-1 .7z" fill="#95a6b1"/></svg>