<svg id="Capa_1" data-name="Capa 1" xmlns="http://www.w3.org/2000/svg" viewBox="0 0 65 65"><defs><style>.cls-1{fill:#95a6b1}.cls-3{fill:none}.cls-4{fill:#19a301}</style></defs><path class="cls-1" d="M18.9 49.2h-7.5a.9.9 0 01-.9-.9V25a1 1 0 01.9-.9 1 1 0 01.9.9v22.4H18V25.1a.9.9 0 011.8 0v23.2a.9.9 0 01-.9.9z" id="Trazado_10737" data-name="Trazado 10737"/><path class="cls-1" d="M52.3 35.4h-4.9a4.8 4.8 0 01-4.8-4.8v-7.2a4.8 4.8 0 014.8-4.7h4.9a4.7 4.7 0 014.7 4.7v7.2a4.7 4.7 0 01-4.7 4.8zm-4.9-14.9a3 3 0 00-3 2.9v7.2a3 3 0 003 3h4.9a2.9 2.9 0 002.9-3v-7.2a2.9 2.9 0 00-2.9-2.9z" id="Rectángulo_4147" data-name="Rectángulo 4147"/><path class="cls-1" d="M17.6 35.4h-4.9A4.7 4.7 0 018 30.6v-7.2a4.7 4.7 0 014.7-4.7h4.9a4.8 4.8 0 014.8 4.7v7.2a4.8 4.8 0 01-4.8 4.8zm-4.9-14.9a2.9 2.9 0 00-2.9 2.9v7.2a2.9 2.9 0 002.9 3h4.9a3 3 0 003-3v-7.2a3 3 0 00-3-2.9z" id="Rectángulo_4148" data-name="Rectángulo 4148"/><path class="cls-1" d="M49.7 29.7a.9.9 0 01-.9-.9v-5.5l-1.6-3a1 1 0 01.3-1.3.9.9 0 011.2.4l1.8 3.2a.9.9 0 01.1.5v5.7a.9.9 0 01-.9.9z" id="Trazado_10738" data-name="Trazado 10738"/><path class="cls-1" d="M49.7 24l-.4-.2a.8.8 0 01-.3-1.2l2-3.5a.9.9 0 011.2-.3 1 1 0 01.3 1.3l-2 3.4a.8.8 0 01-.8.5z" id="Línea_2149" data-name="Línea 2149"/><path class="cls-1" d="M53.3 49.4h-7.1a.9.9 0 01-.9-.9v-25a.9.9 0 111.8 0v24.1h5.3V23.5a.9.9 0 111.8 0v25a.9.9 0 01-.9.9z" id="Trazado_10739" data-name="Trazado 10739"/><path class="cls-1" d="M15.2 49.1a.9.9 0 01-.9-.9V34.6a.9.9 0 111.8 0v13.6a.9.9 0 01-.9.9z" id="Línea_2150" data-name="Línea 2150"/><path class="cls-1" d="M49.9 49.2a.9.9 0 01-.9-.9V34.5a.9.9 0 111.8 0v13.8a.9.9 0 01-.9.9z" id="Línea_2151" data-name="Línea 2151"/><path class="cls-1" d="M15 18.2a4.3 4.3 0 010-8.5 4.3 4.3 0 110 8.5zm0-6.7a2.5 2.5 0 102.5 2.5 2.5 2.5 0 00-2.5-2.5z" id="Elipse_1974" data-name="Elipse 1974"/><path class="cls-1" d="M18 13.9h-5.9a.9.9 0 110-1.8H18a.9.9 0 110 1.8z" id="Línea_2152" data-name="Línea 2152"/><path class="cls-1" d="M15.1 13.9a.9.9 0 01-.9-.9V8.7a.9.9 0 011.8 0V13a.9.9 0 01-.9.9z" id="Línea_2153" data-name="Línea 2153"/><g id="Grupo_12039" data-name="Grupo 12039"><path class="cls-1" d="M37.8 41.3H27.4a.9.9 0 01-.7-.3 1 1 0 01-.2-.7l1.6-13v-7.4a.9.9 0 011.8 0v7.6l-1.5 12h8.3l-1.5-11.9V20a.9.9 0 111.8 0v7.4l1.6 12.9a.7.7 0 01-.2.7.7.7 0 01-.6.3z" id="Trazado_10740" data-name="Trazado 10740"/><path class="cls-1" d="M35 35.4h-5a4.7 4.7 0 01-4.7-4.8v-7.2a4.7 4.7 0 014.7-4.7h5a4.7 4.7 0 014.7 4.7v7.2a4.7 4.7 0 01-4.7 4.8zm-5-14.9a2.9 2.9 0 00-2.9 2.9v7.2a2.9 2.9 0 002.9 3h5a2.9 2.9 0 002.9-3v-7.2a2.9 2.9 0 00-2.9-2.9z" id="Rectángulo_4149" data-name="Rectángulo 4149"/><path class="cls-1" d="M36.2 49.2h-7.3a.9.9 0 01-.9-.9v-7.9a.9.9 0 011.8 0v7h5.5v-7a.9.9 0 011.8 0v7.9a.9.9 0 01-.9.9z" id="Trazado_10741" data-name="Trazado 10741"/><path class="cls-1" d="M32.6 49a1 1 0 01-.9-.9v-7.5a.9.9 0 111.8 0v7.5a1 1 0 01-.9.9z" id="Línea_2154" data-name="Línea 2154"/><path class="cls-1" d="M36.1 28.2H29a.9.9 0 010-1.8h7.1a.9.9 0 110 1.8z" id="Línea_2155" data-name="Línea 2155"/><path d="M32.4 18.2a4.3 4.3 0 114.2-4.2 4.2 4.2 0 01-4.2 4.2zm0-6.7a2.5 2.5 0 100 4.9 2.5 2.5 0 000-4.9z" fill="#19a500" id="Elipse_1975" data-name="Elipse 1975"/></g><path class="cls-1" d="M49.8 18.2A4.3 4.3 0 1154 14a4.2 4.2 0 01-4.2 4.2zm0-6.7a2.5 2.5 0 100 4.9 2.5 2.5 0 000-4.9z" id="Elipse_1976" data-name="Elipse 1976"/><path class="cls-3" d="M.2 0h64.6v65H.2z" id="Rectángulo_3799" data-name="Rectángulo 3799"/><path class="cls-3" d="M-.2 48.3h65v16.74h-65z"/><path class="cls-4" d="M45.2 61.3H38a1.2 1.2 0 01-1.2-1.2 1.3 1.3 0 011.2-1.2h7.2a1.2 1.2 0 011.2 1.2 1.2 1.2 0 01-1.2 1.2zm7.7 0h-.5a1.2 1.2 0 01-1.2-1.2 1.2 1.2 0 011.2-1.2h.5a1.2 1.2 0 011.2 1.2 1.2 1.2 0 01-1.2 1.2zm-34.1 0h-7.1a1.2 1.2 0 01-1.2-1.2 1.3 1.3 0 011.2-1.2h7.1a1.2 1.2 0 011.2 1.2 1.2 1.2 0 01-1.2 1.2z"/><path d="M30.9 61.3H18.4a1.2 1.2 0 01-1.2-1.2 1.2 1.2 0 011.2-1.2h12.5a1.3 1.3 0 011.2 1.2 1.2 1.2 0 01-1.2 1.2zm4.4-6.1H11.7a1.2 1.2 0 110-2.4h23.6a1.2 1.2 0 010 2.4z" fill="#82d400"/><path class="cls-4" d="M52.9 55.2H34.6a1.2 1.2 0 110-2.4h18.3a1.2 1.2 0 110 2.4zm-40.8 0h-.4a1.2 1.2 0 110-2.4h.4a1.2 1.2 0 010 2.4z"/></svg>