<svg xmlns="http://www.w3.org/2000/svg" xmlns:xlink="http://www.w3.org/1999/xlink" viewBox="0 0 65 65"><style>.st0{fill:none}.st1,.st5{fill:none;stroke-linecap:round;stroke-linejoin:round}.st1{stroke:#4c9f2e;stroke-width:2.4;stroke-miterlimit:10}.st5{stroke:#95a6b1;stroke-width:1.6}</style><symbol id="Textura-65px_2" viewBox="-32.5 -8.37 65 16.74"><path class="st0" d="M-32.5-8.37h65V8.37h-65z"/><path class="st1" d="M5.71-3.49h7.17m7.15 0h.58m-41.22 0h7.1"/><path d="M-13.97-3.49h12.52m-19.16 6.11H2.97" stroke="#94d040" stroke-width="2.4" stroke-miterlimit="10" fill="none" stroke-linecap="round" stroke-linejoin="round"/><path class="st1" d="M2.25 2.62h18.36m-41.22 0h.43"/></symbol><g id="Capa_1"><use xlink:href="#Textura-65px_2" width="65" height="16.74" x="-32.5" y="-8.37" transform="matrix(1 0 0 -1 32.5 56.63)" overflow="visible"/><path class="st0" d="M0 0h65v65H0z"/><path class="st5" d="M40.74 22.35a8.241 8.241 0 01-16.48 0m16.51-3.7h2.33v3.4H21.9v-3.4h2.39m0 0c0-4.54 3.68-8.22 8.22-8.22s8.22 3.68 8.22 8.22"/><circle class="st5" cx="32.5" cy="17.06" r="2.1"/><path class="st5" d="M32.5 13.32v1.64m2.1-3.61v-.33c0 1.16-.95 2.1-2.1 2.1-1.16 0-2.1-.95-2.1-2.1v.33m8.51 21.89H26.09c-4.9 0-8.87 3.97-8.87 8.87v5.9h30.55v-5.9c0-4.9-3.97-8.87-8.86-8.87z"/><path class="st5" d="M33.74 33.24h-2.48l-1.82 8.86 3.16 2.3 2.96-2.3zm-3.51 4.99l3.96-2.81m-3.96 6.74l3.96-2.81m13.39-24.39c-.21-.4-.44-.78-.69-1.16l1.67-1.67-5.07-5.07-1.67 1.67a16.977 16.977 0 00-5.73-2.38V4h-7.17v2.35c-2.07.44-4.01 1.26-5.73 2.38l-1.67-1.67-5.07 5.07 1.67 1.67a16.977 16.977 0 00-2.38 5.73h-2.35v7.17h2.35c.44 2.07 1.26 4.01 2.38 5.73l-1.67 1.67 2.54 2.54m26.95.07l2.61-2.61-1.67-1.67c1.12-1.72 1.94-3.66 2.38-5.73h2.35v-1.99"/><path d="M52.93 18.3c.34.74.36 1.55.12 2.27-.26.79-.84 1.48-1.66 1.85-1.56.71-3.41.03-4.12-1.54-.71-1.56-.03-3.41 1.54-4.12s3.4-.02 4.12 1.54z" fill="none" stroke="#00a800" stroke-width="1.6" stroke-linecap="round" stroke-linejoin="round" stroke-miterlimit="10"/></g></svg>