<svg id="Capa_1" data-name="Capa 1" xmlns="http://www.w3.org/2000/svg" viewBox="0 0 65 65"><defs><style>.cls-1{fill:none}.cls-2{fill:#19a301}.cls-4{fill:#95a6b1}</style></defs><path class="cls-1" d="M0 0h65v65H0z"/><path class="cls-1" d="M0 48.3h65v16.74H0z"/><path class="cls-2" d="M45.4 61.3h-7.2a1.2 1.2 0 01-1.2-1.2 1.3 1.3 0 011.2-1.2h7.2a1.3 1.3 0 011.2 1.2 1.2 1.2 0 01-1.2 1.2zm7.7 0h-.6a1.2 1.2 0 01-1.2-1.2 1.3 1.3 0 011.2-1.2h.6a1.2 1.2 0 011.2 1.2 1.2 1.2 0 01-1.2 1.2zm-34.1 0h-7.1a1.2 1.2 0 01-1.2-1.2 1.2 1.2 0 011.2-1.2H19a1.2 1.2 0 011.2 1.2 1.2 1.2 0 01-1.2 1.2z"/><path d="M31 61.3H18.5a1.2 1.2 0 01-1.2-1.2 1.3 1.3 0 011.2-1.2H31a1.2 1.2 0 011.2 1.2 1.2 1.2 0 01-1.2 1.2zm4.5-6.1H11.9a1.2 1.2 0 110-2.4h23.6a1.2 1.2 0 010 2.4z" fill="#82d400"/><path class="cls-2" d="M53.1 55.2H34.7a1.2 1.2 0 010-2.4h18.4a1.2 1.2 0 010 2.4zm-40.8 0h-.4a1.2 1.2 0 110-2.4h.4a1.2 1.2 0 010 2.4z"/><path class="cls-4" d="M55.3 34.2H37a.9.9 0 01-.8-.8v-8.9a.9.9 0 01.8-.8h3.7a.8.8 0 01.8.8.7.7 0 01-.8.8h-2.9v7.3h17.5a.7.7 0 01.8.8.8.8 0 01-.8.8zm0-8.9h-3.7a.8.8 0 01-.8-.8.9.9 0 01.8-.8h3.7a.8.8 0 01.8.8.7.7 0 01-.8.8z"/><path class="cls-4" d="M37 35h-4.1a.9.9 0 01-.8-.8V23.7a.8.8 0 01.8-.8H37a.7.7 0 01.8.8v10.5a.8.8 0 01-.8.8zm-3.3-1.6h2.5v-8.9h-2.5z"/><path d="M46.1 28.4l-1.4-.2a4.5 4.5 0 01-2.2-2.1 4.4 4.4 0 01-.1-3 4 4 0 017.3-.2 4.1 4.1 0 01-2 5.2 4.1 4.1 0 01-1.6.3zm0-6.2l-1 .2a2.5 2.5 0 00-1.2 1.3 2.3 2.3 0 00.1 1.8 2.5 2.5 0 001.3 1.2 2.3 2.3 0 001.8-.1 2.1 2.1 0 001.2-1.4 2.2 2.2 0 00-.1-1.6 2.3 2.3 0 00-2.1-1.4z" fill="#19a500"/><path class="cls-4" d="M34 45.5H10.8a1.9 1.9 0 01-1.9-1.9v-.9a1.9 1.9 0 011.9-1.9H34a2 2 0 011.9 1.9v.9a2 2 0 01-1.9 1.9zm-23.2-3.1a.3.3 0 00-.3.3v.9a.3.3 0 00.3.3H34a.3.3 0 00.3-.3v-.9a.3.3 0 00-.3-.3z" id="Rect치ngulo_4592" data-name="Rect치ngulo 4592"/><path class="cls-4" d="M34 15.7H10.8a1.8 1.8 0 01-1.9-1.9V13a1.9 1.9 0 011.9-1.9H34a2 2 0 011.9 1.9v.8a1.9 1.9 0 01-1.9 1.9zm-23.2-3a.3.3 0 00-.3.3v.8a.3.3 0 00.3.3H34a.3.3 0 00.3-.3V13a.3.3 0 00-.3-.3z" id="Rect치ngulo_4593" data-name="Rect치ngulo 4593"/><path class="cls-4" d="M32.9 42.4h-21a.8.8 0 01-.8-.8v-6.8h-.2a2 2 0 01-2-2v-.6a2.1 2.1 0 012-2.1h.2v-4.3h-.2a2 2 0 01-2-2v-.6a2 2 0 012-2h.2v-6.3a.8.8 0 01.8-.8h21a.9.9 0 01.8.8v26.7a.8.8 0 01-.8.8zm-20.2-1.6h19.4V15.7H12.7V22a.9.9 0 01-.8.8h-1a.4.4 0 00-.4.4v.6a.4.4 0 00.4.4h1a.9.9 0 01.8.8v5.9a.8.8 0 01-.8.8h-1a.5.5 0 00-.4.5v.6a.4.4 0 00.4.4h1a.9.9 0 01.8.8z" id="Trazado_11681" data-name="Trazado 11681"/><path class="cls-4" d="M29.4 39.8H15.3a.9.9 0 01-.8-.8V22.5a.7.7 0 01.4-.6c.1-.1 2.9-2.1 7.8-.1s6.3 0 6.3 0a1.1 1.1 0 01.8 0 .8.8 0 01.4.7V39a.8.8 0 01-.8.8zm-13.3-1.6h12.5V23.7a9.5 9.5 0 01-6.5-.5c-3.2-1.2-5.2-.6-6-.2z" id="Trazado_11682" data-name="Trazado 11682"/></svg>