<svg id="Capa_1" data-name="Capa 1" xmlns="http://www.w3.org/2000/svg" viewBox="0 0 65 65"><defs><style>.cls-1{fill:#95a6b1}.cls-3{fill:none}.cls-4{fill:#19a301}</style></defs><path class="cls-1" d="M54.1 45.3H11.9a.7.7 0 01-.8-.8v-12a.8.8 0 01.8-.8h42.2a.8.8 0 01.8.8v12a.7.7 0 01-.8.8zm-41.4-1.6h40.6V33.3H12.7z"/><path class="cls-1" d="M11.9 46.2H7.8a.8.8 0 01-.8-.8V31.7a.7.7 0 01.8-.8h4.1a.8.8 0 01.8.8v13.7a.9.9 0 01-.8.8zm-3.3-1.6h2.5V32.5H8.6zm49.6 1.6h-4.1a.9.9 0 01-.8-.8V31.7a.8.8 0 01.8-.8h4.1a.8.8 0 01.8.8v13.7a.9.9 0 01-.8.8zm-3.3-1.6h2.5V32.5h-2.5zm-33.9.7a.8.8 0 01-.8-.8v-3.9a.8.8 0 01.8-.8.7.7 0 01.8.8v3.9a.7.7 0 01-.8.8z"/><path d="M29 25.7a3.5 3.5 0 01-1.4-.3 4.3 4.3 0 01-2.2-2 3.9 3.9 0 012-5.2 4 4 0 015.2 1.9 4.1 4.1 0 01.1 2.9 3.7 3.7 0 01-2.1 2.3 4.2 4.2 0 01-1.6.4zm0-6.3l-1 .2a3.7 3.7 0 00-1.2 1.3 2.3 2.3 0 00.1 1.8 2.2 2.2 0 001.3 1.2 2.8 2.8 0 001.8 0 2.4 2.4 0 001.2-1.4 2.5 2.5 0 00-.1-1.7 2.3 2.3 0 00-2.1-1.4z" fill="#00a800"/><path class="cls-1" d="M45.3 33.3H31.2a.8.8 0 01-.8-.8V27a.8.8 0 01.8-.8.7.7 0 01.8.8v4.7h12.5v-8.9h-9.8a.8.8 0 01-.8-.8.9.9 0 01.8-.8h10.6a.8.8 0 01.8.8v10.5a.7.7 0 01-.8.8z"/><path class="cls-1" d="M45.3 26.1H34.7a.8.8 0 01-.8-.8.7.7 0 01.8-.8h10.6a.7.7 0 01.8.8.8.8 0 01-.8.8z"/><path class="cls-3" d="M0 0h65v65H0z"/><path class="cls-1" d="M38.8 18.5a7 7 0 110-14 7 7 0 010 14zm0-12.4a5.4 5.4 0 00-5.4 5.4 5.4 5.4 0 0010.8 0 5.4 5.4 0 00-5.4-5.4z" id="Elipse_2295" data-name="Elipse 2295"/><path class="cls-1" d="M40.8 11.9h-1.9a.7.7 0 01-.8-.8.8.8 0 01.8-.8h1.9a.8.8 0 01.8.8.7.7 0 01-.8.8z" id="Línea_2439" data-name="Línea 2439"/><path class="cls-1" d="M38.9 13a.7.7 0 01-.8-.8V10a.8.8 0 01.8-.8.9.9 0 01.8.8v2.2a.8.8 0 01-.8.8z" id="Línea_2440" data-name="Línea 2440"/><path class="cls-1" d="M38.8 22.8a.8.8 0 01-.8-.8v-4.3a.8.8 0 01.8-.8.7.7 0 01.8.8V22a.7.7 0 01-.8.8zm6.6 16.6H32.2a.8.8 0 01-.8-.8.7.7 0 01.8-.8h13.2a.8.8 0 01.8.8.9.9 0 01-.8.8z"/><path class="cls-1" d="M42.4 42.5a.5.5 0 01-.5-.3.8.8 0 010-1.1l2.5-2.5-2.5-2.6a.8.8 0 011.1-1.1l3.1 3.1a.8.8 0 010 1.1L43 42.2a.9.9 0 01-.6.3z"/><path class="cls-3" d="M0 48.3h65v16.74H0z"/><path class="cls-4" d="M45.4 61.3h-7.2a1.2 1.2 0 01-1.2-1.2 1.3 1.3 0 011.2-1.2h7.2a1.3 1.3 0 011.2 1.2 1.2 1.2 0 01-1.2 1.2zm7.7 0h-.6a1.2 1.2 0 01-1.2-1.2 1.3 1.3 0 011.2-1.2h.6a1.2 1.2 0 011.2 1.2 1.2 1.2 0 01-1.2 1.2zm-34.1 0h-7.1a1.2 1.2 0 01-1.2-1.2 1.2 1.2 0 011.2-1.2H19a1.2 1.2 0 011.2 1.2 1.2 1.2 0 01-1.2 1.2z"/><path d="M31 61.3H18.5a1.2 1.2 0 01-1.2-1.2 1.3 1.3 0 011.2-1.2H31a1.2 1.2 0 011.2 1.2 1.2 1.2 0 01-1.2 1.2zm4.5-6.1H11.9a1.2 1.2 0 110-2.4h23.6a1.2 1.2 0 010 2.4z" fill="#82d400"/><path class="cls-4" d="M53.1 55.2H34.7a1.2 1.2 0 010-2.4h18.4a1.2 1.2 0 010 2.4zm-40.8 0h-.4a1.2 1.2 0 110-2.4h.4a1.2 1.2 0 010 2.4z"/></svg>