<svg version="1.1" id="Capa_1" xmlns="http://www.w3.org/2000/svg" x="0" y="0" width="150" height="84" xml:space="preserve"><style>.st0{fill:none}.st2{fill:#fff}.st3{fill:#ffda25}.st5{fill:#ffe600}</style><path class="st0" d="M0 0h150v84H0z"/><path class="st0" d="M0 0h150v84H0z"/><g id="XMLID_34_"><g id="XMLID_38_"><g id="XMLID_50_"><path class="st2" d="M78.5 52.1h-5.3c-.6 0-1-.4-1-1 0-2.5-1.2-4.9-3.2-6.4-.1 0-.1-.1-.2-.2-3.5-2.5-5.8-6.2-6.5-10.3-.1-.3 0-.6.2-.8.2-.2.5-.4.8-.4h15.2c.6 0 1 .4 1 1v5.6c0 .6-.4 1-1 1-.1 0-.2 0-.4-.1-.3-.1-.5-.1-.8-.1-1 0-1.8.6-1.8 1.3 0 .7.8 1.3 1.8 1.3.3 0 .6 0 .8-.1.6-.2 1.4.3 1.4.9v7.3c0 .6-.5 1-1 1zm-4.4-2h3.4V45c-2.2.1-4-1.4-4-3.3s1.9-3.3 4-3.3V35h-13c.9 3.2 2.9 6.1 5.7 8 .1.1.2.1.2.2 2.1 1.8 3.4 4.3 3.7 6.9z" id="XMLID_71_"/><path class="st2" d="M78.6 62.3h-.2c-3.4 0-6.2-2.8-6.2-6.2v-5c0-.6.4-1 1-1h4.3V45c-2.2.1-4-1.4-4-3.3s1.9-3.3 4-3.3V34c0-.6.4-1 1-1h5.1v-.1c0-2.1 1.5-3.8 3.3-3.8 1.8 0 3.3 1.7 3.3 3.8v.1h3.6c.3 0 .6.1.8.4s.3.5.2.8c-.8 4.3-3.2 8-6.8 10.5-2 1.5-3.1 3.8-3.1 6.4v5c-.1 3.4-2.9 6.2-6.3 6.2zm-4.5-10.2v4c0 2.3 1.9 4.2 4.2 4.2h.2c2.3 0 4.2-1.9 4.2-4.2v-5c0-3.2 1.4-6.1 4-8 2.8-2 4.8-4.8 5.7-8.1h-3.6c-.3 0-.6-.2-.8-.4-.2-.3-.2-.6-.1-.9.1-.3.1-.5.1-.8 0-1-.6-1.8-1.3-1.8-.7 0-1.3.8-1.3 1.8 0 .3 0 .6.1.8.1.3.1.6-.1.9-.2.3-.5.4-.8.4h-5.2v4.6c0 .6-.4 1-1 1-.1 0-.2 0-.4-.1-.3-.1-.5-.1-.8-.1-1 0-1.8.6-1.8 1.3 0 .7.8 1.3 1.8 1.3.3 0 .6 0 .8-.1.6-.2 1.4.3 1.4.9v7.3c0 .6-.4 1-1 1h-4.3z" id="XMLID_69_"/><path class="st2" d="M71.5 30.5H56.3c-.5 0-.9-.3-1-.8-.2-1-.3-2-.3-3 0-.6 0-1.2.1-1.8.1-.5.6-.9 1.1-.9.5.1.9.5.9 1.1-.1.5-.1 1-.1 1.5 0 .6 0 1.2.1 1.8h13.4v-5.7c0-.7.7-1.2 1.3-.9.2.1.5.1.8.1 1 0 1.8-.6 1.8-1.3 0-.7-.8-1.3-1.8-1.3-.3 0-.6 0-.8.1-.3.1-.6.1-.9-.1-.3-.2-.4-.5-.4-.8V12c-1.2.1-2.3.3-3.4.7-.5.2-1.1-.1-1.3-.6-.2-.5.1-1.1.6-1.3 1.6-.5 3.3-.8 5-.8.6 0 1 .4 1 1v6.3c2.1-.1 4 1.4 4 3.3s-1.8 3.4-4 3.3v5.5c.1.7-.3 1.1-.9 1.1z" id="XMLID_1_"/><path class="st2" d="M93.7 35.1h-4.8c-.3 0-.6-.2-.8-.4-.2-.3-.2-.6-.1-.9.1-.3.1-.5.1-.8 0-1-.6-1.8-1.3-1.8-.7 0-1.3.8-1.3 1.8 0 .3 0 .6.1.8.1.3.1.6-.1.9-.2.3-.5.4-.8.4h-6.2c-.6 0-1-.4-1-1v-6.7c0-.7.7-1.2 1.3-.9.3.1.5.1.8.1 1 0 1.8-.6 1.8-1.3s-.8-1.3-1.8-1.3c-.3 0-.6 0-.8.1-.3.1-.6.1-.9-.1s-.4-.5-.4-.8v-7.5c0-.6.4-1 1-1 9.1 0 16.5 7.4 16.5 16.5 0 1-.1 2-.3 3-.1.5-.5.9-1 .9zm-3.6-2h2.8c.1-.6.1-1.2.1-1.8 0-7.7-6-14-13.5-14.5V22c2.2-.1 4 1.4 4 3.3s-1.8 3.4-4 3.3v4.5h4.1V33c0-2.1 1.5-3.8 3.3-3.8 1.8 0 3.3 1.7 3.3 3.8-.1 0-.1 0-.1.1z" id="XMLID_64_"/></g></g><path class="st2" d="M83.8 52.1H73.1c-.6 0-1-.4-1-1s.4-1 1-1h10.6c.6 0 1 .4 1 1s-.4 1-.9 1z" id="XMLID_37_"/><path class="st2" d="M82.9 56.3H74c-.6 0-1-.4-1-1s.4-1 1-1h8.9c.6 0 1 .4 1 1s-.4 1-1 1z" id="XMLID_35_"/></g><path class="st3" d="M60.3 23.7c-3.3 0-6.1-2.7-6.1-6.1 0-3.3 2.7-6.1 6.1-6.1s6.1 2.7 6.1 6.1c0 3.4-2.7 6.1-6.1 6.1zm0-10.1c-2.2 0-4.1 1.8-4.1 4.1 0 2.2 1.8 4.1 4.1 4.1s4.1-1.8 4.1-4.1-1.8-4.1-4.1-4.1z"/><path class="st2" d="M115.5 62.1c-.4 0-1-.1-1.5-.3-.7-.4-1.2-1-1.5-1.8-.4-1.1-.1-2 .2-2.4.6-1.1 1.9-1.5 2-1.5 1.3-.3 2.7-.7 3-.8h.1c.3-.1.4-.2.5-.5 0-.5-.6-.8-.6-.8l-11.8-6.7c-.1 0-1.8-.8-2.2-2.4-.2-.6-.2-1.5.4-2.5.4-.7 1-1.1 1.7-1.3 1.6-.3 3.2.8 3.4.9l10 5.7c.5.3.6.9.4 1.4-.3.5-.9.6-1.4.4l-10.1-5.7c-.4-.3-1.4-.8-1.9-.6-.1 0-.3.1-.4.3-.3.4-.2.7-.2.9.2.6 1 1.1 1.2 1.2l11.8 6.7c.6.3 1.8 1.2 1.7 2.7-.1.7-.4 1.7-1.7 2.2-.1.1-.3.1-3.3.9-.1 0-.6.2-.8.6 0 .1-.2.3 0 .9.3.9 1.1.8 1.5.7l11.5-3c.5-.1 1.1.2 1.2.7.1.5-.2 1.1-.7 1.2l-11.5 3c0-.2-.4-.1-1-.1zm5.7-16.1c-.2 0-.3 0-.5-.1L110 39.7l-.1-.1c-.8-.7-2-2.4-.8-4.2 1.3-1.9 3.6-1.4 4.6-.8.3.2 6.5 3.8 10.6 6.1.5.3.6.9.4 1.4-.3.5-.9.6-1.4.4-1.7-1-10.4-6-10.7-6.2 0 0-1.2-.7-1.8.2-.4.7.1 1.3.4 1.5l10.6 6.1c.5.3.6.9.4 1.4-.3.3-.6.5-1 .5z"/><path class="st2" d="M108.3 43.5c-.2 0-.4 0-.5-.1-.7-.4-1.5-.9-2.2-1.5-1.4-1.2-1.6-2.9-.6-4.3 1.4-1.8 3.6-1.2 4.6-.6 0 0 .1 0 .1.1l1.4 1c.4.3.5.9.2 1.4-.3.4-.9.5-1.4.2l-1.4-1c-.2-.1-1.4-.7-2 .1-.4.5-.3 1.1.3 1.6s1.3.9 1.9 1.3c.5.3.6.9.3 1.4-.1.2-.4.4-.7.4zm29 1.6c-.2 0-.3 0-.5-.1l-19.4-10.7c-.1 0-1.7-1-2.2-.3-.6.8-.1 1.5 0 1.6.3.4.3 1.1-.2 1.4-.4.3-1 .3-1.4-.1-.6-.7-1.3-2.4-.1-4.1 1.3-1.8 3.6-1 4.8-.3l19.3 10.7c.5.3.7.9.4 1.4-.1.3-.4.5-.7.5z"/><path class="st2" d="M130.8 60.5c-.2 0-.3 0-.5-.1l-3.6-2.1c-.5-.3-.6-.9-.4-1.4l8.3-14.4c.3-.5.9-.6 1.4-.4l3.6 2.1c.2.1.4.4.5.6s0 .5-.1.8L131.7 60c-.1.2-.4.4-.6.5h-.3zm-2.2-3.4l1.8 1.1 7.3-12.6-1.8-1.1-7.3 12.6zm-85-21.6c-1.4 0-2.6-.8-2.8-1l-10-5.7c-.5-.3-.6-.9-.4-1.4.3-.5.9-.6 1.4-.4l10.1 5.7c.4.3 1.4.8 1.9.6.1 0 .3-.1.4-.3.3-.4.2-.7.2-.9-.2-.6-1-1.1-1.2-1.2l-11.8-6.7c-.6-.3-1.8-1.2-1.7-2.7.1-.7.4-1.7 1.7-2.2.1-.1.3-.1 3.3-.9.1 0 .6-.2.8-.6 0-.1.2-.3 0-.9-.2-.5-.4-.6-.5-.7-.4-.2-.9-.1-1-.1l-11.5 3c-.5.1-1.1-.2-1.2-.7s.2-1.1.7-1.2l11.5-3c.1 0 1.4-.4 2.5.2.7.4 1.2 1 1.5 1.8.4 1.1.1 2-.2 2.4-.6 1.1-1.9 1.5-2 1.5-1.3.3-2.7.7-3 .8h-.1c-.3.1-.4.2-.5.5 0 .5.6.8.6.8l11.8 6.7c.1 0 1.8.8 2.2 2.4.2.6.2 1.5-.4 2.5-.4.7-1 1.1-1.7 1.3-.2.4-.4.4-.6.4zm-5.2 6.8c-.8 0-1.6-.3-2-.6-.3-.2-6.5-3.8-10.6-6.1-.5-.3-.6-.9-.4-1.4.3-.5.9-.6 1.4-.4 1.7 1 10.4 6 10.7 6.2 0 0 1.2.7 1.8-.2.4-.7-.1-1.3-.4-1.5l-10.6-6.1c-.5-.3-.6-.9-.4-1.4.3-.5.9-.6 1.4-.4L40 36.6l.1.1c.8.7 2 2.4.8 4.2-.7 1.1-1.6 1.4-2.5 1.4z"/><path class="st2" d="M42.5 40.1c-.8 0-1.7-.3-2.1-.6 0 0-.1 0-.1-.1l-1.4-1c-.4-.3-.5-.9-.2-1.4.3-.4.9-.5 1.4-.2l1.4 1c.2.1 1.4.7 2-.1.4-.5.3-1.1-.3-1.6s-1.3-.9-1.9-1.3c-.5-.3-.6-.9-.3-1.4.3-.5.9-.6 1.4-.3.7.4 1.5.9 2.2 1.5 1.4 1.2 1.6 2.9.6 4.3-.9.9-1.8 1.2-2.7 1.2zm-8.3 4.6c-1 0-2-.4-2.6-.8L12.3 33.2c-.5-.3-.7-.9-.4-1.4.3-.5.9-.7 1.4-.4l19.4 10.7c.1 0 1.7 1 2.2.3.6-.8.1-1.5 0-1.6-.3-.4-.3-1.1.2-1.4.4-.3 1-.3 1.4.1.6.7 1.3 2.4.1 4.1-.8.9-1.6 1.1-2.4 1.1z"/><path class="st2" d="M14.4 34.3c-.2 0-.3 0-.5-.1l-3.6-2.1c-.2-.1-.4-.4-.5-.6-.1-.3 0-.5.1-.8l8.3-14.4c.1-.2.4-.4.6-.5.3-.1.5 0 .8.1l3.6 2.1c.5.3.6.9.4 1.4l-8.3 14.4c-.2.3-.5.5-.9.5zm-2.2-3.4L14 32l7.3-12.6-1.8-1.1-7.3 12.6zm39.5 22.6h-.2c-.5-.1-.9-.6-.8-1.2l4.6-23c.1-.5.6-.9 1.2-.8.5.1.9.6.8 1.2l-4.6 23c-.2.5-.6.8-1 .8zm-25 2.8c-1.2 0-2.3-.5-3.1-1.5-1.4-1.7-1.2-4.2.5-5.6 1.7-1.4 4.2-1.2 5.6.5 1.4 1.7 1.2 4.2-.5 5.6-.7.7-1.6 1-2.5 1zm-1.6-2.7c.7.9 2 1 2.8.3.9-.7 1-2 .3-2.8-.7-.9-2-1-2.8-.3-.9.6-1 1.9-.3 2.8z"/><path class="st2" d="M50 61.4c-1.4 0-2.9-.6-3.8-1.8-.8-1-1.2-2.3-1.1-3.6s.8-2.5 1.8-3.3c2.1-1.7 5.2-1.4 7 .7 1.7 2.1 1.4 5.2-.7 7-1 .7-2.1 1-3.2 1zm-.1-7.9c-.7 0-1.3.2-1.9.7-.6.5-1 1.2-1.1 2-.1.8.2 1.6.7 2.2 1 1.3 2.9 1.4 4.2.4 1.3-1 1.4-2.9.4-4.2-.5-.7-1.4-1.1-2.3-1.1z"/><path class="st2" d="M47.4 54.4c-.4 0-.7-.2-.9-.6l-7-14.3c-.2-.5 0-1.1.5-1.3.5-.2 1.1 0 1.3.5l7 14.3c.2.5 0 1.1-.5 1.3-.1.1-.2.1-.4.1zm-1.2 4H46l-16.5-4.2c-.5-.1-.9-.7-.7-1.2.1-.5.7-.9 1.2-.7l16.5 4.2c.5.1.9.7.7 1.2-.2.4-.6.7-1 .7zM91.9 24c-.4 0-.7-.2-.9-.5-.3-.5-.1-1.1.4-1.4l10.4-5.7c.5-.3 1.1-.1 1.4.4s.1 1.1-.4 1.4l-10.4 5.7c-.2 0-.4.1-.5.1zm35.7 4.8c-1.5 0-2.9-.8-3.6-2.2-.5-1-.6-2-.2-3.1.3-1 1-1.8 2-2.3 1-.5 2-.6 3.1-.2 1 .3 1.8 1 2.3 2 .5 1 .6 2 .2 3.1-.3 1-1.1 1.8-2 2.3-.6.3-1.2.4-1.8.4zm0-6c-.3 0-.6.1-.9.2-.5.2-.8.7-1 1.2-.2.5-.1 1.1.1 1.5.2.5.7.8 1.2 1 .5.2 1 .1 1.5-.1s.8-.7 1-1.2.1-1.1-.1-1.5c-.4-.7-1.1-1.1-1.8-1.1z"/><path class="st2" d="M105.8 20.5c-.5 0-1.1-.1-1.6-.3-1.3-.4-2.3-1.3-2.9-2.5-1.2-2.4-.2-5.4 2.2-6.7 1.2-.6 2.5-.7 3.8-.3 1.3.4 2.3 1.3 2.9 2.5 1.2 2.4.2 5.4-2.2 6.7-.7.4-1.4.6-2.2.6zm0-7.9c-.5 0-.9.1-1.3.3-.7.4-1.2 1-1.5 1.7-.2.7-.2 1.6.2 2.3.4.7 1 1.2 1.7 1.5.7.2 1.6.2 2.3-.2 1.5-.7 2.1-2.5 1.3-4-.4-.7-1-1.2-1.7-1.5-.4-.1-.7-.1-1-.1z"/><path class="st2" d="M111.2 35.6c-.5 0-.9-.3-1-.8l-3.7-15.5c-.1-.5.2-1.1.7-1.2.5-.1 1.1.2 1.2.7l3.7 15.5c.1.5-.2 1.1-.7 1.2 0 0-.1.1-.2.1zm13.7-11.4c-.2 0-.3 0-.5-.1l-15.2-7.7c-.5-.3-.7-.9-.4-1.3.3-.5.8-.7 1.3-.4l15.2 7.7c.5.3.7.9.4 1.3-.1.3-.5.5-.8.5z"/><path class="st0" d="M33 63.1h84V84H33z"/><path d="M78.7 71.8H49.2c-.9 0-1.6-.7-1.6-1.6s.7-1.6 1.6-1.6h29.5c.9 0 1.6.7 1.6 1.6s-.7 1.6-1.6 1.6z" fill="#fff000"/><path class="st5" d="M91.1 79.5h-9c-.9 0-1.6-.7-1.6-1.6s.7-1.6 1.6-1.6h9c.9 0 1.6.7 1.6 1.6s-.7 1.6-1.6 1.6zm9.7 0h-.8c-.9 0-1.6-.7-1.6-1.6s.7-1.6 1.6-1.6h.7c.9 0 1.6.7 1.6 1.6s-.7 1.6-1.5 1.6z"/><path class="st3" d="M58.1 79.5h-8.9c-.9 0-1.6-.7-1.6-1.6s.7-1.6 1.6-1.6h8.9c.9 0 1.6.7 1.6 1.6s-.7 1.6-1.6 1.6z"/><path class="st5" d="M73.2 79.5H58.6c-.9 0-1.6-.7-1.6-1.6s.7-1.6 1.6-1.6h14.6c.9 0 1.6.7 1.6 1.6s-.8 1.6-1.6 1.6z"/><path class="st3" d="M63.8 79.5h-5.2c-.9 0-1.6-.7-1.6-1.6s.7-1.6 1.6-1.6h5.2c.9 0 1.6.7 1.6 1.6s-.7 1.6-1.6 1.6zm37-7.7h-23c-.9 0-1.6-.7-1.6-1.6s.7-1.6 1.6-1.6h23c.9 0 1.6.7 1.6 1.6s-.8 1.6-1.6 1.6zm-51 0h-.5c-.9 0-1.6-.7-1.6-1.6s.7-1.6 1.6-1.6h.5c.9 0 1.6.7 1.6 1.6s-.8 1.6-1.6 1.6z"/><path class="st3" d="M83.9 71.8h-6.1c-.9 0-1.6-.7-1.6-1.6s.7-1.6 1.6-1.6h6.1c.9 0 1.6.7 1.6 1.6s-.7 1.6-1.6 1.6z"/></svg>