<svg id="Capa_1" data-name="Capa 1" xmlns="http://www.w3.org/2000/svg" viewBox="0 0 65 65"><defs><style>.cls-1{fill:none}.cls-2{fill:#4da12e}.cls-5{fill:#95a6b1}</style></defs><g id="Grupo_14998" data-name="Grupo 14998"><path class="cls-1" d="M0 0h65v65H0z" id="Rectángulo_3799-2" data-name="Rectángulo 3799-2"/></g><path class="cls-1" d="M0 48.3h65v16.74H0z"/><path class="cls-2" d="M45.4 61.3h-7.2a1.2 1.2 0 01-1.2-1.2 1.3 1.3 0 011.2-1.2h7.2a1.3 1.3 0 011.2 1.2 1.2 1.2 0 01-1.2 1.2zm7.7 0h-.6a1.2 1.2 0 01-1.2-1.2 1.3 1.3 0 011.2-1.2h.6a1.2 1.2 0 011.2 1.2 1.2 1.2 0 01-1.2 1.2zm-34.1 0h-7.1a1.2 1.2 0 01-1.2-1.2 1.2 1.2 0 011.2-1.2H19a1.2 1.2 0 011.2 1.2 1.2 1.2 0 01-1.2 1.2z"/><path d="M31 61.3H18.5a1.2 1.2 0 01-1.2-1.2 1.3 1.3 0 011.2-1.2H31a1.2 1.2 0 011.2 1.2 1.2 1.2 0 01-1.2 1.2zm4.5-6.1H11.9a1.2 1.2 0 110-2.4h23.6a1.2 1.2 0 010 2.4z" fill="#96d200"/><path class="cls-2" d="M53.1 55.2H34.7a1.2 1.2 0 010-2.4h18.4a1.2 1.2 0 010 2.4zm-40.8 0h-.4a1.2 1.2 0 110-2.4h.4a1.2 1.2 0 010 2.4z"/><path d="M20 15.3a5.4 5.4 0 010-10.8h.1a5.3 5.3 0 015.3 5.3 5.4 5.4 0 01-5.4 5.5zm.1-9.2a3.8 3.8 0 103.7 3.8 3.8 3.8 0 00-3.7-3.8z" fill="#00a800" id="Trazado_5703" data-name="Trazado 5703"/><path class="cls-5" d="M36.1 48.5H24.9a7.9 7.9 0 01-7.9-7.9V18.1a.9.9 0 01.8-.8.8.8 0 01.8.8v22.5a6.3 6.3 0 006.3 6.3h23.9V7.8h-21A.9.9 0 0127 7a.8.8 0 01.8-.8h21.8a.8.8 0 01.8.8v40.7a.9.9 0 01-.8.8z"/><path class="cls-5" d="M43.5 34H23.9a.7.7 0 01-.8-.8.8.8 0 01.8-.8h19.6a.8.8 0 01.8.8.7.7 0 01-.8.8zm0 4.3H23.9a.8.8 0 010-1.6h19.6a.8.8 0 010 1.6zM36 42.6H23.7a.8.8 0 01-.8-.8.7.7 0 01.8-.8H36a.8.8 0 01.8.8.9.9 0 01-.8.8zm-.2-27a.7.7 0 01-.8-.8v-1.5h-1.5v1.5a.8.8 0 01-.8.8.7.7 0 01-.8-.8v-2.1a1 1 0 011-1h2.6a1.1 1.1 0 011.1 1v2.1a.8.8 0 01-.8.8z"/><path class="cls-5" d="M38.6 28.1h-8.7a.7.7 0 01-.8-.8V14.8a.8.8 0 01.8-.8.9.9 0 01.8.8v11.7h7.1V14.8a.8.8 0 01.8-.8.9.9 0 01.8.8v12.5a.8.8 0 01-.8.8z"/><path class="cls-5" d="M39.5 19.3H28.9a.8.8 0 01-.8-.8.9.9 0 01.8-.8h10.6a.9.9 0 01.8.8.8.8 0 01-.8.8zm0 4.9H28.9a.9.9 0 01-.8-.8.8.8 0 01.8-.8h10.6a.8.8 0 01.8.8.9.9 0 01-.8.8zm0 3.9H28.9a.8.8 0 01-.8-.8.9.9 0 01.8-.8h10.6a.9.9 0 01.8.8.8.8 0 01-.8.8zm0-12.5H28.9a.8.8 0 01-.8-.8.9.9 0 01.8-.8h10.6a.9.9 0 01.8.8.8.8 0 01-.8.8z"/></svg>