<svg xmlns="http://www.w3.org/2000/svg" viewBox="0 0 47 47"><style>.st7{fill:none;stroke:#fff;stroke-width:1.5;stroke-linecap:round;stroke-linejoin:round;stroke-miterlimit:10}</style><g id="Capa_1"><path fill="none" d="M.07 0H47v47H.07z"/><path class="st7" d="M33.79 37.55v2.89H13.87c-2.23 0-4.04-1.81-4.04-4.04V10.95h5.61m18.35 12.29v4.19m-5.61-16.48h5.61v8.2"/><circle class="st7" cx="21.81" cy="13.38" r="6.82"/><path class="st7" d="M19.84 10.88c0-1.09.88-1.97 1.97-1.97s1.97.88 1.97 1.97-.88 1.97-1.97 1.97m0 0v2.31m6.82.88l8.27 5.34c.34.22.36.78.06 1.25l-.66 1.02c-.31.47-.83.68-1.16.46l-8.62-5.56M13.58 26.2h15.4m-15.4 4.43h15.4m-15.4 4.72h15.4"/><path d="M31.33 31.38a2.7 2.7 0 104.91 2.25 2.7 2.7 0 00-4.91-2.25z" fill="none" stroke="#fff" stroke-width="1.5" stroke-linecap="round" stroke-linejoin="round"/></g></svg>