<svg xmlns="http://www.w3.org/2000/svg" viewBox="0 0 125 125"><path d="M26.5 62.5c0-19.9 16.1-36 36-36v-25c-1.2 0-3 .1-4.3.1C24.6 4-.7 33.2 1.7 66.7L26.6 65c-.1-.8-.1-1.7-.1-2.5z" fill="#ffd800"/><path d="M97.1 72.4c-4.3 15.1-18.2 26.1-34.6 26.1-19 0-34.6-14.8-35.9-33.5L1.7 66.7c1.8 26.1 18.9 47.1 44 54.4 32.4 9.3 66.1-9.4 75.4-41.8l-24-6.9z" fill="#c9d2d7"/><path d="M89.2 7.7L78.3 30.1c12 5.8 20.2 18.1 20.2 32.4 0 3.4-.5 6.8-1.4 9.9l24 6.9c8.2-28.7-5-58.5-31.9-71.6z" fill="#00af00"/><path d="M62.5 26.5c5.7 0 11 1.3 15.8 3.6L89.2 7.7c-9-4.4-16.8-6.2-26.7-6.2v25z" fill="#2b5cda"/></svg>