<svg version="1.1" id="Capa_1" xmlns="http://www.w3.org/2000/svg" x="0" y="0" viewBox="0 0 65 65" xml:space="preserve"><style>.st0{fill:none}.st5{fill:#4da12e}</style><g id="Grupo_13213_2_" transform="translate(-.246 -.246)"><path id="Rectángulo_3799-2_2_" class="st0" d="M.25.25h65v65h-65z"/><path d="M38.89 13.79c.25 0 1.27-.2 1.45-.37l.8-.73a.98.98 0 011.22-.09l3.24 2.14c.22.14.37.36.42.62l.63 2.82c.07.3-.01.62-.21.86l-.59.71c-.14.17-.23.39-.23.61l-.06 2.13c-.01.2.07.4.22.54l.18.18c.21.21.53.28.81.16l1.65-.71v1.07c0 .14-.03.28-.09.41l-.52 1.17a1 1 0 00-.05.68l.5 1.72c.09.32.38.53.71.53h.66c.19 0 .37-.07.51-.2l2.55-2.41c.59-.55 1.55-.22 1.68.57l.23 1.5c.05.34-.07.67-.32.9l-5.03 4.48c-.05.04-.09.08-.15.11l-1.02.62c-.38.23-.56.68-.45 1.11l.26.97c.09.35-.01.73-.28.98l-2.29 2.18c-.23.22-.34.54-.3.86l.19 1.42c.03.22-.01.44-.12.63l-1.95 3.38c-.25.44-.8.62-1.27.42l-.64-.28a.988.988 0 00-.84.02l-2.14 1.04c-.16.08-.29.19-.39.33l-1.38 2.01c-.26.38-.81.43-1.14.1l-.4-.42a.651.651 0 01-.15-.23l-.75-1.82c-.14-.35-1.95-.54-1.95-.54-.65-.1-1.17 0-1.17.6v.99c0 .51-.39.94-.89.99l-3.38.36c-.42.04-.83-.18-1.01-.57l-1.54-3.26a.988.988 0 01-.09-.51l.18-2.27c.02-.21-.04-.43-.15-.61l-1.38-2.21c-.2-.32-.57-.5-.94-.47l-4.88.46a1 1 0 01-1.06-.74l-.86-3.22a.908.908 0 00-.17-.34l-1.93-2.56c-.18-.24-.24-.55-.17-.84l.21-.86c.08-.33.38-.57.72-.57h.47c.39 0 .71-.3.74-.68l.04-.57c.03-.42.41-.73.83-.68l2.12.29c.56.08 1.07-.33 1.13-.89l.15-1.55a1 1 0 00-.32-.83l-8.28-7.69a.735.735 0 01-.06-1.02l.5-.59c.2-.24.28-.55.22-.86l-.35-1.63.54.14c.23.06.47 0 .65-.15l1.52-1.27.06 1.08c.01.13-.01.26-.05.38l-.24.69a.998.998 0 001.15 1.3l.3-.06c.34-.07.63-.32.74-.65l.48-1.38a.99.99 0 00.03-.54l-1.06-4.83a.985.985 0 00-.44-.63l-.39-.25a.999.999 0 01-.1-1.61l.29-.24c.14-.11.3-.19.47-.22l1.62-.28c.17-.03.33-.1.46-.21l2.03-1.66a1 1 0 011.57.43l.39 1.06c.07.18.18.33.33.45l1.64 1.26c.25.19.39.48.39.79v1.47c0 .19-.06.38-.16.54l-2.53 3.89c-.07.1-.11.22-.14.34l-1.23 5.89c-.05.26 0 .53.14.76l1.96 2.97c.19.28.5.45.83.45h5.48c.38 0 .73-.21.89-.55l.53-1.07" fill="none" stroke="#95a6b1" stroke-width="1.6" stroke-linecap="round" stroke-linejoin="round"/></g><path id="Trazado_11848_7_" d="M36.86 16.43c0 2.31-1.87 4.18-4.18 4.18-2.31 0-4.18-1.87-4.18-4.18 0-2.31 1.87-4.18 4.18-4.18h0c2.3-.01 4.17 1.85 4.18 4.15v.03z" fill="none" stroke="#19a500" stroke-width="1.6" stroke-linecap="round" stroke-linejoin="round" stroke-miterlimit="10"/><path class="st0" d="M0 48.26h65V65H0z"/><path class="st5" d="M45.38 61.32h-7.17c-.66 0-1.2-.54-1.2-1.2s.54-1.2 1.2-1.2h7.17c.66 0 1.2.54 1.2 1.2s-.54 1.2-1.2 1.2zm7.73 0h-.58c-.66 0-1.2-.54-1.2-1.2s.54-1.2 1.2-1.2h.58c.66 0 1.2.54 1.2 1.2s-.54 1.2-1.2 1.2zm-34.12 0h-7.1c-.66 0-1.2-.54-1.2-1.2s.54-1.2 1.2-1.2h7.1c.66 0 1.2.54 1.2 1.2s-.54 1.2-1.2 1.2z"/><path d="M31.05 61.32H18.53c-.66 0-1.2-.54-1.2-1.2s.54-1.2 1.2-1.2h12.52c.66 0 1.2.54 1.2 1.2s-.54 1.2-1.2 1.2zm4.42-6.11H11.89c-.66 0-1.2-.54-1.2-1.2s.54-1.2 1.2-1.2h23.58c.66 0 1.2.54 1.2 1.2s-.53 1.2-1.2 1.2z" fill="#96d200"/><path class="st5" d="M53.11 55.21H34.75c-.66 0-1.2-.54-1.2-1.2s.54-1.2 1.2-1.2h18.36c.66 0 1.2.54 1.2 1.2s-.54 1.2-1.2 1.2zm-40.79 0h-.43c-.66 0-1.2-.54-1.2-1.2s.54-1.2 1.2-1.2h.43c.66 0 1.2.54 1.2 1.2s-.54 1.2-1.2 1.2z"/></svg>