<svg version="1.1" id="Capa_1" xmlns="http://www.w3.org/2000/svg" xmlns:xlink="http://www.w3.org/1999/xlink" x="0" y="0" viewBox="0 0 65 65" xml:space="preserve"><style>.st0{fill:none}.st4{fill:#4da12e}</style><g id="Grupo_13213_2_" transform="translate(-.246 -.246)"><path id="Rectángulo_3799-2_2_" class="st0" d="M.25.25h65v65h-65z"/><path d="M24.83 17l.18-1.21m0 0c.01-.06.03-.12.05-.17l1.93-4.25c.06-.13.07-.29.04-.43l-1.2-4.78a.692.692 0 01.05-.45c.15-.31.47-.92.89-1.48.28-.37.87-.31 1.09.1l1.44 2.72c.04.07.06.15.07.23l.36 3.13c.02.21.14.39.32.49l1.5.86c.09.05.17.12.22.21l1.15 1.78c.09.14.24.24.4.28l3.34.77c.34.08.67-.12.77-.45l.23-.77a.67.67 0 01.67-.47l3.58.22c.27.02.5.2.58.45l.45 1.41c.02.06.05.12.08.17l2.05 2.98c.1.15.14.34.1.52l-.38 1.65c-.02.09-.02.18-.01.27l.4 2.08c.03.17.13.31.26.41l2.62 1.85c.12.09.27.13.41.12l1.42-.08c.37-.02.69.28.69.65v.79c0 .36.29.65.65.65.36 0 .65.29.65.65v3.82c0 .08-.02.17-.05.25l-.98 2.39c-.05.12-.13.22-.23.29l-1.22.85a.66.66 0 01-.99-.31l-.4-1.19a.607.607 0 00-.28-.33l-1.66-.98-.22.43c-.12.24-.08.52.09.72l1.06 1.2c.1.12.16.27.16.43v2.41c0 .15-.05.3-.15.41l-4.92 6.01c-.14.17-.35.26-.57.24l-3.19-.34a.675.675 0 00-.6.27l-2.66 3.72c-.22.31-.67.36-.96.11l-.63-.55a.656.656 0 01-.14-.82l1.52-2.63c.16-.28.1-.63-.15-.83l-1.57-1.28a.655.655 0 00-.99.19l-1.63 2.99c-.04.07-.06.15-.07.23l-.33 2.55c-.06.48-.61.73-1.01.46l-.29-.19a.655.655 0 00-.59-.07l-2.12.8c-.07.03-.15.04-.23.04h-2.16a.65.65 0 01-.53-.27l-1.61-2.24a.698.698 0 00-.32-.24l-.21-.07c-.37-.12-.76.1-.85.47l-.05.23c-.03.13-.1.25-.2.34l-.22.2c-.25.22-.62.23-.87.01l-.47-.41a.647.647 0 01-.07-.91l.19-.23c.08-.1.14-.23.15-.36l.12-1.34a.647.647 0 00-.06-.34l-.55-1.11a.644.644 0 00-.88-.29l-.67.34c-.3.15-.67.05-.85-.24l-2.08-3.38a.642.642 0 01.12-.82l2.09-1.92a.65.65 0 00.2-.59l-.47-2.73c-.05-.27.08-.53.31-.67l4.96-2.95a.47.47 0 00.15-.13l.44-.49" stroke="#95a6b1" stroke-width="1.6" stroke-linecap="round" stroke-linejoin="round" fill="none"/></g><path id="Trazado_11848_7_" d="M28.77 23.25c0 2.31-1.87 4.18-4.18 4.18s-4.18-1.87-4.18-4.18 1.87-4.18 4.18-4.18h0c2.3-.01 4.17 1.85 4.18 4.15v.03z" fill="none" stroke="#19a500" stroke-width="1.6" stroke-linecap="round" stroke-linejoin="round" stroke-miterlimit="10"/><defs><path id="SVGID_1_" d="M0 48.26h65V65H0z"/></defs><clipPath id="SVGID_2_"><use xlink:href="#SVGID_1_" overflow="visible"/></clipPath><g clip-path="url(#SVGID_2_)"><path class="st0" d="M0 48.26h65V65H0z"/><path class="st4" d="M45.38 61.32h-7.17c-.66 0-1.2-.54-1.2-1.2s.54-1.2 1.2-1.2h7.17c.66 0 1.2.54 1.2 1.2s-.54 1.2-1.2 1.2zm7.73 0h-.58c-.66 0-1.2-.54-1.2-1.2s.54-1.2 1.2-1.2h.58c.66 0 1.2.54 1.2 1.2s-.54 1.2-1.2 1.2zm-34.12 0h-7.1c-.66 0-1.2-.54-1.2-1.2s.54-1.2 1.2-1.2h7.1c.66 0 1.2.54 1.2 1.2s-.54 1.2-1.2 1.2z"/><path d="M31.05 61.32H18.53c-.66 0-1.2-.54-1.2-1.2s.54-1.2 1.2-1.2h12.52c.66 0 1.2.54 1.2 1.2s-.54 1.2-1.2 1.2zm4.42-6.11H11.89c-.66 0-1.2-.54-1.2-1.2s.54-1.2 1.2-1.2h23.58c.66 0 1.2.54 1.2 1.2s-.54 1.2-1.2 1.2z" fill="#96d200"/><path class="st4" d="M53.11 55.21H34.75c-.66 0-1.2-.54-1.2-1.2s.54-1.2 1.2-1.2h18.36c.66 0 1.2.54 1.2 1.2s-.54 1.2-1.2 1.2zm-40.79 0h-.43c-.66 0-1.2-.54-1.2-1.2s.54-1.2 1.2-1.2h.43c.66 0 1.2.54 1.2 1.2s-.54 1.2-1.2 1.2z"/></g></svg>