<svg id="Capa_1" data-name="Capa 1" xmlns="http://www.w3.org/2000/svg" viewBox="0 0 65 65"><defs><style>.cls-1{fill:none}.cls-3{fill:#19a301}</style></defs><path class="cls-1" d="M0 0h65v65H0z" id="Rect치ngulo_3799" data-name="Rect치ngulo 3799"/><g id="Grupo_13217-2" data-name="Grupo 13217-2"><path d="M9.8 47.9a.7.7 0 01-.6-.3l-6.3-8.1a.8.8 0 01-.1-.9l2.6-5.3-.6-2.1a.8.8 0 01.1-.7l2.5-3.9a.9.9 0 01.6-.4l.6.2 2 1.6 6.7-6.1-3.9-2.3a.9.9 0 01-.3-1.1l2.1-4.1-.4-3a.6.6 0 01.2-.7 1.1 1.1 0 01.8-.2l2.6.7.4.2 2.4 2.6 8-2.8h.2l7.7-.8h.2l1.8.3a.8.8 0 01.6.9.8.8 0 01-.9.7l-1.7-.3-7.5.8-8.4 2.9a.8.8 0 01-.8-.2l-2.6-2.8-1.3-.3.3 2a.9.9 0 01-.1.5l-1.8 3.7 4.2 2.5a.9.9 0 01.4.6.7.7 0 01-.3.6l-8 7.4a.8.8 0 01-1.1 0l-1.8-1.5-1.9 2.9.6 2a.6.6 0 010 .6l-2.6 5.2 5.7 7.3 6.8-2.2h.4l4.8.7 3-3.3.3-.2 13.8-5 10.1-12 .5-.3 4.6-.4 6-7.2-4.8-4.2-1.1.2a.7.7 0 01-.9-.6.7.7 0 01.6-.9l1.5-.3a.8.8 0 01.7.2l5.6 4.9a.7.7 0 01.1 1.1l-6.6 8.1a.9.9 0 01-.6.3l-4.6.4-10 11.8-.3.2-13.9 5-3.1 3.4a.8.8 0 01-.7.3l-5.1-.7-7.1 2.4z" fill="#95a6b1" id="Trazado_11533" data-name="Trazado 11533"/><path class="cls-3" d="M47.3 17.6a5 5 0 01-5-5 5 5 0 015-5.1 5.1 5.1 0 015.1 5.1 5 5 0 01-5.1 5zm0-8.5a3.5 3.5 0 00-3.4 3.5 3.4 3.4 0 003.4 3.4 3.5 3.5 0 003.5-3.4 3.5 3.5 0 00-3.5-3.5z" id="Elipse_2039" data-name="Elipse 2039"/></g><path class="cls-1" d="M0 0h65v65H0z" id="Rect치ngulo_3799-2" data-name="Rect치ngulo 3799-2"/><path class="cls-1" d="M0 48.3h65v16.74H0z"/><path class="cls-3" d="M45.4 61.3h-7.2a1.2 1.2 0 01-1.2-1.2 1.3 1.3 0 011.2-1.2h7.2a1.3 1.3 0 011.2 1.2 1.2 1.2 0 01-1.2 1.2zm7.7 0h-.6a1.2 1.2 0 01-1.2-1.2 1.3 1.3 0 011.2-1.2h.6a1.2 1.2 0 011.2 1.2 1.2 1.2 0 01-1.2 1.2zm-34.1 0h-7.1a1.2 1.2 0 01-1.2-1.2 1.2 1.2 0 011.2-1.2H19a1.2 1.2 0 011.2 1.2 1.2 1.2 0 01-1.2 1.2z"/><path d="M31 61.3H18.5a1.2 1.2 0 01-1.2-1.2 1.3 1.3 0 011.2-1.2H31a1.2 1.2 0 011.2 1.2 1.2 1.2 0 01-1.2 1.2zm4.5-6.1H11.9a1.2 1.2 0 110-2.4h23.6a1.2 1.2 0 010 2.4z" fill="#82d400"/><path class="cls-3" d="M53.1 55.2H34.7a1.2 1.2 0 010-2.4h18.4a1.2 1.2 0 010 2.4zm-40.8 0h-.4a1.2 1.2 0 110-2.4h.4a1.2 1.2 0 010 2.4z"/></svg>