<svg id="Capa_1" data-name="Capa 1" xmlns="http://www.w3.org/2000/svg" viewBox="0 0 65 65"><defs><style>.cls-1{fill:#95a6b1}.cls-3{fill:none}.cls-4{fill:#4da12e}</style></defs><path class="cls-1" d="M47.5 22.6a8.8 8.8 0 110-17.6 9 9 0 016.2 2.5 8.8 8.8 0 012.6 6.2 8.8 8.8 0 01-8.8 8.9zm0-16a7.2 7.2 0 107.2 7.2 7.5 7.5 0 00-2.1-5.1 7.4 7.4 0 00-5.1-2.1z" id="Trazado_5703" data-name="Trazado 5703"/><path class="cls-1" d="M48.9 47.7H13.6a.9.9 0 01-.8-.8V34.3a.8.8 0 01.8-.8h35.3a.7.7 0 01.8.8v12.6a.8.8 0 01-.8.8zm-34.5-1.6h33.7v-11H14.4z"/><path class="cls-1" d="M13.6 48.8H9.5a.9.9 0 01-.8-.8V33.2a.9.9 0 01.8-.8h4.1a.9.9 0 01.8.8V48a.9.9 0 01-.8.8zm-3.3-1.6h2.5V34h-2.5zm42.5 1.6H49a.8.8 0 01-.8-.8V33.2a.8.8 0 01.8-.8h3.8a.9.9 0 01.8.8V48a.9.9 0 01-.8.8zm-3-1.6H52V34h-2.2zm-16.3.5a.9.9 0 01-.8-.8v-5a.8.8 0 011.6 0v5a.9.9 0 01-.8.8zm5.8-12.6H24.1a.9.9 0 01-.8-.8v-2a.9.9 0 01.8-.8.8.8 0 01.8.8v1.2h13.6v-6.6h-10a.7.7 0 01-.8-.8.8.8 0 01.8-.8h10.8a.9.9 0 01.8.8v8.2a.9.9 0 01-.8.8z"/><path class="cls-1" d="M31.7 26.9a.8.8 0 01-.8-.8v-4.9a.8.8 0 011.6 0v4.9a.8.8 0 01-.8.8z"/><path class="cls-1" d="M35.2 22h-6.7a.8.8 0 01-.8-.8.7.7 0 01.8-.8h6.7a.8.8 0 01.8.8.9.9 0 01-.8.8zm4.1 9H28.4a.8.8 0 010-1.6h10.9a.8.8 0 110 1.6z"/><path d="M21.3 31.1a5.4 5.4 0 010-10.7h.1a5.3 5.3 0 015.2 5.3 5.3 5.3 0 01-5.3 5.4zm0-9.1a3.8 3.8 0 000 7.5 3.7 3.7 0 003.7-3.7 3.7 3.7 0 00-3.7-3.8z" fill="#00a800" id="Trazado_5703-2" data-name="Trazado 5703"/><path class="cls-1" d="M53.2 14.6H41.8a.8.8 0 110-1.6h11.4a.8.8 0 010 1.6z"/><path class="cls-1" d="M43.5 16.5l-.6-.2-1.9-1.9a.9.9 0 010-1.2l1.9-1.8a.7.7 0 011.1 0 .8.8 0 010 1.1l-1.3 1.3 1.3 1.3a.9.9 0 010 1.2zm7.8 0l-.5-.2a.9.9 0 010-1.2l1.3-1.3-1.3-1.3a.8.8 0 010-1.1.7.7 0 011.1 0l1.9 1.8a.9.9 0 010 1.2l-1.9 1.9a.8.8 0 01-.6.2zm-7.8 15h-.3a.9.9 0 01-.5-1l2.8-8.9c.2-.4.6-.7 1-.5a.7.7 0 01.5 1L44.2 31a.8.8 0 01-.7.5z"/><g id="Grupo_14998" data-name="Grupo 14998"><path class="cls-3" d="M0 0h65v65H0z" id="Rectángulo_3799-2" data-name="Rectángulo 3799-2"/></g><path class="cls-3" d="M0 48.3h65v16.74H0z"/><path class="cls-4" d="M45.4 61.3h-7.2a1.2 1.2 0 01-1.2-1.2 1.3 1.3 0 011.2-1.2h7.2a1.3 1.3 0 011.2 1.2 1.2 1.2 0 01-1.2 1.2zm7.7 0h-.6a1.2 1.2 0 01-1.2-1.2 1.3 1.3 0 011.2-1.2h.6a1.2 1.2 0 011.2 1.2 1.2 1.2 0 01-1.2 1.2zm-34.1 0h-7.1a1.2 1.2 0 01-1.2-1.2 1.2 1.2 0 011.2-1.2H19a1.2 1.2 0 011.2 1.2 1.2 1.2 0 01-1.2 1.2z"/><path d="M31 61.3H18.5a1.2 1.2 0 01-1.2-1.2 1.3 1.3 0 011.2-1.2H31a1.2 1.2 0 011.2 1.2 1.2 1.2 0 01-1.2 1.2zm4.5-6.1H11.9a1.2 1.2 0 110-2.4h23.6a1.2 1.2 0 010 2.4z" fill="#96d200"/><path class="cls-4" d="M53.1 55.2H34.7a1.2 1.2 0 010-2.4h18.4a1.2 1.2 0 010 2.4zm-40.8 0h-.4a1.2 1.2 0 110-2.4h.4a1.2 1.2 0 010 2.4z"/></svg>