<svg xmlns="http://www.w3.org/2000/svg" viewBox="0 0 65 65"><style>.st2,.st4{fill:none}.st4{stroke:#95a6b1;stroke-width:1.6;stroke-linecap:round;stroke-linejoin:round}.st6{fill:#4da12e}</style><g id="Capa_1"><g id="Grupo_14998_2_" transform="translate(-83.703)"><path id="Rectángulo_3799-2_3_" class="st2" d="M83.7 0h65v65h-65z"/><g id="Grupo_15005_1_"><g id="Grupo_15004_3_"><path id="Línea_2848_3_" class="st4" d="M90.83 49.25h51.4"/><path id="Trazado_12467_3_" class="st4" d="M94.54 14.58v-2.15c0-1.72 1.39-3.11 3.11-3.11h3.62c1.72 0 3.12 1.39 3.12 3.11v36.59"/><path id="Línea_2849_3_" class="st4" d="M94.54 49.24V30.23"/><path id="Trazado_12468_3_" class="st4" d="M123.39 49.17V34.68c0-1.66 1.34-3 3-3h9.12c1.66 0 3 1.34 3 3v14.56"/><path id="Trazado_12469_3_" class="st4" d="M119.65 49.17V28.19c0-1.66 1.34-3 3-3h5.22c1.66 0 3 1.34 3 3v3.34"/><path id="Trazado_12470_3_" class="st4" d="M104.38 15.42h1.37c1.44 0 2.6 1.16 2.6 2.6v31"/><path id="Trazado_12471_3_" class="st4" d="M104.61 31.07h7.02a2.29 2.29 0 012.29 2.29v7.71a2.29 2.29 0 002.29 2.29h6.92"/><path id="Trazado_12472_3_" class="st4" d="M133.48 40.65l-2.1-4.34-1.94 4.34c-.21.44-.35.92-.41 1.41 0 1.34 1.09 2.42 2.43 2.42 1.33 0 2.42-1.08 2.42-2.42-.07-.49-.2-.96-.4-1.41z"/><path id="Línea_2850_3_" class="st4" d="M125.61 18.91v5.99"/><path id="Rectángulo_5120_3_" class="st4" d="M118.1 2.45h20.18v11.27a5.15 5.15 0 01-5.15 5.15h-20.18V7.61a5.145 5.145 0 015.15-5.16z"/><path id="Trazado_11848_3_" d="M98.69 22.29c0 2.31-1.88 4.18-4.19 4.18s-4.18-1.88-4.18-4.19c0-2.31 1.87-4.18 4.18-4.18h0c2.3-.01 4.17 1.85 4.18 4.15 0 0 0 0 0 0 .01.01.01.03.01.04z" fill="none" stroke="#00a800" stroke-width="1.6" stroke-linecap="round" stroke-linejoin="round" stroke-miterlimit="10"/><path id="Trazado_18071_2_" class="st4" d="M130.33 5.52l2.23 10.59 2.11-10.59"/><g id="Grupo_15003"><g id="Grupo_15002"><path id="Trazado_12473_9_" class="st4" d="M125.8 5.49h-.16c-1.17 0-2.11.95-2.12 2.12v6.33c0 1.17.95 2.11 2.12 2.12h.16c1.17 0 2.11-.95 2.12-2.12V7.61a2.128 2.128 0 00-2.12-2.12z"/><path id="Trazado_12473_10_" class="st4" d="M121.04 7.51c0-1.17-.95-2.11-2.12-2.12h-.16c-1.17 0-2.11 1.05-2.12 2.21v6.33c0 1.17.95 2.11 2.12 2.12h.16c1.17 0 2.11-.95 2.12-2.12"/></g></g></g></g></g><path class="st2" d="M0 48.26h65V65H0z"/><path class="st6" d="M45.38 61.32h-7.17c-.66 0-1.2-.54-1.2-1.2s.54-1.2 1.2-1.2h7.17c.66 0 1.2.54 1.2 1.2s-.54 1.2-1.2 1.2zm7.73 0h-.58c-.66 0-1.2-.54-1.2-1.2s.54-1.2 1.2-1.2h.58c.66 0 1.2.54 1.2 1.2s-.54 1.2-1.2 1.2zm-34.12 0h-7.1c-.66 0-1.2-.54-1.2-1.2s.54-1.2 1.2-1.2h7.1c.66 0 1.2.54 1.2 1.2s-.53 1.2-1.2 1.2z"/><path d="M31.05 61.32H18.53c-.66 0-1.2-.54-1.2-1.2s.54-1.2 1.2-1.2h12.52c.66 0 1.2.54 1.2 1.2s-.54 1.2-1.2 1.2zm4.42-6.11H11.89c-.66 0-1.2-.54-1.2-1.2s.54-1.2 1.2-1.2h23.58c.66 0 1.2.54 1.2 1.2s-.53 1.2-1.2 1.2z" fill="#96d200"/><path class="st6" d="M53.11 55.21H34.75c-.66 0-1.2-.54-1.2-1.2s.54-1.2 1.2-1.2h18.36c.66 0 1.2.54 1.2 1.2s-.54 1.2-1.2 1.2zm-40.79 0h-.43c-.66 0-1.2-.54-1.2-1.2s.54-1.2 1.2-1.2h.43c.66 0 1.2.54 1.2 1.2s-.54 1.2-1.2 1.2z"/></g></svg>