<svg xmlns="http://www.w3.org/2000/svg" viewBox="0 0 65 65"><style>.st2{fill:none}.st6{stroke-miterlimit:10}.st6,.st8{fill:none;stroke:#95a6b1;stroke-width:1.6;stroke-linecap:round;stroke-linejoin:round}.st9{fill:#4c9f2e}</style><g id="Capa_1"><path class="st2" d="M0 48.26h65V65H0z"/><path class="st9" d="M45.38 61.32h-7.17c-.66 0-1.2-.54-1.2-1.2s.54-1.2 1.2-1.2h7.17c.66 0 1.2.54 1.2 1.2s-.54 1.2-1.2 1.2zm7.73 0h-.58c-.66 0-1.2-.54-1.2-1.2s.54-1.2 1.2-1.2h.58c.66 0 1.2.54 1.2 1.2s-.54 1.2-1.2 1.2zm-34.12 0h-7.1c-.66 0-1.2-.54-1.2-1.2s.54-1.2 1.2-1.2h7.1c.66 0 1.2.54 1.2 1.2s-.54 1.2-1.2 1.2z"/><path d="M31.05 61.32H18.53c-.66 0-1.2-.54-1.2-1.2s.54-1.2 1.2-1.2h12.52c.66 0 1.2.54 1.2 1.2s-.54 1.2-1.2 1.2zm4.42-6.11H11.89c-.66 0-1.2-.54-1.2-1.2s.54-1.2 1.2-1.2h23.58c.66 0 1.2.54 1.2 1.2s-.53 1.2-1.2 1.2z" fill="#94d040"/><path class="st9" d="M53.11 55.21H34.75c-.66 0-1.2-.54-1.2-1.2s.54-1.2 1.2-1.2h18.36c.66 0 1.2.54 1.2 1.2s-.54 1.2-1.2 1.2zm-40.79 0h-.43c-.66 0-1.2-.54-1.2-1.2s.54-1.2 1.2-1.2h.43c.66 0 1.2.54 1.2 1.2s-.54 1.2-1.2 1.2z"/><path d="M15.94 19.98c.34.74.36 1.55.12 2.27-.26.79-.84 1.48-1.66 1.85-1.56.71-3.41.03-4.12-1.54a3.106 3.106 0 011.54-4.12c1.56-.71 3.41-.02 4.12 1.54z" fill="none" stroke="#00a800" stroke-width="1.6" stroke-linecap="round" stroke-linejoin="round" stroke-miterlimit="10"/><path class="st8" d="M60.88 47.6c-3.1 0-3.1-3.1-6.19-3.1-3.1 0-3.1 3.1-6.19 3.1s-3.1-3.1-6.19-3.1c-3.1 0-3.1 3.1-6.19 3.1-3.1 0-3.1-3.1-6.19-3.1-3.1 0-3.1 3.1-6.19 3.1-3.1 0-3.1-3.1-6.2-3.1s-3.1 3.1-6.2 3.1-3.1-3.1-6.2-3.1"/><path class="st6" d="M19.66 41.68H13.5"/><path class="st8" d="M13.36 26.65v3.25h19.57m7.94 0h3.28v-9.8c0-.67-.55-1.22-1.22-1.22H18.39"/><path class="st8" d="M25.52 14.14h-6.11c-.64 0-1.16.52-1.16 1.16v3.58h7.42"/><path class="st6" d="M21.02 22.99H43.7"/><path class="st8" d="M32.93 29.91H10.89c-.77 0-1.39.62-1.39 1.39v15.84m46.79-2.54V31.11c0-.66-.54-1.2-1.2-1.2l-14.22-.01m-17.23 3.75l-14.14.01"/><path fill="#fff" stroke="#95a6b1" stroke-width="1.6" stroke-linecap="round" stroke-linejoin="round" stroke-miterlimit="10" d="M19.66 33.64v11.33"/><path class="st6" d="M19.66 37.31H13.5m-.02-3.67v12.93"/><path class="st8" d="M23.64 29.9v16.52"/><path class="st6" d="M32.93 29.93l-.02 6.06h7.95v-6.07M22.03 14.14v4.74"/><path class="st8" d="M46.3 29.92v6.48m4.56-6.48v6.48m-22.58-6.48v6.48"/><path class="st2" d="M0 0h65v65H0z"/><path class="st6" d="M56.86 2.45h-25.7a5.15 5.15 0 00-5.15 5.15v11.28h25.7a5.15 5.15 0 005.15-5.15V2.45z"/><path class="st8" d="M36.69 5.49v10.47h3.57M32.49 5.94v10.02M30.06 5.49h4.63"/><path class="st6" d="M41.69 12.62v1.25c0 1.16.95 2.09 2.12 2.09h.16c1.16 0 2.12-.92 2.12-2.09v-1.25m-.01 0V5.38m0 8.32v-1.08m-4.4 0V5.38m0 8.32v-1.08m6.55-5.18c0-1.13.93-2.06 2.06-2.06h.25c1.15 0 2.08.94 2.08 2.08 0 1.3-.55 2.29-1.18 3.26l-3.22 5.23h4.39"/></g></svg>