<svg xmlns="http://www.w3.org/2000/svg" width="27.177" height="27.5"><g data-name="Grupo 18092" fill="none" stroke-linecap="round" stroke-linejoin="round" stroke-width="1.252"><path data-name="Trazado 11857" d="M9.285 4.955A4.329 4.329 0 114.956.626a4.313 4.313 0 014.329 4.329z" stroke="#19a500"/><path data-name="Trazado 11858" d="M17.949 26.841H9.892a3.443 3.443 0 01-3.443-3.443h0a3.444 3.444 0 013.446-3.444h2a3.443 3.443 0 003.446-3.456l-.02-5.36a3.443 3.443 0 00-3.443-3.43h-.265" stroke="#95a6b1"/><g data-name="Grupo 13548" stroke="#95a6b1"><path data-name="Trazado 11859" d="M23.513 26.823c.377-.408 3.037-3.365 3.038-5.743a3.151 3.151 0 00-2.874-3.389c-.049 0-.1-.015-.146-.017h-.086c-.051 0-.1.013-.147.017a3.151 3.151 0 00-2.873 3.386c0 2.378 2.661 5.335 3.038 5.743v.051l.023-.024.022.024z"/><path data-name="Trazado 11860" d="M23.954 20.733a.479.479 0 01-.479.479.479.479 0 11.479-.479z"/></g></g></svg>