<svg id="Capa_1" data-name="Capa 1" xmlns="http://www.w3.org/2000/svg" viewBox="0 0 47 47"><defs><style>.cls-3{fill:#95a6b1}</style></defs><path d="M10.4 14.3a4.2 4.2 0 01-4.1-4.2A4.1 4.1 0 0110.4 6a4.1 4.1 0 014.2 4.1 4.2 4.2 0 01-4.2 4.2zm0-6.8a2.7 2.7 0 000 5.3 2.7 2.7 0 002.7-2.7 2.7 2.7 0 00-2.7-2.6z" fill="#19a500" id="Trazado_11848" data-name="Trazado 11848"/><path fill="none" d="M0 0h47v47H0z"/><path class="cls-3" d="M37.1 41.8h-.4a.7.7 0 01-.4-.5C34.9 39.7 30 34 30 29.1a7.2 7.2 0 016.6-7.7h.9a7.2 7.2 0 016.6 7.7c0 4.9-5 10.7-6.3 12.2a.7.7 0 01-.5.4zm-.1-19h-.3a5.8 5.8 0 00-5.2 6.2c0 4.1 4 9.1 5.5 10.8 1.5-1.7 5.6-6.7 5.6-10.7a5.9 5.9 0 00-5.3-6.3H37z" id="Trazado_11859" data-name="Trazado 11859"/><path class="cls-3" d="M37 30.8a2.5 2.5 0 112.5-2.4 2.5 2.5 0 01-2.5 2.4zm0-3.4a1 1 0 00-1 1 1 1 0 002 0 1 1 0 00-1-1z" id="Trazado_11860" data-name="Trazado 11860"/><path class="cls-3" d="M19.5 10.9h-2.3a.7.7 0 01-.8-.7.8.8 0 01.8-.8h2.3a.9.9 0 01.8.8.8.8 0 01-.8.7zm4.3 30.7h-4.5a.7.7 0 01-.7-.8.7.7 0 01.7-.7h4.5a.7.7 0 01.7.7.7.7 0 01-.7.8zm-9 0a5.4 5.4 0 01-4.3-2.6.8.8 0 01.2-1 .9.9 0 011.1.2 4 4 0 003.1 1.9.8.8 0 11-.1 1.5zm-4.4-6.5a.8.8 0 01-.7-.8v-4.5a.7.7 0 01.7-.7.8.8 0 01.8.7v4.5a.9.9 0 01-.8.8zm1-8.7l-.4-.2a.8.8 0 01-.2-1.1 5.5 5.5 0 014.3-2h.2a.7.7 0 01.8.7.8.8 0 01-.8.8h-.2a3.9 3.9 0 00-3.1 1.5.6.6 0 01-.6.3zm12.2-1.8h-3.8a.8.8 0 01-.7-.8.7.7 0 01.7-.7h4.4a.8.8 0 01.8.6.7.7 0 01-.6.9zm4.1-2.6h-.3a.7.7 0 01-.3-1 3.9 3.9 0 00.4-1.8v-2.3a.7.7 0 01.7-.8.7.7 0 01.8.8v2.2a5.4 5.4 0 01-.6 2.5.8.8 0 01-.7.4zm-.1-8.7a.8.8 0 01-.6-.4 4.4 4.4 0 00-3.1-2 .8.8 0 01-.7-.8 1 1 0 01.9-.7 5.7 5.7 0 014.2 2.7.9.9 0 01-.3 1.1zm3.1 28.3h-2.4a.8.8 0 01-.8-.8.8.8 0 01.8-.7h2.4a.7.7 0 01.7.7.7.7 0 01-.7.8z"/></svg>