<svg data-name="Grupo 19562" xmlns="http://www.w3.org/2000/svg" width="65" height="65"><g data-name="Grupo 14998"><path data-name="Rectángulo 3799-2" fill="none" d="M0 0h65v65H0z"/></g><g data-name="Grupo 18841"><g data-name="Grupo 18840" fill="none"><path data-name="Rectángulo 5590" d="M0 48.259h65V65H0z"/><g data-name="Grupo 18839" stroke-linecap="round" stroke-linejoin="round" stroke-width="2.4"><path data-name="Línea 4029" stroke="#4da12e" d="M38.214 60.119h7.167"/><path data-name="Línea 4030" stroke="#4da12e" d="M52.528 60.119h.581"/><path data-name="Línea 4031" stroke="#4da12e" d="M11.891 60.119h7.101"/><path data-name="Línea 4032" stroke="#96d200" d="M18.529 60.119h12.517"/><path data-name="Línea 4033" stroke="#96d200" d="M11.891 54.012h23.582"/><path data-name="Línea 4034" stroke="#4da12e" d="M34.746 54.012h18.363"/><path data-name="Línea 4035" stroke="#4da12e" d="M11.891 54.012h.429"/></g></g></g><g data-name="Grupo 18848"><g data-name="Grupo 18847"><path data-name="Línea 4036" fill="none" stroke="#95a6b1" stroke-linecap="round" stroke-linejoin="round" stroke-width="1.6" d="M7.13 49.247h51.399"/><path data-name="Trazado 19145" d="M10.831 14.58v-2.153a3.115 3.115 0 013.116-3.115h3.618a3.115 3.115 0 013.115 3.115v36.586" fill="none" stroke="#95a6b1" stroke-linecap="round" stroke-linejoin="round" stroke-width="1.6"/><path data-name="Línea 4037" fill="none" stroke="#95a6b1" stroke-linecap="round" stroke-linejoin="round" stroke-width="1.6" d="M10.831 49.242V30.231"/><path data-name="Trazado 19146" d="M39.691 49.166V34.682a3 3 0 013-3h9.117a3 3 0 013 3v14.56" fill="none" stroke="#95a6b1" stroke-linecap="round" stroke-linejoin="round" stroke-width="1.6"/><path data-name="Trazado 19147" d="M35.95 49.166V28.192a3 3 0 013-3h5.223a3 3 0 013 3v3.337" fill="none" stroke="#95a6b1" stroke-linecap="round" stroke-linejoin="round" stroke-width="1.6"/><path data-name="Trazado 19148" d="M20.68 15.42h1.371a2.6 2.6 0 012.6 2.6v31" fill="none" stroke="#95a6b1" stroke-linecap="round" stroke-linejoin="round" stroke-width="1.6"/><path data-name="Trazado 19149" d="M20.908 31.071h7.023a2.293 2.293 0 012.293 2.293v7.706a2.292 2.292 0 002.293 2.293h6.922" fill="none" stroke="#95a6b1" stroke-linecap="round" stroke-linejoin="round" stroke-width="1.6"/><path data-name="Trazado 19150" d="M49.775 40.65l-2.1-4.343-1.946 4.343a4.58 4.58 0 00-.409 1.407 2.422 2.422 0 004.844 0 4.754 4.754 0 00-.389-1.407z" fill="none" stroke="#95a6b1" stroke-linecap="round" stroke-linejoin="round" stroke-width="1.6"/><path data-name="Línea 4038" fill="none" stroke="#95a6b1" stroke-linecap="round" stroke-linejoin="round" stroke-width="1.6" d="M41.907 18.907v5.998"/><path data-name="Rectángulo 5591" d="M34.391 2.454h20.184v11.275a5.153 5.153 0 01-5.153 5.153H29.238h0V7.607a5.153 5.153 0 015.153-5.153z" fill="none" stroke="#95a6b1" stroke-linecap="round" stroke-linejoin="round" stroke-width="1.6"/><path data-name="Trazado 11848" d="M14.989 22.288a4.183 4.183 0 11-4.183-4.188h0a4.168 4.168 0 014.183 4.151z" fill="none" stroke="#19a500" stroke-linecap="round" stroke-linejoin="round" stroke-width="1.6"/><g data-name="Grupo 18846"><g data-name="Grupo 18845" fill="none" stroke="#95a6b1" stroke-linecap="round" stroke-linejoin="round" stroke-width="1.6"><path data-name="Trazado 12473" d="M37.156 7.513a2.123 2.123 0 00-2.118-2.118h-.16a2.209 2.209 0 00-2.117 2.214v6.331a2.124 2.124 0 002.117 2.117h.16a2.124 2.124 0 002.118-2.117v-3.193h-1.682"/><g data-name="Grupo 18842"><path data-name="Trazado 19151" d="M50.97 8.831V7.582a2.1 2.1 0 00-2.118-2.088h-.16a2.1 2.1 0 00-2.117 2.088v1.249"/><path data-name="Línea 4039" d="M46.574 8.831v7.238"/><path data-name="Línea 4040" d="M46.574 7.751v1.08"/><path data-name="Línea 4041" d="M50.977 8.831v7.238"/><path data-name="Línea 4042" d="M50.977 7.751v1.08"/><path data-name="Línea 4043" d="M46.565 10.738h4.412"/></g><g data-name="Grupo 18844"><path data-name="Línea 4044" d="M39.7 16.066V8.528"/><g data-name="Grupo 18843"><path data-name="Rectángulo 5592" d="M41.819 5.491h.16a2.118 2.118 0 012.122 2.118v1.059a2.278 2.278 0 01-2.282 2.278h-2.118 0V7.609a2.118 2.118 0 012.118-2.118z"/><path data-name="Línea 4045" d="M44.084 16.068l-4.383-5.122"/></g></g></g></g></g></g></svg>