<svg id="Capa_1" data-name="Capa 1" xmlns="http://www.w3.org/2000/svg" viewBox="0 0 64 64"><defs><style>.cls-2{fill:#95a6b1}</style></defs><path fill="none" d="M0 0h64v64H0z"/><path class="cls-2" d="M18.7 57.4H4.5a.8.8 0 01-.8-.8v-4.4a1.6 1.6 0 01-1.1-.5 1.5 1.5 0 01-.4-1.1v-.4a1.6 1.6 0 011.5-1.7v-4.1a1.6 1.6 0 01-1.5-1.6v-.4a1.6 1.6 0 011.5-1.7v-3.9a.7.7 0 01.8-.8.8.8 0 01.8.8v4.7a.8.8 0 01-.8.8h-.7v.5h.7a.9.9 0 01.8.8v5.7a.8.8 0 01-.8.8h-.7v.5h.7a.8.8 0 01.8.8v4.4h12.6v-4.4a.8.8 0 01.8-.8h.7v-.4h-.7a.8.8 0 01-.8-.8v-5.8a.9.9 0 01.8-.8h.7v-.4h-.7a.8.8 0 01-.8-.8v-4.8a.8.8 0 01.8-.8.7.7 0 01.8.8v3.9a1.6 1.6 0 011.5 1.7v.4a1.6 1.6 0 01-1.5 1.6v4.1a1.6 1.6 0 011.5 1.7v.4a1.6 1.6 0 01-1.5 1.6v4.4a.8.8 0 01-.8.8z" id="Trazado_11678" data-name="Trazado 11678"/><path class="cls-2" d="M16 43.1H7.2a.8.8 0 01-.8-.8.9.9 0 01.8-.8H16a.9.9 0 01.8.8.8.8 0 01-.8.8z" id="Línea_2316" data-name="Línea 2316"/><path class="cls-2" d="M16 50.9H7.2a.8.8 0 010-1.6H16a.8.8 0 010 1.6z" id="Línea_2317" data-name="Línea 2317"/><path class="cls-2" d="M19.6 60.8h-16a1.4 1.4 0 01-1.4-1.4v-2.2a1.4 1.4 0 011.4-1.4h16a1.4 1.4 0 011.4 1.4v2.2a1.4 1.4 0 01-1.4 1.4zM3.8 59.2h15.6v-1.8H3.8zm15.8-1.8z" id="Rectángulo_4586" data-name="Rectángulo 4586"/><path class="cls-2" d="M39.2 57.4H25a.9.9 0 01-.8-.8v-4.4a1.2 1.2 0 01-1-.5 1.6 1.6 0 01-.5-1.1v-.4a1.7 1.7 0 011.5-1.7v-4.1a1.7 1.7 0 01-1.5-1.6v-.4a1.7 1.7 0 011.5-1.7v-3.9a.8.8 0 111.6 0v4.7a.8.8 0 01-.8.8h-.7v.5h.7a.9.9 0 01.8.8v5.7a.8.8 0 01-.8.8h-.7v.5h.7a.8.8 0 01.8.8v4.4h12.6v-4.4a.8.8 0 01.8-.8h.7v-.4h-.7a.8.8 0 01-.8-.8v-5.8a.9.9 0 01.8-.8h.7v-.4h-.7a.8.8 0 01-.8-.8v-4.8a.8.8 0 01.8-.8.7.7 0 01.8.8v3.9a1.6 1.6 0 011.5 1.7v.4a1.6 1.6 0 01-1.5 1.6v4.1a1.6 1.6 0 011.5 1.7v.4a1.6 1.6 0 01-1.5 1.6v4.4a.8.8 0 01-.8.8z" id="Trazado_11678-2" data-name="Trazado 11678"/><path class="cls-2" d="M36.5 43.1h-8.7a.7.7 0 01-.8-.8.8.8 0 01.8-.8h8.7a.9.9 0 01.8.8.8.8 0 01-.8.8z" id="Línea_2316-2" data-name="Línea 2316"/><path class="cls-2" d="M36.5 50.9h-8.7a.8.8 0 010-1.6h8.7a.8.8 0 110 1.6z" id="Línea_2317-2" data-name="Línea 2317"/><path class="cls-2" d="M40.1 60.8h-16a1.4 1.4 0 01-1.4-1.4v-2.2a1.4 1.4 0 011.4-1.4h16a1.5 1.5 0 011.5 1.4v2.2a1.5 1.5 0 01-1.5 1.4zm-15.8-1.6H40v-1.8H24.3zm15.8-1.8z" id="Rectángulo_4586-2" data-name="Rectángulo 4586"/><path class="cls-2" d="M40.1 37.6H24a1.5 1.5 0 01-1.4-1.4v-2.3a1.4 1.4 0 011.4-1.4h16.1a1.4 1.4 0 011.4 1.4v2.3a1.4 1.4 0 01-1.4 1.4zM24.2 36h15.7v-1.9H24.2zm15.9-1.9z" id="Rectángulo_4587" data-name="Rectángulo 4587"/><path class="cls-2" d="M19.6 37.6H3.5a1.4 1.4 0 01-1.4-1.4v-2.3a1.4 1.4 0 011.4-1.4h16.1a1.4 1.4 0 011.4 1.4v2.3a1.5 1.5 0 01-1.4 1.4zM3.7 36h15.7v-1.9H3.7zm15.9-1.9z" id="Rectángulo_4587-2" data-name="Rectángulo 4587"/><path d="M13.6 12a3.6 3.6 0 01-3.3-4.8 3.7 3.7 0 011.9-2 3.6 3.6 0 012.7-.1A3.2 3.2 0 0116.8 7a3.3 3.3 0 01.2 2.6 3.6 3.6 0 01-1.9 2.1 4 4 0 01-1.5.3zm0-5.5l-.8.2a2.2 2.2 0 00-1 1.1 2 2 0 003.7 1.3 2.6 2.6 0 00-.1-1.5 2.2 2.2 0 00-1.1-1z" fill="#19a500"/><path class="cls-2" d="M24.5 7.4h-4.3A1.2 1.2 0 0119 6.2V4.4a1.2 1.2 0 011.2-1.2h4.3a1.2 1.2 0 011.2 1.2v1.8a1.3 1.3 0 01-1.2 1.2zm-3.9-1.6h3.5v-1h-3.5zm3.9-1z" id="Rectángulo_4585" data-name="Rectángulo 4585"/><path class="cls-2" d="M28.8 30.6H14.5a.8.8 0 01-.8-.8v-4.4a1.3 1.3 0 01-1-.4 1.7 1.7 0 01-.5-1.2v-.4a1.7 1.7 0 011.5-1.6v-4.1a1.7 1.7 0 01-1.5-1.7v-.4a1.7 1.7 0 011.5-1.6v-.9a.9.9 0 01.8-.8.8.8 0 01.8.8v1.7a.8.8 0 01-.8.8h-.7v.4h.7a.7.7 0 01.8.8v5.7a.8.8 0 01-.8.8h-.7v.4h.7a.7.7 0 01.8.8V29H28v-4.3a.7.7 0 01.8-.8h.6v-.5h-.7a.8.8 0 01-.8-.8v-5.7a.7.7 0 01.8-.8h.6v-.5h-.7a.8.8 0 01-.8-.8V10a.8.8 0 01.8-.8.9.9 0 01.8.8v4a1.7 1.7 0 011.5 1.6v.4a1.7 1.7 0 01-1.5 1.7v4.1a1.7 1.7 0 011.5 1.6v.4a1.6 1.6 0 01-1.5 1.6v4.4a.8.8 0 01-.6.8z" id="Trazado_11678-3" data-name="Trazado 11678"/><path class="cls-2" d="M26 16.4h-8.7a.8.8 0 110-1.6H26a.8.8 0 110 1.6z" id="Línea_2316-3" data-name="Línea 2316"/><path class="cls-2" d="M26 24.2h-8.7a.8.8 0 01-.8-.8.7.7 0 01.8-.8H26a.8.8 0 01.8.8.9.9 0 01-.8.8z" id="Línea_2317-3" data-name="Línea 2317"/><path class="cls-2" d="M29.7 34.1H13.6a1.4 1.4 0 01-1.4-1.4v-2.3a1.4 1.4 0 011.4-1.4h16.1a1.5 1.5 0 011.4 1.4v2.3a1.4 1.4 0 01-1.4 1.4zm-15.9-1.6h15.7v-1.9H13.8zm15.9-1.9z" id="Rectángulo_4586-3" data-name="Rectángulo 4586"/><path class="cls-2" d="M29.6 10.8H18.3a.7.7 0 01-.8-.8.8.8 0 01.8-.8h11.1V7.4H18.2a.9.9 0 01-.8-.8.8.8 0 01.8-.8h11.4A1.4 1.4 0 0131 7.2v2.2a1.4 1.4 0 01-1.4 1.4zm0-3.4z" id="Rectángulo_4587-3" data-name="Rectángulo 4587"/><path class="cls-2" d="M43.9 7.4h-4.3a1.2 1.2 0 01-1.2-1.2V4.4a1.2 1.2 0 011.2-1.2h4.3a1.2 1.2 0 011.2 1.2v1.8a1.3 1.3 0 01-1.2 1.2zM40 5.8h3.5v-1H40zm3.9-1z" id="Rectángulo_4585-2" data-name="Rectángulo 4585"/><path class="cls-2" d="M49.3 30.6H35a.8.8 0 01-.8-.8v-4.4a1.3 1.3 0 01-1-.4 1.7 1.7 0 01-.5-1.2v-.4a1.7 1.7 0 011.5-1.6v-4.1a1.7 1.7 0 01-1.5-1.7v-.4a1.7 1.7 0 011.5-1.6v-4a.9.9 0 01.8-.8.8.8 0 01.8.8v4.8a.8.8 0 01-.8.8h-.6v.4h.6a.7.7 0 01.8.8v5.7a.8.8 0 01-.8.8h-.6v.4h.6a.7.7 0 01.8.8V29h12.7v-4.3a.7.7 0 01.8-.8h.6v-.5h-.7a.8.8 0 01-.8-.8v-5.7a.7.7 0 01.8-.8h.6v-.5h-.7a.8.8 0 01-.8-.8V10a.8.8 0 01.8-.8.9.9 0 01.8.8v4a1.4 1.4 0 011 .5 1.6 1.6 0 01.5 1.1v.4a1.7 1.7 0 01-1.5 1.7v4.1a1.7 1.7 0 011.5 1.6v.4a1.6 1.6 0 01-1.5 1.6v4.4a.8.8 0 01-.6.8z" id="Trazado_11678-4" data-name="Trazado 11678"/><path class="cls-2" d="M46.5 16.4h-8.7a.8.8 0 110-1.6h8.7a.8.8 0 010 1.6z" id="Línea_2316-4" data-name="Línea 2316"/><path class="cls-2" d="M46.5 24.2h-8.7a.8.8 0 01-.8-.8.7.7 0 01.8-.8h8.7a.7.7 0 01.8.8.8.8 0 01-.8.8z" id="Línea_2317-4" data-name="Línea 2317"/><path class="cls-2" d="M50.2 34.1H34.1a1.4 1.4 0 01-1.4-1.4v-2.3a1.5 1.5 0 011.4-1.4h16.1a1.5 1.5 0 011.4 1.4v2.3a1.4 1.4 0 01-1.4 1.4zm-15.9-1.6H50v-1.9H34.3zm15.9-1.9z" id="Rectángulo_4586-4" data-name="Rectángulo 4586"/><path class="cls-2" d="M50.1 10.8h-16a1.4 1.4 0 01-1.4-1.4V7.2a1.4 1.4 0 011.4-1.4h16a1.4 1.4 0 011.4 1.4v2.2a1.4 1.4 0 01-1.4 1.4zM34.3 9.2h15.6V7.4H34.3zm15.8-1.8z" id="Rectángulo_4587-4" data-name="Rectángulo 4587"/><path class="cls-2" d="M59.6 57.4H45.3a.9.9 0 01-.8-.8v-4.4a1.7 1.7 0 01-1.5-1.6v-.4a1.7 1.7 0 011.5-1.7v-4.1a1.7 1.7 0 01-1.5-1.6v-.4a1.7 1.7 0 011.5-1.7v-3.9a.8.8 0 01.8-.8.7.7 0 01.8.8v4.7a.7.7 0 01-.8.8h-.6v.5h.7a.8.8 0 01.8.8v5.7a.7.7 0 01-.8.8h-.6v.5h.7a.7.7 0 01.8.8v4.4h12.5v-4.4a.7.7 0 01.8-.8h.7v-.4h-.7a.7.7 0 01-.8-.8v-5.8a.8.8 0 01.8-.8h.7v-.4h-.7a.7.7 0 01-.8-.8v-4.8a.7.7 0 01.8-.8.8.8 0 01.8.8v3.9a1.9 1.9 0 011 .5 1.7 1.7 0 01.5 1.2v.4a1.7 1.7 0 01-1.5 1.6v4.1a1.7 1.7 0 011.5 1.7v.4a1.7 1.7 0 01-1.5 1.6v4.4a.9.9 0 01-.8.8z" id="Trazado_11678-5" data-name="Trazado 11678"/><path class="cls-2" d="M56.8 43.1h-8.7a.8.8 0 01-.8-.8.9.9 0 01.8-.8h8.7a.8.8 0 01.8.8.7.7 0 01-.8.8z" id="Línea_2316-5" data-name="Línea 2316"/><path class="cls-2" d="M56.8 50.9h-8.7a.8.8 0 110-1.6h8.7a.8.8 0 110 1.6z" id="Línea_2317-5" data-name="Línea 2317"/><path class="cls-2" d="M60.5 60.8H44.4a1.4 1.4 0 01-1.4-1.4v-2.2a1.4 1.4 0 011.4-1.4h16.1a1.4 1.4 0 011.4 1.4v2.2a1.4 1.4 0 01-1.4 1.4zm-15.9-1.6h15.7v-1.8H44.6zm15.9-1.8z" id="Rectángulo_4586-5" data-name="Rectángulo 4586"/><path class="cls-2" d="M60.4 37.6h-16a1.4 1.4 0 01-1.4-1.4v-2.3a1.4 1.4 0 011.4-1.4h16a1.4 1.4 0 011.4 1.4v2.3a1.4 1.4 0 01-1.4 1.4zM44.6 36h15.6v-1.9H44.6zm15.8-1.9z" id="Rectángulo_4587-5" data-name="Rectángulo 4587"/></svg>