<svg xmlns="http://www.w3.org/2000/svg" viewBox="0 0 60 60"><style>.st3{fill:none;stroke:#fff;stroke-width:1.2;stroke-linecap:round;stroke-linejoin:round;stroke-miterlimit:10}</style><g id="Capa_1"><path d="M10.05 38.52h7.03c1.92 0 3.48 1.56 3.48 3.48v.81H6.57V42c0-1.92 1.56-3.48 3.48-3.48z" fill="none" stroke="#fff" stroke-width="1.052" stroke-linecap="round" stroke-linejoin="round" stroke-miterlimit="10"/><path id="Rectángulo_3799_71_" d="M30 0c16.57 0 30 13.43 30 30S46.57 60 30 60 0 46.57 0 30 13.43 0 30 0z" fill="#19a500"/><path id="Rectángulo_3799_70_" fill="none" d="M0 0h60v60H0z"/><circle cx="51.84" cy="27" r="2.99" fill="none" stroke="#efef00" stroke-width="1.2" stroke-miterlimit="10"/><path class="st3" d="M5.17 34.62h39.62m-16.3-21.93v21.93m7.54-26.25s-7.55-2.91-7.55 5.14M20.3 8.45s6.7-3.44 8.18 5.83"/><path class="st3" d="M19.64 13.79s3.89-6.39 8.85-1.1c0 0 3.82-4.11 7.84.51"/><path class="st3" d="M22.26 18.3s.24-7.53 6.23-5.61c0 0 5.28-1.67 5.61 5.61m-20.44 6.76v9.56m6.36-13.2s-6.36-2.45-6.36 4.33m-6.9-4.26s5.65-2.9 6.9 4.92"/><path class="st3" d="M6.2 25.98s3.28-5.38 7.46-.93c0 0 3.22-3.46 6.61.43"/><path class="st3" d="M8.41 29.79s.2-6.35 5.25-4.73c0 0 4.45-1.4 4.73 4.73M10.5 45.17h2.55m6.94 4h2.54m-6.2-4h6.2m20-4.35h6.45m-26.76-2.3H33.7M45.71 21.2v19.45m2.58-9.75c-.8.29-1.67.44-2.57.44a7.66 7.66 0 010-15.32 7.67 7.67 0 017.44 5.81m-7.22 2.43l2.86-2.86m-6.7 4.82l3.53 2.42M31.09 45.88h7.03c1.92 0 3.48 1.56 3.48 3.48v.81h-14v-.81c0-1.92 1.56-3.48 3.49-3.48z"/></g></svg>