<svg version="1.1" id="Capa_1" xmlns="http://www.w3.org/2000/svg" xmlns:xlink="http://www.w3.org/1999/xlink" x="0" y="0" viewBox="0 0 65 65" xml:space="preserve"><style>.st0{fill:none}.st1,.st6,.st7{stroke:#4da12e;stroke-width:2.4;stroke-miterlimit:10;fill:none;stroke-linecap:round;stroke-linejoin:round}.st6,.st7{stroke:#95a6b1;stroke-width:1.6}.st7{stroke-width:1.5313}</style><symbol id="Textura-65px_2" viewBox="-32.5 -8.4 65 16.7"><path class="st0" d="M-32.5-8.4h65V8.3h-65z"/><path class="st1" d="M5.7-3.5h7.2m7.1 0h.6m-41.2 0h7.1"/><path d="M-14-3.5h12.5m-19.1 6.1H3" stroke="#96d200" stroke-width="2.4" stroke-miterlimit="10" fill="none" stroke-linecap="round" stroke-linejoin="round"/><path class="st1" d="M2.2 2.6h18.4m-41.2 0h.4"/></symbol><use xlink:href="#Textura-65px_2" width="65" height="16.7" x="-32.5" y="-8.4" transform="matrix(1 0 0 -1 32.5 56.63)" overflow="visible"/><path id="Trazado_11848_9_" d="M17.9 11.6c0 1.9-1.5 3.4-3.4 3.4s-3.4-1.5-3.4-3.4 1.5-3.4 3.4-3.4h0c1.8 0 3.4 1.5 3.4 3.4 0 0 0 0 0 0z" fill="none" stroke="#19a500" stroke-width="1.6" stroke-linecap="round" stroke-linejoin="round" stroke-miterlimit="10"/><path id="Rectángulo_3799-2_1_" class="st0" d="M0 0h65v65H0z"/><path class="st6" d="M20 7.8c3.5-2.7 7.8-4.3 12.5-4.3 11.3 0 20.4 9.1 20.4 20.4 0 2.7-.5 5.4-1.5 7.7m-10 10.7c-2.7 1.3-5.7 2-8.9 2-11.3 0-20.4-9.1-20.4-20.4 0-2.1.3-4.1.9-6"/><path class="st6" d="M39.8 37.7c-2.2 1.1-4.7 1.8-7.3 1.8-8.7 0-15.8-7.1-15.8-15.8 0-7.6 5.4-14 12.6-15.5m6.9.1c7 1.7 12.1 7.9 12.1 15.4 0 1.8-.3 3.6-.9 5.2M32.8 7.8"/><path class="st6" d="M40.1 33.7l6.2-4.1c.5-.3 1.1-.3 1.6 0l6.2 4.1c.4.3.7.8.7 1.3-.3 6.6-4.8 12.7-7.7 12.7-2.9 0-7.3-6.2-7.7-12.7 0-.5.3-1 .7-1.3z"/><path class="st6" d="M44.2 38.3l2.2 2 4.1-4.3"/><path class="st7" d="M27.3 22.6h10v7.1h-10z"/><path class="st7" d="M32.3 16.9c-1.6 0-3 1.3-3 3v2.8h5.9v-2.8c0-1.7-1.3-3-2.9-3zm0 9.2"/><path class="st6" d="M34.4 13.7h10.2m-23.7 0h14m-6.2 19.7h11.4m-20 0h10.1"/></svg>