<svg version="1.1" id="Capa_1" xmlns="http://www.w3.org/2000/svg" xmlns:xlink="http://www.w3.org/1999/xlink" x="0" y="0" viewBox="0 0 65 65" xml:space="preserve"><style>.st0,.st1{stroke-width:1.6;stroke-linecap:round;stroke-linejoin:round}.st0{fill:none;stroke:#93a4af}.st1{stroke:#95a6b1}.st1,.st3{fill:none}.st5{fill:#4da12e}</style><path class="st0" d="M50.18 32.73h-6.29m-2.96 0h-1.25m-13.25 6.78V36.5c0-7.72 6.25-13.97 13.97-13.97 7.72 0 13.97 6.25 13.97 13.97v2.82"/><path class="st0" d="M28.71 28.68c-1.21-.34-2.48-.52-3.79-.52-6.41 0-11.81 4.32-13.46 10.2 0 0-.27 1.15-.38 1.82m9.12 7.47h39.23"/><g id="Grupo_11520_2_" transform="translate(26.05 6.919)"><path id="Línea_2024_2_" class="st1" d="M-3.51 21.25V5.06"/><path id="Línea_2025_2_" class="st1" d="M-.45 9.94l-3.01 2.16"/><path id="Línea_2026_2_" class="st1" d="M-6.52 6.89l3.01 1.84"/><path id="Trazado_10520_2_" class="st1" d="M5.37 8.21c-.83 5.05-5.6 8.48-10.65 7.65-5.05-.83-8.48-5.6-7.65-10.65a9.28 9.28 0 019.78-7.75"/></g><path id="Trazado_11848_3_" d="M24.59 8.54c0 2.31 1.87 4.18 4.18 4.18s4.18-1.87 4.18-4.18-1.87-4.18-4.18-4.18h0a4.165 4.165 0 00-4.18 4.15v.03z" fill="none" stroke="#00a800" stroke-width="1.6" stroke-linecap="round" stroke-linejoin="round" stroke-miterlimit="10"/><path class="st0" d="M20.2 40.17h39.17m-52.52 0h9.77m-9.77 7.48h9.77m0-9.21h3.39v10.88h-3.39z"/><path id="Rectángulo_3799-2_5_" class="st3" d="M0 0h65v65H0z"/><defs><path id="SVGID_1_" d="M0 48.26h65V65H0z"/></defs><clipPath id="SVGID_2_"><use xlink:href="#SVGID_1_" overflow="visible"/></clipPath><g clip-path="url(#SVGID_2_)"><path class="st3" d="M0 48.26h65V65H0z"/><path class="st5" d="M45.38 61.32h-7.17c-.66 0-1.2-.54-1.2-1.2s.54-1.2 1.2-1.2h7.17c.66 0 1.2.54 1.2 1.2s-.54 1.2-1.2 1.2zm7.73 0h-.58c-.66 0-1.2-.54-1.2-1.2s.54-1.2 1.2-1.2h.58c.66 0 1.2.54 1.2 1.2s-.54 1.2-1.2 1.2zm-34.12 0h-7.1c-.66 0-1.2-.54-1.2-1.2s.54-1.2 1.2-1.2h7.1c.66 0 1.2.54 1.2 1.2s-.54 1.2-1.2 1.2z"/><path d="M31.05 61.32H18.53c-.66 0-1.2-.54-1.2-1.2s.54-1.2 1.2-1.2h12.52c.66 0 1.2.54 1.2 1.2s-.54 1.2-1.2 1.2zm4.42-6.11H11.89c-.66 0-1.2-.54-1.2-1.2s.54-1.2 1.2-1.2h23.58c.66 0 1.2.54 1.2 1.2s-.54 1.2-1.2 1.2z" fill="#96d200"/><path class="st5" d="M53.11 55.21H34.75c-.66 0-1.2-.54-1.2-1.2s.54-1.2 1.2-1.2h18.36c.66 0 1.2.54 1.2 1.2s-.54 1.2-1.2 1.2zm-40.79 0h-.43c-.66 0-1.2-.54-1.2-1.2s.54-1.2 1.2-1.2h.43c.66 0 1.2.54 1.2 1.2s-.54 1.2-1.2 1.2z"/></g></svg>