<svg data-name="Capa 1" xmlns="http://www.w3.org/2000/svg" viewBox="0 0 84 84"><path d="M69.9 53.3l-6.8-1.1v-2.5a9.1 9.1 0 004.1-5.5h.3a4.5 4.5 0 004.5-4.4 4.4 4.4 0 00-3.3-4.3 6.5 6.5 0 003.3-5.7 6.7 6.7 0 00-6.7-6.7 4.3 4.3 0 00-3.2 1.4 8.3 8.3 0 00-4.6-1.4H56a8.5 8.5 0 00-7 3.7l-.9.6a6.1 6.1 0 00-2.8 5.1 7.7 7.7 0 00.2 1.5l.8 3.1a4.3 4.3 0 00-1 2.7 4.5 4.5 0 004.5 4.4h.3a9.1 9.1 0 004.1 5.5v2.5l-6.8 1.1a7.7 7.7 0 00-6.5 7.7v15.4h35.5V61a7.7 7.7 0 00-6.5-7.7m-15.1 1l2.5 3.2-2.3 2.8-.5-5.9zm3.7 11h.4l1.7 8.9h-3.9zm.5-2.2h-.7l-.9-2.2 1.3-1.6 1.2 1.6zm1.1-5.6l2.4-3.2h.4l-.6 5.9zm9.7-17.7a2.2 2.2 0 01-2.3 2.2v-4.4a2.2 2.2 0 012.3 2.2m-6.7-12.2a2.2 2.2 0 012.2-2.3 4.5 4.5 0 110 8.9H53.1a1.1 1.1 0 01-1.1-1.1h-2.2v2.2a7.6 7.6 0 00-1.6.3l-.5-2.1a3.8 3.8 0 01-.1-1 3.9 3.9 0 011.7-3.3l1.3-.8v-.2a6.4 6.4 0 015.4-2.9h1.5a6.1 6.1 0 013.5 1.1 4.9 4.9 0 00-.1 1.2M47.6 39.8a2.2 2.2 0 012.2-2.2V42a2.2 2.2 0 01-2.2-2.2M52 42v-5.8a2 2 0 001.1.2h12.2V42A6.7 6.7 0 1152 42m6.7 8.9a8.3 8.3 0 002.2-.3v2.1l-2.2 3-2.3-3v-2.1a8.5 8.5 0 002.3.3M43.1 61a5.5 5.5 0 014.6-5.5l4.6-.8 1.1 11.2 2.4-3 .6 1.4-2 9.9h-4.6V62h-2.2v12.2h-4.5zm31.1 13.2h-4.4V62h-2.3v12.2h-4.6l-2-9.9.6-1.4 2.4 3L65 54.7l4.6.8a5.4 5.4 0 014.6 5.5zM9.8 63.6v12.8h24.4v-2.8a23.6 23.6 0 00-6.6-16.5v-2.9h1.5a3.9 3.9 0 001.8-.4 4 4 0 002.2-3.6v-3l3.3-1.1v-.8c0-3.2-1.9-9.2-2.2-10.2a10 10 0 00-10-9.8H22a10 10 0 00-10 10v4a20.1 20.1 0 01-2.1 8.9 22.2 22.2 0 00-2.3 9.9v.6a6.4 6.4 0 002.2 4.9M12 72h6.7v2.2H12zm20 2.2H20.9v-8.9h-2.2v4.5H12v-4.9a5.7 5.7 0 002.2.4 6.7 6.7 0 006.7-6.6H26a21.2 21.2 0 016 14.9zm-1.1-28.6v4.6a1.8 1.8 0 01-1 1.6l-.8.2h-6v2.2h2.2v2.2h-4.4V48l-1.3-.7a1.5 1.5 0 01-.9-1.4 1.7 1.7 0 011.6-1.7h1.6l.9-6.3a1.7 1.7 0 011.6-1.5h7.9a48.5 48.5 0 011.9 8.1zM9.8 58.1a19.4 19.4 0 012.1-8.9 22.8 22.8 0 002.3-9.9v-4a7.8 7.8 0 017.8-7.7h2.2a7.8 7.8 0 017.7 6.6h-7.5a3.9 3.9 0 00-3.8 3.3l-.7 4.5a3.9 3.9 0 00-1.3 7.3h.1v9.4a4.5 4.5 0 01-8.9 0zm20-17.2a1.1 1.1 0 11-1.1-1.1 1.1 1.1 0 011.1 1.1m15.5-26.7H29.8V12h15.5zm-4.4 4.5H29.8v-2.2h11.1zm-3.8 4.4l3.7 3.7a2.6 2.6 0 001.9.8 2.7 2.7 0 002.6-2.7v-1.8h.2a4.2 4.2 0 004.3-4.2V12a4.5 4.5 0 00-4.5-4.4H29.8a4.5 4.5 0 00-4.5 4.4v6.9a4.3 4.3 0 004.3 4.2zm-9.5-4.2V12a2.2 2.2 0 012.2-2.2h15.5a2.2 2.2 0 012.3 2.2v6.9a2.1 2.1 0 01-2.1 2h-2.4v4a.5.5 0 01-.8.3L38 20.9h-8.4a2 2 0 01-2-2" fill="#6859a3"/><path fill="none" d="M0 0h84v84H0z"/></svg>