<svg id="Capa_1" data-name="Capa 1" xmlns="http://www.w3.org/2000/svg" viewBox="0 0 65 65"><defs><style>.cls-1{fill:none}.cls-2{fill:#95a6b1}.cls-4{fill:#19a301}</style></defs><path class="cls-1" d="M0 0h65v65H0z" id="Rectángulo_3790" data-name="Rectángulo 3790"/><path class="cls-2" d="M55.1 50H39.7a.7.7 0 01-.7-.7V36.4a6.3 6.3 0 016.2-6.2h4.5a6.3 6.3 0 016.2 6.2v12.9a.8.8 0 01-.8.7zm-14.6-1.5h13.9V36.4a4.7 4.7 0 00-4.7-4.7h-4.5a4.7 4.7 0 00-4.7 4.7z" id="Trazado_9429" data-name="Trazado 9429"/><path class="cls-2" d="M11.1 15.1a.8.8 0 01-.7-.8v-2.6a3.5 3.5 0 013.5-3.4h4.2a.8.8 0 01.8.7.8.8 0 01-.8.7h-4.2a2.1 2.1 0 00-2 2v2.6a.9.9 0 01-.8.8z" id="Trazado_9430" data-name="Trazado 9430"/><path class="cls-2" d="M20.8 50h-9.7a.7.7 0 01-.7-.7V30.8a.8.8 0 01.7-.8.9.9 0 01.8.8v17.7h8.2V11.7a2.1 2.1 0 00-2-2 .7.7 0 010-1.4 3.5 3.5 0 013.5 3.4v37.6a.7.7 0 01-.7.7z" id="Trazado_9431" data-name="Trazado 9431"/><path class="cls-2" d="M35.9 50a.8.8 0 01-.8-.7V28.7a4.3 4.3 0 014.1-4.4h4.7a4.2 4.2 0 014.1 4.4V31a.7.7 0 01-1.4 0v-2.3a2.7 2.7 0 00-2.7-2.9h-4.7a2.7 2.7 0 00-2.6 2.9v20.6a.7.7 0 01-.7.7z" id="Trazado_9432" data-name="Trazado 9432"/><path class="cls-2" d="M39.7 44.2h-6a4.3 4.3 0 01-4.1-4.4v-5.2a2.8 2.8 0 00-2.6-2.9h-6.2a.7.7 0 010-1.4H27a4.2 4.2 0 014.1 4.3v5.2a2.7 2.7 0 002.6 2.9h6a.9.9 0 01.8.8.8.8 0 01-.8.7z" id="Trazado_9433" data-name="Trazado 9433"/><path class="cls-2" d="M24.9 50a.7.7 0 01-.7-.7V18.9a2.8 2.8 0 00-2.6-2.9h-.8a.7.7 0 010-1.4h.8a4.2 4.2 0 014.1 4.3v30.4a.8.8 0 01-.8.7z" id="Trazado_9434" data-name="Trazado 9434"/><path class="cls-2" d="M58.9 50H7a.8.8 0 01-.8-.7.9.9 0 01.8-.8h51.9a.8.8 0 01.7.8.7.7 0 01-.7.7z" id="Trazado_9435" data-name="Trazado 9435"/><path class="cls-2" d="M47.7 45.4a3.4 3.4 0 01-2.6-1.4c-1-1.4-.4-2.9.1-4.1l.3-.8 1.5-3.7a.8.8 0 011-.4.7.7 0 01.4.6l1.7 3.9c.4.8 1.2 2.3.6 3.8a3.5 3.5 0 01-3 2.1zm0-7.8a18 18 0 00-.8 2.1l-.3.7c-.5 1.3-.8 2-.3 2.8a1.9 1.9 0 001.4.7 1.8 1.8 0 001.7-1.2 3.5 3.5 0 00-.6-2.6c-.5-1-.8-1.8-1.1-2.5z" id="Trazado_9436" data-name="Trazado 9436"/><path d="M11.4 28a5.3 5.3 0 010-10.6 5.2 5.2 0 015.2 5.3 5.4 5.4 0 01-1.4 3.6 5.6 5.6 0 01-3.8 1.7zm0-9.1a3.7 3.7 0 00-3.7 3.9 3.9 3.9 0 003.7 3.7 3.8 3.8 0 000-7.6z" fill="#19a500" id="Trazado_9437" data-name="Trazado 9437"/><path class="cls-2" d="M35.7 17h-.4a2.7 2.7 0 01-2.8-2.8V7.1a2.7 2.7 0 012.8-2.7h.4a2.7 2.7 0 012.7 2.7v.7a.7.7 0 01-1.4 0v-.7a1.3 1.3 0 00-1.3-1.3h-.4A1.3 1.3 0 0034 7.1v7.1a1.3 1.3 0 001.3 1.3h.4a1.3 1.3 0 001.3-1.3.7.7 0 011.4 0 2.7 2.7 0 01-2.7 2.8z" id="Trazado_9438" data-name="Trazado 9438"/><path class="cls-2" d="M42.1 17h-.4a2.8 2.8 0 01-2.8-2.8V5.1a.7.7 0 01.7-.7.8.8 0 01.8.7v9.1a1.3 1.3 0 001.3 1.3h.4a1.3 1.3 0 001.3-1.3V5.1a.7.7 0 011.4 0v9.1a2.7 2.7 0 01-2.7 2.8z" id="Trazado_9439" data-name="Trazado 9439"/><path class="cls-2" d="M46.4 17a.8.8 0 01-.8-.7V7.1a2.8 2.8 0 012.8-2.7h.4a2.7 2.7 0 012.7 2.7v1.5a2.8 2.8 0 01-2.8 2.8h-1.6v4.9a.7.7 0 01-.7.7zm.7-7h1.6a1.4 1.4 0 001.4-1.4V7.2a1.3 1.3 0 00-1.3-1.3h-.4a1.3 1.3 0 00-1.3 1.3z" id="Trazado_9440" data-name="Trazado 9440"/><path class="cls-2" d="M48.5 19.5H29.8a.7.7 0 01-.7-.7V8a6.3 6.3 0 016.3-6.3h18.7a.7.7 0 01.7.7v10.8a6.3 6.3 0 01-6.3 6.3zm-18-1.5h18a4.9 4.9 0 004.9-4.8V3.1h-18a4.9 4.9 0 00-4.9 4.8z" id="Trazado_9441" data-name="Trazado 9441"/><path class="cls-2" d="M41.6 25.8a.8.8 0 01-.7-.8v-6.2a.7.7 0 111.4 0V25a.8.8 0 01-.7.8z" id="Trazado_9442" data-name="Trazado 9442"/><path class="cls-1" d="M0 48.3h65v16.74H0z"/><path class="cls-4" d="M45.4 61.3h-7.2a1.2 1.2 0 01-1.2-1.2 1.3 1.3 0 011.2-1.2h7.2a1.3 1.3 0 011.2 1.2 1.2 1.2 0 01-1.2 1.2zm7.7 0h-.6a1.2 1.2 0 01-1.2-1.2 1.3 1.3 0 011.2-1.2h.6a1.2 1.2 0 011.2 1.2 1.2 1.2 0 01-1.2 1.2zm-34.1 0h-7.1a1.2 1.2 0 01-1.2-1.2 1.2 1.2 0 011.2-1.2H19a1.2 1.2 0 011.2 1.2 1.2 1.2 0 01-1.2 1.2z"/><path d="M31 61.3H18.5a1.2 1.2 0 01-1.2-1.2 1.3 1.3 0 011.2-1.2H31a1.2 1.2 0 011.2 1.2 1.2 1.2 0 01-1.2 1.2zm4.5-6.1H11.9a1.2 1.2 0 110-2.4h23.6a1.2 1.2 0 010 2.4z" fill="#82d400"/><path class="cls-4" d="M53.1 55.2H34.7a1.2 1.2 0 010-2.4h18.4a1.2 1.2 0 010 2.4zm-40.8 0h-.4a1.2 1.2 0 110-2.4h.4a1.2 1.2 0 010 2.4z"/></svg>