<svg id="Capa_1" data-name="Capa 1" xmlns="http://www.w3.org/2000/svg" viewBox="0 0 65 65"><defs><style>.cls-1{fill:none}.cls-2{fill:#90a6b1}.cls-4{fill:#19a301}</style></defs><g id="Grupo_14998" data-name="Grupo 14998"><path class="cls-1" d="M0 0h65v65H0z" id="Rectángulo_3799-2" data-name="Rectángulo 3799-2"/><g id="Grupo_15005" data-name="Grupo 15005"><g id="Grupo_15004" data-name="Grupo 15004"><path class="cls-2" d="M58.5 50H7.1a.8.8 0 01-.8-.8.9.9 0 01.8-.8h51.4a.8.8 0 01.8.8.7.7 0 01-.8.8z" id="Línea_2848" data-name="Línea 2848"/><path class="cls-2" d="M20.7 49.8a.7.7 0 01-.8-.8V12.4a2.4 2.4 0 00-2.3-2.3h-3.7a2.4 2.4 0 00-2.3 2.3v2.2a.8.8 0 01-.8.8.9.9 0 01-.8-.8v-2.2a4 4 0 013.9-3.9h3.7a3.6 3.6 0 012.7 1.2 3.6 3.6 0 011.2 2.7V49a.8.8 0 01-.8.8z" id="Trazado_12467" data-name="Trazado 12467"/><path class="cls-2" d="M10.8 50a.8.8 0 01-.8-.8v-19a.9.9 0 01.8-.8.8.8 0 01.8.8v19a.7.7 0 01-.8.8z" id="Línea_2849" data-name="Línea 2849"/><path class="cls-2" d="M54.8 50a.8.8 0 01-.8-.8V34.7a2.2 2.2 0 00-2.2-2.2h-9.1a2.2 2.2 0 00-2.2 2.2v14.5a.9.9 0 01-.8.8.8.8 0 01-.8-.8V34.7a3.8 3.8 0 013.8-3.8h9.1a3.8 3.8 0 013.8 3.8v14.5a.8.8 0 01-.8.8z" id="Trazado_12468" data-name="Trazado 12468"/><path class="cls-2" d="M36 50a.8.8 0 01-.8-.8v-21a3.8 3.8 0 013.8-3.8h5.2a3.8 3.8 0 013.8 3.8v3.3a.8.8 0 01-.8.8.7.7 0 01-.8-.8v-3.3a2.2 2.2 0 00-2.2-2.2H39a2.2 2.2 0 00-2.2 2.2v21a.9.9 0 01-.8.8z" id="Trazado_12469" data-name="Trazado 12469"/><path class="cls-2" d="M24.7 49.8a.7.7 0 01-.8-.8V18a1.9 1.9 0 00-1.8-1.8h-1.4a.7.7 0 01-.8-.8.8.8 0 01.8-.8h1.4a3.4 3.4 0 013.4 3.4v31a.8.8 0 01-.8.8z" id="Trazado_12470" data-name="Trazado 12470"/><path class="cls-2" d="M39.4 44.2h-6.9a3.1 3.1 0 01-3.1-3.1v-7.7a1.4 1.4 0 00-1.5-1.5h-7a.9.9 0 01-.8-.8.8.8 0 01.8-.8h7a3.1 3.1 0 013.1 3.1v7.7a1.5 1.5 0 001.5 1.5h6.9a.7.7 0 01.8.8.8.8 0 01-.8.8z" id="Trazado_12471" data-name="Trazado 12471"/><path class="cls-2" d="M47.7 45.3a3.4 3.4 0 01-3.2-3.2 7.8 7.8 0 01.5-1.8l1.9-4.3a1 1 0 01.8-.5.8.8 0 01.7.5l2.1 4.3A8.4 8.4 0 0151 42a3.3 3.3 0 01-3.3 3.3zm0-7.1L46.5 41a5.6 5.6 0 00-.4 1.2 1.7 1.7 0 001.6 1.5 1.7 1.7 0 001.7-1.6l-.3-1.1z" id="Trazado_12472" data-name="Trazado 12472"/><path class="cls-2" d="M41.9 25.7a.9.9 0 01-.8-.8v-6a.8.8 0 011.6 0v6a.9.9 0 01-.8.8z" id="Línea_2850" data-name="Línea 2850"/><path class="cls-2" d="M49.4 19.7H29.2a.9.9 0 01-.8-.8V7.6a5.9 5.9 0 016-5.9h20.2a.8.8 0 01.8.8v11.2a6 6 0 01-6 6zM30 18.1h19.4a4.4 4.4 0 004.4-4.4V3.3H34.4A4.4 4.4 0 0030 7.6z" id="Rectángulo_5120" data-name="Rectángulo 5120"/><path d="M10.8 27.3a5.1 5.1 0 01-3.5-1.5 4.7 4.7 0 01-1.5-3.5 5 5 0 015-5 4.9 4.9 0 015 4.9 4.7 4.7 0 01-1.5 3.5 5.1 5.1 0 01-3.5 1.6zm0-8.4a3.4 3.4 0 00-3.4 3.4 3.7 3.7 0 001 2.4 3.5 3.5 0 002.4 1 3.5 3.5 0 002.4-1 3.7 3.7 0 001-2.4 3.4 3.4 0 00-3.4-3.4z" fill="#00ab00" id="Trazado_11848" data-name="Trazado 11848"/><g id="Grupo_15000" data-name="Grupo 15000"><g id="Grupo_14999" data-name="Grupo 14999"><path class="cls-2" d="M46.3 16.9a.8.8 0 01-.8-.8V8.5a.8.8 0 01.8-.8.9.9 0 01.8.8v7.6a.9.9 0 01-.8.8z" id="Línea_2851" data-name="Línea 2851"/><g id="Grupo_14998-2" data-name="Grupo 14998-2"><path class="cls-2" d="M48.4 11.7h-2.1a.7.7 0 01-.8-.8V7.6a2.9 2.9 0 012.9-2.9h.1a2.9 2.9 0 013 2.9v1.1a3 3 0 01-3.1 3zm-1.3-1.6h1.3a1.5 1.5 0 001.5-1.4V7.6a1.3 1.3 0 00-1.4-1.3h-.1a1.3 1.3 0 00-1.3 1.3z" id="Rectángulo_5121" data-name="Rectángulo 5121"/><path class="cls-2" d="M50.6 16.9a.9.9 0 01-.6-.3l-4.3-5.1a.9.9 0 010-1.2 1 1 0 011.2.1l4.4 5.1a1 1 0 01-.1 1.2z" id="Línea_2852" data-name="Línea 2852"/></g></g></g><g id="Grupo_15003" data-name="Grupo 15003"><g id="Grupo_15002" data-name="Grupo 15002"><path class="cls-2" d="M32.5 16.9a.8.8 0 01-.8-.8V8.5a.8.8 0 01.8-.8.9.9 0 01.8.8v7.6a.9.9 0 01-.8.8z" id="Línea_2853" data-name="Línea 2853"/><g id="Grupo_15001" data-name="Grupo 15001"><path class="cls-2" d="M34.6 11.7h-2.1a.7.7 0 01-.8-.8V7.6a2.9 2.9 0 012.9-2.9h.2a3 3 0 012 .8 2.9 2.9 0 01.9 2.1v1.1a3 3 0 01-3.1 3zm-1.3-1.6h1.3a1.5 1.5 0 001.5-1.4V7.6a1.5 1.5 0 00-.4-.9 1.2 1.2 0 00-.9-.4h-.2a1.3 1.3 0 00-1.3 1.3z" id="Rectángulo_5122" data-name="Rectángulo 5122"/></g><path class="cls-2" d="M41.6 16.9h-.2a3 3 0 01-2.9-3V7.6a2.9 2.9 0 012.9-2.9h.2a2.9 2.9 0 012.9 2.9v6.3a3 3 0 01-2.9 3zm-.2-10.6a1.3 1.3 0 00-1.3 1.3v6.3a1.3 1.3 0 001.3 1.4h.2a1.3 1.3 0 001.3-1.4V7.6a1.3 1.3 0 00-1.3-1.3z" id="Trazado_12473" data-name="Trazado 12473"/></g></g></g></g></g><path class="cls-1" d="M0 48.3h65v16.74H0z"/><path class="cls-4" d="M45.4 61.3h-7.2a1.2 1.2 0 01-1.2-1.2 1.3 1.3 0 011.2-1.2h7.2a1.3 1.3 0 011.2 1.2 1.2 1.2 0 01-1.2 1.2zm7.7 0h-.6a1.2 1.2 0 01-1.2-1.2 1.3 1.3 0 011.2-1.2h.6a1.2 1.2 0 011.2 1.2 1.2 1.2 0 01-1.2 1.2zm-34.1 0h-7.1a1.2 1.2 0 01-1.2-1.2 1.2 1.2 0 011.2-1.2H19a1.2 1.2 0 011.2 1.2 1.2 1.2 0 01-1.2 1.2z"/><path d="M31 61.3H18.5a1.2 1.2 0 01-1.2-1.2 1.3 1.3 0 011.2-1.2H31a1.2 1.2 0 011.2 1.2 1.2 1.2 0 01-1.2 1.2zm4.5-6.1H11.9a1.2 1.2 0 110-2.4h23.6a1.2 1.2 0 010 2.4z" fill="#82d400"/><path class="cls-4" d="M53.1 55.2H34.7a1.2 1.2 0 010-2.4h18.4a1.2 1.2 0 010 2.4zm-40.8 0h-.4a1.2 1.2 0 110-2.4h.4a1.2 1.2 0 010 2.4z"/></svg>