<svg id="Capa_1" data-name="Capa 1" xmlns="http://www.w3.org/2000/svg" viewBox="0 0 64 64"><defs><style>.cls-1{fill:#fff}</style></defs><path class="cls-1" d="M17.5 26.7a4.3 4.3 0 01-4-2.5 4.5 4.5 0 012.2-5.9 4.4 4.4 0 015.8 2.2 4.3 4.3 0 01-2.2 5.8 3.9 3.9 0 01-1.8.4zm0-7a2.3 2.3 0 00-1.1.3 2.6 2.6 0 00-1.3 3.4 2.7 2.7 0 003.5 1.3 2.8 2.8 0 001.4-1.6 3.1 3.1 0 00-.1-1.9 2.8 2.8 0 00-2.4-1.5zm-5.4 27.7a.9.9 0 01-.9-.9V32.2a.9.9 0 01.9-.9h39.2a.9.9 0 01.9.9v13.7a.9.9 0 01-1.8 0V33.1H13v13.4a.9.9 0 01-.9.9z"/><path class="cls-1" d="M12.1 36.8a1 1 0 01-.9-.9v-3.7a.9.9 0 111.8 0v3.7a1 1 0 01-.9.9zm31.5 0a1 1 0 01-.9-.9v-3.7a.9.9 0 111.8 0v3.7a1 1 0 01-.9.9zm7.8 0a.9.9 0 01-.9-.9v-3.7a.9.9 0 01.9-.9 1 1 0 01.9.9v3.7a1 1 0 01-.9.9z"/><path class="cls-1" d="M54.3 36.8H9.2a.9.9 0 110-1.8h45.1a.9.9 0 010 1.8zM37 43H12.2a.9.9 0 01-.9-.9 1 1 0 01.9-.9H37a1 1 0 01.9.9.9.9 0 01-.9.9zm14.3 0h-4.6a.9.9 0 01-.9-.9 1 1 0 01.9-.9h4.6a1 1 0 01.9.9.9.9 0 01-.9.9zm-34-26.4a.9.9 0 01-.9-.9V13a3.7 3.7 0 013.7-3.7h4.3a.9.9 0 010 1.8h-4.3a1.9 1.9 0 00-1.9 1.9v2.7a.9.9 0 01-.9.9z"/><path class="cls-1" d="M27.2 36.8a1 1 0 01-.9-.9V13a1.9 1.9 0 00-1.9-1.9.9.9 0 110-1.8 3.7 3.7 0 013.7 3.7v22.9a1 1 0 01-.9.9z"/><path class="cls-1" d="M37 33.1a.9.9 0 01-.9-.9V28a2.7 2.7 0 00-2.5-2.8h-6.4a.9.9 0 010-1.8h6.4a4.5 4.5 0 014.3 4.6v4.2a.9.9 0 01-.9.9z"/><path class="cls-1" d="M31.4 36.8a1 1 0 01-.9-.9V20.4a2.6 2.6 0 00-2.5-2.8h-.5a.9.9 0 010-1.8h.5a4.4 4.4 0 014.3 4.6v15.5a.9.9 0 01-.9.9zm-14.1 0a.9.9 0 01-.9-.9v-7.3a.9.9 0 011.8 0v7.3a.9.9 0 01-.9.9zm38.5 12.5a5.7 5.7 0 01-3.9-1.6 3.6 3.6 0 00-2.7-1.2 3.7 3.7 0 00-2.8 1.2 5.7 5.7 0 01-3.9 1.6 5.5 5.5 0 01-3.9-1.6 3.7 3.7 0 00-2.8-1.2 3.6 3.6 0 00-2.7 1.2 5.7 5.7 0 01-3.9 1.6 5.5 5.5 0 01-3.9-1.6 3.8 3.8 0 00-2.8-1.2 3.4 3.4 0 00-2.7 1.2 5.9 5.9 0 01-4 1.6 5.7 5.7 0 01-3.9-1.6 3.6 3.6 0 00-2.7-1.2.9.9 0 110-1.8 5.7 5.7 0 013.9 1.6 3.6 3.6 0 002.7 1.2 3.7 3.7 0 002.8-1.2 5.6 5.6 0 017.8 0 3.7 3.7 0 002.8 1.2 3.6 3.6 0 002.7-1.2 5.7 5.7 0 013.9-1.6 5.5 5.5 0 013.9 1.6 3.7 3.7 0 002.8 1.2 3.6 3.6 0 002.7-1.2 5.9 5.9 0 014-1.6 5.9 5.9 0 013.9 1.6 3.6 3.6 0 002.7 1.2.9.9 0 010 1.8zm0 6.8a5.7 5.7 0 01-3.9-1.6 3.6 3.6 0 00-2.7-1.2 3.7 3.7 0 00-2.8 1.2 5.7 5.7 0 01-3.9 1.6 5.5 5.5 0 01-3.9-1.6 3.7 3.7 0 00-2.8-1.2 3.6 3.6 0 00-2.7 1.2 5.7 5.7 0 01-3.9 1.6 5.5 5.5 0 01-3.9-1.6 3.8 3.8 0 00-2.8-1.2 3.4 3.4 0 00-2.7 1.2 5.9 5.9 0 01-4 1.6 5.7 5.7 0 01-3.9-1.6 3.6 3.6 0 00-2.7-1.2.9.9 0 110-1.8 5.7 5.7 0 013.9 1.6 3.6 3.6 0 002.7 1.2 3.7 3.7 0 002.8-1.2 5.6 5.6 0 017.8 0 3.7 3.7 0 002.8 1.2 3.6 3.6 0 002.7-1.2 5.7 5.7 0 013.9-1.6 5.5 5.5 0 013.9 1.6 3.7 3.7 0 002.8 1.2 3.6 3.6 0 002.7-1.2 5.9 5.9 0 014-1.6 5.9 5.9 0 013.9 1.6 3.6 3.6 0 002.7 1.2.9.9 0 110 1.8z"/><path fill="none" d="M0 0h64v64H0z"/></svg>