<svg id="Capa_1" data-name="Capa 1" xmlns="http://www.w3.org/2000/svg" viewBox="0 0 65 65"><defs><style>.cls-1{fill:none}.cls-3{fill:#95a6b1}.cls-4{fill:#19a301}</style></defs><path class="cls-1" d="M0 0h65v65H0z"/><path d="M14.5 16a4.4 4.4 0 010-8.8 4.4 4.4 0 014.4 4.4 4.4 4.4 0 01-4.4 4.4zm0-7.2a2.9 2.9 0 00-2.8 2.8 2.8 2.8 0 105.6 0 2.9 2.9 0 00-2.8-2.8z" fill="#00a800" id="Trazado_11848" data-name="Trazado 11848"/><path class="cls-3" d="M49.6 46.8H14.3a.9.9 0 01-.8-.8V18.6a.8.8 0 011.6 0v26.6h33.7V12H21.3a.8.8 0 01-.8-.8.9.9 0 01.8-.8h28.3a.9.9 0 01.8.8V46a.9.9 0 01-.8.8z" id="Trazado_11852" data-name="Trazado 11852"/><path class="cls-3" d="M49.6 15.8a.8.8 0 01-.8-.8v-3.8a.8.8 0 01.8-.8.9.9 0 01.8.8V15a.9.9 0 01-.8.8z" id="Línea_2421" data-name="Línea 2421"/><path class="cls-3" d="M24 15.8a.8.8 0 01-.8-.8v-3.8a.8.8 0 01.8-.8.9.9 0 01.8.8V15a.9.9 0 01-.8.8z" id="Línea_2422" data-name="Línea 2422"/><path class="cls-3" d="M31.1 15.8a.8.8 0 01-.8-.8v-3.8a.8.8 0 01.8-.8.9.9 0 01.8.8V15a.9.9 0 01-.8.8z" id="Línea_2423" data-name="Línea 2423"/><path class="cls-3" d="M41.7 15.8a.8.8 0 01-.8-.8v-3.8a.8.8 0 01.8-.8.9.9 0 01.8.8V15a.9.9 0 01-.8.8z" id="Línea_2424" data-name="Línea 2424"/><path class="cls-3" d="M52.6 15.9H21.3a.9.9 0 01-.8-.8.8.8 0 01.8-.8h31.3a.7.7 0 01.8.8.8.8 0 01-.8.8z" id="Línea_2425" data-name="Línea 2425"/><path class="cls-3" d="M34 46.7a.7.7 0 01-.8-.8V31.2a.7.7 0 01.8-.8.8.8 0 01.8.8v14.7a.8.8 0 01-.8.8zm7.7 0a.8.8 0 01-.8-.8V31.2a.8.8 0 01.8-.8.7.7 0 01.8.8v14.7a.7.7 0 01-.8.8z"/><path class="cls-3" d="M33.9 39.2h-.3L14 30.5a.8.8 0 01.6-1.4l19.6 8.6a.8.8 0 01.5 1 1 1 0 01-.8.5zm0-7.2h-.3L14 23.3a.8.8 0 01-.4-1.1c.1-.4.6-.5 1-.4l19.6 8.6a1 1 0 01.5 1.1 1 1 0 01-.8.5z"/><path class="cls-3" d="M41.7 38.5H34a.7.7 0 01-.8-.7.7.7 0 01.8-.8h7.7a.8.8 0 01.8.8.8.8 0 01-.8.7zm0 4.2H34a.7.7 0 01-.8-.8.8.8 0 01.8-.8h7.7a.9.9 0 01.8.8.8.8 0 01-.8.8zm0 4.1H34a.8.8 0 01-.8-.8.7.7 0 01.8-.8h7.7a.8.8 0 01.8.8.9.9 0 01-.8.8zM18 32.2a.7.7 0 01-.8-.8v-7.1a.8.8 0 01.8-.8.9.9 0 01.8.8v7.1a.8.8 0 01-.8.8zm4.1 1.7a.7.7 0 01-.8-.8V26a.8.8 0 01.8-.8.9.9 0 01.8.8v7.1a.8.8 0 01-.8.8zm4.1 1.9a.7.7 0 01-.8-.8v-7.1a.8.8 0 01.8-.8.9.9 0 01.8.8V35a.8.8 0 01-.8.8zm4.1 1.7a.8.8 0 01-.8-.8v-7.1a.7.7 0 01.8-.8.8.8 0 01.8.8v7.1a.9.9 0 01-.8.8zm18.5-16.4h-7.9a.7.7 0 01-.8-.8.8.8 0 01.8-.8h7.9a.8.8 0 01.8.8.7.7 0 01-.8.8zm-10.5 0h-1a.7.7 0 01-.8-.8.8.8 0 01.8-.8h1a.8.8 0 01.8.8.7.7 0 01-.8.8z"/><path class="cls-3" d="M53.3 46.7H10.6a.8.8 0 01-.8-.7.9.9 0 01.8-.8h42.7a.8.8 0 01.7.8.7.7 0 01-.7.7z"/><path class="cls-1" d="M0 48.3h65v16.74H0z"/><path class="cls-4" d="M45.4 61.3h-7.2a1.2 1.2 0 01-1.2-1.2 1.3 1.3 0 011.2-1.2h7.2a1.3 1.3 0 011.2 1.2 1.2 1.2 0 01-1.2 1.2zm7.7 0h-.6a1.2 1.2 0 01-1.2-1.2 1.3 1.3 0 011.2-1.2h.6a1.2 1.2 0 011.2 1.2 1.2 1.2 0 01-1.2 1.2zm-34.1 0h-7.1a1.2 1.2 0 01-1.2-1.2 1.2 1.2 0 011.2-1.2H19a1.2 1.2 0 011.2 1.2 1.2 1.2 0 01-1.2 1.2z"/><path d="M31 61.3H18.5a1.2 1.2 0 01-1.2-1.2 1.3 1.3 0 011.2-1.2H31a1.2 1.2 0 011.2 1.2 1.2 1.2 0 01-1.2 1.2zm4.5-6.1H11.9a1.2 1.2 0 110-2.4h23.6a1.2 1.2 0 010 2.4z" fill="#82d400"/><path class="cls-4" d="M53.1 55.2H34.7a1.2 1.2 0 010-2.4h18.4a1.2 1.2 0 010 2.4zm-40.8 0h-.4a1.2 1.2 0 110-2.4h.4a1.2 1.2 0 010 2.4z"/></svg>