<svg version="1.1" id="Capa_1" xmlns="http://www.w3.org/2000/svg" x="0" y="0" viewBox="0 0 65 65" xml:space="preserve"><style>.st0,.st4{fill:none}.st4{stroke:#95a6b1;stroke-width:1.6;stroke-linecap:round;stroke-linejoin:round;stroke-miterlimit:10}.st5{fill:#4da12e}</style><path class="st0" d="M0 48.26h65V65H0z"/><path class="st5" d="M45.38 61.32h-7.17c-.66 0-1.2-.54-1.2-1.2s.54-1.2 1.2-1.2h7.17c.66 0 1.2.54 1.2 1.2s-.54 1.2-1.2 1.2zm7.73 0h-.58c-.66 0-1.2-.54-1.2-1.2s.54-1.2 1.2-1.2h.58c.66 0 1.2.54 1.2 1.2s-.54 1.2-1.2 1.2zm-34.12 0h-7.1c-.66 0-1.2-.54-1.2-1.2s.54-1.2 1.2-1.2h7.1c.66 0 1.2.54 1.2 1.2s-.53 1.2-1.2 1.2z"/><path d="M31.05 61.32H18.53c-.66 0-1.2-.54-1.2-1.2s.54-1.2 1.2-1.2h12.52c.66 0 1.2.54 1.2 1.2s-.54 1.2-1.2 1.2zm4.42-6.11H11.89c-.66 0-1.2-.54-1.2-1.2s.54-1.2 1.2-1.2h23.58c.66 0 1.2.54 1.2 1.2s-.53 1.2-1.2 1.2z" fill="#96d200"/><path class="st5" d="M53.11 55.21H34.75c-.66 0-1.2-.54-1.2-1.2s.54-1.2 1.2-1.2h18.36c.66 0 1.2.54 1.2 1.2s-.54 1.2-1.2 1.2zm-40.79 0h-.43c-.66 0-1.2-.54-1.2-1.2s.54-1.2 1.2-1.2h.43c.66 0 1.2.54 1.2 1.2s-.54 1.2-1.2 1.2z"/><path fill="#95a6b1" stroke="#95a6b1" stroke-width="1.6" stroke-linecap="round" stroke-linejoin="round" stroke-miterlimit="10" d="M7.13 49.25h51.4"/><path class="st4" d="M10.83 14.58v-2.15c0-1.72 1.39-3.12 3.12-3.12h3.62c1.72 0 3.12 1.39 3.12 3.12v36.59m-9.86.22V30.23m28.86 18.94V34.68c0-1.66 1.34-3 3-3h9.12c1.66 0 3 1.34 3 3v14.56"/><path class="st4" d="M35.95 49.17V28.19c0-1.66 1.34-3 3-3h5.22c1.66 0 3 1.34 3 3v3.34M20.68 15.42h1.37c1.44 0 2.6 1.16 2.6 2.6v31"/><path class="st4" d="M20.91 31.07h7.02a2.29 2.29 0 012.29 2.29v7.71a2.29 2.29 0 002.29 2.29h6.92m10.34-2.71l-2.1-4.34-1.94 4.34s-.41.88-.41 1.41c0 1.34 1.08 2.42 2.42 2.42 1.34 0 2.42-1.08 2.42-2.42 0-.53-.39-1.41-.39-1.41zm-7.86-21.74v5.99M54.58 2.45H34.39a5.15 5.15 0 00-5.15 5.15v11.28h20.18a5.15 5.15 0 005.15-5.15V2.45z"/><path id="Trazado_11848_9_" d="M14.99 22.29c0 2.31-1.87 4.18-4.18 4.18-2.31 0-4.18-1.87-4.18-4.18s1.87-4.18 4.18-4.18h0c2.3-.01 4.17 1.85 4.18 4.15v.03z" fill="none" stroke="#19a500" stroke-width="1.6" stroke-linecap="round" stroke-linejoin="round" stroke-miterlimit="10"/><path class="st4" d="M49.3 5.38v10.58m-7.96-5.29h4.39m-4.39 1.95v3.34m4.39 0v-3.34m0 0V5.38m-4.4 7.24V5.38m0 8.32v-1.08"/><path id="Trazado_12473" d="M38.45 7.51c0-1.17-.95-2.11-2.12-2.12h-.16c-1.17 0-2.11 1.05-2.12 2.21v6.33c0 1.17.95 2.11 2.12 2.12h.16c1.17 0 2.11-.95 2.12-2.12" fill="none" stroke="#95a6b1" stroke-width="1.6" stroke-linecap="round" stroke-linejoin="round"/><path id="Rectángulo_3799-2_7_" class="st0" d="M0 0h65v65H0z"/></svg>