<svg id="Capa_1" data-name="Capa 1" xmlns="http://www.w3.org/2000/svg" viewBox="0 0 84 84"><defs><style>.cls-1{fill:#52ae32}</style></defs><path class="cls-1" d="M53.9 46.4a1.3 1.3 0 01-1.4 1.3 1.3 1.3 0 01-1.3-1.3 1.3 1.3 0 011.3-1.4 1.4 1.4 0 011.4 1.4"/><path class="cls-1" d="M14.5 46.8a5 5 0 01-3.6-1.6 1.2 1.2 0 00-1-.5H8.3A1.4 1.4 0 007 46.1v12.3a1.3 1.3 0 001.3 1.4h11.1a7.5 7.5 0 00-1.8 4.8 7.6 7.6 0 0015.1 0 7 7 0 00-1.8-4.8h22.2a7 7 0 00-1.8 4.8 7.6 7.6 0 1013.3-4.8h11.1a1.3 1.3 0 001.3-1.4V46.1a1.4 1.4 0 00-1.3-1.4h-1.6a1.2 1.2 0 00-1 .5 5 5 0 01-3.6 1.6 4.8 4.8 0 010-9.6 5 5 0 013.6 1.6 1.2 1.2 0 001 .5h1.6a1.3 1.3 0 001.3-1.4V25.6a1.3 1.3 0 00-1.3-1.4H64.6a7.5 7.5 0 001.8-4.8 7.6 7.6 0 00-15.1 0 7 7 0 001.8 4.8H30.9a7 7 0 001.8-4.8 7.6 7.6 0 10-13.3 4.8H8.3A1.3 1.3 0 007 25.6v12.3a1.3 1.3 0 001.3 1.4h1.6a1.2 1.2 0 001-.5 5 5 0 013.6-1.6 4.8 4.8 0 110 9.6m0-12.3a7.4 7.4 0 00-4.8 1.7v-9.3h11.4a1.3 1.3 0 001.3-1.3V24a1.2 1.2 0 00-.4-1 4.6 4.6 0 01-1.6-3.6 4.8 4.8 0 014.8-4.8 4.9 4.9 0 014.8 4.8 5 5 0 01-1.6 3.6 1.2 1.2 0 00-.5 1v1.6a1.3 1.3 0 001.4 1.3h11.3v11a1.4 1.4 0 001.4 1.4h1.6a1.2 1.2 0 001-.5 4.8 4.8 0 013.6-1.6 4.9 4.9 0 014.6 3.6 1.3 1.3 0 001.7.9 1.2 1.2 0 00.9-1.6 7.5 7.5 0 00-12-3.9v-9.3h11.3a1.3 1.3 0 001.4-1.3V24a1.2 1.2 0 00-.5-1 5 5 0 01-1.6-3.6 4.9 4.9 0 014.8-4.8 4.8 4.8 0 014.8 4.8A4.6 4.6 0 0162 23a1.2 1.2 0 00-.4 1v1.6a1.3 1.3 0 001.3 1.3h11.4v9.3a7.4 7.4 0 00-4.8-1.7 7.5 7.5 0 000 15 7.4 7.4 0 004.8-1.7v9.3H62.9a1.3 1.3 0 00-1.3 1.3V60a1.2 1.2 0 00.4 1 4.6 4.6 0 011.6 3.6 4.8 4.8 0 01-4.8 4.8 4.9 4.9 0 01-4.8-4.8 5 5 0 011.6-3.6 1.2 1.2 0 00.5-1v-1.6a1.3 1.3 0 00-1.4-1.3H43.4v-9.3a7.6 7.6 0 002.8 1.5 1.4 1.4 0 001.7-1 1.4 1.4 0 00-1-1.7 4.6 4.6 0 01-2.3-1.4 1.2 1.2 0 00-1-.5H42a1.4 1.4 0 00-1.4 1.4v11H29.3a1.3 1.3 0 00-1.4 1.3V60a1.2 1.2 0 00.5 1 5 5 0 011.6 3.6 4.9 4.9 0 01-4.8 4.8 4.8 4.8 0 01-4.8-4.8A4.6 4.6 0 0122 61a1.2 1.2 0 00.4-1v-1.6a1.3 1.3 0 00-1.3-1.3H9.7v-9.3a7.4 7.4 0 004.8 1.7 7.5 7.5 0 000-15"/><path fill="none" d="M0 0h84v84H0z"/></svg>