<svg version="1.1" id="Layer_1" xmlns="http://www.w3.org/2000/svg" x="0" y="0" viewBox="0 0 46 46" xml:space="preserve"><style>.st1{fill:#fff}</style><g id="Group_3195" transform="translate(5042 -1660)"><path fill="none" d="M-5042 1660h46v46h-46z" id="Rectangle_1199"/><g id="icon_ocenza_desktop_redes_sociales_facebook" transform="translate(-5098.253 -1534.527)"><g id="Grupo_6815"><g id="Grupo_6814"><path class="st1" d="M78.8 3238.7c-2.3 0-4.6-.4-6.9-1.2-5.2-1.8-9.4-5.6-11.8-10.6-1.3-2.8-2.1-5.9-2.1-9 0-.7 0-1.4.1-2.1.1-.7.7-1.2 1.4-1.1.7.1 1.2.7 1.1 1.4-.1.6-.1 1.2-.1 1.8 0 2.7.6 5.5 1.8 7.9 4.4 9.1 15.3 12.9 24.3 8.5 4.4-2.1 7.7-5.8 9.3-10.4s1.3-9.5-.8-13.9-5.8-7.7-10.4-9.3c-4.6-1.6-9.5-1.3-13.9.8-.6.3-1.4 0-1.7-.6-.3-.6 0-1.4.6-1.7 5-2.4 10.6-2.7 15.8-.9 5.2 1.8 9.4 5.6 11.8 10.6 2.4 5 2.7 10.6.9 15.8s-5.6 9.4-10.6 11.8c-2.6 1.6-5.7 2.2-8.8 2.2z" id="Trazado_5853"/></g></g><path d="M63.5 3212.6c-1.5 0-2.9-.6-3.9-1.6s-1.6-2.4-1.6-3.9.6-2.8 1.6-3.8 2.4-1.6 3.9-1.6c2.9 0 5.4 2.4 5.4 5.4v.1c0 1.5-.6 2.8-1.6 3.8s-2.3 1.6-3.8 1.6zm0-8.4c-.8 0-1.5.3-2.1.8-.6.5-.9 1.3-.9 2.1s.3 1.5.8 2.1 1.3.9 2.1.9 1.5-.3 2.1-.8c.6-.5.9-1.3.9-2.1v-.1c0-1.6-1.3-2.9-2.9-2.9zm4.2 3z" fill="#efef00" id="Trazado_5854"/><g id="Grupo_6016"><path class="st1" d="M78.2 3228.8c-.7 0-1.2-.6-1.2-1.2v-13.9c0-2.6 2.1-4.8 4.8-4.8h1.5c.7 0 1.2.6 1.2 1.2s-.6 1.2-1.2 1.2h-1.5c-1.2 0-2.3 1-2.3 2.3v13.9c-.1.7-.6 1.3-1.3 1.3z" id="Trazado_4951"/><path class="st1" d="M83.2 3218.6h-9.3c-.7 0-1.2-.6-1.2-1.2s.6-1.2 1.2-1.2h9.3c.7 0 1.2.6 1.2 1.2s-.5 1.2-1.2 1.2z" id="Línea_636"/></g></g></g></svg>