<svg version="1.1" id="Capa_1" xmlns="http://www.w3.org/2000/svg" xmlns:xlink="http://www.w3.org/1999/xlink" x="0" y="0" viewBox="0 0 65 65" xml:space="preserve"><style>.st0,.st1{fill:none}.st1{stroke:#95a6b1;stroke-width:1.6;stroke-linecap:round;stroke-linejoin:round}.st4{fill:#4da12e}</style><g id="Grupo_13213_1_" transform="translate(-.246 -.246)"><path id="Rectángulo_3799-2_8_" class="st0" d="M.25.25h65v65h-65z"/><path class="st1" d="M20.03 25.03v-9.68s.92-9.02 9.61-9.02 9.86 5.85 9.86 6.26.75 1.98-1.25 5.96-.84 6.4 2.09 7.32v4.93s-.25 6.78-6.68 10.2c-6.43 3.42-12.19.74-12.78.41-.58-.33-2.34-1.59-2.34-1.59"/><path class="st1" d="M40.32 25.87c7.7-1.11 15.03 1.06 15.03 1.06s.6-4.7-4.4-9.94-11.47-4.4-11.47-4.4-3.48-2.87-7.55-1.36c-3.41 1.27-5.21 4.96-4.58 8.61.42 2.45 2.03 4.3 3.97 5.69 2.95 2.12 8.38 5.17 7.33 10.61m-1.22-15.49s11.24-.86 17.93 6.28m-9.41-5.35s.65-4.49 4.46-5.14m-16.14-1.2v1.93m-2.7 3.38h1.08m-14.52 6.88c2.38-3.01 5.31-5.16 8.62-2.5 4.07 3.26 2.26 7.26 1.27 8.65-1 1.39-7.33 8.62-17.91 5.73l1.82-2.63"/><path class="st1" d="M18.52 39.82l-6.59 8.44s4.81 2.52 7.77-1.52c2.2-3.01 1.85-5.01 1.85-5.01m4.72.97v2.8c-.17-.06-.4-.03-.57-.03-.95.01-1.74.3-2.4 1-.6.63-.98 1.51-.84 2.39.11.67.72 1.07 1.39 1.07 1.05 0 1.52-.86 1.61-1.56h6.82c-.06 0 .3.95.35 1.01 1 1.47 3.11.1 2.57-1.47-.93-2.68-3.59-2.3-5.9-2.3V42.5"/><path id="Trazado_11848_1_" d="M11.09 31.81c0 1.94 1.58 3.52 3.52 3.52s3.52-1.58 3.52-3.52-1.58-3.52-3.52-3.52h0a3.506 3.506 0 00-3.52 3.49v.03z" fill="none" stroke="#00a800" stroke-width="1.6" stroke-linecap="round" stroke-linejoin="round" stroke-miterlimit="10"/></g><path id="Rectángulo_3799-2_6_" class="st0" d="M0 0h65v65H0z"/><defs><path id="SVGID_1_" d="M0 48.26h65V65H0z"/></defs><clipPath id="SVGID_2_"><use xlink:href="#SVGID_1_" overflow="visible"/></clipPath><g clip-path="url(#SVGID_2_)"><path class="st0" d="M0 48.26h65V65H0z"/><path class="st4" d="M45.38 61.32h-7.17c-.66 0-1.2-.54-1.2-1.2s.54-1.2 1.2-1.2h7.17c.66 0 1.2.54 1.2 1.2s-.54 1.2-1.2 1.2zm7.73 0h-.58c-.66 0-1.2-.54-1.2-1.2s.54-1.2 1.2-1.2h.58c.66 0 1.2.54 1.2 1.2s-.54 1.2-1.2 1.2zm-34.12 0h-7.1c-.66 0-1.2-.54-1.2-1.2s.54-1.2 1.2-1.2h7.1c.66 0 1.2.54 1.2 1.2s-.54 1.2-1.2 1.2z"/><path d="M31.05 61.32H18.53c-.66 0-1.2-.54-1.2-1.2s.54-1.2 1.2-1.2h12.52c.66 0 1.2.54 1.2 1.2s-.54 1.2-1.2 1.2zm4.42-6.11H11.89c-.66 0-1.2-.54-1.2-1.2s.54-1.2 1.2-1.2h23.58c.66 0 1.2.54 1.2 1.2s-.54 1.2-1.2 1.2z" fill="#96d200"/><path class="st4" d="M53.11 55.21H34.75c-.66 0-1.2-.54-1.2-1.2s.54-1.2 1.2-1.2h18.36c.66 0 1.2.54 1.2 1.2s-.54 1.2-1.2 1.2zm-40.79 0h-.43c-.66 0-1.2-.54-1.2-1.2s.54-1.2 1.2-1.2h.43c.66 0 1.2.54 1.2 1.2s-.54 1.2-1.2 1.2z"/></g></svg>