<svg id="Capa_1" data-name="Capa 1" xmlns="http://www.w3.org/2000/svg" viewBox="0 0 65 65"><defs><style>.cls-1{fill:none}.cls-2{fill:#19a301}.cls-3{fill:#95a6b1}</style></defs><path class="cls-1" d="M0 0h65v65H0z" id="Rectángulo_3799" data-name="Rectángulo 3799"/><g id="Grupo_13215" data-name="Grupo 13215"><path class="cls-2" d="M52.2 34a5.6 5.6 0 010-11.1 5.6 5.6 0 110 11.1zm0-9.3a3.8 3.8 0 000 7.5 3.8 3.8 0 100-7.5z" id="Elipse_2037" data-name="Elipse 2037"/><g id="Grupo_13213-2" data-name="Grupo 13213-2"><path class="cls-3" d="M31.5 41a.9.9 0 01-.9-.9.8.8 0 01.8-.9c1.6-.2 7.5-3.6 7.5-8.9s-3.5-6.5-4.8-7.2c-1.6 1.4-6.7 5.2-12.6 1.8-4.4-2.6-4.1-6.3-3.8-7.8s1.8-3.8 3.1-4.3 3.3-6.7 13.3-6.7h.2a19.4 19.4 0 0118.8 15.2.9.9 0 01-.7 1.1.8.8 0 01-1-.7A17.6 17.6 0 0034.1 7.9c-10.3 0-11.6 5.6-11.7 5.8a.8.8 0 01-.8.7 4.4 4.4 0 00-2.1 3.1c-.3 1.4-.4 3.9 2.9 5.8 5.9 3.4 10.8-1.9 10.9-1.9a.8.8 0 011-.2c.2.1 6.4 2.8 6.4 9.1S33.8 40.8 31.5 41z" id="Trazado_11524" data-name="Trazado 11524"/><path class="cls-3" d="M46.9 45.4l-.5-.2a.8.8 0 01-.2-1.2 35 35 0 004.2-8.7.8.8 0 011.1-.5.9.9 0 01.6 1.1 34.8 34.8 0 01-4.4 9.1 1.2 1.2 0 01-.8.4z" id="Trazado_11525" data-name="Trazado 11525"/><path class="cls-3" d="M23.7 37.2a.9.9 0 01-.8-.5.9.9 0 01.4-1.2c.3-.1 7.5-3.4 6.7-11a.9.9 0 01.8-1 .9.9 0 01.9.8c1 8.9-7.5 12.8-7.6 12.9z" id="Trazado_11526" data-name="Trazado 11526"/><path class="cls-3" d="M14.4 45.1h-.2a.8.8 0 01-.7-1 10.7 10.7 0 00-5.8-11.2 1 1 0 01-.5-.8.9.9 0 01.4-.8 2.5 2.5 0 001.2-1.6 2.5 2.5 0 00-.3-1.4.7.7 0 01-.1-.9.8.8 0 01.7-.5 1.8 1.8 0 001.5-.5c.3-.4 0-1.1 0-1.1a.9.9 0 01.3-1 .8.8 0 011-.1c.7.4 1.3.5 1.6.3s.5-1 .5-1.3a.8.8 0 01.7-.8 1 1 0 011 .4c.3.5.7 1.1 1.1 1.2a2.3 2.3 0 001-.3.8.8 0 01.9-.2c.3.2.6.5.6.8v4.5c.6 2.7 3.6 6 3.6 6.1 7.3 6.8 17 4.2 17.1 4.1a.9.9 0 011.1.7.9.9 0 01-.6 1.1c-.4.1-10.8 2.9-18.8-4.7-.2-.2-3.5-3.8-4.2-7v-3.4a1.7 1.7 0 01-1 0 2.1 2.1 0 01-1.2-.5l-.8.9a2.7 2.7 0 01-2 .2 4.9 4.9 0 01-.4 1.1 3.1 3.1 0 01-1.6 1.1 3.5 3.5 0 01.1 1.5 3.2 3.2 0 01-1 1.9 12.3 12.3 0 015.6 12.4.8.8 0 01-.8.8z" id="Trazado_11527" data-name="Trazado 11527"/><path class="cls-3" d="M23 28.5a.8.8 0 01-.9-.7l-.5-3.2a1 1 0 01.8-1 .9.9 0 011 .8l.4 3.1a.8.8 0 01-.7 1z" id="Línea_2326" data-name="Línea 2326"/><path class="cls-3" d="M25.8 28.9a1 1 0 01-.9-.6l-1-2.7a1 1 0 01.6-1.2.9.9 0 011.1.6l1 2.7a.9.9 0 01-.5 1.2z" id="Línea_2327" data-name="Línea 2327"/><path class="cls-3" d="M29.1 29a1.2 1.2 0 01-.8-.4L26.6 26a.8.8 0 01.2-1.2.9.9 0 011.3.2l1.7 2.6a.8.8 0 01-.2 1.2z" id="Línea_2328" data-name="Línea 2328"/><path class="cls-3" d="M21.7 19.7a1.8 1.8 0 01-1.8-1.7 1.8 1.8 0 011.8-1.8 1.8 1.8 0 011.7 1.8 1.8 1.8 0 01-1.7 1.7zm-.1-1.7z" id="Elipse_2038" data-name="Elipse 2038"/><path class="cls-3" d="M41.3 18.1a.8.8 0 01-.7-.4 1 1 0 01.3-1.3l2.4-1.4a.9.9 0 00.4-1.2 1 1 0 00-1.3-.4l-2.5 1.5a.9.9 0 01-1.2-.4.9.9 0 01.3-1.2l2.5-1.4a2.7 2.7 0 112.7 4.7L41.8 18z" id="Trazado_11528" data-name="Trazado 11528"/><path class="cls-3" d="M26.9 16.4h-.6a4.1 4.1 0 01-2.5-1.7 1.1 1.1 0 01.3-1.3.9.9 0 011.2.3 2 2 0 001.3.9 3.2 3.2 0 002.3-.8.9.9 0 011.3.1.9.9 0 01-.2 1.3 5.1 5.1 0 01-3.1 1.2z" id="Trazado_11529" data-name="Trazado 11529"/></g><g id="Grupo_13214" data-name="Grupo 13214"><path class="cls-3" d="M9.9 49.3a1.1 1.1 0 01-.9-.6 1 1 0 01.6-1.2 5.9 5.9 0 002.9-2 6.1 6.1 0 012.2-2c2.8-1.5 4.6.4 5.9 1.8s1.9 2 3 2a.8.8 0 01.9.8.9.9 0 01-.8 1c-2 .1-3.3-1.3-4.4-2.5s-2.3-2.3-3.7-1.5a3.9 3.9 0 00-1.6 1.5 8.7 8.7 0 01-3.8 2.6z" id="Trazado_11530" data-name="Trazado 11530"/><path class="cls-3" d="M37 49.1a4.6 4.6 0 01-3.4-1.6l-.5-.7a4.3 4.3 0 00-2.5-1.9 2.8 2.8 0 00-3 1.6 6.1 6.1 0 01-3.9 2.5.9.9 0 11-.2-1.8 3.8 3.8 0 002.5-1.5 4.5 4.5 0 015-2.5 5.9 5.9 0 013.5 2.5l.5.6a2.7 2.7 0 002.2 1 .9.9 0 01.9.8 1 1 0 01-.8 1z" id="Trazado_11531" data-name="Trazado 11531"/><path class="cls-3" d="M50.8 49.1c-2 0-3.1-1.4-4-2.4s-1.6-1.9-2.8-1.9a3.3 3.3 0 00-2.6 1.7 5.9 5.9 0 01-3.9 2.6 1 1 0 01-1-.8.9.9 0 01.8-1 3.7 3.7 0 002.5-1.7A5.1 5.1 0 0144 43a5.4 5.4 0 014.1 2.5c1 1.1 1.7 1.9 2.8 1.8s1 .3 1 .8a1 1 0 01-.9 1z" id="Trazado_11532" data-name="Trazado 11532"/></g></g><path class="cls-1" d="M0 0h65v65H0z" id="Rectángulo_3799-2" data-name="Rectángulo 3799-2"/><path class="cls-1" d="M0 48.3h65v16.74H0z"/><path class="cls-2" d="M45.4 61.3h-7.2a1.2 1.2 0 01-1.2-1.2 1.3 1.3 0 011.2-1.2h7.2a1.3 1.3 0 011.2 1.2 1.2 1.2 0 01-1.2 1.2zm7.7 0h-.6a1.2 1.2 0 01-1.2-1.2 1.3 1.3 0 011.2-1.2h.6a1.2 1.2 0 011.2 1.2 1.2 1.2 0 01-1.2 1.2zm-34.1 0h-7.1a1.2 1.2 0 01-1.2-1.2 1.2 1.2 0 011.2-1.2H19a1.2 1.2 0 011.2 1.2 1.2 1.2 0 01-1.2 1.2z"/><path d="M31 61.3H18.5a1.2 1.2 0 01-1.2-1.2 1.3 1.3 0 011.2-1.2H31a1.2 1.2 0 011.2 1.2 1.2 1.2 0 01-1.2 1.2zm4.5-6.1H11.9a1.2 1.2 0 110-2.4h23.6a1.2 1.2 0 010 2.4z" fill="#82d400"/><path class="cls-2" d="M53.1 55.2H34.7a1.2 1.2 0 010-2.4h18.4a1.2 1.2 0 010 2.4zm-40.8 0h-.4a1.2 1.2 0 110-2.4h.4a1.2 1.2 0 010 2.4z"/></svg>