<svg version="1.1" id="Capa_1" xmlns="http://www.w3.org/2000/svg" xmlns:xlink="http://www.w3.org/1999/xlink" x="0" y="0" viewBox="0 0 65 65" xml:space="preserve"><style>.st0{fill:none}.st2{fill:#4da12e}.st5{fill:none;stroke:#95a3ad;stroke-width:1.6;stroke-linecap:round;stroke-linejoin:round}</style><path id="Rectángulo_3799-2_3_" class="st0" d="M0 0h65v65H0z"/><defs><path id="SVGID_1_" d="M0 48.26h65V65H0z"/></defs><clipPath id="SVGID_2_"><use xlink:href="#SVGID_1_" overflow="visible"/></clipPath><g clip-path="url(#SVGID_2_)"><path class="st0" d="M0 48.26h65V65H0z"/><path class="st2" d="M45.38 61.32h-7.17c-.66 0-1.2-.54-1.2-1.2s.54-1.2 1.2-1.2h7.17c.66 0 1.2.54 1.2 1.2s-.54 1.2-1.2 1.2zm7.73 0h-.58c-.66 0-1.2-.54-1.2-1.2s.54-1.2 1.2-1.2h.58c.66 0 1.2.54 1.2 1.2s-.54 1.2-1.2 1.2zm-34.12 0h-7.1c-.66 0-1.2-.54-1.2-1.2s.54-1.2 1.2-1.2h7.1c.66 0 1.2.54 1.2 1.2s-.54 1.2-1.2 1.2z"/><path d="M31.05 61.32H18.53c-.66 0-1.2-.54-1.2-1.2s.54-1.2 1.2-1.2h12.52c.66 0 1.2.54 1.2 1.2s-.54 1.2-1.2 1.2zm4.42-6.11H11.89c-.66 0-1.2-.54-1.2-1.2s.54-1.2 1.2-1.2h23.58c.66 0 1.2.54 1.2 1.2s-.54 1.2-1.2 1.2z" fill="#96d200"/><path class="st2" d="M53.11 55.21H34.75c-.66 0-1.2-.54-1.2-1.2s.54-1.2 1.2-1.2h18.36c.66 0 1.2.54 1.2 1.2s-.54 1.2-1.2 1.2zm-40.79 0h-.43c-.66 0-1.2-.54-1.2-1.2s.54-1.2 1.2-1.2h.43c.66 0 1.2.54 1.2 1.2s-.54 1.2-1.2 1.2z"/></g><path id="Rectángulo_3799-2" class="st0" d="M0 0h65v65H0z"/><g id="Grupo_17105"><path id="Trazado_11848_2_" d="M19.96 21.15c0 2.31-1.87 4.18-4.18 4.18s-4.18-1.87-4.18-4.18 1.87-4.18 4.18-4.18h0c2.3-.01 4.17 1.85 4.18 4.15v.03z" fill="none" stroke="#00a800" stroke-width="1.6" stroke-linecap="round" stroke-linejoin="round" stroke-miterlimit="10"/><g id="Grupo_17104-2"><path id="Trazado_17868" class="st5" d="M17.15 33.65s-4.04 6.31-2.69 11.74c0 0 9.74-.19 12.97-2.83"/><path id="Trazado_17869" class="st5" d="M47.14 33.65s4.04 6.31 2.69 11.74c0 0-10.17-.16-13.24-3.34"/><path id="Trazado_17870" class="st5" d="M30.94 31.46c-1.02 3.91-1.98 6.92-3.25 10.75-.6 1.82-1 4.47.67 5.75 2.01 1.54 4.69 1.27 6.7.53 2.5-.92 1.96-3.82 1.52-5.91-.83-4.03-2.22-7.09-3.26-11.07"/><circle id="Elipse_2601" class="st5" cx="32.36" cy="27.06" r="4.23"/><path id="Trazado_17871" class="st5" d="M21.92 20.31c1.54.15 6.23.84 7.24 4"/><path id="Trazado_17872" class="st5" d="M29.49 30.16c-4.82 6.76-15.97 3.88-19.06-3.1.25-.54.54-1.05.88-1.54"/><path id="Trazado_17873" class="st5" d="M35.51 30.16c4.82 6.76 15.97 3.88 19.06-3.1a11.968 11.968 0 00-10.99-6.78s-6.52.25-7.72 4.03"/><path id="Trazado_17874" class="st5" d="M39.47 21.02c1.1-4.87-2-13.7-7.11-15.97-.75-.33-2.1 1.18-2.56 1.63a15.568 15.568 0 00-2.62 3.57 20.187 20.187 0 00-2.27 10.59"/><path id="Línea_3576" class="st5" d="M32.08 42.13v6.6"/></g></g><g id="Grupo_17108"><path id="Rectángulo_5379" class="st0" d="M0 48.26h65V65H0z"/></g></svg>