<svg version="1.1" id="Capa_1" xmlns="http://www.w3.org/2000/svg" x="0" y="0" viewBox="0 0 47 47" xml:space="preserve"><style>.st2{fill:none;stroke:#fff;stroke-width:1.5;stroke-linecap:round;stroke-linejoin:round}</style><g id="Capa_1_1_"><g id="Grupo_13373"><path id="Trazado_11772" class="st2" d="M16.01 8.01a3.267 3.267 0 01-5.94 2.72 3.267 3.267 0 011.61-4.33c1.64-.75 3.57-.04 4.33 1.61 0-.01 0 0 0 0z"/><g id="Grupo_13370"><path id="Trazado_11773" class="st2" d="M11.28 16.28v18.14c0 3.14 2.54 5.68 5.68 5.68h9.02l10.89-.02V7.29H19.32"/></g><g id="Grupo_13371"><path id="Trazado_6132" class="st2" d="M31.65 18.09c-1.23 2.36-4.48 3.09-4.48 3.09s-1.26-3.09-.03-5.44 4.48-3.09 4.48-3.09 1.26 3.08.03 5.44z"/><path id="Línea_1426" class="st2" d="M27.17 21.18l2.23-4.27"/></g><g id="Grupo_13372"><circle id="Elipse_2271" class="st2" cx="24.08" cy="26.28" r="2.99"/><path id="Trazado_11774_1_" class="st2" d="M26.61 18.43c-.78-.18-2.11-.27-2.53-.27-.42.01-.84.04-1.26.11l-.83 1.88a2.13 2.13 0 01-2.19 1.26l-2.05-.22c-.53.65-.95 1.39-1.25 2.17l1.22 1.66c.55.75.55 1.78 0 2.53l-1.22 1.66c.3.78.72 1.52 1.25 2.17l2.05-.22c.93-.1 1.81.41 2.19 1.26l.83 1.88c.83.14 1.68.14 2.51 0l.83-1.88c.38-.85 1.26-1.36 2.19-1.26l2.05.22c.53-.65.95-1.39 1.25-2.17l-1.22-1.66c-.55-.75-.55-1.78 0-2.53l1.22-1.66c-.2-.72-1.23-2.35-2.06-3.19"/></g></g><path id="Rectángulo_4657" fill="none" d="M0 0h47v47H0z"/></g></svg>