<svg version="1.1" id="Capa_1" xmlns="http://www.w3.org/2000/svg" xmlns:xlink="http://www.w3.org/1999/xlink" x="0" y="0" viewBox="0 0 65 65" xml:space="preserve"><style>.st1{fill:none}.st2{fill:#4da12e}.st4{fill:none;stroke:#95a6b1;stroke-width:1.6;stroke-linecap:round;stroke-linejoin:round}</style><g id="Capa_1_1_"><defs><path id="SVGID_1_" d="M0 48.26h65V65H0z"/></defs><clipPath id="SVGID_2_"><use xlink:href="#SVGID_1_" overflow="visible"/></clipPath><g clip-path="url(#SVGID_2_)"><path class="st1" d="M0 48.26h65V65H0z"/><path class="st2" d="M45.38 61.32h-7.17c-.66 0-1.2-.54-1.2-1.2s.54-1.2 1.2-1.2h7.17c.66 0 1.2.54 1.2 1.2s-.54 1.2-1.2 1.2zm7.73 0h-.58c-.66 0-1.2-.54-1.2-1.2s.54-1.2 1.2-1.2h.58c.66 0 1.2.54 1.2 1.2s-.54 1.2-1.2 1.2zm-34.12 0h-7.1c-.66 0-1.2-.54-1.2-1.2s.54-1.2 1.2-1.2h7.1c.66 0 1.2.54 1.2 1.2s-.54 1.2-1.2 1.2z"/><path d="M31.05 61.32H18.53c-.66 0-1.2-.54-1.2-1.2s.54-1.2 1.2-1.2h12.52c.66 0 1.2.54 1.2 1.2s-.54 1.2-1.2 1.2zm4.42-6.11H11.89c-.66 0-1.2-.54-1.2-1.2s.54-1.2 1.2-1.2h23.58c.66 0 1.2.54 1.2 1.2s-.54 1.2-1.2 1.2z" fill="#96d200"/><path class="st2" d="M53.11 55.21H34.75c-.66 0-1.2-.54-1.2-1.2s.54-1.2 1.2-1.2h18.36c.66 0 1.2.54 1.2 1.2s-.54 1.2-1.2 1.2zm-40.79 0h-.43c-.66 0-1.2-.54-1.2-1.2s.54-1.2 1.2-1.2h.43c.66 0 1.2.54 1.2 1.2s-.54 1.2-1.2 1.2z"/></g><path id="Rectángulo_3799-2_1_" class="st1" d="M0 0h65v65H0z"/><path class="st4" d="M10.82 16.33v3.16h43.36v-9.01c0-2.11-1.71-3.81-3.81-3.81H16.35M44.84 26.6h4.55l4.79-7.08H10.82l4.79 7.08h5.32m20.52-13.49h6M16.33 36.18c3.23 0 3.23 3.53 6.47 3.53 3.23 0 3.23-3.53 6.46-3.53s3.23 3.53 6.47 3.53 3.24-3.53 6.47-3.53c3.24 0 3.24 3.53 6.47 3.53M16.33 44.1c3.23 0 3.23 3.53 6.47 3.53 3.23 0 3.23-3.53 6.46-3.53s3.23 3.53 6.47 3.53 3.24-3.53 6.47-3.53c3.24 0 3.24 3.53 6.47 3.53"/><path class="st4" d="M41.57 19.54c0 1.61-1.77 1.61-1.77 3.22s1.77 1.61 1.77 3.22-1.77 1.61-1.77 3.23 1.77 1.61 1.77 3.23m-16.59-12.9c0 1.61-1.77 1.61-1.77 3.22s1.77 1.61 1.77 3.22-1.77 1.61-1.77 3.23 1.77 1.61 1.77 3.23"/><path id="Trazado_12513_2_" class="st4" d="M29.91 26.44c.54-1 1.15-1.96 1.84-2.86a.938.938 0 011.5 0c.93 1.24 2.39 3.39 2.39 4.57a3.145 3.145 0 01-4.08 3"/><path id="Trazado_12513_3_" class="st4" d="M35.09 26.44c-.54-1-1.15-1.96-1.84-2.86a.938.938 0 00-1.5 0c-.93 1.24-2.39 3.39-2.39 4.57a3.145 3.145 0 004.08 3"/><path id="Trazado_12511_2_" d="M14.24 8.66c.38.84.44 1.79.15 2.66a3.65 3.65 0 01-1.94 2.17c-1.83.84-3.99.03-4.83-1.8h0a3.631 3.631 0 011.79-4.83c1.83-.83 3.99-.03 4.83 1.8z" fill="none" stroke="#19a500" stroke-width="1.6" stroke-miterlimit="10"/></g></svg>