<svg version="1.1" id="Capa_1" xmlns="http://www.w3.org/2000/svg" xmlns:xlink="http://www.w3.org/1999/xlink" x="0" y="0" viewBox="0 0 65 65" xml:space="preserve"><style>.st1{fill:none}.st2{fill:#4da12e}.st4{fill:none;stroke:#95a6b1;stroke-width:1.6;stroke-linecap:round;stroke-linejoin:round}</style><g id="Capa_1_1_"><defs><path id="SVGID_1_" d="M0 48.26h65V65H0z"/></defs><clipPath id="SVGID_2_"><use xlink:href="#SVGID_1_" overflow="visible"/></clipPath><g clip-path="url(#SVGID_2_)"><path class="st1" d="M0 48.26h65V65H0z"/><path class="st2" d="M45.38 61.32h-7.17c-.66 0-1.2-.54-1.2-1.2s.54-1.2 1.2-1.2h7.17c.66 0 1.2.54 1.2 1.2s-.54 1.2-1.2 1.2zm7.73 0h-.58c-.66 0-1.2-.54-1.2-1.2s.54-1.2 1.2-1.2h.58c.66 0 1.2.54 1.2 1.2s-.54 1.2-1.2 1.2zm-34.12 0h-7.1c-.66 0-1.2-.54-1.2-1.2s.54-1.2 1.2-1.2h7.1c.66 0 1.2.54 1.2 1.2s-.54 1.2-1.2 1.2z"/><path d="M31.05 61.32H18.53c-.66 0-1.2-.54-1.2-1.2s.54-1.2 1.2-1.2h12.52c.66 0 1.2.54 1.2 1.2s-.54 1.2-1.2 1.2zm4.42-6.11H11.89c-.66 0-1.2-.54-1.2-1.2s.54-1.2 1.2-1.2h23.58c.66 0 1.2.54 1.2 1.2s-.54 1.2-1.2 1.2z" fill="#96d200"/><path class="st2" d="M53.11 55.21H34.75c-.66 0-1.2-.54-1.2-1.2s.54-1.2 1.2-1.2h18.36c.66 0 1.2.54 1.2 1.2s-.54 1.2-1.2 1.2zm-40.79 0h-.43c-.66 0-1.2-.54-1.2-1.2s.54-1.2 1.2-1.2h.43c.66 0 1.2.54 1.2 1.2s-.54 1.2-1.2 1.2z"/></g><path id="Rectángulo_3799-2_4_" class="st1" d="M0 0h65v65H0z"/><path class="st4" d="M26.23 23.95v-6.13h12.54v5.77"/><path class="st4" d="M28.91 13.1h7.17v4.73h-7.17zm14.6-6.59c0-.89-.72-1.61-1.61-1.61H23.09c-.89 0-1.61.72-1.61 1.61v.38c0 .89.72 1.61 1.61 1.61H41.9c.89 0 1.61-.72 1.61-1.61v-.38zM26.23 41.95c0 3.21 2.61 5.82 5.82 5.82h.91c3.21 0 5.82-2.61 5.82-5.82M28.91 13.1l-5.82-4.61m13 4.61l5.82-4.61m4.66 19.46h-3.85m-.21 9.95h10.24v-2.98m5.46-6.97h1.95v9.95h-7.41v-3.84m0 1v4.52M22.53 27.97H12.39v9.96h9.92"/><path class="st4" d="M4.88 27.97h7.52v9.95H4.88zm7.52-1.68v13.29"/><path id="Trazado_12511_4_" d="M55.69 26.22c.38.84.44 1.79.15 2.66a3.65 3.65 0 01-1.94 2.17c-1.83.84-3.99.03-4.83-1.8h0a3.644 3.644 0 011.8-4.83c1.83-.83 3.99-.03 4.82 1.8z" fill="none" stroke="#19a500" stroke-width="1.6" stroke-miterlimit="10"/><path class="st4" d="M39.24 33.13l-8.72 5.42c-.88.55-2.04.28-2.59-.6l-2.06-3.32a1.88 1.88 0 01.6-2.59l8.72-5.42a1.88 1.88 0 012.59.6l2.06 3.32c.55.89.28 2.05-.6 2.59zm-11.78-1.65l3.89 6.33m3.23-10.76l3.89 6.33m2.67-5.97l-2.23 1.43m-12.19 7.5l-1.35.84s-1.26.92-2.17.12l-.79-.66"/><circle class="st4" cx="32.5" cy="32.73" r="10.82"/></g></svg>