<svg version="1.1" id="Capa_1" xmlns="http://www.w3.org/2000/svg" xmlns:xlink="http://www.w3.org/1999/xlink" x="0" y="0" viewBox="0 0 65 65" xml:space="preserve"><style>.st1{fill:none}.st2{fill:#4da12e}.st4{fill:none;stroke:#95a6b1;stroke-width:1.6;stroke-linecap:round;stroke-linejoin:round}</style><g id="Capa_1_1_"><defs><path id="SVGID_1_" d="M0 48.26h65V65H0z"/></defs><clipPath id="SVGID_2_"><use xlink:href="#SVGID_1_" overflow="visible"/></clipPath><g clip-path="url(#SVGID_2_)"><path class="st1" d="M0 48.26h65V65H0z"/><path class="st2" d="M45.38 61.32h-7.17c-.66 0-1.2-.54-1.2-1.2s.54-1.2 1.2-1.2h7.17c.66 0 1.2.54 1.2 1.2s-.54 1.2-1.2 1.2zm7.73 0h-.58c-.66 0-1.2-.54-1.2-1.2s.54-1.2 1.2-1.2h.58c.66 0 1.2.54 1.2 1.2s-.54 1.2-1.2 1.2zm-34.12 0h-7.1c-.66 0-1.2-.54-1.2-1.2s.54-1.2 1.2-1.2h7.1c.66 0 1.2.54 1.2 1.2s-.54 1.2-1.2 1.2z"/><path d="M31.05 61.32H18.53c-.66 0-1.2-.54-1.2-1.2s.54-1.2 1.2-1.2h12.52c.66 0 1.2.54 1.2 1.2s-.54 1.2-1.2 1.2zm4.42-6.11H11.89c-.66 0-1.2-.54-1.2-1.2s.54-1.2 1.2-1.2h23.58c.66 0 1.2.54 1.2 1.2s-.54 1.2-1.2 1.2z" fill="#96d200"/><path class="st2" d="M53.11 55.21H34.75c-.66 0-1.2-.54-1.2-1.2s.54-1.2 1.2-1.2h18.36c.66 0 1.2.54 1.2 1.2s-.54 1.2-1.2 1.2zm-40.79 0h-.43c-.66 0-1.2-.54-1.2-1.2s.54-1.2 1.2-1.2h.43c.66 0 1.2.54 1.2 1.2s-.54 1.2-1.2 1.2z"/></g><path id="Rectángulo_3799-2_3_" class="st1" d="M0 0h65v65H0z"/><path class="st4" d="M18.1 29.81h28.8m-2.57 15.13v2.98H20.67V29.81h23.66v2.67m-17.25-2.54V47.8m5.67-17.86V47.8m5.41-17.86V47.8m-20.06.14h28.8"/><g id="Grupo_13390" transform="translate(284.316 67.688)"><g id="Grupo_13389"><path id="Línea_2376_1_" class="st4" d="M-251.6-51.82v13.97"/><path id="Línea_2377_1_" class="st4" d="M-241.14-56.46l-10.35 10.35"/><path id="Línea_2378_1_" class="st4" d="M-261.07-49.35l9.35 6.35"/><path id="Trazado_11782_1_" class="st4" d="M-238.69-51.14c-2.22 2.17-5.78 2.14-7.95-.08a5.626 5.626 0 010-7.87c2.19-2.19 11.76-3.81 11.76-3.81s-1.61 9.57-3.81 11.76z"/><g id="Grupo_13388" transform="translate(0 9.185)"><path id="Línea_2379_1_" class="st4" d="M-262.77-59.61l5.74 3.9"/><path id="Trazado_11783_1_" class="st4" d="M-257.84-62.69a5.349 5.349 0 01.78 7.52 5.341 5.341 0 01-6.76 1.29c-2.24-1.52-4.95-9.79-4.95-9.79s8.69-.55 10.93.98z"/></g></g></g><path id="Trazado_12511_3_" d="M47.86 36.99c.38.84.44 1.79.15 2.66a3.65 3.65 0 01-1.94 2.17c-1.83.84-3.99.03-4.83-1.8h0a3.644 3.644 0 011.8-4.83c1.82-.83 3.98-.03 4.82 1.8z" fill="none" stroke="#19a500" stroke-width="1.6" stroke-miterlimit="10"/></g></svg>