<svg xmlns="http://www.w3.org/2000/svg" xmlns:xlink="http://www.w3.org/1999/xlink" viewBox="0 0 65 65"><style>.st0{fill:none}.st1,.st6,.st7{fill:none;stroke-linecap:round;stroke-linejoin:round}.st1{stroke:#4c9f2e;stroke-width:2.4;stroke-miterlimit:10}.st6,.st7{stroke:#95a6b1;stroke-width:1.6}.st7{stroke-miterlimit:10}</style><symbol id="Textura-65px_2" viewBox="-32.5 -8.37 65 16.74"><path class="st0" d="M-32.5-8.37h65V8.37h-65z"/><path class="st1" d="M5.71-3.49h7.17m7.15 0h.58m-41.22 0h7.1"/><path d="M-13.97-3.49h12.52m-19.16 6.11H2.97" stroke="#94d040" stroke-width="2.4" stroke-miterlimit="10" fill="none" stroke-linecap="round" stroke-linejoin="round"/><path class="st1" d="M2.25 2.62h18.36m-41.22 0h.43"/></symbol><g id="Capa_1"><use xlink:href="#Textura-65px_2" width="65" height="16.74" x="-32.5" y="-8.37" transform="matrix(.9974 0 0 -.9976 32.5 56.65)" overflow="visible"/><path class="st6" d="M48.16 12.5c-3.77-3.4-8.76-5.46-14.24-5.46-1.24 0-2.46.11-3.65.31l-1.57.37m-13.68 9.17l-1.06 2.19c-1.3 2.75-2.03 5.83-2.03 9.08 0 4.41 1.34 8.51 3.64 11.91"/><path class="st6" d="M16.31 34.52l-.77 5.55-4.82-2.93m31.4 10.52c7.37-3.09 11.61-10.5 11.01-18.05"/><path class="st6" d="M50.38 33.46l2.76-3.85 2.46 4.09M33.77 9.96l-5.14-2.21 4.1-3.87"/><path class="st7" d="M39.61 43.63H26.79V23.65a6.41 6.41 0 0112.82 0v19.98zm0-11.74H26.78m12.83 7H26.78"/><path class="st7" d="M31.14 17.54v-3c0-.23.18-.41.41-.41h3.29c.23 0 .41.18.41.41v3.04"/><path d="M23.95 9.31c.37.8.39 1.67.13 2.44-.28.85-.9 1.59-1.79 1.99-1.68.77-3.67.03-4.43-1.65s-.03-3.67 1.65-4.43c1.69-.77 3.67-.03 4.44 1.65z" fill="none" stroke="#00a800" stroke-width="1.6" stroke-linecap="round" stroke-linejoin="round" stroke-miterlimit="10"/><path class="st0" d="M0 0h65v65H0z"/></g></svg>