<svg version="1.1" id="Capa_1" xmlns="http://www.w3.org/2000/svg" x="0" y="0" viewBox="0 0 65 65" xml:space="preserve"><style>.st0{fill:none}.st1{fill:#4da12e}.st3{fill:none;stroke:#95a6b1;stroke-width:1.6;stroke-linecap:round;stroke-linejoin:round;stroke-miterlimit:10}</style><path id="Rectángulo_3799-2_3_" class="st0" d="M0 0h65v65H0z"/><path class="st0" d="M0 48.26h65V65H0z"/><path class="st1" d="M45.38 61.32h-7.17c-.66 0-1.2-.54-1.2-1.2s.54-1.2 1.2-1.2h7.17c.66 0 1.2.54 1.2 1.2s-.54 1.2-1.2 1.2zm7.73 0h-.58c-.66 0-1.2-.54-1.2-1.2s.54-1.2 1.2-1.2h.58c.66 0 1.2.54 1.2 1.2s-.54 1.2-1.2 1.2zm-34.12 0h-7.1c-.66 0-1.2-.54-1.2-1.2s.54-1.2 1.2-1.2h7.1c.66 0 1.2.54 1.2 1.2s-.54 1.2-1.2 1.2z"/><path d="M31.05 61.32H18.53c-.66 0-1.2-.54-1.2-1.2s.54-1.2 1.2-1.2h12.52c.66 0 1.2.54 1.2 1.2s-.54 1.2-1.2 1.2zm4.42-6.11H11.89c-.66 0-1.2-.54-1.2-1.2s.54-1.2 1.2-1.2h23.58c.66 0 1.2.54 1.2 1.2s-.53 1.2-1.2 1.2z" fill="#96d200"/><path class="st1" d="M53.11 55.21H34.75c-.66 0-1.2-.54-1.2-1.2s.54-1.2 1.2-1.2h18.36c.66 0 1.2.54 1.2 1.2s-.54 1.2-1.2 1.2zm-40.79 0h-.43c-.66 0-1.2-.54-1.2-1.2s.54-1.2 1.2-1.2h.43c.66 0 1.2.54 1.2 1.2s-.54 1.2-1.2 1.2z"/><path class="st3" d="M47.1 11.33l7.69 8.42a3.78 3.78 0 01-.24 5.34l-3.82 3.23a3.78 3.78 0 01-5.34-.24l-5.45-5.97m-2.28-2.49l-4.78-5.24 5.15-4.7m6.91 17.92l9.45-8.29m-1.11-3.69l-1.19 1.17-4.99-5.46 1.37-1.25c.77-.7 1.96-.65 2.67.12l2.51 2.68c.69.77.4 2.04-.37 2.74zm-15.62 4l-5.63.98s-1.64-2.33-4.16-1.5l1.12 7.01s3.09-.25 3.58-2.75l7.36-1.25m-4.98-5.46l5.03-4.73"/><g id="Group_297_2_" transform="translate(2471.883 192.836)"><path id="Path_356_2_" d="M-2425.22-185.95a3.53 3.53 0 11-3.53-3.53 3.517 3.517 0 013.53 3.5v.03z" fill="none" stroke="#19a500" stroke-width="1.6" stroke-linecap="round" stroke-linejoin="round" stroke-miterlimit="10"/></g><path d="M25.91 24.29s-4.59 2.94-3.81 9.8m3.81-12.85s-6.94-1.72-9.91 6.02" stroke-dasharray="2,3" fill="none" stroke="#95a6b1" stroke-width="1.6" stroke-linecap="round" stroke-linejoin="round" stroke-miterlimit="10"/><path id="Línea_2376_5_" class="st3" d="M19.62 36.68v11.78"/><path id="Línea_2377_8_" class="st3" d="M13.11 32.52l6.42 6.42"/><path id="Línea_2378_8_" class="st3" d="M25.26 39.28l-5.54 3.76"/><path id="Trazado_11782_2_" class="st3" d="M11.59 35.82a3.489 3.489 0 004.93-.07 3.496 3.496 0 000-4.86c-1.36-1.36-7.29-2.36-7.29-2.36s1 5.93 2.36 7.29z"/><path id="Trazado_11783_10_" class="st3" d="M23.25 36.69a3.17 3.17 0 00-.45 4.45 3.155 3.155 0 003.99.76c1.33-.9 2.93-5.8 2.93-5.8s-5.14-.31-6.47.59z"/><path id="Línea_2380_5_" class="st3" d="M25.05 48.49H13.72"/><g><path id="Línea_2376_4_" class="st3" d="M43.27 36.68v11.78"/><path id="Línea_2378_7_" class="st3" d="M48.9 39.28l-5.53 3.76"/><path id="Trazado_11783_9_" class="st3" d="M46.9 36.69a3.17 3.17 0 00-.45 4.45 3.155 3.155 0 003.99.76c1.33-.9 2.93-5.8 2.93-5.8s-5.14-.31-6.47.59z"/><path id="Línea_2380_4_" class="st3" d="M48.7 48.49H37.36"/></g><g><path id="Línea_2378_6_" class="st3" d="M37.73 39.28l5.54 3.76"/><path id="Trazado_11783_8_" class="st3" d="M39.73 36.69a3.17 3.17 0 01.45 4.45 3.155 3.155 0 01-3.99.76c-1.33-.9-2.93-5.8-2.93-5.8s5.15-.31 6.47.59z"/></g></svg>