<svg data-name="Capa 1" xmlns="http://www.w3.org/2000/svg" width="65" height="65"><defs><clipPath id="a"><path data-name="Rectángulo 5767" transform="translate(0 48.26)" fill="none" d="M0 0h65v16.74H0z"/></clipPath></defs><g data-name="Grupo 20308"><g data-name="Grupo 20307"><g data-name="Grupo 20306"><g data-name="Grupo 20305"><g data-name="Grupo 20304" clip-path="url(#a)"><g data-name="Grupo 20295"><path data-name="Rectángulo 5766" fill="none" d="M0 48.26h65V65H0z"/></g><g data-name="Grupo 20303"><g data-name="Grupo 20296"><path data-name="Trazado 19788" d="M45.38 61.32h-7.17a1.2 1.2 0 110-2.4h7.17a1.2 1.2 0 010 2.4z" fill="#4da12e"/></g><g data-name="Grupo 20297"><path data-name="Trazado 19789" d="M53.11 61.32h-.58a1.2 1.2 0 010-2.4h.58a1.2 1.2 0 010 2.4z" fill="#4da12e"/></g><g data-name="Grupo 20298"><path data-name="Trazado 19790" d="M18.99 61.32h-7.1a1.2 1.2 0 010-2.4h7.1a1.2 1.2 0 010 2.4z" fill="#4da12e"/></g><g data-name="Grupo 20299"><path data-name="Trazado 19791" d="M31.05 61.32H18.53a1.2 1.2 0 110-2.4h12.52a1.2 1.2 0 110 2.4z" fill="#96d200"/></g><g data-name="Grupo 20300"><path data-name="Trazado 19792" d="M35.47 55.21H11.89a1.2 1.2 0 110-2.4h23.58a1.2 1.2 0 010 2.4z" fill="#96d200"/></g><g data-name="Grupo 20301"><path data-name="Trazado 19793" d="M53.11 55.21H34.75a1.2 1.2 0 110-2.4h18.36a1.2 1.2 0 110 2.4z" fill="#4da12e"/></g><g data-name="Grupo 20302"><path data-name="Trazado 19794" d="M12.32 55.21h-.43a1.2 1.2 0 110-2.4h.43a1.2 1.2 0 110 2.4z" fill="#4da12e"/></g></g></g></g></g></g><g data-name="Grupo 12949"><g data-name="Grupo 11514"><g data-name="Grupo 15064" fill="none" stroke-width="1.6"><path data-name="Trazado 12510" d="M37.206 19.053c-.7 1.32-1.72 3.13-5.46 3.57" stroke="#95a6b1" stroke-linecap="round" stroke-linejoin="round"/><path data-name="Trazado 12511" d="M26.736 18.243a3.64 3.64 0 11-6.62 3.03h0a3.64 3.64 0 116.62-3.03z" stroke="#19a500" stroke-miterlimit="10"/><path data-name="Trazado 12512" d="M29.826 25.263a7.893 7.893 0 01-1.86-.87" stroke="#95a6b1" stroke-linecap="round" stroke-linejoin="round"/><path data-name="Trazado 12513" d="M25.676 13.4a53.96 53.96 0 014.64-7.21 2.37 2.37 0 013.3-.49 2.277 2.277 0 01.49.49c2.34 3.14 6.03 8.54 6.03 11.52a7.919 7.919 0 01-7.92 7.92h0a7.984 7.984 0 01-2.38-.36" stroke="#95a6b1" stroke-linecap="round" stroke-linejoin="round"/><path data-name="Trazado 12514" d="M45.226 28.653l-3.48 18.49h-18.49l-3.48-18.49m1.03 4.71c1.95 0 1.95 1.48 3.9 1.48s1.95-1.48 3.9-1.48 1.95 1.48 3.9 1.48 1.95-1.48 3.9-1.48 1.95 1.48 3.9 1.48 1.95-1.48 3.9-1.48" stroke="#95a6b1" stroke-linecap="round" stroke-linejoin="round"/></g></g></g><path data-name="Rectángulo 3799-2" fill="none" d="M0 0h65v65H0z"/></g></svg>