<svg version="1.1" id="Capa_1" xmlns="http://www.w3.org/2000/svg" xmlns:xlink="http://www.w3.org/1999/xlink" x="0" y="0" viewBox="0 0 65 65" xml:space="preserve"><style>.st1{fill:none}.st2{fill:#4da12e}.st4{fill:none;stroke:#95a6b1;stroke-width:1.6;stroke-linecap:round;stroke-linejoin:round}</style><g id="Capa_1_1_"><defs><path id="SVGID_1_" d="M0 48.26h65V65H0z"/></defs><clipPath id="SVGID_2_"><use xlink:href="#SVGID_1_" overflow="visible"/></clipPath><g clip-path="url(#SVGID_2_)"><path class="st1" d="M0 48.26h65V65H0z"/><path class="st2" d="M45.38 61.32h-7.17c-.66 0-1.2-.54-1.2-1.2s.54-1.2 1.2-1.2h7.17c.66 0 1.2.54 1.2 1.2s-.54 1.2-1.2 1.2zm7.73 0h-.58c-.66 0-1.2-.54-1.2-1.2s.54-1.2 1.2-1.2h.58c.66 0 1.2.54 1.2 1.2s-.54 1.2-1.2 1.2zm-34.12 0h-7.1c-.66 0-1.2-.54-1.2-1.2s.54-1.2 1.2-1.2h7.1c.66 0 1.2.54 1.2 1.2s-.54 1.2-1.2 1.2z"/><path d="M31.05 61.32H18.53c-.66 0-1.2-.54-1.2-1.2s.54-1.2 1.2-1.2h12.52c.66 0 1.2.54 1.2 1.2s-.54 1.2-1.2 1.2zm4.42-6.11H11.89c-.66 0-1.2-.54-1.2-1.2s.54-1.2 1.2-1.2h23.58c.66 0 1.2.54 1.2 1.2s-.54 1.2-1.2 1.2z" fill="#96d200"/><path class="st2" d="M53.11 55.21H34.75c-.66 0-1.2-.54-1.2-1.2s.54-1.2 1.2-1.2h18.36c.66 0 1.2.54 1.2 1.2s-.54 1.2-1.2 1.2zm-40.79 0h-.43c-.66 0-1.2-.54-1.2-1.2s.54-1.2 1.2-1.2h.43c.66 0 1.2.54 1.2 1.2s-.54 1.2-1.2 1.2z"/></g><path id="Rectángulo_3799-2_2_" class="st1" d="M0 0h65v65H0z"/><path id="Trazado_12511_5_" class="st4" d="M25.5 31.81c.48-.17.99-.33 1.52-.47 6.62-1.74 14.44-.06 17.47 3.75.28.35.51.71.69 1.07"/><path id="Trazado_12511_1_" d="M48.98 13.58c.32.7.36 1.49.12 2.22-.26.8-.85 1.46-1.62 1.81-1.53.7-3.33.03-4.03-1.5h0c-.7-1.53-.03-3.33 1.5-4.03 1.53-.7 3.33-.02 4.03 1.5z" fill="none" stroke="#19a500" stroke-width="1.6" stroke-miterlimit="10"/><g id="Grupo_13390_1_" transform="translate(284.316 67.688)"><g id="Grupo_13389_1_"><path id="Línea_2376_2_" class="st4" d="M-251.07-53.58v16.1"/><path id="Línea_2377_2_" class="st4" d="M-245.82-51.57l-5.15 4.55"/><path id="Trazado_11782_2_" class="st4" d="M-242.99-50.36a5.44 5.44 0 01-3.28-9.21c2.12-2.12 11.37-3.68 11.37-3.68s-.45 2.69-1.21 5.5"/><path id="Línea_2378_2_" class="st4" d="M-260.24-48.94l9.05 6.14"/><g id="Grupo_13388_1_" transform="translate(0 9.185)"><path id="Línea_2379_2_" class="st4" d="M-261.88-59.17l5.55 3.77"/><path id="Trazado_11783_2_" class="st4" d="M-257.11-62.15c2.21 1.8 2.55 5.05.75 7.27a5.158 5.158 0 01-6.53 1.25c-2.16-1.47-4.78-9.47-4.78-9.47s8.4-.52 10.56.95z"/></g></g></g><g id="Grupo_12949_2_" transform="translate(-.246 -.246)"><g id="Grupo_11514_2_" transform="translate(10.072 11.149)"><g id="Grupo_15064_1_"><path class="st4" d="M20.04 27.07s4.87 3.21 5.42 3.43 2.21 1.33 3.32-.22c1.11-1.55-1.44-3.43-1.44-3.43s-3.55-2.16-5.46-3.57c-1.05-.77-2.21-1.56-3.49-1.95-1.43-.43-2.96-.22-4.42-.22H3.27v14.16h8.53l-.25-14.12"/><path class="st4" d="M11.79 32.63h4.08l7.44 3.53s2.93 1.34 4.86-.16c2.32-1.81 13.93-10.43 13.93-10.43s-1.26-2.02-3.53-1.26-9.48 4.29-9.48 4.29"/></g></g></g></g></svg>