<svg xmlns="http://www.w3.org/2000/svg" viewBox="0 0 65 65"><style>.st3{stroke:#95a6b1;stroke-width:1.6;stroke-linecap:round;stroke-linejoin:round;stroke-miterlimit:10}.st3,.st4{fill:none}.st5{fill:#4da12e}.st7{fill:none;stroke:#95a6b1;stroke-width:1.6;stroke-linecap:round;stroke-linejoin:round}</style><g id="Capa_1"><path class="st3" d="M34.47 21.25l-2.76 3.76h2.76l-2.64 3.86"/><circle class="st3" cx="33.09" cy="25.06" r="6.29"/><path class="st4" d="M0 48.26h65V65H0z"/><path class="st5" d="M45.38 61.32h-7.17c-.66 0-1.2-.54-1.2-1.2s.54-1.2 1.2-1.2h7.17c.66 0 1.2.54 1.2 1.2s-.54 1.2-1.2 1.2zm7.73 0h-.58c-.66 0-1.2-.54-1.2-1.2s.54-1.2 1.2-1.2h.58c.66 0 1.2.54 1.2 1.2s-.54 1.2-1.2 1.2zm-34.12 0h-7.1c-.66 0-1.2-.54-1.2-1.2s.54-1.2 1.2-1.2h7.1c.66 0 1.2.54 1.2 1.2s-.54 1.2-1.2 1.2z"/><path d="M31.05 61.32H18.53c-.66 0-1.2-.54-1.2-1.2s.54-1.2 1.2-1.2h12.52c.66 0 1.2.54 1.2 1.2s-.54 1.2-1.2 1.2zm4.42-6.11H11.89c-.66 0-1.2-.54-1.2-1.2s.54-1.2 1.2-1.2h23.58c.66 0 1.2.54 1.2 1.2s-.53 1.2-1.2 1.2z" fill="#96d200"/><path class="st5" d="M53.11 55.21H34.75c-.66 0-1.2-.54-1.2-1.2s.54-1.2 1.2-1.2h18.36c.66 0 1.2.54 1.2 1.2s-.54 1.2-1.2 1.2zm-40.79 0h-.43c-.66 0-1.2-.54-1.2-1.2s.54-1.2 1.2-1.2h.43c.66 0 1.2.54 1.2 1.2s-.54 1.2-1.2 1.2z"/><path id="Rectángulo_3799-2_2_" class="st4" d="M0 0h65v65H0z"/><path class="st7" d="M49.23 7.26v-2.3m0 14.39v2.3m0-14.39v-2.3m0 14.39v2.3m6.04-8.34h2.3m-16.69 0h2.3M53.5 9.03l1.63-1.62M44.95 17.58l-1.62 1.63m10.17-1.63l1.63 1.63M44.95 9.03l-1.62-1.62"/><path id="Trazado_12511_2_" d="M52.54 11.79c.38.84.44 1.79.15 2.66a3.65 3.65 0 01-1.94 2.17c-1.83.84-3.99.03-4.83-1.8 0 0 0 0 0 0a3.644 3.644 0 011.8-4.83c1.82-.83 3.98-.03 4.82 1.8z" fill="none" stroke="#19a500" stroke-width="1.6" stroke-miterlimit="10"/><path class="st7" d="M37.66 13.31H15.67l-7.64 23.2h48.94L52.6 23.24m-19.51-4.47v-5.46m0 23.2v-5.16m-12.78 5.16l3.82-23.2m21.35 23.2l-2.31-14.07m-5.24-1.67h2m-26.74 0h15.3m10.89 7.26H53.9m-42.75 0H26.8m2.83 8.48v11.75m6.74-11.6v11.4m-17.23.2h27.9"/></g></svg>