<svg version="1.1" id="Layer_1" xmlns="http://www.w3.org/2000/svg" x="0" y="0" viewBox="0 0 125 125" xml:space="preserve"><style>.st0{fill:#2b5cda}.st1{fill:#00af00}</style><path class="st0" d="M1347.8 1451.4c0-19.9 16.1-36 36-36v-25.5c-34 0-61.5 27.5-61.5 61.5s27.5 61.5 61.5 61.5v-25.5c-19.9 0-36-16.1-36-36z"/><path class="st1" d="M1383.8 1389.9v25.5c19.9 0 36 16.1 36 36s-16.1 36-36 36v25.5c34 0 61.5-27.5 61.5-61.5s-27.5-61.5-61.5-61.5z"/><path class="st0" d="M26.5 62.5c0-19.9 16.1-36 36-36V1C28.6 1 1 28.5 1 62.5S28.6 124 62.5 124V98.5c-19.9 0-36-16.1-36-36z"/><path class="st1" d="M62.5 1v25.5c19.9 0 36 16.1 36 36s-16.1 36-36 36V124c34 0 61.5-27.5 61.5-61.5S96.5 1 62.5 1z"/></svg>