<svg xmlns="http://www.w3.org/2000/svg" width="65" height="65"><g data-name="Grupo 20124"><path data-name="Rectángulo 3799-2" fill="none" d="M0 0h65v65H0z"/><g data-name="Grupo 20129"><g data-name="Grupo 20125" fill="none"><path data-name="Rectángulo 5752" d="M0 48.259h65V65H0z"/><g data-name="Grupo 20124" stroke-linecap="round" stroke-linejoin="round" stroke-width="2.4"><path data-name="Línea 4567" stroke="#4da12e" d="M38.214 60.119h7.167"/><path data-name="Línea 4568" stroke="#4da12e" d="M52.528 60.119h.581"/><path data-name="Línea 4569" stroke="#4da12e" d="M11.891 60.119h7.101"/><path data-name="Línea 4570" stroke="#96d200" d="M18.529 60.119h12.517"/><path data-name="Línea 4571" stroke="#96d200" d="M11.891 54.012h23.582"/><path data-name="Línea 4572" stroke="#4da12e" d="M34.746 54.012h18.363"/><path data-name="Línea 4573" stroke="#4da12e" d="M11.891 54.012h.429"/></g></g><path data-name="Trazado 19756" d="M48.46 33.31V22.94H10.24V41.2h33.92" fill="none" stroke="#95a6b1" stroke-linecap="round" stroke-linejoin="round" stroke-width="1.6"/><path data-name="Línea 4574" fill="none" stroke="#95a6b1" stroke-linecap="round" stroke-linejoin="round" stroke-width="1.6" d="M48.46 39.25v-.34"/><path data-name="Rectángulo 5753" fill="none" stroke="#95a6b1" stroke-linecap="round" stroke-linejoin="round" stroke-width="1.6" d="M10.239 42.919h-5.53V21.22h5.53z"/><g data-name="Grupo 20126" fill="none" stroke="#95a6b1" stroke-linecap="round" stroke-linejoin="round" stroke-width="1.6"><path data-name="Línea 4575" d="M14.851 36.979h-4.529"/><path data-name="Línea 4576" d="M14.794 32.044h-4.472"/><path data-name="Línea 4577" d="M14.851 27.109h-4.529"/></g><g data-name="Grupo 20127"><path data-name="Línea 4578" fill="none" stroke="#95a6b1" stroke-linecap="round" stroke-linejoin="round" stroke-width="1.6" d="M48.46 27.109h-4.529"/></g><path data-name="Línea 4579" fill="none" stroke="#95a6b1" stroke-linecap="round" stroke-linejoin="round" stroke-width="1.6" d="M48.47 39.42v-.68"/><path data-name="Trazado 19757" d="M48.47 33.3V21.22H54v10.66" fill="none" stroke="#95a6b1" stroke-linecap="round" stroke-linejoin="round" stroke-width="1.6"/><path data-name="Línea 4580" fill="none" stroke="#95a6b1" stroke-linecap="round" stroke-linejoin="round" stroke-width="1.6" d="M48.47 32.12h-.01"/><path data-name="Trazado 19758" d="M21.627 20.86v2.1h16.361v-8.8H26.326" fill="none" stroke="#95a6b1" stroke-linecap="round" stroke-linejoin="round" stroke-width="1.6"/><path data-name="Línea 4581" fill="none" stroke="#95a6b1" stroke-linecap="round" stroke-linejoin="round" stroke-width="1.6" d="M29.808 14.159v-5.37"/><path data-name="Línea 4582" fill="none" stroke="#95a6b1" stroke-linecap="round" stroke-linejoin="round" stroke-width="1.6" d="M26.326 8.789h7.24"/><path data-name="Línea 4583" fill="none" stroke="#95a6b1" stroke-linecap="round" stroke-linejoin="round" stroke-width="1.6" d="M26.266 18.557h11.723"/><g data-name="Grupo 20128" fill="none" stroke="#95a6b1" stroke-linecap="round" stroke-linejoin="round" stroke-width="1.6" transform="translate(85)"><circle data-name="Elipse 3083" cx="3.35" cy="3.35" r="3.35" transform="translate(-36.547 35.732)"/><path data-name="Trazado 19759" d="M-26.109 33.37l-2.3.25a2.4 2.4 0 01-2.452-1.42l-.93-2.109a9.062 9.062 0 00-1.406-.12 10.779 10.779 0 00-1.406.12l-.93 2.109a2.4 2.4 0 01-2.453 1.416l-2.3-.25a9.117 9.117 0 00-1.4 2.433l1.364 1.863a2.4 2.4 0 010 2.833l-1.364 1.863a9.111 9.111 0 001.4 2.432l2.3-.25a2.4 2.4 0 012.453 1.417l.93 2.109a9.186 9.186 0 001.406.12 9.186 9.186 0 001.406-.12l.93-2.109a2.4 2.4 0 012.453-1.417l2.3.25a9.111 9.111 0 001.4-2.432l-1.364-1.858a2.4 2.4 0 010-2.833l1.364-1.863a9.117 9.117 0 00-1.401-2.434z"/></g><path data-name="Rectángulo 5754" fill="none" d="M0 0h65v65H0z"/><path data-name="Trazado 19760" d="M23.74 14.2a3.1 3.1 0 01.124 2.269 3.1 3.1 0 01-1.66 1.853 3.111 3.111 0 01-4.122-1.536 3.11 3.11 0 011.536-4.122A3.11 3.11 0 0123.74 14.2z" fill="none" stroke="#00a800" stroke-linecap="round" stroke-linejoin="round" stroke-width="1.6"/></g></g></svg>