<svg xmlns="http://www.w3.org/2000/svg" width="168.4" height="48.4"><g data-name="Grupo 14507"><g data-name="Grupo 10332" transform="translate(-.3 -.3)" fill="none" stroke="#fff" stroke-linejoin="round" stroke-width="1.4"><circle data-name="Elipse 1636" cx="23.5" cy="23.5" r="23.5" transform="translate(1 1)" stroke-linecap="round"/><g data-name="Grupo 14503"><circle data-name="Elipse 2353" cx="6.721" cy="6.721" r="6.721" transform="translate(8.916 27.39)" stroke-linecap="round"/><circle data-name="Elipse 2354" cx="2.968" cy="2.968" r="2.968" transform="translate(12.668 31.142)" stroke-linecap="round"/><path data-name="Trazado 12363" d="M17.233 27.753s7.14-4.909 14.169 0"/><path data-name="Trazado 12364" d="M20.915 38.017a5.7 5.7 0 007.14 0"/><circle data-name="Elipse 2355" cx="6.721" cy="6.721" r="6.721" transform="translate(26.643 27.39)" stroke-linecap="round"/><circle data-name="Elipse 2356" cx="2.968" cy="2.968" r="2.968" transform="translate(30.396 31.142)" stroke-linecap="round"/><path data-name="Línea 2695" stroke-linecap="round" d="M23.139 28.873h2.759"/><path data-name="Trazado 12365" d="M29.227 13.514l1.69-5.3 6.213-.046s-.686 1.554-3.93 3.932a8.72 8.72 0 01-8.679 1.1 9.516 9.516 0 00-10.493 2.285 9.3 9.3 0 00-2.344 6.486 9.849 9.849 0 018.177-3.381 8.566 8.566 0 016.989 4.294 7.136 7.136 0 006.989-5.39 10.174 10.174 0 00-.446-4.94" stroke-linecap="round"/><path data-name="Trazado 12366" d="M11.685 21.965s1.241-5.008 7.549-6.226" stroke-linecap="round"/><path data-name="Línea 2696" stroke-linecap="round" d="M21.582 14.981h0"/><path data-name="Trazado 12367" d="M25.109 13.4s3.922 2.863 4.128 4.925a4.4 4.4 0 01-4.082 2.309" stroke-linecap="round"/><path data-name="Línea 2697" stroke-linecap="round" d="M27.045 23.111l-.811 2.552"/><path data-name="Línea 2698" stroke-linecap="round" d="M29.973 22.535l1.898 4.908"/></g></g><g data-name="Grupo 14505"><g data-name="Grupo 10332" transform="translate(59.7 -.3)" fill="none" stroke="#fff" stroke-linecap="round" stroke-linejoin="round" stroke-width="1.4"><circle data-name="Elipse 1636" cx="23.5" cy="23.5" r="23.5" transform="translate(1 1)"/><g data-name="Grupo 14504"><path data-name="Trazado 12368" d="M15.361 10.9c-4.109-.93-5.307 1.862-5.906 2.87a12.533 12.533 0 01-2.44 2.219 1.766 1.766 0 00.848 3.168h.056c1.858.1 2.951-1.089 5.136 0s3.5-1.485 3.5-1.485"/><path data-name="Trazado 12369" d="M13.055 19.163a11.622 11.622 0 013.388 6.437c.656 4.059 3.606 4.455 3.606 4.455"/><path data-name="Trazado 12370" d="M19.94 26.193a44.562 44.562 0 011.093 5.346c0 1.089-.874 7.723-.874 7.723h2.732l1.311-7.03.984-6.435"/><path data-name="Trazado 12371" d="M17.268 13.081c2.514-2.252.557-4.4 0-3.464a12.148 12.148 0 01-2.151 2.237"/><path data-name="Trazado 12372" d="M24.827 29s2.751-2.1 7.709-.057"/><path data-name="Trazado 12373" d="M31.1 23.939s-.627 2.5 2.385 6.311c0 0 1.569 2.615.125 9.323h2.89l.627-10.233s5.416-6.288 2.592-11.8-9.219-2.958-10.345-3.056c-5.85-.505-3.819-5.127-12.106-1.4"/><path data-name="Trazado 12374" d="M42.344 27.822c.154-3.5-2.626-10.285-2.626-10.285"/><path data-name="Trazado 12375" d="M42.189 33.21c-1.175-1.046-2.347-2.582-1.978-4.158a2.055 2.055 0 012.009-1.462 1.674 1.674 0 011.363.91c.925 1.638-1.07 4.671-1.394 4.71z"/><path data-name="Línea 2699" d="M12.71 14.088h0"/></g><path data-name="Trazado 12376" d="M13.1 10.7a1.606 1.606 0 00-.453-2.375"/><path data-name="Línea 2700" d="M13.194 39.792h23.305"/></g></g><g data-name="Grupo 10332" transform="translate(119.7 -.3)" fill="none" stroke="#fff" stroke-linecap="round" stroke-linejoin="round" stroke-width="1.4"><circle data-name="Elipse 1636" cx="23.5" cy="23.5" r="23.5" transform="translate(1 1)"/><g data-name="Grupo 14506"><path data-name="Trazado 12377" d="M21.18 27.072a10.266 10.266 0 01-5.48-2.758 4.916 4.916 0 01-1.535-3.4c-.025-1.386.681-2.568.822-3.914a12.533 12.533 0 00-1.024-5.8 11.956 11.956 0 0110.493 6.3s2.623-5.771 10.493-6.3a10.421 10.421 0 00-.263 7.476c1.443 3.935-1.836 7.477-6.3 8.4"/><path data-name="Trazado 12378" d="M20.368 13.169A16.823 16.823 0 0124.3 5.037s3.8 3.672 4.329 8.132"/><path data-name="Trazado 12379" d="M20.133 30.914a3.693 3.693 0 01.73-2.67 4.271 4.271 0 013.694-1.86 4.368 4.368 0 013.8 1.792c.659 1 1.163 2.68.321 3.69-.86 1.031-2.418 1.16-3.664 1.172-1.422.015-3.074.023-4.2-.984a2.114 2.114 0 01-.681-1.14z"/><path data-name="Línea 2701" d="M24.658 30.093v12.881"/><path data-name="Trazado 12380" d="M38.7 30.3s-15.106 3.577-13.9 13.663c0 0 14.1-2.039 13.9-13.663z"/><path data-name="Trazado 12381" d="M11.709 31.345s14.062 2.532 12.86 12.618c0 0-13.061-.995-12.86-12.618z"/><path data-name="Trazado 12382" d="M17.448 37.38l7.121 6.583 7.7-6.882"/></g><circle data-name="Elipse 2357" cx="1.94" cy="1.94" r="1.94" transform="translate(40.185 17.312)"/><circle data-name="Elipse 2358" cx="1.94" cy="1.94" r="1.94" transform="translate(4.896 25.646)"/><path data-name="Línea 2702" d="M7.76 18.828h0"/><path data-name="Línea 2703" d="M43.263 28.226h0"/></g></g></svg>