<svg xmlns="http://www.w3.org/2000/svg" width="75.83" height="76.298"><g data-name="Grupo 18073"><g data-name="Grupo 18059"><g data-name="Grupo 18058" fill="none"><path data-name="Rectángulo 5317" d="M8.175 59.556h65v16.741h-65z"/><g data-name="Grupo 18057" stroke-linecap="round" stroke-linejoin="round" stroke-width="2.4"><path data-name="Línea 2843" stroke="#4e9e2e" d="M46.388 71.416h7.167"/><path data-name="Línea 2844" stroke="#4e9e2e" d="M60.703 71.416h.581"/><path data-name="Línea 2845" stroke="#4e9e2e" d="M20.065 71.416h7.101"/><path data-name="Línea 2846" stroke="#94cf01" d="M26.704 71.416h12.517"/><path data-name="Línea 2847" stroke="#94cf01" d="M20.065 65.309h23.582"/><path data-name="Línea 2848" stroke="#4e9e2e" d="M42.92 65.309h18.363"/><path data-name="Línea 2849" stroke="#4e9e2e" d="M20.065 65.309h.429"/></g></g></g><g data-name="Grupo 18072" fill="none" stroke="#95a6b1" stroke-linecap="round" stroke-linejoin="round" stroke-width="2.3"><g data-name="Grupo 18062"><g data-name="Grupo 18060"><path data-name="Línea 1013" d="M15.172 25.307v3.263"/><path data-name="Línea 1014" d="M19.951 25.478v3.091"/></g><path data-name="Trazado 11414" d="M19.947 28.711l6.1 2.746a4.848 4.848 0 012.4 3.354v4.543"/><path data-name="Trazado 11415" d="M12.082 39.355h16.37"/><g data-name="Grupo 18061"><path data-name="Línea 1016" d="M17.561 31.279l-2.39-2.709"/><path data-name="Línea 1017" d="M17.561 31.278l2.265-2.567"/></g><path data-name="Trazado 5701" d="M22.061 21.494a4.5 4.5 0 01-9 0h0"/><path data-name="Trazado 5702" d="M13.062 21.494v-2.913a4.63 4.63 0 014.058-4.672 4.5 4.5 0 014.92 4.036c.014.147.022.3.022.443v3.106"/><path data-name="Trazado 11414" d="M15.171 28.711l-6.1 2.746a4.844 4.844 0 00-2.153 2.478"/></g><g data-name="Grupo 18065"><g data-name="Grupo 18063"><path data-name="Línea 1013" d="M61.398 25.307v3.263"/><path data-name="Línea 1014" d="M66.177 25.478v3.091"/></g><path data-name="Trazado 11414" d="M66.174 28.711l6.1 2.746a4.842 4.842 0 012.4 3.354v4.543"/><path data-name="Trazado 11415" d="M52.895 39.355h21.787"/><g data-name="Grupo 18064"><path data-name="Línea 1016" d="M63.788 31.279l-2.39-2.709"/><path data-name="Línea 1017" d="M63.788 31.278l2.265-2.567"/></g><path data-name="Trazado 5701" d="M68.288 21.494a4.5 4.5 0 01-9 0h0"/><path data-name="Trazado 5702" d="M59.288 21.494v-2.913a4.632 4.632 0 014.058-4.672 4.5 4.5 0 014.92 4.036 4.362 4.362 0 01.022.443v3.106"/><path data-name="Trazado 11414" d="M61.398 28.711l-6.1 2.746a4.849 4.849 0 00-2.4 3.354v4.543"/></g><g data-name="Grupo 18068"><g data-name="Grupo 18066"><path data-name="Línea 1013" d="M38.285 12.573v3.263"/><path data-name="Línea 1014" d="M43.064 12.744v3.091"/></g><path data-name="Trazado 11414" d="M43.061 15.977l6.1 2.746a4.843 4.843 0 012.4 3.354v4.543"/><path data-name="Trazado 11415" d="M29.782 26.621h21.785"/><g data-name="Grupo 18067"><path data-name="Línea 1016" d="M40.675 18.545l-2.39-2.709"/><path data-name="Línea 1017" d="M40.675 18.544l2.265-2.567"/></g><path data-name="Trazado 5701" d="M45.175 8.76a4.5 4.5 0 01-9 0h0"/><path data-name="Trazado 5702" d="M36.175 8.76V5.847a4.631 4.631 0 014.058-4.672 4.5 4.5 0 014.92 4.036 4.362 4.362 0 01.022.443V8.76"/><path data-name="Trazado 11414" d="M38.282 15.977l-6.1 2.746a4.846 4.846 0 00-2.4 3.354v4.543"/></g><g data-name="Grupo 18071"><g data-name="Grupo 18069"><path data-name="Línea 1013" d="M38.285 42.699v3.263"/><path data-name="Línea 1014" d="M43.064 42.87v3.091"/></g><path data-name="Trazado 11414" d="M43.061 46.104l6.1 2.745a4.846 4.846 0 012.4 3.354v4.543"/><path data-name="Trazado 11415" d="M29.782 56.747h21.785"/><g data-name="Grupo 18070"><path data-name="Línea 1016" d="M40.675 48.671l-2.39-2.709"/><path data-name="Línea 1017" d="M40.675 48.671l2.265-2.567"/></g><path data-name="Trazado 5701" d="M45.175 38.888a4.5 4.5 0 01-9 0h0"/><path data-name="Trazado 5702" d="M36.175 38.888v-2.913a4.632 4.632 0 014.058-4.672 4.5 4.5 0 014.92 4.036 4.362 4.362 0 01.022.443v3.106"/><path data-name="Trazado 11414" d="M38.282 46.104l-6.1 2.745a4.848 4.848 0 00-2.4 3.354v4.543"/></g></g><path data-name="Path 9382" d="M12.088 39.355a5.419 5.419 0 10-5.419 5.419h0a5.4 5.4 0 005.419-5.381z" fill="none" stroke="#19a500" stroke-linecap="round" stroke-linejoin="round" stroke-width="2.5"/></g></svg>