<svg xmlns="http://www.w3.org/2000/svg" width="42.013" height="38.75"><g data-name="Grupo 18862"><g data-name="Grupo 18862"><path data-name="Trazado 19165" d="M37.783 8.85a3.11 3.11 0 11-4.122-1.536 3.1 3.1 0 014.122 1.536z" fill="none" stroke="#00a800" stroke-linecap="round" stroke-linejoin="round" stroke-width="1.6"/></g><g data-name="Grupo 18867" fill="none" stroke="#95a6b1" stroke-linecap="round" stroke-linejoin="round" stroke-width="1.6"><g data-name="Grupo 18866"><g data-name="Grupo 18864"><path data-name="Rectángulo 5600" d="M37.944 28.986H4.065v-9.631h33.879z"/><path data-name="Rectángulo 5601" d="M4.065 29.653H.801V18.688h3.264z"/><path data-name="Rectángulo 5602" d="M41.214 29.653H37.95V18.688h3.264z"/><path data-name="Línea 4069" d="M11.417 28.986v-3.185"/><g data-name="Grupo 18863"><path data-name="Línea 4070" d="M15.645 24.19h10.613"/><path data-name="Trazado 19166" d="M23.872 21.692l2.5 2.5-2.5 2.5"/></g></g><g data-name="Grupo 18865"><path data-name="Rectángulo 5166" d="M11.402 13.793h7.211v5.566h-7.211z"/><path data-name="Rectángulo 5167" d="M13.229 10.449h3.556v3.344h-3.556z"/><path data-name="Rectángulo 5168" d="M10.345 4.764h9.324c.44 0 .8.481.8 1.075v.253c0 .594-.356 1.075-.8 1.075h-9.324c-.44 0-.8-.481-.8-1.075v-.253c.004-.594.362-1.075.8-1.075z"/><path data-name="Línea 2909" d="M13.23 10.449l-2.885-3.282"/><path data-name="Línea 2910" d="M16.785 10.449l2.885-3.282"/></g></g><path data-name="Rectángulo 5603" d="M13.041 37.95H9.777v-8.965h3.264z"/><path data-name="Rectángulo 5604" d="M31.867 37.95h-3.264v-8.965h3.264z"/></g><path data-name="Línea 4071" fill="none" stroke="#95a6b1" stroke-linecap="round" stroke-linejoin="round" stroke-width="1.6" d="M1.589 37.95h38.836"/><path data-name="Trazado 19167" d="M34.97 4.775v-.812A3.164 3.164 0 0031.807.8h-3.6a3.163 3.163 0 00-3.163 3.163v15.352" fill="none" stroke="#95a6b1" stroke-linecap="round" stroke-linejoin="round" stroke-width="1.6"/><path data-name="Línea 4072" fill="none" stroke="#95a6b1" stroke-linecap="round" stroke-linejoin="round" stroke-width="1.6" d="M34.97 19.382v-3.655"/></g></svg>