<svg data-name="Grupo 18820" xmlns="http://www.w3.org/2000/svg" width="65" height="65"><path data-name="Rectángulo 5583" fill="none" d="M0 0h65v65H0z"/><g data-name="Grupo 18815"><g data-name="Grupo 18814" fill="none"><path data-name="Rectángulo 5584" d="M0 48.259h65V65H0z"/><g data-name="Grupo 18813" stroke-linecap="round" stroke-linejoin="round" stroke-width="2.4"><path data-name="Línea 3986" stroke="#4c9f2e" d="M38.214 60.119h7.167"/><path data-name="Línea 3987" stroke="#4c9f2e" d="M52.528 60.119h.581"/><path data-name="Línea 3988" stroke="#4c9f2e" d="M11.891 60.119h7.101"/><path data-name="Línea 3989" stroke="#94d040" d="M18.529 60.119h12.517"/><path data-name="Línea 3990" stroke="#94d040" d="M11.891 54.012h23.582"/><path data-name="Línea 3991" stroke="#4c9f2e" d="M34.746 54.012h18.363"/><path data-name="Línea 3992" stroke="#4c9f2e" d="M11.891 54.012h.429"/></g></g></g><g data-name="Grupo 18819" fill="none" stroke-linecap="round" stroke-linejoin="round" stroke-width="1.6"><path data-name="Trazado 19126" d="M17.658 29a3.111 3.111 0 11-4.122-1.535A3.1 3.1 0 0117.658 29z" stroke="#00a800"/><g data-name="Grupo 18817" stroke="#95a6b1"><path data-name="Trazado 19127" d="M51.611 43.207H48.73V29.026h2.881zm-38.222-7.091v7.091h2.881v-7.091"/><g data-name="Grupo 18816"><path data-name="Trazado 19128" d="M9.2 31.352H6.3v9.528h7.09v-4.764"/><path data-name="Trazado 19129" d="M16.27 36.116v4.764h7.664a9.8 9.8 0 0017.132 0h7.664v-9.528h-7.69a9.844 9.844 0 00-4.483-4.152h-8.114a9.844 9.844 0 00-4.483 4.154H20.5"/><path data-name="Rectángulo 5585" d="M51.611 31.352h7.09v9.528h-7.09z"/></g><path data-name="Trazado 19130" d="M32.458 30.545a5.571 5.571 0 11-5.571 5.571"/></g><g data-name="Grupo 18818" stroke="#95a6b1"><path data-name="Rectángulo 5166" d="M28.126 20.604h8.543v6.594h-8.543z"/><path data-name="Rectángulo 5167" d="M30.292 17.827h4.213v2.777h-4.213z"/><rect data-name="Rectángulo 5168" width="12.933" height="2.106" rx=".942" transform="translate(25.931 13.016)"/><path data-name="Línea 2909" d="M30.292 17.826l-3.418-2.703"/><path data-name="Línea 2910" d="M34.504 17.826l3.418-2.703"/></g></g></svg>