<svg data-name="Grupo 18849" xmlns="http://www.w3.org/2000/svg" width="65" height="65"><g data-name="Grupo 18853"><g data-name="Grupo 18849"><g data-name="Grupo 13213"><path data-name="Rectángulo 3799-2" fill="none" d="M0 0h65v65H0z"/></g></g><g data-name="Grupo 18852"><g data-name="Grupo 18851" fill="none"><path data-name="Rectángulo 5593" d="M0 48.259h65V65H0z"/><g data-name="Grupo 18850" stroke-linecap="round" stroke-linejoin="round" stroke-width="2.4"><path data-name="Línea 4046" stroke="#4c9f2e" d="M38.214 60.119h7.167"/><path data-name="Línea 4047" stroke="#4c9f2e" d="M52.528 60.119h.581"/><path data-name="Línea 4048" stroke="#4c9f2e" d="M11.891 60.119h7.101"/><path data-name="Línea 4049" stroke="#94d040" d="M18.529 60.119h12.517"/><path data-name="Línea 4050" stroke="#94d040" d="M11.891 54.012h23.582"/><path data-name="Línea 4051" stroke="#4c9f2e" d="M34.746 54.012h18.363"/><path data-name="Línea 4052" stroke="#4c9f2e" d="M11.891 54.012h.429"/></g></g></g></g><g data-name="Grupo 18858"><g data-name="Grupo 18857"><path data-name="Trazado 19152" d="M39.292 10.993l-3.147 2.373a4.086 4.086 0 01-4.828.067l-3.2-2.276a15.6 15.6 0 00-2.162 1.052A18.561 18.561 0 0024 13.611l.479 3.9a4.086 4.086 0 01-2.355 4.215l-3.584 1.641a15.489 15.489 0 00.073 4.784l3.623 1.537a4.086 4.086 0 012.472 4.147l-.37 3.918a15.483 15.483 0 004.173 2.339l3.148-2.373a4.088 4.088 0 014.828-.068l3.2 2.277a14.2 14.2 0 004.113-2.454l-.48-3.9a4.088 4.088 0 012.356-4.215l3.584-1.641a15.488 15.488 0 00-.073-4.784L45.568 21.4a4.086 4.086 0 01-2.468-4.15l.37-3.918a15.474 15.474 0 00-4.178-2.339z" fill="none" stroke="#95a6b1" stroke-linecap="round" stroke-linejoin="round" stroke-width="1.6"/><g data-name="Grupo 18854" fill="none" stroke="#95a6b1" stroke-linecap="round" stroke-linejoin="round" stroke-width="1.6"><path data-name="Trazado 19153" d="M9.762 33.5L15 31.117l5.315 2.209V34.9a12.618 12.618 0 01-.311 2.579 10.62 10.62 0 01-1.386 3.446 6.594 6.594 0 01-1.165 1.437 14.6 14.6 0 01-1.767 1.169 1.209 1.209 0 01-1.3 0 10.331 10.331 0 01-2.719-2.318 9.587 9.587 0 01-1.6-3.734 12.556 12.556 0 01-.305-2.579z"/><path data-name="Trazado 19154" d="M12.779 37.181l1.628 1.436 2.9-3.086"/></g><g data-name="Grupo 18856"><g data-name="Grupo 18855" fill="none" stroke="#95a6b1" stroke-linecap="round" stroke-linejoin="round" stroke-width="1.6"><path data-name="Rectángulo 5594" d="M38.479 31.639h-9.024 0v-5.765a4.512 4.512 0 014.512-4.512h0a4.512 4.512 0 014.512 4.512v5.765h0z"/><path data-name="Trazado 19155" d="M38.472 31.639h-9.026l-.875 2.381h10.748z"/><path data-name="Línea 4053" d="M33.914 18.835v-1.234"/><path data-name="Línea 4054" d="M29.165 21.067l-1.107-1.107"/><path data-name="Línea 4055" d="M41.797 25.776h-1.234"/><path data-name="Línea 4056" d="M27.239 25.776h-1.234"/><path data-name="Línea 4057" d="M38.585 21.067l1.107-1.107"/></g></g></g><path data-name="Trazado 19156" d="M13.409 31.83a21.372 21.372 0 015.4-21.052" fill="none" stroke="#95a6b1" stroke-linecap="round" stroke-linejoin="round" stroke-width="1.6"/><path data-name="Trazado 19157" d="M39.116 46.56a21.376 21.376 0 01-20.41-5.715" fill="none" stroke="#95a6b1" stroke-linecap="round" stroke-linejoin="round" stroke-width="1.6"/><path data-name="Trazado 19158" d="M54.634 20.805a21.372 21.372 0 01-6.129 20.616" fill="none" stroke="#95a6b1" stroke-linecap="round" stroke-linejoin="round" stroke-width="1.6"/><path data-name="Trazado 19159" d="M28.216 5.294a21.377 21.377 0 0119.02 3.914" fill="none" stroke="#95a6b1" stroke-linecap="round" stroke-linejoin="round" stroke-width="1.6"/><path data-name="Trazado 19160" d="M12.143 10.778h6.692v6.692" fill="none" stroke="#95a6b1" stroke-linecap="round" stroke-linejoin="round" stroke-width="1.6"/><path data-name="Trazado 19161" d="M55.19 41.42H48.5v-6.692" fill="none" stroke="#95a6b1" stroke-linecap="round" stroke-linejoin="round" stroke-width="1.6"/></g><path data-name="Trazado 11848" d="M55.37 14.908a4.184 4.184 0 11-4.183-4.184h0a4.168 4.168 0 014.183 4.151z" fill="none" stroke="#00a800" stroke-linecap="round" stroke-linejoin="round" stroke-width="1.6"/></svg>