<svg data-name="Grupo 19506" xmlns="http://www.w3.org/2000/svg" width="65" height="65"><g data-name="Grupo 19513"><path data-name="Rectángulo 5732" fill="none" d="M0 0h65v65H0z"/><g data-name="Grupo 19508"><g data-name="Grupo 19507" fill="none"><path data-name="Rectángulo 5733" d="M0 48.259h65V65H0z"/><g data-name="Grupo 19506" stroke-linecap="round" stroke-linejoin="round" stroke-width="2.4"><path data-name="Línea 4265" stroke="#4c9f2e" d="M38.214 60.119h7.167"/><path data-name="Línea 4266" stroke="#4c9f2e" d="M52.528 60.119h.581"/><path data-name="Línea 4267" stroke="#4c9f2e" d="M11.891 60.119h7.101"/><path data-name="Línea 4268" stroke="#94d040" d="M18.529 60.119h12.517"/><path data-name="Línea 4269" stroke="#94d040" d="M11.891 54.012h23.582"/><path data-name="Línea 4270" stroke="#4c9f2e" d="M34.746 54.012h18.363"/><path data-name="Línea 4271" stroke="#4c9f2e" d="M11.891 54.012h.429"/></g></g></g><g data-name="Grupo 19512" fill="none" stroke-linecap="round" stroke-linejoin="round" stroke-width="1.6"><path data-name="Trazado 19411" d="M45.44 39.823a3.11 3.11 0 11-4.122-1.536 3.1 3.1 0 014.122 1.536z" stroke="#00a800"/><g data-name="Grupo 19510" stroke="#95a6b1"><path data-name="Trazado 19412" d="M54.611 43.207H51.73V29.026h2.881zm-45.342 0h-2.88V29.026h2.88z"/><g data-name="Grupo 19509"><path data-name="Trazado 19413" d="M12.092 31.352H9.2v9.528h4.194"/><path data-name="Trazado 19414" d="M48.67 40.88h3.06v-9.528H11.039"/><path data-name="Línea 4272" d="M11.066 40.88h25.545"/><path data-name="Rectángulo 5734" d="M54.611 31.352h4.09v9.528h-4.09z"/></g></g><g data-name="Grupo 19511" stroke="#95a6b1"><path data-name="Rectángulo 5166" d="M16.126 24.758h12.543v6.594H16.126z"/><path data-name="Rectángulo 5167" d="M21.291 21.981h2.213v2.777h-2.213z"/></g></g></g><g data-name="Grupo 19514" fill="none" stroke="#95a6b1" stroke-linecap="round" stroke-linejoin="round" stroke-width="1.6"><path data-name="Trazado 19415" d="M28.611 41.026v2.181H25.73v-2.181"/><path data-name="Trazado 19416" d="M33.73 31.207v-2.181h2.88v2.181"/></g><g data-name="Grupo 19516" fill="none" stroke="#95a6b1" stroke-linecap="round" stroke-linejoin="round" stroke-width="1.6"><path data-name="Trazado 19417" d="M45.329 19.76l.08.448a3.317 3.317 0 002.564 2.659h0a3.318 3.318 0 00-2.564 2.659l-.08.449-.08-.449a3.316 3.316 0 00-2.563-2.659h0a3.315 3.315 0 002.563-2.659z"/><path data-name="Trazado 19418" d="M52.924 12.888l.1.555a4.107 4.107 0 003.176 3.292h0a4.1 4.1 0 00-3.173 3.292l-.1.555-.1-.555a4.1 4.1 0 00-3.173-3.292h0a4.107 4.107 0 003.173-3.292z"/><g data-name="Grupo 19515"><path data-name="Línea 4273" d="M47.286 8.417v3.993"/><path data-name="Línea 4274" d="M49.282 10.414h-3.993"/></g></g><circle data-name="Elipse 2295" cx="6.209" cy="6.209" r="6.209" transform="translate(16.189 8.914)" fill="none" stroke="#95a6b1" stroke-linecap="round" stroke-linejoin="round" stroke-width="1.6"/><path data-name="Línea 2440" fill="none" stroke="#95a6b1" stroke-linecap="round" stroke-linejoin="round" stroke-width="1.6" d="M22.438 13.704v2.2m2.311-1h-2.2"/></svg>