<svg xmlns="http://www.w3.org/2000/svg" width="9" height="76.828"><g data-name="Grupo 19526"><path data-name="Línea 2119" fill="none" stroke="#505d6c" opacity=".29" d="M4.723.002L4.5 70.828"/><g data-name="Trazado 12540" fill="#fff"><path d="M4.5 75.828c-1.93 0-3.5-1.57-3.5-3.5s1.57-3.5 3.5-3.5 3.5 1.57 3.5 3.5c0 .738-.236 1.412-.764 2.186l-.005.008-.005.008c-.41.625-1.438 1.298-2.726 1.298z"/><path d="M4.5 69.828a2.503 2.503 0 00-2.5 2.5c0 1.378 1.122 2.5 2.5 2.5.972 0 1.675-.52 1.89-.847l.02-.03c.52-.762.59-1.248.59-1.623 0-1.378-1.122-2.5-2.5-2.5m0-2a4.5 4.5 0 014.5 4.5c0 .925-.279 1.784-.938 2.75-.626.955-2.001 1.75-3.562 1.75a4.5 4.5 0 010-9z" fill="#00af00"/></g></g></svg>