<svg id="Capa_1" data-name="Capa 1" xmlns="http://www.w3.org/2000/svg" viewBox="0 0 65 65"><defs><style>.cls-1{fill:none}.cls-3{fill:#95a6b1}.cls-4{fill:#19a301}</style></defs><path class="cls-1" d="M0 0h65v65H0z" id="Rectángulo_3818" data-name="Rectángulo 3818"/><path d="M15.9 25a5.5 5.5 0 01-5.5-5.5 5.5 5.5 0 015.5-5.4 5.4 5.4 0 015.4 5.4 5.1 5.1 0 01-1.5 3.7 5.3 5.3 0 01-3.9 1.8zm0-9.5a4 4 0 104 4 4 4 0 00-4-4z" fill="#19a500" id="Trazado_9830" data-name="Trazado 9830"/><path class="cls-3" d="M37.3 40.4H17.4a8.2 8.2 0 01-8.3-8.3 8.3 8.3 0 012.6-6.1c.2-.3.7-.2 1 0a.9.9 0 010 1.1h-.1A6.9 6.9 0 0017.4 39h19.9a6.9 6.9 0 001.6-13.7.7.7 0 01-.5-.9l.2-.3a5.6 5.6 0 00-.4-7.9 4.5 4.5 0 00-2.1-1.2.7.7 0 01-.5-.9 8.8 8.8 0 00.2-1.7 8.5 8.5 0 00-17-.2v.2a.8.8 0 01-.8.7.7.7 0 01-.7-.7 10 10 0 1119.9 0 6.1 6.1 0 01-.1 1.4 7.1 7.1 0 013.8 9.3 3.4 3.4 0 01-.6 1.2 8.3 8.3 0 01-3 16.1z" id="Trazado_9831" data-name="Trazado 9831"/><path class="cls-3" d="M27.4 49.8a.7.7 0 01-.7-.7V16.6a.7.7 0 111.4 0v32.5a.7.7 0 01-.7.7z" id="Trazado_9832" data-name="Trazado 9832"/><path class="cls-3" d="M27.4 24.6c-.2 0-.4 0-.5-.2l-4.8-4.8a.8.8 0 01.1-1 .8.8 0 01.9 0l4.8 4.8a.7.7 0 010 1l-.5.2z" id="Trazado_9833" data-name="Trazado 9833"/><path class="cls-3" d="M27.4 34.8l-.5-.2-4.8-4.8a.7.7 0 011-1l4.8 4.8a.7.7 0 010 1l-.5.2z" id="Trazado_9834" data-name="Trazado 9834"/><path class="cls-3" d="M27.4 24.6a.7.7 0 01-.7-.7c0-.2 0-.4.2-.5l4.8-4.8a.7.7 0 011 0 .8.8 0 010 1.1l-4.8 4.7c-.1.2-.3.2-.5.2z" id="Trazado_9835" data-name="Trazado 9835"/><path class="cls-3" d="M27.4 34.8a.7.7 0 01-.7-.7c0-.2 0-.4.2-.5l4.8-4.8a.8.8 0 011 .1.7.7 0 010 .9l-4.8 4.8z" id="Trazado_9836" data-name="Trazado 9836"/><path class="cls-3" d="M51.2 49.8H16a.7.7 0 010-1.4h35.2a.7.7 0 110 1.4z" id="Trazado_9837" data-name="Trazado 9837"/><path class="cls-3" d="M49 40.5H33.1a.7.7 0 01-.7-.7.8.8 0 01.7-.8H49a5.4 5.4 0 005.4-5.4 5.4 5.4 0 00-4.1-5.2.7.7 0 01-.5-.9c0-.1.1-.2.1-.3a4.2 4.2 0 00-.2-6.1 5.9 5.9 0 00-1.7-1 .8.8 0 01-.5-.8 5.9 5.9 0 00.2-1.4 6.7 6.7 0 00-6.7-6.6 6.2 6.2 0 00-4 1.3.8.8 0 01-1.1-.1.8.8 0 01.2-1A8 8 0 0147.4 13a7.9 7.9 0 011.7 4.9A4.1 4.1 0 0149 19a5.8 5.8 0 013.1 7.6 2.5 2.5 0 00-.4.7 6.9 6.9 0 013.6 9 6.8 6.8 0 01-6.3 4.2z" id="Trazado_9838" data-name="Trazado 9838"/><path class="cls-3" d="M41.1 49.8a.8.8 0 01-.8-.7v-9.4a.8.8 0 01.8-.7.7.7 0 01.7.7v9.4a.7.7 0 01-.7.7z" id="Trazado_9839" data-name="Trazado 9839"/><path class="cls-3" d="M42.1 26.8a.7.7 0 01-.7-.7c0-.2 0-.4.2-.5l2.8-2.8a.7.7 0 011 .1.7.7 0 010 .9l-2.8 2.8c-.1.2-.3.2-.5.2z" id="Trazado_9840" data-name="Trazado 9840"/><path class="cls-1" d="M0 48.3h65v16.74H0z"/><path class="cls-4" d="M45.4 61.3h-7.2a1.2 1.2 0 01-1.2-1.2 1.3 1.3 0 011.2-1.2h7.2a1.3 1.3 0 011.2 1.2 1.2 1.2 0 01-1.2 1.2zm7.7 0h-.6a1.2 1.2 0 01-1.2-1.2 1.3 1.3 0 011.2-1.2h.6a1.2 1.2 0 011.2 1.2 1.2 1.2 0 01-1.2 1.2zm-34.1 0h-7.1a1.2 1.2 0 01-1.2-1.2 1.2 1.2 0 011.2-1.2H19a1.2 1.2 0 011.2 1.2 1.2 1.2 0 01-1.2 1.2z"/><path d="M31 61.3H18.5a1.2 1.2 0 01-1.2-1.2 1.3 1.3 0 011.2-1.2H31a1.2 1.2 0 011.2 1.2 1.2 1.2 0 01-1.2 1.2zm4.5-6.1H11.9a1.2 1.2 0 110-2.4h23.6a1.2 1.2 0 010 2.4z" fill="#82d400"/><path class="cls-4" d="M53.1 55.2H34.7a1.2 1.2 0 010-2.4h18.4a1.2 1.2 0 010 2.4zm-40.8 0h-.4a1.2 1.2 0 110-2.4h.4a1.2 1.2 0 010 2.4z"/></svg>