<svg id="Capa_1" data-name="Capa 1" xmlns="http://www.w3.org/2000/svg" viewBox="0 0 84 84"><defs><style>.cls-1{fill:#e8336e}</style></defs><path class="cls-1" d="M35.7 69.5l-.3 1 .3-1a1.1 1.1 0 00-1.3.8 1 1 0 00.8 1.2h.3a1 1 0 001-.8 1 1 0 00-.8-1.2m7.9.3a1 1 0 00-.9 1.2 1 1 0 001 .9h.2a1.1 1.1 0 10-.3-2.1m-4 .1a1.2 1.2 0 00-1.1 1 1.1 1.1 0 001 1.1h.1a1 1 0 001-1c.1-.5-.4-1-1-1.1m-7.8-1.5a1 1 0 00-1.3.6 1.1 1.1 0 00.6 1.4h.4a.9.9 0 00.9-.6 1 1 0 00-.6-1.4m15.8.7l.2 1-.2-1a1.1 1.1 0 00-.8 1.3 1.1 1.1 0 001 .7h.3a1 1 0 00.7-1.3.9.9 0 00-1.2-.7m3.7-1.3l.4.9-.4-.9a1 1 0 00-.5 1.3 1.1 1.1 0 00.9.7h.5a1.1 1.1 0 00.5-1.4 1 1 0 00-1.4-.5M27.8 20.3l.5-.2a1.1 1.1 0 00.5-1.4 1.1 1.1 0 00-1.5-.4 1 1 0 00-.4 1.4 1.1 1.1 0 00.9.6m-12 11.6h.5a1.2 1.2 0 00.9-.5 1.1 1.1 0 00-.5-1.4 1.1 1.1 0 00-.9 1.9m-1.5 3.9h.3a1 1 0 001-.7 1 1 0 00-.6-1.3 1.1 1.1 0 00-1.3.7 1 1 0 00.6 1.3m3.5-7.5l.6.2a1.1 1.1 0 00.9-.5 1.1 1.1 0 00-.2-1.4 1 1 0 00-1.5.2l.8.6-.8-.6a1.2 1.2 0 00.2 1.5m6.5-5.8l.6-.2a1 1 0 00.2-1.5 1.1 1.1 0 00-1.4-.2 1 1 0 00-.2 1.5.9.9 0 00.8.4M13.4 51.6a1 1 0 001 .8h.3a1.1 1.1 0 00.7-1.3 1.2 1.2 0 00-1.3-.7 1 1 0 00-.7 1.3m7.7-26.4a.9.9 0 00.8-.4 1 1 0 000-1.4 1.1 1.1 0 00-1.5 0 1.1 1.1 0 00.7 1.8m-6.6 21.8a.9.9 0 00-1.1-.9 1 1 0 00-.9 1.1 1 1 0 001 .9h.1a1 1 0 00.9-1.2m-1.3-2.9h.1a1 1 0 001-1 1.1 1.1 0 00-1-1 1.1 1.1 0 00-1.1 1 1 1 0 001 1.1m.2-4.3h.2a1.1 1.1 0 001.1-.8 1 1 0 00-.9-1.1 1 1 0 10-.4 2m49.2-11.4a1 1 0 00.9.4h.6a1.2 1.2 0 00.2-1.5l-.8.6.8-.6a1 1 0 00-1.4-.3 1.1 1.1 0 00-.3 1.5zm5.3 10.5a1 1 0 00-.9 1.1 1.1 1.1 0 001 .9h.2a1.1 1.1 0 10-.3-2.1m-1.7-2.9a1 1 0 001 .8h.3a1.2 1.2 0 00.7-1.3 1.2 1.2 0 00-1.3-.7 1 1 0 00-.7 1.3m-1.5-4a1.1 1.1 0 00.9.6h.5a1.1 1.1 0 00.5-1.4l-1 .5 1-.5a1.1 1.1 0 00-1.4-.5 1.1 1.1 0 00-.5 1.4zM60 25.3a1.1 1.1 0 00.7.3 1.1 1.1 0 00.8-.3 1 1 0 000-1.4 1.1 1.1 0 00-1.5-.1 1.2 1.2 0 00-.1 1.5zm8.3 18.1a1.1 1.1 0 00-1.1 1 1 1 0 001 1.1 1.1 1.1 0 001.1-1 1.1 1.1 0 00-1-1.1m-15-23.2l.5.2a.9.9 0 00.9-.6 1 1 0 00-.4-1.4l-.5.9.5-.9a1 1 0 00-1 1.8m3.5 2.3h.1c.1.2.4.2.6.2a1 1 0 00.6-1.8 1.2 1.2 0 00-1.5.2 1.2 1.2 0 00.2 1.5"/><path class="cls-1" d="M76.9 59.2L72 54.3a2 2 0 00-1.5-.6 2.3 2.3 0 00-1.6.6h-.1l-.3-.3a4.2 4.2 0 01-.9-1.4.3.3 0 01-.1-.2 3.2 3.2 0 01-.2-1.4v-1.3h.4a1.2 1.2 0 001.1-.9 1 1 0 00-.9-1.2c-.2-.1-.4 0-.7.1a5.2 5.2 0 00-1.7-3.7l-4.7-4.8a5.5 5.5 0 00-4-1.6 5.1 5.1 0 00-3.2 1l-.5-.5v-12a5.8 5.8 0 00-1.5-3.9 3.8 3.8 0 01-1-2.7v-.9a2.2 2.2 0 002.2-2.2v-7a2.2 2.2 0 00-2.2-2.2H31.2A2.2 2.2 0 0029 9.4v7a2.2 2.2 0 002.2 2.2h.1v.4a4.1 4.1 0 01-1.2 3L28 24.1a5.9 5.9 0 00-1.7 4.2V35a5.8 5.8 0 00.6 2.6 5.2 5.2 0 00-3.7 1.6L18.5 44a5.9 5.9 0 00-1.8 4.1v3a4.2 4.2 0 01-1.2 3l-.3.3h-.1a2.3 2.3 0 00-1.6-.6 2 2 0 00-1.5.6l-4.9 4.8a2.1 2.1 0 000 3.1L8.7 64a1.1 1.1 0 001.5-1.5l-1.7-1.7 4.9-4.9h.2l.9.8 11.6 11.6 1.3 1.3-4.9 4.9c-.1.1-.1.1-.2 0l-9.1-9.1a1.1 1.1 0 00-1.5 1.6l9.1 9.1a2.6 2.6 0 001.6.7 2.6 2.6 0 001.6-.7l4.8-4.9a2.1 2.1 0 000-3.1l.6-.6a4.5 4.5 0 012.7-1.2 6 6 0 003.8-1.7l4.5-4.6a3.7 3.7 0 002.6-2.7 3.7 3.7 0 001.5.3 3.6 3.6 0 003.6-3.6v-2.4a3.2 3.2 0 001.4.3 3.6 3.6 0 003.6-3.6V41l3.2 3.2a1.1 1.1 0 00.7.3 1.1 1.1 0 00.8-.3 1 1 0 000-1.4l-2.7-2.7a3.4 3.4 0 011.7-.5 3.6 3.6 0 012.5 1.1l4.8 4.7a4 4 0 011.1 2.7v3a6.3 6.3 0 001.8 4.5l.3.3-1.5 1.5-9.1 9.2-.5-.5h-.1a6.7 6.7 0 00-4.1-2 3.2 3.2 0 01-2.4-1.1l-3.5-3.4a1 1 0 00-1.4 0 1.1 1.1 0 000 1.5l3.4 3.4a6 6 0 003.8 1.7 4.5 4.5 0 012.7 1.2h.1l.5.4a2.1 2.1 0 000 3.1l4.8 5.2a2.2 2.2 0 003.2 0l13.7-13.8a2.1 2.1 0 000-3.1M68 48.8zM34.4 63a3.2 3.2 0 01-2.4 1.1 6.7 6.7 0 00-4.1 1.8l-.6.7-.5-.6h-.1l-10-10.1.3-.3a6.3 6.3 0 001.8-4.5v-3a4 4 0 011.1-2.7l4.8-4.7a3.6 3.6 0 012.5-1.1 3.4 3.4 0 011.7.5l-2.7 2.7a1 1 0 000 1.4 1.1 1.1 0 00.8.3 1.1 1.1 0 00.7-.3l3.2-3.2v13a3.6 3.6 0 003.6 3.6 2.8 2.8 0 001.5-.4 3.4 3.4 0 001.8 2.4zM51 48.3a1.5 1.5 0 01-1.5 1.5 1.5 1.5 0 01-1.4-1.5V36.7a1 1 0 00-1.1-1 .9.9 0 00-1 1V54a1.5 1.5 0 01-1.5 1.5 1.6 1.6 0 01-1.5-1.2V36.7a1 1 0 00-1-1.1l-.5.2a1.1 1.1 0 00-.6.9V54c0 .2.1.3.1.4v2.1a1.5 1.5 0 01-3 0V36.7a1 1 0 00-1-1.1 1.1 1.1 0 00-1.1 1.1V54a1.4 1.4 0 01-1.4 1.5A1.5 1.5 0 0133 54V34.7a1.1 1.1 0 00-1-1.1 1.1 1.1 0 00-1.1 1.1v3.5c-.1.1-.2.1-.2.2a3.5 3.5 0 01-2.3-3.4v-6.7a3.9 3.9 0 011.1-2.7l2.1-2.1a6.3 6.3 0 001.8-4.5v-.4h2.1a1.1 1.1 0 001.1-1.1 1.1 1.1 0 00-1.1-1h-4.3a.1.1 0 01-.1-.1v-7h19.7v7H40.4a1 1 0 00-1 1 1 1 0 001 1.1h8.1v.9a6.1 6.1 0 001.5 4.2 3.5 3.5 0 011 2.5zm24.5 12.5L61.7 74.6a.1.1 0 11-.2 0l-4.9-4.9.8-.8 8-8 5-5h.2l4.9 4.9"/><path class="cls-1" d="M34.5 11.8a1.1 1.1 0 101.1 1.1 1.1 1.1 0 00-1.1-1.1m36.3 47.5a1.1 1.1 0 101.1 1.1 1.1 1.1 0 00-1.1-1.1m-47 10.6a1.1 1.1 0 10-2.2 0 1.1 1.1 0 102.2 0"/><path fill="none" d="M0 0h84v84H0z"/></svg>