<svg data-name="Grupo 17056" xmlns="http://www.w3.org/2000/svg" width="47" height="47"><path data-name="Rectángulo 5304" fill="none" d="M0 0h47v47H0z"/><g data-name="Grupo 17057" fill="none" stroke-linecap="round" stroke-linejoin="round" stroke-width="1.5"><g data-name="Grupo 17056" stroke="#95a6b1"><path data-name="Trazado 18120" d="M3.913 20.622a12.6 12.6 0 00.465 1.3c.223.522.8 3.314 3.339 3.314 2.188 0 2.217-3.538 2.217-3.538s7.99 1.074 9.7 1.536 1.7 3.388 1.7 3.388a8.55 8.55 0 008.55 8.55h8.521a5.423 5.423 0 005.423-5.423v-.393A12.185 12.185 0 0031.645 17.17H9.267L6.7 13.284s-.971-2.11-2.96-1.984c-.56.034-2.447 0-2.447 0s1.633 6.284 2.62 9.322z"/><path data-name="Trazado 18121" d="M19.4 39.86h22.035s4.272-.461 4.272-3.463"/><path data-name="Línea 3407" d="M29.017 35.171v4.689"/><path data-name="Línea 3408" d="M36.535 35.171v4.689"/><path data-name="Trazado 18122" d="M39.648 20.173h-7.557a1.586 1.586 0 00-1.591 1.586v4.8a1.586 1.586 0 001.586 1.586H43.77"/><path data-name="Línea 3409" d="M29.17 10.541h10.359"/><path data-name="Línea 3410" d="M12.824 10.541H23.01"/><path data-name="Trazado 18123" d="M26.09 17.17v0z"/></g><path data-name="Trazado 11848" d="M29.163 10.212A3.073 3.073 0 1126.09 7.14h0a3.061 3.061 0 013.073 3.049z" stroke="#19a500"/></g></svg>