<svg id="Capa_1" data-name="Capa 1" xmlns="http://www.w3.org/2000/svg" viewBox="0 0 65 65"><defs><style>.cls-1{fill:none}.cls-2{fill:#19a301}.cls-3{fill:#95a6b1}</style></defs><path class="cls-1" d="M0 0h65v65H0z" id="Rectángulo_3799" data-name="Rectángulo 3799"/><path class="cls-2" d="M51.1 21a5.5 5.5 0 010-11 5.5 5.5 0 010 11zm0-9.4a3.9 3.9 0 103.9 3.9 3.9 3.9 0 00-3.9-3.9z" id="Elipse_1898" data-name="Elipse 1898"/><g id="Grupo_11524" data-name="Grupo 11524"><path class="cls-3" d="M24.7 49.3h-.3L21.8 48a80 80 0 01-11.3-6.7 4.4 4.4 0 01-2.1-3.6A6 6 0 0111 33l6.8-4.9 1.3-.9 2.8-1.9 2.6-1.8.7-.4c1.7-1.1 2.1-1.5 2.1-1.7l-.4-.3c-1-.6-4-2-4.1-2a.9.9 0 01-.4-1.1.9.9 0 011.1-.4l4.3 2.1a2 2 0 011.1 1.7c0 1.3-1.6 2.3-2.9 3.1l-.5.4-2.7 1.7-2.8 1.9-1.2.9c-2.3 1.5-4.6 3.2-6.8 4.9a4.3 4.3 0 00-2 3.3 2.8 2.8 0 001.4 2.3 82.5 82.5 0 0011.1 6.5l2.6 1.4a.8.8 0 01.4 1.1.9.9 0 01-.8.4z" id="Trazado_10518" data-name="Trazado 10518"/><path class="cls-3" d="M36 17.4h-.3l-10.4-4a.8.8 0 01-.4-1.1.7.7 0 011-.4l10.4 4a.7.7 0 01.4 1 .7.7 0 01-.7.5z" id="Línea_2023" data-name="Línea 2023"/><path class="cls-3" d="M50.7 43.5h-.4c-.4-.2-11.1-5.1-13.6-6.8a4.1 4.1 0 01-1.9-2.6 2 2 0 01.6-1.8l3-3.5a.8.8 0 011.1 0 .7.7 0 01.1 1.1l-3 3.4a1.3 1.3 0 00-.2.6 2.2 2.2 0 001.2 1.4C40 37 50.9 42 51 42a.8.8 0 01.4 1.1.7.7 0 01-.7.4z" id="Trazado_10519" data-name="Trazado 10519"/><g id="Grupo_11520" data-name="Grupo 11520"><path class="cls-3" d="M44.8 36.3a.8.8 0 01-.8-.8V19.3a.7.7 0 01.8-.8.8.8 0 01.8.8v16.2a.9.9 0 01-.8.8z" id="Línea_2024" data-name="Línea 2024"/><path class="cls-3" d="M44.8 27.1a.8.8 0 01-.4-1.4l3-2.2a.8.8 0 011.1.2c.2.4.2.9-.2 1.1l-3 2.2z" id="Línea_2025" data-name="Línea 2025"/><path class="cls-3" d="M44.8 23.7h-.4l-3.1-1.8a.9.9 0 01-.2-1.1.8.8 0 011.1-.3l3 1.9a.8.8 0 01.3 1.1 1.1 1.1 0 01-.7.2z" id="Línea_2026" data-name="Línea 2026"/><path class="cls-3" d="M44.5 31h-1.6a10.1 10.1 0 01-8.3-11.6A9.9 9.9 0 0145.2 11a.7.7 0 01.7.8.8.8 0 01-.8.8 8.5 8.5 0 00-2 16.8 8.2 8.2 0 006.3-1.5 8.4 8.4 0 003.5-5.5.8.8 0 01.9-.7.8.8 0 01.6 1 9.8 9.8 0 01-4 6.5 9.7 9.7 0 01-5.9 1.8z" id="Trazado_10520" data-name="Trazado 10520"/></g><g id="Grupo_11521" data-name="Grupo 11521"><path class="cls-3" d="M17.4 25.7a.9.9 0 01-.8-.8V9.5a.8.8 0 111.6 0v15.4a.9.9 0 01-.8.8z" id="Línea_2027" data-name="Línea 2027"/><path class="cls-3" d="M17.4 17.3h-.5l-3-2.2a.7.7 0 01-.2-1.1.7.7 0 011.1-.2l3 2.2a.7.7 0 01.2 1 .9.9 0 01-.6.3z" id="Línea_2028" data-name="Línea 2028"/><path class="cls-3" d="M17.4 13.9a.9.9 0 01-.7-.3.8.8 0 01.3-1.1l3-1.9a.8.8 0 11.8 1.4l-3 1.8z" id="Línea_2029" data-name="Línea 2029"/><path class="cls-3" d="M17.2 21.2a8.7 8.7 0 118.6-8.6 8.6 8.6 0 01-8.6 8.6zm0-15.7a7.1 7.1 0 107 7.1 7 7 0 00-7-7.1z" id="Elipse_1899" data-name="Elipse 1899"/></g><g id="Grupo_11522" data-name="Grupo 11522"><path class="cls-3" d="M19 37.6a2.3 2.3 0 01-1.1-.3 4.1 4.1 0 01-1.1-1.2 3.1 3.1 0 00-1.1-.9.7.7 0 01-.5-1 .9.9 0 011-.5 3.6 3.6 0 011.9 1.5 1.6 1.6 0 00.7.7h.4a1.6 1.6 0 00.8-.8 2.2 2.2 0 012.3-1.4.7.7 0 01.7.8.8.8 0 01-.8.8c-.3-.1-.6.2-.7.5a3.4 3.4 0 01-1.9 1.6z" id="Trazado_10521" data-name="Trazado 10521"/><path class="cls-3" d="M25.3 37.6a2.6 2.6 0 01-2.4-1.7 1 1 0 00-.8-.5 1 1 0 01-.7-1 .8.8 0 011-.6 2.6 2.6 0 012 1.5 1 1 0 001 .7 1.5 1.5 0 00.8-.8 2.3 2.3 0 012.3-1.4.9.9 0 01.8.8 1 1 0 01-.9.8c-.3-.1-.6.2-.7.5a2.9 2.9 0 01-2 1.6z" id="Trazado_10522" data-name="Trazado 10522"/><path class="cls-3" d="M31.6 37.6h-.1a2.7 2.7 0 01-2.2-1.6 1.1 1.1 0 00-.9-.6.8.8 0 01-.6-1 .7.7 0 01.9-.6 2.6 2.6 0 012 1.5 1.1 1.1 0 001 .7.8.8 0 01.7.9.8.8 0 01-.8.7z" id="Trazado_10523" data-name="Trazado 10523"/></g><g id="Grupo_11523" data-name="Grupo 11523"><path class="cls-3" d="M30.2 45.4a2.3 2.3 0 01-1.1-.3 4.5 4.5 0 01-1.1-1.3l-1.1-.8a.8.8 0 01.5-1.5 3.6 3.6 0 011.9 1.5 1.6 1.6 0 00.7.7h.4a1.6 1.6 0 00.8-.8 2.3 2.3 0 012.3-1.4.7.7 0 01.7.8.8.8 0 01-.8.8.6.6 0 00-.7.4 3.2 3.2 0 01-1.9 1.7z" id="Trazado_10524" data-name="Trazado 10524"/><path class="cls-3" d="M36.5 45.3a2.5 2.5 0 01-2.4-1.6 1.3 1.3 0 00-.8-.6.8.8 0 11.3-1.5 2.6 2.6 0 012 1.5.8.8 0 001 .6 1.3 1.3 0 00.8-.7 2.3 2.3 0 012.3-1.4.8.8 0 01.8.8 1 1 0 01-.9.8.6.6 0 00-.7.4 2.8 2.8 0 01-2 1.7z" id="Trazado_10525" data-name="Trazado 10525"/><path class="cls-3" d="M42.8 45.4h-.1a2.7 2.7 0 01-2.2-1.6 1.6 1.6 0 00-.9-.7.7.7 0 01-.6-.9.7.7 0 01.9-.6 2.6 2.6 0 012 1.5 1.2 1.2 0 001 .7.8.8 0 01.7.9.8.8 0 01-.8.7z" id="Trazado_10526" data-name="Trazado 10526"/></g></g><path class="cls-1" d="M0 48.3h65v16.74H0z"/><path class="cls-2" d="M45.4 61.3h-7.2a1.2 1.2 0 01-1.2-1.2 1.3 1.3 0 011.2-1.2h7.2a1.3 1.3 0 011.2 1.2 1.2 1.2 0 01-1.2 1.2zm7.7 0h-.6a1.2 1.2 0 01-1.2-1.2 1.3 1.3 0 011.2-1.2h.6a1.2 1.2 0 011.2 1.2 1.2 1.2 0 01-1.2 1.2zm-34.1 0h-7.1a1.2 1.2 0 01-1.2-1.2 1.2 1.2 0 011.2-1.2H19a1.2 1.2 0 011.2 1.2 1.2 1.2 0 01-1.2 1.2z"/><path d="M31 61.3H18.5a1.2 1.2 0 01-1.2-1.2 1.3 1.3 0 011.2-1.2H31a1.2 1.2 0 011.2 1.2 1.2 1.2 0 01-1.2 1.2zm4.5-6.1H11.9a1.2 1.2 0 110-2.4h23.6a1.2 1.2 0 010 2.4z" fill="#82d400"/><path class="cls-2" d="M53.1 55.2H34.7a1.2 1.2 0 010-2.4h18.4a1.2 1.2 0 010 2.4zm-40.8 0h-.4a1.2 1.2 0 110-2.4h.4a1.2 1.2 0 010 2.4z"/></svg>