<svg version="1.1" id="Capa_1" xmlns="http://www.w3.org/2000/svg" xmlns:xlink="http://www.w3.org/1999/xlink" x="0" y="0" viewBox="0 0 202.4 140.4" xml:space="preserve"><style>.st1{fill:#95a6b1}.st2{fill:none}.st4{fill:#4da12e}</style><path d="M28.8 17c-1.9 0-3.7-1.1-4.6-2.9-1-2.7.4-5.5 3-6.5 2.3-.8 4.8.1 6 2.2v.1c.5 1.2.6 2.5.1 3.7-.4 1.3-1.4 2.4-2.6 3-.5.3-1.2.4-1.9.4zm.2-8c-.4 0-.8.1-1.1.2-1.8.6-2.7 2.6-2.1 4.3.7 1.6 2.7 2.4 4.4 1.6.8-.4 1.5-1.1 1.8-2 .3-.8.3-1.7-.1-2.5-.6-1-1.8-1.6-2.9-1.6z" fill="#19a500"/><path class="st1" d="M45.2 10.7h-6.6c-.8 0-1.4-.6-1.4-1.4V6.5c0-.8.6-1.4 1.4-1.4h6.6c.8 0 1.4.6 1.4 1.4v2.8c0 .7-.6 1.4-1.4 1.4zm-6.4-1.6H45V6.7h-6.2v2.4zm6.4-2.4zm8.2 35.5H31.6c-.4 0-.8-.4-.8-.8v-7.1h-.2c-1.2 0-2.1-.9-2.1-2.1v-.6c0-1.2.9-2.1 2.1-2.1h.2V25h-.2c-1.2 0-2.1-.9-2.1-2.1v-.6c0-1.2.9-2.1 2.1-2.1h.2v-.9c0-.4.4-.8.8-.8s.8.4.8.8V21c0 .4-.4.8-.8.8h-1c-.3 0-.5.2-.5.5v.6c0 .3.2.5.5.5h1c.4 0 .8.4.8.8v6.1c0 .4-.4.8-.8.8h-1c-.3 0-.5.2-.5.5v.6c0 .3.2.5.5.5h1c.4 0 .8.4.8.8v7.1h20.2v-7.1c0-.4.4-.8.8-.8h1.1c.2 0 .4-.2.4-.4v-.7c0-.3-.1-.5-.4-.5h-1.1c-.4 0-.8-.4-.8-.8v-6.1c0-.4.4-.8.8-.8h1.1c.2 0 .4-.2.4-.4v-.7c0-.2-.1-.3-.1-.4 0 0-.1-.1-.3-.1h-1.1c-.4 0-.8-.4-.8-.8v-6.5H37.4c-.4 0-.8-.4-.8-.8s.4-.8.8-.8h16c.4 0 .8.4.8.8v6.5h.5c.5 0 1 .3 1.4.7.3.4.5.9.5 1.5v.6c0 1.1-.9 2-2 2h-.3v4.5h.5c.5 0 1 .3 1.4.7.3.4.5.9.5 1.5v.6c0 .5-.2 1-.6 1.4-.4.4-.9.6-1.4.6h-.3v7.1c-.2.4-.6.8-1 .8z"/><path class="st1" d="M49.2 23H35.8c-.4 0-.8-.4-.8-.8s.4-.8.8-.8h13.4c.4 0 .8.4.8.8s-.4.8-.8.8zm0 9.3H35.8c-.4 0-.8-.4-.8-.8s.4-.8.8-.8h13.4c.4 0 .8.4.8.8s-.4.8-.8.8zM54.9 46H30.2c-.9 0-1.7-.8-1.7-1.7v-2c0-.9.8-1.7 1.7-1.7h24.7c.9 0 1.7.8 1.7 1.7v2c0 .9-.8 1.7-1.7 1.7zm-24.7-3.8c-.1 0-.1 0-.1.1v2c0 .1 0 .1.1.1h24.7c.1 0 .1 0 .1-.1v-2c0-.1 0-.1-.1-.1H30.2zm24.6-27.7H36.5c-.4 0-.8-.4-.8-.8s.4-.8.8-.8h18.3c.1 0 .1-.1.1-.1v-2c0-.1 0-.1-.1-.1H36.2c-.4 0-.8-.4-.8-.8s.4-.8.8-.8h18.6c.9 0 1.7.8 1.7 1.7v1.9c.1.8-.6 1.7-1.5 1.8h-.2zm43.9-3.8h-6.6c-.8 0-1.4-.6-1.4-1.4V6.5c0-.8.6-1.4 1.4-1.4h6.6c.8 0 1.4.6 1.4 1.4v2.8c0 .7-.6 1.4-1.4 1.4zm-6.4-1.6h6.2V6.7h-6.2v2.4zm6.4-2.4zm8.3 35.5H85.2c-.4 0-.8-.4-.8-.8v-7.1h-.3c-1.2 0-2.1-.9-2.1-2.1v-.6c0-1.2.9-2.1 2.1-2.1h.3V25h-.3c-1.2 0-2.1-.9-2.1-2.1v-.6c0-1.2.9-2.1 2.1-2.1h.3v-6.5c0-.4.4-.8.8-.8s.8.4.8.8V21c0 .4-.4.8-.8.8h-1.1c-.3 0-.5.2-.5.5v.6c0 .3.2.5.5.5h1.1c.4 0 .8.4.8.8v6.1c0 .4-.4.8-.8.8h-1.1c-.3 0-.5.2-.5.5v.6c0 .3.2.5.5.5h1.1c.4 0 .8.4.8.8v7.1h20.2v-7.1c0-.4.4-.8.8-.8h1c.3 0 .5-.2.5-.5v-.6c0-.3-.2-.5-.5-.5h-1c-.4 0-.8-.4-.8-.8v-6.1c0-.4.4-.8.8-.8h1c.3 0 .5-.2.5-.5v-.6c0-.3-.2-.5-.5-.5h-1c-.4 0-.8-.4-.8-.8v-6.5H90.9c-.4 0-.8-.4-.8-.8s.4-.8.8-.8H107c.4 0 .8.4.8.8v6.5h.2c1.2 0 2.1.9 2.1 2.1v.6c0 1.2-.9 2.1-2.1 2.1h-.2v4.5h.2c1.2 0 2.1.9 2.1 2.1v.6c0 1.2-.9 2.1-2.1 2.1h-.2v7.1c0 .4-.4.8-.8.8z"/><path class="st1" d="M102.8 23H89.4c-.4 0-.8-.4-.8-.8s.4-.8.8-.8h13.4c.4 0 .8.4.8.8s-.4.8-.8.8zm0 9.3H89.4c-.4 0-.8-.4-.8-.8s.4-.8.8-.8h13.4c.4 0 .8.4.8.8s-.4.8-.8.8zm5.6 13.7H83.7c-.9 0-1.7-.8-1.7-1.7v-2c0-.9.8-1.7 1.7-1.7h24.7c.9 0 1.7.8 1.7 1.7v2c0 .9-.8 1.7-1.7 1.7zm-24.7-3.8c-.1 0-.1 0-.1.1v2c0 .1 0 .1.1.1h24.7c.1 0 .1 0 .1-.1v-2c0-.1 0-.1-.1-.1H83.7zm24.7-27.7h-25c-1.1 0-2-.9-2-2v-1.4c0-1.1.9-2 2-2h25c.9 0 1.7.8 1.7 1.7v1.9c0 .4-.1.8-.4 1.2s-.7.6-1.1.6h-.2zm-25-3.8c-.2 0-.4.2-.4.4v1.4c0 .2.2.4.4.4h25l.1-.2v-1.9c0-.1 0-.1-.1-.1h-25zm68.9 0h-6.6c-.8 0-1.4-.6-1.4-1.4V6.5c0-.8.6-1.4 1.4-1.4h6.6c.8 0 1.4.6 1.4 1.4v2.8c0 .7-.6 1.4-1.4 1.4zm-6.4-1.6h6.2V6.7h-6.2v2.4zm6.4-2.4zm8.2 35.5h-21.8c-.4 0-.8-.4-.8-.8v-7.1h-.2c-1.2 0-2.1-.9-2.1-2.1v-.6c0-1.2.9-2.1 2.1-2.1h.2V25h-.2c-1.2 0-2.1-.9-2.1-2.1v-.6c0-1.2.9-2.1 2.1-2.1h.2v-6.5c0-.4.4-.8.8-.8s.8.4.8.8V21c0 .4-.4.8-.8.8h-1c-.3 0-.5.2-.5.5v.6c0 .3.2.5.5.5h1c.4 0 .8.4.8.8v6.1c0 .4-.4.8-.8.8h-1c-.3 0-.5.2-.5.5v.6c0 .3.2.5.5.5h1c.4 0 .8.4.8.8v7.1h20.2v-7.1c0-.4.4-.8.8-.8h1.1c.3 0 .5-.2.5-.5v-.6c0-.3-.2-.5-.5-.5h-1.1c-.4 0-.8-.4-.8-.8v-6.1c0-.4.4-.8.8-.8h1.1c.3 0 .5-.2.5-.5v-.6c0-.3-.2-.5-.5-.5h-1.1c-.4 0-.8-.4-.8-.8v-6.5h-15.2c-.4 0-.8-.4-.8-.8s.4-.8.8-.8h16c.4 0 .8.4.8.8v6.5h.3c1.2 0 2.1.9 2.1 2.1v.6c0 1.2-.9 2.1-2.1 2.1h-.3v4.5h.3c1.2 0 2.1.9 2.1 2.1v.6c0 1.2-.9 2.1-2.1 2.1h-.3v7.1c0 .4-.4.8-.8.8z"/><path class="st1" d="M156.3 23h-13.4c-.4 0-.8-.4-.8-.8s.4-.8.8-.8h13.4c.4 0 .8.4.8.8s-.4.8-.8.8zm0 9.3h-13.4c-.4 0-.8-.4-.8-.8s.4-.8.8-.8h13.4c.4 0 .8.4.8.8s-.4.8-.8.8zM162 46h-24.7c-.9 0-1.7-.8-1.7-1.7v-2c0-.9.8-1.7 1.7-1.7H162c.9 0 1.7.8 1.7 1.7v2c0 .9-.8 1.7-1.7 1.7zm-24.7-3.8c-.1 0-.1 0-.1.1v2c0 .1 0 .1.1.1H162c.1 0 .1 0 .1-.1v-2c0-.1 0-.1-.1-.1h-24.7zm24.6-27.7h-25c-1.1-.1-1.9-1-1.9-2v-1.4c-.1-1 .7-1.9 1.7-2h25.2c.9 0 1.7.7 1.8 1.6v2c0 1-.8 1.8-1.8 1.8zm-25-3.8c-.2 0-.3.2-.3.3v1.5c0 .2.2.4.4.4h24.9c.1 0 .2-.1.2-.2v-1.9s-.1-.1-.2-.1h-25zM78 65.8h-6.6c-.8 0-1.4-.6-1.4-1.4v-2.8c0-.8.6-1.4 1.4-1.4H78c.8 0 1.4.6 1.4 1.4v2.8c0 .7-.6 1.4-1.4 1.4zm-6.4-1.6h6.2v-2.4h-6.2v2.4zm6.4-2.4zm8.3 35.5H64.5c-.4 0-.8-.4-.8-.8v-7.1h-.3c-1.2 0-2.1-.9-2.1-2.1v-.6c0-1.2.9-2.1 2.1-2.1h.3V80h-.4c-.5 0-1-.2-1.4-.6-.4-.4-.6-.9-.6-1.4v-.6c0-1.2.9-2.1 2.1-2.1h.3v-6.5c0-.4.4-.8.8-.8s.8.4.8.8v7.3c0 .4-.4.8-.8.8h-1.1c-.3 0-.5.2-.5.5v.6c0 .1.1.2.1.3s.1.1.3.1h1.2c.4 0 .8.4.8.8v6.2c0 .4-.4.8-.8.8h-1.1c-.3 0-.5.2-.5.5v.6c0 .3.2.5.5.5h1.1c.4 0 .8.4.8.8v7.1h20.2v-7.1c0-.4.4-.8.8-.8h1c.3 0 .5-.2.5-.5v-.6c0-.3-.2-.5-.5-.5h-1c-.4 0-.8-.4-.8-.8v-6.2c0-.4.4-.8.8-.8h1c.3 0 .5-.1.5-.4v-.6c0-.3-.2-.5-.5-.5h-1c-.4 0-.8-.4-.8-.8v-6.5H70.2c-.4 0-.8-.4-.8-.8s.4-.8.8-.8h16.1c.4 0 .8.4.8.8v6.5h.2c1.2 0 2.1.9 2.1 2.1v.8c-.1 1.1-1.1 1.9-2.2 1.8h-.1v4.6h.2c1.2 0 2.1.9 2.1 2.1v.6c0 1.2-.9 2.1-2.1 2.1h-.2v7.1c0 .4-.4.8-.8.8z"/><path class="st1" d="M82.1 78.1H68.7c-.4 0-.8-.4-.8-.8s.4-.8.8-.8h13.4c.4 0 .8.4.8.8s-.4.8-.8.8zm0 9.3H68.7c-.4 0-.8-.4-.8-.8s.4-.8.8-.8h13.4c.4 0 .8.4.8.8s-.4.8-.8.8zm5.6 13.7H63c-.9 0-1.7-.8-1.7-1.7v-2c0-.9.8-1.7 1.7-1.7h24.7c.9 0 1.7.8 1.7 1.7v2c0 .9-.8 1.7-1.7 1.7zM63 97.3c-.1 0-.1 0-.1.1v2c0 .1 0 .1.1.1h24.7c.1 0 .1 0 .1-.1v-2c0-.1 0-.1-.1-.1H63zm-.3-27.7c-1.1 0-2-.9-2-2v-1.4c0-1.1.9-2 2-2h25c.9 0 1.7.8 1.7 1.7v1.9c0 .9-.7 1.7-1.6 1.8H62.7zm0-3.8c-.2 0-.4.2-.4.4v1.4c0 .2.2.4.4.4h25s.1-.1.1-.2v-1.9c0-.1 0-.1-.1-.1h-25zm-37.2 0h-6.6c-.8 0-1.4-.6-1.4-1.4v-2.8c0-.8.6-1.4 1.4-1.4h6.6c.8 0 1.4.6 1.4 1.4v2.8c0 .7-.6 1.4-1.4 1.4zm-6.4-1.6h6.2v-2.4h-6.2v2.4zm6.4-2.4zm8.3 35.5H12c-.4 0-.8-.4-.8-.8v-7.1h-.5c-.5 0-1-.3-1.4-.7s-.5-.9-.5-1.5v-.6c0-.5.2-1 .6-1.4.4-.4.9-.6 1.4-.6h.3V80h-.3c-1.1 0-2-.9-2-2v-.7c0-1.1.9-2 2-2h.3v-6.5c0-.4.4-.8.8-.8s.8.4.8.8v7.3c0 .4-.4.8-.8.8h-1.1c-.2 0-.4.2-.4.4v.7c0 .2.2.4.4.4H12c.4 0 .8.4.8.8v6.2c0 .4-.4.8-.8.8h-1.1c-.1 0-.2.1-.3.1 0 0-.1.1-.1.3v.7c0 .2.1.3.1.4 0 0 .1.1.3.1H12c.4 0 .8.4.8.8v7.1H33v-7.1c0-.4.4-.8.8-.8h1c.3 0 .5-.2.5-.5v-.6c0-.3-.2-.5-.5-.5h-1c-.4 0-.8-.4-.8-.8v-6.2c0-.4.4-.8.8-.8h1c.3 0 .5-.1.5-.4v-.6c0-.3-.2-.5-.5-.5h-1c-.4 0-.8-.4-.8-.8v-6.5H17.7c-.4 0-.8-.4-.8-.8s.4-.8.8-.8h16.1c.4 0 .8.4.8.8v6.5h.2c1.2 0 2.1.9 2.1 2.1v.8c-.1 1.1-1.1 1.9-2.2 1.8h-.1v4.6h.2c1.2 0 2.1.9 2.1 2.1v.6c0 1.2-.9 2.1-2.1 2.1h-.2v7.1c0 .4-.4.8-.8.8z"/><path class="st1" d="M29.6 78.1H16.2c-.4 0-.8-.4-.8-.8s.4-.8.8-.8h13.4c.4 0 .8.4.8.8s-.4.8-.8.8zm0 9.3H16.2c-.4 0-.8-.4-.8-.8s.4-.8.8-.8h13.4c.4 0 .8.4.8.8s-.4.8-.8.8zm5.7 13.7H10.6c-.9 0-1.7-.8-1.7-1.7v-2c0-.9.8-1.7 1.7-1.7h24.7c.9 0 1.7.8 1.7 1.7v2c0 .9-.8 1.7-1.7 1.7zm-24.7-3.8c-.1 0-.1 0-.1.1v2c0 .1 0 .1.1.1h24.7c.1 0 .1 0 .1-.1v-2c0-.1 0-.1-.1-.1H10.6zm-.4-27.7c-1.1-.1-1.9-.9-2-1.9v-1.5c0-1.1.9-2 2-2h25c.9 0 1.7.8 1.7 1.7v1.9c0 .9-.7 1.7-1.6 1.8H10.2zm0-3.8c-.2 0-.4.2-.4.4v1.4c0 .2.2.4.5.4h24.9s.1-.1.1-.2v-1.9c0-.1 0-.1-.1-.1h-25zm172.8 0h-6.6c-.8 0-1.4-.6-1.4-1.4v-2.8c0-.8.6-1.4 1.4-1.4h6.6c.8 0 1.4.6 1.4 1.4v2.8c0 .7-.6 1.4-1.4 1.4zm-6.4-1.6h6.2v-2.4h-6.2v2.4zm6.4-2.4zm8.3 35.5h-21.9c-.4 0-.8-.4-.8-.8v-7.1h-.2c-1.2 0-2.1-.9-2.1-2.1v-.6c0-1.2.9-2.1 2.1-2.1h.2V80h-.3c-1.1 0-2-.9-2-2v-.6c0-1.2.9-2.1 2.1-2.1h.2v-6.5c0-.4.4-.8.8-.8s.8.4.8.8v7.3c0 .4-.4.8-.8.8h-1c-.3 0-.5.2-.5.5v.6c0 .1.1.2.1.3 0 0 .1.1.3.1h1.1c.4 0 .8.4.8.8v6.2c0 .4-.4.8-.8.8h-1c-.3 0-.5.2-.5.5v.6c0 .3.2.5.5.5h1c.4 0 .8.4.8.8v7.1h20.3v-7.1c0-.4.4-.8.8-.8h1c.3 0 .5-.2.5-.5v-.6c0-.3-.2-.5-.5-.5h-1c-.4 0-.8-.4-.8-.8v-6.2c0-.4.4-.8.8-.8h1c.2 0 .3-.1.4-.1s.1-.1.1-.3v-.6c0-.3-.2-.5-.5-.5h-1c-.4 0-.8-.4-.8-.8v-6.5h-15.3c-.4 0-.8-.4-.8-.8s.4-.8.8-.8h16.1c.4 0 .8.4.8.8v6.5h.2c1.2 0 2.1.9 2.1 2.1v.8c-.1 1.1-1 1.9-2.2 1.8h-.1v4.6h.2c1.2 0 2.1.9 2.1 2.1v.6c0 1.2-.9 2.1-2.1 2.1h-.2v7.1c0 .4-.4.8-.8.8z"/><path class="st1" d="M187 78.1h-13.3c-.4 0-.8-.4-.8-.8s.4-.8.8-.8H187c.4 0 .8.4.8.8s-.4.8-.8.8zm0 9.3h-13.3c-.4 0-.8-.4-.8-.8s.4-.8.8-.8H187c.4 0 .8.4.8.8s-.4.8-.8.8zm5.7 13.7H168c-.9 0-1.7-.8-1.7-1.7v-2c0-.9.8-1.7 1.7-1.7h24.7c.9 0 1.7.8 1.7 1.7v2c0 .9-.8 1.7-1.7 1.7zM168 97.3c-.1 0-.1 0-.1.1v2c0 .1 0 .1.1.1h24.7c.1 0 .1 0 .1-.1v-2c0-.1 0-.1-.1-.1H168zm-.3-27.7c-1.1 0-2-.9-2-2v-1.4c0-1.1.9-2 2-2h25c.9 0 1.7.8 1.7 1.7v1.9c0 .9-.7 1.7-1.6 1.8h-25.1zm0-3.8c-.2 0-.4.2-.4.4v1.4c0 .2.2.4.4.4h25s.1-.1.1-.2v-1.9c0-.1 0-.1-.1-.1h-25zm-37.2 0h-6.6c-.8 0-1.4-.6-1.4-1.4v-2.8c0-.8.6-1.4 1.4-1.4h6.6c.8 0 1.4.6 1.4 1.4v2.8c0 .7-.6 1.4-1.4 1.4zm-6.4-1.6h6.2v-2.4h-6.2v2.4zm6.4-2.4zm8.3 35.5H117c-.4 0-.8-.4-.8-.8v-7.1h-.3c-1.2 0-2.1-.9-2.1-2.1v-.6c0-1.2.9-2.1 2.1-2.1h.3V80h-.4c-1.1 0-2-.9-2-2v-.6c0-1.2.9-2.1 2.1-2.1h.3v-6.5c0-.4.4-.8.8-.8s.8.4.8.8v7.3c0 .4-.4.8-.8.8h-1.1c-.3 0-.5.2-.5.5v.6c0 .1.1.2.1.3 0 0 .1.1.3.1h1.2c.4 0 .8.4.8.8v6.2c0 .4-.4.8-.8.8h-1.1c-.3 0-.5.2-.5.5v.6c0 .3.2.5.5.5h1.1c.4 0 .8.4.8.8v7.1H138v-7.1c0-.4.4-.8.8-.8h1c.3 0 .5-.2.5-.5v-.6c0-.3-.2-.5-.5-.5h-1c-.4 0-.8-.4-.8-.8v-6.2c0-.4.4-.8.8-.8h1c.2 0 .3-.1.4-.1s.1-.1.1-.3v-.6c0-.3-.2-.5-.5-.5h-1c-.4 0-.8-.4-.8-.8v-6.5h-15.3c-.4 0-.8-.4-.8-.8s.4-.8.8-.8h16.1c.4 0 .8.4.8.8v6.5h.2c1.2 0 2.1.9 2.1 2.1v.8c-.1 1.1-1 1.9-2.2 1.8h-.1v4.6h.2c1.2 0 2.1.9 2.1 2.1v.6c0 1.2-.9 2.1-2.1 2.1h-.2v7.1c0 .4-.4.8-.8.8z"/><path class="st1" d="M134.6 78.1h-13.4c-.4 0-.8-.4-.8-.8s.4-.8.8-.8h13.4c.4 0 .8.4.8.8s-.4.8-.8.8zm0 9.3h-13.4c-.4 0-.8-.4-.8-.8s.4-.8.8-.8h13.4c.4 0 .8.4.8.8s-.4.8-.8.8zm5.6 13.7h-24.7c-.9 0-1.7-.8-1.7-1.7v-2c0-.9.8-1.7 1.7-1.7h24.7c.9 0 1.7.8 1.7 1.7v2c0 .9-.8 1.7-1.7 1.7zm-24.7-3.8c-.1 0-.1 0-.1.1v2c0 .1 0 .1.1.1h24.7c.1 0 .1 0 .1-.1v-2c0-.1 0-.1-.1-.1h-24.7zm-.3-27.7c-1.1 0-2-.9-2-2v-1.4c0-1.1.9-2 2-2h25c.9 0 1.7.8 1.7 1.7v1.9c0 .9-.7 1.7-1.6 1.8h-25.1zm0-3.8c-.2 0-.4.2-.4.4v1.4c0 .2.2.4.4.4h25s.1-.1.1-.2v-1.9c0-.1 0-.1-.1-.1h-25z"/><path class="st2" d="M0 0h202.4v140.4H0z" id="Rectángulo_3799"/><defs><path id="SVGID_1_" d="M44.4 106.9h113.4v28.3H44.4z"/></defs><clipPath id="SVGID_2_"><use xlink:href="#SVGID_1_" overflow="visible"/></clipPath><g clip-path="url(#SVGID_2_)"><path class="st2" d="M44.4 106.9h113.4v28.3H44.4z"/><path class="st4" d="M122.8 128.9h-12.2c-1.1 0-2-.9-2-2s.9-2 2-2h12.2c1.1 0 2 .9 2 2s-.8 2-2 2zm13.1 0h-1.1c-1.1 0-2-.9-2-2s.9-2 2-2h1.1c1.1 0 2 .9 2 2s-.9 2-2 2zm-57.6 0h-12c-1.1 0-2-.9-2-2s.9-2 2-2h12c1.1 0 2 .9 2 2s-.9 2-2 2z"/><path d="M98.7 128.9H77.5c-1.1 0-2-.9-2-2s.9-2 2-2h21.2c1.1 0 2 .9 2 2s-.9 2-2 2zm7.4-10.2H66.3c-1.1 0-2-.9-2-2s.9-2 2-2h39.8c1.1 0 2 .9 2 2s-.9 2-2 2z" fill="#96d200"/><path class="st4" d="M135.9 118.7h-31c-1.1 0-2-.9-2-2s.9-2 2-2h31c1.1 0 2 .9 2 2s-.9 2-2 2zm-68.8 0h-.8c-1.1 0-2-.9-2-2s.9-2 2-2h.8c1.1 0 2 .9 2 2s-.9 2-2 2z"/></g></svg>