<svg xmlns="http://www.w3.org/2000/svg" viewBox="0 0 84 84"><defs><style>.cls-2{fill:#95a6b1}.cls-5,.cls-6{fill:none}.cls-6{stroke:#4da12e;stroke-linecap:round;stroke-linejoin:round;stroke-width:3px}</style></defs><g style="isolation:isolate"><g id="Capa_1" data-name="Capa 1"><path class="cls-2" d="M45.6 62.7l-.7-.2-.7-.2a2 2 0 01-1-2.5l1.2-2.8c0-.1 0-.2-.1-.2l-.2-.2-2.1-.3-5 .4-.8-.2a1.2 1.2 0 01-.5-.5l-1.2-5.4-4.5-2-8.1-1.3-.8-.2-.6-.3-5.4-4.1a1.9 1.9 0 01-.7-1.4 2 2 0 01.6-1.5l1-.8 3.1-3.1.7-5.4v-3.6l-.7-2.1a.9.9 0 01.5-1.1.8.8 0 011 .6l.7 2.1a.9.9 0 01.1.5v3.8l-.8 5.7c0 .2-.1.3-.2.5L16.1 41a.3.3 0 00-.1.2c0 .1 0 .2.1.2l5.3 4.1.8.2 8.1 1.3h.2l5 2.2a.7.7 0 01.4.6l1.3 5.2 4.6-.3h.5l2.1.4a1.6 1.6 0 011.3.9 1.5 1.5 0 01.1 1.6l-1.1 2.8c-.1.2 0 .3.1.4l.7.3h.2c0-.1.1-.1.1-.2l2.1-9.2c0-.1 0-.1-.1-.2l-1.2-1.8a1.8 1.8 0 01-.3-1.6l2.1-6.2a.8.8 0 011.1-.5.8.8 0 01.5 1l-2.2 6.2a.3.3 0 00.1.2l1.2 1.8a1.6 1.6 0 01.3 1.5l-2 9.1a1.9 1.9 0 01-1 1.3zm4-35.1l-.5-.2-4.6-3.7h-.1l-4.9-.6a1.9 1.9 0 01-1.6-1.5l-.5-2.3-1.9-4.8a1.6 1.6 0 01.1-1.5l2.8-5.6a1.2 1.2 0 01.6-.6l2.1-1.6h.1a.4.4 0 00-.1-.3h-.4l-2.2 1.5h-.2l-3.2 1.7-.4.2-5.3 1.1h-.2l-2.1 2a.8.8 0 01-1.1-1l2.1-2.1a1.8 1.8 0 01.9-.4l5.3-1.2 3.2-1.6 2.3-1.6a2 2 0 012.6.3 2.6 2.6 0 01.4 1.5 2 2 0 01-.8 1.2l-2.1 1.6h-.1L37 13.7c0 .1-.1.2 0 .2l1.9 4.7c.1.1.1.2.1.4l.5 2.3a.2.2 0 00.2.2l4.9.6a1.1 1.1 0 01.8.3l4.7 3.8a.8.8 0 01-.5 1.4z"/><path d="M22.2 22.4a5.6 5.6 0 110-11.1 5.5 5.5 0 015.5 5.5 5.6 5.6 0 01-5.5 5.6zm0-9.5a3.9 3.9 0 00-4 3.9 4 4 0 004 4 3.9 3.9 0 003.9-4 3.8 3.8 0 00-3.9-3.9z" fill="#19a500" id="Trazado_5703" data-name="Trazado 5703"/><path class="cls-5" d="M0 0h84v84H0z" id="Rectángulo_3799" data-name="Rectángulo 3799"/><path class="cls-2" d="M44.4 40.1h-1.7a.9.9 0 01-.8-.8.8.8 0 01.8-.8h1.7a.7.7 0 01.8.8.8.8 0 01-.8.8z"/><path class="cls-2" d="M69 42.7H42.7a.8.8 0 01-.8-.8v-11a.7.7 0 01.8-.8H69a.7.7 0 01.8.8.8.8 0 01-.8.8H43.5v9.4H69a.8.8 0 010 1.6z"/><path class="cls-2" d="M42.7 43.7h-5.1a.7.7 0 01-.8-.8V29.8a.8.8 0 01.8-.8h5.1a.9.9 0 01.8.8v13.1a.8.8 0 01-.8.8zm-4.3-1.6h3.5V30.6h-3.5z"/><path class="cls-2" d="M44.4 37.2h-1.7a.9.9 0 01-.8-.8.8.8 0 01.8-.8h1.7a.8.8 0 01.8.8.9.9 0 01-.8.8zm0-2.9h-1.7a.9.9 0 01-.8-.8.8.8 0 01.8-.8h1.7a.7.7 0 01.8.8.8.8 0 01-.8.8zm14.5 8.4a.9.9 0 01-.8-.8v-5a.9.9 0 01.8-.8.8.8 0 01.8.8v5a.8.8 0 01-.8.8zm0-8.7a.8.8 0 01-.8-.8v-2.3a.8.8 0 01.8-.8.7.7 0 01.8.8v2.3a.7.7 0 01-.8.8z"/><path class="cls-2" d="M64.7 31.7H49.6a.9.9 0 01-.8-.8v-8.1a.8.8 0 01.8-.8h15.1a.8.8 0 01.8.8v8.1a.9.9 0 01-.8.8zm-14.3-1.6h13.5v-6.5H50.4z"/><path class="cls-2" d="M57.1 23.6a.9.9 0 01-.8-.8v-5a.9.9 0 01.8-.8.8.8 0 01.8.8v5a.8.8 0 01-.8.8z"/><path class="cls-2" d="M60.6 18.6h-6.7a.8.8 0 01-.8-.8.9.9 0 01.8-.8h6.7a.9.9 0 01.8.8.8.8 0 01-.8.8zm4.1 9H49.6a.8.8 0 010-1.6h15.1a.8.8 0 010 1.6z"/><path class="cls-5" d="M0 63.1h84v20.93H0z"/><path class="cls-6" d="M49.1 77.9h9m8.9 0h.8m-51.6 0h8.9"/><path d="M24.5 77.9h15.7m-24-7.6h29.5" stroke="#96d200" stroke-linecap="round" stroke-linejoin="round" stroke-width="3" fill="none"/><path class="cls-6" d="M44.8 70.3h23m-51.6 0h.6"/><path class="cls-5" d="M0 0h84v84H0z"/></g></g></svg>