<svg version="1.1" id="Capa_1" xmlns="http://www.w3.org/2000/svg" xmlns:xlink="http://www.w3.org/1999/xlink" x="0" y="0" viewBox="0 0 118.5 123.8" xml:space="preserve"><style>.st0{fill:#95a6b1}.st2{fill:none}.st4{fill:#4da12e}</style><path class="st0" d="M108.4 77.6c-3.5 0-5.3-1.8-6.9-3.3-1.5-1.4-2.8-2.7-5.4-2.7-2.6 0-3.9 1.2-5.4 2.7-1.6 1.5-3.4 3.3-6.9 3.3-3.5 0-5.3-1.7-6.9-3.3-1.5-1.5-2.8-2.7-5.4-2.7s-4 1.3-5.4 2.7c-1.6 1.5-3.3 3.3-6.9 3.3-3.5 0-5.3-1.8-6.9-3.3-1.5-1.4-2.7-2.7-5.3-2.7-2.6 0-3.9 1.3-5.5 2.7-1.6 1.5-3.4 3.3-6.8 3.3s-5.3-1.7-6.8-3.3c-1.5-1.5-2.8-2.7-5.5-2.7s-3.9 1.3-5.5 2.7c-1.6 1.5-3.4 3.3-6.8 3.3-.6 0-1-.4-1-1s.4-1 1-1c2.6 0 3.9-1.3 5.5-2.7 1.6-1.5 3.4-3.3 6.8-3.3s5.3 1.7 6.8 3.3c1.5 1.5 2.8 2.7 5.5 2.7 2.6 0 3.9-1.3 5.5-2.7 1.6-1.5 3.4-3.3 6.8-3.3s5.2 1.7 6.7 3.3c1.5 1.5 2.8 2.7 5.5 2.7s4-1.3 5.4-2.7c1.6-1.5 3.3-3.3 6.9-3.3s5.3 1.7 6.9 3.3c1.5 1.5 2.8 2.7 5.4 2.7 2.7 0 4-1.3 5.5-2.7 1.6-1.5 3.3-3.3 6.8-3.3 3.4 0 5.2 1.7 6.8 3.3 1.5 1.5 2.8 2.7 5.5 2.7.6 0 1 .4 1 1s-.4 1-1 1zm0 11.4c-3.5 0-5.3-1.8-6.9-3.3-1.5-1.4-2.8-2.7-5.4-2.7-2.6 0-3.9 1.2-5.4 2.7-1.6 1.5-3.4 3.3-6.9 3.3-3.5 0-5.3-1.7-6.9-3.3-1.5-1.5-2.8-2.7-5.4-2.7s-4 1.3-5.4 2.7c-1.6 1.5-3.3 3.3-6.9 3.3-3.5 0-5.3-1.8-6.9-3.3-1.4-1.5-2.7-2.7-5.3-2.7-2.6 0-3.9 1.3-5.5 2.7-1.5 1.6-3.3 3.3-6.8 3.3s-5.3-1.7-6.8-3.3C26.3 84.3 25 83 22.4 83s-3.9 1.3-5.5 2.7c-1.6 1.5-3.4 3.3-6.8 3.3-.6 0-1-.4-1-1s.4-1 1-1c2.6 0 3.9-1.3 5.5-2.7 1.6-1.5 3.4-3.3 6.8-3.3s5.3 1.7 6.8 3.3c1.5 1.5 2.8 2.7 5.5 2.7 2.6 0 3.9-1.3 5.5-2.7 1.6-1.5 3.4-3.3 6.8-3.3s5.2 1.7 6.7 3.3c1.5 1.5 2.8 2.7 5.5 2.7s4-1.3 5.4-2.7c1.6-1.5 3.3-3.3 6.9-3.3s5.3 1.7 6.9 3.3c1.5 1.5 2.8 2.7 5.4 2.7 2.7 0 4-1.3 5.5-2.7 1.6-1.5 3.3-3.3 6.8-3.3 3.4 0 5.2 1.7 6.8 3.3 1.5 1.5 2.8 2.7 5.5 2.7.6 0 1 .4 1 1s-.4 1-1 1zM42.1 66.1H30.2c-.6 0-1-.4-1-1s.4-1 1-1h11.9c.6 0 1 .4 1 1s-.4 1-1 1zm41.1-22.8c-.3 0-.5-.1-.7-.3-.2-.2-.3-.4-.3-.7 0-.3.1-.5.3-.7.3-.3.7-.4 1.1-.2.1 0 .2.1.3.2.2.2.3.5.3.7 0 .3-.1.5-.3.7l-.1.1s-.1.1-.2.1c-.1.1-.3.1-.4.1zm-15.4 0h-36c-.6 0-1-.4-1-1v-7.7c0-.6.4-1 1-1s1 .4 1 1v6.7h35c.6 0 1 .4 1 1s-.4 1-1 1z"/><path d="M31.5 31.2c-1 0-2-.2-3-.5-2.1-.8-3.8-2.4-4.8-4.4-1-2.1-1-4.4-.3-6.5.8-2.1 2.4-3.8 4.4-4.8 4.3-1.9 9.3 0 11.3 4.2.8 2 .9 4.1.3 6.2-.8 2.3-2.4 4.1-4.5 5.1-.9.4-2.1.7-3.4.7zm0-15.1c-.9 0-1.8.2-2.7.6-1.6.7-2.8 2-3.4 3.7-.6 1.6-.5 3.4.2 5s2 2.8 3.7 3.4c1.6.6 3.4.5 5-.2 1.6-.8 2.9-2.2 3.5-3.9.5-1.5.4-3.2-.3-4.8-1.1-2.4-3.5-3.8-6-3.8z" fill="#19a500"/><path class="st0" d="M89.5 43.3h-6.3c-.6 0-1-.4-1-1s.4-1 1-1h5.3v-18c0-.4-.1-.7-.3-1-.2-.3-.6-.4-.9-.4H43.5c-.6 0-1-.4-1-1s.4-1 1-1h43.8c.9 0 1.7.4 2.3 1.1.6.6.9 1.5.9 2.4v19c0 .5-.4.9-1 .9z"/><path class="st0" d="M79.7 21.9H51c-.6 0-1-.4-1-1V14c0-.9.3-1.7.9-2.3s1.4-.9 2.3-.9h24.6c1.6 0 2.9 1.3 2.9 2.9v7.2c0 .6-.4 1-1 1zm-27.7-2h26.7v-6.2c0-.5-.4-.9-.9-.9H53.2c-.3 0-.6.1-.8.4-.3.2-.4.5-.4.8v5.9zm37.6 10H43.3c-.6 0-1-.4-1-1s.4-1 1-1h46.3c.6 0 1 .4 1 1s-.4 1-1 1zm-67.2 41c-.6 0-1-.4-1-1V45c0-2 1.7-3.7 3.7-3.7h42.7c.6 0 1 .4 1 1s-.4 1-1 1H25.1c-.9 0-1.7.8-1.7 1.7v24.9c0 .6-.4 1-1 1zm77.1 1.6c-.6 0-1-.4-1-1V44.6c0-.7-.6-1.3-1.3-1.3h-14c-.6 0-1-.4-1-1s.4-1 1-1h14c1.8 0 3.3 1.5 3.3 3.3v26.9c0 .6-.4 1-1 1z"/><path class="st0" d="M49.8 50.6H22.4c-.6 0-1-.4-1-1s.4-1 1-1h27.4c.6 0 1 .4 1 1s-.4 1-1 1z"/><path class="st0" d="M42.1 73.2c-.6 0-1-.4-1-1V49.5c0-.6.4-1 1-1s1 .4 1 1v22.7c0 .6-.4 1-1 1z"/><path class="st0" d="M42.1 57.6H30.2c-.6 0-1-.4-1-1s.4-1 1-1h11.9c.6 0 1 .4 1 1s-.4 1-1 1z"/><path class="st0" d="M30.2 75.6c-.6 0-1-.4-1-1V49.5c0-.6.4-1 1-1s1 .4 1 1v25.1c0 .6-.4 1-1 1zm19.6-4.2c-.6 0-1-.4-1-1V42.3c0-.6.4-1 1-1s1 .4 1 1v28.1c0 .6-.4 1-1 1zm33.4-16.3H67.8c-.6 0-1-.4-1-1V42.3c0-.6.4-1 1-1s1 .4 1 1v10.8h13.4V42.3c0-.6.4-1 1-1s1 .4 1 1v11.8c0 .6-.4 1-1 1zM58.3 21.9c-.6 0-1-.4-1-1v-9.1c0-.6.4-1 1-1s1 .4 1 1v9.1c0 .6-.4 1-1 1zm7.1 0c-.6 0-1-.4-1-1v-9.1c0-.6.4-1 1-1s1 .4 1 1v9.1c0 .6-.4 1-1 1zm7.3 0c-.6 0-1-.4-1-1v-9.1c0-.6.4-1 1-1s1 .4 1 1v9.1c0 .6-.4 1-1 1zm18.7 34c-.6 0-1-.4-1-1V42.3c0-.6.4-1 1-1s1 .4 1 1v12.6c0 .6-.4 1-1 1zm-32.6 0c-.6 0-1-.4-1-1V42.3c0-.6.4-1 1-1s1 .4 1 1v12.6c0 .6-.4 1-1 1z"/><path class="st2" d="M0 0h118.5v123.8H0z" id="Rectángulo_3799"/><defs><path id="SVGID_1_" d="M.2 93.6h118.4v29.5H.2z"/></defs><clipPath id="SVGID_2_"><use xlink:href="#SVGID_1_" overflow="visible"/></clipPath><g clip-path="url(#SVGID_2_)"><path class="st2" d="M.2 93.6h118.4v29.5H.2z"/><path class="st4" d="M82.1 116.6H69.4c-1.2 0-2.1-.9-2.1-2.1s.9-2.1 2.1-2.1h12.7c1.2 0 2.1.9 2.1 2.1s-.9 2.1-2.1 2.1zm13.7 0h-1.1c-1.2 0-2.1-.9-2.1-2.1s.9-2.1 2.1-2.1h1.1c1.2 0 2.1.9 2.1 2.1s-.9 2.1-2.1 2.1zm-60.2 0H23c-1.2 0-2.1-.9-2.1-2.1s.9-2.1 2.1-2.1h12.5c1.2 0 2.1.9 2.1 2.1s-.8 2.1-2 2.1z"/><path d="M56.9 116.6H34.7c-1.2 0-2.1-.9-2.1-2.1s.9-2.1 2.1-2.1h22.1c1.2 0 2.1.9 2.1 2.1s-.9 2.1-2 2.1zm7.7-10.7H23c-1.2 0-2.1-.9-2.1-2.1s.9-2.1 2.1-2.1h41.6c1.2 0 2.1.9 2.1 2.1s-.9 2.1-2.1 2.1z" fill="#96d200"/><path class="st4" d="M95.8 105.9H63.4c-1.2 0-2.1-.9-2.1-2.1s.9-2.1 2.1-2.1h32.4c1.2 0 2.1.9 2.1 2.1s-.9 2.1-2.1 2.1zm-71.9 0H23c-1.2 0-2.1-.9-2.1-2.1s.9-2.1 2.1-2.1h.8c1.2 0 2.1.9 2.1 2.1s-.8 2.1-2 2.1z"/></g><path class="st2" d="M.2.2h118.3v123.4H.2z"/></svg>