<svg version="1.1" id="Capa_1" xmlns="http://www.w3.org/2000/svg" xmlns:xlink="http://www.w3.org/1999/xlink" x="0" y="0" viewBox="0 0 65 65" xml:space="preserve"><style>.st3{fill:none}.st4{fill:#19a301}.st6{fill:none;stroke:#95a6b1;stroke-width:1.6;stroke-linecap:round;stroke-linejoin:round}</style><g id="Capa_1_1_"><defs><path id="SVGID_1_" d="M0 48.26h65V65H0z"/></defs><clipPath id="SVGID_2_"><use xlink:href="#SVGID_1_" overflow="visible"/></clipPath><g clip-path="url(#SVGID_2_)"><defs><path id="SVGID_3_" d="M0 48.26h65V65H0z"/></defs><clipPath id="SVGID_4_"><use xlink:href="#SVGID_3_" overflow="visible"/></clipPath><g clip-path="url(#SVGID_4_)"><path class="st3" d="M0 48.26h65V65H0z"/><path class="st4" d="M45.38 61.32h-7.17c-.66 0-1.2-.54-1.2-1.2s.54-1.2 1.2-1.2h7.17c.66 0 1.2.54 1.2 1.2s-.54 1.2-1.2 1.2zm7.73 0h-.58c-.66 0-1.2-.54-1.2-1.2s.54-1.2 1.2-1.2h.58c.66 0 1.2.54 1.2 1.2s-.54 1.2-1.2 1.2zm-34.12 0h-7.1c-.66 0-1.2-.54-1.2-1.2s.54-1.2 1.2-1.2h7.1c.66 0 1.2.54 1.2 1.2s-.54 1.2-1.2 1.2z"/><path d="M31.05 61.32H18.53c-.66 0-1.2-.54-1.2-1.2s.54-1.2 1.2-1.2h12.52c.66 0 1.2.54 1.2 1.2s-.54 1.2-1.2 1.2zm4.42-6.11H11.89c-.66 0-1.2-.54-1.2-1.2s.54-1.2 1.2-1.2h23.58c.66 0 1.2.54 1.2 1.2s-.54 1.2-1.2 1.2z" fill="#82d400"/><path class="st4" d="M53.11 55.21H34.75c-.66 0-1.2-.54-1.2-1.2s.54-1.2 1.2-1.2h18.36c.66 0 1.2.54 1.2 1.2s-.54 1.2-1.2 1.2zm-40.79 0h-.43c-.66 0-1.2-.54-1.2-1.2s.54-1.2 1.2-1.2h.43c.66 0 1.2.54 1.2 1.2s-.54 1.2-1.2 1.2z"/></g></g><path class="st6" d="M10.27 18.76H27.2v28.12H10.27zm0 0v4.8m5.65-4.8v4.8m5.64-4.8v4.8m5.65.04v-4.84M8.14 23.61h21.19m-2 13.08h6.68v5.33h-6.68"/><path class="st6" d="M10.27 18.76H27.2v28.12H10.27zm0 0v4.8m5.65-4.8v4.8m5.64-4.8v4.8m5.65.04v-4.84M8.14 23.61h21.19"/><path class="st6" d="M10.31 28.21c1.41-1.02 4.35-1.55 6.71-.55s7.56 1.87 10.2-.53m-16.91 9.05h10.15m35.74-1.96v12.66H34.28V7.76H56.2v13.63M34.28 7.76v4.8m15.29-4.8v4.8m6.64.04V7.76m-24.06 4.85h26.18"/><path class="st6" d="M56.2 34.22v12.66H34.28V7.76H56.2v11.81"/><path id="Trazado_11848_2_" d="M59.45 27.79a3.841 3.841 0 01-7.68 0c0-2.12 1.72-3.84 3.84-3.84h0c2.11-.01 3.83 1.7 3.84 3.81v.03z" fill="none" stroke="#19a500" stroke-width="1.6" stroke-linecap="round" stroke-linejoin="round" stroke-miterlimit="10"/><path class="st6" d="M34.28 7.76v4.8m6.64-4.8v4.8m15.29.04V7.76m-24.06 4.85h26.18m-24.02 15.6c1.41-1.02 9.35-1.55 11.71-.55.81.34 1.95.67 3.21.86m-3.17 7.66h10.15M5.48 46.88h54.04"/></g><path id="Rectángulo_3799-2_16_" class="st3" d="M0 0h65v65H0z"/></svg>