<svg xmlns="http://www.w3.org/2000/svg" width="29.57" height="21.788"><g data-name="Grupo 10767" fill="none" stroke="#fff" stroke-linecap="round" stroke-linejoin="round" stroke-width="1.57"><path data-name="Trazado 131" d="M3.996 10.361a3.212 3.212 0 113.212-3.212 3.2 3.2 0 01-3.212 3.212z"/><g data-name="Grupo 181"><path data-name="Trazado 132" d="M9.377 8.046h3.011l4.333-6.549a1.59 1.59 0 012.6-.07h0a3.006 3.006 0 01.26 3.158l-.973 1.9a.747.747 0 00.665 1.087h7.894a1.613 1.613 0 011.614 1.613h0a1.613 1.613 0 01-1.614 1.613h-3.169"/><path data-name="Trazado 133" d="M23.623 10.803h2.436a1.613 1.613 0 011.613 1.614h0a1.613 1.613 0 01-1.613 1.613h-4.384"/><path data-name="Trazado 134" d="M21.673 14.032h3.169a1.613 1.613 0 011.614 1.613h0a1.613 1.613 0 01-1.614 1.613h-4.408"/><path data-name="Trazado 135" d="M20.436 17.255h3.549a1.613 1.613 0 011.613 1.614h0a1.613 1.613 0 01-1.613 1.613h-7.952l-3.643-.845H9.379"/><path data-name="Trazado 136" d="M9.377 6.781v14.221h-5.38v-8.587"/></g></g></svg>