<svg data-name="Layer 1" xmlns="http://www.w3.org/2000/svg" viewBox="0 0 20 20"><path d="M17.9 17.6h-1v-5.5a2.6 2.6 0 00-2.5-2.6h-3.7v-2a3.5 3.5 0 001.6-3 3.7 3.7 0 00-1.9-3.2.4.4 0 00-.5 0A3.7 3.7 0 008 4.5a3.4 3.4 0 001.7 3v2H6a2.6 2.6 0 00-2.5 2.6v5.5H2.4a.5.5 0 00-.5.5.6.6 0 00.5.5h15.5a.5.5 0 00.5-.5.5.5 0 00-.5-.5zM9 4.5a2.2 2.2 0 011.2-2.1 2.4 2.4 0 011.1 2.1 2.7 2.7 0 01-1.1 2.2A2.5 2.5 0 019 4.5zm-3 6h8.4a1.6 1.6 0 011.5 1.6v2l-.8-.4a2.3 2.3 0 00-1.8-.7 2.4 2.4 0 00-1.9.7 1.9 1.9 0 01-1.2.4 2.5 2.5 0 01-1.3-.4 2.3 2.3 0 00-1.8-.7 2.4 2.4 0 00-1.9.7l-.7.4v-2A1.5 1.5 0 016 10.5zm-1.5 7.1v-2.5a2.3 2.3 0 001.3-.7 2.5 2.5 0 011.3-.4 1.9 1.9 0 011.2.4 2.4 2.4 0 001.9.7 2.3 2.3 0 001.8-.7 2.5 2.5 0 011.3-.4 1.9 1.9 0 011.2.4 2.3 2.3 0 001.4.7v2.5z" fill="#19a500"/></svg>