<svg xmlns="http://www.w3.org/2000/svg" viewBox="0 0 150 84"><style>.st0{fill:none}.st2{fill:#97a5af}.st4{fill:#4da12e}</style><g id="Capa_1"><path class="st2" d="M114.23 45.42c-3.83 0-7.58-1.08-10.88-3.16l-7.18 2.04a1.005 1.005 0 01-1.23-1.28l2.25-6.76c-2.25-3.38-3.44-7.3-3.44-11.37 0-5.48 2.14-10.63 6.01-14.5 3.87-3.87 9.02-6 14.5-6 4.04 0 7.95 1.18 11.32 3.4 4.57 3.02 7.69 7.64 8.78 13.01 1.09 5.37.03 10.84-2.99 15.41a20.343 20.343 0 01-13.01 8.78c-1.37.29-2.76.43-4.13.43zm-10.72-5.25c.19 0 .39.06.55.17 4.12 2.73 9.06 3.69 13.91 2.7 4.84-.99 9.02-3.8 11.74-7.93 2.73-4.13 3.69-9.07 2.7-13.91-.99-4.85-3.8-9.02-7.93-11.75a18.456 18.456 0 00-10.21-3.07c-4.94 0-9.59 1.92-13.09 5.42s-5.42 8.14-5.42 13.09c0 3.83 1.16 7.51 3.36 10.64.18.26.23.59.13.89l-1.81 5.43 5.8-1.64c.08-.03.18-.04.27-.04z" id="Trazado_12358"/><path class="st2" d="M115.91 38.12h-2.58c-1.53 0-2.78-1.25-2.78-2.78v-1.5c0-1.53 1.25-2.78 2.78-2.78h2.58c1.53 0 2.78 1.25 2.78 2.78v1.5c-.01 1.53-1.25 2.78-2.78 2.78zm-2.58-5.05c-.43 0-.78.35-.78.78v1.5c0 .43.35.78.78.78h2.58c.43 0 .78-.35.78-.78v-1.5c0-.43-.35-.78-.78-.78h-2.58z" id="Rectángulo_5112"/><path class="st2" d="M117.43 29.82h-6.08c-.55 0-1-.45-1-1V11.14c0-.55.45-1 1-1h6.08c.55 0 1 .45 1 1v17.69c0 .55-.45.99-1 .99zm-5.08-2h4.08V12.14h-4.08v15.68z" id="Rectángulo_5113"/><path class="st2" d="M85.72 57.48a.99.99 0 01-.78-.37c-2.68-3.33-8.82-7.05-13.32-7.05h-15.2c-.55 0-1-.45-1-1V37.79c0-.55.45-1 1-1h14.82c9.3 0 13.61-6.32 13.65-6.38.25-.37.7-.53 1.12-.4.42.13.71.52.71.96v25.51c0 .42-.27.8-.67.94a.92.92 0 01-.33.06zm-28.3-9.43h14.2c4.3 0 9.68 2.81 13.1 5.93V33.61c-2.26 2.15-6.66 5.18-13.49 5.18H57.42v9.26z"/><path class="st2" d="M88.54 58.07h-1.82c-1.1 0-2-.9-2-2v-24.7c0-1.1.9-2 2-2h1.82c1.1 0 2 .9 2 2v24.7c-.01 1.1-.9 2-2 2zm-.01-26.7h-1.81v24.7h1.81v-24.7zm0 0h1-1zM56.12 47.63h-2.08c-.53 0-1.04-.21-1.41-.59-.38-.38-.58-.88-.58-1.41v-3.82c0-1.1.9-2 2-2h2.08c.55 0 1 .45 1 1s-.45 1-1 1h-2.08v3.82h2.08c.55 0 1 .45 1 1s-.46 1-1.01 1zm12.89 2.42c-.55 0-1-.45-1-1V38.09c0-.55.45-1 1-1s1 .45 1 1v10.96c0 .55-.45 1-1 1z"/><path class="st2" d="M89.58 48.18c-.55 0-1-.45-1-1s.45-1 1-1c1.35 0 2.46-1.1 2.46-2.46 0-1.35-1.1-2.46-2.46-2.46-.55 0-1-.45-1-1s.45-1 1-1c2.46 0 4.46 2 4.46 4.46s-2 4.46-4.46 4.46zM65.33 64.5h-3.31c-1.41 0-2.56-1.15-2.56-2.56v-9.72a.56.56 0 00-.56-.56c-1.09 0-1.98-.89-1.98-1.98v-.63c0-.55.45-1 1-1s1 .45 1 1v.63c1.41.01 2.54 1.13 2.54 2.54v9.72c0 .31.25.56.56.56h3.31c.31 0 .56-.25.56-.56V49.05c0-.55.45-1 1-1s1 .45 1 1v12.89c0 1.41-1.15 2.56-2.56 2.56z"/><path class="st2" d="M60.45 38.79c-.55 0-1-.45-1-1V10.4H29.63c-.55 0-1-.45-1-1s.45-1 1-1h30.82c.55 0 1 .45 1 1v28.39c0 .56-.45 1-1 1z" id="Trazado_11781_2_"/><path class="st2" d="M43.95 60.13H30.28c-5.3 0-9.61-4.31-9.61-9.61V20.63c0-.55.45-1 1-1s1 .45 1 1v29.89c0 4.19 3.41 7.61 7.61 7.61l30.18-.04c.55 0 1 .45 1 1s-.45 1-1 1l-16.51.04z" id="Trazado_11781_1_"/><path class="st2" d="M48.04 31.96H34.2c-.55 0-1-.45-1-1s.45-1 1-1h13.84c.55 0 1 .45 1 1s-.45 1-1 1z" id="Línea_2380"/><path class="st2" d="M49.28 41.48H29.46c-.55 0-1-.45-1-1s.45-1 1-1h19.82c.55 0 1 .45 1 1s-.44 1-1 1z" id="Línea_2381"/><path class="st2" d="M49.28 49.19H29.46c-.55 0-1-.45-1-1s.45-1 1-1h19.82c.55 0 1 .45 1 1s-.44 1-1 1z" id="Línea_2382"/><path d="M21.23 17.82c-3.32 0-6.02-2.7-6.02-6.02 0-3.32 2.7-6.01 6.02-6.01h.02c3.29 0 5.98 2.67 5.99 5.97v.04c0 3.32-2.7 6.02-6.01 6.02zm.02-10.03h-.01c-2.22 0-4.02 1.8-4.02 4.01s1.8 4.02 4.02 4.02 4.01-1.8 4.01-4.02v-.04a4.012 4.012 0 00-4-3.97z" fill="#19a500" id="Trazado_11848_1_"/><path class="st2" d="M41.06 31.72c-.27 0-.52-.11-.71-.29l-6.44-6.44c-.19-.19-.29-.44-.29-.71s.11-.52.29-.71l6.44-6.44a.996.996 0 011.41 0l6.44 6.44c.39.39.39 1.02 0 1.41l-6.44 6.44a.96.96 0 01-.7.3zm-5.02-7.44l5.03 5.03 5.03-5.03-5.03-5.03-5.03 5.03z"/><path class="st0" d="M33 63.07h84V84H33z"/><path class="st4" d="M91.1 79.4h-8.96c-.83 0-1.5-.67-1.5-1.5s.67-1.5 1.5-1.5h8.96c.83 0 1.5.67 1.5 1.5s-.67 1.5-1.5 1.5zm9.66 0h-.73c-.83 0-1.5-.67-1.5-1.5s.67-1.5 1.5-1.5h.73c.83 0 1.5.67 1.5 1.5s-.67 1.5-1.5 1.5zm-42.65 0h-8.88c-.83 0-1.5-.67-1.5-1.5s.67-1.5 1.5-1.5h8.88c.83 0 1.5.67 1.5 1.5s-.67 1.5-1.5 1.5z"/><path d="M73.18 79.4H57.54c-.83 0-1.5-.67-1.5-1.5s.67-1.5 1.5-1.5h15.65c.83 0 1.5.67 1.5 1.5s-.68 1.5-1.51 1.5zm5.54-7.64H49.24c-.83 0-1.5-.67-1.5-1.5s.67-1.5 1.5-1.5h29.48c.83 0 1.5.67 1.5 1.5s-.68 1.5-1.5 1.5z" fill="#96d200"/><path class="st4" d="M100.76 71.76H77.81c-.83 0-1.5-.67-1.5-1.5s.67-1.5 1.5-1.5h22.95c.83 0 1.5.67 1.5 1.5s-.67 1.5-1.5 1.5zm-50.98 0h-.54c-.83 0-1.5-.67-1.5-1.5s.67-1.5 1.5-1.5h.54c.83 0 1.5.67 1.5 1.5s-.68 1.5-1.5 1.5z"/><path class="st0" d="M0 0h150v84H0z"/></g></svg>