<svg xmlns="http://www.w3.org/2000/svg" viewBox="0 0 47 47"><style>.st1{fill:#fff}</style><g id="Capa_1"><path fill="none" d="M0 0h47v47H0z"/><g id="Grupo_13388_1_" transform="translate(.082 .186)"><g id="Grupo_13062_1_" transform="translate(5.951 5.012)"><path class="st1" d="M3.89 35.05a.75.75 0 01-.75-.75V20.74c0-.41.34-.75.75-.75s.75.34.75.75v12.81l26.86-.09V20.59c0-.41.34-.75.75-.75s.75.34.75.75V34.2c0 .41-.33.75-.75.75l-28.36.1z" id="Trazado_11668_1_"/><path class="st1" d="M29.87 21.61c-.41 0-.75-.34-.75-.75V7.66l-4.29-4.61H6.97v2.19c0 .41-.34.75-.75.75s-.75-.34-.75-.75V2.3c0-.41.34-.75.75-.75h18.94c.21 0 .41.09.55.24l4.71 5.07c.13.14.2.32.2.51v13.49c0 .42-.33.75-.75.75z" id="Trazado_11669_1_"/><path class="st1" d="M6.22 21.86c-.41 0-.75-.34-.75-.75v-4.63c0-.41.34-.75.75-.75s.75.34.75.75v4.63c0 .42-.33.75-.75.75z" id="Línea_2307_1_"/><path class="st1" d="M26.31 11.82H12.62c-.41 0-.75-.34-.75-.75s.34-.75.75-.75H26.3c.41 0 .75.34.75.75s-.33.75-.74.75z" id="Línea_2308_1_"/><path class="st1" d="M26.31 15.61H12.62c-.41 0-.75-.34-.75-.75s.34-.75.75-.75H26.3c.41 0 .75.34.75.75s-.33.75-.74.75z" id="Línea_2309_1_"/><path class="st1" d="M26.31 19H12.62c-.41 0-.75-.34-.75-.75s.34-.75.75-.75H26.3c.41 0 .75.34.75.75s-.33.75-.74.75z" id="Línea_2310_1_"/><path class="st1" d="M18.09 24.88c-.06 0-.12-.01-.18-.02L3.73 21.37a.755.755 0 01-.35-1.26L5.6 17.9c.29-.29.77-.29 1.06 0 .29.29.29.77 0 1.06l-1.28 1.27 12.89 3.16c.4.1.65.5.55.91-.09.35-.39.58-.73.58z" id="Trazado_11670_1_"/><path class="st1" d="M18.12 24.88c-.34 0-.64-.23-.73-.57-.1-.4.15-.81.55-.91l12.83-3.17-1.28-1.28c-.29-.29-.29-.77 0-1.06s.77-.29 1.06 0l2.22 2.22c.19.19.26.47.19.73a.76.76 0 01-.54.53L18.3 24.86c-.06.01-.12.02-.18.02z" id="Trazado_11671_1_"/></g><g id="Grupo_13063_1_" transform="translate(4.821 9.867)"><path class="st1" d="M7.28 10.35a4.22 4.22 0 11.002-8.442 4.22 4.22 0 01-.002 8.442zm0-6.94c-1.5 0-2.72 1.22-2.72 2.72s1.22 2.72 2.72 2.72S10 7.63 10 6.13 8.78 3.41 7.28 3.41z" id="Elipse_2196_1_"/></g><path class="st1" d="M35.26 13.14H30.9c-.41 0-.75-.34-.75-.75V7.31c0-.41.34-.75.75-.75s.75.34.75.75v4.33h3.62c.41 0 .75.34.75.75s-.34.75-.76.75z" id="Trazado_11672_1_"/></g></g></svg>