<svg id="Capa_1" data-name="Capa 1" xmlns="http://www.w3.org/2000/svg" viewBox="0 0 47 47"><defs><style>.cls-2{fill:#fff}</style></defs><path fill="none" d="M0 0h47v47H0z"/><path class="cls-2" d="M25.3 27.2h-7.8a3.9 3.9 0 01-3.9-4 4 4 0 014-4 4.4 4.4 0 014.7-3 4.5 4.5 0 013.5 3l1.3.5a.7.7 0 01-.7 1.3 2 2 0 00-1.1-.3h-.1a.7.7 0 01-.7-.6 2.9 2.9 0 00-2.4-2.4 2.9 2.9 0 00-3.2 2.4.5.5 0 01-.3.5.7.7 0 01-.6.2h-.5a2.5 2.5 0 00-2.4 2.5 2.5 2.5 0 002.4 2.5h7.8a2 2 0 001.1-.3.7.7 0 011 .3.7.7 0 01-.3 1 4.1 4.1 0 01-1.8.4z"/><path class="cls-2" d="M9.6 18.8a3.8 3.8 0 113.8-3.8 3.8 3.8 0 01-3.8 3.8zm0-6.1A2.3 2.3 0 007.3 15a2.3 2.3 0 004.6 0 2.3 2.3 0 00-2.3-2.3z" id="Elipse_2127" data-name="Elipse 2127"/><path class="cls-2" d="M18 36.2a2.6 2.6 0 01-2.6-2.5c0-1.1 1.5-3.3 1.9-3.9a.9.9 0 011.3 0c.4.6 1.9 2.8 1.9 3.9a2.5 2.5 0 01-2.5 2.5zm0-4.6a7 7 0 00-1.1 2.1 1 1 0 001.1 1 1 1 0 001-1 8.8 8.8 0 00-1-2.1z" id="Elipse_2127-2" data-name="Elipse 2127"/><path class="cls-2" d="M31.4 41.6H9.8a.8.8 0 01-.8-.8V20.4a.9.9 0 01.8-.8.8.8 0 01.7.8v19.7h20.9a5.1 5.1 0 005.1-5.1V6.9h-26v2.9a.8.8 0 01-.7.8.9.9 0 01-.8-.8V6.2a.8.8 0 01.8-.8h27.4a.8.8 0 01.8.8V35a6.7 6.7 0 01-6.6 6.6z"/><path class="cls-2" d="M28.7 37.2h-.1c-.4-.1-.8-.4-.8-.8a.8.8 0 01.8-.7c0-.1 0 0 .1 0a4 4 0 002.7-1.2 3.6 3.6 0 001.2-2.8 3.9 3.9 0 00-2.4-3.6.8.8 0 01-.4-.7v-15a1.1 1.1 0 00-1.1-1.1.8.8 0 01-.8-.8.7.7 0 01.8-.7 2.6 2.6 0 012.6 2.6V27a5.3 5.3 0 012.8 4.7 5.5 5.5 0 01-1.6 3.9 5.5 5.5 0 01-3.8 1.6z"/><path class="cls-2" d="M28.7 32.5h-.3l-.3-.2c0-.1-.1-.2-.1-.3s-.1-.1-.1-.2a1.4 1.4 0 01.2-.6h.3a.4.4 0 01.5 0h.3a1.4 1.4 0 01.2.6v.2l-.2.3-.3.2z"/><path class="cls-2" d="M28.6 37.2a5.7 5.7 0 01-3.9-1.8 5.8 5.8 0 01-1.5-4.1A5.4 5.4 0 0126 27V12.4a2.7 2.7 0 012.7-2.6.7.7 0 01.7.7.8.8 0 01-.7.8 1.1 1.1 0 00-1.2 1.1v15a.7.7 0 01-.4.7 3.9 3.9 0 00-2.4 3.3 4.4 4.4 0 001.1 2.9 4.2 4.2 0 002.8 1.4.7.7 0 01.7.7.8.8 0 01-.7.8z"/><path class="cls-2" d="M28.7 33.8a2.5 2.5 0 01-1.5-.6 2.4 2.4 0 01-.5-1.4 2.5 2.5 0 01.5-1.5 2.3 2.3 0 012.9 0 2.5 2.5 0 01.6 1.5 2.1 2.1 0 01-2 2z"/></svg>