<svg xmlns="http://www.w3.org/2000/svg" viewBox="0 0 47 47"><style>.st2,.st28{fill:none}.st28{stroke:#97a5af;stroke-width:1.5;stroke-linecap:round;stroke-linejoin:round}</style><g id="Capa_1"><path class="st2" d="M0-6.5h60v60H0z"/><path class="st2" d="M0-6.5h60v60H0z"/><path class="st28" d="M33.76 29.27H13.24v-1.76c0-.93.75-1.68 1.68-1.68h17.16c.93 0 1.68.75 1.68 1.68v1.76zM23.3 19.91h-3.86v5.92h8.12v-2.64m-5.29-3.28h-4.3c-.63 0-1.14-.51-1.14-1.14v-1.3c0-.63.51-1.14 1.14-1.14h5.16m2.92-2.8V9.45h-5.1v6.88h2.37m-2.37 12.94h5.09v3.16h-5.09z"/><path class="st28" d="M38.57 7.65c0 .99-.81 1.8-1.8 1.8H10.22c-.99 0-1.8-.81-1.8-1.8V6.43c0-.99.81-1.8 1.8-1.8h26.55c.99 0 1.8.81 1.8 1.8v1.22zm-17.62 8.68l-6.72-6.72m15.07 3.5l3.49-3.5M10.25 32.43h26.49v8.52H10.25zm26.5-1.45h4.59v11.39h-4.59zm-31.09 0h4.59v11.39H5.66z"/><path id="Trazado_5703_4_" d="M31.37 18.12c0 1.82-1.47 3.29-3.29 3.29s-3.29-1.47-3.29-3.29 1.47-3.29 3.29-3.29a3.265 3.265 0 013.29 3.25v.04z" fill="none" stroke="#00a800" stroke-width="1.5" stroke-linecap="round" stroke-linejoin="round" stroke-miterlimit="10"/><path id="Rectángulo_3799-2_17_" class="st2" d="M0 0h47v47H0z"/></g></svg>