<svg xmlns="http://www.w3.org/2000/svg" width="93" height="93"><g data-name="Grupo 13577" transform="translate(-393 -1960.227)"><circle data-name="Elipse 1798" cx="46.5" cy="46.5" r="46.5" transform="translate(393 1960.227)" fill="#19a500"/><g data-name="Grupo 11179"><g data-name="Grupo 11180"><g data-name="Grupo 11179"><path data-name="Rectángulo 3799" fill="none" d="M410 1977.227h60v60h-60z"/></g></g><g data-name="Grupo 11188"><g data-name="Grupo 11186" fill="none" stroke="#fff" stroke-linecap="round" stroke-linejoin="round"><g data-name="Grupo 11181" stroke-width="1.303" transform="translate(410 1977.227)"><circle data-name="Elipse 1789" cx="2.943" cy="2.943" r="2.943" transform="translate(6.968 42.456)"/><circle data-name="Elipse 1790" cx="2.943" cy="2.943" r="2.943" transform="translate(15.714 48.811)"/><circle data-name="Elipse 1791" cx="2.943" cy="2.943" r="2.943" transform="translate(26.852 51.502)"/><circle data-name="Elipse 1792" cx="2.943" cy="2.943" r="2.943" transform="translate(37.243 48.885)"/><path data-name="Trazado 10324" d="M12.177 43.655l7.251-4.934v-4.336"/><path data-name="Trazado 10325" d="M18.657 48.811v-3.287l6.079-4.111v-6.945"/><path data-name="Línea 1727" d="M29.795 51.502V34.683"/><path data-name="Trazado 10326" d="M40.186 48.885V45.3L34.6 41.338v-6.655"/><path data-name="Trazado 10327" d="M45.22 40.134l-5.191-.067v-5.308"/></g><g data-name="Grupo 11182" transform="translate(410 1977.227)"><circle data-name="Elipse 1793" cx="4.243" cy="4.243" r="4.243" transform="translate(25.002 9.962)" stroke-width="1.387"/><path data-name="Trazado 10328" d="M39.749 29.247v-3.606A4.739 4.739 0 0035.01 20.9H24.267a4.739 4.739 0 00-4.738 4.739v3.606" stroke-width="1.436"/></g><g data-name="Grupo 11185" stroke-width="1.218"><g data-name="Grupo 11183"><path data-name="Trazado 10329" d="M437.785 1982.243a6.958 6.958 0 012.991.053"/><path data-name="Trazado 10330" d="M428.841 1984.995a15.355 15.355 0 012.374-1.281"/><path data-name="Trazado 10331" d="M422.386 1992.582a14.992 14.992 0 011.542-2.823"/><path data-name="Trazado 10332" d="M421.312 2002.664a16.576 16.576 0 01-.329-3.3"/><path data-name="Trazado 10333" d="M423.96 2008.884a17.52 17.52 0 002.085 2.513h26.536"/><path data-name="Trazado 10334" d="M437.691 1982.046l-1.63-2.206-4.7 1.106-.165 2.715"/><path data-name="Trazado 10335" d="M428.606 1984.968l-2.546-1.02-3.42 3.414 1.287 2.4"/><path data-name="Trazado 10336" d="M422.043 1992.622l-2.7.49-1.081 4.71 2.365 1.345"/><path data-name="Trazado 10337" d="M421.141 2002.748l-1.941 1.938 1.791 4.488 2.71-.239"/></g><g data-name="Grupo 11184"><path data-name="Trazado 10338" d="M449.784 1984.995a15.356 15.356 0 00-2.374-1.281"/><path data-name="Trazado 10339" d="M456.239 1992.582a14.992 14.992 0 00-1.539-2.823"/><path data-name="Trazado 10340" d="M457.313 2002.664a16.576 16.576 0 00.329-3.3"/><path data-name="Trazado 10341" d="M452.581 2011.397a17.513 17.513 0 002.084-2.513"/><path data-name="Trazado 10342" d="M440.935 1982.046l1.63-2.206 4.7 1.106.165 2.715"/><path data-name="Trazado 10343" d="M450.019 1984.968l2.546-1.02 3.42 3.414-1.287 2.4"/><path data-name="Trazado 10344" d="M456.582 1992.622l2.7.49 1.081 4.71-2.363 1.345"/><path data-name="Trazado 10345" d="M457.484 2002.748l1.941 1.938-1.791 4.488-2.71-.239"/></g></g></g><g data-name="Grupo 11187"><circle data-name="Elipse 1794" cx="4.869" cy="4.869" r="4.869" transform="translate(455.294 2013.251)" fill="none" stroke="#fff" stroke-miterlimit="10" stroke-width="1.2"/></g></g></g></g></svg>