<svg xmlns="http://www.w3.org/2000/svg" viewBox="0 0 60 60"><style>.st3{fill:none;stroke:#fff;stroke-width:1.2;stroke-linecap:round;stroke-linejoin:round;stroke-miterlimit:10}</style><g id="Capa_1"><path id="Rectángulo_3799_17_" d="M30 0c16.57 0 30 13.43 30 30S46.57 60 30 60 0 46.57 0 30 13.43 0 30 0z" fill="#19a500"/><path id="Rectángulo_3799_72_" fill="none" d="M0 0h60v60H0z"/><path class="st3" d="M23.96 24.42l8.17-17.1L48.9 42.23m4.38-11.34l2.11 4.23"/><path class="st3" d="M39.28 22.42l-2.34-2-2.33 2-2.34-2-2.34 2-2.34-2-2.34 2m22.77-2.09l-3.11-6.22-7.75 3.68m-5.04 16.82l-11.36-12.8-7.88 4.33-6.27 15.37"/><path class="st3" d="M42.14 47.22l-5.25-11.19-14.25-4.37-6.71 17.02"/><circle cx="50.23" cy="26" r="3.86" fill="none" stroke="#efef00" stroke-width="1.2" stroke-miterlimit="10"/></g></svg>