<svg version="1.1" id="Capa_1" xmlns="http://www.w3.org/2000/svg" xmlns:xlink="http://www.w3.org/1999/xlink" x="0" y="0" viewBox="0 0 65 65" xml:space="preserve"><style>.st1,.st2{fill:none}.st2{stroke:#95a6b1;stroke-width:1.6;stroke-linecap:round;stroke-linejoin:round}.st5{fill:#4da12e}</style><g id="Capa_1_1_"><g id="Grupo_14998_3_" transform="translate(-83.703)"><path id="Rectángulo_3799-2_6_" class="st1" d="M83.7 0h65v65h-65z"/><g id="Grupo_16997"><g id="Grupo_16996"><path id="Línea_3299" class="st2" d="M90.76 49.27h51.4"/><path id="Trazado_18062" class="st2" d="M94.46 14.6v-2.15c0-1.72 1.4-3.11 3.12-3.11h3.62c1.72 0 3.11 1.39 3.11 3.11v36.59"/><path id="Línea_3300" class="st2" d="M94.46 49.27V30.25"/><path id="Trazado_18063" class="st2" d="M123.32 49.19V34.71c0-1.66 1.34-3 3-3h9.12c1.66 0 3 1.34 3 3v14.56"/><path id="Trazado_18064" class="st2" d="M119.58 49.19V28.22c0-1.66 1.34-3 3-3h5.22c1.66 0 3 1.34 3 3v3.34"/><path id="Trazado_18065" class="st2" d="M104.31 15.44h1.37c1.44 0 2.6 1.16 2.6 2.6v31"/><path id="Trazado_18066" class="st2" d="M104.54 31.09h7.02a2.29 2.29 0 012.29 2.29v7.71a2.29 2.29 0 002.29 2.29h6.92"/><path id="Trazado_18067" class="st2" d="M133.4 40.67l-2.1-4.34-1.94 4.34c-.21.44-.35.92-.41 1.41 0 1.34 1.08 2.42 2.42 2.42s2.42-1.08 2.42-2.42c-.05-.49-.19-.96-.39-1.41z"/><path id="Línea_3301" class="st2" d="M125.53 18.93v6"/><path id="Rectángulo_5292" class="st2" d="M118.02 2.48h20.18v11.27a5.15 5.15 0 01-5.15 5.15h-20.18V7.63c0-2.85 2.3-5.15 5.15-5.15z"/><g id="Grupo_16995"><path id="Trazado_18068" class="st2" d="M134.64 7.59c0-1.15-.93-2.07-2.08-2.08h-.27c-1.13 0-2.05.92-2.05 2.05v1.13c0 1.15.93 2.08 2.08 2.08h.24"/><path id="Trazado_18069" class="st2" d="M130.24 14c0 1.15.94 2.09 2.09 2.09h.21c1.15 0 2.09-.94 2.09-2.09v-1.14c0-1.15-.94-2.09-2.09-2.09h-.24"/><g id="Grupo_16994-2"><path id="Trazado_18070" class="st2" d="M127.65 8.85V7.6a2.106 2.106 0 00-2.11-2.09h-.17a2.1 2.1 0 00-2.12 2.08v1.26"/><path id="Línea_3302" class="st2" d="M123.25 8.85v7.24"/><path id="Línea_3303" class="st2" d="M123.25 7.77v1.08"/><path id="Línea_3304" class="st2" d="M127.66 8.85v7.24"/><path id="Línea_3305" class="st2" d="M127.66 7.77v1.08"/><path id="Línea_3306" class="st2" d="M123.24 10.76h4.42"/></g><path id="Trazado_18071" class="st2" d="M116.65 5.52l2.23 10.59 2.11-10.59"/></g><path id="Trazado_11848_6_" d="M98.62 22.32c0 2.31-1.87 4.18-4.18 4.18s-4.18-1.87-4.18-4.18 1.87-4.18 4.18-4.18h0c2.3-.01 4.17 1.85 4.18 4.15v.03z" fill="none" stroke="#00a800" stroke-width="1.6" stroke-linecap="round" stroke-linejoin="round" stroke-miterlimit="10"/></g></g></g><defs><path id="SVGID_1_" d="M0 48.26h65V65H0z"/></defs><clipPath id="SVGID_2_"><use xlink:href="#SVGID_1_" overflow="visible"/></clipPath><g clip-path="url(#SVGID_2_)"><path class="st1" d="M0 48.26h65V65H0z"/><path class="st5" d="M45.38 61.32h-7.17c-.66 0-1.2-.54-1.2-1.2s.54-1.2 1.2-1.2h7.17c.66 0 1.2.54 1.2 1.2s-.54 1.2-1.2 1.2zm7.73 0h-.58c-.66 0-1.2-.54-1.2-1.2s.54-1.2 1.2-1.2h.58c.66 0 1.2.54 1.2 1.2s-.54 1.2-1.2 1.2zm-34.12 0h-7.1c-.66 0-1.2-.54-1.2-1.2s.54-1.2 1.2-1.2h7.1c.66 0 1.2.54 1.2 1.2s-.54 1.2-1.2 1.2z"/><path d="M31.05 61.32H18.53c-.66 0-1.2-.54-1.2-1.2s.54-1.2 1.2-1.2h12.52c.66 0 1.2.54 1.2 1.2s-.54 1.2-1.2 1.2zm4.42-6.11H11.89c-.66 0-1.2-.54-1.2-1.2s.54-1.2 1.2-1.2h23.58c.66 0 1.2.54 1.2 1.2s-.54 1.2-1.2 1.2z" fill="#96d200"/><path class="st5" d="M53.11 55.21H34.75c-.66 0-1.2-.54-1.2-1.2s.54-1.2 1.2-1.2h18.36c.66 0 1.2.54 1.2 1.2s-.54 1.2-1.2 1.2zm-40.79 0h-.43c-.66 0-1.2-.54-1.2-1.2s.54-1.2 1.2-1.2h.43c.66 0 1.2.54 1.2 1.2s-.54 1.2-1.2 1.2z"/></g></g></svg>