<svg version="1.1" id="Capa_1" xmlns="http://www.w3.org/2000/svg" xmlns:xlink="http://www.w3.org/1999/xlink" x="0" y="0" viewBox="0 0 65 65" xml:space="preserve"><style>.st1,.st2{fill:none}.st2{stroke:#95a6b1;stroke-width:1.6;stroke-linecap:round;stroke-linejoin:round}.st5{fill:#4da12e}</style><g id="Capa_1_1_"><g id="Grupo_13216_1_" transform="translate(.246 .246)"><path id="Rectángulo_3799_1_" class="st1" d="M-.25-.25h65v65h-65z"/></g><path id="Rectángulo_3799-2_5_" class="st1" d="M0 0h65v65H0z"/><path class="st2" d="M4.04 48.19h56.92"/><path id="Línea_1013_3_" class="st2" d="M39.65 21.07v4.2"/><path id="Línea_1014_3_" class="st2" d="M45.81 21.07v4.2"/><path id="Trazado_5700_3_" class="st2" d="M32.93 28.37c.79-.36 1.56-.67 2.23-1.01l4.49-2.08"/><path id="Trazado_5700_8_" class="st2" d="M57.16 44.38v3.81H28.2V36.02"/><path id="Trazado_5700_7_" class="st2" d="M57.16 35.9v4.39"/><path id="Trazado_5700_4_" class="st2" d="M45.81 25.28l8.25 3.71c.8.36 1.49 1.02 2.02 1.8.19.27.35.56.48.86"/><path id="Línea_1016_2_" class="st2" d="M42.73 28.76l-3.08-3.49"/><path id="Línea_1017_3_" class="st2" d="M45.81 25.27l-3.08 3.49v19.5"/><path id="Trazado_5701_3_" class="st2" d="M48.51 16.16c0 3.2-2.6 5.8-5.8 5.8s-5.8-2.6-5.8-5.8"/><path id="Trazado_5702_3_" class="st2" d="M36.91 16.16v-4c0-3.2 2.6-5.8 5.8-5.8s5.8 2.6 5.8 5.8v4"/><path id="Trazado_5703_2_" d="M17.82 19.31a3.841 3.841 0 01-7.68 0c0-2.12 1.72-3.84 3.84-3.84a3.811 3.811 0 013.84 3.79v.05z" fill="none" stroke="#00a800" stroke-width="1.6" stroke-linecap="round" stroke-linejoin="round" stroke-miterlimit="10"/><path class="st2" d="M20.32 25.67v22.45m-1.69-34.49c.93-1.1 1.7-1.76 1.7-1.76s4.92 4.18 4.92 9.33-4.93 9.33-4.93 9.33-1.77-1.5-3.19-3.82m3.19 3.82V21.2m7.88 14.82c-2.49 0-4.68-1.02-4.68-1.02s1.26-4.52 4.66-6.09 7.65.42 7.65.42-1.26 4.52-4.66 6.09c-.96.44-1.99.6-2.97.6m-7.88.45l9.35-4.3M9.48 35.42c3.4 1.57 7.65-.42 7.65-.42s-1.26-4.52-4.66-6.09-7.65.42-7.65.42 1.26 4.53 4.66 6.09zm10.84 1.05l-9.34-4.3"/><circle class="st2" cx="55.89" cy="42.14" r="2.24"/><circle class="st2" cx="57.94" cy="33.66" r="2.24"/><path class="st2" d="M53.65 42.14h-2.5l-3.13-4.63h-5.29m12.97-3.85H42.9"/><defs><path id="SVGID_1_" d="M0 48.26h65V65H0z"/></defs><clipPath id="SVGID_2_"><use xlink:href="#SVGID_1_" overflow="visible"/></clipPath><g clip-path="url(#SVGID_2_)"><path class="st1" d="M0 48.26h65V65H0z"/><path class="st5" d="M45.38 61.32h-7.17c-.66 0-1.2-.54-1.2-1.2s.54-1.2 1.2-1.2h7.17c.66 0 1.2.54 1.2 1.2s-.54 1.2-1.2 1.2zm7.73 0h-.58c-.66 0-1.2-.54-1.2-1.2s.54-1.2 1.2-1.2h.58c.66 0 1.2.54 1.2 1.2s-.54 1.2-1.2 1.2zm-34.12 0h-7.1c-.66 0-1.2-.54-1.2-1.2s.54-1.2 1.2-1.2h7.1c.66 0 1.2.54 1.2 1.2s-.54 1.2-1.2 1.2z"/><path d="M31.05 61.32H18.53c-.66 0-1.2-.54-1.2-1.2s.54-1.2 1.2-1.2h12.52c.66 0 1.2.54 1.2 1.2s-.54 1.2-1.2 1.2zm4.42-6.11H11.89c-.66 0-1.2-.54-1.2-1.2s.54-1.2 1.2-1.2h23.58c.66 0 1.2.54 1.2 1.2s-.54 1.2-1.2 1.2z" fill="#96d200"/><path class="st5" d="M53.11 55.21H34.75c-.66 0-1.2-.54-1.2-1.2s.54-1.2 1.2-1.2h18.36c.66 0 1.2.54 1.2 1.2s-.54 1.2-1.2 1.2zm-40.79 0h-.43c-.66 0-1.2-.54-1.2-1.2s.54-1.2 1.2-1.2h.43c.66 0 1.2.54 1.2 1.2s-.54 1.2-1.2 1.2z"/></g></g></svg>