<svg xmlns="http://www.w3.org/2000/svg" viewBox="0 0 60 60"><style>.st6{fill:none;stroke:#fff;stroke-width:1.2;stroke-linecap:round;stroke-linejoin:round;stroke-miterlimit:10}</style><g id="Capa_2"><path id="Rectángulo_3799_55_" d="M30 0c16.57 0 30 13.43 30 30S46.57 60 30 60 0 46.57 0 30 13.43 0 30 0z" fill="#19a500"/></g><g id="Capa_1"><path id="Rectángulo_3799_1_" fill="none" d="M0 0h60v60H0z"/><path class="st6" d="M48.52 42.74c1.17 1.06 2.24 2.22 3.19 3.45M34.52 35.93c2.27.38 4.52 1.06 6.72 2.05.23.1.45.2.67.31m-23.82-.09c2.16-1.02 4.44-1.76 6.79-2.2M8.29 45.97c.84-1.06 1.76-2.05 2.73-2.96m.3-18.73v20.56h6.59V24.28m30.22 8.34h-5.8c-1.46 0-2.65-1.19-2.65-2.65v-7.88c0-1.46 1.19-2.65 2.65-2.65h5.8c1.46 0 2.65 1.19 2.65 2.65v7.88c0 1.45-1.19 2.65-2.65 2.65z"/><path class="st6" d="M17.51 32.62h-5.8c-1.46 0-2.65-1.19-2.65-2.65v-7.88c0-1.46 1.19-2.65 2.65-2.65h5.8c1.46 0 2.65 1.19 2.65 2.65v7.88c0 1.45-1.19 2.65-2.65 2.65zm27.64-5.01v-5.08l-1.58-2.86m3.36-.2l-1.78 3.06"/><path class="st6" d="M42.01 22.9v22.06h6.32V22.9m-33.69 9.79v12.02m30.65-12.06v12.21"/><circle class="st6" cx="14.49" cy="14.48" r="2.97"/><path class="st6" d="M17.07 13.64h-5.15m2.63-3.83v3.83m12.31 6.07v6.6l-1.45 11.54h9.15L33.09 26.4v-6.54"/><path class="st6" d="M32.82 32.62h-5.8c-1.46 0-2.65-1.19-2.65-2.65v-7.88c0-1.46 1.19-2.65 2.65-2.65h5.8c1.46 0 2.65 1.19 2.65 2.65v7.88c0 1.45-1.19 2.65-2.65 2.65zm-6.09 5.22v6.97h6.42v-6.92m-3.14.13v6.58m-3.15-18.29h6.23"/><circle cx="29.8" cy="14.48" r="2.97" fill="none" stroke="#efef00" stroke-width="1.2" stroke-miterlimit="10"/><circle class="st6" cx="45.17" cy="14.48" r="2.97"/></g></svg>