<svg xmlns="http://www.w3.org/2000/svg" viewBox="0 0 60 60"><style>.st3{fill:#fff}</style><g id="Capa_2"><path d="M30 0c16.57 0 30 13.43 30 30S46.57 60 30 60 0 46.57 0 30 13.43 0 30 0z" fill="#19a500" id="Rectángulo_3799_20_"/></g><g id="Capa_1"><path fill="none" d="M0 0h60v60H0z" id="Rectángulo_3799_16_"/><path class="st3" d="M52.09 44.57H7.91c-.33 0-.6-.27-.6-.6s.27-.6.6-.6H52.1c.33 0 .6.27.6.6s-.27.6-.61.6z"/><path class="st3" d="M12.77 44.44c-.08 0-.16-.02-.24-.05a.606.606 0 01-.31-.79l2.06-4.65c.13-.3.49-.44.79-.31.3.13.44.49.31.79l-2.06 4.65c-.1.23-.32.36-.55.36zm34.6-.11c-.24 0-.46-.14-.56-.38l-9.86-24.8-2.68 2.13c-.15.12-.34.16-.52.11a.585.585 0 01-.4-.35L28.27 9.08l-7.46 17.54c-.13.3-.48.45-.79.32a.599.599 0 01-.32-.79l8.01-18.84c.19-.44.92-.44 1.1 0l5.32 12.52 2.69-2.14a.599.599 0 01.93.25L47.93 43.5c.12.31-.03.66-.34.78-.07.03-.15.05-.22.05z"/><path class="st3" d="M44.45 30.6h-11.3c-.33 0-.6-.27-.6-.6s.27-.6.6-.6h11.29c.33 0 .6.27.6.6s-.26.6-.59.6zm1.73 4.66h-6.11c-.33 0-.6-.27-.6-.6s.27-.6.6-.6h6.11c.33 0 .6.27.6.6s-.27.6-.6.6z"/><path d="M17.71 37.2c-.61 0-1.23-.13-1.82-.39-2.24-1.01-3.25-3.65-2.24-5.89 1.01-2.24 3.65-3.25 5.89-2.24 1.09.49 1.92 1.37 2.34 2.48.42 1.11.39 2.32-.1 3.41a4.462 4.462 0 01-4.07 2.63zm.01-7.72c-1.24 0-2.43.72-2.98 1.92-.73 1.64 0 3.57 1.64 4.31 1.64.74 3.57 0 4.31-1.64.36-.79.38-1.68.07-2.49-.31-.81-.92-1.46-1.71-1.81-.43-.19-.89-.29-1.33-.29z" fill="#efef00"/></g></svg>