<svg xmlns="http://www.w3.org/2000/svg" width="46.932" height="172.723"><g data-name="Grupo 21492"><g data-name="Grupo 21395"><path data-name="Trazado 11287" d="M23.21 168.224v-118.9" fill="none" stroke="#505d6c" stroke-dasharray="4"/><g data-name="Trazado 11288" fill="#fff"><path d="M26.71 168.223c0 1.93-1.57 3.5-3.5 3.5s-3.5-1.57-3.5-3.5 1.57-3.5 3.5-3.5c.738 0 1.412.236 2.186.764l.008.005.008.005c.625.41 1.298 1.438 1.298 2.726z"/><path d="M20.71 168.223c0 1.378 1.122 2.5 2.5 2.5s2.5-1.122 2.5-2.5c0-.972-.52-1.675-.847-1.89l-.03-.02c-.762-.52-1.248-.59-1.623-.59a2.503 2.503 0 00-2.5 2.5m-2 0a4.5 4.5 0 014.5-4.5c.925 0 1.784.279 2.75.938.955.626 1.75 2.001 1.75 3.562a4.5 4.5 0 01-9 0z" fill="#00af00"/></g><g data-name="Trazado 19920" fill="#fff"><path d="M26.71 72.071c0 1.93-1.57 3.5-3.5 3.5s-3.5-1.57-3.5-3.5 1.57-3.5 3.5-3.5c.738 0 1.412.236 2.186.764l.008.005.008.005c.625.41 1.298 1.438 1.298 2.726z"/><path d="M20.71 72.071c0 1.378 1.122 2.5 2.5 2.5s2.5-1.122 2.5-2.5c0-.972-.52-1.675-.847-1.89l-.03-.02c-.762-.52-1.248-.59-1.623-.59a2.503 2.503 0 00-2.5 2.5m-2 0a4.5 4.5 0 014.5-4.5c.925 0 1.784.279 2.75.938.955.626 1.75 2.001 1.75 3.562a4.5 4.5 0 01-9 0z" fill="#00af00"/></g></g><g data-name="Grupo 21403"><g data-name="Grupo 20781"><g data-name="Grupo 20780" transform="translate(-.068)"><path data-name="Trazado 19961" d="M16.561 12.946a3.912 3.912 0 11-5.185-1.932 3.9 3.9 0 015.185 1.932z" fill="none" stroke="#00a800" stroke-linecap="round" stroke-linejoin="round" stroke-width="1.5"/><path data-name="Trazado 19963" d="M20.064 17.06h12.422a1.532 1.532 0 011.532 1.532v4.582" fill="none" stroke="#95a6b1" stroke-linecap="round" stroke-linejoin="round" stroke-width="1.5"/><path data-name="Línea 4680" fill="none" stroke="#95a6b1" stroke-linecap="round" stroke-linejoin="round" stroke-width="1.5" d="M13.193 26.186v-4.19"/><path data-name="Trazado 19964" d="M20.064 10.961h8.326a1.022 1.022 0 011.021 1.022v5.084" fill="none" stroke="#95a6b1" stroke-linecap="round" stroke-linejoin="round" stroke-width="1.5"/><g data-name="Grupo 20778" fill="none" stroke="#95a6b1" stroke-linecap="round" stroke-linejoin="round" stroke-width="1.5"><path data-name="Trazado 19965" d="M29.842 24.722l-6.247-3.616a1.2 1.2 0 00-1.157 0L9.594 28.164a1.2 1.2 0 00-.55 1.454l3.679 11.208"/><path data-name="Línea 4681" d="M33.516 41.161l1.924-6.607"/><path data-name="Línea 4682" d="M23.017 20.949v20.212"/></g><circle data-name="Elipse 3107" cx="1.554" cy="1.554" r="1.554" transform="translate(15.236 27.968)" fill="none" stroke="#95a6b1" stroke-linecap="round" stroke-linejoin="round" stroke-width="1.5"/><path data-name="Rectángulo 5841" d="M21.7 3.524h3.414a.919.919 0 01.919.919v6.519h0-5.188 0V4.379a.855.855 0 01.855-.855z" fill="none" stroke="#95a6b1" stroke-linecap="round" stroke-linejoin="round" stroke-width="1.5"/><g data-name="Grupo 20779"><path data-name="Trazado 19966" d="M41.208 41.676c-2.213 0-2.213-2.162-4.425-2.162s-2.213 2.162-4.425 2.162-2.213-2.162-4.426-2.162-2.212 2.162-4.424 2.162-2.212-2.162-4.424-2.162-2.215 2.162-4.429 2.162-2.216-2.162-4.431-2.162-2.216 2.162-4.432 2.162" fill="none" stroke="#95a6b1" stroke-linecap="round" stroke-linejoin="round" stroke-width="1.5"/></g></g></g><path data-name="Rectángulo 5842" fill="none" d="M0 0h46.932v47H0z"/><g data-name="Grupo 20782" fill="none" stroke="#95a6b1" stroke-linecap="round" stroke-linejoin="round" stroke-width="1.5" transform="translate(-.068)"><circle data-name="Elipse 3108" cx="5.69" cy="5.69" r="5.69" transform="translate(28.294 23.174)"/><path data-name="Trazado 19967" d="M33.984 26.754v2.11h1.832"/></g></g></g></svg>