<svg version="1.1" id="Capa_1" xmlns="http://www.w3.org/2000/svg" x="0" y="0" viewBox="0 0 59 33" xml:space="preserve"><style>.st0{fill:#93a4af}</style><path class="st0" d="M49.53 29.85c-1.52 0-2.33-.65-2.97-1.16-.59-.47-1.05-.84-2.04-.84s-1.45.37-2.04.84c-.65.52-1.46 1.16-2.97 1.16s-2.32-.65-2.97-1.16c-.58-.47-1.05-.84-2.04-.84s-1.45.37-2.04.84c-.65.52-1.46 1.16-2.97 1.16-1.51 0-2.32-.65-2.97-1.16-.58-.47-1.05-.84-2.04-.84s-1.45.37-2.04.84c-.65.52-1.46 1.16-2.97 1.16s-2.32-.65-2.97-1.16c-.58-.47-1.05-.84-2.04-.84s-1.45.37-2.03.84c-.65.52-1.46 1.16-2.97 1.16-1.51 0-2.32-.65-2.97-1.16-.58-.47-1.05-.84-2.03-.84-.41 0-.75-.34-.75-.75s.34-.75.75-.75c1.51 0 2.32.65 2.97 1.16.58.47 1.05.84 2.03.84.99 0 1.45-.37 2.03-.84.65-.52 1.46-1.16 2.97-1.16 1.51 0 2.32.65 2.97 1.16.58.47 1.05.84 2.04.84s1.45-.37 2.04-.84c.65-.52 1.46-1.16 2.97-1.16s2.32.65 2.97 1.16c.58.47 1.05.84 2.04.84s1.45-.37 2.04-.84c.65-.52 1.46-1.16 2.97-1.16s2.32.65 2.97 1.16c.58.47 1.05.84 2.04.84s1.45-.37 2.04-.84c.65-.52 1.46-1.16 2.97-1.16s2.33.65 2.97 1.16c.59.47 1.05.84 2.04.84s1.45-.37 2.04-.84c.65-.52 1.46-1.16 2.97-1.16.41 0 .75.34.75.75s-.34.75-.75.75c-.99 0-1.45.37-2.04.84-.65.52-1.46 1.16-2.97 1.16zm-3.83-7.99h-3.25c-.41 0-.75-.34-.75-.75s.34-.75.75-.75h3.25c.41 0 .75.34.75.75s-.34.75-.75.75zm-5.66 0h-.25c-.41 0-.75-.34-.75-.75s.34-.75.75-.75h.25c.41 0 .75.34.75.75s-.34.75-.75.75zm-6.66 0H8.68c-.41 0-.75-.34-.75-.75s.34-.75.75-.75h24.71c.41 0 .75.34.75.75s-.34.75-.76.75zm-9.52-5.49h-2.85c-.41 0-.75-.34-.75-.75V7.48c0-.41.34-.75.75-.75h2.85c.41 0 .75.34.75.75v8.14c0 .42-.34.75-.75.75zm-2.1-1.5h1.35V8.23h-1.35v6.64z"/><path class="st0" d="M24.39 8.23h-3.91c-.41 0-.75-.34-.75-.75V4.9c0-.41.34-.75.75-.75h3.91c.41 0 .75.34.75.75v2.58c0 .41-.34.75-.75.75zm-3.16-1.5h2.41V5.65h-2.41v1.08zm5.62 12.1h-9.47c-1.41 0-2.27-2.07-2.27-3.2 0-.41.34-.75.75-.75s.75.34.75.75c0 .65.54 1.63.79 1.7h9.46c.41 0 .75.34.75.75s-.35.75-.76.75z"/><path class="st0" d="M50.15 24.52H14.99c-8.66 0-9.61-8.74-9.62-8.82-.02-.21.05-.42.19-.58.14-.16.34-.25.56-.25h20.73c.41 0 .75.34.75.75v1.7h14.07l1.61-2.74a2.93 2.93 0 012.52-1.44h1.63c.41 0 .75.34.75.75s-.34.75-.75.75H45.8c-.5 0-.97.27-1.23.7l-1.82 3.11c-.13.23-.37.37-.64.37l-.51.01H26.85c-.41 0-.75-.34-.75-.75v-1.7H7.01c.43 1.95 2.09 6.65 7.98 6.65h35.16c.34 0 .62-.28.62-.62v-2c0-.07.01-.14.03-.2 0 0 .32-1.13.6-1.92.14-.39.57-.59.96-.46s.59.57.46.96c-.22.61-.46 1.44-.54 1.72v1.89c-.02 1.17-.97 2.12-2.13 2.12z"/><path class="st0" d="M17.85 16.37c-.41 0-.75-.34-.75-.75V10.4h-2.5v5.23c0 .41-.34.75-.75.75s-.75-.34-.75-.75V9.65c0-.41.34-.75.75-.75h4c.41 0 .75.34.75.75v5.98c0 .41-.34.74-.75.74z"/><path class="st0" d="M10.14 16.37c-.41 0-.75-.34-.75-.75v-3.46c0-.41.34-.75.75-.75h2.71c.41 0 .75.34.75.75s-.34.75-.75.75h-1.96v2.71c0 .42-.34.75-.75.75z"/><path d="M51.79 17.36c-1.73 0-3.13-1.41-3.13-3.13 0-1.73 1.41-3.14 3.13-3.14h.01c1.72 0 3.12 1.39 3.12 3.11v.02c0 1.73-1.41 3.14-3.13 3.14zm0-4.77c-.91 0-1.64.73-1.64 1.64a1.63 1.63 0 003.26 0v-.03c.01-.89-.72-1.61-1.62-1.61z" fill="#00a800" id="Trazado_11848_1_"/></svg>