<svg version="1.1" id="Capa_1" xmlns="http://www.w3.org/2000/svg" xmlns:xlink="http://www.w3.org/1999/xlink" x="0" y="0" viewBox="0 0 65 65" xml:space="preserve"><style>.st1{stroke:#93a4af;stroke-width:1.6;stroke-linecap:round;stroke-linejoin:round}.st1,.st4{fill:none}.st5{fill:#19a301}</style><g id="Capa_1_1_"><path class="st1" d="M30.88 9.6l-2.66.29c-1.2.13-2.35-.53-2.83-1.64l-1.07-2.44c-.53-.08-1.07-.14-1.62-.14s-1.19.08-1.62.14l-1.07 2.44a2.777 2.777 0 01-2.83 1.64L14.5 9.6c-.68.84-1.22 1.79-1.62 2.81l1.58 2.15c.71.97.71 2.3 0 3.27l-1.58 2.15c.4 1.02.94 1.97 1.62 2.81l2.66-.29c1.2-.13 2.35.53 2.83 1.64l1.07 2.44c.53.08 1.07.14 1.62.14s1.09-.06 1.62-.14l1.07-2.44c.49-1.1 1.63-1.77 2.83-1.64l2.66.29c.68-.84 1.22-1.79 1.62-2.81l-1.58-2.15c-.71-.97-.71-2.3 0-3.27l1.58-2.15a10.03 10.03 0 00-1.6-2.81z"/><path id="Trazado_11848_8_" d="M26.88 16.2c0 2.31-1.87 4.18-4.18 4.18s-4.18-1.87-4.18-4.18 1.87-4.18 4.18-4.18h0c2.3-.01 4.17 1.85 4.18 4.15v.03z" fill="none" stroke="#00ab00" stroke-width="1.6" stroke-linecap="round" stroke-linejoin="round" stroke-miterlimit="10"/><circle class="st1" cx="45.58" cy="28.67" r="6.55"/><path class="st1" d="M50.33 15.85l-2.78 2.09c-1.25.95-2.98.97-4.26.06l-2.82-2.01c-.65.26-1.29.56-1.91.93s-1.28.88-1.72 1.24l.42 3.44c.19 1.56-.65 3.06-2.08 3.72l-3.16 1.45c-.2 1.39-.18 2.81.06 4.22l3.19 1.36c1.45.61 2.33 2.09 2.18 3.66l-.33 3.45c1.12.88 2.36 1.58 3.68 2.06l2.78-2.09c1.25-.95 2.98-.97 4.26-.06l2.82 2.01c.65-.26 1.29-.56 1.91-.93s1.18-.79 1.72-1.24l-.42-3.44c-.19-1.56.65-3.06 2.08-3.72l3.16-1.45c.2-1.39.18-2.81-.06-4.22l-3.19-1.36a3.592 3.592 0 01-2.18-3.66l.33-3.45c-1.12-.88-2.36-1.58-3.68-2.06z"/><defs><path id="SVGID_1_" d="M0 48.26h65V65H0z"/></defs><clipPath id="SVGID_2_"><use xlink:href="#SVGID_1_" overflow="visible"/></clipPath><g clip-path="url(#SVGID_2_)"><path class="st4" d="M0 48.26h65V65H0z"/><path class="st5" d="M45.38 61.32h-7.17c-.66 0-1.2-.54-1.2-1.2s.54-1.2 1.2-1.2h7.17c.66 0 1.2.54 1.2 1.2s-.54 1.2-1.2 1.2zm7.73 0h-.58c-.66 0-1.2-.54-1.2-1.2s.54-1.2 1.2-1.2h.58c.66 0 1.2.54 1.2 1.2s-.54 1.2-1.2 1.2zm-34.12 0h-7.1c-.66 0-1.2-.54-1.2-1.2s.54-1.2 1.2-1.2h7.1c.66 0 1.2.54 1.2 1.2s-.54 1.2-1.2 1.2z"/><path d="M31.05 61.32H18.53c-.66 0-1.2-.54-1.2-1.2s.54-1.2 1.2-1.2h12.52c.66 0 1.2.54 1.2 1.2s-.54 1.2-1.2 1.2zm4.42-6.11H11.89c-.66 0-1.2-.54-1.2-1.2s.54-1.2 1.2-1.2h23.58c.66 0 1.2.54 1.2 1.2s-.54 1.2-1.2 1.2z" fill="#82d400"/><path class="st5" d="M53.11 55.21H34.75c-.66 0-1.2-.54-1.2-1.2s.54-1.2 1.2-1.2h18.36c.66 0 1.2.54 1.2 1.2s-.54 1.2-1.2 1.2zm-40.79 0h-.43c-.66 0-1.2-.54-1.2-1.2s.54-1.2 1.2-1.2h.43c.66 0 1.2.54 1.2 1.2s-.54 1.2-1.2 1.2z"/></g><path class="st1" d="M45.58 25.44v6.47m3.24-3.24h-6.48"/><g id="Grupo_13591_2_"><g id="Grupo_13590_2_"><path id="Rectángulo_4762_2_" class="st1" d="M10.54 34.64h4.59v12.15h-4.59z"/><path id="Rectángulo_4763_2_" class="st1" d="M5.58 37.35h4.96v6.73H5.58z"/><path id="Trazado_11867_5_" class="st1" d="M20.06 36.2h-4.94v9.02h44.29V36.2h-5.28"/><path id="Trazado_11867_3_" class="st1" d="M37.39 36.2h-11.9"/></g></g><path id="Trazado_12472" d="M24.72 35.48l-2.1-4.34-1.94 4.34c-.21.44-.35.92-.41 1.41 0 1.34 1.09 2.42 2.43 2.42 1.33 0 2.42-1.08 2.42-2.42-.06-.49-.2-.96-.4-1.41z" fill="none" stroke="#93a4af" stroke-width="1.8" stroke-linecap="round" stroke-linejoin="round"/><path id="Rectángulo_3799-2_6_" class="st4" d="M0 0h65v65H0z"/></g></svg>