<svg version="1.1" id="Capa_1" xmlns="http://www.w3.org/2000/svg" xmlns:xlink="http://www.w3.org/1999/xlink" x="0" y="0" viewBox="0 0 65 65" xml:space="preserve"><style>.st1{fill:none}.st3{fill:#19a301}.st6{fill:none;stroke:#95a6b1;stroke-width:1.6;stroke-linecap:round;stroke-linejoin:round;stroke-miterlimit:10}</style><g id="Capa_1_1_"><path class="st1" d="M0 0h65v65H0z"/><defs><path id="SVGID_1_" d="M0 48.26h65V65H0z"/></defs><clipPath id="SVGID_2_"><use xlink:href="#SVGID_1_" overflow="visible"/></clipPath><g clip-path="url(#SVGID_2_)"><path class="st1" d="M0 48.26h65V65H0z"/><path class="st3" d="M45.38 61.32h-7.17c-.66 0-1.2-.54-1.2-1.2s.54-1.2 1.2-1.2h7.17c.66 0 1.2.54 1.2 1.2s-.54 1.2-1.2 1.2zm7.73 0h-.58c-.66 0-1.2-.54-1.2-1.2s.54-1.2 1.2-1.2h.58c.66 0 1.2.54 1.2 1.2s-.54 1.2-1.2 1.2zm-34.12 0h-7.1c-.66 0-1.2-.54-1.2-1.2s.54-1.2 1.2-1.2h7.1c.66 0 1.2.54 1.2 1.2s-.54 1.2-1.2 1.2z"/><path d="M31.05 61.32H18.53c-.66 0-1.2-.54-1.2-1.2s.54-1.2 1.2-1.2h12.52c.66 0 1.2.54 1.2 1.2s-.54 1.2-1.2 1.2zm4.42-6.11H11.89c-.66 0-1.2-.54-1.2-1.2s.54-1.2 1.2-1.2h23.58c.66 0 1.2.54 1.2 1.2s-.54 1.2-1.2 1.2z" fill="#82d400"/><path class="st3" d="M53.11 55.21H34.75c-.66 0-1.2-.54-1.2-1.2s.54-1.2 1.2-1.2h18.36c.66 0 1.2.54 1.2 1.2s-.54 1.2-1.2 1.2zm-40.79 0h-.43c-.66 0-1.2-.54-1.2-1.2s.54-1.2 1.2-1.2h.43c.66 0 1.2.54 1.2 1.2s-.54 1.2-1.2 1.2z"/></g><path id="Trazado_11847" d="M13.95 15.39c.82 1.79.03 3.9-1.76 4.72s-3.9.03-4.72-1.76a3.56 3.56 0 011.76-4.72c1.78-.82 3.89-.04 4.71 1.74 0 .01.01.01.01.02z" fill="none" stroke="#00a800" stroke-width="1.6" stroke-linecap="round" stroke-linejoin="round" stroke-miterlimit="10"/><path id="Rectángulo_4585" class="st6" d="M19.23 12.33h5.59c.29 0 .53.24.53.53v2.32c0 .29-.24.53-.53.53h-5.59c-.29 0-.53-.24-.53-.53v-2.32c0-.29.24-.53.53-.53z"/><path id="Trazado_11678" class="st6" d="M11.85 23v2.16h-.88c-.6 0-1.09.49-1.09 1.09v.52c0 .6.49 1.09 1.09 1.09h.88v5.24h-.88c-.6 0-1.09.49-1.09 1.09v.52c0 .6.49 1.09 1.09 1.09h.88v6.75h18.58V35.8h.89c.6 0 1.09-.49 1.09-1.09v-.52c0-.6-.49-1.09-1.09-1.09h-.88v-5.23h.88c.6 0 1.09-.49 1.09-1.09v-.52c0-.6-.49-1.09-1.09-1.09h-.88v-6.23"/><path id="Línea_2316" class="st6" d="M15.45 26.2h11.38"/><path id="Línea_2317" class="st6" d="M15.45 34.11h11.38"/><path id="Rectángulo_4586" class="st6" d="M10.68 42.53h20.93c.44 0 .8.36.8.8v1.63c0 .44-.36.8-.8.8H10.68c-.44 0-.8-.36-.8-.8v-1.63c0-.44.36-.8.8-.8z"/><path id="Rectángulo_4587" class="st6" d="M16.67 15.7h14.85c.44 0 .8.36.8.8v1.63c0 .44-.36.8-.8.8H16.75"/><path id="Rectángulo_4585-2" class="st6" d="M43.24 12.33h5.59c.29 0 .53.24.53.53v2.32c0 .29-.24.53-.53.53h-5.59c-.29 0-.53-.24-.53-.53v-2.32a.54.54 0 01.53-.53z"/><path id="Trazado_11678-2" class="st6" d="M37.3 18.92v6.23h-.88c-.6 0-1.09.49-1.09 1.09v.52c0 .6.49 1.09 1.09 1.09h.88v5.24h-.88c-.6 0-1.09.49-1.09 1.09v.52c0 .6.49 1.09 1.09 1.09h.88v6.75h18.58V35.8h.88c.6 0 1.09-.49 1.09-1.09v-.52c0-.6-.49-1.09-1.09-1.09h-.88v-5.24h.88c.6 0 1.09-.49 1.09-1.09v-.52c0-.6-.49-1.09-1.09-1.09h-.88v-6.23"/><path id="Línea_2316-2" class="st6" d="M40.9 26.2h11.38"/><path id="Línea_2317-2" class="st6" d="M40.9 34.11h11.38"/><path id="Rectángulo_4586-2" class="st6" d="M36.13 42.53h20.93c.44 0 .8.36.8.8v1.63c0 .44-.36.8-.8.8H36.13c-.44 0-.8-.36-.8-.8v-1.63c0-.44.36-.8.8-.8z"/><path id="Rectángulo_4587-2" class="st6" d="M36.05 15.7h20.93c.44 0 .8.36.8.8v1.63c0 .44-.36.8-.8.8H36.05c-.44 0-.8-.36-.8-.8V16.5c0-.44.36-.8.8-.8z"/></g></svg>