<svg xmlns="http://www.w3.org/2000/svg" viewBox="0 0 47 47"><style>.st4{fill:none;stroke:#fff;stroke-width:1.5;stroke-linecap:round;stroke-linejoin:round}</style><g id="Capa_1"><path fill="none" d="M0 0h47v47H0z"/><g id="Grupo_12849"><path id="Line_1218" class="st4" d="M8.45 39.48h31.9"/><path id="Line_1219" class="st4" d="M11.91 39.48v-3.86"/><path id="Line_1221" class="st4" d="M20.4 39.48v-7.45"/><path id="Line_1222" class="st4" d="M29.14 39.48V27.54"/><path id="Line_1223" class="st4" d="M37.88 39.48V20.36"/></g><g id="Grupo_12850"><path id="Path_1098" class="st4" d="M26.33 16.89l1.73-1.52 2.24 1.75 8.55-8.71"/><path id="Path_1099" class="st4" d="M34.89 8.41h3.96v3.96"/></g><g id="Grupo_12856"><path id="Path_1227" class="st4" d="M21.97 12c0 1.47-1.19 2.65-2.65 2.65-1.47 0-2.65-1.19-2.65-2.65"/><path id="Path_1228" class="st4" d="M16.66 12v-1.83c0-1.47 1.19-2.65 2.65-2.65 1.47 0 2.65 1.19 2.65 2.65V12"/><g id="Grupo_12855"><g id="Grupo_12852"><path id="Line_1370" class="st4" d="M12.47 25.78h13.7"/><g id="Grupo_12851"><g id="Group_2600"><path id="Path_1226" class="st4" d="M19.15 16.84h.33c1-.01 2.01.06 3 .21.98.17 1.87.67 2.52 1.42.99 1.23.78 2.82.9 4.29l.26 3.04"/><path id="Path_1226-2" class="st4" d="M12.47 25.78l.26-3.04"/></g></g></g><g id="Grupo_12854"><path id="Line_1370-2" class="st4" d="M26.17 25.78h-13.7"/><g id="Grupo_12853"><g id="Group_2600-2"><path id="Path_1226-3" class="st4" d="M12.73 22.75l-.26 3.04"/><path id="Path_1226-4" class="st4" d="M22.48 17.04c-.99-.15-2-.22-3-.21h-.33c-.45 0-.9.01-1.35.03"/><path id="Path_1226-5" class="st4" d="M26.17 25.78l-.26-3.04"/></g></g></g></g></g><circle id="Elipse_2131" class="st4" cx="13.04" cy="17.45" r="2.74"/><path id="Línea_2179" class="st4" d="M8.35 29.06l1.8-1.8"/></g></svg>