<svg version="1.1" id="Capa_1" xmlns="http://www.w3.org/2000/svg" xmlns:xlink="http://www.w3.org/1999/xlink" x="0" y="0" viewBox="0 0 65 65" xml:space="preserve"><style>.st0{fill:none}.st2{fill:#4da12e}.st5{fill:#95a6b1}</style><g id="Capa_1_1_"><g id="Grupo_13216_9_" transform="translate(.246 .246)"><path class="st0" d="M-.25-.25h65v65h-65z" id="Rectángulo_3799_9_"/></g><path class="st0" d="M0 0h65v65H0z" id="Rectángulo_3799-2_9_"/><defs><path id="SVGID_1_" d="M0 48.26h65V65H0z"/></defs><clipPath id="SVGID_2_"><use xlink:href="#SVGID_1_" overflow="visible"/></clipPath><g clip-path="url(#SVGID_2_)"><path class="st0" d="M0 48.26h65V65H0z"/><path class="st2" d="M45.38 61.32h-7.17c-.66 0-1.2-.54-1.2-1.2s.54-1.2 1.2-1.2h7.17c.66 0 1.2.54 1.2 1.2s-.54 1.2-1.2 1.2zm7.73 0h-.58c-.66 0-1.2-.54-1.2-1.2s.54-1.2 1.2-1.2h.58c.66 0 1.2.54 1.2 1.2s-.54 1.2-1.2 1.2zm-34.12 0h-7.1c-.66 0-1.2-.54-1.2-1.2s.54-1.2 1.2-1.2h7.1c.66 0 1.2.54 1.2 1.2s-.54 1.2-1.2 1.2z"/><path d="M31.05 61.32H18.53c-.66 0-1.2-.54-1.2-1.2s.54-1.2 1.2-1.2h12.52c.66 0 1.2.54 1.2 1.2s-.54 1.2-1.2 1.2zm4.42-6.11H11.89c-.66 0-1.2-.54-1.2-1.2s.54-1.2 1.2-1.2h23.58c.66 0 1.2.54 1.2 1.2s-.54 1.2-1.2 1.2z" fill="#96d200"/><path class="st2" d="M53.11 55.21H34.75c-.66 0-1.2-.54-1.2-1.2s.54-1.2 1.2-1.2h18.36c.66 0 1.2.54 1.2 1.2s-.54 1.2-1.2 1.2zm-40.79 0h-.43c-.66 0-1.2-.54-1.2-1.2s.54-1.2 1.2-1.2h.43c.66 0 1.2.54 1.2 1.2s-.54 1.2-1.2 1.2z"/></g><path d="M12.65 18.44a4.98 4.98 0 010-9.96h.02a4.97 4.97 0 014.96 4.95v.03a4.98 4.98 0 01-4.98 4.98zm.02-8.36h-.01c-1.87 0-3.38 1.52-3.38 3.38s1.52 3.38 3.38 3.38 3.38-1.52 3.38-3.38v-.03c-.02-1.85-1.53-3.35-3.37-3.35z" fill="#19a500" id="Trazado_11848_3_"/><path class="st5" d="M53.61 48.7H12.43c-.44 0-.8-.36-.8-.8V21.61c0-.44.36-.8.8-.8s.8.36.8.8V47.1h39.58V13.83H20.64c-.44 0-.8-.36-.8-.8s.36-.8.8-.8h32.97c.44 0 .8.36.8.8V47.9c0 .44-.36.8-.8.8z" id="Trazado_11852_1_"/><path class="st5" d="M53.61 18.21c-.44 0-.8-.36-.8-.8v-4.38c0-.44.36-.8.8-.8s.8.36.8.8v4.38c0 .44-.36.8-.8.8z" id="Línea_2421_1_"/><path class="st5" d="M23.71 18.21c-.44 0-.8-.36-.8-.8v-4.38c0-.44.36-.8.8-.8s.8.36.8.8v4.38c0 .44-.36.8-.8.8z" id="Línea_2422_1_"/><path class="st5" d="M31.98 18.21c-.44 0-.8-.36-.8-.8v-4.38c0-.44.36-.8.8-.8s.8.36.8.8v4.38c0 .44-.36.8-.8.8z" id="Línea_2423_1_"/><path class="st5" d="M44.38 18.21c-.44 0-.8-.36-.8-.8v-4.38c0-.44.36-.8.8-.8s.8.36.8.8v4.38c0 .44-.36.8-.8.8z" id="Línea_2424_1_"/><path class="st5" d="M57.16 18.3H20.64c-.44 0-.8-.36-.8-.8s.36-.8.8-.8h36.52c.44 0 .8.36.8.8s-.36.8-.8.8z" id="Línea_2425_1_"/><path class="st5" d="M44.39 48.7h-9.02c-.44 0-.8-.36-.8-.8s.36-.8.8-.8h9.02c.44 0 .8.36.8.8s-.36.8-.8.8zm8.35-24.25h-9.29c-.44 0-.8-.36-.8-.8s.36-.8.8-.8h9.29c.44 0 .8.36.8.8s-.36.8-.8.8zm-12.26 0h-1.24c-.44 0-.8-.36-.8-.8s.36-.8.8-.8h1.24c.44 0 .8.36.8.8s-.36.8-.8.8zM28.55 39.11H12.4c-.44 0-.8-.36-.8-.8s.36-.8.8-.8h16.15c.44 0 .8.36.8.8s-.36.8-.8.8z"/><path class="st5" d="M57.16 48.81H8.09c-.44 0-.8-.36-.8-.8s.36-.8.8-.8h49.07c.44 0 .8.36.8.8s-.36.8-.8.8z"/></g></svg>