<svg xmlns="http://www.w3.org/2000/svg" width="168.566" height="48.566"><g data-name="Grupo 16964"><g data-name="Grupo 10332" transform="translate(118.024 -.217)" fill="none" stroke="#fff" stroke-linecap="round" stroke-linejoin="round"><circle data-name="Elipse 1636" cx="23.5" cy="23.5" r="23.5" transform="translate(-57.241 1)" stroke-width="1.566"/><g data-name="Grupo 16945" stroke-width="1.566"><path data-name="Trazado 18017" d="M-19.232 36.633l-.056-.138a3.673 3.673 0 01.717-4.045l.324-.324-5.12-5.12-.324.324a3.673 3.673 0 01-4.045.717l-.138-.056a3.5 3.5 0 01-2.247-3.219v-.563h-7.24v.483A3.473 3.473 0 01-39.5 27.92c-.136.055-.271.112-.406.172a3.479 3.479 0 01-3.864-.741l-.345-.345-5.12 5.12.324.324a3.675 3.675 0 01.717 4.045l-.057.138"/><path data-name="Trazado 18018" d="M-45.512 39.3a12.2 12.2 0 0111.771-9 12.2 12.2 0 0111.771 9"/></g><g data-name="Grupo 16955" stroke-width="1.507"><g data-name="Grupo 16948"><path data-name="Línea 3252" d="M-33.741 24.051V13.492"/><path data-name="Trazado 18019" d="M-33.8 13.492s-3.778-2.966 0-7.407c0 0 4.047 3.773 0 7.407z"/><g data-name="Grupo 16946"><path data-name="Trazado 18020" d="M-33.711 20.389s-.734-4.746 5.059-5.411c0 0 .38 5.522-5.059 5.411z"/><path data-name="Trazado 18021" d="M-33.771 20.389s.734-4.746-5.059-5.411c0 0-.38 5.522 5.059 5.411z"/></g><g data-name="Grupo 16947"><path data-name="Trazado 18022" d="M-33.711 16.165s-.734-4.746 5.059-5.41c0 0 .38 5.521-5.059 5.41z"/><path data-name="Trazado 18023" d="M-33.771 16.165s.734-4.746-5.059-5.41c0 0-.38 5.521 5.059 5.41z"/></g></g><g data-name="Grupo 16951"><path data-name="Línea 3253" d="M-20.233 29.861V18.302"/><path data-name="Trazado 18024" d="M-20.294 18.3s-3.777-2.966 0-7.407c0 .007 4.049 3.776 0 7.407z"/><g data-name="Grupo 16949"><path data-name="Trazado 18025" d="M-20.2 25.2s-.734-4.747 5.058-5.411c-.003 0 .378 5.521-5.058 5.411z"/><path data-name="Trazado 18026" d="M-20.263 25.2s.733-4.747-5.059-5.411c0 0-.378 5.521 5.059 5.411z"/></g><g data-name="Grupo 16950"><path data-name="Trazado 18027" d="M-20.2 20.976s-.734-4.746 5.058-5.41c-.003 0 .378 5.521-5.058 5.41z"/><path data-name="Trazado 18028" d="M-20.263 20.976s.733-4.746-5.059-5.41c0 0-.378 5.521 5.059 5.41z"/></g></g><g data-name="Grupo 16954"><path data-name="Línea 3254" d="M-47.249 29.861V18.302"/><path data-name="Trazado 18029" d="M-47.309 18.3s-3.778-2.966 0-7.407c0 .007 4.048 3.776 0 7.407z"/><g data-name="Grupo 16952"><path data-name="Trazado 18030" d="M-47.219 25.2s-.734-4.747 5.059-5.411c0 0 .38 5.521-5.059 5.411z"/><path data-name="Trazado 18031" d="M-47.279 25.2s.734-4.747-5.059-5.411c0 0-.38 5.521 5.059 5.411z"/></g><g data-name="Grupo 16953"><path data-name="Trazado 18032" d="M-47.219 20.976s-.734-4.746 5.059-5.41c0 0 .38 5.521-5.059 5.41z"/><path data-name="Trazado 18033" d="M-47.279 20.976s.734-4.746-5.059-5.41c0 0-.38 5.521 5.059 5.41z"/></g></g></g></g><g data-name="Grupo 10332" transform="translate(119.783 -.217)"><circle data-name="Elipse 1636" cx="23.5" cy="23.5" r="23.5" transform="translate(1 1)" fill="none" stroke="#fff" stroke-linecap="round" stroke-linejoin="round" stroke-width="1.566"/><g data-name="Grupo 16958"><path data-name="Trazado 18034" d="M17.035 10.234l1.278 2.244a3.474 3.474 0 01-.617 4.233C15.528 18.78 13.362 21 12.755 23.96a10.686 10.686 0 00-.039 4.1 16.855 16.855 0 006.511 9.875l-2.587 1.4a1.062 1.062 0 00-.559.937v1.2h16.861V40.23a1.059 1.059 0 00-.6-.959c-.975-.467-2.548-1.337-2.548-1.337a16.661 16.661 0 006.459-9.9 10.691 10.691 0 00.147-3.3c-.374-3.364-2.7-5.845-5.032-8.16a3.475 3.475 0 01-.687-3.965l1.132-2.374z" fill="none" stroke="#fff" stroke-linecap="round" stroke-linejoin="round" stroke-width="1.566"/><rect data-name="Rectángulo 5284" width="18.796" height="2.702" rx="1.349" transform="translate(15.102 7.532)" fill="none" stroke="#fff" stroke-linecap="round" stroke-linejoin="round" stroke-width="1.566"/><g data-name="Grupo 16956"><path data-name="Trazado 18035" d="M14.123 21.179c2.123 0 2.123 1.741 4.247 1.741s2.124-1.741 4.249-1.741 2.126 1.741 4.252 1.741 2.129-1.741 4.255-1.741 2.127 1.741 4.255 1.741" fill="none" stroke="#fff" stroke-linecap="round" stroke-linejoin="round" stroke-width="1.566"/></g><g data-name="Grupo 16957"><path data-name="Trazado 18036" d="M12.764 26.868c2.26 0 2.26 1.741 4.519 1.741s2.26-1.741 4.52-1.741 2.262 1.741 4.524 1.741 2.263-1.741 4.527-1.741 2.263 1.741 4.527 1.741" fill="none" stroke="#fff" stroke-linecap="round" stroke-linejoin="round" stroke-width="1.566"/></g><path data-name="Línea 3255" fill="none" stroke="#fff" stroke-linecap="round" stroke-linejoin="round" stroke-width="1.566" d="M20.76 17.746h1.823"/><path data-name="Línea 3256" fill="none" stroke="#fff" stroke-linecap="round" stroke-linejoin="round" stroke-width="1.566" d="M32.234 17.746h-6.441"/><path data-name="Línea 3257" fill="none" stroke="#fff" stroke-linecap="round" stroke-linejoin="round" stroke-width="1.566" d="M26.141 31.671h-1.823"/><path data-name="Línea 3258" fill="none" stroke="#fff" stroke-linecap="round" stroke-linejoin="round" stroke-width="1.566" d="M14.667 31.671h6.441"/></g></g><g data-name="Grupo 10332" transform="translate(118.501 -.217)"><circle data-name="Elipse 1636" cx="23.5" cy="23.5" r="23.5" transform="translate(-117.718 1)" fill="none" stroke="#fff" stroke-linecap="round" stroke-linejoin="round" stroke-width="1.566"/><g data-name="Grupo 16963"><g data-name="Grupo 16960" fill="none" stroke="#fff" stroke-linecap="round" stroke-linejoin="round" stroke-width="1.566"><path data-name="Trazado 18037" d="M-105.158 26.374l7.153-16.387 5.362-5.76L-81.072 28.5"/><g data-name="Grupo 16959"><path data-name="Trazado 18038" d="M-99.371 13.207L-97.487 15l1.773-1.68 1.788 1.734"/><path data-name="Trazado 18039" d="M-88.515 13.207L-90.4 15l-1.773-1.68-1.787 1.73"/></g></g><path data-name="Trazado 18040" d="M-112.343 26.664h21.8a2.105 2.105 0 012.1 2.1v.316a2.105 2.105 0 01-2.1 2.105h-1.827a2.105 2.105 0 00-2.1 2.1v.316a2.105 2.105 0 002.1 2.1h14.279" fill="none" stroke="#fff" stroke-linecap="round" stroke-linejoin="round" stroke-width="1.566"/><g data-name="Grupo 16961"><path data-name="Trazado 18041" d="M-104 39.773c1.89 0 1.89 2 3.781 2s1.89-2 3.781-2 1.892 2 3.783 2 1.894-2 3.789-2 1.894 2 3.788 2" fill="none" stroke="#fff" stroke-linecap="round" stroke-linejoin="round" stroke-width="1.566"/></g><g data-name="Grupo 16962"><path data-name="Trazado 18042" d="M-110.191 30.837c1.985 0 1.985 2 3.97 2s1.988-2 3.976-2 1.988 2 3.977 2" fill="none" stroke="#fff" stroke-linecap="round" stroke-linejoin="round" stroke-width="1.566"/></g></g></g></g></svg>