<svg xmlns="http://www.w3.org/2000/svg" viewBox="0 0 60 60"><style>.st3{fill:#fff}</style><g id="Capa_2"><path d="M30 0c16.57 0 30 13.43 30 30S46.57 60 30 60 0 46.57 0 30 13.43 0 30 0z" fill="#19a500" id="Rectángulo_3799_19_"/></g><g id="Capa_1"><path fill="none" d="M0 0h60v60H0z" id="Rectángulo_3799_15_"/><path class="st3" d="M12.41 45.5c-.33 0-.6-.27-.6-.6v-9.19c0-.33.27-.6.6-.6s.6.27.6.6v9.19c0 .33-.27.6-.6.6z"/><path class="st3" d="M51.8 45.5H8.87c-.33 0-.6-.27-.6-.6s.27-.6.6-.6H51.8c.33 0 .6.27.6.6s-.27.6-.6.6z"/><path class="st3" d="M32.95 45.45c-.33 0-.6-.27-.6-.6V31c0-.33.27-.6.6-.6s.6.27.6.6v13.86a.6.6 0 01-.6.59zm-8.75.12c-.33 0-.6-.27-.6-.6V34.85h-4.2v10.11c0 .33-.27.6-.6.6s-.6-.27-.6-.6V34.25c0-.33.27-.6.6-.6h5.4c.33 0 .6.27.6.6v10.71c0 .34-.27.61-.6.61zm17.16-.16c-.33 0-.6-.27-.6-.6v-28.2c0-.33.27-.6.6-.6s.6.27.6.6v28.2c0 .33-.27.6-.6.6z"/><path class="st3" d="M41.29 26.05c-.12 0-.24-.04-.35-.11l-4.17-2.99a.605.605 0 01-.14-.84c.19-.27.56-.33.84-.14l4.17 2.99c.27.19.33.57.14.84-.11.16-.3.25-.49.25zm.07-4.66a.6.6 0 01-.31-1.11l4.17-2.55c.28-.17.65-.08.83.2a.6.6 0 01-.2.82l-4.17 2.55c-.11.06-.22.09-.32.09zm0 8.13a.6.6 0 01-.31-1.11l4.17-2.55c.28-.17.65-.08.83.2a.6.6 0 01-.2.82l-4.17 2.55c-.11.06-.22.09-.32.09zm-4.15 3.95c-.1 0-.2-.02-.29-.08l-14.55-8.08-3.95 1.89a.6.6 0 11-.52-1.08l4.23-2.03c.17-.08.38-.08.55.02l14.82 8.23c.29.16.39.53.23.82-.1.2-.31.31-.52.31z"/><path class="st3" d="M35.65 32.59c-.19 0-.37-.09-.49-.25a.607.607 0 01.14-.84c.65-.46.8-1.72.81-2.16 0-1.79-1.46-3.25-3.25-3.25h-.17c-.25 0-.48-.16-.57-.4s-.01-.51.19-.67c.65-.52 1.03-1.29 1.03-2.09v-1.12c0-1.33-1-2.47-2.33-2.65a.612.612 0 01-.42-.26.601.601 0 01-.08-.49c.11-.42.16-.77.16-1.1 0-2.37-1.93-4.3-4.3-4.3s-4.3 1.93-4.3 4.3c0 .34.05.69.17 1.12a.597.597 0 01-.46.74 2.68 2.68 0 00-2.18 2.64v1.12c0 .81.38 1.57 1.03 2.09.26.21.3.58.09.84s-.58.3-.84.1a3.876 3.876 0 01-1.48-3.03v-1.12c0-1.65 1.04-3.1 2.56-3.65-.05-.3-.08-.57-.08-.85 0-3.03 2.46-5.5 5.5-5.5s5.5 2.47 5.5 5.5c0 .26-.02.52-.07.8 1.6.5 2.74 1.99 2.74 3.7v1.12c0 .75-.22 1.47-.62 2.09 1.94.48 3.39 2.23 3.39 4.32 0 .23-.04 2.23-1.31 3.13-.11.08-.24.12-.36.12z"/><path class="st3" d="M26.59 27.2c-.33 0-.6-.27-.6-.6v-6.83c0-.33.27-.6.6-.6s.6.27.6.6v6.83c0 .33-.27.6-.6.6zm14.76 4.7c-1.66 0-3.26-.36-4.75-1.06-.3-.14-.43-.5-.29-.8.14-.3.5-.43.8-.29 1.33.63 2.76.95 4.24.95 5.48 0 9.94-4.46 9.94-9.94s-4.46-9.94-9.94-9.94c-4.7 0-8.8 3.34-9.74 7.94-.07.32-.39.53-.71.47a.603.603 0 01-.47-.71c1.05-5.15 5.64-8.9 10.91-8.9 6.14 0 11.14 5 11.14 11.14S47.49 31.9 41.35 31.9z"/><path d="M12.48 33.9c-.61 0-1.23-.13-1.82-.39a4.417 4.417 0 01-2.34-2.48c-.42-1.11-.39-2.32.1-3.41.49-1.09 1.37-1.92 2.48-2.34s2.32-.39 3.41.1c2.24 1.01 3.25 3.65 2.24 5.89a4.451 4.451 0 01-4.07 2.63zm.01-7.72a3.233 3.233 0 00-2.97 1.92c-.36.79-.38 1.68-.07 2.49.31.81.92 1.46 1.71 1.81 1.64.74 3.57 0 4.31-1.64.74-1.64 0-3.57-1.64-4.31-.43-.17-.88-.27-1.34-.27z" fill="#efef00"/></g></svg>