<svg xmlns="http://www.w3.org/2000/svg" width="72.032" height="113.913"><g data-name="Grupo 19893"><g data-name="Grupo 19892" fill="#fff" transform="translate(-28.984 -3.043)"><circle data-name="Elipse 2313" cx="1.9" cy="1.9" r="1.9" transform="translate(83.77 96.387)"/><circle data-name="Elipse 2314" cx="1.9" cy="1.9" r="1.9" transform="translate(76.82 92.678)"/><circle data-name="Elipse 2315" cx="1.9" cy="1.9" r="1.9" transform="translate(67.534 92.16)"/></g><path data-name="Trazado 19603" d="M1.5 27.557l3.9-3.409 1.339-5.235-.852-1.7L8.078 14.9l.609-9.983L13.066 1.5l-1.948 5.6.974 1.339 1.824-1.216 1.339.243-.609 7.061v1.217l6.456 2.313 1.1-1.461 2.07 1.339-1.826 3.652-2.07 8.4.243 2.191h2.435l3.652-3.531 2.557 2.557h3.9l-1.347 1.464.243 1.339h1.583l4.626 3.65h2.435l1.7.852-1.217 1.217-.365 2.191 3.295 1.587 2.191-1.826 3.162 2.679-1.948 1.583-1.705 2.917.852 1.1.122 4.518 1.7 1.736v3.73l2.926 1.582 2.07 5.235 8.279 2.313 4.383 5.357 3.774 6.7-3.652 2.678.852 9.5 1.217 1.217.243 4.018h1.339l.609 2.678-1.7 4.626h-2.314l-1.1.73.243 2.07-2.07 1.826-.122 1.948-1.461-1.1-3.044.122-1.339-.852-1.217 1.826h-1.7l-.365-1.7.852-1.339v-2.319l-2.191-1.583-2.435-.243-1.951-3.531-3.044-1.7-.974 1.583-3.165-2.07v1.944l-6.329 3.774-3.046.365-2.313-1.217v-1.339l1.217-1.461-5.844-2.07-1.7-3.165-.247-6.087-1.1-.974 1.7-5.113-2.8-1.583-1.826-3.044 1.583-1.217 3.9.974-.122-1.583 2.313-1.826 3.531-1.217.609-2.678-1.461-3.531.974-1.217-2.431-1.951-2.313.122-3.044-3.287-2.191-.975-2.678.73L15.38 58.6l.365-4.126h-5.114l-1.826-1.717-2.435-3.044-4.87-1.948v-2.679l2.07.365 3.044-2.8 2.435-6.94-.852-4.992-2.313-2.678z" fill="none" stroke="#fff" stroke-linecap="round" stroke-linejoin="round" stroke-width="3"/></g></svg>