<svg version="1.1" id="Capa_1" xmlns="http://www.w3.org/2000/svg" xmlns:xlink="http://www.w3.org/1999/xlink" x="0" y="0" viewBox="0 0 65 65" xml:space="preserve"><style>.st2{fill:none}.st3{fill:#4da12e}.st5{fill:none;stroke:#95a6b1;stroke-width:1.6;stroke-linecap:round;stroke-linejoin:round}</style><g id="Capa_1_1_"><defs><path id="SVGID_1_" d="M0 48.26h65V65H0z"/></defs><clipPath id="SVGID_2_"><use xlink:href="#SVGID_1_" overflow="visible"/></clipPath><g clip-path="url(#SVGID_2_)"><path class="st2" d="M0 48.26h65V65H0z"/><path class="st3" d="M45.38 61.32h-7.17c-.66 0-1.2-.54-1.2-1.2s.54-1.2 1.2-1.2h7.17c.66 0 1.2.54 1.2 1.2s-.54 1.2-1.2 1.2zm7.73 0h-.58c-.66 0-1.2-.54-1.2-1.2s.54-1.2 1.2-1.2h.58c.66 0 1.2.54 1.2 1.2s-.54 1.2-1.2 1.2zm-34.12 0h-7.1c-.66 0-1.2-.54-1.2-1.2s.54-1.2 1.2-1.2h7.1c.66 0 1.2.54 1.2 1.2s-.54 1.2-1.2 1.2z"/><path d="M31.05 61.32H18.53c-.66 0-1.2-.54-1.2-1.2s.54-1.2 1.2-1.2h12.52c.66 0 1.2.54 1.2 1.2s-.54 1.2-1.2 1.2zm4.42-6.11H11.89c-.66 0-1.2-.54-1.2-1.2s.54-1.2 1.2-1.2h23.58c.66 0 1.2.54 1.2 1.2s-.54 1.2-1.2 1.2z" fill="#96d200"/><path class="st3" d="M53.11 55.21H34.75c-.66 0-1.2-.54-1.2-1.2s.54-1.2 1.2-1.2h18.36c.66 0 1.2.54 1.2 1.2s-.54 1.2-1.2 1.2zm-40.79 0h-.43c-.66 0-1.2-.54-1.2-1.2s.54-1.2 1.2-1.2h.43c.66 0 1.2.54 1.2 1.2s-.54 1.2-1.2 1.2z"/></g><path id="Rectángulo_3799-2_1_" class="st2" d="M0 0h65v65H0z"/><path class="st5" d="M49.23 7.26v-2.3m0 14.39v2.3m0-14.39v-2.3m0 14.39v2.3m6.04-8.34h2.3m-16.69 0h2.3M53.5 9.03l1.63-1.62M44.95 17.58l-1.62 1.63m10.17-1.63l1.63 1.63M44.95 9.03l-1.62-1.62"/><path id="Trazado_12511_2_" d="M52.54 11.79c.38.84.44 1.79.15 2.66a3.65 3.65 0 01-1.94 2.17c-1.83.84-3.99.03-4.83-1.8h0a3.644 3.644 0 011.8-4.83c1.82-.83 3.98-.03 4.82 1.8z" fill="none" stroke="#19a500" stroke-width="1.6" stroke-miterlimit="10"/><path class="st5" d="M37.66 13.31H15.67l-7.64 23.2h48.94L52.6 23.24M33.09 36.51v-23.2m-12.78 23.2l3.82-23.2m21.35 23.2l-2.31-14.07m-29.63-2.67h26.73m-29.12 7.26H53.9m-24.27 9.48v11.75m6.74-11.6v11.4m-17.23.2h27.9"/></g></svg>