<svg version="1.1" id="Layer_1" xmlns="http://www.w3.org/2000/svg" x="0" y="0" width="59" height="47" xml:space="preserve"><style>.st1{fill:#fff}</style><g id="Group_9439" transform="translate(6302 -2808)"><path fill="none" d="M-6302 2808h59v47h-59z" id="Rectangle_3086"/><g id="Group_9438"><path class="st1" d="M-6253.2 2843.6c-.4 0-.8-.4-.8-.8v-22.6c0-.4.4-.8.8-.8s.8.4.8.8v22.6c0 .4-.4.8-.8.8z" id="Line_1837"/><path class="st1" d="M-6258 2843.6c-.4 0-.8-.4-.8-.8v-22.6c0-.4.4-.8.8-.8s.8.4.8.8v22.6c0 .4-.4.8-.8.8z" id="Line_1838"/><path class="st1" d="M-6262.8 2843.6c-.4 0-.8-.4-.8-.8v-22.6c0-.4.4-.8.8-.8s.8.4.8.8v22.6c0 .4-.3.8-.8.8z" id="Line_1839"/><path class="st1" d="M-6277.6 2838.6h-12.7c-.4 0-.8-.4-.8-.8v-12.7c0-.4.4-.8.8-.8h12.7c.4 0 .8.4.8.8v12.7c-.1.5-.4.8-.8.8zm-12-1.5h11.1V2826h-11.1v11.1z" id="Rectangle_3085"/><path class="st1" d="M-6280.8 2835.5c-.2 0-.4-.1-.6-.2l-6.4-6.4c-.3-.3-.3-.8 0-1.1s.8-.3 1.1 0l6.4 6.4c.3.3.3.8 0 1.1-.1.1-.3.2-.5.2z" id="Line_1840"/><path class="st1" d="M-6287.2 2835.5c-.2 0-.4-.1-.6-.2-.3-.3-.3-.8 0-1.1l6.4-6.4c.3-.3.8-.3 1.1 0s.3.8 0 1.1l-6.4 6.4c-.1.1-.3.2-.5.2z" id="Line_1841"/></g></g></svg>