<svg data-name="Grupo 15460" xmlns="http://www.w3.org/2000/svg" width="65" height="65"><g data-name="Grupo 15462"><g data-name="Grupo 15461" fill="none"><path data-name="Rectángulo 5217" d="M0 48.259h65V65H0z"/><g data-name="Grupo 15460" stroke-linecap="round" stroke-linejoin="round" stroke-width="2.4"><path data-name="Línea 3220" stroke="#4da12e" d="M38.214 60.119h7.167"/><path data-name="Línea 3221" stroke="#4da12e" d="M52.528 60.119h.581"/><path data-name="Línea 3222" stroke="#4da12e" d="M11.891 60.119h7.101"/><path data-name="Línea 3223" stroke="#96d200" d="M18.529 60.119h12.517"/><path data-name="Línea 3224" stroke="#96d200" d="M11.891 54.012h23.582"/><path data-name="Línea 3225" stroke="#4da12e" d="M34.746 54.012h18.363"/><path data-name="Línea 3226" stroke="#4da12e" d="M11.891 54.012h.429"/></g></g></g><g data-name="Grupo 12949"><g data-name="Grupo 11514"><g data-name="Grupo 15064" fill="none" stroke-width="1.6"><path data-name="Trazado 12510" d="M37.205 19.057c-.7 1.317-1.716 3.133-5.459 3.575" stroke="#95a6b1" stroke-linecap="round" stroke-linejoin="round"/><path data-name="Trazado 12511" d="M26.735 18.247a3.644 3.644 0 11-6.627 3.031h0a3.644 3.644 0 116.627-3.031z" stroke="#19a500" stroke-miterlimit="10"/><path data-name="Trazado 12512" d="M29.829 25.266a7.863 7.863 0 01-1.863-.868" stroke="#95a6b1" stroke-linecap="round" stroke-linejoin="round"/><path data-name="Trazado 12513" d="M25.672 13.4a53.436 53.436 0 014.644-7.211 2.357 2.357 0 013.3-.486 2.332 2.332 0 01.486.486c2.342 3.139 6.026 8.542 6.026 11.524a7.918 7.918 0 01-7.917 7.918h0a7.9 7.9 0 01-2.379-.364" stroke="#95a6b1" stroke-linecap="round" stroke-linejoin="round"/><path data-name="Trazado 12514" d="M45.225 28.649l-3.481 18.489H23.255l-3.48-18.489m1.025 4.715c1.949 0 1.949 1.477 3.9 1.477s1.949-1.477 3.9-1.477 1.949 1.477 3.9 1.477 1.95-1.477 3.9-1.477 1.952 1.477 3.9 1.477 1.952-1.477 3.9-1.477" stroke="#95a6b1" stroke-linecap="round" stroke-linejoin="round"/></g></g></g><path data-name="Rectángulo 3799-2" fill="none" d="M0 0h65v65H0z"/></svg>