<svg xmlns="http://www.w3.org/2000/svg" viewBox="0 0 60 60"><path d="M30 0c16.57 0 30 13.43 30 30S46.57 60 30 60 0 46.57 0 30 13.43 0 30 0z" fill="#19a500"/><path fill="none" d="M0 0h60v60H0z"/><circle cx="40.53" cy="17.43" r="3.86" fill="none" stroke="#efef00" stroke-width="1.2" stroke-miterlimit="10"/><path d="M44.38 21.82c.38.84.66 1.74.82 2.68h1.2c4.15 0 7.55 3.92 7.55 8.08v.47c0 4.15-3.4 8.55-7.55 8.55m-24.23 0H11.76c-2.79 0-5.71-3.16-5.71-6.71 0-4.21 2.87-6.71 5.71-6.71h1.94c1.17-2.49 3.69-4.22 6.61-4.22h2.91c1.13-5.01 5.59-8.75 10.94-8.75.28 0 .55.01.83.03m-10.08 4.97a7.797 7.797 0 10-13.51 7.78m6.53-13.21v-2.75M9.36 22.96H6.61m4.62-5.56l-1.94-1.94m14.88 1.94l1.95-1.94m10.84 26.15h4.48c1.62 0 2.94 1.31 2.94 2.94 0 1.62-1.31 2.94-2.94 2.94 0 0-1.93.15-2.81-1.64m-9.69-2.09h4.54a2.1 2.1 0 110 4.2s-1.38.11-2.01-1.17m-6.42-5.18h7.48c1.62 0 2.94-1.31 2.94-2.94 0-1.62-1.31-2.94-2.94-2.94 0 0-1.93-.15-2.81 1.64" fill="none" stroke="#fff" stroke-width="1.2" stroke-linecap="round" stroke-linejoin="round" stroke-miterlimit="10"/></svg>