<svg version="1.1" id="Layer_1" xmlns="http://www.w3.org/2000/svg" x="0" y="0" width="47" height="47" xml:space="preserve"><style>.st1{fill:#fff}</style><g id="Group_11143" transform="translate(-69.358)"><path fill="none" d="M69.4 0h47v47h-47z" id="Rectangle_4056"/><g id="Group_11139"><path class="st1" d="M80.3 20.9c-3.1 0-5.6-2.5-5.6-5.6s2.5-5.6 5.6-5.6 5.6 2.5 5.6 5.6-2.5 5.6-5.6 5.6zm0-9.7c-2.2 0-4.1 1.8-4.1 4.1s1.8 4.1 4.1 4.1 4.1-1.8 4.1-4.1-1.9-4.1-4.1-4.1z" id="Ellipse_1802"/><path class="st1" d="M83.1 39.3c-2.8 0-5.2-2.3-5.2-5.2s2.3-5.2 5.2-5.2 5.2 2.3 5.2 5.2-2.4 5.2-5.2 5.2zm0-8.7c-2 0-3.6 1.6-3.6 3.6s1.6 3.6 3.6 3.6 3.6-1.6 3.6-3.6-1.6-3.6-3.6-3.6z" id="Ellipse_1803"/><path class="st1" d="M106.8 23.1c-2.4 0-4.3-1.9-4.3-4.3s1.9-4.3 4.3-4.3 4.3 1.9 4.3 4.3-2 4.3-4.3 4.3zm0-7c-1.5 0-2.7 1.2-2.7 2.7s1.2 2.7 2.7 2.7 2.7-1.2 2.7-2.7-1.2-2.7-2.7-2.7z" id="Ellipse_1804"/><path class="st1" d="M101.7 41.6c-2.2 0-4-1.8-4-4s1.8-4 4-4 4 1.8 4 4-1.8 4-4 4zm0-6.5c-1.3 0-2.4 1.1-2.4 2.4s1.1 2.4 2.4 2.4 2.4-1.1 2.4-2.4-1.1-2.4-2.4-2.4z" id="Ellipse_1805"/><path class="st1" d="M95.6 12.7c-2 0-3.6-1.6-3.6-3.6s1.6-3.6 3.6-3.6 3.6 1.6 3.6 3.6-1.6 3.6-3.6 3.6zm0-5.7c-1.1 0-2 .9-2 2s.9 2 2 2 2-.9 2-2-.8-2-2-2z" id="Ellipse_1806"/><path class="st1" d="M93.8 27.4c-2.7 0-5-2.2-5-5 0-2.7 2.2-5 5-5 2.7 0 5 2.2 5 5 0 2.7-2.2 5-5 5zm0-8.4c-1.9 0-3.4 1.5-3.4 3.4s1.5 3.4 3.4 3.4 3.4-1.5 3.4-3.4-1.5-3.4-3.4-3.4z" id="Ellipse_1807"/><path class="st1" d="M94.5 19c-.1 0-.1 0 0 0-.5-.1-.8-.4-.8-.9l.7-6.4c0-.4.4-.7.9-.7.4 0 .7.4.7.9l-.7 6.4c-.1.4-.4.7-.8.7z" id="Line_1948"/><path class="st1" d="M97.9 22c-.3 0-.7-.2-.8-.6-.1-.4.1-.9.5-1l5.5-1.6c.4-.1.9.1 1 .5.1.4-.1.9-.5 1L98.1 22h-.2z" id="Line_1949"/><path class="st1" d="M100.2 35.5c-.3 0-.6-.2-.7-.4L95 26.5c-.2-.4-.1-.9.3-1.1.4-.2.9-.1 1.1.3l4.6 8.5c.2.4.1.9-.3 1.1-.2.2-.4.2-.5.2z" id="Line_1950"/><path class="st1" d="M86.1 31.8c-.2 0-.4-.1-.5-.2-.3-.3-.3-.8-.1-1.1l4.9-5.5c.3-.3.8-.3 1.1-.1.3.3.3.8.1 1.1l-4.9 5.5c-.2.2-.4.3-.6.3z" id="Line_1951"/><path class="st1" d="M90.3 20.9c-.1 0-.2 0-.3-.1l-5.6-2.7c-.4-.2-.6-.7-.4-1 .2-.4.7-.6 1-.4l5.6 2.7c.4.2.6.7.4 1-.1.4-.4.5-.7.5z" id="Line_1952"/></g></g></svg>