<svg xmlns="http://www.w3.org/2000/svg" viewBox="0 0 130 120"><circle cx="46.7" cy="108.2" r="1.9" fill="none"/><path d="M24.2 82.9l-1.6-6.3c-.1-.4.1-.9.5-1.2l10.1-5.8c.1-.1.2-.1.2-.2l7.3-7.8.1-.1 7.4-6.5c.3-.3.5-.8.2-1.2l-3-6.3c-.1-.2-.1-.3-.1-.5l.9-12.9c0-.2.1-.3.2-.5l5.3-8.8c.1-.2.2-.5.1-.8l-1.7-6.8-2.2-8.3c-.1-.3 0-.6.2-.9l2.8-4.1c.5-.6 1.4-.6 1.8.1l4 8.2c0 .1.1.2.1.3l.9 7.3c0 .4.3.6.6.8l4 1.9c.2.1.4.3.5.5l2.7 5.6c.2.3.4.5.8.6L76 31c.5.1 1-.2 1.1-.7l.9-2.6c.1-.4.5-.7 1-.7l9.5.2c.6 0 1 .5 1 1v3.1c0 .4.2.7.5.9l3.3 2c.2.1.3.3.4.5l2.7 7c.1.2.1.4 0 .6l-.8 3.5c-.1.2 0 .4 0 .6l2.3 6.6c.1.2.2.4.4.5l5 3.5c.2.2.5.2.8.2l4.8-.8c.5-.1.9.2 1.1.6l1.9 4.6c.1.1.1.3.1.4v10.7l-1.2 6.4c-.1.3-.2.6-.5.7l-4.3 2.3c-.4.2-.9.1-1.3-.2l-4.5-5.2c-.4-.5-1.1-.5-1.5 0l-.3.3c-.3.3-.3.9-.1 1.3l2.7 4c.1.2.2.3.2.6l.2 5.6c0 .2-.1.5-.2.6l-4.6 6.3s0 .1-.1.1l-7.8 8.5c-.2.2-.6.4-.9.3l-6.9-.8c-.3 0-.7.1-.9.4L71.3 114c-.4.5-1.1.5-1.5 0l-2-2.1c-.3-.3-.4-.8-.2-1.2l3.4-6.3c.2-.4.1-.9-.2-1.2L66.6 99c-.5-.5-1.2-.4-1.6.2l-5.2 8.3c-.1.1-.1.3-.2.4l-.9 7.1c-.1.9-1.2 1.2-1.8.6l-1.4-1.5c-.3-.3-.9-.4-1.3-.2l-3.5 2.1c-.2.1-.4.2-.6.1l-7.1-.7c-.2 0-.5-.1-.7-.3l-4-4.3-.1-.1-2.6-1.8c-.5-.4-1.3-.2-1.6.4l-.5 1.1c-.1.2-.2.4-.4.5l-1.5.9c-.2.1-.3.2-.5.2h-.9c-.5 0-1.3-.9-1.3-1.4l-.1-.8c0-.3.1-.6.2-.8l1-1.2c.1-.1.2-.2.2-.4l.9-2.8c.1-.3 0-.5-.1-.8l-2.1-3.9c-.2-.4-.8-.7-1.2-.5l-3.5 1.2c-.4.1-.8 0-1.1-.3l-3.4-4c-.1-.1-.1-.2-.2-.3L18 90.8c-.1-.4 0-.8.2-1.1l5.8-5.8c.2-.2.3-.6.2-1z" fill="none" stroke="#fff" stroke-width="3" stroke-linecap="round" stroke-linejoin="round"/></svg>