<svg version="1.1" id="Capa_1" xmlns="http://www.w3.org/2000/svg" x="0" y="0" viewBox="0 0 47 47" xml:space="preserve"><style>.st32{fill:#fff}</style><path fill="none" d="M0 0h47v47H0z"/><g id="Grupo_12893" transform="translate(-4072 -3616)"><g id="Grupo_12863" transform="translate(3.647 5.595)"><path class="st32" d="M4104.09 3650.66h-22.55c-.41 0-.75-.34-.75-.75v-24.11c0-.41.34-.75.75-.75s.75.34.75.75v23.36h21.05v-28.51h-15.84c-.41 0-.75-.34-.75-.75s.34-.75.75-.75h16.59c.41 0 .75.34.75.75v30.01c0 .41-.34.75-.75.75z" id="Trazado_11535"/><path class="st32" d="M4098.2 3632.09h-10.88c-.41 0-.75-.34-.75-.75v-4.49c0-.41.34-.75.75-.75h10.88c.41 0 .75.34.75.75v4.49c0 .41-.34.75-.75.75zm-10.13-1.5h9.38v-2.99h-9.38v2.99z" id="Rectángulo_4544"/><path class="st32" d="M4099.97 3637.52h-14.31c-.41 0-.75-.34-.75-.75s.34-.75.75-.75h14.31c.41 0 .75.34.75.75s-.34.75-.75.75z" id="Línea_2180"/><path class="st32" d="M4099.97 3641.54h-14.31c-.41 0-.75-.34-.75-.75s.34-.75.75-.75h14.31c.41 0 .75.34.75.75s-.34.75-.75.75z" id="Línea_2181"/><path class="st32" d="M4094.3 3645.56h-8.64c-.41 0-.75-.34-.75-.75s.34-.75.75-.75h8.64c.41 0 .75.34.75.75s-.34.75-.75.75z" id="Línea_2182"/><path class="st32" d="M4082.02 3623.46a3.15 3.15 0 110-6.3 3.15 3.15 0 010 6.3zm0-4.8c-.91 0-1.65.74-1.65 1.65s.74 1.65 1.65 1.65 1.65-.74 1.65-1.65-.74-1.65-1.65-1.65z" id="Elipse_2132"/></g></g></svg>