<svg version="1.1" id="Capa_1" xmlns="http://www.w3.org/2000/svg" x="0" y="0" viewBox="0 0 47 47" xml:space="preserve"><style>.st1{fill:#fff}</style><path fill="none" d="M0 0h47v47H0z"/><g id="Grupo_12849"><path class="st1" d="M40.35 40.23H8.45c-.41 0-.75-.34-.75-.75s.34-.75.75-.75h31.9c.41 0 .75.34.75.75s-.34.75-.75.75z" id="Line_1218"/><path class="st1" d="M11.91 40.23c-.41 0-.75-.34-.75-.75v-3.87c0-.41.34-.75.75-.75s.75.34.75.75v3.87c0 .42-.34.75-.75.75z" id="Line_1219"/><path class="st1" d="M20.41 40.23c-.41 0-.75-.34-.75-.75v-7.46c0-.41.34-.75.75-.75s.75.34.75.75v7.46c0 .42-.34.75-.75.75z" id="Line_1221"/><path class="st1" d="M29.14 40.23c-.41 0-.75-.34-.75-.75V27.54c0-.41.34-.75.75-.75s.75.34.75.75v11.94c0 .42-.33.75-.75.75z" id="Line_1222"/><path class="st1" d="M37.88 40.23c-.41 0-.75-.34-.75-.75V20.36c0-.41.34-.75.75-.75s.75.34.75.75v19.12c0 .42-.34.75-.75.75z" id="Line_1223"/></g><g id="Grupo_12850"><path class="st1" d="M30.3 17.88c-.16 0-.33-.05-.46-.16l-1.75-1.37-1.26 1.11c-.31.27-.78.24-1.06-.07a.756.756 0 01.07-1.06l1.73-1.52c.27-.24.67-.25.96-.03l1.72 1.34 8.08-8.23c.29-.29.76-.3 1.06-.01.3.29.3.76.01 1.06l-8.55 8.71c-.16.15-.35.23-.55.23z" id="Path_1098"/><path class="st1" d="M38.86 13.13c-.41 0-.75-.34-.75-.75V9.16H34.9c-.41 0-.75-.34-.75-.75s.34-.75.75-.75h3.96c.41 0 .75.34.75.75v3.96c0 .42-.34.76-.75.76z" id="Path_1099"/></g><g id="Grupo_12856"><path class="st1" d="M19.32 15.41c-1.88 0-3.4-1.53-3.4-3.4 0-.41.34-.75.75-.75s.75.34.75.75a1.9 1.9 0 103.8 0c0-.41.34-.75.75-.75s.75.34.75.75c0 1.87-1.52 3.4-3.4 3.4z" id="Path_1227"/><path class="st1" d="M21.97 12.75c-.41 0-.75-.34-.75-.75v-1.83a1.9 1.9 0 10-3.8 0V12c0 .41-.34.75-.75.75s-.75-.34-.75-.75v-1.83c0-1.88 1.53-3.4 3.4-3.4s3.4 1.53 3.4 3.4V12c0 .42-.33.75-.75.75z" id="Path_1228"/><g id="Grupo_12855"><g id="Grupo_12852"><path class="st1" d="M26.17 26.53h-13.7c-.41 0-.75-.34-.75-.75s.34-.75.75-.75h13.7c.41 0 .75.34.75.75s-.34.75-.75.75z" id="Line_1370"/><g id="Grupo_12851"><g id="Group_2600"><path class="st1" d="M26.17 26.53c-.38 0-.71-.29-.75-.69l-.26-3.04c-.03-.33-.04-.67-.05-1.01-.04-1.08-.07-2.1-.69-2.86a3.599 3.599 0 00-2.07-1.15c-.93-.14-1.91-.2-2.86-.19h-.34c-.41 0-.75-.34-.75-.75s.34-.75.75-.75h.33c1.03-.02 2.08.06 3.11.21 1.16.2 2.21.79 2.98 1.67.95 1.18 1 2.56 1.04 3.78.01.32.02.63.05.94l.26 3.04c.04.41-.27.78-.68.81-.03-.01-.05-.01-.07-.01z" id="Path_1226"/><path class="st1" d="M12.47 26.53h-.07a.75.75 0 01-.68-.81l.26-3.04c.04-.41.39-.72.81-.68.41.04.72.4.68.81l-.26 3.04a.74.74 0 01-.74.68z" id="Path_1226-2"/></g></g></g><g id="Grupo_12854"><path class="st1" d="M26.17 26.53h-13.7c-.41 0-.75-.34-.75-.75s.34-.75.75-.75h13.7c.41 0 .75.34.75.75s-.34.75-.75.75z" id="Line_1370-2"/><g id="Grupo_12853"><g id="Group_2600-2"><path class="st1" d="M12.47 26.53h-.07a.75.75 0 01-.68-.81l.26-3.04c.04-.41.39-.72.81-.68.41.04.72.4.68.81l-.26 3.04a.74.74 0 01-.74.68z" id="Path_1226-3"/><path class="st1" d="M22.48 17.79c-.04 0-.07 0-.11-.01-.95-.14-1.93-.21-2.88-.2h-.34c-.44 0-.87.01-1.3.03a.743.743 0 01-.79-.7c-.02-.41.29-.77.7-.79.47-.03.94-.04 1.4-.03h.32c1.03-.02 2.08.06 3.11.21.41.06.69.44.63.85-.05.38-.37.64-.74.64z" id="Path_1226-4"/><path class="st1" d="M26.17 26.53c-.38 0-.71-.29-.75-.69l-.26-3.04c-.04-.41.27-.78.68-.81.43-.04.78.27.81.68l.26 3.04c.04.41-.27.78-.68.81-.02.01-.04.01-.06.01z" id="Path_1226-5"/></g></g></g></g></g><path class="st1" d="M13.04 20.95c-1.93 0-3.49-1.57-3.49-3.49s1.57-3.49 3.49-3.49 3.49 1.57 3.49 3.49-1.56 3.49-3.49 3.49zm0-5.49c-1.1 0-1.99.89-1.99 1.99s.89 1.99 1.99 1.99 1.99-.89 1.99-1.99-.89-1.99-1.99-1.99z" id="Elipse_2131"/><path class="st1" d="M8.35 29.81c-.19 0-.38-.07-.53-.22a.754.754 0 010-1.06l1.79-1.8c.29-.29.77-.29 1.06 0s.29.77 0 1.06l-1.79 1.8c-.15.15-.34.22-.53.22z" id="Línea_2179"/></svg>