<svg xmlns="http://www.w3.org/2000/svg" viewBox="0 0 60 60"><style>.st2{fill:#fff}</style><g id="Capa_2"><path d="M30 0c16.57 0 30 13.43 30 30S46.57 60 30 60 0 46.57 0 30 13.43 0 30 0z" fill="#19a500" id="Rectángulo_3799_17_"/></g><g id="Capa_1"><path fill="none" d="M0 0h60v60H0z" id="Rectángulo_3799_25_"/><path class="st2" d="M19.37 44.9c-.04 0-.08 0-.11-.01l-10.3-2.12a.558.558 0 01-.45-.55V15.21c0-.17.08-.33.21-.44.13-.11.31-.15.47-.11L19.45 17l1.38-.45c.3-.1.61.07.71.36.09.29-.07.61-.36.71l-1.52.49c-.1.03-.2.04-.3.01L9.64 15.9v25.86l9.74 2 9.78-2.1c.08-.01.15-.02.23 0l9.38 1.89 3.11-.67c.3-.06.6.13.66.43.06.3-.13.6-.43.66l-3.22.69c-.07.02-.15.02-.23 0l-9.38-1.89-9.78 2.1c-.05.02-.09.03-.13.03zm29.98-9.16c-.01 0-.01 0 0 0-.31 0-.56-.26-.56-.56L49 15.96l-9.91 2.27c-.14.03-.28.01-.4-.06l-1.23-.71a.559.559 0 01.55-.97l1.04.6 10.39-2.38c.17-.04.34 0 .48.11.13.11.21.27.21.44l-.23 19.93c0 .31-.25.55-.55.55z"/><path class="st2" d="M29.12 31.45h-.01c-.18 0-.35-.1-.45-.25-1.34-2.04-2.6-4.1-3.55-5.68-.93-1.54-1.96-3.4-2.51-5.47-.48-1.82-.49-4.46.92-6.41 1.27-1.75 3.58-2.79 6.2-2.79 2.51 0 4.91 1.48 5.97 3.68.81 1.68.86 3.81.14 6-.2.62-.47 1.26-.81 1.95-.49 1-1.07 1.96-1.64 2.89l-.21.35c-1.06 1.75-2.23 3.64-3.6 5.51-.1.13-.27.22-.45.22zm.6-19.49c-2.22 0-4.25.89-5.29 2.33-1.18 1.64-1.16 3.9-.75 5.47.51 1.94 1.49 3.71 2.38 5.18.84 1.39 1.92 3.16 3.08 4.96 1.14-1.62 2.15-3.24 3.07-4.77l.21-.35c.55-.91 1.12-1.85 1.59-2.8.32-.64.56-1.23.75-1.8.63-1.91.59-3.74-.09-5.16-.85-1.81-2.89-3.06-4.95-3.06z"/><path class="st2" d="M29.35 20.7c-.46 0-.91-.1-1.34-.29-.8-.36-1.41-1.01-1.72-1.83-.31-.82-.29-1.71.07-2.51.74-1.65 2.69-2.39 4.34-1.65 1.65.74 2.39 2.68 1.65 4.33-.36.8-1.01 1.41-1.83 1.72-.38.16-.78.23-1.17.23zm0-5.44c-.83 0-1.62.47-1.98 1.28-.24.53-.25 1.11-.05 1.65.21.54.61.97 1.13 1.2.53.24 1.11.25 1.65.05.54-.21.97-.61 1.2-1.13.49-1.09 0-2.37-1.09-2.86-.26-.13-.56-.19-.86-.19zm2.48 3.27zm7.16 8.67c-.04 0-.08 0-.12-.01l-4.3-.97a.56.56 0 01.25-1.09l4.14.93 7.59-2.57c.29-.1.61.06.71.35.1.29-.06.61-.35.71l-7.74 2.62c-.06.02-.12.03-.18.03zm-19.47 1.11c-.08 0-.16-.02-.23-.05l-7.46-3.31a.557.557 0 01-.28-.74c.13-.28.46-.41.74-.28l7.26 3.23 4.86-1.67c.29-.1.61.06.71.35.1.29-.06.61-.35.71l-5.07 1.74c-.06.01-.12.02-.18.02zm0 9.25c-.08 0-.16-.02-.23-.05l-7.46-3.32c-.28-.12-.41-.46-.28-.74s.46-.41.74-.28l7.26 3.23L29 33.16c.1-.03.2-.04.3-.02l9.65 2.17 7.59-2.57c.29-.1.61.06.71.35.1.29-.06.61-.35.71l-7.74 2.62c-.1.03-.2.04-.3.02l-9.65-2.17-9.52 3.26c-.05.02-.11.03-.17.03z"/><path class="st2" d="M19.47 44.9a.56.56 0 01-.56-.56V17.58a.56.56 0 111.12 0v26.75c0 .32-.25.57-.56.57zm19.49-.21a.56.56 0 01-.56-.56V17.68a.56.56 0 111.12 0v26.45c0 .31-.25.56-.56.56z"/><path d="M48.06 45.48c-.61 0-1.23-.13-1.82-.39a4.417 4.417 0 01-2.34-2.48c-.42-1.11-.39-2.32.1-3.41.49-1.09 1.37-1.92 2.48-2.34s2.32-.39 3.41.1c1.09.49 1.92 1.37 2.34 2.48.42 1.11.39 2.32-.1 3.41a4.462 4.462 0 01-4.07 2.63zm.01-7.71a3.233 3.233 0 00-2.97 1.92c-.36.79-.38 1.68-.07 2.49.31.81.92 1.46 1.71 1.81 1.64.73 3.57 0 4.31-1.64.36-.79.38-1.68.07-2.49-.31-.81-.92-1.46-1.71-1.81-.43-.18-.89-.28-1.34-.28z" fill="#efef00"/></g></svg>