<svg xmlns="http://www.w3.org/2000/svg" viewBox="0 0 52 52"><defs><style>.cls-2{fill:none;stroke:#fff;stroke-width:1.6px;stroke-linecap:round;stroke-linejoin:round}</style></defs><g id="Capa_2" data-name="Capa 2"><g id="Capa_1-2" data-name="Capa 1"><g id="Grupo_18732" data-name="Grupo 18732"><g id="Grupo_18731" data-name="Grupo 18731"><circle id="Elipse_2641-2" data-name="Elipse 2641-2" cx="26" cy="26" r="26" fill="#37abf4"/><g id="icon_opinion" data-name="icon opinion"><path id="Trazado_12428" data-name="Trazado 12428" class="cls-2" d="M14.81 20.47v-2.93a4.65 4.65 0 014.08-4.68 4.52 4.52 0 014.95 4v3.6m0 0a4.53 4.53 0 11-9.06 0m4.55 9.84l2.4-2.72m-2.4 2.72l-2.4-2.72m7.32 1.14l-2.51-1.12m-4.81 0l-6.53 2.9A4.86 4.86 0 008 33.86v6.36a.71.71 0 00.69.7h21.9v-2.67M21.76 24.3v3.28M17 24.3v3.28"/><circle id="Elipse_2609-2" data-name="Elipse 2609-2" cx="29.54" cy="32.16" r="3.71" fill="none" stroke="#fff" stroke-width="1.6"/><path id="Trazado_18025" data-name="Trazado 18025" class="cls-2" d="M41.26 21.68h-9.11l-2.86 2.53V12.79A1.79 1.79 0 0131.08 11h10.18a1.79 1.79 0 011.79 1.79v7.07a1.79 1.79 0 01-1.76 1.82z"/><path id="Línea_2330" data-name="Línea 2330" class="cls-2" d="M33.25 15.96h5.84"/></g></g></g></g></g></svg>