<svg id="Capa_1" data-name="Capa 1" xmlns="http://www.w3.org/2000/svg" viewBox="0 0 47 47"><defs><style>.cls-2{fill:#fff}</style></defs><path fill="none" d="M0 0h47v47H0z"/><g id="Grupo_12873" data-name="Grupo 12873"><path class="cls-2" d="M32 43a.8.8 0 01-.8-.7v-4.1a.8.8 0 01.8-.7.7.7 0 01.7.7v4.1a.7.7 0 01-.7.7z" id="Línea_2131" data-name="Línea 2131"/><path class="cls-2" d="M32 33.8a.8.8 0 01-.8-.7V4.7A.8.8 0 0132 4a.7.7 0 01.7.7v28.4a.7.7 0 01-.7.7z" id="Línea_2132" data-name="Línea 2132"/><path class="cls-2" d="M14.6 43a.7.7 0 01-.7-.7v-4.1a.7.7 0 01.7-.7.8.8 0 01.8.7v4.1a.8.8 0 01-.8.7z" id="Línea_2133" data-name="Línea 2133"/><path class="cls-2" d="M14.6 17.8a.7.7 0 01-.7-.7V4.7a.7.7 0 01.7-.7.8.8 0 01.8.7v12.4a.8.8 0 01-.8.7z" id="Línea_2134" data-name="Línea 2134"/><path class="cls-2" d="M14.6 33.8a.7.7 0 01-.7-.7v-4.9a.7.7 0 01.7-.7.8.8 0 01.8.7v4.9a.8.8 0 01-.8.7z" id="Línea_2135" data-name="Línea 2135"/><path class="cls-2" d="M35 39H11.6a.9.9 0 01-.8-.8v-5.1a.9.9 0 01.8-.8H35a.9.9 0 01.8.8v5.1a.9.9 0 01-.8.8zm-22.7-1.5h22v-3.7h-22z" id="Rectángulo_4525" data-name="Rectángulo 4525"/><g id="Grupo_12792" data-name="Grupo 12792"><path class="cls-2" d="M29 16.5H17.6a.7.7 0 01-.7-.7v-3.2a2.7 2.7 0 012.7-2.7h7.5a2.8 2.8 0 012.7 2.7v3.2a.8.8 0 01-.8.7zM18.4 15h9.9v-2.4a1.2 1.2 0 00-1.2-1.2h-7.5a1.2 1.2 0 00-1.2 1.2z" id="Rectángulo_4526" data-name="Rectángulo 4526"/><path class="cls-2" d="M19.6 11.4a.7.7 0 01-.7-.8V4.7a.7.7 0 01.7-.7.8.8 0 01.8.7v5.9a.8.8 0 01-.8.8z" id="Línea_2136" data-name="Línea 2136"/><path class="cls-2" d="M27.1 11.4a.7.7 0 01-.7-.8V4.7a.7.7 0 01.7-.7.8.8 0 01.8.7v5.9a.8.8 0 01-.8.8z" id="Línea_2137" data-name="Línea 2137"/></g><g id="Grupo_12793" data-name="Grupo 12793"><path class="cls-2" d="M23.3 29.7a.8.8 0 01-.7-.8v-9a.7.7 0 01.7-.7.8.8 0 01.8.7v9a.9.9 0 01-.8.8z" id="Línea_2138" data-name="Línea 2138"/><path class="cls-2" d="M23.3 29.7l-.5-.2-3.3-3.4a.7.7 0 011-1l2.8 2.8 2.8-2.8a.8.8 0 011.1 0 .7.7 0 010 1l-3.4 3.4z" id="Trazado_11512" data-name="Trazado 11512"/></g><path class="cls-2" d="M14.6 26.5a4 4 0 01-3.9-3.9 3.9 3.9 0 013.9-3.8 3.8 3.8 0 013.8 3.8 3.9 3.9 0 01-3.8 3.9zm0-6.2a2.4 2.4 0 102.3 2.3 2.4 2.4 0 00-2.3-2.3z" id="Elipse_2117" data-name="Elipse 2117"/></g></svg>