<svg xmlns="http://www.w3.org/2000/svg" viewBox="0 0 60 60"><style>.st2{fill:#fff}</style><g id="Capa_2"><path d="M30 0c16.57 0 30 13.43 30 30S46.57 60 30 60 0 46.57 0 30 13.43 0 30 0z" fill="#19a500" id="Rectángulo_3799_56_"/></g><g id="Capa_1"><path fill="none" d="M0 0h60v60H0z" id="Rectángulo_3799_2_"/><path class="st2" d="M36.71 47.99c-.3 0-.55-.25-.55-.55V18.42l-11.9-3.27v20.9c0 .3-.25.55-.55.55s-.55-.25-.55-.55V14.43c0-.17.08-.33.22-.44s.31-.14.48-.09l13 3.57c.24.07.41.28.41.53v29.44c-.01.31-.25.55-.56.55z"/><path class="st2" d="M47.14 27.4c-.3 0-.55-.25-.55-.55v-2.48l-6.38-2.72a.57.57 0 01-.34-.51V7.16l-8.9 2.54v6.33c0 .3-.25.55-.55.55s-.55-.25-.55-.55V9.29c0-.25.16-.46.4-.53l10-2.86c.17-.04.35-.01.48.09.14.1.22.27.22.44v14.35l6.38 2.72c.2.09.34.29.34.51v2.85c0 .3-.24.54-.55.54z"/><path class="st2" d="M47.21 33.44c-1.93 0-3.49-1.57-3.49-3.49 0-1.93 1.57-3.49 3.49-3.49a3.5 3.5 0 013.49 3.49 3.5 3.5 0 01-3.49 3.49zm0-5.88a2.39 2.39 0 102.39 2.39 2.403 2.403 0 00-2.39-2.39z"/><path class="st2" d="M47.18 47.84c-.3 0-.55-.25-.55-.55v-14c0-.3.25-.55.55-.55s.55.25.55.55v13.99c0 .31-.25.56-.55.56zm-23.49-5.2a3.5 3.5 0 01-3.49-3.49 3.5 3.5 0 013.49-3.49c1.93 0 3.49 1.57 3.49 3.49 0 1.93-1.56 3.49-3.49 3.49zm0-5.87a2.39 2.39 0 100 4.78 2.39 2.39 0 000-4.78z"/><path class="st2" d="M23.86 47.84c-.3 0-.55-.25-.55-.55V42.5c0-.3.25-.55.55-.55s.55.25.55.55v4.79c0 .3-.25.55-.55.55z"/><path class="st2" d="M50.44 48.12H9.56c-.3 0-.55-.25-.55-.55s.25-.55.55-.55h40.88c.3 0 .55.25.55.55s-.25.55-.55.55zM28.06 21.05h-4.04c-.3 0-.55-.25-.55-.55s.25-.55.55-.55h4.04c.3 0 .55.25.55.55s-.25.55-.55.55zm1.84 3.71h-5.88c-.3 0-.55-.25-.55-.55s.25-.55.55-.55h5.88c.3 0 .55.25.55.55s-.25.55-.55.55zm-2.76 3.74h-3.12c-.3 0-.55-.25-.55-.55s.25-.55.55-.55h3.12c.3 0 .55.25.55.55s-.25.55-.55.55zm19.95 8.54h-4.56c-.3 0-.55-.25-.55-.55s.25-.55.55-.55h4.56c.3 0 .55.25.55.55s-.25.55-.55.55zm0 7.17h-2.72c-.3 0-.55-.25-.55-.55s.25-.55.55-.55h2.72c.3 0 .55.25.55.55s-.25.55-.55.55zm0-3.65h-6.4c-.3 0-.55-.25-.55-.55s.25-.55.55-.55h6.4c.3 0 .55.25.55.55s-.25.55-.55.55zm-6.6-27.21h-5.36c-.3 0-.55-.25-.55-.55s.25-.55.55-.55h5.36c.3 0 .55.25.55.55s-.25.55-.55.55z"/><path class="st2" d="M32.9 48.04h-3.1c-.3 0-.55-.25-.55-.55V30.43c0-.3.25-.55.55-.55h3.09c.3 0 .55.25.55.55v17.06c.01.3-.24.55-.54.55zm-2.54-1.1h1.99V30.98h-1.99v15.96zm-12.53 1.07h-6.07c-.3 0-.55-.25-.55-.55V28.54c0-.3.25-.55.55-.55s.55.25.55.55V46.9h4.97V28.54c0-.3.25-.55.55-.55s.55.25.55.55v18.92c0 .3-.25.55-.55.55z"/><path class="st2" d="M17.45 36.76h-5.34c-1.65 0-3-1.34-3-3v-7.25c0-1.65 1.34-3 3-3h5.34c1.65 0 3 1.34 3 3v7.25c0 1.66-1.34 3-3 3zm-5.34-12.14c-1.04 0-1.89.85-1.89 1.89v7.25c0 1.04.85 1.89 1.89 1.89h5.34c1.04 0 1.89-.85 1.89-1.89v-7.25c0-1.04-.85-1.89-1.89-1.89h-5.34z"/><path class="st2" d="M14.81 47.89c-.3 0-.55-.25-.55-.55V36.28c0-.3.25-.55.55-.55s.55.25.55.55v11.06c0 .3-.24.55-.55.55z"/><path d="M14.67 22.8c-1.81 0-3.28-1.47-3.28-3.28s1.47-3.28 3.28-3.28c1.81 0 3.28 1.47 3.28 3.28s-1.47 3.28-3.28 3.28zm0-5.46c-1.2 0-2.18.98-2.18 2.18s.98 2.18 2.18 2.18c1.2 0 2.18-.98 2.18-2.18s-.98-2.18-2.18-2.18z" fill="#efef00"/></g></svg>