<svg data-name="Grupo 17032" xmlns="http://www.w3.org/2000/svg" width="65" height="65"><g data-name="Grupo 17035"><g data-name="Grupo 13216"><path data-name="Rectángulo 3799" fill="none" d="M0 0h65v65H0z"/></g><path data-name="Rectángulo 3799-2" fill="none" d="M0 0h65v65H0z"/><g data-name="Grupo 17034"><g data-name="Grupo 17033" fill="none"><path data-name="Rectángulo 5355" d="M0 48.259h65V65H0z"/><g data-name="Grupo 17032" stroke-linecap="round" stroke-linejoin="round" stroke-width="2.4"><path data-name="Línea 3431" stroke="#4da12e" d="M38.214 60.119h7.167"/><path data-name="Línea 3432" stroke="#4da12e" d="M52.528 60.119h.581"/><path data-name="Línea 3433" stroke="#4da12e" d="M11.891 60.119h7.101"/><path data-name="Línea 3434" stroke="#96d200" d="M18.529 60.119h12.517"/><path data-name="Línea 3435" stroke="#96d200" d="M11.891 54.012h23.582"/><path data-name="Línea 3436" stroke="#4da12e" d="M34.746 54.012h18.363"/><path data-name="Línea 3437" stroke="#4da12e" d="M11.891 54.012h.429"/></g></g></g></g><g data-name="Grupo 15395"><path data-name="Trazado 12672" d="M44.283 23.508H11.309c-2.679 0-4.849 5.4-4.849 12.069s2.17 12.068 4.849 12.068h42.376c2.679 0 4.849-5.4 4.849-12.068a22.912 22.912 0 00-1.608-8.977" fill="none" stroke="#95a6b1" stroke-linecap="round" stroke-linejoin="round" stroke-width="1.6"/><g data-name="Grupo 15394"><path data-name="Trazado 12673" d="M7.468 31.809c2.535 0 2.535 1.842 5.068 1.842s2.537-1.842 5.072-1.842 2.536 1.842 5.074 1.842 2.536-1.842 5.073-1.842 2.534 1.847 5.073 1.847 2.541-1.847 5.076-1.847 2.536 1.847 5.071 1.847 2.539-1.841 5.08-1.841 2.54 1.841 5.08 1.841 2.541-1.841 5.081-1.841" fill="none" stroke="#95a6b1" stroke-linecap="round" stroke-linejoin="round" stroke-width="1.6"/></g><path data-name="Línea 3132" fill="none" stroke="#95a6b1" stroke-linecap="round" stroke-linejoin="round" stroke-width="1.6" d="M6.462 12.7h51.749"/><path data-name="Trazado 12674" d="M13.193 23.508v-2.863h11.576v2.863" fill="none" stroke="#95a6b1" stroke-linecap="round" stroke-linejoin="round" stroke-width="1.6"/><path data-name="Línea 3133" fill="none" stroke="#95a6b1" stroke-linecap="round" stroke-linejoin="round" stroke-width="1.6" d="M17.352 20.239V12.7"/><path data-name="Línea 3134" fill="none" stroke="#95a6b1" stroke-linecap="round" stroke-linejoin="round" stroke-width="1.6" d="M20.608 20.239V12.7"/><path data-name="Trazado 12675" d="M30.341 23.508V20.03a1.919 1.919 0 011.913-1.93h8.875a1.92 1.92 0 001.914-1.925h0v-3.284" fill="none" stroke="#95a6b1" stroke-linecap="round" stroke-linejoin="round" stroke-width="1.6"/></g><path data-name="Trazado 11848" d="M55.239 23.248a4.183 4.183 0 11-4.183-4.183h0a4.168 4.168 0 014.183 4.151h0z" fill="none" stroke="#19a500" stroke-linecap="round" stroke-linejoin="round" stroke-width="1.6"/></svg>