<svg version="1.1" id="Capa_1" xmlns="http://www.w3.org/2000/svg" x="0" y="0" viewBox="0 0 47 47" xml:space="preserve"><style>.st2{fill:none;stroke:#93a4af;stroke-width:1.5;stroke-linecap:round;stroke-linejoin:round;stroke-miterlimit:10}</style><path id="Trazado_11848_2_" d="M18.29 4.85c0 1.93-1.56 3.49-3.49 3.49-1.93 0-3.49-1.56-3.49-3.49 0-1.93 1.56-3.49 3.49-3.49h0a3.474 3.474 0 013.49 3.46v.03z" fill="none" stroke="#00a800" stroke-width="1.5" stroke-linecap="round" stroke-linejoin="round" stroke-miterlimit="10"/><path class="st2" d="M20.87 4.91h9.65c2.47 0 4.48 2.01 4.48 4.48v30.76c0 2.48-2.01 4.49-4.48 4.49H16.48c-2.47 0-4.48-2.01-4.48-4.49V10.39m0 1.92h23M21.41 8.57h4.18M12 34.23h23"/><circle class="st2" cx="23.5" cy="39.46" r="2.4"/><path fill="none" d="M0 0h47v47H0z"/></svg>