<svg version="1.1" id="Capa_1" xmlns="http://www.w3.org/2000/svg" x="0" y="0" viewBox="0 0 65 65" xml:space="preserve"><style>.st1{fill:none}.st2{fill:#95a6b1}.st5{fill:#4c9f2e}</style><path class="st1" d="M0 48.26h65V65H0z"/><path class="st5" d="M45.38 61.32h-7.17c-.66 0-1.2-.54-1.2-1.2s.54-1.2 1.2-1.2h7.17c.66 0 1.2.54 1.2 1.2s-.54 1.2-1.2 1.2zm7.73 0h-.58c-.66 0-1.2-.54-1.2-1.2s.54-1.2 1.2-1.2h.58c.66 0 1.2.54 1.2 1.2s-.54 1.2-1.2 1.2zm-34.12 0h-7.1c-.66 0-1.2-.54-1.2-1.2s.54-1.2 1.2-1.2h7.1c.66 0 1.2.54 1.2 1.2s-.54 1.2-1.2 1.2z"/><path d="M31.05 61.32H18.53c-.66 0-1.2-.54-1.2-1.2s.54-1.2 1.2-1.2h12.52c.66 0 1.2.54 1.2 1.2s-.54 1.2-1.2 1.2zm4.42-6.11H11.89c-.66 0-1.2-.54-1.2-1.2s.54-1.2 1.2-1.2h23.58c.66 0 1.2.54 1.2 1.2s-.53 1.2-1.2 1.2z" fill="#94d040"/><path class="st5" d="M53.11 55.21H34.75c-.66 0-1.2-.54-1.2-1.2s.54-1.2 1.2-1.2h18.36c.66 0 1.2.54 1.2 1.2s-.54 1.2-1.2 1.2zm-40.79 0h-.43c-.66 0-1.2-.54-1.2-1.2s.54-1.2 1.2-1.2h.43c.66 0 1.2.54 1.2 1.2s-.54 1.2-1.2 1.2z"/><g id="Grupo_13216_3_" transform="translate(.246 .246)"><path class="st1" d="M-.25-.25h65v65h-65z" id="Rectángulo_3799_3_"/></g><path class="st1" d="M0 0h65v65H0z" id="Rectángulo_3799-2_3_"/><g id="Grupo_13714" transform="translate(413.835 -58.91)"><g id="Grupo_13387" transform="translate(277.697 61.532)"><path class="st2" d="M-666.43 46.54c-4.4 0-7.98-3.58-7.98-7.98V13.63c0-.44.36-.8.8-.8s.8.36.8.8v24.93c0 3.52 2.86 6.38 6.38 6.38l24.37-.03V5.07h-24.91c-.44 0-.8-.36-.8-.8s.36-.8.8-.8h25.71c.44 0 .8.36.8.8v41.44c0 .44-.36.8-.8.8l-25.17.03z" id="Trazado_11781_1_"/></g><g id="Grupo_13390" transform="translate(284.316 67.688)"><g id="Grupo_13389"><path class="st2" d="M-664.25 25.58c-.44 0-.8-.36-.8-.8V11.63c0-.44.36-.8.8-.8s.8.36.8.8v13.15c0 .45-.35.8-.8.8z" id="Línea_2376_1_"/><path class="st2" d="M-664.16 14.73c-.21 0-.41-.08-.57-.23a.803.803 0 010-1.13l6.54-6.54c.31-.31.82-.31 1.13 0 .31.31.31.82 0 1.13l-6.54 6.54c-.15.15-.35.23-.56.23z" id="Línea_2377_1_"/><path class="st2" d="M-664.35 18.9a.77.77 0 01-.45-.14l-5.64-3.83c-.37-.25-.46-.75-.21-1.11s.74-.46 1.11-.21l5.64 3.83c.37.25.46.75.21 1.11-.15.23-.4.35-.66.35z" id="Línea_2378_1_"/><path class="st2" d="M-658.56 12.57a4.37 4.37 0 01-3.11-1.3c-1.64-1.68-1.64-4.41 0-6.09 1.5-1.5 6.81-2.46 7.86-2.63.25-.04.51.04.7.22.18.18.27.44.22.7-.18 1.05-1.14 6.37-2.63 7.86l-.01.01a4.3 4.3 0 01-3.03 1.23zm3.89-8.24c-2.23.45-5.12 1.23-5.86 1.97-1.03 1.05-1.03 2.78.01 3.84 1.06 1.08 2.8 1.1 3.89.04.74-.74 1.51-3.62 1.96-5.85zm-1.4 6.43z" id="Trazado_11782_1_"/><g id="Grupo_13388" transform="translate(0 9.185)"><path class="st2" d="M-667.55 7.59a.77.77 0 01-.45-.14l-3.46-2.35a.794.794 0 01-.21-1.11.8.8 0 011.11-.21l3.46 2.35c.37.25.46.75.21 1.11-.15.23-.4.35-.66.35z" id="Línea_2379_1_"/><path class="st2" d="M-670.06 9.1c-.67 0-1.35-.17-1.97-.52-1.56-1.05-3.06-5.48-3.35-6.35a.792.792 0 01.1-.7c.14-.21.37-.33.61-.35.92-.06 5.59-.29 7.09.73.02.01.04.03.05.04a4.01 4.01 0 011.46 2.71 3.98 3.98 0 01-.88 2.95c-.78.98-1.94 1.49-3.11 1.49zm-3.45-6.36c.68 1.85 1.67 4.05 2.32 4.49.97.54 2.26.3 3-.62.41-.5.6-1.13.53-1.78a2.42 2.42 0 00-.85-1.61c-.69-.42-3.06-.53-5-.48z" id="Trazado_11783_1_"/></g></g><path class="st2" d="M-658.24 25.62h-11.54c-.44 0-.8-.36-.8-.8s.36-.8.8-.8h11.54c.44 0 .8.36.8.8s-.36.8-.8.8z" id="Línea_2380_1_"/></g><path class="st2" d="M-370.05 98.82h-19.37c-.44 0-.8-.36-.8-.8s.36-.8.8-.8h19.37c.44 0 .8.36.8.8s-.36.8-.8.8z" id="Línea_2381_1_"/><path class="st2" d="M-370.05 103.72h-19.37c-.44 0-.8-.36-.8-.8s.36-.8.8-.8h19.37c.44 0 .8.36.8.8s-.36.8-.8.8z" id="Línea_2382_1_"/><path d="M-396.29 72.79c-2.75 0-4.98-2.24-4.98-4.98s2.24-4.98 4.98-4.98h.02a4.97 4.97 0 014.96 4.95v.04c.01 2.73-2.23 4.97-4.98 4.97zm.02-8.37c-1.86-.04-3.4 1.51-3.4 3.38 0 1.87 1.52 3.38 3.38 3.38s3.38-1.52 3.38-3.38v-.03c0-1.85-1.51-3.35-3.36-3.35z" fill="#00a800" id="Trazado_11848_6_"/></g></svg>