<svg xmlns="http://www.w3.org/2000/svg" viewBox="0 0 60 60"><style>.st2{fill:#fff}</style><g id="Capa_2"><path d="M30 0c16.57 0 30 13.43 30 30S46.57 60 30 60 0 46.57 0 30 13.43 0 30 0z" fill="#19a500" id="Rectángulo_3799_57_"/></g><g id="Capa_1"><path fill="none" d="M0 0h60v60H0z" id="Rectángulo_3799_3_"/><path class="st2" d="M36.68 45.75H9.02a.56.56 0 110-1.12h27.66c.31 0 .56.25.56.56s-.24.56-.56.56zM49.5 23.26a.57.57 0 01-.56-.5c-.04-.31.18-.59.49-.63 1.45-.18 2.81-.25 4.53-.25a.56.56 0 110 1.12c-1.7 0-2.97.07-4.4.24-.01.01-.03.02-.06.02z"/><path class="st2" d="M20.8 45.49a.556.556 0 01-.52-.77c.05-.13 5.38-13.13 18.28-19.48.28-.13.62-.02.75.26s.02.62-.26.75c-12.5 6.15-17.68 18.76-17.73 18.89-.09.21-.3.35-.52.35zm-4.65.18a.56.56 0 01-.56-.56V31.2a.56.56 0 111.12 0v13.9c0 .32-.25.57-.56.57z"/><path class="st2" d="M16.1 38.86c-.11 0-.23-.03-.33-.11l-3.03-2.17a.57.57 0 01-.13-.79.57.57 0 01.79-.13l3.03 2.17a.57.57 0 01-.33 1.03zm.05-3.39a.562.562 0 01-.29-1.04l3.04-1.86c.27-.16.61-.08.77.19.16.27.08.61-.19.77l-3.04 1.86c-.09.05-.19.08-.29.08z"/><path class="st2" d="M15.91 41.59c-4.66 0-8.45-3.79-8.45-8.45s3.79-8.45 8.45-8.45 8.45 3.79 8.45 8.45-3.79 8.45-8.45 8.45zm0-15.76c-4.04 0-7.32 3.28-7.32 7.32 0 4.04 3.28 7.32 7.32 7.32 4.04 0 7.32-3.28 7.32-7.32 0-4.04-3.28-7.32-7.32-7.32zM28.46 34a.56.56 0 01-.56-.56V15.55a.56.56 0 111.12 0v17.88a.55.55 0 01-.56.57z"/><path class="st2" d="M28.42 23.21c-.11 0-.23-.03-.33-.11l-3.03-2.17a.57.57 0 01-.13-.79.57.57 0 01.79-.13l3.03 2.17a.57.57 0 01-.33 1.03zm.04-3.39a.562.562 0 01-.29-1.04l3.04-1.86c.27-.17.61-.08.77.19.16.27.08.61-.19.77l-3.04 1.86c-.08.05-.19.08-.29.08z"/><path class="st2" d="M28.26 27.12c-4.66 0-8.45-3.79-8.45-8.45s3.79-8.45 8.45-8.45 8.45 3.79 8.45 8.45-3.79 8.45-8.45 8.45zm0-15.76c-4.04 0-7.32 3.28-7.32 7.32 0 4.04 3.28 7.32 7.32 7.32 4.04 0 7.32-3.28 7.32-7.32 0-4.04-3.28-7.32-7.32-7.32zm18.93 34.41H41a.56.56 0 01-.56-.56V25.9a.56.56 0 111.12 0v18.74h5.07V25.9a.56.56 0 111.12 0v19.31c0 .31-.25.56-.56.56z"/><path class="st2" d="M46.81 34.29h-5.45a3.06 3.06 0 01-3.06-3.06v-7.4a3.06 3.06 0 013.06-3.06h5.45a3.06 3.06 0 013.06 3.06v7.4c-.01 1.69-1.38 3.06-3.06 3.06zm-5.46-12.38c-1.06 0-1.93.87-1.93 1.93v7.4c0 1.06.87 1.93 1.93 1.93h5.45c1.06 0 1.93-.87 1.93-1.93v-7.4c0-1.06-.87-1.93-1.93-1.93h-5.45z"/><path class="st2" d="M44.11 45.65a.56.56 0 01-.56-.56V33.8a.56.56 0 111.12 0v11.29c0 .31-.25.56-.56.56z"/><path d="M43.97 20.05a3.35 3.35 0 113.35-3.35c0 1.85-1.51 3.35-3.35 3.35zm0-5.58c-1.23 0-2.22 1-2.22 2.22s1 2.22 2.22 2.22c1.23 0 2.22-1 2.22-2.22s-1-2.22-2.22-2.22z" fill="#efef00"/></g></svg>