<svg version="1.1" id="Layer_1" xmlns="http://www.w3.org/2000/svg" x="0" y="0" width="16" height="18" xml:space="preserve"><style>.st1{fill:#7e8e98}</style><path fill="none" d="M0 0h16v18H0z"/><path class="st1" d="M7 7h3.8c.4 0 .7-.3.7-.6s-.3-.6-.7-.6H7c-.3-.1-.6.2-.6.6s.3.6.6.6z"/><path class="st1" d="M14.2 12.7V3c0-.4-.3-.6-.7-.6H4.3c-.4 0-.6.2-.6.6v1.7H2c-.4 0-.7.3-.7.7v9.7s0 .1.1.1v.1c.1.1.1.1.2.1s.2.1.3.1h.2s.1 0 .1-.1c0 0 .1 0 .1-.1l2.9-2.6h3.4c1 0 2-.5 2.6-1.3l1.8 1.7s.1 0 .1.1h.3c.1 0 .2 0 .3-.1.1 0 .2-.1.2-.2v-.1c.2.1.2.1.3-.1 0 .1 0 .1 0 0zm-1.3-1.6l-2-1.8h-.1l-.1-.1H6.9C5.8 9.2 5 8.3 5 7.3V3.7h7.9v7.4zm-4.2.3H4.9c-.1 0-.1.1-.1.1h-.1l-2 1.8V6h1v1.2c0 1.8 1.4 3.2 3.2 3.2h3.4l.1.1c-.5.6-1 .9-1.7.9z"/></svg>