<svg version="1.1" id="Capa_1" xmlns="http://www.w3.org/2000/svg" xmlns:xlink="http://www.w3.org/1999/xlink" x="0" y="0" viewBox="0 0 65 65" xml:space="preserve"><style>.st2{stroke:#95a6b1;stroke-width:1.6;stroke-linecap:round;stroke-linejoin:round;stroke-miterlimit:10}.st2,.st5{fill:none}.st6{fill:#4da12e}</style><g id="Capa_1_1_"><path id="Trazado_5703_12_" d="M24.65 6.8c0 2.05-1.66 3.7-3.7 3.7s-3.7-1.66-3.7-3.7 1.66-3.7 3.7-3.7a3.675 3.675 0 013.7 3.65v.05z" fill="none" stroke="#19a500" stroke-width="1.6" stroke-linecap="round" stroke-linejoin="round" stroke-miterlimit="10"/><path class="st2" d="M43.57 19.19v.07c0 1.33-.23 2.6-.67 3.78a10.7 10.7 0 01-.92 1.93c-.65 1.08-1.48 2.03-2.45 2.83-.49.4-1.02.76-1.57 1.08-1.17.67-2.47 1.12-3.86 1.31-.51.08-1.03.12-1.57.12-.06 0-.12 0-.17-.01-1.52-.02-2.97-.35-4.29-.94a10.951 10.951 0 01-4.3-3.38h-.01c-.27-.35-.52-.72-.75-1.1-.78-1.32-1.3-2.82-1.47-4.42-.04-.38-.07-.76-.07-1.15v-.05c0-1.41.26-2.75.75-3.99.23-.6.51-1.18.84-1.72a11.1 11.1 0 014.01-3.89c1.16-.66 2.43-1.11 3.79-1.31.54-.09 1.1-.13 1.66-.13.07 0 .13 0 .2.01 1.58.02 3.07.38 4.42 1 .32.15.63.31.93.49 1.33.76 2.48 1.81 3.37 3.04.26.35.5.72.72 1.11.7 1.24 1.16 2.64 1.33 4.12.05.4.08.79.08 1.2z"/><path class="st2" d="M26.84 4.18a15.99 15.99 0 015.68-1.03c8.9 0 16.11 7.21 16.11 16.11s-7.21 16.11-16.11 16.11-16.11-7.21-16.11-16.11c0-2.31.49-4.51 1.37-6.5"/><path class="st2" d="M32.43 15.92c.64-1.25 1-2.66 1-4.16 0-1.25-.25-2.44-.71-3.53-.07-.01-.13-.01-.2-.01-.57 0-1.12.04-1.66.13-1.36.2-2.63.65-3.78 1.31-.45.25-.87.53-1.27.84-1.1.83-2.03 1.87-2.74 3.05-.32.54-.61 1.12-.84 1.72-.48 1.24-.75 2.58-.75 3.99v.05c0 .39.02.77.07 1.15m2.22 5.53h-.01m3.32-16.33a9.104 9.104 0 013.78 6.7"/><path class="st2" d="M29.58 17.65a9.075 9.075 0 00-6.52-4.09c-.32.54-.61 1.12-.84 1.72-.48 1.24-.75 2.58-.75 3.99v.05c0 .39.02.77.07 1.15.17 1.6.69 3.1 1.47 4.42.23.39.48.75.75 1.1h.01c.92 1.2 2.08 2.2 3.41 2.94.29.17.58.31.89.44"/><path class="st2" d="M29.17 19.3a9.057 9.057 0 00-3.83-.84c-1.38 0-2.69.31-3.86.86 0 .39.02.77.07 1.15.17 1.6.69 3.1 1.47 4.42.23.39.48.75.75 1.1h.01c.92 1.2 2.08 2.2 3.41 2.94.29.17.58.31.89.44 1.32.59 2.77.92 4.29.94.06.01.12.01.17.01.53 0 1.05-.04 1.57-.12"/><path class="st2" d="M29.57 20.85c-2.74.31-5.1 1.84-6.55 4.03.23.39.48.75.75 1.1h.01c.92 1.2 2.08 2.2 3.41 2.94.29.17.58.31.89.44 1.32.59 2.77.92 4.29.94.06.01.12.01.17.01.53 0 1.05-.04 1.57-.12 1.38-.19 2.69-.64 3.86-1.31a9.94 9.94 0 001.57-1.08"/><path class="st2" d="M30.74 22.1a9.098 9.098 0 00-3.56 6.82c.29.17.58.31.89.44 1.32.59 2.77.92 4.29.94.06.01.12.01.17.01.53 0 1.05-.04 1.57-.12 1.38-.19 2.69-.64 3.86-1.31a9.94 9.94 0 001.57-1.08c.97-.8 1.8-1.75 2.45-2.83.37-.61.68-1.25.92-1.93"/><path class="st2" d="M32.59 22.61a9.063 9.063 0 00-.97 4.09c0 1.28.26 2.49.73 3.6.06.01.12.01.17.01.53 0 1.05-.04 1.57-.12 1.38-.19 2.69-.64 3.86-1.31a9.94 9.94 0 001.57-1.08c.97-.8 1.8-1.75 2.45-2.83.37-.61.68-1.25.92-1.93.43-1.18.67-2.45.67-3.78v-.07c0-.41-.03-.81-.07-1.21"/><path class="st2" d="M41.44 12.76c.26.35.5.72.72 1.11a10.914 10.914 0 011.4 5.33v.07c0 1.33-.23 2.6-.67 3.78a10.7 10.7 0 01-.92 1.93c-.65 1.08-1.48 2.03-2.45 2.83-.49.4-1.02.76-1.57 1.08-2.06-1.6-3.43-4.06-3.54-6.84v-.01"/><path class="st2" d="M37.14 9.23c.32.15.63.31.93.49 1.33.76 2.48 1.81 3.37 3.04.26.35.5.72.72 1.11a10.914 10.914 0 011.4 5.33v.07c0 1.33-.23 2.6-.67 3.78a10.7 10.7 0 01-.92 1.93 9.116 9.116 0 01-6.43-4.26"/><path class="st2" d="M35.88 19.29a9.186 9.186 0 007.69-.09c0-.41-.03-.81-.07-1.21-.17-1.48-.64-2.88-1.33-4.12-.21-.39-.45-.75-.72-1.11-.89-1.24-2.04-2.28-3.37-3.04-.3-.18-.61-.34-.93-.49a10.88 10.88 0 00-4.42-1c-.07-.01-.13-.01-.2-.01-.57 0-1.12.04-1.66.13m4.6 9.31a9.15 9.15 0 006.7-3.79"/><path class="st2" d="M34.38 16.47a9.051 9.051 0 003.69-6.75c-.3-.18-.61-.34-.93-.49a10.88 10.88 0 00-4.42-1c-.07-.01-.13-.01-.2-.01-.57 0-1.12.04-1.66.13-1.36.2-2.63.65-3.78 1.31-.45.25-.87.53-1.27.84-1.1.83-2.03 1.87-2.74 3.05-.32.54-.61 1.12-.84 1.72"/><circle class="st2" cx="32.53" cy="19.27" r="3.35"/><path id="Línea_2122_4_" class="st2" d="M51.86 48.72H13.14"/><path class="st2" d="M26.73 34.55v14.17m11.98-14.17v14.17m0-6.67l8.38 6.67m-20.36-6.67l-7.76 6.67"/><defs><path id="SVGID_1_" d="M0 48.26h65V65H0z"/></defs><clipPath id="SVGID_2_"><use xlink:href="#SVGID_1_" overflow="visible"/></clipPath><g clip-path="url(#SVGID_2_)"><defs><path id="SVGID_3_" d="M0 48.26h65V65H0z"/></defs><clipPath id="SVGID_4_"><use xlink:href="#SVGID_3_" overflow="visible"/></clipPath><g clip-path="url(#SVGID_4_)"><path class="st5" d="M0 48.26h65V65H0z"/><path class="st6" d="M45.38 61.32h-7.17c-.66 0-1.2-.54-1.2-1.2s.54-1.2 1.2-1.2h7.17c.66 0 1.2.54 1.2 1.2s-.54 1.2-1.2 1.2zm7.73 0h-.58c-.66 0-1.2-.54-1.2-1.2s.54-1.2 1.2-1.2h.58c.66 0 1.2.54 1.2 1.2s-.54 1.2-1.2 1.2zm-34.12 0h-7.1c-.66 0-1.2-.54-1.2-1.2s.54-1.2 1.2-1.2h7.1c.66 0 1.2.54 1.2 1.2s-.54 1.2-1.2 1.2z"/><path d="M31.05 61.32H18.53c-.66 0-1.2-.54-1.2-1.2s.54-1.2 1.2-1.2h12.52c.66 0 1.2.54 1.2 1.2s-.54 1.2-1.2 1.2zm4.42-6.11H11.89c-.66 0-1.2-.54-1.2-1.2s.54-1.2 1.2-1.2h23.58c.66 0 1.2.54 1.2 1.2s-.54 1.2-1.2 1.2z" fill="#96d200"/><path class="st6" d="M53.11 55.21H34.75c-.66 0-1.2-.54-1.2-1.2s.54-1.2 1.2-1.2h18.36c.66 0 1.2.54 1.2 1.2s-.54 1.2-1.2 1.2zm-40.79 0h-.43c-.66 0-1.2-.54-1.2-1.2s.54-1.2 1.2-1.2h.43c.66 0 1.2.54 1.2 1.2s-.54 1.2-1.2 1.2z"/></g></g></g><path id="Rectángulo_3799-2_17_" class="st5" d="M0 0h65v65H0z"/></svg>