<svg xmlns="http://www.w3.org/2000/svg" viewBox="0 0 60 60"><style>.st4{fill:none;stroke:#fff;stroke-width:1.1181;stroke-linecap:round;stroke-linejoin:round;stroke-miterlimit:10}</style><g id="Capa_2"><path id="Rectángulo_3799_17_" d="M30 0c16.57 0 30 13.43 30 30S46.57 60 30 60 0 46.57 0 30 13.43 0 30 0z" fill="#19a500"/></g><g id="Capa_1"><path id="Rectángulo_3799_25_" fill="none" d="M0 0h60v60H0z"/><path class="st4" d="M41.98 43.44l-3.22.7-9.49-1.92-9.9 2.12-10.3-2.12V15.21l10.4 2.37 1.53-.49m16.73-.12l1.23.71 10.6-2.42-.21 19.93"/><path class="st4" d="M34.52 22.22c-.54 1.1-1.2 2.15-1.83 3.2-1.13 1.86-2.26 3.67-3.57 5.47-1.22-1.86-2.4-3.77-3.54-5.66-1.02-1.69-1.94-3.42-2.44-5.33-.51-1.92-.38-4.26.83-5.94 1.26-1.74 3.56-2.56 5.74-2.56 2.25 0 4.49 1.33 5.47 3.36.83 1.72.71 3.77.12 5.58-.21.65-.48 1.27-.78 1.88z"/><circle class="st4" cx="29.35" cy="17.42" r="2.72"/><path class="st4" d="M34.7 25.68l4.29.96 7.74-2.62m-34.67.41l7.46 3.32 5.07-1.74m-12.53 7.68L19.52 37l9.67-3.31 9.8 2.21 7.74-2.63M19.47 17.58v26.76m19.49-26.66v26.46"/><circle cx="48.07" cy="41.03" r="3.86" fill="none" stroke="#efef00" stroke-width="1.2" stroke-miterlimit="10"/></g></svg>