<svg xmlns="http://www.w3.org/2000/svg" viewBox="0 0 60 60"><style>.st2{fill:#fff}</style><g id="Capa_2"><path d="M30 0c16.57 0 30 13.43 30 30S46.57 60 30 60 0 46.57 0 30 13.43 0 30 0z" fill="#19a500" id="Rectángulo_3799_11_"/></g><g id="Capa_1"><path fill="none" d="M0 0h60v60H0z" id="Rectángulo_3799_23_"/><path class="st2" d="M40.8 43.33c-.3 0-.54-.24-.54-.54V28.5c0-.3.24-.54.54-.54s.54.24.54.54v14.29c0 .3-.24.54-.54.54zm-2.73-21.98h-9.8c-.3 0-.54-.24-.54-.54s.24-.54.54-.54h9.8c.3 0 .54.24.54.54s-.24.54-.54.54zM21.04 43.53c-.3 0-.54-.24-.54-.54V27.98c0-.3.24-.54.54-.54s.54.24.54.54v15.01c0 .29-.24.54-.54.54zm8.4.15h-3.88c-.3 0-.54-.24-.54-.54v-8.78c0-1.24 1.01-2.25 2.25-2.25h.46c1.24 0 2.25 1.01 2.25 2.25v8.78c0 .3-.24.54-.54.54zM26.1 42.6h2.79v-8.24c0-.64-.52-1.17-1.17-1.17h-.46c-.64 0-1.17.52-1.17 1.17v8.24zm10.68 1.08H32.9c-.3 0-.54-.24-.54-.54v-8.78c0-1.24 1.01-2.25 2.25-2.25h.46c1.24 0 2.25 1.01 2.25 2.25v8.78c0 .3-.24.54-.54.54zm-3.34-1.08h2.79v-8.24c0-.64-.52-1.17-1.17-1.17h-.46c-.64 0-1.17.52-1.17 1.17v8.24z"/><path class="st2" d="M52.31 43.8H7.12c-.3 0-.54-.24-.54-.54s.24-.54.54-.54h45.19c.3 0 .54.24.54.54s-.24.54-.54.54z"/><path class="st2" d="M9.69 43.62c-.3 0-.54-.24-.54-.54V24.74c0-.3.24-.54.54-.54l5.33-.02c.3 0 .54.24.54.54l.08 18.01c0 .3-.24.54-.54.54-.3 0-.54-.24-.54-.54l-.08-17.47-4.24.02v17.79c0 .31-.25.55-.55.55z"/><path class="st2" d="M15.2 43.77c-.3 0-.54-.24-.54-.54V31.89c0-.3.24-.54.54-.54h5.24c.3 0 .54.24.54.54 0 .3-.24.54-.54.54h-4.7v10.79c.01.31-.24.55-.54.55zm34.32-15.11h-10.4c-2.15 0-3.9-1.75-3.9-3.9 0-1.86 1.31-3.42 3.05-3.81-.47-.59-.73-1.32-.73-2.1v-.98c0-1.57 1.06-2.9 2.54-3.28v-.14c0-2.34 1.9-4.24 4.24-4.24s4.24 1.9 4.24 4.24v.14c1.48.39 2.54 1.72 2.54 3.28v.98c0 .77-.26 1.51-.73 2.09a3.907 3.907 0 01-.85 7.72zm-10.4-6.72c-1.55 0-2.82 1.26-2.82 2.82 0 1.55 1.26 2.82 2.82 2.82h10.4c1.55 0 2.82-1.26 2.82-2.82 0-1.55-1.26-2.82-2.82-2.82h-.53c-.25 0-.47-.17-.53-.41-.06-.24.06-.5.28-.61.79-.41 1.28-1.2 1.28-2.06v-.98c0-1.19-.9-2.18-2.1-2.3-.15-.02-.29-.09-.38-.21s-.13-.27-.11-.42a3.167 3.167 0 00-3.12-3.66c-1.74 0-3.16 1.42-3.16 3.16 0 .17.02.33.04.5.02.15-.02.3-.11.42s-.23.19-.38.21c-1.2.12-2.1 1.11-2.1 2.3v.98c0 .87.49 1.66 1.28 2.06.22.12.34.37.28.61s-.28.41-.53.41h-.51z"/><path class="st2" d="M44.33 43.39c-.3 0-.54-.24-.54-.54V28.13c0-.3.24-.54.54-.54s.54.24.54.54v14.72c0 .3-.24.54-.54.54z"/><path d="M22.63 26.55c-.62 0-1.24-.13-1.83-.39a4.417 4.417 0 01-2.34-2.48c-.42-1.11-.39-2.32.1-3.41a4.47 4.47 0 015.89-2.24c2.24 1.01 3.25 3.65 2.24 5.89a4.417 4.417 0 01-2.48 2.34c-.51.2-1.05.29-1.58.29zm.01-7.71c-1.24 0-2.43.72-2.98 1.92-.36.79-.38 1.68-.07 2.49.31.81.92 1.46 1.71 1.81.79.36 1.68.38 2.49.07.81-.31 1.46-.92 1.81-1.71.74-1.64 0-3.57-1.64-4.31-.43-.18-.88-.27-1.32-.27z" fill="#efef00"/></g></svg>