<svg version="1.1" id="Layer_1" xmlns="http://www.w3.org/2000/svg" xmlns:xlink="http://www.w3.org/1999/xlink" x="0" y="0" width="47" height="47" xml:space="preserve"><style>.st1{fill:#fff}</style><g id="Group_9810" transform="translate(-2629.898 -152.773)"><g id="Group_420"><defs><path id="SVGID_1_" d="M2629.9 152.8h47v47h-47z"/></defs><clipPath id="SVGID_2_"><use xlink:href="#SVGID_1_" overflow="visible"/></clipPath><g id="Group_419" clip-path="url(#SVGID_2_)"><path class="st1" d="M2665.6 191.8h-21.8c-.4 0-.8-.4-.8-.8s.4-.8.8-.8h21.8c.4 0 .8.4.8.8s-.3.8-.8.8z" id="Line_316"/><path class="st1" d="M2643.8 191.8c-.5 0-.8-.4-.8-.9l.3-4c0-.4.4-.7.8-.7s.8.4.7.8l-.3 4c.1.5-.3.8-.7.8z" id="Line_317"/><g id="Group_418"><defs><path id="SVGID_3_" d="M2629.9 152.8h47v47h-47z"/></defs><clipPath id="SVGID_4_"><use xlink:href="#SVGID_3_" overflow="visible"/></clipPath><g id="Group_417" clip-path="url(#SVGID_4_)"><path class="st1" d="M2665.6 191.8c-.4 0-.7-.3-.8-.7l-.4-4.8c0-.5-.1-1.1-.1-1.6-.1-1.8-.1-3.5-1.2-4.8-.9-1-2.2-1.7-3.5-2-1.5-.2-3.1-.3-4.6-.3-1.6-.1-3.1 0-4.5.4-.4.1-.8-.1-1-.6-.1-.4.1-.8.6-1 1.6-.4 3.3-.6 5-.4 1.5 0 3.2.1 4.8.3 1.7.3 3.3 1.2 4.5 2.5 1.4 1.8 1.5 3.8 1.5 5.8 0 .5 0 1 .1 1.5l.4 4.8c0 .5-.3.9-.8.9.1 0 0 0 0 0z" id="Path_215"/><path class="st1" d="M2654.7 174.2c-2.8 0-5-2.2-5-5 0-.4.4-.8.8-.8s.8.4.8.8c0 1.9 1.5 3.4 3.4 3.4s3.4-1.5 3.4-3.4c0-.4.4-.8.8-.8s.8.4.8.8c0 2.7-2.2 5-5 5z" id="Path_216"/><path class="st1" d="M2658.9 169.9c-.4 0-.8-.4-.8-.8v-2.9c0-1.9-1.5-3.3-3.4-3.4-.9 0-1.8.3-2.4 1-.7.6-1 1.5-1 2.4v2.9c0 .4-.4.8-.8.8s-.8-.4-.8-.8v-2.9c0-1.3.6-2.6 1.5-3.5 1-.9 2.2-1.4 3.6-1.4 2.7 0 4.9 2.2 4.9 4.9v2.9c0 .5-.3.8-.8.8z" id="Path_217"/><path class="st1" d="M2644.4 184.7c-2.2 0-4-1.8-4-4s1.8-4 4-4 4 1.8 4 4-1.8 4-4 4zm0-6.5c-1.3 0-2.4 1.1-2.4 2.4 0 1.3 1.1 2.4 2.4 2.4 1.3 0 2.4-1.1 2.4-2.4 0-1.3-1.1-2.4-2.4-2.4z" id="Path_218"/></g></g></g></g></g></svg>