<svg version="1.1" id="Capa_1" xmlns="http://www.w3.org/2000/svg" xmlns:xlink="http://www.w3.org/1999/xlink" x="0" y="0" viewBox="0 0 65 65" xml:space="preserve"><style>.st1,.st2{fill:none}.st2{stroke:#90a6b1;stroke-width:1.6;stroke-linecap:round;stroke-linejoin:round}.st4{fill:#19a301}</style><g id="Capa_1_1_"><g id="Grupo_13213_2_" transform="translate(-.246 -.246)"><path id="Rectángulo_3799-2_2_" class="st1" d="M.25.25h65v65h-65z"/><path id="Línea_1013_5_" class="st2" d="M19.16 21.48v4.25"/><path id="Línea_1014_5_" class="st2" d="M25.38 21.48v4.25"/><path id="Trazado_5700_1_" class="st2" d="M28.17 26.99l-2.79-1.26"/><path id="Trazado_5700_11_" class="st2" d="M36.84 48.88v-5.36"/><path id="Trazado_5700_6_" class="st2" d="M36.89 48.88H7.64v-13.8c0-1.34.34-2.67 1.09-3.78.53-.79 1.23-1.46 2.04-1.82l8.39-3.75"/><path id="Línea_1016_4_" class="st2" d="M22.27 29.26l-3.11-3.53"/><path id="Línea_1017_5_" class="st2" d="M22.27 29.26l3.11-3.53"/><path id="Trazado_5701_5_" class="st2" d="M28.1 16.52c0 3.24-2.62 5.86-5.86 5.86s-5.86-2.62-5.86-5.86"/><path id="Trazado_5702_5_" class="st2" d="M16.38 16.52v-4.04c0-3.24 2.62-5.86 5.86-5.86s5.86 2.62 5.86 5.86v4.04"/><path class="st2" d="M56.96 25.04c.53 1.53.82 3.18.82 4.89 0 8.2-6.65 14.84-14.84 14.84-2.18 0-4.25-.47-6.12-1.32"/><path class="st2" d="M36.82 43.46c-5.14-2.33-8.72-7.51-8.72-13.53 0-8.2 6.65-14.84 14.84-14.84 1.49 0 2.94.22 4.3.63"/><path class="st2" d="M43.03 23.33c3.14 0 5.68 2.54 5.68 5.68v7.63H37.35v-7.63c0-3.14 2.54-5.68 5.68-5.68zm5.67 13.31H37.34l-1.11 2.62h13.53zm-2.91-8.2a3.142 3.142 0 00-2.31-2.41m2.37 6.07v-1.15m-2.89-10.8V18.6m-5.98 4.36l-1.39-1.39m17.29 7.32h-1.55m-16.77 0H33"/></g><defs><path id="SVGID_1_" d="M0 48.26h65V65H0z"/></defs><clipPath id="SVGID_2_"><use xlink:href="#SVGID_1_" overflow="visible"/></clipPath><g clip-path="url(#SVGID_2_)"><path class="st1" d="M0 48.26h65V65H0z"/><path class="st4" d="M45.38 61.32h-7.17c-.66 0-1.2-.54-1.2-1.2s.54-1.2 1.2-1.2h7.17c.66 0 1.2.54 1.2 1.2s-.54 1.2-1.2 1.2zm7.73 0h-.58c-.66 0-1.2-.54-1.2-1.2s.54-1.2 1.2-1.2h.58c.66 0 1.2.54 1.2 1.2s-.54 1.2-1.2 1.2zm-34.12 0h-7.1c-.66 0-1.2-.54-1.2-1.2s.54-1.2 1.2-1.2h7.1c.66 0 1.2.54 1.2 1.2s-.54 1.2-1.2 1.2z"/><path d="M31.05 61.32H18.53c-.66 0-1.2-.54-1.2-1.2s.54-1.2 1.2-1.2h12.52c.66 0 1.2.54 1.2 1.2s-.54 1.2-1.2 1.2zm4.42-6.11H11.89c-.66 0-1.2-.54-1.2-1.2s.54-1.2 1.2-1.2h23.58c.66 0 1.2.54 1.2 1.2s-.54 1.2-1.2 1.2z" fill="#82d400"/><path class="st4" d="M53.11 55.21H34.75c-.66 0-1.2-.54-1.2-1.2s.54-1.2 1.2-1.2h18.36c.66 0 1.2.54 1.2 1.2s-.54 1.2-1.2 1.2zm-40.79 0h-.43c-.66 0-1.2-.54-1.2-1.2s.54-1.2 1.2-1.2h.43c.66 0 1.2.54 1.2 1.2s-.54 1.2-1.2 1.2z"/></g><path id="Trazado_11848_7_" d="M56.71 19.2c0 2.31-1.87 4.18-4.18 4.18s-4.18-1.87-4.18-4.18 1.87-4.18 4.18-4.18h0c2.3-.01 4.17 1.85 4.18 4.15v.03z" fill="none" stroke="#00a800" stroke-width="1.6" stroke-linecap="round" stroke-linejoin="round" stroke-miterlimit="10"/></g></svg>