<svg id="Capa_1" data-name="Capa 1" xmlns="http://www.w3.org/2000/svg" viewBox="0 0 47 47"><defs><style>.cls-2{fill:#fff}</style></defs><path fill="none" d="M0 0h47v47H0z"/><path class="cls-2" d="M42.6 40.3H5.7a.8.8 0 010-1.6h36.9a.8.8 0 010 1.6z" id="Línea_2112" data-name="Línea 2112"/><path class="cls-2" d="M28.1 40.3H9.6a.9.9 0 01-.8-.8V11A4.2 4.2 0 0113 6.7h11.7a4.2 4.2 0 014.2 4.3v28.5a.9.9 0 01-.8.8zm-17.8-1.6h17.1V11a2.8 2.8 0 00-2.7-2.7H13a2.8 2.8 0 00-2.7 2.7z" id="Trazado_11506" data-name="Trazado 11506"/><path class="cls-2" d="M35.4 26.5a.8.8 0 01-.8-.7 5.1 5.1 0 00-5.1-4.6h-1.4a.8.8 0 01-.7-.8.7.7 0 01.7-.7h1.4a6.5 6.5 0 016.6 6 .6.6 0 01-.6.8z" id="Trazado_11507" data-name="Trazado 11507"/><path class="cls-2" d="M35.4 40.3a.8.8 0 01-.7-.8v-2.4a.7.7 0 01.7-.7.8.8 0 01.8.7v2.4a.9.9 0 01-.8.8z" id="Línea_2113" data-name="Línea 2113"/><path class="cls-2" d="M28.1 13.7H9.6a.9.9 0 01-.8-.8.8.8 0 01.8-.7h18.5a.8.8 0 01.8.7.9.9 0 01-.8.8z" id="Línea_2114" data-name="Línea 2114"/><path class="cls-2" d="M15.4 40.3a.9.9 0 01-.8-.8V12.9a.8.8 0 01.8-.7.7.7 0 01.7.7v26.6a.8.8 0 01-.7.8z" id="Línea_2115" data-name="Línea 2115"/><path class="cls-2" d="M15.4 17.8H9.6a.8.8 0 01-.8-.8.8.8 0 01.8-.7h5.8a.7.7 0 01.7.7.7.7 0 01-.7.8z" id="Línea_2116" data-name="Línea 2116"/><path class="cls-2" d="M15.4 21.9H9.6a.8.8 0 01-.8-.7.8.8 0 01.8-.8h5.8a.7.7 0 01.7.8.7.7 0 01-.7.7z" id="Línea_2117" data-name="Línea 2117"/><path class="cls-2" d="M15.4 26H9.6a.8.8 0 01-.8-.7.9.9 0 01.8-.8h5.8a.8.8 0 01.7.8.7.7 0 01-.7.7z" id="Línea_2118" data-name="Línea 2118"/><path class="cls-2" d="M15.4 30.2H9.6a.8.8 0 110-1.6h5.8a.8.8 0 010 1.6z" id="Línea_2119" data-name="Línea 2119"/><path class="cls-2" d="M15.4 34.3H9.6a.9.9 0 01-.8-.8.8.8 0 01.8-.7h5.8a.7.7 0 01.7.7.8.8 0 01-.7.8z" id="Línea_2120" data-name="Línea 2120"/><path class="cls-2" d="M35.4 35.4a3.9 3.9 0 113.8-3.8 3.8 3.8 0 01-3.8 3.8zm0-6.2a2.4 2.4 0 102.3 2.4 2.3 2.3 0 00-2.3-2.4z" id="Elipse_2111" data-name="Elipse 2111"/></svg>