<svg version="1.1" id="Capa_1" xmlns="http://www.w3.org/2000/svg" x="0" y="0" viewBox="0 0 65 65" xml:space="preserve"><style>.st1{fill:none}.st2{fill:#95a6b1}.st3{fill:#4da12e}</style><path d="M11.57 21.41c-.47 0-.93-.08-1.38-.25-.99-.37-1.77-1.1-2.21-2.06s-.48-2.03-.11-3.02 1.1-1.77 2.06-2.21c1.98-.9 4.33-.03 5.23 1.95.42.91.47 1.93.16 2.88a3.922 3.922 0 01-2.11 2.35c-.52.24-1.08.36-1.64.36zm-.01-6.3a2.33 2.33 0 00-2.19 1.53c-.22.59-.2 1.23.07 1.8.26.57.73 1.01 1.32 1.23a2.34 2.34 0 003.05-1.46c.19-.57.15-1.17-.09-1.71a2.386 2.386 0 00-2.16-1.39z" fill="#19a500" id="Trazado_12108_1_"/><path class="st2" d="M17.1 23.02c-.08 0-.16-.01-.24-.04-.64-.2-1.24-.48-1.8-.84a.806.806 0 01-.25-1.1c.24-.37.73-.48 1.1-.24.44.28.92.5 1.42.66.42.13.66.58.52 1-.09.34-.41.56-.75.56z" id="Trazado_12109_1_"/><path class="st2" d="M19.15 23.33c-.78 0-1.55-.12-2.29-.35-.42-.13-.66-.58-.52-1s.58-.66 1-.52c.59.18 1.2.28 1.81.28 3.33 0 6.04-2.71 6.04-6.04 0-1.72-1.84-5.18-5.05-9.48-.07-.1-.16-.19-.26-.26-.26-.2-.59-.28-.92-.23-.33.05-.62.22-.81.49-1.48 1.93-2.8 3.99-3.95 6.13-.21.39-.69.54-1.08.33a.796.796 0 01-.33-1.08c1.19-2.21 2.56-4.35 4.08-6.34.44-.6 1.11-1 1.86-1.11a2.841 2.841 0 012.69 1.11c2.45 3.28 5.37 7.76 5.37 10.44.01 4.2-3.42 7.63-7.64 7.63.01 0 .01 0 0 0z" id="Trazado_12110_1_"/><path class="st2" d="M27.4 40.22H11.42c-.38 0-.71-.27-.79-.65l-3-15.98c-.08-.43.2-.85.64-.93.44-.08.85.2.93.64l.65 3.46c.77.12 1.23.47 1.62.76.38.29.63.48 1.2.48s.82-.19 1.2-.48c.47-.36 1.06-.8 2.17-.8s1.7.44 2.17.8c.38.29.63.48 1.2.48s.82-.19 1.2-.48c.47-.36 1.06-.8 2.17-.8s1.7.44 2.17.8c.38.29.63.48 1.2.48s.83-.19 1.2-.48c.39-.29.85-.64 1.62-.76l.65-3.46a.798.798 0 111.57.29l-3.01 15.98c-.06.38-.39.65-.78.65zm-15.31-1.6h14.65l1.89-10.05c-.1.06-.2.14-.31.22-.47.36-1.06.8-2.17.8s-1.7-.44-2.17-.8c-.38-.29-.63-.48-1.2-.48s-.82.19-1.2.48c-.47.36-1.06.8-2.17.8s-1.7-.44-2.17-.8c-.38-.29-.63-.48-1.2-.48s-.82.19-1.2.48c-.47.36-1.06.8-2.17.8s-1.7-.44-2.17-.8c-.11-.08-.21-.16-.31-.22l1.9 10.05z" id="Trazado_12111_1_"/><path class="st2" d="M20.06 20.1a.802.802 0 01-.23-1.57c1.03-.3 1.87-1.03 2.32-2 .19-.4.66-.58 1.06-.39.4.19.58.66.39 1.06a5.297 5.297 0 01-3.32 2.87c-.07.01-.14.03-.22.03z"/><path class="st2" d="M53.58 40.22H37.6c-.38 0-.71-.27-.79-.65L33.8 23.59c-.08-.43.2-.85.64-.93.45-.08.85.2.93.64l.65 3.46c.77.12 1.23.47 1.62.76.38.29.63.48 1.2.48s.82-.19 1.2-.48c.47-.36 1.06-.8 2.17-.8s1.7.44 2.17.8c.38.29.63.48 1.2.48s.82-.19 1.2-.48c.47-.36 1.06-.8 2.17-.8s1.7.44 2.17.8c.38.29.63.48 1.2.48s.82-.19 1.2-.48c.39-.29.85-.64 1.62-.76l.65-3.46a.798.798 0 111.57.29l-3.01 15.98c-.06.38-.39.65-.77.65zm-15.32-1.6h14.65l1.89-10.05c-.1.06-.2.14-.31.23-.47.36-1.06.8-2.17.8-1.11 0-1.7-.44-2.17-.8-.38-.29-.63-.48-1.2-.48s-.82.19-1.2.48c-.47.36-1.06.8-2.17.8s-1.7-.44-2.17-.8c-.38-.29-.63-.48-1.2-.48s-.82.19-1.2.48c-.47.36-1.06.8-2.17.8s-1.7-.44-2.17-.8c-.11-.08-.21-.16-.31-.22l1.9 10.04z" id="Trazado_12111_2_"/><path class="st2" d="M55.82 49.15h-2.95c-.44 0-.8-.36-.8-.8v-5.61c0-.44.36-.8.8-.8h2.95c.44 0 .8.36.8.8v5.61c0 .44-.36.8-.8.8zm-2.15-1.6h1.35v-4.01h-1.35v4.01z" id="Rectángulo_4972"/><path class="st2" d="M52.87 48.34h-3.55c-3.31 0-6.01-2.7-6.01-6.01v-2.91c0-.44.36-.8.8-.8h4.28c.44 0 .8.36.8.8v2.54c0 .42.34.76.76.76l2.93.01c.44 0 .8.36.8.8v4a.82.82 0 01-.81.81zm-7.96-8.12v2.11c0 2.43 1.98 4.41 4.41 4.41h2.75v-2.4l-2.12-.01c-1.3 0-2.36-1.06-2.36-2.36v-1.74h-2.68z" id="Trazado_12120"/><path class="st1" d="M0 48.26h65V65H0z"/><path class="st3" d="M45.38 61.32h-7.17c-.66 0-1.2-.54-1.2-1.2s.54-1.2 1.2-1.2h7.17c.66 0 1.2.54 1.2 1.2s-.54 1.2-1.2 1.2zm7.73 0h-.58c-.66 0-1.2-.54-1.2-1.2s.54-1.2 1.2-1.2h.58c.66 0 1.2.54 1.2 1.2s-.54 1.2-1.2 1.2zm-34.12 0h-7.1c-.66 0-1.2-.54-1.2-1.2s.54-1.2 1.2-1.2h7.1c.66 0 1.2.54 1.2 1.2s-.54 1.2-1.2 1.2z"/><path d="M31.05 61.32H18.53c-.66 0-1.2-.54-1.2-1.2s.54-1.2 1.2-1.2h12.52c.66 0 1.2.54 1.2 1.2s-.54 1.2-1.2 1.2zm4.42-6.11H11.89c-.66 0-1.2-.54-1.2-1.2s.54-1.2 1.2-1.2h23.58c.66 0 1.2.54 1.2 1.2s-.53 1.2-1.2 1.2z" fill="#96d200"/><path class="st3" d="M53.11 55.21H34.75c-.66 0-1.2-.54-1.2-1.2s.54-1.2 1.2-1.2h18.36c.66 0 1.2.54 1.2 1.2s-.54 1.2-1.2 1.2zm-40.79 0h-.43c-.66 0-1.2-.54-1.2-1.2s.54-1.2 1.2-1.2h.43c.66 0 1.2.54 1.2 1.2s-.54 1.2-1.2 1.2z"/><path class="st1" d="M0 0h65v65H0z" id="Rectángulo_3799-2_5_"/></svg>