<svg xmlns="http://www.w3.org/2000/svg" viewBox="0 0 60 60"><style>.st2{fill:#fff}</style><g id="Capa_2"><path d="M30 0c16.57 0 30 13.43 30 30S46.57 60 30 60 0 46.57 0 30 13.43 0 30 0z" fill="#19a500" id="Rectángulo_3799_55_"/></g><g id="Capa_1"><path fill="none" d="M0 0h60v60H0z" id="Rectángulo_3799_1_"/><path class="st2" d="M51.71 46.79c-.18 0-.36-.08-.47-.23-.94-1.21-1.99-2.34-3.12-3.37a.6.6 0 01-.04-.85.6.6 0 01.85-.04c1.18 1.08 2.28 2.26 3.26 3.52.2.26.16.64-.11.84a.64.64 0 01-.37.13zm-9.8-7.9c-.09 0-.18-.02-.26-.06-.22-.1-.44-.21-.66-.3-2.1-.95-4.32-1.62-6.57-2-.33-.06-.55-.37-.49-.69s.36-.55.69-.49c2.35.4 4.66 1.1 6.86 2.09.23.1.46.21.68.32.3.14.42.5.28.8a.59.59 0 01-.53.33zm-23.82-.09c-.22 0-.44-.13-.54-.34-.14-.3-.01-.66.29-.8a28.74 28.74 0 016.94-2.25.6.6 0 01.22 1.18c-2.3.43-4.53 1.15-6.65 2.15-.08.05-.17.06-.26.06zm-9.8 7.77a.602.602 0 01-.47-.97 27.6 27.6 0 012.79-3.03.601.601 0 11.82.88c-.96.89-1.86 1.87-2.67 2.9-.12.14-.29.22-.47.22z"/><path class="st2" d="M17.91 45.44h-6.59c-.33 0-.6-.27-.6-.6V24.28c0-.33.27-.6.6-.6s.6.27.6.6v19.95h5.39V24.28c0-.33.27-.6.6-.6s.6.27.6.6v20.55c0 .34-.26.61-.6.61zm30.22-12.22h-5.8c-1.79 0-3.25-1.46-3.25-3.25v-7.88c0-1.79 1.46-3.25 3.25-3.25h5.8c1.79 0 3.25 1.46 3.25 3.25v7.88c0 1.79-1.46 3.25-3.25 3.25zm-5.81-13.19c-1.13 0-2.05.92-2.05 2.05v7.88c0 1.13.92 2.05 2.05 2.05h5.8c1.13 0 2.05-.92 2.05-2.05v-7.88c0-1.13-.92-2.05-2.05-2.05h-5.8z"/><path class="st2" d="M17.51 33.22h-5.8c-1.79 0-3.25-1.46-3.25-3.25v-7.88c0-1.79 1.46-3.25 3.25-3.25h5.8c1.79 0 3.25 1.46 3.25 3.25v7.88c0 1.79-1.46 3.25-3.25 3.25zm-5.8-13.19c-1.13 0-2.05.92-2.05 2.05v7.88c0 1.13.92 2.05 2.05 2.05h5.8c1.13 0 2.05-.92 2.05-2.05v-7.88c0-1.13-.92-2.05-2.05-2.05h-5.8zm33.44 8.18c-.33 0-.6-.27-.6-.6v-4.93l-1.5-2.72a.607.607 0 01.24-.82c.29-.16.66-.05.82.24l1.58 2.86c.05.09.07.19.07.29v5.08c-.01.33-.28.6-.61.6z"/><path class="st2" d="M45.15 23.13c-.1 0-.21-.03-.3-.08a.606.606 0 01-.22-.82l1.79-3.06c.17-.28.53-.38.82-.22.29.17.38.54.22.82l-1.79 3.06c-.12.2-.32.3-.52.3z"/><path class="st2" d="M48.33 45.56h-6.32c-.33 0-.6-.27-.6-.6V22.9c0-.33.27-.6.6-.6s.6.27.6.6v21.46h5.12V22.9c0-.33.27-.6.6-.6s.6.27.6.6v22.06c0 .33-.27.6-.6.6zm-33.69-.25c-.33 0-.6-.27-.6-.6V32.69c0-.33.27-.6.6-.6s.6.27.6.6v12.02c0 .33-.27.6-.6.6z"/><path class="st2" d="M45.29 45.46c-.33 0-.6-.27-.6-.6V32.65c0-.33.27-.6.6-.6s.6.27.6.6v12.21c0 .33-.26.6-.6.6zm-30.8-27.41c-1.97 0-3.57-1.6-3.57-3.57s1.6-3.57 3.57-3.57 3.57 1.6 3.57 3.57-1.61 3.57-3.57 3.57zm0-5.93c-1.31 0-2.37 1.06-2.37 2.37s1.06 2.37 2.37 2.37 2.37-1.06 2.37-2.37-1.07-2.37-2.37-2.37z"/><path class="st2" d="M17.07 14.24h-5.16c-.33 0-.6-.27-.6-.6s.27-.6.6-.6h5.16c.33 0 .6.27.6.6s-.27.6-.6.6z"/><path class="st2" d="M14.55 14.24c-.33 0-.6-.27-.6-.6V9.81c0-.33.27-.6.6-.6s.6.27.6.6v3.82c0 .34-.27.61-.6.61zm20.01 24.21h-9.15c-.17 0-.34-.07-.45-.2a.622.622 0 01-.15-.47l1.45-11.54v-6.52c0-.33.27-.6.6-.6s.6.27.6.6v6.59l-1.37 10.94h7.79L32.5 26.48v-6.61c0-.33.27-.6.6-.6s.6.27.6.6v6.54l1.46 11.37c.02.17-.03.34-.14.47a.69.69 0 01-.46.2z"/><path class="st2" d="M32.82 33.22h-5.8c-1.79 0-3.25-1.46-3.25-3.25v-7.88c0-1.79 1.46-3.25 3.25-3.25h5.8c1.79 0 3.25 1.46 3.25 3.25v7.88c0 1.79-1.46 3.25-3.25 3.25zm-5.81-13.19c-1.13 0-2.05.92-2.05 2.05v7.88c0 1.13.92 2.05 2.05 2.05h5.8c1.13 0 2.05-.92 2.05-2.05v-7.88c0-1.13-.92-2.05-2.05-2.05h-5.8zm6.14 25.38h-6.43c-.33 0-.6-.27-.6-.6v-6.97c0-.33.27-.6.6-.6s.6.27.6.6v6.38h5.23V37.9c0-.33.27-.6.6-.6s.6.27.6.6v6.92a.6.6 0 01-.6.59z"/><path class="st2" d="M30.01 45.2c-.33 0-.6-.27-.6-.6v-6.58c0-.33.27-.6.6-.6s.6.27.6.6v6.58c0 .33-.26.6-.6.6zm3.08-18.29h-6.23c-.33 0-.6-.27-.6-.6s.27-.6.6-.6h6.23c.33 0 .6.27.6.6s-.27.6-.6.6z"/><path d="M29.8 18.05c-1.97 0-3.57-1.6-3.57-3.57s1.6-3.57 3.57-3.57c1.97 0 3.57 1.6 3.57 3.57s-1.6 3.57-3.57 3.57zm0-5.93c-1.31 0-2.37 1.06-2.37 2.37s1.06 2.37 2.37 2.37 2.37-1.06 2.37-2.37-1.06-2.37-2.37-2.37z" fill="#efef00"/><path class="st2" d="M45.17 18.05c-1.97 0-3.57-1.6-3.57-3.57s1.6-3.57 3.57-3.57 3.57 1.6 3.57 3.57-1.61 3.57-3.57 3.57zm0-5.93c-1.31 0-2.37 1.06-2.37 2.37s1.06 2.37 2.37 2.37 2.37-1.06 2.37-2.37-1.07-2.37-2.37-2.37z"/></g></svg>