<svg xmlns="http://www.w3.org/2000/svg" width="35.475" height="37.846"><g data-name="Grupo 15402"><g data-name="Grupo 14393" fill="none" stroke="#fff" stroke-linecap="round" stroke-linejoin="round" stroke-width="2.2"><path data-name="Línea 2663" d="M11.99 36.745h11.494"/><path data-name="Línea 2664" d="M17.737 31.374v3.829"/><path data-name="Trazado 12249" d="M17.524 6.294h13.755a3.135 3.135 0 013.1 3.172v17.348a3.135 3.135 0 01-3.1 3.172H4.196a3.135 3.135 0 01-3.1-3.172V9.466a3.135 3.135 0 013.1-3.172h.719"/></g><g data-name="Grupo 13720"><g data-name="Rectángulo 4789"><path data-name="Trazado 12250" d="M8.586 12.002H21.54a3.051 3.051 0 013.3 2.725v8.4a3.052 3.052 0 01-3.3 2.725H8.586a3.052 3.052 0 01-3.3-2.725v-8.4a3.051 3.051 0 013.3-2.725z" fill="none" stroke="#fff" stroke-linecap="round" stroke-linejoin="round" stroke-width="2.2"/></g><path data-name="Trazado 11898" d="M25.01 16.747l3.911-1.887a1.063 1.063 0 011.512.863v6.406a1.062 1.062 0 01-1.511.863l-3.912-1.923" fill="none" stroke="#fff" stroke-linecap="round" stroke-linejoin="round" stroke-width="2.2"/></g><path data-name="Trazado 300" d="M14.841 4.501a3.4 3.4 0 11-3.4-3.4h0a3.384 3.384 0 013.4 3.369z" fill="none" stroke="#fff" stroke-linecap="round" stroke-linejoin="round" stroke-width="2.2"/></g></svg>