<svg version="1.1" id="Capa_1" xmlns="http://www.w3.org/2000/svg" xmlns:xlink="http://www.w3.org/1999/xlink" x="0" y="0" viewBox="0 0 65 65" xml:space="preserve"><style>.st1{fill:none}.st3{fill:#4da12e}.st5{fill:none;stroke:#95a6b1;stroke-width:1.6;stroke-linecap:round;stroke-linejoin:round}</style><g id="Capa_1_1_"><path class="st1" d="M0 0h65v65H0z"/><defs><path id="SVGID_1_" d="M0 48.26h65V65H0z"/></defs><clipPath id="SVGID_2_"><use xlink:href="#SVGID_1_" overflow="visible"/></clipPath><g clip-path="url(#SVGID_2_)"><path class="st1" d="M0 48.26h65V65H0z"/><path class="st3" d="M45.38 61.32h-7.17c-.66 0-1.2-.54-1.2-1.2s.54-1.2 1.2-1.2h7.17c.66 0 1.2.54 1.2 1.2s-.54 1.2-1.2 1.2zm7.73 0h-.58c-.66 0-1.2-.54-1.2-1.2s.54-1.2 1.2-1.2h.58c.66 0 1.2.54 1.2 1.2s-.54 1.2-1.2 1.2zm-34.12 0h-7.1c-.66 0-1.2-.54-1.2-1.2s.54-1.2 1.2-1.2h7.1c.66 0 1.2.54 1.2 1.2s-.54 1.2-1.2 1.2z"/><path d="M31.05 61.32H18.53c-.66 0-1.2-.54-1.2-1.2s.54-1.2 1.2-1.2h12.52c.66 0 1.2.54 1.2 1.2s-.54 1.2-1.2 1.2zm4.42-6.11H11.89c-.66 0-1.2-.54-1.2-1.2s.54-1.2 1.2-1.2h23.58c.66 0 1.2.54 1.2 1.2s-.54 1.2-1.2 1.2z" fill="#96d200"/><path class="st3" d="M53.11 55.21H34.75c-.66 0-1.2-.54-1.2-1.2s.54-1.2 1.2-1.2h18.36c.66 0 1.2.54 1.2 1.2s-.54 1.2-1.2 1.2zm-40.79 0h-.43c-.66 0-1.2-.54-1.2-1.2s.54-1.2 1.2-1.2h.43c.66 0 1.2.54 1.2 1.2s-.54 1.2-1.2 1.2z"/></g><path class="st5" d="M45.26 20.51H9.56c-2.9 0-5.25 5.85-5.25 13.07s2.35 13.07 5.25 13.07h45.88c2.9 0 5.25-5.85 5.25-13.07 0-3.86-.67-7.33-1.74-9.72"/><path class="st5" d="M5.4 29.5c2.74 0 2.74 1.99 5.49 1.99s2.75-1.99 5.49-1.99c2.75 0 2.75 1.99 5.49 1.99 2.75 0 2.75-1.99 5.49-1.99 2.75 0 2.75 1.99 5.49 1.99 2.75 0 2.75-1.99 5.49-1.99 2.75 0 2.75 1.99 5.49 1.99 2.75 0 2.75-1.99 5.5-1.99s2.75 1.99 5.5 1.99 2.75-1.99 5.5-1.99M4.31 8.81h56.03M11.6 20.51v-3.1h12.53v3.1m-8.03-3.54V8.81m3.53 8.16V8.81m10.53 11.7v-3.77c0-1.15.93-2.08 2.07-2.08h9.61c1.14 0 2.07-.93 2.07-2.08V9.02"/><path id="Trazado_11848_3_" d="M56.45 21.54c0 2.31-1.87 4.18-4.18 4.18s-4.18-1.87-4.18-4.18 1.87-4.18 4.18-4.18h0c2.3-.01 4.17 1.85 4.18 4.15h0v.03z" fill="none" stroke="#19a500" stroke-width="1.6" stroke-linecap="round" stroke-linejoin="round" stroke-miterlimit="10"/></g></svg>