<svg xmlns="http://www.w3.org/2000/svg" width="47" height="47"><g data-name="Grupo 19084" fill="none"><path data-name="Path 356" d="M15.015 7.444a3.09 3.09 0 01-3.1 3.079 3.091 3.091 0 01-3.079-3.1 3.089 3.089 0 013.1-3.078 3.087 3.087 0 013.078 3.078z" stroke="#fff" stroke-linecap="round" stroke-linejoin="round" stroke-width="1.5"/><path data-name="Trazado 28156" d="M42.886 11.544l-5.958 4.029h-4.316a.66.66 0 00-.658.658v4.661a.659.659 0 00.658.658h4.316l5.958 4.029z" stroke="#fff" stroke-linecap="round" stroke-linejoin="round" stroke-width="1.5"/><path data-name="Trazado 28157" d="M42.886 16.364a2.2 2.2 0 012.2 2.2 2.2 2.2 0 01-2.2 2.2" stroke="#fff" stroke-linecap="round" stroke-linejoin="round" stroke-width="1.5"/><path data-name="Rectángulo 5519" stroke="#fff" stroke-linecap="round" stroke-linejoin="round" stroke-width="1.5" d="M5.215 28.647h10.753v8.961H5.215z"/><path data-name="Trazado 28158" d="M9.539 31.061l2.365 2.067-2.365 2.065" stroke="#fff" stroke-linecap="round" stroke-linejoin="round" stroke-width="1.5"/><path data-name="Línea 2816" stroke="#fff" stroke-linecap="round" stroke-linejoin="round" stroke-width="1.5" d="M9.539 28.646V13.619"/><path data-name="Trazado 28159" d="M38.345 22.509v9.53H15.968" stroke="#fff" stroke-linecap="round" stroke-linejoin="round" stroke-width="1.5"/><path data-name="Línea 2817" d="M38.345 14.616V8.544H18.217" stroke="#fff" stroke-linecap="round" stroke-linejoin="round" stroke-width="1.5"/><path data-name="Trazado 28160" d="M13.781 25.58h15.618l-3.471-7.073-4.338 3.536-4.338-5.893z" stroke="#fff" stroke-linecap="round" stroke-linejoin="round" stroke-width="1.5"/><path data-name="Rectángulo 5520" d="M0 0h47v47H0z"/></g></svg>