<svg version="1.1" id="Capa_1" xmlns="http://www.w3.org/2000/svg" xmlns:xlink="http://www.w3.org/1999/xlink" x="0" y="0" viewBox="0 0 121 65" xml:space="preserve"><style>.st1{fill:none}.st2{fill:#4da12e}.st5{fill:#9aa5af}</style><g id="Capa_1_1_"><defs><path id="SVGID_1_" d="M28 48.26h65V65H28z"/></defs><clipPath id="SVGID_2_"><use xlink:href="#SVGID_1_" overflow="visible"/></clipPath><g clip-path="url(#SVGID_2_)"><path class="st1" d="M28 48.26h65V65H28z"/><path class="st2" d="M73.38 61.32h-7.17c-.66 0-1.2-.54-1.2-1.2s.54-1.2 1.2-1.2h7.17c.66 0 1.2.54 1.2 1.2s-.54 1.2-1.2 1.2zm7.73 0h-.58c-.66 0-1.2-.54-1.2-1.2s.54-1.2 1.2-1.2h.58c.66 0 1.2.54 1.2 1.2s-.54 1.2-1.2 1.2zm-34.12 0h-7.1c-.66 0-1.2-.54-1.2-1.2s.54-1.2 1.2-1.2h7.1c.66 0 1.2.54 1.2 1.2s-.54 1.2-1.2 1.2z"/><path d="M59.05 61.32H46.53c-.66 0-1.2-.54-1.2-1.2s.54-1.2 1.2-1.2h12.52c.66 0 1.2.54 1.2 1.2s-.54 1.2-1.2 1.2zm4.42-6.11H39.89c-.66 0-1.2-.54-1.2-1.2s.54-1.2 1.2-1.2h23.58c.66 0 1.2.54 1.2 1.2s-.54 1.2-1.2 1.2z" fill="#96d200"/><path class="st2" d="M81.11 55.21H62.75c-.66 0-1.2-.54-1.2-1.2s.54-1.2 1.2-1.2h18.36c.66 0 1.2.54 1.2 1.2s-.54 1.2-1.2 1.2zm-40.79 0h-.43c-.66 0-1.2-.54-1.2-1.2s.54-1.2 1.2-1.2h.43c.66 0 1.2.54 1.2 1.2s-.54 1.2-1.2 1.2z"/></g><path class="st1" d="M0 0h121v65H0z" id="Rectángulo_3799-2_1_"/><path d="M15.39 24.3c-2.8 0-5.08-2.28-5.08-5.08 0-2.8 2.28-5.08 5.08-5.08h.02c1.34 0 2.6.52 3.56 1.47s1.49 2.22 1.5 3.58v.03c0 2.8-2.28 5.08-5.08 5.08zm.02-8.36c-1.81.01-3.3 1.47-3.3 3.28 0 1.81 1.47 3.28 3.28 3.28s3.28-1.47 3.28-3.28v-.03c0-.87-.35-1.69-.97-2.3-.61-.61-1.43-.95-2.29-.95z" fill="#19a500" id="Trazado_11848_4_"/><path class="st5" d="M56.34 48.61H15.16c-.5 0-.9-.4-.9-.9V27.38c0-.5.4-.9.9-.9s.9.4.9.9v19.43h39.38V19.69H23.37c-.5 0-.9-.4-.9-.9s.4-.9.9-.9h32.97c.5 0 .9.4.9.9v28.92c0 .5-.4.9-.9.9z" id="Trazado_11852_7_"/><path class="st5" d="M56.34 24.07c-.5 0-.9-.4-.9-.9v-4.38c0-.5.4-.9.9-.9s.9.4.9.9v4.38c0 .5-.4.9-.9.9z" id="Línea_2421_7_"/><path class="st5" d="M26.44 24.07c-.5 0-.9-.4-.9-.9v-4.38c0-.5.4-.9.9-.9s.9.4.9.9v4.38c0 .5-.4.9-.9.9z" id="Línea_2422_7_"/><path class="st5" d="M34.71 24.07c-.5 0-.9-.4-.9-.9v-4.38c0-.5.4-.9.9-.9s.9.4.9.9v4.38c0 .5-.4.9-.9.9z" id="Línea_2423_7_"/><path class="st5" d="M47.11 24.07c-.5 0-.9-.4-.9-.9v-4.38c0-.5.4-.9.9-.9s.9.4.9.9v4.38c0 .5-.4.9-.9.9z" id="Línea_2424_7_"/><path class="st5" d="M59.9 24.16H23.37c-.5 0-.9-.4-.9-.9s.4-.9.9-.9H59.9c.5 0 .9.4.9.9s-.4.9-.9.9z" id="Línea_2425_7_"/><path class="st5" d="M47.13 48.61H38.1c-.5 0-.9-.4-.9-.9s.4-.9.9-.9h9.03c.5 0 .9.4.9.9s-.4.9-.9.9zm8.34-18.3h-9.28c-.5 0-.9-.4-.9-.9s.4-.9.9-.9h9.28c.5 0 .9.4.9.9s-.4.9-.9.9zm-12.25 0h-1.25c-.5 0-.9-.4-.9-.9s.4-.9.9-.9h1.25c.5 0 .9.4.9.9s-.4.9-.9.9z"/><path class="st5" d="M109.61 48.61H68.43c-.5 0-.9-.4-.9-.9V18.79c0-.5.4-.9.9-.9h41.18c.5 0 .9.4.9.9v28.92c0 .5-.4.9-.9.9zm-40.28-1.8h39.38V19.69H69.33v27.12z" id="Trazado_11852_4_"/><path class="st5" d="M109.61 24.07c-.5 0-.9-.4-.9-.9v-4.38c0-.5.4-.9.9-.9s.9.4.9.9v4.38c0 .5-.4.9-.9.9z" id="Línea_2421_4_"/><path class="st5" d="M77.25 24.07c-.5 0-.9-.4-.9-.9v-4.38c0-.5.4-.9.9-.9s.9.4.9.9v4.38c0 .5-.4.9-.9.9z" id="Línea_2422_4_"/><path class="st5" d="M89.02 24.07c-.5 0-.9-.4-.9-.9v-4.38c0-.5.4-.9.9-.9s.9.4.9.9v4.38c0 .5-.4.9-.9.9z" id="Línea_2423_4_"/><path class="st5" d="M100.38 24.07c-.5 0-.9-.4-.9-.9v-4.38c0-.5.4-.9.9-.9s.9.4.9.9v4.38c0 .5-.4.9-.9.9z" id="Línea_2424_4_"/><path class="st5" d="M113.17 24.16h-48c-.5 0-.9-.4-.9-.9s.4-.9.9-.9h48c.5 0 .9.4.9.9s-.4.9-.9.9z" id="Línea_2425_4_"/><path class="st5" d="M100.4 48.61h-9.03c-.5 0-.9-.4-.9-.9s.4-.9.9-.9h9.03c.5 0 .9.4.9.9s-.4.9-.9.9zm8.34-18.3h-9.29c-.5 0-.9-.4-.9-.9s.4-.9.9-.9h9.29c.5 0 .9.4.9.9s-.4.9-.9.9zm-12.25 0h-1.25c-.5 0-.9-.4-.9-.9s.4-.9.9-.9h1.25c.5 0 .9.4.9.9s-.4.9-.9.9z"/><path class="st5" d="M113.17 48.8H7.83c-.5 0-.9-.4-.9-.9s.4-.9.9-.9h105.34c.5 0 .9.4.9.9s-.4.9-.9.9z"/></g></svg>