<svg version="1.1" id="Capa_1" xmlns="http://www.w3.org/2000/svg" xmlns:xlink="http://www.w3.org/1999/xlink" x="0" y="0" viewBox="0 0 65 65" xml:space="preserve"><style>.st2{stroke:#93a4af;stroke-width:1.6;stroke-linecap:round;stroke-linejoin:round}.st2,.st3{fill:none}.st5{fill:#19a301}</style><g id="Capa_1_1_"><g id="Grupo_14734" transform="translate(-90.055)"><g id="Grupo_14731"><path id="Trazado_11848_1_" d="M106.37 13.54c0 2.31-1.87 4.18-4.18 4.18s-4.18-1.87-4.18-4.18 1.87-4.18 4.18-4.18h0c2.3-.01 4.17 1.85 4.18 4.15h0v.03z" fill="none" stroke="#00ab00" stroke-width="1.6" stroke-linecap="round" stroke-linejoin="round" stroke-miterlimit="10"/><path id="Trazado_11852_1_" class="st2" d="M123.44 13.1h-13.26"/><path id="Trazado_11852_2_" class="st2" d="M101.97 21.69v25.95h41.18v-21.3"/><path id="Línea_2422_2_" class="st2" d="M113.25 13.1v4.39"/><path id="Línea_2423_2_" class="st2" d="M119.52 13.1v4.39"/><path id="Línea_2425_1_" class="st2" d="M125.95 17.58h-15.78"/><path id="Línea_2751" class="st2" d="M142.28 41.59h-9.29"/><path id="Línea_2752" class="st2" d="M111.25 28.67h-9.28"/><path id="Línea_2753" class="st2" d="M130.02 41.59h-1.24"/><path id="Línea_2754" class="st2" d="M97.63 47.65h49.85"/></g><g id="Grupo_13216"><path id="Rectángulo_3799" class="st3" d="M90.06 0h65v65h-65z"/></g><path id="Rectángulo_3799-2" class="st3" d="M90.06 0h65v65h-65z"/></g><defs><path id="SVGID_1_" d="M0 48.26h65V65H0z"/></defs><clipPath id="SVGID_2_"><use xlink:href="#SVGID_1_" overflow="visible"/></clipPath><g clip-path="url(#SVGID_2_)"><path class="st3" d="M0 48.26h65V65H0z"/><path class="st5" d="M45.38 61.32h-7.17c-.66 0-1.2-.54-1.2-1.2s.54-1.2 1.2-1.2h7.17c.66 0 1.2.54 1.2 1.2s-.54 1.2-1.2 1.2zm7.73 0h-.58c-.66 0-1.2-.54-1.2-1.2s.54-1.2 1.2-1.2h.58c.66 0 1.2.54 1.2 1.2s-.54 1.2-1.2 1.2zm-34.12 0h-7.1c-.66 0-1.2-.54-1.2-1.2s.54-1.2 1.2-1.2h7.1c.66 0 1.2.54 1.2 1.2s-.54 1.2-1.2 1.2z"/><path d="M31.05 61.32H18.53c-.66 0-1.2-.54-1.2-1.2s.54-1.2 1.2-1.2h12.52c.66 0 1.2.54 1.2 1.2s-.54 1.2-1.2 1.2zm4.42-6.11H11.89c-.66 0-1.2-.54-1.2-1.2s.54-1.2 1.2-1.2h23.58c.66 0 1.2.54 1.2 1.2s-.54 1.2-1.2 1.2z" fill="#82d400"/><path class="st5" d="M53.11 55.21H34.75c-.66 0-1.2-.54-1.2-1.2s.54-1.2 1.2-1.2h18.36c.66 0 1.2.54 1.2 1.2s-.54 1.2-1.2 1.2zm-40.79 0h-.43c-.66 0-1.2-.54-1.2-1.2s.54-1.2 1.2-1.2h.43c.66 0 1.2.54 1.2 1.2s-.54 1.2-1.2 1.2z"/></g><path class="st2" d="M57.77 23.14l-6.99-4.93c.04-.55 0-1.12-.13-1.69a5.592 5.592 0 00-8.27-3.58l3.95 2.51.13 2.9-2.86 1.15-3.93-2.5c-.09.66-.07 1.34.08 2.02a5.592 5.592 0 006.7 4.2c.67-.16 1.29-.43 1.83-.79l7.47 4.2"/><path class="st2" d="M55.76 10.22l-3.3.36c-1.49.16-2.92-.66-3.52-2.04L47.6 5.51c-.66-.1-1.33-.17-2.02-.17s-1.48.1-2.02.17l-1.34 3.03a3.457 3.457 0 01-3.52 2.04l-3.3-.36c-.84 1.04-1.52 2.22-2.01 3.5l1.96 2.68c.89 1.21.89 2.86 0 4.07l-1.96 2.68c.49 1.27 1.17 2.45 2.01 3.5l3.3-.36c1.49-.16 2.92.66 3.52 2.04l1.34 3.03c.66.1 1.33.17 2.02.17s1.36-.07 2.02-.17l1.34-3.03c.61-1.37 2.03-2.2 3.52-2.04l3.3.36c.84-1.04 1.52-2.22 2.01-3.5l-1.96-2.68a3.436 3.436 0 010-4.07l1.96-2.68c-.49-1.28-1.17-2.46-2.01-3.5z"/></g></svg>