<svg xmlns="http://www.w3.org/2000/svg" viewBox="0 0 60 60"><style>.st5{fill:none;stroke:#fff;stroke-width:1.1048;stroke-linecap:round;stroke-linejoin:round;stroke-miterlimit:10}</style><g id="Capa_2"><path id="Rectángulo_3799_58_" d="M30 0c16.57 0 30 13.43 30 30S46.57 60 30 60 0 46.57 0 30 13.43 0 30 0z" fill="#19a500"/></g><g id="Capa_1"><path id="Rectángulo_3799_28_" fill="none" d="M0 0h60v60H0z"/><path class="st5" d="M35.58 17.7l-2.26 3.63s-2.59 3.55-1.28 5.89c1.23 2.19 3.54 2.15 3.54 2.15s2.57.09 3.66-2.03c1.16-2.27-.57-5-1.42-6.3-.86-1.3-2.24-3.34-2.24-3.34zm-9.05 18.81V13.12c0-2.89-2.35-5.24-5.24-5.24s-5.24 2.35-5.24 5.24v23.39c-1.98 1.4-3.45 4.09-3.45 6.92 0 4.8 3.89 8.69 8.69 8.69 4.8 0 8.69-3.89 8.69-8.69 0-2.83-1.36-5.33-3.45-6.92zm-9.89-18.69h4.15m-4.22 9.39h4.22m-4.08-4.52h6.46m-6.46 8.82h6.46"/><circle class="st5" cx="21.36" cy="43.57" r="5.57"/><path class="st5" d="M42.39 46.93c-3.09 2.14-6.85 3.4-10.9 3.4-1.54 0-3.03-.18-4.46-.52m-.36-37.14c1.62-.44 3.06-.65 4.82-.65 10.58 0 19.15 8.57 19.15 19.15 0 1.51-.17 2.98-.5 4.39M11.59 11.37v5.06m2.53-2.53H9.06m26.43 22.67h-5.06"/><circle cx="46.35" cy="41.51" r="3.86" fill="none" stroke="#efef00" stroke-width="1.2" stroke-miterlimit="10"/></g></svg>