<svg xmlns="http://www.w3.org/2000/svg" viewBox="0 0 60 60"><style>.st2{fill:none;stroke:#fff;stroke-width:1.0892;stroke-linecap:round;stroke-linejoin:round;stroke-miterlimit:10}</style><g id="Capa_2"><path id="Rectángulo_3799_10_" d="M30 0c16.57 0 30 13.43 30 30S46.57 60 30 60 0 46.57 0 30 13.43 0 30 0z" fill="#19a500"/></g><g id="Capa_1"><path id="Rectángulo_3799_8_" fill="none" d="M0 0h60v60H0z"/><path class="st2" d="M36.08 44.63V25.1h-6.26v19.53m-8.4-20.41h4.19v5.11h3.56M10.05 44.65V34.08h5.22v-3.77"/><path class="st2" d="M32.61 25.06v-7.72h9.27v27.55m.47-9.86h2.85V22.44l4.51 5.7v16.27m-41.82.9h44.22"/><circle class="st2" cx="38.79" cy="9" r="2.59"/><path class="st2" d="M45.51 39.07h4.24m-4.24 2.86h4.24m-39.13-4.66h4.24m-4.24 2.85h4.24m23.61-19.83h3.18m-3.18 2.58h3.18"/><circle cx="15.54" cy="24.41" r="3.86" fill="none" stroke="#efef00" stroke-width="1.2" stroke-miterlimit="10"/></g></svg>