<svg version="1.1" id="Capa_1" xmlns="http://www.w3.org/2000/svg" x="0" y="0" viewBox="0 0 47 47" xml:space="preserve"><style>.st2{fill:none;stroke:#93a4af;stroke-width:1.5;stroke-linecap:round;stroke-linejoin:round;stroke-miterlimit:10}</style><path id="Trazado_11848_1_" d="M10.83 13.05c0 1.93-1.56 3.49-3.49 3.49-1.93 0-3.49-1.56-3.49-3.49 0-1.93 1.56-3.49 3.49-3.49h0a3.474 3.474 0 013.49 3.46v.03z" fill="none" stroke="#00a800" stroke-width="1.5" stroke-linecap="round" stroke-linejoin="round" stroke-miterlimit="10"/><path class="st2" d="M13.45 13.25h29.7v24.2H7.34V19"/><path class="st2" d="M27.92 27.13l15.24 10.31H7.34l15.24-10.31"/><path class="st2" d="M13.45 13.25h29.7L27.92 27.14l-.91.82c-1 .91-2.53.91-3.53 0l-.91-.82-11.04-9.89"/><path fill="none" d="M0 0h47v47H0z"/></svg>