<svg xmlns="http://www.w3.org/2000/svg" width="47" height="136.25"><g data-name="Grupo 16725"><path data-name="Línea 2119" fill="none" stroke="#505d6c" opacity=".29" d="M14.5 58v75.75"/><g data-name="Trazado 11273" fill="#fff"><path d="M14.5 135.25c-1.93 0-3.5-1.57-3.5-3.5s1.57-3.5 3.5-3.5 3.5 1.57 3.5 3.5c0 .738-.236 1.412-.764 2.186l-.005.008-.005.008c-.41.625-1.438 1.298-2.726 1.298z"/><path d="M14.5 129.25a2.503 2.503 0 00-2.5 2.5c0 1.378 1.122 2.5 2.5 2.5.972 0 1.675-.52 1.89-.847l.01-.015.01-.015c.52-.762.59-1.248.59-1.623 0-1.378-1.122-2.5-2.5-2.5m0-2a4.5 4.5 0 014.5 4.5c0 .925-.279 1.784-.938 2.75-.626.955-2.001 1.75-3.562 1.75a4.5 4.5 0 010-9z" fill="#00af00"/></g><g data-name="Grupo 16163" fill="none"><path data-name="Rectángulo 5125" d="M0 0h47v47H0z"/><g data-name="Grupo 16160" stroke-linecap="round" stroke-linejoin="round" stroke-width="1.5"><path data-name="Trazado 5703" d="M17.08 8.155a2.65 2.65 0 110-.037z" stroke="#19a500"/><path data-name="Trazado 17816" d="M32.629 17.937V18a9.146 9.146 0 01-1.313 4.709 9.112 9.112 0 01-2.024 2.332 9.054 9.054 0 01-4.477 1.969 8.5 8.5 0 01-1.292.1 1.348 1.348 0 01-.142 0 8.928 8.928 0 01-3.538-.773 6.641 6.641 0 01-.732-.363A9.084 9.084 0 0116.3 23.54h0a8.769 8.769 0 01-.616-.908 8.979 8.979 0 01-1.211-3.645 8.254 8.254 0 01-.056-.949V18a9.061 9.061 0 013.569-7.228 8.5 8.5 0 011.05-.7 8.918 8.918 0 013.119-1.08 8.743 8.743 0 011.373-.106c.055 0 .106 0 .161.005a8.963 8.963 0 013.645.828 7.285 7.285 0 01.767.4 8.954 8.954 0 012.781 2.508 8.382 8.382 0 01.591.914 9.062 9.062 0 011.1 3.4 9.306 9.306 0 01.056.996z" stroke="#95a6b1"/><path data-name="Trazado 17817" d="M18.836 5.557a13.275 13.275 0 11-7.477 7.075" stroke="#95a6b1"/><path data-name="Trazado 17818" d="M23.442 15.237a7.53 7.53 0 00.242-6.345c-.055-.005-.106-.005-.161-.005a8.743 8.743 0 00-1.373.106 8.93 8.93 0 00-3.12 1.08 8.56 8.56 0 00-1.049.7A9.106 9.106 0 0014.412 18v.04a8.254 8.254 0 00.056.949" stroke="#95a6b1"/><path data-name="Línea 3778" stroke="#95a6b1" d="M16.3 23.54h-.005"/><path data-name="Trazado 17819" d="M19.03 10.073a7.5 7.5 0 013.115 5.527" stroke="#95a6b1"/><path data-name="Trazado 17820" d="M21.095 16.665a7.5 7.5 0 00-5.376-3.376A9.214 9.214 0 0014.412 18v.04a8.254 8.254 0 00.056.949 8.979 8.979 0 001.211 3.645 8.769 8.769 0 00.616.908h0a9.084 9.084 0 002.811 2.423 6.641 6.641 0 00.732.363" stroke="#95a6b1"/><path data-name="Trazado 17821" d="M20.757 18.028a7.529 7.529 0 00-6.345.01 8.254 8.254 0 00.056.949 8.979 8.979 0 001.211 3.645 8.769 8.769 0 00.616.908h0a9.084 9.084 0 002.811 2.423 6.641 6.641 0 00.732.363 8.928 8.928 0 003.538.773 1.348 1.348 0 00.142 0 8.5 8.5 0 001.292-.1" stroke="#95a6b1"/><path data-name="Trazado 17822" d="M21.085 19.305a7.515 7.515 0 00-5.406 3.327 8.769 8.769 0 00.616.908h0a9.084 9.084 0 002.811 2.423 6.641 6.641 0 00.732.363 8.928 8.928 0 003.538.773 1.348 1.348 0 00.142 0 8.5 8.5 0 001.292-.1 9.054 9.054 0 004.477-1.969" stroke="#95a6b1"/><path data-name="Trazado 17823" d="M22.049 20.335a7.511 7.511 0 00-2.938 5.628 6.641 6.641 0 00.732.363 8.928 8.928 0 003.538.773 1.348 1.348 0 00.142 0 8.5 8.5 0 001.292-.1 9.054 9.054 0 004.477-1.969 9.112 9.112 0 002.024-2.332 8.859 8.859 0 00.762-1.6" stroke="#95a6b1"/><path data-name="Trazado 17824" d="M23.573 20.754a7.567 7.567 0 00-.192 6.345 1.348 1.348 0 00.142 0 8.5 8.5 0 001.292-.1 9.054 9.054 0 004.477-1.969 9.112 9.112 0 002.024-2.332A9.146 9.146 0 0032.629 18v-.061a9.306 9.306 0 00-.061-.994" stroke="#95a6b1"/><path data-name="Trazado 17825" d="M30.877 12.632a8.382 8.382 0 01.591.914 9.062 9.062 0 011.1 3.4 9.306 9.306 0 01.061.994V18a9.146 9.146 0 01-1.313 4.709 9.112 9.112 0 01-2.024 2.332 8.883 8.883 0 01-1.3.889 7.509 7.509 0 01-2.918-5.644v-.005" stroke="#95a6b1"/><path data-name="Trazado 17826" d="M27.329 9.72a7.285 7.285 0 01.767.4 8.954 8.954 0 012.781 2.508 8.382 8.382 0 01.591.914 9.062 9.062 0 011.1 3.4 9.306 9.306 0 01.061.994V18a9.146 9.146 0 01-1.313 4.709 7.539 7.539 0 01-5.305-3.513" stroke="#95a6b1"/><path data-name="Trazado 17827" d="M26.284 18.013a7.475 7.475 0 003.084.661 7.584 7.584 0 003.261-.737 9.306 9.306 0 00-.061-.994 9.062 9.062 0 00-1.1-3.4 8.382 8.382 0 00-.591-.914 8.954 8.954 0 00-2.777-2.505 7.285 7.285 0 00-.767-.4 8.963 8.963 0 00-3.645-.828c-.055-.005-.106-.005-.161-.005a8.743 8.743 0 00-1.373.106" stroke="#95a6b1"/><path data-name="Trazado 17828" d="M25.946 16.67a7.54 7.54 0 005.522-3.124" stroke="#95a6b1"/><path data-name="Trazado 17829" d="M25.052 15.691a7.482 7.482 0 003.048-5.567 7.285 7.285 0 00-.767-.4 8.963 8.963 0 00-3.645-.828c-.055-.005-.106-.005-.161-.005a8.743 8.743 0 00-1.373.106 8.93 8.93 0 00-3.12 1.08 8.56 8.56 0 00-1.049.7 8.958 8.958 0 00-2.953 3.937" stroke="#95a6b1"/><circle data-name="Elipse 2611" cx="2.762" cy="2.762" r="2.762" transform="translate(20.759 15.234)" stroke="#95a6b1"/><path data-name="Línea 3779" stroke="#95a6b1" d="M39.286 18.097v-5.41"/><path data-name="Línea 3780" stroke="#95a6b1" d="M37.994 13.546h2.686"/><path data-name="Línea 2122" stroke="#95a6b1" d="M45.466 42.293H1.535m41.782-11.009H3.725"/><path data-name="Línea 3781" stroke="#95a6b1" d="M18.743 37.679H3.725"/><path data-name="Línea 3782" stroke="#95a6b1" d="M43.317 37.679H28.62"/><path data-name="Trazado 17830" d="M36.811 18.026h1.661a4.846 4.846 0 014.845 4.846v19.417H3.725V22.872a4.841 4.841 0 014.846-4.846h1.66" stroke="#95a6b1"/><path data-name="Trazado 17831" d="M24.093 34.541L22.948 36.9h1.789l-1.359 3" stroke="#95a6b1"/><path data-name="Línea 3783" stroke="#95a6b1" d="M18.743 31.284v11.009"/><path data-name="Línea 3784" stroke="#95a6b1" d="M28.62 31.284v11.009"/><g data-name="Grupo 16158" stroke="#95a6b1"><path data-name="Línea 3785" d="M8.731 37.679v4.61"/><path data-name="Línea 3786" d="M13.737 37.679v4.61"/></g><g data-name="Grupo 16159" stroke="#95a6b1"><path data-name="Línea 3787" d="M33.466 37.679v4.61"/><path data-name="Línea 3788" d="M38.472 37.679v4.61"/></g></g></g></g></svg>