<svg version="1.1" id="Layer_1" xmlns="http://www.w3.org/2000/svg" xmlns:xlink="http://www.w3.org/1999/xlink" x="0" y="0" width="47" height="47" xml:space="preserve"><style>.st1{fill:#fff}</style><g id="Group_9811" transform="translate(-2946.898 -152.215)"><g id="Group_415"><defs><path id="SVGID_1_" d="M2946.9 152.2h47v47h-47z"/></defs><clipPath id="SVGID_2_"><use xlink:href="#SVGID_1_" overflow="visible"/></clipPath><g id="Group_414" clip-path="url(#SVGID_2_)"><path class="st1" d="M2976.8 191.3H2955c-.4 0-.8-.4-.8-.8s.4-.8.8-.8h21.8c.4 0 .8.4.8.8s-.3.8-.8.8z" id="Line_312"/><path class="st1" d="M2955 191.3c-.5 0-.8-.4-.8-.9l.3-4c0-.4.4-.7.8-.7s.8.4.7.8l-.3 4c.1.5-.2.8-.7.8z" id="Line_313"/><g id="Group_413"><defs><path id="SVGID_3_" d="M2946.9 152.2h47v47h-47z"/></defs><clipPath id="SVGID_4_"><use xlink:href="#SVGID_3_" overflow="visible"/></clipPath><g id="Group_412" clip-path="url(#SVGID_4_)"><path class="st1" d="M2976.8 191.3c-.4 0-.7-.3-.8-.7l-.4-4.8c0-.5-.1-1.1-.1-1.6-.1-1.8-.1-3.5-1.2-4.8-.9-1-2.2-1.7-3.5-2-1.5-.2-3.1-.3-4.6-.3-1.6-.1-3.1 0-4.6.4-.4.1-.8-.1-1-.6-.1-.4.1-.8.6-1 1.6-.4 3.3-.6 5-.4 1.5 0 3.2.1 4.8.3 1.7.3 3.3 1.2 4.5 2.5 1.4 1.7 1.5 3.8 1.5 5.7 0 .5 0 1 .1 1.5l.4 4.8c.1.6-.2.9-.7 1 .1 0 0 0 0 0z" id="Path_211"/><path class="st1" d="M2965.9 173.5c-2.8 0-5-2.2-5-4.9 0-.4.3-.8.8-.8.4-.1.8.3.8.8 0 1.9 1.5 3.4 3.4 3.4 1 0 1.8-.3 2.4-1 .7-.6 1-1.5 1-2.4 0-.4.4-.8.8-.8s.8.4.8.8c0 1.3-.6 2.6-1.5 3.5-.9.9-2.2 1.4-3.5 1.4z" id="Path_212"/><path class="st1" d="M2970.2 169.4c-.4 0-.8-.4-.8-.8v-2.9c0-1.9-1.5-3.4-3.4-3.4s-3.4 1.5-3.4 3.4v2.9c0 .4-.4.8-.8.8s-.8-.4-.8-.8v-2.9c0-2.8 2.2-5 5-5s5 2.2 5 5v2.9c-.1.4-.4.8-.8.8z" id="Path_213"/><path class="st1" d="M2955.6 184.1c-2.2 0-4-1.8-4-4 0-1.1.4-2.1 1.2-2.8.8-.8 1.8-1.2 2.8-1.2 2.2 0 4 1.8 4 4s-1.8 4-4 4zm0-6.4c-.6 0-1.3.2-1.7.7-.5.5-.7 1.1-.7 1.7 0 1.3 1.1 2.4 2.4 2.4 1.3 0 2.4-1.1 2.4-2.4 0-1.3-1.1-2.4-2.4-2.4z" id="Path_214"/><path class="st1" d="M2990.8 171h-16c-.4 0-.8-.4-.8-.8v-10.9c0-.4.4-.8.8-.8h16c.4 0 .8.4.8.8v10.9c-.1.4-.4.8-.8.8zm-15.2-1.6h14.4v-9.3h-14.4v9.3z" id="Rectangle_213"/><path class="st1" d="M2987 164.3h-8.7c-.4 0-.8-.4-.8-.8s.4-.8.8-.8h8.7c.4 0 .8.4.8.8s-.3.8-.8.8z" id="Line_314"/><path class="st1" d="M2987 167.4h-8.7c-.4 0-.8-.4-.8-.8s.4-.8.8-.8h8.7c.4 0 .8.4.8.8s-.3.8-.8.8z" id="Line_315"/></g></g></g></g></g></svg>