<svg xmlns="http://www.w3.org/2000/svg" viewBox="0 0 47 47"><style>.st2,.st29{fill:none}.st29{stroke:#95a6b1;stroke-width:1.5;stroke-linecap:round;stroke-linejoin:round;stroke-miterlimit:10}</style><g id="Capa_1"><path class="st2" d="M0-6.5h60v60H0z"/><path class="st2" d="M0-6.5h60v60H0z"/><path class="st29" d="M7.86 12.17V9.43c0-1.08.86-1.94 1.93-1.94h4.56c1.07 0 1.93.87 1.93 1.94v11.32m0 11.55v10.12H7.86V24.38m16.33 18.04V30.88m0-8.72v-6.09a3.03 3.03 0 00-2.92-3.14h-4.99"/><path id="Línea_2122_2_" class="st29" d="M44.24 42.42H5.11"/><circle class="st29" cx="19.33" cy="26.52" r="6.54"/><circle class="st29" cx="19.33" cy="26.52" r="3.53"/><circle class="st29" cx="34.55" cy="26.52" r="3.05"/><path class="st29" d="M20.92 20.18l14 3.31m-.37 6.08l-13.7 3.31m11.12-16.55h6.39c1.91 0 3.45 1.54 3.45 3.45v22.64H28.52V19.78a3.45 3.45 0 013.45-3.45z"/><path class="st29" d="M35.78 33.06l-1.23 2.54h1.93l-1.47 3.23m-3.04-22.5v-3.58m6.39 3.58v-3.58m-7.78.92h9.16M10 7.31v-3.3m4.58 3.3v-3.3m-5.67.93h7.05"/><path id="Rectángulo_5125_2_" class="st2" d="M0 0h47v47H0z"/><path id="Trazado_11848_2_" d="M11.83 18.26c0 2.15-1.75 3.9-3.9 3.9s-3.9-1.75-3.9-3.9 1.75-3.9 3.9-3.9h0a3.886 3.886 0 013.9 3.87v.03z" fill="none" stroke="#19a500" stroke-width="1.5" stroke-linecap="round" stroke-linejoin="round" stroke-miterlimit="10"/></g></svg>