<svg version="1.1" id="Layer_1" xmlns="http://www.w3.org/2000/svg" xmlns:xlink="http://www.w3.org/1999/xlink" x="0" y="0" width="47" height="47" xml:space="preserve"><style>.st0{clip-path:url(#SVGID_2_)}.st1{fill:#fff}</style><defs><path id="SVGID_1_" d="M0 0h47v47H0z"/></defs><clipPath id="SVGID_2_"><use xlink:href="#SVGID_1_" overflow="visible"/></clipPath><g id="Line_310_1_" class="st0"><path class="st1" d="M29.9 39.1H8.1c-.4 0-.8-.4-.8-.8s.4-.8.8-.8h21.8c.4 0 .8.4.8.8s-.3.8-.8.8z"/></g><g id="Line_311_1_" class="st0"><path class="st1" d="M8.2 39.1c-.1 0-.1 0 0 0-.5 0-.8-.4-.8-.9l.3-4c0-.4.4-.7.8-.7s.8.4.7.8l-.3 4c0 .5-.3.8-.7.8z"/></g><g class="st0"><defs><path id="SVGID_3_" d="M0 0h47v47H0z"/></defs><clipPath id="SVGID_4_"><use xlink:href="#SVGID_3_" overflow="visible"/></clipPath><g id="Group_407_1_" clip-path="url(#SVGID_4_)"><path class="st1" d="M29.9 39.1c-.4 0-.7-.3-.8-.7l-.4-4.8c0-.5-.1-1.1-.1-1.6-.1-1.8-.1-3.5-1.2-4.8-.9-1-2.2-1.7-3.5-2-1.5-.2-3.1-.3-4.6-.3-1.6-.1-3.1 0-4.6.4-.4.1-.8-.1-1-.6-.1-.4.1-.8.6-1 1.6-.4 3.3-.6 5-.4 1.6 0 3.2.1 4.8.3 1.7.3 3.3 1.2 4.5 2.5 1.4 1.7 1.5 3.8 1.5 5.7 0 .5 0 1 .1 1.5l.4 4.8c.1.6-.2.9-.7 1 .1 0 0 0 0 0z" id="Path_205_1_"/><path class="st1" d="M19 21.3c-2.8 0-5-2.2-5-4.9 0-.4.3-.8.8-.8.4 0 .8.3.8.8 0 1.9 1.5 3.4 3.4 3.4 1 0 1.8-.3 2.4-1 .7-.6 1-1.5 1-2.4 0-.4.4-.8.8-.8s.8.4.8.8c0 1.3-.6 2.6-1.5 3.5-.9.9-2.2 1.4-3.5 1.4z" id="Path_206_1_"/><path class="st1" d="M23.3 17.2c-.4 0-.8-.4-.8-.8v-2.9c0-1.9-1.5-3.4-3.4-3.4s-3.4 1.5-3.4 3.4v2.9c0 .4-.4.8-.8.8s-.9-.4-.9-.8v-2.9c0-2.8 2.2-5 5-5s5 2.2 5 5v2.9c0 .4-.3.8-.7.8z" id="Path_207_1_"/><path class="st1" d="M8.7 31.9c-2.2 0-4-1.8-4-4 0-1.1.4-2.1 1.2-2.8.8-.8 1.8-1.2 2.8-1.2 2.2 0 4 1.8 4 4s-1.8 4-4 4zm0-6.4c-.6 0-1.3.2-1.7.7-.5.5-.7 1.1-.7 1.7 0 1.3 1.1 2.4 2.4 2.4 1.3 0 2.4-1.1 2.4-2.4 0-1.3-1.1-2.4-2.4-2.4zm3.2 2.4z" id="Path_208_1_"/></g></g><path class="st1" d="M37.8 20.2c-.2 0-.4-.1-.5-.2L27 10.9c-.2-.2-.3-.4-.3-.6 0-.2.1-.4.3-.6l6.8-5.4c.2-.1.4-.2.6-.2l8.2 1.2c.2 0 .4.2.6.4.1.2.1.4.1.7l-4.6 13.3c-.1.2-.3.4-.5.5h-.4zm-9.1-9.9l8.7 7.8 3.9-11.3-6.9-1-5.7 4.5z"/></svg>