<svg version="1.1" id="Capa_1" xmlns="http://www.w3.org/2000/svg" xmlns:xlink="http://www.w3.org/1999/xlink" x="0" y="0" viewBox="0 0 65 65" xml:space="preserve"><style>.st1{stroke:#95a6b1;stroke-width:1.6;stroke-linecap:round;stroke-linejoin:round;stroke-miterlimit:10}.st1,.st3{fill:none}.st5{fill:#19a301}</style><g id="Capa_1_1_"><path class="st1" d="M19.73 23.38l-7.18 12.44c-1.02 1.77.26 3.99 2.3 3.99h14.36c2.05 0 3.33-2.22 2.3-3.99l-7.18-12.44c-1.02-1.78-3.58-1.78-4.6 0zm2.3 3.57v6.68m0 2.87"/><path class="st1" d="M29.62 32.52h24.5v12.01H7.86V32.52h6.34m-10.41-.84h4.07v13.68H3.79zm50.34 0h4.07v13.68h-4.07z"/><path d="M37.83 20.46c.34.74.36 1.55.12 2.27-.26.79-.84 1.48-1.66 1.85-1.56.71-3.41.03-4.12-1.54a3.106 3.106 0 011.54-4.12c1.56-.71 3.41-.03 4.12 1.54z" fill="none" stroke="#00a800" stroke-width="1.6" stroke-linecap="round" stroke-linejoin="round" stroke-miterlimit="10"/><path class="st1" d="M36.24 26.98v5.54h12.09V22.04H40.7m-.04 3.24h7.67"/><path class="st3" d="M0 0h65v65H0z"/><circle id="Elipse_2295_1_" class="st1" cx="42.82" cy="11.46" r="6.21"/><path id="Línea_2439_1_" class="st1" d="M44.84 11.14h-1.98"/><path id="Línea_2440_1_" class="st1" d="M42.86 10.04v2.2"/><path class="st1" d="M42.82 17.67v4.37m-5.65 16.51h12.24m-2.98-3.11l3.12 3.11-3.12 3.12"/><defs><path id="SVGID_1_" d="M0 48.26h65V65H0z"/></defs><clipPath id="SVGID_2_"><use xlink:href="#SVGID_1_" overflow="visible"/></clipPath><g clip-path="url(#SVGID_2_)"><path class="st3" d="M0 48.26h65V65H0z"/><path class="st5" d="M45.38 61.32h-7.17c-.66 0-1.2-.54-1.2-1.2s.54-1.2 1.2-1.2h7.17c.66 0 1.2.54 1.2 1.2s-.54 1.2-1.2 1.2zm7.73 0h-.58c-.66 0-1.2-.54-1.2-1.2s.54-1.2 1.2-1.2h.58c.66 0 1.2.54 1.2 1.2s-.54 1.2-1.2 1.2zm-34.12 0h-7.1c-.66 0-1.2-.54-1.2-1.2s.54-1.2 1.2-1.2h7.1c.66 0 1.2.54 1.2 1.2s-.54 1.2-1.2 1.2z"/><path d="M31.05 61.32H18.53c-.66 0-1.2-.54-1.2-1.2s.54-1.2 1.2-1.2h12.52c.66 0 1.2.54 1.2 1.2s-.54 1.2-1.2 1.2zm4.42-6.11H11.89c-.66 0-1.2-.54-1.2-1.2s.54-1.2 1.2-1.2h23.58c.66 0 1.2.54 1.2 1.2s-.54 1.2-1.2 1.2z" fill="#82d400"/><path class="st5" d="M53.11 55.21H34.75c-.66 0-1.2-.54-1.2-1.2s.54-1.2 1.2-1.2h18.36c.66 0 1.2.54 1.2 1.2s-.54 1.2-1.2 1.2zm-40.79 0h-.43c-.66 0-1.2-.54-1.2-1.2s.54-1.2 1.2-1.2h.43c.66 0 1.2.54 1.2 1.2s-.54 1.2-1.2 1.2z"/></g></g></svg>