<svg version="1.1" id="Layer_1" xmlns="http://www.w3.org/2000/svg" xmlns:xlink="http://www.w3.org/1999/xlink" x="0" y="0" width="47" height="47" xml:space="preserve"><style>.st1{fill:#fff}</style><g id="Group_9813" transform="translate(-3298.899 -152.773)"><g id="Group_410"><defs><path id="SVGID_1_" d="M3298.9 152.8h47v47h-47z"/></defs><clipPath id="SVGID_2_"><use xlink:href="#SVGID_1_" overflow="visible"/></clipPath><g id="Group_409" clip-path="url(#SVGID_2_)"><path class="st1" d="M3328.8 191.8H3307c-.4 0-.8-.4-.8-.8s.4-.8.8-.8h21.8c.4 0 .8.4.8.8s-.3.8-.8.8z" id="Line_310"/><path class="st1" d="M3307 191.8c-.5 0-.8-.4-.8-.9l.3-4c0-.4.4-.7.8-.7s.8.4.7.8l-.3 4c.1.5-.2.8-.7.8z" id="Line_311"/><g id="Group_408"><defs><path id="SVGID_3_" d="M3298.9 152.8h47v47h-47z"/></defs><clipPath id="SVGID_4_"><use xlink:href="#SVGID_3_" overflow="visible"/></clipPath><g id="Group_407" clip-path="url(#SVGID_4_)"><path class="st1" d="M3328.8 191.8c-.4 0-.7-.3-.8-.7l-.4-4.8c0-.5-.1-1.1-.1-1.6-.1-1.8-.1-3.5-1.2-4.8-.9-1-2.2-1.7-3.5-2-1.5-.2-3.1-.3-4.6-.3-1.6-.1-3.1 0-4.6.4-.4.1-.8-.1-1-.6-.1-.4.1-.8.6-1 1.6-.4 3.3-.6 5-.4 1.6 0 3.2.1 4.8.3 1.7.3 3.3 1.2 4.5 2.5 1.4 1.7 1.5 3.8 1.5 5.7 0 .5 0 1 .1 1.5l.4 4.8c.1.6-.2 1-.7 1 .1 0 0 0 0 0z" id="Path_205"/><path class="st1" d="M3317.9 174.1c-2.8 0-5-2.2-5-4.9 0-.4.3-.8.8-.8.4 0 .8.3.8.8 0 1.9 1.5 3.4 3.4 3.4 1 0 1.8-.3 2.4-1 .7-.6 1-1.5 1-2.4 0-.4.4-.8.8-.8s.8.4.8.8c0 1.3-.6 2.6-1.5 3.5-.9.9-2.2 1.4-3.5 1.4z" id="Path_206"/><path class="st1" d="M3322.2 169.9c-.4 0-.8-.4-.8-.8v-2.9c0-1.9-1.5-3.4-3.4-3.4s-3.4 1.5-3.4 3.4v2.9c0 .4-.4.8-.8.8s-.8-.4-.8-.8v-2.9c0-2.8 2.2-5 5-5s5 2.2 5 5v2.9c-.1.5-.4.8-.8.8z" id="Path_207"/><path class="st1" d="M3307.6 184.7c-2.2 0-4-1.8-4-4 0-1.1.4-2.1 1.2-2.8.8-.8 1.8-1.2 2.8-1.2 2.2 0 4 1.8 4 4s-1.8 4-4 4zm0-6.5c-.6 0-1.3.2-1.7.7-.5.5-.7 1.1-.7 1.7 0 1.3 1.1 2.4 2.4 2.4 1.3 0 2.4-1.1 2.4-2.4 0-1.3-1.1-2.4-2.4-2.4z" id="Path_208"/><path class="st1" d="M3334.8 172.3c-3.9 0-7-3.2-7-7 0-3.9 3.2-7 7-7 1.9 0 3.6.7 5 2.1 1.3 1.3 2.1 3.1 2.1 5-.1 3.8-3.2 6.9-7.1 6.9zm0-12.5c-3 0-5.5 2.4-5.5 5.5 0 3 2.4 5.5 5.5 5.5s5.5-2.4 5.5-5.5c0-1.5-.6-2.8-1.6-3.9-1.1-1-2.5-1.6-3.9-1.6z" id="Path_209"/><path class="st1" d="M3334.5 167.7c-.2 0-.5-.1-.6-.3l-2.1-2.5c-.3-.3-.2-.8.1-1.1.3-.3.8-.2 1.1.1l1.4 1.7 5.5-8.3c.2-.4.7-.5 1.1-.2.4.2.5.7.2 1.1l-6.1 9.2c-.1.1-.3.3-.6.3z" id="Path_210"/></g></g></g></g></g></svg>