<svg xmlns="http://www.w3.org/2000/svg" viewBox="0 0 47 47"><style>.st36{fill:none;stroke:#fff;stroke-width:1.5;stroke-linecap:round;stroke-linejoin:round}</style><g id="Capa_1"><path fill="none" d="M0 0h47v47H0z"/><g id="Grupo_12884" transform="translate(-686.543 -905.232)"><g id="Grupo_12816"><path id="Line_1370" class="st36" d="M699.55 945.73h22.98"/><g id="Grupo_12814"><g id="Group_2600"><path id="Path_1227" class="st36" d="M706.6 922.61a4.456 4.456 0 004.89 4.43 4.594 4.594 0 004.02-4.62v-5.29c0-2.11-1.71-3.81-3.81-3.81h-1.28c-2.1 0-3.81 1.71-3.81 3.81l-.01 5.48z"/></g></g><g id="Grupo_12815"><g id="Group_2600-2"><path id="Path_1226" class="st36" d="M702.3 932.67a7.23 7.23 0 013.44-1.6c1.67-.25 3.35-.36 5.03-.34h.55c1.68-.02 3.37.1 5.03.34 1.64.29 3.13 1.13 4.23 2.38 1.65 2.06 1.3 4.73 1.51 7.19l.44 5.09"/><path id="Path_1226-2" class="st36" d="M699.55 945.73l.29-3.41"/></g></g></g><path id="Línea_2157" class="st36" d="M704.31 918.84h13.46"/><path id="Línea_2158" class="st36" d="M711.04 914.93v-3.2"/><circle id="Elipse_2123" class="st36" cx="700.31" cy="937.45" r="2.76"/></g></g></svg>