<svg version="1.1" id="Capa_1" xmlns="http://www.w3.org/2000/svg" xmlns:xlink="http://www.w3.org/1999/xlink" x="0" y="0" viewBox="0 0 65 65" xml:space="preserve"><style>.st1{fill:none}.st3{fill:#19a301}.st6{fill:none;stroke:#95a6b1;stroke-width:1.6;stroke-linecap:round;stroke-linejoin:round;stroke-miterlimit:10}</style><g id="Capa_1_1_"><path class="st1" d="M0 0h65v65H0z"/><defs><path id="SVGID_1_" d="M0 48.26h65V65H0z"/></defs><clipPath id="SVGID_2_"><use xlink:href="#SVGID_1_" overflow="visible"/></clipPath><g clip-path="url(#SVGID_2_)"><path class="st1" d="M0 48.26h65V65H0z"/><path class="st3" d="M45.38 61.32h-7.17c-.66 0-1.2-.54-1.2-1.2s.54-1.2 1.2-1.2h7.17c.66 0 1.2.54 1.2 1.2s-.54 1.2-1.2 1.2zm7.73 0h-.58c-.66 0-1.2-.54-1.2-1.2s.54-1.2 1.2-1.2h.58c.66 0 1.2.54 1.2 1.2s-.54 1.2-1.2 1.2zm-34.12 0h-7.1c-.66 0-1.2-.54-1.2-1.2s.54-1.2 1.2-1.2h7.1c.66 0 1.2.54 1.2 1.2s-.54 1.2-1.2 1.2z"/><path d="M31.05 61.32H18.53c-.66 0-1.2-.54-1.2-1.2s.54-1.2 1.2-1.2h12.52c.66 0 1.2.54 1.2 1.2s-.54 1.2-1.2 1.2zm4.42-6.11H11.89c-.66 0-1.2-.54-1.2-1.2s.54-1.2 1.2-1.2h23.58c.66 0 1.2.54 1.2 1.2s-.54 1.2-1.2 1.2z" fill="#82d400"/><path class="st3" d="M53.11 55.21H34.75c-.66 0-1.2-.54-1.2-1.2s.54-1.2 1.2-1.2h18.36c.66 0 1.2.54 1.2 1.2s-.54 1.2-1.2 1.2zm-40.79 0h-.43c-.66 0-1.2-.54-1.2-1.2s.54-1.2 1.2-1.2h.43c.66 0 1.2.54 1.2 1.2s-.54 1.2-1.2 1.2z"/></g><path d="M17.66 29c.34.74.36 1.55.12 2.27-.26.79-.84 1.48-1.66 1.85-1.56.71-3.41.03-4.12-1.54s-.03-3.41 1.54-4.12A3.11 3.11 0 0117.66 29z" fill="none" stroke="#00a800" stroke-width="1.6" stroke-linecap="round" stroke-linejoin="round" stroke-miterlimit="10"/><path class="st6" d="M51.61 43.21h-2.88V29.03h2.88v14.18zm-38.22-7.09v7.09h2.88v-7.09M9.2 31.35H6.3v9.53h7.09v-4.76"/><path class="st6" d="M16.27 36.12v4.76h7.66c1.68 3.01 4.88 5.04 8.57 5.04s6.89-2.04 8.57-5.04h7.66v-9.53h-7.69c-1.02-1.82-2.58-3.29-4.48-4.15h-8.11c-1.91.87-3.46 2.34-4.48 4.15H20.5m31.11 0h7.09v9.53h-7.09z"/><path class="st6" d="M32.46 30.55c3.08 0 5.57 2.49 5.57 5.57s-2.49 5.57-5.57 5.57-5.57-2.49-5.57-5.57"/><path id="Rectángulo_5166" class="st6" d="M28.13 20.6h8.54v6.59h-8.54z"/><path id="Rectángulo_5167" class="st6" d="M30.29 17.83h4.21v2.78h-4.21z"/><path id="Rectángulo_5168" class="st6" d="M26.87 13.02h11.05c.52 0 .94.42.94.94v.22c0 .52-.42.94-.94.94H26.87c-.52 0-.94-.42-.94-.94v-.22c0-.52.42-.94.94-.94z"/><path id="Línea_2909" class="st6" d="M30.29 17.83l-3.42-2.71"/><path id="Línea_2910" class="st6" d="M34.5 17.83l3.42-2.71"/></g></svg>