<svg xmlns="http://www.w3.org/2000/svg" width="93" height="93"><g data-name="Grupo 13575"><path data-name="Trazado 10352" d="M46.5 0A46.5 46.5 0 110 46.5 46.5 46.5 0 0146.5 0z" fill="#fff"/><g data-name="Grupo 11233"><g data-name="Grupo 11167" transform="translate(17 17)"><g data-name="Grupo 11165" fill="none" stroke="#95a6b1" stroke-linecap="round" stroke-linejoin="round" stroke-width="1.2"><circle data-name="Elipse 1783" cx="7.432" cy="7.432" r="7.432" transform="translate(10.701 35.952)"/><path data-name="Trazado 10307" d="M14.922 32.6l-.322-2.992h6.914l-.163 3.049 2.069.762 2.117-2.119 4.736 4.627-2.073 2.064.762 2.123 2.94-.054v6.7l-2.94-.163-.98 2.178 2.123 1.96-4.627 4.736-1.8-2.069-2.286.871.163 2.776H14.65l.327-2.776-2.014-1.034-2.178 2.123-4.72-4.585 2.053-2.057-.762-2.123-2.994.054v-6.646l2.885.054.98-2.123-2.179-2.014 4.736-4.736 1.905 2.069z"/></g><g data-name="Grupo 11166" fill="none" stroke="#95a6b1" stroke-linecap="round" stroke-linejoin="round" stroke-width="1.2"><circle data-name="Elipse 1784" cx="4.5" cy="4.5" r="4.5" transform="translate(40.706 2.956)"/><path data-name="Rectángulo 4062" d="M39.848 15.519h10.714a5.077 5.077 0 015.077 5.077v5.111h0-20.868 0v-5.111a5.077 5.077 0 015.077-5.077z"/></g><path data-name="Trazado 10308" d="M45.48 28.058V43.7H32.724" fill="none" stroke="#95a6b1" stroke-linecap="round" stroke-linejoin="round" stroke-width="1.2"/><path data-name="Línea 1723" fill="none" stroke="#95a6b1" stroke-linecap="round" stroke-linejoin="round" stroke-width="1.2" d="M25.266 15.666h8.823"/><path data-name="Línea 1724" fill="none" stroke="#95a6b1" stroke-linecap="round" stroke-linejoin="round" stroke-width="1.2" d="M18.162 29.051v-6.01"/><circle data-name="Elipse 1785" cx="3.582" cy="3.582" r="3.582" transform="translate(41.72 40.083)" fill="#fcfcfc" stroke="#95a6b1" stroke-linecap="round" stroke-linejoin="round" stroke-width=".993"/><path data-name="Línea 1725" fill="none" stroke="#95a6b1" stroke-linecap="round" stroke-linejoin="round" stroke-width="1.2" d="M27.893 33.7l7.654-7.708"/><circle data-name="Elipse 1786" cx="4.869" cy="4.869" r="4.869" transform="translate(13.342 10.666)" fill="none" stroke="#19a500" stroke-miterlimit="10" stroke-width="1.2"/></g><g data-name="Grupo 11168"><path data-name="Rectángulo 3799" fill="none" d="M17 17h60v60H17z"/></g></g></g></svg>