<svg xmlns="http://www.w3.org/2000/svg" viewBox="0 0 60 60"><style>.st3{fill:none;stroke:#fff;stroke-width:1.2;stroke-linecap:round;stroke-linejoin:round;stroke-miterlimit:10}</style><g id="Capa_2"><path id="Rectángulo_3799_64_" d="M30 0c16.57 0 30 13.43 30 30S46.57 60 30 60 0 46.57 0 30 13.43 0 30 0z" fill="#19a500"/><path id="Rectángulo_3799_2_" fill="none" d="M0 0h60v60H0z"/><circle cx="46.07" cy="35.04" r="3.86" fill="none" stroke="#efef00" stroke-width="1.2" stroke-miterlimit="10"/><path class="st3" d="M37.83 23.49c-.82 1.65-1.8 3.23-2.75 4.81-1.7 2.81-3.4 5.52-5.37 8.23-1.84-2.8-3.61-5.67-5.33-8.52-1.54-2.54-2.92-5.14-3.68-8.02-.76-2.88-.57-6.42 1.26-8.94 1.89-2.62 5.36-3.86 8.64-3.86 3.39 0 6.76 2 8.23 5.06 1.24 2.59 1.07 5.67.17 8.4-.31.98-.72 1.92-1.17 2.84z"/><circle class="st3" cx="30.05" cy="16.25" r="4.09"/><path class="st3" d="M31.62 44.8h18.73l-1.8-4.32m-35.08-4.87L9.65 44.8h18.32m-4.52-18.37h-6.16l-2.57 6.18m29.38-2.84l-1.39-3.34h-6.17"/><path d="M24.61 41.74l3.48 3.02-3.48 3.29M9.65 37.15l4.1-2.11 1.76 4.45" stroke-width="1.052" fill="none" stroke="#fff" stroke-linecap="round" stroke-linejoin="round" stroke-miterlimit="10"/></g></svg>