<svg xmlns="http://www.w3.org/2000/svg" viewBox="0 0 60 60"><style>.st3{fill:#fff}</style><g id="Capa_2"><path d="M30 0c16.57 0 30 13.43 30 30S46.57 60 30 60 0 46.57 0 30 13.43 0 30 0z" fill="#19a500" id="Rectángulo_3799_18_"/></g><g id="Capa_1"><path fill="none" d="M0 0h60v60H0z" id="Rectángulo_3799_1_"/><path class="st3" d="M11.45 46.07c-.33 0-.6-.27-.6-.6V20.2c0-.33.27-.6.6-.6h36.32c.33 0 .6.27.6.6v6.94c0 .33-.27.6-.6.6s-.6-.27-.6-.6V20.8H12.05v24.67c0 .33-.27.6-.6.6zm36.32 0c-.33 0-.6-.27-.6-.6v-6.99c0-.33.27-.6.6-.6s.6.27.6.6v6.99c0 .33-.27.6-.6.6z"/><path class="st3" d="M38.74 20.8c-.09 0-.19-.02-.28-.07l-8.85-4.66-8.5 4.57c-.29.16-.66.05-.81-.24a.593.593 0 01.24-.81l8.78-4.72c.17-.1.38-.1.56 0l9.13 4.8c.29.15.41.52.25.81-.09.2-.3.32-.52.32zm-2.17 9.79H22.4c-.33 0-.6-.27-.6-.6v-4.47c0-.33.27-.6.6-.6h14.17c.33 0 .6.27.6.6v4.47c0 .33-.27.6-.6.6zM23 29.39h12.97v-3.27H23v3.27zm11.16 16.78c-.33 0-.6-.27-.6-.6v-9.32h-7.72v9.32c0 .33-.27.6-.6.6s-.6-.27-.6-.6v-9.92c0-.33.27-.6.6-.6h8.92c.33 0 .6.27.6.6v9.92c0 .33-.26.6-.6.6zm-18.42-.37c-.33 0-.6-.27-.6-.6V20.38c0-.33.27-.6.6-.6s.6.27.6.6V45.2c0 .33-.27.6-.6.6zm25.49 0c-.33 0-.6-.27-.6-.6V20.38c0-.33.27-.6.6-.6s.6.27.6.6V45.2c0 .33-.26.6-.6.6z"/><path class="st3" d="M51.23 46.51H8.05c-.33 0-.6-.27-.6-.6s.27-.6.6-.6h43.18c.33 0 .6.27.6.6s-.27.6-.6.6zM29.6 15.75c-.33 0-.6-.27-.6-.6V6.52c0-.33.27-.6.6-.6s.6.27.6.6v8.63c0 .33-.26.6-.6.6z"/><path class="st3" d="M33.44 13.73h-3.66c-.33 0-.6-.27-.6-.6s.27-.6.6-.6h3.06V9.14h-3.18c-.33 0-.6-.27-.6-.6s.27-.6.6-.6h3.78c.33 0 .6.27.6.6v4.59c0 .34-.27.6-.6.6z"/><path class="st3" d="M33.44 15.07a.59.59 0 01-.42-.17.622.622 0 01-.18-.43v-1.9c0-.33.27-.6.6-.6s.6.27.6.6v1.29l1.96-.03-.78-1.32a.6.6 0 01.01-.62l.73-1.18H33.5c-.33 0-.6-.27-.6-.6s.27-.6.6-.6h3.54c.22 0 .42.12.52.31.11.19.1.42-.01.61l-1.11 1.79 1.12 1.9c.11.18.11.41.01.6-.11.19-.3.3-.51.31l-3.62.04c.01 0 .01 0 0 0z"/><path d="M47.62 37.27c-.61 0-1.23-.13-1.82-.39-1.09-.49-1.92-1.37-2.34-2.48s-.39-2.32.1-3.41a4.47 4.47 0 015.89-2.24c1.09.49 1.92 1.37 2.34 2.48.42 1.11.39 2.32-.1 3.41a4.451 4.451 0 01-4.07 2.63zm.02-7.72c-1.24 0-2.43.72-2.98 1.92-.36.79-.38 1.68-.07 2.49.31.81.92 1.46 1.71 1.81 1.64.74 3.57 0 4.31-1.64.36-.79.38-1.68.07-2.49-.31-.81-.92-1.46-1.71-1.81-.44-.18-.89-.28-1.33-.28z" fill="#efef00"/></g></svg>