<svg xmlns="http://www.w3.org/2000/svg" width="65" height="65"><g data-name="Grupo 19567"><g data-name="Grupo 19565"><g data-name="Grupo 14998"><path data-name="Rectángulo 3799-2" fill="none" d="M0 0h65v65H0z"/></g><g data-name="Grupo 19564" fill="none"><path data-name="Rectángulo 5659" d="M0 48.136h65v16.741H0z"/><g data-name="Grupo 19563" stroke-linecap="round" stroke-linejoin="round" stroke-width="2.4"><path data-name="Línea 4284" stroke="#4da12e" d="M38.214 59.996h7.167"/><path data-name="Línea 4285" stroke="#4da12e" d="M52.528 59.996h.581"/><path data-name="Línea 4286" stroke="#4da12e" d="M11.891 59.996h7.101"/><path data-name="Línea 4287" stroke="#96d200" d="M18.53 59.996h12.517"/><path data-name="Línea 4288" stroke="#96d200" d="M11.891 53.889h23.582"/><path data-name="Línea 4289" stroke="#4da12e" d="M34.746 53.889h18.363"/><path data-name="Línea 4290" stroke="#4da12e" d="M11.891 53.889h.429"/></g></g></g><g data-name="Grupo 19566" fill="none" stroke-linecap="round" stroke-linejoin="round" stroke-width="1.6"><path data-name="Trazado 5703" d="M24.648 9.78a4.586 4.586 0 110-.064z" stroke="#19a500"/><path data-name="Trazado 19451" d="M17.848 18.012v22.506a7.047 7.047 0 007.046 7.046h11.194l13.509-.029V6.86h-21.78" stroke="#95a6b1"/><path data-name="Línea 4291" stroke="#95a6b1" d="M23.872 33.122h19.643"/><path data-name="Línea 4292" stroke="#95a6b1" d="M23.872 37.379h19.643"/><path data-name="Línea 4293" stroke="#95a6b1" d="M23.671 41.636h12.31"/><path data-name="Trazado 19453" d="M35.772 14.718v-2.094a.259.259 0 00-.246-.27h-2.62a.259.259 0 00-.246.27v2.094" stroke="#95a6b1"/><path data-name="Trazado 19454" d="M29.864 14.718v12.487h8.7V14.718" stroke="#95a6b1"/><path data-name="Línea 4294" stroke="#95a6b1" d="M28.94 18.42h10.552"/><path data-name="Línea 4295" stroke="#95a6b1" d="M28.94 23.255h10.552"/><path data-name="Línea 4296" stroke="#95a6b1" d="M28.94 27.206h10.552"/><path data-name="Línea 4297" stroke="#95a6b1" d="M28.94 14.718h10.552"/></g></g></svg>