<svg xmlns="http://www.w3.org/2000/svg" width="47.173" height="137.862"><g data-name="Grupo 20498"><g data-name="Grupo 13818"><path data-name="Línea 2119" fill="none" stroke="#505d6c" opacity=".29" d="M14.673 58.273v77.089"/><g data-name="Trazado 11273" fill="#fff"><path d="M14.673 136.862c-1.93 0-3.5-1.57-3.5-3.5s1.57-3.5 3.5-3.5 3.5 1.57 3.5 3.5c0 .738-.236 1.412-.764 2.186l-.005.008-.005.008c-.41.625-1.438 1.298-2.726 1.298z"/><path d="M14.673 130.862a2.503 2.503 0 00-2.5 2.5c0 1.378 1.122 2.5 2.5 2.5.972 0 1.675-.52 1.89-.847l.02-.03c.52-.762.59-1.248.59-1.623 0-1.378-1.122-2.5-2.5-2.5m0-2a4.5 4.5 0 014.5 4.5c0 .925-.279 1.784-.938 2.75-.626.955-2.001 1.75-3.562 1.75a4.5 4.5 0 010-9z" fill="#00af00"/></g></g><g data-name="Grupo 19860" fill="none"><g data-name="Grupo 19862"><path data-name="Rectángulo 3799-2" d="M-.001 0h47.173v47.173H-.001z"/><g data-name="Grupo 19861" stroke="#95a6b1" stroke-linecap="round" stroke-linejoin="round" stroke-width="1.5"><g data-name="Grupo 19860" transform="translate(-89.914 .087)"><circle data-name="Elipse 3063" cx="6.118" cy="6.118" r="6.118" transform="translate(100.655 24.248)"/><path data-name="Trazado 19563" d="M109.32 11.151a3.369 3.369 0 002.8 1.511h4.182a3.376 3.376 0 000-6.753h-4.182a3.366 3.366 0 00-2.82 1.541"/><path data-name="Trazado 19564" d="M119.743 24.108h-4.85v-4.322a1.44 1.44 0 00-1.44-1.44h-6.666v-7.227h2.529"/><path data-name="Trazado 19565" d="M109.283 7.482h-4.046a2 2 0 00-2 2v8.929h-1.375a1.44 1.44 0 00-1.44 1.44v4.031l-2.489-2.287v-8.734a1.44 1.44 0 00-1.44-1.44h0a1.44 1.44 0 00-1.44 1.44v28.23h36.9v-25.2a1.44 1.44 0 00-1.44-1.44h-2.923a1.44 1.44 0 00-1.44 1.44v2.454"/></g><path data-name="Línea 4362" d="M22.145 9.373h4.611"/><path data-name="Trazado 19566" d="M16.859 31.254H13.9l3.382-6.659v4.592h3.088l-3.5 6.954z"/></g><path data-name="Línea 4363" stroke="#95a6b1" stroke-linecap="round" stroke-linejoin="round" stroke-width="1.5" d="M2.52 41.178h42.044"/></g><path data-name="Trazado 11848" d="M38.307 23.554a3.041 3.041 0 11-3.041-3.041h0a3.028 3.028 0 013.041 3.018z" stroke="#19a500" stroke-linecap="round" stroke-linejoin="round" stroke-width="1.5"/></g></g></svg>