<svg id="Capa_1" data-name="Capa 1" xmlns="http://www.w3.org/2000/svg" viewBox="0 0 47 47"><defs><style>.cls-2{fill:#fff}</style></defs><path fill="none" d="M0 0h47v47H0z"/><g id="Grupo_12866" data-name="Grupo 12866"><path class="cls-2" d="M23.5 19.5A6.4 6.4 0 0119 8.6a6.3 6.3 0 014.5-1.8 6.4 6.4 0 016.4 6.3 6.4 6.4 0 01-6.4 6.4zm0-11.3A5.8 5.8 0 0020 9.7a4.8 4.8 0 00-1.4 3.4 4.9 4.9 0 004.9 4.9 4.9 4.9 0 004.9-4.9 4.9 4.9 0 00-4.9-4.9zm6.4 4.9z" id="Trazado_11509" data-name="Trazado 11509"/><path class="cls-2" d="M14 40.2H5.9a.7.7 0 01-.7-.7v-8.1a.7.7 0 01.7-.7H14a.7.7 0 01.7.7v8.1a.7.7 0 01-.7.7zm-7.3-1.4h6.5v-6.6H6.7z" id="Rectángulo_4518" data-name="Rectángulo 4518"/><path class="cls-2" d="M27.5 40.2h-8a.8.8 0 01-.8-.7v-8.1a.8.8 0 01.8-.7h8a.8.8 0 01.8.7v8.1a.8.8 0 01-.8.7zm-7.3-1.4h6.6v-6.6h-6.6z" id="Rectángulo_4519" data-name="Rectángulo 4519"/><path class="cls-2" d="M41.1 40.2H33a.7.7 0 01-.7-.7v-8.1a.7.7 0 01.7-.7h8.1a.7.7 0 01.7.7v8.1a.7.7 0 01-.7.7zm-7.3-1.4h6.5v-6.6h-6.5z" id="Rectángulo_4520" data-name="Rectángulo 4520"/><path class="cls-2" d="M23.5 23.2h-5a.7.7 0 01-.7-.7.7.7 0 01.7-.8h5a.7.7 0 01.7.8.7.7 0 01-.7.7z" id="Línea_2121" data-name="Línea 2121"/><path class="cls-2" d="M10 32.2a.8.8 0 01-.8-.8v-3.9a.7.7 0 01.8-.8.7.7 0 01.7.8v3.9a.8.8 0 01-.7.8z" id="Línea_2122" data-name="Línea 2122"/><path class="cls-2" d="M37 32.2a.8.8 0 01-.7-.8v-3.9a4.3 4.3 0 00-4.3-4.3h-8.5a.7.7 0 01-.7-.7.7.7 0 01.7-.8H32a5.8 5.8 0 015.8 5.8v3.9a.8.8 0 01-.8.8z" id="Trazado_11510" data-name="Trazado 11510"/><path class="cls-2" d="M23.5 32.2a.8.8 0 01-.7-.8V18.8a.7.7 0 111.4 0v12.6a.8.8 0 01-.7.8z" id="Línea_2123" data-name="Línea 2123"/><path class="cls-2" d="M13.1 26.7a3.8 3.8 0 113.7-3.7 3.8 3.8 0 01-3.7 3.7zm0-6a2.3 2.3 0 100 4.5 2.2 2.2 0 002.2-2.2 2.2 2.2 0 00-2.2-2.3z" id="Elipse_2115" data-name="Elipse 2115"/></g></svg>