<svg xmlns="http://www.w3.org/2000/svg" width="56.957" height="75.934"><g data-name="Grupo 11157"><g data-name="Grupo 11158"><g data-name="Grupo 11157"><g data-name="Grupo 10179"><path data-name="Trazado 9599" d="M17.755 75.934H3.438a1.577 1.577 0 110-3.155h14.317a1.577 1.577 0 010 3.155z" fill="#19a500"/></g><g data-name="Grupo 10180"><path data-name="Trazado 9600" d="M26.198 75.934H11.835a1.577 1.577 0 110-3.155h14.363a1.577 1.577 0 110 3.155z" fill="#a1d005"/></g><g data-name="Grupo 10181"><path data-name="Trazado 9601" d="M43.49 75.934h-7.178a1.577 1.577 0 010-3.155h7.178a1.577 1.577 0 010 3.155z" fill="#a1d005"/></g><g data-name="Grupo 10182"><path data-name="Trazado 9602" d="M53.59 75.934a1.579 1.579 0 01-1.114-.464 1.562 1.562 0 01-.464-1.113 1.737 1.737 0 010-.306 1.6 1.6 0 01.093-.3 1.456 1.456 0 01.139-.269 2.637 2.637 0 01.2-.242 1.542 1.542 0 011.42-.426 1.522 1.522 0 01.3.083 2.424 2.424 0 01.269.149 1.251 1.251 0 01.241.194 1.566 1.566 0 01.195.242 1.5 1.5 0 01.149.269 1.6 1.6 0 01.083.3 1.12 1.12 0 010 .306 1.562 1.562 0 01-.705 1.308 1.106 1.106 0 01-.269.149 1.5 1.5 0 01-.538.12z" fill="#a1d005"/></g><g data-name="Grupo 10183"><path data-name="Trazado 9603" d="M39.19 66.294H3.438a1.578 1.578 0 11-.242-3.146 1.628 1.628 0 01.242 0H39.19a1.577 1.577 0 110 3.155z" fill="#a1d005"/></g><g data-name="Grupo 10184"><path data-name="Trazado 9604" d="M3.438 66.294a1.579 1.579 0 01-1.114-.464 1.559 1.559 0 01-.464-1.114 1.205 1.205 0 010-.306 1.545 1.545 0 01.084-.3 1.566 1.566 0 01.148-.269 1.256 1.256 0 01.195-.241 1.586 1.586 0 011.41-.455l.3.093a2.066 2.066 0 01.279.148 1.664 1.664 0 01.232.195 1.232 1.232 0 01.195.242 1.117 1.117 0 01.148.269 1.529 1.529 0 01.093.3 1.738 1.738 0 010 .306 1.587 1.587 0 01-1.578 1.577z" fill="#149352"/></g><g data-name="Grupo 10185"><path data-name="Trazado 9605" d="M53.59 66.294H33.269a1.577 1.577 0 110-3.155H53.59a1.577 1.577 0 010 3.155z" fill="#19a500"/></g></g></g><g data-name="Grupo 11164"><g data-name="Grupo 11163"><g data-name="Grupo 11161" fill="none" stroke="#95a6b1" stroke-linecap="round" stroke-linejoin="round" stroke-width="1.6"><path data-name="Trazado 10298" d="M7.613 43.448l-.732-.187a1.068 1.068 0 01-.327-.172l-5.317-4.09a1.074 1.074 0 01-.07-1.643l.956-.875 3.291-3.243.785-5.652.085-3.744a1.081 1.081 0 00-.039-.31l-.209-.745"/><path data-name="Trazado 10299" d="M41.213 35.346c.558 2.078.241 2.087-.333 2.244l-3.445.939a1.06 1.06 0 01-.168.032l-4.566.489.96.96a1.076 1.076 0 01.27 1.065l-1.248 4.2a1.073 1.073 0 00.154.927l1.253 1.766a1.069 1.069 0 01.173.853l-2.03 9.169a1.073 1.073 0 01-1.457.761l-.652-.269a1.072 1.072 0 01-.584-1.4l1.15-2.828a1.073 1.073 0 00-.821-1.466l-2.112-.344a1.023 1.023 0 00-.253-.011l-4.935.368a1.068 1.068 0 01-.463-.068l-1.361-5.738-4.933-2.235"/><path data-name="Trazado 10300" d="M12.824 7.2l1.473-1.345a1.08 1.08 0 01.5-.257l5.306-1.153a1.073 1.073 0 00.271-.1l3.139-1.647a1.173 1.173 0 00.107-.065l2.282-1.561a1.073 1.073 0 011.445.215h0a1.074 1.074 0 01-.212 1.543l-2.112 1.514a1.07 1.07 0 00-.332.387l-2.815 5.556a1.073 1.073 0 00-.034.895l1.933 4.686a1.05 1.05 0 01.059.188l.486 2.312a1.076 1.076 0 00.916.844l4.891.62a1.066 1.066 0 01.457.169l3.7 2.442a1.071 1.071 0 00.536.176l4.983.256a1.073 1.073 0 011 1.251l-1.063 2.2"/><g data-name="Grupo 11160"><g data-name="Grupo 11159" transform="translate(-13.51 -4.832)"><path data-name="Trazado 10303" d="M47.51 32.335a7.054 7.054 0 11-6.5-4.308 7.028 7.028 0 016.5 4.308"/><circle data-name="Elipse 1781" cx="4.119" cy="4.119" r="4.119" transform="translate(36.843 30.912)"/><path data-name="Trazado 10304" d="M37.658 32.772l3.3 2.259v4.119"/><path data-name="Línea 1720" d="M44.251 32.675l-3.289 2.356"/></g><path data-name="Trazado 10305" d="M20.99 26.919h-1.246a10.961 10.961 0 00-1.28.1c-4.808.558-10.132 5.708-10.132 11.12v11.446"/><path data-name="Trazado 10306" d="M20.962 34.288c-2.148.265-5.444 1.493-5.444 7.1v8.448"/><path data-name="Línea 1721" d="M45.586 26.488H33.854"/><path data-name="Línea 1722" d="M33.753 34.69h11.832"/></g></g><g data-name="Grupo 11162"><circle data-name="Elipse 1782" cx="6.002" cy="6.002" r="6.002" transform="translate(.8 7.756)" fill="none" stroke="#19a500" stroke-miterlimit="10" stroke-width="1.6"/></g><path data-name="Rectángulo 4060" d="M6.209 50.415h10.906a1.93 1.93 0 011.93 1.93v6.161h0H4.279h0v-6.161a1.93 1.93 0 011.93-1.93z" fill="none" stroke="#95a6b1" stroke-linecap="round" stroke-linejoin="round" stroke-width="1.6"/></g><path data-name="Rectángulo 4061" d="M56.18 21.964v36.678h0-9.709 0V21.964a3.352 3.352 0 013.352-3.352h3.005a3.352 3.352 0 013.352 3.352z" fill="none" stroke="#95a6b1" stroke-linecap="round" stroke-linejoin="round" stroke-width="1.552"/></g></g></svg>