<svg xmlns="http://www.w3.org/2000/svg" width="15.836" height="13.156"><g data-name="Grupo 9347" fill="none" stroke="#7e8e98" stroke-linecap="round" stroke-linejoin="round" stroke-width="1.3"><path data-name="Trazado 7709" d="M3.805 4.909h1.766l2.541-3.84a.933.933 0 011.528-.041h0a1.764 1.764 0 01.152 1.852l-.571 1.116a.438.438 0 00.39.637h4.629a.946.946 0 01.946.946h0a.946.946 0 01-.946.946h-1.859"/><path data-name="Trazado 7710" d="M12.159 6.525h1.428a.946.946 0 01.946.946h0a.946.946 0 01-.946.946h-2.164"/><path data-name="Trazado 7711" d="M11.726 8.417h1.149a.946.946 0 01.946.946h0a.946.946 0 01-.946.946h-2.073"/><path data-name="Trazado 7712" d="M12.371 10.309a.946.946 0 01.946.946h0a.946.946 0 01-.946.946H7.708l-2.137-.5H3.805"/><path data-name="Rectángulo 3057" d="M.65 4.167h3.155v8.339H.65z"/></g></svg>