<svg version="1.1" id="Layer_1" xmlns="http://www.w3.org/2000/svg" xmlns:xlink="http://www.w3.org/1999/xlink" x="0" y="0" width="47" height="47" xml:space="preserve"><style>.st2{fill:#fff}</style><g id="Group_9536" transform="translate(-883.714 -4480.602)"><g id="Group_2560"><defs><path id="SVGID_1_" d="M883.7 4480.6h47v47h-47z"/></defs><clipPath id="SVGID_2_"><use xlink:href="#SVGID_1_" overflow="visible"/></clipPath><g id="Group_2559" clip-path="url(#SVGID_2_)"><g id="Group_2558"><defs><path id="SVGID_3_" d="M883.7 4480.6h47v47h-47z"/></defs><clipPath id="SVGID_4_"><use xlink:href="#SVGID_3_" overflow="visible"/></clipPath><g id="Group_2557" clip-path="url(#SVGID_4_)"><path class="st2" d="M920.6 4518.3h-25.2c-1.7 0-3-1.4-3-3v-14.8c0-.4.3-.8.8-.8s.8.3.8.8v14.8c0 .9.7 1.5 1.5 1.5h25.2c.9 0 1.5-.7 1.5-1.5v-21.6h-21c-.4 0-.8-.3-.8-.8s.3-.8.8-.8H923c.4 0 .8.3.8.8v22.3c-.2 1.8-1.5 3.1-3.2 3.1z" id="Path_1221"/><path class="st2" d="M922.9 4498h-21.6c-.4 0-.8-.3-.8-.8s.3-.8.8-.8h21.6c.4 0 .8.3.8.8s-.4.8-.8.8z" id="Line_1339"/><path class="st2" d="M904 4495.4c-.4 0-.8-.3-.8-.8v-4.1c0-.4.3-.8.8-.8s.8.3.8.8v4.1c-.1.5-.4.8-.8.8z" id="Line_1340"/><path class="st2" d="M908.3 4495.4c-.4 0-.8-.3-.8-.8v-4.1c0-.4.3-.8.8-.8s.8.3.8.8v4.1c-.1.5-.4.8-.8.8z" id="Line_1341"/><path class="st2" d="M912.5 4495.4c-.4 0-.8-.3-.8-.8v-4.1c0-.4.3-.8.8-.8s.8.3.8.8v4.1c-.1.5-.4.8-.8.8z" id="Line_1342"/><path class="st2" d="M916.8 4495.4c-.4 0-.8-.3-.8-.8v-4.1c0-.4.3-.8.8-.8s.8.3.8.8v4.1c0 .5-.3.8-.8.8z" id="Line_1343"/><path class="st2" d="M894.8 4498c-2.2 0-4.1-1.8-4.1-4.1s1.8-4.1 4.1-4.1c2.2 0 4 1.8 4 4 .1 2.4-1.7 4.2-4 4.2zm0-6.6c-1.4 0-2.6 1.1-2.6 2.6s1.1 2.6 2.6 2.6c1.4 0 2.6-1.1 2.6-2.6 0-1.4-1.2-2.6-2.6-2.6zm3.3 2.6z" id="Path_1222"/><path class="st2" d="M900.1 4508.8h-2.5c-.4 0-.8-.3-.8-.8s.3-.8.8-.8h2.5c.4 0 .8.3.8.8s-.4.8-.8.8z" id="Line_1344"/><path class="st2" d="M900.1 4504.1h-2.5c-.4 0-.8-.3-.8-.8s.3-.8.8-.8h2.5c.4 0 .8.3.8.8s-.4.8-.8.8z" id="Line_1345"/><path class="st2" d="M900.1 4513.4h-2.5c-.4 0-.8-.3-.8-.8s.3-.8.8-.8h2.5c.4 0 .8.3.8.8s-.4.8-.8.8z" id="Line_1346"/><path class="st2" d="M918.1 4508.8h-2.5c-.4 0-.8-.3-.8-.8s.3-.8.8-.8h2.5c.4 0 .8.3.8.8s-.4.8-.8.8z" id="Line_1347"/><path class="st2" d="M918.1 4504.1h-2.5c-.4 0-.8-.3-.8-.8s.3-.8.8-.8h2.5c.4 0 .8.3.8.8s-.4.8-.8.8z" id="Line_1348"/><path class="st2" d="M918.1 4513.4h-2.5c-.4 0-.8-.3-.8-.8s.3-.8.8-.8h2.5c.4 0 .8.3.8.8s-.4.8-.8.8z" id="Line_1349"/><path class="st2" d="M905 4512.3c-.2 0-.3 0-.4-.1-.2-.2-.3-.5-.3-.7l.5-2.8-2-2c-.2-.2-.3-.5-.2-.8s.3-.5.6-.5l2.8-.4 1.3-2.5c.1-.3.4-.4.7-.4.3 0 .5.2.7.4l1.3 2.5 2.8.4c.3 0 .5.2.6.5.1.3 0 .6-.2.8l-2 2 .5 2.8c0 .3-.1.6-.3.7-.2.2-.5.2-.8.1l-2.5-1.3-2.5 1.3h-.6zm2.8-3c.1 0 .2 0 .3.1l1.5.8-.3-1.7c0-.2 0-.5.2-.7l1.2-1.2-1.7-.2c-.2 0-.5-.2-.6-.4l-.8-1.5-.8 1.5c-.1.2-.3.4-.6.4l-1.7.2 1.2 1.2c.2.2.3.4.2.7l-.3 1.7 1.5-.8c.5-.1.6-.1.7-.1z" id="Path_1223"/></g></g></g></g></g></svg>