<svg xmlns="http://www.w3.org/2000/svg" viewBox="0 0 47 47"><defs><style>.cls-3{fill:#fff}</style></defs><path fill="#505d6c" d="M-1.3-1.3h49.9v49.91H-1.3z" id="BASE"/><g id="Capa_1" data-name="Capa 1"><path fill="none" d="M0 0h47v47H0z"/><g id="Grupo_12863" data-name="Grupo 12863"><path class="cls-3" d="M23.6 40.3a.7.7 0 01-.6-.4c-.5-.6-11.1-15-11.1-21.2a12.6 12.6 0 01.5-3.3.7.7 0 011.4.4 14.5 14.5 0 00-.4 2.9c0 4.9 7.9 16.3 10.2 19.5 2.3-3.2 10.2-14.6 10.2-19.5a13.5 13.5 0 00-.4-2.8 10.3 10.3 0 00-12.6-7 .7.7 0 01-.9-.5.7.7 0 01.5-.9 11.6 11.6 0 0114.4 8 17.7 17.7 0 01.5 3.2c0 6.2-10.7 20.6-11.1 21.2s-.4.4-.6.4z" id="Trazado_11508" data-name="Trazado 11508"/><path class="cls-3" d="M23.6 23.1a4.4 4.4 0 01-4.4-4.3 4.4 4.4 0 014.4-4.4 4.4 4.4 0 014.3 4.4 4.3 4.3 0 01-4.3 4.3zm0-7.2a2.9 2.9 0 100 5.7 2.9 2.9 0 000-5.7z" id="Elipse_2112" data-name="Elipse 2112"/><path class="cls-3" d="M15.6 14.5a3.9 3.9 0 110-7.7 3.9 3.9 0 110 7.7zm0-6.2a2.3 2.3 0 00-2.4 2.3 2.4 2.4 0 004.8 0 2.3 2.3 0 00-2.4-2.3z" id="Elipse_2113" data-name="Elipse 2113"/></g></g></svg>