<svg xmlns="http://www.w3.org/2000/svg" viewBox="0 0 52 52"><defs><style>.cls-3{fill:none;stroke:#fff;stroke-linecap:round;stroke-linejoin:round;stroke-width:1.6px}</style></defs><g id="Capa_2" data-name="Capa 2"><g id="Capa_1-2" data-name="Capa 1"><g id="Grupo_18730" data-name="Grupo 18730"><g id="Capa_1-3" data-name="Capa 1"><circle id="Elipse_2641" data-name="Elipse 2641" cx="26" cy="26" r="26" fill="#184bf7"/><circle id="Elipse_2609" data-name="Elipse 2609" cx="11.5" cy="17.9" r="3.1" style="isolation:isolate" opacity=".55" fill="none" stroke="#fff" stroke-linecap="round" stroke-linejoin="round" stroke-width="1.6"/><path id="Trazado_18047" data-name="Trazado 18047" class="cls-3" d="M22.9 24.6a3.91 3.91 0 01-3.9 3.9 3.84 3.84 0 01-3.9-3.78v-.12a1.23 1.23 0 01.1-.6 4.52 4.52 0 01.8-1.9 3.58 3.58 0 011.8-1.2 4.86 4.86 0 011.2-.2 4 4 0 013.9 3.9z"/><path id="Trazado_18048" data-name="Trazado 18048" class="cls-3" d="M16 15a10.48 10.48 0 013-.4 10.05 10.05 0 11-10.1 10 8.78 8.78 0 01.1-1.7"/><path id="Línea_2336" data-name="Línea 2336" class="cls-3" d="M19 14.5v-2.4"/><path id="Línea_2337" data-name="Línea 2337" class="cls-3" d="M19 37.1v-2.4"/><path id="Línea_2338" data-name="Línea 2338" class="cls-3" d="M29.1 24.6h2.4"/><path id="Línea_2339" data-name="Línea 2339" class="cls-3" d="M6.5 24.6h2.4"/><path id="Línea_2340" data-name="Línea 2340" class="cls-3" d="M26.2 17.5l1.7-1.7"/><path id="Línea_2341" data-name="Línea 2341" class="cls-3" d="M10.2 33.5l1.7-1.7"/><path id="Línea_2342" data-name="Línea 2342" class="cls-3" d="M26.2 31.8l1.7 1.7"/><path id="Trazado_18049" data-name="Trazado 18049" class="cls-3" d="M39.2 30.4a2.42 2.42 0 01-1.92 4.44h-.08c-.1-.1-.3-.1-.4-.2a2.39 2.39 0 01-1.1-2.3 1.94 1.94 0 01.2-.7 2.61 2.61 0 013.3-1.24z"/><path id="Trazado_18050" data-name="Trazado 18050" class="cls-3" d="M40.8 26.8a6.32 6.32 0 11-5.17.15 6.32 6.32 0 015.17-.15z"/><path id="Línea_2343" data-name="Línea 2343" class="cls-3" d="M32.4 30.1l-1.4-.6"/><path id="Línea_2344" data-name="Línea 2344" class="cls-3" d="M45.4 35.8l-1.4-.7"/><path id="Línea_2345" data-name="Línea 2345" class="cls-3" d="M40.8 26.8l.6-1.4"/><path id="Línea_2346" data-name="Línea 2346" class="cls-3" d="M35.1 39.8l.6-1.4"/><path id="Línea_2347" data-name="Línea 2347" class="cls-3" d="M35.9 26.7l-.5-1.4"/><path id="Línea_2348" data-name="Línea 2348" class="cls-3" d="M41.1 39.9l-.6-1.4"/><path id="Línea_2349" data-name="Línea 2349" class="cls-3" d="M44.1 30.3l1.4-.5"/><path id="Línea_2350" data-name="Línea 2350" class="cls-3" d="M30.9 35.5l1.4-.6"/></g></g></g></g></svg>