<svg xmlns="http://www.w3.org/2000/svg" width="83.508" height="83.508"><g data-name="Grupo 13231"><g data-name="Grupo 11190"><g data-name="Grupo 11189"><path data-name="Rectángulo 3799" fill="none" d="M0 0h83.508v83.508H0z"/><g data-name="Grupo 10179"><path data-name="Trazado 9599" d="M31.019 80.52H16.702a1.577 1.577 0 110-3.155h14.317a1.577 1.577 0 010 3.155z" fill="#19a500"/></g><g data-name="Grupo 10180"><path data-name="Trazado 9600" d="M39.462 80.52H25.099a1.577 1.577 0 110-3.155h14.363a1.577 1.577 0 110 3.155z" fill="#a1d005"/></g><g data-name="Grupo 10181"><path data-name="Trazado 9601" d="M56.754 80.52h-7.178a1.577 1.577 0 010-3.155h7.178a1.577 1.577 0 010 3.155z" fill="#a1d005"/></g><g data-name="Grupo 10182"><path data-name="Trazado 9602" d="M66.854 80.52a1.579 1.579 0 01-1.114-.464 1.562 1.562 0 01-.464-1.113 1.737 1.737 0 010-.306 1.6 1.6 0 01.093-.3 1.456 1.456 0 01.139-.269 2.637 2.637 0 01.2-.242 1.542 1.542 0 011.42-.426 1.522 1.522 0 01.3.083 2.424 2.424 0 01.269.149 1.251 1.251 0 01.241.194 1.566 1.566 0 01.195.242 1.5 1.5 0 01.149.269 1.6 1.6 0 01.083.3 1.12 1.12 0 010 .306 1.562 1.562 0 01-.705 1.308 1.106 1.106 0 01-.269.149 1.5 1.5 0 01-.538.12z" fill="#a1d005"/></g><g data-name="Grupo 10183"><path data-name="Trazado 9603" d="M52.454 70.88H16.702a1.578 1.578 0 11-.242-3.146 1.628 1.628 0 01.242 0h35.752a1.577 1.577 0 110 3.155z" fill="#a1d005"/></g><g data-name="Grupo 10184"><path data-name="Trazado 9604" d="M16.702 70.88a1.579 1.579 0 01-1.114-.464 1.559 1.559 0 01-.464-1.114 1.205 1.205 0 010-.306 1.545 1.545 0 01.084-.3 1.566 1.566 0 01.148-.269 1.256 1.256 0 01.195-.241 1.586 1.586 0 011.41-.455l.3.093a2.066 2.066 0 01.279.148 1.664 1.664 0 01.232.195 1.232 1.232 0 01.195.242 1.117 1.117 0 01.148.269 1.529 1.529 0 01.093.3 1.738 1.738 0 010 .306 1.587 1.587 0 01-1.578 1.577z" fill="#149352"/></g><g data-name="Grupo 10185"><path data-name="Trazado 9605" d="M66.854 70.88H46.533a1.577 1.577 0 110-3.155h20.321a1.577 1.577 0 010 3.155z" fill="#19a500"/></g></g></g><g data-name="Grupo 11197"><g data-name="Grupo 11192"><g data-name="Grupo 11191" fill="none" stroke="#95a6b1" stroke-linecap="round" stroke-linejoin="round" stroke-width="1.6"><path data-name="Trazado 10346" d="M60.804 55.354a29.2 29.2 0 01-36.9.979"/><path data-name="Trazado 10347" d="M49.754 5.154a29.24 29.24 0 0120.855 32.553"/><path data-name="Trazado 10348" d="M13.421 40.308A29.242 29.242 0 0132.946 5.391"/></g></g><g data-name="Grupo 11196"><g data-name="Grupo 11193" fill="none" stroke="#95a6b1" stroke-linecap="round" stroke-linejoin="round" stroke-width="1.6" transform="translate(-.246 -.246)"><circle data-name="Elipse 1795" cx="6.19" cy="6.19" r="6.19" transform="translate(55.813 38.433)"/><circle data-name="Elipse 1796" cx="6.19" cy="6.19" r="6.19" transform="translate(15.808 39.602)"/><path data-name="Trazado 10349" d="M36.085 11.072c-4.959 0-4.289 4.3-4.289 4.3v3.423s-.211 3.054 4.844 3.054h6s4.95.422 4.95 4.423v8.742s4.949.315 4.949-3.9V16.055s.586-5.123-4.652-5.123"/><path data-name="Trazado 10350" d="M65.675 39.186a3.655 3.655 0 00-1.917-5.51l-3.012-1.626s-2.588-1.635-4.988 2.814l-2.851 5.283S50.186 44.3 46.664 42.4l-7.693-4.15s-2.628 4.206 1.08 6.206l13.254 7.154s4.165 2.953 6.447-1.014"/><path data-name="Trazado 10351" d="M25.451 50.969a3.654 3.654 0 005.669 1.374l3-1.652s2.776-1.29.337-5.717l-2.9-5.258s-2.02-4.538 1.485-6.47l7.658-4.218s-2.112-4.488-5.8-2.455l-13.193 7.269s-4.738 1.9-2.64 5.968"/></g><g data-name="Grupo 11195"><g data-name="Grupo 11194"><circle data-name="Elipse 1797" cx="6.002" cy="6.002" r="6.002" transform="translate(35.8 4.935)" fill="none" stroke="#19a500" stroke-miterlimit="10" stroke-width="1.6"/></g></g></g></g></g></svg>