<svg xmlns="http://www.w3.org/2000/svg" width="29" height="45.786"><g data-name="Grupo 18290" transform="translate(6750.852 -1390.5)"><circle data-name="Elipse 2831" cx="6" cy="6" r="6" transform="translate(-6742.206 1424.286)" fill="#172211" opacity=".7" style="mix-blend-mode:multiply;isolation:isolate"/><path data-name="Trazado 12028" d="M-6736.352 1390.5a14.5 14.5 0 0114.5 14.5 14.5 14.5 0 01-14.5 14.5 14.5 14.5 0 01-14.5-14.5 14.5 14.5 0 0114.5-14.5z" fill="#959595"/><path data-name="Trazado 12029" d="M-6741.628 1417.5l4.95-4.95 4.95 4.95-4.95 9.396z" fill="#959595"/><g data-name="Group 13222" fill="none" stroke="#fff" stroke-linecap="round" stroke-linejoin="round" stroke-width="1.4"><path data-name="Path 11404" d="M-6738.099 1399.64a2.973 2.973 0 01-2.974 2.972 2.972 2.972 0 01-2.972-2.974 2.973 2.973 0 012.973-2.972 2.966 2.966 0 012.973 2.957z"/><path data-name="Path 11405" d="M-6735.286 1397.139a8.159 8.159 0 015.232 2.378"/><path data-name="Path 11406" d="M-6741.626 1411.089a8.152 8.152 0 01-2.4-5.656"/><path data-name="Path 11407" d="M-6730.054 1399.516a8.183 8.183 0 010 11.573 8.182 8.182 0 01-11.572 0"/></g></g></svg>