<svg version="1.1" id="Capa_1" xmlns="http://www.w3.org/2000/svg" x="0" y="0" viewBox="0 0 65 65" xml:space="preserve"><style>.st1{fill:none}.st2{fill:#95a6b1}.st3{fill:#4da12e}</style><path class="st2" d="M45.54 49.25c-2.06 0-4.13-.57-5.52-1.71-2.18-1.79-6.8-1.79-8.99 0-2.78 2.28-8.24 2.28-11.02 0-2.23-1.83-6.76-1.83-8.99 0-.34.28-.84.23-1.13-.11A.807.807 0 0110 46.3c2.78-2.28 8.24-2.28 11.02 0 2.22 1.82 6.76 1.82 8.99 0 2.78-2.28 8.24-2.28 11.02 0 2.22 1.82 6.76 1.82 8.99 0a8.96 8.96 0 015.53-1.72c.44.01.79.38.77.83-.02.44-.39.77-.83.77a7.25 7.25 0 00-4.5 1.38c-1.36 1.13-3.4 1.69-5.45 1.69z" id="Trazado_11999_2_"/><path class="st2" d="M45.54 42.8c-2.06 0-4.13-.57-5.52-1.71-.75-.62-1.84-1.06-3.09-1.25a.794.794 0 01-.67-.91c.07-.44.48-.73.91-.67 1.54.23 2.88.79 3.86 1.59 2.22 1.82 6.76 1.82 8.99 0a8.845 8.845 0 015.54-1.72c.44.01.79.38.77.83-.02.44-.34.79-.83.77-1.59-.05-3.2.44-4.5 1.39-1.37 1.11-3.41 1.68-5.46 1.68zm-20.02 0c-2.06 0-4.12-.57-5.5-1.71-2.23-1.83-6.77-1.83-8.99 0-.34.28-.85.23-1.13-.11a.807.807 0 01.11-1.13c2.78-2.28 8.24-2.28 11.02 0 2.18 1.79 6.79 1.79 8.98 0l.02-.02c.05-.04.12-.09.17-.12.39-.2.87-.05 1.08.35.18.35.08.77-.23 1-.01.01-.02.01-.03.02-1.39 1.15-3.45 1.72-5.5 1.72z"/><path class="st2" d="M33.81 46.34c-.44 0-.8-.36-.8-.8v-1.81c0-.44.36-.8.8-.8s.8.36.8.8v1.81c0 .44-.36.8-.8.8zm0-4.52c-.44 0-.8-.36-.8-.8v-1.81c0-.44.36-.8.8-.8s.8.36.8.8v1.81c0 .44-.36.8-.8.8zm0-4.51c-.44 0-.8-.36-.8-.8V34.7c0-.44.36-.8.8-.8s.8.36.8.8v1.81c0 .44-.36.8-.8.8zm0-4.52c-.44 0-.8-.36-.8-.8v-1.81c0-.44.36-.8.8-.8s.8.36.8.8V32c0 .44-.36.79-.8.79zm0-4.51c-.44 0-.8-.36-.8-.8v-1.81c0-.44.36-.8.8-.8s.8.36.8.8v1.81c0 .44-.36.8-.8.8zm0-4.51c-.44 0-.8-.36-.8-.8v-1.81c0-.44.36-.8.8-.8s.8.36.8.8v1.81c0 .44-.36.8-.8.8zm0-4.52c-.44 0-.8-.36-.8-.8v-1.81c0-.44.36-.8.8-.8s.8.36.8.8v1.81c0 .45-.36.8-.8.8zm0-4.51c-.44 0-.8-.36-.8-.8v-1.81c0-.44.36-.8.8-.8s.8.36.8.8v1.81c0 .44-.36.8-.8.8zm0-4.51c-.44 0-.8-.36-.8-.8V7.62c0-.44.36-.8.8-.8s.8.36.8.8v1.81c0 .44-.36.8-.8.8zm0-4.52c-.44 0-.8-.36-.8-.8v-1.8c0-.44.36-.8.8-.8s.8.36.8.8v1.81a.8.8 0 01-.8.79z" id="Línea_2518_2_"/><path class="st2" d="M50.61 33.2H17c-2.9 0-5.25-2.36-5.25-5.25v-2.09c0-.44.36-.8.8-.8s.8.36.8.8v2.09c0 2.01 1.64 3.65 3.65 3.65h33.61c2.01 0 3.65-1.64 3.65-3.65V19.1H19.28c-.44 0-.8-.36-.8-.8s.36-.8.8-.8h35.78c.44 0 .8.36.8.8v9.65c.01 2.9-2.35 5.25-5.25 5.25z" id="Trazado_12004_3_"/><path class="st2" d="M30.57 47.26c-.44 0-.8-.36-.8-.8V32.73c0-.44.36-.8.8-.8s.8.36.8.8v13.73c0 .44-.36.8-.8.8z" id="Línea_2519_5_"/><path class="st2" d="M37.05 46.11c-.44 0-.8-.36-.8-.8V32.73c0-.44.36-.8.8-.8s.8.36.8.8v12.58c0 .44-.36.8-.8.8z" id="Línea_2519_4_"/><path d="M13.01 23.59c-2.4 0-4.35-1.95-4.35-4.35 0-2.4 1.95-4.35 4.35-4.35h.02c1.15 0 2.23.45 3.05 1.26.82.82 1.28 1.9 1.28 3.06v.03c0 2.4-1.95 4.35-4.35 4.35zm.02-7.09h-.01c-1.52 0-2.75 1.23-2.75 2.75S11.5 22 13.02 22c1.51 0 2.75-1.23 2.75-2.75v-.02c0-.73-.29-1.41-.81-1.93s-1.21-.8-1.93-.8z" fill="#00a800" id="Trazado_11848_7_"/><path class="st2" d="M33.81 23.66c-.44 0-.8-.36-.8-.8 0-.63.04-1.27.11-1.89.05-.44.46-.75.88-.71.44.05.75.45.71.88-.06.57-.1 1.14-.1 1.71 0 .45-.36.81-.8.81zm.63-4.45a.794.794 0 01-.77-1.02c.18-.6.39-1.21.64-1.79.17-.41.64-.6 1.05-.42.41.17.6.64.42 1.05-.22.52-.42 1.07-.58 1.61-.09.34-.41.57-.76.57zm1.88-4.09c-.15 0-.3-.04-.43-.13a.804.804 0 01-.24-1.11c.34-.53.72-1.04 1.12-1.53.28-.34.78-.39 1.13-.11.34.28.39.79.11 1.13-.36.44-.7.9-1.01 1.38a.82.82 0 01-.68.37zm2.95-3.39a.805.805 0 01-.53-1.41c.48-.41.98-.8 1.5-1.15.36-.25.86-.16 1.11.21a.8.8 0 01-.21 1.11c-.47.32-.93.67-1.36 1.04-.13.13-.32.2-.51.2zm3.79-2.43c-.3 0-.6-.17-.73-.47-.18-.4 0-.88.4-1.06.57-.26 1.17-.49 1.77-.68.42-.13.87.1 1.01.52.14.42-.1.87-.52 1.01-.54.17-1.08.38-1.6.62a.96.96 0 01-.33.06zm4.32-1.25c-.39 0-.74-.29-.79-.69a.8.8 0 01.68-.9c.62-.09 1.26-.14 1.89-.15.41-.01.81.34.82.78.01.44-.34.81-.78.82-.57.01-1.15.06-1.71.14h-.11z"/><path class="st2" d="M33.81 23.66c-.44 0-.8-.36-.8-.8 0-.57-.03-1.15-.1-1.71-.05-.44.27-.83.71-.88.44-.04.84.27.88.71.07.62.11 1.26.11 1.89a.8.8 0 01-.8.79zm-.64-4.45c-.35 0-.66-.23-.77-.57-.16-.55-.35-1.09-.58-1.61-.17-.41.02-.88.42-1.05.41-.17.88.02 1.05.42.25.58.46 1.18.64 1.79.12.42-.12.87-.54.99-.07.02-.15.03-.22.03zm-1.88-4.09a.79.79 0 01-.67-.37c-.31-.48-.65-.94-1.01-1.38a.807.807 0 01.11-1.13c.34-.28.85-.23 1.13.11.4.49.78 1 1.12 1.53a.806.806 0 01-.68 1.24zm-2.95-3.39c-.19 0-.37-.06-.52-.19-.43-.37-.89-.72-1.36-1.04a.794.794 0 01-.21-1.11c.25-.37.75-.46 1.11-.21.52.35 1.02.74 1.5 1.15.33.29.37.79.08 1.13a.82.82 0 01-.6.27zM24.55 9.3c-.11 0-.22-.02-.33-.07-.52-.23-1.06-.44-1.6-.61a.813.813 0 01-.52-1.01c.13-.42.58-.65 1.01-.52.6.19 1.19.42 1.77.68.4.18.58.66.4 1.06-.13.3-.42.47-.73.47zm-4.32-1.25c-.04 0-.07 0-.11-.01-.56-.08-1.13-.12-1.71-.14a.803.803 0 01-.78-.82c.01-.44.42-.78.82-.78.63.02 1.27.07 1.89.15.44.06.74.46.68.9a.79.79 0 01-.79.7zm34.84 18.1H43.88c-.44 0-.8-.36-.8-.8s.36-.8.8-.8h11.19c.44 0 .8.36.8.8s-.36.8-.8.8z"/><path class="st1" d="M0 48.26h65V65H0z"/><path class="st3" d="M45.38 61.32h-7.17c-.66 0-1.2-.54-1.2-1.2s.54-1.2 1.2-1.2h7.17c.66 0 1.2.54 1.2 1.2s-.54 1.2-1.2 1.2zm7.73 0h-.58c-.66 0-1.2-.54-1.2-1.2s.54-1.2 1.2-1.2h.58c.66 0 1.2.54 1.2 1.2s-.54 1.2-1.2 1.2zm-34.12 0h-7.1c-.66 0-1.2-.54-1.2-1.2s.54-1.2 1.2-1.2h7.1c.66 0 1.2.54 1.2 1.2s-.54 1.2-1.2 1.2z"/><path d="M31.05 61.32H18.53c-.66 0-1.2-.54-1.2-1.2s.54-1.2 1.2-1.2h12.52c.66 0 1.2.54 1.2 1.2s-.54 1.2-1.2 1.2zm4.42-6.11H11.89c-.66 0-1.2-.54-1.2-1.2s.54-1.2 1.2-1.2h23.58c.66 0 1.2.54 1.2 1.2s-.53 1.2-1.2 1.2z" fill="#96d200"/><path class="st3" d="M53.11 55.21H34.75c-.66 0-1.2-.54-1.2-1.2s.54-1.2 1.2-1.2h18.36c.66 0 1.2.54 1.2 1.2s-.54 1.2-1.2 1.2zm-40.79 0h-.43c-.66 0-1.2-.54-1.2-1.2s.54-1.2 1.2-1.2h.43c.66 0 1.2.54 1.2 1.2s-.54 1.2-1.2 1.2z"/><path class="st1" d="M0 0h65v65H0z" id="Rectángulo_3799-2_4_"/></svg>