<svg xmlns="http://www.w3.org/2000/svg" width="65" height="65"><g data-name="Grupo 19547"><g data-name="Grupo 18389" fill="none"><path data-name="Rectángulo 3799-2" d="M0 0h65v65H0z"/><g data-name="Grupo 18388" stroke-linecap="round" stroke-linejoin="round" stroke-width="1.6"><path data-name="Trazado 11848" d="M23.85 25.847a4.183 4.183 0 11-4.183-4.183h0a4.168 4.168 0 014.183 4.151z" stroke="#19a500"/><path data-name="Trazado 18906" d="M19.439 19.294l.7-1.761a1 1 0 00-.208-1.065l-2.95-3.068a1 1 0 00-.354-.237l-1.076-.423a1 1 0 01-.635-.93v-.546a1 1 0 01.641-.933l1.136-.437v-.945a1 1 0 00-.089-.414l-.381-.835a1 1 0 01.046-.915l.945-1.63a1 1 0 011.679-.08l.621.87a1 1 0 01.186.581v1.26a1 1 0 00.363.77l1.063.88a1 1 0 001.168.078l.879-.549a1 1 0 011.258.163l2.433 2.588a1 1 0 00.527.294l8.409 1.731a1 1 0 01.423.2l2.319 1.859a1 1 0 001.174.055l1.219-.8a1 1 0 011.121.015l.958.668a1 1 0 01.3 1.307l-1.687 3.026a1 1 0 00-.093.743l.478 1.808a1 1 0 01.034.255v1.51a1 1 0 00.461.842l4.593 2.933a1.018 1.018 0 01.138.107l2.523 2.321a1 1 0 01-.027 1.5L45.63 35.6a1.01 1.01 0 00-.315.5l-.458 1.68a1 1 0 01-.289.474l-2.63 2.411a1 1 0 00-.3.976l.8 3.234a1.092 1.092 0 00.056.167l1.272 2.872a1 1 0 01-.78 1.4l-1.352.184a1 1 0 01-.634-.135l-.953-.545a1 1 0 00-.4-.127L36.5 48.4a.992.992 0 00-.5.084l-.266.119a1 1 0 01-1.3-.448l-.964-1.844a.993.993 0 00-.514-.465l-.413-.165a1 1 0 01-.629-.9l-.044-1.63a1.012 1.012 0 01.1-.459l.111-.23a1 1 0 00-.417-1.307l-1.306-.724a1 1 0 01-.462-.552l-.582-1.708a1 1 0 00-1.256-.628l-1.5.488a1 1 0 00-.65.669l-.465 1.581a1 1 0 01-.242.414L23.443 42.5a1 1 0 01-.944.277l-.691-.161a1 1 0 00-1 .338l-.972 1.181L18.7 32.472" stroke="#95a6b1"/></g></g><g data-name="Grupo 18392"><g data-name="Grupo 18391" fill="none"><path data-name="Rectángulo 5521" d="M0 48.259h65V65H0z"/><g data-name="Grupo 18390" stroke-linecap="round" stroke-linejoin="round" stroke-width="2.4"><path data-name="Línea 3824" stroke="#4da12e" d="M38.214 60.119h7.167"/><path data-name="Línea 3825" stroke="#4da12e" d="M52.528 60.119h.581"/><path data-name="Línea 3826" stroke="#4da12e" d="M11.891 60.119h7.101"/><path data-name="Línea 3827" stroke="#96d200" d="M18.529 60.119h12.517"/><path data-name="Línea 3828" stroke="#96d200" d="M11.891 54.012h23.582"/><path data-name="Línea 3829" stroke="#4da12e" d="M34.746 54.012h18.363"/><path data-name="Línea 3830" stroke="#4da12e" d="M11.891 54.012h.429"/></g></g></g></g></svg>