<svg xmlns="http://www.w3.org/2000/svg" width="51.921" height="35.756"><g data-name="Grupo 16077"><g data-name="Grupo 14378" fill="none" stroke="#fff" stroke-linecap="round" stroke-linejoin="round" stroke-width="2.2"><path data-name="Trazado 12231" d="M35.338 18.809a13.574 13.574 0 003.152 6.321c.238.3.669.8 1.167 1.373 1.183 1.352.1 3.333-1.823 3.333h-24.74c-2.233-.051-3.433-2.354-2.045-3.909l.575-.641a14.206 14.206 0 003.762-10.252c-.116-6.642 4-10.3 9.759-10.3a11.171 11.171 0 013.028.4"/><path data-name="Trazado 12232" d="M29.013 30.776a3.88 3.88 0 11-7.761 0"/><path data-name="Línea 2655" d="M25.074 4.73V1.1"/><path data-name="Trazado 12233" d="M8.966 22.558a9.369 9.369 0 01.063-9.95"/><path data-name="Trazado 12234" d="M3.287 24.98a13.314 13.314 0 01.091-14.151"/><path data-name="Trazado 300" d="M39.016 11.142a4.79 4.79 0 11-4.79-4.79h0a4.768 4.768 0 014.79 4.751.132.132 0 010 .039z"/><path data-name="Trazado 12235" d="M42.953 12.111a9.369 9.369 0 01-.063 9.95"/><path data-name="Trazado 12236" d="M48.634 9.713a13.314 13.314 0 01-.091 14.151"/></g></g></svg>