<svg xmlns="http://www.w3.org/2000/svg" viewBox="0 0 60 60"><style>.st2{fill:#fff}</style><g id="Capa_2"><path d="M30 0c16.57 0 30 13.43 30 30S46.57 60 30 60 0 46.57 0 30 13.43 0 30 0z" fill="#19a500" id="Rectángulo_3799_10_"/></g><g id="Capa_1"><path fill="none" d="M0 0h60v60H0z" id="Rectángulo_3799_8_"/><path class="st2" d="M36.08 45.18c-.3 0-.54-.24-.54-.54V25.65h-5.18v18.98c0 .3-.24.54-.54.54s-.54-.24-.54-.54V25.1c0-.3.24-.54.54-.54h6.27c.3 0 .54.24.54.54v19.53c0 .3-.25.55-.55.55z"/><path class="st2" d="M29.17 29.88h-3.56c-.3 0-.54-.24-.54-.54v-4.56h-3.65c-.3 0-.54-.24-.54-.54s.24-.54.54-.54h4.19c.3 0 .54.24.54.54v4.56h3.02c.3 0 .54.24.54.54s-.24.54-.54.54zM10.05 45.2c-.3 0-.54-.24-.54-.54V34.08c0-.3.24-.54.54-.54h4.68v-3.23c0-.3.24-.54.54-.54s.54.24.54.54v3.77c0 .3-.24.54-.54.54h-4.68v10.03c0 .3-.24.55-.54.55zm31.83.23c-.3 0-.54-.24-.54-.54V17.88h-8.17v7.17c0 .3-.24.54-.54.54s-.54-.24-.54-.54v-7.72c0-.3.24-.54.54-.54h9.26c.3 0 .54.24.54.54v27.55c-.01.31-.25.55-.55.55z"/><path class="st2" d="M49.71 44.96c-.3 0-.54-.24-.54-.54V28.33l-3.42-4.32v11.02c0 .3-.24.54-.54.54h-2.85c-.3 0-.54-.24-.54-.54s.24-.54.54-.54h2.31V22.44c0-.23.15-.44.37-.51.22-.08.46 0 .61.18l4.51 5.7c.08.1.12.21.12.34v16.27c-.02.29-.26.54-.57.54z"/><path class="st2" d="M52.11 45.85H7.89c-.3 0-.54-.24-.54-.54s.24-.54.54-.54h44.22c.3 0 .54.24.54.54s-.24.54-.54.54zM38.79 12.14c-1.73 0-3.14-1.41-3.14-3.14 0-1.73 1.41-3.14 3.14-3.14 1.73 0 3.14 1.41 3.14 3.14 0 1.73-1.41 3.14-3.14 3.14zm0-5.19c-1.13 0-2.05.92-2.05 2.05s.92 2.05 2.05 2.05 2.05-.92 2.05-2.05-.92-2.05-2.05-2.05zm10.96 32.67H45.5c-.3 0-.54-.24-.54-.54s.24-.54.54-.54h4.25c.3 0 .54.24.54.54s-.23.54-.54.54zm0 2.85H45.5c-.3 0-.54-.24-.54-.54s.24-.54.54-.54h4.25c.3 0 .54.24.54.54s-.23.54-.54.54zm-34.89-4.66h-4.25c-.3 0-.54-.24-.54-.54s.24-.54.54-.54h4.25c.3 0 .54.24.54.54s-.24.54-.54.54zm0 2.85h-4.25c-.3 0-.54-.24-.54-.54s.24-.54.54-.54h4.25c.3 0 .54.24.54.54s-.24.54-.54.54zm26.79-19.83h-3.18c-.3 0-.54-.24-.54-.54s.24-.54.54-.54h3.18c.3 0 .54.24.54.54s-.24.54-.54.54zm0 2.59h-3.18c-.3 0-.54-.24-.54-.54s.24-.54.54-.54h3.18c.3 0 .54.24.54.54s-.24.54-.54.54z"/><path d="M15.54 28.87c-.62 0-1.24-.13-1.83-.39-2.24-1.01-3.25-3.65-2.24-5.89a4.45 4.45 0 012.48-2.34c1.11-.42 2.32-.39 3.41.1 1.09.49 1.92 1.37 2.34 2.48.42 1.11.39 2.32-.1 3.41a4.417 4.417 0 01-2.48 2.34c-.51.19-1.05.29-1.58.29zm0-7.72a3.233 3.233 0 00-2.97 1.92c-.74 1.64 0 3.57 1.63 4.31.79.36 1.68.38 2.49.07.81-.31 1.46-.92 1.81-1.71.36-.79.38-1.68.07-2.49-.31-.81-.92-1.46-1.71-1.81-.41-.2-.86-.29-1.32-.29z" fill="#efef00"/></g></svg>