<svg xmlns="http://www.w3.org/2000/svg" viewBox="0 0 47 47"><style>.st30{stroke-width:1.5}.st30,.st31,.st32{fill:none;stroke:#fff;stroke-linecap:round;stroke-linejoin:round}.st31{stroke-width:1.2878}.st32{stroke-width:1.4332}</style><g id="Capa_1"><path id="Rectángulo_4850_1_" fill="none" d="M0 0h47v47H0z"/><g id="Grupo_12873_1_" transform="translate(11.496 4.703)"><path id="Línea_2131_1_" class="st30" d="M18.94 33.52v4.07"/><path id="Línea_2132_3_" class="st30" d="M16.94 23.16v5.23"/><path id="Línea_2132_1_" class="st30" d="M16.94 0v5.17"/><path id="Línea_2133_1_" class="st30" d="M7.58 33.52v4.07"/><path id="Línea_2134_1_" class="st30" d="M9.58 0v4.99"/><path id="Línea_2135_1_" class="st30" d="M9.58 23.33v5.06"/><path id="Rectángulo_4525_1_" class="st30" d="M4.55 28.4h17.43v5.13H4.55z"/><circle id="Elipse_2117_2_" class="st31" cx="13.23" cy="14.2" r="1.32"/><path class="st32" d="M6.43 7.12A9.615 9.615 0 0113 4.54c5.33 0 9.66 4.32 9.66 9.66s-4.32 9.66-9.66 9.66c-4.23 0-7.83-2.72-9.14-6.51"/><path class="st31" d="M13.23 12.88v-5.1m1.19 7.27l3.92 2.79m-6.19-2.79l-4.22 3m.76-8.56a6.429 6.429 0 014.37-1.72c3.54 0 6.42 2.87 6.42 6.42s-2.87 6.42-6.42 6.42c-2.81 0-5.2-1.81-6.07-4.33"/><circle id="Elipse_2123_1_" class="st30" cx="4.79" cy="12.14" r="2.76"/><path class="st32" d="M6.86 6.73a9.616 9.616 0 016.71-2.19c5.33.31 9.39 4.89 9.07 10.21-.31 5.33-4.89 9.39-10.21 9.07a9.666 9.666 0 01-8.74-7.04"/><path class="st32" d="M6.86 6.73a9.616 9.616 0 016.71-2.19c5.33.31 9.39 4.89 9.07 10.21-.31 5.33-4.89 9.39-10.21 9.07a9.666 9.666 0 01-8.74-7.04"/><path class="st32" d="M6.13 7.42a9.643 9.643 0 016.46-2.86c5.33-.23 9.84 3.9 10.07 9.23.23 5.33-3.9 9.84-9.23 10.07a9.67 9.67 0 01-9.41-6.11"/></g></g></svg>