<svg version="1.1" id="Capa_1" xmlns="http://www.w3.org/2000/svg" xmlns:xlink="http://www.w3.org/1999/xlink" x="0" y="0" viewBox="0 0 65 65" xml:space="preserve"><style>.st0{fill:none}.st1{fill:#95a6b1}.st4{fill:#4da12e}</style><g id="Capa_1_1_"><g id="Grupo_14998_1_" transform="translate(-83.703)"><path class="st0" d="M83.7 0h65v65h-65z" id="Rectángulo_3799-2_4_"/><path class="st1" d="M142.23 50.05h-51.4c-.44 0-.8-.36-.8-.8s.36-.8.8-.8h51.4c.44 0 .8.36.8.8s-.36.8-.8.8z"/><path class="st1" d="M104.39 49.82c-.44 0-.8-.36-.8-.8V12.43c0-1.28-1.04-2.32-2.32-2.32h-3.62c-1.28 0-2.32 1.04-2.32 2.32v2.15c0 .44-.36.8-.8.8s-.8-.36-.8-.8v-2.15c0-2.16 1.76-3.92 3.92-3.92h3.62c2.16 0 3.92 1.76 3.92 3.92v36.59c0 .44-.36.8-.8.8zm-9.86.22c-.44 0-.8-.36-.8-.8V30.23c0-.44.36-.8.8-.8s.8.36.8.8v19.01c0 .44-.36.8-.8.8zm43.98 0c-.44 0-.8-.36-.8-.8V34.68c0-1.21-.99-2.2-2.2-2.2h-9.12c-1.21 0-2.2.99-2.2 2.2v14.49c0 .44-.36.8-.8.8s-.8-.36-.8-.8V34.68c0-2.1 1.7-3.8 3.8-3.8h9.12c2.1 0 3.8 1.7 3.8 3.8v14.56c0 .44-.36.8-.8.8z"/><path class="st1" d="M119.65 49.97c-.44 0-.8-.36-.8-.8V28.19c0-2.1 1.7-3.8 3.8-3.8h5.22c2.1 0 3.8 1.7 3.8 3.8v3.34c0 .44-.36.8-.8.8s-.8-.36-.8-.8v-3.34c0-1.21-.99-2.2-2.2-2.2h-5.22c-1.21 0-2.2.99-2.2 2.2v20.98c0 .44-.36.8-.8.8zm-11.3-.15c-.44 0-.8-.36-.8-.8v-31c0-.99-.81-1.8-1.8-1.8h-1.37c-.44 0-.8-.36-.8-.8s.36-.8.8-.8h1.37c1.88 0 3.4 1.52 3.4 3.4v31c0 .44-.36.8-.8.8z"/><path class="st1" d="M123.13 44.16h-6.92c-1.7 0-3.09-1.39-3.09-3.09v-7.71c0-.82-.67-1.49-1.49-1.49h-7.02c-.44 0-.8-.36-.8-.8s.36-.8.8-.8h7.02c1.7 0 3.09 1.39 3.09 3.09v7.71c0 .82.67 1.49 1.49 1.49h6.92c.44 0 .8.36.8.8s-.36.8-.8.8zm8.32 1.12c-1.78 0-3.22-1.44-3.22-3.22 0-.67.4-1.57.49-1.75l1.93-4.33c.13-.28.41-.47.72-.47h.01c.31 0 .59.17.72.45l2.1 4.34c0 .01.01.02.01.02.08.17.46 1.07.46 1.73a3.22 3.22 0 01-3.22 3.23zm-.04-7.07l-1.24 2.77c-.17.36-.34.88-.34 1.08 0 .89.73 1.62 1.62 1.62s1.62-.73 1.62-1.62c0-.23-.18-.77-.32-1.07l-1.34-2.78zm-5.8-12.51c-.44 0-.8-.36-.8-.8v-5.99c0-.44.36-.8.8-.8s.8.36.8.8v5.99c0 .44-.36.8-.8.8z"/><path class="st1" d="M133.13 19.68h-20.18c-.44 0-.8-.36-.8-.8V7.6c0-3.28 2.67-5.95 5.95-5.95h20.18c.44 0 .8.36.8.8v11.28c0 3.28-2.67 5.95-5.95 5.95zm-19.38-1.6h19.38c2.4 0 4.35-1.95 4.35-4.35V3.25H118.1c-2.4 0-4.35 1.95-4.35 4.35v10.48z"/><path class="st1" d="M116.53 16.87c-.44 0-.8-.36-.8-.8V8.53c0-.44.36-.8.8-.8.44 0 .8.36.8.8v7.54c0 .44-.36.8-.8.8z"/><path class="st1" d="M118.81 11.75h-.16c-1.61 0-2.92-1.31-2.92-2.92V7.58c0-1.59 1.31-2.89 2.92-2.89h.16c1.61 0 2.92 1.3 2.92 2.89v1.25c0 1.61-1.31 2.92-2.92 2.92zm-.16-5.46c-.73 0-1.32.58-1.32 1.29v1.25c0 .73.59 1.32 1.32 1.32h.16c.73 0 1.32-.59 1.32-1.32V7.58c0-.72-.58-1.29-1.32-1.29h-.16zm9.07 3.34c-.44 0-.8-.36-.8-.8V7.58c0-.71-.59-1.29-1.32-1.29h-.16c-.73 0-1.32.58-1.32 1.29v1.25c0 .44-.36.8-.8.8s-.8-.36-.8-.8V7.58c0-1.59 1.31-2.89 2.92-2.89h.16c1.61 0 2.92 1.3 2.92 2.89v1.25c0 .44-.36.8-.8.8z"/><path class="st1" d="M123.33 16.87c-.44 0-.8-.36-.8-.8V8.83c0-.44.36-.8.8-.8s.8.36.8.8v7.24c0 .44-.36.8-.8.8z"/><path class="st1" d="M123.33 9.63c-.44 0-.8-.36-.8-.8V7.75c0-.44.36-.8.8-.8s.8.36.8.8v1.08c0 .44-.36.8-.8.8zm4.4 7.24c-.44 0-.8-.36-.8-.8V8.83c0-.44.36-.8.8-.8s.8.36.8.8v7.24c0 .44-.36.8-.8.8z"/><path class="st1" d="M127.73 9.63c-.44 0-.8-.36-.8-.8V7.75c0-.44.36-.8.8-.8s.8.36.8.8v1.08c0 .44-.36.8-.8.8zm0 1.91h-4.41c-.44 0-.8-.36-.8-.8s.36-.8.8-.8h4.41c.44 0 .8.36.8.8s-.36.8-.8.8zm6.13 5.33h-3.56c-.44 0-.8-.36-.8-.8V5.49c0-.44.36-.8.8-.8h3.51c.44 0 .8.36.8.8s-.36.8-.8.8h-2.71v8.98h2.76c.44 0 .8.36.8.8s-.36.8-.8.8z"/><path class="st1" d="M133.52 11.55h-3.06c-.44 0-.8-.36-.8-.8s.36-.8.8-.8h3.06c.44 0 .8.36.8.8s-.36.8-.8.8z"/><path d="M94.51 27.27a4.98 4.98 0 010-9.96h.02c1.31 0 2.55.51 3.49 1.44.94.93 1.46 2.18 1.47 3.51v.03a4.98 4.98 0 01-4.98 4.98zm.02-8.36h-.01c-1.87 0-3.38 1.52-3.38 3.38s1.52 3.38 3.38 3.38 3.38-1.52 3.38-3.38v-.03a3.38 3.38 0 00-3.37-3.35z" fill="#00a800" id="Trazado_11848_5_"/></g><defs><path id="SVGID_1_" d="M0 48.26h65V65H0z"/></defs><clipPath id="SVGID_2_"><use xlink:href="#SVGID_1_" overflow="visible"/></clipPath><g clip-path="url(#SVGID_2_)"><path class="st0" d="M0 48.26h65V65H0z"/><path class="st4" d="M45.38 61.32h-7.17c-.66 0-1.2-.54-1.2-1.2s.54-1.2 1.2-1.2h7.17c.66 0 1.2.54 1.2 1.2s-.54 1.2-1.2 1.2zm7.73 0h-.58c-.66 0-1.2-.54-1.2-1.2s.54-1.2 1.2-1.2h.58c.66 0 1.2.54 1.2 1.2s-.54 1.2-1.2 1.2zm-34.12 0h-7.1c-.66 0-1.2-.54-1.2-1.2s.54-1.2 1.2-1.2h7.1c.66 0 1.2.54 1.2 1.2s-.54 1.2-1.2 1.2z"/><path d="M31.05 61.32H18.53c-.66 0-1.2-.54-1.2-1.2s.54-1.2 1.2-1.2h12.52c.66 0 1.2.54 1.2 1.2s-.54 1.2-1.2 1.2zm4.42-6.11H11.89c-.66 0-1.2-.54-1.2-1.2s.54-1.2 1.2-1.2h23.58c.66 0 1.2.54 1.2 1.2s-.54 1.2-1.2 1.2z" fill="#96d200"/><path class="st4" d="M53.11 55.21H34.75c-.66 0-1.2-.54-1.2-1.2s.54-1.2 1.2-1.2h18.36c.66 0 1.2.54 1.2 1.2s-.54 1.2-1.2 1.2zm-40.79 0h-.43c-.66 0-1.2-.54-1.2-1.2s.54-1.2 1.2-1.2h.43c.66 0 1.2.54 1.2 1.2s-.54 1.2-1.2 1.2z"/></g></g></svg>