<svg xmlns="http://www.w3.org/2000/svg" viewBox="0 0 47 47"><style>.st3{fill:none;stroke:#fff;stroke-width:1.5;stroke-linecap:round;stroke-linejoin:round}</style><g id="Capa_1"><path id="Rectángulo_4850" fill="none" d="M0 0h47v47H0z"/><path id="Trazado_5703_17_" class="st3" d="M9.72 19.32c0 1.92-1.56 3.48-3.48 3.48s-3.48-1.56-3.48-3.48 1.56-3.48 3.48-3.48a3.46 3.46 0 013.48 3.43v.05z"/><path class="st3" d="M23.84 39.55l.55.55c.73.73 1.91.73 2.63 0l.1-.1c.73-.73.73-1.91 0-2.63l-.55-.55.79-.79 1.16 1.16c.67.67 1.75.67 2.42 0l.31-.31c.67-.67.67-1.75 0-2.42l-1.16-1.16.86-.86 1.68 1.68c.62.62 1.62.62 2.24 0l.49-.49c.62-.62.62-1.62 0-2.24l-1.68-1.68.79-.79 1.52 1.52c.6.6 1.57.6 2.17 0l.56-.56c.6-.6.6-1.57 0-2.17L37.2 26.2l-6.07-6.07M20.61 36.32l3.23 3.23m-9.47-9.47l-1.71-1.71-.81-.81m6.03 6.03l-.94-.93m-6.86-9.36l.43.46c.24.24.83.84.95 2.13.05.53-.05 1.23.39 1.67m9.28-14.96l-8.02-8.35"/><path class="st3" d="M9.87 31.03l-.91-.91c-.5-.5-.5-1.31 0-1.81l.46-.46c.75-.75 1.98-.75 2.73 0s.75 1.98 0 2.73l-.46.46a1.3 1.3 0 01-1.82-.01zm3.09 4l-.96-.96c-.49-.49-.49-1.28 0-1.76l1.48-1.48c.75-.75 1.98-.75 2.73 0s.75 1.98 0 2.73l-1.48 1.48c-.49.47-1.28.47-1.77-.01zM27 12.15l1.04 1.04-5.64-.78c-.75-.1-1.5.17-2.01.73l-4.99 5.52c-.38.42-.51 1.01-.34 1.54l2.35 7.41.94-.35a2.85 2.85 0 001.67-3.67l-.75-1.99c-.22-.57-.07-1.22.36-1.65l1.13-1.13c.54-.54 1.37-.63 2.02-.23l1.49.92a7.706 7.706 0 008.99-.63l.24-.2 4.95 4.95 2.76-2.65L29.75 9.5 27 12.15zM16.09 39.03l-.91-.91c-.5-.5-.5-1.31 0-1.81l2.81-2.81c.75-.75 1.98-.75 2.73 0s.75 1.97 0 2.73l-2.81 2.81a1.3 1.3 0 01-1.82-.01zm3.69 3.34l-.91-.91c-.5-.5-.5-1.31 0-1.81l1.17-1.17c.75-.75 1.98-.75 2.73 0s.75 1.97 0 2.73l-1.17 1.17a1.3 1.3 0 01-1.82-.01zM37.74 22.9l-1.94 1.9m-5.1-14.35l4.22-4.12m5.09 13.43l4.22-4.13"/></g></svg>