<svg version="1.1" id="Capa_1" xmlns="http://www.w3.org/2000/svg" xmlns:xlink="http://www.w3.org/1999/xlink" x="0" y="0" viewBox="0 0 65 65" xml:space="preserve"><style>.st1{fill:none}.st2,.st4{fill:none;stroke:#97a5af;stroke-width:1.6;stroke-linecap:round;stroke-linejoin:round}.st4{stroke:#95a6b1}.st6{fill:#4da12e}</style><g id="Capa_1_1_"><g id="Grupo_13216_9_" transform="translate(.246 .246)"><path id="Rectángulo_3799_11_" class="st1" d="M-.25-.25h65v65h-65z"/></g><path id="Rectángulo_3799-2_9_" class="st1" d="M0 0h65v65H0z"/><g id="Grupo_12943_2_" transform="translate(823.843 208.991)"><g id="Grupo_12040_2_" transform="translate(-815.047 -200.226)"><path id="Rectángulo_4147_2_" class="st2" d="M41.37 10.59h4.9c2.12 0 3.84 1.72 3.84 3.84v7.25c0 2.12-1.72 3.84-3.84 3.84h-4.9c-2.12 0-3.84-1.72-3.84-3.84v-7.25c0-2.12 1.72-3.84 3.84-3.84z"/><path id="Trazado_10739_2_" class="st2" d="M40.19 14.52V39.5h7.15V14.52"/><path id="Línea_2151_2_" class="st2" d="M43.9 25.56v13.82"/><g id="Grupo_12039_2_" transform="translate(17.525 1.947)"><path id="Trazado_10740_4_" class="st2" d="M10.5 29.69h5.73l-1.66-12.96v-7.4"/><path id="Trazado_10740_2_" class="st2" d="M7.51 9.16v7.47l-.16 1.27"/><path id="Rectángulo_4149_2_" class="st2" d="M4.68 16.74v-4.06c0-2.12 1.72-3.84 3.84-3.84h4.9c2.12 0 3.84 1.72 3.84 3.84v7.25c0 2.12-1.72 3.84-3.84 3.84H10.5"/><path id="Trazado_10741_3_" class="st2" d="M7.36 37.58h7.28v-7.84"/><path id="Línea_2154_2_" class="st2" d="M11.08 29.89v7.45"/><circle id="Elipse_1975_2_" class="st2" cx="10.84" cy="3.24" r="3.36"/></g><circle id="Elipse_1976_2_" class="st2" cx="43.76" cy="4.99" r="3.36"/></g></g><path id="Trazado_5703_1_" d="M15.21 33.03c0 2.52-2.04 4.56-4.56 4.56s-4.56-2.04-4.56-4.56 2.04-4.56 4.56-4.56c2.5-.02 4.54 2 4.56 4.5v.06z" fill="none" stroke="#00a800" stroke-width="1.6" stroke-linecap="round" stroke-linejoin="round" stroke-miterlimit="10"/><path id="Línea_1013_1_" class="st4" d="M19.32 21.16v4.21"/><path id="Línea_1014_1_" class="st4" d="M25.47 21.16v4.21"/><path id="Trazado_5700_2_" class="st4" d="M7.86 39.32v8.96h28.96V34.63c0-1.32-.34-2.65-1.08-3.74-.53-.78-1.22-1.44-2.02-1.8l-8.25-3.71"/><path id="Línea_1015_1_" class="st4" d="M19.32 25.38l-4.5 2.07"/><path id="Línea_1016_1_" class="st4" d="M22.39 28.86l-3.07-3.49"/><path id="Línea_1017_1_" class="st4" d="M22.39 28.86l3.08-3.49"/><path id="Trazado_5701_1_" class="st4" d="M28.17 16.25c0 3.2-2.6 5.8-5.8 5.8s-5.8-2.6-5.8-5.8"/><path id="Trazado_5702_1_" class="st4" d="M16.57 16.25v-6c0-3.2 2.6-5.8 5.8-5.8s5.8 2.6 5.8 5.8v6"/><path class="st2" d="M13.85 11.06h16.97"/><path class="st4" d="M7.86 48.28l48.28-.02"/><defs><path id="SVGID_1_" d="M0 48.26h65V65H0z"/></defs><clipPath id="SVGID_2_"><use xlink:href="#SVGID_1_" overflow="visible"/></clipPath><g clip-path="url(#SVGID_2_)"><path class="st1" d="M0 48.26h65V65H0z"/><path class="st6" d="M45.38 61.32h-7.17c-.66 0-1.2-.54-1.2-1.2s.54-1.2 1.2-1.2h7.17c.66 0 1.2.54 1.2 1.2s-.54 1.2-1.2 1.2zm7.73 0h-.58c-.66 0-1.2-.54-1.2-1.2s.54-1.2 1.2-1.2h.58c.66 0 1.2.54 1.2 1.2s-.54 1.2-1.2 1.2zm-34.12 0h-7.1c-.66 0-1.2-.54-1.2-1.2s.54-1.2 1.2-1.2h7.1c.66 0 1.2.54 1.2 1.2s-.54 1.2-1.2 1.2z"/><path d="M31.05 61.32H18.53c-.66 0-1.2-.54-1.2-1.2s.54-1.2 1.2-1.2h12.52c.66 0 1.2.54 1.2 1.2s-.54 1.2-1.2 1.2zm4.42-6.11H11.89c-.66 0-1.2-.54-1.2-1.2s.54-1.2 1.2-1.2h23.58c.66 0 1.2.54 1.2 1.2s-.54 1.2-1.2 1.2z" fill="#96d200"/><path class="st6" d="M53.11 55.21H34.75c-.66 0-1.2-.54-1.2-1.2s.54-1.2 1.2-1.2h18.36c.66 0 1.2.54 1.2 1.2s-.54 1.2-1.2 1.2zm-40.79 0h-.43c-.66 0-1.2-.54-1.2-1.2s.54-1.2 1.2-1.2h.43c.66 0 1.2.54 1.2 1.2s-.54 1.2-1.2 1.2z"/></g><path class="st4" d="M22.34 6.98V3.02"/></g></svg>