<svg id="Capa_1" data-name="Capa 1" xmlns="http://www.w3.org/2000/svg" viewBox="0 0 47 47"><defs><style>.cls-2{fill:#fff}</style></defs><path fill="none" d="M0 0h47v47H0z"/><g id="Grupo_12881" data-name="Grupo 12881"><path class="cls-2" d="M32.1 15.4c-.2 0-.4 0-.5-.2a.8.8 0 01-.1-1l1.6-1.7a.5.5 0 01.5-.3h8.8a.7.7 0 01.8.8.7.7 0 01-.8.7H34l-1.3 1.5z" id="Trazado_11521" data-name="Trazado 11521"/><path class="cls-2" d="M4.6 41.5h-.4a.7.7 0 01-.3-1l7.7-14.3a.5.5 0 01.6-.4h9l2.7-3a.7.7 0 111.1 1L22.1 27a.6.6 0 01-.6.3h-8.8L5.2 41.1a.8.8 0 01-.6.4z" id="Trazado_11522" data-name="Trazado 11522"/><path class="cls-2" d="M12.2 26.5a.9.9 0 01-.6-.3c-.7-.9-6.9-9.4-6.9-13.2a7.5 7.5 0 0115 0c0 3.8-6.2 12.3-6.9 13.2a.6.6 0 01-.6.3zm0-19.5a6 6 0 00-6 6c0 2.6 3.9 8.6 6 11.5 2.1-2.9 6-8.9 6-11.5a5.6 5.6 0 00-1.8-4.2A5.6 5.6 0 0012.2 7z" id="Trazado_11523" data-name="Trazado 11523"/><path class="cls-2" d="M12.2 16a3 3 0 113-3 2.9 2.9 0 01-3 3zm0-4.4a1.4 1.4 0 00-1.4 1.4 1.5 1.5 0 001.4 1.5 1.5 1.5 0 001.5-1.5 1.5 1.5 0 00-1.5-1.4z" id="Elipse_2121" data-name="Elipse 2121"/><path class="cls-2" d="M28.2 22.9a4 4 0 114-4 4 4 0 01-4 4zm0-6.4a2.5 2.5 0 000 4.9 2.5 2.5 0 100-4.9z" id="Elipse_2122" data-name="Elipse 2122"/></g></svg>