<svg version="1.1" id="Capa_1" xmlns="http://www.w3.org/2000/svg" xmlns:xlink="http://www.w3.org/1999/xlink" x="0" y="0" viewBox="0 0 65 65" xml:space="preserve"><style>.st1,.st2{fill:none}.st2{stroke:#95a6b1;stroke-width:1.6;stroke-linecap:round;stroke-linejoin:round}.st5{fill:#4da12e}</style><g id="Capa_1_1_"><g id="Grupo_14998" transform="translate(-83.703)"><path id="Rectángulo_3799-2_5_" class="st1" d="M83.7 0h65v65h-65z"/><g id="Grupo_15005"><g id="Grupo_15004"><path id="Línea_2848" class="st2" d="M90.83 49.25h51.4"/><path id="Trazado_12467" class="st2" d="M94.54 14.58v-2.15c0-1.72 1.39-3.11 3.11-3.11h3.62c1.72 0 3.12 1.39 3.12 3.11v36.59"/><path id="Línea_2849" class="st2" d="M94.54 49.24V30.23"/><path id="Trazado_12468" class="st2" d="M123.39 49.17V34.68c0-1.66 1.34-3 3-3h9.12c1.66 0 3 1.34 3 3v14.56"/><path id="Trazado_12469" class="st2" d="M119.65 49.17V28.19c0-1.66 1.34-3 3-3h5.22c1.66 0 3 1.34 3 3v3.34"/><path id="Trazado_12470" class="st2" d="M104.38 15.42h1.37c1.44 0 2.6 1.16 2.6 2.6v31"/><path id="Trazado_12471" class="st2" d="M104.61 31.07h7.02a2.29 2.29 0 012.29 2.29v7.71a2.29 2.29 0 002.29 2.29h6.92"/><path id="Trazado_12472" class="st2" d="M133.48 40.65l-2.1-4.34-1.94 4.34c-.21.44-.35.92-.41 1.41 0 1.34 1.09 2.42 2.43 2.42 1.33 0 2.42-1.08 2.42-2.42-.07-.49-.2-.96-.4-1.41z"/><path id="Línea_2850" class="st2" d="M125.61 18.91v5.99"/><path id="Rectángulo_5120" class="st2" d="M118.1 2.45h20.18v11.27a5.15 5.15 0 01-5.15 5.15h-20.18V7.61a5.145 5.145 0 015.15-5.16z"/><path id="Trazado_11848_4_" d="M98.69 22.29c0 2.31-1.88 4.18-4.19 4.18s-4.18-1.88-4.18-4.19 1.87-4.18 4.18-4.18h0c2.3-.01 4.17 1.85 4.18 4.15h0c.01.01.01.03.01.04z" fill="none" stroke="#19a500" stroke-width="1.6" stroke-linecap="round" stroke-linejoin="round" stroke-miterlimit="10"/><g id="Grupo_15000"><g id="Grupo_14999"><path id="Línea_2851" class="st2" d="M129.96 16.07V8.53"/><g id="Grupo_14998-2"><path id="Rectángulo_5121" class="st2" d="M132.08 5.49h.16c1.17 0 2.12.94 2.12 2.11v1.06c0 1.26-1.02 2.28-2.28 2.28h-2.12V7.61c.01-1.17.95-2.12 2.12-2.12z"/><path id="Línea_2852" class="st2" d="M134.35 16.07l-4.38-5.12"/></g></g></g><g id="Grupo_15003"><g id="Grupo_15002"><path id="Línea_2853" class="st2" d="M116.17 16.07V8.53"/><g id="Grupo_15001"><path id="Rectángulo_5122" class="st2" d="M118.29 5.49h.16c1.17 0 2.12.94 2.12 2.11v1.06c0 1.26-1.02 2.28-2.28 2.28h-2.12V7.61c0-1.17.95-2.12 2.12-2.12z"/></g><path id="Trazado_12473" class="st2" d="M125.29 5.49h-.16c-1.17 0-2.11.95-2.12 2.12v6.33c0 1.17.95 2.11 2.12 2.12h.16c1.17 0 2.11-.95 2.12-2.12V7.61c0-1.17-.95-2.12-2.12-2.12z"/></g></g></g></g></g><defs><path id="SVGID_1_" d="M0 48.26h65V65H0z"/></defs><clipPath id="SVGID_2_"><use xlink:href="#SVGID_1_" overflow="visible"/></clipPath><g clip-path="url(#SVGID_2_)"><path class="st1" d="M0 48.26h65V65H0z"/><path class="st5" d="M45.38 61.32h-7.17c-.66 0-1.2-.54-1.2-1.2s.54-1.2 1.2-1.2h7.17c.66 0 1.2.54 1.2 1.2s-.54 1.2-1.2 1.2zm7.73 0h-.58c-.66 0-1.2-.54-1.2-1.2s.54-1.2 1.2-1.2h.58c.66 0 1.2.54 1.2 1.2s-.54 1.2-1.2 1.2zm-34.12 0h-7.1c-.66 0-1.2-.54-1.2-1.2s.54-1.2 1.2-1.2h7.1c.66 0 1.2.54 1.2 1.2s-.54 1.2-1.2 1.2z"/><path d="M31.05 61.32H18.53c-.66 0-1.2-.54-1.2-1.2s.54-1.2 1.2-1.2h12.52c.66 0 1.2.54 1.2 1.2s-.54 1.2-1.2 1.2zm4.42-6.11H11.89c-.66 0-1.2-.54-1.2-1.2s.54-1.2 1.2-1.2h23.58c.66 0 1.2.54 1.2 1.2s-.54 1.2-1.2 1.2z" fill="#96d200"/><path class="st5" d="M53.11 55.21H34.75c-.66 0-1.2-.54-1.2-1.2s.54-1.2 1.2-1.2h18.36c.66 0 1.2.54 1.2 1.2s-.54 1.2-1.2 1.2zm-40.79 0h-.43c-.66 0-1.2-.54-1.2-1.2s.54-1.2 1.2-1.2h.43c.66 0 1.2.54 1.2 1.2s-.54 1.2-1.2 1.2z"/></g></g></svg>