<svg xmlns="http://www.w3.org/2000/svg" width="169.899" height="49"><g data-name="Grupo 19876"><g data-name="Grupo 19879" transform="translate(118.091)"><circle data-name="Elipse 1636" cx="23.5" cy="23.5" r="23.5" transform="translate(-117.291 1)" fill="none" stroke="#fff" stroke-linecap="round" stroke-linejoin="round" stroke-width="1.6"/><g data-name="Grupo 19878"><ellipse data-name="Elipse 3064" cx="11.805" cy="6.88" rx="11.805" ry="6.88" transform="translate(-105.596 25.057)" fill="none" stroke="#fff" stroke-linecap="round" stroke-linejoin="round" stroke-width="1.6"/><path data-name="Trazado 19582" d="M-104.024 28.466v-9.28a5.184 5.184 0 015.14-5.23h10.19a5.184 5.184 0 015.14 5.23v9.36" fill="none" stroke="#fff" stroke-linecap="round" stroke-linejoin="round" stroke-width="1.6"/><path data-name="Trazado 19583" d="M-88.518 13.941s2.274-2.755 2.487-4.84c0 0 4 2.479 2 7.968" fill="none" stroke="#fff" stroke-linecap="round" stroke-linejoin="round" stroke-width="1.6"/><path data-name="Trazado 19584" d="M-99.238 13.941s-2.274-2.755-2.487-4.84c0 0-3.958 2.6-1.958 8.085" fill="none" stroke="#fff" stroke-linecap="round" stroke-linejoin="round" stroke-width="1.6"/><path data-name="Trazado 19585" d="M-83.577 18.59h7.32s-1.022 6-7.277 6.468" fill="none" stroke="#fff" stroke-linecap="round" stroke-linejoin="round" stroke-width="1.6"/><path data-name="Trazado 19586" d="M-104 18.643h-7.32s1.022 6 7.277 6.468" fill="none" stroke="#fff" stroke-linecap="round" stroke-linejoin="round" stroke-width="1.6"/><g data-name="Grupo 19876" fill="#fff"><circle data-name="Elipse 3065" cx="1.465" cy="1.465" r="1.465" transform="translate(-100.684 19.246)"/><circle data-name="Elipse 3066" cx="1.465" cy="1.465" r="1.465" transform="translate(-89.828 19.246)"/></g><g data-name="Grupo 19877" fill="#fff"><circle data-name="Elipse 3067" cx="1.128" cy="1.128" r="1.128" transform="translate(-98.046 29.937)"/><circle data-name="Elipse 3068" cx="1.128" cy="1.128" r="1.128" transform="translate(-91.791 29.937)"/></g></g></g><g data-name="Grupo 19882" fill="none" transform="translate(118.091)"><circle data-name="Elipse 1636" cx="23.5" cy="23.5" r="23.5" transform="translate(-57.241 1)" stroke="#fff" stroke-linecap="round" stroke-linejoin="round" stroke-width="1.566"/><g data-name="Grupo 19881" stroke="#fff" stroke-linecap="round" stroke-linejoin="round" stroke-width="1.6"><g data-name="Grupo 19880"><path data-name="Trazado 19587" d="M-51.761 27.226a9.38 9.38 0 019.373-9.013 9.381 9.381 0 019.373 9.013"/><path data-name="Línea 4382" d="M-33.014 27.226h-18.747"/></g><path data-name="Trazado 19588" d="M-47.843 27.226a13.114 13.114 0 012.974-8.681"/><path data-name="Trazado 19589" d="M-40.268 18.454c.763.93 3.369 4.444 3.048 8.772"/></g><path data-name="Línea 4383" stroke="#fff" stroke-linecap="round" stroke-linejoin="round" stroke-width="1.6" d="M-42.39 36.022v-8.793"/><circle data-name="Elipse 3069" cx="3.899" cy="3.899" r="3.899" transform="translate(-28.754 11.812)" stroke="#fff" stroke-linecap="round" stroke-linejoin="round" stroke-width="1.6"/><path data-name="Línea 4384" stroke="#fff" stroke-linecap="round" stroke-linejoin="round" stroke-width="1.6" d="M-24.762 9.669V7.5"/><path data-name="Línea 4385" stroke="#fff" stroke-linecap="round" stroke-linejoin="round" stroke-width="1.6" d="M-24.744 23.813v-2.169"/><path data-name="Línea 4386" stroke="#fff" stroke-linecap="round" stroke-linejoin="round" stroke-width="1.6" d="M-30.788 15.534l-2.169-.018"/><path data-name="Línea 4387" stroke="#fff" stroke-linecap="round" stroke-linejoin="round" stroke-width="1.6" d="M-29.324 19.573l-1.533 1.534"/><path data-name="Línea 4388" stroke="#fff" stroke-linecap="round" stroke-linejoin="round" stroke-width="1.6" d="M-19.172 9.97l-1.533 1.534"/><path data-name="Línea 4389" stroke="#fff" stroke-linecap="round" stroke-linejoin="round" stroke-width="1.6" d="M-28.997 11.528l-1.592-1.473"/><path data-name="Línea 4390" stroke="#fff" stroke-linecap="round" stroke-linejoin="round" stroke-width="1.6" d="M-18.754 21.107l-1.592-1.473"/><path data-name="Línea 4391" stroke="#fff" stroke-linecap="round" stroke-linejoin="round" stroke-width="1.6" d="M-51.137 36.681h31.66"/><path data-name="Línea 4392" stroke="#fff" stroke-linecap="round" stroke-linejoin="round" stroke-width="1.6" d="M-18.889 15.534h1.979"/><path data-name="Rectángulo 5710" d="M-58.241 0h49v49h-49z"/></g><g data-name="Grupo 19885" fill="none"><g data-name="Grupo 19884" stroke="#fff" stroke-linecap="round" stroke-linejoin="round" transform="translate(120.9)"><circle data-name="Elipse 1636" cx="23.5" cy="23.5" r="23.5" transform="translate(1 1)" stroke-width="1.566"/><g data-name="Grupo 19883" stroke-width="1.6"><path data-name="Trazado 19590" d="M24.5 10.789l-8.63 11.3h17.26z"/><path data-name="Rectángulo 5711" d="M15.862 22.091h17.277v16.295H15.862z"/><path data-name="Línea 4393" d="M24.5 10.789V4.882"/><path data-name="Línea 4394" d="M27.454 7.836h-5.907"/><path data-name="Trazado 19591" d="M15.863 26.184H9.739v12.2h29.522v-12.2h-6.124"/><path data-name="Rectángulo 5712" d="M21.907 28.956h5.042v9.429h-5.042z"/></g></g><path data-name="Rectángulo 5713" d="M120.9 0h49v49h-49z"/></g></g></svg>