<svg xmlns="http://www.w3.org/2000/svg" width="150" height="84"><g data-name="Grupo 13609"><g data-name="Grupo 13647"><g data-name="Grupo 13646"><g data-name="Grupo 13645" fill="none"><path data-name="Rectángulo 4608" d="M33 63.068h84v20.926H33z"/><g data-name="Grupo 13644" stroke-linecap="round" stroke-linejoin="round" stroke-width="3"><path data-name="Línea 1951" stroke="#19a301" d="M82.142 77.892h8.959"/><path data-name="Línea 1952" stroke="#19a301" d="M100.035 77.892h.726"/><path data-name="Línea 1953" stroke="#19a301" d="M49.239 77.892h8.876"/><path data-name="Línea 1954" stroke="#82d400" d="M57.537 77.892h15.647"/><path data-name="Línea 1955" stroke="#82d400" d="M49.239 70.258h29.477"/><path data-name="Línea 1956" stroke="#19a301" d="M77.807 70.258h22.954"/><path data-name="Línea 1957" stroke="#19a301" d="M49.239 70.258h.537"/></g></g></g></g><g data-name="Grupo 13660"><path data-name="Rectángulo 4609" fill="none" d="M0 0h150v84H0z"/><g data-name="Grupo 13659"><g data-name="Grupo 13649"><g data-name="Grupo 13648" fill="none" stroke="#93a4af" stroke-linecap="round" stroke-linejoin="round" stroke-width="2" transform="translate(0 -.006)"><path data-name="Trazado 11947" d="M101.876 40.962v-8.785a1.249 1.249 0 00-1.249-1.249h-1.05a1.253 1.253 0 01-1.2-.929 24.094 24.094 0 00-2.2-5.31 1.251 1.251 0 01.192-1.507l.744-.744a1.249 1.249 0 000-1.767L90.9 14.46a1.248 1.248 0 00-1.766 0l-.744.744a1.254 1.254 0 01-1.507.192 24.085 24.085 0 00-5.31-2.2 1.253 1.253 0 01-.93-1.2v-1.053a1.249 1.249 0 00-1.249-1.249h-8.786a1.249 1.249 0 00-1.249 1.249v1.049a1.253 1.253 0 01-.93 1.2 24.085 24.085 0 00-5.31 2.2 1.254 1.254 0 01-1.507-.192l-.744-.744a1.248 1.248 0 00-1.766 0l-6.212 6.215a1.249 1.249 0 000 1.767l.744.744a1.251 1.251 0 01.192 1.507 24.093 24.093 0 00-2.2 5.31 1.253 1.253 0 01-1.2.929h-1.05a1.249 1.249 0 00-1.249 1.249v8.785a1.249 1.249 0 001.249 1.249h1.05a1.253 1.253 0 011.2.93 24.133 24.133 0 002.2 5.31 1.25 1.25 0 01-.192 1.506l-.744.744a1.249 1.249 0 000 1.767l6.21 6.211a1.248 1.248 0 001.766 0l.744-.744a1.254 1.254 0 011.507-.192 24.085 24.085 0 005.31 2.2 1.253 1.253 0 01.93 1.2V62.2a1.249 1.249 0 001.249 1.249h8.784a1.249 1.249 0 001.251-1.249v-1.053a1.253 1.253 0 01.93-1.2 24.085 24.085 0 005.31-2.2 1.254 1.254 0 011.507.192l.744.744a1.248 1.248 0 001.766 0l6.212-6.211a1.249 1.249 0 000-1.767l-.744-.744a1.25 1.25 0 01-.192-1.506 24.134 24.134 0 002.2-5.31 1.253 1.253 0 011.2-.93h1.05a1.249 1.249 0 001.252-1.253z"/><circle data-name="Elipse 2172" cx="18.871" cy="18.871" r="18.871" transform="translate(56.129 17.698)"/></g></g><g data-name="Grupo 13650" fill="none" stroke="#93a4af" stroke-linecap="round" stroke-linejoin="round" stroke-width="2" transform="translate(0 -.006)"><circle data-name="Elipse 2173" cx="3.693" cy="3.693" r="3.693" transform="translate(12.319 38.599)"/><circle data-name="Elipse 2174" cx="3.693" cy="3.693" r="3.693" transform="translate(23.603 55.225)"/><path data-name="Línea 1958" d="M19.705 42.292h30.106"/><path data-name="Trazado 11948" d="M30.988 58.918h7.5l3.972-7.006h10.352"/></g><g data-name="Grupo 13654"><g data-name="Grupo 13653"><g data-name="Grupo 13652"><g data-name="Grupo 13651" fill="none" stroke="#93a4af" stroke-linecap="round" stroke-linejoin="round" stroke-width="2"><path data-name="Línea 1959" d="M36.044 42.278v-9.606"/><path data-name="Trazado 11949" d="M28.579 33.725c3.289.759 7.7-.671 7.7-.671s5.057-8.3 1.461-13.523-14.79-5.854-14.79-5.854a15.209 15.209 0 00-1.713 4.909"/><path data-name="Línea 1960" d="M36.266 32.289l-4.088-9.638"/></g></g></g></g><path data-name="Trazado 11848" d="M27.511 27.529a5.228 5.228 0 11-5.229-5.229h0a5.209 5.209 0 015.229 5.194z" fill="none" stroke="#00a800" stroke-linecap="round" stroke-linejoin="round" stroke-width="2"/><g data-name="Grupo 13655" fill="none" stroke="#93a4af" stroke-linecap="round" stroke-linejoin="round" stroke-width="2" transform="translate(0 -.006)"><circle data-name="Elipse 2175" cx="3.408" cy="3.408" r="3.408" transform="translate(120.218 18.404)"/><circle data-name="Elipse 2176" cx="3.408" cy="3.408" r="3.408" transform="translate(129.844 33.069)"/><circle data-name="Elipse 2177" cx="3.408" cy="3.408" r="3.408" transform="translate(123.183 56.389)"/><path data-name="Trazado 11950" d="M100.045 30.933h23.577V25.22"/><path data-name="Línea 1961" d="M102.104 36.481h27.74"/><path data-name="Trazado 11951" d="M126.686 56.389v-7.012h-8.616v-7.185h-17.849"/></g><g data-name="Grupo 13657" fill="none" stroke="#93a4af" stroke-linecap="round" stroke-linejoin="round" stroke-width="2" transform="translate(0 -.006)"><circle data-name="Elipse 2178" cx="3.408" cy="3.408" r="3.408" transform="translate(109.573 9.787)"/><path data-name="Trazado 11952" d="M112.98 16.6v5.21H98.366"/><g data-name="Grupo 13656"><circle data-name="Elipse 2179" cx="3.408" cy="3.408" r="3.408" transform="translate(106.573 56.997)"/><path data-name="Trazado 11953" d="M109.98 57v-5.21H97.366"/></g></g><g data-name="Grupo 13658" fill="none" stroke="#93a4af" stroke-linecap="round" stroke-linejoin="round" stroke-width="2"><path data-name="Línea 1013" d="M72.268 36.429v3.73"/><path data-name="Línea 1014" d="M77.732 36.429v3.73"/><path data-name="Trazado 5700" d="M87.8 50.106v-1.729a5.907 5.907 0 00-.957-3.321 4.446 4.446 0 00-1.792-1.6l-7.316-3.288m-15.583 9.635v-1.426a5.907 5.907 0 01.957-3.321 4.446 4.446 0 011.792-1.6l7.367-3.3"/><path data-name="Línea 1016" d="M75 43.256l-2.732-3.097"/><path data-name="Línea 1017" d="M75 43.256l2.732-3.097"/><path data-name="Trazado 5701" d="M80.124 32.069a5.145 5.145 0 11-10.29 0"/><path data-name="Trazado 5702" d="M69.829 32.069v-3.551a5.146 5.146 0 1110.291 0v3.551"/></g></g></g></g></svg>