<svg xmlns="http://www.w3.org/2000/svg" width="150" height="84"><g data-name="Grupo 13608"><path data-name="Rectángulo 4603" fill="none" d="M0 0h150v84H0z"/><path data-name="Rectángulo 4604" fill="none" d="M0 0h150v84H0z"/><g data-name="Grupo 13635"><g data-name="Grupo 13629" transform="translate(0 -.006)"><g data-name="Grupo 13628"><g data-name="Grupo 13627"><g data-name="Grupo 13626" fill="none" stroke="#fff" stroke-linecap="round" stroke-linejoin="round" stroke-width="2"><path data-name="Trazado 11935" d="M78.472 43.813v7.332H73.13a8.99 8.99 0 00-3.569-7.179l.016-.028a15.462 15.462 0 01-6.34-9.85h15.235v5.554h-.022a3.455 3.455 0 00-1.155-.195 2.609 2.609 0 00-2.846 2.277A2.61 2.61 0 0077.295 44a3.455 3.455 0 001.155-.19z"/><path data-name="Trazado 11936" d="M78.472 51.145v-7.332h-.022a3.455 3.455 0 01-1.155.19 2.61 2.61 0 01-2.846-2.279 2.609 2.609 0 012.846-2.277 3.455 3.455 0 011.155.195h.022v-5.554h6.243a3.415 3.415 0 01-.19-1.149 2.334 2.334 0 114.555 0 3.417 3.417 0 01-.195 1.149h4.826a15.49 15.49 0 01-6.372 9.878 8.981 8.981 0 00-3.568 7.179v4.97a5.213 5.213 0 01-5.217 5.21h-.212a5.209 5.209 0 01-5.212-5.21v-4.97z"/><path data-name="Trazado 11937" d="M66.8 11.9a15.464 15.464 0 014.725-.734v7.485a3.46 3.46 0 011.155-.2 2.611 2.611 0 012.848 2.277 2.611 2.611 0 01-2.848 2.278 3.408 3.408 0 01-1.15-.194h0V29.5H56.289a15.1 15.1 0 01-.261-2.832 15.586 15.586 0 01.087-1.654"/><path data-name="Trazado 11938" d="M93.972 31.258a15.1 15.1 0 01-.261 2.83h-4.826a3.417 3.417 0 00.195-1.149 2.334 2.334 0 10-4.555 0 3.415 3.415 0 00.19 1.149h-6.243v-6.681h.006a3.448 3.448 0 001.149.195 2.611 2.611 0 002.848-2.279 2.612 2.612 0 00-2.848-2.278 3.46 3.46 0 00-1.155.2v-7.488a15.5 15.5 0 0115.5 15.501z"/></g></g><path data-name="Línea 1934" fill="none" stroke="#fff" stroke-linecap="round" stroke-linejoin="round" stroke-width="2" d="M73.13 51.145h10.641"/><path data-name="Línea 1935" fill="none" stroke="#fff" stroke-linecap="round" stroke-linejoin="round" stroke-width="2" d="M74.04 55.289h8.863"/></g><circle data-name="Elipse 2167" cx="5.056" cy="5.056" r="5.056" transform="translate(55.268 12.56)" fill="none" stroke="#ffda25" stroke-miterlimit="10" stroke-width="2"/></g><g data-name="Grupo 13632" fill="none" stroke="#fff" stroke-linecap="round" stroke-linejoin="round" stroke-width="2"><g data-name="Grupo 13630"><path data-name="Trazado 11939" d="M118.676 48.376l-10.051-5.711s-2.583-1.8-3.712.057c-1.33 2.184 1.485 3.484 1.485 3.484l11.707 6.682s1.313.6 1.219 1.8a1.591 1.591 0 01-1.16 1.418c-.172.086-3.094.817-3.094.817a2.084 2.084 0 00-1.513 2.716 2.139 2.139 0 002.759 1.367l11.474-3.012"/><path data-name="Trazado 11940" d="M121.246 44.95l-10.687-6.156s-1.645-1.318-.621-2.855 2.874-.682 3.187-.483 10.681 6.161 10.681 6.161"/><path data-name="Trazado 11941" d="M108.279 42.45a16.465 16.465 0 01-2.027-1.413 2.014 2.014 0 01-.43-2.922c1.191-1.564 3.294-.359 3.294-.359l1.443 1.041"/><path data-name="Trazado 11942" d="M114.434 36.165a2.352 2.352 0 01-.028-2.845c1.081-1.508 3.471 0 3.471 0l19.38 10.746"/><path data-name="Rectángulo 4605" d="M127.277 57.457l8.29-14.359 3.555 2.053-8.29 14.358z"/></g><g data-name="Grupo 13631"><path data-name="Trazado 11943" d="M31.324 27.994l10.051 5.71s2.583 1.8 3.712-.057c1.33-2.183-1.485-3.483-1.485-3.483L31.9 23.485s-1.313-.6-1.219-1.8a1.591 1.591 0 011.16-1.418c.172-.086 3.094-.816 3.094-.816a2.085 2.085 0 001.513-2.717 2.139 2.139 0 00-2.759-1.366L22.21 18.379"/><path data-name="Trazado 11944" d="M28.754 31.423l10.687 6.153s1.645 1.318.621 2.854-2.874.683-3.187.484-10.681-6.161-10.681-6.161"/><path data-name="Trazado 11945" d="M41.721 33.922a16.574 16.574 0 012.027 1.413 2.015 2.015 0 01.43 2.923c-1.191 1.564-3.294.358-3.294.358l-1.443-1.04"/><path data-name="Trazado 11946" d="M35.566 40.207a2.352 2.352 0 01.028 2.845c-1.081 1.508-3.471 0-3.471 0l-19.38-10.745"/><path data-name="Rectángulo 4606" d="M22.723 18.915l-8.29 14.359-3.555-2.053 8.29-14.359z"/></g></g><g data-name="Grupo 13633" fill="none" stroke="#fff" stroke-linecap="round" stroke-linejoin="round" stroke-width="2" transform="translate(0 -.006)"><path data-name="Línea 1936" d="M56.289 29.502l-4.638 23.037"/><circle data-name="Elipse 2168" cx="3.004" cy="3.004" r="3.004" transform="translate(23.655 49.275)"/><circle data-name="Elipse 2169" cx="3.958" cy="3.958" r="3.958" transform="translate(45.995 52.524)"/><path data-name="Línea 1937" d="M47.438 53.426l-7.023-14.28"/><path data-name="Línea 1938" d="M29.655 53.262l16.528 4.172"/></g><g data-name="Grupo 13634" fill="none" stroke="#fff" stroke-linecap="round" stroke-linejoin="round" stroke-width="2" transform="translate(0 -.006)"><path data-name="Línea 1939" d="M91.875 22.978l10.389-5.677"/><circle data-name="Elipse 2170" cx="3.004" cy="3.004" r="3.004" transform="translate(124.572 21.802)"/><circle data-name="Elipse 2171" cx="3.958" cy="3.958" r="3.958" transform="translate(101.844 11.57)"/><path data-name="Línea 1940" d="M107.574 19.067l3.671 15.484"/><path data-name="Línea 1941" d="M124.875 23.181l-15.186-7.743"/></g></g><g data-name="Grupo 13637" fill="none"><path data-name="Rectángulo 4607" d="M33 63.068h84v20.926H33z"/><path data-name="Línea 1942" stroke="#fff000" stroke-linecap="round" stroke-linejoin="round" stroke-width="3.135" d="M49.239 70.258h29.477"/><path data-name="Línea 1943" stroke="#ffe600" stroke-linecap="round" stroke-linejoin="round" stroke-width="3.135" d="M82.142 77.892h8.959"/><path data-name="Línea 1944" stroke="#ffe600" stroke-linecap="round" stroke-linejoin="round" stroke-width="3.135" d="M100.035 77.892h.726"/><g data-name="Grupo 13636" stroke-linecap="round" stroke-linejoin="round" stroke-width="3.135"><path data-name="Línea 1945" stroke="#ffda25" d="M49.239 77.892h8.876"/><path data-name="Línea 1946" stroke="#ffe600" d="M58.602 77.892h14.581"/></g><path data-name="Línea 1947" stroke="#ffda25" stroke-linecap="round" stroke-linejoin="round" stroke-width="3.135" style="mix-blend-mode:multiply;isolation:isolate" d="M58.602 77.892h5.217"/><path data-name="Línea 1948" stroke="#ffda25" stroke-linecap="round" stroke-linejoin="round" stroke-width="3.135" d="M77.807 70.258h22.954"/><path data-name="Línea 1949" stroke="#ffda25" stroke-linecap="round" stroke-linejoin="round" stroke-width="3.135" style="mix-blend-mode:multiply;isolation:isolate" d="M49.239 70.258h.537"/><path data-name="Línea 1950" stroke="#ffda25" stroke-linecap="round" stroke-linejoin="round" stroke-width="3.135" style="mix-blend-mode:multiply;isolation:isolate" d="M83.922 70.258h-6.115"/></g></g></svg>