<svg version="1.1" id="Capa_1" xmlns="http://www.w3.org/2000/svg" x="0" y="0" viewBox="0 0 65 65" xml:space="preserve"><style>.st1{fill:none}.st2{fill:#95a6b1}.st3{fill:#4da12e}</style><path class="st1" d="M0 48.26h65V65H0z"/><path class="st3" d="M45.38 61.32h-7.17c-.66 0-1.2-.54-1.2-1.2s.54-1.2 1.2-1.2h7.17c.66 0 1.2.54 1.2 1.2s-.54 1.2-1.2 1.2zm7.73 0h-.58c-.66 0-1.2-.54-1.2-1.2s.54-1.2 1.2-1.2h.58c.66 0 1.2.54 1.2 1.2s-.54 1.2-1.2 1.2zm-34.12 0h-7.1c-.66 0-1.2-.54-1.2-1.2s.54-1.2 1.2-1.2h7.1c.66 0 1.2.54 1.2 1.2s-.53 1.2-1.2 1.2z"/><path d="M31.05 61.32H18.53c-.66 0-1.2-.54-1.2-1.2s.54-1.2 1.2-1.2h12.52c.66 0 1.2.54 1.2 1.2s-.54 1.2-1.2 1.2zm4.42-6.11H11.89c-.66 0-1.2-.54-1.2-1.2s.54-1.2 1.2-1.2h23.58c.66 0 1.2.54 1.2 1.2s-.53 1.2-1.2 1.2z" fill="#96d200"/><path class="st3" d="M53.11 55.21H34.75c-.66 0-1.2-.54-1.2-1.2s.54-1.2 1.2-1.2h18.36c.66 0 1.2.54 1.2 1.2s-.54 1.2-1.2 1.2zm-40.79 0h-.43c-.66 0-1.2-.54-1.2-1.2s.54-1.2 1.2-1.2h.43c.66 0 1.2.54 1.2 1.2s-.54 1.2-1.2 1.2z"/><path class="st1" d="M0 0h65v65H0z" id="Rectángulo_3799-2_6_"/><path d="M16.81 12.27c-.51 0-1.03-.09-1.52-.28a4.32 4.32 0 01-2.44-2.27 4.323 4.323 0 01-.12-3.33 4.33 4.33 0 012.25-2.43c2.2-1.01 4.79-.06 5.79 2.12l.01.02c.48 1.06.53 2.24.12 3.33s-1.21 1.96-2.27 2.44c-.59.26-1.21.4-1.82.4zm-1.09-6.9l-.06.03c-.67.31-1.18.85-1.44 1.54-.26.69-.23 1.44.08 2.11.31.67.85 1.18 1.54 1.44.69.26 1.44.23 2.11-.08.67-.31 1.18-.85 1.44-1.54.26-.69.23-1.44-.08-2.11l-.01-.03a2.747 2.747 0 00-3.58-1.36z" fill="#19a500" id="Trazado_11799_1_"/><path class="st2" d="M42.61 35.53c-.44 0-.8-.36-.8-.8V6.26h-19.3c-.44 0-.8-.36-.8-.8s.36-.8.8-.8H42.6c.44 0 .8.36.8.8v29.26a.79.79 0 01-.79.81z" id="Trazado_11800_1_"/><path class="st2" d="M30.76 41.96h-9.82c-1.87 0-3.62-.73-4.94-2.05a6.927 6.927 0 01-2.04-4.94V14.24c0-.44.36-.8.8-.8s.8.36.8.8v20.74c0 1.44.56 2.79 1.57 3.8a5.342 5.342 0 003.8 1.58l13.62-.01c.44 0 .8.36.8.8 0 .44-.36.8-.8.8l-3.79.01z" id="Trazado_11801_1_"/><path class="st2" d="M37.18 29.56H20.2c-.44 0-.8-.36-.8-.8s.36-.8.8-.8h16.99c.44 0 .8.36.8.8s-.36.8-.81.8z" id="Línea_2384_1_"/><path class="st2" d="M37.18 34.08H20.2c-.44 0-.8-.36-.8-.8s.36-.8.8-.8h16.99c.44 0 .8.36.8.8s-.36.8-.81.8z" id="Línea_2385_1_"/><path class="st2" d="M44.84 49.15c-.28 0-.56-.08-.8-.24l-5.25-3.52a.807.807 0 01-.35-.67v-7.6c0-.26.12-.5.34-.65l5.23-3.72c.25-.17.53-.27.83-.27.8 0 1.45.65 1.45 1.45V47.7c0 .29-.08.57-.24.81-.28.41-.74.64-1.21.64zm-4.8-4.86l4.68 3.14-.03-13.24-4.66 3.34.01 6.76z" id="Trazado_11813_1_"/><path class="st2" d="M39.24 45.52h-3.85c-.89 0-1.62-.73-1.62-1.62v-5.96c0-.89.73-1.62 1.62-1.62h3.85c.44 0 .8.36.8.8v7.6c0 .44-.36.8-.8.8zm-3.85-7.6c-.01 0-.02.01-.02.02v5.96l3.07.02v-5.99h-3.05z" id="Rectángulo_4666_1_"/><path class="st2" d="M49.1 45.36c-.34 0-.65-.22-.76-.56-.13-.42.1-.87.52-1.01.77-.25 1.39-.78 1.76-1.5.37-.72.44-1.54.19-2.3-.3-.92-1.03-1.65-1.95-1.95a.813.813 0 01-.52-1.01c.14-.42.58-.65 1.01-.52 1.41.45 2.53 1.57 2.98 2.98.38 1.17.27 2.43-.29 3.52a4.575 4.575 0 01-2.7 2.29c-.08.04-.16.06-.24.06z" id="Trazado_11814_1_"/><path class="st2" d="M20.48 16.51c-.19-.09-.39-.13-.6-.12H18.7v3.03h.63v-1.07h.54c.3.02.6-.07.85-.26.21-.17.32-.43.31-.7 0-.18-.04-.37-.14-.52-.1-.15-.24-.28-.41-.36zm-.22 1.22c-.11.08-.24.13-.38.12h-.56v-.95h.57c.14-.01.27.05.36.14.09.1.14.23.13.36.02.12-.03.24-.12.33zm3.07-1.2c-.42-.24-.93-.24-1.35 0-.2.13-.36.31-.46.52-.11.25-.17.52-.16.79v.15c0 .27.05.53.17.77.1.21.26.39.46.52.42.24.93.24 1.35 0 .2-.13.36-.31.45-.52.11-.25.16-.52.16-.79v-.14c.01-.27-.05-.54-.16-.79-.11-.2-.26-.38-.46-.51zm-.02 1.46c.01.25-.04.5-.17.72-.11.16-.29.26-.48.25-.2.01-.39-.09-.49-.26-.13-.22-.19-.47-.17-.72v-.15c-.02-.25.04-.5.17-.72a.595.595 0 01.97 0c.13.22.19.47.17.73v.15zm2.27 1.44V16.9h.93v-.51h-2.48v.51h.92v2.53zm3.32-.51h-1.41v-.81h1.2v-.49h-1.2v-.72h1.4v-.51h-2.03v3.04h2.04zm2.83.51v-3.04h-.62v2l-1.22-2h-.63v3.04h.63v-2l1.22 2zm1.25-2.35c.11-.15.28-.24.47-.22.15-.01.31.03.43.13.11.12.16.27.16.43h.63c-.02-.3-.15-.59-.37-.79-.44-.33-1.03-.37-1.51-.1-.19.12-.35.3-.44.51-.11.24-.16.51-.15.77V18c-.02.39.1.77.33 1.08.23.27.57.41.92.39.31.02.62-.09.86-.28.22-.2.35-.47.36-.77h-.63c0 .15-.06.3-.16.41-.12.1-.28.14-.43.13a.51.51 0 01-.47-.23c-.12-.22-.17-.47-.15-.72v-.23c-.02-.24.03-.48.15-.7zm2.13-.69h.63v3.04h-.63zm2.7 0h-.58l-1.13 3.04h.66l.21-.63h1.1l.21.63h.66l-1.13-3.04zm-.67 1.9l.38-1.14.38 1.14h-.76zm-11.78 3.65v.49l.72-.23v2.33h.61v-3.04h-.07zm3.84 1.03a.79.79 0 00.33-.27.67.67 0 00.13-.38.819.819 0 00-.27-.64c-.22-.16-.48-.25-.75-.23-.17 0-.35.03-.51.11-.14.06-.27.16-.36.29-.09.13-.13.27-.13.43h.6c0-.1.04-.19.12-.25.08-.06.19-.1.29-.09.11-.01.22.03.3.1.08.08.12.18.11.29.01.11-.03.22-.11.3-.09.08-.22.13-.34.11h-.32v.47h.32c.33 0 .5.15.5.45 0 .11-.04.22-.12.3a.54.54 0 01-.65.01.372.372 0 01-.13-.28h-.6c-.01.24.1.48.29.63.21.17.47.25.74.24.28.01.56-.07.78-.24.19-.16.3-.4.3-.65 0-.15-.04-.31-.13-.43a.751.751 0 00-.39-.27zm2.06-.44c-.16 0-.32.04-.46.11l.08-.65h1.21v-.5h-1.7l-.17 1.54.48.12.06-.05c.1-.08.22-.12.35-.11.13-.01.27.04.36.14.09.11.14.25.13.4a.7.7 0 01-.11.42c-.07.1-.19.15-.31.15a.377.377 0 01-.3-.11.41.41 0 01-.13-.29h-.6c0 .16.05.32.15.46.09.14.22.25.37.31.16.07.33.11.51.11.19 0 .38-.04.55-.13.15-.08.27-.21.36-.36.08-.16.13-.34.12-.53.02-.27-.07-.54-.25-.75-.2-.2-.45-.29-.7-.28z"/></svg>