<svg version="1.1" id="Capa_1" xmlns="http://www.w3.org/2000/svg" x="0" y="0" viewBox="0 0 47 47" xml:space="preserve"><style>.st2{fill:none;stroke:#93a4af;stroke-width:1.5;stroke-linecap:round;stroke-linejoin:round;stroke-miterlimit:10}</style><path id="Trazado_11848_1_" d="M12.49 21.06c0 1.93-1.56 3.49-3.49 3.49-1.93 0-3.49-1.56-3.49-3.49 0-1.93 1.56-3.49 3.49-3.49h0a3.474 3.474 0 013.49 3.46v.03z" fill="none" stroke="#00a800" stroke-width="1.5" stroke-linecap="round" stroke-linejoin="round" stroke-miterlimit="10"/><path id="XMLID_2035_" class="st2" d="M13.15 25.74c1.37 1.83 3.19 3.74 5.54 5.83 9.04 8.09 15.91 7.06 16.21 7.01a7.96 7.96 0 001.87-.59c.67-.3 1.28-.7 1.81-1.16l.03.03 1.23-1.35c.89-1 .88-2.66-.13-3.37l-4.82-4.31c-.96-.85-2.46-.74-3.35.25l-2.17 2.43c-.15-.07-.31-.15-.47-.23-1.5-.72-3.55-1.71-5.76-3.69s-3.43-3.91-4.32-5.32c-.09-.15-.18-.29-.27-.43l1.46-1.63.71-.8c.9-.99.84-2.5-.12-3.36l-4.82-4.31c-.96-.85-2.47-.74-3.36.26l-1.21 1.37.04.03c-.4.57-.73 1.23-.96 1.93-.09.3-.17.58-.23.87"/><path class="st2" d="M35.04 22.79h6.45M26.02 8.35v6.32m5.03 2.96l4.83-4.83"/><path fill="none" d="M0 0h47v47H0z"/></svg>