<svg version="1.1" id="Capa_1" xmlns="http://www.w3.org/2000/svg" xmlns:xlink="http://www.w3.org/1999/xlink" x="0" y="0" viewBox="0 0 65 65" xml:space="preserve"><style>.st3{fill:none}.st4{fill:#19a301}.st7{fill:none;stroke:#95a6b1;stroke-width:1.6;stroke-linecap:round;stroke-linejoin:round}</style><g id="Capa_1_1_"><defs><path id="SVGID_1_" d="M0 48.26h65V65H0z"/></defs><clipPath id="SVGID_2_"><use xlink:href="#SVGID_1_" overflow="visible"/></clipPath><g clip-path="url(#SVGID_2_)"><defs><path id="SVGID_3_" d="M0 48.26h65V65H0z"/></defs><clipPath id="SVGID_4_"><use xlink:href="#SVGID_3_" overflow="visible"/></clipPath><g clip-path="url(#SVGID_4_)"><path class="st3" d="M0 48.26h65V65H0z"/><path class="st4" d="M45.38 61.32h-7.17c-.66 0-1.2-.54-1.2-1.2s.54-1.2 1.2-1.2h7.17c.66 0 1.2.54 1.2 1.2s-.54 1.2-1.2 1.2zm7.73 0h-.58c-.66 0-1.2-.54-1.2-1.2s.54-1.2 1.2-1.2h.58c.66 0 1.2.54 1.2 1.2s-.54 1.2-1.2 1.2zm-34.12 0h-7.1c-.66 0-1.2-.54-1.2-1.2s.54-1.2 1.2-1.2h7.1c.66 0 1.2.54 1.2 1.2s-.54 1.2-1.2 1.2z"/><path d="M31.05 61.32H18.53c-.66 0-1.2-.54-1.2-1.2s.54-1.2 1.2-1.2h12.52c.66 0 1.2.54 1.2 1.2s-.54 1.2-1.2 1.2zm4.42-6.11H11.89c-.66 0-1.2-.54-1.2-1.2s.54-1.2 1.2-1.2h23.58c.66 0 1.2.54 1.2 1.2s-.54 1.2-1.2 1.2z" fill="#82d400"/><path class="st4" d="M53.11 55.21H34.75c-.66 0-1.2-.54-1.2-1.2s.54-1.2 1.2-1.2h18.36c.66 0 1.2.54 1.2 1.2s-.54 1.2-1.2 1.2zm-40.79 0h-.43c-.66 0-1.2-.54-1.2-1.2s.54-1.2 1.2-1.2h.43c.66 0 1.2.54 1.2 1.2s-.54 1.2-1.2 1.2z"/></g></g><path id="Trazado_11847_1_" d="M57.57 16.69c.82 1.79.03 3.9-1.76 4.72s-3.9.03-4.72-1.76a3.56 3.56 0 011.76-4.72 3.552 3.552 0 014.72 1.76z" fill="none" stroke="#19a500" stroke-width="1.6" stroke-linecap="round" stroke-linejoin="round" stroke-miterlimit="10"/><g id="Grupo_15332" transform="translate(-4.294 -3.974)"><g id="Grupo_15326"><path id="Rectángulo_5195" class="st7" d="M14.88 8.85h.63c1.48 0 2.69 1.2 2.69 2.69v36.87c0 1.48-1.2 2.69-2.69 2.69h-.63a2.69 2.69 0 01-2.69-2.69V11.54c0-1.49 1.2-2.69 2.69-2.69z"/><g id="Grupo_15325"><g id="Grupo_15322"><path id="Línea_3007" class="st7" d="M10.82 18.26h8.74"/></g><g id="Grupo_15323"><path id="Línea_3008" class="st7" d="M10.82 29.01h8.74"/></g><g id="Grupo_15324"><path id="Línea_3009" class="st7" d="M10.82 39.77h8.74"/></g></g></g><g id="Grupo_15327"><path id="Línea_3010" class="st7" d="M44.54 30.42H33.72"/><path id="Línea_3011" class="st7" d="M52.6 21.42h-2.96"/><path id="Línea_3012" class="st7" d="M58.89 37.62v-9.43"/><path id="Trazado_12648" class="st7" d="M41.73 41.03v-4.38c0-1.24-1-2.24-2.24-2.24h-5.76"/></g><path id="Trazado_12649" class="st7" d="M62.76 36.35l-7.77 3.13v-3.13l-15.51 5.62v10.86h23.28V36.35z"/><path id="Trazado_12650" class="st7" d="M49.87 38.2l-1.03-23.91h-3.48l-1.11 25.95 5.62-2.04z"/><path id="Trazado_12651" class="st7" d="M39.52 51.23h-8.68c-1.33 0-2.41-1.08-2.41-2.41"/><path id="Trazado_12652" class="st7" d="M33.72 45.17c0 2-2.62 3.62-4.62 3.62h-1.31c-2 0-4.62-1.62-4.62-3.62v-15.1c0-2 1.62-3.62 3.62-3.62h3.31c2 0 3.62 1.62 3.62 3.62v15.1z"/><path id="Trazado_12653" class="st7" d="M33.77 44.93h.86v7.89"/><path id="Trazado_12654" class="st7" d="M23.15 44.93h-.86v7.89"/><path id="Línea_3013" class="st7" d="M23.22 34.42h10.41"/><path id="Línea_3014" class="st7" d="M23.22 40.48h10.41"/><path id="Trazado_12657" class="st7" d="M28.43 26.4v-1.98c0-1.33-1.08-2.41-2.41-2.41H11.68"/></g></g><path id="Rectángulo_3799-2_16_" class="st3" d="M0 0h65v65H0z"/></svg>