<svg version="1.1" id="Capa_1" xmlns="http://www.w3.org/2000/svg" x="0" y="0" viewBox="0 0 47 47" xml:space="preserve"><style>.st32{fill:#fff}</style><path fill="none" d="M0 0h47v47H0z"/><g id="Grupo_12884" transform="translate(-686.543 -905.232)"><g id="Grupo_12816"><path class="st32" d="M722.53 946.48h-22.98c-.41 0-.75-.34-.75-.75s.34-.75.75-.75h22.98a.749.749 0 110 1.5z" id="Line_1370"/><g id="Grupo_12814"><g id="Group_2600"><path class="st32" d="M711.05 927.81a5.19 5.19 0 01-3.68-1.52 5.183 5.183 0 01-1.53-3.68v-5.48c0-1.22.47-2.37 1.34-3.23.86-.86 2.01-1.34 3.23-1.34h1.28c2.52 0 4.56 2.05 4.56 4.56v5.29a5.316 5.316 0 01-4.67 5.37c-.19.02-.36.03-.53.03zm-.65-13.75c-.82 0-1.59.32-2.17.9-.58.58-.9 1.35-.9 2.16v5.48c0 .99.39 1.92 1.09 2.62.7.7 1.63 1.08 2.62 1.08.09-.04.24-.01.36-.02a3.82 3.82 0 003.34-3.86v-5.3a3.06 3.06 0 00-3.06-3.06h-1.28z" id="Path_1227"/></g></g><g id="Grupo_12815"><g id="Group_2600-2"><path class="st32" d="M722.53 946.48c-.38 0-.71-.29-.75-.69l-.44-5.09c-.05-.55-.07-1.11-.09-1.67-.07-1.9-.13-3.7-1.26-5.11a6.606 6.606 0 00-3.77-2.11c-1.6-.24-3.24-.35-4.9-.33h-.56c-1.64-.02-3.3.09-4.92.34-1.11.2-2.18.69-3.06 1.43-.32.27-.79.23-1.06-.09s-.23-.79.09-1.06a8.09 8.09 0 013.79-1.77c1.72-.26 3.46-.37 5.17-.36h.54c1.72-.02 3.45.1 5.14.35 1.82.32 3.48 1.25 4.68 2.63 1.47 1.83 1.54 3.96 1.62 6.02.02.54.04 1.07.08 1.6l.44 5.09c.04.41-.27.78-.68.81-.02.01-.04.01-.06.01z" id="Path_1226"/><path class="st32" d="M699.55 946.48h-.07a.75.75 0 01-.68-.81l.29-3.41a.75.75 0 01.81-.68c.41.04.72.4.68.81l-.29 3.41c-.03.39-.35.68-.74.68z" id="Path_1226-2"/></g></g></g><path class="st32" d="M717.77 919.59H704.3c-.41 0-.75-.34-.75-.75s.34-.75.75-.75h13.47a.749.749 0 110 1.5z" id="Línea_2157"/><path class="st32" d="M711.04 915.68c-.41 0-.75-.34-.75-.75v-3.2c0-.41.34-.75.75-.75s.75.34.75.75v3.2c0 .41-.33.75-.75.75z" id="Línea_2158"/><path class="st32" d="M700.31 940.96c-1.93 0-3.51-1.57-3.51-3.51s1.57-3.51 3.51-3.51c1.94 0 3.51 1.57 3.51 3.51s-1.57 3.51-3.51 3.51zm0-5.52a2.01 2.01 0 100 4.02 2.01 2.01 0 000-4.02z" id="Elipse_2123"/></g></svg>