<svg version="1.1" id="Capa_1" xmlns="http://www.w3.org/2000/svg" xmlns:xlink="http://www.w3.org/1999/xlink" x="0" y="0" viewBox="0 0 65 65" xml:space="preserve"><style>.st0{fill:none}.st2{fill:#95a6b1}.st3{fill:#97a5af}.st5{fill:#4da12e}</style><g id="Capa_1_1_"><g id="Grupo_13216_1_" transform="translate(.246 .246)"><path class="st0" d="M-.25-.25h65v65h-65z" id="Rectángulo_3799_1_"/></g><path class="st0" d="M0 0h65v65H0z" id="Rectángulo_3799-2_2_"/><g id="Grupo_14726_2_"><g id="Grupo_14725_2_"><path d="M12.13 12.52a4.98 4.98 0 010-9.96h.02a4.97 4.97 0 014.96 4.95v.03a4.98 4.98 0 01-4.98 4.98zm.02-8.36h-.01c-1.87 0-3.38 1.52-3.38 3.38s1.52 3.38 3.38 3.38 3.38-1.52 3.38-3.38v-.03c-.02-1.85-1.53-3.35-3.37-3.35z" fill="#19a500" id="Trazado_11848_5_"/><g id="Grupo_14723_2_"><path class="st2" d="M53.09 48.45H11.91c-.44 0-.8-.36-.8-.8V15.69c0-.44.36-.8.8-.8s.8.36.8.8v31.16h39.58V7.9H20.12c-.44 0-.8-.36-.8-.8s.36-.8.8-.8h32.97c.44 0 .8.36.8.8v40.55c0 .44-.36.8-.8.8z" id="Trazado_11852_5_"/><path class="st2" d="M53.09 12.29c-.44 0-.8-.36-.8-.8V7.1c0-.44.36-.8.8-.8s.8.36.8.8v4.39c0 .44-.36.8-.8.8z" id="Línea_2421_5_"/><path class="st2" d="M23.19 12.29c-.44 0-.8-.36-.8-.8V7.1c0-.44.36-.8.8-.8s.8.36.8.8v4.39c0 .44-.36.8-.8.8z" id="Línea_2422_5_"/><path class="st2" d="M31.46 12.29c-.44 0-.8-.36-.8-.8V7.1c0-.44.36-.8.8-.8s.8.36.8.8v4.39c0 .44-.36.8-.8.8z" id="Línea_2423_5_"/><path class="st2" d="M43.86 12.29c-.44 0-.8-.36-.8-.8V7.1c0-.44.36-.8.8-.8s.8.36.8.8v4.39c0 .44-.36.8-.8.8z" id="Línea_2424_5_"/><path class="st2" d="M56.65 12.38H20.12c-.44 0-.8-.36-.8-.8s.36-.8.8-.8h36.53c.44 0 .8.36.8.8s-.36.8-.8.8z" id="Línea_2425_5_"/><g id="Grupo_14722_2_"><path class="st2" d="M34.85 48.38c-.44 0-.8-.36-.8-.8V30.36c0-.44.36-.8.8-.8s.8.36.8.8v17.22c0 .44-.36.8-.8.8z" id="Línea_2730_2_"/><path class="st2" d="M43.94 48.38c-.44 0-.8-.36-.8-.8V30.36c0-.44.36-.8.8-.8s.8.36.8.8v17.22c0 .44-.36.8-.8.8z" id="Línea_2731_2_"/><g id="Grupo_14719_2_"><path class="st2" d="M34.81 39.61c-.11 0-.22-.02-.32-.07L11.59 29.5a.8.8 0 01-.41-1.05.8.8 0 011.05-.41l22.9 10.04a.8.8 0 01-.32 1.53z" id="Línea_2732_2_"/></g><g id="Grupo_14720_2_"><path class="st2" d="M34.81 31.16c-.11 0-.22-.02-.32-.07l-22.9-10.04a.788.788 0 01-.41-1.05.8.8 0 011.05-.41l22.9 10.04a.8.8 0 01-.32 1.53z" id="Línea_2733_2_"/></g><g id="Grupo_14721_2_"><path class="st2" d="M43.87 38.85h-9.02c-.44 0-.8-.36-.8-.8s.36-.8.8-.8h9.02c.44 0 .8.36.8.8s-.36.8-.8.8z" id="Línea_2734_2_"/><path class="st2" d="M43.87 43.74h-9.02c-.44 0-.8-.36-.8-.8s.36-.8.8-.8h9.02c.44 0 .8.36.8.8s-.36.8-.8.8z" id="Línea_2735_2_"/><path class="st2" d="M43.87 48.45h-9.02c-.44 0-.8-.36-.8-.8s.36-.8.8-.8h9.02c.44 0 .8.36.8.8s-.36.8-.8.8z" id="Línea_2736_2_"/></g><path class="st2" d="M16.19 31.46c-.44 0-.8-.36-.8-.8v-8.31c0-.44.36-.8.8-.8s.8.36.8.8v8.31c0 .44-.36.8-.8.8z" id="Línea_2737_2_"/><path class="st2" d="M20.98 33.46c-.44 0-.8-.36-.8-.8v-8.31c0-.44.36-.8.8-.8s.8.36.8.8v8.31c0 .44-.36.8-.8.8z" id="Línea_2738_2_"/><path class="st2" d="M25.76 35.69c-.44 0-.8-.36-.8-.8v-8.32c0-.44.36-.8.8-.8s.8.36.8.8v8.32c0 .44-.36.8-.8.8z" id="Línea_2739_2_"/><path class="st2" d="M30.55 37.6c-.44 0-.8-.36-.8-.8v-8.32c0-.44.36-.8.8-.8s.8.36.8.8v8.32c0 .44-.36.8-.8.8z" id="Línea_2740_2_"/></g></g><g id="Grupo_14724_2_"><path class="st3" d="M52.22 18.53h-9.29c-.44 0-.8-.36-.8-.8s.36-.8.8-.8h9.29c.44 0 .8.36.8.8s-.36.8-.8.8z" id="Línea_2741_2_"/><path class="st3" d="M39.97 18.53h-1.25c-.44 0-.8-.36-.8-.8s.36-.8.8-.8h1.25c.44 0 .8.36.8.8s-.36.8-.8.8z" id="Línea_2742_2_"/></g></g><path class="st3" d="M57.43 48.45H7.57c-.44 0-.8-.36-.8-.8s.36-.8.8-.8h49.86c.44 0 .8.36.8.8s-.36.8-.8.8z" id="Línea_2743_2_"/></g><defs><path id="SVGID_1_" d="M0 48.26h65V65H0z"/></defs><clipPath id="SVGID_2_"><use xlink:href="#SVGID_1_" overflow="visible"/></clipPath><g clip-path="url(#SVGID_2_)"><path class="st0" d="M0 48.26h65V65H0z"/><path class="st5" d="M45.38 61.32h-7.17c-.66 0-1.2-.54-1.2-1.2s.54-1.2 1.2-1.2h7.17c.66 0 1.2.54 1.2 1.2s-.54 1.2-1.2 1.2zm7.73 0h-.58c-.66 0-1.2-.54-1.2-1.2s.54-1.2 1.2-1.2h.58c.66 0 1.2.54 1.2 1.2s-.54 1.2-1.2 1.2zm-34.12 0h-7.1c-.66 0-1.2-.54-1.2-1.2s.54-1.2 1.2-1.2h7.1c.66 0 1.2.54 1.2 1.2s-.54 1.2-1.2 1.2z"/><path d="M31.05 61.32H18.53c-.66 0-1.2-.54-1.2-1.2s.54-1.2 1.2-1.2h12.52c.66 0 1.2.54 1.2 1.2s-.54 1.2-1.2 1.2zm4.42-6.11H11.89c-.66 0-1.2-.54-1.2-1.2s.54-1.2 1.2-1.2h23.58c.66 0 1.2.54 1.2 1.2s-.54 1.2-1.2 1.2z" fill="#96d200"/><path class="st5" d="M53.11 55.21H34.75c-.66 0-1.2-.54-1.2-1.2s.54-1.2 1.2-1.2h18.36c.66 0 1.2.54 1.2 1.2s-.54 1.2-1.2 1.2zm-40.79 0h-.43c-.66 0-1.2-.54-1.2-1.2s.54-1.2 1.2-1.2h.43c.66 0 1.2.54 1.2 1.2s-.54 1.2-1.2 1.2z"/></g></g></svg>