<svg version="1.1" id="Capa_1" xmlns="http://www.w3.org/2000/svg" x="0" y="0" viewBox="0 0 47 47" xml:space="preserve"><style>.st31{fill:#fff}</style><path fill="none" d="M0 0h47v47H0z"/><path class="st31" d="M37.94 40.25H5.6c-.41 0-.75-.34-.75-.75s.34-.75.75-.75h32.35c.41 0 .75.34.75.75s-.34.75-.76.75z" id="Línea_2165_1_"/><path class="st31" d="M9.31 40.25c-.41 0-.75-.34-.75-.75V12.16c0-2.24 1.82-4.06 4.06-4.06h13.96c2.24 0 4.06 1.82 4.06 4.06v13.95c0 .41-.34.75-.75.75s-.75-.34-.75-.75V12.16c0-1.41-1.15-2.56-2.56-2.56H12.62c-1.41 0-2.56 1.15-2.56 2.56V39.5c0 .41-.34.75-.75.75z" id="Trazado_11531_1_"/><path class="st31" d="M29.89 14.8H9.31c-.41 0-.75-.34-.75-.75s.34-.75.75-.75h20.58c.41 0 .75.34.75.75s-.34.75-.75.75z" id="Línea_2166_1_"/><path class="st31" d="M14.86 40.25c-.41 0-.75-.34-.75-.75V14.05c0-.41.34-.75.75-.75s.75.34.75.75V39.5c0 .41-.33.75-.75.75z" id="Línea_2167_1_"/><path class="st31" d="M14.86 18.74H9.31c-.41 0-.75-.34-.75-.75s.34-.75.75-.75h5.56c.41 0 .75.34.75.75s-.34.75-.76.75z" id="Línea_2168_1_"/><path class="st31" d="M14.86 22.68H9.31c-.41 0-.75-.34-.75-.75s.34-.75.75-.75h5.56c.41 0 .75.34.75.75s-.34.75-.76.75z" id="Línea_2169_1_"/><path class="st31" d="M14.86 26.63H9.31c-.41 0-.75-.34-.75-.75s.34-.75.75-.75h5.56c.41 0 .75.34.75.75s-.34.75-.76.75z" id="Línea_2170_1_"/><path class="st31" d="M14.86 30.57H9.31c-.41 0-.75-.34-.75-.75s.34-.75.75-.75h5.56c.41 0 .75.34.75.75s-.34.75-.76.75z" id="Línea_2171_1_"/><path class="st31" d="M14.86 34.51H9.31c-.41 0-.75-.34-.75-.75s.34-.75.75-.75h5.56c.41 0 .75.34.75.75s-.34.75-.76.75z" id="Línea_2172_1_"/><path class="st31" d="M30.53 21.44c-.34 0-.64-.23-.73-.57-.06-.23-1.34-5.56 1.28-9.43 2.63-3.87 8.06-4.65 8.29-4.68.38-.06.74.19.83.56.06.23 1.35 5.56-1.28 9.43s-8.06 4.65-8.29 4.68c-.03.01-.07.01-.1.01zm8.35-13.06c-1.45.33-4.82 1.33-6.56 3.9-1.74 2.56-1.43 6.06-1.2 7.53 1.45-.33 4.82-1.33 6.56-3.9 1.74-2.57 1.44-6.06 1.2-7.53zm-.58 7.95z" id="Trazado_11533_1_"/><path class="st31" d="M30.53 21.44a.753.753 0 01-.62-1.17l5.32-7.84c.23-.34.7-.43 1.04-.2.34.23.43.7.2 1.04l-5.32 7.84c-.14.21-.38.33-.62.33z" id="Línea_2173_1_"/><path class="st31" d="M33.47 17.1a.75.75 0 01-.74-.62l-.39-2.17c-.07-.41.2-.8.61-.87.41-.07.8.2.87.61l.39 2.17c.07.41-.2.8-.61.87-.04.01-.08.01-.13.01z" id="Línea_2174_1_"/><path class="st31" d="M33.47 17.1a.75.75 0 01-.14-1.49l2.26-.43c.41-.08.8.19.88.6.08.41-.19.8-.6.88l-2.26.43c-.04.01-.09.01-.14.01z" id="Línea_2175_1_"/><path class="st31" d="M37.4 24.92h-.05c-4.07-.03-7.25-3.59-7.38-3.74a.757.757 0 01.07-1.06c.31-.27.78-.24 1.06.07.03.03 2.88 3.21 6.27 3.23h.04c2.54 0 4.79-1.75 5.77-2.64-.96-.89-3.16-2.67-5.68-2.72a.75.75 0 01-.73-.77c.01-.41.4-.73.77-.73 4.02.09 7.15 3.58 7.28 3.73.25.29.25.72-.01 1-.15.16-3.36 3.63-7.41 3.63z" id="Trazado_11534_1_"/><path class="st31" d="M39.46 21.5l-8.93-.06c-.41 0-.75-.34-.74-.76 0-.41.34-.74.75-.74h.01l8.91.06c.41 0 .75.34.74.76.01.41-.33.74-.74.74z" id="Línea_2176_1_"/><path class="st31" d="M37.11 21.48a.745.745 0 01-.52-1.28L38 18.81c.3-.29.77-.29 1.06.01.29.3.29.77-.01 1.06l-1.41 1.39c-.15.14-.34.21-.53.21z" id="Línea_2177_1_"/><path class="st31" d="M36.43 22.89c-.19 0-.39-.07-.53-.22l-1.39-1.41c-.29-.3-.29-.77.01-1.06.29-.29.77-.29 1.06.01l1.39 1.41c.29.3.29.77-.01 1.06-.15.13-.34.21-.53.21z" id="Línea_2178_1_"/><path class="st31" d="M29.89 34.73c-1.94 0-3.51-1.58-3.51-3.51s1.58-3.51 3.51-3.51 3.51 1.58 3.51 3.51-1.58 3.51-3.51 3.51zm0-5.52a2.01 2.01 0 100 4.02 2.01 2.01 0 000-4.02z" id="Elipse_2130_1_"/><path class="st31" d="M29.89 40.25c-.41 0-.75-.34-.75-.75v-3.24c0-.41.34-.75.75-.75s.75.34.75.75v3.24c0 .41-.34.75-.75.75z"/></svg>