<svg xmlns="http://www.w3.org/2000/svg" width="169.899" height="49"><g data-name="Grupo 20584" fill="none"><g data-name="Grupo 20576" stroke="#fff" stroke-linecap="round" stroke-linejoin="round" stroke-width="1.6" transform="translate(59.85)"><circle data-name="Elipse 1636" cx="23.5" cy="23.5" r="23.5" transform="translate(-59.05 1)"/><g data-name="Grupo 20575"><g data-name="Grupo 20574"><path data-name="Trazado 19949" d="M-35.632 36.386c-.388.039-6.445.5-9.862-2.912-3.521-3.533-2.9-9.862-2.9-9.862s6.342-.622 9.863 2.9 2.912 9.875 2.912 9.875z"/><path data-name="Trazado 19950" d="M-22.7 23.612s.621 6.329-2.912 9.862c-3.365 3.365-9.28 2.964-9.824 2.912v-2.8a11.5 11.5 0 012.861-7.079c3.531-3.517 9.875-2.895 9.875-2.895z"/><path data-name="Trazado 19951" d="M-30.662 16.027c0 4.983-4.918 9.034-4.918 9.034s-4.92-4.051-4.92-9.034 4.918-9.034 4.918-9.034 4.92 4.038 4.92 9.034z"/></g><path data-name="Trazado 19952" d="M-30.658 16.025c0 4.988-4.923 9.032-4.923 9.032s-4.924-4.044-4.924-9.032 4.924-9.032 4.924-9.032 4.923 4.044 4.923 9.032z"/><path data-name="Línea 4608" d="M-35.581 14.039v11.018"/><path data-name="Trazado 19953" d="M-38.529 26.511c3.527 3.528 2.9 9.869 2.9 9.869s-6.34.621-9.868-2.906-2.9-9.868-2.9-9.868 6.34-.622 9.868 2.905z"/><path data-name="Línea 4609" d="M-43.415 28.589l7.791 7.791"/><path data-name="Trazado 19954" d="M-32.573 26.511c-3.528 3.528-2.906 9.869-2.906 9.869s6.341.621 9.868-2.906 2.906-9.868 2.906-9.868-6.341-.622-9.868 2.905z"/><path data-name="Línea 4610" d="M-27.688 28.589l-7.791 7.791"/><path data-name="Línea 4611" d="M-35.44 25.057v16.95"/><path data-name="Línea 4612" d="M-41.594 42.007h12.502"/></g></g><g data-name="Grupo 20579" transform="translate(59.85)"><circle data-name="Elipse 1636" cx="23.5" cy="23.5" r="23.5" transform="translate(1 1)" stroke="#fff" stroke-linecap="round" stroke-linejoin="round" stroke-width="1.566"/><path data-name="Rectángulo 5814" d="M0 0h49v49H0z"/><g data-name="Grupo 20578" stroke="#fff" stroke-linecap="round" stroke-linejoin="round" stroke-width="1.6"><path data-name="Trazado 19955" d="M27.036 14.464h9.015v10.62l3.862 3.862V38.6H15.776l2.9-8.69h3.862l2.9-9.655z"/><path data-name="Trazado 19956" d="M31.736 14.464v3.862l1.419.966v3.862"/><path data-name="Trazado 19957" d="M35.086 38.6v-2.9l.966-1.931v-2.9"/><path data-name="Trazado 19958" d="M27.362 38.6v-3.861l-1.931-2.9v-3.858"/><g data-name="Grupo 20577"><path data-name="Trazado 19959" d="M8.866 13.174l-1.78 6.062A16.9 16.9 0 0122 19.312s-1.583-7.355-13.134-6.138z"/><path data-name="Trazado 19960" d="M11.624 13.044L12 10.4l3.2.463-.367 2.52"/><path data-name="Trazado 19961" d="M10.92 17.91L9.5 27.768l3.2.463 1.535-10.678"/></g></g></g><g data-name="Grupo 20583" transform="translate(62.659)"><circle data-name="Elipse 1636" cx="23.5" cy="23.5" r="23.5" transform="translate(59.241 1)" stroke="#fff" stroke-linecap="round" stroke-linejoin="round" stroke-width="1.566"/><path data-name="Rectángulo 5815" d="M58.241 0h49v49h-49z"/><g data-name="Grupo 20582" stroke="#fff" stroke-linecap="round" stroke-linejoin="round" stroke-width="1.6"><g data-name="Grupo 20580"><path data-name="Trazado 19962" d="M85 21.115h-.655a3.726 3.726 0 001.5-3.032 3.527 3.527 0 00-3.391-3.65h-1.637a3.247 3.247 0 00.409-1.564 4.133 4.133 0 00-8.2 0 3.247 3.247 0 00.409 1.564H71.8a3.527 3.527 0 00-3.391 3.65 3.726 3.726 0 001.505 3.032h-.655a5.209 5.209 0 00-5.009 5.39 5.21 5.21 0 005.006 5.395H85a5.21 5.21 0 005.006-5.4A5.209 5.209 0 0085 21.115z"/><path data-name="Línea 4613" d="M77.127 16.077V39.74"/><path data-name="Línea 4614" d="M77.052 28.895L72.061 24.5"/><path data-name="Línea 4615" d="M80.259 18.885l-3.136 2.767"/><path data-name="Línea 4616" d="M80.736 39.741h-7.219"/></g><g data-name="Grupo 20581"><path data-name="Trazado 19963" d="M75.583 27.6v0"/><path data-name="Trazado 19964" d="M84.233 14.859l.141.13a15.714 15.714 0 01-.12-2.12 4.137 4.137 0 018.206 0 3.185 3.185 0 01-.417 1.564h1.644a3.533 3.533 0 013.393 3.65 3.728 3.728 0 01-1.508 3.032h.658a5.207 5.207 0 015 5.39 5.208 5.208 0 01-5 5.391H80.484"/><path data-name="Línea 4617" d="M88.353 39.741v-7.845"/><path data-name="Trazado 19965" d="M88.353 22.519v-6.442"/><path data-name="Línea 4618" d="M91.489 18.885l-3.136 2.767"/><path data-name="Trazado 19966" d="M91.966 39.741h-11.23"/></g></g></g></g></svg>