<svg version="1.1" id="Capa_1" xmlns="http://www.w3.org/2000/svg" x="0" y="0" viewBox="0 0 65 65" xml:space="preserve"><style>.st1{fill:none}.st2{fill:#95a6b1}.st3{fill:#4da12e}</style><path class="st1" d="M0 48.26h65V65H0z"/><path class="st3" d="M45.38 61.32h-7.17c-.66 0-1.2-.54-1.2-1.2s.54-1.2 1.2-1.2h7.17c.66 0 1.2.54 1.2 1.2s-.54 1.2-1.2 1.2zm7.73 0h-.58c-.66 0-1.2-.54-1.2-1.2s.54-1.2 1.2-1.2h.58c.66 0 1.2.54 1.2 1.2s-.54 1.2-1.2 1.2zm-34.12 0h-7.1c-.66 0-1.2-.54-1.2-1.2s.54-1.2 1.2-1.2h7.1c.66 0 1.2.54 1.2 1.2s-.54 1.2-1.2 1.2z"/><path d="M31.05 61.32H18.53c-.66 0-1.2-.54-1.2-1.2s.54-1.2 1.2-1.2h12.52c.66 0 1.2.54 1.2 1.2s-.54 1.2-1.2 1.2zm4.42-6.11H11.89c-.66 0-1.2-.54-1.2-1.2s.54-1.2 1.2-1.2h23.58c.66 0 1.2.54 1.2 1.2s-.53 1.2-1.2 1.2z" fill="#96d200"/><path class="st3" d="M53.11 55.21H34.75c-.66 0-1.2-.54-1.2-1.2s.54-1.2 1.2-1.2h18.36c.66 0 1.2.54 1.2 1.2s-.54 1.2-1.2 1.2zm-40.79 0h-.43c-.66 0-1.2-.54-1.2-1.2s.54-1.2 1.2-1.2h.43c.66 0 1.2.54 1.2 1.2s-.54 1.2-1.2 1.2z"/><g id="Grupo_12949_1_" transform="translate(-.246 -.246)"><g id="Grupo_11514_1_" transform="translate(10.072 11.149)"><g id="Grupo_15064_2_"><path class="st2" d="M21.92 12.53c-.4 0-.75-.3-.79-.71a.8.8 0 01.7-.89c3.38-.4 4.23-1.99 4.85-3.16.21-.39.69-.54 1.08-.33.39.21.54.69.33 1.08-.69 1.31-1.86 3.5-6.07 3.99-.04.02-.07.02-.1.02z" id="Trazado_12510_2_"/><path d="M13.6 13.31c-.52 0-1.05-.09-1.55-.28a4.4 4.4 0 01-2.49-2.32 4.454 4.454 0 012.19-5.89 4.454 4.454 0 015.89 2.19c.47 1.02.53 2.18.18 3.24a4.462 4.462 0 01-4.22 3.06zm-.01-7.29c-.39 0-.79.08-1.18.26a2.835 2.835 0 00-1.4 3.77c.32.69.88 1.22 1.59 1.48a2.8 2.8 0 002.18-.08 2.85 2.85 0 001.41-3.77 2.863 2.863 0 00-2.6-1.66z" fill="#19a500" id="Trazado_12511_3_"/><path class="st2" d="M20 15.16c-.08 0-.16-.01-.24-.04a8.71 8.71 0 01-2.05-.96.806.806 0 01-.25-1.1c.24-.37.73-.48 1.1-.25.52.33 1.09.59 1.67.78.42.13.66.58.52 1-.09.35-.41.57-.75.57z" id="Trazado_12512_2_"/><path class="st2" d="M22.37 15.53c-.88 0-1.76-.13-2.61-.4a.79.79 0 01-.52-1 .79.79 0 011-.52c.69.22 1.43.29 2.14.33 3.93 0 7.12-3.19 7.12-7.12 0-2.02-2.14-6.05-5.87-11.05a1.549 1.549 0 00-1.48-.61c-.41.06-.77.28-1.02.61a52.4 52.4 0 00-4.58 7.1c-.21.39-.69.54-1.08.33a.796.796 0 01-.33-1.08 54.96 54.96 0 014.71-7.32 3.11 3.11 0 012.07-1.23c.83-.12 1.67.09 2.34.59.25.18.47.4.65.65 2.82 3.78 6.18 8.93 6.18 12 0 4.81-3.91 8.72-8.72 8.72.01 0 .01 0 0 0z" id="Trazado_12513_4_"/><path class="st2" d="M31.92 37.03H13.43c-.38 0-.71-.27-.79-.65L9.16 17.89c-.08-.43.2-.85.64-.93.43-.08.85.2.93.64l.77 4.1c.91.12 1.45.53 1.9.87.44.33.76.58 1.46.58s1.02-.24 1.46-.58c.53-.4 1.19-.9 2.43-.9 1.24 0 1.9.5 2.43.9.44.33.76.58 1.47.58s1.02-.24 1.47-.58c.53-.4 1.19-.9 2.43-.9 1.24 0 1.9.5 2.43.9.44.33.76.58 1.47.58s1.03-.24 1.47-.58c.45-.34.99-.75 1.9-.87l.77-4.1c.08-.43.5-.72.93-.64.43.08.72.5.64.93L32.7 36.38c-.07.38-.4.65-.78.65zm-17.83-1.6h17.16l2.26-12c-.21.1-.4.24-.61.4-.53.4-1.19.9-2.43.9-1.24 0-1.9-.5-2.44-.9-.44-.33-.76-.58-1.47-.58s-1.03.24-1.47.58c-.53.4-1.19.9-2.43.9-1.24 0-1.9-.5-2.43-.9-.44-.33-.76-.58-1.47-.58-.7 0-1.02.24-1.46.58-.53.4-1.19.9-2.43.9s-1.9-.5-2.43-.9c-.21-.16-.4-.3-.61-.4l2.26 12z" id="Trazado_12514_2_"/></g></g></g><path class="st1" d="M0 0h65v65H0z" id="Rectángulo_3799-2_1_"/></svg>