<svg version="1.1" id="Capa_1" xmlns="http://www.w3.org/2000/svg" xmlns:xlink="http://www.w3.org/1999/xlink" x="0" y="0" viewBox="0 0 121 65" xml:space="preserve"><style>.st1{fill:none}.st3{fill:#4da12e}.st5,.st6{fill:none;stroke:#93a4af;stroke-width:1.8;stroke-linecap:round;stroke-linejoin:round}.st6{stroke:#95a3ad}</style><g id="Capa_1_1_"><path class="st1" d="M0 0h121v65H0z"/><defs><path id="SVGID_1_" d="M28 48.26h65V65H28z"/></defs><clipPath id="SVGID_2_"><use xlink:href="#SVGID_1_" overflow="visible"/></clipPath><g clip-path="url(#SVGID_2_)"><path class="st1" d="M28 48.26h65V65H28z"/><path class="st3" d="M73.38 61.32h-7.17c-.66 0-1.2-.54-1.2-1.2s.54-1.2 1.2-1.2h7.17c.66 0 1.2.54 1.2 1.2s-.54 1.2-1.2 1.2zm7.73 0h-.58c-.66 0-1.2-.54-1.2-1.2s.54-1.2 1.2-1.2h.58c.66 0 1.2.54 1.2 1.2s-.54 1.2-1.2 1.2zm-34.12 0h-7.1c-.66 0-1.2-.54-1.2-1.2s.54-1.2 1.2-1.2h7.1c.66 0 1.2.54 1.2 1.2s-.54 1.2-1.2 1.2z"/><path d="M59.05 61.32H46.53c-.66 0-1.2-.54-1.2-1.2s.54-1.2 1.2-1.2h12.52c.66 0 1.2.54 1.2 1.2s-.54 1.2-1.2 1.2zm4.42-6.11H39.89c-.66 0-1.2-.54-1.2-1.2s.54-1.2 1.2-1.2h23.58c.66 0 1.2.54 1.2 1.2s-.54 1.2-1.2 1.2z" fill="#96d200"/><path class="st3" d="M81.11 55.21H62.75c-.66 0-1.2-.54-1.2-1.2s.54-1.2 1.2-1.2h18.36c.66 0 1.2.54 1.2 1.2s-.54 1.2-1.2 1.2zm-40.79 0h-.43c-.66 0-1.2-.54-1.2-1.2s.54-1.2 1.2-1.2h.43c.66 0 1.2.54 1.2 1.2s-.54 1.2-1.2 1.2z"/></g><g id="Grupo_13591_3_"><g id="Grupo_13590_3_"><path id="Rectángulo_4762_3_" class="st5" d="M15.26 38.23h5.67v10.02h-5.67z"/><path id="Rectángulo_4763_3_" class="st5" d="M9.13 41.58h6.12v3.31H9.13z"/><path id="Trazado_11867_3_" class="st5" d="M107.64 17.98l4.22-4.96"/><path id="Trazado_11867_4_" class="st5" d="M111.87 23.36L94.69 42.45l-.54.54c-2.07 2.07-4.5 3.33-7.42 3.33h-65.8v-6.15h60.03l3.82-.05a7.71 7.71 0 005.35-2.24l7.41-8.04 2.05-2.41"/></g></g><path id="Trazado_11837_2_" class="st5" d="M73.99 23.52V30h10.05v-6.48H73.99"/><path id="Línea_2401_2_" class="st5" d="M79.01 23.52v-3.96"/><path id="Línea_2402_2_" class="st5" d="M76.45 19.56h5.33"/><path id="Línea_2403_2_" class="st5" d="M77.41 26.75h6.63"/><path class="st5" d="M9.13 29.99h88.02m-19.75 0v10.17m3.78-10.17v10.17"/><path id="Trazado_12652_1_" class="st6" d="M59.69 15.29c2 0 3.62 2.62 3.62 4.62v1.31c0 2-1.62 4.62-3.62 4.62H44.6c-2 0-3.62-1.62-3.62-3.62v-3.31c0-2 1.62-3.62 3.62-3.62h15.09z"/><path id="Línea_3013_1_" class="st6" d="M48.94 25.78v-10.4"/><path id="Línea_3014_1_" class="st6" d="M55.01 25.78v-10.4"/><path class="st5" d="M18.03 29.99V3.88h16.93v26.11M18.03 3.88v4.79m5.64-4.79v4.79m5.65-4.79v4.79m5.64.04V3.88M15.9 8.73h21.18m-1.91 11.43h5.68"/><path class="st5" d="M18.03 29.99V3.88h16.93v26.11M18.03 3.88v4.79m5.64-4.79v4.79m5.65-4.79v4.79m5.64.04V3.88M15.9 8.73h21.18"/><path class="st5" d="M18.06 13.33c1.41-1.02 4.35-1.55 6.71-.55s7.56 1.87 10.2-.53m-16.83 7.39H28.3"/><path id="Línea_3013_2_" class="st6" d="M43.94 29.78v-3.4"/><path id="Línea_3014_2_" class="st6" d="M60.01 29.78v-3.4"/><path id="Trazado_11847_2_" d="M106.4 21.1c.82 1.79.03 3.9-1.76 4.72s-3.9.03-4.72-1.76a3.56 3.56 0 011.76-4.72c1.78-.82 3.89-.04 4.71 1.74.01.01.01.01.01.02z" fill="none" stroke="#19a500" stroke-width="1.8" stroke-linecap="round" stroke-linejoin="round" stroke-miterlimit="10"/></g></svg>