<svg version="1.1" id="Layer_1" xmlns="http://www.w3.org/2000/svg" x="0" y="0" width="47" height="47" xml:space="preserve"><style>.st1{fill:#fff}</style><g id="Group_10602" transform="translate(-5848 906)"><path fill="none" d="M5848-906h47v47h-47z" id="Rectangle_3916"/><g id="Group_10601" transform="translate(5431.558 -3893.124)"><path class="st1" d="M452 3024.5h-20.5c-4.1 0-7.4-3.3-7.4-7.4v-6.7c0-.6.4-1 1-1s1 .4 1 1v6.7c0 3 2.4 5.4 5.4 5.4H452c3 0 5.4-2.4 5.4-5.4v-13.2h-9.7c-.6 0-1-.4-1-1v-2.5c0-.7-.6-1.3-1.3-1.3h-7.3c-.7 0-1.3.6-1.3 1.3v2.5c0 .6-.4 1-1 1h-3.6c-.6 0-1-.4-1-1s.4-1 1-1h2.6v-1.5c0-1.8 1.5-3.3 3.3-3.3h7.3c1.8 0 3.3 1.5 3.3 3.3v1.5h9.7c.6 0 1 .4 1 1v14.2c-.1 4.1-3.4 7.4-7.4 7.4z" id="Path_190"/><path class="st1" d="M425.1 3007.6c-1.3 0-2.4-.5-3.3-1.4-.9-.9-1.4-2.1-1.4-3.3s.5-2.4 1.4-3.3c.9-.9 2.1-1.4 3.3-1.4 2.6 0 4.7 2.1 4.7 4.7 0 1.3-.5 2.4-1.4 3.3-.8.9-2 1.4-3.3 1.4.1 0 0 0 0 0zm.1-7.4a2.732 2.732 0 00-2.7 2.7 2.732 2.732 0 002.7 2.7 2.732 2.732 0 002.7-2.7c-.1-1.5-1.3-2.7-2.7-2.7z" id="Path_191"/><path class="st1" d="M455 3007.6h-4.8c-.6 0-1-.4-1-1s.4-1 1-1h4.8c.6 0 1 .4 1 1s-.4 1-1 1z" id="Line_182"/><path class="st1" d="M444.1 3002.6h-4.8c-.6 0-1-.4-1-1s.4-1 1-1h4.8c.6 0 1 .4 1 1s-.4 1-1 1z" id="Line_183"/><path class="st1" d="M455 3010.4h-4.8c-.6 0-1-.4-1-1s.4-1 1-1h4.8c.6 0 1 .4 1 1s-.4 1-1 1z" id="Line_184"/><path class="st1" d="M441.7 3020.5c-4 0-7.3-3.3-7.3-7.3s3.3-7.3 7.3-7.3 7.3 3.3 7.3 7.3-3.2 7.3-7.3 7.3zm0-12.6c-2.9 0-5.3 2.4-5.3 5.3s2.4 5.3 5.3 5.3 5.3-2.4 5.3-5.3-2.3-5.3-5.3-5.3z" id="Ellipse_90"/></g></g></svg>