<svg xmlns="http://www.w3.org/2000/svg" viewBox="0 0 60 60"><style>.st3{fill:#fff}</style><g id="Capa_2"><path d="M30 0c16.57 0 30 13.43 30 30S46.57 60 30 60 0 46.57 0 30 13.43 0 30 0z" fill="#19a500" id="Rectángulo_3799_58_"/></g><g id="Capa_1"><path fill="none" d="M0 0h60v60H0z" id="Rectángulo_3799_28_"/><path class="st3" d="M35.63 29.93h-.08c-.23 0-2.65-.07-3.98-2.44-1.47-2.62 1.2-6.33 1.32-6.48l2.23-3.59c.1-.16.27-.26.46-.26.17-.01.36.09.47.24 0 0 1.39 2.04 2.24 3.34.83 1.27 2.79 4.25 1.45 6.86-1.15 2.22-3.65 2.33-4.11 2.33zm-.06-1.11c.12 0 2.26.05 3.17-1.73 1.04-2.04-.66-4.64-1.39-5.75-.53-.81-1.28-1.92-1.75-2.62l-1.81 2.91c-.05.07-2.39 3.33-1.27 5.32 1.05 1.87 2.96 1.85 3.05 1.87zM21.29 52.67c-5.1 0-9.24-4.15-9.24-9.24 0-2.79 1.35-5.59 3.45-7.2V13.12c0-3.19 2.6-5.79 5.79-5.79s5.79 2.6 5.79 5.79v23.12a9.154 9.154 0 013.45 7.19c0 5.1-4.14 9.24-9.24 9.24zm0-44.24c-2.58 0-4.69 2.1-4.69 4.69v23.39c0 .18-.09.35-.23.45-1.92 1.36-3.21 3.96-3.21 6.47 0 4.49 3.65 8.14 8.14 8.14s8.14-3.65 8.14-8.14c0-2.56-1.18-4.92-3.23-6.48a.545.545 0 01-.22-.44V13.12c-.01-2.58-2.12-4.69-4.7-4.69z"/><path class="st3" d="M20.8 18.37h-4.15c-.3 0-.55-.25-.55-.55s.25-.55.55-.55h4.15c.3 0 .55.25.55.55s-.25.55-.55.55zm0 9.4h-4.22c-.3 0-.55-.25-.55-.55s.25-.55.55-.55h4.22c.3 0 .55.25.55.55s-.25.55-.55.55zm2.37-4.52h-6.46c-.3 0-.55-.25-.55-.55s.25-.55.55-.55h6.46c.3 0 .55.25.55.55s-.25.55-.55.55zm0 8.81h-6.46c-.3 0-.55-.25-.55-.55s.25-.55.55-.55h6.46c.3 0 .55.25.55.55s-.25.55-.55.55zM21.36 49.7c-3.38 0-6.13-2.75-6.13-6.13s2.75-6.13 6.13-6.13 6.13 2.75 6.13 6.13-2.75 6.13-6.13 6.13zm0-11.15c-2.77 0-5.02 2.25-5.02 5.02 0 2.77 2.25 5.02 5.02 5.02s5.02-2.25 5.02-5.02c0-2.77-2.25-5.02-5.02-5.02zm10.13 12.33c-1.55 0-3.09-.18-4.59-.54a.554.554 0 01-.41-.67c.07-.3.37-.48.67-.41 1.41.34 2.87.51 4.33.51 3.81 0 7.47-1.14 10.58-3.3a.56.56 0 01.77.14c.17.25.11.59-.14.77-3.3 2.29-7.18 3.5-11.21 3.5zm18.65-14.77c-.04 0-.08 0-.13-.02a.548.548 0 01-.41-.66c.33-1.39.49-2.82.49-4.26 0-10.26-8.34-18.6-18.6-18.6-1.68 0-3.07.19-4.67.63-.3.08-.6-.09-.68-.39-.08-.29.09-.6.39-.68 1.7-.47 3.19-.67 4.97-.67 10.87 0 19.71 8.84 19.71 19.7 0 1.52-.17 3.04-.52 4.51-.07.27-.3.44-.55.44zM11.59 16.99c-.3 0-.55-.25-.55-.55v-5.06c0-.31.25-.55.55-.55s.55.25.55.55v5.06c0 .3-.25.55-.55.55z"/><path class="st3" d="M14.12 14.46H9.06c-.3 0-.55-.25-.55-.55s.25-.55.55-.55h5.06c.3 0 .55.25.55.55s-.25.55-.55.55zm21.37 22.66h-5.06c-.3 0-.55-.25-.55-.55s.25-.55.55-.55h5.06c.3 0 .55.25.55.55s-.25.55-.55.55z"/><path d="M46.34 45.97c-.62 0-1.24-.13-1.83-.39-2.24-1.01-3.25-3.65-2.24-5.89a4.417 4.417 0 012.48-2.34c1.11-.42 2.32-.39 3.41.1s1.92 1.37 2.34 2.48.39 2.32-.1 3.41a4.417 4.417 0 01-2.48 2.34c-.51.19-1.04.29-1.58.29zm.01-7.72a3.233 3.233 0 00-2.97 1.92c-.73 1.64 0 3.57 1.64 4.31.79.36 1.68.38 2.49.07.81-.31 1.46-.92 1.81-1.71.36-.79.38-1.68.07-2.49-.31-.81-.92-1.46-1.71-1.81-.43-.19-.88-.29-1.33-.29z" fill="#efef00"/></g></svg>