<svg version="1.1" id="Layer_1" xmlns="http://www.w3.org/2000/svg" x="0" y="0" viewBox="0 0 32 32" xml:space="preserve"><style>.st0{fill:#fff}</style><g id="Group_3196" transform="translate(5396 -429)"><g id="Group_3195" transform="translate(.89 1.744)"><path class="st0" d="M-5368.5 456.5h-22.8c-1.6 0-2.9-1.3-2.9-2.9v-13.4c0-.4.4-.8.8-.8s.8.4.8.8v13.4c0 .7.6 1.3 1.3 1.3h22.8c.7 0 1.3-.6 1.3-1.3v-19.5h-19c-.4 0-.8-.4-.8-.8s.4-.8.8-.8h19.8c.4 0 .8.4.8.8v20.3c-.1 1.6-1.3 2.9-2.9 2.9z" id="Path_2683"/><path class="st0" d="M-5366.4 438.1h-19.6c-.4 0-.8-.4-.8-.8s.4-.8.8-.8h19.6c.4 0 .8.4.8.8s-.4.8-.8.8z" id="Line_76"/><path class="st0" d="M-5383.6 435.7c-.4 0-.8-.4-.8-.8v-3.7c0-.4.4-.8.8-.8s.8.4.8.8v3.7c0 .5-.4.8-.8.8z" id="Line_432"/><path class="st0" d="M-5379.7 435.7c-.4 0-.8-.4-.8-.8v-3.7c0-.4.4-.8.8-.8s.8.4.8.8v3.7c0 .5-.3.8-.8.8z" id="Line_433"/><path class="st0" d="M-5375.9 435.7c-.4 0-.8-.4-.8-.8v-3.7c0-.4.4-.8.8-.8s.8.4.8.8v3.7c0 .5-.4.8-.8.8z" id="Line_434"/><path class="st0" d="M-5371.9 435.7c-.4 0-.8-.4-.8-.8v-3.7c0-.4.4-.8.8-.8s.8.4.8.8v3.7c0 .5-.4.8-.8.8z" id="Line_435"/><path class="st0" d="M-5391.9 438.1c-2.1 0-3.8-1.7-3.8-3.8s1.7-3.8 3.8-3.8c1 0 1.9.4 2.7 1.1.7.7 1.1 1.7 1.1 2.7 0 2.1-1.7 3.8-3.8 3.8zm0-6c-1.2 0-2.2 1-2.2 2.2s1 2.2 2.2 2.2 2.2-1 2.2-2.2c0-.6-.2-1.1-.7-1.6-.3-.4-.9-.6-1.5-.6z" id="Path_274"/><path class="st0" d="M-5378.5 443.6h-2.3c-.4 0-.8-.4-.8-.8s.4-.8.8-.8h2.3c.4 0 .8.4.8.8s-.4.8-.8.8z" id="Line_436"/><path class="st0" d="M-5371.3 443.6h-2.3c-.4 0-.8-.4-.8-.8s.4-.8.8-.8h2.3c.4 0 .8.4.8.8s-.3.8-.8.8z" id="Line_437"/><path class="st0" d="M-5385.6 447.5h-2.3c-.4 0-.8-.4-.8-.8s.4-.8.8-.8h2.3c.4 0 .8.4.8.8s-.4.8-.8.8z" id="Line_438"/><path class="st0" d="M-5378.5 447.5h-2.3c-.4 0-.8-.4-.8-.8s.4-.8.8-.8h2.3c.4 0 .8.4.8.8s-.4.8-.8.8z" id="Line_439"/><path class="st0" d="M-5371.3 447.5h-2.3c-.4 0-.8-.4-.8-.8s.4-.8.8-.8h2.3c.4 0 .8.4.8.8s-.3.8-.8.8z" id="Line_440"/><path class="st0" d="M-5385.6 452h-2.3c-.4 0-.8-.4-.8-.8s.4-.8.8-.8h2.3c.4 0 .8.4.8.8s-.4.8-.8.8z" id="Line_441"/><path class="st0" d="M-5378.5 452h-2.3c-.4 0-.8-.4-.8-.8s.4-.8.8-.8h2.3c.4 0 .8.4.8.8s-.4.8-.8.8z" id="Line_442"/></g><path fill="none" d="M-5396 429h32v32h-32z" id="Rectangle_1199"/></g></svg>