<svg xmlns="http://www.w3.org/2000/svg" width="29" height="45.786"><g data-name="Grupo 14877" transform="translate(-676.354 -656.214)"><circle data-name="Elipse 2321" cx="6" cy="6" r="6" transform="translate(685 690)" fill="#172211" opacity=".7" style="mix-blend-mode:multiply;isolation:isolate"/><g data-name="Grupo 14876"><path data-name="Trazado 12028" d="M690.854 656.214a14.5 14.5 0 0114.5 14.5 14.5 14.5 0 01-14.5 14.5 14.5 14.5 0 01-14.5-14.5 14.5 14.5 0 0114.5-14.5z" fill="#ffff10"/><path data-name="Trazado 12029" d="M685.577 683.214l4.95-4.95 4.95 4.95-4.95 9.396z" fill="#ffff10"/><g data-name="Group 13222" fill="none" stroke="#00009e" stroke-linecap="round" stroke-linejoin="round" stroke-width="1.4"><path data-name="Path 11404" d="M688.106 665.354a2.973 2.973 0 01-2.974 2.972 2.972 2.972 0 01-2.972-2.974 2.973 2.973 0 012.973-2.972 2.966 2.966 0 012.973 2.957z"/><path data-name="Path 11405" d="M690.919 662.853a8.159 8.159 0 015.232 2.378"/><path data-name="Path 11406" d="M684.579 676.803a8.152 8.152 0 01-2.4-5.656"/><path data-name="Path 11407" d="M696.151 665.23a8.183 8.183 0 010 11.573 8.182 8.182 0 01-11.572 0"/></g></g></g></svg>