<svg version="1.1" id="Capa_1" xmlns="http://www.w3.org/2000/svg" xmlns:xlink="http://www.w3.org/1999/xlink" x="0" y="0" viewBox="0 0 65 65" xml:space="preserve"><style>.st1{fill:none}.st3{fill:#19a301}.st5{fill:none;stroke:#90a6b1;stroke-width:1.6;stroke-linecap:round;stroke-linejoin:round}</style><g id="Capa_1_1_"><path id="Rectángulo_3799-2_4_" class="st1" d="M0 0h65v65H0z"/><defs><path id="SVGID_1_" d="M0 48.26h65V65H0z"/></defs><clipPath id="SVGID_2_"><use xlink:href="#SVGID_1_" overflow="visible"/></clipPath><g clip-path="url(#SVGID_2_)"><path class="st1" d="M0 48.26h65V65H0z"/><path class="st3" d="M45.38 61.32h-7.17c-.66 0-1.2-.54-1.2-1.2s.54-1.2 1.2-1.2h7.17c.66 0 1.2.54 1.2 1.2s-.54 1.2-1.2 1.2zm7.73 0h-.58c-.66 0-1.2-.54-1.2-1.2s.54-1.2 1.2-1.2h.58c.66 0 1.2.54 1.2 1.2s-.54 1.2-1.2 1.2zm-34.12 0h-7.1c-.66 0-1.2-.54-1.2-1.2s.54-1.2 1.2-1.2h7.1c.66 0 1.2.54 1.2 1.2s-.54 1.2-1.2 1.2z"/><path d="M31.05 61.32H18.53c-.66 0-1.2-.54-1.2-1.2s.54-1.2 1.2-1.2h12.52c.66 0 1.2.54 1.2 1.2s-.54 1.2-1.2 1.2zm4.42-6.11H11.89c-.66 0-1.2-.54-1.2-1.2s.54-1.2 1.2-1.2h23.58c.66 0 1.2.54 1.2 1.2s-.54 1.2-1.2 1.2z" fill="#82d400"/><path class="st3" d="M53.11 55.21H34.75c-.66 0-1.2-.54-1.2-1.2s.54-1.2 1.2-1.2h18.36c.66 0 1.2.54 1.2 1.2s-.54 1.2-1.2 1.2zm-40.79 0h-.43c-.66 0-1.2-.54-1.2-1.2s.54-1.2 1.2-1.2h.43c.66 0 1.2.54 1.2 1.2s-.54 1.2-1.2 1.2z"/></g><g id="Grupo_13591_1_"><g id="Grupo_13590_1_"><path id="Rectángulo_4762_1_" class="st5" d="M9.82 36.16h3.13v10.83H9.82z"/><path id="Rectángulo_4763_1_" class="st5" d="M6.2 39.79h3.62v3.58H6.2z"/><path id="Trazado_11867_2_" class="st5" d="M55.29 32.27l-7.41 8.45-.59.59c-2.24 2.24-4.86 3.59-8.02 3.59H12.95v-6.65h20.09l4.13-.05c2.17-.03 4.25-.9 5.79-2.42l7.58-8.22"/></g></g><path id="Trazado_11837_1_" class="st5" d="M15.51 20.26v7h10.86v-7H15.51"/><path id="Línea_2401_1_" class="st5" d="M20.94 20.26v-4.28"/><path id="Línea_2402_1_" class="st5" d="M18.17 15.98h5.76"/><path id="Línea_2403_1_" class="st5" d="M19.2 23.76h7.17"/><path class="st5" d="M6.2 27.26h27.09m-14.1 0v10.99m4.09-10.99v10.99m30.75-14.63l-5.02-5.08m-2.64 4.4l4.06 4.15m-4.11-11.26l-2.45-2.48c.17-.53.26-1.09.26-1.67 0-3.09-2.5-5.59-5.59-5.59-.58 0-1.14.09-1.67.25l3.29 3.34-.52 2.85-3.04.48-3.27-3.32a5.587 5.587 0 005.22 7.58c.69 0 1.35-.13 1.96-.36l1.22 1.25"/><path class="st5" d="M44.01 18.15l6.17-6.17 1.52-3.99 5.23-1.57 1.29 1.23-1.57 5.28-3.86 1.29-6.28 6.37m-5.25-1.61l.61-.61m5.43 3.35l-9 8.98c-.67.66-1.75.66-2.41 0l-1.97-1.97c-.67-.67-.67-1.75 0-2.42l8.95-8.93"/><path class="st5" d="M41.87 18.37l1.04-1.04 4.39 4.39-1.7 1.7m-7.93-.48l4.26 4.15"/><circle class="st5" cx="54.61" cy="27.8" r="1.16"/><path id="Trazado_11848_2_" d="M58.8 27.8c0 2.31-1.87 4.18-4.18 4.18s-4.18-1.87-4.18-4.18 1.87-4.18 4.18-4.18h0c2.3-.01 4.17 1.85 4.18 4.15v.03z" fill="none" stroke="#00ab00" stroke-width="1.8" stroke-linecap="round" stroke-linejoin="round" stroke-miterlimit="10"/><path id="Rectángulo_3799-2_3_" class="st1" d="M0 0h65v65H0z"/></g></svg>