<svg version="1.1" id="Capa_1" xmlns="http://www.w3.org/2000/svg" x="0" y="0" viewBox="0 0 47 47" xml:space="preserve"><style>.st0{fill:#fff}</style><g id="Grupo_13373"><path class="st0" d="M13.04 13.39c-1.53 0-2.99-.87-3.66-2.35a4.03 4.03 0 011.98-5.33c2.01-.92 4.39-.04 5.32 1.96l.01.02a4.03 4.03 0 01-3.65 5.7zm0-6.54a2.529 2.529 0 00-2.3 3.57 2.525 2.525 0 003.34 1.24 2.534 2.534 0 001.25-3.34s0-.01-.01-.01A2.52 2.52 0 0013.91 7c-.28-.1-.58-.15-.87-.15z" id="Trazado_11772"/><g id="Grupo_13370"><path class="st0" d="M25.98 40.85h-9.02c-3.54 0-6.43-2.88-6.43-6.43V16.28c0-.41.34-.75.75-.75s.75.34.75.75v18.14c0 2.72 2.21 4.93 4.93 4.93l19.16-.02V8.04h-16.8c-.41 0-.75-.34-.75-.75s.34-.75.75-.75h17.55c.41 0 .75.34.75.75v32.78c0 .41-.33.75-.75.75l-10.89.03z" id="Trazado_11773"/></g><g id="Grupo_13371"><path class="st0" d="M27.17 21.93c-.3 0-.58-.18-.69-.47-.06-.14-1.37-3.44 0-6.07 1.38-2.63 4.83-3.45 4.98-3.48.36-.08.72.11.86.45.06.14 1.37 3.44 0 6.07-1.38 2.63-4.83 3.44-4.98 3.48-.06.01-.12.02-.17.02zm3.97-8.36c-.93.33-2.59 1.09-3.33 2.51-.74 1.42-.41 3.22-.15 4.17.93-.33 2.59-1.09 3.33-2.51.74-1.43.41-3.23.15-4.17zm.51 4.52z" id="Trazado_6132"/><path class="st0" d="M27.17 21.93c-.12 0-.24-.03-.35-.08a.746.746 0 01-.32-1.01l2.23-4.27c.19-.37.64-.51 1.01-.32s.51.64.32 1.01l-2.23 4.27c-.13.25-.39.4-.66.4z" id="Línea_1426"/></g><g id="Grupo_13372"><path class="st0" d="M24.08 30.02c-2.06 0-3.74-1.68-3.74-3.74s1.68-3.74 3.74-3.74c2.06 0 3.74 1.68 3.74 3.74s-1.68 3.74-3.74 3.74zm0-5.98c-1.24 0-2.24 1-2.24 2.24s1 2.24 2.24 2.24c1.23 0 2.24-1 2.24-2.24s-1.01-2.24-2.24-2.24z" id="Elipse_2271"/><path class="st0" d="M24.08 35.16c-.46 0-.92-.04-1.38-.12a.744.744 0 01-.56-.44l-.83-1.88c-.25-.56-.81-.89-1.42-.82l-2.05.22c-.25.02-.5-.08-.67-.27a8.772 8.772 0 01-1.37-2.37.724.724 0 01.1-.71l1.22-1.66c.36-.49.36-1.15 0-1.64L15.9 23.8a.754.754 0 01-.1-.71c.33-.86.79-1.66 1.36-2.37.16-.2.41-.3.67-.28l2.05.22c.6.06 1.18-.26 1.42-.82l.83-1.88c.1-.23.32-.4.57-.44.45-.07.9-.11 1.35-.12.46 0 1.86.09 2.72.29.4.09.65.5.56.9-.1.4-.5.65-.9.56-.72-.17-2-.25-2.36-.25-.24 0-.49.02-.73.05l-.66 1.49a2.87 2.87 0 01-2.96 1.71l-1.63-.18c-.29.4-.53.83-.73 1.28l.97 1.32c.75 1.02.75 2.39 0 3.41l-.97 1.32c.2.45.45.88.74 1.28l1.63-.18c1.25-.14 2.45.55 2.96 1.71l.66 1.5c.49.05.98.05 1.47 0l.66-1.5a2.87 2.87 0 012.96-1.71l1.63.18c.29-.4.53-.83.74-1.28l-.97-1.32a2.865 2.865 0 010-3.41l.98-1.34c-.32-.7-1.1-1.89-1.75-2.55-.29-.3-.29-.77.01-1.06.3-.29.77-.29 1.06.01.9.91 2.01 2.66 2.25 3.52.06.22.02.46-.12.64l-1.22 1.66a1.38 1.38 0 000 1.64l1.22 1.66c.15.21.19.47.1.71-.33.86-.79 1.66-1.37 2.37-.16.2-.41.3-.67.28l-2.05-.22c-.61-.07-1.18.26-1.42.82l-.83 1.88c-.1.23-.31.39-.56.44-.47.09-.93.13-1.39.13z" id="Trazado_11774_1_"/></g></g><path fill="none" d="M0 0h47v47H0z" id="Rectángulo_4657"/></svg>