<svg version="1.1" id="Layer_1" xmlns="http://www.w3.org/2000/svg" x="0" y="0" viewBox="0 0 25 25" xml:space="preserve"><style>.st1{fill:#95a6b1}</style><g id="Group_3209" transform="translate(4026.818 51.785)"><path d="M-4021.3-43.8c-1.9 0-3.5-1.6-3.5-3.5s1.6-3.5 3.5-3.5 3.5 1.6 3.5 3.5-1.6 3.5-3.5 3.5zm0-5.4c-1.1 0-1.9.8-1.9 1.9s.8 1.9 1.9 1.9 1.9-.8 1.9-1.9-.8-1.9-1.9-1.9z" fill="#19a500" id="Path_276"/><g id="Group_536" transform="translate(-5255 -120.858)"><path class="st1" d="M1250.3 83.8h-11.8c-.4 0-.8-.4-.8-.8s.4-.8.8-.8h11.8c.4 0 .8.4.8.8s-.4.8-.8.8z" id="Path_4969"/><path class="st1" d="M1246.4 87.7c-.2 0-.4-.1-.6-.2-.3-.3-.3-.8 0-1.1l3.4-3.4-3.4-3.4c-.3-.3-.3-.8 0-1.1s.8-.3 1.1 0l4 4c.3.3.3.8 0 1.1l-4 4c-.1 0-.3.1-.5.1z" id="Path_4970"/></g><path class="st1" d="M-4009-46.5h-7c-.4 0-.8-.4-.8-.8s.4-.8.8-.8h7c.4 0 .8.4.8.8s-.4.8-.8.8z" id="Line_443"/><path class="st1" d="M-4009-27.8h-7.8c-2.9 0-5.3-2.4-5.3-5.3v-8.8c0-.4.4-.8.8-.8s.8.4.8.8v8.8c0 2.1 1.6 3.7 3.7 3.7h7.8c.4 0 .8.4.8.8s-.4.8-.8.8z" id="Path_277"/></g></svg>