<svg xmlns="http://www.w3.org/2000/svg" width="29.084" height="20.478"><g data-name="Grupo 10766" transform="translate(-420.657 -2997.339)" fill="none" stroke="#fff" stroke-linecap="round" stroke-linejoin="round" stroke-width="1.57"><path data-name="Trazado 190" d="M424.201 3006.524v5.757a4.751 4.751 0 004.751 4.751h15.249a4.751 4.751 0 004.751-4.751v-10.628h-7.977v-1.841a1.688 1.688 0 00-1.688-1.688h-5.416a1.688 1.688 0 00-1.689 1.688v1.841h-2.981"/><path data-name="Trazado 191" d="M426.969 3001.654a2.763 2.763 0 11-2.763-2.763 2.753 2.753 0 012.763 2.763z"/><path data-name="Línea 182" d="M442.913 3004.417h3.568"/><path data-name="Línea 183" d="M434.797 3000.737h3.568"/><path data-name="Línea 184" d="M442.913 3006.524h3.568"/><circle data-name="Elipse 90" cx="4.7" cy="4.7" r="4.7" transform="translate(431.88 3004.643)"/></g></svg>