<svg xmlns="http://www.w3.org/2000/svg" viewBox="0 0 60 60"><style>.st2{fill:#fff}</style><g id="Capa_1"><path d="M30 0c16.57 0 30 13.43 30 30S46.57 60 30 60 0 46.57 0 30 13.43 0 30 0z" fill="#19a500" id="Rectángulo_3799_53_"/><path fill="none" d="M0 0h60v60H0z" id="Rectángulo_3799_9_"/><path class="st2" d="M48.96 43.11a.56.56 0 01-.56-.56v-6.79a.56.56 0 111.12 0v6.79c0 .31-.25.56-.56.56zm-23.6-13.15h-10.5c-2.18 0-3.95-1.77-3.95-3.95 0-1.88 1.31-3.45 3.07-3.85-.46-.59-.73-1.33-.73-2.11v-.99c0-1.59 1.07-2.93 2.56-3.32v-.13c0-2.37 1.93-4.3 4.3-4.3s4.3 1.93 4.3 4.3v.13c1.5.39 2.56 1.74 2.56 3.32v.99c0 .78-.26 1.51-.73 2.11 1.75.4 3.07 1.98 3.07 3.85 0 2.17-1.77 3.95-3.95 3.95zm-10.5-6.79c-1.56 0-2.83 1.27-2.83 2.83s1.27 2.83 2.83 2.83h10.5c1.56 0 2.83-1.27 2.83-2.83s-1.27-2.83-2.83-2.83h-.54c-.26 0-.48-.18-.54-.43-.06-.25.06-.51.29-.63.79-.41 1.28-1.2 1.28-2.07v-.99c0-1.2-.91-2.19-2.11-2.31a.564.564 0 01-.5-.65 3.188 3.188 0 00-3.14-3.68c-1.75 0-3.18 1.43-3.18 3.18 0 .17.02.34.04.5.02.15-.02.31-.11.43s-.23.2-.39.22c-1.2.12-2.11 1.11-2.11 2.31v.99c0 .87.49 1.66 1.28 2.07.23.12.35.38.29.63s-.29.43-.54.43h-.52z"/><path class="st2" d="M20.1 42.91a.56.56 0 01-.56-.56V29.41a.56.56 0 111.12 0v12.94c0 .31-.25.56-.56.56zm-5.22 0a.56.56 0 01-.56-.56V29.41a.56.56 0 111.12 0v12.94c0 .31-.25.56-.56.56zm-3.23-15.16h-1.2c-2.18 0-3.95-1.77-3.95-3.95 0-1.88 1.31-3.45 3.07-3.85-.46-.59-.73-1.33-.73-2.11v-.99c0-1.59 1.07-2.93 2.56-3.32v-.13a4.301 4.301 0 018.26-1.68c.12.28-.01.61-.3.73a.554.554 0 01-.73-.3 3.175 3.175 0 00-2.93-1.94c-1.75 0-3.18 1.43-3.18 3.18 0 .17.02.34.04.5.02.15-.02.31-.11.43s-.23.2-.39.22c-1.2.12-2.11 1.11-2.11 2.31v.99c0 .87.49 1.66 1.28 2.07.23.12.35.38.29.63s-.29.43-.54.43h-.54c-1.56 0-2.83 1.27-2.83 2.83s1.27 2.83 2.83 2.83h1.2c.31 0 .56.25.56.56s-.24.56-.55.56zm30.96 15.42a.56.56 0 01-.56-.56V15.77a.56.56 0 111.12 0v26.84c0 .31-.25.56-.56.56z"/><path class="st2" d="M42.62 25.96c-4.32 0-7.84-3.52-7.84-7.84s3.52-7.84 7.84-7.84 7.84 3.52 7.84 7.84-3.51 7.84-7.84 7.84zm0-14.55c-3.71 0-6.72 3.01-6.72 6.72s3.01 6.72 6.72 6.72c3.7 0 6.72-3.01 6.72-6.72s-3.01-6.72-6.72-6.72z"/><path class="st2" d="M42.84 19.32a.555.555 0 01-.4-.95l2.72-2.72c.22-.22.57-.22.79 0 .22.22.22.57 0 .79l-2.72 2.72c-.11.11-.25.16-.39.16zm-.3 4.08a.55.55 0 01-.32-.1L38.87 21a.56.56 0 01.64-.92l3.35 2.3a.56.56 0 01-.32 1.02zm10.27 19.93H7.34a.58.58 0 010-1.16h45.47a.58.58 0 010 1.16zm-21.6-13.37h-6.5a.56.56 0 110-1.12h6.5c1.56 0 2.83-1.27 2.83-2.83s-1.27-2.83-2.83-2.83h-.54c-.26 0-.48-.18-.54-.43-.06-.25.06-.51.29-.63.79-.41 1.28-1.2 1.28-2.07v-.99c0-1.2-.91-2.19-2.11-2.31a.564.564 0 01-.5-.65 3.188 3.188 0 00-3.14-3.68c-.85 0-1.65.33-2.25.93-.22.22-.57.22-.79 0s-.22-.57 0-.79c.81-.81 1.89-1.26 3.04-1.26 2.37 0 4.3 1.93 4.3 4.3v.13c1.5.39 2.56 1.74 2.56 3.32v.99c0 .78-.26 1.51-.73 2.11 1.75.4 3.07 1.98 3.07 3.85a3.946 3.946 0 01-3.94 3.96zm16.6 18.97H12.34a.58.58 0 010-1.16h35.47a.58.58 0 010 1.16z"/><path d="M48.78 35.99c-.62 0-1.24-.13-1.83-.39a4.417 4.417 0 01-2.34-2.48c-.42-1.11-.39-2.32.1-3.41 1.01-2.24 3.65-3.25 5.89-2.24 1.09.49 1.92 1.37 2.34 2.48.42 1.11.39 2.32-.1 3.41a4.417 4.417 0 01-2.48 2.34c-.51.19-1.05.29-1.58.29zm.01-7.72c-1.24 0-2.43.72-2.98 1.92-.36.79-.38 1.68-.07 2.49.31.81.92 1.46 1.71 1.81.79.36 1.68.38 2.49.07.81-.31 1.46-.92 1.81-1.71.36-.79.38-1.68.07-2.49a3.233 3.233 0 00-3.03-2.09z" fill="#efef00"/><path class="st2" d="M40.46 36.75c-.1 0-.19-.03-.28-.08l-6.51-3.82-6.55 3.71a.556.556 0 11-.55-.97l6.83-3.86c.17-.1.39-.1.56 0l6.79 3.99c.27.16.36.5.2.77-.11.16-.29.26-.49.26z"/><path class="st2" d="M28.6 42.96a.56.56 0 01-.56-.56v-7a.56.56 0 111.12 0v7c-.01.31-.26.56-.56.56zm9.99.14a.56.56 0 01-.56-.56v-7.26a.56.56 0 111.12 0v7.26c0 .31-.25.56-.56.56zm-13.74-.29a.56.56 0 01-.56-.56V29.82a.56.56 0 111.12 0v12.43c0 .31-.25.56-.56.56z"/></g></svg>