<svg xmlns="http://www.w3.org/2000/svg" viewBox="0 0 60 60"><path d="M30 0c16.57 0 30 13.43 30 30S46.57 60 30 60 0 46.57 0 30 13.43 0 30 0z" fill="#19a500"/><path fill="none" d="M0 0h60v60H0z"/><path d="M40.8 28.5v14.29M28.27 20.81h9.8M21.04 42.98v-15m6.69 4.67h-.46c-.94 0-1.71.77-1.71 1.71v8.78h3.88v-8.78c0-.94-.77-1.71-1.71-1.71zm7.34 0h-.46c-.94 0-1.71.77-1.71 1.71v8.78h3.88v-8.78c0-.94-.77-1.71-1.71-1.71zM7.12 43.26h45.19m-42.62-.18V24.74l5.33-.02.08 18.01m.1.5V31.89h5.24m17.64-13.04c0 1.11.64 2.07 1.57 2.54h-.53c-1.85 0-3.36 1.51-3.36 3.36 0 1.85 1.51 3.36 3.36 3.36h10.4c1.85 0 3.36-1.51 3.36-3.36 0-1.85-1.51-3.36-3.36-3.36h-.53c.93-.48 1.57-1.43 1.57-2.54v-.98c0-1.48-1.14-2.7-2.59-2.84.03-.19.05-.38.05-.58 0-2.04-1.66-3.7-3.7-3.7s-3.7 1.66-3.7 3.7c0 .2.02.39.05.58a2.864 2.864 0 00-2.59 2.84v.98m6.25 9.28v14.72" fill="none" stroke="#fff" stroke-width="1.085" stroke-linecap="round" stroke-linejoin="round" stroke-miterlimit="10"/><circle cx="22.63" cy="22.09" r="3.86" fill="none" stroke="#efef00" stroke-width="1.2" stroke-miterlimit="10"/></svg>