<svg version="1.1" id="Capa_1" xmlns="http://www.w3.org/2000/svg" xmlns:xlink="http://www.w3.org/1999/xlink" x="0" y="0" viewBox="0 0 65 65" xml:space="preserve"><style>.st1{stroke:#95a6b1;stroke-width:1.6;stroke-linecap:round;stroke-linejoin:round}.st1,.st4{fill:none}.st6{fill:#4da12e}</style><g id="Capa_1_1_"><g id="Grupo_14998_5_" transform="translate(-83.703)"><g id="Grupo_15004_1_"><path id="Línea_2848_1_" class="st1" d="M90.83 49.25h51.4"/><path id="Trazado_12467_1_" class="st1" d="M94.54 14.58v-2.15c0-1.72 1.39-3.11 3.11-3.11h3.62c1.72 0 3.12 1.39 3.12 3.11v36.59"/><path id="Línea_2849_1_" class="st1" d="M94.54 49.24V30.23"/><path id="Trazado_12468_1_" class="st1" d="M123.39 49.17V34.68c0-1.66 1.34-3 3-3h9.12c1.66 0 3 1.34 3 3v14.56"/><path id="Trazado_12469_1_" class="st1" d="M119.65 49.17V28.19c0-1.66 1.34-3 3-3h5.22c1.66 0 3 1.34 3 3v3.34"/><path id="Trazado_12470_1_" class="st1" d="M104.38 15.42h1.37c1.44 0 2.6 1.16 2.6 2.6v31"/><path id="Trazado_12471_1_" class="st1" d="M104.61 31.07h7.02a2.29 2.29 0 012.29 2.29v7.71a2.29 2.29 0 002.29 2.29h6.92"/><path id="Trazado_12472_1_" class="st1" d="M133.48 40.65l-2.1-4.34-1.94 4.34c-.21.44-.35.92-.41 1.41 0 1.34 1.09 2.42 2.43 2.42 1.33 0 2.42-1.08 2.42-2.42-.07-.49-.2-.96-.4-1.41z"/><path id="Línea_2850_1_" class="st1" d="M125.61 18.91v5.99"/><path id="Rectángulo_5120_1_" class="st1" d="M118.1 2.45h20.18v11.27a5.15 5.15 0 01-5.15 5.15h-20.18V7.61a5.145 5.145 0 015.15-5.16z"/><path id="Trazado_11848_2_" d="M98.69 22.29c0 2.31-1.88 4.18-4.19 4.18s-4.18-1.88-4.18-4.19 1.87-4.18 4.18-4.18h0c2.3-.01 4.17 1.85 4.18 4.15h0c.01.01.01.03.01.04z" fill="none" stroke="#00a800" stroke-width="1.6" stroke-linecap="round" stroke-linejoin="round" stroke-miterlimit="10"/><path d="M122.97 12.62v1.25c0 1.16.95 2.09 2.12 2.09h.16c1.16 0 2.12-.92 2.12-2.09v-1.25m0 0V5.38m0 8.32v-1.08m-4.4 0V5.38m0 8.32v-1.08m11.36-5.18c0-1.13-.93-2.06-2.06-2.06h-.25c-1.15 0-2.08.94-2.08 2.08v1.12c0 1.15.94 2.08 2.08 2.08h.23m-2.31 3.21c0 1.15.94 2.08 2.08 2.08h.23c1.15 0 2.08-.94 2.08-2.08v-1.15c0-1.13-.93-2.06-2.06-2.06h-.25" fill="none" stroke-miterlimit="10" stroke="#95a6b1" stroke-width="1.6" stroke-linecap="round" stroke-linejoin="round"/><path id="Trazado_12473_1_" class="st1" d="M120.57 7.51c0-1.17-.95-2.11-2.12-2.12h-.16c-1.17 0-2.11 1.05-2.12 2.21v6.33c0 1.17.95 2.11 2.12 2.12h.16c1.17 0 2.11-.95 2.12-2.12"/></g><path id="Rectángulo_3799-2_5_" class="st4" d="M83.7 0h65v65h-65z"/></g><defs><path id="SVGID_1_" d="M0 48.26h65V65H0z"/></defs><clipPath id="SVGID_2_"><use xlink:href="#SVGID_1_" overflow="visible"/></clipPath><g clip-path="url(#SVGID_2_)"><path class="st4" d="M0 48.26h65V65H0z"/><path class="st6" d="M45.38 61.32h-7.17c-.66 0-1.2-.54-1.2-1.2s.54-1.2 1.2-1.2h7.17c.66 0 1.2.54 1.2 1.2s-.54 1.2-1.2 1.2zm7.73 0h-.58c-.66 0-1.2-.54-1.2-1.2s.54-1.2 1.2-1.2h.58c.66 0 1.2.54 1.2 1.2s-.54 1.2-1.2 1.2zm-34.12 0h-7.1c-.66 0-1.2-.54-1.2-1.2s.54-1.2 1.2-1.2h7.1c.66 0 1.2.54 1.2 1.2s-.54 1.2-1.2 1.2z"/><path d="M31.05 61.32H18.53c-.66 0-1.2-.54-1.2-1.2s.54-1.2 1.2-1.2h12.52c.66 0 1.2.54 1.2 1.2s-.54 1.2-1.2 1.2zm4.42-6.11H11.89c-.66 0-1.2-.54-1.2-1.2s.54-1.2 1.2-1.2h23.58c.66 0 1.2.54 1.2 1.2s-.54 1.2-1.2 1.2z" fill="#96d200"/><path class="st6" d="M53.11 55.21H34.75c-.66 0-1.2-.54-1.2-1.2s.54-1.2 1.2-1.2h18.36c.66 0 1.2.54 1.2 1.2s-.54 1.2-1.2 1.2zm-40.79 0h-.43c-.66 0-1.2-.54-1.2-1.2s.54-1.2 1.2-1.2h.43c.66 0 1.2.54 1.2 1.2s-.54 1.2-1.2 1.2z"/></g></g></svg>