<svg version="1.1" id="Capa_1" xmlns="http://www.w3.org/2000/svg" x="0" y="0" viewBox="0 0 47 47" xml:space="preserve"><style>.st1{fill:none;stroke:#93a4af;stroke-width:1.5;stroke-linecap:round;stroke-linejoin:round;stroke-miterlimit:10}</style><path id="Trazado_11848_2_" d="M12.07 10.65c0 1.93-1.56 3.49-3.49 3.49-1.93 0-3.49-1.56-3.49-3.49 0-1.93 1.56-3.49 3.49-3.49h0a3.474 3.474 0 013.49 3.46c.01.01.01.02 0 .03z" fill="none" stroke="#00a800" stroke-width="1.5" stroke-linecap="round" stroke-linejoin="round" stroke-miterlimit="10"/><path id="XMLID_1_" class="st1" d="M33.87 29.03l-3.44-3.08c-.68-.61-1.76-.53-2.39.18l-1.55 1.73c-.11-.05-.22-.11-.33-.16-1.07-.52-2.53-1.22-4.11-2.64-1.58-1.41-2.45-2.79-3.08-3.8-.07-.11-.13-.21-.2-.31l1.04-1.16.51-.57c.64-.71.59-1.79-.09-2.4l-3.44-3.08c-.68-.61-1.76-.53-2.39.18l-.87.98.03.02c-.29.41-.52.88-.68 1.38-.15.47-.23.93-.26 1.37-.23 3.59 1.58 6.76 6.25 10.94 6.46 5.77 11.36 5.04 11.57 5a5.478 5.478 0 002.63-1.25l.02.02.88-.96c.62-.71.62-1.89-.1-2.39z"/><path class="st1" d="M6.35 16.34a18.52 18.52 0 00-1.43 7.16c0 3.58 1.03 6.91 2.78 9.74l-2.78 8.84 8.84-2.78c2.83 1.75 6.16 2.78 9.74 2.78 10.25 0 18.57-8.32 18.57-18.58 0-10.25-8.32-18.57-18.57-18.57-3.51 0-6.79.97-9.6 2.67"/><path fill="none" d="M0 0h47v47H0z"/></svg>