<svg xmlns="http://www.w3.org/2000/svg" width="34.114" height="36.224"><g data-name="Grupo 17845" fill="none" stroke="#fff" stroke-linecap="round" stroke-linejoin="round" stroke-width="1.5"><g data-name="Grupo 14696" transform="translate(-9.034 -5.388)"><path data-name="Trazado 11669" d="M37.216 35.292v5.57H12.587V14.193m4.744-6.248h14.257L37.216 14v5.587"/><g data-name="Grupo 14695"><path data-name="Línea 2308" d="M11.175 17.886h2.593"/><path data-name="Línea 2309" d="M11.175 23.614h2.593"/><path data-name="Línea 2310" d="M11.175 28.856h2.593m-2.593 5.519h2.593"/></g><circle data-name="Elipse 2132" cx="2.827" cy="2.827" r="2.827" transform="translate(9.784 6.138)"/></g><g data-name="Grupo 14697" transform="translate(-9.034 -5.388)"><path data-name="Trazado 12370" d="M42.4 29.46V25.7h-.3a1.817 1.817 0 01-1.671-1.167l-.029-.071a1.91 1.91 0 01.372-2.1l.168-.168-2.658-2.658-.168.168a1.905 1.905 0 01-2.1.372l-.072-.029a1.814 1.814 0 01-1.166-1.671v-.292h-3.76v.25a1.8 1.8 0 01-1.11 1.676 7.86 7.86 0 00-.211.09 1.808 1.808 0 01-2.006-.385l-.179-.179-2.658 2.658.168.168a1.908 1.908 0 01.372 2.1l-.029.071A1.816 1.816 0 0123.7 25.7h-.3v3.76h.3a1.815 1.815 0 011.671 1.166l.029.072a1.907 1.907 0 01-.372 2.1l-.168.168 2.658 2.659.168-.168a1.907 1.907 0 012.1-.373l.072.03a1.814 1.814 0 011.166 1.671v.292h3.76v-.292a1.814 1.814 0 011.166-1.671l.072-.03a1.907 1.907 0 012.1.373l.168.168 2.658-2.659-.168-.168a1.909 1.909 0 01-.372-2.1l.029-.072A1.816 1.816 0 0142.1 29.46z"/><circle data-name="Elipse 2409" cx="4.725" cy="4.725" r="4.725" transform="translate(28.176 22.855)"/></g></g></svg>