<svg xmlns="http://www.w3.org/2000/svg" width="169.764" height="48.566"><g data-name="Grupo 19069" fill="none" stroke="#fff" stroke-linecap="round" stroke-linejoin="round"><g data-name="Grupo 10332" transform="translate(118.502 -.217)"><circle data-name="Elipse 1636" cx="23.5" cy="23.5" r="23.5" transform="translate(-57.241 1)" stroke-width="1.566"/><g data-name="Grupo 18779" stroke-width="1.656"><path data-name="Trazado 19082" d="M-43.746 20.069c-9.347 0-8.841 6.635-8.841 6.635 0 4.738 8.424 8.579 18.816 8.579s18.815-3.841 18.815-8.579c0 0 1.453-6.838-9.329-6.681"/><path data-name="Trazado 19083" d="M-44.325 25.128l3.5-12.089a2.115 2.115 0 012.578-1.215l3.87 1.192a2.117 2.117 0 001.275-.01l3.657-1.186a2.116 2.116 0 012.545 1.074l4.479 12.234a26.148 26.148 0 01-21.904 0z"/><path data-name="Trazado 19084" d="M-43.387 21.884c1.859.911 5.64 1.536 10 1.536 4.222 0 7.9-.585 9.817-1.45"/></g></g><g data-name="Grupo 10332" transform="translate(120.981 -.217)"><circle data-name="Elipse 1636" cx="23.5" cy="23.5" r="23.5" transform="translate(1 1)" stroke-width="1.566"/><g data-name="Grupo 18784" stroke-width="1.656"><circle data-name="Elipse 2997" cx="2.928" cy="2.928" r="2.928" transform="translate(17.572 16.535)"/><g data-name="Grupo 18780"><path data-name="Trazado 19085" d="M18.955 16.736a10.009 10.009 0 01-.64-3.715c0-2.9.978-5.253 2.185-5.253s2.185 2.352 2.185 5.253a10.179 10.179 0 01-.6 3.606"/><path data-name="Trazado 19086" d="M22.045 22.264a10.009 10.009 0 01.64 3.715c0 2.9-.978 5.252-2.185 5.252s-2.185-2.351-2.185-5.252a10.179 10.179 0 01.6-3.606"/></g><g data-name="Grupo 18781"><path data-name="Trazado 19087" d="M23.264 17.955a10.009 10.009 0 013.715-.64c2.9 0 5.252.978 5.252 2.185s-2.351 2.185-5.252 2.185a10.179 10.179 0 01-3.606-.6"/><path data-name="Trazado 19088" d="M17.736 21.045a10.009 10.009 0 01-3.715.64c-2.9 0-5.253-.978-5.253-2.185s2.352-2.185 5.253-2.185a10.179 10.179 0 013.606.6"/></g><g data-name="Grupo 18782"><path data-name="Trazado 19089" d="M22.684 14.317a12.445 12.445 0 01.852-.943c2.052-2.051 4.406-3.023 5.259-2.169s-.118 3.207-2.169 5.259a12.146 12.146 0 01-1.043.932"/><path data-name="Trazado 19090" d="M18.181 24.846c-.221.262-.461.524-.717.78-2.052 2.051-4.406 3.023-5.259 2.169s.118-3.207 2.169-5.259a12.473 12.473 0 01.944-.853"/></g><g data-name="Grupo 18783"><path data-name="Trazado 19091" d="M15.154 17.181a12.547 12.547 0 01-.78-.717c-2.051-2.052-3.023-4.406-2.169-5.259s3.207.118 5.259 2.169c.247.247.478.5.692.75"/><path data-name="Trazado 19092" d="M25.982 21.879c.139.127.508.521.644.657 2.051 2.052 3.023 4.406 2.169 5.259s-3.207-.118-5.259-2.169a12.65 12.65 0 01-.676-.732"/></g></g></g><g data-name="Grupo 10332" transform="translate(118.502 -.217)"><circle data-name="Elipse 1636" cx="23.5" cy="23.5" r="23.5" transform="translate(-117.718 1)" stroke-width="1.566"/><g data-name="Grupo 18787" stroke-width="1.656"><path data-name="Rectángulo 5575" d="M-106.1 21.128h21.637v10.93A7.537 7.537 0 01-92 39.595h-6.563a7.537 7.537 0 01-7.537-7.537v-10.93h0z"/><path data-name="Trazado 19093" d="M-84.463 23.69h3.154a1.849 1.849 0 011.849 1.849v1.894a4.835 4.835 0 01-4.835 4.834h-.168"/><path data-name="Línea 3960" d="M-107.121 39.596h24.373"/><g data-name="Grupo 18785"><path data-name="Trazado 19094" d="M-93.771 13.691c-.3-1.068.577-3.072 2.519-4.141 2.399-1.321 1.592-4.15 1.592-4.15"/><path data-name="Trazado 19095" d="M-89.522 18.159s-.235-2.865 1.888-4.317a5.29 5.29 0 002.028-3.76"/></g><g data-name="Grupo 18786"><path data-name="Trazado 19096" d="M-99.318 15.05c-.249 1.144.817 1.376.568 2.52s-1.315.913-1.564 2.059a1.907 1.907 0 00.42 1.5"/><path data-name="Trazado 19097" d="M-96.87 21.129a6.53 6.53 0 00.195-.706c.55-2.531-.492-4.906-2.329-5.305s-3.772 1.328-4.322 3.859a6.138 6.138 0 00-.091 2.152"/></g></g></g><g data-name="Grupo 18788" stroke-width="1.656"><path data-name="Trazado 19098" d="M21.38 24.444c.554 1.323-.679 1.839-.125 3.162s1.787.808 2.342 2.132-.678 1.841-.123 3.166 1.787.809 2.342 2.134"/><path data-name="Trazado 19099" d="M19.783 32.31a7.831 7.831 0 01-.393-.807c-1.225-2.925-.5-6.017 1.627-6.907s4.837.762 6.062 3.687.5 6.018-1.626 6.907c-1.919.8-4.322-.468-5.67-2.88"/></g><g data-name="Grupo 18789" stroke-width="1.656"><path data-name="Línea 3961" d="M143.594 43.291l7.887-13.243"/><path data-name="Trazado 19100" d="M151.481 30.048a22.483 22.483 0 01-.069-2.2c.028-1.766.505-3.476 2.071-4.436a17.771 17.771 0 013.2-1.481c.028-.01-.005 3.335-.081 3.694a4.312 4.312 0 01-1.378 2.582 13.191 13.191 0 01-3.743 1.841z"/><path data-name="Trazado 19101" d="M148.946 35.721c.442-.586.919-1.151 1.417-1.691 1.2-1.3 2.693-2.255 4.5-1.926a17.721 17.721 0 013.373 1.028c.028.011-2.226 2.483-2.521 2.7a4.314 4.314 0 01-2.749 1.008 13.221 13.221 0 01-4.02-1.119z"/></g><path data-name="Trazado 19102" d="M148.946 35.721s6.951-9.09-3.465-14.253" stroke-width="1.656"/></g></svg>