<svg id="Capa_1" data-name="Capa 1" xmlns="http://www.w3.org/2000/svg" viewBox="0 0 47 47"><defs><style>.cls-2{fill:#fff}</style></defs><path fill="none" d="M0 0h47v47H0z"/><g id="Grupo_12876" data-name="Grupo 12876"><path class="cls-2" d="M44.7 38.5H3.1a.9.9 0 01-.8-.8.8.8 0 01.8-.7h41.6a.7.7 0 01.7.7.8.8 0 01-.7.8z" id="Línea_2139" data-name="Línea 2139"/><g id="Grupo_12797" data-name="Grupo 12797"><path class="cls-2" d="M36.7 32.5h-5.1a.7.7 0 01-.7-.7.7.7 0 01.7-.8h5.1a.8.8 0 01.8.8.8.8 0 01-.8.7z" id="Línea_2140" data-name="Línea 2140"/><path class="cls-2" d="M44.7 32.5h-4a.8.8 0 01-.8-.7.8.8 0 01.8-.8h4a.8.8 0 01.8.8.8.8 0 01-.8.7z" id="Línea_2141" data-name="Línea 2141"/><path class="cls-2" d="M36.7 26.4h-5.1a.8.8 0 01-.7-.8.7.7 0 01.7-.7h5.1a.8.8 0 01.8.7.9.9 0 01-.8.8z" id="Línea_2142" data-name="Línea 2142"/><path class="cls-2" d="M44.7 26.4h-4a.9.9 0 01-.8-.8.8.8 0 01.8-.7h4a.8.8 0 01.8.7.9.9 0 01-.8.8z" id="Línea_2143" data-name="Línea 2143"/></g><path class="cls-2" d="M40.7 34.5h-4a.7.7 0 01-.7-.7V23.2a.7.7 0 01.7-.7h4a.7.7 0 01.7.7v10.6a.7.7 0 01-.7.7zM37.5 33h2.4v-9h-2.4z" id="Rectángulo_4528" data-name="Rectángulo 4528"/><g id="Grupo_12798" data-name="Grupo 12798"><path class="cls-2" d="M33.7 29.3h-9.2a.9.9 0 01-.8-.8.8.8 0 01.8-.7h9.2a.8.8 0 01.8.7.9.9 0 01-.8.8z" id="Línea_2144" data-name="Línea 2144"/><path class="cls-2" d="M27.9 32.7l-.5-.2-3.5-3.5a.7.7 0 010-1l3.5-3.4a.7.7 0 011 1l-2.9 2.9 2.9 2.9a.8.8 0 010 1.1z" id="Trazado_11513" data-name="Trazado 11513"/></g><path class="cls-2" d="M31.6 38.5H5.4a.8.8 0 01-.7-.8v-7.3a.7.7 0 01.7-.7.8.8 0 01.8.7V37h24.7V10H6.2v8.4a.9.9 0 01-.8.8.8.8 0 01-.7-.8V9.3a.8.8 0 01.7-.8h26.2a.9.9 0 01.8.8v28.4a.9.9 0 01-.8.8z" id="Trazado_11514" data-name="Trazado 11514"/><path class="cls-2" d="M31.6 14.5H5.4a.7.7 0 01-.7-.7.7.7 0 01.7-.8h26.2a.8.8 0 01.8.8.8.8 0 01-.8.7z" id="Línea_2145" data-name="Línea 2145"/><path class="cls-2" d="M11.1 14.5a.8.8 0 01-.8-.7V9.3a.9.9 0 01.8-.8.8.8 0 01.7.8v4.5a.7.7 0 01-.7.7z" id="Línea_2146" data-name="Línea 2146"/><path class="cls-2" d="M17.8 14.5a.8.8 0 01-.8-.7V9.3a.9.9 0 01.8-.8.8.8 0 01.7.8v4.5a.7.7 0 01-.7.7z" id="Línea_2147" data-name="Línea 2147"/><path class="cls-2" d="M24.5 14.5a.8.8 0 01-.8-.7V9.3a.9.9 0 01.8-.8.8.8 0 01.7.8v4.5a.7.7 0 01-.7.7z" id="Línea_2148" data-name="Línea 2148"/><path class="cls-2" d="M5.4 28.3a4 4 0 01-3.9-3.9 3.9 3.9 0 013.9-3.9 3.8 3.8 0 013.9 3.9 3.9 3.9 0 01-3.9 3.9zm0-6.3a2.4 2.4 0 000 4.8 2.4 2.4 0 000-4.8z" id="Elipse_2118" data-name="Elipse 2118"/></g></svg>