<svg version="1.1" id="Capa_1" xmlns="http://www.w3.org/2000/svg" x="0" y="0" viewBox="0 0 65 65" xml:space="preserve"><style>.st0{fill:none}.st2{fill:#90a6b1}.st3{fill:#19a301}</style><g id="Grupo_14998_1_" transform="translate(-83.703)"><path class="st0" d="M83.7 0h65v65h-65z" id="Rectángulo_3799-2_4_"/><g id="Grupo_15571"><path d="M93.57 36.01a4.93 4.93 0 01-4.92-4.92c0-2.72 2.24-4.92 4.94-4.92 1.3 0 2.52.5 3.45 1.42.93.92 1.44 2.15 1.45 3.46v.03c0 2.72-2.21 4.93-4.92 4.93zm.02-8.24h-.01c-1.83 0-3.32 1.49-3.32 3.32 0 1.83 1.49 3.32 3.32 3.32 1.83 0 3.32-1.49 3.32-3.32v-.03c0-.88-.35-1.71-.98-2.33-.63-.62-1.45-.96-2.33-.96z" fill="#00ab00" id="Trazado_11848"/><path class="st2" d="M118.75 28.94c-4.51 0-8.18-3.67-8.18-8.18s3.67-8.18 8.18-8.18 8.18 3.67 8.18 8.18-3.66 8.18-8.18 8.18zm0-14.76c-3.63 0-6.58 2.95-6.58 6.58s2.95 6.58 6.58 6.58 6.58-2.95 6.58-6.58-2.95-6.58-6.58-6.58z" id="Elipse_2576"/><circle class="st2" cx="118.96" cy="20.89" r="1.13" id="Elipse_2577"/><path class="st2" d="M137.57 46.12H99.94c-.44 0-.8-.36-.8-.8V33.5c0-.44.36-.8.8-.8h37.62c.44 0 .8.36.8.8v11.81a.79.79 0 01-.79.81zm-36.83-1.6h36.03V34.3h-36.03v10.22z" id="Rectángulo_5231"/><path class="st2" d="M99.87 47.23h-5.44c-.44 0-.8-.36-.8-.8v-8.29c0-.44.36-.8.8-.8s.8.36.8.8v7.49h4.64c.44 0 .8.36.8.8s-.36.8-.8.8z" id="Trazado_12630"/><path class="st2" d="M113.65 47.23h-5.44c-.44 0-.8-.36-.8-.8V32.39c0-.44.36-.8.8-.8h5.44c.44 0 .8.36.8.8v14.04c0 .44-.36.8-.8.8zm-4.65-1.6h3.84V33.19H109v12.44z" id="Rectángulo_5232"/><path class="st2" d="M130.37 47.23h-5.44c-.44 0-.8-.36-.8-.8V32.39c0-.44.36-.8.8-.8h5.44c.44 0 .8.36.8.8v14.04c0 .44-.35.8-.8.8zm-4.64-1.6h3.84V33.19h-3.84v12.44z" id="Rectángulo_5233"/><path class="st2" d="M142.95 47.23h-5.44c-.44 0-.8-.36-.8-.8V32.39c0-.44.36-.8.8-.8h5.44c.44 0 .8.36.8.8v14.04c0 .44-.36.8-.8.8zm-4.64-1.6h3.84V33.19h-3.84v12.44z" id="Rectángulo_5234"/><path class="st2" d="M116.79 34.3c-.44 0-.8-.36-.8-.8v-5.67c0-.44.36-.8.8-.8s.8.36.8.8v5.67c0 .44-.36.8-.8.8z" id="Línea_2779"/><path class="st2" d="M121.46 34.3c-.44 0-.8-.36-.8-.8v-5.85c0-.44.36-.8.8-.8s.8.36.8.8v5.85c0 .44-.36.8-.8.8z" id="Línea_2780"/><path class="st2" d="M122.25 17.23l-4.34 3.59 1.29 1.15 3.05-4.74z" id="Trazado_12631"/></g></g><path class="st0" d="M0 48.26h65V65H0z"/><path class="st3" d="M45.38 61.32h-7.17c-.66 0-1.2-.54-1.2-1.2s.54-1.2 1.2-1.2h7.17c.66 0 1.2.54 1.2 1.2s-.54 1.2-1.2 1.2zm7.73 0h-.58c-.66 0-1.2-.54-1.2-1.2s.54-1.2 1.2-1.2h.58c.66 0 1.2.54 1.2 1.2s-.54 1.2-1.2 1.2zm-34.12 0h-7.1c-.66 0-1.2-.54-1.2-1.2s.54-1.2 1.2-1.2h7.1c.66 0 1.2.54 1.2 1.2s-.54 1.2-1.2 1.2z"/><path d="M31.05 61.32H18.53c-.66 0-1.2-.54-1.2-1.2s.54-1.2 1.2-1.2h12.52c.66 0 1.2.54 1.2 1.2s-.54 1.2-1.2 1.2zm4.42-6.11H11.89c-.66 0-1.2-.54-1.2-1.2s.54-1.2 1.2-1.2h23.58c.66 0 1.2.54 1.2 1.2s-.53 1.2-1.2 1.2z" fill="#82d400"/><path class="st3" d="M53.11 55.21H34.75c-.66 0-1.2-.54-1.2-1.2s.54-1.2 1.2-1.2h18.36c.66 0 1.2.54 1.2 1.2s-.54 1.2-1.2 1.2zm-40.79 0h-.43c-.66 0-1.2-.54-1.2-1.2s.54-1.2 1.2-1.2h.43c.66 0 1.2.54 1.2 1.2s-.54 1.2-1.2 1.2z"/></svg>