<svg xmlns="http://www.w3.org/2000/svg" viewBox="0 0 60 60"><style>.st3{fill:#fff}</style><g id="Capa_2"><path d="M30 0c16.57 0 30 13.43 30 30S46.57 60 30 60 0 46.57 0 30 13.43 0 30 0z" fill="#19a500" id="Rectángulo_3799_17_"/></g><g id="Capa_1"><path fill="none" d="M0 0h60v60H0z" id="Rectángulo_3799_7_"/><path class="st3" d="M19.37 44.9c-.04 0-.08 0-.11-.01l-10.3-2.12a.558.558 0 01-.45-.55V15.21c0-.17.08-.33.21-.44.13-.11.31-.15.47-.11L19.45 17l1.38-.45c.3-.1.61.07.71.36.09.29-.07.61-.36.7l-1.52.49c-.1.03-.2.04-.3.01l-9.72-2.22v25.86l9.74 2 9.78-2.1c.08-.02.15-.02.23 0l9.38 1.9 3.11-.67c.3-.07.6.13.66.43.06.3-.13.6-.43.66l-3.22.69c-.07.02-.15.02-.23 0l-9.38-1.9-9.78 2.1c-.05.03-.09.04-.13.04zm29.98-9.15c-.01 0-.01 0 0 0-.31 0-.56-.26-.56-.56L49 15.97l-9.91 2.26c-.14.03-.28.01-.4-.06l-1.23-.71c-.27-.15-.36-.5-.21-.76s.5-.36.76-.21l1.04.6 10.39-2.37c.17-.04.34 0 .48.11.13.11.21.27.21.44l-.23 19.92c0 .31-.25.56-.55.56z"/><path class="st3" d="M29.12 31.45h-.01c-.18 0-.35-.1-.45-.25-1.34-2.03-2.6-4.1-3.55-5.68-.93-1.54-1.96-3.39-2.5-5.47-.48-1.82-.49-4.46.92-6.41 1.27-1.75 3.58-2.79 6.2-2.79 2.51 0 4.91 1.48 5.97 3.68.81 1.68.86 3.81.14 6-.21.63-.47 1.27-.81 1.95-.49.99-1.07 1.95-1.63 2.88l-.22.36c-1.06 1.76-2.23 3.64-3.6 5.51-.11.13-.28.22-.46.22zm.6-19.49c-2.22 0-4.25.89-5.29 2.33-1.18 1.64-1.16 3.9-.75 5.47.51 1.94 1.49 3.71 2.38 5.18.84 1.39 1.92 3.16 3.08 4.96 1.14-1.62 2.15-3.24 3.07-4.77l.22-.36c.55-.91 1.12-1.84 1.59-2.79.32-.64.56-1.23.75-1.8.63-1.91.59-3.74-.09-5.16-.86-1.81-2.9-3.06-4.96-3.06zm4.8 10.26z"/><path class="st3" d="M29.35 20.7c-.46 0-.91-.1-1.34-.29-.8-.36-1.41-1.01-1.72-1.83-.31-.82-.29-1.71.07-2.51.36-.8 1.01-1.41 1.83-1.72.82-.31 1.71-.28 2.51.07.8.36 1.41 1.01 1.72 1.83.31.82.29 1.71-.07 2.51-.36.8-1.01 1.41-1.83 1.72-.38.15-.78.22-1.17.22zm0-5.45a2.149 2.149 0 00-1.97 1.27c-.24.53-.25 1.11-.05 1.65s.61.97 1.13 1.2c.52.24 1.11.26 1.65.05.54-.21.97-.61 1.2-1.13.24-.53.25-1.11.05-1.65s-.61-.97-1.13-1.2c-.28-.12-.58-.19-.88-.19zm9.64 11.95c-.04 0-.08 0-.12-.01l-4.3-.97a.56.56 0 01.25-1.09l4.14.93 7.58-2.57c.29-.1.61.06.71.35s-.06.61-.35.71l-7.73 2.62c-.06.02-.12.03-.18.03zm-19.47 1.11c-.08 0-.16-.02-.23-.05l-7.46-3.31c-.28-.13-.41-.46-.28-.74.13-.28.46-.41.74-.28l7.26 3.23 4.86-1.67c.29-.1.61.05.71.35.1.29-.06.61-.35.71l-5.07 1.74c-.06.01-.12.02-.18.02zm0 9.25c-.08 0-.16-.02-.23-.05l-7.46-3.31c-.28-.13-.41-.46-.28-.74.13-.28.46-.41.74-.28l7.26 3.23 9.46-3.24c.1-.03.2-.04.3-.02l9.65 2.18 7.58-2.57c.29-.1.61.06.71.35.1.29-.06.61-.35.71l-7.73 2.62c-.1.03-.2.04-.3.02l-9.65-2.18-9.52 3.26c-.06.01-.12.02-.18.02z"/><path class="st3" d="M19.47 44.9a.56.56 0 01-.56-.56V17.58a.56.56 0 111.12 0v26.75c0 .32-.25.57-.56.57zm19.49-.2a.56.56 0 01-.56-.56V17.68a.56.56 0 111.12 0v26.45c0 .31-.25.57-.56.57z"/><path d="M48.07 45.49c-.62 0-1.24-.13-1.83-.39C44 44.09 43 41.44 44 39.2a4.417 4.417 0 012.48-2.34c1.11-.42 2.32-.39 3.41.1 1.09.49 1.92 1.37 2.34 2.48s.39 2.32-.1 3.41a4.417 4.417 0 01-2.48 2.34c-.51.2-1.05.3-1.58.3zm0-7.72a3.233 3.233 0 00-2.97 1.92c-.74 1.64 0 3.57 1.63 4.31.79.36 1.68.38 2.49.07.81-.31 1.46-.92 1.81-1.71.36-.79.38-1.68.07-2.49-.31-.81-.92-1.46-1.71-1.81-.41-.19-.87-.29-1.32-.29z" fill="#efef00"/></g></svg>