<svg xmlns="http://www.w3.org/2000/svg" width="168.566" height="48.566"><g data-name="Grupo 15204"><g data-name="Grupo 17141" transform="translate(59.783 -.217)"><g data-name="Grupo 10332"><circle data-name="Elipse 1636" cx="23.5" cy="23.5" r="23.5" transform="translate(1 1)" fill="none" stroke="#fff" stroke-linecap="round" stroke-linejoin="round" stroke-width="1.566"/><g data-name="Grupo 17141"><path data-name="Trazado 17890" d="M5.921 38.884c3.337-1.272 8.134-2.216 11.2-4.216a4 4 0 001.99-4.026c-.167-1.207-1.59-2.357-1.724-3.569-.359-3.249 4.647-4.045 8.612-5.023h4.553c-1.893 0-3.025 2.515-3.143 4.1-.132 1.761.995 2.535 2.523 2.967 1.726.488 3.509.772 5.2 1.358a10.484 10.484 0 016.916 8.84" fill="none" stroke="#fff" stroke-linecap="round" stroke-linejoin="round" stroke-width="1.656"/></g></g><g data-name="Grupo 17142"><path data-name="Trazado 17891" d="M23.069 32.837c1.985 0 1.985 2 3.97 2s1.988-2 3.976-2 1.989 2 3.977 2" fill="none" stroke="#fff" stroke-linecap="round" stroke-linejoin="round" stroke-width="1.566"/></g><g data-name="Grupo 17143"><path data-name="Trazado 17892" d="M15.257 38.773c1.89 0 1.89 2 3.781 2s1.891-2 3.781-2 1.892 2 3.783 2 1.894-2 3.789-2 1.894 2 3.788 2" fill="none" stroke="#fff" stroke-linecap="round" stroke-linejoin="round" stroke-width="1.566"/></g><path data-name="Línea 3586" fill="none" stroke="#fff" stroke-linecap="round" stroke-linejoin="round" stroke-width="1.566" d="M39.974 22.05h-9.425"/><circle data-name="Elipse 2611" cx="3.14" cy="3.14" r="3.14" transform="translate(7.298 24.935)" fill="none" stroke="#fff" stroke-linecap="round" stroke-linejoin="round" stroke-width="1.566"/><path data-name="Línea 3587" fill="none" stroke="#fff" stroke-linecap="round" stroke-linejoin="round" stroke-width="1.566" d="M10.439 31.215v5.523"/><circle data-name="Elipse 2612" cx="2.356" cy="2.356" r="2.356" transform="translate(33.262 13.193)" fill="none" stroke="#fff" stroke-linecap="round" stroke-linejoin="round" stroke-width="1.566"/><path data-name="Línea 3588" fill="none" stroke="#fff" stroke-linecap="round" stroke-linejoin="round" stroke-width="1.566" d="M35.618 17.906v4.144"/><path data-name="Trazado 17893" d="M5.921 10.234l11.384 4.692 3.9 8.364" fill="none" stroke="#fff" stroke-linecap="round" stroke-linejoin="round" stroke-width="1.566"/><path data-name="Trazado 17894" d="M26 22.05l3.642-13.167 7.388-4.262" fill="none" stroke="#fff" stroke-linecap="round" stroke-linejoin="round" stroke-width="1.566"/></g><g data-name="Grupo 10332" transform="translate(-.217 -.217)"><circle data-name="Elipse 1636" cx="23.5" cy="23.5" r="23.5" transform="translate(1 1)" fill="none" stroke="#fff" stroke-linecap="round" stroke-linejoin="round" stroke-width="1.566"/><g data-name="Grupo 17168"><g data-name="Grupo 17161"><g data-name="Grupo 17160" fill="none" stroke="#fff" stroke-linecap="round" stroke-linejoin="round" stroke-width="1.566"><path data-name="Línea 3590" d="M35.015 41.013H14.741"/><path data-name="Trazado 17922" d="M25.5 37.655l-10.759-1.781a3.879 3.879 0 00-.931 2.631 3.389 3.389 0 00.931 2.508"/><path data-name="Trazado 17923" d="M35.015 41.013c.724-2.411-1.034-3.019-1.034-3.019l-7.551-3.207-1.3 4.259v1.762"/></g></g><g data-name="Grupo 17167"><g data-name="Grupo 17165"><g data-name="Grupo 17164" fill="none" stroke="#fff" stroke-linecap="round" stroke-linejoin="round"><path data-name="Trazado 17924" d="M34.882 38.763a6.377 6.377 0 003.108-1.411L34.7 17.229H14.481L11.01 37.357a23.1 23.1 0 002.815 1.1" stroke-width="1.566"/><path data-name="Rectángulo 5389" d="M24.489 5.983h.023a7.509 7.509 0 017.509 7.509v3.737h0H16.98h0v-3.737a7.509 7.509 0 017.509-7.509z" stroke-width="1.445"/><g data-name="Grupo 17162" stroke-width="1.566"><path data-name="Línea 3591" d="M23.716 22.05h1.823"/><path data-name="Línea 3592" d="M35.19 22.05h-6.441"/></g><g data-name="Grupo 17163" stroke-width="1.566"><path data-name="Línea 3593" d="M23.527 31.776h-1.823"/><path data-name="Línea 3594" d="M12.053 31.776h6.441"/></g></g></g><g data-name="Grupo 17166"><path data-name="Trazado 17931" d="M13.884 26.048c2.208 0 2.208 1.647 4.416 1.647s2.209-1.647 4.418-1.647 2.21 1.647 4.421 1.647 2.212-1.647 4.424-1.647 2.212 1.647 4.424 1.647" fill="none" stroke="#fff" stroke-linecap="round" stroke-linejoin="round" stroke-width="1.566"/></g></g></g></g><g data-name="Grupo 17179"><g data-name="Grupo 10332" transform="translate(119.783 -.217)"><circle data-name="Elipse 1636" cx="23.5" cy="23.5" r="23.5" transform="translate(1 1)" fill="none" stroke="#fff" stroke-linecap="round" stroke-linejoin="round" stroke-width="1.566"/><g data-name="Grupo 17184"><g data-name="Grupo 17183" fill="none" stroke="#fff" stroke-linecap="round" stroke-linejoin="round" stroke-width="1.566"><ellipse data-name="Elipse 2615" cx="6.505" cy="4.927" rx="6.505" ry="4.927" transform="rotate(-5.609 138.788 -205.306)"/><path data-name="Trazado 17944" d="M27.2 11.947C17.729 13.206 8.8 27.291 8.8 27.291c3.351-1.184 8.594-1.547 14.728.409 2.631.839 8.3 4.8 11.944.489 4.15-4.906-2.063-9.249-2.063-9.249a20.357 20.357 0 015.861.109s-.6-3.551-5.441-4.057"/><path data-name="Trazado 17945" d="M21.212 17.486s.013 3.878 6.9 6.371a33.968 33.968 0 017.977 3.434"/><circle data-name="Elipse 2616" cx="1.368" cy="1.368" r="1.368" transform="translate(28.34 15.758)"/><path data-name="Trazado 17946" d="M24.055 12.909S21.565 9.128 23.5 7.8a1.655 1.655 0 012.711.644s1.189-3.452 3.028-3.222S31.077 7.29 30.8 8.255c0 0 2.252-.23 2.665 1.149s-.321 2.507-1.286 3.505"/><path data-name="Trazado 17947" d="M36.086 27.291a10.225 10.225 0 013.457 8.85"/></g></g><path data-name="Trazado 17948" d="M4.77 30.165s3.044-1.431 4.03-2.874" fill="none" stroke="#fff" stroke-linecap="round" stroke-linejoin="round" stroke-width="1.566"/></g><path data-name="Trazado 17949" d="M150.906 36.565a15.033 15.033 0 001.711-2.262" fill="none" stroke="#fff" stroke-linecap="round" stroke-linejoin="round" stroke-width="1.566"/><path data-name="Trazado 17950" d="M135.483 39.1s6.985 3.283 12.953-.467" fill="none" stroke="#fff" stroke-linecap="round" stroke-linejoin="round" stroke-width="1.566"/></g></g></svg>