<svg version="1.1" id="Capa_1" xmlns="http://www.w3.org/2000/svg" x="0" y="0" viewBox="0 0 65 65" xml:space="preserve"><style>.st1{fill:none}.st2{fill:#95a6b1}.st3{fill:#4da12e}</style><g id="Grupo_13216_2_" transform="translate(.246 .246)"><path class="st1" d="M-.25-.25h65v65h-65z" id="Rectángulo_3799_2_"/></g><path class="st1" d="M0 0h65v65H0z" id="Rectángulo_3799-2_2_"/><g id="Grupo_13713" transform="translate(52.108 -34.359)"><g id="Grupo_13383" transform="translate(300.476 38.105)"><path class="st2" d="M-316.75 45.03h-11.28c-4.36 0-7.9-3.54-7.9-7.9V10.44c0-.44.36-.8.8-.8s.8.36.8.8v26.69c0 3.47 2.83 6.3 6.3 6.3l24.1-.03V4h-24.15c-.44 0-.8-.36-.8-.8s.36-.8.8-.8h24.95c.44 0 .8.36.8.8v41c0 .44-.36.8-.8.8l-13.62.03z" id="Trazado_11778"/></g><g id="Grupo_13384" transform="translate(321.843 45.57)"><path class="st2" d="M-336.63 13.91a.79.79 0 01-.74-.5c-.07-.17-1.69-4.24 0-7.48s5.95-4.24 6.13-4.28c.38-.08.77.12.92.48.07.17 1.69 4.24 0 7.48s-5.95 4.24-6.13 4.28c-.07.01-.13.02-.18.02zm5.05-10.5c-1.14.39-3.39 1.36-4.38 3.25s-.5 4.29-.16 5.45c1.14-.39 3.39-1.36 4.38-3.25.99-1.88.49-4.29.16-5.45z" id="Trazado_6132_1_"/><path class="st2" d="M-336.64 13.91a.84.84 0 01-.37-.09.806.806 0 01-.34-1.08l2.78-5.34c.2-.39.69-.54 1.08-.34.39.2.54.69.34 1.08l-2.78 5.34c-.14.27-.42.43-.71.43z" id="Línea_1426_1_"/></g><g id="Grupo_13385" transform="translate(307.753 53.258)"><path class="st2" d="M-326.41 16.34c-2.5 0-4.54-2.04-4.54-4.54s2.04-4.54 4.54-4.54 4.54 2.04 4.54 4.54-2.04 4.54-4.54 4.54zm0-7.48c-1.62 0-2.94 1.32-2.94 2.94s1.32 2.94 2.94 2.94 2.94-1.32 2.94-2.94-1.32-2.94-2.94-2.94z" id="Elipse_2272"/><path class="st2" d="M-326.41 22.76c-.57 0-1.14-.05-1.7-.15a.822.822 0 01-.6-.47l-1.04-2.35c-.33-.75-1.12-1.2-1.92-1.11l-2.57.28a.803.803 0 01-.71-.29c-.71-.89-1.28-1.87-1.69-2.93-.1-.25-.06-.54.1-.76l1.52-2.08c.49-.66.49-1.55 0-2.22l-1.52-2.08a.798.798 0 01-.1-.76c.41-1.06.97-2.04 1.69-2.93.17-.21.43-.32.71-.29l2.57.28c.81.09 1.59-.36 1.92-1.11l1.04-2.35c.11-.25.34-.43.61-.47.55-.08 1.11-.13 1.67-.14.59 0 1.16.05 1.71.14.27.04.49.22.6.47l1.04 2.35c.33.75 1.09 1.2 1.92 1.11l2.57-.28c.28-.02.54.08.71.29.71.88 1.28 1.87 1.69 2.93.1.25.06.54-.1.76l-1.52 2.08a1.86 1.86 0 000 2.22l1.52 2.08c.16.22.2.51.1.76-.41 1.06-.98 2.05-1.69 2.93-.17.21-.44.32-.71.29l-2.57-.28c-.83-.1-1.59.36-1.92 1.11l-1.04 2.35c-.11.25-.33.42-.6.47-.55.11-1.12.15-1.69.15zm-1.01-1.66c.68.08 1.35.08 2.03 0l.86-1.95a3.446 3.446 0 013.56-2.05l2.12.23c.4-.55.74-1.14 1.01-1.76l-1.26-1.72c-.9-1.23-.9-2.88 0-4.11l1.26-1.72c-.27-.62-.61-1.21-1.02-1.76l-2.12.23c-1.51.16-2.94-.66-3.56-2.06l-.86-1.95c-.34-.04-.68-.06-1.02-.06-.33.01-.67.03-1.01.07l-.85 1.94a3.467 3.467 0 01-3.56 2.06l-2.12-.23c-.4.55-.74 1.14-1.01 1.76l1.26 1.72c.9 1.23.9 2.88 0 4.11l-1.26 1.72c.27.62.61 1.21 1.01 1.76l2.12-.23c1.5-.16 2.94.66 3.56 2.05l.86 1.95z" id="Trazado_11779"/></g></g><path class="st1" d="M0 48.26h65V65H0z"/><path class="st3" d="M45.38 61.32h-7.17c-.66 0-1.2-.54-1.2-1.2s.54-1.2 1.2-1.2h7.17c.66 0 1.2.54 1.2 1.2s-.54 1.2-1.2 1.2zm7.73 0h-.58c-.66 0-1.2-.54-1.2-1.2s.54-1.2 1.2-1.2h.58c.66 0 1.2.54 1.2 1.2s-.54 1.2-1.2 1.2zm-34.12 0h-7.1c-.66 0-1.2-.54-1.2-1.2s.54-1.2 1.2-1.2h7.1c.66 0 1.2.54 1.2 1.2s-.53 1.2-1.2 1.2z"/><path d="M31.05 61.32H18.53c-.66 0-1.2-.54-1.2-1.2s.54-1.2 1.2-1.2h12.52c.66 0 1.2.54 1.2 1.2s-.54 1.2-1.2 1.2zm4.42-6.11H11.89c-.66 0-1.2-.54-1.2-1.2s.54-1.2 1.2-1.2h23.58c.66 0 1.2.54 1.2 1.2s-.53 1.2-1.2 1.2z" fill="#96d200"/><path class="st3" d="M53.11 55.21H34.75c-.66 0-1.2-.54-1.2-1.2s.54-1.2 1.2-1.2h18.36c.66 0 1.2.54 1.2 1.2s-.54 1.2-1.2 1.2zm-40.79 0h-.43c-.66 0-1.2-.54-1.2-1.2s.54-1.2 1.2-1.2h.43c.66 0 1.2.54 1.2 1.2s-.54 1.2-1.2 1.2z"/><path d="M17.45 11.87c-2.75 0-4.98-2.24-4.98-4.98s2.24-4.98 4.98-4.98h.02a4.97 4.97 0 014.96 4.95v.04c0 2.74-2.23 4.97-4.98 4.97zm.01-8.36h-.01c-1.87 0-3.39 1.52-3.39 3.38s1.52 3.38 3.38 3.38 3.38-1.52 3.38-3.38v-.03c0-1.85-1.51-3.35-3.36-3.35z" fill="#00a800" id="Trazado_11848_2_"/></svg>