<svg version="1.1" id="Capa_1" xmlns="http://www.w3.org/2000/svg" xmlns:xlink="http://www.w3.org/1999/xlink" x="0" y="0" viewBox="0 0 65 65" xml:space="preserve"><style>.st1,.st2{fill:none}.st2{stroke:#95a6b1;stroke-width:1.6;stroke-linecap:round;stroke-linejoin:round}.st5{fill:#4da12e}</style><g id="Capa_1_1_"><g id="Grupo_14998_1_" transform="translate(-83.703)"><path id="Rectángulo_3799-2_4_" class="st1" d="M83.7 0h65v65h-65z"/><g id="Grupo_15257" transform="translate(-5.723 -1.554)"><g id="Grupo_15256"><path id="Línea_2918" class="st2" d="M96.48 50.82h51.4"/><path id="Trazado_12587" class="st2" d="M100.18 16.16V14a3.11 3.11 0 013.12-3.11h3.62c1.72 0 3.12 1.39 3.12 3.11v36.59"/><path id="Línea_2919" class="st2" d="M100.18 50.82V31.81"/><path id="Trazado_12588" class="st2" d="M129.04 50.74V36.26c0-1.66 1.34-3 3-3h9.12c1.66 0 3 1.34 3 3v14.56"/><path id="Trazado_12589" class="st2" d="M125.3 50.74V29.77c0-1.66 1.34-3 3-3h5.22c1.66 0 3 1.34 3 3v3.34"/><path id="Trazado_12590" class="st2" d="M110.03 17h1.37c1.44 0 2.6 1.16 2.6 2.6v31"/><path id="Trazado_12591" class="st2" d="M110.26 32.65h7.02a2.29 2.29 0 012.29 2.29v7.71a2.29 2.29 0 002.29 2.29h6.92"/><path id="Trazado_12592" class="st2" d="M139.12 42.23l-2.1-4.34-1.95 4.34c-.21.44-.35.92-.41 1.41 0 1.34 1.08 2.42 2.42 2.42s2.42-1.08 2.42-2.42c-.04-.49-.17-.97-.38-1.41z"/><path id="Línea_2920" class="st2" d="M131.26 20.48v6"/><path id="Rectángulo_5173" class="st2" d="M123.74 4.03h20.18V15.3a5.15 5.15 0 01-5.15 5.15h-20.18V9.18c0-2.84 2.31-5.15 5.15-5.15z"/><g id="Grupo_15255"><path id="Línea_2921" class="st2" d="M122.66 15.53v-5.42"/><path id="Rectángulo_5174" class="st2" d="M124.78 7.07h.16c1.17 0 2.12.94 2.12 2.11v1.03c0 1.17-.95 2.12-2.12 2.12h-2.28V9.19c0-1.17.95-2.12 2.12-2.12z"/><path id="Rectángulo_5175" class="st2" d="M122.66 12.34h2.31c1.15 0 2.09.93 2.09 2.08v1.11c0 1.17-.95 2.12-2.12 2.12h-2.28v-5.31z"/><path id="Trazado_12593" class="st2" d="M136.29 7.07v10.58h3.57"/><path id="Trazado_12594" class="st2" d="M133.46 7.07h-3.51v10.58h3.56"/><path id="Línea_2922" class="st2" d="M133.18 12.33h-3.06"/></g><path id="Trazado_11848" d="M104.34 23.87c0 2.31-1.88 4.18-4.19 4.18-2.31 0-4.18-1.88-4.18-4.19s1.87-4.18 4.18-4.18h0c2.3-.01 4.17 1.85 4.18 4.15v.04h.01z" fill="none" stroke="#00a800" stroke-width="1.6" stroke-linecap="round" stroke-linejoin="round" stroke-miterlimit="10"/></g></g></g><defs><path id="SVGID_1_" d="M0 48.26h65V65H0z"/></defs><clipPath id="SVGID_2_"><use xlink:href="#SVGID_1_" overflow="visible"/></clipPath><g clip-path="url(#SVGID_2_)"><path class="st1" d="M0 48.26h65V65H0z"/><path class="st5" d="M45.38 61.32h-7.17c-.66 0-1.2-.54-1.2-1.2s.54-1.2 1.2-1.2h7.17c.66 0 1.2.54 1.2 1.2s-.54 1.2-1.2 1.2zm7.73 0h-.58c-.66 0-1.2-.54-1.2-1.2s.54-1.2 1.2-1.2h.58c.66 0 1.2.54 1.2 1.2s-.54 1.2-1.2 1.2zm-34.12 0h-7.1c-.66 0-1.2-.54-1.2-1.2s.54-1.2 1.2-1.2h7.1c.66 0 1.2.54 1.2 1.2s-.54 1.2-1.2 1.2z"/><path d="M31.05 61.32H18.53c-.66 0-1.2-.54-1.2-1.2s.54-1.2 1.2-1.2h12.52c.66 0 1.2.54 1.2 1.2s-.54 1.2-1.2 1.2zm4.42-6.11H11.89c-.66 0-1.2-.54-1.2-1.2s.54-1.2 1.2-1.2h23.58c.66 0 1.2.54 1.2 1.2s-.54 1.2-1.2 1.2z" fill="#96d200"/><path class="st5" d="M53.11 55.21H34.75c-.66 0-1.2-.54-1.2-1.2s.54-1.2 1.2-1.2h18.36c.66 0 1.2.54 1.2 1.2s-.54 1.2-1.2 1.2zm-40.79 0h-.43c-.66 0-1.2-.54-1.2-1.2s.54-1.2 1.2-1.2h.43c.66 0 1.2.54 1.2 1.2s-.54 1.2-1.2 1.2z"/></g></g></svg>