<svg xmlns="http://www.w3.org/2000/svg" width="47" height="134.742"><g data-name="Grupo 18915"><g data-name="Grupo 18735"><path data-name="Línea 2119" fill="none" stroke="#505d6c" opacity=".29" d="M23.569 48.455v82.202"/><g data-name="Trazado 12540" fill="#fff"><path d="M23.569 133.742c-1.93 0-3.5-1.57-3.5-3.5s1.57-3.5 3.5-3.5 3.5 1.57 3.5 3.5c0 .738-.236 1.412-.764 2.186l-.005.008-.005.008c-.41.625-1.438 1.298-2.726 1.298z"/><path d="M23.569 127.742a2.503 2.503 0 00-2.5 2.5c0 1.378 1.122 2.5 2.5 2.5.972 0 1.675-.52 1.89-.847l.02-.03c.52-.762.59-1.248.59-1.623 0-1.378-1.122-2.5-2.5-2.5m0-2a4.5 4.5 0 014.5 4.5c0 .925-.279 1.784-.938 2.75-.626.955-2.001 1.75-3.562 1.75a4.5 4.5 0 010-9z" fill="#00af00"/></g></g><g data-name="Capa 1"><g data-name="Grupo 19027" fill="none"><g data-name="Grupo 19026" stroke="#97a5af" stroke-linecap="round" stroke-linejoin="round" stroke-width="1.5"><path data-name="Trazado 19218" d="M33.76 29.27H13.24v-1.76a1.677 1.677 0 011.68-1.68h17.16a1.677 1.677 0 011.68 1.68z"/><path data-name="Trazado 19219" d="M23.3 19.91h-3.86v5.92h8.12v-2.64"/><path data-name="Trazado 19220" d="M22.27 19.91h-4.3a1.139 1.139 0 01-1.14-1.14v-1.3a1.139 1.139 0 011.14-1.14h5.16"/><path data-name="Trazado 19221" d="M26.05 13.53V9.45h-5.1v6.88h2.37"/><path data-name="Rectángulo 5642" d="M20.95 29.27h5.09v3.16h-5.09z"/><path data-name="Trazado 19222" d="M38.57 7.65a1.805 1.805 0 01-1.8 1.8H10.22a1.805 1.805 0 01-1.8-1.8V6.43a1.805 1.805 0 011.8-1.8h26.55a1.805 1.805 0 011.8 1.8z"/><path data-name="Línea 4171" d="M20.95 16.33l-6.72-6.72"/><path data-name="Línea 4172" d="M29.3 13.11l3.49-3.5"/><path data-name="Rectángulo 5643" d="M10.25 32.43h26.49v8.52H10.25z"/><path data-name="Rectángulo 5644" d="M36.75 30.98h4.59v11.39h-4.59z"/><path data-name="Rectángulo 5645" d="M5.66 30.98h4.59v11.39H5.66z"/></g><path data-name="Trazado 5703" d="M31.37 18.12a3.27 3.27 0 110-.04z" stroke="#00a800" stroke-linecap="round" stroke-linejoin="round" stroke-width="1.5"/><path data-name="Rectángulo 3799-2" d="M0 0h47v47H0z"/></g></g></g></svg>