<svg id="Capa_1" data-name="Capa 1" xmlns="http://www.w3.org/2000/svg" viewBox="0 0 47 47"><defs><style>.cls-2{fill:#fff}</style></defs><path fill="none" d="M0 0h47v47H0z"/><g id="Grupo_12874" data-name="Grupo 12874"><g id="Grupo_12785" data-name="Grupo 12785"><path class="cls-2" d="M7.2 31.4H3a.8.8 0 01-.7-.8.7.7 0 01.7-.7h4.2a.8.8 0 01.8.7.9.9 0 01-.8.8z" id="Línea_2124" data-name="Línea 2124"/><path class="cls-2" d="M43.9 31.4h-4.4a.8.8 0 01-.8-.8.7.7 0 01.8-.7h4.4a.7.7 0 01.8.7.8.8 0 01-.8.8z" id="Línea_2125" data-name="Línea 2125"/><path class="cls-2" d="M34.1 31.4H12.5a.8.8 0 01-.7-.8.7.7 0 01.7-.7h21.6a.7.7 0 01.8.7.8.8 0 01-.8.8z" id="Línea_2126" data-name="Línea 2126"/><path class="cls-2" d="M7.2 17.5H3a.7.7 0 01-.7-.7.8.8 0 01.7-.8h4.2a.9.9 0 01.8.8.8.8 0 01-.8.7z" id="Línea_2127" data-name="Línea 2127"/><path class="cls-2" d="M43.9 17.5h-4.4a.7.7 0 01-.8-.7.8.8 0 01.8-.8h4.4a.8.8 0 01.8.8.7.7 0 01-.8.7z" id="Línea_2128" data-name="Línea 2128"/><path class="cls-2" d="M34.1 17.5h-9.3a.7.7 0 01-.7-.7.8.8 0 01.7-.8h9.3a.8.8 0 01.8.8.7.7 0 01-.8.7z" id="Línea_2129" data-name="Línea 2129"/></g><path class="cls-2" d="M12.5 34.5H7.2a.7.7 0 01-.7-.7V13.6a.7.7 0 01.7-.7h5.3a.8.8 0 01.8.7v20.2a.8.8 0 01-.8.7zM8 33h3.8V14.4H8z" id="Rectángulo_4522" data-name="Rectángulo 4522"/><path class="cls-2" d="M39.5 34.5h-5.4a.7.7 0 01-.7-.7V13.6a.7.7 0 01.7-.7h5.4a.7.7 0 01.7.7v20.2a.7.7 0 01-.7.7zM34.9 33h3.8V14.4h-3.8z" id="Rectángulo_4523" data-name="Rectángulo 4523"/><g id="Grupo_12788" data-name="Grupo 12788"><path class="cls-2" d="M28.8 24.4h-9.3a.7.7 0 01-.7-.7.8.8 0 01.7-.8h9.3a.9.9 0 01.8.8.8.8 0 01-.8.7z" id="Línea_2130" data-name="Línea 2130"/><path class="cls-2" d="M25.4 27.9l-.5-.2a.8.8 0 010-1.1l2.9-2.9-2.9-2.9a.8.8 0 010-1.1.7.7 0 011 0l3.5 3.5a.7.7 0 010 1l-3.5 3.5z" id="Trazado_11511" data-name="Trazado 11511"/></g><path class="cls-2" d="M18.7 20.3a3.8 3.8 0 01-3.9-3.9 3.9 3.9 0 017.8 0 3.8 3.8 0 01-3.9 3.9zm0-6.3a2.4 2.4 0 102.4 2.4 2.4 2.4 0 00-2.4-2.4z" id="Elipse_2116" data-name="Elipse 2116"/></g></svg>