<svg version="1.1" id="Capa_1" xmlns="http://www.w3.org/2000/svg" x="0" y="0" viewBox="0 0 130 130" xml:space="preserve"><style>.st0{fill:#c9d2d7}</style><g id="Grupo_15113" transform="translate(-7015.001 -3142)"><g id="Grupo_15112" transform="translate(6860.888 3003.195)"><g id="Grupo_15432" transform="translate(59.043 184.315)"><g id="Grupo_15436" transform="translate(200.07 -45.51)"><g id="Grupo_15433"><g id="Grupo_15432-2" transform="translate(-105)"><path id="Trazado_12676" class="st0" d="M65.01 65h61.51c0 33.97-27.54 61.51-61.51 61.51S3.5 98.97 3.5 65 31.04 3.49 65.01 3.49V65z"/></g><g id="Grupo_17110" transform="translate(-319.732 -14.578)"><g id="Grupo_17114" transform="translate(214.733 14.578)"><g id="Grupo_17111"><g id="Grupo_17110-2"><path id="Trazado_18126" class="st0" d="M65 64.98L80.91 5.59c32.8 8.8 52.25 42.52 43.45 75.32-8.8 32.8-42.52 52.25-75.32 43.45C16.25 115.56-3.2 81.84 5.6 49.04 12.81 22.16 37.17 3.48 65 3.49v61.49z"/></g></g><g id="Grupo_17113" transform="translate(61.5)"><g id="Grupo_17112"><path id="Trazado_18127" d="M3.5 64.98V3.49c5.38-.08 10.74.63 15.91 2.1L3.5 64.98z" fill="#2b5cda"/></g></g></g></g></g></g></g></g><circle id="Elipse_2439" cx="7078.5" cy="3206.99" r="36" fill="#fff"/></g></svg>