<svg xmlns="http://www.w3.org/2000/svg" width="29.058" height="29.048"><g data-name="icon ocenza desktop redes sociales instagram" transform="translate(1 1.041)"><g data-name="Grupo 6813"><g data-name="Grupo 6812"><path data-name="Trazado 5851" d="M7.68 1.342A13.481 13.481 0 11.056 13.488a12.948 12.948 0 01.066-1.331" fill="none" stroke="#fff" stroke-linecap="round" stroke-linejoin="round" stroke-width="2"/></g></g><path data-name="Trazado 5852" d="M5.852 5.984a2.9 2.9 0 110-.053.468.468 0 010 .053z" fill="none" stroke="#efef00" stroke-linecap="round" stroke-linejoin="round" stroke-width="2"/><path data-name="Rectángulo 1820" d="M10.675 8.079h5.715a2.553 2.553 0 012.554 2.554h0v5.713A2.554 2.554 0 0116.39 18.9h-5.713a2.554 2.554 0 01-2.553-2.554h0v-5.709a2.553 2.553 0 012.55-2.558z" fill="none" stroke="#fff" stroke-linecap="round" stroke-linejoin="round" stroke-width="2"/><circle data-name="Elipse 670" cx="1.66" cy="1.66" transform="translate(11.869 11.828)" fill="none" stroke="#fff" stroke-linecap="round" stroke-linejoin="round" stroke-width="2" r="1.66"/></g></svg>