<svg version="1.1" id="Capa_1" xmlns="http://www.w3.org/2000/svg" x="0" y="0" viewBox="0 0 65 65" xml:space="preserve"><style>.st0{fill:none}.st1{fill:#4da12e}.st3{fill:none;stroke:#95a3ad;stroke-width:1.6;stroke-linecap:round;stroke-linejoin:round}</style><path class="st0" d="M0 48.26h65V65H0z"/><path class="st1" d="M45.38 61.32h-7.17c-.66 0-1.2-.54-1.2-1.2s.54-1.2 1.2-1.2h7.17c.66 0 1.2.54 1.2 1.2s-.54 1.2-1.2 1.2zm7.73 0h-.58c-.66 0-1.2-.54-1.2-1.2s.54-1.2 1.2-1.2h.58c.66 0 1.2.54 1.2 1.2s-.54 1.2-1.2 1.2zm-34.12 0h-7.1c-.66 0-1.2-.54-1.2-1.2s.54-1.2 1.2-1.2h7.1c.66 0 1.2.54 1.2 1.2s-.54 1.2-1.2 1.2z"/><path d="M31.05 61.32H18.53c-.66 0-1.2-.54-1.2-1.2s.54-1.2 1.2-1.2h12.52c.66 0 1.2.54 1.2 1.2s-.54 1.2-1.2 1.2zm4.42-6.11H11.89c-.66 0-1.2-.54-1.2-1.2s.54-1.2 1.2-1.2h23.58c.66 0 1.2.54 1.2 1.2s-.53 1.2-1.2 1.2z" fill="#96d200"/><path class="st1" d="M53.11 55.21H34.75c-.66 0-1.2-.54-1.2-1.2s.54-1.2 1.2-1.2h18.36c.66 0 1.2.54 1.2 1.2s-.54 1.2-1.2 1.2zm-40.79 0h-.43c-.66 0-1.2-.54-1.2-1.2s.54-1.2 1.2-1.2h.43c.66 0 1.2.54 1.2 1.2s-.54 1.2-1.2 1.2z"/><path id="Rectángulo_3799-2_3_" class="st0" d="M0 0h65v65H0z"/><g id="Grupo_15307_2_"><path id="Rectángulo_5190_2_" class="st3" d="M42.23 14.51h13.5v21.42h-13.5z"/><g id="Grupo_15301-2_2_"><path id="Línea_2965_2_" class="st3" d="M55.73 18.34v-3.83"/><path id="Línea_2966_2_" class="st3" d="M51.22 18.34v-3.83"/><path id="Línea_2967_2_" class="st3" d="M46.72 18.34v-3.83"/><path id="Línea_2968_2_" class="st3" d="M42.22 14.51v3.86"/></g><path id="Línea_2969_2_" class="st3" d="M40.53 18.38h16.9"/><path id="Trazado_12633_2_" class="st3" d="M42.12 33.06h-5.33v-4.25h5.33"/><path id="Rectángulo_5191_2_" class="st3" d="M42.23 14.51h13.5v21.42h-13.5z"/><g id="Grupo_15302_2_"><path id="Línea_2970_2_" class="st3" d="M55.73 18.34v-3.83"/><path id="Línea_2971_2_" class="st3" d="M51.22 18.34v-3.83"/><path id="Línea_2972_2_" class="st3" d="M46.72 18.34v-3.83"/><path id="Línea_2973_2_" class="st3" d="M42.22 14.51v3.86"/></g><path id="Línea_2974_2_" class="st3" d="M40.53 18.38h16.9"/><path id="Trazado_12634_2_" class="st3" d="M42.22 21.19c2.11 1.92 6.26 1.22 8.13.43 1.75-.7 3.73-.54 5.35.44"/><g id="Grupo_15303_2_"><path id="Línea_2975_2_" class="st3" d="M47.6 30.22h8.1"/></g><path id="Trazado_12635_2_" class="st3" d="M19.1 15.7V5.74h17.49v30.2H19.1v-7.27"/><g id="Grupo_15304_2_"><path id="Línea_2976_2_" class="st3" d="M36.58 9.57V5.74"/><path id="Línea_2977_2_" class="st3" d="M24.39 9.57V5.74"/><path id="Línea_2978_2_" class="st3" d="M19.09 5.74V9.6"/></g><path id="Línea_2979_2_" class="st3" d="M17.4 9.61h20.88"/><path id="Trazado_12638_2_" class="st3" d="M19.1 15.16V5.74h17.49v30.2H19.1v-7.27"/><g id="Grupo_15305_2_"><path id="Línea_2980_2_" class="st3" d="M36.58 9.57V5.74"/><path id="Línea_2981_2_" class="st3" d="M31.28 9.57V5.74"/><path id="Línea_2982_2_" class="st3" d="M19.09 5.74V9.6"/></g><path id="Línea_2983_2_" class="st3" d="M17.4 9.61h20.88"/><path id="Trazado_12641_2_" class="st3" d="M25.07 22.23c.74-.13 1.46-.34 2.15-.62 1.88-.8 8.21-.37 9.34.44"/><g id="Grupo_15306_2_"><path id="Línea_2984_2_" class="st3" d="M19.09 30.22h8.1"/></g><path id="Línea_2985_2_" class="st3" d="M5.45 35.94h54.1"/></g><path id="Trazado_11848_3_" d="M22.93 21.77a3.841 3.841 0 01-7.68 0c0-2.12 1.72-3.84 3.84-3.84h0c2.11-.01 3.83 1.7 3.84 3.81 0 0 0 0 0 0v.03z" fill="none" stroke="#19a500" stroke-width="1.6" stroke-miterlimit="10"/><g id="Grupo_15385_1_" transform="translate(-8.932 -2.977)"><g id="Grupo_13591_1_"><g id="Grupo_13590_1_"><path id="Rectángulo_4762_1_" class="st3" d="M17.45 43.09h2.88v7.84h-2.88z"/><path id="Rectángulo_4763_1_" class="st3" d="M14.22 45.71h3.23v2.6h-3.23z"/><path id="Trazado_11867-2_4_" class="st3" d="M38.74 44.6h29.91"/><path id="Trazado_11867-2_1_" class="st3" d="M68.64 49.42H20.32V44.6h14.4"/></g></g></g><path class="st3" d="M25.79 35.94v5.69m4.01-5.69v5.69"/></svg>