<svg version="1.1" id="Capa_1" xmlns="http://www.w3.org/2000/svg" x="0" y="0" viewBox="0 0 65 65" xml:space="preserve"><style>.st0{fill:none}.st1{fill:#4da12e}.st4{fill:none;stroke:#95a6b1;stroke-width:1.6;stroke-linecap:round;stroke-linejoin:round}</style><path class="st0" d="M0 48.26h65V65H0z"/><path class="st1" d="M45.38 61.32h-7.17c-.66 0-1.2-.54-1.2-1.2s.54-1.2 1.2-1.2h7.17c.66 0 1.2.54 1.2 1.2s-.54 1.2-1.2 1.2zm7.73 0h-.58c-.66 0-1.2-.54-1.2-1.2s.54-1.2 1.2-1.2h.58c.66 0 1.2.54 1.2 1.2s-.54 1.2-1.2 1.2zm-34.12 0h-7.1c-.66 0-1.2-.54-1.2-1.2s.54-1.2 1.2-1.2h7.1c.66 0 1.2.54 1.2 1.2s-.53 1.2-1.2 1.2z"/><path d="M31.05 61.32H18.53c-.66 0-1.2-.54-1.2-1.2s.54-1.2 1.2-1.2h12.52c.66 0 1.2.54 1.2 1.2s-.54 1.2-1.2 1.2zm4.42-6.11H11.89c-.66 0-1.2-.54-1.2-1.2s.54-1.2 1.2-1.2h23.58c.66 0 1.2.54 1.2 1.2s-.53 1.2-1.2 1.2z" fill="#96d200"/><path class="st1" d="M53.11 55.21H34.75c-.66 0-1.2-.54-1.2-1.2s.54-1.2 1.2-1.2h18.36c.66 0 1.2.54 1.2 1.2s-.54 1.2-1.2 1.2zm-40.79 0h-.43c-.66 0-1.2-.54-1.2-1.2s.54-1.2 1.2-1.2h.43c.66 0 1.2.54 1.2 1.2s-.54 1.2-1.2 1.2z"/><path class="st0" d="M0 0h65v65H0z"/><path class="st4" d="M33.06 32.7h7.15v4.69h-7.15m11.71-4.69h7.76v4.69h-7.76"/><path transform="rotate(-180 42.498 35.032)" class="st4" d="M40.22 30.44h4.55v9.18h-4.55z"/><path transform="rotate(-180 54.81 35.032)" class="st4" d="M52.53 30.44h4.55v9.18h-4.55z"/><path class="st4" d="M13.35 29.41c1.65-1.19 5.08-1.81 7.83-.64s8.83 2.19 11.91-.62"/><path class="st4" d="M13.29 15.92v25.11c0 .56.45 1.01 1 1.01h17.76c.56 0 1.01-.45 1.01-1.01V10.21c0-.55-.45-1-1.01-1H18.72m4.7 4.92l17.59-.02M7.91 34.46l13.04-.02M19.76 5.67H26v2.84h-6.24z"/><path d="M16.59 9.38c.34.74.36 1.55.12 2.27-.26.79-.84 1.48-1.66 1.85-1.56.71-3.41.03-4.12-1.54s-.03-3.41 1.54-4.12 3.4-.02 4.12 1.54z" fill="none" stroke="#00a800" stroke-width="1.6" stroke-linecap="round" stroke-linejoin="round" stroke-miterlimit="10"/></svg>