<svg version="1.1" id="Capa_1" xmlns="http://www.w3.org/2000/svg" x="0" y="0" viewBox="0 0 65 65" xml:space="preserve"><style>.st0{fill:none}.st1{fill:#4da12e}.st5{fill:none;stroke:#97a5af;stroke-width:1.6;stroke-linecap:round;stroke-linejoin:round}</style><path class="st0" d="M0 48.26h65V65H0z"/><path class="st1" d="M45.38 61.32h-7.17c-.66 0-1.2-.54-1.2-1.2s.54-1.2 1.2-1.2h7.17c.66 0 1.2.54 1.2 1.2s-.54 1.2-1.2 1.2zm7.73 0h-.58c-.66 0-1.2-.54-1.2-1.2s.54-1.2 1.2-1.2h.58c.66 0 1.2.54 1.2 1.2s-.54 1.2-1.2 1.2zm-34.12 0h-7.1c-.66 0-1.2-.54-1.2-1.2s.54-1.2 1.2-1.2h7.1c.66 0 1.2.54 1.2 1.2s-.54 1.2-1.2 1.2z"/><path d="M31.05 61.32H18.53c-.66 0-1.2-.54-1.2-1.2s.54-1.2 1.2-1.2h12.52c.66 0 1.2.54 1.2 1.2s-.54 1.2-1.2 1.2zm4.42-6.11H11.89c-.66 0-1.2-.54-1.2-1.2s.54-1.2 1.2-1.2h23.58c.66 0 1.2.54 1.2 1.2s-.53 1.2-1.2 1.2z" fill="#96d200"/><path class="st1" d="M53.11 55.21H34.75c-.66 0-1.2-.54-1.2-1.2s.54-1.2 1.2-1.2h18.36c.66 0 1.2.54 1.2 1.2s-.54 1.2-1.2 1.2zm-40.79 0h-.43c-.66 0-1.2-.54-1.2-1.2s.54-1.2 1.2-1.2h.43c.66 0 1.2.54 1.2 1.2s-.54 1.2-1.2 1.2z"/><path id="Rectángulo_3799-2_1_" class="st0" d="M0 0h65v65H0z"/><g id="Grupo_17011"><path id="Trazado_17828_1_" class="st5" d="M18.53 30.32H42.7"/><path id="Trazado_17828_2_" class="st5" d="M14.29 42.33H6.37V30.32h7.93"/><path id="Trazado_17828_5_" class="st5" d="M46.63 42.33H18.37"/><path id="Trazado_17828_6_" class="st5" d="M56.56 30.32h2.06v12.01H50.7"/><path id="Trazado_17828" class="st5" d="M42.25 30.32h1.82"/><path id="Rectángulo_5344" class="st5" d="M18.37 42.33v.83h-4.08V29.48h4.08v12.85"/><path id="Rectángulo_5345_1_" class="st5" d="M50.71 37.1v6.06h-4.08v-7.91"/><g id="Grupo_17007"><path id="Línea_3390" class="st5" d="M26.31 36.35h12.24"/><path id="Trazado_17831" class="st5" d="M35.57 33.23l3.12 3.12-3.12 3.12"/></g></g><g id="Grupo_17016_1_"><path id="Rectángulo_5166_2_" class="st5" d="M36.77 25.8h-8.54"/><path id="Rectángulo_5166_1_" class="st5" d="M28.23 25.8v-6.59h8.54v6.59"/><path id="Rectángulo_5167_1_" class="st5" d="M30.39 16.43h4.21v2.78h-4.21z"/><path id="Rectángulo_5168_1_" class="st5" d="M26.98 11.62h11.05c.52 0 .94.42.94.94v.22c0 .52-.42.94-.94.94H26.98c-.52 0-.94-.42-.94-.94v-.22c-.01-.52.42-.94.94-.94z"/><path id="Línea_2909_1_" class="st5" d="M30.39 16.43l-3.41-2.7"/><path id="Línea_2910_1_" class="st5" d="M34.61 16.43l3.41-2.7"/></g><path class="st5" d="M36.81 25.72c2.37 1.03 3.75 2.31 5.44 4.6m-19.51.01c1.7-2.31 3.07-3.59 5.45-4.62"/><path id="Trazado_11848_2_" d="M54.31 30.22a3.841 3.841 0 01-7.68 0c0-2.12 1.72-3.84 3.84-3.84h0c2.11-.01 3.83 1.7 3.84 3.81 0 0 0 0 0 0v.03z" fill="none" stroke="#19a500" stroke-width="1.6" stroke-miterlimit="10"/></svg>