<svg version="1.1" id="Capa_1" xmlns="http://www.w3.org/2000/svg" x="0" y="0" viewBox="0 0 65 65" xml:space="preserve"><style>.st0{fill:none}.st1{fill:#4da12e}.st4{fill:none;stroke:#95a6b1;stroke-width:1.6;stroke-linecap:round;stroke-linejoin:round}</style><path id="Rectángulo_3799-2_2_" class="st0" d="M0 0h65v65H0z"/><path class="st0" d="M0 48.26h65V65H0z"/><path class="st1" d="M45.38 61.32h-7.17c-.66 0-1.2-.54-1.2-1.2s.54-1.2 1.2-1.2h7.17c.66 0 1.2.54 1.2 1.2s-.54 1.2-1.2 1.2zm7.73 0h-.58c-.66 0-1.2-.54-1.2-1.2s.54-1.2 1.2-1.2h.58c.66 0 1.2.54 1.2 1.2s-.54 1.2-1.2 1.2zm-34.12 0h-7.1c-.66 0-1.2-.54-1.2-1.2s.54-1.2 1.2-1.2h7.1c.66 0 1.2.54 1.2 1.2s-.54 1.2-1.2 1.2z"/><path d="M31.05 61.32H18.53c-.66 0-1.2-.54-1.2-1.2s.54-1.2 1.2-1.2h12.52c.66 0 1.2.54 1.2 1.2s-.54 1.2-1.2 1.2zm4.42-6.11H11.89c-.66 0-1.2-.54-1.2-1.2s.54-1.2 1.2-1.2h23.58c.66 0 1.2.54 1.2 1.2s-.53 1.2-1.2 1.2z" fill="#96d200"/><path class="st1" d="M53.11 55.21H34.75c-.66 0-1.2-.54-1.2-1.2s.54-1.2 1.2-1.2h18.36c.66 0 1.2.54 1.2 1.2s-.54 1.2-1.2 1.2zm-40.79 0h-.43c-.66 0-1.2-.54-1.2-1.2s.54-1.2 1.2-1.2h.43c.66 0 1.2.54 1.2 1.2s-.54 1.2-1.2 1.2z"/><path class="st4" d="M48.46 33.31V22.94H10.24V41.2h33.92m4.3-1.95v-.34"/><path transform="rotate(-180 7.474 32.07)" class="st4" d="M4.71 21.22h5.53v21.7H4.71z"/><path class="st4" d="M14.85 36.98h-4.53m4.47-4.94h-4.47m4.53-4.93h-4.53m38.14 0h-4.53m4.54 12.31v-.68m0-5.44V21.22H54v10.66m-5.53.24h-.01M21.63 20.86v2.1h16.36v-8.8H26.33m3.48 0V8.79m-3.48 0h7.24m-7.3 9.77h11.72"/><circle class="st4" cx="51.8" cy="39.08" r="3.35"/><path class="st4" d="M58.89 33.37l-2.3.25c-1.04.11-2.03-.46-2.45-1.42l-.93-2.11c-.46-.07-.93-.12-1.41-.12s-1.03.07-1.41.12l-.93 2.11c-.42.96-1.41 1.53-2.45 1.42l-2.3-.25c-.59.73-1.06 1.55-1.4 2.43l1.36 1.86c.62.84.62 1.99 0 2.83l-1.36 1.86c.34.89.81 1.71 1.4 2.43l2.3-.25c1.04-.11 2.03.46 2.45 1.42l.93 2.11c.46.07.93.12 1.41.12s.95-.05 1.41-.12l.93-2.11c.42-.96 1.41-1.53 2.45-1.42l2.3.25c.59-.73 1.06-1.55 1.4-2.43l-1.36-1.86c-.62-.84-.62-1.99 0-2.83l1.36-1.86c-.34-.88-.81-1.7-1.4-2.43z"/><path class="st0" d="M0 0h65v65H0z"/><path d="M23.74 14.2c.34.74.36 1.55.12 2.27-.26.79-.84 1.48-1.66 1.85-1.56.71-3.41.03-4.12-1.54a3.106 3.106 0 011.54-4.12c1.56-.71 3.41-.03 4.12 1.54z" fill="none" stroke="#00a800" stroke-width="1.6" stroke-linecap="round" stroke-linejoin="round" stroke-miterlimit="10"/></svg>