<svg version="1.1" id="Capa_1" xmlns="http://www.w3.org/2000/svg" x="0" y="0" viewBox="0 0 65 65" xml:space="preserve"><style>.st0{fill:none}.st1{fill:#4da12e}.st3{fill:none;stroke:#95a3ad;stroke-width:1.6;stroke-linecap:round;stroke-linejoin:round}</style><path class="st0" d="M0 48.26h65V65H0z"/><path class="st1" d="M45.38 61.32h-7.17c-.66 0-1.2-.54-1.2-1.2s.54-1.2 1.2-1.2h7.17c.66 0 1.2.54 1.2 1.2s-.54 1.2-1.2 1.2zm7.73 0h-.58c-.66 0-1.2-.54-1.2-1.2s.54-1.2 1.2-1.2h.58c.66 0 1.2.54 1.2 1.2s-.54 1.2-1.2 1.2zm-34.12 0h-7.1c-.66 0-1.2-.54-1.2-1.2s.54-1.2 1.2-1.2h7.1c.66 0 1.2.54 1.2 1.2s-.54 1.2-1.2 1.2z"/><path d="M31.05 61.32H18.53c-.66 0-1.2-.54-1.2-1.2s.54-1.2 1.2-1.2h12.52c.66 0 1.2.54 1.2 1.2s-.54 1.2-1.2 1.2zm4.42-6.11H11.89c-.66 0-1.2-.54-1.2-1.2s.54-1.2 1.2-1.2h23.58c.66 0 1.2.54 1.2 1.2s-.53 1.2-1.2 1.2z" fill="#96d200"/><path class="st1" d="M53.11 55.21H34.75c-.66 0-1.2-.54-1.2-1.2s.54-1.2 1.2-1.2h18.36c.66 0 1.2.54 1.2 1.2s-.54 1.2-1.2 1.2zm-40.79 0h-.43c-.66 0-1.2-.54-1.2-1.2s.54-1.2 1.2-1.2h.43c.66 0 1.2.54 1.2 1.2s-.54 1.2-1.2 1.2z"/><path id="Rectángulo_3799-2_2_" class="st0" d="M0 0h65v65H0z"/><path class="st3" d="M16.61 28.66l-1.76-1.84L25.3 16.37h14.45l10.38 10.38-2.51 2.51v1.51l-3.33 3.33m-9.21 9.15s.93 1.64-.33 2.9-2.9 0-2.9 0l-7.62-7.47"/><path class="st3" d="M28.75 36.76l7.83 7.83s1.37 1.05 2.82-.4c1.45-1.45 0-2.9 0-2.9l-7.61-7.61 8.74 8.74s1.32.84 2.63-.46c1.31-1.31 0-2.95 0-2.95l-8.3-8.3 7.12 7.12s1.41 1.03 2.79-.35c1.38-1.38 0-2.9 0-2.9l-9.91-9.91v-4.4h-2.69l-3.42 3.42s-1.5 1.97-2.95.52c0 0-1.62-1.71-.38-2.95l4.71-4.71M46.11 5.89l-6.64 6.64v3.84m10.66 10.38h2.5l3.49-3.5m-19.18 3.5s3.52 1.05 4.09-2.61M18.93 5.89l6.37 6.82v3.66M14.85 26.82H12.3L8.88 23.4m4.92-1.67l-1.99-1.99m39.32 1.99l2.14-2.14M20.99 40.56c.39.6 1.06.99 1.83.99.66 0 1.25-.29 1.65-.75l.95-.95"/><path class="st3" d="M27.47 43.96c-.4.46-.99.75-1.65.75a2.179 2.179 0 01-1.54-3.72"/><path class="st3" d="M28.54 42.91L27.45 44a2.179 2.179 0 001.54 3.72c.66 0 1.25-.29 1.65-.75l.79-.79"/><path id="Trazado_11848_1_" d="M23.08 34.57a3.841 3.841 0 01-7.68 0c0-2.12 1.72-3.84 3.84-3.84h0c2.11-.01 3.83 1.7 3.84 3.81 0 0 0 0 0 0v.03z" fill="none" stroke="#19a500" stroke-width="1.6" stroke-miterlimit="10"/></svg>