<svg version="1.1" id="Capa_1" xmlns="http://www.w3.org/2000/svg" x="0" y="0" viewBox="0 0 65 65" xml:space="preserve"><style>.st0{fill:none}.st1{fill:#4da12e}.st3{fill:none;stroke:#95a3ad;stroke-width:1.6;stroke-linecap:round;stroke-linejoin:round}</style><path class="st0" d="M0 48.26h65V65H0z"/><path class="st1" d="M45.38 61.32h-7.17c-.66 0-1.2-.54-1.2-1.2s.54-1.2 1.2-1.2h7.17c.66 0 1.2.54 1.2 1.2s-.54 1.2-1.2 1.2zm7.73 0h-.58c-.66 0-1.2-.54-1.2-1.2s.54-1.2 1.2-1.2h.58c.66 0 1.2.54 1.2 1.2s-.54 1.2-1.2 1.2zm-34.12 0h-7.1c-.66 0-1.2-.54-1.2-1.2s.54-1.2 1.2-1.2h7.1c.66 0 1.2.54 1.2 1.2s-.53 1.2-1.2 1.2z"/><path d="M31.05 61.32H18.53c-.66 0-1.2-.54-1.2-1.2s.54-1.2 1.2-1.2h12.52c.66 0 1.2.54 1.2 1.2s-.54 1.2-1.2 1.2zm4.42-6.11H11.89c-.66 0-1.2-.54-1.2-1.2s.54-1.2 1.2-1.2h23.58c.66 0 1.2.54 1.2 1.2s-.53 1.2-1.2 1.2z" fill="#96d200"/><path class="st1" d="M53.11 55.21H34.75c-.66 0-1.2-.54-1.2-1.2s.54-1.2 1.2-1.2h18.36c.66 0 1.2.54 1.2 1.2s-.54 1.2-1.2 1.2zm-40.79 0h-.43c-.66 0-1.2-.54-1.2-1.2s.54-1.2 1.2-1.2h.43c.66 0 1.2.54 1.2 1.2s-.54 1.2-1.2 1.2z"/><path id="Rectángulo_3799-2_4_" class="st0" d="M0 0h65v65H0z"/><path id="Trazado_11848_4_" d="M24.79 18.81a3.841 3.841 0 01-7.68 0c0-2.12 1.72-3.84 3.84-3.84h0c2.11-.01 3.83 1.7 3.84 3.81 0 0 0 0 0 0v.03z" fill="none" stroke="#19a500" stroke-width="1.6" stroke-miterlimit="10"/><path class="st3" d="M20.95 12.68l-.48-.82c-.33-.55.2-1.22.82-1.03l4.24 1.3c.11.03.23.04.34.02l4.06-.8c.33-.07.57-.35.57-.69V8.45c0-.18.07-.35.19-.48l1.88-2c.22-.23.56-.29.85-.14l3.04 1.62c.12.06.26.09.39.08l3.86-.34c.26-.02.51.1.65.31l.12.19c.16.25.16.57-.02.81l-1.68 2.28a.72.72 0 00-.09.68l1.58 3.98c.06.15.07.31.02.46l-.57 1.97c-.04.15-.04.32.03.47m-3.73 18.32h-3.44c-.17 0-.33.06-.46.17l-.94.81c-.32.27-.33.76-.02 1.05l2.69 2.51c.13.12.21.28.22.45l.11 1.22c.01.16.08.31.2.43l1.76 1.82c.17.18.24.43.17.67l-.34 1.3a.7.7 0 01-1.09.39l-2.19-1.57c-.03-.02-.07-.05-.11-.06l-4.2-1.99c-.05-.02-.09-.05-.13-.08l-2.47-1.92a.687.687 0 00-.66-.11l-1.06.37c-.24.08-.51.03-.7-.14L21.04 39a.696.696 0 01-.23-.51l-.07-3c0-.1-.03-.21-.07-.3l-1.7-3.4a.705.705 0 01.08-.75l.99-1.27c.22-.28.2-.68-.05-.93l-1.7-1.71a.711.711 0 01-.17-.72l.63-1.9m23.15-2.12l-3.97 5.4h3.97l-3.8 5.55"/><path class="st3" d="M32.39 22.84a9.036 9.036 0 017.53-4.03c5 0 9.05 4.05 9.05 9.05m-1.85 5.49a9.041 9.041 0 01-7.21 3.57c-5 0-9.05-4.05-9.05-9.05"/><path class="st3" d="M28.75 28.81l2.11-2.12 2.12 2.12m18.12-2l-2.12 2.11-2.12-2.11"/></svg>