<svg xmlns="http://www.w3.org/2000/svg" viewBox="0 0 47 47"><style>.st7{fill:none;stroke:#fff;stroke-width:1.5;stroke-linecap:round;stroke-linejoin:round}</style><g id="Capa_1"><path fill="none" d="M0 0h47v47H0z"/><path class="st7" d="M4.33 36.95c3.19 0 3.19 3.18 6.39 3.18 3.19 0 3.19-3.18 6.39-3.18 3.19 0 3.19 3.18 6.38 3.18s3.19-3.18 6.39-3.18c3.2 0 3.2 3.18 6.39 3.18s3.2-3.18 6.39-3.18m-13.39-3.04h6.1m-.84-13.8v3.45H20.11m-5.88 0h-3.25V13.18c0-.71.54-1.29 1.21-1.29h15.37M15.03 6.87h8.5c.65 0 1.18.53 1.18 1.18v3.83h-10.7V7.89c0-.56.46-1.02 1.02-1.02z"/><path class="st7" d="M20.11 23.57h17.86c.76 0 1.38.66 1.38 1.47v13.7m-31.47 0v-13.9c0-.7.53-1.27 1.19-1.27l5.16-.01m15.04.52v12.87m0-8.43h6.1m.02-4.44V39.4M25.32 23.56V39.4m-5.21-15.81l.02 3.29h-5.18v-3.3m4.32-16.71v5.02m11.32 1.1c-.34.74-.36 1.54-.12 2.25.26.79.83 1.46 1.65 1.84 1.55.71 3.38.03 4.09-1.52s.03-3.38-1.52-4.09c-1.57-.72-3.4-.03-4.1 1.52z"/></g></svg>