<svg xmlns="http://www.w3.org/2000/svg" viewBox="0 0 65 65"><style>.st2{fill:none}.st3{fill:#4c9f2e}.st6{fill:none;stroke:#95a6b1;stroke-width:1.6;stroke-linecap:round;stroke-linejoin:round}</style><g id="Capa_1"><path class="st2" d="M0 48.26h65V65H0z"/><path class="st3" d="M45.38 61.32h-7.17c-.66 0-1.2-.54-1.2-1.2s.54-1.2 1.2-1.2h7.17c.66 0 1.2.54 1.2 1.2s-.54 1.2-1.2 1.2zm7.73 0h-.58c-.66 0-1.2-.54-1.2-1.2s.54-1.2 1.2-1.2h.58c.66 0 1.2.54 1.2 1.2s-.54 1.2-1.2 1.2zm-34.12 0h-7.1c-.66 0-1.2-.54-1.2-1.2s.54-1.2 1.2-1.2h7.1c.66 0 1.2.54 1.2 1.2s-.54 1.2-1.2 1.2z"/><path d="M31.05 61.32H18.53c-.66 0-1.2-.54-1.2-1.2s.54-1.2 1.2-1.2h12.52c.66 0 1.2.54 1.2 1.2s-.54 1.2-1.2 1.2zm4.42-6.11H11.89c-.66 0-1.2-.54-1.2-1.2s.54-1.2 1.2-1.2h23.58c.66 0 1.2.54 1.2 1.2s-.53 1.2-1.2 1.2z" fill="#94d040"/><path class="st3" d="M53.11 55.21H34.75c-.66 0-1.2-.54-1.2-1.2s.54-1.2 1.2-1.2h18.36c.66 0 1.2.54 1.2 1.2s-.54 1.2-1.2 1.2zm-40.79 0h-.43c-.66 0-1.2-.54-1.2-1.2s.54-1.2 1.2-1.2h.43c.66 0 1.2.54 1.2 1.2s-.54 1.2-1.2 1.2z"/><path class="st2" d="M0 0h65v65H0z"/><path class="st6" d="M47.11 23.22h6.04v12.25h-6.04zm9.45 14.67H54a.85.85 0 01-.85-.85v-15.4c0-.47.38-.85.85-.85h2.56c.47 0 .85.38.85.85v15.4c-.01.47-.39.85-.85.85z"/><path transform="rotate(-180 14.873 29.343)" class="st6" d="M11.85 23.22h6.04v12.25h-6.04z"/><path class="st6" d="M8.44 37.89H11c.47 0 .85-.38.85-.85v-15.4a.85.85 0 00-.85-.85H8.44a.85.85 0 00-.85.85v15.4c.01.47.39.85.85.85zm9.45-14.03H47.1v10.79H17.89zm4.71 0l4.91 10.79m2.58-10.79L35 34.65m2.69-10.79l4.91 10.79"/><path d="M26.3 11.44c.4.88.43 1.84.15 2.7a3.696 3.696 0 01-6.87.37 3.696 3.696 0 011.83-4.9c1.85-.84 4.04-.02 4.89 1.83z" fill="none" stroke="#00a800" stroke-width="1.6" stroke-linecap="round" stroke-linejoin="round" stroke-miterlimit="10"/><path class="st6" d="M55.28 44.59c-2.53 0-2.53-1.97-5.06-1.97s-2.53 1.97-5.06 1.97-2.53-1.97-5.06-1.97-2.53 1.97-5.06 1.97-2.53-1.97-5.06-1.97-2.53 1.97-5.06 1.97-2.53-1.97-5.06-1.97-2.53 1.97-5.07 1.97-2.53-1.97-5.07-1.97m0-29.56c1.61 0 1.61 1.97 3.21 1.97s1.61-1.97 3.21-1.97m39.14 1.97c-2.52 0-2.52-1.97-5.04-1.97s-2.52 1.97-5.03 1.97c-2.52 0-2.52-1.97-5.04-1.97s-2.52 1.97-5.04 1.97-2.52-1.97-5.04-1.97"/><path class="st2" d="M0 .12h64.58V64.7H0z"/></g></svg>