<svg xmlns="http://www.w3.org/2000/svg" viewBox="0 0 65 65"><style>.st2{fill:none}.st3{fill:#4c9f2e}.st6{fill:none;stroke:#95a6b1;stroke-width:1.6;stroke-linecap:round;stroke-linejoin:round}</style><g id="Capa_1"><path class="st2" d="M0 48.26h65V65H0z"/><path class="st3" d="M45.38 61.32h-7.17c-.66 0-1.2-.54-1.2-1.2s.54-1.2 1.2-1.2h7.17c.66 0 1.2.54 1.2 1.2s-.54 1.2-1.2 1.2zm7.73 0h-.58c-.66 0-1.2-.54-1.2-1.2s.54-1.2 1.2-1.2h.58c.66 0 1.2.54 1.2 1.2s-.54 1.2-1.2 1.2zm-34.12 0h-7.1c-.66 0-1.2-.54-1.2-1.2s.54-1.2 1.2-1.2h7.1c.66 0 1.2.54 1.2 1.2s-.54 1.2-1.2 1.2z"/><path d="M31.05 61.32H18.53c-.66 0-1.2-.54-1.2-1.2s.54-1.2 1.2-1.2h12.52c.66 0 1.2.54 1.2 1.2s-.54 1.2-1.2 1.2zm4.42-6.11H11.89c-.66 0-1.2-.54-1.2-1.2s.54-1.2 1.2-1.2h23.58c.66 0 1.2.54 1.2 1.2s-.54 1.2-1.2 1.2z" fill="#94d040"/><path class="st3" d="M53.11 55.21H34.75c-.66 0-1.2-.54-1.2-1.2s.54-1.2 1.2-1.2h18.36c.66 0 1.2.54 1.2 1.2s-.54 1.2-1.2 1.2zm-40.79 0h-.43c-.66 0-1.2-.54-1.2-1.2s.54-1.2 1.2-1.2h.43c.66 0 1.2.54 1.2 1.2s-.54 1.2-1.2 1.2z"/><path class="st2" d="M0 0h65v65H0z"/><path class="st2" d="M0 .12h64.58V64.7H0z"/><path d="M13.67 13.03c.43.94.46 1.96.16 2.87-.33 1-1.06 1.87-2.1 2.34-1.98.9-4.31.03-5.22-1.94s-.03-4.31 1.94-5.22c1.98-.89 4.32-.02 5.22 1.95z" fill="none" stroke="#00a800" stroke-width="1.6" stroke-linecap="round" stroke-linejoin="round" stroke-miterlimit="10"/><path class="st6" d="M52.2 34.81l3.11-11.91a.55.55 0 00-.68-.66l-8.1 2.19c-.12.03-.25.05-.37.05H10.32c-.36 0-.65.29-.65.65v3.91c0 .45.36.81.81.81h1.97l.07.27c.38 1.5-.06 3.52-.57 4.85m4.86-23.16h4.8c.3 0 .54.29.54.66v2.35h3.33c.64 0 1.15.52 1.15 1.15v2.83h-9.21m-4.96 11.05h41.03"/><path class="st6" d="M10.78 21.71v2.77h19.53V18.8H16.72m18.14 5.68v-4.17h11.46v4.16m-7.62-4.16v4.17m3.84-4.17v4.17m16.3 13.56c-3.22 0-3.22-3.15-6.45-3.15-3.22 0-3.22 3.15-6.45 3.15-3.22 0-3.22-3.15-6.45-3.15-3.22 0-3.22 3.15-6.45 3.15-3.22 0-3.22-3.15-6.44-3.15-3.23 0-3.23 3.15-6.45 3.15-3.23 0-3.23-3.15-6.45-3.15s-3.23 3.15-6.45 3.15m51.59 6.68c-3.22 0-3.22-3.15-6.45-3.15-3.22 0-3.22 3.15-6.45 3.15-3.22 0-3.22-3.15-6.44-3.15m-6.44 3.15c-3.22 0-3.22-3.15-6.44-3.15-3.23 0-3.23 3.15-6.45 3.15-3.23 0-3.23-3.15-6.45-3.15"/></g></svg>