<svg xmlns="http://www.w3.org/2000/svg" viewBox="0 0 65 65"><style>.st2{fill:none}.st3{fill:#4c9f2e}.st6{fill:none;stroke:#95a6b1;stroke-width:1.6;stroke-linecap:round;stroke-linejoin:round}</style><g id="Capa_1"><path class="st2" d="M.15 48.26h65V65h-65z"/><path class="st3" d="M45.53 61.32h-7.17c-.66 0-1.2-.54-1.2-1.2s.54-1.2 1.2-1.2h7.17c.66 0 1.2.54 1.2 1.2s-.54 1.2-1.2 1.2zm7.73 0h-.58c-.66 0-1.2-.54-1.2-1.2s.54-1.2 1.2-1.2h.58c.66 0 1.2.54 1.2 1.2s-.54 1.2-1.2 1.2zm-34.12 0h-7.1c-.66 0-1.2-.54-1.2-1.2s.54-1.2 1.2-1.2h7.1c.66 0 1.2.54 1.2 1.2s-.54 1.2-1.2 1.2z"/><path d="M31.19 61.32H18.68c-.66 0-1.2-.54-1.2-1.2s.54-1.2 1.2-1.2H31.2c.66 0 1.2.54 1.2 1.2s-.54 1.2-1.21 1.2zm4.43-6.11H12.04c-.66 0-1.2-.54-1.2-1.2s.54-1.2 1.2-1.2h23.58c.66 0 1.2.54 1.2 1.2s-.54 1.2-1.2 1.2z" fill="#94d040"/><path class="st3" d="M53.26 55.21H34.89c-.66 0-1.2-.54-1.2-1.2s.54-1.2 1.2-1.2h18.36c.66 0 1.2.54 1.2 1.2s-.53 1.2-1.19 1.2zm-40.79 0h-.43c-.66 0-1.2-.54-1.2-1.2s.54-1.2 1.2-1.2h.43c.66 0 1.2.54 1.2 1.2s-.54 1.2-1.2 1.2z"/><path class="st2" d="M.15 0h65v65h-65z"/><path class="st2" d="M.15.12h64.58V64.7H.15z"/><path class="st6" d="M55.51 29.58H29.35c-.73 0-1.33-.59-1.33-1.33V25.2c0-.73.59-1.33 1.33-1.33h26.17c.73 0 1.33.59 1.33 1.33v3.06c-.01.73-.61 1.32-1.34 1.32zM30.93 12.12V8.74c0-1.15.93-2.08 2.08-2.08h19.33c1.21 0 2.19.98 2.19 2.19v15.01h-23.6m.04-13.01h23.56m-10.85.03v12.99m0-9.91h6.41m-6.41 3.25h6.41m-6.41 3.37h6.41m.02-9.7v12.99"/><path d="M33.96 18.08c0 .8-.31 1.52-.81 2.06-.55.6-1.34.97-2.22.97-1.67 0-3.03-1.36-3.03-3.03s1.36-3.03 3.03-3.03 3.03 1.36 3.03 3.03z" fill="none" stroke="#00a800" stroke-width="1.6" stroke-linecap="round" stroke-linejoin="round" stroke-miterlimit="10"/><path class="st6" d="M32.77 38.58H9.97v-4.01h22.8a2.48 2.48 0 002.48-2.48v-2.51h4.01v2.51c0 3.58-2.91 6.49-6.49 6.49zM6.06 32.87h3.91v7.42H6.06zm18.56-5.14c-2.06 0-2.06-2-4.11-2-2.06 0-2.06 2-4.11 2-2.06 0-2.06-2-4.12-2s-2.06 2-4.12 2m48.68 18.52c-2.43 0-2.43-2-4.87-2-2.43 0-2.43 2-4.87 2-2.43 0-2.43-2-4.87-2-2.43 0-2.43 2-4.87 2-2.43 0-2.43-2-4.87-2-2.43 0-2.43 2-4.87 2-2.43 0-2.43-2-4.87-2-2.43 0-2.43 2-4.87 2s-2.44-2-4.87-2-2.44 2-4.87 2m43.41-7.67h3.8v-4.01h-3.8a2.48 2.48 0 01-2.48-2.48v-2.51h-4.01v2.51c0 3.58 2.91 6.49 6.49 6.49z"/><path transform="rotate(-180 57.305 36.577)" class="st6" d="M55.35 32.87h3.91v7.42h-3.91z"/></g></svg>