<svg xmlns="http://www.w3.org/2000/svg" width="65" height="65"><g data-name="Grupo 21402"><g data-name="Grupo 20763"><g data-name="Grupo 20762"><g data-name="Grupo 20761" fill="none"><path data-name="Rectángulo 5831" d="M0 48.259h65V65H0z"/><g data-name="Grupo 20760" stroke-linecap="round" stroke-linejoin="round" stroke-width="2.4"><path data-name="Línea 4652" stroke="#4c9f2e" d="M38.213 60.119h7.167"/><path data-name="Línea 4653" stroke="#4c9f2e" d="M52.528 60.119h.581"/><path data-name="Línea 4654" stroke="#4c9f2e" d="M11.891 60.119h7.101"/><path data-name="Línea 4655" stroke="#94d040" d="M18.529 60.119h12.517"/><path data-name="Línea 4656" stroke="#94d040" d="M11.891 54.012h23.582"/><path data-name="Línea 4657" stroke="#4c9f2e" d="M34.746 54.012h18.363"/><path data-name="Línea 4658" stroke="#4c9f2e" d="M11.891 54.012h.429"/></g></g></g><path data-name="Rectángulo 5832" fill="none" d="M0 0h65v65H0z"/><path data-name="Rectángulo 5833" fill="none" d="M0 .119h64.579v64.579H0z"/></g><g data-name="Grupo 20766" transform="translate(-.147)"><rect data-name="Rectángulo 5834" width="28.817" height="5.709" rx="1.326" transform="translate(28.021 23.874)" fill="none" stroke="#95a6b1" stroke-linecap="round" stroke-linejoin="round" stroke-width="1.6"/><path data-name="Trazado 19939" d="M30.931 12.119V8.738a2.082 2.082 0 012.082-2.082h19.326a2.19 2.19 0 012.19 2.189v15.007h-23.6" fill="none" stroke="#95a6b1" stroke-linecap="round" stroke-linejoin="round" stroke-width="1.6"/><path data-name="Línea 4659" fill="none" stroke="#95a6b1" stroke-linecap="round" stroke-linejoin="round" stroke-width="1.6" d="M30.974 10.848l23.555-.001"/><path data-name="Línea 4660" fill="none" stroke="#95a6b1" stroke-linecap="round" stroke-linejoin="round" stroke-width="1.6" d="M43.681 10.875v12.999"/><path data-name="Línea 4661" fill="none" stroke="#95a6b1" stroke-linecap="round" stroke-linejoin="round" stroke-width="1.6" d="M43.681 13.963h6.412"/><path data-name="Línea 4662" fill="none" stroke="#95a6b1" stroke-linecap="round" stroke-linejoin="round" stroke-width="1.6" d="M43.681 17.214h6.412"/><path data-name="Línea 4663" fill="none" stroke="#95a6b1" stroke-linecap="round" stroke-linejoin="round" stroke-width="1.6" d="M43.681 20.585h6.412"/><path data-name="Línea 4664" fill="none" stroke="#95a6b1" stroke-linecap="round" stroke-linejoin="round" stroke-width="1.6" d="M50.112 10.875v12.999"/><path data-name="Trazado 19940" d="M33.963 18.084a3.032 3.032 0 11-3.032-3.032 3.021 3.021 0 013.032 3.032z" fill="none" stroke="#00a800" stroke-linecap="round" stroke-linejoin="round" stroke-width="1.6"/><g data-name="Grupo 20764"><path data-name="Trazado 19945" d="M32.771 38.581H9.968v-4.006h22.8a2.486 2.486 0 002.483-2.483v-2.509h4.009v2.509a6.5 6.5 0 01-6.489 6.489z" fill="none" stroke="#95a6b1" stroke-linecap="round" stroke-linejoin="round" stroke-width="1.6"/></g><path data-name="Rectángulo 5835" fill="none" stroke="#95a6b1" stroke-linecap="round" stroke-linejoin="round" stroke-width="1.6" d="M6.058 32.869h3.91v7.417h-3.91z"/><path data-name="Trazado 19946" d="M24.618 27.73c-2.057 0-2.057-2-4.113-2s-2.057 2-4.113 2-2.057-2-4.115-2-2.057 2-4.115 2" fill="none" stroke="#95a6b1" stroke-linecap="round" stroke-linejoin="round" stroke-width="1.6"/><path data-name="Trazado 19947" d="M56.838 46.254c-2.434 0-2.434-2-4.867-2s-2.433 2-4.867 2-2.433-2-4.867-2-2.433 2-4.865 2-2.433-2-4.866-2-2.434 2-4.867 2-2.435-2-4.869-2-2.433 2-4.867 2-2.435-2-4.871-2-2.435 2-4.87 2" fill="none" stroke="#95a6b1" stroke-linecap="round" stroke-linejoin="round" stroke-width="1.6"/><g data-name="Grupo 20765"><path data-name="Trazado 19948" d="M51.547 38.581h3.8v-4.006h-3.8a2.486 2.486 0 01-2.483-2.483v-2.509h-4.006v2.509a6.5 6.5 0 006.489 6.489z" fill="none" stroke="#95a6b1" stroke-linecap="round" stroke-linejoin="round" stroke-width="1.6"/></g><path data-name="Rectángulo 5836" fill="none" stroke="#95a6b1" stroke-linecap="round" stroke-linejoin="round" stroke-width="1.6" d="M59.26 40.286h-3.91v-7.417h3.91z"/></g></g></svg>