<svg xmlns="http://www.w3.org/2000/svg" viewBox="0 0 47 47"><style>.st2,.st3{fill:none}.st3{stroke:#fff;stroke-width:1.5;stroke-linecap:round;stroke-linejoin:round}</style><g id="Capa_1"><path class="st2" d="M.07 0H47v47H.07z"/><g id="Grupo_20707" transform="translate(-86.367 -96.5)"><path id="Rectángulo_4834" class="st2" d="M86.37 96.5h47v47h-47z"/><g id="Grupo_12874"><g id="Grupo_12785"><path id="Línea_2124" class="st3" d="M93.62 132.71h-4.21"/><path id="Línea_2125" class="st3" d="M130.33 132.71h-4.5"/><path id="Línea_2126" class="st3" d="M120.53 132.71H98.92"/><path id="Línea_2127" class="st3" d="M91.62 118.87h-2.21"/><path id="Línea_2128" class="st3" d="M130.33 118.87h-4.5"/><path id="Línea_2129" class="st3" d="M120.53 118.87h-8.33"/></g><path id="Rectángulo_4522" class="st3" d="M98.92 123.41v12.44h-5.31v-14.23"/><path id="Rectángulo_4523" class="st3" d="M120.53 115.73h5.3v20.12h-5.3z"/><g id="Grupo_13372"><circle id="Elipse_2271" class="st3" cx="101.93" cy="114.88" r="3.95"/><path id="Trazado_11774_2_" class="st3" d="M101.93 104.15c-.55.01-1.11.06-1.66.14l-1.1 2.48c-.5 1.13-1.67 1.8-2.89 1.67l-2.71-.3c-.69.86-1.25 1.83-1.65 2.86l1.61 2.19c.73.99.73 2.34 0 3.34l-1.61 2.19c.4 1.03.95 2 1.65 2.86l2.71-.29c1.22-.13 2.39.54 2.89 1.67l1.1 2.48c1.1.19 2.21.19 3.31 0l1.1-2.48c.5-1.13 1.67-1.8 2.89-1.67l2.71.29c.69-.86 1.25-1.83 1.65-2.86l-1.61-2.19a2.82 2.82 0 010-3.34l1.61-2.19"/></g><g id="Grupo_13372_1_"><circle id="Elipse_2271_1_" class="st3" cx="101.94" cy="114.88" r="3.95"/><path id="Trazado_11774_1_" class="st3" d="M101.94 125.6c.55-.01 1.11-.06 1.66-.14l1.1-2.48c.5-1.13 1.67-1.8 2.89-1.67l2.71.3c.69-.86 1.25-1.83 1.65-2.86l-1.61-2.19a2.82 2.82 0 010-3.34l1.61-2.19c-.4-1.03-.95-2-1.65-2.86l-2.71.29c-1.22.13-2.39-.54-2.89-1.67l-1.1-2.48c-1.1-.19-2.21-.19-3.31 0l-1.1 2.48c-.5 1.13-1.67 1.8-2.89 1.67l-2.71-.29c-.69.86-1.25 1.83-1.65 2.86l1.61 2.19c.73.99.73 2.34 0 3.34l-1.61 2.19"/></g></g></g></g></svg>