<svg xmlns="http://www.w3.org/2000/svg" viewBox="0 0 65 65"><style>.st2{fill:none}.st4{fill:#4c9f2e}.st7{fill:none;stroke:#95a6b1;stroke-width:1.6;stroke-linecap:round;stroke-linejoin:round}</style><g id="Capa_1"><path class="st2" d="M0 48.26h65V65H0z"/><path class="st4" d="M45.38 61.32h-7.17c-.66 0-1.2-.54-1.2-1.2s.54-1.2 1.2-1.2h7.17c.66 0 1.2.54 1.2 1.2s-.54 1.2-1.2 1.2zm7.73 0h-.58c-.66 0-1.2-.54-1.2-1.2s.54-1.2 1.2-1.2h.58c.66 0 1.2.54 1.2 1.2s-.54 1.2-1.2 1.2zm-34.12 0h-7.1c-.66 0-1.2-.54-1.2-1.2s.54-1.2 1.2-1.2h7.1c.66 0 1.2.54 1.2 1.2s-.54 1.2-1.2 1.2z"/><path d="M31.05 61.32H18.53c-.66 0-1.2-.54-1.2-1.2s.54-1.2 1.2-1.2h12.52c.66 0 1.2.54 1.2 1.2s-.54 1.2-1.2 1.2zm4.42-6.11H11.89c-.66 0-1.2-.54-1.2-1.2s.54-1.2 1.2-1.2h23.58c.66 0 1.2.54 1.2 1.2s-.53 1.2-1.2 1.2z" fill="#94d040"/><path class="st4" d="M53.11 55.21H34.75c-.66 0-1.2-.54-1.2-1.2s.54-1.2 1.2-1.2h18.36c.66 0 1.2.54 1.2 1.2s-.54 1.2-1.2 1.2zm-40.79 0h-.43c-.66 0-1.2-.54-1.2-1.2s.54-1.2 1.2-1.2h.43c.66 0 1.2.54 1.2 1.2s-.54 1.2-1.2 1.2z"/><path class="st2" d="M0 0h65v65H0z"/><path class="st2" d="M0 0h65v65H0z"/><path class="st7" d="M42.02 10.52a7.794 7.794 0 00-7.53-5.77c-3.6 0-6.63 2.44-7.53 5.76m15.33 9.41v1.55c0 4.31-3.49 7.8-7.8 7.8s-7.8-3.49-7.8-7.8v-1.42"/><path class="st7" d="M37.7 23.86h3.16c2.49 0 4.51 3.02 4.51 5.51v2.94m-3.24-12.39a5.26 5.26 0 00-2.32-9.83v-.01H28.63v.02c-2.72.2-4.88 2.47-4.88 5.24a5.26 5.26 0 005.26 5.26c1.61 0 3.05-.73 4.02-1.87h2.49a5.27 5.27 0 004.02 1.87c.94 0 1.83-.25 2.59-.68m-13.62-6.9h7.87m-1.01 12.51h-2.25c-.89 0-1.61-.72-1.61-1.61v-.29c0-.89.72-1.61 1.61-1.61h2.25c.89 0 1.61.72 1.61 1.61v.29c0 .89-.72 1.61-1.61 1.61z"/><path d="M19.3 35.6c.41.9.44 1.87.15 2.73-.32.95-1.01 1.78-2 2.23-1.88.86-4.11.03-4.97-1.85s-.03-4.11 1.85-4.97c1.89-.85 4.11-.02 4.97 1.86z" fill="none" stroke="#00a800" stroke-width="1.6" stroke-linecap="round" stroke-linejoin="round" stroke-miterlimit="10"/><path class="st7" d="M15.46 43.5v3.01h37.39v-3.79c0-5.34-4.33-9.67-9.67-9.67H25.13c-1.52 0-2.95.23-4.23.68m10.6-4.46v3.49m6.2-3.49v3.49m7.1-17.42h1.37m-23.77 0h1.36"/></g></svg>