<svg xmlns="http://www.w3.org/2000/svg" viewBox="0 0 65 65"><style>.st2{fill:none}.st4{fill:#4c9f2e}.st7{fill:none;stroke:#95a6b1;stroke-width:1.6;stroke-linecap:round;stroke-linejoin:round}</style><g id="Capa_1"><path class="st2" d="M0 48.32h65v16.74H0z"/><path class="st4" d="M45.38 61.38h-7.17c-.66 0-1.2-.54-1.2-1.2s.54-1.2 1.2-1.2h7.17c.66 0 1.2.54 1.2 1.2s-.54 1.2-1.2 1.2zm7.73 0h-.58c-.66 0-1.2-.54-1.2-1.2s.54-1.2 1.2-1.2h.58c.66 0 1.2.54 1.2 1.2s-.54 1.2-1.2 1.2zm-34.12 0h-7.1c-.66 0-1.2-.54-1.2-1.2s.54-1.2 1.2-1.2h7.1c.66 0 1.2.54 1.2 1.2s-.53 1.2-1.2 1.2z"/><path d="M31.05 61.38H18.53c-.66 0-1.2-.54-1.2-1.2s.54-1.2 1.2-1.2h12.52c.66 0 1.2.54 1.2 1.2s-.54 1.2-1.2 1.2zm4.42-6.11H11.89c-.66 0-1.2-.54-1.2-1.2s.54-1.2 1.2-1.2h23.58c.66 0 1.2.54 1.2 1.2s-.53 1.2-1.2 1.2z" fill="#94d040"/><path class="st4" d="M53.11 55.27H34.75c-.66 0-1.2-.54-1.2-1.2s.54-1.2 1.2-1.2h18.36c.66 0 1.2.54 1.2 1.2s-.54 1.2-1.2 1.2zm-40.79 0h-.43c-.66 0-1.2-.54-1.2-1.2s.54-1.2 1.2-1.2h.43c.66 0 1.2.54 1.2 1.2s-.54 1.2-1.2 1.2z"/><path class="st2" d="M0 .06h65v65H0z"/><g id="Grupo_20781"><g id="Grupo_20780"><path id="Trazado_19961" d="M16.14 16.26c.94 2.06.03 4.49-2.03 5.44-2.06.94-4.49.03-5.44-2.03a4.103 4.103 0 012.02-5.43c2.05-.95 4.48-.05 5.43 2 .01 0 .02.01.02.02z" fill="none" stroke="#00a800" stroke-width="1.6" stroke-linecap="round" stroke-linejoin="round" stroke-miterlimit="10"/><path id="Trazado_19963" class="st7" d="M18.76 20.57h14.07c.89 0 1.61.72 1.61 1.61v7.8"/><path id="Línea_4680" class="st7" d="M12.61 30.14V24.7"/><path id="Trazado_19964" class="st7" d="M18.76 14.18h9.78c.59 0 1.07.48 1.07 1.07v5.33"/><g id="Grupo_20778"><path id="Trazado_19965_1_" class="st7" d="M23.52 24.82a1.24 1.24 0 00-1.21 0l-13.47 7.4c-.54.3-.78.94-.58 1.52l3.86 11.75"/><path id="Línea_4682" class="st7" d="M22.91 24.65v21.19"/><path id="Trazado_19965_3_" class="st7" d="M34.27 43.81l3.3-10.07c.21-.58-.04-1.23-.58-1.52l-13.47-7.4a1.24 1.24 0 00-1.21 0"/><path id="Trazado_19965_2_" class="st7" d="M33.72 45.49l.55-1.68"/></g><circle id="Elipse_3107" class="st7" cx="16.38" cy="33.64" r="1.63"/><circle id="Elipse_3107_1_" class="st7" cx="29.98" cy="33.64" r="1.63"/><path id="Rectángulo_5841" class="st7" d="M21.53 7.53h3.58c.53 0 .96.43.96.96v5.68h-5.44V8.43c0-.5.4-.9.9-.9z"/><g id="Grupo_20779"><path id="Trazado_19966" class="st7" d="M41.98 46.38c-2.32 0-2.32-2.27-4.64-2.27s-2.32 2.27-4.64 2.27-2.32-2.27-4.64-2.27-2.32 2.27-4.64 2.27-2.32-2.27-4.64-2.27-2.32 2.27-4.64 2.27-2.32-2.27-4.65-2.27-2.32 2.27-4.65 2.27"/></g></g></g><path class="st7" d="M35.57 39.85h13.17c1.56 0 2.83 1.27 2.83 2.83v3.64"/><path class="st7" d="M37.38 35.25h13.13c3.25 0 5.88 2.63 5.88 5.88v5.19m-17.02-6.47l4.49-4.49m1.78 4.49l4.48-4.49m.41 5.1l4.68-1.85m1.17 6.71l-4.81-2.24"/></g></svg>