<svg xmlns="http://www.w3.org/2000/svg" viewBox="0 0 65 65"><style>.st2{fill:none}.st4{fill:#4c9f2e}.st7{fill:none;stroke:#95a6b1;stroke-width:1.6;stroke-linecap:round;stroke-linejoin:round}</style><g id="Capa_1"><path class="st2" d="M0 48.26h65V65H0z"/><path class="st4" d="M45.38 61.32h-7.17c-.66 0-1.2-.54-1.2-1.2s.54-1.2 1.2-1.2h7.17c.66 0 1.2.54 1.2 1.2s-.54 1.2-1.2 1.2zm7.73 0h-.58c-.66 0-1.2-.54-1.2-1.2s.54-1.2 1.2-1.2h.58c.66 0 1.2.54 1.2 1.2s-.54 1.2-1.2 1.2zm-34.12 0h-7.1c-.66 0-1.2-.54-1.2-1.2s.54-1.2 1.2-1.2h7.1c.66 0 1.2.54 1.2 1.2s-.54 1.2-1.2 1.2z"/><path d="M31.05 61.32H18.53c-.66 0-1.2-.54-1.2-1.2s.54-1.2 1.2-1.2h12.52c.66 0 1.2.54 1.2 1.2s-.54 1.2-1.2 1.2zm4.42-6.11H11.89c-.66 0-1.2-.54-1.2-1.2s.54-1.2 1.2-1.2h23.58c.66 0 1.2.54 1.2 1.2s-.53 1.2-1.2 1.2z" fill="#94d040"/><path class="st4" d="M53.11 55.21H34.75c-.66 0-1.2-.54-1.2-1.2s.54-1.2 1.2-1.2h18.36c.66 0 1.2.54 1.2 1.2s-.54 1.2-1.2 1.2zm-40.79 0h-.43c-.66 0-1.2-.54-1.2-1.2s.54-1.2 1.2-1.2h.43c.66 0 1.2.54 1.2 1.2s-.54 1.2-1.2 1.2z"/><path class="st2" d="M0 0h65v65H0z"/><path d="M12.42 17.72c.37.82.4 1.71.14 2.5a3.43 3.43 0 01-1.83 2.04c-1.72.79-3.75.03-4.54-1.69s-.03-3.75 1.69-4.54 3.75-.03 4.54 1.69z" fill="none" stroke="#00a800" stroke-width="1.5" stroke-linecap="round" stroke-linejoin="round" stroke-miterlimit="10"/><path class="st7" d="M53.54 40.88l3.33-12.72a.59.59 0 00-.73-.7l-8.65 2.34c-.13.04-.27.05-.4.05H8.82c-.38 0-.69.31-.69.69v4.18c0 .48.39.87.87.87h2.1l.07.29c.41 1.61-.07 3.76-.61 5.18m4.19-22.74h6.13c.32 0 .58.31.58.7v2.51h3.55c.68 0 1.23.55 1.23 1.23v3.02H16.4m-5.31 9.8h43.83"/><path class="st7" d="M9.3 24.89v4.95h20.86v-4.06H15.65m44.99 18.55c-3.44 0-3.44-3.36-6.89-3.36-3.44 0-3.44 3.36-6.89 3.36-3.44 0-3.44-3.36-6.89-3.36-3.44 0-3.44 3.36-6.89 3.36-3.44 0-3.44-3.36-6.88-3.36s-3.44 3.36-6.89 3.36c-3.45 0-3.45-3.36-6.89-3.36s-3.45 3.36-6.89 3.36m37.56-20.55V10.35m-4.26 3.74l4.26-4.26 4.25 4.26"/></g></svg>