<svg xmlns="http://www.w3.org/2000/svg" viewBox="0 0 65 65"><style>.st2{fill:none}.st4{fill:#4c9f2e}.st7{fill:none;stroke:#95a6b1;stroke-width:1.6;stroke-linecap:round;stroke-linejoin:round}</style><g id="Capa_1"><path class="st2" d="M0 48.26h65V65H0z"/><path class="st4" d="M45.38 61.32h-7.17c-.66 0-1.2-.54-1.2-1.2s.54-1.2 1.2-1.2h7.17c.66 0 1.2.54 1.2 1.2s-.54 1.2-1.2 1.2zm7.73 0h-.58c-.66 0-1.2-.54-1.2-1.2s.54-1.2 1.2-1.2h.58c.66 0 1.2.54 1.2 1.2s-.54 1.2-1.2 1.2zm-34.12 0h-7.1c-.66 0-1.2-.54-1.2-1.2s.54-1.2 1.2-1.2h7.1c.66 0 1.2.54 1.2 1.2s-.54 1.2-1.2 1.2z"/><path d="M31.05 61.32H18.53c-.66 0-1.2-.54-1.2-1.2s.54-1.2 1.2-1.2h12.52c.66 0 1.2.54 1.2 1.2s-.54 1.2-1.2 1.2zm4.42-6.11H11.89c-.66 0-1.2-.54-1.2-1.2s.54-1.2 1.2-1.2h23.58c.66 0 1.2.54 1.2 1.2s-.53 1.2-1.2 1.2z" fill="#94d040"/><path class="st4" d="M53.11 55.21H34.75c-.66 0-1.2-.54-1.2-1.2s.54-1.2 1.2-1.2h18.36c.66 0 1.2.54 1.2 1.2s-.54 1.2-1.2 1.2zm-40.79 0h-.43c-.66 0-1.2-.54-1.2-1.2s.54-1.2 1.2-1.2h.43c.66 0 1.2.54 1.2 1.2s-.54 1.2-1.2 1.2z"/><path class="st2" d="M0 0h65v65H0z"/><path class="st2" d="M0 0h65v65H0z"/><path d="M13.8 29.1c.37.82.4 1.71.14 2.5a3.43 3.43 0 01-1.83 2.04c-1.72.79-3.75.03-4.54-1.69s-.03-3.75 1.69-4.54 3.76-.03 4.54 1.69z" fill="none" stroke="#00a800" stroke-width="1.6" stroke-linecap="round" stroke-linejoin="round" stroke-miterlimit="10"/><path class="st7" d="M10.69 36.75v9.51h22.56V32.41c0-3.97-3.21-7.18-7.18-7.18h-8.2c-1.12 0-2.19.17-3.14.5m7.24-18.9c-2.77 0-5.02 2.25-5.02 5.02v5.37c0 2.77 2.25 5.02 5.02 5.02 2.77 0 5.02-2.25 5.02-5.02v-5.37a5.023 5.023 0 00-5.02-5.02zm-7.34 6.32h14.68M21.97 9.4V4.52M48.6 46.26h-8.37c-1.12 0-2.03-.91-2.03-2.03V27.75c0-1.12.91-2.03 2.03-2.03h8.37c1.12 0 2.03.91 2.03 2.03v16.48c0 1.12-.91 2.03-2.03 2.03zm-7.15-25.78v5.24"/><path class="st7" d="M41.45 29.54h6.04v6.04h-6.04zm0 9.5h6.04m-6.04 3.45h6.04m2.34-21.77c2.41 0 4.36 1.95 4.36 4.36m-4.36-7.91c4.37 0 7.9 3.54 7.9 7.9"/></g></svg>