<svg xmlns="http://www.w3.org/2000/svg" viewBox="0 0 65 65"><style>.st2{fill:none}.st3{fill:#4c9f2e}.st9{fill:none;stroke:#95a6b1;stroke-width:1.4545;stroke-linecap:round;stroke-linejoin:round}</style><g id="Capa_1"><path class="st2" d="M0 48.26h65V65H0z"/><path class="st3" d="M45.38 61.32h-7.17c-.66 0-1.2-.54-1.2-1.2s.54-1.2 1.2-1.2h7.17c.66 0 1.2.54 1.2 1.2s-.54 1.2-1.2 1.2zm7.73 0h-.58c-.66 0-1.2-.54-1.2-1.2s.54-1.2 1.2-1.2h.58c.66 0 1.2.54 1.2 1.2s-.54 1.2-1.2 1.2zm-34.12 0h-7.1c-.66 0-1.2-.54-1.2-1.2s.54-1.2 1.2-1.2h7.1c.66 0 1.2.54 1.2 1.2s-.53 1.2-1.2 1.2z"/><path d="M31.05 61.32H18.53c-.66 0-1.2-.54-1.2-1.2s.54-1.2 1.2-1.2h12.52c.66 0 1.2.54 1.2 1.2s-.54 1.2-1.2 1.2zm4.42-6.11H11.89c-.66 0-1.2-.54-1.2-1.2s.54-1.2 1.2-1.2h23.58c.66 0 1.2.54 1.2 1.2s-.53 1.2-1.2 1.2z" fill="#94d040"/><path class="st3" d="M53.11 55.21H34.75c-.66 0-1.2-.54-1.2-1.2s.54-1.2 1.2-1.2h18.36c.66 0 1.2.54 1.2 1.2s-.54 1.2-1.2 1.2zm-40.79 0h-.43c-.66 0-1.2-.54-1.2-1.2s.54-1.2 1.2-1.2h.43c.66 0 1.2.54 1.2 1.2s-.54 1.2-1.2 1.2z"/><path class="st9" d="M21.89 38.23h6.95v3.14H24.5m7.29-3.14h5.02v3.14h-5.02"/><path transform="rotate(-180 30.32 39.792)" class="st9" d="M28.85 36.73h2.94v6.13h-2.94z"/><path class="st9" d="M8.77 33.94c1.25-.91 3.87-1.38 5.96-.49 2.09.89 6.72 1.67 9.06-.48"/><path class="st9" d="M8.72 19.8v-1c0-.42.34-.76.76-.76H23c.42 0 .76.34.76.76v23.47c0 .42-.34.76-.76.76H9.49a.76.76 0 01-.76-.76V31.31m4.42-9l12.3-.02M6.81 38.25l9.92-.02m-5.27-22.99h4.75v2.79h-4.75zm25.4 15.15c1.65-1.19 5.08-1.81 7.83-.64s8.83 2.19 11.91-.62"/><path class="st9" d="M36.8 13.54V11.2c0-.55.45-1 1-1h17.76c.55 0 1 .45 1 1v30.82c0 .55-.45 1-1 1H37.8c-.55 0-1-.45-1-1V13.54zm4.39 1.58l17.59-.02m-24.5 19l13.04-.02M40.39 6.66h6.24V9.5h-6.24z"/><path class="st2" d="M0 0h65v65H0z"/><path d="M11.35 24.1c.34.74.36 1.55.12 2.27-.26.79-.84 1.48-1.66 1.85-1.56.71-3.41.03-4.12-1.54s-.03-3.41 1.54-4.12 3.41-.02 4.12 1.54z" fill="none" stroke="#00a800" stroke-width="1.6" stroke-linecap="round" stroke-linejoin="round" stroke-miterlimit="10"/></g></svg>