<svg xmlns="http://www.w3.org/2000/svg" viewBox="0 0 65 65"><style>.st2{fill:none}.st3{fill:#4c9f2e}.st6{fill:none;stroke:#95a6b1;stroke-width:1.6;stroke-linecap:round;stroke-linejoin:round}</style><g id="Capa_1"><path class="st2" d="M0 48.26h65V65H0z"/><path class="st3" d="M45.38 61.32h-7.17c-.66 0-1.2-.54-1.2-1.2s.54-1.2 1.2-1.2h7.17c.66 0 1.2.54 1.2 1.2s-.54 1.2-1.2 1.2zm7.73 0h-.58c-.66 0-1.2-.54-1.2-1.2s.54-1.2 1.2-1.2h.58c.66 0 1.2.54 1.2 1.2s-.54 1.2-1.2 1.2zm-34.12 0h-7.1c-.66 0-1.2-.54-1.2-1.2s.54-1.2 1.2-1.2h7.1c.66 0 1.2.54 1.2 1.2s-.54 1.2-1.2 1.2z"/><path d="M31.05 61.32H18.53c-.66 0-1.2-.54-1.2-1.2s.54-1.2 1.2-1.2h12.52c.66 0 1.2.54 1.2 1.2s-.54 1.2-1.2 1.2zm4.42-6.11H11.89c-.66 0-1.2-.54-1.2-1.2s.54-1.2 1.2-1.2h23.58c.66 0 1.2.54 1.2 1.2s-.53 1.2-1.2 1.2z" fill="#94d040"/><path class="st3" d="M53.11 55.21H34.75c-.66 0-1.2-.54-1.2-1.2s.54-1.2 1.2-1.2h18.36c.66 0 1.2.54 1.2 1.2s-.54 1.2-1.2 1.2zm-40.79 0h-.43c-.66 0-1.2-.54-1.2-1.2s.54-1.2 1.2-1.2h.43c.66 0 1.2.54 1.2 1.2s-.54 1.2-1.2 1.2z"/><path class="st2" d="M0 0h65v65H0z"/><path class="st6" d="M26.7 44.2c2.78 0 2.78 2.54 5.56 2.54s2.78-2.54 5.56-2.54 2.78 2.54 5.56 2.54 2.78-2.54 5.56-2.54 2.78 2.54 5.56 2.54 2.78-2.54 5.56-2.54m-11.91-2.31h5.05m-.7-10.68v2.67H40.57m-4.86 0h-2.69v-8.03c0-.55.45-1 1-1h12.71m-10.38-3.89h7.09c.52 0 .95.42.95.95v2.94h-8.86v-3.06c0-.46.36-.83.82-.83z"/><path class="st6" d="M40.57 33.89h14.77c.63 0 1.14.51 1.14 1.14v10.6m-26.02 0V34.87c0-.54.44-.98.98-.98l4.27-.01m12.44.4v9.96m0-6.52h5.05m.01-3.44v11.85m-8.33-12.25v12.25M40.57 33.9l.02 3.33h-4.28V33.9m3.57-12.94v3.89M17.43 5.77h-3.95c-.2 0-.37.17-.37.37v1.64c0 .2.17.37.37.37h3.95c.2 0 .37-.17.37-.37V6.14a.37.37 0 00-.37-.37zm-8.14 4.65v4.39h-.62a.77.77 0 00-.77.77v.37c0 .42.34.77.77.77h.62v3.7h-.62a.77.77 0 00-.77.77v.37c0 .42.34.77.77.77h.62v4.76H22.4v-4.76h.62c.42 0 .77-.34.77-.77v-.37a.77.77 0 00-.77-.77h-.62v-3.7h.62c.42 0 .77-.34.77-.77v-.37a.77.77 0 00-.77-.77h-.62v-4.39h-9.65m10.48 18.94H8.46a.56.56 0 01-.56-.56v-1.15c0-.31.25-.56.56-.56h14.77c.31 0 .56.25.56.56v1.15c0 .3-.25.56-.56.56z"/><path class="st6" d="M12.07 8.15h11.15c.31 0 .56.25.56.56v1.15c0 .31-.25.56-.56.56H12.25"/><path class="st6" d="M19.79 10.42H8.46a.56.56 0 01-.56-.56V8.71c0-.31.25-.56.56-.56h11.15m-8.51 7.58l9.49-.01m-9.49 5.49l9.49-.01m-6.18 16.85H6.89m23.39 0H17.9m-3.49 3.42H6.89m23.39 0H18.03m-.35 0v.97h-3.27v-5.73h3.27v4.76"/><path fill="none" stroke="#95a6b1" stroke-width="1.6" stroke-linecap="round" stroke-linejoin="round" stroke-dasharray="2,2" d="M24.09 38.05l-8.05-8.14"/><path d="M49.24 25.16c-.28.61-.3 1.27-.1 1.86.22.65.69 1.21 1.36 1.52 1.28.59 2.79.02 3.38-1.26a2.55 2.55 0 00-1.26-3.38c-1.28-.59-2.8-.03-3.38 1.26z" fill="none" stroke="#00a800" stroke-width="1.6" stroke-linecap="round" stroke-linejoin="round" stroke-miterlimit="10"/></g></svg>