<svg xmlns="http://www.w3.org/2000/svg" viewBox="0 0 65 65"><style>.st2{fill:none}.st3{fill:#4c9f2e}.st6,.st7{fill:none;stroke:#95a6b1;stroke-width:1.6;stroke-linecap:round;stroke-linejoin:round}.st7{stroke-miterlimit:10}</style><g id="Capa_1"><path class="st2" d="M0 48.26h65V65H0z"/><path class="st3" d="M45.38 61.32h-7.17c-.66 0-1.2-.54-1.2-1.2s.54-1.2 1.2-1.2h7.17c.66 0 1.2.54 1.2 1.2s-.54 1.2-1.2 1.2zm7.73 0h-.58c-.66 0-1.2-.54-1.2-1.2s.54-1.2 1.2-1.2h.58c.66 0 1.2.54 1.2 1.2s-.54 1.2-1.2 1.2zm-34.12 0h-7.1c-.66 0-1.2-.54-1.2-1.2s.54-1.2 1.2-1.2h7.1c.66 0 1.2.54 1.2 1.2s-.54 1.2-1.2 1.2z"/><path d="M31.05 61.32H18.53c-.66 0-1.2-.54-1.2-1.2s.54-1.2 1.2-1.2h12.52c.66 0 1.2.54 1.2 1.2s-.54 1.2-1.2 1.2zm4.42-6.11H11.89c-.66 0-1.2-.54-1.2-1.2s.54-1.2 1.2-1.2h23.58c.66 0 1.2.54 1.2 1.2s-.53 1.2-1.2 1.2z" fill="#94d040"/><path class="st3" d="M53.11 55.21H34.75c-.66 0-1.2-.54-1.2-1.2s.54-1.2 1.2-1.2h18.36c.66 0 1.2.54 1.2 1.2s-.54 1.2-1.2 1.2zm-40.79 0h-.43c-.66 0-1.2-.54-1.2-1.2s.54-1.2 1.2-1.2h.43c.66 0 1.2.54 1.2 1.2s-.54 1.2-1.2 1.2z"/><path d="M22.33 16.87c.34.74.36 1.55.12 2.27-.26.79-.84 1.48-1.66 1.85-1.56.71-3.41.03-4.12-1.54a3.106 3.106 0 011.54-4.12c1.56-.71 3.41-.02 4.12 1.54z" fill="none" stroke="#00a800" stroke-width="1.6" stroke-linecap="round" stroke-linejoin="round" stroke-miterlimit="10"/><path class="st6" d="M57.88 45.21c-3.17 0-3.17-3.1-6.34-3.1s-3.17 3.1-6.34 3.1-3.17-3.1-6.34-3.1-3.17 3.1-6.34 3.1-3.17-3.1-6.34-3.1-3.17 3.1-6.35 3.1c-3.17 0-3.17-3.1-6.35-3.1s-3.17 3.1-6.35 3.1"/><path class="st7" d="M23.66 39.29H17.5"/><path class="st6" d="M18.36 24.26v3.25h18.57m7.94 0h3.28v-9.8c0-.67-.55-1.22-1.22-1.22H25.39"/><path class="st6" d="M42.08 11.76H29.41c-.64 0-1.16.52-1.16 1.16v3.58h14.83v-3.74c0-.56-.44-1-1-1z"/><path class="st7" d="M25.02 20.6h23.17"/><path class="st6" d="M36.93 27.52H14.89c-.77 0-1.39.62-1.39 1.39v12.84m39.79.83V28.72c0-.66-.54-1.2-1.2-1.2l-7.22-.01m-17.23 3.76H13.5"/><path fill="#fff" stroke="#95a6b1" stroke-width="1.6" stroke-linecap="round" stroke-linejoin="round" stroke-miterlimit="10" d="M23.66 31.25v11.71"/><path class="st7" d="M23.66 34.92H17.5m-.02-3.67v12.93"/><path class="st6" d="M27.64 27.51v14.52"/><path class="st7" d="M36.93 27.54l-.02 6.06h7.95v-6.07M32.03 11.76v4.73m3.64-4.73v4.73m3.76-4.73v4.73"/><path class="st6" d="M49.08 27.53v6.48m-16.8-6.48v6.48"/><path class="st2" d="M0 0h65v65H0z"/></g></svg>