<svg xmlns="http://www.w3.org/2000/svg" width="65" height="65"><g data-name="Grupo 16097"><g data-name="Grupo 16099"><g data-name="Grupo 13216"><path data-name="Rectángulo 3799" fill="none" d="M0 0h65v65H0z"/></g><path data-name="Rectángulo 3799-2" fill="none" d="M0 0h65v65H0z"/><g data-name="Grupo 13713"><g data-name="Grupo 13383"><path data-name="Trazado 11778" d="M17.449 14.186v26.685a7.1 7.1 0 007.1 7.1h11.283l13.615-.03v-41H24.498" fill="none" stroke="#95a6b1" stroke-linecap="round" stroke-linejoin="round" stroke-width="1.6"/></g><g data-name="Grupo 13384" fill="none" stroke="#95a6b1" stroke-linecap="round" stroke-linejoin="round" stroke-width="1.6"><path data-name="Trazado 6132" d="M42.919 20.448c-1.537 2.948-5.6 3.868-5.6 3.868s-1.572-3.86-.033-6.808 5.6-3.869 5.6-3.869 1.571 3.861.033 6.809z"/><path data-name="Línea 1426" d="M37.316 24.317l2.784-5.339"/></g><g data-name="Grupo 13385" fill="none" stroke="#95a6b1" stroke-linecap="round" stroke-linejoin="round" stroke-width="1.6" transform="translate(-111.192)"><circle data-name="Elipse 2272" cx="3.74" cy="3.74" r="3.74" transform="translate(140.9 26.959)"/><path data-name="Trazado 11779" d="M152.551 24.322l-2.566.279a2.675 2.675 0 01-2.737-1.581l-1.039-2.355a10.308 10.308 0 00-1.569-.134 12.285 12.285 0 00-1.568.134l-1.036 2.355a2.675 2.675 0 01-2.736 1.58l-2.566-.279a10.12 10.12 0 00-1.563 2.715l1.524 2.079a2.677 2.677 0 010 3.162l-1.524 2.079a10.126 10.126 0 001.563 2.716l2.566-.279a2.674 2.674 0 012.737 1.581l1.039 2.354a9.287 9.287 0 003.138 0l1.038-2.354a2.676 2.676 0 012.738-1.581l2.566.279a10.152 10.152 0 001.563-2.716l-1.525-2.079a2.677 2.677 0 010-3.162l1.525-2.079a10.117 10.117 0 00-1.568-2.714z"/></g></g><g data-name="Grupo 16098" fill="none"><path data-name="Rectángulo 5324" d="M0 48.259h65V65H0z"/><g data-name="Grupo 16097" stroke-linecap="round" stroke-linejoin="round" stroke-width="2.4"><path data-name="Línea 3649" stroke="#4da12e" d="M38.214 60.119h7.167"/><path data-name="Línea 3650" stroke="#4da12e" d="M52.529 60.119h.581"/><path data-name="Línea 3651" stroke="#4da12e" d="M11.891 60.119h7.101"/><path data-name="Línea 3652" stroke="#96d200" d="M18.53 60.119h12.517"/><path data-name="Línea 3653" stroke="#96d200" d="M11.891 54.012h23.582"/><path data-name="Línea 3654" stroke="#4da12e" d="M34.746 54.012h18.363"/><path data-name="Línea 3655" stroke="#4da12e" d="M11.891 54.012h.429"/></g></g></g><path data-name="Trazado 11848" d="M21.632 6.892a4.184 4.184 0 11-4.184-4.183h0a4.167 4.167 0 014.184 4.151z" fill="none" stroke="#00a800" stroke-linecap="round" stroke-linejoin="round" stroke-width="1.6"/></g></svg>