<svg xmlns="http://www.w3.org/2000/svg" width="21.6" height="17.938"><path data-name="Trazado 9115" d="M21.6 7.537a2.094 2.094 0 00-2-2.1h-6.2l.7-1.3a3.033 3.033 0 00-.3-3.3 1.205 1.205 0 00-.5-.5 2.1 2.1 0 00-2.9.6l-3.3 5H5.9v-.3a.789.789 0 00-.8-.8H.8a.789.789 0 00-.8.8v11.5a.789.789 0 00.8.8h4.4a.789.789 0 00.8-.8v-.4h1.6l2.9.7h6.4a2.006 2.006 0 002-2 1.884 1.884 0 00-.2-.8 2.062 2.062 0 001.1-1.8 2.353 2.353 0 00-.2-.8 1.93 1.93 0 00.9-2.6 2.367 2.367 0 001.1-1.9zm-17.2 8.8H1.5v-10h2.9zm12.3-.4h-6.1l-2.9-.7H5.9v-7.9h1.7a.6.6 0 00.6-.3l3.5-5.3a.663.663 0 01.7-.2.1.1 0 01.1.1 1.669 1.669 0 01.1 1.8l-.8 1.5a1.183 1.183 0 00-.1 1 1.337 1.337 0 00.7.8c.2.1.4.1.6.2h6.4c.3 0 .5.2.5.6s-.2.5-.5.5H18a.789.789 0 00-.8.8.736.736 0 00.8.8h.5a.472.472 0 01.5.5.56.56 0 01-.5.6h-2.1a.789.789 0 00-.8.8.789.789 0 00.8.8h1.1a.5.5 0 010 1h-2.1a.789.789 0 00-.8.8.789.789 0 00.8.8h1.2a.472.472 0 01.5.5c0 .3-.1.5-.4.5z" fill="#95a6b1"/></svg>