<svg xmlns="http://www.w3.org/2000/svg" width="181.142" height="12.652"><g data-name="Grupo 19575"><g data-name="Grupo 14990"><path data-name="Trazado 11287" d="M176.642 6.739h-67.626" fill="none" stroke="#505d6c" stroke-dasharray="4"/><g data-name="Trazado 11288" fill="#fff"><path d="M176.642 3.239c1.93 0 3.5 1.57 3.5 3.5s-1.57 3.5-3.5 3.5-3.5-1.57-3.5-3.5c0-.738.236-1.412.764-2.186l.005-.008.005-.008c.41-.625 1.438-1.298 2.726-1.298z"/><path d="M176.642 9.239c1.378 0 2.5-1.122 2.5-2.5s-1.122-2.5-2.5-2.5c-.972 0-1.675.52-1.89.847l-.02.03c-.52.762-.59 1.248-.59 1.623 0 1.378 1.122 2.5 2.5 2.5m0 2a4.5 4.5 0 01-4.5-4.5c0-.925.279-1.784.938-2.75.626-.955 2.001-1.75 3.562-1.75a4.5 4.5 0 010 9z" fill="#00af00"/></g></g><g data-name="Grupo 16997"><path data-name="Trazado 11287" d="M99.645 6.739H6.482" fill="none" stroke="#505d6c"/></g><path data-name="Trazado 17820" d="M94.5 1.414l5.145 5.106-5.145 4.72" fill="none" stroke="#00af00" stroke-linecap="round" stroke-linejoin="round" stroke-width="2"/><g data-name="Trazado 17821" fill="#fff"><path d="M4.5 10.239c-1.93 0-3.5-1.57-3.5-3.5s1.57-3.5 3.5-3.5S8 4.809 8 6.739c0 .738-.236 1.412-.764 2.186l-.005.008-.005.008c-.41.625-1.438 1.298-2.726 1.298z"/><path d="M4.5 4.239a2.503 2.503 0 00-2.5 2.5c0 1.378 1.122 2.5 2.5 2.5.972 0 1.675-.52 1.89-.847l.02-.03C6.93 7.6 7 7.114 7 6.739c0-1.378-1.122-2.5-2.5-2.5m0-2a4.5 4.5 0 014.5 4.5c0 .925-.279 1.784-.938 2.75-.626.955-2.001 1.75-3.562 1.75a4.5 4.5 0 010-9z" fill="#00af00"/></g></g></svg>