<svg xmlns="http://www.w3.org/2000/svg" width="9" height="47.757"><g data-name="Grupo 20692"><path data-name="Línea 2119" fill="none" stroke="#505d6c" stroke-dasharray="4" opacity=".29" d="M4.5 47.757V2.5"/><g data-name="Trazado 11273" fill="#fff"><path d="M4.5 1C6.43 1 8 2.57 8 4.5S6.43 8 4.5 8 1 6.43 1 4.5c0-.738.236-1.412.764-2.186l.005-.008.005-.008C2.184 1.673 3.212 1 4.5 1z"/><path d="M4.5 7C5.878 7 7 5.878 7 4.5S5.878 2 4.5 2c-.972 0-1.675.52-1.89.847l-.02.03C2.07 3.64 2 4.125 2 4.5 2 5.878 3.122 7 4.5 7m0 2A4.5 4.5 0 010 4.5c0-.925.279-1.784.938-2.75C1.564.795 2.939 0 4.5 0a4.5 4.5 0 010 9z" fill="#00af00"/></g></g></svg>