<svg xmlns="http://www.w3.org/2000/svg" width="80" height="9"><g data-name="Grupo 16725"><path data-name="Línea 2441" fill="none" stroke="#505d6c" opacity=".29" d="M0 4.5h78.688"/><g data-name="Trazado 11905" fill="#fff"><path d="M79 4.5C79 6.43 77.43 8 75.5 8S72 6.43 72 4.5 73.57 1 75.5 1c.738 0 1.412.236 2.186.764l.008.005.008.005C78.327 2.184 79 3.212 79 4.5z"/><path d="M73 4.5C73 5.878 74.122 7 75.5 7S78 5.878 78 4.5c0-.972-.52-1.675-.847-1.89l-.015-.01-.015-.01C76.36 2.07 75.875 2 75.5 2A2.503 2.503 0 0073 4.5m-2 0A4.5 4.5 0 0175.5 0c.925 0 1.784.279 2.75.938C79.205 1.564 80 2.939 80 4.5a4.5 4.5 0 01-9 0z" fill="#00af00"/></g></g></svg>