<svg xmlns="http://www.w3.org/2000/svg" width="59.346" height="9"><g data-name="Grupo 13565"><path data-name="Trazado 11287" d="M54.846 4.5H-.001" fill="none" stroke="#505d6c" stroke-dasharray="4"/><g data-name="Trazado 11288" fill="#fff"><path d="M54.846 1c1.93 0 3.5 1.57 3.5 3.5s-1.57 3.5-3.5 3.5-3.5-1.57-3.5-3.5c0-.738.236-1.412.764-2.186l.005-.008.005-.008C52.53 1.673 53.558 1 54.846 1z"/><path d="M54.846 7c1.378 0 2.5-1.122 2.5-2.5S56.224 2 54.846 2c-.972 0-1.675.52-1.89.847l-.01.015-.01.015c-.52.762-.59 1.248-.59 1.623 0 1.378 1.122 2.5 2.5 2.5m0 2a4.5 4.5 0 01-4.5-4.5c0-.925.279-1.784.938-2.75C51.91.795 53.285 0 54.846 0a4.5 4.5 0 010 9z" fill="#00af00"/></g></g></svg>