<svg xmlns="http://www.w3.org/2000/svg" width="139.305" height="12.652"><g data-name="Grupo 20497"><g data-name="Grupo 14990"><path data-name="Trazado 11287" d="M138.304 6.739H8.458" fill="none" stroke="#505d6c" stroke-dasharray="4"/></g><path data-name="Trazado 17820" d="M133.159 1.414l5.145 5.106-5.145 4.72" fill="none" stroke="#00af00" stroke-linecap="round" stroke-linejoin="round" stroke-width="2"/><g data-name="Trazado 17821" fill="#fff"><path d="M4.5 10.239c-1.93 0-3.5-1.57-3.5-3.5s1.57-3.5 3.5-3.5S8 4.809 8 6.739c0 .738-.236 1.412-.764 2.186l-.005.008-.005.008c-.41.625-1.438 1.298-2.726 1.298z"/><path d="M4.5 4.239a2.503 2.503 0 00-2.5 2.5c0 1.378 1.122 2.5 2.5 2.5.972 0 1.675-.52 1.89-.847l.02-.03C6.93 7.6 7 7.114 7 6.739c0-1.378-1.122-2.5-2.5-2.5m0-2a4.5 4.5 0 014.5 4.5c0 .925-.279 1.784-.938 2.75-.626.955-2.001 1.75-3.562 1.75a4.5 4.5 0 010-9z" fill="#00af00"/></g></g></svg>