<svg version="1.1" id="Layer_1" xmlns="http://www.w3.org/2000/svg" x="0" y="0" viewBox="0 0 34 34" xml:space="preserve"><style>.st0{fill:none;stroke:#fff;stroke-width:2.5;stroke-linecap:round;stroke-linejoin:round}</style><g id="logo_footer_linkedin" transform="translate(-1.94 -1.915)"><path id="Trazado_5851" class="st0" d="M13.1 6.8c6.7-3.2 14.8-.4 18 6.3 3.2 6.7.4 14.8-6.3 18s-14.8.4-18-6.3C5.9 23 5.5 21 5.5 18.9c0-.4 0-.9.1-1.3"/><path id="Trazado_5852" d="M11.3 11.4c0 1.6-1.3 2.9-2.9 2.9-1.6 0-2.9-1.3-2.9-2.9 0-1.6 1.3-2.9 2.9-2.9 1.6 0 2.8 1.3 2.9 2.9 0 0 0 0 0 0z" fill="none" stroke="#efef00" stroke-width="2.5" stroke-linecap="round" stroke-linejoin="round"/><path id="Path_17965" class="st0" d="M19.5 25.3v-5.1c0-1.6 1.3-2.8 2.8-2.8 1.6 0 2.8 1.3 2.9 2.8v5.1"/><path id="Line_1495" class="st0" d="M19.5 20.7V17"/><path id="Line_1496" class="st0" d="M15.3 25.3V17"/><path id="Line_1497" class="st0" d="M15.3 13.1v-.8"/></g></svg>