<svg xmlns="http://www.w3.org/2000/svg" width="101.996" height="45.463"><g data-name="Grupo 17440"><g data-name="Grupo 14518"><path data-name="Trazado 12403" d="M6.603 23.192a6.6 6.6 0 116.6-6.6 6.611 6.611 0 01-6.6 6.6zm0-9.656a3.053 3.053 0 103.053 3.053 3.056 3.056 0 00-3.053-3.053z" fill="#a1d005"/></g><g data-name="Grupo 14519" fill="#019e00"><path data-name="Trazado 12404" d="M42.863 32.24c.49 3.734 3.734 6.428 9 6.428 2.756 0 6.367-1.041 8.082-2.816l4.775 4.714c-3.184 3.306-8.388 4.9-12.979 4.9-10.407 0-16.591-6.428-16.591-16.1 0-9.184 6.245-15.8 16.041-15.8 10.1 0 16.407 6.245 15.244 18.673zm16.407-6.183c-.489-3.918-3.551-5.878-7.836-5.878-4.041 0-7.347 1.959-8.449 5.878z"/><path data-name="Trazado 12405" d="M101.997 0v44.668h-6.979l-.489-4.164c-2.327 3.612-6.062 4.837-9.735 4.837-8.876 0-15.55-5.877-15.55-15.8 0-10.407 6.55-15.8 15.367-15.8 3.183 0 8.142 1.714 9.918 4.837V6.202A6.211 6.211 0 01100.74-.01zM76.712 29.546a8.665 8.665 0 1017.326 0 8.613 8.613 0 00-8.754-8.815c-4.777-.001-8.573 3.366-8.573 8.815z"/><path data-name="Trazado 12406" d="M37.693 16.228q.43-.432.889-.829a12.3 12.3 0 00-6.266-1.709c-3.062 0-6.184.551-8.51 4.285l-.551-3.49h-6.918v30.181h1.984a5.486 5.486 0 005.485-5.485V28.748c0-5.571 3.612-7.652 7.53-7.652a8.445 8.445 0 012.812.416 16.835 16.835 0 013.545-5.284z"/></g></g></svg>