<svg version="1.1" id="Layer_1" xmlns="http://www.w3.org/2000/svg" x="0" y="0" width="43" height="43" xml:space="preserve"><style>.st0{fill:#fff}</style><g id="Group_3211" transform="translate(5246 -98)"><path class="st0" d="M-5232 120.2h11.3c.6 0 1-.4 1-1s-.5-1-1-1h-11.3c-.6 0-1 .4-1 1s.5 1 1 1zm0-5.7h11.3c.6 0 1-.4 1-1s-.5-1-1-1h-11.3c-.6 0-1 .4-1 1s.5 1 1 1z"/><path class="st0" d="M-5204.6 136.9l-10-10c5.7-6.3 5.5-16.1-.6-22.2-4.8-4.8-12.2-6.1-18.3-3.2-.5.2-.7.8-.5 1.3s.8.7 1.3.5c5.4-2.5 11.8-1.4 16 2.8.1.1.2.2.3.2 5.3 5.6 5.3 14.5-.2 19.9-5.6 5.5-14.6 5.5-20.1 0-3.2-3.2-4.7-7.7-4-12.1.1-.5-.3-1-.8-1.1-.5-.1-1 .3-1.1.8-.7 5 .9 10.2 4.5 13.8 3.1 3 7.2 4.6 11.3 4.6 3.8 0 7.5-1.3 10.7-4l10 10c.2.2.4.3.7.3.3 0 .5-.1.7-.3.5-.3.5-.9.1-1.3z"/><path class="st0" d="M-5238.6 112c2.7 0 4.9-2.2 4.8-5 0-1.3-.5-2.5-1.4-3.4-.9-.9-2.1-1.4-3.4-1.4-2.7 0-4.9 2.2-4.9 4.9s2.2 4.9 4.9 4.9zm-.1-7.8c1.6 0 2.9 1.3 2.9 2.9s-1.3 2.9-2.9 2.9-2.9-1.3-2.9-2.9 1.3-2.9 2.9-2.9z"/><path fill="none" d="M-5246 98h43v43h-43z" id="Rectangle_1200"/></g></svg>