<svg version="1.1" id="Capa_1" xmlns="http://www.w3.org/2000/svg" x="0" y="0" viewBox="0 0 130 120" xml:space="preserve"><style>.st0{fill:#fff}</style><g id="slide"><circle id="Elipse_2313_1_" class="st0" cx="38.88" cy="75.64" r="1.9"/><circle id="Elipse_2314_1_" class="st0" cx="44.33" cy="69.96" r="1.9"/><circle id="Elipse_2315_1_" class="st0" cx="47.35" cy="61.16" r="1.9"/><g fill="none"><path d="M32.14 111.59h19.61c.54 0 1.06-.21 1.45-.58l7.42-7.09c.26-.25.44-.55.54-.9L62.89 97c.18-.64.6-1.19 1.16-1.54l3.09-1.96c.81-.51 1.8-.64 2.72-.36l1.77.55c.51.16 1.06-.07 1.31-.54l1.19-2.22c.28-.52.69-.96 1.19-1.27l4.71-2.9c.33-.2.53-.56.53-.94v-2.39c0-.43.24-.81.63-1l2.58-1.24c.15-.07.29-.18.4-.32l2.57-3.32c.21-.27.53-.43.88-.43h10.59c.93 0 1.8-.5 2.27-1.31l2.5-4.32c.29-.5.7-.92 1.2-1.21l3.5-2.1c.87-.52 1.25-1.58.92-2.53l-1.81-5.2c-.27-.76-.86-1.37-1.63-1.64l-7.14-2.58c-1.39-.5-2.94-.21-4.05.77l-3.02 2.67a1.1 1.1 0 01-1.39.06l-2.2-1.63a1.13 1.13 0 01-.44-1.04l.22-1.68c.1-.74-.55-1.37-1.29-1.24l-2.42.43c-.59.11-1.16-.28-1.28-.87l-.55-2.65-1.62-9.7c-.03-.17-.09-.32-.19-.46l-1.6-2.23c-.41-.58-.18-1.39.48-1.67l4.96-2.06c.7-.29 1.48.19 1.53.94h0c.06.88 1.07 1.33 1.77.8l2.34-1.77c.43-.33.56-.91.31-1.39l-4.18-8.05c-.14-.28-.4-.48-.71-.56l-5.3-1.37a4.356 4.356 0 01-2.55-1.83l-2.01-3.08a3.741 3.741 0 00-1.75-1.44l-6.67-2.67A4.735 4.735 0 0163.83 12l-.74-1.72a3.134 3.134 0 00-3.2-1.88l-3.94.4-.18.03-10.89 2.95c-1.09.3-1.99 1.07-2.44 2.11l-3.97 9.22c-.03.07-.07.14-.12.21L33 30.74c-.13.18-.3.31-.51.39l-3.76 1.42c-1.51.57-2.3 2.22-1.81 3.75l2.64 8.28c.28.88.89 1.62 1.69 2.08l4.1 2.34c1.04.59 1.71 1.65 1.8 2.84l.35 4.63c.09 1.27-.43 2.5-1.4 3.32l-2.53 2.11c-.34.28-.63.62-.86 1l-4.87 8.05c-.43.71-.64 1.52-.61 2.35l.19 5.42c.01.39-.08.77-.26 1.11l-4.49 8.3c-.13.25-.22.52-.26.8l-1.06 7.83c-.1.77.09 1.54.54 2.17l8.47 11.77c.41.55 1.07.89 1.78.89z" stroke="#fff" stroke-width="3" stroke-linecap="round" stroke-linejoin="round"/><path d="M0 0h130v120H0z"/></g></g></svg>