<svg version="1.1" id="Group_609" xmlns="http://www.w3.org/2000/svg" xmlns:xlink="http://www.w3.org/1999/xlink" x="0" y="0" viewBox="0 0 36.9 36.9" xml:space="preserve"><style>.st1{fill:#fff}</style><g id="Group_608"><defs><path id="SVGID_1_" d="M0 0h36.9v36.9H0z"/></defs><clipPath id="SVGID_2_"><use xlink:href="#SVGID_1_" overflow="visible"/></clipPath><g id="Group_607" clip-path="url(#SVGID_2_)"><path class="st1" d="M22.7 30.9h-17c-.4 0-.8-.4-.8-.8s.4-.8.8-.8h17c.4 0 .8.4.8.8s-.4.8-.8.8z" id="Line_464"/><path class="st1" d="M5.7 30.9c-.5 0-.8-.4-.8-.8l.2-3.2c0-.4.4-.8.8-.7.4 0 .8.4.7.8l-.2 3.2c.1.4-.3.7-.7.7z" id="Line_465"/><g id="Group_606"><defs><path id="SVGID_3_" d="M0 0h36.9v36.9H0z"/></defs><clipPath id="SVGID_4_"><use xlink:href="#SVGID_3_" overflow="visible"/></clipPath><g id="Group_605" clip-path="url(#SVGID_4_)"><path class="st1" d="M22.7 30.9c-.4 0-.7-.3-.8-.7l-.3-3.8c0-.4-.1-.9-.1-1.4-.1-1.3-.1-2.5-.8-3.5-.7-.8-1.7-1.4-2.6-1.5-1.2-.2-6.2-.2-7.1.1-.4.1-.9-.1-1-.5-.1-.4.1-.9.5-1 1.4-.5 6.6-.3 7.9-.1 1.3.2 2.6.9 3.6 2.1 1.1 1.4 1.2 3 1.2 4.4 0 .4 0 .9.1 1.3l.3 3.8c-.1.4-.4.7-.9.8z" id="Path_323"/><path class="st1" d="M14.2 17c-2.3 0-4.1-1.8-4.1-4.1 0-.4.4-.8.8-.8s.8.4.8.8c0 1.4 1.2 2.5 2.5 2.5s2.5-1.2 2.5-2.5c0-.4.4-.8.8-.8s.8.4.8.8c0 2.3-1.8 4.1-4.1 4.1z" id="Path_324"/><path class="st1" d="M17.5 13.7c-.4 0-.8-.4-.8-.8v-2.3c0-1.4-1.2-2.5-2.5-2.5s-2.5 1.2-2.5 2.5v2.3c0 .4-.4.8-.8.8s-.8-.4-.8-.8v-2.3c0-2.3 1.8-4.1 4.1-4.1s4.1 1.8 4.1 4.1v2.3c0 .4-.4.8-.8.8z" id="Path_325"/><path class="st1" d="M6.1 25.2c-1.8 0-3.3-1.4-3.3-3.3s1.4-3.3 3.3-3.3 3.3 1.4 3.3 3.3-1.5 3.3-3.3 3.3zm0-5c-1 0-1.7.8-1.7 1.7s.8 1.7 1.7 1.7 1.7-.8 1.7-1.7-.7-1.7-1.7-1.7z" id="Path_326"/><path class="st1" d="M33.3 28.4H22.5c-.4 0-.8-.4-.8-.8s.4-.8.8-.8h10.8c.4 0 .8.4.8.8s-.4.8-.8.8z" id="Line_466"/><path class="st1" d="M33.2 28.3c-.4 0-.7-.3-.8-.7l-.3-3.8v-1c0-1.5-.1-2.8-.9-3.9-.7-.8-1.6-1.3-2.6-1.5-1.2-.2-2.3-.3-3.6-.3h-.5c-1.2 0-2.5.1-3.6.3-.9.2-1.9.7-2.6 1.5-.1.1-.2.2-.3.4-.2.4-.7.5-1.1.4-.4-.2-.5-.7-.4-1.1.1-.2.3-.5.5-.8 1-1.1 2.2-1.8 3.5-2 1.2-.2 2.5-.3 3.8-.3h.7c1.3 0 2.6.1 3.8.3 1.4.2 2.7 1 3.6 2.1 1.2 1.4 1.2 3.2 1.2 4.8v1l.3 3.8c.1.4-.2.7-.7.8z" id="Path_327"/><path class="st1" d="M24.8 14.5c-2.3 0-4.1-1.8-4.1-4.1 0-.4.4-.8.8-.8s.8.4.8.8c0 1.4 1.2 2.5 2.5 2.5s2.5-1.2 2.5-2.5c0-.4.4-.8.8-.8s.8.4.8.8c0 2.3-1.8 4.1-4.1 4.1z" id="Path_328"/><path class="st1" d="M28.1 11.2c-.4 0-.8-.4-.8-.8V8.1c0-1.4-1.2-2.5-2.5-2.5s-2.5 1.2-2.5 2.5v2.3c0 .4-.4.8-.8.8s-.8-.4-.8-.8V8.1c0-2.3 1.8-4.1 4.1-4.1s4.1 1.8 4.1 4.1v2.3c0 .4-.4.8-.8.8z" id="Path_329"/></g></g></g></g></svg>