<svg version="1.1" id="Group_602" xmlns="http://www.w3.org/2000/svg" xmlns:xlink="http://www.w3.org/1999/xlink" x="0" y="0" viewBox="0 0 36.9 36.9" xml:space="preserve"><style>.st2{fill:#fff}</style><defs><path id="SVGID_1_" d="M0 0h36.9v36.9H0z"/></defs><clipPath id="SVGID_2_"><use xlink:href="#SVGID_1_" overflow="visible"/></clipPath><g id="Group_2994" clip-path="url(#SVGID_2_)"><g id="Group_2993"><defs><path id="SVGID_3_" d="M0 0h36.9v36.9H0z"/></defs><clipPath id="SVGID_4_"><use xlink:href="#SVGID_3_" overflow="visible"/></clipPath><g id="Group_2992" clip-path="url(#SVGID_4_)"><path class="st2" d="M14.2 16.6c-1.7 0-3-1.4-3-3s1.4-3 3-3c.8 0 1.5.3 2.1.9.6.6.9 1.3.9 2.1 0 1.7-1.3 3-3 3zm0-4.6c-.9 0-1.6.7-1.6 1.6 0 .9.7 1.6 1.6 1.6s1.6-.7 1.6-1.6c0-.4-.2-.8-.5-1.1-.3-.3-.7-.5-1.1-.5z" id="Path_1332"/><path class="st2" d="M24 28.3H12.9c-1.2 0-2.3-1-2.3-2.3v-9.5c0-.4.3-.7.7-.7s.7.3.7.7V26c0 .5.4.9.9.9H24c.5 0 .9-.4.9-.9v-9.6c0-.4.3-.7.7-.7s.7.3.7.7V26c-.1 1.3-1.1 2.3-2.3 2.3z" id="Path_1333"/><path class="st2" d="M27.6 19.1c-.2 0-.4-.1-.5-.2l-8.6-8.6-.7.7c-.3.3-.7.3-1 0-.3-.3-.3-.7 0-1L18 8.8c.3-.3.7-.3 1 0l9.1 9.1c.3.3.3.7 0 1-.2.2-.4.2-.5.2z" id="Path_1334"/><path class="st2" d="M9.3 19.1c-.2 0-.4-.1-.5-.2-.3-.3-.3-.7 0-1l2-2c.3-.3.7-.3 1 0 .3.3.3.7 0 1l-2 2c-.1.2-.3.2-.5.2z" id="Line_1484"/><path class="st2" d="M21 28.3c-.4 0-.7-.3-.7-.7v-7.2h-3.6v7.2c0 .4-.3.7-.7.7s-.7-.3-.7-.7v-7.9c0-.4.3-.7.7-.7h5c.4 0 .7.3.7.7v7.9c0 .4-.4.7-.7.7z" id="Path_1335"/></g></g></g></svg>