<svg version="1.1" id="Group_587" xmlns="http://www.w3.org/2000/svg" xmlns:xlink="http://www.w3.org/1999/xlink" x="0" y="0" viewBox="0 0 36.9 36.9" xml:space="preserve"><style>.st2{fill:#fff}</style><defs><path id="SVGID_1_" d="M0 0h36.9v36.9H0z"/></defs><clipPath id="SVGID_2_"><use xlink:href="#SVGID_1_" overflow="visible"/></clipPath><g id="Group_586" clip-path="url(#SVGID_2_)"><g id="Group_585"><defs><path id="SVGID_3_" d="M0 0h36.9v36.9H0z"/></defs><clipPath id="SVGID_4_"><use xlink:href="#SVGID_3_" overflow="visible"/></clipPath><g id="Group_584" clip-path="url(#SVGID_4_)"><path class="st2" d="M10.2 13.6c-.9 0-1.7-.3-2.3-1-.6-.6-.9-1.4-.9-2.3 0-1.8 1.5-3.2 3.2-3.2 1.8 0 3.2 1.4 3.2 3.2s-1.4 3.3-3.2 3.3zm0-4.9c-.9 0-1.7.7-1.7 1.7 0 .9.7 1.7 1.6 1.7v.8-.9c.9 0 1.7-.7 1.7-1.7s-.7-1.6-1.6-1.6z" id="Path_304"/><path class="st2" d="M29.1 19.7c-.4 0-.8-.4-.8-.8V10H15.7c-.4 0-.8-.4-.8-.8s.4-.8.8-.8h13.4c.4 0 .8.4.8.8v9.7c0 .4-.4.8-.8.8z" id="Path_305"/><path class="st2" d="M8.9 30c-.1 0-.2 0-.3-.1-.3-.1-.5-.4-.5-.7V15.6c0-.4.4-.8.8-.8s.8.4.8.8v11.6l2.2-2.3c.1-.2.4-.2.6-.2h10.4c.4 0 .8.4.8.8s-.4.8-.8.8H12.8l-3.3 3.4c-.2.2-.4.3-.6.3z" id="Path_306"/><path class="st2" d="M25.4 26.3h-9.7c-.4 0-.8-.4-.8-.8s.4-.8.8-.8h9.7c1.6 0 3-1.3 3-3v-6c0-.4.4-.8.8-.8s.8.4.8.8v6c-.1 2.5-2.1 4.6-4.6 4.6z" id="Path_307"/><path class="st2" d="M18.2 26.3c-.2 0-.4-.1-.5-.2-.1-.1-.1-.2-.2-.2 0-.1-.1-.2-.1-.3 0-.2.1-.4.2-.6.3-.3.8-.3 1.1 0 .1.2.2.4.2.6 0 .1 0 .2-.1.3 0 .1-.1.2-.2.2-.1.1-.2.1-.3.2.1-.1 0 0-.1 0z" id="Line_455"/><path class="st2" d="M24.8 17.1h-11c-.4 0-.8-.4-.8-.8s.4-.8.8-.8h11c.4 0 .8.4.8.8s-.3.8-.8.8z" id="Line_456"/><path class="st2" d="M24.8 20.6h-11c-.4 0-.8-.4-.8-.8s.4-.8.8-.8h11c.4 0 .8.4.8.8s-.3.8-.8.8z" id="Line_457"/></g></g></g></svg>