<svg version="1.1" id="Group_581" xmlns="http://www.w3.org/2000/svg" xmlns:xlink="http://www.w3.org/1999/xlink" x="0" y="0" viewBox="0 0 36.9 36.9" xml:space="preserve"><style>.st2{fill:#fff}</style><g id="Group_580"><defs><path id="SVGID_1_" d="M0 0h36.9v36.9H0z"/></defs><clipPath id="SVGID_2_"><use xlink:href="#SVGID_1_" overflow="visible"/></clipPath><g id="Group_579" clip-path="url(#SVGID_2_)"><g id="Group_578"><defs><path id="SVGID_3_" d="M0 0h36.9v36.9H0z"/></defs><clipPath id="SVGID_4_"><use xlink:href="#SVGID_3_" overflow="visible"/></clipPath><g id="Group_577" clip-path="url(#SVGID_4_)"><path class="st2" d="M8.2 15.8c-1.8 0-3.2-1.4-3.2-3.2s1.4-3.2 3.2-3.2c.8 0 1.6.3 2.3.9.6.6.9 1.4.9 2.3 0 1.8-1.4 3.2-3.2 3.2zm0-4.9c-.9 0-1.7.7-1.7 1.6 0 .9.7 1.6 1.6 1.6s1.6-.7 1.6-1.6c0-.4-.2-.8-.5-1.2-.2-.2-.6-.4-1-.4z" id="Path_300"/><path class="st2" d="M27.2 27.5H9.7c-1.3 0-2.4-1.1-2.4-2.4v-7.9c0-.4.4-.8.8-.8s.8.4.8.8v7.9c0 .5.4.9.9.9h17.4c.5 0 .9-.4.9-.9v-5.9c0-.4.4-.8.8-.8s.8.4.8.8v5.9c-.1 1.3-1.2 2.4-2.5 2.4z" id="Path_301"/><path class="st2" d="M18.5 21.7c-.5 0-1.1-.2-1.5-.5l-5.8-4.8c-.3-.3-.4-.8-.1-1.1.3-.3.8-.4 1.1-.1L18 20c.3.3.8.3 1.1 0l8.9-7.4c.3-.3.8-.2 1.1.1s.2.8-.1 1.1l-9 7.4c-.4.3-1 .5-1.5.5z" id="Path_302"/><path class="st2" d="M8.7 27.1c-.2 0-.5-.1-.6-.3-.3-.3-.2-.8.1-1.1l7.9-6.4c.3-.3.8-.2 1.1.1.3.3.2.8-.1 1.1l-7.9 6.4c-.2.2-.4.2-.5.2z" id="Line_453"/><path class="st2" d="M28.2 27.1c-.2 0-.4-.1-.5-.2l-7.8-6.4c-.3-.3-.4-.8-.1-1.1.3-.3.8-.4 1.1-.1l7.8 6.4c.3.3.4.8.1 1.1-.1.2-.3.3-.6.3z" id="Line_454"/><path class="st2" d="M28.8 20.6c-.4 0-.8-.4-.8-.8v-5.9c0-.5-.4-.9-.9-.9h-14c-.4 0-.8-.4-.8-.8s.4-.8.8-.8h14c1.3 0 2.4 1.1 2.4 2.4v5.9c.1.5-.3.9-.7.9z" id="Path_303"/></g></g></g></g></svg>