<svg version="1.1" id="Group_602" xmlns="http://www.w3.org/2000/svg" xmlns:xlink="http://www.w3.org/1999/xlink" x="0" y="0" viewBox="0 0 36.9 36.9" xml:space="preserve"><style>.st2{fill:#fff}</style><g id="Group_601"><defs><path id="SVGID_1_" d="M0 0h36.9v36.9H0z"/></defs><clipPath id="SVGID_2_"><use xlink:href="#SVGID_1_" overflow="visible"/></clipPath><g id="Group_600" clip-path="url(#SVGID_2_)"><g id="Group_599"><defs><path id="SVGID_3_" d="M0 0h36.9v36.9H0z"/></defs><clipPath id="SVGID_4_"><use xlink:href="#SVGID_3_" overflow="visible"/></clipPath><g id="Group_598" clip-path="url(#SVGID_4_)"><path class="st2" d="M10.2 13.6c-1.8 0-3.2-1.5-3.2-3.2 0-1.8 1.5-3.2 3.2-3.2 1.8 0 3.2 1.4 3.2 3.2.1 1.7-1.4 3.2-3.2 3.2zm0-4.9c-.9 0-1.7.7-1.7 1.7 0 .9.7 1.7 1.6 1.7.9 0 1.7-.7 1.7-1.7.1-1-.7-1.7-1.6-1.7z" id="Path_315"/><path class="st2" d="M27 30.4c-1.8 0-3.2-1.5-3.2-3.2 0-1.8 1.4-3.2 3.2-3.2s3.2 1.4 3.2 3.2c.1 1.7-1.4 3.2-3.2 3.2zm0-4.9c-.9 0-1.7.7-1.7 1.7 0 .9.7 1.7 1.6 1.7.9 0 1.7-.7 1.7-1.7.1-1-.6-1.7-1.6-1.7z" id="Path_316"/><path class="st2" d="M10.2 30.4c-1.8 0-3.2-1.5-3.2-3.2 0-1.8 1.4-3.2 3.2-3.2 1.8 0 3.2 1.4 3.2 3.2s-1.4 3.2-3.2 3.2zm0-4.9c-.9 0-1.7.7-1.7 1.7 0 .9.7 1.7 1.6 1.7.9 0 1.7-.7 1.7-1.7s-.7-1.7-1.6-1.7z" id="Path_317"/><path class="st2" d="M27 13.6c-.9 0-1.7-.3-2.3-1-.6-.6-.9-1.4-.9-2.3 0-1.8 1.4-3.2 3.2-3.2 1.8 0 3.2 1.4 3.2 3.2 0 1.9-1.4 3.3-3.2 3.3zm0-4.9c-.9 0-1.7.7-1.7 1.7 0 .4.2.9.5 1.2s.8.4 1.2.4c.9 0 1.7-.7 1.7-1.7s-.8-1.6-1.7-1.6z" id="Path_318"/><path class="st2" d="M8.7 26.1c-.2 0-.5-.1-.6-.3-2.4-3.5-3-7.9-1.4-11.9.2-.4.6-.6 1-.4.4.2.6.6.4 1-1.3 3.5-.9 7.4 1.3 10.4.2.4.2.8-.2 1.1-.2 0-.4.1-.5.1z" id="Path_319"/><path class="st2" d="M28.3 25.9c-.2 0-.3 0-.4-.1-.4-.2-.5-.7-.2-1.1 2.4-3.6 2.5-8.3.2-12-.2-.4-.1-.9.3-1.1s.9-.1 1.1.3c2.6 4.2 2.5 9.6-.3 13.7-.1.1-.4.3-.7.3z" id="Path_320"/><path class="st2" d="M25.3 9.5c-.2 0-.3 0-.5-.1-1.9-1.3-4-2-6.4-2-1.4 0-2.9.3-4.2.8-.4.2-.9 0-1-.4-.2-.4 0-.9.4-1 1.5-.6 3.1-.9 4.8-.9 2.6 0 5.1.8 7.2 2.3.4.2.4.7.2 1.1 0 0-.3.2-.5.2z" id="Path_321"/><path class="st2" d="M18.4 31.1c-2.3 0-4.6-.6-6.7-1.9-.4-.2-.5-.7-.3-1.1s.7-.5 1.1-.3c3.6 2.2 8.3 2.2 11.9-.2.4-.2.8-.1 1.1.2.2.4.1.8-.2 1.1-2 1.6-4.4 2.2-6.9 2.2z" id="Path_322"/></g></g></g></g></svg>