<svg xmlns="http://www.w3.org/2000/svg" width="47.173" height="212.438"><g data-name="Grupo 18435"><path data-name="Línea 2119" fill="none" stroke="#505d6c" opacity=".29" d="M22.152 51.844V207.5"/><g data-name="Trazado 11273" fill="#fff"><path d="M22.152 73.259c-1.93 0-3.5-1.57-3.5-3.5s1.57-3.5 3.5-3.5 3.5 1.57 3.5 3.5c0 .738-.236 1.412-.764 2.186l-.005.008-.005.008c-.41.625-1.438 1.298-2.726 1.298z"/><path d="M22.152 67.259a2.503 2.503 0 00-2.5 2.5c0 1.378 1.122 2.5 2.5 2.5.972 0 1.675-.52 1.89-.847l.02-.03c.52-.762.59-1.248.59-1.623 0-1.378-1.122-2.5-2.5-2.5m0-2a4.5 4.5 0 014.5 4.5c0 .925-.279 1.784-.938 2.75-.626.955-2.001 1.75-3.562 1.75a4.5 4.5 0 010-9z" fill="#00af00"/></g><g data-name="Trazado 11274" fill="#fff"><path d="M22.152 211.438c-1.93 0-3.5-1.57-3.5-3.5s1.57-3.5 3.5-3.5 3.5 1.57 3.5 3.5c0 .738-.236 1.412-.764 2.186l-.005.008-.005.008c-.41.625-1.438 1.298-2.726 1.298z"/><path d="M22.152 205.438a2.503 2.503 0 00-2.5 2.5c0 1.378 1.122 2.5 2.5 2.5.972 0 1.675-.52 1.89-.847l.02-.03c.52-.762.59-1.248.59-1.623 0-1.378-1.122-2.5-2.5-2.5m0-2a4.5 4.5 0 014.5 4.5c0 .925-.279 1.784-.938 2.75-.626.955-2.001 1.75-3.562 1.75a4.5 4.5 0 010-9z" fill="#00af00"/></g><g data-name="Grupo 15276" fill="none"><g data-name="Grupo 15282"><path data-name="Rectángulo 3799-2" d="M-.001 0h47.173v47.173H-.001z"/><g data-name="Grupo 15281" stroke="#97a5af" stroke-linecap="round" stroke-linejoin="round" stroke-width="1.5"><g data-name="Grupo 15280" transform="translate(.086 .087)"><circle data-name="Elipse 2467" cx="6.118" cy="6.118" r="6.118" transform="translate(10.655 24.248)"/><path data-name="Trazado 12618" d="M19.32 11.151a3.369 3.369 0 002.8 1.511h4.182a3.376 3.376 0 000-6.753h-4.179A3.366 3.366 0 0019.3 7.45"/><path data-name="Trazado 12619" d="M29.743 24.108h-4.85v-4.322a1.44 1.44 0 00-1.44-1.44h-6.666v-7.227h2.529"/><path data-name="Trazado 12620" d="M19.283 7.482h-4.046a2 2 0 00-2 2v8.929h-1.375a1.44 1.44 0 00-1.44 1.44v4.031l-2.489-2.287v-8.734a1.44 1.44 0 00-1.44-1.44h0a1.44 1.44 0 00-1.44 1.44v28.23h36.9v-25.2a1.44 1.44 0 00-1.44-1.44H37.59a1.44 1.44 0 00-1.44 1.44v2.454"/></g><path data-name="Línea 2940" d="M22.145 9.373h4.611"/><path data-name="Trazado 12621" d="M16.859 31.254H13.9l3.386-6.659v4.592h3.088l-3.5 6.954z"/></g><path data-name="Línea 2941" stroke="#97a5af" stroke-linecap="round" stroke-linejoin="round" stroke-width="1.5" d="M2.52 41.178h42.044"/></g><path data-name="Trazado 11848" d="M38.307 23.554a3.041 3.041 0 11-3.041-3.041h0a3.028 3.028 0 013.041 3.018z" stroke="#19a500" stroke-linecap="round" stroke-linejoin="round" stroke-width="1.5"/></g></g></svg>