<svg data-name="Grupo 15249" xmlns="http://www.w3.org/2000/svg" width="65" height="65"><g data-name="Grupo 15249" fill="none" stroke-linecap="round" stroke-linejoin="round" stroke-width="1.8"><path data-name="Rectángulo 5166" stroke="#93a4af" d="M29.87 16.889h12.736v5.358H29.87z"/><path data-name="Rectángulo 5167" stroke="#93a4af" d="M33.098 12.749h6.28v4.14h-6.28z"/><rect data-name="Rectángulo 5168" width="19.28" height="3.14" rx="1.405" transform="translate(26.598 5.578)" stroke="#93a4af"/><path data-name="Trazado 12579" d="M42.606 28.561H29.87a5.094 5.094 0 005.094 5.095h2.547a5.1 5.1 0 005.095-5.095z" stroke="#93a4af"/><path data-name="Línea 2909" stroke="#93a4af" d="M33.098 12.748l-5.095-4.03"/><path data-name="Línea 2910" stroke="#93a4af" d="M39.378 12.748l5.095-4.03"/><path data-name="Trazado 12580" d="M23.994 28.517h24.861v-6.27H24.994" stroke="#93a4af"/><path data-name="Rectángulo 5169" stroke="#93a4af" d="M48.855 22.248h10.726v6.27H48.855z"/><path data-name="Rectángulo 5170" stroke="#93a4af" d="M48.888 20.801h3.25v9.187h-3.25z"/><path data-name="Rectángulo 5171" stroke="#93a4af" d="M34.845 38.5h3.25v9.187h-3.25z"/><path data-name="Trazado 12581" d="M13.214 32.745v-1.34a2.888 2.888 0 012.886-2.888h10.644" stroke="#93a4af"/><path data-name="Trazado 12582" d="M10.751 23.308a7.712 7.712 0 00-3.807 6.653v2.784" stroke="#93a4af"/><path data-name="Trazado 12583" d="M6.944 32v6.52a7.714 7.714 0 007.714 7.714h10.086" stroke="#93a4af"/><path data-name="Trazado 12584" d="M24.744 39.959H16.1a2.888 2.888 0 01-2.888-2.888v-4.076" stroke="#93a4af"/><path data-name="Trazado 12585" d="M23.994 46.229h10.818v-6.27H23.994" stroke="#93a4af"/><path data-name="Trazado 12586" d="M38.095 39.959l6.014-1.459v9.187l-6.014-1.459" stroke="#93a4af"/><path data-name="Trazado 11848" d="M21.844 21.211a4.183 4.183 0 11-4.183-4.183h0a4.168 4.168 0 014.183 4.151z" stroke="#00a800" style="mix-blend-mode:multiply;isolation:isolate"/></g><g data-name="Grupo 15252"><g data-name="Grupo 15251" fill="none"><path data-name="Rectángulo 5172" d="M0 48.259h65V65H0z"/><g data-name="Grupo 15250" stroke-linecap="round" stroke-linejoin="round" stroke-width="2.4"><path data-name="Línea 2911" stroke="#19a301" d="M38.214 60.119h7.167"/><path data-name="Línea 2912" stroke="#19a301" d="M52.528 60.119h.581"/><path data-name="Línea 2913" stroke="#19a301" d="M11.891 60.119h7.101"/><path data-name="Línea 2914" stroke="#82d400" d="M18.529 60.119h12.517"/><path data-name="Línea 2915" stroke="#82d400" d="M11.891 54.012h23.582"/><path data-name="Línea 2916" stroke="#19a301" d="M34.746 54.012h18.363"/><path data-name="Línea 2917" stroke="#19a301" d="M11.891 54.012h.429"/></g></g></g><g data-name="Grupo 13216"><path data-name="Rectángulo 3799" fill="none" d="M0 0h65v65H0z"/></g><path data-name="Rectángulo 3799-2" fill="none" d="M0 0h65v65H0z"/></svg>