<svg data-name="Grupo 15228" xmlns="http://www.w3.org/2000/svg" width="65" height="65"><g data-name="Grupo 14936"><g data-name="Grupo 14935" stroke-linecap="round" stroke-linejoin="round" stroke-width="1.8"><path data-name="Línea 2736" fill="#95a6b1" stroke="#95a6b1" d="M7.13 49.247h51.399"/><path data-name="Trazado 12413" d="M10.831 14.58v-2.153a3.115 3.115 0 013.116-3.115h3.618a3.115 3.115 0 013.115 3.115v36.586" fill="none" stroke="#95a6b1"/><path data-name="Línea 2737" fill="none" stroke="#95a6b1" d="M10.831 49.242V30.231"/><path data-name="Trazado 12414" d="M39.691 49.166V34.682a3 3 0 013-3h9.117a3 3 0 013 3v14.56" fill="none" stroke="#95a6b1"/><path data-name="Trazado 12415" d="M35.95 49.166V28.192a3 3 0 013-3h5.223a3 3 0 013 3v3.337" fill="none" stroke="#95a6b1"/><path data-name="Trazado 12416" d="M20.68 15.42h1.371a2.6 2.6 0 012.6 2.6v31" fill="none" stroke="#95a6b1"/><path data-name="Trazado 12417" d="M20.908 31.071h7.023a2.293 2.293 0 012.293 2.293v7.706a2.292 2.292 0 002.293 2.293h6.922" fill="none" stroke="#95a6b1"/><path data-name="Trazado 12418" d="M49.775 40.65l-2.1-4.343-1.946 4.343a4.58 4.58 0 00-.409 1.407 2.422 2.422 0 004.844 0 4.754 4.754 0 00-.389-1.407z" fill="none" stroke="#95a6b1"/><path data-name="Línea 2738" fill="none" stroke="#95a6b1" d="M41.907 18.907v5.998"/><path data-name="Rectángulo 5101" d="M34.391 2.454h20.184v11.275a5.153 5.153 0 01-5.153 5.153H29.238h0V7.607a5.153 5.153 0 015.153-5.153z" fill="none" stroke="#95a6b1"/><path data-name="Trazado 11848" d="M14.989 22.288a4.183 4.183 0 11-4.183-4.188h0a4.168 4.168 0 014.183 4.151z" fill="none" stroke="#00a800"/><g data-name="Grupo 14934" fill="none" stroke="#95a6b1"><path data-name="Línea 2739" d="M32.382 16.066V8.528"/><path data-name="Trazado 12419" d="M36.778 8.828V7.579a2.1 2.1 0 00-2.118-2.088h-.16a2.1 2.1 0 00-2.117 2.088v1.249"/><path data-name="Línea 2740" d="M36.783 16.066V8.528"/><path data-name="Línea 2741" d="M41.179 16.067V8.529"/><path data-name="Trazado 12420" d="M41.179 8.828V7.579a2.1 2.1 0 00-2.118-2.088H38.9a2.1 2.1 0 00-2.117 2.088v1.249"/><path data-name="Línea 2742" d="M43.73 5.491v10.575"/><g data-name="Grupo 14933"><path data-name="Línea 2743" d="M46.262 16.066V8.528"/><g data-name="Grupo 14932"><path data-name="Rectángulo 5102" d="M48.381 5.491h.16a2.118 2.118 0 012.122 2.118v1.059a2.278 2.278 0 01-2.282 2.278h-2.118 0V7.609a2.118 2.118 0 012.118-2.118z"/><path data-name="Línea 2744" d="M50.646 16.068l-4.383-5.122"/></g></g></g></g></g><path data-name="Rectángulo 3799-2" fill="none" d="M0 0h65v65H0z"/><g data-name="Grupo 14939"><g data-name="Grupo 14938" fill="none"><path data-name="Rectángulo 5103" d="M0 48.259h65V65H0z"/><g data-name="Grupo 14937" stroke-linecap="round" stroke-linejoin="round" stroke-width="2.4"><path data-name="Línea 2745" stroke="#19a301" d="M38.214 60.119h7.167"/><path data-name="Línea 2746" stroke="#19a301" d="M52.528 60.119h.581"/><path data-name="Línea 2747" stroke="#19a301" d="M11.891 60.119h7.101"/><path data-name="Línea 2748" stroke="#82d400" d="M18.529 60.119h12.517"/><path data-name="Línea 2749" stroke="#82d400" d="M11.891 54.012h23.582"/><path data-name="Línea 2750" stroke="#19a301" d="M34.746 54.012h18.363"/><path data-name="Línea 2751" stroke="#19a301" d="M11.891 54.012h.429"/></g></g></g></svg>