<svg data-name="Grupo 13833" xmlns="http://www.w3.org/2000/svg" width="60" height="60"><path data-name="Trazado 5703" d="M57.156 12.6a8.838 8.838 0 110-.123z" fill="none" stroke="#95a6b1" stroke-linecap="round" stroke-linejoin="round" stroke-width="1.6"/><path data-name="Rectángulo 4828" fill="none" d="M0 0h60v60H0z"/><g data-name="Grupo 13833" fill="none" stroke="#95a6b1" stroke-linecap="round" stroke-linejoin="round" stroke-width="1.6"><path data-name="Rectángulo 4829" d="M49.902 49.308H10.711V35.285h39.191z"/><path data-name="Rectángulo 4830" d="M10.711 50.467H6.175V34.126h4.536z"/><path data-name="Rectángulo 4831" d="M54.164 50.467h-4.253V34.126h4.253z"/><path data-name="Línea 2477" d="M32.784 49.308v-5.532"/><path data-name="Trazado 11956" d="M22.388 33.137v2.148h16.775v-9.018H27.205"/><path data-name="Línea 2478" d="M30.776 26.267v-5.506"/><path data-name="Línea 2479" d="M27.205 20.761h7.423"/><path data-name="Línea 2480" d="M27.144 30.776h12.019"/></g><path data-name="Trazado 5703" d="M24.27 25.86a4.971 4.971 0 110-.07z" fill="none" stroke="#19a500" stroke-linecap="round" stroke-linejoin="round" stroke-width="1.6" style="mix-blend-mode:multiply;isolation:isolate"/><g data-name="Grupo 13834" fill="none" stroke="#95a6b1" stroke-linecap="round" stroke-linejoin="round" stroke-width="1.6"><path data-name="Línea 2481" d="M41.989 12.604h12.628"/><path data-name="Trazado 11957" d="M43.823 14.695L41.732 12.6l2.091-2.091"/><path data-name="Trazado 11958" d="M52.563 10.513l2.091 2.091-2.091 2.091"/></g><path data-name="Línea 2482" fill="none" stroke="#95a6b1" stroke-linecap="round" stroke-linejoin="round" stroke-width="1.6" d="M46.95 21.503l-3.127 9.858"/></svg>