<svg data-name="Grupo 15229" xmlns="http://www.w3.org/2000/svg" width="65" height="65"><g data-name="Grupo 15244"><g data-name="Grupo 15243" fill="none"><path data-name="Rectángulo 5165" d="M0 48.259h65V65H0z"/><g data-name="Grupo 15242" stroke-linecap="round" stroke-linejoin="round" stroke-width="2.4"><path data-name="Línea 2898" stroke="#19a301" d="M38.214 60.119h7.167"/><path data-name="Línea 2899" stroke="#19a301" d="M52.528 60.119h.581"/><path data-name="Línea 2900" stroke="#19a301" d="M11.891 60.119h7.101"/><path data-name="Línea 2901" stroke="#82d400" d="M18.529 60.119h12.517"/><path data-name="Línea 2902" stroke="#82d400" d="M11.891 54.012h23.582"/><path data-name="Línea 2903" stroke="#19a301" d="M34.746 54.012h18.363"/><path data-name="Línea 2904" stroke="#19a301" d="M11.891 54.012h.429"/></g></g></g><g data-name="Grupo 13216"><path data-name="Rectángulo 3799" fill="none" d="M0 0h65v65H0z"/></g><path data-name="Rectángulo 3799-2" fill="none" d="M0 0h65v65H0z"/><g data-name="Grupo 15248"><g data-name="Grupo 15247"><g data-name="Grupo 15246"><g data-name="Grupo 13591"><g data-name="Grupo 13590" fill="none" stroke="#93a4af" stroke-linecap="round" stroke-linejoin="round" stroke-width="1.8"><path data-name="Rectángulo 4762" d="M12.256 35.23h5.673v12.016h-5.673z"/><path data-name="Rectángulo 4763" d="M6.134 38.58h6.122v5.315H6.134z"/><path data-name="Trazado 11867" d="M42.069 41.54l-.542.542a11.036 11.036 0 01-7.8 3.231h-15.8v-8.149h10.034l3.821-.047a7.736 7.736 0 005.354-2.243l21.73-21.563m0 11.378l-6.89 6.948"/></g></g><path data-name="Trazado 11848" d="M50.878 36.413a4.183 4.183 0 11-4.183-4.183h0a4.168 4.168 0 014.183 4.151z" fill="none" stroke="#00a800" stroke-linecap="round" stroke-linejoin="round" stroke-width="1.8" style="mix-blend-mode:multiply;isolation:isolate"/><g data-name="Grupo 15245" fill="none" stroke="#93a4af" stroke-linecap="round" stroke-linejoin="round" stroke-width="1.8"><path data-name="Trazado 11837" d="M20.99 19.517v6.477h10.048v-6.477H20.99"/><path data-name="Línea 2401" d="M26.014 19.517v-3.954"/><path data-name="Línea 2402" d="M23.45 15.563h5.331"/><path data-name="Línea 2403" d="M23.406 22.755h7.632"/></g><path data-name="Línea 2905" fill="none" stroke="#93a4af" stroke-linecap="round" stroke-linejoin="round" stroke-width="1.8" d="M6.134 25.994h40.013"/><path data-name="Línea 2906" fill="none" stroke="#93a4af" stroke-linecap="round" stroke-linejoin="round" stroke-width="1.8" d="M24.396 25.994v11.17"/><path data-name="Línea 2907" fill="none" stroke="#93a4af" stroke-linecap="round" stroke-linejoin="round" stroke-width="1.8" d="M28.183 25.994v11.17"/><path data-name="Trazado 12577" d="M35.459 25.689L51.282 9.47l7.584-3.6" fill="none" stroke="#93a4af" stroke-linecap="round" stroke-linejoin="round" stroke-width="1.8"/></g></g><path data-name="Línea 2908" fill="none" stroke="#93a4af" stroke-linecap="round" stroke-linejoin="round" stroke-width="1.8" stroke-dasharray="2 3" d="M48.901 29.63l9.965-10.113"/></g><path data-name="Trazado 12578" d="M20.276 41.238h10.38a13.037 13.037 0 008.82-3.211" fill="none" stroke="#95a6b1" stroke-linecap="round" stroke-linejoin="round" stroke-width="1.8" stroke-dasharray="2 3"/></svg>