<svg xmlns="http://www.w3.org/2000/svg" width="65" height="65"><g data-name="Grupo 18289"><g data-name="Grupo 18284" fill="none"><path data-name="Rectángulo 5523" d="M0 48.259h65V65H0z"/><g data-name="Grupo 18283" stroke-linecap="round" stroke-linejoin="round" stroke-width="2.4"><path data-name="Línea 3653" stroke="#4da12e" d="M38.214 60.119h7.167"/><path data-name="Línea 3654" stroke="#4da12e" d="M52.529 60.119h.581"/><path data-name="Línea 3655" stroke="#4da12e" d="M11.891 60.119h7.101"/><path data-name="Línea 3656" stroke="#96d200" d="M18.53 60.119h12.517"/><path data-name="Línea 3657" stroke="#96d200" d="M11.891 54.012h23.582"/><path data-name="Línea 3658" stroke="#4da12e" d="M34.746 54.012h18.363"/><path data-name="Línea 3659" stroke="#4da12e" d="M11.891 54.012h.429"/></g></g><g data-name="Grupo 18288"><g data-name="Grupo 18286" fill="none"><path data-name="Rectángulo 5524" d="M0 48.259h65V65H0z"/><g data-name="Grupo 18285" stroke-linecap="round" stroke-linejoin="round" stroke-width="2.4"><path data-name="Línea 3660" stroke="#4c9f2e" d="M38.214 60.119h7.167"/><path data-name="Línea 3661" stroke="#4c9f2e" d="M52.529 60.119h.581"/><path data-name="Línea 3662" stroke="#4c9f2e" d="M11.891 60.119h7.101"/><path data-name="Línea 3663" stroke="#94d040" d="M18.53 60.119h12.517"/><path data-name="Línea 3664" stroke="#94d040" d="M11.891 54.012h23.582"/><path data-name="Línea 3665" stroke="#4c9f2e" d="M34.746 54.012h18.363"/><path data-name="Línea 3666" stroke="#4c9f2e" d="M11.891 54.012h.429"/></g></g><g data-name="Grupo 13216"><path data-name="Rectángulo 3799" fill="none" d="M0 0h65v65H0z"/></g><path data-name="Rectángulo 3799-2" fill="none" d="M0 0h65v65H0z"/><g data-name="Grupo 18287" fill="none" stroke="#95a6b1" stroke-linecap="round" stroke-linejoin="round" stroke-width="1.6"><path data-name="Línea 3667" d="M6.92 47.446h51.161"/><path data-name="Trazado 18850" d="M26.73 28.785h8.035l4.56 5.259"/><path data-name="Trazado 18851" d="M16.089 47.446V16.058h5.212v31.388"/><path data-name="Trazado 18852" d="M39.325 47.446V35.084a4.476 4.476 0 014.476-4.476h1.146a4.476 4.476 0 014.476 4.476v12.362"/><path data-name="Trazado 18853" d="M21.301 21.7s5.429-.434 5.429 7.275v18.471"/><path data-name="Trazado 18854" d="M10.661 47.446v-4.313s.217-5.429 5.428-5.429"/><path data-name="Línea 3668" d="M49.423 41.003l5.666 6.443"/><path data-name="Trazado 18855" d="M46.068 39.942l-1.753-3.62-1.619 3.62a3.8 3.8 0 00-.341 1.172 2.019 2.019 0 104.038 0 3.942 3.942 0 00-.325-1.172z"/><path data-name="Línea 2751" d="M26.938 33.874h3.644"/><path data-name="Línea 2753" d="M33.066 33.874h.623"/><path data-name="Línea 3669" d="M20.07 11.97h0"/><path data-name="Línea 3670" d="M24.346 16.527h0"/><path data-name="Línea 3671" d="M24.346 11.97h0"/><path data-name="Línea 3672" d="M24.346 16.527h0"/><path data-name="Línea 3673" d="M24.346 11.97h0"/><path data-name="Línea 3674" d="M28.622 16.527h0"/><path data-name="Línea 3675" d="M28.622 11.97h0"/><path data-name="Línea 3676" d="M32.898 16.527h0"/><path data-name="Línea 3677" d="M32.898 11.97h0"/><path data-name="Línea 3678" d="M28.622 16.527h0"/><path data-name="Línea 3679" d="M28.622 20.543h0"/><path data-name="Línea 3680" d="M32.898 16.527h0"/><path data-name="Línea 3681" d="M32.898 11.97h0"/><path data-name="Línea 3682" d="M37.174 16.527h0"/><path data-name="Línea 3683" d="M37.174 11.97h0"/><path data-name="Línea 3684" d="M41.45 11.97h0"/><path data-name="Línea 3685" d="M37.174 16.527h0"/><path data-name="Línea 3686" d="M41.45 11.97h0"/><path data-name="Línea 3687" d="M20.07 7.356h0"/><path data-name="Línea 3688" d="M24.346 7.356h0"/><path data-name="Línea 3689" d="M20.07 7.356h0"/><path data-name="Línea 3690" d="M24.346 7.356h0"/><path data-name="Línea 3691" d="M28.622 7.356h0"/><path data-name="Línea 3692" d="M32.898 7.356h0"/><path data-name="Línea 3693" d="M28.622 7.356h0"/><path data-name="Línea 3694" d="M32.898 7.356h0"/><path data-name="Línea 3695" d="M37.174 7.356h0"/><path data-name="Línea 3696" d="M41.45 7.356h0"/><path data-name="Línea 3697" d="M37.174 7.356h0"/><path data-name="Línea 3698" d="M41.45 7.356h0"/><path data-name="Línea 3699" d="M16.07 11.97h0"/><path data-name="Trazado 18856" d="M51.354 13.6c1.13-2.416 1.1-5.676-1.317-7.1"/><path data-name="Trazado 18857" d="M26.159 25.255s5.423 2.029 7.341-3.388c0 0 2.738 3.091 7.976 1.291q.282-.1.54-.206"/><path data-name="Trazado 18858" d="M16.07 20.686s-7.156-.515-6.728-6.857"/></g></g><path data-name="Trazado 11848" d="M50.384 17.366a4.183 4.183 0 11-4.183-4.183h0a4.166 4.166 0 014.183 4.151z" fill="none" stroke="#00a800" stroke-linecap="round" stroke-linejoin="round" stroke-width="1.6"/><path data-name="Línea 3700" fill="none" stroke="#95a6b1" stroke-linecap="round" stroke-linejoin="round" stroke-width="1.6" d="M45.45 7.356h0"/></g></svg>