<svg data-name="Grupo 15223" xmlns="http://www.w3.org/2000/svg" width="65" height="65"><g data-name="Grupo 15224"><g data-name="Grupo 15223" fill="none" stroke-linecap="round" stroke-linejoin="round" stroke-width="1.8"><path data-name="Trazado 11848" d="M53.932 34.164a4.183 4.183 0 11-4.183-4.183h0a4.168 4.168 0 014.183 4.151z" stroke="#00a800" style="mix-blend-mode:multiply;isolation:isolate"/><g data-name="Grupo 13591" stroke="#93a4af"><path data-name="Trazado 11866" d="M38.644 34.164v-3.832h-15.79v3.825"/><g data-name="Grupo 13590"><path data-name="Rectángulo 4762" d="M11.542 32.23h5.673v15.016h-5.673z"/><path data-name="Rectángulo 4763" d="M5.42 35.58h6.122v8.315H5.42z"/><path data-name="Trazado 11867" d="M42.246 34.164H17.213v11.149H59.58V34.164h-2.821"/></g><path data-name="Trazado 11868" d="M28.573 24.943a2.819 2.819 0 00-2.819 2.819v2.561h9.989v-2.561a2.819 2.819 0 00-2.819-2.819z"/><path data-name="Trazado 11869" d="M30.749 18.753a6.883 6.883 0 01-1.707-.237v6.426h3.413v-6.426a6.876 6.876 0 01-1.706.237z"/><circle data-name="Elipse 2295" cx="6.913" cy="6.913" r="6.913" transform="translate(23.836 4.928)"/><path data-name="Línea 2439" d="M33 11.486h-2.207"/><path data-name="Línea 2440" d="M30.793 10.261v2.449"/></g></g></g><g data-name="Grupo 15227"><g data-name="Grupo 15226" fill="none"><path data-name="Rectángulo 5162" d="M0 48.259h65V65H0z"/><g data-name="Grupo 15225" stroke-linecap="round" stroke-linejoin="round" stroke-width="2.4"><path data-name="Línea 2869" stroke="#19a301" d="M38.214 60.119h7.167"/><path data-name="Línea 2870" stroke="#19a301" d="M52.528 60.119h.581"/><path data-name="Línea 2871" stroke="#19a301" d="M11.891 60.119h7.101"/><path data-name="Línea 2872" stroke="#82d400" d="M18.529 60.119h12.517"/><path data-name="Línea 2873" stroke="#82d400" d="M11.891 54.012h23.582"/><path data-name="Línea 2874" stroke="#19a301" d="M34.746 54.012h18.363"/><path data-name="Línea 2875" stroke="#19a301" d="M11.891 54.012h.429"/></g></g></g><g data-name="Grupo 13216"><path data-name="Rectángulo 3799" fill="none" d="M0 0h65v65H0z"/></g><path data-name="Rectángulo 3799-2" fill="none" d="M0 0h65v65H0z"/></svg>