<svg data-name="Grupo 15102" xmlns="http://www.w3.org/2000/svg" width="65" height="65"><g data-name="Grupo 14928"><g data-name="Grupo 14927" stroke-linecap="round" stroke-linejoin="round" stroke-width="1.8"><path data-name="Línea 2719" fill="#95a6b1" stroke="#95a6b1" d="M7.13 49.247h51.399"/><path data-name="Trazado 12405" d="M10.831 14.58v-2.153a3.115 3.115 0 013.116-3.115h3.618a3.115 3.115 0 013.115 3.115v36.586" fill="none" stroke="#95a6b1"/><path data-name="Línea 2720" fill="none" stroke="#95a6b1" d="M10.831 49.242V30.231"/><path data-name="Trazado 12406" d="M39.691 49.166V34.682a3 3 0 013-3h9.117a3 3 0 013 3v14.56" fill="none" stroke="#95a6b1"/><path data-name="Trazado 12407" d="M35.95 49.166V28.192a3 3 0 013-3h5.223a3 3 0 013 3v3.337" fill="none" stroke="#95a6b1"/><path data-name="Trazado 12408" d="M20.68 15.42h1.371a2.6 2.6 0 012.6 2.6v31" fill="none" stroke="#95a6b1"/><path data-name="Trazado 12409" d="M20.908 31.071h7.023a2.293 2.293 0 012.293 2.293v7.706a2.292 2.292 0 002.293 2.293h6.922" fill="none" stroke="#95a6b1"/><path data-name="Trazado 12410" d="M49.775 40.65l-2.1-4.343-1.946 4.343a4.58 4.58 0 00-.409 1.407 2.422 2.422 0 004.844 0 4.754 4.754 0 00-.389-1.407z" fill="none" stroke="#95a6b1"/><path data-name="Línea 2721" fill="none" stroke="#95a6b1" d="M41.907 18.907v5.998"/><path data-name="Rectángulo 5098" d="M34.391 2.454h20.184v11.275a5.153 5.153 0 01-5.153 5.153H29.238h0V7.607a5.153 5.153 0 015.153-5.153z" fill="none" stroke="#95a6b1"/><g data-name="Grupo 14926" fill="none" stroke="#95a6b1"><path data-name="Línea 2722" d="M32.83 16.066V8.528"/><path data-name="Rectángulo 5099" d="M34.919 5.491h.219a2.088 2.088 0 012.093 2.088v1.249a2.118 2.118 0 01-2.122 2.118h-.16a2.118 2.118 0 01-2.118-2.118V7.579a2.088 2.088 0 012.088-2.088z"/><g data-name="Grupo 14925"><path data-name="Trazado 12411" d="M44.021 8.828V7.579A2.1 2.1 0 0041.9 5.491h-.16a2.1 2.1 0 00-2.118 2.088v1.249"/><path data-name="Línea 2723" d="M39.625 8.828v7.238"/><path data-name="Línea 2724" d="M39.625 7.748v1.08"/><path data-name="Línea 2725" d="M44.029 8.828v7.238"/><path data-name="Línea 2726" d="M44.029 7.748v1.08"/><path data-name="Línea 2727" d="M39.616 10.735h4.412"/></g><path data-name="Trazado 12412" d="M50.1 5.491h-3.5v10.575h3.565"/><path data-name="Línea 2728" d="M49.815 10.748h-3.053"/></g><path data-name="Trazado 11848" d="M14.989 22.288a4.183 4.183 0 11-4.183-4.188h0a4.168 4.168 0 014.183 4.151z" fill="none" stroke="#00a800"/></g></g><path data-name="Rectángulo 3799-2" fill="none" d="M0 0h65v65H0z"/><g data-name="Grupo 14931"><g data-name="Grupo 14930" fill="none"><path data-name="Rectángulo 5100" d="M0 48.259h65V65H0z"/><g data-name="Grupo 14929" stroke-linecap="round" stroke-linejoin="round" stroke-width="2.4"><path data-name="Línea 2729" stroke="#19a301" d="M38.214 60.119h7.167"/><path data-name="Línea 2730" stroke="#19a301" d="M52.528 60.119h.581"/><path data-name="Línea 2731" stroke="#19a301" d="M11.891 60.119h7.101"/><path data-name="Línea 2732" stroke="#82d400" d="M18.529 60.119h12.517"/><path data-name="Línea 2733" stroke="#82d400" d="M11.891 54.012h23.582"/><path data-name="Línea 2734" stroke="#19a301" d="M34.746 54.012h18.363"/><path data-name="Línea 2735" stroke="#19a301" d="M11.891 54.012h.429"/></g></g></g></svg>