<svg data-name="Grupo 18272" xmlns="http://www.w3.org/2000/svg" width="65" height="65"><g data-name="Grupo 18267"><g data-name="Grupo 18266" fill="none"><path data-name="Rectángulo 5518" d="M0 48.259h65V65H0z"/><g data-name="Grupo 18265" stroke-linecap="round" stroke-linejoin="round" stroke-width="2.4"><path data-name="Línea 3632" stroke="#4da12e" d="M38.214 60.119h7.167"/><path data-name="Línea 3633" stroke="#4da12e" d="M52.528 60.119h.581"/><path data-name="Línea 3634" stroke="#4da12e" d="M11.891 60.119h7.101"/><path data-name="Línea 3635" stroke="#96d200" d="M18.529 60.119h12.517"/><path data-name="Línea 3636" stroke="#96d200" d="M11.891 54.012h23.582"/><path data-name="Línea 3637" stroke="#4da12e" d="M34.746 54.012h18.363"/><path data-name="Línea 3638" stroke="#4da12e" d="M11.891 54.012h.429"/></g></g></g><g data-name="Grupo 18271"><g data-name="Grupo 18270"><g data-name="Grupo 18269" fill="none"><path data-name="Rectángulo 5519" d="M0 48.259h65V65H0z"/><g data-name="Grupo 18268" stroke-linecap="round" stroke-linejoin="round" stroke-width="2.4"><path data-name="Línea 3639" stroke="#4c9f2e" d="M38.214 60.119h7.167"/><path data-name="Línea 3640" stroke="#4c9f2e" d="M52.528 60.119h.581"/><path data-name="Línea 3641" stroke="#4c9f2e" d="M11.891 60.119h7.101"/><path data-name="Línea 3642" stroke="#94d040" d="M18.529 60.119h12.517"/><path data-name="Línea 3643" stroke="#94d040" d="M11.891 54.012h23.582"/><path data-name="Línea 3644" stroke="#4c9f2e" d="M34.746 54.012h18.363"/><path data-name="Línea 3645" stroke="#4c9f2e" d="M11.891 54.012h.429"/></g></g></g><g data-name="Grupo 13216"><path data-name="Rectángulo 3799" fill="none" d="M0 0h65v65H0z"/></g><path data-name="Rectángulo 3799-2" fill="none" d="M0 0h65v65H0z"/><g data-name="Grupo 13714"><path data-name="Trazado 11848" d="M24 20.626a4.183 4.183 0 11-4.183-4.183h0A4.166 4.166 0 0124 20.594z" fill="none" stroke="#00a800" stroke-linecap="round" stroke-linejoin="round" stroke-width="1.6"/><path data-name="Trazado 18838" d="M43.787 17.3l-4.762-8.25a7.534 7.534 0 00-13.05 0l-2.782 4.818" fill="none" stroke="#95a6b1" stroke-linecap="round" stroke-linejoin="round" stroke-width="1.6"/><path data-name="Trazado 18839" d="M39.842 45.987H47.3a7.534 7.534 0 006.525-11.3l-4.452-7.711" fill="none" stroke="#95a6b1" stroke-linecap="round" stroke-linejoin="round" stroke-width="1.6"/><path data-name="Trazado 18840" d="M15.626 26.975l-4.452 7.711a7.534 7.534 0 006.525 11.3h18.143" fill="none" stroke="#95a6b1" stroke-linecap="round" stroke-linejoin="round" stroke-width="1.6"/><path data-name="Trazado 18841" d="M42.8 42.465l-2.956 3.522 2.956 3.386" fill="none" stroke="#95a6b1" stroke-linecap="round" stroke-linejoin="round" stroke-width="1.6"/><path data-name="Trazado 18842" d="M17.112 31.327l-1.483-4.352-4.427.776" fill="none" stroke="#95a6b1" stroke-linecap="round" stroke-linejoin="round" stroke-width="1.6"/><path data-name="Trazado 18843" d="M39.271 16.434l4.516.865 1.513-4.231" fill="none" stroke="#95a6b1" stroke-linecap="round" stroke-linejoin="round" stroke-width="1.6"/><g data-name="Grupo 13390"><g data-name="Grupo 13389" fill="none" stroke="#95a6b1" stroke-linecap="round" stroke-linejoin="round" stroke-width="1.6"><path data-name="Línea 2376" d="M32.5 27.23v18.665"/><path data-name="Línea 2377" d="M41.492 26.383l-9.01 9.01"/><path data-name="Línea 2378" d="M26.1 34.988l6.121 4.157"/><path data-name="Trazado 11782" d="M43.623 31.019a4.891 4.891 0 01-6.917-6.919c1.91-1.91 10.232-3.315 10.232-3.315s-1.405 8.325-3.315 10.234z"/><g data-name="Grupo 13388"><path data-name="Línea 2379" d="M24.989 34.284l3.755 2.549"/><path data-name="Trazado 11783" d="M28.218 32.265a3.5 3.5 0 01-3.918 5.764c-1.465-.993-3.237-6.409-3.237-6.409s5.69-.352 7.155.645z"/></g></g></g></g></g></svg>