<svg data-name="Grupo 15255" xmlns="http://www.w3.org/2000/svg" width="65" height="65"><g data-name="Grupo 15257"><g data-name="Grupo 15256" stroke-linecap="round" stroke-linejoin="round" stroke-width="1.8"><path data-name="Línea 2918" fill="#90a6b1" stroke="#90a6b1" d="M7.13 49.247h51.399"/><path data-name="Trazado 12587" d="M10.831 14.58v-2.153a3.115 3.115 0 013.116-3.115h3.618a3.115 3.115 0 013.115 3.115v36.586" fill="none" stroke="#90a6b1"/><path data-name="Línea 2919" fill="none" stroke="#90a6b1" d="M10.831 49.242V30.231"/><path data-name="Trazado 12588" d="M39.691 49.166V34.682a3 3 0 013-3h9.117a3 3 0 013 3v14.56" fill="none" stroke="#90a6b1"/><path data-name="Trazado 12589" d="M35.95 49.166V28.192a3 3 0 013-3h5.223a3 3 0 013 3v3.337" fill="none" stroke="#90a6b1"/><path data-name="Trazado 12590" d="M20.68 15.42h1.371a2.6 2.6 0 012.6 2.6v31" fill="none" stroke="#90a6b1"/><path data-name="Trazado 12591" d="M20.908 31.071h7.023a2.293 2.293 0 012.293 2.293v7.706a2.292 2.292 0 002.293 2.293h6.922" fill="none" stroke="#90a6b1"/><path data-name="Trazado 12592" d="M49.775 40.65l-2.1-4.343-1.946 4.343a4.58 4.58 0 00-.409 1.407 2.422 2.422 0 004.844 0 4.754 4.754 0 00-.389-1.407z" fill="none" stroke="#90a6b1"/><path data-name="Línea 2920" fill="none" stroke="#90a6b1" d="M41.907 18.907v5.998"/><path data-name="Rectángulo 5173" d="M34.391 2.454h20.184v11.275a5.153 5.153 0 01-5.153 5.153H29.238h0V7.607a5.153 5.153 0 015.153-5.153z" fill="none" stroke="#90a6b1"/><g data-name="Grupo 15255" fill="none" stroke="#90a6b1"><path data-name="Línea 2921" d="M33.313 13.949V8.528"/><path data-name="Rectángulo 5174" d="M35.431 5.491h.16a2.118 2.118 0 012.122 2.118v1.034a2.118 2.118 0 01-2.122 2.118h-2.278 0V7.609a2.118 2.118 0 012.118-2.118z"/><path data-name="Rectángulo 5175" d="M33.313 10.761h2.307a2.088 2.088 0 012.093 2.088v1.1a2.118 2.118 0 01-2.122 2.117h-2.278 0v-5.305h0z"/><path data-name="Trazado 12593" d="M46.935 5.491v10.575H50.5"/><path data-name="Trazado 12594" d="M44.114 5.491h-3.508v10.575h3.565"/><path data-name="Línea 2922" d="M43.825 10.748h-3.053"/></g><path data-name="Trazado 11848" d="M14.989 22.288a4.183 4.183 0 11-4.183-4.188h0a4.168 4.168 0 014.183 4.151z" fill="none" stroke="#00ab00"/></g></g><path data-name="Rectángulo 3799-2" fill="none" d="M0 0h65v65H0z"/><g data-name="Grupo 15260"><g data-name="Grupo 15259" fill="none"><path data-name="Rectángulo 5176" d="M0 48.259h65V65H0z"/><g data-name="Grupo 15258" stroke-linecap="round" stroke-linejoin="round" stroke-width="2.4"><path data-name="Línea 2923" stroke="#00a600" d="M38.214 60.119h7.167"/><path data-name="Línea 2924" stroke="#00a600" d="M52.528 60.119h.581"/><path data-name="Línea 2925" stroke="#00a600" d="M11.891 60.119h7.101"/><path data-name="Línea 2926" stroke="#62d700" d="M18.529 60.119h12.517"/><path data-name="Línea 2927" stroke="#62d700" d="M11.891 54.012h23.582"/><path data-name="Línea 2928" stroke="#00a600" d="M34.746 54.012h18.363"/><path data-name="Línea 2929" stroke="#00a600" d="M11.891 54.012h.429"/></g></g></g></svg>