<svg version="1.1" id="Capa_1" xmlns="http://www.w3.org/2000/svg" xmlns:xlink="http://www.w3.org/1999/xlink" x="0" y="0" viewBox="0 0 65 65" xml:space="preserve"><style>.st1{stroke:#95a6b1;stroke-width:1.6;stroke-linecap:round;stroke-linejoin:round}.st1,.st3{fill:none}.st5{fill:#4da12e}</style><g id="Capa_1_1_"><path id="Trazado_5703_4_" class="st1" d="M55.49 13.8c0 4.43-3.59 8.03-8.03 8.03s-8.03-3.59-8.03-8.03 3.59-8.03 8.03-8.03c4.4-.03 8 3.51 8.03 7.91v.12z"/><path class="st1" d="M13.61 34.26h35.34v12.65H13.61zm-4.1-1.04h4.09v14.74H9.51zm39.44 0h3.84v14.74h-3.84zM33.51 46.91v-4.99m-9.38-9.6v1.94h15.13v-8.13H28.48m3.22 0v-4.97m-3.22 0h6.69m-6.75 9.03h10.84"/><path id="Trazado_5703_3_" d="M25.83 25.76a4.511 4.511 0 01-9.02 0c0-2.49 2.02-4.51 4.51-4.51 2.48-.02 4.5 1.98 4.51 4.45v.06z" fill="none" stroke="#19a500" stroke-width="1.6" stroke-linecap="round" stroke-linejoin="round" stroke-miterlimit="10"/><path class="st1" d="M41.81 13.8H53.2m-9.74 1.89l-1.88-1.89 1.88-1.88m7.89 0l1.88 1.88-1.88 1.89m-5.07 6.14l-2.82 8.89"/><g id="Grupo_14998_1_" transform="translate(-83.703)"><path id="Rectángulo_3799-2_4_" class="st3" d="M83.7 0h65v65h-65z"/></g><defs><path id="SVGID_1_" d="M0 48.26h65V65H0z"/></defs><clipPath id="SVGID_2_"><use xlink:href="#SVGID_1_" overflow="visible"/></clipPath><g clip-path="url(#SVGID_2_)"><path class="st3" d="M0 48.26h65V65H0z"/><path class="st5" d="M45.38 61.32h-7.17c-.66 0-1.2-.54-1.2-1.2s.54-1.2 1.2-1.2h7.17c.66 0 1.2.54 1.2 1.2s-.54 1.2-1.2 1.2zm7.73 0h-.58c-.66 0-1.2-.54-1.2-1.2s.54-1.2 1.2-1.2h.58c.66 0 1.2.54 1.2 1.2s-.54 1.2-1.2 1.2zm-34.12 0h-7.1c-.66 0-1.2-.54-1.2-1.2s.54-1.2 1.2-1.2h7.1c.66 0 1.2.54 1.2 1.2s-.54 1.2-1.2 1.2z"/><path d="M31.05 61.32H18.53c-.66 0-1.2-.54-1.2-1.2s.54-1.2 1.2-1.2h12.52c.66 0 1.2.54 1.2 1.2s-.54 1.2-1.2 1.2zm4.42-6.11H11.89c-.66 0-1.2-.54-1.2-1.2s.54-1.2 1.2-1.2h23.58c.66 0 1.2.54 1.2 1.2s-.54 1.2-1.2 1.2z" fill="#96d200"/><path class="st5" d="M53.11 55.21H34.75c-.66 0-1.2-.54-1.2-1.2s.54-1.2 1.2-1.2h18.36c.66 0 1.2.54 1.2 1.2s-.54 1.2-1.2 1.2zm-40.79 0h-.43c-.66 0-1.2-.54-1.2-1.2s.54-1.2 1.2-1.2h.43c.66 0 1.2.54 1.2 1.2s-.54 1.2-1.2 1.2z"/></g></g></svg>