<svg data-name="Grupo 13835" xmlns="http://www.w3.org/2000/svg" width="60" height="60"><path data-name="Rectángulo 4832" fill="none" d="M0 0h60v60H0z"/><path data-name="Trazado 5703" d="M19.615 13.034a4.733 4.733 0 110-.066z" fill="none" stroke="#19a500" stroke-linecap="round" stroke-linejoin="round" stroke-width="1.6" style="mix-blend-mode:multiply;isolation:isolate"/><path data-name="Trazado 11959" d="M12.6 21.53v23.225a7.27 7.27 0 007.271 7.27h11.552l13.941-.03V10.021H22.89" fill="none" stroke="#95a6b1" stroke-linecap="round" stroke-linejoin="round" stroke-width="1.389"/><path data-name="Línea 2483" fill="none" stroke="#95a6b1" stroke-linecap="round" stroke-linejoin="round" stroke-width="1.389" d="M18.82 34.456h20.271"/><path data-name="Línea 2484" fill="none" stroke="#95a6b1" stroke-linecap="round" stroke-linejoin="round" stroke-width="1.389" d="M18.82 39.222h20.271"/><path data-name="Línea 2485" fill="none" stroke="#95a6b1" stroke-linecap="round" stroke-linejoin="round" stroke-width="1.389" d="M18.612 44.52h12.703"/><path data-name="Trazado 11961" d="M30.578 15.018h-2.7a.268.268 0 00-.254.279v1.576a.268.268 0 00.254.279h2.7a.268.268 0 00.254-.279V15.3a.268.268 0 00-.254-.282z" fill="none" stroke="#95a6b1" stroke-linecap="round" stroke-linejoin="round" stroke-width="1.389"/><path data-name="Trazado 11962" d="M25 19.593v11.423h8.982V19.593" fill="none" stroke="#95a6b1" stroke-linecap="round" stroke-linejoin="round" stroke-width="1.389"/><path data-name="Línea 2486" fill="none" stroke="#95a6b1" stroke-linecap="round" stroke-linejoin="round" stroke-width="1.389" d="M24.05 23.114h10.889"/><path data-name="Línea 2487" fill="none" stroke="#95a6b1" stroke-linecap="round" stroke-linejoin="round" stroke-width="1.389" d="M24.05 26.939h10.889"/><path data-name="Línea 2488" fill="none" stroke="#95a6b1" stroke-linecap="round" stroke-linejoin="round" stroke-width="1.389" d="M24.05 31.016h10.889"/><rect data-name="Rectángulo 4833" width="10.889" height="2.441" rx=".448" transform="translate(24.01 17.152)" fill="none" stroke="#95a6b1" stroke-linecap="round" stroke-linejoin="round" stroke-width="1.389"/></svg>