<svg xmlns="http://www.w3.org/2000/svg" width="9" height="163.866"><g data-name="Grupo 18436"><path data-name="Trazado 18891" d="M4.5 161.551V0" fill="none" stroke="#505d6c" stroke-dasharray="4"/><g data-name="Trazado 18892" fill="#fff"><path d="M8 159.367c0 1.93-1.57 3.5-3.5 3.5s-3.5-1.57-3.5-3.5 1.57-3.5 3.5-3.5c.738 0 1.412.236 2.186.764l.008.005.008.005c.625.41 1.298 1.438 1.298 2.726z"/><path d="M2 159.367c0 1.378 1.122 2.5 2.5 2.5s2.5-1.122 2.5-2.5c0-.972-.52-1.675-.847-1.89l-.03-.02c-.762-.52-1.248-.59-1.623-.59a2.503 2.503 0 00-2.5 2.5m-2 0a4.5 4.5 0 014.5-4.5c.925 0 1.784.279 2.75.938.955.626 1.75 2.001 1.75 3.562a4.5 4.5 0 01-9 0z" fill="#00af00"/></g><g data-name="Trazado 18893" fill="#fff"><path d="M8 83.5C8 85.43 6.43 87 4.5 87S1 85.43 1 83.5 2.57 80 4.5 80c.738 0 1.412.236 2.186.764l.008.005.008.005C7.327 81.184 8 82.212 8 83.5z"/><path d="M2 83.5C2 84.878 3.122 86 4.5 86S7 84.878 7 83.5c0-.972-.52-1.675-.847-1.89l-.03-.02C5.36 81.07 4.875 81 4.5 81A2.503 2.503 0 002 83.5m-2 0A4.5 4.5 0 014.5 79c.925 0 1.784.279 2.75.938C8.205 80.564 9 81.939 9 83.5a4.5 4.5 0 01-9 0z" fill="#00af00"/></g><g data-name="Trazado 18894" fill="#fff"><path d="M8 4.5C8 6.43 6.43 8 4.5 8S1 6.43 1 4.5 2.57 1 4.5 1c.738 0 1.412.236 2.186.764l.008.005.008.005C7.327 2.184 8 3.212 8 4.5z"/><path d="M2 4.5C2 5.878 3.122 7 4.5 7S7 5.878 7 4.5c0-.972-.52-1.675-.847-1.89l-.03-.02C5.36 2.07 4.875 2 4.5 2A2.503 2.503 0 002 4.5m-2 0A4.5 4.5 0 014.5 0c.925 0 1.784.279 2.75.938C8.205 1.564 9 2.939 9 4.5a4.5 4.5 0 01-9 0z" fill="#00af00"/></g></g></svg>