<svg version="1.1" id="Capa_1" xmlns="http://www.w3.org/2000/svg" xmlns:xlink="http://www.w3.org/1999/xlink" x="0" y="0" viewBox="0 0 65 65" xml:space="preserve"><style>.st1,.st2{fill:none}.st2{stroke:#95a6b1;stroke-width:1.6;stroke-linecap:round;stroke-linejoin:round}.st5{fill:#4da12e}</style><g id="Capa_1_1_"><g id="Grupo_14998_2_" transform="translate(-83.703)"><path id="Rectángulo_3799-2_1_" class="st1" d="M83.7 0h65v65h-65z"/><path class="st2" d="M90.83 49.25h51.4M94.54 14.58v-2.15c0-1.72 1.39-3.12 3.12-3.12h3.62c1.72 0 3.12 1.39 3.12 3.12v36.59m-9.86.22V30.23m28.86 18.94V34.68c0-1.66 1.34-3 3-3h9.12c1.66 0 3 1.34 3 3v14.56"/><path class="st2" d="M119.65 49.17V28.19c0-1.66 1.34-3 3-3h5.22c1.66 0 3 1.34 3 3v3.34m-26.49-16.11h1.37c1.44 0 2.6 1.16 2.6 2.6v31"/><path class="st2" d="M104.61 31.07h7.02a2.29 2.29 0 012.29 2.29v7.71a2.29 2.29 0 002.29 2.29h6.92m10.35-2.71l-2.1-4.34-1.94 4.34s-.41.88-.41 1.41c0 1.34 1.08 2.42 2.42 2.42s2.42-1.08 2.42-2.42c0-.53-.39-1.41-.39-1.41zm-7.87-21.74v5.99m12.67-22.45H118.1a5.15 5.15 0 00-5.15 5.15v11.28h20.18a5.15 5.15 0 005.15-5.15V2.45zm-21.75 13.62V8.53"/><path class="st2" d="M118.81 5.49h-.16c-1.16 0-2.12.92-2.12 2.09v1.25c0 1.16.95 2.12 2.12 2.12h.16c1.16 0 2.12-.95 2.12-2.12V7.58c0-1.17-.95-2.09-2.12-2.09zm8.92 3.34V7.58c0-1.16-.95-2.09-2.12-2.09h-.16c-1.16 0-2.12.92-2.12 2.09v1.25m0 0v7.24m0-8.32v1.08m4.4 0v7.24m0-8.32v1.08m-4.41 1.91h4.41m6.08-5.25h-3.51v10.58h3.57m-.35-5.32h-3.05"/><path id="Trazado_11848_2_" d="M98.69 22.29c0 2.31-1.87 4.18-4.18 4.18s-4.18-1.87-4.18-4.18 1.87-4.18 4.18-4.18h0c2.3-.01 4.17 1.85 4.18 4.15v.03z" fill="none" stroke="#19a500" stroke-width="1.6" stroke-linecap="round" stroke-linejoin="round" stroke-miterlimit="10"/></g><defs><path id="SVGID_1_" d="M0 48.26h65V65H0z"/></defs><clipPath id="SVGID_2_"><use xlink:href="#SVGID_1_" overflow="visible"/></clipPath><g clip-path="url(#SVGID_2_)"><path class="st1" d="M0 48.26h65V65H0z"/><path class="st5" d="M45.38 61.32h-7.17c-.66 0-1.2-.54-1.2-1.2s.54-1.2 1.2-1.2h7.17c.66 0 1.2.54 1.2 1.2s-.54 1.2-1.2 1.2zm7.73 0h-.58c-.66 0-1.2-.54-1.2-1.2s.54-1.2 1.2-1.2h.58c.66 0 1.2.54 1.2 1.2s-.54 1.2-1.2 1.2zm-34.12 0h-7.1c-.66 0-1.2-.54-1.2-1.2s.54-1.2 1.2-1.2h7.1c.66 0 1.2.54 1.2 1.2s-.54 1.2-1.2 1.2z"/><path d="M31.05 61.32H18.53c-.66 0-1.2-.54-1.2-1.2s.54-1.2 1.2-1.2h12.52c.66 0 1.2.54 1.2 1.2s-.54 1.2-1.2 1.2zm4.42-6.11H11.89c-.66 0-1.2-.54-1.2-1.2s.54-1.2 1.2-1.2h23.58c.66 0 1.2.54 1.2 1.2s-.54 1.2-1.2 1.2z" fill="#96d200"/><path class="st5" d="M53.11 55.21H34.75c-.66 0-1.2-.54-1.2-1.2s.54-1.2 1.2-1.2h18.36c.66 0 1.2.54 1.2 1.2s-.54 1.2-1.2 1.2zm-40.79 0h-.43c-.66 0-1.2-.54-1.2-1.2s.54-1.2 1.2-1.2h.43c.66 0 1.2.54 1.2 1.2s-.54 1.2-1.2 1.2z"/></g></g></svg>