<svg xmlns="http://www.w3.org/2000/svg" width="65" height="286.606"><g data-name="Grupo 21496"><g data-name="Grupo 20702"><path data-name="Trazado 11287" d="M36 282.106V75.087" fill="none" stroke="#505d6c" stroke-dasharray="4"/><g data-name="Trazado 11288" fill="#fff"><path d="M40.5 282.106c0 1.93-1.57 3.5-3.5 3.5s-3.5-1.57-3.5-3.5 1.57-3.5 3.5-3.5c.738 0 1.412.236 2.186.764l.008.005.008.005c.625.41 1.298 1.438 1.298 2.726z"/><path d="M34.5 282.106c0 1.378 1.122 2.5 2.5 2.5s2.5-1.122 2.5-2.5c0-.972-.52-1.675-.847-1.89l-.03-.02c-.762-.52-1.248-.59-1.623-.59a2.503 2.503 0 00-2.5 2.5m-2 0a4.5 4.5 0 014.5-4.5c.925 0 1.784.279 2.75.938.955.626 1.75 2.001 1.75 3.562a4.5 4.5 0 01-9 0z" fill="#00af00"/></g><g data-name="Trazado 19920" fill="#fff"><path d="M40.5 111.994c0 1.93-1.57 3.5-3.5 3.5s-3.5-1.57-3.5-3.5 1.57-3.5 3.5-3.5c.738 0 1.412.236 2.186.764l.008.005.008.005c.625.41 1.298 1.438 1.298 2.726z"/><path d="M34.5 111.994c0 1.378 1.122 2.5 2.5 2.5s2.5-1.122 2.5-2.5c0-.972-.52-1.675-.847-1.89l-.03-.02c-.762-.52-1.248-.59-1.623-.59a2.503 2.503 0 00-2.5 2.5m-2 0a4.5 4.5 0 014.5-4.5c.925 0 1.784.279 2.75.938.955.626 1.75 2.001 1.75 3.562a4.5 4.5 0 01-9 0z" fill="#00af00"/></g></g><g data-name="Grupo 20858"><g data-name="Grupo 20866"><g data-name="Grupo 20861"><g data-name="Grupo 20860"><g data-name="Grupo 20859" fill="none" stroke="#95a6b1" stroke-linecap="round" stroke-linejoin="round" stroke-width="1.6"><path data-name="Trazado 20068" d="M27.458 21.091H12.123A2.22 2.22 0 009.9 23.312v7.283"/><path data-name="Trazado 20069" d="M26.269 21.1v-4.779a1.582 1.582 0 00-1.582-1.581h-9.1A1.581 1.581 0 0014 16.321v4.77"/><g data-name="Grupo 20858"><path data-name="Trazado 20070" d="M20.737 25.306a1.247 1.247 0 00-1.2 0l-13.383 7.35a1.246 1.246 0 00-.572 1.515L9.3 45.5"/><path data-name="Línea 4769" d="M20.135 25.142v21.051"/></g><circle data-name="Elipse 3117" cx="1.619" cy="1.619" r="1.619" transform="translate(12.03 32.452)"/><path data-name="Rectángulo 5862" d="M18.238 9.077h3.555a.957.957 0 01.954.957v4.706h0-5.4 0V9.968a.891.891 0 01.891-.891z"/></g></g></g><g data-name="Grupo 20864"><path data-name="Trazado 20071" d="M27.687 45.222V31.7a.906.906 0 01.911-.9h28.219a1.049 1.049 0 011.054 1.043v12.75" fill="none" stroke="#95a6b1" stroke-linecap="round" stroke-linejoin="round" stroke-width="1.6"/><path data-name="Línea 4770" fill="none" stroke="#95a6b1" stroke-linecap="round" stroke-linejoin="round" stroke-width="1.6" d="M44.054 34.036l13.817.003"/><path data-name="Línea 4771" fill="none" stroke="#95a6b1" stroke-linecap="round" stroke-linejoin="round" stroke-width="1.6" d="M49.733 34.028v12.08"/><path data-name="Línea 4772" fill="none" stroke="#95a6b1" stroke-linecap="round" stroke-linejoin="round" stroke-width="1.6" d="M49.736 37.149h4.666"/><path data-name="Línea 4773" fill="none" stroke="#95a6b1" stroke-linecap="round" stroke-linejoin="round" stroke-width="1.6" d="M49.73 40.01h4.666"/><path data-name="Línea 4774" fill="none" stroke="#95a6b1" stroke-linecap="round" stroke-linejoin="round" stroke-width="1.6" d="M49.73 42.987h4.666"/><path data-name="Línea 4775" fill="none" stroke="#95a6b1" stroke-linecap="round" stroke-linejoin="round" stroke-width="1.6" d="M54.417 34.028v11.194"/><path data-name="Línea 4776" fill="none" stroke="#95a6b1" stroke-linecap="round" stroke-linejoin="round" stroke-width="1.6" d="M44.037 30.833v14.079"/><path data-name="Trazado 20072" d="M31.738 28.351v2.439h22.6v-7.349a.918.918 0 00-.924-.913H37.268" fill="none" stroke="#95a6b1" stroke-linecap="round" stroke-linejoin="round" stroke-width="1.6"/><path data-name="Rectángulo 5863" d="M40.118 18.974h9.628a.754.754 0 01.754.754v2.8h0-11.254 0v-2.682a.872.872 0 01.872-.872z" fill="none" stroke="#95a6b1" stroke-linecap="round" stroke-linejoin="round" stroke-width="1.6"/><path data-name="Línea 4777" fill="none" stroke="#95a6b1" stroke-linecap="round" stroke-linejoin="round" stroke-width="1.6" d="M36.495 25.607h17.877"/><g data-name="Grupo 20862"><path data-name="Trazado 6132" d="M58.6 21.108c-1.105 2.094-4.025 2.748-4.025 2.748s-1.129-2.742-.024-4.836 4.025-2.748 4.025-2.748 1.129 2.742.024 4.836z" fill="none" stroke="#95a6b1" stroke-linecap="round" stroke-linejoin="round" stroke-width="1.6"/></g><g data-name="Grupo 20863"><path data-name="Trazado 6132" d="M58.229 27.807c-2.327-.53-3.7-3.16-3.7-3.16s2.4-1.771 4.728-1.24 3.7 3.16 3.7 3.16-2.4 1.77-4.728 1.24z" fill="none" stroke="#95a6b1" stroke-linecap="round" stroke-linejoin="round" stroke-width="1.6"/></g></g><path data-name="Trazado 20073" d="M34.8 21.362a2.937 2.937 0 11-3.892-1.45 2.924 2.924 0 013.892 1.45z" fill="none" stroke="#00a800" stroke-linecap="round" stroke-linejoin="round" stroke-width="1.6"/><g data-name="Grupo 20865"><path data-name="Trazado 20074" d="M62.249 46.822c-2.7 0-2.7-2.249-5.406-2.249s-2.7 2.249-5.4 2.249-2.7-2.249-5.406-2.249-2.7 2.249-5.408 2.249-2.7-2.249-5.409-2.249-2.7 2.249-5.408 2.249-2.7-2.249-5.41-2.249-2.7 2.249-5.407 2.249-2.7-2.249-5.411-2.249-2.708 2.249-5.415 2.249-2.708-2.249-5.415-2.249" fill="none" stroke="#95a6b1" stroke-linecap="round" stroke-linejoin="round" stroke-width="1.6"/></g><path data-name="Trazado 20075" d="M20.738 25.3l9.824 5.386c.254.158-.815-.469-.735-.39" fill="none" stroke="#95a6b1" stroke-linecap="round" stroke-linejoin="round" stroke-width="1.6"/><path data-name="Línea 4778" fill="none" stroke="#95a6b1" stroke-linecap="round" stroke-linejoin="round" stroke-width="1.6" d="M31.738 27.604v3.186"/></g><g data-name="Grupo 20870"><g data-name="Grupo 20869"><g data-name="Grupo 20868" fill="none"><path data-name="Rectángulo 5864" d="M0 48.259h65V65H0z"/><g data-name="Grupo 20867" stroke-linecap="round" stroke-linejoin="round" stroke-width="2.4"><path data-name="Línea 4779" stroke="#4c9f2e" d="M38.214 60.119h7.167"/><path data-name="Línea 4780" stroke="#4c9f2e" d="M52.528 60.119h.581"/><path data-name="Línea 4781" stroke="#4c9f2e" d="M11.891 60.119h7.101"/><path data-name="Línea 4782" stroke="#94d040" d="M18.529 60.119h12.517"/><path data-name="Línea 4783" stroke="#94d040" d="M11.891 54.012h23.582"/><path data-name="Línea 4784" stroke="#4c9f2e" d="M34.746 54.012h18.363"/><path data-name="Línea 4785" stroke="#4c9f2e" d="M11.891 54.012h.429"/></g></g></g><path data-name="Rectángulo 5865" fill="none" d="M0 0h65v65H0z"/><path data-name="Rectángulo 5866" fill="none" d="M0 .119h64.579v64.579H0z"/></g></g></g></svg>