<svg version="1.1" id="Capa_1" xmlns="http://www.w3.org/2000/svg" x="0" y="0" viewBox="0 0 65 65" xml:space="preserve"><style>.st0{fill:none}.st1{fill:#95a6b1}.st2{fill:#19a301}</style><path class="st0" d="M.1.1H65V65H.1z" id="Rectángulo_3799"/><g id="Grupo_11513"><path class="st1" d="M17 40.5c-4.3-.1-7.8-3.6-7.9-7.9v-.2c.1-3.6 2.6-6.8 6.1-7.7v-.9c0-.4.4-.8.8-.8.5.1.8.4.8.9v1.3c.1.2 0 .4-.1.6s-.3.3-.5.4c-3.1.4-5.5 3-5.5 6.2v.2c0 3.5 2.8 6.3 6.3 6.3h14.9c3.5 0 6.3-2.8 6.3-6.3v-.2c0-3.5-2.8-6.3-6.3-6.3h-1.2c-.2 0-.4-.1-.6-.3-.1-.2-.2-.4-.2-.6.1-.3.1-.6.1-.9-.1-2.8-2-5.2-4.7-5.9-.4-.2-.6-.6-.5-1s.5-.7.9-.6c3.4.9 5.8 4 5.9 7.5v.2h.3c4.4 0 7.9 3.5 7.9 7.9v.2c0 4.4-3.5 7.9-7.9 7.9H17z" id="Trazado_10514"/><path class="st1" d="M41 34.2h-.6l-1.5-.2c-.4-.1-.7-.5-.6-1 .1-.4.5-.7.9-.6l1.3.2c3.7.3 7-2.5 7.3-6.3v-.1c.2-3.8-2.7-7.1-6.5-7.3-1.8-.1-3.5.5-4.9 1.7s-2.2 2.9-2.3 4.7c0 .4-.4.8-.8.8h-.1c-.4-.1-.7-.5-.7-.9.2-2.2 1.2-4.3 2.9-5.8 3.5-3.1 8.8-2.7 11.9.7v.1c1.5 1.7 2.3 3.9 2.1 6.1-.3 4.4-4 7.9-8.4 7.9z" id="Trazado_10515"/><g id="Grupo_11509"><path class="st1" d="M40.6 16c-.4.1-.7-.2-.8-.6V11c-.1-.4.2-.7.6-.8h.2c.4 0 .8.4.8.8v4.2c0 .4-.4.8-.8.8z" id="Línea_2011"/><path class="st1" d="M40.6 40.8c-.4.1-.7-.2-.8-.6v-4.7c-.1-.4.2-.7.6-.8h.2c.4 0 .8.4.8.8V40c0 .4-.4.8-.8.8z" id="Línea_2012"/></g><g id="Grupo_11510"><path class="st1" d="M47.8 19c-.2 0-.4 0-.5-.2-.3-.3-.3-.8 0-1.1l3-3.1c.3-.3.8-.3 1.1 0s.3.9 0 1.2l-3 3c-.1.2-.4.2-.6.2z" id="Línea_2013"/></g><g id="Grupo_11511"><path class="st1" d="M33.3 19c-.2 0-.4 0-.5-.2l-3-3c-.3-.2-.4-.6-.2-1 .1-.1.1-.2.2-.2.3-.3.8-.3 1.1 0l3 3.1c.3.3.3.8 0 1.1-.2.2-.4.2-.6.2z" id="Línea_2014"/><path class="st1" d="M50.9 36.6c-.2 0-.4-.1-.6-.3l-3.2-3.2c-.2-.4-.1-.9.3-1.1.3-.2.6-.2.8 0l3.2 3.2c.3.3.3.8 0 1.1-.1.2-.3.3-.5.3z" id="Línea_2015"/></g><g id="Grupo_11512"><path class="st1" d="M55.1 26.3h-4.3c-.4 0-.8-.4-.8-.8s.4-.8.8-.8h4.3c.4-.1.7.2.8.6v.2c0 .4-.4.8-.8.8z" id="Línea_2016"/></g><path class="st1" d="M16.4 44.5l-.6-.2c-.3-.3-.3-.9 0-1.2l3.7-3.8c.3-.3.9-.3 1.2 0 .3.3.3.8 0 1.1l-3.8 3.9-.5.2z" id="Línea_2017"/><path class="st1" d="M20.4 48.6c-.3 0-.5 0-.6-.2-.3-.3-.3-.8 0-1.1l3.7-3.8c.2-.3.6-.4 1-.2l.1.1c.4.3.4.8.2 1.1 0 0 0 .1-.1.1l-3.8 3.8-.5.2z" id="Línea_2018"/><path class="st1" d="M26.6 47.2c-.2 0-.4-.1-.6-.3-.3-.3-.3-.8 0-1.1l3.7-3.8c.3-.3.9-.3 1.2 0 .3.3.3.8 0 1.1l-3.7 3.8c-.2.2-.4.3-.6.3z" id="Línea_2019"/></g><path class="st0" d="M0 48.2h65v16.7H0z"/><path class="st2" d="M45.4 61.3h-7.2c-.6 0-1.2-.6-1.2-1.2 0-.7.5-1.2 1.2-1.2h7.2c.7 0 1.2.5 1.2 1.2 0 .6-.6 1.2-1.2 1.2zm7.7 0h-.6c-.6 0-1.2-.6-1.2-1.2 0-.7.5-1.2 1.2-1.2h.6c.7 0 1.2.5 1.2 1.2s-.5 1.2-1.2 1.2zm-34.1 0h-7.1c-.7 0-1.2-.5-1.2-1.2s.5-1.2 1.2-1.2H19c.7 0 1.2.5 1.2 1.2s-.5 1.2-1.2 1.2z"/><path d="M31 61.3H18.5c-.6 0-1.2-.6-1.2-1.2 0-.7.5-1.2 1.2-1.2H31c.7 0 1.2.5 1.2 1.2s-.5 1.2-1.2 1.2zm4.5-6.1H11.9c-.7 0-1.2-.5-1.2-1.2s.5-1.2 1.2-1.2h23.6c.7 0 1.2.5 1.2 1.2 0 .6-.6 1.2-1.2 1.2z" fill="#82d400"/><path class="st2" d="M53.1 55.2H34.7c-.6 0-1.2-.6-1.2-1.2 0-.7.5-1.2 1.2-1.2h18.4c.7 0 1.2.5 1.2 1.2s-.5 1.2-1.2 1.2zm-40.8 0h-.4c-.7 0-1.2-.5-1.2-1.2s.5-1.2 1.2-1.2h.4c.7 0 1.2.5 1.2 1.2s-.5 1.2-1.2 1.2z"/><path class="st2" d="M19 22.8c-2.7 0-4.8-2.2-4.8-4.8s2.2-4.8 4.8-4.8 4.8 2.2 4.8 4.8-2.1 4.8-4.8 4.8zm0-8c-1.8 0-3.2 1.5-3.2 3.2s1.5 3.2 3.2 3.2 3.2-1.5 3.2-3.2-1.4-3.2-3.2-3.2z" id="Elipse_1897_1_"/></svg>