<svg version="1.1" id="Capa_1" xmlns="http://www.w3.org/2000/svg" x="0" y="0" viewBox="0 0 65 65" xml:space="preserve"><style>.st0{fill:none}.st1{fill:#95a6b1}.st2{fill:#19a301}</style><path class="st0" d="M0 0h65v65H0z" id="Rectángulo_3790"/><path class="st1" d="M55.1 50H39.7c-.4 0-.7-.3-.7-.7V36.4c.1-3.4 2.8-6.1 6.2-6.2h4.5c3.4.1 6.1 2.8 6.2 6.2v12.9c-.1.4-.4.7-.8.7zm-14.6-1.5h13.9V36.4c0-2.6-2.1-4.7-4.7-4.7h-4.5c-2.6 0-4.7 2.1-4.7 4.7v12.1z" id="Trazado_9429"/><path class="st1" d="M11.1 15.1c-.4-.1-.7-.4-.7-.8v-2.6c.1-1.9 1.6-3.4 3.5-3.4h4.2c.4 0 .7.3.8.7-.1.4-.4.7-.8.7h-4.2c-1.1.1-1.9.9-2 2v2.6c0 .4-.4.8-.8.8z" id="Trazado_9430"/><path class="st1" d="M20.8 50h-9.7c-.4 0-.7-.3-.7-.7V30.8c0-.4.3-.7.7-.8.4 0 .8.4.8.8v17.7h8.2V11.7c-.1-1.1-.9-1.9-2-2-.4 0-.7-.3-.7-.7 0-.4.3-.7.7-.7 1.9 0 3.4 1.5 3.5 3.4v37.6c0 .4-.3.7-.7.7h-.1z" id="Trazado_9431"/><path class="st1" d="M35.9 50c-.4 0-.7-.3-.8-.7V28.7c-.1-2.3 1.8-4.3 4.1-4.4h4.7c2.3.1 4.2 2 4.1 4.3V31c0 .4-.3.7-.7.7s-.7-.3-.7-.7v-2.3c.1-1.5-1-2.8-2.5-2.9h-4.9c-1.5.1-2.7 1.3-2.6 2.8v20.7c0 .4-.3.7-.7.7z" id="Trazado_9432"/><path class="st1" d="M39.7 44.2h-6c-2.3-.1-4.2-2.1-4.1-4.4v-5.2c.1-1.5-1.1-2.8-2.6-2.9h-6.2c-.4 0-.7-.3-.7-.7 0-.4.3-.7.7-.7H27c2.3.1 4.2 2 4.1 4.3v5.2c-.1 1.5 1 2.8 2.5 2.9h6.1c.4 0 .8.4.8.8-.1.4-.4.7-.8.7z" id="Trazado_9433"/><path class="st1" d="M24.9 50c-.4 0-.7-.3-.7-.7V18.9c.1-1.5-1.1-2.8-2.6-2.9h-.8c-.4 0-.7-.3-.7-.7 0-.4.3-.7.7-.7h.8c2.3.1 4.2 2 4.1 4.3v30.4c-.1.4-.4.7-.8.7z" id="Trazado_9434"/><path class="st1" d="M58.9 50H7c-.4 0-.7-.3-.8-.7 0-.4.4-.8.8-.8h51.9c.4.1.7.4.7.8s-.3.7-.7.7z" id="Trazado_9435"/><path class="st1" d="M47.7 45.4c-1 0-2-.6-2.6-1.4-1-1.4-.4-2.9.1-4.1l.3-.8 1.5-3.7c.2-.4.6-.5 1-.4.2.1.4.3.4.6l1.7 3.9c.4.8 1.2 2.3.6 3.8-.5 1.2-1.7 2-3 2.1zm0-7.8c-.3.7-.6 1.4-.8 2.1l-.3.7c-.5 1.3-.8 2-.3 2.8.3.4.9.7 1.4.7.8 0 1.4-.5 1.7-1.2.2-.9-.1-1.8-.6-2.6-.5-1-.8-1.8-1.1-2.5z" id="Trazado_9436"/><path class="st1" d="M35.7 17h-.4c-1.5.1-2.7-1.1-2.8-2.6V7.1c0-1.5 1.2-2.7 2.7-2.7h.5c1.5 0 2.7 1.2 2.7 2.7v.7c0 .4-.3.7-.7.7s-.7-.3-.7-.7v-.7c0-.7-.6-1.3-1.3-1.3h-.4c-.7 0-1.3.6-1.3 1.3v7.1c0 .7.6 1.3 1.3 1.3h.4c.7 0 1.3-.6 1.3-1.3 0-.4.3-.7.7-.7s.7.3.7.7c.1 1.5-1.1 2.7-2.6 2.8h-.1z" id="Trazado_9438"/><path class="st1" d="M42.1 17h-.4c-1.5 0-2.8-1.3-2.8-2.8V5.1c0-.4.3-.7.7-.7.4 0 .7.3.8.7v9.1c0 .7.6 1.3 1.3 1.3h.4c.7 0 1.3-.6 1.3-1.3V5.1c0-.4.3-.7.7-.7s.7.3.7.7v9.1c.1 1.5-1.1 2.7-2.6 2.8h-.1z" id="Trazado_9439"/><path class="st1" d="M46.4 17c-.4 0-.7-.3-.8-.7V7.1c.1-1.5 1.3-2.7 2.8-2.7h.4c1.5 0 2.7 1.2 2.7 2.7v1.5c0 1.5-1.3 2.8-2.8 2.8h-1.6v4.9c0 .4-.3.7-.7.7zm.7-7h1.6c.8 0 1.4-.6 1.4-1.4V7.2c0-.7-.6-1.3-1.3-1.3h-.4c-.7 0-1.3.6-1.3 1.3V10z" id="Trazado_9440"/><path class="st1" d="M48.5 19.5H29.8c-.4 0-.7-.3-.7-.7V8c0-3.5 2.8-6.3 6.3-6.3h18.7c.4 0 .7.3.7.7v10.8c0 3.5-2.8 6.3-6.3 6.3zm-18-1.5h18c2.7 0 4.8-2.1 4.9-4.8V3.1h-18c-2.7 0-4.8 2.1-4.9 4.8V18z" id="Trazado_9441"/><path class="st1" d="M41.6 25.8c-.4-.1-.7-.4-.7-.8v-6.2c0-.4.3-.7.7-.7s.7.3.7.7V25c0 .4-.3.7-.7.8z" id="Trazado_9442"/><path class="st0" d="M0 48.3h65V65H0z"/><path class="st2" d="M45.4 61.3h-7.2c-.7 0-1.2-.5-1.2-1.2 0-.6.6-1.2 1.2-1.2h7.2c.6 0 1.2.6 1.2 1.2 0 .7-.5 1.2-1.2 1.2zm7.7 0h-.6c-.7 0-1.2-.5-1.2-1.2 0-.6.6-1.2 1.2-1.2h.6c.7 0 1.2.5 1.2 1.2s-.5 1.2-1.2 1.2zm-34.1 0h-7.1c-.7 0-1.2-.5-1.2-1.2s.5-1.2 1.2-1.2H19c.7 0 1.2.5 1.2 1.2s-.5 1.2-1.2 1.2z"/><path d="M31 61.3H18.5c-.7 0-1.2-.5-1.2-1.2 0-.6.6-1.2 1.2-1.2H31c.7 0 1.2.5 1.2 1.2s-.5 1.2-1.2 1.2zm4.5-6.1H11.9c-.7 0-1.2-.5-1.2-1.2s.5-1.2 1.2-1.2h23.6c.7 0 1.2.5 1.2 1.2s-.5 1.2-1.2 1.2z" fill="#82d400"/><path class="st2" d="M53.1 55.2H34.7c-.7 0-1.2-.5-1.2-1.2s.5-1.2 1.2-1.2h18.4c.7 0 1.2.5 1.2 1.2s-.5 1.2-1.2 1.2zm-40.8 0h-.4c-.7 0-1.2-.5-1.2-1.2s.5-1.2 1.2-1.2h.4c.7 0 1.2.5 1.2 1.2s-.5 1.2-1.2 1.2z"/><path class="st2" d="M11.4 27.5c-2.7 0-4.8-2.2-4.8-4.8s2.2-4.8 4.8-4.8 4.8 2.2 4.8 4.8-2.1 4.8-4.8 4.8zm0-8c-1.8 0-3.2 1.5-3.2 3.2s1.5 3.2 3.2 3.2 3.2-1.5 3.2-3.2-1.4-3.2-3.2-3.2z" id="Elipse_1897_1_"/></svg>