<svg version="1.1" id="Capa_1" xmlns="http://www.w3.org/2000/svg" x="0" y="0" viewBox="0 0 65 65" xml:space="preserve"><style>.st0{fill:none}.st1{fill:#95a6b1}.st2{fill:#19a301}</style><path class="st0" d="M0-.2h65v65.4H0z" id="Rectángulo_3799"/><path class="st1" d="M39.6 22h-9.7c-.4.1-.7-.2-.8-.6v-.2c0-.4.4-.8.8-.8h8.9v-2.8c0-1.4-1.2-2.6-2.6-2.6h-7.1c-.9 0-1.8.4-2.3 1.2-.2.4-.7.6-1.1.4s-.6-.7-.4-1.1c0-.1.1-.1.1-.2.8-1.2 2.2-1.9 3.6-1.9h7.1c2.3 0 4.2 1.9 4.2 4.2v3.6c.1.4-.2.7-.6.8h-.1z" id="Trazado_10360"/><path class="st1" d="M48.4 21.6c-2.5 0-4.6-2.1-4.6-4.6 0-2.5 2.1-4.6 4.6-4.6 2.5 0 4.6 2.1 4.6 4.6s-2.1 4.6-4.6 4.6zm0-7.6c-1.7 0-3 1.3-3 3s1.3 3 3 3 3-1.3 3-3-1.3-3-3-3z" id="Elipse_1833"/><path class="st1" d="M33 12.8c-2.5 0-4.6-2.1-4.6-4.6 0-2.5 2.1-4.6 4.6-4.6s4.6 2.1 4.6 4.6-2.1 4.6-4.6 4.6zm0-7.6c-1.7 0-3 1.3-3 3s1.3 3 3 3 3-1.3 3-3-1.3-3-3-3z" id="Elipse_1833_1_"/><path class="st1" d="M55.3 30.6H41.2c-.4 0-.8-.4-.8-.8v-2.6c0-2.9 2.4-5.3 5.3-5.3h5.1c2.9 0 5.3 2.4 5.3 5.3v2.6c0 .4-.4.8-.8.8zM42 29h12.5v-1.8c-.1-2-1.7-3.6-3.7-3.7h-5.1c-2 .1-3.6 1.7-3.7 3.7V29z" id="Rectángulo_4049"/><g id="Grupo_11285"><path class="st1" d="M19.8 34.5c-2.9 0-5.7-1.1-7.7-3.2l-.6-.6c-.3-.3-.3-.8.1-1.1.3-.3.8-.3 1.1 0l.5.6c1.8 1.7 4.1 2.7 6.6 2.7 2.4 0 4.8-1 6.5-2.7 3.6-3.6 3.6-9.5 0-13.1-3.6-3.6-9.5-3.6-13.1 0-.2.4-.7.5-1.1.3-.4-.2-.5-.7-.3-1.1l.3-.3c4.2-4.2 11.1-4.2 15.3 0s4.2 11.1 0 15.3c-2 2.1-4.7 3.2-7.6 3.2z" id="Trazado_10361"/></g><path class="st1" d="M42.1 40h-.5L27 30.7c-.3-.2-.5-.6-.3-.9 0-.1.1-.1.1-.2.2-.4.7-.5 1.1-.3l13.9 8.8.9-1.5-13.9-8.8c-.4-.2-.5-.7-.3-1.1.2-.3.7-.5 1.1-.3l14.7 9.3c.4.3.4.7.2 1.1l-1.8 2.8c-.1.2-.2.3-.4.4h-.2z" id="Trazado_10363"/><path class="st1" d="M32.5 40.1c-3.5 0-6.9-1.6-9-4.5-.5-.7-.9-1.4-1.2-2.1-.1-.4 0-.9.4-1 .4-.2.9 0 1.1.3v.1c.3.6.6 1.2 1 1.7 1.5 2.1 3.7 3.4 6.2 3.8 2.5.4 5-.2 7-1.7.4-.2.8-.1 1.1.2.3.3.2.8-.1 1.1-1.9 1.4-4.2 2.1-6.5 2.1z" id="Trazado_10364"/><path class="st1" d="M41.1 35.4l-.4-.2c-.3-.2-.5-.6-.3-.9 0-.1.1-.1.1-.2.7-1.3 1.2-2.7 1.4-4.1 0-.4.3-.7.7-.7h.1c.4 0 .8.4.8.8-.2 1.7-.8 3.4-1.7 4.9-.1.2-.4.4-.7.4z" id="Trazado_10365"/><path class="st1" d="M41.6 25.2c-.3 0-.6-.1-.7-.4-.6-1-1.3-1.9-2.1-2.7-.3-.3-.4-.8 0-1.1.3-.3.8-.4 1.1-.1 1 .9 1.8 1.9 2.4 3.1.2.4 0 .9-.3 1.1h-.1l-.3.1z" id="Trazado_10366"/><path class="st1" d="M37.2 48.7h-9.5c-.2 0-.4-.1-.6-.2-.2-.2-.3-.4-.2-.7l.3-3.2-1.7-1-2.6 2.6c-.3.3-.8.3-1.1 0l-6.5-6.3c-.3-.2-.4-.6-.2-1 .1-.1.1-.2.2-.2l2.4-2.5-.9-2.4c-.1-.4.1-.9.5-1 .4-.2.9 0 1.1.3v.1l1 3c.1.3 0 .6-.2.8L17 39.3l5.3 5.2 2.5-2.4c.2-.2.6-.3.9-.1l2.8 1.4c.3.1.4.5.4.8l-.3 2.9h7.7v-3c-.1-.3.1-.6.5-.7l3.1-1.2c.3-.2.7-.1.9.2l1.9 2.2 5.2-5.4-2.3-2.1c-.3-.2-.3-.6-.2-.9l1.4-3c.1-.3.4-.5.7-.5l3.2.2v-3c0-.4.4-.8.8-.8s.8.4.8.8v3.8c0 .3 0 .5-.2.6s-.4.3-.6.2l-3.5-.2-.9 2 2.5 2.3c.3.2.4.6.2 1-.1.1-.1.2-.2.2l-6.3 6.5c-.2.2-.4.3-.6.2-.2 0-.4-.1-.6-.2L40 43.8l-2.1.8.2 3.3c0 .2-.1.4-.2.6l-.7.2z" id="Trazado_10367"/><path class="st0" d="M0 48.3h65V65H0z"/><path class="st2" d="M45.4 61.3h-7.2c-.7 0-1.2-.5-1.2-1.2 0-.6.6-1.2 1.2-1.2h7.2c.6 0 1.2.6 1.2 1.2 0 .7-.5 1.2-1.2 1.2zm7.7 0h-.6c-.7 0-1.2-.5-1.2-1.2 0-.6.6-1.2 1.2-1.2h.6c.7 0 1.2.5 1.2 1.2s-.5 1.2-1.2 1.2zm-34.1 0h-7.1c-.7 0-1.2-.5-1.2-1.2s.5-1.2 1.2-1.2H19c.7 0 1.2.5 1.2 1.2s-.5 1.2-1.2 1.2z"/><path d="M31 61.3H18.5c-.7 0-1.2-.5-1.2-1.2 0-.6.6-1.2 1.2-1.2H31c.7 0 1.2.5 1.2 1.2s-.5 1.2-1.2 1.2zm4.5-6.1H11.9c-.7 0-1.2-.5-1.2-1.2s.5-1.2 1.2-1.2h23.6c.7 0 1.2.5 1.2 1.2s-.5 1.2-1.2 1.2z" fill="#82d400"/><path class="st2" d="M53.1 55.2H34.7c-.7 0-1.2-.5-1.2-1.2s.5-1.2 1.2-1.2h18.4c.7 0 1.2.5 1.2 1.2s-.5 1.2-1.2 1.2zm-40.8 0h-.4c-.7 0-1.2-.5-1.2-1.2s.5-1.2 1.2-1.2h.4c.7 0 1.2.5 1.2 1.2s-.5 1.2-1.2 1.2z"/><path class="st2" d="M12.1 28.3c-2.7 0-4.8-2.2-4.8-4.8s2.2-4.8 4.8-4.8 4.8 2.2 4.8 4.8-2.1 4.8-4.8 4.8zm0-8c-1.8 0-3.2 1.5-3.2 3.2s1.5 3.2 3.2 3.2 3.2-1.5 3.2-3.2-1.4-3.2-3.2-3.2z" id="Elipse_1897_1_"/></svg>