<svg version="1.1" id="Capa_1" xmlns="http://www.w3.org/2000/svg" x="0" y="0" viewBox="0 0 65 65" xml:space="preserve"><style>.st0{fill:none}.st1{fill:#95a6b1}.st2{fill:#19a301}</style><path class="st0" d="M0 0h65v65H0z" id="Rectángulo_3818"/><path class="st1" d="M27.4 49.8c-.4 0-.7-.3-.7-.7V16.6c0-.4.3-.7.7-.7s.7.3.7.7v32.5c0 .4-.3.7-.7.7z" id="Trazado_9832"/><path class="st1" d="M27.4 24.6c-.2 0-.4 0-.5-.2l-4.8-4.8c-.2-.3-.2-.7.1-1 .3-.2.6-.2.9 0l4.8 4.8c.3.3.3.7 0 1l-.5.2z" id="Trazado_9833"/><path class="st1" d="M27.4 34.8l-.5-.2-4.8-4.8c-.3-.3-.3-.7 0-1s.7-.3 1 0l4.8 4.8c.3.3.3.7 0 1l-.5.2z" id="Trazado_9834"/><path class="st1" d="M27.4 24.6c-.4 0-.7-.3-.7-.7 0-.2 0-.4.2-.5l4.8-4.8c.3-.3.7-.3 1 0 .3.3.3.8 0 1.1l-4.8 4.7c-.1.2-.3.2-.5.2z" id="Trazado_9835"/><path class="st1" d="M27.4 34.8c-.4 0-.7-.3-.7-.7 0-.2 0-.4.2-.5l4.8-4.8c.3-.2.7-.2 1 .1.2.3.2.6 0 .9l-4.8 4.8-.5.2z" id="Trazado_9836"/><path class="st1" d="M51.2 49.8H16c-.4 0-.7-.3-.7-.7s.3-.7.7-.7h35.2c.4 0 .7.3.7.7s-.3.7-.7.7z" id="Trazado_9837"/><path class="st1" d="M49 40.5H33.1c-.4 0-.7-.3-.7-.7 0-.4.3-.7.7-.8H49c3 0 5.4-2.4 5.4-5.4 0-2.5-1.7-4.6-4.1-5.2-.4-.1-.6-.5-.5-.8v-.1c0-.1.1-.2.1-.3 1.6-1.6 1.6-4.3 0-5.9l-.2-.2c-.5-.4-1.1-.8-1.7-1-.3-.1-.5-.5-.5-.8.1-.5.2-.9.2-1.4-.1-3.7-3-6.6-6.7-6.6-1.4 0-2.9.4-4 1.3-.3.3-.8.2-1.1-.1-.2-.3-.1-.8.2-1 3.5-2.7 8.5-2.1 11.2 1.4 0 0 0 .1.1.1 1.1 1.4 1.7 3.1 1.7 4.9 0 .4 0 .7-.1 1.1 3 1.2 4.3 4.6 3.1 7.6-.2.2-.3.4-.4.7 3.5 1.5 5.1 5.5 3.6 9-1.1 2.5-3.5 4.2-6.3 4.2z" id="Trazado_9838"/><path class="st1" d="M41.1 49.8c-.4 0-.7-.3-.8-.7v-9.4c.1-.4.4-.7.8-.7s.7.3.7.7v9.4c0 .4-.3.7-.7.7z" id="Trazado_9839"/><path class="st1" d="M42.3 26.7c-.4 0-.7-.3-.7-.7 0-.2 0-.4.2-.5l2.8-2.8c.3-.2.7-.2 1 .1.2.3.2.6 0 .9l-2.8 2.8c-.1.2-.3.2-.5.2z" id="Trazado_9840"/><path class="st0" d="M0 48.3h65V65H0z"/><path class="st2" d="M45.4 61.3h-7.2c-.7 0-1.2-.5-1.2-1.2 0-.6.6-1.2 1.2-1.2h7.2c.6 0 1.2.6 1.2 1.2 0 .7-.5 1.2-1.2 1.2zm7.7 0h-.6c-.7 0-1.2-.5-1.2-1.2 0-.6.6-1.2 1.2-1.2h.6c.7 0 1.2.5 1.2 1.2s-.5 1.2-1.2 1.2zm-34.1 0h-7.1c-.7 0-1.2-.5-1.2-1.2s.5-1.2 1.2-1.2H19c.7 0 1.2.5 1.2 1.2s-.5 1.2-1.2 1.2z"/><path d="M31 61.3H18.5c-.7 0-1.2-.5-1.2-1.2 0-.6.6-1.2 1.2-1.2H31c.7 0 1.2.5 1.2 1.2s-.5 1.2-1.2 1.2zm4.5-6.1H11.9c-.7 0-1.2-.5-1.2-1.2s.5-1.2 1.2-1.2h23.6c.7 0 1.2.5 1.2 1.2s-.5 1.2-1.2 1.2z" fill="#82d400"/><path class="st2" d="M53.1 55.2H34.7c-.7 0-1.2-.5-1.2-1.2s.5-1.2 1.2-1.2h18.4c.7 0 1.2.5 1.2 1.2s-.5 1.2-1.2 1.2zm-40.8 0h-.4c-.7 0-1.2-.5-1.2-1.2s.5-1.2 1.2-1.2h.4c.7 0 1.2.5 1.2 1.2s-.5 1.2-1.2 1.2z"/><path id="Trazado_9831_1_" class="st1" d="M37.3 40.4H17.4c-4.6 0-8.3-3.8-8.3-8.4 0-2.3.9-4.5 2.6-6 .3-.3.7-.3 1 0 .3.3.3.7 0 1-2.8 2.6-2.9 7-.3 9.8 1.3 1.4 3.1 2.2 5 2.2h19.9c3.8.1 7-2.9 7.1-6.7.1-3.3-2.2-6.3-5.5-6.9-.4-.1-.6-.5-.5-.9 0-.1.1-.2.2-.3 2.1-2.3 1.9-5.9-.4-8-.6-.5-1.3-1-2.1-1.2-.4-.1-.6-.5-.5-.8.1-.6.2-1.2.2-1.8.1-4.7-3.7-8.5-8.4-8.6s-8.5 3.7-8.6 8.4v.2c0 .4-.3.7-.7.7-.4 0-.7-.3-.7-.7 0-5.5 4.5-9.9 9.9-9.9 5.5 0 10 4.5 10 9.9 0 .5 0 1-.1 1.4 3.6 1.5 5.3 5.6 3.8 9.2l-.6 1.2c4.3 1.7 6.4 6.5 4.8 10.8-1.3 3.3-4.4 5.4-7.9 5.4z"/><path id="Trazado_9830_1_" d="M15.9 25c-3 0-5.4-2.4-5.4-5.4s2.4-5.4 5.4-5.4 5.4 2.4 5.4 5.4c0 1.4-.5 2.7-1.5 3.7S17.4 25 15.9 25zm0-9.5c-2.2 0-4 1.8-4 4s1.8 4 4 4 4-1.8 4-4-1.8-4-4-4z" fill="#19a500"/></svg>