<svg id="Capa_1" data-name="Capa 1" xmlns="http://www.w3.org/2000/svg" viewBox="0 0 65 65"><defs><style>.cls-1{fill:none}.cls-2{fill:#95a6b1}.cls-4{fill:#19a301}</style></defs><path class="cls-1" d="M0 0h65v65H0z" id="Rectángulo_3792" data-name="Rectángulo 3792"/><path class="cls-2" d="M41.3 16.8a2.9 2.9 0 01-3-3V7.2a2.9 2.9 0 012.9-3 2.9 2.9 0 013 2.9v6.6a2.9 2.9 0 01-2.9 3.1zm0-11.1a1.4 1.4 0 00-1.5 1.5v6.6a1.5 1.5 0 001.3 1.7 1.6 1.6 0 001.7-1.4V7.2a1.5 1.5 0 00-1.5-1.5z" id="Trazado_9471" data-name="Trazado 9471"/><path class="cls-2" d="M45.5 16.8a.7.7 0 01-.7-.7V7.2a2.9 2.9 0 013-2.9 3 3 0 012.9 2.9v1.1a3 3 0 01-3 2.9h-1.5v4.9a.7.7 0 01-.7.7zm.7-7h1.5a1.5 1.5 0 001.5-1.5V7.2a1.5 1.5 0 00-1.4-1.6 1.4 1.4 0 00-1.6 1.3v2.9z" id="Trazado_9472" data-name="Trazado 9472"/><path class="cls-2" d="M32.9 16.8a.8.8 0 01-.8-.7V7.2a2.9 2.9 0 013.1-2.8A3 3 0 0138 7.2v1.1a2.9 2.9 0 01-2.9 2.9h-1.5v4.9a.7.7 0 01-.7.7zm.7-7h1.5a1.5 1.5 0 001.5-1.5V7.2a1.5 1.5 0 00-1.7-1.4 1.6 1.6 0 00-1.3 1.4z" id="Trazado_9473" data-name="Trazado 9473"/><path class="cls-2" d="M49.9 16.8l-.6-.3-4.4-5.5c-.2-.4-.2-.8.2-1a.6.6 0 01.9.1l4.5 5.5a.9.9 0 01-.2 1.1z" id="Trazado_9474" data-name="Trazado 9474"/><path class="cls-2" d="M54.6 49.8H39.3a.8.8 0 01-.7-.8V36.3a6.2 6.2 0 016.2-6.2h4.4a6.2 6.2 0 016.2 6.2V49a.8.8 0 01-.7.8zm-14.5-1.5h13.8v-12a4.7 4.7 0 00-4.7-4.7h-4.4a4.7 4.7 0 00-4.7 4.7z" id="Trazado_9475" data-name="Trazado 9475"/><path class="cls-2" d="M10.9 15a.8.8 0 01-.8-.7v-2.6a3.5 3.5 0 013.5-3.4h4.2a.7.7 0 010 1.4h-4.2a2 2 0 00-2 2v2.6a.7.7 0 01-.7.7z" id="Trazado_9476" data-name="Trazado 9476"/><path class="cls-2" d="M20.5 49.8h-9.6a.9.9 0 01-.8-.8V30.6a.8.8 0 01.8-.7.7.7 0 01.7.7v17.7h8.2V11.7a2 2 0 00-2-2 .7.7 0 010-1.4 3.5 3.5 0 013.5 3.4V49a.9.9 0 01-.8.8z" id="Trazado_9477" data-name="Trazado 9477"/><path class="cls-2" d="M35.5 49.8a.8.8 0 01-.7-.8V28.5a4.1 4.1 0 014-4.3h4.7a4.2 4.2 0 014.1 4.3v2.3a.8.8 0 01-.7.8.9.9 0 01-.8-.8v-2.3a2.6 2.6 0 00-2.6-2.8h-4.7a2.6 2.6 0 00-2.6 2.8V49a.8.8 0 01-.7.8z" id="Trazado_9478" data-name="Trazado 9478"/><path class="cls-2" d="M39.3 44h-6a4.1 4.1 0 01-4-4.3v-5.2a2.7 2.7 0 00-2.7-2.9h-6.1a.8.8 0 01-.7-.8.7.7 0 01.7-.7h6.1a4.2 4.2 0 014.1 4.4v5.2a2.8 2.8 0 002.6 2.9h6a.7.7 0 110 1.4z" id="Trazado_9479" data-name="Trazado 9479"/><path class="cls-2" d="M24.6 49.8a.8.8 0 01-.7-.8V18.8a2.9 2.9 0 00-2.7-2.9h-.7a.7.7 0 110-1.4h.7a4.2 4.2 0 014.1 4.3V49a.8.8 0 01-.7.8z" id="Trazado_9480" data-name="Trazado 9480"/><path class="cls-2" d="M58.4 49.8H6.7A.8.8 0 016 49a.7.7 0 01.7-.7h51.7a.7.7 0 01.7.7.8.8 0 01-.7.8z" id="Trazado_9481" data-name="Trazado 9481"/><path class="cls-2" d="M47.3 45.2a3.4 3.4 0 01-2.6-1.4c-1-1.4-.4-2.9.1-4.1l.3-.7 1.5-3.8a.8.8 0 01.9-.4c.3.1.4.3.5.6s1.2 2.8 1.7 3.9a4.9 4.9 0 01.6 3.7 3.5 3.5 0 01-3 2.2zm0-7.7l-.9 2.1-.3.7c-.5 1.2-.7 2-.2 2.7a1.7 1.7 0 001.4.7 1.7 1.7 0 001.6-1.2 3.4 3.4 0 00-.5-2.6 21.5 21.5 0 01-1.1-2.4z" id="Trazado_9482" data-name="Trazado 9482"/><path class="cls-2" d="M48.1 19.4H29.4a.7.7 0 01-.7-.7V7.9A6.3 6.3 0 0135 1.7h18.6a.7.7 0 01.7.7v10.7a6.3 6.3 0 01-6.2 6.3zm-18-1.4h18a5 5 0 004.8-4.9v-10H35a4.9 4.9 0 00-4.9 4.8z" id="Trazado_9484" data-name="Trazado 9484"/><path class="cls-2" d="M41.2 25.6a.8.8 0 01-.8-.7v-6.2a.8.8 0 01.8-.7.7.7 0 01.7.7v6.2c0 .4-.3.8-.7.7z" id="Trazado_9485" data-name="Trazado 9485"/><path d="M11 28a5.3 5.3 0 010-10.6 5.3 5.3 0 015.3 5.3 5.4 5.4 0 01-1.4 3.6A5.6 5.6 0 0111 28zm0-9.1a3.7 3.7 0 00-3.6 3.9 3.9 3.9 0 003.6 3.7 3.8 3.8 0 100-7.6z" fill="#19a500" id="Trazado_9437" data-name="Trazado 9437"/><path class="cls-1" d="M0 48.3h65v16.74H0z"/><path class="cls-4" d="M45.4 61.3h-7.2a1.2 1.2 0 01-1.2-1.2 1.3 1.3 0 011.2-1.2h7.2a1.3 1.3 0 011.2 1.2 1.2 1.2 0 01-1.2 1.2zm7.7 0h-.6a1.2 1.2 0 01-1.2-1.2 1.3 1.3 0 011.2-1.2h.6a1.2 1.2 0 011.2 1.2 1.2 1.2 0 01-1.2 1.2zm-34.1 0h-7.1a1.2 1.2 0 01-1.2-1.2 1.2 1.2 0 011.2-1.2H19a1.2 1.2 0 011.2 1.2 1.2 1.2 0 01-1.2 1.2z"/><path d="M31 61.3H18.5a1.2 1.2 0 01-1.2-1.2 1.3 1.3 0 011.2-1.2H31a1.2 1.2 0 011.2 1.2 1.2 1.2 0 01-1.2 1.2zm4.5-6.1H11.9a1.2 1.2 0 110-2.4h23.6a1.2 1.2 0 010 2.4z" fill="#82d400"/><path class="cls-4" d="M53.1 55.2H34.7a1.2 1.2 0 010-2.4h18.4a1.2 1.2 0 010 2.4zm-40.8 0h-.4a1.2 1.2 0 110-2.4h.4a1.2 1.2 0 010 2.4z"/></svg>