<svg version="1.1" id="Capa_1" xmlns="http://www.w3.org/2000/svg" x="0" y="0" viewBox="0 0 65 65" xml:space="preserve"><style>.st0{fill:none}.st1{fill:#19a301}</style><path class="st0" d="M0 0h65v65H0z" id="Rectángulo_3794"/><path class="st0" d="M0 48.3h65V65H0z"/><path class="st1" d="M45.4 61.3h-7.2c-.7 0-1.2-.5-1.2-1.2 0-.6.6-1.2 1.2-1.2h7.2c.6 0 1.2.6 1.2 1.2 0 .7-.5 1.2-1.2 1.2zm7.7 0h-.6c-.7 0-1.2-.5-1.2-1.2 0-.6.6-1.2 1.2-1.2h.6c.7 0 1.2.5 1.2 1.2s-.5 1.2-1.2 1.2zm-34.1 0h-7.1c-.7 0-1.2-.5-1.2-1.2s.5-1.2 1.2-1.2H19c.7 0 1.2.5 1.2 1.2s-.5 1.2-1.2 1.2z"/><path d="M31 61.3H18.5c-.7 0-1.2-.5-1.2-1.2 0-.6.6-1.2 1.2-1.2H31c.7 0 1.2.5 1.2 1.2s-.5 1.2-1.2 1.2zm4.5-6.1H11.9c-.7 0-1.2-.5-1.2-1.2s.5-1.2 1.2-1.2h23.6c.7 0 1.2.5 1.2 1.2s-.5 1.2-1.2 1.2z" fill="#82d400"/><path class="st1" d="M53.1 55.2H34.7c-.7 0-1.2-.5-1.2-1.2s.5-1.2 1.2-1.2h18.4c.7 0 1.2.5 1.2 1.2s-.5 1.2-1.2 1.2zm-40.8 0h-.4c-.7 0-1.2-.5-1.2-1.2s.5-1.2 1.2-1.2h.4c.7 0 1.2.5 1.2 1.2s-.5 1.2-1.2 1.2z"/><path d="M34.6 49.7h-.3l-4-1.3c-.3-.1-.6-.3-.6-.7v-4.5l-3.3-2.3c-.2-.1-.3-.4-.4-.6l-.4-6.6c-.1 0-.1-.1 0-.1l.2-2.3c0-.2.2-.4.4-.6l2.1-1.4.4-2.5-1.3-.8c-.2-.1-.4-.4-.4-.7v-3.1L19.2 16c-.3-.3-.4-.8-.1-1.2.3-.3.8-.4 1.1-.1l8.2 6.5c.2.2.3.4.3.7v3l1.4.8c.3.2.4.6.4.9l-.6 3.3c0 .2-.1.4-.3.5l-2.1 1.4-.2 1.9.4 6.1 3.3 2.3c.2.2.3.4.3.7V47l3.1 1 1.9-1.6c.2-.1.5-.2.7-.1l6.6 1.5 6.3-3.1-1-1.1-2.2 1c-.2.1-.5.1-.7 0l-1.6-.8c-.2-.1-.4-.3-.5-.5 0-.2 0-.5.1-.6l.7-1.1-5.6-3.1c-.1 0-.2-.1-.3-.3l-2.7-4.7c-.1-.1-.1-.4-.1-.6l.7-3-4.4-5.1c-.1-.2-.2-.4-.1-.6l.2-1.6c0-.4.3-.7.7-.7l6.5-.2-.2-1.2h-.6c-.4 0-.7-.2-.8-.6l-.5-2.2-3.3-1.9h-3.7c-.2 0-.5-.1-.6-.3l-2.7-3.4c-.1-.2-.2-.3-.2-.5V8.2l-1.6-2.4c-.2-.4-.1-.9.3-1.1.3-.3.7-.2 1 0 0 0 .1.1.1.2l1.7 2.7c.1.1.1.3.1.4v3.4l2.3 2.9h3.9l3.9 2.2c.2.1.3.4.3.6l.4 1.8h.6c.4 0 .7.3.8.7l.6 2.7c0 .2-.1.4-.2.6-.1.2-.4.3-.6.3l-6.7.3v.5l4.4 5.2c.2.2.2.4.2.7l-.9 3.1 2.5 4.2 6.2 3.4c.2.1.3.3.4.5 0 .2 0 .5-.1.7l-.7.9.5.3 2.3-1.1c.3-.1.7 0 .9.2l2.2 2.3c.2.2.3.4.2.7 0 .2-.2.4-.4.5L44 49.4c-.1 0-.3.1-.5 0L37 47.9l-1.9 1.6-.5.2z" fill="#95a6b1"/><path id="Trazado_9830_1_" d="M18.4 13.4c-3 0-5.4-2.4-5.4-5.4s2.4-5.4 5.4-5.4S23.9 5 23.9 8c0 1.4-.5 2.7-1.5 3.7-1 1.1-2.5 1.7-4 1.7zm0-9.4c-2.2 0-4 1.8-4 4s1.8 4 4 4 4-1.8 4-4-1.8-4-4-4z" fill="#19a500"/></svg>