<svg version="1.1" id="Capa_1" xmlns="http://www.w3.org/2000/svg" x="0" y="0" viewBox="0 0 65 65" xml:space="preserve"><style>.st0{fill:none}.st1{fill:#95a6b1}.st2{fill:#19a301}</style><path class="st0" d="M0 0h65v65H0z" id="Rectángulo_3791"/><path class="st1" d="M35.2 16.9h-.4c-1.5 0-2.7-1.2-2.7-2.7V7.1c0-1.5 1.2-2.7 2.7-2.7h.4c1.5 0 2.7 1.2 2.8 2.7v.6c-.1.4-.4.7-.8.7s-.7-.3-.7-.7v-.6c0-.7-.6-1.3-1.3-1.3h-.4c-.7 0-1.3.6-1.3 1.3v7.1c0 .7.6 1.3 1.3 1.3h.4c.7 0 1.3-.6 1.3-1.3 0-.4.3-.7.7-.7.4 0 .7.3.8.7-.1 1.5-1.3 2.7-2.8 2.7z" id="Trazado_9450"/><path class="st1" d="M41.4 16.9H41c-1.5 0-2.7-1.2-2.7-2.7V5.1c0-.4.3-.7.7-.7s.7.3.7.7v9.1c0 .7.6 1.3 1.3 1.3h.4c.7 0 1.3-.6 1.3-1.3V5.1c0-.4.3-.7.7-.7s.7.3.7.7v9.1c0 1.5-1.2 2.7-2.7 2.7z" id="Trazado_9451"/><path class="st1" d="M47.5 16.9h-.4c-1.5 0-2.7-1.2-2.7-2.7 0-.4.3-.7.7-.7s.7.3.7.7c0 .7.6 1.3 1.3 1.3h.4c.7 0 1.3-.6 1.3-1.3v-1.5c0-.7-.6-1.3-1.3-1.3h-.4c-1.5 0-2.7-1.2-2.7-2.7V7.1c0-1.5 1.2-2.7 2.7-2.7h.4c1.5 0 2.7 1.2 2.8 2.7v.3c0 .4-.3.7-.7.8-.4 0-.8-.4-.8-.8v-.3c0-.7-.6-1.3-1.3-1.3h-.4c-.7 0-1.3.6-1.3 1.3v1.6c0 .7.6 1.3 1.3 1.3h.4c1.5-.1 2.7 1.1 2.8 2.6v1.6c-.1 1.5-1.3 2.7-2.8 2.7z" id="Trazado_9452"/><path class="st1" d="M54.6 49.8H39.3c-.4-.1-.7-.4-.7-.8V36.3c0-3.4 2.8-6.2 6.2-6.2h4.4c3.4 0 6.2 2.8 6.2 6.2V49c0 .4-.3.7-.7.8h-.1zm-14.5-1.5h13.8v-12c0-2.6-2.1-4.7-4.7-4.7h-4.4c-2.6 0-4.7 2.1-4.7 4.7v12z" id="Trazado_9453"/><path class="st1" d="M10.9 15c-.4 0-.7-.3-.8-.7v-2.6c.1-1.9 1.6-3.4 3.5-3.4h4.2c.4 0 .7.3.7.7 0 .4-.3.7-.7.7h-4.2c-1.1 0-2 .9-2 2v2.6c0 .4-.3.7-.7.7z" id="Trazado_9454"/><path class="st1" d="M20.5 49.8h-9.6c-.4 0-.8-.4-.8-.8V30.6c.1-.4.4-.7.8-.7s.7.3.7.7v17.7h8.2V11.7c0-1.1-.9-2-2-2-.4 0-.7-.3-.7-.7 0-.4.3-.7.7-.7 1.9 0 3.4 1.5 3.5 3.4V49c0 .4-.4.8-.8.8z" id="Trazado_9455"/><path class="st1" d="M35.5 49.8c-.4-.1-.7-.4-.7-.8V28.5c-.1-2.3 1.6-4.2 3.9-4.3h4.8c2.3.1 4.2 2 4.1 4.3v2.3c0 .4-.3.7-.7.8-.4 0-.8-.4-.8-.8v-2.3c.1-1.4-1-2.7-2.4-2.8h-4.9c-1.4 0-2.6 1.2-2.6 2.6V49c0 .4-.3.7-.7.8z" id="Trazado_9456"/><path class="st1" d="M39.3 44h-6c-2.3-.1-4.1-1.9-4-4.2v-5.3c.1-1.5-1.2-2.8-2.7-2.9h-6.1c-.4-.1-.7-.4-.7-.8s.3-.7.7-.7h6.1c2.3.1 4.2 2.1 4.1 4.4v5.2c-.1 1.5 1.1 2.8 2.6 2.9h6c.4 0 .7.3.7.7s-.3.7-.7.7z" id="Trazado_9457"/><path class="st1" d="M24.6 49.8c-.4-.1-.7-.4-.7-.8V18.8c0-1.5-1.2-2.8-2.7-2.9h-.7c-.4 0-.7-.3-.7-.7s.3-.7.7-.7h.7c2.3.1 4.2 2 4.1 4.3V49c0 .4-.3.7-.7.8z" id="Trazado_9458"/><path class="st1" d="M58.4 49.8H6.7c-.4-.1-.7-.4-.7-.8s.3-.7.7-.7h51.7c.4 0 .7.3.7.7 0 .4-.3.7-.7.8z" id="Trazado_9459"/><path class="st1" d="M47.3 45.2c-1 0-2-.6-2.6-1.4-1-1.4-.4-2.9.1-4.1l.3-.8 1.5-3.6c.1-.3.4-.5.7-.5.1 0 .1 0 .2.1.2.1.4.3.5.5.5 1.3 1 2.6 1.7 3.9.4.9 1.1 2.4.5 3.8-.5 1.2-1.6 2-2.9 2.1zm0-7.7l-.8 1.9-.4.9c-.5 1.2-.7 2-.2 2.7.3.4.8.7 1.4.7.7 0 1.4-.5 1.6-1.2.2-.9 0-1.8-.5-2.6-.4-.8-.8-1.6-1.1-2.4z" id="Trazado_9460"/><path class="st1" d="M48.1 19.4H29.4c-.4 0-.7-.3-.7-.7V7.9c.1-3.4 2.9-6.2 6.3-6.2h18.6c.4 0 .7.3.7.7v10.7c0 3.4-2.8 6.2-6.2 6.3zm-18-1.4h18c2.7-.1 4.8-2.2 4.8-4.9v-10H35c-2.7 0-4.8 2.1-4.9 4.8V18z" id="Trazado_9462"/><path class="st1" d="M41.2 25.7c-.4 0-.8-.4-.8-.8v-6.2c.1-.4.4-.7.8-.7s.7.3.7.7v6.2c0 .4-.3.7-.7.8z" id="Trazado_9463"/><path class="st0" d="M0 48.3h65V65H0z"/><path class="st2" d="M45.4 61.3h-7.2c-.7 0-1.2-.5-1.2-1.2 0-.6.6-1.2 1.2-1.2h7.2c.6 0 1.2.6 1.2 1.2 0 .7-.5 1.2-1.2 1.2zm7.7 0h-.6c-.7 0-1.2-.5-1.2-1.2 0-.6.6-1.2 1.2-1.2h.6c.7 0 1.2.5 1.2 1.2s-.5 1.2-1.2 1.2zm-34.1 0h-7.1c-.7 0-1.2-.5-1.2-1.2s.5-1.2 1.2-1.2H19c.7 0 1.2.5 1.2 1.2s-.5 1.2-1.2 1.2z"/><path d="M31 61.3H18.5c-.7 0-1.2-.5-1.2-1.2 0-.6.6-1.2 1.2-1.2H31c.7 0 1.2.5 1.2 1.2s-.5 1.2-1.2 1.2zm4.5-6.1H11.9c-.7 0-1.2-.5-1.2-1.2s.5-1.2 1.2-1.2h23.6c.7 0 1.2.5 1.2 1.2s-.5 1.2-1.2 1.2z" fill="#82d400"/><path class="st2" d="M53.1 55.2H34.7c-.7 0-1.2-.5-1.2-1.2s.5-1.2 1.2-1.2h18.4c.7 0 1.2.5 1.2 1.2s-.5 1.2-1.2 1.2zm-40.8 0h-.4c-.7 0-1.2-.5-1.2-1.2s.5-1.2 1.2-1.2h.4c.7 0 1.2.5 1.2 1.2s-.5 1.2-1.2 1.2z"/><path class="st2" d="M11 27.5c-2.7 0-4.8-2.2-4.8-4.8s2.2-4.8 4.8-4.8 4.8 2.2 4.8 4.8-2.1 4.8-4.8 4.8zm0-8c-1.8 0-3.2 1.5-3.2 3.2s1.5 3.2 3.2 3.2 3.2-1.5 3.2-3.2-1.4-3.2-3.2-3.2z" id="Elipse_1897_1_"/></svg>