<svg version="1.1" id="Capa_1" xmlns="http://www.w3.org/2000/svg" x="0" y="0" viewBox="0 0 65 65" xml:space="preserve"><style>.st0{fill:#95a6b1}.st1{fill:none}.st2{fill:#19a301}</style><path class="st0" d="M18.9 49.2h-7.5c-.5 0-.9-.4-.9-.9V25c0-.5.4-.9.9-.9s.9.4.9.9v22.4H18V25.1c0-.5.4-.9.9-.9s.9.4.9.9v23.2c0 .5-.4.9-.9.9z" id="Trazado_10737"/><path class="st0" d="M52.3 35.4h-4.9c-2.7 0-4.8-2.1-4.8-4.8v-7.2c.1-2.6 2.2-4.7 4.8-4.7h4.9c2.6 0 4.7 2.1 4.7 4.7v7.2c.1 2.6-2 4.7-4.6 4.8h-.1zm-4.9-14.9c-1.6 0-2.9 1.3-3 2.9v7.2c0 1.7 1.3 3 3 3h4.9c1.6 0 2.9-1.3 2.9-2.9v-7.3c0-1.6-1.3-2.9-2.9-2.9h-4.9z" id="Rectángulo_4147"/><path class="st0" d="M17.6 35.4h-4.9c-2.6 0-4.7-2.1-4.7-4.7v-7.3c0-2.6 2.1-4.7 4.7-4.7h4.9c2.6 0 4.7 2.1 4.8 4.7v7.2c0 2.7-2.1 4.8-4.8 4.8zm-4.9-14.9c-1.6 0-2.9 1.3-2.9 2.9v7.2c-.1 1.6 1.2 2.9 2.8 3h5c1.7 0 3-1.3 3-3v-7.2c-.1-1.6-1.4-2.9-3-2.9h-4.9z" id="Rectángulo_4148"/><path class="st0" d="M49.7 29.7c-.5 0-.9-.4-.9-.9v-5.5l-1.6-3c-.2-.4-.1-1 .3-1.3.4-.2 1 0 1.2.4l1.8 3.2c.1.2.1.3.1.5v5.7c0 .5-.4.9-.9.9z" id="Trazado_10738"/><path class="st0" d="M49.7 24l-.4-.2c-.4-.2-.6-.7-.4-1.1 0 0 0-.1.1-.1l2-3.5c.3-.4.8-.5 1.2-.3.4.3.5.9.3 1.3l-2 3.4c-.1.3-.5.5-.8.5z" id="Línea_2149"/><path class="st0" d="M53.3 49.4h-7.1c-.5 0-.9-.4-.9-.9v-25c0-.5.4-.9.9-.9s.9.4.9.9v24.1h5.3V23.5c0-.5.4-.9.9-.9s.9.4.9.9v25c0 .5-.4.9-.9.9z" id="Trazado_10739"/><path class="st0" d="M15.2 49.1c-.5 0-.9-.4-.9-.9V34.6c0-.5.4-.9.9-.9s.9.4.9.9v13.6c0 .5-.4.9-.9.9z" id="Línea_2150"/><path class="st0" d="M49.9 49.2c-.5 0-.9-.4-.9-.9V34.5c0-.5.4-.9.9-.9s.9.4.9.9v13.8c0 .5-.4.9-.9.9z" id="Línea_2151"/><path class="st0" d="M18 13.9h-5.6c-.5 0-.9-.4-.9-.9s.4-.9.9-.9H18c.5 0 .9.4.9.9s-.4.9-.9.9z" id="Línea_2152"/><path class="st0" d="M15.1 13.9c-.5 0-.9-.4-.9-.9V8.7c0-.5.4-.9.9-.9s.9.4.9.9V13c0 .5-.4.9-.9.9z" id="Línea_2153"/><g id="Grupo_12039"><path class="st0" d="M37.8 41.3H27.4c-.3 0-.5-.1-.7-.3-.2-.2-.2-.4-.2-.7l1.6-13v-7.4c0-.5.4-.9.9-.9s.9.4.9.9v7.6l-1.5 12h8.3l-1.5-11.9V20c0-.5.4-.9.9-.9s.9.4.9.9v7.4l1.6 12.9c.1.3 0 .5-.2.7-.1.2-.4.3-.6.3z" id="Trazado_10740"/><path class="st0" d="M35 35.4h-5c-2.6 0-4.7-2.1-4.7-4.7v-7.3c0-2.6 2.1-4.7 4.7-4.7h5c2.6 0 4.7 2.1 4.7 4.7v7.2c.1 2.6-2 4.7-4.6 4.8H35zm-5-14.9c-1.6 0-2.9 1.3-2.9 2.9v7.2c-.1 1.6 1.2 2.9 2.8 3H35c1.6 0 2.9-1.3 2.9-2.9v-7.3c0-1.6-1.3-2.9-2.9-2.9h-5z" id="Rectángulo_4149"/><path class="st0" d="M36.2 49.2h-7.3c-.5 0-.9-.4-.9-.9v-7.9c0-.5.4-.9.9-.9s.9.4.9.9v7h5.5v-7c0-.5.4-.9.9-.9s.9.4.9.9v7.9c0 .5-.4.9-.9.9z" id="Trazado_10741"/><path class="st0" d="M32.6 49c-.5 0-.9-.4-.9-.9v-7.5c0-.5.4-.9.9-.9s.9.4.9.9v7.5c0 .5-.4.9-.9.9z" id="Línea_2154"/><path class="st0" d="M36.1 28.2H29c-.5 0-.9-.4-.9-.9s.4-.9.9-.9h7.1c.5 0 .9.4.9.9s-.4.9-.9.9z" id="Línea_2155"/></g><path class="st1" d="M.2 0h64.6v65H.2z" id="Rectángulo_3799"/><path class="st1" d="M-.2 48.3h65V65h-65z"/><path class="st2" d="M45.2 61.3H38c-.7 0-1.2-.5-1.2-1.2 0-.6.6-1.2 1.2-1.2h7.2c.7 0 1.2.5 1.2 1.2s-.5 1.2-1.2 1.2zm7.7 0h-.5c-.7 0-1.2-.5-1.2-1.2s.5-1.2 1.2-1.2h.5c.7 0 1.2.5 1.2 1.2s-.5 1.2-1.2 1.2zm-34.1 0h-7.1c-.7 0-1.2-.5-1.2-1.2 0-.6.6-1.2 1.2-1.2h7.1c.7 0 1.2.5 1.2 1.2s-.5 1.2-1.2 1.2z"/><path d="M30.9 61.3H18.4c-.7 0-1.2-.5-1.2-1.2s.5-1.2 1.2-1.2h12.5c.6 0 1.2.6 1.2 1.2 0 .7-.5 1.2-1.2 1.2zm4.4-6.1H11.7c-.7 0-1.2-.5-1.2-1.2s.5-1.2 1.2-1.2h23.6c.7 0 1.2.5 1.2 1.2s-.5 1.2-1.2 1.2z" fill="#82d400"/><path class="st2" d="M52.9 55.2H34.6c-.7 0-1.2-.5-1.2-1.2s.5-1.2 1.2-1.2h18.3c.7 0 1.2.5 1.2 1.2s-.5 1.2-1.2 1.2zm-40.8 0h-.4c-.7 0-1.2-.5-1.2-1.2s.5-1.2 1.2-1.2h.4c.7 0 1.2.5 1.2 1.2s-.5 1.2-1.2 1.2z"/><path class="st0" d="M49.8 17.9c-2.3 0-4-1.8-4-4s1.8-4 4-4 4 1.8 4 4-1.8 4-4 4zm0-6.7c-1.5 0-2.7 1.3-2.7 2.7s1.3 2.7 2.7 2.7c1.4 0 2.7-1.3 2.7-2.7s-1.2-2.7-2.7-2.7z" id="Elipse_1897_1_"/><path class="st2" d="M32.5 17.9c-2.3 0-4-1.8-4-4s1.8-4 4-4 4 1.8 4 4-1.7 4-4 4zm0-6.7c-1.5 0-2.7 1.3-2.7 2.7s1.3 2.7 2.7 2.7 2.7-1.3 2.7-2.7-1.2-2.7-2.7-2.7z" id="Elipse_1897_2_"/><path class="st0" d="M15.2 17.9c-2.3 0-4-1.8-4-4s1.8-4 4-4 4 1.8 4 4-1.7 4-4 4zm0-6.7c-1.5 0-2.7 1.3-2.7 2.7s1.3 2.7 2.7 2.7 2.7-1.3 2.7-2.7-1.1-2.7-2.7-2.7z" id="Elipse_1897_3_"/></svg>