<svg id="Capa_1" data-name="Capa 1" xmlns="http://www.w3.org/2000/svg" viewBox="0 0 65 65"><defs><style>.cls-1{fill:none}.cls-2{fill:#19a301}.cls-3{fill:#95a6b1}</style></defs><path class="cls-1" d="M.1.1H65v64.89H.1z" id="Rectángulo_3799" data-name="Rectángulo 3799"/><path class="cls-2" d="M19 23.6a5.5 5.5 0 01-5.4-5.5 5.5 5.5 0 0110.9 0 5.5 5.5 0 01-5.5 5.5zm0-9.3a3.9 3.9 0 000 7.7 3.9 3.9 0 100-7.7z" id="Elipse_1897" data-name="Elipse 1897"/><g id="Grupo_11513" data-name="Grupo 11513"><path class="cls-3" d="M17 40.5a8 8 0 01-7.9-7.9v-.2a8.1 8.1 0 016.1-7.7v-.9a.9.9 0 01.8-.8.9.9 0 01.8.9v1.3a.6.6 0 01-.1.6 1 1 0 01-.5.4 6.3 6.3 0 00-5.5 6.2v.2a6.3 6.3 0 006.3 6.3h14.9a6.3 6.3 0 006.3-6.3v-.2a6.3 6.3 0 00-6.3-6.3h-1.2a.9.9 0 01-.6-.3 1.4 1.4 0 01-.2-.6 2.8 2.8 0 00.1-.9 6.2 6.2 0 00-4.7-5.9.9.9 0 01-.5-1 .8.8 0 01.9-.6 7.9 7.9 0 015.9 7.5v.2h.3a7.9 7.9 0 017.9 7.9v.2a7.9 7.9 0 01-7.9 7.9z" id="Trazado_10514" data-name="Trazado 10514"/><path class="cls-3" d="M41 34.2h-.6l-1.5-.2a.8.8 0 01-.6-1 .8.8 0 01.9-.6l1.3.2a6.8 6.8 0 007.3-6.4 6.9 6.9 0 00-11.4-5.6 6.6 6.6 0 00-2.3 4.7.8.8 0 01-.9.8.9.9 0 01-.7-.9 8.8 8.8 0 012.9-5.8 8.4 8.4 0 0111.9.8 8.2 8.2 0 012.1 6.1 8.5 8.5 0 01-8.4 7.9z" id="Trazado_10515" data-name="Trazado 10515"/><g id="Grupo_11509" data-name="Grupo 11509"><path class="cls-3" d="M40.6 16a.7.7 0 01-.8-.8V11a.7.7 0 01.8-.8.8.8 0 01.8.8v4.2a.8.8 0 01-.8.8z" id="Línea_2011" data-name="Línea 2011"/><path class="cls-3" d="M40.6 40.8a.7.7 0 01-.8-.8v-4.5a.7.7 0 01.8-.8.8.8 0 01.8.8V40a.8.8 0 01-.8.8z" id="Línea_2012" data-name="Línea 2012"/></g><g id="Grupo_11510" data-name="Grupo 11510"><path class="cls-3" d="M47.8 19c-.2 0-.4 0-.5-.2a.8.8 0 010-1.1l3-3.1a.8.8 0 011.1 0 .9.9 0 010 1.2l-3 3c-.1.2-.4.2-.6.2z" id="Línea_2013" data-name="Línea 2013"/></g><g id="Grupo_11511" data-name="Grupo 11511"><path class="cls-3" d="M33.3 19c-.2 0-.4 0-.5-.2l-3-3a.7.7 0 010-1.2.8.8 0 011.1 0l3 3.1a.8.8 0 010 1.1.7.7 0 01-.6.2z" id="Línea_2014" data-name="Línea 2014"/><path class="cls-3" d="M50.9 36.6a.9.9 0 01-.6-.3l-3.2-3.2a.8.8 0 011.1-1.1l3.2 3.2a.8.8 0 010 1.1.5.5 0 01-.5.3z" id="Línea_2015" data-name="Línea 2015"/></g><g id="Grupo_11512" data-name="Grupo 11512"><path class="cls-3" d="M55.1 26.3h-4.3a.9.9 0 01-.8-.8.8.8 0 01.8-.8h4.3a.7.7 0 01.8.8.8.8 0 01-.8.8z" id="Línea_2016" data-name="Línea 2016"/></g><path class="cls-3" d="M16.4 44.5l-.6-.2a.9.9 0 010-1.2l3.7-3.8a.9.9 0 011.2 0 .8.8 0 010 1.1l-3.8 3.9z" id="Línea_2017" data-name="Línea 2017"/><path class="cls-3" d="M20.4 48.6c-.3 0-.5 0-.6-.2a.8.8 0 010-1.1l3.7-3.8a.7.7 0 011.1-.1.8.8 0 01.1 1.2l-3.8 3.8z" id="Línea_2018" data-name="Línea 2018"/><path class="cls-3" d="M26.6 47.2a.9.9 0 01-.6-.3.8.8 0 010-1.1l3.7-3.8a.9.9 0 011.2 0 .8.8 0 010 1.1l-3.7 3.8a.9.9 0 01-.6.3z" id="Línea_2019" data-name="Línea 2019"/></g><path class="cls-1" d="M0 48.2h65v16.74H0z"/><path class="cls-2" d="M45.4 61.3h-7.2a1.3 1.3 0 01-1.2-1.2 1.2 1.2 0 011.2-1.2h7.2a1.2 1.2 0 011.2 1.2 1.3 1.3 0 01-1.2 1.2zm7.7 0h-.6a1.3 1.3 0 01-1.2-1.2 1.2 1.2 0 011.2-1.2h.6a1.2 1.2 0 011.2 1.2 1.2 1.2 0 01-1.2 1.2zm-34.1 0h-7.1a1.2 1.2 0 01-1.2-1.2 1.2 1.2 0 011.2-1.2H19a1.2 1.2 0 011.2 1.2 1.2 1.2 0 01-1.2 1.2z"/><path d="M31 61.3H18.5a1.3 1.3 0 01-1.2-1.2 1.2 1.2 0 011.2-1.2H31a1.2 1.2 0 011.2 1.2 1.2 1.2 0 01-1.2 1.2zm4.5-6.1H11.9a1.2 1.2 0 01-1.2-1.2 1.2 1.2 0 011.2-1.2h23.6a1.2 1.2 0 011.2 1.2 1.3 1.3 0 01-1.2 1.2z" fill="#82d400"/><path class="cls-2" d="M53.1 55.2H34.7a1.3 1.3 0 01-1.2-1.2 1.2 1.2 0 011.2-1.2h18.4a1.2 1.2 0 011.2 1.2 1.2 1.2 0 01-1.2 1.2zm-40.8 0h-.4a1.2 1.2 0 01-1.2-1.2 1.2 1.2 0 011.2-1.2h.4a1.2 1.2 0 011.2 1.2 1.2 1.2 0 01-1.2 1.2z"/></svg>