<svg version="1.1" id="Capa_1" xmlns="http://www.w3.org/2000/svg" x="0" y="0" viewBox="0 0 65 65" xml:space="preserve"><style>.st0{fill:none}.st1{fill:#19a301}</style><path class="st0" d="M0 0h65v65H0z" id="Rectángulo_3794"/><path class="st0" d="M0 48.3h65V65H0z"/><path class="st1" d="M45.4 61.3h-7.2c-.7 0-1.2-.5-1.2-1.2 0-.6.6-1.2 1.2-1.2h7.2c.6 0 1.2.6 1.2 1.2 0 .7-.5 1.2-1.2 1.2zm7.7 0h-.6c-.7 0-1.2-.5-1.2-1.2 0-.6.6-1.2 1.2-1.2h.6c.7 0 1.2.5 1.2 1.2s-.5 1.2-1.2 1.2zm-34.1 0h-7.1c-.7 0-1.2-.5-1.2-1.2s.5-1.2 1.2-1.2H19c.7 0 1.2.5 1.2 1.2s-.5 1.2-1.2 1.2z"/><path d="M31 61.3H18.5c-.7 0-1.2-.5-1.2-1.2 0-.6.6-1.2 1.2-1.2H31c.7 0 1.2.5 1.2 1.2s-.5 1.2-1.2 1.2zm4.5-6.1H11.9c-.7 0-1.2-.5-1.2-1.2s.5-1.2 1.2-1.2h23.6c.7 0 1.2.5 1.2 1.2s-.5 1.2-1.2 1.2z" fill="#82d400"/><path class="st1" d="M53.1 55.2H34.7c-.7 0-1.2-.5-1.2-1.2s.5-1.2 1.2-1.2h18.4c.7 0 1.2.5 1.2 1.2s-.5 1.2-1.2 1.2zm-40.8 0h-.4c-.7 0-1.2-.5-1.2-1.2s.5-1.2 1.2-1.2h.4c.7 0 1.2.5 1.2 1.2s-.5 1.2-1.2 1.2z"/><path d="M40.8 48.1c-.4 0-.7-.2-.8-.6l-2.5-6.8L25.2 36c-.3 0-.6-.2-.6-.5l-3.4-9.2c-.1-.3 0-.7.2-.9l2-2.3-1.5-2.3c-.3-.4-.2-1 .2-1.3h.1c.4-.2.9-.1 1.2.3l1.9 2.9c.2.3.2.8-.1 1.1l-2.1 2.4 3.1 8.3 12.3 4.6c.3.1.5.3.6.6l2.2 6.1.4-3.2c0-.3.1-.5.3-.7l4.2-2.8.9-5.2-2.8-1.7c-.2-.2-.4-.5-.4-.8v-6.1l-8.2-8.4c-.1-.1-.2-.3-.2-.5l-.3-2.5-5.2-2.3c-.2-.1-.3-.2-.4-.4l-2.1-4.7-1 1.2c-.3.3-.8.4-1.2.1-.4-.3-.5-.8-.2-1.3L27 4.2c.2-.2.5-.3.8-.3.3.1.5.3.7.5l2.7 5.7 5.3 2.3c.3.1.5.4.5.7l.3 2.8 8.2 8.4c.2.2.3.4.3.7v5.9l2.9 1.7c.3.2.5.6.4 1l-1 6.2c-.1.2-.2.4-.4.5l-4.2 2.9L43 47c0 .4-.3.7-.7.7l-1.3.4h-.2z" fill="#95a6b1"/><path id="Trazado_9830_1_" d="M22.7 18.7c-3 0-5.4-2.4-5.4-5.4 0-3 2.4-5.4 5.4-5.4s5.4 2.4 5.4 5.4c0 1.4-.5 2.7-1.5 3.7-.9 1.1-2.4 1.7-3.9 1.7zm0-9.4c-2.2 0-4 1.8-4 4s1.8 4 4 4 4-1.8 4-4-1.8-4-4-4z" fill="#19a500"/></svg>