<svg version="1.1" id="Capa_1" xmlns="http://www.w3.org/2000/svg" x="0" y="0" viewBox="0 0 65 65" xml:space="preserve"><style>.st0{fill:none}.st1{fill:#95a6b1}.st2{fill:#19a301}</style><path class="st0" d="M0 0h65v65H0z" id="Rectángulo_3799"/><path class="st1" d="M31.5 41c-.5 0-.9-.4-.9-.9-.1-.4.3-.8.7-.9h.1c1.6-.2 7.5-3.6 7.5-8.9s-3.5-6.5-4.8-7.2c-1.6 1.4-6.7 5.2-12.6 1.8-4.4-2.6-4.1-6.3-3.8-7.8s1.8-3.8 3.1-4.3 3.3-6.7 13.3-6.7h.2c9 .1 16.8 6.4 18.8 15.2.1.5-.2 1-.7 1.1-.4.1-.9-.1-1-.6v-.1c-1.8-8.1-9-13.9-17.3-13.8-10.3 0-11.6 5.6-11.7 5.8-.1.4-.4.7-.8.7-1.1.7-1.9 1.8-2.1 3.1-.3 1.4-.4 3.9 2.9 5.8 5.9 3.4 10.8-1.9 10.9-1.9.2-.3.7-.4 1-.2.2.1 6.4 2.8 6.4 9.1S33.8 40.8 31.5 41zm15.4 4.4l-.5-.2c-.4-.2-.5-.7-.3-1.1 0 0 0-.1.1-.1 1.8-2.7 3.2-5.6 4.2-8.7.1-.4.6-.7 1-.5h.1c.5.1.7.6.6 1.1-1 3.2-2.5 6.3-4.4 9.1-.2.2-.5.4-.8.4z"/><path class="st1" d="M23.7 37.2c-.3 0-.6-.2-.8-.5-.2-.4 0-1 .4-1.2.3-.1 7.5-3.4 6.7-11-.1-.5.3-.9.8-1 .5 0 .8.3.9.8 1 8.9-7.5 12.8-7.6 12.9h-.4z"/><path class="st1" d="M14.4 45.1h-.2c-.4 0-.8-.4-.7-.9v-.1c.7-4.6-1.6-9.1-5.8-11.2-.3-.2-.5-.5-.5-.8 0-.3.1-.6.4-.8.6-.3 1-.9 1.2-1.6 0-.5-.1-1-.3-1.4-.2-.2-.3-.6-.1-.9.1-.3.4-.5.7-.5.6.1 1.1-.1 1.5-.5.3-.4 0-1.1 0-1.1-.1-.4 0-.8.3-1 .3-.3.7-.3 1-.1.7.4 1.3.5 1.6.3s.5-1 .5-1.3c0-.4.3-.7.7-.8.4-.1.8.1 1 .4.3.5.7 1.1 1.1 1.2.4 0 .7-.1 1-.3.2-.3.6-.3.9-.2.3.2.6.5.6.8v4.5c.6 2.7 3.6 6 3.6 6.1 7.3 6.8 17 4.2 17.1 4.1.5-.1 1 .2 1.1.7.1.5-.1 1-.6 1.1-.4.1-10.8 2.9-18.8-4.7-.2-.2-3.5-3.8-4.2-7v-3.4c-.3.1-.7.1-1 0-.4 0-.9-.2-1.2-.5l-.8.9c-.6.3-1.3.4-2 .2-.1.4-.2.8-.4 1.1-.4.5-1 .9-1.6 1.1.1.5.2 1 .1 1.5-.1.7-.5 1.4-1 1.9 4.2 2.6 6.4 7.5 5.6 12.4 0 .4-.4.8-.8.8z"/><path class="st1" d="M23 28.5c-.4.1-.8-.2-.9-.7l-.5-3.2c0-.5.3-.9.8-1 .5-.1.9.3 1 .8l.4 3.1c.1.4-.1.9-.6 1H23zm2.8.4c-.4 0-.7-.2-.9-.6l-1-2.7c-.1-.5.1-1 .6-1.2.5-.1 1 .1 1.1.6l1 2.7c.2.5 0 1-.5 1.2h-.3zm3.3.1c-.3 0-.6-.2-.8-.4L26.6 26c-.3-.3-.2-.8.1-1.1l.1-.1c.4-.3 1-.2 1.3.2l1.7 2.6c.3.3.2.8-.1 1.1l-.1.1-.5.2zm-7.4-9.3c-1 0-1.7-.7-1.8-1.7 0-1 .8-1.8 1.8-1.8 1 .1 1.7.8 1.7 1.8 0 .9-.8 1.6-1.7 1.7zm-.1-1.7zm19.7.1c-.3 0-.6-.2-.7-.4-.2-.4-.1-1 .3-1.3l2.4-1.4c.4-.2.6-.8.4-1.2-.3-.5-.8-.6-1.3-.4l-2.5 1.5c-.4.2-1 0-1.2-.4-.2-.4-.1-.9.3-1.2l2.5-1.4c1.3-.7 3-.3 3.7 1s.3 3-1 3.7L41.8 18l-.5.1zm-14.4-1.7h-.6c-1-.2-1.9-.8-2.5-1.7-.2-.5-.1-1 .3-1.3.4-.2.9-.1 1.2.3.3.5.8.8 1.3.9.8 0 1.7-.2 2.3-.8.4-.3.9-.3 1.3.1.3.4.2 1-.2 1.3-.9.7-2 1.2-3.1 1.2zm-17 32.9c-.4 0-.7-.3-.9-.6-.1-.5.1-1 .6-1.2 1.1-.4 2.2-1.1 2.9-2 .6-.8 1.3-1.5 2.2-2 2.8-1.5 4.6.4 5.9 1.8s1.9 2 3 2c.4-.1.8.3.9.7v.1c.1.5-.3.9-.8 1-2 .1-3.3-1.3-4.4-2.5s-2.3-2.3-3.7-1.5c-.7.3-1.2.9-1.6 1.5-1 1.2-2.3 2.1-3.8 2.6l-.3.1z"/><path class="st1" d="M37 49.1c-1.3 0-2.5-.6-3.4-1.6l-.5-.7c-.6-.9-1.5-1.6-2.5-1.9-1.2-.2-2.5.5-3 1.6-.9 1.3-2.3 2.2-3.9 2.5-.5.1-.9-.3-1-.8s.3-.9.8-1c1-.1 1.9-.7 2.5-1.5.9-1.9 3-2.9 5-2.5 1.4.4 2.7 1.3 3.5 2.5l.5.6c.5.7 1.4 1 2.2 1 .5 0 .8.3.9.8 0 .5-.3.9-.8 1H37z"/><path class="st1" d="M50.8 49.1c-2 0-3.1-1.4-4-2.4s-1.6-1.9-2.8-1.9c-1.1.1-2.1.7-2.6 1.7-.9 1.4-2.3 2.3-3.9 2.6-.5 0-.9-.3-1-.8-.1-.5.3-.9.8-1 1-.2 1.9-.8 2.5-1.7.9-1.5 2.4-2.5 4.2-2.6 1.7.1 3.2 1.1 4.1 2.5 1 1.1 1.7 1.9 2.8 1.8s1 .3 1 .8-.4.9-.9 1h-.2z"/><path class="st0" d="M0 0h65v65H0z" id="Rectángulo_3799-2"/><path class="st0" d="M0 48.3h65V65H0z"/><path class="st2" d="M45.4 61.3h-7.2c-.7 0-1.2-.5-1.2-1.2 0-.6.6-1.2 1.2-1.2h7.2c.6 0 1.2.6 1.2 1.2 0 .7-.5 1.2-1.2 1.2zm7.7 0h-.6c-.7 0-1.2-.5-1.2-1.2 0-.6.6-1.2 1.2-1.2h.6c.7 0 1.2.5 1.2 1.2s-.5 1.2-1.2 1.2zm-34.1 0h-7.1c-.7 0-1.2-.5-1.2-1.2s.5-1.2 1.2-1.2H19c.7 0 1.2.5 1.2 1.2s-.5 1.2-1.2 1.2z"/><path d="M31 61.3H18.5c-.7 0-1.2-.5-1.2-1.2 0-.6.6-1.2 1.2-1.2H31c.7 0 1.2.5 1.2 1.2s-.5 1.2-1.2 1.2zm4.5-6.1H11.9c-.7 0-1.2-.5-1.2-1.2s.5-1.2 1.2-1.2h23.6c.7 0 1.2.5 1.2 1.2s-.5 1.2-1.2 1.2z" fill="#82d400"/><path class="st2" d="M53.1 55.2H34.7c-.7 0-1.2-.5-1.2-1.2s.5-1.2 1.2-1.2h18.4c.7 0 1.2.5 1.2 1.2s-.5 1.2-1.2 1.2zm-40.8 0h-.4c-.7 0-1.2-.5-1.2-1.2s.5-1.2 1.2-1.2h.4c.7 0 1.2.5 1.2 1.2s-.5 1.2-1.2 1.2z"/><path class="st2" d="M52.8 33.2c-2.7 0-4.8-2.2-4.8-4.8s2.2-4.8 4.8-4.8c2.6 0 4.8 2.2 4.8 4.8s-2.1 4.8-4.8 4.8zm0-8c-1.8 0-3.2 1.5-3.2 3.2s1.5 3.2 3.2 3.2 3.2-1.5 3.2-3.2-1.4-3.2-3.2-3.2z" id="Elipse_1897_1_"/></svg>