<svg xmlns="http://www.w3.org/2000/svg" width="47.17" height="93.54"><g data-name="Grupo 20466"><path data-name="Línea 2119" fill="none" stroke="#505d6c" opacity=".29" d="M27.015 54.06V89.5"/><g data-name="Trazado 11273" fill="#fff"><path d="M27.015 92.54c-1.93 0-3.5-1.57-3.5-3.5s1.57-3.5 3.5-3.5 3.5 1.57 3.5 3.5c0 .738-.236 1.412-.764 2.186l-.005.008-.005.008c-.41.625-1.438 1.298-2.726 1.298z"/><path d="M27.015 86.54a2.503 2.503 0 00-2.5 2.5c0 1.378 1.122 2.5 2.5 2.5.972 0 1.675-.52 1.89-.847l.02-.03c.52-.762.59-1.248.59-1.623 0-1.378-1.122-2.5-2.5-2.5m0-2a4.5 4.5 0 014.5 4.5c0 .925-.279 1.784-.938 2.75-.626.955-2.001 1.75-3.562 1.75a4.5 4.5 0 010-9z" fill="#00af00"/></g><g data-name="Capa 1"><g data-name="Grupo 20323"><g data-name="Grupo 20322"><path data-name="Rectángulo 3799-2" fill="none" d="M0 0h47.17v47.17H0z"/><g data-name="Grupo 20321"><g data-name="Grupo 20319"><g data-name="Grupo 20318" fill="none" stroke="#95a6b1" stroke-linecap="round" stroke-linejoin="round" stroke-width="1.5"><path data-name="Línea 4593" d="M10.82 25.44H8.34"/><path data-name="Línea 4594" d="M16.81 25.44h-2.46"/><path data-name="Trazado 19797" d="M18 20.22a.92.92 0 00-.79-1.02H7.96a.927.927 0 00-.79 1.02v.24a.92.92 0 00.79 1.02h9.25a.927.927 0 00.79-1.02z"/><path data-name="Línea 4595" d="M10.82 29.57H6.27"/><path data-name="Trazado 19798" d="M14.35 35.46h5.32v-6.01h-5.32"/><path data-name="Línea 4596" d="M5.85 35.34h4.97"/><path data-name="Rectángulo 5768" d="M3.65 27.89h2.13v9.13H3.65z"/><path data-name="Rectángulo 5769" d="M10.82 21.5h3.53v15.74h-3.53z"/></g></g><g data-name="Grupo 20320" fill="none" stroke="#95a6b1" stroke-linecap="round" stroke-linejoin="round" stroke-width="1.5" transform="translate(.09 .09)"><path data-name="Trazado 19799" d="M19.58 30.98v9.59h20.97v-9.59"/><path data-name="Trazado 19800" d="M22.54 25.46h-2.96v5.52"/><path data-name="Trazado 19801" d="M40.55 30.98v-5.52h-3.9"/><path data-name="Trazado 19802" d="M36.65 10.14V8.3a1.874 1.874 0 011.87-1.87h3.05a1.874 1.874 0 011.87 1.87v29.24h-2.89l-2.62-4.68a2.07 2.07 0 00-1.61-.76H19.58"/><path data-name="Trazado 19803" d="M22.54 25.72v1.78a.717.717 0 00.72.72h1.52a.717.717 0 00.72-.72v-4.06a.717.717 0 01.72-.72h1.34a.717.717 0 01.72.72v4.06a.717.717 0 00.72.72h1.52a.717.717 0 00.72-.72v-4.06a.717.717 0 01.72-.72h1a.717.717 0 01.72.72v4.06a.717.717 0 00.72.72h1.52a.717.717 0 00.72-.72v-6.25"/><circle data-name="Elipse 3085" cx="1.21" cy="1.21" r="1.21" transform="translate(22.82 35.78)"/><circle data-name="Elipse 3086" cx="1.21" cy="1.21" r="1.21" transform="translate(28.31 35.78)"/></g></g></g><path data-name="Trazado 11848" d="M39.78 15.56a3.04 3.04 0 11-3.04-3.04h0a3.028 3.028 0 013.04 3.02z" fill="none" stroke="#19a500" stroke-linecap="round" stroke-linejoin="round" stroke-width="1.5"/></g></g></g></svg>