<svg id="Capa_1" data-name="Capa 1" xmlns="http://www.w3.org/2000/svg" viewBox="0 0 65 65"><defs><style>.cls-1{fill:none}.cls-2{fill:#19a301}</style></defs><path class="cls-1" d="M0 0h65v65H0z" id="Rectángulo_3794" data-name="Rectángulo 3794"/><path class="cls-1" d="M0 48.3h65v16.74H0z"/><path class="cls-2" d="M45.4 61.3h-7.2a1.2 1.2 0 01-1.2-1.2 1.3 1.3 0 011.2-1.2h7.2a1.3 1.3 0 011.2 1.2 1.2 1.2 0 01-1.2 1.2zm7.7 0h-.6a1.2 1.2 0 01-1.2-1.2 1.3 1.3 0 011.2-1.2h.6a1.2 1.2 0 011.2 1.2 1.2 1.2 0 01-1.2 1.2zm-34.1 0h-7.1a1.2 1.2 0 01-1.2-1.2 1.2 1.2 0 011.2-1.2H19a1.2 1.2 0 011.2 1.2 1.2 1.2 0 01-1.2 1.2z"/><path d="M31 61.3H18.5a1.2 1.2 0 01-1.2-1.2 1.3 1.3 0 011.2-1.2H31a1.2 1.2 0 011.2 1.2 1.2 1.2 0 01-1.2 1.2zm4.5-6.1H11.9a1.2 1.2 0 110-2.4h23.6a1.2 1.2 0 010 2.4z" fill="#82d400"/><path class="cls-2" d="M53.1 55.2H34.7a1.2 1.2 0 010-2.4h18.4a1.2 1.2 0 010 2.4zm-40.8 0h-.4a1.2 1.2 0 110-2.4h.4a1.2 1.2 0 010 2.4z"/><path d="M18.3 13.1a5.8 5.8 0 01-1.9-.3 5 5 0 01-2.9-2.8 5.2 5.2 0 012.6-7 5.4 5.4 0 017 2.6 5.8 5.8 0 01.2 3.9 5.2 5.2 0 01-2.9 3.1 4.1 4.1 0 01-2.1.5zm-.1-8.9a4 4 0 00-1.5.3 3.7 3.7 0 00-1.8 4.9 3.6 3.6 0 002.1 1.9 3.9 3.9 0 002.8-.1A3.5 3.5 0 0021.7 9a3.6 3.6 0 00-.1-2.7 3.8 3.8 0 00-3.4-2.1z" fill="#19a500"/><path d="M34.6 49.7h-.3l-4-1.3a.7.7 0 01-.6-.7v-4.5l-3.3-2.3c-.2-.1-.3-.4-.4-.6l-.4-6.6c-.1 0-.1-.1 0-.1l.2-2.3c0-.2.2-.4.4-.6l2.1-1.4.4-2.5-1.3-.8a.8.8 0 01-.4-.7v-3.1L19.2 16a.9.9 0 01-.1-1.2.8.8 0 011.1-.1l8.2 6.5a1.5 1.5 0 01.3.7v3l1.4.8a1 1 0 01.4.9l-.6 3.3a.5.5 0 01-.3.5l-2.1 1.4-.2 1.9.4 6.1 3.3 2.3a.8.8 0 01.3.7V47l3.1 1 1.9-1.6a.9.9 0 01.7-.1l6.6 1.5 6.3-3.1-1-1.1-2.2 1a.9.9 0 01-.7 0l-1.6-.8a1.2 1.2 0 01-.5-.5c0-.2 0-.5.1-.6l.7-1.1-5.6-3.1q-.1 0-.3-.3l-2.7-4.7c-.1-.1-.1-.4-.1-.6l.7-3-4.4-5.1a.7.7 0 01-.1-.6l.2-1.6a.8.8 0 01.7-.7l6.5-.2-.2-1.2h-.6a.8.8 0 01-.8-.6l-.5-2.2-3.3-1.9h-3.7a.7.7 0 01-.6-.3l-2.7-3.4c-.1-.2-.2-.3-.2-.5V8.2l-1.6-2.4a.8.8 0 01.3-1.1.7.7 0 011.1.2l1.7 2.7a.6.6 0 01.1.4v3.4l2.3 2.9h3.9l3.9 2.2a.6.6 0 01.3.6l.4 1.8h.6a.8.8 0 01.8.7l.6 2.7a1.4 1.4 0 01-.2.6.7.7 0 01-.6.3l-6.7.3v.5l4.4 5.2a1 1 0 01.2.7l-.9 3.1 2.5 4.2 6.2 3.4a1 1 0 01.4.5 1.7 1.7 0 01-.1.7l-.7.9.5.3 2.3-1.1a1 1 0 01.9.2l2.2 2.3a.6.6 0 01.2.7.7.7 0 01-.4.5L44 49.4c-.1 0-.3.1-.5 0L37 47.9l-1.9 1.6z" fill="#95a6b1"/></svg>