<svg id="Capa_1" data-name="Capa 1" xmlns="http://www.w3.org/2000/svg" viewBox="0 0 65 65"><defs><style>.cls-1{fill:none}.cls-2{fill:#19a301}</style></defs><path class="cls-1" d="M0 0h65v65H0z" id="Rectángulo_3794" data-name="Rectángulo 3794"/><path class="cls-1" d="M0 48.3h65v16.74H0z"/><path class="cls-2" d="M45.4 61.3h-7.2a1.2 1.2 0 01-1.2-1.2 1.3 1.3 0 011.2-1.2h7.2a1.3 1.3 0 011.2 1.2 1.2 1.2 0 01-1.2 1.2zm7.7 0h-.6a1.2 1.2 0 01-1.2-1.2 1.3 1.3 0 011.2-1.2h.6a1.2 1.2 0 011.2 1.2 1.2 1.2 0 01-1.2 1.2zm-34.1 0h-7.1a1.2 1.2 0 01-1.2-1.2 1.2 1.2 0 011.2-1.2H19a1.2 1.2 0 011.2 1.2 1.2 1.2 0 01-1.2 1.2z"/><path d="M31 61.3H18.5a1.2 1.2 0 01-1.2-1.2 1.3 1.3 0 011.2-1.2H31a1.2 1.2 0 011.2 1.2 1.2 1.2 0 01-1.2 1.2zm4.5-6.1H11.9a1.2 1.2 0 110-2.4h23.6a1.2 1.2 0 010 2.4z" fill="#82d400"/><path class="cls-2" d="M53.1 55.2H34.7a1.2 1.2 0 010-2.4h18.4a1.2 1.2 0 010 2.4zm-40.8 0h-.4a1.2 1.2 0 110-2.4h.4a1.2 1.2 0 010 2.4z"/><path d="M21.4 18.5a5.2 5.2 0 01-4.9-3.1 5.4 5.4 0 012.6-7.2 5.8 5.8 0 014.1-.1 4.9 4.9 0 013 2.8 5.3 5.3 0 01.3 3.9 5.7 5.7 0 01-2.9 3.2 4.4 4.4 0 01-2.2.5zm0-8.9a3.3 3.3 0 00-1.5.3 3.6 3.6 0 102.9 6.5 3.7 3.7 0 002-2.1 3.9 3.9 0 00-.2-2.6 3.4 3.4 0 00-2-1.9 2.5 2.5 0 00-1.2-.2z" fill="#19a500"/><path d="M40.8 48.1a.8.8 0 01-.8-.6l-2.5-6.8L25.2 36a.6.6 0 01-.6-.5l-3.4-9.2a1 1 0 01.2-.9l2-2.3-1.5-2.3a.9.9 0 01.3-1.3.9.9 0 011.2.3l1.9 2.9a.9.9 0 01-.1 1.1l-2.1 2.4 3.1 8.3 12.3 4.6a.9.9 0 01.6.6l2.2 6.1.4-3.2a.9.9 0 01.3-.7l4.2-2.8.9-5.2-2.8-1.7a1.2 1.2 0 01-.4-.8v-6.1l-8.2-8.4a.8.8 0 01-.2-.5l-.3-2.5-5.2-2.3a.8.8 0 01-.4-.4l-2.1-4.7-1 1.2a.9.9 0 01-1.2.1.9.9 0 01-.2-1.3L27 4.2a1.1 1.1 0 01.8-.3 1.3 1.3 0 01.7.5l2.7 5.7 5.3 2.3a.8.8 0 01.5.7l.3 2.8 8.2 8.4a.9.9 0 01.3.7v5.9l2.9 1.7a1 1 0 01.4 1l-1 6.2a1 1 0 01-.4.5l-4.2 2.9L43 47a.8.8 0 01-.7.7l-1.3.4z" fill="#95a6b1"/></svg>