<svg version="1.1" id="Capa_1" xmlns="http://www.w3.org/2000/svg" xmlns:xlink="http://www.w3.org/1999/xlink" x="0" y="0" viewBox="0 0 65 65" xml:space="preserve"><style>.st0{fill:none}.st4{fill:#4da12e}</style><path id="Rectángulo_3799-2_1_" class="st0" d="M0 0h65v65H0z"/><path id="Trazado_11848_8_" d="M40.2 23.39a3.73 3.73 0 11-3.73-3.73h0a3.717 3.717 0 013.73 3.7v.03z" fill="none" stroke="#19a500" stroke-width="1.6" stroke-linecap="round" stroke-linejoin="round" stroke-miterlimit="10"/><path d="M38.97 28.58c.09.47.5.81.98.81h3.29c.24 0 .48-.09.66-.25l1.24-1.09c.19-.17.44-.26.69-.25l2.48.07c.54.02.97.46.97 1v1.54c0 .1-.02.21-.05.31l-1.29 3.98c-.03.1-.08.19-.13.27l-.65.92a.993.993 0 00.2 1.36l3.58 2.83c.18.14.4.22.62.22h2.55c.33 0 .64-.16.82-.43l.58-.84c.19-.27.49-.43.82-.43h2.36c.21 0 .42.07.59.19L60.95 40a1 1 0 01.41.81v.09c0 .55-.45 1-1 1h-1.41c-.51 0-.94.39-.99.9l-.14 1.31c-.05.51-.48.9-.99.9h-4.67c-.27 0-.52.11-.71.29l-.66.66a1 1 0 01-1.2.16l-2.18-1.25c-.1-.06-.18-.13-.26-.21l-1.09-1.24a.98.98 0 00-.75-.34h-4.89c-.33 0-.65.17-.83.45l-.67 1c-.07.1-.15.19-.25.26l-2.15 1.53c-.17.12-.37.18-.58.18h-2.77c-.22 0-.43-.07-.6-.2l-3.74-2.81a.984.984 0 00-.6-.2H25.4c-.31 0-.6.14-.79.39l-1.73 2.26c-.26.33-.7.47-1.1.34l-.99-.31c-.41-.13-.7-.52-.7-.95v-7.03c0-.55-.45-1-1-1h-7.04m.01-.01c-.26 0-.51-.1-.69-.28l-4.43-4.23a.992.992 0 01-.31-.72v-.33c0-.65-.61-1.13-1.24-.97l-.51.13a.998.998 0 01-1.24-.97v-2.4c0-.31.14-.6.39-.79l1.15-.9c.24-.19.39-.48.39-.79v-4.27c0-.17.04-.34.13-.49l2.6-4.59c.04-.06.08-.12.13-.18l1.55-1.73a1 1 0 01.74-.33h1.12c.55 0 1-.45 1-1v-.58a.98.98 0 00-.34-.75l-1.11-.98c-.23-.2-.35-.5-.34-.81l.01-.21c.04-.6.58-1.03 1.17-.93l1.73.3c.17.03.34.11.47.22l2.11 1.77c.23.19.36.47.36.77v3.19c0 .53.41.97.94 1l.19.01a1 1 0 01.84.57l.82 1.71.18.35a.996.996 0 01-.68 1.42l-.37.08c-.2.04-.38.15-.52.3l-1.88 2.05c-.17.18-.26.43-.26.68V24c0 .17-.04.34-.13.49l-.41.74L18.98 28c.18.15.4.23.64.23h5.68a1 1 0 00.78-.38l2.8-3.52c.14-.18.22-.4.22-.62v-2.43c0-.21.07-.41.19-.58l1.65-2.31c.19-.26.49-.42.81-.42h.41c.35 0 .68.19.86.49" stroke="#95a6b1" stroke-width="1.6" stroke-linecap="round" stroke-linejoin="round" fill="none"/><defs><path id="SVGID_1_" d="M0 48.26h65V65H0z"/></defs><clipPath id="SVGID_2_"><use xlink:href="#SVGID_1_" overflow="visible"/></clipPath><g clip-path="url(#SVGID_2_)"><path class="st0" d="M0 48.26h65V65H0z"/><path class="st4" d="M45.38 61.32h-7.17c-.66 0-1.2-.54-1.2-1.2s.54-1.2 1.2-1.2h7.17c.66 0 1.2.54 1.2 1.2s-.54 1.2-1.2 1.2zm7.73 0h-.58c-.66 0-1.2-.54-1.2-1.2s.54-1.2 1.2-1.2h.58c.66 0 1.2.54 1.2 1.2s-.54 1.2-1.2 1.2zm-34.12 0h-7.1c-.66 0-1.2-.54-1.2-1.2s.54-1.2 1.2-1.2h7.1c.66 0 1.2.54 1.2 1.2s-.54 1.2-1.2 1.2z"/><path d="M31.05 61.32H18.53c-.66 0-1.2-.54-1.2-1.2s.54-1.2 1.2-1.2h12.52c.66 0 1.2.54 1.2 1.2s-.54 1.2-1.2 1.2zm4.42-6.11H11.89c-.66 0-1.2-.54-1.2-1.2s.54-1.2 1.2-1.2h23.58c.66 0 1.2.54 1.2 1.2s-.54 1.2-1.2 1.2z" fill="#96d200"/><path class="st4" d="M53.11 55.21H34.75c-.66 0-1.2-.54-1.2-1.2s.54-1.2 1.2-1.2h18.36c.66 0 1.2.54 1.2 1.2s-.54 1.2-1.2 1.2zm-40.79 0h-.43c-.66 0-1.2-.54-1.2-1.2s.54-1.2 1.2-1.2h.43c.66 0 1.2.54 1.2 1.2s-.54 1.2-1.2 1.2z"/></g></svg>