<svg id="Capa_1" data-name="Capa 1" xmlns="http://www.w3.org/2000/svg" viewBox="0 0 65 65"><defs><style>.cls-1{fill:none}.cls-2{fill:#19a301}</style></defs><path class="cls-1" d="M0 0h65v65H0z" id="Rectángulo_3794" data-name="Rectángulo 3794"/><path class="cls-1" d="M0 48.3h65v16.74H0z"/><path class="cls-2" d="M45.4 61.3h-7.2a1.2 1.2 0 01-1.2-1.2 1.3 1.3 0 011.2-1.2h7.2a1.3 1.3 0 011.2 1.2 1.2 1.2 0 01-1.2 1.2zm7.7 0h-.6a1.2 1.2 0 01-1.2-1.2 1.3 1.3 0 011.2-1.2h.6a1.2 1.2 0 011.2 1.2 1.2 1.2 0 01-1.2 1.2zm-34.1 0h-7.1a1.2 1.2 0 01-1.2-1.2 1.2 1.2 0 011.2-1.2H19a1.2 1.2 0 011.2 1.2 1.2 1.2 0 01-1.2 1.2z"/><path d="M31 61.3H18.5a1.2 1.2 0 01-1.2-1.2 1.3 1.3 0 011.2-1.2H31a1.2 1.2 0 011.2 1.2 1.2 1.2 0 01-1.2 1.2zm4.5-6.1H11.9a1.2 1.2 0 110-2.4h23.6a1.2 1.2 0 010 2.4z" fill="#82d400"/><path class="cls-2" d="M53.1 55.2H34.7a1.2 1.2 0 010-2.4h18.4a1.2 1.2 0 010 2.4zm-40.8 0h-.4a1.2 1.2 0 110-2.4h.4a1.2 1.2 0 010 2.4z"/><path d="M20.9 18.8a5.7 5.7 0 01-1.8-.3 5.5 5.5 0 01-3-2.8 5.1 5.1 0 01-.1-4 5 5 0 012.7-3 5.3 5.3 0 014.1-.1 5.1 5.1 0 012.9 2.7 4.8 4.8 0 01.2 3.9 5.1 5.1 0 01-2.8 3.1 5.4 5.4 0 01-2.2.5zm0-9a2.8 2.8 0 00-1.5.4 3.4 3.4 0 00-1.9 2 3.4 3.4 0 00.1 2.8 3.9 3.9 0 002 2 3.8 3.8 0 002.8-.1 3.9 3.9 0 002-2.2 3.6 3.6 0 00-.1-2.7 3.6 3.6 0 00-2.1-1.9 2.8 2.8 0 00-1.3-.3z" fill="#19a500"/><path d="M39.5 47.9a.9.9 0 01-.8-.6l-.8-3.8h-1.3a.7.7 0 01-.7-.6l-.9-3.7-5.6-3.3-6.1.2a.9.9 0 01-.7-.3l-4.3-5.6a.8.8 0 01-.2-.5v-5.6l-2.6-4.2a.9.9 0 01.2-1.1.8.8 0 011.1.3l2.8 4.3a.6.6 0 01.1.4v5.7l3.9 4.9H30l6.2 3.6a.5.5 0 01.3.5l.8 3.4h1.3a.8.8 0 01.8.7l.7 3.6 5.5-.7-1.4-2.3-2.6-1a.4.4 0 01-.4-.4l-3.3-6.4a.8.8 0 010-.8l2-2.6a.6.6 0 01.6-.3.9.9 0 01.7.3l2.2 3.4 4.5-1.1-3.6-18.4-6.9-.3a.7.7 0 01-.7-.5l-2.6-6.4-5.7-2.1-1.6 1.7a.8.8 0 01-1.1 0 .7.7 0 01-.1-1.1l2-2.1a.6.6 0 01.8-.2L35 7.3a1 1 0 01.5.4L38 14l7 .3c.4.1.7.3.7.7l3.9 19.7a.8.8 0 01-.6.9l-5.8 1.5a.8.8 0 01-.8-.3l-1.9-2.9-1 1.2 2.9 5.7 2.7 1c.1.1.3.2.4.4l2.1 3.6a.9.9 0 010 .7c-.1.3-.4.4-.6.5l-7.4.9z" fill="#95a6b1"/></svg>