<svg id="Capa_1" data-name="Capa 1" xmlns="http://www.w3.org/2000/svg" viewBox="0 0 65 65"><defs><style>.cls-1{fill:none}.cls-2{fill:#4da12e}.cls-5{fill:#95a6b1}</style></defs><path class="cls-1" d="M0 0h65v65H0z"/><path class="cls-1" d="M0 48.3h65v16.74H0z"/><path class="cls-2" d="M45.4 61.3h-7.2a1.2 1.2 0 01-1.2-1.2 1.3 1.3 0 011.2-1.2h7.2a1.3 1.3 0 011.2 1.2 1.2 1.2 0 01-1.2 1.2zm7.7 0h-.6a1.2 1.2 0 01-1.2-1.2 1.3 1.3 0 011.2-1.2h.6a1.2 1.2 0 011.2 1.2 1.2 1.2 0 01-1.2 1.2zm-34.1 0h-7.1a1.2 1.2 0 01-1.2-1.2 1.2 1.2 0 011.2-1.2H19a1.2 1.2 0 011.2 1.2 1.2 1.2 0 01-1.2 1.2z"/><path d="M31 61.3H18.5a1.2 1.2 0 01-1.2-1.2 1.3 1.3 0 011.2-1.2H31a1.2 1.2 0 011.2 1.2 1.2 1.2 0 01-1.2 1.2zm4.5-6.1H11.9a1.2 1.2 0 110-2.4h23.6a1.2 1.2 0 010 2.4z" fill="#96d200"/><path class="cls-2" d="M53.1 55.2H34.7a1.2 1.2 0 010-2.4h18.4a1.2 1.2 0 010 2.4zm-40.8 0h-.4a1.2 1.2 0 110-2.4h.4a1.2 1.2 0 010 2.4z"/><path d="M14.8 30.8a4.3 4.3 0 01-4.3-4.3 4.2 4.2 0 017.3-3 4.2 4.2 0 011.2 3 4.2 4.2 0 01-4.2 4.3zm0-7a2.8 2.8 0 00-2.7 2.7 2.7 2.7 0 002.7 2.7 2.8 2.8 0 002.7-2.7 3.3 3.3 0 00-.8-1.9 2.7 2.7 0 00-1.9-.8z" fill="#00a800" id="Trazado_11848" data-name="Trazado 11848"/><path class="cls-5" d="M35.4 38.5H20.1a7.7 7.7 0 01-7.5-5.5.7.7 0 01.5-1c.4-.2.8.1 1 .5a6.2 6.2 0 006 4.4h15.3a6.3 6.3 0 006.3-6.3 6.3 6.3 0 00-6.3-6.3H20.1a.7.7 0 01-.8-.8.8.8 0 01.8-.8h15.3a7.9 7.9 0 010 15.8zM58.7 43h-4.4a.9.9 0 01-.8-.8.8.8 0 01.8-.8h4.4a.8.8 0 01.8.8.9.9 0 01-.8.8z"/><path class="cls-5" d="M45.9 43h-3.4a.9.9 0 01-.8-.8V28.9a4.2 4.2 0 014.2-4.2h5.5a3.4 3.4 0 013 1.8l1.5 3.6a2.9 2.9 0 001.3 1.4 4.3 4.3 0 012.3 3.8v4.3a.8.8 0 01-.8.8.7.7 0 01-.8-.8v-4.3a2.8 2.8 0 00-1.5-2.4 4.8 4.8 0 01-1.9-2.1l-1.6-3.6a1.9 1.9 0 00-1.5-.9h-5.5a2.6 2.6 0 00-2.6 2.6v12.5h2.6a.8.8 0 01.8.8.9.9 0 01-.8.8z"/><path class="cls-5" d="M42.5 43H25.8a.9.9 0 01-.8-.8.8.8 0 01.8-.8h15.9v-2.9H15.2a1.4 1.4 0 00-1.4 1.4 1.2 1.2 0 00.4 1 1.4 1.4 0 001 .5h2.2a.8.8 0 01.8.8.9.9 0 01-.8.8h-2.2a3.1 3.1 0 01-2.2-.9 3.5 3.5 0 01-.8-2.2 2.9 2.9 0 013-3h27.3a.7.7 0 01.8.8v4.5a.8.8 0 01-.8.8z"/><path class="cls-5" d="M21.6 47a5.1 5.1 0 01-5.1-5.1 5 5 0 015.1-5 5 5 0 015 5 5 5 0 01-5 5.1zm0-8.5a3.5 3.5 0 00-3.5 3.4 3.5 3.5 0 003.5 3.5 3.5 3.5 0 003.4-3.5 3.4 3.4 0 00-3.4-3.4z"/><path class="cls-5" d="M21.6 44.6a2.7 2.7 0 010-5.3 2.7 2.7 0 010 5.3zm0-3.7a1 1 0 00-1 1 1 1 0 102 0 1 1 0 00-1-1zM50.1 47a5 5 0 01-5-5.1 5 5 0 0110 0 5 5 0 01-5 5.1zm0-8.5a3.4 3.4 0 00-3.4 3.4 3.4 3.4 0 106.8 0 3.4 3.4 0 00-3.4-3.4z"/><path class="cls-5" d="M50.1 44.6a2.7 2.7 0 010-5.3 2.7 2.7 0 010 5.3zm0-3.7a1 1 0 00-1 1 1 1 0 102 0 1 1 0 00-1-1zm8.6 2.1a.8.8 0 01-.8-.8.7.7 0 01.8-.8.5.5 0 00.5-.5V39a.5.5 0 00-.5-.5.8.8 0 01-.8-.8.7.7 0 01.8-.8 2.1 2.1 0 012.1 2.1v1.9a2.2 2.2 0 01-2.1 2.1z"/><path class="cls-5" d="M58.7 40.4a2.8 2.8 0 01-2.8-2.7 2.9 2.9 0 012.8-2.8.9.9 0 01.8.8.8.8 0 01-.8.8 1.2 1.2 0 00-1.2 1.2 1.1 1.1 0 001.2 1.1.9.9 0 01.8.8.8.8 0 01-.8.8zm-6.8-7.2H46a.9.9 0 01-.8-.8v-4.6a.8.8 0 01.8-.8h4.9a.7.7 0 01.7.6l1.1 4.6a.9.9 0 01-.1.7.9.9 0 01-.7.3zm-5.1-1.6h4.1l-.7-3h-3.4zm1.3 3.8h-2a.7.7 0 01-.8-.8.8.8 0 01.8-.8h2a.9.9 0 01.8.8.8.8 0 01-.8.8zM24.3 24.3h-4.2a.7.7 0 01-.8-.8v-2.1a.7.7 0 01.8-.8h4.2a.8.8 0 01.8.8v2.1a.8.8 0 01-.8.8zm-3.4-1.6h2.6v-.5h-2.6zm11.7 1.6h-4.3a.8.8 0 01-.8-.8v-2.1a.8.8 0 01.8-.8h4.3a.8.8 0 01.8.8v2.1a.8.8 0 01-.8.8zm-3.5-1.6h2.7v-.5h-2.7zm5.8 15.8a.8.8 0 01-.8-.8V22.4a.7.7 0 01.8-.8.8.8 0 01.8.8v15.3a.9.9 0 01-.8.8zm3.2 0a.9.9 0 01-.8-.8V22.4a.8.8 0 011.6 0v15.3a.9.9 0 01-.8.8z"/><path class="cls-5" d="M38.1 26.9h-2.9a.7.7 0 01-.8-.8.8.8 0 01.8-.8h2.9a.9.9 0 01.8.8.8.8 0 01-.8.8zm0 3.2h-2.9a.8.8 0 01-.8-.8.7.7 0 01.8-.8h2.9a.8.8 0 01.8.8.9.9 0 01-.8.8zm0 3.1h-2.9a.8.8 0 01-.8-.8.7.7 0 01.8-.8h2.9a.8.8 0 01.8.8.9.9 0 01-.8.8zm0 3.1h-2.9a.8.8 0 01-.8-.8.7.7 0 01.8-.8h2.9a.8.8 0 01.8.8.9.9 0 01-.8.8zM6.3 47a.9.9 0 01-.8-.8V10.3a.8.8 0 011.6 0v35.9a.9.9 0 01-.8.8z"/><path class="cls-5" d="M6.3 16.2l-.6-.2a1.4 1.4 0 01-.2-.6V8.1a.8.8 0 01.8-.8h54.4a.8.8 0 01.8.8 5.1 5.1 0 01-4.7 5L6.3 16.2zm.8-7.3v5.7l49.6-3.1a3.5 3.5 0 003.1-2.6z"/><path class="cls-5" d="M13.2 15.8l-.6-.3-6.9-6.9a.8.8 0 010-1.1.9.9 0 011.2 0l6.9 6.9a.8.8 0 010 1.1.9.9 0 01-.6.3z"/><path class="cls-5" d="M13.2 15.8l-.5-.2a.8.8 0 01-.1-1.2l6.6-6.9a.8.8 0 011.1 0 .7.7 0 01.1 1.1l-6.6 6.9a.9.9 0 01-.6.3z"/><path class="cls-5" d="M26.5 15l-.6-.2-6.6-6.1a.8.8 0 01-.1-1.2.8.8 0 011.1 0l6.7 6.1a.7.7 0 01.1 1.1z"/><path class="cls-5" d="M26.5 14.9a.7.7 0 01-.6-.2.8.8 0 010-1.1l6.6-6.1a.9.9 0 011.2 0 .9.9 0 01-.1 1.2l-6.6 6c-.1.2-.3.2-.5.2z"/><path class="cls-5" d="M40 14.1h-.5l-6.9-5.4a.8.8 0 01-.2-1.1.9.9 0 011.2-.2l6.9 5.3a.8.8 0 01.1 1.1.7.7 0 01-.6.3z"/><path class="cls-5" d="M40 14.1a.9.9 0 01-.7-.3.9.9 0 01.2-1.1l7.2-5.3a.8.8 0 011.1.2.7.7 0 01-.2 1.1L40.5 14z"/><path class="cls-5" d="M53.8 13.2h-.4l-6.7-4.5a.7.7 0 01-.2-1.1.9.9 0 011.1-.2l6.6 4.4a.8.8 0 01.3 1.1.9.9 0 01-.7.3z"/><path class="cls-5" d="M53.8 13.2a.9.9 0 01-.7-.3 1 1 0 01.3-1.2l6.8-4.3a.9.9 0 011.1.2.8.8 0 01-.2 1.2l-6.9 4.3zM60.2 47H4a.9.9 0 01-.8-.8.8.8 0 01.8-.8h56.2a.8.8 0 01.8.8.9.9 0 01-.8.8z"/></svg>