<svg xmlns="http://www.w3.org/2000/svg" width="110.096" height="110.235"><path data-name="Trazado 11862" d="M38.881 2.765a.5.5 0 01.39-.1.431.431 0 00.185-.02 2.475 2.475 0 01.809-.132c.075 0 .184.067.22.035.112-.093.161.043.23.036.172-.019.364.083.52-.065a4.543 4.543 0 00.671-.085.325.325 0 00.206-.075 2.272 2.272 0 01.625-.378 3.687 3.687 0 01.714-.17c.51-.048 1.023-.057 1.536-.088a1.421 1.421 0 00.332-.043 2.853 2.853 0 01.63-.177c.239-.01.361-.21.567-.254a.063.063 0 00.026-.026c-.013-.017-.028-.046-.043-.046-.181 0-.364 0-.545.007-.21.2-.474.138-.732.151a2.574 2.574 0 00-1.064.158 2.274 2.274 0 01-.956.158.98.98 0 00-.21.055c-.183.036-.365.068-.548.1a4.912 4.912 0 00-.587.1 8.356 8.356 0 01-1.572.372c-.138.125-.323.035-.47.1a4.917 4.917 0 01-.81.23 1.65 1.65 0 00-.387.1.4.4 0 00-.084.081c.032.014.062.041.094.041a.407.407 0 00.253-.065zm-25.1 19.189a1.813 1.813 0 00.61-.567c.1-.125.183-.264.274-.4a.158.158 0 01.057-.055c.17-.072.3-.155.314-.38 0-.068.119-.184.256-.2.113-.016-.032-.2.159-.251a.644.644 0 00.354-.426c.01-.028-.014-.068-.025-.112a2.828 2.828 0 00-.307.23c-.087.087-.141.207-.228.3-.145.149-.219.368-.438.442 0 .162-.21.135-.239.248-.041.152-.167.222-.256.326-.193.223-.391.441-.581.665a.316.316 0 00-.045.138.264.264 0 00.01.072c.028-.012.057-.019.085-.03zm10-8.989c-.194.046-.306.223-.464.3a5.03 5.03 0 00-1.169.867 1.842 1.842 0 01-.216.141c-.083.054-.167.106-.243.167s-.126.149-.2.172a1.345 1.345 0 00-.512.38c-.072.065-.162.113-.236.18-.03.026-.035.08-.051.12.035.012.074.038.1.03a.413.413 0 00.164-.075 2.881 2.881 0 01.529-.43c.251-.116.43-.327.68-.438.078-.033.18-.088.2-.157.045-.138.167-.167.255-.239.2-.167.414-.319.626-.474a1.11 1.11 0 01.338-.22 1.318 1.318 0 00.5-.307.369.369 0 00.057-.093h-.193a.716.716 0 01-.165.076zm37.918 82.7a.772.772 0 01-.4.023 1.783 1.783 0 00-.475.064.53.53 0 00-.248.071c-.058.036-.172-.033-.261-.03-.123.006-.287-.009-.361.061-.133.128-.242-.01-.361.022a2.04 2.04 0 01-.378.036.816.816 0 00-.225.028.776.776 0 01-.584 0 .563.563 0 00-.3-.023 1.54 1.54 0 01-.93 0 .261.261 0 00-.116 0c-.019 0-.048.033-.046.049 0 .035.014.094.033.1a3.046 3.046 0 00.436.083c.156.013.314 0 .471.006.068 0 .171.085.194.064.128-.119.272-.054.407-.064s.29.013.43-.009a2.834 2.834 0 00.362-.009 2 2 0 01.639-.064c.039 0 .093.016.114 0 .159-.141.348-.051.519-.077a4.883 4.883 0 01.556-.074 1.123 1.123 0 00.552-.09.769.769 0 01.4-.071h.314c.028 0 .052-.036.114-.084-.067-.033-.1-.07-.139-.068a2.082 2.082 0 00-.716.061zm48.382-38.712a1.872 1.872 0 010-.393 1.966 1.966 0 00-.21-.977 2.662 2.662 0 01-.188-.867q.009-.924 0-1.848c0-.135.059-.285-.074-.4a.12.12 0 010-.113c.148-.228.051-.478.075-.716a2.444 2.444 0 01.075-.874.268.268 0 000-.229c-.11-.142-.058-.3-.072-.443a.627.627 0 00-.019-.149 2.745 2.745 0 01-.13-.73 2.078 2.078 0 00-.239-.926.623.623 0 01-.078-.319 6.9 6.9 0 00-.164-1.39c-.016-.1-.08-.191-.071-.281a2.275 2.275 0 00-.1-.514c-.006-.057-.067-.114-.062-.168a1.521 1.521 0 00-.242-.884.613.613 0 01-.038-.542.319.319 0 00-.022-.352.658.658 0 01-.1-.432c.012-.2 0-.393 0-.588-.193-.194-.171-.477-.283-.71s-.317-.454-.268-.754a.424.424 0 00-.162-.446.255.255 0 01-.071-.164 6.949 6.949 0 00-.251-.684c-.054-.229-.055-.509-.3-.662-.012-.007.007-.054 0-.075-.087-.2-.109-.43-.193-.627a6.642 6.642 0 01-.361-1.032c-.029-.128-.141-.245-.142-.368a.781.781 0 00-.1-.4c-.12-.193.02-.472-.222-.62-.025-.014 0-.1-.007-.151-.025-.2-.049-.4-.08-.6a.177.177 0 00-.057-.094.347.347 0 01-.106-.233 2.082 2.082 0 00-.152-.446 9.115 9.115 0 01-.19-.472.7.7 0 00-.184-.361c-.133-.11-.087-.319-.162-.478a2.477 2.477 0 01-.18-.556 1.6 1.6 0 00-.254-.717 2.317 2.317 0 01-.288-.512.806.806 0 00-.126-.22c-.084-.093-.174-.167-.032-.28.012-.01 0-.072 0-.072-.187 0-.106-.209-.193-.267-.167-.107-.2-.288-.267-.443a1.16 1.16 0 00-.229-.378.446.446 0 01-.091-.157 2.682 2.682 0 00-.371-.794 1.283 1.283 0 01-.194-.429c-.033-.119-.009-.309-.154-.361s-.167-.164-.223-.261c-.067-.114-.1-.245-.161-.365a.864.864 0 00-.171-.317c-.125-.1-.107-.259-.193-.355-.152-.171-.187-.4-.329-.574s-.094-.433-.251-.6a.268.268 0 00-.2-.3c-.193-.057-.235-.213-.325-.342-.028-.039-.033-.125-.058-.128-.249-.033-.229-.317-.4-.429a.32.32 0 01-.117-.3.351.351 0 00-.233-.391.444.444 0 01-.149-.112c-.17-.217-.475-.33-.5-.656-.3-.272-.409-.678-.669-.978a.266.266 0 01-.094-.238.338.338 0 00-.152-.332c-.064-.059-.1-.148-.165-.2-.2-.167-.243-.429-.41-.622a5.094 5.094 0 00-.385-.385 7.76 7.76 0 01-.513-.645.3.3 0 01-.049-.407c.059-.093.02-.146-.088-.136s-.235 0-.264-.11-.084-.138-.183-.128c-.038 0-.1.013-.113-.007a1.449 1.449 0 01-.338-.446.457.457 0 00-.3-.348.394.394 0 01-.167-.164 8.2 8.2 0 01-.575-.94c-.07-.152-.126-.159-.307-.1-.043.013-.117.043-.13.028a2.752 2.752 0 00-.6-.448 3.132 3.132 0 01-.449-.439 2.84 2.84 0 01-.425-.4c-.086-.13-.139-.306-.339-.378-.168-.061-.117-.351-.309-.455-.055-.03-.065-.165-.116-.177-.233-.058-.268-.283-.381-.433-.1-.129-.164-.254-.351-.242a.225.225 0 01-.135-.048 2.78 2.78 0 01-.784-.767 2.061 2.061 0 00-.441-.522c-.293-.242-.6-.462-.88-.725a.467.467 0 00-.374-.141 2.379 2.379 0 01-.352 0 .239.239 0 01-.142-.035 25.986 25.986 0 01-.635-.555c-.013-.012 0-.051 0-.077a.259.259 0 01.083.006c.055.023.107.055.162.081.016.007.049.01.054 0 .01-.022.023-.055.013-.071-.026-.043-.065-.078-.094-.119a3.638 3.638 0 00-.832-.656 2.713 2.713 0 00-.92-.622c-.156-.191-.429-.209-.588-.37a4.613 4.613 0 00-.694-.52 2.2 2.2 0 01-.243-.168c-.126-.113-.243-.238-.364-.356-.227.068-.267-.226-.452-.236-.187-.212-.471-.264-.691-.427a8.739 8.739 0 00-1.03-.64 6.237 6.237 0 01-.6-.365 2.092 2.092 0 01-.4-.258c-.125-.148-.361-.08-.443-.272a.92.92 0 01-.581-.291c-.288-.22-.617-.38-.887-.625a.17.17 0 00-.1-.029 1.064 1.064 0 01-.709-.228 2.582 2.582 0 00-.825-.462 3.071 3.071 0 01-1-.443c-.17-.109-.355-.165-.522-.265-.1-.059-.239.043-.319-.084-.351-.026-.593-.365-.962-.333-.09-.136-.223-.139-.368-.162s-.248-.142-.409-.155c-.1-.007-.19-.133-.29-.142a3.539 3.539 0 01-1.127-.319.235.235 0 00-.078 0 .3.3 0 000 .081c.029.126.18.222.088.375l-.361-.142a.289.289 0 01-.068-.023 1.084 1.084 0 00-.454-.145 1.647 1.647 0 01-.835-.267.48.48 0 00-.341-.107 1.76 1.76 0 01-.922-.255 1.247 1.247 0 00-.607-.149.379.379 0 01-.316-.1 1.038 1.038 0 00-.661-.275 3.767 3.767 0 01-.8-.181c-.1-.019-.19-.113-.291-.146-.129-.042-.27-.045-.4-.085a2.709 2.709 0 01-.33-.152c-.11.138-.264.061-.4.072a.254.254 0 01-.132-.055 5.769 5.769 0 00-1.127-.412 1.109 1.109 0 00-.281-.075 1.094 1.094 0 01-.309-.109c-.154-.046-.317-.258-.509-.057a.119.119 0 01-.113 0c-.225-.145-.5-.117-.735-.219a1.288 1.288 0 00-.784-.08c-.154.036-.274.114-.41-.014a.814.814 0 01-.478.078.2.2 0 01-.1-.033.426.426 0 00-.371-.03 1.828 1.828 0 01-.927 0 .7.7 0 00-.525.035c-.072.045-.1 0-.165-.017-.135-.051-.312-.139-.417-.093-.265.116-.564.075-.817.214a.2.2 0 01-.132-.018.713.713 0 00-.584-.007.166.166 0 01-.132 0 .316.316 0 00-.322-.014.547.547 0 01-.178.045 9.22 9.22 0 01-1.059-.007c-.349-.036-.691.175-1.039.012-.038-.017-.1.007-.146.019a1.054 1.054 0 01-.212.054c-.472.006-.945.026-1.416 0s-.945.1-1.422.09a1.923 1.923 0 00-.439.075c-.019 0-.03.039-.046.061.116.075.159.248.329.251h1.1c.064-.2.223.059.3-.064h1.127c.049.113.128-.029.165.013.093.109.145.017.225-.019a.253.253 0 01.225 0c.117.11.246.048.368.07s.239.059.361.075a.542.542 0 00.18-.039c.035-.009.088-.045.1-.033.126.129.248.081.37 0a.434.434 0 00.4.071c.1-.022.165.142.256.022a4.9 4.9 0 01.968.016 2.255 2.255 0 00.6.035.56.56 0 01.256 0c.171.055.372.016.529.155.007.006.051-.039.081-.043a.355.355 0 01.188-.012 2.084 2.084 0 00.8.077c.085.007.17.039.255.043.294.014.559.249.874.114a.151.151 0 01.112.01 1.844 1.844 0 00.882.145c.093 0 .213-.038.27.007a.48.48 0 00.406.064c.165-.026.285.1.439.087a6.337 6.337 0 01.991.183c.17.014.345.1.527.141a2.292 2.292 0 00.559.07.226.226 0 01.107.026 1.739 1.739 0 00.936.21c.049 0 .119-.013.148.014a.791.791 0 00.568.178c.209 0 .406.1.616.046a.416.416 0 01.23.007 3.485 3.485 0 001.322.223.357.357 0 01.275.1 1.643 1.643 0 00.517.355 5.486 5.486 0 001.077.242 2 2 0 01.7.213.814.814 0 00.426.116 2.756 2.756 0 01.761.149c.19.046.339.236.565.164a.155.155 0 01.045.087 1.619 1.619 0 01-.033.22.971.971 0 00-.164-.072c-.049-.013-.106.006-.155 0-.17-.036-.109.142-.183.2s.045.17.094.172c.3.025.514.322.842.261.048-.01.109.045.162.074a2.515 2.515 0 00.813.32c.061.007.1.123.191.041l-.168-.126c-.11-.078-.219-.216-.335-.222-.2-.012-.3-.174-.456-.239a4.381 4.381 0 01-.485-.249.11.11 0 01-.036-.1c0-.023.052-.052.081-.054a1.99 1.99 0 01.9.306.956.956 0 00.325.159 1.41 1.41 0 01.536.212.564.564 0 00.514.175c.083-.025.141.03.206.074a.629.629 0 00.241.08 1.085 1.085 0 01.614.32.137.137 0 01.033.1c-.007.025-.054.049-.086.052a1.634 1.634 0 01-.772-.125c-.1-.038-.146-.023-.191.043-.09.132-.164.272-.254.4s-.154.141-.3.071a3.117 3.117 0 00-1.332-.4.5.5 0 01-.2-.077c-.194-.1-.414-.143-.606-.242a3.428 3.428 0 00-.652-.232 4.063 4.063 0 01-.785-.28 4.59 4.59 0 00-.764-.246 2.068 2.068 0 00-.358-.078.439.439 0 01-.333-.155c-.01-.014-.048-.01-.072-.013a.968.968 0 01-.467-.138c-.041-.03-.1-.1-.113-.093-.159.1-.235-.02-.329-.109a.22.22 0 00-.135-.052 3.588 3.588 0 01-.839-.156 2.177 2.177 0 00-.517-.075.918.918 0 01-.359-.088 2.335 2.335 0 00-.926-.232.626.626 0 01-.233 0 1.871 1.871 0 00-.567-.148 1.788 1.788 0 01-.636-.081.174.174 0 00-.152 0c-.12.129-.27.052-.4.075a5.119 5.119 0 01-.951-.084 1.871 1.871 0 01-.756-.064c-.141-.059-.329.016-.475-.088-.122.11-.239.028-.368.017-.18-.014-.339-.093-.516-.1a15.962 15.962 0 01-.951-.078.559.559 0 01-.2-.077 1.179 1.179 0 00-.768-.238c-.029 0-.062-.039-.1-.048a2.154 2.154 0 00-.427-.1c-.274-.016-.551-.012-.826 0s-.517-.114-.793-.087-.577.006-.955.006a8.211 8.211 0 00-1.365.059c-.174.046-.18.025-.18.157 0 .17.128.085.2.1.112.017.206-.148.314-.064s.194.1.3 0a.149.149 0 01.145-.01c.123.113.268.071.4.071a.528.528 0 00.33-.059c.072-.048.23.055.351.059.288.01.577 0 .865 0a1.411 1.411 0 01.561.07 1.79 1.79 0 00.79.087c.091 0 .184.006.275 0a.956.956 0 01.643.157c.058.039.167.1.2.072.143-.112.212.028.306.074.022.01.035.035.052.054a.184.184 0 01-.062.036 2.206 2.206 0 01-.519.085c-.339-.019-.681 0-1.022-.009s-.659-.048-.99-.077c-.058-.006-.114-.041-.174-.052s-.185-.052-.219-.019c-.151.148-.294.016-.409-.022a.834.834 0 00-.326-.061 1.594 1.594 0 01-.827-.187c-.025-.012-.071-.026-.081-.016-.213.241-.493.071-.738.122-.23-.193-.458-.036-.667.036a.449.449 0 01-.293.033.978.978 0 00-.649-.007c-.226.046-.477.22-.72.019a.12.12 0 00-.113 0c-.132.133-.294.07-.442.072-.406.01-.811 0-1.219.006-.062 0-.161-.006-.18.026-.114.2-.272.1-.387.043-.164-.087-.3-.02-.451-.007a4 4 0 01-.871.1c-.077-.01-.2.091-.235.064-.235-.226-.574.162-.785-.141a.068.068 0 00-.026.014c-.19.181-.427.123-.652.139a.321.321 0 00-.194.088c-.036.038-.028.117-.036.178-.017.141-.029.148-.159.083-.054-.028-.136-.042-.156-.087-.084-.174-.193-.033-.28-.022s-.143.123-.216.125-.13-.1-.206-.128c-.093-.029-.178-.013-.165.129a.157.157 0 01-.161.177c-.1 0-.058-.09-.074-.145-.009-.03-.035-.084-.051-.084-.136.009-.281-.048-.4.087a1.084 1.084 0 01-.271.194c-.033.019-.117.017-.128 0-.1-.183-.236-.028-.352-.042s-.113 0-.138.164c0 .025-.067.065-.07.064-.125-.122-.246-.019-.37 0a1.21 1.21 0 00-.755.367.274.274 0 01-.188.1c-.338-.035-.613.238-.951.18-.159.119-.368.029-.536.133-.049.032-.123.014-.116.107a.472.472 0 010 .156.2.2 0 01-.307.1c-.061-.048-.109-.113-.17-.164a.168.168 0 00-.1-.032c-.088.142-.256.019-.351.106a1.013 1.013 0 00-.243.291c-.041.09-.094.065-.151.071-.1.01-.094-.061-.093-.126 0-.11-.042-.133-.142-.087-.075.036-.161.052-.238.087-.033.016-.057.054-.085.081a.707.707 0 00.087.045c.1.042.2.078.3.123.067.032.125.1.188.106s.129-.061.191-.1.165-.132.177-.12c.136.128.216.036.319-.049a.241.241 0 01.217-.009c.045.019.1.12.088.148a.4.4 0 01-.167.133c-.107.057-.22.1-.329.154-.017.009-.026.036-.038.055a.245.245 0 00.067.029 1.765 1.765 0 00.651-.135 3.593 3.593 0 01.391-.1 2.962 2.962 0 00.475-.087 1.96 1.96 0 01.8-.152c.1.006.245.043.307-.007.135-.113.272-.046.407-.071a1.95 1.95 0 01.4-.071 1.122 1.122 0 00.478-.089 3.783 3.783 0 01.8-.146 1.038 1.038 0 00.5-.136.7.7 0 01.426-.113c.37-.009.738-.048 1.107-.074.013 0 .033.006.038 0 .126-.171.333-.028.5-.138.139-.1.4-.016.533-.113s.18.062.291-.012a1.053 1.053 0 01.652-.133c.248.014.5 0 .746 0a.985.985 0 00.228-.02 1.464 1.464 0 01.829 0c.033.012.088.022.1.006.12-.129.272-.045.407-.064.09-.012.2.032.271-.007.246-.145.507-.036.758-.072.123.125.3.067.452.142s.333.013.5.016c.022 0 .043.019.067.028-.022.029-.038.07-.065.081a.505.505 0 01-.177.045c-.117.007-.238-.007-.354.006a2.851 2.851 0 00-.361.075 1.431 1.431 0 01-.283.075c-.327.009-.655-.007-.982.006s-.633.067-.951.071a4.575 4.575 0 01-.91.084h-.038c-.126.145-.294.046-.441.075s-.293.064-.439.077c-.409.032-.817.055-1.226.08-.026 0-.058-.01-.078 0-.358.219-.78.117-1.162.228-.309.088-.645.084-.952.178a1.634 1.634 0 01-.4.065 1.071 1.071 0 00-.248.062 3.906 3.906 0 01-1.274.254.314.314 0 00-.152.01 4.433 4.433 0 01-1.407.3c-.046.006-.088.045-.135.052a5.43 5.43 0 01-.954.261c-.164.139-.381.085-.569.142a2.248 2.248 0 01-.442.165 1.3 1.3 0 00-.493.146 2.72 2.72 0 01-.761.246 1.973 1.973 0 00-.622.212c-.2.112-.475.042-.646.245a.149.149 0 01-.107.022.651.651 0 00-.452.145.43.43 0 01-.236.087 1.73 1.73 0 00-.669.191c-.136.052-.291.143-.416.114a1.714 1.714 0 00-.488.012.781.781 0 00-.539.13.246.246 0 01-.219.025 1.41 1.41 0 00-.993.02c-.038.01-.049.041-.113.026-.29-.071-.58-.119-.8.171-.051.065-.177.074-.27.1-.048.014-.135 0-.146.019-.083.18-.291.126-.419.239s-.32.123-.454.222a.882.882 0 01-.732.232c-.019 0-.045.017-.067.028a12.092 12.092 0 00-1.114.532 1.484 1.484 0 01-.578.212 1.945 1.945 0 00-.435.1 2.529 2.529 0 00-1.026.464c-.03.03-.052.068-.081.1-.106.113-.2.294-.325.325-.287.071-.452.3-.677.442a1.8 1.8 0 00-.238.181.1.1 0 000 .1.109.109 0 00.1.026.708.708 0 00.19-.109c.058-.049.123-.075.158 0a.232.232 0 01-.023.181c-.1.171-.306.052-.443.164-.067.055-.054-.087-.093-.117a.157.157 0 00-.13 0 5.216 5.216 0 01-.671.274 1.073 1.073 0 00-.491.336.185.185 0 00-.028.067.535.535 0 00.068 0c.075-.006.187.016.222-.025.146-.18.391-.148.556-.285.057-.046.191-.087.225-.058.106.1-.1.156-.059.261-.036.01-.1.036-.1.026-.067-.1-.11-.051-.172.009s-.141.145-.212.145c-.3-.006-.367.219-.445.429a1.226 1.226 0 01-.684.593.329.329 0 00-.264.129.44.44 0 01-.432.2.336.336 0 00-.27.23c0 .132.123.046.172.083a2.1 2.1 0 01.256.238.081.081 0 01-.009.078.3.3 0 01-.339.085.71.71 0 01-.359-.174c-.077-.1-.119-.03-.175.006s-.155.068-.178.126c-.084.2-.29.264-.417.412a.234.234 0 01-.238.09.322.322 0 00-.327.158c-.085.109-.145.258-.255.322a1.556 1.556 0 00-.519.532.288.288 0 00-.022.083c.035 0 .078 0 .1-.013a2.755 2.755 0 00.274-.194c.177-.145.339-.31.527-.438a1.117 1.117 0 01.456-.188c.3-.042.329-.014.4-.214.041-.122.093-.128.185-.125s.125 0 .158-.107c.038-.128.336-.178.439-.11.061.041.007.184-.123.323a.654.654 0 00-.054.057.144.144 0 00-.017.055c.035 0 .084.025.1.009a2.221 2.221 0 01.446-.349 3.067 3.067 0 00.71-.474 2.948 2.948 0 01.6-.354 7 7 0 001.514-.9 1.258 1.258 0 01.407-.245 1.358 1.358 0 00.519-.368 1.061 1.061 0 01.358-.27c.349-.1.609-.356.94-.485a3.812 3.812 0 00.788-.558c.136-.1.33-.088.426-.2a3.433 3.433 0 01.561-.374 1.1 1.1 0 01.5-.2.905.905 0 00.464-.22.882.882 0 01.641-.261.365.365 0 00.277-.1 2.6 2.6 0 01.452-.23 2.174 2.174 0 01.484-.256 1.789 1.789 0 01.577-.126.316.316 0 00.142-.035c.281-.116.612-.139.811-.416a.042.042 0 01.03-.017c.061.01.122.025.181.036-.017.045-.033.09-.052.135-.065.158-.242.114-.351.2s-.219.167-.33.248a.111.111 0 01-.072.013c-.222-.038-.326.161-.49.242a.109.109 0 00-.035.1.1.1 0 00.084.052.845.845 0 00.254-.049 2.953 2.953 0 01.745-.293.528.528 0 00.267-.11c.239-.185.554-.007.793-.174.2.183.364-.016.542-.057a3.513 3.513 0 01.351-.1.943.943 0 00.619-.316 1.89 1.89 0 011.224-.554 1.411 1.411 0 00.222-.033 2.232 2.232 0 01.859-.206c.041 0 .083-.062.128-.068a9.3 9.3 0 00.888-.349.939.939 0 00.275-.19c.068-.052.133-.11.2-.167a1.226 1.226 0 00-.307-.012 1.706 1.706 0 00-.512.181.776.776 0 01-.5.128c-.309-.026-.575.152-.878.168-.08 0-.151.132-.23.2-.028.02-.074.014-.1.032-.275.157-.588.058-.884.138a3.655 3.655 0 00-.738.219c-.038.019-.113.03-.129.01-.094-.112-.152-.032-.226.022-.017.013-.081-.007-.1-.03a.11.11 0 01.012-.1.534.534 0 01.436-.18c.057 0 .154-.017.164-.049a.366.366 0 01.441-.27.167.167 0 00.1-.032c.32-.23.745-.145 1.071-.358a.081.081 0 01.075 0c.132.119.223.142.31-.059.022-.051.2-.016.277-.065a1.874 1.874 0 01.648-.239 2.673 2.673 0 01.742-.11 2.025 2.025 0 00.585-.041 1.285 1.285 0 00.493-.242.688.688 0 01.8-.122c.042.026.122 0 .183-.012a.885.885 0 01.212-.052.619.619 0 00.48-.168.211.211 0 01.126-.068 1.11 1.11 0 00.458-.133.224.224 0 01.272.048c.129.12.281.216.407.339.077.075.1-.014.142-.016.191 0 .359-.136.558-.087a.242.242 0 00.154 0 3.017 3.017 0 01.645-.149 1.84 1.84 0 01.675-.08c.114-.123.265-.061.4-.08s.291-.062.439-.075c.383-.035.762 0 1.151-.062.406-.064.82-.119 1.23-.158.38-.035.762-.088 1.145-.094a.449.449 0 01.291.061c.062.042.2-.042.313-.061a.139.139 0 01.1.029c.055.049.093.048.167.019a1.242 1.242 0 01.807-.113 1.747 1.747 0 00.443.061c.1 0 .212.039.283-.074.072.106.181.075.281.075h1.494c.085 0 .178.032.255-.052a.144.144 0 01.142-.02c.19.13.4.051.6.075a3.837 3.837 0 00.6.072c.53-.019 1.049.142 1.579.087.043 0 .09.038.136.045a2.006 2.006 0 00.584.106.64.64 0 01.454.075.333.333 0 00.394.074c.254-.126.509-.032.759-.064.048-.006.125.057.146.039a.113.113 0 01.193.023.368.368 0 00.439.164c.185-.064.349.172.525.012.265.148.584.08.854.216.052.026.142-.012.21-.033.112-.035.238-.08.316.025a.535.535 0 00.478.188 1.686 1.686 0 01.383.113c.059.017.146.057.177.032.2-.164.139.046.128.1a.747.747 0 01-.119.225c-.039.064-.078.028-.139.017a2.133 2.133 0 00-.669-.1.308.308 0 01-.148-.02 1.985 1.985 0 00-.769-.139.871.871 0 01-.374-.042 1.553 1.553 0 00-.661-.1 1.578 1.578 0 01-.37 0c-.23-.032-.471 0-.706-.012s-.449-.052-.675-.075a2.6 2.6 0 01-.951-.077c-.032-.014-.1-.016-.113 0-.1.125-.242.068-.365.071-.393.007-.787-.019-1.178.009s-.79-.085-1.187-.085c-.538 0-1.075.023-1.611-.006s-1.077.1-1.619.087c-.275-.009-.551 0-.826 0-.065 0-.154-.028-.193 0-.151.125-.322.052-.483.074s-.343.061-.517.077a5.945 5.945 0 00-1.071.07c-.3.081-.636.038-.946.1-.226.043-.458.032-.672.085a3.26 3.26 0 01-.4.065 2.3 2.3 0 01-.4.071c-.284-.014-.548.145-.833.084-.171.129-.388.019-.552.09a1.639 1.639 0 01-.562.067h-.078a.416.416 0 00-.381.442v.078c-.038.249-.138.335-.4.343a.436.436 0 00-.287.072.455.455 0 01-.277.081 3.876 3.876 0 00-1.156.252c-.23.068-.5.033-.694.222-.02.019-.078 0-.116 0a3.836 3.836 0 00-.32.08c-.058.017-.113.078-.164.072-.287-.032-.506.242-.8.168a.535.535 0 01-.448.151c-.183-.012-.3.138-.483.172-.245.046-.474.175-.722.249a2.855 2.855 0 01-.542.194 2.923 2.923 0 00-.555.194c-.252.067-.5.185-.754.264a3.477 3.477 0 00-.512.187.926.926 0 01-.527.162c-.068-.007-.148.077-.22.122a.957.957 0 01-.154.1c-.483.194-.968.384-1.437.613-.249.12-.509.229-.768.325a3.667 3.667 0 00-.493.236c-.161.085-.326.162-.485.251a7.451 7.451 0 01-.668.38 3.536 3.536 0 00-.694.319 3.137 3.137 0 01-.413.236 4.5 4.5 0 00-.809.41c-.254.207-.588.28-.807.533-.02.025-.068.023-.1.041q-.546.293-1.091.591a.544.544 0 00-.125.077.883.883 0 01-.412.246 1.524 1.524 0 00-.4.252c-.022.014-.042.054-.057.049-.161-.038-.23.088-.325.172a1.526 1.526 0 01-.175.145 6.691 6.691 0 00-.584.388 4.066 4.066 0 01-.752.468 1.909 1.909 0 00-.4.277 3.489 3.489 0 01-.527.435 5.167 5.167 0 00-1.094.871 2.749 2.749 0 01-.294.235c-.285.228-.575.452-.855.687a3.942 3.942 0 01-.633.558c-.061.032-.091.117-.139.175a.781.781 0 01-.171.2c-.474.275-.736.79-1.213 1.059-.029.154-.2.164-.274.272a2.627 2.627 0 01-.251.329c-.4.436-.817.867-1.22 1.3a2.907 2.907 0 00-.477.588 2.644 2.644 0 01-.412.538 7.891 7.891 0 00-.645.793c-.17.249-.384.467-.548.719s-.359.455-.516.693a4.651 4.651 0 00-.412.612 1.643 1.643 0 01-.467.632c-.27.538-.632 1.02-.919 1.546-.041.075-.091.146-.138.219a1.034 1.034 0 00-.162.246 1.947 1.947 0 01-.41.74 5.151 5.151 0 00-.512.884 3.153 3.153 0 01-.527.922c-.007.006 0 .023-.006.036-.038.341-.33.567-.4.9-.02.1-.125.165-.164.287a10.471 10.471 0 01-.464 1.1 2.455 2.455 0 00-.2.39 4.857 4.857 0 01-.191.471 3.334 3.334 0 00-.222.494 3.345 3.345 0 01-.249.687 1.1 1.1 0 00-.078.242 2.294 2.294 0 01-.312.736.465.465 0 00-.081.123 6.206 6.206 0 01-.323.81c-.035.083-.094.152-.071.245.028.112-.052.19-.077.283s0 .207-.035.3a3.068 3.068 0 00-.214.5c-.03.172-.2.325-.213.5-.022.2-.206.312-.213.507a.2.2 0 01-.081.156c-.158.072-.152.21-.207.345a4.471 4.471 0 01-.209.661 2.956 2.956 0 00-.213.665 2 2 0 01-.087.317c-.12.239-.256.471-.385.706-.016.032-.036.1-.028.1.168.1 0 .2 0 .293a4.366 4.366 0 00-.09.636.766.766 0 01-.119.378c-.068.132-.21.067-.32.072-.09 0-.085.051-.107.117a1.306 1.306 0 00-.152.684c-.12.143-.038.326-.085.477a2.881 2.881 0 00-.152.919c0 .059-.043.117-.048.175-.01.185-.143.352-.039.558a.308.308 0 01-.049.327.606.606 0 00-.094.31 1.582 1.582 0 01-.071.443c-.058.142-.019.313-.077.478a2.2 2.2 0 00-.016.546c-.013.187-.058.371-.074.558-.032.381-.054.764-.081 1.146a.8.8 0 01-.036.1c-.012.043-.041.113-.023.129.112.1.042.222.059.332a7.658 7.658 0 01-.078 1.107v1.926a1.309 1.309 0 00.071.678.2.2 0 010 .188c-.12.11-.07.245-.07.367 0 .5.013 1 .062 1.5.059.61.014 1.23.013 1.846a.566.566 0 01-.014.229.69.69 0 00.013.651c.033.07.077.174.048.228a.928.928 0 00-.041.493c0 .172-.067.359.07.522a.147.147 0 01-.007.146c-.112.1-.059.219-.065.329a2.66 2.66 0 00.151 1.036 3.033 3.033 0 01.083.477c.02.122-.054.262.075.365.012.007-.009.09-.029.1a.686.686 0 01-.314.081c-.094-.019-.125-.13-.13-.251a3.933 3.933 0 00-.206-1.013c-.014-.046-.041-.117-.02-.143.107-.132-.03-.243-.022-.365 0-.055-.052-.112-.059-.17-.03-.277-.052-.555-.083-.832 0-.048-.039-.09-.046-.138-.041-.246-.181-.494-.1-.738.09-.268-.078-.51-.009-.764-.22-.272-.1-.629-.228-.927-.049-.11 0-.261-.012-.39a3.74 3.74 0 00-.075-.4 2.906 2.906 0 01-.075-.361 2.568 2.568 0 00-.081-.872c-.046-.107.093-.2.012-.335-.062-.107 0-.283-.016-.425-.016-.161.08-.339-.072-.481a.075.075 0 010-.074c.146-.129.068-.3.07-.442a1.246 1.246 0 00-.041-.491c-.051-.129.038-.307.045-.465.01-.249 0-.5 0-.748a.592.592 0 01.019-.228c.107-.262.1-.554.207-.819a.331.331 0 00-.1-.387 1.5 1.5 0 01-.2-.7c.023-.094.094-.168.083-.283-.01-.093-.051-.2.045-.293.119-.11-.116-.162-.052-.271.017-.03.014-.08.038-.1.067-.059 0-.084-.028-.112-.058-.055-.08-.078-.019-.172a1.1 1.1 0 00.167-.755c-.036-.3.083-.619-.075-.913-.012-.02.014-.078.039-.1.167-.126.136-.294.085-.454a.205.205 0 010-.114 1.45 1.45 0 00-.028-.79.254.254 0 01.038-.245.994.994 0 00.181-.633c-.007-.042.036-.088.046-.135a1.425 1.425 0 00.109-.585.715.715 0 01.083-.475.831.831 0 00.072-.442 1.961 1.961 0 01.139-.729 1.246 1.246 0 00.181-.754.783.783 0 01.148-.606.974.974 0 00.083-.319 4.546 4.546 0 00.19-.787.211.211 0 01.048-.1.414.414 0 00.081-.283.375.375 0 01.038-.18 3.366 3.366 0 00.3-.856c.035-.258.229-.47.207-.74.154-.145.035-.361.152-.529.2-.28.213-.64.387-.94a1.963 1.963 0 00.11-.427 4.3 4.3 0 00.146-.449 1.807 1.807 0 01.2-.543c.1-.185.242-.345.336-.53a.943.943 0 00.171-.523.571.571 0 01.1-.343 3.93 3.93 0 00.293-.667c.061-.128.049-.285.193-.4a.574.574 0 00.175-.425.864.864 0 01.184-.516c.13-.2.226-.407.346-.607.043-.074.093-.145.138-.217a2.2 2.2 0 00.28-.474 3.207 3.207 0 01.265-.6c.114-.213.248-.423.375-.633.062-.107.2-.2.209-.3.026-.206.181-.32.262-.484s.156-.329.251-.485c.141-.23.294-.455.443-.681a2.024 2.024 0 00.409-.7c.012-.054.078-.1.119-.146a2.005 2.005 0 00.406-.5c.135-.365.517-.548.623-.922.235-.2.29-.538.555-.713.01-.006.023-.022.022-.029-.042-.181.114-.245.2-.351a1.719 1.719 0 01.409-.417.745.745 0 00.323-.333 1.468 1.468 0 01.462-.593 1.528 1.528 0 00.33-.535c.1-.223.09-.223.387-.43a4.3 4.3 0 00.468-.388 7.447 7.447 0 00.555-.556c.162-.188.448-.248.527-.517.216-.007.188-.246.326-.335.342-.222.5-.62.8-.878.078-.252.3-.384.478-.545.307-.281.739-.435.875-.885a.051.051 0 01.028-.028 2.211 2.211 0 00.746-.745c.054-.074.119-.167.2-.19a.619.619 0 00.372-.317c.178-.352.525-.514.793-.758.21-.191.454-.356.675-.541s.461-.406.691-.61c.048-.043.084-.114.141-.135a1.963 1.963 0 00.656-.5c.21-.2.51-.28.688-.525.055-.075.164-.11.239-.172.023-.019.022-.068.03-.1-.028 0-.059-.007-.081.006-.075.042-.146.09-.219.136-.217.145-.406.323-.638.452a4.245 4.245 0 00-1.059.769 1.284 1.284 0 01-.236.18c-.338.213-.654.459-.972.7-.2.157-.371.354-.575.5a8.529 8.529 0 00-1.016.867 1.13 1.13 0 01-.168.165 14.347 14.347 0 00-1.314 1.107c-.2.167-.371.388-.675.361-.112.123-.325.078-.409.249-.055.112-.2.126-.264.238-.083.139-.235.033-.352.062-.035.009-.081.009-.1.032-.154.152-.4.154-.533.31-.107.13-.259.094-.362.185a2.6 2.6 0 01-.48.033c-.249-.106-.252-.109-.435.1a2.577 2.577 0 01-.228.3c-.109.094-.088.313-.3.306a2.456 2.456 0 01-.245.413.8.8 0 00-.246.439.579.579 0 01-.261.446c-.183.168-.28.417-.52.529-.042.019-.07.072-.1.114a1.8 1.8 0 01-.809.716 1.061 1.061 0 00-.274.191c-.109.091-.193.233-.316.283-.278.113-.284.391-.4.6a2.013 2.013 0 01-.142.294 6.966 6.966 0 00-.714 1.2 2.161 2.161 0 01-.606.725c-.093.081-.2.138-.233.258-.068.243-.283.356-.443.516a1.152 1.152 0 01-.216.141.526.526 0 01-.084.03c0-.036-.012-.081.006-.1.09-.119.062-.3.217-.387.043-.023.054-.106.08-.159a2.05 2.05 0 01.148-.293 6.082 6.082 0 01.474-.627 8.292 8.292 0 01.913-1.158.188.188 0 00.038-.062 3.866 3.866 0 01.768-1.058c.036-.035.085-.074.094-.117a1.864 1.864 0 01.542-.839 3.431 3.431 0 00.614-.845.5.5 0 01.209-.233.718.718 0 00.4-.53c0-.028.006-.055.009-.083-.035.007-.081 0-.1.025a3.012 3.012 0 01-.522.446c-.058.033-.083.12-.123.183a4.594 4.594 0 01-.327.491c-.287.332-.585.654-.89.968a.34.34 0 00-.119.306.249.249 0 01-.1.236c-.116.106-.2.265-.339.319-.187.075-.143.268-.265.368a1.281 1.281 0 00-.346.562 1 1 0 01-.267.441 5.083 5.083 0 00-.642.836 5.016 5.016 0 00-.362.633 2.086 2.086 0 00-.359.677c-.148.072-.11.256-.2.348a8.485 8.485 0 00-.809 1.242 1.889 1.889 0 00-.18.436 1.514 1.514 0 01-.277.558 3.235 3.235 0 00-.345.638 1.96 1.96 0 01-.254.4 1.757 1.757 0 00-.212.348c-.054.1-.119.185-.172.283-.128.235-.258.468-.374.71-.036.074-.007.184-.048.254-.136.233-.294.455-.439.684a1.7 1.7 0 00-.068.168 4.234 4.234 0 01-.6 1.049 5.134 5.134 0 00-.264.6 1.184 1.184 0 01-.423.806.133.133 0 00-.046.091c.041.191-.109.274-.206.39-.07.084-.188.128-.2.274a3.581 3.581 0 01-.39.936c-.1.135-.2.313-.138.439a.23.23 0 01-.025.254c-.081.151-.084.349-.262.446-.03.017-.036.088-.043.136a.773.773 0 01-.017.228 2.048 2.048 0 00-.154.569 1.475 1.475 0 01-.1.39c-.071.141-.185.264-.242.41a2 2 0 00-.087.475 3.821 3.821 0 01-.042.535 2.968 2.968 0 01-.228.494c-.006.01 0 .026 0 .039.023.283-.219.506-.177.791-.194.216-.139.48-.136.729a.74.74 0 01-.122.554.513.513 0 00-.038.142 1.748 1.748 0 00-.046.255 3.116 3.116 0 000 .6c.012.075.033.114-.01.2a2.84 2.84 0 00-.255.6 2.8 2.8 0 00-.01.47 2.614 2.614 0 00-.07.438c.029.313-.112.6-.087.911 0 .022-.019.045-.028.067a6.513 6.513 0 00-.281 1.574.558.558 0 00.028.375c.128.162-.084.243-.042.387.029.1-.054.236-.065.358-.013.143 0 .288 0 .432 0 .013.006.032 0 .039-.114.132-.035.306-.088.436a1.237 1.237 0 00-.07.442.224.224 0 01-.019.11.555.555 0 00-.136.414c.026.136-.07.256-.039.393.019.087.068.207.03.258-.109.145-.058.3-.07.445a1.629 1.629 0 01-.035.458 1.32 1.32 0 00-.043.454c-.01.157 0 .314 0 .471a.353.353 0 010 .078 2 2 0 000 1.116c.01.048.016.126-.01.148-.177.149.072.27.017.417s-.123.325-.068.429a.786.786 0 01.061.407c.006.538 0 1.075 0 1.613 0 .074-.009.172.033.219a.775.775 0 01.128.5 1.347 1.347 0 01.013.49 4.136 4.136 0 00-.017.9c0 .119-.045.267.01.348.1.149.016.313.077.442a1.389 1.389 0 01.074.481c.025.209.065.417.11.622a5.961 5.961 0 01.191.822 3.119 3.119 0 00.162 1c.055.133-.032.293.075.442a1.181 1.181 0 01.162.422c.048.242.207.446.245.684.1.658.365 1.271.493 1.923.033.172.113.343.152.526s.123.339.155.525.185.323.154.525c.207.467.317.969.5 1.442.18.451.33.911.506 1.364s.346.93.555 1.381c.107.232.222.464.306.7a12.773 12.773 0 00.63 1.469 4.147 4.147 0 00.4.816 10.526 10.526 0 00.716 1.513c.168.388.4.749.6 1.124.052.1.085.2.141.3.238.4.5.785.716 1.2.243.468.546.9.814 1.352.2.327.449.625.619.964a15.5 15.5 0 00.859 1.293c.287.452.664.848.949 1.3.314.5.7.943 1.055 1.407.254.329.513.661.785.98.342.4.7.793 1.017 1.223.18.246.422.443.614.687a11.17 11.17 0 001 1.084c.878.852 1.7 1.765 2.627 2.566.456.391.893.806 1.353 1.194.339.288.693.562 1.016.864.429.4.9.742 1.359 1.1.122.094.23.233.41.245.033 0 .067.049.1.081a1.126 1.126 0 00.144.168c.27.2.545.391.817.585.365.259.727.52 1.094.778.564.4 1.143.771 1.729 1.136.23.142.454.31.683.452.5.309 1.016.58 1.522.875.462.272.93.536 1.4.787.612.323 1.23.633 1.849.943.228.114.462.212.694.317s.48.229.727.33c.4.164.8.354 1.194.533.177-.074.228.129.365.167.62.17 1.184.5 1.8.68.341.1.639.288.987.378.5.129.985.336 1.48.5a7.124 7.124 0 00.971.309c.639.12 1.239.378 1.874.513.356.077.7.213 1.064.27.174.026.335.084.5.119s.359.077.536.13a2.564 2.564 0 00.761.159 1.59 1.59 0 01.283.072 1.339 1.339 0 01.3.029 5.048 5.048 0 00.861.2c.323.083.668.078.993.17a1.743 1.743 0 00.6.074c.039 0 .1-.017.116 0 .129.142.3.049.442.075s.319.055.478.078a5.68 5.68 0 01.669.094 3.255 3.255 0 00.884.13c.235 0 .445.112.675.09.138.154.317.062.478.075a1.12 1.12 0 00.543-.012c.233-.116.458-.023.683-.064.31.188.684-.022 1 .157a.089.089 0 00.077 0 .566.566 0 01.527-.007 2.4 2.4 0 00.47.012 1.252 1.252 0 01.454.041 1.387 1.387 0 00.456.035c.132 0 .264-.007.394 0a.548.548 0 00.32-.08c.11.132.217.013.329 0a.963.963 0 01.465.01.838.838 0 00.406.061c.135 0 .285.062.406-.068.012-.013.084.035.129.046a.3.3 0 00.146.023 3.777 3.777 0 011.233-.157.705.705 0 00.483-.071.2.2 0 01.188 0c.139.114.294.065.443.071.183.007.367 0 .549.006.07 0 .178.088.2.068.138-.139.3-.042.446-.071.084-.016.167.009.256-.051.074-.049.2-.019.3-.029.075-.009.129-.155.226-.038.112.136.181-.1.264-.036.12.1.2.081.336 0a.977.977 0 01.433-.084 6.54 6.54 0 00.716-.07 5.935 5.935 0 00.685-.149 1.168 1.168 0 00.578-.32.459.459 0 01.672-.067.326.326 0 00.174.049 3.633 3.633 0 00.8-.062 5.155 5.155 0 01.987-.091c.064-.006.145.023.194 0a5.566 5.566 0 011.016-.3c.387-.141.8-.2 1.2-.327a4.842 4.842 0 001-.351 4.123 4.123 0 01.6-.262c.117-.043.261-.062.39-.107a3.227 3.227 0 01.413-.141c.229-.048.43-.185.651-.229a3.35 3.35 0 00.929-.323 2.153 2.153 0 01.242-.081 4.3 4.3 0 00.7-.29 4.185 4.185 0 011.053-.494 6.281 6.281 0 001.072-.449c.239-.117.472-.261.711-.371.309-.142.612-.3.922-.435a1.978 1.978 0 01.562-.156 2.449 2.449 0 001.133-.485 4.65 4.65 0 01.8-.454.885.885 0 00.268-.117c.068-.061.181-.068.262-.119a2.422 2.422 0 01.409-.249 3.726 3.726 0 00.454-.233.923.923 0 00.248-.157 5.255 5.255 0 00.585-.7c.13-.206.339-.222.513-.32a2.117 2.117 0 00.984-.281 4.889 4.889 0 00.5-.32 4.449 4.449 0 01.593-.178 2.164 2.164 0 00.913-.725.749.749 0 01.245-.164 1.933 1.933 0 00.622-.472 1.212 1.212 0 01.478-.372c.191-.093.228-.348.456-.4.1-.025.19-.13.291-.145a.281.281 0 00.238-.152 1.238 1.238 0 01.423-.325c.339-.007.506-.239.655-.494a1.652 1.652 0 01.2-.346 3.821 3.821 0 01.667-.569 4.582 4.582 0 001.006-.8.605.605 0 01.454-.236.268.268 0 00.164-.072c.326-.293.646-.593.972-.885.072-.065.172-.1.241-.171a1.26 1.26 0 00.17-.243 2.5 2.5 0 01.387-.47 6.555 6.555 0 00.733-.793c.1-.143.164-.307.272-.439.23-.275.475-.541.722-.8.206-.219.42-.432.639-.639a5.322 5.322 0 01.458-.4 1.288 1.288 0 00.394-.535 1.215 1.215 0 01.254-.407 3.229 3.229 0 00.636-.719 2.335 2.335 0 01.53-.685c.036-.032.087-.084.081-.12-.023-.149.1-.2.171-.285a2.661 2.661 0 00.219-.225 8.917 8.917 0 01.811-1.038 1.434 1.434 0 00.22-.342 3.09 3.09 0 01.364-.713 5.13 5.13 0 00.43-.568c.133-.194.236-.406.372-.6a9.244 9.244 0 00.583-1.091 2.47 2.47 0 01.116-.267 2.905 2.905 0 01.219-.225 1.22 1.22 0 00.341-.564 2.475 2.475 0 01.249-.568c.08-.19.23-.351.306-.541s.185-.368.261-.561a1.978 1.978 0 01.29-.59.894.894 0 00.2-.387 1.33 1.33 0 01.241-.409c.2-.291.577-.481.525-.917 0-.009.022-.017.026-.029a4.073 4.073 0 01.425-.925.991.991 0 00.081-.242 3.367 3.367 0 01.219-.733c.138-.235.161-.51.277-.751.1-.209.2-.419.307-.62a5 5 0 01.439-.842.424.424 0 00.088-.272 3.506 3.506 0 01.174-1.152c.071-.284.142-.572.2-.856.046-.233.172-.432.209-.662.029-.181.206-.371.112-.525a.424.424 0 01.075-.51 3.482 3.482 0 00.5-1.487 4.744 4.744 0 01.087-.593 3.274 3.274 0 01.143-.529c.087-.18.093-.381.161-.562a2.372 2.372 0 00.155-.606 2.9 2.9 0 01.074-.283c.022-.1.023-.191.051-.291a11.8 11.8 0 00.261-1.229c.029-.167-.009-.342.009-.51a.913.913 0 01.113-.422c.109-.152.054-.287.041-.432 0-.01.012-.022.014-.033a3.882 3.882 0 00.143-.806 1.461 1.461 0 01.07-.639c.052-.1-.026-.252.08-.354-.142-.185-.062-.4-.065-.6s-.068-.412.071-.6a.076.076 0 00-.016-.068c-.1-.083-.013-.141 0-.222a1.487 1.487 0 00.1-.555.348.348 0 01.046-.294.36.36 0 00.022-.261c-.029-.139-.146-.272 0-.407-.133-.149 0-.3-.012-.445-.022-.47.121-.935.097-1.412zm-63.28-52.4a2.245 2.245 0 01-.681.159.67.67 0 00-.465.122.753.753 0 01-.587.112 1.22 1.22 0 00-.683.139 1.055 1.055 0 01-.625.1c-.12-.01-.251-.052-.372.048-.183.151-.41.1-.623.1-.022 0-.051-.043-.064-.072a.07.07 0 01.025-.064.933.933 0 01.275-.091 1.459 1.459 0 00.612-.145 2.4 2.4 0 01.83-.168 1.157 1.157 0 00.541-.122c.148-.1.352 0 .5-.12.284.051.552-.1.832-.075a.455.455 0 00.3-.12c.119-.085.164-.012.22.054s.053.118-.037.144zm4.03-.543a1.187 1.187 0 01-.288.149.616.616 0 01-.348 0c-.114-.046-.193.148-.294.017-.229.1-.488.012-.7.087-.183.064-.364 0-.517.07a1.419 1.419 0 01-.48.072c-.238.023-.474.061-.709.091v-.014a1.257 1.257 0 01-.2 0 .425.425 0 01-.114-.072c.029-.032.052-.077.088-.091a1.336 1.336 0 01.28-.078 1.552 1.552 0 01.272 0c.268.01.519-.132.79-.081.019 0 .042-.023.062-.035l.433-.12c.542.055 1.072-.093 1.611-.078h.117c.01 0 .028.019.026.025a.085.085 0 01-.029.058zM31.245 9.991a4.477 4.477 0 01-.577.409c-.151.075-.248.265-.454.23a9.51 9.51 0 00-1.019.564c-.216.152-.468.209-.68.356a1.459 1.459 0 01-.693.32c-.042 0-.083.055-.117.09a1.487 1.487 0 01-.707.478.839.839 0 00-.3.216c-.109.094-.19.249-.312.291s-.217.13-.323.168a1.759 1.759 0 00-.732.51c-.085.1-.222.078-.332.154a4.065 4.065 0 00-.541.4.452.452 0 01-.4.129c-.143.013-.155-.007-.08-.129a.477.477 0 01.2-.193 2.9 2.9 0 00.61-.429 1.76 1.76 0 01.63-.458c.3-.085.471-.313.72-.445.107-.058.174-.183.329-.161a.2.2 0 00.158-.08c.158-.232.471-.242.638-.465.059-.078.187-.107.285-.154.032-.016.09 0 .109-.019.107-.122.184-.312.316-.359s.327-.016.464-.11c.081-.055.193-.075.235-.207.019-.058.2-.061.3-.094.022-.006.038-.032.058-.049a2.352 2.352 0 01.884-.5 1.171 1.171 0 00.4-.167c.164-.143.406-.157.536-.312s.281.072.384-.07l.061.033a.353.353 0 01-.05.053zm32.794-4.257h-.116c-.1-.02-.229-.057-.362-.077s-.28.036-.4-.077c-.028-.026-.1-.013-.152 0a.911.911 0 01-.545-.109.629.629 0 00-.293-.048 1.691 1.691 0 01-.859-.139.328.328 0 00-.256 0 .228.228 0 01-.306 0c-.12-.072-.306-.046-.414-.128s-.3.035-.387-.123c-.009-.016-.075-.007-.113 0a1.152 1.152 0 01-.8-.09c-.123-.1-.2.09-.285-.016s-.2-.043-.293-.048a.82.82 0 00-.338.032.477.477 0 01-.352-.007 1.9 1.9 0 00-.787-.194c-.051.006-.109-.059-.165-.068-.093-.014-.19-.049-.175-.141.02-.126.267-.241.338-.161.136.155.241.08.364 0a.123.123 0 01.1-.016c.08.057.117.183.267.08.052-.035.181.042.275.07a.449.449 0 01.133.052c.07.052.132.116.2.174.081-.126.233-.017.316-.087s.151-.075.222.013c.006.006.023 0 .036 0 .154.013.294-.161.433-.071a.314.314 0 00.38.013c.264.109.6.029.8.294a.251.251 0 00.2.083c.174.016.362-.07.517.075.126-.054.284-.043.388-.1a.5.5 0 01.588.077 1.176 1.176 0 00.513.2.883.883 0 00.53 0 .426.426 0 01.433.067c.264-.058.368.1.448.314.053.132.05.152-.083.156zm4.566 14.376a4.306 4.306 0 01.806.206 11.228 11.228 0 011.117.438c.181-.067.217.194.407.171a.845.845 0 01.4.146 2 2 0 00.811.325.365.365 0 01.161.08c.114.072.223.2.342.21.161.014.209.139.313.2a2.129 2.129 0 00.323.167 2.065 2.065 0 01.464.214 2.732 2.732 0 01.409.252c.077.077.226.075.339.122.043.019.075.071.112.109l-.126.045h-.039c-.081.026-.178.093-.239.07-.087-.033-.148-.133-.217-.206-.03-.032-.059-.1-.081-.094-.22.035-.326-.2-.5-.219-.226-.029-.317-.2-.462-.316-.1-.077-.2-.154-.3-.22a.186.186 0 00-.132-.013c-.258.064-.265.068-.329-.17-.023-.088-.08-.123-.126-.078-.162.161-.314.051-.451-.016a10.958 10.958 0 00-1.779-.736c-.233-.067-.47-.13-.7-.206a1.391 1.391 0 01-.364-.161.77.77 0 01-.168-.241c-.01-.015.005-.047.009-.079zm-3.778-.139a1.074 1.074 0 01.472.087 3.8 3.8 0 00.943.283 4.156 4.156 0 00.52.167 4.025 4.025 0 01.555.09 4.507 4.507 0 01.907.271 6.745 6.745 0 00.813.319 1.861 1.861 0 00.548.183c.161.006.2.142.326.177.209.057.4.164.613.226a1.257 1.257 0 01.581.3c.209-.016.346.2.558.172.035 0 .091 0 .106.025.143.214.426.18.609.349.154.141.4.17.58.293.413.288.939.372 1.31.739a.711.711 0 00.362.158.32.32 0 01.2.1.863.863 0 00.377.229 1.962 1.962 0 01.764.525 1.469 1.469 0 00.5.325 2.38 2.38 0 01.68.449.468.468 0 00.184.123 1.555 1.555 0 01.333.239c.09.067.178.135.274.193s.223.057.23.217c0 .043.078.109.132.123a1.293 1.293 0 01.513.378c.122.109.254.206.383.306s.187.245.355.284a.231.231 0 01.136.135c.07.212.259.291.416.412s.3.236.439.362c.28.246.564.488.826.752.175.175.33.365.523.525a5.746 5.746 0 01.558.554c.106.114.248.183.336.322s.235.214.325.341a8.772 8.772 0 01.878 1.167c.083.167.272.278.4.425.107.122.2.256.3.388.052.07.093.148.151.212a2.315 2.315 0 01.571.865 2.382 2.382 0 00.429.607c.164.22.338.435.5.659a1.956 1.956 0 01.162.326c.035.077.038.184.094.232.256.219.325.564.555.794.094.094.033.241.157.336.083.062.11.209.149.325a4.085 4.085 0 00.33.61c.2.372.38.761.6 1.127a2.713 2.713 0 01.309.656c.061.228.188.425.239.648s.2.388.255.6a2.325 2.325 0 01.145.449.407.407 0 00.039.142 4.852 4.852 0 01.441 1.272c.025.149.154.271.157.448 0 .154.117.287.167.441.084.268.119.549.219.811.029.08.045.165.08.242a1.551 1.551 0 01.167.6c.009.19.135.365 0 .571-.039.059.042.207.087.307a1.381 1.381 0 01.145.571.7.7 0 00.109.383.753.753 0 01.117.542.9.9 0 00.1.471.575.575 0 01.061.171c.016.1-.019.229.032.3.084.117-.054.164-.038.265.064.407.1.822.19 1.223a.745.745 0 01.052.249 5.332 5.332 0 00.094 1.224 1.341 1.341 0 010 .568.359.359 0 00.043.37c.035.036.029.122.022.184a1.171 1.171 0 00-.006.487 1.983 1.983 0 01.009.509v1.061a.764.764 0 01-.1.472.834.834 0 00-.061.209.919.919 0 01-.052.107c-.035-.038-.1-.074-.1-.114a1.023 1.023 0 01.016-.462.593.593 0 00.054-.33 4.165 4.165 0 00-.062-1.229c.2-.255-.071-.5-.022-.758a3.456 3.456 0 00.007-.784c-.01-.187-.049-.371-.077-.556s.061-.358-.072-.522c-.032-.041-.006-.128 0-.193a2.208 2.208 0 00-.146-.8.255.255 0 01-.012-.074c-.026-.33-.055-.659-.077-.99a.718.718 0 00-.074-.325c-.052-.093.042-.23-.059-.329a.1.1 0 01-.025-.067c.085-.506-.259-.94-.238-1.435-.172-.258-.113-.559-.171-.836a3.416 3.416 0 00-.248-.836c-.075-.151-.023-.293-.087-.438-.151-.343-.245-.711-.384-1.059-.045-.113-.03-.219-.068-.325-.235-.664-.436-1.339-.7-1.988a4.864 4.864 0 01-.381-.981c-.2-.117-.164-.354-.274-.517a1.988 1.988 0 01-.232-.532 1.791 1.791 0 00-.217-.381.679.679 0 01-.146-.374.372.372 0 00-.078-.238 5.539 5.539 0 01-.781-1.291 3.881 3.881 0 00-.4-.658c-.238-.275-.312-.64-.545-.917-.264-.313-.436-.693-.714-1a2.144 2.144 0 01-.358-.517c-.2-.422-.543-.736-.756-1.142a.985.985 0 01-.409-.413 14.717 14.717 0 00-1.19-1.358c-.207-.226-.4-.468-.622-.681-.156-.148-.391-.249-.478-.426-.107-.22-.32-.272-.458-.43a3.454 3.454 0 00-.474-.469c-.184-.146-.341-.319-.509-.474s-.343-.346-.533-.5a5.5 5.5 0 00-1.088-.867 2.193 2.193 0 01-.438-.359 11.163 11.163 0 00-1.2-.817c-.248-.159-.47-.372-.722-.539-.136-.09-.249-.214-.388-.3-.2-.12-.412-.21-.609-.33-.727-.445-1.513-.777-2.262-1.181a7.93 7.93 0 00-.422-.213c-.022-.01-.049-.009-.071-.02-.106-.054-.078-.262-.248-.232-.143.026-.236-.07-.351-.109s-.212-.126-.326-.159a12.055 12.055 0 01-1.448-.587c-.387-.006-.661-.327-1.019-.38s-.6-.336-.962-.342c-.106-.174-.281-.136-.443-.165-.138-.025-.245-.159-.409-.154-.067 0-.136-.071-.2-.07-.207 0-.339-.2-.565-.171a1.89 1.89 0 01-.555-.071 3.72 3.72 0 01-.667-.193c-.175-.068-.346.016-.517-.083a.838.838 0 00-.5-.122c-.09.01-.185-.059-.281-.07a2.532 2.532 0 00-.636-.087.559.559 0 01-.241-.075c-.013-.006-.022-.057-.012-.074.112-.2.3-.165.484-.162a4.327 4.327 0 01.8.152 4.172 4.172 0 00.811.167zm-5.88-1.95c.106.178.242.128.384.059.338.188.735-.032 1.074.158a2.159 2.159 0 01.829.088 4.337 4.337 0 011.161.226c.412-.054.78.2 1.193.162a1.013 1.013 0 01.32.074c.035.009.119-.017.065.068-.02.032-.091.071-.106.061-.143-.1-.3-.043-.452-.048a.82.82 0 01-.5-.113.161.161 0 00-.1-.045c-.312.057-.6-.1-.91-.083a2.086 2.086 0 01-.92-.148.218.218 0 00-.114-.006 5.215 5.215 0 01-1.3-.1c-.438-.057-.869-.046-1.3-.067a1.2 1.2 0 01-.32-.077c-.1-.035-.193.138-.29 0 0-.007-.028-.006-.038 0-.214.116-.427-.023-.643 0-.233.02-.471 0-.706 0s-.472-.007-.707 0a1.551 1.551 0 00-.678.068.647.647 0 01-.349 0 .636.636 0 01-.19-.106.781.781 0 01.17-.122 2.639 2.639 0 01.3-.088c.154.017.261-.029.343.075a.15.15 0 00.146.006c.107-.12.243-.054.364-.077a1.544 1.544 0 01.243-.071c.067 0 .133.054.2.071a.236.236 0 00.155 0c.309-.2.613.033.919 0 .07.1.142 0 .209 0 .172.019.364-.074.519.074.007.006.025 0 .038 0 .149.02.285-.061.449-.013a.441.441 0 00.441-.037.1.1 0 01.101.008zm-7.28-4.283c.114-.11.01-.3.1-.345a1.02 1.02 0 01.419-.028h1.1c.1 0 .2.038.291-.059a.19.19 0 01.183-.013c.2.145.377.023.568 0 .1-.012.2-.081.332-.017a.331.331 0 00.387-.1c.052-.057.188-.042.288-.046a.174.174 0 01.2.107.3.3 0 00.454.052c.045-.035.188-.161.157.062 0 .013-.006.035 0 .039.029.019.08.055.087.048a.208.208 0 00.065-.11c0-.028-.061-.052-.07-.085a.145.145 0 01.028-.1c.009-.014.051-.019.07-.01a.675.675 0 01.191.1c.019.016-.007.123-.017.123-.233.019-.054.109-.016.141a.214.214 0 00.145.022c.1-.006.2-.022.3-.033a.245.245 0 00-.255-.125c-.014 0-.033-.026-.049-.042.019-.019.033-.043.055-.054.248-.12.474-.352.784-.141a.226.226 0 00.155 0 .927.927 0 01.513.091.647.647 0 00.285.065c.143-.02.185.033.172.172a.244.244 0 00.062.167.523.523 0 00.159.085l-.142.084a.533.533 0 00.045.055c.061.067.03.119-.028.161-.039.028-.112.072-.126.059-.161-.138-.349-.046-.522-.074a.828.828 0 00-.229-.043c-.068.009-.125.09-.191.1a.992.992 0 01-.291-.017c-.207-.035-.4-.223-.625-.039-.394.026-.79.067-1.184.072-.171 0-.335-.1-.517-.074-.212.032-.423.059-.635.078a.89.89 0 01-.329-.056c-.114-.035-.249-.161-.41-.026-.055.046-.21.019-.327-.029s-.316-.151-.394.093c-.123 0-.246 0-.37-.007-.033 0-.064-.035-.1-.045-.316-.1-.316-.1-.6.1a.524.524 0 01-.094.057c-.1.038-.183-.028-.159-.136s.024-.225.085-.283zm-5.36 91.765c-.145 0-.277-.129-.442-.164a5.126 5.126 0 00-.442-.067.566.566 0 01-.2-.075 1.29 1.29 0 00-.565-.146 8.125 8.125 0 01-1.678-.325c-.064-.2-.2.039-.307-.055a.47.47 0 00-.309-.1.812.812 0 01-.38-.133c-.125-.054-.243-.146-.387-.106-.174.048-.2-.184-.368-.167a.547.547 0 01-.37-.052 4.956 4.956 0 00-.665-.288c-.023-.009-.042-.046-.059-.043-.351.055-.6-.2-.9-.293a2.616 2.616 0 01-.736-.317c-.107-.074-.3-.025-.394-.178-.055.049-.1.129-.19.046-.128-.125-.32.025-.462-.132a1.008 1.008 0 00-.423-.2 2.877 2.877 0 01-.91-.452c-.122-.1-.277.016-.39-.122-.058-.07-.209-.052-.309-.1a4.738 4.738 0 00-.723-.343c-.275-.075-.509-.278-.785-.378a4.45 4.45 0 01-.564-.251 8.361 8.361 0 01-.917-.533 1.331 1.331 0 00-.493-.239 3.28 3.28 0 01-.777-.4c-.325-.168-.619-.385-.961-.529-.136-.056-.212-.256-.312-.393-.006-.009.016-.049.033-.061s.062-.016.074 0c.246.256.612.339.856.6a1.218 1.218 0 00.319.171.94.94 0 00.6.178c.083-.012.171.1.281.071.155.206.475.08.62.306a.854.854 0 01.519.168 2.792 2.792 0 00.5.3 3.118 3.118 0 01.519.174 7.831 7.831 0 00.939.393 2.269 2.269 0 01.251.152 6.475 6.475 0 00.936.4 1.4 1.4 0 01.229.113c.064.036.13.112.188.1a.933.933 0 01.617.228.143.143 0 00.107.022c.13-.041.258-.1.283.122a.323.323 0 00.243.03c.145-.1.252-.1.361.036.009.01.019.028.028.028.275-.013.471.212.72.249.18.028.159.156.112.207-.135.145-.028.213.067.27a1.1 1.1 0 00.28.083c.025.006.062-.012.077 0a1.422 1.422 0 00.6.272 3.06 3.06 0 00.7.21c.116.161.339-.03.454.139a2.724 2.724 0 01.474.1c.385.055.764.172 1.145.264a.534.534 0 00.18.035.791.791 0 01.43.1c.045.019.09.055.135.054a7.36 7.36 0 01.962.242.2.2 0 01.128.067.935.935 0 00.693.323c.229.042.442.142.671.19a.479.479 0 00.223-.02.566.566 0 01.448.042.133.133 0 00.068.025c.316.026.633.052.949.08.1.009.228-.01.293.043.107.088.155-.042.223-.023.093.026.177.087.271.1a3.3 3.3 0 00.38.032 1.444 1.444 0 01.225.03c.032.009.057.052.084.081-.029.014-.057.033-.085.045-.09.036-.181.07-.267.1-.214-.159-.446-.054-.649-.109-.329-.091-.675-.007-.987-.088a4.788 4.788 0 00-1.089-.143zm-8.718-5.717c-.009-.016.007-.048.017-.068s.038 0 .054.01c.18.1.356.21.542.3a1.5 1.5 0 00.345.112c.43.09.806.332 1.229.443a.6.6 0 00.174.049 1.027 1.027 0 01.438.081c.033.014.07.023.1.035a.264.264 0 01-.088.043c-.077.006-.157 0-.319 0-.271-.064-.633-.074-.99-.142-.233-.043-.454-.113-.677-.174a1.365 1.365 0 01-.825-.693zm30.006 5.176a2.523 2.523 0 01-.977.393c-.025 0-.064 0-.07.016-.106.214-.342.125-.507.209a2.416 2.416 0 01-.549.093c-.238.054-.47.129-.7.2a.573.573 0 01-.1.035c-.316.029-.635.039-.949.084s-.6.115-.9.188c-.2.049-.391.13-.588.188-.039.01-.09-.022-.133-.033s-.091-.041-.1-.03c-.116.132-.268.072-.4.072a.919.919 0 00-.477.084.9.9 0 01-.48.077 2.112 2.112 0 01-.469-.007c-.143-.032-.272.13-.409.007-.306.152-.635.035-.948.084a.877.877 0 01-.485-.006 11.51 11.51 0 01-2.01.083c-.212.016-.416.083-.63.1a.457.457 0 01-.141-.007 2.958 2.958 0 00-.468-.014h-.629c-.19 0-.358-.13-.556-.083-.132.032-.285-.058-.4.078a.124.124 0 01-.113 0 1.382 1.382 0 00-.754-.071c-.283 0-.555-.054-.833-.078a5.826 5.826 0 01-.859-.019 3.89 3.89 0 01-1.129-.212c-.064-.036-.174 0-.261.015a1.866 1.866 0 00-.229.071c-.171-.036-.316-.072-.462-.1a2.022 2.022 0 01-.4-.065 1.964 1.964 0 00-.709-.083c-.1 0-.191-.143-.29-.014-.029-.025-.052-.061-.084-.072a1.248 1.248 0 01-.43-.28c.178-.129.326.122.5.042.084.119.21.078.322.075a1.514 1.514 0 01.362.071c.139.032.294.2.445.013.009-.01.054 0 .071.013.225.175.433.006.636-.048.1-.028.177-.067.272.006a.224.224 0 00.145.025c.094-.014.236-.094.27-.059.113.117.175.016.264-.013a.249.249 0 01.191 0c.094.059.149.1.262.006.049-.041.2.041.309.072.058.017.138.085.162.067.141-.1.287.07.436-.032a.364.364 0 01.327-.029c.136.1.271.058.407.065.17.009.341.007.51 0a1.345 1.345 0 01.441.074c.141.042.275-.1.451-.007a.977.977 0 00.465.012 1.1 1.1 0 00.522-.067.443.443 0 01.375.016.221.221 0 00.329-.054c.068-.078.146-.077.187.009.078.171.213.041.236.012.135-.174.314-.151.493-.151h.59a.592.592 0 01.3.036c.045.029.022.168.019.258s.051.1.123.1h1.375a2.5 2.5 0 00.361-.074 2.278 2.278 0 01.635-.083 1.186 1.186 0 00.606-.146c.022-.01.067-.016.074-.007.112.184.238.022.325-.012a1.386 1.386 0 01.483-.068.718.718 0 00.327-.067.352.352 0 01.361-.012c.242-.074.5-.046.74-.112a.807.807 0 01.652.038c.161.094.3-.068.448 0a1.463 1.463 0 01.674-.081.535.535 0 00.216-.048.92.92 0 01.63-.191c.035.007.078-.057.12-.083s.087-.07.128-.067a2.959 2.959 0 001.069-.268c.035-.01.068-.051.1-.046.323.043.591-.232.917-.159a.506.506 0 01.1.042.48.48 0 00-.135.025zm18.686-13.383c-.161-.036-.168.11-.246.168s-.165.107-.248.159a.387.387 0 00-.084.057 1.607 1.607 0 01-.325.368c-.113.065-.143.255-.342.217-.058-.012-.135.156-.223.2-.138.067-.2.214-.355.265a3.638 3.638 0 00-.454.235c-.141.07-.29.125-.427.2-.067.035-.125.059-.151-.022s.041-.085.107-.11a.669.669 0 00.274-.188 1.96 1.96 0 01.609-.435c.052-.029.145-.054.152-.091.03-.183.19-.22.309-.3a7.889 7.889 0 00.955-.726c.122-.109.338-.093.39-.3 0-.006.126.019.22.033-.061.119-.131.277-.161.27zm9.628-12.288a1.169 1.169 0 01-.323.5c-.043.033-.059.1-.085.159a15.016 15.016 0 01-.974 1.6c-.161.248-.332.49-.488.742a3.455 3.455 0 00-.4.659.461.461 0 01-.154.165c-.316.249-.385.674-.677.939-.009.165-.109.243-.252.309a1.863 1.863 0 00-.336.233c-.09.07-.216.135-.252.229a4.548 4.548 0 01-.487.7 5.551 5.551 0 01-.436.529c-.4.5-.9.906-1.3 1.391-.552.662-1.2 1.224-1.79 1.849-.075.08-.193.119-.268.2-.156.167-.312.336-.459.51a6.248 6.248 0 01-.884.8 1.224 1.224 0 00-.177.17c-.161.187-.27.452-.574.468-.02 0-.039.029-.058.046-.212.185-.425.368-.635.556a2.94 2.94 0 01-.378.314c-.1.064-.252.1-.285.262a.21.21 0 01-.133.135c-.336.043-.536.3-.785.48a3.273 3.273 0 00-.716.554.236.236 0 01-.12.084 1.4 1.4 0 00-.667.388.441.441 0 01-.122.085 1.54 1.54 0 00-.722.52c-.022.023-.071.017-.1.032-.143.064-.291.122-.429.194s-.27.174-.41.246a2.11 2.11 0 01-.435.183c-.145.039-.214.2-.4.194-.1 0-.193.167-.306.2a12.971 12.971 0 00-1.209.594c-.045.017-.094.026-.141.041a.658.658 0 00-.239.083c-.364.343-.875.361-1.29.594a2.2 2.2 0 01-.425.112 1.249 1.249 0 00-.513.281.578.578 0 01-.217.138c-.106.032-.223.03-.333.052s-.146.155-.288.165a1.312 1.312 0 00-.6.159 2.962 2.962 0 01-.658.223 3.418 3.418 0 01-.636.268 4.03 4.03 0 01-.575.129 1.084 1.084 0 00-.8.293.815.815 0 01-.555.168.729.729 0 00-.423.119c-.106.091-.117-.072-.187-.032a.58.58 0 01-.164.077c-.171.032-.346.046-.517.083-.154.033-.271.18-.446.155-.207.188-.507.088-.727.236-.21-.119-.385.012-.572.074a.5.5 0 01-.223-.023c-.022 0-.038-.03-.057-.048-.155.187-.4.119-.587.194a2.841 2.841 0 00-.6.18c-.162.1-.422.041-.623.1a8.568 8.568 0 00-1.046.226.484.484 0 01-.194 0 1.232 1.232 0 00-.7.128.4.4 0 01-.183.029c-.158 0-.316-.01-.472 0-.175.016-.356-.054-.529.049-.152.091-.354-.042-.512.1-.045.039-.152 0-.23.007a2.115 2.115 0 00-.835.074c-.054.026-.138-.016-.193.007-.1.043-.177-.112-.3-.016-.067.051-.2.012-.307.012s-.236.009-.354 0-.2.07-.333.016c-.106-.042-.259.049-.394.062s-.264-.007-.393.006c-.109.012-.214.065-.322.071-.09 0-.233-.081-.265-.046-.12.132-.18-.03-.267-.028s-.2-.02-.278.072c-.171-.148-.374-.052-.561-.07s-.367 0-.549 0c-.135 0-.132.006-.4.155a1.058 1.058 0 01-.781.048c-.13-.03-.228-.072-.352 0a.363.363 0 01-.184.028c-.341 0-.681.009-1.022 0a.969.969 0 01-.4-.081 1.705 1.705 0 00-.441-.081c-.086-.02-.125-.039-.207.025-.165.13-.365.068-.551.033a3.455 3.455 0 00-.575-.132.69.69 0 01-.242-.075 1.98 1.98 0 00-.6-.157c-.164-.019-.336.052-.49-.051-.13-.087-.285.006-.438-.091-.122-.077-.332-.02-.5-.013a.932.932 0 01-.516-.086c-.143-.083-.3-.045-.441-.08a4.378 4.378 0 01-.727-.139 1.18 1.18 0 00-.387-.013c-.164 0-.345.049-.456-.133-.236-.016-.448-.172-.671-.168a4.03 4.03 0 01-.869-.2c-.02 0-.041-.052-.055-.049-.358.056-.622-.236-.958-.257a1.594 1.594 0 01-.171-.059c-.074-.014-.2.01-.219-.026-.081-.155-.281-.083-.355-.193-.142-.21-.377-.207-.569-.242-.245-.043-.456-.214-.717-.172a1.261 1.261 0 00-.671-.281 5.339 5.339 0 01-.549-.188 3.763 3.763 0 01-.951-.365c-.438-.032-.765-.365-1.2-.433-.216-.035-.4-.225-.622-.293-.129-.039-.143-.043-.057-.139a.322.322 0 00.038-.1c.051-.133.132-.293.255-.3a.757.757 0 01.443.142.8.8 0 00.487.162c.106 0 .217.077.32.067.146-.014.2.1.3.148a5.5 5.5 0 00.6.251c.249.1.538.1.736.31a.414.414 0 01.4.164c.146-.038.267.049.4.078.3.062.584.181.885.236.157.2.471.1.614.326a.171.171 0 00.128.064c.378.007.727.194 1.114.165.172-.013.312.126.475.177a2.1 2.1 0 00.652.138 1.147 1.147 0 01.242.072 3.25 3.25 0 00.438.077.863.863 0 01.442.08.113.113 0 00.11-.006c.091-.119.217-.057.326-.07s.238.032.37.015.283.077.438.065a1.091 1.091 0 01.429.006 1.8 1.8 0 00.756.064c.143-.01.268.214.414.025.141.064.254-.038.38-.061.046-.009.1.045.151.039.2-.023.41.075.6-.07.042-.032.128-.006.193-.006h.9a2.356 2.356 0 01.845.145.482.482 0 00.113.013 7.876 7.876 0 01.909.088 1.223 1.223 0 01.491.142.229.229 0 00.287.007c.074-.061.161-.148.252-.01.009.013.048.007.074.007.1 0 .249.045.306-.009.123-.112.2.045.3.014s.191 0 .285-.077c.07-.054.159.028.239.068a.394.394 0 00.332.02c.17-.057.37-.209.568-.041a3.079 3.079 0 01.862-.058c.025 0 .046-.045.065-.071.1-.13.093-.129.161 0a.139.139 0 00.109.067 1.853 1.853 0 00.564-.058.524.524 0 01.207-.043 1.963 1.963 0 01.216-.381.512.512 0 00-.171.03c-.142.059-.223-.087-.339-.022-.012.007-.071-.068-.107-.1a.857.857 0 00.116-.057.807.807 0 01.567-.142c.093.015.152-.075.245-.043.048-.042.1-.08.152-.117a.692.692 0 01-.251-.065c-.042-.02-.125-.035-.146-.012-.158.161-.381 0-.542.12a.079.079 0 01-.055.009c-.1-.02-.157-.165-.313-.065-.093.059-.255 0-.385.013s-.258-.055-.371.058c-.017.017-.1-.046-.156-.049a3.5 3.5 0 01-.429-.017c-.128-.025-.268-.167-.362-.135-.2.065-.427-.074-.612.11-.113.114-.114-.042-.162-.1-.064-.081-.042-.072.036-.11a.607.607 0 01.285-.074c.1 0 .2.032.291-.064.026-.028.135.028.207.035a.691.691 0 00.212 0 2.8 2.8 0 01.811-.128c.048 0 .094.026.142.033.1.016.216.071.293.036a2.521 2.521 0 01.8-.074 5.9 5.9 0 011.107-.075c.213-.136.451-.055.675-.081.161-.017.319-.061.478-.074a2.291 2.291 0 00.47-.01c.394-.123.813-.083 1.206-.219.181-.062.393-.023.6-.078a6.61 6.61 0 001.04-.243.317.317 0 01.156 0 2.286 2.286 0 00.714-.081c.083-.016.161-.055.243-.075s.172-.025.254-.051.128.065.207-.022c.042-.045.183.016.265-.013a4.424 4.424 0 00.529-.146 1.139 1.139 0 01.639-.164c.154.017.278-.133.439-.08a6.149 6.149 0 011.048-.317c.351-.1.69-.233 1.035-.348a1.258 1.258 0 01.319-.081c.275-.019.5-.241.785-.2.02 0 .046-.016.065-.03a1.447 1.447 0 01.977-.206.679.679 0 00.54-.123.232.232 0 01.181-.029 1.457 1.457 0 00.88 0 .713.713 0 01.29.045c.2.049.409.032.536.235a.178.178 0 00.1-.026c.074-.045.145-.091.217-.138a1.055 1.055 0 01.219-.136 3.062 3.062 0 00.93-.607 2.083 2.083 0 01.7-.384 4.9 4.9 0 00.533-.233 1.7 1.7 0 01.674-.183c.139 0 .277-.107.417-.12a1.349 1.349 0 00.762-.446c.227-.193.484-.349.723-.527.132-.1.254-.21.381-.313a2.912 2.912 0 01.735-.314c.033-.014.083 0 .11-.017.154-.1.22-.322.468-.3a.936.936 0 00.485-.151c.017-.009.049.006.07.017s0 .043-.009.051c-.161.126-.254.325-.459.407a.686.686 0 00-.2.18.666.666 0 00-.074.11.644.644 0 00.161-.046 7.548 7.548 0 01.981-.668.4.4 0 00.139-.136c.064-.083-.019-.061-.055-.074a.452.452 0 01-.064-.036c.019-.014.041-.042.058-.039a.87.87 0 00.7-.314 1.324 1.324 0 01.52-.338 1.836 1.836 0 00.636-.448c.254-.226.49-.474.725-.72a2.643 2.643 0 01.594-.465.454.454 0 00.172-.148 1.77 1.77 0 01.669-.558c.041-.026.1-.039.123-.075.186-.372.564-.5.881-.71.041-.026.1-.03.128-.064.17-.238.467-.294.667-.485a.253.253 0 01.1-.041c.138-.046.11-.233.268-.285a1.183 1.183 0 00.359-.268c.109-.094.2-.2.307-.3a3.675 3.675 0 01.409-.339 6.354 6.354 0 001.288-1.259 8.569 8.569 0 001.375-1.265 24.147 24.147 0 001.839-2.836l.21-.338.036-.013a.911.911 0 00.177-.087 1.573 1.573 0 00.223-.18 2.4 2.4 0 00.185-.235c.132-.183.256-.372.381-.561.11-.1.219-.2.329-.294a.641.641 0 00.148-.191l.068-.014.123-.017.138-.007a4.859 4.859 0 00-.249.468zM47.463 97.335c.388.167.877.071 1.3.281a.583.583 0 00.3.026 1.519 1.519 0 01.622.114c.07.023.158.064.213.041a.476.476 0 01.464.068c.128.071.3.088.446.151.032.013.088.03.1.016.155-.161.3-.033.451.006a3.168 3.168 0 00.877.157.619.619 0 00.214-.051.224.224 0 01.243.025.811.811 0 00.426.113 4.524 4.524 0 01.977.2.792.792 0 00.143.033.774.774 0 00.325-.065c.064-.025.167.1.277.065a1.178 1.178 0 01.133-.055c.042-.007.116-.007.128.016a.191.191 0 01.007.149c-.042.087-.09-.025-.1-.016-.154.13-.377 0-.522.142-.136-.148-.271 0-.407 0-.206 0-.412.033-.619.033a4.814 4.814 0 01-.612-.041.891.891 0 01-.385-.1c-.107-.074-.157-.048-.223.026a1.574 1.574 0 00-.174-.152c-.017-.012-.064.025-.1.033-.059.016-.146.061-.175.036-.138-.116-.3-.032-.441-.078a5.7 5.7 0 01-.726-.145c-.062-.032-.145-.019-.2-.088a.181.181 0 00-.123-.072 1.052 1.052 0 01-.4-.077.507.507 0 00-.267.01c-.383.1-.383.1-.745-.143-.012-.007-.022-.029-.028-.028-.259.068-.5-.2-.772-.029-.046.03-.158-.061-.229-.046-.339.072-.475-.122-.574-.4-.041-.142-.03-.17.176-.155zm50.238-35.413c-.087.246.062.517-.123.733a3.863 3.863 0 01-.309 1.288c-.041.09.146.171-.006.246.033.112-.048.19-.077.283s.007.167-.054.256c-.049.072-.015.2-.029.3-.009.058-.051.112-.061.171a1.61 1.61 0 00-.1.551.665.665 0 01-.057.248c-.035.168-.146.325-.1.513a.412.412 0 01-.075.322c-.03.051-.084.116-.074.162.064.284-.154.494-.184.754-.006.058-.057.116-.054.171a.575.575 0 01-.165.445c-.032.035-.074.086-.07.126.019.248-.172.429-.194.672a2.614 2.614 0 01-.238.645c-.017.045-.049.1-.041.138.026.126-.049.194-.126.265-.107.1-.113.154-.117.313 0 .107-.065.213-.071.322a.6.6 0 01-.113.31 1.985 1.985 0 00-.2.543 1.068 1.068 0 01-.077.206 1 1 0 00-.19.477c0 .142-.129.283-.178.43s-.185.287-.194.472-.18.28-.243.449c-.109.3-.23.584-.314.893-.043.167-.242.284-.225.494-.151.109-.167.309-.284.43-.091.093-.08.209-.136.3a3.463 3.463 0 01-.325.575.837.837 0 00-.117.3c-.006.019.016.045.025.068.017-.01.043-.014.054-.029a2.3 2.3 0 00.139-.217c.032-.062.015-.167.133-.126 0 0-.028.091-.038.142a1.858 1.858 0 01-.439.8.442.442 0 01-.083.062c-.01-.048-.043-.112-.025-.143a1.551 1.551 0 01.191-.236c.054-.058.045-.1 0-.164-.07-.1-.117 0-.174 0-.158 0-.159.162-.168.212a1.632 1.632 0 01-.4.706 1.9 1.9 0 00-.4.854.461.461 0 01-.194.348 1.916 1.916 0 00-.427.452 3.253 3.253 0 00-.29.506 1.227 1.227 0 01-.167.243.534.534 0 00-.2.355.374.374 0 01-.107.188c-.154.187-.313.368-.471.552-.035.039-.106.074-.106.112 0 .313-.248.458-.422.654a.358.358 0 00-.055.094 2.187 2.187 0 01-.645.906c-.149.087-.241.248-.384.3s-.128.171-.214.229c-.12.08-.094.307-.3.3-.033.148-.158.225-.248.33-.017.022 0 .07 0 .1a.246.246 0 00.083-.032c.178-.174.352-.352.53-.526.016-.014.054 0 .081 0 0 .026.012.061 0 .077a1.575 1.575 0 01-.138.141c-.229.22-.391.5-.594.732a5.539 5.539 0 01-1.129 1.055c-.3.2-.606.383-.89.6a.685.685 0 00-.316.377c0 .022-.03.041-.049.057-.157.13-.316.256-.467.391s-.185.351-.412.42a.564.564 0 00-.248.243.887.887 0 01-.277.272 8.687 8.687 0 01-.956.726c-.146.068-.2.272-.387.3-.243.323-.629.472-.91.749a2.855 2.855 0 01-.361.265c-.019.013-.059 0-.071.016-.425.5-1.078.684-1.537 1.136-.057.055-.155.065-.228.109-.116.071-.225.152-.339.226a1.727 1.727 0 01-.161.087 1.4 1.4 0 00-.5.326c-.059.077-.194.093-.288.146a1.662 1.662 0 00-.246.165 5.908 5.908 0 01-1.2.62c-.261.128-.5.288-.777.4a1.436 1.436 0 00-.407.342.344.344 0 01-.3.122.872.872 0 00-.642.156 1.29 1.29 0 01-.612.22 10.517 10.517 0 00-1.193.362 1.97 1.97 0 01-.694.123.966.966 0 00-.622.11c-.155.093-.335-.036-.467.122a2.323 2.323 0 01-.38.309 1.116 1.116 0 01-.684.249 2.357 2.357 0 00-.571.135 1.2 1.2 0 01-.512.1.378.378 0 00-.175.043 3.462 3.462 0 00-.929.42.675.675 0 01-.4.152 3.174 3.174 0 00-.832.193 2.529 2.529 0 00-.942.283c-.065.042-.181.013-.272 0a4.593 4.593 0 00-1.146.183 2.348 2.348 0 01-.249.055 1 1 0 00-.443.071c-.116.058-.283-.052-.4.081-.012.014-.051.009-.075 0-.351-.059-.683.11-1.029.078a.435.435 0 00-.245.064c-.043.025-.133-.059-.2-.059-.214 0-.413.1-.636.083a.841.841 0 00-.6.07c-.017.013-.052 0-.078 0a4.761 4.761 0 00-1.032.067.565.565 0 01-.52-.059c-.028-.023-.143.084-.2.065-.284-.1-.561.059-.842.007a1.817 1.817 0 00-.517-.087c-.08.009-.145.129-.258.016-.052-.052-.2-.009-.306-.009h-1.287a1.186 1.186 0 00-.313.006c-.119.035-.174-.148-.314-.058-.065.043-.2-.019-.3-.025s-.228.013-.325-.077c-.02-.02-.075 0-.114 0-.37-.025-.742-.032-1.106-.087a2.883 2.883 0 01-.438-.081.592.592 0 00-.254.006.794.794 0 01-.242-.072c-.046-.016-.11-.017-.135-.049-.109-.136-.193-.125-.307 0-.1.106-.243.049-.367.036-.071-.007-.139-.062-.207-.062a.492.492 0 01-.417-.149.187.187 0 00-.278-.012.476.476 0 00-.283-.067c-.161 0-.333.055-.481-.071a.154.154 0 00-.145.016c-.133.126-.083-.03-.116-.065s-.068-.022-.1-.033v.081c-.006.119-.091.194-.17.142a1.688 1.688 0 01-.326-.252.4.4 0 00-.485-.093.992.992 0 01-.735-.035c-.1-.041-.022-.077.009-.1a.258.258 0 01.132-.055c.075 0 .1-.017.126-.1a.981.981 0 01.148-.252 1.846 1.846 0 00-.3-.117c-.184-.038-.371-.057-.556-.081-.026 0-.062.01-.078 0-.209-.168-.471-.129-.709-.19s-.442-.13-.661-.206c-.026-.009-.048-.081-.042-.12a.415.415 0 01.067-.128c.042-.074.067-.174.13-.212s.167.057.239.062a9.558 9.558 0 001.035.171.948.948 0 01.436.08 3.489 3.489 0 00.967.233c.239.043.475.114.713.174.071.019.139.043.212.057.148.028.307-.048.451.054.126.088.285-.006.436.091.119.075.333-.023.445.158.013.019.074.017.11.012.078-.013.187-.077.228-.046a.4.4 0 00.258.046c.091.006.184 0 .275 0a1.379 1.379 0 01.771.133.425.425 0 00.225.023c.146-.007.3.045.435-.065.117.132.27.051.406.064a1.7 1.7 0 00.47 0 2.864 2.864 0 00.764-.149c.02-.01.052 0 .077 0 .11-.023.194.159.339.012.064-.065.251-.012.383-.012h1.139a.324.324 0 00.278-.094c.051-.055.178-.038.23-.093.133-.138.325.02.465-.128.116-.122.316-.055.469-.091a8.139 8.139 0 011.581-.072.173.173 0 00.039 0 .476.476 0 00.064-.036c-.019-.013-.036-.036-.058-.039-.212-.029-.422-.067-.635-.077a.716.716 0 00-.37.055.458.458 0 01-.443-.03.151.151 0 00-.1-.026c-.081.017-.2.091-.233.062a.292.292 0 00-.252-.062c-.123.012-.246-.039-.372.055a.468.468 0 01-.3.017c-.1-.016-.165-.151-.309-.106a1.258 1.258 0 01-.341.03c-.594.012-1.18-.133-1.777-.078a2.6 2.6 0 00-.871-.081c-.148-.009-.28-.1-.441-.08a.537.537 0 01-.4-.07c-.043-.032-.129 0-.194-.007-.159-.026-.319.049-.485-.064-.125-.085-.307.009-.48-.074a2.5 2.5 0 00-.551-.088 7.331 7.331 0 01-1.006-.233 1.806 1.806 0 00-.31-.013c-.1-.013-.185-.059-.281-.074-.212-.033-.425-.052-.636-.083a.255.255 0 01-.093-.058.406.406 0 01-.057-.055c.017-.013.033-.038.054-.041.351-.059.684-.2 1.042-.239a.22.22 0 00.068-.026c-.02-.028-.033-.064-.059-.081a4.4 4.4 0 00-.78-.207c-.1-.012-.225-.078-.309-.045-.12.048-.165-.052-.248-.067-.022 0-.045-.045-.059-.042-.367.081-.681-.178-1.036-.161a.233.233 0 01-.148-.02.7.7 0 00-.535-.136c-.013 0-.029.006-.039 0a1.1 1.1 0 00-.678-.167c-.074-.112-.188-.07-.285-.065a.533.533 0 01-.284-.08 1.363 1.363 0 00-.656-.1c-.009 0-.025.017-.026.014a.568.568 0 00-.527-.146c-.209.032-.33-.168-.526-.167-.049 0-.1-.074-.152-.1a.755.755 0 00-.3-.122 2.865 2.865 0 01-.8-.17 1.058 1.058 0 00-.37-.081.966.966 0 01-.483-.159 1.832 1.832 0 00-.41-.149 2.392 2.392 0 01-.507-.2c-.29-.142-.551-.394-.914-.352a.1.1 0 01-.068-.023c-.19-.172-.461-.171-.662-.3a4.053 4.053 0 00-.9-.385 7.1 7.1 0 01-.82-.393 8.711 8.711 0 01-1.236-.727c-.248-.178-.525-.314-.783-.478s-.5-.326-.736-.5c-.414-.3-.8-.643-1.239-.909-.538-.327-.952-.807-1.5-1.127a5.01 5.01 0 01-.577-.5c-.452-.374-.914-.74-1.336-1.153-.12-.119-.19-.275-.348-.37a2.884 2.884 0 01-.4-.37c-.132-.119-.275-.226-.406-.346s-.258-.261-.39-.388a4.985 4.985 0 00-.575-.585c-.117-.081-.18-.242-.284-.348s-.229-.158-.323-.255c-.114-.117-.2-.264-.312-.38s-.27-.165-.348-.285a6.442 6.442 0 00-.659-.78 9.566 9.566 0 00-.869-1.067 1.731 1.731 0 01-.407-.574 1.544 1.544 0 00-.3-.348 1.507 1.507 0 01-.367-.517 1.355 1.355 0 00-.377-.554 1.985 1.985 0 01-.3-.423c-.174-.285-.38-.552-.552-.835-.184-.3-.39-.591-.554-.907a4.07 4.07 0 01-.394-.781 3.032 3.032 0 00-.414-.651 6.956 6.956 0 00-.446-.88c-.033-.362-.307-.607-.462-.909a4.458 4.458 0 01-.177-.4c-.113-.291-.277-.568-.367-.869a9.891 9.891 0 01-.493-1.252.758.758 0 00-.123-.223c-.036-.064-.113-.136-.1-.19.051-.246-.1-.436-.172-.64s-.046-.449-.228-.613c.022-.3-.184-.527-.259-.8-.019-.07-.03-.091.014-.145.013-.016-.019-.1-.049-.116a.342.342 0 01-.177-.325.746.746 0 00-.139-.571.092.092 0 01-.013-.071 1.107 1.107 0 01.041-.129c.028.028.072.052.081.084a4.23 4.23 0 00.27.636 4.825 4.825 0 00.5 1.09 2.769 2.769 0 01.206.5c.159.354.33.7.5 1.052.016.033.046.064.051.1.009.072-.02.178.106.145.03-.007.058-.109.049-.161a1.649 1.649 0 01-.077-.519.135.135 0 00-.039-.1c-.2-.187-.217-.464-.355-.681a1.318 1.318 0 01-.151-.409c-.041-.168-.051-.345-.084-.516a.822.822 0 00-.077-.2.58.58 0 010-.607c.038-.064.116-.157.01-.252-.022-.019.007-.138.045-.167.114-.084.106-.2.107-.313a1.132 1.132 0 01.11-.7.09.09 0 00.007-.081c-.178-.249-.141-.564-.262-.836a1.7 1.7 0 01-.014-.584.479.479 0 00-.048-.255c-.07-.126-.191-.27-.036-.441.036-.039-.019-.165-.038-.249a2.254 2.254 0 01-.191-.825c-.126-.157-.054-.359-.132-.536a.368.368 0 01.225-.522c.213-.084.306-.193.209-.351s-.026-.33-.067-.487a4.668 4.668 0 01-.149-.485 3.151 3.151 0 01-.007-.51 2.478 2.478 0 00-.007-.549 2.205 2.205 0 01-.072-.6.94.94 0 00-.149-.527c-.035-.058-.006-.154-.006-.233 0-.38-.014-.761 0-1.139.038-.858-.067-1.708-.081-2.562a1.976 1.976 0 01.065-.6c.055-.187 0-.4.161-.568.028-.028 0-.119-.016-.18 0-.022-.035-.038-.054-.055.155-.143.109-.309.09-.494s.1-.362.067-.555c.18-.2-.029-.487.158-.683 0-.236.012-.472-.006-.707a.671.671 0 01.084-.283 7.538 7.538 0 01.307-1.053.672.672 0 00.007-.271 2.817 2.817 0 010-.313.8.8 0 01.077-.248c.193-.384.154-.843.388-1.214-.084-.281.152-.491.172-.758a3.321 3.321 0 01.223-.729c.026-.081.029-.2.084-.235.116-.077.052-.191.1-.281a.69.69 0 00.051-.291.3.3 0 01.091-.241.276.276 0 00.065-.167 1.533 1.533 0 01.154-.448 7.222 7.222 0 00.242-.765c.01-.035 0-.1.017-.109.17-.091.1-.275.17-.4s.036-.274.183-.365c.051-.03.065-.157.045-.274s.12-.28.194-.419c.19-.355.4-.7.561-1.065a1.759 1.759 0 01.129-.262 4.049 4.049 0 00.233-.532c.145-.307.322-.6.5-.894a3.99 3.99 0 00.262-.522 4 4 0 01.451-.838c.194-.268.383-.545.564-.826.026-.041.081-.09.074-.123-.055-.242.119-.359.262-.483a6.36 6.36 0 00.875-1.058 1.3 1.3 0 00.3-.583.909.909 0 01.294-.468 3.724 3.724 0 00.519-.567 3.307 3.307 0 01.341-.367 1.068 1.068 0 00.239-.332.413.413 0 01.265-.226c.146-.065.145-.223.265-.291a.227.227 0 00.1-.151.224.224 0 01.2-.232.41.41 0 00.272-.268.361.361 0 01.312-.283.565.565 0 00.284-.159 6.835 6.835 0 00.735-.758 1.116 1.116 0 01.4-.372 1.122 1.122 0 00.343-.317c.122-.139.225-.3.354-.426a2.2 2.2 0 01.456-.317 5.687 5.687 0 00.927-.7 1.3 1.3 0 01.332-.235 1.046 1.046 0 00.4-.265c.035-.041.071-.1.112-.107.283-.041.351-.407.646-.42a.56.56 0 01.322-.251.876.876 0 00.354-.274c.09-.12.278-.125.314-.294a.066.066 0 01.054-.043c.361.006.609-.243.9-.4.228-.122.442-.265.665-.39.148-.084.3-.155.456-.226.029-.013.071 0 .106.007-.013.028-.02.065-.042.081a6.561 6.561 0 00-.6.452c-.109.1-.27.045-.365.184a1.388 1.388 0 01-.322.255c-.109.083-.207.209-.33.241-.214.057-.339.233-.532.316a3.275 3.275 0 00-1.014.688 4.247 4.247 0 01-.355.28 1.566 1.566 0 01-.325.259c-.159.074-.241.262-.381.383a5.932 5.932 0 01-.64.458c-.039.026-.1.03-.129.064-.194.245-.506.371-.661.655a.222.222 0 01-.11.109c-.264.067-.383.294-.545.472-.216.233-.5.4-.643.709-.041.088-.177.13-.265.2a8.568 8.568 0 01-1.013.861c-.17.368-.546.558-.767.894a6.315 6.315 0 01-.551.607 3.269 3.269 0 00-.693 1c-.013.033-.022.08-.048.094-.3.165-.393.49-.567.749a3.927 3.927 0 01-.329.568 1.965 1.965 0 00-.313.814 1.318 1.318 0 01-.284.629c-.042.3-.348.483-.346.8-.213.185-.2.5-.422.7a.79.79 0 00-.217.494 1.28 1.28 0 01-.184.432 2.707 2.707 0 00-.358.993.181.181 0 01-.03.1 1.914 1.914 0 00-.4.817 6.937 6.937 0 00-.255.719 2.429 2.429 0 00-.02.583.512.512 0 01-.072.325c-.055.077-.168.183-.012.293.02.014-.026.136-.055.2a1.48 1.48 0 00-.106.523 7.373 7.373 0 01-.235 1.314 9.111 9.111 0 01-.38 1.181.523.523 0 000 .233.486.486 0 01-.109.352 1.037 1.037 0 00-.126.416c-.028.122.048.259-.049.372s.009.238-.1.356c-.087.1.083.277.045.383s-.157.187-.141.338a.279.279 0 01-.07.2c-.113.117-.1.275-.154.41-.039.1.012.223-.08.323-.025.028 0 .132.033.174.07.085.039.142-.029.191a.247.247 0 00-.09.241c0 .156.061.358-.013.461-.1.138.017.323-.143.417-.026.251-.049.5-.08.754-.022.185-.062.371-.074.556s0 .394-.006.59a.157.157 0 01-.039.1c-.08.084-.022.138.036.191a.161.161 0 00.239 0c.116-.106.226-.219.333-.333a.221.221 0 00.059-.13.9.9 0 01.081-.478 7.484 7.484 0 01.084-1.109 2.919 2.919 0 01.072-.439c.019-.148-.049-.312.08-.439a3.285 3.285 0 01.154-.878.8.8 0 01.074-.207 1.339 1.339 0 00.083-.436 1.021 1.021 0 01.143-.652c.046-.057-.009-.2.039-.252.141-.135-.023-.327.126-.467.11-.1.046-.3.1-.426.1-.232.09-.49.193-.706s.154-.459.258-.681a1.2 1.2 0 00.171-.6.348.348 0 01.065-.168c.019-.033.083-.064.077-.083-.068-.283.2-.49.167-.759a.215.215 0 01.087-.2c.029-.023.074-.064.068-.086-.072-.317.252-.512.242-.809a.185.185 0 01.054-.094c.094-.106.2-.2.109-.368-.023-.041.028-.149.074-.2a2.04 2.04 0 00.351-.6 1.99 1.99 0 00.277-.632.118.118 0 01.033-.064c.177-.171.194-.425.313-.617.422-.687.7-1.451 1.155-2.119a5.544 5.544 0 00.307-.656 2.393 2.393 0 01.417-.616 1.042 1.042 0 00.2-.272c.178-.358.5-.617.671-.978a1.013 1.013 0 01.32-.417 1.45 1.45 0 00.39-.462 4.176 4.176 0 01.533-.6c.117-.143.326-.223.313-.464 0-.043.087-.091.132-.138.2-.2.393-.387.583-.585.085-.09.2-.154.23-.3a.235.235 0 01.135-.136c.326-.136.5-.441.74-.665.259-.239.536-.461.819-.674a2.06 2.06 0 00.545-.559.963.963 0 01.29-.262c.026-.022.084-.009.1-.032a4.212 4.212 0 01.913-.745 7.13 7.13 0 01.949-.74 1.525 1.525 0 00.383-.31c.243-.241.6-.336.806-.62.014-.022.035-.052.055-.054.384-.046.614-.354.92-.533.233-.136.446-.31.684-.438s.477-.242.709-.383c.454-.278.952-.483 1.42-.739.2-.112.459-.093.635-.29.045-.051.225-.012.329.026a.574.574 0 00.49-.061 5.184 5.184 0 011.2-.612.924.924 0 00.419-.317.9.9 0 01.658-.31 3.474 3.474 0 00.654-.222 1.282 1.282 0 01.436-.091 6.987 6.987 0 00.714-.077.245.245 0 00.122-.081 1.017 1.017 0 01.817-.313c.172.009.355.054.5-.126.072-.088.236 0 .352-.1.081-.07.313.023.3.084a.449.449 0 01-.141.194c-.088.088-.155.2-.316.194-.083 0-.185.083-.065.2.026.028-.009.106.006.154.029.1.046.23.209.11.042-.032.129-.017.193 0 .341.072.627-.165.956-.159.1-.154.277-.168.417-.226a3.585 3.585 0 01.717-.165c.21-.036.429-.035.635-.087a3.093 3.093 0 00.4-.083c.326-.136.712.019 1.009-.223.025-.019.077 0 .116 0a1.272 1.272 0 00.525-.067c.13-.07.314 0 .477-.08.1-.054.258 0 .388-.013s.261.054.365-.07c.01-.014.052-.013.074-.006.129.048.284.145.393.068.141-.1.272-.049.407-.068.2-.029.4-.049.6-.084.028 0 .065-.074.062-.11-.014-.162.1-.116.181-.117.009 0 .033.054.025.065-.12.158-.017.154.106.17.351.046.684-.1 1.03-.078.146.01.312-.067.442.072a.112.112 0 00.113 0c.135-.106.293-.058.441-.078.188-.028.367-.1.541.07.043.042.181.017.288-.03a1.338 1.338 0 01.581-.12c.593.007 1.18.133 1.777.088a1.31 1.31 0 01.32.074c.109.022.236-.048.326.071.01.013.049.006.074.009.422.026.843.059 1.265.074.133 0 .283.062.406-.07.023-.025.117.014.178.026.085.014.17.036.255.043.02 0 .062-.043.064-.07s-.033-.08-.052-.08a1.388 1.388 0 01-.662-.21c-.02-.012-.058-.035-.064-.028-.152.148-.3-.016-.449-.006a2.022 2.022 0 01-.765-.141 1.1 1.1 0 00-.27-.013c-.461-.026-.923-.042-1.382-.085a1.548 1.548 0 01-.406-.155c-.055-.023-.135-.085-.161-.068-.2.13-.377.025-.569 0-.167-.019-.333.08-.517.074-.484-.016-.971.017-1.453-.012s-.972.109-1.462.084c-.114-.006-.21.158-.313.068-.12-.1-.19.054-.3.019a.89.89 0 00-.351-.006c-.135.016-.267.052-.4.077s-.259-.051-.365.072c-.01.013-.081 0-.1-.02-.143-.161-.245.107-.378.033l-.028.026c.017.016.033.043.049.043.117 0 .236 0 .354.006a.5.5 0 01.168.064c.02.01.033.036.049.055-.022.012-.043.033-.064.033h-.551c-.023 0-.058 0-.068-.02-.038-.054-.016-.183-.133-.129-.057.026-.088.113-.123.177-.048.09-.068.006-.1-.009-.113-.048-.236-.02-.361-.083a.374.374 0 00-.436.143c-.071.09-.119.006-.172.009-.291.019-.593-.085-.874.067a.294.294 0 01-.155 0 .969.969 0 00-.645.155.312.312 0 01-.281.081c-.11-.035-.191.036-.281.08-.032.016-.062.055-.094.057-.467.01-.9.267-1.381.177a.318.318 0 01-.086-.043.572.572 0 00.1-.035 3.346 3.346 0 01.856-.3c.275-.067.535-.172.8-.258a2.087 2.087 0 01.2-.074c.223-.049.442-.107.471-.4a.171.171 0 01.193-.146c.242.012.436-.158.681-.171.126-.007.239-.167.367-.245a.639.639 0 01.377-.138 2.874 2.874 0 001.036-.152.8.8 0 01.157 0 4.727 4.727 0 00.945-.091c.259-.075.533.017.752-.08.251-.113.485-.006.72-.057a35.013 35.013 0 013.9-.081c.409 0 .811.117 1.224.074.2.117.426.051.635.084a3.932 3.932 0 00.638.078 2.466 2.466 0 01.635.08c.316.088.63.185.948.271a.526.526 0 00.142.036 4.356 4.356 0 011.522.313c.246.075.506.117.756.174.291.068.583.174.875.248.256.065.436.267.7.319s.461.248.739.206a1.9 1.9 0 00.688.235 4.108 4.108 0 00.684.249c.119.216.372.106.538.222a1.186 1.186 0 00.529.245c.1.012.19.1.29.149.42.185.846.361 1.264.555.188.085.351.229.542.306a3.379 3.379 0 01.806.433 3.073 3.073 0 00.53.232c.571.274 1.084.656 1.665.916a2.242 2.242 0 01.336.232c.485.348 1 .659 1.456 1.043a10.817 10.817 0 01.945.736 10.474 10.474 0 00.842.727c.356.3.668.648 1.024.945a10.833 10.833 0 01.876.814c.064.07.107.18.183.209.132.049.125.183.2.252.154.133.259.313.462.4.088.038.126.181.2.264.274.307.569.6.829.917a9.289 9.289 0 01.98 1.282 2.3 2.3 0 00.319.372c.238.265.343.613.594.862.032.032.026.106.059.129a1.1 1.1 0 01.377.554 2.69 2.69 0 00.467.748c.177.242.287.516.451.762.229.345.407.723.63 1.075a4.1 4.1 0 01.27.633c.126.3.3.583.443.878a10.98 10.98 0 01.625 1.588 3.424 3.424 0 01.322.89c.143.117.036.313.149.451s.1.336.175.474.048.312.135.459c.075.13.016.345.1.465.119.171.02.365.133.539a.691.691 0 01.091.51c.252.5.233 1.074.462 1.578a.678.678 0 01.01.232 1.17 1.17 0 00.036.494c.088.155-.054.346.117.467.019.013.01.077 0 .114a.868.868 0 00-.006.448c.039.141-.017.3.086.438.084.109-.126.2-.007.335a.666.666 0 01.083.354 2.055 2.055 0 00.01.391 9.341 9.341 0 01.083 1.146 10.843 10.843 0 01.063 1.627c0 .088-.025.181.068.249.02.016.022.078.009.11a4.261 4.261 0 00-.077 1.228c-.02.2-.061.4-.074.6s.012.4-.009.59a2.472 2.472 0 00-.08.4c.006.12.07.262-.055.368.141.254-.081.494-.025.755a.847.847 0 01-.028.532c-.085.155.049.343-.117.468-.032.025 0 .126-.006.191-.028.187.059.381-.054.568-.09.151-.007.335-.085.514s-.022.417-.088.63a6.509 6.509 0 00-.148.683c-.039.206-.059.422-.1.632-.022.122-.052.242-.078.361-.03.135.035.27-.054.413-.059.1.017.27-.032.377a6.476 6.476 0 00-.287 1.138c-.1.377-.171.774-.275 1.149a12.407 12.407 0 00-.3 1.29 3.91 3.91 0 01-.142.372 1.971 1.971 0 00-.171.559.288.288 0 01-.055.133c-.02.032-.083.062-.078.083.072.33-.239.53-.274.838a2.507 2.507 0 01-.319.768c-.033.068-.067.067.03.112.167.075.146.09.071.278a5.1 5.1 0 01-.509.89 1.682 1.682 0 00-.122.225 3.022 3.022 0 01-.406.7c-.161.2-.194.488-.419.652a4.693 4.693 0 01-.59.936c-.107.162-.2.339-.3.5a.484.484 0 00-.1.409c0 .026.012.07 0 .075-.171.1-.12.294-.194.432a2.435 2.435 0 01-.306.462c-.378.422-.668.91-1.064 1.32-.288.3-.536.642-.806.964a2.4 2.4 0 00-.372.706.932.932 0 01-.161.368c-.014.014 0 .081.023.1a.105.105 0 00.1 0 3.2 3.2 0 00.339-.284c.107-.109.254-.219.285-.351.052-.226.275-.256.381-.426a4.7 4.7 0 01.629-.723 4.84 4.84 0 00.616-.767 5.666 5.666 0 01.493-.583 18.235 18.235 0 001.572-2.143c.335-.539.674-1.078.991-1.63a2.544 2.544 0 01.4-.7 2.923 2.923 0 00.425-.645 2.5 2.5 0 00.181-.356.961.961 0 01.236-.375c.035-.032.081-.085.075-.122-.026-.193.141-.322.154-.487s.22-.239.181-.448c-.022-.116.114-.258.174-.391a3.152 3.152 0 00.361-.951 4.972 4.972 0 00.417-1.007.943.943 0 00.142-.336.5.5 0 01.17-.278c.065-.058.214-.119.255-.087.091.071.016.165-.032.262a3.688 3.688 0 00-.167.52c-.035.1-.084.2-.122.3a6.579 6.579 0 00-.427 1.159c-.164.17-.139.416-.243.606a1.2 1.2 0 00-.254.567.323.323 0 01-.136.213c-.128.093-.142.229-.191.356a8.746 8.746 0 01-.774 1.566c-.091.142-.13.314-.214.461-.054.094-.015.268-.2.27-.01 0-.033.067-.028.1a1.054 1.054 0 01-.1.638 1.536 1.536 0 00-.271.522 5.737 5.737 0 01-.532.919 2.154 2.154 0 00-.391.7.815.815 0 01-.162.246c-.081.11-.174.214-.248.33-.228.355-.487.688-.725 1.036a2.34 2.34 0 01-.168.243c-.238.271-.484.533-.719.806a1.176 1.176 0 00-.145.254c-.007.014.013.045.022.068a.446.446 0 00.067-.021c.072-.045.185-.077.21-.142.091-.23.307-.343.454-.52s.314-.367.471-.551c.081-.094.022-.27.17-.317s.122-.212.2-.264a.8.8 0 00.294-.351c.055-.154.2-.222.252-.361a.3.3 0 01.1-.114.991.991 0 00.438-.675.518.518 0 01.136-.3 2.719 2.719 0 00.306-.462 4.548 4.548 0 01.362-.6c.138-.188.259-.39.381-.588a6.889 6.889 0 01.48-.783c.239-.29.336-.661.588-.938.1-.417.393-.754.507-1.167.023-.081.048-.185.107-.226.274-.187.248-.538.442-.765-.074-.175.112-.241.162-.365.17-.427.378-.839.541-1.269.155-.407.3-.817.439-1.23a.863.863 0 00.229-.029c-.057.243-.229.455-.194.722 0 .03-.029.067-.046.1-.228.393-.274.856-.5 1.248.039.146-.11.19-.156.29a2.462 2.462 0 00-.155.406c-.033.135-.232.191-.161.367a3.93 3.93 0 01-.367.591c-.164.184-.146.455-.341.61a8.292 8.292 0 01-.633 1.349 4.9 4.9 0 01-.3.427c-.116.188-.248.377-.12.616a.161.161 0 010 .132 10.706 10.706 0 00-.614 1.159 16.944 16.944 0 00-1.088 1.672c-.043.057-.087.142-.143.155-.091.02-.119.08-.087.13.083.136-.21.245-.019.377a.164.164 0 01-.029.054c-.185.206-.316.451-.49.667-.212.262-.459.485-.674.74a2.859 2.859 0 00-.371.513c-.094.178-.33.249-.39.468-.009.033-.049.058-.077.085a2.971 2.971 0 00-.475.549c-.093.158-.267.241-.39.38-.471.535-.972 1.043-1.468 1.556-.075.08-.2.116-.267.2-.21.27-.488.469-.719.717a.394.394 0 00-.061.171c0 .019.014.045.023.068a.322.322 0 00.055-.026c.157-.129.313-.259.468-.39.067-.057.113-.146.226-.122.02 0 .064 0 .068-.017.107-.3.51-.33.581-.656.322-.158.417-.559.765-.7.1-.041.139-.2.229-.29.194-.184.412-.343.6-.533a1.705 1.705 0 00.478-.548c0-.009.049-.01.072 0s.039.038.035.048a1.347 1.347 0 01-.355.683 2.063 2.063 0 00-.484.541c-.067.11-.222.162-.32.256q-.493.48-.972.974c-.086.088-.141.209-.228.3s-.2.145-.3.228a.478.478 0 00-.174.284c-.036.187-.194.241-.485.246-.019 0-.058.09-.048.1.126.13.129.2-.078.2a.2.2 0 00-.123.077 3.865 3.865 0 01-.725.538 5.398 5.398 0 00-.261.214.469.469 0 00-.068.159c.048.01.1.019.145.03.106.026.162-.045.232-.107.151-.133.254-.327.465-.391.022-.007.038-.048.057-.049a.14.14 0 01.1.03c.016.022.009.094-.007.1-.264.109-.383.387-.61.525a6.458 6.458 0 00-.577.506c-.274.213-.564.409-.845.614-.212.155-.419.316-.63.471-.339.252-.684.5-1.02.754-.28.212-.6.342-.875.57a5.709 5.709 0 01-.843.513 6.755 6.755 0 00-.754.465 6.07 6.07 0 01-.733.4c-.071.039-.246.029-.1.187-.084.068-.159.18-.252.194a.822.822 0 00-.3.13 2.616 2.616 0 01-.509.194c-.058.02-.136.006-.18.039-.212.174-.494.209-.71.38a1 1 0 01-.462.2 1.382 1.382 0 00-.4.171c-.145.07-.262.2-.448.155-.022-.006-.065 0-.072.009-.119.222-.365.128-.542.216a.906.906 0 01-.556.172 3.9 3.9 0 01-.914.356c-.255.11-.535.162-.791.271a10.321 10.321 0 01-1.017.294 6.838 6.838 0 01-.7.225c-.455.093-.9.22-1.351.343-.407.113-.827.157-1.236.248a8.046 8.046 0 00-1.249.3c-.209-.054-.4.061-.6.081a2.365 2.365 0 00-.439.08c-.128.036-.223-.177-.38-.014-.062.067-.251 0-.377.025a2.755 2.755 0 00-.375.133.149.149 0 01-.075.009 9.115 9.115 0 00-1.068.085 4.636 4.636 0 00-.519.07 1.767 1.767 0 00-.506.014 1.652 1.652 0 01-.68.062c-.159 0-.338.064-.478-.074a.655.655 0 01-.439.078h-.971c-.171 0-.342.009-.512 0-.291-.019-.581-.059-.872-.074a5.15 5.15 0 01-.861-.016 5.857 5.857 0 00-.836-.068 3.535 3.535 0 01-.4-.075c-.146-.028-.294.036-.446-.068-.1-.068-.274.029-.4-.086-.029-.026-.1-.013-.154 0a.871.871 0 01-.513-.093.936.936 0 00-.326-.067.929.929 0 01-.443-.071c-.126-.067-.284 0-.443-.07s-.371-.013-.549-.094c-.022-.01-.058 0-.074-.01-.122-.1-.241-.206-.409-.091a7.993 7.993 0 01-1.306-.361 8.325 8.325 0 01-1.356-.338 6.749 6.749 0 01-1.068-.358 2.2 2.2 0 00-.589-.192c-.157-.01-.283-.126-.443-.164a4.111 4.111 0 01-.626-.288 16.457 16.457 0 01-1.564-.688c-.152-.086-.351-.074-.51-.2a4.761 4.761 0 00-.49-.233c-.336-.2-.7-.358-1.02-.578-.11-.075-.241-.112-.358-.183-.272-.162-.554-.307-.823-.483-.254-.167-.526-.312-.78-.483-.481-.323-1.009-.568-1.462-.936-.249-.2-.526-.371-.788-.559-.2-.145-.4-.3-.6-.445s-.426-.306-.627-.474c-.374-.309-.723-.646-1.109-.939-.6-.452-1.1-1.006-1.661-1.5-1.051-.922-1.984-1.961-2.988-2.929a2.078 2.078 0 01-.517-.61c-.168-.394-.572-.6-.72-1a1.067 1.067 0 00-.27-.359 3.744 3.744 0 01-.754-1.064c-.074-.155-.241-.251-.336-.412-.242-.412-.5-.819-.769-1.211a11.959 11.959 0 01-.854-1.5.882.882 0 00-.157-.21 4.18 4.18 0 01-.345-.646 5.7 5.7 0 01-.285-.626 1.33 1.33 0 00-.333-.53c-.02-.016-.052-.036-.054-.057a2.781 2.781 0 00-.319-.851 3.509 3.509 0 00-.349-.761.46.46 0 01-.043-.139 7.685 7.685 0 01-.4-1.248c-.19-.248-.151-.594-.359-.835-.022-.025-.014-.071-.025-.107s-.022-.07-.033-.1a.4.4 0 00-.042.128c0 .149-.051.316.117.423.025.016.046.084.035.1-.206.238.042.413.087.612.036.162.152.307.188.47a3.3 3.3 0 00.194.393c.058.162.052.355.107.507s0 .377.206.464a.642.642 0 00.191.433c.036.041.035.114.051.174.041.154.035.349.13.451.114.122.09.281.2.4a1.453 1.453 0 01.216.455 5.352 5.352 0 00.5 1.052c.188.27.358.558.535.838a3.544 3.544 0 01.119.343c.048.1.161.142.19.277a2.56 2.56 0 00.225.456.659.659 0 00.267.362.336.336 0 01.125.214 1.905 1.905 0 00.465.83c.03.039.09.087.084.12-.055.259.149.412.235.613a.274.274 0 00.165.184.137.137 0 01.072.1.625.625 0 00.245.49c.17.162.249.412.494.5.025.01.036.062.051.1a2 2 0 00.5.7 1.394 1.394 0 01.251.327 1.309 1.309 0 00.551.554.217.217 0 01.106.148.806.806 0 00.284.474c.142.145.272.3.4.458a2.692 2.692 0 00.617.575c.262.164.413.465.667.652.045.216.3.191.4.37a1.105 1.105 0 00.43.441c.2.1.285.332.513.375.113.274.378.371.594.533a2.706 2.706 0 01.419.527c.109.136.188.288.4.317.12.017.223.148.339.219.094.057-.106.135.035.2s.206.314.436.277c.171.209.452.291.62.478a5.619 5.619 0 001.059.78 1.756 1.756 0 01.21.156.954.954 0 00.449.252c.128.032.165.233.332.313a2.291 2.291 0 01.7.42c.1.1.284.117.426.2a7.285 7.285 0 00.746.474 2.085 2.085 0 01.619.31c.045.038.116.087.161.075a.587.587 0 01.541.214c.181.159.448.067.6.256.126-.191.245.083.37.006a1.283 1.283 0 00.441.267c.01.006.017.025.028.026.141.033-.043.265.155.256a.424.424 0 01.284.077c.068.048.175.051.229.107.217.229.514.22.785.29a1.746 1.746 0 01.313.1c.319.149.64.288.969.413a.381.381 0 00.141.036 1.348 1.348 0 01.984.225 3.041 3.041 0 00.761.249c.109.023.213.062.322.075s.21 0 .314 0a.242.242 0 01.141.035 1.6 1.6 0 00.827.288 3.08 3.08 0 00.559.072.418.418 0 01.236.086.625.625 0 00.53.145 2.758 2.758 0 01.958.159c.08.152.248.022.348.109s.251.048.374.043a.68.68 0 01.359.085c.087.043.155.135.261.012.022-.026.172.019.228.07a.736.736 0 00.568.152h.078a16.639 16.639 0 011.7.084c.157 0 .327.146.472.064a.583.583 0 01.442-.061 4.854 4.854 0 001.227.068c.407.01.813 0 1.219 0a.9.9 0 00.235 0 3.417 3.417 0 00.365-.145c.1.125.243.068.364.065a2.292 2.292 0 00.362-.072.113.113 0 01.068.02.074.074 0 01-.013.052c-.135.138-.251.3-.491.246a.573.573 0 00-.256.035c-.032.009-.052.054-.078.081.035.012.075.043.1.033a3.777 3.777 0 01.555-.088c.188-.046.385-.02.558-.075.394-.123.816-.078 1.2-.223.08-.029.183.006.272-.006.135-.019.288.065.4-.07.138.167.268 0 .4-.006a1.194 1.194 0 00.427-.012c.164-.075.341-.019.478-.08a1.832 1.832 0 01.483-.07c.384-.067.764-.135 1.153-.164.228-.017.442-.152.683-.151.142-.164.383.01.525-.155a3 3 0 00.968-.229c.116-.057.285.055.4-.085.29.064.523-.146.8-.165.125-.007.248-.143.367-.138.164.009.288-.085.441-.094a.828.828 0 00.4-.081c.312-.206.691-.151 1.016-.3.307-.142.633-.243.951-.361a.619.619 0 01.142-.036 3.242 3.242 0 001-.336c.262-.133.552-.185.811-.322a6.545 6.545 0 01.788-.374 7.583 7.583 0 00.775-.4c.259-.132.533-.236.787-.377.483-.264.975-.509 1.432-.817.212-.142.455-.235.672-.367.306-.185.6-.381.9-.584a5.481 5.481 0 00.878-.635.54.54 0 01.191-.107.122.122 0 01.1.029c.042.3.223.064.259.038a4.961 4.961 0 00.9-.784c.048-.054-.088-.145.038-.2a.969.969 0 00.188-.113c.071-.049.141-.1.21-.156a1.642 1.642 0 00.148-.117 4.845 4.845 0 01.852-.7.4.4 0 00.064-.049c.425-.4.846-.8 1.274-1.194.168-.155.361-.284.52-.448a13.964 13.964 0 001.3-1.393c.355-.481.8-.867 1.172-1.322a10.259 10.259 0 01.9-1.04c.1-.407.51-.581.7-.927a8.026 8.026 0 01.625-.92 4.765 4.765 0 00.451-.64 17.363 17.363 0 001.2-2.059c.388-.494.539-1.123.917-1.624a2.317 2.317 0 01.264-.638 6.691 6.691 0 00.339-.762 14.006 14.006 0 00.68-1.764 2.889 2.889 0 00.413-.969c.046-.194.235-.367.083-.588a.061.061 0 01.012-.055c.287-.316.255-.756.425-1.122a3.639 3.639 0 00.126-.38 1.488 1.488 0 00.128-.461.7.7 0 01.078-.319.691.691 0 00.075-.362.316.316 0 01.032-.183 4.209 4.209 0 00.329-.887.293.293 0 00.029-.143 2.718 2.718 0 01.181-1.068 4.265 4.265 0 01.343-1c.08-.141.029-.312.091-.474a3.963 3.963 0 00.1-.707 1.437 1.437 0 01.151-.407 2.335 2.335 0 00.112-.536 7.678 7.678 0 00.051-.788.261.261 0 01.078-.159.251.251 0 01.164-.051c.025 0 .067.07.065.106a1.676 1.676 0 01-.067.68c-.051.107 0 .258-.009.39a1.388 1.388 0 01-.07.561c-.07.154.061.359-.087.513a2.736 2.736 0 01-.158 1.036.118.118 0 000 .039c.058.517-.119 1.023-.081 1.54 0 .057-.038.116-.048.175-.029.17-.091.33-.119.5a4.172 4.172 0 01-.183.9 7.365 7.365 0 00-.2.783 4.65 4.65 0 01-.645 1.619.3.3 0 00-.019.351.653.653 0 01.036.352.488.488 0 01-.109.354 1.011 1.011 0 00-.129.374c-.052.175-.091.356-.159.523-.088.213-.209.413-.3.625-.02.048.039.125.038.187a.7.7 0 01-.051.174c-.019.058-.022.133-.059.171a1.159 1.159 0 00-.32.885c.006.191-.122.281-.19.4a2.614 2.614 0 00-.455.993c0 .033-.041.062-.061.093a1.248 1.248 0 00-.093.158c-.074.18-.128.368-.217.539s-.265.316-.319.5a6.93 6.93 0 01-.507.971 7.358 7.358 0 00-.532.92c-.306.209-.314.632-.612.848a4.415 4.415 0 01-.6.932c-.2.293-.4.6-.581.9a4.129 4.129 0 01-.4.458 1.978 1.978 0 00-.322.417 1.982 1.982 0 01-.262.4c-.168.209-.352.4-.525.609-.071.086-.132.181-.2.272a1.954 1.954 0 01-.168.243q-1.093 1.141-2.2 2.275c-.2.2-.426.367-.63.559a5.617 5.617 0 01-.62.6c-.261.175-.432.467-.746.564-.023.007-.061.016-.064.03-.039.184-.193.245-.33.33s-.187.245-.356.28c-.062.013 0 .17-.129.146-.233.293-.63.356-.88.625-.014.016-.006.055-.007.083a.235.235 0 00.078 0c.022-.01.035-.041.057-.054.4-.242.8-.484 1.2-.722.025-.014.07.006.1.01-.014.028-.022.068-.045.081a3.269 3.269 0 00-.771.61 1.547 1.547 0 01-.287.155 1.751 1.751 0 00-.574.41c-.109.159-.3.112-.419.241a1.475 1.475 0 01-.39.287 4.243 4.243 0 01-.387.2c-.4.172-.754.448-1.168.6a.684.684 0 01-.484.259c-.177.029-.294.19-.4.329-.01.012.038.1.064.1a.355.355 0 00.317-.094 2.694 2.694 0 01.514-.362.814.814 0 01.29-.059c.241-.033.4-.222.619-.31.245-.1.474-.249.722-.343.172-.064.243-.32.484-.245.009 0 .03-.059.052-.084.049-.052.1-.129.158-.143a1.119 1.119 0 00.5-.312c.067-.059.123-.149.219-.036.007.009.052 0 .052 0 .023-.22.18-.212.342-.212.039 0 .074-.072.119-.087.142-.046.167-.212.277-.27a.4.4 0 00.246-.251c.01-.039.07-.075.113-.094a3.093 3.093 0 00.759-.543 11.233 11.233 0 011.123-.8c.156-.1.306-.214.459-.317a.412.412 0 01.11-.038c-.007.035 0 .083-.026.1a.64.64 0 00-.226.425c-.01.122-.184.241-.3.338a6.22 6.22 0 00-.538.4 4.04 4.04 0 01-.736.509c-.2.132-.343.333-.554.465a6.525 6.525 0 00-.714.552.241.241 0 01-.2.08c-.109-.016-.175.012-.159.142 0 .032-.025.068-.042.1a1.144 1.144 0 00-.107.191c-.01.033.1.006.239-.084a3.394 3.394 0 01.629-.38c.228-.085.449-.2.674-.264.248-.067.345-.248.5-.394.062-.059.088-.167.158-.2a2.068 2.068 0 00.551-.555 1.619 1.619 0 01.726-.52.638.638 0 00.277-.18 2.171 2.171 0 01.658-.413c.014-.009.049-.012.052-.006a.1.1 0 01.016.07.269.269 0 01-.067.09 3.811 3.811 0 01-.988.839c-.057.025-.1.088-.142.135-.22.229-.509.383-.729.6a12.086 12.086 0 00-1.09.9 1 1 0 01-.235.183 10.344 10.344 0 01-1.21.878.071.071 0 00-.017.068.136.136 0 00.074.064.381.381 0 00.332-.139 11.391 11.391 0 011.061-.877c.161-.156.346-.3.516-.452a.489.489 0 01.217-.135c.236-.041.368-.245.565-.343.061-.03.091-.119.143-.172a3.416 3.416 0 01.317-.314 2.559 2.559 0 00.667-.555c.419-.214.625-.681 1.048-.888.164-.081.148-.307.348-.38a.631.631 0 00.322-.359.626.626 0 01.245-.251 2.315 2.315 0 00.874-.8c.161-.225.322-.449.5-.656.3-.341.61-.665.913-1 .145-.159.268-.341.422-.491.19-.188.4-.352.6-.532a8.561 8.561 0 001.216-1.539 4.5 4.5 0 01.591-.9 3.68 3.68 0 01.583-1.017c.064-.119.183-.217.217-.342a2.346 2.346 0 01.414-.771c.261-.346.385-.762.614-1.124.049-.078 0-.156-.1-.048-.016-.026-.049-.055-.045-.078a.183.183 0 01.058-.091 4.119 4.119 0 00.714-1.239c.039-.071.071-.152.114-.228.084-.146.136-.31.212-.462a2.8 2.8 0 01.229-.536.894.894 0 00.084-.278.789.789 0 01.1-.272 4.123 4.123 0 00.469-.868c.016-.033.057-.059.061-.093a7.066 7.066 0 01.768-2 1.806 1.806 0 00.261-.758.414.414 0 01.078-.2 1.114 1.114 0 00.158-.446.808.808 0 01.255-.525.684.684 0 00.22-.5 3.2 3.2 0 01.155-.836c.041-.1.039-.29.254-.255.035 0 .129-.107.126-.161a.621.621 0 01.2-.552c.094-.083.078-.258.1-.383a3.258 3.258 0 01.209-.625.379.379 0 00.039-.178.593.593 0 01.136-.549c.045-.055.114-.149.1-.19-.119-.246.055-.481.014-.726a.77.77 0 01.075-.358 1.445 1.445 0 01.146-.248c-.139-.087-.03-.164 0-.254.016-.048-.023-.117-.039-.177-.036-.146-.091-.294.041-.426a.37.37 0 00.057-.106c.029.028.083.058.08.083-.013.148.21.283.025.438v.512a2.747 2.747 0 01-.045.821zm9.867-14.636a1.512 1.512 0 00-.262-.871.792.792 0 01-.126-.607 3.865 3.865 0 00.071-.91c0-.026.03-.052.046-.078l.029.065a.572.572 0 01.075.2 9 9 0 00.333 1.664c.136.146.016.326.064.435v.322a.086.086 0 11-.151.017.507.507 0 01-.079-.237zm.545 8.095a1.32 1.32 0 01-.057.122c-.052-.03-.123-.052-.152-.1a.331.331 0 01-.025-.183.855.855 0 00-.113-.5.347.347 0 01-.041-.252 1.66 1.66 0 000-1 3.525 3.525 0 01-.013-.7c0-.122.036-.246-.059-.37-.042-.054.017-.187.032-.284a.569.569 0 00.028-.143.85.85 0 01.312-.9.438.438 0 01.055-.035.176.176 0 01.028.067v.391h.01a1.9 1.9 0 01-.045.535 1.792 1.792 0 00-.041.53 2.5 2.5 0 01-.013.543 2.344 2.344 0 00-.065.755.6.6 0 00.064.365c.078.128.033.326.1.467s-.072.29.061.425c.038.029-.037.174-.066.267zm-32.8 33.822a.555.555 0 00-.355.188c-.364-.01-.629.257-.958.346a2.406 2.406 0 00-.536.222 1.183 1.183 0 01-.567.248.189.189 0 00-.1.049 1.34 1.34 0 01-.568.245c-.123.029-.225.151-.333.235-.007.006.012.065.02.067.065.006.13 0 .2 0s.175.029.23-.006c.083-.052.241-.03.229-.194.123-.019.3.007.361-.065.129-.145.272-.119.425-.13a.282.282 0 00.17-.058.285.285 0 01.238-.1.19.19 0 00.138-.039 2.948 2.948 0 01.855-.506c.229-.135.478-.235.716-.356.029-.016.061-.086.049-.106a.223.223 0 00-.117-.087c-.023-.004-.059.041-.094.047z" fill="#fff"/></svg>