<svg xmlns="http://www.w3.org/2000/svg" width="28.7" height="24.6"><path data-name="Trazado 11943" d="M25 24.6H3.6A3.608 3.608 0 010 20.9V7.7a3.585 3.585 0 013.6-3.6h3.9L9.1.5a.792.792 0 01.8-.5h9.4a.752.752 0 01.7.5l1.6 3.6h3.5a3.585 3.585 0 013.6 3.6v13.2a3.63 3.63 0 01-3.7 3.7zM3.6 5.7a2.006 2.006 0 00-2 2V21a1.923 1.923 0 001.9 2h21.6a2.006 2.006 0 002-2V7.7a1.923 1.923 0 00-1.9-2h-4.1a.752.752 0 01-.7-.5l-1.6-3.6h-8.4L8.8 5.2a.752.752 0 01-.7.5z" fill="#99a4ad"/><path data-name="Trazado 11944" d="M14.3 18.2a4.9 4.9 0 114.9-4.9 4.908 4.908 0 01-4.9 4.9zm0-8.3a3.3 3.3 0 103.3 3.3 3.329 3.329 0 00-3.3-3.3z" fill="#19a500"/></svg>