<svg xmlns="http://www.w3.org/2000/svg" width="25.3" height="31.6"><g data-name="Grupo 13560"><path data-name="Trazado 11945" d="M24.4 31.6H2.8a.86.86 0 01-.8-.8V9.9a.8.8 0 011.6 0V30h20.1V2.8H8.9a.86.86 0 01-.8-.8.86.86 0 01.8-.8h15.6a.86.86 0 01.8.8v28.9a.876.876 0 01-.9.7z" fill="#99a4ad"/><path data-name="Trazado 11946" d="M19.1 19.8H8.4a.86.86 0 01-.8-.8V8.2a.86.86 0 01.8-.8h10.7a.86.86 0 01.8.8v10.7a.882.882 0 01-.8.9zm-9.9-1.6h9.1V9.1H9.2z" fill="#99a4ad"/><path data-name="Trazado 11947" d="M16.9 24.9H8.4a.8.8 0 110-1.6h8.5a.8.8 0 110 1.6z" fill="#99a4ad"/><path data-name="Trazado 11948" d="M3.3 6.6a3.3 3.3 0 113.3-3.3 3.329 3.329 0 01-3.3 3.3zm0-5A1.7 1.7 0 105 3.3a1.685 1.685 0 00-1.7-1.7z" fill="#19a500"/></g></svg>