<svg xmlns="http://www.w3.org/2000/svg" width="33.1" height="23.8"><g data-name="Grupo 13561"><path data-name="Trazado 11959" d="M3.4 6.8a3.4 3.4 0 113.4-3.4 3.5 3.5 0 01-3.4 3.4zm0-5.2a1.8 1.8 0 101.8 1.8 1.793 1.793 0 00-1.8-1.8z" fill="#19a500"/><path data-name="Trazado 11960" d="M23.2 23.8H3.1a.86.86 0 01-.8-.8V9.3a.86.86 0 01.8-.8.86.86 0 01.8.8v13h18.5V3.7H9.2a.8.8 0 110-1.6h14.1a.86.86 0 01.8.8V23a.876.876 0 01-.9.8z" fill="#95a6b1"/><path data-name="Trazado 11961" d="M32.3 23.8c-.2 0-.3 0-.4-.1l-9.1-5.9a1.012 1.012 0 01-.4-.7V8.8a.755.755 0 01.4-.7l9.1-5.9a1.1 1.1 0 01.8 0 .67.67 0 01.4.7V23a.842.842 0 01-.4.7c-.1.1-.2.1-.4.1zM24 16.7l7.5 4.8V4.4L24 9.3z" fill="#95a6b1"/></g></svg>