<svg xmlns="http://www.w3.org/2000/svg" width="25.7" height="31.3"><path data-name="Trazado 11937" d="M24.9 31.3H3.2a.86.86 0 01-.8-.8V9.6a.961.961 0 01.7-.9.961.961 0 01.9.7v20.3h20.1V2.5H9.3a.86.86 0 01-.8-.8.86.86 0 01.8-.8h15.6a.86.86 0 01.8.8v28.9a.713.713 0 01-.8.7z" fill="#99a4ad"/><path data-name="Trazado 11938" d="M19.7 21.4H8.9a.8.8 0 110-1.6h10.8a.8.8 0 110 1.6z" fill="#99a4ad"/><path data-name="Trazado 11939" d="M19.7 16H8.9a.8.8 0 010-1.6h10.8a.86.86 0 01.8.8.789.789 0 01-.8.8z" fill="#99a4ad"/><path data-name="Trazado 11940" d="M19.7 10.7H8.9a.8.8 0 110-1.6h10.8a.8.8 0 110 1.6z" fill="#99a4ad"/><path data-name="Trazado 11941" d="M17.4 26.4H8.9a.8.8 0 110-1.6h8.5a.8.8 0 110 1.6z" fill="#99a4ad"/><path data-name="Trazado 11942" d="M3.4 6.8a3.4 3.4 0 113.4-3.4 3.372 3.372 0 01-3.4 3.4zm0-5.2a1.8 1.8 0 101.8 1.8 1.793 1.793 0 00-1.8-1.8z" fill="#19a500"/></svg>