<svg xmlns="http://www.w3.org/2000/svg" width="25.3" height="34.029"><path data-name="Trazado 11949" d="M11 16.229a.86.86 0 01-.8-.8v-3.3a.8.8 0 111.6 0v3.4c-.1.4-.4.8-.8.7z" fill="#99a4ad"/><path data-name="Trazado 11950" d="M15.7 16.229a.86.86 0 01-.8-.8v-3.3a.8.8 0 011.6 0v3.4a.666.666 0 01-.8.7z" fill="#99a4ad"/><path data-name="Trazado 11951" d="M24.5 34.029a.86.86 0 01-.8-.8v-11.4a3.749 3.749 0 00-2-2.7l-6.3-2.8a.841.841 0 01-.4-1.1.819.819 0 011-.4l6.4 2.9a5.736 5.736 0 012.9 3.9v11.6a.736.736 0 01-.8.8z" fill="#99a4ad"/><path data-name="Trazado 11952" d="M24.5 34.029H2.8a1.538 1.538 0 01-1.5-1.5v-8.3a.86.86 0 01.8-.8.789.789 0 01.8.8v8.2h21.6a.86.86 0 01.8.8.736.736 0 01-.8.8z" fill="#99a4ad"/><path data-name="Trazado 11953" d="M7.7 17.729a.86.86 0 01-.8-.8.752.752 0 01.5-.7l3.3-1.5a.828.828 0 11.7 1.5h-.1l-3.3 1.5z" fill="#99a4ad"/><path data-name="Trazado 11954" d="M13.3 19.029a.864.864 0 01-.6-.3l-2.4-2.7a.781.781 0 111.2-1l2.4 2.7a.713.713 0 01-.1 1.1.764.764 0 01-.5.2z" fill="#99a4ad"/><path data-name="Trazado 11955" d="M13.3 19.029a.764.764 0 01-.5-.2.785.785 0 010-1.1l2.4-2.7a.781.781 0 011.2 1l-2.4 2.7a.908.908 0 01-.7.3z" fill="#99a4ad"/><path data-name="Trazado 11956" d="M13.3 13.729a5.335 5.335 0 01-5.3-5.3.8.8 0 111.6 0 3.7 3.7 0 007.4 0 .8.8 0 111.6 0 5.271 5.271 0 01-5.3 5.3z" fill="#99a4ad"/><path data-name="Trazado 11957" d="M17.8 9.229a.86.86 0 01-.8-.8v-3.5a3.686 3.686 0 00-4-3.3 3.821 3.821 0 00-3.4 3.9v2.9a.8.8 0 11-1.6 0v-2.9a5.357 5.357 0 014.8-5.5 5.286 5.286 0 015.8 4.8v3.6a.789.789 0 01-.8.8z" fill="#99a4ad"/><path data-name="Trazado 11958" d="M3.3 22.829a3.3 3.3 0 113.3-3.3 3.329 3.329 0 01-3.3 3.3zm0-5a1.7 1.7 0 101.7 1.7 1.752 1.752 0 00-1.7-1.7z" fill="#19a500"/></svg>