<svg version="1.1" id="Capa_1" xmlns="http://www.w3.org/2000/svg" xmlns:xlink="http://www.w3.org/1999/xlink" x="0" y="0" viewBox="0 0 65 65" xml:space="preserve"><style>.st1{stroke:#93a4af;stroke-width:1.6;stroke-linecap:round;stroke-linejoin:round}.st1,.st2{fill:none}.st4{fill:#4da12e}</style><path id="Trazado_11848_6_" d="M15.31 20.33c0 2.31-1.87 4.18-4.18 4.18s-4.18-1.87-4.18-4.18 1.87-4.18 4.18-4.18h0c2.3-.01 4.17 1.85 4.18 4.15v.03z" fill="none" stroke="#00a800" stroke-width="1.6" stroke-linecap="round" stroke-linejoin="round" stroke-miterlimit="10"/><path class="st1" d="M16.99 33.01h9.28m2.97 0h1.25m-1.78-4.88l8.97-14.2 8.97 14.48m-29.48-.28l8.23-11.46 5.78 7.01"/><path class="st1" d="M33.16 21.16l2.5 2.24 2.09-2.18 2.29 2.13 2.14-2.19"/><path class="st1" d="M11.25 13.32v-.62c0-2.03 1.65-3.67 3.67-3.67h35.15c2.03 0 3.67 1.65 3.67 3.67V35c0 2.03-1.65 3.67-3.67 3.67H14.93c-2.03 0-3.67-1.65-3.67-3.67v-7.75m9.99 11.52v8.89h-4.2v-8.84m31.23-.05v8.89h-4.2v-8.84M17.05 8.95V6.92c0-1.12.91-2.03 2.03-2.03h.14c1.12 0 2.03.91 2.03 2.03V8.9m22.73.05V6.92c0-1.12.91-2.03 2.03-2.03h.14c1.12 0 2.03.91 2.03 2.03V8.9"/><circle class="st1" cx="47.63" cy="15.56" r="2.23"/><path class="st1" d="M7.57 47.65h49.86"/><g id="Grupo_13216_10_" transform="translate(.246 .246)"><path class="st2" d="M-.25-.25h65v65h-65z" id="Rectángulo_3799_12_"/></g><path class="st2" d="M0 0h65v65H0z" id="Rectángulo_3799-2_10_"/><defs><path id="SVGID_1_" d="M0 48.26h65V65H0z"/></defs><clipPath id="SVGID_2_"><use xlink:href="#SVGID_1_" overflow="visible"/></clipPath><g clip-path="url(#SVGID_2_)"><path class="st2" d="M0 48.26h65V65H0z"/><path class="st4" d="M45.38 61.32h-7.17c-.66 0-1.2-.54-1.2-1.2s.54-1.2 1.2-1.2h7.17c.66 0 1.2.54 1.2 1.2s-.54 1.2-1.2 1.2zm7.73 0h-.58c-.66 0-1.2-.54-1.2-1.2s.54-1.2 1.2-1.2h.58c.66 0 1.2.54 1.2 1.2s-.54 1.2-1.2 1.2zm-34.12 0h-7.1c-.66 0-1.2-.54-1.2-1.2s.54-1.2 1.2-1.2h7.1c.66 0 1.2.54 1.2 1.2s-.54 1.2-1.2 1.2z"/><path d="M31.05 61.32H18.53c-.66 0-1.2-.54-1.2-1.2s.54-1.2 1.2-1.2h12.52c.66 0 1.2.54 1.2 1.2s-.54 1.2-1.2 1.2zm4.42-6.11H11.89c-.66 0-1.2-.54-1.2-1.2s.54-1.2 1.2-1.2h23.58c.66 0 1.2.54 1.2 1.2s-.54 1.2-1.2 1.2z" fill="#96d200"/><path class="st4" d="M53.11 55.21H34.75c-.66 0-1.2-.54-1.2-1.2s.54-1.2 1.2-1.2h18.36c.66 0 1.2.54 1.2 1.2s-.54 1.2-1.2 1.2z"/><path fill="none" stroke="#4da12e" stroke-width="2.4" stroke-linecap="round" stroke-linejoin="round" stroke-miterlimit="10" d="M11.89 54.01h.43"/></g></svg>