<svg id="Capa_1" data-name="Capa 1" xmlns="http://www.w3.org/2000/svg" viewBox="0 0 65 65"><defs><style>.cls-1{fill:none}.cls-2{fill:#4c9f2e}.cls-4{fill:#95a6b1}</style></defs><path class="cls-1" d="M0 48.3h65v16.74H0z"/><path class="cls-2" d="M45.4 61.3h-7.2a1.2 1.2 0 01-1.2-1.2 1.3 1.3 0 011.2-1.2h7.2a1.3 1.3 0 011.2 1.2 1.2 1.2 0 01-1.2 1.2zm7.7 0h-.6a1.2 1.2 0 01-1.2-1.2 1.3 1.3 0 011.2-1.2h.6a1.2 1.2 0 011.2 1.2 1.2 1.2 0 01-1.2 1.2zm-34.1 0h-7.1a1.2 1.2 0 01-1.2-1.2 1.2 1.2 0 011.2-1.2H19a1.2 1.2 0 011.2 1.2 1.2 1.2 0 01-1.2 1.2z"/><path d="M31 61.3H18.5a1.2 1.2 0 01-1.2-1.2 1.3 1.3 0 011.2-1.2H31a1.2 1.2 0 011.2 1.2 1.2 1.2 0 01-1.2 1.2zm4.5-6.1H11.9a1.2 1.2 0 110-2.4h23.6a1.2 1.2 0 010 2.4z" fill="#94d040"/><path class="cls-2" d="M53.1 55.2H34.7a1.2 1.2 0 010-2.4h18.4a1.2 1.2 0 010 2.4zm-40.8 0h-.4a1.2 1.2 0 110-2.4h.4a1.2 1.2 0 010 2.4z"/><g id="Grupo_13216" data-name="Grupo 13216"><path class="cls-1" d="M0 0h65v65H0z" id="Rectángulo_3799" data-name="Rectángulo 3799"/></g><path class="cls-1" d="M0 0h65v65H0z" id="Rectángulo_3799-2" data-name="Rectángulo 3799-2"/><g id="Grupo_13714" data-name="Grupo 13714"><g id="Grupo_13387" data-name="Grupo 13387"><path class="cls-4" d="M25.1 49.2a8 8 0 01-8-8V16.3a.8.8 0 01.8-.8.7.7 0 01.8.8v24.9a6.4 6.4 0 006.4 6.4h24.4V7.7H24.6a.8.8 0 01-.8-.8.7.7 0 01.8-.8h25.7a.8.8 0 01.8.8v41.4a.8.8 0 01-.8.8z" id="Trazado_11781" data-name="Trazado 11781"/></g><g id="Grupo_13390" data-name="Grupo 13390"><g id="Grupo_13389" data-name="Grupo 13389"><path class="cls-4" d="M33.9 34.4a.9.9 0 01-.8-.8V20.4a.8.8 0 011.6 0v13.2a.9.9 0 01-.8.8z" id="Línea_2376" data-name="Línea 2376"/><path class="cls-4" d="M34 23.5l-.6-.2a.9.9 0 010-1.2l6.6-6.5a.8.8 0 011.1 1.1l-6.5 6.6z" id="Línea_2377" data-name="Línea 2377"/><path class="cls-4" d="M33.8 27.7l-.4-.2-5.7-3.8a.9.9 0 01-.2-1.1.7.7 0 011.1-.2l5.7 3.8a.9.9 0 01.2 1.1.8.8 0 01-.7.4z" id="Línea_2378" data-name="Línea 2378"/><path class="cls-4" d="M39.6 21.3a4.3 4.3 0 01-3.1-7.3c1.5-1.5 6.8-2.5 7.9-2.7l.6.2a1.1 1.1 0 01.3.7c-.2 1.1-1.2 6.4-2.7 7.9a4.2 4.2 0 01-3 1.2zm3.9-8.2c-2.2.5-5.1 1.2-5.9 2a2.8 2.8 0 000 3.8 2.8 2.8 0 003.9.1c.8-.8 1.5-3.7 2-5.9zm-1.4 6.4z" id="Trazado_11782" data-name="Trazado 11782"/><g id="Grupo_13388" data-name="Grupo 13388"><path class="cls-4" d="M30.6 25.6a.5.5 0 01-.4-.2l-3.5-2.3a.7.7 0 01-.2-1.1.8.8 0 011.1-.3l3.5 2.4a.9.9 0 01.2 1.1 1 1 0 01-.7.4z" id="Línea_2379" data-name="Línea 2379"/><path class="cls-4" d="M28.1 27.1a4.6 4.6 0 01-2-.5c-1.5-1.1-3-5.5-3.3-6.4a.6.6 0 01.1-.7.6.6 0 01.6-.3c.9-.1 5.6-.3 7.1.7a4.1 4.1 0 01.6 5.7 4.2 4.2 0 01-3.1 1.5zm-3.5-6.4c.7 1.9 1.7 4.1 2.4 4.5a2.5 2.5 0 003-.6 2.4 2.4 0 00-.4-3.4c-.6-.4-3-.5-5-.5z" id="Trazado_11783" data-name="Trazado 11783"/></g></g><path class="cls-4" d="M39.9 34.4H28.4a.8.8 0 010-1.6h11.5a.8.8 0 010 1.6z" id="Línea_2380" data-name="Línea 2380"/></g><path class="cls-4" d="M43.8 39.9H24.4a.8.8 0 01-.8-.8.9.9 0 01.8-.8h19.4a.9.9 0 01.8.8.8.8 0 01-.8.8z" id="Línea_2381" data-name="Línea 2381"/><path class="cls-4" d="M43.8 44.8H24.4a.8.8 0 010-1.6h19.4a.8.8 0 010 1.6z" id="Línea_2382" data-name="Línea 2382"/><path d="M17.5 13.9a5 5 0 01-4.9-5 4.9 4.9 0 014.9-5h.1a4.9 4.9 0 014.9 5 5 5 0 01-5 5zm.1-8.4a3.4 3.4 0 103.3 3.4 3.4 3.4 0 00-3.3-3.4z" fill="#00a800" id="Trazado_11848" data-name="Trazado 11848"/></g></svg>