<svg version="1.1" id="Capa_1" xmlns="http://www.w3.org/2000/svg" x="0" y="0" viewBox="0 0 65 65" xml:space="preserve"><style>.st0,.st1{fill:none}.st1{stroke:#95a6b1;stroke-width:1.6;stroke-linecap:round;stroke-linejoin:round}.st5{fill:#4da12e}</style><path id="Rectángulo_3799-2_16_" class="st0" d="M0 0h65v65H0z"/><path id="Trazado_11848_10_" d="M28.77 9.76c0 1.96-1.59 3.56-3.56 3.56-1.96 0-3.56-1.59-3.56-3.56 0-1.96 1.59-3.56 3.56-3.56h0a3.542 3.542 0 013.56 3.53v.03z" fill="none" stroke="#19a500" stroke-width="1.6" stroke-linecap="round" stroke-linejoin="round" stroke-miterlimit="10"/><path class="st1" d="M59.64 15.01l-7 9.66v11.64m-12.52-16.3h15.52m-46.28 0h15.23m16.53-2.92h16.52m-50.28 0h16.23M12.36 36.31V25.26l-7-10.25m6.77 25.14c2.54 0 2.54 2 5.09 2 2.54 0 2.54-2 5.09-2 2.54 0 2.54 2 5.09 2s2.55-2 5.09-2 2.54 2 5.09 2 2.55-2 5.09-2c2.55 0 2.55 2 5.1 2s2.55-2 5.1-2m-40.74 6.29c2.54 0 2.54 2 5.09 2 2.54 0 2.54-2 5.09-2 2.54 0 2.54 2 5.09 2s2.55-2 5.09-2 2.54 2 5.09 2 2.55-2 5.09-2c2.55 0 2.55 2 5.1 2s2.55-2 5.1-2"/><path class="st1" d="M35.28 40.87v-9.64a2.5 2.5 0 00-5 0v9.64m16.76.22v-9.87a2.5 2.5 0 00-5 0v8.87m-19.08 0v-8.87a2.5 2.5 0 00-5 0v9.87M28.97 17.1l4.34-6.15v4.23l2.72-.06-4.08 6.43V17.1zm1.53-9.3a8.76 8.76 0 012-.24m-8.55 8.56c0-.26.01-.52.03-.77"/><path class="st1" d="M32.5 7.56c4.72 0 8.55 3.83 8.55 8.55s-3.83 8.55-8.55 8.55-8.55-3.83-8.55-8.55m-3.49 12.62v-2.92m24.08 2.92v-2.92"/><path class="st0" d="M0 48.26h65V65H0z"/><path class="st5" d="M45.38 61.32h-7.17c-.66 0-1.2-.54-1.2-1.2s.54-1.2 1.2-1.2h7.17c.66 0 1.2.54 1.2 1.2s-.54 1.2-1.2 1.2zm7.73 0h-.58c-.66 0-1.2-.54-1.2-1.2s.54-1.2 1.2-1.2h.58c.66 0 1.2.54 1.2 1.2s-.54 1.2-1.2 1.2zm-34.12 0h-7.1c-.66 0-1.2-.54-1.2-1.2s.54-1.2 1.2-1.2h7.1c.66 0 1.2.54 1.2 1.2s-.53 1.2-1.2 1.2z"/><path d="M31.05 61.32H18.53c-.66 0-1.2-.54-1.2-1.2s.54-1.2 1.2-1.2h12.52c.66 0 1.2.54 1.2 1.2s-.54 1.2-1.2 1.2zm4.42-6.11H11.89c-.66 0-1.2-.54-1.2-1.2s.54-1.2 1.2-1.2h23.58c.66 0 1.2.54 1.2 1.2s-.53 1.2-1.2 1.2z" fill="#96d200"/><path class="st5" d="M53.11 55.21H34.75c-.66 0-1.2-.54-1.2-1.2s.54-1.2 1.2-1.2h18.36c.66 0 1.2.54 1.2 1.2s-.54 1.2-1.2 1.2zm-40.79 0h-.43c-.66 0-1.2-.54-1.2-1.2s.54-1.2 1.2-1.2h.43c.66 0 1.2.54 1.2 1.2s-.54 1.2-1.2 1.2z"/></svg>