<svg xmlns="http://www.w3.org/2000/svg" width="65" height="75.795"><g data-name="Grupo 18056"><path data-name="Path 9382" d="M21.908 6.669a5.419 5.419 0 10-5.419 5.419h0a5.4 5.4 0 005.419-5.381z" fill="none" stroke="#19a500" stroke-linecap="round" stroke-linejoin="round" stroke-width="2.5"/><path data-name="Path 9383" d="M43.752 5.665v7.989h7.311" fill="none" stroke="#95a6b1" stroke-linecap="round" stroke-linejoin="round" stroke-width="2.5"/><path data-name="Path 9384" d="M51.065 27.037v-12.7m-37.128 2.709v23.248a10.5 10.5 0 0010.638 10.351h26.49v-6.013" fill="none" stroke="#95a6b1" stroke-linecap="round" stroke-linejoin="round" stroke-width="2.5"/><path data-name="Path 9385" d="M51.058 13.497l-7.465-8.316-1.749.016H27.08" fill="none" stroke="#95a6b1" stroke-linecap="round" stroke-linejoin="round" stroke-width="2.5"/><path data-name="Path 9386" d="M59.708 35.832a8.8 8.8 0 11-8.8-8.8h0a8.775 8.775 0 018.8 8.75z" fill="none" stroke="#95a6b1" stroke-linecap="round" stroke-linejoin="round" stroke-width="2.5"/><g data-name="Grupo 18051" fill="none" stroke="#95a6b1" stroke-linecap="round" stroke-linejoin="round" stroke-width="2.5"><path data-name="Línea 2831" d="M50.708 32.486v7"/><path data-name="Línea 2832" d="M54.208 35.986h-7"/></g><g data-name="Grupo 18052" fill="none" stroke="#95a6b1" stroke-linecap="round" stroke-linejoin="round" stroke-width="2.5"><path data-name="Línea 2833" d="M23.708 21.486h16"/><path data-name="Línea 2834" d="M23.708 27.486h9"/><path data-name="Línea 2835" d="M23.708 33.486h9"/></g><g data-name="Grupo 18055"><g data-name="Grupo 18054" fill="none"><path data-name="Rectángulo 5316" d="M.001 59.054h65v16.741h-65z"/><g data-name="Grupo 18053" stroke-linecap="round" stroke-linejoin="round" stroke-width="2.4"><path data-name="Línea 2836" stroke="#4e9e2e" d="M38.214 70.914h7.167"/><path data-name="Línea 2837" stroke="#4e9e2e" d="M52.529 70.914h.581"/><path data-name="Línea 2838" stroke="#4e9e2e" d="M11.891 70.914h7.101"/><path data-name="Línea 2839" stroke="#94cf01" d="M18.53 70.914h12.517"/><path data-name="Línea 2840" stroke="#94cf01" d="M11.891 64.807h23.582"/><path data-name="Línea 2841" stroke="#4e9e2e" d="M34.746 64.807h18.363"/><path data-name="Línea 2842" stroke="#4e9e2e" d="M11.891 64.807h.429"/></g></g></g></g></svg>