<svg version="1.1" id="Capa_1" xmlns="http://www.w3.org/2000/svg" xmlns:xlink="http://www.w3.org/1999/xlink" x="0" y="0" viewBox="0 0 65 72.7" xml:space="preserve"><style>.st0{fill:none}.st1,.st5{fill:none;stroke-linecap:round;stroke-linejoin:round}.st1{stroke:#4da12e;stroke-width:2.4;stroke-miterlimit:10}.st5{stroke:#97a5af;stroke-width:2.5}</style><symbol id="Textura-65px_2" viewBox="-32.5 -8.4 65 16.7"><path class="st0" d="M-32.5-8.4h65V8.3h-65z"/><path class="st1" d="M5.7-3.5h7.2m7.1 0h.6m-41.2 0h7.1"/><path d="M-14-3.5h12.5m-19.1 6.1H3" stroke="#96d200" stroke-width="2.4" stroke-miterlimit="10" fill="none" stroke-linecap="round" stroke-linejoin="round"/><path class="st1" d="M2.2 2.6h18.4m-41.2 0h.4"/></symbol><use xlink:href="#Textura-65px_2" width="65" height="16.7" x="-32.5" y="-8.4" transform="matrix(1 0 0 -1 32.5 64.33)" overflow="visible"/><path id="Rectángulo_3799-2_1_" class="st0" d="M0 0h65v72.7H0z"/><path class="st5" d="M49.3 48v6.1H12.7V6.8h27.5l9.1 9v19.9"/><path fill="none" stroke="#97a5af" stroke-width="2.513" stroke-linecap="round" stroke-linejoin="round" d="M40.2 6.8v9h9.1"/><path class="st5" d="M33.7 15.8H18.3M43.7 23H18.3m25.4 7H18.3m31 6.9c-2 0-3.6 1.1-4.4 2.8h-9.3c-1.2 0-2.2 1-2.2 2.2 0 1.2 1 2.2 2.2 2.2h9.3c.8 1.6 2.5 2.8 4.4 2.8 2.7 0 5-2.2 5-5s-2.3-5-5-5zm-12.1 7.3v3m3.3-3v2.2m-22.2-5.5h10.4v7.4H18.3zm5.2-6c-1.7 0-3.1 1.4-3.1 3.1v2.9h6.2V38c0-1.7-1.4-3.1-3.1-3.1zm0 9.6"/></svg>