<svg xmlns="http://www.w3.org/2000/svg" width="66.978" height="72.28"><g data-name="Grupo 11148"><g data-name="Grupo 11150" fill="none" stroke-width="1.6" transform="translate(-8.49 -5.839)"><circle data-name="Elipse 1779" cx="6.813" cy="6.813" r="6.813" transform="translate(9.29 55.373)" stroke="#efef00" stroke-miterlimit="10"/><path data-name="Trazado 10270" d="M50.479 54.217a8.5 8.5 0 01-17 0" stroke="#fff" stroke-linecap="round" stroke-linejoin="round"/><g data-name="Grupo 11149" stroke="#fff" stroke-linecap="round" stroke-linejoin="round"><path data-name="Trazado 10271" d="M67.388 59.161a12.215 12.215 0 00-8.6-5.131"/><path data-name="Trazado 10272" d="M14.591 71.882v5.437H69.6v-5.361"/><path data-name="Trazado 10273" d="M25.57 54.011a12.189 12.189 0 00-3.381.842"/><path data-name="Trazado 10274" d="M46.97 46.332v7.713h3.478l8.318-.015V23.382A16.744 16.744 0 0042.022 6.639h0a16.744 16.744 0 00-16.744 16.743v30.707l8.2-.014h3.171v-7.743"/><path data-name="Trazado 10275" d="M53.778 29.463V36.4a10.141 10.141 0 01-10.141 10.139h-3.23A10.141 10.141 0 0130.266 36.4v-6.937q0-.249.012-.495v-1.542h6.965s8.746.118 8.746-8.155c0 0 .236 8.036 7.563 8.036z"/><g data-name="Grupo 11148"><path data-name="Trazado 10276" d="M59.122 31.646a31.588 31.588 0 0110.353-4.339s7.42 10.454 4.005 18.933-14.7 7.609-14.7 7.609"/><path data-name="Trazado 10277" d="M57.718 76.348l3.27-5.67 5.452-3.891"/><path data-name="Línea 1719" d="M59.142 52.79l6.1-15.965"/><path data-name="Trazado 10278" d="M63.034 60.922c-4.371 3.349-2.047 9.756-2.047 9.756s6.261 3.389 9.953.56 3.728-11.044 3.728-11.044-7.268-2.621-11.634.728z"/></g></g></g></g></svg>