<svg xmlns="http://www.w3.org/2000/svg" width="59" height="76.564"><g data-name="Grupo 11122"><g data-name="Grupo 11122"><g data-name="Grupo 10179"><path data-name="Trazado 9599" d="M18.732 76.564H4.415a1.577 1.577 0 110-3.154h14.317a1.577 1.577 0 110 3.154z" fill="#19a500"/></g><g data-name="Grupo 10180"><path data-name="Trazado 9600" d="M27.176 76.564H12.812a1.577 1.577 0 110-3.154h14.364a1.577 1.577 0 110 3.154z" fill="#a1d005"/></g><g data-name="Grupo 10181"><path data-name="Trazado 9601" d="M44.471 76.564h-7.182a1.577 1.577 0 110-3.154h7.182a1.577 1.577 0 110 3.154z" fill="#a1d005"/></g><g data-name="Grupo 10182"><path data-name="Trazado 9602" d="M54.566 76.564a1.583 1.583 0 01-1.577-1.577 1.738 1.738 0 010-.306 1.55 1.55 0 01.093-.3 1.459 1.459 0 01.139-.269 2.472 2.472 0 01.2-.241 1.539 1.539 0 011.42-.427 1.617 1.617 0 01.3.083 2.619 2.619 0 01.269.149 1.218 1.218 0 01.241.195 1.558 1.558 0 01.195.241 1.357 1.357 0 01.232.566 1.205 1.205 0 010 .306 1.56 1.56 0 01-.464 1.114 1.665 1.665 0 01-.241.194 1.112 1.112 0 01-.27.149 1.614 1.614 0 01-.3.093 1.644 1.644 0 01-.237.03z" fill="#a1d005"/></g><g data-name="Grupo 10183"><path data-name="Trazado 9603" d="M40.166 66.924H4.415a1.578 1.578 0 01-.242-3.146 1.628 1.628 0 01.242 0h35.751a1.577 1.577 0 010 3.155z" fill="#a1d005"/></g><g data-name="Grupo 10184"><path data-name="Trazado 9604" d="M4.415 66.924a1.576 1.576 0 01-1.113-.464 1.558 1.558 0 01-.464-1.113 1.127 1.127 0 010-.307 1.617 1.617 0 01.083-.3 1.571 1.571 0 01.149-.269 1.219 1.219 0 01.2-.241 1.589 1.589 0 011.41-.455l.3.093a1.954 1.954 0 01.278.149 1.444 1.444 0 01.232.195 1.191 1.191 0 01.195.241 1.105 1.105 0 01.149.269 1.621 1.621 0 01.092.3 1.564 1.564 0 010 .306 1.586 1.586 0 01-1.577 1.577z" fill="#149352"/></g><g data-name="Grupo 10185"><path data-name="Trazado 9605" d="M54.566 66.924h-20.32a1.577 1.577 0 010-3.155h20.32a1.577 1.577 0 110 3.155z" fill="#19a500"/></g></g><g data-name="Grupo 11131" transform="translate(-12.5 -3.704)"><path data-name="Trazado 10232" d="M68 21.036a28.736 28.736 0 01-3.355 29.8" fill="none" stroke="#95a6b1" stroke-linecap="round" stroke-linejoin="round" stroke-width="1.6"/><path data-name="Trazado 10233" d="M58.351 56.795A28.7 28.7 0 1155.68 7.968" fill="none" stroke="#95a6b1" stroke-linecap="round" stroke-linejoin="round" stroke-width="1.6"/><g data-name="Grupo 11123" fill="none" stroke="#95a6b1" stroke-linecap="round" stroke-linejoin="round" stroke-width="1.6"><path data-name="Línea 1709" d="M41.99 4.909v4.199"/><path data-name="Línea 1710" d="M41.99 57.509v4.199"/></g><g data-name="Grupo 11124" fill="none" stroke="#95a6b1" stroke-linecap="round" stroke-linejoin="round" stroke-width="1.6"><path data-name="Línea 1711" d="M70.389 33.309H66.19"/><path data-name="Línea 1712" d="M17.789 33.309H13.59"/></g><g data-name="Grupo 11125"><path data-name="Línea 1713" fill="none" stroke="#95a6b1" stroke-linecap="round" stroke-linejoin="round" stroke-width="1.6" d="M25.075 50.437l-3.167 2.954"/></g><g data-name="Grupo 11126"><path data-name="Línea 1714" fill="none" stroke="#95a6b1" stroke-linecap="round" stroke-linejoin="round" stroke-width="1.6" d="M25.075 16.324l-3.167-3.097"/></g><path data-name="Trazado 10234" d="M70.218 51.466l-6.691.606-.607-6.7" fill="none" stroke="#95a6b1" stroke-linecap="round" stroke-linejoin="round" stroke-width="1.6"/><g data-name="Grupo 11130" fill="none" stroke="#95a6b1" stroke-linecap="round" stroke-linejoin="round" stroke-width="1.6"><path data-name="Trazado 10235" d="M26.48 47.334h31.792s.117-12.475-15.786-12.475c-15.349 0-16.006 12.475-16.006 12.475z"/><g data-name="Grupo 11129"><g data-name="Grupo 11127"><path data-name="Línea 1715" d="M49.975 35.773V24.439"/><path data-name="Trazado 10236" d="M52.74 25.763l-2.676 1.95-2.842-1.867"/><path data-name="Trazado 10237" d="M54.846 23.261v-.625a5.066 5.066 0 10-10.132 0v.638a3.566 3.566 0 00-3.234 3.544v.4a3.579 3.579 0 003.578 3.582h9.57a3.579 3.579 0 003.578-3.579v-.4a3.568 3.568 0 00-3.36-3.56z"/></g><g data-name="Grupo 11128"><path data-name="Línea 1716" d="M35.907 35.03V21.183"/><path data-name="Trazado 10238" d="M39.012 22.671l-3.006 2.19-3.192-2.1"/><path data-name="Trazado 10239" d="M44.647 23.046a3.541 3.541 0 00-3.27-3.186v-.7a5.69 5.69 0 10-11.381 0v.716a4.005 4.005 0 00-3.632 3.981v.45a4.019 4.019 0 004.019 4.02h10.749"/></g></g></g><circle data-name="Elipse 1764" cx="6.002" cy="6.002" r="6.002" transform="translate(57.299 7.207)" fill="none" stroke="#19a500" stroke-miterlimit="10" stroke-width="1.6"/></g></g></svg>