<svg xmlns="http://www.w3.org/2000/svg" viewBox="0 0 84 84"><defs><style>.cls-4{fill:#95a6b1}.cls-5,.cls-6{fill:none}.cls-6{stroke:#4da12e;stroke-linecap:round;stroke-linejoin:round;stroke-width:3px}</style></defs><g style="isolation:isolate"><g id="Capa_1" data-name="Capa 1"><path d="M21.1 22.6a5.6 5.6 0 110-11.1h.1a5.5 5.5 0 015.5 5.5 5.6 5.6 0 01-5.6 5.6zm0-9.5a4 4 0 104 3.9 3.9 3.9 0 00-4-3.9z" fill="#19a500" id="Trazado_5703" data-name="Trazado 5703"/><path class="cls-4" d="M42.6 49.1a5.1 5.1 0 01-5.1-5.1v-8a5.1 5.1 0 0110.2 0v8a5.1 5.1 0 01-5.1 5.1zm0-16.6a3.5 3.5 0 00-3.5 3.5v8a3.5 3.5 0 003.5 3.5 3.5 3.5 0 003.5-3.5v-8a3.5 3.5 0 00-3.5-3.5zm-12 16.6a5.1 5.1 0 01-5.1-5.1v-8a5.1 5.1 0 0110.2 0 .8.8 0 01-1.6 0 3.5 3.5 0 00-7 0v8a3.5 3.5 0 007 0 .8.8 0 111.6 0 5.1 5.1 0 01-5.1 5.1zm26.4-.6h-6.4a.8.8 0 01-.8-.8c0-2.3.8-3.2 1.5-3.8h.1a7.4 7.4 0 012.2-1c1.7-.5 2.5-.9 2.5-2a2.2 2.2 0 00-.5-1.6 2.3 2.3 0 00-1.8-.6 2.2 2.2 0 00-1.7.6 3.2 3.2 0 00-.6 2.1.8.8 0 01-.7.9.8.8 0 01-.9-.7 4.9 4.9 0 011-3.4 4 4 0 012.9-1.2 3.8 3.8 0 013 1.2 3.9 3.9 0 01.9 2.7c0 2.3-2.1 3-3.6 3.4a9.1 9.1 0 00-1.7.8h-.1c-.3.2-.7.5-.9 1.7H57a.8.8 0 01.8.8.7.7 0 01-.8.9zm-40.7 6.2a4.3 4.3 0 01-4.3-4.3 4.4 4.4 0 014.3-4.4 4.4 4.4 0 014.4 4.4 4.4 4.4 0 01-4.4 4.3zm0-7.1a2.8 2.8 0 00-2.7 2.8 2.7 2.7 0 002.7 2.7 2.8 2.8 0 002.8-2.7 2.9 2.9 0 00-2.8-2.8zm49.4 8.6a4.5 4.5 0 114.4-4.4 4.5 4.5 0 01-4.4 4.4zm0-7.3a2.9 2.9 0 00-2.9 2.9 2.9 2.9 0 005.7 0 2.9 2.9 0 00-2.8-2.9zm6.2-25.7a3.6 3.6 0 113.5-3.6 3.6 3.6 0 01-3.5 3.6zm0-5.5a1.9 1.9 0 00-1.9 1.9 1.9 1.9 0 001.9 2 2 2 0 001.9-2 2 2 0 00-1.9-1.9zm-43 43.2a3.2 3.2 0 01-3.2-3.2 3.2 3.2 0 013.2-3.2 3.2 3.2 0 013.2 3.2 3.3 3.3 0 01-3.2 3.2zm0-4.8a1.6 1.6 0 00-1.6 1.6 1.6 1.6 0 001.6 1.6 1.7 1.7 0 001.6-1.6 1.6 1.6 0 00-1.6-1.6zm31.2-11.2a.9.9 0 01-.8-.8.8.8 0 01.8-.8 9.6 9.6 0 009.5-9.5 9.4 9.4 0 00-6-8.8c-.5-.2-.7-.6-.5-1s.6-.7 1-.5a11.1 11.1 0 01-4 21.4z"/><path class="cls-4" d="M63.8 25h-.1a.7.7 0 01-.6-.9 14.3 14.3 0 00.3-2.9A13.3 13.3 0 0039 13.8a.9.9 0 01-1.1.2.9.9 0 01-.2-1.1A14.9 14.9 0 0165 21.2a11.2 11.2 0 01-.4 3.2.8.8 0 01-.8.6z"/><path class="cls-4" d="M38.4 14.1l-.6-.2a7 7 0 00-9-1c-.4.2-.9.2-1.1-.2a.7.7 0 01.2-1.1 8.3 8.3 0 014.8-1.5 8.7 8.7 0 016.3 2.7.8.8 0 01-.1 1.1zM23.2 44.9a12.5 12.5 0 01-8.1-22 .8.8 0 011 1.2 10.9 10.9 0 007.1 19.2.8.8 0 01.8.8.9.9 0 01-.8.8z"/><path id="Rectángulo_3799" data-name="Rectángulo 3799" class="cls-5" d="M0 0h84v84H0z"/><path class="cls-4" d="M42.6 61.2a.8.8 0 01-.8-.8v-8.6a.8.8 0 01.8-.8.7.7 0 01.8.8v8.6a.7.7 0 01-.8.8z"/><path class="cls-4" d="M42.6 61.7a.5.5 0 01-.5-.3l-3.9-3.8a.9.9 0 010-1.2.8.8 0 011.1 0l3.3 3.3 3.3-3.3a.8.8 0 011.2 1.2l-3.9 3.8a.9.9 0 01-.6.3z"/><path class="cls-5" d="M0 63.1h84v20.93H0z"/><path class="cls-6" d="M49.1 77.9h9m8.9 0h.8m-51.6 0h8.9"/><path d="M24.5 77.9h15.7m-24-7.6h29.5" stroke="#96d200" stroke-linecap="round" stroke-linejoin="round" stroke-width="3" fill="none"/><path class="cls-6" d="M44.8 70.3h23m-51.6 0h.6"/><path class="cls-5" d="M0 0h84v84H0z"/></g></g></svg>