<svg xmlns="http://www.w3.org/2000/svg" viewBox="0 0 84 84"><defs><style>.cls-3{fill:#fff}.cls-4{fill:none}.cls-6{fill:#ffe600}.cls-7{mix-blend-mode:multiply}.cls-8{fill:#ffda25}</style></defs><g style="isolation:isolate"><g id="Capa_1" data-name="Capa 1"><path d="M25.9 44.6a5.6 5.6 0 115.6-5.6 5.6 5.6 0 01-5.6 5.6zm.1-9.5a4 4 0 00-4 4 4 4 0 007.9 0 4 4 0 00-3.9-4z" fill="#fbe957" id="Trazado_5703" data-name="Trazado 5703"/><path class="cls-3" d="M40 31.2a.9.9 0 01-.8-.8v-5.6a.8.8 0 011.6 0v5.6a.9.9 0 01-.8.8z" id="Línea_1013" data-name="Línea 1013"/><path class="cls-3" d="M48.1 31.2a.8.8 0 01-.8-.8v-5.6a.8.8 0 01.8-.8.9.9 0 01.8.8v5.6a.9.9 0 01-.8.8z" id="Línea_1014" data-name="Línea 1014"/><path class="cls-3" d="M63 61.3H25a.8.8 0 01-.8-.8V48.8a.8.8 0 01.8-.8.9.9 0 01.8.8v10.9h36.4V42.5a7.9 7.9 0 00-1.3-4.4 6.4 6.4 0 00-2.3-2.1l-10.8-4.9a.8.8 0 01-.4-1.1c.1-.4.6-.5 1-.4l10.8 4.9a6.4 6.4 0 013 2.7 9.5 9.5 0 011.6 5.3v18a.9.9 0 01-.8.8z" id="Trazado_5700" data-name="Trazado 5700"/><path class="cls-3" d="M32.9 34.5a.8.8 0 01-.7-.5.8.8 0 01.4-1.1l7.1-3.2a.7.7 0 011 .3.8.8 0 01-.4 1.1l-7 3.3z" id="Línea_1015" data-name="Línea 1015"/><path class="cls-3" d="M44 37.4a8.7 8.7 0 01-6.4-2.9l-1.7-2a.8.8 0 010-1.1.9.9 0 011.2.1l1.7 1.9a6.9 6.9 0 005.2 2.4 7 7 0 005.3-2.4l1.7-1.9a.8.8 0 011.1-.1.7.7 0 01.1 1.1l-1.7 2a8.8 8.8 0 01-6.5 2.9z" id="Línea_1017" data-name="Línea 1017"/><path class="cls-3" d="M44 26.8a8.5 8.5 0 01-8.4-8.4.8.8 0 011.6 0 6.8 6.8 0 1013.6 0 .9.9 0 01.8-.8.8.8 0 01.8.8 8.5 8.5 0 01-8.4 8.4z" id="Trazado_5701" data-name="Trazado 5701"/><path class="cls-3" d="M51.6 32.8a.8.8 0 01-.8-.8V13.1a6.8 6.8 0 00-13.6 0V32a.8.8 0 01-.8.8.7.7 0 01-.8-.8V13.1a8.4 8.4 0 0116.8 0V32a.7.7 0 01-.8.8z" id="Trazado_5702" data-name="Trazado 5702"/><path id="Rectángulo_3799" data-name="Rectángulo 3799" class="cls-4" d="M0 0h84v84H0z"/><path class="cls-3" d="M52.1 53.5l-.5-.2c-.2-.2-4.6-3.9-4.6-8.6s4.3-8.5 4.5-8.7a.7.7 0 011 0c.2.1 4.6 3.9 4.6 8.6 0 4.8-4.3 8.5-4.5 8.7zM52 37.7c-1.1 1.1-3.4 3.8-3.4 6.9s2.4 5.9 3.5 7c1-1.1 3.4-3.9 3.4-7s-2.4-5.8-3.5-6.9z"/><path class="cls-3" d="M52.1 61.3a.9.9 0 01-.8-.8V44.6a.9.9 0 01.8-.8.8.8 0 01.8.8v15.9a.9.9 0 01-.8.8z"/><path class="cls-3" d="M52.6 59.2H52a.8.8 0 01-.7-.8c-.1-.2-.4-4.5 2.2-7.1s6.9-2.3 7.1-2.3a.8.8 0 01.7.8c0 .1.4 4.5-2.2 7.1-2 2-5.2 2.3-6.5 2.3zm7.1-8.6c-1.2.1-3.6.3-5.1 1.8s-1.7 4-1.8 5.2 3.7-.3 5.2-1.8a7.8 7.8 0 001.7-5.2zm-1.2 5.7z"/><path class="cls-3" d="M52.1 59.2a.9.9 0 01-.6-.3.8.8 0 010-1.1l4.2-4.3a.8.8 0 011.1 0 .7.7 0 010 1.2l-4.2 4.2a.5.5 0 01-.5.3z"/><path class="cls-3" d="M51.5 59.2c-1.3 0-4.5-.3-6.5-2.3-2.6-2.6-2.2-7-2.2-7.1a.8.8 0 01.7-.8c.2 0 4.6-.3 7.1 2.3s2.2 6.9 2.2 7.1a.8.8 0 01-.7.8zm-5.4-3.4c1.5 1.5 3.9 1.7 5.1 1.8s-.2-3.7-1.7-5.2a7.6 7.6 0 00-5.1-1.8 7.8 7.8 0 001.7 5.2z"/><path class="cls-3" d="M52 59.2a.9.9 0 01-.6-.3l-4.2-4.2a.8.8 0 111.2-1.2l4.2 4.3a.8.8 0 010 1.1.9.9 0 01-.6.3zm-3.9-44.4a6.8 6.8 0 01-6.5-4.4 7.5 7.5 0 01-.5-1.6 1 1 0 01.7-.9.7.7 0 01.9.7l.3 1.2a5.4 5.4 0 005.1 3.4 5.9 5.9 0 003.1-.9.7.7 0 011.1.2.9.9 0 01-.2 1.1 7.2 7.2 0 01-4 1.2z"/><path class="cls-3" d="M36.4 14.1a.8.8 0 01-.8-.7.8.8 0 01.7-.9 7.3 7.3 0 005.4-2.9.8.8 0 011.2 1 8.7 8.7 0 01-6.5 3.5z"/><path class="cls-4" d="M-.1 63.1h84v20.93h-84z"/><path d="M45.6 71.8H16.1a1.5 1.5 0 01-1.5-1.5 1.6 1.6 0 011.5-1.6h29.5a1.6 1.6 0 011.6 1.6 1.6 1.6 0 01-1.6 1.5z" fill="#fff000"/><path class="cls-6" d="M58 79.5h-9a1.6 1.6 0 010-3.2h9a1.6 1.6 0 010 3.2zm9.7 0h-.8a1.6 1.6 0 010-3.2h.8a1.6 1.6 0 010 3.2z"/><g class="cls-7"><path class="cls-8" d="M25 79.5h-8.9a1.6 1.6 0 010-3.2H25a1.6 1.6 0 010 3.2z"/></g><path class="cls-6" d="M40.1 79.5H25.5a1.6 1.6 0 010-3.2h14.6a1.6 1.6 0 010 3.2z"/><g class="cls-7"><path class="cls-8" d="M30.7 79.5h-5.2a1.6 1.6 0 010-3.2h5.2a1.6 1.6 0 010 3.2z"/></g><path class="cls-8" d="M67.7 71.8h-23a1.6 1.6 0 01-1.6-1.5 1.6 1.6 0 011.6-1.6h23a1.6 1.6 0 011.5 1.6 1.5 1.5 0 01-1.5 1.5z"/><g class="cls-7"><path class="cls-8" d="M16.7 71.8h-.6a1.5 1.5 0 01-1.5-1.5 1.6 1.6 0 011.5-1.6h.6a1.6 1.6 0 011.5 1.6 1.5 1.5 0 01-1.5 1.5z"/></g><g class="cls-7"><path class="cls-8" d="M50.8 71.8h-6.1a1.6 1.6 0 01-1.6-1.5 1.6 1.6 0 011.6-1.6h6.1a1.6 1.6 0 011.6 1.6 1.6 1.6 0 01-1.6 1.5z"/></g></g></g></svg>