<svg xmlns="http://www.w3.org/2000/svg" width="58.063" height="76.598"><g data-name="Grupo 11152"><g data-name="Grupo 11154"><g data-name="Grupo 11152"><g data-name="Grupo 10179"><path data-name="Trazado 9599" d="M17.263 76.598H2.946a1.577 1.577 0 110-3.154h14.317a1.577 1.577 0 110 3.154z" fill="#19a500"/></g><g data-name="Grupo 10180"><path data-name="Trazado 9600" d="M25.707 76.598H11.343a1.577 1.577 0 110-3.154h14.364a1.577 1.577 0 110 3.154z" fill="#a1d005"/></g><g data-name="Grupo 10181"><path data-name="Trazado 9601" d="M43.002 76.598H35.82a1.577 1.577 0 110-3.154h7.182a1.577 1.577 0 110 3.154z" fill="#a1d005"/></g><g data-name="Grupo 10182"><path data-name="Trazado 9602" d="M53.097 76.598a1.583 1.583 0 01-1.577-1.577 1.738 1.738 0 010-.306 1.55 1.55 0 01.093-.3 1.459 1.459 0 01.139-.269 2.472 2.472 0 01.2-.241 1.539 1.539 0 011.42-.427 1.617 1.617 0 01.3.083 2.619 2.619 0 01.269.149 1.218 1.218 0 01.241.195 1.558 1.558 0 01.195.241 1.357 1.357 0 01.232.566 1.205 1.205 0 010 .306 1.56 1.56 0 01-.464 1.114 1.665 1.665 0 01-.241.194 1.112 1.112 0 01-.27.149 1.614 1.614 0 01-.3.093 1.644 1.644 0 01-.237.03z" fill="#a1d005"/></g><g data-name="Grupo 10183"><path data-name="Trazado 9603" d="M38.697 66.958H2.946a1.578 1.578 0 01-.242-3.146 1.628 1.628 0 01.242 0h35.751a1.577 1.577 0 010 3.155z" fill="#a1d005"/></g><g data-name="Grupo 10184"><path data-name="Trazado 9604" d="M2.946 66.958a1.576 1.576 0 01-1.113-.464 1.558 1.558 0 01-.464-1.113 1.127 1.127 0 010-.307 1.617 1.617 0 01.083-.3 1.571 1.571 0 01.149-.269 1.219 1.219 0 01.2-.241 1.589 1.589 0 011.41-.455l.3.093a1.954 1.954 0 01.278.149 1.444 1.444 0 01.232.195 1.191 1.191 0 01.195.241 1.105 1.105 0 01.149.269 1.621 1.621 0 01.092.3 1.564 1.564 0 010 .306 1.586 1.586 0 01-1.577 1.577z" fill="#149352"/></g><g data-name="Grupo 10185"><path data-name="Trazado 9605" d="M53.097 66.958h-20.32a1.577 1.577 0 010-3.155h20.32a1.577 1.577 0 110 3.155z" fill="#19a500"/></g></g><g data-name="Grupo 11153"><circle data-name="Elipse 1780" cx="6.002" cy="6.002" r="6.002" transform="translate(43.824 6.747)" fill="none" stroke="#19a500" stroke-miterlimit="10" stroke-width="1.6"/></g></g><g data-name="Grupo 11156" fill="none" stroke="#95a6b1" stroke-linecap="round" stroke-linejoin="round"><path data-name="Trazado 10279" d="M28.243.764S39.16 21.055 39.988 22.712s5.465 9.44.331 17.721c0 0-3.561 6.915-11.637 6.915s-12.767-6.6-12.767-6.6-6.34-7.642.956-19.8z" stroke-width="1.528"/><path data-name="Trazado 10280" d="M32.539 46.088a8.87 8.87 0 002.973-2.879 8.7 8.7 0 001.352-5.141c-.165-2.517-1.5-4.78-2.606-7.048s-2.021-4.859-1.293-7.274a14.243 14.243 0 00-2.706 8.09 10.129 10.129 0 01-3.406-7.083 28 28 0 01.8-8.01c-2.076.727-3.288 2.545-4.433 4.361a41.059 41.059 0 00-4.079 8.5 15.739 15.739 0 00-1 8.15 12.752 12.752 0 003.558 6.243 10.6 10.6 0 005.075 3.114 7.937 7.937 0 005.765-1.023z" stroke-width="1.56"/><path data-name="Trazado 10281" d="M10.411 49.743c-.079-.077-.012.019-.089-.059" stroke-width="1.6"/><path data-name="Rectángulo 4058" stroke-width="1.765" d="M26.467 50.382h3.128v10.316h-3.128z"/><g data-name="Grupo 11155" stroke-width="1.6"><path data-name="Trazado 10282" d="M29.854 58.682l3.877-.282a25.169 25.169 0 0022.032-20.456l.238-2.657"/><path data-name="Trazado 10283" d="M41.107 10.342a24.947 24.947 0 00-6.264-1.812s-1.557-.1-2.243-.236"/><path data-name="Trazado 10284" d="M53.001 21.153a24.956 24.956 0 012.608 6.913s.319 2.692.392 3.569"/><path data-name="Trazado 10285" d="M10.114 18.23a20.53 20.53 0 012.853-2.466"/><path data-name="Trazado 10286" d="M4.361 29.092a20.237 20.237 0 011.015-3.4"/><path data-name="Trazado 10287" d="M5.412 42.137a19.771 19.771 0 01-1.19-4.055"/><path data-name="Trazado 10288" d="M13.782 52.502a21.66 21.66 0 01-3.371-2.759"/><path data-name="Trazado 10289" d="M26.292 56.219a22.933 22.933 0 01-4.271-.4"/><path data-name="Trazado 10290" d="M18.507 16.93a18.876 18.876 0 007.746 35.836"/><path data-name="Trazado 10291" d="M29.717 52.64l4.019-.82a19.209 19.209 0 0014.465-13.985 22.407 22.407 0 00.5-2.694"/><path data-name="Trazado 10292" d="M35.895 15.088c.412.069 2.748 1.068 2.748 1.068a19.225 19.225 0 019.482 11.883 24.089 24.089 0 01.5 3.742"/><path data-name="Rectángulo 4059" d="M57.262 31.831v3.128H46.816v-3.128z"/><path data-name="Trazado 10293" d="M20.913 12.02L18.27 9.57l-5.8 2.579.451 3.546"/><path data-name="Trazado 10294" d="M9.843 18.13l-3.564-.536-3.342 5.4 2.37 2.676"/><path data-name="Trazado 10295" d="M4.118 29.285L.805 30.703.8 37.052l3.423 1.03"/><path data-name="Trazado 10296" d="M5.131 42.493l-2.052 2.963 3.372 5.38 3.446-.947"/><path data-name="Trazado 10297" d="M13.7 52.739v3.6l5.831 2.51 2.3-2.74"/></g></g></g></svg>