<svg xmlns="http://www.w3.org/2000/svg" width="84" height="84"><g data-name="Grupo 13601"><path data-name="Trazado 5703" d="M74.799 13.526a4.766 4.766 0 01-4.766 4.766 4.766 4.766 0 01-4.766-4.766 4.765 4.765 0 014.766-4.765 4.733 4.733 0 014.766 4.7z" fill="none" stroke="#19a500" stroke-linecap="round" stroke-linejoin="round" stroke-width="1.6" style="mix-blend-mode:multiply;isolation:isolate"/><g data-name="Grupo 13593" fill="none" stroke="#95a6b1" stroke-linecap="round" stroke-linejoin="round" stroke-width="1.6"><path data-name="Trazado 11888" d="M38.023 14.238c3.559 5.341 1.337 13.074 1.337 13.074s-7.992-.928-11.551-6.269-1.337-13.074-1.337-13.074 7.992.927 11.551 6.269z"/><path data-name="Línea 1865" d="M40.438 28.858L32.916 17.64"/></g><g data-name="Grupo 13594" fill="none" stroke="#95a6b1" stroke-linecap="round" stroke-linejoin="round" stroke-width="1.6"><path data-name="Trazado 11889" d="M22.108 16.427c4.843 1.663 7.178 7.64 7.178 7.64s-5.515 3.281-10.357 1.618-7.178-7.64-7.178-7.64 5.515-3.281 10.357-1.618z"/><path data-name="Línea 1866" d="M30.418 24.423l-9.899-3.367"/></g><g data-name="Grupo 13595" fill="none" stroke="#95a6b1" stroke-linecap="round" stroke-linejoin="round" stroke-width="1.6"><path data-name="Trazado 11890" d="M12.066 42.118a16.8 16.8 0 0116.8-16.8 16.8 16.8 0 0116.805 16.8"/><path data-name="Trazado 11891" d="M45.669 42.118a16.8 16.8 0 01-16.805 16.8 16.8 16.8 0 01-16.8-16.8"/><path data-name="Trazado 11892" d="M28.811 42.085a4.1 4.1 0 01-4.1-4.1 4.1 4.1 0 014.1-4.1 4.1 4.1 0 014.1 4.1"/><path data-name="Trazado 11893" d="M28.811 42.085a4.105 4.105 0 014.1 4.1 4.1 4.1 0 01-4.1 4.1 4.1 4.1 0 01-4.1-4.1"/><path data-name="Línea 1867" d="M28.811 33.876v-2.279"/><path data-name="Línea 1868" d="M28.811 52.573v-2.279"/></g><g data-name="Grupo 13596" fill="none" stroke="#95a6b1" stroke-linecap="round" stroke-linejoin="round" stroke-width="1.6"><path data-name="Trazado 11894" d="M73.415 20.465a16.924 16.924 0 01.291 3.132"/><path data-name="Trazado 11895" d="M40.103 23.597a16.8 16.8 0 0116.8-16.8 16.734 16.734 0 017.14 1.588"/><path data-name="Trazado 11896" d="M73.706 23.597a16.8 16.8 0 01-16.805 16.8 16.8 16.8 0 01-16.8-16.8"/><path data-name="Trazado 11897" d="M56.849 23.564a4.105 4.105 0 01-4.1-4.105 4.105 4.105 0 014.1-4.1 4.1 4.1 0 014.1 4.1"/><path data-name="Trazado 11898" d="M56.849 23.564a4.1 4.1 0 014.1 4.1 4.1 4.1 0 01-4.1 4.105 4.105 4.105 0 01-4.1-4.105"/><path data-name="Línea 1869" d="M56.849 15.355v-2.279"/><path data-name="Línea 1870" d="M56.849 34.052v-2.279"/></g><g data-name="Grupo 13599"><g data-name="Grupo 13598" fill="none"><path data-name="Rectángulo 4579" d="M0 63.068h84v20.926H0z"/><g data-name="Grupo 13597" stroke-linecap="round" stroke-linejoin="round" stroke-width="3"><path data-name="Línea 1871" stroke="#4da12e" d="M49.142 77.892h8.959"/><path data-name="Línea 1872" stroke="#4da12e" d="M67.036 77.892h.726"/><path data-name="Línea 1873" stroke="#4da12e" d="M16.239 77.892h8.876"/><path data-name="Línea 1874" stroke="#96d200" d="M24.537 77.892h15.647"/><path data-name="Línea 1875" stroke="#96d200" d="M16.239 70.259h29.477"/><path data-name="Línea 1876" stroke="#4da12e" d="M44.808 70.259h22.954"/><path data-name="Línea 1877" stroke="#4da12e" d="M16.239 70.259h.537"/></g></g></g><path data-name="Rectángulo 4580" fill="none" d="M0 0h84v84H0z"/></g></svg>