<svg id="Capa_1" data-name="Capa 1" xmlns="http://www.w3.org/2000/svg" viewBox="0 0 65 65"><defs><style>.cls-2{fill:#90a6b1}.cls-3{fill:none}.cls-4{fill:#19a301}</style></defs><path d="M16.9 15.7a4.5 4.5 0 010-8.9 4.4 4.4 0 014.4 4.4 4.4 4.4 0 01-4.4 4.5zm0-7.3a2.9 2.9 0 102.8 2.9 2.8 2.8 0 00-2.8-2.9z" fill="#00ab00" id="Trazado_11848" data-name="Trazado 11848"/><path class="cls-2" d="M45.5 45.2h-.4a1 1 0 01-.5-.4c-1.4-1.7-6.7-7.9-6.7-13.1a7.7 7.7 0 017-8.3h1a7.8 7.8 0 017.1 8.3c0 5.2-5.3 11.4-6.8 13a.8.8 0 01-.5.5zm-.1-20.3h-.3a6.1 6.1 0 00-5.6 6.6c0 4.4 4.3 9.8 5.9 11.7 1.6-1.9 6-7.3 6-11.6a6.2 6.2 0 00-5.6-6.7h-.4z" id="Trazado_11859" data-name="Trazado 11859"/><path class="cls-2" d="M45.4 33.5a2.7 2.7 0 112.6-2.7 2.6 2.6 0 01-2.6 2.7zm0-3.7a1 1 0 00-1 1 1 1 0 102 0 1 1 0 00-1-1z" id="Trazado_11860" data-name="Trazado 11860"/><path class="cls-2" d="M26.7 12.1h-2.6a.8.8 0 01-.8-.8.9.9 0 01.8-.8h2.6a.9.9 0 01.8.8.8.8 0 01-.8.8zm4 32.9h-5.3a.8.8 0 01-.7-.8.8.8 0 01.8-.8h5.2a.8.8 0 01.8.8.7.7 0 01-.8.8zm-10.1-1.7l-.5-.2a10.2 10.2 0 01-3.4-4.5.8.8 0 01.5-1 .7.7 0 011 .4 9 9 0 002.9 3.8.9.9 0 01.2 1.1 1 1 0 01-.7.4zm-3.5-9.4h-.2a.8.8 0 01-.6-.9 10.6 10.6 0 012.7-5 .8.8 0 011.2 1.2 7.3 7.3 0 00-2.3 4.1.8.8 0 01-.8.6zm7.1-7a.8.8 0 01-.8-.6.8.8 0 01.6-.9 6.8 6.8 0 012-.2h3.4a.8.8 0 01.8.8.9.9 0 01-.8.8h-5.2zm10.1-1.4a.9.9 0 01-.6-.3.8.8 0 01.1-1.1 4.3 4.3 0 001.4-3.2v-1a.8.8 0 01.8-.8.7.7 0 01.8.8v1a6 6 0 01-1.9 4.4zm1.4-10a.7.7 0 01-.7-.6 4.4 4.4 0 00-3.2-2.7.8.8 0 11.3-1.6 5.9 5.9 0 014.4 3.8.8.8 0 01-.5 1zM38.6 45h-2.5a.7.7 0 01-.8-.8.8.8 0 01.8-.8h2.5a.9.9 0 01.8.8.8.8 0 01-.8.8z"/><g id="Grupo_14998" data-name="Grupo 14998"><path class="cls-3" d="M0 0h65v65H0z" id="Rectángulo_3799-2" data-name="Rectángulo 3799-2"/></g><path class="cls-3" d="M0 48.3h65v16.74H0z"/><path class="cls-4" d="M45.4 61.3h-7.2a1.2 1.2 0 01-1.2-1.2 1.3 1.3 0 011.2-1.2h7.2a1.3 1.3 0 011.2 1.2 1.2 1.2 0 01-1.2 1.2zm7.7 0h-.6a1.2 1.2 0 01-1.2-1.2 1.3 1.3 0 011.2-1.2h.6a1.2 1.2 0 011.2 1.2 1.2 1.2 0 01-1.2 1.2zm-34.1 0h-7.1a1.2 1.2 0 01-1.2-1.2 1.2 1.2 0 011.2-1.2H19a1.2 1.2 0 011.2 1.2 1.2 1.2 0 01-1.2 1.2z"/><path d="M31 61.3H18.5a1.2 1.2 0 01-1.2-1.2 1.3 1.3 0 011.2-1.2H31a1.2 1.2 0 011.2 1.2 1.2 1.2 0 01-1.2 1.2zm4.5-6.1H11.9a1.2 1.2 0 110-2.4h23.6a1.2 1.2 0 010 2.4z" fill="#82d400"/><path class="cls-4" d="M53.1 55.2H34.7a1.2 1.2 0 010-2.4h18.4a1.2 1.2 0 010 2.4zm-40.8 0h-.4a1.2 1.2 0 110-2.4h.4a1.2 1.2 0 010 2.4z"/></svg>