<svg id="Capa_1" data-name="Capa 1" xmlns="http://www.w3.org/2000/svg" viewBox="0 0 65 65"><defs><style>.cls-1{fill:none}.cls-2{fill:#19a301}.cls-5{fill:#95a6b1}</style></defs><path class="cls-1" d="M0 0h65v65H0z"/><path class="cls-1" d="M0 48.3h65v16.74H0z"/><path class="cls-2" d="M45.4 61.3h-7.2a1.2 1.2 0 01-1.2-1.2 1.3 1.3 0 011.2-1.2h7.2a1.3 1.3 0 011.2 1.2 1.2 1.2 0 01-1.2 1.2zm7.7 0h-.6a1.2 1.2 0 01-1.2-1.2 1.3 1.3 0 011.2-1.2h.6a1.2 1.2 0 011.2 1.2 1.2 1.2 0 01-1.2 1.2zm-34.1 0h-7.1a1.2 1.2 0 01-1.2-1.2 1.2 1.2 0 011.2-1.2H19a1.2 1.2 0 011.2 1.2 1.2 1.2 0 01-1.2 1.2z"/><path d="M31 61.3H18.5a1.2 1.2 0 01-1.2-1.2 1.3 1.3 0 011.2-1.2H31a1.2 1.2 0 011.2 1.2 1.2 1.2 0 01-1.2 1.2zm4.5-6.1H11.9a1.2 1.2 0 110-2.4h23.6a1.2 1.2 0 010 2.4z" fill="#82d400"/><path class="cls-2" d="M53.1 55.2H34.7a1.2 1.2 0 010-2.4h18.4a1.2 1.2 0 010 2.4zm-40.8 0h-.4a1.2 1.2 0 110-2.4h.4a1.2 1.2 0 010 2.4z"/><path d="M6.6 24.1a4 4 0 01-1.5-.3 4.1 4.1 0 01-2.3-2.2 4 4 0 01-.1-3.2A3.9 3.9 0 014.8 16a4.7 4.7 0 013.3-.1 4.5 4.5 0 012.3 2.2 4.2 4.2 0 01.2 3.1 4.3 4.3 0 01-2.3 2.5 4.7 4.7 0 01-1.7.4zm0-6.8a2.2 2.2 0 00-1.1.2 2.5 2.5 0 00-1.3 1.4 2.5 2.5 0 001.5 3.4 2.8 2.8 0 002-.1 2.9 2.9 0 001.4-1.5 3.1 3.1 0 00-.1-1.9 2.6 2.6 0 00-1.5-1.4z" fill="#00a800"/><path class="cls-5" d="M31.9 34.1H13.3A9.5 9.5 0 014 26a1 1 0 01.7-.9c.4-.1.8.3.9.7a7.8 7.8 0 007.7 6.7h18.6a7.8 7.8 0 100-15.6H13.3l-1.9.2a.8.8 0 01-.3-1.5 7.8 7.8 0 012.2-.3h18.6a9.4 9.4 0 010 18.8zm28.2 5.4h-5.3a.8.8 0 010-1.6h5.3a.8.8 0 110 1.6z"/><path class="cls-5" d="M44.6 39.5h-4.1a.9.9 0 01-.8-.8V22.6a4.9 4.9 0 014.9-4.9h6.7a3.7 3.7 0 013.4 2.1l1.9 4.4a4.4 4.4 0 001.6 1.7 5 5 0 012.7 4.5v5.2a.7.7 0 01-.8.8.8.8 0 01-.8-.8v-5.2a3.5 3.5 0 00-1.8-3.1 5.1 5.1 0 01-2.3-2.5l-1.9-4.3a2.4 2.4 0 00-2-1.2h-6.7a3.3 3.3 0 00-3.3 3.3v15.3h3.3a.8.8 0 110 1.6z"/><path class="cls-5" d="M40.5 39.5H20.3a.8.8 0 110-1.6h19.4v-3.8H7.4A1.8 1.8 0 005.5 36a1.9 1.9 0 00.5 1.3 2 2 0 001.4.6H10a.8.8 0 110 1.6H7.4a3.9 3.9 0 01-2.5-1 3.5 3.5 0 012.5-6h33.1a.7.7 0 01.8.8v5.4a.8.8 0 01-.8.8z"/><path class="cls-5" d="M15.1 44.3a5.9 5.9 0 116-5.9 5.9 5.9 0 01-6 5.9zm0-10.2a4.3 4.3 0 100 8.6 4.3 4.3 0 100-8.6z"/><path class="cls-5" d="M15.1 41.4a3 3 0 113.1-3 3 3 0 01-3.1 3zm0-4.4a1.4 1.4 0 000 2.8 1.4 1.4 0 100-2.8zm34.6 7.3a5.9 5.9 0 010-11.8 5.9 5.9 0 110 11.8zm0-10.2a4.3 4.3 0 100 8.6 4.3 4.3 0 100-8.6z"/><path class="cls-5" d="M49.7 41.4a3 3 0 113-3 2.9 2.9 0 01-3 3zm0-4.4a1.4 1.4 0 101.4 1.4 1.4 1.4 0 00-1.4-1.4zm10.4 2.5a.8.8 0 110-1.6.7.7 0 00.8-.8v-2.3a.7.7 0 00-.8-.7.9.9 0 01-.8-.8.8.8 0 01.8-.8 2.3 2.3 0 012.4 2.3v2.3a2.4 2.4 0 01-2.4 2.4z"/><path class="cls-5" d="M60.1 36.4a3.2 3.2 0 010-6.3.7.7 0 01.8.8.8.8 0 01-.8.8 1.6 1.6 0 00-1.5 1.6 1.5 1.5 0 001.5 1.5.8.8 0 01.8.8.7.7 0 01-.8.8zm-8.2-8.8h-7.2a.8.8 0 01-.8-.8v-5.5a.8.8 0 01.8-.8h5.9a.8.8 0 01.8.6l1.3 5.6a.7.7 0 01-.1.6.9.9 0 01-.7.3zM45.5 26h5.4l-.9-3.9h-4.5zm1.8 4.3h-2.5a.8.8 0 01-.8-.8.9.9 0 01.8-.8h2.5a.9.9 0 01.8.8.8.8 0 01-.8.8zM18.4 16.9h-5.1a.9.9 0 01-.8-.8v-2.6a.8.8 0 01.8-.8h5.1a.7.7 0 01.8.8v2.6a.8.8 0 01-.8.8zm-4.3-1.6h3.5v-1h-3.5zm14.4 1.6h-5.2a.9.9 0 01-.8-.8v-2.6a.8.8 0 01.8-.8h5.2a.8.8 0 01.8.8v2.6a.9.9 0 01-.8.8zm-4.4-1.6h3.6v-1h-3.6zm7.1 18.8a.9.9 0 01-.8-.8V14.7a.8.8 0 01.8-.8.7.7 0 01.8.8v18.6a.8.8 0 01-.8.8zm4 0a.8.8 0 01-.8-.8V14.7a.7.7 0 01.8-.8.8.8 0 01.8.8v18.6a.9.9 0 01-.8.8z"/><path class="cls-5" d="M35.2 20.1h-3.6a.9.9 0 01-.8-.8.8.8 0 01.8-.8h3.6a.8.8 0 01.8.8.9.9 0 01-.8.8zm0 3.7h-3.6a.8.8 0 01-.8-.8.9.9 0 01.8-.8h3.6a.9.9 0 01.8.8.8.8 0 01-.8.8zm0 3.8h-3.6a.8.8 0 01-.8-.8.9.9 0 01.8-.8h3.6a.9.9 0 01.8.8.8.8 0 01-.8.8zm0 3.8h-3.6a.9.9 0 01-.8-.8.8.8 0 01.8-.8h3.6a.8.8 0 01.8.8.9.9 0 01-.8.8z"/></svg>