<svg xmlns="http://www.w3.org/2000/svg" viewBox="0 0 47 47"><style>.st5{fill:none;stroke:#fff;stroke-width:1.5;stroke-linecap:round;stroke-linejoin:round;stroke-miterlimit:10}</style><g id="Capa_1"><path fill="none" d="M.07 0H47v47H.07z"/><path class="st5" d="M41.57 20.83a4.065 4.065 0 00-3.75-2.48h-5.05m-9.27 22.3h18.39v-8.3M23.5 26.56v5.79m0 8.3H5.11V8.7c0-1.3 1.05-2.36 2.36-2.36h13.68c1.3 0 2.36 1.05 2.36 2.36v1.37m-.01 16.49v5.79"/><path class="st5" d="M25.99 12.28l-5.49 7.19h3.79l-1.36 4.94 5.74-7.22h-3.89z"/><circle class="st5" cx="24.5" cy="18.35" r="8.27"/><path class="st5" d="M10.5 40.65V6.35m-4.72 4.13h4.72m-4.72 3.63h4.72m-4.72 3.63h4.72m-4.72 3.64h4.72m-4.72 3.61h4.72m-4.72 3.63h4.72m-4.72 3.73h4.72m-4.72 3.63h4.72m7.8 4.67v-8.3h15.36v8.3m-4.99 0v-8.3"/><path d="M38.08 25.28c-.34.74-.36 1.54-.12 2.25.26.79.83 1.46 1.65 1.84 1.55.71 3.38.03 4.09-1.52s.03-3.38-1.52-4.09-3.39-.03-4.1 1.52z" fill="none" stroke="#fff" stroke-width="1.5" stroke-linecap="round" stroke-linejoin="round"/></g></svg>