<svg id="Capa_1" data-name="Capa 1" xmlns="http://www.w3.org/2000/svg" viewBox="0 0 65 65"><defs><style>.cls-1{fill:#95a6b1}.cls-4{fill:#4da12e}</style></defs><path class="cls-1" d="M45.5 49.3a8.7 8.7 0 01-5.5-1.8c-2.2-1.7-6.8-1.7-9 0s-8.2 2.3-11 0-6.7-1.8-9 0a.7.7 0 01-1.1-.1.8.8 0 01.1-1.1c2.8-2.3 8.2-2.3 11 0s6.8 1.8 9 0 8.3-2.3 11 0 6.8 1.8 9 0a8.6 8.6 0 015.6-1.7.8.8 0 01.7.8.8.8 0 01-.8.8 6.7 6.7 0 00-4.5 1.4 9 9 0 01-5.5 1.7z" id="Trazado_11999" data-name="Trazado 11999"/><path class="cls-1" d="M45.5 42.8a9.2 9.2 0 01-5.5-1.7 6.3 6.3 0 00-3.1-1.3.8.8 0 11.3-1.5 7.6 7.6 0 013.8 1.5c2.3 1.9 6.8 1.9 9 0a10 10 0 015.6-1.7.8.8 0 01.7.9.8.8 0 01-.8.7 8 8 0 00-4.5 1.4 9 9 0 01-5.5 1.7zm-20 0a9.2 9.2 0 01-5.5-1.7c-2.2-1.8-6.8-1.8-9 0a.8.8 0 01-1.1-.1.9.9 0 01.1-1.2c2.8-2.2 8.2-2.2 11 0s6.8 1.8 9 0h.2a.8.8 0 011.1.4.7.7 0 01-.3 1 9 9 0 01-5.5 1.6z"/><path class="cls-1" d="M33.8 46.3a.8.8 0 01-.8-.8v-1.8a.8.8 0 111.6 0v1.8a.8.8 0 01-.8.8zm0-4.5a.8.8 0 01-.8-.8v-1.8a.8.8 0 111.6 0V41a.8.8 0 01-.8.8zm0-4.5a.8.8 0 01-.8-.8v-1.8a.8.8 0 011.6 0v1.8a.8.8 0 01-.8.8zm0-4.5a.9.9 0 01-.8-.8v-1.8a.8.8 0 111.6 0V32a.9.9 0 01-.8.8zm0-4.5a.9.9 0 01-.8-.8v-1.8a.8.8 0 111.6 0v1.8a.9.9 0 01-.8.8zm0-4.5a.9.9 0 01-.8-.8v-1.8a.8.8 0 111.6 0V23a.9.9 0 01-.8.8zm0-4.5a.9.9 0 01-.8-.8v-1.9a.8.8 0 111.6 0v1.9a.9.9 0 01-.8.8zm0-4.6a.8.8 0 01-.8-.8v-1.8a.8.8 0 111.6 0v1.8a.8.8 0 01-.8.8zm0-4.5a.8.8 0 01-.8-.8V7.6a.8.8 0 111.6 0v1.8a.8.8 0 01-.8.8zm0-4.5a.8.8 0 01-.8-.8V3.1a.8.8 0 111.6 0v1.8a.8.8 0 01-.8.8z" id="Línea_2518" data-name="Línea 2518"/><path class="cls-1" d="M50.6 33.2H17a5.3 5.3 0 01-5.3-5.3v-2a.8.8 0 01.8-.8.7.7 0 01.8.8v2a3.7 3.7 0 003.7 3.7h33.6a3.7 3.7 0 003.7-3.7v-8.8h-35a.8.8 0 010-1.6h35.8a.9.9 0 01.8.8v9.6a5.3 5.3 0 01-5.3 5.3z" id="Trazado_12004" data-name="Trazado 12004"/><path class="cls-1" d="M30.6 47.3a.8.8 0 01-.8-.8V32.7a.8.8 0 01.8-.8.9.9 0 01.8.8v13.8a.9.9 0 01-.8.8z" id="Línea_2519" data-name="Línea 2519"/><path class="cls-1" d="M37 46.1a.8.8 0 01-.8-.8V32.7a.9.9 0 01.8-.8.8.8 0 01.8.8v12.6a.7.7 0 01-.8.8z" id="Línea_2519-2" data-name="Línea 2519"/><path d="M13 23.6a4.4 4.4 0 010-8.7 4 4 0 013.1 1.3 4.3 4.3 0 011.3 3 4.4 4.4 0 01-4.4 4.4zm0-7.1a2.8 2.8 0 000 5.5 2.8 2.8 0 002.8-2.8 2.7 2.7 0 00-.8-1.9 3 3 0 00-2-.8z" fill="#00a800" id="Trazado_11848" data-name="Trazado 11848"/><path class="cls-1" d="M33.8 23.7a.9.9 0 01-.8-.8 11.5 11.5 0 01.1-1.9.8.8 0 01.9-.7.7.7 0 01.7.8 10.9 10.9 0 00-.1 1.8.9.9 0 01-.8.8zm.6-4.5h-.2a.8.8 0 01-.5-1l.6-1.8a.8.8 0 011.1-.4.7.7 0 01.4 1l-.6 1.6a.8.8 0 01-.8.6zm1.9-4.1h-.4a.8.8 0 01-.3-1.1l1.2-1.5a.8.8 0 011.1-.2.9.9 0 01.1 1.2 7.1 7.1 0 00-1 1.4.9.9 0 01-.7.2zm3-3.4a.6.6 0 01-.6-.3.7.7 0 01.1-1.1 5.8 5.8 0 011.5-1.1.7.7 0 011.1.2.9.9 0 01-.2 1.1l-1.4 1a.6.6 0 01-.5.2zm3.8-2.4a1 1 0 01-.8-.5.8.8 0 01.4-1l1.8-.7a.8.8 0 11.5 1.5l-1.6.6zm4.3-1.2a.8.8 0 01-.8-.7.7.7 0 01.7-.9l1.9-.2a.8.8 0 01.8.8.9.9 0 01-.8.8h-1.8z"/><path class="cls-1" d="M33.8 23.7a.9.9 0 01-.8-.8 10.9 10.9 0 00-.1-1.8.8.8 0 01.7-.8.7.7 0 01.9.7 11.5 11.5 0 01.1 1.9.9.9 0 01-.8.8zm-.6-4.5a.8.8 0 01-.8-.6l-.6-1.6c-.1-.4 0-.9.4-1a.8.8 0 011.1.4 12.7 12.7 0 01.6 1.8.7.7 0 01-.5 1zm-1.9-4.1a.9.9 0 01-.7-.3 7.1 7.1 0 00-1-1.4.9.9 0 01.1-1.2c.4-.2.9-.2 1.1.2l1.2 1.5a.8.8 0 01-.3 1.1zm-3-3.4a.6.6 0 01-.5-.2l-1.3-1a.9.9 0 01-.3-1.1.8.8 0 011.2-.2l1.5 1.1a.8.8 0 010 1.1.6.6 0 01-.6.3zm-3.7-2.4h-.4l-1.6-.6a.8.8 0 01.5-1.5l1.8.7a.7.7 0 01.4 1c-.2.2-.4.4-.7.4zm-4.4-1.2h-1.8a.9.9 0 01-.8-.8.8.8 0 01.9-.8l1.8.2a.7.7 0 01.7.9.8.8 0 01-.8.5zm34.9 18H43.9a.7.7 0 01-.8-.8.8.8 0 01.8-.8h11.2a.9.9 0 01.8.8.8.8 0 01-.8.8z"/><path fill="none" d="M0 48.3h65v16.74H0z"/><path class="cls-4" d="M45.4 61.3h-7.2a1.2 1.2 0 01-1.2-1.2 1.3 1.3 0 011.2-1.2h7.2a1.3 1.3 0 011.2 1.2 1.2 1.2 0 01-1.2 1.2zm7.7 0h-.6a1.2 1.2 0 01-1.2-1.2 1.3 1.3 0 011.2-1.2h.6a1.2 1.2 0 011.2 1.2 1.2 1.2 0 01-1.2 1.2zm-34.1 0h-7.1a1.2 1.2 0 01-1.2-1.2 1.2 1.2 0 011.2-1.2H19a1.2 1.2 0 011.2 1.2 1.2 1.2 0 01-1.2 1.2z"/><path d="M31 61.3H18.5a1.2 1.2 0 01-1.2-1.2 1.3 1.3 0 011.2-1.2H31a1.2 1.2 0 011.2 1.2 1.2 1.2 0 01-1.2 1.2zm4.5-6.1H11.9a1.2 1.2 0 110-2.4h23.6a1.2 1.2 0 010 2.4z" fill="#96d200"/><path class="cls-4" d="M53.1 55.2H34.7a1.2 1.2 0 010-2.4h18.4a1.2 1.2 0 010 2.4zm-40.8 0h-.4a1.2 1.2 0 110-2.4h.4a1.2 1.2 0 010 2.4z"/></svg>