<svg xmlns="http://www.w3.org/2000/svg" viewBox="0 0 65 65"><style>.st5{fill:none}.st6{fill:#4c9f2e}.st8{fill:none;stroke:#95a6b1;stroke-linecap:round;stroke-linejoin:round;stroke-width:1.6}</style><g id="Capa_1"><path class="st5" d="M0 48.26h65V65H0z"/><path class="st6" d="M45.38 61.32h-7.17c-.66 0-1.2-.54-1.2-1.2s.54-1.2 1.2-1.2h7.17c.66 0 1.2.54 1.2 1.2s-.54 1.2-1.2 1.2zm7.73 0h-.58c-.66 0-1.2-.54-1.2-1.2s.54-1.2 1.2-1.2h.58c.66 0 1.2.54 1.2 1.2s-.54 1.2-1.2 1.2zm-34.12 0h-7.1c-.66 0-1.2-.54-1.2-1.2s.54-1.2 1.2-1.2h7.1c.66 0 1.2.54 1.2 1.2s-.53 1.2-1.2 1.2z"/><path d="M31.05 61.32H18.53c-.66 0-1.2-.54-1.2-1.2s.54-1.2 1.2-1.2h12.52c.66 0 1.2.54 1.2 1.2s-.54 1.2-1.2 1.2zm4.42-6.11H11.89c-.66 0-1.2-.54-1.2-1.2s.54-1.2 1.2-1.2h23.58c.66 0 1.2.54 1.2 1.2s-.53 1.2-1.2 1.2z" fill="#94d040"/><path class="st6" d="M53.11 55.21H34.75c-.66 0-1.2-.54-1.2-1.2s.54-1.2 1.2-1.2h18.36c.66 0 1.2.54 1.2 1.2s-.54 1.2-1.2 1.2zm-40.79 0h-.43c-.66 0-1.2-.54-1.2-1.2s.54-1.2 1.2-1.2h.43c.66 0 1.2.54 1.2 1.2s-.54 1.2-1.2 1.2z"/><path class="st5" d="M0 0h65v65H0z"/><path d="M46.27 7.71c.37.82.4 1.71.14 2.5a3.43 3.43 0 01-1.83 2.04c-1.72.79-3.75.03-4.54-1.69s-.03-3.75 1.69-4.54 3.75-.03 4.54 1.69z" fill="none" stroke="#00a800" stroke-width="1.6" stroke-linecap="round" stroke-linejoin="round" stroke-miterlimit="10"/><path class="st8" d="M49.09 9.13h7.06v25.03c0 3.14-2.54 5.68-5.68 5.68H14.53c-3.14 0-5.68-2.54-5.68-5.68V9.13h28.03m-6.45 30.72h4.14v6.93h-4.14zm-4.67 6.92h13.48"/><circle class="st8" cx="32.5" cy="34.65" r="1.33"/><path class="st8" d="M36.64 34.66h19.51m-47.3 0h19.44"/><path d="M41.44 17.37h10.47v10.47H41.44zm-26.68 6.47l4.46.09 3.58 2.67 4.53-7.23 3.74 5.12 3.68-8.38 2.84 11.73m-22.83-12.7h5.26" stroke-width="1.475" fill="none" stroke="#95a6b1" stroke-linecap="round" stroke-linejoin="round"/></g></svg>