<svg xmlns="http://www.w3.org/2000/svg" viewBox="0 0 65 65"><style>.st5{fill:none}.st6{fill:#4c9f2e}.st12{fill:none;stroke:#95a6b1;stroke-linecap:round;stroke-linejoin:round;stroke-width:1.5467}</style><g id="Capa_1"><path class="st5" d="M0 48.26h65V65H0z"/><path class="st6" d="M45.38 61.32h-7.17c-.66 0-1.2-.54-1.2-1.2s.54-1.2 1.2-1.2h7.17c.66 0 1.2.54 1.2 1.2s-.54 1.2-1.2 1.2zm7.73 0h-.58c-.66 0-1.2-.54-1.2-1.2s.54-1.2 1.2-1.2h.58c.66 0 1.2.54 1.2 1.2s-.54 1.2-1.2 1.2zm-34.12 0h-7.1c-.66 0-1.2-.54-1.2-1.2s.54-1.2 1.2-1.2h7.1c.66 0 1.2.54 1.2 1.2s-.54 1.2-1.2 1.2z"/><path d="M31.05 61.32H18.53c-.66 0-1.2-.54-1.2-1.2s.54-1.2 1.2-1.2h12.52c.66 0 1.2.54 1.2 1.2s-.54 1.2-1.2 1.2zm4.42-6.11H11.89c-.66 0-1.2-.54-1.2-1.2s.54-1.2 1.2-1.2h23.58c.66 0 1.2.54 1.2 1.2s-.53 1.2-1.2 1.2z" fill="#94d040"/><path class="st6" d="M53.11 55.21H34.75c-.66 0-1.2-.54-1.2-1.2s.54-1.2 1.2-1.2h18.36c.66 0 1.2.54 1.2 1.2s-.54 1.2-1.2 1.2zm-40.79 0h-.43c-.66 0-1.2-.54-1.2-1.2s.54-1.2 1.2-1.2h.43c.66 0 1.2.54 1.2 1.2s-.54 1.2-1.2 1.2z"/><path class="st5" d="M0 0h65v65H0z"/><path d="M50.52 7.52c.4.88.43 1.84.15 2.69-.31.94-1 1.75-1.96 2.19-1.85.85-4.03.03-4.88-1.82s-.03-4.03 1.82-4.88 4.02-.03 4.87 1.82z" fill="none" stroke="#00a800" stroke-width="1.6" stroke-linecap="round" stroke-linejoin="round" stroke-miterlimit="10"/><path class="st12" d="M47.65 15.36v10.59H37.4m-9.36 0H17.49V8.73h23.16M22.42 39.46l-10.32.61v-9.72l15.66-.96v3.08m14.95 7l10.19.6v-9.72l-15.66-.96v3.08"/><path class="st12" d="M36.26 32.47h-7.37c-3.57 0-6.46 1.89-6.46 5.46v9.45h20.29v-8.45c-.01-3.57-2.9-6.46-6.46-6.46zm-3.54-14.76c-2.49 0-4.51 2.02-4.51 4.51v2.13a4.511 4.511 0 009.02 0v-2.13a4.498 4.498 0 00-4.51-4.51z"/><path d="M17.73 17.41h3.65M18 13.3h5.5" fill="none" stroke="#95a6b1" stroke-width="1.6" stroke-linecap="round" stroke-linejoin="round"/></g></svg>