<svg xmlns="http://www.w3.org/2000/svg" viewBox="0 0 47 47"><style>.st14{stroke-miterlimit:10}.st14,.st15{fill:none;stroke:#fff;stroke-width:1.5;stroke-linecap:round;stroke-linejoin:round}</style><g id="Capa_1"><path fill="none" d="M.07 0H47v47H.07z"/><path class="st14" d="M5.63 12.52c-.37.28-.72.49-.99.63-.32.17-.52.5-.5.87.52 10.39 8.22 14.55 10.06 15.4.24.11.52.12.77.01 1.96-.88 3.54-2.04 4.81-3.35 0 0 3.53-3.13 5.01-10.34.15-.71.19-1.3.23-1.71a.927.927 0 00-.49-.9c-2.46-1.28-3.16-3.45-3.35-4.6a.934.934 0 00-.92-.78h-6.22"/><path class="st14" d="M10.93 19.32l3.19 2.9 5.14-7.62"/><path id="Trazado_20005" class="st15" d="M5.59 6.58a3.147 3.147 0 001.55 4.17c1.58.72 3.45.03 4.17-1.55.72-1.58.03-3.45-1.55-4.17A3.122 3.122 0 005.6 6.56c-.01 0-.01.01-.01.02z"/><path class="st15" d="M8.45 25.17v11.66h34.42V15.68H25.01m.65 21.15v4.64m-6.31.79h12.62M8.45 32.47h34.42"/><g id="Grupo_20966" transform="translate(-27.188 -20.454)"><g id="Grupo_20965"><path id="Trazado_20148" class="st15" d="M63.05 43.11v5.1h-6.74"/><path id="Trazado_20149" class="st15" d="M56.6 48.21h-1.03v-4.54c0-.31.17-.56.38-.56h7.1"/><path id="Trazado_20150" class="st15" d="M56.31 48.22h8.35c.36 0 .64.29.64.64v3.99"/><path id="Trazado_20151" class="st15" d="M53.6 52.85v-4.08c0-.31.25-.56.56-.56l2.41-.01"/></g></g></g></svg>