<svg xmlns="http://www.w3.org/2000/svg" viewBox="0 0 65 65"><style>.st5{fill:none}.st6{fill:#4c9f2e}</style><g id="Capa_1"><path class="st5" d="M0 48.26h65V65H0z"/><path class="st6" d="M45.38 61.32h-7.17c-.66 0-1.2-.54-1.2-1.2s.54-1.2 1.2-1.2h7.17c.66 0 1.2.54 1.2 1.2s-.54 1.2-1.2 1.2zm7.73 0h-.58c-.66 0-1.2-.54-1.2-1.2s.54-1.2 1.2-1.2h.58c.66 0 1.2.54 1.2 1.2s-.54 1.2-1.2 1.2zm-34.12 0h-7.1c-.66 0-1.2-.54-1.2-1.2s.54-1.2 1.2-1.2h7.1c.66 0 1.2.54 1.2 1.2s-.54 1.2-1.2 1.2z"/><path d="M31.05 61.32H18.53c-.66 0-1.2-.54-1.2-1.2s.54-1.2 1.2-1.2h12.52c.66 0 1.2.54 1.2 1.2s-.54 1.2-1.2 1.2zm4.42-6.11H11.89c-.66 0-1.2-.54-1.2-1.2s.54-1.2 1.2-1.2h23.58c.66 0 1.2.54 1.2 1.2s-.53 1.2-1.2 1.2z" fill="#94d040"/><path class="st6" d="M53.11 55.21H34.75c-.66 0-1.2-.54-1.2-1.2s.54-1.2 1.2-1.2h18.36c.66 0 1.2.54 1.2 1.2s-.54 1.2-1.2 1.2zm-40.79 0h-.43c-.66 0-1.2-.54-1.2-1.2s.54-1.2 1.2-1.2h.43c.66 0 1.2.54 1.2 1.2s-.54 1.2-1.2 1.2z"/><path class="st5" d="M0 0h65v65H0z"/><g fill="none" stroke-width="1.6" stroke-linecap="round" stroke-linejoin="round"><path d="M35.07 28.65c.4.88.43 1.84.15 2.69-.31.94-1 1.75-1.96 2.19a3.68 3.68 0 01-4.88-1.82c-.85-1.85-.03-4.03 1.82-4.88s4.02-.03 4.87 1.82z" stroke="#00a800" stroke-miterlimit="10"/><path d="M14.39 30.18h10.94m12.71 0h4.18M20.88 37.2l-7.02-7.02 7.02-7.02M50.07 35.8l-8.34-5.62 8.34-5.62-2.36 5.62zm-18.35 1.06v8.78m0-30.93v8.76m-7.22-8.76h14.59m-5.63-9.06h-3.22c-1.61 0-2.92 1.31-2.92 2.92v6.14h9.07V8.57a2.938 2.938 0 00-2.93-2.92zm-22.5 39.99h43.08M17.73 10.09h5.65M21 5.97h3.5" stroke="#95a6b1"/></g></g></svg>