<svg xmlns="http://www.w3.org/2000/svg" viewBox="0 0 65 65"><style>.st5{fill:none}.st6{fill:#4c9f2e}.st8,.st9{fill:none;stroke:#95a6b1;stroke-width:1.6;stroke-linecap:round;stroke-linejoin:round}.st9{stroke-dasharray:3.9659,3.9659}</style><g id="Capa_1"><path class="st5" d="M0 48.26h65V65H0z"/><path class="st6" d="M45.38 61.32h-7.17c-.66 0-1.2-.54-1.2-1.2s.54-1.2 1.2-1.2h7.17c.66 0 1.2.54 1.2 1.2s-.54 1.2-1.2 1.2zm7.73 0h-.58c-.66 0-1.2-.54-1.2-1.2s.54-1.2 1.2-1.2h.58c.66 0 1.2.54 1.2 1.2s-.54 1.2-1.2 1.2zm-34.12 0h-7.1c-.66 0-1.2-.54-1.2-1.2s.54-1.2 1.2-1.2h7.1c.66 0 1.2.54 1.2 1.2s-.54 1.2-1.2 1.2z"/><path d="M31.05 61.32H18.53c-.66 0-1.2-.54-1.2-1.2s.54-1.2 1.2-1.2h12.52c.66 0 1.2.54 1.2 1.2s-.54 1.2-1.2 1.2zm4.42-6.11H11.89c-.66 0-1.2-.54-1.2-1.2s.54-1.2 1.2-1.2h23.58c.66 0 1.2.54 1.2 1.2s-.53 1.2-1.2 1.2z" fill="#94d040"/><path class="st6" d="M53.11 55.21H34.75c-.66 0-1.2-.54-1.2-1.2s.54-1.2 1.2-1.2h18.36c.66 0 1.2.54 1.2 1.2s-.54 1.2-1.2 1.2zm-40.79 0h-.43c-.66 0-1.2-.54-1.2-1.2s.54-1.2 1.2-1.2h.43c.66 0 1.2.54 1.2 1.2s-.54 1.2-1.2 1.2z"/><path class="st5" d="M0 0h65v65H0z"/><path class="st5" d="M0 0h65v65H0z"/><path class="st8" d="M54.04 13.52c0 2.92-2.37 5.29-5.29 5.29m-31.82 0h-.68c-2.92 0-5.29-2.37-5.29-5.29V7.71h36.43m1.09 11.1v4.12c0 2.92-2.37 5.29-5.29 5.29H22.22c-2.92 0-5.29-2.37-5.29-5.29v-4.12m0 0h1.89"/><path class="st9" d="M22.79 18.81H44.6"/><path class="st8" d="M46.58 18.81h1.9m-31.55 4.7h1.89"/><path class="st9" d="M22.79 23.51H44.6"/><path class="st8" d="M46.58 23.51h1.9m-14.74 8.94c0 2.07-2.47 2.07-2.47 4.14s2.47 2.07 2.47 4.14-2.47 2.07-2.47 4.15c0 2.07 2.47 2.07 2.47 4.15m8.24-16.58c0 2.07-2.47 2.07-2.47 4.14s2.47 2.07 2.47 4.14-2.47 2.07-2.47 4.15M25.49 32.45c0 2.07-2.47 2.07-2.47 4.14s2.47 2.07 2.47 4.14-2.47 2.07-2.47 4.15"/><path d="M56.31 6.28c.37.82.4 1.71.14 2.5a3.43 3.43 0 01-1.83 2.04c-1.72.79-3.75.03-4.54-1.69s-.03-3.75 1.69-4.54c1.72-.78 3.76-.03 4.54 1.69z" fill="none" stroke="#00a800" stroke-width="1.5" stroke-linecap="round" stroke-linejoin="round" stroke-miterlimit="10"/><path class="st8" d="M10.96 12.67h8.03"/></g></svg>