<svg xmlns="http://www.w3.org/2000/svg" viewBox="0 0 65 65"><style>.st5{fill:none}.st6{fill:#4c9f2e}.st13{fill:none;stroke:#95a6b1;stroke-width:1.4747;stroke-linecap:round;stroke-linejoin:round}</style><g id="Capa_1"><path class="st5" d="M0 48.26h65V65H0z"/><path class="st6" d="M45.38 61.32h-7.17c-.66 0-1.2-.54-1.2-1.2s.54-1.2 1.2-1.2h7.17c.66 0 1.2.54 1.2 1.2s-.54 1.2-1.2 1.2zm7.73 0h-.58c-.66 0-1.2-.54-1.2-1.2s.54-1.2 1.2-1.2h.58c.66 0 1.2.54 1.2 1.2s-.54 1.2-1.2 1.2zm-34.12 0h-7.1c-.66 0-1.2-.54-1.2-1.2s.54-1.2 1.2-1.2h7.1c.66 0 1.2.54 1.2 1.2s-.54 1.2-1.2 1.2z"/><path d="M31.05 61.32H18.53c-.66 0-1.2-.54-1.2-1.2s.54-1.2 1.2-1.2h12.52c.66 0 1.2.54 1.2 1.2s-.54 1.2-1.2 1.2zm4.42-6.11H11.89c-.66 0-1.2-.54-1.2-1.2s.54-1.2 1.2-1.2h23.58c.66 0 1.2.54 1.2 1.2s-.53 1.2-1.2 1.2z" fill="#94d040"/><path class="st6" d="M53.11 55.21H34.75c-.66 0-1.2-.54-1.2-1.2s.54-1.2 1.2-1.2h18.36c.66 0 1.2.54 1.2 1.2s-.54 1.2-1.2 1.2zm-40.79 0h-.43c-.66 0-1.2-.54-1.2-1.2s.54-1.2 1.2-1.2h.43c.66 0 1.2.54 1.2 1.2s-.54 1.2-1.2 1.2z"/><path class="st5" d="M0 0h65v65H0z"/><g id="Grupo_20980"><path id="Trazado_20173" d="M47.68 13.98c.79 1.72.03 3.75-1.69 4.54s-3.75.03-4.54-1.69a3.424 3.424 0 011.69-4.54c1.71-.79 3.74-.04 4.53 1.67.01 0 .01.01.01.02z" fill="none" stroke="#00a800" stroke-width="1.6" stroke-linecap="round" stroke-linejoin="round" stroke-miterlimit="10"/><g id="Grupo_20979"><path id="Trazado_20174" class="st13" d="M49.42 31.84l1.32.48c.54.2 1.14-.08 1.33-.62l2.15-5.93c.2-.54-.08-1.14-.62-1.33l-1.92-.67"/><g id="Grupo_20978"><path id="Trazado_20175" class="st13" d="M50.19 17.37l5.59 2.09a1.034 1.034 0 01.06 1.92l-7.65 3.38c-1.92.85-4.09.92-6.06.2L12.21 14.37c-.54-.2-.82-.79-.62-1.33l2.65-7.29c.2-.54.79-.82 1.33-.62l23.46 8.32"/><path id="Trazado_20177" class="st13" d="M51.56 23.5l-2.96 8.16a2.345 2.345 0 01-2.99 1.4L10.02 20.4c-.54-.2-.82-.79-.62-1.33l4.84-13.32c.2-.54.79-.82 1.33-.62"/><path id="Trazado_20178" class="st13" d="M31.71 29.45a4.34 4.34 0 01-8.33-2.43c.05-.16.1-.31.16-.46"/><path id="Trazado_20179" class="st13" d="M28.28 32.53l-3.56 9.08c-.48 1.21-1.64 2-2.94 2h-8.36c-.57 0-1.04-.47-1.04-1.04V40.7c0-.57.47-1.04 1.04-1.04h6.97c.43 0 .81-.26.97-.66l3.16-7.67"/><path id="Rectángulo_5906" class="st13" d="M9.58 35.37h1.76c.57 0 1.04.47 1.04 1.04V47.2c0 .57-.47 1.04-1.04 1.04H9.58c-.57 0-1.04-.47-1.04-1.04V36.41c0-.57.47-1.04 1.04-1.04z"/></g></g></g><path class="st5" d="M0 0h65v65H0z"/></g></svg>