<svg xmlns="http://www.w3.org/2000/svg" viewBox="0 0 65 65"><style>.st5{fill:none}.st6{fill:#4c9f2e}.st8{fill:none;stroke:#95a6b1;stroke-width:1.6;stroke-linecap:round;stroke-linejoin:round}</style><g id="Capa_1"><path class="st5" d="M0 48.26h65V65H0z"/><path class="st6" d="M45.38 61.32h-7.17c-.66 0-1.2-.54-1.2-1.2s.54-1.2 1.2-1.2h7.17c.66 0 1.2.54 1.2 1.2s-.54 1.2-1.2 1.2zm7.73 0h-.58c-.66 0-1.2-.54-1.2-1.2s.54-1.2 1.2-1.2h.58c.66 0 1.2.54 1.2 1.2s-.54 1.2-1.2 1.2zm-34.12 0h-7.1c-.66 0-1.2-.54-1.2-1.2s.54-1.2 1.2-1.2h7.1c.66 0 1.2.54 1.2 1.2s-.54 1.2-1.2 1.2z"/><path d="M31.05 61.32H18.53c-.66 0-1.2-.54-1.2-1.2s.54-1.2 1.2-1.2h12.52c.66 0 1.2.54 1.2 1.2s-.54 1.2-1.2 1.2zm4.42-6.11H11.89c-.66 0-1.2-.54-1.2-1.2s.54-1.2 1.2-1.2h23.58c.66 0 1.2.54 1.2 1.2s-.53 1.2-1.2 1.2z" fill="#94d040"/><path class="st6" d="M53.11 55.21H34.75c-.66 0-1.2-.54-1.2-1.2s.54-1.2 1.2-1.2h18.36c.66 0 1.2.54 1.2 1.2s-.54 1.2-1.2 1.2zm-40.79 0h-.43c-.66 0-1.2-.54-1.2-1.2s.54-1.2 1.2-1.2h.43c.66 0 1.2.54 1.2 1.2s-.54 1.2-1.2 1.2z"/><path class="st5" d="M0 0h65v65H0z"/><path class="st8" d="M32.29 7.79H54c1.1 0 2 .9 2 2v34.1c0 1.1-.9 2-2 2H25c-1.1 0-2-.9-2-2V33.67"/><path class="st8" d="M34.75 13.16h16.59v13.68H31.01m-1 8.49H28.7c-.55 0-1-.45-1-1v-1.31c0-.55.45-1 1-1h1.31c.55 0 1 .45 1 1v1.31c0 .55-.44 1-1 1zm6.78 0h-1.31c-.55 0-1-.45-1-1v-1.31c0-.55.45-1 1-1h1.31c.55 0 1 .45 1 1v1.31c0 .55-.45 1-1 1zm6.82 0H42.3c-.55 0-1-.45-1-1v-1.31c0-.55.45-1 1-1h1.31c.55 0 1 .45 1 1v1.31c0 .55-.45 1-1 1zm6.69 0h-1.31c-.55 0-1-.45-1-1v-1.31c0-.55.45-1 1-1h1.31c.55 0 1 .45 1 1v1.31c0 .55-.45 1-1 1zm-20.29 6.8H28.7c-.55 0-1-.45-1-1v-1.31c0-.55.45-1 1-1h1.31c.55 0 1 .45 1 1v1.31c0 .55-.44 1-1 1zm6.78 0h-1.31c-.55 0-1-.45-1-1v-1.31c0-.55.45-1 1-1h1.31c.55 0 1 .45 1 1v1.31c0 .55-.45 1-1 1zm6.82 0H42.3c-.55 0-1-.45-1-1v-1.31c0-.55.45-1 1-1h1.31c.55 0 1 .45 1 1v1.31c0 .55-.45 1-1 1zm6.69 0h-1.31c-.55 0-1-.45-1-1v-1.31c0-.55.45-1 1-1h1.31c.55 0 1 .45 1 1v1.31c0 .55-.45 1-1 1zM23.84 29.21h1.73c1.06 0 1.65-1.22.98-2.05-.8-1-1.64-2.17-1.99-3.07-.75-1.93-.65-5.62-.65-5.62 0-3.31-2.68-5.99-5.99-5.99s-5.99 2.68-5.99 5.99c0 0 .14 4.03-.76 5.86-.41.85-1.13 1.96-1.78 2.91-.57.84.03 1.98 1.04 1.98h1.67m5.83-16.75V9.66m4.98.69s6.26 1.82 4.49 9.58M24.2 6.82s10.27 3.05 6.9 14.29M13.08 10.35s-6.26 1.82-4.49 9.58m-4.25-4.75c-.25 1.66-.14 3.62.56 5.93M7.18 9.66c-1.3 1.28-2.47 3.08-2.84 5.52m7.46-8.36s-2.49.74-4.62 2.84"/><path d="M21.12 27.79c.37.82.4 1.71.14 2.5a3.43 3.43 0 01-1.83 2.04c-1.72.79-3.75.03-4.54-1.69s-.03-3.75 1.69-4.54 3.75-.03 4.54 1.69z" fill="none" stroke="#00a800" stroke-width="1.6" stroke-linecap="round" stroke-linejoin="round" stroke-miterlimit="10"/><path class="st5" d="M0 0h65v65H0z"/></g></svg>