<svg id="Capa_1" data-name="Capa 1" xmlns="http://www.w3.org/2000/svg" viewBox="0 0 84 84"><defs><style>.cls-1{fill:#9c9a88}</style></defs><path class="cls-1" d="M77.9 40.6H60.5v-2.3h4.7a1.1 1.1 0 001.1-1.1 1 1 0 00-1.1-1h-4.8v-2.6h3.3a4.5 4.5 0 003.2-1.4l7-7.2a2.8 2.8 0 001.5.4 3.3 3.3 0 002.4-1 3.5 3.5 0 001-2.5 3.7 3.7 0 00-1-2.4 3.6 3.6 0 00-2.4-.9A3.4 3.4 0 0072 22a2.6 2.6 0 00.4 1.5l-7.1 7.2a2.1 2.1 0 01-1.7.7h-3.2v-2.3a5.7 5.7 0 00-5.7-5.7h-2.5v-9.6a3.4 3.4 0 002.3-3.2A3.5 3.5 0 0051 7.2a3.4 3.4 0 00-3.3 3.5 3.5 3.5 0 002.3 3.2v9.6h-2.5v-4.7a1.1 1.1 0 00-2.2 0v4.7h-2.4l-.2-17.4A1.1 1.1 0 0041.6 5a1 1 0 00-1 1.1v17.4h-2.3v-4.6a1.1 1.1 0 00-1.1-1.1 1 1 0 00-1 1.1v4.7h-2.6v-3.3a4.5 4.5 0 00-1.4-3.2l-7.2-7a3.5 3.5 0 00-.6-3.9 3.6 3.6 0 00-4.9 0 3.4 3.4 0 00.1 4.8 3.3 3.3 0 002.4 1 2.8 2.8 0 001.5-.4l7.2 7.1a2.1 2.1 0 01.7 1.7v3.2h-2.3a3.9 3.9 0 00-1.5.2 1 1 0 00-.7 1.3 1.1 1.1 0 001.3.8l.9-.2 25.5-.2a3.6 3.6 0 013.6 3.5l.2 25.5a2.8 2.8 0 01-.1.9 1.1 1.1 0 00.8 1.3h.3a1 1 0 001-.8 7.8 7.8 0 00.2-1.4v-2.3h9.6a3.4 3.4 0 003.2 2.3 3.5 3.5 0 003.4-3.5 3.4 3.4 0 00-3.5-3.3 3.5 3.5 0 00-3.2 2.3h-9.6v-2.5h4.7a1.1 1.1 0 000-2.2h-4.7v-2.4l17.4-.2a1.1 1.1 0 001.1-1.1 1 1 0 00-1.1-1m-3.4-19.5a1.2 1.2 0 011.8 0 1.2 1.2 0 01.3.9 1.1 1.1 0 01-.3.8 1.1 1.1 0 01-.9.4 1.6 1.6 0 01-.9-.3 1.6 1.6 0 01-.3-.9 1.4 1.4 0 01.3-.9M50.9 9.4a1.2 1.2 0 011.3 1.2 1.3 1.3 0 01-1.2 1.3 1.3 1.3 0 01-1.3-1.3 1.3 1.3 0 011.2-1.2m-29.8.1a1.3 1.3 0 010-1.8 1.2 1.2 0 01.9-.3 1.1 1.1 0 01.8.3 1.3 1.3 0 010 1.8 1.4 1.4 0 01-1.7 0m52.3 40.2a1.3 1.3 0 011.2 1.2 1.2 1.2 0 01-1.2 1.3 1.3 1.3 0 01-1.3-1.2 1.3 1.3 0 011.3-1.3M60.5 72.4l-7.2-7.1a2.1 2.1 0 01-.7-1.7v-3.2H55a3.9 3.9 0 001.5-.2 1 1 0 00.7-1.3 1.1 1.1 0 00-1.3-.8l-.9.2-25.5.2a3.6 3.6 0 01-3.6-3.5l-.2-25.5a2.8 2.8 0 01.1-.9 1.1 1.1 0 00-.8-1.3 1.1 1.1 0 00-1.3.8 7.8 7.8 0 00-.2 1.4v2.4h-9.7a3.4 3.4 0 00-3.2-2.3 3.5 3.5 0 00-3.4 3.5 3.4 3.4 0 003.5 3.3 3.5 3.5 0 003.2-2.3h9.6v2.5h-4.7a1.1 1.1 0 000 2.2h4.7v2.5l-17.4.2a1.1 1.1 0 00-1.1.9 1 1 0 001.1 1h17.4v2.4h-4.6a1.1 1.1 0 00-1.1 1.1 1 1 0 001.1 1h4.7v2.5h-3.3a4.5 4.5 0 00-3.2 1.4l-7 7.2a2.8 2.8 0 00-1.5-.4 3.4 3.4 0 00-3.4 3.5 3.7 3.7 0 001 2.4 3.6 3.6 0 002.4.9 3.1 3.1 0 002.4-1 3.1 3.1 0 001-2.4 2.6 2.6 0 00-.4-1.5l7.1-7.2a2.1 2.1 0 011.7-.7h3.2V55a5.7 5.7 0 005.7 5.7h2.4v9.6a3.4 3.4 0 00-2.3 3.2 3.5 3.5 0 003.5 3.4 3.4 3.4 0 003.3-3.5 3.5 3.5 0 00-2.3-3.2v-9.7h2.5v4.7a1.1 1.1 0 102.2 0v-4.7h2.5l.2 17.4a1.1 1.1 0 001.1 1.1 1 1 0 001-1.1V60.5h2.4v4.7a1.1 1.1 0 001.1 1.1 1 1 0 001-1.1v-4.8h2.5v3.3a4.5 4.5 0 001.4 3.2l7.2 7a3.4 3.4 0 003.1 4.9 3.4 3.4 0 002.4-1 3.4 3.4 0 00-.1-4.8 3.2 3.2 0 00-3.9-.6M10.6 34.3a1.3 1.3 0 01-1.2-1.2 1.2 1.2 0 011.2-1.3 1.3 1.3 0 011.3 1.2 1.3 1.3 0 01-1.3 1.3M9.5 62.9a1.8 1.8 0 01-.9.4 1.8 1.8 0 01-.9-.4 1.2 1.2 0 01-.3-.9 1.1 1.1 0 01.3-.8 1.1 1.1 0 01.9-.4 1.6 1.6 0 01.9.3 1.6 1.6 0 01.3.9 1.4 1.4 0 01-.3.9m23.6 11.7a1.2 1.2 0 01-1.3-1.2 1.3 1.3 0 011.2-1.3 1.3 1.3 0 011.3 1.3 1.3 1.3 0 01-1.2 1.2m29.8 1.7a1.2 1.2 0 01-1.7 0 1.4 1.4 0 01-.1-1.8 1.6 1.6 0 01.9-.3 1.4 1.4 0 01.9.3 1.3 1.3 0 010 1.8"/><path class="cls-1" d="M33.2 50.2a4.8 4.8 0 005 4.5 5 5 0 003.9-1.8 5.1 5.1 0 003.9 1.7 4.8 4.8 0 005-4.3 5.1 5.1 0 002.6-4.4 5 5 0 00-1.6-3.4 4.9 4.9 0 001.5-3.5 5.3 5.3 0 00-4.1-4.9 2.8 2.8 0 00.1-.9 4.4 4.4 0 00-7.6-2.5 4.3 4.3 0 00-3.3-1.3 4.1 4.1 0 00-4.3 4c0 .3.1.6.1.9a5 5 0 00-3.9 4.9 4.9 4.9 0 001.1 3.1 5.5 5.5 0 00-1.1 3.3 5.5 5.5 0 002.7 4.6m2.8-14h.1a1.1 1.1 0 00.7-.3 1.1 1.1 0 00.2-1.4h-.1a1.5 1.5 0 01-.4-1 2 2 0 012.1-1.9 2 2 0 012.2 1.8 1.1 1.1 0 002.2 0 2 2 0 012.2-1.8 1.9 1.9 0 012.1 1.8c0 .2 0 .5-.1.6l-1.8.5a1 1 0 00-.5 1.4 1 1 0 001.4.6 3.3 3.3 0 011.5-.3c1.9 0 3.5 1.3 3.5 2.9a2.8 2.8 0 01-1.6 2.5 1.1 1.1 0 000 2 2.8 2.8 0 011.7 2.4 2.8 2.8 0 01-1 2 4.7 4.7 0 00-2.8-2.3 1.2 1.2 0 00-1.4.8 1.2 1.2 0 00.7 1.3 2.4 2.4 0 011.9 2.2 2.8 2.8 0 01-5.6.1v-7a2.6 2.6 0 012.8-2.4 1.1 1.1 0 001-1.1 1 1 0 00-1.1-1 5.1 5.1 0 00-2.8.8V38a1.1 1.1 0 00-1.1-1.1 1.1 1.1 0 00-1 1.1v6a3.3 3.3 0 00-1.2-.5 1.1 1.1 0 00-1.3.7 1.1 1.1 0 00.7 1.4 2.4 2.4 0 011.8 2.2v2.3a2.6 2.6 0 01-2.8 2.4 2.6 2.6 0 01-2.9-2.3 2.6 2.6 0 01.7-1.6 1.1 1.1 0 00-1.5-1.5l-.7.8a3 3 0 01-1.1-2.3 3.7 3.7 0 013-3.5 1 1 0 00.8-1.3 1.1 1.1 0 00-1.3-.8l-2 .8a2.5 2.5 0 01-.6-1.6 3.2 3.2 0 013.4-3"/><path fill="none" d="M0 0h84v84H0z"/></svg>