<svg id="Capa_1" data-name="Capa 1" xmlns="http://www.w3.org/2000/svg" viewBox="0 0 65 65"><defs><style>.cls-2{fill:#95a6b1}.cls-3{fill:none}.cls-4{fill:#4da12e}</style></defs><g id="Grupo_14734" data-name="Grupo 14734"><g id="Grupo_14731" data-name="Grupo 14731"><path d="M12.1 18.5a5 5 0 110-9.9 4.9 4.9 0 015 4.9 5 5 0 01-5 5zm0-8.3a3.4 3.4 0 00-3.4 3.3 3.4 3.4 0 003.4 3.4 3.4 3.4 0 003.4-3.4 3.4 3.4 0 00-3.4-3.3z" fill="#19a500" id="Trazado_11848" data-name="Trazado 11848"/><path class="cls-2" d="M53.1 48.4H11.9a.8.8 0 01-.8-.8V21.7a.8.8 0 01.8-.8.7.7 0 01.8.8v25.1h39.6V13.9H20.1a.8.8 0 010-1.6h33a.9.9 0 01.8.8v34.5a.8.8 0 01-.8.8z" id="Trazado_11852" data-name="Trazado 11852"/><path class="cls-2" d="M53.1 18.3a.8.8 0 01-.8-.8v-4.4a.8.8 0 01.8-.8.9.9 0 01.8.8v4.4a.9.9 0 01-.8.8z" id="Línea_2421" data-name="Línea 2421"/><path class="cls-2" d="M23.2 18.3a.8.8 0 01-.8-.8v-4.4a.8.8 0 01.8-.8.9.9 0 01.8.8v4.4a.9.9 0 01-.8.8z" id="Línea_2422" data-name="Línea 2422"/><path class="cls-2" d="M31.5 18.3a.8.8 0 01-.8-.8v-4.4a.8.8 0 01.8-.8.9.9 0 01.8.8v4.4a.9.9 0 01-.8.8z" id="Línea_2423" data-name="Línea 2423"/><path class="cls-2" d="M43.9 18.3a.8.8 0 01-.8-.8v-4.4a.8.8 0 01.8-.8.9.9 0 01.8.8v4.4a.9.9 0 01-.8.8z" id="Línea_2424" data-name="Línea 2424"/><path class="cls-2" d="M56.6 18.4H20.1a.9.9 0 01-.8-.8.8.8 0 01.8-.8h36.5a.7.7 0 01.8.8.8.8 0 01-.8.8z" id="Línea_2425" data-name="Línea 2425"/><path class="cls-2" d="M52.2 28.6h-9.3a.9.9 0 01-.8-.8.8.8 0 01.8-.8h9.3a.7.7 0 01.8.8.8.8 0 01-.8.8z" id="Línea_2751" data-name="Línea 2751"/><path class="cls-2" d="M21.2 36.8h-9.3a.8.8 0 01-.8-.8.9.9 0 01.8-.8h9.3a.9.9 0 01.8.8.8.8 0 01-.8.8z" id="Línea_2752" data-name="Línea 2752"/><path class="cls-2" d="M40 28.6h-1.3a.9.9 0 01-.8-.8.8.8 0 01.8-.8H40a.8.8 0 01.8.8.9.9 0 01-.8.8z" id="Línea_2753" data-name="Línea 2753"/><path class="cls-2" d="M57.4 48.4H7.6a.7.7 0 01-.8-.8.8.8 0 01.8-.8h49.8a.8.8 0 01.8.8.7.7 0 01-.8.8z" id="Línea_2754" data-name="Línea 2754"/></g><g id="Grupo_13216" data-name="Grupo 13216"><path class="cls-3" d="M0 0h65v65H0z" id="Rectángulo_3799" data-name="Rectángulo 3799"/></g><path class="cls-3" d="M0 0h65v65H0z" id="Rectángulo_3799-2" data-name="Rectángulo 3799-2"/><path class="cls-3" d="M0 48.3h65v16.74H0z"/><path class="cls-4" d="M45.4 61.3h-7.2a1.2 1.2 0 01-1.2-1.2 1.3 1.3 0 011.2-1.2h7.2a1.3 1.3 0 011.2 1.2 1.2 1.2 0 01-1.2 1.2zm7.7 0h-.6a1.2 1.2 0 01-1.2-1.2 1.3 1.3 0 011.2-1.2h.6a1.2 1.2 0 011.2 1.2 1.2 1.2 0 01-1.2 1.2zm-34.1 0h-7.1a1.2 1.2 0 01-1.2-1.2 1.2 1.2 0 011.2-1.2H19a1.2 1.2 0 011.2 1.2 1.2 1.2 0 01-1.2 1.2z"/><path d="M31 61.3H18.5a1.2 1.2 0 01-1.2-1.2 1.3 1.3 0 011.2-1.2H31a1.2 1.2 0 011.2 1.2 1.2 1.2 0 01-1.2 1.2zm4.5-6.1H11.9a1.2 1.2 0 110-2.4h23.6a1.2 1.2 0 010 2.4z" fill="#96d200"/><path class="cls-4" d="M53.1 55.2H34.7a1.2 1.2 0 010-2.4h18.4a1.2 1.2 0 010 2.4zm-40.8 0h-.4a1.2 1.2 0 110-2.4h.4a1.2 1.2 0 010 2.4z"/></g></svg>