<svg xmlns="http://www.w3.org/2000/svg" viewBox="0 0 65 65"><defs><style>.cls-4{fill:#95a6b1}.cls-5{fill:none}.cls-6{fill:#4da12e}</style></defs><g style="isolation:isolate"><g id="Capa_1" data-name="Capa 1"><path d="M13.5 13.9a4.7 4.7 0 010-9.4 4.9 4.9 0 013.3 1.3 4.7 4.7 0 011.4 3.3 4.7 4.7 0 01-4.7 4.8zm0-7.8a3.1 3.1 0 103.1 3.1 2.7 2.7 0 00-.9-2.2 2.9 2.9 0 00-2.2-.9z" fill="#4da22e" id="Trazado_11848" data-name="Trazado 11848"/><path class="cls-4" d="M51.7 47.3H13.3a.8.8 0 01-.8-.8V16.8a.8.8 0 01.8-.8.7.7 0 01.8.8v28.9h36.8V9.6H21a.8.8 0 01-.8-.8.7.7 0 01.8-.8h30.7a.8.8 0 01.8.8v37.7a.8.8 0 01-.8.8z" id="Trazado_11852" data-name="Trazado 11852"/><path class="cls-4" d="M51.7 13.7a.8.8 0 01-.8-.8V8.8a.7.7 0 01.8-.8.8.8 0 01.8.8v4.1a.9.9 0 01-.8.8z" id="Línea_2421" data-name="Línea 2421"/><path class="cls-4" d="M23.8 13.7a.9.9 0 01-.8-.8V8.8a.8.8 0 01.8-.8.7.7 0 01.8.8v4.1a.8.8 0 01-.8.8z" id="Línea_2422" data-name="Línea 2422"/><path class="cls-4" d="M31.5 13.7a.9.9 0 01-.8-.8V8.8a.8.8 0 01.8-.8.7.7 0 01.8.8v4.1a.8.8 0 01-.8.8z" id="Línea_2423" data-name="Línea 2423"/><path class="cls-4" d="M43.1 13.7a.8.8 0 01-.8-.8V8.8a.7.7 0 01.8-.8.8.8 0 01.8.8v4.1a.9.9 0 01-.8.8z" id="Línea_2424" data-name="Línea 2424"/><path class="cls-4" d="M55 13.7H21a.7.7 0 01-.8-.8.8.8 0 01.8-.8h34a.9.9 0 01.8.8.8.8 0 01-.8.8z" id="Línea_2425" data-name="Línea 2425"/><path class="cls-4" d="M34.7 47.3a.8.8 0 01-.8-.8V30.4a.8.8 0 01.8-.8.9.9 0 01.8.8v16.1a.9.9 0 01-.8.8zm8.5 0a.8.8 0 01-.8-.8V30.4a.8.8 0 01.8-.8.9.9 0 01.8.8v16.1a.9.9 0 01-.8.8z"/><path class="cls-4" d="M34.7 39.1h-.4L13 29.7a.8.8 0 01-.4-1.1.8.8 0 011-.4L35 37.6a.7.7 0 01.4 1 .8.8 0 01-.7.5zm0-7.9h-.4L13 21.8a.8.8 0 11.6-1.4L35 29.7a.8.8 0 01.4 1.1.7.7 0 01-.7.4z"/><path class="cls-4" d="M43.1 38.4h-8.4a.8.8 0 110-1.6h8.4a.8.8 0 110 1.6zm0 4.6h-8.4a.8.8 0 01-.8-.8.7.7 0 01.8-.8h8.4a.8.8 0 01.8.8.9.9 0 01-.8.8zm0 4.3h-8.4a.7.7 0 01-.8-.8.8.8 0 01.8-.8h8.4a.9.9 0 01.8.8.8.8 0 01-.8.8zM17.3 31.5a.8.8 0 01-.8-.8V23a.8.8 0 011.6 0v7.7a.8.8 0 01-.8.8zm4.5 1.9a.8.8 0 01-.8-.8v-7.8a.8.8 0 01.8-.8.9.9 0 01.8.8v7.8a.9.9 0 01-.8.8zm4.4 2.1a.9.9 0 01-.8-.8v-7.8a.9.9 0 01.8-.8.8.8 0 01.8.8v7.8a.8.8 0 01-.8.8zm4.5 1.7a.7.7 0 01-.8-.8v-7.7a.7.7 0 01.8-.8.8.8 0 01.8.8v7.7a.8.8 0 01-.8.8zm20.2-17.7h-8.7a.9.9 0 01-.8-.8.8.8 0 01.8-.8h8.7a.8.8 0 01.8.8.9.9 0 01-.8.8zm-11.4 0h-1.2a.9.9 0 01-.8-.8.8.8 0 01.8-.8h1.2a.8.8 0 01.8.8.9.9 0 01-.8.8z"/><path class="cls-4" d="M55 47.3H10.3a.7.7 0 01-.7-.8.7.7 0 01.7-.7H55a.8.8 0 01.8.7.8.8 0 01-.8.8z"/><path class="cls-5" d="M0 0h65v65H0z"/><path class="cls-5" d="M0 48.3h65v16.74H0z"/><path class="cls-6" d="M45.4 61.3h-7.2a1.2 1.2 0 01-1.2-1.2 1.3 1.3 0 011.2-1.2h7.2a1.3 1.3 0 011.2 1.2 1.2 1.2 0 01-1.2 1.2zm7.7 0h-.6a1.2 1.2 0 01-1.2-1.2 1.3 1.3 0 011.2-1.2h.6a1.2 1.2 0 011.2 1.2 1.2 1.2 0 01-1.2 1.2zm-34.1 0h-7.1a1.2 1.2 0 01-1.2-1.2 1.2 1.2 0 011.2-1.2H19a1.2 1.2 0 011.2 1.2 1.2 1.2 0 01-1.2 1.2z"/><path d="M31 61.3H18.5a1.2 1.2 0 01-1.2-1.2 1.3 1.3 0 011.2-1.2H31a1.2 1.2 0 011.2 1.2 1.2 1.2 0 01-1.2 1.2zm4.5-6.1H11.9a1.2 1.2 0 110-2.4h23.6a1.2 1.2 0 010 2.4z" fill="#96d200"/><path class="cls-6" d="M53.1 55.2H34.7a1.2 1.2 0 010-2.4h18.4a1.2 1.2 0 010 2.4zm-40.8 0h-.4a1.2 1.2 0 110-2.4h.4a1.2 1.2 0 010 2.4z"/></g></g></svg>