<svg id="Capa_1" data-name="Capa 1" xmlns="http://www.w3.org/2000/svg" viewBox="0 0 64 64"><defs><style>.cls-1{fill:#fff}</style></defs><path class="cls-1" d="M32.8 53.3a5.3 5.3 0 115.3-5.3 5.3 5.3 0 01-5.3 5.3zm0-8.8a3.5 3.5 0 00-3.5 3.5 3.5 3.5 0 003.5 3.5 3.5 3.5 0 003.5-3.5 3.4 3.4 0 00-3.5-3.5z"/><path class="cls-1" d="M32.8 57.5h-1.1a9.5 9.5 0 01-8.3-8 9.4 9.4 0 014.1-9.4V12.9a5.3 5.3 0 0110.6 0v4.6a.9.9 0 11-1.8 0v-4.6a3.4 3.4 0 00-3.5-3.5 3.5 3.5 0 00-3.5 3.5v27.6a.9.9 0 01-.4.8 7.7 7.7 0 00-3.7 8 7.7 7.7 0 006.7 6.4 7.5 7.5 0 006.1-1.9 8 8 0 002.6-5.8 7.6 7.6 0 00-3.8-6.7.8.8 0 01-.5-.8v-9.3a.9.9 0 011.8 0v8.9a9.3 9.3 0 014.3 7.9 9.5 9.5 0 01-9.6 9.5z"/><path class="cls-1" d="M32.8 44.5a.9.9 0 01-.9-.9v-28a.9.9 0 111.8 0v28a.9.9 0 01-.9.9zm-2.6-25.6h-1.8a.9.9 0 010-1.8h1.8a.9.9 0 010 1.8zm0 4.5h-1.8a.9.9 0 010-1.8h1.8a.9.9 0 010 1.8zm0 4.5h-1.8a.9.9 0 010-1.8h1.8a.9.9 0 010 1.8zm0 4.5h-1.8a.9.9 0 010-1.8h1.8a.9.9 0 010 1.8z"/><path class="cls-1" d="M39.7 29.9a5.7 5.7 0 01-1.8-.3 5.5 5.5 0 01-2.8-2.6 5 5 0 016.3-6.8 4.8 4.8 0 012.8 2.6 5.3 5.3 0 01.2 3.9 5.5 5.5 0 01-2.6 2.8 5.2 5.2 0 01-2.1.4zm0-8.2a3.5 3.5 0 00-1.4.3 3.2 3.2 0 00-1.6 1.8 3.1 3.1 0 001.8 4.1 3.1 3.1 0 002.5-.1 3 3 0 001.7-1.8 3.3 3.3 0 00-.1-2.4 3.3 3.3 0 00-1.8-1.7z" id="Trazado_11700" data-name="Trazado 11700"/><path fill="none" d="M0 0h64v64H0z"/></svg>