<svg data-name="Grupo 20206" xmlns="http://www.w3.org/2000/svg" width="65" height="65"><g data-name="Grupo 20210"><g data-name="Grupo 20208"><g data-name="Grupo 20207" fill="none"><path data-name="Rectángulo 5747" d="M0 48.259h65V65H0z"/><g data-name="Grupo 20206" stroke-linecap="round" stroke-linejoin="round" stroke-width="2.4"><path data-name="Línea 4493" stroke="#4da12e" d="M38.214 60.119h7.167"/><path data-name="Línea 4494" stroke="#4da12e" d="M52.528 60.119h.581"/><path data-name="Línea 4495" stroke="#4da12e" d="M11.891 60.119h7.101"/><path data-name="Línea 4496" stroke="#96d200" d="M18.529 60.119h12.517"/><path data-name="Línea 4497" stroke="#96d200" d="M11.891 54.012h23.582"/><path data-name="Línea 4498" stroke="#4da12e" d="M34.746 54.012h18.363"/><path data-name="Línea 4499" stroke="#4da12e" d="M11.891 54.012h.429"/></g></g></g><g data-name="Grupo 20209"><path data-name="Rectángulo 3799-2" fill="none" d="M0 0h65v65H0z"/></g></g><g data-name="Grupo 20212" fill="none" stroke="#95a6b1" stroke-linecap="round" stroke-linejoin="round" stroke-width="1.6"><path data-name="Trazado 19699" d="M17.547 16.773l-1.254 19.09 4.269.584-1.277-19.674"/><path data-name="Trazado 19700" d="M6.663 16.467s0-5.621 5.825-5.826 5.953 6.132 5.953 6.132-2.333-3.007-5.889-2.706a10.906 10.906 0 00-5.889 2.4z"/><path data-name="Trazado 19701" d="M30.22 16.467s0-5.621-5.825-5.826-5.954 6.132-5.954 6.132 2.333-3.007 5.89-2.706a10.906 10.906 0 015.889 2.4z"/><path data-name="Trazado 19702" d="M18.441 14.141s-.985-6.533 3.208-7.748A6.351 6.351 0 0128.364 8.7a9.707 9.707 0 00-5.5.547c-3.099 1.187-4.423 4.894-4.423 4.894z"/><path data-name="Trazado 19703" d="M18.341 14.141s.985-6.533-3.208-7.748A6.351 6.351 0 008.418 8.7a9.707 9.707 0 015.5.547c3.099 1.187 4.423 4.894 4.423 4.894z"/><path data-name="Trazado 19704" d="M11.213 21.9s-2.481-3.681 1.1-6.26 6.126 1.134 6.126 1.134a6.072 6.072 0 00-4.649 1.09 8.578 8.578 0 00-2.577 4.036z"/><path data-name="Trazado 19705" d="M25.67 21.9s2.48-3.681-1.1-6.26-6.126 1.134-6.126 1.134a6.075 6.075 0 014.65 1.09A8.578 8.578 0 0125.67 21.9z"/><path data-name="Línea 4500" d="M17.197 22.385h2.452"/><path data-name="Línea 4501" d="M16.893 27.27h3.073"/><path data-name="Línea 4502" d="M16.584 32.222h3.704"/></g><path data-name="Trazado 19706" d="M54.671 11.018a10.547 10.547 0 006.123-2.366" fill="none" stroke="#95a6b1" stroke-linecap="round" stroke-linejoin="round" stroke-width="1.6"/><path data-name="Trazado 19707" d="M3.918 37.985c8.245-6.462 15.648 2.982 23.893-3.48S28.654 18.6 36.9 12.134A10.769 10.769 0 0141.294 10" fill="none" stroke="#95a6b1" stroke-linecap="round" stroke-linejoin="round" stroke-width="1.6"/><path data-name="Trazado 19708" d="M60.807 28.669a8.121 8.121 0 00-3.429 1.391c-6.527 4.463-1.416 11.94-7.943 16.4S37.8 43.449 31.27 47.911" fill="none" stroke="#95a6b1" stroke-linecap="round" stroke-linejoin="round" stroke-width="1.6"/><path data-name="Trazado 11848" d="M52.166 9.7a4.183 4.183 0 11-4.183-4.183h0a4.168 4.168 0 014.183 4.151z" fill="none" stroke="#19a500" stroke-linecap="round" stroke-linejoin="round" stroke-width="1.6"/><g data-name="Grupo 20213"><path data-name="Trazado 19709" d="M56.413 20.52c-2.033 0-2.033-2-4.067-2s-2.033 2-4.067 2-2.036-2-4.073-2-2.037 2-4.074 2" fill="none" stroke="#95a6b1" stroke-linecap="round" stroke-linejoin="round" stroke-width="1.6"/></g><g data-name="Grupo 20214"><path data-name="Trazado 19710" d="M51.272 31.071c-2.033 0-2.033-2-4.066-2s-2.033 2-4.067 2-2.037-2-4.073-2-2.037 2-4.074 2" fill="none" stroke="#95a6b1" stroke-linecap="round" stroke-linejoin="round" stroke-width="1.6"/></g><g data-name="Grupo 20215"><path data-name="Trazado 19711" d="M45.132 42.393c-2.855 0-2.855-2-5.71-2s-2.856 2-5.712 2-2.855-2-5.709-2-2.857 2-5.714 2-2.859-2-5.718-2-2.858 2-5.717 2" fill="none" stroke="#95a6b1" stroke-linecap="round" stroke-linejoin="round" stroke-width="1.6"/></g></svg>