<svg version="1.1" id="Capa_1" xmlns="http://www.w3.org/2000/svg" x="0" y="0" viewBox="0 0 65 65" xml:space="preserve"><style>.st0{fill:none}.st1{fill:#4da12e}.st4{fill:none;stroke:#95a6b1;stroke-width:1.6;stroke-linecap:round;stroke-linejoin:round;stroke-miterlimit:10}</style><path class="st0" d="M0 48.26h65V65H0z"/><path class="st1" d="M45.38 61.32h-7.17c-.66 0-1.2-.54-1.2-1.2s.54-1.2 1.2-1.2h7.17c.66 0 1.2.54 1.2 1.2s-.54 1.2-1.2 1.2zm7.73 0h-.58c-.66 0-1.2-.54-1.2-1.2s.54-1.2 1.2-1.2h.58c.66 0 1.2.54 1.2 1.2s-.54 1.2-1.2 1.2zm-34.12 0h-7.1c-.66 0-1.2-.54-1.2-1.2s.54-1.2 1.2-1.2h7.1c.66 0 1.2.54 1.2 1.2s-.53 1.2-1.2 1.2z"/><path d="M31.05 61.32H18.53c-.66 0-1.2-.54-1.2-1.2s.54-1.2 1.2-1.2h12.52c.66 0 1.2.54 1.2 1.2s-.54 1.2-1.2 1.2zm4.42-6.11H11.89c-.66 0-1.2-.54-1.2-1.2s.54-1.2 1.2-1.2h23.58c.66 0 1.2.54 1.2 1.2s-.53 1.2-1.2 1.2z" fill="#96d200"/><path class="st1" d="M53.11 55.21H34.75c-.66 0-1.2-.54-1.2-1.2s.54-1.2 1.2-1.2h18.36c.66 0 1.2.54 1.2 1.2s-.54 1.2-1.2 1.2zm-40.79 0h-.43c-.66 0-1.2-.54-1.2-1.2s.54-1.2 1.2-1.2h.43c.66 0 1.2.54 1.2 1.2s-.54 1.2-1.2 1.2z"/><path id="Rectángulo_3799-2_1_" class="st0" d="M0 0h65v65H0z"/><path class="st4" d="M21.54 36.06c2.72 5.19 7.11 10.28 10.95 10.28 6.66 0 13.48-13.27 13.48-19.93s-6.82-12.05-13.48-12.05c-5.75 0-11.62 4.02-13.12 9.4"/><path class="st4" d="M28.35 15.03c-.45-1.18-.71-2.38-.71-3.29 0-2.68 2.17-4.84 4.84-4.84s4.84 2.16 4.84 4.84c0 .91-.26 2.11-.71 3.29m-.32 8.73h-7.61l-3.8 6.59 3.8 6.59h7.61l3.8-6.59zm0 0l3.47-7.29M28.68 36.94l-2.66 5.6m2.66-18.78l-3.47-7.29M38.97 42.6l-2.69-5.66m3.81-6.59h5.3m-3.51-12.32c1.32-1.13 3.14-1.83 5.16-1.83 3.99 0 7.23 2.73 7.23 6.11m-.01 0h-9.18m-34.35 0c0-3.38 3.25-6.11 7.24-6.11 2.01 0 3.82.69 5.14 1.81m-3.22 4.3h-9.16m31.53 15.67c.9.28 1.78.77 2.57 1.44 2.72 2.32 3.34 6.06 1.38 8.35m0 0l-6.72-5.74M18.6 47.77c-1.96-2.29-1.34-6.03 1.37-8.35.81-.69 1.72-1.18 2.64-1.46m2.81 3.99l-6.82 5.82"/><path id="Trazado_11848_3_" d="M22.79 30.12c0 2.31-1.87 4.18-4.18 4.18-2.31 0-4.18-1.87-4.18-4.18s1.87-4.18 4.18-4.18h0c2.3-.01 4.17 1.85 4.18 4.15v.03z" fill="none" stroke="#19a500" stroke-width="1.6" stroke-linecap="round" stroke-linejoin="round" stroke-miterlimit="10"/></svg>