<svg version="1.1" id="Capa_1" xmlns="http://www.w3.org/2000/svg" x="0" y="0" viewBox="0 0 65 65" xml:space="preserve"><style>.st0{fill:none}.st1{fill:#4da12e}.st6,.st7{fill:none;stroke:#96a4ae;stroke-width:1.6;stroke-linecap:round;stroke-linejoin:round}.st7{stroke:#97a5af}</style><path id="Rectángulo_3799-2_3_" class="st0" d="M0 0h65v65H0z"/><path class="st0" d="M0 48.26h65V65H0z"/><path class="st1" d="M45.38 61.32h-7.17c-.66 0-1.2-.54-1.2-1.2s.54-1.2 1.2-1.2h7.17c.66 0 1.2.54 1.2 1.2s-.54 1.2-1.2 1.2zm7.73 0h-.58c-.66 0-1.2-.54-1.2-1.2s.54-1.2 1.2-1.2h.58c.66 0 1.2.54 1.2 1.2s-.54 1.2-1.2 1.2zm-34.12 0h-7.1c-.66 0-1.2-.54-1.2-1.2s.54-1.2 1.2-1.2h7.1c.66 0 1.2.54 1.2 1.2s-.54 1.2-1.2 1.2z"/><path d="M31.05 61.32H18.53c-.66 0-1.2-.54-1.2-1.2s.54-1.2 1.2-1.2h12.52c.66 0 1.2.54 1.2 1.2s-.54 1.2-1.2 1.2zm4.42-6.11H11.89c-.66 0-1.2-.54-1.2-1.2s.54-1.2 1.2-1.2h23.58c.66 0 1.2.54 1.2 1.2s-.53 1.2-1.2 1.2z" fill="#96d200"/><path class="st1" d="M53.11 55.21H34.75c-.66 0-1.2-.54-1.2-1.2s.54-1.2 1.2-1.2h18.36c.66 0 1.2.54 1.2 1.2s-.54 1.2-1.2 1.2zm-40.79 0h-.43c-.66 0-1.2-.54-1.2-1.2s.54-1.2 1.2-1.2h.43c.66 0 1.2.54 1.2 1.2s-.54 1.2-1.2 1.2z"/><g id="Group_297_2_" transform="translate(2471.883 192.836)"><path id="Path_356_2_" d="M-2455.49-165.4c0 2.29-1.86 4.15-4.15 4.15s-4.15-1.86-4.15-4.15 1.86-4.15 4.15-4.15a4.14 4.14 0 014.15 4.12v.03z" fill="none" stroke="#4ca830" stroke-width="1.6" stroke-linecap="round" stroke-linejoin="round"/></g><path id="Línea_1013" class="st6" d="M21.01 17.25v3.67"/><path id="Línea_1014" class="st6" d="M26.39 17.25v3.67"/><path class="st6" d="M26.38 20.92l7.2 3.25c1.41.63 2.39 2.31 2.71 3.78v7.13m-25.28-.87v6.72h20.83"/><path id="Línea_1015" class="st6" d="M21.01 20.93l-3.32 1.54"/><path id="Trazado_5701" class="st6" d="M28.74 12.96a5.06 5.06 0 11-10.12 0"/><path id="Trazado_5702" class="st6" d="M18.61 12.96v-3.5a5.06 5.06 0 1110.12 0v3.5"/><path class="st6" d="M14.8 8.98h18.34M20.62 21.11s3.22 2.3 6.19 0"/><path id="Trazado_6132" class="st7" d="M31.43 4.84c-.11 1.64-1.77 2.86-1.77 2.86s-1.47-1.44-1.36-3.08 1.77-2.86 1.77-2.86 1.47 1.45 1.36 3.08z"/><path id="Trazado_6132_1_" class="st7" d="M33.7 8.94c-1.61.3-3.21-1-3.21-1s1.02-1.79 2.63-2.09c1.61-.3 3.21 1 3.21 1s-1.02 1.78-2.63 2.09z"/><path class="st7" d="M18.62 22.04l9.67 10.64 5.92-8.14m-6.07 16.39v-8.25"/><circle class="st7" cx="43.7" cy="35.08" r="4.53"/><path class="st7" d="M30.49 35.08c0 7.3 5.91 13.21 13.21 13.21s13.21-5.91 13.21-13.21"/><path class="st7" d="M33.36 35.08c0 5.74 4.65 10.39 10.39 10.39s10.39-4.65 10.39-10.39m-14.97 0h-8.68m26.42 0h-8.68"/></svg>