<svg xmlns="http://www.w3.org/2000/svg" width="60" height="60"><g data-name="Grupo 12967"><g data-name="Capa 2"><g data-name="Grupo 12968"><g data-name="Grupo 12967"><rect data-name="Rectángulo 3799" width="60" height="60" rx="30" fill="#19a500"/></g></g></g><g data-name="Capa 1"><g data-name="Grupo 12970"><g data-name="Grupo 12969"><path data-name="Rectángulo 3799" fill="none" d="M0 0h60v60H0z"/></g></g><g data-name="Grupo 12974"><g data-name="Grupo 12971" fill="none" stroke="#fff" stroke-linecap="round" stroke-linejoin="round" stroke-width="1.069" transform="translate(81.554)"><path data-name="Trazado 11438" d="M-59.817 14.609s-9.6-3.143-10.86-3.3c0 0 2.514 11.786 18.071 19.014 2.538 1.179-2.043 5.186-3.3 11.943s-9.585 10.057-9.585 10.057h9.791a17.446 17.446 0 002.985-9.761"/><path data-name="Trazado 11439" d="M-40.779 25.188s-.107-4.477-5.223-7.462S-60.711 4.3-60.711 4.3s-.062 11.278 3.517 16.521a70.915 70.915 0 006.994 8.673"/><path data-name="Trazado 11440" d="M-41.312 30.943c.639-1.7.959-3.2 2.451-3.3a5.256 5.256 0 012.026.107"/><path data-name="Trazado 11441" d="M-55.906 42.266a12.1 12.1 0 006.645-1.379"/><path data-name="Trazado 11442" d="M-33.851 29.032v6.5a6.006 6.006 0 005.283-4.632c.568-3.714-.624-7-3.866-8.84"/><circle data-name="Elipse 1979" cx="3.639" cy="3.639" r="3.639" transform="translate(-37.752 21.677)"/><path data-name="Trazado 11443" d="M-41.414 22.758a16.9 16.9 0 017.3-1.081"/><path data-name="Línea 2185" d="M-65.443 20.798h4.869"/><path data-name="Línea 2186" d="M-53.69 24.944h4.869"/><path data-name="Línea 2187" d="M-58.705 17.256h4.869"/></g><g data-name="Grupo 12973"><g data-name="Grupo 12972"><circle data-name="Elipse 1980" cx="3.857" cy="3.857" r="3.857" transform="translate(33.171 32.983)" fill="none" stroke="#efef00" stroke-miterlimit="10" stroke-width="1.2"/></g></g></g></g></g></svg>