<svg version="1.1" id="Capa_1" xmlns="http://www.w3.org/2000/svg" x="0" y="0" viewBox="0 0 65 65" xml:space="preserve"><style>.st0{fill:none}.st1{fill:#4da12e}</style><path id="Rectángulo_3799-2_2_" class="st0" d="M0 0h65v65H0z"/><path class="st0" d="M0 48.26h65V65H0z"/><path class="st1" d="M45.38 61.32h-7.17c-.66 0-1.2-.54-1.2-1.2s.54-1.2 1.2-1.2h7.17c.66 0 1.2.54 1.2 1.2s-.54 1.2-1.2 1.2zm7.73 0h-.58c-.66 0-1.2-.54-1.2-1.2s.54-1.2 1.2-1.2h.58c.66 0 1.2.54 1.2 1.2s-.54 1.2-1.2 1.2zm-34.12 0h-7.1c-.66 0-1.2-.54-1.2-1.2s.54-1.2 1.2-1.2h7.1c.66 0 1.2.54 1.2 1.2s-.54 1.2-1.2 1.2z"/><path d="M31.05 61.32H18.53c-.66 0-1.2-.54-1.2-1.2s.54-1.2 1.2-1.2h12.52c.66 0 1.2.54 1.2 1.2s-.54 1.2-1.2 1.2zm4.42-6.11H11.89c-.66 0-1.2-.54-1.2-1.2s.54-1.2 1.2-1.2h23.58c.66 0 1.2.54 1.2 1.2s-.53 1.2-1.2 1.2z" fill="#96d200"/><path class="st1" d="M53.11 55.21H34.75c-.66 0-1.2-.54-1.2-1.2s.54-1.2 1.2-1.2h18.36c.66 0 1.2.54 1.2 1.2s-.54 1.2-1.2 1.2zm-40.79 0h-.43c-.66 0-1.2-.54-1.2-1.2s.54-1.2 1.2-1.2h.43c.66 0 1.2.54 1.2 1.2s-.54 1.2-1.2 1.2z"/><g fill="none" stroke-width="1.6" stroke-linecap="round" stroke-linejoin="round" stroke-miterlimit="10"><path id="Trazado_11848_7_" d="M46.13 36.4c0 2.31-1.87 4.18-4.18 4.18-2.31 0-4.18-1.87-4.18-4.18 0-2.31 1.87-4.18 4.18-4.18h0c2.3-.01 4.17 1.85 4.18 4.15v.03z" stroke="#19a500"/><path d="M47.69 33.39l2.18-2.79c.39-.5.32-1.22-.15-1.64l-3.41-3.01c-.5-.44-1.23-.52-1.82-.19l-1.19.66c-.6.33-1.34.19-1.78-.32l-2.3-2.72c-.17-.2-.3-.43-.39-.68l-1.18-3.51c-.25-.73.2-1.51.96-1.66l1.28-.25c.78-.15 1.19-1 .82-1.7l-1.93-3.65-4.35-1.76-2.91-3.82c-.38-.5-.99-.77-1.62-.72l-2.47.21c-.54.04-1.03.32-1.34.76l-4.07 5.64-4.59 3.17c-.64.44-.81 1.31-.39 1.96l3.04 4.69c.11.17.19.35.25.54l.92 3.21c.12.42.08.86-.11 1.25l-6.09 12.61c-.23.48-.24 1.04-.02 1.53l2.78 6.06c.29.64.93 1.05 1.64 1.05h6.59c.43 0 .85-.1 1.24-.3 1.03-.52 3.02-1.74 3.63-3.55 0 0 1.53-3.91 2.96-3.85l2.54-.48" stroke="#95a6b1"/></g></svg>