<svg id="Capa_1" data-name="Capa 1" xmlns="http://www.w3.org/2000/svg" viewBox="0 0 65 65"><defs><style>.cls-1{fill:#95a6b1}.cls-3{fill:none}.cls-4{fill:#4da12e}</style></defs><path class="cls-1" d="M57.7 38.2H49a.9.9 0 01-.8-.8v-9.5a.9.9 0 01.8-.8h8.5a.8.8 0 010 1.6h-7.7v7.9h7.9a.8.8 0 01.8.8.9.9 0 01-.8.8z" id="Trazado_11838" data-name="Trazado 11838"/><path class="cls-1" d="M49 38.8h-3.1a.8.8 0 010-1.6h2.3v-9.1h-2.3a.9.9 0 01-.8-.8.8.8 0 01.8-.8H49a.7.7 0 01.8.8V38a.8.8 0 01-.8.8z"/><path d="M15.6 16.7a4.6 4.6 0 110-9.1 4.8 4.8 0 013.2 1.3 4.4 4.4 0 011.3 3.2 4.5 4.5 0 01-4.5 4.6zm0-7.5a3 3 0 100 5.9 2.9 2.9 0 002.9-3 3.2 3.2 0 00-.8-2.1 3.2 3.2 0 00-2.1-.8z" fill="#00a800" id="Trazado_11848" data-name="Trazado 11848"/><path class="cls-1" d="M45.9 29.1a.8.8 0 01-.8-.8V12.6H22.8a.8.8 0 01-.8-.8.7.7 0 01.8-.8h23.1a.7.7 0 01.8.8v16.5a.7.7 0 01-.8.8zm0 16.6H15.4a.8.8 0 01-.8-.8V19.5a.7.7 0 01.8-.8.8.8 0 01.8.8v24.6h28.9v-7.8a.8.8 0 01.8-.8.7.7 0 01.8.8v8.6a.8.8 0 01-.8.8z"/><path class="cls-1" d="M45.9 16.5a.9.9 0 01-.8-.8v-3.9a.8.8 0 01.8-.8.7.7 0 01.8.8v3.9a.8.8 0 01-.8.8z" id="Línea_2421" data-name="Línea 2421"/><path class="cls-1" d="M25.5 16.5a.9.9 0 01-.8-.8v-3.9a.8.8 0 01.8-.8.7.7 0 01.8.8v3.9a.8.8 0 01-.8.8z" id="Línea_2422" data-name="Línea 2422"/><path class="cls-1" d="M33 16.5a.8.8 0 01-.8-.8v-3.9a.7.7 0 01.8-.8.8.8 0 01.8.8v3.9a.9.9 0 01-.8.8z" id="Línea_2423" data-name="Línea 2423"/><path class="cls-1" d="M40.7 16.5a.9.9 0 01-.8-.8v-3.9a.8.8 0 011.6 0v3.9a.9.9 0 01-.8.8z" id="Línea_2424" data-name="Línea 2424"/><path class="cls-1" d="M49.1 16.6H22.8a.8.8 0 01-.8-.8.7.7 0 01.8-.8h26.3a.7.7 0 01.8.8.8.8 0 01-.8.8z" id="Línea_2425" data-name="Línea 2425"/><path class="cls-1" d="M45.9 27.2a6.6 6.6 0 01-3.4-.9 5.5 5.5 0 00-2.7-.7 6.2 6.2 0 00-2.7.7 6.9 6.9 0 01-6.8 0 5.5 5.5 0 00-2.7-.7 5.9 5.9 0 00-2.7.7 6.9 6.9 0 01-6.8 0 5.9 5.9 0 00-2.7-.7.7.7 0 01-.8-.8.8.8 0 01.8-.8 6.6 6.6 0 013.4.9 5.6 5.6 0 005.4 0 6.9 6.9 0 016.8 0 6.2 6.2 0 002.7.7 5.5 5.5 0 002.7-.7 6.6 6.6 0 013.4-.9 6 6 0 013.4.9 6.2 6.2 0 002.7.7.7.7 0 01.8.8.8.8 0 01-.8.8z" id="Línea_2426" data-name="Línea 2426"/><path class="cls-1" d="M54.6 33.4H42.1a.8.8 0 01-.8-.8.9.9 0 01.8-.8h12.5a.8.8 0 01.8.8.7.7 0 01-.8.8z"/><path class="cls-1" d="M52.3 36a.7.7 0 01-.6-.2.8.8 0 010-1.1l2.1-2.1-2.1-2a.8.8 0 010-1.1.9.9 0 011.2 0l2.6 2.6a.8.8 0 01.2.5.8.8 0 01-.2.6l-2.6 2.6a.7.7 0 01-.6.2z"/><path class="cls-3" d="M0 0h65v65H0z"/><path class="cls-3" d="M0 48.3h65v16.74H0z"/><path class="cls-4" d="M45.4 61.3h-7.2a1.2 1.2 0 01-1.2-1.2 1.3 1.3 0 011.2-1.2h7.2a1.3 1.3 0 011.2 1.2 1.2 1.2 0 01-1.2 1.2zm7.7 0h-.6a1.2 1.2 0 01-1.2-1.2 1.3 1.3 0 011.2-1.2h.6a1.2 1.2 0 011.2 1.2 1.2 1.2 0 01-1.2 1.2zm-34.1 0h-7.1a1.2 1.2 0 01-1.2-1.2 1.2 1.2 0 011.2-1.2H19a1.2 1.2 0 011.2 1.2 1.2 1.2 0 01-1.2 1.2z"/><path d="M31 61.3H18.5a1.2 1.2 0 01-1.2-1.2 1.3 1.3 0 011.2-1.2H31a1.2 1.2 0 011.2 1.2 1.2 1.2 0 01-1.2 1.2zm4.5-6.1H11.9a1.2 1.2 0 110-2.4h23.6a1.2 1.2 0 010 2.4z" fill="#96d200"/><path class="cls-4" d="M53.1 55.2H34.7a1.2 1.2 0 010-2.4h18.4a1.2 1.2 0 010 2.4zm-40.8 0h-.4a1.2 1.2 0 110-2.4h.4a1.2 1.2 0 010 2.4z"/></svg>