<svg id="Capa_1" data-name="Capa 1" xmlns="http://www.w3.org/2000/svg" viewBox="0 0 47 47"><defs><style>.cls-2{fill:#95a6b1}</style></defs><path fill="none" d="M0 0h47v47H0z"/><path class="cls-2" d="M23.5 40.3a16.8 16.8 0 010-33.6.8.8 0 01.8.7.9.9 0 01-.8.8 15.3 15.3 0 1015.3 15.3.8.8 0 01.8-.7.7.7 0 01.7.7 16.8 16.8 0 01-16.8 16.8z" id="Trazado_11854" data-name="Trazado 11854"/><path class="cls-2" d="M32.2 24.2h-7.1a.7.7 0 01-.7-.7.8.8 0 01.7-.8h7.1a.8.8 0 01.7.8.7.7 0 01-.7.7z" id="Línea_2434" data-name="Línea 2434"/><path class="cls-2" d="M23.5 25.9a2.4 2.4 0 01-2.4-2.4 2.3 2.3 0 01.7-1.7 2.1 2.1 0 011.7-.7 2.4 2.4 0 012.4 2.4 2.4 2.4 0 01-2.4 2.4zm0-3.3a.6.6 0 00-.6.3.7.7 0 00-.3.6.9.9 0 00.9.9.9.9 0 00.9-.9.9.9 0 00-.9-.9zm2.4.9z" id="Trazado_11855" data-name="Trazado 11855"/><path class="cls-2" d="M23.5 22.6a.9.9 0 01-.8-.8V17a.8.8 0 01.8-.7.7.7 0 01.7.7v4.8a.8.8 0 01-.7.8z" id="Línea_2435" data-name="Línea 2435"/><path d="M39.3 21.1c-.4 0-.7-.2-.7-.6a15.4 15.4 0 00-12.1-12 .9.9 0 01-.6-.9.8.8 0 01.9-.6A16.6 16.6 0 0140 20.2a.7.7 0 01-.6.9z" fill="#19a500" id="Trazado_11856" data-name="Trazado 11856"/></svg>