<svg xmlns="http://www.w3.org/2000/svg" width="118.475" height="123.77"><g data-name="Grupo 12145"><path data-name="Trazado 10379" d="M108.184 76.031c-6.143 0-6.143-6-12.286-6s-6.143 6-12.286 6-6.141-6-12.282-6-6.142 6-12.285 6-6.145-6-12.289-6-6.143 6-12.286 6-6.147-6-12.294-6-6.147 6-12.294 6" fill="none" stroke="#95a6b1" stroke-linecap="round" stroke-linejoin="round" stroke-width="4"/><path data-name="Trazado 10380" d="M108.184 87.454c-6.143 0-6.143-6-12.286-6s-6.143 6-12.286 6-6.141-6-12.282-6-6.142 6-12.285 6-6.145-6-12.289-6-6.143 6-12.286 6-6.147-6-12.294-6-6.147 6-12.294 6" fill="none" stroke="#95a6b1" stroke-linecap="round" stroke-linejoin="round" stroke-width="4"/><path data-name="Línea 1791" fill="none" stroke="#95a6b1" stroke-linecap="round" stroke-linejoin="round" stroke-width="4" d="M41.902 64.562H29.99"/><path data-name="Línea 1792" fill="none" stroke="#95a6b1" stroke-linecap="round" stroke-linejoin="round" stroke-width="4" d="M82.996 41.743h0"/><path data-name="Trazado 10381" d="M31.638 35.445v6.3h35.975" fill="none" stroke="#95a6b1" stroke-linecap="round" stroke-linejoin="round" stroke-width="4"/><path data-name="Trazado 10382" d="M38.171 19.001a7.5 7.5 0 11-9.937-3.7 7.477 7.477 0 019.937 3.7z" fill="none" stroke="#19a500" stroke-linecap="round" stroke-linejoin="round" stroke-width="4"/><path data-name="Trazado 10383" d="M82.996 41.743h6.344V22.768a2.36 2.36 0 00-2.359-2.36H45.255" fill="none" stroke="#95a6b1" stroke-linecap="round" stroke-linejoin="round" stroke-width="4"/><path data-name="Rectángulo 4277" d="M53.048 11.232h24.548a1.936 1.936 0 011.936 1.936v7.24h0-28.723 0v-6.937a2.239 2.239 0 012.239-2.239z" fill="none" stroke="#95a6b1" stroke-linecap="round" stroke-linejoin="round" stroke-width="4"/><path data-name="Línea 1793" fill="none" stroke="#95a6b1" stroke-linecap="round" stroke-linejoin="round" stroke-width="4" d="M44.553 28.36h44.872"/><path data-name="Trazado 10384" d="M67.613 41.764H24.927a2.693 2.693 0 00-2.693 2.692v24.861" fill="none" stroke="#95a6b1" stroke-linecap="round" stroke-linejoin="round" stroke-width="4"/><path data-name="Trazado 10385" d="M99.298 70.941V44.089a2.325 2.325 0 00-2.325-2.325l-13.977-.021" fill="none" stroke="#95a6b1" stroke-linecap="round" stroke-linejoin="round" stroke-width="4"/><path data-name="Línea 1794" fill="none" stroke="#95a6b1" stroke-linecap="round" stroke-linejoin="round" stroke-width="4" d="M49.626 49.019l-27.39.007"/><path data-name="Línea 1795" fill="#fff" stroke="#95a6b1" stroke-linecap="round" stroke-linejoin="round" stroke-width="4" d="M41.911 48.998v22.67"/><path data-name="Línea 1796" fill="none" stroke="#95a6b1" stroke-linecap="round" stroke-linejoin="round" stroke-width="4" d="M41.902 56.094H29.99"/><path data-name="Línea 1797" fill="none" stroke="#95a6b1" stroke-linecap="round" stroke-linejoin="round" stroke-width="4" d="M29.951 48.998v25.037"/><path data-name="Línea 1798" fill="none" stroke="#95a6b1" stroke-linecap="round" stroke-linejoin="round" stroke-width="4" d="M49.626 41.743v28.128"/><path data-name="Trazado 10386" d="M67.613 41.805L67.57 53.55h15.4V41.784" fill="none" stroke="#95a6b1" stroke-linecap="round" stroke-linejoin="round" stroke-width="4"/><path data-name="Línea 1799" fill="none" stroke="#95a6b1" stroke-linecap="round" stroke-linejoin="round" stroke-width="4" d="M58.124 11.232v9.176"/><path data-name="Línea 1800" fill="none" stroke="#95a6b1" stroke-linecap="round" stroke-linejoin="round" stroke-width="4" d="M65.17 11.232v9.176"/><path data-name="Línea 1801" fill="none" stroke="#95a6b1" stroke-linecap="round" stroke-linejoin="round" stroke-width="4" d="M72.464 11.232v9.176"/><path data-name="Línea 1802" fill="none" stroke="#95a6b1" stroke-linecap="round" stroke-linejoin="round" stroke-width="4" d="M91.147 41.783v12.545"/><path data-name="Línea 1803" fill="none" stroke="#95a6b1" stroke-linecap="round" stroke-linejoin="round" stroke-width="4" d="M58.598 41.783v12.545"/><g data-name="Grupo 12144" fill="none" stroke-linecap="round" stroke-linejoin="round" stroke-width="4"><g data-name="Grupo 12142"><path data-name="Línea 1804" stroke="#19a500" style="mix-blend-mode:multiply;isolation:isolate" d="M46.995 115.459H28.789"/><path data-name="Línea 1805" stroke="#a1d005" style="mix-blend-mode:multiply;isolation:isolate" d="M57.701 115.459H39.495"/><path data-name="Línea 1806" stroke="#a1d005" style="mix-blend-mode:multiply;isolation:isolate" d="M79.634 115.459h-9.103"/><path data-name="Línea 1807" stroke="#a1d005" style="mix-blend-mode:multiply;isolation:isolate" d="M92.433 115.459h0"/></g><g data-name="Grupo 12143"><path data-name="Línea 1808" stroke="#a1d005" style="mix-blend-mode:multiply;isolation:isolate" d="M74.175 103.233H28.789"/><path data-name="Línea 1809" stroke="#149352" style="mix-blend-mode:multiply;isolation:isolate" d="M28.789 103.233h0"/><path data-name="Línea 1810" stroke="#19a500" style="mix-blend-mode:multiply;isolation:isolate" d="M92.433 103.233H66.675"/></g></g><path data-name="Rectángulo 4278" fill="none" d="M0-.001h118.475v123.769H0z"/></g></svg>