<svg xmlns="http://www.w3.org/2000/svg" width="195.552" height="124.34"><g data-name="Grupo 12141" fill="none"><path data-name="Rectángulo 4256" d="M21.896 0h39.815v57.845H21.896z"/><path data-name="Rectángulo 4257" d="M75.199 0h39.815v57.845H75.199z"/><g data-name="Grupo 12110" stroke-linecap="round" stroke-linejoin="round"><g data-name="Grupo 12108" stroke-width="2"><g data-name="Grupo 12106"><path data-name="Línea 1728" stroke="#19a500" style="mix-blend-mode:multiply;isolation:isolate" d="M34.633 53.614H25.53"/><path data-name="Línea 1729" stroke="#a1d005" style="mix-blend-mode:multiply;isolation:isolate" d="M39.986 53.614h-9.103"/><path data-name="Línea 1730" stroke="#a1d005" style="mix-blend-mode:multiply;isolation:isolate" d="M50.953 53.614h-4.552"/><path data-name="Línea 1731" stroke="#a1d005" style="mix-blend-mode:multiply;isolation:isolate" d="M57.352 53.614h0"/></g><g data-name="Grupo 12107"><path data-name="Línea 1732" stroke="#a1d005" style="mix-blend-mode:multiply;isolation:isolate" d="M48.223 47.501H25.53"/><path data-name="Línea 1733" stroke="#149352" style="mix-blend-mode:multiply;isolation:isolate" d="M25.53 47.501h0"/><path data-name="Línea 1734" stroke="#19a500" style="mix-blend-mode:multiply;isolation:isolate" d="M57.352 47.501H44.473"/></g></g><g data-name="Grupo 12109" stroke-width="1.968" transform="translate(385.099 -933.325)"><path data-name="Trazado 10356" d="M-352.1 943.5a3.67 3.67 0 01.147 2.691 3.679 3.679 0 01-1.968 2.2 3.689 3.689 0 01-4.888-1.821 3.688 3.688 0 011.821-4.888 3.688 3.688 0 014.888 1.818z" stroke="#19a500"/><rect data-name="Rectángulo 4258" width="6.912" height="3.508" rx=".547" transform="translate(-347.329 939.587)" stroke="#95a6b1"/><path data-name="Trazado 10358" d="M-352.962 951.438v1.489h-.918a1.134 1.134 0 00-1.134 1.134v.54a1.134 1.134 0 001.134 1.134h.918v5.454h-.918a1.134 1.134 0 00-1.134 1.134v.54A1.134 1.134 0 00-353.88 964h.918v7.02h19.332V964h.918a1.134 1.134 0 001.134-1.134v-.54a1.134 1.134 0 00-1.134-1.134h-.918v-5.454h.918a1.134 1.134 0 001.134-1.134v-.54a1.134 1.134 0 00-1.134-1.134h-.918v-6.48h-14.222" stroke="#95a6b1"/><path data-name="Línea 1735" stroke="#95a6b1" d="M-349.22 954.022h11.848"/><path data-name="Línea 1736" stroke="#95a6b1" d="M-349.22 962.248h11.848"/><rect data-name="Rectángulo 4259" width="23.436" height="3.352" rx=".83" transform="translate(-355.014 971.017)" stroke="#95a6b1"/><path data-name="Trazado 10359" d="M-348.855 943.095h16.448a.829.829 0 01.829.83v1.692a.83.83 0 01-.829.83h-16.181" stroke="#95a6b1"/></g></g><g data-name="Grupo 12115" stroke-linecap="round" stroke-linejoin="round"><g data-name="Grupo 12113" stroke-width="2"><g data-name="Grupo 12111"><path data-name="Línea 1737" stroke="#19a500" style="mix-blend-mode:multiply;isolation:isolate" d="M87.936 53.614h-9.103"/><path data-name="Línea 1738" stroke="#a1d005" style="mix-blend-mode:multiply;isolation:isolate" d="M93.289 53.614h-9.103"/><path data-name="Línea 1739" stroke="#a1d005" style="mix-blend-mode:multiply;isolation:isolate" d="M104.256 53.614h-4.552"/><path data-name="Línea 1740" stroke="#a1d005" style="mix-blend-mode:multiply;isolation:isolate" d="M110.655 53.614h0"/></g><g data-name="Grupo 12112"><path data-name="Línea 1741" stroke="#a1d005" style="mix-blend-mode:multiply;isolation:isolate" d="M101.526 47.501H78.833"/><path data-name="Línea 1742" stroke="#149352" style="mix-blend-mode:multiply;isolation:isolate" d="M78.833 47.501h0"/><path data-name="Línea 1743" stroke="#19a500" style="mix-blend-mode:multiply;isolation:isolate" d="M110.655 47.501H97.776"/></g></g><g data-name="Grupo 12114" stroke="#95a6b1" stroke-width="1.968" transform="translate(385.099 -933.325)"><rect data-name="Rectángulo 4260" width="6.912" height="3.508" rx=".547" transform="translate(-294.026 939.587)"/><path data-name="Trazado 10361" d="M-299.659 946.447v6.48h-.918a1.134 1.134 0 00-1.134 1.134v.54a1.134 1.134 0 001.134 1.134h.918v5.454h-.918a1.134 1.134 0 00-1.134 1.134v.54a1.134 1.134 0 001.134 1.137h.918v7.02h19.332V964h.918a1.134 1.134 0 001.134-1.134v-.54a1.134 1.134 0 00-1.134-1.134h-.918v-5.454h.918a1.134 1.134 0 001.134-1.134v-.54a1.134 1.134 0 00-1.134-1.134h-.918v-6.48h-14.222"/><path data-name="Línea 1744" d="M-295.917 954.022h11.848"/><path data-name="Línea 1745" d="M-295.917 962.248h11.848"/><rect data-name="Rectángulo 4261" width="23.436" height="3.352" rx=".83" transform="translate(-301.711 971.017)"/><path data-name="Trazado 10362" d="M-301.225 943.095h22.125a.829.829 0 01.829.83v1.692a.83.83 0 01-.829.83h-22.121a1.049 1.049 0 01-1.049-1.049v-1.254a1.049 1.049 0 011.045-1.049z"/></g></g><path data-name="Rectángulo 4262" d="M125.381 0h39.815v57.845h-39.815z"/><g data-name="Grupo 12120" stroke-linecap="round" stroke-linejoin="round"><g data-name="Grupo 12118" stroke-width="2"><g data-name="Grupo 12116"><path data-name="Línea 1746" stroke="#19a500" style="mix-blend-mode:multiply;isolation:isolate" d="M138.119 53.614h-9.103"/><path data-name="Línea 1747" stroke="#a1d005" style="mix-blend-mode:multiply;isolation:isolate" d="M143.472 53.614h-9.103"/><path data-name="Línea 1748" stroke="#a1d005" style="mix-blend-mode:multiply;isolation:isolate" d="M154.439 53.614h-4.552"/><path data-name="Línea 1749" stroke="#a1d005" style="mix-blend-mode:multiply;isolation:isolate" d="M160.838 53.614h0"/></g><g data-name="Grupo 12117"><path data-name="Línea 1750" stroke="#a1d005" style="mix-blend-mode:multiply;isolation:isolate" d="M151.709 47.501h-22.693"/><path data-name="Línea 1751" stroke="#149352" style="mix-blend-mode:multiply;isolation:isolate" d="M129.016 47.501h0"/><path data-name="Línea 1752" stroke="#19a500" style="mix-blend-mode:multiply;isolation:isolate" d="M160.838 47.501h-12.879"/></g></g><g data-name="Grupo 12119" stroke="#95a6b1" stroke-width="1.968" transform="translate(385.099 -933.325)"><rect data-name="Rectángulo 4263" width="6.912" height="3.508" rx=".547" transform="translate(-243.844 939.587)"/><path data-name="Trazado 10364" d="M-249.476 946.447v6.48h-.918a1.134 1.134 0 00-1.134 1.134v.54a1.134 1.134 0 001.134 1.134h.918v5.454h-.918a1.134 1.134 0 00-1.134 1.134v.54a1.134 1.134 0 001.134 1.137h.918v7.02h19.332V964h.918a1.134 1.134 0 001.134-1.134v-.54a1.134 1.134 0 00-1.134-1.134h-.918v-5.454h.918a1.134 1.134 0 001.134-1.134v-.54a1.134 1.134 0 00-1.134-1.134h-.918v-6.48h-14.223"/><path data-name="Línea 1753" d="M-245.734 954.022h11.848"/><path data-name="Línea 1754" d="M-245.734 962.248h11.848"/><rect data-name="Rectángulo 4264" width="23.436" height="3.352" rx=".83" transform="translate(-251.528 971.017)"/><path data-name="Trazado 10365" d="M-251.042 943.095h22.12a.83.83 0 01.83.83v1.692a.831.831 0 01-.83.83h-22.12a1.049 1.049 0 01-1.049-1.049v-1.254a1.048 1.048 0 011.049-1.049z"/></g></g><path data-name="Rectángulo 4265" d="M0 66.496h39.815v57.845H0z"/><path data-name="Rectángulo 4266" d="M53.303 66.496h39.815v57.845H53.303z"/><g data-name="Grupo 12125" stroke-linecap="round" stroke-linejoin="round"><g data-name="Grupo 12123" stroke-width="2"><g data-name="Grupo 12121"><path data-name="Línea 1755" stroke="#19a500" style="mix-blend-mode:multiply;isolation:isolate" d="M12.738 120.109H3.635"/><path data-name="Línea 1756" stroke="#a1d005" style="mix-blend-mode:multiply;isolation:isolate" d="M18.091 120.109H8.988"/><path data-name="Línea 1757" stroke="#a1d005" style="mix-blend-mode:multiply;isolation:isolate" d="M29.058 120.109h-4.552"/><path data-name="Línea 1758" stroke="#a1d005" style="mix-blend-mode:multiply;isolation:isolate" d="M35.457 120.109h0"/></g><g data-name="Grupo 12122"><path data-name="Línea 1759" stroke="#a1d005" style="mix-blend-mode:multiply;isolation:isolate" d="M26.328 113.996H3.635"/><path data-name="Línea 1760" stroke="#149352" style="mix-blend-mode:multiply;isolation:isolate" d="M3.635 113.996h0"/><path data-name="Línea 1761" stroke="#19a500" style="mix-blend-mode:multiply;isolation:isolate" d="M35.457 113.996H22.578"/></g></g><g data-name="Grupo 12124" stroke-width="1.968" transform="translate(385.099 -933.325)"><path data-name="Trazado 10366" d="M-373.991 1009.992a3.677 3.677 0 01.148 2.692 3.678 3.678 0 01-1.969 2.2 3.688 3.688 0 01-4.888-1.821 3.689 3.689 0 011.821-4.888 3.688 3.688 0 014.888 1.817z" stroke="#19a500"/><rect data-name="Rectángulo 4267" width="6.912" height="3.508" rx=".547" transform="translate(-369.225 1006.082)" stroke="#95a6b1"/><path data-name="Trazado 10368" d="M-374.857 1017.933v1.489h-.918a1.134 1.134 0 00-1.134 1.134v.54a1.133 1.133 0 001.134 1.134h.918v5.454h-.918a1.134 1.134 0 00-1.134 1.134v.54a1.133 1.133 0 001.134 1.134h.918v7.02h19.332v-7.02h.918a1.134 1.134 0 001.134-1.134v-.54a1.134 1.134 0 00-1.134-1.134h-.918v-5.454h.918a1.134 1.134 0 001.134-1.134v-.54a1.134 1.134 0 00-1.134-1.134h-.918v-6.48h-14.223" stroke="#95a6b1"/><path data-name="Línea 1762" stroke="#95a6b1" d="M-371.115 1020.517h11.848"/><path data-name="Línea 1763" stroke="#95a6b1" d="M-371.115 1028.743h11.848"/><rect data-name="Rectángulo 4268" width="23.436" height="3.352" rx=".83" transform="translate(-376.909 1037.512)" stroke="#95a6b1"/><path data-name="Trazado 10369" d="M-370.751 1009.59h16.451a.83.83 0 01.83.83v1.692a.83.83 0 01-.83.83h-16.181" stroke="#95a6b1"/></g></g><g data-name="Grupo 12130" stroke-linecap="round" stroke-linejoin="round"><g data-name="Grupo 12128" stroke-width="2"><g data-name="Grupo 12126"><path data-name="Línea 1764" stroke="#19a500" style="mix-blend-mode:multiply;isolation:isolate" d="M63.971 120.109h-9.103"/><path data-name="Línea 1765" stroke="#a1d005" style="mix-blend-mode:multiply;isolation:isolate" d="M69.324 120.109h-9.103"/><path data-name="Línea 1766" stroke="#a1d005" style="mix-blend-mode:multiply;isolation:isolate" d="M80.291 120.109h-4.552"/><path data-name="Línea 1767" stroke="#a1d005" style="mix-blend-mode:multiply;isolation:isolate" d="M86.69 120.109h0"/></g><g data-name="Grupo 12127"><path data-name="Línea 1768" stroke="#a1d005" style="mix-blend-mode:multiply;isolation:isolate" d="M77.561 113.996H54.868"/><path data-name="Línea 1769" stroke="#149352" style="mix-blend-mode:multiply;isolation:isolate" d="M54.868 113.996h0"/><path data-name="Línea 1770" stroke="#19a500" style="mix-blend-mode:multiply;isolation:isolate" d="M86.69 113.996H73.811"/></g></g><g data-name="Grupo 12129" stroke="#95a6b1" stroke-width="1.968" transform="translate(383.029 -933.325)"><rect data-name="Rectángulo 4269" width="6.912" height="3.508" rx=".547" transform="translate(-315.922 1006.082)"/><path data-name="Trazado 10371" d="M-321.554 1012.942v6.48h-.918a1.134 1.134 0 00-1.134 1.134v.54a1.133 1.133 0 001.134 1.134h.918v5.454h-.918a1.134 1.134 0 00-1.134 1.134v.54a1.133 1.133 0 001.134 1.134h.918v7.02h19.332v-7.02h.918a1.134 1.134 0 001.134-1.134v-.54a1.134 1.134 0 00-1.134-1.134h-.918v-5.454h.918a1.134 1.134 0 001.134-1.134v-.54a1.134 1.134 0 00-1.134-1.134h-.918v-6.48h-14.223"/><path data-name="Línea 1771" d="M-317.812 1020.517h11.848"/><path data-name="Línea 1772" d="M-317.812 1028.743h11.848"/><rect data-name="Rectángulo 4270" width="23.436" height="3.352" rx=".83" transform="translate(-323.606 1037.512)"/><path data-name="Trazado 10372" d="M-323.121 1009.59H-301a.83.83 0 01.83.83v1.692a.83.83 0 01-.83.83h-22.121a1.048 1.048 0 01-1.048-1.049v-1.254a1.049 1.049 0 011.048-1.049z"/></g></g><path data-name="Rectángulo 4271" d="M155.738 66.496h39.815v57.845h-39.815z"/><g data-name="Grupo 12135" stroke-linecap="round" stroke-linejoin="round"><g data-name="Grupo 12133" stroke-width="2"><g data-name="Grupo 12131"><path data-name="Línea 1773" stroke="#19a500" style="mix-blend-mode:multiply;isolation:isolate" d="M168.475 120.109h-9.103"/><path data-name="Línea 1774" stroke="#a1d005" style="mix-blend-mode:multiply;isolation:isolate" d="M173.828 120.109h-9.103"/><path data-name="Línea 1775" stroke="#a1d005" style="mix-blend-mode:multiply;isolation:isolate" d="M184.795 120.109h-4.552"/><path data-name="Línea 1776" stroke="#a1d005" style="mix-blend-mode:multiply;isolation:isolate" d="M191.194 120.109h0"/></g><g data-name="Grupo 12132"><path data-name="Línea 1777" stroke="#a1d005" style="mix-blend-mode:multiply;isolation:isolate" d="M182.065 113.996h-22.693"/><path data-name="Línea 1778" stroke="#149352" style="mix-blend-mode:multiply;isolation:isolate" d="M159.372 113.996h0"/><path data-name="Línea 1779" stroke="#19a500" style="mix-blend-mode:multiply;isolation:isolate" d="M191.194 113.996h-12.879"/></g></g><g data-name="Grupo 12134" stroke="#95a6b1" stroke-width="1.968" transform="translate(385.099 -933.325)"><rect data-name="Rectángulo 4272" width="6.912" height="3.508" rx=".547" transform="translate(-213.488 1006.082)"/><path data-name="Trazado 10374" d="M-219.12 1012.942v6.48h-.918a1.134 1.134 0 00-1.134 1.134v.54a1.134 1.134 0 001.134 1.134h.918v5.454h-.918a1.134 1.134 0 00-1.134 1.134v.54a1.134 1.134 0 001.134 1.134h.918v7.02h19.332v-7.02h.918a1.134 1.134 0 001.134-1.134v-.54a1.134 1.134 0 00-1.134-1.134h-.918v-5.454h.918a1.134 1.134 0 001.134-1.134v-.54a1.134 1.134 0 00-1.134-1.134h-.918v-6.48h-14.222"/><path data-name="Línea 1780" d="M-215.378 1020.517h11.848"/><path data-name="Línea 1781" d="M-215.378 1028.743h11.848"/><rect data-name="Rectángulo 4273" width="23.436" height="3.352" rx=".83" transform="translate(-221.172 1037.512)"/><path data-name="Trazado 10375" d="M-220.686 1009.59h22.12a.83.83 0 01.83.83v1.692a.83.83 0 01-.83.83h-22.12a1.048 1.048 0 01-1.049-1.049v-1.254a1.049 1.049 0 011.049-1.049z"/></g></g><path data-name="Rectángulo 4274" d="M103.486 66.496h39.815v57.845h-39.815z"/><g data-name="Grupo 12140" stroke-linecap="round" stroke-linejoin="round"><g data-name="Grupo 12138" stroke-width="2"><g data-name="Grupo 12136"><path data-name="Línea 1782" stroke="#19a500" style="mix-blend-mode:multiply;isolation:isolate" d="M116.223 120.109h-9.103"/><path data-name="Línea 1783" stroke="#a1d005" style="mix-blend-mode:multiply;isolation:isolate" d="M121.576 120.109h-9.103"/><path data-name="Línea 1784" stroke="#a1d005" style="mix-blend-mode:multiply;isolation:isolate" d="M132.543 120.109h-4.552"/><path data-name="Línea 1785" stroke="#a1d005" style="mix-blend-mode:multiply;isolation:isolate" d="M138.942 120.109h0"/></g><g data-name="Grupo 12137"><path data-name="Línea 1786" stroke="#a1d005" style="mix-blend-mode:multiply;isolation:isolate" d="M129.813 113.996H107.12"/><path data-name="Línea 1787" stroke="#149352" style="mix-blend-mode:multiply;isolation:isolate" d="M107.12 113.996h0"/><path data-name="Línea 1788" stroke="#19a500" style="mix-blend-mode:multiply;isolation:isolate" d="M138.942 113.996h-12.879"/></g></g><g data-name="Grupo 12139" stroke="#95a6b1" stroke-width="1.968" transform="translate(385.099 -933.325)"><rect data-name="Rectángulo 4275" width="6.912" height="3.508" rx=".547" transform="translate(-265.739 1006.082)"/><path data-name="Trazado 10377" d="M-271.372 1012.942v6.48h-.918a1.134 1.134 0 00-1.134 1.134v.54a1.134 1.134 0 001.134 1.134h.918v5.454h-.918a1.134 1.134 0 00-1.134 1.134v.54a1.134 1.134 0 001.134 1.134h.918v7.02h19.332v-7.02h.918a1.133 1.133 0 001.134-1.134v-.54a1.134 1.134 0 00-1.134-1.134h-.918v-5.454h.918a1.133 1.133 0 001.134-1.134v-.54a1.134 1.134 0 00-1.134-1.134h-.918v-6.48h-14.222"/><path data-name="Línea 1789" d="M-267.63 1020.517h11.848"/><path data-name="Línea 1790" d="M-267.63 1028.743h11.848"/><rect data-name="Rectángulo 4276" width="23.436" height="3.352" rx=".83" transform="translate(-273.424 1037.512)"/><path data-name="Trazado 10378" d="M-272.938 1009.59h22.12a.83.83 0 01.83.83v1.692a.829.829 0 01-.83.83h-22.12a1.049 1.049 0 01-1.049-1.049v-1.254a1.049 1.049 0 011.049-1.049z"/></g></g></g></svg>