<svg xmlns="http://www.w3.org/2000/svg" viewBox="0 0 121.3 65"><style>.st2{fill:none}.st3{fill:#4c9f2e}.st8{fill:none;stroke:#95a6b1;stroke-width:1.8;stroke-linecap:round;stroke-linejoin:round}</style><g id="Capa_1"><path class="st2" d="M28.15 48.26h65V65h-65z"/><path class="st3" d="M73.53 61.32h-7.17c-.66 0-1.2-.54-1.2-1.2s.54-1.2 1.2-1.2h7.17c.66 0 1.2.54 1.2 1.2s-.54 1.2-1.2 1.2zm7.73 0h-.58c-.66 0-1.2-.54-1.2-1.2s.54-1.2 1.2-1.2h.58c.66 0 1.2.54 1.2 1.2s-.54 1.2-1.2 1.2zm-34.12 0h-7.1c-.66 0-1.2-.54-1.2-1.2s.54-1.2 1.2-1.2h7.1c.66 0 1.2.54 1.2 1.2s-.54 1.2-1.2 1.2z"/><path d="M59.2 61.32H46.68c-.66 0-1.2-.54-1.2-1.2s.54-1.2 1.2-1.2H59.2c.66 0 1.2.54 1.2 1.2s-.54 1.2-1.2 1.2zm4.42-6.11H40.04c-.66 0-1.2-.54-1.2-1.2s.54-1.2 1.2-1.2h23.58c.66 0 1.2.54 1.2 1.2s-.53 1.2-1.2 1.2z" fill="#94d040"/><path class="st3" d="M81.26 55.21H62.9c-.66 0-1.2-.54-1.2-1.2s.54-1.2 1.2-1.2h18.36c.66 0 1.2.54 1.2 1.2s-.54 1.2-1.2 1.2zm-40.79 0h-.43c-.66 0-1.2-.54-1.2-1.2s.54-1.2 1.2-1.2h.43c.66 0 1.2.54 1.2 1.2s-.54 1.2-1.2 1.2z"/><path class="st2" d="M0 0h121.3v65H0z"/><path d="M52.66 17.49a4.838 4.838 0 01-4.84 4.84c-2.67 0-4.84-2.17-4.84-4.84s2.17-4.84 4.84-4.84 4.84 2.17 4.84 4.84z" fill="none" stroke="#00a800" stroke-width="1.8" stroke-linecap="round" stroke-linejoin="round" stroke-miterlimit="10"/><path class="st8" d="M94.1 44.89c2.77-1.18 5.68-4.58 6.51-6.45l4.93-9.28c.57-1.07-.31-2.34-1.51-2.19l-10.09 1.27-10.91 1.37-4.52 5.75c-.28.36-.72.57-1.18.57H57.3c-.47 0-.92-.22-1.2-.6l-4.28-5.72H18.51c-.83 0-1.5.67-1.5 1.5v5.18c0 .83.67 1.5 1.5 1.5h5.43l.17.33c.95 1.82 1.16 3.68-.12 5.29"/><path class="st8" d="M39.94 16.08h-2.77v5.82H26.3v7.71h22.37v-4.03"/><path class="st8" d="M32.61 8.01h-3.77c-.56 0-1.01.46-1 1.02l.19 12.88h5.67L33.61 9a1 1 0 00-1-.99zm50.42 21.6H48.67m-5.8-6.95v2.28m65.69 21.37c-4.79 0-4.79-2.84-9.58-2.84s-4.79 2.84-9.58 2.84-4.79-2.84-9.58-2.84-4.79 2.84-9.58 2.84-4.79-2.84-9.58-2.84-4.79 2.84-9.58 2.84-4.79-2.84-9.58-2.84-4.79 2.84-9.58 2.84-4.79-2.84-9.59-2.84-4.79 2.84-9.59 2.84m46-17.28v-4.17H77.1v4.16m-12.21-4.16v4.17m6.15-4.17v4.17m6.06 0v-4.17h18.35v3.16m-12.2-3.16v4.17m6.15-4.17v3.17"/></g></svg>