<svg id="Capa_1" data-name="Capa 1" xmlns="http://www.w3.org/2000/svg" viewBox="0 0 121 65"><defs><style>.cls-1{fill:none}.cls-2{fill:#95a6b1}.cls-4{fill:#4da12e}</style></defs><path class="cls-1" d="M0 0h121v65H0z"/><path class="cls-2" d="M76.7 34.4H24.6a9.7 9.7 0 01-9.3-6.8.8.8 0 01.6-1.1.8.8 0 011.1.6 8 8 0 007.6 5.5h52.1a7.9 7.9 0 008-7.9 8 8 0 00-8-8H24.6a.9.9 0 110-1.8h52.1a9.8 9.8 0 110 19.5zm29.1 5.6h-5.5a.9.9 0 110-1.8h5.5a.9.9 0 110 1.8z"/><path class="cls-2" d="M89.8 40h-4.2a.9.9 0 01-.9-.9V22.5a5.1 5.1 0 015.1-5.1h6.9a4.2 4.2 0 013.6 2.2l2 4.5a2.7 2.7 0 001.6 1.7 5.6 5.6 0 012.8 4.8V36a.9.9 0 01-1.8 0v-5.4a3.7 3.7 0 00-1.9-3.2 4.9 4.9 0 01-2.4-2.5l-1.9-4.5a2.4 2.4 0 00-2-1.2h-6.9a3.3 3.3 0 00-3.3 3.3v15.7h3.3a.9.9 0 010 1.8zm-54.2 0h-3.8a.9.9 0 010-1.8h3.8a.9.9 0 010 1.8zM68 40H46.2a.9.9 0 110-1.8H68a.9.9 0 010 1.8z"/><path class="cls-2" d="M85.6 40h-7a.9.9 0 010-1.8h6.1v-3.8H18.5a1.9 1.9 0 00-1.3 3.3 1.9 1.9 0 001.3.5h2.7a.9.9 0 010 1.8h-2.7a3.5 3.5 0 01-2.6-1 4 4 0 01-1.1-2.7 3.8 3.8 0 013.7-3.7h67.1a.9.9 0 01.9.9v5.6a.9.9 0 01-.9.9z"/><path class="cls-2" d="M26.5 45a6.2 6.2 0 116.2-6.2 6.2 6.2 0 01-6.2 6.2zm0-10.6a4.4 4.4 0 00-4.4 4.4 4.4 4.4 0 008.8 0 4.4 4.4 0 00-4.4-4.4z"/><path class="cls-2" d="M26.5 42a3.2 3.2 0 01-3.2-3.2 3.2 3.2 0 016.4 0 3.2 3.2 0 01-3.2 3.2zm0-4.6a1.4 1.4 0 00-1.4 1.4 1.4 1.4 0 002.8 0 1.4 1.4 0 00-1.4-1.4zM40.9 45a6.2 6.2 0 116.2-6.2 6.2 6.2 0 01-6.2 6.2zm0-10.6a4.4 4.4 0 00-4.4 4.4 4.4 4.4 0 008.8 0 4.4 4.4 0 00-4.4-4.4z"/><path class="cls-2" d="M40.9 42a3.2 3.2 0 01-3.2-3.2 3.2 3.2 0 013.2-3.2 3.3 3.3 0 013.2 3.2 3.2 3.2 0 01-3.2 3.2zm0-4.6a1.4 1.4 0 00-1.4 1.4 1.4 1.4 0 002.8 0 1.4 1.4 0 00-1.4-1.4zM73.3 45a6.2 6.2 0 010-12.4 6.2 6.2 0 110 12.4zm0-10.6a4.4 4.4 0 00-4.4 4.4 4.3 4.3 0 004.4 4.4 4.4 4.4 0 004.4-4.4 4.4 4.4 0 00-4.4-4.4z"/><path class="cls-2" d="M73.3 42a3.2 3.2 0 01-3.2-3.2 3.2 3.2 0 013.2-3.2 3.3 3.3 0 013.2 3.2 3.2 3.2 0 01-3.2 3.2zm0-4.6a1.4 1.4 0 00-1.4 1.4 1.4 1.4 0 001.4 1.4 1.4 1.4 0 001.4-1.4 1.5 1.5 0 00-1.4-1.4zM95 45a6.2 6.2 0 116.3-6.2A6.2 6.2 0 0195 45zm0-10.6a4.4 4.4 0 00-4.4 4.4 4.5 4.5 0 008.9 0 4.5 4.5 0 00-4.5-4.4z"/><path class="cls-2" d="M95 42a3.1 3.1 0 01-3.1-3.2 3.2 3.2 0 116.3 0A3.2 3.2 0 0195 42zm0-4.6a1.4 1.4 0 00-1.3 1.4 1.3 1.3 0 001.3 1.4 1.4 1.4 0 001.4-1.4 1.4 1.4 0 00-1.4-1.4zm10.8 2.6a.9.9 0 110-1.8.7.7 0 00.7-.7v-2.3a.7.7 0 00-.7-.8.9.9 0 110-1.8 2.6 2.6 0 012.5 2.6v2.3a2.5 2.5 0 01-2.5 2.5z"/><path class="cls-2" d="M105.8 36.9a3.4 3.4 0 110-6.7.9.9 0 010 1.8 1.6 1.6 0 00-1.6 1.5 1.6 1.6 0 001.6 1.6.9.9 0 110 1.8zm-8.4-9.1h-7.5a.9.9 0 01-.9-.9v-5.8a.9.9 0 01.9-.9H96a1 1 0 01.9.7l1.3 5.8a1.1 1.1 0 01-.1.8 1.1 1.1 0 01-.7.3zM90.8 26h5.4l-.9-4h-4.5zm1.7 4.6H90a.9.9 0 010-1.8h2.5a.9.9 0 010 1.8zM29.9 16.7h-5.3a.9.9 0 01-.9-.9v-2.7a.9.9 0 01.9-.9h5.3a.9.9 0 01.9.9v2.7a.9.9 0 01-.9.9zm-4.4-1.8H29V14h-3.5zm14.4 1.8h-5.3a.9.9 0 01-.9-.9v-2.7a.9.9 0 01.9-.9h5.3a.9.9 0 01.9.9v2.7a.9.9 0 01-.9.9zm-4.4-1.8H39V14h-3.5zm37.6 1.8h-5.2a.9.9 0 01-.9-.9v-2.7a.9.9 0 01.9-.9h5.2a.9.9 0 01.9.9v2.7a.9.9 0 01-.9.9zm-4.3-1.8h3.4V14h-3.4zM76 34.4a.9.9 0 01-.9-.9V14.4a.9.9 0 011.8 0v19.1a.9.9 0 01-.9.9zm4 0a.9.9 0 01-.9-.9V14.4a.9.9 0 011.8 0v19.1a.9.9 0 01-.9.9z"/><path class="cls-2" d="M80 20h-3.6a.9.9 0 110-1.8H80a.9.9 0 110 1.8zm0 3.9h-3.6a.9.9 0 110-1.8H80a.9.9 0 010 1.8zm0 3.9h-3.6a.9.9 0 010-1.8H80a.9.9 0 010 1.8zm0 3.9h-3.6a.9.9 0 110-1.8H80a.9.9 0 110 1.8z"/><path d="M18 24.8a5.2 5.2 0 01-5.3-5.2 5.3 5.3 0 015.3-5.3 5.2 5.2 0 015.2 5.2 5.2 5.2 0 01-5.2 5.3zm0-8.7a3.5 3.5 0 00-3.5 3.5 3.5 3.5 0 006.9 0 3.4 3.4 0 00-3.4-3.5z" fill="#19a500" id="Trazado_11848" data-name="Trazado 11848"/><path class="cls-2" d="M113.9 45h-101a.9.9 0 010-1.8h101a.9.9 0 010 1.8zM38.6 34.4a.9.9 0 01-.9-.9V15.8a.9.9 0 111.8 0v17.7a.9.9 0 01-.9.9zm20.4 0a.9.9 0 01-.9-.9V15.8a.9.9 0 011.8 0v17.7a.9.9 0 01-.9.9z"/><path class="cls-1" d="M28 48.3h65v16.74H28z"/><path class="cls-4" d="M73.4 61.3h-7.2a1.2 1.2 0 01-1.2-1.2 1.3 1.3 0 011.2-1.2h7.2a1.3 1.3 0 011.2 1.2 1.2 1.2 0 01-1.2 1.2zm7.7 0h-.6a1.2 1.2 0 01-1.2-1.2 1.3 1.3 0 011.2-1.2h.6a1.2 1.2 0 011.2 1.2 1.2 1.2 0 01-1.2 1.2zm-34.1 0h-7.1a1.2 1.2 0 01-1.2-1.2 1.2 1.2 0 011.2-1.2H47a1.2 1.2 0 011.2 1.2 1.2 1.2 0 01-1.2 1.2z"/><path d="M59 61.3H46.5a1.2 1.2 0 01-1.2-1.2 1.3 1.3 0 011.2-1.2H59a1.2 1.2 0 011.2 1.2 1.2 1.2 0 01-1.2 1.2zm4.5-6.1H39.9a1.2 1.2 0 110-2.4h23.6a1.2 1.2 0 010 2.4z" fill="#96d200"/><path class="cls-4" d="M81.1 55.2H62.7a1.2 1.2 0 010-2.4h18.4a1.2 1.2 0 010 2.4zm-40.8 0h-.4a1.2 1.2 0 110-2.4h.4a1.2 1.2 0 010 2.4z"/></svg>