<svg xmlns="http://www.w3.org/2000/svg" viewBox="0 0 47 47"><style>.st9{fill:none;stroke:#fff;stroke-width:1.5;stroke-linecap:round;stroke-linejoin:round}</style><g id="Capa_1"><path fill="none" d="M0 0h47v47H0z"/><path class="st9" d="M40.38 32.58l3.05-7.85h-2.19l-2.07 1.53H18.65l-2.42-2.02-13.12-1.68 5.27 10.02"/><path class="st9" d="M33.36 26.31V23.2a2.88 2.88 0 015.76 0v3.06"/><path class="st9" d="M27.61 26.26V23.2a2.88 2.88 0 015.76 0v3.11m-11.52 0V23.2a2.88 2.88 0 015.76 0v3.06M7.12 13.17c.24.53.26 1.12.09 1.63-.19.57-.61 1.06-1.19 1.33-1.12.51-2.45.02-2.97-1.1s-.02-2.45 1.1-2.97 2.46-.02 2.97 1.11zm2.04-.35h1.92c.17 0 .31.17.31.37v1.34h1.89c.36 0 .65.29.65.65v1.61H9.51m6.52 7.07v-7.07H9.11m-3.38 1.66v3.63M41 29.84H7.14m3.44-9.52H6.7m16.85 14.82c2.57 0 2.57-2.56 5.15-2.56 2.58 0 2.58 2.56 5.15 2.56s2.58-2.56 5.15-2.56m-30.88 0c2.57 0 2.57 2.56 5.14 2.56s2.57-2.56 5.15-2.56c2.57 0 2.57 2.56 5.14 2.56m-20.58 0c2.58 0 2.58-2.56 5.15-2.56m30.88 0c2.57 0 2.57 2.56 5.14 2.56"/></g></svg>