<svg xmlns="http://www.w3.org/2000/svg" width="9" height="9"><g data-name="Trazado 11288" fill="#fff"><path d="M4.5 8C2.57 8 1 6.43 1 4.5S2.57 1 4.5 1 8 2.57 8 4.5c0 .738-.236 1.412-.764 2.186l-.005.008-.005.008C6.816 7.327 5.788 8 4.5 8z"/><path d="M4.5 2A2.503 2.503 0 002 4.5C2 5.878 3.122 7 4.5 7c.972 0 1.675-.52 1.89-.847l.02-.03C6.93 5.36 7 4.875 7 4.5 7 3.122 5.878 2 4.5 2m0-2A4.5 4.5 0 019 4.5c0 .925-.279 1.784-.938 2.75C7.436 8.205 6.061 9 4.5 9a4.5 4.5 0 010-9z" fill="#00af00"/></g></svg>