<svg xmlns="http://www.w3.org/2000/svg" width="29.058" height="29.048"><g data-name="icon ocenza desktop redes sociales twitter"><g data-name="Grupo 6810"><g data-name="Grupo 6809"><path data-name="Trazado 5849" d="M8.677 2.382a13.48 13.48 0 11-7.624 12.146 12.942 12.942 0 01.066-1.331" fill="none" stroke="#fff" stroke-linecap="round" stroke-linejoin="round" stroke-width="2"/></g></g><path data-name="Trazado 5850" d="M6.853 7.024a2.9 2.9 0 110-.053z" fill="none" stroke="#efef00" stroke-linecap="round" stroke-linejoin="round" stroke-width="2"/><g data-name="Grupo 6811" fill="none" stroke="#fff" stroke-linecap="round" stroke-linejoin="round" stroke-width="2"><path data-name="Trazado 4961" d="M12.219 17.477a4.789 4.789 0 01-4.032 1.153c2.067 2.068 11.174 2.982 11.561-5.914a2.3 2.3 0 00.017-.293v-.144h-.008a.492.492 0 000-.078l2-2.484-2.635 1.03a2.5 2.5 0 00-4.362 1.672 2.325 2.325 0 00.042.449"/><path data-name="Trazado 4962" d="M14.81 12.868a7.141 7.141 0 01-5.177-2.582c-.873 2.479-.548 5.531 2.59 7.187"/></g></g></svg>