<svg xmlns="http://www.w3.org/2000/svg" width="47" height="47"><g data-name="Grupo 20181" fill="none"><path data-name="Trazado 11848" d="M15.524 12.186a2.876 2.876 0 11-2.878-2.877h0a2.866 2.866 0 012.876 2.855.08.08 0 01.002.022z" stroke="#fff" stroke-linecap="round" stroke-linejoin="round" stroke-width="1.5"/><path data-name="Rectángulo 5375" d="M0 0h47v47H0z"/><path data-name="Trazado 11859" d="M35.293 38.362c.66-.715 5.319-5.894 5.321-10.059a5.519 5.519 0 00-5.034-5.936c-.086 0-.175-.027-.256-.03h-.15c-.09 0-.175.023-.258.03a5.519 5.519 0 00-5.032 5.931c0 4.165 4.661 9.344 5.321 10.059v.089l.041-.042.038.042z" stroke="#fff" stroke-linecap="round" stroke-linejoin="round" stroke-width="1.5"/><path data-name="Trazado 11860" d="M36.685 27.695a1.459 1.459 0 01-1.459 1.459h0a1.459 1.459 0 111.459-1.459z" stroke="#fff" stroke-linecap="round" stroke-linejoin="round" stroke-width="1.5"/><path data-name="Trazado 17865" d="M18.36 12.223h5.439a4 4 0 013.994 4v3.609a4 4 0 01-3.994 4h-7.153a3.994 3.994 0 00-3.994 3.994v6.491a4 4 0 003.994 3.983h13.2" stroke="#fff" stroke-linecap="round" stroke-linejoin="round" stroke-width="1.5" stroke-dasharray="4.043"/></g></svg>