<svg xmlns="http://www.w3.org/2000/svg" width="47" height="92.365"><g fill="#fff"><path d="M23.764 91.365c-1.93 0-3.5-1.57-3.5-3.5s1.57-3.5 3.5-3.5 3.5 1.57 3.5 3.5c0 .738-.236 1.412-.764 2.186l-.005.008-.005.008c-.41.625-1.438 1.298-2.726 1.298z"/><path d="M23.764 85.365a2.503 2.503 0 00-2.5 2.5c0 1.378 1.122 2.5 2.5 2.5.972 0 1.675-.52 1.89-.847l.01-.015.01-.015c.52-.762.59-1.248.59-1.623 0-1.378-1.122-2.5-2.5-2.5m0-2a4.5 4.5 0 014.5 4.5c0 .925-.279 1.784-.938 2.75-.626.955-2.001 1.75-3.562 1.75a4.5 4.5 0 010-9z" fill="#00af00"/></g><path fill="none" stroke="#505d6c" opacity=".29" d="M23.764 48.615v39.459"/><g fill="none"><path d="M0 0h47v47H0z"/><path d="M16.806 30.141a3.9 3.9 0 11-3.9-3.9h0a3.884 3.884 0 013.9 3.868z" stroke="#19a500" stroke-linecap="round" stroke-linejoin="round" stroke-width="1.5"/><path d="M14.334 36.5v5.519h20.441V29.341H19.348m-.059 4.698h15.487" stroke="#95a6b1" stroke-linecap="round" stroke-linejoin="round" stroke-width="1.5"/><circle cx="9.009" cy="9.009" r="9.009" transform="translate(16.313 4.981)" stroke="#95a6b1" stroke-linecap="round" stroke-linejoin="round" stroke-width="1.5"/><path stroke="#95a6b1" stroke-linecap="round" stroke-linejoin="round" stroke-width="1.5" d="M28.256 13.99H25.38m0-1.596v3.192M25.322 23v6.341M11.238 42.019H37.99"/></g></svg>