<svg xmlns="http://www.w3.org/2000/svg" width="47" height="82.75"><path fill="none" stroke="#505d6c" opacity=".29" d="M25.764 49v29.661"/><g fill="#fff"><path d="M25.764 81.75c-1.93 0-3.5-1.57-3.5-3.5s1.57-3.5 3.5-3.5 3.5 1.57 3.5 3.5c0 .738-.236 1.412-.764 2.186l-.005.008-.005.008c-.41.625-1.438 1.298-2.726 1.298z"/><path d="M25.764 75.75a2.503 2.503 0 00-2.5 2.5c0 1.378 1.122 2.5 2.5 2.5.972 0 1.675-.52 1.89-.847l.01-.015.01-.015c.52-.762.59-1.248.59-1.623 0-1.378-1.122-2.5-2.5-2.5m0-2a4.5 4.5 0 014.5 4.5c0 .925-.279 1.784-.938 2.75-.626.955-2.001 1.75-3.562 1.75a4.5 4.5 0 010-9z" fill="#00af00"/></g><g transform="translate(-90)" fill="none"><path d="M97.864 12.173V9.427a1.928 1.928 0 011.93-1.939h4.558a1.934 1.934 0 011.93 1.939v11.318m0 11.555v10.119h-8.418V24.383m16.328 18.036V30.884" stroke="#95a6b1" stroke-linecap="round" stroke-linejoin="round" stroke-width="1.5"/><path d="M114.192 22.158v-6.089a3.035 3.035 0 00-2.917-3.144h-4.993m27.957 29.492H95.108" stroke="#95a6b1" stroke-linecap="round" stroke-linejoin="round" stroke-width="1.5"/><circle cx="6.539" cy="6.539" r="6.539" transform="translate(102.796 19.981)" stroke="#95a6b1" stroke-linecap="round" stroke-linejoin="round" stroke-width="1.5"/><circle cx="3.533" cy="3.533" r="3.533" transform="translate(105.802 22.987)" stroke="#95a6b1" stroke-linecap="round" stroke-linejoin="round" stroke-width="1.5"/><circle cx="3.052" cy="3.052" r="3.052" transform="translate(121.5 23.467)" stroke="#95a6b1" stroke-linecap="round" stroke-linejoin="round" stroke-width="1.5"/><path stroke="#95a6b1" stroke-linecap="round" stroke-linejoin="round" stroke-width="1.5" d="M110.924 20.176l13.998 3.314m-.37 6.082l-13.701 3.309m11.123-16.555h6.387a3.45 3.45 0 013.45 3.45V42.42h0-13.287 0V19.776a3.45 3.45 0 013.45-3.45z"/><path d="M125.783 33.059l-1.231 2.541h1.923l-1.462 3.231m-3.039-22.504v-3.58m6.387 3.58v-3.58m-7.776.923h9.154m-29.736-6.362V4.012m4.582 3.296V4.012m-5.671.923h7.049" stroke="#95a6b1" stroke-linecap="round" stroke-linejoin="round" stroke-width="1.5"/><path d="M90 0h47v47H90z"/><path d="M101.825 18.26a3.9 3.9 0 11-3.9-3.9h0a3.883 3.883 0 013.9 3.868z" stroke="#19a500" stroke-linecap="round" stroke-linejoin="round" stroke-width="1.5"/></g></svg>