<svg id="Capa_1" data-name="Capa 1" xmlns="http://www.w3.org/2000/svg" viewBox="0 0 65 65"><defs><style>.cls-2{fill:none}.cls-3{fill:#95a6b1}.cls-4{fill:#19a301}</style></defs><path d="M18.6 36.8a3.4 3.4 0 01-1.4-.2 4.3 4.3 0 01-2.2-2 4.4 4.4 0 01-.1-3 3.8 3.8 0 012.1-2.2 3.9 3.9 0 015.2 1.9 4.1 4.1 0 01.1 2.9 3.9 3.9 0 01-2.1 2.3 4.5 4.5 0 01-1.6.3zm0-6.2l-1 .2a2.5 2.5 0 00-1.2 1.3 2.3 2.3 0 00.1 1.8 2.5 2.5 0 001.3 1.2 2.3 2.3 0 001.8-.1 2.2 2.2 0 001.2-1.3 2.5 2.5 0 00-.1-1.7 2.3 2.3 0 00-2.1-1.4z" fill="#00a800"/><path class="cls-2" d="M0 0h65v65H0z"/><path class="cls-3" d="M41.2 46H21.7a4 4 0 01-4-4v-3.6a.8.8 0 111.6 0V42a2.4 2.4 0 002.4 2.4h19.5a2.3 2.3 0 002.3-2.4V17.8a1.6 1.6 0 00-1.6-1.6h-8.4a.8.8 0 01-.8-.6l-1-4.2a1.6 1.6 0 00-1.5-1.1h-8.3a1.5 1.5 0 00-1.5 1.1l-1.1 4.1v11.8a.8.8 0 11-1.6 0V15.2l1.2-4.2a3.1 3.1 0 013-2.3h8.3a3 3 0 013 2.4l.9 3.5h7.8a3.2 3.2 0 013.2 3.2V42a4 4 0 01-3.9 4z"/><path class="cls-3" d="M42.5 12.3h-6.1a.8.8 0 01-.8-.8V7.7a.9.9 0 01.8-.8h6.1a.8.8 0 01.8.8v3.8a.7.7 0 01-.8.8zm-5.3-1.6h4.5V8.5h-4.5zm-9.3 7.2h-3.4a2.6 2.6 0 01-2.6-2.6 2.5 2.5 0 012.6-2.6h3.4a2.5 2.5 0 012.6 2.6 2.6 2.6 0 01-2.6 2.6zm-3.4-3.6a.9.9 0 00-1 1 1 1 0 001 1h3.4a1 1 0 001-1 .9.9 0 00-1-1zm19.8 24.9H18.5a.9.9 0 01-.8-.8.8.8 0 01.8-.8h25.8a.7.7 0 01.8.8.8.8 0 01-.8.8zm0-11.5a4.4 4.4 0 01-3-1.2 2.9 2.9 0 00-2.1-.8 2.7 2.7 0 00-2.1.8 4.6 4.6 0 01-6.2 0 2.7 2.7 0 00-2.1-.8 2.9 2.9 0 00-2.1.8 4.4 4.4 0 01-3 1.2 4.7 4.7 0 01-3.1-1.2 2.9 2.9 0 00-2.1-.8.9.9 0 01-.8-.8.8.8 0 01.8-.8 4.7 4.7 0 013.1 1.1 2.9 2.9 0 004.2 0 4.4 4.4 0 013-1.1 4.7 4.7 0 013.1 1.1 2.9 2.9 0 004.2 0 4.7 4.7 0 013.1-1.1 4.4 4.4 0 013 1.1 2.9 2.9 0 002.1.9.7.7 0 01.8.8.8.8 0 01-.8.8z"/><path class="cls-3" d="M41.4 16.2a.8.8 0 01-.8-.8v-3.9a.9.9 0 01.8-.8.8.8 0 01.8.8v3.9a.7.7 0 01-.8.8zm-4 0a.7.7 0 01-.8-.8v-3.9a.8.8 0 01.8-.8.9.9 0 01.8.8v3.9a.8.8 0 01-.8.8z"/><path class="cls-2" d="M0 48.3h65v16.74H0z"/><path class="cls-4" d="M45.4 61.3h-7.2a1.2 1.2 0 01-1.2-1.2 1.3 1.3 0 011.2-1.2h7.2a1.3 1.3 0 011.2 1.2 1.2 1.2 0 01-1.2 1.2zm7.7 0h-.6a1.2 1.2 0 01-1.2-1.2 1.3 1.3 0 011.2-1.2h.6a1.2 1.2 0 011.2 1.2 1.2 1.2 0 01-1.2 1.2zm-34.1 0h-7.1a1.2 1.2 0 01-1.2-1.2 1.2 1.2 0 011.2-1.2H19a1.2 1.2 0 011.2 1.2 1.2 1.2 0 01-1.2 1.2z"/><path d="M31 61.3H18.5a1.2 1.2 0 01-1.2-1.2 1.3 1.3 0 011.2-1.2H31a1.2 1.2 0 011.2 1.2 1.2 1.2 0 01-1.2 1.2zm4.5-6.1H11.9a1.2 1.2 0 110-2.4h23.6a1.2 1.2 0 010 2.4z" fill="#82d400"/><path class="cls-4" d="M53.1 55.2H34.7a1.2 1.2 0 010-2.4h18.4a1.2 1.2 0 010 2.4zm-40.8 0h-.4a1.2 1.2 0 110-2.4h.4a1.2 1.2 0 010 2.4z"/></svg>