<svg xmlns="http://www.w3.org/2000/svg" width="47.173" height="207.769"><g data-name="Grupo 18297"><g data-name="Grupo 15261"><g data-name="Grupo 15275"><path data-name="Rectángulo 3799-2" fill="none" d="M0 0h47.173v47.173H0z"/><g data-name="Grupo 15274"><g data-name="Grupo 15272"><g data-name="Grupo 15271" fill="none" stroke="#97a5af" stroke-linecap="round" stroke-linejoin="round" stroke-width="1.5"><path data-name="Línea 2934" d="M10.816 25.436H8.333"/><path data-name="Línea 2935" d="M16.807 25.436h-2.462"/><path data-name="Trazado 12607" d="M17.997 20.216a.93.93 0 00-.79-1.024H7.954a.93.93 0 00-.79 1.024v.24a.93.93 0 00.79 1.024h9.253a.93.93 0 00.79-1.024z"/><path data-name="Línea 2936" d="M10.816 29.568H6.263"/><path data-name="Trazado 12608" d="M14.345 35.459h5.325v-6.01h-5.325"/><path data-name="Línea 2937" d="M5.851 35.339h4.965"/><path data-name="Rectángulo 5185" d="M3.65 27.888h2.132v9.132H3.65z"/><path data-name="Rectángulo 5186" d="M10.816 21.498h3.529v15.741h-3.529z"/></g></g><g data-name="Grupo 15273" fill="none" stroke="#97a5af" stroke-linecap="round" stroke-linejoin="round" stroke-width="1.5" transform="translate(.087 .087)"><path data-name="Trazado 12609" d="M19.582 30.98v9.588h20.964V30.98"/><path data-name="Trazado 12610" d="M22.537 25.459h-2.955v5.521"/><path data-name="Trazado 12611" d="M40.546 30.98v-5.521h-3.9"/><path data-name="Trazado 12612" d="M36.649 10.138V8.3a1.869 1.869 0 011.869-1.87h3.049a1.87 1.87 0 011.87 1.87v29.245h-2.891l-2.62-4.676a2.067 2.067 0 00-1.6-.765H19.582"/><path data-name="Trazado 12613" d="M22.537 25.719V27.5a.722.722 0 00.722.722h1.517a.722.722 0 00.724-.722v-4.059a.722.722 0 01.722-.722h1.344a.722.722 0 01.722.722V27.5a.722.722 0 00.722.722h1.518a.723.723 0 00.722-.722v-4.059a.722.722 0 01.722-.722h1a.722.722 0 01.722.722V27.5a.722.722 0 00.722.722h1.518a.723.723 0 00.722-.722v-6.256"/><circle data-name="Elipse 2464" cx="1.213" cy="1.213" r="1.213" transform="translate(22.815 35.774)"/><circle data-name="Elipse 2465" cx="1.213" cy="1.213" r="1.213" transform="translate(28.303 35.774)"/></g></g></g><path data-name="Trazado 11848" d="M39.777 15.554a3.042 3.042 0 11-3.041-3.041h0a3.029 3.029 0 013.041 3.018z" fill="none" stroke="#19a500" stroke-linecap="round" stroke-linejoin="round" stroke-width="1.5"/></g><path data-name="Trazado 18868" d="M24.499 199.532v-150" fill="none" stroke="#505d6c" stroke-dasharray="4"/><g data-name="Trazado 18869" fill="#fff"><path d="M24.278 70.634c-1.93 0-3.5-1.57-3.5-3.5s1.57-3.5 3.5-3.5 3.5 1.57 3.5 3.5c0 .738-.236 1.412-.764 2.186l-.005.008-.005.008c-.41.625-1.438 1.298-2.726 1.298z"/><path d="M24.278 64.634a2.503 2.503 0 00-2.5 2.5c0 1.378 1.122 2.5 2.5 2.5.972 0 1.675-.52 1.89-.847l.01-.015.01-.015c.52-.762.59-1.248.59-1.623 0-1.378-1.122-2.5-2.5-2.5m0-2a4.5 4.5 0 014.5 4.5c0 .925-.279 1.784-.938 2.75-.626.955-2.001 1.75-3.562 1.75a4.5 4.5 0 010-9z" fill="#00af00"/></g><g data-name="Trazado 18870" fill="#fff"><path d="M24.278 206.77c-1.93 0-3.5-1.57-3.5-3.5s1.57-3.5 3.5-3.5 3.5 1.57 3.5 3.5c0 .738-.236 1.412-.764 2.186l-.005.008-.005.008c-.41.625-1.438 1.298-2.726 1.298z"/><path d="M24.278 200.77a2.503 2.503 0 00-2.5 2.5c0 1.378 1.122 2.5 2.5 2.5.972 0 1.675-.52 1.89-.847l.01-.015.01-.015c.52-.762.59-1.248.59-1.623 0-1.378-1.122-2.5-2.5-2.5m0-2a4.5 4.5 0 014.5 4.5c0 .925-.279 1.784-.938 2.75-.626.955-2.001 1.75-3.562 1.75a4.5 4.5 0 010-9z" fill="#00af00"/></g></g></svg>