<svg xmlns="http://www.w3.org/2000/svg" width="60" height="212.28"><g data-name="Grupo 18299"><g fill="none"><path data-name="Rectángulo 5514" d="M0 0h60v60H0z"/><path data-name="Rectángulo 5515" d="M0 0h60v60H0z"/><g data-name="Grupo 18298"><g data-name="Grupo 18297" stroke="#97a5af" stroke-linecap="round" stroke-linejoin="round" stroke-width="1.5"><path data-name="Trazado 18872" d="M33.76 35.77H13.24v-1.76a1.677 1.677 0 011.68-1.68h17.16a1.677 1.677 0 011.68 1.68v1.76z"/><path data-name="Trazado 18873" d="M23.3 26.41h-3.86v5.92h8.12v-2.64"/><path data-name="Trazado 18874" d="M22.27 26.41h-4.3a1.139 1.139 0 01-1.14-1.14v-1.3a1.139 1.139 0 011.14-1.14h5.16"/><path data-name="Trazado 18875" d="M26.05 20.03v-4.08h-5.1v6.88h2.37"/><path data-name="Rectángulo 5516" d="M20.95 35.77h5.09v3.16h-5.09z"/><path data-name="Trazado 18876" d="M38.57 14.15a1.805 1.805 0 01-1.8 1.8H10.22a1.805 1.805 0 01-1.8-1.8v-1.22a1.805 1.805 0 011.8-1.8h26.55a1.805 1.805 0 011.8 1.8z"/><path data-name="Línea 3632" d="M20.95 22.83l-6.72-6.72"/><path data-name="Línea 3633" d="M29.3 19.61l3.49-3.5"/><path data-name="Rectángulo 5517" d="M10.25 38.93h26.49v8.52H10.25z"/><path data-name="Rectángulo 5518" d="M36.75 37.48h4.59v11.39h-4.59z"/><path data-name="Rectángulo 5519" d="M5.66 37.48h4.59v11.39H5.66z"/></g><path d="M31.37 24.62a3.27 3.27 0 110-.04v.04z" stroke="#00a800" stroke-linecap="round" stroke-linejoin="round" stroke-miterlimit="10" stroke-width="1.5"/><path d="M0 6.5h47v47H0z"/></g></g><path data-name="Trazado 18868" d="M24.499 204.043v-150" fill="none" stroke="#505d6c" stroke-dasharray="4"/><g data-name="Trazado 18869" fill="#fff"><path d="M24.278 75.145c-1.93 0-3.5-1.57-3.5-3.5s1.57-3.5 3.5-3.5 3.5 1.57 3.5 3.5c0 .738-.236 1.412-.764 2.186l-.005.008-.005.008c-.41.625-1.438 1.298-2.726 1.298z"/><path d="M24.278 69.145a2.503 2.503 0 00-2.5 2.5c0 1.378 1.122 2.5 2.5 2.5.972 0 1.675-.52 1.89-.847l.02-.03c.52-.762.59-1.248.59-1.623 0-1.378-1.122-2.5-2.5-2.5m0-2a4.5 4.5 0 014.5 4.5c0 .925-.279 1.784-.938 2.75-.626.955-2.001 1.75-3.562 1.75a4.5 4.5 0 010-9z" fill="#00af00"/></g><g data-name="Trazado 18870" fill="#fff"><path d="M24.278 211.281c-1.93 0-3.5-1.57-3.5-3.5s1.57-3.5 3.5-3.5 3.5 1.57 3.5 3.5c0 .738-.236 1.412-.764 2.186l-.005.008-.005.008c-.41.625-1.438 1.298-2.726 1.298z"/><path d="M24.278 205.281a2.503 2.503 0 00-2.5 2.5c0 1.378 1.122 2.5 2.5 2.5.972 0 1.675-.52 1.89-.847l.02-.03c.52-.762.59-1.248.59-1.623 0-1.378-1.122-2.5-2.5-2.5m0-2a4.5 4.5 0 014.5 4.5c0 .925-.279 1.784-.938 2.75-.626.955-2.001 1.75-3.562 1.75a4.5 4.5 0 010-9z" fill="#00af00"/></g></g></svg>