<svg id="Capa_1" data-name="Capa 1" xmlns="http://www.w3.org/2000/svg" viewBox="0 0 47 47"><defs><style>.cls-2{fill:#95a6b1}</style></defs><path d="M5 30.2a4.4 4.4 0 01-4.4-4.4A4.4 4.4 0 015 21.5a4.3 4.3 0 014.3 4.3A4.4 4.4 0 015 30.2zM5 23a2.8 2.8 0 00-2.9 2.8A2.9 2.9 0 005 28.7a2.9 2.9 0 002.8-2.9A2.8 2.8 0 005 23z" fill="#19a500" id="Trazado_11848" data-name="Trazado 11848"/><path class="cls-2" d="M31.7 27.7a.8.8 0 01-.7-.5.7.7 0 01.4-1L44 21.3a1.2 1.2 0 00.8-.9 1.1 1.1 0 00-.2-1.2 5.6 5.6 0 00-6.3-1.5l-9.4 3.7-15.1 5.9c-.4.1-.8 0-.9-.4a.7.7 0 01.4-1L28.4 20l9.4-3.7a6.8 6.8 0 017.9 1.9 3 3 0 01.6 2.6 2.7 2.7 0 01-1.7 1.9l-12.7 4.9z" id="Trazado_11660" data-name="Trazado 11660"/><path class="cls-2" d="M10.7 35.7a3.7 3.7 0 01-3.2-1.9l-.8-2.3a.7.7 0 01.4-1 .9.9 0 011 .5l.8 2.1a2.1 2.1 0 002.7.8l12.8-5a.8.8 0 011 .5.6.6 0 01-.4.9l-12.8 5a2.8 2.8 0 01-1.5.4z" id="Trazado_11661" data-name="Trazado 11661"/><path class="cls-2" d="M13.5 27.3h-.1l-2.8-.4a.6.6 0 01-.6-.8.7.7 0 01.8-.7l2.9.5a.6.6 0 01.6.8.8.8 0 01-.8.6z" id="Línea_2295" data-name="Línea 2295"/><path class="cls-2" d="M23.2 42.3a.5.5 0 01-.5-.3.6.6 0 01-.3-.6L24 29.6a.7.7 0 01.8-.7.8.8 0 01.7.8l-1.4 11h.6a2.8 2.8 0 002.3-1.9l3.9-12.1a.8.8 0 011.5.5l-4 12.1a4 4 0 01-3.6 2.8l-1.5.2z" id="Trazado_11662" data-name="Trazado 11662"/><path class="cls-2" d="M22.6 23.8c-.2 0-.5 0-.6-.2L14.7 15a.7.7 0 01-.2-.6.9.9 0 01.4-.6l1.4-.7a4.1 4.1 0 014.5.4l8.3 6.7a.7.7 0 01-.9 1.1l-8.3-6.6a2.6 2.6 0 00-2.9-.3l-.6.3 6.7 7.9a.8.8 0 010 1.1z" id="Trazado_11663" data-name="Trazado 11663"/><path fill="none" d="M0 0h47v47H0z"/></svg>