<svg id="Capa_1" data-name="Capa 1" xmlns="http://www.w3.org/2000/svg" viewBox="0 0 47 47"><defs><style>.cls-1{fill:#95a6b1}</style></defs><path class="cls-1" d="M11.2 36.9a4.4 4.4 0 01-4.4-4.4 4.4 4.4 0 018.8 0 4.4 4.4 0 01-4.4 4.4zm0-7.3a2.9 2.9 0 102.9 2.9 2.9 2.9 0 00-2.9-2.9zm27.1 7.3a4.4 4.4 0 01-4.4-4.4 4.4 4.4 0 018.8 0 4.4 4.4 0 01-4.4 4.4zm0-7.3a2.9 2.9 0 102.9 2.9 2.9 2.9 0 00-2.9-2.9z"/><path class="cls-1" d="M34.6 32.9H14.9a.8.8 0 01-.8-.7.9.9 0 01.8-.8h19.7a.8.8 0 01.8.8.7.7 0 01-.8.7zm11.2-.2h-3.9a.8.8 0 01-.7-.8.7.7 0 01.7-.7H45c-.1-5.9-3.7-6.9-6.5-7.2h-.3a.5.5 0 01-.4-.2c-5.7-5.6-10.2-6-10.2-6l-16.6.8a.8.8 0 11-.1-1.5l16.7-.8c.3 0 5 .4 11 6.2 5.4.5 8.1 3.7 7.9 9.5a.7.7 0 01-.7.7zm-38.2 0H3a.9.9 0 01-.8-.8v-6.3a.9.9 0 01.8-.8.8.8 0 01.7.8v5.6h3.9a.8.8 0 01.8.7.9.9 0 01-.8.8z"/><path class="cls-1" d="M11.3 24.1a.8.8 0 01-.6-.4.6.6 0 01-.1-.7l2.2-5.5a.8.8 0 01.9-.5.9.9 0 01.5 1l-1.8 4.6h25.9a.8.8 0 01.7.8.7.7 0 01-.7.7z"/><path class="cls-1" d="M22.6 24.1a.8.8 0 01-.8-.8v-6a.8.8 0 01.8-.8.8.8 0 01.7.8v6a.8.8 0 01-.7.8zm22.3 14.1H5.8a.7.7 0 01-.7-.8.7.7 0 01.7-.7h39.1a.7.7 0 01.7.7.7.7 0 01-.7.8z"/><path d="M4.8 23.8a4.4 4.4 0 01-4.4-4.3 4.4 4.4 0 014.4-4.4 4.5 4.5 0 014.4 4.3 4.4 4.4 0 01-4.4 4.4zm0-7.2a2.9 2.9 0 102.9 2.9 3 3 0 00-2.9-2.9z" fill="#19a500" id="Trazado_11848" data-name="Trazado 11848"/><path fill="none" d="M0 0h47v47H0z"/></svg>