<svg version="1.1" id="Capa_1" xmlns="http://www.w3.org/2000/svg" xmlns:xlink="http://www.w3.org/1999/xlink" x="0" y="0" viewBox="0 0 65 65" xml:space="preserve"><style>.st0{fill:none}.st4{fill:#4da12e}</style><path id="Rectángulo_3799-2_6_" class="st0" d="M0 0h65v65H0z"/><g fill="none" stroke-width="1.6" stroke-linecap="round" stroke-linejoin="round"><path id="Trazado_11848_8_" d="M23.85 25.85c0 2.31-1.87 4.18-4.18 4.18s-4.18-1.87-4.18-4.18 1.87-4.18 4.18-4.18h0c2.3-.01 4.17 1.85 4.18 4.15v.03z" stroke="#19a500" stroke-miterlimit="10"/><path d="M19.44 19.29l.7-1.76c.15-.37.06-.78-.21-1.07l-2.95-3.07c-.1-.1-.22-.18-.35-.24l-1.08-.42a1 1 0 01-.63-.93v-.55c0-.41.25-.78.64-.93l1.14-.44v-.93c0-.14-.03-.28-.09-.41l-.39-.84a1 1 0 01.05-.92l.95-1.63c.36-.63 1.26-.67 1.68-.08l.62.87c.12.17.19.37.19.58v1.26c0 .3.13.58.36.77l1.06.88c.33.27.8.31 1.17.08l.88-.55c.4-.25.93-.18 1.26.16l2.43 2.59c.14.15.33.25.53.29l8.41 1.73c.15.03.3.1.42.2l2.32 1.86c.34.27.81.29 1.17.05l1.22-.8c.34-.22.79-.22 1.12.02l.96.67c.42.29.55.86.3 1.31l-1.69 3.03a.96.96 0 00-.09.74l.48 1.81c.02.08.03.17.03.26v1.51c0 .34.17.66.46.84l4.59 2.94c.05.03.1.07.14.11l2.52 2.32c.44.41.43 1.11-.03 1.5l-4.1 3.51a.97.97 0 00-.31.5l-.46 1.68a.96.96 0 01-.29.47l-2.63 2.41c-.27.25-.38.62-.3.98l.79 3.23c.01.06.03.11.06.17l1.27 2.87c.27.61-.12 1.31-.78 1.4l-1.35.18a.985.985 0 01-.63-.12l-.95-.54c-.12-.07-.26-.11-.4-.13l-3.14-.3a.946.946 0 00-.5.08l-.27.12c-.48.22-1.05.02-1.3-.45l-.96-1.84c-.11-.21-.29-.38-.51-.47l-.41-.17a1 1 0 01-.63-.9l-.04-1.63c0-.16.03-.32.1-.46l.11-.23a.997.997 0 00-.42-1.31l-1.31-.72a.996.996 0 01-.46-.55l-.58-1.71c-.18-.52-.74-.8-1.26-.63l-1.5.49c-.31.1-.56.35-.65.67l-.46 1.58a.99.99 0 01-.24.41l-1.76 1.81c-.24.25-.6.36-.94.28l-.69-.16a.982.982 0 00-1 .34l-.97 1.18-1.16-11.67" stroke="#95a6b1"/></g><defs><path id="SVGID_1_" d="M0 48.26h65V65H0z"/></defs><clipPath id="SVGID_2_"><use xlink:href="#SVGID_1_" overflow="visible"/></clipPath><g clip-path="url(#SVGID_2_)"><path class="st0" d="M0 48.26h65V65H0z"/><path class="st4" d="M45.38 61.32h-7.17c-.66 0-1.2-.54-1.2-1.2s.54-1.2 1.2-1.2h7.17c.66 0 1.2.54 1.2 1.2s-.54 1.2-1.2 1.2zm7.73 0h-.58c-.66 0-1.2-.54-1.2-1.2s.54-1.2 1.2-1.2h.58c.66 0 1.2.54 1.2 1.2s-.54 1.2-1.2 1.2zm-34.12 0h-7.1c-.66 0-1.2-.54-1.2-1.2s.54-1.2 1.2-1.2h7.1c.66 0 1.2.54 1.2 1.2s-.54 1.2-1.2 1.2z"/><path d="M31.05 61.32H18.53c-.66 0-1.2-.54-1.2-1.2s.54-1.2 1.2-1.2h12.52c.66 0 1.2.54 1.2 1.2s-.54 1.2-1.2 1.2zm4.42-6.11H11.89c-.66 0-1.2-.54-1.2-1.2s.54-1.2 1.2-1.2h23.58c.66 0 1.2.54 1.2 1.2s-.54 1.2-1.2 1.2z" fill="#96d200"/><path class="st4" d="M53.11 55.21H34.75c-.66 0-1.2-.54-1.2-1.2s.54-1.2 1.2-1.2h18.36c.66 0 1.2.54 1.2 1.2s-.54 1.2-1.2 1.2zm-40.79 0h-.43c-.66 0-1.2-.54-1.2-1.2s.54-1.2 1.2-1.2h.43c.66 0 1.2.54 1.2 1.2s-.54 1.2-1.2 1.2z"/></g></svg>