<svg version="1.1" id="Capa_1" xmlns="http://www.w3.org/2000/svg" xmlns:xlink="http://www.w3.org/1999/xlink" x="0" y="0" viewBox="0 0 65 65" xml:space="preserve"><style>.st1{fill:none}.st4{fill:#4da12e}</style><g id="Grupo_13213_2_" transform="translate(-.246 -.246)"><path d="M43.746 18.326l-.9-3.21c-.11-.38.09-.78.46-.93l.03-.01c.33-.13.7-.03.91.26l1.33 1.77c.31.41.86.53 1.31.28l1.07-.59c.24-.13.41-.35.49-.61l.9-3.2c.06-.22.05-.45-.03-.65l-.9-2.24a.776.776 0 01.22-.88h0c.26-.22.64-.25.93-.06l.68.44c.34.22.78.22 1.12-.01l4.11-2.74c.32-.21.72-.23 1.06-.04l1.18.65c.43.24.63.75.47 1.22l-2.47 7.3c-.06.18-.17.34-.31.46l-4.38 3.63c-.28.23-.41.59-.35.95l.69 4.17c.05.27-.02.56-.19.78l-1.31 1.75c-.35.47-.24 1.13.24 1.45l2.77 1.87c.33.22.5.61.44 1l-.31 1.99c-.13.84-1.17 1.16-1.75.54h0c-.38-.4-1-.43-1.41-.07l-4.29 3.73c-.37.32-.93.33-1.31.02l-1.04-.84c-.47-.38-1.17-.27-1.5.24l-1.78 2.79c-.26.4-.2.93.14 1.27l.07.07c.39.39.4 1.02.02 1.42l-1.69 1.77c-.14.15-.23.33-.27.53l-.66 3.78c-.09.49-.51.84-1 .84h-1.79c-.22 0-.43-.07-.61-.2l-5.29-3.96c-.23-.17-.37-.43-.4-.71l-.67-6.65c-.03-.29-.18-.55-.41-.72l-4.09-2.97c-.37-.27-.89-.26-1.24.04l-2.38 1.95c-.32.26-.76.3-1.13.11l-4.03-2.16c-.27-.14-.46-.4-.52-.7l-.67-3.35c-.1-.49-.54-.84-1.04-.82l-3.95.15c-.69.03-1.21-.63-1.02-1.29l.96-3.4c.01-.03.02-.07.02-.1l.44-2.58c.13-.76 1.02-1.1 1.63-.63l3.94 3.06c.17.13.3.32.36.53l.39 1.39c.11.39.45.68.85.74l1.93.24c.11.01.23.05.33.1l4.26 2.13c.14.07.29.11.45.11l2.74.02c.57 0 1.03-.45 1.03-1.02v-2.37c0-.27.11-.53.3-.72l2.18-2.18c.4-.4 1.04-.4 1.44 0l.59.59c.26.26.36.63.27.98l-.41 1.57c-.25.96.87 1.67 1.63 1.04l.9-.74" fill="none" stroke="#95a6b1" stroke-width="1.6" stroke-linecap="round" stroke-linejoin="round" id="Grupo_13216_2_"/><path id="Rectángulo_3799-2_2_" class="st1" d="M.25.25h65v65h-65z"/></g><path id="Trazado_11848_7_" d="M42.86 22.43c0 2.31-1.87 4.18-4.18 4.18s-4.18-1.87-4.18-4.18 1.87-4.18 4.18-4.18h0c2.3-.01 4.17 1.85 4.18 4.15v.03z" fill="none" stroke="#19a500" stroke-width="1.6" stroke-linecap="round" stroke-linejoin="round" stroke-miterlimit="10"/><defs><path id="SVGID_1_" d="M0 48.26h65V65H0z"/></defs><clipPath id="SVGID_2_"><use xlink:href="#SVGID_1_" overflow="visible"/></clipPath><g clip-path="url(#SVGID_2_)"><path class="st1" d="M0 48.26h65V65H0z"/><path class="st4" d="M45.38 61.32h-7.17c-.66 0-1.2-.54-1.2-1.2s.54-1.2 1.2-1.2h7.17c.66 0 1.2.54 1.2 1.2s-.54 1.2-1.2 1.2zm7.73 0h-.58c-.66 0-1.2-.54-1.2-1.2s.54-1.2 1.2-1.2h.58c.66 0 1.2.54 1.2 1.2s-.54 1.2-1.2 1.2zm-34.12 0h-7.1c-.66 0-1.2-.54-1.2-1.2s.54-1.2 1.2-1.2h7.1c.66 0 1.2.54 1.2 1.2s-.54 1.2-1.2 1.2z"/><path d="M31.05 61.32H18.53c-.66 0-1.2-.54-1.2-1.2s.54-1.2 1.2-1.2h12.52c.66 0 1.2.54 1.2 1.2s-.54 1.2-1.2 1.2zm4.42-6.11H11.89c-.66 0-1.2-.54-1.2-1.2s.54-1.2 1.2-1.2h23.58c.66 0 1.2.54 1.2 1.2s-.54 1.2-1.2 1.2z" fill="#96d200"/><path class="st4" d="M53.11 55.21H34.75c-.66 0-1.2-.54-1.2-1.2s.54-1.2 1.2-1.2h18.36c.66 0 1.2.54 1.2 1.2s-.54 1.2-1.2 1.2zm-40.79 0h-.43c-.66 0-1.2-.54-1.2-1.2s.54-1.2 1.2-1.2h.43c.66 0 1.2.54 1.2 1.2s-.54 1.2-1.2 1.2z"/></g></svg>