<svg version="1.1" id="Capa_1" xmlns="http://www.w3.org/2000/svg" xmlns:xlink="http://www.w3.org/1999/xlink" x="0" y="0" viewBox="0 0 65 65" xml:space="preserve"><style>.st1,.st2{fill:none}.st2{stroke:#95a6b1;stroke-width:1.6;stroke-linecap:round;stroke-linejoin:round}.st5{fill:#4da12e}</style><path fill="none" stroke="#93a4af" stroke-width="1.8" stroke-linecap="round" stroke-linejoin="round" d="M16.04 48.91h34.81"/><path id="Rectángulo_3799-2_16_" class="st1" d="M0 0h65v65H0z"/><path class="st2" d="M27.25 16.53v32.15m13.79-8.99v8.92m-17.93-29.5l4.13 4.28m-4.13 5.97l4.13 4.29m4.18-14.53l-4.14 4.29m4.14 5.96l-4.14 4.29m14.87-7.65l2.6-2.66m-31.47 2.42a7.41 7.41 0 00-3.86 6.5c0 4.1 3.32 7.42 7.42 7.42h20.18a7.417 7.417 0 001.73-14.63 5.981 5.981 0 002.37-4.77c0-2.99-2.19-5.47-5.05-5.93.12-.59.18-1.21.18-1.83 0-5.14-4.17-9.32-9.32-9.32s-9.32 4.17-9.32 9.32"/><path class="st2" d="M33.02 39.69h16.14a5.94 5.94 0 005.94-5.94c0-2.8-1.94-5.14-4.55-5.77a4.793 4.793 0 001.89-3.82c0-2.39-1.75-4.37-4.04-4.74.09-.47.15-.96.15-1.47a7.45 7.45 0 00-7.45-7.45c-1.68 0-3.24.56-4.49 1.5"/><path id="Trazado_11848_10_" d="M19.84 19.13c0 2.31-1.87 4.18-4.18 4.18s-4.18-1.87-4.18-4.18 1.87-4.18 4.18-4.18h0c2.3-.01 4.17 1.85 4.18 4.15v.03z" fill="none" stroke="#19a500" stroke-width="1.6" stroke-linecap="round" stroke-linejoin="round" stroke-miterlimit="10"/><defs><path id="SVGID_1_" d="M0 48.26h65V65H0z"/></defs><clipPath id="SVGID_2_"><use xlink:href="#SVGID_1_" overflow="visible"/></clipPath><g clip-path="url(#SVGID_2_)"><path class="st1" d="M0 48.26h65V65H0z"/><path class="st5" d="M45.38 61.32h-7.17c-.66 0-1.2-.54-1.2-1.2s.54-1.2 1.2-1.2h7.17c.66 0 1.2.54 1.2 1.2s-.54 1.2-1.2 1.2zm7.73 0h-.58c-.66 0-1.2-.54-1.2-1.2s.54-1.2 1.2-1.2h.58c.66 0 1.2.54 1.2 1.2s-.54 1.2-1.2 1.2zm-34.12 0h-7.1c-.66 0-1.2-.54-1.2-1.2s.54-1.2 1.2-1.2h7.1c.66 0 1.2.54 1.2 1.2s-.54 1.2-1.2 1.2z"/><path d="M31.05 61.32H18.53c-.66 0-1.2-.54-1.2-1.2s.54-1.2 1.2-1.2h12.52c.66 0 1.2.54 1.2 1.2s-.54 1.2-1.2 1.2zm4.42-6.11H11.89c-.66 0-1.2-.54-1.2-1.2s.54-1.2 1.2-1.2h23.58c.66 0 1.2.54 1.2 1.2s-.54 1.2-1.2 1.2z" fill="#96d200"/><path class="st5" d="M53.11 55.21H34.75c-.66 0-1.2-.54-1.2-1.2s.54-1.2 1.2-1.2h18.36c.66 0 1.2.54 1.2 1.2s-.54 1.2-1.2 1.2zm-40.79 0h-.43c-.66 0-1.2-.54-1.2-1.2s.54-1.2 1.2-1.2h.43c.66 0 1.2.54 1.2 1.2s-.54 1.2-1.2 1.2z"/></g></svg>