<svg version="1.1" id="Capa_1" xmlns="http://www.w3.org/2000/svg" xmlns:xlink="http://www.w3.org/1999/xlink" x="0" y="0" viewBox="0 0 65 65" xml:space="preserve"><style>.st1{stroke:#95a6b1;stroke-width:1.6;stroke-linecap:round;stroke-linejoin:round}.st1,.st2{fill:none}.st4{fill:#4da12e}</style><g id="Grupo_12953" transform="translate(-.246 -.246)"><g id="Grupo_11525" transform="translate(9.455 4.993)"><circle id="Elipse_1898" cx="41.92" cy="10.74" r="4.67" fill="none" stroke="#19a500" stroke-width="1.6" stroke-miterlimit="10"/><g id="Grupo_11524"><path id="Trazado_10518" class="st1" d="M15.54 43.79c-4.63-2.48-9.52-4.87-13.78-7.95-2.91-2.1-1.87-5.1.56-6.97 2.6-2 5.31-3.87 8-5.77 1.8-1.26 3.67-2.4 5.48-3.65 1.12-.78 4.53-2.45 2.34-3.79-1.07-.66-4.19-2.05-4.19-2.05"/><path id="Línea_2023" class="st1" d="M16.42 7.78l10.34 4.02"/><path id="Trazado_10519" class="st1" d="M29.8 24.61l-3.04 3.45s-1.31 1.48 1.15 3.2S41.45 38 41.45 38"/><g id="Grupo_11520" transform="translate(26.05 6.919)"><path id="Línea_2024" class="st1" d="M9.52 23.8V7.61"/><path id="Línea_2025" class="st1" d="M12.57 12.49l-3.01 2.16"/><path id="Línea_2026" class="st1" d="M6.51 9.44l3.01 1.84"/><path id="Trazado_10520" class="st1" d="M18.4 10.77c-.83 5.05-5.6 8.48-10.65 7.65S-.73 12.82.1 7.77A9.28 9.28 0 019.88.02"/></g><g id="Grupo_11521" transform="translate(.167)"><path id="Línea_2027" class="st1" d="M8.02 20.13V4.72"/><path id="Línea_2028" class="st1" d="M4.96 9.6l3.02 2.16"/><path id="Línea_2029" class="st1" d="M11.03 6.55L8.02 8.4"/><circle id="Elipse_1899" class="st1" cx="7.82" cy="7.82" r="7.82"/></g><g id="Grupo_11522" transform="translate(6.755 29.746)"><path id="Trazado_10521" class="st1" d="M-.01-.02c.62.24 1.15.65 1.52 1.19.21.38.51.7.88.95.95.59 2.04-.36 2.36-1.05C5 .45 5.61.06 6.27.08"/><path id="Trazado_10522" class="st1" d="M6.27.08c.64.11 1.18.52 1.46 1.09.27.76 1.04 1.22 1.83 1.08.62-.17 1.14-.6 1.41-1.18.25-.62.86-1.01 1.52-.98"/><path id="Trazado_10523" class="st1" d="M12.58.08c.63.11 1.18.51 1.46 1.09.27.65.88 1.09 1.58 1.14"/></g><g id="Grupo_11523" transform="translate(17.963 37.534)"><path id="Trazado_10524" class="st1" d="M-.02-.02C.6.21 1.13.63 1.51 1.17c.21.38.51.7.88.95.95.58 2.03-.36 2.35-1.06C4.99.45 5.6.05 6.27.08"/><path id="Trazado_10525" class="st1" d="M6.27.08c.63.11 1.17.51 1.46 1.09.26.76 1.04 1.22 1.83 1.08.62-.17 1.14-.6 1.41-1.18.25-.62.86-1.01 1.52-.98"/><path id="Trazado_10526" class="st1" d="M12.58.08c.63.11 1.18.51 1.46 1.09.27.65.88 1.09 1.58 1.14"/></g></g></g></g><path id="Rectángulo_3799-2_12_" class="st2" d="M0 0h65v65H0z"/><defs><path id="SVGID_1_" d="M0 48.26h65V65H0z"/></defs><clipPath id="SVGID_2_"><use xlink:href="#SVGID_1_" overflow="visible"/></clipPath><g clip-path="url(#SVGID_2_)"><path class="st2" d="M0 48.26h65V65H0z"/><path class="st4" d="M45.38 61.32h-7.17c-.66 0-1.2-.54-1.2-1.2s.54-1.2 1.2-1.2h7.17c.66 0 1.2.54 1.2 1.2s-.54 1.2-1.2 1.2zm7.73 0h-.58c-.66 0-1.2-.54-1.2-1.2s.54-1.2 1.2-1.2h.58c.66 0 1.2.54 1.2 1.2s-.54 1.2-1.2 1.2zm-34.12 0h-7.1c-.66 0-1.2-.54-1.2-1.2s.54-1.2 1.2-1.2h7.1c.66 0 1.2.54 1.2 1.2s-.54 1.2-1.2 1.2z"/><path d="M31.05 61.32H18.53c-.66 0-1.2-.54-1.2-1.2s.54-1.2 1.2-1.2h12.52c.66 0 1.2.54 1.2 1.2s-.54 1.2-1.2 1.2zm4.42-6.11H11.89c-.66 0-1.2-.54-1.2-1.2s.54-1.2 1.2-1.2h23.58c.66 0 1.2.54 1.2 1.2s-.54 1.2-1.2 1.2z" fill="#96d200"/><path class="st4" d="M53.11 55.21H34.75c-.66 0-1.2-.54-1.2-1.2s.54-1.2 1.2-1.2h18.36c.66 0 1.2.54 1.2 1.2s-.54 1.2-1.2 1.2zm-40.79 0h-.43c-.66 0-1.2-.54-1.2-1.2s.54-1.2 1.2-1.2h.43c.66 0 1.2.54 1.2 1.2s-.54 1.2-1.2 1.2z"/></g></svg>