<svg version="1.1" id="Capa_1" xmlns="http://www.w3.org/2000/svg" xmlns:xlink="http://www.w3.org/1999/xlink" x="0" y="0" viewBox="0 0 65 65" xml:space="preserve"><style>.st1{stroke:#95a6b1;stroke-width:1.6;stroke-linecap:round;stroke-linejoin:round}.st1,.st2{fill:none}.st4{fill:#4da12e}</style><g id="Grupo_13213_4_" transform="translate(-.246 -.246)"><g id="Grupo_13216_4_" transform="translate(.246 .246)"><g id="Grupo_13215_2_" transform="translate(8.143 7.013)"><circle id="Elipse_2037_2_" cx="44.08" cy="21.44" r="4.67" fill="none" stroke="#19a500" stroke-width="1.6" stroke-linecap="round" stroke-linejoin="round" stroke-miterlimit="10"/><g id="Grupo_13213-2_2_"><path id="Trazado_11524_2_" class="st1" d="M44.1 14.48C42.29 5.95 34.71-.12 25.99-.03c-11.28 0-12.57 6.57-12.57 6.57-2.07.14-6.07 6.78.43 10.57s11.92-2.14 11.92-2.14 5.86 2.57 5.86 8.35-6.29 9.58-8.29 9.72"/><path id="Trazado_11525_2_" class="st1" d="M38.77 37.46c1.87-2.72 3.33-5.71 4.31-8.86"/><path id="Trazado_11526_2_" class="st1" d="M15.57 29.32s8.07-3.57 7.14-11.92"/><path id="Trazado_11527_2_" class="st1" d="M32.13 32.89s-10.21 2.93-18-4.43c0 0-3.29-3.57-3.86-6.57l-.07-4.57s-1.96 1.77-3.42-1.11c0 0 0 3.61-3.45 1.73 0 0 1.04 2.72-2.3 2.84 0 0 1.76 2.3-1.07 4.26 4.5 2.27 7.02 7.18 6.25 12.16"/><path id="Línea_2326_2_" class="st1" d="M14.81 20.62l-.43-3.13"/><path id="Línea_2327_2_" class="st1" d="M17.63 21.01l-.99-2.75"/><path id="Línea_2328_2_" class="st1" d="M20.92 21.05l-1.75-2.56"/><circle id="Elipse_2038_2_" class="st1" cx="13.51" cy="10.96" r=".83"/><path id="Trazado_11528_2_" class="st1" d="M31.29 7.08l2.51-1.45c.87-.5 1.99-.2 2.5.67.5.87.2 1.99-.67 2.5l-2.42 1.4"/><path id="Trazado_11529_2_" class="st1" d="M16.44 7.19s1.69 2.85 4.9.26"/></g><g id="Grupo_13214_2_" transform="translate(1.789 37.044)"><path id="Trazado_11530_2_" class="st1" d="M-.05 4.32a7.24 7.24 0 003.33-2.27C3.77 1.3 4.43.68 5.2.23c3.86-2.08 5.02 4.05 8.49 3.89"/><path id="Trazado_11531_2_" class="st1" d="M13.68 4.12c1.32-.18 2.49-.94 3.19-2.08a3.666 3.666 0 014-2.06c1.79.4 2.44 1.59 3.54 2.89.7.85 1.76 1.32 2.86 1.25"/><path id="Trazado_11532_2_" class="st1" d="M27.47 4.12c1.32-.18 2.49-.94 3.19-2.08a4.1 4.1 0 013.46-2.18c3.25.06 3.65 4.41 6.94 4.26"/></g></g></g><path id="Rectángulo_3799-2_4_" class="st2" d="M.25.25h65v65h-65z"/></g><path id="Rectángulo_3799-2_11_" class="st2" d="M0 0h65v65H0z"/><defs><path id="SVGID_1_" d="M0 48.26h65V65H0z"/></defs><clipPath id="SVGID_2_"><use xlink:href="#SVGID_1_" overflow="visible"/></clipPath><g clip-path="url(#SVGID_2_)"><path class="st2" d="M0 48.26h65V65H0z"/><path class="st4" d="M45.38 61.32h-7.17c-.66 0-1.2-.54-1.2-1.2s.54-1.2 1.2-1.2h7.17c.66 0 1.2.54 1.2 1.2s-.54 1.2-1.2 1.2zm7.73 0h-.58c-.66 0-1.2-.54-1.2-1.2s.54-1.2 1.2-1.2h.58c.66 0 1.2.54 1.2 1.2s-.54 1.2-1.2 1.2zm-34.12 0h-7.1c-.66 0-1.2-.54-1.2-1.2s.54-1.2 1.2-1.2h7.1c.66 0 1.2.54 1.2 1.2s-.54 1.2-1.2 1.2z"/><path d="M31.05 61.32H18.53c-.66 0-1.2-.54-1.2-1.2s.54-1.2 1.2-1.2h12.52c.66 0 1.2.54 1.2 1.2s-.54 1.2-1.2 1.2zm4.42-6.11H11.89c-.66 0-1.2-.54-1.2-1.2s.54-1.2 1.2-1.2h23.58c.66 0 1.2.54 1.2 1.2s-.54 1.2-1.2 1.2z" fill="#96d200"/><path class="st4" d="M53.11 55.21H34.75c-.66 0-1.2-.54-1.2-1.2s.54-1.2 1.2-1.2h18.36c.66 0 1.2.54 1.2 1.2s-.54 1.2-1.2 1.2zm-40.79 0h-.43c-.66 0-1.2-.54-1.2-1.2s.54-1.2 1.2-1.2h.43c.66 0 1.2.54 1.2 1.2s-.54 1.2-1.2 1.2z"/></g></svg>