<svg version="1.1" id="Capa_1" xmlns="http://www.w3.org/2000/svg" xmlns:xlink="http://www.w3.org/1999/xlink" x="0" y="0" viewBox="0 0 65 65" xml:space="preserve"><style>.st0{stroke:#95a6b1;stroke-width:1.6;stroke-linecap:round;stroke-linejoin:round}.st0,.st2{fill:none}.st4{fill:#4da12e}</style><path class="st0" d="M33.01 44.49s-5.91-6.83 0-14.42c0 0 6.05 5.16 0 14.42z"/><path class="st0" d="M22.32 26.55c-.37-3.05.09-6.1 2.05-9.57 0 0 6.19 6.02 6.73 15.89"/><path class="st0" d="M28.08 39.32s-13.65-7.51-12.19-17.7c0 0 6.45 2.92 9.96 10.2"/><path class="st0" d="M32.05 44.18s-8.42-7.35-5.87-19.17c0 0 3.22 2.08 5.01 7.24"/><path class="st0" d="M33.07 45.17s-15.66-1.38-26.7-17.35c0 0 6.95 1.67 14.04 5.63"/><path class="st0" d="M22.57 41.81s-3.3-.23-5.8 1.59c0 0 7.44 7.97 16.3 1.77m0-.68s5.91-6.83 0-14.42c0 0-6.06 5.16 0 14.42z"/><path class="st0" d="M43.76 26.57c.37-3.05-.09-6.12-2.05-9.58 0 0-6.19 6.02-6.73 15.89M38 39.32s13.65-7.51 12.19-17.7c0 0-6.31 3.04-9.81 10.32"/><path class="st0" d="M34.03 44.18s8.42-7.35 5.87-19.17c0 0-3.22 2.08-5.01 7.24"/><path class="st0" d="M33 45.17s15.66-1.38 26.7-17.35c0 0-6.95 1.67-14.04 5.63"/><path class="st0" d="M43.51 41.81s3.3-.23 5.8 1.59c0 0-7.44 7.97-16.3 1.77M34.54 7.6c.14-.25.23-.53.23-.84 0-.94-.76-1.71-1.71-1.71s-1.71.76-1.71 1.71c0 .3.09.59.23.83-.94 0-1.7.77-1.7 1.71s.76 1.71 1.71 1.71c.61 0 1.15-.33 1.45-.81a1.706 1.706 0 003.16-.9c-.02-.92-.75-1.67-1.66-1.7zm-1.53 13.47l.02-10.87m16.66 3.9c.23-.17.43-.39.56-.67.4-.86.02-1.87-.83-2.27-.86-.4-1.87-.02-2.27.83-.13.28-.17.57-.14.85-.86-.39-1.87-.02-2.26.84-.4.86-.02 1.87.83 2.27.56.26 1.18.19 1.65-.13.07.57.42 1.09.97 1.34.86.4 1.87.02 2.27-.83.38-.83.03-1.81-.78-2.23zm-5.82 8.46l3.36-6.73m-25.11 6.73L19.5 16.9m10.02 9.17s.94-3.24 3.37-5.4c0 0 3.1 2.56 3.51 5.67"/><path id="Trazado_11848_5_" d="M21.59 13.14c0 2.31-1.87 4.18-4.18 4.18s-4.18-1.87-4.18-4.18 1.87-4.18 4.18-4.18h0c2.3-.01 4.17 1.85 4.18 4.15v.03z" fill="none" stroke="#19a500" stroke-width="1.6" stroke-linecap="round" stroke-linejoin="round" stroke-miterlimit="10"/><path class="st0" d="M7.57 47.65h49.86"/><g id="Grupo_13216_9_" transform="translate(.246 .246)"><path id="Rectángulo_3799_11_" class="st2" d="M-.25-.25h65v65h-65z"/></g><path id="Rectángulo_3799-2_9_" class="st2" d="M0 0h65v65H0z"/><defs><path id="SVGID_1_" d="M0 48.26h65V65H0z"/></defs><clipPath id="SVGID_2_"><use xlink:href="#SVGID_1_" overflow="visible"/></clipPath><g clip-path="url(#SVGID_2_)"><path class="st2" d="M0 48.26h65V65H0z"/><path class="st4" d="M45.38 61.32h-7.17c-.66 0-1.2-.54-1.2-1.2s.54-1.2 1.2-1.2h7.17c.66 0 1.2.54 1.2 1.2s-.54 1.2-1.2 1.2zm7.73 0h-.58c-.66 0-1.2-.54-1.2-1.2s.54-1.2 1.2-1.2h.58c.66 0 1.2.54 1.2 1.2s-.54 1.2-1.2 1.2zm-34.12 0h-7.1c-.66 0-1.2-.54-1.2-1.2s.54-1.2 1.2-1.2h7.1c.66 0 1.2.54 1.2 1.2s-.54 1.2-1.2 1.2z"/><path d="M31.05 61.32H18.53c-.66 0-1.2-.54-1.2-1.2s.54-1.2 1.2-1.2h12.52c.66 0 1.2.54 1.2 1.2s-.54 1.2-1.2 1.2zm4.42-6.11H11.89c-.66 0-1.2-.54-1.2-1.2s.54-1.2 1.2-1.2h23.58c.66 0 1.2.54 1.2 1.2s-.54 1.2-1.2 1.2z" fill="#96d200"/><path class="st4" d="M53.11 55.21H34.75c-.66 0-1.2-.54-1.2-1.2s.54-1.2 1.2-1.2h18.36c.66 0 1.2.54 1.2 1.2s-.54 1.2-1.2 1.2zm-40.79 0h-.43c-.66 0-1.2-.54-1.2-1.2s.54-1.2 1.2-1.2h.43c.66 0 1.2.54 1.2 1.2s-.54 1.2-1.2 1.2z"/></g></svg>