<svg version="1.1" id="Capa_1" xmlns="http://www.w3.org/2000/svg" xmlns:xlink="http://www.w3.org/1999/xlink" x="0" y="0" viewBox="0 0 65 65" xml:space="preserve"><style>.st0,.st1{stroke-width:1.6;stroke-linecap:round;stroke-linejoin:round}.st0{fill:none;stroke:#93a4af}.st1{stroke:#95a6b1}.st1,.st3{fill:none}.st5{fill:#4da12e}</style><path class="st0" d="M37.68 41.73h7.29m2.97 0h1.24m-22.75 5.78V38.5c0-7.72 6.25-13.97 13.97-13.97 7.72 0 13.97 6.25 13.97 13.97v9.01"/><path class="st0" d="M10.95 47.4v-3.27c0-7.72 6.25-13.97 13.97-13.97 1.31 0 2.58.18 3.79.52M7.57 47.65h49.86"/><g id="Grupo_11520_1_" transform="translate(26.05 6.919)"><path id="Línea_2024_1_" class="st1" d="M-3.51 23.25V7.06"/><path id="Línea_2025_1_" class="st1" d="M-.45 11.94l-3.01 2.16"/><path id="Línea_2026_1_" class="st1" d="M-6.52 8.89l3.01 1.84"/><path id="Trazado_10520_1_" class="st1" d="M5.37 10.21c-.83 5.05-5.6 8.48-10.65 7.65-5.05-.83-8.48-5.6-7.65-10.65A9.28 9.28 0 01-3.15-.54"/></g><path id="Trazado_11848_4_" d="M24.59 10.54c0 2.31 1.87 4.18 4.18 4.18s4.18-1.87 4.18-4.18-1.87-4.18-4.18-4.18h0a4.165 4.165 0 00-4.18 4.15v.03z" fill="none" stroke="#00a800" stroke-width="1.6" stroke-linecap="round" stroke-linejoin="round" stroke-miterlimit="10"/><g id="Grupo_13216_8_" transform="translate(.246 .246)"><path id="Rectángulo_3799_10_" class="st3" d="M-.25-.25h65v65h-65z"/></g><path id="Rectángulo_3799-2_8_" class="st3" d="M0 0h65v65H0z"/><defs><path id="SVGID_1_" d="M0 48.26h65V65H0z"/></defs><clipPath id="SVGID_2_"><use xlink:href="#SVGID_1_" overflow="visible"/></clipPath><g clip-path="url(#SVGID_2_)"><path class="st3" d="M0 48.26h65V65H0z"/><path class="st5" d="M45.38 61.32h-7.17c-.66 0-1.2-.54-1.2-1.2s.54-1.2 1.2-1.2h7.17c.66 0 1.2.54 1.2 1.2s-.54 1.2-1.2 1.2zm7.73 0h-.58c-.66 0-1.2-.54-1.2-1.2s.54-1.2 1.2-1.2h.58c.66 0 1.2.54 1.2 1.2s-.54 1.2-1.2 1.2zm-34.12 0h-7.1c-.66 0-1.2-.54-1.2-1.2s.54-1.2 1.2-1.2h7.1c.66 0 1.2.54 1.2 1.2s-.54 1.2-1.2 1.2z"/><path d="M31.05 61.32H18.53c-.66 0-1.2-.54-1.2-1.2s.54-1.2 1.2-1.2h12.52c.66 0 1.2.54 1.2 1.2s-.54 1.2-1.2 1.2zm4.42-6.11H11.89c-.66 0-1.2-.54-1.2-1.2s.54-1.2 1.2-1.2h23.58c.66 0 1.2.54 1.2 1.2s-.54 1.2-1.2 1.2z" fill="#96d200"/><path class="st5" d="M53.11 55.21H34.75c-.66 0-1.2-.54-1.2-1.2s.54-1.2 1.2-1.2h18.36c.66 0 1.2.54 1.2 1.2s-.54 1.2-1.2 1.2zm-40.79 0h-.43c-.66 0-1.2-.54-1.2-1.2s.54-1.2 1.2-1.2h.43c.66 0 1.2.54 1.2 1.2s-.54 1.2-1.2 1.2z"/></g></svg>