<svg version="1.1" id="Capa_1" xmlns="http://www.w3.org/2000/svg" xmlns:xlink="http://www.w3.org/1999/xlink" x="0" y="0" viewBox="0 0 65 65" xml:space="preserve"><style>.st0{stroke:#95a6b1;stroke-width:1.6;stroke-linecap:round;stroke-linejoin:round}.st0,.st2{fill:none}.st4{fill:#4da12e}</style><g id="Grupo_12943_1_" transform="translate(823.843 208.991)"><g id="Grupo_12040_1_" transform="translate(-815.047 -200.226)"><path id="Trazado_10737_1_" class="st0" d="M2.65 16.28v23.27h7.46V16.29"/><path id="Rectángulo_4147_1_" class="st0" d="M38.58 10.79h4.9c2.12 0 3.84 1.72 3.84 3.84v7.25c0 2.12-1.72 3.84-3.84 3.84h-4.9c-2.12 0-3.84-1.72-3.84-3.84v-7.25c0-2.12 1.72-3.84 3.84-3.84z"/><path id="Rectángulo_4148_1_" class="st0" d="M3.92 10.79h4.9c2.12 0 3.84 1.72 3.84 3.84v7.25c0 2.12-1.72 3.84-3.84 3.84h-4.9C1.8 25.72.08 24 .08 21.88v-7.25c0-2.12 1.72-3.84 3.84-3.84z"/><path id="Trazado_10738_1_" class="st0" d="M40.95 20.05V14.3l-1.79-3.24"/><path id="Línea_2149_1_" class="st0" d="M42.97 10.83l-2.02 3.47"/><path id="Trazado_10739_1_" class="st0" d="M37.4 14.72V39.7h7.15V14.72"/><path id="Línea_2150_1_" class="st0" d="M6.41 25.81v13.6"/><path id="Línea_2151_1_" class="st0" d="M41.11 25.76v13.82"/><circle id="Elipse_1974_1_" class="st0" cx="6.24" cy="5.19" r="3.36"/><path id="Línea_2152_1_" class="st0" d="M9.16 4.23H3.33"/><path id="Línea_2153_1_" class="st0" d="M6.3-.1v4.33"/><g id="Grupo_12039_1_" transform="translate(17.525 1.947)"><path id="Trazado_10740_1_" class="st0" d="M2.72 9.16v7.47L1.07 29.69h10.36L9.77 16.74v-7.4"/><path id="Rectángulo_4149_1_" class="st0" d="M3.73 8.84h4.9c2.12 0 3.84 1.72 3.84 3.84v7.25c0 2.12-1.72 3.84-3.84 3.84h-4.9c-2.12 0-3.84-1.72-3.84-3.84v-7.25c0-2.12 1.72-3.84 3.84-3.84z"/><path id="Trazado_10741_1_" class="st0" d="M2.57 29.68v7.9h7.28v-7.84"/><path id="Línea_2154_1_" class="st0" d="M6.29 29.89v7.45"/><path id="Línea_2155_1_" class="st0" d="M2.72 16.63h7.05"/><circle id="Elipse_1975_1_" cx="6.05" cy="3.24" r="3.36" fill="none" stroke="#19a500" stroke-width="1.6" stroke-linecap="round" stroke-linejoin="round" stroke-miterlimit="10"/></g><circle id="Elipse_1976_1_" class="st0" cx="40.97" cy="5.19" r="3.36"/></g></g><path id="Rectángulo_3799-2_14_" class="st2" d="M0 0h65v65H0z"/><defs><path id="SVGID_1_" d="M0 48.26h65V65H0z"/></defs><clipPath id="SVGID_2_"><use xlink:href="#SVGID_1_" overflow="visible"/></clipPath><g clip-path="url(#SVGID_2_)"><path class="st2" d="M0 48.26h65V65H0z"/><path class="st4" d="M45.38 61.32h-7.17c-.66 0-1.2-.54-1.2-1.2s.54-1.2 1.2-1.2h7.17c.66 0 1.2.54 1.2 1.2s-.54 1.2-1.2 1.2zm7.73 0h-.58c-.66 0-1.2-.54-1.2-1.2s.54-1.2 1.2-1.2h.58c.66 0 1.2.54 1.2 1.2s-.54 1.2-1.2 1.2zm-34.12 0h-7.1c-.66 0-1.2-.54-1.2-1.2s.54-1.2 1.2-1.2h7.1c.66 0 1.2.54 1.2 1.2s-.54 1.2-1.2 1.2z"/><path d="M31.05 61.32H18.53c-.66 0-1.2-.54-1.2-1.2s.54-1.2 1.2-1.2h12.52c.66 0 1.2.54 1.2 1.2s-.54 1.2-1.2 1.2zm4.42-6.11H11.89c-.66 0-1.2-.54-1.2-1.2s.54-1.2 1.2-1.2h23.58c.66 0 1.2.54 1.2 1.2s-.54 1.2-1.2 1.2z" fill="#96d200"/><path class="st4" d="M53.11 55.21H34.75c-.66 0-1.2-.54-1.2-1.2s.54-1.2 1.2-1.2h18.36c.66 0 1.2.54 1.2 1.2s-.54 1.2-1.2 1.2zm-40.79 0h-.43c-.66 0-1.2-.54-1.2-1.2s.54-1.2 1.2-1.2h.43c.66 0 1.2.54 1.2 1.2s-.54 1.2-1.2 1.2z"/></g></svg>