<svg version="1.1" id="Capa_1" xmlns="http://www.w3.org/2000/svg" xmlns:xlink="http://www.w3.org/1999/xlink" x="0" y="0" viewBox="0 0 65 65" xml:space="preserve"><style>.st0{fill:none}.st1,.st3{fill:none;stroke:#95a6b1;stroke-width:1.6;stroke-linecap:round;stroke-linejoin:round}.st3{stroke-miterlimit:10}.st5{fill:#4da12e}.st7{fill:none;stroke:#95a6b1;stroke-width:1.5902;stroke-linecap:round;stroke-linejoin:round}</style><g id="Grupo_14998_1_" transform="translate(-83.703)"><path id="Rectángulo_3799-2_15_" class="st0" d="M83.7 0h65v65h-65z"/><g id="Grupo_15257" transform="translate(-5.723 -1.554)"><g id="Grupo_15256"><path id="Línea_2918" class="st1" d="M96.48 50.82h51.4"/><path id="Trazado_12587" class="st1" d="M100.18 18.16V16a3.11 3.11 0 013.12-3.11h8.62c1.72 0 3.12 1.39 3.12 3.11v16.95"/><path id="Línea_2919" class="st1" d="M100.18 50.82V31.81"/><path id="Trazado_12588" class="st1" d="M129.04 50.74V33.26c0-1.66 1.34-3 3-3h9.12c1.66 0 3 1.34 3 3v17.56"/><path id="Trazado_12589" class="st1" d="M123.3 50.74V27.77c0-1.66 1.34-3 3-3h7.22c1.66 0 3 1.34 3 3v2.34"/><path id="Trazado_11848" d="M104.34 24.87c0 2.31-1.88 4.18-4.19 4.18-2.31 0-4.18-1.88-4.18-4.19s1.87-4.18 4.18-4.18h0c2.3-.01 4.17 1.85 4.18 4.15v.04h.01z" fill="none" stroke="#00a800" stroke-width="1.6" stroke-linecap="round" stroke-linejoin="round" stroke-miterlimit="10"/></g></g><path class="st3" d="M125.61 18.91v3.99m12.67-20.45H118.1a5.15 5.15 0 00-5.15 5.15v11.28h20.18a5.15 5.15 0 005.15-5.15V2.45zm-8.31 13.62V8.53"/><path class="st3" d="M132.24 5.49h-.16c-1.16 0-2.12.95-2.12 2.12v3.34h2.12c1.25 0 2.28-1.02 2.28-2.28V7.61c0-1.17-.95-2.12-2.12-2.12zm2.11 10.58l-4.38-5.12m-9.48-3.51c0-1.13-.93-2.06-2.06-2.06h-.25c-1.15 0-2.08.94-2.08 2.08v1.12c0 1.15.94 2.08 2.08 2.08h.23m-2.32 3.21c0 1.15.94 2.08 2.08 2.08h.23c1.15 0 2.08-.94 2.08-2.08v-1.15c0-1.13-.93-2.06-2.06-2.06h-.25"/><path id="Trazado_12473_9_" class="st1" d="M125.29 5.49h-.16c-1.17 0-2.11.95-2.12 2.12v6.33c0 1.17.95 2.11 2.12 2.12h.16c1.17 0 2.11-.95 2.12-2.12V7.61c0-1.17-.95-2.12-2.12-2.12z"/></g><defs><path id="SVGID_1_" d="M0 48.26h65V65H0z"/></defs><clipPath id="SVGID_2_"><use xlink:href="#SVGID_1_" overflow="visible"/></clipPath><g clip-path="url(#SVGID_2_)"><path class="st0" d="M0 48.26h65V65H0z"/><path class="st5" d="M45.38 61.32h-7.17c-.66 0-1.2-.54-1.2-1.2s.54-1.2 1.2-1.2h7.17c.66 0 1.2.54 1.2 1.2s-.54 1.2-1.2 1.2zm7.73 0h-.58c-.66 0-1.2-.54-1.2-1.2s.54-1.2 1.2-1.2h.58c.66 0 1.2.54 1.2 1.2s-.54 1.2-1.2 1.2zm-34.12 0h-7.1c-.66 0-1.2-.54-1.2-1.2s.54-1.2 1.2-1.2h7.1c.66 0 1.2.54 1.2 1.2s-.54 1.2-1.2 1.2z"/><path d="M31.05 61.32H18.53c-.66 0-1.2-.54-1.2-1.2s.54-1.2 1.2-1.2h12.52c.66 0 1.2.54 1.2 1.2s-.54 1.2-1.2 1.2zm4.42-6.11H11.89c-.66 0-1.2-.54-1.2-1.2s.54-1.2 1.2-1.2h23.58c.66 0 1.2.54 1.2 1.2s-.54 1.2-1.2 1.2z" fill="#96d200"/><path class="st5" d="M53.11 55.21H34.75c-.66 0-1.2-.54-1.2-1.2s.54-1.2 1.2-1.2h18.36c.66 0 1.2.54 1.2 1.2s-.54 1.2-1.2 1.2zm-40.79 0h-.43c-.66 0-1.2-.54-1.2-1.2s.54-1.2 1.2-1.2h.43c.66 0 1.2.54 1.2 1.2s-.54 1.2-1.2 1.2z"/></g><path class="st7" d="M33.87 43.5V31.4l-6.21 2.54V31.4l-5.65 2.3v-2.3l-11.25 4.12v7.98"/><path class="st7" d="M13.96 38.56h16.3v4.28h-16.3zm25.66-3.9h15.11M25.6 19.78h-5.62m5.62 3.98h-3.62m18.51 15.23h3.44"/></svg>