<svg version="1.1" id="Capa_1" xmlns="http://www.w3.org/2000/svg" xmlns:xlink="http://www.w3.org/1999/xlink" x="0" y="0" viewBox="0 0 65 65" xml:space="preserve"><style>.st1{stroke:#95a6b1;stroke-width:1.6;stroke-linecap:round;stroke-linejoin:round}.st1,.st2{fill:none}.st4{fill:#4da12e}</style><g id="Grupo_12949_1_" transform="translate(-.246 -.246)"><g id="Grupo_11514_1_" transform="translate(10.072 11.149)"><circle id="Elipse_1897_1_" cx="9.21" cy="7.23" r="4.66" fill="none" stroke="#19a500" stroke-width="1.6" stroke-miterlimit="10"/><g id="Grupo_11513_1_"><path id="Trazado_10514_1_" class="st1" d="M6.16 12.94c-.01.15-.02.31-.02.47 0 .35.03.71.09 1.06-3.53.49-6.17 3.5-6.18 7.06v.14c.01 3.94 3.2 7.12 7.13 7.13h14.88c3.94-.01 7.12-3.2 7.13-7.13v-.14a7.153 7.153 0 00-7.13-7.13h-1.15c.05-.33.08-.65.08-.98a7.094 7.094 0 00-5.28-6.73"/><path id="Trazado_10515_1_" class="st1" d="M23.47 14.27c.28-4.23 3.94-7.43 8.17-7.15s7.43 3.94 7.15 8.17-3.94 7.43-8.17 7.15c-.47-.03-.94-.11-1.4-.22"/><g id="Grupo_11509_1_" transform="translate(30.71)"><path id="Línea_2011_1_" class="st1" d="M.05 4.33V.05"/><path id="Línea_2012_1_" class="st1" d="M.05 24.58v4.53"/></g><g id="Grupo_11510_1_" transform="translate(20.436 4.256)"><path id="Línea_2013_1_" class="st1" d="M17.58 3.08L20.6.05"/></g><g id="Grupo_11511_1_" transform="translate(20.436 4.256)"><path id="Línea_2014_1_" class="st1" d="M3.08 3.08L.05.05"/><path id="Línea_2015_1_" class="st1" d="M17.4 17.4l3.2 3.2"/></g><g id="Grupo_11512_1_" transform="translate(40.963 14.53)"><path id="Línea_2016_1_" class="st1" d="M.05.05h4.28"/></g><path id="Línea_2017_1_" class="st1" d="M10.28 28.98l-3.73 3.81"/><path id="Línea_2018_1_" class="st1" d="M14.25 33.11l-3.73 3.81"/><path id="Línea_2019_1_" class="st1" d="M20.49 31.66l-3.72 3.81"/></g></g></g><path id="Rectángulo_3799-2_13_" class="st2" d="M0 0h65v65H0z"/><defs><path id="SVGID_1_" d="M0 48.26h65V65H0z"/></defs><clipPath id="SVGID_2_"><use xlink:href="#SVGID_1_" overflow="visible"/></clipPath><g clip-path="url(#SVGID_2_)"><path class="st2" d="M0 48.26h65V65H0z"/><path class="st4" d="M45.38 61.32h-7.17c-.66 0-1.2-.54-1.2-1.2s.54-1.2 1.2-1.2h7.17c.66 0 1.2.54 1.2 1.2s-.54 1.2-1.2 1.2zm7.73 0h-.58c-.66 0-1.2-.54-1.2-1.2s.54-1.2 1.2-1.2h.58c.66 0 1.2.54 1.2 1.2s-.54 1.2-1.2 1.2zm-34.12 0h-7.1c-.66 0-1.2-.54-1.2-1.2s.54-1.2 1.2-1.2h7.1c.66 0 1.2.54 1.2 1.2s-.54 1.2-1.2 1.2z"/><path d="M31.05 61.32H18.53c-.66 0-1.2-.54-1.2-1.2s.54-1.2 1.2-1.2h12.52c.66 0 1.2.54 1.2 1.2s-.54 1.2-1.2 1.2zm4.42-6.11H11.89c-.66 0-1.2-.54-1.2-1.2s.54-1.2 1.2-1.2h23.58c.66 0 1.2.54 1.2 1.2s-.54 1.2-1.2 1.2z" fill="#96d200"/><path class="st4" d="M53.11 55.21H34.75c-.66 0-1.2-.54-1.2-1.2s.54-1.2 1.2-1.2h18.36c.66 0 1.2.54 1.2 1.2s-.54 1.2-1.2 1.2zm-40.79 0h-.43c-.66 0-1.2-.54-1.2-1.2s.54-1.2 1.2-1.2h.43c.66 0 1.2.54 1.2 1.2s-.54 1.2-1.2 1.2z"/></g></svg>