<svg version="1.1" id="Layer_1" xmlns="http://www.w3.org/2000/svg" x="0" y="0" viewBox="0 0 32 32" xml:space="preserve"><style>.st0{fill:#fff}</style><g id="Group_3225" transform="translate(3470 -399)"><g id="Group_3214" transform="translate(-4.671 -27.297)"><path class="st0" d="M-3449.2 446.4c-.4 0-.7-.3-.7-.7v-7.4c0-.4.3-.7.7-.7s.7.3.7.7v7.4c0 .4-.3.7-.7.7z" id="Line_1497"/><path class="st0" d="M-3447.6 443.6h-1.6c-.4 0-.7-.3-.7-.7v-4.7c0-.4.3-.7.7-.7h1.6c1.7 0 3 1.4 3 3s-1.3 3.1-3 3.1zm-.9-1.4h.9c.9 0 1.6-.7 1.6-1.6s-.7-1.6-1.6-1.6h-.9v3.2z" id="Path_1353"/><path class="st0" d="M-3443.8 446.4c-.4 0-.7-.3-.7-.7v-7.4c0-.4.3-.7.7-.7s.7.3.7.7v7.4c.1.4-.3.7-.7.7z" id="Line_1498"/><path class="st0" d="M-3442.2 443.6h-1.6c-.4 0-.7-.3-.7-.7v-4.7c0-.4.3-.7.7-.7h1.6c1.7 0 3 1.4 3 3s-1.3 3.1-3 3.1zm-.8-1.4h.9c.9 0 1.6-.7 1.6-1.6s-.7-1.6-1.6-1.6h-.9v3.2z" id="Path_1354"/><path class="st0" d="M-3456.9 446.4h-.3c-.4-.1-.5-.5-.4-.9l2.9-7.4c.1-.3.4-.4.7-.4.3 0 .5.2.7.4l2.9 7.4c.1.4 0 .8-.4.9-.4.1-.8 0-.9-.4l-2.3-5.8-2.3 5.8c0 .2-.3.4-.6.4z" id="Path_1355"/><path class="st0" d="M-3452.1 443.6h-3.6c-.4 0-.7-.3-.7-.7s.3-.7.7-.7h3.6c.4 0 .7.3.7.7s-.3.7-.7.7z" id="Line_1499"/><path class="st0" d="M-3458.5 436.7c-1 0-1.8-.4-2.5-1s-1-1.6-1-2.5c0-1.9 1.6-3.5 3.5-3.5s3.5 1.6 3.5 3.5-1.6 3.5-3.5 3.5zm0-5.7c-1.2 0-2.1 1-2.1 2.1 0 .6.2 1.1.6 1.5.4.4.9.6 1.5.6 1.2 0 2.1-1 2.1-2.1s-.9-2.1-2.1-2.1z" id="Path_1356"/><path class="st0" d="M-3436.7 443.7c-.4 0-.7-.3-.7-.7v-10.5h-14.8c-.4 0-.7-.3-.7-.7s.3-.7.7-.7h15.5c.4 0 .7.3.7.7V443c0 .4-.3.7-.7.7z" id="Path_1357"/><path class="st0" d="M-3443.9 451.3h-16.1c-.4 0-.7-.3-.7-.7v-11.4c0-.4.3-.7.7-.7s.7.3.7.7v10.7h15.4c.4 0 .7.3.7.7s-.3.7-.7.7z" id="Path_1358"/><path class="st0" d="M-3441 451.3h-11.2c-.4 0-.7-.3-.7-.7s.3-.7.7-.7h11.2c2 0 3.6-1.6 3.6-3.6v-6.9c0-.4.3-.7.7-.7s.7.3.7.7v6.9c0 2.8-2.2 5-5 5z" id="Path_1359"/><path class="st0" d="M-3449.3 451.3c-.2 0-.4-.1-.5-.2s-.2-.3-.2-.5c0-.1 0-.2.1-.3 0-.1.1-.2.1-.2.2-.2.5-.3.8-.1.1 0 .2.1.2.1.1.1.1.1.1.2v.3c0 .2-.1.4-.2.5 0 .2-.2.2-.4.2z" id="Line_1500"/><path class="st0" d="M-3449.3 455.4c-.4 0-.7-.3-.7-.7v-4.1c0-.4.3-.7.7-.7s.7.3.7.7v4.1c0 .4-.3.7-.7.7z" id="Line_1501"/><path class="st0" d="M-3445.5 455.4h-7.5c-.4 0-.7-.3-.7-.7s.3-.7.7-.7h7.5c.4 0 .7.3.7.7s-.3.7-.7.7z" id="Line_1502"/></g><path fill="none" d="M-3470 399h32v32h-32z" id="Rectangle_1194"/></g></svg>