<svg version="1.1" id="Layer_1" xmlns="http://www.w3.org/2000/svg" x="0" y="0" width="32" height="32" xml:space="preserve"><style>.st1{fill:#fff}</style><path fill="none" d="M0 0h32v32H0z" id="Rectangle_1194"/><path class="st1" d="M28.1 11V7.9c0-.4-.3-.7-.7-.7h-3.7v-1c0-.4-.3-.7-.7-.7s-.7.3-.7.7v1h-1.8v-1c0-.4-.3-.7-.7-.7s-.7.3-.7.7v1h-1.6v-1c0-.4-.3-.7-.7-.7-.4 0-.7.3-.7.7v1h-1.7v-1c0-.4-.3-.7-.7-.7s-.7.4-.7.7v1h-1.4c-.4 0-.7.3-.7.7s.3.7.7.7H13v.6c0 .4.3.7.7.7s.7-.3.7-.7v-.6h1.7v.6c0 .4.3.7.7.7.4 0 .7-.3.7-.7v-.6h1.6v.6c0 .4.3.7.7.7s.7-.3.7-.7v-.6h1.8v.6c0 .4.3.7.7.7s.7-.3.7-.7v-.6h3v1.7h-15c-.4 0-.7.3-.7.7s.3.7.7.7h14.9V24c0 .5-.4 1-1 1H7.5c-.5 0-1-.4-1-1V13.4c0-.4-.3-.7-.7-.7s-.7.3-.7.7v10.7c0 1.3 1.1 2.4 2.4 2.4h18.2c1.3 0 2.4-1.1 2.4-2.4V11z"/><path class="st1" d="M10.1 8.7c0-.8-.3-1.6-.9-2.2-.6-.6-1.3-.9-2.1-.9-1.8 0-3.2 1.4-3.2 3.1 0 1.7 1.4 3.1 3.1 3.1 1.7 0 3.1-1.4 3.1-3.1zm-4.8 0C5.3 7.7 6.1 7 7 7c1 0 1.7.7 1.7 1.7 0 .9-.8 1.7-1.7 1.7-.9 0-1.7-.8-1.7-1.7zm10.6 7.5h1.8c.4 0 .7-.3.7-.7s-.3-.7-.7-.7h-1.8c-.4 0-.7.3-.7.7s.3.7.7.7zm5.8 0h1.8c.4 0 .7-.3.7-.7s-.3-.7-.7-.7h-1.8c-.4 0-.7.3-.7.7s.3.7.7.7zM12 17.9h-1.8c-.4 0-.7.3-.7.7s.3.7.7.7H12c.4 0 .7-.3.7-.7s-.3-.7-.7-.7zm3.9 1.4h1.8c.4 0 .7-.3.7-.7s-.3-.7-.7-.7h-1.8c-.4 0-.7.3-.7.7s.3.7.7.7zm5.8 0h1.8c.4 0 .7-.3.7-.7s-.3-.7-.7-.7h-1.8c-.4 0-.7.3-.7.7s.3.7.7.7zM12 21.5h-1.8c-.4 0-.7.3-.7.7s.3.7.7.7H12c.4 0 .7-.3.7-.7s-.3-.7-.7-.7zm3.9 1.4h1.8c.4 0 .7-.3.7-.7s-.3-.7-.7-.7h-1.8c-.4 0-.7.3-.7.7s.3.7.7.7z"/></svg>