<svg version="1.1" id="Layer_1" xmlns="http://www.w3.org/2000/svg" x="0" y="0" width="32" height="32" xml:space="preserve"><style>.st1{fill:#fff}</style><path fill="none" d="M0 0h32v32H0z" id="Rectangle_1194"/><path class="st1" d="M24.3 11.6c-.4 0-.7.3-.7.7v14.9H10.4c-1.9 0-3.4-1.6-3.4-3.5V6.1h10.8c.4 0 .7-.3.7-.7s-.3-.7-.7-.7H6.2c-.3 0-.7.3-.7.7v18.3c0 2.7 2.2 4.8 4.8 4.9h14c.4 0 .7-.3.7-.7V12.3c0-.4-.3-.7-.7-.7z"/><path class="st1" d="M23 3.5c-.9 0-1.8.4-2.4 1-.6.6-1 1.5-1 2.4 0 .9.3 1.7.9 2.3.6.7 1.6 1.1 2.5 1.1 1.9 0 3.4-1.5 3.4-3.4S24.9 3.5 23 3.5zm0 5.4c-.6 0-1.1-.2-1.5-.6-.3-.4-.5-.9-.5-1.4 0-.5.2-1 .6-1.4s.9-.6 1.4-.6c1.1 0 2 .9 2 2s-.8 2-2 2zm-2.7 11.7h-9.5c-.4 0-.7.3-.7.7s.3.7.7.7h9.5c.4 0 .7-.3.7-.7s-.3-.7-.7-.7zm-3.1-9.9L16 9.8c-.3-.2-.6-.2-.9 0l-1.1.9-1.1-.9c-.3-.2-.6-.2-.9 0L10.4 11c-.3.2-.4.7-.1 1 .2.3.7.4 1 .1l1.1-.9 1.1.9c.3.2.6.2.9 0l1.1-.9 1.1.9c.3.2.6.2.9 0l1.1-.9 1.1.9c.1.1.3.1.4.1.2 0 .4-.1.5-.3.2-.3.2-.7-.1-1l-1.6-1.2c-.3-.2-.6-.2-.9 0l-.8 1zm3.1 12.6h-9.5c-.4 0-.7.3-.7.7s.3.7.7.7h9.5c.4 0 .7-.3.7-.7s-.3-.7-.7-.7zm-9.4-4.4h9.3c.4 0 .7-.3.7-.7v-4.1c0-.4-.3-.7-.7-.7h-9.3c-.4 0-.7.3-.7.7v4.1c0 .4.3.7.7.7zm.7-4.1h7.9v2.7h-7.9v-2.7z"/></svg>