<svg xmlns="http://www.w3.org/2000/svg" width="32" height="32"><path fill="none" d="M0 0h32v32H0z"/><path d="M8.7 18.2c1.5 0 2.7-1.2 2.7-2.7 0-.7-.3-1.3-.7-1.8-.5-.5-1.2-.9-2-.9C7.2 12.8 6 14 6 15.5s1.2 2.7 2.7 2.7zm0-4c.4 0 .7.2 1 .4.2.2.3.6.3.9 0 .3-.1.7-.4.9s-.6.4-.9.4c-.7 0-1.3-.6-1.3-1.3s.5-1.3 1.3-1.3zm19.4 11.7H27V9.7c0-.4-.3-.7-.7-.7s-.7.3-.7.7v16.2H22V12.8c0-.4-.3-.7-.7-.7s-.7.3-.7.7v13.1H17V16c0-.4-.3-.7-.7-.7s-.7.3-.7.7v9.9H12v-6.8c0-.4-.3-.7-.7-.7s-.7.3-.7.7v6.8H7.1v-3.6c0-.4-.3-.7-.7-.7s-.7.3-.7.7v3.6H3.9c-.4 0-.7.3-.7.7s.3.7.7.7H28c.4 0 .7-.3.7-.7s-.3-.7-.6-.7zm-16-12.4l1.1-1 1.5 1.2c.1.1.3.1.4.1.2 0 .4-.1.5-.2L22 7.1v1.8c0 .4.3.7.7.7s.7-.3.7-.7V5.4c0-.2-.1-.4-.2-.5 0 0-.1-.1-.2-.1h-3.8c-.4 0-.7.3-.7.7s.3.7.7.7H21l-6 6.1-1.4-1.3c-.3-.2-.6-.2-.9 0l-1.5 1.3c-.3.3-.3.7-.1 1 .2.4.7.4 1 .2zm-7.4 6.3c.2 0 .3-.1.5-.2l1.2-1.1c.3-.3.3-.7.1-1-.3-.3-.7-.3-1-.1l-1.2 1.1c-.3.3-.3.7-.1 1 .1.2.3.3.5.3z" fill="#fff"/></svg>