<svg version="1.1" id="Layer_1" xmlns="http://www.w3.org/2000/svg" x="0" y="0" viewBox="0 0 32 32" xml:space="preserve"><style>.st0{fill:#fff}</style><g id="Group_3223" transform="translate(3470 -279)"><g id="Group_3219"><g id="Group_3212" transform="translate(-3469 282)"><path class="st0" d="M18.6 26.2H2c-.4 0-.7-.3-.7-.7s.3-.7.7-.7h16.6c.4 0 .7.3.7.7s-.3.7-.7.7z" id="Line_1506"/><path class="st0" d="M2 26.2c-.4 0-.7-.4-.7-.8l.3-3c0-.4.4-.7.8-.6.4 0 .7.4.6.8l-.3 3c0 .3-.3.6-.7.6z" id="Line_1507"/><path class="st0" d="M19 26.2c-.4 0-.7-.3-.7-.6l-.3-3.7c0-.4 0-.8-.1-1.2 0-1.3-.1-2.6-.9-3.6-.7-.8-1.6-1.3-2.6-1.5-1.1-.2-2.3-.3-3.5-.2-1.2-.1-2.3 0-3.4.3-.4.1-.8-.1-.9-.5-.1-.4.1-.8.5-.9 1.3-.3 2.6-.4 3.9-.3 1.2 0 2.4.1 3.7.3 1.4.2 2.6.9 3.5 1.9 1.1 1.4 1.2 3 1.2 4.4 0 .4 0 .8.1 1.1l.3 3.7c-.1.4-.4.8-.8.8z" id="Path_1367"/><path class="st0" d="M10.6 12.1c-2.2 0-3.9-1.8-3.9-3.9 0-.4.3-.7.7-.7s.7.3.7.7c0 1.4 1.1 2.5 2.5 2.5s2.5-1.1 2.5-2.5c0-.4.3-.7.7-.7s.7.3.7.7c0 2.2-1.7 3.9-3.9 3.9z" id="Path_1368"/><path class="st0" d="M13.8 8.5c-.4 0-.7-.3-.7-.7V5.6c0-1.4-1.1-2.5-2.5-2.5-.6 0-1.3.3-1.8.7-.4.5-.7 1.2-.7 1.8v2.2c0 .4-.3.7-.7.7s-.7-.3-.7-.7V5.6c0-1 .4-2 1.2-2.8.7-.7 1.7-1.1 2.8-1.1 2.1 0 3.9 1.8 3.9 3.9v2.2c-.1.4-.4.7-.8.7z" id="Path_1369"/><path class="st0" d="M2.4 20.4c-.8 0-1.6-.3-2.2-.9-.6-.6-.9-1.4-.9-2.2 0-1.7 1.4-3.1 3.1-3.1 1.7 0 3.1 1.4 3.1 3.1 0 .8-.3 1.6-.9 2.2-.5.6-1.3.9-2.2.9zm0-4.8c-1 0-1.7.8-1.7 1.7 0 .5.2.9.5 1.2.3.4.8.5 1.2.5.5 0 .9-.2 1.2-.5.3-.3.5-.8.5-1.2.1-1-.7-1.7-1.7-1.7zm2.5 1.7z" id="Path_1370"/><path class="st0" d="M29.8 23.8H19.4c-.4 0-.7-.3-.7-.7s.3-.7.7-.7h10.5c.4 0 .7.3.7.7s-.4.7-.8.7z" id="Line_1508"/><path class="st0" d="M29.8 23.8c-.4 0-.7-.3-.7-.6l-.3-3.7c0-.4 0-.8-.1-1.2 0-1.3-.1-2.6-.9-3.6-.7-.8-1.6-1.3-2.6-1.5-1.1-.2-2.3-.2-3.4-.2h-.4c-1.2 0-2.4.1-3.5.2-1 .2-1.9.7-2.6 1.5-.1.1-.2.3-.3.4-.2.3-.6.5-.9.3-.3-.2-.5-.6-.3-.9.1-.2.3-.5.5-.7.9-1 2.1-1.7 3.5-2 1.2-.2 2.5-.3 3.8-.3h.4c1.2 0 2.5.1 3.7.3 1.4.2 2.6.9 3.5 1.9 1.1 1.4 1.2 3 1.2 4.4 0 .4 0 .8.1 1.1l.3 3.7c-.2.5-.5.8-1 .9.1 0 .1 0 0 0z" id="Path_1371"/><path class="st0" d="M21.3 9.5c-2.2 0-3.9-1.7-3.9-3.8 0-.4.3-.7.7-.7.4 0 .7.3.7.7 0 1.4 1.1 2.4 2.5 2.5.7 0 1.3-.2 1.8-.7s.8-1.1.8-1.8c0-.4.3-.7.7-.7.4 0 .7.3.7.7 0 1-.4 2-1.2 2.7-.8.7-1.7 1.1-2.8 1.1z" id="Path_1372"/><path class="st0" d="M24.5 6.1c-.4 0-.7-.3-.7-.7V3.2c0-1.4-1.1-2.5-2.5-2.5s-2.5 1.1-2.5 2.5v2.2c0 .4-.3.7-.7.7s-.7-.3-.7-.7V3.2c0-2.2 1.8-3.9 3.9-3.9 2.1 0 3.9 1.8 3.9 3.9v2.2c0 .4-.3.7-.7.7z" id="Path_1373"/></g><path fill="none" d="M-3470 279h32v32h-32z" id="Rectangle_1198"/></g></g></svg>