<svg version="1.1" id="Layer_1" xmlns="http://www.w3.org/2000/svg" x="0" y="0" viewBox="0 0 32 32" xml:space="preserve"><style>.st0{fill:#fff}</style><g id="Group_3222" transform="translate(3470 -209)"><g id="Group_3218"><g id="Group_3211" transform="translate(-3466 211)"><path class="st0" d="M22.1 28.8H2c-.4 0-.7-.3-.7-.7V8.6c0-.4.3-.7.7-.7s.7.3.7.7v18.8h19.4c.8 0 1.4-.6 1.4-1.4V3.5c0-.7-.6-1.4-1.4-1.4H8.8c-.4 0-.7-.3-.7-.7s.3-.7.7-.7h13.4C23.7.7 25 1.9 25 3.4V26c-.1 1.6-1.3 2.8-2.9 2.8z" id="Path_1344"/><path class="st0" d="M6 28.8c-.4 0-.7-.3-.7-.7V9.5c0-.4.3-.7.7-.7s.7.3.7.7v18.6c0 .4-.4.7-.7.7z" id="Line_1487"/><path class="st0" d="M3.5 11.9H0c-.4 0-.7-.3-.7-.7s.3-.7.7-.7h3.5c.4 0 .7.3.7.7s-.3.7-.7.7z" id="Line_1488"/><path class="st0" d="M3.5 15.7H0c-.4 0-.7-.3-.7-.7s.3-.7.7-.7h3.5c.4 0 .7.3.7.7s-.3.7-.7.7z" id="Line_1489"/><path class="st0" d="M3.5 19.5H0c-.4 0-.7-.3-.7-.7s.3-.7.7-.7h3.5c.4 0 .7.3.7.7s-.3.7-.7.7z" id="Line_1490"/><path class="st0" d="M3.5 23.6H0c-.4 0-.7-.3-.7-.7s.3-.7.7-.7h3.5c.4 0 .7.3.7.7s-.3.7-.7.7z" id="Line_1491"/><path class="st0" d="M3 6.7c-1 0-1.9-.4-2.6-1.1C-.3 4.9-.7 4-.7 3-.7 1 1-.7 3-.7S6.7 1 6.7 3 5.1 6.7 3 6.7zm0-6C1.7.7.7 1.7.7 3c0 .6.2 1.2.7 1.6.4.4 1 .7 1.6.7V6v-.7c1.3 0 2.3-1 2.3-2.3S4.3.7 3 .7z" id="Path_1345"/><path class="st0" d="M19.8 12.3h-8.9c-.4 0-.7-.3-.7-.7s.3-.7.7-.7h8.9c.4 0 .7.3.7.7s-.3.7-.7.7z" id="Line_1492"/><path class="st0" d="M16.8 16.8h-6c-.4 0-.7-.3-.7-.7s.3-.7.7-.7h6c.4 0 .7.3.7.7s-.3.7-.7.7z" id="Line_1493"/></g><path fill="none" d="M-3470 209h32v32h-32z" id="Rectangle_1190"/></g></g></svg>