<svg xmlns="http://www.w3.org/2000/svg" width="46.932" height="92.41"><g data-name="Grupo 21492"><g data-name="Grupo 13818"><path data-name="Línea 2119" fill="none" stroke="#505d6c" opacity=".29" d="M23.938 57.702V89.91"/><g data-name="Trazado 11273" fill="#fff"><path d="M23.938 91.41c-1.93 0-3.5-1.57-3.5-3.5s1.57-3.5 3.5-3.5 3.5 1.57 3.5 3.5c0 .738-.236 1.412-.764 2.186l-.005.008-.005.008c-.41.625-1.438 1.298-2.726 1.298z"/><path d="M23.938 85.41a2.503 2.503 0 00-2.5 2.5c0 1.378 1.122 2.5 2.5 2.5.972 0 1.675-.52 1.89-.847l.02-.03c.52-.762.59-1.248.59-1.623 0-1.378-1.122-2.5-2.5-2.5m0-2a4.5 4.5 0 014.5 4.5c0 .925-.279 1.784-.938 2.75-.626.955-2.001 1.75-3.562 1.75a4.5 4.5 0 010-9z" fill="#00af00"/></g></g><g data-name="Grupo 20842"><path data-name="Rectángulo 5859" fill="none" d="M0 0h46.932v47H0z"/><g data-name="Grupo 20847"><g data-name="Grupo 20842" fill="none" stroke="#95a6b1" stroke-linecap="round" stroke-linejoin="round" stroke-width="1.5" transform="translate(-.068)"><path data-name="Trazado 20056" d="M24.99 18.72l-2.465 3.348h2.465l-2.358 3.446"/><circle data-name="Elipse 3112" cx="5.612" cy="5.612" r="5.612" transform="translate(18.145 16.504)"/></g><g data-name="Grupo 20846"><g data-name="Grupo 20845" fill="none" stroke-linecap="round" stroke-linejoin="round" stroke-width="1.5"><g data-name="Grupo 20843"><path data-name="Línea 4721" stroke="#95a6b1" d="M38.09 6.232V4.179"/><path data-name="Línea 4722" stroke="#95a6b1" d="M38.09 17.021v2.053"/><path data-name="Línea 4723" stroke="#95a6b1" d="M38.09 6.232V4.179"/><path data-name="Línea 4724" stroke="#95a6b1" d="M38.09 17.021v2.053"/><path data-name="Línea 4725" stroke="#95a6b1" d="M43.484 11.627h2.053"/><path data-name="Línea 4726" stroke="#95a6b1" d="M30.643 11.627h2.053"/><path data-name="Línea 4727" stroke="#95a6b1" d="M41.904 7.813l1.452-1.452"/><path data-name="Línea 4728" stroke="#95a6b1" d="M34.276 15.441l-1.452 1.452"/><path data-name="Línea 4729" stroke="#95a6b1" d="M41.904 15.441l1.452 1.452"/><path data-name="Línea 4730" stroke="#95a6b1" d="M34.276 7.813l-1.452-1.452"/><path data-name="Trazado 12511" d="M41.047 10.274a3.252 3.252 0 11-5.914 2.7h0a3.252 3.252 0 115.914-2.7z" stroke="#00a800"/></g><g data-name="Grupo 20844" stroke="#95a6b1"><path data-name="Trazado 20058" d="M27.773 11.627H8.14L1.326 32.338H45l-3.9-11.847"/><path data-name="Línea 4731" d="M23.69 16.505v-4.878"/><path data-name="Línea 4732" d="M23.69 32.338v-4.609"/><path data-name="Línea 4733" d="M12.282 32.339l3.407-20.712"/><path data-name="Línea 4734" d="M34.75 32.338l-2.067-12.564"/><path data-name="Línea 4735" d="M28.005 18.289h1.785"/><path data-name="Línea 4736" d="M5.932 18.289h13.654"/><path data-name="Línea 4737" d="M29.302 24.763h12.959"/><path data-name="Línea 4738" d="M4.112 24.763h13.965"/><path data-name="Línea 4739" d="M20.599 32.338V42.82"/><path data-name="Línea 4740" d="M26.613 32.47v10.171"/><path data-name="Línea 4741" d="M11.238 42.821H36.14"/></g></g></g></g></g></g></svg>