<svg xmlns="http://www.w3.org/2000/svg" width="46.932" height="90.91"><g data-name="Grupo 21493"><g data-name="Grupo 20671"><path data-name="Línea 2119" fill="none" stroke="#505d6c" opacity=".29" d="M23.843 56.202V88.41"/><g data-name="Trazado 11273" fill="#fff"><path d="M23.843 89.91c-1.93 0-3.5-1.57-3.5-3.5s1.57-3.5 3.5-3.5 3.5 1.57 3.5 3.5c0 .738-.236 1.412-.764 2.186l-.005.008-.005.008c-.41.625-1.438 1.298-2.726 1.298z"/><path d="M23.843 83.91a2.503 2.503 0 00-2.5 2.5c0 1.378 1.122 2.5 2.5 2.5.972 0 1.675-.52 1.89-.847l.02-.03c.52-.762.59-1.248.59-1.623 0-1.378-1.122-2.5-2.5-2.5m0-2a4.5 4.5 0 014.5 4.5c0 .925-.279 1.784-.938 2.75-.626.955-2.001 1.75-3.562 1.75a4.5 4.5 0 010-9z" fill="#00af00"/></g></g><g data-name="Grupo 20834" fill="none"><path data-name="Rectángulo 5856" d="M0 0h46.932v47H0z"/><g data-name="Grupo 20835" stroke-linecap="round" stroke-linejoin="round" stroke-width="1.5"><g data-name="Grupo 20834" stroke="#95a6b1"><path data-name="Trazado 20042" d="M23.804 20.092V3.749a.667.667 0 00-1.313-.167l-3.294 12.731a3.408 3.408 0 00.044 1.86l.988 3.18"/><path data-name="Trazado 20043" d="M18.981 26.152L4.922 34.486a.667.667 0 00.526 1.214l12.631-3.659a3.407 3.407 0 001.578-.987l2.232-2.471-1.742 7.363v7.972"/><path data-name="Trazado 20044" d="M26.955 27.467l14.322 7.873a.667.667 0 00.779-1.07l-9.57-9.02a3.409 3.409 0 00-1.651-.857l-3.263-.667"/></g><path data-name="Trazado 20045" d="M24.482 28.574l1.765 7.406v7.939" stroke="#95a6b1"/><path data-name="Trazado 20046" d="M27.132 22.657a4.239 4.239 0 11-5.618-2.093 4.225 4.225 0 015.618 2.093z" stroke="#00a800"/></g><g data-name="Grupo 20836" stroke="#95a6b1" stroke-linecap="round" stroke-linejoin="round" stroke-width="1.5"><path data-name="Trazado 20047" d="M41.113 13.534c-1.995 0-1.995-1.949-3.99-1.949s-2 1.949-3.994 1.949-2-1.949-4-1.949"/><path data-name="Trazado 20048" d="M41.113 18.412c-1.995 0-1.995-1.95-3.99-1.95s-2 1.95-3.994 1.95-2-1.95-4-1.95"/></g></g></g></svg>