<svg xmlns="http://www.w3.org/2000/svg" width="46.932" height="99.481"><g data-name="Grupo 21494"><g data-name="Grupo 20673"><path data-name="Línea 2119" fill="none" stroke="#505d6c" opacity=".29" d="M24.74 57.702v39.279"/><g data-name="Trazado 11273" fill="#fff"><path d="M24.74 98.481c-1.93 0-3.5-1.57-3.5-3.5s1.57-3.5 3.5-3.5 3.5 1.57 3.5 3.5c0 .738-.236 1.412-.764 2.186l-.005.008-.005.008c-.41.625-1.438 1.298-2.726 1.298z"/><path d="M24.74 92.481a2.503 2.503 0 00-2.5 2.5c0 1.378 1.122 2.5 2.5 2.5.972 0 1.675-.52 1.89-.847l.02-.03c.52-.762.59-1.248.59-1.623 0-1.378-1.122-2.5-2.5-2.5m0-2a4.5 4.5 0 014.5 4.5c0 .925-.279 1.784-.938 2.75-.626.955-2.001 1.75-3.562 1.75a4.5 4.5 0 010-9z" fill="#00af00"/></g></g><g data-name="Grupo 20837"><path data-name="Rectángulo 5857" fill="none" d="M0 0h46.932v47H0z"/><path data-name="Trazado 20049" d="M38.164 10.93a3.426 3.426 0 11-4.54-1.691 3.416 3.416 0 014.54 1.691z" fill="none" stroke="#00a800" stroke-linecap="round" stroke-linejoin="round" stroke-width="1.5"/><g data-name="Grupo 20841"><g data-name="Grupo 20840"><g data-name="Grupo 20839"><g data-name="Grupo 20838"><g data-name="Grupo 20837"><path data-name="Trazado 20050" d="M1.394 37.575c3.674 0 3.674 3.361 7.347 3.361s3.675-3.361 7.349-3.361 3.676 3.361 7.352 3.361 3.675-3.361 7.349-3.361 3.677 3.361 7.355 3.361 3.677-3.361 7.354-3.361" fill="none" stroke="#95a6b1" stroke-linecap="round" stroke-linejoin="round" stroke-width="1.5"/></g><path data-name="Línea 4715" fill="none" stroke="#95a6b1" stroke-linecap="round" stroke-linejoin="round" stroke-width="1.5" d="M29.761 34.515h6.667"/><path data-name="Trazado 20051" d="M35.506 17.956v5.97h-15.77" fill="none" stroke="#95a6b1" stroke-linecap="round" stroke-linejoin="round" stroke-width="1.5"/><path data-name="Trazado 20052" d="M13.309 23.926H9.758v-10.62a1.321 1.321 0 011.321-1.321h18.314" fill="none" stroke="#95a6b1" stroke-linecap="round" stroke-linejoin="round" stroke-width="1.5"/><path data-name="Rectángulo 5858" d="M24.776 11.985H13.065h0V7.933a1.084 1.084 0 011.084-1.084h9.374a1.253 1.253 0 011.253 1.253v3.883h0z" fill="none" stroke="#95a6b1" stroke-linecap="round" stroke-linejoin="round" stroke-width="1.5"/><path data-name="Trazado 20053" d="M19.736 23.938h19.526a1.507 1.507 0 011.507 1.507v14.013" fill="none" stroke="#95a6b1" stroke-linecap="round" stroke-linejoin="round" stroke-width="1.5"/><path data-name="Trazado 20054" d="M6.367 39.458V25.239a1.3 1.3 0 011.3-1.3l5.64-.012" fill="none" stroke="#95a6b1" stroke-linecap="round" stroke-linejoin="round" stroke-width="1.5"/><path data-name="Línea 4716" fill="none" stroke="#95a6b1" stroke-linecap="round" stroke-linejoin="round" stroke-width="1.5" d="M29.756 24.458v13.165"/><path data-name="Línea 4717" fill="none" stroke="#95a6b1" stroke-linecap="round" stroke-linejoin="round" stroke-width="1.5" d="M29.761 29.004h6.667"/><path data-name="Línea 4718" fill="none" stroke="#95a6b1" stroke-linecap="round" stroke-linejoin="round" stroke-width="1.5" d="M36.45 24.458V40.13"/><path data-name="Línea 4719" fill="none" stroke="#95a6b1" stroke-linecap="round" stroke-linejoin="round" stroke-width="1.5" d="M25.438 23.926v16.205"/><path data-name="Trazado 20055" d="M19.736 23.961l.024 4.391H14.1v-4.4" fill="none" stroke="#95a6b1" stroke-linecap="round" stroke-linejoin="round" stroke-width="1.5"/><path data-name="Línea 4720" fill="none" stroke="#95a6b1" stroke-linecap="round" stroke-linejoin="round" stroke-width="1.5" d="M18.821 6.849v5.136"/></g></g></g></g></g></g></svg>