<svg version="1.1" id="Layer_1" xmlns="http://www.w3.org/2000/svg" x="0" y="0" viewBox="0 0 32 32" xml:space="preserve"><style>.st0{fill:#fff}</style><g id="Group_3221" transform="translate(3470 -136)"><g id="Group_3217"><g id="Group_3210" transform="translate(-4.019 -5.476)"><path class="st0" d="M-3461 154.1c-2 0-3.6-1.6-3.6-3.6s1.6-3.6 3.6-3.6 3.6 1.6 3.6 3.6c0 1.9-1.6 3.6-3.6 3.6zm0-5.9c-1.2 0-2.3 1-2.3 2.2s1 2.2 2.2 2.2 2.2-1 2.2-2.2c.1-1.2-.9-2.2-2.1-2.2z" id="Path_1340"/><path class="st0" d="M-3459.2 168.2a2.732 2.732 0 01-2.7-2.7V156c0-.4.3-.7.7-.7s.7.3.7.7v9.5c0 .3.1.7.4.9.2.2.6.4.9.4h21.1c.7 0 1.3-.6 1.3-1.3v-7.1c0-.4.3-.7.7-.7s.7.3.7.7v7.1c0 1.5-1.2 2.7-2.7 2.7h-21.1z" id="Path_1341"/><path class="st0" d="M-3448.6 161.2c-.6 0-1.2-.2-1.7-.6l-7-5.9c-.3-.2-.3-.7-.1-1 .2-.3.7-.3 1-.1l7 5.9c.5.4 1.1.4 1.6 0l10.8-9c.3-.2.7-.2 1 .1.2.3.2.7-.1 1l-10.8 9c-.5.4-1.1.6-1.7.6z" id="Path_1342"/><path class="st0" d="M-3460.4 167.7c-.2 0-.4-.1-.5-.3-.2-.3-.2-.7.1-1l9.5-7.8c.3-.2.7-.2 1 .1.2.3.2.7-.1 1l-9.5 7.8c-.2.2-.4.2-.5.2z" id="Line_1485"/><path class="st0" d="M-3436.8 167.7c-.2 0-.3-.1-.4-.2l-9.4-7.7c-.3-.2-.3-.7-.1-1 .2-.3.7-.3 1-.1l9.4 7.7c.3.2.3.7.1 1-.2.2-.4.3-.6.3z" id="Line_1486"/><path class="st0" d="M-3436.1 159.8c-.4 0-.7-.3-.7-.7V152c0-.7-.6-1.3-1.3-1.3h-17c-.4 0-.7-.3-.7-.7s.3-.7.7-.7h17c1.5 0 2.7 1.2 2.7 2.7v7.1c0 .4-.3.7-.7.7z" id="Path_1343"/></g><path fill="none" d="M-3470 136h32v32h-32z" id="Rectangle_1188"/></g></g></svg>