<svg version="1.1" id="Layer_1" xmlns="http://www.w3.org/2000/svg" x="0" y="0" viewBox="0 0 32 32" xml:space="preserve"><style>.st0{fill:#fff}</style><g id="Group_3224" transform="translate(3470 -351)"><g id="Group_3220"><g id="Group_3213" transform="translate(-4.786 -4.912)"><path class="st0" d="M-3446.2 385.8h-7.6c-3 0-5.5-2.5-5.5-5.5V368c0-.4.3-.7.7-.7s.7.3.7.7v12.3c0 2.2 1.8 4.1 4.1 4.1h7.6c.4 0 .7.3.7.7s-.3.7-.7.7z" id="Path_1360"/><path class="st0" d="M-3437.8 377.8c-.4 0-.7-.3-.7-.7v-13.2l-3.7-3.8h-8.1c-.4 0-.7-.3-.7-.7s.3-.7.7-.7h8.4c.2 0 .4.1.5.2l4.1 4.3c.1.1.2.3.2.5v13.5c0 .3-.3.6-.7.6z" id="Path_1361"/><path class="st0" d="M-3457.1 364.8c-2.1 0-3.8-1.7-3.8-3.8 0-2.1 1.7-3.8 3.8-3.8 2.1 0 3.8 1.7 3.8 3.8 0 2.1-1.7 3.8-3.8 3.8zm0-6.2c-1.3 0-2.4 1.1-2.4 2.4 0 1.3 1.1 2.4 2.4 2.4 1.3 0 2.4-1.1 2.4-2.4 0-1.3-1.1-2.4-2.4-2.4z" id="Path_1362"/><path class="st0" d="M-3437.8 364.6h-4.2c-.4 0-.7-.3-.7-.7v-4.6c0-.4.3-.7.7-.7s.7.3.7.7v3.9h3.5c.4 0 .7.3.7.7s-.3.7-.7.7z" id="Path_1363"/><path class="st0" d="M-3442.6 385.8h-7.6c-.4 0-.7-.3-.7-.7s.3-.7.7-.7h7.6c2.2 0 4.1-1.8 4.1-4.1V368c0-.4.3-.7.7-.7s.7.3.7.7v12.3c0 3-2.4 5.5-5.5 5.5z" id="Path_1364"/><path class="st0" d="M-3452.7 381.1c-.8 0-1.6-.3-2.2-.9-.6-.6-.9-1.4-.9-2.2s.3-1.6.9-2.2l2.2-2.2c1.2-1.2 3.3-1.2 4.5 0 1.2 1.2 1.2 3.2 0 4.5l-2.2 2.2c-.6.4-1.4.8-2.3.8.1 0 0 0 0 0zm2.2-7.2c-.4 0-.9.2-1.2.5l-2.2 2.2c-.4.4-.5.8-.5 1.3s.2.9.5 1.2c.3.3.8.5 1.3.5s.9-.2 1.2-.5l2.2-2.2c.7-.7.7-1.8 0-2.5-.3-.3-.8-.5-1.3-.5zm1.8 3.5z" id="Path_1365"/><path class="st0" d="M-3446 374.4c-.9 0-1.7-.3-2.3-.9-1.2-1.2-1.2-3.2 0-4.5l2.2-2.2c1.2-1.2 3.3-1.2 4.5 0 1.2 1.2 1.2 3.2 0 4.5l-2.2 2.2c-.6.6-1.4.9-2.2.9zm2.2-7.1c-.4 0-.9.2-1.2.5l-2.2 2.2c-.7.7-.7 1.8 0 2.5.3.3.8.5 1.2.5.5 0 .9-.2 1.2-.5l2.2-2.2c.7-.7.7-1.8 0-2.5-.3-.3-.8-.5-1.2-.5zm1.7 3.5z" id="Path_1366"/><path class="st0" d="M-3449.5 375.5c-.2 0-.4-.1-.5-.2-.3-.3-.3-.7 0-1l2.6-2.6c.3-.3.7-.3 1 0s.3.7 0 1l-2.6 2.6c-.2.1-.3.2-.5.2z" id="Line_1503"/><path class="st0" d="M-3455.2 381.1c-.2 0-.4-.1-.5-.2-.3-.3-.3-.7 0-1l1.6-1.6c.3-.3.7-.3 1 0s.3.7 0 1l-1.6 1.6c-.1.2-.3.2-.5.2z" id="Line_1504"/><path class="st0" d="M-3442.9 368.8c-.2 0-.4-.1-.5-.2-.3-.3-.3-.7 0-1l1.6-1.6c.3-.3.7-.3 1 0 .3.3.3.7 0 1l-1.6 1.6c-.1.1-.3.2-.5.2z" id="Line_1505"/></g><path fill="none" d="M-3470 351h32v32h-32z" id="Rectangle_1196"/></g></g></svg>