<svg version="1.1" id="Layer_1" xmlns="http://www.w3.org/2000/svg" x="0" y="0" viewBox="0 0 46 46" xml:space="preserve"><style>.st1{fill:#fff}</style><g id="Group_3197" transform="translate(4933 -1660)"><path fill="none" d="M-4933 1660h46v46h-46z" id="Rectangle_1201"/><g id="icon_ocenza_desktop_redes_sociales_youtube" transform="translate(-5101.138 -1534.527)"><g id="Grupo_6807"><g id="Grupo_6806"><path class="st1" d="M190.7 3238.7c-7.7 0-15.1-4.3-18.7-11.7-1.3-2.8-2.1-5.9-2.1-9 0-.7 0-1.4.1-2.1.1-.7.7-1.2 1.4-1.1.7.1 1.2.7 1.1 1.4-.1.6-.1 1.2-.1 1.8 0 2.7.6 5.5 1.8 7.9 4.4 9.1 15.3 12.9 24.3 8.5 4.4-2.1 7.7-5.8 9.3-10.4 1.6-4.6 1.3-9.5-.8-13.9-4.4-9.1-15.3-12.9-24.3-8.5-.6.3-1.4 0-1.7-.6-.3-.6 0-1.4.6-1.7 5-2.4 10.6-2.7 15.8-.9 5.2 1.8 9.4 5.6 11.8 10.6 2.4 5 2.7 10.6.9 15.8-1.8 5.2-5.6 9.4-10.6 11.8-2.7 1.5-5.8 2.1-8.8 2.1z" id="Trazado_5847"/></g></g><path d="M175.4 3212.6c-3 0-5.5-2.5-5.4-5.5 0-1.5.6-2.8 1.6-3.8s2.5-1.6 3.9-1.6c2.9 0 5.4 2.4 5.4 5.4v.1c0 1.5-.6 2.8-1.6 3.8-1.1 1-2.5 1.6-3.9 1.6zm0-8.4c-1.6 0-2.9 1.3-2.9 2.9 0 1.6 1.3 2.9 2.9 3 .8 0 1.5-.3 2.1-.8.6-.5.9-1.3.9-2.1v-.1c-.1-1.6-1.4-2.9-3-2.9zm4.2 3z" fill="#efef00" id="Trazado_5848"/><g id="Grupo_6808"><path class="st1" d="M195.9 3227.2h-10.4c-3.3 0-6-2.7-6-6v-5.2c0-3.3 2.7-6 6-6h10.4c3.3 0 6 2.7 6 6v5.2c0 3.3-2.7 6-6 6zm-10.4-14.7c-1.9 0-3.5 1.6-3.5 3.5v5.2c0 1.9 1.6 3.5 3.5 3.5h10.4c1.9 0 3.5-1.6 3.5-3.5v-5.2c0-1.9-1.6-3.5-3.5-3.5h-10.4z" id="Rectángulo_1821"/><path class="st1" d="M189.4 3222.5c-.3 0-.6-.1-.9-.4-.5-.5-.5-1.3 0-1.8l1.8-1.8-1.8-1.8c-.5-.5-.5-1.3 0-1.8s1.3-.5 1.8 0l2.7 2.7c.5.5.5 1.3 0 1.8l-2.7 2.7c-.3.3-.6.4-.9.4z" id="Trazado_4958"/></g></g></g></svg>