<svg id="Capa_1" data-name="Capa 1" xmlns="http://www.w3.org/2000/svg" viewBox="0 0 65 65"><defs><style>.cls-1{fill:none;}.cls-2{fill:#00a800;}.cls-3{fill:#95a6b1;}.cls-4{fill:#19a301;}.cls-5{fill:#82d400;}</style></defs><title>estacion_almacena</title><rect class="cls-1" width="65" height="65"/><g id="Trazado_11848" data-name="Trazado 11848"><path class="cls-2" d="M14.5,16a4.4,4.4,0,0,1,0-8.8h0a4.4,4.4,0,0,1,4.4,4.4h0A4.4,4.4,0,0,1,14.5,16Zm0-7.2h0a2.9,2.9,0,0,0-2.8,2.8,2.8,2.8,0,1,0,5.6,0h0A2.9,2.9,0,0,0,14.5,8.8Z"/></g><g id="Trazado_11852" data-name="Trazado 11852"><path class="cls-3" d="M49.6,46.8H14.3a.9.9,0,0,1-.8-.8V18.6a.8.8,0,0,1,1.6,0V45.2H48.8V12H21.3a.8.8,0,0,1-.8-.8.9.9,0,0,1,.8-.8H49.6a.9.9,0,0,1,.8.8V46A.9.9,0,0,1,49.6,46.8Z"/></g><g id="Línea_2421" data-name="Línea 2421"><path class="cls-3" d="M49.6,15.8a.8.8,0,0,1-.8-.8V11.2a.8.8,0,0,1,.8-.8.9.9,0,0,1,.8.8V15A.9.9,0,0,1,49.6,15.8Z"/></g><g id="Línea_2422" data-name="Línea 2422"><path class="cls-3" d="M24,15.8a.8.8,0,0,1-.8-.8V11.2a.8.8,0,0,1,.8-.8.9.9,0,0,1,.8.8V15A.9.9,0,0,1,24,15.8Z"/></g><g id="Línea_2423" data-name="Línea 2423"><path class="cls-3" d="M31.1,15.8a.8.8,0,0,1-.8-.8V11.2a.8.8,0,0,1,.8-.8.9.9,0,0,1,.8.8V15A.9.9,0,0,1,31.1,15.8Z"/></g><g id="Línea_2424" data-name="Línea 2424"><path class="cls-3" d="M41.7,15.8a.8.8,0,0,1-.8-.8V11.2a.8.8,0,0,1,.8-.8.9.9,0,0,1,.8.8V15A.9.9,0,0,1,41.7,15.8Z"/></g><g id="Línea_2425" data-name="Línea 2425"><path class="cls-3" d="M52.6,15.9H21.3a.9.9,0,0,1-.8-.8.8.8,0,0,1,.8-.8H52.6a.7.7,0,0,1,.8.8A.8.8,0,0,1,52.6,15.9Z"/></g><path class="cls-3" d="M34,46.7a.7.7,0,0,1-.8-.8V31.2a.7.7,0,0,1,.8-.8.8.8,0,0,1,.8.8V45.9A.8.8,0,0,1,34,46.7Z"/><path class="cls-3" d="M41.7,46.7a.8.8,0,0,1-.8-.8V31.2a.8.8,0,0,1,.8-.8.7.7,0,0,1,.8.8V45.9A.7.7,0,0,1,41.7,46.7Z"/><path class="cls-3" d="M33.9,39.2h-.3L14,30.5a.8.8,0,0,1,.6-1.4l19.6,8.6a.8.8,0,0,1,.5,1A1,1,0,0,1,33.9,39.2Z"/><path class="cls-3" d="M33.9,32h-.3L14,23.3a.8.8,0,0,1-.4-1.1c.1-.4.6-.5,1-.4l19.6,8.6a1,1,0,0,1,.5,1.1A1,1,0,0,1,33.9,32Z"/><path class="cls-3" d="M41.7,38.5H34a.7.7,0,0,1-.8-.7A.7.7,0,0,1,34,37h7.7a.8.8,0,0,1,.8.8A.8.8,0,0,1,41.7,38.5Z"/><path class="cls-3" d="M41.7,42.7H34a.7.7,0,0,1-.8-.8.8.8,0,0,1,.8-.8h7.7a.9.9,0,0,1,.8.8A.8.8,0,0,1,41.7,42.7Z"/><path class="cls-3" d="M41.7,46.8H34a.8.8,0,0,1-.8-.8.7.7,0,0,1,.8-.8h7.7a.8.8,0,0,1,.8.8A.9.9,0,0,1,41.7,46.8Z"/><path class="cls-3" d="M18,32.2a.7.7,0,0,1-.8-.8V24.3a.8.8,0,0,1,.8-.8.9.9,0,0,1,.8.8v7.1A.8.8,0,0,1,18,32.2Z"/><path class="cls-3" d="M22.1,33.9a.7.7,0,0,1-.8-.8V26a.8.8,0,0,1,.8-.8.9.9,0,0,1,.8.8v7.1A.8.8,0,0,1,22.1,33.9Z"/><path class="cls-3" d="M26.2,35.8a.7.7,0,0,1-.8-.8V27.9a.8.8,0,0,1,.8-.8.9.9,0,0,1,.8.8V35A.8.8,0,0,1,26.2,35.8Z"/><path class="cls-3" d="M30.3,37.5a.8.8,0,0,1-.8-.8V29.6a.7.7,0,0,1,.8-.8.8.8,0,0,1,.8.8v7.1A.9.9,0,0,1,30.3,37.5Z"/><path class="cls-3" d="M48.8,21.1H40.9a.7.7,0,0,1-.8-.8.8.8,0,0,1,.8-.8h7.9a.8.8,0,0,1,.8.8A.7.7,0,0,1,48.8,21.1Z"/><path class="cls-3" d="M38.3,21.1h-1a.7.7,0,0,1-.8-.8.8.8,0,0,1,.8-.8h1a.8.8,0,0,1,.8.8A.7.7,0,0,1,38.3,21.1Z"/><path class="cls-3" d="M53.3,46.7H10.6a.8.8,0,0,1-.8-.7.9.9,0,0,1,.8-.8H53.3a.8.8,0,0,1,.7.8A.7.7,0,0,1,53.3,46.7Z"/><rect class="cls-1" y="48.3" width="65" height="16.74"/><path class="cls-4" d="M45.4,61.3H38.2A1.2,1.2,0,0,1,37,60.1a1.3,1.3,0,0,1,1.2-1.2h7.2a1.3,1.3,0,0,1,1.2,1.2A1.2,1.2,0,0,1,45.4,61.3Z"/><path class="cls-4" d="M53.1,61.3h-.6a1.2,1.2,0,0,1-1.2-1.2,1.3,1.3,0,0,1,1.2-1.2h.6a1.2,1.2,0,0,1,1.2,1.2A1.2,1.2,0,0,1,53.1,61.3Z"/><path class="cls-4" d="M19,61.3H11.9a1.2,1.2,0,0,1-1.2-1.2,1.2,1.2,0,0,1,1.2-1.2H19a1.2,1.2,0,0,1,1.2,1.2A1.2,1.2,0,0,1,19,61.3Z"/><path class="cls-5" d="M31,61.3H18.5a1.2,1.2,0,0,1-1.2-1.2,1.3,1.3,0,0,1,1.2-1.2H31a1.2,1.2,0,0,1,1.2,1.2A1.2,1.2,0,0,1,31,61.3Z"/><path class="cls-5" d="M35.5,55.2H11.9a1.2,1.2,0,1,1,0-2.4H35.5a1.2,1.2,0,0,1,0,2.4Z"/><path class="cls-4" d="M53.1,55.2H34.7a1.2,1.2,0,0,1,0-2.4H53.1a1.2,1.2,0,0,1,0,2.4Z"/><path class="cls-4" d="M12.3,55.2h-.4a1.2,1.2,0,1,1,0-2.4h.4a1.2,1.2,0,0,1,0,2.4Z"/></svg>