<svg id="Capa_1" data-name="Capa 1" xmlns="http://www.w3.org/2000/svg" viewBox="0 0 65 65"><defs><style>.cls-1{fill:#00a800;}.cls-2{fill:none;}.cls-3{fill:#95a6b1;}.cls-4{fill:#19a301;}.cls-5{fill:#82d400;}</style></defs><title>usado_diluyente</title><path class="cls-1" d="M18.6,36.8a3.4,3.4,0,0,1-1.4-.2,4.3,4.3,0,0,1-2.2-2,4.4,4.4,0,0,1-.1-3A3.8,3.8,0,0,1,17,29.4a3.9,3.9,0,0,1,5.2,1.9h0a4.1,4.1,0,0,1,.1,2.9,3.9,3.9,0,0,1-2.1,2.3A4.5,4.5,0,0,1,18.6,36.8Zm0-6.2-1,.2a2.5,2.5,0,0,0-1.2,1.3,2.3,2.3,0,0,0,.1,1.8,2.5,2.5,0,0,0,1.3,1.2,2.3,2.3,0,0,0,1.8-.1,2.2,2.2,0,0,0,1.2-1.3,2.5,2.5,0,0,0-.1-1.7A2.3,2.3,0,0,0,18.6,30.6Z"/><rect class="cls-2" width="65" height="65"/><path class="cls-3" d="M41.2,46H21.7a4,4,0,0,1-4-4V38.4a.8.8,0,1,1,1.6,0V42a2.4,2.4,0,0,0,2.4,2.4H41.2A2.3,2.3,0,0,0,43.5,42V17.8a1.6,1.6,0,0,0-1.6-1.6H33.5a.8.8,0,0,1-.8-.6l-1-4.2a1.6,1.6,0,0,0-1.5-1.1H21.9a1.5,1.5,0,0,0-1.5,1.1l-1.1,4.1V27.3a.8.8,0,1,1-1.6,0V15.2L18.9,11a3.1,3.1,0,0,1,3-2.3h8.3a3,3,0,0,1,3,2.4l.9,3.5h7.8a3.2,3.2,0,0,1,3.2,3.2V42A4,4,0,0,1,41.2,46Z"/><path class="cls-3" d="M42.5,12.3H36.4a.8.8,0,0,1-.8-.8V7.7a.9.9,0,0,1,.8-.8h6.1a.8.8,0,0,1,.8.8v3.8A.7.7,0,0,1,42.5,12.3Zm-5.3-1.6h4.5V8.5H37.2Z"/><path class="cls-3" d="M27.9,17.9H24.5a2.6,2.6,0,0,1-2.6-2.6,2.5,2.5,0,0,1,2.6-2.6h3.4a2.5,2.5,0,0,1,2.6,2.6A2.6,2.6,0,0,1,27.9,17.9Zm-3.4-3.6a.9.9,0,0,0-1,1,1,1,0,0,0,1,1h3.4a1,1,0,0,0,1-1,.9.9,0,0,0-1-1Z"/><path class="cls-3" d="M44.3,39.2H18.5a.9.9,0,0,1-.8-.8.8.8,0,0,1,.8-.8H44.3a.7.7,0,0,1,.8.8A.8.8,0,0,1,44.3,39.2Z"/><path class="cls-3" d="M44.3,27.7a4.4,4.4,0,0,1-3-1.2,2.9,2.9,0,0,0-2.1-.8,2.7,2.7,0,0,0-2.1.8,4.6,4.6,0,0,1-6.2,0,2.7,2.7,0,0,0-2.1-.8,2.9,2.9,0,0,0-2.1.8,4.4,4.4,0,0,1-3,1.2,4.7,4.7,0,0,1-3.1-1.2,2.9,2.9,0,0,0-2.1-.8.9.9,0,0,1-.8-.8.8.8,0,0,1,.8-.8,4.7,4.7,0,0,1,3.1,1.1,2.9,2.9,0,0,0,4.2,0,4.4,4.4,0,0,1,3-1.1,4.7,4.7,0,0,1,3.1,1.1,2.9,2.9,0,0,0,4.2,0,4.7,4.7,0,0,1,3.1-1.1,4.4,4.4,0,0,1,3,1.1,2.9,2.9,0,0,0,2.1.9.7.7,0,0,1,.8.8A.8.8,0,0,1,44.3,27.7Z"/><path class="cls-3" d="M41.4,16.2a.8.8,0,0,1-.8-.8V11.5a.9.9,0,0,1,.8-.8.8.8,0,0,1,.8.8v3.9A.7.7,0,0,1,41.4,16.2Z"/><path class="cls-3" d="M37.4,16.2a.7.7,0,0,1-.8-.8V11.5a.8.8,0,0,1,.8-.8.9.9,0,0,1,.8.8v3.9A.8.8,0,0,1,37.4,16.2Z"/><rect class="cls-2" y="48.3" width="65" height="16.74"/><path class="cls-4" d="M45.4,61.3H38.2A1.2,1.2,0,0,1,37,60.1a1.3,1.3,0,0,1,1.2-1.2h7.2a1.3,1.3,0,0,1,1.2,1.2A1.2,1.2,0,0,1,45.4,61.3Z"/><path class="cls-4" d="M53.1,61.3h-.6a1.2,1.2,0,0,1-1.2-1.2,1.3,1.3,0,0,1,1.2-1.2h.6a1.2,1.2,0,0,1,1.2,1.2A1.2,1.2,0,0,1,53.1,61.3Z"/><path class="cls-4" d="M19,61.3H11.9a1.2,1.2,0,0,1-1.2-1.2,1.2,1.2,0,0,1,1.2-1.2H19a1.2,1.2,0,0,1,1.2,1.2A1.2,1.2,0,0,1,19,61.3Z"/><path class="cls-5" d="M31,61.3H18.5a1.2,1.2,0,0,1-1.2-1.2,1.3,1.3,0,0,1,1.2-1.2H31a1.2,1.2,0,0,1,1.2,1.2A1.2,1.2,0,0,1,31,61.3Z"/><path class="cls-5" d="M35.5,55.2H11.9a1.2,1.2,0,1,1,0-2.4H35.5a1.2,1.2,0,0,1,0,2.4Z"/><path class="cls-4" d="M53.1,55.2H34.7a1.2,1.2,0,0,1,0-2.4H53.1a1.2,1.2,0,0,1,0,2.4Z"/><path class="cls-4" d="M12.3,55.2h-.4a1.2,1.2,0,1,1,0-2.4h.4a1.2,1.2,0,0,1,0,2.4Z"/></svg>