<?xml version="1.0" encoding="utf-8"?>
<!-- Generator: Adobe Illustrator 24.0.2, SVG Export Plug-In . SVG Version: 6.00 Build 0)  -->
<svg version="1.1" xmlns="http://www.w3.org/2000/svg" xmlns:xlink="http://www.w3.org/1999/xlink" x="0px" y="0px"
	 viewBox="0 0 47 47" style="enable-background:new 0 0 47 47;" xml:space="preserve">
<style type="text/css">
	.st0{display:none;}
	.st1{display:inline;fill:#98A6B0;}
	.st2{fill:none;}
	.st3{fill:none;stroke:#95A6B1;stroke-width:1.6;stroke-linecap:round;stroke-linejoin:round;}
	.st4{fill:none;stroke:#00A800;stroke-width:1.6;stroke-linecap:round;stroke-linejoin:round;stroke-miterlimit:10;}
	.st5{fill:#4C9F2E;}
	.st6{fill:#94D040;}
	.st7{fill:none;stroke:#FFFFFF;stroke-width:1.5;stroke-linecap:round;stroke-linejoin:round;stroke-miterlimit:10;}
	.st8{fill:none;stroke:#FFFFFF;stroke-width:1.5;stroke-linecap:round;stroke-linejoin:round;}
</style>
<g id="BASE" class="st0">
	<rect x="-2.2" y="-2.22" class="st1" width="51.47" height="51.47"/>
</g>
<g id="Capa_1">
	<rect x="0.07" class="st2" width="46.93" height="47"/>
	<g>
		<g>
			<path class="st7" d="M33.79,37.55v2.89H13.87c-2.23,0-4.04-1.81-4.04-4.04V10.95h5.61"/>
			<line class="st7" x1="33.79" y1="23.24" x2="33.79" y2="27.43"/>
			<polyline class="st7" points="28.18,10.95 33.79,10.95 33.79,19.15 			"/>
			<circle class="st7" cx="21.81" cy="13.38" r="6.82"/>
			<g>
				<g>
					<path class="st7" d="M19.84,10.88c0-1.09,0.88-1.97,1.97-1.97s1.97,0.88,1.97,1.97s-0.88,1.97-1.97,1.97"/>
					<line class="st7" x1="21.81" y1="12.85" x2="21.81" y2="15.16"/>
				</g>
				<line class="st7" x1="21.81" y1="17.61" x2="21.81" y2="17.61"/>
			</g>
			<path class="st7" d="M28.63,16.04l8.27,5.34c0.34,0.22,0.36,0.78,0.06,1.25l-0.66,1.02c-0.31,0.47-0.83,0.68-1.16,0.46
				l-8.62-5.56"/>
			<line class="st7" x1="13.58" y1="26.2" x2="28.98" y2="26.2"/>
			<line class="st7" x1="13.58" y1="30.63" x2="28.98" y2="30.63"/>
			<line class="st7" x1="13.58" y1="35.35" x2="28.98" y2="35.35"/>
		</g>
		<path class="st8" d="M31.33,31.38c-0.3,0.65-0.31,1.35-0.11,1.97c0.23,0.69,0.73,1.28,1.44,1.61c1.36,0.62,2.96,0.02,3.58-1.33
			c0.62-1.36,0.02-2.96-1.33-3.58S31.95,30.02,31.33,31.38z"/>
	</g>
</g>
</svg>
