<?xml version="1.0" encoding="utf-8"?>
<!-- Generator: Adobe Illustrator 24.0.2, SVG Export Plug-In . SVG Version: 6.00 Build 0)  -->
<svg version="1.1" xmlns="http://www.w3.org/2000/svg" xmlns:xlink="http://www.w3.org/1999/xlink" x="0px" y="0px"
	 viewBox="0 0 65 65" style="enable-background:new 0 0 65 65;" xml:space="preserve">
<style type="text/css">
	.st0{display:none;}
	.st1{display:inline;fill:#98A6B0;}
	.st2{fill:none;}
	.st3{fill:none;stroke:#95A6B1;stroke-width:1.6;stroke-linecap:round;stroke-linejoin:round;}
	.st4{fill:none;stroke:#00A800;stroke-width:1.6;stroke-linecap:round;stroke-linejoin:round;stroke-miterlimit:10;}
	.st5{fill:#4C9F2E;}
	.st6{fill:#94D040;}
	.st7{fill:none;stroke:#FFFFFF;stroke-width:1.5;stroke-linecap:round;stroke-linejoin:round;stroke-miterlimit:10;}
	.st8{fill:none;stroke:#FFFFFF;stroke-width:1.5;stroke-linecap:round;stroke-linejoin:round;}
</style>
<g id="BASE" class="st0">
</g>
<g id="Capa_1">
	<g>
		<g>
			<g>
				<g>
					<path class="st3" d="M27.46,21.09h-10.4h-4.94c-1.23,0-2.22,0.99-2.22,2.22v2.92v4.36"/>
					<path class="st3" d="M26.27,21.1v-4.78c0-0.87-0.71-1.58-1.58-1.58h-9.1c-0.87,0-1.58,0.71-1.58,1.58v4.77"/>
					<g>
						<path class="st3" d="M20.74,25.31c-0.37-0.21-0.83-0.21-1.2,0L6.15,32.66c-0.54,0.3-0.78,0.94-0.57,1.52L9.3,45.5"/>
						<line class="st3" x1="20.13" y1="25.14" x2="20.13" y2="46.19"/>
					</g>
					<circle class="st3" cx="13.65" cy="34.07" r="1.62"/>
					<path class="st3" d="M21.79,9.08h-3.56c-0.49,0-0.89,0.4-0.89,0.89v4.77h5.4v-4.71C22.75,9.5,22.32,9.08,21.79,9.08z"/>
				</g>
			</g>
		</g>
		<g>
			<path class="st3" d="M27.69,45.22V31.7c0-0.5,0.41-0.9,0.91-0.9h28.22c0.58,0,1.05,0.47,1.05,1.04v12.75"/>
			<line class="st3" x1="44.05" y1="34.04" x2="57.87" y2="34.04"/>
			<line class="st3" x1="49.73" y1="34.03" x2="49.73" y2="46.11"/>
			<line class="st3" x1="49.74" y1="37.15" x2="54.4" y2="37.15"/>
			<line class="st3" x1="49.73" y1="40.01" x2="54.4" y2="40.01"/>
			<line class="st3" x1="49.73" y1="42.99" x2="54.4" y2="42.99"/>
			<line class="st3" x1="54.42" y1="34.03" x2="54.42" y2="45.22"/>
			<line class="st3" x1="44.04" y1="30.83" x2="44.04" y2="44.91"/>
			<path class="st3" d="M31.74,28.35v2.44h22.6v-7.35c0-0.5-0.41-0.91-0.92-0.91H37.27"/>
			<path class="st3" d="M49.74,18.97h-9.62c-0.48,0-0.87,0.39-0.87,0.87v2.68H50.5v-2.8C50.5,19.31,50.16,18.97,49.74,18.97z"/>
			<line class="st3" x1="36.49" y1="25.61" x2="54.37" y2="25.61"/>
			<g>
				<path id="Trazado_6132_3_" class="st3" d="M58.6,21.11c-1.1,2.09-4.02,2.75-4.02,2.75s-1.13-2.74-0.02-4.84
					c1.11-2.09,4.02-2.75,4.02-2.75S59.71,19.01,58.6,21.11z"/>
				<line id="Línea_1426_3_" class="st3" x1="54.58" y1="23.86" x2="56.58" y2="20.06"/>
			</g>
			<g>
				<path id="Trazado_6132_2_" class="st3" d="M58.23,27.81c-2.33-0.53-3.7-3.16-3.7-3.16s2.4-1.77,4.73-1.24
					c2.33,0.53,3.7,3.16,3.7,3.16S60.56,28.34,58.23,27.81z"/>
				<line id="Línea_1426_2_" class="st3" x1="54.53" y1="24.65" x2="58.74" y2="25.61"/>
			</g>
		</g>
		<path class="st4" d="M34.8,21.36c0.32,0.7,0.34,1.46,0.12,2.14c-0.25,0.75-0.79,1.4-1.57,1.75c-1.48,0.67-3.22,0.03-3.89-1.45
			c-0.67-1.48-0.03-3.22,1.45-3.89C32.38,19.24,34.13,19.89,34.8,21.36z"/>
		<g>
			<path class="st3" d="M62.25,46.82c-2.7,0-2.7-2.25-5.41-2.25c-2.7,0-2.7,2.25-5.4,2.25c-2.7,0-2.7-2.25-5.41-2.25
				c-2.7,0-2.7,2.25-5.41,2.25s-2.7-2.25-5.41-2.25c-2.7,0-2.7,2.25-5.41,2.25c-2.7,0-2.7-2.25-5.41-2.25c-2.7,0-2.7,2.25-5.41,2.25
				c-2.71,0-2.71-2.25-5.41-2.25c-2.71,0-2.71,2.25-5.42,2.25s-2.71-2.25-5.42-2.25"/>
		</g>
		<path class="st3" d="M20.74,25.3l9.82,5.39c0.25,0.16-0.81-0.47-0.73-0.39"/>
		<line class="st3" x1="31.74" y1="27.6" x2="31.74" y2="30.79"/>
	</g>
	<g>
		<g>
			<g>
				<g>
					<rect y="48.26" class="st2" width="65" height="16.74"/>
				</g>
				<g>
					<g>
						<path class="st5" d="M45.38,61.32h-7.17c-0.66,0-1.2-0.54-1.2-1.2s0.54-1.2,1.2-1.2h7.17c0.66,0,1.2,0.54,1.2,1.2
							S46.04,61.32,45.38,61.32z"/>
					</g>
					<g>
						<path class="st5" d="M53.11,61.32h-0.58c-0.66,0-1.2-0.54-1.2-1.2s0.54-1.2,1.2-1.2h0.58c0.66,0,1.2,0.54,1.2,1.2
							S53.77,61.32,53.11,61.32z"/>
					</g>
					<g>
						<path class="st5" d="M18.99,61.32h-7.1c-0.66,0-1.2-0.54-1.2-1.2s0.54-1.2,1.2-1.2h7.1c0.66,0,1.2,0.54,1.2,1.2
							S19.65,61.32,18.99,61.32z"/>
					</g>
					<g>
						<path class="st6" d="M31.05,61.32H18.53c-0.66,0-1.2-0.54-1.2-1.2s0.54-1.2,1.2-1.2h12.52c0.66,0,1.2,0.54,1.2,1.2
							S31.71,61.32,31.05,61.32z"/>
					</g>
					<g>
						<path class="st6" d="M35.47,55.21H11.89c-0.66,0-1.2-0.54-1.2-1.2s0.54-1.2,1.2-1.2h23.58c0.66,0,1.2,0.54,1.2,1.2
							S36.14,55.21,35.47,55.21z"/>
					</g>
					<g>
						<path class="st5" d="M53.11,55.21H34.75c-0.66,0-1.2-0.54-1.2-1.2s0.54-1.2,1.2-1.2h18.36c0.66,0,1.2,0.54,1.2,1.2
							S53.77,55.21,53.11,55.21z"/>
					</g>
					<g>
						<path class="st5" d="M12.32,55.21h-0.43c-0.66,0-1.2-0.54-1.2-1.2s0.54-1.2,1.2-1.2h0.43c0.66,0,1.2,0.54,1.2,1.2
							S12.98,55.21,12.32,55.21z"/>
					</g>
				</g>
			</g>
		</g>
		<rect class="st2" width="65" height="65"/>
		<rect y="0.12" class="st2" width="64.58" height="64.58"/>
	</g>
</g>
</svg>
