<svg xmlns="http://www.w3.org/2000/svg" viewBox="0 0 65 65"><defs><style>.cls-1{isolation:isolate;}.cls-2{mix-blend-mode:multiply;}.cls-3{fill:#4da22e;}.cls-4{fill:#95a6b1;}.cls-5{fill:none;}.cls-6{fill:#4da12e;}.cls-7{fill:#96d200;}</style></defs><title>tanques_grandes copy</title><g class="cls-1"><g id="Capa_1" data-name="Capa 1"><g id="Trazado_11848" data-name="Trazado 11848" class="cls-2"><path class="cls-3" d="M13.5,13.9a4.7,4.7,0,0,1,0-9.4,4.9,4.9,0,0,1,3.3,1.3,4.7,4.7,0,0,1,1.4,3.3h0A4.7,4.7,0,0,1,13.5,13.9Zm0-7.8h0a3.1,3.1,0,1,0,3.1,3.1h0A2.7,2.7,0,0,0,15.7,7,2.9,2.9,0,0,0,13.5,6.1Z"/></g><g id="Trazado_11852" data-name="Trazado 11852"><path class="cls-4" d="M51.7,47.3H13.3a.8.8,0,0,1-.8-.8V16.8a.8.8,0,0,1,.8-.8.7.7,0,0,1,.8.8V45.7H50.9V9.6H21a.8.8,0,0,1-.8-.8A.7.7,0,0,1,21,8H51.7a.8.8,0,0,1,.8.8V46.5A.8.8,0,0,1,51.7,47.3Z"/></g><g id="Línea_2421" data-name="Línea 2421"><path class="cls-4" d="M51.7,13.7a.8.8,0,0,1-.8-.8V8.8a.7.7,0,0,1,.8-.8.8.8,0,0,1,.8.8v4.1A.9.9,0,0,1,51.7,13.7Z"/></g><g id="Línea_2422" data-name="Línea 2422"><path class="cls-4" d="M23.8,13.7a.9.9,0,0,1-.8-.8V8.8a.8.8,0,0,1,.8-.8.7.7,0,0,1,.8.8v4.1A.8.8,0,0,1,23.8,13.7Z"/></g><g id="Línea_2423" data-name="Línea 2423"><path class="cls-4" d="M31.5,13.7a.9.9,0,0,1-.8-.8V8.8a.8.8,0,0,1,.8-.8.7.7,0,0,1,.8.8v4.1A.8.8,0,0,1,31.5,13.7Z"/></g><g id="Línea_2424" data-name="Línea 2424"><path class="cls-4" d="M43.1,13.7a.8.8,0,0,1-.8-.8V8.8a.7.7,0,0,1,.8-.8.8.8,0,0,1,.8.8v4.1A.9.9,0,0,1,43.1,13.7Z"/></g><g id="Línea_2425" data-name="Línea 2425"><path class="cls-4" d="M55,13.7H21a.7.7,0,0,1-.8-.8.8.8,0,0,1,.8-.8H55a.9.9,0,0,1,.8.8A.8.8,0,0,1,55,13.7Z"/></g><path class="cls-4" d="M34.7,47.3a.8.8,0,0,1-.8-.8V30.4a.8.8,0,0,1,.8-.8.9.9,0,0,1,.8.8V46.5A.9.9,0,0,1,34.7,47.3Z"/><path class="cls-4" d="M43.2,47.3a.8.8,0,0,1-.8-.8V30.4a.8.8,0,0,1,.8-.8.9.9,0,0,1,.8.8V46.5A.9.9,0,0,1,43.2,47.3Z"/><path class="cls-4" d="M34.7,39.1h-.4L13,29.7a.8.8,0,0,1-.4-1.1.8.8,0,0,1,1-.4L35,37.6a.7.7,0,0,1,.4,1A.8.8,0,0,1,34.7,39.1Z"/><path class="cls-4" d="M34.7,31.2h-.4L13,21.8a.8.8,0,1,1,.6-1.4L35,29.7a.8.8,0,0,1,.4,1.1A.7.7,0,0,1,34.7,31.2Z"/><path class="cls-4" d="M43.1,38.4H34.7a.8.8,0,1,1,0-1.6h8.4a.8.8,0,1,1,0,1.6Z"/><path class="cls-4" d="M43.1,43H34.7a.8.8,0,0,1-.8-.8.7.7,0,0,1,.8-.8h8.4a.8.8,0,0,1,.8.8A.9.9,0,0,1,43.1,43Z"/><path class="cls-4" d="M43.1,47.3H34.7a.7.7,0,0,1-.8-.8.8.8,0,0,1,.8-.8h8.4a.9.9,0,0,1,.8.8A.8.8,0,0,1,43.1,47.3Z"/><path class="cls-4" d="M17.3,31.5a.8.8,0,0,1-.8-.8V23a.8.8,0,0,1,1.6,0v7.7A.8.8,0,0,1,17.3,31.5Z"/><path class="cls-4" d="M21.8,33.4a.8.8,0,0,1-.8-.8V24.8a.8.8,0,0,1,.8-.8.9.9,0,0,1,.8.8v7.8A.9.9,0,0,1,21.8,33.4Z"/><path class="cls-4" d="M26.2,35.5a.9.9,0,0,1-.8-.8V26.9a.9.9,0,0,1,.8-.8.8.8,0,0,1,.8.8v7.8A.8.8,0,0,1,26.2,35.5Z"/><path class="cls-4" d="M30.7,37.2a.7.7,0,0,1-.8-.8V28.7a.7.7,0,0,1,.8-.8.8.8,0,0,1,.8.8v7.7A.8.8,0,0,1,30.7,37.2Z"/><path class="cls-4" d="M50.9,19.5H42.2a.9.9,0,0,1-.8-.8.8.8,0,0,1,.8-.8h8.7a.8.8,0,0,1,.8.8A.9.9,0,0,1,50.9,19.5Z"/><path class="cls-4" d="M39.5,19.5H38.3a.9.9,0,0,1-.8-.8.8.8,0,0,1,.8-.8h1.2a.8.8,0,0,1,.8.8A.9.9,0,0,1,39.5,19.5Z"/><path class="cls-4" d="M55,47.3H10.3a.7.7,0,0,1-.7-.8.7.7,0,0,1,.7-.7H55a.8.8,0,0,1,.8.7A.8.8,0,0,1,55,47.3Z"/><rect class="cls-5" width="65" height="65"/><rect class="cls-5" y="48.3" width="65" height="16.74"/><path class="cls-6" d="M45.4,61.3H38.2A1.2,1.2,0,0,1,37,60.1a1.3,1.3,0,0,1,1.2-1.2h7.2a1.3,1.3,0,0,1,1.2,1.2A1.2,1.2,0,0,1,45.4,61.3Z"/><path class="cls-6" d="M53.1,61.3h-.6a1.2,1.2,0,0,1-1.2-1.2,1.3,1.3,0,0,1,1.2-1.2h.6a1.2,1.2,0,0,1,1.2,1.2A1.2,1.2,0,0,1,53.1,61.3Z"/><path class="cls-6" d="M19,61.3H11.9a1.2,1.2,0,0,1-1.2-1.2,1.2,1.2,0,0,1,1.2-1.2H19a1.2,1.2,0,0,1,1.2,1.2A1.2,1.2,0,0,1,19,61.3Z"/><path class="cls-7" d="M31,61.3H18.5a1.2,1.2,0,0,1-1.2-1.2,1.3,1.3,0,0,1,1.2-1.2H31a1.2,1.2,0,0,1,1.2,1.2A1.2,1.2,0,0,1,31,61.3Z"/><path class="cls-7" d="M35.5,55.2H11.9a1.2,1.2,0,1,1,0-2.4H35.5a1.2,1.2,0,0,1,0,2.4Z"/><path class="cls-6" d="M53.1,55.2H34.7a1.2,1.2,0,0,1,0-2.4H53.1a1.2,1.2,0,0,1,0,2.4Z"/><path class="cls-6" d="M12.3,55.2h-.4a1.2,1.2,0,1,1,0-2.4h.4a1.2,1.2,0,0,1,0,2.4Z"/></g></g></svg>