<svg xmlns="http://www.w3.org/2000/svg" width="47" height="186.151" viewBox="0 0 47 186.151">
  <g id="Grupo_20468" data-name="Grupo 20468" transform="translate(-1034.152 -1851.913)">
    <g id="Trazado_11273" data-name="Trazado 11273" transform="translate(1057.652 1966.366)" fill="#fff">
      <path d="M 4.5 8 C 2.570090055465698 8 1 6.429910182952881 1 4.5 C 1 2.570090055465698 2.570090055465698 1 4.5 1 C 6.429910182952881 1 8 2.570090055465698 8 4.5 C 8 5.237659931182861 7.764450073242188 5.91195011138916 7.236249923706055 6.68632984161377 L 7.231080055236816 6.693910121917725 L 7.226049900054932 6.701580047607422 C 6.816100120544434 7.326940059661865 5.788169860839844 8 4.5 8 Z" stroke="none"/>
      <path d="M 4.5 2 C 3.121500015258789 2 2 3.121500015258789 2 4.5 C 2 5.878499984741211 3.121500015258789 7 4.5 7 C 5.472350120544434 7 6.175139904022217 6.480679988861084 6.389729976654053 6.153340339660645 L 6.410130023956299 6.122829914093018 C 6.929920196533203 5.360790252685547 7 4.874849796295166 7 4.5 C 7 3.121500015258789 5.878499984741211 2 4.5 2 M 4.5 0 C 6.98528003692627 0 9 2.01471996307373 9 4.5 C 9 5.424520015716553 8.721199989318848 6.283929824829102 8.062370300292969 7.249819755554199 C 7.435930252075195 8.205430030822754 6.060760021209717 9 4.5 9 C 2.01471996307373 9 0 6.98528003692627 0 4.5 C 0 2.01471996307373 2.01471996307373 0 4.5 0 Z" stroke="none" fill="#00af00"/>
    </g>
    <g id="Trazado_11274" data-name="Trazado 11274" transform="translate(1057.652 2026.479)" fill="#fff">
      <path d="M 4.5 8 C 2.570090055465698 8 1 6.429910182952881 1 4.5 C 1 2.570090055465698 2.570090055465698 1 4.5 1 C 6.429910182952881 1 8 2.570090055465698 8 4.5 C 8 5.237659931182861 7.764450073242188 5.91195011138916 7.236249923706055 6.68632984161377 L 7.231080055236816 6.693910121917725 L 7.226049900054932 6.701580047607422 C 6.816100120544434 7.326940059661865 5.788169860839844 8 4.5 8 Z" stroke="none"/>
      <path d="M 4.5 2 C 3.121500015258789 2 2 3.121500015258789 2 4.5 C 2 5.878499984741211 3.121500015258789 7 4.5 7 C 5.472350120544434 7 6.175139904022217 6.480679988861084 6.389729976654053 6.153340339660645 L 6.410130023956299 6.122829914093018 C 6.929920196533203 5.360790252685547 7 4.874849796295166 7 4.5 C 7 3.121500015258789 5.878499984741211 2 4.5 2 M 4.5 0 C 6.98528003692627 0 9 2.01471996307373 9 4.5 C 9 5.424520015716553 8.721199989318848 6.283929824829102 8.062370300292969 7.249819755554199 C 7.435930252075195 8.205430030822754 6.060760021209717 9 4.5 9 C 2.01471996307373 9 0 6.98528003692627 0 4.5 C 0 2.01471996307373 2.01471996307373 0 4.5 0 Z" stroke="none" fill="#00af00"/>
    </g>
    <g id="Grupo_20467" data-name="Grupo 20467" transform="translate(-1.848 0.178)">
      <line id="Línea_2119" data-name="Línea 2119" y2="132" transform="translate(1062.152 1905.886)" fill="none" stroke="#505d6c" stroke-width="1" opacity="0.29"/>
      <g id="Grupo_20324" data-name="Grupo 20324" transform="translate(946 1851.735)">
        <g id="Grupo_16058" data-name="Grupo 16058">
          <path id="Trazado_17751" data-name="Trazado 17751" d="M97.864,12.173V9.427a1.928,1.928,0,0,1,1.93-1.939h4.558a1.934,1.934,0,0,1,1.93,1.939V20.745" fill="none" stroke="#95a6b1" stroke-linecap="round" stroke-linejoin="round" stroke-width="1.5"/>
          <path id="Trazado_17752" data-name="Trazado 17752" d="M106.282,32.3V42.419H97.864V24.383" fill="none" stroke="#95a6b1" stroke-linecap="round" stroke-linejoin="round" stroke-width="1.5"/>
          <path id="Trazado_17753" data-name="Trazado 17753" d="M114.192,42.419V30.884" fill="none" stroke="#95a6b1" stroke-linecap="round" stroke-linejoin="round" stroke-width="1.5"/>
          <path id="Trazado_17754" data-name="Trazado 17754" d="M114.192,22.158V16.069a3.035,3.035,0,0,0-2.917-3.144h-4.993" fill="none" stroke="#95a6b1" stroke-linecap="round" stroke-linejoin="round" stroke-width="1.5"/>
          <line id="Línea_2122" data-name="Línea 2122" x1="39.131" transform="translate(95.108 42.417)" fill="none" stroke="#95a6b1" stroke-linecap="round" stroke-linejoin="round" stroke-width="1.5"/>
          <circle id="Elipse_2591" data-name="Elipse 2591" cx="6.539" cy="6.539" r="6.539" transform="translate(102.796 19.981)" fill="none" stroke="#95a6b1" stroke-linecap="round" stroke-linejoin="round" stroke-width="1.5"/>
          <circle id="Elipse_2592" data-name="Elipse 2592" cx="3.533" cy="3.533" r="3.533" transform="translate(105.802 22.987)" fill="none" stroke="#95a6b1" stroke-linecap="round" stroke-linejoin="round" stroke-width="1.5"/>
          <circle id="Elipse_2593" data-name="Elipse 2593" cx="3.052" cy="3.052" r="3.052" transform="translate(121.5 23.467)" fill="none" stroke="#95a6b1" stroke-linecap="round" stroke-linejoin="round" stroke-width="1.5"/>
          <line id="Línea_3547" data-name="Línea 3547" x2="13.998" y2="3.314" transform="translate(110.924 20.176)" fill="none" stroke="#95a6b1" stroke-linecap="round" stroke-linejoin="round" stroke-width="1.5"/>
          <line id="Línea_3548" data-name="Línea 3548" x1="13.701" y2="3.309" transform="translate(110.851 29.572)" fill="none" stroke="#95a6b1" stroke-linecap="round" stroke-linejoin="round" stroke-width="1.5"/>
          <path id="Rectángulo_5301" data-name="Rectángulo 5301" d="M3.45,0H9.837a3.45,3.45,0,0,1,3.45,3.45V26.094a0,0,0,0,1,0,0H0a0,0,0,0,1,0,0V3.45A3.45,3.45,0,0,1,3.45,0Z" transform="translate(118.524 16.326)" fill="none" stroke="#95a6b1" stroke-linecap="round" stroke-linejoin="round" stroke-width="1.5"/>
          <path id="Trazado_17755" data-name="Trazado 17755" d="M125.783,33.059,124.552,35.6h1.923l-1.462,3.231" fill="none" stroke="#95a6b1" stroke-linecap="round" stroke-linejoin="round" stroke-width="1.5"/>
          <line id="Línea_3549" data-name="Línea 3549" y1="3.58" transform="translate(121.974 12.747)" fill="none" stroke="#95a6b1" stroke-linecap="round" stroke-linejoin="round" stroke-width="1.5"/>
          <line id="Línea_3550" data-name="Línea 3550" y1="3.58" transform="translate(128.361 12.747)" fill="none" stroke="#95a6b1" stroke-linecap="round" stroke-linejoin="round" stroke-width="1.5"/>
          <line id="Línea_3551" data-name="Línea 3551" x2="9.154" transform="translate(120.585 13.67)" fill="none" stroke="#95a6b1" stroke-linecap="round" stroke-linejoin="round" stroke-width="1.5"/>
          <line id="Línea_3552" data-name="Línea 3552" y1="3.296" transform="translate(100.003 4.012)" fill="none" stroke="#95a6b1" stroke-linecap="round" stroke-linejoin="round" stroke-width="1.5"/>
          <line id="Línea_3553" data-name="Línea 3553" y1="3.296" transform="translate(104.585 4.012)" fill="none" stroke="#95a6b1" stroke-linecap="round" stroke-linejoin="round" stroke-width="1.5"/>
          <line id="Línea_3554" data-name="Línea 3554" x2="7.049" transform="translate(98.914 4.935)" fill="none" stroke="#95a6b1" stroke-linecap="round" stroke-linejoin="round" stroke-width="1.5"/>
        </g>
        <rect id="Rectángulo_5125" data-name="Rectángulo 5125" width="47" height="47" transform="translate(90)" fill="none"/>
        <path id="Trazado_11848" data-name="Trazado 11848" d="M101.825,18.26a3.9,3.9,0,1,1-3.9-3.9h0a3.883,3.883,0,0,1,3.9,3.868Z" fill="none" stroke="#19a500" stroke-linecap="round" stroke-linejoin="round" stroke-width="1.5"/>
      </g>
    </g>
  </g>
</svg>
