<?xml version="1.0" encoding="utf-8"?>
<!-- Generator: Adobe Illustrator 24.0.2, SVG Export Plug-In . SVG Version: 6.00 Build 0)  -->
<svg version="1.1" id="Capa_1" xmlns="http://www.w3.org/2000/svg" xmlns:xlink="http://www.w3.org/1999/xlink" x="0px" y="0px"
	 viewBox="0 0 130 130" style="enable-background:new 0 0 130 130;" xml:space="preserve">
<style type="text/css">
	.st0{fill:#C9D2D7;}
	.st1{fill:#2B5CDA;}
	.st2{fill:#FFFFFF;}
</style>
<g id="Grupo_20167" transform="translate(-0.21 -0.395)">
	<g id="Grupo_20166" transform="translate(0 0)">
		<g id="Grupo_20309" transform="translate(72.623 -177.055)">
			<g id="Grupo_20313" transform="translate(-72.413 177.45)">
				<g id="Grupo_20310">
					<g id="Grupo_20309-2">
						<path id="Trazado_19795" class="st0" d="M65,64.99L77.82,4.7c33.3,7.08,54.56,39.81,47.48,73.11
							c-7.08,33.3-39.81,54.56-73.11,47.48C18.88,118.22-2.38,85.48,4.7,52.18c0,0,0,0,0,0C10.71,23.69,35.88,3.31,65,3.35L65,64.99
							z"/>
					</g>
				</g>
				<g id="Grupo_20312" transform="translate(61.658)">
					<g id="Grupo_20311">
						<path id="Trazado_19796" class="st1" d="M3.34,64.99V3.35c4.31-0.05,8.61,0.4,12.82,1.35L3.34,64.99z"/>
					</g>
				</g>
			</g>
		</g>
		<circle id="Elipse_3084" class="st2" cx="64.55" cy="64.74" r="36"/>
	</g>
</g>
</svg>
