<svg xmlns="http://www.w3.org/2000/svg" width="47.17" height="93.54" viewBox="0 0 47.17 93.54">
  <g id="Grupo_20466" data-name="Grupo 20466" transform="translate(-1035.137 -1851.826)">
    <line id="Línea_2119" data-name="Línea 2119" y2="35.44" transform="translate(1062.152 1905.886)" fill="none" stroke="#505d6c" stroke-width="1" opacity="0.29"/>
    <g id="Trazado_11273" data-name="Trazado 11273" transform="translate(1057.652 1936.366)" fill="#fff">
      <path d="M 4.5 8 C 2.570090055465698 8 1 6.429910182952881 1 4.5 C 1 2.570090055465698 2.570090055465698 1 4.5 1 C 6.429910182952881 1 8 2.570090055465698 8 4.5 C 8 5.237659931182861 7.764450073242188 5.91195011138916 7.236249923706055 6.68632984161377 L 7.231080055236816 6.693910121917725 L 7.226049900054932 6.701580047607422 C 6.816100120544434 7.326940059661865 5.788169860839844 8 4.5 8 Z" stroke="none"/>
      <path d="M 4.5 2 C 3.121500015258789 2 2 3.121500015258789 2 4.5 C 2 5.878499984741211 3.121500015258789 7 4.5 7 C 5.472350120544434 7 6.175139904022217 6.480679988861084 6.389729976654053 6.153340339660645 L 6.410130023956299 6.122829914093018 C 6.929920196533203 5.360790252685547 7 4.874849796295166 7 4.5 C 7 3.121500015258789 5.878499984741211 2 4.5 2 M 4.5 0 C 6.98528003692627 0 9 2.01471996307373 9 4.5 C 9 5.424520015716553 8.721199989318848 6.283929824829102 8.062370300292969 7.249819755554199 C 7.435930252075195 8.205430030822754 6.060760021209717 9 4.5 9 C 2.01471996307373 9 0 6.98528003692627 0 4.5 C 0 2.01471996307373 2.01471996307373 0 4.5 0 Z" stroke="none" fill="#00af00"/>
    </g>
    <g id="Capa_1" data-name="Capa 1" transform="translate(1035.227 1851.916)">
      <g id="Grupo_20323" data-name="Grupo 20323">
        <g id="Grupo_20322" data-name="Grupo 20322">
          <rect id="Rectángulo_3799-2" data-name="Rectángulo 3799-2" width="47.17" height="47.17" transform="translate(-0.09 -0.09)" fill="none"/>
          <g id="Grupo_20321" data-name="Grupo 20321">
            <g id="Grupo_20319" data-name="Grupo 20319">
              <g id="Grupo_20318" data-name="Grupo 20318">
                <line id="Línea_4593" data-name="Línea 4593" x1="2.48" transform="translate(8.25 25.35)" fill="none" stroke="#95a6b1" stroke-linecap="round" stroke-linejoin="round" stroke-width="1.5"/>
                <line id="Línea_4594" data-name="Línea 4594" x1="2.46" transform="translate(14.26 25.35)" fill="none" stroke="#95a6b1" stroke-linecap="round" stroke-linejoin="round" stroke-width="1.5"/>
                <path id="Trazado_19797" data-name="Trazado 19797" d="M17.91,20.13a.92.92,0,0,0-.79-1.02H7.87a.927.927,0,0,0-.79,1.02v.24a.92.92,0,0,0,.79,1.02h9.25a.927.927,0,0,0,.79-1.02Z" fill="none" stroke="#95a6b1" stroke-linecap="round" stroke-linejoin="round" stroke-width="1.5"/>
                <line id="Línea_4595" data-name="Línea 4595" x1="4.55" transform="translate(6.18 29.48)" fill="none" stroke="#95a6b1" stroke-linecap="round" stroke-linejoin="round" stroke-width="1.5"/>
                <path id="Trazado_19798" data-name="Trazado 19798" d="M14.26,35.37h5.32V29.36H14.26" fill="none" stroke="#95a6b1" stroke-linecap="round" stroke-linejoin="round" stroke-width="1.5"/>
                <line id="Línea_4596" data-name="Línea 4596" x2="4.97" transform="translate(5.76 35.25)" fill="none" stroke="#95a6b1" stroke-linecap="round" stroke-linejoin="round" stroke-width="1.5"/>
                <rect id="Rectángulo_5768" data-name="Rectángulo 5768" width="2.13" height="9.13" transform="translate(3.56 27.8)" fill="none" stroke="#95a6b1" stroke-linecap="round" stroke-linejoin="round" stroke-width="1.5"/>
                <rect id="Rectángulo_5769" data-name="Rectángulo 5769" width="3.53" height="15.74" transform="translate(10.73 21.41)" fill="none" stroke="#95a6b1" stroke-linecap="round" stroke-linejoin="round" stroke-width="1.5"/>
              </g>
            </g>
            <g id="Grupo_20320" data-name="Grupo 20320">
              <path id="Trazado_19799" data-name="Trazado 19799" d="M19.58,30.98v9.59H40.55V30.98" fill="none" stroke="#95a6b1" stroke-linecap="round" stroke-linejoin="round" stroke-width="1.5"/>
              <path id="Trazado_19800" data-name="Trazado 19800" d="M22.54,25.46H19.58v5.52" fill="none" stroke="#95a6b1" stroke-linecap="round" stroke-linejoin="round" stroke-width="1.5"/>
              <path id="Trazado_19801" data-name="Trazado 19801" d="M40.55,30.98V25.46h-3.9" fill="none" stroke="#95a6b1" stroke-linecap="round" stroke-linejoin="round" stroke-width="1.5"/>
              <path id="Trazado_19802" data-name="Trazado 19802" d="M36.65,10.14V8.3a1.874,1.874,0,0,1,1.87-1.87h3.05A1.874,1.874,0,0,1,43.44,8.3V37.54H40.55l-2.62-4.68a2.07,2.07,0,0,0-1.61-.76H19.58" fill="none" stroke="#95a6b1" stroke-linecap="round" stroke-linejoin="round" stroke-width="1.5"/>
              <path id="Trazado_19803" data-name="Trazado 19803" d="M22.54,25.72V27.5a.717.717,0,0,0,.72.72h1.52a.717.717,0,0,0,.72-.72V23.44a.717.717,0,0,1,.72-.72h1.34a.717.717,0,0,1,.72.72V27.5a.717.717,0,0,0,.72.72h1.52a.717.717,0,0,0,.72-.72V23.44a.717.717,0,0,1,.72-.72h1a.717.717,0,0,1,.72.72V27.5a.717.717,0,0,0,.72.72h1.52a.717.717,0,0,0,.72-.72V21.25" fill="none" stroke="#95a6b1" stroke-linecap="round" stroke-linejoin="round" stroke-width="1.5"/>
              <circle id="Elipse_3085" data-name="Elipse 3085" cx="1.21" cy="1.21" r="1.21" transform="translate(22.82 35.78)" fill="none" stroke="#95a6b1" stroke-linecap="round" stroke-linejoin="round" stroke-width="1.5"/>
              <circle id="Elipse_3086" data-name="Elipse 3086" cx="1.21" cy="1.21" r="1.21" transform="translate(28.31 35.78)" fill="none" stroke="#95a6b1" stroke-linecap="round" stroke-linejoin="round" stroke-width="1.5"/>
            </g>
          </g>
        </g>
        <path id="Trazado_11848" data-name="Trazado 11848" d="M39.69,15.47a3.04,3.04,0,1,1-3.04-3.04h0a3.028,3.028,0,0,1,3.04,3.02Z" fill="none" stroke="#19a500" stroke-linecap="round" stroke-linejoin="round" stroke-width="1.5"/>
      </g>
    </g>
  </g>
</svg>
