<svg xmlns="http://www.w3.org/2000/svg" width="123.315" height="123.302" viewBox="0 0 123.315 123.302">
  <g id="Grupo_20167" data-name="Grupo 20167" transform="translate(-0.21 -0.395)">
    <g id="Grupo_20166" data-name="Grupo 20166" transform="translate(0 0)">
      <g id="Grupo_20309" data-name="Grupo 20309" transform="translate(72.623 -177.055)">
        <g id="Grupo_20313" data-name="Grupo 20313" transform="translate(-72.413 177.45)">
          <g id="Grupo_20310" data-name="Grupo 20310">
            <g id="Grupo_20309-2" data-name="Grupo 20309">
              <path id="Trazado_19795" data-name="Trazado 19795" d="M-10.755,239.094,2.062,178.8a61.646,61.646,0,0,1,47.481,73.114,61.645,61.645,0,0,1-73.114,47.481,61.644,61.644,0,0,1-47.481-73.114,61.528,61.528,0,0,1,60.3-48.828Z" transform="translate(72.413 -177.45)" fill="#c9d2d7"/>
            </g>
          </g>
          <g id="Grupo_20312" data-name="Grupo 20312" transform="translate(61.658)">
            <g id="Grupo_20311" data-name="Grupo 20311">
              <path id="Trazado_19796" data-name="Trazado 19796" d="M-29.091,239.094V177.45A54.974,54.974,0,0,1-16.275,178.8Z" transform="translate(29.091 -177.45)" fill="#2b5cda"/>
            </g>
          </g>
        </g>
      </g>
      <circle id="Elipse_3084" data-name="Elipse 3084" cx="36" cy="36" r="36" transform="translate(25.21 25.395)" fill="#fff"/>
    </g>
  </g>
</svg>
