<?xml version="1.0" encoding="utf-8"?>
<!-- Generator: Adobe Illustrator 24.0.2, SVG Export Plug-In . SVG Version: 6.00 Build 0)  -->
<svg version="1.1" id="Capa_1" xmlns="http://www.w3.org/2000/svg" xmlns:xlink="http://www.w3.org/1999/xlink" x="0px" y="0px"
	 viewBox="0 0 65 65" style="enable-background:new 0 0 65 65;" xml:space="preserve">
<style type="text/css">
	.st0{fill:none;}
	.st1{fill:none;stroke:#95A6B1;stroke-width:1.6;stroke-linecap:round;stroke-linejoin:round;}
	.st2{fill:none;stroke:#19A500;stroke-width:1.6;stroke-linecap:round;stroke-linejoin:round;stroke-miterlimit:10;}
	.st3{fill:#95A6B1;stroke:#95A6B1;stroke-width:1.6;stroke-linecap:round;stroke-linejoin:round;stroke-miterlimit:10;}
	.st4{fill:none;stroke:#95A6B1;stroke-width:1.6;stroke-linecap:round;stroke-linejoin:round;stroke-miterlimit:10;}
	.st5{fill:#4DA12E;}
	.st6{fill:#96D200;}
	.st7{fill:#95A6B1;}
	.st8{fill:none;stroke:#00A800;stroke-width:1.6;stroke-linecap:round;stroke-linejoin:round;stroke-miterlimit:10;}
	.st9{fill:none;stroke:#95A6B1;stroke-width:1.5902;stroke-linecap:round;stroke-linejoin:round;}
	.st10{fill:none;stroke:#19A500;stroke-width:1.6;stroke-miterlimit:10;}
	.st11{fill:none;stroke:#93A4AF;stroke-width:1.6;stroke-linecap:round;stroke-linejoin:round;}
</style>
<g>
	<rect id="Rectángulo_3799-2_16_" class="st0" width="65" height="65"/>
	<g>
		<path id="Trazado_11848_10_" class="st2" d="M28.77,9.76c0,1.96-1.59,3.56-3.56,3.56c-1.96,0-3.56-1.59-3.56-3.56
			c0-1.96,1.59-3.56,3.56-3.56l0,0c1.96-0.01,3.55,1.57,3.56,3.53C28.77,9.74,28.77,9.75,28.77,9.76z"/>
		<g>
			<polyline class="st1" points="59.64,15.01 52.64,24.67 52.64,36.31 			"/>
			<line class="st1" x1="40.12" y1="20.01" x2="55.64" y2="20.01"/>
			<line class="st1" x1="9.36" y1="20.01" x2="24.59" y2="20.01"/>
			<line class="st1" x1="41.12" y1="17.09" x2="57.64" y2="17.09"/>
			<line class="st1" x1="7.36" y1="17.09" x2="23.59" y2="17.09"/>
			<polyline class="st1" points="12.36,36.31 12.36,25.26 5.36,15.01 			"/>
			<g>
				<path class="st1" d="M12.13,40.15c2.54,0,2.54,2,5.09,2c2.54,0,2.54-2,5.09-2c2.54,0,2.54,2,5.09,2c2.55,0,2.55-2,5.09-2
					c2.54,0,2.54,2,5.09,2c2.55,0,2.55-2,5.09-2c2.55,0,2.55,2,5.1,2s2.55-2,5.1-2"/>
			</g>
			<g>
				<path class="st1" d="M12.13,46.44c2.54,0,2.54,2,5.09,2c2.54,0,2.54-2,5.09-2c2.54,0,2.54,2,5.09,2c2.55,0,2.55-2,5.09-2
					c2.54,0,2.54,2,5.09,2c2.55,0,2.55-2,5.09-2c2.55,0,2.55,2,5.1,2s2.55-2,5.1-2"/>
			</g>
			<g>
				<path class="st1" d="M35.28,40.87v-9.64c0-1.38-1.12-2.5-2.5-2.5h0c-1.38,0-2.5,1.12-2.5,2.5v9.64"/>
				<path class="st1" d="M47.04,41.09v-9.87c0-1.38-1.12-2.5-2.5-2.5h0c-1.38,0-2.5,1.12-2.5,2.5v8.87"/>
				<path class="st1" d="M22.96,40.09v-8.87c0-1.38-1.12-2.5-2.5-2.5h0c-1.38,0-2.5,1.12-2.5,2.5v9.87"/>
			</g>
			<g>
				<polygon class="st1" points="28.97,17.1 33.31,10.95 33.31,15.18 36.03,15.12 31.95,21.55 31.95,17.1 				"/>
				<path class="st1" d="M30.5,7.8c0.64-0.15,1.31-0.24,2-0.24"/>
				<path class="st1" d="M23.95,16.12c0-0.26,0.01-0.52,0.03-0.77"/>
				<path class="st1" d="M32.5,7.56c4.72,0,8.55,3.83,8.55,8.55s-3.83,8.55-8.55,8.55s-8.55-3.83-8.55-8.55"/>
			</g>
			<line class="st1" x1="20.46" y1="28.73" x2="20.46" y2="25.81"/>
			<line class="st1" x1="44.54" y1="28.73" x2="44.54" y2="25.81"/>
		</g>
	</g>
</g>
<g>
	<g>
		<g>
			<rect y="48.26" class="st0" width="65" height="16.74"/>
		</g>
		<g>
			<g>
				<path class="st5" d="M45.38,61.32h-7.17c-0.66,0-1.2-0.54-1.2-1.2s0.54-1.2,1.2-1.2h7.17c0.66,0,1.2,0.54,1.2,1.2
					S46.04,61.32,45.38,61.32z"/>
			</g>
			<g>
				<path class="st5" d="M53.11,61.32h-0.58c-0.66,0-1.2-0.54-1.2-1.2s0.54-1.2,1.2-1.2h0.58c0.66,0,1.2,0.54,1.2,1.2
					S53.77,61.32,53.11,61.32z"/>
			</g>
			<g>
				<path class="st5" d="M18.99,61.32h-7.1c-0.66,0-1.2-0.54-1.2-1.2s0.54-1.2,1.2-1.2h7.1c0.66,0,1.2,0.54,1.2,1.2
					S19.66,61.32,18.99,61.32z"/>
			</g>
			<g>
				<path class="st6" d="M31.05,61.32H18.53c-0.66,0-1.2-0.54-1.2-1.2s0.54-1.2,1.2-1.2h12.52c0.66,0,1.2,0.54,1.2,1.2
					S31.71,61.32,31.05,61.32z"/>
			</g>
			<g>
				<path class="st6" d="M35.47,55.21H11.89c-0.66,0-1.2-0.54-1.2-1.2s0.54-1.2,1.2-1.2h23.58c0.66,0,1.2,0.54,1.2,1.2
					S36.14,55.21,35.47,55.21z"/>
			</g>
			<g>
				<path class="st5" d="M53.11,55.21H34.75c-0.66,0-1.2-0.54-1.2-1.2s0.54-1.2,1.2-1.2h18.36c0.66,0,1.2,0.54,1.2,1.2
					S53.77,55.21,53.11,55.21z"/>
			</g>
			<g>
				<path class="st5" d="M12.32,55.21h-0.43c-0.66,0-1.2-0.54-1.2-1.2s0.54-1.2,1.2-1.2h0.43c0.66,0,1.2,0.54,1.2,1.2
					S12.98,55.21,12.32,55.21z"/>
			</g>
		</g>
	</g>
</g>
</svg>
