<?xml version="1.0" encoding="utf-8"?>
<!-- Generator: Adobe Illustrator 24.0.2, SVG Export Plug-In . SVG Version: 6.00 Build 0)  -->
<svg version="1.1" id="Layer_1" xmlns="http://www.w3.org/2000/svg" xmlns:xlink="http://www.w3.org/1999/xlink" x="0px" y="0px"
	 width="20px" height="20px" viewBox="0 0 20 20" style="enable-background:new 0 0 20 20;" xml:space="preserve">
<style type="text/css">
	.st0{fill:#505D6C;}
	.st1{fill:#FFFFFF;}
</style>
<g id="Component_41_2" transform="translate(0.392 0.392)">
	<g id="Path_8642">
		<path class="st0" d="M9.6,0.6c5,0,9,4,9,9s-4,9-9,9s-9-4-9-9S4.6,0.6,9.6,0.6z"/>
		<path class="st0" d="M9.6,19c-5.2,0-9.4-4.2-9.4-9.4s4.2-9.4,9.4-9.4S19,4.4,19,9.6S14.8,19,9.6,19z M9.6,1C4.9,1,1,4.9,1,9.6
			c0,4.7,3.9,8.6,8.6,8.6c4.7,0,8.6-3.9,8.6-8.6C18.2,4.9,14.4,1,9.6,1z"/>
	</g>
	<g id="Line_1358">
		<path class="st1" d="M9.6,14c-0.5,0-1-0.4-1-1V5.6c0-0.5,0.4-1,1-1s1,0.4,1,1V13C10.6,13.6,10.1,14,9.6,14z"/>
	</g>
	<g id="Line_1359">
		<path class="st1" d="M13.6,10.6H5.6c-0.5,0-1-0.4-1-1s0.4-1,1-1h7.9c0.5,0,1,0.4,1,1S14.1,10.6,13.6,10.6z"/>
	</g>
</g>
</svg>
