<?xml version="1.0" encoding="utf-8"?>
<!-- Generator: Adobe Illustrator 24.0.2, SVG Export Plug-In . SVG Version: 6.00 Build 0)  -->
<svg version="1.1" id="Component_40_2" xmlns="http://www.w3.org/2000/svg" xmlns:xlink="http://www.w3.org/1999/xlink" x="0px"
	 y="0px" width="52px" height="23px" viewBox="0 0 52 23" style="enable-background:new 0 0 52 23;" xml:space="preserve">
<style type="text/css">
	.st0{fill:#505D6C;}
	.st1{fill:#FFFFFF;}
</style>
<g id="Rectangle_1448">
	<path class="st0" d="M11.5,0.5h29c6.1,0,11,4.9,11,11l0,0c0,6.1-4.9,11-11,11h-29c-6.1,0-11-4.9-11-11l0,0
		C0.5,5.4,5.4,0.5,11.5,0.5z"/>
</g>
<g id="Path_1837">
	<path class="st1" d="M27.7,16.8c-0.3,0-0.6-0.1-0.8-0.3c-0.5-0.5-0.5-1.2,0-1.7l3.2-3.2l-3.2-3.2c-0.5-0.5-0.5-1.2,0-1.7
		c0.5-0.5,1.2-0.5,1.7,0l4.1,4.1c0.5,0.5,0.5,1.2,0,1.7l-4.1,4.1C28.3,16.7,28,16.8,27.7,16.8z"/>
</g>
<g id="Line_1608">
	<path class="st1" d="M31.7,12.8H20.5c-0.7,0-1.2-0.5-1.2-1.2s0.5-1.2,1.2-1.2h11.2c0.7,0,1.2,0.5,1.2,1.2S32.4,12.8,31.7,12.8z"/>
</g>
</svg>
