<?xml version="1.0" encoding="utf-8"?>
<!-- Generator: Adobe Illustrator 24.0.2, SVG Export Plug-In . SVG Version: 6.00 Build 0)  -->
<svg version="1.1" id="Layer_1" xmlns="http://www.w3.org/2000/svg" xmlns:xlink="http://www.w3.org/1999/xlink" x="0px" y="0px"
	 width="47px" height="47px" viewBox="0 0 47 47" style="enable-background:new 0 0 47 47;" xml:space="preserve">
<style type="text/css">
	.st0{clip-path:url(#SVGID_2_);}
	.st1{clip-path:url(#SVGID_4_);}
	.st2{fill:#FFFFFF;}
</style>
<g id="Group_9536" transform="translate(-883.714 -4480.602)">
	<g id="Group_2560">
		<g>
			<defs>
				<rect id="SVGID_1_" x="883.7" y="4480.6" width="47" height="47"/>
			</defs>
			<clipPath id="SVGID_2_">
				<use xlink:href="#SVGID_1_"  style="overflow:visible;"/>
			</clipPath>
			<g id="Group_2559" class="st0">
				<g id="Group_2558">
					<g>
						<defs>
							<rect id="SVGID_3_" x="883.7" y="4480.6" width="47" height="47"/>
						</defs>
						<clipPath id="SVGID_4_">
							<use xlink:href="#SVGID_3_"  style="overflow:visible;"/>
						</clipPath>
						<g id="Group_2557" class="st1">
							<g id="Path_1221">
								<path class="st2" d="M920.6,4518.3h-25.2c-1.7,0-3-1.4-3-3v-14.8c0-0.4,0.3-0.8,0.8-0.8s0.8,0.3,0.8,0.8v14.8
									c0,0.9,0.7,1.5,1.5,1.5h25.2c0.9,0,1.5-0.7,1.5-1.5v-21.6h-21c-0.4,0-0.8-0.3-0.8-0.8s0.3-0.8,0.8-0.8h21.8
									c0.4,0,0.8,0.3,0.8,0.8v22.3C923.6,4517,922.3,4518.3,920.6,4518.3z"/>
							</g>
							<g id="Line_1339">
								<path class="st2" d="M922.9,4498h-21.6c-0.4,0-0.8-0.3-0.8-0.8s0.3-0.8,0.8-0.8h21.6c0.4,0,0.8,0.3,0.8,0.8
									S923.3,4498,922.9,4498z"/>
							</g>
							<g id="Line_1340">
								<path class="st2" d="M904,4495.4c-0.4,0-0.8-0.3-0.8-0.8v-4.1c0-0.4,0.3-0.8,0.8-0.8s0.8,0.3,0.8,0.8v4.1
									C904.7,4495.1,904.4,4495.4,904,4495.4z"/>
							</g>
							<g id="Line_1341">
								<path class="st2" d="M908.3,4495.4c-0.4,0-0.8-0.3-0.8-0.8v-4.1c0-0.4,0.3-0.8,0.8-0.8s0.8,0.3,0.8,0.8v4.1
									C909,4495.1,908.7,4495.4,908.3,4495.4z"/>
							</g>
							<g id="Line_1342">
								<path class="st2" d="M912.5,4495.4c-0.4,0-0.8-0.3-0.8-0.8v-4.1c0-0.4,0.3-0.8,0.8-0.8s0.8,0.3,0.8,0.8v4.1
									C913.2,4495.1,912.9,4495.4,912.5,4495.4z"/>
							</g>
							<g id="Line_1343">
								<path class="st2" d="M916.8,4495.4c-0.4,0-0.8-0.3-0.8-0.8v-4.1c0-0.4,0.3-0.8,0.8-0.8s0.8,0.3,0.8,0.8v4.1
									C917.6,4495.1,917.3,4495.4,916.8,4495.4z"/>
							</g>
							<g id="Path_1222">
								<path class="st2" d="M894.8,4498c-2.2,0-4.1-1.8-4.1-4.1s1.8-4.1,4.1-4.1c0,0,0,0,0,0c2.2,0,4,1.8,4,4c0,0,0,0,0,0
									C898.9,4496.2,897.1,4498,894.8,4498z M894.8,4491.4C894.8,4491.4,894.8,4491.4,894.8,4491.4c-1.4,0-2.6,1.1-2.6,2.6
									s1.1,2.6,2.6,2.6c1.4,0,2.6-1.1,2.6-2.6v0C897.4,4492.6,896.2,4491.4,894.8,4491.4z M898.1,4494L898.1,4494L898.1,4494z"/>
							</g>
							<g id="Line_1344">
								<path class="st2" d="M900.1,4508.8h-2.5c-0.4,0-0.8-0.3-0.8-0.8s0.3-0.8,0.8-0.8h2.5c0.4,0,0.8,0.3,0.8,0.8
									S900.5,4508.8,900.1,4508.8z"/>
							</g>
							<g id="Line_1345">
								<path class="st2" d="M900.1,4504.1h-2.5c-0.4,0-0.8-0.3-0.8-0.8s0.3-0.8,0.8-0.8h2.5c0.4,0,0.8,0.3,0.8,0.8
									S900.5,4504.1,900.1,4504.1z"/>
							</g>
							<g id="Line_1346">
								<path class="st2" d="M900.1,4513.4h-2.5c-0.4,0-0.8-0.3-0.8-0.8s0.3-0.8,0.8-0.8h2.5c0.4,0,0.8,0.3,0.8,0.8
									S900.5,4513.4,900.1,4513.4z"/>
							</g>
							<g id="Line_1347">
								<path class="st2" d="M918.1,4508.8h-2.5c-0.4,0-0.8-0.3-0.8-0.8s0.3-0.8,0.8-0.8h2.5c0.4,0,0.8,0.3,0.8,0.8
									S918.5,4508.8,918.1,4508.8z"/>
							</g>
							<g id="Line_1348">
								<path class="st2" d="M918.1,4504.1h-2.5c-0.4,0-0.8-0.3-0.8-0.8s0.3-0.8,0.8-0.8h2.5c0.4,0,0.8,0.3,0.8,0.8
									S918.5,4504.1,918.1,4504.1z"/>
							</g>
							<g id="Line_1349">
								<path class="st2" d="M918.1,4513.4h-2.5c-0.4,0-0.8-0.3-0.8-0.8s0.3-0.8,0.8-0.8h2.5c0.4,0,0.8,0.3,0.8,0.8
									S918.5,4513.4,918.1,4513.4z"/>
							</g>
							<g id="Path_1223">
								<path class="st2" d="M905,4512.3c-0.2,0-0.3,0-0.4-0.1c-0.2-0.2-0.3-0.5-0.3-0.7l0.5-2.8l-2-2c-0.2-0.2-0.3-0.5-0.2-0.8
									s0.3-0.5,0.6-0.5l2.8-0.4l1.3-2.5c0.1-0.3,0.4-0.4,0.7-0.4l0,0c0.3,0,0.5,0.2,0.7,0.4l1.3,2.5l2.8,0.4
									c0.3,0,0.5,0.2,0.6,0.5c0.1,0.3,0,0.6-0.2,0.8l-2,2l0.5,2.8c0,0.3-0.1,0.6-0.3,0.7c-0.2,0.2-0.5,0.2-0.8,0.1l-2.5-1.3
									l-2.5,1.3C905.2,4512.3,905.1,4512.3,905,4512.3z M907.8,4509.3c0.1,0,0.2,0,0.3,0.1l1.5,0.8l-0.3-1.7c0-0.2,0-0.5,0.2-0.7
									l1.2-1.2l-1.7-0.2c-0.2,0-0.5-0.2-0.6-0.4l-0.8-1.5l-0.8,1.5c-0.1,0.2-0.3,0.4-0.6,0.4l-1.7,0.2l1.2,1.2
									c0.2,0.2,0.3,0.4,0.2,0.7l-0.3,1.7l1.5-0.8C907.6,4509.3,907.7,4509.3,907.8,4509.3z"/>
							</g>
						</g>
					</g>
				</g>
			</g>
		</g>
	</g>
</g>
</svg>
