<?xml version="1.0" encoding="utf-8"?>
<!-- Generator: Adobe Illustrator 24.0.2, SVG Export Plug-In . SVG Version: 6.00 Build 0)  -->
<svg version="1.1" id="Layer_1" xmlns="http://www.w3.org/2000/svg" xmlns:xlink="http://www.w3.org/1999/xlink" x="0px" y="0px"
	 width="20px" height="20px" viewBox="0 0 20 20" style="enable-background:new 0 0 20 20;" xml:space="preserve">
<style type="text/css">
	.st0{fill:none;}
	.st1{fill:#00AF00;}
	.st2{fill:#FFFFFF;}
</style>
<rect id="Rectangle_3568" class="st0" width="20" height="20"/>
<path id="Rectangle_3506" class="st1" d="M10,1L10,1c5,0,9,4,9,9l0,0c0,5-4,9-9,9l0,0c-5,0-9-4-9-9l0,0C1,5,5,1,10,1z"/>
<path id="Path_8705" class="st2" d="M10,2.8L11.7,8l5.5,0l-4.5,3.2l1.7,5.2L10,13.2l-4.5,3.2l1.7-5.2L2.8,8l5.5,0L10,2.8z"/>
</svg>
