<svg xmlns="http://www.w3.org/2000/svg" width="27" height="27" viewBox="0 0 27 27">
  <g id="Componente_26_63" data-name="Componente 26 – 63" transform="translate(0.5 0.5)">
    <circle id="Elipse_776" data-name="Elipse 776" cx="13" cy="13" r="13" fill="#00af00" stroke="#00af00" stroke-width="1"/>
    <g id="Grupo_3637" data-name="Grupo 3637" transform="translate(4.975 7.412)">
      <g id="Grupo_3636" data-name="Grupo 3636">
        <line id="Línea_1600" data-name="Línea 1600" x1="6.081" y2="4.987" transform="translate(0.454 5.884)" fill="none" stroke="#fff" stroke-linecap="round" stroke-linejoin="round" stroke-width="1.4"/>
        <line id="Línea_1601" data-name="Línea 1601" x1="6.043" y1="4.956" transform="translate(9.558 5.884)" fill="none" stroke="#fff" stroke-linecap="round" stroke-linejoin="round" stroke-width="1.4"/>
        <path id="Trazado_1810" data-name="Trazado 1810" d="M59.719,19.16v8.659a1.269,1.269,0,0,0,1.268,1.269H74.5a1.269,1.269,0,0,0,1.269-1.269V19.16a1.248,1.248,0,0,0-1.247-1.248H60.966A1.247,1.247,0,0,0,59.719,19.16Z" transform="translate(-59.719 -17.912)" fill="none" stroke="#fff" stroke-linecap="round" stroke-linejoin="round" stroke-width="1.4"/>
        <g id="Grupo_3635" data-name="Grupo 3635" transform="translate(0.413 0.324)">
          <path id="Trazado_1811" data-name="Trazado 1811" d="M60.132,18.236,67.2,24.089a1.268,1.268,0,0,0,1.609,0l6.573-5.832" transform="translate(-60.132 -18.236)" fill="none" stroke="#fff" stroke-linecap="round" stroke-linejoin="round" stroke-width="1.4"/>
        </g>
      </g>
    </g>
  </g>
</svg>
