<?xml version="1.0" encoding="utf-8"?>
<!-- Generator: Adobe Illustrator 24.0.2, SVG Export Plug-In . SVG Version: 6.00 Build 0)  -->
<svg version="1.1" id="Capa_1" xmlns="http://www.w3.org/2000/svg" xmlns:xlink="http://www.w3.org/1999/xlink" x="0px" y="0px"
	 viewBox="0 0 47 47" style="enable-background:new 0 0 47 47;" xml:space="preserve">
<style type="text/css">
	.st0{fill:none;}
	.st1{fill:#19A500;}
	.st2{fill:#A1D005;}
	.st3{fill:#149352;}
	.st4{fill:none;stroke:#19A500;stroke-width:1.6;stroke-miterlimit:10;}
	.st5{fill:none;stroke:#95A6B1;stroke-width:1.6;stroke-linecap:round;stroke-linejoin:round;stroke-miterlimit:10;}
	.st6{fill:none;stroke:#95A6B1;stroke-width:1.65;stroke-linecap:round;stroke-linejoin:round;stroke-miterlimit:10;}
	.st7{fill:none;stroke:#95A6B1;stroke-width:4;stroke-linecap:round;stroke-linejoin:round;stroke-miterlimit:10;}
	.st8{fill:none;stroke:#EFEF00;stroke-width:1.2;stroke-miterlimit:10;}
	.st9{fill:none;stroke:#FFFFFF;stroke-width:1.1037;stroke-linecap:round;stroke-linejoin:round;stroke-miterlimit:10;}
	.st10{fill:none;stroke:#95A6B1;stroke-width:1.2;stroke-linecap:round;stroke-linejoin:round;stroke-miterlimit:10;}
	.st11{fill:none;stroke:#19A500;stroke-width:1.2;stroke-miterlimit:10;}
	.st12{fill:none;stroke:#EFEF00;stroke-width:1.6;stroke-miterlimit:10;}
	.st13{fill:none;stroke:#FFFFFF;stroke-width:1.6;stroke-linecap:round;stroke-linejoin:round;stroke-miterlimit:10;}
	.st14{fill:none;stroke:#95A6B1;stroke-width:1.2589;stroke-linecap:round;stroke-linejoin:round;stroke-miterlimit:10;}
	.st15{fill:none;stroke:#95A6B1;stroke-width:1.0718;stroke-linecap:round;stroke-linejoin:round;stroke-miterlimit:10;}
	.st16{fill:none;stroke:#95A6B1;stroke-width:1.2212;stroke-linecap:round;stroke-linejoin:round;stroke-miterlimit:10;}
	.st17{fill:none;stroke:#95A6B1;stroke-width:1.2408;stroke-linecap:round;stroke-linejoin:round;stroke-miterlimit:10;}
	.st18{fill:none;stroke:#95A6B1;stroke-width:1.2;stroke-linecap:round;stroke-linejoin:round;}
	.st19{fill:none;stroke:#95A6B1;stroke-width:1.2;stroke-linecap:round;stroke-linejoin:round;stroke-dasharray:1.6013,3.2026;}
	.st20{fill:none;stroke:#95A6B1;stroke-width:1.2;stroke-linecap:round;stroke-linejoin:round;stroke-dasharray:1.7413,3.4827;}
	.st21{fill:none;stroke:#95A6B1;stroke-width:1.2;stroke-linecap:round;stroke-linejoin:round;stroke-dasharray:2.056,4.112;}
	.st22{fill:none;stroke:#95A6B1;stroke-width:1.2275;stroke-linecap:round;stroke-linejoin:round;stroke-miterlimit:10;}
	.st23{fill:none;stroke:#95A6B1;stroke-width:1.2565;stroke-linecap:round;stroke-linejoin:round;stroke-miterlimit:10;}
	.st24{fill:none;stroke:#95A6B1;stroke-width:1.2892;stroke-linecap:round;stroke-linejoin:round;stroke-miterlimit:10;}
	.st25{fill:none;stroke:#95A6B1;stroke-width:1.3462;stroke-linecap:round;stroke-linejoin:round;stroke-miterlimit:10;}
	.st26{fill:none;stroke:#95A6B1;stroke-width:2;stroke-linecap:round;stroke-linejoin:round;stroke-miterlimit:10;}
	.st27{fill:none;stroke:#19A500;stroke-width:1.6;stroke-linecap:round;stroke-linejoin:round;stroke-miterlimit:10;}
	.st28{fill:none;stroke:#FBE957;stroke-width:1.6;stroke-miterlimit:10;}
	.st29{fill:none;stroke:#FBE957;stroke-width:3.1353;stroke-linecap:round;stroke-linejoin:round;stroke-miterlimit:10;}
	.st30{fill:none;stroke:#EED24A;stroke-width:3.1353;stroke-linecap:round;stroke-linejoin:round;stroke-miterlimit:10;}
	.st31{fill:#FFFFFF;stroke:#639E41;stroke-width:1.2;stroke-linecap:round;stroke-linejoin:round;}
	.st32{fill:#FFFFFF;}
	.st33{fill:none;stroke:#1D1D1B;stroke-width:0.5;stroke-linecap:round;stroke-linejoin:round;stroke-miterlimit:10;}
</style>
<g>
	<rect class="st0" width="47" height="47"/>
</g>
<g id="Grupo_12893" transform="translate(-4072 -3616)">
	<g id="Grupo_12863" transform="translate(3.647 5.595)">
		<g id="Trazado_11535">
			<path class="st32" d="M4104.09,3650.66h-22.55c-0.41,0-0.75-0.34-0.75-0.75v-24.11c0-0.41,0.34-0.75,0.75-0.75
				s0.75,0.34,0.75,0.75v23.36h21.05v-28.51h-15.84c-0.41,0-0.75-0.34-0.75-0.75s0.34-0.75,0.75-0.75h16.59
				c0.41,0,0.75,0.34,0.75,0.75v30.01C4104.84,3650.32,4104.5,3650.66,4104.09,3650.66z"/>
		</g>
		<g id="Rectángulo_4544">
			<path class="st32" d="M4098.2,3632.09h-10.88c-0.41,0-0.75-0.34-0.75-0.75v-4.49c0-0.41,0.34-0.75,0.75-0.75h10.88
				c0.41,0,0.75,0.34,0.75,0.75v4.49C4098.95,3631.75,4098.61,3632.09,4098.2,3632.09z M4088.07,3630.59h9.38v-2.99h-9.38V3630.59z"
				/>
		</g>
		<g id="Línea_2180">
			<path class="st32" d="M4099.97,3637.52h-14.31c-0.41,0-0.75-0.34-0.75-0.75s0.34-0.75,0.75-0.75h14.31
				c0.41,0,0.75,0.34,0.75,0.75S4100.38,3637.52,4099.97,3637.52z"/>
		</g>
		<g id="Línea_2181">
			<path class="st32" d="M4099.97,3641.54h-14.31c-0.41,0-0.75-0.34-0.75-0.75s0.34-0.75,0.75-0.75h14.31
				c0.41,0,0.75,0.34,0.75,0.75S4100.38,3641.54,4099.97,3641.54z"/>
		</g>
		<g id="Línea_2182">
			<path class="st32" d="M4094.3,3645.56h-8.64c-0.41,0-0.75-0.34-0.75-0.75s0.34-0.75,0.75-0.75h8.64c0.41,0,0.75,0.34,0.75,0.75
				S4094.71,3645.56,4094.3,3645.56z"/>
		</g>
		<g id="Elipse_2132">
			<path class="st32" d="M4082.02,3623.46c-1.74,0-3.15-1.41-3.15-3.15s1.41-3.15,3.15-3.15s3.15,1.41,3.15,3.15
				S4083.76,3623.46,4082.02,3623.46z M4082.02,3618.66c-0.91,0-1.65,0.74-1.65,1.65s0.74,1.65,1.65,1.65s1.65-0.74,1.65-1.65
				S4082.93,3618.66,4082.02,3618.66z"/>
		</g>
	</g>
</g>
</svg>
