<?xml version="1.0" encoding="utf-8"?>
<!-- Generator: Adobe Illustrator 24.0.2, SVG Export Plug-In . SVG Version: 6.00 Build 0)  -->
<svg version="1.1" xmlns="http://www.w3.org/2000/svg" xmlns:xlink="http://www.w3.org/1999/xlink" x="0px" y="0px"
	 viewBox="0 0 47 47" style="enable-background:new 0 0 47 47;" xml:space="preserve">
<style type="text/css">
	.st0{display:none;}
	.st1{display:inline;fill:#95A6B1;}
	.st2{fill:none;}
	.st3{fill:none;stroke:#19A500;stroke-width:2;stroke-linecap:round;stroke-linejoin:round;stroke-miterlimit:10;}
	.st4{fill:none;stroke:#95A6B1;stroke-width:2;stroke-linecap:round;stroke-linejoin:round;stroke-miterlimit:10;}
	.st5{fill:none;stroke:#FFFFFF;stroke-width:1.5;stroke-linecap:round;stroke-linejoin:round;}
	.st6{fill:none;stroke:#FFFFFF;stroke-width:4;stroke-linecap:round;stroke-linejoin:round;}
	.st7{fill:none;stroke:#4DA12E;stroke-width:3;stroke-linecap:round;stroke-linejoin:round;stroke-miterlimit:10;}
	.st8{fill:none;stroke:#96D200;stroke-width:3;stroke-linecap:round;stroke-linejoin:round;stroke-miterlimit:10;}
</style>
<g id="Capa_2" class="st0">
	<rect x="-4.43" y="-4.19" class="st1" width="55.38" height="55.38"/>
</g>
<g id="Capa_1">
	<rect class="st2" width="47" height="47"/>
	<path class="st5" d="M26.78,26.03c-0.47,0.25-0.99,0.38-1.53,0.38h-7.71c-1.78,0-3.23-1.45-3.23-3.23c0-1.78,1.45-3.23,3.23-3.23
		c0.22,0,0.43,0.02,0.64,0.07c0.27-1.94,2.06-3.3,4.01-3.03c1.55,0.22,2.77,1.42,3.01,2.97c0.02,0,0.04-0.01,0.05-0.01
		c0.54,0,1.06,0.14,1.53,0.39"/>
	<circle id="Elipse_2127_2_" class="st5" cx="9.62" cy="15.02" r="3.06"/>
	<path id="Elipse_2127_1_" class="st5" d="M17.96,30.24c0,0,1.77,2.49,1.77,3.47s-0.79,1.77-1.77,1.77s-1.77-0.79-1.77-1.77
		S17.96,30.24,17.96,30.24z"/>
	<path class="st5" d="M9.79,9.83V6.15h27.42v28.87c0,3.22-2.61,5.83-5.83,5.83H9.79V20.39"/>
	<g>
		<path class="st5" d="M28.59,36.4c2.62,0.04,4.76-2.08,4.76-4.69c0-1.92-1.16-3.56-2.8-4.29V12.41c0-1.04-0.84-1.88-1.88-1.88h0"/>
		<line class="st5" x1="28.66" y1="31.76" x2="28.66" y2="31.76"/>
		<path class="st5" d="M28.66,10.53L28.66,10.53c-1.04,0-1.88,0.84-1.88,1.88v15.01c-1.56,0.68-2.67,2.18-2.79,3.96
			c-0.18,2.59,2.01,4.98,4.61,5.01"/>
		<line class="st6" x1="28.66" y1="31.76" x2="28.66" y2="31.76"/>
	</g>
</g>
</svg>
