<?xml version="1.0" encoding="utf-8"?>
<!-- Generator: Adobe Illustrator 24.0.2, SVG Export Plug-In . SVG Version: 6.00 Build 0)  -->
<svg version="1.1" id="Capa_1" xmlns="http://www.w3.org/2000/svg" xmlns:xlink="http://www.w3.org/1999/xlink" x="0px" y="0px"
	 viewBox="0 0 84 84" style="enable-background:new 0 0 84 84;" xml:space="preserve">
<style type="text/css">
	.st0{display:none;}
	.st1{fill:none;stroke:#19A500;stroke-width:2;stroke-linecap:round;stroke-linejoin:round;stroke-miterlimit:10;}
	.st2{fill:none;stroke:#95A6B1;stroke-width:2;stroke-linecap:round;stroke-linejoin:round;stroke-miterlimit:10;}
	.st3{fill:none;}
	.st4{clip-path:url(#SVGID_2_);}
	.st5{fill:#4DA12E;}
	.st6{fill:#96D200;}
</style>
<g id="Capa_2_1_" class="st0">
</g>
<g id="Capa_1_1_">
	<g>
		<path class="st1" d="M34.22,19.27c0.48,1.06,0.51,2.2,0.18,3.22c-0.37,1.13-1.19,2.1-2.36,2.63c-2.22,1.01-4.84,0.04-5.85-2.18
			s-0.04-4.84,2.18-5.85S33.21,17.05,34.22,19.27z"/>
		<g>
			<path class="st2" d="M53.61,32.49c2.11-0.27,4.15-1.23,5.78-2.86c3.96-3.96,3.96-10.36,0-14.32s-10.36-3.96-14.32,0
				c-1.64,1.64-2.6,3.68-2.87,5.8"/>
			<g id="Grupo_13000-2">
				<line id="Línea_2225" class="st2" x1="51.75" y1="3.85" x2="51.75" y2="9.1"/>
			</g>
			<g id="Grupo_13001">
				<line id="Línea_2227" class="st2" x1="71.03" y1="22.31" x2="65.78" y2="22.31"/>
			</g>
			<g id="Grupo_13002">
				<line id="Línea_2229" class="st2" x1="65.04" y1="9.1" x2="61.33" y2="12.81"/>
			</g>
			<line id="Línea_2230" class="st2" x1="65.04" y1="35.6" x2="61.33" y2="31.89"/>
			<line id="Línea_2231" class="st2" x1="42.77" y1="13.33" x2="39.06" y2="9.62"/>
			<g>
				<path class="st2" d="M25.39,27.09c-0.42,1.17-0.67,2.43-0.69,3.75c-0.71-0.26-1.48-0.41-2.29-0.41c-3.65,0-6.6,2.96-6.6,6.6
					c0,3.65,2.96,6.6,6.6,6.6h26.42c3.65,0,6.6-2.96,6.6-6.6c0-3.65-2.96-6.6-6.6-6.6c-0.34,0-0.68,0.03-1.01,0.08
					c-0.25-5.49-4.31-9.98-9.6-10.88"/>
				<line class="st2" x1="27.19" y1="50.24" x2="23.6" y2="57.49"/>
				<line class="st2" x1="38.22" y1="47.39" x2="34.63" y2="54.64"/>
				<line class="st2" x1="45.57" y1="53.86" x2="41.98" y2="61.11"/>
			</g>
		</g>
	</g>
	<g>
		<rect class="st3" width="84" height="84"/>
	</g>
	<g>
		<defs>
			<rect id="SVGID_1_" y="63.07" width="84" height="20.93"/>
		</defs>
		<clipPath id="SVGID_2_">
			<use xlink:href="#SVGID_1_"  style="overflow:visible;"/>
		</clipPath>
		<g class="st4">
			<g>
				<g>
					<rect y="63.07" class="st3" width="84" height="20.93"/>
				</g>
				<g>
					<g>
						<path class="st5" d="M58.1,79.4h-8.96c-0.83,0-1.5-0.67-1.5-1.5s0.67-1.5,1.5-1.5h8.96c0.83,0,1.5,0.67,1.5,1.5
							S58.93,79.4,58.1,79.4z"/>
					</g>
					<g>
						<path class="st5" d="M67.76,79.4h-0.72c-0.83,0-1.5-0.67-1.5-1.5s0.67-1.5,1.5-1.5h0.72c0.83,0,1.5,0.67,1.5,1.5
							S68.59,79.4,67.76,79.4z"/>
					</g>
					<g>
						<path class="st5" d="M25.11,79.4h-8.87c-0.83,0-1.5-0.67-1.5-1.5s0.67-1.5,1.5-1.5h8.87c0.83,0,1.5,0.67,1.5,1.5
							S25.94,79.4,25.11,79.4z"/>
					</g>
					<g>
						<path class="st6" d="M40.18,79.4H24.54c-0.83,0-1.5-0.67-1.5-1.5s0.67-1.5,1.5-1.5h15.64c0.83,0,1.5,0.67,1.5,1.5
							S41.01,79.4,40.18,79.4z"/>
					</g>
					<g>
						<path class="st6" d="M45.72,71.77H16.24c-0.83,0-1.5-0.67-1.5-1.5s0.67-1.5,1.5-1.5h29.48c0.83,0,1.5,0.67,1.5,1.5
							S46.55,71.77,45.72,71.77z"/>
					</g>
					<g>
						<path class="st5" d="M67.76,71.77H44.81c-0.83,0-1.5-0.67-1.5-1.5s0.67-1.5,1.5-1.5h22.95c0.83,0,1.5,0.67,1.5,1.5
							S68.59,71.77,67.76,71.77z"/>
					</g>
					<g>
						<path class="st5" d="M16.78,71.77h-0.54c-0.83,0-1.5-0.67-1.5-1.5s0.67-1.5,1.5-1.5h0.54c0.83,0,1.5,0.67,1.5,1.5
							S17.61,71.77,16.78,71.77z"/>
					</g>
				</g>
			</g>
		</g>
	</g>
</g>
</svg>
