<?xml version="1.0" encoding="utf-8"?>
<!-- Generator: Adobe Illustrator 24.0.2, SVG Export Plug-In . SVG Version: 6.00 Build 0)  -->
<svg version="1.1" xmlns="http://www.w3.org/2000/svg" xmlns:xlink="http://www.w3.org/1999/xlink" x="0px" y="0px"
	 viewBox="0 0 60 60" style="enable-background:new 0 0 60 60;" xml:space="preserve">
<style type="text/css">
	.st0{fill:#19A500;}
	.st1{fill:none;}
	.st2{fill:#FFFFFF;}
	.st3{fill:#EFEF00;}
</style>
<g id="Capa_2">
	<g>
		<g>
			<g id="Rectángulo_3799_52_">
				<path class="st0" d="M30,0L30,0c16.57,0,30,13.43,30,30v0c0,16.57-13.43,30-30,30h0C13.43,60,0,46.57,0,30v0
					C0,13.43,13.43,0,30,0z"/>
			</g>
		</g>
	</g>
</g>
<g id="Capa_1">
	<g>
		<g>
			<g id="Rectángulo_3799_2_">
				<rect class="st1" width="60" height="60"/>
			</g>
		</g>
	</g>
	<g>
		<g>
			<path class="st2" d="M7.92,46.15c-0.3,0-0.54-0.24-0.55-0.54c0-0.3,0.24-0.55,0.54-0.56c0.97-0.01,3.45-0.02,6.44-0.02
				c0.76,0,1.49-0.06,2.17-0.17c1.9-0.33,3.62-1.18,4.85-2.41c1.39-1.39,2.32-3.08,2.48-4.52c0.05-0.47,0.03-0.98,0.01-1.49
				c-0.01-0.27-0.02-0.54-0.02-0.8c0-3.4,3.05-4.57,4.66-4.71l20.48,0v-4.6H42.4c-0.15,0-0.29-0.06-0.39-0.16
				c-0.1-0.1-0.16-0.24-0.16-0.39l0.02-8.99c0-0.3,0.25-0.55,0.55-0.55c0,0,0,0,0,0c0.3,0,0.55,0.25,0.55,0.55l-0.02,8.44h6.59
				c0.3,0,0.55,0.25,0.55,0.55v5.7c0,0.3-0.25,0.55-0.55,0.55H28.56c-0.1,0.01-3.61,0.37-3.61,3.61c0,0.25,0.01,0.5,0.02,0.76
				c0.02,0.54,0.04,1.1-0.02,1.65c-0.27,2.42-2.05,4.42-2.8,5.18c-1.39,1.39-3.32,2.35-5.44,2.72c-0.74,0.13-1.53,0.19-2.35,0.19
				C11.37,46.12,8.9,46.13,7.92,46.15C7.93,46.15,7.92,46.15,7.92,46.15z"/>
		</g>
		<g>
			<path class="st2" d="M7.92,46.15L7.92,46.15c-0.3,0-0.55-0.25-0.55-0.55l0.01-3.44c0-0.11-0.01-0.26-0.03-0.43
				c-0.07-0.69-0.1-1.21,0.1-1.59c0.3-0.57,1.13-0.51,1.79-0.47c0.12,0.01,0.23,0.02,0.31,0.02l4.6,0c0.48,0.01,0.88,0.01,1.29-0.11
				c0.29-0.08,0.57-0.18,0.84-0.3c0.8-0.35,1.43-0.8,1.85-1.35c0.42-0.55,0.65-1.22,0.65-1.95c0-0.29-0.01-0.58-0.02-0.88
				c-0.03-0.85-0.06-1.73,0.12-2.56c0.94-4.25,4.92-7.33,9.46-7.33h7.48v-8.44c0-0.3,0.25-0.55,0.55-0.55s0.55,0.25,0.55,0.55v8.99
				c0,0.3-0.25,0.55-0.55,0.55h-8.03c-4.03,0-7.55,2.72-8.38,6.47c-0.15,0.69-0.12,1.5-0.1,2.28c0.01,0.31,0.02,0.62,0.02,0.92
				c0,0.97-0.3,1.88-0.88,2.62c-0.54,0.69-1.31,1.26-2.28,1.68c-0.32,0.14-0.65,0.25-0.98,0.35c-0.57,0.16-1.1,0.16-1.61,0.15
				l-4.58,0c-0.1,0-0.24-0.01-0.39-0.02c-0.18-0.01-0.55-0.04-0.76-0.01c-0.02,0.22,0.02,0.64,0.04,0.87
				c0.02,0.21,0.04,0.4,0.04,0.53L8.47,45.6C8.47,45.9,8.22,46.15,7.92,46.15z"/>
		</g>
		<g>
			<g>
				<g>
					<path class="st2" d="M39.46,15.67c-1.91,0-3.47-1.56-3.47-3.47s1.56-3.47,3.47-3.47s3.47,1.56,3.47,3.47
						S41.37,15.67,39.46,15.67z M39.46,9.67c-1.4,0-2.53,1.14-2.53,2.53s1.14,2.53,2.53,2.53s2.53-1.14,2.53-2.53
						S40.85,9.67,39.46,9.67z"/>
				</g>
				<g>
					<path class="st2" d="M39.46,12.67c-0.12,0-0.24-0.05-0.33-0.14c-0.09-0.09-0.14-0.21-0.14-0.33s0.05-0.24,0.14-0.33l2.02-2.02
						c0.18-0.18,0.48-0.18,0.66,0c0.09,0.09,0.14,0.21,0.14,0.33s-0.05,0.24-0.14,0.33l-2.02,2.02
						C39.7,12.63,39.58,12.67,39.46,12.67z"/>
				</g>
				<g>
					<path class="st2" d="M37.49,14.81c-0.11,0-0.23-0.04-0.32-0.12c-0.19-0.17-0.2-0.47-0.03-0.66l1.67-1.82l-1.72-1.83
						c-0.18-0.19-0.17-0.48,0.02-0.66c0.19-0.18,0.48-0.17,0.66,0.02l2.02,2.15c0.17,0.18,0.17,0.46,0,0.64l-1.96,2.14
						C37.75,14.76,37.62,14.81,37.49,14.81z"/>
				</g>
				<g>
					<path class="st2" d="M41.35,14.85c-0.13,0-0.26-0.05-0.35-0.16l-1.9-2.18c-0.17-0.2-0.15-0.49,0.05-0.66
						c0.2-0.17,0.49-0.15,0.66,0.05l1.9,2.18c0.17,0.2,0.15,0.49-0.05,0.66C41.57,14.82,41.46,14.85,41.35,14.85z"/>
				</g>
			</g>
			<g>
				<path class="st2" d="M39.39,18.04c-3.21,0-5.82-2.61-5.82-5.82c0-3.21,2.61-5.82,5.82-5.82s5.82,2.61,5.82,5.82
					C45.21,15.43,42.6,18.04,39.39,18.04z M39.39,7.34c-2.69,0-4.88,2.19-4.88,4.88c0,2.69,2.19,4.88,4.88,4.88s4.88-2.19,4.88-4.88
					C44.28,9.53,42.09,7.34,39.39,7.34z"/>
			</g>
		</g>
		<g>
			<path class="st2" d="M52.14,33.76h-2.53c-0.26,0-0.47-0.21-0.47-0.47v-1.83c0-0.26,0.21-0.47,0.47-0.47s0.47,0.21,0.47,0.47v1.36
				h1.6v-8.48h-1.61v1.43c0,0.26-0.21,0.47-0.47,0.47s-0.47-0.21-0.47-0.47v-1.89c0-0.26,0.21-0.47,0.47-0.47h2.55
				c0.26,0,0.47,0.21,0.47,0.47v9.42C52.61,33.55,52.4,33.76,52.14,33.76z"/>
		</g>
		<g>
			<path class="st2" d="M28.84,33.88c-0.26,0-0.47-0.21-0.47-0.47v-9.76c0-0.26,0.21-0.47,0.47-0.47s0.47,0.21,0.47,0.47v9.76
				C29.3,33.67,29.09,33.88,28.84,33.88z"/>
		</g>
		<g>
			<path class="st2" d="M13.09,48.24c-0.26,0-0.47-0.21-0.47-0.47v-9.76c0-0.26,0.21-0.47,0.47-0.47s0.47,0.21,0.47,0.47v9.76
				C13.56,48.03,13.35,48.24,13.09,48.24z"/>
		</g>
		<g>
			<path class="st2" d="M36.04,20.14H19.18c-0.29,0-0.52-0.23-0.52-0.52s0.23-0.52,0.52-0.52h16.86c0.29,0,0.52,0.23,0.52,0.52
				S36.33,20.14,36.04,20.14z"/>
		</g>
		<g>
			<path class="st2" d="M52.56,20.14H42.53c-0.29,0-0.52-0.23-0.52-0.52s0.23-0.52,0.52-0.52h10.02c0.29,0,0.52,0.23,0.52,0.52
				S52.85,20.14,52.56,20.14z"/>
		</g>
		<g>
			<path class="st2" d="M47.78,37.1c-0.14,0-0.29-0.06-0.39-0.17c-0.1-0.1-0.16-0.24-0.16-0.38c0-0.08,0.01-0.15,0.04-0.22
				c0.03-0.06,0.07-0.12,0.12-0.17c0.16-0.16,0.4-0.21,0.6-0.12c0.07,0.03,0.13,0.07,0.18,0.12c0.05,0.05,0.09,0.11,0.12,0.17
				c0.03,0.07,0.04,0.14,0.04,0.22c0,0.14-0.06,0.28-0.16,0.38c-0.05,0.05-0.11,0.09-0.18,0.12S47.85,37.1,47.78,37.1z"/>
		</g>
		<g>
			<path class="st2" d="M42.54,37.1c-0.14,0-0.28-0.06-0.38-0.17c-0.11-0.1-0.17-0.24-0.17-0.38c0-0.08,0.02-0.15,0.05-0.22
				c0.02-0.06,0.06-0.12,0.12-0.17c0.05-0.05,0.11-0.09,0.17-0.12c0.14-0.06,0.29-0.06,0.42,0c0.07,0.03,0.13,0.07,0.18,0.12
				c0.05,0.05,0.09,0.11,0.12,0.17c0.03,0.07,0.04,0.14,0.04,0.22c0,0.14-0.06,0.28-0.16,0.38c-0.05,0.05-0.11,0.1-0.18,0.12
				C42.69,37.08,42.62,37.1,42.54,37.1z"/>
		</g>
		<g>
			<path class="st2" d="M37.31,37.1c-0.15,0-0.29-0.06-0.39-0.17c-0.05-0.05-0.09-0.11-0.12-0.17c-0.03-0.07-0.04-0.14-0.04-0.21
				c0-0.08,0.01-0.15,0.04-0.22c0.03-0.06,0.07-0.12,0.12-0.17c0.05-0.05,0.11-0.09,0.18-0.12c0.13-0.06,0.28-0.06,0.42,0
				c0.06,0.03,0.12,0.07,0.18,0.12c0.05,0.05,0.09,0.11,0.11,0.17c0.03,0.07,0.05,0.14,0.05,0.22c0,0.07-0.02,0.14-0.05,0.21
				c-0.02,0.06-0.06,0.12-0.11,0.17C37.59,37.04,37.45,37.1,37.31,37.1z"/>
		</g>
		<g>
			<path class="st2" d="M32.07,37.1c-0.15,0-0.29-0.06-0.39-0.17c-0.1-0.1-0.16-0.24-0.16-0.38c0-0.08,0.01-0.15,0.04-0.21
				c0.03-0.07,0.07-0.13,0.12-0.18c0.15-0.16,0.4-0.21,0.6-0.12c0.07,0.03,0.13,0.07,0.18,0.12c0.05,0.05,0.09,0.11,0.12,0.18
				c0.02,0.06,0.04,0.13,0.04,0.21c0,0.14-0.06,0.28-0.16,0.38c-0.05,0.06-0.11,0.1-0.18,0.12C32.21,37.08,32.14,37.1,32.07,37.1z"
				/>
		</g>
		<g>
			<path class="st2" d="M45.16,39.32c-0.14,0-0.29-0.06-0.39-0.16c-0.1-0.1-0.16-0.24-0.16-0.39c0-0.07,0.02-0.14,0.04-0.21
				c0.03-0.06,0.07-0.12,0.12-0.17c0.21-0.21,0.57-0.21,0.78,0c0.05,0.05,0.09,0.11,0.12,0.17c0.03,0.07,0.04,0.14,0.04,0.21
				c0,0.15-0.06,0.29-0.16,0.39c-0.05,0.05-0.11,0.09-0.18,0.12C45.31,39.31,45.23,39.32,45.16,39.32z"/>
		</g>
		<g>
			<path class="st2" d="M39.93,39.32c-0.15,0-0.29-0.05-0.39-0.16c-0.11-0.1-0.17-0.24-0.17-0.39c0-0.14,0.06-0.28,0.17-0.38
				c0.05-0.06,0.11-0.1,0.17-0.12c0.21-0.09,0.45-0.04,0.6,0.12c0.11,0.1,0.16,0.24,0.16,0.38c0,0.15-0.05,0.29-0.16,0.39
				c-0.05,0.05-0.11,0.09-0.18,0.12C40.07,39.31,40,39.32,39.93,39.32z"/>
		</g>
		<g>
			<path class="st2" d="M34.69,39.32c-0.15,0-0.29-0.06-0.39-0.16c-0.05-0.05-0.09-0.11-0.12-0.18c-0.03-0.06-0.04-0.13-0.04-0.21
				c0-0.07,0.01-0.14,0.04-0.21c0.03-0.06,0.07-0.12,0.12-0.17c0.05-0.05,0.11-0.1,0.18-0.12c0.2-0.09,0.44-0.04,0.6,0.12
				c0.05,0.05,0.09,0.11,0.12,0.17c0.02,0.07,0.04,0.14,0.04,0.21c0,0.08-0.02,0.15-0.04,0.21c-0.03,0.07-0.07,0.13-0.12,0.18
				C34.97,39.26,34.83,39.32,34.69,39.32z"/>
		</g>
		<g>
			<path class="st2" d="M47.78,41.75c-0.14,0-0.29-0.06-0.39-0.16c-0.1-0.1-0.16-0.24-0.16-0.39c0-0.07,0.01-0.14,0.04-0.21
				c0.03-0.07,0.07-0.13,0.12-0.18c0.16-0.15,0.4-0.2,0.6-0.12c0.07,0.03,0.13,0.07,0.18,0.12c0.05,0.05,0.09,0.11,0.12,0.18
				c0.03,0.07,0.04,0.14,0.04,0.21c0,0.15-0.06,0.29-0.16,0.39c-0.05,0.05-0.11,0.09-0.18,0.12C47.92,41.74,47.85,41.75,47.78,41.75
				z"/>
		</g>
		<g>
			<path class="st2" d="M42.54,41.75c-0.14,0-0.28-0.06-0.38-0.16c-0.06-0.05-0.1-0.11-0.12-0.18c-0.03-0.07-0.05-0.14-0.05-0.21
				c0-0.14,0.06-0.28,0.17-0.39c0.05-0.05,0.11-0.09,0.17-0.12c0.14-0.05,0.29-0.05,0.42,0c0.07,0.03,0.13,0.07,0.18,0.12
				c0.1,0.11,0.16,0.25,0.16,0.39c0,0.07-0.01,0.14-0.04,0.21c-0.03,0.07-0.07,0.13-0.12,0.18c-0.05,0.05-0.11,0.09-0.18,0.12
				C42.69,41.74,42.62,41.75,42.54,41.75z"/>
		</g>
		<g>
			<path class="st2" d="M37.31,41.75c-0.15,0-0.29-0.06-0.39-0.16c-0.1-0.1-0.16-0.24-0.16-0.39c0-0.07,0.01-0.14,0.04-0.21
				c0.03-0.07,0.07-0.13,0.12-0.18c0.05-0.05,0.11-0.09,0.18-0.12c0.13-0.05,0.28-0.05,0.42,0c0.06,0.03,0.12,0.07,0.18,0.12
				c0.05,0.05,0.09,0.11,0.11,0.18c0.03,0.07,0.05,0.14,0.05,0.21c0,0.15-0.06,0.29-0.16,0.39C37.59,41.69,37.45,41.75,37.31,41.75z
				"/>
		</g>
		<g>
			<path class="st2" d="M32.07,41.75c-0.15,0-0.29-0.06-0.39-0.16c-0.1-0.1-0.16-0.24-0.16-0.39c0-0.07,0.01-0.14,0.04-0.21
				c0.03-0.07,0.07-0.13,0.12-0.18c0.16-0.15,0.4-0.2,0.6-0.12c0.07,0.03,0.13,0.07,0.18,0.12c0.05,0.05,0.09,0.11,0.12,0.18
				c0.02,0.07,0.04,0.14,0.04,0.21c0,0.15-0.06,0.29-0.16,0.39c-0.05,0.05-0.11,0.09-0.18,0.12C32.21,41.74,32.14,41.75,32.07,41.75
				z"/>
		</g>
		<g>
			<path class="st2" d="M47.78,41.78c-0.14,0-0.29-0.06-0.39-0.16c-0.1-0.1-0.16-0.25-0.16-0.39c0-0.07,0.01-0.14,0.04-0.21
				c0.03-0.07,0.07-0.13,0.12-0.18s0.11-0.09,0.18-0.12c0.14-0.05,0.29-0.05,0.42,0c0.07,0.03,0.13,0.07,0.18,0.12
				c0.05,0.05,0.09,0.11,0.12,0.18c0.03,0.07,0.04,0.14,0.04,0.21c0,0.14-0.06,0.29-0.16,0.39c-0.05,0.05-0.11,0.09-0.18,0.12
				C47.92,41.77,47.85,41.78,47.78,41.78z"/>
		</g>
		<g>
			<path class="st2" d="M42.54,41.78c-0.07,0-0.14-0.02-0.21-0.04c-0.06-0.03-0.12-0.07-0.17-0.12c-0.11-0.1-0.17-0.25-0.17-0.39
				c0-0.15,0.06-0.29,0.17-0.39c0.05-0.05,0.11-0.09,0.17-0.12c0.14-0.05,0.29-0.05,0.42,0c0.07,0.03,0.13,0.07,0.18,0.12
				c0.1,0.1,0.16,0.24,0.16,0.39c0,0.14-0.06,0.29-0.16,0.39c-0.05,0.05-0.11,0.09-0.18,0.12C42.69,41.76,42.62,41.78,42.54,41.78z"
				/>
		</g>
		<g>
			<path class="st2" d="M37.31,41.78c-0.15,0-0.29-0.06-0.39-0.16c-0.05-0.05-0.09-0.11-0.12-0.18c-0.03-0.07-0.04-0.14-0.04-0.21
				c0-0.07,0.01-0.14,0.04-0.21c0.03-0.07,0.07-0.13,0.12-0.18c0.05-0.05,0.11-0.09,0.18-0.12c0.13-0.05,0.28-0.05,0.42,0
				c0.06,0.03,0.12,0.07,0.18,0.12c0.05,0.05,0.09,0.11,0.11,0.18c0.03,0.07,0.05,0.14,0.05,0.21c0,0.07-0.02,0.14-0.05,0.21
				c-0.02,0.07-0.06,0.13-0.11,0.18C37.59,41.72,37.45,41.78,37.31,41.78z"/>
		</g>
		<g>
			<path class="st2" d="M32.07,41.78c-0.15,0-0.29-0.06-0.39-0.16c-0.1-0.11-0.16-0.25-0.16-0.39c0-0.15,0.06-0.29,0.16-0.39
				c0.16-0.15,0.4-0.2,0.6-0.12c0.07,0.03,0.13,0.07,0.18,0.12c0.1,0.1,0.16,0.24,0.16,0.39c0,0.14-0.06,0.28-0.16,0.39
				c-0.05,0.05-0.11,0.09-0.18,0.12C32.21,41.76,32.14,41.78,32.07,41.78z"/>
		</g>
		<g>
			<path class="st2" d="M45.16,44.01c-0.14,0-0.28-0.06-0.39-0.16c-0.1-0.11-0.16-0.25-0.16-0.39c0-0.15,0.06-0.29,0.16-0.39
				c0.05-0.05,0.11-0.09,0.18-0.12c0.2-0.09,0.45-0.04,0.6,0.12c0.1,0.1,0.16,0.24,0.16,0.39c0,0.14-0.06,0.28-0.16,0.39
				c-0.05,0.05-0.11,0.09-0.18,0.11C45.31,43.99,45.23,44.01,45.16,44.01z"/>
		</g>
		<g>
			<path class="st2" d="M39.93,44.01c-0.15,0-0.29-0.06-0.39-0.16c-0.11-0.11-0.17-0.25-0.17-0.39c0-0.07,0.02-0.14,0.05-0.21
				c0.02-0.07,0.06-0.13,0.12-0.18c0.05-0.05,0.11-0.09,0.17-0.12c0.2-0.09,0.45-0.04,0.6,0.12c0.06,0.05,0.1,0.11,0.12,0.18
				c0.03,0.07,0.04,0.14,0.04,0.21c0,0.14-0.05,0.28-0.16,0.39c-0.05,0.05-0.11,0.09-0.18,0.12C40.07,43.99,40,44.01,39.93,44.01z"
				/>
		</g>
		<g>
			<path class="st2" d="M34.69,44.01c-0.15,0-0.29-0.06-0.39-0.16c-0.1-0.11-0.16-0.25-0.16-0.39c0-0.07,0.01-0.14,0.04-0.21
				c0.03-0.07,0.07-0.13,0.12-0.18c0.05-0.05,0.11-0.09,0.18-0.12c0.2-0.09,0.44-0.03,0.6,0.12c0.05,0.05,0.09,0.11,0.12,0.18
				c0.02,0.07,0.04,0.14,0.04,0.21c0,0.14-0.06,0.28-0.16,0.39C34.97,43.95,34.83,44.01,34.69,44.01z"/>
		</g>
		<g>
			<path class="st2" d="M47.78,46.43c-0.14,0-0.29-0.06-0.39-0.16c-0.05-0.05-0.09-0.11-0.12-0.18c-0.03-0.06-0.04-0.13-0.04-0.21
				c0-0.07,0.01-0.14,0.04-0.21c0.03-0.06,0.07-0.12,0.12-0.17c0.16-0.16,0.4-0.21,0.6-0.12c0.07,0.02,0.13,0.06,0.18,0.12
				c0.05,0.05,0.09,0.11,0.12,0.17c0.03,0.07,0.04,0.14,0.04,0.21c0,0.08-0.01,0.15-0.04,0.21c-0.03,0.07-0.07,0.13-0.12,0.18
				c-0.05,0.05-0.11,0.09-0.18,0.12S47.85,46.43,47.78,46.43z"/>
		</g>
		<g>
			<path class="st2" d="M42.54,46.43c-0.14,0-0.28-0.05-0.38-0.16c-0.11-0.1-0.17-0.24-0.17-0.39c0-0.07,0.02-0.14,0.05-0.21
				c0.02-0.06,0.06-0.12,0.12-0.17c0.05-0.06,0.11-0.1,0.17-0.12c0.14-0.06,0.29-0.06,0.42,0c0.07,0.02,0.13,0.06,0.18,0.12
				c0.05,0.05,0.09,0.11,0.12,0.17c0.03,0.07,0.04,0.14,0.04,0.21c0,0.15-0.06,0.29-0.16,0.39c-0.05,0.05-0.11,0.09-0.18,0.12
				C42.69,46.42,42.61,46.43,42.54,46.43z"/>
		</g>
		<g>
			<path class="st2" d="M37.31,46.43c-0.15,0-0.29-0.06-0.39-0.16c-0.05-0.05-0.09-0.11-0.12-0.18c-0.03-0.06-0.04-0.13-0.04-0.21
				c0-0.14,0.06-0.28,0.16-0.38c0.05-0.05,0.11-0.1,0.18-0.12c0.13-0.06,0.29-0.06,0.42,0c0.06,0.02,0.12,0.06,0.18,0.12
				c0.1,0.1,0.16,0.24,0.16,0.38c0,0.08-0.02,0.15-0.05,0.21c-0.02,0.07-0.06,0.13-0.11,0.18C37.59,46.37,37.45,46.43,37.31,46.43z"
				/>
		</g>
		<g>
			<path class="st2" d="M20.53,24c-0.14,0-0.28-0.06-0.38-0.16c-0.06-0.05-0.1-0.11-0.12-0.18c-0.03-0.06-0.05-0.13-0.05-0.21
				c0-0.07,0.02-0.14,0.05-0.21c0.02-0.06,0.06-0.12,0.12-0.17c0.19-0.21,0.57-0.21,0.77,0c0.05,0.05,0.09,0.11,0.12,0.17
				c0.03,0.07,0.04,0.14,0.04,0.21c0,0.08-0.01,0.15-0.04,0.21c-0.03,0.07-0.07,0.13-0.12,0.18c-0.05,0.05-0.11,0.09-0.18,0.12
				C20.68,23.99,20.6,24,20.53,24z"/>
		</g>
		<g>
			<path class="st2" d="M17.91,26.23c-0.14,0-0.28-0.06-0.38-0.16c-0.06-0.05-0.09-0.11-0.12-0.18s-0.04-0.14-0.04-0.21
				s0.01-0.14,0.04-0.21c0.02-0.07,0.06-0.13,0.12-0.18c0.2-0.2,0.57-0.2,0.77,0c0.05,0.05,0.09,0.11,0.12,0.18
				c0.03,0.07,0.04,0.14,0.04,0.21s-0.01,0.14-0.04,0.21c-0.03,0.07-0.07,0.13-0.12,0.18C18.2,26.17,18.06,26.23,17.91,26.23z"/>
		</g>
		<g>
			<path class="st2" d="M7.44,26.23c-0.14,0-0.29-0.06-0.39-0.16C7,26.02,6.96,25.96,6.93,25.89c-0.03-0.07-0.04-0.14-0.04-0.21
				c0-0.14,0.06-0.28,0.16-0.39c0.21-0.2,0.58-0.2,0.78,0c0.1,0.1,0.16,0.25,0.16,0.39c0,0.07-0.01,0.14-0.04,0.21
				s-0.07,0.13-0.12,0.18C7.73,26.17,7.58,26.23,7.44,26.23z"/>
		</g>
		<g>
			<path class="st2" d="M15.3,28.66c-0.15,0-0.29-0.06-0.39-0.16c-0.05-0.05-0.09-0.11-0.12-0.18c-0.03-0.07-0.04-0.14-0.04-0.21
				c0-0.15,0.06-0.29,0.16-0.39c0.15-0.15,0.39-0.2,0.6-0.12c0.06,0.03,0.12,0.07,0.18,0.12c0.1,0.1,0.16,0.24,0.16,0.39
				c0,0.07-0.02,0.14-0.05,0.21c-0.02,0.07-0.06,0.13-0.11,0.18c-0.06,0.05-0.12,0.09-0.18,0.12C15.44,28.64,15.37,28.66,15.3,28.66
				z"/>
		</g>
		<g>
			<path class="st2" d="M10.06,28.66c-0.15,0-0.29-0.06-0.39-0.16c-0.05-0.05-0.09-0.11-0.12-0.18c-0.03-0.07-0.04-0.14-0.04-0.21
				c0-0.07,0.01-0.14,0.04-0.21c0.03-0.07,0.07-0.13,0.12-0.18c0.16-0.15,0.4-0.2,0.6-0.12c0.07,0.03,0.13,0.07,0.18,0.12
				s0.09,0.11,0.12,0.18c0.02,0.07,0.04,0.14,0.04,0.21c0,0.14-0.06,0.28-0.16,0.39C10.34,28.6,10.2,28.66,10.06,28.66z"/>
		</g>
		<g>
			<path class="st2" d="M15.3,28.69c-0.15,0-0.29-0.06-0.39-0.17c-0.1-0.1-0.16-0.24-0.16-0.38c0-0.15,0.06-0.29,0.16-0.39
				c0.15-0.15,0.39-0.21,0.6-0.12c0.06,0.03,0.12,0.07,0.18,0.12c0.1,0.1,0.16,0.24,0.16,0.39c0,0.14-0.06,0.28-0.16,0.38
				c-0.06,0.06-0.12,0.1-0.18,0.12C15.44,28.67,15.37,28.69,15.3,28.69z"/>
		</g>
		<g>
			<path class="st2" d="M10.06,28.69c-0.15,0-0.29-0.06-0.39-0.17c-0.1-0.1-0.16-0.24-0.16-0.38c0-0.08,0.01-0.15,0.04-0.21
				c0.03-0.07,0.07-0.13,0.12-0.18c0.15-0.16,0.4-0.21,0.6-0.12c0.07,0.03,0.13,0.07,0.18,0.12s0.09,0.11,0.12,0.18
				c0.02,0.06,0.04,0.14,0.04,0.21c0,0.14-0.06,0.28-0.16,0.38C10.34,28.63,10.2,28.69,10.06,28.69z"/>
		</g>
		<g>
			<path class="st2" d="M12.68,30.91c-0.15,0-0.29-0.05-0.39-0.16c-0.05-0.05-0.09-0.11-0.12-0.18c-0.03-0.06-0.04-0.13-0.04-0.2
				c0-0.08,0.01-0.15,0.04-0.22c0.03-0.06,0.07-0.12,0.12-0.17c0.05-0.05,0.11-0.09,0.18-0.12c0.13-0.06,0.28-0.06,0.42,0
				c0.07,0.03,0.13,0.07,0.18,0.12s0.09,0.11,0.12,0.17c0.02,0.07,0.04,0.14,0.04,0.22c0,0.07-0.02,0.14-0.04,0.2
				c-0.03,0.07-0.07,0.13-0.12,0.18s-0.12,0.09-0.18,0.12C12.82,30.9,12.75,30.91,12.68,30.91z"/>
		</g>
		<g>
			<path class="st2" d="M7.44,30.91c-0.14,0-0.29-0.05-0.39-0.16C7,30.7,6.96,30.64,6.93,30.57c-0.03-0.06-0.04-0.13-0.04-0.21
				c0-0.14,0.06-0.28,0.16-0.38c0.21-0.21,0.58-0.21,0.78,0c0.1,0.1,0.16,0.24,0.16,0.38c0,0.08-0.01,0.15-0.04,0.21
				c-0.03,0.07-0.07,0.13-0.12,0.18C7.73,30.86,7.58,30.91,7.44,30.91z"/>
		</g>
		<g>
			<path class="st2" d="M15.3,33.34c-0.15,0-0.29-0.06-0.39-0.16c-0.1-0.1-0.16-0.24-0.16-0.39c0-0.07,0.01-0.14,0.04-0.21
				c0.03-0.06,0.07-0.13,0.12-0.18c0.15-0.15,0.39-0.2,0.6-0.11c0.06,0.02,0.13,0.06,0.18,0.11c0.05,0.05,0.09,0.12,0.11,0.18
				c0.03,0.07,0.05,0.14,0.05,0.21c0,0.15-0.06,0.29-0.16,0.39c-0.06,0.05-0.12,0.09-0.18,0.12C15.44,33.33,15.37,33.34,15.3,33.34z
				"/>
		</g>
		<g>
			<path class="st2" d="M10.06,33.34c-0.15,0-0.29-0.06-0.39-0.16c-0.1-0.1-0.16-0.24-0.16-0.39c0-0.07,0.01-0.14,0.04-0.21
				c0.03-0.06,0.07-0.12,0.12-0.18c0.2-0.2,0.58-0.2,0.78,0c0.05,0.06,0.09,0.12,0.12,0.18c0.02,0.07,0.04,0.14,0.04,0.21
				c0,0.15-0.06,0.29-0.16,0.39C10.34,33.28,10.2,33.34,10.06,33.34z"/>
		</g>
		<g>
			<path class="st2" d="M32.07,46.43c-0.15,0-0.29-0.06-0.39-0.16c-0.1-0.1-0.16-0.24-0.16-0.38c0-0.08,0.01-0.15,0.04-0.22
				c0.03-0.06,0.07-0.12,0.12-0.17c0.16-0.16,0.4-0.21,0.6-0.12c0.07,0.02,0.13,0.07,0.18,0.12c0.05,0.05,0.09,0.11,0.12,0.17
				c0.02,0.07,0.04,0.14,0.04,0.22c0,0.14-0.06,0.28-0.16,0.38c-0.05,0.05-0.11,0.09-0.18,0.12S32.14,46.43,32.07,46.43z"/>
		</g>
		<g>
			<path class="st2" d="M32.11,37.11c-0.15,0-0.29-0.06-0.39-0.17c-0.1-0.1-0.16-0.24-0.16-0.38c0-0.15,0.06-0.29,0.16-0.39
				c0.05-0.05,0.11-0.09,0.17-0.12c0.14-0.06,0.29-0.06,0.43,0c0.06,0.03,0.12,0.07,0.17,0.12c0.11,0.1,0.17,0.24,0.17,0.39
				c0,0.14-0.06,0.28-0.17,0.38c-0.05,0.06-0.11,0.1-0.17,0.12C32.25,37.09,32.18,37.11,32.11,37.11z"/>
		</g>
		<g>
			<path class="st2" d="M29.49,39.33c-0.15,0-0.29-0.06-0.39-0.16c-0.1-0.1-0.16-0.24-0.16-0.39c0-0.07,0.01-0.14,0.04-0.21
				c0.03-0.06,0.07-0.12,0.12-0.17c0.2-0.21,0.57-0.21,0.78,0c0.05,0.05,0.09,0.11,0.12,0.17c0.02,0.07,0.04,0.14,0.04,0.21
				c0,0.15-0.06,0.29-0.16,0.39C29.77,39.27,29.63,39.33,29.49,39.33z"/>
		</g>
		<g>
			<path class="st2" d="M32.11,41.76c-0.15,0-0.29-0.06-0.39-0.16c-0.1-0.1-0.16-0.24-0.16-0.39c0-0.07,0.01-0.14,0.04-0.21
				c0.03-0.07,0.07-0.13,0.12-0.18c0.05-0.05,0.11-0.09,0.17-0.12c0.14-0.05,0.29-0.05,0.43,0c0.06,0.03,0.12,0.07,0.17,0.12
				c0.06,0.05,0.1,0.11,0.12,0.18c0.03,0.07,0.05,0.14,0.05,0.21c0,0.15-0.06,0.29-0.17,0.39c-0.05,0.05-0.11,0.09-0.17,0.12
				C32.25,41.75,32.18,41.76,32.11,41.76z"/>
		</g>
		<g>
			<path class="st2" d="M26.87,41.76c-0.15,0-0.29-0.06-0.39-0.16c-0.05-0.05-0.09-0.11-0.12-0.18c-0.03-0.06-0.04-0.14-0.04-0.21
				c0-0.07,0.01-0.14,0.04-0.21c0.03-0.07,0.07-0.13,0.12-0.18c0.21-0.2,0.57-0.2,0.78,0c0.05,0.05,0.09,0.11,0.12,0.18
				c0.03,0.07,0.04,0.14,0.04,0.21c0,0.07-0.01,0.15-0.04,0.21c-0.03,0.07-0.07,0.13-0.12,0.18C27.16,41.7,27.01,41.76,26.87,41.76z
				"/>
		</g>
		<g>
			<path class="st2" d="M32.11,41.79c-0.15,0-0.29-0.06-0.39-0.16c-0.05-0.05-0.09-0.11-0.12-0.18c-0.03-0.07-0.04-0.14-0.04-0.21
				c0-0.07,0.01-0.14,0.04-0.21c0.03-0.07,0.07-0.13,0.12-0.18c0.05-0.05,0.11-0.09,0.17-0.12c0.14-0.06,0.29-0.06,0.43,0
				c0.06,0.03,0.12,0.07,0.17,0.12c0.06,0.05,0.1,0.11,0.12,0.18c0.03,0.07,0.05,0.14,0.05,0.21c0,0.07-0.02,0.14-0.05,0.21
				c-0.02,0.07-0.06,0.13-0.12,0.18c-0.05,0.05-0.11,0.09-0.17,0.12C32.25,41.77,32.18,41.79,32.11,41.79z"/>
		</g>
		<g>
			<path class="st2" d="M26.87,41.79c-0.15,0-0.29-0.06-0.39-0.16c-0.05-0.05-0.09-0.11-0.12-0.18c-0.03-0.07-0.04-0.14-0.04-0.21
				c0-0.07,0.01-0.14,0.04-0.21c0.03-0.07,0.07-0.13,0.12-0.18c0.21-0.2,0.57-0.2,0.78,0c0.05,0.05,0.09,0.11,0.12,0.18
				c0.03,0.07,0.04,0.14,0.04,0.21c0,0.07-0.01,0.14-0.04,0.21c-0.03,0.07-0.07,0.13-0.12,0.18C27.16,41.73,27.01,41.79,26.87,41.79
				z"/>
		</g>
		<g>
			<path class="st2" d="M29.49,44.02c-0.15,0-0.29-0.06-0.39-0.16c-0.1-0.11-0.16-0.25-0.16-0.39c0-0.07,0.01-0.15,0.04-0.21
				c0.03-0.07,0.07-0.13,0.12-0.18c0.2-0.21,0.57-0.21,0.78,0c0.05,0.05,0.09,0.11,0.12,0.18c0.02,0.06,0.04,0.14,0.04,0.21
				c0,0.14-0.06,0.28-0.16,0.39C29.77,43.96,29.63,44.02,29.49,44.02z"/>
		</g>
		<g>
			<path class="st2" d="M32.11,46.44c-0.15,0-0.29-0.05-0.39-0.16c-0.1-0.1-0.16-0.24-0.16-0.38c0-0.08,0.01-0.15,0.04-0.22
				c0.03-0.06,0.07-0.12,0.12-0.17c0.05-0.05,0.11-0.1,0.17-0.12c0.14-0.06,0.29-0.06,0.43,0c0.06,0.02,0.12,0.06,0.17,0.12
				c0.06,0.05,0.1,0.11,0.12,0.17c0.03,0.07,0.05,0.14,0.05,0.22c0,0.14-0.06,0.28-0.17,0.38c-0.05,0.05-0.11,0.09-0.17,0.12
				C32.25,46.43,32.18,46.44,32.11,46.44z"/>
		</g>
		<g>
			<path class="st2" d="M26.87,46.44c-0.15,0-0.29-0.06-0.39-0.16c-0.1-0.1-0.16-0.24-0.16-0.39c0-0.07,0.01-0.14,0.04-0.21
				c0.03-0.06,0.07-0.12,0.12-0.17c0.21-0.21,0.57-0.21,0.78,0c0.05,0.05,0.09,0.11,0.12,0.17c0.03,0.07,0.04,0.14,0.04,0.21
				c0,0.15-0.06,0.29-0.16,0.39C27.16,46.38,27.01,46.44,26.87,46.44z"/>
		</g>
		<g>
			<path class="st2" d="M25.77,24c-0.15,0-0.29-0.06-0.39-0.16c-0.05-0.05-0.09-0.11-0.12-0.18c-0.03-0.06-0.04-0.13-0.04-0.21
				c0-0.14,0.06-0.28,0.16-0.38c0.21-0.21,0.57-0.21,0.78,0c0.1,0.1,0.16,0.24,0.16,0.38c0,0.08-0.01,0.15-0.04,0.21
				c-0.03,0.07-0.07,0.13-0.12,0.18C26.06,23.94,25.91,24,25.77,24z"/>
		</g>
		<g>
			<g>
				<g>
					<path class="st3" d="M13.14,25.11c-0.62,0-1.24-0.13-1.83-0.39c-1.09-0.49-1.92-1.37-2.34-2.48c-0.42-1.11-0.39-2.32,0.1-3.41
						c0.49-1.09,1.37-1.92,2.48-2.34s2.32-0.39,3.41,0.1c2.24,1.01,3.25,3.65,2.24,5.89c-0.49,1.09-1.37,1.92-2.48,2.34
						C14.21,25.01,13.67,25.11,13.14,25.11z M13.14,17.39c-0.39,0-0.78,0.07-1.16,0.21c-0.81,0.31-1.46,0.92-1.81,1.71
						c-0.36,0.79-0.38,1.68-0.07,2.49c0.31,0.81,0.92,1.46,1.71,1.81c0.79,0.36,1.68,0.38,2.49,0.07c0.81-0.31,1.46-0.92,1.81-1.71
						c0.74-1.64,0-3.57-1.64-4.31C14.05,17.49,13.6,17.39,13.14,17.39z"/>
				</g>
			</g>
		</g>
	</g>
</g>
</svg>
