<?xml version="1.0" encoding="utf-8"?>
<!-- Generator: Adobe Illustrator 24.0.2, SVG Export Plug-In . SVG Version: 6.00 Build 0)  -->
<svg version="1.1" xmlns="http://www.w3.org/2000/svg" xmlns:xlink="http://www.w3.org/1999/xlink" x="0px" y="0px"
	 viewBox="0 0 60 60" style="enable-background:new 0 0 60 60;" xml:space="preserve">
<style type="text/css">
	.st0{fill:#19A500;}
	.st1{fill:none;}
	.st2{fill:#FFFFFF;}
	.st3{fill:#EFEF00;}
</style>
<g id="Capa_2">
	<g>
		<g>
			<g id="Rectángulo_3799_13_">
				<path class="st0" d="M30,0L30,0c16.57,0,30,13.43,30,30v0c0,16.57-13.43,30-30,30h0C13.43,60,0,46.57,0,30v0
					C0,13.43,13.43,0,30,0z"/>
			</g>
		</g>
	</g>
</g>
<g id="Capa_1">
	<g>
		<g>
			<g>
				<g id="Rectángulo_3799_3_">
					<rect class="st1" width="60" height="60"/>
				</g>
			</g>
		</g>
	</g>
	<g>
		<g>
			<path class="st2" d="M33.03,33.79c-0.09,0-0.19-0.02-0.27-0.07l-11.79-6.93L9.1,33.5c-0.26,0.15-0.59,0.05-0.73-0.2
				c-0.15-0.26-0.06-0.59,0.2-0.73l12.13-6.86c0.17-0.1,0.37-0.09,0.54,0l12.06,7.09c0.26,0.15,0.34,0.48,0.19,0.73
				C33.4,33.69,33.22,33.79,33.03,33.79z"/>
		</g>
		<g>
			<path class="st2" d="M11.95,44.82c-0.3,0-0.54-0.24-0.54-0.54V31.84c0-0.3,0.24-0.54,0.54-0.54s0.54,0.24,0.54,0.54v12.44
				C12.48,44.58,12.24,44.82,11.95,44.82z"/>
		</g>
		<g>
			<path class="st2" d="M29.7,45.51c-0.3,0-0.54-0.24-0.54-0.54V31.62c0-0.3,0.24-0.54,0.54-0.54s0.54,0.24,0.54,0.54v13.35
				C30.24,45.27,30,45.51,29.7,45.51z"/>
		</g>
		<g>
			<path class="st2" d="M19.28,37.28h-4.23c-0.3,0-0.54-0.24-0.54-0.54v-4.02c0-0.3,0.24-0.54,0.54-0.54h4.23
				c0.3,0,0.54,0.24,0.54,0.54v4.02C19.82,37.04,19.58,37.28,19.28,37.28z M15.59,36.21h3.16v-2.95h-3.16V36.21z"/>
		</g>
		<g>
			<path class="st2" d="M26.3,45.54h-4.23c-0.14,0-0.28-0.06-0.38-0.16s-0.16-0.24-0.16-0.38l0-12.22c0-0.3,0.24-0.54,0.54-0.54
				h4.23c0.14,0,0.28,0.06,0.38,0.16s0.16,0.24,0.16,0.38l0,12.22C26.83,45.3,26.59,45.54,26.3,45.54z M22.6,44.47h3.16l0-11.14
				H22.6L22.6,44.47z"/>
		</g>
		<g>
			<path class="st2" d="M51.8,29.31c-0.06,0-0.12-0.01-0.19-0.03l-4.91-1.82c-0.28-0.1-0.42-0.41-0.32-0.69
				c0.1-0.28,0.42-0.42,0.69-0.32l4.91,1.82c0.28,0.1,0.42,0.41,0.32,0.69C52.22,29.18,52.02,29.31,51.8,29.31z"/>
		</g>
		<g>
			<path class="st2" d="M25.61,28.85c-0.17,0-0.33-0.08-0.43-0.22c-0.18-0.24-0.12-0.58,0.12-0.75l8.1-5.93
				c0.15-0.11,0.34-0.13,0.5-0.07l1.92,0.71c0.28,0.1,0.42,0.41,0.32,0.69c-0.1,0.28-0.41,0.42-0.69,0.32l-1.65-0.61l-7.87,5.76
				C25.83,28.82,25.72,28.85,25.61,28.85z"/>
		</g>
		<g>
			<path class="st2" d="M48.3,45.08c-0.3,0-0.54-0.24-0.54-0.54V27.87c0-0.3,0.24-0.54,0.54-0.54s0.54,0.24,0.54,0.54v16.67
				C48.84,44.84,48.6,45.08,48.3,45.08z"/>
		</g>
		<g>
			<path class="st2" d="M51.38,45.58H8.2c-0.3,0-0.54-0.24-0.54-0.54S7.9,44.5,8.2,44.5h43.18c0.3,0,0.54,0.24,0.54,0.54
				S51.68,45.58,51.38,45.58z"/>
		</g>
		<g>
			<path class="st2" d="M48.38,49.75H12.2c-0.3,0-0.54-0.24-0.54-0.54s0.24-0.54,0.54-0.54h36.18c0.3,0,0.54,0.24,0.54,0.54
				S48.68,49.75,48.38,49.75z"/>
		</g>
		<g>
			<path class="st2" d="M43.42,37.59h-7.51c-0.3,0-0.54-0.24-0.54-0.54v-4.03c0-0.3,0.24-0.54,0.54-0.54h7.51
				c0.3,0,0.54,0.24,0.54,0.54v4.03C43.96,37.35,43.72,37.59,43.42,37.59z M36.45,36.51h6.43v-2.95h-6.43V36.51z"/>
		</g>
		<g>
			<g>
				<path class="st2" d="M25.7,28.87c-0.3,0-0.54-0.24-0.54-0.54V13.22c0-0.3,0.24-0.54,0.54-0.54s0.54,0.24,0.54,0.54v15.11
					C26.23,28.63,25.99,28.87,25.7,28.87z"/>
			</g>
			<g>
				<path class="st2" d="M25.71,23.67c-4.43,0-8.03-3.6-8.03-8.03c0-4.43,3.6-8.03,8.03-8.03s8.03,3.6,8.03,8.03
					C33.74,20.07,30.14,23.67,25.71,23.67z M25.71,8.68c-3.84,0-6.96,3.12-6.96,6.96c0,3.84,3.12,6.96,6.96,6.96
					c3.84,0,6.96-3.12,6.96-6.96C32.66,11.8,29.54,8.68,25.71,8.68z"/>
			</g>
			<g>
				<path class="st2" d="M25.93,17.73c-0.14,0-0.27-0.05-0.38-0.16c-0.21-0.21-0.21-0.55,0-0.76l2.8-2.8c0.21-0.21,0.55-0.21,0.76,0
					c0.21,0.21,0.21,0.55,0,0.76l-2.8,2.8C26.2,17.67,26.07,17.73,25.93,17.73z"/>
			</g>
			<g>
				<path class="st2" d="M25.62,21.04c-0.11,0-0.21-0.03-0.3-0.09l-3.45-2.37c-0.24-0.17-0.31-0.5-0.14-0.75
					c0.17-0.25,0.5-0.3,0.75-0.14l3.45,2.37c0.24,0.17,0.31,0.5,0.14,0.75C25.96,20.95,25.79,21.04,25.62,21.04z"/>
			</g>
		</g>
		<g>
			<g>
				<path class="st2" d="M16.28,28.9c-0.3,0-0.54-0.24-0.54-0.54V20.4c0-0.3,0.24-0.54,0.54-0.54c0.3,0,0.54,0.24,0.54,0.54v7.96
					C16.81,28.66,16.57,28.9,16.28,28.9z"/>
			</g>
			<g>
				<path class="st2" d="M13.65,30.38c-0.06,0-0.13-0.01-0.19-0.04c-3.11-1.17-5.2-4.19-5.2-7.52c0-4.43,3.6-8.03,8.03-8.03
					c0.7,0,1.4,0.09,2.08,0.27c0.29,0.08,0.46,0.37,0.38,0.66c-0.08,0.29-0.37,0.46-0.66,0.38c-0.58-0.16-1.19-0.23-1.8-0.23
					c-3.84,0-6.96,3.12-6.96,6.96c0,2.88,1.81,5.5,4.5,6.51c0.28,0.1,0.42,0.41,0.31,0.69C14.07,30.24,13.86,30.38,13.65,30.38z"/>
			</g>
			<g>
				<path class="st2" d="M22.5,27.55c-0.1,0-0.21-0.03-0.3-0.09c-0.25-0.17-0.31-0.5-0.14-0.75c0.78-1.15,1.19-2.5,1.19-3.89
					c0-0.3,0.24-0.54,0.54-0.54s0.54,0.24,0.54,0.54c0,1.61-0.47,3.16-1.37,4.49C22.84,27.47,22.67,27.55,22.5,27.55z"/>
			</g>
			<g>
				<path class="st2" d="M16.44,26.49c-0.14,0-0.27-0.05-0.38-0.16c-0.21-0.21-0.21-0.55,0-0.76l2.8-2.8c0.21-0.21,0.55-0.21,0.76,0
					c0.21,0.21,0.21,0.55,0,0.76l-2.8,2.8C16.72,26.43,16.58,26.49,16.44,26.49z"/>
			</g>
			<g>
				<path class="st2" d="M16.2,26.43c-0.11,0-0.21-0.03-0.3-0.09l-3.45-2.37c-0.24-0.17-0.31-0.5-0.14-0.75
					c0.17-0.25,0.5-0.3,0.75-0.14l3.45,2.37c0.24,0.17,0.31,0.5,0.14,0.75C16.54,26.35,16.37,26.43,16.2,26.43z"/>
			</g>
		</g>
		<g>
			<g>
				<g>
					<path class="st3" d="M41.87,27.88c-0.62,0-1.24-0.13-1.83-0.39c-2.24-1.01-3.25-3.65-2.24-5.89c0.49-1.09,1.37-1.92,2.48-2.34
						s2.32-0.39,3.41,0.1c1.09,0.49,1.92,1.37,2.34,2.48c0.42,1.11,0.39,2.32-0.1,3.41c-0.49,1.09-1.37,1.92-2.48,2.34
						C42.94,27.78,42.41,27.88,41.87,27.88z M41.87,20.16c-0.39,0-0.78,0.07-1.16,0.21c-0.81,0.31-1.46,0.92-1.81,1.71
						c-0.73,1.64,0,3.57,1.64,4.31c0.79,0.36,1.68,0.38,2.49,0.07s1.46-0.92,1.81-1.71c0.36-0.79,0.38-1.68,0.07-2.49
						c-0.31-0.81-0.92-1.46-1.71-1.81C42.78,20.26,42.33,20.16,41.87,20.16z"/>
				</g>
			</g>
		</g>
	</g>
</g>
</svg>
