<?xml version="1.0" encoding="utf-8"?>
<!-- Generator: Adobe Illustrator 24.0.2, SVG Export Plug-In . SVG Version: 6.00 Build 0)  -->
<svg version="1.1" xmlns="http://www.w3.org/2000/svg" xmlns:xlink="http://www.w3.org/1999/xlink" x="0px" y="0px"
	 viewBox="0 0 60 60" style="enable-background:new 0 0 60 60;" xml:space="preserve">
<style type="text/css">
	.st0{fill:#19A500;}
	.st1{fill:none;}
	.st2{fill:#FFFFFF;}
	.st3{fill:#EFEF00;}
</style>
<g id="Capa_2">
	<g>
		<g>
			<g id="Rectángulo_3799_11_">
				<path class="st0" d="M30,0L30,0c16.57,0,30,13.43,30,30v0c0,16.57-13.43,30-30,30h0C13.43,60,0,46.57,0,30v0
					C0,13.43,13.43,0,30,0z"/>
			</g>
		</g>
	</g>
</g>
<g id="Capa_1">
	<g>
		<g>
			<g id="Rectángulo_3799_23_">
				<rect class="st1" width="60" height="60"/>
			</g>
		</g>
	</g>
	<g>
		<g>
			<g>
				<path class="st2" d="M40.8,43.33c-0.3,0-0.54-0.24-0.54-0.54V28.5c0-0.3,0.24-0.54,0.54-0.54s0.54,0.24,0.54,0.54v14.29
					C41.34,43.09,41.1,43.33,40.8,43.33z"/>
			</g>
			<g>
				<path class="st2" d="M38.07,21.35h-9.8c-0.3,0-0.54-0.24-0.54-0.54s0.24-0.54,0.54-0.54h9.8c0.3,0,0.54,0.24,0.54,0.54
					S38.37,21.35,38.07,21.35z"/>
			</g>
			<g>
				<path class="st2" d="M21.04,43.53c-0.3,0-0.54-0.24-0.54-0.54V27.98c0-0.3,0.24-0.54,0.54-0.54s0.54,0.24,0.54,0.54v15.01
					C21.58,43.28,21.34,43.53,21.04,43.53z"/>
			</g>
			<g>
				<path class="st2" d="M29.44,43.68h-3.88c-0.3,0-0.54-0.24-0.54-0.54v-8.78c0-1.24,1.01-2.25,2.25-2.25h0.46
					c1.24,0,2.25,1.01,2.25,2.25v8.78C29.98,43.44,29.74,43.68,29.44,43.68z M26.1,42.6h2.79v-8.24c0-0.64-0.52-1.17-1.17-1.17
					h-0.46c-0.64,0-1.17,0.52-1.17,1.17V42.6z"/>
			</g>
			<g>
				<path class="st2" d="M36.78,43.68H32.9c-0.3,0-0.54-0.24-0.54-0.54v-8.78c0-1.24,1.01-2.25,2.25-2.25h0.46
					c1.24,0,2.25,1.01,2.25,2.25v8.78C37.32,43.44,37.08,43.68,36.78,43.68z M33.44,42.6h2.79v-8.24c0-0.64-0.52-1.17-1.17-1.17
					h-0.46c-0.64,0-1.17,0.52-1.17,1.17V42.6z"/>
			</g>
			<g>
				<path class="st2" d="M52.31,43.8H7.12c-0.3,0-0.54-0.24-0.54-0.54s0.24-0.54,0.54-0.54h45.19c0.3,0,0.54,0.24,0.54,0.54
					S52.61,43.8,52.31,43.8z"/>
			</g>
			<g>
				<path class="st2" d="M9.69,43.62c-0.3,0-0.54-0.24-0.54-0.54V24.74c0-0.3,0.24-0.54,0.54-0.54l5.33-0.02c0,0,0,0,0,0
					c0.3,0,0.54,0.24,0.54,0.54l0.08,18.01c0,0.3-0.24,0.54-0.54,0.54c0,0,0,0,0,0c-0.3,0-0.54-0.24-0.54-0.54l-0.08-17.47
					l-4.24,0.02v17.79C10.24,43.38,9.99,43.62,9.69,43.62z"/>
			</g>
			<g>
				<path class="st2" d="M15.2,43.77c-0.3,0-0.54-0.24-0.54-0.54V31.89c0-0.3,0.24-0.54,0.54-0.54h5.24c0.3,0,0.54,0.24,0.54,0.54
					c0,0.3-0.24,0.54-0.54,0.54h-4.7v10.79C15.75,43.53,15.5,43.77,15.2,43.77z"/>
			</g>
		</g>
		<g>
			<path class="st2" d="M49.52,28.66h-10.4c-2.15,0-3.9-1.75-3.9-3.9c0-1.86,1.31-3.42,3.05-3.81c-0.47-0.59-0.73-1.32-0.73-2.1
				v-0.98c0-1.57,1.06-2.9,2.54-3.28c0-0.05,0-0.09,0-0.14c0-2.34,1.9-4.24,4.24-4.24s4.24,1.9,4.24,4.24c0,0.05,0,0.09,0,0.14
				c1.48,0.39,2.54,1.72,2.54,3.28v0.98c0,0.77-0.26,1.51-0.73,2.09c1.74,0.39,3.05,1.95,3.05,3.81
				C53.42,26.91,51.67,28.66,49.52,28.66z M39.12,21.94c-1.55,0-2.82,1.26-2.82,2.82c0,1.55,1.26,2.82,2.82,2.82h10.4
				c1.55,0,2.82-1.26,2.82-2.82c0-1.55-1.26-2.82-2.82-2.82h-0.53c-0.25,0-0.47-0.17-0.53-0.41c-0.06-0.24,0.06-0.5,0.28-0.61
				c0.79-0.41,1.28-1.2,1.28-2.06v-0.98c0-1.19-0.9-2.18-2.1-2.3c-0.15-0.02-0.29-0.09-0.38-0.21s-0.13-0.27-0.11-0.42
				c0.03-0.16,0.04-0.33,0.04-0.5c0-1.74-1.42-3.16-3.16-3.16s-3.16,1.42-3.16,3.16c0,0.17,0.02,0.33,0.04,0.5
				c0.02,0.15-0.02,0.3-0.11,0.42s-0.23,0.19-0.38,0.21c-1.2,0.12-2.1,1.11-2.1,2.3v0.98c0,0.87,0.49,1.66,1.28,2.06
				c0.22,0.12,0.34,0.37,0.28,0.61c-0.06,0.24-0.28,0.41-0.53,0.41H39.12z"/>
		</g>
		<g>
			<path class="st2" d="M44.33,43.39c-0.3,0-0.54-0.24-0.54-0.54V28.13c0-0.3,0.24-0.54,0.54-0.54s0.54,0.24,0.54,0.54v14.72
				C44.87,43.15,44.63,43.39,44.33,43.39z"/>
		</g>
		<g>
			<g>
				<g>
					<path class="st3" d="M22.63,26.55c-0.62,0-1.24-0.13-1.83-0.39c-1.09-0.49-1.92-1.37-2.34-2.48c-0.42-1.11-0.39-2.32,0.1-3.41
						c1.01-2.24,3.65-3.24,5.89-2.24c2.24,1.01,3.25,3.65,2.24,5.89h0c-0.49,1.09-1.37,1.92-2.48,2.34
						C23.7,26.46,23.16,26.55,22.63,26.55z M22.64,18.84c-1.24,0-2.43,0.72-2.98,1.92c-0.36,0.79-0.38,1.68-0.07,2.49
						c0.31,0.81,0.92,1.46,1.71,1.81c0.79,0.36,1.68,0.38,2.49,0.07c0.81-0.31,1.46-0.92,1.81-1.71l0,0c0.74-1.64,0-3.57-1.64-4.31
						C23.53,18.93,23.08,18.84,22.64,18.84z"/>
				</g>
			</g>
		</g>
	</g>
</g>
</svg>
