<?xml version="1.0" encoding="utf-8"?>
<!-- Generator: Adobe Illustrator 24.0.2, SVG Export Plug-In . SVG Version: 6.00 Build 0)  -->
<svg version="1.1" xmlns="http://www.w3.org/2000/svg" xmlns:xlink="http://www.w3.org/1999/xlink" x="0px" y="0px"
	 viewBox="0 0 60 60" style="enable-background:new 0 0 60 60;" xml:space="preserve">
<style type="text/css">
	.st0{fill:#19A500;}
	.st1{fill:none;}
	.st2{fill:#FFFFFF;}
	.st3{fill:#EFEF00;}
</style>
<g id="Capa_2">
	<g>
		<g>
			<g id="Rectángulo_3799_54_">
				<path class="st0" d="M30,0L30,0c16.57,0,30,13.43,30,30v0c0,16.57-13.43,30-30,30h0C13.43,60,0,46.57,0,30v0
					C0,13.43,13.43,0,30,0z"/>
			</g>
		</g>
	</g>
</g>
<g id="Capa_1">
	<g>
		<g>
			<g>
				<g id="Rectángulo_3799_1_">
					<rect class="st1" width="60" height="60"/>
				</g>
			</g>
		</g>
	</g>
	<g>
		<g>
			<g>
				<path class="st2" d="M39.28,30.62c0,0-0.01,0-0.01,0c-0.19,0-0.36-0.1-0.46-0.26c-1.48-2.26-2.88-4.55-3.94-6.3
					c-1.03-1.71-2.17-3.76-2.78-6.06c-0.53-2.01-0.54-4.92,1.02-7.07c1.4-1.93,3.95-3.08,6.84-3.08c2.77,0,5.42,1.63,6.59,4.06
					c0.89,1.85,0.95,4.21,0.16,6.62c-0.23,0.69-0.52,1.4-0.9,2.16l0,0c-0.55,1.1-1.19,2.17-1.82,3.2l-0.24,0.39
					c-1.18,1.95-2.47,4.03-3.99,6.12C39.64,30.53,39.46,30.62,39.28,30.62z M39.95,8.98c-2.48,0-4.75,1-5.92,2.61
					c-1.32,1.83-1.3,4.36-0.84,6.11c0.57,2.16,1.66,4.13,2.65,5.77c0.94,1.56,2.16,3.56,3.46,5.57c1.29-1.82,2.42-3.65,3.45-5.36
					L43,23.29c0.61-1.01,1.25-2.05,1.77-3.11c0.35-0.71,0.62-1.37,0.83-2.01c0.7-2.13,0.66-4.18-0.1-5.77
					C44.54,10.39,42.25,8.98,39.95,8.98z M45.28,20.43L45.28,20.43L45.28,20.43z"/>
			</g>
			<g>
				<g>
					<path class="st2" d="M39.54,18.68c-0.5,0-1-0.11-1.47-0.32c-0.88-0.39-1.54-1.1-1.89-2s-0.31-1.87,0.08-2.75
						c0.39-0.88,1.1-1.54,2-1.89c0.9-0.34,1.87-0.31,2.75,0.08c0.88,0.39,1.54,1.1,1.88,2c0.34,0.9,0.31,1.87-0.08,2.75
						c-0.39,0.88-1.1,1.54-2,1.89C40.4,18.6,39.97,18.68,39.54,18.68z M39.54,12.64c-0.94,0-1.83,0.54-2.24,1.44
						c-0.55,1.23,0,2.69,1.23,3.24c0.6,0.27,1.26,0.29,1.87,0.06s1.1-0.69,1.36-1.29c0.27-0.6,0.29-1.26,0.06-1.87
						s-0.69-1.1-1.29-1.36C40.22,12.71,39.88,12.64,39.54,12.64z"/>
				</g>
			</g>
		</g>
		<g>
			<g>
				<path class="st2" d="M23.32,52.16c-0.01,0-0.02,0-0.03,0l-7.78-0.23c-0.39-0.01-0.74-0.23-0.92-0.58l-2.46-4.81
					c-0.23-0.45-0.11-1.01,0.3-1.32l3.53-2.72l-2.23-4.25c-0.12-0.22-0.15-0.47-0.1-0.71l1-4.8l-3.47-4.55
					c-0.17-0.22-0.24-0.5-0.21-0.78l0.65-5.07c0.07-0.52,0.49-0.91,1.01-0.93l10.79-0.14c0.17-0.04,0.38,0.09,0.49,0.26
					c0.11,0.16,0.12,0.37,0.04,0.55l0.84,3.27l5.68-0.06l2.77-4.32c0.17-0.26,0.53-0.34,0.79-0.17c0.26,0.17,0.34,0.53,0.17,0.79
					l-2.84,4.35c-0.2,0.3-0.53,0.48-0.89,0.48h-5.75c-0.49,0-0.91-0.33-1.03-0.8l-0.8-3.21l-10.13,0.13l-0.64,5l3.47,4.56
					c0.19,0.24,0.26,0.56,0.19,0.86l-1,4.8L17,42.02c0.24,0.46,0.12,1.02-0.29,1.33l-3.53,2.72l2.43,4.75l7.71,0.18l4.02-5.98
					c0.16-0.24,0.4-0.39,0.68-0.45l3.89-0.73c0.3-0.06,0.61,0.15,0.67,0.46c0.06,0.31-0.15,0.61-0.46,0.67l-3.89,0.73l-4.03,5.98
					C24,51.99,23.67,52.16,23.32,52.16z"/>
			</g>
			<g>
				<path class="st2" d="M43.64,36.41c-0.1,0-0.2-0.02-0.29-0.08c-0.27-0.16-0.37-0.51-0.21-0.78l4.78-8.23l-3.96-4.74
					c-0.2-0.24-0.17-0.6,0.08-0.8s0.6-0.17,0.8,0.08l3.97,4.83c0.28,0.34,0.32,0.83,0.09,1.21l-4.78,8.23
					C44.03,36.3,43.83,36.41,43.64,36.41z"/>
			</g>
		</g>
	</g>
	<g>
		<g>
			<g>
				<path class="st3" d="M39.06,45.28c-0.62,0-1.24-0.13-1.83-0.39c-1.09-0.49-1.92-1.37-2.34-2.48c-0.42-1.11-0.39-2.32,0.1-3.41
					c1.01-2.24,3.65-3.25,5.89-2.24c1.09,0.49,1.92,1.37,2.34,2.48c0.42,1.11,0.39,2.32-0.1,3.41c-0.49,1.09-1.37,1.92-2.48,2.34
					C40.13,45.18,39.59,45.28,39.06,45.28z M39.07,37.57c-1.24,0-2.43,0.72-2.98,1.92c-0.36,0.79-0.38,1.68-0.07,2.49
					c0.31,0.81,0.92,1.46,1.71,1.81c0.79,0.36,1.68,0.38,2.49,0.07c0.81-0.31,1.46-0.92,1.81-1.71l0,0
					c0.36-0.79,0.38-1.68,0.07-2.49c-0.31-0.81-0.92-1.46-1.71-1.81C39.96,37.66,39.51,37.57,39.07,37.57z"/>
			</g>
		</g>
	</g>
</g>
</svg>
