<?xml version="1.0" encoding="utf-8"?>
<!-- Generator: Adobe Illustrator 24.0.2, SVG Export Plug-In . SVG Version: 6.00 Build 0)  -->
<svg version="1.1" id="Capa_1" xmlns="http://www.w3.org/2000/svg" xmlns:xlink="http://www.w3.org/1999/xlink" x="0px" y="0px"
	 viewBox="0 0 47 47" style="enable-background:new 0 0 47 47;" xml:space="preserve">
<style type="text/css">
	.st0{fill:none;}
	.st1{fill:#19A500;}
	.st2{fill:#A1D005;}
	.st3{fill:#149352;}
	.st4{fill:none;stroke:#19A500;stroke-width:1.6;stroke-miterlimit:10;}
	.st5{fill:none;stroke:#95A6B1;stroke-width:1.6;stroke-linecap:round;stroke-linejoin:round;stroke-miterlimit:10;}
	.st6{fill:none;stroke:#95A6B1;stroke-width:1.65;stroke-linecap:round;stroke-linejoin:round;stroke-miterlimit:10;}
	.st7{fill:none;stroke:#95A6B1;stroke-width:4;stroke-linecap:round;stroke-linejoin:round;stroke-miterlimit:10;}
	.st8{fill:none;stroke:#EFEF00;stroke-width:1.2;stroke-miterlimit:10;}
	.st9{fill:none;stroke:#FFFFFF;stroke-width:1.1037;stroke-linecap:round;stroke-linejoin:round;stroke-miterlimit:10;}
	.st10{fill:none;stroke:#95A6B1;stroke-width:1.2;stroke-linecap:round;stroke-linejoin:round;stroke-miterlimit:10;}
	.st11{fill:none;stroke:#19A500;stroke-width:1.2;stroke-miterlimit:10;}
	.st12{fill:none;stroke:#EFEF00;stroke-width:1.6;stroke-miterlimit:10;}
	.st13{fill:none;stroke:#FFFFFF;stroke-width:1.6;stroke-linecap:round;stroke-linejoin:round;stroke-miterlimit:10;}
	.st14{fill:none;stroke:#95A6B1;stroke-width:1.2589;stroke-linecap:round;stroke-linejoin:round;stroke-miterlimit:10;}
	.st15{fill:none;stroke:#95A6B1;stroke-width:1.0718;stroke-linecap:round;stroke-linejoin:round;stroke-miterlimit:10;}
	.st16{fill:none;stroke:#95A6B1;stroke-width:1.2212;stroke-linecap:round;stroke-linejoin:round;stroke-miterlimit:10;}
	.st17{fill:none;stroke:#95A6B1;stroke-width:1.2408;stroke-linecap:round;stroke-linejoin:round;stroke-miterlimit:10;}
	.st18{fill:none;stroke:#95A6B1;stroke-width:1.2;stroke-linecap:round;stroke-linejoin:round;}
	.st19{fill:none;stroke:#95A6B1;stroke-width:1.2;stroke-linecap:round;stroke-linejoin:round;stroke-dasharray:1.6013,3.2026;}
	.st20{fill:none;stroke:#95A6B1;stroke-width:1.2;stroke-linecap:round;stroke-linejoin:round;stroke-dasharray:1.7413,3.4827;}
	.st21{fill:none;stroke:#95A6B1;stroke-width:1.2;stroke-linecap:round;stroke-linejoin:round;stroke-dasharray:2.056,4.112;}
	.st22{fill:none;stroke:#95A6B1;stroke-width:1.2275;stroke-linecap:round;stroke-linejoin:round;stroke-miterlimit:10;}
	.st23{fill:none;stroke:#95A6B1;stroke-width:1.2565;stroke-linecap:round;stroke-linejoin:round;stroke-miterlimit:10;}
	.st24{fill:none;stroke:#95A6B1;stroke-width:1.2892;stroke-linecap:round;stroke-linejoin:round;stroke-miterlimit:10;}
	.st25{fill:none;stroke:#95A6B1;stroke-width:1.3462;stroke-linecap:round;stroke-linejoin:round;stroke-miterlimit:10;}
	.st26{fill:none;stroke:#95A6B1;stroke-width:2;stroke-linecap:round;stroke-linejoin:round;stroke-miterlimit:10;}
	.st27{fill:none;stroke:#19A500;stroke-width:1.6;stroke-linecap:round;stroke-linejoin:round;stroke-miterlimit:10;}
	.st28{fill:none;stroke:#FBE957;stroke-width:1.6;stroke-miterlimit:10;}
	.st29{fill:none;stroke:#FBE957;stroke-width:3.1353;stroke-linecap:round;stroke-linejoin:round;stroke-miterlimit:10;}
	.st30{fill:none;stroke:#EED24A;stroke-width:3.1353;stroke-linecap:round;stroke-linejoin:round;stroke-miterlimit:10;}
	.st31{fill:#FFFFFF;}
</style>
<g>
	<rect class="st0" width="47" height="47"/>
</g>
<g id="Línea_2165_1_">
	<path class="st31" d="M37.94,40.25H5.6c-0.41,0-0.75-0.34-0.75-0.75s0.34-0.75,0.75-0.75h32.35c0.41,0,0.75,0.34,0.75,0.75
		S38.36,40.25,37.94,40.25z"/>
</g>
<g id="Trazado_11531_1_">
	<path class="st31" d="M9.31,40.25c-0.41,0-0.75-0.34-0.75-0.75V12.16c0-2.24,1.82-4.06,4.06-4.06h13.96c2.24,0,4.06,1.82,4.06,4.06
		v13.95c0,0.41-0.34,0.75-0.75,0.75s-0.75-0.34-0.75-0.75V12.16c0-1.41-1.15-2.56-2.56-2.56H12.62c-1.41,0-2.56,1.15-2.56,2.56V39.5
		C10.06,39.91,9.72,40.25,9.31,40.25z"/>
</g>
<g id="Línea_2166_1_">
	<path class="st31" d="M29.89,14.8H9.31c-0.41,0-0.75-0.34-0.75-0.75s0.34-0.75,0.75-0.75h20.58c0.41,0,0.75,0.34,0.75,0.75
		S30.3,14.8,29.89,14.8z"/>
</g>
<g id="Línea_2167_1_">
	<path class="st31" d="M14.86,40.25c-0.41,0-0.75-0.34-0.75-0.75V14.05c0-0.41,0.34-0.75,0.75-0.75s0.75,0.34,0.75,0.75V39.5
		C15.61,39.91,15.28,40.25,14.86,40.25z"/>
</g>
<g id="Línea_2168_1_">
	<path class="st31" d="M14.86,18.74H9.31c-0.41,0-0.75-0.34-0.75-0.75s0.34-0.75,0.75-0.75h5.56c0.41,0,0.75,0.34,0.75,0.75
		S15.28,18.74,14.86,18.74z"/>
</g>
<g id="Línea_2169_1_">
	<path class="st31" d="M14.86,22.68H9.31c-0.41,0-0.75-0.34-0.75-0.75s0.34-0.75,0.75-0.75h5.56c0.41,0,0.75,0.34,0.75,0.75
		S15.28,22.68,14.86,22.68z"/>
</g>
<g id="Línea_2170_1_">
	<path class="st31" d="M14.86,26.63H9.31c-0.41,0-0.75-0.34-0.75-0.75s0.34-0.75,0.75-0.75h5.56c0.41,0,0.75,0.34,0.75,0.75
		S15.28,26.63,14.86,26.63z"/>
</g>
<g id="Línea_2171_1_">
	<path class="st31" d="M14.86,30.57H9.31c-0.41,0-0.75-0.34-0.75-0.75s0.34-0.75,0.75-0.75h5.56c0.41,0,0.75,0.34,0.75,0.75
		S15.28,30.57,14.86,30.57z"/>
</g>
<g id="Línea_2172_1_">
	<path class="st31" d="M14.86,34.51H9.31c-0.41,0-0.75-0.34-0.75-0.75s0.34-0.75,0.75-0.75h5.56c0.41,0,0.75,0.34,0.75,0.75
		S15.28,34.51,14.86,34.51z"/>
</g>
<g id="Trazado_11533_1_">
	<path class="st31" d="M30.53,21.44c-0.34,0-0.64-0.23-0.73-0.57c-0.06-0.23-1.34-5.56,1.28-9.43c2.63-3.87,8.06-4.65,8.29-4.68
		c0.38-0.06,0.74,0.19,0.83,0.56c0.06,0.23,1.35,5.56-1.28,9.43l0,0c-2.63,3.87-8.06,4.65-8.29,4.68
		C30.6,21.44,30.56,21.44,30.53,21.44z M38.88,8.38c-1.45,0.33-4.82,1.33-6.56,3.9c-1.74,2.56-1.43,6.06-1.2,7.53
		c1.45-0.33,4.82-1.33,6.56-3.9C39.42,13.34,39.12,9.85,38.88,8.38z M38.3,16.33L38.3,16.33L38.3,16.33z"/>
</g>
<g id="Línea_2173_1_">
	<path class="st31" d="M30.53,21.44c-0.15,0-0.29-0.04-0.42-0.13c-0.34-0.23-0.43-0.7-0.2-1.04l5.32-7.84
		c0.23-0.34,0.7-0.43,1.04-0.2c0.34,0.23,0.43,0.7,0.2,1.04l-5.32,7.84C31.01,21.32,30.77,21.44,30.53,21.44z"/>
</g>
<g id="Línea_2174_1_">
	<path class="st31" d="M33.47,17.1c-0.36,0-0.67-0.25-0.74-0.62l-0.39-2.17c-0.07-0.41,0.2-0.8,0.61-0.87
		c0.41-0.07,0.8,0.2,0.87,0.61l0.39,2.17c0.07,0.41-0.2,0.8-0.61,0.87C33.56,17.1,33.52,17.1,33.47,17.1z"/>
</g>
<g id="Línea_2175_1_">
	<path class="st31" d="M33.47,17.1c-0.35,0-0.67-0.25-0.74-0.61c-0.08-0.41,0.19-0.8,0.6-0.88l2.26-0.43
		c0.41-0.08,0.8,0.19,0.88,0.6c0.08,0.41-0.19,0.8-0.6,0.88l-2.26,0.43C33.57,17.1,33.52,17.1,33.47,17.1z"/>
</g>
<g id="Trazado_11534_1_">
	<path class="st31" d="M37.4,24.92c-0.02,0-0.03,0-0.05,0c-4.07-0.03-7.25-3.59-7.38-3.74c-0.27-0.31-0.24-0.78,0.07-1.06
		c0.31-0.27,0.78-0.24,1.06,0.07c0.03,0.03,2.88,3.21,6.27,3.23c0.01,0,0.02,0,0.04,0c2.54,0,4.79-1.75,5.77-2.64
		c-0.96-0.89-3.16-2.67-5.68-2.72c-0.41-0.01-0.74-0.35-0.73-0.77c0.01-0.41,0.4-0.73,0.77-0.73c4.02,0.09,7.15,3.58,7.28,3.73
		c0.25,0.29,0.25,0.72-0.01,1C44.66,21.45,41.45,24.92,37.4,24.92z"/>
</g>
<g id="Línea_2176_1_">
	<path class="st31" d="M39.46,21.5C39.46,21.5,39.46,21.5,39.46,21.5l-8.93-0.06c-0.41,0-0.75-0.34-0.74-0.76
		c0-0.41,0.34-0.74,0.75-0.74c0,0,0,0,0.01,0L39.46,20c0.41,0,0.75,0.34,0.74,0.76C40.21,21.17,39.87,21.5,39.46,21.5z"/>
</g>
<g id="Línea_2177_1_">
	<path class="st31" d="M37.11,21.48c-0.19,0-0.39-0.07-0.53-0.22c-0.29-0.3-0.29-0.77,0.01-1.06L38,18.81
		c0.3-0.29,0.77-0.29,1.06,0.01c0.29,0.3,0.29,0.77-0.01,1.06l-1.41,1.39C37.49,21.41,37.3,21.48,37.11,21.48z"/>
</g>
<g id="Línea_2178_1_">
	<path class="st31" d="M36.43,22.89c-0.19,0-0.39-0.07-0.53-0.22l-1.39-1.41c-0.29-0.3-0.29-0.77,0.01-1.06
		c0.29-0.29,0.77-0.29,1.06,0.01l1.39,1.41c0.29,0.3,0.29,0.77-0.01,1.06C36.81,22.81,36.62,22.89,36.43,22.89z"/>
</g>
<g id="Elipse_2130_1_">
	<path class="st31" d="M29.89,34.73c-1.94,0-3.51-1.58-3.51-3.51s1.58-3.51,3.51-3.51s3.51,1.58,3.51,3.51S31.82,34.73,29.89,34.73z
		 M29.89,29.21c-1.11,0-2.01,0.9-2.01,2.01s0.9,2.01,2.01,2.01s2.01-0.9,2.01-2.01S31,29.21,29.89,29.21z"/>
</g>
<g>
	<path class="st31" d="M29.89,40.25c-0.41,0-0.75-0.34-0.75-0.75v-3.24c0-0.41,0.34-0.75,0.75-0.75s0.75,0.34,0.75,0.75v3.24
		C30.64,39.91,30.3,40.25,29.89,40.25z"/>
</g>
</svg>
