<?xml version="1.0" encoding="utf-8"?>
<!-- Generator: Adobe Illustrator 24.0.2, SVG Export Plug-In . SVG Version: 6.00 Build 0)  -->
<svg version="1.1" id="Layer_1" xmlns="http://www.w3.org/2000/svg" xmlns:xlink="http://www.w3.org/1999/xlink" x="0px" y="0px"
	 width="54px" height="54px" viewBox="0 0 54 54" style="enable-background:new 0 0 54 54;" xml:space="preserve">
<style type="text/css">
	.st0{fill:none;}
	.st1{fill:#A1D005;}
	.st2{fill:#00AF00;}
	.st3{fill:#95A6B1;}
</style>
<title>icon-indicadores</title>
<g id="cerrar">
	<rect class="st0" width="54" height="54"/>
</g>
<g>
	<path class="st1" d="M47,14.2l5,5c0.1,0.2,0.2,0.5,0,0.8c-0.2,0.4-0.7,0.5-1,0.3l-5-5c-0.3-0.3-0.3-0.8,0-1.1
		c0.1-0.1,0.3-0.2,0.5-0.2C46.7,14,46.9,14.1,47,14.2z"/>
	<path class="st2" d="M47.1,14.3L47.1,14.3L47.1,14.3L47.1,14.3L47.1,14.3L47,14.2c-0.1-0.1-0.3-0.2-0.5-0.2s-0.4,0.1-0.5,0.2l0,0
		l0,0l-4.9,5c-0.3,0.3-0.3,0.8,0,1.1c0.3,0.3,0.7,0.3,1,0l4.5-4.4l0,0l0.5-0.5C47.4,15.1,47.4,14.6,47.1,14.3z"/>
</g>
<path class="st1" d="M47.3,30.7v8.4c0,0.4-0.3,0.8-0.8,0.8s-0.8-0.3-0.8-0.8v-8.4c0-0.4,0.3-0.8,0.8-0.8C47,30,47.3,30.3,47.3,30.7z
	"/>
<path class="st2" d="M46.5,25c0.4,0,0.8,0.3,0.8,0.8v8.4c0,0.4-0.3,0.8-0.8,0.8s-0.8-0.3-0.8-0.8v-8.4l0,0
	C45.7,25.4,46.1,25,46.5,25L46.5,25z"/>
<path class="st2" d="M47.3,18.4v4.2c0,0.4-0.3,0.8-0.8,0.8s-0.8-0.3-0.8-0.8v-4.2l0,0c0-0.4,0.3-0.7,0.8-0.7
	C47,17.7,47.3,18,47.3,18.4z"/>
<path class="st3" d="M19.7,44.9c-9.9,0-17.9-8-17.9-17.9c0-1.4,0.2-2.8,0.5-4.1c0.1-0.4,0.5-0.7,0.9-0.6s0.7,0.5,0.6,0.9
	c0,0,0,0,0,0.1c-0.3,1.2-0.4,2.5-0.4,3.8c0,9.1,7.3,16.4,16.4,16.4s16.4-7.3,16.4-16.4s-7.3-16.4-16.4-16.4c-1.7,0-3.3,0.2-4.9,0.7
	c-0.4,0.1-0.8-0.1-0.9-0.5l0,0c-0.1-0.4,0.1-0.8,0.5-0.9c9.4-3,19.5,2.3,22.4,11.7s-2.3,19.5-11.7,22.4
	C23.3,44.6,21.5,44.9,19.7,44.9z"/>
<path class="st3" d="M25.2,31.8c0-3-2.4-5.5-5.5-5.5c0,0,0,0-0.1,0c-2.2,0-4-1.8-4-4s1.8-4,4-4s4,1.8,4,4c0,0.4,0.3,0.8,0.8,0.8
	c0.4,0,0.8-0.3,0.8-0.8l0,0c0-2.8-2.1-5.1-4.8-5.5v-1.9c0-0.4-0.3-0.8-0.8-0.8c-0.4,0-0.8,0.3-0.8,0.8v1.9c-2.7,0.4-4.8,2.7-4.8,5.5
	c0,3,2.4,5.5,5.5,5.5c0,0,0,0,0.1,0c2.2,0,4,1.8,4,4s-1.8,4-4,4s-4-1.8-4-4c0-0.4-0.3-0.8-0.8-0.8c-0.4,0-0.8,0.3-0.8,0.8l0,0
	c0,2.8,2.1,5.1,4.7,5.5v2c0,0.4,0.3,0.7,0.8,0.8c0.4,0,0.8-0.3,0.8-0.8v-1.9C23.1,36.9,25.2,34.6,25.2,31.8z"/>
<g id="Grupo_6491_2_">
	<g id="Trazado_5545_2_">
		<path class="st2" d="M7.2,10.6c-2.5,0-4.6,2.1-4.6,4.6s2,4.6,4.6,4.6c2.5,0,4.6-2.1,4.6-4.5v-0.1C11.8,12.6,9.7,10.6,7.2,10.6z
			 M10.3,15.2c0,1.7-1.4,3.1-3.1,3.1s-3.1-1.4-3.1-3.1s1.4-3.1,3.1-3.1s3.1,1.4,3.1,3V15.2z"/>
	</g>
</g>
</svg>
