<?xml version="1.0" encoding="utf-8"?>
<!-- Generator: Adobe Illustrator 24.0.2, SVG Export Plug-In . SVG Version: 6.00 Build 0)  -->
<svg version="1.1" id="Layer_1" xmlns="http://www.w3.org/2000/svg" xmlns:xlink="http://www.w3.org/1999/xlink" x="0px" y="0px"
	 width="54px" height="54px" viewBox="0 0 54 54" style="enable-background:new 0 0 54 54;" xml:space="preserve">
<style type="text/css">
	.st0{fill:none;}
	.st1{fill:#95A6B1;}
	.st2{fill:#00AF00;}
</style>
<title>icon-indicadores</title>
<rect class="st0" width="54" height="54"/>
<path class="st1" d="M45.6,15.2H19.3c-0.5,0-0.8,0.3-0.8,0.8s0.4,0.8,0.8,0.8h26.2c0.7,0,1.2,0.3,1.7,0.7L30.7,31.1
	c-0.8,0.7-2,0.7-2.9,0L16.9,22c-0.3-0.3-0.7-0.2-1,0.1c-0.3,0.4-0.2,0.8,0.1,1.1l8.5,7.1L11,41.4c-0.2-0.4-0.4-0.8-0.4-1.3V25.4
	c0-0.5-0.3-0.8-0.8-0.8S9,25,9,25.4v14.8c0,2.1,1.7,3.8,3.8,3.8h32.7c2.1,0,3.8-1.7,3.9-3.9V30v-0.9V19
	C49.4,16.9,47.7,15.2,45.6,15.2z M47.8,19.1v10v1v10c0,0.5-0.1,0.9-0.4,1.2L34,30.3l13.8-11.4C47.8,19,47.8,19,47.8,19.1z
	 M12.9,42.4c-0.2,0-0.4,0-0.6-0.1l13.4-11.1l1.2,1c0.7,0.6,1.5,0.9,2.4,0.9c0.9,0,1.8-0.3,2.5-0.9l1.1-0.9l13.4,11
	c-0.2,0.1-0.4,0.1-0.6,0.1H12.9z"/>
<g id="Grupo_6491_2_">
	<g id="Trazado_5545_2_">
		<path class="st2" d="M10.5,12.5c-2.5,0-4.6,2.1-4.6,4.6s2,4.6,4.6,4.6c2.5,0,4.6-2.1,4.6-4.5v-0.1C15.1,14.5,13,12.5,10.5,12.5z
			 M13.6,17.1c0,1.7-1.4,3.1-3.1,3.1s-3.1-1.4-3.1-3.1c0-1.7,1.4-3.1,3.1-3.1s3.1,1.4,3.1,3V17.1z"/>
	</g>
</g>
</svg>
