<?xml version="1.0" encoding="utf-8"?>
<!-- Generator: Adobe Illustrator 24.0.2, SVG Export Plug-In . SVG Version: 6.00 Build 0)  -->
<svg version="1.1" id="Layer_1" xmlns="http://www.w3.org/2000/svg" xmlns:xlink="http://www.w3.org/1999/xlink" x="0px" y="0px"
	 width="54px" height="54px" viewBox="0 0 54 54" style="enable-background:new 0 0 54 54;" xml:space="preserve">
<style type="text/css">
	.st0{fill:#95A6B1;}
	.st1{fill:none;}
	.st2{fill:#00AF00;}
</style>
<title>icon-indicadores</title>
<g id="cerrar">
	<path class="st0" d="M45.9,44.8H9.4c-0.4,0-0.8-0.3-0.8-0.8v-5.6c0-0.4,0.3-0.8,0.8-0.8s0.8,0.3,0.8,0.8v4.8h35V14h-35v10.8
		c0,0.4-0.3,0.8-0.8,0.8s-0.8-0.3-0.8-0.8V13.2c0-0.4,0.3-0.7,0.8-0.8h36.5c0.4,0,0.7,0.3,0.8,0.8v30.9
		C46.7,44.5,46.3,44.8,45.9,44.8z"/>
	<path class="st0" d="M20.9,33.3h-2.7c-0.4,0-0.8-0.3-0.8-0.8s0.3-0.8,0.8-0.8h2.7c0.4,0,0.8,0.3,0.8,0.8S21.3,33.3,20.9,33.3z"/>
	<path class="st0" d="M28.5,34.8L28.5,34.8c-0.2,0-0.5-0.1-0.6-0.3l-1-1.5c-0.2-0.3-0.1-0.8,0.2-1c0.3-0.2,0.8-0.1,1,0.2l0.4,0.6
		l2-2.7c0.2-0.3,0.7-0.4,1-0.2s0.4,0.7,0.2,1l-2.6,3.6C29,34.7,28.8,34.8,28.5,34.8z"/>
	<path class="st0" d="M37.9,34.8L37.9,34.8c-0.2,0-0.5-0.1-0.6-0.3l-1-1.5c-0.2-0.3-0.1-0.8,0.2-1s0.8-0.1,1,0.2l0.4,0.6l2-2.8
		c0.3-0.3,0.7-0.3,1-0.1c0.3,0.2,0.4,0.7,0.2,1l0,0l-2.6,3.6C38.4,34.7,38.2,34.8,37.9,34.8z"/>
	<path class="st0" d="M20.9,39.3h-2.7c-0.4,0-0.8-0.3-0.8-0.8s0.3-0.8,0.8-0.8h2.7c0.4,0,0.8,0.3,0.8,0.8S21.3,39.3,20.9,39.3z"/>
	<path class="st0" d="M30.2,39.3h-2.7c-0.4,0-0.8-0.3-0.8-0.8s0.3-0.8,0.8-0.8h2.7c0.4,0,0.8,0.3,0.8,0.8S30.7,39.3,30.2,39.3
		L30.2,39.3z"/>
	<path class="st0" d="M39.7,39.3H37c-0.4,0-0.8-0.3-0.8-0.8s0.3-0.8,0.8-0.8h2.7c0.4,0,0.8,0.3,0.8,0.8S40.1,39.3,39.7,39.3
		L39.7,39.3z"/>
	<path class="st0" d="M20.9,27.3h-2.7c-0.4,0-0.8-0.3-0.8-0.8s0.3-0.8,0.8-0.8h2.7c0.4,0,0.8,0.3,0.8,0.8S21.3,27.3,20.9,27.3z"/>
	<path class="st0" d="M30.2,27.3h-2.7c-0.4,0-0.8-0.3-0.8-0.8s0.3-0.8,0.8-0.8h2.7c0.4,0,0.8,0.3,0.8,0.8S30.7,27.3,30.2,27.3
		L30.2,27.3z"/>
	<path class="st0" d="M39.7,27.3H37c-0.4,0-0.8-0.3-0.8-0.8s0.3-0.8,0.8-0.8h2.7c0.4,0,0.8,0.3,0.8,0.8S40.1,27.3,39.7,27.3
		L39.7,27.3z"/>
	<path class="st0" d="M45.9,22.3H9.4c-0.4,0-0.8-0.3-0.8-0.8s0.3-0.8,0.8-0.8h36.5c0.4,0,0.8,0.3,0.8,0.8S46.3,22.3,45.9,22.3z"/>
	<path class="st0" d="M15.7,17.1c-0.4,0-0.7-0.3-0.8-0.8V10c0-0.4,0.3-0.8,0.8-0.8c0.4,0,0.8,0.3,0.8,0.8v6.3
		C16.5,16.8,16.1,17.1,15.7,17.1L15.7,17.1z"/>
	<path class="st0" d="M24.1,17.1c-0.4,0-0.8-0.3-0.8-0.8V10c0-0.4,0.3-0.8,0.8-0.8s0.8,0.3,0.8,0.8v6.3
		C24.8,16.8,24.5,17.1,24.1,17.1z"/>
	<path class="st0" d="M32.4,17.1c-0.4,0-0.7-0.3-0.8-0.8V10c0-0.4,0.3-0.8,0.8-0.8c0.4,0,0.8,0.3,0.8,0.8v6.3
		C33.2,16.8,32.8,17.1,32.4,17.1z"/>
	<path class="st0" d="M40.8,17.2c-0.4,0-0.8-0.3-0.8-0.8v-6.2c0-0.4,0.3-0.8,0.8-0.8s0.8,0.3,0.8,0.8v6.2
		C41.5,16.9,41.2,17.2,40.8,17.2L40.8,17.2z"/>
	<rect class="st1" width="54" height="54"/>
</g>
<rect x="-71.8" y="3.4" class="st1" width="54" height="54"/>
<path class="st2" d="M9.4,27c-2.5,0-4.6,2.1-4.6,4.6s2,4.6,4.6,4.6c2.5,0,4.6-2.1,4.6-4.5v-0.1C14,29,11.9,27,9.4,27z M12.5,31.6
	c0,1.7-1.4,3.1-3.1,3.1s-3.1-1.4-3.1-3.1c0-1.7,1.4-3.1,3.1-3.1s3.1,1.4,3.1,3V31.6z"/>
</svg>
