<?xml version="1.0" encoding="utf-8"?>
<!-- Generator: Adobe Illustrator 24.0.2, SVG Export Plug-In . SVG Version: 6.00 Build 0)  -->
<svg version="1.1" id="Layer_1" xmlns="http://www.w3.org/2000/svg" xmlns:xlink="http://www.w3.org/1999/xlink" x="0px" y="0px"
	 width="54px" height="54px" viewBox="0 0 54 54" style="enable-background:new 0 0 54 54;" xml:space="preserve">
<style type="text/css">
	.st0{fill:none;}
	.st1{fill:#FF0000;}
	.st2{fill:#BF0000;}
	.st3{fill:#95A6B1;}
</style>
<title>icon-indicadores</title>
<g id="cerrar">
	<rect class="st0" width="54" height="54"/>
</g>
<g>
	<path class="st1" d="M46,39.7l-5-5c-0.1-0.2-0.2-0.5,0-0.8c0.2-0.4,0.7-0.5,1-0.3l5,5c0.3,0.3,0.3,0.8,0,1.1
		c-0.1,0.1-0.3,0.2-0.5,0.2S46.1,39.8,46,39.7z"/>
	<path class="st2" d="M45.9,39.6L45.9,39.6L45.9,39.6L45.9,39.6L45.9,39.6L45.9,39.6c0.2,0.2,0.4,0.3,0.6,0.3s0.4-0.1,0.5-0.2l0,0
		l0,0l4.9-5c0.3-0.3,0.3-0.8,0-1.1s-0.7-0.3-1,0L46.4,38l0,0l-0.5,0.5C45.6,38.9,45.6,39.3,45.9,39.6z"/>
</g>
<path class="st2" d="M45.7,23.2v-8.4c0-0.4,0.3-0.8,0.8-0.8s0.8,0.3,0.8,0.8v8.4c0,0.4-0.3,0.8-0.8,0.8C46.1,24,45.7,23.6,45.7,23.2
	z"/>
<path class="st1" d="M46.5,28.9c-0.4,0-0.8-0.3-0.8-0.8v-8.4c0-0.4,0.3-0.8,0.8-0.8s0.8,0.3,0.8,0.8v8.4l0,0
	C47.2,28.6,46.9,28.9,46.5,28.9L46.5,28.9z"/>
<path class="st1" d="M45.7,35.5v-4.2c0-0.4,0.3-0.8,0.8-0.8s0.8,0.3,0.8,0.8v4.2l0,0c0,0.4-0.3,0.7-0.8,0.7
	C46.1,36.3,45.7,35.9,45.7,35.5z"/>
<path class="st3" d="M19.7,44.9c-9.9,0-17.9-8-17.9-17.9c0-1.4,0.2-2.8,0.5-4.1c0.1-0.4,0.5-0.7,0.9-0.6s0.7,0.5,0.6,0.9
	c0,0,0,0,0,0.1c-0.3,1.2-0.4,2.5-0.4,3.8c0,9.1,7.3,16.4,16.4,16.4s16.4-7.3,16.4-16.4s-7.3-16.4-16.4-16.4c-1.7,0-3.3,0.2-4.9,0.7
	c-0.4,0.1-0.8-0.1-0.9-0.5l0,0c-0.1-0.4,0.1-0.8,0.5-0.9c9.4-3,19.5,2.3,22.4,11.7s-2.3,19.5-11.7,22.4
	C23.3,44.6,21.5,44.9,19.7,44.9z"/>
<path class="st1" d="M7.1,10.2c-2.8,0.1-5,2.3-5.1,5c-0.1,2.9,2.2,5.3,5.1,5.5c3,0,5.3-2.4,5.3-5.2v-0.1
	C12.4,12.5,10.1,10.2,7.1,10.2z M11.1,15.4L11.1,15.4c0,2.2-1.7,3.9-3.9,3.9c-2.1,0-3.9-1.7-3.9-3.9c0-2.1,1.7-3.9,3.9-3.9l0,0
	c1,0,2,0.4,2.7,1.1C10.7,13.4,11.1,14.4,11.1,15.4L11.1,15.4z"/>
<path class="st3" d="M25.2,31.8c0-3-2.4-5.5-5.5-5.5c0,0,0,0-0.1,0c-2.2,0-4-1.8-4-4s1.8-4,4-4s4,1.8,4,4c0,0.4,0.3,0.8,0.8,0.8
	c0.4,0,0.8-0.3,0.8-0.8l0,0c0-2.8-2.1-5.1-4.8-5.5v-1.9c0-0.4-0.3-0.8-0.8-0.8c-0.4,0-0.8,0.3-0.8,0.8v1.9c-2.7,0.4-4.8,2.7-4.8,5.5
	c0,3,2.4,5.5,5.5,5.5c0,0,0,0,0.1,0c2.2,0,4,1.8,4,4s-1.8,4-4,4s-4-1.8-4-4c0-0.4-0.3-0.8-0.8-0.8c-0.4,0-0.8,0.3-0.8,0.8l0,0
	c0,2.8,2.1,5.1,4.7,5.5v2c0,0.4,0.3,0.7,0.8,0.8c0.4,0,0.8-0.3,0.8-0.8v-1.9C23.1,36.9,25.2,34.6,25.2,31.8z"/>
</svg>
