<svg id="Grupo_9244" data-name="Grupo 9244" xmlns="http://www.w3.org/2000/svg" xmlns:xlink="http://www.w3.org/1999/xlink" width="47" height="47" viewBox="0 0 47 47">
  <defs>
    <clipPath id="clip-path">
      <rect id="Rectángulo_911" data-name="Rectángulo 911" width="47" height="47" fill="none"/>
    </clipPath>
  </defs>
  <g id="Grupo_2285" data-name="Grupo 2285" clip-path="url(#clip-path)">
    <g id="Grupo_2284" data-name="Grupo 2284">
      <g id="Grupo_2283" data-name="Grupo 2283" clip-path="url(#clip-path)">
        <path id="Trazado_1097" data-name="Trazado 1097" d="M-4359.329,3622.166a3.106,3.106,0,0,0-.832-2.12,3.107,3.107,0,0,0-2.284-1,3.117,3.117,0,0,0-3.117,3.116,3.118,3.118,0,0,0,3.117,3.117A3.117,3.117,0,0,0-4359.329,3622.166Z" transform="translate(4374.24 -3601.045)" fill="none" stroke="#fff" stroke-linecap="round" stroke-linejoin="round" stroke-width="1.57"/>
        <line id="Línea_1218" data-name="Línea 1218" x2="37.542" transform="translate(4.458 38.367)" fill="none" stroke="#fff" stroke-linecap="round" stroke-linejoin="round" stroke-width="1.57"/>
        <line id="Línea_1219" data-name="Línea 1219" y1="6.716" transform="translate(8.312 31.651)" fill="none" stroke="#fff" stroke-linecap="round" stroke-linejoin="round" stroke-width="1.57"/>
        <line id="Línea_1220" data-name="Línea 1220" y1="11.619" transform="translate(16.046 26.748)" fill="none" stroke="#fff" stroke-linecap="round" stroke-linejoin="round" stroke-width="1.57"/>
        <line id="Línea_1221" data-name="Línea 1221" y1="16.521" transform="translate(23.78 21.846)" fill="none" stroke="#fff" stroke-linecap="round" stroke-linejoin="round" stroke-width="1.57"/>
        <line id="Línea_1222" data-name="Línea 1222" y1="21.424" transform="translate(31.514 16.943)" fill="none" stroke="#fff" stroke-linecap="round" stroke-linejoin="round" stroke-width="1.57"/>
        <line id="Línea_1223" data-name="Línea 1223" y1="26.327" transform="translate(39.248 12.04)" fill="none" stroke="#fff" stroke-linecap="round" stroke-linejoin="round" stroke-width="1.57"/>
        <path id="Trazado_1098" data-name="Trazado 1098" d="M-4357.86,3618.185l2.383-2.092,3.09,2.413,11.779-12" transform="translate(4374.24 -3601.045)" fill="none" stroke="#fff" stroke-linecap="round" stroke-linejoin="round" stroke-width="1.57"/>
        <line id="Línea_1224" data-name="Línea 1224" y1="1.781" x2="2.005" transform="translate(5.635 24.9)" fill="none" stroke="#fff" stroke-linecap="round" stroke-linejoin="round" stroke-width="1.57"/>
        <path id="Trazado_1099" data-name="Trazado 1099" d="M-4346.065,3606.506h5.458v5.458" transform="translate(4374.24 -3601.045)" fill="none" stroke="#fff" stroke-linecap="round" stroke-linejoin="round" stroke-width="1.57"/>
      </g>
    </g>
  </g>
</svg>
