<?xml version="1.0" encoding="utf-8"?>
<!-- Generator: Adobe Illustrator 24.0.2, SVG Export Plug-In . SVG Version: 6.00 Build 0)  -->
<svg version="1.1" id="Layer_1" xmlns="http://www.w3.org/2000/svg" xmlns:xlink="http://www.w3.org/1999/xlink" x="0px" y="0px"
	 width="54px" height="54px" viewBox="0 0 54 54" style="enable-background:new 0 0 54 54;" xml:space="preserve">
<style type="text/css">
	.st0{fill:#00AF00;}
	.st1{fill:#95A6B1;}
	.st2{fill:none;}
</style>
<title>icon-indicadores</title>
<g id="Grupo_6491">
	<g id="Trazado_5545">
		<path class="st0" d="M14.5,11.1c-2.5,0-4.6,2.1-4.6,4.6s2,4.6,4.6,4.6c2.5,0,4.6-2.1,4.6-4.5v-0.1C19.1,13.1,17,11.1,14.5,11.1z
			 M17.6,15.7c0,1.7-1.4,3.1-3.1,3.1s-3.1-1.4-3.1-3.1s1.4-3.1,3.1-3.1s3.1,1.4,3.1,3V15.7z"/>
	</g>
</g>
<g>
	<path class="st1" d="M20.8,25.4h11.5c0.5,0,0.9-0.3,0.9-0.8s-0.4-0.8-0.8-0.8H20.8c-0.5,0-0.8,0.3-0.8,0.8S20.4,25.4,20.8,25.4z"/>
	<path class="st1" d="M20.8,33.5h11.5c0.5,0,0.9-0.3,0.9-0.8s-0.4-0.8-0.8-0.8H20.8c-0.5,0-0.8,0.3-0.8,0.8S20.4,33.5,20.8,33.5z"/>
	<path class="st1" d="M37.2,18c0.9,0,1.6-0.7,1.7-1.8v-1.6c0-0.9-0.7-1.6-1.6-1.6h-7.2v-2.1c0-0.7-0.6-1.3-1.3-1.3h-5.7
		c-0.7,0-1.3,0.6-1.3,1.3V13h-0.6c-0.5,0-0.8,0.3-0.8,0.8s0.4,0.8,0.8,0.8l16.1,0.1l-0.1,1.7H36H22.1h-0.7c-0.5,0-0.8,0.3-0.8,0.8
		S21,18,21.4,18h0.7h13.1v5.6c0,0.5,0.4,0.8,0.8,0.8h0.9c0.1,0,0.3,0.2,0.3,0.4v0.5c0,0.2-0.1,0.4-0.3,0.4H36
		c-0.5,0-0.8,0.4-0.8,0.8v5.3c0,0.5,0.4,0.8,0.8,0.8h0.9c0.1,0,0.3,0.1,0.3,0.3v0.5c0.1,0.2-0.1,0.4-0.3,0.4H36
		c-0.5,0-0.8,0.4-0.8,0.8v5.8H17.8v-5.8c0-0.5-0.4-0.8-0.8-0.8h-0.9c-0.2,0-0.4-0.2-0.4-0.4v-0.5c0.1-0.1,0.2-0.3,0.4-0.3H17
		c0.5,0,0.8-0.4,0.8-0.8v-5.3c0-0.5-0.4-0.8-0.8-0.8h-0.9c-0.2,0-0.4-0.2-0.4-0.4v-0.5c0-0.2,0.2-0.4,0.4-0.4H17
		c0.5,0,0.8-0.4,0.8-0.8v-1.5c0-0.5-0.3-0.8-0.8-0.8s-0.8,0.4-0.8,0.8v0.7h-0.1c-1,0-1.8,0.9-1.8,1.9v0.5c0,1.1,0.9,1.9,1.9,1.9h0.1
		V31h-0.1c-1.1,0-1.9,0.8-1.9,1.8v0.5c0,1,0.9,1.8,1.9,1.8h0.1v5.3h-0.4c-0.9,0-1.6,0.7-1.6,1.6v1.7c0,0.9,0.7,1.6,1.6,1.6h21.3
		c0.9,0,1.6-0.7,1.6-1.6V42c0-0.9-0.7-1.6-1.6-1.6h-0.3v-5.2h0.2c1,0,1.8-0.9,1.8-1.9v-0.5c0-1-0.8-1.8-1.8-1.8h-0.2v-4h0.2
		c1,0,1.8-0.9,1.8-1.9v-0.5c0-1-0.9-1.8-1.9-1.8h-0.2V18H37.2z M23.4,11.2h5.2V13h-5.2C23.4,12.8,23.4,11.2,23.4,11.2z M37.2,43.7
		C37.2,43.8,37.1,43.8,37.2,43.7H15.8l0.1-1.7h1.2H36h1.2V43.7z"/>
</g>
<rect class="st2" width="54" height="54"/>
</svg>
