<?xml version="1.0" encoding="utf-8"?>
<!-- Generator: Adobe Illustrator 24.0.2, SVG Export Plug-In . SVG Version: 6.00 Build 0)  -->
<svg version="1.1" id="Layer_1" xmlns="http://www.w3.org/2000/svg" xmlns:xlink="http://www.w3.org/1999/xlink" x="0px" y="0px"
	 width="54px" height="54px" viewBox="0 0 54 54" style="enable-background:new 0 0 54 54;" xml:space="preserve">
<style type="text/css">
	.st0{fill:#95A6B1;}
	.st1{fill:none;}
	.st2{opacity:0.9;}
	.st3{fill:#00AF00;}
</style>
<title>icon-indicadores</title>
<path class="st0" d="M28.8,15.1h-3.2c-0.4,0-0.8-0.3-0.8-0.8s0.3-0.8,0.8-0.8h3.2c0.4,0,0.8,0.3,0.8,0.8S29.2,15.1,28.8,15.1z"/>
<g>
	<path class="st0" d="M36.1,11H22.5c-0.5,0-0.8,0.2-0.8,0.7s0.4,0.8,0.8,0.8h13.7c1.7,0,3.1,1.4,3.1,3.1v23H14.9V20.1
		c0-0.5-0.3-0.8-0.8-0.8s-0.8,0.4-0.8,0.8V41c0,2.5,2.1,4.6,4.6,4.6h18.2c2.5,0,4.5-2.1,4.6-4.6V15.6C40.7,13,38.6,11,36.1,11z
		 M36.2,44.1H18c-1.7,0-3.1-1.4-3.1-3.1v-0.8h24.4V41C39.3,42.7,37.9,44.1,36.2,44.1z"/>
	<path class="st0" d="M28.8,41.1h-3.2c-0.5,0-0.8,0.3-0.8,0.8s0.4,0.8,0.8,0.8h3.2c0.4,0,0.8-0.3,0.8-0.8S29.2,41.1,28.8,41.1z"/>
</g>
<path class="st0" d="M35,34.7h-3c-0.4,0-0.8-0.3-0.8-0.8s0.3-0.8,0.8-0.8h3c0.4,0,0.8,0.3,0.8,0.8S35.5,34.7,35,34.7z"/>
<path class="st0" d="M37.2,37.2h-5.1c-0.4,0-0.8-0.3-0.8-0.8s0.3-0.8,0.8-0.8h5.2c0.4,0,0.8,0.3,0.8,0.8S37.6,37.2,37.2,37.2z"/>
<rect class="st1" width="54" height="54"/>
<g id="Grupo_6491" class="st2">
	<g id="Trazado_5545">
		<path class="st3" d="M16.1,9c-2.5,0-4.6,2.1-4.6,4.6s2,4.6,4.6,4.6c2.5,0,4.6-2.1,4.6-4.5v-0.1C20.7,11,18.6,9,16.1,9z M19.2,13.6
			c0,1.7-1.4,3.1-3.1,3.1S13,15.3,13,13.6s1.4-3.1,3.1-3.1s3.1,1.4,3.1,3V13.6z"/>
	</g>
</g>
<path class="st0" d="M33.8,25.7h-1.9c-0.1-0.8-0.4-1.5-0.8-2.1l1.3-1.3c0.3-0.4,0.3-0.9,0-1.2c-0.4-0.3-0.9-0.3-1.2,0l-1.3,1.3
	c-0.6-0.4-1.3-0.7-2.1-0.8v-1.9c0-0.4-0.4-0.8-0.8-0.8s-0.8,0.3-0.8,0.8v1.9c-0.8,0.1-1.5,0.4-2.1,0.8l-1.3-1.3
	c-0.4-0.3-0.9-0.3-1.2,0c-0.3,0.4-0.3,0.9,0,1.2l1.3,1.3c-0.4,0.6-0.7,1.3-0.8,2.1h-1.9c-0.4,0-0.8,0.4-0.8,0.8s0.3,0.8,0.8,0.8h1.9
	c0.1,0.8,0.4,1.5,0.8,2.1l-1.3,1.3c-0.3,0.3-0.3,0.8,0,1.2c0.3,0.3,0.8,0.3,1.2,0l1.3-1.3c0.6,0.4,1.3,0.7,2.1,0.8v1.9
	c0,0.5,0.4,0.8,0.8,0.8s0.8-0.4,0.8-0.8v-1.9c0.8-0.1,1.5-0.4,2.1-0.8l1.3,1.3c0.3,0.3,0.8,0.3,1.2,0c0.3-0.3,0.3-0.8,0-1.2
	l-1.3-1.3c0.4-0.6,0.7-1.3,0.8-2.1h1.9c0.5,0,0.8-0.4,0.8-0.8S34.2,25.7,33.8,25.7z M23.5,26.6c0-1.9,1.6-3.5,3.5-3.5
	s3.5,1.5,3.5,3.5c0,1.9-1.6,3.5-3.5,3.5S23.5,28.5,23.5,26.6z"/>
</svg>
