<?xml version="1.0" encoding="utf-8"?>
<!-- Generator: Adobe Illustrator 24.0.2, SVG Export Plug-In . SVG Version: 6.00 Build 0)  -->
<svg version="1.1" id="Layer_1" xmlns="http://www.w3.org/2000/svg" xmlns:xlink="http://www.w3.org/1999/xlink" x="0px" y="0px"
	 width="54px" height="54px" viewBox="0 0 54 54" style="enable-background:new 0 0 54 54;" xml:space="preserve">
<style type="text/css">
	.st0{fill:none;}
	.st1{fill:#00AF00;}
	.st2{fill:#95A6B1;}
</style>
<title>icon-indicadores</title>
<rect class="st0" width="54" height="54"/>
<g id="Grupo_6491_2_">
	<g id="Trazado_5545_2_">
		<path class="st1" d="M15.8,9.1c-2.5,0-4.6,2.1-4.6,4.6s2,4.6,4.6,4.6c2.5,0,4.6-2.1,4.6-4.5v-0.1C20.4,11.1,18.3,9.1,15.8,9.1z
			 M18.9,13.7c0,1.7-1.4,3.1-3.1,3.1s-3.1-1.4-3.1-3.1s1.4-3.1,3.1-3.1s3.1,1.4,3.1,3V13.7z"/>
	</g>
</g>
<g>
	<path class="st2" d="M39.5,10.9H23.8c-0.5,0-0.8,0.3-0.8,0.8s0.4,0.8,0.8,0.8h15v31.6H19.5c-2.8,0-5-2.2-5-5V21.8
		c0-0.5-0.3-0.8-0.8-0.8s-0.8,0.4-0.8,0.8v17.3c0,3.6,2.9,6.5,6.5,6.5h9.1h11c0.5,0,0.8-0.4,0.8-0.8V11.7
		C40.2,11.2,39.9,10.9,39.5,10.9z"/>
	<path class="st2" d="M18.6,32.4h16c0.4,0,0.8-0.3,0.8-0.8s-0.4-0.8-0.8-0.8h-16c-0.5,0-0.8,0.3-0.8,0.8S18.2,32.4,18.6,32.4z"/>
	<path class="st2" d="M18.6,36.5h16c0.4,0,0.8-0.3,0.8-0.8s-0.4-0.8-0.8-0.8h-16c-0.5,0-0.8,0.3-0.8,0.8S18.2,36.5,18.6,36.5z"/>
	<path class="st2" d="M18.6,40.5h10c0.4,0,0.8-0.3,0.8-0.8s-0.4-0.8-0.8-0.8h-10c-0.5,0-0.8,0.3-0.8,0.8S18.2,40.5,18.6,40.5z"/>
	<path class="st2" d="M26.6,27.5c3,0,5.5-2.4,5.4-5.4c0-1-0.3-1.9-0.7-2.7l1.7-1.9c0.3-0.3,0.2-0.7-0.1-1c-0.3-0.3-0.7-0.2-1,0.1
		l-1.5,1.7c-1-1-2.3-1.6-3.8-1.6c-3,0-5.4,2.4-5.4,5.4S23.6,27.5,26.6,27.5z M26.6,18.2c1.1,0,2.1,0.4,2.8,1.2l-2.5,2.8l-1.1-1.5
		c-0.3-0.3-0.7-0.4-1-0.2s-0.4,0.6-0.2,1l1.7,2.3c0.2,0.2,0.4,0.3,0.6,0.3c0.2,0,0.4-0.1,0.5-0.3l2.8-3.2c0.2,0.5,0.3,1,0.2,1.5
		c0,2.1-1.8,3.9-3.9,3.9c-2.1,0-3.9-1.8-3.9-3.9C22.7,20,24.4,18.2,26.6,18.2z"/>
</g>
</svg>
