<svg id="cerrar" xmlns="http://www.w3.org/2000/svg" width="54" height="54" viewBox="0 0 54 54">
  <g id="Grupo_6491" opacity="0.9">
    <g id="Trazado_5545">
      <path id="Trazado_9456" data-name="Trazado 9456" d="M12.4,26.8a5.8,5.8,0,1,1,0-11.6h0a5.635,5.635,0,0,1,5.7,5.7V21A5.718,5.718,0,0,1,12.4,26.8Zm0-9.6h0a3.9,3.9,0,0,0-3.9,3.9A3.821,3.821,0,0,0,12.3,25a3.9,3.9,0,0,0,3.9-3.9h0V21a3.569,3.569,0,0,0-3.8-3.8Z" fill="#00af00"/>
    </g>
  </g>
  <path id="Trazado_9457" data-name="Trazado 9457" d="M41.8,26.1A10.6,10.6,0,1,1,52.4,15.5h0A10.67,10.67,0,0,1,41.8,26.1Zm0-19.3a8.7,8.7,0,1,0,8.7,8.7h0A8.771,8.771,0,0,0,41.8,6.8Z" fill="#95a6b1"/>
  <path id="Trazado_9458" data-name="Trazado 9458" d="M41.8,44.7H2.6A1.146,1.146,0,0,1,1.3,44,.888.888,0,0,1,2,42.8a.638.638,0,0,1,.6,0H40.9V25.3a1.086,1.086,0,0,1,1.2-.7,1.208,1.208,0,0,1,.7.7V43.7A1.285,1.285,0,0,1,41.8,44.7Z" fill="#95a6b1"/>
  <path id="Trazado_9459" data-name="Trazado 9459" d="M41.8,37.1H2.6a1.086,1.086,0,0,1-.7-1.2,1.208,1.208,0,0,1,.7-.7H41.8a1.086,1.086,0,0,1,.7,1.2A1.208,1.208,0,0,1,41.8,37.1Z" fill="#95a6b1"/>
  <path id="Trazado_9460" data-name="Trazado 9460" d="M51,19.1H33.1a.888.888,0,0,1-1.2-.7.888.888,0,0,1,.7-1.2.637.637,0,0,1,.6,0H51a1.086,1.086,0,0,1,.7,1.2A.988.988,0,0,1,51,19.1Z" fill="#95a6b1"/>
  <path id="Trazado_9461" data-name="Trazado 9461" d="M41.8,19.1h-.2a.921.921,0,0,1-.7-1.1l1.9-8.2a1.01,1.01,0,0,1,1.9.4l-1.9,8.1A1.15,1.15,0,0,1,41.8,19.1Z" fill="#95a6b1"/>
  <path id="Trazado_9462" data-name="Trazado 9462" d="M6.6,48.5a.945.945,0,0,1-1-1V43.7A1.086,1.086,0,0,1,6.8,43a1.208,1.208,0,0,1,.7.7v3.8A1.063,1.063,0,0,1,6.6,48.5Z" fill="#95a6b1"/>
  <path id="Trazado_9463" data-name="Trazado 9463" d="M4.4,44.7a.945.945,0,0,1-1-1V36.6a.888.888,0,0,1,.7-1.2.888.888,0,0,1,1.2.7.637.637,0,0,1,0,.6v7.2C5.3,44.2,4.9,44.6,4.4,44.7Z" fill="#95a6b1"/>
  <path id="Trazado_9464" data-name="Trazado 9464" d="M39,48.5a.945.945,0,0,1-1-1V43.7a1.028,1.028,0,0,1,1.2-.7,1.208,1.208,0,0,1,.7.7v3.8A1.063,1.063,0,0,1,39,48.5Z" fill="#95a6b1"/>
  <path id="Trazado_9465" data-name="Trazado 9465" d="M35,36.7H5.3a1.234,1.234,0,0,1-.8-.4.972.972,0,0,1-.1-.9l3.5-7.5a.985.985,0,0,1,1.8.8L6.9,34.9H33.5L22.5,11a2.649,2.649,0,0,0-3.4-1.3A2.735,2.735,0,0,0,17.8,11l-1.1,2.4a.967.967,0,0,1-1.4,0,1.136,1.136,0,0,1-.3-.8l1.1-2.4A4.508,4.508,0,0,1,22,8a3.962,3.962,0,0,1,2.2,2.2L35.8,35.4a1.04,1.04,0,0,1-.6,1.3Z" fill="#95a6b1"/>
  <rect id="Rectángulo_3692" data-name="Rectángulo 3692" width="54" height="54" fill="none"/>
</svg>
