<svg xmlns="http://www.w3.org/2000/svg" width="109.181" height="113.937" viewBox="0 0 109.181 113.937">
  <g id="Grupo_19070" data-name="Grupo 19070" transform="translate(-10.361 -3.022)">
    <circle id="Elipse_2313" data-name="Elipse 2313" cx="1.9" cy="1.9" r="1.9" transform="translate(54.132 94.472)" fill="#fff"/>
    <circle id="Elipse_2314" data-name="Elipse 2314" cx="1.9" cy="1.9" r="1.9" transform="translate(51.291 87.126)" fill="#fff"/>
    <circle id="Elipse_2315" data-name="Elipse 2315" cx="1.9" cy="1.9" r="1.9" transform="translate(44.595 80.671)" fill="#fff"/>
    <path id="Trazado_19103" data-name="Trazado 19103" d="M19.25,13.366l1.34-1.759a1,1,0,0,1,.531-.359l7.951-2.211a.992.992,0,0,0,.351-.176L34.68,4.756a1,1,0,0,1,1.6.639l.262,1.739a1,1,0,0,0,.251.525L40.947,12.2a1,1,0,0,1,.22.389l1.77,5.939a1,1,0,0,1-.141.861l-7.91,11.262a.991.991,0,0,0-.165.393L32.293,44.124a1,1,0,0,0,.124.695l4.307,7.221a1,1,0,0,0,.859.487H53.566a1,1,0,0,0,.909-.582l2.678-5.821a1,1,0,0,1,1-.578l3.311.3a1,1,0,0,0,.956-.494l4.668-8.04a1.015,1.015,0,0,1,.211-.255l9-7.77a1,1,0,0,1,.4-.211l10.69-2.772a1,1,0,0,1,.893.2l8.84,7.389a1,1,0,0,1,.3.425L99.4,39.767a1,1,0,0,1-.133.931l-2.221,3.04a1,1,0,0,0-.18.43L96,49.5a1,1,0,0,0,.266.854L98.7,52.88a1,1,0,0,0,1.564-.157l1.771-2.783a1,1,0,0,1,1.33-.337l1.376.909a1,1,0,0,1,.4,1.331l-2.108,4.107a1,1,0,0,0-.109.522l-.007,7.222a1,1,0,0,0,.682.883l2.589.863a1,1,0,0,0,1.014-.233l9.139-8.91a1,1,0,0,1,1.7.716V64.6a1,1,0,0,1-.36.768l-15.3,12.751a1,1,0,0,0-.356.859l.467,5.134a1,1,0,0,1-.381.879l-5.073,3.96a1,1,0,0,0-.357.552l-1.134,4.663a1.008,1.008,0,0,0-.01.427l.746,3.856a1,1,0,0,1-.059.577l-2.7,6.425a1,1,0,0,1-.475.507l-3.63,1.816a1.007,1.007,0,0,1-.561.1l-5.574-.634a1.007,1.007,0,0,0-.619.131l-3.653,2.142a.988.988,0,0,0-.255.214l-4.577,5.378a1,1,0,0,1-1.643-.176l-3.331-6.219a1,1,0,0,0-.62-.493L63.7,106.894a1,1,0,0,0-1.252,1.1l.582,4.157a1,1,0,0,1-1.182,1.121l-4.052-.791a1,1,0,0,0-.663.1l-3.8,2.035a1,1,0,0,1-1.2-.194l-4.837-5.1a1,1,0,0,1-.275-.688v-9.2a1,1,0,0,0-.457-.841l-3.544-2.286a1,1,0,0,1-.443-.666l-.615-3.488a1,1,0,0,0-1.04-.825l-13.672.753a1,1,0,0,1-1.018-.73l-2.422-8.668a1.026,1.026,0,0,0-.118-.264l-5.843-9.273a1,1,0,0,1,.357-1.405l4.161-2.334a1,1,0,0,0,.468-1.16l-.651-2.172a1,1,0,0,1,.957-1.288h7.285a1,1,0,0,0,.926-.621l1.475-3.607a1,1,0,0,0-.2-1.065l-6.214-6.571a1.009,1.009,0,0,1-.175-.254L23,45.928a1,1,0,0,0-.7-.546l-4.621-.948a1,1,0,0,1-.617-.4L12.14,38.447a1,1,0,0,1,.14-1.309l2.74-2.529a1,1,0,0,0,.317-.64l.218-2.294a1,1,0,0,1,.2-.512l.8-1.431a1,1,0,0,0,.156-.917l-1.355-4.171a1,1,0,0,1,.657-1.265l1.683-.616c.485-.149.87.381,1.074.845l1.492,3.381a1,1,0,0,0,.915.6h.357a1,1,0,0,1,.995,1.1l-.247,2.47a1,1,0,0,1-.7.855l-.922.288a1,1,0,0,0-.7.955v.942a1,1,0,0,0,1,1l3.832-.042a1,1,0,0,0,.972-.769L26.932,29.5a1,1,0,0,0-.018-.529l-1.872-6.018a.9.9,0,0,1-.03-.124l-.892-5.1a1,1,0,0,0-.511-.708l-4.037-2.174A1,1,0,0,1,19.25,13.366Z" fill="none" stroke="#fff" stroke-linecap="round" stroke-linejoin="round" stroke-width="3"/>
  </g>
</svg>
