<svg xmlns="http://www.w3.org/2000/svg" width="169.764" height="48.566" viewBox="0 0 169.764 48.566">
  <g id="Grupo_19069" data-name="Grupo 19069" transform="translate(118.502 -0.217)">
    <g id="Grupo_10332" data-name="Grupo 10332">
      <circle id="Elipse_1636" data-name="Elipse 1636" cx="23.5" cy="23.5" r="23.5" transform="translate(-57.241 1)" fill="none" stroke="#fff" stroke-linecap="round" stroke-linejoin="round" stroke-width="1.566"/>
      <g id="Grupo_18779" data-name="Grupo 18779">
        <path id="Trazado_19082" data-name="Trazado 19082" d="M-43.746,20.069c-9.347,0-8.841,6.635-8.841,6.635,0,4.738,8.424,8.579,18.816,8.579s18.815-3.841,18.815-8.579c0,0,1.453-6.838-9.329-6.681" fill="none" stroke="#fff" stroke-linecap="round" stroke-linejoin="round" stroke-width="1.656"/>
        <path id="Trazado_19083" data-name="Trazado 19083" d="M-44.325,25.128l3.5-12.089a2.115,2.115,0,0,1,2.578-1.215l3.87,1.192a2.117,2.117,0,0,0,1.275-.01l3.657-1.186A2.116,2.116,0,0,1-26.9,12.894l4.479,12.234A26.148,26.148,0,0,1-44.325,25.128Z" fill="none" stroke="#fff" stroke-linecap="round" stroke-linejoin="round" stroke-width="1.656"/>
        <path id="Trazado_19084" data-name="Trazado 19084" d="M-43.387,21.884c1.859.911,5.64,1.536,10,1.536,4.222,0,7.9-.585,9.817-1.45" fill="none" stroke="#fff" stroke-linecap="round" stroke-linejoin="round" stroke-width="1.656"/>
      </g>
    </g>
    <g id="Grupo_10332-2" data-name="Grupo 10332" transform="translate(2.479)">
      <circle id="Elipse_1636-2" data-name="Elipse 1636" cx="23.5" cy="23.5" r="23.5" transform="translate(1 1)" fill="none" stroke="#fff" stroke-linecap="round" stroke-linejoin="round" stroke-width="1.566"/>
      <g id="Grupo_18784" data-name="Grupo 18784">
        <circle id="Elipse_2997" data-name="Elipse 2997" cx="2.928" cy="2.928" r="2.928" transform="translate(17.572 16.535)" fill="none" stroke="#fff" stroke-linecap="round" stroke-linejoin="round" stroke-width="1.656"/>
        <g id="Grupo_18780" data-name="Grupo 18780">
          <path id="Trazado_19085" data-name="Trazado 19085" d="M18.955,16.736a10.009,10.009,0,0,1-.64-3.715c0-2.9.978-5.253,2.185-5.253s2.185,2.352,2.185,5.253a10.179,10.179,0,0,1-.6,3.606" fill="none" stroke="#fff" stroke-linecap="round" stroke-linejoin="round" stroke-width="1.656"/>
          <path id="Trazado_19086" data-name="Trazado 19086" d="M22.045,22.264a10.009,10.009,0,0,1,.64,3.715c0,2.9-.978,5.252-2.185,5.252s-2.185-2.351-2.185-5.252a10.179,10.179,0,0,1,.6-3.606" fill="none" stroke="#fff" stroke-linecap="round" stroke-linejoin="round" stroke-width="1.656"/>
        </g>
        <g id="Grupo_18781" data-name="Grupo 18781">
          <path id="Trazado_19087" data-name="Trazado 19087" d="M23.264,17.955a10.009,10.009,0,0,1,3.715-.64c2.9,0,5.252.978,5.252,2.185s-2.351,2.185-5.252,2.185a10.179,10.179,0,0,1-3.606-.6" fill="none" stroke="#fff" stroke-linecap="round" stroke-linejoin="round" stroke-width="1.656"/>
          <path id="Trazado_19088" data-name="Trazado 19088" d="M17.736,21.045a10.009,10.009,0,0,1-3.715.64c-2.9,0-5.253-.978-5.253-2.185s2.352-2.185,5.253-2.185a10.179,10.179,0,0,1,3.606.6" fill="none" stroke="#fff" stroke-linecap="round" stroke-linejoin="round" stroke-width="1.656"/>
        </g>
        <g id="Grupo_18782" data-name="Grupo 18782">
          <path id="Trazado_19089" data-name="Trazado 19089" d="M22.684,14.317a12.445,12.445,0,0,1,.852-.943c2.052-2.051,4.406-3.023,5.259-2.169s-.118,3.207-2.169,5.259a12.146,12.146,0,0,1-1.043.932" fill="none" stroke="#fff" stroke-linecap="round" stroke-linejoin="round" stroke-width="1.656"/>
          <path id="Trazado_19090" data-name="Trazado 19090" d="M18.181,24.846c-.221.262-.461.524-.717.78-2.052,2.051-4.406,3.023-5.259,2.169s.118-3.207,2.169-5.259a12.473,12.473,0,0,1,.944-.853" fill="none" stroke="#fff" stroke-linecap="round" stroke-linejoin="round" stroke-width="1.656"/>
        </g>
        <g id="Grupo_18783" data-name="Grupo 18783">
          <path id="Trazado_19091" data-name="Trazado 19091" d="M15.154,17.181c-.262-.221-.524-.461-.78-.717-2.051-2.052-3.023-4.406-2.169-5.259s3.207.118,5.259,2.169c.247.247.478.5.692.75" fill="none" stroke="#fff" stroke-linecap="round" stroke-linejoin="round" stroke-width="1.656"/>
          <path id="Trazado_19092" data-name="Trazado 19092" d="M25.982,21.879c.139.127.508.521.644.657,2.051,2.052,3.023,4.406,2.169,5.259s-3.207-.118-5.259-2.169c-.241-.241-.466-.486-.676-.732" fill="none" stroke="#fff" stroke-linecap="round" stroke-linejoin="round" stroke-width="1.656"/>
        </g>
      </g>
    </g>
    <g id="Grupo_10332-3" data-name="Grupo 10332">
      <circle id="Elipse_1636-3" data-name="Elipse 1636" cx="23.5" cy="23.5" r="23.5" transform="translate(-117.718 1)" fill="none" stroke="#fff" stroke-linecap="round" stroke-linejoin="round" stroke-width="1.566"/>
      <g id="Grupo_18787" data-name="Grupo 18787">
        <path id="Rectángulo_5575" data-name="Rectángulo 5575" d="M0,0H21.637a0,0,0,0,1,0,0V10.93A7.537,7.537,0,0,1,14.1,18.467H7.537A7.537,7.537,0,0,1,0,10.93V0A0,0,0,0,1,0,0Z" transform="translate(-106.1 21.128)" fill="none" stroke="#fff" stroke-linecap="round" stroke-linejoin="round" stroke-width="1.656"/>
        <path id="Trazado_19093" data-name="Trazado 19093" d="M-84.463,23.69h3.154a1.849,1.849,0,0,1,1.849,1.849v1.894a4.835,4.835,0,0,1-4.835,4.834h-.168" fill="none" stroke="#fff" stroke-linecap="round" stroke-linejoin="round" stroke-width="1.656"/>
        <line id="Línea_3960" data-name="Línea 3960" x2="24.373" transform="translate(-107.121 39.596)" fill="none" stroke="#fff" stroke-linecap="round" stroke-linejoin="round" stroke-width="1.656"/>
        <g id="Grupo_18785" data-name="Grupo 18785">
          <path id="Trazado_19094" data-name="Trazado 19094" d="M-93.771,13.691c-.3-1.068.577-3.072,2.519-4.141C-88.853,8.229-89.66,5.4-89.66,5.4" fill="none" stroke="#fff" stroke-linecap="round" stroke-linejoin="round" stroke-width="1.656"/>
          <path id="Trazado_19095" data-name="Trazado 19095" d="M-89.522,18.159s-.235-2.865,1.888-4.317a5.29,5.29,0,0,0,2.028-3.76" fill="none" stroke="#fff" stroke-linecap="round" stroke-linejoin="round" stroke-width="1.656"/>
        </g>
        <g id="Grupo_18786" data-name="Grupo 18786">
          <path id="Trazado_19096" data-name="Trazado 19096" d="M-99.318,15.05c-.249,1.144.817,1.376.568,2.52s-1.315.913-1.564,2.059a1.907,1.907,0,0,0,.42,1.5" fill="none" stroke="#fff" stroke-linecap="round" stroke-linejoin="round" stroke-width="1.656"/>
          <path id="Trazado_19097" data-name="Trazado 19097" d="M-96.87,21.129a6.53,6.53,0,0,0,.195-.706c.55-2.531-.492-4.906-2.329-5.305s-3.772,1.328-4.322,3.859a6.138,6.138,0,0,0-.091,2.152" fill="none" stroke="#fff" stroke-linecap="round" stroke-linejoin="round" stroke-width="1.656"/>
        </g>
      </g>
    </g>
    <g id="Grupo_18788" data-name="Grupo 18788">
      <path id="Trazado_19098" data-name="Trazado 19098" d="M-97.122,24.661c.554,1.323-.679,1.839-.125,3.162s1.787.808,2.342,2.132-.678,1.841-.123,3.166,1.787.809,2.342,2.134" fill="none" stroke="#fff" stroke-linecap="round" stroke-linejoin="round" stroke-width="1.656"/>
      <path id="Trazado_19099" data-name="Trazado 19099" d="M-98.719,32.527a7.831,7.831,0,0,1-.393-.807c-1.225-2.925-.5-6.017,1.627-6.907s4.837.762,6.062,3.687.5,6.018-1.626,6.907c-1.919.8-4.322-.468-5.67-2.88" fill="none" stroke="#fff" stroke-linecap="round" stroke-linejoin="round" stroke-width="1.656"/>
    </g>
    <g id="Grupo_18789" data-name="Grupo 18789">
      <line id="Línea_3961" data-name="Línea 3961" y1="13.243" x2="7.887" transform="translate(25.092 30.265)" fill="none" stroke="#fff" stroke-linecap="round" stroke-linejoin="round" stroke-width="1.656"/>
      <path id="Trazado_19100" data-name="Trazado 19100" d="M32.979,30.265c-.06-.732-.081-1.471-.069-2.2.028-1.766.505-3.476,2.071-4.436a17.771,17.771,0,0,1,3.2-1.481c.028-.01-.005,3.335-.081,3.694a4.312,4.312,0,0,1-1.378,2.582A13.191,13.191,0,0,1,32.979,30.265Z" fill="none" stroke="#fff" stroke-linecap="round" stroke-linejoin="round" stroke-width="1.656"/>
      <path id="Trazado_19101" data-name="Trazado 19101" d="M30.444,35.938c.442-.586.919-1.151,1.417-1.691,1.2-1.3,2.693-2.255,4.5-1.926a17.721,17.721,0,0,1,3.373,1.028c.028.011-2.226,2.483-2.521,2.7a4.314,4.314,0,0,1-2.749,1.008A13.221,13.221,0,0,1,30.444,35.938Z" fill="none" stroke="#fff" stroke-linecap="round" stroke-linejoin="round" stroke-width="1.656"/>
    </g>
    <path id="Trazado_19102" data-name="Trazado 19102" d="M30.444,35.938s6.951-9.09-3.465-14.253" fill="none" stroke="#fff" stroke-linecap="round" stroke-linejoin="round" stroke-width="1.656"/>
  </g>
</svg>
