<svg xmlns="http://www.w3.org/2000/svg" width="65" height="65" viewBox="0 0 65 65">
  <g id="Grupo_19547" data-name="Grupo 19547" transform="translate(-245 -3021)">
    <g id="Grupo_18389" data-name="Grupo 18389" transform="translate(245 3021)">
      <rect id="Rectángulo_3799-2" data-name="Rectángulo 3799-2" width="65" height="65" fill="none"/>
      <g id="Grupo_18388" data-name="Grupo 18388">
        <path id="Trazado_11848" data-name="Trazado 11848" d="M23.85,25.847a4.183,4.183,0,1,1-4.183-4.183h0a4.168,4.168,0,0,1,4.183,4.151Z" fill="none" stroke="#19a500" stroke-linecap="round" stroke-linejoin="round" stroke-width="1.6"/>
        <path id="Trazado_18906" data-name="Trazado 18906" d="M19.439,19.294l.7-1.761a1,1,0,0,0-.208-1.065L16.981,13.4a1,1,0,0,0-.354-.237l-1.076-.423a1,1,0,0,1-.635-.93v-.546a1,1,0,0,1,.641-.933l1.136-.437V8.949a1,1,0,0,0-.089-.414L16.223,7.7a1,1,0,0,1,.046-.915l.945-1.63a1,1,0,0,1,1.679-.08l.621.87a1,1,0,0,1,.186.581v1.26a1,1,0,0,0,.363.77l1.063.88a1,1,0,0,0,1.168.078l.879-.549a1,1,0,0,1,1.258.163l2.433,2.588a1,1,0,0,0,.527.294L35.8,13.741a1,1,0,0,1,.423.2L38.542,15.8a1,1,0,0,0,1.174.055l1.219-.8a1,1,0,0,1,1.121.015l.958.668a1,1,0,0,1,.3,1.307l-1.687,3.026a1,1,0,0,0-.093.743l.478,1.808a1,1,0,0,1,.034.255v1.51a1,1,0,0,0,.461.842L47.1,28.162a1.018,1.018,0,0,1,.138.107l2.523,2.321a1,1,0,0,1-.027,1.5L45.63,35.6a1.01,1.01,0,0,0-.315.5l-.458,1.68a1,1,0,0,1-.289.474l-2.63,2.411a1,1,0,0,0-.3.976l.8,3.234a1.092,1.092,0,0,0,.056.167l1.272,2.872a1,1,0,0,1-.78,1.4l-1.352.184A1,1,0,0,1,41,49.363l-.953-.545a1,1,0,0,0-.4-.127L36.5,48.4a.992.992,0,0,0-.5.084l-.266.119a1,1,0,0,1-1.3-.448l-.964-1.844a.993.993,0,0,0-.514-.465l-.413-.165a1,1,0,0,1-.629-.9l-.044-1.63a1.012,1.012,0,0,1,.1-.459l.111-.23a1,1,0,0,0-.417-1.307l-1.306-.724a1,1,0,0,1-.462-.552l-.582-1.708a1,1,0,0,0-1.256-.628l-1.5.488a1,1,0,0,0-.65.669l-.465,1.581a1,1,0,0,1-.242.414L23.443,42.5a1,1,0,0,1-.944.277l-.691-.161a1,1,0,0,0-1,.338l-.972,1.181L18.7,32.472" fill="none" stroke="#95a6b1" stroke-linecap="round" stroke-linejoin="round" stroke-width="1.6"/>
      </g>
    </g>
    <g id="Grupo_18392" data-name="Grupo 18392" transform="translate(245 3021)">
      <g id="Grupo_18391" data-name="Grupo 18391">
        <rect id="Rectángulo_5521" data-name="Rectángulo 5521" width="65" height="16.741" transform="translate(0 48.259)" fill="none"/>
        <g id="Grupo_18390" data-name="Grupo 18390">
          <line id="Línea_3824" data-name="Línea 3824" x2="7.167" transform="translate(38.214 60.119)" fill="none" stroke="#4da12e" stroke-linecap="round" stroke-linejoin="round" stroke-width="2.4"/>
          <line id="Línea_3825" data-name="Línea 3825" x2="0.581" transform="translate(52.528 60.119)" fill="none" stroke="#4da12e" stroke-linecap="round" stroke-linejoin="round" stroke-width="2.4"/>
          <line id="Línea_3826" data-name="Línea 3826" x2="7.101" transform="translate(11.891 60.119)" fill="none" stroke="#4da12e" stroke-linecap="round" stroke-linejoin="round" stroke-width="2.4"/>
          <line id="Línea_3827" data-name="Línea 3827" x2="12.517" transform="translate(18.529 60.119)" fill="none" stroke="#96d200" stroke-linecap="round" stroke-linejoin="round" stroke-width="2.4"/>
          <line id="Línea_3828" data-name="Línea 3828" x2="23.582" transform="translate(11.891 54.012)" fill="none" stroke="#96d200" stroke-linecap="round" stroke-linejoin="round" stroke-width="2.4"/>
          <line id="Línea_3829" data-name="Línea 3829" x2="18.363" transform="translate(34.746 54.012)" fill="none" stroke="#4da12e" stroke-linecap="round" stroke-linejoin="round" stroke-width="2.4"/>
          <line id="Línea_3830" data-name="Línea 3830" x2="0.429" transform="translate(11.891 54.012)" fill="none" stroke="#4da12e" stroke-linecap="round" stroke-linejoin="round" stroke-width="2.4"/>
        </g>
      </g>
    </g>
  </g>
</svg>
