<svg id="Layer_1" data-name="Layer 1" xmlns="http://www.w3.org/2000/svg" viewBox="0 0 31 31"><defs><style>.cls-1{fill:#012969;}.cls-2{fill:#fff;}</style></defs><title>altura</title><g id="Rectangle_4825" data-name="Rectangle 4825"><path class="cls-1" d="M15.5,1h0A14.5,14.5,0,0,1,30,15.5h0A14.5,14.5,0,0,1,15.5,30h0A14.5,14.5,0,0,1,1,15.5H1A14.5,14.5,0,0,1,15.5,1Z"/><path class="cls-1" d="M15.5,30.8A15.3,15.3,0,1,1,30.8,15.5,15.4,15.4,0,0,1,15.5,30.8Zm0-29A13.7,13.7,0,1,0,29.2,15.5,13.7,13.7,0,0,0,15.5,1.8Z"/></g><g id="Group_13847" data-name="Group 13847"><g id="Path_12049" data-name="Path 12049"><path class="cls-2" d="M23.5,23.6H6.5a.5.5,0,0,1-.5-.3.7.7,0,0,1-.1-.5L14.5,6.2a.6.6,0,0,1,1,0l8.6,16.6a.7.7,0,0,1-.1.5A.5.5,0,0,1,23.5,23.6ZM7.4,22.5H22.6L15,7.8Z"/></g><g id="Line_2483" data-name="Line 2483"><path class="cls-2" d="M24,14.2H22.9V13.1H24Zm-2.3,0H20.5V13.1h1.2Zm-2.3,0H18.2V13.1h1.2Zm-2.4,0H15.8V13.1H17Zm-2.3,0H13.5V13.1h1.2Zm-2.4,0H11.2V13.1h1.1Zm-2.3,0H8.8V13.1H10Zm-2.4,0H6.5V13.1H7.6Z"/></g></g></svg>