<svg id="Layer_1" data-name="Layer 1" xmlns="http://www.w3.org/2000/svg" viewBox="0 0 31 31"><defs><style>.cls-1{fill:#00ff4b;}.cls-2{fill:#00009e;}</style></defs><title>ecologico</title><rect class="cls-1" x="1" y="1" width="29" height="29" rx="14.5"/><path class="cls-2" d="M15.5,24.1a.7.7,0,0,1-.7-.7V19.2a.7.7,0,0,1,1.4,0v4.2A.7.7,0,0,1,15.5,24.1Z"/><path class="cls-2" d="M20.6,19.9H10.4a.6.6,0,0,1-.6-.3.6.6,0,0,1-.1-.7L14.9,7.3a.7.7,0,0,1,1.2,0l5.2,11.6a.6.6,0,0,1-.1.7A.6.6,0,0,1,20.6,19.9Zm-9.2-1.4h8.2L15.5,9.3Z"/></svg>