<svg id="Layer_1" data-name="Layer 1" xmlns="http://www.w3.org/2000/svg" viewBox="0 0 31 31"><defs><style>.cls-1{fill:#ffff10;}.cls-2{fill:#00009e;}</style></defs><title>estaciones</title><rect class="cls-1" x="1" y="1" width="29" height="29" rx="14.5"/><g id="Group_13222" data-name="Group 13222"><g id="Path_11404" data-name="Path 11404"><path class="cls-2" d="M10.3,13.7h0a3.7,3.7,0,0,1-3.7-3.6,3.7,3.7,0,0,1,6.3-2.6A3.8,3.8,0,0,1,14,10h0A3.7,3.7,0,0,1,10.3,13.7Zm0-5.9h0a2.3,2.3,0,1,0,0,4.5h0a2.3,2.3,0,0,0,2.3-2.2h0A2.4,2.4,0,0,0,10.3,7.8Zm3,2.3Z"/></g><g id="Path_11405" data-name="Path 11405"><path class="cls-2" d="M21.3,10.6c-.2,0-.4,0-.5-.2A7.8,7.8,0,0,0,16,8.3c-.4-.1-.7-.4-.6-.8a.6.6,0,0,1,.7-.6,8.6,8.6,0,0,1,5.7,2.5.7.7,0,0,1,0,1C21.7,10.6,21.5,10.6,21.3,10.6Z"/></g><g id="Path_11406" data-name="Path 11406"><path class="cls-2" d="M9.7,22.2,9.2,22a9.2,9.2,0,0,1-2.6-6.1.7.7,0,0,1,.7-.7.6.6,0,0,1,.7.6A7.7,7.7,0,0,0,10.2,21a.7.7,0,0,1,0,1Z"/></g><g id="Path_11407" data-name="Path 11407"><path class="cls-2" d="M15.5,24.6A8.8,8.8,0,0,1,9.2,22a.9.9,0,0,1,0-1,.7.7,0,0,1,1,0A7.5,7.5,0,1,0,20.8,10.4a.7.7,0,0,1,0-1,.9.9,0,0,1,1,0,8.9,8.9,0,0,1,2.6,6.3,8.9,8.9,0,0,1-8.9,8.9Z"/></g></g></svg>