<?xml version="1.0" encoding="utf-8"?>
<!-- Generator: Adobe Illustrator 24.0.2, SVG Export Plug-In . SVG Version: 6.00 Build 0)  -->
<svg version="1.1" id="Layer_1" xmlns="http://www.w3.org/2000/svg" xmlns:xlink="http://www.w3.org/1999/xlink" x="0px" y="0px"
	 viewBox="0 0 31 31" style="enable-background:new 0 0 31 31;" xml:space="preserve">
<style type="text/css">
	.st0{fill:#FFFF10;}
	.st1{fill:#00009E;}
</style>
<title>estaciones</title>
<path class="st0" d="M15.5,1L15.5,1C23.5,1,30,7.5,30,15.5l0,0c0,8-6.5,14.5-14.5,14.5l0,0C7.5,30,1,23.5,1,15.5l0,0
	C1,7.5,7.5,1,15.5,1z"/>
<g>
	<path class="st1" d="M21.8,9.4L21.8,9.4c-1.5-1.5-3.5-2.4-5.7-2.6c-0.4,0-0.7,0.3-0.7,0.7c0,0.4,0.3,0.7,0.7,0.7
		c1.8,0.1,3.5,0.9,4.8,2.2l0,0c1.4,1.4,2.2,3.3,2.2,5.3s-0.8,3.9-2.2,5.3c-2.9,2.9-7.7,2.9-10.6,0l0,0l0,0c-1.4-1.4-2.2-3.2-2.2-5.2
		c0-0.4-0.3-0.7-0.7-0.7l0,0c-0.4,0-0.7,0.3-0.7,0.7c0,2.3,1,4.5,2.6,6.1l0,0c1.7,1.7,4,2.6,6.3,2.6s4.6-0.9,6.3-2.6
		s2.6-3.9,2.6-6.3C24.4,13.4,23.5,11.1,21.8,9.4z"/>
</g>
<path class="st1" d="M10.3,6.3C8.2,6.3,6.6,8,6.6,10c0,2.1,1.7,3.7,3.7,3.7c1,0,1.9-0.4,2.6-1.1C13.6,11.9,14,11,14,10
	C14,7.9,12.3,6.3,10.3,6.3z M10.3,12.5c-1.4,0-2.5-1.1-2.5-2.5s1.1-2.5,2.5-2.5s2.5,1.1,2.5,2.5S11.7,12.5,10.3,12.5z"/>
</svg>
