<svg id="Layer_1" data-name="Layer 1" xmlns="http://www.w3.org/2000/svg" viewBox="0 0 31 31"><defs><style>.cls-1{fill:#ff9700;}.cls-2{fill:#00009e;}</style></defs><title>municipios</title><rect class="cls-1" x="1" y="1" width="29" height="29" rx="14.5"/><g id="Path_11413" data-name="Path 11413"><path class="cls-2" d="M15.5,24.4h0l-.6-.3c-.5-.9-5.6-8.1-5.6-11.3h0a6.2,6.2,0,0,1,6.1-6.2,6,6,0,0,1,4.4,1.8,6.1,6.1,0,0,1,1.9,4.4c0,3.2-5.1,10.4-5.6,11.3ZM10.7,12.8c0,2.1,3.1,7,4.8,9.6,1.7-2.6,4.8-7.6,4.8-9.6a4.8,4.8,0,0,0-1.4-3.4A5.2,5.2,0,0,0,15.4,8a4.8,4.8,0,0,0-4.7,4.8Z"/></g><path class="cls-2" d="M15.5,14a.7.7,0,0,1-.7-.7v-.8a.7.7,0,0,1,1.4,0v.8A.7.7,0,0,1,15.5,14Z"/></svg>