<?xml version="1.0" encoding="utf-8"?>
<!-- Generator: Adobe Illustrator 24.0.2, SVG Export Plug-In . SVG Version: 6.00 Build 0)  -->
<svg version="1.1" id="Layer_1" xmlns="http://www.w3.org/2000/svg" xmlns:xlink="http://www.w3.org/1999/xlink" x="0px" y="0px"
	 viewBox="0 0 31 31" style="enable-background:new 0 0 31 31;" xml:space="preserve">
<style type="text/css">
	.st0{fill:#FF9700;}
	.st1{fill:#00009E;}
</style>
<title>municipios</title>
<path class="st0" d="M15.5,1L15.5,1C23.5,1,30,7.5,30,15.5l0,0c0,8-6.5,14.5-14.5,14.5l0,0C7.5,30,1,23.5,1,15.5l0,0
	C1,7.5,7.5,1,15.5,1z"/>
<g id="Path_11413">
	<path class="st1" d="M15.5,24.1c-0.4,0-0.7-0.2-0.9-0.5c-1.2-1.9-5.3-7.9-5.3-10.8l0,0c0-3.4,2.7-6.1,6.1-6.2
		c1.7,0,3.2,0.6,4.4,1.8c1.2,1.1,1.9,2.7,1.9,4.4c0,2.9-4.1,8.9-5.3,10.8C16.2,23.9,15.9,24.1,15.5,24.1L15.5,24.1z M10.7,12.8
		c0,2.1,3.1,7,4.8,9.6c1.7-2.6,4.8-7.6,4.8-9.6c0-1.3-0.5-2.5-1.4-3.4c-1-0.9-2.2-1.4-3.5-1.4C12.8,8.1,10.7,10.2,10.7,12.8z"/>
</g>
<path class="st1" d="M15.5,14c-0.4,0-0.7-0.3-0.7-0.7v-0.8c0-0.4,0.3-0.7,0.7-0.7c0.4,0,0.7,0.3,0.7,0.7v0.8
	C16.2,13.7,15.9,14,15.5,14C15.5,14,15.5,14,15.5,14z"/>
</svg>
