<svg id="Layer_1" data-name="Layer 1" xmlns="http://www.w3.org/2000/svg" viewBox="0 0 31 31"><defs><style>.cls-1{fill:#012969;}.cls-2{fill:#fff;}</style></defs><title>segmentos</title><g id="Rectangle_4800" data-name="Rectangle 4800"><path class="cls-1" d="M15.5,1h0A14.5,14.5,0,0,1,30,15.5h0A14.5,14.5,0,0,1,15.5,30h0A14.5,14.5,0,0,1,1,15.5H1A14.5,14.5,0,0,1,15.5,1Z"/><path class="cls-1" d="M15.5,30.8A15.3,15.3,0,1,1,30.8,15.5,15.4,15.4,0,0,1,15.5,30.8Zm0-29A13.7,13.7,0,1,0,29.2,15.5,13.7,13.7,0,0,0,15.5,1.8Z"/></g><g id="Group_13845" data-name="Group 13845"><g id="Path_11918" data-name="Path 11918"><path class="cls-2" d="M22.6,22.4H21.5V21.2h1.1Zm-2.3,0H19.1V21.2h1.2Zm-2.3,0H16.8V21.2H18Zm-2.4,0H14.4V21.2h1.2Zm-2.4-.1a1.9,1.9,0,0,1-1.3-.5l.7-.9.8.3Zm-2.3-1.6a5.1,5.1,0,0,1-.2-1.3v-.2h1.1a2.4,2.4,0,0,0,.2.8Zm1-2.6H10.7V16.9h1.2ZM12,16l-1.1-.4a2,2,0,0,1,.8-1.2l.8.9A1.2,1.2,0,0,0,12,16Zm1.2-1.1L13,13.7h1.3v1.1H13.2Zm2.5-.6-.7-.9.6-.7,1,.5A3.1,3.1,0,0,1,15.7,14.3Zm0-2.5h0v-.2a1.3,1.3,0,0,0-.1-.6l1.2-.3a2.8,2.8,0,0,1,.1.9v.3H15.7Zm-.5-1.7-.8-.4.3-1.1a3.1,3.1,0,0,1,1.3.6Zm-1.8-.4H12.2V8.5h1.2ZM11,9.7H9.9V8.5H11Zm-2.3,0H7.5V8.5H8.7Z"/></g><g id="Ellipse_2304" data-name="Ellipse 2304"><circle class="cls-2" cx="7.4" cy="9.2" r="1.4"/></g><g id="Ellipse_2305" data-name="Ellipse 2305"><circle class="cls-2" cx="23.4" cy="21.8" r="1.4"/></g></g></svg>