<svg id="Layer_1" data-name="Layer 1" xmlns="http://www.w3.org/2000/svg" viewBox="0 0 31 31"><defs><style>.cls-1{fill:#8aa6ff;}.cls-2{fill:#00009e;}</style></defs><title>social</title><rect class="cls-1" x="1" y="1" width="29" height="29" rx="14.5"/><g id="Path_348" data-name="Path 348"><path class="cls-2" d="M22.9,24.1H8.1a.5.5,0,0,1-.5-.3c-.2-.1-.2-.3-.2-.5L8,19.4a3.5,3.5,0,0,1,2.8-3l4.6-1h.3l4.6,1a3.6,3.6,0,0,1,2.8,3l.5,3.9c0,.2,0,.4-.2.5A.5.5,0,0,1,22.9,24.1Zm-14-1.5H22.1l-.4-3.1A2.1,2.1,0,0,0,20,17.8l-4.5-1-4.4.9a2.2,2.2,0,0,0-1.7,1.9Z"/></g><g id="Path_349" data-name="Path 349"><path class="cls-2" d="M15.6,16h-.1A3.5,3.5,0,0,1,12,12.5h0v-2A3.3,3.3,0,0,1,13.1,8a3.3,3.3,0,0,1,2.5-1.1h0A3.6,3.6,0,0,1,18.1,8a3.5,3.5,0,0,1,1,2.5v2A3.5,3.5,0,0,1,15.6,16Zm-2.2-3.5a2.1,2.1,0,0,0,2.1,2.1h.1a2.1,2.1,0,0,0,2.1-2.1v-2A2,2,0,0,0,17.1,9a2.1,2.1,0,0,0-1.5-.7h0a2.5,2.5,0,0,0-1.6.6,2.5,2.5,0,0,0-.6,1.6Z"/></g></svg>