<svg id="Capa_1" data-name="Capa 1" xmlns="http://www.w3.org/2000/svg" viewBox="0 0 65 65"><defs><style>.cls-1{fill:none;}.cls-2{fill:#19a500;}.cls-3{fill:#95a6b1;}.cls-4{fill:#97a5af;}.cls-5{fill:#4da12e;}.cls-6{fill:#96d200;}</style></defs><title>1tanque_grandes</title><g id="Grupo_13216" data-name="Grupo 13216"><g id="Rectángulo_3799" data-name="Rectángulo 3799"><rect class="cls-1" width="65" height="65"/></g></g><g id="Rectángulo_3799-2" data-name="Rectángulo 3799-2"><rect class="cls-1" width="65" height="65"/></g><g id="Grupo_14726" data-name="Grupo 14726"><g id="Grupo_14725" data-name="Grupo 14725"><g id="Trazado_11848" data-name="Trazado 11848"><path class="cls-2" d="M12.1,12.5a5,5,0,0,1-5-5,5,5,0,0,1,5-4.9h.1a4.9,4.9,0,0,1,4.9,4.9h0A5,5,0,0,1,12.1,12.5Zm0-8.3h0A3.4,3.4,0,0,0,8.7,7.5a3.4,3.4,0,0,0,3.4,3.4,3.4,3.4,0,0,0,3.4-3.4h0a3.3,3.3,0,0,0-1-2.4A3.4,3.4,0,0,0,12.1,4.2Z"/></g><g id="Grupo_14723" data-name="Grupo 14723"><g id="Trazado_11852" data-name="Trazado 11852"><path class="cls-3" d="M53.1,48.4H11.9a.8.8,0,0,1-.8-.8V15.7a.8.8,0,0,1,.8-.8.7.7,0,0,1,.8.8V46.8H52.3V7.9H20.1a.9.9,0,0,1-.8-.8.9.9,0,0,1,.8-.8h33a.9.9,0,0,1,.8.8V47.6A.8.8,0,0,1,53.1,48.4Z"/></g><g id="Línea_2421" data-name="Línea 2421"><path class="cls-3" d="M53.1,12.3a.8.8,0,0,1-.8-.8V7.1a.8.8,0,0,1,.8-.8.9.9,0,0,1,.8.8v4.4A.9.9,0,0,1,53.1,12.3Z"/></g><g id="Línea_2422" data-name="Línea 2422"><path class="cls-3" d="M23.2,12.3a.8.8,0,0,1-.8-.8V7.1a.8.8,0,0,1,.8-.8.9.9,0,0,1,.8.8v4.4A.9.9,0,0,1,23.2,12.3Z"/></g><g id="Línea_2423" data-name="Línea 2423"><path class="cls-3" d="M31.5,12.3a.8.8,0,0,1-.8-.8V7.1a.8.8,0,0,1,.8-.8.9.9,0,0,1,.8.8v4.4A.9.9,0,0,1,31.5,12.3Z"/></g><g id="Línea_2424" data-name="Línea 2424"><path class="cls-3" d="M43.9,12.3a.8.8,0,0,1-.8-.8V7.1a.8.8,0,0,1,.8-.8.9.9,0,0,1,.8.8v4.4A.9.9,0,0,1,43.9,12.3Z"/></g><g id="Línea_2425" data-name="Línea 2425"><path class="cls-3" d="M56.6,12.4H20.1a.9.9,0,0,1-.8-.8.8.8,0,0,1,.8-.8H56.6a.7.7,0,0,1,.8.8A.8.8,0,0,1,56.6,12.4Z"/></g><g id="Grupo_14722" data-name="Grupo 14722"><g id="Línea_2730" data-name="Línea 2730"><path class="cls-3" d="M34.8,48.4a.9.9,0,0,1-.8-.8V30.4a.8.8,0,0,1,.8-.8.7.7,0,0,1,.8.8V47.6A.8.8,0,0,1,34.8,48.4Z"/></g><g id="Línea_2731" data-name="Línea 2731"><path class="cls-3" d="M43.9,48.4a.9.9,0,0,1-.8-.8V30.4a.8.8,0,0,1,.8-.8.7.7,0,0,1,.8.8V47.6A.8.8,0,0,1,43.9,48.4Z"/></g><g id="Grupo_14719" data-name="Grupo 14719"><g id="Línea_2732" data-name="Línea 2732"><path class="cls-3" d="M34.8,39.6h-.3l-22.9-10a.7.7,0,0,1-.4-1,.8.8,0,0,1,1-.5L35.1,38.1a.7.7,0,0,1,.4,1A.8.8,0,0,1,34.8,39.6Z"/></g></g><g id="Grupo_14720" data-name="Grupo 14720"><g id="Línea_2733" data-name="Línea 2733"><path class="cls-3" d="M34.8,31.2h-.3l-22.9-10a.8.8,0,0,1-.4-1.1.7.7,0,0,1,1-.4l22.9,10a.8.8,0,0,1,.4,1.1A.8.8,0,0,1,34.8,31.2Z"/></g></g><g id="Grupo_14721" data-name="Grupo 14721"><g id="Línea_2734" data-name="Línea 2734"><path class="cls-3" d="M43.9,38.9H34.8a.9.9,0,0,1-.8-.8.8.8,0,0,1,.8-.8h9.1a.8.8,0,0,1,.8.8A.9.9,0,0,1,43.9,38.9Z"/></g><g id="Línea_2735" data-name="Línea 2735"><path class="cls-3" d="M43.9,43.7H34.8a.8.8,0,0,1-.8-.8.9.9,0,0,1,.8-.8h9.1a.9.9,0,0,1,.8.8A.8.8,0,0,1,43.9,43.7Z"/></g><g id="Línea_2736" data-name="Línea 2736"><path class="cls-3" d="M43.9,48.4H34.8a.8.8,0,0,1-.8-.8.9.9,0,0,1,.8-.8h9.1a.9.9,0,0,1,.8.8A.8.8,0,0,1,43.9,48.4Z"/></g></g><g id="Línea_2737" data-name="Línea 2737"><path class="cls-3" d="M16.2,31.5a.8.8,0,0,1-.8-.8V22.3a.8.8,0,0,1,.8-.8.9.9,0,0,1,.8.8v8.4A.9.9,0,0,1,16.2,31.5Z"/></g><g id="Línea_2738" data-name="Línea 2738"><path class="cls-3" d="M21,33.5a.8.8,0,0,1-.8-.8V24.3a.8.8,0,0,1,.8-.8.9.9,0,0,1,.8.8v8.4A.9.9,0,0,1,21,33.5Z"/></g><g id="Línea_2739" data-name="Línea 2739"><path class="cls-3" d="M25.8,35.7a.8.8,0,0,1-.8-.8V26.6a.7.7,0,0,1,.8-.8.8.8,0,0,1,.8.8v8.3A.9.9,0,0,1,25.8,35.7Z"/></g><g id="Línea_2740" data-name="Línea 2740"><path class="cls-3" d="M30.5,37.6a.9.9,0,0,1-.8-.8V28.5a.8.8,0,0,1,.8-.8.7.7,0,0,1,.8.8v8.3A.8.8,0,0,1,30.5,37.6Z"/></g></g></g><g id="Grupo_14724" data-name="Grupo 14724"><g id="Línea_2741" data-name="Línea 2741"><path class="cls-4" d="M52.2,18.5H42.9a.8.8,0,0,1-.8-.8.9.9,0,0,1,.8-.8h9.3a.8.8,0,0,1,.8.8A.7.7,0,0,1,52.2,18.5Z"/></g><g id="Línea_2742" data-name="Línea 2742"><path class="cls-4" d="M40,18.5H38.7a.8.8,0,0,1-.8-.8.9.9,0,0,1,.8-.8H40a.9.9,0,0,1,.8.8A.8.8,0,0,1,40,18.5Z"/></g></g></g><g id="Línea_2743" data-name="Línea 2743"><path class="cls-4" d="M57.4,48.4H7.6a.7.7,0,0,1-.8-.8.8.8,0,0,1,.8-.8H57.4a.8.8,0,0,1,.8.8A.7.7,0,0,1,57.4,48.4Z"/></g></g><rect class="cls-1" y="48.3" width="65" height="16.74"/><path class="cls-5" d="M45.4,61.3H38.2A1.2,1.2,0,0,1,37,60.1a1.3,1.3,0,0,1,1.2-1.2h7.2a1.3,1.3,0,0,1,1.2,1.2A1.2,1.2,0,0,1,45.4,61.3Z"/><path class="cls-5" d="M53.1,61.3h-.6a1.2,1.2,0,0,1-1.2-1.2,1.3,1.3,0,0,1,1.2-1.2h.6a1.2,1.2,0,0,1,1.2,1.2A1.2,1.2,0,0,1,53.1,61.3Z"/><path class="cls-5" d="M19,61.3H11.9a1.2,1.2,0,0,1-1.2-1.2,1.2,1.2,0,0,1,1.2-1.2H19a1.2,1.2,0,0,1,1.2,1.2A1.2,1.2,0,0,1,19,61.3Z"/><path class="cls-6" d="M31,61.3H18.5a1.2,1.2,0,0,1-1.2-1.2,1.3,1.3,0,0,1,1.2-1.2H31a1.2,1.2,0,0,1,1.2,1.2A1.2,1.2,0,0,1,31,61.3Z"/><path class="cls-6" d="M35.5,55.2H11.9a1.2,1.2,0,1,1,0-2.4H35.5a1.2,1.2,0,0,1,0,2.4Z"/><path class="cls-5" d="M53.1,55.2H34.7a1.2,1.2,0,0,1,0-2.4H53.1a1.2,1.2,0,0,1,0,2.4Z"/><path class="cls-5" d="M12.3,55.2h-.4a1.2,1.2,0,1,1,0-2.4h.4a1.2,1.2,0,0,1,0,2.4Z"/></svg>