<svg id="Capa_1" data-name="Capa 1" xmlns="http://www.w3.org/2000/svg" viewBox="0 0 64 64"><defs><style>.cls-1{fill:#19a500;}.cls-2{fill:#95a6b1;}.cls-3{fill:none;}</style></defs><title>2barril</title><path class="cls-1" d="M14.8,25.4a2.7,2.7,0,0,1-1.2-.3,3.5,3.5,0,0,1-2-1.8,3.6,3.6,0,0,1,1.7-4.7A3.6,3.6,0,0,1,18,20.4h0a3.1,3.1,0,0,1,.1,2.5A3.5,3.5,0,0,1,16.3,25,4.2,4.2,0,0,1,14.8,25.4Zm0-5.5a1.1,1.1,0,0,0-.8.2,1.9,1.9,0,0,0-1,2.5,2,2,0,0,0,2.6,1,1.9,1.9,0,0,0,1-1.2,1.4,1.4,0,0,0-.1-1.4h0A1.8,1.8,0,0,0,14.8,19.9Z"/><g id="Rectángulo_4585" data-name="Rectángulo 4585"><path class="cls-2" d="M25.6,20.7H21.3a1.2,1.2,0,0,1-1.2-1.2V17.7a1.3,1.3,0,0,1,1.2-1.2h4.3a1.2,1.2,0,0,1,1.2,1.2v1.8A1.2,1.2,0,0,1,25.6,20.7Zm-3.9-1.6h3.5v-1H21.7Zm3.9-1Z"/></g><g id="Trazado_11678" data-name="Trazado 11678"><path class="cls-2" d="M29.9,44H15.7a.8.8,0,0,1-.8-.8V38.8a1.6,1.6,0,0,1-1.5-1.6v-.4a1.5,1.5,0,0,1,1.5-1.6V31a1.5,1.5,0,0,1-1.5-1.6V29a1.5,1.5,0,0,1,1.5-1.6v-.9a.8.8,0,0,1,.8-.8.9.9,0,0,1,.8.8v1.7a.9.9,0,0,1-.8.8H15v.4h.7a.9.9,0,0,1,.8.8V36a.9.9,0,0,1-.8.8H15v.4h.7a.9.9,0,0,1,.8.8v4.4H29.1V38a.9.9,0,0,1,.8-.8h.7v-.4h-.7a.9.9,0,0,1-.8-.8V30.2a.9.9,0,0,1,.8-.8h.7V29h-.7a.9.9,0,0,1-.8-.8V23.4a.8.8,0,0,1,.8-.8.7.7,0,0,1,.8.8v4a1.2,1.2,0,0,1,1,.5,1.3,1.3,0,0,1,.5,1.1v.4A1.5,1.5,0,0,1,30.7,31v4.2a1.5,1.5,0,0,1,1.5,1.6v.4a1.6,1.6,0,0,1-1.5,1.6v4.4A.8.8,0,0,1,29.9,44Z"/></g><g id="Línea_2316" data-name="Línea 2316"><path class="cls-2" d="M27.2,29.8H18.4a.9.9,0,0,1-.8-.8.8.8,0,0,1,.8-.8h8.8a.8.8,0,0,1,.8.8A.9.9,0,0,1,27.2,29.8Z"/></g><g id="Línea_2317" data-name="Línea 2317"><path class="cls-2" d="M27.2,37.5H18.4a.8.8,0,0,1-.8-.8.9.9,0,0,1,.8-.8h8.8a.9.9,0,0,1,.8.8A.8.8,0,0,1,27.2,37.5Z"/></g><g id="Rectángulo_4586" data-name="Rectángulo 4586"><path class="cls-2" d="M30.8,47.5h-16A1.5,1.5,0,0,1,13.4,46V43.8a1.4,1.4,0,0,1,1.4-1.4h16a1.4,1.4,0,0,1,1.4,1.4V46A1.5,1.5,0,0,1,30.8,47.5ZM15,45.9H30.6V44H15ZM30.8,44Z"/></g><g id="Rectángulo_4587" data-name="Rectángulo 4587"><path class="cls-2" d="M30.7,24.2H19.4a.8.8,0,0,1,0-1.6H30.6V20.7H19.4a.7.7,0,0,1-.8-.8.8.8,0,0,1,.8-.8H30.7a1.5,1.5,0,0,1,1.5,1.4v2.3A1.5,1.5,0,0,1,30.7,24.2Zm0-3.5h0Z"/></g><g id="Rectángulo_4585-2" data-name="Rectángulo 4585"><path class="cls-2" d="M45,20.7H40.7a1.2,1.2,0,0,1-1.2-1.2V17.7a1.3,1.3,0,0,1,1.2-1.2H45a1.2,1.2,0,0,1,1.2,1.2v1.8A1.2,1.2,0,0,1,45,20.7Zm-3.9-1.6h3.5v-1H41.1Zm3.9-1Z"/></g><g id="Trazado_11678-2" data-name="Trazado 11678"><path class="cls-2" d="M50.4,44H36.2a.8.8,0,0,1-.8-.8V38.8a1.6,1.6,0,0,1-1.5-1.6v-.4a1.5,1.5,0,0,1,1.5-1.6V31a1.5,1.5,0,0,1-1.5-1.6V29a1.5,1.5,0,0,1,1.5-1.6v-4a.7.7,0,0,1,.8-.8.8.8,0,0,1,.8.8v4.8a.9.9,0,0,1-.8.8h-.7v.4h.7a.9.9,0,0,1,.8.8V36a.9.9,0,0,1-.8.8h-.7v.4h.7a.9.9,0,0,1,.8.8v4.4H49.6V38a.9.9,0,0,1,.8-.8h.7v-.4h-.7a.9.9,0,0,1-.8-.8V30.2a.9.9,0,0,1,.8-.8h.7V29h-.7a.9.9,0,0,1-.8-.8V23.4a.8.8,0,0,1,.8-.8.7.7,0,0,1,.8.8v4a1.6,1.6,0,0,1,1.1.5,1.5,1.5,0,0,1,.4,1.1v.4A1.5,1.5,0,0,1,51.2,31v4.2a1.5,1.5,0,0,1,1.5,1.6v.4a1.6,1.6,0,0,1-1.5,1.6v4.4A.8.8,0,0,1,50.4,44Z"/></g><g id="Línea_2316-2" data-name="Línea 2316"><path class="cls-2" d="M47.7,29.8H38.9a.9.9,0,0,1-.8-.8.8.8,0,0,1,.8-.8h8.8a.8.8,0,0,1,.8.8A.9.9,0,0,1,47.7,29.8Z"/></g><g id="Línea_2317-2" data-name="Línea 2317"><path class="cls-2" d="M47.7,37.5H38.9a.8.8,0,0,1-.8-.8.9.9,0,0,1,.8-.8h8.8a.9.9,0,0,1,.8.8A.8.8,0,0,1,47.7,37.5Z"/></g><g id="Rectángulo_4586-2" data-name="Rectángulo 4586"><path class="cls-2" d="M51.3,47.5h-16A1.5,1.5,0,0,1,33.9,46V43.8a1.4,1.4,0,0,1,1.4-1.4h16a1.4,1.4,0,0,1,1.4,1.4V46A1.5,1.5,0,0,1,51.3,47.5ZM35.5,45.9H51.1V44H35.5ZM51.3,44Z"/></g><g id="Rectángulo_4587-2" data-name="Rectángulo 4587"><path class="cls-2" d="M51.3,24.2H35.2a1.4,1.4,0,0,1-1.4-1.4V20.5a1.4,1.4,0,0,1,1.4-1.4H51.3a1.5,1.5,0,0,1,1.4,1.4v2.3A1.4,1.4,0,0,1,51.3,24.2ZM35.4,22.6H51.1V20.7H35.4Zm15.9-1.9Z"/></g><rect class="cls-3" width="64" height="64"/></svg>