<svg xmlns="http://www.w3.org/2000/svg" viewBox="0 0 121 65"><defs><style>.cls-1{isolation:isolate;}.cls-2{mix-blend-mode:multiply;}.cls-3{fill:#19a500;}.cls-4{fill:#9aa5af;}.cls-5{fill:none;}.cls-6{fill:#19a301;}.cls-7{fill:#82d400;}.cls-8{fill:#4da12e;}.cls-9{fill:#96d200;}</style></defs><title>2tanques_grandes</title><g class="cls-1"><g id="Capa_1" data-name="Capa 1"><g id="Trazado_11848" data-name="Trazado 11848" class="cls-2"><path class="cls-3" d="M12.4,12.9a5.1,5.1,0,0,1,0-10.2h0A4.9,4.9,0,0,1,16,4.2a5.1,5.1,0,0,1,1.5,3.6h0A5.1,5.1,0,0,1,12.4,12.9Zm0-8.4h0a3.3,3.3,0,1,0,3.3,3.3h0a3.3,3.3,0,0,0-1-2.3A2.9,2.9,0,0,0,12.4,4.5Z"/></g><g id="Trazado_11852" data-name="Trazado 11852"><path class="cls-4" d="M53.4,48.8H12.2a.9.9,0,0,1-.9-.9v-32a.9.9,0,1,1,1.8,0V47H52.5V8.3H20.4a.9.9,0,0,1,0-1.8h33a1,1,0,0,1,.9.9V47.9A1,1,0,0,1,53.4,48.8Z"/></g><g id="Línea_2421" data-name="Línea 2421"><path class="cls-4" d="M53.4,12.6a.9.9,0,0,1-.9-.9V7.4a.9.9,0,0,1,.9-.9,1,1,0,0,1,.9.9v4.3A1,1,0,0,1,53.4,12.6Z"/></g><g id="Línea_2422" data-name="Línea 2422"><path class="cls-4" d="M23.5,12.6a.9.9,0,0,1-.9-.9V7.4a.9.9,0,0,1,.9-.9,1,1,0,0,1,.9.9v4.3A1,1,0,0,1,23.5,12.6Z"/></g><g id="Línea_2423" data-name="Línea 2423"><path class="cls-4" d="M31.7,12.6a.9.9,0,0,1-.9-.9V7.4a.9.9,0,0,1,1.8,0v4.3A.9.9,0,0,1,31.7,12.6Z"/></g><g id="Línea_2424" data-name="Línea 2424"><path class="cls-4" d="M44.1,12.6a.9.9,0,0,1-.9-.9V7.4a.9.9,0,1,1,1.8,0v4.3A.9.9,0,0,1,44.1,12.6Z"/></g><g id="Línea_2425" data-name="Línea 2425"><path class="cls-4" d="M56.9,12.7H20.4a.9.9,0,0,1,0-1.8H56.9a.9.9,0,0,1,0,1.8Z"/></g><path class="cls-4" d="M35.1,48.7a.9.9,0,0,1-.9-.9V30.6a.9.9,0,1,1,1.8,0V47.8A.9.9,0,0,1,35.1,48.7Z"/><path class="cls-4" d="M44.2,48.7a.9.9,0,0,1-.9-.9V30.6a.9.9,0,1,1,1.8,0V47.8A.9.9,0,0,1,44.2,48.7Z"/><path class="cls-4" d="M35.1,40h-.4l-22.9-10a1,1,0,0,1-.5-1.2.9.9,0,0,1,1.2-.5l22.9,10a.9.9,0,0,1,.5,1.2A.8.8,0,0,1,35.1,40Z"/><path class="cls-4" d="M35.1,31.5h-.4l-22.9-10a.9.9,0,1,1,.7-1.6l22.9,10a.9.9,0,0,1-.3,1.7Z"/><path class="cls-4" d="M44.1,39.2h-9a.9.9,0,0,1,0-1.8h9a.9.9,0,0,1,0,1.8Z"/><path class="cls-4" d="M44.1,44.1h-9a.9.9,0,0,1,0-1.8h9a.9.9,0,1,1,0,1.8Z"/><path class="cls-4" d="M44.1,48.8h-9a.9.9,0,0,1,0-1.8h9a.9.9,0,0,1,0,1.8Z"/><path class="cls-4" d="M16.5,31.8a.9.9,0,0,1-.9-.9V22.6a.9.9,0,0,1,.9-.9,1,1,0,0,1,.9.9v8.3A1,1,0,0,1,16.5,31.8Z"/><path class="cls-4" d="M21.2,33.8a.9.9,0,0,1-.9-.9V24.6a.9.9,0,0,1,1.8,0v8.3A.9.9,0,0,1,21.2,33.8Z"/><path class="cls-4" d="M26,36a.9.9,0,0,1-.9-.9V26.8a.9.9,0,0,1,1.8,0v8.3A.9.9,0,0,1,26,36Z"/><path class="cls-4" d="M30.8,37.9a.9.9,0,0,1-.9-.9V28.7a.9.9,0,0,1,1.8,0V37A.9.9,0,0,1,30.8,37.9Z"/><path class="cls-4" d="M52.5,18.9H43.2a.9.9,0,0,1,0-1.8h9.3a.9.9,0,0,1,0,1.8Z"/><path class="cls-4" d="M40.2,18.9H39a.9.9,0,0,1,0-1.8h1.2a.9.9,0,0,1,0,1.8Z"/><path class="cls-4" d="M113.2,48.9H7.8a1,1,0,1,1,0-2H113.2a1,1,0,0,1,0,2Z"/><g id="Trazado_11852-2" data-name="Trazado 11852"><path class="cls-4" d="M108.8,48.8H67.6a1,1,0,0,1-.9-.9V7.4a1,1,0,0,1,.9-.9h41.2a.9.9,0,0,1,.9.9V47.9A.9.9,0,0,1,108.8,48.8ZM68.5,47h39.4V8.3H68.5Z"/></g><g id="Línea_2421-2" data-name="Línea 2421"><path class="cls-4" d="M108.8,12.6a.9.9,0,0,1-.9-.9V7.4a.9.9,0,0,1,1.8,0v4.3A.9.9,0,0,1,108.8,12.6Z"/></g><g id="Línea_2422-2" data-name="Línea 2422"><path class="cls-4" d="M77.9,12.6a.9.9,0,0,1-.9-.9V7.4a.9.9,0,1,1,1.8,0v4.3A.9.9,0,0,1,77.9,12.6Z"/></g><g id="Línea_2423-2" data-name="Línea 2423"><path class="cls-4" d="M88.2,12.6a.9.9,0,0,1-.9-.9V7.4a.9.9,0,1,1,1.8,0v4.3A.9.9,0,0,1,88.2,12.6Z"/></g><g id="Línea_2424-2" data-name="Línea 2424"><path class="cls-4" d="M98.5,12.6a.9.9,0,0,1-.9-.9V7.4a.9.9,0,0,1,1.8,0v4.3A.9.9,0,0,1,98.5,12.6Z"/></g><g id="Línea_2425-2" data-name="Línea 2425"><path class="cls-4" d="M112.4,12.7H63.8a.9.9,0,1,1,0-1.8h48.6a.9.9,0,1,1,0,1.8Z"/></g><path class="cls-4" d="M90.6,48.7a.9.9,0,0,1-.9-.9V30.6a.9.9,0,0,1,1.8,0V47.8A.9.9,0,0,1,90.6,48.7Z"/><path class="cls-4" d="M99.7,48.7a.9.9,0,0,1-.9-.9V30.6a.9.9,0,1,1,1.8,0V47.8A.9.9,0,0,1,99.7,48.7Z"/><path class="cls-4" d="M90.6,40h-.4l-22.9-10a.9.9,0,0,1,.7-1.7l22.9,10a.9.9,0,0,1,.5,1.2A.9.9,0,0,1,90.6,40Z"/><path class="cls-4" d="M90.6,31.5h-.4l-22.9-10a.9.9,0,0,1-.5-1.2,1,1,0,0,1,1.2-.4l22.9,10a.9.9,0,0,1,.5,1.2A1,1,0,0,1,90.6,31.5Z"/><path class="cls-4" d="M99.6,39.2h-9a.9.9,0,1,1,0-1.8h9a.9.9,0,1,1,0,1.8Z"/><path class="cls-4" d="M99.6,44.1h-9a.9.9,0,1,1,0-1.8h9a.9.9,0,1,1,0,1.8Z"/><path class="cls-4" d="M99.6,48.8h-9a.9.9,0,1,1,0-1.8h9a.9.9,0,1,1,0,1.8Z"/><path class="cls-4" d="M71.9,31.8a.9.9,0,0,1-.9-.9V22.6a.9.9,0,0,1,1.8,0v8.3A.9.9,0,0,1,71.9,31.8Z"/><path class="cls-4" d="M76.7,33.8a.9.9,0,0,1-.9-.9V24.6a.9.9,0,0,1,1.8,0v8.3A.9.9,0,0,1,76.7,33.8Z"/><path class="cls-4" d="M81.5,36a.9.9,0,0,1-.9-.9V26.8a.9.9,0,0,1,1.8,0v8.3A.9.9,0,0,1,81.5,36Z"/><path class="cls-4" d="M86.3,37.9a.9.9,0,0,1-.9-.9V28.7a.9.9,0,1,1,1.8,0V37A.9.9,0,0,1,86.3,37.9Z"/><path class="cls-4" d="M108,18.9H98.7a.9.9,0,1,1,0-1.8H108a.9.9,0,0,1,0,1.8Z"/><path class="cls-4" d="M95.7,18.9H94.5a.9.9,0,1,1,0-1.8h1.2a.9.9,0,1,1,0,1.8Z"/><g id="Rectángulo_3799-2" data-name="Rectángulo 3799-2"><rect class="cls-5" width="121" height="65"/></g><rect class="cls-5" x="28" y="48.3" width="65" height="16.74"/><path class="cls-6" d="M73.4,61.3H66.2A1.2,1.2,0,0,1,65,60.1a1.3,1.3,0,0,1,1.2-1.2h7.2a1.3,1.3,0,0,1,1.2,1.2A1.2,1.2,0,0,1,73.4,61.3Z"/><path class="cls-6" d="M81.1,61.3h-.6a1.2,1.2,0,0,1-1.2-1.2,1.3,1.3,0,0,1,1.2-1.2h.6a1.2,1.2,0,0,1,1.2,1.2A1.2,1.2,0,0,1,81.1,61.3Z"/><path class="cls-6" d="M47,61.3H39.9a1.2,1.2,0,0,1-1.2-1.2,1.2,1.2,0,0,1,1.2-1.2H47a1.2,1.2,0,0,1,1.2,1.2A1.2,1.2,0,0,1,47,61.3Z"/><path class="cls-7" d="M59,61.3H46.5a1.2,1.2,0,0,1-1.2-1.2,1.3,1.3,0,0,1,1.2-1.2H59a1.2,1.2,0,0,1,1.2,1.2A1.2,1.2,0,0,1,59,61.3Z"/><path class="cls-7" d="M63.5,55.2H39.9a1.2,1.2,0,1,1,0-2.4H63.5a1.2,1.2,0,0,1,0,2.4Z"/><path class="cls-6" d="M81.1,55.2H62.7a1.2,1.2,0,0,1,0-2.4H81.1a1.2,1.2,0,0,1,0,2.4Z"/><path class="cls-6" d="M40.3,55.2h-.4a1.2,1.2,0,1,1,0-2.4h.4a1.2,1.2,0,0,1,0,2.4Z"/><rect class="cls-5" x="28" y="48.3" width="65" height="16.74"/><path class="cls-8" d="M73.4,61.3H66.2A1.2,1.2,0,0,1,65,60.1a1.3,1.3,0,0,1,1.2-1.2h7.2a1.3,1.3,0,0,1,1.2,1.2A1.2,1.2,0,0,1,73.4,61.3Z"/><path class="cls-8" d="M81.1,61.3h-.6a1.2,1.2,0,0,1-1.2-1.2,1.3,1.3,0,0,1,1.2-1.2h.6a1.2,1.2,0,0,1,1.2,1.2A1.2,1.2,0,0,1,81.1,61.3Z"/><path class="cls-8" d="M47,61.3H39.9a1.2,1.2,0,0,1-1.2-1.2,1.2,1.2,0,0,1,1.2-1.2H47a1.2,1.2,0,0,1,1.2,1.2A1.2,1.2,0,0,1,47,61.3Z"/><path class="cls-9" d="M59,61.3H46.5a1.2,1.2,0,0,1-1.2-1.2,1.3,1.3,0,0,1,1.2-1.2H59a1.2,1.2,0,0,1,1.2,1.2A1.2,1.2,0,0,1,59,61.3Z"/><path class="cls-9" d="M63.5,55.2H39.9a1.2,1.2,0,1,1,0-2.4H63.5a1.2,1.2,0,0,1,0,2.4Z"/><path class="cls-8" d="M81.1,55.2H62.7a1.2,1.2,0,0,1,0-2.4H81.1a1.2,1.2,0,0,1,0,2.4Z"/><path class="cls-8" d="M40.3,55.2h-.4a1.2,1.2,0,1,1,0-2.4h.4a1.2,1.2,0,0,1,0,2.4Z"/></g></g></svg>