<svg id="Capa_1" data-name="Capa 1" xmlns="http://www.w3.org/2000/svg" viewBox="0 0 64 64"><defs><style>.cls-1{fill:#19a500;}.cls-2{fill:#95a6b1;}.cls-3{fill:none;}</style></defs><title>3barriles</title><path class="cls-1" d="M4.6,25.3a3.5,3.5,0,0,1-3.2-2,3.6,3.6,0,0,1,1.8-4.7,3.6,3.6,0,0,1,2.7-.1,3.5,3.5,0,0,1,1.9,1.9h0A3.1,3.1,0,0,1,8,22.9,3.3,3.3,0,0,1,6.1,25,4,4,0,0,1,4.6,25.3Zm0-5.4a1.2,1.2,0,0,0-.8.2,1.9,1.9,0,0,0-.9,2.5,1.9,1.9,0,0,0,2.5,1,2.5,2.5,0,0,0,1.1-1.2A2.3,2.3,0,0,0,6.4,21h0a1.8,1.8,0,0,0-1.1-1Z"/><g id="Rectángulo_4585" data-name="Rectángulo 4585"><path class="cls-2" d="M15.4,20.7H11.2a1.2,1.2,0,0,1-1.3-1.2V17.7a1.3,1.3,0,0,1,1.3-1.2h4.2a1.2,1.2,0,0,1,1.2,1.2v1.8A1.2,1.2,0,0,1,15.4,20.7Zm-3.9-1.6H15v-1H11.5Zm3.9-1Z"/></g><g id="Trazado_11678" data-name="Trazado 11678"><path class="cls-2" d="M19.7,44H5.5a.9.9,0,0,1-.8-.8V38.8a1.2,1.2,0,0,1-1-.5,1.6,1.6,0,0,1-.5-1.1v-.4a1.6,1.6,0,0,1,1.5-1.6V31a1.6,1.6,0,0,1-1.5-1.6V29a1.6,1.6,0,0,1,1.5-1.6v-.9a.9.9,0,0,1,.8-.8.9.9,0,0,1,.8.8v1.7a.9.9,0,0,1-.8.8H4.8v.4h.7a.9.9,0,0,1,.8.8V36a.9.9,0,0,1-.8.8H4.8v.4h.7a.9.9,0,0,1,.8.8v4.4H18.9V38a.9.9,0,0,1,.8-.8h.7v-.4h-.7a.9.9,0,0,1-.8-.8V30.2a.9.9,0,0,1,.8-.8h.7V29h-.7a.9.9,0,0,1-.8-.8V23.4a.8.8,0,0,1,.8-.8.7.7,0,0,1,.8.8v4A1.5,1.5,0,0,1,22,29v.4A1.5,1.5,0,0,1,20.5,31v4.2A1.5,1.5,0,0,1,22,36.8v.4a1.6,1.6,0,0,1-1.5,1.6v4.4A.8.8,0,0,1,19.7,44Z"/></g><g id="Línea_2316" data-name="Línea 2316"><path class="cls-2" d="M17,29.8H8.3a.8.8,0,0,1-.8-.8.7.7,0,0,1,.8-.8H17a.8.8,0,0,1,.8.8A.9.9,0,0,1,17,29.8Z"/></g><g id="Línea_2317" data-name="Línea 2317"><path class="cls-2" d="M17,37.5H8.3a.7.7,0,0,1-.8-.8.8.8,0,0,1,.8-.8H17a.9.9,0,0,1,.8.8A.8.8,0,0,1,17,37.5Z"/></g><g id="Rectángulo_4586" data-name="Rectángulo 4586"><path class="cls-2" d="M20.6,47.5H4.6A1.5,1.5,0,0,1,3.2,46V43.8a1.4,1.4,0,0,1,1.4-1.4h16a1.5,1.5,0,0,1,1.5,1.4V46A1.5,1.5,0,0,1,20.6,47.5ZM4.8,45.9H20.5V44H4.8ZM20.6,44Z"/></g><g id="Rectángulo_4587" data-name="Rectángulo 4587"><path class="cls-2" d="M20.6,24.2H9.3a.8.8,0,1,1,0-1.6H20.4V20.7H9.2a.8.8,0,0,1-.8-.8.9.9,0,0,1,.8-.8H20.6A1.4,1.4,0,0,1,22,20.5v2.3A1.4,1.4,0,0,1,20.6,24.2Zm0-3.5Z"/></g><g id="Rectángulo_4585-2" data-name="Rectángulo 4585"><path class="cls-2" d="M34.9,20.7H30.6a1.2,1.2,0,0,1-1.2-1.2V17.7a1.2,1.2,0,0,1,1.2-1.2h4.3a1.3,1.3,0,0,1,1.2,1.2v1.8A1.2,1.2,0,0,1,34.9,20.7ZM31,19.1h3.5v-1H31Zm3.9-1Z"/></g><g id="Trazado_11678-2" data-name="Trazado 11678"><path class="cls-2" d="M40.3,44H26a.9.9,0,0,1-.8-.8V38.8a1.4,1.4,0,0,1-1-.5,1.6,1.6,0,0,1-.5-1.1v-.4a1.6,1.6,0,0,1,1.5-1.6V31a1.6,1.6,0,0,1-1.5-1.6V29a1.6,1.6,0,0,1,1.5-1.6v-4a.8.8,0,0,1,.8-.8.7.7,0,0,1,.8.8v4.8a.8.8,0,0,1-.8.8h-.7v.4H26a.8.8,0,0,1,.8.8V36a.8.8,0,0,1-.8.8h-.7v.4H26a.8.8,0,0,1,.8.8v4.4H39.5V38a.8.8,0,0,1,.8-.8h.6v-.4h-.7a.8.8,0,0,1-.8-.8V30.2a.8.8,0,0,1,.8-.8h.6V29h-.7a.8.8,0,0,1-.8-.8V23.4a.7.7,0,0,1,.8-.8.8.8,0,0,1,.8.8v4A1.6,1.6,0,0,1,42.6,29v.4A1.6,1.6,0,0,1,41.1,31v4.2a1.6,1.6,0,0,1,1.5,1.6v.4a1.6,1.6,0,0,1-1.5,1.6v4.4A.9.9,0,0,1,40.3,44Z"/></g><g id="Línea_2316-2" data-name="Línea 2316"><path class="cls-2" d="M37.5,29.8H28.8A.8.8,0,0,1,28,29a.7.7,0,0,1,.8-.8h8.7a.8.8,0,0,1,.8.8A.9.9,0,0,1,37.5,29.8Z"/></g><g id="Línea_2317-2" data-name="Línea 2317"><path class="cls-2" d="M37.5,37.5H28.8a.7.7,0,0,1-.8-.8.8.8,0,0,1,.8-.8h8.7a.9.9,0,0,1,.8.8A.8.8,0,0,1,37.5,37.5Z"/></g><g id="Rectángulo_4586-2" data-name="Rectángulo 4586"><path class="cls-2" d="M41.2,47.5H25.1A1.5,1.5,0,0,1,23.7,46V43.8a1.4,1.4,0,0,1,1.4-1.4H41.2a1.4,1.4,0,0,1,1.4,1.4V46A1.5,1.5,0,0,1,41.2,47.5ZM25.3,45.9H41V44H25.3ZM41.2,44Z"/></g><g id="Rectángulo_4587-2" data-name="Rectángulo 4587"><path class="cls-2" d="M41.1,24.2h-16a1.5,1.5,0,0,1-1.5-1.4V20.5a1.5,1.5,0,0,1,1.5-1.4h16a1.4,1.4,0,0,1,1.4,1.4v2.3A1.4,1.4,0,0,1,41.1,24.2ZM25.2,22.6H40.9V20.7H25.2Zm15.9-1.9Z"/></g><g id="Rectángulo_4585-3" data-name="Rectángulo 4585"><path class="cls-2" d="M55.2,20.7H50.9a1.2,1.2,0,0,1-1.2-1.2V17.7a1.2,1.2,0,0,1,1.2-1.2h4.3a1.2,1.2,0,0,1,1.2,1.2v1.8A1.2,1.2,0,0,1,55.2,20.7Zm-3.9-1.6h3.5v-1H51.3Zm3.9-1Z"/></g><g id="Trazado_11678-3" data-name="Trazado 11678"><path class="cls-2" d="M60.6,44H46.4a.8.8,0,0,1-.8-.8V38.8A1.6,1.6,0,0,1,44,37.2v-.4a1.6,1.6,0,0,1,1.6-1.6V31A1.6,1.6,0,0,1,44,29.4V29a1.6,1.6,0,0,1,1.6-1.6v-4a.7.7,0,0,1,.8-.8.8.8,0,0,1,.8.8v4.8a.9.9,0,0,1-.8.8h-.7v.4h.8a.9.9,0,0,1,.8.8V36a.9.9,0,0,1-.8.8h-.7v.4h.8a.9.9,0,0,1,.8.8v4.4H59.8V38a.9.9,0,0,1,.8-.8h.7v-.4h-.7a.9.9,0,0,1-.8-.8V30.2a.9.9,0,0,1,.8-.8h.7V29h-.7a.9.9,0,0,1-.8-.8V23.4a.8.8,0,1,1,1.6,0v4a1.2,1.2,0,0,1,1,.5,1.6,1.6,0,0,1,.5,1.1v.4A1.6,1.6,0,0,1,61.4,31v4.2a1.6,1.6,0,0,1,1.5,1.6v.4a1.6,1.6,0,0,1-1.5,1.6v4.4A.9.9,0,0,1,60.6,44Z"/></g><g id="Línea_2316-3" data-name="Línea 2316"><path class="cls-2" d="M57.8,29.8H49.1a.9.9,0,0,1-.8-.8.8.8,0,0,1,.8-.8h8.7a.7.7,0,0,1,.8.8A.8.8,0,0,1,57.8,29.8Z"/></g><g id="Línea_2317-3" data-name="Línea 2317"><path class="cls-2" d="M57.8,37.5H49.1a.8.8,0,0,1-.8-.8.9.9,0,0,1,.8-.8h8.7a.8.8,0,0,1,.8.8A.7.7,0,0,1,57.8,37.5Z"/></g><g id="Rectángulo_4586-3" data-name="Rectángulo 4586"><path class="cls-2" d="M61.5,47.5h-16A1.5,1.5,0,0,1,44,46V43.8a1.5,1.5,0,0,1,1.5-1.4h16a1.4,1.4,0,0,1,1.4,1.4V46A1.5,1.5,0,0,1,61.5,47.5ZM45.6,45.9H61.3V44H45.6ZM61.5,44Z"/></g><g id="Rectángulo_4587-3" data-name="Rectángulo 4587"><path class="cls-2" d="M61.4,24.2h-16A1.4,1.4,0,0,1,44,22.8V20.5a1.4,1.4,0,0,1,1.4-1.4h16a1.4,1.4,0,0,1,1.4,1.4v2.3A1.4,1.4,0,0,1,61.4,24.2ZM45.6,22.6H61.2V20.7H45.6Zm15.8-1.9Z"/></g><rect class="cls-3" width="64" height="64"/></svg>