<svg id="Capa_1" data-name="Capa 1" xmlns="http://www.w3.org/2000/svg" viewBox="0 0 47 47"><defs><style>.cls-1{fill:none;}.cls-2{fill:#fff;}</style></defs><title>icono_menu-distancia_linea</title><rect class="cls-1" width="47" height="47"/><g id="Grupo_12876" data-name="Grupo 12876"><g id="Línea_2139" data-name="Línea 2139"><path class="cls-2" d="M44.7,38.5H3.1a.9.9,0,0,1-.8-.8.8.8,0,0,1,.8-.7H44.7a.7.7,0,0,1,.7.7A.8.8,0,0,1,44.7,38.5Z"/></g><g id="Grupo_12797" data-name="Grupo 12797"><g id="Línea_2140" data-name="Línea 2140"><path class="cls-2" d="M36.7,32.5H31.6a.7.7,0,0,1-.7-.7.7.7,0,0,1,.7-.8h5.1a.8.8,0,0,1,.8.8A.8.8,0,0,1,36.7,32.5Z"/></g><g id="Línea_2141" data-name="Línea 2141"><path class="cls-2" d="M44.7,32.5h-4a.8.8,0,0,1-.8-.7.8.8,0,0,1,.8-.8h4a.8.8,0,0,1,.8.8A.8.8,0,0,1,44.7,32.5Z"/></g><g id="Línea_2142" data-name="Línea 2142"><path class="cls-2" d="M36.7,26.4H31.6a.8.8,0,0,1-.7-.8.7.7,0,0,1,.7-.7h5.1a.8.8,0,0,1,.8.7A.9.9,0,0,1,36.7,26.4Z"/></g><g id="Línea_2143" data-name="Línea 2143"><path class="cls-2" d="M44.7,26.4h-4a.9.9,0,0,1-.8-.8.8.8,0,0,1,.8-.7h4a.8.8,0,0,1,.8.7A.9.9,0,0,1,44.7,26.4Z"/></g></g><g id="Rectángulo_4528" data-name="Rectángulo 4528"><path class="cls-2" d="M40.7,34.5h-4a.7.7,0,0,1-.7-.7V23.2a.7.7,0,0,1,.7-.7h4a.7.7,0,0,1,.7.7V33.8A.7.7,0,0,1,40.7,34.5ZM37.5,33h2.4V24H37.5Z"/></g><g id="Grupo_12798" data-name="Grupo 12798"><g id="Línea_2144" data-name="Línea 2144"><path class="cls-2" d="M33.7,29.3H24.5a.9.9,0,0,1-.8-.8.8.8,0,0,1,.8-.7h9.2a.8.8,0,0,1,.8.7A.9.9,0,0,1,33.7,29.3Z"/></g><g id="Trazado_11513" data-name="Trazado 11513"><path class="cls-2" d="M27.9,32.7l-.5-.2L23.9,29a.9.9,0,0,1,0-1l3.5-3.4a.7.7,0,0,1,1,1l-2.9,2.9,2.9,2.9a.8.8,0,0,1,0,1.1Z"/></g></g><g id="Trazado_11514" data-name="Trazado 11514"><path class="cls-2" d="M31.6,38.5H5.4a.8.8,0,0,1-.7-.8V30.4a.7.7,0,0,1,.7-.7.8.8,0,0,1,.8.7V37H30.9V10H6.2v8.4a.9.9,0,0,1-.8.8.8.8,0,0,1-.7-.8V9.3a.8.8,0,0,1,.7-.8H31.6a.9.9,0,0,1,.8.8V37.7A.9.9,0,0,1,31.6,38.5Z"/></g><g id="Línea_2145" data-name="Línea 2145"><path class="cls-2" d="M31.6,14.5H5.4a.7.7,0,0,1-.7-.7.7.7,0,0,1,.7-.8H31.6a.8.8,0,0,1,.8.8A.8.8,0,0,1,31.6,14.5Z"/></g><g id="Línea_2146" data-name="Línea 2146"><path class="cls-2" d="M11.1,14.5a.8.8,0,0,1-.8-.7V9.3a.9.9,0,0,1,.8-.8.8.8,0,0,1,.7.8v4.5A.7.7,0,0,1,11.1,14.5Z"/></g><g id="Línea_2147" data-name="Línea 2147"><path class="cls-2" d="M17.8,14.5a.8.8,0,0,1-.8-.7V9.3a.9.9,0,0,1,.8-.8.8.8,0,0,1,.7.8v4.5A.7.7,0,0,1,17.8,14.5Z"/></g><g id="Línea_2148" data-name="Línea 2148"><path class="cls-2" d="M24.5,14.5a.8.8,0,0,1-.8-.7V9.3a.9.9,0,0,1,.8-.8.8.8,0,0,1,.7.8v4.5A.7.7,0,0,1,24.5,14.5Z"/></g><g id="Elipse_2118" data-name="Elipse 2118"><path class="cls-2" d="M5.4,28.3a4,4,0,0,1-3.9-3.9,3.9,3.9,0,0,1,3.9-3.9,3.8,3.8,0,0,1,3.9,3.9A3.9,3.9,0,0,1,5.4,28.3Zm0-6.3a2.4,2.4,0,0,0,0,4.8,2.4,2.4,0,0,0,0-4.8Z"/></g></g></svg>