<svg id="Capa_1" data-name="Capa 1" xmlns="http://www.w3.org/2000/svg" viewBox="0 0 64 64"><defs><style>.cls-1{fill:none;}.cls-2{fill:#95a6b1;}.cls-3{fill:#19a500;}</style></defs><title>5 barriles</title><rect class="cls-1" width="64" height="64"/><g id="Trazado_11678" data-name="Trazado 11678"><path class="cls-2" d="M18.7,57.4H4.5a.8.8,0,0,1-.8-.8V52.2a1.6,1.6,0,0,1-1.1-.5,1.5,1.5,0,0,1-.4-1.1v-.4a1.6,1.6,0,0,1,1.5-1.7V44.4a1.6,1.6,0,0,1-1.5-1.6v-.4a1.6,1.6,0,0,1,1.5-1.7V36.8a.7.7,0,0,1,.8-.8.8.8,0,0,1,.8.8v4.7a.8.8,0,0,1-.8.8H3.8v.5h.7a.9.9,0,0,1,.8.8v5.7a.8.8,0,0,1-.8.8H3.8v.5h.7a.8.8,0,0,1,.8.8v4.4H17.9V51.4a.8.8,0,0,1,.8-.8h.7v-.4h-.7a.8.8,0,0,1-.8-.8V43.6a.9.9,0,0,1,.8-.8h.7v-.4h-.7a.8.8,0,0,1-.8-.8V36.8a.8.8,0,0,1,.8-.8.7.7,0,0,1,.8.8v3.9A1.6,1.6,0,0,1,21,42.4v.4a1.6,1.6,0,0,1-1.5,1.6v4.1A1.6,1.6,0,0,1,21,50.2v.4a1.6,1.6,0,0,1-1.5,1.6v4.4A.8.8,0,0,1,18.7,57.4Z"/></g><g id="Línea_2316" data-name="Línea 2316"><path class="cls-2" d="M16,43.1H7.2a.8.8,0,0,1-.8-.8.9.9,0,0,1,.8-.8H16a.9.9,0,0,1,.8.8A.8.8,0,0,1,16,43.1Z"/></g><g id="Línea_2317" data-name="Línea 2317"><path class="cls-2" d="M16,50.9H7.2a.8.8,0,0,1,0-1.6H16a.8.8,0,0,1,0,1.6Z"/></g><g id="Rectángulo_4586" data-name="Rectángulo 4586"><path class="cls-2" d="M19.6,60.8H3.6a1.4,1.4,0,0,1-1.4-1.4V57.2a1.4,1.4,0,0,1,1.4-1.4h16A1.4,1.4,0,0,1,21,57.2v2.2A1.4,1.4,0,0,1,19.6,60.8ZM3.8,59.2H19.4V57.4H3.8Zm15.8-1.8Z"/></g><g id="Trazado_11678-2" data-name="Trazado 11678"><path class="cls-2" d="M39.2,57.4H25a.9.9,0,0,1-.8-.8V52.2a1.2,1.2,0,0,1-1-.5,1.6,1.6,0,0,1-.5-1.1v-.4a1.7,1.7,0,0,1,1.5-1.7V44.4a1.7,1.7,0,0,1-1.5-1.6v-.4a1.7,1.7,0,0,1,1.5-1.7V36.8a.8.8,0,1,1,1.6,0v4.7a.8.8,0,0,1-.8.8h-.7v.5H25a.9.9,0,0,1,.8.8v5.7a.8.8,0,0,1-.8.8h-.7v.5H25a.8.8,0,0,1,.8.8v4.4H38.4V51.4a.8.8,0,0,1,.8-.8h.7v-.4h-.7a.8.8,0,0,1-.8-.8V43.6a.9.9,0,0,1,.8-.8h.7v-.4h-.7a.8.8,0,0,1-.8-.8V36.8a.8.8,0,0,1,.8-.8.7.7,0,0,1,.8.8v3.9a1.6,1.6,0,0,1,1.5,1.7v.4A1.6,1.6,0,0,1,40,44.4v4.1a1.6,1.6,0,0,1,1.5,1.7v.4A1.6,1.6,0,0,1,40,52.2v4.4A.8.8,0,0,1,39.2,57.4Z"/></g><g id="Línea_2316-2" data-name="Línea 2316"><path class="cls-2" d="M36.5,43.1H27.8a.7.7,0,0,1-.8-.8.8.8,0,0,1,.8-.8h8.7a.9.9,0,0,1,.8.8A.8.8,0,0,1,36.5,43.1Z"/></g><g id="Línea_2317-2" data-name="Línea 2317"><path class="cls-2" d="M36.5,50.9H27.8a.8.8,0,0,1,0-1.6h8.7a.8.8,0,1,1,0,1.6Z"/></g><g id="Rectángulo_4586-2" data-name="Rectángulo 4586"><path class="cls-2" d="M40.1,60.8h-16a1.4,1.4,0,0,1-1.4-1.4V57.2a1.4,1.4,0,0,1,1.4-1.4h16a1.5,1.5,0,0,1,1.5,1.4v2.2A1.5,1.5,0,0,1,40.1,60.8ZM24.3,59.2H40V57.4H24.3Zm15.8-1.8Z"/></g><g id="Rectángulo_4587" data-name="Rectángulo 4587"><path class="cls-2" d="M40.1,37.6H24a1.5,1.5,0,0,1-1.4-1.4V33.9A1.4,1.4,0,0,1,24,32.5H40.1a1.4,1.4,0,0,1,1.4,1.4v2.3A1.4,1.4,0,0,1,40.1,37.6ZM24.2,36H39.9V34.1H24.2Zm15.9-1.9Z"/></g><g id="Rectángulo_4587-2" data-name="Rectángulo 4587"><path class="cls-2" d="M19.6,37.6H3.5a1.4,1.4,0,0,1-1.4-1.4V33.9a1.4,1.4,0,0,1,1.4-1.4H19.6A1.4,1.4,0,0,1,21,33.9v2.3A1.5,1.5,0,0,1,19.6,37.6ZM3.7,36H19.4V34.1H3.7Zm15.9-1.9Z"/></g><path class="cls-3" d="M13.6,12a3.6,3.6,0,0,1-3.3-4.8,3.7,3.7,0,0,1,1.9-2,3.6,3.6,0,0,1,2.7-.1A3.2,3.2,0,0,1,16.8,7h0A3.3,3.3,0,0,1,17,9.6a3.6,3.6,0,0,1-1.9,2.1A4,4,0,0,1,13.6,12Zm0-5.5-.8.2a2.2,2.2,0,0,0-1,1.1,2,2,0,0,0,3.7,1.3,2.6,2.6,0,0,0-.1-1.5h0a2.2,2.2,0,0,0-1.1-1Z"/><g id="Rectángulo_4585" data-name="Rectángulo 4585"><path class="cls-2" d="M24.5,7.4H20.2A1.2,1.2,0,0,1,19,6.2V4.4a1.2,1.2,0,0,1,1.2-1.2h4.3a1.2,1.2,0,0,1,1.2,1.2V6.2A1.3,1.3,0,0,1,24.5,7.4ZM20.6,5.8h3.5v-1H20.6Zm3.9-1Z"/></g><g id="Trazado_11678-3" data-name="Trazado 11678"><path class="cls-2" d="M28.8,30.6H14.5a.8.8,0,0,1-.8-.8V25.4a1.3,1.3,0,0,1-1-.4,1.7,1.7,0,0,1-.5-1.2v-.4a1.7,1.7,0,0,1,1.5-1.6V17.7A1.7,1.7,0,0,1,12.2,16v-.4A1.7,1.7,0,0,1,13.7,14v-.9a.9.9,0,0,1,.8-.8.8.8,0,0,1,.8.8v1.7a.8.8,0,0,1-.8.8h-.7V16h.7a.7.7,0,0,1,.8.8v5.7a.8.8,0,0,1-.8.8h-.7v.4h.7a.7.7,0,0,1,.8.8V29H28V24.7a.7.7,0,0,1,.8-.8h.6v-.5h-.7a.8.8,0,0,1-.8-.8V16.9a.7.7,0,0,1,.8-.8h.6v-.5h-.7a.8.8,0,0,1-.8-.8V10a.8.8,0,0,1,.8-.8.9.9,0,0,1,.8.8v4a1.7,1.7,0,0,1,1.5,1.6V16a1.7,1.7,0,0,1-1.5,1.7v4.1a1.7,1.7,0,0,1,1.5,1.6v.4a1.6,1.6,0,0,1-1.5,1.6v4.4A.8.8,0,0,1,28.8,30.6Z"/></g><g id="Línea_2316-3" data-name="Línea 2316"><path class="cls-2" d="M26,16.4H17.3a.8.8,0,1,1,0-1.6H26a.8.8,0,1,1,0,1.6Z"/></g><g id="Línea_2317-3" data-name="Línea 2317"><path class="cls-2" d="M26,24.2H17.3a.8.8,0,0,1-.8-.8.7.7,0,0,1,.8-.8H26a.8.8,0,0,1,.8.8A.9.9,0,0,1,26,24.2Z"/></g><g id="Rectángulo_4586-3" data-name="Rectángulo 4586"><path class="cls-2" d="M29.7,34.1H13.6a1.4,1.4,0,0,1-1.4-1.4V30.4A1.4,1.4,0,0,1,13.6,29H29.7a1.5,1.5,0,0,1,1.4,1.4v2.3A1.4,1.4,0,0,1,29.7,34.1ZM13.8,32.5H29.5V30.6H13.8Zm15.9-1.9Z"/></g><g id="Rectángulo_4587-3" data-name="Rectángulo 4587"><path class="cls-2" d="M29.6,10.8H18.3a.7.7,0,0,1-.8-.8.8.8,0,0,1,.8-.8H29.4V7.4H18.2a.9.9,0,0,1-.8-.8.8.8,0,0,1,.8-.8H29.6A1.4,1.4,0,0,1,31,7.2V9.4A1.4,1.4,0,0,1,29.6,10.8Zm0-3.4Z"/></g><g id="Rectángulo_4585-2" data-name="Rectángulo 4585"><path class="cls-2" d="M43.9,7.4H39.6a1.2,1.2,0,0,1-1.2-1.2V4.4a1.2,1.2,0,0,1,1.2-1.2h4.3a1.2,1.2,0,0,1,1.2,1.2V6.2A1.3,1.3,0,0,1,43.9,7.4ZM40,5.8h3.5v-1H40Zm3.9-1Z"/></g><g id="Trazado_11678-4" data-name="Trazado 11678"><path class="cls-2" d="M49.3,30.6H35a.8.8,0,0,1-.8-.8V25.4a1.3,1.3,0,0,1-1-.4,1.7,1.7,0,0,1-.5-1.2v-.4a1.7,1.7,0,0,1,1.5-1.6V17.7A1.7,1.7,0,0,1,32.7,16v-.4A1.7,1.7,0,0,1,34.2,14V10a.9.9,0,0,1,.8-.8.8.8,0,0,1,.8.8v4.8a.8.8,0,0,1-.8.8h-.6V16H35a.7.7,0,0,1,.8.8v5.7a.8.8,0,0,1-.8.8h-.6v.4H35a.7.7,0,0,1,.8.8V29H48.5V24.7a.7.7,0,0,1,.8-.8h.6v-.5h-.7a.8.8,0,0,1-.8-.8V16.9a.7.7,0,0,1,.8-.8h.6v-.5h-.7a.8.8,0,0,1-.8-.8V10a.8.8,0,0,1,.8-.8.9.9,0,0,1,.8.8v4a1.4,1.4,0,0,1,1,.5,1.6,1.6,0,0,1,.5,1.1V16a1.7,1.7,0,0,1-1.5,1.7v4.1a1.7,1.7,0,0,1,1.5,1.6v.4a1.6,1.6,0,0,1-1.5,1.6v4.4A.8.8,0,0,1,49.3,30.6Z"/></g><g id="Línea_2316-4" data-name="Línea 2316"><path class="cls-2" d="M46.5,16.4H37.8a.8.8,0,1,1,0-1.6h8.7a.8.8,0,0,1,0,1.6Z"/></g><g id="Línea_2317-4" data-name="Línea 2317"><path class="cls-2" d="M46.5,24.2H37.8a.8.8,0,0,1-.8-.8.7.7,0,0,1,.8-.8h8.7a.7.7,0,0,1,.8.8A.8.8,0,0,1,46.5,24.2Z"/></g><g id="Rectángulo_4586-4" data-name="Rectángulo 4586"><path class="cls-2" d="M50.2,34.1H34.1a1.4,1.4,0,0,1-1.4-1.4V30.4A1.5,1.5,0,0,1,34.1,29H50.2a1.5,1.5,0,0,1,1.4,1.4v2.3A1.4,1.4,0,0,1,50.2,34.1ZM34.3,32.5H50V30.6H34.3Zm15.9-1.9Z"/></g><g id="Rectángulo_4587-4" data-name="Rectángulo 4587"><path class="cls-2" d="M50.1,10.8h-16a1.4,1.4,0,0,1-1.4-1.4V7.2a1.4,1.4,0,0,1,1.4-1.4h16a1.4,1.4,0,0,1,1.4,1.4V9.4A1.4,1.4,0,0,1,50.1,10.8ZM34.3,9.2H49.9V7.4H34.3ZM50.1,7.4Z"/></g><g id="Trazado_11678-5" data-name="Trazado 11678"><path class="cls-2" d="M59.6,57.4H45.3a.9.9,0,0,1-.8-.8V52.2A1.7,1.7,0,0,1,43,50.6v-.4a1.7,1.7,0,0,1,1.5-1.7V44.4A1.7,1.7,0,0,1,43,42.8v-.4a1.7,1.7,0,0,1,1.5-1.7V36.8a.8.8,0,0,1,.8-.8.7.7,0,0,1,.8.8v4.7a.7.7,0,0,1-.8.8h-.6v.5h.7a.8.8,0,0,1,.8.8v5.7a.7.7,0,0,1-.8.8h-.6v.5h.7a.7.7,0,0,1,.8.8v4.4H58.8V51.4a.7.7,0,0,1,.8-.8h.7v-.4h-.7a.7.7,0,0,1-.8-.8V43.6a.8.8,0,0,1,.8-.8h.7v-.4h-.7a.7.7,0,0,1-.8-.8V36.8a.7.7,0,0,1,.8-.8.8.8,0,0,1,.8.8v3.9a1.9,1.9,0,0,1,1,.5,1.7,1.7,0,0,1,.5,1.2v.4a1.7,1.7,0,0,1-1.5,1.6v4.1a1.7,1.7,0,0,1,1.5,1.7v.4a1.7,1.7,0,0,1-1.5,1.6v4.4A.9.9,0,0,1,59.6,57.4Z"/></g><g id="Línea_2316-5" data-name="Línea 2316"><path class="cls-2" d="M56.8,43.1H48.1a.8.8,0,0,1-.8-.8.9.9,0,0,1,.8-.8h8.7a.8.8,0,0,1,.8.8A.7.7,0,0,1,56.8,43.1Z"/></g><g id="Línea_2317-5" data-name="Línea 2317"><path class="cls-2" d="M56.8,50.9H48.1a.8.8,0,1,1,0-1.6h8.7a.8.8,0,1,1,0,1.6Z"/></g><g id="Rectángulo_4586-5" data-name="Rectángulo 4586"><path class="cls-2" d="M60.5,60.8H44.4A1.4,1.4,0,0,1,43,59.4V57.2a1.4,1.4,0,0,1,1.4-1.4H60.5a1.4,1.4,0,0,1,1.4,1.4v2.2A1.4,1.4,0,0,1,60.5,60.8ZM44.6,59.2H60.3V57.4H44.6Zm15.9-1.8Z"/></g><g id="Rectángulo_4587-5" data-name="Rectángulo 4587"><path class="cls-2" d="M60.4,37.6h-16A1.4,1.4,0,0,1,43,36.2V33.9a1.4,1.4,0,0,1,1.4-1.4h16a1.4,1.4,0,0,1,1.4,1.4v2.3A1.4,1.4,0,0,1,60.4,37.6ZM44.6,36H60.2V34.1H44.6Zm15.8-1.9Z"/></g></svg>