<svg id="Capa_1" data-name="Capa 1" xmlns="http://www.w3.org/2000/svg" viewBox="0 0 65 65"><defs><style>.cls-1{fill:none;}.cls-2{fill:#19a500;}.cls-3{fill:#95a6b1;}.cls-4{fill:#4da12e;}.cls-5{fill:#96d200;}</style></defs><title>tanque_pequeno</title><g id="Grupo_13216" data-name="Grupo 13216"><g id="Rectángulo_3799" data-name="Rectángulo 3799"><rect class="cls-1" width="65" height="65"/></g></g><g id="Rectángulo_3799-2" data-name="Rectángulo 3799-2"><rect class="cls-1" width="65" height="65"/></g><g id="Grupo_14735" data-name="Grupo 14735"><g id="Trazado_11848" data-name="Trazado 11848"><path class="cls-2" d="M12.1,23.5a5,5,0,1,1,0-9.9h.1a4.9,4.9,0,0,1,4.9,4.9h0A5,5,0,0,1,12.1,23.5Zm0-8.3a3.4,3.4,0,1,0,0,6.7,3.4,3.4,0,0,0,3.4-3.4h0A3.4,3.4,0,0,0,12.1,15.2Z"/></g><g id="Trazado_11852" data-name="Trazado 11852"><path class="cls-3" d="M53.1,48.4H11.9a.8.8,0,0,1-.8-.8V26.7a.8.8,0,0,1,.8-.8.7.7,0,0,1,.8.8V46.8H52.3V18.9H20.1a.8.8,0,1,1,0-1.6h33a.9.9,0,0,1,.8.8V47.6A.8.8,0,0,1,53.1,48.4Z"/></g><g id="Línea_2421" data-name="Línea 2421"><path class="cls-3" d="M53.1,23.3a.8.8,0,0,1-.8-.8V18.1a.8.8,0,0,1,.8-.8.9.9,0,0,1,.8.8v4.4A.9.9,0,0,1,53.1,23.3Z"/></g><g id="Línea_2422" data-name="Línea 2422"><path class="cls-3" d="M23.2,23.3a.8.8,0,0,1-.8-.8V18.1a.8.8,0,0,1,.8-.8.9.9,0,0,1,.8.8v4.4A.9.9,0,0,1,23.2,23.3Z"/></g><g id="Línea_2423" data-name="Línea 2423"><path class="cls-3" d="M31.5,23.3a.8.8,0,0,1-.8-.8V18.1a.8.8,0,0,1,.8-.8.9.9,0,0,1,.8.8v4.4A.9.9,0,0,1,31.5,23.3Z"/></g><g id="Línea_2424" data-name="Línea 2424"><path class="cls-3" d="M43.9,23.3a.8.8,0,0,1-.8-.8V18.1a.8.8,0,0,1,.8-.8.9.9,0,0,1,.8.8v4.4A.9.9,0,0,1,43.9,23.3Z"/></g><g id="Línea_2425" data-name="Línea 2425"><path class="cls-3" d="M56.6,23.4H20.1a.9.9,0,0,1-.8-.8.8.8,0,0,1,.8-.8H56.6a.7.7,0,0,1,.8.8A.8.8,0,0,1,56.6,23.4Z"/></g><g id="Línea_2762" data-name="Línea 2762"><path class="cls-3" d="M52.2,33.6H42.9a.9.9,0,0,1-.8-.8.8.8,0,0,1,.8-.8h9.3a.7.7,0,0,1,.8.8A.8.8,0,0,1,52.2,33.6Z"/></g><g id="Línea_2763" data-name="Línea 2763"><path class="cls-3" d="M40,33.6H38.7a.9.9,0,0,1-.8-.8.8.8,0,0,1,.8-.8H40a.8.8,0,0,1,.8.8A.9.9,0,0,1,40,33.6Z"/></g><g id="Línea_2764" data-name="Línea 2764"><path class="cls-3" d="M57.4,48.4H7.6a.7.7,0,0,1-.8-.8.8.8,0,0,1,.8-.8H57.4a.8.8,0,0,1,.8.8A.7.7,0,0,1,57.4,48.4Z"/></g></g><rect class="cls-1" y="48.3" width="65" height="16.74"/><path class="cls-4" d="M45.4,61.3H38.2A1.2,1.2,0,0,1,37,60.1a1.3,1.3,0,0,1,1.2-1.2h7.2a1.3,1.3,0,0,1,1.2,1.2A1.2,1.2,0,0,1,45.4,61.3Z"/><path class="cls-4" d="M53.1,61.3h-.6a1.2,1.2,0,0,1-1.2-1.2,1.3,1.3,0,0,1,1.2-1.2h.6a1.2,1.2,0,0,1,1.2,1.2A1.2,1.2,0,0,1,53.1,61.3Z"/><path class="cls-4" d="M19,61.3H11.9a1.2,1.2,0,0,1-1.2-1.2,1.2,1.2,0,0,1,1.2-1.2H19a1.2,1.2,0,0,1,1.2,1.2A1.2,1.2,0,0,1,19,61.3Z"/><path class="cls-5" d="M31,61.3H18.5a1.2,1.2,0,0,1-1.2-1.2,1.3,1.3,0,0,1,1.2-1.2H31a1.2,1.2,0,0,1,1.2,1.2A1.2,1.2,0,0,1,31,61.3Z"/><path class="cls-5" d="M35.5,55.2H11.9a1.2,1.2,0,1,1,0-2.4H35.5a1.2,1.2,0,0,1,0,2.4Z"/><path class="cls-4" d="M53.1,55.2H34.7a1.2,1.2,0,0,1,0-2.4H53.1a1.2,1.2,0,0,1,0,2.4Z"/><path class="cls-4" d="M12.3,55.2h-.4a1.2,1.2,0,1,1,0-2.4h.4a1.2,1.2,0,0,1,0,2.4Z"/></svg>