<svg id="Capa_1" data-name="Capa 1" xmlns="http://www.w3.org/2000/svg" viewBox="0 0 47 47"><defs><style>.cls-1{fill:none;}.cls-2{fill:#fff;}</style></defs><title>icono_menu-clima</title><rect class="cls-1" width="47" height="47"/><path class="cls-2" d="M25.3,27.2H17.5a3.9,3.9,0,0,1-3.9-4,4,4,0,0,1,4-4,4.4,4.4,0,0,1,4.7-3,4.5,4.5,0,0,1,3.5,3l1.3.5a.7.7,0,0,1-.7,1.3,2,2,0,0,0-1.1-.3h-.1a.7.7,0,0,1-.7-.6,2.9,2.9,0,0,0-2.4-2.4,2.9,2.9,0,0,0-3.2,2.4.5.5,0,0,1-.3.5.7.7,0,0,1-.6.2h-.5a2.5,2.5,0,0,0-2.4,2.5,2.5,2.5,0,0,0,2.4,2.5h7.8a2,2,0,0,0,1.1-.3.7.7,0,0,1,1,.3.7.7,0,0,1-.3,1A4.1,4.1,0,0,1,25.3,27.2Z"/><g id="Elipse_2127" data-name="Elipse 2127"><path class="cls-2" d="M9.6,18.8A3.8,3.8,0,1,1,13.4,15,3.8,3.8,0,0,1,9.6,18.8Zm0-6.1A2.3,2.3,0,0,0,7.3,15a2.3,2.3,0,0,0,4.6,0A2.3,2.3,0,0,0,9.6,12.7Z"/></g><g id="Elipse_2127-2" data-name="Elipse 2127"><path class="cls-2" d="M18,36.2a2.6,2.6,0,0,1-2.6-2.5c0-1.1,1.5-3.3,1.9-3.9a.9.9,0,0,1,1.3,0c.4.6,1.9,2.8,1.9,3.9A2.5,2.5,0,0,1,18,36.2Zm0-4.6a7,7,0,0,0-1.1,2.1,1,1,0,0,0,1.1,1,1,1,0,0,0,1-1A8.8,8.8,0,0,0,18,31.6Z"/></g><path class="cls-2" d="M31.4,41.6H9.8a.8.8,0,0,1-.8-.8V20.4a.9.9,0,0,1,.8-.8.8.8,0,0,1,.7.8V40.1H31.4A5.1,5.1,0,0,0,36.5,35V6.9h-26V9.8a.8.8,0,0,1-.7.8A.9.9,0,0,1,9,9.8V6.2a.8.8,0,0,1,.8-.8H37.2a.8.8,0,0,1,.8.8V35A6.7,6.7,0,0,1,31.4,41.6Z"/><path class="cls-2" d="M28.7,37.2h-.1c-.4-.1-.8-.4-.8-.8a.8.8,0,0,1,.8-.7c0-.1,0,0,.1,0a4,4,0,0,0,2.7-1.2,3.6,3.6,0,0,0,1.2-2.8,3.9,3.9,0,0,0-2.4-3.6.8.8,0,0,1-.4-.7v-15a1.1,1.1,0,0,0-1.1-1.1.8.8,0,0,1-.8-.8.7.7,0,0,1,.8-.7,2.6,2.6,0,0,1,2.6,2.6V27a5.3,5.3,0,0,1,2.8,4.7,5.5,5.5,0,0,1-1.6,3.9A5.5,5.5,0,0,1,28.7,37.2Z"/><path class="cls-2" d="M28.7,32.5h-.3l-.3-.2c0-.1-.1-.2-.1-.3s-.1-.1-.1-.2a1.4,1.4,0,0,1,.2-.6h.3a.4.4,0,0,1,.5,0h.3a1.4,1.4,0,0,1,.2.6V32l-.2.3-.3.2Z"/><path class="cls-2" d="M28.6,37.2h0a5.7,5.7,0,0,1-3.9-1.8,5.8,5.8,0,0,1-1.5-4.1A5.4,5.4,0,0,1,26,27V12.4a2.7,2.7,0,0,1,2.7-2.6.7.7,0,0,1,.7.7.8.8,0,0,1-.7.8,1.1,1.1,0,0,0-1.2,1.1v15a.7.7,0,0,1-.4.7,3.9,3.9,0,0,0-2.4,3.3,4.4,4.4,0,0,0,1.1,2.9,4.2,4.2,0,0,0,2.8,1.4.7.7,0,0,1,.7.7A.8.8,0,0,1,28.6,37.2Z"/><path class="cls-2" d="M28.7,33.8a2.5,2.5,0,0,1-1.5-.6,2.4,2.4,0,0,1-.5-1.4,2.5,2.5,0,0,1,.5-1.5,2.3,2.3,0,0,1,2.9,0,2.5,2.5,0,0,1,.6,1.5,2.1,2.1,0,0,1-2,2Z"/></svg>