<svg id="Capa_1" data-name="Capa 1" xmlns="http://www.w3.org/2000/svg" viewBox="0 0 84 84"><defs><style>.cls-1{fill:#19a500;}.cls-2{fill:#95a6b1;}.cls-3{fill:none;}.cls-4{fill:#4da12e;}.cls-5{fill:#96d200;}</style></defs><title>clima</title><path class="cls-1" d="M30.2,26.5a5.5,5.5,0,0,1-4.9-3.1A5.3,5.3,0,0,1,28,16.2a5.2,5.2,0,0,1,7.1,2.7h0a5.3,5.3,0,0,1,.3,3.9A5.7,5.7,0,0,1,32.5,26,4.8,4.8,0,0,1,30.2,26.5Zm0-8.8a3.2,3.2,0,0,0-1.4.3,3.4,3.4,0,1,0,2.8,6.2,3.7,3.7,0,0,0,1.9-2,3.6,3.6,0,0,0-.2-2.5h0A3.4,3.4,0,0,0,30.2,17.7Z"/><path class="cls-2" d="M53.6,33.5a1,1,0,0,1-.1-2,8.6,8.6,0,0,0,5.2-2.6A9.1,9.1,0,0,0,45.8,16a8.6,8.6,0,0,0-2.6,5.2,1,1,0,1,1-2-.2,10.9,10.9,0,0,1,3.2-6.4A11.1,11.1,0,0,1,60.1,30.3a10.6,10.6,0,0,1-6.4,3.2Z"/><g id="Grupo_13000-2" data-name="Grupo 13000-2"><g id="Línea_2225" data-name="Línea 2225"><path class="cls-2" d="M51.7,10.1a1.1,1.1,0,0,1-1-1V3.8a1.1,1.1,0,0,1,1-1,1,1,0,0,1,1,1V9.1A1,1,0,0,1,51.7,10.1Z"/></g></g><g id="Grupo_13001" data-name="Grupo 13001"><g id="Línea_2227" data-name="Línea 2227"><path class="cls-2" d="M71,23.3H65.8a.9.9,0,0,1-1-1,1,1,0,0,1,1-1H71a1,1,0,0,1,1,1A.9.9,0,0,1,71,23.3Z"/></g></g><g id="Grupo_13002" data-name="Grupo 13002"><g id="Línea_2229" data-name="Línea 2229"><path class="cls-2" d="M61.3,13.8a1.1,1.1,0,0,1-.7-.3,1,1,0,0,1,0-1.4l3.7-3.7a1,1,0,0,1,1.4,1.4L62,13.5A.9.9,0,0,1,61.3,13.8Z"/></g></g><g id="Línea_2230" data-name="Línea 2230"><path class="cls-2" d="M65,36.6a1.1,1.1,0,0,1-.7-.3l-3.7-3.7A1,1,0,1,1,62,31.2l3.7,3.7a1,1,0,0,1,0,1.4A.9.9,0,0,1,65,36.6Z"/></g><g id="Línea_2231" data-name="Línea 2231"><path class="cls-2" d="M42.8,14.3a.9.9,0,0,1-.7-.3l-3.7-3.7a1,1,0,1,1,1.4-1.4l3.7,3.7a1,1,0,0,1,0,1.4A1.1,1.1,0,0,1,42.8,14.3Z"/></g><path class="cls-2" d="M48.8,44.6H22.4a7.6,7.6,0,1,1,0-15.2l1.4.2a15,15,0,0,1,.6-2.9,1,1,0,0,1,1.3-.5.9.9,0,0,1,.6,1.2,10.3,10.3,0,0,0-.6,3.5,1.2,1.2,0,0,1-.4.8,1.4,1.4,0,0,1-.9.1,4.8,4.8,0,0,0-2-.4,5.6,5.6,0,1,0,0,11.2H48.8a5.6,5.6,0,0,0,0-11.2H48a1.1,1.1,0,0,1-.8-.2,1.2,1.2,0,0,1-.4-.8A10.5,10.5,0,0,0,38,20.6a1,1,0,0,1-.8-1.1,1,1,0,0,1,1.2-.9A12.7,12.7,0,0,1,48.7,29.4a7.6,7.6,0,1,1,.1,15.2Z"/><path class="cls-2" d="M23.6,58.5h-.4a1.1,1.1,0,0,1-.5-1.4l3.6-7.2a1,1,0,0,1,1.3-.5,1.1,1.1,0,0,1,.5,1.4l-3.6,7.2A1,1,0,0,1,23.6,58.5Z"/><path class="cls-2" d="M34.6,55.6h-.4a1,1,0,0,1-.5-1.3l3.6-7.3a1.2,1.2,0,0,1,1.4-.4.9.9,0,0,1,.4,1.3l-3.6,7.3A1.1,1.1,0,0,1,34.6,55.6Z"/><path class="cls-2" d="M42,62.1h-.5a.9.9,0,0,1-.4-1.3l3.6-7.3A.9.9,0,0,1,46,53a1,1,0,0,1,.5,1.3l-3.6,7.3A1.1,1.1,0,0,1,42,62.1Z"/><rect class="cls-3" width="84" height="84"/><rect class="cls-3" y="63.1" width="84" height="20.93"/><path class="cls-4" d="M58.1,79.4h-9a1.5,1.5,0,1,1,0-3h9a1.5,1.5,0,0,1,0,3Z"/><path class="cls-4" d="M67.8,79.4H67a1.5,1.5,0,0,1,0-3h.8a1.5,1.5,0,0,1,0,3Z"/><path class="cls-4" d="M25.1,79.4H16.2a1.5,1.5,0,0,1,0-3h8.9a1.5,1.5,0,0,1,0,3Z"/><path class="cls-5" d="M40.2,79.4H24.5a1.5,1.5,0,0,1,0-3H40.2a1.5,1.5,0,0,1,0,3Z"/><path class="cls-5" d="M45.7,71.8H16.2a1.5,1.5,0,0,1-1.5-1.5,1.5,1.5,0,0,1,1.5-1.5H45.7a1.5,1.5,0,0,1,1.5,1.5A1.5,1.5,0,0,1,45.7,71.8Z"/><path class="cls-4" d="M67.8,71.8h-23a1.5,1.5,0,0,1-1.5-1.5,1.5,1.5,0,0,1,1.5-1.5h23a1.5,1.5,0,0,1,1.5,1.5A1.5,1.5,0,0,1,67.8,71.8Z"/><path class="cls-4" d="M16.8,71.8h-.6a1.5,1.5,0,0,1-1.5-1.5,1.5,1.5,0,0,1,1.5-1.5h.6a1.5,1.5,0,0,1,1.5,1.5A1.5,1.5,0,0,1,16.8,71.8Z"/></svg>