<?xml version="1.0" encoding="utf-8"?>
<!-- Generator: Adobe Illustrator 24.0.2, SVG Export Plug-In . SVG Version: 6.00 Build 0)  -->
<svg version="1.1" id="Capa_1" xmlns="http://www.w3.org/2000/svg" xmlns:xlink="http://www.w3.org/1999/xlink" x="0px" y="0px"
	 viewBox="0 0 65 65" style="enable-background:new 0 0 65 65;" xml:space="preserve">
<style type="text/css">
	.st0{display:none;}
	.st1{fill:none;}
	.st2{clip-path:url(#SVGID_2_);}
	.st3{fill:#19A301;}
	.st4{fill:#82D400;}
	.st5{fill:none;stroke:#00A800;stroke-width:1.6;stroke-linecap:round;stroke-linejoin:round;stroke-miterlimit:10;}
	.st6{fill:none;stroke:#95A6B1;stroke-width:1.6;stroke-linecap:round;stroke-linejoin:round;stroke-miterlimit:10;}
</style>
<g id="BASE" class="st0">
</g>
<g id="Capa_1_1_">
	<g>
		<rect class="st1" width="65" height="65"/>
		<g>
			<defs>
				<rect id="SVGID_1_" y="48.26" width="65" height="16.74"/>
			</defs>
			<clipPath id="SVGID_2_">
				<use xlink:href="#SVGID_1_"  style="overflow:visible;"/>
			</clipPath>
			<g class="st2">
				<g>
					<rect y="48.26" class="st1" width="65" height="16.74"/>
				</g>
				<g>
					<g>
						<path class="st3" d="M45.38,61.32h-7.17c-0.66,0-1.2-0.54-1.2-1.2s0.54-1.2,1.2-1.2h7.17c0.66,0,1.2,0.54,1.2,1.2
							S46.04,61.32,45.38,61.32z"/>
					</g>
					<g>
						<path class="st3" d="M53.11,61.32h-0.58c-0.66,0-1.2-0.54-1.2-1.2s0.54-1.2,1.2-1.2h0.58c0.66,0,1.2,0.54,1.2,1.2
							S53.77,61.32,53.11,61.32z"/>
					</g>
					<g>
						<path class="st3" d="M18.99,61.32h-7.1c-0.66,0-1.2-0.54-1.2-1.2s0.54-1.2,1.2-1.2h7.1c0.66,0,1.2,0.54,1.2,1.2
							S19.65,61.32,18.99,61.32z"/>
					</g>
					<g>
						<path class="st4" d="M31.05,61.32H18.53c-0.66,0-1.2-0.54-1.2-1.2s0.54-1.2,1.2-1.2h12.52c0.66,0,1.2,0.54,1.2,1.2
							S31.71,61.32,31.05,61.32z"/>
					</g>
					<g>
						<path class="st4" d="M35.47,55.21H11.89c-0.66,0-1.2-0.54-1.2-1.2s0.54-1.2,1.2-1.2h23.58c0.66,0,1.2,0.54,1.2,1.2
							S36.13,55.21,35.47,55.21z"/>
					</g>
					<g>
						<path class="st3" d="M53.11,55.21H34.75c-0.66,0-1.2-0.54-1.2-1.2s0.54-1.2,1.2-1.2h18.36c0.66,0,1.2,0.54,1.2,1.2
							S53.77,55.21,53.11,55.21z"/>
					</g>
					<g>
						<path class="st3" d="M12.32,55.21h-0.43c-0.66,0-1.2-0.54-1.2-1.2s0.54-1.2,1.2-1.2h0.43c0.66,0,1.2,0.54,1.2,1.2
							S12.98,55.21,12.32,55.21z"/>
					</g>
				</g>
			</g>
		</g>
		<g>
			<path class="st5" d="M17.66,29c0.34,0.74,0.36,1.55,0.12,2.27c-0.26,0.79-0.84,1.48-1.66,1.85c-1.56,0.71-3.41,0.03-4.12-1.54
				s-0.03-3.41,1.54-4.12C15.1,26.75,16.94,27.43,17.66,29z"/>
			<g>
				<path class="st6" d="M51.61,43.21h-2.88V29.03h2.88V43.21z M13.39,36.12v7.09h2.88v-7.09"/>
				<g>
					<polyline class="st6" points="9.2,31.35 6.3,31.35 6.3,40.88 13.39,40.88 13.39,36.12 					"/>
					<path class="st6" d="M16.27,36.12v4.76h7.66c1.68,3.01,4.88,5.04,8.57,5.04s6.89-2.04,8.57-5.04h7.66v-9.53h-7.69
						c-1.02-1.82-2.58-3.29-4.48-4.15h-8.11c-1.91,0.87-3.46,2.34-4.48,4.15H20.5"/>
					<rect x="51.61" y="31.35" class="st6" width="7.09" height="9.53"/>
				</g>
				<path class="st6" d="M32.46,30.55c3.08,0,5.57,2.49,5.57,5.57s-2.49,5.57-5.57,5.57s-5.57-2.49-5.57-5.57"/>
			</g>
			<g>
				<rect id="Rectángulo_5166" x="28.13" y="20.6" class="st6" width="8.54" height="6.59"/>
				<rect id="Rectángulo_5167" x="30.29" y="17.83" class="st6" width="4.21" height="2.78"/>
				<path id="Rectángulo_5168" class="st6" d="M26.87,13.02h11.05c0.52,0,0.94,0.42,0.94,0.94v0.22c0,0.52-0.42,0.94-0.94,0.94
					H26.87c-0.52,0-0.94-0.42-0.94-0.94v-0.22C25.93,13.44,26.35,13.02,26.87,13.02z"/>
				<line id="Línea_2909" class="st6" x1="30.29" y1="17.83" x2="26.87" y2="15.12"/>
				<line id="Línea_2910" class="st6" x1="34.5" y1="17.83" x2="37.92" y2="15.12"/>
			</g>
		</g>
	</g>
</g>
</svg>
