<?xml version="1.0" encoding="utf-8"?>
<!-- Generator: Adobe Illustrator 24.0.2, SVG Export Plug-In . SVG Version: 6.00 Build 0)  -->
<svg version="1.1" id="Capa_1" xmlns="http://www.w3.org/2000/svg" xmlns:xlink="http://www.w3.org/1999/xlink" x="0px" y="0px"
	 viewBox="0 0 65 65" style="enable-background:new 0 0 65 65;" xml:space="preserve">
<style type="text/css">
	.st0{display:none;}
	.st1{fill:none;stroke:#95A6B1;stroke-width:1.6;stroke-linecap:round;stroke-linejoin:round;stroke-miterlimit:10;}
	.st2{fill:none;stroke:#00A800;stroke-width:1.6;stroke-linecap:round;stroke-linejoin:round;stroke-miterlimit:10;}
	.st3{fill:none;}
	.st4{clip-path:url(#SVGID_2_);}
	.st5{fill:#19A301;}
	.st6{fill:#82D400;}
</style>
<g id="BASE" class="st0">
</g>
<g id="Capa_1_1_">
	<g>
		<path class="st1" d="M19.73,23.38l-7.18,12.44c-1.02,1.77,0.26,3.99,2.3,3.99h14.36c2.05,0,3.33-2.22,2.3-3.99l-7.18-12.44
			C23.31,21.6,20.75,21.6,19.73,23.38z"/>
		<line class="st1" x1="22.03" y1="26.95" x2="22.03" y2="33.63"/>
		<line class="st1" x1="22.03" y1="36.5" x2="22.03" y2="36.5"/>
	</g>
	<g>
		<polyline class="st1" points="29.62,32.52 54.12,32.52 54.12,44.53 7.86,44.53 7.86,32.52 14.2,32.52 		"/>
		<rect x="3.79" y="31.68" class="st1" width="4.07" height="13.68"/>
		<rect x="54.13" y="31.68" class="st1" width="4.07" height="13.68"/>
		<path class="st2" d="M37.83,20.46c0.34,0.74,0.36,1.55,0.12,2.27c-0.26,0.79-0.84,1.48-1.66,1.85c-1.56,0.71-3.41,0.03-4.12-1.54
			c-0.71-1.56-0.03-3.41,1.54-4.12C35.27,18.21,37.12,18.89,37.83,20.46z"/>
		<polyline class="st1" points="36.24,26.98 36.24,32.52 48.33,32.52 48.33,22.04 40.7,22.04 		"/>
		<line class="st1" x1="40.66" y1="25.28" x2="48.33" y2="25.28"/>
		<rect class="st3" width="65" height="65"/>
		<circle id="Elipse_2295_1_" class="st1" cx="42.82" cy="11.46" r="6.21"/>
		<line id="Línea_2439_1_" class="st1" x1="44.84" y1="11.14" x2="42.86" y2="11.14"/>
		<line id="Línea_2440_1_" class="st1" x1="42.86" y1="10.04" x2="42.86" y2="12.24"/>
		<line class="st1" x1="42.82" y1="17.67" x2="42.82" y2="22.04"/>
		<g>
			<line class="st1" x1="37.17" y1="38.55" x2="49.41" y2="38.55"/>
			<polyline class="st1" points="46.43,35.44 49.55,38.55 46.43,41.67 			"/>
		</g>
		<g>
			<defs>
				<rect id="SVGID_1_" y="48.26" width="65" height="16.74"/>
			</defs>
			<clipPath id="SVGID_2_">
				<use xlink:href="#SVGID_1_"  style="overflow:visible;"/>
			</clipPath>
			<g class="st4">
				<g>
					<rect y="48.26" class="st3" width="65" height="16.74"/>
				</g>
				<g>
					<g>
						<path class="st5" d="M45.38,61.32h-7.17c-0.66,0-1.2-0.54-1.2-1.2s0.54-1.2,1.2-1.2h7.17c0.66,0,1.2,0.54,1.2,1.2
							S46.04,61.32,45.38,61.32z"/>
					</g>
					<g>
						<path class="st5" d="M53.11,61.32h-0.58c-0.66,0-1.2-0.54-1.2-1.2s0.54-1.2,1.2-1.2h0.58c0.66,0,1.2,0.54,1.2,1.2
							S53.77,61.32,53.11,61.32z"/>
					</g>
					<g>
						<path class="st5" d="M18.99,61.32h-7.1c-0.66,0-1.2-0.54-1.2-1.2s0.54-1.2,1.2-1.2h7.1c0.66,0,1.2,0.54,1.2,1.2
							S19.65,61.32,18.99,61.32z"/>
					</g>
					<g>
						<path class="st6" d="M31.05,61.32H18.53c-0.66,0-1.2-0.54-1.2-1.2s0.54-1.2,1.2-1.2h12.52c0.66,0,1.2,0.54,1.2,1.2
							S31.71,61.32,31.05,61.32z"/>
					</g>
					<g>
						<path class="st6" d="M35.47,55.21H11.89c-0.66,0-1.2-0.54-1.2-1.2s0.54-1.2,1.2-1.2h23.58c0.66,0,1.2,0.54,1.2,1.2
							S36.13,55.21,35.47,55.21z"/>
					</g>
					<g>
						<path class="st5" d="M53.11,55.21H34.75c-0.66,0-1.2-0.54-1.2-1.2s0.54-1.2,1.2-1.2h18.36c0.66,0,1.2,0.54,1.2,1.2
							S53.77,55.21,53.11,55.21z"/>
					</g>
					<g>
						<path class="st5" d="M12.32,55.21h-0.43c-0.66,0-1.2-0.54-1.2-1.2s0.54-1.2,1.2-1.2h0.43c0.66,0,1.2,0.54,1.2,1.2
							S12.98,55.21,12.32,55.21z"/>
					</g>
				</g>
			</g>
		</g>
	</g>
</g>
</svg>
