<svg id="Capa_1" data-name="Capa 1" xmlns="http://www.w3.org/2000/svg" viewBox="0 0 64 64"><defs><style>.cls-1{fill:#fff;}.cls-2{fill:none;}</style></defs><title>altitud</title><g id="Grupo_11726" data-name="Grupo 11726"><g id="Grupo_11723" data-name="Grupo 11723"><g id="Línea_2111" data-name="Línea 2111"><path class="cls-1" d="M57.5,53.9H6.5a.9.9,0,0,1,0-1.8h51a.9.9,0,0,1,0,1.8Z"/></g><g id="Línea_2112" data-name="Línea 2112"><path class="cls-1" d="M12.1,53.7h-.3a.9.9,0,0,1-.5-1.2l2.4-5.4a.9.9,0,0,1,1.2-.4.8.8,0,0,1,.4,1.1L13,53.2A1.1,1.1,0,0,1,12.1,53.7Z"/></g><g id="Trazado_10653" data-name="Trazado 10653"><path class="cls-1" d="M52,53.6a.8.8,0,0,1-.8-.6L39.9,24.7,37.1,27a1.3,1.3,0,0,1-.8.2.9.9,0,0,1-.6-.6L30,13.3,21.6,33.1a.9.9,0,1,1-1.6-.7l9.2-21.7a.8.8,0,0,1,.8-.6h0a.8.8,0,0,1,.8.6l6.1,14.1,2.8-2.2a.9.9,0,0,1,.8-.2,1,1,0,0,1,.6.5L52.8,52.4a.8.8,0,0,1-.5,1.1Z"/></g></g><g id="Línea_2113" data-name="Línea 2113"><path class="cls-1" d="M48.6,37.8h-13a.9.9,0,0,1,0-1.8h13a.9.9,0,0,1,0,1.8Z"/></g><g id="Línea_2114" data-name="Línea 2114"><path class="cls-1" d="M50.6,43.2h-7a.9.9,0,0,1,0-1.8h7a.9.9,0,0,1,0,1.8Z"/></g><g id="Trazado_11700" data-name="Trazado 11700"><path class="cls-1" d="M17.7,45.3a5.7,5.7,0,0,1-1.8-.3,5.2,5.2,0,0,1-3-2.8,5,5,0,0,1-.1-4,5.1,5.1,0,0,1,2.7-2.9,5.1,5.1,0,0,1,4-.2,5.7,5.7,0,0,1,3,2.7h0a5,5,0,0,1,.1,4,4.8,4.8,0,0,1-2.7,2.9A4.4,4.4,0,0,1,17.7,45.3Zm0-8.7a3.2,3.2,0,0,0-1.4.3,3.3,3.3,0,0,0-1.8,1.9,3.2,3.2,0,0,0,.1,2.7,3.1,3.1,0,0,0,1.9,1.8,3.5,3.5,0,0,0,4.4-2,3.2,3.2,0,0,0-.1-2.7h0l.9-.4-.9.4a3.1,3.1,0,0,0-1.9-1.8Z"/></g></g><rect class="cls-2" width="64" height="64"/></svg>