<svg id="Capa_1" data-name="Capa 1" xmlns="http://www.w3.org/2000/svg" viewBox="0 0 64 64"><defs><style>.cls-1{fill:#fff;}.cls-2{fill:none;}</style></defs><title>estacion_rio</title><path class="cls-1" d="M17.5,26.7a4.3,4.3,0,0,1-4-2.5,4.5,4.5,0,0,1,2.2-5.9,4.4,4.4,0,0,1,5.8,2.2h0a4.3,4.3,0,0,1-2.2,5.8A3.9,3.9,0,0,1,17.5,26.7Zm0-7a2.3,2.3,0,0,0-1.1.3,2.6,2.6,0,0,0-1.3,3.4,2.7,2.7,0,0,0,3.5,1.3A2.8,2.8,0,0,0,20,23.1a3.1,3.1,0,0,0-.1-1.9A2.8,2.8,0,0,0,17.5,19.7Z"/><path class="cls-1" d="M12.1,47.4a.9.9,0,0,1-.9-.9V32.2a.9.9,0,0,1,.9-.9H51.3a.9.9,0,0,1,.9.9V45.9a.9.9,0,0,1-1.8,0V33.1H13V46.5A.9.9,0,0,1,12.1,47.4Z"/><path class="cls-1" d="M12.1,36.8a1,1,0,0,1-.9-.9V32.2a.9.9,0,1,1,1.8,0v3.7A1,1,0,0,1,12.1,36.8Z"/><path class="cls-1" d="M43.6,36.8a1,1,0,0,1-.9-.9V32.2a.9.9,0,1,1,1.8,0v3.7A1,1,0,0,1,43.6,36.8Z"/><path class="cls-1" d="M51.4,36.8a.9.9,0,0,1-.9-.9V32.2a.9.9,0,0,1,.9-.9,1,1,0,0,1,.9.9v3.7A1,1,0,0,1,51.4,36.8Z"/><path class="cls-1" d="M54.3,36.8H9.2a.9.9,0,1,1,0-1.8H54.3a.9.9,0,0,1,0,1.8Z"/><path class="cls-1" d="M37,43H12.2a.9.9,0,0,1-.9-.9,1,1,0,0,1,.9-.9H37a1,1,0,0,1,.9.9A.9.9,0,0,1,37,43Z"/><path class="cls-1" d="M51.3,43H46.7a.9.9,0,0,1-.9-.9,1,1,0,0,1,.9-.9h4.6a1,1,0,0,1,.9.9A.9.9,0,0,1,51.3,43Z"/><path class="cls-1" d="M17.3,16.6a.9.9,0,0,1-.9-.9V13a3.7,3.7,0,0,1,3.7-3.7h4.3a.9.9,0,0,1,0,1.8H20.1A1.9,1.9,0,0,0,18.2,13v2.7A.9.9,0,0,1,17.3,16.6Z"/><path class="cls-1" d="M27.2,36.8a1,1,0,0,1-.9-.9V13a1.9,1.9,0,0,0-1.9-1.9.9.9,0,1,1,0-1.8A3.7,3.7,0,0,1,28.1,13V35.9A1,1,0,0,1,27.2,36.8Z"/><path class="cls-1" d="M37,33.1a.9.9,0,0,1-.9-.9V28a2.7,2.7,0,0,0-2.5-2.8H27.2a.9.9,0,0,1,0-1.8h6.4A4.5,4.5,0,0,1,37.9,28v4.2A.9.9,0,0,1,37,33.1Z"/><path class="cls-1" d="M31.4,36.8a1,1,0,0,1-.9-.9V20.4A2.6,2.6,0,0,0,28,17.6h-.5a.9.9,0,0,1,0-1.8H28a4.4,4.4,0,0,1,4.3,4.6V35.9A.9.9,0,0,1,31.4,36.8Z"/><path class="cls-1" d="M17.3,36.8a.9.9,0,0,1-.9-.9V28.6a.9.9,0,0,1,1.8,0v7.3A.9.9,0,0,1,17.3,36.8Z"/><path class="cls-1" d="M55.8,49.3a5.7,5.7,0,0,1-3.9-1.6,3.6,3.6,0,0,0-2.7-1.2,3.7,3.7,0,0,0-2.8,1.2,5.7,5.7,0,0,1-3.9,1.6,5.5,5.5,0,0,1-3.9-1.6,3.7,3.7,0,0,0-2.8-1.2,3.6,3.6,0,0,0-2.7,1.2,5.7,5.7,0,0,1-3.9,1.6,5.5,5.5,0,0,1-3.9-1.6,3.8,3.8,0,0,0-2.8-1.2,3.4,3.4,0,0,0-2.7,1.2,5.9,5.9,0,0,1-4,1.6,5.7,5.7,0,0,1-3.9-1.6,3.6,3.6,0,0,0-2.7-1.2.9.9,0,1,1,0-1.8,5.7,5.7,0,0,1,3.9,1.6,3.6,3.6,0,0,0,2.7,1.2,3.7,3.7,0,0,0,2.8-1.2,5.6,5.6,0,0,1,7.8,0,3.7,3.7,0,0,0,2.8,1.2,3.6,3.6,0,0,0,2.7-1.2,5.7,5.7,0,0,1,3.9-1.6,5.5,5.5,0,0,1,3.9,1.6,3.7,3.7,0,0,0,2.8,1.2,3.6,3.6,0,0,0,2.7-1.2,5.9,5.9,0,0,1,4-1.6,5.9,5.9,0,0,1,3.9,1.6,3.6,3.6,0,0,0,2.7,1.2.9.9,0,0,1,0,1.8Z"/><path class="cls-1" d="M55.8,56.1a5.7,5.7,0,0,1-3.9-1.6,3.6,3.6,0,0,0-2.7-1.2,3.7,3.7,0,0,0-2.8,1.2,5.7,5.7,0,0,1-3.9,1.6,5.5,5.5,0,0,1-3.9-1.6,3.7,3.7,0,0,0-2.8-1.2,3.6,3.6,0,0,0-2.7,1.2,5.7,5.7,0,0,1-3.9,1.6,5.5,5.5,0,0,1-3.9-1.6,3.8,3.8,0,0,0-2.8-1.2,3.4,3.4,0,0,0-2.7,1.2,5.9,5.9,0,0,1-4,1.6,5.7,5.7,0,0,1-3.9-1.6,3.6,3.6,0,0,0-2.7-1.2.9.9,0,1,1,0-1.8,5.7,5.7,0,0,1,3.9,1.6,3.6,3.6,0,0,0,2.7,1.2,3.7,3.7,0,0,0,2.8-1.2,5.6,5.6,0,0,1,7.8,0,3.7,3.7,0,0,0,2.8,1.2,3.6,3.6,0,0,0,2.7-1.2,5.7,5.7,0,0,1,3.9-1.6,5.5,5.5,0,0,1,3.9,1.6,3.7,3.7,0,0,0,2.8,1.2,3.6,3.6,0,0,0,2.7-1.2,5.9,5.9,0,0,1,4-1.6,5.9,5.9,0,0,1,3.9,1.6,3.6,3.6,0,0,0,2.7,1.2.9.9,0,1,1,0,1.8Z"/><rect class="cls-2" width="64" height="64"/></svg>