<svg id="Capa_1" data-name="Capa 1" xmlns="http://www.w3.org/2000/svg" viewBox="0 0 64 64"><defs><style>.cls-1{fill:#fff;}.cls-2{fill:none;}</style></defs><title>temperatura</title><path class="cls-1" d="M32.8,53.3A5.3,5.3,0,1,1,38.1,48,5.3,5.3,0,0,1,32.8,53.3Zm0-8.8A3.5,3.5,0,0,0,29.3,48a3.5,3.5,0,0,0,3.5,3.5A3.5,3.5,0,0,0,36.3,48,3.4,3.4,0,0,0,32.8,44.5Z"/><path class="cls-1" d="M32.8,57.5H31.7a9.5,9.5,0,0,1-8.3-8,9.4,9.4,0,0,1,4.1-9.4V12.9a5.3,5.3,0,0,1,10.6,0v4.6a.9.9,0,1,1-1.8,0V12.9a3.4,3.4,0,0,0-3.5-3.5,3.5,3.5,0,0,0-3.5,3.5V40.5a.9.9,0,0,1-.4.8,7.7,7.7,0,0,0-3.7,8,7.7,7.7,0,0,0,6.7,6.4A7.5,7.5,0,0,0,38,53.8,8,8,0,0,0,40.6,48a7.6,7.6,0,0,0-3.8-6.7.8.8,0,0,1-.5-.8V31.2a.9.9,0,0,1,1.8,0v8.9A9.3,9.3,0,0,1,42.4,48a9.5,9.5,0,0,1-9.6,9.5Z"/><path class="cls-1" d="M32.8,44.5a.9.9,0,0,1-.9-.9v-28a.9.9,0,1,1,1.8,0v28A.9.9,0,0,1,32.8,44.5Z"/><path class="cls-1" d="M30.2,18.9H28.4a.9.9,0,0,1,0-1.8h1.8a.9.9,0,0,1,0,1.8Z"/><path class="cls-1" d="M30.2,23.4H28.4a.9.9,0,0,1,0-1.8h1.8a.9.9,0,0,1,0,1.8Z"/><path class="cls-1" d="M30.2,27.9H28.4a.9.9,0,0,1,0-1.8h1.8a.9.9,0,0,1,0,1.8Z"/><path class="cls-1" d="M30.2,32.4H28.4a.9.9,0,0,1,0-1.8h1.8a.9.9,0,0,1,0,1.8Z"/><g id="Trazado_11700" data-name="Trazado 11700"><path class="cls-1" d="M39.7,29.9a5.7,5.7,0,0,1-1.8-.3A5.5,5.5,0,0,1,35.1,27a5,5,0,0,1,6.3-6.8,4.8,4.8,0,0,1,2.8,2.6h0a5.3,5.3,0,0,1,.2,3.9,5.5,5.5,0,0,1-2.6,2.8A5.2,5.2,0,0,1,39.7,29.9Zm0-8.2a3.5,3.5,0,0,0-1.4.3,3.2,3.2,0,0,0-1.6,1.8,3.1,3.1,0,0,0,1.8,4.1,3.1,3.1,0,0,0,2.5-.1A3,3,0,0,0,42.7,26a3.3,3.3,0,0,0-.1-2.4h0a3.3,3.3,0,0,0-1.8-1.7Z"/></g><rect class="cls-2" width="64" height="64"/></svg>