<?xml version="1.0" encoding="utf-8"?>
<!-- Generator: Adobe Illustrator 24.0.2, SVG Export Plug-In . SVG Version: 6.00 Build 0)  -->
<svg version="1.1" xmlns="http://www.w3.org/2000/svg" xmlns:xlink="http://www.w3.org/1999/xlink" x="0px" y="0px"
	 viewBox="0 0 49 49" style="enable-background:new 0 0 49 49;" xml:space="preserve">
<style type="text/css">
	.st0{display:none;}
	.st1{display:inline;fill:#19A500;}
	.st2{fill:none;stroke:#FFFFFF;stroke-width:1.5663;stroke-linecap:round;stroke-linejoin:round;}
	.st3{fill:none;stroke:#FFFFFF;stroke-width:1.6556;stroke-linecap:round;stroke-linejoin:round;}
	.st4{fill:none;stroke:#FFFFFF;stroke-width:1.4449;stroke-linecap:round;stroke-linejoin:round;}
</style>
<g id="Capa_2" class="st0">
	<rect x="-1.34" y="-1.78" class="st1" width="51.67" height="52.55"/>
</g>
<g id="Capa_1">
	<g id="Grupo_10332_1_" transform="translate(142 476.052)">
		<ellipse id="Elipse_1636_1_" class="st2" cx="-117.5" cy="-451.55" rx="23.5" ry="23.5"/>
		<g>
			<g>
				<g>
					<line class="st2" x1="-106.98" y1="-435.04" x2="-127.26" y2="-435.04"/>
					<path class="st2" d="M-116.5-438.4l-10.76-1.78c0,0-0.93,0.93-0.93,2.63c0,1.7,0.93,2.51,0.93,2.51"/>
					<path class="st2" d="M-106.98-435.04c0.72-2.41-1.03-3.02-1.03-3.02l-7.55-3.21l-1.3,4.26v1.76"/>
				</g>
			</g>
			<g>
				<g>
					<g>
						<path class="st2" d="M-107.12-437.29c2.15-0.44,3.11-1.41,3.11-1.41l-3.29-20.12h-20.22l-3.47,20.13c0,0,1.01,0.51,2.81,1.1"
							/>
						<path class="st4" d="M-117.49-470.07h-0.02c-4.15,0-7.51,3.36-7.51,7.51v3.74h15.04v-3.74
							C-109.98-466.71-113.34-470.07-117.49-470.07z"/>
						<g>
							<line class="st2" x1="-118.28" y1="-454" x2="-116.46" y2="-454"/>
							<line class="st2" x1="-106.81" y1="-454" x2="-113.25" y2="-454"/>
						</g>
						<g>
							<line class="st2" x1="-118.47" y1="-444.28" x2="-120.3" y2="-444.28"/>
							<line class="st2" x1="-129.95" y1="-444.28" x2="-123.51" y2="-444.28"/>
						</g>
					</g>
				</g>
				<g>
					<path class="st2" d="M-128.12-450c2.21,0,2.21,1.65,4.42,1.65c2.21,0,2.21-1.65,4.42-1.65c2.21,0,2.21,1.65,4.42,1.65
						c2.21,0,2.21-1.65,4.42-1.65s2.21,1.65,4.42,1.65"/>
				</g>
			</g>
		</g>
	</g>
</g>
</svg>
