<?xml version="1.0" encoding="utf-8"?>
<!-- Generator: Adobe Illustrator 24.0.2, SVG Export Plug-In . SVG Version: 6.00 Build 0)  -->
<svg version="1.1" xmlns="http://www.w3.org/2000/svg" xmlns:xlink="http://www.w3.org/1999/xlink" x="0px" y="0px"
	 viewBox="0 0 49 49" style="enable-background:new 0 0 49 49;" xml:space="preserve">
<style type="text/css">
	.st0{display:none;}
	.st1{display:inline;fill:#19A500;}
	.st2{fill:none;stroke:#FFFFFF;stroke-width:1.5663;stroke-linecap:round;stroke-linejoin:round;}
	.st3{fill:none;stroke:#FFFFFF;stroke-width:1.6556;stroke-linecap:round;stroke-linejoin:round;}
	.st4{fill:none;stroke:#FFFFFF;stroke-width:1.4449;stroke-linecap:round;stroke-linejoin:round;}
</style>
<g id="Capa_2" class="st0">
	<rect x="-1.34" y="-1.78" class="st1" width="51.67" height="52.55"/>
</g>
<g id="Capa_1">
	<g id="Grupo_10332_4_" transform="translate(142 476.052)">
		<ellipse id="Elipse_1636_4_" class="st2" cx="-117.5" cy="-451.55" rx="23.5" ry="23.5"/>
		<g>
			<g>
			</g>
			<g>
				
					<ellipse transform="matrix(0.9952 -0.0977 0.0977 0.9952 44.3353 -13.3719)" class="st2" cx="-114.31" cy="-459.2" rx="6.5" ry="4.93"/>
				<path class="st2" d="M-114.8-464.11c-9.47,1.26-18.41,15.34-18.41,15.34c3.35-1.18,8.59-1.55,14.73,0.41
					c2.63,0.84,8.3,4.8,11.94,0.49c4.15-4.91-2.06-9.25-2.06-9.25s3.39-0.45,5.86,0.11c0,0-0.6-3.55-5.44-4.06"/>
				<path class="st2" d="M-120.79-458.57c0,0,0.01,3.88,6.9,6.37c0,0,4.42,1.2,7.98,3.43"/>
				<circle class="st2" cx="-112.29" cy="-458.93" r="1.37"/>
				<path class="st2" d="M-117.95-463.14c0,0-2.49-3.78-0.56-5.11c1.93-1.33,2.71,0.64,2.71,0.64s1.19-3.45,3.03-3.22
					c1.84,0.23,1.84,2.07,1.56,3.03c0,0,2.25-0.23,2.67,1.15c0.41,1.38-0.32,2.51-1.29,3.51"/>
				<path class="st2" d="M-105.91-448.76c0,0,4.14,3.26,3.46,8.85"/>
			</g>
		</g>
		<path class="st2" d="M-137.23-445.89c0,0,3.04-1.43,4.03-2.87"/>
	</g>
	<path class="st2" d="M31.12,36.78c0.6-0.65,1.17-1.4,1.71-2.26"/>
	<path class="st2" d="M15.7,39.32c0,0,6.99,3.28,12.95-0.47"/>
</g>
</svg>
