<?xml version="1.0" encoding="utf-8"?>
<!-- Generator: Adobe Illustrator 24.0.2, SVG Export Plug-In . SVG Version: 6.00 Build 0)  -->
<svg version="1.1" xmlns="http://www.w3.org/2000/svg" xmlns:xlink="http://www.w3.org/1999/xlink" x="0px" y="0px"
	 viewBox="0 0 65 65" style="enable-background:new 0 0 65 65;" xml:space="preserve">
<style type="text/css">
	.st0{display:none;}
	.st1{display:inline;fill:#98A6B0;}
	.st2{fill:none;}
	.st3{fill:#4C9F2E;}
	.st4{fill:#94D040;}
	.st5{fill:none;stroke:#00A800;stroke-width:1.6;stroke-linecap:round;stroke-linejoin:round;stroke-miterlimit:10;}
	.st6{fill:none;stroke:#95A6B1;stroke-width:1.6;stroke-linecap:round;stroke-linejoin:round;}
	.st7{fill:none;stroke:#FFFFFF;stroke-width:1.5;stroke-linecap:round;stroke-linejoin:round;}
</style>
<g id="BASE" class="st0">
</g>
<g id="Capa_1">
	<g>
		<g>
			<g>
				<g>
					<rect x="0.15" y="48.26" class="st2" width="65" height="16.74"/>
				</g>
				<g>
					<g>
						<path class="st3" d="M45.53,61.32h-7.17c-0.66,0-1.2-0.54-1.2-1.2s0.54-1.2,1.2-1.2h7.17c0.66,0,1.2,0.54,1.2,1.2
							S46.19,61.32,45.53,61.32z"/>
					</g>
					<g>
						<path class="st3" d="M53.26,61.32h-0.58c-0.66,0-1.2-0.54-1.2-1.2s0.54-1.2,1.2-1.2h0.58c0.66,0,1.2,0.54,1.2,1.2
							S53.92,61.32,53.26,61.32z"/>
					</g>
					<g>
						<path class="st3" d="M19.14,61.32h-7.1c-0.66,0-1.2-0.54-1.2-1.2s0.54-1.2,1.2-1.2h7.1c0.66,0,1.2,0.54,1.2,1.2
							S19.8,61.32,19.14,61.32z"/>
					</g>
					<g>
						<path class="st4" d="M31.19,61.32H18.68c-0.66,0-1.2-0.54-1.2-1.2s0.54-1.2,1.2-1.2h12.52c0.66,0,1.2,0.54,1.2,1.2
							S31.86,61.32,31.19,61.32z"/>
					</g>
					<g>
						<path class="st4" d="M35.62,55.21H12.04c-0.66,0-1.2-0.54-1.2-1.2s0.54-1.2,1.2-1.2h23.58c0.66,0,1.2,0.54,1.2,1.2
							S36.28,55.21,35.62,55.21z"/>
					</g>
					<g>
						<path class="st3" d="M53.26,55.21H34.89c-0.66,0-1.2-0.54-1.2-1.2s0.54-1.2,1.2-1.2h18.36c0.66,0,1.2,0.54,1.2,1.2
							S53.92,55.21,53.26,55.21z"/>
					</g>
					<g>
						<path class="st3" d="M12.47,55.21h-0.43c-0.66,0-1.2-0.54-1.2-1.2s0.54-1.2,1.2-1.2h0.43c0.66,0,1.2,0.54,1.2,1.2
							S13.13,55.21,12.47,55.21z"/>
					</g>
				</g>
			</g>
		</g>
		<rect x="0.15" class="st2" width="65" height="65"/>
		<rect x="0.15" y="0.12" class="st2" width="64.58" height="64.58"/>
	</g>
	<g>
		<path class="st6" d="M55.51,29.58H29.35c-0.73,0-1.33-0.59-1.33-1.33V25.2c0-0.73,0.59-1.33,1.33-1.33h26.17
			c0.73,0,1.33,0.59,1.33,1.33v3.06C56.84,28.99,56.24,29.58,55.51,29.58z"/>
		<path class="st6" d="M30.93,12.12V8.74c0-1.15,0.93-2.08,2.08-2.08h19.33c1.21,0,2.19,0.98,2.19,2.19v15.01h-23.6"/>
		<line class="st6" x1="30.97" y1="10.85" x2="54.53" y2="10.85"/>
		<line class="st6" x1="43.68" y1="10.88" x2="43.68" y2="23.87"/>
		<line class="st6" x1="43.68" y1="13.96" x2="50.09" y2="13.96"/>
		<line class="st6" x1="43.68" y1="17.21" x2="50.09" y2="17.21"/>
		<line class="st6" x1="43.68" y1="20.58" x2="50.09" y2="20.58"/>
		<line class="st6" x1="50.11" y1="10.88" x2="50.11" y2="23.87"/>
		<path class="st5" d="M33.96,18.08c0,0.8-0.31,1.52-0.81,2.06c-0.55,0.6-1.34,0.97-2.22,0.97c-1.67,0-3.03-1.36-3.03-3.03
			s1.36-3.03,3.03-3.03S33.96,16.41,33.96,18.08z"/>
		<g>
			<path class="st6" d="M32.77,38.58H9.97v-4.01h22.8c1.37,0,2.48-1.11,2.48-2.48v-2.51h4.01v2.51
				C39.26,35.67,36.35,38.58,32.77,38.58z"/>
		</g>
		<rect x="6.06" y="32.87" class="st6" width="3.91" height="7.42"/>
		<path class="st6" d="M24.62,27.73c-2.06,0-2.06-2-4.11-2c-2.06,0-2.06,2-4.11,2c-2.06,0-2.06-2-4.12-2s-2.06,2-4.12,2"/>
		<path class="st6" d="M56.84,46.25c-2.43,0-2.43-2-4.87-2c-2.43,0-2.43,2-4.87,2c-2.43,0-2.43-2-4.87-2c-2.43,0-2.43,2-4.87,2
			c-2.43,0-2.43-2-4.87-2c-2.43,0-2.43,2-4.87,2c-2.43,0-2.43-2-4.87-2c-2.43,0-2.43,2-4.87,2c-2.44,0-2.44-2-4.87-2s-2.44,2-4.87,2
			"/>
		<g>
			<path class="st6" d="M51.55,38.58h3.8v-4.01h-3.8c-1.37,0-2.48-1.11-2.48-2.48v-2.51h-4.01v2.51
				C45.06,35.67,47.97,38.58,51.55,38.58z"/>
		</g>
		
			<rect x="55.35" y="32.87" transform="matrix(-1 -4.489132e-11 4.489132e-11 -1 114.6098 73.1548)" class="st6" width="3.91" height="7.42"/>
	</g>
</g>
</svg>
