<?xml version="1.0" encoding="utf-8"?>
<!-- Generator: Adobe Illustrator 24.0.2, SVG Export Plug-In . SVG Version: 6.00 Build 0)  -->
<svg version="1.1" xmlns="http://www.w3.org/2000/svg" xmlns:xlink="http://www.w3.org/1999/xlink" x="0px" y="0px"
	 viewBox="0 0 47 47" style="enable-background:new 0 0 47 47;" xml:space="preserve">
<style type="text/css">
	.st0{display:none;}
	.st1{display:inline;fill:#19A500;}
	.st2{display:none;fill:#95A6B1;}
	.st3{fill:none;}
	.st4{fill:none;stroke:#FFFFFF;stroke-width:1.5;stroke-linecap:round;stroke-linejoin:round;}
</style>
<g id="Capa_2" class="st0">
	<rect x="-3.47" y="-4.1" class="st1" width="55.38" height="55.38"/>
</g>
<g id="Capa_1">
	<rect x="-4.19" y="-4.19" class="st2" width="55.38" height="55.38"/>
	<rect class="st3" width="47" height="47"/>
	<g>
		<g id="Grupo_12849">
			<line id="Line_1218" class="st4" x1="8.45" y1="39.48" x2="40.35" y2="39.48"/>
			<line id="Line_1219" class="st4" x1="11.91" y1="39.48" x2="11.91" y2="35.62"/>
			<line id="Line_1221" class="st4" x1="20.4" y1="39.48" x2="20.4" y2="32.03"/>
			<line id="Line_1222" class="st4" x1="29.14" y1="39.48" x2="29.14" y2="27.54"/>
			<line id="Line_1223" class="st4" x1="37.88" y1="39.48" x2="37.88" y2="20.36"/>
		</g>
		<g id="Grupo_12850">
			<path id="Path_1098" class="st4" d="M26.33,16.89l1.73-1.52l2.24,1.75l8.55-8.71"/>
			<path id="Path_1099" class="st4" d="M34.89,8.41h3.96v3.96"/>
		</g>
		<g id="Grupo_12856">
			<path id="Path_1227" class="st4" d="M21.97,12c0,1.47-1.19,2.65-2.65,2.65c-1.47,0-2.65-1.19-2.65-2.65"/>
			<path id="Path_1228" class="st4" d="M16.66,12v-1.83c0-1.47,1.19-2.65,2.65-2.65c1.47,0,2.65,1.19,2.65,2.65V12"/>
			<g id="Grupo_12855">
				<g id="Grupo_12852">
					<line id="Line_1370" class="st4" x1="12.47" y1="25.78" x2="26.17" y2="25.78"/>
					<g id="Grupo_12851">
						<g id="Group_2600">
							<path id="Path_1226" class="st4" d="M19.15,16.84h0.33c1-0.01,2.01,0.06,3,0.21c0.98,0.17,1.87,0.67,2.52,1.42
								c0.99,1.23,0.78,2.82,0.9,4.29l0.26,3.04"/>
							<path id="Path_1226-2" class="st4" d="M12.47,25.78l0.26-3.04"/>
						</g>
					</g>
				</g>
				<g id="Grupo_12854">
					<line id="Line_1370-2" class="st4" x1="26.17" y1="25.78" x2="12.47" y2="25.78"/>
					<g id="Grupo_12853">
						<g id="Group_2600-2">
							<path id="Path_1226-3" class="st4" d="M12.73,22.75l-0.26,3.04"/>
							<path id="Path_1226-4" class="st4" d="M22.48,17.04c-0.99-0.15-2-0.22-3-0.21h-0.33c-0.45,0-0.9,0.01-1.35,0.03"/>
							<path id="Path_1226-5" class="st4" d="M26.17,25.78l-0.26-3.04"/>
						</g>
					</g>
				</g>
			</g>
		</g>
		<circle id="Elipse_2131" class="st4" cx="13.04" cy="17.45" r="2.74"/>
		<line id="Línea_2179" class="st4" x1="8.35" y1="29.06" x2="10.15" y2="27.26"/>
	</g>
</g>
</svg>
