<svg xmlns="http://www.w3.org/2000/svg" width="169.899" height="49" viewBox="0 0 169.899 49">
  <g id="Grupo_20584" data-name="Grupo 20584" transform="translate(59.85)">
    <g id="Grupo_20576" data-name="Grupo 20576">
      <circle id="Elipse_1636" data-name="Elipse 1636" cx="23.5" cy="23.5" r="23.5" transform="translate(-59.05 1)" fill="none" stroke="#fff" stroke-linecap="round" stroke-linejoin="round" stroke-width="1.6"/>
      <g id="Grupo_20575" data-name="Grupo 20575">
        <g id="Grupo_20574" data-name="Grupo 20574">
          <path id="Trazado_19949" data-name="Trazado 19949" d="M-35.632,36.386c-.388.039-6.445.5-9.862-2.912-3.521-3.533-2.9-9.862-2.9-9.862s6.342-.622,9.863,2.9,2.912,9.875,2.912,9.875Z" fill="none" stroke="#fff" stroke-linecap="round" stroke-linejoin="round" stroke-width="1.6"/>
          <path id="Trazado_19950" data-name="Trazado 19950" d="M-22.7,23.612s.621,6.329-2.912,9.862c-3.365,3.365-9.28,2.964-9.824,2.912v-2.8a11.5,11.5,0,0,1,2.861-7.079C-29.044,22.99-22.7,23.612-22.7,23.612Z" fill="none" stroke="#fff" stroke-linecap="round" stroke-linejoin="round" stroke-width="1.6"/>
          <path id="Trazado_19951" data-name="Trazado 19951" d="M-30.662,16.027c0,4.983-4.918,9.034-4.918,9.034S-40.5,21.01-40.5,16.027s4.918-9.034,4.918-9.034S-30.662,11.031-30.662,16.027Z" fill="none" stroke="#fff" stroke-linecap="round" stroke-linejoin="round" stroke-width="1.6"/>
        </g>
        <path id="Trazado_19952" data-name="Trazado 19952" d="M-30.658,16.025c0,4.988-4.923,9.032-4.923,9.032s-4.924-4.044-4.924-9.032,4.924-9.032,4.924-9.032S-30.658,11.037-30.658,16.025Z" fill="none" stroke="#fff" stroke-linecap="round" stroke-linejoin="round" stroke-width="1.6"/>
        <line id="Línea_4608" data-name="Línea 4608" y2="11.018" transform="translate(-35.581 14.039)" fill="none" stroke="#fff" stroke-linecap="round" stroke-linejoin="round" stroke-width="1.6"/>
        <path id="Trazado_19953" data-name="Trazado 19953" d="M-38.529,26.511c3.527,3.528,2.9,9.869,2.9,9.869s-6.34.621-9.868-2.906-2.9-9.868-2.9-9.868S-42.057,22.984-38.529,26.511Z" fill="none" stroke="#fff" stroke-linecap="round" stroke-linejoin="round" stroke-width="1.6"/>
        <line id="Línea_4609" data-name="Línea 4609" x2="7.791" y2="7.791" transform="translate(-43.415 28.589)" fill="none" stroke="#fff" stroke-linecap="round" stroke-linejoin="round" stroke-width="1.6"/>
        <path id="Trazado_19954" data-name="Trazado 19954" d="M-32.573,26.511c-3.528,3.528-2.906,9.869-2.906,9.869s6.341.621,9.868-2.906,2.906-9.868,2.906-9.868S-29.046,22.984-32.573,26.511Z" fill="none" stroke="#fff" stroke-linecap="round" stroke-linejoin="round" stroke-width="1.6"/>
        <line id="Línea_4610" data-name="Línea 4610" x1="7.791" y2="7.791" transform="translate(-35.479 28.589)" fill="none" stroke="#fff" stroke-linecap="round" stroke-linejoin="round" stroke-width="1.6"/>
        <line id="Línea_4611" data-name="Línea 4611" y2="16.95" transform="translate(-35.44 25.057)" fill="none" stroke="#fff" stroke-linecap="round" stroke-linejoin="round" stroke-width="1.6"/>
        <line id="Línea_4612" data-name="Línea 4612" x2="12.502" transform="translate(-41.594 42.007)" fill="none" stroke="#fff" stroke-linecap="round" stroke-linejoin="round" stroke-width="1.6"/>
      </g>
    </g>
    <g id="Grupo_20579" data-name="Grupo 20579">
      <circle id="Elipse_1636-2" data-name="Elipse 1636" cx="23.5" cy="23.5" r="23.5" transform="translate(1 1)" fill="none" stroke="#fff" stroke-linecap="round" stroke-linejoin="round" stroke-width="1.566"/>
      <rect id="Rectángulo_5814" data-name="Rectángulo 5814" width="49" height="49" fill="none"/>
      <g id="Grupo_20578" data-name="Grupo 20578">
        <path id="Trazado_19955" data-name="Trazado 19955" d="M27.036,14.464h9.015V25.084l3.862,3.862V38.6H15.776l2.9-8.69h3.862l2.9-9.655Z" fill="none" stroke="#fff" stroke-linecap="round" stroke-linejoin="round" stroke-width="1.6"/>
        <path id="Trazado_19956" data-name="Trazado 19956" d="M31.736,14.464v3.862l1.419.966v3.862" fill="none" stroke="#fff" stroke-linecap="round" stroke-linejoin="round" stroke-width="1.6"/>
        <path id="Trazado_19957" data-name="Trazado 19957" d="M35.086,38.6V35.7l.966-1.931v-2.9" fill="none" stroke="#fff" stroke-linecap="round" stroke-linejoin="round" stroke-width="1.6"/>
        <path id="Trazado_19958" data-name="Trazado 19958" d="M27.362,38.6V34.739l-1.931-2.9V27.981" fill="none" stroke="#fff" stroke-linecap="round" stroke-linejoin="round" stroke-width="1.6"/>
        <g id="Grupo_20577" data-name="Grupo 20577">
          <path id="Trazado_19959" data-name="Trazado 19959" d="M8.866,13.174l-1.78,6.062A16.9,16.9,0,0,1,22,19.312S20.417,11.957,8.866,13.174Z" fill="none" stroke="#fff" stroke-linecap="round" stroke-linejoin="round" stroke-width="1.6"/>
          <path id="Trazado_19960" data-name="Trazado 19960" d="M11.624,13.044,12,10.4l3.2.463-.367,2.52" fill="none" stroke="#fff" stroke-linecap="round" stroke-linejoin="round" stroke-width="1.6"/>
          <path id="Trazado_19961" data-name="Trazado 19961" d="M10.92,17.91,9.5,27.768l3.2.463,1.535-10.678" fill="none" stroke="#fff" stroke-linecap="round" stroke-linejoin="round" stroke-width="1.6"/>
        </g>
      </g>
    </g>
    <g id="Grupo_20583" data-name="Grupo 20583" transform="translate(2.809)">
      <circle id="Elipse_1636-3" data-name="Elipse 1636" cx="23.5" cy="23.5" r="23.5" transform="translate(59.241 1)" fill="none" stroke="#fff" stroke-linecap="round" stroke-linejoin="round" stroke-width="1.566"/>
      <rect id="Rectángulo_5815" data-name="Rectángulo 5815" width="49" height="49" transform="translate(58.241)" fill="none"/>
      <g id="Grupo_20582" data-name="Grupo 20582">
        <g id="Grupo_20580" data-name="Grupo 20580">
          <path id="Trazado_19962" data-name="Trazado 19962" d="M85,21.115h-.655a3.726,3.726,0,0,0,1.5-3.032,3.527,3.527,0,0,0-3.391-3.65H80.817a3.247,3.247,0,0,0,.409-1.564,4.133,4.133,0,0,0-8.2,0,3.247,3.247,0,0,0,.409,1.564H71.8a3.527,3.527,0,0,0-3.391,3.65,3.726,3.726,0,0,0,1.505,3.032h-.655a5.209,5.209,0,0,0-5.009,5.39A5.21,5.21,0,0,0,69.256,31.9H85A5.21,5.21,0,0,0,90.006,26.5,5.209,5.209,0,0,0,85,21.115Z" fill="none" stroke="#fff" stroke-linecap="round" stroke-linejoin="round" stroke-width="1.6"/>
          <line id="Línea_4613" data-name="Línea 4613" y2="23.663" transform="translate(77.127 16.077)" fill="none" stroke="#fff" stroke-linecap="round" stroke-linejoin="round" stroke-width="1.6"/>
          <line id="Línea_4614" data-name="Línea 4614" x1="4.991" y1="4.395" transform="translate(72.061 24.5)" fill="none" stroke="#fff" stroke-linecap="round" stroke-linejoin="round" stroke-width="1.6"/>
          <line id="Línea_4615" data-name="Línea 4615" x1="3.136" y2="2.767" transform="translate(77.123 18.885)" fill="none" stroke="#fff" stroke-linecap="round" stroke-linejoin="round" stroke-width="1.6"/>
          <line id="Línea_4616" data-name="Línea 4616" x1="7.219" transform="translate(73.517 39.741)" fill="none" stroke="#fff" stroke-linecap="round" stroke-linejoin="round" stroke-width="1.6"/>
        </g>
        <g id="Grupo_20581" data-name="Grupo 20581">
          <path id="Trazado_19963" data-name="Trazado 19963" d="M75.583,27.6V27.6" fill="none" stroke="#fff" stroke-linecap="round" stroke-linejoin="round" stroke-width="1.6"/>
          <path id="Trazado_19964" data-name="Trazado 19964" d="M84.233,14.859l.141.13a15.714,15.714,0,0,1-.12-2.12,4.137,4.137,0,0,1,8.206,0,3.185,3.185,0,0,1-.417,1.564h1.644a3.533,3.533,0,0,1,3.393,3.65,3.728,3.728,0,0,1-1.508,3.032h.658a5.207,5.207,0,0,1,5,5.39,5.208,5.208,0,0,1-5,5.391H80.484" fill="none" stroke="#fff" stroke-linecap="round" stroke-linejoin="round" stroke-width="1.6"/>
          <line id="Línea_4617" data-name="Línea 4617" y1="7.845" transform="translate(88.353 31.896)" fill="none" stroke="#fff" stroke-linecap="round" stroke-linejoin="round" stroke-width="1.6"/>
          <path id="Trazado_19965" data-name="Trazado 19965" d="M88.353,22.519V16.077" fill="none" stroke="#fff" stroke-linecap="round" stroke-linejoin="round" stroke-width="1.6"/>
          <line id="Línea_4618" data-name="Línea 4618" x1="3.136" y2="2.767" transform="translate(88.353 18.885)" fill="none" stroke="#fff" stroke-linecap="round" stroke-linejoin="round" stroke-width="1.6"/>
          <path id="Trazado_19966" data-name="Trazado 19966" d="M91.966,39.741H80.736" fill="none" stroke="#fff" stroke-linecap="round" stroke-linejoin="round" stroke-width="1.6"/>
        </g>
      </g>
    </g>
  </g>
</svg>
