<?xml version="1.0" encoding="utf-8"?>
<!-- Generator: Adobe Illustrator 24.0.2, SVG Export Plug-In . SVG Version: 6.00 Build 0)  -->
<svg version="1.1" id="Capa_1" xmlns="http://www.w3.org/2000/svg" xmlns:xlink="http://www.w3.org/1999/xlink" x="0px" y="0px"
	 viewBox="0 0 130 120" style="enable-background:new 0 0 130 120;" xml:space="preserve">
<style type="text/css">
	.st0{fill:#FFFFFF;}
	.st1{fill:none;stroke:#FFFFFF;stroke-width:3;stroke-linecap:round;stroke-linejoin:round;}
	.st2{fill:none;}
</style>
<g id="slide">
	<circle id="Elipse_2313_1_" class="st0" cx="38.88" cy="75.64" r="1.9"/>
	<circle id="Elipse_2314_1_" class="st0" cx="44.33" cy="69.96" r="1.9"/>
	<circle id="Elipse_2315_1_" class="st0" cx="47.35" cy="61.16" r="1.9"/>
	<g>
		<path class="st1" d="M32.14,111.59h19.61c0.54,0,1.06-0.21,1.45-0.58l7.42-7.09c0.26-0.25,0.44-0.55,0.54-0.9L62.89,97
			c0.18-0.64,0.6-1.19,1.16-1.54l3.09-1.96c0.81-0.51,1.8-0.64,2.72-0.36l1.77,0.55c0.51,0.16,1.06-0.07,1.31-0.54l1.19-2.22
			c0.28-0.52,0.69-0.96,1.19-1.27l4.71-2.9c0.33-0.2,0.53-0.56,0.53-0.94v-2.39c0-0.43,0.24-0.81,0.63-1l2.58-1.24
			c0.15-0.07,0.29-0.18,0.4-0.32l2.57-3.32c0.21-0.27,0.53-0.43,0.88-0.43h10.59c0.93,0,1.8-0.5,2.27-1.31l2.5-4.32
			c0.29-0.5,0.7-0.92,1.2-1.21l3.5-2.1c0.87-0.52,1.25-1.58,0.92-2.53l-1.81-5.2c-0.27-0.76-0.86-1.37-1.63-1.64l-7.14-2.58
			c-1.39-0.5-2.94-0.21-4.05,0.77l-3.02,2.67c-0.39,0.35-0.97,0.37-1.39,0.06l-2.2-1.63c-0.32-0.24-0.49-0.64-0.44-1.04l0.22-1.68
			c0.1-0.74-0.55-1.37-1.29-1.24l-2.42,0.43c-0.59,0.11-1.16-0.28-1.28-0.87l-0.55-2.65l-1.62-9.7c-0.03-0.17-0.09-0.32-0.19-0.46
			l-1.6-2.23c-0.41-0.58-0.18-1.39,0.48-1.67l4.96-2.06c0.7-0.29,1.48,0.19,1.53,0.94l0,0c0.06,0.88,1.07,1.33,1.77,0.8l2.34-1.77
			c0.43-0.33,0.56-0.91,0.31-1.39l-4.18-8.05c-0.14-0.28-0.4-0.48-0.71-0.56l-5.3-1.37c-1.05-0.27-1.96-0.93-2.55-1.83l-2.01-3.08
			c-0.42-0.65-1.03-1.15-1.75-1.44l-6.67-2.67c-1.16-0.46-2.08-1.37-2.58-2.51l-0.74-1.72c-0.54-1.26-1.84-2.02-3.2-1.88l-3.94,0.4
			c-0.06,0.01-0.12,0.02-0.18,0.03l-10.89,2.95c-1.09,0.3-1.99,1.07-2.44,2.11l-3.97,9.22c-0.03,0.07-0.07,0.14-0.12,0.21L33,30.74
			c-0.13,0.18-0.3,0.31-0.51,0.39l-3.76,1.42c-1.51,0.57-2.3,2.22-1.81,3.75l2.64,8.28c0.28,0.88,0.89,1.62,1.69,2.08l4.1,2.34
			c1.04,0.59,1.71,1.65,1.8,2.84l0.35,4.63c0.09,1.27-0.43,2.5-1.4,3.32l-2.53,2.11c-0.34,0.28-0.63,0.62-0.86,1l-4.87,8.05
			c-0.43,0.71-0.64,1.52-0.61,2.35l0.19,5.42c0.01,0.39-0.08,0.77-0.26,1.11l-4.49,8.3c-0.13,0.25-0.22,0.52-0.26,0.8l-1.06,7.83
			c-0.1,0.77,0.09,1.54,0.54,2.17l8.47,11.77C30.77,111.25,31.43,111.59,32.14,111.59z"/>
		<rect class="st2" width="130" height="120"/>
	</g>
</g>
</svg>
