<svg xmlns="http://www.w3.org/2000/svg" width="60" height="60" viewBox="0 0 60 60">
  <g id="Grupo_12986" data-name="Grupo 12986" transform="translate(713.779 -96.379)">
    <g id="Grupo_12987" data-name="Grupo 12987">
      <g id="Grupo_12986-2" data-name="Grupo 12986">
        <rect id="Rectángulo_3799" data-name="Rectángulo 3799" width="60" height="60" rx="30" transform="translate(-713.779 96.379)" fill="#19a500"/>
      </g>
    </g>
    <g id="Grupo_12989" data-name="Grupo 12989">
      <g id="Grupo_12988" data-name="Grupo 12988">
        <rect id="Rectángulo_3799-2" data-name="Rectángulo 3799" width="60" height="60" transform="translate(-713.779 96.379)" fill="none"/>
      </g>
    </g>
    <g id="Grupo_12991" data-name="Grupo 12991">
      <g id="Grupo_12990" data-name="Grupo 12990">
        <path id="Trazado_11449" data-name="Trazado 11449" d="M-696.2,112.994a25.46,25.46,0,0,1,11.3-3.087c12.512-.435,17.735,6.528,17.735,13.6s-6.42,10.227-11.1,10.227h-21.325c-2.351,0-4.937-.525-6.347-2.365a5.018,5.018,0,0,1-.918-2.052,9.836,9.836,0,0,1,1.3-6.523" fill="none" stroke="#fff" stroke-linecap="round" stroke-linejoin="round" stroke-width="1.113"/>
        <path id="Trazado_11450" data-name="Trazado 11450" d="M-684.907,109.907s14.085-2.556,22.876,13.169c0,0,3.86,8.077,1,10.507,0,0-1.644,1-3.645-1.787a11.029,11.029,0,0,0-3.5-3.5" fill="none" stroke="#fff" stroke-linecap="round" stroke-linejoin="round" stroke-width="1.113"/>
        <circle id="Elipse_1985" data-name="Elipse 1985" cx="1.149" cy="1.149" r="1.149" transform="translate(-665.491 124.905)" fill="none" stroke="#fff" stroke-linecap="round" stroke-linejoin="round" stroke-width="1.113"/>
        <path id="Trazado_11451" data-name="Trazado 11451" d="M-668.607,114.856s1.43-5.932,6.862-5.361c0,0,.929,5-5.075,7" fill="none" stroke="#fff" stroke-linecap="round" stroke-linejoin="round" stroke-width="1.113"/>
        <path id="Trazado_11452" data-name="Trazado 11452" d="M-676.388,133.668l1.849,4.06h3.788" fill="none" stroke="#fff" stroke-linecap="round" stroke-linejoin="round" stroke-width="1.113"/>
        <path id="Trazado_11453" data-name="Trazado 11453" d="M-697.412,133.941l1.614,3.788h3.788" fill="none" stroke="#fff" stroke-linecap="round" stroke-linejoin="round" stroke-width="1.113"/>
        <line id="Línea_2188" data-name="Línea 2188" y2="13.841" transform="translate(-685.908 110.177)" fill="none" stroke="#fff" stroke-linecap="round" stroke-linejoin="round" stroke-width="1.113"/>
        <line id="Línea_2189" data-name="Línea 2189" y2="11.91" transform="translate(-680.713 110.026)" fill="none" stroke="#fff" stroke-linecap="round" stroke-linejoin="round" stroke-width="1.113"/>
        <line id="Línea_2190" data-name="Línea 2190" y2="11.91" transform="translate(-674.863 111.488)" fill="none" stroke="#fff" stroke-linecap="round" stroke-linejoin="round" stroke-width="1.113"/>
        <line id="Línea_2191" data-name="Línea 2191" y1="8.044" transform="translate(-690.933 111.233)" fill="none" stroke="#fff" stroke-linecap="round" stroke-linejoin="round" stroke-width="1.113"/>
      </g>
      <path id="Trazado_11454" data-name="Trazado 11454" d="M-705.957,123.637a20.776,20.776,0,0,0-1.611,9.305,11.415,11.415,0,0,0,3.914,7.972c3.009,2.664,6.885,2.379,10.642,2.379,0,0-10.94-2.031-10.94-10.274" fill="none" stroke="#fff" stroke-linecap="round" stroke-linejoin="round" stroke-width="1.113"/>
    </g>
    <g id="Grupo_12993" data-name="Grupo 12993">
      <g id="Grupo_12992" data-name="Grupo 12992">
        <circle id="Elipse_1986" data-name="Elipse 1986" cx="3.857" cy="3.857" r="3.857" transform="translate(-705.176 113.239)" fill="none" stroke="#efef00" stroke-miterlimit="10" stroke-width="1.2"/>
      </g>
    </g>
  </g>
</svg>
