<svg id="Grupo_20206" data-name="Grupo 20206" xmlns="http://www.w3.org/2000/svg" width="65" height="65" viewBox="0 0 65 65">
  <g id="Grupo_20210" data-name="Grupo 20210">
    <g id="Grupo_20208" data-name="Grupo 20208">
      <g id="Grupo_20207" data-name="Grupo 20207">
        <rect id="Rectángulo_5747" data-name="Rectángulo 5747" width="65" height="16.741" transform="translate(0 48.259)" fill="none"/>
        <g id="Grupo_20206-2" data-name="Grupo 20206">
          <line id="Línea_4493" data-name="Línea 4493" x2="7.167" transform="translate(38.214 60.119)" fill="none" stroke="#4da12e" stroke-linecap="round" stroke-linejoin="round" stroke-width="2.4"/>
          <line id="Línea_4494" data-name="Línea 4494" x2="0.581" transform="translate(52.528 60.119)" fill="none" stroke="#4da12e" stroke-linecap="round" stroke-linejoin="round" stroke-width="2.4"/>
          <line id="Línea_4495" data-name="Línea 4495" x2="7.101" transform="translate(11.891 60.119)" fill="none" stroke="#4da12e" stroke-linecap="round" stroke-linejoin="round" stroke-width="2.4"/>
          <line id="Línea_4496" data-name="Línea 4496" x2="12.517" transform="translate(18.529 60.119)" fill="none" stroke="#96d200" stroke-linecap="round" stroke-linejoin="round" stroke-width="2.4"/>
          <line id="Línea_4497" data-name="Línea 4497" x2="23.582" transform="translate(11.891 54.012)" fill="none" stroke="#96d200" stroke-linecap="round" stroke-linejoin="round" stroke-width="2.4"/>
          <line id="Línea_4498" data-name="Línea 4498" x2="18.363" transform="translate(34.746 54.012)" fill="none" stroke="#4da12e" stroke-linecap="round" stroke-linejoin="round" stroke-width="2.4"/>
          <line id="Línea_4499" data-name="Línea 4499" x2="0.429" transform="translate(11.891 54.012)" fill="none" stroke="#4da12e" stroke-linecap="round" stroke-linejoin="round" stroke-width="2.4"/>
        </g>
      </g>
    </g>
    <g id="Grupo_20209" data-name="Grupo 20209">
      <rect id="Rectángulo_3799-2" data-name="Rectángulo 3799-2" width="65" height="65" fill="none"/>
    </g>
  </g>
  <g id="Grupo_20211" data-name="Grupo 20211">
    <path id="Trazado_12473" data-name="Trazado 12473" d="M37.785,7.513" fill="none" stroke="#95a6b1" stroke-linecap="round" stroke-linejoin="round" stroke-width="1.6"/>
  </g>
  <g id="Grupo_20212" data-name="Grupo 20212">
    <path id="Trazado_19699" data-name="Trazado 19699" d="M17.547,16.773l-1.254,19.09,4.269.584L19.285,16.773" fill="none" stroke="#95a6b1" stroke-linecap="round" stroke-linejoin="round" stroke-width="1.6"/>
    <path id="Trazado_19700" data-name="Trazado 19700" d="M6.663,16.467s0-5.621,5.825-5.826,5.953,6.132,5.953,6.132-2.333-3.007-5.889-2.706A10.906,10.906,0,0,0,6.663,16.467Z" fill="none" stroke="#95a6b1" stroke-linecap="round" stroke-linejoin="round" stroke-width="1.6"/>
    <path id="Trazado_19701" data-name="Trazado 19701" d="M30.22,16.467s0-5.621-5.825-5.826-5.954,6.132-5.954,6.132,2.333-3.007,5.89-2.706A10.906,10.906,0,0,1,30.22,16.467Z" fill="none" stroke="#95a6b1" stroke-linecap="round" stroke-linejoin="round" stroke-width="1.6"/>
    <path id="Trazado_19702" data-name="Trazado 19702" d="M18.441,14.141s-.985-6.533,3.208-7.748A6.351,6.351,0,0,1,28.364,8.7a9.707,9.707,0,0,0-5.5.547C19.765,10.434,18.441,14.141,18.441,14.141Z" fill="none" stroke="#95a6b1" stroke-linecap="round" stroke-linejoin="round" stroke-width="1.6"/>
    <path id="Trazado_19703" data-name="Trazado 19703" d="M18.341,14.141s.985-6.533-3.208-7.748A6.351,6.351,0,0,0,8.418,8.7a9.707,9.707,0,0,1,5.5.547C17.017,10.434,18.341,14.141,18.341,14.141Z" fill="none" stroke="#95a6b1" stroke-linecap="round" stroke-linejoin="round" stroke-width="1.6"/>
    <path id="Trazado_19704" data-name="Trazado 19704" d="M11.213,21.9s-2.481-3.681,1.1-6.26,6.126,1.134,6.126,1.134a6.072,6.072,0,0,0-4.649,1.09A8.578,8.578,0,0,0,11.213,21.9Z" fill="none" stroke="#95a6b1" stroke-linecap="round" stroke-linejoin="round" stroke-width="1.6"/>
    <path id="Trazado_19705" data-name="Trazado 19705" d="M25.67,21.9s2.48-3.681-1.1-6.26-6.126,1.134-6.126,1.134a6.075,6.075,0,0,1,4.65,1.09A8.578,8.578,0,0,1,25.67,21.9Z" fill="none" stroke="#95a6b1" stroke-linecap="round" stroke-linejoin="round" stroke-width="1.6"/>
    <line id="Línea_4500" data-name="Línea 4500" x2="2.452" transform="translate(17.197 22.385)" fill="none" stroke="#95a6b1" stroke-linecap="round" stroke-linejoin="round" stroke-width="1.6"/>
    <line id="Línea_4501" data-name="Línea 4501" x2="3.073" transform="translate(16.893 27.27)" fill="none" stroke="#95a6b1" stroke-linecap="round" stroke-linejoin="round" stroke-width="1.6"/>
    <line id="Línea_4502" data-name="Línea 4502" x2="3.704" transform="translate(16.584 32.222)" fill="none" stroke="#95a6b1" stroke-linecap="round" stroke-linejoin="round" stroke-width="1.6"/>
  </g>
  <path id="Trazado_19706" data-name="Trazado 19706" d="M54.671,11.018a10.547,10.547,0,0,0,6.123-2.366" fill="none" stroke="#95a6b1" stroke-linecap="round" stroke-linejoin="round" stroke-width="1.6"/>
  <path id="Trazado_19707" data-name="Trazado 19707" d="M3.918,37.985c8.245-6.462,15.648,2.982,23.893-3.48S28.654,18.6,36.9,12.134A10.769,10.769,0,0,1,41.294,10" fill="none" stroke="#95a6b1" stroke-linecap="round" stroke-linejoin="round" stroke-width="1.6"/>
  <path id="Trazado_19708" data-name="Trazado 19708" d="M60.807,28.669a8.121,8.121,0,0,0-3.429,1.391C50.851,34.523,55.962,42,49.435,46.46S37.8,43.449,31.27,47.911" fill="none" stroke="#95a6b1" stroke-linecap="round" stroke-linejoin="round" stroke-width="1.6"/>
  <path id="Trazado_11848" data-name="Trazado 11848" d="M52.166,9.7a4.183,4.183,0,1,1-4.183-4.183h0a4.168,4.168,0,0,1,4.183,4.151Z" fill="none" stroke="#19a500" stroke-linecap="round" stroke-linejoin="round" stroke-width="1.6"/>
  <g id="Grupo_20213" data-name="Grupo 20213">
    <path id="Trazado_19709" data-name="Trazado 19709" d="M56.413,20.52c-2.033,0-2.033-2-4.067-2s-2.033,2-4.067,2-2.036-2-4.073-2-2.037,2-4.074,2" fill="none" stroke="#95a6b1" stroke-linecap="round" stroke-linejoin="round" stroke-width="1.6"/>
  </g>
  <g id="Grupo_20214" data-name="Grupo 20214">
    <path id="Trazado_19710" data-name="Trazado 19710" d="M51.272,31.071c-2.033,0-2.033-2-4.066-2s-2.033,2-4.067,2-2.037-2-4.073-2-2.037,2-4.074,2" fill="none" stroke="#95a6b1" stroke-linecap="round" stroke-linejoin="round" stroke-width="1.6"/>
  </g>
  <g id="Grupo_20215" data-name="Grupo 20215">
    <path id="Trazado_19711" data-name="Trazado 19711" d="M45.132,42.393c-2.855,0-2.855-2-5.71-2s-2.856,2-5.712,2-2.855-2-5.709-2-2.857,2-5.714,2-2.859-2-5.718-2-2.858,2-5.717,2" fill="none" stroke="#95a6b1" stroke-linecap="round" stroke-linejoin="round" stroke-width="1.6"/>
  </g>
</svg>
