<?xml version="1.0" encoding="utf-8"?>
<!-- Generator: Adobe Illustrator 24.0.2, SVG Export Plug-In . SVG Version: 6.00 Build 0)  -->
<svg version="1.1" id="Capa_1" xmlns="http://www.w3.org/2000/svg" xmlns:xlink="http://www.w3.org/1999/xlink" x="0px" y="0px"
	 viewBox="0 0 65 65" style="enable-background:new 0 0 65 65;" xml:space="preserve">
<style type="text/css">
	.st0{fill:none;}
	.st1{fill:#4DA12E;}
	.st2{fill:#96D200;}
	.st3{fill:none;stroke:#19A500;stroke-width:1.6;stroke-linecap:round;stroke-linejoin:round;stroke-miterlimit:10;}
	.st4{fill:none;stroke:#95A6B1;stroke-width:1.6;stroke-linecap:round;stroke-linejoin:round;stroke-miterlimit:10;}
	.st5{fill:none;stroke:#4CA830;stroke-width:1.6;stroke-linecap:round;stroke-linejoin:round;}
	.st6{fill:none;stroke:#96A4AE;stroke-width:1.6;stroke-linecap:round;stroke-linejoin:round;}
	.st7{fill:none;stroke:#97A5AF;stroke-width:1.6;stroke-linecap:round;stroke-linejoin:round;}
</style>
<g>
	<rect id="Rectángulo_3799-2_2_" class="st0" width="65" height="65"/>
	<g>
		<g>
			<g>
				<rect y="48.26" class="st0" width="65" height="16.74"/>
			</g>
			<g>
				<g>
					<path class="st1" d="M45.38,61.32h-7.17c-0.66,0-1.2-0.54-1.2-1.2s0.54-1.2,1.2-1.2h7.17c0.66,0,1.2,0.54,1.2,1.2
						S46.04,61.32,45.38,61.32z"/>
				</g>
				<g>
					<path class="st1" d="M53.11,61.32h-0.58c-0.66,0-1.2-0.54-1.2-1.2s0.54-1.2,1.2-1.2h0.58c0.66,0,1.2,0.54,1.2,1.2
						S53.77,61.32,53.11,61.32z"/>
				</g>
				<g>
					<path class="st1" d="M18.99,61.32h-7.1c-0.66,0-1.2-0.54-1.2-1.2s0.54-1.2,1.2-1.2h7.1c0.66,0,1.2,0.54,1.2,1.2
						S19.65,61.32,18.99,61.32z"/>
				</g>
				<g>
					<path class="st2" d="M31.05,61.32H18.53c-0.66,0-1.2-0.54-1.2-1.2s0.54-1.2,1.2-1.2h12.52c0.66,0,1.2,0.54,1.2,1.2
						S31.71,61.32,31.05,61.32z"/>
				</g>
				<g>
					<path class="st2" d="M35.47,55.21H11.89c-0.66,0-1.2-0.54-1.2-1.2s0.54-1.2,1.2-1.2h23.58c0.66,0,1.2,0.54,1.2,1.2
						S36.14,55.21,35.47,55.21z"/>
				</g>
				<g>
					<path class="st1" d="M53.11,55.21H34.75c-0.66,0-1.2-0.54-1.2-1.2s0.54-1.2,1.2-1.2h18.36c0.66,0,1.2,0.54,1.2,1.2
						S53.77,55.21,53.11,55.21z"/>
				</g>
				<g>
					<path class="st1" d="M12.32,55.21h-0.43c-0.66,0-1.2-0.54-1.2-1.2s0.54-1.2,1.2-1.2h0.43c0.66,0,1.2,0.54,1.2,1.2
						S12.98,55.21,12.32,55.21z"/>
				</g>
			</g>
		</g>
	</g>
	<g>
		<path id="Trazado_11848_7_" class="st3" d="M46.13,36.4c0,2.31-1.87,4.18-4.18,4.18c-2.31,0-4.18-1.87-4.18-4.18
			c0-2.31,1.87-4.18,4.18-4.18h0c2.3-0.01,4.17,1.85,4.18,4.15C46.13,36.38,46.13,36.39,46.13,36.4z"/>
		<path class="st4" d="M47.69,33.39l2.18-2.79c0.39-0.5,0.32-1.22-0.15-1.64l-3.41-3.01c-0.5-0.44-1.23-0.52-1.82-0.19l-1.19,0.66
			c-0.6,0.33-1.34,0.19-1.78-0.32l-2.3-2.72c-0.17-0.2-0.3-0.43-0.39-0.68l-1.18-3.51c-0.25-0.73,0.2-1.51,0.96-1.66l1.28-0.25
			c0.78-0.15,1.19-1,0.82-1.7l-1.93-3.65l-4.35-1.76l-2.91-3.82c-0.38-0.5-0.99-0.77-1.62-0.72l-2.47,0.21
			c-0.54,0.04-1.03,0.32-1.34,0.76l-4.07,5.64l-4.59,3.17c-0.64,0.44-0.81,1.31-0.39,1.96l3.04,4.69c0.11,0.17,0.19,0.35,0.25,0.54
			l0.92,3.21c0.12,0.42,0.08,0.86-0.11,1.25l-6.09,12.61c-0.23,0.48-0.24,1.04-0.02,1.53l2.78,6.06c0.29,0.64,0.93,1.05,1.64,1.05
			h6.59c0.43,0,0.85-0.1,1.24-0.3c1.03-0.52,3.02-1.74,3.63-3.55c0,0,1.53-3.91,2.96-3.85l2.54-0.48"/>
	</g>
</g>
</svg>
