<svg xmlns="http://www.w3.org/2000/svg" width="60" height="60" viewBox="0 0 60 60">
  <g id="Grupo_12967" data-name="Grupo 12967" transform="translate(81.554)">
    <g id="Capa_2" data-name="Capa 2">
      <g id="Grupo_12968" data-name="Grupo 12968">
        <g id="Grupo_12967-2" data-name="Grupo 12967">
          <rect id="Rectángulo_3799" data-name="Rectángulo 3799" width="60" height="60" rx="30" transform="translate(-81.554 0)" fill="#19a500"/>
        </g>
      </g>
    </g>
    <g id="Capa_1" data-name="Capa 1">
      <g id="Grupo_12970" data-name="Grupo 12970">
        <g id="Grupo_12969" data-name="Grupo 12969">
          <rect id="Rectángulo_3799-2" data-name="Rectángulo 3799" width="60" height="60" transform="translate(-81.554)" fill="none"/>
        </g>
      </g>
      <g id="Grupo_12974" data-name="Grupo 12974">
        <g id="Grupo_12971" data-name="Grupo 12971">
          <path id="Trazado_11438" data-name="Trazado 11438" d="M-59.817,14.609s-9.6-3.143-10.86-3.3c0,0,2.514,11.786,18.071,19.014,2.538,1.179-2.043,5.186-3.3,11.943s-9.585,10.057-9.585,10.057H-55.7a17.446,17.446,0,0,0,2.985-9.761" fill="none" stroke="#fff" stroke-linecap="round" stroke-linejoin="round" stroke-width="1.069"/>
          <path id="Trazado_11439" data-name="Trazado 11439" d="M-40.779,25.188s-.107-4.477-5.223-7.462S-60.711,4.3-60.711,4.3s-.062,11.278,3.517,16.521A70.915,70.915,0,0,0-50.2,29.494" fill="none" stroke="#fff" stroke-linecap="round" stroke-linejoin="round" stroke-width="1.069"/>
          <path id="Trazado_11440" data-name="Trazado 11440" d="M-41.312,30.943c.639-1.7.959-3.2,2.451-3.3a5.256,5.256,0,0,1,2.026.107" fill="none" stroke="#fff" stroke-linecap="round" stroke-linejoin="round" stroke-width="1.069"/>
          <path id="Trazado_11441" data-name="Trazado 11441" d="M-55.906,42.266a12.1,12.1,0,0,0,6.645-1.379" fill="none" stroke="#fff" stroke-linecap="round" stroke-linejoin="round" stroke-width="1.069"/>
          <path id="Trazado_11442" data-name="Trazado 11442" d="M-33.851,29.032v6.5A6.006,6.006,0,0,0-28.568,30.9c.568-3.714-.624-7-3.866-8.84" fill="none" stroke="#fff" stroke-linecap="round" stroke-linejoin="round" stroke-width="1.069"/>
          <circle id="Elipse_1979" data-name="Elipse 1979" cx="3.639" cy="3.639" r="3.639" transform="translate(-37.752 21.677)" fill="none" stroke="#fff" stroke-linecap="round" stroke-linejoin="round" stroke-width="1.069"/>
          <path id="Trazado_11443" data-name="Trazado 11443" d="M-41.414,22.758a16.9,16.9,0,0,1,7.3-1.081" fill="none" stroke="#fff" stroke-linecap="round" stroke-linejoin="round" stroke-width="1.069"/>
          <line id="Línea_2185" data-name="Línea 2185" x2="4.869" transform="translate(-65.443 20.798)" fill="none" stroke="#fff" stroke-linecap="round" stroke-linejoin="round" stroke-width="1.069"/>
          <line id="Línea_2186" data-name="Línea 2186" x2="4.869" transform="translate(-53.69 24.944)" fill="none" stroke="#fff" stroke-linecap="round" stroke-linejoin="round" stroke-width="1.069"/>
          <line id="Línea_2187" data-name="Línea 2187" x2="4.869" transform="translate(-58.705 17.256)" fill="none" stroke="#fff" stroke-linecap="round" stroke-linejoin="round" stroke-width="1.069"/>
        </g>
        <g id="Grupo_12973" data-name="Grupo 12973">
          <g id="Grupo_12972" data-name="Grupo 12972">
            <circle id="Elipse_1980" data-name="Elipse 1980" cx="3.857" cy="3.857" r="3.857" transform="translate(-48.383 32.983)" fill="none" stroke="#efef00" stroke-miterlimit="10" stroke-width="1.2"/>
          </g>
        </g>
      </g>
    </g>
  </g>
</svg>
