<?xml version="1.0" encoding="utf-8"?>
<!-- Generator: Adobe Illustrator 24.0.2, SVG Export Plug-In . SVG Version: 6.00 Build 0)  -->
<svg version="1.1" id="Capa_1" xmlns="http://www.w3.org/2000/svg" xmlns:xlink="http://www.w3.org/1999/xlink" x="0px" y="0px"
	 viewBox="0 0 49 49" style="enable-background:new 0 0 49 49;" xml:space="preserve">
<style type="text/css">
	.st0{display:none;fill:#19A500;}
	.st1{fill:none;stroke:#FFFFFF;stroke-width:1.6;stroke-linecap:round;stroke-linejoin:round;}
	.st2{fill:none;stroke:#FFFFFF;stroke-width:1.6;stroke-linecap:round;stroke-linejoin:round;stroke-miterlimit:10;}
	.st3{fill:none;stroke:#FFFFFF;stroke-width:1.5663;stroke-linecap:round;stroke-linejoin:round;}
	.st4{fill:none;}
</style>
<rect x="-1.34" y="-1.78" class="st0" width="51.67" height="52.55"/>
<g>
	<ellipse id="Elipse_1636_4_" class="st3" cx="24.5" cy="24.5" rx="23.5" ry="23.5"/>
	<rect x="0" class="st4" width="49" height="49"/>
	<g>
		<g>
			<path class="st1" d="M26.76,21.11H26.1c0.91-0.66,1.5-1.77,1.5-3.03c0-2.02-1.52-3.65-3.39-3.65h-1.64
				c0.26-0.47,0.41-1,0.41-1.56c0-1.99-1.84-3.61-4.1-3.61c-2.26,0-4.1,1.62-4.1,3.61c0,0.56,0.15,1.09,0.41,1.56h-1.64
				c-1.87,0-3.39,1.63-3.39,3.65c0,1.26,0.6,2.38,1.5,3.03h-0.66c-2.77,0-5.01,2.41-5.01,5.39s2.24,5.39,5.01,5.39h15.74
				c2.77,0,5.01-2.41,5.01-5.39S29.52,21.11,26.76,21.11z"/>
			<line class="st1" x1="18.89" y1="16.08" x2="18.89" y2="39.74"/>
			<line class="st1" x1="18.81" y1="28.89" x2="13.82" y2="24.5"/>
			<line class="st1" x1="22.02" y1="18.88" x2="18.88" y2="21.65"/>
			<line class="st1" x1="22.5" y1="39.74" x2="15.28" y2="39.74"/>
		</g>
		<g>
			<path class="st1" d="M17.34,27.6C17.34,27.6,17.34,27.6,17.34,27.6"/>
			<path class="st1" d="M25.99,14.86l0.14,0.13c-0.09-0.54-0.12-1.56-0.12-2.12c0-2,1.84-3.61,4.1-3.61c2.27,0,4.11,1.61,4.11,3.61
				c0,0.56-0.15,1.09-0.42,1.56h1.64c1.87,0,3.39,1.64,3.39,3.65c0,1.27-0.6,2.37-1.51,3.03h0.66c2.77,0,5.01,2.41,5.01,5.39
				s-2.24,5.39-5.01,5.39h-7.88h-3.35h-4.52"/>
			<line class="st1" x1="30.11" y1="39.74" x2="30.11" y2="31.9"/>
			<polyline class="st1" points="30.11,22.52 30.11,21.65 30.11,16.08 			"/>
			<line class="st1" x1="33.25" y1="18.88" x2="30.11" y2="21.65"/>
			<polyline class="st1" points="33.73,39.74 26.51,39.74 22.5,39.74 			"/>
		</g>
	</g>
</g>
</svg>
