<?xml version="1.0" encoding="utf-8"?>
<!-- Generator: Adobe Illustrator 24.0.2, SVG Export Plug-In . SVG Version: 6.00 Build 0)  -->
<svg version="1.1" id="Capa_1" xmlns="http://www.w3.org/2000/svg" xmlns:xlink="http://www.w3.org/1999/xlink" x="0px" y="0px"
	 viewBox="0 0 65 65" style="enable-background:new 0 0 65 65;" xml:space="preserve">
<style type="text/css">
	.st0{fill:none;}
	.st1{fill:#4DA12E;}
	.st2{fill:#96D200;}
	.st3{fill:none;stroke:#19A500;stroke-width:1.6;stroke-linecap:round;stroke-linejoin:round;stroke-miterlimit:10;}
	.st4{fill:none;stroke:#95A6B1;stroke-width:1.6;stroke-linecap:round;stroke-linejoin:round;stroke-miterlimit:10;}
	.st5{fill:none;stroke:#4CA830;stroke-width:1.6;stroke-linecap:round;stroke-linejoin:round;}
	.st6{fill:none;stroke:#96A4AE;stroke-width:1.6;stroke-linecap:round;stroke-linejoin:round;}
	.st7{fill:none;stroke:#97A5AF;stroke-width:1.6;stroke-linecap:round;stroke-linejoin:round;}
</style>
<g>
	<rect id="Rectángulo_3799-2_3_" class="st0" width="65" height="65"/>
	<g>
		<g>
			<g>
				<rect y="48.26" class="st0" width="65" height="16.74"/>
			</g>
			<g>
				<g>
					<path class="st1" d="M45.38,61.32h-7.17c-0.66,0-1.2-0.54-1.2-1.2s0.54-1.2,1.2-1.2h7.17c0.66,0,1.2,0.54,1.2,1.2
						S46.04,61.32,45.38,61.32z"/>
				</g>
				<g>
					<path class="st1" d="M53.11,61.32h-0.58c-0.66,0-1.2-0.54-1.2-1.2s0.54-1.2,1.2-1.2h0.58c0.66,0,1.2,0.54,1.2,1.2
						S53.77,61.32,53.11,61.32z"/>
				</g>
				<g>
					<path class="st1" d="M18.99,61.32h-7.1c-0.66,0-1.2-0.54-1.2-1.2s0.54-1.2,1.2-1.2h7.1c0.66,0,1.2,0.54,1.2,1.2
						S19.65,61.32,18.99,61.32z"/>
				</g>
				<g>
					<path class="st2" d="M31.05,61.32H18.53c-0.66,0-1.2-0.54-1.2-1.2s0.54-1.2,1.2-1.2h12.52c0.66,0,1.2,0.54,1.2,1.2
						S31.71,61.32,31.05,61.32z"/>
				</g>
				<g>
					<path class="st2" d="M35.47,55.21H11.89c-0.66,0-1.2-0.54-1.2-1.2s0.54-1.2,1.2-1.2h23.58c0.66,0,1.2,0.54,1.2,1.2
						S36.14,55.21,35.47,55.21z"/>
				</g>
				<g>
					<path class="st1" d="M53.11,55.21H34.75c-0.66,0-1.2-0.54-1.2-1.2s0.54-1.2,1.2-1.2h18.36c0.66,0,1.2,0.54,1.2,1.2
						S53.77,55.21,53.11,55.21z"/>
				</g>
				<g>
					<path class="st1" d="M12.32,55.21h-0.43c-0.66,0-1.2-0.54-1.2-1.2s0.54-1.2,1.2-1.2h0.43c0.66,0,1.2,0.54,1.2,1.2
						S12.98,55.21,12.32,55.21z"/>
				</g>
			</g>
		</g>
	</g>
	<g>
		<g id="Group_297_2_" transform="translate(2471.883 192.836)">
			<path id="Path_356_2_" class="st5" d="M-2455.49-165.4c0,2.29-1.86,4.15-4.15,4.15c-2.29,0-4.15-1.86-4.15-4.15
				c0-2.29,1.86-4.15,4.15-4.15c2.28-0.01,4.14,1.84,4.15,4.12C-2455.49-165.42-2455.49-165.41-2455.49-165.4z"/>
		</g>
		<line id="Línea_1013" class="st6" x1="21.01" y1="17.25" x2="21.01" y2="20.92"/>
		<line id="Línea_1014" class="st6" x1="26.39" y1="17.25" x2="26.39" y2="20.92"/>
		<path class="st6" d="M26.38,20.92l7.2,3.25c1.41,0.63,2.39,2.31,2.71,3.78v7.13"/>
		<polyline class="st6" points="11.01,34.21 11.01,40.93 31.84,40.93 		"/>
		<line id="Línea_1015" class="st6" x1="21.01" y1="20.93" x2="17.69" y2="22.47"/>
		<path id="Trazado_5701" class="st6" d="M28.74,12.96c0,2.8-2.27,5.06-5.06,5.06s-5.06-2.27-5.06-5.06"/>
		<path id="Trazado_5702" class="st6" d="M18.61,12.96v-3.5c0-2.8,2.27-5.06,5.06-5.06s5.06,2.27,5.06,5.06v3.5"/>
		<line class="st6" x1="14.8" y1="8.98" x2="33.14" y2="8.98"/>
		<path class="st6" d="M20.62,21.11c0,0,3.22,2.3,6.19,0"/>
		<g>
			<g>
				<path id="Trazado_6132" class="st7" d="M31.43,4.84c-0.11,1.64-1.77,2.86-1.77,2.86s-1.47-1.44-1.36-3.08s1.77-2.86,1.77-2.86
					S31.54,3.21,31.43,4.84z"/>
			</g>
			<g>
				<path id="Trazado_6132_1_" class="st7" d="M33.7,8.94c-1.61,0.3-3.21-1-3.21-1s1.02-1.79,2.63-2.09c1.61-0.3,3.21,1,3.21,1
					S35.31,8.63,33.7,8.94z"/>
			</g>
		</g>
		<polyline class="st7" points="18.62,22.04 28.29,32.68 34.21,24.54 		"/>
		<line class="st7" x1="28.14" y1="40.93" x2="28.14" y2="32.68"/>
		<g>
			<circle class="st7" cx="43.7" cy="35.08" r="4.53"/>
			<path class="st7" d="M30.49,35.08c0,7.3,5.91,13.21,13.21,13.21s13.21-5.91,13.21-13.21"/>
			<path class="st7" d="M33.36,35.08c0,5.74,4.65,10.39,10.39,10.39s10.39-4.65,10.39-10.39"/>
			<line class="st7" x1="39.17" y1="35.08" x2="30.49" y2="35.08"/>
			<line class="st7" x1="56.91" y1="35.08" x2="48.23" y2="35.08"/>
		</g>
	</g>
</g>
</svg>
