<?xml version="1.0" encoding="utf-8"?>
<!-- Generator: Adobe Illustrator 24.0.2, SVG Export Plug-In . SVG Version: 6.00 Build 0)  -->
<svg version="1.1" id="Capa_1" xmlns="http://www.w3.org/2000/svg" xmlns:xlink="http://www.w3.org/1999/xlink" x="0px" y="0px"
	 viewBox="0 0 49 49" style="enable-background:new 0 0 49 49;" xml:space="preserve">
<style type="text/css">
	.st0{display:none;fill:#19A500;}
	.st1{fill:none;stroke:#FFFFFF;stroke-width:1.6;stroke-linecap:round;stroke-linejoin:round;}
	.st2{fill:none;stroke:#FFFFFF;stroke-width:1.6;stroke-linecap:round;stroke-linejoin:round;stroke-miterlimit:10;}
	.st3{fill:none;stroke:#FFFFFF;stroke-width:1.5663;stroke-linecap:round;stroke-linejoin:round;}
	.st4{fill:none;}
</style>
<rect x="-1.34" y="-1.78" class="st0" width="51.67" height="52.55"/>
<g>
	<ellipse id="Elipse_1636_3_" class="st3" cx="24.5" cy="24.5" rx="23.5" ry="23.5"/>
	<rect class="st4" width="49" height="49"/>
	<g>
		<polygon class="st1" points="27.04,14.46 36.05,14.46 36.05,25.08 39.91,28.95 39.91,38.6 15.78,38.6 18.67,29.91 22.53,29.91 
			25.43,20.26 		"/>
		<polyline class="st1" points="31.74,14.46 31.74,18.33 33.16,19.29 33.16,23.15 		"/>
		<polyline class="st1" points="35.09,38.6 35.09,35.7 36.05,33.77 36.05,30.88 		"/>
		<polyline class="st1" points="27.36,38.6 27.36,34.74 25.43,31.84 25.43,27.98 		"/>
		<g>
			<path class="st1" d="M8.87,13.17l-1.78,6.06c0,0,6.67-3.82,14.91,0.08C21.99,19.31,20.42,11.96,8.87,13.17z"/>
			<polyline class="st1" points="11.62,13.04 12,10.4 15.2,10.86 14.83,13.38 			"/>
			<polyline class="st1" points="10.92,17.91 9.5,27.77 12.7,28.23 14.23,17.55 			"/>
		</g>
	</g>
</g>
</svg>
