<?xml version="1.0" encoding="utf-8"?>
<!-- Generator: Adobe Illustrator 24.0.2, SVG Export Plug-In . SVG Version: 6.00 Build 0)  -->
<svg version="1.1" id="Capa_1" xmlns="http://www.w3.org/2000/svg" xmlns:xlink="http://www.w3.org/1999/xlink" x="0px" y="0px"
	 viewBox="0 0 49 49" style="enable-background:new 0 0 49 49;" xml:space="preserve">
<style type="text/css">
	.st0{display:none;fill:#19A500;}
	.st1{fill:none;stroke:#FFFFFF;stroke-width:1.6;stroke-linecap:round;stroke-linejoin:round;}
	.st2{fill:none;stroke:#FFFFFF;stroke-width:1.6;stroke-linecap:round;stroke-linejoin:round;stroke-miterlimit:10;}
	.st3{fill:none;stroke:#FFFFFF;stroke-width:1.5663;stroke-linecap:round;stroke-linejoin:round;}
	.st4{fill:none;}
</style>
<rect x="-1.34" y="-1.78" class="st0" width="51.67" height="52.55"/>
<g>
	<ellipse id="Elipse_1636_1_" class="st1" cx="24.5" cy="24.5" rx="23.5" ry="23.5"/>
	<g>
		<g>
			<path class="st2" d="M24.42,36.39c-0.39,0.04-6.45,0.5-9.86-2.91c-3.52-3.53-2.9-9.86-2.9-9.86s6.34-0.62,9.86,2.9
				c3.53,3.53,2.91,9.88,2.91,9.88H24.42z"/>
			<path class="st2" d="M37.35,23.61c0,0,0.62,6.33-2.91,9.86c-3.37,3.37-9.28,2.96-9.82,2.91v-0.04v-2.76
				c0.19-2.15,0.85-5.07,2.86-7.08C31.01,22.99,37.35,23.61,37.35,23.61z"/>
			<path class="st2" d="M29.39,16.03c0,4.98-4.92,9.03-4.92,9.03s-4.92-4.05-4.92-9.03c0-5,4.92-9.03,4.92-9.03
				S29.39,11.03,29.39,16.03z"/>
		</g>
		<path class="st2" d="M29.39,16.02c0,4.99-4.92,9.03-4.92,9.03s-4.92-4.04-4.92-9.03s4.92-9.03,4.92-9.03S29.39,11.04,29.39,16.02z
			"/>
		<line class="st2" x1="24.47" y1="14.04" x2="24.47" y2="25.06"/>
		<path class="st2" d="M21.52,26.51c3.53,3.53,2.91,9.87,2.91,9.87s-6.34,0.62-9.87-2.91s-2.91-9.87-2.91-9.87
			S17.99,22.98,21.52,26.51z"/>
		<line class="st2" x1="16.64" y1="28.59" x2="24.43" y2="36.38"/>
		<path class="st2" d="M27.48,26.51c-3.53,3.53-2.91,9.87-2.91,9.87s6.34,0.62,9.87-2.91s2.91-9.87,2.91-9.87S31,22.98,27.48,26.51z
			"/>
		<line class="st2" x1="32.36" y1="28.59" x2="24.57" y2="36.38"/>
		<line class="st2" x1="24.61" y1="25.06" x2="24.61" y2="42.01"/>
		<line class="st2" x1="18.46" y1="42.01" x2="30.96" y2="42.01"/>
	</g>
</g>
</svg>
