<?xml version="1.0" encoding="utf-8"?>
<!-- Generator: Adobe Illustrator 24.0.2, SVG Export Plug-In . SVG Version: 6.00 Build 0)  -->
<svg version="1.1" id="Capa_1" xmlns="http://www.w3.org/2000/svg" xmlns:xlink="http://www.w3.org/1999/xlink" x="0px" y="0px"
	 viewBox="0 0 65 65" style="enable-background:new 0 0 65 65;" xml:space="preserve">
<style type="text/css">
	.st0{fill:none;}
	.st1{fill:#4DA12E;}
	.st2{fill:#96D200;}
	.st3{fill:none;stroke:#19A500;stroke-width:1.6;stroke-linecap:round;stroke-linejoin:round;stroke-miterlimit:10;}
	.st4{fill:none;stroke:#95A6B1;stroke-width:1.6;stroke-linecap:round;stroke-linejoin:round;stroke-miterlimit:10;}
	.st5{fill:none;stroke:#4CA830;stroke-width:1.6;stroke-linecap:round;stroke-linejoin:round;}
	.st6{fill:none;stroke:#96A4AE;stroke-width:1.6;stroke-linecap:round;stroke-linejoin:round;}
	.st7{fill:none;stroke:#97A5AF;stroke-width:1.6;stroke-linecap:round;stroke-linejoin:round;}
</style>
<g>
	<g>
		<g>
			<g>
				<rect y="48.26" class="st0" width="65" height="16.74"/>
			</g>
			<g>
				<g>
					<path class="st1" d="M45.38,61.32h-7.17c-0.66,0-1.2-0.54-1.2-1.2s0.54-1.2,1.2-1.2h7.17c0.66,0,1.2,0.54,1.2,1.2
						S46.04,61.32,45.38,61.32z"/>
				</g>
				<g>
					<path class="st1" d="M53.11,61.32h-0.58c-0.66,0-1.2-0.54-1.2-1.2s0.54-1.2,1.2-1.2h0.58c0.66,0,1.2,0.54,1.2,1.2
						S53.77,61.32,53.11,61.32z"/>
				</g>
				<g>
					<path class="st1" d="M18.99,61.32h-7.1c-0.66,0-1.2-0.54-1.2-1.2s0.54-1.2,1.2-1.2h7.1c0.66,0,1.2,0.54,1.2,1.2
						S19.66,61.32,18.99,61.32z"/>
				</g>
				<g>
					<path class="st2" d="M31.05,61.32H18.53c-0.66,0-1.2-0.54-1.2-1.2s0.54-1.2,1.2-1.2h12.52c0.66,0,1.2,0.54,1.2,1.2
						S31.71,61.32,31.05,61.32z"/>
				</g>
				<g>
					<path class="st2" d="M35.47,55.21H11.89c-0.66,0-1.2-0.54-1.2-1.2s0.54-1.2,1.2-1.2h23.58c0.66,0,1.2,0.54,1.2,1.2
						S36.14,55.21,35.47,55.21z"/>
				</g>
				<g>
					<path class="st1" d="M53.11,55.21H34.75c-0.66,0-1.2-0.54-1.2-1.2s0.54-1.2,1.2-1.2h18.36c0.66,0,1.2,0.54,1.2,1.2
						S53.77,55.21,53.11,55.21z"/>
				</g>
				<g>
					<path class="st1" d="M12.32,55.21h-0.43c-0.66,0-1.2-0.54-1.2-1.2s0.54-1.2,1.2-1.2h0.43c0.66,0,1.2,0.54,1.2,1.2
						S12.98,55.21,12.32,55.21z"/>
				</g>
			</g>
		</g>
	</g>
	<rect id="Rectángulo_3799-2_1_" class="st0" width="65" height="65"/>
	<g>
		<path class="st4" d="M21.54,36.06c2.72,5.19,7.11,10.28,10.95,10.28c6.66,0,13.48-13.27,13.48-19.93s-6.82-12.05-13.48-12.05
			c-5.75,0-11.62,4.02-13.12,9.4"/>
		<path class="st4" d="M28.35,15.03c-0.45-1.18-0.71-2.38-0.71-3.29c0-2.68,2.17-4.84,4.84-4.84s4.84,2.16,4.84,4.84
			c0,0.91-0.26,2.11-0.71,3.29"/>
		<polygon class="st4" points="36.29,23.76 28.68,23.76 24.88,30.35 28.68,36.94 36.29,36.94 40.09,30.35 		"/>
		<line class="st4" x1="36.29" y1="23.76" x2="39.76" y2="16.47"/>
		<line class="st4" x1="28.68" y1="36.94" x2="26.02" y2="42.54"/>
		<line class="st4" x1="28.68" y1="23.76" x2="25.21" y2="16.47"/>
		<line class="st4" x1="38.97" y1="42.6" x2="36.28" y2="36.94"/>
		<line class="st4" x1="40.09" y1="30.35" x2="45.39" y2="30.35"/>
		<g>
			<path class="st4" d="M41.88,18.03c1.32-1.13,3.14-1.83,5.16-1.83c3.99,0,7.23,2.73,7.23,6.11"/>
			<line class="st4" x1="54.26" y1="22.31" x2="45.08" y2="22.31"/>
		</g>
		<g>
			<path class="st4" d="M10.73,22.31c0-3.38,3.25-6.11,7.24-6.11c2.01,0,3.82,0.69,5.14,1.81"/>
			<line class="st4" x1="19.89" y1="22.31" x2="10.73" y2="22.31"/>
		</g>
		<g>
			<path class="st4" d="M42.26,37.98c0.9,0.28,1.78,0.77,2.57,1.44c2.72,2.32,3.34,6.06,1.38,8.35"/>
			<line class="st4" x1="46.21" y1="47.77" x2="39.49" y2="42.03"/>
		</g>
		<g>
			<path class="st4" d="M18.6,47.77c-1.96-2.29-1.34-6.03,1.37-8.35c0.81-0.69,1.72-1.18,2.64-1.46"/>
			<line class="st4" x1="25.42" y1="41.95" x2="18.6" y2="47.77"/>
		</g>
		<path id="Trazado_11848_3_" class="st3" d="M22.79,30.12c0,2.31-1.87,4.18-4.18,4.18c-2.31,0-4.18-1.87-4.18-4.18
			s1.87-4.18,4.18-4.18l0,0c2.3-0.01,4.17,1.85,4.18,4.15C22.79,30.1,22.79,30.11,22.79,30.12z"/>
	</g>
</g>
</svg>
