<?xml version="1.0" encoding="utf-8"?>
<!-- Generator: Adobe Illustrator 24.0.2, SVG Export Plug-In . SVG Version: 6.00 Build 0)  -->
<svg version="1.1" xmlns="http://www.w3.org/2000/svg" xmlns:xlink="http://www.w3.org/1999/xlink" x="0px" y="0px"
	 viewBox="0 0 47 47" style="enable-background:new 0 0 47 47;" xml:space="preserve">
<style type="text/css">
	.st0{fill:none;}
	.st1{fill:#FFFFFF;}
	.st2{fill:#97A5AF;}
	.st3{fill:#19A500;}
	.st4{fill:#4DA12E;}
	.st5{fill:#96D200;}
</style>
<g id="Capa_2">
</g>
<g id="Capa_1">
	<g>
		<rect class="st0" width="47" height="47"/>
	</g>
	<g id="Grupo_13388_1_" transform="translate(0.082 0.186)">
		<g id="Grupo_13062_1_" transform="translate(5.951 5.012)">
			<g id="Trazado_11668_1_">
				<path class="st1" d="M3.89,35.05c-0.2,0-0.39-0.08-0.53-0.22c-0.14-0.14-0.22-0.33-0.22-0.53V20.74c0-0.41,0.34-0.75,0.75-0.75
					s0.75,0.34,0.75,0.75v12.81l26.86-0.09V20.59c0-0.41,0.34-0.75,0.75-0.75S33,20.18,33,20.59V34.2c0,0.41-0.33,0.75-0.75,0.75
					L3.89,35.05C3.89,35.05,3.89,35.05,3.89,35.05z"/>
			</g>
			<g id="Trazado_11669_1_">
				<path class="st1" d="M29.87,21.61c-0.41,0-0.75-0.34-0.75-0.75V7.66l-4.29-4.61H6.97v2.19c0,0.41-0.34,0.75-0.75,0.75
					S5.47,5.65,5.47,5.24V2.3c0-0.41,0.34-0.75,0.75-0.75h18.94c0.21,0,0.41,0.09,0.55,0.24l4.71,5.07c0.13,0.14,0.2,0.32,0.2,0.51
					v13.49C30.62,21.28,30.29,21.61,29.87,21.61z"/>
			</g>
			<g id="Línea_2307_1_">
				<path class="st1" d="M6.22,21.86c-0.41,0-0.75-0.34-0.75-0.75v-4.63c0-0.41,0.34-0.75,0.75-0.75s0.75,0.34,0.75,0.75v4.63
					C6.97,21.53,6.64,21.86,6.22,21.86z"/>
			</g>
			<g id="Línea_2308_1_">
				<path class="st1" d="M26.31,11.82H12.62c-0.41,0-0.75-0.34-0.75-0.75s0.34-0.75,0.75-0.75h13.68c0.41,0,0.75,0.34,0.75,0.75
					S26.72,11.82,26.31,11.82z"/>
			</g>
			<g id="Línea_2309_1_">
				<path class="st1" d="M26.31,15.61H12.62c-0.41,0-0.75-0.34-0.75-0.75s0.34-0.75,0.75-0.75h13.68c0.41,0,0.75,0.34,0.75,0.75
					S26.72,15.61,26.31,15.61z"/>
			</g>
			<g id="Línea_2310_1_">
				<path class="st1" d="M26.31,19H12.62c-0.41,0-0.75-0.34-0.75-0.75s0.34-0.75,0.75-0.75h13.68c0.41,0,0.75,0.34,0.75,0.75
					S26.72,19,26.31,19z"/>
			</g>
			<g id="Trazado_11670_1_">
				<path class="st1" d="M18.09,24.88c-0.06,0-0.12-0.01-0.18-0.02L3.73,21.37c-0.26-0.06-0.47-0.27-0.54-0.53
					c-0.07-0.26,0-0.54,0.19-0.73L5.6,17.9c0.29-0.29,0.77-0.29,1.06,0c0.29,0.29,0.29,0.77,0,1.06l-1.28,1.27l12.89,3.16
					c0.4,0.1,0.65,0.5,0.55,0.91C18.73,24.65,18.43,24.88,18.09,24.88z"/>
			</g>
			<g id="Trazado_11671_1_">
				<path class="st1" d="M18.12,24.88c-0.34,0-0.64-0.23-0.73-0.57c-0.1-0.4,0.15-0.81,0.55-0.91l12.83-3.17l-1.28-1.28
					c-0.29-0.29-0.29-0.77,0-1.06s0.77-0.29,1.06,0l2.22,2.22c0.19,0.19,0.26,0.47,0.19,0.73c-0.07,0.26-0.28,0.46-0.54,0.53
					L18.3,24.86C18.24,24.87,18.18,24.88,18.12,24.88z"/>
			</g>
		</g>
		<g id="Grupo_13063_1_" transform="translate(4.821 9.867)">
			<g id="Elipse_2196_1_">
				<path class="st1" d="M7.28,10.35c-2.33,0-4.22-1.89-4.22-4.22s1.89-4.22,4.22-4.22s4.22,1.89,4.22,4.22S9.61,10.35,7.28,10.35z
					 M7.28,3.41c-1.5,0-2.72,1.22-2.72,2.72s1.22,2.72,2.72,2.72S10,7.63,10,6.13S8.78,3.41,7.28,3.41z"/>
			</g>
		</g>
		<g id="Trazado_11672_1_">
			<path class="st1" d="M35.26,13.14H30.9c-0.41,0-0.75-0.34-0.75-0.75V7.31c0-0.41,0.34-0.75,0.75-0.75s0.75,0.34,0.75,0.75v4.33
				h3.62c0.41,0,0.75,0.34,0.75,0.75S35.68,13.14,35.26,13.14z"/>
		</g>
	</g>
</g>
</svg>
