<?xml version="1.0" encoding="utf-8"?>
<!-- Generator: Adobe Illustrator 24.0.2, SVG Export Plug-In . SVG Version: 6.00 Build 0)  -->
<svg version="1.1" xmlns="http://www.w3.org/2000/svg" xmlns:xlink="http://www.w3.org/1999/xlink" x="0px" y="0px"
	 viewBox="0 0 150 84" style="enable-background:new 0 0 150 84;" xml:space="preserve">
<style type="text/css">
	.st0{fill:none;}
	.st1{fill:#FFFFFF;}
	.st2{fill:#97A5AF;}
	.st3{fill:#19A500;}
	.st4{fill:#4DA12E;}
	.st5{fill:#96D200;}
</style>
<g id="Capa_2">
</g>
<g id="Capa_1">
	<g>
		<g id="Trazado_12358">
			<path class="st2" d="M114.23,45.42c-3.83,0-7.58-1.08-10.88-3.16l-7.18,2.04c-0.36,0.1-0.74,0-1-0.27
				c-0.26-0.27-0.34-0.66-0.23-1.01l2.25-6.76c-2.25-3.38-3.44-7.3-3.44-11.37c0-5.48,2.14-10.63,6.01-14.5c3.87-3.87,9.02-6,14.5-6
				c0,0,0,0,0,0c4.04,0,7.95,1.18,11.32,3.4c4.57,3.02,7.69,7.64,8.78,13.01c1.09,5.37,0.03,10.84-2.99,15.41
				c-3.02,4.57-7.64,7.69-13.01,8.78C116.99,45.28,115.6,45.42,114.23,45.42z M103.51,40.17c0.19,0,0.39,0.06,0.55,0.17
				c4.12,2.73,9.06,3.69,13.91,2.7c4.84-0.99,9.02-3.8,11.74-7.93c2.73-4.13,3.69-9.07,2.7-13.91c-0.99-4.85-3.8-9.02-7.93-11.75
				c-3.04-2.01-6.57-3.07-10.21-3.07l0,0c0,0,0,0,0,0c-4.94,0-9.59,1.92-13.09,5.42c-3.5,3.5-5.42,8.14-5.42,13.09
				c0,3.83,1.16,7.51,3.36,10.64c0.18,0.26,0.23,0.59,0.13,0.89l-1.81,5.43l5.8-1.64C103.32,40.18,103.42,40.17,103.51,40.17z"/>
		</g>
		<g id="Rectángulo_5112">
			<path class="st2" d="M115.91,38.12h-2.58c-1.53,0-2.78-1.25-2.78-2.78v-1.5c0-1.53,1.25-2.78,2.78-2.78h2.58
				c1.53,0,2.78,1.25,2.78,2.78v1.5C118.68,36.87,117.44,38.12,115.91,38.12z M113.33,33.07c-0.43,0-0.78,0.35-0.78,0.78v1.5
				c0,0.43,0.35,0.78,0.78,0.78h2.58c0.43,0,0.78-0.35,0.78-0.78v-1.5c0-0.43-0.35-0.78-0.78-0.78H113.33z"/>
		</g>
		<g id="Rectángulo_5113">
			<path class="st2" d="M117.43,29.82h-6.08c-0.55,0-1-0.45-1-1V11.14c0-0.55,0.45-1,1-1h6.08c0.55,0,1,0.45,1,1v17.69
				C118.43,29.38,117.98,29.82,117.43,29.82z M112.35,27.82h4.08V12.14h-4.08V27.82z"/>
		</g>
		<g>
			<path class="st2" d="M85.72,57.48c-0.3,0-0.59-0.13-0.78-0.37c-2.68-3.33-8.82-7.05-13.32-7.05h-15.2c-0.55,0-1-0.45-1-1V37.79
				c0-0.55,0.45-1,1-1h14.82c9.3,0,13.61-6.32,13.65-6.38c0.25-0.37,0.7-0.53,1.12-0.4c0.42,0.13,0.71,0.52,0.71,0.96v25.51
				c0,0.42-0.27,0.8-0.67,0.94C85.95,57.46,85.83,57.48,85.72,57.48z M57.42,48.05h14.2c4.3,0,9.68,2.81,13.1,5.93V33.61
				c-2.26,2.15-6.66,5.18-13.49,5.18H57.42V48.05z"/>
		</g>
		<g>
			<path class="st2" d="M88.54,58.07h-1.82c-1.1,0-2-0.9-2-2v-24.7c0-1.1,0.9-2,2-2h1.82c1.1,0,2,0.9,2,2v24.7
				C90.53,57.17,89.64,58.07,88.54,58.07z M88.53,31.37l-1.81,0l0,24.7l1.81,0L88.53,31.37z M88.53,31.37h1H88.53L88.53,31.37z"/>
		</g>
		<g>
			<path class="st2" d="M56.12,47.63h-2.08c-0.53,0-1.04-0.21-1.41-0.59c-0.38-0.38-0.58-0.88-0.58-1.41v-3.82c0-1.1,0.9-2,2-2h2.08
				c0.55,0,1,0.45,1,1s-0.45,1-1,1h-2.08l0,3.82l2.08,0c0.55,0,1,0.45,1,1S56.67,47.63,56.12,47.63z"/>
		</g>
		<g>
			<path class="st2" d="M69.01,50.05c-0.55,0-1-0.45-1-1V38.09c0-0.55,0.45-1,1-1s1,0.45,1,1v10.96
				C70.01,49.6,69.56,50.05,69.01,50.05z"/>
		</g>
		<g>
			<path class="st2" d="M89.58,48.18c-0.55,0-1-0.45-1-1s0.45-1,1-1c1.35,0,2.46-1.1,2.46-2.46c0-1.35-1.1-2.46-2.46-2.46
				c-0.55,0-1-0.45-1-1s0.45-1,1-1c2.46,0,4.46,2,4.46,4.46C94.04,46.18,92.04,48.18,89.58,48.18z"/>
		</g>
		<g>
			<path class="st2" d="M65.33,64.5h-3.31c-1.41,0-2.56-1.15-2.56-2.56v-9.72c0-0.31-0.25-0.56-0.56-0.56
				c-1.09,0-1.98-0.89-1.98-1.98v-0.63c0-0.55,0.45-1,1-1s1,0.45,1,1v0.63c1.41,0.01,2.54,1.13,2.54,2.54v9.72
				c0,0.31,0.25,0.56,0.56,0.56h3.31c0.31,0,0.56-0.25,0.56-0.56V49.05c0-0.55,0.45-1,1-1s1,0.45,1,1v12.89
				C67.89,63.35,66.74,64.5,65.33,64.5z"/>
		</g>
		<g id="Trazado_11781_2_">
			<path class="st2" d="M60.45,38.79c-0.55,0-1-0.45-1-1V10.4H29.63c-0.55,0-1-0.45-1-1s0.45-1,1-1h30.82c0.55,0,1,0.45,1,1v28.39
				C61.45,38.35,61,38.79,60.45,38.79z"/>
		</g>
		<g id="Trazado_11781_1_">
			<path class="st2" d="M43.95,60.13H30.28c-5.3,0-9.61-4.31-9.61-9.61V20.63c0-0.55,0.45-1,1-1s1,0.45,1,1v29.89
				c0,4.19,3.41,7.61,7.61,7.61l30.18-0.04c0,0,0,0,0,0c0.55,0,1,0.45,1,1s-0.45,1-1,1L43.95,60.13z"/>
		</g>
		<g id="Línea_2380">
			<path class="st2" d="M48.04,31.96H34.2c-0.55,0-1-0.45-1-1s0.45-1,1-1h13.84c0.55,0,1,0.45,1,1S48.59,31.96,48.04,31.96z"/>
		</g>
		<g id="Línea_2381">
			<path class="st2" d="M49.28,41.48H29.46c-0.55,0-1-0.45-1-1s0.45-1,1-1h19.82c0.55,0,1,0.45,1,1S49.84,41.48,49.28,41.48z"/>
		</g>
		<g id="Línea_2382">
			<path class="st2" d="M49.28,49.19H29.46c-0.55,0-1-0.45-1-1s0.45-1,1-1h19.82c0.55,0,1,0.45,1,1S49.84,49.19,49.28,49.19z"/>
		</g>
		<g id="Trazado_11848_1_">
			<path class="st3" d="M21.23,17.82c-3.32,0-6.02-2.7-6.02-6.02c0-3.32,2.7-6.01,6.02-6.01c0.01,0,0.01,0,0.02,0
				c3.29,0,5.98,2.67,5.99,5.97c0,0,0,0.04,0,0.04C27.24,15.12,24.54,17.82,21.23,17.82z M21.25,7.79c0,0-0.01,0-0.01,0
				c-2.22,0-4.02,1.8-4.02,4.01s1.8,4.02,4.02,4.02s4.01-1.8,4.01-4.02v-0.04C25.23,9.57,23.44,7.79,21.25,7.79z"/>
		</g>
		<g>
			<path class="st2" d="M41.06,31.72c-0.27,0-0.52-0.11-0.71-0.29l-6.44-6.44c-0.19-0.19-0.29-0.44-0.29-0.71s0.11-0.52,0.29-0.71
				l6.44-6.44c0.39-0.39,1.02-0.39,1.41,0l6.44,6.44c0.39,0.39,0.39,1.02,0,1.41l-6.44,6.44C41.58,31.61,41.33,31.72,41.06,31.72z
				 M36.04,24.28l5.03,5.03l5.03-5.03l-5.03-5.03L36.04,24.28z"/>
		</g>
	</g>
	<g>
		<g>
			<g>
				<g>
					<rect x="33" y="63.07" class="st0" width="84" height="20.93"/>
				</g>
				<g>
					<g>
						<path class="st4" d="M91.1,79.4h-8.96c-0.83,0-1.5-0.67-1.5-1.5s0.67-1.5,1.5-1.5h8.96c0.83,0,1.5,0.67,1.5,1.5
							S91.93,79.4,91.1,79.4z"/>
					</g>
					<g>
						<path class="st4" d="M100.76,79.4h-0.73c-0.83,0-1.5-0.67-1.5-1.5s0.67-1.5,1.5-1.5h0.73c0.83,0,1.5,0.67,1.5,1.5
							S101.59,79.4,100.76,79.4z"/>
					</g>
					<g>
						<path class="st4" d="M58.11,79.4h-8.88c-0.83,0-1.5-0.67-1.5-1.5s0.67-1.5,1.5-1.5h8.88c0.83,0,1.5,0.67,1.5,1.5
							S58.94,79.4,58.11,79.4z"/>
					</g>
					<g>
						<path class="st5" d="M73.18,79.4H57.54c-0.83,0-1.5-0.67-1.5-1.5s0.67-1.5,1.5-1.5h15.65c0.83,0,1.5,0.67,1.5,1.5
							S74.01,79.4,73.18,79.4z"/>
					</g>
					<g>
						<path class="st5" d="M78.72,71.76H49.24c-0.83,0-1.5-0.67-1.5-1.5s0.67-1.5,1.5-1.5h29.48c0.83,0,1.5,0.67,1.5,1.5
							S79.54,71.76,78.72,71.76z"/>
					</g>
					<g>
						<path class="st4" d="M100.76,71.76H77.81c-0.83,0-1.5-0.67-1.5-1.5s0.67-1.5,1.5-1.5h22.95c0.83,0,1.5,0.67,1.5,1.5
							S101.59,71.76,100.76,71.76z"/>
					</g>
					<g>
						<path class="st4" d="M49.78,71.76h-0.54c-0.83,0-1.5-0.67-1.5-1.5s0.67-1.5,1.5-1.5h0.54c0.83,0,1.5,0.67,1.5,1.5
							S50.6,71.76,49.78,71.76z"/>
					</g>
				</g>
			</g>
		</g>
	</g>
	<g>
		<rect class="st0" width="150" height="84"/>
	</g>
</g>
</svg>
