<?xml version="1.0" encoding="utf-8"?>
<!-- Generator: Adobe Illustrator 24.0.2, SVG Export Plug-In . SVG Version: 6.00 Build 0)  -->
<svg version="1.1" id="Layer_1" xmlns="http://www.w3.org/2000/svg" xmlns:xlink="http://www.w3.org/1999/xlink" x="0px" y="0px"
	 width="24px" height="24px" viewBox="0 0 24 24" style="enable-background:new 0 0 24 24;" xml:space="preserve">
<style type="text/css">
	.st0{fill:#FFFFFF;}
	.st1{fill:#485361;}
</style>
<g id="Group_10606" transform="translate(-6014 -1079)">
	<g id="Rectangle_3919">
		<rect x="6014" y="1079" class="st0" width="24" height="24"/>
	</g>
	<g id="Group_10605" transform="translate(6016.375 1081)">
		<g id="Rectangle_3694">
			<path class="st1" d="M19.6,20.8h-20c-0.4,0-0.8-0.4-0.8-0.8V0c0-0.4,0.4-0.8,0.8-0.8h20c0.4,0,0.8,0.4,0.8,0.8v20
				C20.4,20.4,20.1,20.8,19.6,20.8z M0.4,19.2h18.4V0.8H0.4V19.2z"/>
		</g>
		<g id="Group_9842" transform="translate(5.032 5.031)">
			<g id="Line_1886">
				<path class="st1" d="M9.9,10.7c-0.2,0-0.4-0.1-0.6-0.2l-9.9-9.9c-0.3-0.3-0.3-0.8,0-1.1s0.8-0.3,1.1,0l9.9,9.9
					c0.3,0.3,0.3,0.8,0,1.1C10.3,10.6,10.1,10.7,9.9,10.7z"/>
			</g>
			<g id="Line_1887">
				<path class="st1" d="M0,10.7c-0.2,0-0.4-0.1-0.6-0.2c-0.3-0.3-0.3-0.8,0-1.1l9.9-9.9c0.3-0.3,0.8-0.3,1.1,0s0.3,0.8,0,1.1
					l-9.9,9.9C0.4,10.6,0.2,10.7,0,10.7z"/>
			</g>
		</g>
	</g>
</g>
</svg>
