<svg id="Capa_1" data-name="Capa 1" xmlns="http://www.w3.org/2000/svg" viewBox="0 0 65 65"><defs><style>.cls-1{fill:#95a6b1;}.cls-2{fill:#00a800;}.cls-3{fill:none;}.cls-4{fill:#4da12e;}.cls-5{fill:#96d200;}</style></defs><title>diametro_tubo</title><g id="Trazado_5703" data-name="Trazado 5703"><path class="cls-1" d="M47.5,22.6A8.8,8.8,0,1,1,47.5,5h0a9,9,0,0,1,6.2,2.5,8.8,8.8,0,0,1,2.6,6.2h0A8.8,8.8,0,0,1,47.5,22.6Zm0-16h0a7.2,7.2,0,1,0,7.2,7.2h0a7.5,7.5,0,0,0-2.1-5.1A7.4,7.4,0,0,0,47.5,6.6Z"/></g><path class="cls-1" d="M48.9,47.7H13.6a.9.9,0,0,1-.8-.8V34.3a.8.8,0,0,1,.8-.8H48.9a.7.7,0,0,1,.8.8V46.9A.8.8,0,0,1,48.9,47.7ZM14.4,46.1H48.1v-11H14.4Z"/><path class="cls-1" d="M13.6,48.8H9.5a.9.9,0,0,1-.8-.8V33.2a.9.9,0,0,1,.8-.8h4.1a.9.9,0,0,1,.8.8V48A.9.9,0,0,1,13.6,48.8Zm-3.3-1.6h2.5V34H10.3Z"/><path class="cls-1" d="M52.8,48.8H49a.8.8,0,0,1-.8-.8V33.2a.8.8,0,0,1,.8-.8h3.8a.9.9,0,0,1,.8.8V48A.9.9,0,0,1,52.8,48.8Zm-3-1.6H52V34H49.8Z"/><path class="cls-1" d="M33.5,47.7a.9.9,0,0,1-.8-.8v-5a.8.8,0,0,1,1.6,0v5A.9.9,0,0,1,33.5,47.7Z"/><path class="cls-1" d="M39.3,35.1H24.1a.9.9,0,0,1-.8-.8v-2a.9.9,0,0,1,.8-.8.8.8,0,0,1,.8.8v1.2H38.5V26.9h-10a.7.7,0,0,1-.8-.8.8.8,0,0,1,.8-.8H39.3a.9.9,0,0,1,.8.8v8.2A.9.9,0,0,1,39.3,35.1Z"/><path class="cls-1" d="M31.7,26.9a.8.8,0,0,1-.8-.8V21.2a.8.8,0,0,1,1.6,0v4.9A.8.8,0,0,1,31.7,26.9Z"/><path class="cls-1" d="M35.2,22H28.5a.8.8,0,0,1-.8-.8.7.7,0,0,1,.8-.8h6.7a.8.8,0,0,1,.8.8A.9.9,0,0,1,35.2,22Z"/><path class="cls-1" d="M39.3,31H28.4a.8.8,0,0,1,0-1.6H39.3a.8.8,0,1,1,0,1.6Z"/><g id="Trazado_5703-2" data-name="Trazado 5703"><path class="cls-2" d="M21.3,31.1a5.4,5.4,0,0,1,0-10.7h.1a5.3,5.3,0,0,1,5.2,5.3h0A5.3,5.3,0,0,1,21.3,31.1Zm0-9.1h0a3.8,3.8,0,0,0,0,7.5A3.7,3.7,0,0,0,25,25.8h0A3.7,3.7,0,0,0,21.3,22Z"/></g><path class="cls-1" d="M53.2,14.6H41.8a.8.8,0,1,1,0-1.6H53.2a.8.8,0,0,1,0,1.6Z"/><path class="cls-1" d="M43.5,16.5l-.6-.2L41,14.4a.9.9,0,0,1,0-1.2l1.9-1.8a.7.7,0,0,1,1.1,0,.8.8,0,0,1,0,1.1l-1.3,1.3L44,15.1a.9.9,0,0,1,0,1.2Z"/><path class="cls-1" d="M51.3,16.5l-.5-.2a.9.9,0,0,1,0-1.2l1.3-1.3-1.3-1.3a.8.8,0,0,1,0-1.1.7.7,0,0,1,1.1,0l1.9,1.8a.9.9,0,0,1,0,1.2l-1.9,1.9A.8.8,0,0,1,51.3,16.5Z"/><path class="cls-1" d="M43.5,31.5h-.3a.9.9,0,0,1-.5-1l2.8-8.9c.2-.4.6-.7,1-.5a.7.7,0,0,1,.5,1L44.2,31A.8.8,0,0,1,43.5,31.5Z"/><g id="Grupo_14998" data-name="Grupo 14998"><g id="Rectángulo_3799-2" data-name="Rectángulo 3799-2"><rect class="cls-3" width="65" height="65"/></g></g><rect class="cls-3" y="48.3" width="65" height="16.74"/><path class="cls-4" d="M45.4,61.3H38.2A1.2,1.2,0,0,1,37,60.1a1.3,1.3,0,0,1,1.2-1.2h7.2a1.3,1.3,0,0,1,1.2,1.2A1.2,1.2,0,0,1,45.4,61.3Z"/><path class="cls-4" d="M53.1,61.3h-.6a1.2,1.2,0,0,1-1.2-1.2,1.3,1.3,0,0,1,1.2-1.2h.6a1.2,1.2,0,0,1,1.2,1.2A1.2,1.2,0,0,1,53.1,61.3Z"/><path class="cls-4" d="M19,61.3H11.9a1.2,1.2,0,0,1-1.2-1.2,1.2,1.2,0,0,1,1.2-1.2H19a1.2,1.2,0,0,1,1.2,1.2A1.2,1.2,0,0,1,19,61.3Z"/><path class="cls-5" d="M31,61.3H18.5a1.2,1.2,0,0,1-1.2-1.2,1.3,1.3,0,0,1,1.2-1.2H31a1.2,1.2,0,0,1,1.2,1.2A1.2,1.2,0,0,1,31,61.3Z"/><path class="cls-5" d="M35.5,55.2H11.9a1.2,1.2,0,1,1,0-2.4H35.5a1.2,1.2,0,0,1,0,2.4Z"/><path class="cls-4" d="M53.1,55.2H34.7a1.2,1.2,0,0,1,0-2.4H53.1a1.2,1.2,0,0,1,0,2.4Z"/><path class="cls-4" d="M12.3,55.2h-.4a1.2,1.2,0,1,1,0-2.4h.4a1.2,1.2,0,0,1,0,2.4Z"/></svg>