<?xml version="1.0" encoding="utf-8"?>
<!-- Generator: Adobe Illustrator 24.0.2, SVG Export Plug-In . SVG Version: 6.00 Build 0)  -->
<svg version="1.1" xmlns="http://www.w3.org/2000/svg" xmlns:xlink="http://www.w3.org/1999/xlink" x="0px" y="0px"
	 viewBox="0 0 65 65" style="enable-background:new 0 0 65 65;" xml:space="preserve">
<style type="text/css">
	.st0{display:none;}
	.st1{display:inline;fill:#98A6B0;}
	.st2{fill:none;}
	.st3{fill:#4C9F2E;}
	.st4{fill:#94D040;}
	.st5{fill:none;stroke:#00A800;stroke-width:1.6;stroke-linecap:round;stroke-linejoin:round;stroke-miterlimit:10;}
	.st6{fill:none;stroke:#95A6B1;stroke-width:1.6;stroke-linecap:round;stroke-linejoin:round;}
	.st7{fill:none;stroke:#95A6B1;stroke-width:1.6;stroke-linecap:round;stroke-linejoin:round;stroke-miterlimit:10;}
	.st8{fill:#FFFFFF;stroke:#95A6B1;stroke-width:1.6;stroke-linecap:round;stroke-linejoin:round;stroke-miterlimit:10;}
	.st9{fill:none;stroke:#95A6B1;stroke-width:1.4545;stroke-linecap:round;stroke-linejoin:round;}
	.st10{fill:none;stroke:#97A5AF;stroke-width:1.4545;stroke-linecap:round;stroke-linejoin:round;}
	.st11{fill:none;stroke:#95A6B1;stroke-width:1.6;stroke-linecap:round;stroke-linejoin:round;stroke-dasharray:2,2;}
</style>
<g id="BASE" class="st0">
</g>
<g id="Capa_1">
	<g>
		<g>
			<g>
				<g>
					<rect y="48.26" class="st2" width="65" height="16.74"/>
				</g>
				<g>
					<g>
						<path class="st3" d="M45.38,61.32h-7.17c-0.66,0-1.2-0.54-1.2-1.2s0.54-1.2,1.2-1.2h7.17c0.66,0,1.2,0.54,1.2,1.2
							S46.04,61.32,45.38,61.32z"/>
					</g>
					<g>
						<path class="st3" d="M53.11,61.32h-0.58c-0.66,0-1.2-0.54-1.2-1.2s0.54-1.2,1.2-1.2h0.58c0.66,0,1.2,0.54,1.2,1.2
							S53.77,61.32,53.11,61.32z"/>
					</g>
					<g>
						<path class="st3" d="M18.99,61.32h-7.1c-0.66,0-1.2-0.54-1.2-1.2s0.54-1.2,1.2-1.2h7.1c0.66,0,1.2,0.54,1.2,1.2
							S19.65,61.32,18.99,61.32z"/>
					</g>
					<g>
						<path class="st4" d="M31.05,61.32H18.53c-0.66,0-1.2-0.54-1.2-1.2s0.54-1.2,1.2-1.2h12.52c0.66,0,1.2,0.54,1.2,1.2
							S31.71,61.32,31.05,61.32z"/>
					</g>
					<g>
						<path class="st4" d="M35.47,55.21H11.89c-0.66,0-1.2-0.54-1.2-1.2s0.54-1.2,1.2-1.2h23.58c0.66,0,1.2,0.54,1.2,1.2
							S36.14,55.21,35.47,55.21z"/>
					</g>
					<g>
						<path class="st3" d="M53.11,55.21H34.75c-0.66,0-1.2-0.54-1.2-1.2s0.54-1.2,1.2-1.2h18.36c0.66,0,1.2,0.54,1.2,1.2
							S53.77,55.21,53.11,55.21z"/>
					</g>
					<g>
						<path class="st3" d="M12.32,55.21h-0.43c-0.66,0-1.2-0.54-1.2-1.2s0.54-1.2,1.2-1.2h0.43c0.66,0,1.2,0.54,1.2,1.2
							S12.98,55.21,12.32,55.21z"/>
					</g>
				</g>
			</g>
		</g>
		<g>
			<path class="st5" d="M22.33,16.87c0.34,0.74,0.36,1.55,0.12,2.27c-0.26,0.79-0.84,1.48-1.66,1.85c-1.56,0.71-3.41,0.03-4.12-1.54
				c-0.71-1.56-0.03-3.41,1.54-4.12C19.77,14.62,21.62,15.31,22.33,16.87z"/>
			<g>
				<path class="st6" d="M57.88,45.21c-3.17,0-3.17-3.1-6.34-3.1c-3.17,0-3.17,3.1-6.34,3.1c-3.17,0-3.17-3.1-6.34-3.1
					c-3.17,0-3.17,3.1-6.34,3.1c-3.17,0-3.17-3.1-6.34-3.1c-3.17,0-3.17,3.1-6.35,3.1c-3.17,0-3.17-3.1-6.35-3.1s-3.17,3.1-6.35,3.1
					"/>
			</g>
			<line class="st7" x1="23.66" y1="39.29" x2="17.5" y2="39.29"/>
			<line class="st6" x1="44.87" y1="27.51" x2="44.87" y2="27.51"/>
			<polyline class="st6" points="18.36,24.26 18.36,27.51 36.93,27.51 			"/>
			<path class="st6" d="M44.87,27.51h3.28v-9.8c0-0.67-0.55-1.22-1.22-1.22H25.39"/>
			<path class="st6" d="M42.08,11.76H29.41c-0.64,0-1.16,0.52-1.16,1.16v3.58h14.83v-3.74C43.08,12.2,42.64,11.76,42.08,11.76z"/>
			<line class="st7" x1="25.02" y1="20.6" x2="48.19" y2="20.6"/>
			<path class="st6" d="M36.93,27.52H14.89c-0.77,0-1.39,0.62-1.39,1.39v12.84"/>
			<path class="st6" d="M53.29,42.58V28.72c0-0.66-0.54-1.2-1.2-1.2l-7.22-0.01"/>
			<line class="st6" x1="27.64" y1="31.27" x2="13.5" y2="31.27"/>
			<line class="st8" x1="23.66" y1="31.25" x2="23.66" y2="42.96"/>
			<line class="st7" x1="23.66" y1="34.92" x2="17.5" y2="34.92"/>
			<line class="st7" x1="17.48" y1="31.25" x2="17.48" y2="44.18"/>
			<line class="st6" x1="27.64" y1="27.51" x2="27.64" y2="42.03"/>
			<polyline class="st7" points="36.93,27.54 36.91,33.6 44.86,33.6 44.86,27.53 			"/>
			<line class="st7" x1="32.03" y1="11.76" x2="32.03" y2="16.49"/>
			<line class="st7" x1="35.67" y1="11.76" x2="35.67" y2="16.49"/>
			<line class="st7" x1="39.43" y1="11.76" x2="39.43" y2="16.49"/>
			<line class="st6" x1="49.08" y1="27.53" x2="49.08" y2="34.01"/>
			<line class="st6" x1="32.28" y1="27.53" x2="32.28" y2="34.01"/>
		</g>
		<rect class="st2" width="65" height="65"/>
	</g>
</g>
</svg>
