<?xml version="1.0" encoding="utf-8"?>
<!-- Generator: Adobe Illustrator 24.0.2, SVG Export Plug-In . SVG Version: 6.00 Build 0)  -->
<svg version="1.1" xmlns="http://www.w3.org/2000/svg" xmlns:xlink="http://www.w3.org/1999/xlink" x="0px" y="0px"
	 viewBox="0 0 65 65" style="enable-background:new 0 0 65 65;" xml:space="preserve">
<style type="text/css">
	.st0{display:none;}
	.st1{display:inline;fill:#98A6B0;}
	.st2{fill:none;}
	.st3{fill:#4C9F2E;}
	.st4{fill:#94D040;}
	.st5{fill:none;stroke:#00A800;stroke-width:1.6;stroke-linecap:round;stroke-linejoin:round;stroke-miterlimit:10;}
	.st6{fill:none;stroke:#95A6B1;stroke-width:1.6;stroke-linecap:round;stroke-linejoin:round;}
	.st7{fill:none;stroke:#95A6B1;stroke-width:1.6;stroke-linecap:round;stroke-linejoin:round;stroke-miterlimit:10;}
	.st8{fill:#FFFFFF;stroke:#95A6B1;stroke-width:1.6;stroke-linecap:round;stroke-linejoin:round;stroke-miterlimit:10;}
	.st9{fill:none;stroke:#95A6B1;stroke-width:1.4545;stroke-linecap:round;stroke-linejoin:round;}
	.st10{fill:none;stroke:#97A5AF;stroke-width:1.4545;stroke-linecap:round;stroke-linejoin:round;}
	.st11{fill:none;stroke:#95A6B1;stroke-width:1.6;stroke-linecap:round;stroke-linejoin:round;stroke-dasharray:2,2;}
</style>
<g id="BASE" class="st0">
</g>
<g id="Capa_1">
	<g>
		<g>
			<g>
				<g>
					<rect y="48.26" class="st2" width="65" height="16.74"/>
				</g>
				<g>
					<g>
						<path class="st3" d="M45.38,61.32h-7.17c-0.66,0-1.2-0.54-1.2-1.2s0.54-1.2,1.2-1.2h7.17c0.66,0,1.2,0.54,1.2,1.2
							S46.04,61.32,45.38,61.32z"/>
					</g>
					<g>
						<path class="st3" d="M53.11,61.32h-0.58c-0.66,0-1.2-0.54-1.2-1.2s0.54-1.2,1.2-1.2h0.58c0.66,0,1.2,0.54,1.2,1.2
							S53.77,61.32,53.11,61.32z"/>
					</g>
					<g>
						<path class="st3" d="M18.99,61.32h-7.1c-0.66,0-1.2-0.54-1.2-1.2s0.54-1.2,1.2-1.2h7.1c0.66,0,1.2,0.54,1.2,1.2
							S19.66,61.32,18.99,61.32z"/>
					</g>
					<g>
						<path class="st4" d="M31.05,61.32H18.53c-0.66,0-1.2-0.54-1.2-1.2s0.54-1.2,1.2-1.2h12.52c0.66,0,1.2,0.54,1.2,1.2
							S31.71,61.32,31.05,61.32z"/>
					</g>
					<g>
						<path class="st4" d="M35.47,55.21H11.89c-0.66,0-1.2-0.54-1.2-1.2s0.54-1.2,1.2-1.2h23.58c0.66,0,1.2,0.54,1.2,1.2
							S36.14,55.21,35.47,55.21z"/>
					</g>
					<g>
						<path class="st3" d="M53.11,55.21H34.75c-0.66,0-1.2-0.54-1.2-1.2s0.54-1.2,1.2-1.2h18.36c0.66,0,1.2,0.54,1.2,1.2
							S53.77,55.21,53.11,55.21z"/>
					</g>
					<g>
						<path class="st3" d="M12.32,55.21h-0.43c-0.66,0-1.2-0.54-1.2-1.2s0.54-1.2,1.2-1.2h0.43c0.66,0,1.2,0.54,1.2,1.2
							S12.98,55.21,12.32,55.21z"/>
					</g>
				</g>
			</g>
		</g>
		<polyline class="st9" points="21.89,38.23 28.84,38.23 28.84,41.37 24.5,41.37 		"/>
		<polyline class="st9" points="31.79,38.23 36.81,38.23 36.81,41.37 31.79,41.37 		"/>
		
			<rect x="28.85" y="36.73" transform="matrix(-1 -2.936552e-11 2.936552e-11 -1 60.641 79.5833)" class="st9" width="2.94" height="6.13"/>
		<path class="st9" d="M8.77,33.94c1.25-0.91,3.87-1.38,5.96-0.49c2.09,0.89,6.72,1.67,9.06-0.48"/>
		<path class="st9" d="M8.72,19.8v-1c0-0.42,0.34-0.76,0.76-0.76h13.52c0.42,0,0.76,0.34,0.76,0.76v23.47
			c0,0.42-0.34,0.76-0.76,0.76H9.49c-0.42,0-0.76-0.34-0.76-0.76V31.31"/>
		<line class="st9" x1="13.15" y1="22.31" x2="25.45" y2="22.29"/>
		<line class="st9" x1="6.81" y1="38.25" x2="16.73" y2="38.23"/>
		<rect x="11.46" y="15.24" class="st9" width="4.75" height="2.79"/>
		<path class="st9" d="M36.86,30.39c1.65-1.19,5.08-1.81,7.83-0.64c2.75,1.17,8.83,2.19,11.91-0.62"/>
		<path class="st9" d="M36.8,13.54V11.2c0-0.55,0.45-1,1-1h17.76c0.55,0,1,0.45,1,1v30.82c0,0.55-0.45,1-1,1H37.8
			c-0.55,0-1-0.45-1-1V27.64V13.54z"/>
		<line class="st9" x1="41.19" y1="15.12" x2="58.78" y2="15.1"/>
		<line class="st9" x1="34.28" y1="34.1" x2="47.32" y2="34.08"/>
		<rect x="40.39" y="6.66" class="st9" width="6.24" height="2.84"/>
		<rect class="st2" width="65" height="65"/>
		<path class="st5" d="M11.35,24.1c0.34,0.74,0.36,1.55,0.12,2.27c-0.26,0.79-0.84,1.48-1.66,1.85c-1.56,0.71-3.41,0.03-4.12-1.54
			s-0.03-3.41,1.54-4.12C8.8,21.85,10.64,22.54,11.35,24.1z"/>
	</g>
</g>
</svg>
