<?xml version="1.0" encoding="utf-8"?>
<!-- Generator: Adobe Illustrator 24.0.2, SVG Export Plug-In . SVG Version: 6.00 Build 0)  -->
<svg version="1.1" xmlns="http://www.w3.org/2000/svg" xmlns:xlink="http://www.w3.org/1999/xlink" x="0px" y="0px"
	 viewBox="0 0 65 65" style="enable-background:new 0 0 65 65;" xml:space="preserve">
<style type="text/css">
	.st0{display:none;}
	.st1{display:inline;fill:#98A6B0;}
	.st2{fill:none;}
	.st3{fill:#4C9F2E;}
	.st4{fill:#94D040;}
	.st5{fill:none;stroke:#00A800;stroke-width:1.6;stroke-linecap:round;stroke-linejoin:round;stroke-miterlimit:10;}
	.st6{fill:none;stroke:#95A6B1;stroke-width:1.6;stroke-linecap:round;stroke-linejoin:round;}
	.st7{fill:none;stroke:#95A6B1;stroke-width:1.6;stroke-linecap:round;stroke-linejoin:round;stroke-miterlimit:10;}
	.st8{fill:#FFFFFF;stroke:#95A6B1;stroke-width:1.6;stroke-linecap:round;stroke-linejoin:round;stroke-miterlimit:10;}
	.st9{fill:none;stroke:#95A6B1;stroke-width:1.4545;stroke-linecap:round;stroke-linejoin:round;}
	.st10{fill:none;stroke:#97A5AF;stroke-width:1.4545;stroke-linecap:round;stroke-linejoin:round;}
	.st11{fill:none;stroke:#95A6B1;stroke-width:1.6;stroke-linecap:round;stroke-linejoin:round;stroke-dasharray:2,2;}
</style>
<g id="BASE" class="st0">
</g>
<g id="Capa_1">
	<g>
		<g>
			<g>
				<g>
					<rect x="0" y="48.26" class="st2" width="65" height="16.74"/>
				</g>
				<g>
					<g>
						<path class="st3" d="M45.38,61.32h-7.17c-0.66,0-1.2-0.54-1.2-1.2s0.54-1.2,1.2-1.2h7.17c0.66,0,1.2,0.54,1.2,1.2
							S46.04,61.32,45.38,61.32z"/>
					</g>
					<g>
						<path class="st3" d="M53.11,61.32h-0.58c-0.66,0-1.2-0.54-1.2-1.2s0.54-1.2,1.2-1.2h0.58c0.66,0,1.2,0.54,1.2,1.2
							S53.77,61.32,53.11,61.32z"/>
					</g>
					<g>
						<path class="st3" d="M18.99,61.32h-7.1c-0.66,0-1.2-0.54-1.2-1.2s0.54-1.2,1.2-1.2h7.1c0.66,0,1.2,0.54,1.2,1.2
							S19.65,61.32,18.99,61.32z"/>
					</g>
					<g>
						<path class="st4" d="M31.05,61.32H18.53c-0.66,0-1.2-0.54-1.2-1.2s0.54-1.2,1.2-1.2h12.52c0.66,0,1.2,0.54,1.2,1.2
							S31.71,61.32,31.05,61.32z"/>
					</g>
					<g>
						<path class="st4" d="M35.47,55.21H11.89c-0.66,0-1.2-0.54-1.2-1.2s0.54-1.2,1.2-1.2h23.58c0.66,0,1.2,0.54,1.2,1.2
							S36.14,55.21,35.47,55.21z"/>
					</g>
					<g>
						<path class="st3" d="M53.11,55.21H34.75c-0.66,0-1.2-0.54-1.2-1.2s0.54-1.2,1.2-1.2h18.36c0.66,0,1.2,0.54,1.2,1.2
							S53.77,55.21,53.11,55.21z"/>
					</g>
					<g>
						<path class="st3" d="M12.32,55.21h-0.43c-0.66,0-1.2-0.54-1.2-1.2s0.54-1.2,1.2-1.2h0.43c0.66,0,1.2,0.54,1.2,1.2
							S12.98,55.21,12.32,55.21z"/>
					</g>
				</g>
			</g>
		</g>
		<rect x="0" class="st2" width="65" height="65"/>
	</g>
	<g>
		<g>
			<g>
				<path class="st6" d="M26.7,44.2c2.78,0,2.78,2.54,5.56,2.54c2.78,0,2.78-2.54,5.56-2.54c2.78,0,2.78,2.54,5.56,2.54
					c2.78,0,2.78-2.54,5.56-2.54c2.78,0,2.78,2.54,5.56,2.54c2.78,0,2.78-2.54,5.56-2.54"/>
			</g>
			<line class="st6" x1="48.15" y1="41.89" x2="53.2" y2="41.89"/>
			<polyline class="st6" points="52.5,31.21 52.5,33.88 40.57,33.88 			"/>
			<path class="st6" d="M35.71,33.88h-2.69v-8.03c0-0.55,0.45-1,1-1h12.71"/>
			<path class="st6" d="M36.35,20.96h7.09c0.52,0,0.95,0.42,0.95,0.95v2.94h-8.86v-3.06C35.53,21.33,35.89,20.96,36.35,20.96z"/>
			<path class="st6" d="M40.57,33.89h14.77c0.63,0,1.14,0.51,1.14,1.14v10.6"/>
			<path class="st6" d="M30.46,45.63V34.87c0-0.54,0.44-0.98,0.98-0.98l4.27-0.01"/>
			<line class="st6" x1="48.15" y1="34.28" x2="48.15" y2="44.24"/>
			<line class="st6" x1="48.15" y1="37.72" x2="53.2" y2="37.72"/>
			<line class="st6" x1="53.21" y1="34.28" x2="53.21" y2="46.13"/>
			<line class="st6" x1="44.88" y1="33.88" x2="44.88" y2="46.13"/>
			<polyline class="st6" points="40.57,33.9 40.59,37.23 36.31,37.23 36.31,33.9 			"/>
			<line class="st6" x1="39.88" y1="20.96" x2="39.88" y2="24.85"/>
		</g>
	</g>
	<g>
		<g>
			<g>
				<path class="st6" d="M17.43,5.77h-3.95c-0.2,0-0.37,0.17-0.37,0.37v1.64c0,0.2,0.17,0.37,0.37,0.37h3.95
					c0.2,0,0.37-0.17,0.37-0.37V6.14C17.8,5.93,17.63,5.77,17.43,5.77z"/>
				<path class="st6" d="M9.29,10.42v4.39H8.67c-0.42,0-0.77,0.34-0.77,0.77v0.37c0,0.42,0.34,0.77,0.77,0.77h0.62v3.7H8.67
					c-0.42,0-0.77,0.34-0.77,0.77v0.37c0,0.42,0.34,0.77,0.77,0.77h0.62v4.76H22.4v-4.76h0.62c0.42,0,0.77-0.34,0.77-0.77v-0.37
					c0-0.42-0.34-0.77-0.77-0.77H22.4v-3.7h0.62c0.42,0,0.77-0.34,0.77-0.77v-0.37c0-0.42-0.34-0.77-0.77-0.77H22.4v-4.39h-9.65"/>
				<path class="st6" d="M23.23,29.36H8.46c-0.31,0-0.56-0.25-0.56-0.56v-1.15c0-0.31,0.25-0.56,0.56-0.56h14.77
					c0.31,0,0.56,0.25,0.56,0.56v1.15C23.79,29.1,23.54,29.36,23.23,29.36z"/>
				<path class="st6" d="M12.07,8.15h11.15c0.31,0,0.56,0.25,0.56,0.56v1.15c0,0.31-0.25,0.56-0.56,0.56H12.25"/>
				<path class="st6" d="M19.79,10.42H8.46c-0.31,0-0.56-0.25-0.56-0.56V8.71c0-0.31,0.25-0.56,0.56-0.56h11.15"/>
			</g>
		</g>
		<line class="st6" x1="11.1" y1="15.73" x2="20.59" y2="15.72"/>
		<line class="st6" x1="11.1" y1="21.21" x2="20.59" y2="21.2"/>
	</g>
	<g>
		<line class="st6" x1="14.41" y1="38.05" x2="6.89" y2="38.05"/>
		<line class="st6" x1="30.28" y1="38.05" x2="17.9" y2="38.05"/>
		<line class="st6" x1="14.41" y1="41.47" x2="6.89" y2="41.47"/>
		<line class="st6" x1="30.28" y1="41.47" x2="18.03" y2="41.47"/>
		<polyline class="st6" points="17.68,41.47 17.68,42.44 14.41,42.44 14.41,36.71 17.68,36.71 17.68,41.47 		"/>
	</g>
	<line class="st11" x1="24.09" y1="38.05" x2="16.04" y2="29.91"/>
	<path class="st5" d="M49.24,25.16c-0.28,0.61-0.3,1.27-0.1,1.86c0.22,0.65,0.69,1.21,1.36,1.52c1.28,0.59,2.79,0.02,3.38-1.26
		c0.59-1.28,0.02-2.79-1.26-3.38C51.34,23.31,49.82,23.87,49.24,25.16z"/>
</g>
</svg>
