<?xml version="1.0" encoding="utf-8"?>
<!-- Generator: Adobe Illustrator 24.0.2, SVG Export Plug-In . SVG Version: 6.00 Build 0)  -->
<svg version="1.1" id="Layer_1" xmlns="http://www.w3.org/2000/svg" xmlns:xlink="http://www.w3.org/1999/xlink" x="0px" y="0px"
	 viewBox="0 0 32 32" style="enable-background:new 0 0 32 32;" xml:space="preserve">
<style type="text/css">
	.st0{fill:#FF9700;stroke:#FF9700;stroke-width:1.5;stroke-miterlimit:10;}
	.st1{fill:none;stroke:#00009E;stroke-width:1.4;stroke-miterlimit:10;}
</style>
<path id="Rectangle_4805" class="st0" d="M16,1.5L16,1.5C24,1.5,30.5,8,30.5,16l0,0c0,8-6.5,14.5-14.5,14.5l0,0
	C8,30.5,1.5,24,1.5,16l0,0C1.5,8,8,1.5,16,1.5z"/>
<g id="Group_17792" transform="translate(-772.717 -550.002)">
	<g id="Group_17792-2">
		<path id="Path_18588" class="st1" d="M791.9,564.2H787v4.9"/>
		<path id="Path_18589" class="st1" d="M787.5,564.7l7.8,7.8"/>
	</g>
	<path id="Path_18588-2" class="st1" d="M795.5,567.7c1-3.8-1.3-7.6-5.1-8.5c-3.8-1-7.6,1.3-8.5,5.1s1.3,7.6,5.1,8.5
		c1.1,0.3,2.3,0.3,3.5,0"/>
</g>
</svg>
