<?xml version="1.0" encoding="utf-8"?>
<!-- Generator: Adobe Illustrator 24.0.2, SVG Export Plug-In . SVG Version: 6.00 Build 0)  -->
<svg version="1.1" id="Capa_1" xmlns="http://www.w3.org/2000/svg" xmlns:xlink="http://www.w3.org/1999/xlink" x="0px" y="0px"
	 viewBox="0 0 65 65" style="enable-background:new 0 0 65 65;" xml:space="preserve">
<style type="text/css">
	.st0{fill:none;stroke:#95A6B1;stroke-width:1.6;stroke-linecap:round;stroke-linejoin:round;}
	.st1{fill:none;stroke:#19A500;stroke-width:1.6;stroke-linecap:round;stroke-linejoin:round;stroke-miterlimit:10;}
	.st2{fill:none;}
	.st3{clip-path:url(#SVGID_2_);}
	.st4{fill:#4DA12E;}
	.st5{fill:#96D200;}
</style>
<g>
	<g>
		<g>
			<g>
				<path class="st0" d="M33.01,44.49c0,0-5.91-6.83,0-14.42C33.01,30.07,39.06,35.23,33.01,44.49z"/>
				<path class="st0" d="M22.32,26.55c-0.37-3.05,0.09-6.1,2.05-9.57c0,0,6.19,6.02,6.73,15.89"/>
				<path class="st0" d="M28.08,39.32c0,0-13.65-7.51-12.19-17.7c0,0,6.45,2.92,9.96,10.2"/>
				<path class="st0" d="M32.05,44.18c0,0-8.42-7.35-5.87-19.17c0,0,3.22,2.08,5.01,7.24"/>
				<path class="st0" d="M33.07,45.17c0,0-15.66-1.38-26.7-17.35c0,0,6.95,1.67,14.04,5.63"/>
				<path class="st0" d="M22.57,41.81c0,0-3.3-0.23-5.8,1.59c0,0,7.44,7.97,16.3,1.77"/>
				<g>
					<path class="st0" d="M33.07,44.49c0,0,5.91-6.83,0-14.42C33.07,30.07,27.01,35.23,33.07,44.49z"/>
					<path class="st0" d="M43.76,26.57c0.37-3.05-0.09-6.12-2.05-9.58c0,0-6.19,6.02-6.73,15.89"/>
					<path class="st0" d="M38,39.32c0,0,13.65-7.51,12.19-17.7c0,0-6.31,3.04-9.81,10.32"/>
					<path class="st0" d="M34.03,44.18c0,0,8.42-7.35,5.87-19.17c0,0-3.22,2.08-5.01,7.24"/>
					<path class="st0" d="M33,45.17c0,0,15.66-1.38,26.7-17.35c0,0-6.95,1.67-14.04,5.63"/>
					<path class="st0" d="M43.51,41.81c0,0,3.3-0.23,5.8,1.59c0,0-7.44,7.97-16.3,1.77"/>
				</g>
				<g>
					<path class="st0" d="M34.54,7.6c0.14-0.25,0.23-0.53,0.23-0.84c0-0.94-0.76-1.71-1.71-1.71s-1.71,0.76-1.71,1.71
						c0,0.3,0.09,0.59,0.23,0.83c-0.94,0-1.7,0.77-1.7,1.71s0.76,1.71,1.71,1.71c0.61,0,1.15-0.33,1.45-0.81
						c0.3,0.48,0.83,0.81,1.45,0.81c0.94,0,1.71-0.76,1.71-1.71C36.18,8.38,35.45,7.63,34.54,7.6z"/>
					<line class="st0" x1="33.01" y1="21.07" x2="33.03" y2="10.2"/>
				</g>
				<g>
					<path class="st0" d="M49.69,14.1c0.23-0.17,0.43-0.39,0.56-0.67c0.4-0.86,0.02-1.87-0.83-2.27c-0.86-0.4-1.87-0.02-2.27,0.83
						c-0.13,0.28-0.17,0.57-0.14,0.85c-0.86-0.39-1.87-0.02-2.26,0.84c-0.4,0.86-0.02,1.87,0.83,2.27c0.56,0.26,1.18,0.19,1.65-0.13
						c0.07,0.57,0.42,1.09,0.97,1.34c0.86,0.4,1.87,0.02,2.27-0.83C50.85,15.5,50.5,14.52,49.69,14.1z"/>
					<line class="st0" x1="43.87" y1="22.56" x2="47.23" y2="15.83"/>
				</g>
				<g>
					<line class="st0" x1="22.12" y1="22.56" x2="19.5" y2="16.9"/>
				</g>
			</g>
			<path class="st0" d="M29.52,26.07c0,0,0.94-3.24,3.37-5.4c0,0,3.1,2.56,3.51,5.67"/>
			<path id="Trazado_11848_5_" class="st1" d="M21.59,13.14c0,2.31-1.87,4.18-4.18,4.18s-4.18-1.87-4.18-4.18s1.87-4.18,4.18-4.18
				l0,0c2.3-0.01,4.17,1.85,4.18,4.15C21.59,13.11,21.59,13.12,21.59,13.14z"/>
		</g>
		<line class="st0" x1="7.57" y1="47.65" x2="57.43" y2="47.65"/>
	</g>
	<g id="Grupo_13216_9_" transform="translate(0.246 0.246)">
		<rect id="Rectángulo_3799_11_" x="-0.25" y="-0.25" class="st2" width="65" height="65"/>
	</g>
	<rect id="Rectángulo_3799-2_9_" class="st2" width="65" height="65"/>
</g>
<g>
	<defs>
		<rect id="SVGID_1_" y="48.26" width="65" height="16.74"/>
	</defs>
	<clipPath id="SVGID_2_">
		<use xlink:href="#SVGID_1_"  style="overflow:visible;"/>
	</clipPath>
	<g class="st3">
		<g>
			<rect y="48.26" class="st2" width="65" height="16.74"/>
		</g>
		<g>
			<g>
				<path class="st4" d="M45.38,61.32h-7.17c-0.66,0-1.2-0.54-1.2-1.2s0.54-1.2,1.2-1.2h7.17c0.66,0,1.2,0.54,1.2,1.2
					S46.04,61.32,45.38,61.32z"/>
			</g>
			<g>
				<path class="st4" d="M53.11,61.32h-0.58c-0.66,0-1.2-0.54-1.2-1.2s0.54-1.2,1.2-1.2h0.58c0.66,0,1.2,0.54,1.2,1.2
					S53.77,61.32,53.11,61.32z"/>
			</g>
			<g>
				<path class="st4" d="M18.99,61.32h-7.1c-0.66,0-1.2-0.54-1.2-1.2s0.54-1.2,1.2-1.2h7.1c0.66,0,1.2,0.54,1.2,1.2
					S19.65,61.32,18.99,61.32z"/>
			</g>
			<g>
				<path class="st5" d="M31.05,61.32H18.53c-0.66,0-1.2-0.54-1.2-1.2s0.54-1.2,1.2-1.2h12.52c0.66,0,1.2,0.54,1.2,1.2
					S31.71,61.32,31.05,61.32z"/>
			</g>
			<g>
				<path class="st5" d="M35.47,55.21H11.89c-0.66,0-1.2-0.54-1.2-1.2s0.54-1.2,1.2-1.2h23.58c0.66,0,1.2,0.54,1.2,1.2
					S36.13,55.21,35.47,55.21z"/>
			</g>
			<g>
				<path class="st4" d="M53.11,55.21H34.75c-0.66,0-1.2-0.54-1.2-1.2s0.54-1.2,1.2-1.2h18.36c0.66,0,1.2,0.54,1.2,1.2
					S53.77,55.21,53.11,55.21z"/>
			</g>
			<g>
				<path class="st4" d="M12.32,55.21h-0.43c-0.66,0-1.2-0.54-1.2-1.2s0.54-1.2,1.2-1.2h0.43c0.66,0,1.2,0.54,1.2,1.2
					S12.98,55.21,12.32,55.21z"/>
			</g>
		</g>
	</g>
</g>
</svg>
