<?xml version="1.0" encoding="utf-8"?>
<!-- Generator: Adobe Illustrator 24.0.2, SVG Export Plug-In . SVG Version: 6.00 Build 0)  -->
<svg version="1.1" id="Capa_1" xmlns="http://www.w3.org/2000/svg" xmlns:xlink="http://www.w3.org/1999/xlink" x="0px" y="0px"
	 viewBox="0 0 65 65" style="enable-background:new 0 0 65 65;" xml:space="preserve">
<style type="text/css">
	.st0{fill:none;stroke:#00A800;stroke-width:1.6;stroke-linecap:round;stroke-linejoin:round;stroke-miterlimit:10;}
	.st1{fill:none;stroke:#93A4AF;stroke-width:1.6;stroke-linecap:round;stroke-linejoin:round;}
	.st2{fill:none;}
	.st3{clip-path:url(#SVGID_2_);}
	.st4{fill:#4DA12E;}
	.st5{fill:#96D200;}
</style>
<g>
	<g>
		<g>
			<path id="Trazado_11848_6_" class="st0" d="M15.31,20.33c0,2.31-1.87,4.18-4.18,4.18s-4.18-1.87-4.18-4.18s1.87-4.18,4.18-4.18
				l0,0c2.3-0.01,4.17,1.85,4.18,4.15C15.31,20.31,15.31,20.32,15.31,20.33z"/>
			<g>
				<line class="st1" x1="16.99" y1="33.01" x2="26.28" y2="33.01"/>
				<line class="st1" x1="29.24" y1="33.01" x2="30.49" y2="33.01"/>
			</g>
			<g>
				<g>
					<polyline class="st1" points="28.71,28.13 37.68,13.93 46.65,28.41 					"/>
					<polyline class="st1" points="17.17,28.13 25.4,16.67 31.19,23.68 					"/>
					<polyline class="st1" points="33.16,21.16 35.67,23.4 37.75,21.22 40.04,23.35 42.18,21.16 					"/>
				</g>
				<path class="st1" d="M11.26,13.32V12.7c0-2.03,1.65-3.67,3.67-3.67h35.14c2.03,0,3.67,1.65,3.67,3.67V35
					c0,2.03-1.65,3.67-3.67,3.67H14.93c-2.03,0-3.67-1.65-3.67-3.67v-7.75"/>
				<polyline class="st1" points="21.25,38.77 21.25,47.66 17.05,47.66 17.05,38.82 				"/>
				<polyline class="st1" points="48.29,38.77 48.29,47.66 44.08,47.66 44.08,38.82 				"/>
				<path class="st1" d="M17.05,8.95V6.92c0-1.12,0.91-2.03,2.03-2.03h0.14c1.12,0,2.03,0.91,2.03,2.03V8.9"/>
				<path class="st1" d="M43.99,8.95V6.92c0-1.12,0.91-2.03,2.03-2.03h0.14c1.12,0,2.03,0.91,2.03,2.03V8.9"/>
				<circle class="st1" cx="47.63" cy="15.56" r="2.23"/>
			</g>
		</g>
		<line class="st1" x1="7.57" y1="47.65" x2="57.43" y2="47.65"/>
	</g>
	<g id="Grupo_13216_10_" transform="translate(0.246 0.246)">
		<rect id="Rectángulo_3799_12_" x="-0.25" y="-0.25" class="st2" width="65" height="65"/>
	</g>
	<rect id="Rectángulo_3799-2_10_" class="st2" width="65" height="65"/>
</g>
<g>
	<defs>
		<rect id="SVGID_1_" y="48.26" width="65" height="16.74"/>
	</defs>
	<clipPath id="SVGID_2_">
		<use xlink:href="#SVGID_1_"  style="overflow:visible;"/>
	</clipPath>
	<g class="st3">
		<g>
			<rect y="48.26" class="st2" width="65" height="16.74"/>
		</g>
		<g>
			<g>
				<path class="st4" d="M45.38,61.32h-7.17c-0.66,0-1.2-0.54-1.2-1.2s0.54-1.2,1.2-1.2h7.17c0.66,0,1.2,0.54,1.2,1.2
					S46.04,61.32,45.38,61.32z"/>
			</g>
			<g>
				<path class="st4" d="M53.11,61.32h-0.58c-0.66,0-1.2-0.54-1.2-1.2s0.54-1.2,1.2-1.2h0.58c0.66,0,1.2,0.54,1.2,1.2
					S53.77,61.32,53.11,61.32z"/>
			</g>
			<g>
				<path class="st4" d="M18.99,61.32h-7.1c-0.66,0-1.2-0.54-1.2-1.2s0.54-1.2,1.2-1.2h7.1c0.66,0,1.2,0.54,1.2,1.2
					S19.65,61.32,18.99,61.32z"/>
			</g>
			<g>
				<path class="st5" d="M31.05,61.32H18.53c-0.66,0-1.2-0.54-1.2-1.2s0.54-1.2,1.2-1.2h12.52c0.66,0,1.2,0.54,1.2,1.2
					S31.71,61.32,31.05,61.32z"/>
			</g>
			<g>
				<path class="st5" d="M35.47,55.21H11.89c-0.66,0-1.2-0.54-1.2-1.2s0.54-1.2,1.2-1.2h23.58c0.66,0,1.2,0.54,1.2,1.2
					S36.13,55.21,35.47,55.21z"/>
			</g>
			<g>
				<path class="st4" d="M53.11,55.21H34.75c-0.66,0-1.2-0.54-1.2-1.2s0.54-1.2,1.2-1.2h18.36c0.66,0,1.2,0.54,1.2,1.2
					S53.77,55.21,53.11,55.21z"/>
			</g>
			<g>
				<path class="st4" d="M12.32,55.21h-0.43c-0.66,0-1.2-0.54-1.2-1.2s0.54-1.2,1.2-1.2h0.43c0.66,0,1.2,0.54,1.2,1.2
					S12.98,55.21,12.32,55.21z"/>
			</g>
		</g>
	</g>
</g>
</svg>
