<?xml version="1.0" encoding="utf-8"?>
<!-- Generator: Adobe Illustrator 24.0.2, SVG Export Plug-In . SVG Version: 6.00 Build 0)  -->
<svg version="1.1" id="Capa_1" xmlns="http://www.w3.org/2000/svg" xmlns:xlink="http://www.w3.org/1999/xlink" x="0px" y="0px"
	 viewBox="0 0 65 65" style="enable-background:new 0 0 65 65;" xml:space="preserve">
<style type="text/css">
	.st0{fill:none;stroke:#95A6B1;stroke-width:1.6;stroke-linecap:round;stroke-linejoin:round;stroke-miterlimit:10;}
	.st1{fill:none;stroke:#19A500;stroke-width:1.6;stroke-linecap:round;stroke-linejoin:round;stroke-miterlimit:10;}
	.st2{fill:none;}
	.st3{clip-path:url(#SVGID_2_);}
	.st4{fill:#4DA12E;}
	.st5{fill:#96D200;}
</style>
<g>
	<g>
		<g>
			<line class="st0" x1="7.13" y1="49.25" x2="58.53" y2="49.25"/>
			<path class="st0" d="M10.83,14.58v-2.15c0-1.72,1.39-3.12,3.12-3.12h3.62c1.72,0,3.12,1.39,3.12,3.12v36.59"/>
			<line class="st0" x1="10.83" y1="49.24" x2="10.83" y2="30.23"/>
			<path class="st0" d="M39.69,49.17V34.68c0-1.66,1.34-3,3-3h9.12c1.66,0,3,1.34,3,3v14.56"/>
			<path class="st0" d="M35.95,49.17V28.19c0-1.66,1.34-3,3-3h5.22c1.66,0,3,1.34,3,3v3.34"/>
			<path class="st0" d="M20.68,15.42h1.37c1.44,0,2.6,1.16,2.6,2.6v31"/>
			<path class="st0" d="M20.91,31.07h7.02c1.27,0,2.29,1.03,2.29,2.29v7.71c0,1.27,1.03,2.29,2.29,2.29h6.92"/>
			<path class="st0" d="M49.77,40.65l-2.1-4.34l-1.94,4.34c0,0-0.41,0.88-0.41,1.41c0,1.34,1.08,2.42,2.42,2.42s2.42-1.08,2.42-2.42
				C50.16,41.53,49.77,40.65,49.77,40.65z"/>
			<line class="st0" x1="41.91" y1="18.91" x2="41.91" y2="24.9"/>
			<path class="st0" d="M54.58,2.45H34.39c-2.85,0-5.15,2.31-5.15,5.15v11.28h20.18c2.85,0,5.15-2.31,5.15-5.15V2.45H54.58z"/>
			<path id="Trazado_11848_2_" class="st1" d="M14.99,22.29c0,2.31-1.87,4.18-4.18,4.18s-4.18-1.87-4.18-4.18s1.87-4.18,4.18-4.18
				l0,0c2.3-0.01,4.17,1.85,4.18,4.15C14.99,22.27,14.99,22.28,14.99,22.29z"/>
			<g>
				<line class="st0" x1="32.38" y1="16.07" x2="32.38" y2="8.53"/>
				<path class="st0" d="M36.78,8.83V7.58c0-1.16-0.95-2.09-2.12-2.09H34.5c-1.16,0-2.12,0.92-2.12,2.09v1.25"/>
				<line class="st0" x1="36.78" y1="16.07" x2="36.78" y2="8.53"/>
				<line class="st0" x1="41.18" y1="16.07" x2="41.18" y2="8.53"/>
				<path class="st0" d="M41.18,8.83V7.58c0-1.16-0.95-2.09-2.12-2.09H38.9c-1.16,0-2.12,0.92-2.12,2.09v1.25"/>
				<line class="st0" x1="43.73" y1="5.49" x2="43.73" y2="16.07"/>
				<g>
					<line class="st0" x1="46.26" y1="16.07" x2="46.26" y2="8.53"/>
					<g>
						<path class="st0" d="M48.54,5.49h-0.16c-1.16,0-2.12,0.95-2.12,2.12v3.34h2.12c1.25,0,2.28-1.02,2.28-2.28V7.61
							C50.66,6.44,49.71,5.49,48.54,5.49z"/>
						<line class="st0" x1="50.65" y1="16.07" x2="46.26" y2="10.95"/>
					</g>
				</g>
			</g>
		</g>
	</g>
	<rect id="Rectángulo_3799-2_3_" class="st2" width="65" height="65"/>
</g>
<g>
	<defs>
		<rect id="SVGID_1_" y="48.26" width="65" height="16.74"/>
	</defs>
	<clipPath id="SVGID_2_">
		<use xlink:href="#SVGID_1_"  style="overflow:visible;"/>
	</clipPath>
	<g class="st3">
		<g>
			<rect y="48.26" class="st2" width="65" height="16.74"/>
		</g>
		<g>
			<g>
				<path class="st4" d="M45.38,61.32h-7.17c-0.66,0-1.2-0.54-1.2-1.2s0.54-1.2,1.2-1.2h7.17c0.66,0,1.2,0.54,1.2,1.2
					S46.04,61.32,45.38,61.32z"/>
			</g>
			<g>
				<path class="st4" d="M53.11,61.32h-0.58c-0.66,0-1.2-0.54-1.2-1.2s0.54-1.2,1.2-1.2h0.58c0.66,0,1.2,0.54,1.2,1.2
					S53.77,61.32,53.11,61.32z"/>
			</g>
			<g>
				<path class="st4" d="M18.99,61.32h-7.1c-0.66,0-1.2-0.54-1.2-1.2s0.54-1.2,1.2-1.2h7.1c0.66,0,1.2,0.54,1.2,1.2
					S19.65,61.32,18.99,61.32z"/>
			</g>
			<g>
				<path class="st5" d="M31.05,61.32H18.53c-0.66,0-1.2-0.54-1.2-1.2s0.54-1.2,1.2-1.2h12.52c0.66,0,1.2,0.54,1.2,1.2
					S31.71,61.32,31.05,61.32z"/>
			</g>
			<g>
				<path class="st5" d="M35.47,55.21H11.89c-0.66,0-1.2-0.54-1.2-1.2s0.54-1.2,1.2-1.2h23.58c0.66,0,1.2,0.54,1.2,1.2
					S36.13,55.21,35.47,55.21z"/>
			</g>
			<g>
				<path class="st4" d="M53.11,55.21H34.75c-0.66,0-1.2-0.54-1.2-1.2s0.54-1.2,1.2-1.2h18.36c0.66,0,1.2,0.54,1.2,1.2
					S53.77,55.21,53.11,55.21z"/>
			</g>
			<g>
				<path class="st4" d="M12.32,55.21h-0.43c-0.66,0-1.2-0.54-1.2-1.2s0.54-1.2,1.2-1.2h0.43c0.66,0,1.2,0.54,1.2,1.2
					S12.98,55.21,12.32,55.21z"/>
			</g>
		</g>
	</g>
</g>
</svg>
