<?xml version="1.0" encoding="utf-8"?>
<!-- Generator: Adobe Illustrator 24.0.2, SVG Export Plug-In . SVG Version: 6.00 Build 0)  -->
<svg version="1.1" id="Capa_1" xmlns="http://www.w3.org/2000/svg" xmlns:xlink="http://www.w3.org/1999/xlink" x="0px" y="0px"
	 viewBox="0 0 65 65" style="enable-background:new 0 0 65 65;" xml:space="preserve">
<style type="text/css">
	.st0{fill:none;stroke:#95A6B1;stroke-width:1.6;stroke-linecap:round;stroke-linejoin:round;}
	.st1{fill:none;stroke:#19A500;stroke-width:1.6;stroke-linecap:round;stroke-linejoin:round;stroke-miterlimit:10;}
	.st2{fill:none;}
	.st3{clip-path:url(#SVGID_2_);}
	.st4{fill:#4DA12E;}
	.st5{fill:#96D200;}
</style>
<g>
	<g id="Grupo_12943_1_" transform="translate(823.843 208.991)">
		<g id="Grupo_12040_1_" transform="translate(-815.047 -200.226)">
			<path id="Trazado_10737_1_" class="st0" d="M2.65,16.28v23.27h7.46V16.29"/>
			<path id="Rectángulo_4147_1_" class="st0" d="M38.58,10.79h4.9c2.12,0,3.84,1.72,3.84,3.84v7.25c0,2.12-1.72,3.84-3.84,3.84
				h-4.9c-2.12,0-3.84-1.72-3.84-3.84v-7.25C34.74,12.51,36.46,10.79,38.58,10.79z"/>
			<path id="Rectángulo_4148_1_" class="st0" d="M3.92,10.79h4.9c2.12,0,3.84,1.72,3.84,3.84v7.25c0,2.12-1.72,3.84-3.84,3.84h-4.9
				c-2.12,0-3.84-1.72-3.84-3.84v-7.25C0.08,12.51,1.8,10.79,3.92,10.79z"/>
			<path id="Trazado_10738_1_" class="st0" d="M40.95,20.05V14.3l-1.79-3.24"/>
			<line id="Línea_2149_1_" class="st0" x1="42.97" y1="10.83" x2="40.95" y2="14.3"/>
			<path id="Trazado_10739_1_" class="st0" d="M37.4,14.72V39.7h7.15V14.72"/>
			<line id="Línea_2150_1_" class="st0" x1="6.41" y1="25.81" x2="6.41" y2="39.41"/>
			<line id="Línea_2151_1_" class="st0" x1="41.11" y1="25.76" x2="41.11" y2="39.58"/>
			<circle id="Elipse_1974_1_" class="st0" cx="6.24" cy="5.19" r="3.36"/>
			<line id="Línea_2152_1_" class="st0" x1="9.16" y1="4.23" x2="3.33" y2="4.23"/>
			<line id="Línea_2153_1_" class="st0" x1="6.3" y1="-0.1" x2="6.3" y2="4.23"/>
			<g id="Grupo_12039_1_" transform="translate(17.525 1.947)">
				<path id="Trazado_10740_1_" class="st0" d="M2.72,9.16v7.47L1.07,29.69h10.36L9.77,16.74v-7.4"/>
				<path id="Rectángulo_4149_1_" class="st0" d="M3.73,8.84h4.9c2.12,0,3.84,1.72,3.84,3.84v7.25c0,2.12-1.72,3.84-3.84,3.84h-4.9
					c-2.12,0-3.84-1.72-3.84-3.84v-7.25C-0.11,10.56,1.61,8.84,3.73,8.84z"/>
				<path id="Trazado_10741_1_" class="st0" d="M2.57,29.68v7.9h7.28v-7.84"/>
				<line id="Línea_2154_1_" class="st0" x1="6.29" y1="29.89" x2="6.29" y2="37.34"/>
				<line id="Línea_2155_1_" class="st0" x1="2.72" y1="16.63" x2="9.77" y2="16.63"/>
				<circle id="Elipse_1975_1_" class="st1" cx="6.05" cy="3.24" r="3.36"/>
			</g>
			<circle id="Elipse_1976_1_" class="st0" cx="40.97" cy="5.19" r="3.36"/>
		</g>
	</g>
	<rect id="Rectángulo_3799-2_14_" class="st2" width="65" height="65"/>
</g>
<g>
	<defs>
		<rect id="SVGID_1_" y="48.26" width="65" height="16.74"/>
	</defs>
	<clipPath id="SVGID_2_">
		<use xlink:href="#SVGID_1_"  style="overflow:visible;"/>
	</clipPath>
	<g class="st3">
		<g>
			<rect y="48.26" class="st2" width="65" height="16.74"/>
		</g>
		<g>
			<g>
				<path class="st4" d="M45.38,61.32h-7.17c-0.66,0-1.2-0.54-1.2-1.2s0.54-1.2,1.2-1.2h7.17c0.66,0,1.2,0.54,1.2,1.2
					S46.04,61.32,45.38,61.32z"/>
			</g>
			<g>
				<path class="st4" d="M53.11,61.32h-0.58c-0.66,0-1.2-0.54-1.2-1.2s0.54-1.2,1.2-1.2h0.58c0.66,0,1.2,0.54,1.2,1.2
					S53.77,61.32,53.11,61.32z"/>
			</g>
			<g>
				<path class="st4" d="M18.99,61.32h-7.1c-0.66,0-1.2-0.54-1.2-1.2s0.54-1.2,1.2-1.2h7.1c0.66,0,1.2,0.54,1.2,1.2
					S19.65,61.32,18.99,61.32z"/>
			</g>
			<g>
				<path class="st5" d="M31.05,61.32H18.53c-0.66,0-1.2-0.54-1.2-1.2s0.54-1.2,1.2-1.2h12.52c0.66,0,1.2,0.54,1.2,1.2
					S31.71,61.32,31.05,61.32z"/>
			</g>
			<g>
				<path class="st5" d="M35.47,55.21H11.89c-0.66,0-1.2-0.54-1.2-1.2s0.54-1.2,1.2-1.2h23.58c0.66,0,1.2,0.54,1.2,1.2
					S36.13,55.21,35.47,55.21z"/>
			</g>
			<g>
				<path class="st4" d="M53.11,55.21H34.75c-0.66,0-1.2-0.54-1.2-1.2s0.54-1.2,1.2-1.2h18.36c0.66,0,1.2,0.54,1.2,1.2
					S53.77,55.21,53.11,55.21z"/>
			</g>
			<g>
				<path class="st4" d="M12.32,55.21h-0.43c-0.66,0-1.2-0.54-1.2-1.2s0.54-1.2,1.2-1.2h0.43c0.66,0,1.2,0.54,1.2,1.2
					S12.98,55.21,12.32,55.21z"/>
			</g>
		</g>
	</g>
</g>
</svg>
