<?xml version="1.0" encoding="utf-8"?>
<!-- Generator: Adobe Illustrator 24.0.2, SVG Export Plug-In . SVG Version: 6.00 Build 0)  -->
<svg version="1.1" id="Capa_1" xmlns="http://www.w3.org/2000/svg" xmlns:xlink="http://www.w3.org/1999/xlink" x="0px" y="0px"
	 viewBox="0 0 65 65" style="enable-background:new 0 0 65 65;" xml:space="preserve">
<style type="text/css">
	.st0{fill:none;stroke:#19A500;stroke-width:1.6;stroke-miterlimit:10;}
	.st1{fill:none;stroke:#95A6B1;stroke-width:1.6;stroke-linecap:round;stroke-linejoin:round;}
	.st2{fill:none;}
	.st3{clip-path:url(#SVGID_2_);}
	.st4{fill:#4DA12E;}
	.st5{fill:#96D200;}
</style>
<g>
	<g id="Grupo_12953" transform="translate(-0.246 -0.246)">
		<g id="Grupo_11525" transform="translate(9.455 4.993)">
			<circle id="Elipse_1898" class="st0" cx="41.92" cy="10.74" r="4.67"/>
			<g id="Grupo_11524">
				<path id="Trazado_10518" class="st1" d="M15.54,43.79c-4.63-2.48-9.52-4.87-13.78-7.95c-2.91-2.1-1.87-5.1,0.56-6.97
					c2.6-2,5.31-3.87,8-5.77c1.8-1.26,3.67-2.4,5.48-3.65c1.12-0.78,4.53-2.45,2.34-3.79c-1.07-0.66-4.19-2.05-4.19-2.05"/>
				<line id="Línea_2023" class="st1" x1="16.42" y1="7.78" x2="26.76" y2="11.8"/>
				<path id="Trazado_10519" class="st1" d="M29.8,24.61l-3.04,3.45c0,0-1.31,1.48,1.15,3.2S41.45,38,41.45,38"/>
				<g id="Grupo_11520" transform="translate(26.05 6.919)">
					<line id="Línea_2024" class="st1" x1="9.52" y1="23.8" x2="9.52" y2="7.61"/>
					<line id="Línea_2025" class="st1" x1="12.57" y1="12.49" x2="9.56" y2="14.65"/>
					<line id="Línea_2026" class="st1" x1="6.51" y1="9.44" x2="9.52" y2="11.28"/>
					<path id="Trazado_10520" class="st1" d="M18.4,10.77c-0.83,5.05-5.6,8.48-10.65,7.65s-8.48-5.6-7.65-10.65
						C0.88,3.05,5.11-0.3,9.88,0.02"/>
				</g>
				<g id="Grupo_11521" transform="translate(0.167)">
					<line id="Línea_2027" class="st1" x1="8.02" y1="20.13" x2="8.02" y2="4.72"/>
					<line id="Línea_2028" class="st1" x1="4.96" y1="9.6" x2="7.98" y2="11.76"/>
					<line id="Línea_2029" class="st1" x1="11.03" y1="6.55" x2="8.02" y2="8.4"/>
					<circle id="Elipse_1899" class="st1" cx="7.82" cy="7.82" r="7.82"/>
				</g>
				<g id="Grupo_11522" transform="translate(6.755 29.746)">
					<path id="Trazado_10521" class="st1" d="M-0.01-0.02c0.62,0.24,1.15,0.65,1.52,1.19c0.21,0.38,0.51,0.7,0.88,0.95
						c0.95,0.59,2.04-0.36,2.36-1.05C5,0.45,5.61,0.06,6.27,0.08"/>
					<path id="Trazado_10522" class="st1" d="M6.27,0.08C6.91,0.19,7.45,0.6,7.73,1.17C8,1.93,8.77,2.39,9.56,2.25
						c0.62-0.17,1.14-0.6,1.41-1.18c0.25-0.62,0.86-1.01,1.52-0.98"/>
					<path id="Trazado_10523" class="st1" d="M12.58,0.08c0.63,0.11,1.18,0.51,1.46,1.09c0.27,0.65,0.88,1.09,1.58,1.14"/>
				</g>
				<g id="Grupo_11523" transform="translate(17.963 37.534)">
					<path id="Trazado_10524" class="st1" d="M-0.02-0.02C0.6,0.21,1.13,0.63,1.51,1.17c0.21,0.38,0.51,0.7,0.88,0.95
						C3.34,2.7,4.42,1.76,4.74,1.06C4.99,0.45,5.6,0.05,6.27,0.08"/>
					<path id="Trazado_10525" class="st1" d="M6.27,0.08C6.9,0.19,7.44,0.59,7.73,1.17c0.26,0.76,1.04,1.22,1.83,1.08
						c0.62-0.17,1.14-0.6,1.41-1.18c0.25-0.62,0.86-1.01,1.52-0.98"/>
					<path id="Trazado_10526" class="st1" d="M12.58,0.08c0.63,0.11,1.18,0.51,1.46,1.09c0.27,0.65,0.88,1.09,1.58,1.14"/>
				</g>
			</g>
		</g>
	</g>
	<rect id="Rectángulo_3799-2_12_" class="st2" width="65" height="65"/>
</g>
<g>
	<defs>
		<rect id="SVGID_1_" y="48.26" width="65" height="16.74"/>
	</defs>
	<clipPath id="SVGID_2_">
		<use xlink:href="#SVGID_1_"  style="overflow:visible;"/>
	</clipPath>
	<g class="st3">
		<g>
			<rect y="48.26" class="st2" width="65" height="16.74"/>
		</g>
		<g>
			<g>
				<path class="st4" d="M45.38,61.32h-7.17c-0.66,0-1.2-0.54-1.2-1.2s0.54-1.2,1.2-1.2h7.17c0.66,0,1.2,0.54,1.2,1.2
					S46.04,61.32,45.38,61.32z"/>
			</g>
			<g>
				<path class="st4" d="M53.11,61.32h-0.58c-0.66,0-1.2-0.54-1.2-1.2s0.54-1.2,1.2-1.2h0.58c0.66,0,1.2,0.54,1.2,1.2
					S53.77,61.32,53.11,61.32z"/>
			</g>
			<g>
				<path class="st4" d="M18.99,61.32h-7.1c-0.66,0-1.2-0.54-1.2-1.2s0.54-1.2,1.2-1.2h7.1c0.66,0,1.2,0.54,1.2,1.2
					S19.65,61.32,18.99,61.32z"/>
			</g>
			<g>
				<path class="st5" d="M31.05,61.32H18.53c-0.66,0-1.2-0.54-1.2-1.2s0.54-1.2,1.2-1.2h12.52c0.66,0,1.2,0.54,1.2,1.2
					S31.71,61.32,31.05,61.32z"/>
			</g>
			<g>
				<path class="st5" d="M35.47,55.21H11.89c-0.66,0-1.2-0.54-1.2-1.2s0.54-1.2,1.2-1.2h23.58c0.66,0,1.2,0.54,1.2,1.2
					S36.13,55.21,35.47,55.21z"/>
			</g>
			<g>
				<path class="st4" d="M53.11,55.21H34.75c-0.66,0-1.2-0.54-1.2-1.2s0.54-1.2,1.2-1.2h18.36c0.66,0,1.2,0.54,1.2,1.2
					S53.77,55.21,53.11,55.21z"/>
			</g>
			<g>
				<path class="st4" d="M12.32,55.21h-0.43c-0.66,0-1.2-0.54-1.2-1.2s0.54-1.2,1.2-1.2h0.43c0.66,0,1.2,0.54,1.2,1.2
					S12.98,55.21,12.32,55.21z"/>
			</g>
		</g>
	</g>
</g>
</svg>
