<?xml version="1.0" encoding="utf-8"?>
<!-- Generator: Adobe Illustrator 24.0.2, SVG Export Plug-In . SVG Version: 6.00 Build 0)  -->
<svg version="1.1" id="Capa_1" xmlns="http://www.w3.org/2000/svg" xmlns:xlink="http://www.w3.org/1999/xlink" x="0px" y="0px"
	 viewBox="0 0 65 65" style="enable-background:new 0 0 65 65;" xml:space="preserve">
<style type="text/css">
	.st0{fill:none;stroke:#19A500;stroke-width:1.6;stroke-linecap:round;stroke-linejoin:round;stroke-miterlimit:10;}
	.st1{fill:none;stroke:#95A6B1;stroke-width:1.6;stroke-linecap:round;stroke-linejoin:round;}
	.st2{fill:none;}
	.st3{clip-path:url(#SVGID_2_);}
	.st4{fill:#4DA12E;}
	.st5{fill:#96D200;}
</style>
<g>
	<g id="Grupo_13213_4_" transform="translate(-0.246 -0.246)">
		<g id="Grupo_13216_4_" transform="translate(0.246 0.246)">
			<g id="Grupo_13215_2_" transform="translate(8.143 7.013)">
				<circle id="Elipse_2037_2_" class="st0" cx="44.08" cy="21.44" r="4.67"/>
				<g id="Grupo_13213-2_2_">
					<path id="Trazado_11524_2_" class="st1" d="M44.1,14.48c-1.81-8.53-9.39-14.6-18.11-14.51c-11.28,0-12.57,6.57-12.57,6.57
						c-2.07,0.14-6.07,6.78,0.43,10.57s11.92-2.14,11.92-2.14s5.86,2.57,5.86,8.35s-6.29,9.58-8.29,9.72"/>
					<path id="Trazado_11525_2_" class="st1" d="M38.77,37.46c1.87-2.72,3.33-5.71,4.31-8.86"/>
					<path id="Trazado_11526_2_" class="st1" d="M15.57,29.32c0,0,8.07-3.57,7.14-11.92"/>
					<path id="Trazado_11527_2_" class="st1" d="M32.13,32.89c0,0-10.21,2.93-18-4.43c0,0-3.29-3.57-3.86-6.57l-0.07-4.57
						c0,0-1.96,1.77-3.42-1.11c0,0,0,3.61-3.45,1.73c0,0,1.04,2.72-2.3,2.84c0,0,1.76,2.3-1.07,4.26c4.5,2.27,7.02,7.18,6.25,12.16"
						/>
					<line id="Línea_2326_2_" class="st1" x1="14.81" y1="20.62" x2="14.38" y2="17.49"/>
					<line id="Línea_2327_2_" class="st1" x1="17.63" y1="21.01" x2="16.64" y2="18.26"/>
					<line id="Línea_2328_2_" class="st1" x1="20.92" y1="21.05" x2="19.17" y2="18.49"/>
					<circle id="Elipse_2038_2_" class="st1" cx="13.51" cy="10.96" r="0.83"/>
					<path id="Trazado_11528_2_" class="st1" d="M31.29,7.08l2.51-1.45c0.87-0.5,1.99-0.2,2.5,0.67l0,0c0.5,0.87,0.2,1.99-0.67,2.5
						l-2.42,1.4"/>
					<path id="Trazado_11529_2_" class="st1" d="M16.44,7.19c0,0,1.69,2.85,4.9,0.26"/>
				</g>
				<g id="Grupo_13214_2_" transform="translate(1.789 37.044)">
					<path id="Trazado_11530_2_" class="st1" d="M-0.05,4.32c1.3-0.43,2.46-1.21,3.33-2.27C3.77,1.3,4.43,0.68,5.2,0.23
						c3.86-2.08,5.02,4.05,8.49,3.89"/>
					<path id="Trazado_11531_2_" class="st1" d="M13.68,4.12c1.32-0.18,2.49-0.94,3.19-2.08c0.71-1.52,2.35-2.37,4-2.06
						c1.79,0.4,2.44,1.59,3.54,2.89c0.7,0.85,1.76,1.32,2.86,1.25"/>
					<path id="Trazado_11532_2_" class="st1" d="M27.47,4.12c1.32-0.18,2.49-0.94,3.19-2.08c0.68-1.29,2-2.12,3.46-2.18
						c3.25,0.06,3.65,4.41,6.94,4.26"/>
				</g>
			</g>
		</g>
		<rect id="Rectángulo_3799-2_4_" x="0.25" y="0.25" class="st2" width="65" height="65"/>
	</g>
	<rect id="Rectángulo_3799-2_11_" class="st2" width="65" height="65"/>
</g>
<g>
	<defs>
		<rect id="SVGID_1_" y="48.26" width="65" height="16.74"/>
	</defs>
	<clipPath id="SVGID_2_">
		<use xlink:href="#SVGID_1_"  style="overflow:visible;"/>
	</clipPath>
	<g class="st3">
		<g>
			<rect y="48.26" class="st2" width="65" height="16.74"/>
		</g>
		<g>
			<g>
				<path class="st4" d="M45.38,61.32h-7.17c-0.66,0-1.2-0.54-1.2-1.2s0.54-1.2,1.2-1.2h7.17c0.66,0,1.2,0.54,1.2,1.2
					S46.04,61.32,45.38,61.32z"/>
			</g>
			<g>
				<path class="st4" d="M53.11,61.32h-0.58c-0.66,0-1.2-0.54-1.2-1.2s0.54-1.2,1.2-1.2h0.58c0.66,0,1.2,0.54,1.2,1.2
					S53.77,61.32,53.11,61.32z"/>
			</g>
			<g>
				<path class="st4" d="M18.99,61.32h-7.1c-0.66,0-1.2-0.54-1.2-1.2s0.54-1.2,1.2-1.2h7.1c0.66,0,1.2,0.54,1.2,1.2
					S19.65,61.32,18.99,61.32z"/>
			</g>
			<g>
				<path class="st5" d="M31.05,61.32H18.53c-0.66,0-1.2-0.54-1.2-1.2s0.54-1.2,1.2-1.2h12.52c0.66,0,1.2,0.54,1.2,1.2
					S31.71,61.32,31.05,61.32z"/>
			</g>
			<g>
				<path class="st5" d="M35.47,55.21H11.89c-0.66,0-1.2-0.54-1.2-1.2s0.54-1.2,1.2-1.2h23.58c0.66,0,1.2,0.54,1.2,1.2
					S36.13,55.21,35.47,55.21z"/>
			</g>
			<g>
				<path class="st4" d="M53.11,55.21H34.75c-0.66,0-1.2-0.54-1.2-1.2s0.54-1.2,1.2-1.2h18.36c0.66,0,1.2,0.54,1.2,1.2
					S53.77,55.21,53.11,55.21z"/>
			</g>
			<g>
				<path class="st4" d="M12.32,55.21h-0.43c-0.66,0-1.2-0.54-1.2-1.2s0.54-1.2,1.2-1.2h0.43c0.66,0,1.2,0.54,1.2,1.2
					S12.98,55.21,12.32,55.21z"/>
			</g>
		</g>
	</g>
</g>
</svg>
