<?xml version="1.0" encoding="utf-8"?>
<!-- Generator: Adobe Illustrator 24.0.2, SVG Export Plug-In . SVG Version: 6.00 Build 0)  -->
<svg version="1.1" id="Capa_1" xmlns="http://www.w3.org/2000/svg" xmlns:xlink="http://www.w3.org/1999/xlink" x="0px" y="0px"
	 viewBox="0 0 65 65" style="enable-background:new 0 0 65 65;" xml:space="preserve">
<style type="text/css">
	.st0{fill:none;stroke:#93A4AF;stroke-width:1.8;stroke-linecap:round;stroke-linejoin:round;}
	.st1{fill:none;}
	.st2{fill:none;stroke:#95A6B1;stroke-width:1.6;stroke-linecap:round;stroke-linejoin:round;}
	.st3{fill:none;stroke:#19A500;stroke-width:1.6;stroke-linecap:round;stroke-linejoin:round;stroke-miterlimit:10;}
	.st4{clip-path:url(#SVGID_2_);}
	.st5{fill:#4DA12E;}
	.st6{fill:#96D200;}
</style>
<g>
	<line class="st0" x1="16.04" y1="48.91" x2="50.85" y2="48.91"/>
	<rect id="Rectángulo_3799-2_16_" class="st1" width="65" height="65"/>
	<g>
		<line class="st2" x1="27.25" y1="16.53" x2="27.25" y2="48.68"/>
		<line class="st2" x1="41.04" y1="39.69" x2="41.04" y2="48.61"/>
		<line class="st2" x1="23.11" y1="19.11" x2="27.24" y2="23.39"/>
		<line class="st2" x1="23.11" y1="29.36" x2="27.24" y2="33.65"/>
		<line class="st2" x1="31.42" y1="19.12" x2="27.28" y2="23.41"/>
		<line class="st2" x1="31.42" y1="29.37" x2="27.28" y2="33.66"/>
		<line class="st2" x1="42.15" y1="26.01" x2="44.75" y2="23.35"/>
		<path class="st2" d="M13.28,25.77c-2.3,1.26-3.86,3.7-3.86,6.5c0,4.1,3.32,7.42,7.42,7.42h20.18c4.1,0,7.42-3.32,7.42-7.42
			c0-3.5-2.43-6.43-5.69-7.21c1.44-1.1,2.37-2.82,2.37-4.77c0-2.99-2.19-5.47-5.05-5.93c0.12-0.59,0.18-1.21,0.18-1.83
			c0-5.14-4.17-9.32-9.32-9.32s-9.32,4.17-9.32,9.32"/>
		<path class="st2" d="M33.02,39.69h16.14c3.28,0,5.94-2.66,5.94-5.94c0-2.8-1.94-5.14-4.55-5.77c1.15-0.88,1.89-2.26,1.89-3.82
			c0-2.39-1.75-4.37-4.04-4.74c0.09-0.47,0.15-0.96,0.15-1.47c0-4.12-3.34-7.45-7.45-7.45c-1.68,0-3.24,0.56-4.49,1.5"/>
		<path id="Trazado_11848_10_" class="st3" d="M19.84,19.13c0,2.31-1.87,4.18-4.18,4.18s-4.18-1.87-4.18-4.18s1.87-4.18,4.18-4.18
			l0,0c2.3-0.01,4.17,1.85,4.18,4.15C19.84,19.11,19.84,19.12,19.84,19.13z"/>
	</g>
</g>
<g>
	<defs>
		<rect id="SVGID_1_" y="48.26" width="65" height="16.74"/>
	</defs>
	<clipPath id="SVGID_2_">
		<use xlink:href="#SVGID_1_"  style="overflow:visible;"/>
	</clipPath>
	<g class="st4">
		<g>
			<rect y="48.26" class="st1" width="65" height="16.74"/>
		</g>
		<g>
			<g>
				<path class="st5" d="M45.38,61.32h-7.17c-0.66,0-1.2-0.54-1.2-1.2s0.54-1.2,1.2-1.2h7.17c0.66,0,1.2,0.54,1.2,1.2
					S46.04,61.32,45.38,61.32z"/>
			</g>
			<g>
				<path class="st5" d="M53.11,61.32h-0.58c-0.66,0-1.2-0.54-1.2-1.2s0.54-1.2,1.2-1.2h0.58c0.66,0,1.2,0.54,1.2,1.2
					S53.77,61.32,53.11,61.32z"/>
			</g>
			<g>
				<path class="st5" d="M18.99,61.32h-7.1c-0.66,0-1.2-0.54-1.2-1.2s0.54-1.2,1.2-1.2h7.1c0.66,0,1.2,0.54,1.2,1.2
					S19.65,61.32,18.99,61.32z"/>
			</g>
			<g>
				<path class="st6" d="M31.05,61.32H18.53c-0.66,0-1.2-0.54-1.2-1.2s0.54-1.2,1.2-1.2h12.52c0.66,0,1.2,0.54,1.2,1.2
					S31.71,61.32,31.05,61.32z"/>
			</g>
			<g>
				<path class="st6" d="M35.47,55.21H11.89c-0.66,0-1.2-0.54-1.2-1.2s0.54-1.2,1.2-1.2h23.58c0.66,0,1.2,0.54,1.2,1.2
					S36.13,55.21,35.47,55.21z"/>
			</g>
			<g>
				<path class="st5" d="M53.11,55.21H34.75c-0.66,0-1.2-0.54-1.2-1.2s0.54-1.2,1.2-1.2h18.36c0.66,0,1.2,0.54,1.2,1.2
					S53.77,55.21,53.11,55.21z"/>
			</g>
			<g>
				<path class="st5" d="M12.32,55.21h-0.43c-0.66,0-1.2-0.54-1.2-1.2s0.54-1.2,1.2-1.2h0.43c0.66,0,1.2,0.54,1.2,1.2
					S12.98,55.21,12.32,55.21z"/>
			</g>
		</g>
	</g>
</g>
</svg>
