<?xml version="1.0" encoding="utf-8"?>
<!-- Generator: Adobe Illustrator 24.0.2, SVG Export Plug-In . SVG Version: 6.00 Build 0)  -->
<svg version="1.1" id="Capa_1" xmlns="http://www.w3.org/2000/svg" xmlns:xlink="http://www.w3.org/1999/xlink" x="0px" y="0px"
	 viewBox="0 0 65 65" style="enable-background:new 0 0 65 65;" xml:space="preserve">
<style type="text/css">
	.st0{fill:none;stroke:#95A6B1;stroke-width:1.6;stroke-linecap:round;stroke-linejoin:round;}
	.st1{fill:none;}
	.st2{fill:none;stroke:#19A500;stroke-width:1.6;stroke-linecap:round;stroke-linejoin:round;stroke-miterlimit:10;}
	.st3{clip-path:url(#SVGID_2_);}
	.st4{fill:#4DA12E;}
	.st5{fill:#96D200;}
</style>
<g>
	<g id="Grupo_13213_2_" transform="translate(-0.246 -0.246)">
		<g id="Grupo_13216_2_" transform="translate(0.246 0.246)">
			<path class="st0" d="M43.5,18.08l-0.9-3.21c-0.11-0.38,0.09-0.78,0.46-0.93l0.03-0.01c0.33-0.13,0.7-0.03,0.91,0.26l1.33,1.77
				c0.31,0.41,0.86,0.53,1.31,0.28l1.07-0.59c0.24-0.13,0.41-0.35,0.49-0.61l0.9-3.2c0.06-0.22,0.05-0.45-0.03-0.65l-0.9-2.24
				c-0.12-0.31-0.04-0.66,0.22-0.88l0,0c0.26-0.22,0.64-0.25,0.93-0.06L50,8.45c0.34,0.22,0.78,0.22,1.12-0.01l4.11-2.74
				c0.32-0.21,0.72-0.23,1.06-0.04l1.18,0.65c0.43,0.24,0.63,0.75,0.47,1.22l-2.47,7.3c-0.06,0.18-0.17,0.34-0.31,0.46l-4.38,3.63
				c-0.28,0.23-0.41,0.59-0.35,0.95l0.69,4.17c0.05,0.27-0.02,0.56-0.19,0.78l-1.31,1.75c-0.35,0.47-0.24,1.13,0.24,1.45l2.77,1.87
				c0.33,0.22,0.5,0.61,0.44,1l-0.31,1.99c-0.13,0.84-1.17,1.16-1.75,0.54l0,0c-0.38-0.4-1-0.43-1.41-0.07l-4.29,3.73
				c-0.37,0.32-0.93,0.33-1.31,0.02l-1.04-0.84c-0.47-0.38-1.17-0.27-1.5,0.24l-1.78,2.79c-0.26,0.4-0.2,0.93,0.14,1.27l0.07,0.07
				c0.39,0.39,0.4,1.02,0.02,1.42l-1.69,1.77c-0.14,0.15-0.23,0.33-0.27,0.53l-0.66,3.78c-0.09,0.49-0.51,0.84-1,0.84H34.5
				c-0.22,0-0.43-0.07-0.61-0.2l-5.29-3.96c-0.23-0.17-0.37-0.43-0.4-0.71l-0.67-6.65c-0.03-0.29-0.18-0.55-0.41-0.72l-4.09-2.97
				c-0.37-0.27-0.89-0.26-1.24,0.04l-2.38,1.95c-0.32,0.26-0.76,0.3-1.13,0.11l-4.03-2.16c-0.27-0.14-0.46-0.4-0.52-0.7l-0.67-3.35
				c-0.1-0.49-0.54-0.84-1.04-0.82l-3.95,0.15c-0.69,0.03-1.21-0.63-1.02-1.29l0.96-3.4c0.01-0.03,0.02-0.07,0.02-0.1l0.44-2.58
				c0.13-0.76,1.02-1.1,1.63-0.63l3.94,3.06c0.17,0.13,0.3,0.32,0.36,0.53l0.39,1.39c0.11,0.39,0.45,0.68,0.85,0.74l1.93,0.24
				c0.11,0.01,0.23,0.05,0.33,0.1l4.26,2.13c0.14,0.07,0.29,0.11,0.45,0.11l2.74,0.02c0.57,0,1.03-0.45,1.03-1.02v-2.37
				c0-0.27,0.11-0.53,0.3-0.72l2.18-2.18c0.4-0.4,1.04-0.4,1.44,0l0.59,0.59c0.26,0.26,0.36,0.63,0.27,0.98l-0.41,1.57
				c-0.25,0.96,0.87,1.67,1.63,1.04l0.9-0.74"/>
		</g>
		<rect id="Rectángulo_3799-2_2_" x="0.25" y="0.25" class="st1" width="65" height="65"/>
	</g>
	<path id="Trazado_11848_7_" class="st2" d="M42.86,22.43c0,2.31-1.87,4.18-4.18,4.18s-4.18-1.87-4.18-4.18s1.87-4.18,4.18-4.18l0,0
		c2.3-0.01,4.17,1.85,4.18,4.15C42.86,22.4,42.86,22.41,42.86,22.43z"/>
</g>
<g>
	<defs>
		<rect id="SVGID_1_" y="48.26" width="65" height="16.74"/>
	</defs>
	<clipPath id="SVGID_2_">
		<use xlink:href="#SVGID_1_"  style="overflow:visible;"/>
	</clipPath>
	<g class="st3">
		<g>
			<rect y="48.26" class="st1" width="65" height="16.74"/>
		</g>
		<g>
			<g>
				<path class="st4" d="M45.38,61.32h-7.17c-0.66,0-1.2-0.54-1.2-1.2s0.54-1.2,1.2-1.2h7.17c0.66,0,1.2,0.54,1.2,1.2
					S46.04,61.32,45.38,61.32z"/>
			</g>
			<g>
				<path class="st4" d="M53.11,61.32h-0.58c-0.66,0-1.2-0.54-1.2-1.2s0.54-1.2,1.2-1.2h0.58c0.66,0,1.2,0.54,1.2,1.2
					S53.77,61.32,53.11,61.32z"/>
			</g>
			<g>
				<path class="st4" d="M18.99,61.32h-7.1c-0.66,0-1.2-0.54-1.2-1.2s0.54-1.2,1.2-1.2h7.1c0.66,0,1.2,0.54,1.2,1.2
					S19.65,61.32,18.99,61.32z"/>
			</g>
			<g>
				<path class="st5" d="M31.05,61.32H18.53c-0.66,0-1.2-0.54-1.2-1.2s0.54-1.2,1.2-1.2h12.52c0.66,0,1.2,0.54,1.2,1.2
					S31.71,61.32,31.05,61.32z"/>
			</g>
			<g>
				<path class="st5" d="M35.47,55.21H11.89c-0.66,0-1.2-0.54-1.2-1.2s0.54-1.2,1.2-1.2h23.58c0.66,0,1.2,0.54,1.2,1.2
					S36.13,55.21,35.47,55.21z"/>
			</g>
			<g>
				<path class="st4" d="M53.11,55.21H34.75c-0.66,0-1.2-0.54-1.2-1.2s0.54-1.2,1.2-1.2h18.36c0.66,0,1.2,0.54,1.2,1.2
					S53.77,55.21,53.11,55.21z"/>
			</g>
			<g>
				<path class="st4" d="M12.32,55.21h-0.43c-0.66,0-1.2-0.54-1.2-1.2s0.54-1.2,1.2-1.2h0.43c0.66,0,1.2,0.54,1.2,1.2
					S12.98,55.21,12.32,55.21z"/>
			</g>
		</g>
	</g>
</g>
</svg>
