<?xml version="1.0" encoding="utf-8"?>
<!-- Generator: Adobe Illustrator 24.0.2, SVG Export Plug-In . SVG Version: 6.00 Build 0)  -->
<svg version="1.1" id="Capa_1" xmlns="http://www.w3.org/2000/svg" xmlns:xlink="http://www.w3.org/1999/xlink" x="0px" y="0px"
	 viewBox="0 0 65 65" style="enable-background:new 0 0 65 65;" xml:space="preserve">
<style type="text/css">
	.st0{fill:none;stroke:#93A4AF;stroke-width:1.6;stroke-linecap:round;stroke-linejoin:round;}
	.st1{fill:none;stroke:#95A6B1;stroke-width:1.6;stroke-linecap:round;stroke-linejoin:round;}
	.st2{fill:none;stroke:#00A800;stroke-width:1.6;stroke-linecap:round;stroke-linejoin:round;stroke-miterlimit:10;}
	.st3{fill:none;}
	.st4{clip-path:url(#SVGID_2_);}
	.st5{fill:#4DA12E;}
	.st6{fill:#96D200;}
</style>
<g>
	<g>
		<g>
			<g>
				<line class="st0" x1="37.68" y1="41.73" x2="44.97" y2="41.73"/>
				<line class="st0" x1="47.94" y1="41.73" x2="49.18" y2="41.73"/>
			</g>
			<path class="st0" d="M26.43,47.51V38.5c0-7.72,6.25-13.97,13.97-13.97l0,0c7.72,0,13.97,6.25,13.97,13.97v9.01"/>
			<path class="st0" d="M10.95,47.4v-3.27c0-7.72,6.25-13.97,13.97-13.97l0,0c1.31,0,2.58,0.18,3.79,0.52"/>
		</g>
		<line class="st0" x1="7.57" y1="47.65" x2="57.43" y2="47.65"/>
		<g id="Grupo_11520_1_" transform="translate(26.05 6.919)">
			<line id="Línea_2024_1_" class="st1" x1="-3.51" y1="23.25" x2="-3.51" y2="7.06"/>
			<line id="Línea_2025_1_" class="st1" x1="-0.45" y1="11.94" x2="-3.46" y2="14.1"/>
			<line id="Línea_2026_1_" class="st1" x1="-6.52" y1="8.89" x2="-3.51" y2="10.73"/>
			<path id="Trazado_10520_1_" class="st1" d="M5.37,10.21c-0.83,5.05-5.6,8.48-10.65,7.65c-5.05-0.83-8.48-5.6-7.65-10.65
				c0.78-4.72,5.01-8.07,9.78-7.75"/>
		</g>
		<path id="Trazado_11848_4_" class="st2" d="M24.59,10.54c0,2.31,1.87,4.18,4.18,4.18s4.18-1.87,4.18-4.18s-1.87-4.18-4.18-4.18
			l0,0c-2.3-0.01-4.17,1.85-4.18,4.15C24.59,10.52,24.59,10.53,24.59,10.54z"/>
	</g>
	<g id="Grupo_13216_8_" transform="translate(0.246 0.246)">
		<rect id="Rectángulo_3799_10_" x="-0.25" y="-0.25" class="st3" width="65" height="65"/>
	</g>
	<rect id="Rectángulo_3799-2_8_" class="st3" width="65" height="65"/>
</g>
<g>
	<defs>
		<rect id="SVGID_1_" y="48.26" width="65" height="16.74"/>
	</defs>
	<clipPath id="SVGID_2_">
		<use xlink:href="#SVGID_1_"  style="overflow:visible;"/>
	</clipPath>
	<g class="st4">
		<g>
			<rect y="48.26" class="st3" width="65" height="16.74"/>
		</g>
		<g>
			<g>
				<path class="st5" d="M45.38,61.32h-7.17c-0.66,0-1.2-0.54-1.2-1.2s0.54-1.2,1.2-1.2h7.17c0.66,0,1.2,0.54,1.2,1.2
					S46.04,61.32,45.38,61.32z"/>
			</g>
			<g>
				<path class="st5" d="M53.11,61.32h-0.58c-0.66,0-1.2-0.54-1.2-1.2s0.54-1.2,1.2-1.2h0.58c0.66,0,1.2,0.54,1.2,1.2
					S53.77,61.32,53.11,61.32z"/>
			</g>
			<g>
				<path class="st5" d="M18.99,61.32h-7.1c-0.66,0-1.2-0.54-1.2-1.2s0.54-1.2,1.2-1.2h7.1c0.66,0,1.2,0.54,1.2,1.2
					S19.65,61.32,18.99,61.32z"/>
			</g>
			<g>
				<path class="st6" d="M31.05,61.32H18.53c-0.66,0-1.2-0.54-1.2-1.2s0.54-1.2,1.2-1.2h12.52c0.66,0,1.2,0.54,1.2,1.2
					S31.71,61.32,31.05,61.32z"/>
			</g>
			<g>
				<path class="st6" d="M35.47,55.21H11.89c-0.66,0-1.2-0.54-1.2-1.2s0.54-1.2,1.2-1.2h23.58c0.66,0,1.2,0.54,1.2,1.2
					S36.13,55.21,35.47,55.21z"/>
			</g>
			<g>
				<path class="st5" d="M53.11,55.21H34.75c-0.66,0-1.2-0.54-1.2-1.2s0.54-1.2,1.2-1.2h18.36c0.66,0,1.2,0.54,1.2,1.2
					S53.77,55.21,53.11,55.21z"/>
			</g>
			<g>
				<path class="st5" d="M12.32,55.21h-0.43c-0.66,0-1.2-0.54-1.2-1.2s0.54-1.2,1.2-1.2h0.43c0.66,0,1.2,0.54,1.2,1.2
					S12.98,55.21,12.32,55.21z"/>
			</g>
		</g>
	</g>
</g>
</svg>
