<?xml version="1.0" encoding="utf-8"?>
<!-- Generator: Adobe Illustrator 24.0.2, SVG Export Plug-In . SVG Version: 6.00 Build 0)  -->
<svg version="1.1" id="Capa_1" xmlns="http://www.w3.org/2000/svg" xmlns:xlink="http://www.w3.org/1999/xlink" x="0px" y="0px"
	 viewBox="0 0 65 65" style="enable-background:new 0 0 65 65;" xml:space="preserve">
<style type="text/css">
	.st0{fill:none;}
	.st1{fill:none;stroke:#95A6B1;stroke-width:1.6;stroke-linecap:round;stroke-linejoin:round;}
	.st2{fill:none;stroke:#00A800;stroke-width:1.6;stroke-linecap:round;stroke-linejoin:round;stroke-miterlimit:10;}
	.st3{fill:none;stroke:#95A6B1;stroke-width:1.6;stroke-linecap:round;stroke-linejoin:round;stroke-miterlimit:10;}
	.st4{clip-path:url(#SVGID_2_);}
	.st5{fill:#4DA12E;}
	.st6{fill:#96D200;}
	.st7{fill:none;stroke:#95A6B1;stroke-width:1.5902;stroke-linecap:round;stroke-linejoin:round;}
</style>
<g>
	<g>
		<g id="Grupo_14998_1_" transform="translate(-83.703)">
			<rect id="Rectángulo_3799-2_15_" x="83.7" class="st0" width="65" height="65"/>
			<g id="Grupo_15257" transform="translate(-5.723 -1.554)">
				<g id="Grupo_15256">
					<line id="Línea_2918" class="st1" x1="96.48" y1="50.82" x2="147.88" y2="50.82"/>
					<path id="Trazado_12587" class="st1" d="M100.18,18.16V16c0-1.72,1.39-3.11,3.12-3.11l0,0h8.62c1.72,0,3.12,1.39,3.12,3.11
						v16.95"/>
					<line id="Línea_2919" class="st1" x1="100.18" y1="50.82" x2="100.18" y2="31.81"/>
					<path id="Trazado_12588" class="st1" d="M129.04,50.74V33.26c0-1.66,1.34-3,3-3h9.12c1.66,0,3,1.34,3,3v17.56"/>
					<path id="Trazado_12589" class="st1" d="M123.3,50.74V27.77c0-1.66,1.34-3,3-3h7.22c1.66,0,3,1.34,3,3v2.34"/>
					<path id="Trazado_11848" class="st2" d="M104.34,24.87c0,2.31-1.88,4.18-4.19,4.18c-2.31,0-4.18-1.88-4.18-4.19
						s1.87-4.18,4.18-4.18l0,0c2.3-0.01,4.17,1.85,4.18,4.15v0.04H104.34z"/>
				</g>
			</g>
			<line class="st3" x1="125.61" y1="18.91" x2="125.61" y2="22.9"/>
			<path class="st3" d="M138.28,2.45H118.1c-2.85,0-5.15,2.31-5.15,5.15v11.28h20.18c2.85,0,5.15-2.31,5.15-5.15V2.45z"/>
			<g>
				<g>
					<line class="st3" x1="129.97" y1="16.07" x2="129.97" y2="8.53"/>
					<g>
						<path class="st3" d="M132.24,5.49h-0.16c-1.16,0-2.12,0.95-2.12,2.12v3.34h2.12c1.25,0,2.28-1.02,2.28-2.28V7.61
							C134.36,6.44,133.41,5.49,132.24,5.49z"/>
						<line class="st3" x1="134.35" y1="16.07" x2="129.97" y2="10.95"/>
					</g>
				</g>
				<g>
					<path class="st3" d="M120.49,7.44c0-1.13-0.93-2.06-2.06-2.06h-0.25c-1.15,0-2.08,0.94-2.08,2.08v1.12
						c0,1.15,0.94,2.08,2.08,2.08h0.23"/>
					<path class="st3" d="M116.09,13.87c0,1.15,0.94,2.08,2.08,2.08h0.23c1.15,0,2.08-0.94,2.08-2.08v-1.15
						c0-1.13-0.93-2.06-2.06-2.06h-0.25"/>
				</g>
				<path id="Trazado_12473_9_" class="st1" d="M125.29,5.49h-0.16c-1.17,0-2.11,0.95-2.12,2.12v6.33c0,1.17,0.95,2.11,2.12,2.12
					h0.16c1.17,0,2.11-0.95,2.12-2.12V7.61C127.41,6.44,126.46,5.49,125.29,5.49z"/>
			</g>
		</g>
		<g>
			<defs>
				<rect id="SVGID_1_" y="48.26" width="65" height="16.74"/>
			</defs>
			<clipPath id="SVGID_2_">
				<use xlink:href="#SVGID_1_"  style="overflow:visible;"/>
			</clipPath>
			<g class="st4">
				<g>
					<rect y="48.26" class="st0" width="65" height="16.74"/>
				</g>
				<g>
					<g>
						<path class="st5" d="M45.38,61.32h-7.17c-0.66,0-1.2-0.54-1.2-1.2s0.54-1.2,1.2-1.2h7.17c0.66,0,1.2,0.54,1.2,1.2
							S46.04,61.32,45.38,61.32z"/>
					</g>
					<g>
						<path class="st5" d="M53.11,61.32h-0.58c-0.66,0-1.2-0.54-1.2-1.2s0.54-1.2,1.2-1.2h0.58c0.66,0,1.2,0.54,1.2,1.2
							S53.77,61.32,53.11,61.32z"/>
					</g>
					<g>
						<path class="st5" d="M18.99,61.32h-7.1c-0.66,0-1.2-0.54-1.2-1.2s0.54-1.2,1.2-1.2h7.1c0.66,0,1.2,0.54,1.2,1.2
							S19.65,61.32,18.99,61.32z"/>
					</g>
					<g>
						<path class="st6" d="M31.05,61.32H18.53c-0.66,0-1.2-0.54-1.2-1.2s0.54-1.2,1.2-1.2h12.52c0.66,0,1.2,0.54,1.2,1.2
							S31.71,61.32,31.05,61.32z"/>
					</g>
					<g>
						<path class="st6" d="M35.47,55.21H11.89c-0.66,0-1.2-0.54-1.2-1.2s0.54-1.2,1.2-1.2h23.58c0.66,0,1.2,0.54,1.2,1.2
							S36.13,55.21,35.47,55.21z"/>
					</g>
					<g>
						<path class="st5" d="M53.11,55.21H34.75c-0.66,0-1.2-0.54-1.2-1.2s0.54-1.2,1.2-1.2h18.36c0.66,0,1.2,0.54,1.2,1.2
							S53.77,55.21,53.11,55.21z"/>
					</g>
					<g>
						<path class="st5" d="M12.32,55.21h-0.43c-0.66,0-1.2-0.54-1.2-1.2s0.54-1.2,1.2-1.2h0.43c0.66,0,1.2,0.54,1.2,1.2
							S12.98,55.21,12.32,55.21z"/>
					</g>
				</g>
			</g>
		</g>
	</g>
	<polyline class="st7" points="33.87,43.5 33.87,31.4 27.66,33.94 27.66,31.4 22.01,33.7 22.01,31.4 10.76,35.52 10.76,43.5 	"/>
	<rect x="13.96" y="38.56" class="st7" width="16.3" height="4.28"/>
	<line class="st7" x1="39.62" y1="34.66" x2="54.73" y2="34.66"/>
	<line class="st7" x1="25.6" y1="19.78" x2="19.98" y2="19.78"/>
	<line class="st7" x1="25.6" y1="23.76" x2="21.98" y2="23.76"/>
	<line class="st7" x1="40.49" y1="38.99" x2="43.93" y2="38.99"/>
</g>
</svg>
