<?xml version="1.0" encoding="utf-8"?>
<!-- Generator: Adobe Illustrator 24.0.2, SVG Export Plug-In . SVG Version: 6.00 Build 0)  -->
<svg version="1.1" id="Capa_1" xmlns="http://www.w3.org/2000/svg" xmlns:xlink="http://www.w3.org/1999/xlink" x="0px" y="0px"
	 viewBox="0 0 65 65" style="enable-background:new 0 0 65 65;" xml:space="preserve">
<style type="text/css">
	.st0{fill:none;}
	.st1{fill:none;stroke:#19A500;stroke-width:1.6;stroke-linecap:round;stroke-linejoin:round;stroke-miterlimit:10;}
	.st2{fill:none;stroke:#95A6B1;stroke-width:1.6;stroke-linecap:round;stroke-linejoin:round;}
	.st3{clip-path:url(#SVGID_2_);}
	.st4{fill:#4DA12E;}
	.st5{fill:#96D200;}
</style>
<g>
	<rect id="Rectángulo_3799-2_6_" class="st0" width="65" height="65"/>
	<g>
		<path id="Trazado_11848_8_" class="st1" d="M23.85,25.85c0,2.31-1.87,4.18-4.18,4.18s-4.18-1.87-4.18-4.18s1.87-4.18,4.18-4.18
			l0,0c2.3-0.01,4.17,1.85,4.18,4.15C23.85,25.83,23.85,25.84,23.85,25.85z"/>
		<path class="st2" d="M19.44,19.29l0.7-1.76c0.15-0.37,0.06-0.78-0.21-1.07l-2.95-3.07c-0.1-0.1-0.22-0.18-0.35-0.24l-1.08-0.42
			c-0.38-0.15-0.63-0.52-0.63-0.93v-0.55c0-0.41,0.25-0.78,0.64-0.93l1.14-0.44V8.95c0-0.14-0.03-0.28-0.09-0.41L16.22,7.7
			c-0.13-0.29-0.12-0.64,0.05-0.92l0.95-1.63c0.36-0.63,1.26-0.67,1.68-0.08l0.62,0.87c0.12,0.17,0.19,0.37,0.19,0.58v1.26
			c0,0.3,0.13,0.58,0.36,0.77l1.06,0.88c0.33,0.27,0.8,0.31,1.17,0.08l0.88-0.55c0.4-0.25,0.93-0.18,1.26,0.16l2.43,2.59
			c0.14,0.15,0.33,0.25,0.53,0.29l8.41,1.73c0.15,0.03,0.3,0.1,0.42,0.2l2.32,1.86c0.34,0.27,0.81,0.29,1.17,0.05l1.22-0.8
			c0.34-0.22,0.79-0.22,1.12,0.02l0.96,0.67c0.42,0.29,0.55,0.86,0.3,1.31l-1.69,3.03c-0.13,0.23-0.16,0.49-0.09,0.74l0.48,1.81
			c0.02,0.08,0.03,0.17,0.03,0.26v1.51c0,0.34,0.17,0.66,0.46,0.84l4.59,2.94c0.05,0.03,0.1,0.07,0.14,0.11l2.52,2.32
			c0.44,0.41,0.43,1.11-0.03,1.5l-4.1,3.51c-0.15,0.13-0.26,0.3-0.31,0.5l-0.46,1.68c-0.05,0.18-0.15,0.35-0.29,0.47l-2.63,2.41
			c-0.27,0.25-0.38,0.62-0.3,0.98l0.79,3.23c0.01,0.06,0.03,0.11,0.06,0.17l1.27,2.87c0.27,0.61-0.12,1.31-0.78,1.4l-1.35,0.18
			c-0.22,0.03-0.44-0.01-0.63-0.12l-0.95-0.54c-0.12-0.07-0.26-0.11-0.4-0.13l-3.14-0.3c-0.17-0.02-0.35,0.01-0.5,0.08l-0.27,0.12
			c-0.48,0.22-1.05,0.02-1.3-0.45l-0.96-1.84c-0.11-0.21-0.29-0.38-0.51-0.47l-0.41-0.17c-0.37-0.15-0.62-0.5-0.63-0.9l-0.04-1.63
			c0-0.16,0.03-0.32,0.1-0.46l0.11-0.23c0.23-0.48,0.05-1.05-0.42-1.31l-1.31-0.72c-0.22-0.12-0.38-0.32-0.46-0.55l-0.58-1.71
			c-0.18-0.52-0.74-0.8-1.26-0.63l-1.5,0.49c-0.31,0.1-0.56,0.35-0.65,0.67l-0.46,1.58c-0.05,0.16-0.13,0.3-0.24,0.41l-1.76,1.81
			c-0.24,0.25-0.6,0.36-0.94,0.28l-0.69-0.16c-0.37-0.09-0.76,0.04-1,0.34l-0.97,1.18L18.7,32.47"/>
	</g>
</g>
<g>
	<g>
		<defs>
			<rect id="SVGID_1_" y="48.26" width="65" height="16.74"/>
		</defs>
		<clipPath id="SVGID_2_">
			<use xlink:href="#SVGID_1_"  style="overflow:visible;"/>
		</clipPath>
		<g class="st3">
			<g>
				<rect y="48.26" class="st0" width="65" height="16.74"/>
			</g>
			<g>
				<g>
					<path class="st4" d="M45.38,61.32h-7.17c-0.66,0-1.2-0.54-1.2-1.2s0.54-1.2,1.2-1.2h7.17c0.66,0,1.2,0.54,1.2,1.2
						S46.04,61.32,45.38,61.32z"/>
				</g>
				<g>
					<path class="st4" d="M53.11,61.32h-0.58c-0.66,0-1.2-0.54-1.2-1.2s0.54-1.2,1.2-1.2h0.58c0.66,0,1.2,0.54,1.2,1.2
						S53.77,61.32,53.11,61.32z"/>
				</g>
				<g>
					<path class="st4" d="M18.99,61.32h-7.1c-0.66,0-1.2-0.54-1.2-1.2s0.54-1.2,1.2-1.2h7.1c0.66,0,1.2,0.54,1.2,1.2
						S19.65,61.32,18.99,61.32z"/>
				</g>
				<g>
					<path class="st5" d="M31.05,61.32H18.53c-0.66,0-1.2-0.54-1.2-1.2s0.54-1.2,1.2-1.2h12.52c0.66,0,1.2,0.54,1.2,1.2
						S31.71,61.32,31.05,61.32z"/>
				</g>
				<g>
					<path class="st5" d="M35.47,55.21H11.89c-0.66,0-1.2-0.54-1.2-1.2s0.54-1.2,1.2-1.2h23.58c0.66,0,1.2,0.54,1.2,1.2
						S36.13,55.21,35.47,55.21z"/>
				</g>
				<g>
					<path class="st4" d="M53.11,55.21H34.75c-0.66,0-1.2-0.54-1.2-1.2s0.54-1.2,1.2-1.2h18.36c0.66,0,1.2,0.54,1.2,1.2
						S53.77,55.21,53.11,55.21z"/>
				</g>
				<g>
					<path class="st4" d="M12.32,55.21h-0.43c-0.66,0-1.2-0.54-1.2-1.2s0.54-1.2,1.2-1.2h0.43c0.66,0,1.2,0.54,1.2,1.2
						S12.98,55.21,12.32,55.21z"/>
				</g>
			</g>
		</g>
	</g>
</g>
</svg>
