<?xml version="1.0" encoding="utf-8"?>
<!-- Generator: Adobe Illustrator 24.0.2, SVG Export Plug-In . SVG Version: 6.00 Build 0)  -->
<svg version="1.1" id="Capa_1" xmlns="http://www.w3.org/2000/svg" xmlns:xlink="http://www.w3.org/1999/xlink" x="0px" y="0px"
	 viewBox="0 0 65 65" style="enable-background:new 0 0 65 65;" xml:space="preserve">
<style type="text/css">
	.st0{fill:none;stroke:#19A500;stroke-width:1.6;stroke-miterlimit:10;}
	.st1{fill:none;stroke:#95A6B1;stroke-width:1.6;stroke-linecap:round;stroke-linejoin:round;}
	.st2{fill:none;}
	.st3{clip-path:url(#SVGID_2_);}
	.st4{fill:#4DA12E;}
	.st5{fill:#96D200;}
</style>
<g>
	<g id="Grupo_12949_1_" transform="translate(-0.246 -0.246)">
		<g id="Grupo_11514_1_" transform="translate(10.072 11.149)">
			<circle id="Elipse_1897_1_" class="st0" cx="9.21" cy="7.23" r="4.66"/>
			<g id="Grupo_11513_1_">
				<path id="Trazado_10514_1_" class="st1" d="M6.16,12.94c-0.01,0.15-0.02,0.31-0.02,0.47c0,0.35,0.03,0.71,0.09,1.06
					c-3.53,0.49-6.17,3.5-6.18,7.06v0.14c0.01,3.94,3.2,7.12,7.13,7.13h14.88c3.94-0.01,7.12-3.2,7.13-7.13v-0.14
					c-0.01-3.93-3.2-7.12-7.13-7.13h-1.15c0.05-0.33,0.08-0.65,0.08-0.98c-0.06-3.17-2.21-5.92-5.28-6.73"/>
				<path id="Trazado_10515_1_" class="st1" d="M23.47,14.27c0.28-4.23,3.94-7.43,8.17-7.15s7.43,3.94,7.15,8.17
					s-3.94,7.43-8.17,7.15c-0.47-0.03-0.94-0.11-1.4-0.22"/>
				<g id="Grupo_11509_1_" transform="translate(30.71)">
					<line id="Línea_2011_1_" class="st1" x1="0.05" y1="4.33" x2="0.05" y2="0.05"/>
					<line id="Línea_2012_1_" class="st1" x1="0.05" y1="24.58" x2="0.05" y2="29.11"/>
				</g>
				<g id="Grupo_11510_1_" transform="translate(20.436 4.256)">
					<line id="Línea_2013_1_" class="st1" x1="17.58" y1="3.08" x2="20.6" y2="0.05"/>
				</g>
				<g id="Grupo_11511_1_" transform="translate(20.436 4.256)">
					<line id="Línea_2014_1_" class="st1" x1="3.08" y1="3.08" x2="0.05" y2="0.05"/>
					<line id="Línea_2015_1_" class="st1" x1="17.4" y1="17.4" x2="20.6" y2="20.6"/>
				</g>
				<g id="Grupo_11512_1_" transform="translate(40.963 14.53)">
					<line id="Línea_2016_1_" class="st1" x1="0.05" y1="0.05" x2="4.33" y2="0.05"/>
				</g>
				<line id="Línea_2017_1_" class="st1" x1="10.28" y1="28.98" x2="6.55" y2="32.79"/>
				<line id="Línea_2018_1_" class="st1" x1="14.25" y1="33.11" x2="10.52" y2="36.92"/>
				<line id="Línea_2019_1_" class="st1" x1="20.49" y1="31.66" x2="16.77" y2="35.47"/>
			</g>
		</g>
	</g>
	<rect id="Rectángulo_3799-2_13_" class="st2" width="65" height="65"/>
</g>
<g>
	<defs>
		<rect id="SVGID_1_" y="48.26" width="65" height="16.74"/>
	</defs>
	<clipPath id="SVGID_2_">
		<use xlink:href="#SVGID_1_"  style="overflow:visible;"/>
	</clipPath>
	<g class="st3">
		<g>
			<rect y="48.26" class="st2" width="65" height="16.74"/>
		</g>
		<g>
			<g>
				<path class="st4" d="M45.38,61.32h-7.17c-0.66,0-1.2-0.54-1.2-1.2s0.54-1.2,1.2-1.2h7.17c0.66,0,1.2,0.54,1.2,1.2
					S46.04,61.32,45.38,61.32z"/>
			</g>
			<g>
				<path class="st4" d="M53.11,61.32h-0.58c-0.66,0-1.2-0.54-1.2-1.2s0.54-1.2,1.2-1.2h0.58c0.66,0,1.2,0.54,1.2,1.2
					S53.77,61.32,53.11,61.32z"/>
			</g>
			<g>
				<path class="st4" d="M18.99,61.32h-7.1c-0.66,0-1.2-0.54-1.2-1.2s0.54-1.2,1.2-1.2h7.1c0.66,0,1.2,0.54,1.2,1.2
					S19.65,61.32,18.99,61.32z"/>
			</g>
			<g>
				<path class="st5" d="M31.05,61.32H18.53c-0.66,0-1.2-0.54-1.2-1.2s0.54-1.2,1.2-1.2h12.52c0.66,0,1.2,0.54,1.2,1.2
					S31.71,61.32,31.05,61.32z"/>
			</g>
			<g>
				<path class="st5" d="M35.47,55.21H11.89c-0.66,0-1.2-0.54-1.2-1.2s0.54-1.2,1.2-1.2h23.58c0.66,0,1.2,0.54,1.2,1.2
					S36.13,55.21,35.47,55.21z"/>
			</g>
			<g>
				<path class="st4" d="M53.11,55.21H34.75c-0.66,0-1.2-0.54-1.2-1.2s0.54-1.2,1.2-1.2h18.36c0.66,0,1.2,0.54,1.2,1.2
					S53.77,55.21,53.11,55.21z"/>
			</g>
			<g>
				<path class="st4" d="M12.32,55.21h-0.43c-0.66,0-1.2-0.54-1.2-1.2s0.54-1.2,1.2-1.2h0.43c0.66,0,1.2,0.54,1.2,1.2
					S12.98,55.21,12.32,55.21z"/>
			</g>
		</g>
	</g>
</g>
</svg>
