<svg xmlns="http://www.w3.org/2000/svg" viewBox="0 0 64 64"><defs><style>.cls-1{fill:#fff;}.cls-2{fill:none;}</style></defs><title>1_km</title><g id="Capa_1" data-name="Capa 1"><path class="cls-1" d="M52.8,46.1a2.2,2.2,0,0,1-1.1-.2,2.4,2.4,0,0,1-1.3-1.5,2.5,2.5,0,0,1,.1-1.9h0a2.6,2.6,0,0,1,3.4-1.3,2.7,2.7,0,0,1,1.3,3.4A2.6,2.6,0,0,1,52.8,46.1Zm-.7-2.9a.6.6,0,0,0,0,.6.7.7,0,0,0,.4.5.6.6,0,0,0,.6,0,.8.8,0,0,0,.4-.4.7.7,0,0,0-.4-1,.8.8,0,0,0-1,.3Z"/><path class="cls-1" d="M55.4,55.1a.9.9,0,0,1-.9-.9V48.5h-17v5.7a.9.9,0,1,1-1.8,0V47.6a.9.9,0,0,1,.9-.9H55.4a.9.9,0,0,1,.9.9v6.6A.9.9,0,0,1,55.4,55.1Z"/><path class="cls-1" d="M40.3,51.5a.9.9,0,0,1-.9-.9V47.7a.9.9,0,0,1,1.8,0v2.9A.9.9,0,0,1,40.3,51.5Z"/><path class="cls-1" d="M36.6,50.4a.9.9,0,0,1-.9-.9V47.7a.9.9,0,0,1,1.8,0v1.8A.9.9,0,0,1,36.6,50.4Z"/><path class="cls-1" d="M56.8,51.8H35.2a.9.9,0,1,1,0-1.8H56.8a.9.9,0,0,1,0,1.8Z"/><path class="cls-1" d="M52.9,40.4a.9.9,0,0,1-.9-.9v-1a.4.4,0,0,0-.4-.4H49.5a.9.9,0,1,1,0-1.8h2.1a2.2,2.2,0,0,1,2.2,2.2v1A.9.9,0,0,1,52.9,40.4Z"/><path class="cls-1" d="M48.2,51.5a.9.9,0,0,1-.9-.9V38.5a2.2,2.2,0,0,1,2.2-2.2.9.9,0,1,1,0,1.8.4.4,0,0,0-.4.4V50.6A1,1,0,0,1,48.2,51.5Z"/><path class="cls-1" d="M44.8,51.5a.9.9,0,0,1-.9-.9v-7a2.7,2.7,0,0,1,2.5-2.7H48a.9.9,0,0,1,0,1.8H46.4a.8.8,0,0,0-.7.9v7A.9.9,0,0,1,44.8,51.5Z"/><path class="cls-1" d="M52.9,51.5a.9.9,0,0,1-.9-.9V47.7a.9.9,0,0,1,1.8,0v2.9A.9.9,0,0,1,52.9,51.5Z"/><g id="Trazado_11701" data-name="Trazado 11701"><path class="cls-1" d="M29.2,55.3H26.4a.9.9,0,0,1,0-1.8h2.8a.9.9,0,1,1,0,1.8Zm-5.5,0H20.9a.9.9,0,0,1,0-1.8h2.8a.9.9,0,1,1,0,1.8Zm-5.5,0H16.9a5.7,5.7,0,0,1-1.8-.3,1,1,0,0,1-.4-1.2.8.8,0,0,1,1.1-.5l1.1.2h1.3a.9.9,0,1,1,0,1.8Zm-4.6-2.2a.8.8,0,0,1-.8-.6,4,4,0,0,1-.3-1.5V49.5a.9.9,0,0,1,1.8,0V51a2.9,2.9,0,0,0,.2.9A.9.9,0,0,1,14,53Zm-.2-5.5a.9.9,0,0,1-.9-.9V44.1h0a.9.9,0,0,1,1.8,0h0v2.6A.9.9,0,0,1,13.4,47.6Zm1.1-5.1a.7.7,0,0,1-.6-.3.9.9,0,0,1,0-1.3,4.7,4.7,0,0,1,3-1.2H17a.9.9,0,1,1,0,1.8h-.1a2.9,2.9,0,0,0-1.8.7A.7.7,0,0,1,14.5,42.5Zm24.5-1H36.2a.9.9,0,1,1,0-1.8H39a.9.9,0,1,1,0,1.8Zm-5.5,0H30.7a.9.9,0,1,1,0-1.8h2.8a.9.9,0,1,1,0,1.8Zm-5.5,0H25.3a.9.9,0,0,1,0-1.8H28a.9.9,0,1,1,0,1.8Zm-5.5,0H19.8a.9.9,0,1,1,0-1.8h2.7a.9.9,0,1,1,0,1.8ZM41.6,41a.8.8,0,0,1-.8-.5,1,1,0,0,1,.4-1.2,3.9,3.9,0,0,0,1.7-1.4.8.8,0,0,1,1.2-.3.8.8,0,0,1,.3,1.2A6.4,6.4,0,0,1,42,41Zm2.8-4.4a.9.9,0,0,1-.9-.9V33a.9.9,0,1,1,1.8,0v2.7A.9.9,0,0,1,44.4,36.6Zm0-5.4a.9.9,0,0,1-.9-.9V27.5a.9.9,0,1,1,1.8,0v2.8A.9.9,0,0,1,44.4,31.2Zm-.2-5.5a.8.8,0,0,1-.8-.7,5.7,5.7,0,0,0-1.2-1.8.9.9,0,0,1,1.2-1.4,6.5,6.5,0,0,1,1.7,2.7,1.1,1.1,0,0,1-.6,1.2Zm-3.8-3.5H37.6a.9.9,0,0,1,0-1.8h2.9a1.1,1.1,0,0,1,.8,1.1A1,1,0,0,1,40.4,22.2Z"/></g><path class="cls-1" d="M57.6,55.3H35a.9.9,0,1,1,0-1.8H57.6a.9.9,0,0,1,0,1.8Z"/><path class="cls-1" d="M33.7,20.7H2.4a.9.9,0,0,1,0-1.8H33.7a.9.9,0,1,1,0,1.8Z"/><path class="cls-1" d="M32.5,20a.9.9,0,0,1-.9-.9c0-6.5-5.8-11.7-13-11.7s-13,5.2-13,11.7a.9.9,0,0,1-.9.9,1,1,0,0,1-.9-.9c0-7.5,6.7-13.5,14.8-13.5s14.8,6,14.8,13.5A.9.9,0,0,1,32.5,20Z"/><path class="cls-1" d="M33.7,24.5H2.4a.9.9,0,0,1,0-1.8H33.7a.9.9,0,1,1,0,1.8Z"/><path class="cls-1" d="M18.6,20.7a.9.9,0,0,1-.9-.9V6.5a.9.9,0,0,1,1.8,0V19.8A.9.9,0,0,1,18.6,20.7Z"/><path class="cls-1" d="M13.6,20.7a.9.9,0,0,1-.9-.9V7.3a.9.9,0,0,1,1.8,0V19.8A.9.9,0,0,1,13.6,20.7Z"/><path class="cls-1" d="M8.6,20.7a.9.9,0,0,1-.9-.9V10.4a.9.9,0,0,1,.9-.9,1,1,0,0,1,.9.9v9.4A1,1,0,0,1,8.6,20.7Z"/><path class="cls-1" d="M8.6,29.5H5.5a.9.9,0,0,1-.9-.9v-5a.9.9,0,0,1,1.8,0v4.1H7.7V23.6a.9.9,0,0,1,.9-.9,1,1,0,0,1,.9.9v5A1,1,0,0,1,8.6,29.5Z"/><path class="cls-1" d="M31.8,29.5H28.7a.9.9,0,0,1-.9-.9v-5a.9.9,0,0,1,1.8,0v4.1h1.3V23.6a.9.9,0,1,1,1.8,0v5A.9.9,0,0,1,31.8,29.5Z"/><path class="cls-1" d="M28.7,20.7a.9.9,0,0,1-.9-.9V10.4a.9.9,0,0,1,1.8,0v9.4A.9.9,0,0,1,28.7,20.7Z"/><path class="cls-1" d="M23.7,20.7a.9.9,0,0,1-.9-.9V7.3a.9.9,0,1,1,1.8,0V19.8A.9.9,0,0,1,23.7,20.7Z"/><rect class="cls-2" width="64" height="64"/></g></svg>