<svg xmlns="http://www.w3.org/2000/svg" viewBox="0 0 64 64"><defs><style>.cls-1{fill:none;}.cls-2{fill:#fff;}</style></defs><title>6_5_km</title><g id="Capa_1" data-name="Capa 1"><rect class="cls-1" width="64" height="64"/><g id="Trazado_11701" data-name="Trazado 11701"><path class="cls-2" d="M35.5,52.3H32.6a.9.9,0,0,1,0-1.8h2.9a.9.9,0,1,1,0,1.8Zm-5.9,0h-3a.9.9,0,0,1,0-1.8h3a.9.9,0,0,1,0,1.8Zm-6,0h-3a.9.9,0,0,1,0-1.8h3a.9.9,0,0,1,0,1.8Zm-5.7-1.1-.6-.2a4.9,4.9,0,0,1-1.5-3.4.9.9,0,0,1,.9-.9h0a.9.9,0,0,1,.9.9,3.3,3.3,0,0,0,.9,2.1.7.7,0,0,1,0,1.2A.9.9,0,0,1,17.9,51.2Zm-1.2-5.7a1,1,0,0,1-.9-.9v-3a1,1,0,0,1,.9-.9.9.9,0,0,1,.9.9v3A.9.9,0,0,1,16.7,45.5Zm.3-5.9h-.3a.9.9,0,0,1-.5-1.2,4.6,4.6,0,0,1,2.6-2.5.8.8,0,0,1,1.1.5.8.8,0,0,1-.4,1.1A2.8,2.8,0,0,0,17.9,39,1.1,1.1,0,0,1,17,39.6Zm26.1-2.4h-3a.9.9,0,0,1,0-1.8h3a.9.9,0,0,1,0,1.8Zm-6,0h-3a.9.9,0,0,1,0-1.8h3a.9.9,0,0,1,0,1.8Zm-6,0h-3a.9.9,0,0,1,0-1.8h3a.9.9,0,0,1,0,1.8Zm-6,0h-3a.9.9,0,0,1,0-1.8h3a.9.9,0,0,1,0,1.8Zm21,0a1,1,0,0,1-.9-.8.8.8,0,0,1,.7-1,4.9,4.9,0,0,0,2.3-1.1.9.9,0,0,1,1.2.1.9.9,0,0,1-.1,1.3,5.7,5.7,0,0,1-3.1,1.5Zm4.3-3.7h-.3a.9.9,0,0,1-.6-1.1,3.5,3.5,0,0,0,.3-1.4V29.6a.9.9,0,1,1,1.8,0v1.3a5.8,5.8,0,0,1-.3,1.9A1.1,1.1,0,0,1,50.4,33.5Zm.3-6a.9.9,0,0,1-.9-.9v-3a.9.9,0,1,1,1.8,0v3A.9.9,0,0,1,50.7,27.5Zm-.3-6a1,1,0,0,1-.9-.6,3.5,3.5,0,0,0-1.4-2,.9.9,0,0,1,1.2-1.4,5.4,5.4,0,0,1,1.9,2.8,1,1,0,0,1-.5,1.2ZM46,17.9H43A.9.9,0,0,1,43,16h3.1a.8.8,0,0,1,.8,1A1.1,1.1,0,0,1,46,17.9Zm-6-.1H37A.9.9,0,0,1,37,16h3a.9.9,0,0,1,0,1.8Z"/></g><path class="cls-2" d="M30.7,28.6H7.1a.9.9,0,0,1-.9-.9V6.2a.9.9,0,0,1,.9-.9H30.7a.9.9,0,0,1,.9.9v7.5a.9.9,0,0,1-1.8,0V7.1H8V26.8H29.8V20.3a.9.9,0,0,1,1.8,0v7.4A.9.9,0,0,1,30.7,28.6Z"/><path class="cls-2" d="M30.7,21.2l-.6-.2a1,1,0,0,1,0-1.3L32.8,17l-2.7-2.7a1,1,0,0,1,0-1.3,1.1,1.1,0,0,1,1.3,0l3.3,3.4a.7.7,0,0,1,0,1.2L31.4,21Z"/><path class="cls-2" d="M12.5,21l.6-.2a1.4,1.4,0,0,0,.2-.6h1.3a1.4,1.4,0,0,1-.3.9,1.4,1.4,0,0,1-.8.7,1.6,1.6,0,0,1-1,.2,2.4,2.4,0,0,1-1.7-.6,2.9,2.9,0,0,1-.7-1.9h0a2.9,2.9,0,0,1,.7-1.9,2.1,2.1,0,0,1,1.7-.7,2.5,2.5,0,0,1,1.5.5,2,2,0,0,1,.6,1.5H13.3a1.4,1.4,0,0,0-.2-.7l-.6-.2a1,1,0,0,0-.8.3,3.3,3.3,0,0,0-.2,1.2h0a2.7,2.7,0,0,0,.2,1.1A1,1,0,0,0,12.5,21Z"/><path class="cls-2" d="M16.8,22H15.4V14.8h1.4Z"/><path class="cls-2" d="M19.3,22H18V14.8h1.3Z"/><path class="cls-2" d="M25.5,17.6a2.9,2.9,0,0,1-1.9.8,2.8,2.8,0,0,1-2.3-1,3.6,3.6,0,0,1-.9-2.6,4.1,4.1,0,0,1,.5-1.9A3.5,3.5,0,0,1,24,11a3.1,3.1,0,0,1,1.9.6,2.8,2.8,0,0,1,1.3,1.5,7.1,7.1,0,0,1,.5,2.3v.7a6.1,6.1,0,0,1-1.4,4.2A4.8,4.8,0,0,1,22.6,22H22V20.2h.5C24.4,20.1,25.3,19.3,25.5,17.6Zm-1.4-.8.9-.3a1.5,1.5,0,0,0,.5-.6V15a2.9,2.9,0,0,0-.4-1.7,1.2,1.2,0,0,0-1.1-.5,1,1,0,0,0-1,.5,2.4,2.4,0,0,0-.4,1.5,2,2,0,0,0,.4,1.4A1.1,1.1,0,0,0,24.1,16.8Z"/><path class="cls-2" d="M45,58.7a7.3,7.3,0,1,1,0-14.6,7.3,7.3,0,0,1,0,14.6Zm0-12.8a5.5,5.5,0,1,0,5.5,5.5A5.5,5.5,0,0,0,45,45.9Z"/><path class="cls-2" d="M45,54.4a2.7,2.7,0,0,1-2.1-.9l-.4-.4-.3-.6c-.1-.1-.1-.3-.2-.5V50.8c.1-.2.1-.4.2-.6l.3-.5c.1-.1.2-.3.4-.4a3.3,3.3,0,0,1,2.7-.9l.5.2.5.3a1,1,0,0,1,.5.4l.4.4.3.5c0,.2.1.4.1.6a1.9,1.9,0,0,1,0,1.2,4.3,4.3,0,0,1-.1.5l-.3.6-.4.4-.5.4-.5.3H45Z"/></g></svg>