<svg xmlns="http://www.w3.org/2000/svg" viewBox="0 0 47 47"><defs><style>.cls-1{fill:#505D6C;}.cls-2{fill:none;}.cls-3{fill:#fff;}</style></defs><title>icono_menu-ubicacion</title><g id="BASE"><rect class="cls-1" x="-1.3" y="-1.3" width="49.9" height="49.91"/></g><g id="Capa_1" data-name="Capa 1"><rect class="cls-2" width="47" height="47"/><g id="Grupo_12863" data-name="Grupo 12863"><g id="Trazado_11508" data-name="Trazado 11508"><path class="cls-3" d="M23.6,40.3a.7.7,0,0,1-.6-.4c-.5-.6-11.1-15-11.1-21.2a12.6,12.6,0,0,1,.5-3.3.7.7,0,0,1,1.4.4,14.5,14.5,0,0,0-.4,2.9c0,4.9,7.9,16.3,10.2,19.5C25.9,35,33.8,23.6,33.8,18.7a13.5,13.5,0,0,0-.4-2.8,10.3,10.3,0,0,0-12.6-7,.7.7,0,0,1-.9-.5.7.7,0,0,1,.5-.9,11.6,11.6,0,0,1,14.4,8,17.7,17.7,0,0,1,.5,3.2c0,6.2-10.7,20.6-11.1,21.2S23.8,40.3,23.6,40.3Z"/></g><g id="Elipse_2112" data-name="Elipse 2112"><path class="cls-3" d="M23.6,23.1a4.4,4.4,0,0,1-4.4-4.3,4.4,4.4,0,0,1,4.4-4.4,4.4,4.4,0,0,1,4.3,4.4A4.3,4.3,0,0,1,23.6,23.1Zm0-7.2a2.9,2.9,0,1,0,0,5.7,2.9,2.9,0,0,0,0-5.7Z"/></g><g id="Elipse_2113" data-name="Elipse 2113"><path class="cls-3" d="M15.6,14.5a3.9,3.9,0,1,1,0-7.7,3.9,3.9,0,1,1,0,7.7Zm0-6.2a2.3,2.3,0,0,0-2.4,2.3,2.4,2.4,0,0,0,4.8,0A2.3,2.3,0,0,0,15.6,8.3Z"/></g></g></g></svg>