<?xml version="1.0" encoding="utf-8"?>
<!-- Generator: Adobe Illustrator 24.0.2, SVG Export Plug-In . SVG Version: 6.00 Build 0)  -->
<svg version="1.1" id="Capa_1" xmlns="http://www.w3.org/2000/svg" xmlns:xlink="http://www.w3.org/1999/xlink" x="0px" y="0px"
	 viewBox="0 0 65 65" style="enable-background:new 0 0 65 65;" xml:space="preserve">
<style type="text/css">
	.st0{clip-path:url(#SVGID_2_);}
	.st1{fill:none;}
	.st2{fill:#4DA12E;}
	.st3{fill:#96D200;}
	.st4{fill:none;stroke:#95A6B1;stroke-width:1.6;stroke-linecap:round;stroke-linejoin:round;}
	.st5{fill:none;stroke:#19A500;stroke-width:1.6;stroke-miterlimit:10;}
</style>
<g id="Capa_2_1_">
</g>
<g id="Capa_1_1_">
	<g>
		<g>
			<defs>
				<rect id="SVGID_1_" y="48.26" width="65" height="16.74"/>
			</defs>
			<clipPath id="SVGID_2_">
				<use xlink:href="#SVGID_1_"  style="overflow:visible;"/>
			</clipPath>
			<g class="st0">
				<g>
					<rect y="48.26" class="st1" width="65" height="16.74"/>
				</g>
				<g>
					<g>
						<path class="st2" d="M45.38,61.32h-7.17c-0.66,0-1.2-0.54-1.2-1.2s0.54-1.2,1.2-1.2h7.17c0.66,0,1.2,0.54,1.2,1.2
							S46.04,61.32,45.38,61.32z"/>
					</g>
					<g>
						<path class="st2" d="M53.11,61.32h-0.58c-0.66,0-1.2-0.54-1.2-1.2s0.54-1.2,1.2-1.2h0.58c0.66,0,1.2,0.54,1.2,1.2
							S53.77,61.32,53.11,61.32z"/>
					</g>
					<g>
						<path class="st2" d="M18.99,61.32h-7.1c-0.66,0-1.2-0.54-1.2-1.2s0.54-1.2,1.2-1.2h7.1c0.66,0,1.2,0.54,1.2,1.2
							S19.65,61.32,18.99,61.32z"/>
					</g>
					<g>
						<path class="st3" d="M31.05,61.32H18.53c-0.66,0-1.2-0.54-1.2-1.2s0.54-1.2,1.2-1.2h12.52c0.66,0,1.2,0.54,1.2,1.2
							S31.71,61.32,31.05,61.32z"/>
					</g>
					<g>
						<path class="st3" d="M35.47,55.21H11.89c-0.66,0-1.2-0.54-1.2-1.2s0.54-1.2,1.2-1.2h23.58c0.66,0,1.2,0.54,1.2,1.2
							S36.13,55.21,35.47,55.21z"/>
					</g>
					<g>
						<path class="st2" d="M53.11,55.21H34.75c-0.66,0-1.2-0.54-1.2-1.2s0.54-1.2,1.2-1.2h18.36c0.66,0,1.2,0.54,1.2,1.2
							S53.77,55.21,53.11,55.21z"/>
					</g>
					<g>
						<path class="st2" d="M12.32,55.21h-0.43c-0.66,0-1.2-0.54-1.2-1.2s0.54-1.2,1.2-1.2h0.43c0.66,0,1.2,0.54,1.2,1.2
							S12.98,55.21,12.32,55.21z"/>
					</g>
				</g>
			</g>
		</g>
		<rect id="Rectángulo_3799-2_1_" class="st1" width="65" height="65"/>
		<g>
			<g>
				<path class="st4" d="M10.82,16.33v3.16h43.36v-9.01c0-2.11-1.71-3.81-3.81-3.81H16.35"/>
				<polyline class="st4" points="44.84,26.6 49.39,26.6 54.18,19.52 10.82,19.52 15.61,26.6 20.93,26.6 				"/>
				<line class="st4" x1="41.45" y1="13.11" x2="47.45" y2="13.11"/>
				<g>
					<g>
						<g>
							<path class="st4" d="M16.33,36.18c3.23,0,3.23,3.53,6.47,3.53c3.23,0,3.23-3.53,6.46-3.53s3.23,3.53,6.47,3.53
								s3.24-3.53,6.47-3.53c3.24,0,3.24,3.53,6.47,3.53"/>
						</g>
						<g>
							<path class="st4" d="M16.33,44.1c3.23,0,3.23,3.53,6.47,3.53c3.23,0,3.23-3.53,6.46-3.53s3.23,3.53,6.47,3.53
								s3.24-3.53,6.47-3.53c3.24,0,3.24,3.53,6.47,3.53"/>
						</g>
					</g>
					<g>
						<path class="st4" d="M41.57,19.54c0,1.61-1.77,1.61-1.77,3.22c0,1.61,1.77,1.61,1.77,3.22c0,1.61-1.77,1.61-1.77,3.23
							s1.77,1.61,1.77,3.23"/>
					</g>
					<g>
						<path class="st4" d="M24.98,19.54c0,1.61-1.77,1.61-1.77,3.22c0,1.61,1.77,1.61,1.77,3.22c0,1.61-1.77,1.61-1.77,3.23
							s1.77,1.61,1.77,3.23"/>
					</g>
					<g>
						<path id="Trazado_12513_2_" class="st4" d="M29.91,26.44c0.54-1,1.15-1.96,1.84-2.86c0.31-0.41,0.89-0.5,1.31-0.19
							c0.07,0.05,0.14,0.12,0.19,0.19c0.93,1.24,2.39,3.39,2.39,4.57c0,1.73-1.41,3.14-3.14,3.14l0,0c-0.32,0-0.64-0.05-0.94-0.14"
							/>
						<path id="Trazado_12513_3_" class="st4" d="M35.09,26.44c-0.54-1-1.15-1.96-1.84-2.86c-0.31-0.41-0.89-0.5-1.31-0.19
							c-0.07,0.05-0.14,0.12-0.19,0.19c-0.93,1.24-2.39,3.39-2.39,4.57c0,1.73,1.41,3.14,3.14,3.14l0,0c0.32,0,0.64-0.05,0.94-0.14"
							/>
					</g>
				</g>
			</g>
		</g>
	</g>
	<path id="Trazado_12511_2_" class="st5" d="M14.24,8.66c0.38,0.84,0.44,1.79,0.15,2.66c-0.32,0.96-1.02,1.75-1.94,2.17
		c-1.83,0.84-3.99,0.03-4.83-1.8l0,0C6.77,9.86,7.58,7.7,9.41,6.86C11.24,6.03,13.4,6.83,14.24,8.66z"/>
</g>
</svg>
