<?xml version="1.0" encoding="utf-8"?>
<!-- Generator: Adobe Illustrator 24.0.2, SVG Export Plug-In . SVG Version: 6.00 Build 0)  -->
<svg version="1.1" id="Capa_1" xmlns="http://www.w3.org/2000/svg" xmlns:xlink="http://www.w3.org/1999/xlink" x="0px" y="0px"
	 viewBox="0 0 65 65" style="enable-background:new 0 0 65 65;" xml:space="preserve">
<style type="text/css">
	.st0{clip-path:url(#SVGID_2_);}
	.st1{fill:none;}
	.st2{fill:#4DA12E;}
	.st3{fill:#96D200;}
	.st4{fill:none;stroke:#95A6B1;stroke-width:1.6;stroke-linecap:round;stroke-linejoin:round;}
	.st5{fill:none;stroke:#19A500;stroke-width:1.6;stroke-miterlimit:10;}
</style>
<g id="Capa_2_1_">
</g>
<g id="Capa_1_1_">
	<g>
		<g>
			<defs>
				<rect id="SVGID_1_" y="48.26" width="65" height="16.74"/>
			</defs>
			<clipPath id="SVGID_2_">
				<use xlink:href="#SVGID_1_"  style="overflow:visible;"/>
			</clipPath>
			<g class="st0">
				<g>
					<rect y="48.26" class="st1" width="65" height="16.74"/>
				</g>
				<g>
					<g>
						<path class="st2" d="M45.38,61.32h-7.17c-0.66,0-1.2-0.54-1.2-1.2s0.54-1.2,1.2-1.2h7.17c0.66,0,1.2,0.54,1.2,1.2
							S46.04,61.32,45.38,61.32z"/>
					</g>
					<g>
						<path class="st2" d="M53.11,61.32h-0.58c-0.66,0-1.2-0.54-1.2-1.2s0.54-1.2,1.2-1.2h0.58c0.66,0,1.2,0.54,1.2,1.2
							S53.77,61.32,53.11,61.32z"/>
					</g>
					<g>
						<path class="st2" d="M18.99,61.32h-7.1c-0.66,0-1.2-0.54-1.2-1.2s0.54-1.2,1.2-1.2h7.1c0.66,0,1.2,0.54,1.2,1.2
							S19.65,61.32,18.99,61.32z"/>
					</g>
					<g>
						<path class="st3" d="M31.05,61.32H18.53c-0.66,0-1.2-0.54-1.2-1.2s0.54-1.2,1.2-1.2h12.52c0.66,0,1.2,0.54,1.2,1.2
							S31.71,61.32,31.05,61.32z"/>
					</g>
					<g>
						<path class="st3" d="M35.47,55.21H11.89c-0.66,0-1.2-0.54-1.2-1.2s0.54-1.2,1.2-1.2h23.58c0.66,0,1.2,0.54,1.2,1.2
							S36.13,55.21,35.47,55.21z"/>
					</g>
					<g>
						<path class="st2" d="M53.11,55.21H34.75c-0.66,0-1.2-0.54-1.2-1.2s0.54-1.2,1.2-1.2h18.36c0.66,0,1.2,0.54,1.2,1.2
							S53.77,55.21,53.11,55.21z"/>
					</g>
					<g>
						<path class="st2" d="M12.32,55.21h-0.43c-0.66,0-1.2-0.54-1.2-1.2s0.54-1.2,1.2-1.2h0.43c0.66,0,1.2,0.54,1.2,1.2
							S12.98,55.21,12.32,55.21z"/>
					</g>
				</g>
			</g>
		</g>
		<rect id="Rectángulo_3799-2_3_" class="st1" width="65" height="65"/>
		<g>
			<g>
				<line class="st4" x1="18.1" y1="29.81" x2="46.9" y2="29.81"/>
				<g>
					<g>
						<polyline class="st4" points="44.33,44.94 44.33,47.92 20.67,47.92 20.67,29.81 44.33,29.81 44.33,32.48 						"/>
						<g>
							<line class="st4" x1="27.08" y1="29.94" x2="27.08" y2="47.8"/>
							<line class="st4" x1="32.75" y1="29.94" x2="32.75" y2="47.8"/>
							<line class="st4" x1="38.16" y1="29.94" x2="38.16" y2="47.8"/>
						</g>
					</g>
					<line class="st4" x1="18.1" y1="47.94" x2="46.9" y2="47.94"/>
				</g>
			</g>
			<g id="Grupo_13390" transform="translate(284.316 67.688)">
				<g id="Grupo_13389">
					<line id="Línea_2376_1_" class="st4" x1="-251.6" y1="-51.82" x2="-251.6" y2="-37.85"/>
					<line id="Línea_2377_1_" class="st4" x1="-241.14" y1="-56.46" x2="-251.49" y2="-46.11"/>
					<line id="Línea_2378_1_" class="st4" x1="-261.07" y1="-49.35" x2="-251.72" y2="-43"/>
					<path id="Trazado_11782_1_" class="st4" d="M-238.69-51.14c-2.22,2.17-5.78,2.14-7.95-0.08c-2.14-2.19-2.14-5.68,0-7.87
						c2.19-2.19,11.76-3.81,11.76-3.81S-236.49-53.33-238.69-51.14z"/>
					<g id="Grupo_13388" transform="translate(0 9.185)">
						<line id="Línea_2379_1_" class="st4" x1="-262.77" y1="-59.61" x2="-257.03" y2="-55.71"/>
						<path id="Trazado_11783_1_" class="st4" d="M-257.84-62.69c2.29,1.86,2.64,5.23,0.78,7.52c-1.64,2.02-4.49,2.56-6.76,1.29
							c-2.24-1.52-4.95-9.79-4.95-9.79S-260.08-64.22-257.84-62.69z"/>
					</g>
				</g>
			</g>
		</g>
		<path id="Trazado_12511_3_" class="st5" d="M47.86,36.99c0.38,0.84,0.44,1.79,0.15,2.66c-0.32,0.96-1.02,1.75-1.94,2.17
			c-1.83,0.84-3.99,0.03-4.83-1.8l0,0c-0.84-1.83-0.03-3.99,1.8-4.83C44.86,34.36,47.02,35.16,47.86,36.99z"/>
	</g>
</g>
</svg>
