<?xml version="1.0" encoding="utf-8"?>
<!-- Generator: Adobe Illustrator 24.0.2, SVG Export Plug-In . SVG Version: 6.00 Build 0)  -->
<svg version="1.1" id="Capa_1" xmlns="http://www.w3.org/2000/svg" xmlns:xlink="http://www.w3.org/1999/xlink" x="0px" y="0px"
	 viewBox="0 0 65 65" style="enable-background:new 0 0 65 65;" xml:space="preserve">
<style type="text/css">
	.st0{clip-path:url(#SVGID_2_);}
	.st1{fill:none;}
	.st2{fill:#4DA12E;}
	.st3{fill:#96D200;}
	.st4{fill:none;stroke:#95A6B1;stroke-width:1.6;stroke-linecap:round;stroke-linejoin:round;}
	.st5{fill:none;stroke:#19A500;stroke-width:1.6;stroke-miterlimit:10;}
</style>
<g id="Capa_2_1_">
</g>
<g id="Capa_1_1_">
	<g>
		<g>
			<g>
				<defs>
					<rect id="SVGID_1_" y="48.26" width="65" height="16.74"/>
				</defs>
				<clipPath id="SVGID_2_">
					<use xlink:href="#SVGID_1_"  style="overflow:visible;"/>
				</clipPath>
				<g class="st0">
					<g>
						<rect y="48.26" class="st1" width="65" height="16.74"/>
					</g>
					<g>
						<g>
							<path class="st2" d="M45.38,61.32h-7.17c-0.66,0-1.2-0.54-1.2-1.2s0.54-1.2,1.2-1.2h7.17c0.66,0,1.2,0.54,1.2,1.2
								S46.04,61.32,45.38,61.32z"/>
						</g>
						<g>
							<path class="st2" d="M53.11,61.32h-0.58c-0.66,0-1.2-0.54-1.2-1.2s0.54-1.2,1.2-1.2h0.58c0.66,0,1.2,0.54,1.2,1.2
								S53.77,61.32,53.11,61.32z"/>
						</g>
						<g>
							<path class="st2" d="M18.99,61.32h-7.1c-0.66,0-1.2-0.54-1.2-1.2s0.54-1.2,1.2-1.2h7.1c0.66,0,1.2,0.54,1.2,1.2
								S19.65,61.32,18.99,61.32z"/>
						</g>
						<g>
							<path class="st3" d="M31.05,61.32H18.53c-0.66,0-1.2-0.54-1.2-1.2s0.54-1.2,1.2-1.2h12.52c0.66,0,1.2,0.54,1.2,1.2
								S31.71,61.32,31.05,61.32z"/>
						</g>
						<g>
							<path class="st3" d="M35.47,55.21H11.89c-0.66,0-1.2-0.54-1.2-1.2s0.54-1.2,1.2-1.2h23.58c0.66,0,1.2,0.54,1.2,1.2
								S36.13,55.21,35.47,55.21z"/>
						</g>
						<g>
							<path class="st2" d="M53.11,55.21H34.75c-0.66,0-1.2-0.54-1.2-1.2s0.54-1.2,1.2-1.2h18.36c0.66,0,1.2,0.54,1.2,1.2
								S53.77,55.21,53.11,55.21z"/>
						</g>
						<g>
							<path class="st2" d="M12.32,55.21h-0.43c-0.66,0-1.2-0.54-1.2-1.2s0.54-1.2,1.2-1.2h0.43c0.66,0,1.2,0.54,1.2,1.2
								S12.98,55.21,12.32,55.21z"/>
						</g>
					</g>
				</g>
			</g>
			<rect id="Rectángulo_3799-2_2_" class="st1" width="65" height="65"/>
		</g>
		<path id="Trazado_12511_5_" class="st4" d="M25.5,31.81c0.48-0.17,0.99-0.33,1.52-0.47c6.62-1.74,14.44-0.06,17.47,3.75
			c0.28,0.35,0.51,0.71,0.69,1.07"/>
		<g>
			<path id="Trazado_12511_1_" class="st5" d="M48.98,13.58c0.32,0.7,0.36,1.49,0.12,2.22c-0.26,0.8-0.85,1.46-1.62,1.81
				c-1.53,0.7-3.33,0.03-4.03-1.5l0,0c-0.7-1.53-0.03-3.33,1.5-4.03C46.48,11.38,48.28,12.06,48.98,13.58z"/>
			<g>
				<g id="Grupo_13390_1_" transform="translate(284.316 67.688)">
					<g id="Grupo_13389_1_">
						<line id="Línea_2376_2_" class="st4" x1="-251.07" y1="-53.58" x2="-251.07" y2="-37.48"/>
						<g>
							<line id="Línea_2377_2_" class="st4" x1="-245.82" y1="-51.57" x2="-250.97" y2="-47.02"/>
							<path id="Trazado_11782_2_" class="st4" d="M-242.99-50.36c-1.2-0.13-2.37-0.67-3.28-1.6c-2.07-2.11-2.07-5.49,0-7.61
								c2.12-2.12,11.37-3.68,11.37-3.68s-0.45,2.69-1.21,5.5"/>
						</g>
						<g>
							<line id="Línea_2378_2_" class="st4" x1="-260.24" y1="-48.94" x2="-251.19" y2="-42.8"/>
							<g id="Grupo_13388_1_" transform="translate(0 9.185)">
								<line id="Línea_2379_2_" class="st4" x1="-261.88" y1="-59.17" x2="-256.33" y2="-55.4"/>
								<path id="Trazado_11783_2_" class="st4" d="M-257.11-62.15c2.21,1.8,2.55,5.05,0.75,7.27c-1.58,1.95-4.34,2.48-6.53,1.25
									c-2.16-1.47-4.78-9.47-4.78-9.47S-259.27-63.62-257.11-62.15z"/>
							</g>
						</g>
					</g>
				</g>
				<g id="Grupo_12949_2_" transform="translate(-0.246 -0.246)">
					<g id="Grupo_11514_2_" transform="translate(10.072 11.149)">
						<g id="Grupo_15064_1_">
							<g>
								<path class="st4" d="M20.04,27.07c0,0,4.87,3.21,5.42,3.43s2.21,1.33,3.32-0.22c1.11-1.55-1.44-3.43-1.44-3.43
									s-3.55-2.16-5.46-3.57c-1.05-0.77-2.21-1.56-3.49-1.95c-1.43-0.43-2.96-0.22-4.42-0.22c-2.7,0-5.39,0-8.09,0
									c-0.87,0-1.74,0-2.61,0v14.16h8.53l-0.25-14.12"/>
								<path class="st4" d="M11.79,32.63h4.08l7.44,3.53c0,0,2.93,1.34,4.86-0.16c2.32-1.81,13.93-10.43,13.93-10.43
									s-1.26-2.02-3.53-1.26s-9.48,4.29-9.48,4.29"/>
							</g>
						</g>
					</g>
				</g>
			</g>
		</g>
	</g>
</g>
</svg>
