<?xml version="1.0" encoding="utf-8"?>
<!-- Generator: Adobe Illustrator 24.0.2, SVG Export Plug-In . SVG Version: 6.00 Build 0)  -->
<svg version="1.1" id="Capa_1" xmlns="http://www.w3.org/2000/svg" xmlns:xlink="http://www.w3.org/1999/xlink" x="0px" y="0px"
	 viewBox="0 0 65 65" style="enable-background:new 0 0 65 65;" xml:space="preserve">
<style type="text/css">
	.st0{clip-path:url(#SVGID_2_);}
	.st1{fill:none;}
	.st2{fill:#4DA12E;}
	.st3{fill:#96D200;}
	.st4{fill:none;stroke:#95A6B1;stroke-width:1.6;stroke-linecap:round;stroke-linejoin:round;}
	.st5{fill:none;stroke:#19A500;stroke-width:1.6;stroke-miterlimit:10;}
</style>
<g id="Capa_2_1_">
</g>
<g id="Capa_1_1_">
	<g>
		<g>
			<defs>
				<rect id="SVGID_1_" y="48.26" width="65" height="16.74"/>
			</defs>
			<clipPath id="SVGID_2_">
				<use xlink:href="#SVGID_1_"  style="overflow:visible;"/>
			</clipPath>
			<g class="st0">
				<g>
					<rect y="48.26" class="st1" width="65" height="16.74"/>
				</g>
				<g>
					<g>
						<path class="st2" d="M45.38,61.32h-7.17c-0.66,0-1.2-0.54-1.2-1.2s0.54-1.2,1.2-1.2h7.17c0.66,0,1.2,0.54,1.2,1.2
							S46.04,61.32,45.38,61.32z"/>
					</g>
					<g>
						<path class="st2" d="M53.11,61.32h-0.58c-0.66,0-1.2-0.54-1.2-1.2s0.54-1.2,1.2-1.2h0.58c0.66,0,1.2,0.54,1.2,1.2
							S53.77,61.32,53.11,61.32z"/>
					</g>
					<g>
						<path class="st2" d="M18.99,61.32h-7.1c-0.66,0-1.2-0.54-1.2-1.2s0.54-1.2,1.2-1.2h7.1c0.66,0,1.2,0.54,1.2,1.2
							S19.65,61.32,18.99,61.32z"/>
					</g>
					<g>
						<path class="st3" d="M31.05,61.32H18.53c-0.66,0-1.2-0.54-1.2-1.2s0.54-1.2,1.2-1.2h12.52c0.66,0,1.2,0.54,1.2,1.2
							S31.71,61.32,31.05,61.32z"/>
					</g>
					<g>
						<path class="st3" d="M35.47,55.21H11.89c-0.66,0-1.2-0.54-1.2-1.2s0.54-1.2,1.2-1.2h23.58c0.66,0,1.2,0.54,1.2,1.2
							S36.13,55.21,35.47,55.21z"/>
					</g>
					<g>
						<path class="st2" d="M53.11,55.21H34.75c-0.66,0-1.2-0.54-1.2-1.2s0.54-1.2,1.2-1.2h18.36c0.66,0,1.2,0.54,1.2,1.2
							S53.77,55.21,53.11,55.21z"/>
					</g>
					<g>
						<path class="st2" d="M12.32,55.21h-0.43c-0.66,0-1.2-0.54-1.2-1.2s0.54-1.2,1.2-1.2h0.43c0.66,0,1.2,0.54,1.2,1.2
							S12.98,55.21,12.32,55.21z"/>
					</g>
				</g>
			</g>
		</g>
		<rect id="Rectángulo_3799-2_4_" class="st1" width="65" height="65"/>
		<g>
			<g>
				<g>
					<g>
						<polyline class="st4" points="26.23,23.95 26.23,17.82 38.77,17.82 38.77,23.59 						"/>
						<rect x="28.91" y="13.1" class="st4" width="7.17" height="4.73"/>
						<path class="st4" d="M43.51,6.51c0-0.89-0.72-1.61-1.61-1.61H23.09c-0.89,0-1.61,0.72-1.61,1.61v0.38
							c0,0.89,0.72,1.61,1.61,1.61H41.9c0.89,0,1.61-0.72,1.61-1.61C43.51,6.89,43.51,6.51,43.51,6.51z"/>
						<path class="st4" d="M26.23,41.95c0,3.21,2.61,5.82,5.82,5.82h0.91c3.21,0,5.82-2.61,5.82-5.82"/>
						<line class="st4" x1="28.91" y1="13.1" x2="23.09" y2="8.49"/>
						<line class="st4" x1="36.09" y1="13.1" x2="41.91" y2="8.49"/>
					</g>
					<line class="st4" x1="46.57" y1="27.95" x2="42.72" y2="27.95"/>
					<polyline class="st4" points="42.51,37.9 52.75,37.9 52.75,34.92 					"/>
					<polyline class="st4" points="58.21,27.95 60.16,27.95 60.16,37.9 52.75,37.9 52.75,34.06 					"/>
					<line class="st4" x1="52.75" y1="35.06" x2="52.75" y2="39.58"/>
					<polyline class="st4" points="22.53,27.97 12.39,27.97 12.39,37.93 22.31,37.93 					"/>
					<rect x="4.88" y="27.97" class="st4" width="7.52" height="9.95"/>
					<line class="st4" x1="12.4" y1="26.29" x2="12.4" y2="39.58"/>
				</g>
				<path id="Trazado_12511_4_" class="st5" d="M55.69,26.22c0.38,0.84,0.44,1.79,0.15,2.66c-0.32,0.96-1.02,1.75-1.94,2.17
					c-1.83,0.84-3.99,0.03-4.83-1.8l0,0c-0.84-1.83-0.03-3.99,1.8-4.83C52.7,23.59,54.86,24.39,55.69,26.22z"/>
			</g>
			<g>
				<g>
					<path class="st4" d="M39.24,33.13l-8.72,5.42c-0.88,0.55-2.04,0.28-2.59-0.6l-2.06-3.32c-0.55-0.88-0.28-2.04,0.6-2.59
						l8.72-5.42c0.88-0.55,2.04-0.28,2.59,0.6l2.06,3.32C40.39,31.43,40.12,32.59,39.24,33.13z"/>
					<line class="st4" x1="27.46" y1="31.48" x2="31.35" y2="37.81"/>
					<line class="st4" x1="34.58" y1="27.05" x2="38.47" y2="33.38"/>
					<line class="st4" x1="41.14" y1="27.41" x2="38.91" y2="28.84"/>
					<path class="st4" d="M26.72,36.34l-1.35,0.84c0,0-1.26,0.92-2.17,0.12l-0.79-0.66"/>
				</g>
				<circle class="st4" cx="32.5" cy="32.73" r="10.82"/>
			</g>
		</g>
	</g>
</g>
</svg>
