<svg xmlns="http://www.w3.org/2000/svg" width="329" height="186" viewBox="0 0 329 186">
  <g id="Grupo_13665" data-name="Grupo 13665" transform="translate(-762 -2085.214)">
    <text id="harán_parte_de_la_red_para_consolidar_la_protección_del_medioambiente" data-name="harán parte de la red para consolidar la protección del medioambiente" transform="translate(762 2220.214)" fill="#fff" font-size="20" font-family="Roboto-Regular, Roboto"><tspan x="-162.529" y="19">harán parte de la red para consolidar </tspan><tspan x="-145.391" y="46">la protección del medioambiente</tspan></text>
    <rect id="Rectángulo_4580" data-name="Rectángulo 4580" width="172" height="43" transform="translate(785 2167.214)" fill="#012869"/>
    <text id="_5.000" data-name="5.000" transform="translate(785 2085.214)" fill="#fff" font-size="70" font-family="Roboto-Regular, Roboto" style="isolation: isolate"><tspan x="0" y="67">5.000</tspan></text>
    <text id="Mujeres" transform="translate(785 2173.214)" fill="#fff" font-size="25" font-family="Lato-BoldItalic, Lato" font-weight="700" font-style="italic" style="isolation: isolate"><tspan x="-42.206" y="25">Mujeres</tspan></text>
    <g id="Grupo_13600" data-name="Grupo 13600" transform="translate(1631.879 2217.786)">
      <path id="Trazado_5703" data-name="Trazado 5703" d="M-624.055-61.231a4.766,4.766,0,0,1-4.766,4.766,4.766,4.766,0,0,1-4.766-4.766A4.766,4.766,0,0,1-628.821-66a4.733,4.733,0,0,1,4.766,4.7Z" fill="none" stroke="#fbe957" stroke-miterlimit="10" stroke-width="1.6"/>
      <line id="Línea_1013" data-name="Línea 1013" y2="5.521" transform="translate(-614.772 -75.463)" fill="none" stroke="#fff" stroke-linecap="round" stroke-linejoin="round" stroke-width="1.6"/>
      <line id="Línea_1014" data-name="Línea 1014" y2="5.521" transform="translate(-606.686 -75.463)" fill="none" stroke="#fff" stroke-linecap="round" stroke-linejoin="round" stroke-width="1.6"/>
      <path id="Trazado_5700" data-name="Trazado 5700" d="M-629.819-51.472v11.623h38.029V-57.781a8.743,8.743,0,0,0-1.416-4.914,6.588,6.588,0,0,0-2.652-2.368l-10.828-4.867" fill="none" stroke="#fff" stroke-linecap="round" stroke-linejoin="round" stroke-width="1.6"/>
      <line id="Línea_1015" data-name="Línea 1015" x1="7.079" y2="3.274" transform="translate(-621.851 -69.93)" fill="none" stroke="#fff" stroke-linecap="round" stroke-linejoin="round" stroke-width="1.6"/>
      <path id="Línea_1017" data-name="Línea 1017" d="M-603.152-68.293l-1.716,1.946a7.815,7.815,0,0,1-11.721,0l-1.717-1.946" fill="none" stroke="#fff" stroke-linecap="round" stroke-linejoin="round" stroke-width="1.6"/>
      <path id="Trazado_5701" data-name="Trazado 5701" d="M-603.146-81.914A7.614,7.614,0,0,1-610.76-74.3a7.614,7.614,0,0,1-7.615-7.614" fill="none" stroke="#fff" stroke-linecap="round" stroke-linejoin="round" stroke-width="1.6"/>
      <path id="Trazado_5702" data-name="Trazado 5702" d="M-618.381-68.293V-87.171a7.614,7.614,0,0,1,7.614-7.615,7.615,7.615,0,0,1,7.615,7.615v18.878" fill="none" stroke="#fff" stroke-linecap="round" stroke-linejoin="round" stroke-width="1.6"/>
      <g id="Grupo_13587" data-name="Grupo 13587">
        <path id="Trazado_11883" data-name="Trazado 11883" d="M-598.5-55.695c.021,4.432-4.2,8.046-4.2,8.046s-4.254-3.574-4.275-8.006,4.2-8.046,4.2-8.046S-598.517-60.128-598.5-55.695Z" fill="none" stroke="#fff" stroke-linecap="round" stroke-linejoin="round" stroke-width="1.6"/>
        <line id="Línea_1853" data-name="Línea 1853" x1="0.061" y1="15.827" transform="translate(-602.734 -55.675)" fill="none" stroke="#fff" stroke-linecap="round" stroke-linejoin="round" stroke-width="1.6"/>
      </g>
      <g id="Grupo_13588" data-name="Grupo 13588">
        <path id="Trazado_11884" data-name="Trazado 11884" d="M-596.244-43.986c-2.333,2.355-6.476,2.034-6.476,2.034s-.36-4.14,1.973-6.495,6.475-2.034,6.475-2.034S-593.911-46.341-596.244-43.986Z" fill="none" stroke="#fff" stroke-linecap="round" stroke-linejoin="round" stroke-width="1.6"/>
        <line id="Línea_1854" data-name="Línea 1854" y1="4.277" x2="4.212" transform="translate(-602.708 -46.217)" fill="none" stroke="#fff" stroke-linecap="round" stroke-linejoin="round" stroke-width="1.6"/>
      </g>
      <g id="Grupo_13589" data-name="Grupo 13589">
        <path id="Trazado_11885" data-name="Trazado 11885" d="M-609.223-43.986c2.333,2.355,6.476,2.034,6.476,2.034s.36-4.14-1.973-6.495-6.475-2.034-6.475-2.034S-611.556-46.341-609.223-43.986Z" fill="none" stroke="#fff" stroke-linecap="round" stroke-linejoin="round" stroke-width="1.6"/>
        <line id="Línea_1855" data-name="Línea 1855" x1="4.212" y1="4.277" transform="translate(-606.971 -46.217)" fill="none" stroke="#fff" stroke-linecap="round" stroke-linejoin="round" stroke-width="1.6"/>
      </g>
      <path id="Trazado_11886" data-name="Trazado 11886" d="M-603.162-87.388a6.2,6.2,0,0,1-3.52,1.1,6.21,6.21,0,0,1-5.78-3.91,5.916,5.916,0,0,1-.379-1.419" fill="none" stroke="#fff" stroke-linecap="round" stroke-linejoin="round" stroke-width="1.6"/>
      <path id="Trazado_11887" data-name="Trazado 11887" d="M-618.382-87.008a8.128,8.128,0,0,0,5.92-3.19" fill="none" stroke="#fff" stroke-linecap="round" stroke-linejoin="round" stroke-width="1.6"/>
      <g id="Grupo_13591" data-name="Grupo 13591">
        <rect id="Rectángulo_4578" data-name="Rectángulo 4578" width="84" height="20.926" transform="translate(-654.879 -37.234)" fill="none"/>
        <line id="Línea_1856" data-name="Línea 1856" x2="29.477" transform="translate(-638.64 -30.043)" fill="none" stroke="#fff000" stroke-linecap="round" stroke-linejoin="round" stroke-width="3.135"/>
        <line id="Línea_1857" data-name="Línea 1857" x2="8.959" transform="translate(-605.737 -22.41)" fill="none" stroke="#ffe600" stroke-linecap="round" stroke-linejoin="round" stroke-width="3.135"/>
        <line id="Línea_1858" data-name="Línea 1858" x2="0.726" transform="translate(-587.843 -22.41)" fill="none" stroke="#ffe600" stroke-linecap="round" stroke-linejoin="round" stroke-width="3.135"/>
        <g id="Grupo_13590" data-name="Grupo 13590">
          <line id="Línea_1859" data-name="Línea 1859" x2="8.876" transform="translate(-638.64 -22.41)" fill="none" stroke="#ffda25" stroke-linecap="round" stroke-linejoin="round" stroke-width="3.135" style="mix-blend-mode: multiply;isolation: isolate"/>
          <line id="Línea_1860" data-name="Línea 1860" x2="14.581" transform="translate(-629.277 -22.41)" fill="none" stroke="#ffe600" stroke-linecap="round" stroke-linejoin="round" stroke-width="3.135"/>
        </g>
        <line id="Línea_1861" data-name="Línea 1861" x2="5.217" transform="translate(-629.277 -22.41)" fill="none" stroke="#ffda25" stroke-linecap="round" stroke-linejoin="round" stroke-width="3.135" style="mix-blend-mode: multiply;isolation: isolate"/>
        <line id="Línea_1862" data-name="Línea 1862" x2="22.954" transform="translate(-610.072 -30.043)" fill="none" stroke="#ffda25" stroke-linecap="round" stroke-linejoin="round" stroke-width="3.135"/>
        <line id="Línea_1863" data-name="Línea 1863" x2="0.537" transform="translate(-638.64 -30.043)" fill="none" stroke="#ffda25" stroke-linecap="round" stroke-linejoin="round" stroke-width="3.135" style="mix-blend-mode: multiply;isolation: isolate"/>
        <line id="Línea_1864" data-name="Línea 1864" x1="6.115" transform="translate(-610.072 -30.043)" fill="none" stroke="#ffda25" stroke-linecap="round" stroke-linejoin="round" stroke-width="3.135" style="mix-blend-mode: multiply;isolation: isolate"/>
      </g>
    </g>
  </g>
</svg>
