<svg xmlns="http://www.w3.org/2000/svg" width="83.508" height="83.508" viewBox="0 0 83.508 83.508">
  <g id="Grupo_13231" data-name="Grupo 13231" transform="translate(-0.246 -0.246)">
    <g id="Grupo_11190" data-name="Grupo 11190">
      <g id="Grupo_11189" data-name="Grupo 11189">
        <rect id="Rectángulo_3799" data-name="Rectángulo 3799" width="83.508" height="83.508" transform="translate(0.246 0.246)" fill="none"/>
        <g id="Grupo_10179" data-name="Grupo 10179">
          <path id="Trazado_9599" data-name="Trazado 9599" d="M31.265,80.766H16.948a1.577,1.577,0,1,1,0-3.155H31.265a1.577,1.577,0,0,1,0,3.155Z" fill="#19a500"/>
        </g>
        <g id="Grupo_10180" data-name="Grupo 10180">
          <path id="Trazado_9600" data-name="Trazado 9600" d="M39.708,80.766H25.345a1.577,1.577,0,1,1,0-3.155H39.708a1.577,1.577,0,1,1,0,3.155Z" fill="#a1d005"/>
        </g>
        <g id="Grupo_10181" data-name="Grupo 10181">
          <path id="Trazado_9601" data-name="Trazado 9601" d="M57,80.766H49.822a1.577,1.577,0,0,1,0-3.155H57a1.577,1.577,0,0,1,0,3.155Z" fill="#a1d005"/>
        </g>
        <g id="Grupo_10182" data-name="Grupo 10182">
          <path id="Trazado_9602" data-name="Trazado 9602" d="M67.1,80.766a1.579,1.579,0,0,1-1.114-.464,1.562,1.562,0,0,1-.464-1.113,1.737,1.737,0,0,1,0-.306,1.6,1.6,0,0,1,.093-.3,1.456,1.456,0,0,1,.139-.269,2.637,2.637,0,0,1,.2-.242,1.542,1.542,0,0,1,1.42-.426,1.522,1.522,0,0,1,.3.083,2.424,2.424,0,0,1,.269.149,1.251,1.251,0,0,1,.241.194,1.566,1.566,0,0,1,.195.242,1.5,1.5,0,0,1,.149.269,1.6,1.6,0,0,1,.083.3,1.12,1.12,0,0,1,0,.306,1.562,1.562,0,0,1-.705,1.308,1.106,1.106,0,0,1-.269.149,1.5,1.5,0,0,1-.538.12Z" fill="#a1d005"/>
        </g>
        <g id="Grupo_10183" data-name="Grupo 10183">
          <path id="Trazado_9603" data-name="Trazado 9603" d="M52.7,71.126H16.948a1.578,1.578,0,1,1-.242-3.146,1.628,1.628,0,0,1,.242,0H52.7a1.577,1.577,0,1,1,0,3.155h0Z" fill="#a1d005"/>
        </g>
        <g id="Grupo_10184" data-name="Grupo 10184">
          <path id="Trazado_9604" data-name="Trazado 9604" d="M16.948,71.126a1.579,1.579,0,0,1-1.114-.464,1.559,1.559,0,0,1-.464-1.114,1.205,1.205,0,0,1,0-.306,1.545,1.545,0,0,1,.084-.3,1.566,1.566,0,0,1,.148-.269,1.256,1.256,0,0,1,.195-.241,1.586,1.586,0,0,1,1.41-.455l.3.093a2.066,2.066,0,0,1,.279.148,1.664,1.664,0,0,1,.232.195,1.232,1.232,0,0,1,.195.242,1.117,1.117,0,0,1,.148.269,1.529,1.529,0,0,1,.093.3,1.738,1.738,0,0,1,0,.306,1.587,1.587,0,0,1-1.578,1.577Z" fill="#149352"/>
        </g>
        <g id="Grupo_10185" data-name="Grupo 10185">
          <path id="Trazado_9605" data-name="Trazado 9605" d="M67.1,71.126H46.779a1.577,1.577,0,1,1,0-3.155H67.1a1.577,1.577,0,0,1,0,3.155Z" fill="#19a500"/>
        </g>
      </g>
    </g>
    <g id="Grupo_11197" data-name="Grupo 11197">
      <g id="Grupo_11192" data-name="Grupo 11192">
        <g id="Grupo_11191" data-name="Grupo 11191">
          <path id="Trazado_10346" data-name="Trazado 10346" d="M61.05,55.6a29.2,29.2,0,0,1-36.9.979" fill="none" stroke="#95a6b1" stroke-linecap="round" stroke-linejoin="round" stroke-width="1.6"/>
          <path id="Trazado_10347" data-name="Trazado 10347" d="M50,5.4A29.24,29.24,0,0,1,70.855,37.953" fill="none" stroke="#95a6b1" stroke-linecap="round" stroke-linejoin="round" stroke-width="1.6"/>
          <path id="Trazado_10348" data-name="Trazado 10348" d="M13.667,40.554A29.242,29.242,0,0,1,33.192,5.637" fill="none" stroke="#95a6b1" stroke-linecap="round" stroke-linejoin="round" stroke-width="1.6"/>
        </g>
      </g>
      <g id="Grupo_11196" data-name="Grupo 11196">
        <g id="Grupo_11193" data-name="Grupo 11193">
          <circle id="Elipse_1795" data-name="Elipse 1795" cx="6.19" cy="6.19" r="6.19" transform="translate(55.813 38.433)" fill="none" stroke="#95a6b1" stroke-linecap="round" stroke-linejoin="round" stroke-width="1.6"/>
          <circle id="Elipse_1796" data-name="Elipse 1796" cx="6.19" cy="6.19" r="6.19" transform="translate(15.808 39.602)" fill="none" stroke="#95a6b1" stroke-linecap="round" stroke-linejoin="round" stroke-width="1.6"/>
          <path id="Trazado_10349" data-name="Trazado 10349" d="M36.085,11.072c-4.959,0-4.289,4.3-4.289,4.3v3.423s-.211,3.054,4.844,3.054h6s4.95.422,4.95,4.423v8.742s4.949.315,4.949-3.9V16.055s.586-5.123-4.652-5.123" fill="none" stroke="#95a6b1" stroke-linecap="round" stroke-linejoin="round" stroke-width="1.6"/>
          <path id="Trazado_10350" data-name="Trazado 10350" d="M65.675,39.186a3.655,3.655,0,0,0-1.917-5.51L60.746,32.05s-2.588-1.635-4.988,2.814l-2.851,5.283S50.186,44.3,46.664,42.4l-7.693-4.15s-2.628,4.206,1.08,6.206L53.305,51.61s4.165,2.953,6.447-1.014" fill="none" stroke="#95a6b1" stroke-linecap="round" stroke-linejoin="round" stroke-width="1.6"/>
          <path id="Trazado_10351" data-name="Trazado 10351" d="M25.451,50.969a3.654,3.654,0,0,0,5.669,1.374l3-1.652s2.776-1.29.337-5.717l-2.9-5.258s-2.02-4.538,1.485-6.47L40.7,29.028s-2.112-4.488-5.8-2.455L21.707,33.842s-4.738,1.9-2.64,5.968" fill="none" stroke="#95a6b1" stroke-linecap="round" stroke-linejoin="round" stroke-width="1.6"/>
        </g>
        <g id="Grupo_11195" data-name="Grupo 11195">
          <g id="Grupo_11194" data-name="Grupo 11194">
            <circle id="Elipse_1797" data-name="Elipse 1797" cx="6.002" cy="6.002" r="6.002" transform="translate(36.046 5.181)" fill="none" stroke="#19a500" stroke-miterlimit="10" stroke-width="1.6"/>
          </g>
        </g>
      </g>
    </g>
  </g>
</svg>
