<svg xmlns="http://www.w3.org/2000/svg" width="118.475" height="123.77" viewBox="0 0 118.475 123.77">
  <g id="Grupo_12145" data-name="Grupo 12145" transform="translate(-434.967 -993.769)">
    <path id="Trazado_10379" data-name="Trazado 10379" d="M543.151,1069.8c-6.143,0-6.143-6-12.286-6s-6.143,6-12.286,6-6.141-6-12.282-6-6.142,6-12.285,6-6.145-6-12.289-6-6.143,6-12.286,6-6.147-6-12.294-6-6.147,6-12.294,6" fill="none" stroke="#95a6b1" stroke-linecap="round" stroke-linejoin="round" stroke-width="4"/>
    <path id="Trazado_10380" data-name="Trazado 10380" d="M543.151,1081.223c-6.143,0-6.143-6-12.286-6s-6.143,6-12.286,6-6.141-6-12.282-6-6.142,6-12.285,6-6.145-6-12.289-6-6.143,6-12.286,6-6.147-6-12.294-6-6.147,6-12.294,6" fill="none" stroke="#95a6b1" stroke-linecap="round" stroke-linejoin="round" stroke-width="4"/>
    <line id="Línea_1791" data-name="Línea 1791" x1="11.912" transform="translate(464.957 1058.331)" fill="none" stroke="#95a6b1" stroke-linecap="round" stroke-linejoin="round" stroke-width="4"/>
    <line id="Línea_1792" data-name="Línea 1792" transform="translate(517.963 1035.512)" fill="none" stroke="#95a6b1" stroke-linecap="round" stroke-linejoin="round" stroke-width="4"/>
    <path id="Trazado_10381" data-name="Trazado 10381" d="M466.605,1029.214v6.3H502.58" fill="none" stroke="#95a6b1" stroke-linecap="round" stroke-linejoin="round" stroke-width="4"/>
    <path id="Trazado_10382" data-name="Trazado 10382" d="M473.138,1012.77a7.5,7.5,0,1,1-9.937-3.7A7.477,7.477,0,0,1,473.138,1012.77Z" fill="none" stroke="#19a500" stroke-linecap="round" stroke-linejoin="round" stroke-width="4"/>
    <path id="Trazado_10383" data-name="Trazado 10383" d="M517.963,1035.512h6.344v-18.975a2.36,2.36,0,0,0-2.359-2.36H480.222" fill="none" stroke="#95a6b1" stroke-linecap="round" stroke-linejoin="round" stroke-width="4"/>
    <path id="Rectángulo_4277" data-name="Rectángulo 4277" d="M2.239,0H26.787a1.936,1.936,0,0,1,1.936,1.936v7.24a0,0,0,0,1,0,0H0a0,0,0,0,1,0,0V2.239A2.239,2.239,0,0,1,2.239,0Z" transform="translate(485.776 1005.001)" fill="none" stroke="#95a6b1" stroke-linecap="round" stroke-linejoin="round" stroke-width="4"/>
    <line id="Línea_1793" data-name="Línea 1793" x2="44.872" transform="translate(479.52 1022.129)" fill="none" stroke="#95a6b1" stroke-linecap="round" stroke-linejoin="round" stroke-width="4"/>
    <path id="Trazado_10384" data-name="Trazado 10384" d="M502.58,1035.533H459.894a2.693,2.693,0,0,0-2.693,2.692v24.861" fill="none" stroke="#95a6b1" stroke-linecap="round" stroke-linejoin="round" stroke-width="4"/>
    <path id="Trazado_10385" data-name="Trazado 10385" d="M534.265,1064.71v-26.852a2.325,2.325,0,0,0-2.325-2.325l-13.977-.021" fill="none" stroke="#95a6b1" stroke-linecap="round" stroke-linejoin="round" stroke-width="4"/>
    <line id="Línea_1794" data-name="Línea 1794" x1="27.39" y2="0.007" transform="translate(457.203 1042.788)" fill="none" stroke="#95a6b1" stroke-linecap="round" stroke-linejoin="round" stroke-width="4"/>
    <line id="Línea_1795" data-name="Línea 1795" y2="22.67" transform="translate(476.878 1042.767)" fill="#fff" stroke="#95a6b1" stroke-linecap="round" stroke-linejoin="round" stroke-width="4"/>
    <line id="Línea_1796" data-name="Línea 1796" x1="11.912" transform="translate(464.957 1049.863)" fill="none" stroke="#95a6b1" stroke-linecap="round" stroke-linejoin="round" stroke-width="4"/>
    <line id="Línea_1797" data-name="Línea 1797" y2="25.037" transform="translate(464.918 1042.767)" fill="none" stroke="#95a6b1" stroke-linecap="round" stroke-linejoin="round" stroke-width="4"/>
    <line id="Línea_1798" data-name="Línea 1798" y2="28.128" transform="translate(484.593 1035.512)" fill="none" stroke="#95a6b1" stroke-linecap="round" stroke-linejoin="round" stroke-width="4"/>
    <path id="Trazado_10386" data-name="Trazado 10386" d="M502.58,1035.574l-.043,11.745h15.4v-11.766" fill="none" stroke="#95a6b1" stroke-linecap="round" stroke-linejoin="round" stroke-width="4"/>
    <line id="Línea_1799" data-name="Línea 1799" y2="9.176" transform="translate(493.091 1005.001)" fill="none" stroke="#95a6b1" stroke-linecap="round" stroke-linejoin="round" stroke-width="4"/>
    <line id="Línea_1800" data-name="Línea 1800" y2="9.176" transform="translate(500.137 1005.001)" fill="none" stroke="#95a6b1" stroke-linecap="round" stroke-linejoin="round" stroke-width="4"/>
    <line id="Línea_1801" data-name="Línea 1801" y2="9.176" transform="translate(507.431 1005.001)" fill="none" stroke="#95a6b1" stroke-linecap="round" stroke-linejoin="round" stroke-width="4"/>
    <line id="Línea_1802" data-name="Línea 1802" y2="12.545" transform="translate(526.114 1035.552)" fill="none" stroke="#95a6b1" stroke-linecap="round" stroke-linejoin="round" stroke-width="4"/>
    <line id="Línea_1803" data-name="Línea 1803" y2="12.545" transform="translate(493.565 1035.552)" fill="none" stroke="#95a6b1" stroke-linecap="round" stroke-linejoin="round" stroke-width="4"/>
    <g id="Grupo_12144" data-name="Grupo 12144">
      <g id="Grupo_12142" data-name="Grupo 12142">
        <line id="Línea_1804" data-name="Línea 1804" x1="18.206" transform="translate(463.756 1109.228)" fill="none" stroke="#19a500" stroke-linecap="round" stroke-linejoin="round" stroke-width="4" style="mix-blend-mode: multiply;isolation: isolate"/>
        <line id="Línea_1805" data-name="Línea 1805" x1="18.206" transform="translate(474.462 1109.228)" fill="none" stroke="#a1d005" stroke-linecap="round" stroke-linejoin="round" stroke-width="4" style="mix-blend-mode: multiply;isolation: isolate"/>
        <line id="Línea_1806" data-name="Línea 1806" x1="9.103" transform="translate(505.498 1109.228)" fill="none" stroke="#a1d005" stroke-linecap="round" stroke-linejoin="round" stroke-width="4" style="mix-blend-mode: multiply;isolation: isolate"/>
        <line id="Línea_1807" data-name="Línea 1807" transform="translate(527.4 1109.228)" fill="none" stroke="#a1d005" stroke-linecap="round" stroke-linejoin="round" stroke-width="4" style="mix-blend-mode: multiply;isolation: isolate"/>
      </g>
      <g id="Grupo_12143" data-name="Grupo 12143">
        <line id="Línea_1808" data-name="Línea 1808" x1="45.386" transform="translate(463.756 1097.002)" fill="none" stroke="#a1d005" stroke-linecap="round" stroke-linejoin="round" stroke-width="4" style="mix-blend-mode: multiply;isolation: isolate"/>
        <line id="Línea_1809" data-name="Línea 1809" transform="translate(463.756 1097.002)" fill="none" stroke="#149352" stroke-linecap="round" stroke-linejoin="round" stroke-width="4" style="mix-blend-mode: multiply;isolation: isolate"/>
        <line id="Línea_1810" data-name="Línea 1810" x1="25.758" transform="translate(501.642 1097.002)" fill="none" stroke="#19a500" stroke-linecap="round" stroke-linejoin="round" stroke-width="4" style="mix-blend-mode: multiply;isolation: isolate"/>
      </g>
    </g>
    <rect id="Rectángulo_4278" data-name="Rectángulo 4278" width="118.475" height="123.769" transform="translate(434.967 993.768)" fill="none"/>
  </g>
</svg>
