<svg xmlns="http://www.w3.org/2000/svg" width="302" height="188" viewBox="0 0 302 188">
  <g id="Grupo_13664" data-name="Grupo 13664" transform="translate(-226 -1566.214)">
    <text id="de_emisiones_de_CO2_diversificando_nuestra_matriz_energética" data-name="de emisiones de CO2 diversificando 
nuestra matriz energética" transform="translate(377 1723.214)" fill="#012869" font-size="20" font-family="Lato-SemiboldItalic, Lato" font-weight="600" font-style="italic"><tspan x="-150.16" y="0">de emisiones de CO2 diversificando </tspan><tspan x="-106.515" y="27">nuestra matriz energética</tspan></text>
    <rect id="Rectángulo_4579" data-name="Rectángulo 4579" width="172" height="44" transform="translate(227 1648.214)" fill="#179a00"/>
    <text id="_51_" data-name="51%" transform="translate(251 1566.214)" fill="#012869" font-size="70" font-family="Roboto-Regular, Roboto" style="isolation: isolate"><tspan x="0" y="67">51%</tspan></text>
    <text id="Reducción_" data-name="Reducción " transform="translate(236 1654.214)" fill="#fff" font-size="25" font-family="Lato-BoldItalic, Lato" font-weight="700" font-style="italic" style="isolation: isolate"><tspan x="-54.269" y="25">Reducción </tspan></text>
    <g id="Grupo_13599" data-name="Grupo 13599" transform="translate(1180.152 1696.302)">
      <path id="Trazado_5703" data-name="Trazado 5703" d="M-726.273-83.269a4.766,4.766,0,0,1-4.766,4.766,4.766,4.766,0,0,1-4.766-4.766,4.766,4.766,0,0,1,4.766-4.766,4.732,4.732,0,0,1,4.766,4.7Q-726.271-83.3-726.273-83.269Z" fill="none" stroke="#19a500" stroke-linecap="round" stroke-linejoin="round" stroke-width="1.6" style="mix-blend-mode: multiply;isolation: isolate"/>
      <rect id="Rectángulo_4575" data-name="Rectángulo 4575" width="8.593" height="16.557" rx="4.297" transform="translate(-713.82 -68.578)" fill="none" stroke="#95a6b1" stroke-linecap="round" stroke-linejoin="round" stroke-width="1.6"/>
      <path id="Trazado_11876" data-name="Trazado 11876" d="M-717.257-56.318a4.3,4.3,0,0,1-4.3,4.3h0a4.3,4.3,0,0,1-4.3-4.3v-7.963a4.3,4.3,0,0,1,4.3-4.3h0a4.3,4.3,0,0,1,4.3,4.3" fill="none" stroke="#95a6b1" stroke-linecap="round" stroke-linejoin="round" stroke-width="1.6"/>
      <path id="Trazado_11877" data-name="Trazado 11877" d="M-701.445-58.9s-.344-3.609,3.094-3.609,3.093,3.041,3.093,3.044c0,2.674-3.609,2.456-4.984,3.6-.344.287-1.318.75-1.318,3.271h6.417" fill="none" stroke="#95a6b1" stroke-linecap="round" stroke-linejoin="round" stroke-width="1.6"/>
      <circle id="Elipse_2163" data-name="Elipse 2163" cx="3.554" cy="3.554" r="3.554" transform="translate(-739.376 -53.468)" fill="none" stroke="#95a6b1" stroke-linecap="round" stroke-linejoin="round" stroke-width="1.6"/>
      <circle id="Elipse_2164" data-name="Elipse 2164" cx="3.658" cy="3.658" r="3.658" transform="translate(-690.139 -52.18)" fill="none" stroke="#95a6b1" stroke-linecap="round" stroke-linejoin="round" stroke-width="1.6"/>
      <circle id="Elipse_2165" data-name="Elipse 2165" cx="2.718" cy="2.718" r="2.718" transform="translate(-682.98 -83.39)" fill="none" stroke="#95a6b1" stroke-linecap="round" stroke-linejoin="round" stroke-width="1.6"/>
      <circle id="Elipse_2166" data-name="Elipse 2166" cx="2.4" cy="2.4" r="2.4" transform="translate(-725.692 -45.057)" fill="none" stroke="#95a6b1" stroke-linecap="round" stroke-linejoin="round" stroke-width="1.6"/>
      <path id="Trazado_11878" data-name="Trazado 11878" d="M-688.3-76.059a10.263,10.263,0,0,1,6.517,9.555,10.261,10.261,0,0,1-10.26,10.26" fill="none" stroke="#95a6b1" stroke-linecap="round" stroke-linejoin="round" stroke-width="1.6"/>
      <path id="Trazado_11879" data-name="Trazado 11879" d="M-713.78-86.99a14.084,14.084,0,0,1,11.717-6.257,14.1,14.1,0,0,1,14.107,14.1,13.564,13.564,0,0,1-.348,3.087" fill="none" stroke="#95a6b1" stroke-linecap="round" stroke-linejoin="round" stroke-width="1.6"/>
      <path id="Trazado_11880" data-name="Trazado 11880" d="M-723.809-88.07a7.745,7.745,0,0,1,4.386-1.352,7.715,7.715,0,0,1,5.643,2.432" fill="none" stroke="#95a6b1" stroke-linecap="round" stroke-linejoin="round" stroke-width="1.6"/>
      <path id="Trazado_11881" data-name="Trazado 11881" d="M-728.946-56.244a11.693,11.693,0,0,1-11.693-11.693,11.668,11.668,0,0,1,4.066-8.863" fill="none" stroke="#95a6b1" stroke-linecap="round" stroke-linejoin="round" stroke-width="1.6"/>
      <g id="Grupo_13582" data-name="Grupo 13582">
        <line id="Línea_1845" data-name="Línea 1845" y2="8.628" transform="translate(-709.523 -48.522)" fill="none" stroke="#95a6b1" stroke-linecap="round" stroke-linejoin="round" stroke-width="1.6"/>
        <path id="Trazado_11882" data-name="Trazado 11882" d="M-705.662-43.316l-3.861,3.861-3.861-3.861" fill="none" stroke="#95a6b1" stroke-linecap="round" stroke-linejoin="round" stroke-width="1.6"/>
      </g>
      <g id="Grupo_13585" data-name="Grupo 13585">
        <g id="Grupo_13584" data-name="Grupo 13584">
          <rect id="Rectángulo_4576" data-name="Rectángulo 4576" width="84" height="20.926" transform="translate(-752.152 -37.234)" fill="none"/>
          <g id="Grupo_13583" data-name="Grupo 13583">
            <line id="Línea_1846" data-name="Línea 1846" x2="8.959" transform="translate(-703.009 -22.41)" fill="none" stroke="#4da12e" stroke-linecap="round" stroke-linejoin="round" stroke-width="3"/>
            <line id="Línea_1847" data-name="Línea 1847" x2="0.726" transform="translate(-685.116 -22.41)" fill="none" stroke="#4da12e" stroke-linecap="round" stroke-linejoin="round" stroke-width="3"/>
            <line id="Línea_1848" data-name="Línea 1848" x2="8.876" transform="translate(-735.913 -22.41)" fill="none" stroke="#4da12e" stroke-linecap="round" stroke-linejoin="round" stroke-width="3"/>
            <line id="Línea_1849" data-name="Línea 1849" x2="15.647" transform="translate(-727.615 -22.41)" fill="none" stroke="#96d200" stroke-linecap="round" stroke-linejoin="round" stroke-width="3"/>
            <line id="Línea_1850" data-name="Línea 1850" x2="29.477" transform="translate(-735.913 -30.043)" fill="none" stroke="#96d200" stroke-linecap="round" stroke-linejoin="round" stroke-width="3"/>
            <line id="Línea_1851" data-name="Línea 1851" x2="22.954" transform="translate(-707.344 -30.043)" fill="none" stroke="#4da12e" stroke-linecap="round" stroke-linejoin="round" stroke-width="3"/>
            <line id="Línea_1852" data-name="Línea 1852" x2="0.537" transform="translate(-735.913 -30.043)" fill="none" stroke="#4da12e" stroke-linecap="round" stroke-linejoin="round" stroke-width="3"/>
          </g>
        </g>
      </g>
      <rect id="Rectángulo_4577" data-name="Rectángulo 4577" width="84" height="84" transform="translate(-752.152 -100.302)" fill="none"/>
    </g>
  </g>
</svg>
