<svg xmlns="http://www.w3.org/2000/svg" width="84" height="84" viewBox="0 0 84 84">
  <g id="Grupo_13602" data-name="Grupo 13602" transform="translate(0 -0.006)">
    <path id="Trazado_11899" data-name="Trazado 11899" d="M49.206,42.124l-2.124,6.214a1.073,1.073,0,0,0,.154.927l1.249,1.761a1.073,1.073,0,0,1,.173.853l-2.03,9.169a1.074,1.074,0,0,1-1.457.761l-.652-.269a1.074,1.074,0,0,1-.585-1.4l1.158-2.825a1.073,1.073,0,0,0-.821-1.466l-2.113-.344a1.013,1.013,0,0,0-.252-.011l-4.935.368a1.066,1.066,0,0,1-.463-.068l-1.361-5.738L30.213,47.82l-8.2-1.311-.731-.187a1.068,1.068,0,0,1-.327-.172l-5.317-4.09a1.073,1.073,0,0,1-.07-1.643l.956-.875L19.813,36.3l.785-5.652.085-3.744a1.048,1.048,0,0,0-.04-.31l-.661-2.083" fill="none" stroke="#95a6b1" stroke-linecap="round" stroke-linejoin="round" stroke-width="1.6"/>
    <path id="Trazado_11900" data-name="Trazado 11900" d="M26.592,10.942l2.1-2.026a1.072,1.072,0,0,1,.5-.257L34.5,7.506a1.087,1.087,0,0,0,.271-.1L37.907,5.76a1.051,1.051,0,0,0,.107-.065L40.3,4.134a1.072,1.072,0,0,1,1.444.215h0a1.073,1.073,0,0,1-.212,1.543L39.422,7.405a1.07,1.07,0,0,0-.332.387l-2.815,5.556a1.077,1.077,0,0,0-.035.9l1.934,4.686a1.047,1.047,0,0,1,.058.188l.487,2.312a1.075,1.075,0,0,0,.916.844l4.891.62a1.057,1.057,0,0,1,.456.169L49.614,26.8" fill="none" stroke="#95a6b1" stroke-linecap="round" stroke-linejoin="round" stroke-width="1.6"/>
    <path id="Trazado_11901" data-name="Trazado 11901" d="M59.537,47.384" fill="none" stroke="#95a6b1" stroke-linecap="round" stroke-linejoin="round" stroke-width="1.6"/>
    <path id="Trazado_11902" data-name="Trazado 11902" d="M20.472,47.384" fill="none" stroke="#95a6b1" stroke-linecap="round" stroke-linejoin="round" stroke-width="1.6"/>
    <path id="Trazado_5703" data-name="Trazado 5703" d="M26.943,16.824a4.733,4.733,0,1,1,0-.066Z" fill="none" stroke="#19a500" stroke-linecap="round" stroke-linejoin="round" stroke-width="1.6" style="mix-blend-mode: multiply;isolation: isolate"/>
    <line id="Línea_1878" data-name="Línea 1878" x1="1.68" transform="translate(42.734 39.268)" fill="none" stroke="#95a6b1" stroke-linecap="round" stroke-linejoin="round" stroke-width="1.6"/>
    <path id="Trazado_11903" data-name="Trazado 11903" d="M69.028,41.9H42.657V30.853H69.028" fill="none" stroke="#95a6b1" stroke-linecap="round" stroke-linejoin="round" stroke-width="1.6"/>
    <rect id="Rectángulo_4581" data-name="Rectángulo 4581" width="5.092" height="13.133" transform="translate(42.657 42.945) rotate(-180)" fill="none" stroke="#95a6b1" stroke-linecap="round" stroke-linejoin="round" stroke-width="1.6"/>
    <line id="Línea_1879" data-name="Línea 1879" x1="1.658" transform="translate(42.734 36.378)" fill="none" stroke="#95a6b1" stroke-linecap="round" stroke-linejoin="round" stroke-width="1.6"/>
    <line id="Línea_1880" data-name="Línea 1880" x1="1.68" transform="translate(42.734 33.479)" fill="none" stroke="#95a6b1" stroke-linecap="round" stroke-linejoin="round" stroke-width="1.6"/>
    <line id="Línea_1881" data-name="Línea 1881" y1="4.968" transform="translate(58.949 36.937)" fill="none" stroke="#95a6b1" stroke-linecap="round" stroke-linejoin="round" stroke-width="1.6"/>
    <line id="Línea_1882" data-name="Línea 1882" y2="2.361" transform="translate(58.949 30.853)" fill="none" stroke="#95a6b1" stroke-linecap="round" stroke-linejoin="round" stroke-width="1.6"/>
    <rect id="Rectángulo_4582" data-name="Rectángulo 4582" width="15.064" height="8.098" transform="translate(49.614 22.755)" fill="none" stroke="#95a6b1" stroke-linecap="round" stroke-linejoin="round" stroke-width="1.6"/>
    <line id="Línea_1883" data-name="Línea 1883" y1="4.944" transform="translate(57.146 17.811)" fill="none" stroke="#95a6b1" stroke-linecap="round" stroke-linejoin="round" stroke-width="1.6"/>
    <line id="Línea_1884" data-name="Línea 1884" x2="6.666" transform="translate(53.94 17.811)" fill="none" stroke="#95a6b1" stroke-linecap="round" stroke-linejoin="round" stroke-width="1.6"/>
    <line id="Línea_1885" data-name="Línea 1885" x2="15.064" transform="translate(49.614 26.804)" fill="none" stroke="#95a6b1" stroke-linecap="round" stroke-linejoin="round" stroke-width="1.6"/>
    <g id="Grupo_13607" data-name="Grupo 13607">
      <g id="Grupo_13606" data-name="Grupo 13606">
        <g id="Grupo_13605" data-name="Grupo 13605">
          <rect id="Rectángulo_4583" data-name="Rectángulo 4583" width="84" height="20.926" transform="translate(0 63.074)" fill="none"/>
          <g id="Grupo_13604" data-name="Grupo 13604">
            <line id="Línea_1886" data-name="Línea 1886" x2="8.959" transform="translate(49.142 77.898)" fill="none" stroke="#4da12e" stroke-linecap="round" stroke-linejoin="round" stroke-width="3"/>
            <line id="Línea_1887" data-name="Línea 1887" x2="0.726" transform="translate(67.035 77.898)" fill="none" stroke="#4da12e" stroke-linecap="round" stroke-linejoin="round" stroke-width="3"/>
            <line id="Línea_1888" data-name="Línea 1888" x2="8.876" transform="translate(16.239 77.898)" fill="none" stroke="#4da12e" stroke-linecap="round" stroke-linejoin="round" stroke-width="3"/>
            <line id="Línea_1889" data-name="Línea 1889" x2="15.647" transform="translate(24.537 77.898)" fill="none" stroke="#96d200" stroke-linecap="round" stroke-linejoin="round" stroke-width="3"/>
            <line id="Línea_1890" data-name="Línea 1890" x2="29.477" transform="translate(16.239 70.264)" fill="none" stroke="#96d200" stroke-linecap="round" stroke-linejoin="round" stroke-width="3"/>
            <line id="Línea_1891" data-name="Línea 1891" x2="22.954" transform="translate(44.807 70.264)" fill="none" stroke="#4da12e" stroke-linecap="round" stroke-linejoin="round" stroke-width="3"/>
            <line id="Línea_1892" data-name="Línea 1892" x2="0.537" transform="translate(16.239 70.264)" fill="none" stroke="#4da12e" stroke-linecap="round" stroke-linejoin="round" stroke-width="3"/>
          </g>
        </g>
      </g>
    </g>
    <rect id="Rectángulo_4584" data-name="Rectángulo 4584" width="84" height="84" transform="translate(0 0.006)" fill="none"/>
  </g>
</svg>
