<svg xmlns="http://www.w3.org/2000/svg" width="627" height="306.233" viewBox="0 0 627 306.233">
  <g id="Grupo_11229" data-name="Grupo 11229" transform="translate(-424 -7013.953)">
    <text id="El_precio_del_petróleo_de_EE.UU._cotiza_en_negativo" data-name="El precio del petróleo de EE.UU. cotiza en negativo" transform="translate(455 7013.953)" fill="#24a31a" font-size="20" font-family="Roboto-Medium, Roboto" font-weight="500"><tspan x="-224.131" y="19">El precio del petróleo de EE.UU. cotiza en negativo</tspan></text>
    <g id="Grupo_11102" data-name="Grupo 11102" transform="translate(-9533 4978.424)">
      <path id="Trazado_10181" data-name="Trazado 10181" d="M156.264,222.214l1.276-7.809,2.871,2.207,2.551-7.979,2.871,13.751.639-8.319,2.871,1.358v-4.244l3.507,6.451,3.827-10.7,2.234,7.639,3.827-5.6,1.276,10.356,3.507-6.281,4.146,6.111,3.19-4.244,3.827,5.6,4.466-4.583.956,7.809,4.146-1.358.319,7.13,3.509-4.074,2.232,2.376,1.595-8.488,3.19,2.547.637-4.584,1.595,1.188.639-3.735L224.2,221.2l8.292-8.318,3.507,7.3,3.19-8.658,6.06-6.112,1.276,11.884,2.232,3.225,4.466-7.639,6.378,5.772,3.829-7.979,5.1,2.377,2.232-5.6,4.466,1.358.956-7.639,3.829,5.772,3.188-12.9,2.551,4.754,4.466-12.054,3.509,16.638.318-9,3.509,2.716,2.232-12.732,5.741,12.393.956-16.3,2.234,2.377,3.507-5.6.958-8.658,6.378,16.3,4.466-13.072,3.188,10.7,3.19-18.844,3.19,6.79,4.466-9.846s.956,19.184,7.017,24.277l2.551-7.13,4.146,13.581,1.595-12.563,2.869,3.735.639-8.828,3.507,4.584,4.466-17.486L367.4,168.4l.958-13.242,2.551,2.716,2.232-19.183,7.017,10.865-1.912-15.11h7.015L382.707,122.9l3.509-2.716L391,83.512l3.509,35.313,1.595-7.98.318,33.1,2.234.51.319,24.446,2.232,1.189.956,25.975,3.827,13.072,2.553-12.563,3.507-1.358-.956-7.47,6.378-20.033,2.551,12.563,3.19-14.261,1.276,7.47L426.72,156l2.871,12.733,2.553-14.431,2.551,11.714,4.464-15.618,4.466,20.372,4.465-13.412,2.551,10.526,2.871-14.261,3.509,2.547-1.276-6.961,4.783-4.414,3.19,7.3.637-22.579,1.595,4.923,1.914-14.939.956,16.637,1.595-3.905,4.146,4.075v9l3.19,1.7-.639,10.356,2.551-7.809,1.595,13.412L483.49,131.9l1.595,9.507,1.595-10.356,2.234,6.791,1.593-12.733,4.466,6.112,4.146,20.032,1.276,8.319,2.234-14.091,4.146-9,.318,7.639h2.234l-.639,2.886,4.146,5.942,4.785-15.619,4.466,12.054,2.232-10.695,3.507,4.074,1.914-17.486,3.19,5.093,1.276-7.979,2.871,13.751v5.772l4.783,1.868.319-8.659,4.785,1.868-1.277-7.13,6.38,4.583,2.551-8.658,3.827,3.9v7.3l5.422,6.112v13.072l4.465,7.13v21.561l2.87,12.393,3.19,2.207,5.422-19.354,3.507-1.188,4.785,26.654,1.912-12.563,8.612,17.826,2.234,8.658,3.188-11.884-.637-5.772,5.422-9.507,5.1,10.356,6.38-11.375.956,6.791,4.466-10.865,4.464,7.979,2.234-6.791.956,8.658,1.914-5.6,2.232,10.526,2.551-11.035,4.146,5.093.639-6.112,4.466-8.319,1.276,2.886,3.827-11.884,2.232,7.131,6.7-12.393,1.276,6.79,1.914-9.846,2.871,9.507,2.551-11.545,6.38,38.368,5.422-14.939,4.146-5.772V173.49l3.507,15.789,2.551-8.828,3.509,9.337.956-12.563,3.827,11.714L708.02,177.9l2.551,14.261,1.595-3.735.319,37.179,2.232-7.809.639,49.743v13.745H156.264Z" transform="translate(9840.307 2034.026)" fill="#efef00" stroke="#efef00" stroke-linecap="round" stroke-linejoin="round" stroke-miterlimit="10" stroke-width="1.5"/>
      <text id="_2000" data-name="2000" transform="translate(9984.173 2338.542)" fill="#012869" font-size="11" font-family="SegoeUI, Segoe UI"><tspan x="0" y="0">2000</tspan></text>
      <text id="_-25" data-name="-25" transform="translate(9958.858 2319)" fill="#012869" font-size="10" font-family="SegoeUI, Segoe UI"><tspan x="0" y="0">-25</tspan></text>
      <text id="_0" data-name="0" transform="translate(9969.547 2291)" fill="#012869" font-size="10" font-family="SegoeUI, Segoe UI"><tspan x="0" y="0">0</tspan></text>
      <text id="_25" data-name="25" transform="translate(9964 2262)" fill="#012869" font-size="10" font-family="SegoeUI, Segoe UI"><tspan x="0" y="0">25</tspan></text>
      <text id="_50" data-name="50" transform="translate(9963.041 2234)" fill="#012869" font-size="10" font-family="SegoeUI, Segoe UI"><tspan x="0" y="0">50</tspan></text>
      <text id="_75" data-name="75" transform="translate(9964 2206)" fill="#012869" font-size="10" font-family="SegoeUI, Segoe UI"><tspan x="0" y="0">75</tspan></text>
      <text id="_100" data-name="100" transform="translate(9957 2177)" fill="#012869" font-size="10" font-family="SegoeUI, Segoe UI"><tspan x="0" y="0">100</tspan></text>
      <text id="_125" data-name="125" transform="translate(9957 2149)" fill="#012869" font-size="10" font-family="SegoeUI, Segoe UI"><tspan x="0" y="0">125</tspan></text>
      <text id="_150" data-name="150" transform="translate(9957 2120)" fill="#012869" font-size="10" font-family="SegoeUI, Segoe UI"><tspan x="0" y="0">150</tspan></text>
      <text id="Precio_del_barril_WTI" data-name="Precio del barril WTI" transform="translate(10477 2094)" fill="#012869" font-size="12" font-family="SegoeUI, Segoe UI"><tspan x="0" y="0">Precio del barril WTI</tspan></text>
      <text id="_2004" data-name="2004" transform="translate(10096.318 2338.762)" fill="#012869" font-size="11" font-family="SegoeUI, Segoe UI"><tspan x="0" y="0">2004</tspan></text>
      <text id="_2008" data-name="2008" transform="translate(10208.464 2338.542)" fill="#012869" font-size="11" font-family="SegoeUI, Segoe UI"><tspan x="0" y="0">2008</tspan></text>
      <text id="_2012" data-name="2012" transform="translate(10320.609 2338.762)" fill="#012869" font-size="11" font-family="SegoeUI, Segoe UI"><tspan x="0" y="0">2012</tspan></text>
      <text id="_2016" data-name="2016" transform="translate(10432.755 2338.762)" fill="#012869" font-size="11" font-family="SegoeUI, Segoe UI"><tspan x="0" y="0">2016</tspan></text>
      <text id="_2020" data-name="2020" transform="translate(10544.901 2338.762)" fill="#012869" font-size="11" font-family="SegoeUI, Segoe UI"><tspan x="0" y="0">2020</tspan></text>
      <line id="Línea_1678" data-name="Línea 1678" x2="588.534" transform="translate(9982.447 2174.5)" stroke="#c4c4c4" stroke-width="0.5" stroke-dasharray="4"/>
      <line id="Línea_1679" data-name="Línea 1679" x2="588.534" transform="translate(9982.447 2202.5)" stroke="#c4c4c4" stroke-width="0.5" stroke-dasharray="4"/>
      <line id="Línea_1680" data-name="Línea 1680" x2="588.534" transform="translate(9982.447 2230.5)" stroke="#c4c4c4" stroke-width="0.5" stroke-dasharray="4"/>
      <line id="Línea_1681" data-name="Línea 1681" x2="588.534" transform="translate(9982.447 2259.5)" stroke="#c4c4c4" stroke-width="0.5" stroke-dasharray="4"/>
      <line id="Línea_1682" data-name="Línea 1682" x2="588.534" transform="translate(9982.447 2287.5)" stroke="#c4c4c4" stroke-width="0.5" stroke-dasharray="4"/>
      <line id="Línea_1683" data-name="Línea 1683" x2="588.534" transform="translate(9982.447 2315.5)" stroke="#c4c4c4" stroke-width="0.5" stroke-dasharray="4"/>
      <line id="Línea_1684" data-name="Línea 1684" x2="588.534" transform="translate(9982.447 2145.5)" stroke="#c4c4c4" stroke-width="0.5" stroke-dasharray="4"/>
      <line id="Línea_1685" data-name="Línea 1685" x2="588.534" transform="translate(9982.447 2116.5)" stroke="#c4c4c4" stroke-width="0.5" stroke-dasharray="4"/>
      <line id="Línea_1686" data-name="Línea 1686" x2="12.944" transform="translate(10455.988 2089.234)" stroke="#48972a" stroke-linecap="round" stroke-width="2"/>
      <path id="Trazado_10180" data-name="Trazado 10180" d="M156.264,222.214l1.276-7.809,2.871,2.207,2.551-7.979,2.871,13.751.639-8.319,2.871,1.358v-4.244l3.507,6.451,3.827-10.7,2.234,7.639,3.827-5.6,1.276,10.356,3.507-6.281,4.146,6.111,3.19-4.244,3.827,5.6,4.466-4.583.956,7.809,4.146-1.358.319,7.13,3.509-4.074,2.232,2.376,1.595-8.488,3.19,2.547.637-4.584,1.595,1.188.639-3.735L224.2,221.2l8.292-8.318,3.507,7.3,3.19-8.658,6.06-6.112,1.276,11.884,2.232,3.225,4.466-7.639,6.378,5.772,3.829-7.979,5.1,2.377,2.232-5.6,4.466,1.358.956-7.639,3.829,5.772,3.188-12.9,2.551,4.754,4.466-12.054,3.509,16.638.318-9,3.509,2.716,2.232-12.732,5.741,12.393.956-16.3,2.234,2.377,3.507-5.6.958-8.658,6.378,16.3,4.466-13.072,3.188,10.7,3.19-18.844,3.19,6.79,4.466-9.846s.956,19.184,7.017,24.277l2.551-7.13,4.146,13.581,1.595-12.563,2.869,3.735.639-8.828,3.507,4.584,4.466-17.486L367.4,168.4l.958-13.242,2.551,2.716,2.232-19.183,7.017,10.865-1.912-15.11h7.015L382.707,122.9l3.509-2.716L391,83.512l3.509,35.313,1.595-7.98.318,33.1,2.234.51.319,24.446,2.232,1.189.956,25.975,3.827,13.072,2.553-12.563,3.507-1.358-.956-7.47,6.378-20.033,2.551,12.563,3.19-14.261,1.276,7.47L426.72,156l2.871,12.733,2.553-14.431,2.551,11.714,4.464-15.618,4.466,20.372,4.465-13.412,2.551,10.526,2.871-14.261,3.509,2.547-1.276-6.961,4.783-4.414,3.19,7.3.637-22.579,1.595,4.923,1.914-14.939.956,16.637,1.595-3.905,4.146,4.075v9l3.19,1.7-.639,10.356,2.551-7.809,1.595,13.412L483.49,131.9l1.595,9.507,1.595-10.356,2.234,6.791,1.593-12.733,4.466,6.112,4.146,20.032,1.276,8.319,2.234-14.091,4.146-9,.318,7.639h2.234l-.639,2.886,4.146,5.942,4.785-15.619,4.466,12.054,2.232-10.695,3.507,4.074,1.914-17.486,3.19,5.093,1.276-7.979,2.871,13.751v5.772l4.783,1.868.319-8.659,4.785,1.868-1.277-7.13,6.38,4.583,2.551-8.658,3.827,3.9v7.3l5.422,6.112v13.072l4.465,7.13v21.561l2.87,12.393,3.19,2.207,5.422-19.354,3.507-1.188,4.785,26.654,1.912-12.563,8.612,17.826,2.234,8.658,3.188-11.884-.637-5.772,5.422-9.507,5.1,10.356,6.38-11.375.956,6.791,4.466-10.865,4.464,7.979,2.234-6.791.956,8.658,1.914-5.6,2.232,10.526,2.551-11.035,4.146,5.093.639-6.112,4.466-8.319,1.276,2.886,3.827-11.884,2.232,7.131,6.7-12.393,1.276,6.79,1.914-9.846,2.871,9.507,2.551-11.545,6.38,38.368,5.422-14.939,4.146-5.772V173.49l3.507,15.789,2.551-8.828,3.509,9.337.956-12.563,3.827,11.714L708.02,177.9l2.551,14.261,1.595-3.735.319,37.179,2.232-7.809.639,49.743" transform="translate(9840.307 2034.026)" fill="none" stroke="#48972a" stroke-linecap="round" stroke-linejoin="round" stroke-miterlimit="10" stroke-width="1.5"/>
    </g>
  </g>
</svg>
