<svg xmlns="http://www.w3.org/2000/svg" width="84" height="80.824" viewBox="0 0 84 80.824">
  <g id="Grupo_13598" data-name="Grupo 13598" transform="translate(856.638 97.132)">
    <path id="Trazado_11869" data-name="Trazado 11869" d="M-788.637-79.8a28.591,28.591,0,0,1,2.7,12.168A28.58,28.58,0,0,1-791.992-50" fill="none" stroke="#95a6b1" stroke-linecap="round" stroke-linejoin="round" stroke-width="1.6"/>
    <path id="Trazado_11870" data-name="Trazado 11870" d="M-798.287-44.041a28.575,28.575,0,0,1-16.351,5.109,28.7,28.7,0,0,1-28.7-28.7,28.7,28.7,0,0,1,28.7-28.7,28.565,28.565,0,0,1,13.681,3.464" fill="none" stroke="#95a6b1" stroke-linecap="round" stroke-linejoin="round" stroke-width="1.6"/>
    <line id="Línea_1829" data-name="Línea 1829" y2="4.199" transform="translate(-814.648 -95.927)" fill="none" stroke="#95a6b1" stroke-linecap="round" stroke-linejoin="round" stroke-width="1.6"/>
    <line id="Línea_1830" data-name="Línea 1830" y2="4.199" transform="translate(-814.648 -43.327)" fill="none" stroke="#95a6b1" stroke-linecap="round" stroke-linejoin="round" stroke-width="1.6"/>
    <line id="Línea_1831" data-name="Línea 1831" x1="4.199" transform="translate(-790.447 -67.527)" fill="none" stroke="#95a6b1" stroke-linecap="round" stroke-linejoin="round" stroke-width="1.6"/>
    <line id="Línea_1832" data-name="Línea 1832" x1="4.199" transform="translate(-843.048 -67.527)" fill="none" stroke="#95a6b1" stroke-linecap="round" stroke-linejoin="round" stroke-width="2"/>
    <line id="Línea_1833" data-name="Línea 1833" x1="3.167" y2="2.954" transform="translate(-834.73 -50.399)" fill="none" stroke="#95a6b1" stroke-linecap="round" stroke-linejoin="round" stroke-width="1.6"/>
    <line id="Línea_1834" data-name="Línea 1834" x1="3.167" y1="3.097" transform="translate(-834.73 -87.609)" fill="none" stroke="#95a6b1" stroke-linecap="round" stroke-linejoin="round" stroke-width="1.6"/>
    <path id="Trazado_11871" data-name="Trazado 11871" d="M-786.42-49.37l-6.691.606-.607-6.7" fill="none" stroke="#95a6b1" stroke-linecap="round" stroke-linejoin="round" stroke-width="1.6"/>
    <line id="Línea_1835" data-name="Línea 1835" x2="31.792" transform="translate(-830.158 -53.502)" fill="none" stroke="#95a6b1" stroke-linecap="round" stroke-linejoin="round" stroke-width="1.6"/>
    <g id="Grupo_13577" data-name="Grupo 13577">
      <g id="Grupo_13575" data-name="Grupo 13575">
        <line id="Línea_1836" data-name="Línea 1836" y1="18.084" transform="translate(-806.662 -71.587)" fill="none" stroke="#95a6b1" stroke-linecap="round" stroke-linejoin="round" stroke-width="1.6"/>
        <path id="Trazado_11872" data-name="Trazado 11872" d="M-803.9-70.262l-2.676,1.95-2.842-1.867" fill="none" stroke="#95a6b1" stroke-linecap="round" stroke-linejoin="round" stroke-width="1.6"/>
        <path id="Trazado_11873" data-name="Trazado 11873" d="M-801.792-72.764v-.625a5.066,5.066,0,0,0-5.066-5.066,5.066,5.066,0,0,0-5.066,5.066v.637a3.567,3.567,0,0,0-3.234,3.544v.4a3.579,3.579,0,0,0,3.579,3.579h9.569a3.579,3.579,0,0,0,3.579-3.579v-.4A3.569,3.569,0,0,0-801.792-72.764Z" fill="none" stroke="#95a6b1" stroke-linecap="round" stroke-linejoin="round" stroke-width="1.6"/>
      </g>
      <g id="Grupo_13576" data-name="Grupo 13576">
        <line id="Línea_1837" data-name="Línea 1837" y1="21.34" transform="translate(-820.731 -74.842)" fill="none" stroke="#95a6b1" stroke-linecap="round" stroke-linejoin="round" stroke-width="1.6"/>
        <path id="Trazado_11874" data-name="Trazado 11874" d="M-817.626-73.355l-3.006,2.19-3.192-2.1" fill="none" stroke="#95a6b1" stroke-linecap="round" stroke-linejoin="round" stroke-width="1.6"/>
        <path id="Trazado_11875" data-name="Trazado 11875" d="M-811.991-72.979a3.541,3.541,0,0,0-3.269-3.186v-.7a5.69,5.69,0,0,0-5.691-5.69,5.69,5.69,0,0,0-5.691,5.69v.716a4.007,4.007,0,0,0-3.632,3.981v.451a4.02,4.02,0,0,0,4.02,4.02h10.749" fill="none" stroke="#95a6b1" stroke-linecap="round" stroke-linejoin="round" stroke-width="1.6"/>
      </g>
    </g>
    <path id="Trazado_5703" data-name="Trazado 5703" d="M-789.187-86.674a5.053,5.053,0,0,1-5.053,5.053,5.053,5.053,0,0,1-5.054-5.053,5.054,5.054,0,0,1,5.054-5.054,5.019,5.019,0,0,1,5.053,4.984Z" fill="none" stroke="#19a500" stroke-linecap="round" stroke-linejoin="round" stroke-width="1.6" style="mix-blend-mode: multiply;isolation: isolate"/>
    <g id="Grupo_13580" data-name="Grupo 13580">
      <g id="Grupo_13579" data-name="Grupo 13579">
        <rect id="Rectángulo_4574" data-name="Rectángulo 4574" width="84" height="20.926" transform="translate(-856.638 -37.234)" fill="none"/>
        <g id="Grupo_13578" data-name="Grupo 13578">
          <line id="Línea_1838" data-name="Línea 1838" x2="8.959" transform="translate(-807.496 -22.41)" fill="none" stroke="#4da12e" stroke-linecap="round" stroke-linejoin="round" stroke-width="3"/>
          <line id="Línea_1839" data-name="Línea 1839" x2="0.726" transform="translate(-789.602 -22.41)" fill="none" stroke="#4da12e" stroke-linecap="round" stroke-linejoin="round" stroke-width="3"/>
          <line id="Línea_1840" data-name="Línea 1840" x2="8.876" transform="translate(-840.399 -22.41)" fill="none" stroke="#4da12e" stroke-linecap="round" stroke-linejoin="round" stroke-width="3"/>
          <line id="Línea_1841" data-name="Línea 1841" x2="15.647" transform="translate(-832.101 -22.41)" fill="none" stroke="#96d200" stroke-linecap="round" stroke-linejoin="round" stroke-width="3"/>
          <line id="Línea_1842" data-name="Línea 1842" x2="29.477" transform="translate(-840.399 -30.043)" fill="none" stroke="#96d200" stroke-linecap="round" stroke-linejoin="round" stroke-width="3"/>
          <line id="Línea_1843" data-name="Línea 1843" x2="22.954" transform="translate(-811.83 -30.043)" fill="none" stroke="#4da12e" stroke-linecap="round" stroke-linejoin="round" stroke-width="3"/>
          <line id="Línea_1844" data-name="Línea 1844" x2="0.537" transform="translate(-840.399 -30.043)" fill="none" stroke="#4da12e" stroke-linecap="round" stroke-linejoin="round" stroke-width="3"/>
        </g>
      </g>
    </g>
  </g>
</svg>
