<svg xmlns="http://www.w3.org/2000/svg" width="93" height="93" viewBox="0 0 93 93">
  <g id="Grupo_13577" data-name="Grupo 13577" transform="translate(-393 -1960.227)">
    <circle id="Elipse_1798" data-name="Elipse 1798" cx="46.5" cy="46.5" r="46.5" transform="translate(393 1960.227)" fill="#19a500"/>
    <g id="Grupo_11179" data-name="Grupo 11179" transform="translate(410 1977.227)">
      <g id="Grupo_11180" data-name="Grupo 11180">
        <g id="Grupo_11179-2" data-name="Grupo 11179">
          <rect id="Rectángulo_3799" data-name="Rectángulo 3799" width="60" height="60" fill="none"/>
        </g>
      </g>
      <g id="Grupo_11188" data-name="Grupo 11188">
        <g id="Grupo_11186" data-name="Grupo 11186">
          <g id="Grupo_11181" data-name="Grupo 11181">
            <circle id="Elipse_1789" data-name="Elipse 1789" cx="2.943" cy="2.943" r="2.943" transform="translate(6.968 42.456)" fill="none" stroke="#fff" stroke-linecap="round" stroke-linejoin="round" stroke-width="1.303"/>
            <circle id="Elipse_1790" data-name="Elipse 1790" cx="2.943" cy="2.943" r="2.943" transform="translate(15.714 48.811)" fill="none" stroke="#fff" stroke-linecap="round" stroke-linejoin="round" stroke-width="1.303"/>
            <circle id="Elipse_1791" data-name="Elipse 1791" cx="2.943" cy="2.943" r="2.943" transform="translate(26.852 51.502)" fill="none" stroke="#fff" stroke-linecap="round" stroke-linejoin="round" stroke-width="1.303"/>
            <circle id="Elipse_1792" data-name="Elipse 1792" cx="2.943" cy="2.943" r="2.943" transform="translate(37.243 48.885)" fill="none" stroke="#fff" stroke-linecap="round" stroke-linejoin="round" stroke-width="1.303"/>
            <path id="Trazado_10324" data-name="Trazado 10324" d="M12.177,43.655l7.251-4.934V34.385" fill="none" stroke="#fff" stroke-linecap="round" stroke-linejoin="round" stroke-width="1.303"/>
            <path id="Trazado_10325" data-name="Trazado 10325" d="M18.657,48.811V45.524l6.079-4.111V34.468" fill="none" stroke="#fff" stroke-linecap="round" stroke-linejoin="round" stroke-width="1.303"/>
            <line id="Línea_1727" data-name="Línea 1727" y1="16.819" transform="translate(29.795 34.683)" fill="none" stroke="#fff" stroke-linecap="round" stroke-linejoin="round" stroke-width="1.303"/>
            <path id="Trazado_10326" data-name="Trazado 10326" d="M40.186,48.885V45.3L34.6,41.338V34.683" fill="none" stroke="#fff" stroke-linecap="round" stroke-linejoin="round" stroke-width="1.303"/>
            <path id="Trazado_10327" data-name="Trazado 10327" d="M45.22,40.134l-5.191-.067V34.759" fill="none" stroke="#fff" stroke-linecap="round" stroke-linejoin="round" stroke-width="1.303"/>
          </g>
          <g id="Grupo_11182" data-name="Grupo 11182">
            <circle id="Elipse_1793" data-name="Elipse 1793" cx="4.243" cy="4.243" r="4.243" transform="translate(25.002 9.962)" fill="none" stroke="#fff" stroke-linecap="round" stroke-linejoin="round" stroke-width="1.387"/>
            <path id="Trazado_10328" data-name="Trazado 10328" d="M39.749,29.247V25.641A4.739,4.739,0,0,0,35.01,20.9H24.267a4.739,4.739,0,0,0-4.738,4.739v3.606" fill="none" stroke="#fff" stroke-linecap="round" stroke-linejoin="round" stroke-width="1.436"/>
          </g>
          <g id="Grupo_11185" data-name="Grupo 11185">
            <g id="Grupo_11183" data-name="Grupo 11183">
              <path id="Trazado_10329" data-name="Trazado 10329" d="M27.785,5.016a6.958,6.958,0,0,1,2.991.053" fill="none" stroke="#fff" stroke-linecap="round" stroke-linejoin="round" stroke-width="1.218"/>
              <path id="Trazado_10330" data-name="Trazado 10330" d="M18.841,7.768a15.355,15.355,0,0,1,2.374-1.281" fill="none" stroke="#fff" stroke-linecap="round" stroke-linejoin="round" stroke-width="1.218"/>
              <path id="Trazado_10331" data-name="Trazado 10331" d="M12.386,15.355a14.992,14.992,0,0,1,1.542-2.823" fill="none" stroke="#fff" stroke-linecap="round" stroke-linejoin="round" stroke-width="1.218"/>
              <path id="Trazado_10332" data-name="Trazado 10332" d="M11.312,25.437a16.576,16.576,0,0,1-.329-3.3" fill="none" stroke="#fff" stroke-linecap="round" stroke-linejoin="round" stroke-width="1.218"/>
              <path id="Trazado_10333" data-name="Trazado 10333" d="M13.96,31.657a17.52,17.52,0,0,0,2.085,2.513H42.581" fill="none" stroke="#fff" stroke-linecap="round" stroke-linejoin="round" stroke-width="1.218"/>
              <path id="Trazado_10334" data-name="Trazado 10334" d="M27.691,4.819l-1.63-2.206-4.7,1.106-.165,2.715" fill="none" stroke="#fff" stroke-linecap="round" stroke-linejoin="round" stroke-width="1.218"/>
              <path id="Trazado_10335" data-name="Trazado 10335" d="M18.606,7.741,16.06,6.721l-3.42,3.414,1.287,2.4" fill="none" stroke="#fff" stroke-linecap="round" stroke-linejoin="round" stroke-width="1.218"/>
              <path id="Trazado_10336" data-name="Trazado 10336" d="M12.043,15.395l-2.7.49-1.081,4.71,2.365,1.345" fill="none" stroke="#fff" stroke-linecap="round" stroke-linejoin="round" stroke-width="1.218"/>
              <path id="Trazado_10337" data-name="Trazado 10337" d="M11.141,25.521,9.2,27.459l1.791,4.488,2.71-.239" fill="none" stroke="#fff" stroke-linecap="round" stroke-linejoin="round" stroke-width="1.218"/>
            </g>
            <g id="Grupo_11184" data-name="Grupo 11184">
              <path id="Trazado_10338" data-name="Trazado 10338" d="M39.784,7.768A15.356,15.356,0,0,0,37.41,6.487" fill="none" stroke="#fff" stroke-linecap="round" stroke-linejoin="round" stroke-width="1.218"/>
              <path id="Trazado_10339" data-name="Trazado 10339" d="M46.239,15.355A14.992,14.992,0,0,0,44.7,12.532" fill="none" stroke="#fff" stroke-linecap="round" stroke-linejoin="round" stroke-width="1.218"/>
              <path id="Trazado_10340" data-name="Trazado 10340" d="M47.313,25.437a16.576,16.576,0,0,0,.329-3.3" fill="none" stroke="#fff" stroke-linecap="round" stroke-linejoin="round" stroke-width="1.218"/>
              <path id="Trazado_10341" data-name="Trazado 10341" d="M42.581,34.17a17.513,17.513,0,0,0,2.084-2.513" fill="none" stroke="#fff" stroke-linecap="round" stroke-linejoin="round" stroke-width="1.218"/>
              <path id="Trazado_10342" data-name="Trazado 10342" d="M30.935,4.819l1.63-2.206,4.7,1.106.165,2.715" fill="none" stroke="#fff" stroke-linecap="round" stroke-linejoin="round" stroke-width="1.218"/>
              <path id="Trazado_10343" data-name="Trazado 10343" d="M40.019,7.741l2.546-1.02,3.42,3.414-1.287,2.4" fill="none" stroke="#fff" stroke-linecap="round" stroke-linejoin="round" stroke-width="1.218"/>
              <path id="Trazado_10344" data-name="Trazado 10344" d="M46.582,15.395l2.7.49,1.081,4.71L48,21.94" fill="none" stroke="#fff" stroke-linecap="round" stroke-linejoin="round" stroke-width="1.218"/>
              <path id="Trazado_10345" data-name="Trazado 10345" d="M47.484,25.521l1.941,1.938-1.791,4.488-2.71-.239" fill="none" stroke="#fff" stroke-linecap="round" stroke-linejoin="round" stroke-width="1.218"/>
            </g>
          </g>
        </g>
        <g id="Grupo_11187" data-name="Grupo 11187">
          <circle id="Elipse_1794" data-name="Elipse 1794" cx="4.869" cy="4.869" r="4.869" transform="translate(45.294 36.024)" fill="none" stroke="#fff" stroke-miterlimit="10" stroke-width="1.2"/>
        </g>
      </g>
    </g>
  </g>
</svg>
