<svg xmlns="http://www.w3.org/2000/svg" width="56.957" height="75.934" viewBox="0 0 56.957 75.934">
  <g id="Grupo_11157" data-name="Grupo 11157" transform="translate(-13.51 -4.832)">
    <g id="Grupo_11158" data-name="Grupo 11158">
      <g id="Grupo_11157-2" data-name="Grupo 11157">
        <g id="Grupo_10179" data-name="Grupo 10179">
          <path id="Trazado_9599" data-name="Trazado 9599" d="M31.265,80.766H16.948a1.577,1.577,0,1,1,0-3.155H31.265a1.577,1.577,0,0,1,0,3.155Z" fill="#19a500"/>
        </g>
        <g id="Grupo_10180" data-name="Grupo 10180">
          <path id="Trazado_9600" data-name="Trazado 9600" d="M39.708,80.766H25.345a1.577,1.577,0,1,1,0-3.155H39.708a1.577,1.577,0,1,1,0,3.155Z" fill="#a1d005"/>
        </g>
        <g id="Grupo_10181" data-name="Grupo 10181">
          <path id="Trazado_9601" data-name="Trazado 9601" d="M57,80.766H49.822a1.577,1.577,0,0,1,0-3.155H57a1.577,1.577,0,0,1,0,3.155Z" fill="#a1d005"/>
        </g>
        <g id="Grupo_10182" data-name="Grupo 10182">
          <path id="Trazado_9602" data-name="Trazado 9602" d="M67.1,80.766a1.579,1.579,0,0,1-1.114-.464,1.562,1.562,0,0,1-.464-1.113,1.737,1.737,0,0,1,0-.306,1.6,1.6,0,0,1,.093-.3,1.456,1.456,0,0,1,.139-.269,2.637,2.637,0,0,1,.2-.242,1.542,1.542,0,0,1,1.42-.426,1.522,1.522,0,0,1,.3.083,2.424,2.424,0,0,1,.269.149,1.251,1.251,0,0,1,.241.194,1.566,1.566,0,0,1,.195.242,1.5,1.5,0,0,1,.149.269,1.6,1.6,0,0,1,.083.3,1.12,1.12,0,0,1,0,.306,1.562,1.562,0,0,1-.705,1.308,1.106,1.106,0,0,1-.269.149,1.5,1.5,0,0,1-.538.12Z" fill="#a1d005"/>
        </g>
        <g id="Grupo_10183" data-name="Grupo 10183">
          <path id="Trazado_9603" data-name="Trazado 9603" d="M52.7,71.126H16.948a1.578,1.578,0,1,1-.242-3.146,1.628,1.628,0,0,1,.242,0H52.7a1.577,1.577,0,1,1,0,3.155h0Z" fill="#a1d005"/>
        </g>
        <g id="Grupo_10184" data-name="Grupo 10184">
          <path id="Trazado_9604" data-name="Trazado 9604" d="M16.948,71.126a1.579,1.579,0,0,1-1.114-.464,1.559,1.559,0,0,1-.464-1.114,1.205,1.205,0,0,1,0-.306,1.545,1.545,0,0,1,.084-.3,1.566,1.566,0,0,1,.148-.269,1.256,1.256,0,0,1,.195-.241,1.586,1.586,0,0,1,1.41-.455l.3.093a2.066,2.066,0,0,1,.279.148,1.664,1.664,0,0,1,.232.195,1.232,1.232,0,0,1,.195.242,1.117,1.117,0,0,1,.148.269,1.529,1.529,0,0,1,.093.3,1.738,1.738,0,0,1,0,.306,1.587,1.587,0,0,1-1.578,1.577Z" fill="#149352"/>
        </g>
        <g id="Grupo_10185" data-name="Grupo 10185">
          <path id="Trazado_9605" data-name="Trazado 9605" d="M67.1,71.126H46.779a1.577,1.577,0,1,1,0-3.155H67.1a1.577,1.577,0,0,1,0,3.155Z" fill="#19a500"/>
        </g>
      </g>
    </g>
    <g id="Grupo_11164" data-name="Grupo 11164">
      <g id="Grupo_11163" data-name="Grupo 11163">
        <g id="Grupo_11161" data-name="Grupo 11161">
          <path id="Trazado_10298" data-name="Trazado 10298" d="M21.123,48.28l-.732-.187a1.068,1.068,0,0,1-.327-.172l-5.317-4.09a1.074,1.074,0,0,1-.07-1.643l.956-.875,3.291-3.243.785-5.652.085-3.744a1.081,1.081,0,0,0-.039-.31l-.209-.745" fill="none" stroke="#95a6b1" stroke-linecap="round" stroke-linejoin="round" stroke-width="1.6"/>
          <path id="Trazado_10299" data-name="Trazado 10299" d="M54.723,40.178c.558,2.078.241,2.087-.333,2.244l-3.445.939a1.06,1.06,0,0,1-.168.032l-4.566.489.96.96a1.076,1.076,0,0,1,.27,1.065l-1.248,4.2a1.073,1.073,0,0,0,.154.927L47.6,52.8a1.069,1.069,0,0,1,.173.853l-2.03,9.169a1.073,1.073,0,0,1-1.457.761l-.652-.269a1.072,1.072,0,0,1-.584-1.4L44.2,59.086a1.073,1.073,0,0,0-.821-1.466l-2.112-.344a1.023,1.023,0,0,0-.253-.011l-4.935.368a1.068,1.068,0,0,1-.463-.068l-1.361-5.738-4.933-2.235" fill="none" stroke="#95a6b1" stroke-linecap="round" stroke-linejoin="round" stroke-width="1.6"/>
          <path id="Trazado_10300" data-name="Trazado 10300" d="M26.334,12.032l1.473-1.345a1.08,1.08,0,0,1,.5-.257l5.306-1.153a1.073,1.073,0,0,0,.271-.1l3.139-1.647a1.173,1.173,0,0,0,.107-.065l2.282-1.561a1.073,1.073,0,0,1,1.445.215h0a1.074,1.074,0,0,1-.212,1.543L38.533,9.176a1.07,1.07,0,0,0-.332.387l-2.815,5.556a1.073,1.073,0,0,0-.034.895L37.285,20.7a1.05,1.05,0,0,1,.059.188L37.83,23.2a1.076,1.076,0,0,0,.916.844l4.891.62a1.066,1.066,0,0,1,.457.169l3.7,2.442a1.071,1.071,0,0,0,.536.176l4.983.256a1.073,1.073,0,0,1,1,1.251l-1.063,2.2" fill="none" stroke="#95a6b1" stroke-linecap="round" stroke-linejoin="round" stroke-width="1.6"/>
          <g id="Grupo_11160" data-name="Grupo 11160">
            <path id="Trazado_10301" data-name="Trazado 10301" d="M58.648,49.155" fill="none" stroke="#95a6b1" stroke-linecap="round" stroke-linejoin="round" stroke-width="1.6"/>
            <path id="Trazado_10302" data-name="Trazado 10302" d="M19.583,49.155" fill="none" stroke="#95a6b1" stroke-linecap="round" stroke-linejoin="round" stroke-width="1.6"/>
            <g id="Grupo_11159" data-name="Grupo 11159">
              <path id="Trazado_10303" data-name="Trazado 10303" d="M47.51,32.335a7.054,7.054,0,1,1-6.5-4.308,7.028,7.028,0,0,1,6.5,4.308" fill="none" stroke="#95a6b1" stroke-linecap="round" stroke-linejoin="round" stroke-width="1.6"/>
              <circle id="Elipse_1781" data-name="Elipse 1781" cx="4.119" cy="4.119" r="4.119" transform="translate(36.843 30.912)" fill="none" stroke="#95a6b1" stroke-linecap="round" stroke-linejoin="round" stroke-width="1.6"/>
              <path id="Trazado_10304" data-name="Trazado 10304" d="M37.658,32.772l3.3,2.259V39.15" fill="none" stroke="#95a6b1" stroke-linecap="round" stroke-linejoin="round" stroke-width="1.6"/>
              <line id="Línea_1720" data-name="Línea 1720" x1="3.289" y2="2.356" transform="translate(40.962 32.675)" fill="none" stroke="#95a6b1" stroke-linecap="round" stroke-linejoin="round" stroke-width="1.6"/>
            </g>
            <path id="Trazado_10305" data-name="Trazado 10305" d="M34.5,31.751H33.254a10.961,10.961,0,0,0-1.28.1c-4.808.558-10.132,5.708-10.132,11.12V54.417" fill="none" stroke="#95a6b1" stroke-linecap="round" stroke-linejoin="round" stroke-width="1.6"/>
            <path id="Trazado_10306" data-name="Trazado 10306" d="M34.472,39.12c-2.148.265-5.444,1.493-5.444,7.1v8.448" fill="none" stroke="#95a6b1" stroke-linecap="round" stroke-linejoin="round" stroke-width="1.6"/>
            <line id="Línea_1721" data-name="Línea 1721" x1="11.732" transform="translate(47.364 31.32)" fill="none" stroke="#95a6b1" stroke-linecap="round" stroke-linejoin="round" stroke-width="1.6"/>
            <line id="Línea_1722" data-name="Línea 1722" x2="11.832" transform="translate(47.263 39.522)" fill="none" stroke="#95a6b1" stroke-linecap="round" stroke-linejoin="round" stroke-width="1.6"/>
          </g>
        </g>
        <g id="Grupo_11162" data-name="Grupo 11162">
          <circle id="Elipse_1782" data-name="Elipse 1782" cx="6.002" cy="6.002" r="6.002" transform="translate(14.31 12.588)" fill="none" stroke="#19a500" stroke-miterlimit="10" stroke-width="1.6"/>
        </g>
        <path id="Rectángulo_4060" data-name="Rectángulo 4060" d="M1.93,0H12.836a1.93,1.93,0,0,1,1.93,1.93V8.091a0,0,0,0,1,0,0H0a0,0,0,0,1,0,0V1.93A1.93,1.93,0,0,1,1.93,0Z" transform="translate(17.789 55.247)" fill="none" stroke="#95a6b1" stroke-linecap="round" stroke-linejoin="round" stroke-width="1.6"/>
      </g>
      <path id="Rectángulo_4061" data-name="Rectángulo 4061" d="M3.352,0H40.03a0,0,0,0,1,0,0V9.709a0,0,0,0,1,0,0H3.352A3.352,3.352,0,0,1,0,6.357V3.352A3.352,3.352,0,0,1,3.352,0Z" transform="translate(69.69 23.444) rotate(90)" fill="none" stroke="#95a6b1" stroke-linecap="round" stroke-linejoin="round" stroke-width="1.552"/>
    </g>
  </g>
</svg>
