<svg xmlns="http://www.w3.org/2000/svg" width="59" height="76.564" viewBox="0 0 59 76.564">
  <g id="Grupo_11122" data-name="Grupo 11122" transform="translate(-12.5 -3.704)">
    <g id="Grupo_11122-2" data-name="Grupo 11122">
      <g id="Grupo_10179" data-name="Grupo 10179">
        <path id="Trazado_9599" data-name="Trazado 9599" d="M31.232,80.268H16.915a1.577,1.577,0,1,1,0-3.154H31.232a1.577,1.577,0,1,1,0,3.154Z" fill="#19a500"/>
      </g>
      <g id="Grupo_10180" data-name="Grupo 10180">
        <path id="Trazado_9600" data-name="Trazado 9600" d="M39.676,80.268H25.312a1.577,1.577,0,1,1,0-3.154H39.676a1.577,1.577,0,1,1,0,3.154Z" fill="#a1d005"/>
      </g>
      <g id="Grupo_10181" data-name="Grupo 10181">
        <path id="Trazado_9601" data-name="Trazado 9601" d="M56.971,80.268H49.789a1.577,1.577,0,1,1,0-3.154h7.182a1.577,1.577,0,1,1,0,3.154Z" fill="#a1d005"/>
      </g>
      <g id="Grupo_10182" data-name="Grupo 10182">
        <path id="Trazado_9602" data-name="Trazado 9602" d="M67.066,80.268a1.583,1.583,0,0,1-1.577-1.577,1.738,1.738,0,0,1,0-.306,1.55,1.55,0,0,1,.093-.3,1.459,1.459,0,0,1,.139-.269,2.472,2.472,0,0,1,.2-.241,1.539,1.539,0,0,1,1.42-.427,1.617,1.617,0,0,1,.3.083,2.619,2.619,0,0,1,.269.149,1.218,1.218,0,0,1,.241.195,1.558,1.558,0,0,1,.195.241,1.357,1.357,0,0,1,.232.566,1.205,1.205,0,0,1,0,.306,1.56,1.56,0,0,1-.464,1.114,1.665,1.665,0,0,1-.241.194,1.112,1.112,0,0,1-.27.149,1.614,1.614,0,0,1-.3.093A1.644,1.644,0,0,1,67.066,80.268Z" fill="#a1d005"/>
      </g>
      <g id="Grupo_10183" data-name="Grupo 10183">
        <path id="Trazado_9603" data-name="Trazado 9603" d="M52.666,70.628H16.915a1.578,1.578,0,0,1-.242-3.146,1.628,1.628,0,0,1,.242,0H52.666a1.577,1.577,0,0,1,0,3.155h0Z" fill="#a1d005"/>
      </g>
      <g id="Grupo_10184" data-name="Grupo 10184">
        <path id="Trazado_9604" data-name="Trazado 9604" d="M16.915,70.628a1.576,1.576,0,0,1-1.113-.464,1.558,1.558,0,0,1-.464-1.113,1.127,1.127,0,0,1,0-.307,1.617,1.617,0,0,1,.083-.3,1.571,1.571,0,0,1,.149-.269,1.219,1.219,0,0,1,.2-.241,1.589,1.589,0,0,1,1.41-.455l.3.093a1.954,1.954,0,0,1,.278.149,1.444,1.444,0,0,1,.232.195,1.191,1.191,0,0,1,.195.241,1.105,1.105,0,0,1,.149.269,1.621,1.621,0,0,1,.092.3,1.564,1.564,0,0,1,0,.306,1.586,1.586,0,0,1-1.577,1.577Z" fill="#149352"/>
      </g>
      <g id="Grupo_10185" data-name="Grupo 10185">
        <path id="Trazado_9605" data-name="Trazado 9605" d="M67.066,70.628H46.746a1.577,1.577,0,0,1,0-3.155h20.32a1.577,1.577,0,1,1,0,3.155Z" fill="#19a500"/>
      </g>
    </g>
    <g id="Grupo_11131" data-name="Grupo 11131">
      <path id="Trazado_10232" data-name="Trazado 10232" d="M68,21.036a28.736,28.736,0,0,1-3.355,29.8" fill="none" stroke="#95a6b1" stroke-linecap="round" stroke-linejoin="round" stroke-width="1.6"/>
      <path id="Trazado_10233" data-name="Trazado 10233" d="M58.351,56.795A28.7,28.7,0,1,1,55.68,7.968" fill="none" stroke="#95a6b1" stroke-linecap="round" stroke-linejoin="round" stroke-width="1.6"/>
      <g id="Grupo_11123" data-name="Grupo 11123">
        <line id="Línea_1709" data-name="Línea 1709" y2="4.199" transform="translate(41.99 4.909)" fill="none" stroke="#95a6b1" stroke-linecap="round" stroke-linejoin="round" stroke-width="1.6"/>
        <line id="Línea_1710" data-name="Línea 1710" y2="4.199" transform="translate(41.99 57.509)" fill="none" stroke="#95a6b1" stroke-linecap="round" stroke-linejoin="round" stroke-width="1.6"/>
      </g>
      <g id="Grupo_11124" data-name="Grupo 11124">
        <line id="Línea_1711" data-name="Línea 1711" x1="4.199" transform="translate(66.19 33.309)" fill="none" stroke="#95a6b1" stroke-linecap="round" stroke-linejoin="round" stroke-width="1.6"/>
        <line id="Línea_1712" data-name="Línea 1712" x1="4.199" transform="translate(13.59 33.309)" fill="none" stroke="#95a6b1" stroke-linecap="round" stroke-linejoin="round" stroke-width="1.6"/>
      </g>
      <g id="Grupo_11125" data-name="Grupo 11125">
        <line id="Línea_1713" data-name="Línea 1713" x1="3.167" y2="2.954" transform="translate(21.908 50.437)" fill="none" stroke="#95a6b1" stroke-linecap="round" stroke-linejoin="round" stroke-width="1.6"/>
      </g>
      <g id="Grupo_11126" data-name="Grupo 11126">
        <line id="Línea_1714" data-name="Línea 1714" x1="3.167" y1="3.097" transform="translate(21.908 13.227)" fill="none" stroke="#95a6b1" stroke-linecap="round" stroke-linejoin="round" stroke-width="1.6"/>
      </g>
      <path id="Trazado_10234" data-name="Trazado 10234" d="M70.218,51.466l-6.691.606-.607-6.7" fill="none" stroke="#95a6b1" stroke-linecap="round" stroke-linejoin="round" stroke-width="1.6"/>
      <g id="Grupo_11130" data-name="Grupo 11130">
        <path id="Trazado_10235" data-name="Trazado 10235" d="M26.48,47.334H58.272s.117-12.475-15.786-12.475C27.137,34.859,26.48,47.334,26.48,47.334Z" fill="none" stroke="#95a6b1" stroke-linecap="round" stroke-linejoin="round" stroke-width="1.6"/>
        <g id="Grupo_11129" data-name="Grupo 11129">
          <g id="Grupo_11127" data-name="Grupo 11127">
            <line id="Línea_1715" data-name="Línea 1715" y1="11.334" transform="translate(49.975 24.439)" fill="none" stroke="#95a6b1" stroke-linecap="round" stroke-linejoin="round" stroke-width="1.6"/>
            <path id="Trazado_10236" data-name="Trazado 10236" d="M52.74,25.763l-2.676,1.95-2.842-1.867" fill="none" stroke="#95a6b1" stroke-linecap="round" stroke-linejoin="round" stroke-width="1.6"/>
            <path id="Trazado_10237" data-name="Trazado 10237" d="M54.846,23.261v-.625a5.066,5.066,0,1,0-10.132,0v.638a3.566,3.566,0,0,0-3.234,3.544v.4A3.579,3.579,0,0,0,45.058,30.8h9.57a3.579,3.579,0,0,0,3.578-3.579v-.4A3.568,3.568,0,0,0,54.846,23.261Z" fill="none" stroke="#95a6b1" stroke-linecap="round" stroke-linejoin="round" stroke-width="1.6"/>
          </g>
          <g id="Grupo_11128" data-name="Grupo 11128">
            <line id="Línea_1716" data-name="Línea 1716" y1="13.847" transform="translate(35.907 21.183)" fill="none" stroke="#95a6b1" stroke-linecap="round" stroke-linejoin="round" stroke-width="1.6"/>
            <path id="Trazado_10238" data-name="Trazado 10238" d="M39.012,22.671l-3.006,2.19-3.192-2.1" fill="none" stroke="#95a6b1" stroke-linecap="round" stroke-linejoin="round" stroke-width="1.6"/>
            <path id="Trazado_10239" data-name="Trazado 10239" d="M44.647,23.046a3.541,3.541,0,0,0-3.27-3.186v-.7a5.69,5.69,0,1,0-11.381,0v.716a4.005,4.005,0,0,0-3.632,3.981v.45a4.019,4.019,0,0,0,4.019,4.02H41.132" fill="none" stroke="#95a6b1" stroke-linecap="round" stroke-linejoin="round" stroke-width="1.6"/>
          </g>
        </g>
      </g>
      <circle id="Elipse_1764" data-name="Elipse 1764" cx="6.002" cy="6.002" r="6.002" transform="translate(57.299 7.207)" fill="none" stroke="#19a500" stroke-miterlimit="10" stroke-width="1.6"/>
    </g>
  </g>
</svg>
