<svg xmlns="http://www.w3.org/2000/svg" width="58.063" height="76.598" viewBox="0 0 58.063 76.598">
  <g id="Grupo_11152" data-name="Grupo 11152" transform="translate(-13.969 -3.67)">
    <g id="Grupo_11154" data-name="Grupo 11154">
      <g id="Grupo_11152-2" data-name="Grupo 11152">
        <g id="Grupo_10179" data-name="Grupo 10179">
          <path id="Trazado_9599" data-name="Trazado 9599" d="M31.232,80.268H16.915a1.577,1.577,0,1,1,0-3.154H31.232a1.577,1.577,0,1,1,0,3.154Z" fill="#19a500"/>
        </g>
        <g id="Grupo_10180" data-name="Grupo 10180">
          <path id="Trazado_9600" data-name="Trazado 9600" d="M39.676,80.268H25.312a1.577,1.577,0,1,1,0-3.154H39.676a1.577,1.577,0,1,1,0,3.154Z" fill="#a1d005"/>
        </g>
        <g id="Grupo_10181" data-name="Grupo 10181">
          <path id="Trazado_9601" data-name="Trazado 9601" d="M56.971,80.268H49.789a1.577,1.577,0,1,1,0-3.154h7.182a1.577,1.577,0,1,1,0,3.154Z" fill="#a1d005"/>
        </g>
        <g id="Grupo_10182" data-name="Grupo 10182">
          <path id="Trazado_9602" data-name="Trazado 9602" d="M67.066,80.268a1.583,1.583,0,0,1-1.577-1.577,1.738,1.738,0,0,1,0-.306,1.55,1.55,0,0,1,.093-.3,1.459,1.459,0,0,1,.139-.269,2.472,2.472,0,0,1,.2-.241,1.539,1.539,0,0,1,1.42-.427,1.617,1.617,0,0,1,.3.083,2.619,2.619,0,0,1,.269.149,1.218,1.218,0,0,1,.241.195,1.558,1.558,0,0,1,.195.241,1.357,1.357,0,0,1,.232.566,1.205,1.205,0,0,1,0,.306,1.56,1.56,0,0,1-.464,1.114,1.665,1.665,0,0,1-.241.194,1.112,1.112,0,0,1-.27.149,1.614,1.614,0,0,1-.3.093A1.644,1.644,0,0,1,67.066,80.268Z" fill="#a1d005"/>
        </g>
        <g id="Grupo_10183" data-name="Grupo 10183">
          <path id="Trazado_9603" data-name="Trazado 9603" d="M52.666,70.628H16.915a1.578,1.578,0,0,1-.242-3.146,1.628,1.628,0,0,1,.242,0H52.666a1.577,1.577,0,0,1,0,3.155h0Z" fill="#a1d005"/>
        </g>
        <g id="Grupo_10184" data-name="Grupo 10184">
          <path id="Trazado_9604" data-name="Trazado 9604" d="M16.915,70.628a1.576,1.576,0,0,1-1.113-.464,1.558,1.558,0,0,1-.464-1.113,1.127,1.127,0,0,1,0-.307,1.617,1.617,0,0,1,.083-.3,1.571,1.571,0,0,1,.149-.269,1.219,1.219,0,0,1,.2-.241,1.589,1.589,0,0,1,1.41-.455l.3.093a1.954,1.954,0,0,1,.278.149,1.444,1.444,0,0,1,.232.195,1.191,1.191,0,0,1,.195.241,1.105,1.105,0,0,1,.149.269,1.621,1.621,0,0,1,.092.3,1.564,1.564,0,0,1,0,.306,1.586,1.586,0,0,1-1.577,1.577Z" fill="#149352"/>
        </g>
        <g id="Grupo_10185" data-name="Grupo 10185">
          <path id="Trazado_9605" data-name="Trazado 9605" d="M67.066,70.628H46.746a1.577,1.577,0,0,1,0-3.155h20.32a1.577,1.577,0,1,1,0,3.155Z" fill="#19a500"/>
        </g>
      </g>
      <g id="Grupo_11153" data-name="Grupo 11153">
        <circle id="Elipse_1780" data-name="Elipse 1780" cx="6.002" cy="6.002" r="6.002" transform="translate(57.793 10.417)" fill="none" stroke="#19a500" stroke-miterlimit="10" stroke-width="1.6"/>
      </g>
    </g>
    <g id="Grupo_11156" data-name="Grupo 11156">
      <path id="Trazado_10279" data-name="Trazado 10279" d="M42.212,4.434S53.129,24.725,53.957,26.382s5.465,9.44.331,17.721c0,0-3.561,6.915-11.637,6.915s-12.767-6.6-12.767-6.6-6.34-7.642.956-19.8Z" fill="none" stroke="#95a6b1" stroke-linecap="round" stroke-linejoin="round" stroke-width="1.528"/>
      <path id="Trazado_10280" data-name="Trazado 10280" d="M46.508,49.758a8.87,8.87,0,0,0,2.973-2.879,8.7,8.7,0,0,0,1.352-5.141c-.165-2.517-1.5-4.78-2.606-7.048s-2.021-4.859-1.293-7.274a14.243,14.243,0,0,0-2.706,8.09,10.129,10.129,0,0,1-3.406-7.083,28,28,0,0,1,.8-8.01c-2.076.727-3.288,2.545-4.433,4.361a41.059,41.059,0,0,0-4.079,8.5,15.739,15.739,0,0,0-1,8.15,12.752,12.752,0,0,0,3.558,6.243,10.6,10.6,0,0,0,5.075,3.114A7.937,7.937,0,0,0,46.508,49.758Z" fill="none" stroke="#95a6b1" stroke-linecap="round" stroke-linejoin="round" stroke-width="1.56"/>
      <path id="Trazado_10281" data-name="Trazado 10281" d="M24.38,53.413c-.079-.077-.012.019-.089-.059" fill="none" stroke="#95a6b1" stroke-linecap="round" stroke-linejoin="round" stroke-width="1.6"/>
      <rect id="Rect치ngulo_4058" data-name="Rect치ngulo 4058" width="3.128" height="10.316" transform="translate(40.436 54.052)" fill="none" stroke="#95a6b1" stroke-linecap="round" stroke-linejoin="round" stroke-width="1.765"/>
      <g id="Grupo_11155" data-name="Grupo 11155">
        <path id="Trazado_10282" data-name="Trazado 10282" d="M43.823,62.352,47.7,62.07A25.169,25.169,0,0,0,69.732,41.614l.238-2.657" fill="none" stroke="#95a6b1" stroke-linecap="round" stroke-linejoin="round" stroke-width="1.6"/>
        <path id="Trazado_10283" data-name="Trazado 10283" d="M55.076,14.012A24.947,24.947,0,0,0,48.812,12.2s-1.557-.1-2.243-.236" fill="none" stroke="#95a6b1" stroke-linecap="round" stroke-linejoin="round" stroke-width="1.6"/>
        <path id="Trazado_10284" data-name="Trazado 10284" d="M66.97,24.823a24.956,24.956,0,0,1,2.608,6.913s.319,2.692.392,3.569" fill="none" stroke="#95a6b1" stroke-linecap="round" stroke-linejoin="round" stroke-width="1.6"/>
        <path id="Trazado_10285" data-name="Trazado 10285" d="M24.083,21.9a20.53,20.53,0,0,1,2.853-2.466" fill="none" stroke="#95a6b1" stroke-linecap="round" stroke-linejoin="round" stroke-width="1.6"/>
        <path id="Trazado_10286" data-name="Trazado 10286" d="M18.33,32.762a20.237,20.237,0,0,1,1.015-3.4" fill="none" stroke="#95a6b1" stroke-linecap="round" stroke-linejoin="round" stroke-width="1.6"/>
        <path id="Trazado_10287" data-name="Trazado 10287" d="M19.381,45.807a19.771,19.771,0,0,1-1.19-4.055" fill="none" stroke="#95a6b1" stroke-linecap="round" stroke-linejoin="round" stroke-width="1.6"/>
        <path id="Trazado_10288" data-name="Trazado 10288" d="M27.751,56.172a21.66,21.66,0,0,1-3.371-2.759" fill="none" stroke="#95a6b1" stroke-linecap="round" stroke-linejoin="round" stroke-width="1.6"/>
        <path id="Trazado_10289" data-name="Trazado 10289" d="M40.261,59.889a22.933,22.933,0,0,1-4.271-.4" fill="none" stroke="#95a6b1" stroke-linecap="round" stroke-linejoin="round" stroke-width="1.6"/>
        <path id="Trazado_10290" data-name="Trazado 10290" d="M32.476,20.6a18.876,18.876,0,0,0,7.746,35.836" fill="none" stroke="#95a6b1" stroke-linecap="round" stroke-linejoin="round" stroke-width="1.6"/>
        <path id="Trazado_10291" data-name="Trazado 10291" d="M43.686,56.31l4.019-.82A19.209,19.209,0,0,0,62.17,41.505a22.407,22.407,0,0,0,.5-2.694" fill="none" stroke="#95a6b1" stroke-linecap="round" stroke-linejoin="round" stroke-width="1.6"/>
        <path id="Trazado_10292" data-name="Trazado 10292" d="M49.864,18.758c.412.069,2.748,1.068,2.748,1.068a19.225,19.225,0,0,1,9.482,11.883,24.089,24.089,0,0,1,.5,3.742" fill="none" stroke="#95a6b1" stroke-linecap="round" stroke-linejoin="round" stroke-width="1.6"/>
        <rect id="Rect치ngulo_4059" data-name="Rect치ngulo 4059" width="3.128" height="10.446" transform="translate(71.231 35.501) rotate(90)" fill="none" stroke="#95a6b1" stroke-linecap="round" stroke-linejoin="round" stroke-width="1.6"/>
        <path id="Trazado_10293" data-name="Trazado 10293" d="M34.882,15.69l-2.643-2.45-5.8,2.579.451,3.546" fill="none" stroke="#95a6b1" stroke-linecap="round" stroke-linejoin="round" stroke-width="1.6"/>
        <path id="Trazado_10294" data-name="Trazado 10294" d="M23.812,21.8l-3.564-.536-3.342,5.4,2.37,2.676" fill="none" stroke="#95a6b1" stroke-linecap="round" stroke-linejoin="round" stroke-width="1.6"/>
        <path id="Trazado_10295" data-name="Trazado 10295" d="M18.087,32.955l-3.313,1.418-.005,6.349,3.423,1.03" fill="none" stroke="#95a6b1" stroke-linecap="round" stroke-linejoin="round" stroke-width="1.6"/>
        <path id="Trazado_10296" data-name="Trazado 10296" d="M19.1,46.163l-2.052,2.963,3.372,5.38,3.446-.947" fill="none" stroke="#95a6b1" stroke-linecap="round" stroke-linejoin="round" stroke-width="1.6"/>
        <path id="Trazado_10297" data-name="Trazado 10297" d="M27.669,56.409l0,3.6L33.5,62.519l2.3-2.74" fill="none" stroke="#95a6b1" stroke-linecap="round" stroke-linejoin="round" stroke-width="1.6"/>
      </g>
    </g>
  </g>
</svg>
