<svg xmlns="http://www.w3.org/2000/svg" width="66.978" height="72.28" viewBox="0 0 66.978 72.28">
  <g id="Grupo_11148" data-name="Grupo 11148" transform="translate(-8.49 -5.839)">
    <g id="Grupo_11150" data-name="Grupo 11150">
      <circle id="Elipse_1779" data-name="Elipse 1779" cx="6.813" cy="6.813" r="6.813" transform="translate(9.29 55.373)" fill="none" stroke="#efef00" stroke-miterlimit="10" stroke-width="1.6"/>
      <path id="Trazado_10270" data-name="Trazado 10270" d="M50.479,54.217a8.5,8.5,0,0,1-17,0" fill="none" stroke="#fff" stroke-linecap="round" stroke-linejoin="round" stroke-width="1.6"/>
      <g id="Grupo_11149" data-name="Grupo 11149">
        <path id="Trazado_10271" data-name="Trazado 10271" d="M67.388,59.161a12.215,12.215,0,0,0-8.6-5.131" fill="none" stroke="#fff" stroke-linecap="round" stroke-linejoin="round" stroke-width="1.6"/>
        <path id="Trazado_10272" data-name="Trazado 10272" d="M14.591,71.882v5.437H69.6V71.958" fill="none" stroke="#fff" stroke-linecap="round" stroke-linejoin="round" stroke-width="1.6"/>
        <path id="Trazado_10273" data-name="Trazado 10273" d="M25.57,54.011a12.189,12.189,0,0,0-3.381.842" fill="none" stroke="#fff" stroke-linecap="round" stroke-linejoin="round" stroke-width="1.6"/>
        <path id="Trazado_10274" data-name="Trazado 10274" d="M46.97,46.332v7.713h3.478l8.318-.015V23.382A16.744,16.744,0,0,0,42.022,6.639h0A16.744,16.744,0,0,0,25.278,23.382V54.089l8.2-.014h3.171V46.332" fill="none" stroke="#fff" stroke-linecap="round" stroke-linejoin="round" stroke-width="1.6"/>
        <path id="Trazado_10275" data-name="Trazado 10275" d="M53.778,29.463V36.4A10.141,10.141,0,0,1,43.637,46.539h-3.23A10.141,10.141,0,0,1,30.266,36.4V29.463q0-.249.012-.495V27.426h6.965s8.746.118,8.746-8.155c0,0,.236,8.036,7.563,8.036Z" fill="none" stroke="#fff" stroke-linecap="round" stroke-linejoin="round" stroke-width="1.6"/>
        <g id="Grupo_11148-2" data-name="Grupo 11148">
          <path id="Trazado_10276" data-name="Trazado 10276" d="M59.122,31.646a31.588,31.588,0,0,1,10.353-4.339s7.42,10.454,4.005,18.933-14.7,7.609-14.7,7.609" fill="none" stroke="#fff" stroke-linecap="round" stroke-linejoin="round" stroke-width="1.6"/>
          <path id="Trazado_10277" data-name="Trazado 10277" d="M57.718,76.348l3.27-5.67,5.452-3.891" fill="none" stroke="#fff" stroke-linecap="round" stroke-linejoin="round" stroke-width="1.6"/>
          <line id="Línea_1719" data-name="Línea 1719" y1="15.965" x2="6.1" transform="translate(59.142 36.825)" fill="none" stroke="#fff" stroke-linecap="round" stroke-linejoin="round" stroke-width="1.6"/>
          <path id="Trazado_10278" data-name="Trazado 10278" d="M63.034,60.922c-4.371,3.349-2.047,9.756-2.047,9.756s6.261,3.389,9.953.56,3.728-11.044,3.728-11.044S67.4,57.573,63.034,60.922Z" fill="none" stroke="#fff" stroke-linecap="round" stroke-linejoin="round" stroke-width="1.6"/>
        </g>
      </g>
    </g>
  </g>
</svg>
