<svg xmlns="http://www.w3.org/2000/svg" width="77.302" height="66.64" viewBox="0 0 77.302 66.64">
  <g id="Grupo_11145" data-name="Grupo 11145" transform="translate(-3.326 -8.655)">
    <g id="Grupo_11146" data-name="Grupo 11146">
      <g id="Grupo_11145-2" data-name="Grupo 11145">
        <path id="Trazado_10264" data-name="Trazado 10264" d="M24.448,15.663c4.034-3.17,8.511-2.066,11.478,1.7A17.488,17.488,0,0,1,51.274,9.488C62.467,10.11,68.393,20,67.069,30.351c0,0,9.818,2.745,7.073,14.252S61.79,53.47,61.79,53.47" fill="none" stroke="#95a6b1" stroke-linecap="round" stroke-linejoin="round" stroke-width="1.6"/>
        <path id="Trazado_10265" data-name="Trazado 10265" d="M16.982,53.4C9.977,51.451,3.45,45.166,4.187,37.41a12.125,12.125,0,0,1,4.17-8.488" fill="none" stroke="#95a6b1" stroke-linecap="round" stroke-linejoin="round" stroke-width="1.6"/>
        <rect id="Rectángulo_4057" data-name="Rectángulo 4057" width="10.356" height="19.952" rx="5.178" transform="translate(35.439 41.109)" fill="none" stroke="#95a6b1" stroke-linecap="round" stroke-linejoin="round" stroke-width="1.6"/>
        <path id="Trazado_10266" data-name="Trazado 10266" d="M31.3,55.883a5.178,5.178,0,0,1-5.178,5.178h0a5.178,5.178,0,0,1-5.178-5.178v-9.6a5.178,5.178,0,0,1,5.178-5.178h0A5.178,5.178,0,0,1,31.3,46.287" fill="none" stroke="#95a6b1" stroke-linecap="round" stroke-linejoin="round" stroke-width="1.6"/>
        <path id="Trazado_10267" data-name="Trazado 10267" d="M50.351,52.776s-.414-4.349,3.728-4.349,3.728,3.665,3.728,3.669c0,3.222-4.349,2.959-6.006,4.339-.414.346-1.588.9-1.588,3.942h7.732" fill="none" stroke="#95a6b1" stroke-linecap="round" stroke-linejoin="round" stroke-width="1.6"/>
        <path id="Trazado_10268" data-name="Trazado 10268" d="M54.708,17.384c3.373.621,5.952,4.89,5.28,10.547" fill="none" stroke="#95a6b1" stroke-linecap="round" stroke-linejoin="round" stroke-width="1.6"/>
        <path id="Trazado_10269" data-name="Trazado 10269" d="M47.684,17.98A3.461,3.461,0,0,1,51.207,16.6" fill="none" stroke="#95a6b1" stroke-linecap="round" stroke-linejoin="round" stroke-width="1.6"/>
        <circle id="Elipse_1773" data-name="Elipse 1773" cx="4.283" cy="4.283" r="4.283" transform="translate(5.258 59.67)" fill="none" stroke="#95a6b1" stroke-linecap="round" stroke-linejoin="round" stroke-width="1.6"/>
        <circle id="Elipse_1774" data-name="Elipse 1774" cx="4.409" cy="4.409" r="4.409" transform="translate(63.957 59.544)" fill="none" stroke="#95a6b1" stroke-linecap="round" stroke-linejoin="round" stroke-width="1.6"/>
        <circle id="Elipse_1775" data-name="Elipse 1775" cx="3.275" cy="3.275" r="3.275" transform="translate(73.278 24.652)" fill="none" stroke="#95a6b1" stroke-linecap="round" stroke-linejoin="round" stroke-width="1.6"/>
        <circle id="Elipse_1776" data-name="Elipse 1776" cx="2.892" cy="2.892" r="2.892" transform="translate(21.184 68.711)" fill="none" stroke="#95a6b1" stroke-linecap="round" stroke-linejoin="round" stroke-width="1.6"/>
        <circle id="Elipse_1777" data-name="Elipse 1777" cx="2.892" cy="2.892" r="2.892" transform="translate(32.942 65.771)" fill="none" stroke="#95a6b1" stroke-linecap="round" stroke-linejoin="round" stroke-width="1.6"/>
      </g>
      <circle id="Elipse_1778" data-name="Elipse 1778" cx="6.813" cy="6.813" r="6.813" transform="translate(11.072 17.028)" fill="none" stroke="#19a500" stroke-miterlimit="10" stroke-width="1.6"/>
    </g>
  </g>
</svg>
