<svg xmlns="http://www.w3.org/2000/svg" width="195.552" height="124.34" viewBox="0 0 195.552 124.34">
  <g id="Grupo_12141" data-name="Grupo 12141" transform="translate(385.099 -933.325)">
    <rect id="Rectángulo_4256" data-name="Rectángulo 4256" width="39.815" height="57.845" transform="translate(-363.203 933.325)" fill="none"/>
    <rect id="Rectángulo_4257" data-name="Rectángulo 4257" width="39.815" height="57.845" transform="translate(-309.9 933.325)" fill="none"/>
    <g id="Grupo_12110" data-name="Grupo 12110">
      <g id="Grupo_12108" data-name="Grupo 12108">
        <g id="Grupo_12106" data-name="Grupo 12106">
          <line id="Línea_1728" data-name="Línea 1728" x1="9.103" transform="translate(-359.569 986.939)" fill="none" stroke="#19a500" stroke-linecap="round" stroke-linejoin="round" stroke-width="2" style="mix-blend-mode: multiply;isolation: isolate"/>
          <line id="Línea_1729" data-name="Línea 1729" x1="9.103" transform="translate(-354.216 986.939)" fill="none" stroke="#a1d005" stroke-linecap="round" stroke-linejoin="round" stroke-width="2" style="mix-blend-mode: multiply;isolation: isolate"/>
          <line id="Línea_1730" data-name="Línea 1730" x1="4.552" transform="translate(-338.698 986.939)" fill="none" stroke="#a1d005" stroke-linecap="round" stroke-linejoin="round" stroke-width="2" style="mix-blend-mode: multiply;isolation: isolate"/>
          <line id="Línea_1731" data-name="Línea 1731" transform="translate(-327.747 986.939)" fill="none" stroke="#a1d005" stroke-linecap="round" stroke-linejoin="round" stroke-width="2" style="mix-blend-mode: multiply;isolation: isolate"/>
        </g>
        <g id="Grupo_12107" data-name="Grupo 12107">
          <line id="Línea_1732" data-name="Línea 1732" x1="22.693" transform="translate(-359.569 980.826)" fill="none" stroke="#a1d005" stroke-linecap="round" stroke-linejoin="round" stroke-width="2" style="mix-blend-mode: multiply;isolation: isolate"/>
          <line id="Línea_1733" data-name="Línea 1733" transform="translate(-359.569 980.826)" fill="none" stroke="#149352" stroke-linecap="round" stroke-linejoin="round" stroke-width="2" style="mix-blend-mode: multiply;isolation: isolate"/>
          <line id="Línea_1734" data-name="Línea 1734" x1="12.879" transform="translate(-340.626 980.826)" fill="none" stroke="#19a500" stroke-linecap="round" stroke-linejoin="round" stroke-width="2" style="mix-blend-mode: multiply;isolation: isolate"/>
        </g>
      </g>
      <g id="Grupo_12109" data-name="Grupo 12109">
        <path id="Trazado_10356" data-name="Trazado 10356" d="M-352.1,943.5a3.67,3.67,0,0,1,.147,2.691,3.679,3.679,0,0,1-1.968,2.2,3.689,3.689,0,0,1-4.888-1.821,3.688,3.688,0,0,1,1.821-4.888A3.688,3.688,0,0,1-352.1,943.5Z" fill="none" stroke="#19a500" stroke-linecap="round" stroke-linejoin="round" stroke-width="1.968"/>
        <rect id="Rectángulo_4258" data-name="Rectángulo 4258" width="6.912" height="3.508" rx="0.547" transform="translate(-347.329 939.587)" fill="none" stroke="#95a6b1" stroke-linecap="round" stroke-linejoin="round" stroke-width="1.968"/>
        <path id="Trazado_10357" data-name="Trazado 10357" d="M-352.962,948.755" fill="none" stroke="#95a6b1" stroke-linecap="round" stroke-linejoin="round" stroke-width="1.968"/>
        <path id="Trazado_10358" data-name="Trazado 10358" d="M-352.962,951.438v1.489h-.918a1.134,1.134,0,0,0-1.134,1.134v.54a1.134,1.134,0,0,0,1.134,1.134h.918v5.454h-.918a1.134,1.134,0,0,0-1.134,1.134v.54A1.134,1.134,0,0,0-353.88,964h.918v7.02h19.332V964h.918a1.134,1.134,0,0,0,1.134-1.134v-.54a1.134,1.134,0,0,0-1.134-1.134h-.918v-5.454h.918a1.134,1.134,0,0,0,1.134-1.134v-.54a1.134,1.134,0,0,0-1.134-1.134h-.918v-6.48h-14.222" fill="none" stroke="#95a6b1" stroke-linecap="round" stroke-linejoin="round" stroke-width="1.968"/>
        <line id="Línea_1735" data-name="Línea 1735" x2="11.848" transform="translate(-349.22 954.022)" fill="none" stroke="#95a6b1" stroke-linecap="round" stroke-linejoin="round" stroke-width="1.968"/>
        <line id="Línea_1736" data-name="Línea 1736" x2="11.848" transform="translate(-349.22 962.248)" fill="none" stroke="#95a6b1" stroke-linecap="round" stroke-linejoin="round" stroke-width="1.968"/>
        <rect id="Rectángulo_4259" data-name="Rectángulo 4259" width="23.436" height="3.352" rx="0.83" transform="translate(-355.014 971.017)" fill="none" stroke="#95a6b1" stroke-linecap="round" stroke-linejoin="round" stroke-width="1.968"/>
        <path id="Trazado_10359" data-name="Trazado 10359" d="M-348.855,943.095h16.448a.829.829,0,0,1,.829.83v1.692a.83.83,0,0,1-.829.83h-16.181" fill="none" stroke="#95a6b1" stroke-linecap="round" stroke-linejoin="round" stroke-width="1.968"/>
      </g>
    </g>
    <g id="Grupo_12115" data-name="Grupo 12115">
      <g id="Grupo_12113" data-name="Grupo 12113">
        <g id="Grupo_12111" data-name="Grupo 12111">
          <line id="Línea_1737" data-name="Línea 1737" x1="9.103" transform="translate(-306.266 986.939)" fill="none" stroke="#19a500" stroke-linecap="round" stroke-linejoin="round" stroke-width="2" style="mix-blend-mode: multiply;isolation: isolate"/>
          <line id="Línea_1738" data-name="Línea 1738" x1="9.103" transform="translate(-300.913 986.939)" fill="none" stroke="#a1d005" stroke-linecap="round" stroke-linejoin="round" stroke-width="2" style="mix-blend-mode: multiply;isolation: isolate"/>
          <line id="Línea_1739" data-name="Línea 1739" x1="4.552" transform="translate(-285.395 986.939)" fill="none" stroke="#a1d005" stroke-linecap="round" stroke-linejoin="round" stroke-width="2" style="mix-blend-mode: multiply;isolation: isolate"/>
          <line id="Línea_1740" data-name="Línea 1740" transform="translate(-274.444 986.939)" fill="none" stroke="#a1d005" stroke-linecap="round" stroke-linejoin="round" stroke-width="2" style="mix-blend-mode: multiply;isolation: isolate"/>
        </g>
        <g id="Grupo_12112" data-name="Grupo 12112">
          <line id="Línea_1741" data-name="Línea 1741" x1="22.693" transform="translate(-306.266 980.826)" fill="none" stroke="#a1d005" stroke-linecap="round" stroke-linejoin="round" stroke-width="2" style="mix-blend-mode: multiply;isolation: isolate"/>
          <line id="Línea_1742" data-name="Línea 1742" transform="translate(-306.266 980.826)" fill="none" stroke="#149352" stroke-linecap="round" stroke-linejoin="round" stroke-width="2" style="mix-blend-mode: multiply;isolation: isolate"/>
          <line id="Línea_1743" data-name="Línea 1743" x1="12.879" transform="translate(-287.323 980.826)" fill="none" stroke="#19a500" stroke-linecap="round" stroke-linejoin="round" stroke-width="2" style="mix-blend-mode: multiply;isolation: isolate"/>
        </g>
      </g>
      <g id="Grupo_12114" data-name="Grupo 12114">
        <rect id="Rectángulo_4260" data-name="Rectángulo 4260" width="6.912" height="3.508" rx="0.547" transform="translate(-294.026 939.587)" fill="none" stroke="#95a6b1" stroke-linecap="round" stroke-linejoin="round" stroke-width="1.968"/>
        <path id="Trazado_10360" data-name="Trazado 10360" d="M-299.659,948.755" fill="none" stroke="#95a6b1" stroke-linecap="round" stroke-linejoin="round" stroke-width="1.968"/>
        <path id="Trazado_10361" data-name="Trazado 10361" d="M-299.659,946.447v6.48h-.918a1.134,1.134,0,0,0-1.134,1.134v.54a1.134,1.134,0,0,0,1.134,1.134h.918v5.454h-.918a1.134,1.134,0,0,0-1.134,1.134v.54A1.134,1.134,0,0,0-300.577,964h.918v7.02h19.332V964h.918a1.134,1.134,0,0,0,1.134-1.134v-.54a1.134,1.134,0,0,0-1.134-1.134h-.918v-5.454h.918a1.134,1.134,0,0,0,1.134-1.134v-.54a1.134,1.134,0,0,0-1.134-1.134h-.918v-6.48h-14.222" fill="none" stroke="#95a6b1" stroke-linecap="round" stroke-linejoin="round" stroke-width="1.968"/>
        <line id="Línea_1744" data-name="Línea 1744" x2="11.848" transform="translate(-295.917 954.022)" fill="none" stroke="#95a6b1" stroke-linecap="round" stroke-linejoin="round" stroke-width="1.968"/>
        <line id="Línea_1745" data-name="Línea 1745" x2="11.848" transform="translate(-295.917 962.248)" fill="none" stroke="#95a6b1" stroke-linecap="round" stroke-linejoin="round" stroke-width="1.968"/>
        <rect id="Rectángulo_4261" data-name="Rectángulo 4261" width="23.436" height="3.352" rx="0.83" transform="translate(-301.711 971.017)" fill="none" stroke="#95a6b1" stroke-linecap="round" stroke-linejoin="round" stroke-width="1.968"/>
        <path id="Trazado_10362" data-name="Trazado 10362" d="M-301.225,943.095H-279.1a.829.829,0,0,1,.829.83v1.692a.83.83,0,0,1-.829.83h-22.121a1.049,1.049,0,0,1-1.049-1.049v-1.254A1.049,1.049,0,0,1-301.225,943.095Z" fill="none" stroke="#95a6b1" stroke-linecap="round" stroke-linejoin="round" stroke-width="1.968"/>
      </g>
    </g>
    <rect id="Rectángulo_4262" data-name="Rectángulo 4262" width="39.815" height="57.845" transform="translate(-259.718 933.325)" fill="none"/>
    <g id="Grupo_12120" data-name="Grupo 12120">
      <g id="Grupo_12118" data-name="Grupo 12118">
        <g id="Grupo_12116" data-name="Grupo 12116">
          <line id="Línea_1746" data-name="Línea 1746" x1="9.103" transform="translate(-256.083 986.939)" fill="none" stroke="#19a500" stroke-linecap="round" stroke-linejoin="round" stroke-width="2" style="mix-blend-mode: multiply;isolation: isolate"/>
          <line id="Línea_1747" data-name="Línea 1747" x1="9.103" transform="translate(-250.73 986.939)" fill="none" stroke="#a1d005" stroke-linecap="round" stroke-linejoin="round" stroke-width="2" style="mix-blend-mode: multiply;isolation: isolate"/>
          <line id="Línea_1748" data-name="Línea 1748" x1="4.552" transform="translate(-235.212 986.939)" fill="none" stroke="#a1d005" stroke-linecap="round" stroke-linejoin="round" stroke-width="2" style="mix-blend-mode: multiply;isolation: isolate"/>
          <line id="Línea_1749" data-name="Línea 1749" transform="translate(-224.261 986.939)" fill="none" stroke="#a1d005" stroke-linecap="round" stroke-linejoin="round" stroke-width="2" style="mix-blend-mode: multiply;isolation: isolate"/>
        </g>
        <g id="Grupo_12117" data-name="Grupo 12117">
          <line id="Línea_1750" data-name="Línea 1750" x1="22.693" transform="translate(-256.083 980.826)" fill="none" stroke="#a1d005" stroke-linecap="round" stroke-linejoin="round" stroke-width="2" style="mix-blend-mode: multiply;isolation: isolate"/>
          <line id="Línea_1751" data-name="Línea 1751" transform="translate(-256.083 980.826)" fill="none" stroke="#149352" stroke-linecap="round" stroke-linejoin="round" stroke-width="2" style="mix-blend-mode: multiply;isolation: isolate"/>
          <line id="Línea_1752" data-name="Línea 1752" x1="12.879" transform="translate(-237.14 980.826)" fill="none" stroke="#19a500" stroke-linecap="round" stroke-linejoin="round" stroke-width="2" style="mix-blend-mode: multiply;isolation: isolate"/>
        </g>
      </g>
      <g id="Grupo_12119" data-name="Grupo 12119">
        <rect id="Rectángulo_4263" data-name="Rectángulo 4263" width="6.912" height="3.508" rx="0.547" transform="translate(-243.844 939.587)" fill="none" stroke="#95a6b1" stroke-linecap="round" stroke-linejoin="round" stroke-width="1.968"/>
        <path id="Trazado_10363" data-name="Trazado 10363" d="M-249.476,948.755" fill="none" stroke="#95a6b1" stroke-linecap="round" stroke-linejoin="round" stroke-width="1.968"/>
        <path id="Trazado_10364" data-name="Trazado 10364" d="M-249.476,946.447v6.48h-.918a1.134,1.134,0,0,0-1.134,1.134v.54a1.134,1.134,0,0,0,1.134,1.134h.918v5.454h-.918a1.134,1.134,0,0,0-1.134,1.134v.54A1.134,1.134,0,0,0-250.394,964h.918v7.02h19.332V964h.918a1.134,1.134,0,0,0,1.134-1.134v-.54a1.134,1.134,0,0,0-1.134-1.134h-.918v-5.454h.918a1.134,1.134,0,0,0,1.134-1.134v-.54a1.134,1.134,0,0,0-1.134-1.134h-.918v-6.48h-14.223" fill="none" stroke="#95a6b1" stroke-linecap="round" stroke-linejoin="round" stroke-width="1.968"/>
        <line id="Línea_1753" data-name="Línea 1753" x2="11.848" transform="translate(-245.734 954.022)" fill="none" stroke="#95a6b1" stroke-linecap="round" stroke-linejoin="round" stroke-width="1.968"/>
        <line id="Línea_1754" data-name="Línea 1754" x2="11.848" transform="translate(-245.734 962.248)" fill="none" stroke="#95a6b1" stroke-linecap="round" stroke-linejoin="round" stroke-width="1.968"/>
        <rect id="Rectángulo_4264" data-name="Rectángulo 4264" width="23.436" height="3.352" rx="0.83" transform="translate(-251.528 971.017)" fill="none" stroke="#95a6b1" stroke-linecap="round" stroke-linejoin="round" stroke-width="1.968"/>
        <path id="Trazado_10365" data-name="Trazado 10365" d="M-251.042,943.095h22.12a.83.83,0,0,1,.83.83v1.692a.831.831,0,0,1-.83.83h-22.12a1.049,1.049,0,0,1-1.049-1.049v-1.254A1.048,1.048,0,0,1-251.042,943.095Z" fill="none" stroke="#95a6b1" stroke-linecap="round" stroke-linejoin="round" stroke-width="1.968"/>
      </g>
    </g>
    <rect id="Rectángulo_4265" data-name="Rectángulo 4265" width="39.815" height="57.845" transform="translate(-385.099 999.821)" fill="none"/>
    <rect id="Rectángulo_4266" data-name="Rectángulo 4266" width="39.815" height="57.845" transform="translate(-331.796 999.821)" fill="none"/>
    <g id="Grupo_12125" data-name="Grupo 12125">
      <g id="Grupo_12123" data-name="Grupo 12123">
        <g id="Grupo_12121" data-name="Grupo 12121">
          <line id="Línea_1755" data-name="Línea 1755" x1="9.103" transform="translate(-381.464 1053.434)" fill="none" stroke="#19a500" stroke-linecap="round" stroke-linejoin="round" stroke-width="2" style="mix-blend-mode: multiply;isolation: isolate"/>
          <line id="Línea_1756" data-name="Línea 1756" x1="9.103" transform="translate(-376.111 1053.434)" fill="none" stroke="#a1d005" stroke-linecap="round" stroke-linejoin="round" stroke-width="2" style="mix-blend-mode: multiply;isolation: isolate"/>
          <line id="Línea_1757" data-name="Línea 1757" x1="4.552" transform="translate(-360.593 1053.434)" fill="none" stroke="#a1d005" stroke-linecap="round" stroke-linejoin="round" stroke-width="2" style="mix-blend-mode: multiply;isolation: isolate"/>
          <line id="Línea_1758" data-name="Línea 1758" transform="translate(-349.642 1053.434)" fill="none" stroke="#a1d005" stroke-linecap="round" stroke-linejoin="round" stroke-width="2" style="mix-blend-mode: multiply;isolation: isolate"/>
        </g>
        <g id="Grupo_12122" data-name="Grupo 12122">
          <line id="Línea_1759" data-name="Línea 1759" x1="22.693" transform="translate(-381.464 1047.321)" fill="none" stroke="#a1d005" stroke-linecap="round" stroke-linejoin="round" stroke-width="2" style="mix-blend-mode: multiply;isolation: isolate"/>
          <line id="Línea_1760" data-name="Línea 1760" transform="translate(-381.464 1047.321)" fill="none" stroke="#149352" stroke-linecap="round" stroke-linejoin="round" stroke-width="2" style="mix-blend-mode: multiply;isolation: isolate"/>
          <line id="Línea_1761" data-name="Línea 1761" x1="12.879" transform="translate(-362.521 1047.321)" fill="none" stroke="#19a500" stroke-linecap="round" stroke-linejoin="round" stroke-width="2" style="mix-blend-mode: multiply;isolation: isolate"/>
        </g>
      </g>
      <g id="Grupo_12124" data-name="Grupo 12124">
        <path id="Trazado_10366" data-name="Trazado 10366" d="M-373.991,1009.992a3.677,3.677,0,0,1,.148,2.692,3.678,3.678,0,0,1-1.969,2.2,3.688,3.688,0,0,1-4.888-1.821,3.689,3.689,0,0,1,1.821-4.888A3.688,3.688,0,0,1-373.991,1009.992Z" fill="none" stroke="#19a500" stroke-linecap="round" stroke-linejoin="round" stroke-width="1.968"/>
        <rect id="Rectángulo_4267" data-name="Rectángulo 4267" width="6.912" height="3.508" rx="0.547" transform="translate(-369.225 1006.082)" fill="none" stroke="#95a6b1" stroke-linecap="round" stroke-linejoin="round" stroke-width="1.968"/>
        <path id="Trazado_10367" data-name="Trazado 10367" d="M-374.857,1015.25" fill="none" stroke="#95a6b1" stroke-linecap="round" stroke-linejoin="round" stroke-width="1.968"/>
        <path id="Trazado_10368" data-name="Trazado 10368" d="M-374.857,1017.933v1.489h-.918a1.134,1.134,0,0,0-1.134,1.134v.54a1.133,1.133,0,0,0,1.134,1.134h.918v5.454h-.918a1.134,1.134,0,0,0-1.134,1.134v.54a1.133,1.133,0,0,0,1.134,1.134h.918v7.02h19.332v-7.02h.918a1.134,1.134,0,0,0,1.134-1.134v-.54a1.134,1.134,0,0,0-1.134-1.134h-.918v-5.454h.918a1.134,1.134,0,0,0,1.134-1.134v-.54a1.134,1.134,0,0,0-1.134-1.134h-.918v-6.48h-14.223" fill="none" stroke="#95a6b1" stroke-linecap="round" stroke-linejoin="round" stroke-width="1.968"/>
        <line id="Línea_1762" data-name="Línea 1762" x2="11.848" transform="translate(-371.115 1020.517)" fill="none" stroke="#95a6b1" stroke-linecap="round" stroke-linejoin="round" stroke-width="1.968"/>
        <line id="Línea_1763" data-name="Línea 1763" x2="11.848" transform="translate(-371.115 1028.743)" fill="none" stroke="#95a6b1" stroke-linecap="round" stroke-linejoin="round" stroke-width="1.968"/>
        <rect id="Rectángulo_4268" data-name="Rectángulo 4268" width="23.436" height="3.352" rx="0.83" transform="translate(-376.909 1037.512)" fill="none" stroke="#95a6b1" stroke-linecap="round" stroke-linejoin="round" stroke-width="1.968"/>
        <path id="Trazado_10369" data-name="Trazado 10369" d="M-370.751,1009.59H-354.3a.83.83,0,0,1,.83.83v1.692a.83.83,0,0,1-.83.83h-16.181" fill="none" stroke="#95a6b1" stroke-linecap="round" stroke-linejoin="round" stroke-width="1.968"/>
      </g>
    </g>
    <g id="Grupo_12130" data-name="Grupo 12130" transform="translate(-2.07)">
      <g id="Grupo_12128" data-name="Grupo 12128">
        <g id="Grupo_12126" data-name="Grupo 12126">
          <line id="Línea_1764" data-name="Línea 1764" x1="9.103" transform="translate(-328.161 1053.434)" fill="none" stroke="#19a500" stroke-linecap="round" stroke-linejoin="round" stroke-width="2" style="mix-blend-mode: multiply;isolation: isolate"/>
          <line id="Línea_1765" data-name="Línea 1765" x1="9.103" transform="translate(-322.808 1053.434)" fill="none" stroke="#a1d005" stroke-linecap="round" stroke-linejoin="round" stroke-width="2" style="mix-blend-mode: multiply;isolation: isolate"/>
          <line id="Línea_1766" data-name="Línea 1766" x1="4.552" transform="translate(-307.29 1053.434)" fill="none" stroke="#a1d005" stroke-linecap="round" stroke-linejoin="round" stroke-width="2" style="mix-blend-mode: multiply;isolation: isolate"/>
          <line id="Línea_1767" data-name="Línea 1767" transform="translate(-296.339 1053.434)" fill="none" stroke="#a1d005" stroke-linecap="round" stroke-linejoin="round" stroke-width="2" style="mix-blend-mode: multiply;isolation: isolate"/>
        </g>
        <g id="Grupo_12127" data-name="Grupo 12127">
          <line id="Línea_1768" data-name="Línea 1768" x1="22.693" transform="translate(-328.161 1047.321)" fill="none" stroke="#a1d005" stroke-linecap="round" stroke-linejoin="round" stroke-width="2" style="mix-blend-mode: multiply;isolation: isolate"/>
          <line id="Línea_1769" data-name="Línea 1769" transform="translate(-328.161 1047.321)" fill="none" stroke="#149352" stroke-linecap="round" stroke-linejoin="round" stroke-width="2" style="mix-blend-mode: multiply;isolation: isolate"/>
          <line id="Línea_1770" data-name="Línea 1770" x1="12.879" transform="translate(-309.218 1047.321)" fill="none" stroke="#19a500" stroke-linecap="round" stroke-linejoin="round" stroke-width="2" style="mix-blend-mode: multiply;isolation: isolate"/>
        </g>
      </g>
      <g id="Grupo_12129" data-name="Grupo 12129">
        <rect id="Rectángulo_4269" data-name="Rectángulo 4269" width="6.912" height="3.508" rx="0.547" transform="translate(-315.922 1006.082)" fill="none" stroke="#95a6b1" stroke-linecap="round" stroke-linejoin="round" stroke-width="1.968"/>
        <path id="Trazado_10370" data-name="Trazado 10370" d="M-321.554,1015.25" fill="none" stroke="#95a6b1" stroke-linecap="round" stroke-linejoin="round" stroke-width="1.968"/>
        <path id="Trazado_10371" data-name="Trazado 10371" d="M-321.554,1012.942v6.48h-.918a1.134,1.134,0,0,0-1.134,1.134v.54a1.133,1.133,0,0,0,1.134,1.134h.918v5.454h-.918a1.134,1.134,0,0,0-1.134,1.134v.54a1.133,1.133,0,0,0,1.134,1.134h.918v7.02h19.332v-7.02h.918a1.134,1.134,0,0,0,1.134-1.134v-.54a1.134,1.134,0,0,0-1.134-1.134h-.918v-5.454h.918a1.134,1.134,0,0,0,1.134-1.134v-.54a1.134,1.134,0,0,0-1.134-1.134h-.918v-6.48h-14.223" fill="none" stroke="#95a6b1" stroke-linecap="round" stroke-linejoin="round" stroke-width="1.968"/>
        <line id="Línea_1771" data-name="Línea 1771" x2="11.848" transform="translate(-317.812 1020.517)" fill="none" stroke="#95a6b1" stroke-linecap="round" stroke-linejoin="round" stroke-width="1.968"/>
        <line id="Línea_1772" data-name="Línea 1772" x2="11.848" transform="translate(-317.812 1028.743)" fill="none" stroke="#95a6b1" stroke-linecap="round" stroke-linejoin="round" stroke-width="1.968"/>
        <rect id="Rectángulo_4270" data-name="Rectángulo 4270" width="23.436" height="3.352" rx="0.83" transform="translate(-323.606 1037.512)" fill="none" stroke="#95a6b1" stroke-linecap="round" stroke-linejoin="round" stroke-width="1.968"/>
        <path id="Trazado_10372" data-name="Trazado 10372" d="M-323.121,1009.59H-301a.83.83,0,0,1,.83.83v1.692a.83.83,0,0,1-.83.83h-22.121a1.048,1.048,0,0,1-1.048-1.049v-1.254A1.049,1.049,0,0,1-323.121,1009.59Z" fill="none" stroke="#95a6b1" stroke-linecap="round" stroke-linejoin="round" stroke-width="1.968"/>
      </g>
    </g>
    <rect id="Rectángulo_4271" data-name="Rectángulo 4271" width="39.815" height="57.845" transform="translate(-229.361 999.821)" fill="none"/>
    <g id="Grupo_12135" data-name="Grupo 12135">
      <g id="Grupo_12133" data-name="Grupo 12133">
        <g id="Grupo_12131" data-name="Grupo 12131">
          <line id="Línea_1773" data-name="Línea 1773" x1="9.103" transform="translate(-225.727 1053.434)" fill="none" stroke="#19a500" stroke-linecap="round" stroke-linejoin="round" stroke-width="2" style="mix-blend-mode: multiply;isolation: isolate"/>
          <line id="Línea_1774" data-name="Línea 1774" x1="9.103" transform="translate(-220.374 1053.434)" fill="none" stroke="#a1d005" stroke-linecap="round" stroke-linejoin="round" stroke-width="2" style="mix-blend-mode: multiply;isolation: isolate"/>
          <line id="Línea_1775" data-name="Línea 1775" x1="4.552" transform="translate(-204.856 1053.434)" fill="none" stroke="#a1d005" stroke-linecap="round" stroke-linejoin="round" stroke-width="2" style="mix-blend-mode: multiply;isolation: isolate"/>
          <line id="Línea_1776" data-name="Línea 1776" transform="translate(-193.905 1053.434)" fill="none" stroke="#a1d005" stroke-linecap="round" stroke-linejoin="round" stroke-width="2" style="mix-blend-mode: multiply;isolation: isolate"/>
        </g>
        <g id="Grupo_12132" data-name="Grupo 12132">
          <line id="Línea_1777" data-name="Línea 1777" x1="22.693" transform="translate(-225.727 1047.321)" fill="none" stroke="#a1d005" stroke-linecap="round" stroke-linejoin="round" stroke-width="2" style="mix-blend-mode: multiply;isolation: isolate"/>
          <line id="Línea_1778" data-name="Línea 1778" transform="translate(-225.727 1047.321)" fill="none" stroke="#149352" stroke-linecap="round" stroke-linejoin="round" stroke-width="2" style="mix-blend-mode: multiply;isolation: isolate"/>
          <line id="Línea_1779" data-name="Línea 1779" x1="12.879" transform="translate(-206.784 1047.321)" fill="none" stroke="#19a500" stroke-linecap="round" stroke-linejoin="round" stroke-width="2" style="mix-blend-mode: multiply;isolation: isolate"/>
        </g>
      </g>
      <g id="Grupo_12134" data-name="Grupo 12134">
        <rect id="Rectángulo_4272" data-name="Rectángulo 4272" width="6.912" height="3.508" rx="0.547" transform="translate(-213.488 1006.082)" fill="none" stroke="#95a6b1" stroke-linecap="round" stroke-linejoin="round" stroke-width="1.968"/>
        <path id="Trazado_10373" data-name="Trazado 10373" d="M-219.12,1015.25" fill="none" stroke="#95a6b1" stroke-linecap="round" stroke-linejoin="round" stroke-width="1.968"/>
        <path id="Trazado_10374" data-name="Trazado 10374" d="M-219.12,1012.942v6.48h-.918a1.134,1.134,0,0,0-1.134,1.134v.54a1.134,1.134,0,0,0,1.134,1.134h.918v5.454h-.918a1.134,1.134,0,0,0-1.134,1.134v.54a1.134,1.134,0,0,0,1.134,1.134h.918v7.02h19.332v-7.02h.918a1.134,1.134,0,0,0,1.134-1.134v-.54a1.134,1.134,0,0,0-1.134-1.134h-.918v-5.454h.918a1.134,1.134,0,0,0,1.134-1.134v-.54a1.134,1.134,0,0,0-1.134-1.134h-.918v-6.48H-214.01" fill="none" stroke="#95a6b1" stroke-linecap="round" stroke-linejoin="round" stroke-width="1.968"/>
        <line id="Línea_1780" data-name="Línea 1780" x2="11.848" transform="translate(-215.378 1020.517)" fill="none" stroke="#95a6b1" stroke-linecap="round" stroke-linejoin="round" stroke-width="1.968"/>
        <line id="Línea_1781" data-name="Línea 1781" x2="11.848" transform="translate(-215.378 1028.743)" fill="none" stroke="#95a6b1" stroke-linecap="round" stroke-linejoin="round" stroke-width="1.968"/>
        <rect id="Rectángulo_4273" data-name="Rectángulo 4273" width="23.436" height="3.352" rx="0.83" transform="translate(-221.172 1037.512)" fill="none" stroke="#95a6b1" stroke-linecap="round" stroke-linejoin="round" stroke-width="1.968"/>
        <path id="Trazado_10375" data-name="Trazado 10375" d="M-220.686,1009.59h22.12a.83.83,0,0,1,.83.83v1.692a.83.83,0,0,1-.83.83h-22.12a1.048,1.048,0,0,1-1.049-1.049v-1.254A1.049,1.049,0,0,1-220.686,1009.59Z" fill="none" stroke="#95a6b1" stroke-linecap="round" stroke-linejoin="round" stroke-width="1.968"/>
      </g>
    </g>
    <rect id="Rectángulo_4274" data-name="Rectángulo 4274" width="39.815" height="57.845" transform="translate(-281.613 999.821)" fill="none"/>
    <g id="Grupo_12140" data-name="Grupo 12140">
      <g id="Grupo_12138" data-name="Grupo 12138">
        <g id="Grupo_12136" data-name="Grupo 12136">
          <line id="Línea_1782" data-name="Línea 1782" x1="9.103" transform="translate(-277.979 1053.434)" fill="none" stroke="#19a500" stroke-linecap="round" stroke-linejoin="round" stroke-width="2" style="mix-blend-mode: multiply;isolation: isolate"/>
          <line id="Línea_1783" data-name="Línea 1783" x1="9.103" transform="translate(-272.626 1053.434)" fill="none" stroke="#a1d005" stroke-linecap="round" stroke-linejoin="round" stroke-width="2" style="mix-blend-mode: multiply;isolation: isolate"/>
          <line id="Línea_1784" data-name="Línea 1784" x1="4.552" transform="translate(-257.108 1053.434)" fill="none" stroke="#a1d005" stroke-linecap="round" stroke-linejoin="round" stroke-width="2" style="mix-blend-mode: multiply;isolation: isolate"/>
          <line id="Línea_1785" data-name="Línea 1785" transform="translate(-246.157 1053.434)" fill="none" stroke="#a1d005" stroke-linecap="round" stroke-linejoin="round" stroke-width="2" style="mix-blend-mode: multiply;isolation: isolate"/>
        </g>
        <g id="Grupo_12137" data-name="Grupo 12137">
          <line id="Línea_1786" data-name="Línea 1786" x1="22.693" transform="translate(-277.979 1047.321)" fill="none" stroke="#a1d005" stroke-linecap="round" stroke-linejoin="round" stroke-width="2" style="mix-blend-mode: multiply;isolation: isolate"/>
          <line id="Línea_1787" data-name="Línea 1787" transform="translate(-277.979 1047.321)" fill="none" stroke="#149352" stroke-linecap="round" stroke-linejoin="round" stroke-width="2" style="mix-blend-mode: multiply;isolation: isolate"/>
          <line id="Línea_1788" data-name="Línea 1788" x1="12.879" transform="translate(-259.036 1047.321)" fill="none" stroke="#19a500" stroke-linecap="round" stroke-linejoin="round" stroke-width="2" style="mix-blend-mode: multiply;isolation: isolate"/>
        </g>
      </g>
      <g id="Grupo_12139" data-name="Grupo 12139">
        <rect id="Rectángulo_4275" data-name="Rectángulo 4275" width="6.912" height="3.508" rx="0.547" transform="translate(-265.739 1006.082)" fill="none" stroke="#95a6b1" stroke-linecap="round" stroke-linejoin="round" stroke-width="1.968"/>
        <path id="Trazado_10376" data-name="Trazado 10376" d="M-271.372,1015.25" fill="none" stroke="#95a6b1" stroke-linecap="round" stroke-linejoin="round" stroke-width="1.968"/>
        <path id="Trazado_10377" data-name="Trazado 10377" d="M-271.372,1012.942v6.48h-.918a1.134,1.134,0,0,0-1.134,1.134v.54a1.134,1.134,0,0,0,1.134,1.134h.918v5.454h-.918a1.134,1.134,0,0,0-1.134,1.134v.54a1.134,1.134,0,0,0,1.134,1.134h.918v7.02h19.332v-7.02h.918a1.133,1.133,0,0,0,1.134-1.134v-.54a1.134,1.134,0,0,0-1.134-1.134h-.918v-5.454h.918a1.133,1.133,0,0,0,1.134-1.134v-.54a1.134,1.134,0,0,0-1.134-1.134h-.918v-6.48h-14.222" fill="none" stroke="#95a6b1" stroke-linecap="round" stroke-linejoin="round" stroke-width="1.968"/>
        <line id="Línea_1789" data-name="Línea 1789" x2="11.848" transform="translate(-267.63 1020.517)" fill="none" stroke="#95a6b1" stroke-linecap="round" stroke-linejoin="round" stroke-width="1.968"/>
        <line id="Línea_1790" data-name="Línea 1790" x2="11.848" transform="translate(-267.63 1028.743)" fill="none" stroke="#95a6b1" stroke-linecap="round" stroke-linejoin="round" stroke-width="1.968"/>
        <rect id="Rectángulo_4276" data-name="Rectángulo 4276" width="23.436" height="3.352" rx="0.83" transform="translate(-273.424 1037.512)" fill="none" stroke="#95a6b1" stroke-linecap="round" stroke-linejoin="round" stroke-width="1.968"/>
        <path id="Trazado_10378" data-name="Trazado 10378" d="M-272.938,1009.59h22.12a.83.83,0,0,1,.83.83v1.692a.829.829,0,0,1-.83.83h-22.12a1.049,1.049,0,0,1-1.049-1.049v-1.254A1.049,1.049,0,0,1-272.938,1009.59Z" fill="none" stroke="#95a6b1" stroke-linecap="round" stroke-linejoin="round" stroke-width="1.968"/>
      </g>
    </g>
  </g>
</svg>
