<?xml version="1.0" encoding="utf-8"?>
<!-- Generator: Adobe Illustrator 24.0.2, SVG Export Plug-In . SVG Version: 6.00 Build 0)  -->
<svg version="1.1" id="Layer_1" xmlns="http://www.w3.org/2000/svg" xmlns:xlink="http://www.w3.org/1999/xlink" x="0px" y="0px"
	 viewBox="0 0 380 250" style="enable-background:new 0 0 380 250;" xml:space="preserve">
<style type="text/css">
	.st0{fill:#DFE4E8;stroke:#FFFFFF;stroke-width:0.51;stroke-miterlimit:10;}
	.st1{fill:none;stroke:#CAD2D8;stroke-width:1.02;stroke-miterlimit:10;}
	.st2{fill:none;stroke:#FFE600;stroke-width:1.52;stroke-linecap:round;stroke-linejoin:round;}
	.st3{fill:#29A337;}
	.st4{fill:none;stroke:#AAB8C1;stroke-width:1.76;stroke-linecap:round;stroke-linejoin:round;stroke-dasharray:0,3.52;}
	.st5{fill:#B5C1C8;}
	.st6{font-family:'Roboto-Bold';}
	.st7{font-size:10.31px;}
	.st8{fill:#385C6B;}
	.st9{font-size:12.08px;}
	.st10{fill:none;stroke:#95A6B1;stroke-width:0.88;stroke-linecap:round;stroke-linejoin:round;}
	.st11{fill:#93A4AF;}
	.st12{fill:#FFFFFF;stroke:#95A6B1;stroke-width:0.88;stroke-linecap:round;stroke-linejoin:round;}
</style>
<title>Artboard 1</title>
<g>
	<g id="Layer_1_1_">
		<polygon class="st0" points="84.4,175.2 84,176.9 82.3,177.5 80.7,181.2 77.9,181.9 76.5,184.3 76.5,184.3 76.2,184.9 73.4,184.9 
			73.4,181.5 65.6,177.8 65.6,176.7 60.9,175.7 56.5,173.5 55.2,166.8 54.2,166.8 54.2,164.5 54.2,162.7 55.2,162.1 55.1,158.7 
			55.8,156.8 56.8,156.1 55.4,154.4 54.1,152.7 60.2,145.3 63,146.1 63.2,149 65.4,148.5 65.6,151.6 67.4,151.9 68.5,149.6 
			70.6,150.8 70.6,155.3 78.3,161.7 78.3,165.4 79.2,167.7 81,167.7 81.3,172.5 		"/>
		<path class="st0" d="M125.7,207.5l-7.2,10.6l-7.6,0.6v-3.2l-2.9,0.4l-10.1-0.2l-3.4,5.1l-3.6-0.9v-2l-1.5-1.5h-4v-4.9l0.9-0.9
			v-2.1l-2.8-2.8h-2.3l-4.3-5.3l1.2-1.2V197l-1.3-0.8v-5.3l-1.7-1.9l2.1-1.1v-1.7l-0.7-1.9l0,0l1.4-2.4l2.8-0.7l1.6-3.7l1.7-0.6
			l0.4-1.7l-3.1-2.7l-0.3-4.8h-1.8l-0.9-2.3v-3.7l-7.7-6.4v-4.5l-2.1-1.2l-1.1,2.3l-1.8-0.3l-0.2-3.1l-2.2,0.5l-0.2-2.9l-2.8-0.8
			l2.7-3.2l-2-1.7v-4.5H62l0.2-1.8h6.3c0,0,1.3,2.6,1.6,2.5l3.1-0.3l1.3-1.2v-3h5l1.3,2.6l-1.7,4.3v3.4l7,8.7h6.6l2.2,1.7h4l2,2.7
			l-0.6,3.4l4.6,1.6l2.4,2.6v2h-3.9l-5.7,3.1h-6.4v1.5l3.9,2.6l1,4.7l3.1,3v9.2l2.7,3.8v3.6l5.8,6.1h3.2l1.8,1.7h4.6l1.8,1.8v2.9
			h2.1L125.7,207.5z"/>
		<polygon class="st0" points="118.4,144.3 118.9,149.8 115,150.2 113.9,151.9 110.5,152.3 107,147.9 104.3,148.3 103.6,150.2 
			108,156.4 108.6,159.2 110.5,159.2 112.5,160.2 112.3,162 114.1,164 116.1,164.6 115.8,166.7 113.3,167.1 111.4,166.3 
			110.7,165.1 107.3,165.1 107.3,163.1 104.9,160.5 100.3,158.9 100.9,155.5 98.9,152.8 94.9,152.8 92.7,151.1 86.1,151.1 
			79.1,142.4 79.1,139 80.8,134.7 79.5,132.1 76.1,132.1 76.9,129.9 76.9,127.8 80.2,125.6 81.9,124.5 82.5,122.1 92.5,113.2 
			99.3,113.5 100.7,118.6 104,122.8 106.2,122.3 108.7,125.1 113,125.1 112.9,128.8 117.2,135.7 115.2,140.3 117.3,141.2 
			117.3,144.3 		"/>
		<path class="st1" d="M373.3,44.6l-16,20.6c-0.2,0.2-0.3,0.4-0.3,0.7v10c0,0.4-0.2,0.7-0.5,0.9l-24.6,14.5
			c-0.2,0.2-0.4,0.2-0.7,0.2l-10.1-1.8c-0.3-0.1-0.6,0-0.8,0.2c-3.3,2.4-28.5,21.1-28.8,21l-4.5-0.4c-0.5-0.1-1,0.3-1.1,0.9
			c0,0.1,0,0.1,0,0.2l0.5,7.2c0.1,0.3-0.1,0.7-0.3,0.9l-20.2,16.9c-0.3,0.2-0.7,0.3-1,0.2l-2.7-0.7c-0.5-0.1-1.1,0.2-1.3,0.7
			l-5,14.6c0,0.2-0.1,0.3-0.3,0.4l-19.7,15.7c-0.2,0.2-0.5,0.3-0.8,0.2l-6.2-0.8l-0.7,0.2L207,181.6l-0.6,0.2h-7.6
			c-0.3,0-0.5,0-0.7,0.2l-15.6,11.6l-0.6,0.2h-7.3c-0.3,0-0.6,0.2-0.7,0.4l-16.3,17.7c-0.2,0.3-0.5,0.4-0.8,0.4h-8.2
			c-0.4,0-0.7-0.2-0.9-0.5l-3.4-4.7c-0.2-0.3-0.5-0.5-0.9-0.4l-17,0.8c-0.3,0-0.7,0.2-0.8,0.5l-6.6,9.8c-0.2,0.2-0.5,0.4-0.8,0.4
			l-5.9,0.5c-0.5,0.1-1.1-0.2-1.2-0.8c0-0.1,0-0.1,0-0.2v-0.9c0-0.6-0.4-1-1-1c-0.1,0-0.1,0-0.2,0l-1.7,0.2h-0.1l-9.5-0.2
			c-0.4-0.1-0.7,0.1-0.9,0.4l-2.7,4.2c-0.2,0.3-0.5,0.5-0.8,0.5l-14.1,1.2c-0.5,0-1-0.3-1.1-0.8l-1.2-5.2c-0.1-0.4-0.3-0.7-0.7-0.8
			l-3.7-1.2c-0.4-0.1-0.7-0.4-0.7-0.8l-0.7-4l-0.4-0.6l-16.1-12.6c-0.2-0.2-0.3-0.4-0.4-0.6l-1.1-4.8l-0.2-0.4L45.2,180
			c-0.1-0.2-0.2-0.5-0.2-0.7v-2.4c0-0.5,0.3-0.9,0.7-1l0,0c0.6-0.2,0.9-0.9,0.6-1.4c0,0,0-0.1,0-0.1l-2.3-4.2
			c-0.2-0.3-0.2-0.7-0.1-1l2.6-5.1c0.1-0.1,0.1-0.2,0.1-0.4l1-11.4c0-0.6,0.4-1,1-1c0.1,0,0.2,0,0.3,0l4.6,1.3
			c0.4,0.1,0.8,0,1.1-0.3l7.8-9.4c0.4-0.4,0.3-1-0.1-1.4l-6.7-6c-0.5-0.4-0.5-1.1-0.1-1.5c0,0,0,0,0-0.1l3.7-3.5
			c0.2-0.1,0.3-0.3,0.3-0.5l3.9-15.8c0.1-0.3,0.3-0.6,0.6-0.7l7.2-3.3c0.4-0.1,0.9-0.1,1.2,0.2l3.8,3.6c0.2,0.2,0.3,0.5,0.3,0.8v0.8
			c0,0.5,0.3,1,0.8,1.1l2.8,0.6c0.3,0.1,0.6,0.3,0.7,0.6l1.3,3c0.2,0.6,0.9,0.8,1.5,0.6c0.1,0,0.2-0.1,0.2-0.2l20.3-18.1h0.2
			l7.3-10.7c0.3-0.5,0.9-0.7,1.4-0.4c0.1,0,0.2,0.1,0.2,0.2l7.4,6.9c0.5,0.4,1.2,0.4,1.6-0.1c0.1-0.1,0.2-0.3,0.2-0.5l2.8-13.6
			c0.1-0.4-0.1-0.8-0.4-1l-0.8-0.7c-0.4-0.4-0.5-1.1-0.1-1.5l3.6-3.7c0.4-0.4,0.4-1.1,0-1.5l-8.9-10c-0.3-0.3-0.7-0.4-1.1-0.3
			l-2.4,0.9c-0.3,0.1-0.7,0-1-0.2l-6.3-4.6c-0.5-0.3-0.6-0.9-0.2-1.4c0.1-0.1,0.2-0.2,0.3-0.3l6.7-3.8c0.2-0.1,0.4-0.3,0.5-0.5
			l3.2-8c0.2-0.3,0.1-0.7-0.1-1l-2.2-3.4c-0.3-0.5-0.2-1.1,0.3-1.4c0,0,0,0,0,0l3.4-2.4c0.3-0.2,0.5-0.6,0.5-1l-0.2-1.4
			c-0.1-0.5-0.5-0.9-1-0.9h-4.8c-0.5-0.1-0.8-0.4-1-0.8l-2-8.4c-0.1-0.1-0.1-0.3,0-0.4l1.7-8c0.1-0.3,0.4-0.6,0.7-0.7l2.8-1.1
			c0.6-0.2,1.1,0.1,1.4,0.6l2.8,8.2c0.2,0.4,0.6,0.7,1,0.7h1.6c0.5,0,0.8,0.3,0.9,0.8l2,7.4c0.1,0.4,0.4,0.7,0.8,0.8l6.3,1
			c0.2,0,0.4,0.1,0.6,0.3l3.1,3.6c0.3,0.3,0.8,0.4,1.2,0.2l21.3-10.8h0.9l2.3,1.2c0.2,0.1,0.5,0.1,0.7,0l27.7-6.8
			c0.3-0.1,0.7,0,0.9,0.2l4.2,3.4c0.3,0.2,0.7,0.3,1.1,0.2l18.1-6.9c0.4-0.2,0.9,0,1.2,0.4l1,1.6c0.2,0.4,0.7,0.6,1.2,0.5l17.7-4.2
			c0-0.1,0.1-0.1,0.2-0.1h16.1c0.3,0,0.6,0.2,0.8,0.4l3.6,4.1c0.2,0.3,0.5,0.4,0.8,0.4h37.2l22.3-9.3h6.4l0.6,0.2l4.4,3.2
			c0.2,0.1,0.5,0.2,0.8,0.1l9.9-1.6c0.3-0.1,0.6,0,0.8,0.2l26.6,18.4c0.3,0.2,0.5,0.5,0.5,0.8v3.3c0,0.4,0.2,0.8,0.6,1l5,2.3
			C373.5,43.5,373.6,44.1,373.3,44.6C373.3,44.6,373.3,44.6,373.3,44.6z"/>
		
			<image style="overflow:visible;opacity:0.3;enable-background:new    ;" width="45" height="45" xlink:href="C275714B6852689D.png"  transform="matrix(1 0 0 1 55.4 126.4)">
		</image>
		<polyline class="st2" points="94,131.9 92.2,137 89.1,139.7 86,142.6 82,145.1 77.9,152.4 73.1,157.1 71.4,160.8 67.2,162.7 
			62.6,164.7 61,164.7 		"/>
		
			<image style="overflow:visible;opacity:0.3;enable-background:new    ;" width="19" height="29" xlink:href="C275714B6852689F.png"  transform="matrix(1 0 0 1 48.4 142.4)">
		</image>
		<polyline class="st2" points="54.5,148.3 56.5,150.2 58.3,155.9 61.1,164.9 		"/>
		<circle class="st3" cx="93.9" cy="131.4" r="2.4"/>
		<circle class="st3" cx="77.8" cy="152.9" r="2.4"/>
		<circle class="st3" cx="61.1" cy="165.1" r="2.4"/>
		<line class="st4" x1="61.7" y1="211.3" x2="38" y2="234.5"/>
		<text transform="matrix(1 0 0 1 7.9 125.1001)" class="st5 st6 st7">B</text>
		<text transform="matrix(1 0 0 1 14.1 125.1001)" class="st5 st6 st7">O</text>
		<text transform="matrix(1 0 0 1 20.5 125.1001)" class="st5 st6 st7">Y</text>
		<text transform="matrix(1 0 0 1 26.2 125.1001)" class="st5 st6 st7">A</text>
		<text transform="matrix(1 0 0 1 32.3 125.1001)" class="st5 st6 st7">CÁ</text>
		<text transform="matrix(1 0 0 1 312.4 125.1001)" class="st5 st6 st7">VIC</text>
		<text transform="matrix(1 0 0 1 329.8 125.1001)" class="st5 st6 st7">H</text>
		<text transform="matrix(1 0 0 1 336.6 125.1001)" class="st5 st6 st7">A</text>
		<text transform="matrix(1 0 0 1 342.8 125.1001)" class="st5 st6 st7">D</text>
		<text transform="matrix(1 0 0 1 349 125.1001)" class="st5 st6 st7">A</text>
		<text transform="matrix(1 0 0 1 179.3 77.3999)" class="st8 st6 st9">CASA</text>
		<text transform="matrix(1 0 0 1 211.6431 77.3999)" class="st8 st6 st9">N</text>
		<text transform="matrix(1 0 0 1 220.0835 77.3999)" class="st8 st6 st9">ARE</text>
		<text transform="matrix(1 0 0 1 195.4 211.2998)" class="st5 st6 st7">ME</text>
		<text transform="matrix(1 0 0 1 211.2128 211.2998)" class="st5 st6 st7">T</text>
		<text transform="matrix(1 0 0 1 217.3129 211.2998)" class="st5 st6 st7">A</text>
		<circle class="st10" cx="208.9" cy="121.2" r="17.8"/>
		<path class="st11" d="M209.6,97.6l-1.8-3.3v3.3c0,0.3-0.4,0.5-0.8,0.5c-0.3,0-0.8-0.2-0.8-0.5v-6c0-0.3,0.3-0.5,0.8-0.5
			c0.5,0,0.8,0,1.1,0.8l1.5,2.8v-3.1c0-0.3,0.4-0.5,0.8-0.5c0.3,0,0.8,0.1,0.8,0.5v6c0,0.3-0.3,0.5-0.8,0.5
			C210,98.1,209.7,97.9,209.6,97.6z"/>
		<path class="st11" d="M234.1,119.8h1.3c0.2,0,0.4,0.2,0.4,0.4v0c0,0.3,0,0.6-0.4,0.6h-1.3v1.7h2.5c0.3,0,0.5,0.3,0.5,0.6
			c0,0.3-0.2,0.6-0.5,0.6h-3.3c-0.5,0-0.8-0.2-0.8-0.5v-5.9c0-0.5,0.3-0.6,0.8-0.6h3.3c0.3,0,0.5,0.5,0.5,0.8s-0.2,0.6-0.5,0.6h-2.5
			V119.8z"/>
		<path class="st11" d="M209.9,149.7c0-1.2-3-0.9-3-3.2s1.2-2.4,2.4-2.4c1.2,0,2,0.6,2,1.2s-0.2,0.9-0.6,0.9s-0.6-0.4-1.3-0.4
			s-1.1,0.2-0.9,0.6c0.2,0.4,3,0.8,3,3.2c0,1.2-0.9,2.1-2.1,2.1c-0.1,0-0.2,0-0.3,0c-1.2,0-2.2-0.6-2.2-1.2c0-0.6,0.3-0.9,0.6-0.9
			c0.3,0,0.8,0.8,1.7,0.8S209.9,150.1,209.9,149.7z"/>
		<path class="st11" d="M184.3,123.6c-0.2,0.3-0.5,0.5-0.9,0.5c-0.4,0-0.8-0.1-1-0.5l-0.5-2.2l-0.5,2.2c-0.2,0.3-0.5,0.5-0.9,0.5
			c-0.4,0-0.8-0.1-1.1-0.5l-1.8-5.8h-0.1c0-0.5,0.6-0.6,1.1-0.6c0.4,0,0.4,0,0.4,0.3l1.3,4.8l0.8-3.1c0.3-0.4,0.8-0.5,1.2-0.3
			c0.1,0.1,0.2,0.2,0.3,0.3l0.8,3.1l1.3-4.8c0.2-0.3,0.3-0.3,0.6-0.3s0.9,0.2,0.9,0.6l0,0L184.3,123.6z"/>
		<polygon class="st12" points="204.4,116.7 208.6,99.9 213.4,116.6 230.2,120.9 213.5,125.6 209.2,142.4 204.5,125.7 187.7,121.4 
					"/>
		<polyline class="st10" points="205,127.5 199.5,130.7 202.6,125.2 		"/>
		<polyline class="st10" points="212.9,114.8 218.4,111.6 215.3,117.1 		"/>
		<polyline class="st10" points="215.3,125.1 218.5,130.6 213,127.5 		"/>
		<polyline class="st10" points="202.6,117.2 199.4,111.7 204.8,114.8 		"/>
	</g>
</g>
</svg>
