<?xml version="1.0" encoding="utf-8"?>
<!-- Generator: Adobe Illustrator 24.0.2, SVG Export Plug-In . SVG Version: 6.00 Build 0)  -->
<svg version="1.1" id="Layer_1" xmlns="http://www.w3.org/2000/svg" xmlns:xlink="http://www.w3.org/1999/xlink" x="0px" y="0px"
	 viewBox="0 0 32 32" style="enable-background:new 0 0 32 32;" xml:space="preserve">
<style type="text/css">
	.st0{fill:#FFFFFF;}
	.st1{fill:none;}
</style>
<g id="Group_3196" transform="translate(5396 -429)">
	<g id="Group_3195" transform="translate(0.89 1.744)">
		<g id="Path_2683">
			<path class="st0" d="M-5368.5,456.5h-22.8c-1.6,0-2.9-1.3-2.9-2.9v-13.4c0-0.4,0.4-0.8,0.8-0.8s0.8,0.4,0.8,0.8v13.4
				c0,0.7,0.6,1.3,1.3,1.3h22.8c0.7,0,1.3-0.6,1.3-1.3v-19.5h-19c-0.4,0-0.8-0.4-0.8-0.8s0.4-0.8,0.8-0.8h19.8
				c0.4,0,0.8,0.4,0.8,0.8v20.3C-5365.7,455.2-5366.9,456.5-5368.5,456.5z"/>
		</g>
		<g id="Line_76">
			<path class="st0" d="M-5366.4,438.1h-19.6c-0.4,0-0.8-0.4-0.8-0.8s0.4-0.8,0.8-0.8h19.6c0.4,0,0.8,0.4,0.8,0.8
				S-5366,438.1-5366.4,438.1z"/>
		</g>
		<g id="Line_432">
			<path class="st0" d="M-5383.6,435.7c-0.4,0-0.8-0.4-0.8-0.8v-3.7c0-0.4,0.4-0.8,0.8-0.8s0.8,0.4,0.8,0.8v3.7
				C-5382.8,435.4-5383.2,435.7-5383.6,435.7z"/>
		</g>
		<g id="Line_433">
			<path class="st0" d="M-5379.7,435.7c-0.4,0-0.8-0.4-0.8-0.8v-3.7c0-0.4,0.4-0.8,0.8-0.8s0.8,0.4,0.8,0.8v3.7
				C-5378.9,435.4-5379.2,435.7-5379.7,435.7z"/>
		</g>
		<g id="Line_434">
			<path class="st0" d="M-5375.9,435.7c-0.4,0-0.8-0.4-0.8-0.8v-3.7c0-0.4,0.4-0.8,0.8-0.8s0.8,0.4,0.8,0.8v3.7
				C-5375.1,435.4-5375.5,435.7-5375.9,435.7z"/>
		</g>
		<g id="Line_435">
			<path class="st0" d="M-5371.9,435.7c-0.4,0-0.8-0.4-0.8-0.8v-3.7c0-0.4,0.4-0.8,0.8-0.8s0.8,0.4,0.8,0.8v3.7
				C-5371.1,435.4-5371.5,435.7-5371.9,435.7z"/>
		</g>
		<g id="Path_274">
			<path class="st0" d="M-5391.9,438.1c-2.1,0-3.8-1.7-3.8-3.8s1.7-3.8,3.8-3.8c0,0,0,0,0,0c1,0,1.9,0.4,2.7,1.1
				c0.7,0.7,1.1,1.7,1.1,2.7c0,0,0,0,0,0C-5388.1,436.4-5389.8,438.1-5391.9,438.1z M-5391.9,432.1
				C-5391.9,432.1-5391.9,432.1-5391.9,432.1c-1.2,0-2.2,1-2.2,2.2s1,2.2,2.2,2.2s2.2-1,2.2-2.2v0c0-0.6-0.2-1.1-0.7-1.6
				C-5390.7,432.3-5391.3,432.1-5391.9,432.1z"/>
		</g>
		<g id="Line_436">
			<path class="st0" d="M-5378.5,443.6h-2.3c-0.4,0-0.8-0.4-0.8-0.8s0.4-0.8,0.8-0.8h2.3c0.4,0,0.8,0.4,0.8,0.8
				S-5378.1,443.6-5378.5,443.6z"/>
		</g>
		<g id="Line_437">
			<path class="st0" d="M-5371.3,443.6h-2.3c-0.4,0-0.8-0.4-0.8-0.8s0.4-0.8,0.8-0.8h2.3c0.4,0,0.8,0.4,0.8,0.8
				S-5370.8,443.6-5371.3,443.6z"/>
		</g>
		<g id="Line_438">
			<path class="st0" d="M-5385.6,447.5h-2.3c-0.4,0-0.8-0.4-0.8-0.8s0.4-0.8,0.8-0.8h2.3c0.4,0,0.8,0.4,0.8,0.8
				S-5385.2,447.5-5385.6,447.5z"/>
		</g>
		<g id="Line_439">
			<path class="st0" d="M-5378.5,447.5h-2.3c-0.4,0-0.8-0.4-0.8-0.8s0.4-0.8,0.8-0.8h2.3c0.4,0,0.8,0.4,0.8,0.8
				S-5378.1,447.5-5378.5,447.5z"/>
		</g>
		<g id="Line_440">
			<path class="st0" d="M-5371.3,447.5h-2.3c-0.4,0-0.8-0.4-0.8-0.8s0.4-0.8,0.8-0.8h2.3c0.4,0,0.8,0.4,0.8,0.8
				S-5370.8,447.5-5371.3,447.5z"/>
		</g>
		<g id="Line_441">
			<path class="st0" d="M-5385.6,452h-2.3c-0.4,0-0.8-0.4-0.8-0.8s0.4-0.8,0.8-0.8h2.3c0.4,0,0.8,0.4,0.8,0.8
				S-5385.2,452-5385.6,452z"/>
		</g>
		<g id="Line_442">
			<path class="st0" d="M-5378.5,452h-2.3c-0.4,0-0.8-0.4-0.8-0.8s0.4-0.8,0.8-0.8h2.3c0.4,0,0.8,0.4,0.8,0.8
				S-5378.1,452-5378.5,452z"/>
		</g>
	</g>
	<g id="Rectangle_1199">
		<rect x="-5396" y="429" class="st1" width="32" height="32"/>
	</g>
</g>
</svg>
