<svg xmlns="http://www.w3.org/2000/svg" width="28" height="24" viewBox="0 0 28 24">
  <g id="Group_10968" data-name="Group 10968" transform="translate(-305 -767)">
    <rect id="Rectangle_3080" width="28" height="24" transform="translate(305 767)" fill="none"/>
    <g id="Group_9237" transform="translate(309.514 767.902)">
      <g id="Line_1748">
        <path id="Path_9106" data-name="Path 9106" d="M13.7,6.9H8.2a.789.789,0,0,1-.8-.8.736.736,0,0,1,.8-.8h5.5a.8.8,0,0,1,0,1.6Z" fill="#95a6b1"/>
      </g>
      <g id="Line_1749">
        <path id="Path_9107" data-name="Path 9107" d="M13.7,9.7H8.2A.684.684,0,0,1,7.5,9a.789.789,0,0,1,.8-.8h5.5a.789.789,0,0,1,.8.8C14.6,9.5,14.1,9.7,13.7,9.7Z" fill="#95a6b1"/>
      </g>
      <g id="Group_9236">
        <g id="Group_9235">
          <g id="Line_1750">
            <path id="Path_9108" data-name="Path 9108" d="M1.3,20.3a.789.789,0,0,1-.8-.8V16a.789.789,0,0,1,.8-.8.736.736,0,0,1,.8.8v3.5A.736.736,0,0,1,1.3,20.3Z" fill="#95a6b1"/>
          </g>
          <g id="Path_7657">
            <path id="Path_9109" data-name="Path 9109" d="M1.3,16.8A.789.789,0,0,1,.5,16V6.3a.789.789,0,0,1,.8-.8H4.4a.789.789,0,0,1,.8.8.709.709,0,0,1-.8.7H2.1v9A.736.736,0,0,1,1.3,16.8Z" fill="#95a6b1"/>
          </g>
          <g id="Line_1751">
            <path id="Path_9110" data-name="Path 9110" d="M1.3,20.3a1.421,1.421,0,0,1-.6-.2A.713.713,0,0,1,.8,19l4.3-3.9a.792.792,0,0,1,1.1.1.713.713,0,0,1-.1,1.1L1.8,20.2A4.331,4.331,0,0,1,1.3,20.3Z" fill="#95a6b1"/>
          </g>
          <g id="Path_7658">
            <path id="Path_9111" data-name="Path 9111" d="M10.7,16.4h-5a.789.789,0,0,1-.8-.8.736.736,0,0,1,.8-.8h5.1a2.865,2.865,0,0,0,2.6-1.7.762.762,0,0,1,1.4.6A4.447,4.447,0,0,1,10.7,16.4Z" fill="#95a6b1"/>
          </g>
          <g id="Path_7659">
            <path id="Path_9112" data-name="Path 9112" d="M17.5,17.1a.789.789,0,0,1-.8-.8V3.7H4.6a.789.789,0,0,1-.8-.8.736.736,0,0,1,.8-.8h13a.789.789,0,0,1,.8.8V16.3A.948.948,0,0,1,17.5,17.1Z" fill="#95a6b1"/>
          </g>
          <g id="Line_1752">
            <path id="Path_9113" data-name="Path 9113" d="M17.5,17.1a.764.764,0,0,1-.5-.2L12.7,13a.909.909,0,0,1-.1-1.1.909.909,0,0,1,1.1-.1L18,15.7a.909.909,0,0,1,.1,1.1A.6.6,0,0,1,17.5,17.1Z" fill="#95a6b1"/>
          </g>
          <g id="Path_7660">
            <path id="Path_9114" data-name="Path 9114" d="M13.2,13.3h-5A4.268,4.268,0,0,1,3.9,9V3a.789.789,0,0,1,.8-.8.736.736,0,0,1,.8.8V9a2.8,2.8,0,0,0,2.8,2.8h5.1a.789.789,0,0,1,.8.8C14.2,13.1,13.6,13.3,13.2,13.3Z" fill="#95a6b1"/>
          </g>
        </g>
      </g>
    </g>
  </g>
</svg>
