<svg xmlns="http://www.w3.org/2000/svg" width="21.6" height="17.938" viewBox="0 0 21.6 17.938">
  <path id="Trazado_9115" data-name="Trazado 9115" d="M24.3,10.6a2.094,2.094,0,0,0-2-2.1H16.1l.7-1.3a3.033,3.033,0,0,0-.3-3.3,1.205,1.205,0,0,0-.5-.5,2.1,2.1,0,0,0-2.9.6L9.8,9H8.6V8.7a.789.789,0,0,0-.8-.8H3.5a.789.789,0,0,0-.8.8V20.2a.789.789,0,0,0,.8.8H7.9a.789.789,0,0,0,.8-.8v-.4h1.6l2.9.7h6.4a2.006,2.006,0,0,0,2-2,1.884,1.884,0,0,0-.2-.8,2.062,2.062,0,0,0,1.1-1.8,2.353,2.353,0,0,0-.2-.8,1.93,1.93,0,0,0,.9-2.6A2.367,2.367,0,0,0,24.3,10.6ZM7.1,19.4H4.2V9.4H7.1ZM19.4,19H13.3l-2.9-.7H8.6V10.4h1.7a.6.6,0,0,0,.6-.3l3.5-5.3a.663.663,0,0,1,.7-.2.1.1,0,0,1,.1.1,1.669,1.669,0,0,1,.1,1.8L14.5,8a1.183,1.183,0,0,0-.1,1,1.337,1.337,0,0,0,.7.8c.2.1.4.1.6.2h6.4c.3,0,.5.2.5.6s-.2.5-.5.5H20.7a.789.789,0,0,0-.8.8.736.736,0,0,0,.8.8h.5a.472.472,0,0,1,.5.5.56.56,0,0,1-.5.6H19.1a.789.789,0,0,0-.8.8h0a.789.789,0,0,0,.8.8h1.1a.5.5,0,0,1,0,1H18.1a.789.789,0,0,0-.8.8h0a.789.789,0,0,0,.8.8h1.2a.472.472,0,0,1,.5.5C19.8,18.8,19.7,19,19.4,19Z" transform="translate(-2.7 -3.063)" fill="#95a6b1"/>
</svg>
