<svg xmlns="http://www.w3.org/2000/svg" width="101.996" height="45.463" viewBox="0 0 101.996 45.463">
  <g id="Grupo_17440" data-name="Grupo 17440" transform="translate(-4947.967 -3555.76)">
    <g id="Grupo_14518" data-name="Grupo 14518" transform="translate(4947.967 3565.746)">
      <path id="Trazado_12403" data-name="Trazado 12403" d="M4954.57,3582.288a6.6,6.6,0,1,1,6.6-6.6A6.611,6.611,0,0,1,4954.57,3582.288Zm0-9.656a3.053,3.053,0,1,0,3.053,3.053A3.056,3.056,0,0,0,4954.57,3572.632Z" transform="translate(-4947.967 -3569.082)" fill="#a1d005"/>
    </g>
    <g id="Grupo_14519" data-name="Grupo 14519" transform="translate(4964.304 3555.76)">
      <path id="Trazado_12404" data-name="Trazado 12404" d="M5002.575,3592.533c.49,3.734,3.734,6.428,9,6.428,2.756,0,6.367-1.041,8.082-2.816l4.775,4.714c-3.184,3.306-8.388,4.9-12.979,4.9-10.407,0-16.591-6.428-16.591-16.1,0-9.184,6.245-15.8,16.041-15.8,10.1,0,16.407,6.245,15.244,18.673Zm16.407-6.183c-.489-3.918-3.551-5.878-7.836-5.878-4.041,0-7.347,1.959-8.449,5.878Z" transform="translate(-4976.049 -3560.293)" fill="#019e00"/>
      <path id="Trazado_12405" data-name="Trazado 12405" d="M5073.1,3555.76v44.668h-6.979l-.489-4.164c-2.327,3.612-6.062,4.837-9.735,4.837-8.876,0-15.55-5.877-15.55-15.8,0-10.407,6.55-15.8,15.367-15.8,3.183,0,8.142,1.714,9.918,4.837v-12.376a6.211,6.211,0,0,1,6.211-6.212Zm-25.285,29.546a8.665,8.665,0,1,0,17.326,0,8.613,8.613,0,0,0-8.754-8.815C5051.61,3576.49,5047.814,3579.857,5047.814,3585.306Z" transform="translate(-4987.44 -3555.76)" fill="#019e00"/>
      <path id="Trazado_12406" data-name="Trazado 12406" d="M4991.119,3576.562q.43-.432.889-.829a12.3,12.3,0,0,0-6.266-1.709c-3.062,0-6.184.551-8.51,4.285l-.551-3.49h-6.918V3605h1.984a5.486,5.486,0,0,0,5.485-5.485v-10.433c0-5.571,3.612-7.652,7.53-7.652a8.445,8.445,0,0,1,2.812.416A16.835,16.835,0,0,1,4991.119,3576.562Z" transform="translate(-4969.763 -3560.334)" fill="#019e00"/>
    </g>
  </g>
</svg>
