<svg xmlns="http://www.w3.org/2000/svg" width="47" height="47" viewBox="0 0 47 47">
  <g id="Group_10571" data-name="Group 10571" transform="translate(-23 -74)">
    <g id="Group_10040" data-name="Group 10040" transform="translate(6155 4216.165)">
      <path id="Path_131" data-name="Path 131" d="M1308.54,1969.562a3.971,3.971,0,1,1,3.971-3.971A3.958,3.958,0,0,1,1308.54,1969.562Z" transform="translate(-7430.57 -6088.888)" fill="none" stroke="#fff" stroke-linecap="round" stroke-linejoin="round" stroke-width="2"/>
      <g id="Group_181" data-name="Group 181" transform="translate(-7430.57 -6088.888)">
        <path id="Path_132" data-name="Path 132" d="M1315.191,1966.7h3.723l5.357-8.1a1.966,1.966,0,0,1,3.219-.086h0a3.717,3.717,0,0,1,.322,3.9l-1.2,2.353a.923.923,0,0,0,.822,1.344h9.759a2,2,0,0,1,2,1.994h0a1.994,1.994,0,0,1-2,1.994h-3.918" fill="none" stroke="#fff" stroke-linecap="round" stroke-linejoin="round" stroke-width="2"/>
        <path id="Path_133" data-name="Path 133" d="M1332.8,1970.108h3.011a1.994,1.994,0,0,1,1.994,1.995h0a1.994,1.994,0,0,1-1.994,1.994h-5.42" fill="none" stroke="#fff" stroke-linecap="round" stroke-linejoin="round" stroke-width="2"/>
        <path id="Path_134" data-name="Path 134" d="M1330.394,1974.1h3.918a2,2,0,0,1,1.995,1.994h0a1.994,1.994,0,0,1-1.995,1.994h-5.45" fill="none" stroke="#fff" stroke-linecap="round" stroke-linejoin="round" stroke-width="2"/>
        <path id="Path_135" data-name="Path 135" d="M1328.862,1978.085h4.387a2,2,0,0,1,1.994,1.995h0a1.994,1.994,0,0,1-1.994,1.994h-9.831l-4.5-1.045h-3.723" fill="none" stroke="#fff" stroke-linecap="round" stroke-linejoin="round" stroke-width="2"/>
        <path id="Path_136" data-name="Path 136" d="M1315.191,1965.137v17.58h-6.651V1972.1" fill="none" stroke="#fff" stroke-linecap="round" stroke-linejoin="round" stroke-width="2"/>
      </g>
    </g>
    <rect id="Rectangle_3746" data-name="Rectangle 3746" width="47" height="47" transform="translate(23 74)" fill="none"/>
  </g>
</svg>
