<?xml version="1.0" encoding="utf-8"?>
<!-- Generator: Adobe Illustrator 24.0.2, SVG Export Plug-In . SVG Version: 6.00 Build 0)  -->
<svg version="1.1" id="Layer_1" xmlns="http://www.w3.org/2000/svg" xmlns:xlink="http://www.w3.org/1999/xlink" x="0px" y="0px"
	 width="47px" height="47px" viewBox="0 0 47 47" style="enable-background:new 0 0 47 47;" xml:space="preserve">
<style type="text/css">
	.st0{fill:#FFFFFF;}
	.st1{fill:none;}
</style>
<g id="Group_10571" transform="translate(-23 -74)">
	<g id="Group_10040" transform="translate(6155 4216.165)">
		<g id="Path_131">
			<path class="st0" d="M-6122.7-4118.3L-6122.7-4118.3c-2.8,0-5-2.2-5-5s2.2-5,5-5s5,2.2,5,5
				C-6117.7-4120.6-6120-4118.3-6122.7-4118.3z M-6122.7-4126.3c-1.6,0-3,1.3-3,3s1.3,3,3,3l0,0c1.6,0,3-1.3,2.9-3
				C-6119.8-4124.9-6121.1-4126.3-6122.7-4126.3z"/>
		</g>
		<path class="st0" d="M-6090.4-4120.8c0-1.6-1.4-3-3-3h-9.6l1.1-2.3c0.8-1.6,0.7-3.5-0.4-4.9c-0.2-0.3-0.5-0.5-0.7-0.7
			c-1.4-0.9-3.2-0.5-4.1,0.8l-5.1,7.7h-2.2v-0.6c0-0.6-0.4-1-1-1s-1,0.4-1,1v16.6h-4.7v-7.6c0-0.6-0.4-1-1-1s-1,0.4-1,1v8.6
			c0,0.6,0.4,1,1,1h6.7c0.6,0,1-0.4,1-1v-0.7h2.6l4.4,1c0.1,0,0.2,0,0.2,0h9.8c1.7,0,3-1.3,3-3c0-0.5-0.1-1-0.4-1.4
			c0.9-0.5,1.5-1.5,1.5-2.6c0-0.4-0.1-0.9-0.3-1.3c1.1-0.5,1.8-1.5,1.8-2.7c0-0.5-0.1-0.9-0.3-1.3
			C-6091.1-4118.6-6090.4-4119.6-6090.4-4120.8z M-6097.3-4107.8h-9.7l-4.4-1c-0.1,0-0.1,0-0.2,0h-2.7v-12.3h2.7
			c0.3,0,0.6-0.2,0.8-0.4l5.4-8.1c0.3-0.4,0.9-0.6,1.3-0.3c0.1,0.1,0.2,0.1,0.2,0.2c0.6,0.8,0.7,1.9,0.2,2.9l-1.2,2.4
			c-0.5,0.9-0.1,2.1,0.8,2.6c0.3,0.1,0.6,0.2,0.9,0.2h9.8c0.5,0,1,0.4,1,1c0,0.5-0.4,1-1,1h-3.9l0,0h-0.4c-0.6,0-1,0.4-1,1
			s0.4,1,1,1h3c0.5,0,1,0.4,1,1c0,0.5-0.4,1-1,1h-5.4c-0.6,0-1,0.4-1,1c0,0.3,0.1,0.5,0.3,0.7c0.2,0.2,0.4,0.3,0.7,0.3h3.9
			c0.5,0,1,0.4,1,1c0,0.5-0.4,1-1,1h-1l0,0h-4.4c-0.6,0-1,0.4-1,1l0,0l0,0c0,0.6,0.4,1,1,1h4.4c0.5,0,1,0.5,1,1
			C-6096.3-4108.3-6096.8-4107.8-6097.3-4107.8z"/>
	</g>
	<g id="Rectangle_3746">
		<rect x="23" y="74" class="st1" width="47" height="47"/>
	</g>
</g>
</svg>
