<?xml version="1.0" encoding="utf-8"?>
<!-- Generator: Adobe Illustrator 24.0.2, SVG Export Plug-In . SVG Version: 6.00 Build 0)  -->
<svg version="1.1" xmlns="http://www.w3.org/2000/svg" xmlns:xlink="http://www.w3.org/1999/xlink" x="0px" y="0px"
	 viewBox="0 0 60 60" style="enable-background:new 0 0 60 60;" xml:space="preserve">
<style type="text/css">
	.st0{fill:#19A500;}
	.st1{fill:none;}
	.st2{fill:none;stroke:#EFEF00;stroke-width:1.2;stroke-miterlimit:10;}
	.st3{fill:none;stroke:#FFFFFF;stroke-width:1.2;stroke-linecap:round;stroke-linejoin:round;stroke-miterlimit:10;}
	.st4{fill:none;stroke:#FFFFFF;stroke-width:1.0518;stroke-linecap:round;stroke-linejoin:round;stroke-miterlimit:10;}
	.st5{fill:none;stroke:#FFFFFF;stroke-width:1.1048;stroke-linecap:round;stroke-linejoin:round;stroke-miterlimit:10;}
</style>
<g id="Capa_2">
</g>
<g id="Capa_1">
	<g>
		<g>
			<g>
				<path id="Rectángulo_3799_66_" class="st0" d="M30,0L30,0c16.57,0,30,13.43,30,30v0c0,16.57-13.43,30-30,30h0
					C13.43,60,0,46.57,0,30v0C0,13.43,13.43,0,30,0z"/>
			</g>
		</g>
		<g>
			<g>
				<rect id="Rectángulo_3799_65_" class="st1" width="60" height="60"/>
			</g>
		</g>
		<g>
			<g>
				<g>
					<circle class="st2" cx="40.53" cy="17.43" r="3.86"/>
				</g>
			</g>
			<g>
				<path class="st3" d="M44.38,21.82c0.38,0.84,0.66,1.74,0.82,2.68h1.2c4.15,0,7.55,3.92,7.55,8.08v0.47
					c0,4.15-3.4,8.55-7.55,8.55"/>
				<path class="st3" d="M22.17,41.6H11.76c-2.79,0-5.71-3.16-5.71-6.71c0-4.21,2.87-6.71,5.71-6.71h1.94
					c1.17-2.49,3.69-4.22,6.61-4.22h2.91c1.13-5.01,5.59-8.75,10.94-8.75c0.28,0,0.55,0.01,0.83,0.03"/>
				<g>
					<path class="st3" d="M24.91,20.21c-1.32-2.43-3.89-4.08-6.85-4.08c-4.31,0-7.8,3.49-7.8,7.8c0,1.49,0.42,2.88,1.14,4.06"/>
					<line class="st3" x1="17.93" y1="14.78" x2="17.93" y2="12.03"/>
					<line class="st3" x1="9.36" y1="22.96" x2="6.61" y2="22.96"/>
					<line class="st3" x1="11.23" y1="17.4" x2="9.29" y2="15.46"/>
					<line class="st3" x1="24.17" y1="17.4" x2="26.12" y2="15.46"/>
				</g>
				<g>
					<path class="st3" d="M36.96,41.61h4.48c1.62,0,2.94,1.31,2.94,2.94c0,1.62-1.31,2.94-2.94,2.94c0,0-1.93,0.15-2.81-1.64"/>
					<path class="st3" d="M28.94,43.76h4.54c1.16,0,2.1,0.94,2.1,2.1s-0.94,2.1-2.1,2.1c0,0-1.38,0.11-2.01-1.17"/>
					<path class="st3" d="M25.05,41.61h7.48c1.62,0,2.94-1.31,2.94-2.94c0-1.62-1.31-2.94-2.94-2.94c0,0-1.93-0.15-2.81,1.64"/>
				</g>
			</g>
		</g>
	</g>
</g>
</svg>
