<?xml version="1.0" encoding="utf-8"?>
<!-- Generator: Adobe Illustrator 24.0.2, SVG Export Plug-In . SVG Version: 6.00 Build 0)  -->
<svg version="1.1" xmlns="http://www.w3.org/2000/svg" xmlns:xlink="http://www.w3.org/1999/xlink" x="0px" y="0px"
	 viewBox="0 0 65 65" style="enable-background:new 0 0 65 65;" xml:space="preserve">
<style type="text/css">
	.st0{display:none;}
	.st1{display:inline;fill:#9AA5AF;}
	.st2{fill:none;}
	.st3{fill:none;stroke:#FFFFFF;stroke-width:1.5;stroke-linecap:round;stroke-linejoin:round;}
	.st4{fill:none;stroke:#95A6B1;stroke-width:1.6;stroke-linecap:round;stroke-linejoin:round;}
	.st5{fill:none;stroke:#00A800;stroke-width:1.6;stroke-linecap:round;stroke-linejoin:round;stroke-miterlimit:10;}
	.st6{fill:#4DA12E;}
	.st7{fill:#96D200;}
	.st8{fill:#95A6B1;stroke:#95A6B1;stroke-width:1.6;stroke-linecap:round;stroke-linejoin:round;stroke-miterlimit:10;}
	.st9{fill:none;stroke:#95A6B1;stroke-width:1.6;stroke-linecap:round;stroke-linejoin:round;stroke-miterlimit:10;}
	.st10{fill:none;stroke:#19A500;stroke-width:1.6;stroke-linecap:round;stroke-linejoin:round;stroke-miterlimit:10;}
</style>
<g id="Capa_2" class="st0">
</g>
<g id="Capa_1">
	<g>
		<g id="Grupo_14998_2_" transform="translate(-83.703)">
			<rect id="Rectángulo_3799-2_3_" x="83.7" class="st2" width="65" height="65"/>
			<g id="Grupo_15005_1_">
				<g id="Grupo_15004_3_">
					<line id="Línea_2848_3_" class="st4" x1="90.83" y1="49.25" x2="142.23" y2="49.25"/>
					<path id="Trazado_12467_3_" class="st4" d="M94.54,14.58v-2.15c0-1.72,1.39-3.11,3.11-3.11c0,0,0,0,0,0h3.62
						c1.72,0,3.12,1.39,3.12,3.11c0,0,0,0,0,0v36.59"/>
					<line id="Línea_2849_3_" class="st4" x1="94.54" y1="49.24" x2="94.54" y2="30.23"/>
					<path id="Trazado_12468_3_" class="st4" d="M123.39,49.17V34.68c0-1.66,1.34-3,3-3h9.12c1.66,0,3,1.34,3,3v14.56"/>
					<path id="Trazado_12469_3_" class="st4" d="M119.65,49.17V28.19c0-1.66,1.34-3,3-3h5.22c1.66,0,3,1.34,3,3v3.34"/>
					<path id="Trazado_12470_3_" class="st4" d="M104.38,15.42h1.37c1.44,0,2.6,1.16,2.6,2.6v31"/>
					<path id="Trazado_12471_3_" class="st4" d="M104.61,31.07h7.02c1.27,0,2.29,1.03,2.29,2.29v7.71c0,1.27,1.03,2.29,2.29,2.29
						h6.92"/>
					<path id="Trazado_12472_3_" class="st4" d="M133.48,40.65l-2.1-4.34l-1.94,4.34c-0.21,0.44-0.35,0.92-0.41,1.41
						c0,1.34,1.09,2.42,2.43,2.42c1.33,0,2.42-1.08,2.42-2.42C133.81,41.57,133.68,41.1,133.48,40.65z"/>
					<line id="Línea_2850_3_" class="st4" x1="125.61" y1="18.91" x2="125.61" y2="24.9"/>
					<path id="Rectángulo_5120_3_" class="st4" d="M118.1,2.45h20.18l0,0v11.27c0,2.85-2.31,5.15-5.15,5.15l0,0h-20.18l0,0V7.61
						C112.94,4.76,115.25,2.45,118.1,2.45L118.1,2.45z"/>
					<path id="Trazado_11848_3_" class="st5" d="M98.69,22.29c0,2.31-1.88,4.18-4.19,4.18s-4.18-1.88-4.18-4.19
						c0-2.31,1.87-4.18,4.18-4.18l0,0c2.3-0.01,4.17,1.85,4.18,4.15c0,0,0,0,0,0C98.69,22.26,98.69,22.28,98.69,22.29z"/>
					<path id="Trazado_18071_2_" class="st4" d="M130.33,5.52l2.23,10.59l2.11-10.59"/>
					<g id="Grupo_15003">
						<g id="Grupo_15002">
							<path id="Trazado_12473_9_" class="st4" d="M125.8,5.49h-0.16c-1.17,0-2.11,0.95-2.12,2.12v6.33c0,1.17,0.95,2.11,2.12,2.12
								h0.16c1.17,0,2.11-0.95,2.12-2.12V7.61C127.91,6.44,126.97,5.49,125.8,5.49z"/>
							<path id="Trazado_12473_10_" class="st4" d="M121.04,7.51c0-1.17-0.95-2.11-2.12-2.12h-0.16c-1.17,0-2.11,1.05-2.12,2.21
								v6.33c0,1.17,0.95,2.11,2.12,2.12h0.16c1.17,0,2.11-0.95,2.12-2.12"/>
						</g>
					</g>
				</g>
			</g>
		</g>
		<g>
			<g>
				<g>
					<rect y="48.26" class="st2" width="65" height="16.74"/>
				</g>
				<g>
					<g>
						<path class="st6" d="M45.38,61.32h-7.17c-0.66,0-1.2-0.54-1.2-1.2s0.54-1.2,1.2-1.2h7.17c0.66,0,1.2,0.54,1.2,1.2
							S46.04,61.32,45.38,61.32z"/>
					</g>
					<g>
						<path class="st6" d="M53.11,61.32h-0.58c-0.66,0-1.2-0.54-1.2-1.2s0.54-1.2,1.2-1.2h0.58c0.66,0,1.2,0.54,1.2,1.2
							S53.77,61.32,53.11,61.32z"/>
					</g>
					<g>
						<path class="st6" d="M18.99,61.32h-7.1c-0.66,0-1.2-0.54-1.2-1.2s0.54-1.2,1.2-1.2h7.1c0.66,0,1.2,0.54,1.2,1.2
							S19.66,61.32,18.99,61.32z"/>
					</g>
					<g>
						<path class="st7" d="M31.05,61.32H18.53c-0.66,0-1.2-0.54-1.2-1.2s0.54-1.2,1.2-1.2h12.52c0.66,0,1.2,0.54,1.2,1.2
							S31.71,61.32,31.05,61.32z"/>
					</g>
					<g>
						<path class="st7" d="M35.47,55.21H11.89c-0.66,0-1.2-0.54-1.2-1.2s0.54-1.2,1.2-1.2h23.58c0.66,0,1.2,0.54,1.2,1.2
							S36.14,55.21,35.47,55.21z"/>
					</g>
					<g>
						<path class="st6" d="M53.11,55.21H34.75c-0.66,0-1.2-0.54-1.2-1.2s0.54-1.2,1.2-1.2h18.36c0.66,0,1.2,0.54,1.2,1.2
							S53.77,55.21,53.11,55.21z"/>
					</g>
					<g>
						<path class="st6" d="M12.32,55.21h-0.43c-0.66,0-1.2-0.54-1.2-1.2s0.54-1.2,1.2-1.2h0.43c0.66,0,1.2,0.54,1.2,1.2
							S12.98,55.21,12.32,55.21z"/>
					</g>
				</g>
			</g>
		</g>
	</g>
</g>
</svg>
