<?xml version="1.0" encoding="utf-8"?>
<!-- Generator: Adobe Illustrator 24.0.2, SVG Export Plug-In . SVG Version: 6.00 Build 0)  -->
<svg version="1.1" xmlns="http://www.w3.org/2000/svg" xmlns:xlink="http://www.w3.org/1999/xlink" x="0px" y="0px"
	 viewBox="0 0 47 47" style="enable-background:new 0 0 47 47;" xml:space="preserve">
<style type="text/css">
	.st0{display:none;}
	.st1{display:inline;fill:#98A6B0;}
	.st2{fill:none;}
	.st3{fill:none;stroke:#95A6B1;stroke-width:1.5;stroke-linecap:round;stroke-linejoin:round;}
	.st4{fill:none;stroke:#00A800;stroke-width:1.5;stroke-linecap:round;stroke-linejoin:round;stroke-miterlimit:10;}
	.st5{fill:none;stroke:#FFFFFF;stroke-width:1.5;stroke-linecap:round;stroke-linejoin:round;stroke-miterlimit:10;}
	.st6{fill:none;stroke:#FFFFFF;stroke-width:1.5;stroke-linecap:round;stroke-linejoin:round;}
</style>
<g id="BASE" class="st0">
</g>
<g id="Capa_1">
	<rect x="0.07" class="st2" width="46.93" height="47"/>
	<g>
		<g>
			<path class="st3" d="M23.87,20.09V3.75c0-0.78-1.12-0.93-1.31-0.17l-3.29,12.73c-0.16,0.61-0.14,1.26,0.04,1.86l0.99,3.18"/>
			<path class="st3" d="M19.05,26.15L4.99,34.49c-0.67,0.4-0.23,1.43,0.53,1.21l12.63-3.66c0.61-0.18,1.15-0.52,1.58-0.99l2.23-2.47
				l-1.74,7.36v7.97"/>
			<path class="st3" d="M27.02,27.47l14.32,7.87c0.69,0.38,1.35-0.53,0.78-1.07l-9.57-9.02c-0.46-0.43-1.03-0.73-1.65-0.86
				l-3.26-0.67"/>
		</g>
		<polyline class="st3" points="24.55,28.57 26.32,35.98 26.32,43.92 		"/>
		<path class="st4" d="M27.21,22.66c0.46,1.01,0.49,2.11,0.17,3.09c-0.36,1.08-1.15,2.01-2.26,2.52c-2.13,0.97-4.64,0.04-5.62-2.09
			s-0.04-4.64,2.09-5.62S26.23,20.53,27.21,22.66z"/>
	</g>
	<g>
		<path class="st3" d="M41.18,13.53c-1.99,0-1.99-1.95-3.99-1.95c-2,0-2,1.95-3.99,1.95c-2,0-2-1.95-4-1.95"/>
		<path class="st3" d="M41.18,18.41c-1.99,0-1.99-1.95-3.99-1.95c-2,0-2,1.95-3.99,1.95c-2,0-2-1.95-4-1.95"/>
	</g>
</g>
</svg>
