<?xml version="1.0" encoding="utf-8"?>
<!-- Generator: Adobe Illustrator 24.0.2, SVG Export Plug-In . SVG Version: 6.00 Build 0)  -->
<svg version="1.1" xmlns="http://www.w3.org/2000/svg" xmlns:xlink="http://www.w3.org/1999/xlink" x="0px" y="0px"
	 viewBox="0 0 47 47" style="enable-background:new 0 0 47 47;" xml:space="preserve">
<style type="text/css">
	.st0{display:none;}
	.st1{display:inline;fill:#98A6B0;}
	.st2{fill:none;}
	.st3{fill:none;stroke:#95A6B1;stroke-width:1.5;stroke-linecap:round;stroke-linejoin:round;}
	.st4{fill:none;stroke:#00A800;stroke-width:1.5;stroke-linecap:round;stroke-linejoin:round;stroke-miterlimit:10;}
	.st5{fill:none;stroke:#FFFFFF;stroke-width:1.5;stroke-linecap:round;stroke-linejoin:round;stroke-miterlimit:10;}
	.st6{fill:none;stroke:#FFFFFF;stroke-width:1.5;stroke-linecap:round;stroke-linejoin:round;}
</style>
<g id="BASE" class="st0">
	<rect x="-2.2" y="-2.22" class="st1" width="51.47" height="51.47"/>
</g>
<g id="Capa_1">
	<rect x="0.07" class="st2" width="46.93" height="47"/>
	<g>
		<g>
			<path class="st5" d="M41.57,20.83c-0.62-1.46-2.06-2.48-3.75-2.48h-5.05"/>
			<polyline class="st5" points="23.5,40.65 41.89,40.65 41.89,32.35 			"/>
			<line class="st5" x1="23.5" y1="26.56" x2="23.5" y2="32.35"/>
		</g>
		<g>
			<path class="st5" d="M23.5,40.65H5.11V8.7c0-1.3,1.05-2.36,2.36-2.36h6.92h6.76c1.3,0,2.36,1.05,2.36,2.36v1.37"/>
			<line class="st5" x1="23.5" y1="26.56" x2="23.5" y2="32.35"/>
		</g>
		<g>
			<polygon class="st5" points="25.99,12.28 20.5,19.47 24.29,19.47 22.93,24.41 28.67,17.19 24.78,17.19 			"/>
			<circle class="st5" cx="24.5" cy="18.35" r="8.27"/>
		</g>
		<line class="st5" x1="10.5" y1="40.65" x2="10.5" y2="6.35"/>
		<g>
			<line class="st5" x1="5.78" y1="10.48" x2="10.5" y2="10.48"/>
			<line class="st5" x1="5.78" y1="14.11" x2="10.5" y2="14.11"/>
			<line class="st5" x1="5.78" y1="17.74" x2="10.5" y2="17.74"/>
			<line class="st5" x1="5.78" y1="21.38" x2="10.5" y2="21.38"/>
			<line class="st5" x1="5.78" y1="24.99" x2="10.5" y2="24.99"/>
			<line class="st5" x1="5.78" y1="28.62" x2="10.5" y2="28.62"/>
			<line class="st5" x1="5.78" y1="32.35" x2="10.5" y2="32.35"/>
			<line class="st5" x1="5.78" y1="35.98" x2="10.5" y2="35.98"/>
		</g>
		<polyline class="st5" points="18.3,40.65 18.3,32.35 33.66,32.35 33.66,40.65 		"/>
		<line class="st5" x1="28.67" y1="40.65" x2="28.67" y2="32.35"/>
	</g>
	<path class="st6" d="M38.08,25.28c-0.34,0.74-0.36,1.54-0.12,2.25c0.26,0.79,0.83,1.46,1.65,1.84c1.55,0.71,3.38,0.03,4.09-1.52
		c0.71-1.55,0.03-3.38-1.52-4.09S38.79,23.73,38.08,25.28z"/>
</g>
</svg>
