<?xml version="1.0" encoding="utf-8"?>
<!-- Generator: Adobe Illustrator 24.0.2, SVG Export Plug-In . SVG Version: 6.00 Build 0)  -->
<svg version="1.1" xmlns="http://www.w3.org/2000/svg" xmlns:xlink="http://www.w3.org/1999/xlink" x="0px" y="0px"
	 viewBox="0 0 47 47" style="enable-background:new 0 0 47 47;" xml:space="preserve">
<style type="text/css">
	.st0{display:none;}
	.st1{display:inline;fill:#98A6B0;}
	.st2{fill:none;}
	.st3{fill:none;stroke:#95A6B1;stroke-width:1.5;stroke-linecap:round;stroke-linejoin:round;}
	.st4{fill:none;stroke:#00A800;stroke-width:1.5;stroke-linecap:round;stroke-linejoin:round;stroke-miterlimit:10;}
	.st5{fill:none;stroke:#FFFFFF;stroke-width:1.5;stroke-linecap:round;stroke-linejoin:round;stroke-miterlimit:10;}
	.st6{fill:none;stroke:#FFFFFF;stroke-width:1.5;stroke-linecap:round;stroke-linejoin:round;}
</style>
<g id="BASE" class="st0">
</g>
<g id="Capa_1">
	<g>
		<rect x="0.05" y="0.01" class="st2" width="46.93" height="47"/>
		<path class="st4" d="M38.22,10.94c0.37,0.82,0.4,1.71,0.14,2.5c-0.29,0.87-0.93,1.63-1.83,2.04c-1.72,0.79-3.75,0.03-4.54-1.69
			c-0.79-1.72-0.03-3.75,1.69-4.54C35.4,8.46,37.43,9.22,38.22,10.94z"/>
		<g>
			<g>
				<g>
					<g>
						<g>
							<path class="st3" d="M1.45,37.58c3.67,0,3.67,3.36,7.35,3.36c3.67,0,3.67-3.36,7.35-3.36c3.68,0,3.68,3.36,7.35,3.36
								c3.67,0,3.67-3.36,7.35-3.36c3.68,0,3.68,3.36,7.35,3.36s3.68-3.36,7.35-3.36"/>
						</g>
						<line class="st3" x1="29.81" y1="34.53" x2="36.48" y2="34.53"/>
						<polyline class="st3" points="35.56,17.97 35.56,20.41 35.56,23.94 19.79,23.94 						"/>
						<path class="st3" d="M13.36,23.94H9.81V13.32c0-0.73,0.59-1.32,1.32-1.32h16.81h1.51"/>
						<path class="st3" d="M14.2,6.86h9.37c0.69,0,1.25,0.56,1.25,1.25V12H13.12V7.94C13.12,7.34,13.6,6.86,14.2,6.86z"/>
						<path class="st3" d="M19.79,23.95h19.53c0.83,0,1.51,0.67,1.51,1.51v14.01"/>
						<path class="st3" d="M6.42,39.47V25.25c0-0.72,0.58-1.3,1.3-1.3l5.64-0.01"/>
						<line class="st3" x1="29.81" y1="24.47" x2="29.81" y2="37.63"/>
						<line class="st3" x1="29.81" y1="29.01" x2="36.48" y2="29.01"/>
						<line class="st3" x1="36.5" y1="24.47" x2="36.5" y2="40.14"/>
						<line class="st3" x1="25.49" y1="23.94" x2="25.49" y2="40.14"/>
						<polyline class="st3" points="19.79,23.97 19.81,28.36 14.15,28.36 14.15,23.96 						"/>
						<line class="st3" x1="18.87" y1="6.86" x2="18.87" y2="12"/>
					</g>
				</g>
			</g>
		</g>
	</g>
</g>
</svg>
