<?xml version="1.0" encoding="utf-8"?>
<!-- Generator: Adobe Illustrator 24.0.2, SVG Export Plug-In . SVG Version: 6.00 Build 0)  -->
<svg version="1.1" xmlns="http://www.w3.org/2000/svg" xmlns:xlink="http://www.w3.org/1999/xlink" x="0px" y="0px"
	 viewBox="0 0 65 65" style="enable-background:new 0 0 65 65;" xml:space="preserve">
<style type="text/css">
	.st0{display:none;}
	.st1{display:inline;fill:#98A6B0;}
	.st2{fill:none;}
	.st3{fill:none;stroke:#FFFFFF;stroke-width:1.5;stroke-linecap:round;stroke-linejoin:round;}
	.st4{fill:#4C9F2E;}
	.st5{fill:#94D040;}
	.st6{fill:none;stroke:#00A800;stroke-width:1.5;stroke-linecap:round;stroke-linejoin:round;stroke-miterlimit:10;}
	.st7{fill:none;stroke:#95A6B1;stroke-width:1.6;stroke-linecap:round;stroke-linejoin:round;}
	.st8{fill:none;stroke:#00A800;stroke-width:1.6;stroke-linecap:round;stroke-linejoin:round;stroke-miterlimit:10;}
</style>
<g id="BASE" class="st0">
</g>
<g id="Capa_1">
	<g>
		<g>
			<g>
				<g>
					<rect y="48.26" class="st2" width="65" height="16.74"/>
				</g>
				<g>
					<g>
						<path class="st4" d="M45.38,61.32h-7.17c-0.66,0-1.2-0.54-1.2-1.2s0.54-1.2,1.2-1.2h7.17c0.66,0,1.2,0.54,1.2,1.2
							S46.04,61.32,45.38,61.32z"/>
					</g>
					<g>
						<path class="st4" d="M53.11,61.32h-0.58c-0.66,0-1.2-0.54-1.2-1.2s0.54-1.2,1.2-1.2h0.58c0.66,0,1.2,0.54,1.2,1.2
							S53.77,61.32,53.11,61.32z"/>
					</g>
					<g>
						<path class="st4" d="M18.99,61.32h-7.1c-0.66,0-1.2-0.54-1.2-1.2s0.54-1.2,1.2-1.2h7.1c0.66,0,1.2,0.54,1.2,1.2
							S19.65,61.32,18.99,61.32z"/>
					</g>
					<g>
						<path class="st5" d="M31.05,61.32H18.53c-0.66,0-1.2-0.54-1.2-1.2s0.54-1.2,1.2-1.2h12.52c0.66,0,1.2,0.54,1.2,1.2
							S31.71,61.32,31.05,61.32z"/>
					</g>
					<g>
						<path class="st5" d="M35.47,55.21H11.89c-0.66,0-1.2-0.54-1.2-1.2s0.54-1.2,1.2-1.2h23.58c0.66,0,1.2,0.54,1.2,1.2
							S36.14,55.21,35.47,55.21z"/>
					</g>
					<g>
						<path class="st4" d="M53.11,55.21H34.75c-0.66,0-1.2-0.54-1.2-1.2s0.54-1.2,1.2-1.2h18.36c0.66,0,1.2,0.54,1.2,1.2
							S53.77,55.21,53.11,55.21z"/>
					</g>
					<g>
						<path class="st4" d="M12.32,55.21h-0.43c-0.66,0-1.2-0.54-1.2-1.2s0.54-1.2,1.2-1.2h0.43c0.66,0,1.2,0.54,1.2,1.2
							S12.98,55.21,12.32,55.21z"/>
					</g>
				</g>
			</g>
		</g>
		<rect class="st2" width="65" height="65"/>
	</g>
	<g>
		<path class="st6" d="M12.42,17.72c0.37,0.82,0.4,1.71,0.14,2.5c-0.29,0.87-0.93,1.63-1.83,2.04c-1.72,0.79-3.75,0.03-4.54-1.69
			s-0.03-3.75,1.69-4.54S11.63,16,12.42,17.72z"/>
		<g>
			<g>
				<path class="st7" d="M53.54,40.88l3.33-12.72c0.1-0.43-0.3-0.82-0.73-0.7l-8.65,2.34c-0.13,0.04-0.27,0.05-0.4,0.05H23.02H8.82
					c-0.38,0-0.69,0.31-0.69,0.69v4.18c0,0.48,0.39,0.87,0.87,0.87h2.1l0.07,0.29c0.41,1.61-0.07,3.76-0.61,5.18l0,0"/>
				<path class="st7" d="M14.75,18.32h6.13c0.32,0,0.58,0.31,0.58,0.7v2.51h3.55c0.68,0,1.23,0.55,1.23,1.23v3.02h-4.78h-1.04H16.4"
					/>
				<line class="st7" x1="11.09" y1="35.58" x2="54.92" y2="35.58"/>
				<polyline class="st7" points="9.3,24.89 9.3,29.84 30.16,29.84 30.16,25.78 15.65,25.78 				"/>
				<g>
					<path class="st7" d="M60.64,44.33c-3.44,0-3.44-3.36-6.89-3.36c-3.44,0-3.44,3.36-6.89,3.36c-3.44,0-3.44-3.36-6.89-3.36
						c-3.44,0-3.44,3.36-6.89,3.36c-3.44,0-3.44-3.36-6.88-3.36c-3.44,0-3.44,3.36-6.89,3.36c-3.45,0-3.45-3.36-6.89-3.36
						s-3.45,3.36-6.89,3.36"/>
				</g>
			</g>
			<g>
				<line class="st7" x1="43.09" y1="23.78" x2="43.09" y2="10.35"/>
				<polyline class="st7" points="38.83,14.09 43.09,9.83 47.34,14.09 				"/>
			</g>
		</g>
	</g>
</g>
</svg>
