<?xml version="1.0" encoding="utf-8"?>
<!-- Generator: Adobe Illustrator 24.0.2, SVG Export Plug-In . SVG Version: 6.00 Build 0)  -->
<svg version="1.1" xmlns="http://www.w3.org/2000/svg" xmlns:xlink="http://www.w3.org/1999/xlink" x="0px" y="0px"
	 viewBox="0 0 47 47" style="enable-background:new 0 0 47 47;" xml:space="preserve">
<style type="text/css">
	.st0{display:none;}
	.st1{display:inline;fill:#98A6B0;}
	.st2{fill:none;}
	.st3{fill:none;stroke:#FFFFFF;stroke-width:1.5;stroke-linecap:round;stroke-linejoin:round;}
	.st4{fill:#4C9F2E;}
	.st5{fill:#94D040;}
	.st6{fill:none;stroke:#00A800;stroke-width:1.5;stroke-linecap:round;stroke-linejoin:round;stroke-miterlimit:10;}
	.st7{fill:none;stroke:#95A6B1;stroke-width:1.6;stroke-linecap:round;stroke-linejoin:round;}
	.st8{fill:none;stroke:#00A800;stroke-width:1.6;stroke-linecap:round;stroke-linejoin:round;stroke-miterlimit:10;}
</style>
<g id="BASE" class="st0">
	<rect x="-2.2" y="-2.22" class="st1" width="51.47" height="51.47"/>
</g>
<g id="Capa_1">
	<rect x="0.07" class="st2" width="46.93" height="47"/>
	<g id="Grupo_20707" transform="translate(-86.367 -96.5)">
		<rect id="Rectángulo_4834" x="86.37" y="96.5" class="st2" width="47" height="47"/>
		<g id="Grupo_12874">
			<g id="Grupo_12785">
				<line id="Línea_2124" class="st3" x1="93.62" y1="132.71" x2="89.41" y2="132.71"/>
				<line id="Línea_2125" class="st3" x1="130.33" y1="132.71" x2="125.83" y2="132.71"/>
				<line id="Línea_2126" class="st3" x1="120.53" y1="132.71" x2="98.92" y2="132.71"/>
				<line id="Línea_2127" class="st3" x1="91.62" y1="118.87" x2="89.41" y2="118.87"/>
				<line id="Línea_2128" class="st3" x1="130.33" y1="118.87" x2="125.83" y2="118.87"/>
				<line id="Línea_2129" class="st3" x1="120.53" y1="118.87" x2="112.2" y2="118.87"/>
			</g>
			<polyline id="Rectángulo_4522" class="st3" points="98.92,123.41 98.92,135.85 93.61,135.85 93.61,121.62 			"/>
			<rect id="Rectángulo_4523" x="120.53" y="115.73" class="st3" width="5.3" height="20.12"/>
			<g>
				<g id="Grupo_13372">
					<circle id="Elipse_2271" class="st3" cx="101.93" cy="114.88" r="3.95"/>
					<path id="Trazado_11774_2_" class="st3" d="M101.93,104.15c-0.55,0.01-1.11,0.06-1.66,0.14l-1.1,2.48
						c-0.5,1.13-1.67,1.8-2.89,1.67l-2.71-0.3c-0.69,0.86-1.25,1.83-1.65,2.86l1.61,2.19c0.73,0.99,0.73,2.34,0,3.34l-1.61,2.19
						c0.4,1.03,0.95,2,1.65,2.86l2.71-0.29c1.22-0.13,2.39,0.54,2.89,1.67l1.1,2.48c1.1,0.19,2.21,0.19,3.31,0l1.1-2.48
						c0.5-1.13,1.67-1.8,2.89-1.67l2.71,0.29c0.69-0.86,1.25-1.83,1.65-2.86l-1.61-2.19c-0.73-0.99-0.73-2.34,0-3.34l1.61-2.19"/>
				</g>
				<g id="Grupo_13372_1_">
					<circle id="Elipse_2271_1_" class="st3" cx="101.94" cy="114.88" r="3.95"/>
					<path id="Trazado_11774_1_" class="st3" d="M101.94,125.6c0.55-0.01,1.11-0.06,1.66-0.14l1.1-2.48c0.5-1.13,1.67-1.8,2.89-1.67
						l2.71,0.3c0.69-0.86,1.25-1.83,1.65-2.86l-1.61-2.19c-0.73-0.99-0.73-2.34,0-3.34l1.61-2.19c-0.4-1.03-0.95-2-1.65-2.86
						l-2.71,0.29c-1.22,0.13-2.39-0.54-2.89-1.67l-1.1-2.48c-1.1-0.19-2.21-0.19-3.31,0l-1.1,2.48c-0.5,1.13-1.67,1.8-2.89,1.67
						l-2.71-0.29c-0.69,0.86-1.25,1.83-1.65,2.86l1.61,2.19c0.73,0.99,0.73,2.34,0,3.34l-1.61,2.19"/>
				</g>
			</g>
		</g>
	</g>
</g>
</svg>
