<?xml version="1.0" encoding="utf-8"?>
<!-- Generator: Adobe Illustrator 24.0.2, SVG Export Plug-In . SVG Version: 6.00 Build 0)  -->
<svg version="1.1" xmlns="http://www.w3.org/2000/svg" xmlns:xlink="http://www.w3.org/1999/xlink" x="0px" y="0px"
	 viewBox="0 0 65 65" style="enable-background:new 0 0 65 65;" xml:space="preserve">
<style type="text/css">
	.st0{display:none;}
	.st1{display:inline;fill:#98A6B0;}
	.st2{fill:none;}
	.st3{fill:none;stroke:#FFFFFF;stroke-width:1.5;stroke-linecap:round;stroke-linejoin:round;}
	.st4{fill:#4C9F2E;}
	.st5{fill:#94D040;}
	.st6{fill:none;stroke:#00A800;stroke-width:1.5;stroke-linecap:round;stroke-linejoin:round;stroke-miterlimit:10;}
	.st7{fill:none;stroke:#95A6B1;stroke-width:1.6;stroke-linecap:round;stroke-linejoin:round;}
	.st8{fill:none;stroke:#00A800;stroke-width:1.6;stroke-linecap:round;stroke-linejoin:round;stroke-miterlimit:10;}
</style>
<g id="BASE" class="st0">
</g>
<g id="Capa_1">
	<g>
		<g>
			<g>
				<g>
					<rect y="48.26" class="st2" width="65" height="16.74"/>
				</g>
				<g>
					<g>
						<path class="st4" d="M45.38,61.32h-7.17c-0.66,0-1.2-0.54-1.2-1.2s0.54-1.2,1.2-1.2h7.17c0.66,0,1.2,0.54,1.2,1.2
							S46.04,61.32,45.38,61.32z"/>
					</g>
					<g>
						<path class="st4" d="M53.11,61.32h-0.58c-0.66,0-1.2-0.54-1.2-1.2s0.54-1.2,1.2-1.2h0.58c0.66,0,1.2,0.54,1.2,1.2
							S53.77,61.32,53.11,61.32z"/>
					</g>
					<g>
						<path class="st4" d="M18.99,61.32h-7.1c-0.66,0-1.2-0.54-1.2-1.2s0.54-1.2,1.2-1.2h7.1c0.66,0,1.2,0.54,1.2,1.2
							S19.65,61.32,18.99,61.32z"/>
					</g>
					<g>
						<path class="st5" d="M31.05,61.32H18.53c-0.66,0-1.2-0.54-1.2-1.2s0.54-1.2,1.2-1.2h12.52c0.66,0,1.2,0.54,1.2,1.2
							S31.71,61.32,31.05,61.32z"/>
					</g>
					<g>
						<path class="st5" d="M35.47,55.21H11.89c-0.66,0-1.2-0.54-1.2-1.2s0.54-1.2,1.2-1.2h23.58c0.66,0,1.2,0.54,1.2,1.2
							S36.14,55.21,35.47,55.21z"/>
					</g>
					<g>
						<path class="st4" d="M53.11,55.21H34.75c-0.66,0-1.2-0.54-1.2-1.2s0.54-1.2,1.2-1.2h18.36c0.66,0,1.2,0.54,1.2,1.2
							S53.77,55.21,53.11,55.21z"/>
					</g>
					<g>
						<path class="st4" d="M12.32,55.21h-0.43c-0.66,0-1.2-0.54-1.2-1.2s0.54-1.2,1.2-1.2h0.43c0.66,0,1.2,0.54,1.2,1.2
							S12.98,55.21,12.32,55.21z"/>
					</g>
				</g>
			</g>
		</g>
		<rect class="st2" width="65" height="65"/>
	</g>
	<rect class="st2" width="65" height="65"/>
	<g>
		<g>
			<g>
				<g>
					<path class="st7" d="M42.02,10.52c-0.89-3.33-3.93-5.77-7.53-5.77h0c-3.6,0-6.63,2.44-7.53,5.76"/>
					<path class="st7" d="M42.29,19.92v1.55c0,4.31-3.49,7.8-7.8,7.8h0c-4.31,0-7.8-3.49-7.8-7.8v-1.42"/>
					<path class="st7" d="M37.7,23.86h3.16c2.49,0,4.51,3.02,4.51,5.51v2.94"/>
				</g>
				<g>
					<path class="st7" d="M42.13,19.92c1.6-0.9,2.67-2.62,2.67-4.58c0-2.81-2.21-5.11-4.99-5.25v-0.01H28.63v0.02
						c-2.72,0.2-4.88,2.47-4.88,5.24c0,2.91,2.36,5.26,5.26,5.26c1.61,0,3.05-0.73,4.02-1.87h2.49c0.97,1.14,2.41,1.87,4.02,1.87
						C40.48,20.6,41.37,20.35,42.13,19.92"/>
					<line class="st7" x1="28.51" y1="13.02" x2="36.38" y2="13.02"/>
					<line class="st7" x1="38.99" y1="13.02" x2="38.99" y2="13.02"/>
				</g>
			</g>
			<path class="st7" d="M35.37,25.53h-2.25c-0.89,0-1.61-0.72-1.61-1.61v-0.29c0-0.89,0.72-1.61,1.61-1.61h2.25
				c0.89,0,1.61,0.72,1.61,1.61v0.29C36.98,24.81,36.26,25.53,35.37,25.53z"/>
		</g>
		<g>
			<path class="st8" d="M19.3,35.6c0.41,0.9,0.44,1.87,0.15,2.73c-0.32,0.95-1.01,1.78-2,2.23c-1.88,0.86-4.11,0.03-4.97-1.85
				s-0.03-4.11,1.85-4.97C16.22,32.89,18.44,33.72,19.3,35.6z"/>
			<path class="st7" d="M15.46,43.5v3.01h37.39v-3.79c0-5.34-4.33-9.67-9.67-9.67H25.13c-1.52,0-2.95,0.23-4.23,0.68"/>
		</g>
	</g>
	<g>
		<line class="st7" x1="31.5" y1="29.27" x2="31.5" y2="32.76"/>
		<line class="st7" x1="37.7" y1="29.27" x2="37.7" y2="32.76"/>
		<line class="st7" x1="44.8" y1="15.34" x2="46.17" y2="15.34"/>
		<line class="st7" x1="22.4" y1="15.34" x2="23.76" y2="15.34"/>
	</g>
</g>
</svg>
