<svg id="Grupo_17032" data-name="Grupo 17032" xmlns="http://www.w3.org/2000/svg" width="65" height="65" viewBox="0 0 65 65">
  <g id="Grupo_17035" data-name="Grupo 17035">
    <g id="Grupo_13216" data-name="Grupo 13216">
      <rect id="Rectángulo_3799" data-name="Rectángulo 3799" width="65" height="65" transform="translate(0 0)" fill="none"/>
    </g>
    <rect id="Rectángulo_3799-2" data-name="Rectángulo 3799-2" width="65" height="65" transform="translate(0 0)" fill="none"/>
    <g id="Grupo_17034" data-name="Grupo 17034">
      <g id="Grupo_17033" data-name="Grupo 17033">
        <rect id="Rectángulo_5355" data-name="Rectángulo 5355" width="65" height="16.741" transform="translate(0 48.259)" fill="none"/>
        <g id="Grupo_17032-2" data-name="Grupo 17032">
          <line id="Línea_3431" data-name="Línea 3431" x2="7.167" transform="translate(38.214 60.119)" fill="none" stroke="#4da12e" stroke-linecap="round" stroke-linejoin="round" stroke-width="2.4"/>
          <line id="Línea_3432" data-name="Línea 3432" x2="0.581" transform="translate(52.528 60.119)" fill="none" stroke="#4da12e" stroke-linecap="round" stroke-linejoin="round" stroke-width="2.4"/>
          <line id="Línea_3433" data-name="Línea 3433" x2="7.101" transform="translate(11.891 60.119)" fill="none" stroke="#4da12e" stroke-linecap="round" stroke-linejoin="round" stroke-width="2.4"/>
          <line id="Línea_3434" data-name="Línea 3434" x2="12.517" transform="translate(18.529 60.119)" fill="none" stroke="#96d200" stroke-linecap="round" stroke-linejoin="round" stroke-width="2.4"/>
          <line id="Línea_3435" data-name="Línea 3435" x2="23.582" transform="translate(11.891 54.012)" fill="none" stroke="#96d200" stroke-linecap="round" stroke-linejoin="round" stroke-width="2.4"/>
          <line id="Línea_3436" data-name="Línea 3436" x2="18.363" transform="translate(34.746 54.012)" fill="none" stroke="#4da12e" stroke-linecap="round" stroke-linejoin="round" stroke-width="2.4"/>
          <line id="Línea_3437" data-name="Línea 3437" x2="0.429" transform="translate(11.891 54.012)" fill="none" stroke="#4da12e" stroke-linecap="round" stroke-linejoin="round" stroke-width="2.4"/>
        </g>
      </g>
    </g>
  </g>
  <g id="Grupo_15395" data-name="Grupo 15395">
    <path id="Trazado_12672" data-name="Trazado 12672" d="M44.283,23.508H11.309c-2.679,0-4.849,5.4-4.849,12.069s2.17,12.068,4.849,12.068H53.685c2.679,0,4.849-5.4,4.849-12.068A22.912,22.912,0,0,0,56.926,26.6" fill="none" stroke="#95a6b1" stroke-linecap="round" stroke-linejoin="round" stroke-width="1.6"/>
    <g id="Grupo_15394" data-name="Grupo 15394">
      <path id="Trazado_12673" data-name="Trazado 12673" d="M7.468,31.809c2.535,0,2.535,1.842,5.068,1.842s2.537-1.842,5.072-1.842,2.536,1.842,5.074,1.842,2.536-1.842,5.073-1.842,2.534,1.847,5.073,1.847,2.541-1.847,5.076-1.847,2.536,1.847,5.071,1.847,2.539-1.841,5.08-1.841,2.54,1.841,5.08,1.841,2.541-1.841,5.081-1.841" fill="none" stroke="#95a6b1" stroke-linecap="round" stroke-linejoin="round" stroke-width="1.6"/>
    </g>
    <line id="Línea_3132" data-name="Línea 3132" x2="51.749" transform="translate(6.462 12.7)" fill="none" stroke="#95a6b1" stroke-linecap="round" stroke-linejoin="round" stroke-width="1.6"/>
    <path id="Trazado_12674" data-name="Trazado 12674" d="M13.193,23.508V20.645H24.769v2.863" fill="none" stroke="#95a6b1" stroke-linecap="round" stroke-linejoin="round" stroke-width="1.6"/>
    <line id="Línea_3133" data-name="Línea 3133" y1="7.539" transform="translate(17.352 12.7)" fill="none" stroke="#95a6b1" stroke-linecap="round" stroke-linejoin="round" stroke-width="1.6"/>
    <line id="Línea_3134" data-name="Línea 3134" y1="7.539" transform="translate(20.608 12.7)" fill="none" stroke="#95a6b1" stroke-linecap="round" stroke-linejoin="round" stroke-width="1.6"/>
    <path id="Trazado_12675" data-name="Trazado 12675" d="M30.341,23.508V20.03A1.919,1.919,0,0,1,32.254,18.1h8.875a1.92,1.92,0,0,0,1.914-1.925h0V12.891" fill="none" stroke="#95a6b1" stroke-linecap="round" stroke-linejoin="round" stroke-width="1.6"/>
  </g>
  <path id="Trazado_11848" data-name="Trazado 11848" d="M55.239,23.248a4.183,4.183,0,1,1-4.183-4.183h0a4.168,4.168,0,0,1,4.183,4.151h0Z" fill="none" stroke="#19a500" stroke-linecap="round" stroke-linejoin="round" stroke-width="1.6"/>
</svg>
