<?xml version="1.0" encoding="utf-8"?>
<!-- Generator: Adobe Illustrator 24.0.2, SVG Export Plug-In . SVG Version: 6.00 Build 0)  -->
<svg version="1.1" id="Capa_1" xmlns="http://www.w3.org/2000/svg" xmlns:xlink="http://www.w3.org/1999/xlink" x="0px" y="0px"
	 viewBox="0 0 65 65" style="enable-background:new 0 0 65 65;" xml:space="preserve">
<style type="text/css">
	.st0{display:none;}
	.st1{clip-path:url(#SVGID_2_);}
	.st2{clip-path:url(#SVGID_4_);}
	.st3{fill:none;}
	.st4{fill:#19A301;}
	.st5{fill:#82D400;}
	.st6{fill:none;stroke:#19A500;stroke-width:1.6;stroke-linecap:round;stroke-linejoin:round;stroke-miterlimit:10;}
	.st7{fill:none;stroke:#95A6B1;stroke-width:1.6;stroke-linecap:round;stroke-linejoin:round;}
</style>
<g id="BASE" class="st0">
</g>
<g>
	<g id="Capa_1_1_">
		<g>
			<g>
				<g>
					<defs>
						<rect id="SVGID_1_" y="48.26" width="65" height="16.74"/>
					</defs>
					<clipPath id="SVGID_2_">
						<use xlink:href="#SVGID_1_"  style="overflow:visible;"/>
					</clipPath>
					<g class="st1">
						<g>
							<defs>
								<rect id="SVGID_3_" y="48.26" width="65" height="16.74"/>
							</defs>
							<clipPath id="SVGID_4_">
								<use xlink:href="#SVGID_3_"  style="overflow:visible;"/>
							</clipPath>
							<g class="st2">
								<g>
									<rect y="48.26" class="st3" width="65" height="16.74"/>
								</g>
								<g>
									<g>
										<path class="st4" d="M45.38,61.32h-7.17c-0.66,0-1.2-0.54-1.2-1.2s0.54-1.2,1.2-1.2h7.17c0.66,0,1.2,0.54,1.2,1.2
											S46.04,61.32,45.38,61.32z"/>
									</g>
									<g>
										<path class="st4" d="M53.11,61.32h-0.58c-0.66,0-1.2-0.54-1.2-1.2s0.54-1.2,1.2-1.2h0.58c0.66,0,1.2,0.54,1.2,1.2
											S53.77,61.32,53.11,61.32z"/>
									</g>
									<g>
										<path class="st4" d="M18.99,61.32h-7.1c-0.66,0-1.2-0.54-1.2-1.2s0.54-1.2,1.2-1.2h7.1c0.66,0,1.2,0.54,1.2,1.2
											S19.65,61.32,18.99,61.32z"/>
									</g>
									<g>
										<path class="st5" d="M31.05,61.32H18.53c-0.66,0-1.2-0.54-1.2-1.2s0.54-1.2,1.2-1.2h12.52c0.66,0,1.2,0.54,1.2,1.2
											S31.71,61.32,31.05,61.32z"/>
									</g>
									<g>
										<path class="st5" d="M35.47,55.21H11.89c-0.66,0-1.2-0.54-1.2-1.2s0.54-1.2,1.2-1.2h23.58c0.66,0,1.2,0.54,1.2,1.2
											S36.13,55.21,35.47,55.21z"/>
									</g>
									<g>
										<path class="st4" d="M53.11,55.21H34.75c-0.66,0-1.2-0.54-1.2-1.2s0.54-1.2,1.2-1.2h18.36c0.66,0,1.2,0.54,1.2,1.2
											S53.77,55.21,53.11,55.21z"/>
									</g>
									<g>
										<path class="st4" d="M12.32,55.21h-0.43c-0.66,0-1.2-0.54-1.2-1.2s0.54-1.2,1.2-1.2h0.43c0.66,0,1.2,0.54,1.2,1.2
											S12.98,55.21,12.32,55.21z"/>
									</g>
								</g>
							</g>
						</g>
					</g>
				</g>
			</g>
			<path id="Trazado_11847_1_" class="st6" d="M57.57,16.69c0.82,1.79,0.03,3.9-1.76,4.72s-3.9,0.03-4.72-1.76
				c-0.82-1.79-0.03-3.9,1.76-4.72c1.78-0.82,3.89-0.04,4.71,1.74C57.56,16.67,57.56,16.68,57.57,16.69z"/>
			<g id="Grupo_15332" transform="translate(-4.294 -3.974)">
				<g id="Grupo_15326">
					<path id="Rectángulo_5195" class="st7" d="M14.88,8.85h0.63c1.48,0,2.69,1.2,2.69,2.69v36.87c0,1.48-1.2,2.69-2.69,2.69h-0.63
						c-1.48,0-2.69-1.2-2.69-2.69V11.54C12.19,10.05,13.39,8.85,14.88,8.85z"/>
					<g id="Grupo_15325">
						<g id="Grupo_15322">
							<line id="Línea_3007" class="st7" x1="10.82" y1="18.26" x2="19.56" y2="18.26"/>
						</g>
						<g id="Grupo_15323">
							<line id="Línea_3008" class="st7" x1="10.82" y1="29.01" x2="19.56" y2="29.01"/>
						</g>
						<g id="Grupo_15324">
							<line id="Línea_3009" class="st7" x1="10.82" y1="39.77" x2="19.56" y2="39.77"/>
						</g>
					</g>
				</g>
				<g id="Grupo_15327">
					<line id="Línea_3010" class="st7" x1="44.54" y1="30.42" x2="33.72" y2="30.42"/>
					<line id="Línea_3011" class="st7" x1="52.6" y1="21.42" x2="49.64" y2="21.42"/>
					<line id="Línea_3012" class="st7" x1="58.89" y1="37.62" x2="58.89" y2="28.19"/>
					<path id="Trazado_12648" class="st7" d="M41.73,41.03v-4.38c0-1.24-1-2.24-2.24-2.24l0,0h-5.76"/>
				</g>
				<path id="Trazado_12649" class="st7" d="M62.76,36.35l-7.77,3.13v-3.13l-15.51,5.62v10.86h23.28
					C62.76,52.83,62.76,36.35,62.76,36.35z"/>
				<path id="Trazado_12650" class="st7" d="M49.87,38.2l-1.03-23.91h-3.48l-1.11,25.95L49.87,38.2z"/>
				<path id="Trazado_12651" class="st7" d="M39.52,51.23h-8.68c-1.33,0-2.41-1.08-2.41-2.41"/>
				<path id="Trazado_12652" class="st7" d="M33.72,45.17c0,2-2.62,3.62-4.62,3.62h-1.31c-2,0-4.62-1.62-4.62-3.62v-15.1
					c0-2,1.62-3.62,3.62-3.62l0,0h3.31c2,0,3.62,1.62,3.62,3.62l0,0V45.17z"/>
				<path id="Trazado_12653" class="st7" d="M33.77,44.93h0.86v7.89"/>
				<path id="Trazado_12654" class="st7" d="M23.15,44.93h-0.86v7.89"/>
				<line id="Línea_3013" class="st7" x1="23.22" y1="34.42" x2="33.63" y2="34.42"/>
				<line id="Línea_3014" class="st7" x1="23.22" y1="40.48" x2="33.63" y2="40.48"/>
				<path id="Trazado_12657" class="st7" d="M28.43,26.4v-1.98c0-1.33-1.08-2.41-2.41-2.41l0,0H11.68"/>
			</g>
		</g>
	</g>
	<rect id="Rectángulo_3799-2_16_" class="st3" width="65" height="65"/>
</g>
</svg>
