<?xml version="1.0" encoding="utf-8"?>
<!-- Generator: Adobe Illustrator 24.0.2, SVG Export Plug-In . SVG Version: 6.00 Build 0)  -->
<svg version="1.1" xmlns="http://www.w3.org/2000/svg" xmlns:xlink="http://www.w3.org/1999/xlink" x="0px" y="0px"
	 viewBox="0 0 47 47" style="enable-background:new 0 0 47 47;" xml:space="preserve">
<style type="text/css">
	.st0{display:none;}
	.st1{display:inline;fill:#98A6B0;}
	.st2{fill:none;}
	.st3{fill:none;stroke:#FFFFFF;stroke-width:1.5122;stroke-linecap:round;stroke-linejoin:round;}
	.st4{fill:none;stroke:#19A301;stroke-width:2.4;stroke-linecap:round;stroke-linejoin:round;stroke-miterlimit:10;}
	.st5{fill:none;stroke:#82D400;stroke-width:2.4;stroke-linecap:round;stroke-linejoin:round;stroke-miterlimit:10;}
	.st6{fill:none;stroke:#00A800;stroke-width:1.6;stroke-linecap:round;stroke-linejoin:round;stroke-miterlimit:10;}
	.st7{fill:none;stroke:#95A6B1;stroke-width:1.6;stroke-linecap:round;stroke-linejoin:round;stroke-miterlimit:10;}
	.st8{fill:none;stroke:#19A500;stroke-width:1.6;stroke-linecap:round;stroke-linejoin:round;stroke-miterlimit:10;}
	.st9{fill:none;stroke:#95A6B1;stroke-width:1.6;stroke-linecap:round;stroke-linejoin:round;}
</style>
<g id="BASE" class="st0">
	<rect x="-2.19" y="-2.52" class="st1" width="51.47" height="51.47"/>
</g>
<g id="Capa_1">
	<rect y="0" class="st2" width="47" height="47"/>
	<g>
		<line id="Línea_2112" class="st3" x1="42.58" y1="39.5" x2="5.71" y2="39.5"/>
		<path id="Trazado_11506" class="st3" d="M24.66,7.5H13.04c-1.91,0-3.45,1.55-3.45,3.45V39.5h18.53V10.95
			C28.11,9.05,26.56,7.5,24.66,7.5z"/>
		<path id="Trazado_11507" class="st3" d="M28.11,20.41h1.35c3.06,0,5.61,2.31,5.92,5.35"/>
		<line id="Línea_2113" class="st3" x1="35.41" y1="37.13" x2="35.41" y2="39.5"/>
		<line id="Línea_2114" class="st3" x1="9.59" y1="12.93" x2="28.11" y2="12.93"/>
		<line id="Línea_2115" class="st3" x1="15.39" y1="12.93" x2="15.39" y2="39.5"/>
		<line id="Línea_2116" class="st3" x1="15.39" y1="17.04" x2="9.59" y2="17.04"/>
		<line id="Línea_2117" class="st3" x1="15.39" y1="21.16" x2="9.59" y2="21.16"/>
		<line id="Línea_2118" class="st3" x1="15.39" y1="25.28" x2="9.59" y2="25.28"/>
		<line id="Línea_2119" class="st3" x1="15.39" y1="29.39" x2="9.59" y2="29.39"/>
		<line id="Línea_2120" class="st3" x1="15.39" y1="33.51" x2="9.59" y2="33.51"/>
		<circle id="Elipse_2111" class="st3" cx="35.41" cy="31.57" r="3.08"/>
	</g>
</g>
</svg>
