<?xml version="1.0" encoding="utf-8"?>
<!-- Generator: Adobe Illustrator 24.0.2, SVG Export Plug-In . SVG Version: 6.00 Build 0)  -->
<svg version="1.1" id="Capa_1" xmlns="http://www.w3.org/2000/svg" xmlns:xlink="http://www.w3.org/1999/xlink" x="0px" y="0px"
	 viewBox="0 0 65 65" style="enable-background:new 0 0 65 65;" xml:space="preserve">
<style type="text/css">
	.st0{display:none;}
	.st1{fill:none;}
	.st2{clip-path:url(#SVGID_2_);}
	.st3{fill:#19A301;}
	.st4{fill:#82D400;}
	.st5{fill:none;stroke:#00A800;stroke-width:1.6;stroke-linecap:round;stroke-linejoin:round;stroke-miterlimit:10;}
	.st6{fill:none;stroke:#95A6B1;stroke-width:1.6;stroke-linecap:round;stroke-linejoin:round;stroke-miterlimit:10;}
</style>
<g id="BASE" class="st0">
</g>
<g id="Capa_1_1_">
	<g>
		<rect class="st1" width="65" height="65"/>
		<g>
			<defs>
				<rect id="SVGID_1_" y="48.26" width="65" height="16.74"/>
			</defs>
			<clipPath id="SVGID_2_">
				<use xlink:href="#SVGID_1_"  style="overflow:visible;"/>
			</clipPath>
			<g class="st2">
				<g>
					<rect y="48.26" class="st1" width="65" height="16.74"/>
				</g>
				<g>
					<g>
						<path class="st3" d="M45.38,61.32h-7.17c-0.66,0-1.2-0.54-1.2-1.2s0.54-1.2,1.2-1.2h7.17c0.66,0,1.2,0.54,1.2,1.2
							S46.04,61.32,45.38,61.32z"/>
					</g>
					<g>
						<path class="st3" d="M53.11,61.32h-0.58c-0.66,0-1.2-0.54-1.2-1.2s0.54-1.2,1.2-1.2h0.58c0.66,0,1.2,0.54,1.2,1.2
							S53.77,61.32,53.11,61.32z"/>
					</g>
					<g>
						<path class="st3" d="M18.99,61.32h-7.1c-0.66,0-1.2-0.54-1.2-1.2s0.54-1.2,1.2-1.2h7.1c0.66,0,1.2,0.54,1.2,1.2
							S19.65,61.32,18.99,61.32z"/>
					</g>
					<g>
						<path class="st4" d="M31.05,61.32H18.53c-0.66,0-1.2-0.54-1.2-1.2s0.54-1.2,1.2-1.2h12.52c0.66,0,1.2,0.54,1.2,1.2
							S31.71,61.32,31.05,61.32z"/>
					</g>
					<g>
						<path class="st4" d="M35.47,55.21H11.89c-0.66,0-1.2-0.54-1.2-1.2s0.54-1.2,1.2-1.2h23.58c0.66,0,1.2,0.54,1.2,1.2
							S36.13,55.21,35.47,55.21z"/>
					</g>
					<g>
						<path class="st3" d="M53.11,55.21H34.75c-0.66,0-1.2-0.54-1.2-1.2s0.54-1.2,1.2-1.2h18.36c0.66,0,1.2,0.54,1.2,1.2
							S53.77,55.21,53.11,55.21z"/>
					</g>
					<g>
						<path class="st3" d="M12.32,55.21h-0.43c-0.66,0-1.2-0.54-1.2-1.2s0.54-1.2,1.2-1.2h0.43c0.66,0,1.2,0.54,1.2,1.2
							S12.98,55.21,12.32,55.21z"/>
					</g>
				</g>
			</g>
		</g>
		<g>
			<path id="Trazado_11847" class="st5" d="M13.95,15.39c0.82,1.79,0.03,3.9-1.76,4.72s-3.9,0.03-4.72-1.76
				c-0.82-1.79-0.03-3.9,1.76-4.72c1.78-0.82,3.89-0.04,4.71,1.74C13.94,15.38,13.95,15.38,13.95,15.39z"/>
			<path id="Rectángulo_4585" class="st6" d="M19.23,12.33h5.59c0.29,0,0.53,0.24,0.53,0.53v2.32c0,0.29-0.24,0.53-0.53,0.53h-5.59
				c-0.29,0-0.53-0.24-0.53-0.53v-2.32C18.7,12.57,18.94,12.33,19.23,12.33z"/>
			<path id="Trazado_11678" class="st6" d="M11.85,23v2.16h-0.88c-0.6,0-1.09,0.49-1.09,1.09l0,0l0,0v0.52
				c0,0.6,0.49,1.09,1.09,1.09l0,0h0.88v5.24h-0.88c-0.6,0-1.09,0.49-1.09,1.09v0.52c0,0.6,0.49,1.09,1.09,1.09l0,0h0.88v6.75h18.58
				V35.8h0.89c0.6,0,1.09-0.49,1.09-1.09l0,0l0,0v-0.52c0-0.6-0.49-1.09-1.09-1.09h-0.88v-5.23h0.88c0.6,0,1.09-0.49,1.09-1.09l0,0
				l0,0v-0.52c0-0.6-0.49-1.09-1.09-1.09h-0.88v-6.23"/>
			<line id="Línea_2316" class="st6" x1="15.45" y1="26.2" x2="26.83" y2="26.2"/>
			<line id="Línea_2317" class="st6" x1="15.45" y1="34.11" x2="26.83" y2="34.11"/>
			<path id="Rectángulo_4586" class="st6" d="M10.68,42.53h20.93c0.44,0,0.8,0.36,0.8,0.8v1.63c0,0.44-0.36,0.8-0.8,0.8H10.68
				c-0.44,0-0.8-0.36-0.8-0.8v-1.63C9.88,42.89,10.24,42.53,10.68,42.53z"/>
			<path id="Rectángulo_4587" class="st6" d="M16.67,15.7h14.85c0.44,0,0.8,0.36,0.8,0.8l0,0v1.63c0,0.44-0.36,0.8-0.8,0.8l0,0
				H16.75"/>
			<path id="Rectángulo_4585-2" class="st6" d="M43.24,12.33h5.59c0.29,0,0.53,0.24,0.53,0.53v2.32c0,0.29-0.24,0.53-0.53,0.53
				h-5.59c-0.29,0-0.53-0.24-0.53-0.53v-2.32C42.72,12.57,42.95,12.33,43.24,12.33z"/>
			<path id="Trazado_11678-2" class="st6" d="M37.3,18.92v6.23h-0.88c-0.6,0-1.09,0.49-1.09,1.09l0,0l0,0v0.52
				c0,0.6,0.49,1.09,1.09,1.09l0,0h0.88v5.24h-0.88c-0.6,0-1.09,0.49-1.09,1.09v0.52c0,0.6,0.49,1.09,1.09,1.09h0.88v6.75h18.58
				V35.8h0.88c0.6,0,1.09-0.49,1.09-1.09l0,0l0,0v-0.52c0-0.6-0.49-1.09-1.09-1.09h-0.88v-5.24h0.88c0.6,0,1.09-0.49,1.09-1.09l0,0
				l0,0v-0.52c0-0.6-0.49-1.09-1.09-1.09l0,0h-0.88v-6.23"/>
			<line id="Línea_2316-2" class="st6" x1="40.9" y1="26.2" x2="52.28" y2="26.2"/>
			<line id="Línea_2317-2" class="st6" x1="40.9" y1="34.11" x2="52.28" y2="34.11"/>
			<path id="Rectángulo_4586-2" class="st6" d="M36.13,42.53h20.93c0.44,0,0.8,0.36,0.8,0.8v1.63c0,0.44-0.36,0.8-0.8,0.8H36.13
				c-0.44,0-0.8-0.36-0.8-0.8v-1.63C35.33,42.89,35.69,42.53,36.13,42.53z"/>
			<path id="Rectángulo_4587-2" class="st6" d="M36.05,15.7h20.93c0.44,0,0.8,0.36,0.8,0.8v1.63c0,0.44-0.36,0.8-0.8,0.8H36.05
				c-0.44,0-0.8-0.36-0.8-0.8V16.5C35.25,16.06,35.61,15.7,36.05,15.7z"/>
		</g>
	</g>
</g>
</svg>
