<?xml version="1.0" encoding="utf-8"?>
<!-- Generator: Adobe Illustrator 24.0.2, SVG Export Plug-In . SVG Version: 6.00 Build 0)  -->
<svg version="1.1" id="Capa_1" xmlns="http://www.w3.org/2000/svg" xmlns:xlink="http://www.w3.org/1999/xlink" x="0px" y="0px"
	 viewBox="0 0 65 65" style="enable-background:new 0 0 65 65;" xml:space="preserve">
<style type="text/css">
	.st0{display:none;}
	.st1{clip-path:url(#SVGID_2_);}
	.st2{clip-path:url(#SVGID_4_);}
	.st3{fill:none;}
	.st4{fill:#19A301;}
	.st5{fill:#82D400;}
	.st6{fill:none;stroke:#95A6B1;stroke-width:1.6;stroke-linecap:round;stroke-linejoin:round;}
	.st7{fill:none;stroke:#19A500;stroke-width:1.6;stroke-linecap:round;stroke-linejoin:round;stroke-miterlimit:10;}
</style>
<g id="BASE" class="st0">
</g>
<g>
	<g id="Capa_1_1_">
		<g>
			<g>
				<g>
					<defs>
						<rect id="SVGID_1_" y="48.26" width="65" height="16.74"/>
					</defs>
					<clipPath id="SVGID_2_">
						<use xlink:href="#SVGID_1_"  style="overflow:visible;"/>
					</clipPath>
					<g class="st1">
						<g>
							<defs>
								<rect id="SVGID_3_" y="48.26" width="65" height="16.74"/>
							</defs>
							<clipPath id="SVGID_4_">
								<use xlink:href="#SVGID_3_"  style="overflow:visible;"/>
							</clipPath>
							<g class="st2">
								<g>
									<rect y="48.26" class="st3" width="65" height="16.74"/>
								</g>
								<g>
									<g>
										<path class="st4" d="M45.38,61.32h-7.17c-0.66,0-1.2-0.54-1.2-1.2s0.54-1.2,1.2-1.2h7.17c0.66,0,1.2,0.54,1.2,1.2
											S46.04,61.32,45.38,61.32z"/>
									</g>
									<g>
										<path class="st4" d="M53.11,61.32h-0.58c-0.66,0-1.2-0.54-1.2-1.2s0.54-1.2,1.2-1.2h0.58c0.66,0,1.2,0.54,1.2,1.2
											S53.77,61.32,53.11,61.32z"/>
									</g>
									<g>
										<path class="st4" d="M18.99,61.32h-7.1c-0.66,0-1.2-0.54-1.2-1.2s0.54-1.2,1.2-1.2h7.1c0.66,0,1.2,0.54,1.2,1.2
											S19.65,61.32,18.99,61.32z"/>
									</g>
									<g>
										<path class="st5" d="M31.05,61.32H18.53c-0.66,0-1.2-0.54-1.2-1.2s0.54-1.2,1.2-1.2h12.52c0.66,0,1.2,0.54,1.2,1.2
											S31.71,61.32,31.05,61.32z"/>
									</g>
									<g>
										<path class="st5" d="M35.47,55.21H11.89c-0.66,0-1.2-0.54-1.2-1.2s0.54-1.2,1.2-1.2h23.58c0.66,0,1.2,0.54,1.2,1.2
											S36.13,55.21,35.47,55.21z"/>
									</g>
									<g>
										<path class="st4" d="M53.11,55.21H34.75c-0.66,0-1.2-0.54-1.2-1.2s0.54-1.2,1.2-1.2h18.36c0.66,0,1.2,0.54,1.2,1.2
											S53.77,55.21,53.11,55.21z"/>
									</g>
									<g>
										<path class="st4" d="M12.32,55.21h-0.43c-0.66,0-1.2-0.54-1.2-1.2s0.54-1.2,1.2-1.2h0.43c0.66,0,1.2,0.54,1.2,1.2
											S12.98,55.21,12.32,55.21z"/>
									</g>
								</g>
							</g>
						</g>
					</g>
				</g>
			</g>
			<g>
				<rect x="10.27" y="18.76" class="st6" width="16.93" height="28.12"/>
				<g>
					<line class="st6" x1="10.27" y1="18.76" x2="10.27" y2="23.56"/>
					<line class="st6" x1="15.92" y1="18.76" x2="15.92" y2="23.56"/>
					<line class="st6" x1="21.56" y1="18.76" x2="21.56" y2="23.56"/>
					<line class="st6" x1="27.21" y1="23.6" x2="27.21" y2="18.76"/>
				</g>
				<line class="st6" x1="8.14" y1="23.61" x2="29.33" y2="23.61"/>
				<polyline class="st6" points="27.33,36.69 34.01,36.69 34.01,42.02 27.33,42.02 				"/>
				<rect x="10.27" y="18.76" class="st6" width="16.93" height="28.12"/>
				<g>
					<line class="st6" x1="10.27" y1="18.76" x2="10.27" y2="23.56"/>
					<line class="st6" x1="15.92" y1="18.76" x2="15.92" y2="23.56"/>
					<line class="st6" x1="21.56" y1="18.76" x2="21.56" y2="23.56"/>
					<line class="st6" x1="27.21" y1="23.6" x2="27.21" y2="18.76"/>
				</g>
				<line class="st6" x1="8.14" y1="23.61" x2="29.33" y2="23.61"/>
				<path class="st6" d="M10.31,28.21c1.41-1.02,4.35-1.55,6.71-0.55s7.56,1.87,10.2-0.53"/>
				<g>
					<line class="st6" x1="10.31" y1="36.18" x2="20.46" y2="36.18"/>
				</g>
				<polyline class="st6" points="56.2,34.22 56.2,46.88 34.28,46.88 34.28,7.76 56.2,7.76 56.2,21.39 				"/>
				<g>
					<line class="st6" x1="34.28" y1="7.76" x2="34.28" y2="12.56"/>
					<line class="st6" x1="49.57" y1="7.76" x2="49.57" y2="12.56"/>
					<line class="st6" x1="56.21" y1="12.6" x2="56.21" y2="7.76"/>
				</g>
				<line class="st6" x1="32.15" y1="12.61" x2="58.33" y2="12.61"/>
				<polyline class="st6" points="56.2,34.22 56.2,46.88 34.28,46.88 34.28,7.76 56.2,7.76 56.2,19.57 				"/>
				<path id="Trazado_11848_2_" class="st7" d="M59.45,27.79c0,2.12-1.72,3.84-3.84,3.84s-3.84-1.72-3.84-3.84s1.72-3.84,3.84-3.84
					l0,0c2.11-0.01,3.83,1.7,3.84,3.81C59.45,27.77,59.45,27.78,59.45,27.79z"/>
				<g>
					<line class="st6" x1="34.28" y1="7.76" x2="34.28" y2="12.56"/>
					<line class="st6" x1="40.92" y1="7.76" x2="40.92" y2="12.56"/>
					<line class="st6" x1="56.21" y1="12.6" x2="56.21" y2="7.76"/>
				</g>
				<line class="st6" x1="32.15" y1="12.61" x2="58.33" y2="12.61"/>
				<path class="st6" d="M34.31,28.21c1.41-1.02,9.35-1.55,11.71-0.55c0.81,0.34,1.95,0.67,3.21,0.86"/>
				<g>
					<line class="st6" x1="46.06" y1="36.18" x2="56.21" y2="36.18"/>
				</g>
				<line class="st6" x1="5.48" y1="46.88" x2="59.52" y2="46.88"/>
			</g>
		</g>
	</g>
	<rect id="Rectángulo_3799-2_16_" class="st3" width="65" height="65"/>
</g>
</svg>
