<svg xmlns="http://www.w3.org/2000/svg" width="84" height="84" viewBox="0 0 84 84">
  <g id="Grupo_13601" data-name="Grupo 13601" transform="translate(557.243 100.302)">
    <path id="Trazado_5703" data-name="Trazado 5703" d="M-482.444-86.776a4.766,4.766,0,0,1-4.766,4.766,4.766,4.766,0,0,1-4.766-4.766,4.765,4.765,0,0,1,4.766-4.765,4.733,4.733,0,0,1,4.766,4.7Z" fill="none" stroke="#19a500" stroke-linecap="round" stroke-linejoin="round" stroke-width="1.6" style="mix-blend-mode: multiply;isolation: isolate"/>
    <g id="Grupo_13593" data-name="Grupo 13593">
      <path id="Trazado_11888" data-name="Trazado 11888" d="M-519.22-86.064c3.559,5.341,1.337,13.074,1.337,13.074s-7.992-.928-11.551-6.269-1.337-13.074-1.337-13.074S-522.779-91.406-519.22-86.064Z" fill="none" stroke="#95a6b1" stroke-linecap="round" stroke-linejoin="round" stroke-width="1.6"/>
      <line id="Línea_1865" data-name="Línea 1865" x1="7.522" y1="11.218" transform="translate(-524.327 -82.662)" fill="none" stroke="#95a6b1" stroke-linecap="round" stroke-linejoin="round" stroke-width="1.6"/>
    </g>
    <g id="Grupo_13594" data-name="Grupo 13594">
      <path id="Trazado_11889" data-name="Trazado 11889" d="M-535.135-83.875c4.843,1.663,7.178,7.64,7.178,7.64s-5.515,3.281-10.357,1.618-7.178-7.64-7.178-7.64S-539.977-85.538-535.135-83.875Z" fill="none" stroke="#95a6b1" stroke-linecap="round" stroke-linejoin="round" stroke-width="1.6"/>
      <line id="Línea_1866" data-name="Línea 1866" x1="9.899" y1="3.367" transform="translate(-536.724 -79.246)" fill="none" stroke="#95a6b1" stroke-linecap="round" stroke-linejoin="round" stroke-width="1.6"/>
    </g>
    <g id="Grupo_13595" data-name="Grupo 13595">
      <path id="Trazado_11890" data-name="Trazado 11890" d="M-545.177-58.184a16.8,16.8,0,0,1,16.8-16.8,16.8,16.8,0,0,1,16.805,16.8" fill="none" stroke="#95a6b1" stroke-linecap="round" stroke-linejoin="round" stroke-width="1.6"/>
      <path id="Trazado_11891" data-name="Trazado 11891" d="M-511.574-58.184a16.8,16.8,0,0,1-16.805,16.8,16.8,16.8,0,0,1-16.8-16.8" fill="none" stroke="#95a6b1" stroke-linecap="round" stroke-linejoin="round" stroke-width="1.6"/>
      <path id="Trazado_11892" data-name="Trazado 11892" d="M-528.432-58.217a4.1,4.1,0,0,1-4.1-4.1,4.1,4.1,0,0,1,4.1-4.1,4.1,4.1,0,0,1,4.1,4.1" fill="none" stroke="#95a6b1" stroke-linecap="round" stroke-linejoin="round" stroke-width="1.6"/>
      <path id="Trazado_11893" data-name="Trazado 11893" d="M-528.432-58.217a4.105,4.105,0,0,1,4.1,4.1,4.1,4.1,0,0,1-4.1,4.1,4.1,4.1,0,0,1-4.1-4.1" fill="none" stroke="#95a6b1" stroke-linecap="round" stroke-linejoin="round" stroke-width="1.6"/>
      <line id="Línea_1867" data-name="Línea 1867" y1="2.279" transform="translate(-528.432 -68.705)" fill="none" stroke="#95a6b1" stroke-linecap="round" stroke-linejoin="round" stroke-width="1.6"/>
      <line id="Línea_1868" data-name="Línea 1868" y1="2.279" transform="translate(-528.432 -50.008)" fill="none" stroke="#95a6b1" stroke-linecap="round" stroke-linejoin="round" stroke-width="1.6"/>
    </g>
    <g id="Grupo_13596" data-name="Grupo 13596">
      <path id="Trazado_11894" data-name="Trazado 11894" d="M-483.828-79.837a16.924,16.924,0,0,1,.291,3.132" fill="none" stroke="#95a6b1" stroke-linecap="round" stroke-linejoin="round" stroke-width="1.6"/>
      <path id="Trazado_11895" data-name="Trazado 11895" d="M-517.14-76.705a16.8,16.8,0,0,1,16.8-16.8,16.734,16.734,0,0,1,7.14,1.588" fill="none" stroke="#95a6b1" stroke-linecap="round" stroke-linejoin="round" stroke-width="1.6"/>
      <path id="Trazado_11896" data-name="Trazado 11896" d="M-483.537-76.705a16.8,16.8,0,0,1-16.805,16.8,16.8,16.8,0,0,1-16.8-16.8" fill="none" stroke="#95a6b1" stroke-linecap="round" stroke-linejoin="round" stroke-width="1.6"/>
      <path id="Trazado_11897" data-name="Trazado 11897" d="M-500.394-76.738a4.105,4.105,0,0,1-4.1-4.105,4.105,4.105,0,0,1,4.1-4.1,4.1,4.1,0,0,1,4.1,4.1" fill="none" stroke="#95a6b1" stroke-linecap="round" stroke-linejoin="round" stroke-width="1.6"/>
      <path id="Trazado_11898" data-name="Trazado 11898" d="M-500.394-76.738a4.1,4.1,0,0,1,4.1,4.1,4.1,4.1,0,0,1-4.1,4.105,4.105,4.105,0,0,1-4.1-4.105" fill="none" stroke="#95a6b1" stroke-linecap="round" stroke-linejoin="round" stroke-width="1.6"/>
      <line id="Línea_1869" data-name="Línea 1869" y1="2.279" transform="translate(-500.394 -87.226)" fill="none" stroke="#95a6b1" stroke-linecap="round" stroke-linejoin="round" stroke-width="1.6"/>
      <line id="Línea_1870" data-name="Línea 1870" y1="2.279" transform="translate(-500.394 -68.529)" fill="none" stroke="#95a6b1" stroke-linecap="round" stroke-linejoin="round" stroke-width="1.6"/>
    </g>
    <g id="Grupo_13599" data-name="Grupo 13599">
      <g id="Grupo_13598" data-name="Grupo 13598">
        <rect id="Rectángulo_4579" data-name="Rectángulo 4579" width="84" height="20.926" transform="translate(-557.243 -37.234)" fill="none"/>
        <g id="Grupo_13597" data-name="Grupo 13597">
          <line id="Línea_1871" data-name="Línea 1871" x2="8.959" transform="translate(-508.101 -22.41)" fill="none" stroke="#4da12e" stroke-linecap="round" stroke-linejoin="round" stroke-width="3"/>
          <line id="Línea_1872" data-name="Línea 1872" x2="0.726" transform="translate(-490.207 -22.41)" fill="none" stroke="#4da12e" stroke-linecap="round" stroke-linejoin="round" stroke-width="3"/>
          <line id="Línea_1873" data-name="Línea 1873" x2="8.876" transform="translate(-541.004 -22.41)" fill="none" stroke="#4da12e" stroke-linecap="round" stroke-linejoin="round" stroke-width="3"/>
          <line id="Línea_1874" data-name="Línea 1874" x2="15.647" transform="translate(-532.706 -22.41)" fill="none" stroke="#96d200" stroke-linecap="round" stroke-linejoin="round" stroke-width="3"/>
          <line id="Línea_1875" data-name="Línea 1875" x2="29.477" transform="translate(-541.004 -30.043)" fill="none" stroke="#96d200" stroke-linecap="round" stroke-linejoin="round" stroke-width="3"/>
          <line id="Línea_1876" data-name="Línea 1876" x2="22.954" transform="translate(-512.435 -30.043)" fill="none" stroke="#4da12e" stroke-linecap="round" stroke-linejoin="round" stroke-width="3"/>
          <line id="Línea_1877" data-name="Línea 1877" x2="0.537" transform="translate(-541.004 -30.043)" fill="none" stroke="#4da12e" stroke-linecap="round" stroke-linejoin="round" stroke-width="3"/>
        </g>
      </g>
    </g>
    <rect id="Rectángulo_4580" data-name="Rectángulo 4580" width="84" height="84" transform="translate(-557.243 -100.302)" fill="none"/>
  </g>
</svg>
