<svg id="Grupo_18849" data-name="Grupo 18849" xmlns="http://www.w3.org/2000/svg" width="65" height="65" viewBox="0 0 65 65">
  <g id="Grupo_18853" data-name="Grupo 18853">
    <g id="Grupo_18849-2" data-name="Grupo 18849">
      <g id="Grupo_13213" data-name="Grupo 13213">
        <rect id="Rectángulo_3799-2" data-name="Rectángulo 3799-2" width="65" height="65" fill="none"/>
      </g>
    </g>
    <g id="Grupo_18852" data-name="Grupo 18852">
      <g id="Grupo_18851" data-name="Grupo 18851">
        <rect id="Rectángulo_5593" data-name="Rectángulo 5593" width="65" height="16.741" transform="translate(0 48.259)" fill="none"/>
        <g id="Grupo_18850" data-name="Grupo 18850">
          <line id="Línea_4046" data-name="Línea 4046" x2="7.167" transform="translate(38.214 60.119)" fill="none" stroke="#4c9f2e" stroke-linecap="round" stroke-linejoin="round" stroke-width="2.4"/>
          <line id="Línea_4047" data-name="Línea 4047" x2="0.581" transform="translate(52.528 60.119)" fill="none" stroke="#4c9f2e" stroke-linecap="round" stroke-linejoin="round" stroke-width="2.4"/>
          <line id="Línea_4048" data-name="Línea 4048" x2="7.101" transform="translate(11.891 60.119)" fill="none" stroke="#4c9f2e" stroke-linecap="round" stroke-linejoin="round" stroke-width="2.4"/>
          <line id="Línea_4049" data-name="Línea 4049" x2="12.517" transform="translate(18.529 60.119)" fill="none" stroke="#94d040" stroke-linecap="round" stroke-linejoin="round" stroke-width="2.4"/>
          <line id="Línea_4050" data-name="Línea 4050" x2="23.582" transform="translate(11.891 54.012)" fill="none" stroke="#94d040" stroke-linecap="round" stroke-linejoin="round" stroke-width="2.4"/>
          <line id="Línea_4051" data-name="Línea 4051" x2="18.363" transform="translate(34.746 54.012)" fill="none" stroke="#4c9f2e" stroke-linecap="round" stroke-linejoin="round" stroke-width="2.4"/>
          <line id="Línea_4052" data-name="Línea 4052" x2="0.429" transform="translate(11.891 54.012)" fill="none" stroke="#4c9f2e" stroke-linecap="round" stroke-linejoin="round" stroke-width="2.4"/>
        </g>
      </g>
    </g>
  </g>
  <g id="Grupo_18858" data-name="Grupo 18858">
    <g id="Grupo_18857" data-name="Grupo 18857">
      <path id="Trazado_19152" data-name="Trazado 19152" d="M39.292,10.993l-3.147,2.373a4.086,4.086,0,0,1-4.828.067l-3.2-2.276a15.6,15.6,0,0,0-2.162,1.052A18.561,18.561,0,0,0,24,13.611l.479,3.9a4.086,4.086,0,0,1-2.355,4.215l-3.584,1.641a15.489,15.489,0,0,0,.073,4.784l3.623,1.537a4.086,4.086,0,0,1,2.472,4.147l-.37,3.918a15.483,15.483,0,0,0,4.173,2.339l3.148-2.373a4.088,4.088,0,0,1,4.828-.068l3.2,2.277A14.2,14.2,0,0,0,43.8,37.474l-.48-3.9a4.088,4.088,0,0,1,2.356-4.215l3.584-1.641a15.488,15.488,0,0,0-.073-4.784L45.568,21.4A4.086,4.086,0,0,1,43.1,17.25l.37-3.918A15.474,15.474,0,0,0,39.292,10.993Z" fill="none" stroke="#95a6b1" stroke-linecap="round" stroke-linejoin="round" stroke-width="1.6"/>
      <g id="Grupo_18854" data-name="Grupo 18854">
        <path id="Trazado_19153" data-name="Trazado 19153" d="M9.762,33.5,15,31.117l5.315,2.209V34.9a12.618,12.618,0,0,1-.311,2.579,10.62,10.62,0,0,1-1.386,3.446,6.594,6.594,0,0,1-1.165,1.437,14.6,14.6,0,0,1-1.767,1.169,1.209,1.209,0,0,1-1.3,0,10.331,10.331,0,0,1-2.719-2.318,9.587,9.587,0,0,1-1.6-3.734A12.556,12.556,0,0,1,9.762,34.9Z" fill="none" stroke="#95a6b1" stroke-linecap="round" stroke-linejoin="round" stroke-width="1.6"/>
        <path id="Trazado_19154" data-name="Trazado 19154" d="M12.779,37.181l1.628,1.436,2.9-3.086" fill="none" stroke="#95a6b1" stroke-linecap="round" stroke-linejoin="round" stroke-width="1.6"/>
      </g>
      <g id="Grupo_18856" data-name="Grupo 18856">
        <g id="Grupo_18855" data-name="Grupo 18855">
          <path id="Rectángulo_5594" data-name="Rectángulo 5594" d="M0,0H9.024a0,0,0,0,1,0,0V5.765a4.512,4.512,0,0,1-4.512,4.512h0A4.512,4.512,0,0,1,0,5.765V0A0,0,0,0,1,0,0Z" transform="translate(38.479 31.639) rotate(180)" fill="none" stroke="#95a6b1" stroke-linecap="round" stroke-linejoin="round" stroke-width="1.6"/>
          <path id="Trazado_19155" data-name="Trazado 19155" d="M38.472,31.639H29.446l-.875,2.381H39.319Z" fill="none" stroke="#95a6b1" stroke-linecap="round" stroke-linejoin="round" stroke-width="1.6"/>
          <line id="Línea_4053" data-name="Línea 4053" y1="1.234" transform="translate(33.914 17.601)" fill="none" stroke="#95a6b1" stroke-linecap="round" stroke-linejoin="round" stroke-width="1.6"/>
          <line id="Línea_4054" data-name="Línea 4054" x1="1.107" y1="1.107" transform="translate(28.058 19.96)" fill="none" stroke="#95a6b1" stroke-linecap="round" stroke-linejoin="round" stroke-width="1.6"/>
          <line id="Línea_4055" data-name="Línea 4055" x1="1.234" transform="translate(40.563 25.776)" fill="none" stroke="#95a6b1" stroke-linecap="round" stroke-linejoin="round" stroke-width="1.6"/>
          <line id="Línea_4056" data-name="Línea 4056" x1="1.234" transform="translate(26.005 25.776)" fill="none" stroke="#95a6b1" stroke-linecap="round" stroke-linejoin="round" stroke-width="1.6"/>
          <line id="Línea_4057" data-name="Línea 4057" y1="1.107" x2="1.107" transform="translate(38.585 19.96)" fill="none" stroke="#95a6b1" stroke-linecap="round" stroke-linejoin="round" stroke-width="1.6"/>
        </g>
      </g>
    </g>
    <path id="Trazado_19156" data-name="Trazado 19156" d="M13.409,31.83a21.372,21.372,0,0,1,5.4-21.052" fill="none" stroke="#95a6b1" stroke-linecap="round" stroke-linejoin="round" stroke-width="1.6"/>
    <path id="Trazado_19157" data-name="Trazado 19157" d="M39.116,46.56a21.376,21.376,0,0,1-20.41-5.715" fill="none" stroke="#95a6b1" stroke-linecap="round" stroke-linejoin="round" stroke-width="1.6"/>
    <path id="Trazado_19158" data-name="Trazado 19158" d="M54.634,20.805a21.372,21.372,0,0,1-6.129,20.616" fill="none" stroke="#95a6b1" stroke-linecap="round" stroke-linejoin="round" stroke-width="1.6"/>
    <path id="Trazado_19159" data-name="Trazado 19159" d="M28.216,5.294a21.377,21.377,0,0,1,19.02,3.914" fill="none" stroke="#95a6b1" stroke-linecap="round" stroke-linejoin="round" stroke-width="1.6"/>
    <path id="Trazado_19160" data-name="Trazado 19160" d="M12.143,10.778h6.692V17.47" fill="none" stroke="#95a6b1" stroke-linecap="round" stroke-linejoin="round" stroke-width="1.6"/>
    <path id="Trazado_19161" data-name="Trazado 19161" d="M55.19,41.42H48.5V34.728" fill="none" stroke="#95a6b1" stroke-linecap="round" stroke-linejoin="round" stroke-width="1.6"/>
  </g>
  <path id="Trazado_11848" data-name="Trazado 11848" d="M55.37,14.908a4.184,4.184,0,1,1-4.183-4.184h0a4.168,4.168,0,0,1,4.183,4.151Z" fill="none" stroke="#00a800" stroke-linecap="round" stroke-linejoin="round" stroke-width="1.6"/>
</svg>
