<svg id="Grupo_19506" data-name="Grupo 19506" xmlns="http://www.w3.org/2000/svg" width="65" height="65" viewBox="0 0 65 65">
  <g id="Grupo_19513" data-name="Grupo 19513">
    <rect id="Rectángulo_5732" data-name="Rectángulo 5732" width="65" height="65" fill="none"/>
    <g id="Grupo_19508" data-name="Grupo 19508">
      <g id="Grupo_19507" data-name="Grupo 19507">
        <rect id="Rectángulo_5733" data-name="Rectángulo 5733" width="65" height="16.741" transform="translate(0 48.259)" fill="none"/>
        <g id="Grupo_19506-2" data-name="Grupo 19506">
          <line id="Línea_4265" data-name="Línea 4265" x2="7.167" transform="translate(38.214 60.119)" fill="none" stroke="#4c9f2e" stroke-linecap="round" stroke-linejoin="round" stroke-width="2.4"/>
          <line id="Línea_4266" data-name="Línea 4266" x2="0.581" transform="translate(52.528 60.119)" fill="none" stroke="#4c9f2e" stroke-linecap="round" stroke-linejoin="round" stroke-width="2.4"/>
          <line id="Línea_4267" data-name="Línea 4267" x2="7.101" transform="translate(11.891 60.119)" fill="none" stroke="#4c9f2e" stroke-linecap="round" stroke-linejoin="round" stroke-width="2.4"/>
          <line id="Línea_4268" data-name="Línea 4268" x2="12.517" transform="translate(18.529 60.119)" fill="none" stroke="#94d040" stroke-linecap="round" stroke-linejoin="round" stroke-width="2.4"/>
          <line id="Línea_4269" data-name="Línea 4269" x2="23.582" transform="translate(11.891 54.012)" fill="none" stroke="#94d040" stroke-linecap="round" stroke-linejoin="round" stroke-width="2.4"/>
          <line id="Línea_4270" data-name="Línea 4270" x2="18.363" transform="translate(34.746 54.012)" fill="none" stroke="#4c9f2e" stroke-linecap="round" stroke-linejoin="round" stroke-width="2.4"/>
          <line id="Línea_4271" data-name="Línea 4271" x2="0.429" transform="translate(11.891 54.012)" fill="none" stroke="#4c9f2e" stroke-linecap="round" stroke-linejoin="round" stroke-width="2.4"/>
        </g>
      </g>
    </g>
    <g id="Grupo_19512" data-name="Grupo 19512">
      <path id="Trazado_19411" data-name="Trazado 19411" d="M45.44,39.823a3.11,3.11,0,1,1-4.122-1.536A3.1,3.1,0,0,1,45.44,39.823Z" fill="none" stroke="#00a800" stroke-linecap="round" stroke-linejoin="round" stroke-width="1.6"/>
      <g id="Grupo_19510" data-name="Grupo 19510">
        <path id="Trazado_19412" data-name="Trazado 19412" d="M54.611,43.207H51.73V29.026h2.881Zm-45.342,0H6.389V29.026h2.88Z" fill="none" stroke="#95a6b1" stroke-linecap="round" stroke-linejoin="round" stroke-width="1.6"/>
        <g id="Grupo_19509" data-name="Grupo 19509">
          <path id="Trazado_19413" data-name="Trazado 19413" d="M12.092,31.352H9.2V40.88h4.194" fill="none" stroke="#95a6b1" stroke-linecap="round" stroke-linejoin="round" stroke-width="1.6"/>
          <path id="Trazado_19414" data-name="Trazado 19414" d="M48.67,40.88H51.73V31.352H11.039" fill="none" stroke="#95a6b1" stroke-linecap="round" stroke-linejoin="round" stroke-width="1.6"/>
          <line id="Línea_4272" data-name="Línea 4272" x2="25.545" transform="translate(11.066 40.88)" fill="none" stroke="#95a6b1" stroke-linecap="round" stroke-linejoin="round" stroke-width="1.6"/>
          <rect id="Rectángulo_5734" data-name="Rectángulo 5734" width="4.09" height="9.528" transform="translate(54.611 31.352)" fill="none" stroke="#95a6b1" stroke-linecap="round" stroke-linejoin="round" stroke-width="1.6"/>
        </g>
      </g>
      <g id="Grupo_19511" data-name="Grupo 19511">
        <rect id="Rectángulo_5166" data-name="Rectángulo 5166" width="12.543" height="6.594" transform="translate(16.126 24.758)" fill="none" stroke="#95a6b1" stroke-linecap="round" stroke-linejoin="round" stroke-width="1.6"/>
        <rect id="Rectángulo_5167" data-name="Rectángulo 5167" width="2.213" height="2.777" transform="translate(21.291 21.981)" fill="none" stroke="#95a6b1" stroke-linecap="round" stroke-linejoin="round" stroke-width="1.6"/>
      </g>
    </g>
  </g>
  <g id="Grupo_19514" data-name="Grupo 19514">
    <path id="Trazado_19415" data-name="Trazado 19415" d="M28.611,41.026v2.181H25.73V41.026" fill="none" stroke="#95a6b1" stroke-linecap="round" stroke-linejoin="round" stroke-width="1.6"/>
    <path id="Trazado_19416" data-name="Trazado 19416" d="M33.73,31.207V29.026h2.88v2.181" fill="none" stroke="#95a6b1" stroke-linecap="round" stroke-linejoin="round" stroke-width="1.6"/>
  </g>
  <g id="Grupo_19516" data-name="Grupo 19516">
    <path id="Trazado_19417" data-name="Trazado 19417" d="M45.329,19.76l.08.448a3.317,3.317,0,0,0,2.564,2.659h0a3.318,3.318,0,0,0-2.564,2.659l-.08.449-.08-.449a3.316,3.316,0,0,0-2.563-2.659h0a3.315,3.315,0,0,0,2.563-2.659Z" fill="none" stroke="#95a6b1" stroke-linecap="round" stroke-linejoin="round" stroke-width="1.6"/>
    <path id="Trazado_19418" data-name="Trazado 19418" d="M52.924,12.888l.1.555A4.107,4.107,0,0,0,56.2,16.735h0a4.1,4.1,0,0,0-3.173,3.292l-.1.555-.1-.555a4.1,4.1,0,0,0-3.173-3.292h0a4.107,4.107,0,0,0,3.173-3.292Z" fill="none" stroke="#95a6b1" stroke-linecap="round" stroke-linejoin="round" stroke-width="1.6"/>
    <g id="Grupo_19515" data-name="Grupo 19515">
      <line id="Línea_4273" data-name="Línea 4273" y2="3.993" transform="translate(47.286 8.417)" fill="none" stroke="#95a6b1" stroke-linecap="round" stroke-linejoin="round" stroke-width="1.6"/>
      <line id="Línea_4274" data-name="Línea 4274" x1="3.993" transform="translate(45.289 10.414)" fill="none" stroke="#95a6b1" stroke-linecap="round" stroke-linejoin="round" stroke-width="1.6"/>
    </g>
  </g>
  <circle id="Elipse_2295" data-name="Elipse 2295" cx="6.209" cy="6.209" r="6.209" transform="translate(16.189 8.914)" fill="none" stroke="#95a6b1" stroke-linecap="round" stroke-linejoin="round" stroke-width="1.6"/>
  <line id="Línea_2440" data-name="Línea 2440" y2="2.2" transform="translate(22.438 13.704)" fill="none" stroke="#95a6b1" stroke-linecap="round" stroke-linejoin="round" stroke-width="1.6"/>
  <line id="Línea_2440-2" data-name="Línea 2440" x1="2.2" transform="translate(22.549 14.904)" fill="none" stroke="#95a6b1" stroke-linecap="round" stroke-linejoin="round" stroke-width="1.6"/>
</svg>
