<svg xmlns="http://www.w3.org/2000/svg" width="168.566" height="48.566" viewBox="0 0 168.566 48.566">
  <g id="Grupo_16964" data-name="Grupo 16964" transform="translate(-191.217 -474.217)">
    <g id="Grupo_10332" data-name="Grupo 10332" transform="translate(309.241 474)">
      <circle id="Elipse_1636" data-name="Elipse 1636" cx="23.5" cy="23.5" r="23.5" transform="translate(-57.241 1)" fill="none" stroke="#fff" stroke-linecap="round" stroke-linejoin="round" stroke-width="1.566"/>
      <g id="Grupo_16945" data-name="Grupo 16945">
        <path id="Trazado_18017" data-name="Trazado 18017" d="M-19.232,36.633c-.018-.046-.037-.092-.056-.138a3.673,3.673,0,0,1,.717-4.045l.324-.324-5.12-5.12-.324.324a3.673,3.673,0,0,1-4.045.717l-.138-.056a3.5,3.5,0,0,1-2.247-3.219v-.563h-7.24v.483A3.473,3.473,0,0,1-39.5,27.92c-.136.055-.271.112-.406.172a3.479,3.479,0,0,1-3.864-.741l-.345-.345-5.12,5.12.324.324a3.675,3.675,0,0,1,.717,4.045l-.057.138" fill="none" stroke="#fff" stroke-linecap="round" stroke-linejoin="round" stroke-width="1.566"/>
        <path id="Trazado_18018" data-name="Trazado 18018" d="M-45.512,39.3a12.2,12.2,0,0,1,11.771-9,12.2,12.2,0,0,1,11.771,9" fill="none" stroke="#fff" stroke-linecap="round" stroke-linejoin="round" stroke-width="1.566"/>
      </g>
      <g id="Grupo_16955" data-name="Grupo 16955">
        <g id="Grupo_16948" data-name="Grupo 16948">
          <line id="Línea_3252" data-name="Línea 3252" y1="10.559" transform="translate(-33.741 13.492)" fill="none" stroke="#fff" stroke-linecap="round" stroke-linejoin="round" stroke-width="1.507"/>
          <path id="Trazado_18019" data-name="Trazado 18019" d="M-33.8,13.492s-3.778-2.966,0-7.407C-33.8,6.085-29.753,9.858-33.8,13.492Z" fill="none" stroke="#fff" stroke-linecap="round" stroke-linejoin="round" stroke-width="1.507"/>
          <g id="Grupo_16946" data-name="Grupo 16946">
            <path id="Trazado_18020" data-name="Trazado 18020" d="M-33.711,20.389s-.734-4.746,5.059-5.411C-28.652,14.978-28.272,20.5-33.711,20.389Z" fill="none" stroke="#fff" stroke-linecap="round" stroke-linejoin="round" stroke-width="1.507"/>
            <path id="Trazado_18021" data-name="Trazado 18021" d="M-33.771,20.389s.734-4.746-5.059-5.411C-38.83,14.978-39.21,20.5-33.771,20.389Z" fill="none" stroke="#fff" stroke-linecap="round" stroke-linejoin="round" stroke-width="1.507"/>
          </g>
          <g id="Grupo_16947" data-name="Grupo 16947">
            <path id="Trazado_18022" data-name="Trazado 18022" d="M-33.711,16.165s-.734-4.746,5.059-5.41C-28.652,10.755-28.272,16.276-33.711,16.165Z" fill="none" stroke="#fff" stroke-linecap="round" stroke-linejoin="round" stroke-width="1.507"/>
            <path id="Trazado_18023" data-name="Trazado 18023" d="M-33.771,16.165s.734-4.746-5.059-5.41C-38.83,10.755-39.21,16.276-33.771,16.165Z" fill="none" stroke="#fff" stroke-linecap="round" stroke-linejoin="round" stroke-width="1.507"/>
          </g>
        </g>
        <g id="Grupo_16951" data-name="Grupo 16951">
          <line id="Línea_3253" data-name="Línea 3253" y1="11.559" transform="translate(-20.233 18.302)" fill="none" stroke="#fff" stroke-linecap="round" stroke-linejoin="round" stroke-width="1.507"/>
          <path id="Trazado_18024" data-name="Trazado 18024" d="M-20.294,18.3s-3.777-2.966,0-7.407C-20.294,10.9-16.245,14.669-20.294,18.3Z" fill="none" stroke="#fff" stroke-linecap="round" stroke-linejoin="round" stroke-width="1.507"/>
          <g id="Grupo_16949" data-name="Grupo 16949">
            <path id="Trazado_18025" data-name="Trazado 18025" d="M-20.2,25.2s-.734-4.747,5.058-5.411C-15.145,19.789-14.764,25.31-20.2,25.2Z" fill="none" stroke="#fff" stroke-linecap="round" stroke-linejoin="round" stroke-width="1.507"/>
            <path id="Trazado_18026" data-name="Trazado 18026" d="M-20.263,25.2s.733-4.747-5.059-5.411C-25.322,19.789-25.7,25.31-20.263,25.2Z" fill="none" stroke="#fff" stroke-linecap="round" stroke-linejoin="round" stroke-width="1.507"/>
          </g>
          <g id="Grupo_16950" data-name="Grupo 16950">
            <path id="Trazado_18027" data-name="Trazado 18027" d="M-20.2,20.976s-.734-4.746,5.058-5.41C-15.145,15.566-14.764,21.087-20.2,20.976Z" fill="none" stroke="#fff" stroke-linecap="round" stroke-linejoin="round" stroke-width="1.507"/>
            <path id="Trazado_18028" data-name="Trazado 18028" d="M-20.263,20.976s.733-4.746-5.059-5.41C-25.322,15.566-25.7,21.087-20.263,20.976Z" fill="none" stroke="#fff" stroke-linecap="round" stroke-linejoin="round" stroke-width="1.507"/>
          </g>
        </g>
        <g id="Grupo_16954" data-name="Grupo 16954">
          <line id="Línea_3254" data-name="Línea 3254" y1="11.559" transform="translate(-47.249 18.302)" fill="none" stroke="#fff" stroke-linecap="round" stroke-linejoin="round" stroke-width="1.507"/>
          <path id="Trazado_18029" data-name="Trazado 18029" d="M-47.309,18.3s-3.778-2.966,0-7.407C-47.309,10.9-43.261,14.669-47.309,18.3Z" fill="none" stroke="#fff" stroke-linecap="round" stroke-linejoin="round" stroke-width="1.507"/>
          <g id="Grupo_16952" data-name="Grupo 16952">
            <path id="Trazado_18030" data-name="Trazado 18030" d="M-47.219,25.2s-.734-4.747,5.059-5.411C-42.16,19.789-41.78,25.31-47.219,25.2Z" fill="none" stroke="#fff" stroke-linecap="round" stroke-linejoin="round" stroke-width="1.507"/>
            <path id="Trazado_18031" data-name="Trazado 18031" d="M-47.279,25.2s.734-4.747-5.059-5.411C-52.338,19.789-52.718,25.31-47.279,25.2Z" fill="none" stroke="#fff" stroke-linecap="round" stroke-linejoin="round" stroke-width="1.507"/>
          </g>
          <g id="Grupo_16953" data-name="Grupo 16953">
            <path id="Trazado_18032" data-name="Trazado 18032" d="M-47.219,20.976s-.734-4.746,5.059-5.41C-42.16,15.566-41.78,21.087-47.219,20.976Z" fill="none" stroke="#fff" stroke-linecap="round" stroke-linejoin="round" stroke-width="1.507"/>
            <path id="Trazado_18033" data-name="Trazado 18033" d="M-47.279,20.976s.734-4.746-5.059-5.41C-52.338,15.566-52.718,21.087-47.279,20.976Z" fill="none" stroke="#fff" stroke-linecap="round" stroke-linejoin="round" stroke-width="1.507"/>
          </g>
        </g>
      </g>
    </g>
    <g id="Grupo_10332-2" data-name="Grupo 10332" transform="translate(311 474)">
      <circle id="Elipse_1636-2" data-name="Elipse 1636" cx="23.5" cy="23.5" r="23.5" transform="translate(1 1)" fill="none" stroke="#fff" stroke-linecap="round" stroke-linejoin="round" stroke-width="1.566"/>
      <g id="Grupo_16958" data-name="Grupo 16958">
        <path id="Trazado_18034" data-name="Trazado 18034" d="M17.035,10.234l1.278,2.244a3.474,3.474,0,0,1-.617,4.233C15.528,18.78,13.362,21,12.755,23.96a10.686,10.686,0,0,0-.039,4.1,16.855,16.855,0,0,0,6.511,9.875l-2.587,1.4a1.062,1.062,0,0,0-.559.937v1.2H32.942V40.23a1.059,1.059,0,0,0-.6-.959c-.975-.467-2.548-1.337-2.548-1.337a16.661,16.661,0,0,0,6.459-9.9,10.691,10.691,0,0,0,.147-3.3c-.374-3.364-2.7-5.845-5.032-8.16a3.475,3.475,0,0,1-.687-3.965l1.132-2.374Z" fill="none" stroke="#fff" stroke-linecap="round" stroke-linejoin="round" stroke-width="1.566"/>
        <rect id="Rectángulo_5284" data-name="Rectángulo 5284" width="18.796" height="2.702" rx="1.349" transform="translate(15.102 7.532)" fill="none" stroke="#fff" stroke-linecap="round" stroke-linejoin="round" stroke-width="1.566"/>
        <g id="Grupo_16956" data-name="Grupo 16956">
          <path id="Trazado_18035" data-name="Trazado 18035" d="M14.123,21.179c2.123,0,2.123,1.741,4.247,1.741s2.124-1.741,4.249-1.741,2.126,1.741,4.252,1.741S29,21.179,31.126,21.179s2.127,1.741,4.255,1.741" fill="none" stroke="#fff" stroke-linecap="round" stroke-linejoin="round" stroke-width="1.566"/>
        </g>
        <g id="Grupo_16957" data-name="Grupo 16957">
          <path id="Trazado_18036" data-name="Trazado 18036" d="M12.764,26.868c2.26,0,2.26,1.741,4.519,1.741s2.26-1.741,4.52-1.741,2.262,1.741,4.524,1.741,2.263-1.741,4.527-1.741,2.263,1.741,4.527,1.741" fill="none" stroke="#fff" stroke-linecap="round" stroke-linejoin="round" stroke-width="1.566"/>
        </g>
        <line id="Línea_3255" data-name="Línea 3255" x2="1.823" transform="translate(20.76 17.746)" fill="none" stroke="#fff" stroke-linecap="round" stroke-linejoin="round" stroke-width="1.566"/>
        <line id="Línea_3256" data-name="Línea 3256" x1="6.441" transform="translate(25.793 17.746)" fill="none" stroke="#fff" stroke-linecap="round" stroke-linejoin="round" stroke-width="1.566"/>
        <line id="Línea_3257" data-name="Línea 3257" x1="1.823" transform="translate(24.318 31.671)" fill="none" stroke="#fff" stroke-linecap="round" stroke-linejoin="round" stroke-width="1.566"/>
        <line id="Línea_3258" data-name="Línea 3258" x2="6.441" transform="translate(14.667 31.671)" fill="none" stroke="#fff" stroke-linecap="round" stroke-linejoin="round" stroke-width="1.566"/>
      </g>
    </g>
    <g id="Grupo_10332-3" data-name="Grupo 10332" transform="translate(309.718 474)">
      <circle id="Elipse_1636-3" data-name="Elipse 1636" cx="23.5" cy="23.5" r="23.5" transform="translate(-117.718 1)" fill="none" stroke="#fff" stroke-linecap="round" stroke-linejoin="round" stroke-width="1.566"/>
      <g id="Grupo_16963" data-name="Grupo 16963">
        <g id="Grupo_16960" data-name="Grupo 16960">
          <path id="Trazado_18037" data-name="Trazado 18037" d="M-105.158,26.374l7.153-16.387,5.362-5.76L-81.072,28.5" fill="none" stroke="#fff" stroke-linecap="round" stroke-linejoin="round" stroke-width="1.566"/>
          <g id="Grupo_16959" data-name="Grupo 16959">
            <path id="Trazado_18038" data-name="Trazado 18038" d="M-99.371,13.207-97.487,15l1.773-1.68,1.788,1.734" fill="none" stroke="#fff" stroke-linecap="round" stroke-linejoin="round" stroke-width="1.566"/>
            <path id="Trazado_18039" data-name="Trazado 18039" d="M-88.515,13.207-90.4,15l-1.773-1.68L-93.96,15.05" fill="none" stroke="#fff" stroke-linecap="round" stroke-linejoin="round" stroke-width="1.566"/>
          </g>
        </g>
        <path id="Trazado_18040" data-name="Trazado 18040" d="M-112.343,26.664h21.8a2.105,2.105,0,0,1,2.1,2.1v.316a2.105,2.105,0,0,1-2.1,2.105h-1.827a2.105,2.105,0,0,0-2.1,2.1v.316a2.105,2.105,0,0,0,2.1,2.1h14.279" fill="none" stroke="#fff" stroke-linecap="round" stroke-linejoin="round" stroke-width="1.566"/>
        <g id="Grupo_16961" data-name="Grupo 16961">
          <path id="Trazado_18041" data-name="Trazado 18041" d="M-104,39.773c1.89,0,1.89,2,3.781,2s1.89-2,3.781-2,1.892,2,3.783,2,1.894-2,3.789-2,1.894,2,3.788,2" fill="none" stroke="#fff" stroke-linecap="round" stroke-linejoin="round" stroke-width="1.566"/>
        </g>
        <g id="Grupo_16962" data-name="Grupo 16962">
          <path id="Trazado_18042" data-name="Trazado 18042" d="M-110.191,30.837c1.985,0,1.985,2,3.97,2s1.988-2,3.976-2,1.988,2,3.977,2" fill="none" stroke="#fff" stroke-linecap="round" stroke-linejoin="round" stroke-width="1.566"/>
        </g>
      </g>
    </g>
  </g>
</svg>
