<?xml version="1.0" encoding="utf-8"?>
<!-- Generator: Adobe Illustrator 24.0.2, SVG Export Plug-In . SVG Version: 6.00 Build 0)  -->
<svg version="1.1" id="Layer_1" xmlns="http://www.w3.org/2000/svg" xmlns:xlink="http://www.w3.org/1999/xlink" x="0px" y="0px"
	 viewBox="0 0 49 49" style="enable-background:new 0 0 49 49;" xml:space="preserve">
<style type="text/css">
	.st0{display:none;}
	.st1{display:inline;fill:#19A500;}
	.st2{fill:none;stroke:#FFFFFF;stroke-width:1.566;stroke-linecap:round;stroke-linejoin:round;}
</style>
<g id="Capa_2" class="st0">
	<rect x="-1.3" y="-1.8" class="st1" width="51.7" height="52.5"/>
</g>
<g id="Grupo_10332" transform="translate(118.502 -0.217)">
	<circle id="Elipse_1636" class="st2" cx="-94" cy="24.7" r="23.5"/>
	<g id="Group_16963">
		<g id="Group_16960">
			<path id="Path_18037" class="st2" d="M-104.9,26.6l7.2-16.4l5.4-5.8l11.6,24.3"/>
			<g id="Group_16959">
				<path id="Path_18038" class="st2" d="M-99.2,13.4l1.9,1.8l1.8-1.7l1.8,1.7"/>
				<path id="Path_18039" class="st2" d="M-88.3,13.4l-1.9,1.8l-1.8-1.7l-1.8,1.7"/>
			</g>
		</g>
		<path id="Path_18040" class="st2" d="M-112.1,26.9h21.8c1.2,0,2.1,0.9,2.1,2.1v0.3c0,1.2-0.9,2.1-2.1,2.1h-1.8
			c-1.2,0-2.1,0.9-2.1,2.1v0.3c0,1.2,0.9,2.1,2.1,2.1h14.3"/>
		<g id="Group_16961">
			<path id="Path_18041" class="st2" d="M-103.8,40c1.9,0,1.9,2,3.8,2s1.9-2,3.8-2s1.9,2,3.8,2s1.9-2,3.8-2s1.9,2,3.8,2"/>
		</g>
		<g id="Group_16962">
			<path id="Path_18042" class="st2" d="M-110,31.1c2,0,2,2,4,2s2-2,4-2s2,2,4,2"/>
		</g>
	</g>
</g>
</svg>
