<?xml version="1.0" encoding="utf-8"?>
<!-- Generator: Adobe Illustrator 24.0.2, SVG Export Plug-In . SVG Version: 6.00 Build 0)  -->
<svg version="1.1" id="Layer_1" xmlns="http://www.w3.org/2000/svg" xmlns:xlink="http://www.w3.org/1999/xlink" x="0px" y="0px"
	 viewBox="0 0 49 49" style="enable-background:new 0 0 49 49;" xml:space="preserve">
<style type="text/css">
	.st0{display:none;}
	.st1{display:inline;fill:#19A500;}
	.st2{fill:none;stroke:#FFFFFF;stroke-width:1.566;stroke-linecap:round;stroke-linejoin:round;}
	.st3{fill:none;stroke:#FFFFFF;stroke-width:1.507;stroke-linecap:round;stroke-linejoin:round;}
</style>
<g id="Capa_2" class="st0">
	<rect x="-1.3" y="-1.8" class="st1" width="51.7" height="52.5"/>
</g>
<g id="Grupo_10332" transform="translate(58.024 -0.217)">
	<circle id="Elipse_1636" class="st2" cx="-33.5" cy="24.7" r="23.5"/>
	<g id="Group_16945">
		<path id="Path_18017" class="st2" d="M-19,36.8c0,0,0-0.1-0.1-0.1c-0.6-1.4-0.3-3,0.7-4l0.3-0.3l-5.1-5.1l-0.3,0.3
			c-1.1,1-2.7,1.3-4,0.7l-0.1-0.1c-1.3-0.5-2.2-1.8-2.2-3.2v-0.6h-7.2v0.5c0,1.4-0.8,2.7-2.1,3.2c-0.1,0.1-0.3,0.1-0.4,0.2
			c-1.3,0.6-2.9,0.3-3.9-0.7l-0.3-0.3l-5.1,5.1l0.3,0.3c1,1.1,1.3,2.7,0.7,4l-0.1,0.1"/>
		<path id="Path_18018" class="st2" d="M-45.3,39.5c1.4-5.3,6.3-9,11.8-9c5.5,0,10.3,3.7,11.8,9"/>
	</g>
	<g id="Group_16955">
		<g id="Group_16948">
			<line id="Line_3252" class="st3" x1="-33.5" y1="24.3" x2="-33.5" y2="13.7"/>
			<path id="Path_18019" class="st3" d="M-33.6,13.7c0,0-3.8-3,0-7.4C-33.6,6.3-29.5,10.1-33.6,13.7z"/>
			<g id="Group_16946">
				<path id="Path_18020" class="st3" d="M-33.5,20.6c0,0-0.7-4.7,5.1-5.4C-28.4,15.2-28.1,20.7-33.5,20.6z"/>
				<path id="Path_18021" class="st3" d="M-33.6,20.6c0,0,0.7-4.7-5.1-5.4C-38.6,15.2-39,20.7-33.6,20.6z"/>
			</g>
			<g id="Group_16947">
				<path id="Path_18022" class="st3" d="M-33.5,16.4c0,0-0.7-4.7,5.1-5.4C-28.4,11-28.1,16.5-33.5,16.4z"/>
				<path id="Path_18023" class="st3" d="M-33.6,16.4c0,0,0.7-4.7-5.1-5.4C-38.6,11-39,16.5-33.6,16.4z"/>
			</g>
		</g>
		<g id="Group_16951">
			<line id="Line_3253" class="st3" x1="-20" y1="30.1" x2="-20" y2="18.5"/>
			<path id="Path_18024" class="st3" d="M-20.1,18.5c0,0-3.8-3,0-7.4C-20.1,11.1-16,14.9-20.1,18.5z"/>
			<g id="Group_16949">
				<path id="Path_18025" class="st3" d="M-20,25.4c0,0-0.7-4.7,5.1-5.4C-14.9,20-14.5,25.5-20,25.4z"/>
				<path id="Path_18026" class="st3" d="M-20,25.4c0,0,0.7-4.7-5.1-5.4C-25.1,20-25.5,25.5-20,25.4z"/>
			</g>
			<g id="Group_16950">
				<path id="Path_18027" class="st3" d="M-20,21.2c0,0-0.7-4.7,5.1-5.4C-14.9,15.8-14.5,21.3-20,21.2z"/>
				<path id="Path_18028" class="st3" d="M-20,21.2c0,0,0.7-4.7-5.1-5.4C-25.1,15.8-25.5,21.3-20,21.2z"/>
			</g>
		</g>
		<g id="Group_16954">
			<line id="Line_3254" class="st3" x1="-47" y1="30.1" x2="-47" y2="18.5"/>
			<path id="Path_18029" class="st3" d="M-47.1,18.5c0,0-3.8-3,0-7.4C-47.1,11.1-43,14.9-47.1,18.5z"/>
			<g id="Group_16952">
				<path id="Path_18030" class="st3" d="M-47,25.4c0,0-0.7-4.7,5.1-5.4C-41.9,20-41.6,25.5-47,25.4z"/>
				<path id="Path_18031" class="st3" d="M-47.1,25.4c0,0,0.7-4.7-5.1-5.4C-52.1,20-52.5,25.5-47.1,25.4z"/>
			</g>
			<g id="Group_16953">
				<path id="Path_18032" class="st3" d="M-47,21.2c0,0-0.7-4.7,5.1-5.4C-41.9,15.8-41.6,21.3-47,21.2z"/>
				<path id="Path_18033" class="st3" d="M-47.1,21.2c0,0,0.7-4.7-5.1-5.4C-52.1,15.8-52.5,21.3-47.1,21.2z"/>
			</g>
		</g>
	</g>
</g>
</svg>
