<?xml version="1.0" encoding="utf-8"?>
<!-- Generator: Adobe Illustrator 24.0.2, SVG Export Plug-In . SVG Version: 6.00 Build 0)  -->
<svg version="1.1" id="Layer_1" xmlns="http://www.w3.org/2000/svg" xmlns:xlink="http://www.w3.org/1999/xlink" x="0px" y="0px"
	 viewBox="0 0 49 49" style="enable-background:new 0 0 49 49;" xml:space="preserve">
<style type="text/css">
	.st0{display:none;}
	.st1{display:inline;fill:#19A500;}
	.st2{fill:none;stroke:#FFFFFF;stroke-width:1.5663;stroke-linecap:round;stroke-linejoin:round;}
</style>
<g id="Capa_2" class="st0">
	<rect x="-1.3" y="-1.8" class="st1" width="51.7" height="52.5"/>
</g>
<g id="Capa_1">
	<g id="Grupo_10332_4_" transform="translate(142 476.052)">
		<ellipse id="Elipse_1636_4_" class="st2" cx="-117.5" cy="-451.5" rx="23.5" ry="23.5"/>
		<g>
			<path class="st2" d="M-125-465.8l1.3,2.2c0.8,1.4,0.5,3.1-0.6,4.2c-2.2,2.1-4.3,4.3-4.9,7.2c-0.3,1.4-0.3,2.7,0,4.1
				c0.7,3.8,3.6,7.9,6.5,9.9l-2.6,1.4c-0.3,0.2-0.6,0.5-0.6,0.9v1.2h16.9v-1.2c0-0.4-0.2-0.8-0.6-1c-1-0.5-2.6-1.3-2.6-1.3
				c3-2,5.7-6,6.5-9.9c0.2-1.1,0.3-2.2,0.2-3.3c-0.4-3.4-2.7-5.9-5-8.2c-1.1-1-1.3-2.6-0.7-4l1.1-2.4L-125-465.8L-125-465.8z"/>
			<path class="st2" d="M-126.9-467.2L-126.9-467.2c0-0.8,0.6-1.4,1.3-1.4h16.1c0.8,0,1.3,0.6,1.3,1.4l0,0c0,0.8-0.6,1.4-1.3,1.4
				h-16.1C-126.3-465.8-126.9-466.4-126.9-467.2z"/>
			<g>
				<path class="st2" d="M-127.9-454.9c2.1,0,2.1,1.7,4.2,1.7c2.1,0,2.1-1.7,4.2-1.7s2.1,1.7,4.2,1.7c2.1,0,2.1-1.7,4.2-1.7
					s2.1,1.7,4.2,1.7"/>
			</g>
			<g>
				<path class="st2" d="M-129.2-449.2c2.3,0,2.3,1.7,4.5,1.7c2.3,0,2.3-1.7,4.5-1.7c2.3,0,2.3,1.7,4.5,1.7c2.3,0,2.3-1.7,4.5-1.7
					s2.3,1.7,4.5,1.7"/>
			</g>
			<line class="st2" x1="-121.2" y1="-458.3" x2="-119.4" y2="-458.3"/>
			<line class="st2" x1="-109.8" y1="-458.3" x2="-116.2" y2="-458.3"/>
			<line class="st2" x1="-115.9" y1="-444.4" x2="-117.7" y2="-444.4"/>
			<line class="st2" x1="-127.3" y1="-444.4" x2="-120.9" y2="-444.4"/>
		</g>
	</g>
</g>
</svg>
