<?xml version="1.0" encoding="utf-8"?>
<!-- Generator: Adobe Illustrator 24.0.2, SVG Export Plug-In . SVG Version: 6.00 Build 0)  -->
<svg version="1.1" id="Layer_1" xmlns="http://www.w3.org/2000/svg" xmlns:xlink="http://www.w3.org/1999/xlink" x="0px" y="0px"
	 viewBox="0 0 130 120" style="enable-background:new 0 0 130 120;" xml:space="preserve">
<style type="text/css">
	.st0{display:none;}
	.st1{display:inline;fill:#53BA3A;}
	.st2{fill:none;stroke:#FFFFFF;stroke-width:3;stroke-linecap:round;stroke-linejoin:round;}
	.st3{fill:#FFFFFF;}
</style>
<g id="Capa_1" class="st0">
	<rect x="-0.1" class="st1" width="130.1" height="120"/>
</g>
<g id="Capa_3">
	<path class="st2" d="M8.5,41.3H9c0.4,0,0.8,0.3,0.9,0.7l0.6,1.8c0,0,0,0,0,0.1l1.5,5.7c0.1,0.3,0.3,0.5,0.6,0.7l3.4,1.5
		c0.3,0.2,0.8,0.1,1-0.1l1.5-1.2c0.3-0.3,0.8-0.3,1.1-0.1l0.8,0.5c0.3,0.2,0.4,0.4,0.5,0.7l0.9,5.6c0.1,0.5,0.5,0.9,1,0.8l1.6-0.1
		c0.1,0,0.3,0,0.4,0l3.2,1.1c0.2,0.1,0.4,0.2,0.5,0.4l4.2,6.5c0.2,0.4,0.7,0.5,1.1,0.4l10.9-2.6c0.3-0.1,0.5,0,0.8,0.1l2.7,1.8
		c0.5,0.4,1.3,0.1,1.5-0.5l1.9-5.8c0-0.1,0-0.2,0-0.3l0.1-5.8c0-0.3,0.1-0.5,0.3-0.7l4-4.1c0.4-0.4,1-0.4,1.4,0l4.3,3.9
		c0.3,0.3,0.4,0.8,0.2,1.2l-4.1,8c-0.2,0.5-0.1,1.1,0.4,1.3l1.8,1c0.3,0.2,0.8,0.2,1.1,0l7-4.9c0.2-0.1,0.3-0.3,0.4-0.6l1-4.2
		c0.1-0.4,0.4-0.7,0.8-0.7l0.4-0.1c0.2,0,0.4,0,0.6,0l3.8,1.5c0.4,0.2,0.9,0,1.2-0.3l3.9-5.2c0.1-0.1,0.2-0.2,0.4-0.3l7.3-3.5
		c0.2-0.1,0.4-0.3,0.5-0.6l2.4-8c0-0.1,0.1-0.3,0-0.4l-0.3-3.1c0-0.3-0.2-0.5-0.4-0.7l-2.8-2.1c-0.4-0.3-0.5-1-0.2-1.4l1.5-2
		c0.3-0.5,1-0.5,1.4-0.2l3.8,3.3c0.1,0,0.1,0.1,0.1,0.1l1.4,1.8c0.3,0.4,0.8,0.5,1.3,0.3l2.9-1.6c0.2-0.1,0.4-0.3,0.5-0.5l2.9-7.8
		c0.1-0.1,0.1-0.3,0.1-0.5l-0.7-7.1c0-0.1,0-0.1,0-0.2l0.2-3.3c0.1-0.7,0.8-1.1,1.4-0.8l3.4,1.4c0.3,0.1,0.7,0.1,0.9-0.1l3-2
		c0.1-0.1,0.2-0.2,0.3-0.4l1.6-2.8c0.1-0.2,0.4-0.4,0.6-0.5l8.7-2.1c0.2,0,0.4,0,0.6,0l3.6,1.3c0.5,0.2,0.8,0.8,0.6,1.3L124,16
		c-0.1,0.2-0.2,0.3-0.3,0.4l-3.6,3.2c-0.2,0.2-0.3,0.4-0.3,0.7l-0.4,8.3c0,0.2-0.1,0.5-0.3,0.7l-7.3,7.1c0,0,0,0-0.1,0l-4.1,3.5
		c-0.2,0.2-0.4,0.5-0.3,0.8l0.2,6.2c0,0.5,0.3,0.8,0.8,1l1.4,0.3c0.5,0.1,0.8,0.6,0.8,1.1l-0.6,3.8c0,0.1,0,0.2-0.1,0.2l-1.4,3.4
		c-0.1,0.2-0.2,0.4-0.4,0.5l-1.7,1c-0.7,0.4-0.7,1.5,0.1,1.8l3.2,1.2c0.2,0.1,0.3,0.2,0.4,0.3l4.1,4.6c0.2,0.2,0.3,0.6,0.2,0.9
		l-2.2,8.4c-0.2,0.7-1.1,1-1.7,0.5l-2.2-2.2c-0.4-0.4-1.2-0.4-1.5,0.1l-3.1,4.4c0,0.1-0.1,0.1-0.2,0.2l-9.1,8
		c-0.4,0.3-1,0.3-1.4-0.1l-4.2-4.3c-0.3-0.3-0.7-0.4-1.1-0.2l-2.4,1c-0.3,0.1-0.5,0.4-0.6,0.7L83,90.6c-0.1,0.2-0.1,0.4-0.3,0.5
		l-1.2,1.1c-0.4,0.4-0.4,1.1,0,1.5l2.3,2.1c0.4,0.3,0.4,1,0.1,1.4l-3.2,4c-0.2,0.3-0.7,0.4-1,0.3l-1.1-0.3c-0.6-0.2-1.2,0.3-1.2,0.9
		l-0.3,9.2c0,0.2-0.1,0.4-0.2,0.5l-2.3,3.4c-0.2,0.3-0.5,0.4-0.8,0.4h-3.2c-0.2,0-0.4-0.1-0.6-0.2l-5.4-3.6
		c-0.1-0.1-0.2-0.2-0.3-0.3l-3.9-6.1c-0.2-0.3-0.6-0.5-1-0.4l-3.6,0.5c-0.4,0.1-0.8-0.1-1-0.4l-1.2-1.8c-0.2-0.3-0.2-0.6-0.1-0.9
		l3-7.6c0.1-0.2,0.1-0.4,0-0.6L55.2,87c-0.1-0.3-0.3-0.7-0.7-0.8l-2.3-0.8c-0.4-0.1-0.7-0.5-0.7-0.9v-2.5c0-0.3-0.2-0.7-0.5-0.8
		l-5.6-3.6c-0.1-0.1-0.2-0.2-0.3-0.3l-2.1-3.4c-0.3-0.5-1-0.6-1.5-0.2l-2.4,2.1l-5.7,4.8c-0.2,0.2-0.4,0.5-0.4,0.8l0,0
		c0,0.8-0.8,1.3-1.5,0.9L22,76.3c-0.2-0.1-0.4-0.4-0.5-0.7l-2.2-10.4c0-0.1,0-0.1,0-0.2l-1.3-3.2c-0.3-0.7-1.1-0.8-1.6-0.3l-2.4,2.5
		c-0.3,0.3-0.7,0.4-1,0.3l-3-0.9c-0.3-0.1-0.6,0-0.8,0.1l-2.4,1.5c-0.2,0.1-0.3,0.2-0.5,0.2H3.6c-0.5,0-1-0.4-1-1v-3.1
		c0-0.2,0.1-0.4,0.2-0.6l2.5-3.5c0.2-0.2,0.2-0.5,0.2-0.7l-1-7.7c0,0,0-0.1,0-0.1v-1.9c0-0.2,0.1-0.4,0.2-0.6l3-4.4
		C7.8,41.4,8.2,41.3,8.5,41.3z"/>
	<circle id="Elipse_2313_1_" class="st3" cx="66" cy="93.4" r="1.9"/>
	<circle id="Elipse_2314_1_" class="st3" cx="65.2" cy="85.6" r="1.9"/>
	<circle id="Elipse_2315_1_" class="st3" cx="10.4" cy="55.4" r="1.9"/>
</g>
</svg>
