<?xml version="1.0" encoding="utf-8"?>
<!-- Generator: Adobe Illustrator 24.0.2, SVG Export Plug-In . SVG Version: 6.00 Build 0)  -->
<svg version="1.1" id="Layer_1" xmlns="http://www.w3.org/2000/svg" xmlns:xlink="http://www.w3.org/1999/xlink" x="0px" y="0px"
	 width="47px" height="47px" viewBox="0 0 47 47" style="enable-background:new 0 0 47 47;" xml:space="preserve">
<style type="text/css">
	.st0{clip-path:url(#SVGID_2_);}
	.st1{fill:#FFFFFF;}
	.st2{clip-path:url(#SVGID_4_);}
</style>
<g id="Group_9813" transform="translate(-3298.899 -152.773)">
	<g id="Group_410">
		<g>
			<defs>
				<rect id="SVGID_1_" x="3298.9" y="152.8" width="47" height="47"/>
			</defs>
			<clipPath id="SVGID_2_">
				<use xlink:href="#SVGID_1_"  style="overflow:visible;"/>
			</clipPath>
			<g id="Group_409" class="st0">
				<g id="Line_310">
					<path class="st1" d="M3328.8,191.8H3307c-0.4,0-0.8-0.4-0.8-0.8s0.4-0.8,0.8-0.8h21.8c0.4,0,0.8,0.4,0.8,0.8
						S3329.3,191.8,3328.8,191.8z"/>
				</g>
				<g id="Line_311">
					<path class="st1" d="M3307,191.8C3307,191.8,3307,191.8,3307,191.8c-0.5,0-0.8-0.4-0.8-0.9l0.3-4c0-0.4,0.4-0.7,0.8-0.7
						c0.4,0,0.8,0.4,0.7,0.8l-0.3,4C3307.8,191.5,3307.5,191.8,3307,191.8z"/>
				</g>
				<g id="Group_408">
					<g>
						<defs>
							<rect id="SVGID_3_" x="3298.9" y="152.8" width="47" height="47"/>
						</defs>
						<clipPath id="SVGID_4_">
							<use xlink:href="#SVGID_3_"  style="overflow:visible;"/>
						</clipPath>
						<g id="Group_407" class="st2">
							<g id="Path_205">
								<path class="st1" d="M3328.8,191.8c-0.4,0-0.7-0.3-0.8-0.7l-0.4-4.8c0-0.5-0.1-1.1-0.1-1.6c-0.1-1.8-0.1-3.5-1.2-4.8
									c-0.9-1-2.2-1.7-3.5-2c-1.5-0.2-3.1-0.3-4.6-0.3c-1.6-0.1-3.1,0-4.6,0.4c-0.4,0.1-0.8-0.1-1-0.6c-0.1-0.4,0.1-0.8,0.6-1
									c1.6-0.4,3.3-0.6,5-0.4c1.6,0,3.2,0.1,4.8,0.3c1.7,0.3,3.3,1.2,4.5,2.5c1.4,1.7,1.5,3.8,1.5,5.7c0,0.5,0,1,0.1,1.5l0.4,4.8
									C3329.6,191.4,3329.3,191.8,3328.8,191.8C3328.9,191.8,3328.8,191.8,3328.8,191.8z"/>
							</g>
							<g id="Path_206">
								<path class="st1" d="M3317.9,174.1C3317.9,174.1,3317.9,174.1,3317.9,174.1c-2.8,0-5-2.2-5-4.9c0-0.4,0.3-0.8,0.8-0.8
									c0.4,0,0.8,0.3,0.8,0.8c0,1.9,1.5,3.4,3.4,3.4c1,0,1.8-0.3,2.4-1c0.7-0.6,1-1.5,1-2.4c0-0.4,0.4-0.8,0.8-0.8c0,0,0,0,0,0
									c0.4,0,0.8,0.4,0.8,0.8c0,1.3-0.6,2.6-1.5,3.5C3320.5,173.6,3319.2,174.1,3317.9,174.1z"/>
							</g>
							<g id="Path_207">
								<path class="st1" d="M3322.2,169.9c-0.4,0-0.8-0.4-0.8-0.8v-2.9c0-1.9-1.5-3.4-3.4-3.4s-3.4,1.5-3.4,3.4v2.9
									c0,0.4-0.4,0.8-0.8,0.8s-0.8-0.4-0.8-0.8v-2.9c0-2.8,2.2-5,5-5s5,2.2,5,5v2.9C3322.9,169.6,3322.6,169.9,3322.2,169.9z"/>
							</g>
							<g id="Path_208">
								<path class="st1" d="M3307.6,184.7C3307.6,184.7,3307.6,184.7,3307.6,184.7c-2.2,0-4-1.8-4-4c0-1.1,0.4-2.1,1.2-2.8
									c0.8-0.8,1.8-1.2,2.8-1.2c0,0,0,0,0,0c2.2,0,4,1.8,4,4c0,0,0,0,0,0C3311.6,182.9,3309.8,184.7,3307.6,184.7z M3307.6,178.2
									c-0.6,0-1.3,0.2-1.7,0.7c-0.5,0.5-0.7,1.1-0.7,1.7c0,1.3,1.1,2.4,2.4,2.4c0,0,0,0,0,0c1.3,0,2.4-1.1,2.4-2.4v0
									C3310,179.3,3308.9,178.2,3307.6,178.2C3307.6,178.2,3307.6,178.2,3307.6,178.2z"/>
							</g>
							<g id="Path_209">
								<path class="st1" d="M3334.8,172.3c-3.9,0-7-3.2-7-7c0-3.9,3.2-7,7-7h0c1.9,0,3.6,0.7,5,2.1c1.3,1.3,2.1,3.1,2.1,5
									C3341.8,169.2,3338.7,172.3,3334.8,172.3z M3334.8,159.8L3334.8,159.8c-3,0-5.5,2.4-5.5,5.5c0,3,2.4,5.5,5.5,5.5
									s5.5-2.4,5.5-5.5c0-1.5-0.6-2.8-1.6-3.9C3337.6,160.4,3336.2,159.8,3334.8,159.8z"/>
							</g>
							<g id="Path_210">
								<path class="st1" d="M3334.5,167.7c-0.2,0-0.5-0.1-0.6-0.3l-2.1-2.5c-0.3-0.3-0.2-0.8,0.1-1.1c0.3-0.3,0.8-0.2,1.1,0.1
									l1.4,1.7l5.5-8.3c0.2-0.4,0.7-0.5,1.1-0.2c0.4,0.2,0.5,0.7,0.2,1.1l-6.1,9.2C3335,167.5,3334.8,167.7,3334.5,167.7
									C3334.5,167.7,3334.5,167.7,3334.5,167.7z"/>
							</g>
						</g>
					</g>
				</g>
			</g>
		</g>
	</g>
</g>
</svg>
