<?xml version="1.0" encoding="utf-8"?>
<!-- Generator: Adobe Illustrator 24.0.2, SVG Export Plug-In . SVG Version: 6.00 Build 0)  -->
<svg version="1.1" id="Layer_1" xmlns="http://www.w3.org/2000/svg" xmlns:xlink="http://www.w3.org/1999/xlink" x="0px" y="0px"
	 width="27px" height="27px" viewBox="0 0 27 27" style="enable-background:new 0 0 27 27;" xml:space="preserve">
<style type="text/css">
	.st0{opacity:0.4;enable-background:new    ;}
	.st1{fill:#FFFFFF;}
	.st2{opacity:0.7;enable-background:new    ;}
	.st3{fill:none;}
</style>
<g id="Group_9817" transform="translate(4481 -29)">
	<g id="Group_9816" transform="translate(-0.201 -0.23)">
		<g id="Group_9815" transform="translate(-7066.168)">
			<g id="Line_64" class="st0">
				<path class="st1" d="M2591.4,52.6c-0.6,0-1.2-0.2-1.7-0.7c-0.9-0.9-0.9-2.4,0-3.3l9.3-9.3c0.9-0.9,2.4-0.9,3.3,0
					c0.9,0.9,0.9,2.4,0,3.3l-9.3,9.3C2592.6,52.3,2592,52.6,2591.4,52.6z"/>
			</g>
			<g id="Line_65">
				<path class="st1" d="M2591.4,52.6c-0.6,0-1.2-0.2-1.7-0.7c-0.4-0.4-0.7-1-0.7-1.7c0-0.6,0.3-1.2,0.7-1.7c0.9-0.9,2.5-0.9,3.3,0
					c0.4,0.4,0.7,1,0.7,1.7c0,0.6-0.2,1.2-0.7,1.7C2592.6,52.3,2592,52.6,2591.4,52.6z"/>
			</g>
			<g id="Line_66-2">
				<path class="st1" d="M2598.9,45.1c-0.6,0-1.2-0.2-1.7-0.7c-0.9-0.9-0.9-2.4,0-3.3l7.5-7.5c0.9-0.9,2.4-0.9,3.3,0
					c0.9,0.9,0.9,2.4,0,3.3l-7.5,7.5C2600.1,44.9,2599.5,45.1,2598.9,45.1z"/>
			</g>
		</g>
		<g id="Group_432" transform="translate(-7066.168)">
			<g id="Line_64-2" class="st0">
				<path class="st1" d="M2600.7,46.9c-0.6,0-1.2-0.2-1.7-0.7l-9.3-9.3c-0.9-0.9-0.9-2.4,0-3.3c0.9-0.9,2.4-0.9,3.3,0l9.3,9.3
					c0.9,0.9,0.9,2.4,0,3.3C2601.9,46.7,2601.3,46.9,2600.7,46.9z"/>
			</g>
			<g id="Line_65-2">
				<path class="st1" d="M2591.4,37.6c-0.2,0-0.3,0-0.5,0c-0.2,0-0.3-0.1-0.4-0.1c-0.1-0.1-0.3-0.1-0.4-0.2
					c-0.1-0.1-0.2-0.2-0.4-0.3c-0.4-0.4-0.7-1.1-0.7-1.7c0-0.2,0-0.3,0-0.5c0-0.2,0.1-0.3,0.1-0.4c0.1-0.1,0.1-0.3,0.2-0.4
					c0.1-0.1,0.2-0.2,0.3-0.4c0.1-0.1,0.2-0.2,0.4-0.3c0.1-0.1,0.3-0.2,0.4-0.2c0.1-0.1,0.3-0.1,0.4-0.1c0.8-0.1,1.6,0.1,2.1,0.6
					c0.1,0.1,0.2,0.2,0.3,0.4c0.1,0.1,0.2,0.3,0.2,0.4c0.1,0.1,0.1,0.3,0.1,0.4c0,0.1,0,0.3,0,0.5c0,0.6-0.2,1.2-0.7,1.7
					C2592.6,37.3,2592,37.6,2591.4,37.6z"/>
			</g>
			<g id="Line_66-2-2" class="st2">
				<path class="st1" d="M2606.4,52.6c-0.6,0-1.2-0.2-1.7-0.7l-7.5-7.5c-0.9-0.9-0.9-2.4,0-3.3c0.9-0.9,2.4-0.9,3.3,0l7.5,7.5
					c0.9,0.9,0.9,2.4,0,3.3C2607.6,52.3,2607,52.6,2606.4,52.6z"/>
			</g>
		</g>
	</g>
	<g id="Rectangle_1558">
		<rect x="-4481" y="29" class="st3" width="27" height="27"/>
	</g>
</g>
</svg>
