<?xml version="1.0" encoding="utf-8"?>
<!-- Generator: Adobe Illustrator 24.0.2, SVG Export Plug-In . SVG Version: 6.00 Build 0)  -->
<svg version="1.1" id="Layer_1" xmlns="http://www.w3.org/2000/svg" xmlns:xlink="http://www.w3.org/1999/xlink" x="0px" y="0px"
	 width="47px" height="47px" viewBox="0 0 47 47" style="enable-background:new 0 0 47 47;" xml:space="preserve">
<style type="text/css">
	.st0{clip-path:url(#SVGID_2_);}
	.st1{fill:#FFFFFF;}
	.st2{clip-path:url(#SVGID_4_);}
</style>
<g>
	<defs>
		<rect id="SVGID_1_" y="0" width="47" height="47"/>
	</defs>
	<clipPath id="SVGID_2_">
		<use xlink:href="#SVGID_1_"  style="overflow:visible;"/>
	</clipPath>
	<g id="Line_310_1_" class="st0">
		<path class="st1" d="M29.9,39.1H8.1c-0.4,0-0.8-0.4-0.8-0.8s0.4-0.8,0.8-0.8h21.8c0.4,0,0.8,0.4,0.8,0.8S30.4,39.1,29.9,39.1z"/>
	</g>
	<g id="Line_311_1_" class="st0">
		<path class="st1" d="M8.2,39.1C8.1,39.1,8.1,39.1,8.2,39.1c-0.5,0-0.8-0.4-0.8-0.9l0.3-4c0-0.4,0.4-0.7,0.8-0.7
			c0.4,0,0.8,0.4,0.7,0.8l-0.3,4C8.9,38.8,8.6,39.1,8.2,39.1z"/>
	</g>
	<g class="st0">
		<defs>
			<rect id="SVGID_3_" y="0" width="47" height="47"/>
		</defs>
		<clipPath id="SVGID_4_">
			<use xlink:href="#SVGID_3_"  style="overflow:visible;"/>
		</clipPath>
		<g id="Group_407_1_" class="st2">
			<g id="Path_205_1_">
				<path class="st1" d="M29.9,39.1c-0.4,0-0.7-0.3-0.8-0.7l-0.4-4.8c0-0.5-0.1-1.1-0.1-1.6c-0.1-1.8-0.1-3.5-1.2-4.8
					c-0.9-1-2.2-1.7-3.5-2c-1.5-0.2-3.1-0.3-4.6-0.3c-1.6-0.1-3.1,0-4.6,0.4c-0.4,0.1-0.8-0.1-1-0.6c-0.1-0.4,0.1-0.8,0.6-1
					c1.6-0.4,3.3-0.6,5-0.4c1.6,0,3.2,0.1,4.8,0.3c1.7,0.3,3.3,1.2,4.5,2.5c1.4,1.7,1.5,3.8,1.5,5.7c0,0.5,0,1,0.1,1.5l0.4,4.8
					C30.7,38.7,30.4,39,29.9,39.1C30,39.1,29.9,39.1,29.9,39.1z"/>
			</g>
			<g id="Path_206_1_">
				<path class="st1" d="M19,21.3C19,21.3,19,21.3,19,21.3c-2.8,0-5-2.2-5-4.9c0-0.4,0.3-0.8,0.8-0.8c0.4,0,0.8,0.3,0.8,0.8
					c0,1.9,1.5,3.4,3.4,3.4c1,0,1.8-0.3,2.4-1c0.7-0.6,1-1.5,1-2.4c0-0.4,0.4-0.8,0.8-0.8c0,0,0,0,0,0c0.4,0,0.8,0.4,0.8,0.8
					c0,1.3-0.6,2.6-1.5,3.5C21.6,20.8,20.3,21.3,19,21.3z"/>
			</g>
			<g id="Path_207_1_">
				<path class="st1" d="M23.3,17.2c-0.4,0-0.8-0.4-0.8-0.8v-2.9c0-1.9-1.5-3.4-3.4-3.4s-3.4,1.5-3.4,3.4v2.9c0,0.4-0.4,0.8-0.8,0.8
					S14,16.8,14,16.4v-2.9c0-2.8,2.2-5,5-5s5,2.2,5,5v2.9C24,16.8,23.7,17.2,23.3,17.2z"/>
			</g>
			<g id="Path_208_1_">
				<path class="st1" d="M8.7,31.9C8.7,31.9,8.7,31.9,8.7,31.9c-2.2,0-4-1.8-4-4c0-1.1,0.4-2.1,1.2-2.8c0.8-0.8,1.8-1.2,2.8-1.2
					c0,0,0,0,0,0c2.2,0,4,1.8,4,4c0,0,0,0,0,0C12.7,30.1,10.9,31.9,8.7,31.9z M8.7,25.5c-0.6,0-1.3,0.2-1.7,0.7
					c-0.5,0.5-0.7,1.1-0.7,1.7c0,1.3,1.1,2.4,2.4,2.4c0,0,0,0,0,0c1.3,0,2.4-1.1,2.4-2.4v0C11.1,26.6,10,25.5,8.7,25.5
					C8.7,25.5,8.7,25.5,8.7,25.5z M11.9,27.9L11.9,27.9L11.9,27.9z"/>
			</g>
		</g>
	</g>
</g>
<g>
	<path class="st1" d="M37.8,20.2c-0.2,0-0.4-0.1-0.5-0.2L27,10.9c-0.2-0.2-0.3-0.4-0.3-0.6c0-0.2,0.1-0.4,0.3-0.6l6.8-5.4
		c0.2-0.1,0.4-0.2,0.6-0.2l8.2,1.2c0.2,0,0.4,0.2,0.6,0.4c0.1,0.2,0.1,0.4,0.1,0.7l-4.6,13.3c-0.1,0.2-0.3,0.4-0.5,0.5
		C38,20.2,37.9,20.2,37.8,20.2z M28.7,10.3l8.7,7.8l3.9-11.3l-6.9-1L28.7,10.3z"/>
</g>
</svg>
