<?xml version="1.0" encoding="utf-8"?>
<!-- Generator: Adobe Illustrator 24.0.2, SVG Export Plug-In . SVG Version: 6.00 Build 0)  -->
<svg version="1.1" id="Layer_1" xmlns="http://www.w3.org/2000/svg" xmlns:xlink="http://www.w3.org/1999/xlink" x="0px" y="0px"
	 width="47px" height="47px" viewBox="0 0 47 47" style="enable-background:new 0 0 47 47;" xml:space="preserve">
<style type="text/css">
	.st0{clip-path:url(#SVGID_2_);}
	.st1{fill:#FFFFFF;}
	.st2{clip-path:url(#SVGID_4_);}
</style>
<g id="Group_9814" transform="translate(-3641.555 -152.215)">
	<g id="Group_405">
		<g>
			<defs>
				<rect id="SVGID_1_" x="3641.6" y="152.2" width="47" height="47"/>
			</defs>
			<clipPath id="SVGID_2_">
				<use xlink:href="#SVGID_1_"  style="overflow:visible;"/>
			</clipPath>
			<g id="Group_404" class="st0">
				<g id="Line_307">
					<path class="st1" d="M3671.5,191.3h-21.8c-0.4,0-0.8-0.4-0.8-0.8s0.4-0.8,0.8-0.8h21.8c0.4,0,0.8,0.4,0.8,0.8
						S3671.9,191.3,3671.5,191.3z"/>
				</g>
				<g id="Line_308">
					<path class="st1" d="M3649.7,191.3C3649.7,191.3,3649.7,191.3,3649.7,191.3c-0.5,0-0.8-0.4-0.8-0.9l0.3-4
						c0-0.4,0.4-0.7,0.8-0.7c0.4,0,0.8,0.4,0.7,0.8l-0.3,4C3650.5,191,3650.1,191.3,3649.7,191.3z"/>
				</g>
				<g id="Group_403">
					<g>
						<defs>
							<rect id="SVGID_3_" x="3641.6" y="152.2" width="47" height="47"/>
						</defs>
						<clipPath id="SVGID_4_">
							<use xlink:href="#SVGID_3_"  style="overflow:visible;"/>
						</clipPath>
						<g id="Group_402" class="st2">
							<g id="Path_199">
								<path class="st1" d="M3671.5,191.3c-0.4,0-0.7-0.3-0.8-0.7l-0.4-4.8c0-0.5-0.1-1.1-0.1-1.6c-0.1-1.8-0.1-3.5-1.2-4.8
									c-0.9-1-2.2-1.7-3.5-2c-1.5-0.2-3.1-0.3-4.6-0.3c-1.6-0.1-3.1,0-4.6,0.4c-0.4,0.1-0.8-0.1-1-0.6c-0.1-0.4,0.1-0.8,0.6-1
									c1.6-0.4,3.3-0.6,5-0.4c1.5,0,3.2,0.1,4.8,0.3c1.7,0.3,3.3,1.2,4.5,2.5c1.4,1.7,1.5,3.8,1.5,5.7c0,0.5,0,1,0.1,1.5l0.4,4.8
									C3672.3,190.9,3672,191.2,3671.5,191.3C3671.5,191.3,3671.5,191.3,3671.5,191.3z"/>
							</g>
							<g id="Path_200">
								<path class="st1" d="M3660.6,173.5C3660.6,173.5,3660.5,173.5,3660.6,173.5c-2.8,0-5-2.2-5-4.9c0-0.4,0.3-0.8,0.8-0.8
									c0.4-0.1,0.8,0.3,0.8,0.8c0,1.9,1.5,3.4,3.4,3.4c1,0,1.8-0.3,2.4-1c0.7-0.6,1-1.5,1-2.4c0-0.4,0.4-0.8,0.8-0.8c0,0,0,0,0,0
									c0.4,0,0.8,0.4,0.8,0.8c0,1.3-0.6,2.6-1.5,3.5C3663.1,173,3661.9,173.5,3660.6,173.5z"/>
							</g>
							<g id="Path_201">
								<path class="st1" d="M3664.8,169.4c-0.4,0-0.8-0.4-0.8-0.8v-2.9c0-1.9-1.5-3.4-3.4-3.4s-3.4,1.5-3.4,3.4v2.9
									c0,0.4-0.4,0.8-0.8,0.8s-0.8-0.4-0.8-0.8v-2.9c0-2.8,2.2-5,5-5s5,2.2,5,5v2.9C3665.6,169,3665.2,169.4,3664.8,169.4z"/>
							</g>
							<g id="Path_202">
								<path class="st1" d="M3650.2,184.1C3650.2,184.1,3650.2,184.1,3650.2,184.1c-2.2,0-4-1.8-4-4c0-1.1,0.4-2.1,1.2-2.8
									c0.8-0.8,1.8-1.2,2.8-1.2c0,0,0,0,0,0c2.2,0,4,1.8,4,4c0,0,0,0,0,0C3654.2,182.3,3652.4,184.1,3650.2,184.1z M3650.2,177.7
									c-0.6,0-1.3,0.2-1.7,0.7c-0.5,0.5-0.7,1.1-0.7,1.7c0,1.3,1.1,2.4,2.4,2.4c0,0,0,0,0,0c1.3,0,2.4-1.1,2.4-2.4v0
									C3652.7,178.8,3651.6,177.7,3650.2,177.7C3650.3,177.7,3650.3,177.7,3650.2,177.7z M3653.5,180.1L3653.5,180.1L3653.5,180.1
									z"/>
							</g>
							<g id="Path_203">
								<path class="st1" d="M3677.4,171.8c-3.9,0-7-3.2-7-7c0-3.9,3.2-7,7-7s7,3.2,7,7v0C3684.5,168.6,3681.3,171.8,3677.4,171.8z
									 M3677.4,159.3c-3,0-5.5,2.4-5.5,5.5c0,3,2.4,5.5,5.5,5.5s5.5-2.4,5.5-5.5C3682.9,161.7,3680.4,159.3,3677.4,159.3z"/>
							</g>
							<g id="Path_204">
								<path class="st1" d="M3677.4,167.6c-0.4,0-0.8-0.4-0.8-0.8v-1.4c0-0.4,0.4-0.8,0.8-0.8c0.7,0,1.3-0.6,1.3-1.3
									c0-0.3-0.1-0.7-0.4-0.9s-0.6-0.4-0.9-0.4c0,0,0,0,0,0c-0.5,0-1,0.3-1.2,0.8c-0.2,0.4-0.6,0.6-1,0.4c-0.4-0.2-0.6-0.6-0.4-1
									c0.4-1.1,1.5-1.8,2.7-1.8h0c0.8,0,1.5,0.3,2,0.8c0.5,0.5,0.8,1.3,0.8,2c0,1.3-0.9,2.4-2.1,2.8v0.8
									C3678.1,167.2,3677.8,167.6,3677.4,167.6z"/>
							</g>
							<g id="Line_309">
								<path class="st1" d="M3677.4,169.7c-0.2,0-0.4-0.1-0.5-0.2c-0.1-0.1-0.1-0.2-0.2-0.2c0-0.1-0.1-0.2-0.1-0.3
									c0-0.2,0.1-0.4,0.2-0.6c0.3-0.3,0.8-0.3,1.1,0c0.2,0.2,0.2,0.4,0.2,0.6s-0.1,0.4-0.2,0.6
									C3677.8,169.6,3677.6,169.7,3677.4,169.7z"/>
							</g>
						</g>
					</g>
				</g>
			</g>
		</g>
	</g>
</g>
</svg>
