<?xml version="1.0" encoding="utf-8"?>
<!-- Generator: Adobe Illustrator 24.0.2, SVG Export Plug-In . SVG Version: 6.00 Build 0)  -->
<svg version="1.1" id="Layer_1" xmlns="http://www.w3.org/2000/svg" xmlns:xlink="http://www.w3.org/1999/xlink" x="0px" y="0px"
	 width="47px" height="47px" viewBox="0 0 47 47" style="enable-background:new 0 0 47 47;" xml:space="preserve">
<style type="text/css">
	.st0{clip-path:url(#SVGID_2_);}
	.st1{fill:#FFFFFF;}
	.st2{clip-path:url(#SVGID_4_);}
</style>
<g id="Group_9810" transform="translate(-2629.898 -152.773)">
	<g id="Group_420">
		<g>
			<defs>
				<rect id="SVGID_1_" x="2629.9" y="152.8" width="47" height="47"/>
			</defs>
			<clipPath id="SVGID_2_">
				<use xlink:href="#SVGID_1_"  style="overflow:visible;"/>
			</clipPath>
			<g id="Group_419" class="st0">
				<g id="Line_316">
					<path class="st1" d="M2665.6,191.8h-21.8c-0.4,0-0.8-0.4-0.8-0.8s0.4-0.8,0.8-0.8h21.8c0.4,0,0.8,0.4,0.8,0.8
						S2666.1,191.8,2665.6,191.8z"/>
				</g>
				<g id="Line_317">
					<path class="st1" d="M2643.8,191.8C2643.8,191.8,2643.8,191.8,2643.8,191.8c-0.5,0-0.8-0.4-0.8-0.9l0.3-4
						c0-0.4,0.4-0.7,0.8-0.7c0.4,0,0.8,0.4,0.7,0.8l-0.3,4C2644.6,191.5,2644.2,191.8,2643.8,191.8z"/>
				</g>
				<g id="Group_418">
					<g>
						<defs>
							<rect id="SVGID_3_" x="2629.9" y="152.8" width="47" height="47"/>
						</defs>
						<clipPath id="SVGID_4_">
							<use xlink:href="#SVGID_3_"  style="overflow:visible;"/>
						</clipPath>
						<g id="Group_417" class="st2">
							<g id="Path_215">
								<path class="st1" d="M2665.6,191.8c-0.4,0-0.7-0.3-0.8-0.7l-0.4-4.8c0-0.5-0.1-1.1-0.1-1.6c-0.1-1.8-0.1-3.5-1.2-4.8
									c-0.9-1-2.2-1.7-3.5-2c-1.5-0.2-3.1-0.3-4.6-0.3c-1.6-0.1-3.1,0-4.5,0.4c-0.4,0.1-0.8-0.1-1-0.6c-0.1-0.4,0.1-0.8,0.6-1
									c1.6-0.4,3.3-0.6,5-0.4c1.5,0,3.2,0.1,4.8,0.3c1.7,0.3,3.3,1.2,4.5,2.5c1.4,1.8,1.5,3.8,1.5,5.8c0,0.5,0,1,0.1,1.5l0.4,4.8
									C2666.4,191.4,2666.1,191.8,2665.6,191.8C2665.7,191.8,2665.6,191.8,2665.6,191.8z"/>
							</g>
							<g id="Path_216">
								<path class="st1" d="M2654.7,174.2c-2.8,0-5-2.2-5-5c0-0.4,0.4-0.8,0.8-0.8s0.8,0.4,0.8,0.8c0,1.9,1.5,3.4,3.4,3.4
									c1.9,0,3.4-1.5,3.4-3.4c0-0.4,0.4-0.8,0.8-0.8s0.8,0.4,0.8,0.8C2659.7,171.9,2657.5,174.2,2654.7,174.2z"/>
							</g>
							<g id="Path_217">
								<path class="st1" d="M2658.9,169.9c-0.4,0-0.8-0.4-0.8-0.8v-2.9c0-1.9-1.5-3.3-3.4-3.4c-0.9,0-1.8,0.3-2.4,1
									c-0.7,0.6-1,1.5-1,2.4v2.9c0,0.4-0.4,0.8-0.8,0.8s-0.8-0.4-0.8-0.8v-2.9c0-1.3,0.6-2.6,1.5-3.5c1-0.9,2.2-1.4,3.6-1.4
									c2.7,0,4.9,2.2,4.9,4.9v2.9C2659.7,169.6,2659.4,169.9,2658.9,169.9z"/>
							</g>
							<g id="Path_218">
								<path class="st1" d="M2644.4,184.7C2644.4,184.7,2644.4,184.7,2644.4,184.7c-2.2,0-4-1.8-4-4c0-2.2,1.8-4,4-4
									c2.2,0,4,1.8,4,4c0,0,0,0,0,0C2648.4,182.9,2646.6,184.7,2644.4,184.7z M2644.4,178.2c-1.3,0-2.4,1.1-2.4,2.4
									c0,1.3,1.1,2.4,2.4,2.4c0,0,0,0,0,0c1.3,0,2.4-1.1,2.4-2.4v0C2646.8,179.3,2645.7,178.2,2644.4,178.2
									C2644.4,178.2,2644.4,178.2,2644.4,178.2z"/>
							</g>
						</g>
					</g>
				</g>
			</g>
		</g>
	</g>
</g>
</svg>
