<?xml version="1.0" encoding="utf-8"?>
<!-- Generator: Adobe Illustrator 24.0.2, SVG Export Plug-In . SVG Version: 6.00 Build 0)  -->
<svg version="1.1" id="Layer_1" xmlns="http://www.w3.org/2000/svg" xmlns:xlink="http://www.w3.org/1999/xlink" x="0px" y="0px"
	 width="47px" height="47px" viewBox="0 0 47 47" style="enable-background:new 0 0 47 47;" xml:space="preserve">
<style type="text/css">
	.st0{clip-path:url(#SVGID_2_);}
	.st1{fill:#FFFFFF;}
	.st2{clip-path:url(#SVGID_4_);}
</style>
<g id="Group_9811" transform="translate(-2946.898 -152.215)">
	<g id="Group_415">
		<g>
			<defs>
				<rect id="SVGID_1_" x="2946.9" y="152.2" width="47" height="47"/>
			</defs>
			<clipPath id="SVGID_2_">
				<use xlink:href="#SVGID_1_"  style="overflow:visible;"/>
			</clipPath>
			<g id="Group_414" class="st0">
				<g id="Line_312">
					<path class="st1" d="M2976.8,191.3H2955c-0.4,0-0.8-0.4-0.8-0.8s0.4-0.8,0.8-0.8h21.8c0.4,0,0.8,0.4,0.8,0.8
						S2977.3,191.3,2976.8,191.3z"/>
				</g>
				<g id="Line_313">
					<path class="st1" d="M2955,191.3C2955,191.3,2955,191.3,2955,191.3c-0.5,0-0.8-0.4-0.8-0.9l0.3-4c0-0.4,0.4-0.7,0.8-0.7
						c0.4,0,0.8,0.4,0.7,0.8l-0.3,4C2955.8,191,2955.5,191.3,2955,191.3z"/>
				</g>
				<g id="Group_413">
					<g>
						<defs>
							<rect id="SVGID_3_" x="2946.9" y="152.2" width="47" height="47"/>
						</defs>
						<clipPath id="SVGID_4_">
							<use xlink:href="#SVGID_3_"  style="overflow:visible;"/>
						</clipPath>
						<g id="Group_412" class="st2">
							<g id="Path_211">
								<path class="st1" d="M2976.8,191.3c-0.4,0-0.7-0.3-0.8-0.7l-0.4-4.8c0-0.5-0.1-1.1-0.1-1.6c-0.1-1.8-0.1-3.5-1.2-4.8
									c-0.9-1-2.2-1.7-3.5-2c-1.5-0.2-3.1-0.3-4.6-0.3c-1.6-0.1-3.1,0-4.6,0.4c-0.4,0.1-0.8-0.1-1-0.6c-0.1-0.4,0.1-0.8,0.6-1
									c1.6-0.4,3.3-0.6,5-0.4c1.5,0,3.2,0.1,4.8,0.3c1.7,0.3,3.3,1.2,4.5,2.5c1.4,1.7,1.5,3.8,1.5,5.7c0,0.5,0,1,0.1,1.5l0.4,4.8
									C2977.6,190.9,2977.3,191.2,2976.8,191.3C2976.9,191.3,2976.8,191.3,2976.8,191.3z"/>
							</g>
							<g id="Path_212">
								<path class="st1" d="M2965.9,173.5C2965.9,173.5,2965.9,173.5,2965.9,173.5c-2.8,0-5-2.2-5-4.9c0-0.4,0.3-0.8,0.8-0.8
									c0.4-0.1,0.8,0.3,0.8,0.8c0,1.9,1.5,3.4,3.4,3.4c1,0,1.8-0.3,2.4-1c0.7-0.6,1-1.5,1-2.4c0-0.4,0.4-0.8,0.8-0.8c0,0,0,0,0,0
									c0.4,0,0.8,0.4,0.8,0.8c0,1.3-0.6,2.6-1.5,3.5C2968.5,173,2967.2,173.5,2965.9,173.5z"/>
							</g>
							<g id="Path_213">
								<path class="st1" d="M2970.2,169.4c-0.4,0-0.8-0.4-0.8-0.8v-2.9c0-1.9-1.5-3.4-3.4-3.4s-3.4,1.5-3.4,3.4v2.9
									c0,0.4-0.4,0.8-0.8,0.8s-0.8-0.4-0.8-0.8v-2.9c0-2.8,2.2-5,5-5s5,2.2,5,5v2.9C2970.9,169,2970.6,169.4,2970.2,169.4z"/>
							</g>
							<g id="Path_214">
								<path class="st1" d="M2955.6,184.1C2955.6,184.1,2955.6,184.1,2955.6,184.1c-2.2,0-4-1.8-4-4c0-1.1,0.4-2.1,1.2-2.8
									c0.8-0.8,1.8-1.2,2.8-1.2c0,0,0,0,0,0c2.2,0,4,1.8,4,4c0,0,0,0,0,0C2959.6,182.3,2957.8,184.1,2955.6,184.1z M2955.6,177.7
									c-0.6,0-1.3,0.2-1.7,0.7c-0.5,0.5-0.7,1.1-0.7,1.7c0,1.3,1.1,2.4,2.4,2.4c0,0,0,0,0,0c1.3,0,2.4-1.1,2.4-2.4v0
									C2958,178.8,2956.9,177.7,2955.6,177.7C2955.6,177.7,2955.6,177.7,2955.6,177.7z"/>
							</g>
							<g id="Rectangle_213">
								<path class="st1" d="M2990.8,171h-16c-0.4,0-0.8-0.4-0.8-0.8v-10.9c0-0.4,0.4-0.8,0.8-0.8h16c0.4,0,0.8,0.4,0.8,0.8v10.9
									C2991.5,170.6,2991.2,171,2990.8,171z M2975.6,169.4h14.4v-9.3h-14.4V169.4z"/>
							</g>
							<g id="Line_314">
								<path class="st1" d="M2987,164.3h-8.7c-0.4,0-0.8-0.4-0.8-0.8s0.4-0.8,0.8-0.8h8.7c0.4,0,0.8,0.4,0.8,0.8
									S2987.5,164.3,2987,164.3z"/>
							</g>
							<g id="Line_315">
								<path class="st1" d="M2987,167.4h-8.7c-0.4,0-0.8-0.4-0.8-0.8s0.4-0.8,0.8-0.8h8.7c0.4,0,0.8,0.4,0.8,0.8
									S2987.5,167.4,2987,167.4z"/>
							</g>
						</g>
					</g>
				</g>
			</g>
		</g>
	</g>
</g>
</svg>
