<svg xmlns="http://www.w3.org/2000/svg" width="123" height="122.884" viewBox="0 0 123 122.884">
  <g id="Grupo_19575" data-name="Grupo 19575" transform="translate(-5492 -1893.433)">
    <g id="Grupo_18436" data-name="Grupo 18436" transform="translate(5411.41 1350.976)">
      <g id="Grupo_18429" data-name="Grupo 18429">
        <g id="Grupo_18428" data-name="Grupo 18428">
          <path id="Trazado_19441" data-name="Trazado 19441" d="M142.157,603.89l-36.11-49.7a58.857,58.857,0,0,1,36.11-11.733Z" fill="#ffd800"/>
        </g>
      </g>
      <g id="Grupo_18431" data-name="Grupo 18431">
        <g id="Grupo_18430" data-name="Grupo 18430">
          <path id="Trazado_19442" data-name="Trazado 19442" d="M142.157,603.89,83.73,622.874c-8.388-25.814.358-52.73,22.317-68.684Z" fill="#ffd800"/>
        </g>
      </g>
      <g id="Grupo_18433" data-name="Grupo 18433">
        <g id="Grupo_18432" data-name="Grupo 18432">
          <path id="Trazado_19443" data-name="Trazado 19443" d="M142.157,603.89l58.427,18.984a61.433,61.433,0,0,1-77.411,39.443c-19.361-6.291-33.152-20.082-39.443-39.443Z" fill="#ffd800"/>
        </g>
      </g>
      <g id="Grupo_18435" data-name="Grupo 18435">
        <g id="Grupo_18434" data-name="Grupo 18434">
          <path id="Trazado_19444" data-name="Trazado 19444" d="M142.157,603.89V542.457A61.433,61.433,0,0,1,203.59,603.89a58.4,58.4,0,0,1-3.006,18.984Z" fill="#ffd800"/>
        </g>
      </g>
    </g>
    <circle id="Elipse_2780" data-name="Elipse 2780" cx="36" cy="36" r="36" transform="translate(5518 1918.433)" fill="#fff"/>
  </g>
</svg>
