<?xml version="1.0" encoding="utf-8"?>
<!-- Generator: Adobe Illustrator 24.0.2, SVG Export Plug-In . SVG Version: 6.00 Build 0)  -->
<svg version="1.1" xmlns="http://www.w3.org/2000/svg" xmlns:xlink="http://www.w3.org/1999/xlink" x="0px" y="0px"
	 viewBox="0 0 60 60" style="enable-background:new 0 0 60 60;" xml:space="preserve">
<style type="text/css">
	.st0{fill:#19A500;}
	.st1{fill:none;}
	.st2{fill:none;stroke:#FFFFFF;stroke-width:1.0892;stroke-linecap:round;stroke-linejoin:round;stroke-miterlimit:10;}
	.st3{fill:none;stroke:#EFEF00;stroke-width:1.2;stroke-miterlimit:10;}
	.st4{fill:none;stroke:#FFFFFF;stroke-width:1.1181;stroke-linecap:round;stroke-linejoin:round;stroke-miterlimit:10;}
	.st5{fill:none;stroke:#FFFFFF;stroke-width:1.0849;stroke-linecap:round;stroke-linejoin:round;stroke-miterlimit:10;}
	.st6{fill:none;stroke:#FFFFFF;stroke-width:1.2;stroke-linecap:round;stroke-linejoin:round;stroke-miterlimit:10;}
</style>
<g id="Capa_2">
	<g>
		<g>
			<path id="Rectángulo_3799_11_" class="st0" d="M30,0L30,0c16.57,0,30,13.43,30,30v0c0,16.57-13.43,30-30,30h0
				C13.43,60,0,46.57,0,30v0C0,13.43,13.43,0,30,0z"/>
		</g>
	</g>
</g>
<g id="Capa_1">
	<g>
		<g>
			<rect id="Rectángulo_3799_23_" class="st1" width="60" height="60"/>
		</g>
	</g>
	<g>
		<g>
			<line class="st5" x1="40.8" y1="28.5" x2="40.8" y2="42.79"/>
			<line class="st5" x1="28.27" y1="20.81" x2="38.07" y2="20.81"/>
			<line class="st5" x1="21.04" y1="42.98" x2="21.04" y2="27.98"/>
			<path class="st5" d="M27.73,32.65h-0.46c-0.94,0-1.71,0.77-1.71,1.71v8.78h3.88v-8.78C29.44,33.42,28.67,32.65,27.73,32.65z"/>
			<path class="st5" d="M35.07,32.65h-0.46c-0.94,0-1.71,0.77-1.71,1.71v8.78h3.88v-8.78C36.78,33.42,36.01,32.65,35.07,32.65z"/>
			<line class="st5" x1="7.12" y1="43.26" x2="52.31" y2="43.26"/>
			<polyline class="st5" points="9.69,43.08 9.69,24.74 15.02,24.72 15.1,42.73 			"/>
			<polyline class="st5" points="15.2,43.23 15.2,31.89 20.44,31.89 			"/>
		</g>
		<path class="st5" d="M38.08,18.85c0,1.11,0.64,2.07,1.57,2.54h-0.53c-1.85,0-3.36,1.51-3.36,3.36c0,1.85,1.51,3.36,3.36,3.36h10.4
			c1.85,0,3.36-1.51,3.36-3.36c0-1.85-1.51-3.36-3.36-3.36h-0.53c0.93-0.48,1.57-1.43,1.57-2.54v-0.98c0-1.48-1.14-2.7-2.59-2.84
			c0.03-0.19,0.05-0.38,0.05-0.58c0-2.04-1.66-3.7-3.7-3.7c-2.04,0-3.7,1.66-3.7,3.7c0,0.2,0.02,0.39,0.05,0.58
			c-1.45,0.14-2.59,1.36-2.59,2.84V18.85"/>
		<line class="st5" x1="44.33" y1="28.13" x2="44.33" y2="42.85"/>
		<g>
			<g>
				<circle class="st3" cx="22.63" cy="22.09" r="3.86"/>
			</g>
		</g>
	</g>
</g>
</svg>
