<?xml version="1.0" encoding="utf-8"?>
<!-- Generator: Adobe Illustrator 24.0.2, SVG Export Plug-In . SVG Version: 6.00 Build 0)  -->
<svg version="1.1" id="Capa_1" xmlns="http://www.w3.org/2000/svg" xmlns:xlink="http://www.w3.org/1999/xlink" x="0px" y="0px"
	 viewBox="0 0 130 130" style="enable-background:new 0 0 130 130;" xml:space="preserve">
<style type="text/css">
	.st0{fill:#C9D2D7;}
	.st1{fill:#2B5CDA;}
	.st2{fill:#FFFFFF;}
	.st3{fill:#00AF00;}
</style>
<g id="Grupo_18597" transform="translate(-7058 -3818)">
	<g id="Grupo_18596" transform="translate(7043.067 3491.759)">
		<g id="Grupo_18594" transform="translate(14.933 326.241)">
			<g id="Grupo_18660" transform="translate(-100.413 -192.037)">
				<g id="Grupo_18666" transform="translate(100.413 192.037)">
					<g id="Grupo_18661">
						<g id="Grupo_18660-2">
							<path id="Trazado_19027" class="st0" d="M65,64.88l-36.02,49.57C1.61,94.57-4.46,56.25,15.43,28.87
								C27.36,12.44,44.7,3.61,65,3.61V64.88z"/>
						</g>
					</g>
					<g id="Grupo_18663" transform="translate(25.263 61.276)">
						<g id="Grupo_18662">
							<path id="Trazado_19028" class="st3" d="M39.74,3.61l36.02,49.58c-21.9,15.91-50.13,15.91-72.04,0L39.74,3.61z"/>
						</g>
					</g>
					<g id="Grupo_18665" transform="translate(61.281)">
						<g id="Grupo_18664">
							<path id="Trazado_19029" class="st1" d="M3.72,64.88V3.61C37.56,3.61,65,31.04,65,64.88c0,20.31-8.83,37.64-25.26,49.57
								L3.72,64.88z"/>
						</g>
					</g>
				</g>
			</g>
		</g>
	</g>
	<circle id="Elipse_2979" class="st2" cx="7122.72" cy="3882.61" r="36"/>
</g>
</svg>
