<?xml version="1.0" encoding="utf-8"?>
<!-- Generator: Adobe Illustrator 24.0.2, SVG Export Plug-In . SVG Version: 6.00 Build 0)  -->
<svg version="1.1" id="Layer_1" xmlns="http://www.w3.org/2000/svg" xmlns:xlink="http://www.w3.org/1999/xlink" x="0px" y="0px"
	 viewBox="0 0 25 25" style="enable-background:new 0 0 25 25;" xml:space="preserve">
<style type="text/css">
	.st0{fill:#FFFFFF;}
	.st1{fill:#C8D1D6;}
	.st2{fill:#19A500;}
	.st3{fill:none;}
</style>
<g id="Group_3211" transform="translate(3754 -60)">
	<g id="Group_3210" transform="translate(-3752 62)">
		<g id="Ellipse_65">
			<circle class="st0" cx="10.5" cy="10.5" r="10.5"/>
			<path class="st1" d="M10.5,21.5c-6,0-10.9-4.9-10.9-10.9c0-6,4.9-10.9,10.9-10.9c6,0,10.9,4.9,10.9,10.9
				C21.5,16.6,16.6,21.5,10.5,21.5z M10.5,0.4C4.9,0.4,0.4,4.9,0.4,10.5c0,5.6,4.6,10.2,10.2,10.2c5.6,0,10.2-4.6,10.2-10.2
				C20.7,4.9,16.1,0.4,10.5,0.4z"/>
		</g>
		<g id="Path_282">
			<path class="st2" d="M10.5,14.4c-0.3,0-0.6-0.1-0.8-0.3L5.6,10c-0.5-0.5-0.5-1.2,0-1.7s1.2-0.5,1.7,0l3.2,3.2l3.2-3.2
				c0.5-0.5,1.2-0.5,1.7,0c0.5,0.5,0.5,1.2,0,1.7l-4.1,4.1C11.1,14.3,10.8,14.4,10.5,14.4z"/>
		</g>
	</g>
	<g id="Rectangle_1200">
		<rect x="-3754" y="60" class="st3" width="25" height="25"/>
	</g>
</g>
</svg>
