<?xml version="1.0" encoding="utf-8"?>
<!-- Generator: Adobe Illustrator 24.0.2, SVG Export Plug-In . SVG Version: 6.00 Build 0)  -->
<svg version="1.1" id="Layer_1" xmlns="http://www.w3.org/2000/svg" xmlns:xlink="http://www.w3.org/1999/xlink" x="0px" y="0px"
	 viewBox="0 0 32 32" style="enable-background:new 0 0 32 32;" xml:space="preserve">
<style type="text/css">
	.st0{fill:#FFFFFF;}
	.st1{fill:none;}
</style>
<g id="Group_3225" transform="translate(3470 -399)">
	<g id="Group_3214" transform="translate(-4.671 -27.297)">
		<g id="Line_1497">
			<path class="st0" d="M-3449.2,446.4c-0.4,0-0.7-0.3-0.7-0.7v-7.4c0-0.4,0.3-0.7,0.7-0.7s0.7,0.3,0.7,0.7v7.4
				C-3448.5,446.1-3448.8,446.4-3449.2,446.4z"/>
		</g>
		<g id="Path_1353">
			<path class="st0" d="M-3447.6,443.6h-1.6c-0.4,0-0.7-0.3-0.7-0.7v-4.7c0-0.4,0.3-0.7,0.7-0.7h1.6c1.7,0,3,1.4,3,3
				S-3445.9,443.6-3447.6,443.6z M-3448.5,442.2h0.9c0.9,0,1.6-0.7,1.6-1.6s-0.7-1.6-1.6-1.6h-0.9V442.2z"/>
		</g>
		<g id="Line_1498">
			<path class="st0" d="M-3443.8,446.4c-0.4,0-0.7-0.3-0.7-0.7v-7.4c0-0.4,0.3-0.7,0.7-0.7s0.7,0.3,0.7,0.7v7.4
				C-3443,446.1-3443.4,446.4-3443.8,446.4z"/>
		</g>
		<g id="Path_1354">
			<path class="st0" d="M-3442.2,443.6h-1.6c-0.4,0-0.7-0.3-0.7-0.7v-4.7c0-0.4,0.3-0.7,0.7-0.7h1.6c1.7,0,3,1.4,3,3
				S-3440.5,443.6-3442.2,443.6z M-3443,442.2h0.9c0.9,0,1.6-0.7,1.6-1.6s-0.7-1.6-1.6-1.6h-0.9V442.2z"/>
		</g>
		<g id="Path_1355">
			<path class="st0" d="M-3456.9,446.4c-0.1,0-0.2,0-0.3,0c-0.4-0.1-0.5-0.5-0.4-0.9l2.9-7.4c0.1-0.3,0.4-0.4,0.7-0.4l0,0
				c0.3,0,0.5,0.2,0.7,0.4l2.9,7.4c0.1,0.4,0,0.8-0.4,0.9c-0.4,0.1-0.8,0-0.9-0.4l-2.3-5.8l-2.3,5.8
				C-3456.3,446.2-3456.6,446.4-3456.9,446.4z"/>
		</g>
		<g id="Line_1499">
			<path class="st0" d="M-3452.1,443.6h-3.6c-0.4,0-0.7-0.3-0.7-0.7s0.3-0.7,0.7-0.7h3.6c0.4,0,0.7,0.3,0.7,0.7
				S-3451.7,443.6-3452.1,443.6z"/>
		</g>
		<g id="Path_1356">
			<path class="st0" d="M-3458.5,436.7L-3458.5,436.7L-3458.5,436.7c-1,0-1.8-0.4-2.5-1s-1-1.6-1-2.5c0-1.9,1.6-3.5,3.5-3.5
				c0,0,0,0,0,0c1.9,0,3.5,1.6,3.5,3.5C-3455,435.1-3456.6,436.7-3458.5,436.7z M-3458.5,431C-3458.5,431-3458.5,431-3458.5,431
				c-1.2,0-2.1,1-2.1,2.1c0,0.6,0.2,1.1,0.6,1.5c0.4,0.4,0.9,0.6,1.5,0.6h0c1.2,0,2.1-1,2.1-2.1C-3456.4,432-3457.3,431-3458.5,431z
				"/>
		</g>
		<g id="Path_1357">
			<path class="st0" d="M-3436.7,443.7c-0.4,0-0.7-0.3-0.7-0.7v-10.5h-14.8c-0.4,0-0.7-0.3-0.7-0.7s0.3-0.7,0.7-0.7h15.5
				c0.4,0,0.7,0.3,0.7,0.7V443C-3436,443.4-3436.3,443.7-3436.7,443.7z"/>
		</g>
		<g id="Path_1358">
			<path class="st0" d="M-3443.9,451.3h-16.1c-0.4,0-0.7-0.3-0.7-0.7v-11.4c0-0.4,0.3-0.7,0.7-0.7s0.7,0.3,0.7,0.7v10.7h15.4
				c0.4,0,0.7,0.3,0.7,0.7S-3443.5,451.3-3443.9,451.3z"/>
		</g>
		<g id="Path_1359">
			<path class="st0" d="M-3441,451.3h-11.2c-0.4,0-0.7-0.3-0.7-0.7s0.3-0.7,0.7-0.7h11.2c2,0,3.6-1.6,3.6-3.6v-6.9
				c0-0.4,0.3-0.7,0.7-0.7s0.7,0.3,0.7,0.7v6.9C-3436,449.1-3438.2,451.3-3441,451.3z"/>
		</g>
		<g id="Line_1500">
			<path class="st0" d="M-3449.3,451.3c-0.2,0-0.4-0.1-0.5-0.2s-0.2-0.3-0.2-0.5c0-0.1,0-0.2,0.1-0.3c0-0.1,0.1-0.2,0.1-0.2
				c0.2-0.2,0.5-0.3,0.8-0.1c0.1,0,0.2,0.1,0.2,0.1c0.1,0.1,0.1,0.1,0.1,0.2c0,0.1,0,0.2,0,0.3c0,0.2-0.1,0.4-0.2,0.5
				C-3448.9,451.3-3449.1,451.3-3449.3,451.3z"/>
		</g>
		<g id="Line_1501">
			<path class="st0" d="M-3449.3,455.4c-0.4,0-0.7-0.3-0.7-0.7v-4.1c0-0.4,0.3-0.7,0.7-0.7s0.7,0.3,0.7,0.7v4.1
				C-3448.6,455.1-3448.9,455.4-3449.3,455.4z"/>
		</g>
		<g id="Line_1502">
			<path class="st0" d="M-3445.5,455.4h-7.5c-0.4,0-0.7-0.3-0.7-0.7s0.3-0.7,0.7-0.7h7.5c0.4,0,0.7,0.3,0.7,0.7
				S-3445.1,455.4-3445.5,455.4z"/>
		</g>
	</g>
	<g id="Rectangle_1194">
		<rect x="-3470" y="399" class="st1" width="32" height="32"/>
	</g>
</g>
</svg>
