<?xml version="1.0" encoding="utf-8"?>
<!-- Generator: Adobe Illustrator 24.0.2, SVG Export Plug-In . SVG Version: 6.00 Build 0)  -->
<svg version="1.1" id="Layer_1" xmlns="http://www.w3.org/2000/svg" xmlns:xlink="http://www.w3.org/1999/xlink" x="0px" y="0px"
	 width="32px" height="32px" viewBox="0 0 32 32" style="enable-background:new 0 0 32 32;" xml:space="preserve">
<style type="text/css">
	.st0{fill:none;}
	.st1{fill:#FFFFFF;}
</style>
<g id="Rectangle_1194">
	<rect class="st0" width="32" height="32"/>
</g>
<g>
	<path class="st1" d="M24.3,11.6c-0.4,0-0.7,0.3-0.7,0.7v14.9H17c0,0,0,0,0,0h-6.6c-1.9,0-3.4-1.6-3.4-3.5v-2.8V13V6.1h10.8
		c0.4,0,0.7-0.3,0.7-0.7s-0.3-0.7-0.7-0.7H6.2C5.9,4.7,5.5,5,5.5,5.4V13v7.9v2.8c0,2.7,2.2,4.8,4.8,4.9h3.2c0,0,0,0,0,0h10.8
		c0.4,0,0.7-0.3,0.7-0.7V12.3C25,11.9,24.7,11.6,24.3,11.6z"/>
	<path class="st1" d="M23,3.5L23,3.5c-0.9,0-1.8,0.4-2.4,1c-0.6,0.6-1,1.5-1,2.4c0,0.9,0.3,1.7,0.9,2.3c0.6,0.7,1.6,1.1,2.5,1.1
		c0,0,0,0,0,0c1.9,0,3.4-1.5,3.4-3.4S24.9,3.5,23,3.5z M23,8.9C23,8.9,23,8.9,23,8.9c-0.6,0-1.1-0.2-1.5-0.6C21.2,7.9,21,7.4,21,6.9
		c0,0,0,0,0,0c0-0.5,0.2-1,0.6-1.4s0.9-0.6,1.4-0.6h0c1.1,0,2,0.9,2,2S24.2,8.9,23,8.9z"/>
	<path class="st1" d="M20.3,20.6h-9.5c-0.4,0-0.7,0.3-0.7,0.7s0.3,0.7,0.7,0.7h9.5c0.4,0,0.7-0.3,0.7-0.7S20.7,20.6,20.3,20.6z"/>
	<path class="st1" d="M17.2,10.7L16,9.8c-0.3-0.2-0.6-0.2-0.9,0L14,10.7l-1.1-0.9c-0.3-0.2-0.6-0.2-0.9,0L10.4,11
		c-0.3,0.2-0.4,0.7-0.1,1c0.2,0.3,0.7,0.4,1,0.1l1.1-0.9l1.1,0.9c0.3,0.2,0.6,0.2,0.9,0l1.1-0.9l1.1,0.9c0.3,0.2,0.6,0.2,0.9,0
		l1.1-0.9l1.1,0.9c0.1,0.1,0.3,0.1,0.4,0.1c0.2,0,0.4-0.1,0.5-0.3c0.2-0.3,0.2-0.7-0.1-1l-1.6-1.2c-0.3-0.2-0.6-0.2-0.9,0L17.2,10.7
		z"/>
	<path class="st1" d="M20.3,23.3h-9.5c-0.4,0-0.7,0.3-0.7,0.7s0.3,0.7,0.7,0.7h9.5c0.4,0,0.7-0.3,0.7-0.7S20.7,23.3,20.3,23.3z"/>
	<path class="st1" d="M10.9,18.9h9.3c0.4,0,0.7-0.3,0.7-0.7v-4.1c0-0.4-0.3-0.7-0.7-0.7h-9.3c-0.4,0-0.7,0.3-0.7,0.7v4.1
		C10.2,18.6,10.5,18.9,10.9,18.9z M11.6,14.8h7.9v2.7h-7.9V14.8z"/>
</g>
</svg>
