<?xml version="1.0" encoding="utf-8"?>
<!-- Generator: Adobe Illustrator 24.0.2, SVG Export Plug-In . SVG Version: 6.00 Build 0)  -->
<svg version="1.1" id="Layer_1" xmlns="http://www.w3.org/2000/svg" xmlns:xlink="http://www.w3.org/1999/xlink" x="0px" y="0px"
	 width="32px" height="32px" viewBox="0 0 32 32" style="enable-background:new 0 0 32 32;" xml:space="preserve">
<style type="text/css">
	.st0{fill:none;}
	.st1{fill:#FFFFFF;}
</style>
<g id="Rectangle_1194">
	<rect class="st0" width="32" height="32"/>
</g>
<g>
	<path class="st1" d="M28.1,11C28.1,11,28.1,11,28.1,11l0-3.1c0-0.4-0.3-0.7-0.7-0.7h-3.7v-1c0-0.4-0.3-0.7-0.7-0.7
		s-0.7,0.3-0.7,0.7v1h-1.8v-1c0-0.4-0.3-0.7-0.7-0.7s-0.7,0.3-0.7,0.7v1h-1.6v-1c0-0.4-0.3-0.7-0.7-0.7c-0.4,0-0.7,0.3-0.7,0.7v1
		h-1.7v-1c0-0.4-0.3-0.7-0.7-0.7S13,5.9,13,6.2v1h-1.4c-0.4,0-0.7,0.3-0.7,0.7s0.3,0.7,0.7,0.7H13v0.6c0,0.4,0.3,0.7,0.7,0.7
		s0.7-0.3,0.7-0.7V8.6h1.7v0.6c0,0.4,0.3,0.7,0.7,0.7c0.4,0,0.7-0.3,0.7-0.7V8.6h1.6v0.6c0,0.4,0.3,0.7,0.7,0.7s0.7-0.3,0.7-0.7V8.6
		h1.8v0.6c0,0.4,0.3,0.7,0.7,0.7s0.7-0.3,0.7-0.7V8.6h3v1.7H11.7c-0.4,0-0.7,0.3-0.7,0.7s0.3,0.7,0.7,0.7h14.9v12.3c0,0.5-0.4,1-1,1
		H7.5c-0.5,0-1-0.4-1-1V13.4c0-0.4-0.3-0.7-0.7-0.7S5.1,13,5.1,13.4v10.7c0,1.3,1.1,2.4,2.4,2.4h18.2c1.3,0,2.4-1.1,2.4-2.4L28.1,11
		C28.1,11,28.1,11,28.1,11z"/>
	<path class="st1" d="M10.1,8.7C10.1,8.7,10.1,8.7,10.1,8.7c0-0.8-0.3-1.6-0.9-2.2C8.6,5.9,7.9,5.6,7.1,5.6c0,0,0,0,0,0
		C5.3,5.6,3.9,7,3.9,8.7c0,1.7,1.4,3.1,3.1,3.1C8.7,11.8,10.1,10.4,10.1,8.7z M5.3,8.7C5.3,7.7,6.1,7,7,7c0,0,0,0,0,0
		C8,7,8.7,7.7,8.7,8.7v0c0,0.9-0.8,1.7-1.7,1.7C6.1,10.4,5.3,9.6,5.3,8.7z"/>
	<path class="st1" d="M15.9,16.2h1.8c0.4,0,0.7-0.3,0.7-0.7s-0.3-0.7-0.7-0.7h-1.8c-0.4,0-0.7,0.3-0.7,0.7S15.5,16.2,15.9,16.2z"/>
	<path class="st1" d="M21.7,16.2h1.8c0.4,0,0.7-0.3,0.7-0.7s-0.3-0.7-0.7-0.7h-1.8c-0.4,0-0.7,0.3-0.7,0.7S21.3,16.2,21.7,16.2z"/>
	<path class="st1" d="M12,17.9h-1.8c-0.4,0-0.7,0.3-0.7,0.7s0.3,0.7,0.7,0.7H12c0.4,0,0.7-0.3,0.7-0.7S12.4,17.9,12,17.9z"/>
	<path class="st1" d="M15.9,19.3h1.8c0.4,0,0.7-0.3,0.7-0.7s-0.3-0.7-0.7-0.7h-1.8c-0.4,0-0.7,0.3-0.7,0.7S15.5,19.3,15.9,19.3z"/>
	<path class="st1" d="M21.7,19.3h1.8c0.4,0,0.7-0.3,0.7-0.7s-0.3-0.7-0.7-0.7h-1.8c-0.4,0-0.7,0.3-0.7,0.7S21.3,19.3,21.7,19.3z"/>
	<path class="st1" d="M12,21.5h-1.8c-0.4,0-0.7,0.3-0.7,0.7s0.3,0.7,0.7,0.7H12c0.4,0,0.7-0.3,0.7-0.7S12.4,21.5,12,21.5z"/>
	<path class="st1" d="M15.9,22.9h1.8c0.4,0,0.7-0.3,0.7-0.7s-0.3-0.7-0.7-0.7h-1.8c-0.4,0-0.7,0.3-0.7,0.7S15.5,22.9,15.9,22.9z"/>
</g>
</svg>
