<svg xmlns="http://www.w3.org/2000/svg" width="46.932" height="90.91" viewBox="0 0 46.932 90.91">
  <g id="Grupo_21493" data-name="Grupo 21493" transform="translate(-347 -1943)">
    <g id="Grupo_20671" data-name="Grupo 20671" transform="translate(366.343 1999.202)">
      <line id="Línea_2119" data-name="Línea 2119" y2="32.208" transform="translate(4.5)" fill="none" stroke="#505d6c" stroke-width="1" opacity="0.29"/>
      <g id="Trazado_11273" data-name="Trazado 11273" transform="translate(0 25.708)" fill="#fff">
        <path d="M 4.5 8 C 2.570090055465698 8 1 6.429910182952881 1 4.5 C 1 2.570090055465698 2.570090055465698 1 4.5 1 C 6.429910182952881 1 8 2.570090055465698 8 4.5 C 8 5.237659931182861 7.764450073242188 5.91195011138916 7.236249923706055 6.68632984161377 L 7.231080055236816 6.693910121917725 L 7.226049900054932 6.701580047607422 C 6.816100120544434 7.326940059661865 5.788169860839844 8 4.5 8 Z" stroke="none"/>
        <path d="M 4.5 2 C 3.121500015258789 2 2 3.121500015258789 2 4.5 C 2 5.878499984741211 3.121500015258789 7 4.5 7 C 5.472350120544434 7 6.175139904022217 6.480679988861084 6.389729976654053 6.153340339660645 L 6.410130023956299 6.122829914093018 C 6.929920196533203 5.360790252685547 7 4.874849796295166 7 4.5 C 7 3.121500015258789 5.878499984741211 2 4.5 2 M 4.5 0 C 6.98528003692627 0 9 2.01471996307373 9 4.5 C 9 5.424520015716553 8.721199989318848 6.283929824829102 8.062370300292969 7.249819755554199 C 7.435930252075195 8.205430030822754 6.060760021209717 9 4.5 9 C 2.01471996307373 9 0 6.98528003692627 0 4.5 C 0 2.01471996307373 2.01471996307373 0 4.5 0 Z" stroke="none" fill="#00af00"/>
      </g>
    </g>
    <g id="Grupo_20834" data-name="Grupo 20834" transform="translate(346.932 1943)">
      <rect id="Rectángulo_5856" data-name="Rectángulo 5856" width="46.932" height="47" transform="translate(0.068)" fill="none"/>
      <g id="Grupo_20835" data-name="Grupo 20835">
        <g id="Grupo_20834-2" data-name="Grupo 20834">
          <path id="Trazado_20042" data-name="Trazado 20042" d="M23.872,20.092V3.749a.667.667,0,0,0-1.313-.167L19.265,16.313a3.408,3.408,0,0,0,.044,1.86l.988,3.18" fill="none" stroke="#95a6b1" stroke-linecap="round" stroke-linejoin="round" stroke-width="1.5"/>
          <path id="Trazado_20043" data-name="Trazado 20043" d="M19.049,26.152,4.99,34.486A.667.667,0,0,0,5.516,35.7l12.631-3.659a3.407,3.407,0,0,0,1.578-.987l2.232-2.471-1.742,7.363v7.972" fill="none" stroke="#95a6b1" stroke-linecap="round" stroke-linejoin="round" stroke-width="1.5"/>
          <path id="Trazado_20044" data-name="Trazado 20044" d="M27.023,27.467,41.345,35.34a.667.667,0,0,0,.779-1.07l-9.57-9.02a3.409,3.409,0,0,0-1.651-.857l-3.263-.667" fill="none" stroke="#95a6b1" stroke-linecap="round" stroke-linejoin="round" stroke-width="1.5"/>
        </g>
        <path id="Trazado_20045" data-name="Trazado 20045" d="M24.55,28.574l1.765,7.406v7.939" fill="none" stroke="#95a6b1" stroke-linecap="round" stroke-linejoin="round" stroke-width="1.5"/>
        <path id="Trazado_20046" data-name="Trazado 20046" d="M27.2,22.657a4.239,4.239,0,1,1-5.618-2.093A4.225,4.225,0,0,1,27.2,22.657Z" fill="none" stroke="#00a800" stroke-linecap="round" stroke-linejoin="round" stroke-width="1.5"/>
      </g>
      <g id="Grupo_20836" data-name="Grupo 20836">
        <path id="Trazado_20047" data-name="Trazado 20047" d="M41.181,13.534c-1.995,0-1.995-1.949-3.99-1.949s-2,1.949-3.994,1.949-2-1.949-4-1.949" fill="none" stroke="#95a6b1" stroke-linecap="round" stroke-linejoin="round" stroke-width="1.5"/>
        <path id="Trazado_20048" data-name="Trazado 20048" d="M41.181,18.412c-1.995,0-1.995-1.95-3.99-1.95s-2,1.95-3.994,1.95-2-1.95-4-1.95" fill="none" stroke="#95a6b1" stroke-linecap="round" stroke-linejoin="round" stroke-width="1.5"/>
      </g>
    </g>
  </g>
</svg>
