<?xml version="1.0" encoding="utf-8"?>
<!-- Generator: Adobe Illustrator 24.0.2, SVG Export Plug-In . SVG Version: 6.00 Build 0)  -->
<svg version="1.1" id="Layer_1" xmlns="http://www.w3.org/2000/svg" xmlns:xlink="http://www.w3.org/1999/xlink" x="0px" y="0px"
	 viewBox="0 0 32 32" style="enable-background:new 0 0 32 32;" xml:space="preserve">
<style type="text/css">
	.st0{fill:#FFFFFF;}
	.st1{fill:none;}
</style>
<g id="Group_3221" transform="translate(3470 -136)">
	<g id="Group_3217">
		<g id="Group_3210" transform="translate(-4.019 -5.476)">
			<g id="Path_1340">
				<path class="st0" d="M-3461,154.1c-2,0-3.6-1.6-3.6-3.6s1.6-3.6,3.6-3.6c0,0,0,0,0,0c2,0,3.6,1.6,3.6,3.6c0,0,0,0,0,0
					C-3457.4,152.4-3459,154.1-3461,154.1z M-3461,148.2C-3461,148.2-3461,148.2-3461,148.2c-1.2,0-2.3,1-2.3,2.2s1,2.2,2.2,2.2
					s2.2-1,2.2-2.2v0C-3458.8,149.2-3459.8,148.2-3461,148.2z"/>
			</g>
			<g id="Path_1341">
				<path class="st0" d="M-3459.2,168.2c-0.7,0-1.4-0.3-1.9-0.8c-0.5-0.5-0.8-1.2-0.8-1.9V156c0-0.4,0.3-0.7,0.7-0.7
					s0.7,0.3,0.7,0.7v9.5c0,0.3,0.1,0.7,0.4,0.9c0.2,0.2,0.6,0.4,0.9,0.4c0,0,0,0,0,0h21.1c0.7,0,1.3-0.6,1.3-1.3v-7.1
					c0-0.4,0.3-0.7,0.7-0.7s0.7,0.3,0.7,0.7v7.1c0,1.5-1.2,2.7-2.7,2.7H-3459.2C-3459.2,168.2-3459.2,168.2-3459.2,168.2z"/>
			</g>
			<g id="Path_1342">
				<path class="st0" d="M-3448.6,161.2c-0.6,0-1.2-0.2-1.7-0.6l-7-5.9c-0.3-0.2-0.3-0.7-0.1-1c0.2-0.3,0.7-0.3,1-0.1l7,5.9
					c0.5,0.4,1.1,0.4,1.6,0l10.8-9c0.3-0.2,0.7-0.2,1,0.1c0.2,0.3,0.2,0.7-0.1,1l-10.8,9C-3447.4,161-3448,161.2-3448.6,161.2z"/>
			</g>
			<g id="Line_1485">
				<path class="st0" d="M-3460.4,167.7c-0.2,0-0.4-0.1-0.5-0.3c-0.2-0.3-0.2-0.7,0.1-1l9.5-7.8c0.3-0.2,0.7-0.2,1,0.1
					c0.2,0.3,0.2,0.7-0.1,1l-9.5,7.8C-3460.1,167.7-3460.3,167.7-3460.4,167.7z"/>
			</g>
			<g id="Line_1486">
				<path class="st0" d="M-3436.8,167.7c-0.2,0-0.3-0.1-0.4-0.2l-9.4-7.7c-0.3-0.2-0.3-0.7-0.1-1c0.2-0.3,0.7-0.3,1-0.1l9.4,7.7
					c0.3,0.2,0.3,0.7,0.1,1C-3436.4,167.6-3436.6,167.7-3436.8,167.7z"/>
			</g>
			<g id="Path_1343">
				<path class="st0" d="M-3436.1,159.8c-0.4,0-0.7-0.3-0.7-0.7V152c0-0.7-0.6-1.3-1.3-1.3h-17c-0.4,0-0.7-0.3-0.7-0.7
					s0.3-0.7,0.7-0.7h17c1.5,0,2.7,1.2,2.7,2.7v7.1C-3435.4,159.5-3435.7,159.8-3436.1,159.8z"/>
			</g>
		</g>
		<g id="Rectangle_1188">
			<rect x="-3470" y="136" class="st1" width="32" height="32"/>
		</g>
	</g>
</g>
</svg>
