<?xml version="1.0" encoding="utf-8"?>
<!-- Generator: Adobe Illustrator 24.0.2, SVG Export Plug-In . SVG Version: 6.00 Build 0)  -->
<svg version="1.1" id="Layer_1" xmlns="http://www.w3.org/2000/svg" xmlns:xlink="http://www.w3.org/1999/xlink" x="0px" y="0px"
	 viewBox="0 0 32 32" style="enable-background:new 0 0 32 32;" xml:space="preserve">
<style type="text/css">
	.st0{fill:#FFFFFF;}
	.st1{fill:none;}
</style>
<g id="Group_3222" transform="translate(3470 -209)">
	<g id="Group_3218">
		<g id="Group_3211" transform="translate(-3466 211)">
			<g id="Path_1344">
				<path class="st0" d="M22.1,28.8C22.1,28.8,22.1,28.8,22.1,28.8H2c-0.4,0-0.7-0.3-0.7-0.7V8.6c0-0.4,0.3-0.7,0.7-0.7
					s0.7,0.3,0.7,0.7v18.8h19.4c0,0,0,0,0,0c0.8,0,1.4-0.6,1.4-1.4V3.5c0-0.7-0.6-1.4-1.4-1.4c0,0,0,0,0,0H8.8
					c-0.4,0-0.7-0.3-0.7-0.7s0.3-0.7,0.7-0.7h13.4c0,0,0,0,0,0c1.5,0,2.8,1.2,2.8,2.7V26C24.9,27.6,23.7,28.8,22.1,28.8z"/>
			</g>
			<g id="Line_1487">
				<path class="st0" d="M6,28.8c-0.4,0-0.7-0.3-0.7-0.7V9.5c0-0.4,0.3-0.7,0.7-0.7s0.7,0.3,0.7,0.7v18.6C6.7,28.5,6.3,28.8,6,28.8z
					"/>
			</g>
			<g id="Line_1488">
				<path class="st0" d="M3.5,11.9H0c-0.4,0-0.7-0.3-0.7-0.7s0.3-0.7,0.7-0.7h3.5c0.4,0,0.7,0.3,0.7,0.7S3.9,11.9,3.5,11.9z"/>
			</g>
			<g id="Line_1489">
				<path class="st0" d="M3.5,15.7H0c-0.4,0-0.7-0.3-0.7-0.7s0.3-0.7,0.7-0.7h3.5c0.4,0,0.7,0.3,0.7,0.7S3.9,15.7,3.5,15.7z"/>
			</g>
			<g id="Line_1490">
				<path class="st0" d="M3.5,19.5H0c-0.4,0-0.7-0.3-0.7-0.7s0.3-0.7,0.7-0.7h3.5c0.4,0,0.7,0.3,0.7,0.7S3.9,19.5,3.5,19.5z"/>
			</g>
			<g id="Line_1491">
				<path class="st0" d="M3.5,23.6H0c-0.4,0-0.7-0.3-0.7-0.7s0.3-0.7,0.7-0.7h3.5c0.4,0,0.7,0.3,0.7,0.7S3.9,23.6,3.5,23.6z"/>
			</g>
			<g id="Path_1345">
				<path class="st0" d="M3,6.7L3,6.7c-1,0-1.9-0.4-2.6-1.1C-0.3,4.9-0.7,4-0.7,3C-0.7,1,1-0.7,3-0.7S6.7,1,6.7,3S5.1,6.7,3,6.7z
					 M3,0.7c-1.3,0-2.3,1-2.3,2.3c0,0.6,0.2,1.2,0.7,1.6c0.4,0.4,1,0.7,1.6,0.7L3,6V5.3c1.3,0,2.3-1,2.3-2.3S4.3,0.7,3,0.7z"/>
			</g>
			<g id="Line_1492">
				<path class="st0" d="M19.8,12.3h-8.9c-0.4,0-0.7-0.3-0.7-0.7s0.3-0.7,0.7-0.7h8.9c0.4,0,0.7,0.3,0.7,0.7S20.2,12.3,19.8,12.3z"
					/>
			</g>
			<g id="Line_1493">
				<path class="st0" d="M16.8,16.8h-6c-0.4,0-0.7-0.3-0.7-0.7s0.3-0.7,0.7-0.7h6c0.4,0,0.7,0.3,0.7,0.7S17.2,16.8,16.8,16.8z"/>
			</g>
		</g>
		<g id="Rectangle_1190">
			<rect x="-3470" y="209" class="st1" width="32" height="32"/>
		</g>
	</g>
</g>
</svg>
