<?xml version="1.0" encoding="utf-8"?>
<!-- Generator: Adobe Illustrator 24.0.2, SVG Export Plug-In . SVG Version: 6.00 Build 0)  -->
<svg version="1.1" id="Layer_1" xmlns="http://www.w3.org/2000/svg" xmlns:xlink="http://www.w3.org/1999/xlink" x="0px" y="0px"
	 viewBox="0 0 32 32" style="enable-background:new 0 0 32 32;" xml:space="preserve">
<style type="text/css">
	.st0{fill:#FFFFFF;}
	.st1{fill:none;}
</style>
<g id="Group_3224" transform="translate(3470 -351)">
	<g id="Group_3220">
		<g id="Group_3213" transform="translate(-4.786 -4.912)">
			<g id="Path_1360">
				<path class="st0" d="M-3446.2,385.8h-7.6c-3,0-5.5-2.5-5.5-5.5V368c0-0.4,0.3-0.7,0.7-0.7s0.7,0.3,0.7,0.7v12.3
					c0,2.2,1.8,4.1,4.1,4.1h7.6c0.4,0,0.7,0.3,0.7,0.7S-3445.8,385.8-3446.2,385.8z"/>
			</g>
			<g id="Path_1361">
				<path class="st0" d="M-3437.8,377.8c-0.4,0-0.7-0.3-0.7-0.7v-13.2l-3.7-3.8h-8.1c-0.4,0-0.7-0.3-0.7-0.7s0.3-0.7,0.7-0.7h8.4
					c0.2,0,0.4,0.1,0.5,0.2l4.1,4.3c0.1,0.1,0.2,0.3,0.2,0.5v13.5C-3437.1,377.5-3437.4,377.8-3437.8,377.8z"/>
			</g>
			<g id="Path_1362">
				<path class="st0" d="M-3457.1,364.8c-2.1,0-3.8-1.7-3.8-3.8c0-2.1,1.7-3.8,3.8-3.8c0,0,0,0,0,0c2.1,0,3.8,1.7,3.8,3.8
					c0,0,0,0,0,0C-3453.3,363.1-3455,364.8-3457.1,364.8z M-3457.1,358.6C-3457.1,358.6-3457.1,358.6-3457.1,358.6
					c-1.3,0-2.4,1.1-2.4,2.4c0,1.3,1.1,2.4,2.4,2.4c1.3,0,2.4-1.1,2.4-2.4v0C-3454.7,359.7-3455.8,358.6-3457.1,358.6z"/>
			</g>
			<g id="Path_1363">
				<path class="st0" d="M-3437.8,364.6h-4.2c-0.4,0-0.7-0.3-0.7-0.7v-4.6c0-0.4,0.3-0.7,0.7-0.7s0.7,0.3,0.7,0.7v3.9h3.5
					c0.4,0,0.7,0.3,0.7,0.7S-3437.4,364.6-3437.8,364.6z"/>
			</g>
			<g id="Path_1364">
				<path class="st0" d="M-3442.6,385.8h-7.6c-0.4,0-0.7-0.3-0.7-0.7s0.3-0.7,0.7-0.7h7.6c2.2,0,4.1-1.8,4.1-4.1V368
					c0-0.4,0.3-0.7,0.7-0.7s0.7,0.3,0.7,0.7v12.3C-3437.1,383.3-3439.5,385.8-3442.6,385.8z"/>
			</g>
			<g id="Path_1365">
				<path class="st0" d="M-3452.7,381.1c-0.8,0-1.6-0.3-2.2-0.9c-0.6-0.6-0.9-1.4-0.9-2.2s0.3-1.6,0.9-2.2l2.2-2.2
					c1.2-1.2,3.3-1.2,4.5,0c1.2,1.2,1.2,3.2,0,4.5c0,0,0,0,0,0l-2.2,2.2C-3451,380.7-3451.8,381.1-3452.7,381.1
					C-3452.6,381.1-3452.7,381.1-3452.7,381.1z M-3450.5,373.9c-0.4,0-0.9,0.2-1.2,0.5l-2.2,2.2c-0.4,0.4-0.5,0.8-0.5,1.3
					c0,0.5,0.2,0.9,0.5,1.2c0.3,0.3,0.8,0.5,1.3,0.5c0.5,0,0.9-0.2,1.2-0.5l2.2-2.2c0.7-0.7,0.7-1.8,0-2.5
					C-3449.5,374.1-3450,373.9-3450.5,373.9z M-3448.7,377.4L-3448.7,377.4L-3448.7,377.4z"/>
			</g>
			<g id="Path_1366">
				<path class="st0" d="M-3446,374.4C-3446,374.4-3446,374.4-3446,374.4c-0.9,0-1.7-0.3-2.3-0.9c-1.2-1.2-1.2-3.2,0-4.5l2.2-2.2
					c1.2-1.2,3.3-1.2,4.5,0c1.2,1.2,1.2,3.2,0,4.5c0,0,0,0,0,0l-2.2,2.2C-3444.4,374.1-3445.2,374.4-3446,374.4z M-3443.8,367.3
					c-0.4,0-0.9,0.2-1.2,0.5l-2.2,2.2c-0.7,0.7-0.7,1.8,0,2.5c0.3,0.3,0.8,0.5,1.2,0.5c0,0,0,0,0,0c0.5,0,0.9-0.2,1.2-0.5l2.2-2.2
					c0.7-0.7,0.7-1.8,0-2.5C-3442.9,367.5-3443.4,367.3-3443.8,367.3z M-3442.1,370.8L-3442.1,370.8L-3442.1,370.8z"/>
			</g>
			<g id="Line_1503">
				<path class="st0" d="M-3449.5,375.5c-0.2,0-0.4-0.1-0.5-0.2c-0.3-0.3-0.3-0.7,0-1l2.6-2.6c0.3-0.3,0.7-0.3,1,0s0.3,0.7,0,1
					l-2.6,2.6C-3449.2,375.4-3449.3,375.5-3449.5,375.5z"/>
			</g>
			<g id="Line_1504">
				<path class="st0" d="M-3455.2,381.1c-0.2,0-0.4-0.1-0.5-0.2c-0.3-0.3-0.3-0.7,0-1l1.6-1.6c0.3-0.3,0.7-0.3,1,0s0.3,0.7,0,1
					l-1.6,1.6C-3454.8,381.1-3455,381.1-3455.2,381.1z"/>
			</g>
			<g id="Line_1505">
				<path class="st0" d="M-3442.9,368.8c-0.2,0-0.4-0.1-0.5-0.2c-0.3-0.3-0.3-0.7,0-1l1.6-1.6c0.3-0.3,0.7-0.3,1,0
					c0.3,0.3,0.3,0.7,0,1l-1.6,1.6C-3442.5,368.7-3442.7,368.8-3442.9,368.8z"/>
			</g>
		</g>
		<g id="Rectangle_1196">
			<rect x="-3470" y="351" class="st1" width="32" height="32"/>
		</g>
	</g>
</g>
</svg>
