<?xml version="1.0" encoding="utf-8"?>
<!-- Generator: Adobe Illustrator 24.0.2, SVG Export Plug-In . SVG Version: 6.00 Build 0)  -->
<svg version="1.1" id="Layer_1" xmlns="http://www.w3.org/2000/svg" xmlns:xlink="http://www.w3.org/1999/xlink" x="0px" y="0px"
	 viewBox="0 0 32 32" style="enable-background:new 0 0 32 32;" xml:space="preserve">
<style type="text/css">
	.st0{fill:#FFFFFF;}
	.st1{fill:none;}
</style>
<g id="Group_3223" transform="translate(3470 -279)">
	<g id="Group_3219">
		<g id="Group_3212" transform="translate(-3469 282)">
			<g id="Line_1506">
				<path class="st0" d="M18.6,26.2H2c-0.4,0-0.7-0.3-0.7-0.7s0.3-0.7,0.7-0.7h16.6c0.4,0,0.7,0.3,0.7,0.7S19,26.2,18.6,26.2z"/>
			</g>
			<g id="Line_1507">
				<path class="st0" d="M2,26.2C2,26.2,2,26.2,2,26.2c-0.4,0-0.7-0.4-0.7-0.8l0.3-3c0-0.4,0.4-0.7,0.8-0.6c0.4,0,0.7,0.4,0.6,0.8
					l-0.3,3C2.7,25.9,2.4,26.2,2,26.2z"/>
			</g>
			<g id="Path_1367">
				<path class="st0" d="M19,26.2c-0.4,0-0.7-0.3-0.7-0.6L18,21.9c0-0.4,0-0.8-0.1-1.2c0-1.3-0.1-2.6-0.9-3.6
					c-0.7-0.8-1.6-1.3-2.6-1.5c-1.1-0.2-2.3-0.3-3.5-0.2c-1.2-0.1-2.3,0-3.4,0.3c-0.4,0.1-0.8-0.1-0.9-0.5c-0.1-0.4,0.1-0.8,0.5-0.9
					C8.4,14,9.7,13.9,11,14c1.2,0,2.4,0.1,3.7,0.3c1.4,0.2,2.6,0.9,3.5,1.9c1.1,1.4,1.2,3,1.2,4.4c0,0.4,0,0.8,0.1,1.1l0.3,3.7
					C19.7,25.8,19.4,26.2,19,26.2C19,26.2,19,26.2,19,26.2z"/>
			</g>
			<g id="Path_1368">
				<path class="st0" d="M10.6,12.1c-2.2,0-3.9-1.8-3.9-3.9c0-0.4,0.3-0.7,0.7-0.7s0.7,0.3,0.7,0.7c0,1.4,1.1,2.5,2.5,2.5
					s2.5-1.1,2.5-2.5c0-0.4,0.3-0.7,0.7-0.7s0.7,0.3,0.7,0.7C14.5,10.4,12.8,12.1,10.6,12.1z"/>
			</g>
			<g id="Path_1369">
				<path class="st0" d="M13.8,8.5c-0.4,0-0.7-0.3-0.7-0.7V5.6c0-1.4-1.1-2.5-2.5-2.5c-0.6,0-1.3,0.3-1.8,0.7C8.4,4.3,8.1,5,8.1,5.6
					v2.2c0,0.4-0.3,0.7-0.7,0.7S6.7,8.2,6.7,7.8V5.6c0-1,0.4-2,1.2-2.8c0.7-0.7,1.7-1.1,2.8-1.1c2.1,0,3.9,1.8,3.9,3.9v2.2
					C14.5,8.2,14.2,8.5,13.8,8.5z"/>
			</g>
			<g id="Path_1370">
				<path class="st0" d="M2.4,20.4C2.4,20.4,2.4,20.4,2.4,20.4c-0.8,0-1.6-0.3-2.2-0.9c-0.6-0.6-0.9-1.4-0.9-2.2
					c0-1.7,1.4-3.1,3.1-3.1c0,0,0,0,0,0c1.7,0,3.1,1.4,3.1,3.1c0,0,0,0,0,0c0,0.8-0.3,1.6-0.9,2.2C4.1,20.1,3.3,20.4,2.4,20.4z
					 M2.4,15.6c-1,0-1.7,0.8-1.7,1.7c0,0.5,0.2,0.9,0.5,1.2C1.5,18.9,2,19,2.4,19c0.5,0,0.9-0.2,1.2-0.5c0.3-0.3,0.5-0.8,0.5-1.2v0
					C4.2,16.3,3.4,15.6,2.4,15.6C2.4,15.6,2.4,15.6,2.4,15.6z M4.9,17.3L4.9,17.3L4.9,17.3z"/>
			</g>
			<g id="Line_1508">
				<path class="st0" d="M29.8,23.8H19.4c-0.4,0-0.7-0.3-0.7-0.7s0.3-0.7,0.7-0.7h10.5c0.4,0,0.7,0.3,0.7,0.7S30.2,23.8,29.8,23.8z"
					/>
			</g>
			<g id="Path_1371">
				<path class="st0" d="M29.8,23.8c-0.4,0-0.7-0.3-0.7-0.6l-0.3-3.7c0-0.4,0-0.8-0.1-1.2c0-1.3-0.1-2.6-0.9-3.6
					c-0.7-0.8-1.6-1.3-2.6-1.5C24.1,13,22.9,13,21.8,13h-0.4c-1.2,0-2.4,0.1-3.5,0.2c-1,0.2-1.9,0.7-2.6,1.5
					c-0.1,0.1-0.2,0.3-0.3,0.4c-0.2,0.3-0.6,0.5-0.9,0.3c-0.3-0.2-0.5-0.6-0.3-0.9c0.1-0.2,0.3-0.5,0.5-0.7c0.9-1,2.1-1.7,3.5-2
					c1.2-0.2,2.5-0.3,3.8-0.3h0.4c1.2,0,2.5,0.1,3.7,0.3c1.4,0.2,2.6,0.9,3.5,1.9c1.1,1.4,1.2,3,1.2,4.4c0,0.4,0,0.8,0.1,1.1
					l0.3,3.7C30.6,23.4,30.3,23.7,29.8,23.8C29.9,23.8,29.9,23.8,29.8,23.8z"/>
			</g>
			<g id="Path_1372">
				<path class="st0" d="M21.3,9.5C21.3,9.5,21.3,9.5,21.3,9.5c-2.2,0-3.9-1.7-3.9-3.8c0-0.4,0.3-0.7,0.7-0.7c0,0,0,0,0,0
					c0.4,0,0.7,0.3,0.7,0.7c0,1.4,1.1,2.4,2.5,2.5c0.7,0,1.3-0.2,1.8-0.7s0.8-1.1,0.8-1.8c0-0.4,0.3-0.7,0.7-0.7c0,0,0,0,0,0
					c0.4,0,0.7,0.3,0.7,0.7c0,1-0.4,2-1.2,2.7C23.3,9.1,22.4,9.5,21.3,9.5z"/>
			</g>
			<g id="Path_1373">
				<path class="st0" d="M24.5,6.1c-0.4,0-0.7-0.3-0.7-0.7V3.2c0-1.4-1.1-2.5-2.5-2.5c0,0,0,0,0,0c-1.4,0-2.5,1.1-2.5,2.5v2.2
					c0,0.4-0.3,0.7-0.7,0.7s-0.7-0.3-0.7-0.7V3.2c0-2.2,1.8-3.9,3.9-3.9c2.1,0,3.9,1.8,3.9,3.9v2.2C25.2,5.8,24.9,6.1,24.5,6.1z"/>
			</g>
		</g>
		<g id="Rectangle_1198">
			<rect x="-3470" y="279" class="st1" width="32" height="32"/>
		</g>
	</g>
</g>
</svg>
