<svg xmlns="http://www.w3.org/2000/svg" width="46.932" height="92.41" viewBox="0 0 46.932 92.41">
  <g id="Grupo_21492" data-name="Grupo 21492" transform="translate(-179 -1941.5)">
    <g id="Grupo_13818" data-name="Grupo 13818" transform="translate(198.438 1999.202)">
      <line id="Línea_2119" data-name="Línea 2119" y2="32.208" transform="translate(4.5)" fill="none" stroke="#505d6c" stroke-width="1" opacity="0.29"/>
      <g id="Trazado_11273" data-name="Trazado 11273" transform="translate(0 25.708)" fill="#fff">
        <path d="M 4.5 8 C 2.570090055465698 8 1 6.429910182952881 1 4.5 C 1 2.570090055465698 2.570090055465698 1 4.5 1 C 6.429910182952881 1 8 2.570090055465698 8 4.5 C 8 5.237659931182861 7.764450073242188 5.91195011138916 7.236249923706055 6.68632984161377 L 7.231080055236816 6.693910121917725 L 7.226049900054932 6.701580047607422 C 6.816100120544434 7.326940059661865 5.788169860839844 8 4.5 8 Z" stroke="none"/>
        <path d="M 4.5 2 C 3.121500015258789 2 2 3.121500015258789 2 4.5 C 2 5.878499984741211 3.121500015258789 7 4.5 7 C 5.472350120544434 7 6.175139904022217 6.480679988861084 6.389729976654053 6.153340339660645 L 6.410130023956299 6.122829914093018 C 6.929920196533203 5.360790252685547 7 4.874849796295166 7 4.5 C 7 3.121500015258789 5.878499984741211 2 4.5 2 M 4.5 0 C 6.98528003692627 0 9 2.01471996307373 9 4.5 C 9 5.424520015716553 8.721199989318848 6.283929824829102 8.062370300292969 7.249819755554199 C 7.435930252075195 8.205430030822754 6.060760021209717 9 4.5 9 C 2.01471996307373 9 0 6.98528003692627 0 4.5 C 0 2.01471996307373 2.01471996307373 0 4.5 0 Z" stroke="none" fill="#00af00"/>
      </g>
    </g>
    <g id="Grupo_20842" data-name="Grupo 20842" transform="translate(178.932 1941.5)">
      <rect id="Rectángulo_5859" data-name="Rectángulo 5859" width="46.932" height="47" transform="translate(0.068)" fill="none"/>
      <g id="Grupo_20847" data-name="Grupo 20847">
        <g id="Grupo_20842-2" data-name="Grupo 20842">
          <path id="Trazado_20056" data-name="Trazado 20056" d="M24.99,18.72l-2.465,3.348H24.99l-2.358,3.446" fill="none" stroke="#95a6b1" stroke-linecap="round" stroke-linejoin="round" stroke-width="1.5"/>
          <circle id="Elipse_3112" data-name="Elipse 3112" cx="5.612" cy="5.612" r="5.612" transform="translate(18.145 16.504)" fill="none" stroke="#95a6b1" stroke-linecap="round" stroke-linejoin="round" stroke-width="1.5"/>
        </g>
        <g id="Grupo_20846" data-name="Grupo 20846">
          <g id="Grupo_20845" data-name="Grupo 20845">
            <g id="Grupo_20843" data-name="Grupo 20843">
              <line id="Línea_4721" data-name="Línea 4721" y1="2.053" transform="translate(38.158 4.179)" fill="none" stroke="#95a6b1" stroke-linecap="round" stroke-linejoin="round" stroke-width="1.5"/>
              <line id="Línea_4722" data-name="Línea 4722" y2="2.053" transform="translate(38.158 17.021)" fill="none" stroke="#95a6b1" stroke-linecap="round" stroke-linejoin="round" stroke-width="1.5"/>
              <line id="Línea_4723" data-name="Línea 4723" y1="2.053" transform="translate(38.158 4.179)" fill="none" stroke="#95a6b1" stroke-linecap="round" stroke-linejoin="round" stroke-width="1.5"/>
              <line id="Línea_4724" data-name="Línea 4724" y2="2.053" transform="translate(38.158 17.021)" fill="none" stroke="#95a6b1" stroke-linecap="round" stroke-linejoin="round" stroke-width="1.5"/>
              <line id="Línea_4725" data-name="Línea 4725" x2="2.053" transform="translate(43.552 11.627)" fill="none" stroke="#95a6b1" stroke-linecap="round" stroke-linejoin="round" stroke-width="1.5"/>
              <line id="Línea_4726" data-name="Línea 4726" x2="2.053" transform="translate(30.711 11.627)" fill="none" stroke="#95a6b1" stroke-linecap="round" stroke-linejoin="round" stroke-width="1.5"/>
              <path id="Trazado_20057" data-name="Trazado 20057" d="M30.711,11.627" fill="none" stroke="#95a6b1" stroke-linecap="round" stroke-linejoin="round" stroke-width="1.5"/>
              <line id="Línea_4727" data-name="Línea 4727" y1="1.452" x2="1.452" transform="translate(41.972 6.361)" fill="none" stroke="#95a6b1" stroke-linecap="round" stroke-linejoin="round" stroke-width="1.5"/>
              <line id="Línea_4728" data-name="Línea 4728" x1="1.452" y2="1.452" transform="translate(32.892 15.441)" fill="none" stroke="#95a6b1" stroke-linecap="round" stroke-linejoin="round" stroke-width="1.5"/>
              <line id="Línea_4729" data-name="Línea 4729" x2="1.452" y2="1.452" transform="translate(41.972 15.441)" fill="none" stroke="#95a6b1" stroke-linecap="round" stroke-linejoin="round" stroke-width="1.5"/>
              <line id="Línea_4730" data-name="Línea 4730" x1="1.452" y1="1.452" transform="translate(32.892 6.361)" fill="none" stroke="#95a6b1" stroke-linecap="round" stroke-linejoin="round" stroke-width="1.5"/>
              <path id="Trazado_12511" data-name="Trazado 12511" d="M41.115,10.274a3.252,3.252,0,1,1-5.914,2.7h0a3.252,3.252,0,1,1,5.914-2.7Z" fill="none" stroke="#00a800" stroke-linecap="round" stroke-linejoin="round" stroke-width="1.5"/>
            </g>
            <g id="Grupo_20844" data-name="Grupo 20844">
              <path id="Trazado_20058" data-name="Trazado 20058" d="M27.841,11.627H8.208L1.394,32.338H45.068l-3.9-11.847" fill="none" stroke="#95a6b1" stroke-linecap="round" stroke-linejoin="round" stroke-width="1.5"/>
              <line id="Línea_4731" data-name="Línea 4731" y1="4.878" transform="translate(23.758 11.627)" fill="none" stroke="#95a6b1" stroke-linecap="round" stroke-linejoin="round" stroke-width="1.5"/>
              <line id="Línea_4732" data-name="Línea 4732" y1="4.609" transform="translate(23.758 27.729)" fill="none" stroke="#95a6b1" stroke-linecap="round" stroke-linejoin="round" stroke-width="1.5"/>
              <line id="Línea_4733" data-name="Línea 4733" y1="20.712" x2="3.407" transform="translate(12.35 11.627)" fill="none" stroke="#95a6b1" stroke-linecap="round" stroke-linejoin="round" stroke-width="1.5"/>
              <line id="Línea_4734" data-name="Línea 4734" x1="2.067" y1="12.564" transform="translate(32.751 19.774)" fill="none" stroke="#95a6b1" stroke-linecap="round" stroke-linejoin="round" stroke-width="1.5"/>
              <line id="Línea_4735" data-name="Línea 4735" x2="1.785" transform="translate(28.073 18.289)" fill="none" stroke="#95a6b1" stroke-linecap="round" stroke-linejoin="round" stroke-width="1.5"/>
              <line id="Línea_4736" data-name="Línea 4736" x2="13.654" transform="translate(6 18.289)" fill="none" stroke="#95a6b1" stroke-linecap="round" stroke-linejoin="round" stroke-width="1.5"/>
              <line id="Línea_4737" data-name="Línea 4737" x2="12.959" transform="translate(29.37 24.763)" fill="none" stroke="#95a6b1" stroke-linecap="round" stroke-linejoin="round" stroke-width="1.5"/>
              <line id="Línea_4738" data-name="Línea 4738" x2="13.965" transform="translate(4.18 24.763)" fill="none" stroke="#95a6b1" stroke-linecap="round" stroke-linejoin="round" stroke-width="1.5"/>
              <line id="Línea_4739" data-name="Línea 4739" y2="10.482" transform="translate(20.667 32.338)" fill="none" stroke="#95a6b1" stroke-linecap="round" stroke-linejoin="round" stroke-width="1.5"/>
              <line id="Línea_4740" data-name="Línea 4740" y2="10.171" transform="translate(26.681 32.47)" fill="none" stroke="#95a6b1" stroke-linecap="round" stroke-linejoin="round" stroke-width="1.5"/>
              <line id="Línea_4741" data-name="Línea 4741" x2="24.902" transform="translate(11.306 42.821)" fill="none" stroke="#95a6b1" stroke-linecap="round" stroke-linejoin="round" stroke-width="1.5"/>
            </g>
          </g>
        </g>
      </g>
    </g>
  </g>
</svg>
