<?xml version="1.0" encoding="utf-8"?>
<!-- Generator: Adobe Illustrator 24.0.2, SVG Export Plug-In . SVG Version: 6.00 Build 0)  -->
<svg version="1.1" id="Layer_1" xmlns="http://www.w3.org/2000/svg" xmlns:xlink="http://www.w3.org/1999/xlink" x="0px" y="0px"
	 width="32px" height="32px" viewBox="0 0 32 32" style="enable-background:new 0 0 32 32;" xml:space="preserve">
<style type="text/css">
	.st0{fill:none;}
	.st1{fill:#FFFFFF;}
</style>
<g id="Rectangle_1194">
	<rect class="st0" width="32" height="32"/>
</g>
<g>
	<path class="st1" d="M8.7,18.2C8.7,18.2,8.7,18.2,8.7,18.2c1.5,0,2.7-1.2,2.7-2.7c0-0.7-0.3-1.3-0.7-1.8c-0.5-0.5-1.2-0.9-2-0.9
		C7.2,12.8,6,14,6,15.5S7.2,18.2,8.7,18.2z M8.7,14.2c0.4,0,0.7,0.2,1,0.4c0.2,0.2,0.3,0.6,0.3,0.9c0,0.3-0.1,0.7-0.4,0.9
		S9,16.8,8.7,16.8h0c-0.7,0-1.3-0.6-1.3-1.3S7.9,14.2,8.7,14.2z"/>
	<path class="st1" d="M28.1,25.9H27V9.7C27,9.3,26.7,9,26.3,9s-0.7,0.3-0.7,0.7v16.2H22V12.8c0-0.4-0.3-0.7-0.7-0.7
		s-0.7,0.3-0.7,0.7v13.1h-3.6V16c0-0.4-0.3-0.7-0.7-0.7s-0.7,0.3-0.7,0.7v9.9h-3.6v-6.8c0-0.4-0.3-0.7-0.7-0.7s-0.7,0.3-0.7,0.7v6.8
		H7.1v-3.6c0-0.4-0.3-0.7-0.7-0.7s-0.7,0.3-0.7,0.7v3.6H3.9c-0.4,0-0.7,0.3-0.7,0.7s0.3,0.7,0.7,0.7h24.1c0.4,0,0.7-0.3,0.7-0.7
		S28.4,25.9,28.1,25.9z"/>
	<path class="st1" d="M12.1,13.5l1.1-1l1.5,1.2c0.1,0.1,0.3,0.1,0.4,0.1c0.2,0,0.4-0.1,0.5-0.2L22,7.1v1.8c0,0.4,0.3,0.7,0.7,0.7
		s0.7-0.3,0.7-0.7V5.4c0-0.2-0.1-0.4-0.2-0.5c0,0-0.1-0.1-0.2-0.1c0,0,0,0-0.1,0c-0.1,0-0.2,0-0.2,0c0,0,0,0,0,0h-3.5
		c-0.4,0-0.7,0.3-0.7,0.7s0.3,0.7,0.7,0.7H21l-6,6.1L13.6,11c-0.3-0.2-0.6-0.2-0.9,0l-1.5,1.3c-0.3,0.3-0.3,0.7-0.1,1
		C11.3,13.7,11.8,13.7,12.1,13.5z"/>
	<path class="st1" d="M4.7,19.8c0.2,0,0.3-0.1,0.5-0.2l1.2-1.1c0.3-0.3,0.3-0.7,0.1-1c-0.3-0.3-0.7-0.3-1-0.1l-1.2,1.1
		c-0.3,0.3-0.3,0.7-0.1,1C4.3,19.7,4.5,19.8,4.7,19.8z"/>
</g>
</svg>
