<svg id="Capa_1" data-name="Capa 1" xmlns="http://www.w3.org/2000/svg" viewBox="0 0 47 47"><defs><style>.cls-1{fill:none;}.cls-2{fill:#fff;}</style></defs><title>descargadero</title><rect class="cls-1" width="47" height="47"/><g id="Línea_2112" data-name="Línea 2112"><path class="cls-2" d="M42.6,40.3H5.7a.8.8,0,0,1,0-1.6H42.6a.8.8,0,0,1,0,1.6Z"/></g><g id="Trazado_11506" data-name="Trazado 11506"><path class="cls-2" d="M28.1,40.3H9.6a.9.9,0,0,1-.8-.8V11A4.2,4.2,0,0,1,13,6.7H24.7A4.2,4.2,0,0,1,28.9,11V39.5A.9.9,0,0,1,28.1,40.3ZM10.3,38.7H27.4V11a2.8,2.8,0,0,0-2.7-2.7H13A2.8,2.8,0,0,0,10.3,11Z"/></g><g id="Trazado_11507" data-name="Trazado 11507"><path class="cls-2" d="M35.4,26.5a.8.8,0,0,1-.8-.7,5.1,5.1,0,0,0-5.1-4.6H28.1a.8.8,0,0,1-.7-.8.7.7,0,0,1,.7-.7h1.4a6.5,6.5,0,0,1,6.6,6,.6.6,0,0,1-.6.8Z"/></g><g id="Línea_2113" data-name="Línea 2113"><path class="cls-2" d="M35.4,40.3a.8.8,0,0,1-.7-.8V37.1a.7.7,0,0,1,.7-.7.8.8,0,0,1,.8.7v2.4A.9.9,0,0,1,35.4,40.3Z"/></g><g id="Línea_2114" data-name="Línea 2114"><path class="cls-2" d="M28.1,13.7H9.6a.9.9,0,0,1-.8-.8.8.8,0,0,1,.8-.7H28.1a.8.8,0,0,1,.8.7A.9.9,0,0,1,28.1,13.7Z"/></g><g id="Línea_2115" data-name="Línea 2115"><path class="cls-2" d="M15.4,40.3a.9.9,0,0,1-.8-.8V12.9a.8.8,0,0,1,.8-.7.7.7,0,0,1,.7.7V39.5A.8.8,0,0,1,15.4,40.3Z"/></g><g id="Línea_2116" data-name="Línea 2116"><path class="cls-2" d="M15.4,17.8H9.6a.8.8,0,0,1-.8-.8.8.8,0,0,1,.8-.7h5.8a.7.7,0,0,1,.7.7A.7.7,0,0,1,15.4,17.8Z"/></g><g id="Línea_2117" data-name="Línea 2117"><path class="cls-2" d="M15.4,21.9H9.6a.8.8,0,0,1-.8-.7.8.8,0,0,1,.8-.8h5.8a.7.7,0,0,1,.7.8A.7.7,0,0,1,15.4,21.9Z"/></g><g id="Línea_2118" data-name="Línea 2118"><path class="cls-2" d="M15.4,26H9.6a.8.8,0,0,1-.8-.7.9.9,0,0,1,.8-.8h5.8a.8.8,0,0,1,.7.8A.7.7,0,0,1,15.4,26Z"/></g><g id="Línea_2119" data-name="Línea 2119"><path class="cls-2" d="M15.4,30.2H9.6a.8.8,0,1,1,0-1.6h5.8a.8.8,0,0,1,0,1.6Z"/></g><g id="Línea_2120" data-name="Línea 2120"><path class="cls-2" d="M15.4,34.3H9.6a.9.9,0,0,1-.8-.8.8.8,0,0,1,.8-.7h5.8a.7.7,0,0,1,.7.7A.8.8,0,0,1,15.4,34.3Z"/></g><g id="Elipse_2111" data-name="Elipse 2111"><path class="cls-2" d="M35.4,35.4a3.9,3.9,0,1,1,3.8-3.8A3.8,3.8,0,0,1,35.4,35.4Zm0-6.2a2.4,2.4,0,1,0,2.3,2.4A2.3,2.3,0,0,0,35.4,29.2Z"/></g></svg>