<svg id="Capa_1" data-name="Capa 1" xmlns="http://www.w3.org/2000/svg" viewBox="0 0 65 65"><defs><style>.cls-1{fill:none;}.cls-2{fill:#00a600;}.cls-3{fill:#62d700;}.cls-4{fill:#19a500;}.cls-5{fill:#95a6b1;}</style></defs><title>barriles</title><rect class="cls-1" y="48.3" width="65" height="16.74"/><path class="cls-2" d="M45.4,61.3H38.2A1.2,1.2,0,0,1,37,60.1a1.3,1.3,0,0,1,1.2-1.2h7.2a1.3,1.3,0,0,1,1.2,1.2A1.2,1.2,0,0,1,45.4,61.3Z"/><path class="cls-2" d="M53.1,61.3h-.6a1.2,1.2,0,0,1-1.2-1.2,1.3,1.3,0,0,1,1.2-1.2h.6a1.2,1.2,0,0,1,1.2,1.2A1.2,1.2,0,0,1,53.1,61.3Z"/><path class="cls-2" d="M19,61.3H11.9a1.2,1.2,0,0,1-1.2-1.2,1.2,1.2,0,0,1,1.2-1.2H19a1.2,1.2,0,0,1,1.2,1.2A1.2,1.2,0,0,1,19,61.3Z"/><path class="cls-3" d="M31,61.3H18.5a1.2,1.2,0,0,1-1.2-1.2,1.3,1.3,0,0,1,1.2-1.2H31a1.2,1.2,0,0,1,1.2,1.2A1.2,1.2,0,0,1,31,61.3Z"/><path class="cls-3" d="M35.5,55.2H11.9a1.2,1.2,0,1,1,0-2.4H35.5a1.2,1.2,0,0,1,0,2.4Z"/><path class="cls-2" d="M53.1,55.2H34.7a1.2,1.2,0,0,1,0-2.4H53.1a1.2,1.2,0,0,1,0,2.4Z"/><path class="cls-2" d="M12.3,55.2h-.4a1.2,1.2,0,1,1,0-2.4h.4a1.2,1.2,0,0,1,0,2.4Z"/><g id="Grupo_13216" data-name="Grupo 13216"><g id="Rectángulo_3799" data-name="Rectángulo 3799"><rect class="cls-1" width="65" height="65"/></g></g><g id="Rectángulo_3799-2" data-name="Rectángulo 3799-2"><rect class="cls-1" width="65" height="65"/></g><g id="Trazado_11847" data-name="Trazado 11847"><path class="cls-4" d="M10.7,21.2a4.5,4.5,0,0,1-4-2.5,4.4,4.4,0,0,1,2.2-5.8A4.4,4.4,0,0,1,14.7,15h0a4.2,4.2,0,0,1,.1,3.3,3.9,3.9,0,0,1-2.3,2.4A3.9,3.9,0,0,1,10.7,21.2Zm0-7.1a2,2,0,0,0-1.1.3A2.7,2.7,0,0,0,8.2,18a2.8,2.8,0,0,0,3.7,1.4,3.2,3.2,0,0,0,1.4-1.6,2.6,2.6,0,0,0-.1-2.1h0A2.8,2.8,0,0,0,10.7,14.1Z"/></g><g id="Rectángulo_4585" data-name="Rectángulo 4585"><path class="cls-5" d="M24.8,16.5H19.2a1.3,1.3,0,0,1-1.3-1.3V12.9a1.3,1.3,0,0,1,1.3-1.4h5.6a1.3,1.3,0,0,1,1.3,1.4v2.3A1.3,1.3,0,0,1,24.8,16.5Zm-5.3-1.6h5V13.1h-5Zm5.3-1.8Z"/></g><g id="Trazado_11678" data-name="Trazado 11678"><path class="cls-5" d="M30.4,43.3H11.9a.7.7,0,0,1-.8-.8V36.6H11a1.9,1.9,0,0,1-1.9-1.9v-.5A1.8,1.8,0,0,1,11,32.3h.1V28.7H11a1.9,1.9,0,0,1-1.9-1.9v-.6A1.8,1.8,0,0,1,11,24.4h.1V23a.8.8,0,0,1,.8-.8.9.9,0,0,1,.8.8v2.2a.9.9,0,0,1-.8.8H11c-.2,0-.3.1-.3.2v.6a.3.3,0,0,0,.3.3h.9a.8.8,0,0,1,.8.8v5.2a.9.9,0,0,1-.8.8H11a.3.3,0,0,0-.3.3v.5a.3.3,0,0,0,.3.3h.9a.8.8,0,0,1,.8.8v5.9H29.6V35.8a.8.8,0,0,1,.8-.8h.9a.3.3,0,0,0,.3-.3v-.5a.3.3,0,0,0-.3-.3h-.9a.9.9,0,0,1-.8-.8V27.9a.8.8,0,0,1,.8-.8h.9a.3.3,0,0,0,.3-.3v-.6c0-.1-.1-.2-.3-.2h-.9a.9.9,0,0,1-.8-.8V18.9a.9.9,0,0,1,.8-.8.8.8,0,0,1,.8.8v5.5h.1a1.8,1.8,0,0,1,1.9,1.8v.6a1.9,1.9,0,0,1-1.9,1.9h-.1v3.6h.1a1.8,1.8,0,0,1,1.9,1.9v.5a1.9,1.9,0,0,1-1.9,1.9h-.1v5.9A.7.7,0,0,1,30.4,43.3Z"/></g><g id="Línea_2316" data-name="Línea 2316"><path class="cls-5" d="M26.8,27H15.4a.8.8,0,0,1,0-1.6H26.8a.8.8,0,0,1,0,1.6Z"/></g><g id="Línea_2317" data-name="Línea 2317"><path class="cls-5" d="M26.8,34.9H15.4a.8.8,0,1,1,0-1.6H26.8a.8.8,0,1,1,0,1.6Z"/></g><g id="Rectángulo_4586" data-name="Rectángulo 4586"><path class="cls-5" d="M31.6,46.6H10.7A1.6,1.6,0,0,1,9.1,45V43.3a1.6,1.6,0,0,1,1.6-1.6H31.6a1.6,1.6,0,0,1,1.6,1.6V45A1.6,1.6,0,0,1,31.6,46.6ZM10.7,43.3V45H31.6V43.3Zm0-.8v.8h0Z"/></g><g id="Rectángulo_4587" data-name="Rectángulo 4587"><path class="cls-5" d="M31.5,19.7H16.8a.7.7,0,0,1-.8-.8.8.8,0,0,1,.8-.8H31.5V16.5H16.7a.8.8,0,0,1,0-1.6H31.5a1.6,1.6,0,0,1,1.6,1.6v1.6A1.6,1.6,0,0,1,31.5,19.7Z"/></g><g id="Rectángulo_4585-2" data-name="Rectángulo 4585-2"><path class="cls-5" d="M48.8,16.5H43.2a1.3,1.3,0,0,1-1.3-1.3V12.9a1.3,1.3,0,0,1,1.3-1.4h5.6a1.4,1.4,0,0,1,1.4,1.4v2.3A1.3,1.3,0,0,1,48.8,16.5Zm-5.3-1.6h5.1V13.1H43.5Zm5.3-1.8Z"/></g><g id="Trazado_11678-2" data-name="Trazado 11678-2"><path class="cls-5" d="M55.9,43.3H37.3a.8.8,0,0,1-.8-.8V36.6h-.1a2,2,0,0,1-1.9-1.9v-.5a1.9,1.9,0,0,1,1.9-1.9h.1V28.6h-.1a1.9,1.9,0,0,1-1.9-1.8v-.6a2,2,0,0,1,1.9-1.9h.1V18.9a.8.8,0,0,1,1.6,0v6.2a.8.8,0,0,1-.8.8h-.9a.5.5,0,0,0-.3.3v.6l.3.2h.9a.9.9,0,0,1,.8.8v5.3a.9.9,0,0,1-.8.8h-.9a.3.3,0,0,0-.3.3v.5a.3.3,0,0,0,.3.3h.9a.8.8,0,0,1,.8.8v5.9h17V35.8a.7.7,0,0,1,.8-.8h.9a.3.3,0,0,0,.3-.3v-.5a.3.3,0,0,0-.3-.3h-.9a.8.8,0,0,1-.8-.8V27.9a.7.7,0,0,1,.8-.8h.9a.5.5,0,0,0,.3-.3v-.6c0-.1-.1-.1-.1-.2H55.9a.8.8,0,0,1-.8-.8V18.9a.8.8,0,0,1,.8-.8.9.9,0,0,1,.8.8v5.5h.1a1.9,1.9,0,0,1,1.9,1.8v.6a2,2,0,0,1-1.9,1.9h-.1v3.6h.1a1.9,1.9,0,0,1,1.9,1.9v.5a2,2,0,0,1-1.9,1.9h-.1v5.9A.8.8,0,0,1,55.9,43.3Z"/></g><g id="Línea_2316-2" data-name="Línea 2316-2"><path class="cls-5" d="M52.3,27H40.9a.8.8,0,1,1,0-1.6H52.3a.8.8,0,1,1,0,1.6Z"/></g><g id="Línea_2317-2" data-name="Línea 2317-2"><path class="cls-5" d="M52.3,34.9H40.9a.8.8,0,0,1,0-1.6H52.3a.8.8,0,1,1,0,1.6Z"/></g><g id="Rectángulo_4586-2" data-name="Rectángulo 4586-2"><path class="cls-5" d="M57.1,46.6h-21A1.6,1.6,0,0,1,34.5,45V43.3a1.6,1.6,0,0,1,1.6-1.6h21a1.6,1.6,0,0,1,1.6,1.6V45A1.7,1.7,0,0,1,57.1,46.6Zm-21-3.3V45h21V43.3Zm0-.8v.8h0Z"/></g><g id="Rectángulo_4587-2" data-name="Rectángulo 4587-2"><path class="cls-5" d="M57,19.7H36a1.6,1.6,0,0,1-1.5-1.6V16.5A1.6,1.6,0,0,1,36,14.9H57a1.6,1.6,0,0,1,1.6,1.6v1.6A1.6,1.6,0,0,1,57,19.7ZM36,16.5v1.6H57V16.5Zm0-.8v.8h0Z"/></g></svg>