<svg id="Capa_1" data-name="Capa 1" xmlns="http://www.w3.org/2000/svg" viewBox="0 0 65 65"><defs><style>.cls-1{fill:none;}.cls-2{fill:#19a301;}.cls-3{fill:#82d400;}.cls-4{fill:#95a6b1;}.cls-5{fill:#19a500;}</style></defs><title>crudo_bombeado</title><rect class="cls-1" width="65" height="65"/><rect class="cls-1" y="48.3" width="65" height="16.74"/><path class="cls-2" d="M45.4,61.3H38.2A1.2,1.2,0,0,1,37,60.1a1.3,1.3,0,0,1,1.2-1.2h7.2a1.3,1.3,0,0,1,1.2,1.2A1.2,1.2,0,0,1,45.4,61.3Z"/><path class="cls-2" d="M53.1,61.3h-.6a1.2,1.2,0,0,1-1.2-1.2,1.3,1.3,0,0,1,1.2-1.2h.6a1.2,1.2,0,0,1,1.2,1.2A1.2,1.2,0,0,1,53.1,61.3Z"/><path class="cls-2" d="M19,61.3H11.9a1.2,1.2,0,0,1-1.2-1.2,1.2,1.2,0,0,1,1.2-1.2H19a1.2,1.2,0,0,1,1.2,1.2A1.2,1.2,0,0,1,19,61.3Z"/><path class="cls-3" d="M31,61.3H18.5a1.2,1.2,0,0,1-1.2-1.2,1.3,1.3,0,0,1,1.2-1.2H31a1.2,1.2,0,0,1,1.2,1.2A1.2,1.2,0,0,1,31,61.3Z"/><path class="cls-3" d="M35.5,55.2H11.9a1.2,1.2,0,1,1,0-2.4H35.5a1.2,1.2,0,0,1,0,2.4Z"/><path class="cls-2" d="M53.1,55.2H34.7a1.2,1.2,0,0,1,0-2.4H53.1a1.2,1.2,0,0,1,0,2.4Z"/><path class="cls-2" d="M12.3,55.2h-.4a1.2,1.2,0,1,1,0-2.4h.4a1.2,1.2,0,0,1,0,2.4Z"/><path class="cls-4" d="M55.3,34.2H37a.9.9,0,0,1-.8-.8V24.5a.9.9,0,0,1,.8-.8h3.7a.8.8,0,0,1,.8.8.7.7,0,0,1-.8.8H37.8v7.3H55.3a.7.7,0,0,1,.8.8A.8.8,0,0,1,55.3,34.2Z"/><path class="cls-4" d="M55.3,25.3H51.6a.8.8,0,0,1-.8-.8.9.9,0,0,1,.8-.8h3.7a.8.8,0,0,1,.8.8A.7.7,0,0,1,55.3,25.3Z"/><path class="cls-4" d="M37,35H32.9a.9.9,0,0,1-.8-.8V23.7a.8.8,0,0,1,.8-.8H37a.7.7,0,0,1,.8.8V34.2A.8.8,0,0,1,37,35Zm-3.3-1.6h2.5V24.5H33.7Z"/><path class="cls-5" d="M46.1,28.4l-1.4-.2a4.5,4.5,0,0,1-2.2-2.1,4.4,4.4,0,0,1-.1-3,4,4,0,0,1,7.3-.2h0a4.1,4.1,0,0,1-2,5.2A4.1,4.1,0,0,1,46.1,28.4Zm0-6.2-1,.2a2.5,2.5,0,0,0-1.2,1.3,2.3,2.3,0,0,0,.1,1.8,2.5,2.5,0,0,0,1.3,1.2,2.3,2.3,0,0,0,1.8-.1,2.1,2.1,0,0,0,1.2-1.4,2.2,2.2,0,0,0-.1-1.6A2.3,2.3,0,0,0,46.1,22.2Z"/><g id="Rect치ngulo_4592" data-name="Rect치ngulo 4592"><path class="cls-4" d="M34,45.5H10.8a1.9,1.9,0,0,1-1.9-1.9v-.9a1.9,1.9,0,0,1,1.9-1.9H34a2,2,0,0,1,1.9,1.9v.9A2,2,0,0,1,34,45.5ZM10.8,42.4a.3.3,0,0,0-.3.3v.9a.3.3,0,0,0,.3.3H34a.3.3,0,0,0,.3-.3v-.9a.3.3,0,0,0-.3-.3Z"/></g><g id="Rect치ngulo_4593" data-name="Rect치ngulo 4593"><path class="cls-4" d="M34,15.7H10.8a1.8,1.8,0,0,1-1.9-1.9V13a1.9,1.9,0,0,1,1.9-1.9H34A2,2,0,0,1,35.9,13v.8A1.9,1.9,0,0,1,34,15.7Zm-23.2-3a.3.3,0,0,0-.3.3v.8a.3.3,0,0,0,.3.3H34a.3.3,0,0,0,.3-.3V13a.3.3,0,0,0-.3-.3Z"/></g><g id="Trazado_11681" data-name="Trazado 11681"><path class="cls-4" d="M32.9,42.4h-21a.8.8,0,0,1-.8-.8V34.8h-.2a2,2,0,0,1-2-2v-.6a2.1,2.1,0,0,1,2-2.1h.2V25.8h-.2a2,2,0,0,1-2-2v-.6a2,2,0,0,1,2-2h.2V14.9a.8.8,0,0,1,.8-.8h21a.9.9,0,0,1,.8.8V41.6A.8.8,0,0,1,32.9,42.4ZM12.7,40.8H32.1V22h0V15.7H12.7V22a.9.9,0,0,1-.8.8h-1a.4.4,0,0,0-.4.4v.6a.4.4,0,0,0,.4.4h1a.9.9,0,0,1,.8.8v5.9a.8.8,0,0,1-.8.8h-1a.5.5,0,0,0-.4.5v.6a.4.4,0,0,0,.4.4h1a.9.9,0,0,1,.8.8Z"/></g><g id="Trazado_11682" data-name="Trazado 11682"><path class="cls-4" d="M29.4,39.8H15.3a.9.9,0,0,1-.8-.8V22.5a.7.7,0,0,1,.4-.6c.1-.1,2.9-2.1,7.8-.1s6.3,0,6.3,0a1.1,1.1,0,0,1,.8,0,.8.8,0,0,1,.4.7V39A.8.8,0,0,1,29.4,39.8ZM16.1,38.2H28.6V23.7a9.5,9.5,0,0,1-6.5-.5c-3.2-1.2-5.2-.6-6-.2Z"/></g></svg>