<svg id="Capa_1" data-name="Capa 1" xmlns="http://www.w3.org/2000/svg" viewBox="0 0 65 65"><defs><style>.cls-1{fill:#95a6b1;}.cls-2{fill:#00a800;}.cls-3{fill:none;}.cls-4{fill:#19a301;}.cls-5{fill:#82d400;}</style></defs><title>estacion_almacena</title><path class="cls-1" d="M54.1,45.3H11.9a.7.7,0,0,1-.8-.8v-12a.8.8,0,0,1,.8-.8H54.1a.8.8,0,0,1,.8.8v12A.7.7,0,0,1,54.1,45.3ZM12.7,43.7H53.3V33.3H12.7Z"/><path class="cls-1" d="M11.9,46.2H7.8a.8.8,0,0,1-.8-.8V31.7a.7.7,0,0,1,.8-.8h4.1a.8.8,0,0,1,.8.8V45.4A.9.9,0,0,1,11.9,46.2ZM8.6,44.6h2.5V32.5H8.6Z"/><path class="cls-1" d="M58.2,46.2H54.1a.9.9,0,0,1-.8-.8V31.7a.8.8,0,0,1,.8-.8h4.1a.8.8,0,0,1,.8.8V45.4A.9.9,0,0,1,58.2,46.2Zm-3.3-1.6h2.5V32.5H54.9Z"/><path class="cls-1" d="M21,45.3a.8.8,0,0,1-.8-.8V40.6a.8.8,0,0,1,.8-.8.7.7,0,0,1,.8.8v3.9A.7.7,0,0,1,21,45.3Z"/><path class="cls-2" d="M29,25.7a3.5,3.5,0,0,1-1.4-.3,4.3,4.3,0,0,1-2.2-2,3.9,3.9,0,0,1,2-5.2,4,4,0,0,1,5.2,1.9h0a4.1,4.1,0,0,1,.1,2.9,3.7,3.7,0,0,1-2.1,2.3A4.2,4.2,0,0,1,29,25.7Zm0-6.3-1,.2a3.7,3.7,0,0,0-1.2,1.3,2.3,2.3,0,0,0,.1,1.8,2.2,2.2,0,0,0,1.3,1.2,2.8,2.8,0,0,0,1.8,0,2.4,2.4,0,0,0,1.2-1.4,2.5,2.5,0,0,0-.1-1.7A2.3,2.3,0,0,0,29,19.4Z"/><path class="cls-1" d="M45.3,33.3H31.2a.8.8,0,0,1-.8-.8V27a.8.8,0,0,1,.8-.8.7.7,0,0,1,.8.8v4.7H44.5V22.8H34.7a.8.8,0,0,1-.8-.8.9.9,0,0,1,.8-.8H45.3a.8.8,0,0,1,.8.8V32.5A.7.7,0,0,1,45.3,33.3Z"/><path class="cls-1" d="M45.3,26.1H34.7a.8.8,0,0,1-.8-.8.7.7,0,0,1,.8-.8H45.3a.7.7,0,0,1,.8.8A.8.8,0,0,1,45.3,26.1Z"/><rect class="cls-3" width="65" height="65"/><g id="Elipse_2295" data-name="Elipse 2295"><path class="cls-1" d="M38.8,18.5a7,7,0,1,1,0-14,7,7,0,0,1,0,14Zm0-12.4a5.4,5.4,0,0,0-5.4,5.4,5.4,5.4,0,0,0,10.8,0A5.4,5.4,0,0,0,38.8,6.1Z"/></g><g id="Línea_2439" data-name="Línea 2439"><path class="cls-1" d="M40.8,11.9H38.9a.7.7,0,0,1-.8-.8.8.8,0,0,1,.8-.8h1.9a.8.8,0,0,1,.8.8A.7.7,0,0,1,40.8,11.9Z"/></g><g id="Línea_2440" data-name="Línea 2440"><path class="cls-1" d="M38.9,13a.7.7,0,0,1-.8-.8V10a.8.8,0,0,1,.8-.8.9.9,0,0,1,.8.8v2.2A.8.8,0,0,1,38.9,13Z"/></g><path class="cls-1" d="M38.8,22.8A.8.8,0,0,1,38,22V17.7a.8.8,0,0,1,.8-.8.7.7,0,0,1,.8.8V22A.7.7,0,0,1,38.8,22.8Z"/><path class="cls-1" d="M45.4,39.4H32.2a.8.8,0,0,1-.8-.8.7.7,0,0,1,.8-.8H45.4a.8.8,0,0,1,.8.8A.9.9,0,0,1,45.4,39.4Z"/><path class="cls-1" d="M42.4,42.5a.5.5,0,0,1-.5-.3.8.8,0,0,1,0-1.1l2.5-2.5L41.9,36A.8.8,0,0,1,43,34.9L46.1,38a.8.8,0,0,1,0,1.1L43,42.2A.9.9,0,0,1,42.4,42.5Z"/><rect class="cls-3" y="48.3" width="65" height="16.74"/><path class="cls-4" d="M45.4,61.3H38.2A1.2,1.2,0,0,1,37,60.1a1.3,1.3,0,0,1,1.2-1.2h7.2a1.3,1.3,0,0,1,1.2,1.2A1.2,1.2,0,0,1,45.4,61.3Z"/><path class="cls-4" d="M53.1,61.3h-.6a1.2,1.2,0,0,1-1.2-1.2,1.3,1.3,0,0,1,1.2-1.2h.6a1.2,1.2,0,0,1,1.2,1.2A1.2,1.2,0,0,1,53.1,61.3Z"/><path class="cls-4" d="M19,61.3H11.9a1.2,1.2,0,0,1-1.2-1.2,1.2,1.2,0,0,1,1.2-1.2H19a1.2,1.2,0,0,1,1.2,1.2A1.2,1.2,0,0,1,19,61.3Z"/><path class="cls-5" d="M31,61.3H18.5a1.2,1.2,0,0,1-1.2-1.2,1.3,1.3,0,0,1,1.2-1.2H31a1.2,1.2,0,0,1,1.2,1.2A1.2,1.2,0,0,1,31,61.3Z"/><path class="cls-5" d="M35.5,55.2H11.9a1.2,1.2,0,1,1,0-2.4H35.5a1.2,1.2,0,0,1,0,2.4Z"/><path class="cls-4" d="M53.1,55.2H34.7a1.2,1.2,0,0,1,0-2.4H53.1a1.2,1.2,0,0,1,0,2.4Z"/><path class="cls-4" d="M12.3,55.2h-.4a1.2,1.2,0,1,1,0-2.4h.4a1.2,1.2,0,0,1,0,2.4Z"/></svg>