<svg id="Capa_1" data-name="Capa 1" xmlns="http://www.w3.org/2000/svg" viewBox="0 0 65 65"><defs><style>.cls-1{fill:none;}.cls-2{fill:#19a301;}.cls-3{fill:#82d400;}.cls-4{fill:#00a800;}.cls-5{fill:#95a6b1;}</style></defs><title>recibe_crudo</title><rect class="cls-1" width="65" height="65"/><rect class="cls-1" y="48.3" width="65" height="16.74"/><path class="cls-2" d="M45.4,61.3H38.2A1.2,1.2,0,0,1,37,60.1a1.3,1.3,0,0,1,1.2-1.2h7.2a1.3,1.3,0,0,1,1.2,1.2A1.2,1.2,0,0,1,45.4,61.3Z"/><path class="cls-2" d="M53.1,61.3h-.6a1.2,1.2,0,0,1-1.2-1.2,1.3,1.3,0,0,1,1.2-1.2h.6a1.2,1.2,0,0,1,1.2,1.2A1.2,1.2,0,0,1,53.1,61.3Z"/><path class="cls-2" d="M19,61.3H11.9a1.2,1.2,0,0,1-1.2-1.2,1.2,1.2,0,0,1,1.2-1.2H19a1.2,1.2,0,0,1,1.2,1.2A1.2,1.2,0,0,1,19,61.3Z"/><path class="cls-3" d="M31,61.3H18.5a1.2,1.2,0,0,1-1.2-1.2,1.3,1.3,0,0,1,1.2-1.2H31a1.2,1.2,0,0,1,1.2,1.2A1.2,1.2,0,0,1,31,61.3Z"/><path class="cls-3" d="M35.5,55.2H11.9a1.2,1.2,0,1,1,0-2.4H35.5a1.2,1.2,0,0,1,0,2.4Z"/><path class="cls-2" d="M53.1,55.2H34.7a1.2,1.2,0,0,1,0-2.4H53.1a1.2,1.2,0,0,1,0,2.4Z"/><path class="cls-2" d="M12.3,55.2h-.4a1.2,1.2,0,1,1,0-2.4h.4a1.2,1.2,0,0,1,0,2.4Z"/><path class="cls-4" d="M6.6,24.1a4,4,0,0,1-1.5-.3,4.1,4.1,0,0,1-2.3-2.2,4,4,0,0,1-.1-3.2A3.9,3.9,0,0,1,4.8,16a4.7,4.7,0,0,1,3.3-.1,4.5,4.5,0,0,1,2.3,2.2h0a4.2,4.2,0,0,1,.2,3.1,4.3,4.3,0,0,1-2.3,2.5A4.7,4.7,0,0,1,6.6,24.1Zm0-6.8a2.2,2.2,0,0,0-1.1.2,2.5,2.5,0,0,0-1.3,1.4,2.5,2.5,0,0,0,1.5,3.4,2.8,2.8,0,0,0,2-.1,2.9,2.9,0,0,0,1.4-1.5A3.1,3.1,0,0,0,9,18.8H9a2.6,2.6,0,0,0-1.5-1.4Z"/><path class="cls-5" d="M31.9,34.1H13.3A9.5,9.5,0,0,1,4,26a1,1,0,0,1,.7-.9c.4-.1.8.3.9.7a7.8,7.8,0,0,0,7.7,6.7H31.9a7.8,7.8,0,1,0,0-15.6H13.3l-1.9.2a.8.8,0,0,1-.3-1.5,7.8,7.8,0,0,1,2.2-.3H31.9a9.4,9.4,0,0,1,0,18.8Z"/><path class="cls-5" d="M60.1,39.5H54.8a.8.8,0,0,1,0-1.6h5.3a.8.8,0,1,1,0,1.6Z"/><path class="cls-5" d="M44.6,39.5H40.5a.9.9,0,0,1-.8-.8V22.6a4.9,4.9,0,0,1,4.9-4.9h6.7a3.7,3.7,0,0,1,3.4,2.1l1.9,4.4a4.4,4.4,0,0,0,1.6,1.7,5,5,0,0,1,2.7,4.5v5.2a.7.7,0,0,1-.8.8.8.8,0,0,1-.8-.8V30.4a3.5,3.5,0,0,0-1.8-3.1,5.1,5.1,0,0,1-2.3-2.5l-1.9-4.3a2.4,2.4,0,0,0-2-1.2H44.6a3.3,3.3,0,0,0-3.3,3.3V37.9h3.3a.8.8,0,1,1,0,1.6Z"/><path class="cls-5" d="M40.5,39.5H20.3a.8.8,0,1,1,0-1.6H39.7V34.1H7.4A1.8,1.8,0,0,0,5.5,36,1.9,1.9,0,0,0,6,37.3a2,2,0,0,0,1.4.6H10a.8.8,0,1,1,0,1.6H7.4a3.9,3.9,0,0,1-2.5-1,3.5,3.5,0,0,1,2.5-6H40.5a.7.7,0,0,1,.8.8v5.4A.8.8,0,0,1,40.5,39.5Z"/><path class="cls-5" d="M15.1,44.3a5.9,5.9,0,1,1,6-5.9A5.9,5.9,0,0,1,15.1,44.3Zm0-10.2a4.3,4.3,0,1,0,0,8.6,4.3,4.3,0,1,0,0-8.6Z"/><path class="cls-5" d="M15.1,41.4a3,3,0,1,1,3.1-3A3,3,0,0,1,15.1,41.4Zm0-4.4a1.4,1.4,0,0,0,0,2.8,1.4,1.4,0,1,0,0-2.8Z"/><path class="cls-5" d="M49.7,44.3a5.9,5.9,0,0,1,0-11.8,5.9,5.9,0,1,1,0,11.8Zm0-10.2a4.3,4.3,0,1,0,0,8.6,4.3,4.3,0,1,0,0-8.6Z"/><path class="cls-5" d="M49.7,41.4a3,3,0,1,1,3-3A2.9,2.9,0,0,1,49.7,41.4Zm0-4.4a1.4,1.4,0,1,0,1.4,1.4A1.4,1.4,0,0,0,49.7,37Z"/><path class="cls-5" d="M60.1,39.5a.8.8,0,1,1,0-1.6.7.7,0,0,0,.8-.8V34.8a.7.7,0,0,0-.8-.7.9.9,0,0,1-.8-.8.8.8,0,0,1,.8-.8,2.3,2.3,0,0,1,2.4,2.3v2.3A2.4,2.4,0,0,1,60.1,39.5Z"/><path class="cls-5" d="M60.1,36.4a3.2,3.2,0,0,1,0-6.3.7.7,0,0,1,.8.8.8.8,0,0,1-.8.8,1.6,1.6,0,0,0-1.5,1.6,1.5,1.5,0,0,0,1.5,1.5.8.8,0,0,1,.8.8A.7.7,0,0,1,60.1,36.4Z"/><path class="cls-5" d="M51.9,27.6H44.7a.8.8,0,0,1-.8-.8V21.3a.8.8,0,0,1,.8-.8h5.9a.8.8,0,0,1,.8.6l1.3,5.6a.7.7,0,0,1-.1.6A.9.9,0,0,1,51.9,27.6ZM45.5,26h5.4L50,22.1H45.5Z"/><path class="cls-5" d="M47.3,30.3H44.8a.8.8,0,0,1-.8-.8.9.9,0,0,1,.8-.8h2.5a.9.9,0,0,1,.8.8A.8.8,0,0,1,47.3,30.3Z"/><path class="cls-5" d="M18.4,16.9H13.3a.9.9,0,0,1-.8-.8V13.5a.8.8,0,0,1,.8-.8h5.1a.7.7,0,0,1,.8.8v2.6A.8.8,0,0,1,18.4,16.9Zm-4.3-1.6h3.5v-1H14.1Z"/><path class="cls-5" d="M28.5,16.9H23.3a.9.9,0,0,1-.8-.8V13.5a.8.8,0,0,1,.8-.8h5.2a.8.8,0,0,1,.8.8v2.6A.9.9,0,0,1,28.5,16.9Zm-4.4-1.6h3.6v-1H24.1Z"/><path class="cls-5" d="M31.2,34.1a.9.9,0,0,1-.8-.8V14.7a.8.8,0,0,1,.8-.8.7.7,0,0,1,.8.8V33.3A.8.8,0,0,1,31.2,34.1Z"/><path class="cls-5" d="M35.2,34.1a.8.8,0,0,1-.8-.8V14.7a.7.7,0,0,1,.8-.8.8.8,0,0,1,.8.8V33.3A.9.9,0,0,1,35.2,34.1Z"/><path class="cls-5" d="M35.2,20.1H31.6a.9.9,0,0,1-.8-.8.8.8,0,0,1,.8-.8h3.6a.8.8,0,0,1,.8.8A.9.9,0,0,1,35.2,20.1Z"/><path class="cls-5" d="M35.2,23.8H31.6a.8.8,0,0,1-.8-.8.9.9,0,0,1,.8-.8h3.6a.9.9,0,0,1,.8.8A.8.8,0,0,1,35.2,23.8Z"/><path class="cls-5" d="M35.2,27.6H31.6a.8.8,0,0,1-.8-.8.9.9,0,0,1,.8-.8h3.6a.9.9,0,0,1,.8.8A.8.8,0,0,1,35.2,27.6Z"/><path class="cls-5" d="M35.2,31.4H31.6a.9.9,0,0,1-.8-.8.8.8,0,0,1,.8-.8h3.6a.8.8,0,0,1,.8.8A.9.9,0,0,1,35.2,31.4Z"/></svg>