<?xml version="1.0" encoding="utf-8"?>
<!-- Generator: Adobe Illustrator 24.0.2, SVG Export Plug-In . SVG Version: 6.00 Build 0)  -->
<svg version="1.1" id="Capa_1" xmlns="http://www.w3.org/2000/svg" xmlns:xlink="http://www.w3.org/1999/xlink" x="0px" y="0px"
	 viewBox="0 0 65 65" style="enable-background:new 0 0 65 65;" xml:space="preserve">
<style type="text/css">
	.st0{display:none;}
	.st1{fill:none;}
	.st2{clip-path:url(#SVGID_2_);}
	.st3{fill:#4C9F2E;}
	.st4{fill:#94D040;}
	.st5{fill:none;stroke:#00A800;stroke-width:1.6;stroke-linecap:round;stroke-linejoin:round;stroke-miterlimit:10;}
	.st6{fill:none;stroke:#95A6B1;stroke-width:1.6;stroke-linecap:round;stroke-linejoin:round;stroke-miterlimit:10;}
</style>
<g id="BASE" class="st0">
</g>
<g id="Capa_1_1_">
	<g>
		<rect class="st1" width="65" height="65"/>
		<g>
			<defs>
				<rect id="SVGID_1_" y="48.26" width="65" height="16.74"/>
			</defs>
			<clipPath id="SVGID_2_">
				<use xlink:href="#SVGID_1_"  style="overflow:visible;"/>
			</clipPath>
			<g class="st2">
				<g>
					<rect y="48.26" class="st1" width="65" height="16.74"/>
				</g>
				<g>
					<g>
						<path class="st3" d="M45.38,61.32h-7.17c-0.66,0-1.2-0.54-1.2-1.2s0.54-1.2,1.2-1.2h7.17c0.66,0,1.2,0.54,1.2,1.2
							S46.04,61.32,45.38,61.32z"/>
					</g>
					<g>
						<path class="st3" d="M53.11,61.32h-0.58c-0.66,0-1.2-0.54-1.2-1.2s0.54-1.2,1.2-1.2h0.58c0.66,0,1.2,0.54,1.2,1.2
							S53.77,61.32,53.11,61.32z"/>
					</g>
					<g>
						<path class="st3" d="M18.99,61.32h-7.1c-0.66,0-1.2-0.54-1.2-1.2s0.54-1.2,1.2-1.2h7.1c0.66,0,1.2,0.54,1.2,1.2
							S19.65,61.32,18.99,61.32z"/>
					</g>
					<g>
						<path class="st4" d="M31.05,61.32H18.53c-0.66,0-1.2-0.54-1.2-1.2s0.54-1.2,1.2-1.2h12.52c0.66,0,1.2,0.54,1.2,1.2
							S31.71,61.32,31.05,61.32z"/>
					</g>
					<g>
						<path class="st4" d="M35.47,55.21H11.89c-0.66,0-1.2-0.54-1.2-1.2s0.54-1.2,1.2-1.2h23.58c0.66,0,1.2,0.54,1.2,1.2
							S36.13,55.21,35.47,55.21z"/>
					</g>
					<g>
						<path class="st3" d="M53.11,55.21H34.75c-0.66,0-1.2-0.54-1.2-1.2s0.54-1.2,1.2-1.2h18.36c0.66,0,1.2,0.54,1.2,1.2
							S53.77,55.21,53.11,55.21z"/>
					</g>
					<g>
						<path class="st3" d="M12.32,55.21h-0.43c-0.66,0-1.2-0.54-1.2-1.2s0.54-1.2,1.2-1.2h0.43c0.66,0,1.2,0.54,1.2,1.2
							S12.98,55.21,12.32,55.21z"/>
					</g>
				</g>
			</g>
		</g>
		<g>
			<path class="st5" d="M45.44,39.82c0.34,0.74,0.36,1.55,0.12,2.27c-0.26,0.79-0.84,1.48-1.66,1.85c-1.56,0.71-3.41,0.03-4.12-1.54
				c-0.71-1.56-0.03-3.41,1.54-4.12C42.88,37.57,44.73,38.26,45.44,39.82z"/>
			<g>
				<path class="st6" d="M54.61,43.21h-2.88V29.03h2.88V43.21z M9.27,43.21H6.39V29.03h2.88V43.21z"/>
				<g>
					<polyline class="st6" points="12.09,31.35 9.2,31.35 9.2,40.88 13.39,40.88 					"/>
					<path class="st6" d="M48.67,40.88h3.06v-9.53H11.04"/>
					<path class="st6" d="M11.07,40.88h25.54"/>
					<rect x="54.61" y="31.35" class="st6" width="4.09" height="9.53"/>
				</g>
			</g>
			<g>
				<rect id="Rectángulo_5166_1_" x="16.13" y="24.76" class="st6" width="12.54" height="6.59"/>
				<rect id="Rectángulo_5167_1_" x="21.29" y="21.98" class="st6" width="2.21" height="2.78"/>
			</g>
		</g>
	</g>
	<g>
		<polyline class="st6" points="28.61,41.03 28.61,43.21 25.73,43.21 25.73,41.03 		"/>
		<polyline class="st6" points="33.73,31.21 33.73,29.03 36.61,29.03 36.61,31.21 		"/>
	</g>
	<g>
		<path class="st6" d="M45.33,19.76l0.08,0.45c0.24,1.32,1.25,2.37,2.56,2.66l0,0l0,0c-1.31,0.28-2.33,1.33-2.56,2.66l-0.08,0.45
			l-0.08-0.45c-0.24-1.32-1.25-2.37-2.56-2.66l0,0l0,0c1.31-0.28,2.33-1.33,2.56-2.66L45.33,19.76z"/>
		<path class="st6" d="M52.92,12.89l0.1,0.55c0.29,1.64,1.55,2.94,3.17,3.29l0,0l0,0c-1.63,0.35-2.88,1.65-3.17,3.29l-0.1,0.55
			l-0.1-0.55c-0.29-1.64-1.55-2.94-3.17-3.29l0,0l0,0c1.63-0.35,2.88-1.65,3.17-3.29L52.92,12.89z"/>
		<g>
			<line class="st6" x1="47.29" y1="8.42" x2="47.29" y2="12.41"/>
			<line class="st6" x1="49.28" y1="10.41" x2="45.29" y2="10.41"/>
		</g>
	</g>
	<circle id="Elipse_2295_2_" class="st6" cx="22.4" cy="15.12" r="6.21"/>
	<line id="Línea_2440_2_" class="st6" x1="22.44" y1="13.7" x2="22.44" y2="15.9"/>
	<line id="Línea_2440_3_" class="st6" x1="24.75" y1="14.9" x2="22.55" y2="14.9"/>
</g>
</svg>
