<?xml version="1.0" encoding="utf-8"?>
<!-- Generator: Adobe Illustrator 24.0.2, SVG Export Plug-In . SVG Version: 6.00 Build 0)  -->
<svg version="1.1" xmlns="http://www.w3.org/2000/svg" xmlns:xlink="http://www.w3.org/1999/xlink" x="0px" y="0px"
	 viewBox="0 0 65 65" style="enable-background:new 0 0 65 65;" xml:space="preserve">
<style type="text/css">
	.st0{display:none;}
	.st1{display:inline;fill:#98A6B0;}
	.st2{fill:none;}
	.st3{fill:none;stroke:#FFFFFF;stroke-width:1.5122;stroke-linecap:round;stroke-linejoin:round;}
	.st4{fill:none;stroke:#95A6B1;stroke-width:1.6;stroke-linecap:round;stroke-linejoin:round;stroke-miterlimit:10;}
	.st5{fill:none;stroke:#00A800;stroke-width:1.6;stroke-linecap:round;stroke-linejoin:round;stroke-miterlimit:10;}
	.st6{fill:#4C9F2E;}
	.st7{fill:#94D040;}
</style>
<g id="BASE" class="st0">
</g>
<g id="Capa_1">
	<g>
		<g>
			<g>
				<g id="Grupo_13213_2_" transform="translate(-0.246 -0.246)">
					<rect id="Rectángulo_3799-2_2_" x="0.25" y="0.25" class="st2" width="65" height="65"/>
				</g>
			</g>
			<g>
				<g>
					<g>
						<rect y="48.26" class="st2" width="65" height="16.74"/>
					</g>
					<g>
						<g>
							<path class="st6" d="M45.38,61.32h-7.17c-0.66,0-1.2-0.54-1.2-1.2s0.54-1.2,1.2-1.2h7.17c0.66,0,1.2,0.54,1.2,1.2
								S46.04,61.32,45.38,61.32z"/>
						</g>
						<g>
							<path class="st6" d="M53.11,61.32h-0.58c-0.66,0-1.2-0.54-1.2-1.2s0.54-1.2,1.2-1.2h0.58c0.66,0,1.2,0.54,1.2,1.2
								S53.77,61.32,53.11,61.32z"/>
						</g>
						<g>
							<path class="st6" d="M18.99,61.32h-7.1c-0.66,0-1.2-0.54-1.2-1.2s0.54-1.2,1.2-1.2h7.1c0.66,0,1.2,0.54,1.2,1.2
								S19.65,61.32,18.99,61.32z"/>
						</g>
						<g>
							<path class="st7" d="M31.05,61.32H18.53c-0.66,0-1.2-0.54-1.2-1.2s0.54-1.2,1.2-1.2h12.52c0.66,0,1.2,0.54,1.2,1.2
								S31.71,61.32,31.05,61.32z"/>
						</g>
						<g>
							<path class="st7" d="M35.47,55.21H11.89c-0.66,0-1.2-0.54-1.2-1.2s0.54-1.2,1.2-1.2h23.58c0.66,0,1.2,0.54,1.2,1.2
								S36.14,55.21,35.47,55.21z"/>
						</g>
						<g>
							<path class="st6" d="M53.11,55.21H34.75c-0.66,0-1.2-0.54-1.2-1.2s0.54-1.2,1.2-1.2h18.36c0.66,0,1.2,0.54,1.2,1.2
								S53.77,55.21,53.11,55.21z"/>
						</g>
						<g>
							<path class="st6" d="M12.32,55.21h-0.43c-0.66,0-1.2-0.54-1.2-1.2s0.54-1.2,1.2-1.2h0.43c0.66,0,1.2,0.54,1.2,1.2
								S12.98,55.21,12.32,55.21z"/>
						</g>
					</g>
				</g>
			</g>
		</g>
		<g>
			<g>
				<path class="st4" d="M39.29,10.99l-3.15,2.37c-1.42,1.07-3.38,1.1-4.83,0.07l-3.2-2.28c-0.73,0.3-1.46,0.63-2.16,1.05
					c-0.7,0.42-1.45,1-1.95,1.4l0.48,3.9c0.22,1.77-0.74,3.47-2.36,4.21l-3.58,1.64c-0.22,1.58-0.2,3.19,0.07,4.78l3.62,1.54
					c1.64,0.7,2.64,2.37,2.47,4.15l-0.37,3.92c1.27,1,2.68,1.79,4.17,2.34l3.15-2.37c1.42-1.07,3.38-1.1,4.83-0.07l3.2,2.28
					c0.73-0.3,1.46-0.63,2.16-1.05c0.7-0.42,1.34-0.9,1.95-1.4l-0.48-3.9c-0.22-1.77,0.74-3.47,2.36-4.21l3.58-1.64
					c0.22-1.58,0.2-3.19-0.07-4.78l-3.62-1.54c-1.64-0.7-2.64-2.37-2.47-4.15l0.37-3.92C42.19,12.33,40.79,11.55,39.29,10.99z"/>
				<g>
					<path class="st4" d="M9.76,33.5L15,31.12l5.32,2.21v1.58c0,0.72-0.11,1.65-0.31,2.58c-0.27,1.21-0.71,2.4-1.39,3.45
						c-0.33,0.51-0.71,1.04-1.17,1.44c-0.53,0.46-1.18,0.79-1.77,1.17c-0.4,0.25-0.9,0.25-1.3,0c-0.99-0.63-1.99-1.36-2.72-2.32
						c-0.82-1.07-1.31-2.43-1.6-3.73c-0.21-0.93-0.31-1.86-0.31-2.58V33.5z"/>
					<polyline class="st4" points="12.78,37.18 14.41,38.62 17.3,35.53 					"/>
				</g>
				<g>
					<g>
						<path class="st4" d="M33.97,21.36L33.97,21.36c2.49,0,4.51,2.02,4.51,4.51v5.77h-9.02v-5.77
							C29.46,23.38,31.48,21.36,33.97,21.36z"/>
						<polygon class="st4" points="38.47,31.64 29.45,31.64 28.57,34.02 39.32,34.02 						"/>
						<line class="st4" x1="33.91" y1="18.83" x2="33.91" y2="17.6"/>
						<line class="st4" x1="29.17" y1="21.07" x2="28.06" y2="19.96"/>
						<line class="st4" x1="41.8" y1="25.78" x2="40.56" y2="25.78"/>
						<line class="st4" x1="27.24" y1="25.78" x2="26.01" y2="25.78"/>
						<line class="st4" x1="38.58" y1="21.07" x2="39.69" y2="19.96"/>
					</g>
				</g>
			</g>
			<path class="st4" d="M13.41,31.83c-0.55-1.89-0.84-3.89-0.84-5.96c0-5.89,2.39-11.23,6.25-15.09"/>
			<path class="st4" d="M39.12,46.56c-1.67,0.42-3.42,0.64-5.22,0.64c-5.95,0-11.33-2.43-15.19-6.36"/>
			<path class="st4" d="M54.63,20.81c0.39,1.62,0.6,3.32,0.6,5.06c0,6.13-2.59,11.66-6.73,15.56"/>
			<path class="st4" d="M28.22,5.29c1.81-0.5,3.72-0.77,5.69-0.77c5.05,0,9.68,1.75,13.34,4.68"/>
			<polyline class="st4" points="12.14,10.78 18.84,10.78 18.84,17.47 			"/>
			<polyline class="st4" points="55.19,41.42 48.5,41.42 48.5,34.73 			"/>
		</g>
		<path id="Trazado_11848_7_" class="st5" d="M55.37,14.91c0,2.31-1.87,4.18-4.18,4.18c-2.31,0-4.18-1.87-4.18-4.18
			c0-2.31,1.87-4.18,4.18-4.18l0,0c2.3-0.01,4.17,1.85,4.18,4.15C55.37,14.89,55.37,14.9,55.37,14.91z"/>
	</g>
</g>
</svg>
