<?xml version="1.0" encoding="utf-8"?>
<!-- Generator: Adobe Illustrator 24.0.2, SVG Export Plug-In . SVG Version: 6.00 Build 0)  -->
<svg version="1.1" id="Capa_1" xmlns="http://www.w3.org/2000/svg" xmlns:xlink="http://www.w3.org/1999/xlink" x="0px" y="0px"
	 viewBox="0 0 47 47" style="enable-background:new 0 0 47 47;" xml:space="preserve">
<style type="text/css">
	.st0{display:none;fill:#333333;}
	.st1{fill:none;stroke:#00A800;stroke-width:1.5;stroke-linecap:round;stroke-linejoin:round;stroke-miterlimit:10;}
	.st2{fill:none;stroke:#93A4AF;stroke-width:1.5;stroke-linecap:round;stroke-linejoin:round;stroke-miterlimit:10;}
	.st3{fill:none;}
</style>
<rect class="st0" width="47" height="47"/>
<g>
	<g>
		<path id="Trazado_11848_2_" class="st1" d="M18.29,4.85c0,1.93-1.56,3.49-3.49,3.49c-1.93,0-3.49-1.56-3.49-3.49
			c0-1.93,1.56-3.49,3.49-3.49h0c1.92-0.01,3.48,1.54,3.49,3.46C18.29,4.83,18.29,4.84,18.29,4.85z"/>
		<path class="st2" d="M20.87,4.91h9.65c2.47,0,4.48,2.01,4.48,4.48v30.76c0,2.48-2.01,4.49-4.48,4.49H16.48
			c-2.47,0-4.48-2.01-4.48-4.49V10.39"/>
		<line class="st2" x1="12" y1="12.31" x2="35" y2="12.31"/>
		<line class="st2" x1="21.41" y1="8.57" x2="25.59" y2="8.57"/>
		<line class="st2" x1="12" y1="34.23" x2="35" y2="34.23"/>
		<circle class="st2" cx="23.5" cy="39.46" r="2.4"/>
	</g>
	<rect class="st3" width="47" height="47"/>
</g>
</svg>
