<?xml version="1.0" encoding="utf-8"?>
<!-- Generator: Adobe Illustrator 24.0.2, SVG Export Plug-In . SVG Version: 6.00 Build 0)  -->
<svg version="1.1" id="Capa_1" xmlns="http://www.w3.org/2000/svg" xmlns:xlink="http://www.w3.org/1999/xlink" x="0px" y="0px"
	 viewBox="0 0 47 47" style="enable-background:new 0 0 47 47;" xml:space="preserve">
<style type="text/css">
	.st0{display:none;fill:#333333;}
	.st1{fill:none;stroke:#00A800;stroke-width:1.5;stroke-linecap:round;stroke-linejoin:round;stroke-miterlimit:10;}
	.st2{fill:none;stroke:#93A4AF;stroke-width:1.5;stroke-linecap:round;stroke-linejoin:round;stroke-miterlimit:10;}
	.st3{fill:none;}
</style>
<rect class="st0" width="47" height="47"/>
<g>
	<g>
		<path id="Trazado_11848_1_" class="st1" d="M12.49,21.06c0,1.93-1.56,3.49-3.49,3.49c-1.93,0-3.49-1.56-3.49-3.49
			c0-1.93,1.56-3.49,3.49-3.49h0c1.92-0.01,3.48,1.54,3.49,3.46C12.49,21.04,12.49,21.05,12.49,21.06z"/>
		<path id="XMLID_2035_" class="st2" d="M13.15,25.74c1.37,1.83,3.19,3.74,5.54,5.83c9.04,8.09,15.91,7.06,16.21,7.01
			c0.64-0.12,1.26-0.31,1.87-0.59c0.67-0.3,1.28-0.7,1.81-1.16l0.03,0.03l1.23-1.35c0.89-1,0.88-2.66-0.13-3.37l-4.82-4.31
			c-0.96-0.85-2.46-0.74-3.35,0.25l-2.17,2.43c-0.15-0.07-0.31-0.15-0.47-0.23c-1.5-0.72-3.55-1.71-5.76-3.69s-3.43-3.91-4.32-5.32
			c-0.09-0.15-0.18-0.29-0.27-0.43l1.46-1.63l0.71-0.8c0.9-0.99,0.84-2.5-0.12-3.36l-4.82-4.31C14.82,9.89,13.31,10,12.42,11
			l-1.21,1.37l0.04,0.03c-0.4,0.57-0.73,1.23-0.96,1.93c-0.09,0.3-0.17,0.58-0.23,0.87"/>
		<line class="st2" x1="35.04" y1="22.79" x2="41.49" y2="22.79"/>
		<line class="st2" x1="26.02" y1="8.35" x2="26.02" y2="14.67"/>
		<line class="st2" x1="31.05" y1="17.63" x2="35.88" y2="12.8"/>
	</g>
	<rect class="st3" width="47" height="47"/>
</g>
</svg>
