<?xml version="1.0" encoding="utf-8"?>
<!-- Generator: Adobe Illustrator 24.0.2, SVG Export Plug-In . SVG Version: 6.00 Build 0)  -->
<svg version="1.1" id="Capa_1" xmlns="http://www.w3.org/2000/svg" xmlns:xlink="http://www.w3.org/1999/xlink" x="0px" y="0px"
	 viewBox="0 0 47 47" style="enable-background:new 0 0 47 47;" xml:space="preserve">
<style type="text/css">
	.st0{display:none;fill:#333333;}
	.st1{fill:none;stroke:#93A4AF;stroke-width:1.5;stroke-linecap:round;stroke-linejoin:round;stroke-miterlimit:10;}
	.st2{fill:none;stroke:#00A800;stroke-width:1.5;stroke-linecap:round;stroke-linejoin:round;stroke-miterlimit:10;}
	.st3{fill:none;}
</style>
<rect class="st0" width="47" height="47"/>
<g>
	<g>
		<path id="Trazado_11848_2_" class="st2" d="M12.07,10.65c0,1.93-1.56,3.49-3.49,3.49c-1.93,0-3.49-1.56-3.49-3.49
			c0-1.93,1.56-3.49,3.49-3.49h0c1.92-0.01,3.48,1.54,3.49,3.46C12.08,10.63,12.08,10.64,12.07,10.65z"/>
		<g>
			<path id="XMLID_1_" class="st1" d="M33.87,29.03l-3.44-3.08c-0.68-0.61-1.76-0.53-2.39,0.18l-1.55,1.73
				c-0.11-0.05-0.22-0.11-0.33-0.16c-1.07-0.52-2.53-1.22-4.11-2.64c-1.58-1.41-2.45-2.79-3.08-3.8c-0.07-0.11-0.13-0.21-0.2-0.31
				l1.04-1.16l0.51-0.57c0.64-0.71,0.59-1.79-0.09-2.4l-3.44-3.08c-0.68-0.61-1.76-0.53-2.39,0.18l-0.87,0.98l0.03,0.02
				c-0.29,0.41-0.52,0.88-0.68,1.38c-0.15,0.47-0.23,0.93-0.26,1.37c-0.23,3.59,1.58,6.76,6.25,10.94c6.46,5.77,11.36,5.04,11.57,5
				c0.46-0.08,0.9-0.22,1.34-0.42c0.47-0.22,0.91-0.5,1.29-0.83l0.02,0.02l0.88-0.96C34.59,30.71,34.59,29.53,33.87,29.03z"/>
			<path class="st1" d="M6.35,16.34c-0.92,2.2-1.43,4.62-1.43,7.16c0,3.58,1.03,6.91,2.78,9.74l-2.78,8.84l8.84-2.78
				c2.83,1.75,6.16,2.78,9.74,2.78c10.25,0,18.57-8.32,18.57-18.58c0-10.25-8.32-18.57-18.57-18.57c-3.51,0-6.79,0.97-9.6,2.67"/>
		</g>
	</g>
	<rect class="st3" width="47" height="47"/>
</g>
</svg>
