<?xml version="1.0" encoding="utf-8"?>
<!-- Generator: Adobe Illustrator 24.0.2, SVG Export Plug-In . SVG Version: 6.00 Build 0)  -->
<svg version="1.1" id="Capa_1" xmlns="http://www.w3.org/2000/svg" xmlns:xlink="http://www.w3.org/1999/xlink" x="0px" y="0px"
	 viewBox="0 0 47 47" style="enable-background:new 0 0 47 47;" xml:space="preserve">
<style type="text/css">
	.st0{display:none;fill:#333333;}
	.st1{fill:none;stroke:#00A800;stroke-width:1.5;stroke-linecap:round;stroke-linejoin:round;stroke-miterlimit:10;}
	.st2{fill:none;stroke:#93A4AF;stroke-width:1.5;stroke-linecap:round;stroke-linejoin:round;stroke-miterlimit:10;}
	.st3{fill:none;}
</style>
<rect class="st0" width="47" height="47"/>
<g>
	<g>
		<path id="Trazado_11848_1_" class="st1" d="M10.83,13.05c0,1.93-1.56,3.49-3.49,3.49c-1.93,0-3.49-1.56-3.49-3.49
			c0-1.93,1.56-3.49,3.49-3.49h0c1.92-0.01,3.48,1.54,3.49,3.46C10.83,13.03,10.83,13.04,10.83,13.05z"/>
		<g>
			<polyline class="st2" points="13.45,13.25 43.15,13.25 43.15,37.45 7.34,37.45 7.34,19 			"/>
			<polyline class="st2" points="27.92,27.13 43.16,37.44 7.34,37.44 22.58,27.13 			"/>
			<path class="st2" d="M13.45,13.25h29.7L27.92,27.14l-0.91,0.82c-1,0.91-2.53,0.91-3.53,0l-0.91-0.82l-11.04-9.89"/>
		</g>
	</g>
	<rect class="st3" width="47" height="47"/>
</g>
</svg>
