<?xml version="1.0" encoding="utf-8"?>
<!-- Generator: Adobe Illustrator 24.0.2, SVG Export Plug-In . SVG Version: 6.00 Build 0)  -->
<svg version="1.1" id="Capa_1" xmlns="http://www.w3.org/2000/svg" xmlns:xlink="http://www.w3.org/1999/xlink" x="0px" y="0px"
	 viewBox="0 0 47 47" style="enable-background:new 0 0 47 47;" xml:space="preserve">
<style type="text/css">
	.st0{display:none;fill:#333333;}
	.st1{fill:none;stroke:#00A800;stroke-width:1.5;stroke-linecap:round;stroke-linejoin:round;stroke-miterlimit:10;}
	.st2{fill:none;stroke:#93A4AF;stroke-width:1.5;stroke-linecap:round;stroke-linejoin:round;stroke-miterlimit:10;}
	.st3{fill:none;}
</style>
<rect class="st0" width="47" height="47"/>
<g>
	<g>
		<path id="Trazado_11848_2_" class="st1" d="M13.96,9.45c0,1.93-1.56,3.49-3.49,3.49c-1.93,0-3.49-1.56-3.49-3.49
			c0-1.93,1.56-3.49,3.49-3.49h0c1.92-0.01,3.48,1.54,3.49,3.46C13.96,9.43,13.96,9.44,13.96,9.45z"/>
		<g>
			<g>
				<polyline class="st2" points="9.23,15.93 9.23,31.44 24.63,31.44 40.03,31.44 40.03,8.04 16.94,8.04 				"/>
				<line class="st2" x1="24.63" y1="31.44" x2="24.63" y2="41.04"/>
			</g>
			<line class="st2" x1="30.22" y1="41.04" x2="18.22" y2="41.04"/>
			<circle class="st2" cx="24.63" cy="19.67" r="7.29"/>
			<polygon class="st2" points="28.27,19.67 23.07,16.67 23.07,22.68 			"/>
		</g>
	</g>
	<rect class="st3" width="47" height="47"/>
</g>
</svg>
