<?xml version="1.0" encoding="utf-8"?>
<!-- Generator: Adobe Illustrator 24.0.2, SVG Export Plug-In . SVG Version: 6.00 Build 0)  -->
<svg version="1.1" id="Capa_1" xmlns="http://www.w3.org/2000/svg" xmlns:xlink="http://www.w3.org/1999/xlink" x="0px" y="0px"
	 viewBox="0 0 47 47" style="enable-background:new 0 0 47 47;" xml:space="preserve">
<style type="text/css">
	.st0{display:none;fill:#333333;}
	.st1{fill:none;stroke:#00A800;stroke-width:1.5;stroke-linecap:round;stroke-linejoin:round;stroke-miterlimit:10;}
	.st2{fill:none;stroke:#93A4AF;stroke-width:1.5;stroke-linecap:round;stroke-linejoin:round;}
	.st3{fill:none;stroke:#93A4AF;stroke-width:1.5;stroke-linecap:round;stroke-linejoin:round;stroke-miterlimit:10;}
	.st4{fill:none;}
</style>
<rect class="st0" width="47" height="47"/>
<g>
	<g>
		<path id="Trazado_11848_1_" class="st1" d="M18.24,9.5c0,1.93-1.56,3.49-3.49,3.49c-1.93,0-3.49-1.56-3.49-3.49
			c0-1.93,1.56-3.49,3.49-3.49h0c1.92-0.01,3.48,1.54,3.49,3.46C18.24,9.48,18.24,9.49,18.24,9.5z"/>
		<path class="st2" d="M19.87,6.63C21.08,6.22,22.38,6,23.74,6c6.63,0,12,5.37,12,12s-12,23-12,23s-12-16.37-12-23
			c0-0.98,0.12-1.93,0.34-2.84"/>
		<circle class="st3" cx="23.74" cy="18.5" r="4.5"/>
	</g>
	<rect class="st4" width="47" height="47"/>
</g>
</svg>
