<?xml version="1.0" encoding="utf-8"?>
<!-- Generator: Adobe Illustrator 24.0.2, SVG Export Plug-In . SVG Version: 6.00 Build 0)  -->
<svg version="1.1" id="Capa_1" xmlns="http://www.w3.org/2000/svg" xmlns:xlink="http://www.w3.org/1999/xlink" x="0px" y="0px"
	 viewBox="0 0 47 47" style="enable-background:new 0 0 47 47;" xml:space="preserve">
<style type="text/css">
	.st0{display:none;fill:#333333;}
	.st1{fill:none;stroke:#93A4AF;stroke-width:1.5;stroke-miterlimit:10;}
	.st2{fill:none;stroke:#93A4AF;stroke-width:1.5;stroke-linecap:round;stroke-linejoin:round;stroke-miterlimit:10;}
	.st3{fill:none;stroke:#00A800;stroke-width:1.5;stroke-linecap:round;stroke-linejoin:round;stroke-miterlimit:10;}
	.st4{fill:none;}
</style>
<rect class="st0" width="47" height="47"/>
<g>
	<g>
		
			<ellipse transform="matrix(0.0171 -0.9999 0.9999 0.0171 -2.4136 48.5746)" class="st1" cx="23.5" cy="25.51" rx="8.34" ry="17.14"/>
		<path class="st2" d="M23.79,8.38c4.67,0.08,8.33,7.82,8.17,17.28c-0.16,9.47-4.08,17.07-8.75,16.99s-8.33-7.82-8.17-17.28
			c0.07-3.81,1.13-8.49,2.22-11.32"/>
		<line class="st1" x1="6.36" y1="25.22" x2="40.64" y2="25.81"/>
		<line class="st1" x1="23.79" y1="8.38" x2="23.21" y2="42.65"/>
		<path class="st2" d="M22.42,8.4c6.57-0.41,13.07,3,16.3,9.23c4.36,8.41,1.07,18.75-7.33,23.1s-18.75,1.07-23.1-7.33
			c-3.39-6.55-2.15-14.27,2.54-19.43"/>
		<path id="Trazado_11848_1_" class="st3" d="M18.83,7.83c0,1.93-1.56,3.49-3.49,3.49c-1.93,0-3.49-1.56-3.49-3.49
			c0-1.93,1.56-3.49,3.49-3.49h0c1.92-0.01,3.48,1.54,3.49,3.46C18.83,7.81,18.83,7.82,18.83,7.83z"/>
	</g>
	<rect class="st4" width="47" height="47"/>
</g>
</svg>
