<?xml version="1.0" encoding="utf-8"?>
<!-- Generator: Adobe Illustrator 24.0.2, SVG Export Plug-In . SVG Version: 6.00 Build 0)  -->
<svg version="1.1" id="Layer_1" xmlns="http://www.w3.org/2000/svg" xmlns:xlink="http://www.w3.org/1999/xlink" x="0px" y="0px"
	 viewBox="0 0 34 34" style="enable-background:new 0 0 34 34;" xml:space="preserve">
<style type="text/css">
	.st0{fill:none;stroke:#FFFFFF;stroke-width:2.5;stroke-linecap:round;stroke-linejoin:round;}
	.st1{fill:none;stroke:#EFEF00;stroke-width:2.5;stroke-linecap:round;stroke-linejoin:round;}
</style>
<title>logo_footer-linkedin</title>
<g id="logo_footer_linkedin" transform="translate(-1.94 -1.915)">
	<path id="Trazado_5851" class="st0" d="M13.1,6.8c6.7-3.2,14.8-0.4,18,6.3c3.2,6.7,0.4,14.8-6.3,18s-14.8,0.4-18-6.3
		C5.9,23,5.5,21,5.5,18.9c0-0.4,0-0.9,0.1-1.3"/>
	<path id="Trazado_5852" class="st1" d="M11.3,11.4c0,1.6-1.3,2.9-2.9,2.9c-1.6,0-2.9-1.3-2.9-2.9c0-1.6,1.3-2.9,2.9-2.9
		C10,8.5,11.2,9.8,11.3,11.4C11.3,11.4,11.3,11.4,11.3,11.4z"/>
	<path id="Path_17965" class="st0" d="M19.5,25.3v-5.1c0-1.6,1.3-2.8,2.8-2.8l0,0c1.6,0,2.8,1.3,2.9,2.8v5.1"/>
	<line id="Line_1495" class="st0" x1="19.5" y1="20.7" x2="19.5" y2="17"/>
	<line id="Line_1496" class="st0" x1="15.3" y1="25.3" x2="15.3" y2="17"/>
	<line id="Line_1497" class="st0" x1="15.3" y1="13.1" x2="15.3" y2="12.3"/>
</g>
</svg>
