<?xml version="1.0" encoding="utf-8"?>
<!-- Generator: Adobe Illustrator 24.0.2, SVG Export Plug-In . SVG Version: 6.00 Build 0)  -->
<svg version="1.1" xmlns="http://www.w3.org/2000/svg" xmlns:xlink="http://www.w3.org/1999/xlink" x="0px" y="0px"
	 viewBox="0 0 65 65" style="enable-background:new 0 0 65 65;" xml:space="preserve">
<style type="text/css">
	.st0{display:none;}
	.st1{display:inline;fill:#9AA5AF;}
	.st2{fill:none;stroke:#19A500;stroke-width:1.6;stroke-linecap:round;stroke-linejoin:round;stroke-miterlimit:10;}
	.st3{fill:none;stroke:#95A6B1;stroke-width:1.6;stroke-linecap:round;stroke-linejoin:round;stroke-miterlimit:10;}
	.st4{fill:none;}
	.st5{fill:#4DA12E;}
	.st6{fill:#96D200;}
	.st7{fill:none;stroke:#95A6B1;stroke-width:1.6;stroke-linecap:round;stroke-linejoin:round;}
	.st8{fill:none;stroke:#19A500;stroke-width:1.6;stroke-miterlimit:10;}
</style>
<g id="Capa_2" class="st0">
</g>
<g id="Capa_1">
	<g>
		<polyline class="st3" points="34.47,21.25 31.71,25.01 34.47,25.01 31.83,28.87 		"/>
		<circle class="st3" cx="33.09" cy="25.06" r="6.29"/>
	</g>
	<g>
		<g>
			<g>
				<g>
					<rect y="48.26" class="st4" width="65" height="16.74"/>
				</g>
				<g>
					<g>
						<path class="st5" d="M45.38,61.32h-7.17c-0.66,0-1.2-0.54-1.2-1.2s0.54-1.2,1.2-1.2h7.17c0.66,0,1.2,0.54,1.2,1.2
							S46.04,61.32,45.38,61.32z"/>
					</g>
					<g>
						<path class="st5" d="M53.11,61.32h-0.58c-0.66,0-1.2-0.54-1.2-1.2s0.54-1.2,1.2-1.2h0.58c0.66,0,1.2,0.54,1.2,1.2
							S53.77,61.32,53.11,61.32z"/>
					</g>
					<g>
						<path class="st5" d="M18.99,61.32h-7.1c-0.66,0-1.2-0.54-1.2-1.2s0.54-1.2,1.2-1.2h7.1c0.66,0,1.2,0.54,1.2,1.2
							S19.65,61.32,18.99,61.32z"/>
					</g>
					<g>
						<path class="st6" d="M31.05,61.32H18.53c-0.66,0-1.2-0.54-1.2-1.2s0.54-1.2,1.2-1.2h12.52c0.66,0,1.2,0.54,1.2,1.2
							S31.71,61.32,31.05,61.32z"/>
					</g>
					<g>
						<path class="st6" d="M35.47,55.21H11.89c-0.66,0-1.2-0.54-1.2-1.2s0.54-1.2,1.2-1.2h23.58c0.66,0,1.2,0.54,1.2,1.2
							S36.14,55.21,35.47,55.21z"/>
					</g>
					<g>
						<path class="st5" d="M53.11,55.21H34.75c-0.66,0-1.2-0.54-1.2-1.2s0.54-1.2,1.2-1.2h18.36c0.66,0,1.2,0.54,1.2,1.2
							S53.77,55.21,53.11,55.21z"/>
					</g>
					<g>
						<path class="st5" d="M12.32,55.21h-0.43c-0.66,0-1.2-0.54-1.2-1.2s0.54-1.2,1.2-1.2h0.43c0.66,0,1.2,0.54,1.2,1.2
							S12.98,55.21,12.32,55.21z"/>
					</g>
				</g>
			</g>
		</g>
		<rect id="Rectángulo_3799-2_2_" class="st4" width="65" height="65"/>
		<g>
			<g>
				<line class="st7" x1="49.23" y1="7.26" x2="49.23" y2="4.96"/>
				<line class="st7" x1="49.23" y1="19.35" x2="49.23" y2="21.65"/>
				<line class="st7" x1="49.23" y1="7.26" x2="49.23" y2="4.96"/>
				<line class="st7" x1="49.23" y1="19.35" x2="49.23" y2="21.65"/>
				<line class="st7" x1="55.27" y1="13.31" x2="57.57" y2="13.31"/>
				<line class="st7" x1="40.88" y1="13.31" x2="43.18" y2="13.31"/>
				<line class="st7" x1="53.5" y1="9.03" x2="55.13" y2="7.41"/>
				<line class="st7" x1="44.95" y1="17.58" x2="43.33" y2="19.21"/>
				<line class="st7" x1="53.5" y1="17.58" x2="55.13" y2="19.21"/>
				<line class="st7" x1="44.95" y1="9.03" x2="43.33" y2="7.41"/>
				<path id="Trazado_12511_2_" class="st8" d="M52.54,11.79c0.38,0.84,0.44,1.79,0.15,2.66c-0.32,0.96-1.02,1.75-1.94,2.17
					c-1.83,0.84-3.99,0.03-4.83-1.8c0,0,0,0,0,0c-0.84-1.83-0.03-3.99,1.8-4.83C49.54,9.16,51.7,9.96,52.54,11.79z"/>
			</g>
			<g>
				<polyline class="st7" points="37.66,13.31 15.67,13.31 8.03,36.51 56.97,36.51 52.6,23.24 				"/>
				<line class="st7" x1="33.09" y1="18.77" x2="33.09" y2="13.31"/>
				<line class="st7" x1="33.09" y1="36.51" x2="33.09" y2="31.35"/>
				<line class="st7" x1="20.31" y1="36.51" x2="24.13" y2="13.31"/>
				<line class="st7" x1="45.48" y1="36.51" x2="43.17" y2="22.44"/>
				<line class="st7" x1="37.93" y1="20.77" x2="39.93" y2="20.77"/>
				<line class="st7" x1="13.19" y1="20.77" x2="28.49" y2="20.77"/>
				<line class="st7" x1="39.38" y1="28.03" x2="53.9" y2="28.03"/>
				<line class="st7" x1="11.15" y1="28.03" x2="26.8" y2="28.03"/>
				<line class="st7" x1="29.63" y1="36.51" x2="29.63" y2="48.26"/>
				<line class="st7" x1="36.37" y1="36.66" x2="36.37" y2="48.06"/>
				<line class="st7" x1="19.14" y1="48.26" x2="47.04" y2="48.26"/>
			</g>
		</g>
	</g>
</g>
</svg>
