<?xml version="1.0" encoding="utf-8"?>
<!-- Generator: Adobe Illustrator 24.0.2, SVG Export Plug-In . SVG Version: 6.00 Build 0)  -->
<svg version="1.1" id="Capa_1" xmlns="http://www.w3.org/2000/svg" xmlns:xlink="http://www.w3.org/1999/xlink" x="0px" y="0px"
	 viewBox="0 0 65 65" style="enable-background:new 0 0 65 65;" xml:space="preserve">
<style type="text/css">
	.st0{display:none;}
	.st1{fill:none;}
	.st2{fill:none;stroke:#95A6B1;stroke-width:1.6;stroke-linecap:round;stroke-linejoin:round;}
	.st3{fill:none;stroke:#19A500;stroke-width:1.6;stroke-linecap:round;stroke-linejoin:round;stroke-miterlimit:10;}
	.st4{clip-path:url(#SVGID_2_);}
	.st5{fill:#4DA12E;}
	.st6{fill:#96D200;}
</style>
<g id="Capa_2_1_" class="st0">
</g>
<g id="Capa_1_1_">
	<g id="Grupo_14998" transform="translate(-83.703)">
		<rect id="Rectángulo_3799-2_5_" x="83.7" class="st1" width="65" height="65"/>
		<g id="Grupo_15005">
			<g id="Grupo_15004">
				<line id="Línea_2848" class="st2" x1="90.83" y1="49.25" x2="142.23" y2="49.25"/>
				<path id="Trazado_12467" class="st2" d="M94.54,14.58v-2.15c0-1.72,1.39-3.11,3.11-3.11l0,0h3.62c1.72,0,3.12,1.39,3.12,3.11
					l0,0v36.59"/>
				<line id="Línea_2849" class="st2" x1="94.54" y1="49.24" x2="94.54" y2="30.23"/>
				<path id="Trazado_12468" class="st2" d="M123.39,49.17V34.68c0-1.66,1.34-3,3-3h9.12c1.66,0,3,1.34,3,3v14.56"/>
				<path id="Trazado_12469" class="st2" d="M119.65,49.17V28.19c0-1.66,1.34-3,3-3h5.22c1.66,0,3,1.34,3,3v3.34"/>
				<path id="Trazado_12470" class="st2" d="M104.38,15.42h1.37c1.44,0,2.6,1.16,2.6,2.6v31"/>
				<path id="Trazado_12471" class="st2" d="M104.61,31.07h7.02c1.27,0,2.29,1.03,2.29,2.29v7.71c0,1.27,1.03,2.29,2.29,2.29h6.92"
					/>
				<path id="Trazado_12472" class="st2" d="M133.48,40.65l-2.1-4.34l-1.94,4.34c-0.21,0.44-0.35,0.92-0.41,1.41
					c0,1.34,1.09,2.42,2.43,2.42c1.33,0,2.42-1.08,2.42-2.42C133.81,41.57,133.68,41.1,133.48,40.65z"/>
				<line id="Línea_2850" class="st2" x1="125.61" y1="18.91" x2="125.61" y2="24.9"/>
				<path id="Rectángulo_5120" class="st2" d="M118.1,2.45h20.18l0,0v11.27c0,2.85-2.31,5.15-5.15,5.15l0,0h-20.18l0,0V7.61
					C112.94,4.76,115.25,2.45,118.1,2.45L118.1,2.45z"/>
				<path id="Trazado_11848_4_" class="st3" d="M98.69,22.29c0,2.31-1.88,4.18-4.19,4.18s-4.18-1.88-4.18-4.19s1.87-4.18,4.18-4.18
					l0,0c2.3-0.01,4.17,1.85,4.18,4.15l0,0C98.69,22.26,98.69,22.28,98.69,22.29z"/>
				<g id="Grupo_15000">
					<g id="Grupo_14999">
						<line id="Línea_2851" class="st2" x1="129.96" y1="16.07" x2="129.96" y2="8.53"/>
						<g id="Grupo_14998-2">
							<path id="Rectángulo_5121" class="st2" d="M132.08,5.49h0.16c1.17,0,2.12,0.94,2.12,2.11l0,0v1.06
								c0,1.26-1.02,2.28-2.28,2.28l0,0h-2.12l0,0V7.61C129.97,6.44,130.91,5.49,132.08,5.49z"/>
							<line id="Línea_2852" class="st2" x1="134.35" y1="16.07" x2="129.97" y2="10.95"/>
						</g>
					</g>
				</g>
				<g id="Grupo_15003">
					<g id="Grupo_15002">
						<line id="Línea_2853" class="st2" x1="116.17" y1="16.07" x2="116.17" y2="8.53"/>
						<g id="Grupo_15001">
							<path id="Rectángulo_5122" class="st2" d="M118.29,5.49h0.16c1.17,0,2.12,0.94,2.12,2.11l0,0v1.06
								c0,1.26-1.02,2.28-2.28,2.28l0,0h-2.12l0,0V7.61C116.17,6.44,117.12,5.49,118.29,5.49z"/>
						</g>
						<path id="Trazado_12473" class="st2" d="M125.29,5.49h-0.16c-1.17,0-2.11,0.95-2.12,2.12v6.33c0,1.17,0.95,2.11,2.12,2.12
							h0.16c1.17,0,2.11-0.95,2.12-2.12V7.61C127.41,6.44,126.46,5.49,125.29,5.49z"/>
					</g>
				</g>
			</g>
		</g>
	</g>
	<g>
		<defs>
			<rect id="SVGID_1_" y="48.26" width="65" height="16.74"/>
		</defs>
		<clipPath id="SVGID_2_">
			<use xlink:href="#SVGID_1_"  style="overflow:visible;"/>
		</clipPath>
		<g class="st4">
			<g>
				<rect y="48.26" class="st1" width="65" height="16.74"/>
			</g>
			<g>
				<g>
					<path class="st5" d="M45.38,61.32h-7.17c-0.66,0-1.2-0.54-1.2-1.2s0.54-1.2,1.2-1.2h7.17c0.66,0,1.2,0.54,1.2,1.2
						S46.04,61.32,45.38,61.32z"/>
				</g>
				<g>
					<path class="st5" d="M53.11,61.32h-0.58c-0.66,0-1.2-0.54-1.2-1.2s0.54-1.2,1.2-1.2h0.58c0.66,0,1.2,0.54,1.2,1.2
						S53.77,61.32,53.11,61.32z"/>
				</g>
				<g>
					<path class="st5" d="M18.99,61.32h-7.1c-0.66,0-1.2-0.54-1.2-1.2s0.54-1.2,1.2-1.2h7.1c0.66,0,1.2,0.54,1.2,1.2
						S19.65,61.32,18.99,61.32z"/>
				</g>
				<g>
					<path class="st6" d="M31.05,61.32H18.53c-0.66,0-1.2-0.54-1.2-1.2s0.54-1.2,1.2-1.2h12.52c0.66,0,1.2,0.54,1.2,1.2
						S31.71,61.32,31.05,61.32z"/>
				</g>
				<g>
					<path class="st6" d="M35.47,55.21H11.89c-0.66,0-1.2-0.54-1.2-1.2s0.54-1.2,1.2-1.2h23.58c0.66,0,1.2,0.54,1.2,1.2
						S36.13,55.21,35.47,55.21z"/>
				</g>
				<g>
					<path class="st5" d="M53.11,55.21H34.75c-0.66,0-1.2-0.54-1.2-1.2s0.54-1.2,1.2-1.2h18.36c0.66,0,1.2,0.54,1.2,1.2
						S53.77,55.21,53.11,55.21z"/>
				</g>
				<g>
					<path class="st5" d="M12.32,55.21h-0.43c-0.66,0-1.2-0.54-1.2-1.2s0.54-1.2,1.2-1.2h0.43c0.66,0,1.2,0.54,1.2,1.2
						S12.98,55.21,12.32,55.21z"/>
				</g>
			</g>
		</g>
	</g>
</g>
</svg>
