<?xml version="1.0" encoding="utf-8"?>
<!-- Generator: Adobe Illustrator 24.0.2, SVG Export Plug-In . SVG Version: 6.00 Build 0)  -->
<svg version="1.1" xmlns="http://www.w3.org/2000/svg" xmlns:xlink="http://www.w3.org/1999/xlink" x="0px" y="0px"
	 viewBox="0 0 64 64" style="enable-background:new 0 0 64 64;" xml:space="preserve">
<style type="text/css">
	.st0{display:none;}
	.st1{display:inline;fill:#9AA5AF;}
	.st2{fill:#606060;}
	.st3{fill:none;}
	.st4{fill:none;stroke:#FFFFFF;stroke-width:1.5;stroke-linecap:round;stroke-linejoin:round;}
</style>
<g id="BASE" class="st0">
</g>
<g id="Capa_1">
	<g>
		<rect class="st3" width="64" height="64"/>
		<g id="Grupo_13862" transform="translate(180.771 13)">
			<circle id="Elipse_2314" class="st4" cx="-149.83" cy="33.2" r="4.07"/>
			<path id="Trazado_11965" class="st4" d="M-145.76,5.12V0.89c0-2.25-1.82-4.07-4.07-4.07c0,0,0,0,0,0l0,0
				c-2.25,0-4.07,1.82-4.07,4.07c0,0,0,0,0,0v25.46c-2.83,1.67-4.34,4.91-3.8,8.15c0.59,3.5,3.42,6.2,6.95,6.61
				c4.37,0.5,8.33-2.64,8.83-7.01c0.03-0.3,0.05-0.61,0.05-0.91c0-2.81-1.48-5.41-3.9-6.84v-8.63"/>
			<line id="Línea_2494" class="st4" x1="-149.83" y1="29.13" x2="-149.83" y2="3.39"/>
			<line id="Línea_2495" class="st4" x1="-153.9" y1="5.61" x2="-152.26" y2="5.61"/>
			<line id="Línea_2496" class="st4" x1="-153.9" y1="9.76" x2="-152.26" y2="9.76"/>
			<line id="Línea_2497" class="st4" x1="-153.9" y1="13.92" x2="-152.26" y2="13.92"/>
			<line id="Línea_2498" class="st4" x1="-153.9" y1="18.07" x2="-152.26" y2="18.07"/>
			<path id="Trazado_11700_1_" class="st4" d="M-140.08,10.39c0.87,1.9,0.03,4.14-1.87,5.01c-1.9,0.87-4.14,0.03-5.01-1.87
				c0,0,0,0,0,0c-0.87-1.9-0.03-4.14,1.87-5.01l0,0c1.89-0.87,4.13-0.04,5,1.85L-140.08,10.39z"/>
		</g>
	</g>
</g>
</svg>
