<?xml version="1.0" encoding="utf-8"?>
<!-- Generator: Adobe Illustrator 24.0.2, SVG Export Plug-In . SVG Version: 6.00 Build 0)  -->
<svg version="1.1" xmlns="http://www.w3.org/2000/svg" xmlns:xlink="http://www.w3.org/1999/xlink" x="0px" y="0px"
	 viewBox="0 0 64 64" style="enable-background:new 0 0 64 64;" xml:space="preserve">
<style type="text/css">
	.st0{display:none;}
	.st1{display:inline;fill:#9AA5AF;}
	.st2{fill:#606060;}
	.st3{fill:none;}
	.st4{fill:none;stroke:#FFFFFF;stroke-width:1.5;stroke-linecap:round;stroke-linejoin:round;}
</style>
<g id="BASE" class="st0">
</g>
<g id="Capa_1">
	<rect class="st3" width="64" height="64"/>
	<g id="Grupo_11726">
		<g id="Grupo_11723">
			<line id="Línea_2111" class="st4" x1="54.6" y1="50.71" x2="10.41" y2="50.71"/>
			<line id="Línea_2112" class="st4" x1="15.27" y1="50.58" x2="17.33" y2="45.93"/>
			<path id="Trazado_10653" class="st4" d="M49.87,50.47L39.71,24.91l-3.31,2.63l-5.63-13.25l-8.01,18.84"/>
		</g>
		<line id="Línea_2113" class="st4" x1="35.65" y1="36.75" x2="46.95" y2="36.75"/>
		<line id="Línea_2114" class="st4" x1="42.57" y1="41.4" x2="48.68" y2="41.4"/>
		<path id="Trazado_11700" class="st4" d="M23.53,37.92c0.87,1.9,0.03,4.14-1.87,5.01c-1.9,0.87-4.14,0.03-5.01-1.87c0,0,0,0,0,0
			c-0.87-1.9-0.03-4.14,1.87-5.01c0,0,0,0,0,0l0,0c1.89-0.87,4.13-0.04,5,1.85L23.53,37.92z"/>
	</g>
</g>
</svg>
