<?xml version="1.0" encoding="utf-8"?>
<!-- Generator: Adobe Illustrator 24.0.2, SVG Export Plug-In . SVG Version: 6.00 Build 0)  -->
<svg version="1.1" id="Capa_1" xmlns="http://www.w3.org/2000/svg" xmlns:xlink="http://www.w3.org/1999/xlink" x="0px" y="0px"
	 viewBox="0 0 47 47" style="enable-background:new 0 0 47 47;" xml:space="preserve">
<style type="text/css">
	.st0{fill:none;}
	.st1{fill:#19A500;}
	.st2{fill:#95A6B1;}
	.st3{fill:#FFFFFF;}
	.st4{fill:#4DA12E;}
	.st5{fill:#96D200;}
</style>
<g>
	<rect class="st0" width="47" height="47"/>
</g>
<g>
	<path class="st3" d="M25.25,27.16h-7.71c-2.19,0-3.98-1.79-3.98-3.98c0-2.21,1.8-4.02,4.04-3.98c0.62-1.96,2.59-3.24,4.69-2.95
		c1.68,0.24,3.03,1.41,3.51,2.99c0.46,0.07,0.9,0.21,1.33,0.44c0.37,0.19,0.5,0.65,0.31,1.01c-0.2,0.37-0.65,0.5-1.01,0.31
		c-0.36-0.19-0.73-0.29-1.12-0.3c-0.04,0.01-0.08,0.01-0.11,0.01c-0.37,0-0.68-0.27-0.74-0.64c-0.19-1.23-1.14-2.17-2.37-2.34
		c-1.53-0.21-2.95,0.86-3.16,2.39c-0.03,0.21-0.15,0.4-0.32,0.52c-0.17,0.12-0.39,0.16-0.6,0.11c-0.14-0.03-0.29-0.05-0.47-0.05
		c-1.37,0-2.48,1.11-2.48,2.48s1.11,2.48,2.48,2.48h7.71c0.42,0,0.81-0.1,1.18-0.29c0.36-0.19,0.82-0.06,1.01,0.31
		c0.19,0.37,0.06,0.82-0.31,1.01C26.55,27,25.92,27.16,25.25,27.16z"/>
</g>
<g id="Elipse_2127_2_">
	<path class="st3" d="M9.62,18.83c-2.1,0-3.81-1.71-3.81-3.81s1.71-3.81,3.81-3.81s3.81,1.71,3.81,3.81S11.72,18.83,9.62,18.83z
		 M9.62,12.72c-1.27,0-2.31,1.03-2.31,2.31s1.03,2.31,2.31,2.31s2.31-1.03,2.31-2.31S10.89,12.72,9.62,12.72z"/>
</g>
<g id="Elipse_2127_1_">
	<path class="st3" d="M17.96,36.22c-1.39,0-2.52-1.13-2.52-2.52c0-1.13,1.46-3.27,1.91-3.9c0.28-0.4,0.94-0.4,1.22,0
		c0.45,0.63,1.91,2.77,1.91,3.9C20.48,35.09,19.35,36.22,17.96,36.22z M17.96,31.59c-0.55,0.89-1.02,1.79-1.02,2.11
		c0,0.56,0.46,1.02,1.02,1.02s1.02-0.46,1.02-1.02C18.98,33.39,18.51,32.48,17.96,31.59z"/>
</g>
<g>
	<path class="st3" d="M31.38,41.6H9.79c-0.41,0-0.75-0.34-0.75-0.75V20.39c0-0.41,0.34-0.75,0.75-0.75s0.75,0.34,0.75,0.75V40.1
		h20.84c2.8,0,5.08-2.28,5.08-5.08V6.9H10.54v2.93c0,0.41-0.34,0.75-0.75,0.75s-0.75-0.34-0.75-0.75V6.15
		c0-0.41,0.34-0.75,0.75-0.75h27.42c0.41,0,0.75,0.34,0.75,0.75v28.87C37.96,38.65,35.01,41.6,31.38,41.6z"/>
</g>
<g>
	<g>
		<path class="st3" d="M28.66,37.15c-0.03,0-0.05,0-0.08,0c-0.41-0.01-0.75-0.35-0.74-0.76c0.01-0.41,0.34-0.74,0.75-0.74
			c0.02,0,0.05,0,0.07,0c1.04,0,2.02-0.4,2.76-1.13c0.76-0.75,1.17-1.74,1.17-2.8c0-1.56-0.93-2.97-2.36-3.6
			c-0.27-0.12-0.45-0.39-0.45-0.69V12.41c0-0.62-0.51-1.13-1.13-1.13c-0.41,0-0.75-0.34-0.75-0.75s0.34-0.75,0.75-0.75
			c1.45,0,2.63,1.18,2.63,2.63v14.55c1.72,0.95,2.81,2.77,2.81,4.75c0,1.47-0.58,2.84-1.62,3.87C31.45,36.6,30.1,37.15,28.66,37.15z
			"/>
	</g>
	<g>
		<path class="st3" d="M28.66,32.51c-0.1,0-0.19-0.02-0.28-0.06c-0.09-0.04-0.18-0.09-0.25-0.16c-0.07-0.07-0.12-0.16-0.16-0.25
			c-0.04-0.09-0.06-0.19-0.06-0.28c0-0.2,0.08-0.39,0.22-0.53c0.07-0.07,0.16-0.13,0.25-0.17c0.18-0.07,0.39-0.07,0.57,0
			c0.09,0.04,0.17,0.1,0.24,0.17c0.14,0.14,0.22,0.33,0.22,0.53c0,0.09-0.02,0.19-0.05,0.28c-0.04,0.09-0.1,0.18-0.17,0.25
			c-0.07,0.07-0.15,0.12-0.24,0.16C28.86,32.49,28.76,32.51,28.66,32.51z"/>
	</g>
	<g>
		<path class="st3" d="M28.59,37.15c0,0-0.01,0-0.01,0c-1.44-0.02-2.86-0.67-3.88-1.79c-1.03-1.12-1.56-2.59-1.46-4.03
			c0.13-1.85,1.18-3.48,2.79-4.37V12.41c0-1.45,1.18-2.63,2.63-2.63c0.41,0,0.75,0.34,0.75,0.75s-0.34,0.75-0.75,0.75
			c-0.62,0-1.13,0.51-1.13,1.13v15.01c0,0.3-0.18,0.57-0.45,0.69c-1.35,0.59-2.25,1.87-2.35,3.33c-0.07,1.03,0.32,2.09,1.07,2.91
			c0.75,0.81,1.77,1.29,2.8,1.3c0.41,0.01,0.75,0.35,0.74,0.76C29.34,36.82,29,37.15,28.59,37.15z"/>
	</g>
	<g>
		<path class="st3" d="M28.66,33.76c-0.52,0-1.04-0.22-1.41-0.59c-0.37-0.37-0.59-0.89-0.59-1.41c0-0.53,0.22-1.05,0.59-1.42
			c0.74-0.74,2.08-0.74,2.83,0c0.37,0.37,0.58,0.89,0.58,1.42c0,0.52-0.21,1.04-0.58,1.41C29.71,33.54,29.19,33.76,28.66,33.76z"/>
	</g>
</g>
</svg>
