<?xml version="1.0" encoding="utf-8"?>
<!-- Generator: Adobe Illustrator 24.0.2, SVG Export Plug-In . SVG Version: 6.00 Build 0)  -->
<svg version="1.1" id="Capa_1" xmlns="http://www.w3.org/2000/svg" xmlns:xlink="http://www.w3.org/1999/xlink" x="0px" y="0px"
	 viewBox="0 0 84 84" style="enable-background:new 0 0 84 84;" xml:space="preserve">
<style type="text/css">
	.st0{fill:none;}
	.st1{fill:#19A500;}
	.st2{fill:#95A6B1;}
	.st3{fill:#FFFFFF;}
	.st4{fill:#4DA12E;}
	.st5{fill:#96D200;}
</style>
<g>
	<g>
		<path class="st1" d="M30.22,26.52c-2.06,0-4.02-1.18-4.93-3.16c-1.24-2.72-0.04-5.94,2.67-7.18c2.72-1.24,5.94-0.04,7.18,2.67
			c0,0,0,0,0,0c0.57,1.25,0.65,2.65,0.22,3.95c-0.47,1.43-1.53,2.6-2.89,3.23C31.73,26.37,30.97,26.52,30.22,26.52z M30.2,17.69
			c-0.47,0-0.96,0.1-1.42,0.31c-1.71,0.78-2.47,2.81-1.69,4.53c0.78,1.71,2.81,2.47,4.53,1.69c0.87-0.4,1.52-1.12,1.82-2.03
			c0.27-0.82,0.22-1.71-0.14-2.49l0,0C32.74,18.43,31.5,17.69,30.2,17.69z"/>
	</g>
	<g>
		<g>
			<path class="st2" d="M53.61,33.49c-0.5,0-0.93-0.37-0.99-0.87c-0.07-0.55,0.32-1.05,0.86-1.12c1.97-0.25,3.77-1.14,5.2-2.57
				c3.56-3.56,3.56-9.35,0-12.91c-3.56-3.56-9.35-3.56-12.91,0c-1.44,1.44-2.33,3.25-2.59,5.22c-0.07,0.55-0.58,0.94-1.12,0.86
				c-0.55-0.07-0.94-0.57-0.86-1.12c0.31-2.42,1.4-4.63,3.16-6.38c4.34-4.34,11.4-4.34,15.73,0s4.34,11.4,0,15.73
				c-1.72,1.72-3.98,2.84-6.36,3.14C53.7,33.49,53.66,33.49,53.61,33.49z"/>
		</g>
		<g id="Grupo_13000-2">
			<g id="Línea_2225">
				<path class="st2" d="M51.75,10.1c-0.55,0-1-0.45-1-1V3.85c0-0.55,0.45-1,1-1s1,0.45,1,1V9.1C52.75,9.65,52.3,10.1,51.75,10.1z"
					/>
			</g>
		</g>
		<g id="Grupo_13001">
			<g id="Línea_2227">
				<path class="st2" d="M71.03,23.31h-5.25c-0.55,0-1-0.45-1-1s0.45-1,1-1h5.25c0.55,0,1,0.45,1,1S71.58,23.31,71.03,23.31z"/>
			</g>
		</g>
		<g id="Grupo_13002">
			<g id="Línea_2229">
				<path class="st2" d="M61.33,13.81c-0.26,0-0.51-0.1-0.71-0.29c-0.39-0.39-0.39-1.02,0-1.41l3.71-3.71
					c0.39-0.39,1.02-0.39,1.41,0c0.39,0.39,0.39,1.02,0,1.41l-3.71,3.71C61.84,13.71,61.58,13.81,61.33,13.81z"/>
			</g>
		</g>
		<g id="Línea_2230">
			<path class="st2" d="M65.04,36.6c-0.26,0-0.51-0.1-0.71-0.29l-3.71-3.71c-0.39-0.39-0.39-1.02,0-1.41s1.02-0.39,1.41,0l3.71,3.71
				c0.39,0.39,0.39,1.02,0,1.41C65.55,36.51,65.29,36.6,65.04,36.6z"/>
		</g>
		<g id="Línea_2231">
			<path class="st2" d="M42.77,14.33c-0.26,0-0.51-0.1-0.71-0.29l-3.71-3.71c-0.39-0.39-0.39-1.02,0-1.41s1.02-0.39,1.41,0
				l3.71,3.71c0.39,0.39,0.39,1.02,0,1.41C43.29,14.24,43.03,14.33,42.77,14.33z"/>
		</g>
		<g>
			<g>
				<path class="st2" d="M48.82,44.64H22.41c-4.19,0-7.6-3.41-7.6-7.6c0-4.19,3.41-7.6,7.6-7.6c0.46,0,0.92,0.04,1.38,0.12
					c0.11-0.96,0.33-1.9,0.66-2.8c0.19-0.52,0.76-0.79,1.28-0.6c0.52,0.19,0.79,0.76,0.6,1.28c-0.4,1.09-0.61,2.25-0.63,3.42
					c-0.01,0.32-0.17,0.63-0.44,0.81s-0.61,0.23-0.91,0.11c-0.62-0.23-1.28-0.35-1.94-0.35c-3.09,0-5.6,2.51-5.6,5.6
					c0,3.09,2.51,5.6,5.6,5.6h26.42c3.09,0,5.6-2.51,5.6-5.6c0-3.09-2.51-5.6-5.6-5.6c-0.29,0-0.57,0.02-0.86,0.06
					c-0.28,0.04-0.57-0.04-0.78-0.22c-0.22-0.18-0.35-0.44-0.36-0.73c-0.22-4.93-3.91-9.11-8.77-9.93
					c-0.54-0.09-0.91-0.61-0.82-1.15s0.61-0.91,1.15-0.82c5.44,0.93,9.65,5.38,10.34,10.79c4.24-0.08,7.7,3.38,7.7,7.6
					C56.43,41.23,53.02,44.64,48.82,44.64z"/>
			</g>
			<g>
				<path class="st2" d="M23.6,58.49c-0.15,0-0.3-0.03-0.44-0.1c-0.49-0.25-0.7-0.84-0.45-1.34l3.59-7.25
					c0.25-0.49,0.85-0.7,1.34-0.45c0.49,0.25,0.7,0.84,0.45,1.34l-3.59,7.25C24.32,58.28,23.96,58.49,23.6,58.49z"/>
			</g>
			<g>
				<path class="st2" d="M34.62,55.64c-0.15,0-0.3-0.03-0.44-0.1c-0.49-0.25-0.7-0.84-0.45-1.34l3.59-7.25
					c0.25-0.49,0.85-0.7,1.34-0.45c0.49,0.25,0.7,0.84,0.45,1.34l-3.59,7.25C35.35,55.44,34.99,55.64,34.62,55.64z"/>
			</g>
			<g>
				<path class="st2" d="M41.98,62.11c-0.15,0-0.3-0.03-0.44-0.1c-0.49-0.25-0.7-0.84-0.45-1.34l3.59-7.25
					c0.25-0.49,0.85-0.7,1.34-0.45c0.49,0.25,0.7,0.84,0.45,1.34l-3.59,7.25C42.7,61.91,42.35,62.11,41.98,62.11z"/>
			</g>
		</g>
	</g>
</g>
<g>
	<g>
		<rect class="st0" width="84" height="84"/>
	</g>
</g>
<g>
	<g>
		<g>
			<g>
				<rect y="63.07" class="st0" width="84" height="20.93"/>
			</g>
			<g>
				<g>
					<path class="st4" d="M58.1,79.4h-8.96c-0.83,0-1.5-0.67-1.5-1.5s0.67-1.5,1.5-1.5h8.96c0.83,0,1.5,0.67,1.5,1.5
						S58.93,79.4,58.1,79.4z"/>
				</g>
				<g>
					<path class="st4" d="M67.76,79.4h-0.73c-0.83,0-1.5-0.67-1.5-1.5s0.67-1.5,1.5-1.5h0.73c0.83,0,1.5,0.67,1.5,1.5
						S68.59,79.4,67.76,79.4z"/>
				</g>
				<g>
					<path class="st4" d="M25.11,79.4h-8.88c-0.83,0-1.5-0.67-1.5-1.5s0.67-1.5,1.5-1.5h8.88c0.83,0,1.5,0.67,1.5,1.5
						S25.94,79.4,25.11,79.4z"/>
				</g>
				<g>
					<path class="st5" d="M40.18,79.4H24.54c-0.83,0-1.5-0.67-1.5-1.5s0.67-1.5,1.5-1.5h15.65c0.83,0,1.5,0.67,1.5,1.5
						S41.01,79.4,40.18,79.4z"/>
				</g>
				<g>
					<path class="st5" d="M45.72,71.76H16.24c-0.83,0-1.5-0.67-1.5-1.5s0.67-1.5,1.5-1.5h29.48c0.83,0,1.5,0.67,1.5,1.5
						S46.54,71.76,45.72,71.76z"/>
				</g>
				<g>
					<path class="st4" d="M67.76,71.76H44.81c-0.83,0-1.5-0.67-1.5-1.5s0.67-1.5,1.5-1.5h22.95c0.83,0,1.5,0.67,1.5,1.5
						S68.59,71.76,67.76,71.76z"/>
				</g>
				<g>
					<path class="st4" d="M16.78,71.76h-0.54c-0.83,0-1.5-0.67-1.5-1.5s0.67-1.5,1.5-1.5h0.54c0.83,0,1.5,0.67,1.5,1.5
						S17.6,71.76,16.78,71.76z"/>
				</g>
			</g>
		</g>
	</g>
</g>
</svg>
