<?xml version="1.0" encoding="utf-8"?>
<!-- Generator: Adobe Illustrator 24.0.2, SVG Export Plug-In . SVG Version: 6.00 Build 0)  -->
<svg version="1.1" xmlns="http://www.w3.org/2000/svg" xmlns:xlink="http://www.w3.org/1999/xlink" x="0px" y="0px"
	 viewBox="0 0 60 60" style="enable-background:new 0 0 60 60;" xml:space="preserve">
<style type="text/css">
	.st0{fill:#19A500;}
	.st1{fill:none;}
	.st2{fill:none;stroke:#EFEF00;stroke-width:1.2;stroke-miterlimit:10;}
	.st3{fill:none;stroke:#FFFFFF;stroke-width:1.2;stroke-linecap:round;stroke-linejoin:round;stroke-miterlimit:10;}
	.st4{fill:none;stroke:#FFFFFF;stroke-width:1.0518;stroke-linecap:round;stroke-linejoin:round;stroke-miterlimit:10;}
	.st5{fill:none;stroke:#FFFFFF;stroke-width:1.1048;stroke-linecap:round;stroke-linejoin:round;stroke-miterlimit:10;}
</style>
<g id="Capa_2">
	<g>
		<g>
			<g>
				<g>
					<path id="Rectángulo_3799_64_" class="st0" d="M30,0L30,0c16.57,0,30,13.43,30,30v0c0,16.57-13.43,30-30,30h0
						C13.43,60,0,46.57,0,30v0C0,13.43,13.43,0,30,0z"/>
				</g>
			</g>
			<g>
				<g>
					<rect id="Rectángulo_3799_2_" x="0" class="st1" width="60" height="60"/>
				</g>
			</g>
			<g>
				<g>
					<g>
						<circle class="st2" cx="46.07" cy="35.04" r="3.86"/>
					</g>
				</g>
				<g>
					<g>
						<path class="st3" d="M37.83,23.49c-0.82,1.65-1.8,3.23-2.75,4.81c-1.7,2.81-3.4,5.52-5.37,8.23c-1.84-2.8-3.61-5.67-5.33-8.52
							c-1.54-2.54-2.92-5.14-3.68-8.02c-0.76-2.88-0.57-6.42,1.26-8.94c1.89-2.62,5.36-3.86,8.64-3.86c3.39,0,6.76,2,8.23,5.06
							c1.24,2.59,1.07,5.67,0.17,8.4C38.69,21.63,38.28,22.57,37.83,23.49z"/>
						<g>
							<circle class="st3" cx="30.05" cy="16.25" r="4.09"/>
						</g>
					</g>
					<polyline class="st3" points="31.62,44.8 50.35,44.8 48.55,40.48 					"/>
					<polyline class="st3" points="13.47,35.61 9.65,44.8 27.97,44.8 					"/>
					<polyline class="st3" points="23.45,26.43 17.29,26.43 14.72,32.61 					"/>
					<polyline class="st3" points="44.1,29.77 42.71,26.43 36.54,26.43 					"/>
				</g>
			</g>
			<polyline class="st4" points="24.61,41.74 28.09,44.76 24.61,48.05 			"/>
		</g>
		<polyline class="st4" points="9.65,37.15 13.75,35.04 15.51,39.49 		"/>
	</g>
</g>
<g id="Capa_1">
</g>
</svg>
