<?xml version="1.0" encoding="utf-8"?>
<!-- Generator: Adobe Illustrator 24.0.2, SVG Export Plug-In . SVG Version: 6.00 Build 0)  -->
<svg version="1.1" xmlns="http://www.w3.org/2000/svg" xmlns:xlink="http://www.w3.org/1999/xlink" x="0px" y="0px"
	 viewBox="0 0 60 60" style="enable-background:new 0 0 60 60;" xml:space="preserve">
<style type="text/css">
	.st0{fill:#19A500;}
	.st1{fill:none;}
	.st2{fill:none;stroke:#EFEF00;stroke-width:1.2;stroke-miterlimit:10;}
	.st3{fill:none;stroke:#FFFFFF;stroke-width:1.2;stroke-linecap:round;stroke-linejoin:round;stroke-miterlimit:10;}
	.st4{fill:none;stroke:#FFFFFF;stroke-width:1.0518;stroke-linecap:round;stroke-linejoin:round;stroke-miterlimit:10;}
	.st5{fill:none;stroke:#FFFFFF;stroke-width:1.1048;stroke-linecap:round;stroke-linejoin:round;stroke-miterlimit:10;}
</style>
<g id="Capa_2">
</g>
<g id="Capa_1">
	<g>
		<g>
			<g>
				<path id="Rectángulo_3799_58_" class="st0" d="M30,0L30,0c16.57,0,30,13.43,30,30v0c0,16.57-13.43,30-30,30h0
					C13.43,60,0,46.57,0,30v0C0,13.43,13.43,0,30,0z"/>
			</g>
		</g>
		<g>
			<g>
				<g>
					<rect id="Rectángulo_3799_4_" y="0" class="st1" width="60" height="60"/>
				</g>
			</g>
		</g>
		<g>
			<g>
				<path class="st5" d="M35.58,17.7l-2.26,3.63c0,0-2.59,3.55-1.28,5.89c1.23,2.19,3.54,2.15,3.54,2.15s2.57,0.09,3.66-2.03
					c1.16-2.27-0.57-5-1.42-6.3C36.96,19.74,35.58,17.7,35.58,17.7z"/>
				<g>
					<path class="st5" d="M26.53,36.51V13.12c0-2.89-2.35-5.24-5.24-5.24h0c-2.89,0-5.24,2.35-5.24,5.24v23.39
						c-1.98,1.4-3.45,4.09-3.45,6.92c0,4.8,3.89,8.69,8.69,8.69c4.8,0,8.69-3.89,8.69-8.69C29.98,40.6,28.62,38.1,26.53,36.51z"/>
					<g>
						<line class="st5" x1="16.64" y1="17.82" x2="20.79" y2="17.82"/>
						<line class="st5" x1="16.57" y1="27.21" x2="20.79" y2="27.21"/>
						<line class="st5" x1="16.71" y1="22.69" x2="23.17" y2="22.69"/>
						<line class="st5" x1="16.71" y1="31.51" x2="23.17" y2="31.51"/>
					</g>
					<circle class="st5" cx="21.36" cy="43.57" r="5.57"/>
				</g>
				<path class="st5" d="M42.39,46.93c-3.09,2.14-6.85,3.4-10.9,3.4c-1.54,0-3.03-0.18-4.46-0.52"/>
				<path class="st5" d="M26.67,12.67c1.62-0.44,3.06-0.65,4.82-0.65c10.58,0,19.15,8.57,19.15,19.15c0,1.51-0.17,2.98-0.5,4.39"/>
				<g>
					<g>
						<line class="st5" x1="11.59" y1="11.37" x2="11.59" y2="16.43"/>
						<line class="st5" x1="14.12" y1="13.9" x2="9.06" y2="13.9"/>
					</g>
					<g>
						<line class="st5" x1="35.49" y1="36.57" x2="30.43" y2="36.57"/>
					</g>
				</g>
			</g>
			<g>
				<g>
					<circle class="st2" cx="46.35" cy="41.51" r="3.86"/>
				</g>
			</g>
		</g>
	</g>
</g>
</svg>
