<?xml version="1.0" encoding="utf-8"?>
<!-- Generator: Adobe Illustrator 24.0.2, SVG Export Plug-In . SVG Version: 6.00 Build 0)  -->
<svg version="1.1" id="Capa_1" xmlns="http://www.w3.org/2000/svg" xmlns:xlink="http://www.w3.org/1999/xlink" x="0px" y="0px"
	 viewBox="0 0 130 130" style="enable-background:new 0 0 130 130;" xml:space="preserve">
<style type="text/css">
	.st0{fill:#C9D2D7;}
	.st1{fill:#2B5CDA;}
	.st2{fill:#FFFFFF;}
</style>
<g id="Grupo_15124" transform="translate(-7014.002 -3142.05)">
	<g id="Grupo_15123" transform="translate(6860.888 3003.195)">
		<g id="Grupo_17130" transform="translate(-264.477 278.843)">
			<g id="Grupo_17124" transform="translate(417.591 -139.988)">
				<g id="Grupo_17123" transform="translate(0 0)">
					<path id="Trazado_18130" class="st0" d="M65,65l27.91-54.79c30.26,15.42,42.29,52.44,26.87,82.7c0,0,0,0,0,0
						c-15.42,30.26-52.44,42.29-82.7,26.87c0,0,0,0,0,0C6.83,104.37-5.2,67.34,10.21,37.08C20.56,16.34,41.82,3.31,65,3.51L65,65z"
						/>
				</g>
			</g>
			<g id="Grupo_17126" transform="translate(479.091 -139.988)">
				<g id="Grupo_17125" transform="translate(0 0)">
					<path id="Trazado_18131" class="st1" d="M3.5,65V3.51c9.72-0.17,19.33,2.14,27.91,6.7L3.5,65z"/>
				</g>
			</g>
		</g>
		<circle id="Elipse_2442" class="st2" cx="217.62" cy="203.82" r="36"/>
	</g>
</g>
</svg>
