<svg xmlns="http://www.w3.org/2000/svg" width="123" height="122.884" viewBox="0 0 123 122.884">
  <g id="Grupo_16722" data-name="Grupo 16722" transform="translate(-7605 -3141)">
    <g id="Grupo_14824" data-name="Grupo 14824" transform="translate(7524.41 2598.543)">
      <g id="Grupo_14817" data-name="Grupo 14817">
        <g id="Grupo_14816" data-name="Grupo 14816">
          <path id="Trazado_12368" data-name="Trazado 12368" d="M142.157,603.89l-36.11-49.7a58.857,58.857,0,0,1,36.11-11.733Z" fill="#2b5cda"/>
        </g>
      </g>
      <g id="Grupo_14819" data-name="Grupo 14819">
        <g id="Grupo_14818" data-name="Grupo 14818">
          <path id="Trazado_12369" data-name="Trazado 12369" d="M142.157,603.89,83.73,622.874c-8.388-25.814.358-52.73,22.317-68.684Z" fill="#ffd800"/>
        </g>
      </g>
      <g id="Grupo_14821" data-name="Grupo 14821">
        <g id="Grupo_14820" data-name="Grupo 14820">
          <path id="Trazado_12370" data-name="Trazado 12370" d="M142.157,603.89l58.427,18.984a61.433,61.433,0,0,1-77.411,39.443c-19.361-6.291-33.152-20.082-39.443-39.443Z" fill="#c9d2d7"/>
        </g>
      </g>
      <g id="Grupo_14823" data-name="Grupo 14823">
        <g id="Grupo_14822" data-name="Grupo 14822">
          <path id="Trazado_12371" data-name="Trazado 12371" d="M142.157,603.89V542.457A61.433,61.433,0,0,1,203.59,603.89a58.4,58.4,0,0,1-3.006,18.984Z" fill="#00af00"/>
        </g>
      </g>
    </g>
    <circle id="Elipse_2392" data-name="Elipse 2392" cx="36" cy="36" r="36" transform="translate(7631 3166)" fill="#fff"/>
  </g>
</svg>
