<?xml version="1.0" encoding="utf-8"?>
<!-- Generator: Adobe Illustrator 24.0.2, SVG Export Plug-In . SVG Version: 6.00 Build 0)  -->
<svg version="1.1" id="Layer_1" xmlns="http://www.w3.org/2000/svg" xmlns:xlink="http://www.w3.org/1999/xlink" x="0px" y="0px"
	 viewBox="0 0 125 125" style="enable-background:new 0 0 125 125;" xml:space="preserve">
<style type="text/css">
	.st0{fill:#2B5CDA;}
	.st1{fill:#00AF00;}
</style>
<g>
	<path class="st0" d="M1347.8,1451.4c0-19.9,16.1-36,36-36v-25.5c-34,0-61.5,27.5-61.5,61.5s27.5,61.5,61.5,61.5v-25.5
		C1363.9,1487.4,1347.8,1471.3,1347.8,1451.4z"/>
	<path class="st1" d="M1383.8,1389.9v25.5c19.9,0,36,16.1,36,36s-16.1,36-36,36v25.5c34,0,61.5-27.5,61.5-61.5
		S1417.8,1389.9,1383.8,1389.9z"/>
</g>
<g>
	<path class="st0" d="M26.5,62.5c0-19.9,16.1-36,36-36V1C28.6,1,1,28.5,1,62.5S28.6,124,62.5,124V98.5
		C42.6,98.5,26.5,82.4,26.5,62.5z"/>
	<path class="st1" d="M62.5,1v25.5c19.9,0,36,16.1,36,36s-16.1,36-36,36V124c34,0,61.5-27.5,61.5-61.5S96.5,1,62.5,1z"/>
</g>
</svg>
