<?xml version="1.0" encoding="utf-8"?>
<!-- Generator: Adobe Illustrator 24.0.2, SVG Export Plug-In . SVG Version: 6.00 Build 0)  -->
<svg version="1.1" id="Layer_1" xmlns="http://www.w3.org/2000/svg" xmlns:xlink="http://www.w3.org/1999/xlink" x="0px" y="0px"
	 viewBox="0 0 125 125" style="enable-background:new 0 0 125 125;" xml:space="preserve">
<style type="text/css">
	.st0{fill:#C9D2D7;}
	.st1{fill:#2B5CDA;}
</style>
<g>
	<path class="st0" d="M77.4,2.8l-6.2,24.7c15.7,3.9,27.3,18.1,27.3,34.9c0,19.9-16.1,36-36,36s-36-16.1-36-36s16.1-36,36-36V1
		C34,1,9.8,19.9,2.9,47.6c-8.2,33,11.8,66.3,44.8,74.5c32.9,8.2,66.3-11.8,74.5-44.8C130.4,44.4,110.4,11,77.4,2.8z"/>
	<path class="st1" d="M77.4,2.8C72.1,1.5,68,1,62.5,1v25.5c3,0,5.9,0.4,8.7,1.1L77.4,2.8z"/>
</g>
</svg>
