<?xml version="1.0" encoding="utf-8"?>
<!-- Generator: Adobe Illustrator 24.0.2, SVG Export Plug-In . SVG Version: 6.00 Build 0)  -->
<svg version="1.1" id="Capa_1" xmlns="http://www.w3.org/2000/svg" xmlns:xlink="http://www.w3.org/1999/xlink" x="0px" y="0px"
	 viewBox="0 0 47 47" style="enable-background:new 0 0 47 47;" xml:space="preserve">
<style type="text/css">
	.st0{fill:none;}
	.st1{fill:#FFFFFF;}
</style>
<g>
	<rect class="st0" width="47" height="47"/>
</g>
<g>
	<g id="Grupo_12849">
		<g id="Line_1218">
			<path class="st1" d="M40.35,40.23H8.45c-0.41,0-0.75-0.34-0.75-0.75s0.34-0.75,0.75-0.75h31.9c0.41,0,0.75,0.34,0.75,0.75
				S40.76,40.23,40.35,40.23z"/>
		</g>
		<g id="Line_1219">
			<path class="st1" d="M11.91,40.23c-0.41,0-0.75-0.34-0.75-0.75v-3.87c0-0.41,0.34-0.75,0.75-0.75s0.75,0.34,0.75,0.75v3.87
				C12.66,39.9,12.32,40.23,11.91,40.23z"/>
		</g>
		<g id="Line_1221">
			<path class="st1" d="M20.41,40.23c-0.41,0-0.75-0.34-0.75-0.75v-7.46c0-0.41,0.34-0.75,0.75-0.75s0.75,0.34,0.75,0.75v7.46
				C21.16,39.9,20.82,40.23,20.41,40.23z"/>
		</g>
		<g id="Line_1222">
			<path class="st1" d="M29.14,40.23c-0.41,0-0.75-0.34-0.75-0.75V27.54c0-0.41,0.34-0.75,0.75-0.75s0.75,0.34,0.75,0.75v11.94
				C29.89,39.9,29.56,40.23,29.14,40.23z"/>
		</g>
		<g id="Line_1223">
			<path class="st1" d="M37.88,40.23c-0.41,0-0.75-0.34-0.75-0.75V20.36c0-0.41,0.34-0.75,0.75-0.75s0.75,0.34,0.75,0.75v19.12
				C38.63,39.9,38.29,40.23,37.88,40.23z"/>
		</g>
	</g>
	<g id="Grupo_12850">
		<g id="Path_1098">
			<path class="st1" d="M30.3,17.88c-0.16,0-0.33-0.05-0.46-0.16l-1.75-1.37l-1.26,1.11c-0.31,0.27-0.78,0.24-1.06-0.07
				c-0.27-0.31-0.24-0.79,0.07-1.06l1.73-1.52c0.27-0.24,0.67-0.25,0.96-0.03l1.72,1.34l8.08-8.23c0.29-0.29,0.76-0.3,1.06-0.01
				c0.3,0.29,0.3,0.76,0.01,1.06l-8.55,8.71C30.69,17.8,30.5,17.88,30.3,17.88z"/>
		</g>
		<g id="Path_1099">
			<path class="st1" d="M38.86,13.13c-0.41,0-0.75-0.34-0.75-0.75V9.16h-3.21c-0.41,0-0.75-0.34-0.75-0.75s0.34-0.75,0.75-0.75h3.96
				c0.41,0,0.75,0.34,0.75,0.75v3.96C39.61,12.79,39.27,13.13,38.86,13.13z"/>
		</g>
	</g>
	<g id="Grupo_12856">
		<g id="Path_1227">
			<path class="st1" d="M19.32,15.41c-1.88,0-3.4-1.53-3.4-3.4c0-0.41,0.34-0.75,0.75-0.75s0.75,0.34,0.75,0.75
				c0,1.05,0.85,1.9,1.9,1.9s1.9-0.85,1.9-1.9c0-0.41,0.34-0.75,0.75-0.75s0.75,0.34,0.75,0.75C22.72,13.88,21.2,15.41,19.32,15.41z
				"/>
		</g>
		<g id="Path_1228">
			<path class="st1" d="M21.97,12.75c-0.41,0-0.75-0.34-0.75-0.75v-1.83c0-1.05-0.85-1.9-1.9-1.9s-1.9,0.85-1.9,1.9V12
				c0,0.41-0.34,0.75-0.75,0.75s-0.75-0.34-0.75-0.75v-1.83c0-1.88,1.53-3.4,3.4-3.4s3.4,1.53,3.4,3.4V12
				C22.72,12.42,22.39,12.75,21.97,12.75z"/>
		</g>
		<g id="Grupo_12855">
			<g id="Grupo_12852">
				<g id="Line_1370">
					<path class="st1" d="M26.17,26.53h-13.7c-0.41,0-0.75-0.34-0.75-0.75s0.34-0.75,0.75-0.75h13.7c0.41,0,0.75,0.34,0.75,0.75
						S26.58,26.53,26.17,26.53z"/>
				</g>
				<g id="Grupo_12851">
					<g id="Group_2600">
						<g id="Path_1226">
							<path class="st1" d="M26.17,26.53c-0.38,0-0.71-0.29-0.75-0.69l-0.26-3.04c-0.03-0.33-0.04-0.67-0.05-1.01
								c-0.04-1.08-0.07-2.1-0.69-2.86c-0.52-0.59-1.26-1.01-2.07-1.15c-0.93-0.14-1.91-0.2-2.86-0.19h-0.34
								c-0.41,0-0.75-0.34-0.75-0.75s0.34-0.75,0.75-0.75h0.33c1.03-0.02,2.08,0.06,3.11,0.21c1.16,0.2,2.21,0.79,2.98,1.67
								c0.95,1.18,1,2.56,1.04,3.78c0.01,0.32,0.02,0.63,0.05,0.94l0.26,3.04c0.04,0.41-0.27,0.78-0.68,0.81
								C26.21,26.53,26.19,26.53,26.17,26.53z"/>
						</g>
						<g id="Path_1226-2">
							<path class="st1" d="M12.47,26.53c-0.02,0-0.04,0-0.07,0c-0.41-0.04-0.72-0.4-0.68-0.81l0.26-3.04
								c0.04-0.41,0.39-0.72,0.81-0.68c0.41,0.04,0.72,0.4,0.68,0.81l-0.26,3.04C13.18,26.24,12.85,26.53,12.47,26.53z"/>
						</g>
					</g>
				</g>
			</g>
			<g id="Grupo_12854">
				<g id="Line_1370-2">
					<path class="st1" d="M26.17,26.53h-13.7c-0.41,0-0.75-0.34-0.75-0.75s0.34-0.75,0.75-0.75h13.7c0.41,0,0.75,0.34,0.75,0.75
						S26.58,26.53,26.17,26.53z"/>
				</g>
				<g id="Grupo_12853">
					<g id="Group_2600-2">
						<g id="Path_1226-3">
							<path class="st1" d="M12.47,26.53c-0.02,0-0.04,0-0.07,0c-0.41-0.04-0.72-0.4-0.68-0.81l0.26-3.04
								c0.04-0.41,0.39-0.72,0.81-0.68c0.41,0.04,0.72,0.4,0.68,0.81l-0.26,3.04C13.18,26.24,12.85,26.53,12.47,26.53z"/>
						</g>
						<g id="Path_1226-4">
							<path class="st1" d="M22.48,17.79c-0.04,0-0.07,0-0.11-0.01c-0.95-0.14-1.93-0.21-2.88-0.2h-0.34c-0.44,0-0.87,0.01-1.3,0.03
								c-0.42,0.02-0.77-0.29-0.79-0.7c-0.02-0.41,0.29-0.77,0.7-0.79c0.47-0.03,0.94-0.04,1.4-0.03h0.32
								c1.03-0.02,2.08,0.06,3.11,0.21c0.41,0.06,0.69,0.44,0.63,0.85C23.17,17.53,22.85,17.79,22.48,17.79z"/>
						</g>
						<g id="Path_1226-5">
							<path class="st1" d="M26.17,26.53c-0.38,0-0.71-0.29-0.75-0.69l-0.26-3.04c-0.04-0.41,0.27-0.78,0.68-0.81
								c0.43-0.04,0.78,0.27,0.81,0.68l0.26,3.04c0.04,0.41-0.27,0.78-0.68,0.81C26.21,26.53,26.19,26.53,26.17,26.53z"/>
						</g>
					</g>
				</g>
			</g>
		</g>
	</g>
	<g id="Elipse_2131">
		<path class="st1" d="M13.04,20.95c-1.93,0-3.49-1.57-3.49-3.49s1.57-3.49,3.49-3.49s3.49,1.57,3.49,3.49S14.97,20.95,13.04,20.95z
			 M13.04,15.46c-1.1,0-1.99,0.89-1.99,1.99s0.89,1.99,1.99,1.99s1.99-0.89,1.99-1.99S14.14,15.46,13.04,15.46z"/>
	</g>
	<g id="Línea_2179">
		<path class="st1" d="M8.35,29.81c-0.19,0-0.38-0.07-0.53-0.22c-0.29-0.29-0.29-0.77,0-1.06l1.79-1.8c0.29-0.29,0.77-0.29,1.06,0
			s0.29,0.77,0,1.06l-1.79,1.8C8.73,29.74,8.54,29.81,8.35,29.81z"/>
	</g>
</g>
</svg>
