<svg xmlns="http://www.w3.org/2000/svg" width="29" height="45.786" viewBox="0 0 29 45.786">
  <g id="Grupo_18290" data-name="Grupo 18290" transform="translate(6750.852 -1390.5)">
    <circle id="Elipse_2831" data-name="Elipse 2831" cx="6" cy="6" r="6" transform="translate(-6742.206 1424.286)" fill="#172211" opacity="0.7" style="mix-blend-mode: multiply;isolation: isolate"/>
    <path id="Trazado_12028" data-name="Trazado 12028" d="M14.5,0h0A14.5,14.5,0,0,1,29,14.5h0A14.5,14.5,0,0,1,14.5,29h0A14.5,14.5,0,0,1,0,14.5H0A14.5,14.5,0,0,1,14.5,0Z" transform="translate(-6750.852 1390.5)" fill="#959595"/>
    <path id="Trazado_12029" data-name="Trazado 12029" d="M0,0H7V7L-3.144,10.144Z" transform="translate(-6741.628 1417.5) rotate(-45)" fill="#959595"/>
    <g id="Group_13222" data-name="Group 13222" transform="translate(-5614.439 1093.955)">
      <path id="Path_11404" data-name="Path 11404" d="M-1123.66,305.685a2.973,2.973,0,0,1-2.974,2.972,2.972,2.972,0,0,1-2.972-2.974,2.973,2.973,0,0,1,2.973-2.972,2.966,2.966,0,0,1,2.973,2.957Z" fill="none" stroke="#fff" stroke-linecap="round" stroke-linejoin="round" stroke-width="1.4"/>
      <path id="Path_11405" data-name="Path 11405" d="M-1120.847,303.184a8.159,8.159,0,0,1,5.232,2.378" fill="none" stroke="#fff" stroke-linecap="round" stroke-linejoin="round" stroke-width="1.4"/>
      <path id="Path_11406" data-name="Path 11406" d="M-1127.187,317.134a8.152,8.152,0,0,1-2.4-5.656" fill="none" stroke="#fff" stroke-linecap="round" stroke-linejoin="round" stroke-width="1.4"/>
      <path id="Path_11407" data-name="Path 11407" d="M-1115.615,305.561a8.183,8.183,0,0,1,0,11.573,8.182,8.182,0,0,1-11.572,0" fill="none" stroke="#fff" stroke-linecap="round" stroke-linejoin="round" stroke-width="1.4"/>
    </g>
  </g>
</svg>
