<svg xmlns="http://www.w3.org/2000/svg" xmlns:xlink="http://www.w3.org/1999/xlink" width="403.381" height="292.3" viewBox="0 0 403.381 292.3">
  <defs>
    <filter id="Trazado_17927" x="67.518" y="92.723" width="192.662" height="128.023" filterUnits="userSpaceOnUse">
      <feOffset input="SourceAlpha"/>
      <feGaussianBlur stdDeviation="0.879" result="blur"/>
      <feFlood flood-opacity="0.302"/>
      <feComposite operator="in" in2="blur"/>
      <feComposite in="SourceGraphic"/>
    </filter>
  </defs>
  <g id="Grupo_18291" data-name="Grupo 18291" transform="translate(6523.396 -1203.909)">
    <line id="Línea_3752" data-name="Línea 3752" x1="25.326" y2="41.294" transform="translate(-6352.5 1453.706)" fill="#fff" stroke="#aab8c1" stroke-linecap="round" stroke-linejoin="round" stroke-width="1.758" stroke-dasharray="0 3.515"/>
    <g id="Grupo_18290" data-name="Grupo 18290">
      <g id="Grupo_18057" data-name="Grupo 18057" transform="translate(-7469.731 1180.094)">
        <path id="Trazado_17926" data-name="Trazado 17926" d="M1297.005,28.151v2.667a.835.835,0,0,1-.118.428l-7.9,13.172a.834.834,0,0,0-.118.427V50.68a.832.832,0,0,1-.307.645L1280.12,58.2a.836.836,0,0,0-.306.629l-.37,19.341a.831.831,0,0,1-.531.76l-4.688,1.811a.831.831,0,0,0-.527.693l-.291,2.912a.832.832,0,0,1-.456.66l-9.25,4.625a.834.834,0,0,0-.457.675l-.324,3.892a.829.829,0,0,1-.228.506l-5.611,5.855a.829.829,0,0,1-.3.2l-3.8,1.452a.832.832,0,0,0-.515.6l-1.8,8.159a.832.832,0,0,0,.005.378l2.126,8.624a.833.833,0,0,0,.791.632l5.2.1a.832.832,0,0,1,.812.76l.153,1.75a.832.832,0,0,1-.351.752l-3.725,2.618a.831.831,0,0,0-.214,1.141l2.407,3.611a.83.83,0,0,1,.079.773l-3.452,8.508-8.528,4.78,8.14,5.944,3.617-1.292,10.078,11.37-5.038,5.3,2.2,1.809-3.359,16.15-9.82-9.044-8.139,11.887-21.707,19.251-2.067-4.91-4.135-.9v-2.2l-4.651-4.392-8.4,3.746-4.135,16.8-4.78,4.522,8.4,7.494-8.915,10.724-6.59-1.809-1.033,13.05-2.972,5.814,3.23,5.814-1.938.646v3.618l-4.264,4.651h-8.915l-4.522-3.1,1.034-3.23-3.618-2.2-2.584,1.809-3.1-1.809v-5.556h-6.59l-2.712-9.561h-7.95l-3.033,1.679-4.135-5.943,3.489-3.23.129-6.848,3.55-2.972V218.007l-3.421-1.034V205.216l-7.752-2.584v-8.269l-13.7-8.915-2.842,1.033-3.359-4.91,1.809-4.78-1.809-1.421-7.236,6.2-4.005-2.971L1097,182.476l1.68,3.876-9.69,6.331v4.909l-10.6-6.976v-4.005l-3.23,1.033-.517,3.359-8.269-6.977-2.584,1.809-.646-8.269h-5.3l-1.422-8.011,4.91-4.134-1.163-2.326H1057.2v-3.488l1.745-1.745-4.845-9.883-8.528,9.043-8.785-2.712-6.719,4.263H1021.8v-9.82l7.881-6.847-3.488-5.169,2.454-2.067.517-10.465-3.229-2.326v-4.91h2.971l4.651-11.241h1.81v5.427h3.875l3.618,13.7h4.781l1.421,4.392h4.78l4.135-4.392,4.006,2.325-1.81,3.1,4.781,9.432v6.459h3.1l2.713-4.522,3.1,3.489,4.78-.13,1.809,6.2h4.652l4.005,9.949h2.326l.646-2.713h15.892l7.494-3.618,9.174,6.073,5.555-15.376-3.617-3.617,3.1-3.618.388-6.977,10.982-11.241,3.618,4.651,3.747-.129,1.292,5.168,3.617,1.551-3.875,13.049h-3.618l-3.36,7.882,7.365,4.134,4.006-2.842-.646-3.747,13.437-5.685,2.815-11.384a.832.832,0,0,1,.807-.632h2.159a.83.83,0,0,1,.669.339l2.733,3.715a.83.83,0,0,0,.669.339h5.794a.831.831,0,0,0,.623-.281l8.07-9.137a.831.831,0,0,0,.019-1.078l-2.571-3.133a.832.832,0,0,1,.643-1.359h10.27a.832.832,0,0,0,.454-.135l10.914-7.112a.832.832,0,0,0,.378-.7V111.23a.831.831,0,0,1,.714-.823l2.476-.354a.831.831,0,0,0,.624-.446l3.355-6.6a.829.829,0,0,0-.007-.766l-2.889-5.446a.831.831,0,0,1,.106-.934l2.758-3.183a.83.83,0,0,0,.2-.608l-.591-7.681a.833.833,0,0,0-.326-.6l-8.58-6.52a.832.832,0,0,1-.044-1.289l3.717-3.24a.831.831,0,0,1,1.1.006l8.928,7.976a.823.823,0,0,1,.265.477l.775,4.423a.832.832,0,0,0,.514.631l2.839,1.116a.83.83,0,0,0,.676-.031l8.033-4.017a.832.832,0,0,0,.458-.68l.842-11.083a.836.836,0,0,1,.275-.557l5.5-4.917a.833.833,0,0,0,.272-.714L1241.2,48.819a.928.928,0,0,1,0-.139l.482-8.959.091-1.7a.831.831,0,0,1,1.215-.692l9.531,4.987a.832.832,0,0,0,.844-.043l8-5.3a.83.83,0,0,0,.373-.693V31.715a.831.831,0,0,1,.322-.658l2.343-1.813a.831.831,0,0,1,1.34.657h0a.831.831,0,0,0,1.168.76l5.494-2.429a.817.817,0,0,1,.117-.042l13.767-3.755a.831.831,0,0,1,.708.13l3.715,2.7a.829.829,0,0,0,.506.159l4.943-.1A.831.831,0,0,1,1297.005,28.151Z" fill="none" stroke="#cad2d8" stroke-linecap="round" stroke-linejoin="round" stroke-width="1.172"/>
        <g transform="matrix(1, 0, 0, 1, 946.33, 23.81)" filter="url(#Trazado_17927)">
          <path id="Trazado_17927-2" data-name="Trazado 17927" d="M1202.639,240.685l-8.947-7.661-11.649-5.95-6.936-11.016-15.7-13.151-6.755-11.572-8.587-5.669-5.614-7.142-17.505-3.733-5.615-8.818-14.2-16.183-20.477,4.624-13.542-2.642-10.568-9.578-7.927-1.982s-6.275-11.229-7.266-11.56-23.736-8.356-23.736-8.356" transform="translate(-946.33 -23.81)" fill="none" stroke="#ffe600" stroke-linecap="round" stroke-linejoin="round" stroke-width="1.758"/>
        </g>
        <circle id="Elipse_2624" data-name="Elipse 2624" cx="2.419" cy="2.419" r="2.419" transform="translate(1172.222 213.629)" fill="#29a337"/>
        <circle id="Elipse_2625" data-name="Elipse 2625" cx="2.419" cy="2.419" r="2.419" transform="translate(1179.065 224.336)" fill="#29a337"/>
        <circle id="Elipse_2626" data-name="Elipse 2626" cx="2.419" cy="2.419" r="2.419" transform="translate(1098.53 147.571)" fill="#959595"/>
        <circle id="Elipse_2627" data-name="Elipse 2627" cx="2.419" cy="2.419" r="2.419" transform="translate(1026.746 121.786)" fill="#29a337"/>
        <text id="BOYACÁ" transform="translate(1199.227 172.351)" fill="#385c6b" font-size="10.546" font-family="RobotoCondensed-Bold, Roboto" font-weight="700" letter-spacing="0.04em"><tspan x="-18.811" y="0">BOYACÁ</tspan></text>
        <g id="Componente_164_18" data-name="Componente 164 – 18" transform="translate(1303.716 60.815)">
          <text id="ARAUCA" transform="translate(20 10)" fill="#b5c1c8" font-size="11" font-family="RobotoCondensed-Bold, Roboto" font-weight="700" letter-spacing="0.04em"><tspan x="-20.232" y="0">ARAUCA</tspan></text>
        </g>
        <text id="CASANARE" transform="translate(1247.835 251.605)" fill="#b5c1c8" font-size="10.546" font-family="RobotoCondensed-Bold, Roboto" font-weight="700" letter-spacing="0.04em"><tspan x="-25.561" y="0">CASANARE</tspan></text>
        <text id="SANTANDER" transform="translate(1116.013 91.492)" fill="#b5c1c8" font-size="10.546" font-family="RobotoCondensed-Bold, Roboto" font-weight="700" letter-spacing="0.04em"><tspan x="-28.257" y="0">SANTANDER</tspan></text>
        <text id="CUNDINAMARCA" transform="translate(1074.125 221.967)" fill="#b5c1c8" font-size="10.546" font-family="RobotoCondensed-Bold, Roboto" font-weight="700" letter-spacing="0.04em"><tspan x="-38.669" y="0">CUNDINAMARCA</tspan></text>
        <text id="ANTIOQUIA" transform="translate(973.335 135.088)" fill="#b5c1c8" font-size="10.546" font-family="RobotoCondensed-Bold, Roboto" font-weight="700" letter-spacing="0.04em"><tspan x="-26.279" y="0">ANTIOQUIA</tspan></text>
        <circle id="Elipse_2776" data-name="Elipse 2776" cx="2.419" cy="2.419" r="2.419" transform="translate(1168.222 198.629)" fill="#29a337"/>
      </g>
      <g id="Grupo_18064" data-name="Grupo 18064" transform="translate(-10176.906 69.087)">
        <circle id="Elipse_2628" data-name="Elipse 2628" cx="18.1" cy="18.1" r="18.1" transform="translate(4008.898 1257.659)" fill="none" stroke="#95a6b1" stroke-linecap="round" stroke-linejoin="round" stroke-width="0.879"/>
        <path id="Trazado_17928" data-name="Trazado 17928" d="M1066.135,181.78l-1.211-2.208v2.168c0,.2-.249.306-.5.306s-.5-.1-.5-.306v-4.049c0-.212.25-.307.5-.307.357,0,.491.031.734.5l1.032,1.971v-2.167c0-.212.249-.3.5-.3s.5.09.5.3v4.055c0,.2-.249.306-.5.306A.558.558,0,0,1,1066.135,181.78Z" transform="translate(2961.217 1069.085)" fill="#93a4af"/>
        <path id="Trazado_17929" data-name="Trazado 17929" d="M1087.909,201.723h.957c.192,0,.3.184.3.387,0,.174-.089.377-.3.377h-.957v1.085h1.71c.191,0,.3.2.3.441,0,.2-.088.427-.3.427h-2.272c-.216,0-.434-.1-.434-.306v-4.049c0-.206.217-.307.434-.307h2.272c.21,0,.3.224.3.427,0,.236-.108.442-.3.442h-1.71Z" transform="translate(2964.954 1072.726)" fill="#93a4af"/>
        <path id="Trazado_17930" data-name="Trazado 17930" d="M1066.414,227.179c0-.773-2.022-.638-2.022-2.13,0-.958.835-1.322,1.632-1.322.338,0,1.269.064,1.269.562,0,.172-.115.524-.4.524-.229,0-.351-.243-.874-.243-.452,0-.638.185-.638.381,0,.638,2.023.518,2.023,2.124a1.409,1.409,0,0,1-1.595,1.417c-.836,0-1.537-.408-1.537-.829,0-.217.192-.536.434-.536.3,0,.492.472,1.083.472C1066.088,227.6,1066.414,227.483,1066.414,227.179Z" transform="translate(2961.274 1076.62)" fill="#93a4af"/>
        <path id="Trazado_17931" data-name="Trazado 17931" d="M1043.994,204.428a.659.659,0,0,1-.657.331c-.287,0-.594-.108-.645-.331l-.331-1.51-.331,1.51c-.052.223-.357.331-.644.331s-.587-.108-.657-.331l-1.269-3.89a.293.293,0,0,1-.014-.083c0-.217.358-.4.645-.4.153,0,.28.051.319.184l.97,3.273.5-2.155c.038-.172.263-.262.479-.262s.441.09.479.262l.5,2.155.97-3.273c.038-.133.166-.184.32-.184.287,0,.643.178.643.4a.262.262,0,0,1-.013.083Z" transform="translate(2957.236 1072.772)" fill="#93a4af"/>
        <path id="Trazado_17932" data-name="Trazado 17932" d="M1063.9,201.078l4.354-17.044,4.792,16.926,17.044,4.354-16.926,4.792-4.354,17.044-4.792-16.926-17.044-4.354Z" transform="translate(2958.461 1070.167)" fill="none" stroke="#95a6b1" stroke-linecap="round" stroke-linejoin="round" stroke-width="0.879"/>
        <path id="Trazado_17933" data-name="Trazado 17933" d="M1062.859,208.442l-5.583,3.252,3.15-5.549" transform="translate(2960.135 1073.761)" fill="none" stroke="#95a6b1" stroke-linecap="round" stroke-linejoin="round" stroke-width="0.879"/>
        <path id="Trazado_17934" data-name="Trazado 17934" d="M1068.964,197.494l5.583-3.252-3.15,5.549" transform="translate(2962.036 1071.826)" fill="none" stroke="#95a6b1" stroke-linecap="round" stroke-linejoin="round" stroke-width="0.879"/>
        <path id="Trazado_17935" data-name="Trazado 17935" d="M1071.379,206.018l3.252,5.583-5.549-3.15" transform="translate(2962.055 1073.741)" fill="none" stroke="#95a6b1" stroke-linecap="round" stroke-linejoin="round" stroke-width="0.879"/>
        <path id="Trazado_17936" data-name="Trazado 17936" d="M1060.44,199.913l-3.252-5.583,5.549,3.161" transform="translate(2960.121 1071.841)" fill="none" stroke="#95a6b1" stroke-linecap="round" stroke-linejoin="round" stroke-width="0.879"/>
      </g>
    </g>
  </g>
</svg>
