<svg id="Capa_1" data-name="Capa 1" xmlns="http://www.w3.org/2000/svg" viewBox="0 0 150 84"><defs><style>.cls-1{fill:#97a5af;}.cls-2{fill:#19a500;}.cls-3{fill:none;}.cls-4{fill:#4da12e;}.cls-5{fill:#96d200;}</style></defs><title>icono_menu-ubicacion copia</title><g id="Trazado_12358" data-name="Trazado 12358"><path class="cls-1" d="M114.2,45.4a21.2,21.2,0,0,1-10.9-3.1l-7.1,2A1.1,1.1,0,0,1,94.9,43l2.3-6.7a20.1,20.1,0,0,1-3.4-11.4,20.3,20.3,0,0,1,6-14.5,20.1,20.1,0,0,1,14.5-6h0a20.8,20.8,0,0,1,11.3,3.4,20.2,20.2,0,0,1,8.8,13,20.6,20.6,0,0,1-16,24.2A19.9,19.9,0,0,1,114.2,45.4Zm-10.7-5.2h.6A17.9,17.9,0,0,0,118,43a18.5,18.5,0,0,0,6.5-33.5,18,18,0,0,0-10.2-3.1h0A18.4,18.4,0,0,0,95.8,24.9a18.2,18.2,0,0,0,3.3,10.6,1,1,0,0,1,.1.9l-1.8,5.5,5.8-1.7Z"/></g><g id="Rectángulo_5112" data-name="Rectángulo 5112"><path class="cls-1" d="M115.9,38.1h-2.6a2.7,2.7,0,0,1-2.7-2.8V33.8a2.7,2.7,0,0,1,2.7-2.7h2.6a2.8,2.8,0,0,1,2.8,2.7v1.5A2.8,2.8,0,0,1,115.9,38.1Zm-2.6-5a.7.7,0,0,0-.7.7v1.5a.7.7,0,0,0,.7.8h2.6a.8.8,0,0,0,.8-.8V33.8a.8.8,0,0,0-.8-.7Z"/></g><g id="Rectángulo_5113" data-name="Rectángulo 5113"><path class="cls-1" d="M117.4,29.8h-6a.9.9,0,0,1-1-1V11.1a1,1,0,0,1,1-1h6a1,1,0,0,1,1,1V28.8A.9.9,0,0,1,117.4,29.8Zm-5-2h4V12.1h-4Z"/></g><path class="cls-1" d="M85.7,57.5a1.2,1.2,0,0,1-.8-.4c-2.6-3.3-8.8-7-13.3-7H56.4a1.1,1.1,0,0,1-1-1V37.8a1,1,0,0,1,1-1H71.2a16.9,16.9,0,0,0,13.7-6.4A.9.9,0,0,1,86,30a1,1,0,0,1,.7,1V56.5a.9.9,0,0,1-.6.9ZM57.4,48.1H71.6c4.3,0,9.7,2.8,13.1,5.9V33.6a18.7,18.7,0,0,1-13.5,5.2H57.4Z"/><path class="cls-1" d="M88.5,58.1H86.7a2,2,0,0,1-2-2V31.4a2,2,0,0,1,2-2h1.8a2,2,0,0,1,2,2V56.1A2,2,0,0,1,88.5,58.1Zm0-26.7H86.7V56.1h1.8Zm0,0h0Z"/><path class="cls-1" d="M56.1,47.6H54a2,2,0,0,1-1.4-.6,2,2,0,0,1-.6-1.4V41.8a2,2,0,0,1,2-2h2.1a1,1,0,0,1,1,1,.9.9,0,0,1-1,1H54v3.8h2.1a1,1,0,0,1,1,1A.9.9,0,0,1,56.1,47.6Z"/><path class="cls-1" d="M69,50.1a1.1,1.1,0,0,1-1-1v-11a1,1,0,0,1,1-1,.9.9,0,0,1,1,1v11A1,1,0,0,1,69,50.1Z"/><path class="cls-1" d="M89.6,48.2a1,1,0,0,1-1-1,.9.9,0,0,1,1-1,2.5,2.5,0,0,0,0-4.9,1,1,0,0,1-1-1,.9.9,0,0,1,1-1,4.5,4.5,0,0,1,0,8.9Z"/><path class="cls-1" d="M65.3,64.5H62a2.6,2.6,0,0,1-2.5-2.6V52.2a.6.6,0,0,0-.6-.5,2,2,0,0,1-2-2v-.6a1,1,0,0,1,1-1,.9.9,0,0,1,1,1v.6a2.6,2.6,0,0,1,2.6,2.5v9.7a.6.6,0,0,0,.5.6h3.3a.6.6,0,0,0,.6-.6V49.1a.9.9,0,0,1,1-1,1,1,0,0,1,1,1V61.9A2.6,2.6,0,0,1,65.3,64.5Z"/><g id="Trazado_11781" data-name="Trazado 11781"><path class="cls-1" d="M60.5,38.8a1,1,0,0,1-1-1V10.4H29.6a1,1,0,0,1-1-1,1.1,1.1,0,0,1,1-1H60.5a1.1,1.1,0,0,1,1,1V37.8A1.1,1.1,0,0,1,60.5,38.8Z"/></g><g id="Trazado_11781-2" data-name="Trazado 11781"><path class="cls-1" d="M43.9,60.1H30.3a9.6,9.6,0,0,1-9.6-9.6V20.6a1,1,0,0,1,1-1,1.1,1.1,0,0,1,1,1V50.5a7.6,7.6,0,0,0,7.6,7.6H60.5a1,1,0,0,1,1,1,1.1,1.1,0,0,1-1,1Z"/></g><g id="Línea_2380" data-name="Línea 2380"><path class="cls-1" d="M48,32H34.2a1.1,1.1,0,0,1-1-1,1,1,0,0,1,1-1H48a.9.9,0,0,1,1,1A1,1,0,0,1,48,32Z"/></g><g id="Línea_2381" data-name="Línea 2381"><path class="cls-1" d="M49.3,41.5H29.5a1,1,0,0,1-1-1,.9.9,0,0,1,1-1H49.3a1,1,0,0,1,1,1A1.1,1.1,0,0,1,49.3,41.5Z"/></g><g id="Línea_2382" data-name="Línea 2382"><path class="cls-1" d="M49.3,49.2H29.5a1,1,0,0,1-1-1,.9.9,0,0,1,1-1H49.3a1,1,0,0,1,1,1A1.1,1.1,0,0,1,49.3,49.2Z"/></g><g id="Trazado_11848" data-name="Trazado 11848"><path class="cls-2" d="M21.2,17.8a6,6,0,1,1,0-12h0a6,6,0,0,1,6,6h0A6,6,0,0,1,21.2,17.8Zm0-10h0a4,4,0,1,0,4,4h0A4,4,0,0,0,21.2,7.8Z"/></g><path class="cls-1" d="M41.1,31.7a.8.8,0,0,1-.7-.3L33.9,25a1.1,1.1,0,0,1-.3-.7.9.9,0,0,1,.3-.7l6.5-6.5a1,1,0,0,1,1.4,0l6.4,6.5a1,1,0,0,1,0,1.4l-6.4,6.4A1.1,1.1,0,0,1,41.1,31.7ZM36,24.3l5.1,5,5-5-5-5Z"/><rect class="cls-3" x="33" y="63.1" width="84" height="20.93"/><path class="cls-4" d="M91.1,79.4h-9a1.5,1.5,0,0,1,0-3h9a1.5,1.5,0,0,1,0,3Z"/><path class="cls-4" d="M100.8,79.4H100a1.5,1.5,0,0,1,0-3h.8a1.5,1.5,0,0,1,0,3Z"/><path class="cls-4" d="M58.1,79.4H49.2a1.5,1.5,0,0,1,0-3h8.9a1.5,1.5,0,0,1,0,3Z"/><path class="cls-5" d="M73.2,79.4H57.5a1.5,1.5,0,0,1,0-3H73.2a1.5,1.5,0,1,1,0,3Z"/><path class="cls-5" d="M78.7,71.8H49.2a1.5,1.5,0,0,1-1.5-1.5,1.5,1.5,0,0,1,1.5-1.5H78.7a1.5,1.5,0,0,1,1.5,1.5A1.5,1.5,0,0,1,78.7,71.8Z"/><path class="cls-4" d="M100.8,71.8h-23a1.5,1.5,0,0,1-1.5-1.5,1.5,1.5,0,0,1,1.5-1.5h23a1.5,1.5,0,0,1,1.5,1.5A1.5,1.5,0,0,1,100.8,71.8Z"/><path class="cls-4" d="M49.8,71.8h-.6a1.5,1.5,0,0,1-1.5-1.5,1.5,1.5,0,0,1,1.5-1.5h.6a1.5,1.5,0,0,1,1.5,1.5A1.5,1.5,0,0,1,49.8,71.8Z"/><rect class="cls-3" width="150" height="84"/></svg>