<?xml version="1.0" encoding="utf-8"?>
<!-- Generator: Adobe Illustrator 24.0.2, SVG Export Plug-In . SVG Version: 6.00 Build 0)  -->
<svg version="1.1" xmlns="http://www.w3.org/2000/svg" xmlns:xlink="http://www.w3.org/1999/xlink" x="0px" y="0px"
	 viewBox="0 0 60 60" style="enable-background:new 0 0 60 60;" xml:space="preserve">
<style type="text/css">
	.st0{fill:#19A500;}
	.st1{fill:none;}
	.st2{fill:#FFFFFF;}
	.st3{fill:#EFEF00;}
</style>
<g id="Capa_2">
</g>
<g id="Capa_1">
	<g>
		<g>
			<g>
				<g id="Rectángulo_3799_51_">
					<path class="st0" d="M30,0L30,0c16.57,0,30,13.43,30,30v0c0,16.57-13.43,30-30,30h0C13.43,60,0,46.57,0,30v0
						C0,13.43,13.43,0,30,0z"/>
				</g>
			</g>
		</g>
		<g>
			<g>
				<g id="Rectángulo_3799_4_">
					<rect class="st1" width="60" height="60"/>
				</g>
			</g>
		</g>
		<g>
			<g>
				<g>
					<path class="st2" d="M35.51,37.91H14.18c-2.19,0-5.15-0.45-6.79-2.58c-0.5-0.65-0.84-1.41-1.02-2.28
						C5.94,31,6.4,28.68,7.73,26.16c0.14-0.27,0.48-0.38,0.75-0.23c0.27,0.14,0.38,0.48,0.23,0.75c-1.2,2.29-1.62,4.36-1.25,6.15
						c0.15,0.7,0.42,1.31,0.81,1.83c1.36,1.78,3.96,2.15,5.91,2.15h21.33c4.38,0,10.54-3,10.54-9.67c0-3.46-1.3-6.61-3.66-8.89
						c-3.02-2.92-7.69-4.36-13.5-4.15c-3.85,0.13-7.77,1.21-11.04,3.02c-0.27,0.15-0.61,0.05-0.76-0.22s-0.05-0.61,0.22-0.76
						c3.42-1.89,7.52-3.01,11.54-3.16c6.12-0.21,11.07,1.33,14.31,4.46c2.58,2.49,4,5.93,4,9.69
						C47.16,34.57,40.35,37.91,35.51,37.91z"/>
				</g>
				<g>
					<path class="st2" d="M51.95,37.93c-0.83,0-2.03-0.41-3.3-2.19c-1.87-2.6-3.28-3.32-3.29-3.33c-0.27-0.14-0.39-0.47-0.26-0.74
						c0.13-0.28,0.46-0.39,0.74-0.26c0.07,0.03,1.65,0.81,3.71,3.68c1.64,2.29,2.86,1.66,2.91,1.63c1.99-1.71-0.2-7.65-1.22-9.79
						c-8.47-15.14-21.71-12.96-22.28-12.86c-0.31,0.05-0.59-0.15-0.65-0.45c-0.05-0.3,0.15-0.59,0.45-0.65
						c0.15-0.02,14.58-2.44,23.46,13.45c0.43,0.9,3.97,8.57,0.88,11.2C53.04,37.67,52.61,37.93,51.95,37.93z"/>
				</g>
				<g>
					<path class="st2" d="M49.44,31.38c-0.94,0-1.71-0.77-1.71-1.71s0.76-1.71,1.71-1.71s1.71,0.76,1.71,1.71
						S50.38,31.38,49.44,31.38z M49.44,29.08c-0.33,0-0.59,0.27-0.59,0.59c0,0.33,0.27,0.59,0.59,0.59c0.33,0,0.59-0.27,0.59-0.59
						C50.03,29.35,49.76,29.08,49.44,29.08z"/>
				</g>
				<g>
					<path class="st2" d="M46.96,20.68c-0.23,0-0.45-0.15-0.53-0.38c-0.1-0.29,0.06-0.61,0.35-0.7c4.55-1.52,4.81-4.79,4.75-5.95
						c-4.54-0.16-5.77,4.75-5.82,4.97c-0.07,0.3-0.37,0.47-0.67,0.41c-0.3-0.07-0.48-0.37-0.41-0.67c0.02-0.06,1.62-6.4,7.46-5.78
						c0.25,0.03,0.44,0.21,0.49,0.45c0.01,0.05,0.94,5.5-5.45,7.63C47.08,20.67,47.02,20.68,46.96,20.68z"/>
				</g>
				<g>
					<path class="st2" d="M43.03,41.91h-3.79c-0.22,0-0.42-0.13-0.51-0.33l-1.85-4.06c-0.13-0.28,0-0.61,0.28-0.74
						c0.28-0.13,0.61,0,0.74,0.28l1.7,3.73h3.43c0.31,0,0.56,0.25,0.56,0.56S43.34,41.91,43.03,41.91z"/>
				</g>
				<g>
					<path class="st2" d="M21.77,41.91h-3.79c-0.22,0-0.42-0.13-0.51-0.34l-1.61-3.79c-0.12-0.28,0.01-0.61,0.29-0.73
						c0.28-0.12,0.61,0.01,0.73,0.29l1.47,3.45h3.42c0.31,0,0.56,0.25,0.56,0.56S22.08,41.91,21.77,41.91z"/>
				</g>
				<g>
					<path class="st2" d="M27.87,28.2c-0.31,0-0.56-0.25-0.56-0.56V13.8c0-0.31,0.25-0.56,0.56-0.56s0.56,0.25,0.56,0.56v13.84
						C28.43,27.95,28.18,28.2,27.87,28.2z"/>
				</g>
				<g>
					<path class="st2" d="M33.07,26.11c-0.31,0-0.56-0.25-0.56-0.56V13.65c0-0.31,0.25-0.56,0.56-0.56s0.56,0.25,0.56,0.56v11.91
						C33.62,25.86,33.37,26.11,33.07,26.11z"/>
				</g>
				<g>
					<path class="st2" d="M38.92,27.58c-0.31,0-0.56-0.25-0.56-0.56V15.11c0-0.31,0.25-0.56,0.56-0.56s0.56,0.25,0.56,0.56v11.91
						C39.47,27.33,39.22,27.58,38.92,27.58z"/>
				</g>
				<g>
					<path class="st2" d="M22.85,23.45c-0.31,0-0.56-0.25-0.56-0.56v-8.04c0-0.31,0.25-0.56,0.56-0.56s0.56,0.25,0.56,0.56v8.04
						C23.4,23.21,23.15,23.45,22.85,23.45z"/>
				</g>
			</g>
			<g>
				<path class="st2" d="M18.77,47.48c-3.18,0-6.39-0.2-9.02-2.53c-2.5-2.21-3.99-5.26-4.1-8.37c-0.21-5.76,1.59-9.42,1.67-9.57
					c0.14-0.28,0.47-0.39,0.75-0.25c0.28,0.14,0.39,0.47,0.25,0.75c-0.02,0.04-1.75,3.58-1.55,9.04c0.1,2.76,1.49,5.6,3.73,7.57
					c1.91,1.69,4.17,2.12,6.61,2.22c-3.34-1.39-7.84-4.27-7.84-9.7c0-0.31,0.25-0.56,0.56-0.56s0.56,0.25,0.56,0.56
					c0,7.68,10.38,9.71,10.49,9.73c0.28,0.05,0.48,0.31,0.45,0.6c-0.03,0.29-0.27,0.5-0.55,0.5l-0.99,0
					C19.44,47.48,19.11,47.48,18.77,47.48z"/>
			</g>
		</g>
		<g>
			<g>
				<g>
					<path class="st3" d="M12.46,25.18c-0.62,0-1.24-0.13-1.83-0.39c-1.09-0.49-1.92-1.37-2.34-2.48c-0.42-1.11-0.39-2.32,0.1-3.41
						c1.01-2.24,3.65-3.25,5.89-2.24c1.09,0.49,1.92,1.37,2.34,2.48c0.42,1.11,0.39,2.32-0.1,3.41l0,0
						c-0.49,1.09-1.37,1.92-2.48,2.34C13.53,25.08,12.99,25.18,12.46,25.18z M12.47,17.46c-1.24,0-2.43,0.72-2.98,1.92
						c-0.36,0.79-0.38,1.68-0.07,2.49c0.31,0.81,0.92,1.46,1.71,1.81c0.79,0.36,1.68,0.38,2.49,0.07c0.81-0.31,1.46-0.92,1.81-1.71
						l0,0c0.36-0.79,0.38-1.68,0.07-2.49c-0.31-0.81-0.92-1.46-1.71-1.81C13.36,17.55,12.91,17.46,12.47,17.46z"/>
				</g>
			</g>
		</g>
	</g>
</g>
</svg>
