<?xml version="1.0" encoding="utf-8"?>
<!-- Generator: Adobe Illustrator 24.0.2, SVG Export Plug-In . SVG Version: 6.00 Build 0)  -->
<svg version="1.1" xmlns="http://www.w3.org/2000/svg" xmlns:xlink="http://www.w3.org/1999/xlink" x="0px" y="0px"
	 viewBox="0 0 60 60" style="enable-background:new 0 0 60 60;" xml:space="preserve">
<style type="text/css">
	.st0{fill:#19A500;}
	.st1{fill:none;}
	.st2{fill:#FFFFFF;}
	.st3{fill:#EFEF00;}
</style>
<g id="Capa_2">
</g>
<g id="Capa_1">
	<g>
		<g>
			<g>
				<g id="Rectángulo_3799_21_">
					<path class="st0" d="M30,0L30,0c16.57,0,30,13.43,30,30v0c0,16.57-13.43,30-30,30h0C13.43,60,0,46.57,0,30v0
						C0,13.43,13.43,0,30,0z"/>
				</g>
			</g>
		</g>
		<g>
			<g>
				<g id="Rectángulo_3799_29_">
					<rect class="st1" width="60" height="60"/>
				</g>
			</g>
		</g>
		<g>
			<g>
				<g>
					<path class="st2" d="M8.18,43.49c-0.09,0-0.18-0.02-0.27-0.07c-0.19-0.1-0.3-0.29-0.3-0.5V25.59c0-0.21,0.12-0.41,0.31-0.51
						c0.19-0.1,0.42-0.08,0.6,0.05l7.29,5.36c1.46-1.12,7.21-5.15,13.81-5.15c7.53,0,15.78,8.17,16.13,8.51
						c0.19,0.19,0.22,0.49,0.07,0.72c-0.21,0.32-5.27,7.8-16.36,7.8c-9.04,0-12.55-2.83-13.59-3.98l-7.37,5
						C8.4,43.46,8.29,43.49,8.18,43.49z M8.75,26.72v15.13l6.91-4.69c0.13-0.09,0.29-0.12,0.44-0.09c0.15,0.03,0.28,0.13,0.37,0.26
						c0.02,0.04,2.62,3.9,12.99,3.9c9.06,0,13.95-5.41,15.13-6.91c-1.65-1.54-8.75-7.84-14.97-7.84c-7.08,0-13.38,5.11-13.44,5.17
						c-0.2,0.17-0.49,0.17-0.7,0.02L8.75,26.72z"/>
				</g>
				<g>
					<path class="st2" d="M36.22,35.25c-1.24,0-2.25-1.01-2.25-2.25c0-1.24,1.01-2.26,2.25-2.26s2.25,1.01,2.25,2.26
						C38.48,34.24,37.46,35.25,36.22,35.25z M36.22,31.88c-0.61,0-1.11,0.5-1.11,1.12c0,0.61,0.5,1.11,1.11,1.11s1.11-0.5,1.11-1.11
						C37.34,32.38,36.84,31.88,36.22,31.88z"/>
				</g>
				<g>
					<path class="st2" d="M30.03,38.54c-0.17,0-0.34-0.08-0.46-0.23c-1.51-2-2.13-3.92-1.86-5.71c0.34-2.19,1.92-3.34,1.98-3.39
						c0.25-0.18,0.61-0.12,0.79,0.13c0.18,0.26,0.12,0.61-0.13,0.79c-0.03,0.02-1.27,0.95-1.52,2.66c-0.22,1.47,0.33,3.1,1.65,4.84
						c0.19,0.25,0.14,0.61-0.11,0.8C30.27,38.51,30.15,38.54,30.03,38.54z"/>
				</g>
			</g>
			<g>
				<g>
					<path class="st2" d="M18.48,52.68c-0.59,0-1.17-0.2-1.68-0.59c-0.75-0.57-1.39-1.41-2.01-2.64c-0.96-1.91-2.9-2.79-2.92-2.8
						c-0.29-0.13-0.42-0.46-0.29-0.75c0.13-0.29,0.46-0.42,0.75-0.29c0.09,0.04,2.33,1.04,3.48,3.33c0.53,1.06,1.08,1.79,1.67,2.24
						c0.46,0.35,0.94,0.44,1.47,0.29c1.1-0.32,2.19-1.64,2.61-2.75c1.21-3.18,3.7-2.91,3.8-2.89c0.31,0.04,0.53,0.32,0.5,0.64
						c-0.04,0.31-0.33,0.54-0.64,0.5c-0.06-0.01-1.71-0.15-2.6,2.17c-0.53,1.38-1.85,3-3.36,3.43
						C19.01,52.64,18.74,52.68,18.48,52.68z"/>
				</g>
				<g>
					<path class="st2" d="M31.48,52.66c-1.75,0-3.03-1.66-3.65-3.26c-0.81-2.12-2.55-2.43-2.62-2.44c-0.31-0.05-0.52-0.34-0.47-0.65
						s0.34-0.51,0.65-0.47c0.1,0.02,2.45,0.41,3.51,3.16c0.2,0.51,1.27,3.02,3.14,2.45c1.11-0.34,2.08-1.36,2.59-2.71
						c1.21-3.18,3.7-2.91,3.8-2.9c0.31,0.04,0.53,0.32,0.5,0.64c-0.04,0.31-0.32,0.54-0.64,0.5c-0.06-0.01-1.71-0.15-2.6,2.17
						c-0.64,1.68-1.88,2.94-3.32,3.39C32.07,52.62,31.77,52.66,31.48,52.66z"/>
				</g>
				<g>
					<path class="st2" d="M44.89,52.71c-1.74,0-3.16-1.65-3.8-3.31c-0.82-2.14-2.6-2.44-2.62-2.44c-0.31-0.05-0.53-0.34-0.48-0.65
						c0.05-0.31,0.34-0.52,0.65-0.48c0.1,0.02,2.45,0.41,3.51,3.16c0.4,1.04,1.46,2.58,2.73,2.58c0.01,0,0.03,0,0.04,0
						c1.23-0.03,2.44-1.49,2.96-2.84c1.21-3.18,3.7-2.91,3.8-2.89c0.31,0.04,0.53,0.32,0.5,0.64c-0.04,0.31-0.33,0.54-0.64,0.5
						c-0.06-0.01-1.71-0.15-2.6,2.17c-0.64,1.69-2.17,3.53-3.99,3.57C44.93,52.71,44.91,52.71,44.89,52.71z"/>
				</g>
			</g>
			<g>
				<g>
					<path class="st2" d="M38.59,18.67c-0.43,0-0.85-0.09-1.25-0.27c-1.54-0.69-2.22-2.5-1.53-4.04c0.69-1.54,2.51-2.22,4.04-1.53
						c0.74,0.33,1.31,0.94,1.6,1.7c0.29,0.76,0.27,1.59-0.07,2.34l0,0c-0.33,0.74-0.94,1.31-1.7,1.6
						C39.32,18.6,38.95,18.67,38.59,18.67z M38.59,13.7c-0.73,0-1.43,0.42-1.75,1.13c-0.43,0.96,0,2.1,0.96,2.53
						c0.47,0.21,0.99,0.23,1.46,0.04c0.48-0.18,0.86-0.54,1.07-1l0,0c0.21-0.47,0.22-0.99,0.04-1.46s-0.54-0.86-1-1.07
						C39.12,13.75,38.85,13.7,38.59,13.7z"/>
				</g>
			</g>
			<g>
				<g>
					<path class="st2" d="M45.52,11.83c-0.32,0-0.63-0.07-0.93-0.2c-0.55-0.25-0.98-0.7-1.19-1.26c-0.22-0.57-0.2-1.18,0.05-1.74
						c0.51-1.14,1.86-1.66,3-1.14c0.55,0.25,0.98,0.7,1.19,1.26c0.21,0.57,0.2,1.18-0.05,1.74l0,0c-0.25,0.55-0.7,0.98-1.26,1.19
						C46.07,11.78,45.79,11.83,45.52,11.83z M45.52,8.43c-0.13,0-0.27,0.02-0.4,0.07c-0.28,0.11-0.5,0.32-0.63,0.59
						c-0.12,0.28-0.13,0.58-0.02,0.86c0.11,0.28,0.32,0.5,0.59,0.63c0.27,0.12,0.58,0.13,0.86,0.03c0.28-0.11,0.5-0.32,0.63-0.59
						c0.12-0.28,0.13-0.58,0.03-0.86c-0.11-0.28-0.32-0.5-0.59-0.63C45.84,8.47,45.68,8.43,45.52,8.43z M47.07,10.26L47.07,10.26
						L47.07,10.26z"/>
				</g>
			</g>
			<g>
				<g>
					<g>
						<path class="st3" d="M47.09,28.41c-0.61,0-1.23-0.13-1.82-0.39c-1.09-0.49-1.92-1.37-2.34-2.48c-0.42-1.11-0.39-2.32,0.1-3.41
							c0.49-1.09,1.37-1.92,2.48-2.34s2.32-0.39,3.41,0.1c1.09,0.49,1.92,1.37,2.34,2.48c0.42,1.11,0.39,2.32-0.1,3.41l0,0
							C50.42,27.43,48.8,28.41,47.09,28.41z M47.1,20.69c-0.39,0-0.78,0.07-1.16,0.21c-0.81,0.31-1.46,0.92-1.81,1.71
							c-0.36,0.79-0.38,1.68-0.07,2.49c0.31,0.81,0.92,1.46,1.71,1.81c1.64,0.74,3.57,0,4.31-1.63l0,0
							c0.36-0.79,0.38-1.68,0.07-2.49c-0.31-0.81-0.92-1.46-1.71-1.81C48.01,20.79,47.56,20.69,47.1,20.69z"/>
					</g>
				</g>
			</g>
		</g>
	</g>
</g>
</svg>
