<?xml version="1.0" encoding="utf-8"?>
<!-- Generator: Adobe Illustrator 24.0.2, SVG Export Plug-In . SVG Version: 6.00 Build 0)  -->
<svg version="1.1" xmlns="http://www.w3.org/2000/svg" xmlns:xlink="http://www.w3.org/1999/xlink" x="0px" y="0px"
	 viewBox="0 0 60 60" style="enable-background:new 0 0 60 60;" xml:space="preserve">
<style type="text/css">
	.st0{fill:#19A500;}
	.st1{fill:none;}
	.st2{fill:#FFFFFF;}
	.st3{fill:#EFEF00;}
</style>
<g id="Capa_2">
</g>
<g id="Capa_1">
	<g>
		<g>
			<g>
				<g id="Rectángulo_3799_50_">
					<path class="st0" d="M30,0L30,0c16.57,0,30,13.43,30,30v0c0,16.57-13.43,30-30,30h0C13.43,60,0,46.57,0,30v0
						C0,13.43,13.43,0,30,0z"/>
				</g>
			</g>
		</g>
		<g>
			<g>
				<g id="Rectángulo_3799_6_">
					<rect class="st1" width="60" height="60"/>
				</g>
			</g>
		</g>
		<g>
			<g>
				<g>
					<path class="st2" d="M31.07,53.74c-2.38,0-4.84-0.51-7.19-1.56c-6.4-2.86-11.23-9.95-12.01-17.66
						c-0.03-0.29,0.18-0.55,0.47-0.58c0.27-0.03,0.55,0.18,0.58,0.47c0.75,7.34,5.32,14.09,11.39,16.8c6.59,2.94,14,1.35,18.02-3.86
						c0.38-0.5,0.78-1.01,1.13-1.52c-5.36,2.69-12,5.97-17.44,1.75c-4.55-3.53-5.38-8.34-2.67-15.61
						c2.77-7.46,10.65-9.72,10.99-9.81c0.12-0.03,0.25-0.02,0.36,0.03l3.26,1.53c0.55-0.4,2.07-1.44,5.94-3.8
						c4.99-3.03,5.24-5.84,4.61-7.02c-0.79-1.47-3.22-2.43-7.2-2.85c-4.14-0.44-8.2,1.15-9.12,1.54l-1.07,2.92
						c-0.07,0.2-0.26,0.33-0.47,0.34c-0.1,0-9.91,0.58-14.85,7.57c-0.17,0.24-0.5,0.29-0.73,0.13c-0.24-0.17-0.29-0.5-0.13-0.73
						c4.76-6.72,13.43-7.82,15.31-7.99l1.03-2.81c0.05-0.13,0.15-0.24,0.27-0.3c0.2-0.09,4.88-2.25,9.87-1.71
						c4.42,0.47,7.04,1.58,8.02,3.4c0.81,1.51,0.67,4.97-4.99,8.41c-5.13,3.12-6.05,3.88-6.08,3.91c-0.16,0.13-0.38,0.17-0.57,0.08
						l-3.36-1.58c-1.17,0.38-7.74,2.76-10.1,9.11c-2.52,6.77-1.8,11.22,2.33,14.42c4.96,3.84,11.33,0.64,16.45-1.93
						c0.52-0.26,1.03-0.52,1.52-0.76c0.2-0.1,0.45-0.06,0.61,0.1c0.16,0.16,0.2,0.4,0.1,0.61c-0.53,1.05-1.37,2.17-2.18,3.21
						C40.28,51.73,35.81,53.73,31.07,53.74z"/>
				</g>
				<g>
					<path class="st2" d="M25.19,39.58c-0.09,0-0.18-0.02-0.27-0.07c-0.25-0.15-0.33-0.47-0.19-0.72l1.18-2.02
						c0.15-0.25,0.47-0.34,0.72-0.19c0.25,0.15,0.33,0.47,0.19,0.72l-1.18,2.02C25.55,39.48,25.37,39.58,25.19,39.58z"/>
				</g>
				<g>
					<path class="st2" d="M26.86,39.99c-0.19,0-0.38-0.11-0.47-0.29c-0.13-0.26-0.02-0.58,0.24-0.71l1.94-0.96
						c0.26-0.13,0.58-0.02,0.71,0.24s0.02,0.58-0.24,0.71l-1.94,0.96C27.02,39.98,26.94,39.99,26.86,39.99z"/>
				</g>
				<g>
					<path class="st2" d="M27.59,41.56c-0.28,0-0.51-0.22-0.53-0.5c-0.01-0.29,0.21-0.54,0.5-0.55l2.27-0.1
						c0.29,0,0.54,0.21,0.55,0.5c0.01,0.29-0.21,0.54-0.5,0.55l-2.27,0.1C27.61,41.56,27.6,41.56,27.59,41.56z"/>
				</g>
				<g>
					<path class="st2" d="M28.98,44.11c-0.08,0-0.15-0.02-0.22-0.05l-1.91-0.89c-0.26-0.12-0.38-0.44-0.25-0.7
						c0.12-0.26,0.44-0.38,0.7-0.25l1.91,0.89c0.26,0.12,0.38,0.44,0.25,0.7C29.36,44,29.17,44.11,28.98,44.11z"/>
				</g>
				<g>
					<path class="st2" d="M24.12,45.32c-0.17,0-0.34-0.09-0.44-0.24c-0.16-0.24-0.09-0.57,0.16-0.73c1.3-0.84,2.83-1.94,3.04-3.03
						c0.08-0.39-0.02-0.77-0.3-1.17c-0.18-0.26-0.4-0.39-0.7-0.43c-0.98-0.12-2.41,0.89-2.88,1.29c-0.22,0.19-0.55,0.16-0.74-0.06
						c-0.19-0.22-0.16-0.55,0.06-0.74c0.21-0.18,2.06-1.73,3.69-1.53c0.58,0.07,1.08,0.37,1.43,0.87c0.45,0.63,0.61,1.3,0.48,1.98
						c-0.29,1.47-1.93,2.7-3.5,3.71C24.31,45.29,24.22,45.32,24.12,45.32z"/>
				</g>
				<g>
					<path class="st2" d="M9.49,49.67c-0.18,0-0.35-0.09-0.45-0.25c-0.15-0.25-0.07-0.57,0.18-0.72l1.81-1.09
						c0.25-0.15,0.57-0.07,0.72,0.18c0.15,0.25,0.07,0.57-0.18,0.72l-1.81,1.09C9.67,49.64,9.58,49.67,9.49,49.67z"/>
				</g>
				<g>
					<path class="st2" d="M10.13,47.31c-0.02,0-0.04,0-0.06,0l-2.12-0.25c-0.29-0.03-0.5-0.29-0.46-0.58
						c0.03-0.29,0.3-0.49,0.58-0.46l2.12,0.25c0.29,0.03,0.5,0.29,0.46,0.58C10.62,47.11,10.39,47.31,10.13,47.31z"/>
				</g>
				<g>
					<path class="st2" d="M10.37,45.61c-0.1,0-0.2-0.03-0.29-0.09l-1.71-1.14c-0.24-0.16-0.31-0.49-0.15-0.73
						c0.16-0.24,0.49-0.31,0.73-0.15l1.71,1.14c0.24,0.16,0.31,0.49,0.15,0.73C10.71,45.52,10.54,45.61,10.37,45.61z"/>
				</g>
				<g>
					<path class="st2" d="M11.72,44.49c-0.18,0-0.36-0.09-0.46-0.26l-1.05-1.8c-0.15-0.25-0.06-0.57,0.19-0.72
						c0.25-0.15,0.57-0.06,0.72,0.19l1.05,1.8c0.15,0.25,0.06,0.57-0.19,0.72C11.9,44.47,11.81,44.49,11.72,44.49z"/>
				</g>
				<g>
					<path class="st2" d="M13.32,48.71c-0.88,0-2.12-0.13-2.91-0.79c-0.45-0.38-0.7-0.9-0.72-1.5c-0.03-0.78,0.2-1.42,0.68-1.92
						c1.04-1.08,3.11-1.23,4.96-1.2c0.29,0,0.52,0.24,0.52,0.53c0,0.29-0.24,0.52-0.53,0.52c-0.04,0-0.14,0-0.21,0
						c-1.51,0-3.25,0.12-3.99,0.88c-0.28,0.29-0.4,0.66-0.38,1.15c0.01,0.31,0.12,0.55,0.35,0.74c0.76,0.64,2.51,0.58,3.11,0.5
						c0.73-0.1,2.82-0.43,3.66-0.8c0.27-0.12,0.58,0,0.69,0.27c0.12,0.27-0.01,0.58-0.27,0.69c-1.14,0.5-3.83,0.86-3.94,0.88
						C14.25,48.66,13.85,48.71,13.32,48.71z"/>
				</g>
				<g>
					<g>
						<path class="st2" d="M20.93,11.04c-0.15,0-0.29-0.06-0.39-0.18L19.07,9.2c-0.19-0.22-0.17-0.55,0.04-0.74
							c0.22-0.19,0.55-0.17,0.74,0.04l1.46,1.65c0.19,0.22,0.17,0.55-0.04,0.74C21.18,10.99,21.05,11.04,20.93,11.04z"/>
					</g>
					<g>
						<path class="st2" d="M21.92,9.63c-0.27,0-0.5-0.21-0.52-0.48l-0.21-2.32c-0.03-0.29,0.19-0.54,0.48-0.57
							c0.27-0.03,0.55,0.19,0.57,0.48l0.21,2.32c0.03,0.29-0.19,0.54-0.48,0.57C21.96,9.63,21.94,9.63,21.92,9.63z"/>
					</g>
					<g>
						<path class="st2" d="M23.65,9.52c-0.05,0-0.11-0.01-0.16-0.03c-0.28-0.09-0.43-0.39-0.34-0.66l0.67-2.03
							c0.09-0.28,0.39-0.42,0.66-0.34c0.28,0.09,0.43,0.39,0.34,0.66l-0.67,2.03C24.07,9.38,23.87,9.52,23.65,9.52z"/>
					</g>
					<g>
						<path class="st2" d="M25.01,10.61c-0.14,0-0.28-0.06-0.39-0.17c-0.2-0.21-0.18-0.55,0.03-0.74l1.72-1.58
							c0.21-0.2,0.54-0.18,0.74,0.03c0.2,0.21,0.18,0.55-0.03,0.74l-1.72,1.58C25.27,10.56,25.14,10.61,25.01,10.61z"/>
					</g>
					<g>
						<path class="st2" d="M21.46,17.07c-0.26,0-0.49-0.2-0.52-0.46l-0.5-4.17c-0.17-1.21,0.04-3.62,2.12-3.99
							c0.69-0.12,1.32,0.02,1.86,0.43c1.27,0.96,1.51,3,1.51,3.03c0.04,0.37,0.37,2.36,0.5,3.09c0.05,0.29-0.14,0.56-0.43,0.61
							c-0.28,0.04-0.56-0.14-0.61-0.43c-0.02-0.11-0.46-2.68-0.51-3.17c-0.03-0.31-0.33-1.71-1.1-2.29c-0.3-0.23-0.64-0.3-1.04-0.23
							c-1.6,0.28-1.28,2.71-1.26,2.82l0.5,4.18c0.03,0.29-0.17,0.55-0.46,0.58C21.51,17.07,21.49,17.07,21.46,17.07z"/>
					</g>
				</g>
				<g>
					<g>
						<path class="st2" d="M33.37,29.15c-0.29,0-0.52-0.23-0.53-0.52c0-0.29,0.23-0.53,0.52-0.53l2.28-0.04c0,0,0,0,0.01,0
							c0.29,0,0.52,0.23,0.53,0.52c0,0.29-0.23,0.53-0.52,0.53L33.37,29.15C33.38,29.15,33.38,29.15,33.37,29.15z"/>
					</g>
					<g>
						<path class="st2" d="M35.71,31.95c-0.1,0-0.19-0.03-0.28-0.08l-1.83-1.16c-0.25-0.16-0.32-0.48-0.16-0.73
							c0.15-0.25,0.48-0.32,0.73-0.16l1.83,1.16c0.25,0.16,0.32,0.48,0.16,0.73C36.06,31.86,35.88,31.95,35.71,31.95z"/>
					</g>
					<g>
						<path class="st2" d="M34.06,34.13c-0.18,0-0.35-0.09-0.45-0.26l-1.14-1.91c-0.15-0.25-0.07-0.57,0.18-0.72
							c0.25-0.15,0.57-0.07,0.72,0.18l1.14,1.91c0.15,0.25,0.07,0.57-0.18,0.72C34.24,34.11,34.15,34.13,34.06,34.13z"/>
					</g>
					<g>
						<path class="st2" d="M31.46,34.96c-0.27,0-0.49-0.2-0.52-0.47l-0.24-2.32c-0.03-0.29,0.18-0.55,0.47-0.58
							c0.28-0.03,0.55,0.18,0.58,0.47l0.24,2.32c0.03,0.29-0.18,0.55-0.47,0.58C31.49,34.96,31.48,34.96,31.46,34.96z"/>
					</g>
					<g>
						<path class="st2" d="M31.77,32.49c-1.3,0-2.53-0.74-2.55-0.75c-0.4-0.25-3.96-2.32-3.96-2.32l0.53-0.91
							c0,0,3.58,2.08,3.98,2.34c0.27,0.17,1.55,0.78,2.48,0.53c0.36-0.1,0.63-0.32,0.82-0.68c0.75-1.44-1.37-2.67-1.46-2.72
							l-3.09-1.85c-0.25-0.15-0.33-0.47-0.18-0.72c0.15-0.25,0.47-0.33,0.72-0.18l3.08,1.85c1.06,0.6,2.84,2.24,1.87,4.12
							c-0.33,0.62-0.82,1.03-1.47,1.21C32.28,32.46,32.02,32.49,31.77,32.49z"/>
					</g>
				</g>
				<g>
					<path class="st2" d="M38.98,13.78c-1.39,0-2.52-1.13-2.52-2.51c0-0.8,0.39-1.56,1.03-2.03c0.23-0.17,0.56-0.12,0.74,0.11
						c0.17,0.24,0.12,0.56-0.11,0.74c-0.38,0.28-0.6,0.72-0.6,1.18c0,0.81,0.66,1.46,1.46,1.46c0.81,0,1.46-0.66,1.46-1.46
						c0-0.53-0.29-1.02-0.75-1.28c-0.25-0.14-0.34-0.46-0.2-0.72c0.14-0.25,0.46-0.34,0.72-0.2c0.79,0.44,1.29,1.29,1.29,2.2
						C41.5,12.65,40.37,13.78,38.98,13.78z"/>
				</g>
				<g>
					<path class="st2" d="M41.42,22.56c-1.39,0-2.51-1.13-2.51-2.51s1.13-2.51,2.51-2.51c1.39,0,2.52,1.13,2.52,2.51
						c0,0.34-0.07,0.67-0.2,0.98c-0.11,0.27-0.42,0.39-0.69,0.28c-0.27-0.11-0.39-0.42-0.28-0.69c0.08-0.18,0.12-0.37,0.12-0.57
						c0-0.81-0.66-1.46-1.46-1.46c-0.81,0-1.46,0.66-1.46,1.46s0.66,1.46,1.46,1.46c0.29,0,0.53,0.24,0.53,0.53
						S41.71,22.56,41.42,22.56z"/>
				</g>
				<g>
					<path class="st2" d="M49.3,13.54c-0.27,0-0.5-0.21-0.52-0.49c-0.02-0.29,0.2-0.54,0.49-0.56c0.03,0,1.24-0.11,2.41-1.02
						c0.23-0.18,0.56-0.14,0.74,0.09c0.18,0.23,0.14,0.56-0.09,0.74c-1.44,1.13-2.92,1.24-2.98,1.25
						C49.32,13.54,49.31,13.54,49.3,13.54z"/>
				</g>
			</g>
			<g>
				<g>
					<g>
						<path class="st3" d="M12.75,32.47c-0.61,0-1.23-0.13-1.82-0.39c-2.24-1.01-3.25-3.65-2.24-5.89c0.49-1.09,1.37-1.92,2.48-2.34
							c1.11-0.42,2.32-0.39,3.41,0.1c1.09,0.49,1.92,1.37,2.34,2.48c0.42,1.11,0.39,2.32-0.1,3.41l0,0
							C16.09,31.49,14.46,32.47,12.75,32.47z M12.76,24.76c-0.39,0-0.78,0.07-1.16,0.21c-0.81,0.31-1.46,0.92-1.81,1.71
							c-0.74,1.64,0,3.57,1.64,4.31c1.64,0.74,3.57,0,4.31-1.64l0,0c0.36-0.79,0.38-1.68,0.07-2.49c-0.31-0.81-0.92-1.46-1.71-1.81
							C13.67,24.85,13.22,24.76,12.76,24.76z"/>
					</g>
				</g>
			</g>
		</g>
	</g>
</g>
</svg>
