<?xml version="1.0" encoding="utf-8"?>
<!-- Generator: Adobe Illustrator 24.0.2, SVG Export Plug-In . SVG Version: 6.00 Build 0)  -->
<svg version="1.1" xmlns="http://www.w3.org/2000/svg" xmlns:xlink="http://www.w3.org/1999/xlink" x="0px" y="0px"
	 viewBox="0 0 60 60" style="enable-background:new 0 0 60 60;" xml:space="preserve">
<style type="text/css">
	.st0{fill:#19A500;}
	.st1{fill:none;}
	.st2{fill:#FFFFFF;}
	.st3{fill:#EFEF00;}
</style>
<g id="Capa_2">
	<g>
		<g>
			<g id="Rectángulo_3799_48_">
				<path class="st0" d="M30,0L30,0c16.57,0,30,13.43,30,30v0c0,16.57-13.43,30-30,30h0C13.43,60,0,46.57,0,30v0
					C0,13.43,13.43,0,30,0z"/>
			</g>
		</g>
	</g>
</g>
<g id="Capa_1">
	<g>
		<g>
			<g id="Rectángulo_3799_2_">
				<rect class="st1" width="60" height="60"/>
			</g>
		</g>
	</g>
	<g>
		<g>
			<g>
				<path class="st2" d="M25.85,52.86h-9.79c-0.26,0-0.48-0.18-0.53-0.43c-0.05-0.25,0.09-0.5,0.33-0.6
					c0.08-0.03,8.07-3.28,9.26-9.66c0.58-3.13,1.88-5.72,2.82-7.61c0.75-1.49,1.39-2.78,1.18-3.37c-0.03-0.1-0.11-0.24-0.41-0.38
					c-15.62-7.26-18.26-18.9-18.37-19.39c-0.04-0.17,0.01-0.35,0.13-0.47c0.12-0.13,0.29-0.19,0.46-0.17
					c1.27,0.16,9.97,3,10.96,3.32c0.28,0.09,0.43,0.39,0.34,0.67s-0.4,0.43-0.67,0.34c-2.26-0.74-7.72-2.5-9.93-3.09
					c0.92,2.78,4.79,11.89,17.53,17.81c0.49,0.23,0.81,0.56,0.96,1c0.36,1.02-0.31,2.35-1.24,4.2c-0.97,1.94-2.17,4.35-2.73,7.32
					c-0.9,4.85-5.17,7.94-7.81,9.43h7.21c0.62-0.95,2.91-4.79,2.73-9.21c-0.01-0.29,0.22-0.54,0.51-0.56
					c0.34-0.01,0.54,0.22,0.56,0.51c0.22,5.45-2.95,9.91-3.08,10.1C26.19,52.78,26.02,52.86,25.85,52.86z"/>
			</g>
			<g>
				<path class="st2" d="M31.35,30.03c-0.14,0-0.28-0.05-0.38-0.16c-0.04-0.04-3.61-3.71-7.05-8.75
					c-3.63-5.32-3.61-16.36-3.61-16.83c0-0.22,0.14-0.42,0.34-0.5c0.2-0.08,0.44-0.02,0.59,0.14c0.1,0.1,9.6,10.42,14.58,13.33
					c5.31,3.1,5.48,7.71,5.49,7.91c0.01,0.29-0.23,0.54-0.52,0.55c-0.31-0.02-0.54-0.22-0.55-0.52c-0.01-0.17-0.18-4.23-4.96-7.01
					c-4.23-2.47-11.3-9.78-13.87-12.5c0.12,3.15,0.68,10.86,3.39,14.83c3.39,4.96,6.9,8.57,6.93,8.6c0.21,0.21,0.2,0.55-0.01,0.76
					C31.62,29.98,31.49,30.03,31.35,30.03z"/>
			</g>
			<g>
				<path class="st2" d="M40.24,31.48c-0.06,0-0.13-0.01-0.19-0.03c-0.28-0.1-0.42-0.41-0.31-0.69c0.08-0.21,0.16-0.42,0.23-0.63
					c0.53-1.49,1.04-2.9,2.69-3.02c1.53-0.11,2.15,0.1,2.26,0.14c0.27,0.11,0.41,0.42,0.3,0.7s-0.42,0.41-0.7,0.3l0,0
					c0,0-0.5-0.16-1.79-0.07c-0.91,0.07-1.23,0.84-1.75,2.31c-0.07,0.21-0.15,0.43-0.23,0.65C40.66,31.35,40.46,31.48,40.24,31.48z"
					/>
			</g>
			<g>
				<path class="st2" d="M26.57,42.85c-0.59,0-0.95-0.05-0.99-0.05c-0.29-0.04-0.5-0.31-0.46-0.6c0.04-0.29,0.32-0.5,0.6-0.46
					c0.03,0,3.04,0.39,6.32-1.32c0.26-0.13,0.58-0.03,0.72,0.23c0.14,0.26,0.03,0.58-0.23,0.72C30.09,42.63,27.82,42.85,26.57,42.85
					z"/>
			</g>
			<g>
				<path class="st2" d="M47.7,36.06c-0.14,0-0.27-0.05-0.37-0.15c-0.11-0.1-0.17-0.24-0.17-0.39v-6.49c0-0.29,0.24-0.53,0.53-0.53
					s0.53,0.24,0.53,0.53v5.89c2.31-0.43,3.99-2.58,4.22-4.1c0.57-3.7-0.71-6.65-3.6-8.29c-0.26-0.15-0.35-0.47-0.2-0.73
					c0.15-0.25,0.47-0.34,0.73-0.2c3.25,1.85,4.76,5.27,4.13,9.38c-0.35,2.27-2.81,4.91-5.78,5.08
					C47.72,36.06,47.71,36.06,47.7,36.06z"/>
			</g>
			<g>
				<path class="st2" d="M47.44,29.49c-2.3,0-4.17-1.87-4.17-4.17c0-2.3,1.87-4.17,4.17-4.17c2.3,0,4.17,1.87,4.17,4.17
					C51.61,27.62,49.74,29.49,47.44,29.49z M47.44,22.21c-1.71,0-3.1,1.39-3.1,3.1s1.39,3.11,3.1,3.11s3.11-1.39,3.11-3.11
					S49.15,22.21,47.44,22.21z"/>
			</g>
			<g>
				<path class="st2" d="M40.14,23.29c-0.21,0-0.41-0.13-0.5-0.33c-0.11-0.27,0.02-0.58,0.3-0.7c0.16-0.06,3.96-1.58,7.57-1.12
					c0.29,0.04,0.5,0.3,0.46,0.6s-0.32,0.5-0.6,0.46c-3.34-0.42-7,1.03-7.03,1.05C40.28,23.28,40.21,23.29,40.14,23.29z"/>
			</g>
			<g>
				<path class="st2" d="M20.98,21.33h-4.87c-0.29,0-0.53-0.24-0.53-0.53s0.24-0.53,0.53-0.53h4.87c0.29,0,0.53,0.24,0.53,0.53
					S21.28,21.33,20.98,21.33z"/>
			</g>
			<g>
				<path class="st2" d="M32.73,25.48h-4.87c-0.29,0-0.53-0.24-0.53-0.53s0.24-0.53,0.53-0.53h4.87c0.29,0,0.53,0.24,0.53,0.53
					S33.03,25.48,32.73,25.48z"/>
			</g>
			<g>
				<path class="st2" d="M27.72,17.79h-4.87c-0.29,0-0.53-0.24-0.53-0.53s0.24-0.53,0.53-0.53h4.87c0.29,0,0.53,0.24,0.53,0.53
					S28.01,17.79,27.72,17.79z"/>
			</g>
		</g>
		<g>
			<g>
				<g>
					<path class="st3" d="M37.02,41.3c-0.61,0-1.23-0.13-1.82-0.39c-1.09-0.49-1.92-1.37-2.34-2.48c-0.42-1.11-0.39-2.32,0.1-3.41
						c0.49-1.09,1.37-1.92,2.48-2.34s2.32-0.39,3.41,0.1c1.09,0.49,1.92,1.37,2.34,2.48c0.42,1.11,0.39,2.32-0.1,3.41l0,0
						C40.35,40.32,38.72,41.3,37.02,41.3z M37.03,33.58c-0.39,0-0.78,0.07-1.16,0.21c-0.81,0.31-1.46,0.92-1.81,1.71
						c-0.36,0.79-0.38,1.68-0.07,2.49c0.31,0.81,0.92,1.46,1.71,1.81c1.64,0.73,3.57,0,4.31-1.64l0,0c0.36-0.79,0.38-1.68,0.07-2.49
						c-0.31-0.81-0.92-1.46-1.71-1.81C37.94,33.68,37.48,33.58,37.03,33.58z"/>
				</g>
			</g>
		</g>
	</g>
</g>
</svg>
