<?xml version="1.0" encoding="utf-8"?>
<!-- Generator: Adobe Illustrator 24.0.2, SVG Export Plug-In . SVG Version: 6.00 Build 0)  -->
<svg version="1.1" xmlns="http://www.w3.org/2000/svg" xmlns:xlink="http://www.w3.org/1999/xlink" x="0px" y="0px"
	 viewBox="0 0 47 47" style="enable-background:new 0 0 47 47;" xml:space="preserve">
<style type="text/css">
	.st0{display:none;}
	.st1{display:inline;fill:#9AA5AF;}
	.st2{fill:none;}
	.st3{fill:#19A500;}
	.st4{fill:#A1D005;}
	.st5{fill:#149352;}
	.st6{fill:none;stroke:#19A500;stroke-width:1.6;stroke-miterlimit:10;}
	.st7{fill:none;stroke:#95A6B1;stroke-width:1.6;stroke-linecap:round;stroke-linejoin:round;stroke-miterlimit:10;}
	.st8{fill:none;stroke:#95A6B1;stroke-width:1.65;stroke-linecap:round;stroke-linejoin:round;stroke-miterlimit:10;}
	.st9{fill:none;stroke:#95A6B1;stroke-width:4;stroke-linecap:round;stroke-linejoin:round;stroke-miterlimit:10;}
	.st10{fill:none;stroke:#EFEF00;stroke-width:1.2;stroke-miterlimit:10;}
	.st11{fill:none;stroke:#FFFFFF;stroke-width:1.1037;stroke-linecap:round;stroke-linejoin:round;stroke-miterlimit:10;}
	.st12{fill:none;stroke:#95A6B1;stroke-width:1.2;stroke-linecap:round;stroke-linejoin:round;stroke-miterlimit:10;}
	.st13{fill:none;stroke:#19A500;stroke-width:1.2;stroke-miterlimit:10;}
	.st14{fill:none;stroke:#EFEF00;stroke-width:1.6;stroke-miterlimit:10;}
	.st15{fill:none;stroke:#FFFFFF;stroke-width:1.6;stroke-linecap:round;stroke-linejoin:round;stroke-miterlimit:10;}
	.st16{fill:none;stroke:#95A6B1;stroke-width:1.2589;stroke-linecap:round;stroke-linejoin:round;stroke-miterlimit:10;}
	.st17{fill:none;stroke:#95A6B1;stroke-width:1.0718;stroke-linecap:round;stroke-linejoin:round;stroke-miterlimit:10;}
	.st18{fill:none;stroke:#95A6B1;stroke-width:1.2212;stroke-linecap:round;stroke-linejoin:round;stroke-miterlimit:10;}
	.st19{fill:none;stroke:#95A6B1;stroke-width:1.2408;stroke-linecap:round;stroke-linejoin:round;stroke-miterlimit:10;}
	.st20{fill:none;stroke:#95A6B1;stroke-width:1.2;stroke-linecap:round;stroke-linejoin:round;}
	.st21{fill:none;stroke:#95A6B1;stroke-width:1.2;stroke-linecap:round;stroke-linejoin:round;stroke-dasharray:1.6013,3.2026;}
	.st22{fill:none;stroke:#95A6B1;stroke-width:1.2;stroke-linecap:round;stroke-linejoin:round;stroke-dasharray:1.7413,3.4827;}
	.st23{fill:none;stroke:#95A6B1;stroke-width:1.2;stroke-linecap:round;stroke-linejoin:round;stroke-dasharray:2.056,4.112;}
	.st24{fill:none;stroke:#95A6B1;stroke-width:1.2275;stroke-linecap:round;stroke-linejoin:round;stroke-miterlimit:10;}
	.st25{fill:none;stroke:#95A6B1;stroke-width:1.2565;stroke-linecap:round;stroke-linejoin:round;stroke-miterlimit:10;}
	.st26{fill:none;stroke:#95A6B1;stroke-width:1.2892;stroke-linecap:round;stroke-linejoin:round;stroke-miterlimit:10;}
	.st27{fill:none;stroke:#95A6B1;stroke-width:1.3462;stroke-linecap:round;stroke-linejoin:round;stroke-miterlimit:10;}
	.st28{fill:none;stroke:#97A5AF;stroke-width:1.5;stroke-linecap:round;stroke-linejoin:round;}
	.st29{fill:none;stroke:#00A800;stroke-width:1.5;stroke-linecap:round;stroke-linejoin:round;stroke-miterlimit:10;}
	.st30{fill:none;stroke:#FFFFFF;stroke-width:1.5;stroke-linecap:round;stroke-linejoin:round;}
	.st31{fill:none;stroke:#FFFFFF;stroke-width:1.2878;stroke-linecap:round;stroke-linejoin:round;}
	.st32{fill:none;stroke:#FFFFFF;stroke-width:1.4332;stroke-linecap:round;stroke-linejoin:round;}
</style>
<g id="Capa_2" class="st0">
</g>
<g id="Capa_1">
	<rect y="-6.5" class="st2" width="60" height="60"/>
	<rect y="-6.5" class="st2" width="60" height="60"/>
	<g>
		<g>
			<path class="st28" d="M33.76,29.27H13.24v-1.76c0-0.93,0.75-1.68,1.68-1.68h17.16c0.93,0,1.68,0.75,1.68,1.68V29.27z"/>
			<polyline class="st28" points="23.3,19.91 19.44,19.91 19.44,25.83 27.56,25.83 27.56,23.19 			"/>
			<path class="st28" d="M22.27,19.91h-4.3c-0.63,0-1.14-0.51-1.14-1.14v-1.3c0-0.63,0.51-1.14,1.14-1.14h5.16"/>
			<polyline class="st28" points="26.05,13.53 26.05,9.45 20.95,9.45 20.95,16.33 23.32,16.33 			"/>
			<rect x="20.95" y="29.27" class="st28" width="5.09" height="3.16"/>
			<path class="st28" d="M38.57,7.65c0,0.99-0.81,1.8-1.8,1.8H10.22c-0.99,0-1.8-0.81-1.8-1.8V6.43c0-0.99,0.81-1.8,1.8-1.8h26.55
				c0.99,0,1.8,0.81,1.8,1.8V7.65z"/>
			<line class="st28" x1="20.95" y1="16.33" x2="14.23" y2="9.61"/>
			<line class="st28" x1="29.3" y1="13.11" x2="32.79" y2="9.61"/>
			<rect x="10.25" y="32.43" class="st28" width="26.49" height="8.52"/>
			<rect x="36.75" y="30.98" class="st28" width="4.59" height="11.39"/>
			<rect x="5.66" y="30.98" class="st28" width="4.59" height="11.39"/>
		</g>
		<path id="Trazado_5703_4_" class="st29" d="M31.37,18.12c0,1.82-1.47,3.29-3.29,3.29c-1.82,0-3.29-1.47-3.29-3.29
			c0-1.82,1.47-3.29,3.29-3.29c1.81-0.01,3.28,1.44,3.29,3.25C31.37,18.09,31.37,18.11,31.37,18.12z"/>
		<rect id="Rectángulo_3799-2_17_" class="st2" width="47" height="47"/>
	</g>
</g>
</svg>
