<?xml version="1.0" encoding="utf-8"?>
<!-- Generator: Adobe Illustrator 24.0.2, SVG Export Plug-In . SVG Version: 6.00 Build 0)  -->
<svg version="1.1" xmlns="http://www.w3.org/2000/svg" xmlns:xlink="http://www.w3.org/1999/xlink" x="0px" y="0px"
	 viewBox="0 0 47 47" style="enable-background:new 0 0 47 47;" xml:space="preserve">
<style type="text/css">
	.st0{display:none;}
	.st1{display:inline;fill:#9AA5AF;}
	.st2{fill:none;}
	.st3{fill:#19A500;}
	.st4{fill:#A1D005;}
	.st5{fill:#149352;}
	.st6{fill:none;stroke:#19A500;stroke-width:1.6;stroke-miterlimit:10;}
	.st7{fill:none;stroke:#95A6B1;stroke-width:1.6;stroke-linecap:round;stroke-linejoin:round;stroke-miterlimit:10;}
	.st8{fill:none;stroke:#95A6B1;stroke-width:1.65;stroke-linecap:round;stroke-linejoin:round;stroke-miterlimit:10;}
	.st9{fill:none;stroke:#95A6B1;stroke-width:4;stroke-linecap:round;stroke-linejoin:round;stroke-miterlimit:10;}
	.st10{fill:none;stroke:#EFEF00;stroke-width:1.2;stroke-miterlimit:10;}
	.st11{fill:none;stroke:#FFFFFF;stroke-width:1.1037;stroke-linecap:round;stroke-linejoin:round;stroke-miterlimit:10;}
	.st12{fill:none;stroke:#95A6B1;stroke-width:1.2;stroke-linecap:round;stroke-linejoin:round;stroke-miterlimit:10;}
	.st13{fill:none;stroke:#19A500;stroke-width:1.2;stroke-miterlimit:10;}
	.st14{fill:none;stroke:#EFEF00;stroke-width:1.6;stroke-miterlimit:10;}
	.st15{fill:none;stroke:#FFFFFF;stroke-width:1.6;stroke-linecap:round;stroke-linejoin:round;stroke-miterlimit:10;}
	.st16{fill:none;stroke:#95A6B1;stroke-width:1.2589;stroke-linecap:round;stroke-linejoin:round;stroke-miterlimit:10;}
	.st17{fill:none;stroke:#95A6B1;stroke-width:1.0718;stroke-linecap:round;stroke-linejoin:round;stroke-miterlimit:10;}
	.st18{fill:none;stroke:#95A6B1;stroke-width:1.2212;stroke-linecap:round;stroke-linejoin:round;stroke-miterlimit:10;}
	.st19{fill:none;stroke:#95A6B1;stroke-width:1.2408;stroke-linecap:round;stroke-linejoin:round;stroke-miterlimit:10;}
	.st20{fill:none;stroke:#95A6B1;stroke-width:1.2;stroke-linecap:round;stroke-linejoin:round;}
	.st21{fill:none;stroke:#95A6B1;stroke-width:1.2;stroke-linecap:round;stroke-linejoin:round;stroke-dasharray:1.6013,3.2026;}
	.st22{fill:none;stroke:#95A6B1;stroke-width:1.2;stroke-linecap:round;stroke-linejoin:round;stroke-dasharray:1.7413,3.4827;}
	.st23{fill:none;stroke:#95A6B1;stroke-width:1.2;stroke-linecap:round;stroke-linejoin:round;stroke-dasharray:2.056,4.112;}
	.st24{fill:none;stroke:#95A6B1;stroke-width:1.2275;stroke-linecap:round;stroke-linejoin:round;stroke-miterlimit:10;}
	.st25{fill:none;stroke:#95A6B1;stroke-width:1.2565;stroke-linecap:round;stroke-linejoin:round;stroke-miterlimit:10;}
	.st26{fill:none;stroke:#95A6B1;stroke-width:1.2892;stroke-linecap:round;stroke-linejoin:round;stroke-miterlimit:10;}
	.st27{fill:none;stroke:#95A6B1;stroke-width:1.3462;stroke-linecap:round;stroke-linejoin:round;stroke-miterlimit:10;}
	.st28{fill:none;stroke:#97A5AF;stroke-width:1.5;stroke-linecap:round;stroke-linejoin:round;}
	.st29{fill:none;stroke:#00A800;stroke-width:1.5;stroke-linecap:round;stroke-linejoin:round;stroke-miterlimit:10;}
	.st30{fill:none;stroke:#FFFFFF;stroke-width:1.5;stroke-linecap:round;stroke-linejoin:round;}
	.st31{fill:none;stroke:#FFFFFF;stroke-width:1.2878;stroke-linecap:round;stroke-linejoin:round;}
	.st32{fill:none;stroke:#FFFFFF;stroke-width:1.4332;stroke-linecap:round;stroke-linejoin:round;}
</style>
<g id="Capa_2" class="st0">
	<rect x="-3.47" y="-4.1" class="st1" width="55.38" height="55.38"/>
</g>
<g id="Capa_1">
	<g>
		<rect id="Rectángulo_4850_1_" class="st2" width="47" height="47"/>
		<g id="Grupo_12873_1_" transform="translate(11.496 4.703)">
			<line id="Línea_2131_1_" class="st30" x1="18.94" y1="33.52" x2="18.94" y2="37.59"/>
			<line id="Línea_2132_3_" class="st30" x1="16.94" y1="23.16" x2="16.94" y2="28.39"/>
			<line id="Línea_2132_1_" class="st30" x1="16.94" y1="0" x2="16.94" y2="5.17"/>
			<line id="Línea_2133_1_" class="st30" x1="7.58" y1="33.52" x2="7.58" y2="37.59"/>
			<line id="Línea_2134_1_" class="st30" x1="9.58" y1="0" x2="9.58" y2="4.99"/>
			<line id="Línea_2135_1_" class="st30" x1="9.58" y1="23.33" x2="9.58" y2="28.39"/>
			<rect id="Rectángulo_4525_1_" x="4.55" y="28.4" class="st30" width="17.43" height="5.13"/>
			<circle id="Elipse_2117_2_" class="st31" cx="13.23" cy="14.2" r="1.32"/>
			<path class="st32" d="M6.43,7.12c1.72-1.6,4.03-2.58,6.57-2.58c5.33,0,9.66,4.32,9.66,9.66s-4.32,9.66-9.66,9.66
				c-4.23,0-7.83-2.72-9.14-6.51"/>
			<line class="st31" x1="13.23" y1="12.88" x2="13.23" y2="7.78"/>
			<line class="st31" x1="14.42" y1="15.05" x2="18.34" y2="17.84"/>
			<line class="st31" x1="12.15" y1="15.05" x2="7.93" y2="18.05"/>
			<path class="st31" d="M8.69,9.49c1.15-1.06,2.68-1.72,4.37-1.72c3.54,0,6.42,2.87,6.42,6.42s-2.87,6.42-6.42,6.42
				c-2.81,0-5.2-1.81-6.07-4.33"/>
			<circle id="Elipse_2123_1_" class="st30" cx="4.79" cy="12.14" r="2.76"/>
			<path class="st32" d="M6.86,6.73c1.82-1.5,4.18-2.34,6.71-2.19c5.33,0.31,9.39,4.89,9.07,10.21c-0.31,5.33-4.89,9.39-10.21,9.07
				c-4.23-0.25-7.66-3.18-8.74-7.04"/>
			<path class="st32" d="M6.86,6.73c1.82-1.5,4.18-2.34,6.71-2.19c5.33,0.31,9.39,4.89,9.07,10.21c-0.31,5.33-4.89,9.39-10.21,9.07
				c-4.23-0.25-7.66-3.18-8.74-7.04"/>
			<path class="st32" d="M6.13,7.42c1.65-1.67,3.92-2.75,6.46-2.86c5.33-0.23,9.84,3.9,10.07,9.23c0.23,5.33-3.9,9.84-9.23,10.07
				c-4.23,0.18-7.94-2.38-9.41-6.11"/>
		</g>
	</g>
</g>
</svg>
