<svg xmlns="http://www.w3.org/2000/svg" width="60" height="212.28" viewBox="0 0 60 212.28">
  <g id="Grupo_18299" data-name="Grupo 18299" transform="translate(-1053 -1936.815)">
    <g id="Capa_1" transform="translate(1053 1943.315)">
      <rect id="Rectángulo_5514" data-name="Rectángulo 5514" width="60" height="60" transform="translate(0 -6.5)" fill="none"/>
      <rect id="Rectángulo_5515" data-name="Rectángulo 5515" width="60" height="60" transform="translate(0 -6.5)" fill="none"/>
      <g id="Grupo_18298" data-name="Grupo 18298">
        <g id="Grupo_18297" data-name="Grupo 18297">
          <path id="Trazado_18872" data-name="Trazado 18872" d="M33.76,29.27H13.24V27.51a1.677,1.677,0,0,1,1.68-1.68H32.08a1.677,1.677,0,0,1,1.68,1.68v1.76Z" fill="none" stroke="#97a5af" stroke-linecap="round" stroke-linejoin="round" stroke-width="1.5"/>
          <path id="Trazado_18873" data-name="Trazado 18873" d="M23.3,19.91H19.44v5.92h8.12V23.19" fill="none" stroke="#97a5af" stroke-linecap="round" stroke-linejoin="round" stroke-width="1.5"/>
          <path id="Trazado_18874" data-name="Trazado 18874" d="M22.27,19.91h-4.3a1.139,1.139,0,0,1-1.14-1.14v-1.3a1.139,1.139,0,0,1,1.14-1.14h5.16" fill="none" stroke="#97a5af" stroke-linecap="round" stroke-linejoin="round" stroke-width="1.5"/>
          <path id="Trazado_18875" data-name="Trazado 18875" d="M26.05,13.53V9.45h-5.1v6.88h2.37" fill="none" stroke="#97a5af" stroke-linecap="round" stroke-linejoin="round" stroke-width="1.5"/>
          <rect id="Rectángulo_5516" data-name="Rectángulo 5516" width="5.09" height="3.16" transform="translate(20.95 29.27)" fill="none" stroke="#97a5af" stroke-linecap="round" stroke-linejoin="round" stroke-width="1.5"/>
          <path id="Trazado_18876" data-name="Trazado 18876" d="M38.57,7.65a1.805,1.805,0,0,1-1.8,1.8H10.22a1.805,1.805,0,0,1-1.8-1.8V6.43a1.805,1.805,0,0,1,1.8-1.8H36.77a1.805,1.805,0,0,1,1.8,1.8Z" fill="none" stroke="#97a5af" stroke-linecap="round" stroke-linejoin="round" stroke-width="1.5"/>
          <line id="Línea_3632" data-name="Línea 3632" x1="6.72" y1="6.72" transform="translate(14.23 9.61)" fill="none" stroke="#97a5af" stroke-linecap="round" stroke-linejoin="round" stroke-width="1.5"/>
          <line id="Línea_3633" data-name="Línea 3633" y1="3.5" x2="3.49" transform="translate(29.3 9.61)" fill="none" stroke="#97a5af" stroke-linecap="round" stroke-linejoin="round" stroke-width="1.5"/>
          <rect id="Rectángulo_5517" data-name="Rectángulo 5517" width="26.49" height="8.52" transform="translate(10.25 32.43)" fill="none" stroke="#97a5af" stroke-linecap="round" stroke-linejoin="round" stroke-width="1.5"/>
          <rect id="Rectángulo_5518" data-name="Rectángulo 5518" width="4.59" height="11.39" transform="translate(36.75 30.98)" fill="none" stroke="#97a5af" stroke-linecap="round" stroke-linejoin="round" stroke-width="1.5"/>
          <rect id="Rectángulo_5519" data-name="Rectángulo 5519" width="4.59" height="11.39" transform="translate(5.66 30.98)" fill="none" stroke="#97a5af" stroke-linecap="round" stroke-linejoin="round" stroke-width="1.5"/>
        </g>
        <path id="Trazado_5703_4_" d="M31.37,18.12a3.27,3.27,0,1,1,0-.04C31.37,18.09,31.37,18.11,31.37,18.12Z" fill="none" stroke="#00a800" stroke-linecap="round" stroke-linejoin="round" stroke-miterlimit="10" stroke-width="1.5"/>
        <rect id="Rectángulo_3799-2_17_" width="47" height="47" fill="none"/>
      </g>
    </g>
    <path id="Trazado_18868" data-name="Trazado 18868" d="M0,0H150" transform="translate(1077.499 2140.858) rotate(-90)" fill="none" stroke="#505d6c" stroke-width="1" stroke-dasharray="4"/>
    <g id="Trazado_18869" data-name="Trazado 18869" transform="translate(1072.778 2003.96)" fill="#fff">
      <path d="M 4.5 8 C 2.570090055465698 8 1 6.429910182952881 1 4.5 C 1 2.570090055465698 2.570090055465698 1 4.5 1 C 6.429910182952881 1 8 2.570090055465698 8 4.5 C 8 5.237659931182861 7.764450073242188 5.91195011138916 7.236249923706055 6.68632984161377 L 7.231080055236816 6.693910121917725 L 7.226049900054932 6.701580047607422 C 6.816100120544434 7.326940059661865 5.788169860839844 8 4.5 8 Z" stroke="none"/>
      <path d="M 4.5 2 C 3.121500015258789 2 2 3.121500015258789 2 4.5 C 2 5.878499984741211 3.121500015258789 7 4.5 7 C 5.472350120544434 7 6.175139904022217 6.480679988861084 6.389729976654053 6.153340339660645 L 6.410130023956299 6.122829914093018 C 6.929920196533203 5.360790252685547 7 4.874849796295166 7 4.5 C 7 3.121500015258789 5.878499984741211 2 4.5 2 M 4.5 0 C 6.98528003692627 0 9 2.01471996307373 9 4.5 C 9 5.424520015716553 8.721199989318848 6.283929824829102 8.062370300292969 7.249819755554199 C 7.435930252075195 8.205430030822754 6.060760021209717 9 4.5 9 C 2.01471996307373 9 0 6.98528003692627 0 4.5 C 0 2.01471996307373 2.01471996307373 0 4.5 0 Z" stroke="none" fill="#00af00"/>
    </g>
    <g id="Trazado_18870" data-name="Trazado 18870" transform="translate(1072.778 2140.096)" fill="#fff">
      <path d="M 4.5 8 C 2.570090055465698 8 1 6.429910182952881 1 4.5 C 1 2.570090055465698 2.570090055465698 1 4.5 1 C 6.429910182952881 1 8 2.570090055465698 8 4.5 C 8 5.237659931182861 7.764450073242188 5.91195011138916 7.236249923706055 6.68632984161377 L 7.231080055236816 6.693910121917725 L 7.226049900054932 6.701580047607422 C 6.816100120544434 7.326940059661865 5.788169860839844 8 4.5 8 Z" stroke="none"/>
      <path d="M 4.5 2 C 3.121500015258789 2 2 3.121500015258789 2 4.5 C 2 5.878499984741211 3.121500015258789 7 4.5 7 C 5.472350120544434 7 6.175139904022217 6.480679988861084 6.389729976654053 6.153340339660645 L 6.410130023956299 6.122829914093018 C 6.929920196533203 5.360790252685547 7 4.874849796295166 7 4.5 C 7 3.121500015258789 5.878499984741211 2 4.5 2 M 4.5 0 C 6.98528003692627 0 9 2.01471996307373 9 4.5 C 9 5.424520015716553 8.721199989318848 6.283929824829102 8.062370300292969 7.249819755554199 C 7.435930252075195 8.205430030822754 6.060760021209717 9 4.5 9 C 2.01471996307373 9 0 6.98528003692627 0 4.5 C 0 2.01471996307373 2.01471996307373 0 4.5 0 Z" stroke="none" fill="#00af00"/>
    </g>
  </g>
</svg>
