<svg xmlns="http://www.w3.org/2000/svg" width="47.173" height="207.769" viewBox="0 0 47.173 207.769">
  <g id="Grupo_18297" data-name="Grupo 18297" transform="translate(-1053 -1941.326)">
    <g id="Grupo_15261" data-name="Grupo 15261" transform="translate(1053.087 1941.413)">
      <g id="Grupo_15275" data-name="Grupo 15275">
        <rect id="Rectángulo_3799-2" data-name="Rectángulo 3799-2" width="47.173" height="47.173" transform="translate(-0.087 -0.087)" fill="none"/>
        <g id="Grupo_15274" data-name="Grupo 15274">
          <g id="Grupo_15272" data-name="Grupo 15272">
            <g id="Grupo_15271" data-name="Grupo 15271">
              <line id="Línea_2934" data-name="Línea 2934" x1="2.483" transform="translate(8.246 25.349)" fill="none" stroke="#97a5af" stroke-linecap="round" stroke-linejoin="round" stroke-width="1.5"/>
              <line id="Línea_2935" data-name="Línea 2935" x1="2.462" transform="translate(14.258 25.349)" fill="none" stroke="#97a5af" stroke-linecap="round" stroke-linejoin="round" stroke-width="1.5"/>
              <path id="Trazado_12607" data-name="Trazado 12607" d="M17.91,20.129a.93.93,0,0,0-.79-1.024H7.867a.93.93,0,0,0-.79,1.024v.24a.93.93,0,0,0,.79,1.024H17.12a.93.93,0,0,0,.79-1.024Z" fill="none" stroke="#97a5af" stroke-linecap="round" stroke-linejoin="round" stroke-width="1.5"/>
              <line id="Línea_2936" data-name="Línea 2936" x1="4.553" transform="translate(6.176 29.481)" fill="none" stroke="#97a5af" stroke-linecap="round" stroke-linejoin="round" stroke-width="1.5"/>
              <path id="Trazado_12608" data-name="Trazado 12608" d="M14.258,35.372h5.325v-6.01H14.258" fill="none" stroke="#97a5af" stroke-linecap="round" stroke-linejoin="round" stroke-width="1.5"/>
              <line id="Línea_2937" data-name="Línea 2937" x2="4.965" transform="translate(5.764 35.252)" fill="none" stroke="#97a5af" stroke-linecap="round" stroke-linejoin="round" stroke-width="1.5"/>
              <rect id="Rectángulo_5185" data-name="Rectángulo 5185" width="2.132" height="9.132" transform="translate(3.563 27.801)" fill="none" stroke="#97a5af" stroke-linecap="round" stroke-linejoin="round" stroke-width="1.5"/>
              <rect id="Rectángulo_5186" data-name="Rectángulo 5186" width="3.529" height="15.741" transform="translate(10.729 21.411)" fill="none" stroke="#97a5af" stroke-linecap="round" stroke-linejoin="round" stroke-width="1.5"/>
            </g>
          </g>
          <g id="Grupo_15273" data-name="Grupo 15273">
            <path id="Trazado_12609" data-name="Trazado 12609" d="M19.582,30.98v9.588H40.546V30.98" fill="none" stroke="#97a5af" stroke-linecap="round" stroke-linejoin="round" stroke-width="1.5"/>
            <path id="Trazado_12610" data-name="Trazado 12610" d="M22.537,25.459H19.582V30.98" fill="none" stroke="#97a5af" stroke-linecap="round" stroke-linejoin="round" stroke-width="1.5"/>
            <path id="Trazado_12611" data-name="Trazado 12611" d="M40.546,30.98V25.459h-3.9" fill="none" stroke="#97a5af" stroke-linecap="round" stroke-linejoin="round" stroke-width="1.5"/>
            <path id="Trazado_12612" data-name="Trazado 12612" d="M36.649,10.138V8.3a1.869,1.869,0,0,1,1.869-1.87h3.049a1.87,1.87,0,0,1,1.87,1.87V37.545H40.546l-2.62-4.676a2.067,2.067,0,0,0-1.6-.765H19.582" fill="none" stroke="#97a5af" stroke-linecap="round" stroke-linejoin="round" stroke-width="1.5"/>
            <path id="Trazado_12613" data-name="Trazado 12613" d="M22.537,25.719V27.5a.722.722,0,0,0,.722.722h1.517A.722.722,0,0,0,25.5,27.5V23.441a.722.722,0,0,1,.722-.722h1.344a.722.722,0,0,1,.722.722V27.5a.722.722,0,0,0,.722.722h1.518a.723.723,0,0,0,.722-.722V23.441a.722.722,0,0,1,.722-.722h1a.722.722,0,0,1,.722.722V27.5a.722.722,0,0,0,.722.722h1.518a.723.723,0,0,0,.722-.722V21.244" fill="none" stroke="#97a5af" stroke-linecap="round" stroke-linejoin="round" stroke-width="1.5"/>
            <circle id="Elipse_2464" data-name="Elipse 2464" cx="1.213" cy="1.213" r="1.213" transform="translate(22.815 35.774)" fill="none" stroke="#97a5af" stroke-linecap="round" stroke-linejoin="round" stroke-width="1.5"/>
            <circle id="Elipse_2465" data-name="Elipse 2465" cx="1.213" cy="1.213" r="1.213" transform="translate(28.303 35.774)" fill="none" stroke="#97a5af" stroke-linecap="round" stroke-linejoin="round" stroke-width="1.5"/>
          </g>
        </g>
      </g>
      <path id="Trazado_11848" data-name="Trazado 11848" d="M39.69,15.467a3.042,3.042,0,1,1-3.041-3.041h0a3.029,3.029,0,0,1,3.041,3.018Z" fill="none" stroke="#19a500" stroke-linecap="round" stroke-linejoin="round" stroke-width="1.5"/>
    </g>
    <path id="Trazado_18868" data-name="Trazado 18868" d="M0,0H150" transform="translate(1077.499 2140.858) rotate(-90)" fill="none" stroke="#505d6c" stroke-width="1" stroke-dasharray="4"/>
    <g id="Trazado_18869" data-name="Trazado 18869" transform="translate(1072.778 2003.96)" fill="#fff">
      <path d="M 4.5 8 C 2.570090055465698 8 1 6.429910182952881 1 4.5 C 1 2.570090055465698 2.570090055465698 1 4.5 1 C 6.429910182952881 1 8 2.570090055465698 8 4.5 C 8 5.237659931182861 7.764450073242188 5.91195011138916 7.236249923706055 6.68632984161377 L 7.231080055236816 6.693910121917725 L 7.226049900054932 6.701580047607422 C 6.816100120544434 7.326940059661865 5.788169860839844 8 4.5 8 Z" stroke="none"/>
      <path d="M 4.5 2 C 3.121500015258789 2 2 3.121500015258789 2 4.5 C 2 5.878499984741211 3.121500015258789 7 4.5 7 C 5.472350120544434 7 6.175139904022217 6.480679988861084 6.389729976654053 6.153340339660645 L 6.399789810180664 6.13798999786377 L 6.410130023956299 6.122829914093018 C 6.929920196533203 5.360790252685547 7 4.874849796295166 7 4.5 C 7 3.121500015258789 5.878499984741211 2 4.5 2 M 4.5 0 C 6.98528003692627 0 9 2.01471996307373 9 4.5 C 9 5.424520015716553 8.721199989318848 6.283929824829102 8.062370300292969 7.249819755554199 C 7.435930252075195 8.205430030822754 6.060760021209717 9 4.5 9 C 2.01471996307373 9 0 6.98528003692627 0 4.5 C 0 2.01471996307373 2.01471996307373 0 4.5 0 Z" stroke="none" fill="#00af00"/>
    </g>
    <g id="Trazado_18870" data-name="Trazado 18870" transform="translate(1072.778 2140.096)" fill="#fff">
      <path d="M 4.5 8 C 2.570090055465698 8 1 6.429910182952881 1 4.5 C 1 2.570090055465698 2.570090055465698 1 4.5 1 C 6.429910182952881 1 8 2.570090055465698 8 4.5 C 8 5.237659931182861 7.764450073242188 5.91195011138916 7.236249923706055 6.68632984161377 L 7.231080055236816 6.693910121917725 L 7.226049900054932 6.701580047607422 C 6.816100120544434 7.326940059661865 5.788169860839844 8 4.5 8 Z" stroke="none"/>
      <path d="M 4.5 2 C 3.121500015258789 2 2 3.121500015258789 2 4.5 C 2 5.878499984741211 3.121500015258789 7 4.5 7 C 5.472350120544434 7 6.175139904022217 6.480679988861084 6.389729976654053 6.153340339660645 L 6.399789810180664 6.13798999786377 L 6.410130023956299 6.122829914093018 C 6.929920196533203 5.360790252685547 7 4.874849796295166 7 4.5 C 7 3.121500015258789 5.878499984741211 2 4.5 2 M 4.5 0 C 6.98528003692627 0 9 2.01471996307373 9 4.5 C 9 5.424520015716553 8.721199989318848 6.283929824829102 8.062370300292969 7.249819755554199 C 7.435930252075195 8.205430030822754 6.060760021209717 9 4.5 9 C 2.01471996307373 9 0 6.98528003692627 0 4.5 C 0 2.01471996307373 2.01471996307373 0 4.5 0 Z" stroke="none" fill="#00af00"/>
    </g>
  </g>
</svg>
