<?xml version="1.0" encoding="utf-8"?>
<!-- Generator: Adobe Illustrator 24.0.2, SVG Export Plug-In . SVG Version: 6.00 Build 0)  -->
<svg version="1.1" xmlns="http://www.w3.org/2000/svg" xmlns:xlink="http://www.w3.org/1999/xlink" x="0px" y="0px"
	 viewBox="0 0 49 49" style="enable-background:new 0 0 49 49;" xml:space="preserve">
<style type="text/css">
	.st0{display:none;}
	.st1{display:inline;fill:#19A500;}
	.st2{fill:none;stroke:#FFFFFF;stroke-width:1.5663;stroke-linecap:round;stroke-linejoin:round;}
	.st3{fill:none;stroke:#FFFFFF;stroke-width:1.6556;stroke-linecap:round;stroke-linejoin:round;}
	.st4{fill:none;stroke:#FFFFFF;stroke-width:1.4449;stroke-linecap:round;stroke-linejoin:round;}
</style>
<g id="Capa_2" class="st0">
	<rect x="-1.34" y="-1.78" class="st1" width="51.67" height="52.55"/>
</g>
<g id="Capa_1">
	<g id="Grupo_10332_3_" transform="translate(142 476.052)">
		<ellipse id="Elipse_1636_3_" class="st2" cx="-117.5" cy="-451.55" rx="23.5" ry="23.5"/>
		<g>
			<path class="st3" d="M-136.08-437.17c3.34-1.27,8.13-2.22,11.2-4.22c1.34-0.88,2.24-2.22,1.99-4.03
				c-0.17-1.21-1.59-2.36-1.72-3.57c-0.36-3.25,4.65-4.05,8.61-5.02c1.52,0,3.04,0,4.55,0c-1.89,0-4.43,2.24-4.55,3.83
				c-0.13,1.76,2.41,2.81,3.93,3.24c1.73,0.49,3.51,0.77,5.2,1.36c3.77,1.3,6.56,4.84,6.92,8.84"/>
		</g>
	</g>
	<g>
		<path class="st2" d="M23.07,32.84c1.98,0,1.98,2,3.97,2c1.99,0,1.99-2,3.98-2s1.99,2,3.98,2"/>
	</g>
	<g>
		<path class="st2" d="M15.26,38.77c1.89,0,1.89,2,3.78,2c1.89,0,1.89-2,3.78-2c1.89,0,1.89,2,3.78,2c1.89,0,1.89-2,3.79-2
			s1.89,2,3.79,2"/>
	</g>
	<line class="st2" x1="39.97" y1="22.05" x2="30.55" y2="22.05"/>
	<circle class="st2" cx="10.44" cy="28.08" r="3.14"/>
	<line class="st2" x1="10.44" y1="31.22" x2="10.44" y2="36.74"/>
	<circle class="st2" cx="35.62" cy="15.55" r="2.36"/>
	<line class="st2" x1="35.62" y1="17.91" x2="35.62" y2="22.05"/>
	<polyline class="st2" points="5.92,10.23 17.31,14.93 21.2,23.29 	"/>
	<polyline class="st2" points="26,22.05 29.64,8.88 37.03,4.62 	"/>
</g>
</svg>
