<?xml version="1.0" encoding="utf-8"?>
<!-- Generator: Adobe Illustrator 24.0.2, SVG Export Plug-In . SVG Version: 6.00 Build 0)  -->
<svg version="1.1" id="Layer_1" xmlns="http://www.w3.org/2000/svg" xmlns:xlink="http://www.w3.org/1999/xlink" x="0px" y="0px"
	 viewBox="0 0 130 120" style="enable-background:new 0 0 130 120;" xml:space="preserve">
<style type="text/css">
	.st0{display:none;}
	.st1{display:inline;fill:#53BA3A;}
	.st2{fill:none;}
	.st3{fill:none;stroke:#FFFFFF;stroke-width:3;stroke-linecap:round;stroke-linejoin:round;}
</style>
<g id="Capa_1" class="st0">
	<rect x="-0.1" class="st1" width="130.1" height="120"/>
</g>
<g id="Capa_3">
	<g>
		<circle id="Elipse_2314_1_" class="st2" cx="46.7" cy="108.2" r="1.9"/>
	</g>
	<path class="st3" d="M24.2,82.9l-1.6-6.3c-0.1-0.4,0.1-0.9,0.5-1.2l10.1-5.8c0.1-0.1,0.2-0.1,0.2-0.2l7.3-7.8c0,0,0,0,0.1-0.1
		l7.4-6.5c0.3-0.3,0.5-0.8,0.2-1.2l-3-6.3c-0.1-0.2-0.1-0.3-0.1-0.5l0.9-12.9c0-0.2,0.1-0.3,0.2-0.5l5.3-8.8
		c0.1-0.2,0.2-0.5,0.1-0.8l-1.7-6.8l-2.2-8.3c-0.1-0.3,0-0.6,0.2-0.9l2.8-4.1c0.5-0.6,1.4-0.6,1.8,0.1l4,8.2c0,0.1,0.1,0.2,0.1,0.3
		l0.9,7.3c0,0.4,0.3,0.6,0.6,0.8l4,1.9c0.2,0.1,0.4,0.3,0.5,0.5l2.7,5.6c0.2,0.3,0.4,0.5,0.8,0.6L76,31c0.5,0.1,1-0.2,1.1-0.7
		l0.9-2.6c0.1-0.4,0.5-0.7,1-0.7l9.5,0.2c0.6,0,1,0.5,1,1v3.1c0,0.4,0.2,0.7,0.5,0.9l3.3,2c0.2,0.1,0.3,0.3,0.4,0.5l2.7,7
		c0.1,0.2,0.1,0.4,0,0.6l-0.8,3.5c-0.1,0.2,0,0.4,0,0.6l2.3,6.6c0.1,0.2,0.2,0.4,0.4,0.5l5,3.5c0.2,0.2,0.5,0.2,0.8,0.2l4.8-0.8
		c0.5-0.1,0.9,0.2,1.1,0.6l1.9,4.6c0.1,0.1,0.1,0.3,0.1,0.4v10.5c0,0.1,0,0.1,0,0.2l-1.2,6.4c-0.1,0.3-0.2,0.6-0.5,0.7l-4.3,2.3
		c-0.4,0.2-0.9,0.1-1.3-0.2l-4.5-5.2c-0.4-0.5-1.1-0.5-1.5,0l-0.3,0.3c-0.3,0.3-0.3,0.9-0.1,1.3l2.7,4c0.1,0.2,0.2,0.3,0.2,0.6
		l0.2,5.6c0,0.2-0.1,0.5-0.2,0.6l-4.6,6.3c0,0,0,0.1-0.1,0.1l-7.8,8.5c-0.2,0.2-0.6,0.4-0.9,0.3l-6.9-0.8c-0.3,0-0.7,0.1-0.9,0.4
		L71.3,114c-0.4,0.5-1.1,0.5-1.5,0l-2-2.1c-0.3-0.3-0.4-0.8-0.2-1.2l3.4-6.3c0.2-0.4,0.1-0.9-0.2-1.2l-4.2-4.2
		c-0.5-0.5-1.2-0.4-1.6,0.2l-5.2,8.3c-0.1,0.1-0.1,0.3-0.2,0.4l-0.9,7.1c-0.1,0.9-1.2,1.2-1.8,0.6l-1.4-1.5
		c-0.3-0.3-0.9-0.4-1.3-0.2l-3.5,2.1c-0.2,0.1-0.4,0.2-0.6,0.1l-7.1-0.7c-0.2,0-0.5-0.1-0.7-0.3l-4-4.3c0,0-0.1-0.1-0.1-0.1
		l-2.6-1.8c-0.5-0.4-1.3-0.2-1.6,0.4l-0.5,1.1c-0.1,0.2-0.2,0.4-0.4,0.5l-1.5,0.9c-0.2,0.1-0.3,0.2-0.5,0.2h-0.9
		c-0.5,0-1.3-0.9-1.3-1.4l-0.1-0.8c0-0.3,0.1-0.6,0.2-0.8l1-1.2c0.1-0.1,0.2-0.2,0.2-0.4l0.9-2.8c0.1-0.3,0-0.5-0.1-0.8l-2.1-3.9
		c-0.2-0.4-0.8-0.7-1.2-0.5l-3.5,1.2c-0.4,0.1-0.8,0-1.1-0.3l-3.4-4c-0.1-0.1-0.1-0.2-0.2-0.3L18,90.8c-0.1-0.4,0-0.8,0.2-1.1
		l5.8-5.8C24.2,83.7,24.3,83.3,24.2,82.9z"/>
</g>
</svg>
