<svg xmlns="http://www.w3.org/2000/svg" width="168.566" height="48.566" viewBox="0 0 168.566 48.566">
  <g id="Grupo_15204" data-name="Grupo 15204" transform="translate(-191.217 -474.217)">
    <g id="Grupo_17141" data-name="Grupo 17141" transform="translate(251 474)">
      <g id="Grupo_10332" data-name="Grupo 10332">
        <circle id="Elipse_1636" data-name="Elipse 1636" cx="23.5" cy="23.5" r="23.5" transform="translate(1 1)" fill="none" stroke="#fff" stroke-linecap="round" stroke-linejoin="round" stroke-width="1.566"/>
        <g id="Grupo_17141-2" data-name="Grupo 17141">
          <path id="Trazado_17890" data-name="Trazado 17890" d="M5.921,38.884c3.337-1.272,8.134-2.216,11.2-4.216a4,4,0,0,0,1.99-4.026c-.167-1.207-1.59-2.357-1.724-3.569-.359-3.249,4.647-4.045,8.612-5.023h4.553c-1.893,0-3.025,2.515-3.143,4.1-.132,1.761.995,2.535,2.523,2.967,1.726.488,3.509.772,5.2,1.358a10.484,10.484,0,0,1,6.916,8.84" fill="none" stroke="#fff" stroke-linecap="round" stroke-linejoin="round" stroke-width="1.656"/>
        </g>
      </g>
      <g id="Grupo_17142" data-name="Grupo 17142">
        <path id="Trazado_17891" data-name="Trazado 17891" d="M23.069,32.837c1.985,0,1.985,2,3.97,2s1.988-2,3.976-2,1.989,2,3.977,2" fill="none" stroke="#fff" stroke-linecap="round" stroke-linejoin="round" stroke-width="1.566"/>
      </g>
      <g id="Grupo_17143" data-name="Grupo 17143">
        <path id="Trazado_17892" data-name="Trazado 17892" d="M15.257,38.773c1.89,0,1.89,2,3.781,2s1.891-2,3.781-2,1.892,2,3.783,2,1.894-2,3.789-2,1.894,2,3.788,2" fill="none" stroke="#fff" stroke-linecap="round" stroke-linejoin="round" stroke-width="1.566"/>
      </g>
      <line id="Línea_3586" data-name="Línea 3586" x1="9.425" transform="translate(30.549 22.05)" fill="none" stroke="#fff" stroke-linecap="round" stroke-linejoin="round" stroke-width="1.566"/>
      <circle id="Elipse_2611" data-name="Elipse 2611" cx="3.14" cy="3.14" r="3.14" transform="translate(7.298 24.935)" fill="none" stroke="#fff" stroke-linecap="round" stroke-linejoin="round" stroke-width="1.566"/>
      <line id="Línea_3587" data-name="Línea 3587" y2="5.523" transform="translate(10.439 31.215)" fill="none" stroke="#fff" stroke-linecap="round" stroke-linejoin="round" stroke-width="1.566"/>
      <circle id="Elipse_2612" data-name="Elipse 2612" cx="2.356" cy="2.356" r="2.356" transform="translate(33.262 13.193)" fill="none" stroke="#fff" stroke-linecap="round" stroke-linejoin="round" stroke-width="1.566"/>
      <line id="Línea_3588" data-name="Línea 3588" y2="4.144" transform="translate(35.618 17.906)" fill="none" stroke="#fff" stroke-linecap="round" stroke-linejoin="round" stroke-width="1.566"/>
      <path id="Trazado_17893" data-name="Trazado 17893" d="M5.921,10.234l11.384,4.692,3.9,8.364" fill="none" stroke="#fff" stroke-linecap="round" stroke-linejoin="round" stroke-width="1.566"/>
      <path id="Trazado_17894" data-name="Trazado 17894" d="M26,22.05,29.642,8.883,37.03,4.621" fill="none" stroke="#fff" stroke-linecap="round" stroke-linejoin="round" stroke-width="1.566"/>
    </g>
    <g id="Grupo_10332-2" data-name="Grupo 10332" transform="translate(191 474)">
      <circle id="Elipse_1636-2" data-name="Elipse 1636" cx="23.5" cy="23.5" r="23.5" transform="translate(1 1)" fill="none" stroke="#fff" stroke-linecap="round" stroke-linejoin="round" stroke-width="1.566"/>
      <g id="Grupo_17168" data-name="Grupo 17168">
        <g id="Grupo_17161" data-name="Grupo 17161">
          <g id="Grupo_17160" data-name="Grupo 17160">
            <line id="Línea_3590" data-name="Línea 3590" x1="20.274" transform="translate(14.741 41.013)" fill="none" stroke="#fff" stroke-linecap="round" stroke-linejoin="round" stroke-width="1.566"/>
            <path id="Trazado_17922" data-name="Trazado 17922" d="M25.5,37.655,14.741,35.874a3.879,3.879,0,0,0-.931,2.631,3.389,3.389,0,0,0,.931,2.508" fill="none" stroke="#fff" stroke-linecap="round" stroke-linejoin="round" stroke-width="1.566"/>
            <path id="Trazado_17923" data-name="Trazado 17923" d="M35.015,41.013c.724-2.411-1.034-3.019-1.034-3.019L26.43,34.787l-1.3,4.259v1.762" fill="none" stroke="#fff" stroke-linecap="round" stroke-linejoin="round" stroke-width="1.566"/>
          </g>
        </g>
        <g id="Grupo_17167" data-name="Grupo 17167">
          <g id="Grupo_17165" data-name="Grupo 17165">
            <g id="Grupo_17164" data-name="Grupo 17164">
              <path id="Trazado_17924" data-name="Trazado 17924" d="M34.882,38.763a6.377,6.377,0,0,0,3.108-1.411L34.7,17.229H14.481L11.01,37.357a23.1,23.1,0,0,0,2.815,1.1" fill="none" stroke="#fff" stroke-linecap="round" stroke-linejoin="round" stroke-width="1.566"/>
              <path id="Rectángulo_5389" data-name="Rectángulo 5389" d="M7.509,0h.023a7.509,7.509,0,0,1,7.509,7.509v3.737a0,0,0,0,1,0,0H0a0,0,0,0,1,0,0V7.509A7.509,7.509,0,0,1,7.509,0Z" transform="translate(16.98 5.983)" fill="none" stroke="#fff" stroke-linecap="round" stroke-linejoin="round" stroke-width="1.445"/>
              <path id="Trazado_17925" data-name="Trazado 17925" d="M14.481,23.48" fill="none" stroke="#fff" stroke-linecap="round" stroke-linejoin="round" stroke-width="1.566"/>
              <path id="Trazado_17926" data-name="Trazado 17926" d="M22.992,23.48" fill="none" stroke="#fff" stroke-linecap="round" stroke-linejoin="round" stroke-width="1.566"/>
              <path id="Trazado_17927" data-name="Trazado 17927" d="M22.992,17.229" fill="none" stroke="#fff" stroke-linecap="round" stroke-linejoin="round" stroke-width="1.566"/>
              <path id="Trazado_17928" data-name="Trazado 17928" d="M22.992,37.433" fill="none" stroke="#fff" stroke-linecap="round" stroke-linejoin="round" stroke-width="1.566"/>
              <path id="Trazado_17929" data-name="Trazado 17929" d="M22.992,26.2" fill="none" stroke="#fff" stroke-linecap="round" stroke-linejoin="round" stroke-width="1.566"/>
              <path id="Trazado_17930" data-name="Trazado 17930" d="M13.749,26.2" fill="none" stroke="#fff" stroke-linecap="round" stroke-linejoin="round" stroke-width="1.566"/>
              <g id="Grupo_17162" data-name="Grupo 17162">
                <line id="Línea_3591" data-name="Línea 3591" x2="1.823" transform="translate(23.716 22.05)" fill="none" stroke="#fff" stroke-linecap="round" stroke-linejoin="round" stroke-width="1.566"/>
                <line id="Línea_3592" data-name="Línea 3592" x1="6.441" transform="translate(28.749 22.05)" fill="none" stroke="#fff" stroke-linecap="round" stroke-linejoin="round" stroke-width="1.566"/>
              </g>
              <g id="Grupo_17163" data-name="Grupo 17163">
                <line id="Línea_3593" data-name="Línea 3593" x1="1.823" transform="translate(21.704 31.776)" fill="none" stroke="#fff" stroke-linecap="round" stroke-linejoin="round" stroke-width="1.566"/>
                <line id="Línea_3594" data-name="Línea 3594" x2="6.441" transform="translate(12.053 31.776)" fill="none" stroke="#fff" stroke-linecap="round" stroke-linejoin="round" stroke-width="1.566"/>
              </g>
            </g>
          </g>
          <g id="Grupo_17166" data-name="Grupo 17166">
            <path id="Trazado_17931" data-name="Trazado 17931" d="M13.884,26.048c2.208,0,2.208,1.647,4.416,1.647s2.209-1.647,4.418-1.647,2.21,1.647,4.421,1.647,2.212-1.647,4.424-1.647,2.212,1.647,4.424,1.647" fill="none" stroke="#fff" stroke-linecap="round" stroke-linejoin="round" stroke-width="1.566"/>
          </g>
        </g>
      </g>
    </g>
    <g id="Grupo_17179" data-name="Grupo 17179" transform="translate(311 474)">
      <g id="Grupo_10332-3" data-name="Grupo 10332">
        <circle id="Elipse_1636-3" data-name="Elipse 1636" cx="23.5" cy="23.5" r="23.5" transform="translate(1 1)" fill="none" stroke="#fff" stroke-linecap="round" stroke-linejoin="round" stroke-width="1.566"/>
        <g id="Grupo_17184" data-name="Grupo 17184">
          <g id="Grupo_17182" data-name="Grupo 17182">
            <path id="Trazado_17941" data-name="Trazado 17941" d="M26.215,30.555" fill="none" stroke="#fff" stroke-linecap="round" stroke-linejoin="round" stroke-width="1.566"/>
            <path id="Trazado_17942" data-name="Trazado 17942" d="M39.676,38.224" fill="none" stroke="#fff" stroke-linecap="round" stroke-linejoin="round" stroke-width="1.566"/>
            <path id="Trazado_17943" data-name="Trazado 17943" d="M22.764,36.2" fill="none" stroke="#fff" stroke-linecap="round" stroke-linejoin="round" stroke-width="1.566"/>
          </g>
          <g id="Grupo_17183" data-name="Grupo 17183">
            <ellipse id="Elipse_2615" data-name="Elipse 2615" cx="6.505" cy="4.927" rx="6.505" ry="4.927" transform="translate(20.731 12.582) rotate(-5.609)" fill="none" stroke="#fff" stroke-linecap="round" stroke-linejoin="round" stroke-width="1.566"/>
            <path id="Trazado_17944" data-name="Trazado 17944" d="M27.2,11.947C17.729,13.206,8.8,27.291,8.8,27.291c3.351-1.184,8.594-1.547,14.728.409,2.631.839,8.3,4.8,11.944.489,4.15-4.906-2.063-9.249-2.063-9.249a20.357,20.357,0,0,1,5.861.109s-.6-3.551-5.441-4.057" fill="none" stroke="#fff" stroke-linecap="round" stroke-linejoin="round" stroke-width="1.566"/>
            <path id="Trazado_17945" data-name="Trazado 17945" d="M21.212,17.486s.013,3.878,6.9,6.371a33.968,33.968,0,0,1,7.977,3.434" fill="none" stroke="#fff" stroke-linecap="round" stroke-linejoin="round" stroke-width="1.566"/>
            <circle id="Elipse_2616" data-name="Elipse 2616" cx="1.368" cy="1.368" r="1.368" transform="translate(28.34 15.758)" fill="none" stroke="#fff" stroke-linecap="round" stroke-linejoin="round" stroke-width="1.566"/>
            <path id="Trazado_17946" data-name="Trazado 17946" d="M24.055,12.909S21.565,9.128,23.5,7.8a1.655,1.655,0,0,1,2.711.644S27.4,4.992,29.239,5.222,31.077,7.29,30.8,8.255c0,0,2.252-.23,2.665,1.149s-.321,2.507-1.286,3.505" fill="none" stroke="#fff" stroke-linecap="round" stroke-linejoin="round" stroke-width="1.566"/>
            <path id="Trazado_17947" data-name="Trazado 17947" d="M36.086,27.291a10.225,10.225,0,0,1,3.457,8.85" fill="none" stroke="#fff" stroke-linecap="round" stroke-linejoin="round" stroke-width="1.566"/>
          </g>
        </g>
        <path id="Trazado_17948" data-name="Trazado 17948" d="M4.77,30.165S7.814,28.734,8.8,27.291" fill="none" stroke="#fff" stroke-linecap="round" stroke-linejoin="round" stroke-width="1.566"/>
      </g>
      <path id="Trazado_17949" data-name="Trazado 17949" d="M31.123,36.782a15.033,15.033,0,0,0,1.711-2.262" fill="none" stroke="#fff" stroke-linecap="round" stroke-linejoin="round" stroke-width="1.566"/>
      <path id="Trazado_17950" data-name="Trazado 17950" d="M15.7,39.317s6.985,3.283,12.953-.467" fill="none" stroke="#fff" stroke-linecap="round" stroke-linejoin="round" stroke-width="1.566"/>
    </g>
  </g>
</svg>
