<?xml version="1.0" encoding="utf-8"?>
<!-- Generator: Adobe Illustrator 24.0.2, SVG Export Plug-In . SVG Version: 6.00 Build 0)  -->
<svg version="1.1" xmlns="http://www.w3.org/2000/svg" xmlns:xlink="http://www.w3.org/1999/xlink" x="0px" y="0px"
	 viewBox="0 0 65 65" style="enable-background:new 0 0 65 65;" xml:space="preserve">
<style type="text/css">
	.st0{display:none;}
	.st1{display:inline;fill:#98A6B0;}
	.st2{fill:none;stroke:#FCEA57;stroke-width:4;stroke-linecap:round;stroke-linejoin:round;}
	.st3{fill:none;stroke:#97A5AF;stroke-width:4;stroke-linecap:round;stroke-linejoin:round;}
	.st4{fill:none;stroke:#98A6B0;stroke-width:4;stroke-linecap:round;stroke-linejoin:round;stroke-miterlimit:10;}
	.st5{fill:none;}
	.st6{fill:#4C9F2E;}
	.st7{fill:#94D040;}
	.st8{fill:none;stroke:#95A6B1;stroke-width:1.6;stroke-linecap:round;stroke-linejoin:round;}
	.st9{fill:none;stroke:#95A6B1;stroke-width:1.6;stroke-linecap:round;stroke-linejoin:round;stroke-dasharray:3.9659,3.9659;}
	.st10{fill:none;stroke:#00A800;stroke-width:1.5;stroke-linecap:round;stroke-linejoin:round;stroke-miterlimit:10;}
	.st11{fill:none;stroke:#00A800;stroke-width:1.6;stroke-linecap:round;stroke-linejoin:round;stroke-miterlimit:10;}
	.st12{fill:none;stroke:#95A6B1;stroke-width:1.5467;stroke-linecap:round;stroke-linejoin:round;}
	.st13{fill:none;stroke:#95A6B1;stroke-width:1.4747;stroke-linecap:round;stroke-linejoin:round;}
	.st14{fill:none;stroke:#FFFFFF;stroke-width:1.5;stroke-linecap:round;stroke-linejoin:round;stroke-miterlimit:10;}
	.st15{fill:none;stroke:#FFFFFF;stroke-width:1.5;stroke-linecap:round;stroke-linejoin:round;}
</style>
<g id="BASE" class="st0">
</g>
<g id="Capa_1">
	<g>
		<g>
			<g>
				<g>
					<rect y="48.26" class="st5" width="65" height="16.74"/>
				</g>
				<g>
					<g>
						<path class="st6" d="M45.38,61.32h-7.17c-0.66,0-1.2-0.54-1.2-1.2s0.54-1.2,1.2-1.2h7.17c0.66,0,1.2,0.54,1.2,1.2
							S46.04,61.32,45.38,61.32z"/>
					</g>
					<g>
						<path class="st6" d="M53.11,61.32h-0.58c-0.66,0-1.2-0.54-1.2-1.2s0.54-1.2,1.2-1.2h0.58c0.66,0,1.2,0.54,1.2,1.2
							S53.77,61.32,53.11,61.32z"/>
					</g>
					<g>
						<path class="st6" d="M18.99,61.32h-7.1c-0.66,0-1.2-0.54-1.2-1.2s0.54-1.2,1.2-1.2h7.1c0.66,0,1.2,0.54,1.2,1.2
							S19.65,61.32,18.99,61.32z"/>
					</g>
					<g>
						<path class="st7" d="M31.05,61.32H18.53c-0.66,0-1.2-0.54-1.2-1.2s0.54-1.2,1.2-1.2h12.52c0.66,0,1.2,0.54,1.2,1.2
							S31.71,61.32,31.05,61.32z"/>
					</g>
					<g>
						<path class="st7" d="M35.47,55.21H11.89c-0.66,0-1.2-0.54-1.2-1.2s0.54-1.2,1.2-1.2h23.58c0.66,0,1.2,0.54,1.2,1.2
							S36.14,55.21,35.47,55.21z"/>
					</g>
					<g>
						<path class="st6" d="M53.11,55.21H34.75c-0.66,0-1.2-0.54-1.2-1.2s0.54-1.2,1.2-1.2h18.36c0.66,0,1.2,0.54,1.2,1.2
							S53.77,55.21,53.11,55.21z"/>
					</g>
					<g>
						<path class="st6" d="M12.32,55.21h-0.43c-0.66,0-1.2-0.54-1.2-1.2s0.54-1.2,1.2-1.2h0.43c0.66,0,1.2,0.54,1.2,1.2
							S12.98,55.21,12.32,55.21z"/>
					</g>
				</g>
			</g>
		</g>
		<rect class="st5" width="65" height="65"/>
		<g>
			<g>
				<rect class="st5" width="65" height="65"/>
			</g>
		</g>
	</g>
	<g>
		<path class="st8" d="M54.04,13.52c0,2.92-2.37,5.29-5.29,5.29"/>
		<path class="st8" d="M16.93,18.81h-0.68c-2.92,0-5.29-2.37-5.29-5.29V7.71h36.43"/>
		<path class="st8" d="M48.48,18.81v4.12c0,2.92-2.37,5.29-5.29,5.29H22.22c-2.92,0-5.29-2.37-5.29-5.29v-4.12"/>
		<g>
			<g>
				<line class="st8" x1="16.93" y1="18.81" x2="18.82" y2="18.81"/>
				<line class="st9" x1="22.79" y1="18.81" x2="44.6" y2="18.81"/>
				<line class="st8" x1="46.58" y1="18.81" x2="48.48" y2="18.81"/>
			</g>
		</g>
		<g>
			<g>
				<line class="st8" x1="16.93" y1="23.51" x2="18.82" y2="23.51"/>
				<line class="st9" x1="22.79" y1="23.51" x2="44.6" y2="23.51"/>
				<line class="st8" x1="46.58" y1="23.51" x2="48.48" y2="23.51"/>
			</g>
		</g>
		<g>
			<path class="st8" d="M33.74,32.45c0,2.07-2.47,2.07-2.47,4.14c0,2.07,2.47,2.07,2.47,4.14c0,2.07-2.47,2.07-2.47,4.15
				c0,2.07,2.47,2.07,2.47,4.15"/>
		</g>
		<path class="st8" d="M41.98,32.45c0,2.07-2.47,2.07-2.47,4.14c0,2.07,2.47,2.07,2.47,4.14c0,2.07-2.47,2.07-2.47,4.15"/>
		<path class="st8" d="M25.49,32.45c0,2.07-2.47,2.07-2.47,4.14c0,2.07,2.47,2.07,2.47,4.14c0,2.07-2.47,2.07-2.47,4.15"/>
	</g>
	<path class="st10" d="M56.31,6.28c0.37,0.82,0.4,1.71,0.14,2.5c-0.29,0.87-0.93,1.63-1.83,2.04c-1.72,0.79-3.75,0.03-4.54-1.69
		s-0.03-3.75,1.69-4.54C53.49,3.81,55.53,4.56,56.31,6.28z"/>
	<line class="st8" x1="10.96" y1="12.67" x2="18.99" y2="12.67"/>
</g>
</svg>
