<?xml version="1.0" encoding="utf-8"?>
<!-- Generator: Adobe Illustrator 24.0.2, SVG Export Plug-In . SVG Version: 6.00 Build 0)  -->
<svg version="1.1" xmlns="http://www.w3.org/2000/svg" xmlns:xlink="http://www.w3.org/1999/xlink" x="0px" y="0px"
	 viewBox="0 0 47 47" style="enable-background:new 0 0 47 47;" xml:space="preserve">
<style type="text/css">
	.st0{display:none;}
	.st1{display:inline;fill:#98A6B0;}
	.st2{fill:none;stroke:#FCEA57;stroke-width:4;stroke-linecap:round;stroke-linejoin:round;}
	.st3{fill:none;stroke:#97A5AF;stroke-width:4;stroke-linecap:round;stroke-linejoin:round;}
	.st4{fill:none;stroke:#98A6B0;stroke-width:4;stroke-linecap:round;stroke-linejoin:round;stroke-miterlimit:10;}
	.st5{fill:none;}
	.st6{fill:#4C9F2E;}
	.st7{fill:#94D040;}
	.st8{fill:none;stroke:#95A6B1;stroke-width:1.6;stroke-linecap:round;stroke-linejoin:round;}
	.st9{fill:none;stroke:#95A6B1;stroke-width:1.6;stroke-linecap:round;stroke-linejoin:round;stroke-dasharray:3.9659,3.9659;}
	.st10{fill:none;stroke:#00A800;stroke-width:1.5;stroke-linecap:round;stroke-linejoin:round;stroke-miterlimit:10;}
	.st11{fill:none;stroke:#00A800;stroke-width:1.6;stroke-linecap:round;stroke-linejoin:round;stroke-miterlimit:10;}
	.st12{fill:none;stroke:#95A6B1;stroke-width:1.5467;stroke-linecap:round;stroke-linejoin:round;}
	.st13{fill:none;stroke:#95A6B1;stroke-width:1.4747;stroke-linecap:round;stroke-linejoin:round;}
	.st14{fill:none;stroke:#FFFFFF;stroke-width:1.5;stroke-linecap:round;stroke-linejoin:round;stroke-miterlimit:10;}
	.st15{fill:none;stroke:#FFFFFF;stroke-width:1.5;stroke-linecap:round;stroke-linejoin:round;}
</style>
<g id="BASE" class="st0">
	<rect x="-2.2" y="-2.22" class="st1" width="51.47" height="51.47"/>
</g>
<g id="Capa_1">
	<rect x="0.07" class="st5" width="46.93" height="47"/>
	<g>
		<g>
			<g>
				<g>
					<g>
						<path class="st14" d="M5.63,12.52c-0.37,0.28-0.72,0.49-0.99,0.63c-0.32,0.17-0.52,0.5-0.5,0.87
							c0.52,10.39,8.22,14.55,10.06,15.4c0.24,0.11,0.52,0.12,0.77,0.01c1.96-0.88,3.54-2.04,4.81-3.35c0,0,3.53-3.13,5.01-10.34
							c0.15-0.71,0.19-1.3,0.23-1.71c0.03-0.37-0.16-0.73-0.49-0.9c-2.46-1.28-3.16-3.45-3.35-4.6c-0.08-0.45-0.46-0.78-0.92-0.78
							h-6.22"/>
						<polyline class="st14" points="10.93,19.32 14.12,22.22 19.26,14.6 						"/>
					</g>
					<g id="Grupo_20812" transform="translate(-5.03 -8.46)">
						<g id="Grupo_20811">
							<g id="Grupo_20810">
								<g id="Grupo_20809">
									<g id="Grupo_20808">
									</g>
								</g>
							</g>
						</g>
					</g>
				</g>
				<path id="Trazado_20005" class="st15" d="M5.59,6.58c-0.72,1.58-0.03,3.45,1.55,4.17c1.58,0.72,3.45,0.03,4.17-1.55
					c0.72-1.58,0.03-3.45-1.55-4.17C8.19,4.3,6.32,4.98,5.6,6.56C5.59,6.56,5.59,6.57,5.59,6.58z"/>
			</g>
			<polyline class="st15" points="8.45,25.17 8.45,36.83 42.87,36.83 42.87,15.68 25.01,15.68 			"/>
			<line class="st15" x1="25.66" y1="36.83" x2="25.66" y2="41.47"/>
		</g>
		<line class="st15" x1="19.35" y1="42.26" x2="31.97" y2="42.26"/>
	</g>
	<line class="st15" x1="8.45" y1="32.47" x2="42.87" y2="32.47"/>
	<g id="Grupo_20966" transform="translate(-27.188 -20.454)">
		<g id="Grupo_20965">
			<path id="Trazado_20148" class="st15" d="M63.05,43.11v5.1h-6.74"/>
			<path id="Trazado_20149" class="st15" d="M56.6,48.21h-1.03v-4.54c0-0.31,0.17-0.56,0.38-0.56h7.1"/>
			<path id="Trazado_20150" class="st15" d="M56.31,48.22h8.35c0.36,0,0.64,0.29,0.64,0.64l0,0v3.99"/>
			<path id="Trazado_20151" class="st15" d="M53.6,52.85v-4.08c0-0.31,0.25-0.56,0.56-0.56l2.41-0.01"/>
		</g>
	</g>
</g>
</svg>
