<?xml version="1.0" encoding="utf-8"?>
<!-- Generator: Adobe Illustrator 24.0.2, SVG Export Plug-In . SVG Version: 6.00 Build 0)  -->
<svg version="1.1" xmlns="http://www.w3.org/2000/svg" xmlns:xlink="http://www.w3.org/1999/xlink" x="0px" y="0px"
	 viewBox="0 0 65 65" style="enable-background:new 0 0 65 65;" xml:space="preserve">
<style type="text/css">
	.st0{display:none;}
	.st1{display:inline;fill:#98A6B0;}
	.st2{fill:none;stroke:#FCEA57;stroke-width:4;stroke-linecap:round;stroke-linejoin:round;}
	.st3{fill:none;stroke:#97A5AF;stroke-width:4;stroke-linecap:round;stroke-linejoin:round;}
	.st4{fill:none;stroke:#98A6B0;stroke-width:4;stroke-linecap:round;stroke-linejoin:round;stroke-miterlimit:10;}
	.st5{fill:none;}
	.st6{fill:#4C9F2E;}
	.st7{fill:#94D040;}
	.st8{fill:none;stroke:#95A6B1;stroke-width:1.6;stroke-linecap:round;stroke-linejoin:round;}
	.st9{fill:none;stroke:#95A6B1;stroke-width:1.6;stroke-linecap:round;stroke-linejoin:round;stroke-dasharray:3.9659,3.9659;}
	.st10{fill:none;stroke:#00A800;stroke-width:1.5;stroke-linecap:round;stroke-linejoin:round;stroke-miterlimit:10;}
	.st11{fill:none;stroke:#00A800;stroke-width:1.6;stroke-linecap:round;stroke-linejoin:round;stroke-miterlimit:10;}
	.st12{fill:none;stroke:#95A6B1;stroke-width:1.5467;stroke-linecap:round;stroke-linejoin:round;}
	.st13{fill:none;stroke:#95A6B1;stroke-width:1.4747;stroke-linecap:round;stroke-linejoin:round;}
	.st14{fill:none;stroke:#FFFFFF;stroke-width:1.5;stroke-linecap:round;stroke-linejoin:round;stroke-miterlimit:10;}
	.st15{fill:none;stroke:#FFFFFF;stroke-width:1.5;stroke-linecap:round;stroke-linejoin:round;}
</style>
<g id="BASE" class="st0">
</g>
<g id="Capa_1">
	<g>
		<g>
			<g>
				<g>
					<rect y="48.26" class="st5" width="65" height="16.74"/>
				</g>
				<g>
					<g>
						<path class="st6" d="M45.38,61.32h-7.17c-0.66,0-1.2-0.54-1.2-1.2s0.54-1.2,1.2-1.2h7.17c0.66,0,1.2,0.54,1.2,1.2
							S46.04,61.32,45.38,61.32z"/>
					</g>
					<g>
						<path class="st6" d="M53.11,61.32h-0.58c-0.66,0-1.2-0.54-1.2-1.2s0.54-1.2,1.2-1.2h0.58c0.66,0,1.2,0.54,1.2,1.2
							S53.77,61.32,53.11,61.32z"/>
					</g>
					<g>
						<path class="st6" d="M18.99,61.32h-7.1c-0.66,0-1.2-0.54-1.2-1.2s0.54-1.2,1.2-1.2h7.1c0.66,0,1.2,0.54,1.2,1.2
							S19.65,61.32,18.99,61.32z"/>
					</g>
					<g>
						<path class="st7" d="M31.05,61.32H18.53c-0.66,0-1.2-0.54-1.2-1.2s0.54-1.2,1.2-1.2h12.52c0.66,0,1.2,0.54,1.2,1.2
							S31.71,61.32,31.05,61.32z"/>
					</g>
					<g>
						<path class="st7" d="M35.47,55.21H11.89c-0.66,0-1.2-0.54-1.2-1.2s0.54-1.2,1.2-1.2h23.58c0.66,0,1.2,0.54,1.2,1.2
							S36.14,55.21,35.47,55.21z"/>
					</g>
					<g>
						<path class="st6" d="M53.11,55.21H34.75c-0.66,0-1.2-0.54-1.2-1.2s0.54-1.2,1.2-1.2h18.36c0.66,0,1.2,0.54,1.2,1.2
							S53.77,55.21,53.11,55.21z"/>
					</g>
					<g>
						<path class="st6" d="M12.32,55.21h-0.43c-0.66,0-1.2-0.54-1.2-1.2s0.54-1.2,1.2-1.2h0.43c0.66,0,1.2,0.54,1.2,1.2
							S12.98,55.21,12.32,55.21z"/>
					</g>
				</g>
			</g>
		</g>
		<rect class="st5" width="65" height="65"/>
	</g>
	<g>
		<g>
			<path class="st11" d="M50.52,7.52c0.4,0.88,0.43,1.84,0.15,2.69c-0.31,0.94-1,1.75-1.96,2.19c-1.85,0.85-4.03,0.03-4.88-1.82
				s-0.03-4.03,1.82-4.88S49.67,5.67,50.52,7.52z"/>
			<g>
				<polyline class="st12" points="47.65,15.36 47.65,25.95 37.4,25.95 				"/>
				<polyline class="st12" points="28.04,25.95 17.49,25.95 17.49,8.73 40.65,8.73 				"/>
				<polyline class="st12" points="22.42,39.46 12.1,40.07 12.1,30.35 27.76,29.39 27.76,32.47 				"/>
				<polyline class="st12" points="42.71,39.47 52.9,40.07 52.9,30.35 37.24,29.39 37.24,32.47 				"/>
				<path class="st12" d="M36.26,32.47h-7.37c-3.57,0-6.46,1.89-6.46,5.46v9.45h20.29v-8.45C42.71,35.36,39.82,32.47,36.26,32.47z"
					/>
				<path class="st12" d="M32.72,17.71L32.72,17.71c-2.49,0-4.51,2.02-4.51,4.51v2.13c0,2.49,2.02,4.51,4.51,4.51h0
					c2.49,0,4.51-2.02,4.51-4.51v-2.13C37.24,19.73,35.22,17.71,32.72,17.71z"/>
			</g>
		</g>
		<line class="st8" x1="17.73" y1="17.41" x2="21.38" y2="17.41"/>
		<line class="st8" x1="18" y1="13.3" x2="23.5" y2="13.3"/>
	</g>
</g>
</svg>
