<?xml version="1.0" encoding="utf-8"?>
<!-- Generator: Adobe Illustrator 24.0.2, SVG Export Plug-In . SVG Version: 6.00 Build 0)  -->
<svg version="1.1" xmlns="http://www.w3.org/2000/svg" xmlns:xlink="http://www.w3.org/1999/xlink" x="0px" y="0px"
	 viewBox="0 0 65 65" style="enable-background:new 0 0 65 65;" xml:space="preserve">
<style type="text/css">
	.st0{display:none;}
	.st1{display:inline;fill:#98A6B0;}
	.st2{fill:none;stroke:#FCEA57;stroke-width:4;stroke-linecap:round;stroke-linejoin:round;}
	.st3{fill:none;stroke:#97A5AF;stroke-width:4;stroke-linecap:round;stroke-linejoin:round;}
	.st4{fill:none;stroke:#98A6B0;stroke-width:4;stroke-linecap:round;stroke-linejoin:round;stroke-miterlimit:10;}
	.st5{fill:none;}
	.st6{fill:#4C9F2E;}
	.st7{fill:#94D040;}
	.st8{fill:none;stroke:#95A6B1;stroke-width:1.6;stroke-linecap:round;stroke-linejoin:round;}
	.st9{fill:none;stroke:#95A6B1;stroke-width:1.6;stroke-linecap:round;stroke-linejoin:round;stroke-dasharray:3.9659,3.9659;}
	.st10{fill:none;stroke:#00A800;stroke-width:1.5;stroke-linecap:round;stroke-linejoin:round;stroke-miterlimit:10;}
	.st11{fill:none;stroke:#00A800;stroke-width:1.6;stroke-linecap:round;stroke-linejoin:round;stroke-miterlimit:10;}
	.st12{fill:none;stroke:#95A6B1;stroke-width:1.5467;stroke-linecap:round;stroke-linejoin:round;}
	.st13{fill:none;stroke:#95A6B1;stroke-width:1.4747;stroke-linecap:round;stroke-linejoin:round;}
	.st14{fill:none;stroke:#FFFFFF;stroke-width:1.5;stroke-linecap:round;stroke-linejoin:round;stroke-miterlimit:10;}
	.st15{fill:none;stroke:#FFFFFF;stroke-width:1.5;stroke-linecap:round;stroke-linejoin:round;}
</style>
<g id="BASE" class="st0">
</g>
<g id="Capa_1">
	<g>
		<g>
			<g>
				<g>
					<rect y="48.26" class="st5" width="65" height="16.74"/>
				</g>
				<g>
					<g>
						<path class="st6" d="M45.38,61.32h-7.17c-0.66,0-1.2-0.54-1.2-1.2s0.54-1.2,1.2-1.2h7.17c0.66,0,1.2,0.54,1.2,1.2
							S46.04,61.32,45.38,61.32z"/>
					</g>
					<g>
						<path class="st6" d="M53.11,61.32h-0.58c-0.66,0-1.2-0.54-1.2-1.2s0.54-1.2,1.2-1.2h0.58c0.66,0,1.2,0.54,1.2,1.2
							S53.77,61.32,53.11,61.32z"/>
					</g>
					<g>
						<path class="st6" d="M18.99,61.32h-7.1c-0.66,0-1.2-0.54-1.2-1.2s0.54-1.2,1.2-1.2h7.1c0.66,0,1.2,0.54,1.2,1.2
							S19.65,61.32,18.99,61.32z"/>
					</g>
					<g>
						<path class="st7" d="M31.05,61.32H18.53c-0.66,0-1.2-0.54-1.2-1.2s0.54-1.2,1.2-1.2h12.52c0.66,0,1.2,0.54,1.2,1.2
							S31.71,61.32,31.05,61.32z"/>
					</g>
					<g>
						<path class="st7" d="M35.47,55.21H11.89c-0.66,0-1.2-0.54-1.2-1.2s0.54-1.2,1.2-1.2h23.58c0.66,0,1.2,0.54,1.2,1.2
							S36.14,55.21,35.47,55.21z"/>
					</g>
					<g>
						<path class="st6" d="M53.11,55.21H34.75c-0.66,0-1.2-0.54-1.2-1.2s0.54-1.2,1.2-1.2h18.36c0.66,0,1.2,0.54,1.2,1.2
							S53.77,55.21,53.11,55.21z"/>
					</g>
					<g>
						<path class="st6" d="M12.32,55.21h-0.43c-0.66,0-1.2-0.54-1.2-1.2s0.54-1.2,1.2-1.2h0.43c0.66,0,1.2,0.54,1.2,1.2
							S12.98,55.21,12.32,55.21z"/>
					</g>
				</g>
			</g>
		</g>
		<rect class="st5" width="65" height="65"/>
	</g>
	<g>
		<g>
			<path class="st11" d="M35.07,28.65c0.4,0.88,0.43,1.84,0.15,2.69c-0.31,0.94-1,1.75-1.96,2.19c-1.85,0.85-4.03,0.03-4.88-1.82
				c-0.85-1.85-0.03-4.03,1.82-4.88S34.22,26.8,35.07,28.65z"/>
			<g>
				<g>
					<line class="st8" x1="14.39" y1="30.18" x2="25.33" y2="30.18"/>
					<line class="st8" x1="38.04" y1="30.18" x2="42.22" y2="30.18"/>
					<polyline class="st8" points="20.88,37.2 13.86,30.18 20.88,23.16 					"/>
					<polygon class="st8" points="50.07,35.8 41.73,30.18 50.07,24.56 47.71,30.18 					"/>
					<line class="st8" x1="31.72" y1="36.86" x2="31.72" y2="45.64"/>
					<line class="st8" x1="31.72" y1="14.71" x2="31.72" y2="23.47"/>
					<line class="st8" x1="24.5" y1="14.71" x2="39.09" y2="14.71"/>
					<path class="st8" d="M33.46,5.65h-3.22c-1.61,0-2.92,1.31-2.92,2.92v6.14h9.07V8.57C36.38,6.96,35.07,5.65,33.46,5.65z"/>
				</g>
				<line class="st8" x1="10.96" y1="45.64" x2="54.04" y2="45.64"/>
			</g>
		</g>
		<line class="st8" x1="17.73" y1="10.09" x2="23.38" y2="10.09"/>
		<line class="st8" x1="21" y1="5.97" x2="24.5" y2="5.97"/>
	</g>
</g>
</svg>
