<?xml version="1.0" encoding="utf-8"?>
<!-- Generator: Adobe Illustrator 24.0.2, SVG Export Plug-In . SVG Version: 6.00 Build 0)  -->
<svg version="1.1" xmlns="http://www.w3.org/2000/svg" xmlns:xlink="http://www.w3.org/1999/xlink" x="0px" y="0px"
	 viewBox="0 0 65 65" style="enable-background:new 0 0 65 65;" xml:space="preserve">
<style type="text/css">
	.st0{display:none;}
	.st1{display:inline;fill:#98A6B0;}
	.st2{fill:none;stroke:#FCEA57;stroke-width:4;stroke-linecap:round;stroke-linejoin:round;}
	.st3{fill:none;stroke:#97A5AF;stroke-width:4;stroke-linecap:round;stroke-linejoin:round;}
	.st4{fill:none;stroke:#98A6B0;stroke-width:4;stroke-linecap:round;stroke-linejoin:round;stroke-miterlimit:10;}
	.st5{fill:none;}
	.st6{fill:#4C9F2E;}
	.st7{fill:#94D040;}
	.st8{fill:none;stroke:#95A6B1;stroke-width:1.6;stroke-linecap:round;stroke-linejoin:round;}
	.st9{fill:none;stroke:#95A6B1;stroke-width:1.6;stroke-linecap:round;stroke-linejoin:round;stroke-dasharray:3.9659,3.9659;}
	.st10{fill:none;stroke:#00A800;stroke-width:1.5;stroke-linecap:round;stroke-linejoin:round;stroke-miterlimit:10;}
	.st11{fill:none;stroke:#00A800;stroke-width:1.6;stroke-linecap:round;stroke-linejoin:round;stroke-miterlimit:10;}
	.st12{fill:none;stroke:#95A6B1;stroke-width:1.5467;stroke-linecap:round;stroke-linejoin:round;}
	.st13{fill:none;stroke:#95A6B1;stroke-width:1.4747;stroke-linecap:round;stroke-linejoin:round;}
	.st14{fill:none;stroke:#FFFFFF;stroke-width:1.5;stroke-linecap:round;stroke-linejoin:round;stroke-miterlimit:10;}
	.st15{fill:none;stroke:#FFFFFF;stroke-width:1.5;stroke-linecap:round;stroke-linejoin:round;}
</style>
<g id="BASE" class="st0">
</g>
<g id="Capa_1">
	<g>
		<g>
			<g>
				<g>
					<rect y="48.26" class="st5" width="65" height="16.74"/>
				</g>
				<g>
					<g>
						<path class="st6" d="M45.38,61.32h-7.17c-0.66,0-1.2-0.54-1.2-1.2s0.54-1.2,1.2-1.2h7.17c0.66,0,1.2,0.54,1.2,1.2
							S46.04,61.32,45.38,61.32z"/>
					</g>
					<g>
						<path class="st6" d="M53.11,61.32h-0.58c-0.66,0-1.2-0.54-1.2-1.2s0.54-1.2,1.2-1.2h0.58c0.66,0,1.2,0.54,1.2,1.2
							S53.77,61.32,53.11,61.32z"/>
					</g>
					<g>
						<path class="st6" d="M18.99,61.32h-7.1c-0.66,0-1.2-0.54-1.2-1.2s0.54-1.2,1.2-1.2h7.1c0.66,0,1.2,0.54,1.2,1.2
							S19.65,61.32,18.99,61.32z"/>
					</g>
					<g>
						<path class="st7" d="M31.05,61.32H18.53c-0.66,0-1.2-0.54-1.2-1.2s0.54-1.2,1.2-1.2h12.52c0.66,0,1.2,0.54,1.2,1.2
							S31.71,61.32,31.05,61.32z"/>
					</g>
					<g>
						<path class="st7" d="M35.47,55.21H11.89c-0.66,0-1.2-0.54-1.2-1.2s0.54-1.2,1.2-1.2h23.58c0.66,0,1.2,0.54,1.2,1.2
							S36.14,55.21,35.47,55.21z"/>
					</g>
					<g>
						<path class="st6" d="M53.11,55.21H34.75c-0.66,0-1.2-0.54-1.2-1.2s0.54-1.2,1.2-1.2h18.36c0.66,0,1.2,0.54,1.2,1.2
							S53.77,55.21,53.11,55.21z"/>
					</g>
					<g>
						<path class="st6" d="M12.32,55.21h-0.43c-0.66,0-1.2-0.54-1.2-1.2s0.54-1.2,1.2-1.2h0.43c0.66,0,1.2,0.54,1.2,1.2
							S12.98,55.21,12.32,55.21z"/>
					</g>
				</g>
			</g>
		</g>
		<rect class="st5" width="65" height="65"/>
	</g>
	<g id="Grupo_20980">
		<path id="Trazado_20173" class="st11" d="M47.68,13.98c0.79,1.72,0.03,3.75-1.69,4.54s-3.75,0.03-4.54-1.69
			c-0.79-1.72-0.03-3.75,1.69-4.54c1.71-0.79,3.74-0.04,4.53,1.67C47.68,13.96,47.68,13.97,47.68,13.98z"/>
		<g id="Grupo_20979">
			<path id="Trazado_20174" class="st13" d="M49.42,31.84l1.32,0.48c0.54,0.2,1.14-0.08,1.33-0.62c0,0,0,0,0,0l2.15-5.93
				c0.2-0.54-0.08-1.14-0.62-1.33c0,0,0,0,0,0l-1.92-0.67"/>
			<g id="Grupo_20978">
				<path id="Trazado_20175" class="st13" d="M50.19,17.37l5.59,2.09c0.54,0.2,0.82,0.79,0.62,1.33c-0.1,0.27-0.3,0.48-0.56,0.59
					l-7.65,3.38c-1.92,0.85-4.09,0.92-6.06,0.2L12.21,14.37c-0.54-0.2-0.82-0.79-0.62-1.33c0,0,0,0,0,0l2.65-7.29
					c0.2-0.54,0.79-0.82,1.33-0.62l23.46,8.32"/>
				<path id="Trazado_20177" class="st13" d="M51.56,23.5l-2.96,8.16c-0.44,1.21-1.78,1.83-2.99,1.4c0,0,0,0,0,0L10.02,20.4
					c-0.54-0.2-0.82-0.79-0.62-1.33c0,0,0,0,0,0l4.84-13.32c0.2-0.54,0.79-0.82,1.33-0.62"/>
				<path id="Trazado_20178" class="st13" d="M31.71,29.45c-0.67,2.3-3.08,3.62-5.38,2.95c-2.3-0.67-3.62-3.08-2.95-5.38
					c0.05-0.16,0.1-0.31,0.16-0.46"/>
				<path id="Trazado_20179" class="st13" d="M28.28,32.53l-3.56,9.08c-0.48,1.21-1.64,2-2.94,2h-8.36c-0.57,0-1.04-0.47-1.04-1.04
					v-1.87c0-0.57,0.47-1.04,1.04-1.04h6.97c0.43,0,0.81-0.26,0.97-0.66l3.16-7.67"/>
				<path id="Rectángulo_5906" class="st13" d="M9.58,35.37h1.76c0.57,0,1.04,0.47,1.04,1.04V47.2c0,0.57-0.47,1.04-1.04,1.04H9.58
					c-0.57,0-1.04-0.47-1.04-1.04V36.41C8.54,35.84,9.01,35.37,9.58,35.37z"/>
			</g>
		</g>
	</g>
	<rect class="st5" width="65" height="65"/>
</g>
</svg>
