<?xml version="1.0" encoding="utf-8"?>
<!-- Generator: Adobe Illustrator 24.0.2, SVG Export Plug-In . SVG Version: 6.00 Build 0)  -->
<svg version="1.1" xmlns="http://www.w3.org/2000/svg" xmlns:xlink="http://www.w3.org/1999/xlink" x="0px" y="0px"
	 viewBox="0 0 65 65" style="enable-background:new 0 0 65 65;" xml:space="preserve">
<style type="text/css">
	.st0{display:none;}
	.st1{display:inline;fill:#98A6B0;}
	.st2{fill:none;stroke:#FCEA57;stroke-width:4;stroke-linecap:round;stroke-linejoin:round;}
	.st3{fill:none;stroke:#97A5AF;stroke-width:4;stroke-linecap:round;stroke-linejoin:round;}
	.st4{fill:none;stroke:#98A6B0;stroke-width:4;stroke-linecap:round;stroke-linejoin:round;stroke-miterlimit:10;}
	.st5{fill:none;}
	.st6{fill:#4C9F2E;}
	.st7{fill:#94D040;}
	.st8{fill:none;stroke:#95A6B1;stroke-width:1.6;stroke-linecap:round;stroke-linejoin:round;}
	.st9{fill:none;stroke:#95A6B1;stroke-width:1.6;stroke-linecap:round;stroke-linejoin:round;stroke-dasharray:3.9659,3.9659;}
	.st10{fill:none;stroke:#00A800;stroke-width:1.5;stroke-linecap:round;stroke-linejoin:round;stroke-miterlimit:10;}
	.st11{fill:none;stroke:#00A800;stroke-width:1.6;stroke-linecap:round;stroke-linejoin:round;stroke-miterlimit:10;}
	.st12{fill:none;stroke:#95A6B1;stroke-width:1.5467;stroke-linecap:round;stroke-linejoin:round;}
	.st13{fill:none;stroke:#95A6B1;stroke-width:1.4747;stroke-linecap:round;stroke-linejoin:round;}
	.st14{fill:none;stroke:#FFFFFF;stroke-width:1.5;stroke-linecap:round;stroke-linejoin:round;stroke-miterlimit:10;}
	.st15{fill:none;stroke:#FFFFFF;stroke-width:1.5;stroke-linecap:round;stroke-linejoin:round;}
</style>
<g id="BASE" class="st0">
</g>
<g id="Capa_1">
	<g>
		<g>
			<g>
				<g>
					<rect y="48.26" class="st5" width="65" height="16.74"/>
				</g>
				<g>
					<g>
						<path class="st6" d="M45.38,61.32h-7.17c-0.66,0-1.2-0.54-1.2-1.2s0.54-1.2,1.2-1.2h7.17c0.66,0,1.2,0.54,1.2,1.2
							S46.04,61.32,45.38,61.32z"/>
					</g>
					<g>
						<path class="st6" d="M53.11,61.32h-0.58c-0.66,0-1.2-0.54-1.2-1.2s0.54-1.2,1.2-1.2h0.58c0.66,0,1.2,0.54,1.2,1.2
							S53.77,61.32,53.11,61.32z"/>
					</g>
					<g>
						<path class="st6" d="M18.99,61.32h-7.1c-0.66,0-1.2-0.54-1.2-1.2s0.54-1.2,1.2-1.2h7.1c0.66,0,1.2,0.54,1.2,1.2
							S19.65,61.32,18.99,61.32z"/>
					</g>
					<g>
						<path class="st7" d="M31.05,61.32H18.53c-0.66,0-1.2-0.54-1.2-1.2s0.54-1.2,1.2-1.2h12.52c0.66,0,1.2,0.54,1.2,1.2
							S31.71,61.32,31.05,61.32z"/>
					</g>
					<g>
						<path class="st7" d="M35.47,55.21H11.89c-0.66,0-1.2-0.54-1.2-1.2s0.54-1.2,1.2-1.2h23.58c0.66,0,1.2,0.54,1.2,1.2
							S36.14,55.21,35.47,55.21z"/>
					</g>
					<g>
						<path class="st6" d="M53.11,55.21H34.75c-0.66,0-1.2-0.54-1.2-1.2s0.54-1.2,1.2-1.2h18.36c0.66,0,1.2,0.54,1.2,1.2
							S53.77,55.21,53.11,55.21z"/>
					</g>
					<g>
						<path class="st6" d="M12.32,55.21h-0.43c-0.66,0-1.2-0.54-1.2-1.2s0.54-1.2,1.2-1.2h0.43c0.66,0,1.2,0.54,1.2,1.2
							S12.98,55.21,12.32,55.21z"/>
					</g>
				</g>
			</g>
		</g>
		<rect class="st5" width="65" height="65"/>
	</g>
	<g>
		<g>
			<g>
				<path class="st8" d="M32.29,7.79H54c1.1,0,2,0.9,2,2v34.1c0,1.1-0.9,2-2,2H25c-1.1,0-2-0.9-2-2V33.67"/>
				<polyline class="st8" points="34.75,13.16 51.34,13.16 51.34,26.84 31.01,26.84 				"/>
				<g>
					<path class="st8" d="M30.01,35.33H28.7c-0.55,0-1-0.45-1-1v-1.31c0-0.55,0.45-1,1-1h1.31c0.55,0,1,0.45,1,1v1.31
						C31.01,34.88,30.57,35.33,30.01,35.33z"/>
					<path class="st8" d="M36.79,35.33h-1.31c-0.55,0-1-0.45-1-1v-1.31c0-0.55,0.45-1,1-1h1.31c0.55,0,1,0.45,1,1v1.31
						C37.79,34.88,37.34,35.33,36.79,35.33z"/>
					<path class="st8" d="M43.61,35.33H42.3c-0.55,0-1-0.45-1-1v-1.31c0-0.55,0.45-1,1-1h1.31c0.55,0,1,0.45,1,1v1.31
						C44.61,34.88,44.16,35.33,43.61,35.33z"/>
					<path class="st8" d="M50.3,35.33h-1.31c-0.55,0-1-0.45-1-1v-1.31c0-0.55,0.45-1,1-1h1.31c0.55,0,1,0.45,1,1v1.31
						C51.3,34.88,50.85,35.33,50.3,35.33z"/>
					<path class="st8" d="M30.01,42.13H28.7c-0.55,0-1-0.45-1-1v-1.31c0-0.55,0.45-1,1-1h1.31c0.55,0,1,0.45,1,1v1.31
						C31.01,41.68,30.57,42.13,30.01,42.13z"/>
					<path class="st8" d="M36.79,42.13h-1.31c-0.55,0-1-0.45-1-1v-1.31c0-0.55,0.45-1,1-1h1.31c0.55,0,1,0.45,1,1v1.31
						C37.79,41.68,37.34,42.13,36.79,42.13z"/>
					<path class="st8" d="M43.61,42.13H42.3c-0.55,0-1-0.45-1-1v-1.31c0-0.55,0.45-1,1-1h1.31c0.55,0,1,0.45,1,1v1.31
						C44.61,41.68,44.16,42.13,43.61,42.13z"/>
					<path class="st8" d="M50.3,42.13h-1.31c-0.55,0-1-0.45-1-1v-1.31c0-0.55,0.45-1,1-1h1.31c0.55,0,1,0.45,1,1v1.31
						C51.3,41.68,50.85,42.13,50.3,42.13z"/>
				</g>
			</g>
			<g>
				<path class="st8" d="M23.84,29.21h1.73c1.06,0,1.65-1.22,0.98-2.05c-0.8-1-1.64-2.17-1.99-3.07c-0.75-1.93-0.65-5.62-0.65-5.62
					c0-3.31-2.68-5.99-5.99-5.99s-5.99,2.68-5.99,5.99c0,0,0.14,4.03-0.76,5.86c-0.41,0.85-1.13,1.96-1.78,2.91
					c-0.57,0.84,0.03,1.98,1.04,1.98h1.67"/>
				<line class="st8" x1="17.93" y1="12.47" x2="17.93" y2="9.66"/>
				<g>
					<path class="st8" d="M22.91,10.35c0,0,6.26,1.82,4.49,9.58"/>
					<path class="st8" d="M24.2,6.82c0,0,10.27,3.05,6.9,14.29"/>
				</g>
				<g>
					<path class="st8" d="M13.08,10.35c0,0-6.26,1.82-4.49,9.58"/>
					<path class="st8" d="M4.34,15.18C4.09,16.84,4.2,18.8,4.9,21.11"/>
					<path class="st8" d="M7.18,9.66c-1.3,1.28-2.47,3.08-2.84,5.52"/>
					<path class="st8" d="M11.8,6.82c0,0-2.49,0.74-4.62,2.84"/>
				</g>
			</g>
		</g>
		<path class="st11" d="M21.12,27.79c0.37,0.82,0.4,1.71,0.14,2.5c-0.29,0.87-0.93,1.63-1.83,2.04c-1.72,0.79-3.75,0.03-4.54-1.69
			s-0.03-3.75,1.69-4.54S20.33,26.07,21.12,27.79z"/>
	</g>
	<rect class="st5" width="65" height="65"/>
</g>
</svg>
