<?xml version="1.0" encoding="utf-8"?>
<!-- Generator: Adobe Illustrator 24.0.2, SVG Export Plug-In . SVG Version: 6.00 Build 0)  -->
<svg version="1.1" xmlns="http://www.w3.org/2000/svg" xmlns:xlink="http://www.w3.org/1999/xlink" x="0px" y="0px"
	 viewBox="0 0 65 65" style="enable-background:new 0 0 65 65;" xml:space="preserve">
<style type="text/css">
	.st0{display:none;}
	.st1{display:inline;fill:#98A6B0;}
	.st2{fill:none;stroke:#FCEA57;stroke-width:4;stroke-linecap:round;stroke-linejoin:round;}
	.st3{fill:none;stroke:#97A5AF;stroke-width:4;stroke-linecap:round;stroke-linejoin:round;}
	.st4{fill:none;stroke:#98A6B0;stroke-width:4;stroke-linecap:round;stroke-linejoin:round;stroke-miterlimit:10;}
	.st5{fill:none;}
	.st6{fill:#4C9F2E;}
	.st7{fill:#94D040;}
	.st8{fill:none;stroke:#95A6B1;stroke-width:1.6;stroke-linecap:round;stroke-linejoin:round;}
	.st9{fill:none;stroke:#95A6B1;stroke-width:1.6;stroke-linecap:round;stroke-linejoin:round;stroke-dasharray:3.9659,3.9659;}
	.st10{fill:none;stroke:#00A800;stroke-width:1.5;stroke-linecap:round;stroke-linejoin:round;stroke-miterlimit:10;}
	.st11{fill:none;stroke:#00A800;stroke-width:1.6;stroke-linecap:round;stroke-linejoin:round;stroke-miterlimit:10;}
	.st12{fill:none;stroke:#95A6B1;stroke-width:1.5467;stroke-linecap:round;stroke-linejoin:round;}
	.st13{fill:none;stroke:#95A6B1;stroke-width:1.4747;stroke-linecap:round;stroke-linejoin:round;}
	.st14{fill:none;stroke:#FFFFFF;stroke-width:1.5;stroke-linecap:round;stroke-linejoin:round;stroke-miterlimit:10;}
	.st15{fill:none;stroke:#FFFFFF;stroke-width:1.5;stroke-linecap:round;stroke-linejoin:round;}
</style>
<g id="BASE" class="st0">
</g>
<g id="Capa_1">
	<g>
		<g>
			<g>
				<g>
					<rect y="48.26" class="st5" width="65" height="16.74"/>
				</g>
				<g>
					<g>
						<path class="st6" d="M45.38,61.32h-7.17c-0.66,0-1.2-0.54-1.2-1.2s0.54-1.2,1.2-1.2h7.17c0.66,0,1.2,0.54,1.2,1.2
							S46.04,61.32,45.38,61.32z"/>
					</g>
					<g>
						<path class="st6" d="M53.11,61.32h-0.58c-0.66,0-1.2-0.54-1.2-1.2s0.54-1.2,1.2-1.2h0.58c0.66,0,1.2,0.54,1.2,1.2
							S53.77,61.32,53.11,61.32z"/>
					</g>
					<g>
						<path class="st6" d="M18.99,61.32h-7.1c-0.66,0-1.2-0.54-1.2-1.2s0.54-1.2,1.2-1.2h7.1c0.66,0,1.2,0.54,1.2,1.2
							S19.66,61.32,18.99,61.32z"/>
					</g>
					<g>
						<path class="st7" d="M31.05,61.32H18.53c-0.66,0-1.2-0.54-1.2-1.2s0.54-1.2,1.2-1.2h12.52c0.66,0,1.2,0.54,1.2,1.2
							S31.71,61.32,31.05,61.32z"/>
					</g>
					<g>
						<path class="st7" d="M35.47,55.21H11.89c-0.66,0-1.2-0.54-1.2-1.2s0.54-1.2,1.2-1.2h23.58c0.66,0,1.2,0.54,1.2,1.2
							S36.14,55.21,35.47,55.21z"/>
					</g>
					<g>
						<path class="st6" d="M53.11,55.21H34.75c-0.66,0-1.2-0.54-1.2-1.2s0.54-1.2,1.2-1.2h18.36c0.66,0,1.2,0.54,1.2,1.2
							S53.77,55.21,53.11,55.21z"/>
					</g>
					<g>
						<path class="st6" d="M12.32,55.21h-0.43c-0.66,0-1.2-0.54-1.2-1.2s0.54-1.2,1.2-1.2h0.43c0.66,0,1.2,0.54,1.2,1.2
							S12.98,55.21,12.32,55.21z"/>
					</g>
				</g>
			</g>
		</g>
		<rect class="st5" width="65" height="65"/>
	</g>
	<g>
		<path class="st11" d="M46.27,7.71c0.37,0.82,0.4,1.71,0.14,2.5c-0.29,0.87-0.93,1.63-1.83,2.04c-1.72,0.79-3.75,0.03-4.54-1.69
			c-0.79-1.72-0.03-3.75,1.69-4.54S45.48,5.99,46.27,7.71z"/>
		<path class="st8" d="M49.09,9.13h7.06v25.03c0,3.14-2.54,5.68-5.68,5.68H14.53c-3.14,0-5.68-2.54-5.68-5.68V9.13h28.03"/>
		<rect x="30.43" y="39.85" class="st8" width="4.14" height="6.93"/>
		<line class="st8" x1="25.76" y1="46.77" x2="39.24" y2="46.77"/>
		<circle class="st8" cx="32.5" cy="34.65" r="1.33"/>
		<line class="st8" x1="36.64" y1="34.66" x2="56.15" y2="34.66"/>
		<line class="st8" x1="8.85" y1="34.66" x2="28.29" y2="34.66"/>
		<g>
			<rect x="41.44" y="17.37" class="st13" width="10.47" height="10.47"/>
			<polyline class="st13" points="14.76,23.84 19.22,23.93 22.8,26.6 27.33,19.37 31.07,24.49 34.75,16.11 37.59,27.84 			"/>
		</g>
	</g>
	<line class="st13" x1="14.76" y1="15.14" x2="20.02" y2="15.14"/>
</g>
</svg>
