<svg id="Capa_1" data-name="Capa 1" xmlns="http://www.w3.org/2000/svg" viewBox="0 0 47 47"><defs><style>.cls-1{fill:none;}.cls-2{fill:#fff;}</style></defs><title>icono_menu-distancia_linea</title><rect class="cls-1" width="47" height="47"/><g id="Grupo_12873" data-name="Grupo 12873"><g id="Línea_2131" data-name="Línea 2131"><path class="cls-2" d="M32,43a.8.8,0,0,1-.8-.7V38.2a.8.8,0,0,1,.8-.7.7.7,0,0,1,.7.7v4.1A.7.7,0,0,1,32,43Z"/></g><g id="Línea_2132" data-name="Línea 2132"><path class="cls-2" d="M32,33.8a.8.8,0,0,1-.8-.7V4.7A.8.8,0,0,1,32,4a.7.7,0,0,1,.7.7V33.1A.7.7,0,0,1,32,33.8Z"/></g><g id="Línea_2133" data-name="Línea 2133"><path class="cls-2" d="M14.6,43a.7.7,0,0,1-.7-.7V38.2a.7.7,0,0,1,.7-.7.8.8,0,0,1,.8.7v4.1A.8.8,0,0,1,14.6,43Z"/></g><g id="Línea_2134" data-name="Línea 2134"><path class="cls-2" d="M14.6,17.8a.7.7,0,0,1-.7-.7V4.7a.7.7,0,0,1,.7-.7.8.8,0,0,1,.8.7V17.1A.8.8,0,0,1,14.6,17.8Z"/></g><g id="Línea_2135" data-name="Línea 2135"><path class="cls-2" d="M14.6,33.8a.7.7,0,0,1-.7-.7V28.2a.7.7,0,0,1,.7-.7.8.8,0,0,1,.8.7v4.9A.8.8,0,0,1,14.6,33.8Z"/></g><g id="Rectángulo_4525" data-name="Rectángulo 4525"><path class="cls-2" d="M35,39H11.6a.9.9,0,0,1-.8-.8V33.1a.9.9,0,0,1,.8-.8H35a.9.9,0,0,1,.8.8v5.1A.9.9,0,0,1,35,39ZM12.3,37.5h22V33.8h-22Z"/></g><g id="Grupo_12792" data-name="Grupo 12792"><g id="Rectángulo_4526" data-name="Rectángulo 4526"><path class="cls-2" d="M29,16.5H17.6a.7.7,0,0,1-.7-.7V12.6a2.7,2.7,0,0,1,2.7-2.7h7.5a2.8,2.8,0,0,1,2.7,2.7v3.2A.8.8,0,0,1,29,16.5ZM18.4,15h9.9V12.6a1.2,1.2,0,0,0-1.2-1.2H19.6a1.2,1.2,0,0,0-1.2,1.2Z"/></g><g id="Línea_2136" data-name="Línea 2136"><path class="cls-2" d="M19.6,11.4a.7.7,0,0,1-.7-.8V4.7a.7.7,0,0,1,.7-.7.8.8,0,0,1,.8.7v5.9A.8.8,0,0,1,19.6,11.4Z"/></g><g id="Línea_2137" data-name="Línea 2137"><path class="cls-2" d="M27.1,11.4a.7.7,0,0,1-.7-.8V4.7a.7.7,0,0,1,.7-.7.8.8,0,0,1,.8.7v5.9A.8.8,0,0,1,27.1,11.4Z"/></g></g><g id="Grupo_12793" data-name="Grupo 12793"><g id="Línea_2138" data-name="Línea 2138"><path class="cls-2" d="M23.3,29.7a.8.8,0,0,1-.7-.8v-9a.7.7,0,0,1,.7-.7.8.8,0,0,1,.8.7v9A.9.9,0,0,1,23.3,29.7Z"/></g><g id="Trazado_11512" data-name="Trazado 11512"><path class="cls-2" d="M23.3,29.7l-.5-.2-3.3-3.4a.7.7,0,0,1,1-1l2.8,2.8,2.8-2.8a.8.8,0,0,1,1.1,0,.7.7,0,0,1,0,1l-3.4,3.4Z"/></g></g><g id="Elipse_2117" data-name="Elipse 2117"><path class="cls-2" d="M14.6,26.5a4,4,0,0,1-3.9-3.9,3.9,3.9,0,0,1,3.9-3.8,3.8,3.8,0,0,1,3.8,3.8A3.9,3.9,0,0,1,14.6,26.5Zm0-6.2a2.4,2.4,0,1,0,2.3,2.3A2.4,2.4,0,0,0,14.6,20.3Z"/></g></g></svg>