<svg id="Capa_1" data-name="Capa 1" xmlns="http://www.w3.org/2000/svg" viewBox="0 0 47 47"><defs><style>.cls-1{fill:none;}.cls-2{fill:#19a500;}.cls-3{fill:#95a6b1;}</style></defs><title>unidad_de_transferencia</title><g id="Rectángulo_5125" data-name="Rectángulo 5125"><rect class="cls-1" width="47" height="47"/></g><g id="Trazado_11848" data-name="Trazado 11848"><path class="cls-2" d="M12.9,34.8a4.7,4.7,0,0,1,0-9.3,5.1,5.1,0,0,1,3.3,1.3,4.7,4.7,0,0,1,1.4,3.3h0A4.7,4.7,0,0,1,12.9,34.8Zm0-7.8h0a3.2,3.2,0,0,0,0,6.3,3.2,3.2,0,0,0,3.2-3.2h0a3.2,3.2,0,0,0-1-2.2A2.9,2.9,0,0,0,12.9,27Z"/></g><g id="Trazado_12383" data-name="Trazado 12383"><path class="cls-3" d="M34.8,42.8H14.3a.8.8,0,0,1-.7-.8V36.5a.7.7,0,0,1,.7-.7.8.8,0,0,1,.8.7v4.8H34V30.1H19.3a.7.7,0,0,1-.7-.8.7.7,0,0,1,.7-.7H34.8a.7.7,0,0,1,.7.7V42A.8.8,0,0,1,34.8,42.8Z"/></g><g id="Línea_2844" data-name="Línea 2844"><path class="cls-3" d="M34.8,34.8H19.3a.8.8,0,0,1-.8-.8.8.8,0,0,1,.8-.7H34.8a.7.7,0,0,1,.7.7A.7.7,0,0,1,34.8,34.8Z"/></g><g id="Elipse_2295" data-name="Elipse 2295"><path class="cls-3" d="M25.3,23.7a9.8,9.8,0,0,1,0-19.5,9.8,9.8,0,1,1,0,19.5Zm0-18A8.3,8.3,0,1,0,33.6,14,8.3,8.3,0,0,0,25.3,5.7Z"/></g><g id="Línea_2439" data-name="Línea 2439"><path class="cls-3" d="M28.3,14.7H25.4a.8.8,0,0,1-.8-.7.9.9,0,0,1,.8-.8h2.9a.8.8,0,0,1,.7.8A.7.7,0,0,1,28.3,14.7Z"/></g><g id="Línea_2440" data-name="Línea 2440"><path class="cls-3" d="M25.4,16.3a.8.8,0,0,1-.8-.7V12.4a.9.9,0,0,1,.8-.8.8.8,0,0,1,.7.8v3.2A.7.7,0,0,1,25.4,16.3Z"/></g><g id="Línea_2852" data-name="Línea 2852"><path class="cls-3" d="M25.3,30.1a.7.7,0,0,1-.7-.8V23a.8.8,0,0,1,.7-.8.9.9,0,0,1,.8.8v6.3A.8.8,0,0,1,25.3,30.1Z"/></g><path class="cls-3" d="M38,42.8H11.2a.8.8,0,0,1-.7-.8.7.7,0,0,1,.7-.7H38a.7.7,0,0,1,.7.7A.8.8,0,0,1,38,42.8Z"/></svg>