<svg id="Capa_1" data-name="Capa 1" xmlns="http://www.w3.org/2000/svg" viewBox="0 0 47 47"><defs><style>.cls-1{fill:none;}.cls-2{fill:#fff;}</style></defs><title>icono_menu-como_llegar</title><rect class="cls-1" width="47" height="47"/><g id="Grupo_12881" data-name="Grupo 12881"><g id="Trazado_11521" data-name="Trazado 11521"><path class="cls-2" d="M32.1,15.4c-.2,0-.4,0-.5-.2a.8.8,0,0,1-.1-1l1.6-1.7a.5.5,0,0,1,.5-.3h8.8a.7.7,0,0,1,.8.8.7.7,0,0,1-.8.7H34l-1.3,1.5Z"/></g><g id="Trazado_11522" data-name="Trazado 11522"><path class="cls-2" d="M4.6,41.5H4.2a.7.7,0,0,1-.3-1l7.7-14.3a.5.5,0,0,1,.6-.4h9l2.7-3a.7.7,0,1,1,1.1,1l-2.9,3.2a.6.6,0,0,1-.6.3H12.7L5.2,41.1A.8.8,0,0,1,4.6,41.5Z"/></g><g id="Trazado_11523" data-name="Trazado 11523"><path class="cls-2" d="M12.2,26.5a.9.9,0,0,1-.6-.3c-.7-.9-6.9-9.4-6.9-13.2a7.5,7.5,0,0,1,15,0h0c0,3.8-6.2,12.3-6.9,13.2A.6.6,0,0,1,12.2,26.5ZM12.2,7a6,6,0,0,0-6,6c0,2.6,3.9,8.6,6,11.5,2.1-2.9,6-8.9,6-11.5h0a5.6,5.6,0,0,0-1.8-4.2A5.6,5.6,0,0,0,12.2,7Z"/></g><g id="Elipse_2121" data-name="Elipse 2121"><path class="cls-2" d="M12.2,16a3,3,0,1,1,3-3A2.9,2.9,0,0,1,12.2,16Zm0-4.4A1.4,1.4,0,0,0,10.8,13a1.5,1.5,0,0,0,1.4,1.5A1.5,1.5,0,0,0,13.7,13,1.5,1.5,0,0,0,12.2,11.6Z"/></g><g id="Elipse_2122" data-name="Elipse 2122"><path class="cls-2" d="M28.2,22.9a4,4,0,1,1,4-4A4,4,0,0,1,28.2,22.9Zm0-6.4a2.5,2.5,0,0,0,0,4.9,2.5,2.5,0,1,0,0-4.9Z"/></g></g></svg>