<svg id="Capa_1" data-name="Capa 1" xmlns="http://www.w3.org/2000/svg" viewBox="0 0 47 47"><defs><style>.cls-1{fill:#19a500;}.cls-2{fill:none;}.cls-3{fill:#95a6b1;}</style></defs><title>distancia</title><g id="Trazado_11848" data-name="Trazado 11848"><path class="cls-1" d="M12.6,15.8a3.6,3.6,0,0,1,0-7.2,3.5,3.5,0,0,1,2.6,1,3.6,3.6,0,0,1,1.1,2.6h0A3.7,3.7,0,0,1,12.6,15.8Zm.1-5.7a2.1,2.1,0,0,0-2.2,2.1,2.1,2.1,0,0,0,2.1,2.1,2.1,2.1,0,0,0,2.2-2.1h0a2.1,2.1,0,0,0-.7-1.5A2,2,0,0,0,12.7,10.1Z"/></g><rect class="cls-2" width="47" height="47"/><g id="Trazado_11859" data-name="Trazado 11859"><path class="cls-3" d="M35.3,39.2h-.4l-.4-.4c-1.2-1.3-5.4-6.2-5.4-10.4a6.3,6.3,0,0,1,5.8-6.7h.7a6.4,6.4,0,0,1,5.8,6.8c0,4.1-4.2,9-5.4,10.3a1.2,1.2,0,0,1-.5.5Zm-.1-16.1H35a4.8,4.8,0,0,0-4.4,5.1c0,3.4,3.3,7.5,4.7,9.1,1.3-1.6,4.6-5.7,4.6-9a4.8,4.8,0,0,0-4.4-5.2h-.3Z"/></g><g id="Trazado_11860" data-name="Trazado 11860"><path class="cls-3" d="M35.2,29.9a2.2,2.2,0,1,1,2.2-2.2A2.2,2.2,0,0,1,35.2,29.9Zm0-2.9a.7.7,0,1,0,.7.7A.7.7,0,0,0,35.2,27Z"/></g><path class="cls-3" d="M20.4,13h-2a.8.8,0,0,1-.8-.8.7.7,0,0,1,.8-.7h2a.7.7,0,0,1,.7.7A.8.8,0,0,1,20.4,13Z"/><path class="cls-3" d="M24,39.1H20.2a.9.9,0,0,1-.8-.8.8.8,0,0,1,.8-.7H24a.7.7,0,0,1,.7.7A.8.8,0,0,1,24,39.1ZM16.4,39h-.1a4.7,4.7,0,0,1-3.7-2.2.7.7,0,0,1,.3-1,.8.8,0,0,1,1,.2,2.9,2.9,0,0,0,2.5,1.5c.5.1.8.4.7.8A.7.7,0,0,1,16.4,39Zm-3.8-5.5a.7.7,0,0,1-.7-.8V29a.7.7,0,0,1,.7-.8.7.7,0,0,1,.8.8v3.7A.7.7,0,0,1,12.6,33.5Zm.9-7.4-.5-.2a.8.8,0,0,1-.1-1,4.6,4.6,0,0,1,3.7-1.8h.2a.8.8,0,0,1,.8.7.9.9,0,0,1-.8.8h-.2a3,3,0,0,0-2.5,1.2A.9.9,0,0,1,13.5,26.1Zm10.3-1.5H20.6a.8.8,0,0,1-.7-.8.7.7,0,0,1,.7-.7h3.7a.8.8,0,0,1,.8.7.6.6,0,0,1-.6.8Zm3.6-2.2H27a.8.8,0,0,1-.3-1,4,4,0,0,0,.3-1.5V17.9a.8.8,0,0,1,.8-.7.7.7,0,0,1,.7.7v1.9A4.2,4.2,0,0,1,28,22,.8.8,0,0,1,27.4,22.4ZM27.3,15a.8.8,0,0,1-.7-.4A3.3,3.3,0,0,0,24.1,13a.8.8,0,0,1-.7-.8.8.8,0,0,1,.8-.7,4.7,4.7,0,0,1,3.7,2.3.8.8,0,0,1-.3,1.1Z"/><path class="cls-3" d="M29.8,39.1h-2a.8.8,0,0,1-.7-.8.7.7,0,0,1,.7-.7h2a.7.7,0,0,1,.8.7A.8.8,0,0,1,29.8,39.1Z"/></svg>