<svg id="Capa_1" data-name="Capa 1" xmlns="http://www.w3.org/2000/svg" viewBox="0 0 47 47"><defs><style>.cls-1{fill:none;}.cls-2{fill:#95a6b1;}.cls-3{fill:#19a500;}</style></defs><title>tiempo_aproximado</title><rect class="cls-1" width="47" height="47"/><g id="Trazado_11854" data-name="Trazado 11854"><path class="cls-2" d="M23.5,36.6a13.1,13.1,0,0,1,0-26.2.9.9,0,0,1,.8.8.8.8,0,0,1-.8.7A11.6,11.6,0,1,0,35.1,23.5a.7.7,0,0,1,.7-.7.8.8,0,0,1,.8.7A13.1,13.1,0,0,1,23.5,36.6Z"/></g><g id="Línea_2434" data-name="Línea 2434"><path class="cls-2" d="M30.1,24.2H24.8a.7.7,0,0,1-.8-.7.8.8,0,0,1,.8-.8h5.3a.8.8,0,0,1,.8.8A.7.7,0,0,1,30.1,24.2Z"/></g><g id="Trazado_11855" data-name="Trazado 11855"><path class="cls-2" d="M23.5,25.5a1.8,1.8,0,0,1-1.4-.6,1.9,1.9,0,0,1,0-2.8,1.8,1.8,0,0,1,1.4-.6,2,2,0,0,1,2,2h0a2.1,2.1,0,0,1-2,2Zm0-2.5h-.4a.9.9,0,0,0,0,.8h.8a.6.6,0,0,0,.1-.4h0A.5.5,0,0,0,23.5,23Zm2,.5Z"/></g><g id="Línea_2435" data-name="Línea 2435"><path class="cls-2" d="M23.5,23a.9.9,0,0,1-.8-.8V18.5a.8.8,0,0,1,.8-.7.7.7,0,0,1,.7.7v3.7A.8.8,0,0,1,23.5,23Z"/></g><g id="Trazado_11856" data-name="Trazado 11856"><path class="cls-3" d="M35.6,21.9a.9.9,0,0,1-.8-.6,11.4,11.4,0,0,0-9-9.1.8.8,0,0,1,.3-1.5A12.9,12.9,0,0,1,36.3,21a.8.8,0,0,1-.6.9Z"/></g></svg>