<svg id="Capa_1" data-name="Capa 1" xmlns="http://www.w3.org/2000/svg" viewBox="0 0 47 47"><defs><style>.cls-1{fill:#19a500;}.cls-2{fill:#95a6b1;}.cls-3{fill:none;}</style></defs><title>via_aerea</title><g id="Trazado_11848" data-name="Trazado 11848"><path class="cls-1" d="M5,30.2A4.4,4.4,0,0,1,.6,25.8,4.4,4.4,0,0,1,5,21.5H5a4.3,4.3,0,0,1,4.3,4.3h0A4.4,4.4,0,0,1,5,30.2ZM5,23H5a2.8,2.8,0,0,0-2.9,2.8A2.9,2.9,0,0,0,5,28.7a2.9,2.9,0,0,0,2.8-2.9h0A2.8,2.8,0,0,0,5,23Z"/></g><g id="Trazado_11660" data-name="Trazado 11660"><path class="cls-2" d="M31.7,27.7a.8.8,0,0,1-.7-.5.7.7,0,0,1,.4-1L44,21.3a1.2,1.2,0,0,0,.8-.9,1.1,1.1,0,0,0-.2-1.2,5.6,5.6,0,0,0-6.3-1.5l-9.4,3.7L13.8,27.3c-.4.1-.8,0-.9-.4a.7.7,0,0,1,.4-1L28.4,20l9.4-3.7a6.8,6.8,0,0,1,7.9,1.9,3,3,0,0,1,.6,2.6,2.7,2.7,0,0,1-1.7,1.9L31.9,27.6Z"/></g><g id="Trazado_11661" data-name="Trazado 11661"><path class="cls-2" d="M10.7,35.7a3.7,3.7,0,0,1-3.2-1.9l-.8-2.3a.7.7,0,0,1,.4-1,.9.9,0,0,1,1,.5l.8,2.1a2.1,2.1,0,0,0,2.7.8l12.8-5a.8.8,0,0,1,1,.5.6.6,0,0,1-.4.9l-12.8,5A2.8,2.8,0,0,1,10.7,35.7Z"/></g><g id="Línea_2295" data-name="Línea 2295"><path class="cls-2" d="M13.5,27.3h-.1l-2.8-.4a.6.6,0,0,1-.6-.8.7.7,0,0,1,.8-.7l2.9.5a.6.6,0,0,1,.6.8A.8.8,0,0,1,13.5,27.3Z"/></g><g id="Trazado_11662" data-name="Trazado 11662"><path class="cls-2" d="M23.2,42.3a.5.5,0,0,1-.5-.3.6.6,0,0,1-.3-.6L24,29.6a.7.7,0,0,1,.8-.7.8.8,0,0,1,.7.8l-1.4,11h.6A2.8,2.8,0,0,0,27,38.8l3.9-12.1a.8.8,0,0,1,1.5.5l-4,12.1a4,4,0,0,1-3.6,2.8l-1.5.2Z"/></g><g id="Trazado_11663" data-name="Trazado 11663"><path class="cls-2" d="M22.6,23.8c-.2,0-.5,0-.6-.2L14.7,15a.7.7,0,0,1-.2-.6.9.9,0,0,1,.4-.6l1.4-.7a4.1,4.1,0,0,1,4.5.4l8.3,6.7a.7.7,0,0,1-.9,1.1l-8.3-6.6a2.6,2.6,0,0,0-2.9-.3l-.6.3,6.7,7.9a.8.8,0,0,1,0,1.1Z"/></g><rect class="cls-3" width="47" height="47"/></svg>