<svg id="Capa_1" data-name="Capa 1" xmlns="http://www.w3.org/2000/svg" viewBox="0 0 47 47"><defs><style>.cls-1{fill:#95a6b1;}.cls-2{fill:#19a500;}.cls-3{fill:none;}</style></defs><title>via_terrestre</title><path class="cls-1" d="M11.2,36.9a4.4,4.4,0,0,1-4.4-4.4,4.4,4.4,0,0,1,8.8,0A4.4,4.4,0,0,1,11.2,36.9Zm0-7.3a2.9,2.9,0,1,0,2.9,2.9A2.9,2.9,0,0,0,11.2,29.6Z"/><path class="cls-1" d="M38.3,36.9a4.4,4.4,0,0,1-4.4-4.4,4.4,4.4,0,0,1,8.8,0A4.4,4.4,0,0,1,38.3,36.9Zm0-7.3a2.9,2.9,0,1,0,2.9,2.9A2.9,2.9,0,0,0,38.3,29.6Z"/><path class="cls-1" d="M34.6,32.9H14.9a.8.8,0,0,1-.8-.7.9.9,0,0,1,.8-.8H34.6a.8.8,0,0,1,.8.8A.7.7,0,0,1,34.6,32.9Z"/><path class="cls-1" d="M45.8,32.7H41.9a.8.8,0,0,1-.7-.8.7.7,0,0,1,.7-.7H45c-.1-5.9-3.7-6.9-6.5-7.2h-.3a.5.5,0,0,1-.4-.2c-5.7-5.6-10.2-6-10.2-6L11,18.6a.8.8,0,1,1-.1-1.5l16.7-.8c.3,0,5,.4,11,6.2h0c5.4.5,8.1,3.7,7.9,9.5A.7.7,0,0,1,45.8,32.7Z"/><path class="cls-1" d="M7.6,32.7H3a.9.9,0,0,1-.8-.8V25.6a.9.9,0,0,1,.8-.8.8.8,0,0,1,.7.8v5.6H7.6a.8.8,0,0,1,.8.7A.9.9,0,0,1,7.6,32.7Z"/><path class="cls-1" d="M11.3,24.1a.8.8,0,0,1-.6-.4.6.6,0,0,1-.1-.7l2.2-5.5a.8.8,0,0,1,.9-.5.9.9,0,0,1,.5,1l-1.8,4.6H38.3a.8.8,0,0,1,.7.8.7.7,0,0,1-.7.7Z"/><path class="cls-1" d="M22.6,24.1a.8.8,0,0,1-.8-.8v-6a.8.8,0,0,1,.8-.8.8.8,0,0,1,.7.8v6A.8.8,0,0,1,22.6,24.1Z"/><path class="cls-1" d="M44.9,38.2H5.8a.7.7,0,0,1-.7-.8.7.7,0,0,1,.7-.7H44.9a.7.7,0,0,1,.7.7A.7.7,0,0,1,44.9,38.2Z"/><g id="Trazado_11848" data-name="Trazado 11848"><path class="cls-2" d="M4.8,23.8A4.4,4.4,0,0,1,.4,19.5a4.4,4.4,0,0,1,4.4-4.4h0a4.5,4.5,0,0,1,4.4,4.3h0A4.4,4.4,0,0,1,4.8,23.8Zm0-7.2h0a2.9,2.9,0,1,0,2.9,2.9h0A3,3,0,0,0,4.8,16.6Z"/></g><rect class="cls-3" width="47" height="47"/></svg>