<?xml version="1.0" encoding="utf-8"?>
<!-- Generator: Adobe Illustrator 24.0.2, SVG Export Plug-In . SVG Version: 6.00 Build 0)  -->
<svg version="1.1" id="Layer_1" xmlns="http://www.w3.org/2000/svg" xmlns:xlink="http://www.w3.org/1999/xlink" x="0px" y="0px"
	 viewBox="0 0 125 125" style="enable-background:new 0 0 125 125;" xml:space="preserve">
<style type="text/css">
	.st0{fill:#C9D2D7;}
	.st1{fill:#2B5CDA;}
</style>
<g>
	<path class="st0" d="M89.5,7.2L78.3,30.1c12,5.8,20.2,18.1,20.2,32.4c0,19.9-16.1,36-36,36c-19.9,0-36-16.1-36-36s16.1-36,36-36V1
		C28.5,1,1,28.5,1,62.5S28.5,124,62.5,124c34,0,61.5-27.5,61.5-61.5C124,38.2,109.9,17.2,89.5,7.2z"/>
	<path class="st1" d="M89.5,7.2c-8.1-4-17.3-6.2-27-6.2v1.6v23.9c5.7,0,11,1.3,15.8,3.6L89.5,7.2z"/>
</g>
</svg>
