<?xml version="1.0" encoding="utf-8"?>
<!-- Generator: Adobe Illustrator 24.0.2, SVG Export Plug-In . SVG Version: 6.00 Build 0)  -->
<svg version="1.1" id="Layer_1" xmlns="http://www.w3.org/2000/svg" xmlns:xlink="http://www.w3.org/1999/xlink" x="0px" y="0px"
	 viewBox="0 0 125 125" style="enable-background:new 0 0 125 125;" xml:space="preserve">
<style type="text/css">
	.st0{fill:#FFD800;}
	.st1{fill:#C9D2D7;}
	.st2{fill:#00AF00;}
	.st3{fill:#2B5CDA;}
</style>
<g>
	<g>
		<path class="st0" d="M26.5,62.5c0-19.9,16.1-36,36-36v-25c-1.2,0-3,0.1-4.3,0.1C24.6,4-0.7,33.2,1.7,66.7L26.6,65
			C26.5,64.2,26.5,63.3,26.5,62.5z"/>
		<path class="st1" d="M97.1,72.4c-4.3,15.1-18.2,26.1-34.6,26.1c-19,0-34.6-14.8-35.9-33.5L1.7,66.7c1.8,26.1,18.9,47.1,44,54.4
			c32.4,9.3,66.1-9.4,75.4-41.8L97.1,72.4z"/>
		<path class="st2" d="M89.2,7.7L78.3,30.1c12,5.8,20.2,18.1,20.2,32.4c0,3.4-0.5,6.8-1.4,9.9l24,6.9
			C129.3,50.6,116.1,20.8,89.2,7.7z"/>
	</g>
	<path class="st3" d="M62.5,26.5c5.7,0,11,1.3,15.8,3.6L89.2,7.7c-9-4.4-16.8-6.2-26.7-6.2L62.5,26.5C62.5,26.5,62.5,26.5,62.5,26.5
		z"/>
</g>
</svg>
