<svg id="Capa_1" data-name="Capa 1" xmlns="http://www.w3.org/2000/svg" viewBox="0 0 47 47"><defs><style>.cls-1{fill:none;}.cls-2{fill:#fff;}</style></defs><title>icono_menu-ubicacion</title><rect class="cls-1" width="47" height="47"/><g id="Grupo_12849" data-name="Grupo 12849"><g id="Line_1218" data-name="Line 1218"><path class="cls-2" d="M40.4,40.2H8.4a.7.7,0,0,1-.7-.7.8.8,0,0,1,.7-.8h32a.8.8,0,0,1,.7.8A.7.7,0,0,1,40.4,40.2Z"/></g><g id="Line_1219" data-name="Line 1219"><path class="cls-2" d="M11.9,40.2a.7.7,0,0,1-.7-.7V35.6a.7.7,0,0,1,.7-.7.8.8,0,0,1,.8.7v3.9A.8.8,0,0,1,11.9,40.2Z"/></g><g id="Line_1221" data-name="Line 1221"><path class="cls-2" d="M20.4,40.2a.7.7,0,0,1-.7-.7V32a.7.7,0,0,1,.7-.7.8.8,0,0,1,.8.7v7.5A.8.8,0,0,1,20.4,40.2Z"/></g><g id="Line_1222" data-name="Line 1222"><path class="cls-2" d="M29.1,40.2a.7.7,0,0,1-.7-.7v-12a.7.7,0,0,1,.7-.7.7.7,0,0,1,.8.7v12A.7.7,0,0,1,29.1,40.2Z"/></g><g id="Line_1223" data-name="Line 1223"><path class="cls-2" d="M37.9,40.2a.8.8,0,0,1-.8-.7V20.4a.8.8,0,0,1,.8-.8.7.7,0,0,1,.7.8V39.5A.7.7,0,0,1,37.9,40.2Z"/></g></g><g id="Grupo_12850" data-name="Grupo 12850"><g id="Path_1098" data-name="Path 1098"><path class="cls-2" d="M30.3,17.9l-.5-.2-1.7-1.4-1.3,1.2a.8.8,0,0,1-1-.1.8.8,0,0,1,0-1.1l1.8-1.5a.7.7,0,0,1,.9,0l1.7,1.3,8.1-8.2a.8.8,0,0,1,1.1,0,.7.7,0,0,1,0,1l-8.6,8.8Z"/></g><g id="Path_1099" data-name="Path 1099"><path class="cls-2" d="M38.9,13.1a.7.7,0,0,1-.8-.7V9.2H34.9a.9.9,0,0,1-.8-.8.8.8,0,0,1,.8-.7h4a.7.7,0,0,1,.7.7v4A.7.7,0,0,1,38.9,13.1Z"/></g></g><g id="Grupo_12856" data-name="Grupo 12856"><g id="Path_1227" data-name="Path 1227"><path class="cls-2" d="M19.3,15.4A3.4,3.4,0,0,1,15.9,12a.8.8,0,0,1,.8-.7.7.7,0,0,1,.7.7,1.9,1.9,0,0,0,1.9,1.9A1.8,1.8,0,0,0,21.2,12a.8.8,0,0,1,.8-.7.7.7,0,0,1,.7.7A3.4,3.4,0,0,1,19.3,15.4Z"/></g><g id="Path_1228" data-name="Path 1228"><path class="cls-2" d="M22,12.8a.9.9,0,0,1-.8-.8V10.2a1.8,1.8,0,0,0-1.9-1.9,1.9,1.9,0,0,0-1.9,1.9V12a.8.8,0,0,1-.7.8.8.8,0,0,1-.8-.8V10.2a3.4,3.4,0,1,1,6.8,0V12A.8.8,0,0,1,22,12.8Z"/></g><g id="Grupo_12855" data-name="Grupo 12855"><g id="Grupo_12852" data-name="Grupo 12852"><g id="Line_1370" data-name="Line 1370"><path class="cls-2" d="M26.2,26.5H12.5a.8.8,0,0,1-.8-.7.9.9,0,0,1,.8-.8H26.2a.8.8,0,0,1,.7.8A.7.7,0,0,1,26.2,26.5Z"/></g><g id="Grupo_12851" data-name="Grupo 12851"><g id="Group_2600" data-name="Group 2600"><g id="Path_1226" data-name="Path 1226"><path class="cls-2" d="M26.2,26.5a.8.8,0,0,1-.8-.7l-.2-3a3.4,3.4,0,0,1-.1-1,4.7,4.7,0,0,0-.7-2.9,3.1,3.1,0,0,0-2-1.1,14.6,14.6,0,0,0-2.9-.2h-.3a.7.7,0,0,1-.8-.8.7.7,0,0,1,.8-.7h.3a16.2,16.2,0,0,1,3.1.2,5.1,5.1,0,0,1,3,1.7,5.6,5.6,0,0,1,1,3.7,3.1,3.1,0,0,0,.1,1l.2,3a.8.8,0,0,1-.7.8Z"/></g><g id="Path_1226-2" data-name="Path 1226-2"><path class="cls-2" d="M12.5,26.5h-.1a.8.8,0,0,1-.7-.8l.3-3a.8.8,0,1,1,1.5.1l-.3,3A.7.7,0,0,1,12.5,26.5Z"/></g></g></g></g><g id="Grupo_12854" data-name="Grupo 12854"><g id="Line_1370-2" data-name="Line 1370-2"><path class="cls-2" d="M26.2,26.5H12.5a.8.8,0,0,1-.8-.7.9.9,0,0,1,.8-.8H26.2a.8.8,0,0,1,.7.8A.7.7,0,0,1,26.2,26.5Z"/></g><g id="Grupo_12853" data-name="Grupo 12853"><g id="Group_2600-2" data-name="Group 2600-2"><g id="Path_1226-3" data-name="Path 1226-3"><path class="cls-2" d="M12.5,26.5h-.1a.8.8,0,0,1-.7-.8l.3-3a.8.8,0,1,1,1.5.1l-.3,3A.7.7,0,0,1,12.5,26.5Z"/></g><g id="Path_1226-4" data-name="Path 1226-4"><path class="cls-2" d="M22.5,17.8h-.1a14.6,14.6,0,0,0-2.9-.2H17.9a.7.7,0,0,1-.8-.7.7.7,0,0,1,.7-.8h1.7a16.2,16.2,0,0,1,3.1.2.7.7,0,0,1,.6.9C23.2,17.5,22.8,17.8,22.5,17.8Z"/></g><g id="Path_1226-5" data-name="Path 1226-5"><path class="cls-2" d="M26.2,26.5a.8.8,0,0,1-.8-.7l-.2-3a.6.6,0,0,1,.6-.8.9.9,0,0,1,.9.7l.2,3a.8.8,0,0,1-.7.8Z"/></g></g></g></g></g></g><g id="Elipse_2131" data-name="Elipse 2131"><path class="cls-2" d="M13,20.9A3.5,3.5,0,1,1,13,14a3.5,3.5,0,1,1,0,6.9Zm0-5.4a2,2,0,0,0-2,2,1.9,1.9,0,0,0,2,1.9,1.9,1.9,0,0,0,2-1.9A2,2,0,0,0,13,15.5Z"/></g><g id="Línea_2179" data-name="Línea 2179"><path class="cls-2" d="M8.4,29.8l-.6-.2a.8.8,0,0,1,0-1.1l1.8-1.8a.8.8,0,0,1,1.1,1.1L8.9,29.6Z"/></g></svg>