<?xml version="1.0" encoding="utf-8"?>
<!-- Generator: Adobe Illustrator 24.0.2, SVG Export Plug-In . SVG Version: 6.00 Build 0)  -->
<svg version="1.1" id="Capa_1" xmlns="http://www.w3.org/2000/svg" xmlns:xlink="http://www.w3.org/1999/xlink" x="0px" y="0px"
	 viewBox="0 0 65 65" style="enable-background:new 0 0 65 65;" xml:space="preserve">
<style type="text/css">
	.st0{fill:none;}
	.st1{fill:#95A6B1;}
	.st2{fill:#00A800;}
	.st3{clip-path:url(#SVGID_2_);}
	.st4{fill:#4DA12E;}
	.st5{fill:#96D200;}
</style>
<g id="Capa_2_1_">
</g>
<g id="Capa_1_1_">
	<g>
		<g id="Grupo_14998_2_" transform="translate(-83.703)">
			<g id="Rectángulo_3799-2_1_">
				<rect x="83.7" class="st0" width="65" height="65"/>
			</g>
			<g id="Grupo_15005_2_">
				<g id="Grupo_15004_2_">
					<g id="Línea_2848_2_">
						<path class="st1" d="M142.23,50.05h-51.4c-0.44,0-0.8-0.36-0.8-0.8s0.36-0.8,0.8-0.8h51.4c0.44,0,0.8,0.36,0.8,0.8
							S142.67,50.05,142.23,50.05z"/>
					</g>
					<g id="Trazado_12467_2_">
						<path class="st1" d="M104.39,49.82c-0.44,0-0.8-0.36-0.8-0.8V12.43c0-1.27-1.04-2.31-2.32-2.31h-3.62
							c-1.27,0-2.31,1.04-2.31,2.31v2.15c0,0.44-0.36,0.8-0.8,0.8s-0.8-0.36-0.8-0.8v-2.15c0-2.16,1.75-3.91,3.91-3.91h3.62
							c2.16,0,3.92,1.75,3.92,3.91v36.59C105.19,49.46,104.83,49.82,104.39,49.82z"/>
					</g>
					<g id="Línea_2849_2_">
						<path class="st1" d="M94.54,50.04c-0.44,0-0.8-0.36-0.8-0.8V30.23c0-0.44,0.36-0.8,0.8-0.8s0.8,0.36,0.8,0.8v19.01
							C95.34,49.68,94.98,50.04,94.54,50.04z"/>
					</g>
					<g id="Trazado_12468_2_">
						<path class="st1" d="M138.51,50.04c-0.44,0-0.8-0.36-0.8-0.8V34.68c0-1.21-0.99-2.2-2.2-2.2h-9.12c-1.21,0-2.2,0.99-2.2,2.2
							v14.49c0,0.44-0.36,0.8-0.8,0.8s-0.8-0.36-0.8-0.8V34.68c0-2.1,1.7-3.8,3.8-3.8h9.12c2.1,0,3.8,1.7,3.8,3.8v14.56
							C139.31,49.68,138.95,50.04,138.51,50.04z"/>
					</g>
					<g id="Trazado_12469_2_">
						<path class="st1" d="M119.65,49.97c-0.44,0-0.8-0.36-0.8-0.8V28.19c0-2.1,1.7-3.8,3.8-3.8h5.22c2.1,0,3.8,1.7,3.8,3.8v3.34
							c0,0.44-0.36,0.8-0.8,0.8s-0.8-0.36-0.8-0.8v-3.34c0-1.21-0.99-2.2-2.2-2.2h-5.22c-1.21,0-2.2,0.99-2.2,2.2v20.98
							C120.45,49.61,120.09,49.97,119.65,49.97z"/>
					</g>
					<g id="Trazado_12470_2_">
						<path class="st1" d="M108.35,49.82c-0.44,0-0.8-0.36-0.8-0.8v-31c0-0.99-0.81-1.8-1.8-1.8h-1.37c-0.44,0-0.8-0.36-0.8-0.8
							s0.36-0.8,0.8-0.8h1.37c1.88,0,3.4,1.52,3.4,3.4v31C109.15,49.46,108.79,49.82,108.35,49.82z"/>
					</g>
					<g id="Trazado_12471_2_">
						<path class="st1" d="M123.13,44.16h-6.92c-1.7,0-3.09-1.39-3.09-3.09v-7.71c0-0.82-0.67-1.49-1.49-1.49h-7.02
							c-0.44,0-0.8-0.36-0.8-0.8s0.36-0.8,0.8-0.8h7.02c1.7,0,3.09,1.39,3.09,3.09v7.71c0,0.82,0.67,1.49,1.49,1.49h6.92
							c0.44,0,0.8,0.36,0.8,0.8S123.57,44.16,123.13,44.16z"/>
					</g>
					<g id="Trazado_12472_2_">
						<path class="st1" d="M131.46,45.28c-1.78,0-3.23-1.44-3.23-3.22c0.08-0.67,0.24-1.23,0.49-1.75l1.93-4.32
							c0.13-0.28,0.41-0.47,0.72-0.47c0.31,0.01,0.6,0.17,0.73,0.45l2.1,4.34c0,0.01,0.01,0.02,0.01,0.02
							c0.22,0.51,0.38,1.05,0.46,1.62c0,0.04,0.01,0.08,0.01,0.11C134.68,43.84,133.24,45.28,131.46,45.28z M131.41,38.21
							l-1.24,2.77c-0.18,0.38-0.3,0.78-0.35,1.18c0.01,0.8,0.74,1.52,1.64,1.52c0.88,0,1.59-0.7,1.62-1.57
							c-0.06-0.4-0.17-0.78-0.33-1.13L131.41,38.21z"/>
					</g>
					<g id="Línea_2850_2_">
						<path class="st1" d="M125.61,25.7c-0.44,0-0.8-0.36-0.8-0.8v-5.99c0-0.44,0.36-0.8,0.8-0.8s0.8,0.36,0.8,0.8v5.99
							C126.41,25.34,126.05,25.7,125.61,25.7z"/>
					</g>
					<g id="Rectángulo_5120_2_">
						<path class="st1" d="M133.13,19.67h-20.18c-0.44,0-0.8-0.36-0.8-0.8V7.61c-0.01-1.59,0.61-3.08,1.73-4.21
							c1.12-1.13,2.62-1.75,4.22-1.75h20.18c0.44,0,0.8,0.36,0.8,0.8v11.27C139.08,17,136.41,19.67,133.13,19.67z M113.75,18.07
							h19.38c2.4,0,4.35-1.95,4.35-4.35V3.25H118.1c-1.17,0-2.26,0.45-3.09,1.28c-0.82,0.82-1.27,1.92-1.26,3.08V18.07z"/>
					</g>
					<g id="Trazado_11848_1_">
						<path class="st2" d="M94.5,27.27c-2.75,0-4.98-2.24-4.98-4.99c0-2.75,2.23-4.98,4.98-4.98c0.01,0,0.02,0,0.02,0
							c2.69,0,4.9,2.17,4.96,4.86c0.01,0.04,0.01,0.09,0.01,0.13C99.49,25.04,97.25,27.27,94.5,27.27z M94.52,18.9
							c0,0-0.01,0-0.02,0c-1.87,0-3.38,1.52-3.38,3.38c0,1.87,1.52,3.39,3.38,3.39c1.84,0,3.35-1.47,3.39-3.3
							c-0.01-0.04-0.01-0.08-0.01-0.12C97.87,20.4,96.37,18.9,94.52,18.9z M98.69,22.29L98.69,22.29L98.69,22.29z"/>
					</g>
					<g id="Grupo_15000_1_">
						<g id="Grupo_14999_1_">
							<g id="Línea_2851_1_">
								<path class="st1" d="M129.96,16.87c-0.44,0-0.8-0.36-0.8-0.8V8.53c0-0.44,0.36-0.8,0.8-0.8s0.8,0.36,0.8,0.8v7.54
									C130.76,16.51,130.4,16.87,129.96,16.87z"/>
							</g>
							<g id="Grupo_14998-2_1_">
								<g id="Rectángulo_5121_1_">
									<path class="st1" d="M132.08,11.74h-2.12c-0.44,0-0.8-0.36-0.8-0.8V7.61c0.01-1.61,1.32-2.92,2.92-2.92h0.16
										c1.61,0,2.92,1.31,2.92,2.91v1.06C135.16,10.36,133.78,11.74,132.08,11.74z M130.76,10.14h1.32c0.82,0,1.48-0.66,1.48-1.48
										V7.6c0-0.72-0.59-1.31-1.32-1.31h-0.16c-0.72,0-1.31,0.6-1.32,1.33V10.14z"/>
								</g>
								<g id="Línea_2852_1_">
									<path class="st1" d="M134.35,16.87c-0.23,0-0.45-0.09-0.61-0.28l-4.38-5.12c-0.29-0.34-0.25-0.84,0.09-1.13
										c0.34-0.29,0.84-0.25,1.13,0.09l4.38,5.12c0.29,0.34,0.25,0.84-0.09,1.13C134.72,16.81,134.54,16.87,134.35,16.87z"/>
								</g>
							</g>
						</g>
					</g>
					<g id="Grupo_15003_1_">
						<g id="Grupo_15002_1_">
							<g id="Línea_2853_1_">
								<path class="st1" d="M116.17,16.87c-0.44,0-0.8-0.36-0.8-0.8V8.53c0-0.44,0.36-0.8,0.8-0.8s0.8,0.36,0.8,0.8v7.54
									C116.97,16.51,116.61,16.87,116.17,16.87z"/>
							</g>
							<g id="Grupo_15001_1_">
								<g id="Rectángulo_5122_1_">
									<path class="st1" d="M118.29,11.74h-2.12c-0.44,0-0.8-0.36-0.8-0.8V7.61c0-1.61,1.31-2.92,2.92-2.92h0.16
										c1.61,0,2.92,1.31,2.92,2.91v1.06C121.37,10.36,119.99,11.74,118.29,11.74z M116.97,10.14h1.32c0.82,0,1.48-0.66,1.48-1.48
										V7.6c0-0.72-0.59-1.31-1.32-1.31h-0.16c-0.73,0-1.32,0.59-1.32,1.32V10.14z"/>
								</g>
							</g>
							<g id="Trazado_12473_4_">
								<path class="st1" d="M125.29,16.86h-0.16c-1.61-0.01-2.92-1.32-2.92-2.92V7.61c0.01-1.61,1.32-2.92,2.92-2.92h0.16
									c1.61,0,2.92,1.31,2.92,2.92v6.33C128.2,15.55,126.89,16.86,125.29,16.86z M125.13,6.29c-0.72,0-1.31,0.6-1.32,1.33v6.32
									c0,0.72,0.6,1.31,1.33,1.32h0.15c0.72,0,1.31-0.6,1.32-1.33V7.61c0-0.73-0.59-1.32-1.32-1.32H125.13z"/>
							</g>
						</g>
					</g>
				</g>
			</g>
		</g>
		<g>
			<defs>
				<rect id="SVGID_1_" y="48.26" width="65" height="16.74"/>
			</defs>
			<clipPath id="SVGID_2_">
				<use xlink:href="#SVGID_1_"  style="overflow:visible;"/>
			</clipPath>
			<g class="st3">
				<g>
					<rect y="48.26" class="st0" width="65" height="16.74"/>
				</g>
				<g>
					<g>
						<path class="st4" d="M45.38,61.32h-7.17c-0.66,0-1.2-0.54-1.2-1.2s0.54-1.2,1.2-1.2h7.17c0.66,0,1.2,0.54,1.2,1.2
							S46.04,61.32,45.38,61.32z"/>
					</g>
					<g>
						<path class="st4" d="M53.11,61.32h-0.58c-0.66,0-1.2-0.54-1.2-1.2s0.54-1.2,1.2-1.2h0.58c0.66,0,1.2,0.54,1.2,1.2
							S53.77,61.32,53.11,61.32z"/>
					</g>
					<g>
						<path class="st4" d="M18.99,61.32h-7.1c-0.66,0-1.2-0.54-1.2-1.2s0.54-1.2,1.2-1.2h7.1c0.66,0,1.2,0.54,1.2,1.2
							S19.65,61.32,18.99,61.32z"/>
					</g>
					<g>
						<path class="st5" d="M31.05,61.32H18.53c-0.66,0-1.2-0.54-1.2-1.2s0.54-1.2,1.2-1.2h12.52c0.66,0,1.2,0.54,1.2,1.2
							S31.71,61.32,31.05,61.32z"/>
					</g>
					<g>
						<path class="st5" d="M35.47,55.21H11.89c-0.66,0-1.2-0.54-1.2-1.2s0.54-1.2,1.2-1.2h23.58c0.66,0,1.2,0.54,1.2,1.2
							S36.13,55.21,35.47,55.21z"/>
					</g>
					<g>
						<path class="st4" d="M53.11,55.21H34.75c-0.66,0-1.2-0.54-1.2-1.2s0.54-1.2,1.2-1.2h18.36c0.66,0,1.2,0.54,1.2,1.2
							S53.77,55.21,53.11,55.21z"/>
					</g>
					<g>
						<path class="st4" d="M12.32,55.21h-0.43c-0.66,0-1.2-0.54-1.2-1.2s0.54-1.2,1.2-1.2h0.43c0.66,0,1.2,0.54,1.2,1.2
							S12.98,55.21,12.32,55.21z"/>
					</g>
				</g>
			</g>
		</g>
	</g>
</g>
</svg>
