<?xml version="1.0" encoding="utf-8"?>
<!-- Generator: Adobe Illustrator 24.0.2, SVG Export Plug-In . SVG Version: 6.00 Build 0)  -->
<svg version="1.1" id="Capa_1" xmlns="http://www.w3.org/2000/svg" xmlns:xlink="http://www.w3.org/1999/xlink" x="0px" y="0px"
	 viewBox="0 0 65 65" style="enable-background:new 0 0 65 65;" xml:space="preserve">
<style type="text/css">
	.st0{fill:none;}
	.st1{fill:#95A6B1;}
	.st2{fill:#00A800;}
	.st3{clip-path:url(#SVGID_2_);}
	.st4{fill:#4DA12E;}
	.st5{fill:#96D200;}
</style>
<g id="Capa_2_1_">
</g>
<g id="Capa_1_1_">
	<g>
		<g id="Grupo_14998_1_" transform="translate(-83.703)">
			<g id="Rectángulo_3799-2_4_">
				<rect x="83.7" class="st0" width="65" height="65"/>
			</g>
			<g>
				<g>
					<g>
						<path class="st1" d="M142.23,50.05h-51.4c-0.44,0-0.8-0.36-0.8-0.8s0.36-0.8,0.8-0.8h51.4c0.44,0,0.8,0.36,0.8,0.8
							S142.67,50.05,142.23,50.05z"/>
					</g>
					<g>
						<path class="st1" d="M104.39,49.82c-0.44,0-0.8-0.36-0.8-0.8V12.43c0-1.28-1.04-2.32-2.32-2.32h-3.62
							c-1.28,0-2.32,1.04-2.32,2.32v2.15c0,0.44-0.36,0.8-0.8,0.8s-0.8-0.36-0.8-0.8v-2.15c0-2.16,1.76-3.92,3.92-3.92h3.62
							c2.16,0,3.92,1.76,3.92,3.92v36.59C105.19,49.46,104.83,49.82,104.39,49.82z"/>
					</g>
					<g>
						<path class="st1" d="M94.53,50.04c-0.44,0-0.8-0.36-0.8-0.8V30.23c0-0.44,0.36-0.8,0.8-0.8s0.8,0.36,0.8,0.8v19.01
							C95.33,49.68,94.97,50.04,94.53,50.04z"/>
					</g>
					<g>
						<path class="st1" d="M138.51,50.04c-0.44,0-0.8-0.36-0.8-0.8V34.68c0-1.21-0.99-2.2-2.2-2.2h-9.12c-1.21,0-2.2,0.99-2.2,2.2
							v14.49c0,0.44-0.36,0.8-0.8,0.8s-0.8-0.36-0.8-0.8V34.68c0-2.1,1.7-3.8,3.8-3.8h9.12c2.1,0,3.8,1.7,3.8,3.8v14.56
							C139.31,49.68,138.95,50.04,138.51,50.04z"/>
					</g>
					<g>
						<path class="st1" d="M119.65,49.97c-0.44,0-0.8-0.36-0.8-0.8V28.19c0-2.1,1.7-3.8,3.8-3.8h5.22c2.1,0,3.8,1.7,3.8,3.8v3.34
							c0,0.44-0.36,0.8-0.8,0.8s-0.8-0.36-0.8-0.8v-3.34c0-1.21-0.99-2.2-2.2-2.2h-5.22c-1.21,0-2.2,0.99-2.2,2.2v20.98
							C120.45,49.61,120.09,49.97,119.65,49.97z"/>
					</g>
					<g>
						<path class="st1" d="M108.35,49.82c-0.44,0-0.8-0.36-0.8-0.8v-31c0-0.99-0.81-1.8-1.8-1.8h-1.37c-0.44,0-0.8-0.36-0.8-0.8
							s0.36-0.8,0.8-0.8h1.37c1.88,0,3.4,1.52,3.4,3.4v31C109.15,49.46,108.79,49.82,108.35,49.82z"/>
					</g>
					<g>
						<path class="st1" d="M123.13,44.16h-6.92c-1.7,0-3.09-1.39-3.09-3.09v-7.71c0-0.82-0.67-1.49-1.49-1.49h-7.02
							c-0.44,0-0.8-0.36-0.8-0.8s0.36-0.8,0.8-0.8h7.02c1.7,0,3.09,1.39,3.09,3.09v7.71c0,0.82,0.67,1.49,1.49,1.49h6.92
							c0.44,0,0.8,0.36,0.8,0.8S123.57,44.16,123.13,44.16z"/>
					</g>
					<g>
						<path class="st1" d="M131.45,45.28c-1.78,0-3.22-1.44-3.22-3.22c0-0.67,0.4-1.57,0.49-1.75l1.93-4.33
							c0.13-0.28,0.41-0.47,0.72-0.47c0,0,0.01,0,0.01,0c0.31,0,0.59,0.17,0.72,0.45l2.1,4.34c0,0.01,0.01,0.02,0.01,0.02
							c0.08,0.17,0.46,1.07,0.46,1.73C134.67,43.84,133.23,45.28,131.45,45.28z M131.41,38.21l-1.24,2.77
							c-0.17,0.36-0.34,0.88-0.34,1.08c0,0.89,0.73,1.62,1.62,1.62s1.62-0.73,1.62-1.62c0-0.23-0.18-0.77-0.32-1.07L131.41,38.21z"
							/>
					</g>
					<g>
						<path class="st1" d="M125.61,25.7c-0.44,0-0.8-0.36-0.8-0.8v-5.99c0-0.44,0.36-0.8,0.8-0.8s0.8,0.36,0.8,0.8v5.99
							C126.41,25.34,126.05,25.7,125.61,25.7z"/>
					</g>
					<g>
						<path class="st1" d="M133.13,19.68h-20.18c-0.44,0-0.8-0.36-0.8-0.8V7.6c0-3.28,2.67-5.95,5.95-5.95h20.18
							c0.44,0,0.8,0.36,0.8,0.8v11.28C139.08,17.01,136.41,19.68,133.13,19.68z M113.75,18.08h19.38c2.4,0,4.35-1.95,4.35-4.35V3.25
							H118.1c-2.4,0-4.35,1.95-4.35,4.35V18.08z"/>
					</g>
					<g>
						<g>
							<path class="st1" d="M116.53,16.87c-0.44,0-0.8-0.36-0.8-0.8V8.53c0-0.44,0.36-0.8,0.8-0.8c0.44,0,0.8,0.36,0.8,0.8v7.54
								C117.33,16.51,116.97,16.87,116.53,16.87z"/>
						</g>
						<g>
							<path class="st1" d="M118.81,11.75h-0.16c-1.61,0-2.92-1.31-2.92-2.92V7.58c0-1.59,1.31-2.89,2.92-2.89h0.16
								c1.61,0,2.92,1.3,2.92,2.89v1.25C121.73,10.44,120.42,11.75,118.81,11.75z M118.65,6.29c-0.73,0-1.32,0.58-1.32,1.29v1.25
								c0,0.73,0.59,1.32,1.32,1.32h0.16c0.73,0,1.32-0.59,1.32-1.32V7.58c0-0.72-0.58-1.29-1.32-1.29H118.65z"/>
						</g>
						<g>
							<g>
								<path class="st1" d="M127.72,9.63c-0.44,0-0.8-0.36-0.8-0.8V7.58c0-0.71-0.59-1.29-1.32-1.29h-0.16
									c-0.73,0-1.32,0.58-1.32,1.29v1.25c0,0.44-0.36,0.8-0.8,0.8s-0.8-0.36-0.8-0.8V7.58c0-1.59,1.31-2.89,2.92-2.89h0.16
									c1.61,0,2.92,1.3,2.92,2.89v1.25C128.52,9.27,128.16,9.63,127.72,9.63z"/>
							</g>
							<g>
								<path class="st1" d="M123.33,16.87c-0.44,0-0.8-0.36-0.8-0.8V8.83c0-0.44,0.36-0.8,0.8-0.8s0.8,0.36,0.8,0.8v7.24
									C124.13,16.51,123.77,16.87,123.33,16.87z"/>
							</g>
							<g>
								<path class="st1" d="M123.33,9.63c-0.44,0-0.8-0.36-0.8-0.8V7.75c0-0.44,0.36-0.8,0.8-0.8s0.8,0.36,0.8,0.8v1.08
									C124.13,9.27,123.77,9.63,123.33,9.63z"/>
							</g>
							<g>
								<path class="st1" d="M127.73,16.87c-0.44,0-0.8-0.36-0.8-0.8V8.83c0-0.44,0.36-0.8,0.8-0.8s0.8,0.36,0.8,0.8v7.24
									C128.53,16.51,128.17,16.87,127.73,16.87z"/>
							</g>
							<g>
								<path class="st1" d="M127.73,9.63c-0.44,0-0.8-0.36-0.8-0.8V7.75c0-0.44,0.36-0.8,0.8-0.8s0.8,0.36,0.8,0.8v1.08
									C128.53,9.27,128.17,9.63,127.73,9.63z"/>
							</g>
							<g>
								<path class="st1" d="M127.73,11.54h-4.41c-0.44,0-0.8-0.36-0.8-0.8s0.36-0.8,0.8-0.8h4.41c0.44,0,0.8,0.36,0.8,0.8
									S128.17,11.54,127.73,11.54z"/>
							</g>
						</g>
						<g>
							<path class="st1" d="M133.86,16.87h-3.56c-0.44,0-0.8-0.36-0.8-0.8V5.49c0-0.44,0.36-0.8,0.8-0.8h3.51
								c0.44,0,0.8,0.36,0.8,0.8s-0.36,0.8-0.8,0.8h-2.71v8.98h2.76c0.44,0,0.8,0.36,0.8,0.8S134.3,16.87,133.86,16.87z"/>
						</g>
						<g>
							<path class="st1" d="M133.52,11.55h-3.06c-0.44,0-0.8-0.36-0.8-0.8s0.36-0.8,0.8-0.8h3.06c0.44,0,0.8,0.36,0.8,0.8
								S133.96,11.55,133.52,11.55z"/>
						</g>
					</g>
					<g id="Trazado_11848_5_">
						<path class="st2" d="M94.51,27.27c-2.75,0-4.98-2.23-4.98-4.98s2.23-4.98,4.98-4.98c0.01,0,0.01,0,0.02,0
							c1.31,0,2.55,0.51,3.49,1.44c0.94,0.93,1.46,2.18,1.47,3.51c0,0,0,0.03,0,0.03C99.49,25.04,97.26,27.27,94.51,27.27z
							 M94.53,18.91c0,0-0.01,0-0.01,0c-1.87,0-3.38,1.52-3.38,3.38s1.52,3.38,3.38,3.38s3.38-1.52,3.38-3.38v-0.03
							C97.88,20.41,96.38,18.91,94.53,18.91z"/>
					</g>
				</g>
			</g>
		</g>
		<g>
			<defs>
				<rect id="SVGID_1_" y="48.26" width="65" height="16.74"/>
			</defs>
			<clipPath id="SVGID_2_">
				<use xlink:href="#SVGID_1_"  style="overflow:visible;"/>
			</clipPath>
			<g class="st3">
				<g>
					<rect y="48.26" class="st0" width="65" height="16.74"/>
				</g>
				<g>
					<g>
						<path class="st4" d="M45.38,61.32h-7.17c-0.66,0-1.2-0.54-1.2-1.2s0.54-1.2,1.2-1.2h7.17c0.66,0,1.2,0.54,1.2,1.2
							S46.04,61.32,45.38,61.32z"/>
					</g>
					<g>
						<path class="st4" d="M53.11,61.32h-0.58c-0.66,0-1.2-0.54-1.2-1.2s0.54-1.2,1.2-1.2h0.58c0.66,0,1.2,0.54,1.2,1.2
							S53.77,61.32,53.11,61.32z"/>
					</g>
					<g>
						<path class="st4" d="M18.99,61.32h-7.1c-0.66,0-1.2-0.54-1.2-1.2s0.54-1.2,1.2-1.2h7.1c0.66,0,1.2,0.54,1.2,1.2
							S19.65,61.32,18.99,61.32z"/>
					</g>
					<g>
						<path class="st5" d="M31.05,61.32H18.53c-0.66,0-1.2-0.54-1.2-1.2s0.54-1.2,1.2-1.2h12.52c0.66,0,1.2,0.54,1.2,1.2
							S31.71,61.32,31.05,61.32z"/>
					</g>
					<g>
						<path class="st5" d="M35.47,55.21H11.89c-0.66,0-1.2-0.54-1.2-1.2s0.54-1.2,1.2-1.2h23.58c0.66,0,1.2,0.54,1.2,1.2
							S36.13,55.21,35.47,55.21z"/>
					</g>
					<g>
						<path class="st4" d="M53.11,55.21H34.75c-0.66,0-1.2-0.54-1.2-1.2s0.54-1.2,1.2-1.2h18.36c0.66,0,1.2,0.54,1.2,1.2
							S53.77,55.21,53.11,55.21z"/>
					</g>
					<g>
						<path class="st4" d="M12.32,55.21h-0.43c-0.66,0-1.2-0.54-1.2-1.2s0.54-1.2,1.2-1.2h0.43c0.66,0,1.2,0.54,1.2,1.2
							S12.98,55.21,12.32,55.21z"/>
					</g>
				</g>
			</g>
		</g>
	</g>
</g>
</svg>
