<?xml version="1.0" encoding="utf-8"?>
<!-- Generator: Adobe Illustrator 24.0.2, SVG Export Plug-In . SVG Version: 6.00 Build 0)  -->
<svg version="1.1" id="Capa_1" xmlns="http://www.w3.org/2000/svg" xmlns:xlink="http://www.w3.org/1999/xlink" x="0px" y="0px"
	 viewBox="0 0 65 65" style="enable-background:new 0 0 65 65;" xml:space="preserve">
<style type="text/css">
	.st0{fill:none;}
	.st1{clip-path:url(#SVGID_2_);}
	.st2{fill:#4DA12E;}
	.st3{fill:#96D200;}
	.st4{fill:#00A800;}
	.st5{fill:#95A6B1;}
</style>
<g id="Capa_2_1_">
</g>
<g id="Capa_1_1_">
	<g>
		<g id="Grupo_14998_3_" transform="translate(-83.703)">
			<g id="Rectángulo_3799-2_2_">
				<rect x="83.7" class="st0" width="65" height="65"/>
			</g>
		</g>
		<g>
			<defs>
				<rect id="SVGID_1_" y="48.26" width="65" height="16.74"/>
			</defs>
			<clipPath id="SVGID_2_">
				<use xlink:href="#SVGID_1_"  style="overflow:visible;"/>
			</clipPath>
			<g class="st1">
				<g>
					<rect y="48.26" class="st0" width="65" height="16.74"/>
				</g>
				<g>
					<g>
						<path class="st2" d="M45.38,61.32h-7.17c-0.66,0-1.2-0.54-1.2-1.2s0.54-1.2,1.2-1.2h7.17c0.66,0,1.2,0.54,1.2,1.2
							S46.04,61.32,45.38,61.32z"/>
					</g>
					<g>
						<path class="st2" d="M53.11,61.32h-0.58c-0.66,0-1.2-0.54-1.2-1.2s0.54-1.2,1.2-1.2h0.58c0.66,0,1.2,0.54,1.2,1.2
							S53.77,61.32,53.11,61.32z"/>
					</g>
					<g>
						<path class="st2" d="M18.99,61.32h-7.1c-0.66,0-1.2-0.54-1.2-1.2s0.54-1.2,1.2-1.2h7.1c0.66,0,1.2,0.54,1.2,1.2
							S19.65,61.32,18.99,61.32z"/>
					</g>
					<g>
						<path class="st3" d="M31.05,61.32H18.53c-0.66,0-1.2-0.54-1.2-1.2s0.54-1.2,1.2-1.2h12.52c0.66,0,1.2,0.54,1.2,1.2
							S31.71,61.32,31.05,61.32z"/>
					</g>
					<g>
						<path class="st3" d="M35.47,55.21H11.89c-0.66,0-1.2-0.54-1.2-1.2s0.54-1.2,1.2-1.2h23.58c0.66,0,1.2,0.54,1.2,1.2
							S36.13,55.21,35.47,55.21z"/>
					</g>
					<g>
						<path class="st2" d="M53.11,55.21H34.75c-0.66,0-1.2-0.54-1.2-1.2s0.54-1.2,1.2-1.2h18.36c0.66,0,1.2,0.54,1.2,1.2
							S53.77,55.21,53.11,55.21z"/>
					</g>
					<g>
						<path class="st2" d="M12.32,55.21h-0.43c-0.66,0-1.2-0.54-1.2-1.2s0.54-1.2,1.2-1.2h0.43c0.66,0,1.2,0.54,1.2,1.2
							S12.98,55.21,12.32,55.21z"/>
					</g>
				</g>
			</g>
		</g>
	</g>
	<g>
		<g id="Trazado_5703_9_">
			<path class="st4" d="M20.02,15.32c-2.99,0-5.42-2.43-5.42-5.42s2.43-5.42,5.42-5.42c1.46-0.01,2.79,0.54,3.81,1.55
				c1.03,1.01,1.6,2.36,1.61,3.79c0,0,0,0.07,0,0.08C25.44,12.89,23.01,15.32,20.02,15.32z M20.06,6.08c-0.01,0-0.02,0-0.03,0
				c-2.11,0-3.83,1.71-3.83,3.82s1.71,3.82,3.82,3.82s3.82-1.71,3.82-3.82V9.83c-0.01-1-0.41-1.95-1.13-2.66
				C22,6.47,21.06,6.08,20.06,6.08z"/>
		</g>
		<g>
			<path class="st5" d="M36.09,48.5H24.9c-4.33,0-7.85-3.52-7.85-7.85V18.14c0-0.44,0.36-0.8,0.8-0.8s0.8,0.36,0.8,0.8v22.51
				c0,3.45,2.8,6.25,6.25,6.25l23.9-0.03V7.78H27.82c-0.44,0-0.8-0.36-0.8-0.8s0.36-0.8,0.8-0.8H49.6c0.44,0,0.8,0.36,0.8,0.8v40.69
				c0,0.44-0.36,0.8-0.8,0.8L36.09,48.5z"/>
		</g>
		<g>
			<path class="st5" d="M43.52,34.05H23.87c-0.44,0-0.8-0.36-0.8-0.8c0-0.44,0.36-0.8,0.8-0.8h19.65c0.44,0,0.8,0.36,0.8,0.8
				C44.32,33.69,43.96,34.05,43.52,34.05z"/>
		</g>
		<g>
			<path class="st5" d="M43.52,38.3H23.87c-0.44,0-0.8-0.36-0.8-0.8s0.36-0.8,0.8-0.8h19.65c0.44,0,0.8,0.36,0.8,0.8
				S43.96,38.3,43.52,38.3z"/>
		</g>
		<g>
			<path class="st5" d="M35.98,42.56H23.67c-0.44,0-0.8-0.36-0.8-0.8s0.36-0.8,0.8-0.8h12.31c0.44,0,0.8,0.36,0.8,0.8
				S36.42,42.56,35.98,42.56z"/>
		</g>
		<g>
			<path class="st5" d="M35.77,15.64c-0.44,0-0.8-0.36-0.8-0.8v-1.56h-1.52v1.56c0,0.44-0.36,0.8-0.8,0.8s-0.8-0.36-0.8-0.8v-2.09
				c0-0.59,0.47-1.07,1.05-1.07h2.62c0.58,0,1.05,0.48,1.05,1.07v2.09C36.57,15.28,36.21,15.64,35.77,15.64z"/>
		</g>
		<g>
			<path class="st5" d="M38.57,28.13h-8.71c-0.44,0-0.8-0.36-0.8-0.8V14.84c0-0.44,0.36-0.8,0.8-0.8s0.8,0.36,0.8,0.8v11.69h7.11
				V14.84c0-0.44,0.36-0.8,0.8-0.8s0.8,0.36,0.8,0.8v12.49C39.37,27.77,39.01,28.13,38.57,28.13z"/>
		</g>
		<g>
			<path class="st5" d="M39.49,19.34H28.94c-0.44,0-0.8-0.36-0.8-0.8s0.36-0.8,0.8-0.8h10.55c0.44,0,0.8,0.36,0.8,0.8
				S39.93,19.34,39.49,19.34z"/>
		</g>
		<g>
			<path class="st5" d="M39.49,24.18H28.94c-0.44,0-0.8-0.36-0.8-0.8s0.36-0.8,0.8-0.8h10.55c0.44,0,0.8,0.36,0.8,0.8
				S39.93,24.18,39.49,24.18z"/>
		</g>
		<g>
			<path class="st5" d="M39.49,28.13H28.94c-0.44,0-0.8-0.36-0.8-0.8s0.36-0.8,0.8-0.8h10.55c0.44,0,0.8,0.36,0.8,0.8
				S39.93,28.13,39.49,28.13z"/>
		</g>
		<g>
			<path class="st5" d="M39.49,15.64H28.94c-0.44,0-0.8-0.36-0.8-0.8s0.36-0.8,0.8-0.8h10.55c0.44,0,0.8,0.36,0.8,0.8
				S39.93,15.64,39.49,15.64z"/>
		</g>
	</g>
</g>
</svg>
