<?xml version="1.0" encoding="utf-8"?>
<!-- Generator: Adobe Illustrator 24.0.2, SVG Export Plug-In . SVG Version: 6.00 Build 0)  -->
<svg version="1.1" id="Capa_1" xmlns="http://www.w3.org/2000/svg" xmlns:xlink="http://www.w3.org/1999/xlink" x="0px" y="0px"
	 viewBox="0 0 47 47" style="enable-background:new 0 0 47 47;" xml:space="preserve">
<style type="text/css">
	.st0{fill:none;}
	.st1{fill:#FFFFFF;}
</style>
<g id="Capa_1_1_">
	<g>
		<rect class="st0" width="47" height="47"/>
	</g>
	<g id="Grupo_12874_1_" transform="translate(-687.354 -549.374)">
		<g id="Grupo_12785_1_">
			<g id="Línea_2124_1_">
				<path class="st1" d="M694.59,580.74h-4.21c-0.41,0-0.75-0.34-0.75-0.75s0.34-0.75,0.75-0.75h4.21c0.41,0,0.75,0.34,0.75,0.75
					S695,580.74,694.59,580.74z"/>
			</g>
			<g id="Línea_2125_1_">
				<path class="st1" d="M731.3,580.74h-4.49c-0.41,0-0.75-0.34-0.75-0.75s0.34-0.75,0.75-0.75h4.49c0.41,0,0.75,0.34,0.75,0.75
					S731.71,580.74,731.3,580.74z"/>
			</g>
			<g id="Línea_2126_1_">
				<path class="st1" d="M721.5,580.74h-21.61c-0.41,0-0.75-0.34-0.75-0.75s0.34-0.75,0.75-0.75h21.61c0.41,0,0.75,0.34,0.75,0.75
					S721.91,580.74,721.5,580.74z"/>
			</g>
			<g id="Línea_2127_1_">
				<path class="st1" d="M694.59,566.89h-4.21c-0.41,0-0.75-0.34-0.75-0.75s0.34-0.75,0.75-0.75h4.21c0.41,0,0.75,0.34,0.75,0.75
					S695,566.89,694.59,566.89z"/>
			</g>
			<g id="Línea_2128_1_">
				<path class="st1" d="M731.3,566.89h-4.49c-0.41,0-0.75-0.34-0.75-0.75s0.34-0.75,0.75-0.75h4.49c0.41,0,0.75,0.34,0.75,0.75
					S731.71,566.89,731.3,566.89z"/>
			</g>
			<g id="Línea_2129_1_">
				<path class="st1" d="M721.5,566.89h-9.33c-0.41,0-0.75-0.34-0.75-0.75s0.34-0.75,0.75-0.75h9.33c0.41,0,0.75,0.34,0.75,0.75
					S721.91,566.89,721.5,566.89z"/>
			</g>
		</g>
		<g id="Rectángulo_4522_1_">
			<path class="st1" d="M699.88,583.88h-5.3c-0.41,0-0.75-0.34-0.75-0.75v-20.12c0-0.41,0.34-0.75,0.75-0.75h5.3
				c0.41,0,0.75,0.34,0.75,0.75v20.12C700.63,583.54,700.29,583.88,699.88,583.88z M695.33,582.38h3.8v-18.62h-3.8V582.38z"/>
		</g>
		<g id="Rectángulo_4523_1_">
			<path class="st1" d="M726.8,583.88h-5.3c-0.41,0-0.75-0.34-0.75-0.75v-20.12c0-0.41,0.34-0.75,0.75-0.75h5.3
				c0.41,0,0.75,0.34,0.75,0.75v20.12C727.55,583.54,727.21,583.88,726.8,583.88z M722.25,582.38h3.8v-18.62h-3.8V582.38z"/>
		</g>
		<g id="Grupo_12788_1_">
			<g id="Línea_2130_1_">
				<path class="st1" d="M716.18,573.82h-9.3c-0.41,0-0.75-0.33-0.75-0.75c0-0.41,0.34-0.75,0.75-0.75h9.3
					c0.41,0,0.75,0.34,0.75,0.75C716.93,573.48,716.59,573.82,716.18,573.82z"/>
			</g>
			<g id="Trazado_11511_1_">
				<path class="st1" d="M712.75,577.24c-0.19,0-0.38-0.07-0.53-0.22c-0.29-0.29-0.29-0.77,0-1.06l2.9-2.9l-2.9-2.9
					c-0.29-0.29-0.29-0.77,0-1.06s0.77-0.29,1.06,0l3.43,3.43c0.29,0.29,0.29,0.77,0,1.06l-3.43,3.43
					C713.13,577.17,712.94,577.24,712.75,577.24z"/>
			</g>
		</g>
		<g id="Elipse_2116_1_">
			<path class="st1" d="M706.05,569.69c-2.16,0-3.91-1.75-3.91-3.91c0-2.16,1.75-3.91,3.91-3.91c2.16,0,3.91,1.75,3.91,3.91
				C709.96,567.94,708.21,569.69,706.05,569.69z M706.05,563.37c-1.33,0-2.41,1.08-2.41,2.41c0,1.33,1.08,2.41,2.41,2.41
				c1.33,0,2.41-1.08,2.41-2.41C708.46,564.45,707.38,563.37,706.05,563.37z"/>
		</g>
	</g>
</g>
</svg>
