<svg id="Grupo_19902" data-name="Grupo 19902" xmlns="http://www.w3.org/2000/svg" width="65" height="65" viewBox="0 0 65 65">
  <g id="Grupo_13213" data-name="Grupo 13213">
    <rect id="Rectángulo_3799-2" data-name="Rectángulo 3799-2" width="65" height="65" fill="none"/>
    <path id="Trazado_19612" data-name="Trazado 19612" d="M38.491,25.927l-.977-2.78a.887.887,0,0,1,.148-.855l1.221-1.506-.774-.654a.886.886,0,0,0-.514-.209l-1.537-.1a.889.889,0,0,1-.829-.862l-.017-.588a.889.889,0,0,0-.311-.651L32.193,15.4a.9.9,0,0,0-.37-.189L29.7,14.7a.885.885,0,0,0-.529.035l-.914.354a.89.89,0,0,1-1.195-1l.721-3.75A.89.89,0,0,0,27.079,9.3l-2.045-.386a.89.89,0,0,1-.722-.936l.078-1.133a.889.889,0,0,0-.558-.888h0a.89.89,0,0,1-.552-.95l.312-2.224L21.951,3.936a.89.89,0,0,0-.379.729V6.824a.89.89,0,0,1-.231.6l-1.22,1.345A.89.89,0,0,0,20.069,9.9l.3.394a.89.89,0,0,1,.021,1.041l-.922,1.336a.89.89,0,0,0,.517,1.369l.317.078a.89.89,0,0,1,.66.7l.52,2.79a.889.889,0,0,1-.286.83l-2.158,1.9a.891.891,0,0,0-.3.667v.752a.89.89,0,0,0,.37.722l3.058,2.2a.882.882,0,0,0,.313.143l1.1.263a.888.888,0,0,1,.666.69l.369,1.836a.89.89,0,0,0,1.048.7l1.064-.214a.894.894,0,0,1,.7.157l2.331,1.726a.889.889,0,0,1,.36.668l.14,2.658a.889.889,0,0,1-.275.691l-1.294,1.234a.9.9,0,0,1-.575.245l-.483.021a.89.89,0,0,0-.725,1.344L27.7,38.17a.892.892,0,0,1,.124.406l.213,3.852a.893.893,0,0,0,.356.664l1.672,1.247a.893.893,0,0,1,.345.561l.1.588a.891.891,0,0,0,.575.685l.434.156a.891.891,0,0,0,.744-.066L35.327,44.5a.907.907,0,0,1,.312-.109l1.244-.185a.9.9,0,0,1,.659.164l2.565,1.892a.9.9,0,0,1,.336.5l.472,1.925a.89.89,0,0,0,.864.677h2.562a.891.891,0,0,0,.69-.327L46.9,46.753a.9.9,0,0,0,.166-.318l.528-1.848a.9.9,0,0,0,.005-.468l-1.506-5.784a.884.884,0,0,1,.1-.693l.629-1.014a.89.89,0,0,0,.007-.928l-.152-.474" fill="none" stroke="#95a6b1" stroke-linecap="round" stroke-linejoin="round" stroke-width="1.6"/>
  </g>
  <path id="Trazado_11848" data-name="Trazado 11848" d="M46.857,30.426a4.183,4.183,0,1,1-4.183-4.184h0a4.168,4.168,0,0,1,4.183,4.151Z" fill="none" stroke="#19a500" stroke-linecap="round" stroke-linejoin="round" stroke-width="1.6"/>
</svg>
