<svg xmlns="http://www.w3.org/2000/svg" width="65" height="65" viewBox="0 0 65 65">
  <g id="Grupo_20231" data-name="Grupo 20231" transform="translate(170.613)">
    <rect id="Rectángulo_3799-2" data-name="Rectángulo 3799-2" width="65" height="65" transform="translate(-170.613)" fill="none"/>
    <g id="Grupo_20230" data-name="Grupo 20230">
      <g id="Grupo_20224" data-name="Grupo 20224">
        <g id="Grupo_20223" data-name="Grupo 20223">
          <g id="Grupo_20218" data-name="Grupo 20218">
            <path id="Trazado_19712" data-name="Trazado 19712" d="M-144.419,16.416s2.862,1.3,3.3,3.786" fill="none" stroke="#95a6b1" stroke-linecap="round" stroke-linejoin="round" stroke-width="1.6"/>
            <path id="Trazado_19713" data-name="Trazado 19713" d="M-131.807,16.416s-2.862,1.119-3.3,3.6" fill="none" stroke="#95a6b1" stroke-linecap="round" stroke-linejoin="round" stroke-width="1.6"/>
          </g>
          <g id="Grupo_20219" data-name="Grupo 20219">
            <path id="Trazado_19714" data-name="Trazado 19714" d="M-123.745,29.288l3.758-.7a7.842,7.842,0,0,0,2.679-2.382l2.741-3.918" fill="none" stroke="#95a6b1" stroke-linecap="round" stroke-linejoin="round" stroke-width="1.6"/>
          </g>
          <g id="Grupo_20220" data-name="Grupo 20220">
            <path id="Trazado_19715" data-name="Trazado 19715" d="M-152.477,29.288l-3.759-.7a7.829,7.829,0,0,1-2.678-2.382l-2.741-3.918" fill="none" stroke="#95a6b1" stroke-linecap="round" stroke-linejoin="round" stroke-width="1.6"/>
          </g>
          <g id="Grupo_20221" data-name="Grupo 20221">
            <path id="Trazado_19716" data-name="Trazado 19716" d="M-145.811,5.405c1.044,1.994.532,5.1-1.487,7.784-2.571,3.422-6.609,4.878-9.021,3.253s-2.284-5.716.286-9.138a10.254,10.254,0,0,1,4.57-3.519s-2.735,5.762-1.078,6.661C-150.639,11.479-145.811,5.405-145.811,5.405Z" fill="none" stroke="#95a6b1" stroke-linecap="round" stroke-linejoin="round" stroke-width="1.6"/>
            <path id="Trazado_19717" data-name="Trazado 19717" d="M-156.879,15.967s-2.646,4.861,2.368,6.521c0,0,.163,2.587,3.669,2.857" fill="none" stroke="#95a6b1" stroke-linecap="round" stroke-linejoin="round" stroke-width="1.6"/>
            <path id="Trazado_19718" data-name="Trazado 19718" d="M-149.13,23.222a3.386,3.386,0,0,0-2.731-2.973,3.791,3.791,0,0,0,.195-3.619" fill="none" stroke="#95a6b1" stroke-linecap="round" stroke-linejoin="round" stroke-width="1.6"/>
          </g>
          <g id="Grupo_20222" data-name="Grupo 20222">
            <path id="Trazado_19719" data-name="Trazado 19719" d="M-118.872,9.666A10.849,10.849,0,0,0-120.229,7.3a10.249,10.249,0,0,0-4.57-3.519s2.735,5.762,1.079,6.661c-1.9,1.033-6.731-5.041-6.731-5.041-1.044,1.994-.532,5.1,1.488,7.784a10.35,10.35,0,0,0,4.366,3.443" fill="none" stroke="#95a6b1" stroke-linecap="round" stroke-linejoin="round" stroke-width="1.6"/>
            <path id="Trazado_19720" data-name="Trazado 19720" d="M-120.148,21.687a5.639,5.639,0,0,1-1.6.8s-.163,2.587-3.668,2.857" fill="none" stroke="#95a6b1" stroke-linecap="round" stroke-linejoin="round" stroke-width="1.6"/>
            <path id="Trazado_19721" data-name="Trazado 19721" d="M-127.131,23.222a3.385,3.385,0,0,1,2.731-2.973,3.789,3.789,0,0,1-.2-3.619" fill="none" stroke="#95a6b1" stroke-linecap="round" stroke-linejoin="round" stroke-width="1.6"/>
          </g>
        </g>
        <path id="Trazado_19722" data-name="Trazado 19722" d="M-152.085,28.622l2.685-4.9a6.962,6.962,0,0,1,6.127-3.524h10.222a6.967,6.967,0,0,1,6.088,3.455l2.787,4.936a6.315,6.315,0,0,1-1.842,8.24l-7.819,5.777a7.211,7.211,0,0,1-8.493,0l-7.875-5.818A6.316,6.316,0,0,1-152.085,28.622Z" fill="none" stroke="#95a6b1" stroke-linecap="round" stroke-linejoin="round" stroke-width="1.6"/>
        <path id="Trazado_19723" data-name="Trazado 19723" d="M-152.477,35.7c-5.061,2.956-8.809.6-10.413-.822a.5.5,0,0,1,.318-.877c2.426-.038,7.909-.361,9.709-2.447" fill="none" stroke="#95a6b1" stroke-linecap="round" stroke-linejoin="round" stroke-width="1.6"/>
        <path id="Trazado_19724" data-name="Trazado 19724" d="M-148.716,37.892a9.034,9.034,0,0,0-6.418,7.944.5.5,0,0,0,.884.387,12.831,12.831,0,0,1,10.2-4.882" fill="none" stroke="#95a6b1" stroke-linecap="round" stroke-linejoin="round" stroke-width="1.6"/>
        <path id="Trazado_19725" data-name="Trazado 19725" d="M-127.351,37.892a9.034,9.034,0,0,1,6.419,7.944.5.5,0,0,1-.884.387,12.832,12.832,0,0,0-10.2-4.882" fill="none" stroke="#95a6b1" stroke-linecap="round" stroke-linejoin="round" stroke-width="1.6"/>
        <path id="Trazado_19726" data-name="Trazado 19726" d="M-123.749,35.7c5.061,2.956,8.81.6,10.413-.822a.5.5,0,0,0-.317-.877c-2.427-.038-7.91-.361-9.71-2.447" fill="none" stroke="#95a6b1" stroke-linecap="round" stroke-linejoin="round" stroke-width="1.6"/>
      </g>
      <g id="Grupo_20229" data-name="Grupo 20229">
        <g id="Grupo_20226" data-name="Grupo 20226">
          <g id="Grupo_20225" data-name="Grupo 20225">
            <line id="Línea_4510" data-name="Línea 4510" y2="1.954" transform="translate(-140.553 24.198)" fill="none" stroke="#95a6b1" stroke-linecap="round" stroke-linejoin="round" stroke-width="1.6"/>
            <line id="Línea_4511" data-name="Línea 4511" x2="1.092" y2="1.086" transform="translate(-145.391 26.424)" fill="none" stroke="#95a6b1" stroke-linecap="round" stroke-linejoin="round" stroke-width="1.6"/>
          </g>
        </g>
        <g id="Grupo_20228" data-name="Grupo 20228">
          <g id="Grupo_20227" data-name="Grupo 20227">
            <line id="Línea_4512" data-name="Línea 4512" y2="1.954" transform="translate(-135.673 24.198)" fill="none" stroke="#95a6b1" stroke-linecap="round" stroke-linejoin="round" stroke-width="1.6"/>
            <line id="Línea_4513" data-name="Línea 4513" x1="1.092" y2="1.086" transform="translate(-131.926 26.424)" fill="none" stroke="#95a6b1" stroke-linecap="round" stroke-linejoin="round" stroke-width="1.6"/>
          </g>
        </g>
      </g>
    </g>
  </g>
</svg>
