<svg id="Grupo_19906" data-name="Grupo 19906" xmlns="http://www.w3.org/2000/svg" width="65" height="65" viewBox="0 0 65 65">
  <g id="Grupo_19837" data-name="Grupo 19837">
    <g id="Grupo_19836" data-name="Grupo 19836">
      <rect id="Rectángulo_5694" data-name="Rectángulo 5694" width="65" height="16.741" transform="translate(0 48.259)" fill="none"/>
      <g id="Grupo_19835" data-name="Grupo 19835">
        <line id="Línea_4303" data-name="Línea 4303" x2="7.167" transform="translate(38.214 60.119)" fill="none" stroke="#4da12e" stroke-linecap="round" stroke-linejoin="round" stroke-width="2.4"/>
        <line id="Línea_4304" data-name="Línea 4304" x2="0.581" transform="translate(52.528 60.119)" fill="none" stroke="#4da12e" stroke-linecap="round" stroke-linejoin="round" stroke-width="2.4"/>
        <line id="Línea_4305" data-name="Línea 4305" x2="7.101" transform="translate(11.891 60.119)" fill="none" stroke="#4da12e" stroke-linecap="round" stroke-linejoin="round" stroke-width="2.4"/>
        <line id="Línea_4306" data-name="Línea 4306" x2="12.517" transform="translate(18.529 60.119)" fill="none" stroke="#96d200" stroke-linecap="round" stroke-linejoin="round" stroke-width="2.4"/>
        <line id="Línea_4307" data-name="Línea 4307" x2="23.582" transform="translate(11.891 54.012)" fill="none" stroke="#96d200" stroke-linecap="round" stroke-linejoin="round" stroke-width="2.4"/>
        <line id="Línea_4308" data-name="Línea 4308" x2="18.363" transform="translate(34.746 54.012)" fill="none" stroke="#4da12e" stroke-linecap="round" stroke-linejoin="round" stroke-width="2.4"/>
        <line id="Línea_4309" data-name="Línea 4309" x2="0.429" transform="translate(11.891 54.012)" fill="none" stroke="#4da12e" stroke-linecap="round" stroke-linejoin="round" stroke-width="2.4"/>
      </g>
    </g>
  </g>
  <g id="Grupo_19841" data-name="Grupo 19841">
    <g id="Grupo_19840" data-name="Grupo 19840">
      <g id="Grupo_19839" data-name="Grupo 19839">
        <line id="Línea_4310" data-name="Línea 4310" x2="51.399" transform="translate(7.13 49.247)" fill="#95a6b1" stroke="#95a6b1" stroke-linecap="round" stroke-linejoin="round" stroke-width="1.6"/>
        <path id="Trazado_19530" data-name="Trazado 19530" d="M10.831,14.58V12.427a3.115,3.115,0,0,1,3.116-3.115h3.618a3.115,3.115,0,0,1,3.115,3.115V49.013" fill="none" stroke="#95a6b1" stroke-linecap="round" stroke-linejoin="round" stroke-width="1.6"/>
        <line id="Línea_4311" data-name="Línea 4311" y1="19.011" transform="translate(10.831 30.231)" fill="none" stroke="#95a6b1" stroke-linecap="round" stroke-linejoin="round" stroke-width="1.6"/>
        <path id="Trazado_19531" data-name="Trazado 19531" d="M39.691,49.166V34.682a3,3,0,0,1,3-3h9.117a3,3,0,0,1,3,3v14.56" fill="none" stroke="#95a6b1" stroke-linecap="round" stroke-linejoin="round" stroke-width="1.6"/>
        <path id="Trazado_19532" data-name="Trazado 19532" d="M35.95,49.166V28.192a3,3,0,0,1,3-3h5.223a3,3,0,0,1,3,3v3.337" fill="none" stroke="#95a6b1" stroke-linecap="round" stroke-linejoin="round" stroke-width="1.6"/>
        <path id="Trazado_19533" data-name="Trazado 19533" d="M20.68,15.42h1.371a2.6,2.6,0,0,1,2.6,2.6v31" fill="none" stroke="#95a6b1" stroke-linecap="round" stroke-linejoin="round" stroke-width="1.6"/>
        <path id="Trazado_19534" data-name="Trazado 19534" d="M20.908,31.071h7.023a2.293,2.293,0,0,1,2.293,2.293V41.07a2.292,2.292,0,0,0,2.293,2.293h6.922" fill="none" stroke="#95a6b1" stroke-linecap="round" stroke-linejoin="round" stroke-width="1.6"/>
        <path id="Trazado_19535" data-name="Trazado 19535" d="M49.775,40.65l-2.1-4.343L45.729,40.65a4.58,4.58,0,0,0-.409,1.407,2.422,2.422,0,0,0,4.844,0A4.754,4.754,0,0,0,49.775,40.65Z" fill="none" stroke="#95a6b1" stroke-linecap="round" stroke-linejoin="round" stroke-width="1.6"/>
        <line id="Línea_4312" data-name="Línea 4312" y2="5.998" transform="translate(41.907 18.907)" fill="none" stroke="#95a6b1" stroke-linecap="round" stroke-linejoin="round" stroke-width="1.6"/>
        <path id="Rectángulo_5695" data-name="Rectángulo 5695" d="M5.153,0H25.337a0,0,0,0,1,0,0V11.275a5.153,5.153,0,0,1-5.153,5.153H0a0,0,0,0,1,0,0V5.153A5.153,5.153,0,0,1,5.153,0Z" transform="translate(29.238 2.454)" fill="none" stroke="#95a6b1" stroke-linecap="round" stroke-linejoin="round" stroke-width="1.6"/>
        <path id="Trazado_11848" data-name="Trazado 11848" d="M14.989,22.288A4.183,4.183,0,1,1,10.806,18.1h0a4.168,4.168,0,0,1,4.183,4.151Z" fill="none" stroke="#19a500" stroke-linecap="round" stroke-linejoin="round" stroke-width="1.6"/>
        <g id="Grupo_19838" data-name="Grupo 19838">
          <path id="Trazado_12473" data-name="Trazado 12473" d="M37.785,7.513" fill="none" stroke="#95a6b1" stroke-linecap="round" stroke-linejoin="round" stroke-width="1.6"/>
          <path id="Trazado_12473-2" data-name="Trazado 12473" d="M38.446,13.94" fill="none" stroke="#95a6b1" stroke-linecap="round" stroke-linejoin="round" stroke-width="1.6"/>
          <path id="Trazado_12473-3" data-name="Trazado 12473" d="M37.785,7.513a2.123,2.123,0,0,0-2.118-2.118h-.16A2.208,2.208,0,0,0,33.39,7.609V13.94a2.124,2.124,0,0,0,2.117,2.117h.16a2.124,2.124,0,0,0,2.118-2.117" fill="none" stroke="#95a6b1" stroke-linecap="round" stroke-linejoin="round" stroke-width="1.6"/>
          <path id="Trazado_12473-4" data-name="Trazado 12473" d="M44.5,13.94a2.123,2.123,0,0,1-2.118,2.117h-.16a2.124,2.124,0,0,1-2.117-2.117V7.609a2.209,2.209,0,0,1,2.117-2.214h.16A2.123,2.123,0,0,1,44.5,7.513Z" fill="none" stroke="#95a6b1" stroke-linecap="round" stroke-linejoin="round" stroke-width="1.6"/>
          <path id="Trazado_18071" data-name="Trazado 18071" d="M46.548,5.515,48.774,16.1,50.883,5.515" fill="none" stroke="#95a6b1" stroke-linecap="round" stroke-linejoin="round" stroke-width="1.6"/>
        </g>
      </g>
    </g>
    <rect id="Rectángulo_3799-2" data-name="Rectángulo 3799-2" width="65" height="65" fill="none"/>
  </g>
</svg>
