<?xml version="1.0" encoding="utf-8"?>
<!-- Generator: Adobe Illustrator 24.0.2, SVG Export Plug-In . SVG Version: 6.00 Build 0)  -->
<svg version="1.1" xmlns="http://www.w3.org/2000/svg" xmlns:xlink="http://www.w3.org/1999/xlink" x="0px" y="0px"
	 viewBox="0 0 47 47" style="enable-background:new 0 0 47 47;" xml:space="preserve">
<style type="text/css">
	.st0{display:none;}
	.st1{display:inline;fill:#98A6B0;}
	.st2{fill:none;}
	.st3{fill:none;stroke:#FFFFFF;stroke-width:1.5;stroke-miterlimit:10;}
	.st4{fill:none;stroke:#FFFFFF;stroke-width:1.5;stroke-linecap:round;stroke-linejoin:round;stroke-miterlimit:10;}
	.st5{fill:none;stroke:#00A800;stroke-width:1.3134;stroke-linecap:round;stroke-linejoin:round;stroke-miterlimit:10;}
	.st6{fill:none;stroke:#95A6B1;stroke-width:1.5;stroke-linecap:round;stroke-linejoin:round;}
</style>
<g id="BASE" class="st0">
	<rect x="-2.2" y="-2.22" class="st1" width="51.47" height="51.47"/>
</g>
<g id="Capa_1">
	<rect x="0.07" class="st2" width="46.93" height="47"/>
	<g>
		<circle class="st3" cx="23.39" cy="8.27" r="4.46"/>
		<path class="st4" d="M25.16,12.36v4.1h5.7c0.83,0,1.51,0.68,1.51,1.51v0.53c0,0.83-0.68,1.51-1.51,1.51h-5.7v16.48
			c8.33-0.92,10.73-8.23,11.14-9.74l-1.54-0.34l4.97-4.41l1.57,6.86l-1.33-0.3c-0.15,0.48-3.49,10.53-13.56,12.26l0,0
			c-0.61,0.12-1.33,1.09-1.65,1.41c-0.32,0.32-0.89,0.96-1.26,0.96c-0.37,0-0.72-0.26-1.29-0.89c-0.57-0.64-2.16-1.55-2.16-1.55l0,0
			C10.32,38.76,7.03,28.53,7.03,28.53l-1.33,0.26L7.26,22l4.99,4.35l-1.56,0.35c0.33,1.37,2.51,8.87,10.93,9.8V20.01h-5.37
			c-0.83,0-1.51-0.68-1.51-1.51v-0.52c0-0.83,0.68-1.51,1.51-1.51h5.37v-4.1"/>
	</g>
</g>
</svg>
