<?xml version="1.0" encoding="utf-8"?>
<!-- Generator: Adobe Illustrator 24.0.2, SVG Export Plug-In . SVG Version: 6.00 Build 0)  -->
<svg version="1.1" xmlns="http://www.w3.org/2000/svg" xmlns:xlink="http://www.w3.org/1999/xlink" x="0px" y="0px"
	 viewBox="0 0 47 47" style="enable-background:new 0 0 47 47;" xml:space="preserve">
<style type="text/css">
	.st0{display:none;}
	.st1{display:inline;fill:#19A500;}
	.st2{display:none;fill:#95A6B1;}
	.st3{fill:none;}
	.st4{fill:none;stroke:#FFFFFF;stroke-width:1.5;stroke-linecap:round;stroke-linejoin:round;}
</style>
<g id="Capa_2" class="st0">
	<rect x="-3.47" y="-4.1" class="st1" width="55.38" height="55.38"/>
</g>
<g id="Capa_1">
	<rect x="-4.19" y="-4.19" class="st2" width="55.38" height="55.38"/>
	<rect class="st3" width="47" height="47"/>
	<g id="Grupo_12866" transform="translate(-687.354 -428.494)">
		<path id="Trazado_11509" class="st4" d="M716.49,441.63c0,3.11-2.52,5.64-5.63,5.64c-3.11,0-5.64-2.52-5.64-5.63
			c0-3.11,2.52-5.64,5.63-5.64c0,0,0,0,0.01,0C713.96,435.99,716.49,438.52,716.49,441.63z"/>
		<rect id="Rectángulo_4518" x="693.28" y="459.93" class="st4" width="8.07" height="8.07"/>
		<rect id="Rectángulo_4519" x="706.82" y="459.93" class="st4" width="8.07" height="8.07"/>
		<rect id="Rectángulo_4520" x="720.36" y="459.93" class="st4" width="8.07" height="8.07"/>
		<line id="Línea_2121" class="st4" x1="705.89" y1="450.95" x2="710.85" y2="450.95"/>
		<line id="Línea_2122" class="st4" x1="697.31" y1="459.93" x2="697.31" y2="455.94"/>
		<path id="Trazado_11510" class="st4" d="M724.4,459.93v-3.98c0-2.76-2.24-4.99-4.99-4.99h-8.55"/>
		<line id="Línea_2123" class="st4" x1="710.85" y1="447.26" x2="710.85" y2="459.93"/>
		<circle id="Elipse_2115" class="st4" cx="700.43" cy="451.44" r="2.98"/>
	</g>
</g>
</svg>
