<?xml version="1.0" encoding="utf-8"?>
<!-- Generator: Adobe Illustrator 24.0.2, SVG Export Plug-In . SVG Version: 6.00 Build 0)  -->
<svg version="1.1" id="Capa_1" xmlns="http://www.w3.org/2000/svg" xmlns:xlink="http://www.w3.org/1999/xlink" x="0px" y="0px"
	 viewBox="0 0 65 65" style="enable-background:new 0 0 65 65;" xml:space="preserve">
<style type="text/css">
	.st0{fill:none;}
	.st1{fill:none;stroke:#4DA12E;stroke-width:2.4;stroke-linecap:round;stroke-linejoin:round;stroke-miterlimit:10;}
	.st2{fill:none;stroke:#96D200;stroke-width:2.4;stroke-linecap:round;stroke-linejoin:round;stroke-miterlimit:10;}
	.st3{fill:#95A6B1;}
	.st4{fill:none;stroke:#19A500;stroke-width:1.6;stroke-linecap:round;stroke-linejoin:round;stroke-miterlimit:10;}
	.st5{fill:none;stroke:#95A6B1;stroke-width:1.6;stroke-linecap:round;stroke-linejoin:round;}
	.st6{fill:none;stroke:#95A6B1;stroke-width:1.6;stroke-linecap:round;stroke-linejoin:round;stroke-miterlimit:10;}
	.st7{fill:none;stroke:#95A6B1;stroke-width:1.5313;stroke-linecap:round;stroke-linejoin:round;stroke-miterlimit:10;}
</style>
<symbol  id="Textura-65px_2" viewBox="-32.5 -8.4 65 16.7">
	<rect x="-32.5" y="-8.4" class="st0" width="65" height="16.7"/>
	<g>
		<line class="st1" x1="5.7" y1="-3.5" x2="12.9" y2="-3.5"/>
		<line class="st1" x1="20" y1="-3.5" x2="20.6" y2="-3.5"/>
		<line class="st1" x1="-20.6" y1="-3.5" x2="-13.5" y2="-3.5"/>
		<line class="st2" x1="-14" y1="-3.5" x2="-1.5" y2="-3.5"/>
		<line class="st2" x1="-20.6" y1="2.6" x2="3" y2="2.6"/>
		<line class="st1" x1="2.2" y1="2.6" x2="20.6" y2="2.6"/>
		<line class="st1" x1="-20.6" y1="2.6" x2="-20.2" y2="2.6"/>
	</g>
</symbol>
<path class="st3" d="M-174.7,32.2"/>
<g>
	
		<use xlink:href="#Textura-65px_2"  width="65" height="16.7" x="-32.5" y="-8.4" transform="matrix(1 0 0 -1 32.5 56.6295)" style="overflow:visible;"/>
	<g>
		<g>
			<g>
				<path id="Trazado_11848_9_" class="st4" d="M17.9,11.6c0,1.9-1.5,3.4-3.4,3.4c-1.9,0-3.4-1.5-3.4-3.4c0-1.9,1.5-3.4,3.4-3.4h0
					C16.3,8.2,17.9,9.7,17.9,11.6C17.9,11.6,17.9,11.6,17.9,11.6z"/>
				<g>
					<path id="Trazado_12473_3_" class="st5" d="M37.8,7.5"/>
					<path id="Trazado_12473_2_" class="st5" d="M38.4,13.9"/>
				</g>
			</g>
		</g>
		<rect id="Rectángulo_3799-2_1_" class="st0" width="65" height="65"/>
	</g>
</g>
<g>
	<path class="st6" d="M20,7.8c3.5-2.7,7.8-4.3,12.5-4.3c11.3,0,20.4,9.1,20.4,20.4c0,2.7-0.5,5.4-1.5,7.7"/>
	<path class="st6" d="M41.4,42.3c-2.7,1.3-5.7,2-8.9,2c-11.3,0-20.4-9.1-20.4-20.4c0-2.1,0.3-4.1,0.9-6"/>
	<g>
		<path class="st6" d="M39.8,37.7c-2.2,1.1-4.7,1.8-7.3,1.8c-8.7,0-15.8-7.1-15.8-15.8c0-7.6,5.4-14,12.6-15.5"/>
		<path class="st6" d="M36.2,8.3c7,1.7,12.1,7.9,12.1,15.4c0,1.8-0.3,3.6-0.9,5.2"/>
		<line class="st6" x1="32.8" y1="7.8" x2="32.8" y2="7.8"/>
	</g>
	<g>
		<path class="st6" d="M40.1,33.7l6.2-4.1c0.5-0.3,1.1-0.3,1.6,0l6.2,4.1c0.4,0.3,0.7,0.8,0.7,1.3c-0.3,6.6-4.8,12.7-7.7,12.7
			c-2.9,0-7.3-6.2-7.7-12.7C39.4,34.5,39.7,34,40.1,33.7z"/>
		<polyline class="st6" points="44.2,38.3 46.4,40.3 50.5,36 		"/>
	</g>
	<g>
		<rect x="27.3" y="22.6" class="st7" width="10" height="7.1"/>
		<path class="st7" d="M32.3,16.9L32.3,16.9c-1.6,0-3,1.3-3,3v2.8h5.9v-2.8C35.2,18.2,33.9,16.9,32.3,16.9z"/>
		<line class="st7" x1="32.3" y1="26.1" x2="32.3" y2="26.1"/>
	</g>
</g>
<g>
	<line class="st6" x1="34.4" y1="13.7" x2="44.6" y2="13.7"/>
	<line class="st6" x1="20.9" y1="13.7" x2="34.9" y2="13.7"/>
</g>
<g>
	<line class="st6" x1="28.7" y1="33.4" x2="40.1" y2="33.4"/>
	<line class="st6" x1="20.1" y1="33.4" x2="30.2" y2="33.4"/>
</g>
</svg>
