<svg xmlns="http://www.w3.org/2000/svg" width="47" height="47" viewBox="0 0 47 47">
  <g id="Grupo_19084" data-name="Grupo 19084" transform="translate(210.881 -295.656)">
    <path id="Path_356" data-name="Path 356" d="M-195.866,303.1a3.09,3.09,0,0,1-3.1,3.079,3.091,3.091,0,0,1-3.079-3.1,3.089,3.089,0,0,1,3.1-3.078,3.087,3.087,0,0,1,3.078,3.078Z" fill="none" stroke="#fff" stroke-linecap="round" stroke-linejoin="round" stroke-width="1.5"/>
    <path id="Trazado_28156" data-name="Trazado 28156" d="M-167.995,307.2l-5.958,4.029h-4.316a.66.66,0,0,0-.658.658v4.661a.659.659,0,0,0,.658.658h4.316l5.958,4.029Z" fill="none" stroke="#fff" stroke-linecap="round" stroke-linejoin="round" stroke-width="1.5"/>
    <path id="Trazado_28157" data-name="Trazado 28157" d="M-167.995,312.02a2.2,2.2,0,0,1,2.2,2.2,2.2,2.2,0,0,1-2.2,2.2" fill="none" stroke="#fff" stroke-linecap="round" stroke-linejoin="round" stroke-width="1.5"/>
    <rect id="Rectángulo_5519" data-name="Rectángulo 5519" width="10.753" height="8.961" transform="translate(-205.666 324.303)" fill="none" stroke="#fff" stroke-linecap="round" stroke-linejoin="round" stroke-width="1.5"/>
    <path id="Trazado_28158" data-name="Trazado 28158" d="M-201.342,326.717l2.365,2.067-2.365,2.065" fill="none" stroke="#fff" stroke-linecap="round" stroke-linejoin="round" stroke-width="1.5"/>
    <line id="Línea_2816" data-name="Línea 2816" y1="15.027" transform="translate(-201.342 309.275)" fill="none" stroke="#fff" stroke-linecap="round" stroke-linejoin="round" stroke-width="1.5"/>
    <path id="Trazado_28159" data-name="Trazado 28159" d="M-172.536,318.165v9.53h-22.377" fill="none" stroke="#fff" stroke-linecap="round" stroke-linejoin="round" stroke-width="1.5"/>
    <path id="Línea_2817" data-name="Línea 2817" d="M-172.536,310.272V304.2h-20.128" fill="none" stroke="#fff" stroke-linecap="round" stroke-linejoin="round" stroke-width="1.5"/>
    <path id="Trazado_28160" data-name="Trazado 28160" d="M-197.1,321.236h15.618l-3.471-7.073-4.338,3.536-4.338-5.893Z" fill="none" stroke="#fff" stroke-linecap="round" stroke-linejoin="round" stroke-width="1.5"/>
    <rect id="Rectángulo_5520" data-name="Rectángulo 5520" width="47" height="47" transform="translate(-210.881 295.656)" fill="none"/>
  </g>
</svg>
