<svg id="Capa_1" data-name="Capa 1" xmlns="http://www.w3.org/2000/svg" viewBox="0 0 47 47"><defs><style>.cls-1{fill:none;}.cls-2{fill:#fff;}</style></defs><title>icono_menu-contratistas</title><rect class="cls-1" width="47" height="47"/><g id="Grupo_12884" data-name="Grupo 12884"><g id="Grupo_12816" data-name="Grupo 12816"><g id="Line_1370" data-name="Line 1370"><path class="cls-2" d="M36,41.2H13a.7.7,0,0,1,0-1.4H36a.7.7,0,0,1,0,1.4Z"/></g><g id="Grupo_12814" data-name="Grupo 12814"><g id="Group_2600" data-name="Group 2600"><g id="Path_1227" data-name="Path 1227"><path class="cls-2" d="M24.5,22.6a5.6,5.6,0,0,1-3.7-1.5,5.1,5.1,0,0,1-1.5-3.7V11.9a4.6,4.6,0,0,1,1.3-3.2,4.5,4.5,0,0,1,3.3-1.4h1.2a4.6,4.6,0,0,1,4.6,4.6v5.3A5.4,5.4,0,0,1,25,22.6ZM23.9,8.8a3.4,3.4,0,0,0-2.2.9,3.1,3.1,0,0,0-.9,2.2v5.5h0a3.8,3.8,0,0,0,3.7,3.7c.1-.1.2,0,.4,0a3.9,3.9,0,0,0,3.3-3.9V11.9a3.1,3.1,0,0,0-3.1-3.1Z"/></g></g></g><g id="Grupo_12815" data-name="Grupo 12815"><g id="Group_2600-2" data-name="Group 2600-2"><g id="Path_1226" data-name="Path 1226"><path class="cls-2" d="M36,41.2a.8.8,0,0,1-.8-.6l-.4-5.1c0-.6-.1-1.1-.1-1.7s-.1-3.7-1.2-5.1a6.6,6.6,0,0,0-3.8-2.1,27,27,0,0,0-4.9-.4h-.6a27,27,0,0,0-4.9.4A7.3,7.3,0,0,0,16.2,28a.7.7,0,1,1-.9-1.1,7.9,7.9,0,0,1,3.8-1.8,29.2,29.2,0,0,1,5.1-.4h.6a29.2,29.2,0,0,1,5.1.4,7.9,7.9,0,0,1,4.7,2.6c1.5,1.8,1.5,4,1.6,6s.1,1.1.1,1.6l.4,5.1a.6.6,0,0,1-.6.8Z"/></g><g id="Path_1226-2" data-name="Path 1226-2"><path class="cls-2" d="M13,41.2h-.1a.6.6,0,0,1-.6-.8l.3-3.4a.7.7,0,0,1,.8-.7.7.7,0,0,1,.6.9l-.2,3.4A.8.8,0,0,1,13,41.2Z"/></g></g></g></g><g id="Línea_2157" data-name="Línea 2157"><path class="cls-2" d="M31.2,14.4H17.8a.8.8,0,0,1-.8-.8.7.7,0,0,1,.8-.7H31.2a.8.8,0,0,1,.8.7A.9.9,0,0,1,31.2,14.4Z"/></g><g id="Línea_2158" data-name="Línea 2158"><path class="cls-2" d="M24.5,10.4a.7.7,0,0,1-.7-.7V6.5a.7.7,0,0,1,.7-.7.8.8,0,0,1,.8.7V9.7A.8.8,0,0,1,24.5,10.4Z"/></g><g id="Elipse_2123" data-name="Elipse 2123"><path class="cls-2" d="M13.8,35.7a3.4,3.4,0,0,1-3.5-3.5,3.5,3.5,0,0,1,3.5-3.5,3.5,3.5,0,0,1,3.5,3.5A3.5,3.5,0,0,1,13.8,35.7Zm0-5.5a2,2,0,1,0,2,2A2,2,0,0,0,13.8,30.2Z"/></g></g></svg>