<?xml version="1.0" encoding="utf-8"?>
<!-- Generator: Adobe Illustrator 24.0.2, SVG Export Plug-In . SVG Version: 6.00 Build 0)  -->
<svg version="1.1" xmlns="http://www.w3.org/2000/svg" xmlns:xlink="http://www.w3.org/1999/xlink" x="0px" y="0px"
	 viewBox="0 0 60 60" style="enable-background:new 0 0 60 60;" xml:space="preserve">
<style type="text/css">
	.st0{fill:#19A500;}
	.st1{fill:none;}
	.st2{fill:#FFFFFF;}
	.st3{fill:#EFEF00;}
	.st4{fill:none;stroke:#FFFFFF;stroke-width:1.1002;stroke-linecap:round;stroke-linejoin:round;stroke-miterlimit:10;}
</style>
<g id="Capa_2">
	<g>
		<g>
			<g id="Rectángulo_3799_61_">
				<path class="st0" d="M30,0L30,0c16.57,0,30,13.43,30,30v0c0,16.57-13.43,30-30,30h0C13.43,60,0,46.57,0,30v0
					C0,13.43,13.43,0,30,0z"/>
			</g>
		</g>
	</g>
</g>
<g id="Capa_1">
	<g>
		<g>
			<g>
				<g>
					<g id="Rectángulo_3799_12_">
						<rect class="st1" width="60" height="60"/>
					</g>
				</g>
			</g>
		</g>
		<g>
			<g>
				<g>
					<path class="st2" d="M28.32,46.82H9.09c-0.29,0-0.52-0.23-0.52-0.52V15.19c0-0.29,0.23-0.52,0.52-0.52h6.78
						c0.29,0,0.52,0.23,0.52,0.52s-0.23,0.52-0.52,0.52H9.61v30.07h18.72c0.29,0,0.52,0.23,0.52,0.52S28.61,46.82,28.32,46.82z"/>
				</g>
				<g>
					<path class="st2" d="M46.05,26.2c-0.29,0-0.52-0.23-0.52-0.52v-9.97h-5.39c-0.29,0-0.52-0.23-0.52-0.52s0.23-0.52,0.52-0.52
						h5.91c0.29,0,0.52,0.23,0.52,0.52v10.49C46.57,25.97,46.33,26.2,46.05,26.2z"/>
				</g>
				<g>
					<path class="st2" d="M36.45,15.71H19.47c-0.29,0-0.52-0.23-0.52-0.52s0.23-0.52,0.52-0.52h16.98c0.29,0,0.52,0.23,0.52,0.52
						S36.73,15.71,36.45,15.71z"/>
				</g>
				<g>
					<path class="st2" d="M18.6,18.98h-1.81c-0.77,0-1.39-0.62-1.39-1.39v-4.82c0-0.77,0.62-1.39,1.39-1.39h1.81
						c0.77,0,1.39,0.62,1.39,1.39v4.82C19.99,18.36,19.37,18.98,18.6,18.98z M16.79,12.42c-0.19,0-0.35,0.16-0.35,0.35v4.82
						c0,0.19,0.16,0.35,0.35,0.35h1.81c0.19,0,0.35-0.16,0.35-0.35v-4.82c0-0.19-0.16-0.35-0.35-0.35H16.79z"/>
				</g>
				<g>
					<path class="st2" d="M39.12,18.98h-1.81c-0.77,0-1.39-0.62-1.39-1.39v-4.82c0-0.77,0.62-1.39,1.39-1.39h1.81
						c0.77,0,1.39,0.62,1.39,1.39v4.82C40.51,18.36,39.89,18.98,39.12,18.98z M37.31,12.42c-0.19,0-0.35,0.16-0.35,0.35v4.82
						c0,0.19,0.16,0.35,0.35,0.35h1.81c0.19,0,0.35-0.16,0.35-0.35v-4.82c0-0.19-0.16-0.35-0.35-0.35H37.31z"/>
				</g>
				<g>
					<path class="st2" d="M46.07,23.5H9.27c-0.29,0-0.52-0.23-0.52-0.52s0.23-0.52,0.52-0.52h36.8c0.29,0,0.52,0.23,0.52,0.52
						S46.36,23.5,46.07,23.5z"/>
				</g>
				<g>
					<path class="st2" d="M21.79,37.34c-0.08,0-0.17-0.02-0.24-0.06l-2.97-1.56l-2.97,1.56c-0.17,0.09-0.39,0.08-0.55-0.04
						c-0.16-0.12-0.24-0.31-0.21-0.51l0.57-3.31l-2.4-2.34c-0.14-0.14-0.19-0.35-0.13-0.53c0.06-0.19,0.22-0.33,0.42-0.35l3.32-0.48
						l1.49-3.01c0.18-0.36,0.76-0.36,0.93,0l1.49,3.01l3.32,0.48c0.2,0.03,0.36,0.17,0.42,0.35c0.06,0.19,0.01,0.4-0.13,0.53
						l-2.4,2.34l0.57,3.31c0.03,0.2-0.05,0.39-0.21,0.51C22.01,37.31,21.9,37.34,21.79,37.34z M18.58,34.61
						c0.08,0,0.17,0.02,0.24,0.06l2.28,1.2l-0.44-2.54c-0.03-0.17,0.03-0.34,0.15-0.46l1.84-1.8l-2.55-0.37
						c-0.17-0.02-0.32-0.13-0.39-0.29l-1.14-2.31l-1.14,2.31c-0.08,0.15-0.22,0.26-0.39,0.29l-2.55,0.37l1.84,1.8
						c0.12,0.12,0.18,0.29,0.15,0.46l-0.44,2.54l2.28-1.2C18.41,34.63,18.5,34.61,18.58,34.61z"/>
				</g>
				<g>
					<path class="st2" d="M38.41,52.62c-6.65,0-12.06-5.41-12.06-12.06S31.76,28.5,38.41,28.5c0.82,0,1.63,0.08,2.43,0.24
						c0.28,0.06,0.46,0.33,0.41,0.62c-0.06,0.28-0.34,0.46-0.62,0.41c-0.73-0.15-1.47-0.22-2.22-0.22
						c-6.08,0-11.02,4.94-11.02,11.02s4.94,11.02,11.02,11.02c6.08,0,11.02-4.94,11.02-11.02c0-0.99-0.13-1.97-0.39-2.92
						c-0.08-0.28,0.09-0.56,0.37-0.64c0.29-0.07,0.56,0.09,0.64,0.37c0.28,1.04,0.43,2.11,0.43,3.19
						C50.47,47.21,45.06,52.62,38.41,52.62z"/>
				</g>
			</g>
			<g>
				<g>
					<path class="st2" d="M38.68,42.07c-2.24,0-4.07-1.83-4.07-4.07c0-2.24,1.83-4.07,4.07-4.07s4.07,1.83,4.07,4.07
						C42.74,40.25,40.92,42.07,38.68,42.07z M38.68,34.98c-1.67,0-3.03,1.36-3.03,3.03c0,1.67,1.36,3.03,3.03,3.03
						S41.7,39.67,41.7,38C41.7,36.34,40.34,34.98,38.68,34.98z"/>
				</g>
				<g>
					<path class="st2" d="M46.88,49.04c-0.29,0-0.52-0.23-0.52-0.52c0-1.92-1.57-4.23-3.52-4.23h-8.27c-1.95,0-3.52,2.32-3.52,4.23
						c0,0.29-0.23,0.52-0.52,0.52s-0.52-0.23-0.52-0.52c0-2.44,1.99-5.27,4.57-5.27h8.27c2.57,0,4.56,2.83,4.56,5.27
						C47.4,48.81,47.17,49.04,46.88,49.04z"/>
				</g>
			</g>
			<g>
				<g>
					<g>
						<path class="st3" d="M46.74,36.43c-0.62,0-1.24-0.13-1.83-0.39c-1.09-0.49-1.92-1.37-2.34-2.48c-0.42-1.11-0.39-2.32,0.1-3.41
							c0.49-1.09,1.37-1.92,2.48-2.34s2.32-0.39,3.41,0.1c1.09,0.49,1.92,1.37,2.34,2.48c0.42,1.11,0.39,2.32-0.1,3.41
							c-0.49,1.09-1.37,1.92-2.48,2.34C47.81,36.34,47.27,36.43,46.74,36.43z M46.74,28.72c-0.39,0-0.78,0.07-1.16,0.21
							c-0.81,0.31-1.46,0.92-1.81,1.71c-0.36,0.79-0.38,1.68-0.07,2.49c0.31,0.81,0.92,1.46,1.71,1.81
							c0.79,0.36,1.68,0.38,2.49,0.07c0.81-0.31,1.46-0.92,1.81-1.71c0.36-0.79,0.38-1.68,0.07-2.49C49.47,30,48.87,29.36,48.07,29
							C47.65,28.81,47.19,28.72,46.74,28.72z"/>
					</g>
				</g>
			</g>
		</g>
	</g>
</g>
</svg>
