<?xml version="1.0" encoding="utf-8"?>
<!-- Generator: Adobe Illustrator 24.0.2, SVG Export Plug-In . SVG Version: 6.00 Build 0)  -->
<svg version="1.1" xmlns="http://www.w3.org/2000/svg" xmlns:xlink="http://www.w3.org/1999/xlink" x="0px" y="0px"
	 viewBox="0 0 60 60" style="enable-background:new 0 0 60 60;" xml:space="preserve">
<style type="text/css">
	.st0{fill:#19A500;}
	.st1{fill:none;}
	.st2{fill:#FFFFFF;}
	.st3{fill:#EFEF00;}
	.st4{fill:none;stroke:#FFFFFF;stroke-width:1.1002;stroke-linecap:round;stroke-linejoin:round;stroke-miterlimit:10;}
</style>
<g id="Capa_2">
	<g>
		<g>
			<g id="Rectángulo_3799_60_">
				<path class="st0" d="M30,0L30,0c16.57,0,30,13.43,30,30v0c0,16.57-13.43,30-30,30h0C13.43,60,0,46.57,0,30v0
					C0,13.43,13.43,0,30,0z"/>
			</g>
		</g>
	</g>
</g>
<g id="Capa_1">
	<g>
		<g>
			<g>
				<g>
					<g id="Rectángulo_3799_36_">
						<rect class="st1" width="60" height="60"/>
					</g>
				</g>
			</g>
		</g>
		<g>
			<g>
				<g>
					<g>
						<path class="st2" d="M25.64,22.26H15.58c-0.3,0-0.55-0.25-0.55-0.55s0.25-0.55,0.55-0.55h10.06c0.3,0,0.55,0.25,0.55,0.55
							S25.94,22.26,25.64,22.26z"/>
					</g>
					<g>
						<path class="st2" d="M20.58,22.26c-0.3,0-0.55-0.25-0.55-0.55v-5.7c0-0.3,0.25-0.55,0.55-0.55s0.55,0.25,0.55,0.55v5.7
							C21.12,22.01,20.88,22.26,20.58,22.26z"/>
					</g>
					<g>
						<path class="st2" d="M20.66,28.9c-0.81,0-1.61-0.17-2.37-0.51c-1.41-0.63-2.49-1.78-3.04-3.22c-0.55-1.44-0.5-3.02,0.13-4.43
							c0.63-1.41,1.78-2.49,3.22-3.04s3.02-0.5,4.43,0.13c1.41,0.63,2.49,1.78,3.04,3.22c0.55,1.44,0.5,3.02-0.13,4.43
							s-1.78,2.49-3.22,3.04C22.05,28.78,21.35,28.9,20.66,28.9z M20.66,18.42c-0.56,0-1.13,0.1-1.67,0.31
							c-1.17,0.44-2.1,1.32-2.61,2.46c-1.06,2.36,0,5.14,2.35,6.2c1.14,0.51,2.42,0.55,3.59,0.11c1.17-0.44,2.1-1.32,2.61-2.46l0,0
							c1.06-2.36,0-5.14-2.35-6.2C21.97,18.56,21.31,18.42,20.66,18.42z"/>
					</g>
					<g>
						<path class="st2" d="M34.59,33.2c-0.79,0-1.6-0.16-2.36-0.51c-2.91-1.31-4.21-4.74-2.91-7.65c0.63-1.41,1.78-2.49,3.22-3.04
							c1.44-0.55,3.02-0.5,4.43,0.13c1.41,0.63,2.49,1.78,3.04,3.22s0.5,3.02-0.13,4.43C38.91,31.93,36.8,33.2,34.59,33.2z
							 M34.6,22.73c-1.79,0-3.5,1.03-4.28,2.77c-1.06,2.36,0,5.14,2.35,6.2c2.36,1.06,5.14,0,6.2-2.35l0,0
							c0.51-1.14,0.55-2.42,0.11-3.59c-0.44-1.17-1.32-2.1-2.46-2.61C35.9,22.86,35.25,22.73,34.6,22.73z"/>
					</g>
				</g>
			</g>
			<g>
				<path class="st2" d="M29.48,51.52C17.62,51.52,7.96,41.86,7.96,30S17.62,8.48,29.48,8.48c9.46,0,17.72,6.06,20.54,15.09
					c0.09,0.29-0.07,0.6-0.36,0.69c-0.29,0.09-0.6-0.07-0.69-0.36C46.29,15.34,38.46,9.58,29.48,9.58C18.22,9.58,9.06,18.74,9.06,30
					s9.16,20.42,20.42,20.42c9.02,0,16.86-5.79,19.51-14.4c0.09-0.29,0.4-0.45,0.69-0.36c0.29,0.09,0.45,0.4,0.36,0.69
					C47.25,45.42,38.99,51.52,29.48,51.52z"/>
			</g>
			<g>
				<path class="st2" d="M29.05,51.29c-0.3,0-0.55-0.25-0.55-0.55V39.75c0-4.02-3.27-7.29-7.29-7.29h-1.84
					c-4.02,0-7.29,3.27-7.29,7.29v0.68c0,0.3-0.25,0.55-0.55,0.55s-0.55-0.25-0.55-0.55v-0.68c0-4.62,3.76-8.38,8.38-8.38h1.84
					c4.62,0,8.38,3.76,8.38,8.38v10.99C29.6,51.04,29.36,51.29,29.05,51.29z"/>
			</g>
			<g>
				<path class="st2" d="M43.58,45.75c-0.3,0-0.55-0.25-0.55-0.55c0-4.02-3.27-7.29-7.29-7.29H33.9c-1.61,0-3.13,0.51-4.4,1.48
					c-0.24,0.19-0.59,0.14-0.77-0.1s-0.14-0.59,0.1-0.77c1.47-1.12,3.22-1.71,5.07-1.71h1.84c4.62,0,8.38,3.76,8.38,8.38
					C44.13,45.5,43.88,45.75,43.58,45.75z"/>
			</g>
			<g>
				<g>
					<g>
						<path class="st3" d="M49.62,34.4c-0.61,0-1.23-0.13-1.82-0.39c-1.08-0.49-1.92-1.37-2.34-2.48c-0.42-1.11-0.39-2.32,0.1-3.41
							c0.49-1.09,1.37-1.92,2.48-2.34c1.11-0.42,2.32-0.39,3.41,0.1c1.09,0.49,1.92,1.37,2.34,2.48c0.42,1.11,0.39,2.32-0.1,3.41
							l0,0C52.95,33.42,51.32,34.4,49.62,34.4z M49.63,26.69c-0.39,0-0.78,0.07-1.16,0.21c-0.81,0.31-1.46,0.92-1.81,1.71
							s-0.38,1.68-0.07,2.49c0.31,0.81,0.92,1.46,1.71,1.81c1.63,0.74,3.57,0,4.31-1.63l0,0c0.36-0.79,0.38-1.68,0.07-2.49
							c-0.31-0.81-0.92-1.46-1.71-1.81C50.54,26.79,50.08,26.69,49.63,26.69z"/>
					</g>
				</g>
			</g>
		</g>
	</g>
</g>
</svg>
