<?xml version="1.0" encoding="utf-8"?>
<!-- Generator: Adobe Illustrator 24.0.2, SVG Export Plug-In . SVG Version: 6.00 Build 0)  -->
<svg version="1.1" xmlns="http://www.w3.org/2000/svg" xmlns:xlink="http://www.w3.org/1999/xlink" x="0px" y="0px"
	 viewBox="0 0 60 60" style="enable-background:new 0 0 60 60;" xml:space="preserve">
<style type="text/css">
	.st0{fill:#19A500;}
	.st1{fill:none;}
	.st2{fill:#FFFFFF;}
	.st3{fill:#EFEF00;}
	.st4{fill:none;stroke:#FFFFFF;stroke-width:1.1002;stroke-linecap:round;stroke-linejoin:round;stroke-miterlimit:10;}
</style>
<g id="Capa_2">
	<g>
		<g>
			<g id="Rectángulo_3799_59_">
				<path class="st0" d="M30,0L30,0c16.57,0,30,13.43,30,30v0c0,16.57-13.43,30-30,30h0C13.43,60,0,46.57,0,30v0
					C0,13.43,13.43,0,30,0z"/>
			</g>
		</g>
	</g>
</g>
<g id="Capa_1">
	<g>
		<g>
			<g>
				<g>
					<g id="Rectángulo_3799_35_">
						<rect class="st1" width="60" height="60"/>
					</g>
				</g>
			</g>
		</g>
		<g>
			<g>
				<path class="st2" d="M29.51,51.42C17.7,51.42,8.09,41.81,8.09,30S17.7,8.58,29.51,8.58c9.42,0,17.64,6.03,20.44,15.02
					c0.1,0.32-0.08,0.65-0.39,0.75c-0.31,0.1-0.65-0.08-0.75-0.39C46.16,15.48,38.4,9.78,29.51,9.78C18.36,9.78,9.29,18.85,9.29,30
					s9.07,20.22,20.22,20.22c8.93,0,16.7-5.73,19.33-14.26c0.1-0.32,0.43-0.5,0.75-0.4c0.32,0.1,0.49,0.43,0.4,0.75
					C47.2,45.35,38.97,51.42,29.51,51.42z"/>
			</g>
			<g>
				<g>
					<path class="st2" d="M29.26,46.14c-0.13,0-0.27-0.04-0.38-0.13l-7.43-5.97c-0.16-0.13-0.24-0.32-0.22-0.53
						c0.02-0.2,0.14-0.38,0.32-0.47c3.19-1.68,3.34-3.51,3.31-4.03c-0.02-0.33,0.23-0.62,0.56-0.64c0.32-0.03,0.62,0.23,0.64,0.56
						c0.05,0.83-0.18,2.87-3.16,4.72l6.36,5.12l6.39-5.2c-1.23-0.8-3.45-2.54-3.31-4.58c0.02-0.33,0.34-0.57,0.64-0.56
						c0.33,0.02,0.58,0.31,0.56,0.64c-0.11,1.61,2.44,3.36,3.44,3.89c0.18,0.1,0.29,0.27,0.31,0.47c0.02,0.2-0.06,0.4-0.22,0.52
						L29.64,46C29.53,46.09,29.39,46.14,29.26,46.14z"/>
				</g>
				<g>
					<path class="st2" d="M44.18,45.27c-0.29,0-0.55-0.21-0.59-0.51c-0.56-3.92-3.98-6.88-7.95-6.88h-1.55c-0.33,0-0.6-0.27-0.6-0.6
						s0.27-0.6,0.6-0.6h1.55c4.56,0,8.49,3.4,9.14,7.91c0.05,0.33-0.18,0.63-0.51,0.68C44.23,45.27,44.2,45.27,44.18,45.27z"/>
				</g>
				<g>
					<path class="st2" d="M14.12,44.2c-0.05,0-0.11-0.01-0.16-0.02c-0.32-0.09-0.51-0.42-0.42-0.74c1.1-3.99,4.76-6.77,8.9-6.77
						h1.84c0.33,0,0.6,0.27,0.6,0.6s-0.27,0.6-0.6,0.6h-1.84c-3.6,0-6.79,2.42-7.75,5.89C14.63,44.03,14.39,44.2,14.12,44.2z"/>
				</g>
				<g>
					<path class="st2" d="M40.75,39.21c-0.33,0-0.6-0.27-0.6-0.6V25.46c0-5.93-4.83-10.76-10.76-10.76s-10.76,4.83-10.76,10.76
						v12.91c0,0.33-0.27,0.6-0.6,0.6s-0.6-0.27-0.6-0.6V25.46c0-6.6,5.37-11.96,11.96-11.96s11.96,5.37,11.96,11.96v13.15
						C41.35,38.94,41.08,39.21,40.75,39.21z"/>
				</g>
				<g>
					<path class="st2" d="M30.24,36.01h-2.09c-3.94,0-7.15-3.21-7.15-7.15v-4.48c0-0.12,0-0.23,0.01-0.35v-0.97
						c0-0.33,0.27-0.6,0.6-0.6h4.5c0.08,0,2.39,0,3.86-1.45c0.79-0.78,1.19-1.87,1.19-3.22c0-0.33,0.26-0.59,0.59-0.6
						c0.33,0.01,0.6,0.25,0.61,0.58c0.01,0.19,0.2,4.61,4.29,4.61c0.31,0,0.56,0.23,0.6,0.54l0.15,1.39c0,0.02,0,0.04,0,0.06v4.48
						C37.4,32.8,34.19,36.01,30.24,36.01z M22.21,23.66v0.4c0,0.12-0.01,0.22-0.01,0.32v4.48c0,3.28,2.67,5.96,5.95,5.96h2.09
						c3.28,0,5.95-2.67,5.95-5.96V24.4l-0.09-0.85c-2.31-0.19-3.62-1.59-4.31-3.08c-0.25,0.52-0.58,0.98-0.99,1.39
						c-1.83,1.8-4.59,1.79-4.71,1.79H22.21z"/>
				</g>
			</g>
			<g>
				<g>
					<g>
						<path class="st3" d="M49.64,34.4c-0.61,0-1.23-0.13-1.82-0.39c-1.08-0.49-1.92-1.37-2.34-2.48c-0.42-1.11-0.39-2.32,0.1-3.41
							c0.49-1.09,1.37-1.92,2.48-2.34c1.11-0.42,2.32-0.39,3.41,0.1c1.09,0.49,1.92,1.37,2.34,2.48c0.42,1.11,0.39,2.32-0.1,3.41
							l0,0C52.97,33.42,51.34,34.4,49.64,34.4z M49.65,26.69c-0.39,0-0.78,0.07-1.16,0.21c-0.81,0.31-1.46,0.92-1.81,1.71
							s-0.38,1.68-0.07,2.49c0.31,0.81,0.92,1.46,1.71,1.81c1.64,0.74,3.57,0,4.31-1.63l0,0c0.36-0.79,0.38-1.68,0.07-2.49
							c-0.31-0.81-0.92-1.46-1.71-1.81C50.56,26.79,50.1,26.69,49.65,26.69z"/>
					</g>
				</g>
			</g>
		</g>
	</g>
</g>
</svg>
