<svg xmlns="http://www.w3.org/2000/svg" width="52.962" height="121.495" viewBox="0 0 52.962 121.495">
  <g id="Grupo_20497" data-name="Grupo 20497" transform="translate(-88.472 -4461.601)">
    <g id="Grupo_18647" data-name="Grupo 18647" transform="translate(-96 2643.917)">
      <g id="Grupo_20343" data-name="Grupo 20343" transform="translate(184.472 1817.685)">
        <g id="Grupo_16165" data-name="Grupo 16165" transform="translate(5.108 4.012)">
          <path id="Trazado_17832" data-name="Trazado 17832" d="M7.864,12.173V9.427a1.928,1.928,0,0,1,1.93-1.939h4.558a1.934,1.934,0,0,1,1.93,1.939V20.745" transform="translate(-5.108 -4.012)" fill="none" stroke="#95a6b1" stroke-linecap="round" stroke-linejoin="round" stroke-width="1.5"/>
          <path id="Trazado_17833" data-name="Trazado 17833" d="M16.282,32.3V42.419H7.864V24.383" transform="translate(-5.108 -4.012)" fill="none" stroke="#95a6b1" stroke-linecap="round" stroke-linejoin="round" stroke-width="1.5"/>
          <path id="Trazado_17834" data-name="Trazado 17834" d="M24.192,42.419V30.884" transform="translate(-5.108 -4.012)" fill="none" stroke="#95a6b1" stroke-linecap="round" stroke-linejoin="round" stroke-width="1.5"/>
          <path id="Trazado_17835" data-name="Trazado 17835" d="M24.192,22.158V16.069a3.035,3.035,0,0,0-2.917-3.144H16.282" transform="translate(-5.108 -4.012)" fill="none" stroke="#95a6b1" stroke-linecap="round" stroke-linejoin="round" stroke-width="1.5"/>
          <line id="Línea_2122" data-name="Línea 2122" x1="39.131" transform="translate(0 38.405)" fill="none" stroke="#95a6b1" stroke-linecap="round" stroke-linejoin="round" stroke-width="1.5"/>
          <circle id="Elipse_2612" data-name="Elipse 2612" cx="6.539" cy="6.539" r="6.539" transform="translate(7.688 15.969)" fill="none" stroke="#95a6b1" stroke-linecap="round" stroke-linejoin="round" stroke-width="1.5"/>
          <circle id="Elipse_2613" data-name="Elipse 2613" cx="3.533" cy="3.533" r="3.533" transform="translate(10.694 18.974)" fill="none" stroke="#95a6b1" stroke-linecap="round" stroke-linejoin="round" stroke-width="1.5"/>
          <circle id="Elipse_2614" data-name="Elipse 2614" cx="3.052" cy="3.052" r="3.052" transform="translate(26.392 19.455)" fill="none" stroke="#95a6b1" stroke-linecap="round" stroke-linejoin="round" stroke-width="1.5"/>
          <line id="Línea_3789" data-name="Línea 3789" x2="13.998" y2="3.314" transform="translate(15.816 16.164)" fill="none" stroke="#95a6b1" stroke-linecap="round" stroke-linejoin="round" stroke-width="1.5"/>
          <line id="Línea_3790" data-name="Línea 3790" x1="13.701" y2="3.309" transform="translate(15.743 25.56)" fill="none" stroke="#95a6b1" stroke-linecap="round" stroke-linejoin="round" stroke-width="1.5"/>
          <path id="Rectángulo_5343" data-name="Rectángulo 5343" d="M3.45,0H9.837a3.45,3.45,0,0,1,3.45,3.45V26.094a0,0,0,0,1,0,0H0a0,0,0,0,1,0,0V3.45A3.45,3.45,0,0,1,3.45,0Z" transform="translate(23.416 12.314)" fill="none" stroke="#95a6b1" stroke-linecap="round" stroke-linejoin="round" stroke-width="1.5"/>
          <path id="Trazado_17836" data-name="Trazado 17836" d="M35.783,33.059,34.552,35.6h1.923l-1.462,3.231" transform="translate(-5.108 -4.012)" fill="none" stroke="#95a6b1" stroke-linecap="round" stroke-linejoin="round" stroke-width="1.5"/>
          <line id="Línea_3791" data-name="Línea 3791" y1="3.58" transform="translate(26.866 8.735)" fill="none" stroke="#95a6b1" stroke-linecap="round" stroke-linejoin="round" stroke-width="1.5"/>
          <line id="Línea_3792" data-name="Línea 3792" y1="3.58" transform="translate(33.253 8.735)" fill="none" stroke="#95a6b1" stroke-linecap="round" stroke-linejoin="round" stroke-width="1.5"/>
          <line id="Línea_3793" data-name="Línea 3793" x2="9.154" transform="translate(25.477 9.658)" fill="none" stroke="#95a6b1" stroke-linecap="round" stroke-linejoin="round" stroke-width="1.5"/>
          <line id="Línea_3794" data-name="Línea 3794" y1="3.296" transform="translate(4.895)" fill="none" stroke="#95a6b1" stroke-linecap="round" stroke-linejoin="round" stroke-width="1.5"/>
          <line id="Línea_3795" data-name="Línea 3795" y1="3.296" transform="translate(9.477)" fill="none" stroke="#95a6b1" stroke-linecap="round" stroke-linejoin="round" stroke-width="1.5"/>
          <line id="Línea_3796" data-name="Línea 3796" x2="7.049" transform="translate(3.806 0.923)" fill="none" stroke="#95a6b1" stroke-linecap="round" stroke-linejoin="round" stroke-width="1.5"/>
        </g>
        <rect id="Rectángulo_5125" data-name="Rectángulo 5125" width="47" height="47" fill="none"/>
        <path id="Trazado_11848" data-name="Trazado 11848" d="M11.825,18.26a3.9,3.9,0,1,1-3.9-3.9h0a3.883,3.883,0,0,1,3.9,3.868Z" fill="none" stroke="#19a500" stroke-linecap="round" stroke-linejoin="round" stroke-width="1.5"/>
      </g>
    </g>
    <path id="Trazado_19751" data-name="Trazado 19751" d="M70.623,13H0V40.583" transform="translate(100.352 4582.596) rotate(-90)" fill="none" stroke="#505d6c" stroke-linecap="round" stroke-linejoin="round" stroke-width="1" stroke-dasharray="4" opacity="0.5"/>
  </g>
</svg>
