<?xml version="1.0" encoding="utf-8"?>
<!-- Generator: Adobe Illustrator 24.0.2, SVG Export Plug-In . SVG Version: 6.00 Build 0)  -->
<svg version="1.1" id="Layer_1" xmlns="http://www.w3.org/2000/svg" xmlns:xlink="http://www.w3.org/1999/xlink" x="0px" y="0px"
	 viewBox="0 0 109.1 105.2" style="enable-background:new 0 0 109.1 105.2;" xml:space="preserve">
<style type="text/css">
	.st0{fill:#00AF00;}
	.st1{fill:none;stroke:#FFFFFF;stroke-width:1.2;stroke-linecap:round;stroke-linejoin:round;}
	.st2{enable-background:new    ;}
	.st3{fill:#FFFFFF;}
	.st4{font-family:'Roboto-Medium';}
	.st5{font-size:43px;}
</style>
<g>
	<path class="st0" d="M109.1,105.2V0H0C5.2,57,51.6,102,109.1,105.2z"/>
	<g id="Group_18443" transform="translate(51 7.557)">
		<g id="Group_17649" transform="translate(840.976 205.402)">
			<g id="Group_17497" transform="translate(72.352 -37.959)">
				<path id="Path_12423" class="st1" d="M-924.5-130.7l2.2,2.2l-2.2,2.3"/>
			</g>
			<g id="Group_17498" transform="translate(75.922 -37.959)">
				<path id="Path_12424" class="st1" d="M-924.5-130.7l2.2,2.2l-2.2,2.3"/>
			</g>
		</g>
		<g class="st2">
			<path class="st3" d="M6.4,11.8H3v2.6h4v1.4H1.2V6.7H7v1.4H3v2.3h3.4V11.8z"/>
			<path class="st3" d="M7.8,12.4c0-1.1,0.2-1.9,0.7-2.6c0.5-0.7,1.1-1,1.9-1c0.3,0,0.6,0.1,0.9,0.2c0.3,0.1,0.5,0.4,0.7,0.6V6h1.8
				v9.8h-1.6l-0.2-0.8c-0.2,0.3-0.5,0.6-0.8,0.7c-0.3,0.2-0.6,0.2-1,0.2c-0.8,0-1.5-0.3-1.9-0.9c-0.5-0.6-0.7-1.4-0.7-2.4V12.4z
				 M9.6,12.6c0,0.6,0.1,1.1,0.3,1.4s0.5,0.5,1,0.5c0.3,0,0.5-0.1,0.7-0.2c0.2-0.1,0.4-0.3,0.5-0.5V11c-0.1-0.2-0.3-0.4-0.5-0.5
				c-0.2-0.1-0.4-0.2-0.7-0.2c-0.4,0-0.8,0.2-1,0.6c-0.2,0.4-0.3,0.9-0.3,1.6V12.6z"/>
			<path class="st3" d="M17.2,7.4h-1.8V6h1.8V7.4z M17.2,15.8h-1.8V9h1.8V15.8z"/>
			<path class="st3" d="M21.5,14.5c0.3,0,0.6-0.1,0.8-0.3s0.3-0.4,0.3-0.8h1.7l0,0c0,0.7-0.2,1.3-0.8,1.7s-1.2,0.7-2,0.7
				c-1,0-1.8-0.3-2.3-1c-0.5-0.6-0.8-1.5-0.8-2.5v-0.2c0-1,0.3-1.8,0.8-2.5c0.5-0.6,1.3-1,2.3-1c0.8,0,1.5,0.2,2,0.7
				c0.5,0.5,0.7,1.1,0.7,1.9l0,0h-1.7c0-0.3-0.1-0.6-0.3-0.9s-0.4-0.3-0.8-0.3c-0.5,0-0.8,0.2-1,0.6c-0.2,0.4-0.3,0.9-0.3,1.4v0.2
				c0,0.6,0.1,1.1,0.3,1.5C20.7,14.3,21,14.5,21.5,14.5z"/>
			<path class="st3" d="M27.2,7.4h-1.8V6h1.8V7.4z M27.2,15.8h-1.8V9h1.8V15.8z"/>
			<path class="st3" d="M28.4,12.3c0-1,0.3-1.8,0.8-2.5c0.6-0.6,1.3-1,2.3-1c1,0,1.8,0.3,2.4,1c0.6,0.6,0.9,1.5,0.9,2.5v0.1
				c0,1-0.3,1.8-0.8,2.5c-0.6,0.6-1.3,1-2.3,1c-1,0-1.8-0.3-2.3-1c-0.6-0.6-0.8-1.5-0.8-2.5V12.3z M30.3,12.5c0,0.6,0.1,1.1,0.3,1.5
				s0.6,0.6,1.1,0.6c0.5,0,0.8-0.2,1-0.6s0.3-0.9,0.3-1.5v-0.1c0-0.6-0.1-1.1-0.3-1.5c-0.2-0.4-0.6-0.6-1-0.6c-0.5,0-0.8,0.2-1,0.6
				c-0.2,0.4-0.3,0.9-0.3,1.5V12.5z M32,6.1h2l0,0l-1.7,1.6h-1.6L32,6.1z"/>
			<path class="st3" d="M37.6,9l0.1,1c0.2-0.3,0.5-0.6,0.8-0.8c0.3-0.2,0.7-0.3,1.1-0.3c0.7,0,1.2,0.2,1.6,0.7
				c0.4,0.4,0.6,1.1,0.6,2.1v4.1H40v-4.1c0-0.5-0.1-0.8-0.3-1c-0.2-0.2-0.4-0.3-0.8-0.3c-0.3,0-0.5,0.1-0.7,0.2
				c-0.2,0.1-0.4,0.2-0.5,0.4v4.9h-1.8V9H37.6z"/>
		</g>
		<text transform="matrix(1 0 0 1 -0.8272 54.273)" class="st3 st4 st5">01</text>
	</g>
</g>
</svg>
