<?xml version="1.0" encoding="utf-8"?>
<!-- Generator: Adobe Illustrator 24.0.2, SVG Export Plug-In . SVG Version: 6.00 Build 0)  -->
<svg version="1.1" id="Layer_1" xmlns="http://www.w3.org/2000/svg" xmlns:xlink="http://www.w3.org/1999/xlink" x="0px" y="0px"
	 viewBox="0 0 198.4 113.4" style="enable-background:new 0 0 198.4 113.4;" xml:space="preserve">
<style type="text/css">
	.st0{enable-background:new    ;}
	.st1{fill:#A1D005;}
	.st2{fill:#FFFFFF;}
</style>
<g id="Group_19321" transform="translate(-396.579 -157.734)">
	<g class="st0">
		<path class="st1" d="M428.2,190.4v-24.9h8.2c2.9,0,5.2,0.6,6.9,1.7c1.6,1.1,2.5,2.8,2.5,5.1c0,1.1-0.3,2.2-0.9,3.1
			c-0.6,0.9-1.5,1.6-2.6,2c1.5,0.3,2.7,1,3.5,2c0.8,1.1,1.2,2.3,1.2,3.7c0,2.4-0.8,4.2-2.4,5.4s-3.8,1.8-6.7,1.8H428.2z
			 M433.2,175.9h3.3c1.3,0,2.4-0.3,3.1-0.8s1.1-1.3,1.1-2.4c0-1.2-0.4-2-1.1-2.5c-0.7-0.5-1.8-0.8-3.2-0.8h-3.2V175.9z M433.2,179.4
			v7.2h4.6c1.3,0,2.3-0.3,3-0.9c0.7-0.6,1-1.4,1-2.6c0-1.2-0.3-2.1-1-2.8c-0.7-0.7-1.7-1-3.1-1H433.2z"/>
		<path class="st1" d="M449.3,180.9c0-2.8,0.8-5,2.3-6.8c1.5-1.8,3.7-2.6,6.4-2.6c2.7,0,4.9,0.9,6.4,2.6c1.5,1.8,2.3,4,2.3,6.8v0.4
			c0,2.8-0.8,5-2.3,6.8c-1.5,1.7-3.7,2.6-6.4,2.6c-2.7,0-4.9-0.9-6.4-2.6c-1.5-1.7-2.3-4-2.3-6.8V180.9z M454.3,181.3
			c0,1.7,0.3,3,0.9,4.1c0.6,1,1.5,1.5,2.9,1.5c1.3,0,2.2-0.5,2.8-1.5c0.6-1,0.9-2.4,0.9-4v-0.4c0-1.6-0.3-3-0.9-4
			c-0.6-1-1.6-1.6-2.9-1.6c-1.3,0-2.2,0.5-2.8,1.6c-0.6,1-0.9,2.4-0.9,4V181.3z"/>
		<path class="st1" d="M475.1,190.4h-5v-26.7h5V190.4z"/>
		<path class="st1" d="M487.2,190.7c-2.8,0-4.9-0.8-6.5-2.5c-1.5-1.7-2.3-3.9-2.3-6.5V181c0-2.8,0.8-5,2.3-6.8
			c1.5-1.8,3.6-2.6,6.2-2.6c2.5,0,4.4,0.8,5.7,2.3c1.3,1.5,2,3.6,2,6.1v2.6h-11l-0.1,0.1c0.1,1.3,0.5,2.3,1.2,3.1
			c0.7,0.8,1.7,1.2,3.1,1.2c1.1,0,2.1-0.1,2.8-0.3c0.8-0.2,1.6-0.6,2.4-1l1.4,3.1c-0.7,0.6-1.7,1.1-3,1.5S488.7,190.7,487.2,190.7z
			 M486.9,175.4c-1,0-1.8,0.3-2.3,1c-0.5,0.7-0.9,1.6-1,2.7l0,0.1h6.1v-0.4c0-1.1-0.2-1.9-0.7-2.6
			C488.6,175.7,487.9,175.4,486.9,175.4z"/>
		<path class="st1" d="M503.5,167.3v4.5h3.1v3.5h-3.1v9.4c0,0.7,0.2,1.2,0.5,1.5c0.3,0.3,0.7,0.5,1.2,0.5c0.3,0,0.5,0,0.7,0
			c0.2,0,0.4-0.1,0.7-0.1l0.4,3.6c-0.5,0.2-1,0.3-1.5,0.4c-0.5,0.1-1,0.1-1.5,0.1c-1.7,0-3-0.5-4-1.4c-0.9-0.9-1.4-2.4-1.4-4.5v-9.4
			h-2.7v-3.5h2.7v-4.5H503.5z"/>
		<path class="st1" d="M515.1,190.4h-5v-18.5h5V190.4z M513.6,164.3h5.6l0,0.1l-4.7,4.4h-4.3L513.6,164.3z"/>
		<path class="st1" d="M523.9,171.9l0.2,2.6c0.6-0.9,1.4-1.7,2.3-2.2c0.9-0.5,1.9-0.8,3-0.8c1.9,0,3.3,0.6,4.4,1.8
			c1,1.2,1.6,3.1,1.6,5.7v11.3h-5v-11.3c0-1.3-0.2-2.3-0.7-2.8c-0.5-0.6-1.2-0.8-2.1-0.8c-0.7,0-1.4,0.1-2,0.4
			c-0.6,0.3-1,0.7-1.4,1.2v13.4h-5v-18.5H523.9z"/>
	</g>
	<g id="Group_14518" transform="translate(396.579 201.718)">
		<path id="Path_12403" class="st1" d="M13.9,26c-7,0-12.7-5.7-12.7-12.7c0-7,5.7-12.7,12.7-12.7s12.7,5.7,12.7,12.7
			C26.6,20.3,20.9,26,13.9,26z M13.9,7.4c-3.2,0-5.9,2.6-5.9,5.9s2.6,5.9,5.9,5.9c3.2,0,5.9-2.6,5.9-5.9c0,0,0,0,0,0
			C19.8,10.1,17.2,7.5,13.9,7.4L13.9,7.4z"/>
	</g>
	<g id="Group_14519" transform="translate(427.957 182.54)">
		<path id="Path_12404" class="st2" d="M52.2,62.6c0.9,7.2,7.2,12.3,17.3,12.3c5.3,0,12.2-2,15.5-5.4l9.2,9.1
			C88.1,84.9,78.1,88,69.3,88c-20,0-31.9-12.3-31.9-30.9c0-17.6,12-30.3,30.8-30.3c19.4,0,31.5,12,29.3,35.9H52.2z M83.7,50.7
			c-0.9-7.5-6.8-11.3-15.1-11.3c-7.8,0-14.1,3.8-16.2,11.3H83.7z"/>
		<path id="Path_12405" class="st2" d="M165.8,0.6v85.8h-13.4l-0.9-8c-4.5,6.9-11.6,9.3-18.7,9.3c-17.1,0-29.9-11.3-29.9-30.3
			c0-20,12.6-30.3,29.5-30.3c6.1,0,15.6,3.3,19.1,9.3V12.6c0-6.6,5.3-11.9,11.9-11.9c0,0,0,0,0,0L165.8,0.6z M117.2,57.4
			c0,10.1,7.3,17,16.5,17c9.1,0,16.8-6.6,16.8-17c0.2-9.1-7-16.7-16.1-16.9c-0.2,0-0.4,0-0.7,0C124.5,40.4,117.2,46.9,117.2,57.4z"
			/>
		<path id="Path_12406" class="st2" d="M42.3,31.8c0.5-0.6,1.1-1.1,1.7-1.6c-3.6-2.2-7.8-3.3-12-3.3c-5.9,0-11.9,1.1-16.3,8.2
			l-1.1-6.7H1.3v58h3.8c5.8,0,10.5-4.7,10.5-10.5c0,0,0,0,0,0v-20c0-10.7,6.9-14.7,14.5-14.7c1.8,0,3.7,0.2,5.4,0.8
			C37.1,38.2,39.4,34.7,42.3,31.8z"/>
	</g>
</g>
</svg>
