<svg id="Capa_1" data-name="Capa 1" xmlns="http://www.w3.org/2000/svg" viewBox="0 0 65 65"><defs><style>.cls-1{fill:none;}.cls-2{fill:#95a6b1;}.cls-3{fill:#19a301;}.cls-4{fill:#82d400;}</style></defs><title>comites</title><g id="Rect치ngulo_3799" data-name="Rect치ngulo 3799"><rect class="cls-1" y="-0.2" width="65" height="65.36"/></g><g id="Elipse_1832" data-name="Elipse 1832"><path class="cls-2" d="M32.8,13a4.6,4.6,0,1,1,0-9.1,4.6,4.6,0,1,1,0,9.1Zm0-7.5a2.9,2.9,0,0,0-3,3,3,3,0,0,0,3,3,3.1,3.1,0,0,0,3-3A3,3,0,0,0,32.8,5.5Z"/></g><g id="Trazado_10360" data-name="Trazado 10360"><path class="cls-2" d="M39.6,22H29.9a.7.7,0,0,1-.8-.8.8.8,0,0,1,.8-.8h8.9V17.6A2.6,2.6,0,0,0,36.2,15H29.1a2.7,2.7,0,0,0-2.3,1.2.8.8,0,1,1-1.3-.9,4.2,4.2,0,0,1,3.6-1.9h7.1a4.2,4.2,0,0,1,4.2,4.2v3.6A.7.7,0,0,1,39.6,22Z"/></g><g id="Elipse_1833" data-name="Elipse 1833"><path class="cls-2" d="M48.4,21.6A4.6,4.6,0,0,1,43.8,17,4.6,4.6,0,0,1,53,17,4.6,4.6,0,0,1,48.4,21.6Zm0-7.6a3,3,0,0,0-3,3,3,3,0,1,0,6,0A3,3,0,0,0,48.4,14Z"/></g><g id="Rect치ngulo_4049" data-name="Rect치ngulo 4049"><path class="cls-2" d="M55.3,30.6H41.2a.8.8,0,0,1-.8-.8V27.2a5.3,5.3,0,0,1,5.3-5.3h5.1a5.3,5.3,0,0,1,5.3,5.3v2.6A.8.8,0,0,1,55.3,30.6ZM42,29H54.5V27.2a3.8,3.8,0,0,0-3.7-3.7H45.7A3.8,3.8,0,0,0,42,27.2Z"/></g><g id="Grupo_11285" data-name="Grupo 11285"><g id="Trazado_10361" data-name="Trazado 10361"><path class="cls-2" d="M19.8,34.5h0a10.6,10.6,0,0,1-7.7-3.2l-.6-.6a.8.8,0,0,1,1.2-1.1l.5.6a9.6,9.6,0,0,0,6.6,2.7h0a9.5,9.5,0,0,0,6.5-2.7,9.3,9.3,0,0,0,0-13.1,9.3,9.3,0,0,0-13.1,0A.8.8,0,1,1,12.1,16,10.8,10.8,0,0,1,27.4,31.3,10.3,10.3,0,0,1,19.8,34.5Z"/></g></g><g id="Trazado_10363" data-name="Trazado 10363"><path class="cls-2" d="M42.1,40h-.5L27,30.7a.7.7,0,0,1-.2-1.1.8.8,0,0,1,1.1-.3l13.9,8.8.9-1.5L28.8,27.8a.8.8,0,0,1-.3-1.1.9.9,0,0,1,1.1-.3l14.7,9.3a.8.8,0,0,1,.2,1.1l-1.8,2.8a.8.8,0,0,1-.4.4Z"/></g><g id="Trazado_10364" data-name="Trazado 10364"><path class="cls-2" d="M32.5,40.1a11.1,11.1,0,0,1-9-4.5,11.3,11.3,0,0,1-1.2-2.1c-.1-.4,0-.9.4-1a.8.8,0,0,1,1.1.4,9.5,9.5,0,0,0,1,1.7A9.3,9.3,0,0,0,31,38.4a9.2,9.2,0,0,0,7-1.7.9.9,0,0,1,1.1.2A.8.8,0,0,1,39,38,10.7,10.7,0,0,1,32.5,40.1Z"/></g><g id="Trazado_10365" data-name="Trazado 10365"><path class="cls-2" d="M41.1,35.4l-.4-.2a.7.7,0,0,1-.2-1.1A11.7,11.7,0,0,0,41.9,30a.7.7,0,0,1,.8-.7.8.8,0,0,1,.8.8A12.5,12.5,0,0,1,41.8,35,.8.8,0,0,1,41.1,35.4Z"/></g><g id="Trazado_10366" data-name="Trazado 10366"><path class="cls-2" d="M41.6,25.2a.7.7,0,0,1-.7-.4,10.9,10.9,0,0,0-2.1-2.7.8.8,0,0,1,1.1-1.2A11.8,11.8,0,0,1,42.3,24a.8.8,0,0,1-.4,1.1Z"/></g><g id="Trazado_10367" data-name="Trazado 10367"><path class="cls-2" d="M37.2,48.7H27.7a.8.8,0,0,1-.6-.2.6.6,0,0,1-.2-.7l.3-3.2-1.7-1-2.6,2.6a.8.8,0,0,1-1.1,0l-6.5-6.3a.7.7,0,0,1,0-1.2l2.4-2.5-.9-2.4a.8.8,0,0,1,.5-1,.8.8,0,0,1,1.1.4l1,3a.8.8,0,0,1-.2.8L17,39.3l5.3,5.2,2.5-2.4a.7.7,0,0,1,.9-.1l2.8,1.4c.3.1.4.5.4.8l-.3,2.9h7.7v-3c-.1-.3.1-.6.5-.7l3.1-1.2a.7.7,0,0,1,.9.2l1.9,2.2,5.2-5.4-2.3-2.1a.8.8,0,0,1-.2-.9l1.4-3a.8.8,0,0,1,.7-.5l3.2.2v-3a.9.9,0,0,1,.8-.8.8.8,0,0,1,.8.8v3.8c0,.3,0,.5-.2.6s-.4.3-.6.2l-3.5-.2-.9,2,2.5,2.3a.7.7,0,0,1,0,1.2l-6.3,6.5c-.2.2-.4.3-.6.2a.8.8,0,0,1-.6-.2l-2.1-2.5-2.1.8.2,3.3a1.4,1.4,0,0,1-.2.6Z"/></g><g id="Elipse_1834" data-name="Elipse 1834"><path class="cls-3" d="M11.3,28.8a5.4,5.4,0,0,1-5.4-5.4,5.5,5.5,0,1,1,10.9,0A5.4,5.4,0,0,1,11.3,28.8Zm0-9.3a3.9,3.9,0,1,0,3.9,3.9A3.8,3.8,0,0,0,11.3,19.5Z"/></g><rect class="cls-1" y="48.3" width="65" height="16.74"/><path class="cls-3" d="M45.4,61.3H38.2A1.2,1.2,0,0,1,37,60.1a1.3,1.3,0,0,1,1.2-1.2h7.2a1.3,1.3,0,0,1,1.2,1.2A1.2,1.2,0,0,1,45.4,61.3Z"/><path class="cls-3" d="M53.1,61.3h-.6a1.2,1.2,0,0,1-1.2-1.2,1.3,1.3,0,0,1,1.2-1.2h.6a1.2,1.2,0,0,1,1.2,1.2A1.2,1.2,0,0,1,53.1,61.3Z"/><path class="cls-3" d="M19,61.3H11.9a1.2,1.2,0,0,1-1.2-1.2,1.2,1.2,0,0,1,1.2-1.2H19a1.2,1.2,0,0,1,1.2,1.2A1.2,1.2,0,0,1,19,61.3Z"/><path class="cls-4" d="M31,61.3H18.5a1.2,1.2,0,0,1-1.2-1.2,1.3,1.3,0,0,1,1.2-1.2H31a1.2,1.2,0,0,1,1.2,1.2A1.2,1.2,0,0,1,31,61.3Z"/><path class="cls-4" d="M35.5,55.2H11.9a1.2,1.2,0,1,1,0-2.4H35.5a1.2,1.2,0,0,1,0,2.4Z"/><path class="cls-3" d="M53.1,55.2H34.7a1.2,1.2,0,0,1,0-2.4H53.1a1.2,1.2,0,0,1,0,2.4Z"/><path class="cls-3" d="M12.3,55.2h-.4a1.2,1.2,0,1,1,0-2.4h.4a1.2,1.2,0,0,1,0,2.4Z"/></svg>