<svg id="Capa_1" data-name="Capa 1" xmlns="http://www.w3.org/2000/svg" viewBox="0 0 65 65"><defs><style>.cls-1{fill:#95a6b1;}.cls-2{fill:#19a500;}.cls-3{fill:none;}.cls-4{fill:#19a301;}.cls-5{fill:#82d400;}</style></defs><title>comunidad</title><g id="Trazado_10737" data-name="Trazado 10737"><path class="cls-1" d="M18.9,49.2H11.4a.9.9,0,0,1-.9-.9V25a1,1,0,0,1,.9-.9,1,1,0,0,1,.9.9V47.4H18V25.1a.9.9,0,0,1,1.8,0V48.3A.9.9,0,0,1,18.9,49.2Z"/></g><g id="Rectángulo_4147" data-name="Rectángulo 4147"><path class="cls-1" d="M52.3,35.4H47.4a4.8,4.8,0,0,1-4.8-4.8V23.4a4.8,4.8,0,0,1,4.8-4.7h4.9A4.7,4.7,0,0,1,57,23.4v7.2A4.7,4.7,0,0,1,52.3,35.4ZM47.4,20.5a3,3,0,0,0-3,2.9v7.2a3,3,0,0,0,3,3h4.9a2.9,2.9,0,0,0,2.9-3V23.4a2.9,2.9,0,0,0-2.9-2.9Z"/></g><g id="Rectángulo_4148" data-name="Rectángulo 4148"><path class="cls-1" d="M17.6,35.4H12.7A4.7,4.7,0,0,1,8,30.6V23.4a4.7,4.7,0,0,1,4.7-4.7h4.9a4.8,4.8,0,0,1,4.8,4.7v7.2A4.8,4.8,0,0,1,17.6,35.4ZM12.7,20.5a2.9,2.9,0,0,0-2.9,2.9v7.2a2.9,2.9,0,0,0,2.9,3h4.9a3,3,0,0,0,3-3V23.4a3,3,0,0,0-3-2.9Z"/></g><g id="Trazado_10738" data-name="Trazado 10738"><path class="cls-1" d="M49.7,29.7a.9.9,0,0,1-.9-.9V23.3l-1.6-3a1,1,0,0,1,.3-1.3.9.9,0,0,1,1.2.4l1.8,3.2a.9.9,0,0,1,.1.5v5.7A.9.9,0,0,1,49.7,29.7Z"/></g><g id="Línea_2149" data-name="Línea 2149"><path class="cls-1" d="M49.7,24l-.4-.2a.8.8,0,0,1-.3-1.2l2-3.5a.9.9,0,0,1,1.2-.3,1,1,0,0,1,.3,1.3l-2,3.4A.8.8,0,0,1,49.7,24Z"/></g><g id="Trazado_10739" data-name="Trazado 10739"><path class="cls-1" d="M53.3,49.4H46.2a.9.9,0,0,1-.9-.9v-25a.9.9,0,1,1,1.8,0V47.6h5.3V23.5a.9.9,0,1,1,1.8,0v25A.9.9,0,0,1,53.3,49.4Z"/></g><g id="Línea_2150" data-name="Línea 2150"><path class="cls-1" d="M15.2,49.1a.9.9,0,0,1-.9-.9V34.6a.9.9,0,1,1,1.8,0V48.2A.9.9,0,0,1,15.2,49.1Z"/></g><g id="Línea_2151" data-name="Línea 2151"><path class="cls-1" d="M49.9,49.2a.9.9,0,0,1-.9-.9V34.5a.9.9,0,1,1,1.8,0V48.3A.9.9,0,0,1,49.9,49.2Z"/></g><g id="Elipse_1974" data-name="Elipse 1974"><path class="cls-1" d="M15,18.2a4.3,4.3,0,0,1,0-8.5,4.3,4.3,0,1,1,0,8.5Zm0-6.7A2.5,2.5,0,1,0,17.5,14,2.5,2.5,0,0,0,15,11.5Z"/></g><g id="Línea_2152" data-name="Línea 2152"><path class="cls-1" d="M18,13.9H12.1a.9.9,0,1,1,0-1.8H18a.9.9,0,1,1,0,1.8Z"/></g><g id="Línea_2153" data-name="Línea 2153"><path class="cls-1" d="M15.1,13.9a.9.9,0,0,1-.9-.9V8.7a.9.9,0,0,1,1.8,0V13A.9.9,0,0,1,15.1,13.9Z"/></g><g id="Grupo_12039" data-name="Grupo 12039"><g id="Trazado_10740" data-name="Trazado 10740"><path class="cls-1" d="M37.8,41.3H27.4a.9.9,0,0,1-.7-.3,1,1,0,0,1-.2-.7l1.6-13V19.9a.9.9,0,0,1,1.8,0v7.6l-1.5,12h8.3L35.2,27.6V20A.9.9,0,1,1,37,20v7.4l1.6,12.9a.7.7,0,0,1-.2.7A.7.7,0,0,1,37.8,41.3Z"/></g><g id="Rectángulo_4149" data-name="Rectángulo 4149"><path class="cls-1" d="M35,35.4H30a4.7,4.7,0,0,1-4.7-4.8V23.4A4.7,4.7,0,0,1,30,18.7h5a4.7,4.7,0,0,1,4.7,4.7v7.2A4.7,4.7,0,0,1,35,35.4ZM30,20.5a2.9,2.9,0,0,0-2.9,2.9v7.2a2.9,2.9,0,0,0,2.9,3h5a2.9,2.9,0,0,0,2.9-3V23.4A2.9,2.9,0,0,0,35,20.5Z"/></g><g id="Trazado_10741" data-name="Trazado 10741"><path class="cls-1" d="M36.2,49.2H28.9a.9.9,0,0,1-.9-.9V40.4a.9.9,0,0,1,1.8,0v7h5.5v-7a.9.9,0,0,1,1.8,0v7.9A.9.9,0,0,1,36.2,49.2Z"/></g><g id="Línea_2154" data-name="Línea 2154"><path class="cls-1" d="M32.6,49a1,1,0,0,1-.9-.9V40.6a.9.9,0,1,1,1.8,0v7.5A1,1,0,0,1,32.6,49Z"/></g><g id="Línea_2155" data-name="Línea 2155"><path class="cls-1" d="M36.1,28.2H29a.9.9,0,0,1,0-1.8h7.1a.9.9,0,1,1,0,1.8Z"/></g><g id="Elipse_1975" data-name="Elipse 1975"><path class="cls-2" d="M32.4,18.2A4.3,4.3,0,1,1,36.6,14,4.2,4.2,0,0,1,32.4,18.2Zm0-6.7a2.5,2.5,0,1,0,0,4.9,2.5,2.5,0,0,0,0-4.9Z"/></g></g><g id="Elipse_1976" data-name="Elipse 1976"><path class="cls-1" d="M49.8,18.2A4.3,4.3,0,1,1,54,14,4.2,4.2,0,0,1,49.8,18.2Zm0-6.7a2.5,2.5,0,1,0,0,4.9,2.5,2.5,0,0,0,0-4.9Z"/></g><g id="Rectángulo_3799" data-name="Rectángulo 3799"><rect class="cls-3" x="0.2" width="64.6" height="65"/></g><rect class="cls-3" x="-0.2" y="48.3" width="65" height="16.74"/><path class="cls-4" d="M45.2,61.3H38a1.2,1.2,0,0,1-1.2-1.2A1.3,1.3,0,0,1,38,58.9h7.2a1.2,1.2,0,0,1,1.2,1.2A1.2,1.2,0,0,1,45.2,61.3Z"/><path class="cls-4" d="M52.9,61.3h-.5a1.2,1.2,0,0,1-1.2-1.2,1.2,1.2,0,0,1,1.2-1.2h.5a1.2,1.2,0,0,1,1.2,1.2A1.2,1.2,0,0,1,52.9,61.3Z"/><path class="cls-4" d="M18.8,61.3H11.7a1.2,1.2,0,0,1-1.2-1.2,1.3,1.3,0,0,1,1.2-1.2h7.1A1.2,1.2,0,0,1,20,60.1,1.2,1.2,0,0,1,18.8,61.3Z"/><path class="cls-5" d="M30.9,61.3H18.4a1.2,1.2,0,0,1-1.2-1.2,1.2,1.2,0,0,1,1.2-1.2H30.9a1.3,1.3,0,0,1,1.2,1.2A1.2,1.2,0,0,1,30.9,61.3Z"/><path class="cls-5" d="M35.3,55.2H11.7a1.2,1.2,0,1,1,0-2.4H35.3a1.2,1.2,0,0,1,0,2.4Z"/><path class="cls-4" d="M52.9,55.2H34.6a1.2,1.2,0,1,1,0-2.4H52.9a1.2,1.2,0,1,1,0,2.4Z"/><path class="cls-4" d="M12.1,55.2h-.4a1.2,1.2,0,1,1,0-2.4h.4a1.2,1.2,0,0,1,0,2.4Z"/></svg>