<svg id="Capa_1" data-name="Capa 1" xmlns="http://www.w3.org/2000/svg" viewBox="0 0 65 65"><defs><style>.cls-1{fill:none;}.cls-2{fill:#95a6b1;}.cls-3{fill:#19a301;}.cls-4{fill:#82d400;}</style></defs><title>depto_casanare</title><g id="Rect치ngulo_3799" data-name="Rect치ngulo 3799"><rect class="cls-1" width="65" height="65"/></g><g id="Grupo_13217-2" data-name="Grupo 13217-2"><g id="Trazado_11533" data-name="Trazado 11533"><path class="cls-2" d="M9.8,47.9a.7.7,0,0,1-.6-.3L2.9,39.5a.8.8,0,0,1-.1-.9l2.6-5.3-.6-2.1a.8.8,0,0,1,.1-.7l2.5-3.9a.9.9,0,0,1,.6-.4l.6.2,2,1.6,6.7-6.1-3.9-2.3a.9.9,0,0,1-.3-1.1l2.1-4.1-.4-3a.6.6,0,0,1,.2-.7,1.1,1.1,0,0,1,.8-.2l2.6.7.4.2L21.2,14l8-2.8h.2l7.7-.8h.2l1.8.3a.8.8,0,0,1,.6.9.8.8,0,0,1-.9.7L37.1,12l-7.5.8-8.4,2.9a.8.8,0,0,1-.8-.2l-2.6-2.8-1.3-.3.3,2a.9.9,0,0,1-.1.5l-1.8,3.7,4.2,2.5a.9.9,0,0,1,.4.6.7.7,0,0,1-.3.6l-8,7.4a.8.8,0,0,1-1.1,0L8.3,28.2,6.4,31.1l.6,2a.6.6,0,0,1,0,.6L4.4,38.9l5.7,7.3L16.9,44h.4l4.8.7,3-3.3.3-.2,13.8-5L49.3,24.2l.5-.3,4.6-.4,6-7.2-4.8-4.2-1.1.2a.7.7,0,0,1-.9-.6.7.7,0,0,1,.6-.9l1.5-.3a.8.8,0,0,1,.7.2L62,15.6a.7.7,0,0,1,.1,1.1l-6.6,8.1a.9.9,0,0,1-.6.3l-4.6.4-10,11.8-.3.2-13.9,5L23,45.9a.8.8,0,0,1-.7.3l-5.1-.7-7.1,2.4Z"/></g><g id="Elipse_2039" data-name="Elipse 2039"><path class="cls-3" d="M47.3,17.6a5,5,0,0,1-5-5,5,5,0,0,1,5-5.1,5.1,5.1,0,0,1,5.1,5.1A5,5,0,0,1,47.3,17.6Zm0-8.5a3.5,3.5,0,0,0-3.4,3.5A3.4,3.4,0,0,0,47.3,16a3.5,3.5,0,0,0,3.5-3.4A3.5,3.5,0,0,0,47.3,9.1Z"/></g></g><g id="Rect치ngulo_3799-2" data-name="Rect치ngulo 3799-2"><rect class="cls-1" width="65" height="65"/></g><rect class="cls-1" y="48.3" width="65" height="16.74"/><path class="cls-3" d="M45.4,61.3H38.2A1.2,1.2,0,0,1,37,60.1a1.3,1.3,0,0,1,1.2-1.2h7.2a1.3,1.3,0,0,1,1.2,1.2A1.2,1.2,0,0,1,45.4,61.3Z"/><path class="cls-3" d="M53.1,61.3h-.6a1.2,1.2,0,0,1-1.2-1.2,1.3,1.3,0,0,1,1.2-1.2h.6a1.2,1.2,0,0,1,1.2,1.2A1.2,1.2,0,0,1,53.1,61.3Z"/><path class="cls-3" d="M19,61.3H11.9a1.2,1.2,0,0,1-1.2-1.2,1.2,1.2,0,0,1,1.2-1.2H19a1.2,1.2,0,0,1,1.2,1.2A1.2,1.2,0,0,1,19,61.3Z"/><path class="cls-4" d="M31,61.3H18.5a1.2,1.2,0,0,1-1.2-1.2,1.3,1.3,0,0,1,1.2-1.2H31a1.2,1.2,0,0,1,1.2,1.2A1.2,1.2,0,0,1,31,61.3Z"/><path class="cls-4" d="M35.5,55.2H11.9a1.2,1.2,0,1,1,0-2.4H35.5a1.2,1.2,0,0,1,0,2.4Z"/><path class="cls-3" d="M53.1,55.2H34.7a1.2,1.2,0,0,1,0-2.4H53.1a1.2,1.2,0,0,1,0,2.4Z"/><path class="cls-3" d="M12.3,55.2h-.4a1.2,1.2,0,1,1,0-2.4h.4a1.2,1.2,0,0,1,0,2.4Z"/></svg>