<svg id="Capa_1" data-name="Capa 1" xmlns="http://www.w3.org/2000/svg" viewBox="0 0 65 65"><defs><style>.cls-1{fill:none;}.cls-2{fill:#95a6b1;}.cls-3{fill:#19a500;}.cls-4{fill:#19a301;}.cls-5{fill:#82d400;}</style></defs><title>estacion_cupiagua</title><g id="Rectángulo_3790" data-name="Rectángulo 3790"><rect class="cls-1" width="65" height="65"/></g><g id="Trazado_9429" data-name="Trazado 9429"><path class="cls-2" d="M55.1,50H39.7a.7.7,0,0,1-.7-.7V36.4a6.3,6.3,0,0,1,6.2-6.2h4.5a6.3,6.3,0,0,1,6.2,6.2h0V49.3A.8.8,0,0,1,55.1,50ZM40.5,48.5H54.4V36.4a4.7,4.7,0,0,0-4.7-4.7H45.2a4.7,4.7,0,0,0-4.7,4.7Z"/></g><g id="Trazado_9430" data-name="Trazado 9430"><path class="cls-2" d="M11.1,15.1a.8.8,0,0,1-.7-.8h0V11.7a3.5,3.5,0,0,1,3.5-3.4h4.2a.8.8,0,0,1,.8.7.8.8,0,0,1-.8.7H13.9a2.1,2.1,0,0,0-2,2v2.6a.9.9,0,0,1-.8.8Z"/></g><g id="Trazado_9431" data-name="Trazado 9431"><path class="cls-2" d="M20.8,50H11.1a.7.7,0,0,1-.7-.7V30.8a.8.8,0,0,1,.7-.8.9.9,0,0,1,.8.8V48.5h8.2V11.7a2.1,2.1,0,0,0-2-2,.7.7,0,0,1,0-1.4,3.5,3.5,0,0,1,3.5,3.4V49.3a.7.7,0,0,1-.7.7Z"/></g><g id="Trazado_9432" data-name="Trazado 9432"><path class="cls-2" d="M35.9,50a.8.8,0,0,1-.8-.7V28.7a4.3,4.3,0,0,1,4.1-4.4h4.7A4.2,4.2,0,0,1,48,28.7V31a.7.7,0,0,1-1.4,0V28.7a2.7,2.7,0,0,0-2.7-2.9H39.2a2.7,2.7,0,0,0-2.6,2.9V49.3a.7.7,0,0,1-.7.7Z"/></g><g id="Trazado_9433" data-name="Trazado 9433"><path class="cls-2" d="M39.7,44.2h-6a4.3,4.3,0,0,1-4.1-4.4V34.6A2.8,2.8,0,0,0,27,31.7H20.8a.7.7,0,0,1,0-1.4H27a4.2,4.2,0,0,1,4.1,4.3v5.2a2.7,2.7,0,0,0,2.6,2.9h6a.9.9,0,0,1,.8.8.8.8,0,0,1-.8.7Z"/></g><g id="Trazado_9434" data-name="Trazado 9434"><path class="cls-2" d="M24.9,50a.7.7,0,0,1-.7-.7V18.9A2.8,2.8,0,0,0,21.6,16h-.8a.7.7,0,0,1,0-1.4h.8a4.2,4.2,0,0,1,4.1,4.3V49.3a.8.8,0,0,1-.8.7Z"/></g><g id="Trazado_9435" data-name="Trazado 9435"><path class="cls-2" d="M58.9,50H7a.8.8,0,0,1-.8-.7.9.9,0,0,1,.8-.8H58.9a.8.8,0,0,1,.7.8A.7.7,0,0,1,58.9,50Z"/></g><g id="Trazado_9436" data-name="Trazado 9436"><path class="cls-2" d="M47.7,45.4A3.4,3.4,0,0,1,45.1,44c-1-1.4-.4-2.9.1-4.1l.3-.8L47,35.4h0a.8.8,0,0,1,1-.4.7.7,0,0,1,.4.6l1.7,3.9c.4.8,1.2,2.3.6,3.8A3.5,3.5,0,0,1,47.7,45.4Zm0-7.8a18,18,0,0,0-.8,2.1l-.3.7c-.5,1.3-.8,2-.3,2.8a1.9,1.9,0,0,0,1.4.7,1.8,1.8,0,0,0,1.7-1.2,3.5,3.5,0,0,0-.6-2.6c-.5-1-.8-1.8-1.1-2.5Z"/></g><g id="Trazado_9437" data-name="Trazado 9437"><path class="cls-3" d="M11.4,28a5.3,5.3,0,0,1,0-10.6,5.2,5.2,0,0,1,5.2,5.3,5.4,5.4,0,0,1-1.4,3.6A5.6,5.6,0,0,1,11.4,28Zm0-9.1a3.7,3.7,0,0,0-3.7,3.9,3.9,3.9,0,0,0,3.7,3.7,3.8,3.8,0,0,0,0-7.6Z"/></g><g id="Trazado_9438" data-name="Trazado 9438"><path class="cls-2" d="M35.7,17h-.4a2.7,2.7,0,0,1-2.8-2.8h0V7.1a2.7,2.7,0,0,1,2.8-2.7h.4a2.7,2.7,0,0,1,2.7,2.7h0v.7a.7.7,0,0,1-1.4,0V7.1a1.3,1.3,0,0,0-1.3-1.3h-.4A1.3,1.3,0,0,0,34,7.1v7.1a1.3,1.3,0,0,0,1.3,1.3h.4A1.3,1.3,0,0,0,37,14.2a.7.7,0,0,1,1.4,0A2.7,2.7,0,0,1,35.7,17Z"/></g><g id="Trazado_9439" data-name="Trazado 9439"><path class="cls-2" d="M42.1,17h-.4a2.8,2.8,0,0,1-2.8-2.8h0V5.1a.7.7,0,0,1,.7-.7.8.8,0,0,1,.8.7v9.1a1.3,1.3,0,0,0,1.3,1.3h.4a1.3,1.3,0,0,0,1.3-1.3V5.1a.7.7,0,0,1,1.4,0v9.1A2.7,2.7,0,0,1,42.1,17Z"/></g><g id="Trazado_9440" data-name="Trazado 9440"><path class="cls-2" d="M46.4,17a.8.8,0,0,1-.8-.7V7.1a2.8,2.8,0,0,1,2.8-2.7h.4a2.7,2.7,0,0,1,2.7,2.7h0V8.6a2.8,2.8,0,0,1-2.8,2.8H47.1v4.9a.7.7,0,0,1-.7.7Zm.7-7h1.6a1.4,1.4,0,0,0,1.4-1.4V7.2a1.3,1.3,0,0,0-1.3-1.3h-.4a1.3,1.3,0,0,0-1.3,1.3h0Z"/></g><g id="Trazado_9441" data-name="Trazado 9441"><path class="cls-2" d="M48.5,19.5H29.8a.7.7,0,0,1-.7-.7V8a6.3,6.3,0,0,1,6.3-6.3H54.1a.7.7,0,0,1,.7.7V13.2a6.3,6.3,0,0,1-6.3,6.3ZM30.5,18h18a4.9,4.9,0,0,0,4.9-4.8V3.1h-18a4.9,4.9,0,0,0-4.9,4.8Z"/></g><g id="Trazado_9442" data-name="Trazado 9442"><path class="cls-2" d="M41.6,25.8a.8.8,0,0,1-.7-.8V18.8a.7.7,0,1,1,1.4,0V25a.8.8,0,0,1-.7.8Z"/></g><rect class="cls-1" y="48.3" width="65" height="16.74"/><path class="cls-4" d="M45.4,61.3H38.2A1.2,1.2,0,0,1,37,60.1a1.3,1.3,0,0,1,1.2-1.2h7.2a1.3,1.3,0,0,1,1.2,1.2A1.2,1.2,0,0,1,45.4,61.3Z"/><path class="cls-4" d="M53.1,61.3h-.6a1.2,1.2,0,0,1-1.2-1.2,1.3,1.3,0,0,1,1.2-1.2h.6a1.2,1.2,0,0,1,1.2,1.2A1.2,1.2,0,0,1,53.1,61.3Z"/><path class="cls-4" d="M19,61.3H11.9a1.2,1.2,0,0,1-1.2-1.2,1.2,1.2,0,0,1,1.2-1.2H19a1.2,1.2,0,0,1,1.2,1.2A1.2,1.2,0,0,1,19,61.3Z"/><path class="cls-5" d="M31,61.3H18.5a1.2,1.2,0,0,1-1.2-1.2,1.3,1.3,0,0,1,1.2-1.2H31a1.2,1.2,0,0,1,1.2,1.2A1.2,1.2,0,0,1,31,61.3Z"/><path class="cls-5" d="M35.5,55.2H11.9a1.2,1.2,0,1,1,0-2.4H35.5a1.2,1.2,0,0,1,0,2.4Z"/><path class="cls-4" d="M53.1,55.2H34.7a1.2,1.2,0,0,1,0-2.4H53.1a1.2,1.2,0,0,1,0,2.4Z"/><path class="cls-4" d="M12.3,55.2h-.4a1.2,1.2,0,1,1,0-2.4h.4a1.2,1.2,0,0,1,0,2.4Z"/></svg>