<svg id="Capa_1" data-name="Capa 1" xmlns="http://www.w3.org/2000/svg" viewBox="0 0 65 65"><defs><style>.cls-1{fill:none;}.cls-2{fill:#19a301;}.cls-3{fill:#95a6b1;}.cls-4{fill:#82d400;}</style></defs><title>fauna</title><g id="Rectángulo_3799" data-name="Rectángulo 3799"><rect class="cls-1" width="65" height="65"/></g><g id="Grupo_13215" data-name="Grupo 13215"><g id="Elipse_2037" data-name="Elipse 2037"><path class="cls-2" d="M52.2,34a5.6,5.6,0,0,1,0-11.1,5.6,5.6,0,1,1,0,11.1Zm0-9.3a3.8,3.8,0,0,0,0,7.5,3.8,3.8,0,1,0,0-7.5Z"/></g><g id="Grupo_13213-2" data-name="Grupo 13213-2"><g id="Trazado_11524" data-name="Trazado 11524"><path class="cls-3" d="M31.5,41a.9.9,0,0,1-.9-.9.8.8,0,0,1,.8-.9c1.6-.2,7.5-3.6,7.5-8.9s-3.5-6.5-4.8-7.2c-1.6,1.4-6.7,5.2-12.6,1.8-4.4-2.6-4.1-6.3-3.8-7.8s1.8-3.8,3.1-4.3,3.3-6.7,13.3-6.7h.2A19.4,19.4,0,0,1,53.1,21.3a.9.9,0,0,1-.7,1.1.8.8,0,0,1-1-.7A17.6,17.6,0,0,0,34.1,7.9c-10.3,0-11.6,5.6-11.7,5.8a.8.8,0,0,1-.8.7,4.4,4.4,0,0,0-2.1,3.1c-.3,1.4-.4,3.9,2.9,5.8,5.9,3.4,10.8-1.9,10.9-1.9a.8.8,0,0,1,1-.2c.2.1,6.4,2.8,6.4,9.1S33.8,40.8,31.5,41Z"/></g><g id="Trazado_11525" data-name="Trazado 11525"><path class="cls-3" d="M46.9,45.4l-.5-.2a.8.8,0,0,1-.2-1.2,35,35,0,0,0,4.2-8.7.8.8,0,0,1,1.1-.5.9.9,0,0,1,.6,1.1A34.8,34.8,0,0,1,47.7,45,1.2,1.2,0,0,1,46.9,45.4Z"/></g><g id="Trazado_11526" data-name="Trazado 11526"><path class="cls-3" d="M23.7,37.2a.9.9,0,0,1-.8-.5.9.9,0,0,1,.4-1.2c.3-.1,7.5-3.4,6.7-11a.9.9,0,0,1,.8-1,.9.9,0,0,1,.9.8c1,8.9-7.5,12.8-7.6,12.9Z"/></g><g id="Trazado_11527" data-name="Trazado 11527"><path class="cls-3" d="M14.4,45.1h-.2a.8.8,0,0,1-.7-1A10.7,10.7,0,0,0,7.7,32.9a1,1,0,0,1-.5-.8.9.9,0,0,1,.4-.8,2.5,2.5,0,0,0,1.2-1.6,2.5,2.5,0,0,0-.3-1.4.7.7,0,0,1-.1-.9.8.8,0,0,1,.7-.5,1.8,1.8,0,0,0,1.5-.5c.3-.4,0-1.1,0-1.1a.9.9,0,0,1,.3-1,.8.8,0,0,1,1-.1c.7.4,1.3.5,1.6.3s.5-1,.5-1.3a.8.8,0,0,1,.7-.8,1,1,0,0,1,1,.4c.3.5.7,1.1,1.1,1.2a2.3,2.3,0,0,0,1-.3.8.8,0,0,1,.9-.2c.3.2.6.5.6.8v4.5c.6,2.7,3.6,6,3.6,6.1,7.3,6.8,17,4.2,17.1,4.1a.9.9,0,0,1,1.1.7.9.9,0,0,1-.6,1.1c-.4.1-10.8,2.9-18.8-4.7-.2-.2-3.5-3.8-4.2-7V25.7a1.7,1.7,0,0,1-1,0,2.1,2.1,0,0,1-1.2-.5l-.8.9a2.7,2.7,0,0,1-2,.2,4.9,4.9,0,0,1-.4,1.1,3.1,3.1,0,0,1-1.6,1.1,3.5,3.5,0,0,1,.1,1.5,3.2,3.2,0,0,1-1,1.9,12.3,12.3,0,0,1,5.6,12.4A.8.8,0,0,1,14.4,45.1Z"/></g><g id="Línea_2326" data-name="Línea 2326"><path class="cls-3" d="M23,28.5a.8.8,0,0,1-.9-.7l-.5-3.2a1,1,0,0,1,.8-1,.9.9,0,0,1,1,.8l.4,3.1a.8.8,0,0,1-.7,1Z"/></g><g id="Línea_2327" data-name="Línea 2327"><path class="cls-3" d="M25.8,28.9a1,1,0,0,1-.9-.6l-1-2.7a1,1,0,0,1,.6-1.2.9.9,0,0,1,1.1.6l1,2.7a.9.9,0,0,1-.5,1.2Z"/></g><g id="Línea_2328" data-name="Línea 2328"><path class="cls-3" d="M29.1,29a1.2,1.2,0,0,1-.8-.4L26.6,26a.8.8,0,0,1,.2-1.2.9.9,0,0,1,1.3.2l1.7,2.6a.8.8,0,0,1-.2,1.2Z"/></g><g id="Elipse_2038" data-name="Elipse 2038"><path class="cls-3" d="M21.7,19.7A1.8,1.8,0,0,1,19.9,18a1.8,1.8,0,0,1,1.8-1.8A1.8,1.8,0,0,1,23.4,18,1.8,1.8,0,0,1,21.7,19.7ZM21.6,18h0Z"/></g><g id="Trazado_11528" data-name="Trazado 11528"><path class="cls-3" d="M41.3,18.1a.8.8,0,0,1-.7-.4,1,1,0,0,1,.3-1.3L43.3,15a.9.9,0,0,0,.4-1.2,1,1,0,0,0-1.3-.4l-2.5,1.5a.9.9,0,0,1-1.2-.4.9.9,0,0,1,.3-1.2l2.5-1.4a2.7,2.7,0,1,1,2.7,4.7L41.8,18Z"/></g><g id="Trazado_11529" data-name="Trazado 11529"><path class="cls-3" d="M26.9,16.4h-.6a4.1,4.1,0,0,1-2.5-1.7,1.1,1.1,0,0,1,.3-1.3.9.9,0,0,1,1.2.3,2,2,0,0,0,1.3.9,3.2,3.2,0,0,0,2.3-.8.9.9,0,0,1,1.3.1.9.9,0,0,1-.2,1.3A5.1,5.1,0,0,1,26.9,16.4Z"/></g></g><g id="Grupo_13214" data-name="Grupo 13214"><g id="Trazado_11530" data-name="Trazado 11530"><path class="cls-3" d="M9.9,49.3a1.1,1.1,0,0,1-.9-.6,1,1,0,0,1,.6-1.2,5.9,5.9,0,0,0,2.9-2,6.1,6.1,0,0,1,2.2-2c2.8-1.5,4.6.4,5.9,1.8s1.9,2,3,2a.8.8,0,0,1,.9.8.9.9,0,0,1-.8,1c-2,.1-3.3-1.3-4.4-2.5s-2.3-2.3-3.7-1.5A3.9,3.9,0,0,0,14,46.6a8.7,8.7,0,0,1-3.8,2.6Z"/></g><g id="Trazado_11531" data-name="Trazado 11531"><path class="cls-3" d="M37,49.1a4.6,4.6,0,0,1-3.4-1.6l-.5-.7a4.3,4.3,0,0,0-2.5-1.9,2.8,2.8,0,0,0-3,1.6h0a6.1,6.1,0,0,1-3.9,2.5.9.9,0,1,1-.2-1.8A3.8,3.8,0,0,0,26,45.7a4.5,4.5,0,0,1,5-2.5,5.9,5.9,0,0,1,3.5,2.5l.5.6a2.7,2.7,0,0,0,2.2,1,.9.9,0,0,1,.9.8,1,1,0,0,1-.8,1Z"/></g><g id="Trazado_11532" data-name="Trazado 11532"><path class="cls-3" d="M50.8,49.1c-2,0-3.1-1.4-4-2.4s-1.6-1.9-2.8-1.9a3.3,3.3,0,0,0-2.6,1.7,5.9,5.9,0,0,1-3.9,2.6,1,1,0,0,1-1-.8.9.9,0,0,1,.8-1,3.7,3.7,0,0,0,2.5-1.7A5.1,5.1,0,0,1,44,43a5.4,5.4,0,0,1,4.1,2.5c1,1.1,1.7,1.9,2.8,1.8s1,.3,1,.8a1,1,0,0,1-.9,1Z"/></g></g></g><g id="Rectángulo_3799-2" data-name="Rectángulo 3799-2"><rect class="cls-1" width="65" height="65"/></g><rect class="cls-1" y="48.3" width="65" height="16.74"/><path class="cls-2" d="M45.4,61.3H38.2A1.2,1.2,0,0,1,37,60.1a1.3,1.3,0,0,1,1.2-1.2h7.2a1.3,1.3,0,0,1,1.2,1.2A1.2,1.2,0,0,1,45.4,61.3Z"/><path class="cls-2" d="M53.1,61.3h-.6a1.2,1.2,0,0,1-1.2-1.2,1.3,1.3,0,0,1,1.2-1.2h.6a1.2,1.2,0,0,1,1.2,1.2A1.2,1.2,0,0,1,53.1,61.3Z"/><path class="cls-2" d="M19,61.3H11.9a1.2,1.2,0,0,1-1.2-1.2,1.2,1.2,0,0,1,1.2-1.2H19a1.2,1.2,0,0,1,1.2,1.2A1.2,1.2,0,0,1,19,61.3Z"/><path class="cls-4" d="M31,61.3H18.5a1.2,1.2,0,0,1-1.2-1.2,1.3,1.3,0,0,1,1.2-1.2H31a1.2,1.2,0,0,1,1.2,1.2A1.2,1.2,0,0,1,31,61.3Z"/><path class="cls-4" d="M35.5,55.2H11.9a1.2,1.2,0,1,1,0-2.4H35.5a1.2,1.2,0,0,1,0,2.4Z"/><path class="cls-2" d="M53.1,55.2H34.7a1.2,1.2,0,0,1,0-2.4H53.1a1.2,1.2,0,0,1,0,2.4Z"/><path class="cls-2" d="M12.3,55.2h-.4a1.2,1.2,0,1,1,0-2.4h.4a1.2,1.2,0,0,1,0,2.4Z"/></svg>