<svg id="Capa_1" data-name="Capa 1" xmlns="http://www.w3.org/2000/svg" viewBox="0 0 65 65"><defs><style>.cls-1{fill:none;}.cls-2{fill:#19a500;}.cls-3{fill:#95a6b1;}.cls-4{fill:#19a301;}.cls-5{fill:#82d400;}</style></defs><title>habitat_ecosistema</title><g id="Rectángulo_3818" data-name="Rectángulo 3818"><rect class="cls-1" width="65" height="65"/></g><g id="Trazado_9830" data-name="Trazado 9830"><path class="cls-2" d="M15.9,25a5.5,5.5,0,0,1-5.5-5.5,5.5,5.5,0,0,1,5.5-5.4,5.4,5.4,0,0,1,5.4,5.4,5.1,5.1,0,0,1-1.5,3.7A5.3,5.3,0,0,1,15.9,25Zm0-9.5a4,4,0,1,0,4,4A4,4,0,0,0,15.9,15.5Z"/></g><g id="Trazado_9831" data-name="Trazado 9831"><path class="cls-3" d="M37.3,40.4H17.4a8.2,8.2,0,0,1-8.3-8.3A8.3,8.3,0,0,1,11.7,26c.2-.3.7-.2,1,0a.9.9,0,0,1,0,1.1h-.1A6.9,6.9,0,0,0,17.4,39H37.3a6.9,6.9,0,0,0,1.6-13.7.7.7,0,0,1-.5-.9l.2-.3a5.6,5.6,0,0,0-.4-7.9A4.5,4.5,0,0,0,36.1,15a.7.7,0,0,1-.5-.9,8.8,8.8,0,0,0,.2-1.7,8.5,8.5,0,0,0-17-.2v.2a.8.8,0,0,1-.8.7.7.7,0,0,1-.7-.7,10,10,0,1,1,19.9,0,6.1,6.1,0,0,1-.1,1.4,7.1,7.1,0,0,1,3.8,9.3,3.4,3.4,0,0,1-.6,1.2,8.3,8.3,0,0,1-3,16.1Z"/></g><g id="Trazado_9832" data-name="Trazado 9832"><path class="cls-3" d="M27.4,49.8a.7.7,0,0,1-.7-.7h0V16.6a.7.7,0,1,1,1.4,0h0V49.1a.7.7,0,0,1-.7.7Z"/></g><g id="Trazado_9833" data-name="Trazado 9833"><path class="cls-3" d="M27.4,24.6c-.2,0-.4,0-.5-.2l-4.8-4.8a.8.8,0,0,1,.1-1,.8.8,0,0,1,.9,0l4.8,4.8a.7.7,0,0,1,0,1l-.5.2Z"/></g><g id="Trazado_9834" data-name="Trazado 9834"><path class="cls-3" d="M27.4,34.8l-.5-.2-4.8-4.8a.7.7,0,0,1,1-1l4.8,4.8a.7.7,0,0,1,0,1l-.5.2Z"/></g><g id="Trazado_9835" data-name="Trazado 9835"><path class="cls-3" d="M27.4,24.6a.7.7,0,0,1-.7-.7c0-.2,0-.4.2-.5l4.8-4.8a.7.7,0,0,1,1,0,.8.8,0,0,1,0,1.1h0l-4.8,4.7C27.8,24.6,27.6,24.6,27.4,24.6Z"/></g><g id="Trazado_9836" data-name="Trazado 9836"><path class="cls-3" d="M27.4,34.8a.7.7,0,0,1-.7-.7c0-.2,0-.4.2-.5l4.8-4.8a.8.8,0,0,1,1,.1.7.7,0,0,1,0,.9l-4.8,4.8Z"/></g><g id="Trazado_9837" data-name="Trazado 9837"><path class="cls-3" d="M51.2,49.8H16a.7.7,0,0,1,0-1.4H51.2a.7.7,0,1,1,0,1.4Z"/></g><g id="Trazado_9838" data-name="Trazado 9838"><path class="cls-3" d="M49,40.5H33.1a.7.7,0,0,1-.7-.7.8.8,0,0,1,.7-.8H49a5.4,5.4,0,0,0,5.4-5.4,5.4,5.4,0,0,0-4.1-5.2.7.7,0,0,1-.5-.9c0-.1.1-.2.1-.3a4.2,4.2,0,0,0-.2-6.1,5.9,5.9,0,0,0-1.7-1,.8.8,0,0,1-.5-.8,5.9,5.9,0,0,0,.2-1.4A6.7,6.7,0,0,0,41,11.3a6.2,6.2,0,0,0-4,1.3.8.8,0,0,1-1.1-.1.8.8,0,0,1,.2-1h0A8,8,0,0,1,47.4,13a7.9,7.9,0,0,1,1.7,4.9A4.1,4.1,0,0,1,49,19a5.8,5.8,0,0,1,3.1,7.6,2.5,2.5,0,0,0-.4.7,6.9,6.9,0,0,1,3.6,9A6.8,6.8,0,0,1,49,40.5Z"/></g><g id="Trazado_9839" data-name="Trazado 9839"><path class="cls-3" d="M41.1,49.8a.8.8,0,0,1-.8-.7h0V39.7a.8.8,0,0,1,.8-.7.7.7,0,0,1,.7.7v9.4a.7.7,0,0,1-.7.7Z"/></g><g id="Trazado_9840" data-name="Trazado 9840"><path class="cls-3" d="M42.1,26.8a.7.7,0,0,1-.7-.7c0-.2,0-.4.2-.5l2.8-2.8a.7.7,0,0,1,1,.1.7.7,0,0,1,0,.9l-2.8,2.8C42.5,26.8,42.3,26.8,42.1,26.8Z"/></g><rect class="cls-1" y="48.3" width="65" height="16.74"/><path class="cls-4" d="M45.4,61.3H38.2A1.2,1.2,0,0,1,37,60.1a1.3,1.3,0,0,1,1.2-1.2h7.2a1.3,1.3,0,0,1,1.2,1.2A1.2,1.2,0,0,1,45.4,61.3Z"/><path class="cls-4" d="M53.1,61.3h-.6a1.2,1.2,0,0,1-1.2-1.2,1.3,1.3,0,0,1,1.2-1.2h.6a1.2,1.2,0,0,1,1.2,1.2A1.2,1.2,0,0,1,53.1,61.3Z"/><path class="cls-4" d="M19,61.3H11.9a1.2,1.2,0,0,1-1.2-1.2,1.2,1.2,0,0,1,1.2-1.2H19a1.2,1.2,0,0,1,1.2,1.2A1.2,1.2,0,0,1,19,61.3Z"/><path class="cls-5" d="M31,61.3H18.5a1.2,1.2,0,0,1-1.2-1.2,1.3,1.3,0,0,1,1.2-1.2H31a1.2,1.2,0,0,1,1.2,1.2A1.2,1.2,0,0,1,31,61.3Z"/><path class="cls-5" d="M35.5,55.2H11.9a1.2,1.2,0,1,1,0-2.4H35.5a1.2,1.2,0,0,1,0,2.4Z"/><path class="cls-4" d="M53.1,55.2H34.7a1.2,1.2,0,0,1,0-2.4H53.1a1.2,1.2,0,0,1,0,2.4Z"/><path class="cls-4" d="M12.3,55.2h-.4a1.2,1.2,0,1,1,0-2.4h.4a1.2,1.2,0,0,1,0,2.4Z"/></svg>