<svg id="Capa_1" data-name="Capa 1" xmlns="http://www.w3.org/2000/svg" viewBox="0 0 65 65"><defs><style>.cls-1{fill:none;}.cls-2{fill:#19a301;}.cls-3{fill:#95a6b1;}.cls-4{fill:#82d400;}</style></defs><title>hidrografia</title><g id="Rectángulo_3799" data-name="Rectángulo 3799"><rect class="cls-1" width="65" height="65"/></g><g id="Elipse_1898" data-name="Elipse 1898"><path class="cls-2" d="M51.1,21a5.5,5.5,0,0,1,0-11,5.5,5.5,0,0,1,0,11Zm0-9.4A3.9,3.9,0,1,0,55,15.5,3.9,3.9,0,0,0,51.1,11.6Z"/></g><g id="Grupo_11524" data-name="Grupo 11524"><g id="Trazado_10518" data-name="Trazado 10518"><path class="cls-3" d="M24.7,49.3h-.3l-2.6-1.3a80,80,0,0,1-11.3-6.7,4.4,4.4,0,0,1-2.1-3.6A6,6,0,0,1,11,33l6.8-4.9,1.3-.9,2.8-1.9,2.6-1.8.7-.4c1.7-1.1,2.1-1.5,2.1-1.7l-.4-.3c-1-.6-4-2-4.1-2a.9.9,0,0,1-.4-1.1.9.9,0,0,1,1.1-.4l4.3,2.1a2,2,0,0,1,1.1,1.7c0,1.3-1.6,2.3-2.9,3.1l-.5.4-2.7,1.7L20,28.5l-1.2.9c-2.3,1.5-4.6,3.2-6.8,4.9a4.3,4.3,0,0,0-2,3.3,2.8,2.8,0,0,0,1.4,2.3,82.5,82.5,0,0,0,11.1,6.5l2.6,1.4a.8.8,0,0,1,.4,1.1A.9.9,0,0,1,24.7,49.3Z"/></g><g id="Línea_2023" data-name="Línea 2023"><path class="cls-3" d="M36,17.4h-.3l-10.4-4a.8.8,0,0,1-.4-1.1.7.7,0,0,1,1-.4l10.4,4a.7.7,0,0,1,.4,1A.7.7,0,0,1,36,17.4Z"/></g><g id="Trazado_10519" data-name="Trazado 10519"><path class="cls-3" d="M50.7,43.5h-.4c-.4-.2-11.1-5.1-13.6-6.8a4.1,4.1,0,0,1-1.9-2.6,2,2,0,0,1,.6-1.8l3-3.5a.8.8,0,0,1,1.1,0,.7.7,0,0,1,.1,1.1l-3,3.4h0a1.3,1.3,0,0,0-.2.6,2.2,2.2,0,0,0,1.2,1.4C40,37,50.9,42,51,42a.8.8,0,0,1,.4,1.1A.7.7,0,0,1,50.7,43.5Z"/></g><g id="Grupo_11520" data-name="Grupo 11520"><g id="Línea_2024" data-name="Línea 2024"><path class="cls-3" d="M44.8,36.3a.8.8,0,0,1-.8-.8V19.3a.7.7,0,0,1,.8-.8.8.8,0,0,1,.8.8V35.5A.9.9,0,0,1,44.8,36.3Z"/></g><g id="Línea_2025" data-name="Línea 2025"><path class="cls-3" d="M44.8,27.1a.8.8,0,0,1-.4-1.4l3-2.2a.8.8,0,0,1,1.1.2c.2.4.2.9-.2,1.1l-3,2.2Z"/></g><g id="Línea_2026" data-name="Línea 2026"><path class="cls-3" d="M44.8,23.7h-.4l-3.1-1.8a.9.9,0,0,1-.2-1.1.8.8,0,0,1,1.1-.3l3,1.9a.8.8,0,0,1,.3,1.1A1.1,1.1,0,0,1,44.8,23.7Z"/></g><g id="Trazado_10520" data-name="Trazado 10520"><path class="cls-3" d="M44.5,31H42.9a10.1,10.1,0,0,1-8.3-11.6,9.9,9.9,0,0,1,10.6-8.4.7.7,0,0,1,.7.8.8.8,0,0,1-.8.8,8.5,8.5,0,0,0-2,16.8,8.2,8.2,0,0,0,6.3-1.5,8.4,8.4,0,0,0,3.5-5.5.8.8,0,0,1,.9-.7.8.8,0,0,1,.6,1,9.8,9.8,0,0,1-4,6.5A9.7,9.7,0,0,1,44.5,31Z"/></g></g><g id="Grupo_11521" data-name="Grupo 11521"><g id="Línea_2027" data-name="Línea 2027"><path class="cls-3" d="M17.4,25.7a.9.9,0,0,1-.8-.8V9.5a.8.8,0,1,1,1.6,0V24.9A.9.9,0,0,1,17.4,25.7Z"/></g><g id="Línea_2028" data-name="Línea 2028"><path class="cls-3" d="M17.4,17.3h-.5l-3-2.2a.7.7,0,0,1-.2-1.1.7.7,0,0,1,1.1-.2l3,2.2A.7.7,0,0,1,18,17,.9.9,0,0,1,17.4,17.3Z"/></g><g id="Línea_2029" data-name="Línea 2029"><path class="cls-3" d="M17.4,13.9a.9.9,0,0,1-.7-.3.8.8,0,0,1,.3-1.1l3-1.9a.8.8,0,1,1,.8,1.4l-3,1.8Z"/></g><g id="Elipse_1899" data-name="Elipse 1899"><path class="cls-3" d="M17.2,21.2a8.7,8.7,0,1,1,8.6-8.6A8.6,8.6,0,0,1,17.2,21.2Zm0-15.7a7.1,7.1,0,1,0,7,7.1A7,7,0,0,0,17.2,5.5Z"/></g></g><g id="Grupo_11522" data-name="Grupo 11522"><g id="Trazado_10521" data-name="Trazado 10521"><path class="cls-3" d="M19,37.6a2.3,2.3,0,0,1-1.1-.3,4.1,4.1,0,0,1-1.1-1.2,3.1,3.1,0,0,0-1.1-.9.7.7,0,0,1-.5-1,.9.9,0,0,1,1-.5,3.6,3.6,0,0,1,1.9,1.5,1.6,1.6,0,0,0,.7.7h.4a1.6,1.6,0,0,0,.8-.8,2.2,2.2,0,0,1,2.3-1.4.7.7,0,0,1,.7.8.8.8,0,0,1-.8.8c-.3-.1-.6.2-.7.5a3.4,3.4,0,0,1-1.9,1.6Z"/></g><g id="Trazado_10522" data-name="Trazado 10522"><path class="cls-3" d="M25.3,37.6a2.6,2.6,0,0,1-2.4-1.7,1,1,0,0,0-.8-.5,1,1,0,0,1-.7-1,.8.8,0,0,1,1-.6,2.6,2.6,0,0,1,2,1.5,1,1,0,0,0,1,.7,1.5,1.5,0,0,0,.8-.8,2.3,2.3,0,0,1,2.3-1.4.9.9,0,0,1,.8.8,1,1,0,0,1-.9.8c-.3-.1-.6.2-.7.5a2.9,2.9,0,0,1-2,1.6Z"/></g><g id="Trazado_10523" data-name="Trazado 10523"><path class="cls-3" d="M31.6,37.6h-.1A2.7,2.7,0,0,1,29.3,36a1.1,1.1,0,0,0-.9-.6.8.8,0,0,1-.6-1,.7.7,0,0,1,.9-.6,2.6,2.6,0,0,1,2,1.5,1.1,1.1,0,0,0,1,.7.8.8,0,0,1,.7.9A.8.8,0,0,1,31.6,37.6Z"/></g></g><g id="Grupo_11523" data-name="Grupo 11523"><g id="Trazado_10524" data-name="Trazado 10524"><path class="cls-3" d="M30.2,45.4a2.3,2.3,0,0,1-1.1-.3A4.5,4.5,0,0,1,28,43.8L26.9,43a.8.8,0,0,1,.5-1.5A3.6,3.6,0,0,1,29.3,43a1.6,1.6,0,0,0,.7.7h.4a1.6,1.6,0,0,0,.8-.8,2.3,2.3,0,0,1,2.3-1.4.7.7,0,0,1,.7.8.8.8,0,0,1-.8.8.6.6,0,0,0-.7.4,3.2,3.2,0,0,1-1.9,1.7Z"/></g><g id="Trazado_10525" data-name="Trazado 10525"><path class="cls-3" d="M36.5,45.3a2.5,2.5,0,0,1-2.4-1.6,1.3,1.3,0,0,0-.8-.6.8.8,0,1,1,.3-1.5,2.6,2.6,0,0,1,2,1.5.8.8,0,0,0,1,.6,1.3,1.3,0,0,0,.8-.7,2.3,2.3,0,0,1,2.3-1.4.8.8,0,0,1,.8.8,1,1,0,0,1-.9.8.6.6,0,0,0-.7.4,2.8,2.8,0,0,1-2,1.7Z"/></g><g id="Trazado_10526" data-name="Trazado 10526"><path class="cls-3" d="M42.8,45.4h-.1a2.7,2.7,0,0,1-2.2-1.6,1.6,1.6,0,0,0-.9-.7.7.7,0,0,1-.6-.9.7.7,0,0,1,.9-.6,2.6,2.6,0,0,1,2,1.5,1.2,1.2,0,0,0,1,.7.8.8,0,0,1,.7.9A.8.8,0,0,1,42.8,45.4Z"/></g></g></g><rect class="cls-1" y="48.3" width="65" height="16.74"/><path class="cls-2" d="M45.4,61.3H38.2A1.2,1.2,0,0,1,37,60.1a1.3,1.3,0,0,1,1.2-1.2h7.2a1.3,1.3,0,0,1,1.2,1.2A1.2,1.2,0,0,1,45.4,61.3Z"/><path class="cls-2" d="M53.1,61.3h-.6a1.2,1.2,0,0,1-1.2-1.2,1.3,1.3,0,0,1,1.2-1.2h.6a1.2,1.2,0,0,1,1.2,1.2A1.2,1.2,0,0,1,53.1,61.3Z"/><path class="cls-2" d="M19,61.3H11.9a1.2,1.2,0,0,1-1.2-1.2,1.2,1.2,0,0,1,1.2-1.2H19a1.2,1.2,0,0,1,1.2,1.2A1.2,1.2,0,0,1,19,61.3Z"/><path class="cls-4" d="M31,61.3H18.5a1.2,1.2,0,0,1-1.2-1.2,1.3,1.3,0,0,1,1.2-1.2H31a1.2,1.2,0,0,1,1.2,1.2A1.2,1.2,0,0,1,31,61.3Z"/><path class="cls-4" d="M35.5,55.2H11.9a1.2,1.2,0,1,1,0-2.4H35.5a1.2,1.2,0,0,1,0,2.4Z"/><path class="cls-2" d="M53.1,55.2H34.7a1.2,1.2,0,0,1,0-2.4H53.1a1.2,1.2,0,0,1,0,2.4Z"/><path class="cls-2" d="M12.3,55.2h-.4a1.2,1.2,0,1,1,0-2.4h.4a1.2,1.2,0,0,1,0,2.4Z"/></svg>