<?xml version="1.0" encoding="utf-8"?>
<!-- Generator: Adobe Illustrator 24.0.2, SVG Export Plug-In . SVG Version: 6.00 Build 0)  -->
<svg version="1.1" id="Capa_1" xmlns="http://www.w3.org/2000/svg" xmlns:xlink="http://www.w3.org/1999/xlink" x="0px" y="0px"
	 viewBox="0 0 65 65" style="enable-background:new 0 0 65 65;" xml:space="preserve">
<style type="text/css">
	.st0{fill:none;}
	.st1{fill:#19A301;}
	.st2{fill:#82D400;}
	.st3{fill:#95A6B1;}
	.st4{fill:#19A500;}
</style>
<title>municipio 2 MONTERREY</title>
<g id="Rectángulo_3794">
	<rect y="0" class="st0" width="65" height="65"/>
</g>
<rect y="48.3" class="st0" width="65" height="16.7"/>
<path class="st1" d="M45.4,61.3h-7.2c-0.7,0-1.2-0.5-1.2-1.2l0,0c0-0.6,0.6-1.2,1.2-1.2h7.2c0.6,0,1.2,0.6,1.2,1.2
	C46.6,60.8,46.1,61.3,45.4,61.3L45.4,61.3z"/>
<path class="st1" d="M53.1,61.3h-0.6c-0.7,0-1.2-0.5-1.2-1.2l0,0c0-0.6,0.6-1.2,1.2-1.2h0.6c0.7,0,1.2,0.5,1.2,1.2l0,0
	C54.3,60.8,53.8,61.3,53.1,61.3L53.1,61.3z"/>
<path class="st1" d="M19,61.3h-7.1c-0.7,0-1.2-0.5-1.2-1.2l0,0c0-0.7,0.5-1.2,1.2-1.2c0,0,0,0,0,0H19c0.7,0,1.2,0.5,1.2,1.2l0,0
	C20.2,60.8,19.7,61.3,19,61.3L19,61.3z"/>
<path class="st2" d="M31,61.3H18.5c-0.7,0-1.2-0.5-1.2-1.2l0,0c0-0.6,0.6-1.2,1.2-1.2H31c0.7,0,1.2,0.5,1.2,1.2l0,0
	C32.2,60.8,31.7,61.3,31,61.3L31,61.3z"/>
<path class="st2" d="M35.5,55.2H11.9c-0.7,0-1.2-0.5-1.2-1.2s0.5-1.2,1.2-1.2l0,0h23.6c0.7,0,1.2,0.5,1.2,1.2S36.2,55.2,35.5,55.2z"
	/>
<path class="st1" d="M53.1,55.2H34.7c-0.7,0-1.2-0.5-1.2-1.2s0.5-1.2,1.2-1.2h18.4c0.7,0,1.2,0.5,1.2,1.2S53.8,55.2,53.1,55.2z"/>
<path class="st1" d="M12.3,55.2h-0.4c-0.7,0-1.2-0.5-1.2-1.2s0.5-1.2,1.2-1.2h0.4c0.7,0,1.2,0.5,1.2,1.2S13,55.2,12.3,55.2z"/>
<path class="st3" d="M34.6,49.7h-0.3l-4-1.3c-0.3-0.1-0.6-0.3-0.6-0.7v-4.5l-3.3-2.3c-0.2-0.1-0.3-0.4-0.4-0.6l-0.4-6.6
	c-0.1,0-0.1-0.1,0-0.1l0.2-2.3c0-0.2,0.2-0.4,0.4-0.6l2.1-1.4l0.4-2.5L27.4,26c-0.2-0.1-0.4-0.4-0.4-0.7v-3.1L19.2,16
	c-0.3-0.3-0.4-0.8-0.1-1.2c0.3-0.3,0.8-0.4,1.1-0.1l8.2,6.5c0.2,0.2,0.3,0.4,0.3,0.7v3l1.4,0.8c0.3,0.2,0.4,0.6,0.4,0.9l-0.6,3.3
	c0,0.2-0.1,0.4-0.3,0.5l-2.1,1.4l-0.2,1.9l0.4,6.1l3.3,2.3c0.2,0.2,0.3,0.4,0.3,0.7V47l3.1,1l1.9-1.6c0.2-0.1,0.5-0.2,0.7-0.1
	l6.6,1.5l6.3-3.1l-1-1.1l-2.2,1c-0.2,0.1-0.5,0.1-0.7,0l-1.6-0.8c-0.2-0.1-0.4-0.3-0.5-0.5c0-0.2,0-0.5,0.1-0.6l0.7-1.1l-5.6-3.1
	c-0.1,0-0.2-0.1-0.3-0.3l-2.7-4.7C36,33.4,36,33.1,36,32.9l0.7-3l-4.4-5.1c-0.1-0.2-0.2-0.4-0.1-0.6l0.2-1.6c0-0.4,0.3-0.7,0.7-0.7
	l6.5-0.2l-0.2-1.2h-0.6c-0.4,0-0.7-0.2-0.8-0.6l-0.5-2.2l-3.3-1.9h-3.7c-0.2,0-0.5-0.1-0.6-0.3l-2.7-3.4c-0.1-0.2-0.2-0.3-0.2-0.5
	V8.2l-1.6-2.4c-0.2-0.4-0.1-0.9,0.3-1.1c0,0,0,0,0,0c0.3-0.3,0.7-0.2,1,0c0,0,0.1,0.1,0.1,0.2l1.7,2.7c0.1,0.1,0.1,0.3,0.1,0.4v3.4
	l2.3,2.9h3.9l3.9,2.2c0.2,0.1,0.3,0.4,0.3,0.6l0.4,1.8H40c0.4,0,0.7,0.3,0.8,0.7l0.6,2.7c0,0.2-0.1,0.4-0.2,0.6
	c-0.1,0.2-0.4,0.3-0.6,0.3l-6.7,0.3V24l4.4,5.2c0.2,0.2,0.2,0.4,0.2,0.7L37.6,33l2.5,4.2l6.2,3.4c0.2,0.1,0.3,0.3,0.4,0.5
	c0,0.2,0,0.5-0.1,0.7l-0.7,0.9l0.5,0.3l2.3-1.1c0.3-0.1,0.7,0,0.9,0.2l2.2,2.3c0.2,0.2,0.3,0.4,0.2,0.7c0,0.2-0.2,0.4-0.4,0.5
	L44,49.4c-0.1,0-0.3,0.1-0.5,0L37,47.9l-1.9,1.6L34.6,49.7z"/>
<path id="Trazado_9830_1_" class="st4" d="M18.4,13.4c-3,0-5.4-2.4-5.4-5.4s2.4-5.4,5.4-5.4S23.9,5,23.9,8c0,1.4-0.5,2.7-1.5,3.7
	C21.4,12.8,19.9,13.4,18.4,13.4z M18.4,4c-2.2,0-4,1.8-4,4s1.8,4,4,4s4-1.8,4-4S20.6,4,18.4,4z"/>
</svg>
