<?xml version="1.0" encoding="utf-8"?>
<!-- Generator: Adobe Illustrator 24.0.2, SVG Export Plug-In . SVG Version: 6.00 Build 0)  -->
<svg version="1.1" id="Capa_1" xmlns="http://www.w3.org/2000/svg" xmlns:xlink="http://www.w3.org/1999/xlink" x="0px" y="0px"
	 viewBox="0 0 65 65" style="enable-background:new 0 0 65 65;" xml:space="preserve">
<style type="text/css">
	.st0{fill:none;}
	.st1{fill:#95A6B1;}
	.st2{fill:#19A301;}
	.st3{fill:#82D400;}
</style>
<title>estacion_cusiana</title>
<g id="Rectángulo_3791">
	<rect y="0" class="st0" width="65" height="65"/>
</g>
<g id="Trazado_9450">
	<path class="st1" d="M35.2,16.9h-0.4c-1.5,0-2.7-1.2-2.7-2.7l0,0V7.1c0-1.5,1.2-2.7,2.7-2.7l0,0h0.4c1.5,0,2.7,1.2,2.8,2.7v0.6
		c-0.1,0.4-0.4,0.7-0.8,0.7c-0.4,0-0.7-0.3-0.7-0.7v0V7.1c0-0.7-0.6-1.3-1.3-1.3h-0.4c-0.7,0-1.3,0.6-1.3,1.3v7.1
		c0,0.7,0.6,1.3,1.3,1.3h0.4c0.7,0,1.3-0.6,1.3-1.3c0-0.4,0.3-0.7,0.7-0.7l0,0c0.4,0,0.7,0.3,0.8,0.7C37.9,15.7,36.7,16.9,35.2,16.9
		z"/>
</g>
<g id="Trazado_9451">
	<path class="st1" d="M41.4,16.9H41c-1.5,0-2.7-1.2-2.7-2.7l0,0V5.1c0-0.4,0.3-0.7,0.7-0.7s0.7,0.3,0.7,0.7v9.1
		c0,0.7,0.6,1.3,1.3,1.3h0.4c0.7,0,1.3-0.6,1.3-1.3V5.1c0-0.4,0.3-0.7,0.7-0.7s0.7,0.3,0.7,0.7v9.1C44.1,15.7,42.9,16.9,41.4,16.9
		C41.4,16.9,41.4,16.9,41.4,16.9z"/>
</g>
<g id="Trazado_9452">
	<path class="st1" d="M47.5,16.9h-0.4c-1.5,0-2.7-1.2-2.7-2.7l0,0l0,0c0-0.4,0.3-0.7,0.7-0.7s0.7,0.3,0.7,0.7l0,0
		c0,0.7,0.6,1.3,1.3,1.3h0.4c0.7,0,1.3-0.6,1.3-1.3l0,0v-1.5c0-0.7-0.6-1.3-1.3-1.3h-0.4c-1.5,0-2.7-1.2-2.7-2.7l0,0V7.1
		c0-1.5,1.2-2.7,2.7-2.7l0,0h0.4c1.5,0,2.7,1.2,2.8,2.7l0,0v0.3c0,0.4-0.3,0.7-0.7,0.8c-0.4,0-0.8-0.4-0.8-0.8V7.1
		c0-0.7-0.6-1.3-1.3-1.3h-0.4c-0.7,0-1.3,0.6-1.3,1.3v1.6c0,0.7,0.6,1.3,1.3,1.3h0.4c1.5-0.1,2.7,1.1,2.8,2.6c0,0,0,0.1,0,0.1l0,0
		v1.5C50.2,15.7,49,16.9,47.5,16.9z"/>
</g>
<g id="Trazado_9453">
	<path class="st1" d="M54.6,49.8H39.3c-0.4-0.1-0.7-0.4-0.7-0.8l0,0V36.3c0-3.4,2.8-6.2,6.2-6.2l0,0h4.4c3.4,0,6.2,2.8,6.2,6.2l0,0
		V49c0,0.4-0.3,0.7-0.7,0.8H54.6z M40.1,48.3h13.8v-12c0-2.6-2.1-4.7-4.7-4.7l0,0h-4.4c-2.6,0-4.7,2.1-4.7,4.7l0,0V48.3z"/>
</g>
<g id="Trazado_9454">
	<path class="st1" d="M10.9,15c-0.4,0-0.7-0.3-0.8-0.7l0,0v-2.6c0.1-1.9,1.6-3.4,3.5-3.4h4.2c0.4,0,0.7,0.3,0.7,0.7
		c0,0.4-0.3,0.7-0.7,0.7h-4.2c-1.1,0-2,0.9-2,2v2.6C11.6,14.7,11.3,15,10.9,15z"/>
</g>
<g id="Trazado_9455">
	<path class="st1" d="M20.5,49.8h-9.6c-0.4,0-0.8-0.4-0.8-0.8l0,0V30.6c0.1-0.4,0.4-0.7,0.8-0.7c0.4,0,0.7,0.3,0.7,0.7l0,0v17.7h8.2
		V11.7c0-1.1-0.9-2-2-2c-0.4,0-0.7-0.3-0.7-0.7c0-0.4,0.3-0.7,0.7-0.7c1.9,0,3.4,1.5,3.5,3.4V49C21.3,49.4,20.9,49.8,20.5,49.8z"/>
</g>
<g id="Trazado_9456">
	<path class="st1" d="M35.5,49.8c-0.4-0.1-0.7-0.4-0.7-0.8l0,0V28.5c-0.1-2.3,1.6-4.2,3.9-4.3c0,0,0.1,0,0.1,0h4.7
		c2.3,0.1,4.2,2,4.1,4.3c0,0,0,0,0,0v2.3c0,0.4-0.3,0.7-0.7,0.8c-0.4,0-0.8-0.4-0.8-0.8v-2.3c0.1-1.4-1-2.7-2.4-2.8
		c-0.1,0-0.1,0-0.2,0h-4.7c-1.4,0-2.6,1.2-2.6,2.6c0,0.1,0,0.1,0,0.2V49C36.2,49.4,35.9,49.7,35.5,49.8z"/>
</g>
<g id="Trazado_9457">
	<path class="st1" d="M39.3,44h-6c-2.3-0.1-4.1-1.9-4-4.2c0,0,0-0.1,0-0.1v-5.2c0.1-1.5-1.2-2.8-2.7-2.9c0,0,0,0,0,0h-6.1
		c-0.4-0.1-0.7-0.4-0.7-0.8c0-0.4,0.3-0.7,0.7-0.7h0h6.1c2.3,0.1,4.2,2.1,4.1,4.4v5.2c-0.1,1.5,1.1,2.8,2.6,2.9h6
		c0.4,0,0.7,0.3,0.7,0.7S39.7,44,39.3,44z"/>
</g>
<g id="Trazado_9458">
	<path class="st1" d="M24.6,49.8c-0.4-0.1-0.7-0.4-0.7-0.8l0,0V18.8c0-1.5-1.2-2.8-2.7-2.9h-0.7c-0.4,0-0.7-0.3-0.7-0.7
		s0.3-0.7,0.7-0.7c0,0,0,0,0,0h0.7c2.3,0.1,4.2,2,4.1,4.3c0,0,0,0,0,0V49C25.3,49.4,25,49.7,24.6,49.8z"/>
</g>
<g id="Trazado_9459">
	<path class="st1" d="M58.4,49.8H6.7C6.3,49.7,6,49.4,6,49c0-0.4,0.3-0.7,0.7-0.7h0h51.7c0.4,0,0.7,0.3,0.7,0.7l0,0
		C59.1,49.4,58.8,49.7,58.4,49.8z"/>
</g>
<g id="Trazado_9460">
	<path class="st1" d="M47.3,45.2c-1,0-2-0.6-2.6-1.4c-1-1.4-0.4-2.9,0.1-4.1l0.3-0.8l1.5-3.6l0,0c0.1-0.3,0.4-0.5,0.7-0.5
		c0.1,0,0.1,0,0.2,0.1c0.2,0.1,0.4,0.3,0.5,0.5c0.5,1.3,1,2.6,1.7,3.9c0.4,0.9,1.1,2.4,0.5,3.8C49.7,44.3,48.6,45.1,47.3,45.2z
		 M47.3,37.5l-0.8,1.9l-0.4,0.9c-0.5,1.2-0.7,2-0.2,2.7c0.3,0.4,0.8,0.7,1.4,0.7c0.7,0,1.4-0.5,1.6-1.2c0.2-0.9,0-1.8-0.5-2.6
		C48,39.1,47.6,38.3,47.3,37.5z"/>
</g>
<g id="Trazado_9462">
	<path class="st1" d="M48.1,19.4H29.4c-0.4,0-0.7-0.3-0.7-0.7v0l0,0V7.9c0.1-3.4,2.9-6.2,6.3-6.2h18.6c0.4,0,0.7,0.3,0.7,0.7
		c0,0,0,0,0,0v10.7C54.3,16.5,51.5,19.3,48.1,19.4z M30.1,18h18c2.7-0.1,4.8-2.2,4.8-4.9v-10H35c-2.7,0-4.8,2.1-4.9,4.8V18z"/>
</g>
<g id="Trazado_9463">
	<path class="st1" d="M41.2,25.7c-0.4,0-0.8-0.4-0.8-0.8v-6.2c0.1-0.4,0.4-0.7,0.8-0.7c0.4,0,0.7,0.3,0.7,0.7v0v6.2
		C41.9,25.3,41.6,25.6,41.2,25.7z"/>
</g>
<rect y="48.3" class="st0" width="65" height="16.7"/>
<path class="st2" d="M45.4,61.3h-7.2c-0.7,0-1.2-0.5-1.2-1.2l0,0c0-0.6,0.6-1.2,1.2-1.2h7.2c0.6,0,1.2,0.6,1.2,1.2
	C46.6,60.8,46.1,61.3,45.4,61.3L45.4,61.3z"/>
<path class="st2" d="M53.1,61.3h-0.6c-0.7,0-1.2-0.5-1.2-1.2l0,0c0-0.6,0.6-1.2,1.2-1.2h0.6c0.7,0,1.2,0.5,1.2,1.2l0,0
	C54.3,60.8,53.8,61.3,53.1,61.3L53.1,61.3z"/>
<path class="st2" d="M19,61.3h-7.1c-0.7,0-1.2-0.5-1.2-1.2l0,0c0-0.7,0.5-1.2,1.2-1.2c0,0,0,0,0,0H19c0.7,0,1.2,0.5,1.2,1.2l0,0
	C20.2,60.8,19.7,61.3,19,61.3L19,61.3z"/>
<path class="st3" d="M31,61.3H18.5c-0.7,0-1.2-0.5-1.2-1.2l0,0c0-0.6,0.6-1.2,1.2-1.2H31c0.7,0,1.2,0.5,1.2,1.2l0,0
	C32.2,60.8,31.7,61.3,31,61.3L31,61.3z"/>
<path class="st3" d="M35.5,55.2H11.9c-0.7,0-1.2-0.5-1.2-1.2s0.5-1.2,1.2-1.2l0,0h23.6c0.7,0,1.2,0.5,1.2,1.2S36.2,55.2,35.5,55.2z"
	/>
<path class="st2" d="M53.1,55.2H34.7c-0.7,0-1.2-0.5-1.2-1.2s0.5-1.2,1.2-1.2h18.4c0.7,0,1.2,0.5,1.2,1.2S53.8,55.2,53.1,55.2z"/>
<path class="st2" d="M12.3,55.2h-0.4c-0.7,0-1.2-0.5-1.2-1.2s0.5-1.2,1.2-1.2h0.4c0.7,0,1.2,0.5,1.2,1.2S13,55.2,12.3,55.2z"/>
<g id="Elipse_1897_1_">
	<path class="st2" d="M11,27.5c-2.7,0-4.8-2.2-4.8-4.8s2.2-4.8,4.8-4.8s4.8,2.2,4.8,4.8S13.7,27.5,11,27.5z M11,19.5
		c-1.8,0-3.2,1.5-3.2,3.2s1.5,3.2,3.2,3.2s3.2-1.5,3.2-3.2S12.8,19.5,11,19.5z"/>
</g>
</svg>
