<svg id="Capa_1" data-name="Capa 1" xmlns="http://www.w3.org/2000/svg" viewBox="0 0 65 65"><defs><style>.cls-1{fill:none;}.cls-2{fill:#95a6b1;}.cls-3{fill:#19a500;}.cls-4{fill:#19a301;}.cls-5{fill:#82d400;}</style></defs><title>estacion_cusiana</title><g id="Rectángulo_3791" data-name="Rectángulo 3791"><rect class="cls-1" width="65" height="65"/></g><g id="Trazado_9450" data-name="Trazado 9450"><path class="cls-2" d="M35.2,16.9h-.4a2.7,2.7,0,0,1-2.7-2.7V7.1a2.7,2.7,0,0,1,2.7-2.7h.4A2.8,2.8,0,0,1,38,7.1v.6a.8.8,0,0,1-.8.7.7.7,0,0,1-.7-.7V7.1a1.3,1.3,0,0,0-1.3-1.3h-.4a1.3,1.3,0,0,0-1.3,1.3v7.1a1.3,1.3,0,0,0,1.3,1.3h.4a1.3,1.3,0,0,0,1.3-1.3.7.7,0,0,1,.7-.7.8.8,0,0,1,.8.7A2.8,2.8,0,0,1,35.2,16.9Z"/></g><g id="Trazado_9451" data-name="Trazado 9451"><path class="cls-2" d="M41.4,16.9H41a2.7,2.7,0,0,1-2.7-2.7V5.1a.7.7,0,0,1,1.4,0v9.1A1.3,1.3,0,0,0,41,15.5h.4a1.3,1.3,0,0,0,1.3-1.3V5.1a.7.7,0,1,1,1.4,0v9.1a2.7,2.7,0,0,1-2.7,2.7Z"/></g><g id="Trazado_9452" data-name="Trazado 9452"><path class="cls-2" d="M47.5,16.9h-.4a2.7,2.7,0,0,1-2.7-2.7h0a.7.7,0,0,1,1.4,0h0a1.3,1.3,0,0,0,1.3,1.3h.4a1.3,1.3,0,0,0,1.3-1.3h0V12.7a1.3,1.3,0,0,0-1.3-1.3h-.4a2.7,2.7,0,0,1-2.7-2.7V7.1a2.7,2.7,0,0,1,2.7-2.7h.4a2.8,2.8,0,0,1,2.8,2.7h0v.3a.8.8,0,0,1-.7.8.9.9,0,0,1-.8-.8V7.1a1.3,1.3,0,0,0-1.3-1.3h-.4a1.3,1.3,0,0,0-1.3,1.3V8.7A1.3,1.3,0,0,0,47.1,10h.4a2.7,2.7,0,0,1,2.8,2.7h0v1.5A2.8,2.8,0,0,1,47.5,16.9Z"/></g><g id="Trazado_9453" data-name="Trazado 9453"><path class="cls-2" d="M54.6,49.8H39.3a.8.8,0,0,1-.7-.8h0V36.3a6.2,6.2,0,0,1,6.2-6.2h4.4a6.2,6.2,0,0,1,6.2,6.2V49a.8.8,0,0,1-.7.8ZM40.1,48.3H53.9v-12a4.7,4.7,0,0,0-4.7-4.7H44.8a4.7,4.7,0,0,0-4.7,4.7Z"/></g><g id="Trazado_9454" data-name="Trazado 9454"><path class="cls-2" d="M10.9,15a.8.8,0,0,1-.8-.7h0V11.7a3.5,3.5,0,0,1,3.5-3.4h4.2a.7.7,0,0,1,0,1.4H13.6a2,2,0,0,0-2,2v2.6a.7.7,0,0,1-.7.7Z"/></g><g id="Trazado_9455" data-name="Trazado 9455"><path class="cls-2" d="M20.5,49.8H10.9a.9.9,0,0,1-.8-.8h0V30.6a.8.8,0,0,1,.8-.7.7.7,0,0,1,.7.7V48.3h8.2V11.7a2,2,0,0,0-2-2,.7.7,0,0,1,0-1.4,3.5,3.5,0,0,1,3.5,3.4V49a.9.9,0,0,1-.8.8Z"/></g><g id="Trazado_9456" data-name="Trazado 9456"><path class="cls-2" d="M35.5,49.8a.8.8,0,0,1-.7-.8h0V28.5a4.1,4.1,0,0,1,4-4.3h4.7a4.2,4.2,0,0,1,4.1,4.3v2.3a.8.8,0,0,1-.7.8.9.9,0,0,1-.8-.8V28.5a2.6,2.6,0,0,0-2.6-2.8H38.8a2.6,2.6,0,0,0-2.6,2.8V49A.8.8,0,0,1,35.5,49.8Z"/></g><g id="Trazado_9457" data-name="Trazado 9457"><path class="cls-2" d="M39.3,44h-6a4.1,4.1,0,0,1-4-4.3V34.5a2.8,2.8,0,0,0-2.7-2.9H20.5a.8.8,0,0,1-.7-.8.7.7,0,0,1,.7-.7h6.1a4.3,4.3,0,0,1,4.1,4.4v5.2a2.8,2.8,0,0,0,2.6,2.9h6a.7.7,0,1,1,0,1.4Z"/></g><g id="Trazado_9458" data-name="Trazado 9458"><path class="cls-2" d="M24.6,49.8a.8.8,0,0,1-.7-.8h0V18.8a2.9,2.9,0,0,0-2.7-2.9h-.7a.7.7,0,1,1,0-1.4h.7a4.2,4.2,0,0,1,4.1,4.3V49A.8.8,0,0,1,24.6,49.8Z"/></g><g id="Trazado_9459" data-name="Trazado 9459"><path class="cls-2" d="M58.4,49.8H6.7A.8.8,0,0,1,6,49a.7.7,0,0,1,.7-.7H58.4a.7.7,0,0,1,.7.7.8.8,0,0,1-.7.8Z"/></g><g id="Trazado_9460" data-name="Trazado 9460"><path class="cls-2" d="M47.3,45.2a3.4,3.4,0,0,1-2.6-1.4c-1-1.4-.4-2.9.1-4.1l.3-.8,1.5-3.6h0a.6.6,0,0,1,.9-.4,1.2,1.2,0,0,1,.5.5,27.2,27.2,0,0,0,1.7,3.9c.4.9,1.1,2.4.5,3.8A3.4,3.4,0,0,1,47.3,45.2Zm0-7.7-.8,1.9-.4.9c-.5,1.2-.7,2-.2,2.7a1.7,1.7,0,0,0,1.4.7,1.7,1.7,0,0,0,1.6-1.2,3.4,3.4,0,0,0-.5-2.6,21.5,21.5,0,0,1-1.1-2.4Z"/></g><g id="Trazado_9462" data-name="Trazado 9462"><path class="cls-2" d="M48.1,19.4H29.4a.7.7,0,0,1-.7-.7h0V7.9A6.3,6.3,0,0,1,35,1.7H53.6a.7.7,0,0,1,.7.7V13.1a6.3,6.3,0,0,1-6.2,6.3ZM30.1,18h18a4.9,4.9,0,0,0,4.8-4.9V3.1H35a4.9,4.9,0,0,0-4.9,4.8Z"/></g><g id="Trazado_9463" data-name="Trazado 9463"><path class="cls-2" d="M41.2,25.7a.9.9,0,0,1-.8-.8V18.7a.8.8,0,0,1,.8-.7.7.7,0,0,1,.7.7v6.2a.8.8,0,0,1-.7.8Z"/></g><g id="Trazado_9437" data-name="Trazado 9437"><path class="cls-3" d="M11,28a5.3,5.3,0,0,1,0-10.6,5.2,5.2,0,0,1,5.2,5.3,5,5,0,0,1-1.4,3.6A5.4,5.4,0,0,1,11,28Zm0-9.1a3.8,3.8,0,0,0-3.7,3.9A3.9,3.9,0,0,0,11,26.5a3.8,3.8,0,0,0,0-7.6Z"/></g><rect class="cls-1" y="48.3" width="65" height="16.74"/><path class="cls-4" d="M45.4,61.3H38.2A1.2,1.2,0,0,1,37,60.1a1.3,1.3,0,0,1,1.2-1.2h7.2a1.3,1.3,0,0,1,1.2,1.2A1.2,1.2,0,0,1,45.4,61.3Z"/><path class="cls-4" d="M53.1,61.3h-.6a1.2,1.2,0,0,1-1.2-1.2,1.3,1.3,0,0,1,1.2-1.2h.6a1.2,1.2,0,0,1,1.2,1.2A1.2,1.2,0,0,1,53.1,61.3Z"/><path class="cls-4" d="M19,61.3H11.9a1.2,1.2,0,0,1-1.2-1.2,1.2,1.2,0,0,1,1.2-1.2H19a1.2,1.2,0,0,1,1.2,1.2A1.2,1.2,0,0,1,19,61.3Z"/><path class="cls-5" d="M31,61.3H18.5a1.2,1.2,0,0,1-1.2-1.2,1.3,1.3,0,0,1,1.2-1.2H31a1.2,1.2,0,0,1,1.2,1.2A1.2,1.2,0,0,1,31,61.3Z"/><path class="cls-5" d="M35.5,55.2H11.9a1.2,1.2,0,1,1,0-2.4H35.5a1.2,1.2,0,0,1,0,2.4Z"/><path class="cls-4" d="M53.1,55.2H34.7a1.2,1.2,0,0,1,0-2.4H53.1a1.2,1.2,0,0,1,0,2.4Z"/><path class="cls-4" d="M12.3,55.2h-.4a1.2,1.2,0,1,1,0-2.4h.4a1.2,1.2,0,0,1,0,2.4Z"/></svg>