<?xml version="1.0" encoding="utf-8"?>
<!-- Generator: Adobe Illustrator 24.0.2, SVG Export Plug-In . SVG Version: 6.00 Build 0)  -->
<svg version="1.1" id="Capa_1" xmlns="http://www.w3.org/2000/svg" xmlns:xlink="http://www.w3.org/1999/xlink" x="0px" y="0px"
	 viewBox="0 0 65 65" style="enable-background:new 0 0 65 65;" xml:space="preserve">
<style type="text/css">
	.st0{fill:none;}
	.st1{fill:#95A6B1;}
	.st2{fill:#19A301;}
	.st3{fill:#82D400;}
</style>
<title>clima</title>
<g id="Rectángulo_3799">
	<rect x="0.1" y="0.1" class="st0" width="64.9" height="64.9"/>
</g>
<g id="Grupo_11513">
	<g id="Trazado_10514">
		<path class="st1" d="M17,40.5c-4.3-0.1-7.8-3.6-7.9-7.9v-0.2c0.1-3.6,2.6-6.8,6.1-7.7v-0.9c0-0.4,0.4-0.8,0.8-0.8
			c0.5,0.1,0.8,0.4,0.8,0.9v1.3c0.1,0.2,0,0.4-0.1,0.6s-0.3,0.3-0.5,0.4c-3.1,0.4-5.5,3-5.5,6.2v0.2c0,3.5,2.8,6.3,6.3,6.3l0,0h14.9
			c3.5,0,6.3-2.8,6.3-6.3v-0.2c0-3.5-2.8-6.3-6.3-6.3h-1.2c-0.2,0-0.4-0.1-0.6-0.3c-0.1-0.2-0.2-0.4-0.2-0.6
			c0.1-0.3,0.1-0.6,0.1-0.9c-0.1-2.8-2-5.2-4.7-5.9c-0.4-0.2-0.6-0.6-0.5-1s0.5-0.7,0.9-0.6c3.4,0.9,5.8,4,5.9,7.5v0.2h0.3
			c4.4,0,7.9,3.5,7.9,7.9l0,0v0.2c0,4.4-3.5,7.9-7.9,7.9l0,0L17,40.5z"/>
	</g>
	<g id="Trazado_10515">
		<path class="st1" d="M41,34.2h-0.6L38.9,34c-0.4-0.1-0.7-0.5-0.6-1l0,0c0.1-0.4,0.5-0.7,0.9-0.6l1.3,0.2c3.7,0.3,7-2.5,7.3-6.3
			v-0.1c0.2-3.8-2.7-7.1-6.5-7.3c-1.8-0.1-3.5,0.5-4.9,1.7s-2.2,2.9-2.3,4.7c0,0.4-0.4,0.8-0.8,0.8h-0.1c-0.4-0.1-0.7-0.5-0.7-0.9
			c0.2-2.2,1.2-4.3,2.9-5.8c3.5-3.1,8.8-2.7,11.9,0.7c0,0,0,0,0,0.1c1.5,1.7,2.3,3.9,2.1,6.1C49.1,30.7,45.4,34.2,41,34.2z"/>
	</g>
	<g id="Grupo_11509">
		<g id="Línea_2011">
			<path class="st1" d="M40.6,16c-0.4,0.1-0.7-0.2-0.8-0.6c0-0.1,0-0.1,0-0.2V11c-0.1-0.4,0.2-0.7,0.6-0.8c0.1,0,0.1,0,0.2,0
				c0.4,0,0.8,0.4,0.8,0.8v4.2C41.4,15.6,41,16,40.6,16z"/>
		</g>
		<g id="Línea_2012">
			<path class="st1" d="M40.6,40.8c-0.4,0.1-0.7-0.2-0.8-0.6c0-0.1,0-0.1,0-0.2v-4.5c-0.1-0.4,0.2-0.7,0.6-0.8c0.1,0,0.1,0,0.2,0
				c0.4,0,0.8,0.4,0.8,0.8V40C41.4,40.4,41,40.8,40.6,40.8z"/>
		</g>
	</g>
	<g id="Grupo_11510">
		<g id="Línea_2013">
			<path class="st1" d="M47.8,19c-0.2,0-0.4,0-0.5-0.2c-0.3-0.3-0.3-0.8,0-1.1l3-3.1c0.3-0.3,0.8-0.3,1.1,0s0.3,0.9,0,1.2l-3,3
				C48.3,19,48,19,47.8,19z"/>
		</g>
	</g>
	<g id="Grupo_11511">
		<g id="Línea_2014">
			<path class="st1" d="M33.3,19c-0.2,0-0.4,0-0.5-0.2l-3-3c-0.3-0.2-0.4-0.6-0.2-1c0.1-0.1,0.1-0.2,0.2-0.2c0.3-0.3,0.8-0.3,1.1,0
				l3,3.1c0.3,0.3,0.3,0.8,0,1.1C33.7,19,33.5,19,33.3,19z"/>
		</g>
		<g id="Línea_2015">
			<path class="st1" d="M50.9,36.6c-0.2,0-0.4-0.1-0.6-0.3l-3.2-3.2c-0.2-0.4-0.1-0.9,0.3-1.1c0.3-0.2,0.6-0.2,0.8,0l3.2,3.2
				c0.3,0.3,0.3,0.8,0,1.1C51.3,36.5,51.1,36.6,50.9,36.6z"/>
		</g>
	</g>
	<g id="Grupo_11512">
		<g id="Línea_2016">
			<path class="st1" d="M55.1,26.3h-4.3c-0.4,0-0.8-0.4-0.8-0.8s0.4-0.8,0.8-0.8h4.3c0.4-0.1,0.7,0.2,0.8,0.6c0,0.1,0,0.1,0,0.2
				C55.9,25.9,55.5,26.3,55.1,26.3z"/>
		</g>
	</g>
	<g id="Línea_2017">
		<path class="st1" d="M16.4,44.5l-0.6-0.2c-0.3-0.3-0.3-0.9,0-1.2l3.7-3.8c0.3-0.3,0.9-0.3,1.2,0c0.3,0.3,0.3,0.8,0,1.1l-3.8,3.9
			L16.4,44.5z"/>
	</g>
	<g id="Línea_2018">
		<path class="st1" d="M20.4,48.6c-0.3,0-0.5,0-0.6-0.2c-0.3-0.3-0.3-0.8,0-1.1l3.7-3.8c0.2-0.3,0.6-0.4,1-0.2l0.1,0.1
			c0.4,0.3,0.4,0.8,0.2,1.1c0,0,0,0.1-0.1,0.1l-3.8,3.8L20.4,48.6z"/>
	</g>
	<g id="Línea_2019">
		<path class="st1" d="M26.6,47.2c-0.2,0-0.4-0.1-0.6-0.3c-0.3-0.3-0.3-0.8,0-1.1l3.7-3.8c0.3-0.3,0.9-0.3,1.2,0
			c0.3,0.3,0.3,0.8,0,1.1l-3.7,3.8C27,47.1,26.8,47.2,26.6,47.2z"/>
	</g>
</g>
<rect y="48.2" class="st0" width="65" height="16.7"/>
<path class="st2" d="M45.4,61.3h-7.2c-0.6,0-1.2-0.6-1.2-1.2c0-0.7,0.5-1.2,1.2-1.2l0,0h7.2c0.7,0,1.2,0.5,1.2,1.2l0,0
	C46.6,60.7,46,61.3,45.4,61.3z"/>
<path class="st2" d="M53.1,61.3h-0.6c-0.6,0-1.2-0.6-1.2-1.2c0-0.7,0.5-1.2,1.2-1.2l0,0h0.6c0.7,0,1.2,0.5,1.2,1.2l0,0
	C54.3,60.8,53.8,61.3,53.1,61.3L53.1,61.3z"/>
<path class="st2" d="M19,61.3h-7.1c-0.7,0-1.2-0.5-1.2-1.2l0,0c0-0.7,0.5-1.2,1.2-1.2l0,0H19c0.7,0,1.2,0.5,1.2,1.2l0,0
	C20.2,60.8,19.7,61.3,19,61.3L19,61.3z"/>
<path class="st3" d="M31,61.3H18.5c-0.6,0-1.2-0.6-1.2-1.2c0-0.7,0.5-1.2,1.2-1.2l0,0H31c0.7,0,1.2,0.5,1.2,1.2l0,0
	C32.2,60.8,31.7,61.3,31,61.3L31,61.3z"/>
<path class="st3" d="M35.5,55.2H11.9c-0.7,0-1.2-0.5-1.2-1.2l0,0c0-0.7,0.5-1.2,1.2-1.2l0,0h23.6c0.7,0,1.2,0.5,1.2,1.2l0,0
	C36.7,54.6,36.1,55.2,35.5,55.2z"/>
<path class="st2" d="M53.1,55.2H34.7c-0.6,0-1.2-0.6-1.2-1.2c0-0.7,0.5-1.2,1.2-1.2l0,0h18.4c0.7,0,1.2,0.5,1.2,1.2l0,0
	C54.3,54.7,53.8,55.2,53.1,55.2L53.1,55.2z"/>
<path class="st2" d="M12.3,55.2h-0.4c-0.7,0-1.2-0.5-1.2-1.2l0,0c0-0.7,0.5-1.2,1.2-1.2l0,0h0.4c0.7,0,1.2,0.5,1.2,1.2l0,0
	C13.5,54.7,13,55.2,12.3,55.2L12.3,55.2z"/>
<g id="Elipse_1897_1_">
	<path class="st2" d="M19,22.8c-2.7,0-4.8-2.2-4.8-4.8s2.2-4.8,4.8-4.8s4.8,2.2,4.8,4.8S21.7,22.8,19,22.8z M19,14.8
		c-1.8,0-3.2,1.5-3.2,3.2s1.5,3.2,3.2,3.2s3.2-1.5,3.2-3.2S20.8,14.8,19,14.8z"/>
</g>
</svg>
