<?xml version="1.0" encoding="utf-8"?>
<!-- Generator: Adobe Illustrator 24.0.2, SVG Export Plug-In . SVG Version: 6.00 Build 0)  -->
<svg version="1.1" id="Capa_1" xmlns="http://www.w3.org/2000/svg" xmlns:xlink="http://www.w3.org/1999/xlink" x="0px" y="0px"
	 viewBox="0 0 65 65" style="enable-background:new 0 0 65 65;" xml:space="preserve">
<style type="text/css">
	.st0{fill:none;}
	.st1{fill:#19A301;}
	.st2{fill:#82D400;}
	.st3{fill:#95A6B1;}
	.st4{fill:#19A500;}
</style>
<title>municipio 3 TAURAMENA</title>
<g id="Rectángulo_3794">
	<rect y="0" class="st0" width="65" height="65"/>
</g>
<rect y="48.3" class="st0" width="65" height="16.7"/>
<path class="st1" d="M45.4,61.3h-7.2c-0.7,0-1.2-0.5-1.2-1.2l0,0c0-0.6,0.6-1.2,1.2-1.2h7.2c0.6,0,1.2,0.6,1.2,1.2
	C46.6,60.8,46.1,61.3,45.4,61.3L45.4,61.3z"/>
<path class="st1" d="M53.1,61.3h-0.6c-0.7,0-1.2-0.5-1.2-1.2l0,0c0-0.6,0.6-1.2,1.2-1.2h0.6c0.7,0,1.2,0.5,1.2,1.2l0,0
	C54.3,60.8,53.8,61.3,53.1,61.3L53.1,61.3z"/>
<path class="st1" d="M19,61.3h-7.1c-0.7,0-1.2-0.5-1.2-1.2l0,0c0-0.7,0.5-1.2,1.2-1.2c0,0,0,0,0,0H19c0.7,0,1.2,0.5,1.2,1.2l0,0
	C20.2,60.8,19.7,61.3,19,61.3L19,61.3z"/>
<path class="st2" d="M31,61.3H18.5c-0.7,0-1.2-0.5-1.2-1.2l0,0c0-0.6,0.6-1.2,1.2-1.2H31c0.7,0,1.2,0.5,1.2,1.2l0,0
	C32.2,60.8,31.7,61.3,31,61.3L31,61.3z"/>
<path class="st2" d="M35.5,55.2H11.9c-0.7,0-1.2-0.5-1.2-1.2s0.5-1.2,1.2-1.2l0,0h23.6c0.7,0,1.2,0.5,1.2,1.2S36.2,55.2,35.5,55.2z"
	/>
<path class="st1" d="M53.1,55.2H34.7c-0.7,0-1.2-0.5-1.2-1.2s0.5-1.2,1.2-1.2h18.4c0.7,0,1.2,0.5,1.2,1.2S53.8,55.2,53.1,55.2z"/>
<path class="st1" d="M12.3,55.2h-0.4c-0.7,0-1.2-0.5-1.2-1.2s0.5-1.2,1.2-1.2h0.4c0.7,0,1.2,0.5,1.2,1.2S13,55.2,12.3,55.2z"/>
<path class="st3" d="M40.8,48.1c-0.4,0-0.7-0.2-0.8-0.6l-2.5-6.8L25.2,36c-0.3,0-0.6-0.2-0.6-0.5l-3.4-9.2c-0.1-0.3,0-0.7,0.2-0.9
	l2-2.3l-1.5-2.3c-0.3-0.4-0.2-1,0.2-1.3c0,0,0,0,0.1,0c0.4-0.2,0.9-0.1,1.2,0.3l1.9,2.9c0.2,0.3,0.2,0.8-0.1,1.1l-2.1,2.4l3.1,8.3
	l12.3,4.6c0.3,0.1,0.5,0.3,0.6,0.6l2.2,6.1l0.4-3.2c0-0.3,0.1-0.5,0.3-0.7l4.2-2.8l0.9-5.2l-2.8-1.7c-0.2-0.2-0.4-0.5-0.4-0.8v-6.1
	l-8.2-8.4c-0.1-0.1-0.2-0.3-0.2-0.5l-0.3-2.5L30,11.6c-0.2-0.1-0.3-0.2-0.4-0.4l-2.1-4.7l-1,1.2c-0.3,0.3-0.8,0.4-1.2,0.1
	c-0.4-0.3-0.5-0.8-0.2-1.3c0,0,0,0,0,0L27,4.2c0.2-0.2,0.5-0.3,0.8-0.3c0.3,0.1,0.5,0.3,0.7,0.5l2.7,5.7l5.3,2.3
	c0.3,0.1,0.5,0.4,0.5,0.7l0.3,2.8l8.2,8.4c0.2,0.2,0.3,0.4,0.3,0.7v5.9l2.9,1.7c0.3,0.2,0.5,0.6,0.4,1l-1,6.2
	c-0.1,0.2-0.2,0.4-0.4,0.5l-4.2,2.9L43,47c0,0.4-0.3,0.7-0.7,0.7L41,48.1L40.8,48.1z"/>
<path id="Trazado_9830_1_" class="st4" d="M22.7,18.7c-3,0-5.4-2.4-5.4-5.4c0-3,2.4-5.4,5.4-5.4s5.4,2.4,5.4,5.4
	c0,1.4-0.5,2.7-1.5,3.7C25.7,18.1,24.2,18.7,22.7,18.7z M22.7,9.3c-2.2,0-4,1.8-4,4s1.8,4,4,4s4-1.8,4-4S24.9,9.3,22.7,9.3z"/>
</svg>
