<?xml version="1.0" encoding="utf-8"?>
<!-- Generator: Adobe Illustrator 24.0.2, SVG Export Plug-In . SVG Version: 6.00 Build 0)  -->
<svg version="1.1" id="Capa_1" xmlns="http://www.w3.org/2000/svg" xmlns:xlink="http://www.w3.org/1999/xlink" x="0px" y="0px"
	 viewBox="0 0 65 65" style="enable-background:new 0 0 65 65;" xml:space="preserve">
<style type="text/css">
	.st0{fill:#95A6B1;}
	.st1{fill:none;}
	.st2{fill:#19A301;}
	.st3{fill:#82D400;}
</style>
<title>comunidad</title>
<g id="Trazado_10737">
	<path class="st0" d="M18.9,49.2h-7.5c-0.5,0-0.9-0.4-0.9-0.9l0,0V25c0-0.5,0.4-0.9,0.9-0.9c0.5,0,0.9,0.4,0.9,0.9v22.4H18V25.1
		c0-0.5,0.4-0.9,0.9-0.9c0.5,0,0.9,0.4,0.9,0.9v23.2C19.8,48.8,19.4,49.2,18.9,49.2C18.9,49.2,18.9,49.2,18.9,49.2z"/>
</g>
<g id="Rectángulo_4147">
	<path class="st0" d="M52.3,35.4h-4.9c-2.7,0-4.8-2.1-4.8-4.8v-7.2c0.1-2.6,2.2-4.7,4.8-4.7h4.9c2.6,0,4.7,2.1,4.7,4.7v7.2
		c0.1,2.6-2,4.7-4.6,4.8C52.4,35.4,52.3,35.4,52.3,35.4z M47.4,20.5c-1.6,0-2.9,1.3-3,2.9v7.2c0,1.7,1.3,3,3,3l0,0h4.9
		c1.6,0,2.9-1.3,2.9-2.9c0,0,0-0.1,0-0.1v-7.2c0-1.6-1.3-2.9-2.9-2.9l0,0H47.4z"/>
</g>
<g id="Rectángulo_4148">
	<path class="st0" d="M17.6,35.4h-4.9c-2.6,0-4.7-2.1-4.7-4.7c0,0,0-0.1,0-0.1v-7.2c0-2.6,2.1-4.7,4.7-4.7h4.9
		c2.6,0,4.7,2.1,4.8,4.7v7.2C22.4,33.3,20.3,35.4,17.6,35.4L17.6,35.4z M12.7,20.5c-1.6,0-2.9,1.3-2.9,2.9v7.2
		c-0.1,1.6,1.2,2.9,2.8,3c0,0,0.1,0,0.1,0h4.9c1.7,0,3-1.3,3-3l0,0v-7.2c-0.1-1.6-1.4-2.9-3-2.9H12.7z"/>
</g>
<g id="Trazado_10738">
	<path class="st0" d="M49.7,29.7c-0.5,0-0.9-0.4-0.9-0.9c0,0,0,0,0,0v-5.5l-1.6-3c-0.2-0.4-0.1-1,0.3-1.3c0.4-0.2,1,0,1.2,0.4
		l1.8,3.2c0.1,0.2,0.1,0.3,0.1,0.5v5.7C50.6,29.3,50.2,29.7,49.7,29.7z"/>
</g>
<g id="Línea_2149">
	<path class="st0" d="M49.7,24l-0.4-0.2c-0.4-0.2-0.6-0.7-0.4-1.1c0,0,0-0.1,0.1-0.1l2-3.5c0.3-0.4,0.8-0.5,1.2-0.3
		c0.4,0.3,0.5,0.9,0.3,1.3l-2,3.4C50.4,23.8,50,24,49.7,24z"/>
</g>
<g id="Trazado_10739">
	<path class="st0" d="M53.3,49.4h-7.1c-0.5,0-0.9-0.4-0.9-0.9v0v-25c0-0.5,0.4-0.9,0.9-0.9c0.5,0,0.9,0.4,0.9,0.9c0,0,0,0,0,0v24.1
		h5.3V23.5c0-0.5,0.4-0.9,0.9-0.9c0.5,0,0.9,0.4,0.9,0.9c0,0,0,0,0,0v25C54.2,49,53.8,49.4,53.3,49.4z"/>
</g>
<g id="Línea_2150">
	<path class="st0" d="M15.2,49.1c-0.5,0-0.9-0.4-0.9-0.9l0,0V34.6c0-0.5,0.4-0.9,0.9-0.9c0.5,0,0.9,0.4,0.9,0.9v13.6
		C16.1,48.7,15.7,49.1,15.2,49.1z"/>
</g>
<g id="Línea_2151">
	<path class="st0" d="M49.9,49.2c-0.5,0-0.9-0.4-0.9-0.9v0V34.5c0-0.5,0.4-0.9,0.9-0.9c0.5,0,0.9,0.4,0.9,0.9c0,0,0,0,0,0v13.8
		C50.8,48.8,50.4,49.2,49.9,49.2z"/>
</g>
<g id="Línea_2152">
	<path class="st0" d="M18,13.9h-5.6c-0.5,0-0.9-0.4-0.9-0.9c0-0.5,0.4-0.9,0.9-0.9H18c0.5,0,0.9,0.4,0.9,0.9
		C18.9,13.5,18.5,13.9,18,13.9L18,13.9z"/>
</g>
<g id="Línea_2153">
	<path class="st0" d="M15.1,13.9c-0.5,0-0.9-0.4-0.9-0.9V8.7c0-0.5,0.4-0.9,0.9-0.9c0.5,0,0.9,0.4,0.9,0.9V13
		C16,13.5,15.6,13.9,15.1,13.9z"/>
</g>
<g id="Grupo_12039">
	<g id="Trazado_10740">
		<path class="st0" d="M37.8,41.3H27.4c-0.3,0-0.5-0.1-0.7-0.3c-0.2-0.2-0.2-0.4-0.2-0.7l1.6-13v-7.4c0-0.5,0.4-0.9,0.9-0.9
			c0.5,0,0.9,0.4,0.9,0.9v7.6l-1.5,12h8.3l-1.5-11.9V20c0-0.5,0.4-0.9,0.9-0.9c0.5,0,0.9,0.4,0.9,0.9c0,0,0,0,0,0v7.4l1.6,12.9
			c0.1,0.3,0,0.5-0.2,0.7C38.3,41.2,38,41.3,37.8,41.3z"/>
	</g>
	<g id="Rectángulo_4149">
		<path class="st0" d="M35,35.4h-5c-2.6,0-4.7-2.1-4.7-4.7c0,0,0-0.1,0-0.1v-7.2c0-2.6,2.1-4.7,4.7-4.7h5c2.6,0,4.7,2.1,4.7,4.7l0,0
			v7.2c0.1,2.6-2,4.7-4.6,4.8C35.1,35.4,35,35.4,35,35.4z M30,20.5c-1.6,0-2.9,1.3-2.9,2.9v7.2c-0.1,1.6,1.2,2.9,2.8,3
			c0,0,0.1,0,0.1,0h5c1.6,0,2.9-1.3,2.9-2.9c0,0,0-0.1,0-0.1v-7.2c0-1.6-1.3-2.9-2.9-2.9l0,0H30z"/>
	</g>
	<g id="Trazado_10741">
		<path class="st0" d="M36.2,49.2h-7.3c-0.5,0-0.9-0.4-0.9-0.9l0,0v-7.9c0-0.5,0.4-0.9,0.9-0.9c0.5,0,0.9,0.4,0.9,0.9v7h5.5v-7
			c0-0.5,0.4-0.9,0.9-0.9c0.5,0,0.9,0.4,0.9,0.9v7.9C37.1,48.8,36.7,49.2,36.2,49.2z"/>
	</g>
	<g id="Línea_2154">
		<path class="st0" d="M32.6,49c-0.5,0-0.9-0.4-0.9-0.9v-7.5c0-0.5,0.4-0.9,0.9-0.9c0.5,0,0.9,0.4,0.9,0.9v7.5
			C33.5,48.6,33.1,49,32.6,49z"/>
	</g>
	<g id="Línea_2155">
		<path class="st0" d="M36.1,28.2H29c-0.5,0-0.9-0.4-0.9-0.9c0-0.5,0.4-0.9,0.9-0.9h7.1c0.5,0,0.9,0.4,0.9,0.9
			C37,27.8,36.6,28.2,36.1,28.2C36.1,28.2,36.1,28.2,36.1,28.2z"/>
	</g>
</g>
<g id="Rectángulo_3799">
	<rect x="0.2" y="0" class="st1" width="64.6" height="65"/>
</g>
<rect x="-0.2" y="48.3" class="st1" width="65" height="16.7"/>
<path class="st2" d="M45.2,61.3H38c-0.7,0-1.2-0.5-1.2-1.2l0,0c0-0.6,0.6-1.2,1.2-1.2h7.2c0.7,0,1.2,0.5,1.2,1.2l0,0
	C46.4,60.8,45.9,61.3,45.2,61.3z"/>
<path class="st2" d="M52.9,61.3h-0.5c-0.7,0-1.2-0.5-1.2-1.2l0,0c0-0.7,0.5-1.2,1.2-1.2l0,0h0.5c0.7,0,1.2,0.5,1.2,1.2l0,0
	C54.1,60.8,53.6,61.3,52.9,61.3L52.9,61.3z"/>
<path class="st2" d="M18.8,61.3h-7.1c-0.7,0-1.2-0.5-1.2-1.2l0,0c0-0.6,0.6-1.2,1.2-1.2h7.1c0.7,0,1.2,0.5,1.2,1.2l0,0
	C20,60.8,19.5,61.3,18.8,61.3L18.8,61.3z"/>
<path class="st3" d="M30.9,61.3H18.4c-0.7,0-1.2-0.5-1.2-1.2l0,0c0-0.7,0.5-1.2,1.2-1.2h0h12.5c0.6,0,1.2,0.6,1.2,1.2
	C32.1,60.8,31.6,61.3,30.9,61.3z"/>
<path class="st3" d="M35.3,55.2H11.7c-0.7,0-1.2-0.5-1.2-1.2s0.5-1.2,1.2-1.2l0,0h23.6c0.7,0,1.2,0.5,1.2,1.2S36,55.2,35.3,55.2z"/>
<path class="st2" d="M52.9,55.2H34.6c-0.7,0-1.2-0.5-1.2-1.2s0.5-1.2,1.2-1.2h18.3c0.7,0,1.2,0.5,1.2,1.2S53.6,55.2,52.9,55.2z"/>
<path class="st2" d="M12.1,55.2h-0.4c-0.7,0-1.2-0.5-1.2-1.2s0.5-1.2,1.2-1.2h0.4c0.7,0,1.2,0.5,1.2,1.2S12.8,55.2,12.1,55.2z"/>
<g id="Elipse_1897_1_">
	<path class="st0" d="M49.8,17.9c-2.3,0-4-1.8-4-4s1.8-4,4-4c2.2,0,4,1.8,4,4S52,17.9,49.8,17.9z M49.8,11.2c-1.5,0-2.7,1.3-2.7,2.7
		s1.3,2.7,2.7,2.7c1.4,0,2.7-1.3,2.7-2.7S51.3,11.2,49.8,11.2z"/>
</g>
<g id="Elipse_1897_2_">
	<path class="st2" d="M32.5,17.9c-2.3,0-4-1.8-4-4s1.8-4,4-4s4,1.8,4,4S34.8,17.9,32.5,17.9z M32.5,11.2c-1.5,0-2.7,1.3-2.7,2.7
		s1.3,2.7,2.7,2.7s2.7-1.3,2.7-2.7S34,11.2,32.5,11.2z"/>
</g>
<g id="Elipse_1897_3_">
	<path class="st0" d="M15.2,17.9c-2.3,0-4-1.8-4-4s1.8-4,4-4s4,1.8,4,4S17.5,17.9,15.2,17.9z M15.2,11.2c-1.5,0-2.7,1.3-2.7,2.7
		s1.3,2.7,2.7,2.7s2.7-1.3,2.7-2.7S16.8,11.2,15.2,11.2z"/>
</g>
</svg>
