<?xml version="1.0" encoding="utf-8"?>
<!-- Generator: Adobe Illustrator 24.0.2, SVG Export Plug-In . SVG Version: 6.00 Build 0)  -->
<svg version="1.1" id="Capa_1" xmlns="http://www.w3.org/2000/svg" xmlns:xlink="http://www.w3.org/1999/xlink" x="0px" y="0px"
	 viewBox="0 0 65 65" style="enable-background:new 0 0 65 65;" xml:space="preserve">
<style type="text/css">
	.st0{fill:none;}
	.st1{fill:#95A6B1;}
	.st2{fill:#19A301;}
	.st3{fill:#82D400;}
</style>
<title>comites</title>
<g id="Rectángulo_3799">
	<rect y="-0.2" class="st0" width="65" height="65.4"/>
</g>
<g id="Trazado_10360">
	<path class="st1" d="M39.6,22h-9.7c-0.4,0.1-0.7-0.2-0.8-0.6c0-0.1,0-0.1,0-0.2c0-0.4,0.4-0.8,0.8-0.8h8.9v-2.8
		c0-1.4-1.2-2.6-2.6-2.6h-7.1c-0.9,0-1.8,0.4-2.3,1.2c-0.2,0.4-0.7,0.6-1.1,0.4s-0.6-0.7-0.4-1.1c0-0.1,0.1-0.1,0.1-0.2
		c0.8-1.2,2.2-1.9,3.6-1.9h7.1c2.3,0,4.2,1.9,4.2,4.2c0,0,0,0,0,0v3.6c0.1,0.4-0.2,0.7-0.6,0.8C39.7,22,39.7,22,39.6,22z"/>
</g>
<g id="Elipse_1833">
	<path class="st1" d="M48.4,21.6c-2.5,0-4.6-2.1-4.6-4.6v0c0-2.5,2.1-4.6,4.6-4.6c2.5,0,4.6,2.1,4.6,4.6S50.9,21.6,48.4,21.6z
		 M48.4,14c-1.7,0-3,1.3-3,3s1.3,3,3,3s3-1.3,3-3S50.1,14,48.4,14z"/>
</g>
<g id="Elipse_1833_1_">
	<path class="st1" d="M33,12.8c-2.5,0-4.6-2.1-4.6-4.6v0c0-2.5,2.1-4.6,4.6-4.6s4.6,2.1,4.6,4.6S35.5,12.8,33,12.8z M33,5.2
		c-1.7,0-3,1.3-3,3s1.3,3,3,3c1.7,0,3-1.3,3-3S34.7,5.2,33,5.2z"/>
</g>
<g id="Rectángulo_4049">
	<path class="st1" d="M55.3,30.6H41.2c-0.4,0-0.8-0.4-0.8-0.8v-2.6c0-2.9,2.4-5.3,5.3-5.3h5.1c2.9,0,5.3,2.4,5.3,5.3v2.6
		C56.1,30.2,55.7,30.6,55.3,30.6z M42,29h12.5v-1.8c-0.1-2-1.7-3.6-3.7-3.7h-5.1c-2,0.1-3.6,1.7-3.7,3.7V29z"/>
</g>
<g id="Grupo_11285">
	<g id="Trazado_10361">
		<path class="st1" d="M19.8,34.5L19.8,34.5c-2.9,0-5.7-1.1-7.7-3.2l-0.6-0.6c-0.3-0.3-0.3-0.8,0.1-1.1c0.3-0.3,0.8-0.3,1.1,0
			l0.5,0.6c1.8,1.7,4.1,2.7,6.6,2.7l0,0c2.4,0,4.8-1,6.5-2.7c3.6-3.6,3.6-9.5,0-13.1c-3.6-3.6-9.5-3.6-13.1,0
			c-0.2,0.4-0.7,0.5-1.1,0.3c-0.4-0.2-0.5-0.7-0.3-1.1c0.1-0.1,0.2-0.2,0.3-0.3c4.2-4.2,11.1-4.2,15.3,0s4.2,11.1,0,15.3
			C25.4,33.4,22.7,34.5,19.8,34.5z"/>
	</g>
</g>
<g id="Trazado_10363">
	<path class="st1" d="M42.1,40h-0.5L27,30.7c-0.3-0.2-0.5-0.6-0.3-0.9c0-0.1,0.1-0.1,0.1-0.2c0.2-0.4,0.7-0.5,1.1-0.3c0,0,0,0,0,0
		l13.9,8.8l0.9-1.5l-13.9-8.8c-0.4-0.2-0.5-0.7-0.3-1.1c0,0,0,0,0,0c0.2-0.3,0.7-0.5,1.1-0.3l14.7,9.3c0.4,0.3,0.4,0.7,0.2,1.1
		l-1.8,2.8c-0.1,0.2-0.2,0.3-0.4,0.4H42.1z"/>
</g>
<g id="Trazado_10364">
	<path class="st1" d="M32.5,40.1c-3.5,0-6.9-1.6-9-4.5c-0.5-0.7-0.9-1.4-1.2-2.1c-0.1-0.4,0-0.9,0.4-1c0.4-0.2,0.9,0,1.1,0.3
		c0,0,0,0,0,0.1c0.3,0.6,0.6,1.2,1,1.7c1.5,2.1,3.7,3.4,6.2,3.8c2.5,0.4,5-0.2,7-1.7c0.4-0.2,0.8-0.1,1.1,0.2
		c0.3,0.3,0.2,0.8-0.1,1.1C37.1,39.4,34.8,40.1,32.5,40.1z"/>
</g>
<g id="Trazado_10365">
	<path class="st1" d="M41.1,35.4l-0.4-0.2c-0.3-0.2-0.5-0.6-0.3-0.9c0-0.1,0.1-0.1,0.1-0.2c0.7-1.3,1.2-2.7,1.4-4.1
		c0-0.4,0.3-0.7,0.7-0.7c0,0,0.1,0,0.1,0c0.4,0,0.8,0.4,0.8,0.8c-0.2,1.7-0.8,3.4-1.7,4.9C41.7,35.2,41.4,35.4,41.1,35.4z"/>
</g>
<g id="Trazado_10366">
	<path class="st1" d="M41.6,25.2c-0.3,0-0.6-0.1-0.7-0.4c-0.6-1-1.3-1.9-2.1-2.7c-0.3-0.3-0.4-0.8,0-1.1c0.3-0.3,0.8-0.4,1.1-0.1
		c1,0.9,1.8,1.9,2.4,3.1c0.2,0.4,0,0.9-0.3,1.1c0,0,0,0-0.1,0L41.6,25.2z"/>
</g>
<g id="Trazado_10367">
	<path class="st1" d="M37.2,48.7h-9.5c-0.2,0-0.4-0.1-0.6-0.2c-0.2-0.2-0.3-0.4-0.2-0.7l0.3-3.2l-1.7-1l-2.6,2.6
		c-0.3,0.3-0.8,0.3-1.1,0l-6.5-6.3c-0.3-0.2-0.4-0.6-0.2-1c0.1-0.1,0.1-0.2,0.2-0.2l2.4-2.5l-0.9-2.4c-0.1-0.4,0.1-0.9,0.5-1
		c0.4-0.2,0.9,0,1.1,0.3c0,0,0,0,0,0.1l1,3c0.1,0.3,0,0.6-0.2,0.8L17,39.3l5.3,5.2l2.5-2.4c0.2-0.2,0.6-0.3,0.9-0.1l2.8,1.4
		c0.3,0.1,0.4,0.5,0.4,0.8l-0.3,2.9h7.7v-3c-0.1-0.3,0.1-0.6,0.5-0.7l3.1-1.2c0.3-0.2,0.7-0.1,0.9,0.2l1.9,2.2l5.2-5.4l-2.3-2.1
		c-0.3-0.2-0.3-0.6-0.2-0.9l1.4-3c0.1-0.3,0.4-0.5,0.7-0.5l3.2,0.2v-3c0-0.4,0.4-0.8,0.8-0.8c0.4,0,0.8,0.4,0.8,0.8v3.8
		c0,0.3,0,0.5-0.2,0.6s-0.4,0.3-0.6,0.2L48,34.3l-0.9,2l2.5,2.3c0.3,0.2,0.4,0.6,0.2,1c-0.1,0.1-0.1,0.2-0.2,0.2l-6.3,6.5
		c-0.2,0.2-0.4,0.3-0.6,0.2c-0.2,0-0.4-0.1-0.6-0.2L40,43.8l-2.1,0.8l0.2,3.3c0,0.2-0.1,0.4-0.2,0.6L37.2,48.7z"/>
</g>
<rect y="48.3" class="st0" width="65" height="16.7"/>
<path class="st2" d="M45.4,61.3h-7.2c-0.7,0-1.2-0.5-1.2-1.2l0,0c0-0.6,0.6-1.2,1.2-1.2h7.2c0.6,0,1.2,0.6,1.2,1.2
	C46.6,60.8,46.1,61.3,45.4,61.3L45.4,61.3z"/>
<path class="st2" d="M53.1,61.3h-0.6c-0.7,0-1.2-0.5-1.2-1.2l0,0c0-0.6,0.6-1.2,1.2-1.2h0.6c0.7,0,1.2,0.5,1.2,1.2l0,0
	C54.3,60.8,53.8,61.3,53.1,61.3L53.1,61.3z"/>
<path class="st2" d="M19,61.3h-7.1c-0.7,0-1.2-0.5-1.2-1.2l0,0c0-0.7,0.5-1.2,1.2-1.2c0,0,0,0,0,0H19c0.7,0,1.2,0.5,1.2,1.2l0,0
	C20.2,60.8,19.7,61.3,19,61.3L19,61.3z"/>
<path class="st3" d="M31,61.3H18.5c-0.7,0-1.2-0.5-1.2-1.2l0,0c0-0.6,0.6-1.2,1.2-1.2H31c0.7,0,1.2,0.5,1.2,1.2l0,0
	C32.2,60.8,31.7,61.3,31,61.3L31,61.3z"/>
<path class="st3" d="M35.5,55.2H11.9c-0.7,0-1.2-0.5-1.2-1.2s0.5-1.2,1.2-1.2l0,0h23.6c0.7,0,1.2,0.5,1.2,1.2S36.2,55.2,35.5,55.2z"
	/>
<path class="st2" d="M53.1,55.2H34.7c-0.7,0-1.2-0.5-1.2-1.2s0.5-1.2,1.2-1.2h18.4c0.7,0,1.2,0.5,1.2,1.2S53.8,55.2,53.1,55.2z"/>
<path class="st2" d="M12.3,55.2h-0.4c-0.7,0-1.2-0.5-1.2-1.2s0.5-1.2,1.2-1.2h0.4c0.7,0,1.2,0.5,1.2,1.2S13,55.2,12.3,55.2z"/>
<g id="Elipse_1897_1_">
	<path class="st2" d="M12.1,28.3c-2.7,0-4.8-2.2-4.8-4.8s2.2-4.8,4.8-4.8s4.8,2.2,4.8,4.8S14.8,28.3,12.1,28.3z M12.1,20.3
		c-1.8,0-3.2,1.5-3.2,3.2s1.5,3.2,3.2,3.2s3.2-1.5,3.2-3.2S13.9,20.3,12.1,20.3z"/>
</g>
</svg>
