<svg id="Capa_1" data-name="Capa 1" xmlns="http://www.w3.org/2000/svg" viewBox="0 0 65 65"><defs><style>.cls-1{fill:none;}.cls-2{fill:#19a301;}.cls-3{fill:#95a6b1;}.cls-4{fill:#82d400;}</style></defs><title>clima</title><g id="Rectángulo_3799" data-name="Rectángulo 3799"><rect class="cls-1" x="0.1" y="0.1" width="64.9" height="64.89"/></g><g id="Elipse_1897" data-name="Elipse 1897"><path class="cls-2" d="M19,23.6a5.5,5.5,0,0,1-5.4-5.5,5.5,5.5,0,0,1,10.9,0A5.5,5.5,0,0,1,19,23.6Zm0-9.3A3.9,3.9,0,0,0,19,22a3.9,3.9,0,1,0,0-7.7Z"/></g><g id="Grupo_11513" data-name="Grupo 11513"><g id="Trazado_10514" data-name="Trazado 10514"><path class="cls-3" d="M17,40.5a8,8,0,0,1-7.9-7.9v-.2a8.1,8.1,0,0,1,6.1-7.7v-.9A.9.9,0,0,1,16,23a.9.9,0,0,1,.8.9v1.3a.6.6,0,0,1-.1.6,1,1,0,0,1-.5.4,6.3,6.3,0,0,0-5.5,6.2v.2A6.3,6.3,0,0,0,17,38.9H31.9a6.3,6.3,0,0,0,6.3-6.3v-.2a6.3,6.3,0,0,0-6.3-6.3H30.7a.9.9,0,0,1-.6-.3,1.4,1.4,0,0,1-.2-.6,2.8,2.8,0,0,0,.1-.9,6.2,6.2,0,0,0-4.7-5.9.9.9,0,0,1-.5-1,.8.8,0,0,1,.9-.6,7.9,7.9,0,0,1,5.9,7.5v.2h.3a7.9,7.9,0,0,1,7.9,7.9v.2a7.9,7.9,0,0,1-7.9,7.9Z"/></g><g id="Trazado_10515" data-name="Trazado 10515"><path class="cls-3" d="M41,34.2h-.6l-1.5-.2a.8.8,0,0,1-.6-1,.8.8,0,0,1,.9-.6l1.3.2a6.8,6.8,0,0,0,7.3-6.4,6.9,6.9,0,0,0-11.4-5.6,6.6,6.6,0,0,0-2.3,4.7.8.8,0,0,1-.9.8.9.9,0,0,1-.7-.9,8.8,8.8,0,0,1,2.9-5.8,8.4,8.4,0,0,1,11.9.8,8.2,8.2,0,0,1,2.1,6.1A8.5,8.5,0,0,1,41,34.2Z"/></g><g id="Grupo_11509" data-name="Grupo 11509"><g id="Línea_2011" data-name="Línea 2011"><path class="cls-3" d="M40.6,16a.7.7,0,0,1-.8-.8V11a.7.7,0,0,1,.8-.8.8.8,0,0,1,.8.8v4.2A.8.8,0,0,1,40.6,16Z"/></g><g id="Línea_2012" data-name="Línea 2012"><path class="cls-3" d="M40.6,40.8a.7.7,0,0,1-.8-.8V35.5a.7.7,0,0,1,.8-.8.8.8,0,0,1,.8.8V40A.8.8,0,0,1,40.6,40.8Z"/></g></g><g id="Grupo_11510" data-name="Grupo 11510"><g id="Línea_2013" data-name="Línea 2013"><path class="cls-3" d="M47.8,19c-.2,0-.4,0-.5-.2a.8.8,0,0,1,0-1.1l3-3.1a.8.8,0,0,1,1.1,0,.9.9,0,0,1,0,1.2l-3,3C48.3,19,48,19,47.8,19Z"/></g></g><g id="Grupo_11511" data-name="Grupo 11511"><g id="Línea_2014" data-name="Línea 2014"><path class="cls-3" d="M33.3,19c-.2,0-.4,0-.5-.2l-3-3a.7.7,0,0,1,0-1.2.8.8,0,0,1,1.1,0l3,3.1a.8.8,0,0,1,0,1.1A.7.7,0,0,1,33.3,19Z"/></g><g id="Línea_2015" data-name="Línea 2015"><path class="cls-3" d="M50.9,36.6a.9.9,0,0,1-.6-.3l-3.2-3.2A.8.8,0,0,1,48.2,32l3.2,3.2a.8.8,0,0,1,0,1.1A.5.5,0,0,1,50.9,36.6Z"/></g></g><g id="Grupo_11512" data-name="Grupo 11512"><g id="Línea_2016" data-name="Línea 2016"><path class="cls-3" d="M55.1,26.3H50.8a.9.9,0,0,1-.8-.8.8.8,0,0,1,.8-.8h4.3a.7.7,0,0,1,.8.8A.8.8,0,0,1,55.1,26.3Z"/></g></g><g id="Línea_2017" data-name="Línea 2017"><path class="cls-3" d="M16.4,44.5l-.6-.2a.9.9,0,0,1,0-1.2l3.7-3.8a.9.9,0,0,1,1.2,0,.8.8,0,0,1,0,1.1l-3.8,3.9Z"/></g><g id="Línea_2018" data-name="Línea 2018"><path class="cls-3" d="M20.4,48.6c-.3,0-.5,0-.6-.2a.8.8,0,0,1,0-1.1l3.7-3.8a.7.7,0,0,1,1.1-.1.8.8,0,0,1,.1,1.2l-3.8,3.8Z"/></g><g id="Línea_2019" data-name="Línea 2019"><path class="cls-3" d="M26.6,47.2a.9.9,0,0,1-.6-.3.8.8,0,0,1,0-1.1L29.7,42a.9.9,0,0,1,1.2,0,.8.8,0,0,1,0,1.1l-3.7,3.8A.9.9,0,0,1,26.6,47.2Z"/></g></g><rect class="cls-1" y="48.2" width="65" height="16.74"/><path class="cls-2" d="M45.4,61.3H38.2A1.3,1.3,0,0,1,37,60.1a1.2,1.2,0,0,1,1.2-1.2h7.2a1.2,1.2,0,0,1,1.2,1.2A1.3,1.3,0,0,1,45.4,61.3Z"/><path class="cls-2" d="M53.1,61.3h-.6a1.3,1.3,0,0,1-1.2-1.2,1.2,1.2,0,0,1,1.2-1.2h.6a1.2,1.2,0,0,1,1.2,1.2A1.2,1.2,0,0,1,53.1,61.3Z"/><path class="cls-2" d="M19,61.3H11.9a1.2,1.2,0,0,1-1.2-1.2,1.2,1.2,0,0,1,1.2-1.2H19a1.2,1.2,0,0,1,1.2,1.2A1.2,1.2,0,0,1,19,61.3Z"/><path class="cls-4" d="M31,61.3H18.5a1.3,1.3,0,0,1-1.2-1.2,1.2,1.2,0,0,1,1.2-1.2H31a1.2,1.2,0,0,1,1.2,1.2A1.2,1.2,0,0,1,31,61.3Z"/><path class="cls-4" d="M35.5,55.2H11.9A1.2,1.2,0,0,1,10.7,54a1.2,1.2,0,0,1,1.2-1.2H35.5A1.2,1.2,0,0,1,36.7,54,1.3,1.3,0,0,1,35.5,55.2Z"/><path class="cls-2" d="M53.1,55.2H34.7A1.3,1.3,0,0,1,33.5,54a1.2,1.2,0,0,1,1.2-1.2H53.1A1.2,1.2,0,0,1,54.3,54,1.2,1.2,0,0,1,53.1,55.2Z"/><path class="cls-2" d="M12.3,55.2h-.4A1.2,1.2,0,0,1,10.7,54a1.2,1.2,0,0,1,1.2-1.2h.4A1.2,1.2,0,0,1,13.5,54,1.2,1.2,0,0,1,12.3,55.2Z"/></svg>