<?xml version="1.0" encoding="utf-8"?>
<!-- Generator: Adobe Illustrator 24.0.2, SVG Export Plug-In . SVG Version: 6.00 Build 0)  -->
<svg version="1.1" id="Capa_1" xmlns="http://www.w3.org/2000/svg" xmlns:xlink="http://www.w3.org/1999/xlink" x="0px" y="0px"
	 viewBox="0 0 65 65" style="enable-background:new 0 0 65 65;" xml:space="preserve">
<style type="text/css">
	.st0{fill:none;}
	.st1{fill:#95A6B1;}
	.st2{fill:#19A301;}
	.st3{fill:#82D400;}
</style>
<title>fauna</title>
<g id="Rectángulo_3799">
	<rect y="0" class="st0" width="65" height="65"/>
</g>
<path class="st1" d="M31.5,41c-0.5,0-0.9-0.4-0.9-0.9l0,0c-0.1-0.4,0.3-0.8,0.7-0.9c0,0,0.1,0,0.1,0c1.6-0.2,7.5-3.6,7.5-8.9
	s-3.5-6.5-4.8-7.2c-1.6,1.4-6.7,5.2-12.6,1.8c-4.4-2.6-4.1-6.3-3.8-7.8s1.8-3.8,3.1-4.3s3.3-6.7,13.3-6.7h0.2
	c9,0.1,16.8,6.4,18.8,15.2c0.1,0.5-0.2,1-0.7,1.1c0,0,0,0,0,0c-0.4,0.1-0.9-0.1-1-0.6c0,0,0-0.1,0-0.1c-1.8-8.1-9-13.9-17.3-13.8
	c-10.3,0-11.6,5.6-11.7,5.8c-0.1,0.4-0.4,0.7-0.8,0.7c-1.1,0.7-1.9,1.8-2.1,3.1c-0.3,1.4-0.4,3.9,2.9,5.8c5.9,3.4,10.8-1.9,10.9-1.9
	c0.2-0.3,0.7-0.4,1-0.2c0.2,0.1,6.4,2.8,6.4,9.1S33.8,40.8,31.5,41z"/>
<path class="st1" d="M46.9,45.4l-0.5-0.2c-0.4-0.2-0.5-0.7-0.3-1.1c0,0,0-0.1,0.1-0.1c1.8-2.7,3.2-5.6,4.2-8.7
	c0.1-0.4,0.6-0.7,1-0.5c0,0,0.1,0,0.1,0c0.5,0.1,0.7,0.6,0.6,1.1c-1,3.2-2.5,6.3-4.4,9.1C47.5,45.2,47.2,45.4,46.9,45.4z"/>
<path class="st1" d="M23.7,37.2c-0.3,0-0.6-0.2-0.8-0.5c-0.2-0.4,0-1,0.4-1.2c0.3-0.1,7.5-3.4,6.7-11c-0.1-0.5,0.3-0.9,0.8-1
	c0,0,0,0,0,0c0.5,0,0.8,0.3,0.9,0.8c1,8.9-7.5,12.8-7.6,12.9L23.7,37.2z"/>
<path class="st1" d="M14.4,45.1h-0.2c-0.4,0-0.8-0.4-0.7-0.9c0,0,0-0.1,0-0.1c0.7-4.6-1.6-9.1-5.8-11.2c-0.3-0.2-0.5-0.5-0.5-0.8
	c0-0.3,0.1-0.6,0.4-0.8c0.6-0.3,1-0.9,1.2-1.6c0-0.5-0.1-1-0.3-1.4c-0.2-0.2-0.3-0.6-0.1-0.9c0.1-0.3,0.4-0.5,0.7-0.5
	c0.6,0.1,1.1-0.1,1.5-0.5c0.3-0.4,0-1.1,0-1.1c-0.1-0.4,0-0.8,0.3-1c0.3-0.3,0.7-0.3,1-0.1c0.7,0.4,1.3,0.5,1.6,0.3s0.5-1,0.5-1.3
	c0-0.4,0.3-0.7,0.7-0.8c0.4-0.1,0.8,0.1,1,0.4c0.3,0.5,0.7,1.1,1.1,1.2c0.4,0,0.7-0.1,1-0.3c0.2-0.3,0.6-0.3,0.9-0.2
	c0.3,0.2,0.6,0.5,0.6,0.8v4.5c0.6,2.7,3.6,6,3.6,6.1c7.3,6.8,17,4.2,17.1,4.1c0.5-0.1,1,0.2,1.1,0.7c0,0,0,0,0,0
	c0.1,0.5-0.1,1-0.6,1.1c-0.4,0.1-10.8,2.9-18.8-4.7c-0.2-0.2-3.5-3.8-4.2-7v-3.4c-0.3,0.1-0.7,0.1-1,0c-0.4,0-0.9-0.2-1.2-0.5
	l-0.8,0.9c-0.6,0.3-1.3,0.4-2,0.2c-0.1,0.4-0.2,0.8-0.4,1.1c-0.4,0.5-1,0.9-1.6,1.1c0.1,0.5,0.2,1,0.1,1.5c-0.1,0.7-0.5,1.4-1,1.9
	c4.2,2.6,6.4,7.5,5.6,12.4C15.2,44.7,14.8,45.1,14.4,45.1z"/>
<path class="st1" d="M23,28.5c-0.4,0.1-0.8-0.2-0.9-0.7c0,0,0,0,0,0l-0.5-3.2c0-0.5,0.3-0.9,0.8-1c0.5-0.1,0.9,0.3,1,0.8
	c0,0,0,0,0,0l0.4,3.1c0.1,0.4-0.1,0.9-0.6,1C23.2,28.5,23.1,28.5,23,28.5L23,28.5z"/>
<path class="st1" d="M25.8,28.9c-0.4,0-0.7-0.2-0.9-0.6l-1-2.7c-0.1-0.5,0.1-1,0.6-1.2c0.5-0.1,1,0.1,1.1,0.6l1,2.7
	c0.2,0.5,0,1-0.5,1.2c0,0,0,0,0,0H25.8z"/>
<path class="st1" d="M29.1,29c-0.3,0-0.6-0.2-0.8-0.4L26.6,26c-0.3-0.3-0.2-0.8,0.1-1.1c0,0,0.1-0.1,0.1-0.1c0.4-0.3,1-0.2,1.3,0.2
	c0,0,0,0,0,0l1.7,2.6c0.3,0.3,0.2,0.8-0.1,1.1c0,0-0.1,0.1-0.1,0.1L29.1,29z"/>
<path class="st1" d="M21.7,19.7c-1,0-1.7-0.7-1.8-1.7c0-1,0.8-1.8,1.8-1.8c1,0.1,1.7,0.8,1.7,1.8C23.4,18.9,22.6,19.6,21.7,19.7z
	 M21.6,18L21.6,18z"/>
<path class="st1" d="M41.3,18.1c-0.3,0-0.6-0.2-0.7-0.4c-0.2-0.4-0.1-1,0.3-1.3l2.4-1.4c0.4-0.2,0.6-0.8,0.4-1.2
	c-0.3-0.5-0.8-0.6-1.3-0.4l-2.5,1.5c-0.4,0.2-1,0-1.2-0.4c-0.2-0.4-0.1-0.9,0.3-1.2l2.5-1.4c1.3-0.7,3-0.3,3.7,1s0.3,3-1,3.7l0,0
	L41.8,18L41.3,18.1z"/>
<path class="st1" d="M26.9,16.4h-0.6c-1-0.2-1.9-0.8-2.5-1.7c-0.2-0.5-0.1-1,0.3-1.3c0.4-0.2,0.9-0.1,1.2,0.3
	c0.3,0.5,0.8,0.8,1.3,0.9c0.8,0,1.7-0.2,2.3-0.8c0.4-0.3,0.9-0.3,1.3,0.1c0,0,0,0,0,0c0.3,0.4,0.2,1-0.2,1.3c0,0,0,0,0,0
	C29.1,15.9,28,16.4,26.9,16.4z"/>
<path class="st1" d="M9.9,49.3c-0.4,0-0.7-0.3-0.9-0.6c-0.1-0.5,0.1-1,0.6-1.2c1.1-0.4,2.2-1.1,2.9-2c0.6-0.8,1.3-1.5,2.2-2
	c2.8-1.5,4.6,0.4,5.9,1.8s1.9,2,3,2c0.4-0.1,0.8,0.3,0.9,0.7c0,0,0,0.1,0,0.1c0.1,0.5-0.3,0.9-0.8,1c0,0,0,0,0,0
	c-2,0.1-3.3-1.3-4.4-2.5s-2.3-2.3-3.7-1.5c-0.7,0.3-1.2,0.9-1.6,1.5c-1,1.2-2.3,2.1-3.8,2.6L9.9,49.3z"/>
<path class="st1" d="M37,49.1c-1.3,0-2.5-0.6-3.4-1.6l-0.5-0.7c-0.6-0.9-1.5-1.6-2.5-1.9c-1.2-0.2-2.5,0.5-3,1.6l0,0
	c-0.9,1.3-2.3,2.2-3.9,2.5c-0.5,0.1-0.9-0.3-1-0.8s0.3-0.9,0.8-1l0,0c1-0.1,1.9-0.7,2.5-1.5c0.9-1.9,3-2.9,5-2.5
	c1.4,0.4,2.7,1.3,3.5,2.5l0.5,0.6c0.5,0.7,1.4,1,2.2,1c0.5,0,0.8,0.3,0.9,0.8c0,0.5-0.3,0.9-0.8,1H37z"/>
<path class="st1" d="M50.8,49.1c-2,0-3.1-1.4-4-2.4s-1.6-1.9-2.8-1.9c-1.1,0.1-2.1,0.7-2.6,1.7c-0.9,1.4-2.3,2.3-3.9,2.6
	c-0.5,0-0.9-0.3-1-0.8c-0.1-0.5,0.3-0.9,0.8-1c0,0,0,0,0,0c1-0.2,1.9-0.8,2.5-1.7c0.9-1.5,2.4-2.5,4.2-2.6c1.7,0.1,3.2,1.1,4.1,2.5
	c1,1.1,1.7,1.9,2.8,1.8s1,0.3,1,0.8c0,0.5-0.4,0.9-0.9,1H50.8z"/>
<g id="Rectángulo_3799-2">
	<rect y="0" class="st0" width="65" height="65"/>
</g>
<rect y="48.3" class="st0" width="65" height="16.7"/>
<path class="st2" d="M45.4,61.3h-7.2c-0.7,0-1.2-0.5-1.2-1.2l0,0c0-0.6,0.6-1.2,1.2-1.2h7.2c0.6,0,1.2,0.6,1.2,1.2
	C46.6,60.8,46.1,61.3,45.4,61.3L45.4,61.3z"/>
<path class="st2" d="M53.1,61.3h-0.6c-0.7,0-1.2-0.5-1.2-1.2l0,0c0-0.6,0.6-1.2,1.2-1.2h0.6c0.7,0,1.2,0.5,1.2,1.2l0,0
	C54.3,60.8,53.8,61.3,53.1,61.3L53.1,61.3z"/>
<path class="st2" d="M19,61.3h-7.1c-0.7,0-1.2-0.5-1.2-1.2l0,0c0-0.7,0.5-1.2,1.2-1.2c0,0,0,0,0,0H19c0.7,0,1.2,0.5,1.2,1.2l0,0
	C20.2,60.8,19.7,61.3,19,61.3L19,61.3z"/>
<path class="st3" d="M31,61.3H18.5c-0.7,0-1.2-0.5-1.2-1.2l0,0c0-0.6,0.6-1.2,1.2-1.2H31c0.7,0,1.2,0.5,1.2,1.2l0,0
	C32.2,60.8,31.7,61.3,31,61.3L31,61.3z"/>
<path class="st3" d="M35.5,55.2H11.9c-0.7,0-1.2-0.5-1.2-1.2s0.5-1.2,1.2-1.2l0,0h23.6c0.7,0,1.2,0.5,1.2,1.2S36.2,55.2,35.5,55.2z"
	/>
<path class="st2" d="M53.1,55.2H34.7c-0.7,0-1.2-0.5-1.2-1.2s0.5-1.2,1.2-1.2h18.4c0.7,0,1.2,0.5,1.2,1.2S53.8,55.2,53.1,55.2z"/>
<path class="st2" d="M12.3,55.2h-0.4c-0.7,0-1.2-0.5-1.2-1.2s0.5-1.2,1.2-1.2h0.4c0.7,0,1.2,0.5,1.2,1.2S13,55.2,12.3,55.2z"/>
<g id="Elipse_1897_1_">
	<path class="st2" d="M52.8,33.2c-2.7,0-4.8-2.2-4.8-4.8s2.2-4.8,4.8-4.8c2.6,0,4.8,2.2,4.8,4.8S55.5,33.2,52.8,33.2z M52.8,25.2
		c-1.8,0-3.2,1.5-3.2,3.2s1.5,3.2,3.2,3.2s3.2-1.5,3.2-3.2S54.6,25.2,52.8,25.2z"/>
</g>
</svg>
