<?xml version="1.0" encoding="utf-8"?>
<!-- Generator: Adobe Illustrator 24.0.2, SVG Export Plug-In . SVG Version: 6.00 Build 0)  -->
<svg version="1.1" id="Capa_1" xmlns="http://www.w3.org/2000/svg" xmlns:xlink="http://www.w3.org/1999/xlink" x="0px" y="0px"
	 viewBox="0 0 65 65" style="enable-background:new 0 0 65 65;" xml:space="preserve">
<style type="text/css">
	.st0{fill:none;}
	.st1{fill:#95A6B1;}
	.st2{fill:#19A301;}
	.st3{fill:#82D400;}
	.st4{fill:#19A500;}
</style>
<title>habitat_ecosistema</title>
<g id="Rectángulo_3818">
	<rect y="0" class="st0" width="65" height="65"/>
</g>
<g id="Trazado_9832">
	<path class="st1" d="M27.4,49.8c-0.4,0-0.7-0.3-0.7-0.7l0,0l0,0V16.6c0-0.4,0.3-0.7,0.7-0.7s0.7,0.3,0.7,0.7c0,0,0,0,0,0l0,0v32.5
		C28.1,49.5,27.8,49.8,27.4,49.8C27.4,49.8,27.4,49.8,27.4,49.8z"/>
</g>
<g id="Trazado_9833">
	<path class="st1" d="M27.4,24.6c-0.2,0-0.4,0-0.5-0.2l-4.8-4.8c-0.2-0.3-0.2-0.7,0.1-1c0.3-0.2,0.6-0.2,0.9,0l4.8,4.8
		c0.3,0.3,0.3,0.7,0,1c0,0,0,0,0,0C27.9,24.4,27.4,24.6,27.4,24.6z"/>
</g>
<g id="Trazado_9834">
	<path class="st1" d="M27.4,34.8l-0.5-0.2l-4.8-4.8c-0.3-0.3-0.3-0.7,0-1s0.7-0.3,1,0l0,0l4.8,4.8c0.3,0.3,0.3,0.7,0,1c0,0,0,0,0,0
		C27.9,34.6,27.4,34.8,27.4,34.8z"/>
</g>
<g id="Trazado_9835">
	<path class="st1" d="M27.4,24.6c-0.4,0-0.7-0.3-0.7-0.7v0c0-0.2,0-0.4,0.2-0.5l4.8-4.8c0.3-0.3,0.7-0.3,1,0c0,0,0,0,0,0
		c0.3,0.3,0.3,0.8,0,1.1l0,0l-4.8,4.7C27.8,24.6,27.6,24.6,27.4,24.6z"/>
</g>
<g id="Trazado_9836">
	<path class="st1" d="M27.4,34.8c-0.4,0-0.7-0.3-0.7-0.7l0,0c0-0.2,0-0.4,0.2-0.5l4.8-4.8c0.3-0.2,0.7-0.2,1,0.1
		c0.2,0.3,0.2,0.6,0,0.9l-4.8,4.8L27.4,34.8z"/>
</g>
<g id="Trazado_9837">
	<path class="st1" d="M51.2,49.8H16c-0.4,0-0.7-0.3-0.7-0.7s0.3-0.7,0.7-0.7h35.2c0.4,0,0.7,0.3,0.7,0.7S51.6,49.8,51.2,49.8z"/>
</g>
<g id="Trazado_9838">
	<path class="st1" d="M49,40.5H33.1c-0.4,0-0.7-0.3-0.7-0.7l0,0c0-0.4,0.3-0.7,0.7-0.8H49c3,0,5.4-2.4,5.4-5.4c0,0,0,0,0,0
		c0-2.5-1.7-4.6-4.1-5.2c-0.4-0.1-0.6-0.5-0.5-0.8c0,0,0,0,0-0.1c0-0.1,0.1-0.2,0.1-0.3c1.6-1.6,1.6-4.3,0-5.9
		c-0.1-0.1-0.1-0.1-0.2-0.2c-0.5-0.4-1.1-0.8-1.7-1c-0.3-0.1-0.5-0.5-0.5-0.8c0.1-0.5,0.2-0.9,0.2-1.4c-0.1-3.7-3-6.6-6.7-6.6
		c-1.4,0-2.9,0.4-4,1.3c-0.3,0.3-0.8,0.2-1.1-0.1c-0.2-0.3-0.1-0.8,0.2-1l0,0c3.5-2.7,8.5-2.1,11.2,1.4c0,0,0,0.1,0.1,0.1
		c1.1,1.4,1.7,3.1,1.7,4.9c0,0.4,0,0.7-0.1,1.1c3,1.2,4.3,4.6,3.1,7.6c0,0,0,0,0,0c-0.2,0.2-0.3,0.4-0.4,0.7c3.5,1.5,5.1,5.5,3.6,9
		C54.2,38.8,51.8,40.5,49,40.5z"/>
</g>
<g id="Trazado_9839">
	<path class="st1" d="M41.1,49.8c-0.4,0-0.7-0.3-0.8-0.7l0,0v-9.4c0.1-0.4,0.4-0.7,0.8-0.7c0.4,0,0.7,0.3,0.7,0.7l0,0v9.4
		C41.8,49.5,41.5,49.8,41.1,49.8L41.1,49.8z"/>
</g>
<g id="Trazado_9840">
	<path class="st1" d="M42.3,26.7c-0.4,0-0.7-0.3-0.7-0.7v0c0-0.2,0-0.4,0.2-0.5l2.8-2.8c0.3-0.2,0.7-0.2,1,0.1c0,0,0,0,0,0
		c0.2,0.3,0.2,0.6,0,0.9l-2.8,2.8C42.7,26.7,42.5,26.7,42.3,26.7z"/>
</g>
<rect y="48.3" class="st0" width="65" height="16.7"/>
<path class="st2" d="M45.4,61.3h-7.2c-0.7,0-1.2-0.5-1.2-1.2l0,0c0-0.6,0.6-1.2,1.2-1.2h7.2c0.6,0,1.2,0.6,1.2,1.2
	C46.6,60.8,46.1,61.3,45.4,61.3L45.4,61.3z"/>
<path class="st2" d="M53.1,61.3h-0.6c-0.7,0-1.2-0.5-1.2-1.2l0,0c0-0.6,0.6-1.2,1.2-1.2h0.6c0.7,0,1.2,0.5,1.2,1.2l0,0
	C54.3,60.8,53.8,61.3,53.1,61.3L53.1,61.3z"/>
<path class="st2" d="M19,61.3h-7.1c-0.7,0-1.2-0.5-1.2-1.2l0,0c0-0.7,0.5-1.2,1.2-1.2c0,0,0,0,0,0H19c0.7,0,1.2,0.5,1.2,1.2l0,0
	C20.2,60.8,19.7,61.3,19,61.3L19,61.3z"/>
<path class="st3" d="M31,61.3H18.5c-0.7,0-1.2-0.5-1.2-1.2l0,0c0-0.6,0.6-1.2,1.2-1.2H31c0.7,0,1.2,0.5,1.2,1.2l0,0
	C32.2,60.8,31.7,61.3,31,61.3L31,61.3z"/>
<path class="st3" d="M35.5,55.2H11.9c-0.7,0-1.2-0.5-1.2-1.2s0.5-1.2,1.2-1.2l0,0h23.6c0.7,0,1.2,0.5,1.2,1.2S36.2,55.2,35.5,55.2z"
	/>
<path class="st2" d="M53.1,55.2H34.7c-0.7,0-1.2-0.5-1.2-1.2s0.5-1.2,1.2-1.2h18.4c0.7,0,1.2,0.5,1.2,1.2S53.8,55.2,53.1,55.2z"/>
<path class="st2" d="M12.3,55.2h-0.4c-0.7,0-1.2-0.5-1.2-1.2s0.5-1.2,1.2-1.2h0.4c0.7,0,1.2,0.5,1.2,1.2S13,55.2,12.3,55.2z"/>
<path id="Trazado_9831_1_" class="st1" d="M37.3,40.4H17.4c-4.6,0-8.3-3.8-8.3-8.4c0-2.3,0.9-4.5,2.6-6c0.3-0.3,0.7-0.3,1,0
	c0.3,0.3,0.3,0.7,0,1c0,0,0,0,0,0c-2.8,2.6-2.9,7-0.3,9.8c1.3,1.4,3.1,2.2,5,2.2h19.9c3.8,0.1,7-2.9,7.1-6.7
	c0.1-3.3-2.2-6.3-5.5-6.9c-0.4-0.1-0.6-0.5-0.5-0.9c0-0.1,0.1-0.2,0.2-0.3c2.1-2.3,1.9-5.9-0.4-8c-0.6-0.5-1.3-1-2.1-1.2
	c-0.4-0.1-0.6-0.5-0.5-0.8c0.1-0.6,0.2-1.2,0.2-1.8c0.1-4.7-3.7-8.5-8.4-8.6s-8.5,3.7-8.6,8.4c0,0.1,0,0.1,0,0.2
	c0,0.4-0.3,0.7-0.7,0.7c-0.4,0-0.7-0.3-0.7-0.7c0-5.5,4.5-9.9,9.9-9.9c5.5,0,10,4.5,10,9.9c0,0.5,0,1-0.1,1.4
	c3.6,1.5,5.3,5.6,3.8,9.2c-0.2,0.4-0.4,0.8-0.6,1.2c4.3,1.7,6.4,6.5,4.8,10.8C43.9,38.3,40.8,40.4,37.3,40.4L37.3,40.4z"/>
<path id="Trazado_9830_1_" class="st4" d="M15.9,25c-3,0-5.4-2.4-5.4-5.4s2.4-5.4,5.4-5.4s5.4,2.4,5.4,5.4c0,1.4-0.5,2.7-1.5,3.7
	C18.8,24.3,17.4,25,15.9,25z M15.9,15.5c-2.2,0-4,1.8-4,4s1.8,4,4,4s4-1.8,4-4S18.1,15.5,15.9,15.5z"/>
</svg>
