<?xml version="1.0" encoding="utf-8"?>
<!-- Generator: Adobe Illustrator 24.0.2, SVG Export Plug-In . SVG Version: 6.00 Build 0)  -->
<svg version="1.1" id="Capa_1" xmlns="http://www.w3.org/2000/svg" xmlns:xlink="http://www.w3.org/1999/xlink" x="0px" y="0px"
	 viewBox="0 0 65 65" style="enable-background:new 0 0 65 65;" xml:space="preserve">
<style type="text/css">
	.st0{fill:none;}
	.st1{fill:#95A6B1;}
	.st2{fill:#19A301;}
	.st3{fill:#82D400;}
</style>
<title>estacion_cupiagua</title>
<g id="Rectángulo_3790">
	<rect y="0" class="st0" width="65" height="65"/>
</g>
<g id="Trazado_9429">
	<path class="st1" d="M55.1,50H39.7c-0.4,0-0.7-0.3-0.7-0.7l0,0V36.4c0.1-3.4,2.8-6.1,6.2-6.2h4.5c3.4,0.1,6.1,2.8,6.2,6.2l0,0v12.9
		C55.8,49.7,55.5,50,55.1,50z M40.5,48.5h13.9V36.4c0-2.6-2.1-4.7-4.7-4.7l0,0h-4.5c-2.6,0-4.7,2.1-4.7,4.7l0,0V48.5z"/>
</g>
<g id="Trazado_9430">
	<path class="st1" d="M11.1,15.1c-0.4-0.1-0.7-0.4-0.7-0.8l0,0v-2.6c0.1-1.9,1.6-3.4,3.5-3.4h4.2c0.4,0,0.7,0.3,0.8,0.7
		c-0.1,0.4-0.4,0.7-0.8,0.7h-4.2c-1.1,0.1-1.9,0.9-2,2v2.6C11.9,14.7,11.5,15.1,11.1,15.1z"/>
</g>
<g id="Trazado_9431">
	<path class="st1" d="M20.8,50h-9.7c-0.4,0-0.7-0.3-0.7-0.7l0,0V30.8c0-0.4,0.3-0.7,0.7-0.8c0.4,0,0.8,0.4,0.8,0.8v17.7h8.2V11.7
		c-0.1-1.1-0.9-1.9-2-2c-0.4,0-0.7-0.3-0.7-0.7c0-0.4,0.3-0.7,0.7-0.7c1.9,0,3.4,1.5,3.5,3.4v37.6c0,0.4-0.3,0.7-0.7,0.7h0H20.8z"/>
</g>
<g id="Trazado_9432">
	<path class="st1" d="M35.9,50c-0.4,0-0.7-0.3-0.8-0.7V28.7c-0.1-2.3,1.8-4.3,4.1-4.4h4.7c2.3,0.1,4.2,2,4.1,4.3c0,0,0,0.1,0,0.1V31
		c0,0.4-0.3,0.7-0.7,0.7s-0.7-0.3-0.7-0.7v-2.3c0.1-1.5-1-2.8-2.5-2.9c-0.1,0-0.1,0-0.2,0h-4.7c-1.5,0.1-2.7,1.3-2.6,2.8
		c0,0,0,0.1,0,0.1v20.6C36.6,49.7,36.3,50,35.9,50L35.9,50z"/>
</g>
<g id="Trazado_9433">
	<path class="st1" d="M39.7,44.2h-6c-2.3-0.1-4.2-2.1-4.1-4.4v-5.2c0.1-1.5-1.1-2.8-2.6-2.9h-6.2c-0.4,0-0.7-0.3-0.7-0.7
		c0-0.4,0.3-0.7,0.7-0.7H27c2.3,0.1,4.2,2,4.1,4.3c0,0,0,0,0,0v5.2c-0.1,1.5,1,2.8,2.5,2.9c0,0,0.1,0,0.1,0h6c0.4,0,0.8,0.4,0.8,0.8
		C40.4,43.9,40.1,44.2,39.7,44.2z"/>
</g>
<g id="Trazado_9434">
	<path class="st1" d="M24.9,50c-0.4,0-0.7-0.3-0.7-0.7l0,0V18.9c0.1-1.5-1.1-2.8-2.6-2.9h-0.8c-0.4,0-0.7-0.3-0.7-0.7
		c0-0.4,0.3-0.7,0.7-0.7h0.8c2.3,0.1,4.2,2,4.1,4.3c0,0,0,0,0,0v30.4C25.6,49.7,25.3,50,24.9,50z"/>
</g>
<g id="Trazado_9435">
	<path class="st1" d="M58.9,50H7c-0.4,0-0.7-0.3-0.8-0.7c0-0.4,0.4-0.8,0.8-0.8h51.9c0.4,0.1,0.7,0.4,0.7,0.8
		C59.6,49.7,59.3,50,58.9,50L58.9,50z"/>
</g>
<g id="Trazado_9436">
	<path class="st1" d="M47.7,45.4c-1,0-2-0.6-2.6-1.4c-1-1.4-0.4-2.9,0.1-4.1l0.3-0.8l1.5-3.7l0,0c0.2-0.4,0.6-0.5,1-0.4
		c0.2,0.1,0.4,0.3,0.4,0.6l1.7,3.9c0.4,0.8,1.2,2.3,0.6,3.8C50.2,44.5,49,45.3,47.7,45.4z M47.7,37.6c-0.3,0.7-0.6,1.4-0.8,2.1
		l-0.3,0.7c-0.5,1.3-0.8,2-0.3,2.8c0.3,0.4,0.9,0.7,1.4,0.7c0.8,0,1.4-0.5,1.7-1.2c0.2-0.9-0.1-1.8-0.6-2.6
		C48.3,39.1,48,38.3,47.7,37.6z"/>
</g>
<g id="Trazado_9438">
	<path class="st1" d="M35.7,17h-0.4c-1.5,0.1-2.7-1.1-2.8-2.6c0-0.1,0-0.1,0-0.2l0,0V7.1c0-1.5,1.2-2.7,2.7-2.7c0,0,0.1,0,0.1,0h0.4
		c1.5,0,2.7,1.2,2.7,2.7v0l0,0v0.7c0,0.4-0.3,0.7-0.7,0.7S37,8.2,37,7.8V7.1c0-0.7-0.6-1.3-1.3-1.3h-0.4c-0.7,0-1.3,0.6-1.3,1.3v7.1
		c0,0.7,0.6,1.3,1.3,1.3h0.4c0.7,0,1.3-0.6,1.3-1.3c0-0.4,0.3-0.7,0.7-0.7s0.7,0.3,0.7,0.7c0.1,1.5-1.1,2.7-2.6,2.8
		C35.8,17,35.7,17,35.7,17z"/>
</g>
<g id="Trazado_9439">
	<path class="st1" d="M42.1,17h-0.4c-1.5,0-2.8-1.3-2.8-2.8l0,0V5.1c0-0.4,0.3-0.7,0.7-0.7l0,0c0.4,0,0.7,0.3,0.8,0.7v9.1
		c0,0.7,0.6,1.3,1.3,1.3h0.4c0.7,0,1.3-0.6,1.3-1.3V5.1c0-0.4,0.3-0.7,0.7-0.7s0.7,0.3,0.7,0.7v9.1c0.1,1.5-1.1,2.7-2.6,2.8
		C42.2,17,42.1,17,42.1,17z"/>
</g>
<g id="Trazado_9440">
	<path class="st1" d="M46.4,17c-0.4,0-0.7-0.3-0.8-0.7V7.1c0.1-1.5,1.3-2.7,2.8-2.7h0.4c1.5,0,2.7,1.2,2.7,2.7v0l0,0v1.5
		c0,1.5-1.3,2.8-2.8,2.8h-1.6v4.9C47.1,16.7,46.8,17,46.4,17C46.4,17,46.4,17,46.4,17z M47.1,10h1.6c0.8,0,1.4-0.6,1.4-1.4v0V7.2
		c0-0.7-0.6-1.3-1.3-1.3h-0.4c-0.7,0-1.3,0.6-1.3,1.3l0,0V10z"/>
</g>
<g id="Trazado_9441">
	<path class="st1" d="M48.5,19.5H29.8c-0.4,0-0.7-0.3-0.7-0.7v0V8c0-3.5,2.8-6.3,6.3-6.3h18.7c0.4,0,0.7,0.3,0.7,0.7c0,0,0,0,0,0
		v10.8C54.8,16.7,52,19.5,48.5,19.5z M30.5,18h18c2.7,0,4.8-2.1,4.9-4.8V3.1h-18c-2.7,0-4.8,2.1-4.9,4.8L30.5,18z"/>
</g>
<g id="Trazado_9442">
	<path class="st1" d="M41.6,25.8c-0.4-0.1-0.7-0.4-0.7-0.8v-6.2c0-0.4,0.3-0.7,0.7-0.7s0.7,0.3,0.7,0.7V25
		C42.3,25.4,42,25.7,41.6,25.8z"/>
</g>
<rect y="48.3" class="st0" width="65" height="16.7"/>
<path class="st2" d="M45.4,61.3h-7.2c-0.7,0-1.2-0.5-1.2-1.2l0,0c0-0.6,0.6-1.2,1.2-1.2h7.2c0.6,0,1.2,0.6,1.2,1.2
	C46.6,60.8,46.1,61.3,45.4,61.3L45.4,61.3z"/>
<path class="st2" d="M53.1,61.3h-0.6c-0.7,0-1.2-0.5-1.2-1.2l0,0c0-0.6,0.6-1.2,1.2-1.2h0.6c0.7,0,1.2,0.5,1.2,1.2l0,0
	C54.3,60.8,53.8,61.3,53.1,61.3L53.1,61.3z"/>
<path class="st2" d="M19,61.3h-7.1c-0.7,0-1.2-0.5-1.2-1.2l0,0c0-0.7,0.5-1.2,1.2-1.2c0,0,0,0,0,0H19c0.7,0,1.2,0.5,1.2,1.2l0,0
	C20.2,60.8,19.7,61.3,19,61.3L19,61.3z"/>
<path class="st3" d="M31,61.3H18.5c-0.7,0-1.2-0.5-1.2-1.2l0,0c0-0.6,0.6-1.2,1.2-1.2H31c0.7,0,1.2,0.5,1.2,1.2l0,0
	C32.2,60.8,31.7,61.3,31,61.3L31,61.3z"/>
<path class="st3" d="M35.5,55.2H11.9c-0.7,0-1.2-0.5-1.2-1.2s0.5-1.2,1.2-1.2l0,0h23.6c0.7,0,1.2,0.5,1.2,1.2S36.2,55.2,35.5,55.2z"
	/>
<path class="st2" d="M53.1,55.2H34.7c-0.7,0-1.2-0.5-1.2-1.2s0.5-1.2,1.2-1.2h18.4c0.7,0,1.2,0.5,1.2,1.2S53.8,55.2,53.1,55.2z"/>
<path class="st2" d="M12.3,55.2h-0.4c-0.7,0-1.2-0.5-1.2-1.2s0.5-1.2,1.2-1.2h0.4c0.7,0,1.2,0.5,1.2,1.2S13,55.2,12.3,55.2z"/>
<g id="Elipse_1897_1_">
	<path class="st2" d="M11.4,27.5c-2.7,0-4.8-2.2-4.8-4.8s2.2-4.8,4.8-4.8s4.8,2.2,4.8,4.8S14.1,27.5,11.4,27.5z M11.4,19.5
		c-1.8,0-3.2,1.5-3.2,3.2s1.5,3.2,3.2,3.2s3.2-1.5,3.2-3.2S13.2,19.5,11.4,19.5z"/>
</g>
</svg>
