<svg id="Capa_1" data-name="Capa 1" xmlns="http://www.w3.org/2000/svg" viewBox="0 0 65 65"><defs><style>.cls-1{fill:none;}.cls-2{fill:#19a301;}.cls-3{fill:#82d400;}.cls-4{fill:#19a500;}.cls-5{fill:#95a6b1;}</style></defs><title>municipio 3 TAURAMENA</title><g id="Rectángulo_3794" data-name="Rectángulo 3794"><rect class="cls-1" width="65" height="65"/></g><rect class="cls-1" y="48.3" width="65" height="16.74"/><path class="cls-2" d="M45.4,61.3H38.2A1.2,1.2,0,0,1,37,60.1a1.3,1.3,0,0,1,1.2-1.2h7.2a1.3,1.3,0,0,1,1.2,1.2A1.2,1.2,0,0,1,45.4,61.3Z"/><path class="cls-2" d="M53.1,61.3h-.6a1.2,1.2,0,0,1-1.2-1.2,1.3,1.3,0,0,1,1.2-1.2h.6a1.2,1.2,0,0,1,1.2,1.2A1.2,1.2,0,0,1,53.1,61.3Z"/><path class="cls-2" d="M19,61.3H11.9a1.2,1.2,0,0,1-1.2-1.2,1.2,1.2,0,0,1,1.2-1.2H19a1.2,1.2,0,0,1,1.2,1.2A1.2,1.2,0,0,1,19,61.3Z"/><path class="cls-3" d="M31,61.3H18.5a1.2,1.2,0,0,1-1.2-1.2,1.3,1.3,0,0,1,1.2-1.2H31a1.2,1.2,0,0,1,1.2,1.2A1.2,1.2,0,0,1,31,61.3Z"/><path class="cls-3" d="M35.5,55.2H11.9a1.2,1.2,0,1,1,0-2.4H35.5a1.2,1.2,0,0,1,0,2.4Z"/><path class="cls-2" d="M53.1,55.2H34.7a1.2,1.2,0,0,1,0-2.4H53.1a1.2,1.2,0,0,1,0,2.4Z"/><path class="cls-2" d="M12.3,55.2h-.4a1.2,1.2,0,1,1,0-2.4h.4a1.2,1.2,0,0,1,0,2.4Z"/><path class="cls-4" d="M21.4,18.5a5.2,5.2,0,0,1-4.9-3.1,5.4,5.4,0,0,1,2.6-7.2,5.8,5.8,0,0,1,4.1-.1,4.9,4.9,0,0,1,3,2.8h0a5.3,5.3,0,0,1,.3,3.9A5.7,5.7,0,0,1,23.6,18,4.4,4.4,0,0,1,21.4,18.5Zm0-8.9a3.3,3.3,0,0,0-1.5.3,3.6,3.6,0,1,0,2.9,6.5,3.7,3.7,0,0,0,2-2.1,3.9,3.9,0,0,0-.2-2.6h0a3.4,3.4,0,0,0-2-1.9A2.5,2.5,0,0,0,21.4,9.6Z"/><path class="cls-5" d="M40.8,48.1a.8.8,0,0,1-.8-.6l-2.5-6.8L25.2,36a.6.6,0,0,1-.6-.5l-3.4-9.2a1,1,0,0,1,.2-.9l2-2.3-1.5-2.3a.9.9,0,0,1,.3-1.3.9.9,0,0,1,1.2.3l1.9,2.9a.9.9,0,0,1-.1,1.1l-2.1,2.4,3.1,8.3,12.3,4.6a.9.9,0,0,1,.6.6l2.2,6.1.4-3.2a.9.9,0,0,1,.3-.7l4.2-2.8.9-5.2-2.8-1.7a1.2,1.2,0,0,1-.4-.8V25.3l-8.2-8.4a.8.8,0,0,1-.2-.5l-.3-2.5-5.2-2.3a.8.8,0,0,1-.4-.4L27.5,6.5l-1,1.2a.9.9,0,0,1-1.2.1.9.9,0,0,1-.2-1.3L27,4.2a1.1,1.1,0,0,1,.8-.3,1.3,1.3,0,0,1,.7.5l2.7,5.7,5.3,2.3a.8.8,0,0,1,.5.7l.3,2.8,8.2,8.4a.9.9,0,0,1,.3.7v5.9l2.9,1.7a1,1,0,0,1,.4,1l-1,6.2a1,1,0,0,1-.4.5l-4.2,2.9L43,47a.8.8,0,0,1-.7.7l-1.3.4Z"/></svg>