<svg id="Capa_1" data-name="Capa 1" xmlns="http://www.w3.org/2000/svg" viewBox="0 0 65 65"><defs><style>.cls-1{fill:none;}.cls-2{fill:#19a301;}.cls-3{fill:#82d400;}.cls-4{fill:#19a500;}.cls-5{fill:#95a6b1;}</style></defs><title>municipio 2 MONTERREY</title><g id="Rectángulo_3794" data-name="Rectángulo 3794"><rect class="cls-1" width="65" height="65"/></g><rect class="cls-1" y="48.3" width="65" height="16.74"/><path class="cls-2" d="M45.4,61.3H38.2A1.2,1.2,0,0,1,37,60.1a1.3,1.3,0,0,1,1.2-1.2h7.2a1.3,1.3,0,0,1,1.2,1.2A1.2,1.2,0,0,1,45.4,61.3Z"/><path class="cls-2" d="M53.1,61.3h-.6a1.2,1.2,0,0,1-1.2-1.2,1.3,1.3,0,0,1,1.2-1.2h.6a1.2,1.2,0,0,1,1.2,1.2A1.2,1.2,0,0,1,53.1,61.3Z"/><path class="cls-2" d="M19,61.3H11.9a1.2,1.2,0,0,1-1.2-1.2,1.2,1.2,0,0,1,1.2-1.2H19a1.2,1.2,0,0,1,1.2,1.2A1.2,1.2,0,0,1,19,61.3Z"/><path class="cls-3" d="M31,61.3H18.5a1.2,1.2,0,0,1-1.2-1.2,1.3,1.3,0,0,1,1.2-1.2H31a1.2,1.2,0,0,1,1.2,1.2A1.2,1.2,0,0,1,31,61.3Z"/><path class="cls-3" d="M35.5,55.2H11.9a1.2,1.2,0,1,1,0-2.4H35.5a1.2,1.2,0,0,1,0,2.4Z"/><path class="cls-2" d="M53.1,55.2H34.7a1.2,1.2,0,0,1,0-2.4H53.1a1.2,1.2,0,0,1,0,2.4Z"/><path class="cls-2" d="M12.3,55.2h-.4a1.2,1.2,0,1,1,0-2.4h.4a1.2,1.2,0,0,1,0,2.4Z"/><path class="cls-4" d="M18.3,13.1a5.8,5.8,0,0,1-1.9-.3A5,5,0,0,1,13.5,10a5.2,5.2,0,0,1,2.6-7,5.4,5.4,0,0,1,7,2.6h0a5.8,5.8,0,0,1,.2,3.9,5.2,5.2,0,0,1-2.9,3.1A4.1,4.1,0,0,1,18.3,13.1Zm-.1-8.9a4,4,0,0,0-1.5.3,3.7,3.7,0,0,0-1.8,4.9A3.6,3.6,0,0,0,17,11.3a3.9,3.9,0,0,0,2.8-.1A3.5,3.5,0,0,0,21.7,9a3.6,3.6,0,0,0-.1-2.7h0A3.8,3.8,0,0,0,18.2,4.2Z"/><path class="cls-5" d="M34.6,49.7h-.3l-4-1.3a.7.7,0,0,1-.6-.7V43.2l-3.3-2.3c-.2-.1-.3-.4-.4-.6l-.4-6.6c-.1,0-.1-.1,0-.1l.2-2.3c0-.2.2-.4.4-.6l2.1-1.4.4-2.5L27.4,26a.8.8,0,0,1-.4-.7V22.2L19.2,16a.9.9,0,0,1-.1-1.2.8.8,0,0,1,1.1-.1l8.2,6.5a1.5,1.5,0,0,1,.3.7v3l1.4.8a1,1,0,0,1,.4.9l-.6,3.3a.5.5,0,0,1-.3.5l-2.1,1.4-.2,1.9.4,6.1L31,42.1a.8.8,0,0,1,.3.7V47l3.1,1,1.9-1.6a.9.9,0,0,1,.7-.1l6.6,1.5,6.3-3.1-1-1.1-2.2,1a.9.9,0,0,1-.7,0l-1.6-.8a1.2,1.2,0,0,1-.5-.5c0-.2,0-.5.1-.6l.7-1.1-5.6-3.1q-.1,0-.3-.3l-2.7-4.7c-.1-.1-.1-.4-.1-.6l.7-3-4.4-5.1a.7.7,0,0,1-.1-.6l.2-1.6a.8.8,0,0,1,.7-.7l6.5-.2-.2-1.2h-.6a.8.8,0,0,1-.8-.6l-.5-2.2-3.3-1.9H30.5a.7.7,0,0,1-.6-.3l-2.7-3.4c-.1-.2-.2-.3-.2-.5V8.2L25.4,5.8a.8.8,0,0,1,.3-1.1.7.7,0,0,1,1.1.2l1.7,2.7a.6.6,0,0,1,.1.4v3.4l2.3,2.9h3.9l3.9,2.2a.6.6,0,0,1,.3.6l.4,1.8H40a.8.8,0,0,1,.8.7l.6,2.7a1.4,1.4,0,0,1-.2.6.7.7,0,0,1-.6.3l-6.7.3V24l4.4,5.2a1,1,0,0,1,.2.7L37.6,33l2.5,4.2,6.2,3.4a1,1,0,0,1,.4.5,1.7,1.7,0,0,1-.1.7l-.7.9.5.3,2.3-1.1a1,1,0,0,1,.9.2l2.2,2.3a.6.6,0,0,1,.2.7.7.7,0,0,1-.4.5L44,49.4c-.1,0-.3.1-.5,0L37,47.9l-1.9,1.6Z"/></svg>