<svg id="Capa_1" data-name="Capa 1" xmlns="http://www.w3.org/2000/svg" viewBox="0 0 65 65"><defs><style>.cls-1{fill:none;}.cls-2{fill:#19a301;}.cls-3{fill:#82d400;}.cls-4{fill:#19a500;}.cls-5{fill:#95a6b1;}</style></defs><title>municipio 1 AGUAZUL</title><g id="Rectángulo_3794" data-name="Rectángulo 3794"><rect class="cls-1" width="65" height="65"/></g><rect class="cls-1" y="48.3" width="65" height="16.74"/><path class="cls-2" d="M45.4,61.3H38.2A1.2,1.2,0,0,1,37,60.1a1.3,1.3,0,0,1,1.2-1.2h7.2a1.3,1.3,0,0,1,1.2,1.2A1.2,1.2,0,0,1,45.4,61.3Z"/><path class="cls-2" d="M53.1,61.3h-.6a1.2,1.2,0,0,1-1.2-1.2,1.3,1.3,0,0,1,1.2-1.2h.6a1.2,1.2,0,0,1,1.2,1.2A1.2,1.2,0,0,1,53.1,61.3Z"/><path class="cls-2" d="M19,61.3H11.9a1.2,1.2,0,0,1-1.2-1.2,1.2,1.2,0,0,1,1.2-1.2H19a1.2,1.2,0,0,1,1.2,1.2A1.2,1.2,0,0,1,19,61.3Z"/><path class="cls-3" d="M31,61.3H18.5a1.2,1.2,0,0,1-1.2-1.2,1.3,1.3,0,0,1,1.2-1.2H31a1.2,1.2,0,0,1,1.2,1.2A1.2,1.2,0,0,1,31,61.3Z"/><path class="cls-3" d="M35.5,55.2H11.9a1.2,1.2,0,1,1,0-2.4H35.5a1.2,1.2,0,0,1,0,2.4Z"/><path class="cls-2" d="M53.1,55.2H34.7a1.2,1.2,0,0,1,0-2.4H53.1a1.2,1.2,0,0,1,0,2.4Z"/><path class="cls-2" d="M12.3,55.2h-.4a1.2,1.2,0,1,1,0-2.4h.4a1.2,1.2,0,0,1,0,2.4Z"/><path class="cls-4" d="M20.9,18.8a5.7,5.7,0,0,1-1.8-.3,5.5,5.5,0,0,1-3-2.8,5.1,5.1,0,0,1-.1-4,5,5,0,0,1,2.7-3,5.3,5.3,0,0,1,4.1-.1,5.1,5.1,0,0,1,2.9,2.7,4.8,4.8,0,0,1,.2,3.9,5.1,5.1,0,0,1-2.8,3.1A5.4,5.4,0,0,1,20.9,18.8Zm0-9a2.8,2.8,0,0,0-1.5.4,3.4,3.4,0,0,0-1.9,2,3.4,3.4,0,0,0,.1,2.8,3.9,3.9,0,0,0,2,2,3.8,3.8,0,0,0,2.8-.1,3.9,3.9,0,0,0,2-2.2,3.6,3.6,0,0,0-.1-2.7h0a3.6,3.6,0,0,0-2.1-1.9A2.8,2.8,0,0,0,20.9,9.8Z"/><path class="cls-5" d="M39.5,47.9a.9.9,0,0,1-.8-.6l-.8-3.8H36.6a.7.7,0,0,1-.7-.6L35,39.2l-5.6-3.3-6.1.2a.9.9,0,0,1-.7-.3l-4.3-5.6a.8.8,0,0,1-.2-.5V24.1l-2.6-4.2a.9.9,0,0,1,.2-1.1.8.8,0,0,1,1.1.3l2.8,4.3a.6.6,0,0,1,.1.4v5.7l3.9,4.9H30L36.2,38a.5.5,0,0,1,.3.5l.8,3.4h1.3a.8.8,0,0,1,.8.7l.7,3.6,5.5-.7-1.4-2.3-2.6-1a.4.4,0,0,1-.4-.4l-3.3-6.4a.8.8,0,0,1,0-.8l2-2.6a.6.6,0,0,1,.6-.3.9.9,0,0,1,.7.3l2.2,3.4,4.5-1.1L44.3,15.9l-6.9-.3a.7.7,0,0,1-.7-.5L34.1,8.7,28.4,6.6,26.8,8.3a.8.8,0,0,1-1.1,0,.7.7,0,0,1-.1-1.1l2-2.1a.6.6,0,0,1,.8-.2L35,7.3a1,1,0,0,1,.5.4L38,14l7,.3c.4.1.7.3.7.7l3.9,19.7a.8.8,0,0,1-.6.9l-5.8,1.5a.8.8,0,0,1-.8-.3l-1.9-2.9-1,1.2,2.9,5.7,2.7,1c.1.1.3.2.4.4l2.1,3.6a.9.9,0,0,1,0,.7c-.1.3-.4.4-.6.5l-7.4.9Z"/></svg>