<?xml version="1.0" encoding="utf-8"?>
<!-- Generator: Adobe Illustrator 24.0.2, SVG Export Plug-In . SVG Version: 6.00 Build 0)  -->
<svg version="1.1" id="Capa_1" xmlns="http://www.w3.org/2000/svg" xmlns:xlink="http://www.w3.org/1999/xlink" x="0px" y="0px"
	 viewBox="0 0 59 33" style="enable-background:new 0 0 59 33;" xml:space="preserve">
<style type="text/css">
	.st0{fill:#93A4AF;}
	.st1{fill:none;stroke:#93A4AF;stroke-width:1.5;stroke-linecap:round;stroke-linejoin:round;}
	.st2{fill:#00A800;}
</style>
<g>
	<g>
		<path class="st0" d="M49.53,29.85c-1.52,0-2.33-0.65-2.97-1.16c-0.59-0.47-1.05-0.84-2.04-0.84c-0.99,0-1.45,0.37-2.04,0.84
			c-0.65,0.52-1.46,1.16-2.97,1.16s-2.32-0.65-2.97-1.16c-0.58-0.47-1.05-0.84-2.04-0.84c-0.99,0-1.45,0.37-2.04,0.84
			c-0.65,0.52-1.46,1.16-2.97,1.16c-1.51,0-2.32-0.65-2.97-1.16c-0.58-0.47-1.05-0.84-2.04-0.84c-0.99,0-1.45,0.37-2.04,0.84
			c-0.65,0.52-1.46,1.16-2.97,1.16s-2.32-0.65-2.97-1.16c-0.58-0.47-1.05-0.84-2.04-0.84c-0.99,0-1.45,0.37-2.03,0.84
			c-0.65,0.52-1.46,1.16-2.97,1.16c-1.51,0-2.32-0.65-2.97-1.16c-0.58-0.47-1.05-0.84-2.03-0.84c-0.41,0-0.75-0.34-0.75-0.75
			s0.34-0.75,0.75-0.75c1.51,0,2.32,0.65,2.97,1.16c0.58,0.47,1.05,0.84,2.03,0.84c0.99,0,1.45-0.37,2.03-0.84
			c0.65-0.52,1.46-1.16,2.97-1.16c1.51,0,2.32,0.65,2.97,1.16c0.58,0.47,1.05,0.84,2.04,0.84s1.45-0.37,2.04-0.84
			c0.65-0.52,1.46-1.16,2.97-1.16s2.32,0.65,2.97,1.16c0.58,0.47,1.05,0.84,2.04,0.84c0.99,0,1.45-0.37,2.04-0.84
			c0.65-0.52,1.46-1.16,2.97-1.16s2.32,0.65,2.97,1.16c0.58,0.47,1.05,0.84,2.04,0.84c0.99,0,1.45-0.37,2.04-0.84
			c0.65-0.52,1.46-1.16,2.97-1.16s2.33,0.65,2.97,1.16c0.59,0.47,1.05,0.84,2.04,0.84s1.45-0.37,2.04-0.84
			c0.65-0.52,1.46-1.16,2.97-1.16c0.41,0,0.75,0.34,0.75,0.75s-0.34,0.75-0.75,0.75c-0.99,0-1.45,0.37-2.04,0.84
			C51.85,29.21,51.04,29.85,49.53,29.85z"/>
	</g>
	<g>
		<g>
			<g>
				<path class="st0" d="M45.7,21.86h-3.25c-0.41,0-0.75-0.34-0.75-0.75s0.34-0.75,0.75-0.75h3.25c0.41,0,0.75,0.34,0.75,0.75
					S46.11,21.86,45.7,21.86z"/>
			</g>
			<g>
				<path class="st0" d="M40.04,21.86h-0.25c-0.41,0-0.75-0.34-0.75-0.75s0.34-0.75,0.75-0.75h0.25c0.41,0,0.75,0.34,0.75,0.75
					S40.45,21.86,40.04,21.86z"/>
			</g>
			<g>
				<path class="st0" d="M33.38,21.86H8.68c-0.41,0-0.75-0.34-0.75-0.75s0.34-0.75,0.75-0.75h24.71c0.41,0,0.75,0.34,0.75,0.75
					S33.8,21.86,33.38,21.86z"/>
			</g>
		</g>
		<g>
			<path class="st0" d="M23.86,16.37h-2.85c-0.41,0-0.75-0.34-0.75-0.75V7.48c0-0.41,0.34-0.75,0.75-0.75h2.85
				c0.41,0,0.75,0.34,0.75,0.75v8.14C24.61,16.04,24.27,16.37,23.86,16.37z M21.76,14.87h1.35V8.23h-1.35V14.87z"/>
		</g>
		<g>
			<path class="st0" d="M24.39,8.23h-3.91c-0.41,0-0.75-0.34-0.75-0.75V4.9c0-0.41,0.34-0.75,0.75-0.75h3.91
				c0.41,0,0.75,0.34,0.75,0.75v2.58C25.14,7.89,24.8,8.23,24.39,8.23z M21.23,6.73h2.41V5.65h-2.41V6.73z"/>
		</g>
		<g>
			<path class="st0" d="M26.85,18.83h-9.47c-1.41,0-2.27-2.07-2.27-3.2c0-0.41,0.34-0.75,0.75-0.75s0.75,0.34,0.75,0.75
				c0,0.65,0.54,1.63,0.79,1.7l9.46,0c0.41,0,0.75,0.34,0.75,0.75S27.26,18.83,26.85,18.83z"/>
		</g>
		<g>
			<path class="st0" d="M50.15,24.52H14.99c-8.66,0-9.61-8.74-9.62-8.82c-0.02-0.21,0.05-0.42,0.19-0.58
				c0.14-0.16,0.34-0.25,0.56-0.25h20.73c0.41,0,0.75,0.34,0.75,0.75v1.7l14.07,0l1.61-2.74c0.52-0.89,1.49-1.44,2.52-1.44h1.63
				c0.41,0,0.75,0.34,0.75,0.75s-0.34,0.75-0.75,0.75h-1.63c-0.5,0-0.97,0.27-1.23,0.7l-1.82,3.11c-0.13,0.23-0.37,0.37-0.64,0.37
				l-0.51,0.01H26.85c-0.41,0-0.75-0.34-0.75-0.75v-1.7H7.01c0.43,1.95,2.09,6.65,7.98,6.65h35.16c0.34,0,0.62-0.28,0.62-0.62v-2
				c0-0.07,0.01-0.14,0.03-0.2c0,0,0.32-1.13,0.6-1.92c0.14-0.39,0.57-0.59,0.96-0.46s0.59,0.57,0.46,0.96
				c-0.22,0.61-0.46,1.44-0.54,1.72v1.89C52.26,23.57,51.31,24.52,50.15,24.52z"/>
		</g>
		<g>
			<path class="st0" d="M17.85,16.37c-0.41,0-0.75-0.34-0.75-0.75V10.4h-2.5v5.23c0,0.41-0.34,0.75-0.75,0.75s-0.75-0.34-0.75-0.75
				V9.65c0-0.41,0.34-0.75,0.75-0.75h4c0.41,0,0.75,0.34,0.75,0.75v5.98C18.6,16.04,18.26,16.37,17.85,16.37z"/>
		</g>
		<g>
			<path class="st0" d="M10.14,16.37c-0.41,0-0.75-0.34-0.75-0.75v-3.46c0-0.41,0.34-0.75,0.75-0.75h2.71
				c0.41,0,0.75,0.34,0.75,0.75s-0.34,0.75-0.75,0.75h-1.96v2.71C10.89,16.04,10.55,16.37,10.14,16.37z"/>
		</g>
	</g>
	<g id="Trazado_11848_1_">
		<path class="st2" d="M51.79,17.36c-1.73,0-3.13-1.41-3.13-3.13c0-1.73,1.41-3.14,3.13-3.14c0,0,0.01,0,0.01,0
			c1.72,0,3.12,1.39,3.12,3.11c0,0,0,0.02,0,0.02C54.92,15.95,53.51,17.36,51.79,17.36z M51.79,12.59
			C51.79,12.59,51.79,12.59,51.79,12.59c-0.91,0-1.64,0.73-1.64,1.64c0,0.9,0.73,1.63,1.63,1.63s1.63-0.73,1.63-1.63V14.2
			C53.42,13.31,52.69,12.59,51.79,12.59z"/>
	</g>
</g>
</svg>
