<?xml version="1.0" encoding="utf-8"?>
<!-- Generator: Adobe Illustrator 24.0.2, SVG Export Plug-In . SVG Version: 6.00 Build 0)  -->
<svg version="1.1" id="Capa_1" xmlns="http://www.w3.org/2000/svg" xmlns:xlink="http://www.w3.org/1999/xlink" x="0px" y="0px"
	 viewBox="0 0 65 65" style="enable-background:new 0 0 65 65;" xml:space="preserve">
<style type="text/css">
	.st0{fill:none;}
	.st1{fill:#00AB00;}
	.st2{fill:#90A6B1;}
	.st3{fill:#19A301;}
	.st4{fill:#82D400;}
</style>
<g>
	<g id="Grupo_14998_1_" transform="translate(-83.703)">
		<g id="Rectángulo_3799-2_4_">
			<rect x="83.7" class="st0" width="65" height="65"/>
		</g>
		<g id="Grupo_15571">
			<g id="Trazado_11848">
				<path class="st1" d="M93.57,36.01c-2.71,0-4.92-2.21-4.92-4.92c0-2.72,2.24-4.92,4.94-4.92c1.3,0,2.52,0.5,3.45,1.42
					c0.93,0.92,1.44,2.15,1.45,3.46c0,0,0,0.03,0,0.03C98.49,33.8,96.28,36.01,93.57,36.01z M93.59,27.77c0,0-0.01,0-0.01,0
					c-1.83,0-3.32,1.49-3.32,3.32c0,1.83,1.49,3.32,3.32,3.32c1.83,0,3.32-1.49,3.32-3.32v-0.03c0-0.88-0.35-1.71-0.98-2.33
					C95.29,28.11,94.47,27.77,93.59,27.77z"/>
			</g>
			<g id="Elipse_2576">
				<path class="st2" d="M118.75,28.94c-4.51,0-8.18-3.67-8.18-8.18c0-4.51,3.67-8.18,8.18-8.18c4.51,0,8.18,3.67,8.18,8.18
					C126.93,25.27,123.27,28.94,118.75,28.94z M118.75,14.18c-3.63,0-6.58,2.95-6.58,6.58c0,3.63,2.95,6.58,6.58,6.58
					c3.63,0,6.58-2.95,6.58-6.58C125.33,17.13,122.38,14.18,118.75,14.18z"/>
			</g>
			<g id="Elipse_2577">
				<circle class="st2" cx="118.96" cy="20.89" r="1.13"/>
			</g>
			<g id="Rectángulo_5231">
				<path class="st2" d="M137.57,46.12H99.94c-0.44,0-0.8-0.36-0.8-0.8V33.5c0-0.44,0.36-0.8,0.8-0.8h37.62c0.44,0,0.8,0.36,0.8,0.8
					v11.81C138.37,45.76,138.01,46.12,137.57,46.12z M100.74,44.52h36.03V34.3h-36.03V44.52z"/>
			</g>
			<g id="Trazado_12630">
				<path class="st2" d="M99.87,47.23h-5.44c-0.44,0-0.8-0.36-0.8-0.8v-8.29c0-0.44,0.36-0.8,0.8-0.8s0.8,0.36,0.8,0.8v7.49h4.64
					c0.44,0,0.8,0.36,0.8,0.8S100.31,47.23,99.87,47.23z"/>
			</g>
			<g id="Rectángulo_5232">
				<path class="st2" d="M113.65,47.23h-5.44c-0.44,0-0.8-0.36-0.8-0.8V32.39c0-0.44,0.36-0.8,0.8-0.8h5.44c0.44,0,0.8,0.36,0.8,0.8
					v14.04C114.45,46.87,114.09,47.23,113.65,47.23z M109,45.63h3.84V33.19H109V45.63z"/>
			</g>
			<g id="Rectángulo_5233">
				<path class="st2" d="M130.37,47.23h-5.44c-0.44,0-0.8-0.36-0.8-0.8V32.39c0-0.44,0.36-0.8,0.8-0.8h5.44c0.44,0,0.8,0.36,0.8,0.8
					v14.04C131.17,46.87,130.82,47.23,130.37,47.23z M125.73,45.63h3.84V33.19h-3.84V45.63z"/>
			</g>
			<g id="Rectángulo_5234">
				<path class="st2" d="M142.95,47.23h-5.44c-0.44,0-0.8-0.36-0.8-0.8V32.39c0-0.44,0.36-0.8,0.8-0.8h5.44c0.44,0,0.8,0.36,0.8,0.8
					v14.04C143.75,46.87,143.39,47.23,142.95,47.23z M138.31,45.63h3.84V33.19h-3.84V45.63z"/>
			</g>
			<g id="Línea_2779">
				<path class="st2" d="M116.79,34.3c-0.44,0-0.8-0.36-0.8-0.8v-5.67c0-0.44,0.36-0.8,0.8-0.8s0.8,0.36,0.8,0.8v5.67
					C117.59,33.94,117.23,34.3,116.79,34.3z"/>
			</g>
			<g id="Línea_2780">
				<path class="st2" d="M121.46,34.3c-0.44,0-0.8-0.36-0.8-0.8v-5.85c0-0.44,0.36-0.8,0.8-0.8s0.8,0.36,0.8,0.8v5.85
					C122.26,33.94,121.9,34.3,121.46,34.3z"/>
			</g>
			<g id="Trazado_12631">
				<path class="st2" d="M122.25,17.23l-4.34,3.59l1.29,1.15L122.25,17.23z"/>
			</g>
		</g>
	</g>
	<g>
		<g>
			<g>
				<rect x="0" y="48.26" class="st0" width="65" height="16.74"/>
			</g>
			<g>
				<g>
					<path class="st3" d="M45.38,61.32h-7.17c-0.66,0-1.2-0.54-1.2-1.2s0.54-1.2,1.2-1.2h7.17c0.66,0,1.2,0.54,1.2,1.2
						S46.04,61.32,45.38,61.32z"/>
				</g>
				<g>
					<path class="st3" d="M53.11,61.32h-0.58c-0.66,0-1.2-0.54-1.2-1.2s0.54-1.2,1.2-1.2h0.58c0.66,0,1.2,0.54,1.2,1.2
						S53.77,61.32,53.11,61.32z"/>
				</g>
				<g>
					<path class="st3" d="M18.99,61.32h-7.1c-0.66,0-1.2-0.54-1.2-1.2s0.54-1.2,1.2-1.2h7.1c0.66,0,1.2,0.54,1.2,1.2
						S19.65,61.32,18.99,61.32z"/>
				</g>
				<g>
					<path class="st4" d="M31.05,61.32H18.53c-0.66,0-1.2-0.54-1.2-1.2s0.54-1.2,1.2-1.2h12.52c0.66,0,1.2,0.54,1.2,1.2
						S31.71,61.32,31.05,61.32z"/>
				</g>
				<g>
					<path class="st4" d="M35.47,55.21H11.89c-0.66,0-1.2-0.54-1.2-1.2s0.54-1.2,1.2-1.2h23.58c0.66,0,1.2,0.54,1.2,1.2
						S36.14,55.21,35.47,55.21z"/>
				</g>
				<g>
					<path class="st3" d="M53.11,55.21H34.75c-0.66,0-1.2-0.54-1.2-1.2s0.54-1.2,1.2-1.2h18.36c0.66,0,1.2,0.54,1.2,1.2
						S53.77,55.21,53.11,55.21z"/>
				</g>
				<g>
					<path class="st3" d="M12.32,55.21h-0.43c-0.66,0-1.2-0.54-1.2-1.2s0.54-1.2,1.2-1.2h0.43c0.66,0,1.2,0.54,1.2,1.2
						S12.98,55.21,12.32,55.21z"/>
				</g>
			</g>
		</g>
	</g>
</g>
</svg>
