<?xml version="1.0" encoding="utf-8"?>
<!-- Generator: Adobe Illustrator 24.0.2, SVG Export Plug-In . SVG Version: 6.00 Build 0)  -->
<svg version="1.1" id="Capa_1" xmlns="http://www.w3.org/2000/svg" xmlns:xlink="http://www.w3.org/1999/xlink" x="0px" y="0px"
	 viewBox="0 0 65 65" style="enable-background:new 0 0 65 65;" xml:space="preserve">
<style type="text/css">
	.st0{display:none;}
	.st1{fill:none;}
	.st2{fill:none;stroke:#90A6B1;stroke-width:1.6;stroke-linecap:round;stroke-linejoin:round;}
	.st3{clip-path:url(#SVGID_2_);}
	.st4{fill:#19A301;}
	.st5{fill:#82D400;}
	.st6{fill:none;stroke:#00A800;stroke-width:1.6;stroke-linecap:round;stroke-linejoin:round;stroke-miterlimit:10;}
</style>
<g id="BASE" class="st0">
</g>
<g id="Capa_1_1_">
	<g>
		<g>
			<g id="Grupo_13213_2_" transform="translate(-0.246 -0.246)">
				<rect id="Rectángulo_3799-2_2_" x="0.25" y="0.25" class="st1" width="65" height="65"/>
				<g>
					<g>
						<line id="Línea_1013_5_" class="st2" x1="19.16" y1="21.48" x2="19.16" y2="25.73"/>
						<line id="Línea_1014_5_" class="st2" x1="25.38" y1="21.48" x2="25.38" y2="25.73"/>
						<path id="Trazado_5700_1_" class="st2" d="M28.17,26.99l-2.79-1.26"/>
						<path id="Trazado_5700_11_" class="st2" d="M36.84,48.88v-5.36"/>
						<path id="Trazado_5700_6_" class="st2" d="M36.89,48.88H7.64v-13.8c0-1.34,0.34-2.67,1.09-3.78c0.53-0.79,1.23-1.46,2.04-1.82
							l8.39-3.75"/>
						<line id="Línea_1016_4_" class="st2" x1="22.27" y1="29.26" x2="19.16" y2="25.73"/>
						<line id="Línea_1017_5_" class="st2" x1="22.27" y1="29.26" x2="25.38" y2="25.73"/>
						<path id="Trazado_5701_5_" class="st2" d="M28.1,16.52c0,3.24-2.62,5.86-5.86,5.86s-5.86-2.62-5.86-5.86"/>
						<path id="Trazado_5702_5_" class="st2" d="M16.38,16.52v-4.04c0-3.24,2.62-5.86,5.86-5.86s5.86,2.62,5.86,5.86v4.04"/>
					</g>
					<path class="st2" d="M56.96,25.04c0.53,1.53,0.82,3.18,0.82,4.89c0,8.2-6.65,14.84-14.84,14.84c-2.18,0-4.25-0.47-6.12-1.32"/>
					<path class="st2" d="M36.82,43.46c-5.14-2.33-8.72-7.51-8.72-13.53c0-8.2,6.65-14.84,14.84-14.84c1.49,0,2.94,0.22,4.3,0.63"/>
					<g>
						<path class="st2" d="M43.03,23.33L43.03,23.33c3.14,0,5.68,2.54,5.68,5.68v7.63H37.35v-7.63
							C37.35,25.87,39.89,23.33,43.03,23.33z"/>
						<polygon class="st2" points="48.7,36.64 37.34,36.64 36.23,39.26 49.76,39.26 						"/>
						<path class="st2" d="M45.79,28.44c-0.24-1.18-1.15-2.12-2.31-2.41"/>
						<line class="st2" x1="45.85" y1="32.1" x2="45.85" y2="30.95"/>
						<line class="st2" x1="42.96" y1="20.15" x2="42.96" y2="18.6"/>
						<line class="st2" x1="36.98" y1="22.96" x2="35.59" y2="21.57"/>
						<line class="st2" x1="52.88" y1="28.89" x2="51.33" y2="28.89"/>
						<line class="st2" x1="34.56" y1="28.89" x2="33" y2="28.89"/>
					</g>
				</g>
			</g>
		</g>
		<g>
			<defs>
				<rect id="SVGID_1_" y="48.26" width="65" height="16.74"/>
			</defs>
			<clipPath id="SVGID_2_">
				<use xlink:href="#SVGID_1_"  style="overflow:visible;"/>
			</clipPath>
			<g class="st3">
				<g>
					<rect y="48.26" class="st1" width="65" height="16.74"/>
				</g>
				<g>
					<g>
						<path class="st4" d="M45.38,61.32h-7.17c-0.66,0-1.2-0.54-1.2-1.2s0.54-1.2,1.2-1.2h7.17c0.66,0,1.2,0.54,1.2,1.2
							S46.04,61.32,45.38,61.32z"/>
					</g>
					<g>
						<path class="st4" d="M53.11,61.32h-0.58c-0.66,0-1.2-0.54-1.2-1.2s0.54-1.2,1.2-1.2h0.58c0.66,0,1.2,0.54,1.2,1.2
							S53.77,61.32,53.11,61.32z"/>
					</g>
					<g>
						<path class="st4" d="M18.99,61.32h-7.1c-0.66,0-1.2-0.54-1.2-1.2s0.54-1.2,1.2-1.2h7.1c0.66,0,1.2,0.54,1.2,1.2
							S19.65,61.32,18.99,61.32z"/>
					</g>
					<g>
						<path class="st5" d="M31.05,61.32H18.53c-0.66,0-1.2-0.54-1.2-1.2s0.54-1.2,1.2-1.2h12.52c0.66,0,1.2,0.54,1.2,1.2
							S31.71,61.32,31.05,61.32z"/>
					</g>
					<g>
						<path class="st5" d="M35.47,55.21H11.89c-0.66,0-1.2-0.54-1.2-1.2s0.54-1.2,1.2-1.2h23.58c0.66,0,1.2,0.54,1.2,1.2
							S36.13,55.21,35.47,55.21z"/>
					</g>
					<g>
						<path class="st4" d="M53.11,55.21H34.75c-0.66,0-1.2-0.54-1.2-1.2s0.54-1.2,1.2-1.2h18.36c0.66,0,1.2,0.54,1.2,1.2
							S53.77,55.21,53.11,55.21z"/>
					</g>
					<g>
						<path class="st4" d="M12.32,55.21h-0.43c-0.66,0-1.2-0.54-1.2-1.2s0.54-1.2,1.2-1.2h0.43c0.66,0,1.2,0.54,1.2,1.2
							S12.98,55.21,12.32,55.21z"/>
					</g>
				</g>
			</g>
		</g>
		<path id="Trazado_11848_7_" class="st6" d="M56.71,19.2c0,2.31-1.87,4.18-4.18,4.18s-4.18-1.87-4.18-4.18s1.87-4.18,4.18-4.18l0,0
			c2.3-0.01,4.17,1.85,4.18,4.15C56.71,19.18,56.71,19.19,56.71,19.2z"/>
	</g>
</g>
</svg>
