<?xml version="1.0" encoding="utf-8"?>
<!-- Generator: Adobe Illustrator 24.0.2, SVG Export Plug-In . SVG Version: 6.00 Build 0)  -->
<svg version="1.1" id="Capa_1" xmlns="http://www.w3.org/2000/svg" xmlns:xlink="http://www.w3.org/1999/xlink" x="0px" y="0px"
	 viewBox="0 0 65 65" style="enable-background:new 0 0 65 65;" xml:space="preserve">
<style type="text/css">
	.st0{display:none;}
	.st1{fill:none;stroke:#93A4AF;stroke-width:1.6;stroke-linecap:round;stroke-linejoin:round;}
	.st2{fill:none;stroke:#00AB00;stroke-width:1.6;stroke-linecap:round;stroke-linejoin:round;stroke-miterlimit:10;}
	.st3{clip-path:url(#SVGID_2_);}
	.st4{fill:none;}
	.st5{fill:#19A301;}
	.st6{fill:#82D400;}
	.st7{fill:none;stroke:#93A4AF;stroke-width:1.8;stroke-linecap:round;stroke-linejoin:round;}
</style>
<g id="BASE" class="st0">
</g>
<g id="Capa_1_1_">
	<g>
		<g>
			<g>
				<path class="st1" d="M30.88,9.6l-2.66,0.29c-1.2,0.13-2.35-0.53-2.83-1.64l-1.07-2.44c-0.53-0.08-1.07-0.14-1.62-0.14
					c-0.55,0-1.19,0.08-1.62,0.14l-1.07,2.44c-0.49,1.1-1.63,1.77-2.83,1.64L14.5,9.6c-0.68,0.84-1.22,1.79-1.62,2.81l1.58,2.15
					c0.71,0.97,0.71,2.3,0,3.27l-1.58,2.15c0.4,1.02,0.94,1.97,1.62,2.81l2.66-0.29c1.2-0.13,2.35,0.53,2.83,1.64l1.07,2.44
					c0.53,0.08,1.07,0.14,1.62,0.14c0.55,0,1.09-0.06,1.62-0.14l1.07-2.44c0.49-1.1,1.63-1.77,2.83-1.64l2.66,0.29
					c0.68-0.84,1.22-1.79,1.62-2.81l-1.58-2.15c-0.71-0.97-0.71-2.3,0-3.27l1.58-2.15C32.1,11.39,31.56,10.44,30.88,9.6z"/>
				<path id="Trazado_11848_8_" class="st2" d="M26.88,16.2c0,2.31-1.87,4.18-4.18,4.18s-4.18-1.87-4.18-4.18s1.87-4.18,4.18-4.18
					l0,0c2.3-0.01,4.17,1.85,4.18,4.15C26.88,16.18,26.88,16.19,26.88,16.2z"/>
			</g>
			<g>
				<circle class="st1" cx="45.58" cy="28.67" r="6.55"/>
				<path class="st1" d="M50.33,15.85l-2.78,2.09c-1.25,0.95-2.98,0.97-4.26,0.06l-2.82-2.01c-0.65,0.26-1.29,0.56-1.91,0.93
					s-1.28,0.88-1.72,1.24l0.42,3.44c0.19,1.56-0.65,3.06-2.08,3.72l-3.16,1.45c-0.2,1.39-0.18,2.81,0.06,4.22l3.19,1.36
					c1.45,0.61,2.33,2.09,2.18,3.66l-0.33,3.45c1.12,0.88,2.36,1.58,3.68,2.06l2.78-2.09c1.25-0.95,2.98-0.97,4.26-0.06l2.82,2.01
					c0.65-0.26,1.29-0.56,1.91-0.93s1.18-0.79,1.72-1.24l-0.42-3.44c-0.19-1.56,0.65-3.06,2.08-3.72l3.16-1.45
					c0.2-1.39,0.18-2.81-0.06-4.22l-3.19-1.36c-1.45-0.61-2.33-2.09-2.18-3.66l0.33-3.45C52.89,17.03,51.65,16.33,50.33,15.85z"/>
			</g>
		</g>
		<g>
			<defs>
				<rect id="SVGID_1_" y="48.26" width="65" height="16.74"/>
			</defs>
			<clipPath id="SVGID_2_">
				<use xlink:href="#SVGID_1_"  style="overflow:visible;"/>
			</clipPath>
			<g class="st3">
				<g>
					<rect y="48.26" class="st4" width="65" height="16.74"/>
				</g>
				<g>
					<g>
						<path class="st5" d="M45.38,61.32h-7.17c-0.66,0-1.2-0.54-1.2-1.2s0.54-1.2,1.2-1.2h7.17c0.66,0,1.2,0.54,1.2,1.2
							S46.04,61.32,45.38,61.32z"/>
					</g>
					<g>
						<path class="st5" d="M53.11,61.32h-0.58c-0.66,0-1.2-0.54-1.2-1.2s0.54-1.2,1.2-1.2h0.58c0.66,0,1.2,0.54,1.2,1.2
							S53.77,61.32,53.11,61.32z"/>
					</g>
					<g>
						<path class="st5" d="M18.99,61.32h-7.1c-0.66,0-1.2-0.54-1.2-1.2s0.54-1.2,1.2-1.2h7.1c0.66,0,1.2,0.54,1.2,1.2
							S19.65,61.32,18.99,61.32z"/>
					</g>
					<g>
						<path class="st6" d="M31.05,61.32H18.53c-0.66,0-1.2-0.54-1.2-1.2s0.54-1.2,1.2-1.2h12.52c0.66,0,1.2,0.54,1.2,1.2
							S31.71,61.32,31.05,61.32z"/>
					</g>
					<g>
						<path class="st6" d="M35.47,55.21H11.89c-0.66,0-1.2-0.54-1.2-1.2s0.54-1.2,1.2-1.2h23.58c0.66,0,1.2,0.54,1.2,1.2
							S36.13,55.21,35.47,55.21z"/>
					</g>
					<g>
						<path class="st5" d="M53.11,55.21H34.75c-0.66,0-1.2-0.54-1.2-1.2s0.54-1.2,1.2-1.2h18.36c0.66,0,1.2,0.54,1.2,1.2
							S53.77,55.21,53.11,55.21z"/>
					</g>
					<g>
						<path class="st5" d="M12.32,55.21h-0.43c-0.66,0-1.2-0.54-1.2-1.2s0.54-1.2,1.2-1.2h0.43c0.66,0,1.2,0.54,1.2,1.2
							S12.98,55.21,12.32,55.21z"/>
					</g>
				</g>
			</g>
		</g>
		<g>
			<line class="st1" x1="45.58" y1="25.44" x2="45.58" y2="31.91"/>
			<line class="st1" x1="48.82" y1="28.67" x2="42.34" y2="28.67"/>
		</g>
		<g>
			<g>
				<g id="Grupo_13591_2_">
					<g id="Grupo_13590_2_">
						<rect id="Rectángulo_4762_2_" x="10.54" y="34.64" class="st1" width="4.59" height="12.15"/>
						<rect id="Rectángulo_4763_2_" x="5.58" y="37.35" class="st1" width="4.96" height="6.73"/>
						<path id="Trazado_11867_5_" class="st1" d="M20.06,36.2h-4.94v9.02h44.29V36.2h-5.28"/>
						<path id="Trazado_11867_3_" class="st1" d="M37.39,36.2h-11.9"/>
					</g>
				</g>
			</g>
		</g>
		<path id="Trazado_12472" class="st7" d="M24.72,35.48l-2.1-4.34l-1.94,4.34c-0.21,0.44-0.35,0.92-0.41,1.41
			c0,1.34,1.09,2.42,2.43,2.42c1.33,0,2.42-1.08,2.42-2.42C25.06,36.4,24.92,35.93,24.72,35.48z"/>
		<rect id="Rectángulo_3799-2_6_" class="st4" width="65" height="65"/>
	</g>
</g>
</svg>
