<?xml version="1.0" encoding="utf-8"?>
<!-- Generator: Adobe Illustrator 24.0.2, SVG Export Plug-In . SVG Version: 6.00 Build 0)  -->
<svg version="1.1" id="Capa_1" xmlns="http://www.w3.org/2000/svg" xmlns:xlink="http://www.w3.org/1999/xlink" x="0px" y="0px"
	 viewBox="0 0 65 65" style="enable-background:new 0 0 65 65;" xml:space="preserve">
<style type="text/css">
	.st0{display:none;}
	.st1{fill:none;stroke:#00AB00;stroke-width:1.6;stroke-linecap:round;stroke-linejoin:round;stroke-miterlimit:10;}
	.st2{fill:none;stroke:#93A4AF;stroke-width:1.6;stroke-linecap:round;stroke-linejoin:round;}
	.st3{fill:none;}
	.st4{clip-path:url(#SVGID_2_);}
	.st5{fill:#19A301;}
	.st6{fill:#82D400;}
</style>
<g id="BASE" class="st0">
</g>
<g id="Capa_1_1_">
	<g>
		<g id="Grupo_14734" transform="translate(-90.055)">
			<g id="Grupo_14731">
				<path id="Trazado_11848_1_" class="st1" d="M106.37,13.54c0,2.31-1.87,4.18-4.18,4.18s-4.18-1.87-4.18-4.18s1.87-4.18,4.18-4.18
					l0,0l0,0c2.3-0.01,4.17,1.85,4.18,4.15l0,0V13.54z"/>
				<path id="Trazado_11852_1_" class="st2" d="M123.44,13.1h-13.26"/>
				<path id="Trazado_11852_2_" class="st2" d="M101.97,21.69v25.95h41.18v-21.3"/>
				<line id="Línea_2422_2_" class="st2" x1="113.25" y1="13.1" x2="113.25" y2="17.49"/>
				<line id="Línea_2423_2_" class="st2" x1="119.52" y1="13.1" x2="119.52" y2="17.49"/>
				<line id="Línea_2425_1_" class="st2" x1="125.95" y1="17.58" x2="110.17" y2="17.58"/>
				<line id="Línea_2751" class="st2" x1="142.28" y1="41.59" x2="132.99" y2="41.59"/>
				<line id="Línea_2752" class="st2" x1="111.25" y1="28.67" x2="101.97" y2="28.67"/>
				<line id="Línea_2753" class="st2" x1="130.02" y1="41.59" x2="128.78" y2="41.59"/>
				<line id="Línea_2754" class="st2" x1="97.63" y1="47.65" x2="147.48" y2="47.65"/>
			</g>
			<g id="Grupo_13216">
				<rect id="Rectángulo_3799" x="90.06" class="st3" width="65" height="65"/>
			</g>
			<rect id="Rectángulo_3799-2" x="90.06" class="st3" width="65" height="65"/>
		</g>
		<g>
			<defs>
				<rect id="SVGID_1_" y="48.26" width="65" height="16.74"/>
			</defs>
			<clipPath id="SVGID_2_">
				<use xlink:href="#SVGID_1_"  style="overflow:visible;"/>
			</clipPath>
			<g class="st4">
				<g>
					<rect y="48.26" class="st3" width="65" height="16.74"/>
				</g>
				<g>
					<g>
						<path class="st5" d="M45.38,61.32h-7.17c-0.66,0-1.2-0.54-1.2-1.2s0.54-1.2,1.2-1.2h7.17c0.66,0,1.2,0.54,1.2,1.2
							S46.04,61.32,45.38,61.32z"/>
					</g>
					<g>
						<path class="st5" d="M53.11,61.32h-0.58c-0.66,0-1.2-0.54-1.2-1.2s0.54-1.2,1.2-1.2h0.58c0.66,0,1.2,0.54,1.2,1.2
							S53.77,61.32,53.11,61.32z"/>
					</g>
					<g>
						<path class="st5" d="M18.99,61.32h-7.1c-0.66,0-1.2-0.54-1.2-1.2s0.54-1.2,1.2-1.2h7.1c0.66,0,1.2,0.54,1.2,1.2
							S19.65,61.32,18.99,61.32z"/>
					</g>
					<g>
						<path class="st6" d="M31.05,61.32H18.53c-0.66,0-1.2-0.54-1.2-1.2s0.54-1.2,1.2-1.2h12.52c0.66,0,1.2,0.54,1.2,1.2
							S31.71,61.32,31.05,61.32z"/>
					</g>
					<g>
						<path class="st6" d="M35.47,55.21H11.89c-0.66,0-1.2-0.54-1.2-1.2s0.54-1.2,1.2-1.2h23.58c0.66,0,1.2,0.54,1.2,1.2
							S36.13,55.21,35.47,55.21z"/>
					</g>
					<g>
						<path class="st5" d="M53.11,55.21H34.75c-0.66,0-1.2-0.54-1.2-1.2s0.54-1.2,1.2-1.2h18.36c0.66,0,1.2,0.54,1.2,1.2
							S53.77,55.21,53.11,55.21z"/>
					</g>
					<g>
						<path class="st5" d="M12.32,55.21h-0.43c-0.66,0-1.2-0.54-1.2-1.2s0.54-1.2,1.2-1.2h0.43c0.66,0,1.2,0.54,1.2,1.2
							S12.98,55.21,12.32,55.21z"/>
					</g>
				</g>
			</g>
		</g>
		<g>
			<g>
				<path class="st2" d="M57.77,23.14l-6.99-4.93l0,0c0.04-0.55,0-1.12-0.13-1.69c-0.69-3.01-3.69-4.89-6.7-4.2
					c-0.57,0.13-1.09,0.34-1.57,0.62l3.95,2.51l0.13,2.9L43.6,19.5L39.67,17c-0.09,0.66-0.07,1.34,0.08,2.02
					c0.69,3.01,3.69,4.89,6.7,4.2c0.67-0.16,1.29-0.43,1.83-0.79l0,0l7.47,4.2"/>
			</g>
			<path class="st2" d="M55.76,10.22l-3.3,0.36c-1.49,0.16-2.92-0.66-3.52-2.04L47.6,5.51c-0.66-0.1-1.33-0.17-2.02-0.17
				s-1.48,0.1-2.02,0.17l-1.34,3.03c-0.61,1.37-2.03,2.2-3.52,2.04l-3.3-0.36c-0.84,1.04-1.52,2.22-2.01,3.5l1.96,2.68
				c0.89,1.21,0.89,2.86,0,4.07l-1.96,2.68c0.49,1.27,1.17,2.45,2.01,3.5l3.3-0.36c1.49-0.16,2.92,0.66,3.52,2.04l1.34,3.03
				c0.66,0.1,1.33,0.17,2.02,0.17s1.36-0.07,2.02-0.17l1.34-3.03c0.61-1.37,2.03-2.2,3.52-2.04l3.3,0.36
				c0.84-1.04,1.52-2.22,2.01-3.5l-1.96-2.68c-0.89-1.21-0.89-2.86,0-4.07l1.96-2.68C57.28,12.44,56.6,11.26,55.76,10.22z"/>
		</g>
	</g>
</g>
</svg>
