<?xml version="1.0" encoding="utf-8"?>
<!-- Generator: Adobe Illustrator 24.0.2, SVG Export Plug-In . SVG Version: 6.00 Build 0)  -->
<svg version="1.1" id="Capa_1" xmlns="http://www.w3.org/2000/svg" xmlns:xlink="http://www.w3.org/1999/xlink" x="0px" y="0px"
	 viewBox="0 0 65 65" style="enable-background:new 0 0 65 65;" xml:space="preserve">
<style type="text/css">
	.st0{display:none;}
	.st1{fill:none;}
	.st2{clip-path:url(#SVGID_2_);}
	.st3{fill:#19A301;}
	.st4{fill:#82D400;}
	.st5{fill:none;stroke:#90A6B1;stroke-width:1.6;stroke-linecap:round;stroke-linejoin:round;}
	.st6{fill:none;stroke:#00AB00;stroke-width:1.8;stroke-linecap:round;stroke-linejoin:round;stroke-miterlimit:10;}
</style>
<g id="BASE" class="st0">
</g>
<g id="Capa_1_1_">
	<g>
		<g>
			<g>
				<rect id="Rectángulo_3799-2_4_" class="st1" width="65" height="65"/>
			</g>
			<g>
				<defs>
					<rect id="SVGID_1_" y="48.26" width="65" height="16.74"/>
				</defs>
				<clipPath id="SVGID_2_">
					<use xlink:href="#SVGID_1_"  style="overflow:visible;"/>
				</clipPath>
				<g class="st2">
					<g>
						<rect y="48.26" class="st1" width="65" height="16.74"/>
					</g>
					<g>
						<g>
							<path class="st3" d="M45.38,61.32h-7.17c-0.66,0-1.2-0.54-1.2-1.2s0.54-1.2,1.2-1.2h7.17c0.66,0,1.2,0.54,1.2,1.2
								S46.04,61.32,45.38,61.32z"/>
						</g>
						<g>
							<path class="st3" d="M53.11,61.32h-0.58c-0.66,0-1.2-0.54-1.2-1.2s0.54-1.2,1.2-1.2h0.58c0.66,0,1.2,0.54,1.2,1.2
								S53.77,61.32,53.11,61.32z"/>
						</g>
						<g>
							<path class="st3" d="M18.99,61.32h-7.1c-0.66,0-1.2-0.54-1.2-1.2s0.54-1.2,1.2-1.2h7.1c0.66,0,1.2,0.54,1.2,1.2
								S19.65,61.32,18.99,61.32z"/>
						</g>
						<g>
							<path class="st4" d="M31.05,61.32H18.53c-0.66,0-1.2-0.54-1.2-1.2s0.54-1.2,1.2-1.2h12.52c0.66,0,1.2,0.54,1.2,1.2
								S31.71,61.32,31.05,61.32z"/>
						</g>
						<g>
							<path class="st4" d="M35.47,55.21H11.89c-0.66,0-1.2-0.54-1.2-1.2s0.54-1.2,1.2-1.2h23.58c0.66,0,1.2,0.54,1.2,1.2
								S36.13,55.21,35.47,55.21z"/>
						</g>
						<g>
							<path class="st3" d="M53.11,55.21H34.75c-0.66,0-1.2-0.54-1.2-1.2s0.54-1.2,1.2-1.2h18.36c0.66,0,1.2,0.54,1.2,1.2
								S53.77,55.21,53.11,55.21z"/>
						</g>
						<g>
							<path class="st3" d="M12.32,55.21h-0.43c-0.66,0-1.2-0.54-1.2-1.2s0.54-1.2,1.2-1.2h0.43c0.66,0,1.2,0.54,1.2,1.2
								S12.98,55.21,12.32,55.21z"/>
						</g>
					</g>
				</g>
			</g>
		</g>
		<g>
			<g id="Grupo_13591_1_">
				<g id="Grupo_13590_1_">
					<rect id="Rectángulo_4762_1_" x="9.82" y="36.16" class="st5" width="3.13" height="10.83"/>
					<rect id="Rectángulo_4763_1_" x="6.2" y="39.79" class="st5" width="3.62" height="3.58"/>
					<path id="Trazado_11867_2_" class="st5" d="M55.29,32.27l-7.41,8.45l-0.59,0.59c-2.24,2.24-4.86,3.59-8.02,3.59H12.95v-6.65
						h20.09l4.13-0.05c2.17-0.03,4.25-0.9,5.79-2.42l7.58-8.22"/>
				</g>
			</g>
			<g>
				<path id="Trazado_11837_1_" class="st5" d="M15.51,20.26v7h10.86v-7H15.51"/>
				<line id="Línea_2401_1_" class="st5" x1="20.94" y1="20.26" x2="20.94" y2="15.98"/>
				<line id="Línea_2402_1_" class="st5" x1="18.17" y1="15.98" x2="23.93" y2="15.98"/>
				<line id="Línea_2403_1_" class="st5" x1="19.2" y1="23.76" x2="26.37" y2="23.76"/>
			</g>
			<line class="st5" x1="6.2" y1="27.26" x2="33.29" y2="27.26"/>
			<line class="st5" x1="19.19" y1="27.26" x2="19.19" y2="38.25"/>
			<line class="st5" x1="23.28" y1="27.26" x2="23.28" y2="38.25"/>
			<g>
				<line class="st5" x1="54.03" y1="23.62" x2="49.01" y2="18.54"/>
				<line class="st5" x1="46.37" y1="22.94" x2="50.43" y2="27.09"/>
				<path class="st5" d="M46.32,15.83l-2.45-2.48l0,0c0.17-0.53,0.26-1.09,0.26-1.67c0-3.09-2.5-5.59-5.59-5.59
					c-0.58,0-1.14,0.09-1.67,0.25l3.29,3.34l-0.52,2.85l-3.04,0.48l-3.27-3.32c-0.24,0.62-0.37,1.29-0.37,1.99
					c0,3.09,2.5,5.59,5.59,5.59c0.69,0,1.35-0.13,1.96-0.36l0,0l1.22,1.25"/>
				<g>
					<polyline class="st5" points="44.01,18.15 50.18,11.98 51.7,7.99 56.93,6.42 58.22,7.65 56.65,12.93 52.79,14.22 46.51,20.59 
											"/>
					<line class="st5" x1="41.26" y1="18.98" x2="41.87" y2="18.37"/>
					<path class="st5" d="M47.3,21.72l-9,8.98c-0.67,0.66-1.75,0.66-2.41,0l-1.97-1.97c-0.67-0.67-0.67-1.75,0-2.42l8.95-8.93"/>
					<polyline class="st5" points="41.87,18.37 42.91,17.33 47.3,21.72 45.6,23.42 					"/>
					<line class="st5" x1="37.67" y1="22.94" x2="41.93" y2="27.09"/>
				</g>
				<circle class="st5" cx="54.61" cy="27.8" r="1.16"/>
				<path id="Trazado_11848_2_" class="st6" d="M58.8,27.8c0,2.31-1.87,4.18-4.18,4.18s-4.18-1.87-4.18-4.18s1.87-4.18,4.18-4.18
					l0,0c2.3-0.01,4.17,1.85,4.18,4.15C58.8,27.78,58.8,27.79,58.8,27.8z"/>
			</g>
		</g>
		<rect id="Rectángulo_3799-2_3_" class="st1" width="65" height="65"/>
	</g>
</g>
</svg>
